<?xml version="1.0" encoding="utf-8"?>
<!-- Generator: Adobe Illustrator 26.3.1, SVG Export Plug-In . SVG Version: 6.00 Build 0)  -->
<svg version="1.1" id="Слой_1" xmlns="http://www.w3.org/2000/svg" xmlns:xlink="http://www.w3.org/1999/xlink" x="0px" y="0px"
	 viewBox="0 0 48 48" style="enable-background:new 0 0 48 48;" xml:space="preserve">
<path d="M11.8,29.4v-9.3h-3v-1.5h4.5v10.8H11.8z M18.4,29.4v-4.8c0-0.4,0.1-0.7,0.4-1c0.3-0.3,0.6-0.4,1-0.4h4.9v-3.1h-6.3v-1.5h6.4
	c0.4,0,0.8,0.1,1,0.4c0.3,0.3,0.4,0.6,0.4,1v3.5c0,0.4-0.1,0.7-0.4,1c-0.3,0.3-0.6,0.4-1,0.4h-4.9v3.1h6.4v1.5
	C26.2,29.4,18.4,29.4,18.4,29.4z M30.4,29.4v-1.5h6.4v-3.1h-4.4v-1.7h4.4v-3.1h-6.4v-1.5h6.5c0.4,0,0.7,0.1,1,0.4
	c0.3,0.3,0.4,0.6,0.4,1v8c0,0.4-0.1,0.7-0.4,1c-0.3,0.3-0.6,0.4-1,0.4C36.8,29.4,30.4,29.4,30.4,29.4z"/>
</svg>
