<?xml version="1.0" encoding="utf-8"?>
<!-- Generator: Adobe Illustrator 26.3.1, SVG Export Plug-In . SVG Version: 6.00 Build 0)  -->
<svg version="1.1" id="Слой_1" xmlns="http://www.w3.org/2000/svg" xmlns:xlink="http://www.w3.org/1999/xlink" x="0px" y="0px"
	 viewBox="0 0 48 48" style="enable-background:new 0 0 48 48;" xml:space="preserve">
<path d="M25.4,29.5h1.5v-4.7l4.9,4.7h2.3L28.3,24l5.8-5.3h-2.3l-5,4.7v-4.7h-1.5v10.8H25.4z M17.5,29.5H19V18.7h-4.6v1.5h3.1V29.5z
	 M10.8,40.1c-0.8,0-1.4-0.3-2-0.8c-0.5-0.5-0.8-1.2-0.8-2V10.9c0-0.8,0.3-1.4,0.8-2c0.5-0.5,1.2-0.8,2-0.8h26.5c0.8,0,1.4,0.3,2,0.8
	c0.5,0.5,0.8,1.2,0.8,2v26.5c0,0.8-0.3,1.4-0.8,2c-0.5,0.5-1.2,0.8-2,0.8H10.8V40.1z"/>
</svg>
