<?xml version="1.0" encoding="utf-8"?>
<!-- Generator: Adobe Illustrator 26.3.1, SVG Export Plug-In . SVG Version: 6.00 Build 0)  -->
<svg version="1.1" id="Слой_1" xmlns="http://www.w3.org/2000/svg" xmlns:xlink="http://www.w3.org/1999/xlink" x="0px" y="0px"
	 viewBox="0 0 48 48" style="enable-background:new 0 0 48 48;" xml:space="preserve">
<path d="M7.7,43v-7.7h1.5V43H7.7z M13.5,43v-7.7h1.5V43H13.5z M19.4,43v-7.7h1.5V43H19.4z M25.2,43v-7.7h15.1V43H25.2z M34,26v-5.2
	h-7V10h1.5v9.2H34V10h1.5v9.2h2.9v1.5h-2.9V26H34z M11.6,26v-6c0-0.7,0.3-1.4,0.8-1.9c0.6-0.6,1.2-0.8,1.9-0.8h4.2
	c0.4,0,0.7-0.1,0.9-0.3c0.2-0.2,0.3-0.5,0.3-0.9v-3.2c0-0.4-0.1-0.7-0.3-0.9c-0.2-0.2-0.5-0.3-0.9-0.3h-6.9V10h6.9
	c0.8,0,1.4,0.3,2,0.8c0.5,0.6,0.8,1.2,0.8,1.9V16c0,0.7-0.3,1.4-0.8,1.9c-0.5,0.6-1.2,0.8-2,0.8h-4.2c-0.3,0-0.6,0.1-0.9,0.3
	c-0.2,0.2-0.4,0.5-0.4,0.9v4.5h7.7V26H11.6z"/>
</svg>
