<?xml version="1.0" encoding="utf-8"?>
<!-- Generator: Adobe Illustrator 26.3.1, SVG Export Plug-In . SVG Version: 6.00 Build 0)  -->
<svg version="1.1" id="Слой_1" xmlns="http://www.w3.org/2000/svg" xmlns:xlink="http://www.w3.org/1999/xlink" x="0px" y="0px"
	 viewBox="0 0 48 48" style="enable-background:new 0 0 48 48;" xml:space="preserve">
<path d="M13.8,29.4h7.5v-1.5h-6v-3.1H20c0.4,0,0.7-0.1,1-0.4s0.4-0.6,0.4-1V20c0-0.4-0.1-0.7-0.4-1s-0.6-0.4-1-0.4h-6.2v1.5h6v3.2
	h-4.6c-0.4,0-0.8,0.1-1,0.4s-0.4,0.6-0.4,1C13.8,24.7,13.8,29.4,13.8,29.4z M25.7,29.4h6.6c0.5,0,1-0.2,1.4-0.6s0.6-0.9,0.6-1.4
	v-6.8c0-0.6-0.2-1-0.6-1.4c-0.4-0.4-0.9-0.6-1.4-0.6h-6.6C25.7,18.6,25.7,29.4,25.7,29.4z M27.2,27.8v-7.7h4.9
	c0.2,0,0.3,0.1,0.4,0.2c0.1,0.1,0.2,0.3,0.2,0.4v6.5c0,0.2-0.1,0.3-0.2,0.4c-0.1,0.1-0.3,0.2-0.4,0.2C32.2,27.8,27.2,27.8,27.2,27.8
	z M10.8,40c-0.8,0-1.4-0.3-2-0.8C8.3,38.7,8,38,8,37.2V10.8c0-0.8,0.3-1.4,0.8-2C9.3,8.3,10,8,10.8,8h26.5c0.8,0,1.4,0.3,2,0.8
	c0.5,0.5,0.8,1.2,0.8,2v26.5c0,0.8-0.3,1.4-0.8,2c-0.5,0.5-1.2,0.8-2,0.8L10.8,40L10.8,40z"/>
</svg>
