<?xml version="1.0" encoding="utf-8"?>
<!-- Generator: Adobe Illustrator 26.3.1, SVG Export Plug-In . SVG Version: 6.00 Build 0)  -->
<svg version="1.1" id="Слой_1" xmlns="http://www.w3.org/2000/svg" xmlns:xlink="http://www.w3.org/1999/xlink" x="0px" y="0px"
	 viewBox="0 0 48 48" style="enable-background:new 0 0 48 48;" xml:space="preserve">
<path d="M17,37.3l-1.1-1.1l4.5-4.5c-4-0.5-7.4-1.4-10.2-2.8s-4.2-3-4.2-5c0-2.1,1.8-3.9,5.3-5.5c3.5-1.5,7.8-2.3,12.7-2.3
	c5,0,9.2,0.8,12.7,2.3s5.3,3.4,5.3,5.5c0,1.4-0.9,2.7-2.7,4c-1.8,1.2-4.2,2.2-7.2,2.9v-1.6c2.6-0.6,4.7-1.5,6.1-2.5
	c1.5-1,2.2-1.9,2.2-2.8c0-1.1-1.4-2.5-4.2-4s-6.9-2.3-12.2-2.3s-9.4,0.8-12.2,2.3s-4.2,2.8-4.2,4c0,1.3,1.2,2.5,3.5,3.7
	s5.5,2.1,9.6,2.7l-4.8-4.7l1.1-1.1l6.5,6.4C23.5,30.8,17,37.3,17,37.3z"/>
</svg>
