<?xml version="1.0" encoding="utf-8"?>
<!-- Generator: Adobe Illustrator 26.3.1, SVG Export Plug-In . SVG Version: 6.00 Build 0)  -->
<svg version="1.1" id="Слой_1" xmlns="http://www.w3.org/2000/svg" xmlns:xlink="http://www.w3.org/1999/xlink" x="0px" y="0px"
	 viewBox="0 0 48 48" style="enable-background:new 0 0 48 48;" xml:space="preserve">
<path d="M33.8,27.8h1.5v-3.1h3.1v-1.4h-3.1v-3.1h-1.5v3.1h-3.1v1.4h3.1C33.8,24.7,33.8,27.8,33.8,27.8z M23.5,29.4H25v-4.7l4.9,4.7
	h2.3l-5.8-5.5l5.8-5.3H30l-5,4.7v-4.7h-1.5V29.4z M17.7,29.4h1.5v-3.1h2.5v-1.5h-2.5v-6.2h-1.5v6.2h-3.8v-6.2h-1.5v7.7h5.4
	C17.7,26.3,17.7,29.4,17.7,29.4z M10.8,40c-0.8,0-1.4-0.3-2-0.8C8.3,38.7,8,38,8,37.2V10.8c0-0.8,0.3-1.4,0.8-2C9.3,8.3,10,8,10.8,8
	h26.5c0.8,0,1.4,0.3,2,0.8c0.5,0.5,0.8,1.2,0.8,2v26.5c0,0.8-0.3,1.4-0.8,2c-0.5,0.5-1.2,0.8-2,0.8L10.8,40L10.8,40z"/>
</svg>
