<?xml version="1.0" encoding="utf-8"?>
<!-- Generator: Adobe Illustrator 26.3.1, SVG Export Plug-In . SVG Version: 6.00 Build 0)  -->
<svg version="1.1" id="Слой_1" xmlns="http://www.w3.org/2000/svg" xmlns:xlink="http://www.w3.org/1999/xlink" x="0px" y="0px"
	 viewBox="0 0 48 48" style="enable-background:new 0 0 48 48;" xml:space="preserve">
<path d="M7,33v-1.5h9.2c0.4,0,0.7-0.1,0.9-0.3c0.2-0.2,0.3-0.5,0.3-0.9V26c0-0.4-0.1-0.7-0.3-0.9c-0.2-0.2-0.5-0.3-0.9-0.3H7V15h12
	v1.5H8.5v6.7h7.7c0.7,0,1.4,0.3,1.9,0.8s0.8,1.2,0.8,1.9v4.2c0,0.7-0.3,1.4-0.8,1.9c-0.5,0.7-1.1,1-1.9,1H7z M41,23.2v7.1
	c0,0.7-0.3,1.4-0.8,1.9S39,33,38.2,33H28c-0.7,0-1.4-0.3-1.9-0.8s-0.8-1.2-0.8-1.9V17.8c0-0.7,0.3-1.4,0.8-1.9s1.2-0.8,1.9-0.8h10.5
	c0.5,0,1,0.1,1.4,0.4c0.4,0.3,0.8,0.7,1,1.1H28c-0.4,0-0.7,0.1-0.9,0.3c-0.2,0.2-0.3,0.5-0.3,0.9v12.5c0,0.4,0.1,0.7,0.3,0.9
	c0.2,0.2,0.5,0.3,0.9,0.3h10.2c0.4,0,0.7-0.1,0.9-0.3c0.2-0.2,0.3-0.5,0.3-0.9v-5.5h-5.1v-1.5L41,23.2L41,23.2z"/>
</svg>
