<?xml version="1.0" encoding="utf-8"?>
<!-- Generator: Adobe Illustrator 26.3.1, SVG Export Plug-In . SVG Version: 6.00 Build 0)  -->
<svg version="1.1" id="Слой_1" xmlns="http://www.w3.org/2000/svg" xmlns:xlink="http://www.w3.org/1999/xlink" x="0px" y="0px"
	 viewBox="0 0 48 48" style="enable-background:new 0 0 48 48;" xml:space="preserve">
<path d="M25.8,29.4h1.5v-4.7l4.9,4.7h2.3l-5.8-5.5l5.8-5.3h-2.3l-5,4.7v-4.7h-1.5C25.8,18.6,25.8,29.4,25.8,29.4z M15.1,29.4h4.8
	c0.4,0,0.7-0.1,1-0.4s0.4-0.6,0.4-1v-8c0-0.4-0.1-0.7-0.4-1s-0.6-0.4-1-0.4h-4.8c-0.4,0-0.7,0.1-1,0.4s-0.4,0.6-0.4,1v8
	c0,0.4,0.1,0.7,0.4,1C14.4,29.3,14.7,29.4,15.1,29.4z M15.2,23.3V20h4.5v3.3H15.2z M15.2,28v-3.3h4.5V28H15.2z M10.8,40
	c-0.8,0-1.4-0.3-2-0.8C8.3,38.7,8,38,8,37.2V10.8c0-0.8,0.3-1.4,0.8-2C9.3,8.3,10,8,10.8,8h26.5c0.8,0,1.4,0.3,2,0.8
	c0.5,0.5,0.8,1.2,0.8,2v26.5c0,0.8-0.3,1.4-0.8,2c-0.5,0.5-1.2,0.8-2,0.8L10.8,40L10.8,40z"/>
</svg>
