<?xml version="1.0" encoding="utf-8"?>
<!-- Generator: Adobe Illustrator 26.3.1, SVG Export Plug-In . SVG Version: 6.00 Build 0)  -->
<svg version="1.1" id="Слой_1" xmlns="http://www.w3.org/2000/svg" xmlns:xlink="http://www.w3.org/1999/xlink" x="0px" y="0px"
	 viewBox="0 0 48 48" style="enable-background:new 0 0 48 48;" xml:space="preserve">
<path d="M14,29.4h4.8c0.4,0,0.7-0.1,1-0.4s0.4-0.6,0.4-1v-8c0-0.4-0.1-0.7-0.4-1s-0.6-0.4-1-0.4H14c-0.4,0-0.7,0.1-1,0.4
	s-0.4,0.6-0.4,1v8c0,0.4,0.1,0.7,0.4,1C13.3,29.3,13.6,29.4,14,29.4z M14.2,28v-3.3h4.5V28H14.2z M14.2,23.3V20h4.5v3.3
	C18.6,23.3,14.2,23.3,14.2,23.3z M23.6,29.4h1.5v-4.7l4.9,4.7h2.3l-5.8-5.5l5.8-5.3H30l-5,4.7v-4.7h-1.5
	C23.6,18.6,23.6,29.4,23.6,29.4z M33.8,27.8h1.5v-3.1h3.1v-1.4h-3.1v-3.1h-1.5v3.1h-3.1v1.4h3.1V27.8z M10.8,40
	c-0.8,0-1.4-0.3-2-0.8C8.3,38.7,8,38,8,37.2V10.8c0-0.8,0.3-1.4,0.8-2C9.3,8.3,10,8,10.8,8h26.5c0.8,0,1.4,0.3,2,0.8
	c0.5,0.5,0.8,1.2,0.8,2v26.5c0,0.8-0.3,1.4-0.8,2c-0.5,0.5-1.2,0.8-2,0.8L10.8,40L10.8,40z"/>
</svg>
