<?xml version="1.0" encoding="utf-8"?>
<!-- Generator: Adobe Illustrator 26.3.1, SVG Export Plug-In . SVG Version: 6.00 Build 0)  -->
<svg version="1.1" id="Слой_1" xmlns="http://www.w3.org/2000/svg" xmlns:xlink="http://www.w3.org/1999/xlink" x="0px" y="0px"
	 viewBox="0 0 48 48" style="enable-background:new 0 0 48 48;" xml:space="preserve">
<path d="M33.8,29.4c-0.4,0-0.8-0.1-1-0.4c-0.3-0.3-0.4-0.6-0.4-1v-8c0-0.4,0.1-0.7,0.4-1c0.3-0.3,0.6-0.4,1-0.4h6.1
	c0.4,0,0.7,0.1,1,0.4s0.4,0.6,0.4,1v2h-1.5v-1.9h-6v7.8h6V26h1.5v2c0,0.4-0.1,0.7-0.4,1c-0.3,0.3-0.6,0.4-1,0.4H33.8z M19.6,29.4
	V18.6h7.5c0.4,0,0.8,0.1,1,0.4c0.3,0.3,0.4,0.6,0.4,1v2.8c0,0.3-0.1,0.6-0.2,0.8c-0.1,0.2-0.4,0.3-0.8,0.4c0.4,0.1,0.6,0.2,0.8,0.4
	c0.1,0.2,0.2,0.5,0.2,0.8V28c0,0.4-0.1,0.7-0.4,1s-0.6,0.4-1,0.4H19.6z M21.1,23.3h6v-3.2h-6C21.1,20.1,21.1,23.3,21.1,23.3z
	 M21.1,27.9h6v-3.2h-6C21.1,24.7,21.1,27.9,21.1,27.9z M6.7,29.4V20c0-0.4,0.1-0.7,0.4-1s0.6-0.4,1-0.4h6.1c0.4,0,0.8,0.1,1,0.4
	c0.3,0.3,0.4,0.6,0.4,1v9.4h-1.5v-3.8h-6v3.8C8.2,29.4,6.7,29.4,6.7,29.4z M8.2,24.1h6v-4h-6V24.1z"/>
</svg>
