<?xml version="1.0" encoding="utf-8"?>
<!-- Generator: Adobe Illustrator 26.3.1, SVG Export Plug-In . SVG Version: 6.00 Build 0)  -->
<svg version="1.1" id="Слой_1" xmlns="http://www.w3.org/2000/svg" xmlns:xlink="http://www.w3.org/1999/xlink" x="0px" y="0px"
	 viewBox="0 0 48 48" style="enable-background:new 0 0 48 48;" xml:space="preserve">
<path d="M24,11.3c-0.9,0-1.7-0.3-2.3-0.9c-0.6-0.6-0.9-1.4-0.9-2.3s0.3-1.7,0.9-2.3s1.4-0.9,2.3-0.9s1.7,0.3,2.3,0.9
	c0.6,0.6,0.9,1.4,0.9,2.3s-0.3,1.7-0.9,2.3C25.7,11,24.9,11.3,24,11.3z M19.9,43V16.5c-2.2-0.2-4.3-0.4-6.3-0.7s-3.9-0.6-5.6-1
	l0.4-1.5c2.6,0.6,5.2,1.1,7.7,1.3c2.5,0.3,5.1,0.4,8,0.4s5.5-0.1,8-0.4c2.5-0.3,5.1-0.7,7.7-1.3l0.3,1.5c-1.8,0.4-3.6,0.8-5.6,1
	c-2,0.3-4.1,0.5-6.3,0.7V43h-1.5V30.1h-5.1V43H19.9z"/>
</svg>
