<?xml version="1.0" encoding="utf-8"?>
<!-- Generator: Adobe Illustrator 26.3.1, SVG Export Plug-In . SVG Version: 6.00 Build 0)  -->
<svg version="1.1" id="Слой_1" xmlns="http://www.w3.org/2000/svg" xmlns:xlink="http://www.w3.org/1999/xlink" x="0px" y="0px"
	 viewBox="0 0 48 48" style="enable-background:new 0 0 48 48;" xml:space="preserve">
<path d="M24.3,12.2c-0.9,0-1.7-0.3-2.3-1c-0.7-0.6-1-1.3-1-2.2s0.3-1.7,0.9-2.3s1.4-0.9,2.3-0.9s1.6,0.3,2.3,0.9
	c0.6,0.6,1,1.4,1,2.3c0,0.9-0.3,1.6-1,2.3C25.9,11.9,25.1,12.2,24.3,12.2z M35,43.1v-9.3c0-0.3-0.1-0.6-0.3-0.7
	c-0.2-0.2-0.4-0.3-0.7-0.3h-9.7c-0.8,0-1.5-0.3-2-0.9c-0.6-0.6-0.9-1.2-0.9-2V17.8c0-0.8,0.3-1.5,0.8-2c0.5-0.6,1.2-0.8,2-0.8
	c0.4,0,0.8,0.1,1.3,0.4c0.4,0.2,1,0.7,1.7,1.5c1.7,1.9,3.2,3.3,4.7,4.3c1.5,0.9,3.1,1.5,5,1.8v1.5c-1.9-0.2-3.7-0.7-5.2-1.6
	s-3.2-2.3-5-4.1v11.9h7c0.8,0,1.5,0.3,2.1,0.8c0.6,0.6,0.8,1.2,0.8,2v9.6C36.6,43.1,35,43.1,35,43.1z M20.1,43.1
	c-2.5,0-4.6-0.9-6.4-2.6s-2.6-3.9-2.6-6.4c0-2.3,0.8-4.3,2.4-6s3.6-2.7,6.2-2.9v1.5c-2,0.1-3.7,0.9-5,2.3s-2,3.1-2,5
	c0,2.1,0.7,3.9,2.1,5.3c1.4,1.4,3.2,2.1,5.3,2.1c1.9,0,3.6-0.7,5-2s2.2-3,2.3-5H29c-0.2,2.5-1.2,4.5-2.9,6.1
	C24.4,42.3,22.4,43.1,20.1,43.1z"/>
</svg>
