<?xml version="1.0" encoding="utf-8"?>
<!-- Generator: Adobe Illustrator 26.3.1, SVG Export Plug-In . SVG Version: 6.00 Build 0)  -->
<svg version="1.1" id="Слой_1" xmlns="http://www.w3.org/2000/svg" xmlns:xlink="http://www.w3.org/1999/xlink" x="0px" y="0px"
	 viewBox="0 0 48 48" style="enable-background:new 0 0 48 48;" xml:space="preserve">
<path d="M24,40.5c1.9,0,3.8-0.3,5.6-1s3.5-1.6,4.9-2.8l-4.1-4.1c-1-0.4-2.1-0.7-3.2-0.8s-2.2-0.3-3.3-0.3c-2.1,0-4.2,0.4-6.2,1.1
	c-2,0.7-3.9,1.7-5.7,2.8c1.7,1.6,3.5,2.8,5.4,3.7S21.6,40.5,24,40.5z M42.5,44.8l-6.9-6.9c-1.6,1.3-3.4,2.4-5.4,3.1
	c-2,0.7-4.1,1.1-6.2,1.1c-2.5,0-4.8-0.5-7-1.4s-4.1-2.2-5.7-3.9c-1.6-1.6-2.9-3.5-3.9-5.7C6.5,28.8,6,26.5,6,24
	c0-2.1,0.4-4.1,1.1-6.1s1.7-3.8,3.1-5.4L3.8,6l1.1-1.1l38.8,38.8L42.5,44.8z M38.9,34L28.1,23.2c0.6-0.6,1.1-1.2,1.4-2
	c0.3-0.7,0.5-1.5,0.5-2.4c0-1.6-0.6-3-1.7-4.2c-1.2-1.2-2.6-1.7-4.2-1.7c-0.8,0-1.6,0.2-2.4,0.5c-0.7,0.3-1.4,0.8-2,1.4L14,9.1
	c1.5-1,3.1-1.8,4.8-2.3C20.5,6.3,22.2,6,24,6c2.5,0,4.8,0.5,7,1.4s4.1,2.2,5.7,3.9c1.6,1.6,2.9,3.5,3.9,5.7c0.9,2.2,1.4,4.5,1.4,7
	c0,1.8-0.3,3.5-0.8,5.2C40.7,30.9,40,32.5,38.9,34z"/>
</svg>
