<?xml version="1.0" encoding="utf-8"?>
<!-- Generator: Adobe Illustrator 26.3.1, SVG Export Plug-In . SVG Version: 6.00 Build 0)  -->
<svg version="1.1" id="Слой_1" xmlns="http://www.w3.org/2000/svg" xmlns:xlink="http://www.w3.org/1999/xlink" x="0px" y="0px"
	 viewBox="0 0 48 48" style="enable-background:new 0 0 48 48;" xml:space="preserve">
<path d="M10.8,40c-0.8,0-1.4-0.3-2-0.8C8.3,38.7,8,38,8,37.2V10.8c0-0.8,0.3-1.4,0.8-2C9.3,8.3,10,8,10.8,8h26.5
	c0.8,0,1.4,0.3,2,0.8c0.5,0.5,0.8,1.2,0.8,2v4H27.6c-1.4,0-2.5,0.4-3.3,1.3c-0.9,0.8-1.3,2-1.3,3.3v9.2c0,1.4,0.4,2.5,1.3,3.3
	s2,1.3,3.3,1.3H40v4c0,0.8-0.3,1.4-0.8,2c-0.5,0.5-1.2,0.8-2,0.8C37.2,40,10.8,40,10.8,40z M27.6,31.7c-0.9,0-1.6-0.3-2.2-0.8
	s-0.9-1.3-0.9-2.2v-9.2c0-0.9,0.3-1.7,0.9-2.2c0.6-0.6,1.3-0.8,2.2-0.8h11.3c0.9,0,1.7,0.3,2.2,0.8c0.6,0.6,0.8,1.3,0.8,2.2v9.2
	c0,0.9-0.3,1.7-0.8,2.2c-0.6,0.6-1.3,0.8-2.2,0.8H27.6z M32.3,27.1c0.8,0,1.6-0.3,2.2-0.9c0.6-0.6,0.9-1.3,0.9-2.2
	c0-0.9-0.3-1.6-0.9-2.2c-0.6-0.6-1.3-0.9-2.2-0.9c-0.9,0-1.6,0.3-2.2,0.9s-0.9,1.3-0.9,2.2c0,0.8,0.3,1.6,0.9,2.2
	C30.7,26.8,31.4,27.1,32.3,27.1z"/>
</svg>
