<?xml version="1.0" encoding="utf-8"?>
<!-- Generator: Adobe Illustrator 26.3.1, SVG Export Plug-In . SVG Version: 6.00 Build 0)  -->
<svg version="1.1" id="Слой_1" xmlns="http://www.w3.org/2000/svg" xmlns:xlink="http://www.w3.org/1999/xlink" x="0px" y="0px"
	 viewBox="0 0 48 48" style="enable-background:new 0 0 48 48;" xml:space="preserve">
<path d="M12.1,35.4c1.9-1.2,3.8-2.2,5.7-2.9s4-1,6.2-1s4.4,0.3,6.2,1c1.9,0.7,3.8,1.6,5.7,2.9c1.4-1.6,2.6-3.3,3.4-5.2
	c0.8-1.9,1.2-4,1.2-6.2c0-4.6-1.6-8.5-4.8-11.7C32.5,9.1,28.6,7.5,24,7.5s-8.5,1.6-11.7,4.8S7.5,19.4,7.5,24c0,2.2,0.4,4.3,1.2,6.2
	S10.7,33.9,12.1,35.4z M24,24.8c-1.7,0-3.1-0.6-4.2-1.7s-1.7-2.6-1.7-4.2c0-1.7,0.6-3.1,1.7-4.2S22.4,13,24,13
	c1.7,0,3.1,0.6,4.2,1.7s1.7,2.6,1.7,4.2c0,1.7-0.6,3.1-1.7,4.2C27.1,24.2,25.7,24.8,24,24.8z M24,42c-2.5,0-4.8-0.5-7-1.4
	s-4.1-2.2-5.7-3.9c-1.6-1.6-2.9-3.5-3.8-5.7c-1-2.1-1.5-4.5-1.5-7s0.5-4.8,1.4-7s2.2-4.1,3.9-5.7c1.6-1.6,3.5-2.9,5.7-3.8
	c2.1-1,4.5-1.5,7-1.5s4.8,0.5,7,1.4s4.1,2.2,5.7,3.8c1.6,1.6,2.9,3.5,3.8,5.7s1.4,4.5,1.4,7s-0.5,4.9-1.4,7
	c-0.9,2.2-2.2,4.1-3.8,5.7s-3.5,2.9-5.7,3.9S26.5,42,24,42z"/>
</svg>
