<?xml version="1.0" encoding="utf-8"?>
<!-- Generator: Adobe Illustrator 26.3.1, SVG Export Plug-In . SVG Version: 6.00 Build 0)  -->
<svg version="1.1" id="Слой_1" xmlns="http://www.w3.org/2000/svg" xmlns:xlink="http://www.w3.org/1999/xlink" x="0px" y="0px"
	 viewBox="0 0 48 48" style="enable-background:new 0 0 48 48;" xml:space="preserve">
<path d="M24,6c2.5,0,4.8,0.5,7,1.4s4.1,2.2,5.7,3.8c1.6,1.6,2.9,3.5,3.8,5.7c0.9,2.2,1.4,4.5,1.4,7s-0.5,4.8-1.4,7s-2.2,4.1-3.8,5.7
	s-3.5,2.9-5.7,3.8c-2.2,0.9-4.5,1.4-7,1.4s-4.8-0.5-7-1.4s-4.1-2.2-5.7-3.9s-3-3.3-3.9-5.5S6,26.5,6,24s0.5-4.9,1.4-7
	c0.9-2.2,2.2-4.1,3.8-5.7s3.5-2.9,5.7-3.8C19.2,6.5,21.5,6,24,6z M20.5,15.4c0,1,0.3,1.9,1,2.5c0.7,0.7,1.5,1,2.5,1s1.9-0.3,2.5-1
	c0.7-0.7,1-1.5,1-2.5s-0.3-1.9-1-2.5c-0.7-0.7-1.5-1-2.5-1s-1.9,0.3-2.5,1C20.8,13.5,20.5,14.4,20.5,15.4z M24,20.6
	c-1.7,0-3.5,0.4-5.3,1.2c-1.8,0.8-2.8,1.9-2.8,3.3v6.8c0,1.3,0.9,2.4,2.8,3.3c1.9,0.9,3.9,1.3,6.2,1.1v-3.4c-1,0-1.9-0.1-2.9-0.3
	s-1.8-0.5-2.5-0.9c0.1-0.7,0.5-1.3,1.4-1.7c0.9-0.4,1.9-0.7,3-0.7s2.1,0.2,3.1,0.6c0.9,0.4,1.4,0.9,1.4,1.5v4.1
	c1.2-0.3,2.1-0.8,2.7-1.5s0.9-1.4,0.9-2.1v-6.8c0-1.4-0.9-2.5-2.8-3.3C27.5,21,25.7,20.6,24,20.6z M24,28.4c-0.6,0-1.2-0.2-1.6-0.7
	c-0.4-0.4-0.6-1-0.6-1.6s0.2-1.2,0.7-1.6c0.4-0.4,1-0.6,1.6-0.6s1.2,0.2,1.6,0.7c0.4,0.4,0.6,1,0.6,1.6s-0.2,1.1-0.7,1.6
	C25.2,28.2,24.6,28.4,24,28.4z"/>
</svg>
