<?xml version="1.0" encoding="utf-8"?>
<!-- Generator: Adobe Illustrator 26.3.1, SVG Export Plug-In . SVG Version: 6.00 Build 0)  -->
<svg version="1.1" id="Слой_1" xmlns="http://www.w3.org/2000/svg" xmlns:xlink="http://www.w3.org/1999/xlink" x="0px" y="0px"
	 viewBox="0 0 48 48" style="enable-background:new 0 0 48 48;" xml:space="preserve">
<path d="M24.1,27.1c1.7,0,3.1-0.6,4.2-1.7c1.2-1.2,1.7-2.6,1.7-4.2c0-1.7-0.6-3.1-1.7-4.2c-1.2-1.2-2.6-1.7-4.2-1.7
	c-1.7,0-3.1,0.6-4.2,1.7c-1.2,1.2-1.7,2.6-1.7,4.2c0,1.7,0.6,3.1,1.7,4.2C21,26.5,22.4,27.1,24.1,27.1z M10.8,40
	c-0.8,0-1.4-0.3-2-0.8C8.3,38.7,8,38,8,37.2V10.8c0-0.8,0.3-1.4,0.8-2C9.3,8.3,10,8,10.8,8h26.5c0.8,0,1.4,0.3,2,0.8
	c0.5,0.5,0.8,1.2,0.8,2v26.5c0,0.8-0.3,1.4-0.8,2c-0.5,0.5-1.2,0.8-2,0.8L10.8,40L10.8,40z M10.4,38.5h27.2c0.3-0.3,0.5-0.5,0.6-0.6
	s0.2-0.3,0.3-0.7c-1.9-1.8-4.1-3.3-6.5-4.4c-2.4-1.1-5.1-1.6-8-1.6s-5.5,0.5-7.9,1.6c-2.4,1.1-4.6,2.5-6.5,4.4
	c0.1,0.4,0.2,0.6,0.3,0.7C9.9,38,10.1,38.2,10.4,38.5z"/>
</svg>
