<?xml version="1.0" encoding="utf-8"?>
<!-- Generator: Adobe Illustrator 26.3.1, SVG Export Plug-In . SVG Version: 6.00 Build 0)  -->
<svg version="1.1" id="Слой_1" xmlns="http://www.w3.org/2000/svg" xmlns:xlink="http://www.w3.org/1999/xlink" x="0px" y="0px"
	 viewBox="0 0 48 48" style="enable-background:new 0 0 48 48;" xml:space="preserve">
<path d="M42,43.1l-5.5-5.4c-0.5,0.4-1.2,0.8-1.8,1C34,38.9,33.3,39,32.5,39c-1.8,0-3.3-0.6-4.6-1.9c-1.3-1.3-1.9-2.8-1.9-4.6
	s0.6-3.3,1.9-4.6c1.3-1.3,2.8-1.9,4.6-1.9c1.8,0,3.3,0.6,4.6,1.9s1.9,2.8,1.9,4.6c0,0.7-0.1,1.4-0.4,2.1c-0.2,0.7-0.6,1.3-1,1.8
	l5.5,5.5C43.1,42,42,43.1,42,43.1z M11.4,39c-1.8,0-3.3-0.6-4.6-1.9C5.6,35.9,5,34.3,5,32.5s0.6-3.3,1.9-4.6
	c1.3-1.3,2.8-1.9,4.6-1.9s3.4,0.6,4.7,1.9c1.3,1.3,1.9,2.8,1.9,4.6c0,1.8-0.6,3.4-1.9,4.6C14.8,38.4,13.3,39,11.4,39z M32.5,37.5
	c1.4,0,2.5-0.5,3.5-1.5s1.4-2.1,1.4-3.5c0-1.4-0.5-2.5-1.4-3.5c-1-1-2.1-1.4-3.5-1.4c-1.4,0-2.6,0.5-3.6,1.4c-1,1-1.4,2.1-1.4,3.5
	c0,1.4,0.5,2.6,1.4,3.5C29.9,37,31.1,37.5,32.5,37.5z M11.4,18.1c-1.8,0-3.3-0.6-4.6-1.9C5.6,14.9,5,13.3,5,11.5s0.6-3.3,1.9-4.6
	C8.1,5.7,9.7,5,11.4,5c1.8,0,3.4,0.6,4.7,1.9S18,9.7,18,11.5s-0.6,3.4-1.9,4.6S13.3,18.1,11.4,18.1z M32.5,18.1
	c-1.8,0-3.4-0.6-4.6-1.9S26,13.3,26,11.5s0.6-3.3,1.9-4.6S30.7,5,32.5,5s3.3,0.6,4.6,1.9S39,9.7,39,11.5s-0.6,3.4-1.9,4.6
	S34.3,18.1,32.5,18.1z"/>
</svg>
