<?xml version="1.0" encoding="utf-8"?>
<!-- Generator: Adobe Illustrator 26.3.1, SVG Export Plug-In . SVG Version: 6.00 Build 0)  -->
<svg version="1.1" id="Слой_1" xmlns="http://www.w3.org/2000/svg" xmlns:xlink="http://www.w3.org/1999/xlink" x="0px" y="0px"
	 viewBox="0 0 48 48" style="enable-background:new 0 0 48 48;" xml:space="preserve">
<path d="M29.6,38c-3.9,0-7.2-1.4-9.9-4.1s-4.1-6-4.1-9.9s1.4-7.2,4.1-9.9s6-4.1,9.9-4.1s7.2,1.4,9.9,4.1s4.1,6,4.1,9.9
	s-1.4,7.2-4.1,9.9C36.8,36.6,33.5,38,29.6,38z M34.8,30.3l1.1-1.1l-5.5-5.5v-7.1h-1.5v7.7C28.8,24.3,34.8,30.3,34.8,30.3z M6.4,16.8
	v-1.5h7.2v1.5H6.4z M4.4,24.8v-1.5h9.2v1.5H4.4z M6.4,32.8v-1.5h7.2v1.5H6.4z"/>
</svg>
