<?xml version="1.0" encoding="utf-8"?>
<!-- Generator: Adobe Illustrator 26.3.1, SVG Export Plug-In . SVG Version: 6.00 Build 0)  -->
<svg version="1.1" id="Слой_1" xmlns="http://www.w3.org/2000/svg" xmlns:xlink="http://www.w3.org/1999/xlink" x="0px" y="0px"
	 viewBox="0 0 48 48" style="enable-background:new 0 0 48 48;" xml:space="preserve">
<path d="M41.2,43.7L32.5,35H14.8c-0.7,0-1.4-0.3-1.9-0.8s-0.8-1.2-0.8-1.9V14.5L4.3,6.8l1.1-1.1l36.8,36.8L41.2,43.7z M9.8,40
	c-0.7,0-1.4-0.3-1.9-0.8S7,38,7,37.2V12.3h1.5v24.9c0,0.4,0.1,0.7,0.3,0.9s0.5,0.3,0.9,0.3h24.9V40H9.8z M39.4,34.6L15.8,11.1h23.7
	V8.8c0-0.4-0.1-0.7-0.3-0.9c-0.2-0.2-0.5-0.3-0.9-0.3H14.8c-0.3,0-0.5,0.1-0.7,0.2c-0.2,0.2-0.4,0.4-0.5,0.6V9l-1.3-1.3
	c0.2-0.5,0.5-0.9,1-1.2c0.5-0.4,1-0.5,1.5-0.5h23.4c0.7,0,1.4,0.3,1.9,0.8C40.7,7.4,41,8,41,8.8v23.4c0,0.6-0.1,1.1-0.4,1.5
	C40.3,34.1,39.9,34.4,39.4,34.6z"/>
</svg>
