<?xml version="1.0" encoding="utf-8"?>
<!-- Generator: Adobe Illustrator 26.3.1, SVG Export Plug-In . SVG Version: 6.00 Build 0)  -->
<svg version="1.1" id="Слой_1" xmlns="http://www.w3.org/2000/svg" xmlns:xlink="http://www.w3.org/1999/xlink" x="0px" y="0px"
	 viewBox="0 0 48 48" style="enable-background:new 0 0 48 48;" xml:space="preserve">
<path d="M39.4,41.7L37.7,40c-0.1,0-0.2,0-0.3,0.1c-0.1,0-0.2,0-0.4,0H10.8c-0.7,0-1.4-0.3-1.9-0.8C8.3,38.6,8,38,8,37.2V11.1
	c0-0.1,0-0.2,0-0.3s0-0.2,0.1-0.3L6.6,8.9l1.1-1.1l32.8,32.8C40.5,40.5,39.4,41.7,39.4,41.7z M10.8,38.5h25.4L9.5,11.8v25.4
	c0,0.4,0.1,0.7,0.3,0.9C10.1,38.3,10.4,38.5,10.8,38.5z M40,35.1l-1.5-1.5V15.3H20.3L12.9,8h24.3c0.7,0,1.4,0.3,1.9,0.8
	c0.6,0.6,0.9,1.2,0.9,2V35.1z"/>
</svg>
