<?xml version="1.0" encoding="utf-8"?>
<!-- Generator: Adobe Illustrator 26.3.1, SVG Export Plug-In . SVG Version: 6.00 Build 0)  -->
<svg version="1.1" id="Слой_1" xmlns="http://www.w3.org/2000/svg" xmlns:xlink="http://www.w3.org/1999/xlink" x="0px" y="0px"
	 viewBox="0 0 48 48" style="enable-background:new 0 0 48 48;" xml:space="preserve">
<path d="M42.3,44.7L4.1,6.6l1.1-1.1l38.1,38.1L42.3,44.7z M33.5,15.8c-1.3,0-2.5-0.5-3.4-1.4c-0.9-1-1.4-2.1-1.4-3.5
	s0.5-2.5,1.4-3.5C31,6.5,32.2,6,33.5,6s2.5,0.5,3.4,1.4s1.4,2.1,1.4,3.5s-0.5,2.5-1.4,3.5C36,15.3,34.8,15.8,33.5,15.8z M18.3,13.7
	l-6.9-6.9c0.3-0.4,0.7-0.7,1.1-1c0.4-0.3,0.8-0.5,1.2-0.6c1.8,0.4,3.2,1.2,4.2,2.2s1.5,2.2,1.5,3.5c0,0.5-0.1,1-0.3,1.5
	C18.8,12.8,18.6,13.3,18.3,13.7z M24,32.3c-0.8,0-1.4-0.3-1.9-0.8s-0.8-1.2-0.8-1.9v-5.8c0-0.3,0-0.6,0.1-0.8
	c0.1-0.3,0.2-0.5,0.4-0.8l4.8,4.8v2.6c0,0.8-0.3,1.4-0.8,1.9C25.4,32,24.8,32.3,24,32.3z M23.3,42v-3.9c-2.2-0.2-4-1.1-5.5-2.7
	c-1.5-1.6-2.2-3.6-2.2-5.8h1.3c0,2,0.7,3.7,2,5.1c1.4,1.4,3,2.1,5,2.1c1.7,0,3.2-0.5,4.4-1.6c1.3-1.1,2.1-2.4,2.4-4l1.1,1.1
	c-0.5,1.6-1.4,3-2.8,4s-2.8,1.7-4.5,1.8V42H23.3z M34.6,26c-0.5-1.5-1.3-2.9-2.4-4.1c-1.1-1.3-2.4-2.2-3.9-2.8
	c0.8-0.2,1.7-0.4,2.5-0.5c0.9-0.1,1.7-0.2,2.6-0.2c1.4,0,2.7,0.2,4.1,0.5c1.3,0.3,2.6,0.8,3.9,1.4c0.9,0.5,1.5,1,1.9,1.7
	c0.4,0.6,0.6,1.5,0.6,2.5V26H34.6z M4,26v-1.7c0-1,0.2-1.8,0.6-2.5c0.4-0.6,1.1-1.2,2-1.7c1.2-0.6,2.5-1.1,3.9-1.4
	c1.3-0.3,2.7-0.5,4.1-0.5c0.7,0,1.3,0,2,0.1c0.7,0.1,1.3,0.2,1.9,0.3l0.6,0.6c-1.3,0.7-2.5,1.6-3.5,2.8s-1.7,2.5-2.2,3.9H4V26z"/>
</svg>
