<?xml version="1.0" encoding="utf-8"?>
<!-- Generator: Adobe Illustrator 26.3.1, SVG Export Plug-In . SVG Version: 6.00 Build 0)  -->
<svg version="1.1" id="Слой_1" xmlns="http://www.w3.org/2000/svg" xmlns:xlink="http://www.w3.org/1999/xlink" x="0px" y="0px"
	 viewBox="0 0 48 48" style="enable-background:new 0 0 48 48;" xml:space="preserve">
<path d="M23.3,42v-3.9c-2.2-0.2-4-1.1-5.5-2.7c-1.5-1.6-2.2-3.6-2.2-5.8h1.3c0,2,0.7,3.7,2,5.1c1.4,1.4,3,2.1,5,2.1s3.7-0.7,5-2.1
	c1.4-1.4,2-3.1,2-5.1h1.3c0,2.3-0.7,4.2-2.2,5.8c-1.5,1.6-3.3,2.5-5.5,2.7V42C24.7,42,23.3,42,23.3,42z M24,32.3
	c-0.8,0-1.4-0.3-1.9-0.8s-0.8-1.2-0.8-1.9v-5.8c0-0.7,0.3-1.4,0.8-1.9s1.1-0.8,1.9-0.8s1.4,0.3,1.9,0.8s0.8,1.2,0.8,1.9v5.8
	c0,0.8-0.3,1.4-0.8,1.9C25.4,32,24.8,32.3,24,32.3z M4,26v-1.7c0-1,0.2-1.8,0.6-2.5c0.4-0.6,1.1-1.2,2-1.7c1.2-0.6,2.5-1.1,3.9-1.4
	c1.3-0.3,2.7-0.5,4.1-0.5c0.9,0,1.8,0.1,2.6,0.2c0.9,0.1,1.7,0.3,2.5,0.5c-1.5,0.6-2.8,1.5-3.9,2.8s-1.9,2.6-2.4,4.1H4V26z M34.6,26
	c-0.5-1.5-1.3-2.9-2.4-4.1c-1.1-1.3-2.4-2.2-3.9-2.8c0.8-0.2,1.7-0.4,2.5-0.5c0.9-0.1,1.7-0.2,2.6-0.2c1.4,0,2.7,0.2,4.1,0.5
	c1.3,0.3,2.6,0.8,3.9,1.4c0.9,0.5,1.5,1,1.9,1.7c0.4,0.6,0.6,1.5,0.6,2.5V26H34.6z M14.5,15.8c-1.3,0-2.5-0.5-3.4-1.4
	c-0.9-1-1.4-2.1-1.4-3.5s0.5-2.5,1.4-3.4C12,6.5,13.2,6,14.5,6s2.5,0.5,3.4,1.4s1.4,2.1,1.4,3.4c0,1.4-0.5,2.5-1.4,3.5
	S15.8,15.8,14.5,15.8z M33.5,15.8c-1.3,0-2.5-0.5-3.4-1.4c-0.9-1-1.4-2.1-1.4-3.5s0.5-2.5,1.4-3.4C31,6.5,32.2,6,33.5,6
	s2.5,0.5,3.4,1.4s1.4,2.1,1.4,3.4c0,1.4-0.5,2.5-1.4,3.5S34.8,15.8,33.5,15.8z"/>
</svg>
