<?xml version="1.0" encoding="utf-8"?>
<!-- Generator: Adobe Illustrator 26.3.1, SVG Export Plug-In . SVG Version: 6.00 Build 0)  -->
<svg version="1.1" id="Слой_1" xmlns="http://www.w3.org/2000/svg" xmlns:xlink="http://www.w3.org/1999/xlink" x="0px" y="0px"
	 viewBox="0 0 48 48" style="enable-background:new 0 0 48 48;" xml:space="preserve">
<path d="M26.7,40V8H42v32H26.7z M10,40v-6c0.1,0,0.2,0,0.4,0c0.1,0,0.3,0,0.4,0c2.8,0,5.1-1,7.1-2.9c1.9-1.9,2.9-4.3,2.9-7.1
	s-1-5.2-2.9-7.1S13.5,14,10.8,14c-0.1,0-0.3,0-0.4,0c-0.1,0-0.2,0-0.4,0V8h15.1v32H10z M10,28.8v-4H6v-1.5h4v-4h1.5v4h4v1.5h-4v4H10
	z"/>
</svg>
