<?xml version="1.0" encoding="utf-8"?>
<!-- Generator: Adobe Illustrator 26.3.1, SVG Export Plug-In . SVG Version: 6.00 Build 0)  -->
<svg version="1.1" id="Слой_1" xmlns="http://www.w3.org/2000/svg" xmlns:xlink="http://www.w3.org/1999/xlink" x="0px" y="0px"
	 viewBox="0 0 48 48" style="enable-background:new 0 0 48 48;" xml:space="preserve">
<path d="M6,40V8h15.3v32H6z M22.9,40V8H38v6c-0.1,0-0.2,0-0.4,0c-0.1,0-0.3,0-0.4,0c-2.8,0-5.1,1-7.1,2.9c-1.9,1.9-2.9,4.3-2.9,7.1
	s1,5.2,2.9,7.1s4.3,2.9,7.1,2.9c0.1,0,0.3,0,0.4,0c0.1,0,0.2,0,0.4,0v6H22.9z M36.5,28.8v-4h-4v-1.5h4v-4H38v4h4v1.5h-4v4H36.5z"/>
</svg>
