<?xml version="1.0" encoding="utf-8"?>
<!-- Generator: Adobe Illustrator 26.3.1, SVG Export Plug-In . SVG Version: 6.00 Build 0)  -->
<svg version="1.1" id="Слой_1" xmlns="http://www.w3.org/2000/svg" xmlns:xlink="http://www.w3.org/1999/xlink" x="0px" y="0px"
	 viewBox="0 0 48 48" style="enable-background:new 0 0 48 48;" xml:space="preserve">
<path d="M35.6,38.2H37V33h5.2v-1.4H37v-5.2h-1.4v5.2h-5.2V33h5.2V38.2z M36.3,40c-2.2,0-4-0.8-5.5-2.3s-2.2-3.3-2.2-5.5
	s0.7-4,2.2-5.5s3.3-2.2,5.5-2.2s4,0.7,5.5,2.2S44,30,44,32.2c0,2.1-0.7,4-2.2,5.5S38.4,40,36.3,40z M10,36V15L24,4.4L38,15v4.6
	c-0.2-0.1-0.5-0.1-0.7-0.1c-0.3,0-0.5,0-0.8,0c-3.6,0-6.6,1.2-9.2,3.7c-2.5,2.5-3.8,5.5-3.8,9.1c0,0.6,0.1,1.2,0.2,1.9
	c0.1,0.6,0.3,1.2,0.4,1.8C24.1,36,10,36,10,36z"/>
</svg>
