<?xml version="1.0" encoding="utf-8"?>
<!-- Generator: Adobe Illustrator 26.3.1, SVG Export Plug-In . SVG Version: 6.00 Build 0)  -->
<svg version="1.1" id="Слой_1" xmlns="http://www.w3.org/2000/svg" xmlns:xlink="http://www.w3.org/1999/xlink" x="0px" y="0px"
	 viewBox="0 0 48 48" style="enable-background:new 0 0 48 48;" xml:space="preserve">
<path d="M10,40c-0.8,0-1.4-0.3-2-0.8c-0.5-0.5-0.8-1.2-0.8-2V10.8c0-0.8,0.3-1.4,0.8-2C8.6,8.3,9.2,8,10,8h17.9v7.3h4v4.1h7.3v17.9
	c0,0.8-0.3,1.4-0.8,2c-0.5,0.5-1.2,0.8-2,0.8L10,40L10,40z M14.2,32.9h18.3L27,25.6l-5.4,6.8L18,28.1C18.1,28.1,14.2,32.9,14.2,32.9
	z M35.2,16.1V12h-4v-1.5h4v-4h1.5v4h4V12h-4v4.1H35.2z"/>
</svg>
