<?xml version="1.0" encoding="utf-8"?>
<!-- Generator: Adobe Illustrator 26.3.1, SVG Export Plug-In . SVG Version: 6.00 Build 0)  -->
<svg version="1.1" id="Слой_1" xmlns="http://www.w3.org/2000/svg" xmlns:xlink="http://www.w3.org/1999/xlink" x="0px" y="0px"
	 viewBox="0 0 48 48" style="enable-background:new 0 0 48 48;" xml:space="preserve">
<path d="M23.2,31.1h1.5v-6.3H31v-1.5h-6.3V17h-1.5v6.3h-6.3v1.5h6.3V31.1z M24,42c-0.4,0-0.7-0.1-1.1-0.2c-0.3-0.1-0.7-0.3-1-0.6
	L6.8,26c-0.3-0.3-0.5-0.6-0.6-1C6.1,24.7,6,24.4,6,24c0-0.3,0.1-0.7,0.2-1s0.3-0.7,0.6-1L22,6.9c0.3-0.3,0.6-0.5,1-0.7
	C23.3,6.1,23.6,6,24,6c0.3,0,0.7,0.1,1,0.2s0.7,0.4,1,0.7L41.2,22c0.3,0.3,0.5,0.6,0.7,0.9c0.1,0.4,0.2,0.7,0.2,1
	c0,0.4-0.1,0.7-0.2,1.1c-0.1,0.3-0.3,0.7-0.6,1L26,41.2c-0.3,0.3-0.6,0.5-1,0.6C24.7,41.9,24.3,42,24,42z"/>
</svg>
