<?xml version="1.0" encoding="utf-8"?>
<!-- Generator: Adobe Illustrator 26.3.1, SVG Export Plug-In . SVG Version: 6.00 Build 0)  -->
<svg version="1.1" id="Слой_1" xmlns="http://www.w3.org/2000/svg" xmlns:xlink="http://www.w3.org/1999/xlink" x="0px" y="0px"
	 viewBox="0 0 48 48" style="enable-background:new 0 0 48 48;" xml:space="preserve">
<path d="M14.5,33.1H16V21.2h-1.5V33.1z M22.2,33.1h1.5V14.9h-1.5V33.1z M29.9,33.1h1.5v-5.7h-1.5C29.9,27.3,29.9,33.1,29.9,33.1z
	 M35.3,15.9v-4.2h-4.2v-1.5h4.2V6h1.5v4.2H41v1.5h-4.2v4.2H35.3z M9.8,40c-0.8,0-1.4-0.3-2-0.8C7.3,38.7,7,38,7,37.2V10.8
	c0-0.8,0.3-1.4,0.8-2C8.3,8.3,9,8,9.8,8h19.4v7c0,0.8,0.3,1.4,0.8,2c0.5,0.5,1.2,0.8,2,0.8h7v19.4c0,0.8-0.3,1.4-0.8,2
	c-0.5,0.5-1.2,0.8-2,0.8C36.2,40,9.8,40,9.8,40z"/>
</svg>
