<?xml version="1.0" encoding="utf-8"?>
<!-- Generator: Adobe Illustrator 26.3.1, SVG Export Plug-In . SVG Version: 6.00 Build 0)  -->
<svg version="1.1" id="Слой_1" xmlns="http://www.w3.org/2000/svg" xmlns:xlink="http://www.w3.org/1999/xlink" x="0px" y="0px"
	 viewBox="0 0 48 48" style="enable-background:new 0 0 48 48;" xml:space="preserve">
<path d="M8,21.3V6h32v15.3H8z M8,38V22.9h32V38h-6c0-0.1,0-0.2,0-0.4c0-0.1,0-0.3,0-0.4c0-2.8-1-5.1-2.9-7.1
	c-1.9-1.9-4.3-2.9-7.1-2.9s-5.2,1-7.1,2.9S14,34.5,14,37.2c0,0.1,0,0.3,0,0.4c0,0.1,0,0.2,0,0.4C14,38,8,38,8,38z M23.2,42v-4h-4
	v-1.5h4v-4h1.5v4h4V38h-4v4H23.2z"/>
</svg>
