<?xml version="1.0" encoding="utf-8"?>
<!-- Generator: Adobe Illustrator 26.3.1, SVG Export Plug-In . SVG Version: 6.00 Build 0)  -->
<svg version="1.1" id="Слой_1" xmlns="http://www.w3.org/2000/svg" xmlns:xlink="http://www.w3.org/1999/xlink" x="0px" y="0px"
	 viewBox="0 0 48 48" style="enable-background:new 0 0 48 48;" xml:space="preserve">
<path d="M16.8,44c-0.7,0-1.4-0.3-1.9-0.8c-0.6-0.6-0.9-1.2-0.9-2v-6.3h1.5v3.2h20.9V9.8H15.5V13H14V6.8c0-0.8,0.3-1.4,0.8-2
	C15.4,4.3,16,4,16.8,4h18.5c0.7,0,1.4,0.3,1.9,0.8C37.7,5.4,38,6,38,6.8v34.5c0,0.7-0.3,1.4-0.8,1.9c-0.6,0.5-1.2,0.8-2,0.8H16.8z
	 M8.5,32.3l-1.1-1.1l12.7-12.7H11V17h11.8v11.8h-1.5v-9.1L8.5,32.3z"/>
</svg>
