<?xml version="1.0" encoding="utf-8"?>
<!-- Generator: Adobe Illustrator 26.3.1, SVG Export Plug-In . SVG Version: 6.00 Build 0)  -->
<svg version="1.1" id="Слой_1" xmlns="http://www.w3.org/2000/svg" xmlns:xlink="http://www.w3.org/1999/xlink" x="0px" y="0px"
	 viewBox="0 0 48 48" style="enable-background:new 0 0 48 48;" xml:space="preserve">
<path d="M34.6,38v-5.8h-5.8v-1.5h5.8v-5.8h1.5v5.8H42v1.5h-5.8V38H34.6z M21.5,32.2h-7.3c-2.3,0-4.2-0.8-5.8-2.4S6,26.3,6,24
	s0.8-4.2,2.4-5.8c1.6-1.6,3.5-2.4,5.8-2.4h7.3v1.5h-7.3c-1.8,0-3.4,0.6-4.7,1.9S7.6,22,7.6,23.9c0,1.8,0.6,3.4,1.9,4.7
	c1.3,1.3,2.8,1.9,4.7,1.9h7.3C21.5,30.6,21.5,32.2,21.5,32.2z M17.1,24.8v-1.5h13.8v1.5H17.1z M42,24h-1.5c0-1.8-0.6-3.4-1.9-4.7
	c-1.3-1.3-2.8-1.9-4.7-1.9h-7.3v-1.5h7.3c2.3,0,4.2,0.8,5.8,2.4C41.2,19.8,42,21.7,42,24z"/>
</svg>
