<?xml version="1.0" encoding="utf-8"?>
<!-- Generator: Adobe Illustrator 26.3.1, SVG Export Plug-In . SVG Version: 6.00 Build 0)  -->
<svg version="1.1" id="Слой_1" xmlns="http://www.w3.org/2000/svg" xmlns:xlink="http://www.w3.org/1999/xlink" x="0px" y="0px"
	 viewBox="0 0 48 48" style="enable-background:new 0 0 48 48;" xml:space="preserve">
<path d="M34.9,17h2.6v-2.6h-2.6V17z M36.3,44c-2.1,0-4-0.8-5.5-2.3s-2.2-3.3-2.2-5.4c0-2.2,0.7-4,2.2-5.5s3.3-2.3,5.5-2.3
	c2.1,0,3.9,0.8,5.4,2.3s2.3,3.3,2.3,5.5c0,2.1-0.8,3.9-2.3,5.4C40.3,43.2,38.4,44,36.3,44z M35.6,42.2H37V37h5.2v-1.4H37v-5.2h-1.4
	v5.2h-5.2V37h5.2V42.2z M44,26.2c-1.1-0.9-2.3-1.6-3.6-2c-1.3-0.5-2.7-0.7-4.1-0.7c-0.9,0-1.8,0.1-2.7,0.3c-0.9,0.2-1.7,0.4-2.6,0.8
	v-3.2l-10.2-7.2V8H44V26.2z M4,40V23.2l11.8-8.4l11.8,8.4v3.5c-1.3,1.2-2.3,2.7-3,4.3c-0.7,1.7-1,3.4-1,5.2c0,0.7,0.1,1.3,0.2,1.9
	c0.1,0.6,0.3,1.2,0.4,1.8h-4.6v-9.7h-7.4V40H4z"/>
</svg>
