<?xml version="1.0" encoding="utf-8"?>
<!-- Generator: Adobe Illustrator 26.3.1, SVG Export Plug-In . SVG Version: 6.00 Build 0)  -->
<svg version="1.1" id="Слой_1" xmlns="http://www.w3.org/2000/svg" xmlns:xlink="http://www.w3.org/1999/xlink" x="0px" y="0px"
	 viewBox="0 0 48 48" style="enable-background:new 0 0 48 48;" xml:space="preserve">
<path d="M8,42V26.7h32V42H8z M8,25.1V10h6c0,0.1,0,0.2,0,0.4c0,0.1,0,0.3,0,0.4c0,2.8,1,5.1,2.9,7.1c1.9,1.9,4.3,2.9,7.1,2.9
	s5.2-1,7.1-2.9s2.9-4.3,2.9-7.1c0-0.1,0-0.3,0-0.4c0-0.1,0-0.2,0-0.4h6v15.1H8z M23.2,15.5v-4h-4V10h4V6h1.5v4h4v1.5h-4v4H23.2z"/>
</svg>
