<?xml version="1.0" encoding="utf-8"?>
<!-- Generator: Adobe Illustrator 26.3.1, SVG Export Plug-In . SVG Version: 6.00 Build 0)  -->
<svg version="1.1" id="Слой_1" xmlns="http://www.w3.org/2000/svg" xmlns:xlink="http://www.w3.org/1999/xlink" x="0px" y="0px"
	 viewBox="0 0 48 48" style="enable-background:new 0 0 48 48;" xml:space="preserve">
<path d="M41.2,13V8.8H37V7.2h4.2V3h1.5v4.2H47v1.5h-4.2V13H41.2z M30.8,20.9c0.6,0,1.1-0.2,1.5-0.6c0.4-0.4,0.6-0.9,0.6-1.5
	s-0.2-1.1-0.6-1.5c-0.4-0.4-0.9-0.6-1.5-0.6s-1.1,0.2-1.5,0.6s-0.6,0.9-0.6,1.5s0.2,1.1,0.6,1.5C29.7,20.7,30.2,20.9,30.8,20.9z
	 M17.2,20.9c0.6,0,1.1-0.2,1.5-0.6s0.6-0.9,0.6-1.5s-0.2-1.1-0.6-1.5s-0.9-0.6-1.5-0.6s-1.1,0.2-1.5,0.6s-0.6,0.9-0.6,1.5
	s0.2,1.1,0.6,1.5C16.2,20.7,16.7,20.9,17.2,20.9z M24,33.8c1.9,0,3.7-0.5,5.3-1.5c1.6-1,2.8-2.4,3.6-4.1H15.2c0.8,1.7,2,3.1,3.6,4.1
	C20.3,33.2,22.1,33.8,24,33.8z M24,42c-2.5,0-4.8-0.5-7-1.4s-4.1-2.2-5.7-3.9c-1.6-1.6-2.9-3.5-3.9-5.7C6.5,28.8,6,26.5,6,24
	s0.5-4.8,1.4-7s2.2-4.1,3.9-5.7c1.6-1.6,3.5-2.9,5.7-3.8c2.2-1,4.5-1.5,7-1.5c1.4,0,2.7,0.1,4,0.4s2.5,0.7,3.7,1.3v5.1h5.5v5.5h3.9
	c0.3,0.9,0.5,1.8,0.7,2.8C41.9,22,42,23,42,24c0,2.5-0.5,4.8-1.4,7s-2.2,4.1-3.8,5.7c-1.6,1.6-3.5,2.9-5.7,3.9
	C28.8,41.5,26.5,42,24,42z"/>
</svg>
