<?xml version="1.0" encoding="utf-8"?>
<!-- Generator: Adobe Illustrator 26.3.1, SVG Export Plug-In . SVG Version: 6.00 Build 0)  -->
<svg version="1.1" id="Слой_1" xmlns="http://www.w3.org/2000/svg" xmlns:xlink="http://www.w3.org/1999/xlink" x="0px" y="0px"
	 viewBox="0 0 48 48" style="enable-background:new 0 0 48 48;" xml:space="preserve">
<path d="M7.2,38.8v-9.9c0-1,0.3-1.9,1-2.5c0.7-0.7,1.5-1,2.5-1h3.4V9.7H34v15.6h3.4c1,0,1.9,0.3,2.5,1c0.7,0.7,1,1.5,1,2.5v9.9
	C40.8,38.8,7.2,38.8,7.2,38.8z M15.6,25.3h16.8V11.2H15.6V25.3z M35.7,31.5c0.5,0,0.9-0.2,1.2-0.5s0.5-0.8,0.5-1.3s-0.2-0.9-0.5-1.2
	c-0.4-0.3-0.8-0.5-1.2-0.5c-0.5,0-0.9,0.2-1.3,0.5c-0.3,0.4-0.5,0.8-0.5,1.2c0,0.5,0.2,0.9,0.5,1.3C34.8,31.3,35.2,31.5,35.7,31.5z"
	/>
</svg>
