<?xml version="1.0" encoding="utf-8"?>
<!-- Generator: Adobe Illustrator 26.3.1, SVG Export Plug-In . SVG Version: 6.00 Build 0)  -->
<svg version="1.1" id="Слой_1" xmlns="http://www.w3.org/2000/svg" xmlns:xlink="http://www.w3.org/1999/xlink" x="0px" y="0px"
	 viewBox="0 0 48 48" style="enable-background:new 0 0 48 48;" xml:space="preserve">
<path d="M11.2,38.5c-2.3,0-4.2-0.8-5.8-2.4C3.8,34.4,3,32.5,3,30.2s0.8-4.2,2.4-5.8C7,22.8,9,22,11.2,22s4.2,0.8,5.8,2.4
	s2.4,3.5,2.4,5.8S18.6,34.4,17,36C15.4,37.7,13.5,38.5,11.2,38.5z M11.2,32.7c-0.7,0-1.3-0.2-1.7-0.7c-0.5-0.5-0.7-1.1-0.7-1.7
	c0-0.7,0.2-1.3,0.7-1.7s1.1-0.7,1.7-0.7c0.7,0,1.3,0.2,1.7,0.7c0.5,0.5,0.7,1.1,0.7,1.7c0,0.7-0.2,1.3-0.7,1.7S11.9,32.7,11.2,32.7z
	 M39.2,38.5c-1.7,0-3.1-0.6-4.2-1.7c-1.2-1.1-1.7-2.5-1.7-4.1c0-1.6,0.6-3.1,1.7-4.2c1.2-1.2,2.6-1.7,4.2-1.7c1.6,0,3,0.6,4.1,1.7
	c1.1,1.2,1.7,2.5,1.7,4.1c0,1.7-0.6,3.1-1.7,4.2C42.2,37.9,40.8,38.5,39.2,38.5z M7.1,18.5c-0.2,0-0.4-0.1-0.5-0.2S6.4,18,6.4,17.8
	s0.1-0.4,0.2-0.5C6.7,17.1,6.8,17,7.1,17H14c0.5,0,1,0.1,1.4,0.4s0.8,0.7,1,1.1H7.1z M11.2,36.9c1.9,0,3.4-0.7,4.7-2s2-2.9,2-4.7
	c0-1.9-0.7-3.4-2-4.7c-1.3-1.3-2.9-2-4.7-2c-1.9,0-3.4,0.7-4.7,2s-2,2.9-2,4.7c0,1.9,0.7,3.4,2,4.7C7.8,36.3,9.4,36.9,11.2,36.9z
	 M39.1,36.9c1.2,0,2.2-0.4,3.1-1.3c0.8-0.8,1.3-1.9,1.3-3.1c0-1.2-0.4-2.2-1.3-3.1c-0.8-0.8-1.9-1.3-3.1-1.3c-1.2,0-2.3,0.4-3.1,1.3
	c-0.8,0.8-1.3,1.9-1.3,3.1s0.4,2.3,1.3,3.1C36.9,36.5,37.9,36.9,39.1,36.9z M20.7,31H32c0.5-1.7,1.4-3,2.8-4c1.4-1,2.9-1.5,4.5-1.5
	c0.4,0,0.8,0,1.2,0.1s0.8,0.1,1.1,0.3v-9.5c0-0.7-0.3-1.4-0.8-1.9c-0.6-0.6-1.2-0.8-1.9-0.8H28.2l-2.3-2.3l2.9-2.9l-1.2-1.2
	l-7.1,7.1l1.2,1.2l2.9-2.9l2.3,2.2v3.4c0,1.6-0.6,3-1.7,4.2c-1.2,1.2-2.6,1.8-4.2,1.8h-2.5c0.8,0.9,1.3,1.9,1.7,3
	c0.4,1.1,0.5,2.3,0.5,3.5C20.7,30.9,20.7,30.9,20.7,31C20.7,30.9,20.7,30.9,20.7,31z"/>
</svg>
