<?xml version="1.0" encoding="utf-8"?>
<!-- Generator: Adobe Illustrator 26.3.1, SVG Export Plug-In . SVG Version: 6.00 Build 0)  -->
<svg version="1.1" id="Слой_1" xmlns="http://www.w3.org/2000/svg" xmlns:xlink="http://www.w3.org/1999/xlink" x="0px" y="0px"
	 viewBox="0 0 48 48" style="enable-background:new 0 0 48 48;" xml:space="preserve">
<path d="M24,11c-0.5,0-0.8-0.2-1.1-0.5c-0.3-0.3-0.4-0.7-0.4-1.1c0-0.5,0.1-0.8,0.4-1.1s0.7-0.4,1.1-0.4c0.5,0,0.8,0.1,1.1,0.4
	c0.3,0.3,0.4,0.7,0.4,1.1c0,0.4-0.1,0.8-0.4,1.1C24.8,10.9,24.5,11,24,11z M24,4.4c-0.5,0-0.8-0.2-1.1-0.5c-0.3-0.3-0.4-0.7-0.4-1.1
	s0.1-0.8,0.4-1.1s0.7-0.5,1.1-0.5c0.5,0,0.8,0.2,1.1,0.5c0.3,0.3,0.4,0.7,0.4,1.1c0,0.5-0.1,0.8-0.4,1.1C24.8,4.2,24.5,4.4,24,4.4z
	 M18,40.8c-1.6-1-2.8-2.3-3.7-3.9c-0.9-1.6-1.4-3.4-1.4-5.3c0-2.2,0.7-4.2,1.9-6s2.9-3.2,4.9-4.1V16c0-0.2,0.1-0.4,0.2-0.5
	s0.3-0.2,0.5-0.2h7.2c0.2,0,0.4,0.1,0.5,0.2c0.1,0.1,0.2,0.3,0.2,0.5v5.5c2,1,3.6,2.3,4.8,4.1c1.2,1.8,1.9,3.8,1.9,6
	c0,1.9-0.5,3.7-1.4,5.3c-0.9,1.6-2.1,2.9-3.7,3.9C30.1,40.8,18,40.8,18,40.8z M12.8,6.4c-0.5,0-0.8-0.2-1.1-0.5s-0.4-0.7-0.4-1.1
	s0.1-0.8,0.4-1.1c0.3-0.3,0.7-0.5,1.1-0.5c0.5,0,0.8,0.2,1.1,0.5s0.4,0.7,0.4,1.1c0,0.5-0.1,0.8-0.4,1.1C13.6,6.2,13.2,6.4,12.8,6.4
	z M35.2,6.4c-0.5,0-0.8-0.2-1.1-0.5s-0.4-0.7-0.4-1.1s0.1-0.8,0.4-1.1c0.3-0.3,0.7-0.5,1.1-0.5c0.5,0,0.8,0.2,1.1,0.5
	s0.4,0.7,0.4,1.1c0,0.5-0.1,0.8-0.4,1.1C36.1,6.2,35.7,6.4,35.2,6.4z M17.4,11c-0.5,0-0.8-0.2-1.1-0.5c-0.3-0.3-0.4-0.7-0.4-1.1
	c0-0.5,0.1-0.8,0.4-1.1s0.7-0.4,1.1-0.4c0.5,0,0.8,0.1,1.1,0.4c0.3,0.3,0.4,0.7,0.4,1.1c0,0.4-0.1,0.8-0.4,1.1
	C18.2,10.9,17.8,11,17.4,11z M30.6,11c-0.5,0-0.8-0.2-1.1-0.5c-0.3-0.3-0.4-0.7-0.4-1.1c0-0.5,0.1-0.8,0.4-1.1s0.7-0.4,1.1-0.4
	c0.5,0,0.8,0.1,1.1,0.4C32,8.6,32.2,9,32.2,9.5c0,0.4-0.1,0.8-0.4,1.1C31.4,10.9,31.1,11,30.6,11z"/>
</svg>
