<?xml version="1.0" encoding="utf-8"?>
<!-- Generator: Adobe Illustrator 26.3.1, SVG Export Plug-In . SVG Version: 6.00 Build 0)  -->
<svg version="1.1" id="Слой_1" xmlns="http://www.w3.org/2000/svg" xmlns:xlink="http://www.w3.org/1999/xlink" x="0px" y="0px"
	 viewBox="0 0 48 48" style="enable-background:new 0 0 48 48;" xml:space="preserve">
<path d="M25.5,33H8.3c-0.8,0-1.4-0.3-2-0.8c-0.5-0.5-0.8-1.2-0.8-2V7H7v23.2c0,0.3,0.1,0.6,0.4,0.8c0.3,0.3,0.5,0.4,0.8,0.4h17.2
	L25.5,33L25.5,33z M36.5,40.2l-5.6-11.4H16.3c-1.3,0-2.4-0.5-3.4-1.4c-0.9-0.9-1.4-2.1-1.4-3.4V7H21v14.2h8.1c0.5,0,1,0.2,1.4,0.5
	s0.8,0.7,1,1.1L38,36.1l3.6-1.6c0.4-0.1,0.8-0.2,1.2-0.1c0.4,0,0.7,0.3,0.9,0.7s0.2,0.8,0.1,1.2c-0.2,0.4-0.5,0.7-0.9,0.9L36.5,40.2
	z"/>
</svg>
