<?xml version="1.0" encoding="utf-8"?>
<!-- Generator: Adobe Illustrator 26.3.1, SVG Export Plug-In . SVG Version: 6.00 Build 0)  -->
<svg version="1.1" id="Слой_1" xmlns="http://www.w3.org/2000/svg" xmlns:xlink="http://www.w3.org/1999/xlink" x="0px" y="0px"
	 viewBox="0 0 48 48" style="enable-background:new 0 0 48 48;" xml:space="preserve">
<path d="M4,32V16.7h1.5v13.8h17.8V16.7h15.1c1.5,0,2.9,0.6,4,1.7s1.7,2.4,1.7,4V32H4z M13.8,26.2c1.1,0,2-0.4,2.8-1.1
	c0.7-0.7,1.1-1.7,1.1-2.8c0-1.1-0.4-2-1.1-2.8c-0.7-0.7-1.7-1.1-2.8-1.1s-2,0.4-2.8,1.1c-0.7,0.8-1.1,1.7-1.1,2.8
	c0,1.1,0.4,2,1.1,2.8C11.7,25.9,12.7,26.2,13.8,26.2z"/>
</svg>
