<?xml version="1.0" encoding="utf-8"?>
<!-- Generator: Adobe Illustrator 26.3.1, SVG Export Plug-In . SVG Version: 6.00 Build 0)  -->
<svg version="1.1" id="Слой_1" xmlns="http://www.w3.org/2000/svg" xmlns:xlink="http://www.w3.org/1999/xlink" x="0px" y="0px"
	 viewBox="0 0 48 48" style="enable-background:new 0 0 48 48;" xml:space="preserve">
<path d="M28.6,40.5v-3.1l2.8-8.6H14.5c-0.8,0-1.4-0.3-2-0.8c-0.5-0.5-0.8-1.2-0.8-2V7h9.5v14.2h12.5c0.7,0,1.4,0.2,1.9,0.8
	s0.8,1.1,0.9,1.9L32,37.6h3.8c0.5,0,0.9,0.1,1.2,0.4c0.3,0.3,0.5,0.6,0.5,1.1s-0.2,0.8-0.5,1.1s-0.7,0.4-1.2,0.4
	C36,40.5,28.6,40.5,28.6,40.5z M23.5,33H10.3c-0.8,0-1.4-0.3-2-0.8c-0.5-0.5-0.8-1.2-0.8-2V7H9v23.2c0,0.3,0.1,0.6,0.4,0.8
	c0.3,0.3,0.5,0.4,0.8,0.4h13.2V33H23.5z"/>
</svg>
