<?xml version="1.0" encoding="utf-8"?>
<!-- Generator: Adobe Illustrator 26.3.1, SVG Export Plug-In . SVG Version: 6.00 Build 0)  -->
<svg version="1.1" id="Слой_1" xmlns="http://www.w3.org/2000/svg" xmlns:xlink="http://www.w3.org/1999/xlink" x="0px" y="0px"
	 viewBox="0 0 48 48" style="enable-background:new 0 0 48 48;" xml:space="preserve">
<path d="M19.5,24.2l3.4-9.4L38,20.3c1.5,0.5,2.6,1.5,3.3,3c0.7,1.4,0.7,2.9,0.2,4.4l-1.4,4C40.1,31.6,19.5,24.2,19.5,24.2z
	 M6.4,25.2l0.5-1.5l31.8,11.6l-0.5,1.5L6.4,25.2z M13.7,21.7c-1.2,0-2.2-0.4-3-1.2c-0.8-0.8-1.2-1.8-1.2-3s0.4-2.2,1.2-3
	s1.8-1.2,3-1.2s2.2,0.4,3,1.2c0.8,0.8,1.2,1.8,1.2,3s-0.4,2.2-1.2,3C15.8,21.3,14.8,21.7,13.7,21.7z"/>
</svg>
