<?xml version="1.0" encoding="utf-8"?>
<!-- Generator: Adobe Illustrator 26.3.1, SVG Export Plug-In . SVG Version: 6.00 Build 0)  -->
<svg version="1.1" id="Слой_1" xmlns="http://www.w3.org/2000/svg" xmlns:xlink="http://www.w3.org/1999/xlink" x="0px" y="0px"
	 viewBox="0 0 48 48" style="enable-background:new 0 0 48 48;" xml:space="preserve">
<path d="M15.6,40l8.4-8.4l8.4,8.4H15.6z M8.8,36c-0.8,0-1.4-0.3-2-0.8C6.3,34.6,6,34,6,33.2V10.8c0-0.8,0.3-1.4,0.8-2
	C7.3,8.3,8,8,8.8,8h30.5c0.8,0,1.4,0.3,2,0.8c0.5,0.5,0.8,1.2,0.8,2v22.5c0,0.8-0.3,1.4-0.8,2c-0.5,0.5-1.2,0.8-2,0.8h-4.8L24,25.6
	L13.5,36H8.8z"/>
</svg>
