<?xml version="1.0" encoding="utf-8"?>
<!-- Generator: Adobe Illustrator 26.3.1, SVG Export Plug-In . SVG Version: 6.00 Build 0)  -->
<svg version="1.1" id="Слой_1" xmlns="http://www.w3.org/2000/svg" xmlns:xlink="http://www.w3.org/1999/xlink" x="0px" y="0px"
	 viewBox="0 0 48 48" style="enable-background:new 0 0 48 48;" xml:space="preserve">
<path d="M17.7,31.1l17.7-4.8c0.5-0.1,0.8-0.4,1.1-0.7c0.3-0.3,0.3-0.7,0.2-1.2s-0.4-0.8-0.8-0.9c-0.4-0.2-0.8-0.2-1.2-0.1l-5.1,1.4
	L21.4,17l-2,0.4l5,8.7l-5.8,1.5l-2.6-2L15,26L17.7,31.1z M39.2,38H8.8c-0.8,0-1.4-0.3-2-0.8C6.3,36.6,6,36,6,35.2v-5
	c1.2-0.6,2.2-1.4,3-2.5s1.1-2.3,1.1-3.7S9.8,21.4,9,20.2c-0.8-1.1-1.8-1.9-3-2.5v-5c0-0.8,0.3-1.4,0.8-2C7.4,10.3,8,10,8.8,10h30.5
	c0.8,0,1.4,0.3,2,0.8c0.5,0.5,0.8,1.2,0.8,2v22.5c0,0.8-0.3,1.4-0.8,2C40.6,37.7,40,38,39.2,38z"/>
</svg>
