<?xml version="1.0" encoding="utf-8"?>
<!-- Generator: Adobe Illustrator 26.3.1, SVG Export Plug-In . SVG Version: 6.00 Build 0)  -->
<svg version="1.1" id="Слой_1" xmlns="http://www.w3.org/2000/svg" xmlns:xlink="http://www.w3.org/1999/xlink" x="0px" y="0px"
	 viewBox="0 0 48 48" style="enable-background:new 0 0 48 48;" xml:space="preserve">
<path d="M36.7,17.4c-0.8,0.8-1.7,1.4-2.6,1.7c-1,0.4-2,0.6-3,0.6s-2.1-0.2-3-0.6c-1-0.4-1.9-1-2.7-1.7l-3.8-3.8
	c-0.6-0.6-1.3-1.1-2.1-1.4c-0.8-0.3-1.6-0.5-2.4-0.5s-1.6,0.2-2.4,0.5c-0.8,0.3-1.5,0.8-2.1,1.4l-2.9,2.9l-1.1-1.1l2.9-2.9
	c0.8-0.8,1.7-1.4,2.6-1.8c1-0.4,2-0.6,3-0.6s2,0.2,3,0.6c1,0.4,1.8,1,2.6,1.8l3.7,3.8c0.7,0.6,1.4,1.1,2.1,1.4
	c0.8,0.3,1.6,0.5,2.4,0.5s1.7-0.2,2.4-0.5c0.8-0.3,1.5-0.8,2.1-1.4l2.9-2.9l1.1,1.1L36.7,17.4z M36.7,26.4c-0.8,0.8-1.7,1.4-2.7,1.8
	s-2,0.6-3,0.6s-2-0.2-3-0.6s-1.9-1-2.7-1.8l-3.8-3.8c-0.6-0.6-1.3-1.1-2.1-1.4c-0.8-0.3-1.6-0.5-2.4-0.5s-1.6,0.2-2.4,0.5
	c-0.8,0.3-1.5,0.8-2.1,1.4l-2.9,2.9l-1.1-1.1l2.9-3c0.8-0.8,1.7-1.4,2.6-1.8c1-0.4,2-0.6,3-0.6s2,0.2,3,0.6s1.8,1,2.6,1.8l3.8,3.8
	c0.6,0.6,1.3,1.1,2.1,1.5c0.8,0.3,1.6,0.5,2.5,0.5s1.7-0.2,2.4-0.5c0.8-0.3,1.5-0.8,2.1-1.4l2.9-2.9l1.1,1.1L36.7,26.4z M36.6,35.5
	c-0.8,0.8-1.7,1.4-2.7,1.8c-1,0.4-2,0.6-3,0.6s-2-0.2-3-0.6c-1-0.4-1.9-1-2.7-1.8l-3.8-3.7c-0.6-0.6-1.3-1.1-2.1-1.4
	c-0.8-0.3-1.6-0.5-2.4-0.5s-1.6,0.2-2.4,0.5c-0.8,0.3-1.5,0.8-2.1,1.4l-2.9,2.9l-1.1-1.1l2.9-2.9c0.8-0.8,1.6-1.4,2.6-1.8
	s2-0.6,3-0.6s2,0.2,3,0.6s1.9,1,2.7,1.8l3.8,3.7c0.7,0.6,1.4,1.1,2.1,1.4c0.8,0.3,1.6,0.5,2.4,0.5s1.7-0.2,2.4-0.5
	c0.8-0.3,1.5-0.8,2.1-1.5l2.9-2.9l1.1,1.1C39.5,32.6,36.6,35.5,36.6,35.5z"/>
</svg>
