<?xml version="1.0" encoding="utf-8"?>
<!-- Generator: Adobe Illustrator 26.3.1, SVG Export Plug-In . SVG Version: 6.00 Build 0)  -->
<svg version="1.1" id="Слой_1" xmlns="http://www.w3.org/2000/svg" xmlns:xlink="http://www.w3.org/1999/xlink" x="0px" y="0px"
	 viewBox="0 0 48 48" style="enable-background:new 0 0 48 48;" xml:space="preserve">
<path d="M16.5,27.2c0.3,0,0.6-0.1,0.9-0.4c0.2-0.2,0.4-0.5,0.4-0.9c0-0.3-0.1-0.6-0.4-0.9c-0.2-0.2-0.5-0.4-0.9-0.4
	c-0.3,0-0.6,0.1-0.9,0.4c-0.2,0.2-0.4,0.5-0.4,0.9c0,0.3,0.1,0.6,0.4,0.9S16.2,27.2,16.5,27.2z M24,27.2c0.3,0,0.6-0.1,0.9-0.4
	c0.2-0.2,0.4-0.5,0.4-0.9c0-0.3-0.1-0.6-0.4-0.9c-0.2-0.2-0.5-0.4-0.9-0.4c-0.3,0-0.6,0.1-0.9,0.4c-0.2,0.2-0.4,0.5-0.4,0.9
	c0,0.3,0.1,0.6,0.4,0.9S23.7,27.2,24,27.2z M31.5,27.2c0.3,0,0.6-0.1,0.9-0.4c0.2-0.2,0.4-0.5,0.4-0.9c0-0.3-0.1-0.6-0.4-0.9
	c-0.2-0.2-0.5-0.4-0.9-0.4c-0.3,0-0.6,0.1-0.9,0.4c-0.2,0.2-0.4,0.5-0.4,0.9c0,0.3,0.1,0.6,0.4,0.9C30.9,27.1,31.2,27.2,31.5,27.2z
	 M24,41.9c-2.2,0-4.3-0.4-6.2-1.2c-1.9-0.8-3.6-2-5.1-3.4c-1.4-1.4-2.6-3.1-3.4-5.1C8.4,30.3,8,28.2,8,26s0.4-4.3,1.3-6.3
	s2-3.6,3.4-5.1s3.1-2.6,5.1-3.4c1.9-0.8,4-1.2,6.2-1.2s4.2,0.4,6.2,1.2c1.9,0.8,3.6,2,5.1,3.4c1.5,1.5,2.6,3.1,3.4,5.1
	c0.8,1.9,1.2,4,1.2,6.2s-0.4,4.3-1.2,6.2s-2,3.6-3.4,5.1c-1.5,1.4-3.2,2.6-5.1,3.4C28.2,41.5,26.2,41.9,24,41.9z M11.6,6.8l1.1,1.1
	l-6.8,6.7l-1.1-1.1L11.6,6.8z M36.4,6.8l6.9,6.7l-1.1,1.1l-6.8-6.7L36.4,6.8z"/>
</svg>
