<?xml version="1.0" encoding="utf-8"?>
<!-- Generator: Adobe Illustrator 26.3.1, SVG Export Plug-In . SVG Version: 6.00 Build 0)  -->
<svg version="1.1" id="Слой_1" xmlns="http://www.w3.org/2000/svg" xmlns:xlink="http://www.w3.org/1999/xlink" x="0px" y="0px"
	 viewBox="0 0 48 48" style="enable-background:new 0 0 48 48;" xml:space="preserve">
<path d="M23.2,32.9h1.5v-6.2h6.1v-1.6h-6.1V19h-1.5v6.1h-6.1v1.6h6.1C23.2,26.8,23.2,32.9,23.2,32.9z M24,41.9
	c-2.2,0-4.3-0.4-6.2-1.2c-1.9-0.8-3.6-2-5.1-3.4s-2.6-3.1-3.4-5.1C8.4,30.3,8,28.2,8,26s0.4-4.3,1.3-6.2s2-3.6,3.4-5.1
	s3.1-2.6,5.1-3.4c1.9-0.8,4-1.2,6.2-1.2s4.2,0.4,6.2,1.2c1.9,0.8,3.6,2,5.1,3.4c1.5,1.5,2.6,3.2,3.4,5.1c0.8,1.9,1.2,4,1.2,6.2
	s-0.4,4.3-1.2,6.2s-2,3.6-3.4,5.1c-1.5,1.4-3.2,2.6-5.1,3.4C28.2,41.5,26.2,41.9,24,41.9z M11.6,6.8l1.1,1.1l-6.8,6.7l-1.1-1.1
	L11.6,6.8z M36.4,6.8l6.9,6.7l-1.1,1.1l-6.8-6.7L36.4,6.8z"/>
</svg>
