<?xml version="1.0" encoding="utf-8"?>
<!-- Generator: Adobe Illustrator 26.3.1, SVG Export Plug-In . SVG Version: 6.00 Build 0)  -->
<svg version="1.1" id="Слой_1" xmlns="http://www.w3.org/2000/svg" xmlns:xlink="http://www.w3.org/1999/xlink" x="0px" y="0px"
	 viewBox="0 0 48 48" style="enable-background:new 0 0 48 48;" xml:space="preserve">
<path d="M9.1,36l7.7-12L9.1,12h19c0.8,0,1.5,0.2,2.1,0.5c0.7,0.4,1.2,0.8,1.6,1.5L39,24.2l-0.4,0.5c-0.5-0.1-0.9-0.2-1.2-0.2
	s-0.7,0-1.1,0c-3.2,0-6,1.1-8.3,3.2s-3.6,4.9-3.7,8.1v0.1V36H9.1z M36.3,44.2c-2.2,0-4-0.8-5.5-2.3s-2.2-3.3-2.2-5.4
	c0-2.2,0.7-4,2.2-5.5s3.3-2.3,5.5-2.3c2.1,0,3.9,0.8,5.4,2.3s2.3,3.3,2.3,5.5c0,2.1-0.8,3.9-2.3,5.4C40.3,43.5,38.4,44.2,36.3,44.2z
	 M35,39.9l5.7-5.6L39.5,33L35,37.4l-1.9-2l-1.3,1.3C31.9,36.7,35,39.9,35,39.9z"/>
</svg>
