<?xml version="1.0" encoding="utf-8"?>
<!-- Generator: Adobe Illustrator 26.3.1, SVG Export Plug-In . SVG Version: 6.00 Build 0)  -->
<svg version="1.1" id="Слой_1" xmlns="http://www.w3.org/2000/svg" xmlns:xlink="http://www.w3.org/1999/xlink" x="0px" y="0px"
	 viewBox="0 0 48 48" style="enable-background:new 0 0 48 48;" xml:space="preserve">
<path d="M26.6,28.2c1.3,0,2.4-0.4,3.3-1.2c1-0.8,1.4-1.8,1.4-3h8.1V8.8c0-0.3-0.1-0.6-0.4-0.8c-0.3-0.3-0.5-0.4-0.8-0.4H14.8
	c-0.3,0-0.6,0.1-0.8,0.4c-0.3,0.3-0.4,0.5-0.4,0.8v15.3h8.1c0,1.2,0.5,2.2,1.4,3C24.2,27.8,25.3,28.2,26.6,28.2z M14.8,34.9
	c-0.8,0-1.4-0.3-2-0.8c-0.5-0.5-0.8-1.2-0.8-2V8.8c0-0.8,0.3-1.4,0.8-2C13.3,6.3,14,6,14.8,6h23.4c0.8,0,1.4,0.3,2,0.8
	C40.7,7.3,41,8,41,8.8v23.4c0,0.8-0.3,1.4-0.8,2c-0.5,0.5-1.2,0.8-2,0.8C38.2,34.9,14.8,34.9,14.8,34.9z M9.8,40
	c-0.8,0-1.4-0.3-2-0.8C7.3,38.7,7,38,7,37.2V12.3h1.5v24.9c0,0.3,0.1,0.6,0.4,0.8c0.3,0.3,0.5,0.4,0.8,0.4h24.9V40H9.8z"/>
</svg>
