<?xml version="1.0" encoding="utf-8"?>
<!-- Generator: Adobe Illustrator 26.3.1, SVG Export Plug-In . SVG Version: 6.00 Build 0)  -->
<svg version="1.1" id="Слой_1" xmlns="http://www.w3.org/2000/svg" xmlns:xlink="http://www.w3.org/1999/xlink" x="0px" y="0px"
	 viewBox="0 0 48 48" style="enable-background:new 0 0 48 48;" xml:space="preserve">
<path d="M10.8,34c-2.7,0-5.1-1-7-2.9C2,29.1,1,26.7,1,23.9c0-2.7,1-5.1,2.9-7s4.2-2.9,7-2.9c1.1,0,2.1,0.2,3.1,0.6s1.9,0.9,2.7,1.7
	l4.8,4.3l-1.1,1l-4.6-4.2c-0.7-0.6-1.5-1-2.3-1.4c-0.8-0.3-1.7-0.5-2.6-0.5c-2.3,0-4.3,0.8-5.9,2.5c-1.6,1.6-2.4,3.6-2.4,5.9
	s0.8,4.4,2.4,6c1.6,1.7,3.6,2.5,5.9,2.5c0.9,0,1.7-0.2,2.6-0.5c0.8-0.3,1.6-0.8,2.3-1.3l15.6-14.4c0.8-0.8,1.7-1.3,2.7-1.7
	s2.1-0.6,3.1-0.6c2.7,0,5.1,1,7,2.9s2.9,4.3,2.9,7c0,2.8-1,5.2-2.9,7.1c-1.9,2-4.2,2.9-7,2.9c-1.1,0-2.1-0.2-3.1-0.6
	c-1-0.4-1.9-0.9-2.7-1.6l-4.7-4.3l1.1-1.1l4.6,4.2c0.6,0.6,1.4,1.1,2.2,1.4c0.9,0.3,1.7,0.4,2.6,0.4c2.3,0,4.3-0.8,5.9-2.5
	c1.6-1.7,2.4-3.7,2.4-6s-0.8-4.3-2.4-5.9c-1.6-1.6-3.6-2.5-5.9-2.5c-0.9,0-1.7,0.2-2.6,0.5c-0.8,0.3-1.6,0.8-2.3,1.4L16.7,31.8
	c-0.8,0.7-1.7,1.3-2.7,1.7C12.9,33.8,11.9,34,10.8,34z"/>
</svg>
