<?xml version="1.0" encoding="utf-8"?>
<!-- Generator: Adobe Illustrator 26.3.1, SVG Export Plug-In . SVG Version: 6.00 Build 0)  -->
<svg version="1.1" id="Слой_1" xmlns="http://www.w3.org/2000/svg" xmlns:xlink="http://www.w3.org/1999/xlink" x="0px" y="0px"
	 viewBox="0 0 48 48" style="enable-background:new 0 0 48 48;" xml:space="preserve">
<path d="M8,40v-6.4h1.5v4.9h4.9V40H8z M33.6,40v-1.5h4.9v-4.9H40V40H33.6z M24,36.5c-3.5,0-6.4-1.2-8.8-3.6s-3.6-5.4-3.6-8.8
	c0-3.5,1.2-6.4,3.6-8.8s5.4-3.6,8.8-3.6s6.4,1.2,8.8,3.6s3.6,5.4,3.6,8.8s-1.2,6.4-3.6,8.8S27.5,36.5,24,36.5z M8,14.4V8h6.4v1.5
	H9.5v4.9H8z M38.5,14.4V9.5h-4.9V8H40v6.4H38.5z"/>
</svg>
