<?xml version="1.0" encoding="utf-8"?>
<!-- Generator: Adobe Illustrator 26.3.1, SVG Export Plug-In . SVG Version: 6.00 Build 0)  -->
<svg version="1.1" id="Слой_1" xmlns="http://www.w3.org/2000/svg" xmlns:xlink="http://www.w3.org/1999/xlink" x="0px" y="0px"
	 viewBox="0 0 48 48" style="enable-background:new 0 0 48 48;" xml:space="preserve">
<path d="M37.3,43.6c-0.4,0-0.7-0.1-1-0.3s-0.5-0.5-0.6-0.9c-4-0.6-7.4-2.3-10.4-5.2c-2.9-2.9-5-6.6-6.2-11.1
	c-3.6,1.4-6.6,3.6-8.8,6.6S6.8,39.1,6.6,43H5c0.2-4.3,1.5-8.1,4-11.3c2.4-3.3,5.7-5.6,9.8-7.1c-0.7-3.5-0.8-6.8-0.3-9.8
	c0.5-3.1,1.5-5.5,3-7.4c-0.1-0.1-0.1-0.2-0.2-0.4c0-0.1,0-0.3,0-0.4c0-0.5,0.1-0.9,0.5-1.3C22,5,22.5,4.8,23,4.8s0.9,0.2,1.3,0.5
	c0.3,0.3,0.5,0.8,0.5,1.3s-0.2,0.9-0.5,1.3C24,8.2,23.5,8.4,23,8.4c-0.1,0-0.2,0-0.2,0c-0.1,0-0.2,0-0.2,0c-1.2,1.6-2,3.3-2.4,5.1
	s-0.5,4.1-0.4,6.7c0.6-1.5,1.5-2.6,2.8-3.5s2.8-1.5,4.6-1.9c0.7-0.3,1.5-0.5,2.4-0.6s1.8-0.2,2.7-0.2c0.2-0.3,0.4-0.5,0.6-0.7
	c0.3-0.2,0.6-0.3,0.9-0.3c0.5,0,0.9,0.2,1.3,0.5c0.3,0.3,0.5,0.8,0.5,1.3s-0.2,0.9-0.5,1.3c-0.3,0.3-0.8,0.5-1.3,0.5
	c-0.4,0-0.7-0.1-1-0.3c-0.3-0.2-0.5-0.5-0.6-0.8c-1.1,0-2,0.1-2.8,0.2c-0.8,0.1-1.5,0.3-2.1,0.5c-2.2,0.4-3.8,1.3-4.9,2.6
	c-1.1,1.3-1.6,3-1.6,5.1c1.2-0.3,2.4-0.5,3.7-0.6c1.3-0.1,2.5-0.1,3.6-0.1c0.2-0.3,0.4-0.6,0.6-0.8c0.3-0.2,0.6-0.3,1-0.3
	c0.5,0,0.9,0.2,1.3,0.5c0.3,0.3,0.5,0.8,0.5,1.3s-0.2,0.9-0.5,1.3c-0.3,0.3-0.8,0.5-1.3,0.5c-0.3,0-0.7-0.1-0.9-0.3
	c-0.3-0.2-0.5-0.4-0.6-0.8c-1-0.1-2.2,0-3.5,0.1s-2.6,0.4-3.7,0.7c0.4,1.9,1.4,3.4,2.9,4.3c1.6,0.9,3.8,1.4,6.6,1.4
	c0.7,0,1.6,0,2.5-0.1c0.9-0.1,1.9-0.2,2.9-0.4c0.1-0.4,0.3-0.7,0.6-0.9c0.3-0.2,0.7-0.4,1-0.4c0.5,0,0.9,0.2,1.3,0.5
	c0.3,0.3,0.5,0.8,0.5,1.3s-0.2,0.9-0.5,1.3c-0.3,0.3-0.8,0.5-1.3,0.5c-0.3,0-0.5-0.1-0.8-0.2c-0.2-0.1-0.4-0.3-0.6-0.5
	c-1.2,0.2-2.3,0.3-3.3,0.4c-1,0.1-1.9,0.1-2.7,0.1c-1.6,0-3.1-0.2-4.4-0.5s-2.4-0.8-3.4-1.5c1.5,2.9,3.4,5.2,5.7,6.9
	s4.9,2.8,7.7,3.2c0.2-0.2,0.4-0.4,0.6-0.6c0.2-0.2,0.5-0.2,0.8-0.2c0.5,0,0.9,0.2,1.3,0.5c0.3,0.3,0.5,0.8,0.5,1.3s-0.2,0.9-0.5,1.3
	C38.3,43.4,37.8,43.6,37.3,43.6z"/>
</svg>
