<?xml version="1.0" encoding="utf-8"?>
<!-- Generator: Adobe Illustrator 26.3.1, SVG Export Plug-In . SVG Version: 6.00 Build 0)  -->
<svg version="1.1" id="Слой_1" xmlns="http://www.w3.org/2000/svg" xmlns:xlink="http://www.w3.org/1999/xlink" x="0px" y="0px"
	 viewBox="0 0 48 48" style="enable-background:new 0 0 48 48;" xml:space="preserve">
<path d="M39.2,40.5l-1.7-3.6l-3.6-1.7l3.6-1.7l1.7-3.6l1.7,3.6l3.6,1.7l-3.6,1.7L39.2,40.5z M24,30.3l1.9-4.4l4.4-1.9l-4.4-1.9
	L24,17.7l-1.9,4.4L17.7,24l4.4,1.9L24,30.3z M8.8,38c-0.8,0-1.4-0.3-2-0.8C6.3,36.6,6,36,6,35.2V12.8c0-0.8,0.3-1.4,0.8-2
	C7.4,10.3,8,10,8.8,10h30.5c0.8,0,1.4,0.3,2,0.8c0.5,0.5,0.8,1.2,0.8,2v13.1c-0.5-0.2-0.9-0.3-1.4-0.4s-0.9-0.1-1.4-0.1
	c-2.7,0-5.1,1-7,2.9c-1.9,1.9-2.9,4.2-2.9,7c0,0.5,0,0.9,0.1,1.4s0.2,0.9,0.4,1.4H8.8V38z"/>
</svg>
