<?xml version="1.0" encoding="utf-8"?>
<!-- Generator: Adobe Illustrator 26.3.1, SVG Export Plug-In . SVG Version: 6.00 Build 0)  -->
<svg version="1.1" id="Слой_1" xmlns="http://www.w3.org/2000/svg" xmlns:xlink="http://www.w3.org/1999/xlink" x="0px" y="0px"
	 viewBox="0 0 48 48" style="enable-background:new 0 0 48 48;" xml:space="preserve">
<path d="M5.4,34c0.2-3,1.2-5.8,2.8-8.3s3.7-4.6,6.4-6.1l-3.1-5.4c-0.1-0.3-0.1-0.5-0.1-0.8c0.1-0.3,0.2-0.5,0.5-0.6
	c0.2-0.1,0.5-0.2,0.8-0.1c0.3,0.1,0.5,0.3,0.6,0.5l3.1,5.4c2.4-1,5-1.5,7.6-1.5s5.2,0.5,7.6,1.5l3.1-5.4c0.2-0.3,0.4-0.4,0.7-0.5
	s0.5-0.1,0.8,0.1c0.2,0.1,0.4,0.4,0.5,0.6c0.1,0.3,0.1,0.5-0.1,0.8l-3.2,5.4c2.6,1.5,4.8,3.5,6.4,6.1c1.6,2.5,2.5,5.3,2.8,8.3
	C42.6,34,5.4,34,5.4,34z M15.5,29.4c0.6,0,1.1-0.2,1.5-0.6s0.6-0.9,0.6-1.5s-0.2-1.1-0.6-1.5s-0.9-0.6-1.5-0.6s-1.1,0.2-1.5,0.6
	s-0.6,0.9-0.6,1.5s0.2,1.1,0.6,1.5C14.5,29.2,15,29.4,15.5,29.4z M32.5,29.4c0.6,0,1.1-0.2,1.5-0.6s0.6-0.9,0.6-1.5
	s-0.2-1.1-0.6-1.5c-0.4-0.4-0.9-0.6-1.5-0.6c-0.6,0-1.1,0.2-1.5,0.6s-0.6,0.9-0.6,1.5s0.2,1.1,0.6,1.5
	C31.4,29.2,31.9,29.4,32.5,29.4z"/>
</svg>
