<?xml version="1.0" encoding="utf-8"?>
<!-- Generator: Adobe Illustrator 26.3.1, SVG Export Plug-In . SVG Version: 6.00 Build 0)  -->
<svg version="1.1" id="Слой_1" xmlns="http://www.w3.org/2000/svg" xmlns:xlink="http://www.w3.org/1999/xlink" x="0px" y="0px"
	 viewBox="0 0 48 48" style="enable-background:new 0 0 48 48;" xml:space="preserve">
<path d="M25.2,25l8.9-6l-8.9-6.1C25.2,12.9,25.2,25,25.2,25z M16.7,33.4c-0.8,0-1.4-0.3-2-0.8c-0.5-0.5-0.8-1.2-0.8-2V8.2
	c0-0.8,0.3-1.4,0.8-2c0.5-0.5,1.2-0.8,2-0.8h22.5c0.8,0,1.4,0.3,2,0.8c0.5,0.5,0.8,1.2,0.8,2v22.5c0,0.8-0.3,1.4-0.8,2
	c-0.5,0.5-1.2,0.8-2,0.8L16.7,33.4L16.7,33.4z M12,41.7c-0.8,0.1-1.5-0.1-2.1-0.5c-0.6-0.5-0.9-1.1-1-1.8L6.2,18.5
	c-0.1-0.8,0.1-1.5,0.6-2.1s1.1-1,1.9-1.1l1.7-0.2v16.7c0,1.4,0.5,2.6,1.5,3.6s2.2,1.5,3.6,1.5h22.9c0.1,0.4,0,0.8-0.2,1.1
	s-0.6,0.5-1,0.5C37.2,38.6,12,41.7,12,41.7z"/>
</svg>
