<?xml version="1.0" encoding="utf-8"?>
<!-- Generator: Adobe Illustrator 26.3.1, SVG Export Plug-In . SVG Version: 6.00 Build 0)  -->
<svg version="1.1" id="Слой_1" xmlns="http://www.w3.org/2000/svg" xmlns:xlink="http://www.w3.org/1999/xlink" x="0px" y="0px"
	 viewBox="0 0 48 48" style="enable-background:new 0 0 48 48;" xml:space="preserve">
<path d="M24,28.6L19.4,24l4.6-4.6l4.6,4.6L24,28.6z M19.8,16.2l-3-3L24,5.9l7.2,7.2l-3,3L24,11.9L19.8,16.2z M13.2,31.2L5.9,24
	l7.2-7.2l3,3L11.9,24l4.3,4.2L13.2,31.2z M34.8,31.2l-3-3L36,24l-4.2-4.2l3-3L42,24L34.8,31.2z M24,42.1l-7.2-7.2l3-3l4.2,4.2
	l4.2-4.2l3,3L24,42.1z"/>
</svg>
