<?xml version="1.0" encoding="utf-8"?>
<!-- Generator: Adobe Illustrator 26.3.1, SVG Export Plug-In . SVG Version: 6.00 Build 0)  -->
<svg version="1.1" id="Слой_1" xmlns="http://www.w3.org/2000/svg" xmlns:xlink="http://www.w3.org/1999/xlink" x="0px" y="0px"
	 viewBox="0 0 48 48" style="enable-background:new 0 0 48 48;" xml:space="preserve">
<path d="M36.8,42l-6.3-6.3l1.1-1.1l4.4,4.5V29h1.5v10.1l4.4-4.4l1.1,1.1L36.8,42z M8.8,42c-0.8,0-1.4-0.3-2-0.8
	C6.3,40.7,6,40,6,39.2V8.8c0-0.8,0.3-1.4,0.8-2C7.3,6.3,8,6,8.8,6H25l9,9v11h-5.9v16H8.8z M24,16h8.5L24,7.5V16z M11.9,36.5h16.2
	c-0.1-1.3-0.5-2.5-1.2-3.6c-0.7-1.1-1.6-2-2.7-2.6l1.5-2.7c0.1-0.1,0.1-0.2,0-0.4c0-0.1-0.1-0.2-0.3-0.3c-0.1-0.1-0.2-0.1-0.3-0.1
	s-0.2,0.1-0.2,0.2l-1.6,2.8c-0.5-0.2-1-0.4-1.6-0.5c-0.5-0.1-1.1-0.2-1.7-0.2s-1.1,0.1-1.7,0.2c-0.5,0.1-1.1,0.3-1.6,0.5L15.2,27
	c-0.1-0.1-0.2-0.2-0.3-0.2s-0.2,0-0.4,0.1c0,0-0.1,0.2-0.2,0.6l1.6,2.7c-1.1,0.6-2.1,1.5-2.8,2.6C12.4,33.9,12,35.1,11.9,36.5z
	 M16.4,34c-0.2,0-0.4-0.1-0.6-0.2c-0.2-0.2-0.2-0.3-0.2-0.6c0-0.2,0.1-0.4,0.2-0.6c0.2-0.2,0.4-0.2,0.6-0.2s0.4,0.1,0.5,0.2
	c0.1,0.2,0.2,0.3,0.2,0.6c0,0.2-0.1,0.4-0.2,0.6C16.8,34,16.6,34,16.4,34z M23.7,34c-0.2,0-0.4-0.1-0.6-0.2
	c-0.2-0.2-0.2-0.3-0.2-0.6c0-0.2,0.1-0.4,0.2-0.6c0.2-0.2,0.4-0.2,0.6-0.2s0.4,0.1,0.6,0.2c0.2,0.2,0.2,0.3,0.2,0.6
	c0,0.2-0.1,0.4-0.2,0.6C24.1,34,23.9,34,23.7,34z"/>
</svg>
