<?xml version="1.0" encoding="utf-8"?>
<!-- Generator: Adobe Illustrator 26.3.1, SVG Export Plug-In . SVG Version: 6.00 Build 0)  -->
<svg version="1.1" id="Слой_1" xmlns="http://www.w3.org/2000/svg" xmlns:xlink="http://www.w3.org/1999/xlink" x="0px" y="0px"
	 viewBox="0 0 48 48" style="enable-background:new 0 0 48 48;" xml:space="preserve">
<path d="M14.8,44c-0.7,0-1.4-0.3-1.9-0.8c-0.6-0.6-0.9-1.2-0.9-2V6.8c0-0.7,0.3-1.4,0.8-1.9C13.4,4.3,14,4,14.8,4h18.5
	c0.7,0,1.4,0.3,1.9,0.8C35.7,5.4,36,6,36,6.8v6.3h-1.5V9.8h-21v28.3h20.9v-3.2H36v6.3c0,0.8-0.3,1.4-0.8,2c-0.6,0.5-1.2,0.8-2,0.8
	H14.8z M37.7,24.8H23.5c-0.4,0-0.7,0.1-0.9,0.3c-0.2,0.2-0.3,0.5-0.3,0.9v6.7h-1.5V26c0-0.8,0.3-1.4,0.8-2c0.6-0.5,1.2-0.8,1.9-0.8
	h14.1L33,18.6l1.1-1.1l6.5,6.5l-6.5,6.5L33,29.3L37.7,24.8z"/>
</svg>
