<?xml version="1.0" encoding="utf-8"?>
<!-- Generator: Adobe Illustrator 26.3.1, SVG Export Plug-In . SVG Version: 6.00 Build 0)  -->
<svg version="1.1" id="Слой_1" xmlns="http://www.w3.org/2000/svg" xmlns:xlink="http://www.w3.org/1999/xlink" x="0px" y="0px"
	 viewBox="0 0 48 48" style="enable-background:new 0 0 48 48;" xml:space="preserve">
<path d="M35.2,17.5c-1.3,0-2.5-0.5-3.4-1.4s-1.4-2.1-1.4-3.4s0.5-2.5,1.4-3.4c1-0.8,2.1-1.3,3.4-1.3s2.5,0.5,3.4,1.4s1.4,2,1.4,3.4
	c0,1.3-0.5,2.5-1.4,3.4C37.7,17.1,36.6,17.5,35.2,17.5z M24,42c-2.5,0-4.8-0.5-7-1.4s-4.1-2.2-5.7-3.9c-1.6-1.6-2.9-3.5-3.9-5.7
	C6.5,28.8,6,26.5,6,24s0.5-4.8,1.4-7s2.2-4.1,3.9-5.7c1.6-1.6,3.6-2.9,5.7-3.8c2.2-1,4.5-1.5,7-1.5c1.1,0,2,0.1,2.5,0.2
	s0.9,0.4,1,0.7c0.1,0.2,0.1,0.4,0.1,0.7c0,0.2-0.1,0.5-0.2,0.7c-0.4,0.7-0.8,1.4-1,2.1c-0.2,0.7-0.3,1.5-0.3,2.3
	c0,2.5,0.9,4.6,2.7,6.4c1.8,1.8,3.9,2.7,6.4,2.7c0.7,0,1.5-0.1,2.2-0.3c0.8-0.2,1.5-0.5,2.2-1c0.2-0.1,0.4-0.2,0.6-0.2
	c0.2,0,0.5,0,0.7,0.1c0.4,0.1,0.6,0.5,0.8,1c0.1,0.5,0.2,1.4,0.2,2.5c0,2.5-0.5,4.8-1.4,7s-2.2,4.1-3.8,5.7
	c-1.6,1.6-3.5,2.9-5.7,3.9C28.8,41.5,26.5,42,24,42z"/>
</svg>
