<?xml version="1.0" encoding="utf-8"?>
<!-- Generator: Adobe Illustrator 26.3.1, SVG Export Plug-In . SVG Version: 6.00 Build 0)  -->
<svg version="1.1" id="Слой_1" xmlns="http://www.w3.org/2000/svg" xmlns:xlink="http://www.w3.org/1999/xlink" x="0px" y="0px"
	 viewBox="0 0 48 48" style="enable-background:new 0 0 48 48;" xml:space="preserve">
<path d="M14.2,17.5l-4.1,2.3C9.8,20,9.4,20,9,19.9s-0.7-0.3-0.8-0.7L6,15.4c-0.2-0.4-0.3-0.7-0.2-1c0.1-0.3,0.3-0.6,0.7-0.8L15.9,8
	h2.3c0.4,0,0.7,0.1,1,0.3c0.2,0.2,0.4,0.6,0.4,1v0.3c0,1.3,0.4,2.3,1.3,3.2s1.9,1.3,3.2,1.3s2.3-0.4,3.2-1.3
	c0.9-0.9,1.3-1.9,1.3-3.2V9.3c0-0.4,0.1-0.7,0.3-1c0.2-0.2,0.6-0.3,1-0.3h2.3l9.5,5.6c0.4,0.2,0.6,0.5,0.7,0.8c0.1,0.3,0,0.7-0.2,1
	L40,19.2c-0.2,0.4-0.5,0.6-0.9,0.7S38.3,20,38,19.8l-4.1-2.4v21.1c0,0.4-0.1,0.8-0.4,1.1S32.6,40,32.2,40H15.8
	c-0.4,0-0.8-0.1-1.1-0.4c-0.3-0.3-0.4-0.7-0.4-1.1C14.2,38.5,14.2,17.5,14.2,17.5z"/>
</svg>
