<?xml version="1.0" encoding="utf-8"?>
<!-- Generator: Adobe Illustrator 26.3.1, SVG Export Plug-In . SVG Version: 6.00 Build 0)  -->
<svg version="1.1" id="Слой_1" xmlns="http://www.w3.org/2000/svg" xmlns:xlink="http://www.w3.org/1999/xlink" x="0px" y="0px"
	 viewBox="0 0 48 48" style="enable-background:new 0 0 48 48;" xml:space="preserve">
<path d="M10,38.9v-9.4c0-0.8,0.3-1.4,0.8-2c0.5-0.5,1.2-0.8,2-0.8h22.5c0.8,0,1.4,0.3,2,0.8c0.5,0.5,0.8,1.2,0.8,2v9.4
	C38,38.9,10,38.9,10,38.9z M11.5,32.9h24.9v-3.4c0-0.3-0.1-0.6-0.4-0.8c-0.3-0.3-0.5-0.4-0.8-0.4H12.8c-0.3,0-0.6,0.1-0.8,0.4
	c-0.3,0.3-0.4,0.5-0.4,0.8v3.4H11.5z M24,26.8L16,16v-0.4c0-2.2,0.8-4.1,2.3-5.7c1.6-1.6,3.4-2.3,5.7-2.3s4.1,0.8,5.7,2.3
	c1.6,1.6,2.3,3.4,2.3,5.7V16L24,26.8z"/>
</svg>
