<?xml version="1.0" encoding="utf-8"?>
<!-- Generator: Adobe Illustrator 26.3.1, SVG Export Plug-In . SVG Version: 6.00 Build 0)  -->
<svg version="1.1" id="Слой_1" xmlns="http://www.w3.org/2000/svg" xmlns:xlink="http://www.w3.org/1999/xlink" x="0px" y="0px"
	 viewBox="0 0 48 48" style="enable-background:new 0 0 48 48;" xml:space="preserve">
<path d="M37,34l-1.2-1.8c-0.6,0.3-1.2,0.6-1.8,0.8s-1.3,0.2-2,0.2c-2.3,0-4.2-0.8-5.8-2.4c-1.6-1.6-2.4-3.5-2.4-5.8s0.8-4.2,2.4-5.8
	c1.6-1.6,3.5-2.4,5.8-2.4s4.2,0.8,5.7,2.4S40,22.7,40,25c0,1.2-0.3,2.4-0.8,3.5s-1.2,2-2.2,2.8l1.2,1.8L37,34z M8,32.8l6-15.6h2
	l6.1,15.6h-1.8l-1.5-3.9h-7.5l-1.5,3.9H8z M31.9,31.6c0.5,0,1-0.1,1.5-0.2s1-0.3,1.5-0.6L33,28l1.3-0.9l1.9,2.8
	c0.7-0.6,1.2-1.4,1.6-2.2c0.4-0.8,0.6-1.7,0.6-2.7c0-1.8-0.6-3.4-1.8-4.7s-2.8-1.9-4.6-1.9c-1.8,0-3.4,0.6-4.6,1.9s-1.9,2.8-1.9,4.7
	c0,1.8,0.6,3.4,1.9,4.7C28.6,30.9,30.1,31.6,31.9,31.6z M11.8,27.4h6.4L15,19.1h-0.2C14.9,19.1,11.8,27.4,11.8,27.4z"/>
</svg>
