<?xml version="1.0" encoding="utf-8"?>
<!-- Generator: Adobe Illustrator 26.3.1, SVG Export Plug-In . SVG Version: 6.00 Build 0)  -->
<svg version="1.1" id="Слой_1" xmlns="http://www.w3.org/2000/svg" xmlns:xlink="http://www.w3.org/1999/xlink" x="0px" y="0px"
	 viewBox="0 0 48 48" style="enable-background:new 0 0 48 48;" xml:space="preserve">
<path d="M27.5,33.8c0.6,0,1.1-0.1,1.7-0.3c0.5-0.2,1-0.5,1.4-0.9l1.4-1.4L31,30l-1.4,1.4c-0.3,0.3-0.6,0.5-0.9,0.6
	c-0.4,0.1-0.7,0.2-1.1,0.2s-0.7-0.1-1.1-0.2c-0.4-0.1-0.7-0.3-0.9-0.6l-1.9-1.9c-0.4-0.4-0.9-0.7-1.4-0.9c-0.5-0.2-1.1-0.3-1.7-0.3
	s-1.1,0.1-1.7,0.3c-0.5,0.2-1,0.5-1.4,0.9L16,31l1.1,1.1l1.4-1.4c0.3-0.3,0.6-0.5,0.9-0.6c0.4-0.1,0.7-0.2,1.1-0.2s0.7,0.1,1.1,0.2
	s0.7,0.3,0.9,0.6l1.9,1.9c0.4,0.4,0.9,0.7,1.4,0.9C26.4,33.7,26.9,33.8,27.5,33.8z M27.5,28.2c0.6,0,1.1-0.1,1.7-0.3
	c0.5-0.2,1-0.5,1.4-0.9l1.4-1.4l-1-1.1l-1.4,1.4c-0.3,0.3-0.6,0.5-0.9,0.6c-0.4,0.1-0.7,0.2-1.1,0.2s-0.7-0.1-1.1-0.2
	s-0.7-0.3-0.9-0.6l-2-1.9c-0.4-0.4-0.9-0.7-1.4-0.9c-0.5-0.2-1.1-0.3-1.7-0.3s-1.1,0.1-1.7,0.3c-0.5,0.2-1,0.5-1.4,0.9L16,25.4
	l1.1,1.1l1.4-1.4c0.3-0.3,0.6-0.5,0.9-0.6c0.4-0.1,0.7-0.2,1.1-0.2s0.7,0.1,1.1,0.2s0.7,0.3,0.9,0.6l1.9,1.9
	c0.4,0.4,0.9,0.7,1.4,0.9C26.4,28.1,26.9,28.3,27.5,28.2z M27.5,22.7c0.6,0,1.1-0.1,1.7-0.3c0.5-0.2,1-0.5,1.4-0.9L32,20l-1-1.1
	l-1.4,1.4c-0.3,0.3-0.6,0.5-0.9,0.6c-0.4,0.1-0.7,0.2-1.1,0.2s-0.7-0.1-1.1-0.2s-0.7-0.3-0.9-0.6l-1.9-1.9c-0.4-0.4-0.9-0.7-1.4-0.9
	c-0.5-0.2-1.1-0.3-1.7-0.3s-1.1,0.1-1.7,0.3c-0.5,0.2-1,0.5-1.4,0.9L16,19.9l1.1,1.1l1.4-1.4c0.3-0.3,0.6-0.4,0.9-0.6
	c0.4-0.1,0.7-0.2,1.1-0.2s0.7,0.1,1.1,0.2s0.7,0.3,0.9,0.6l1.9,1.9c0.4,0.4,0.9,0.7,1.4,0.9C26.4,22.6,26.9,22.7,27.5,22.7z M10,38
	V17L24,6.5L38,17v21H10z"/>
</svg>
