<?xml version="1.0" encoding="utf-8"?>
<!-- Generator: Adobe Illustrator 26.3.1, SVG Export Plug-In . SVG Version: 6.00 Build 0)  -->
<svg version="1.1" id="Слой_1" xmlns="http://www.w3.org/2000/svg" xmlns:xlink="http://www.w3.org/1999/xlink" x="0px" y="0px"
	 viewBox="0 0 48 48" style="enable-background:new 0 0 48 48;" xml:space="preserve">
<path d="M14.3,39.8L14,38.3l5.5-15.1c0.2,0.2,0.4,0.3,0.6,0.4s0.5,0.2,0.7,0.3l-5.3,14.8L14.3,39.8z M33.7,39.8l-1.2-1.2l-5.4-14.7
	c0.2-0.1,0.4-0.2,0.7-0.3c0.2-0.1,0.5-0.3,0.7-0.4L34,38.3L33.7,39.8z M24,21c-1.4,0-2.6-0.5-3.5-1.5c-1-1-1.5-2.2-1.5-3.5
	s0.4-2.5,1.3-3.4c0.8-0.9,1.8-1.4,3-1.5V6h1.5v5.1c1.1,0.1,2.1,0.6,3,1.5c0.8,0.9,1.3,2,1.3,3.4s-0.5,2.6-1.5,3.5
	C26.6,20.5,25.4,21,24,21z M24,19.5c1,0,1.8-0.3,2.5-1s1-1.5,1-2.5s-0.3-1.8-1-2.5s-1.5-1-2.5-1s-1.8,0.3-2.5,1s-1,1.5-1,2.5
	s0.3,1.8,1,2.5C22.2,19.1,23,19.5,24,19.5z"/>
</svg>
