<?xml version="1.0" encoding="utf-8"?>
<!-- Generator: Adobe Illustrator 26.3.1, SVG Export Plug-In . SVG Version: 6.00 Build 0)  -->
<svg version="1.1" id="Слой_1" xmlns="http://www.w3.org/2000/svg" xmlns:xlink="http://www.w3.org/1999/xlink" x="0px" y="0px"
	 viewBox="0 0 48 48" style="enable-background:new 0 0 48 48;" xml:space="preserve">
<path d="M8.5,40.6l-1.1-1.1l7.7-7.7H8v-1.5h9.8V40h-1.5v-7.1L8.5,40.6z M39.5,40.6l-7.7-7.7V40h-1.5v-9.8H40v1.5h-7.1l7.7,7.7
	C40.6,39.5,39.5,40.6,39.5,40.6z M8,17.8v-1.5h7.1L7.4,8.5l1.1-1.1l7.7,7.7V8h1.5v9.8H8z M30.2,17.8V8h1.5v7.1l7.7-7.7l1.1,1.1
	l-7.7,7.7H40v1.5L30.2,17.8L30.2,17.8z M24,26.4c-0.6,0-1.2-0.2-1.7-0.7s-0.7-1-0.7-1.6s0.2-1.2,0.7-1.6c0.5-0.5,1-0.7,1.7-0.7
	c0.6,0,1.2,0.2,1.6,0.7c0.5,0.5,0.7,1,0.7,1.6s-0.2,1.2-0.7,1.6C25.2,26.1,24.7,26.4,24,26.4z"/>
</svg>
