<?xml version="1.0" encoding="utf-8"?>
<!-- Generator: Adobe Illustrator 26.3.1, SVG Export Plug-In . SVG Version: 6.00 Build 0)  -->
<svg version="1.1" id="Слой_1" xmlns="http://www.w3.org/2000/svg" xmlns:xlink="http://www.w3.org/1999/xlink" x="0px" y="0px"
	 viewBox="0 0 48 48" style="enable-background:new 0 0 48 48;" xml:space="preserve">
<path d="M9.7,35.4c-1-1.4-1.8-2.9-2.4-4.4c-0.6-1.6-1-3.2-1.2-4.9h1.6c0.2,1.5,0.6,2.9,1.1,4.3s1.3,2.6,2.2,3.8
	C11,34.1,9.7,35.4,9.7,35.4z M6.1,22c0.2-1.7,0.6-3.3,1.3-4.9c0.6-1.6,1.4-3,2.5-4.4l1.2,1.2c-0.9,1.2-1.7,2.5-2.2,3.8
	C8.4,19.1,8,20.5,7.8,22C7.6,22,6.1,22,6.1,22z M21.9,41.9c-1.7-0.2-3.3-0.7-4.9-1.3s-3-1.4-4.4-2.4l1.2-1.2
	c1.2,0.9,2.5,1.6,3.9,2.2c1.4,0.6,2.8,1,4.3,1.2v1.5H21.9z M13.9,10.9l-1.3-1.2c1.4-1,2.9-1.8,4.5-2.4c1.6-0.6,3.2-1,4.9-1.3v1.5
	c-1.5,0.2-2.9,0.6-4.3,1.1C16.4,9.3,15.1,10,13.9,10.9z M25.9,41.9v-1.5c1.5-0.2,2.9-0.6,4.3-1.1c1.4-0.6,2.7-1.3,3.9-2.2l1.3,1.2
	c-1.4,1-2.9,1.8-4.5,2.4C29.3,41.2,27.6,41.6,25.9,41.9z M34.2,11c-1.2-0.9-2.5-1.6-3.9-2.2c-1.4-0.6-2.8-1-4.3-1.2V6.1
	c1.7,0.2,3.3,0.7,4.9,1.3s3.1,1.4,4.5,2.3L34.2,11z M38.3,35.3l-1.2-1.2c0.9-1.2,1.6-2.5,2.2-3.8c0.5-1.4,0.9-2.8,1.1-4.3H42
	c-0.2,1.7-0.6,3.3-1.2,4.9C40.1,32.5,39.3,33.9,38.3,35.3z M40.4,22c-0.2-1.5-0.6-2.9-1.1-4.3s-1.3-2.6-2.2-3.8l1.2-1.2
	c1,1.4,1.8,2.9,2.4,4.4c0.6,1.6,1,3.2,1.2,4.9H40.4z M23.2,32.6V18.4l-6.7,6.7L15.4,24l8.6-8.6l8.6,8.6l-1.1,1.1l-6.7-6.7v14.2
	C24.8,32.6,23.2,32.6,23.2,32.6z"/>
</svg>
