<?xml version="1.0" encoding="utf-8"?>
<!-- Generator: Adobe Illustrator 26.3.1, SVG Export Plug-In . SVG Version: 6.00 Build 0)  -->
<svg version="1.1" id="Слой_1" xmlns="http://www.w3.org/2000/svg" xmlns:xlink="http://www.w3.org/1999/xlink" x="0px" y="0px"
	 viewBox="0 0 48 48" style="enable-background:new 0 0 48 48;" xml:space="preserve">
<path d="M21.9,41.9c-2.3-0.2-4.4-0.9-6.3-1.9s-3.6-2.4-5.1-4S8,32.6,7.2,30.5S6,26.3,6,24c0-4.6,1.5-8.6,4.6-12
	c3-3.4,6.8-5.4,11.4-5.9v1.5c-4.1,0.6-7.6,2.5-10.3,5.6c-2.8,3-4.2,6.7-4.2,10.8s1.4,7.7,4.1,10.8s6.2,5,10.3,5.5
	C21.9,40.3,21.9,41.9,21.9,41.9z M23.2,32.6V18.4l-6.7,6.7L15.4,24l8.6-8.6l8.6,8.6l-1.1,1.1l-6.7-6.7v14.2
	C24.8,32.6,23.2,32.6,23.2,32.6z M26.1,41.9v-1.5c1.5-0.2,2.9-0.6,4.3-1.1c1.4-0.5,2.6-1.3,3.8-2.2l1.2,1.1c-1.4,1-2.8,1.8-4.4,2.4
	C29.4,41.3,27.8,41.7,26.1,41.9z M34.3,11c-1.2-0.9-2.5-1.6-3.9-2.2c-1.4-0.6-2.8-1-4.3-1.2V6c1.7,0.2,3.3,0.7,4.8,1.3
	s3,1.5,4.4,2.5L34.3,11z M38.2,35.2l-1.1-1.1c0.9-1.2,1.6-2.5,2.2-3.8c0.5-1.4,0.9-2.8,1.1-4.3h1.5c-0.2,1.7-0.6,3.3-1.3,4.8
	C40,32.4,39.2,33.8,38.2,35.2z M40.4,21.9c-0.2-1.5-0.6-2.9-1.1-4.2c-0.5-1.4-1.3-2.6-2.2-3.8l1.3-1.1c1,1.4,1.7,2.8,2.3,4.4
	c0.6,1.5,1,3.1,1.3,4.8C41.9,21.9,40.4,21.9,40.4,21.9z"/>
</svg>
