<?xml version="1.0" encoding="utf-8"?>
<!-- Generator: Adobe Illustrator 26.3.1, SVG Export Plug-In . SVG Version: 6.00 Build 0)  -->
<svg version="1.1" id="Слой_1" xmlns="http://www.w3.org/2000/svg" xmlns:xlink="http://www.w3.org/1999/xlink" x="0px" y="0px"
	 viewBox="0 0 48 48" style="enable-background:new 0 0 48 48;" xml:space="preserve">
<path d="M15.7,40l-6.3-6.3l1.1-1.1l4.4,4.4V22.9c0-0.4-0.1-0.7-0.3-0.9s-0.5-0.3-0.9-0.3H7.2c-0.7,0-1.4-0.3-1.9-0.8
	S4.5,19.7,4.5,19V8H6v10.9c0,0.4,0.1,0.7,0.3,0.9c0.2,0.2,0.5,0.3,0.9,0.3h6.4c0.7,0,1.4,0.3,1.9,0.8s0.8,1.2,0.8,1.9v14.1l4.4-4.4
	l1.1,1.1C21.9,33.8,15.7,40,15.7,40z M32.3,40L26,33.7l1.1-1.1l4.4,4.4V22.9c0-0.7,0.3-1.4,0.8-1.9s1.2-0.8,2-0.8h6.4
	c0.4,0,0.7-0.1,0.9-0.3c0.2-0.2,0.3-0.5,0.3-0.9V8h1.5v10.9c0,0.7-0.3,1.4-0.8,1.9s-1.2,0.8-1.9,0.8h-6.4c-0.4,0-0.7,0.1-0.9,0.3
	c-0.2,0.2-0.3,0.5-0.3,0.9V37l4.4-4.4l1.1,1.1C38.6,33.8,32.3,40,32.3,40z"/>
</svg>
