<?xml version="1.0" encoding="utf-8"?>
<!-- Generator: Adobe Illustrator 26.3.1, SVG Export Plug-In . SVG Version: 6.00 Build 0)  -->
<svg version="1.1" id="Слой_1" xmlns="http://www.w3.org/2000/svg" xmlns:xlink="http://www.w3.org/1999/xlink" x="0px" y="0px"
	 viewBox="0 0 48 48" style="enable-background:new 0 0 48 48;" xml:space="preserve">
<path d="M14.2,42c-2.3,0-4.2-0.8-5.9-2.4c-1.6-1.6-2.4-3.5-2.4-5.8c0-1.7,0.5-3.3,1.5-4.7c1-1.4,2.3-2.4,3.8-3H6v-1.5h8.6v8.6h-1.5
	v-6.1c-1.6,0.3-2.9,1-4,2.3s-1.6,2.7-1.6,4.4c0,1.9,0.7,3.5,2,4.8s2.9,2,4.8,2C14.2,40.5,14.2,42,14.2,42z M14.9,16.5H33V15H14.9
	V16.5z M18.9,40v-7h7.9v-1.5h-7.9v-6.7H33v-1.5H18.9v-3H8v-9.5c0-0.8,0.3-1.4,0.8-2C9.3,8.3,10,8,10.8,8h26.5c0.8,0,1.4,0.3,2,0.8
	c0.5,0.5,0.8,1.2,0.8,2v26.5c0,0.8-0.3,1.4-0.8,2c-0.5,0.5-1.2,0.8-2,0.8L18.9,40L18.9,40z"/>
</svg>
