<?xml version="1.0" encoding="utf-8"?>
<!-- Generator: Adobe Illustrator 26.3.1, SVG Export Plug-In . SVG Version: 6.00 Build 0)  -->
<svg version="1.1" id="Слой_1" xmlns="http://www.w3.org/2000/svg" xmlns:xlink="http://www.w3.org/1999/xlink" x="0px" y="0px"
	 viewBox="0 0 48 48" style="enable-background:new 0 0 48 48;" xml:space="preserve">
<path d="M34.8,37.2c-1.2,0-2.2-0.4-3-1.2s-1.2-1.8-1.2-3s0.4-2.2,1.2-2.9c0.8-0.8,1.8-1.2,3-1.2c0.5,0,1,0.1,1.5,0.2
	c0.4,0.2,0.8,0.4,1.1,0.7V19.7H43v2.6h-4.1v10.8c0,1.2-0.4,2.2-1.2,3C37,36.8,36,37.2,34.8,37.2z M20.1,22.8c-1.7,0-3-0.5-4.1-1.6
	s-1.6-2.5-1.6-4.1c0-1.7,0.5-3.1,1.6-4.1c1.1-1.1,2.5-1.6,4.1-1.6s3,0.5,4.1,1.6s1.6,2.5,1.6,4.1s-0.5,3-1.6,4.1
	C23.1,22.2,21.7,22.8,20.1,22.8z M6.1,37.2v-2.9c0-0.8,0.2-1.5,0.7-2.3c0.5-0.7,1.1-1.3,2.1-1.7c2.1-0.9,4.1-1.6,5.9-2
	s3.6-0.6,5.4-0.6c1.2,0,2.3,0.1,3.4,0.2c1.1,0.2,2.1,0.4,3.2,0.8c-0.7,1.4-1.1,2.8-1.2,4.4c-0.1,1.5,0.3,2.9,1.2,4.1
	C26.6,37.2,6.1,37.2,6.1,37.2z"/>
</svg>
