<?xml version="1.0" encoding="utf-8"?>
<!-- Generator: Adobe Illustrator 26.3.1, SVG Export Plug-In . SVG Version: 6.00 Build 0)  -->
<svg version="1.1" id="Слой_1" xmlns="http://www.w3.org/2000/svg" xmlns:xlink="http://www.w3.org/1999/xlink" x="0px" y="0px"
	 viewBox="0 0 48 48" style="enable-background:new 0 0 48 48;" xml:space="preserve">
<path d="M24,16.3c-1.6,0-3,0.6-4.1,1.7s-1.7,2.5-1.7,4.1s0.6,3,1.7,4.1s2.5,1.7,4.1,1.7s3-0.6,4.1-1.7s1.7-2.5,1.7-4.1
	s-0.6-3-1.7-4.1S25.6,16.3,24,16.3z M24,26.3c-1.2,0-2.2-0.4-3-1.2c-0.8-0.8-1.2-1.8-1.2-3s0.4-2.2,1.2-3c0.8-0.8,1.8-1.2,3-1.2
	s2.2,0.4,3,1.2c0.8,0.8,1.2,1.8,1.2,3s-0.4,2.2-1.2,3C26.2,25.9,25.2,26.3,24,26.3z M32.2,34.1c0.4,0,0.8-0.1,1.1-0.4
	c0.3-0.3,0.4-0.7,0.4-1.1c0-0.4-0.1-0.8-0.4-1.1C33,31.2,32.7,31,32.2,31c-0.4,0-0.8,0.2-1.1,0.5c-0.3,0.3-0.4,0.7-0.4,1.1
	c0,0.4,0.1,0.8,0.4,1.1C31.4,33.9,31.8,34.1,32.2,34.1z M10,40.5V13.8c0-2.2,0.8-4,2.3-5.5S15.6,6,17.8,6h12.5c2.2,0,4,0.8,5.5,2.3
	s2.3,3.3,2.3,5.5v26.7C38,40.5,10,40.5,10,40.5z M11.5,38.9h24.9v-2.1H11.5V38.9z"/>
</svg>
