<?xml version="1.0" encoding="utf-8"?>
<!-- Generator: Adobe Illustrator 26.3.1, SVG Export Plug-In . SVG Version: 6.00 Build 0)  -->
<svg version="1.1" id="Слой_1" xmlns="http://www.w3.org/2000/svg" xmlns:xlink="http://www.w3.org/1999/xlink" x="0px" y="0px"
	 viewBox="0 0 48 48" style="enable-background:new 0 0 48 48;" xml:space="preserve">
<path d="M24,44c-2.8,0-5.4-0.5-7.8-1.6s-4.6-2.5-6.4-4.3s-3.2-3.9-4.3-6.4c-1-2.4-1.5-5-1.5-7.7c0-2.8,0.5-5.3,1.6-7.8
	s2.5-4.6,4.3-6.4s3.9-3.2,6.4-4.3c2.4-1,5-1.6,7.8-1.6s5.4,0.5,7.8,1.6c2.4,1,4.6,2.5,6.4,4.3s3.2,3.9,4.3,6.4s1.6,5,1.6,7.8
	s-0.5,5.4-1.6,7.8c-1,2.4-2.5,4.6-4.3,6.4c-1.8,1.8-3.9,3.2-6.4,4.3C29.4,43.5,26.8,44,24,44z M22.7,35.9c0.3,0.4,0.8,0.5,1.2,0.6
	c0.5,0,0.9-0.2,1.2-0.6L36,25.2c0.3-0.4,0.5-0.8,0.5-1.3S36.3,23,36,22.6L25.1,12c-0.3-0.3-0.8-0.5-1.2-0.5c-0.5,0-0.9,0.2-1.2,0.5
	L12,22.7c-0.4,0.3-0.6,0.8-0.6,1.3s0.2,0.9,0.6,1.3C12,25.2,22.7,35.9,22.7,35.9z M17,28.7V22c0-0.2,0.1-0.4,0.3-0.6
	c0.2-0.2,0.4-0.3,0.6-0.3h11.8l-3.6-3.5l1.1-1.1l5.3,5.3L27,27.3l-1.1-1.1l3.6-3.6h-11v6.1C18.5,28.7,17,28.7,17,28.7z"/>
</svg>
