<?xml version="1.0" encoding="utf-8"?>
<!-- Generator: Adobe Illustrator 26.3.1, SVG Export Plug-In . SVG Version: 6.00 Build 0)  -->
<svg version="1.1" id="Слой_1" xmlns="http://www.w3.org/2000/svg" xmlns:xlink="http://www.w3.org/1999/xlink" x="0px" y="0px"
	 viewBox="0 0 48 48" style="enable-background:new 0 0 48 48;" xml:space="preserve">
<path d="M21,29.4v-9.3h-4.3v-1.5h10.1v1.5h-4.3v9.3C22.5,29.4,21,29.4,21,29.4z M5,29.4V20c0-0.4,0.1-0.7,0.4-1s0.6-0.4,1-0.4h6.1
	c0.4,0,0.7,0.1,1,0.4s0.4,0.6,0.4,1v9.4h-1.5v-3.8h-6v3.8H5z M6.5,24.1h6v-4h-6V24.1z M29.7,29.4V20c0-0.4,0.1-0.7,0.4-1
	s0.6-0.4,1-0.4h10.5c0.4,0,0.7,0.1,1,0.4s0.4,0.6,0.4,1v9.4h-1.5v-9.3h-4.4v7.2h-1.5v-7.2h-4.4v9.3C31.2,29.4,29.7,29.4,29.7,29.4z"
	/>
</svg>
