<?xml version="1.0" encoding="utf-8"?>
<!-- Generator: Adobe Illustrator 26.3.1, SVG Export Plug-In . SVG Version: 6.00 Build 0)  -->
<svg version="1.1" id="Слой_1" xmlns="http://www.w3.org/2000/svg" xmlns:xlink="http://www.w3.org/1999/xlink" x="0px" y="0px"
	 viewBox="0 0 48 48" style="enable-background:new 0 0 48 48;" xml:space="preserve">
<path d="M13.6,37.3c-1.3,0-2.4-0.4-3.3-1.3C9.4,35.1,9,34,9,32.7s0.4-2.4,1.3-3.3c0.9-0.9,2-1.3,3.3-1.3s2.4,0.4,3.3,1.3
	s1.3,2,1.3,3.3s-0.4,2.4-1.3,3.3C16,36.9,14.9,37.3,13.6,37.3z M34.4,37.3c-1.3,0-2.4-0.4-3.3-1.3c-0.9-0.9-1.3-2-1.3-3.3
	s0.4-2.4,1.3-3.3c0.9-0.9,2-1.3,3.3-1.3s2.4,0.4,3.3,1.3c0.9,0.9,1.3,2,1.3,3.3s-0.4,2.4-1.3,3.3C36.8,36.9,35.7,37.3,34.4,37.3z
	 M24,19.9c-1.3,0-2.4-0.5-3.3-1.4s-1.3-2-1.3-3.2c0-1.3,0.4-2.4,1.3-3.3s2-1.3,3.3-1.3s2.4,0.4,3.3,1.3c0.9,0.9,1.3,2,1.3,3.3
	s-0.4,2.3-1.3,3.2C26.4,19.5,25.3,19.9,24,19.9z"/>
</svg>
