<?xml version="1.0" encoding="utf-8"?>
<!-- Generator: Adobe Illustrator 26.3.1, SVG Export Plug-In . SVG Version: 6.00 Build 0)  -->
<svg version="1.1" id="Слой_1" xmlns="http://www.w3.org/2000/svg" xmlns:xlink="http://www.w3.org/1999/xlink" x="0px" y="0px"
	 viewBox="0 0 48 48" style="enable-background:new 0 0 48 48;" xml:space="preserve">
<path d="M34.9,31.2c0,3-1,5.6-3.1,7.7S27.1,42,24.1,42s-5.5-1-7.6-3.1s-3.1-4.7-3.1-7.7V13.5c0-2.1,0.7-3.8,2.2-5.3
	C17,6.7,18.7,6,20.8,6s3.8,0.7,5.3,2.2s2.2,3.2,2.2,5.3v16.8c0,1.1-0.4,2.1-1.2,2.9c-0.8,0.8-1.7,1.2-2.9,1.2
	c-1.1,0-2.1-0.4-2.9-1.2s-1.2-1.8-1.2-2.9V13.6h1.5v16.6c0,0.7,0.3,1.3,0.8,1.8s1.1,0.8,1.8,0.8c0.7,0,1.3-0.3,1.8-0.8
	s0.7-1.1,0.7-1.8V13.4c0-1.6-0.6-3-1.7-4.2s-2.5-1.7-4.2-1.7c-1.6,0-3,0.6-4.2,1.7c-1.1,1.2-1.7,2.6-1.7,4.2v17.7
	c0,2.6,0.9,4.8,2.7,6.6s4,2.7,6.5,2.7c2.6,0,4.7-0.9,6.5-2.7s2.7-4,2.6-6.6V13.6h1.5C34.9,13.6,34.9,31.2,34.9,31.2z"/>
</svg>
