<?xml version="1.0" encoding="utf-8"?>
<!-- Generator: Adobe Illustrator 26.3.1, SVG Export Plug-In . SVG Version: 6.00 Build 0)  -->
<svg version="1.1" id="Слой_1" xmlns="http://www.w3.org/2000/svg" xmlns:xlink="http://www.w3.org/1999/xlink" x="0px" y="0px"
	 viewBox="0 0 48 48" style="enable-background:new 0 0 48 48;" xml:space="preserve">
<path d="M38.5,41.9c-1.7,0-3.1-0.6-4.2-1.8c-1.1-1.2-1.7-2.6-1.7-4.2v-10c0-0.9,0.3-1.7,1-2.3c0.6-0.6,1.4-1,2.3-1
	c0.9,0,1.7,0.3,2.3,1c0.6,0.6,1,1.4,1,2.3v10.2h-1.5V25.9c0-0.5-0.2-1-0.5-1.4s-0.8-0.6-1.3-0.6s-0.9,0.2-1.3,0.6
	c-0.3,0.4-0.5,0.8-0.5,1.4V36c0,1.2,0.4,2.3,1.3,3.2c0.8,0.9,1.9,1.4,3.1,1.4c1.2,0,2.2-0.4,3-1.3c0.8-0.9,1.2-2,1.2-3.2v-8.9h1.5
	v8.9c0,1.6-0.6,3-1.7,4.1C41.4,41.4,40.1,41.9,38.5,41.9z M6.6,34c-0.8,0-1.5-0.3-2-0.8s-0.8-1.2-0.8-2V8.8C3.7,8,4,7.4,4.6,6.8
	C5.1,6.3,5.8,6,6.5,6H37c0.8,0,1.4,0.3,1.9,0.8s0.8,1.2,0.8,1.9V21h-4.1c-1.3,0-2.5,0.5-3.4,1.4c-0.9,1-1.4,2.1-1.4,3.5V34H6.6z
	 M21.7,19.7L38.2,8.8l-0.6-1.3L21.7,17.8L5.9,7.5L5.3,8.8L21.7,19.7z"/>
</svg>
