<?xml version="1.0" encoding="utf-8"?>
<!-- Generator: Adobe Illustrator 26.3.1, SVG Export Plug-In . SVG Version: 6.00 Build 0)  -->
<svg version="1.1" id="Слой_1" xmlns="http://www.w3.org/2000/svg" xmlns:xlink="http://www.w3.org/1999/xlink" x="0px" y="0px"
	 viewBox="0 0 48 48" style="enable-background:new 0 0 48 48;" xml:space="preserve">
<path d="M13.3,42.5l2.3-5.1c-0.6-0.4-1.2-0.9-1.7-1.3c-0.5-0.4-1-0.9-1.6-1.5c-0.2,0.1-0.5,0.2-0.7,0.3C11.3,35,11.1,35,10.9,35
	c-0.9,0-1.7-0.3-2.4-1s-1-1.5-1-2.4c0-0.5,0.1-1.1,0.4-1.5c0.3-0.5,0.6-0.9,1-1.2c-0.2-0.8-0.4-1.6-0.6-2.4
	c-0.1-0.8-0.2-1.6-0.2-2.5s0.1-1.7,0.2-2.5c0.1-0.8,0.3-1.6,0.6-2.4c-0.4-0.3-0.7-0.7-1-1.2s-0.4-1-0.4-1.6c0-0.9,0.3-1.7,1-2.4
	s1.5-1,2.4-1c0.2,0,0.5,0,0.7,0.1s0.5,0.2,0.7,0.3c1.1-1.2,2.4-2.2,3.7-3c1.4-0.8,2.9-1.4,4.6-1.8c0.1-0.9,0.5-1.6,1.2-2.2
	s1.4-0.8,2.2-0.8c0.8,0,1.6,0.3,2.2,0.8s1.1,1.3,1.2,2.1c1.7,0.4,3.3,0.9,4.7,1.7s2.7,1.8,3.8,3.1c0.2-0.1,0.4-0.2,0.6-0.2
	c0.2,0,0.4,0,0.6,0c0.9,0,1.7,0.3,2.4,1s1,1.5,1,2.4c0,0.6-0.1,1.1-0.4,1.6c-0.3,0.5-0.6,0.9-1,1.1c0.3,0.8,0.5,1.6,0.6,2.4
	s0.2,1.6,0.2,2.5s-0.1,1.7-0.2,2.5c-0.1,0.8-0.3,1.6-0.6,2.4c0.4,0.3,0.8,0.7,1,1.2s0.3,1,0.3,1.5c0,0.9-0.3,1.7-1,2.4s-1.5,1-2.4,1
	c-0.2,0-0.4,0-0.7-0.1c-0.2-0.1-0.5-0.1-0.7-0.2c-0.5,0.6-1,1.1-1.5,1.5s-1.1,0.9-1.7,1.2l2.2,5.1H33l-1.9-4.3
	c-0.6,0.3-1.2,0.5-1.8,0.7c-0.6,0.2-1.2,0.4-1.9,0.6c-0.1,0.9-0.5,1.6-1.2,2.1s-1.4,0.8-2.2,0.8c-0.8,0-1.6-0.3-2.2-0.8
	c-0.7-0.5-1-1.3-1.2-2.2c-0.7-0.2-1.3-0.4-1.9-0.6c-0.6-0.2-1.2-0.5-1.7-0.8l-2,4.4C14.9,42.5,13.3,42.5,13.3,42.5z M16.2,35.8
	l4.2-9.1c-0.4-0.4-0.6-0.8-0.8-1.3c-0.2-0.5-0.2-1-0.2-1.5c0-1.3,0.5-2.3,1.4-3.2c0.9-0.9,2-1.4,3.3-1.4s2.3,0.5,3.2,1.4
	c0.9,0.9,1.3,2,1.3,3.2c0,0.5-0.1,1-0.2,1.5c-0.2,0.5-0.4,0.9-0.8,1.3l4.1,9.1c0.5-0.3,1-0.6,1.4-1s0.9-0.8,1.3-1.3
	c-0.2-0.3-0.4-0.6-0.5-0.9c-0.1-0.3-0.2-0.7-0.2-1.1c0-1.1,0.4-2,1.2-2.7s1.7-0.9,2.7-0.6c0.2-0.7,0.4-1.4,0.5-2.1s0.2-1.5,0.2-2.2
	c0-0.8-0.1-1.6-0.2-2.3c-0.1-0.7-0.3-1.4-0.5-2.1c-1,0.2-1.9,0-2.6-0.7c-0.8-0.7-1.2-1.6-1.2-2.6c0-0.4,0.1-0.7,0.2-1.1
	c0.1-0.3,0.3-0.6,0.5-0.9c-1-1.1-2.1-1.9-3.3-2.6s-2.5-1.2-4-1.6c-0.2,0.6-0.6,1.1-1.2,1.5s-1.2,0.6-2,0.6s-1.4-0.2-2-0.6
	c-0.6-0.4-1-0.9-1.2-1.5c-1.5,0.4-2.8,0.9-4,1.6c-1.2,0.7-2.3,1.6-3.3,2.7c0.2,0.3,0.4,0.6,0.5,0.9c0.1,0.3,0.2,0.7,0.2,1
	c0,1.1-0.4,2-1.3,2.6c-0.8,0.6-1.7,0.9-2.6,0.7c-0.2,0.6-0.4,1.3-0.5,2S9.6,23,9.6,23.8s0.1,1.5,0.2,2.2c0.1,0.7,0.3,1.4,0.5,2.1
	c0.9-0.2,1.8,0.1,2.6,0.8c0.8,0.7,1.2,1.5,1.2,2.5c0,0.4-0.1,0.8-0.2,1.1c-0.1,0.3-0.3,0.6-0.5,0.9c0.4,0.4,0.8,0.8,1.3,1.2
	C15.3,35.1,15.7,35.5,16.2,35.8z M17.5,36.6c0.5,0.2,1,0.5,1.6,0.7s1.1,0.4,1.8,0.5c0.2-0.6,0.6-1.1,1.2-1.5s1.2-0.6,2-0.6
	s1.4,0.2,2,0.6c0.6,0.4,1,0.9,1.2,1.5c0.6-0.1,1.2-0.3,1.7-0.5s1-0.4,1.5-0.6l-3.9-8.9c-0.4,0.2-0.8,0.4-1.2,0.6
	c-0.4,0.1-0.9,0.2-1.3,0.2s-0.9-0.1-1.3-0.2S22,28,21.6,27.7L17.5,36.6z"/>
</svg>
