<?xml version="1.0" encoding="utf-8"?>
<!-- Generator: Adobe Illustrator 26.3.1, SVG Export Plug-In . SVG Version: 6.00 Build 0)  -->
<svg version="1.1" id="Слой_1" xmlns="http://www.w3.org/2000/svg" xmlns:xlink="http://www.w3.org/1999/xlink" x="0px" y="0px"
	 viewBox="0 0 48 48" style="enable-background:new 0 0 48 48;" xml:space="preserve">
<path d="M22.3,36h3.5v-8.2h2.6V20c0-0.6-0.3-1.1-0.9-1.4C26.8,18.2,25.7,18,24,18s-2.8,0.2-3.4,0.5s-0.9,0.8-0.9,1.4v7.8h2.6
	C22.3,27.8,22.3,36,22.3,36z M24,42c-2.5,0-4.8-0.5-7-1.4s-4.1-2.2-5.7-3.9s-3-3.5-3.9-5.7S6,26.5,6,24s0.5-4.9,1.4-7
	c0.9-2.2,2.2-4.1,3.8-5.7s3.5-2.9,5.7-3.8C19.2,6.5,21.5,6,24,6s4.8,0.5,7,1.4s4.1,2.2,5.7,3.8c1.6,1.6,2.9,3.5,3.8,5.7
	c0.9,2.2,1.4,4.5,1.4,7s-0.5,4.8-1.4,7s-2.2,4.1-3.8,5.7s-3.5,2.9-5.7,3.8C28.8,41.5,26.5,42,24,42z M24,16.5c0.6,0,1.1-0.2,1.6-0.7
	c0.4-0.4,0.6-1,0.6-1.6s-0.2-1.1-0.7-1.6c-0.4-0.4-1-0.6-1.6-0.6s-1.1,0.2-1.6,0.7c-0.4,0.4-0.6,1-0.6,1.6s0.2,1.1,0.7,1.6
	C22.9,16.3,23.4,16.5,24,16.5z"/>
</svg>
