<?xml version="1.0" encoding="utf-8"?>
<!-- Generator: Adobe Illustrator 26.3.1, SVG Export Plug-In . SVG Version: 6.00 Build 0)  -->
<svg version="1.1" id="Слой_1" xmlns="http://www.w3.org/2000/svg" xmlns:xlink="http://www.w3.org/1999/xlink" x="0px" y="0px"
	 viewBox="0 0 48 48" style="enable-background:new 0 0 48 48;" xml:space="preserve">
<path d="M4.7,30.8V20c0-0.7,0.3-1.4,0.8-1.9c0.6-0.6,1.2-0.8,1.9-0.8h3.9c0.7,0,1.4,0.3,1.9,0.8c0.6,0.6,0.8,1.2,0.8,1.9v10.8h-1.5
	v-4H6.2v4H4.7z M6.2,25.2h6.4V20c0-0.4-0.1-0.7-0.3-0.9c-0.2-0.2-0.5-0.3-0.9-0.3H7.5c-0.4,0-0.7,0.1-0.9,0.3
	c-0.2,0.2-0.3,0.5-0.3,0.9C6.2,20,6.2,25.2,6.2,25.2z M19.4,30.8V17.2h6.8c0.8,0,1.4,0.3,1.9,0.8c0.5,0.6,0.8,1.2,0.8,1.9v8
	c0,0.7-0.3,1.4-0.8,1.9c-0.6,0.6-1.2,0.8-1.9,0.8h-6.8V30.8z M20.9,29.2h5.2c0.4,0,0.7-0.1,0.9-0.3c0.2-0.2,0.3-0.5,0.3-0.9v-8
	c0-0.4-0.1-0.7-0.3-0.9c-0.2-0.2-0.5-0.3-0.9-0.3h-5.2C20.9,18.8,20.9,29.2,20.9,29.2z M34.9,27.9l-1.1-1.1c0.4-0.4,0.7-0.8,0.9-1.3
	s0.3-1,0.3-1.6s-0.1-1.2-0.3-1.6c-0.2-0.5-0.5-0.9-0.9-1.3l1.1-1.1c0.5,0.5,0.9,1.1,1.2,1.8c0.3,0.7,0.4,1.4,0.4,2.2
	c0,0.8-0.1,1.5-0.4,2.2S35.4,27.4,34.9,27.9z M39.7,32.8l-1.1-1.2c1-1,1.8-2.1,2.3-3.4c0.6-1.3,0.9-2.7,0.9-4.2
	c0-1.5-0.3-2.9-0.9-4.2c-0.6-1.3-1.3-2.4-2.3-3.4l1.1-1.2c1.1,1.1,2,2.4,2.7,3.9c0.6,1.5,1,3.1,1,4.8s-0.3,3.4-1,4.9
	C41.7,30.4,40.8,31.7,39.7,32.8z"/>
</svg>
