<?xml version="1.0" encoding="utf-8"?>
<!-- Generator: Adobe Illustrator 26.3.1, SVG Export Plug-In . SVG Version: 6.00 Build 0)  -->
<svg version="1.1" id="Слой_1" xmlns="http://www.w3.org/2000/svg" xmlns:xlink="http://www.w3.org/1999/xlink" x="0px" y="0px"
	 viewBox="0 0 48 48" style="enable-background:new 0 0 48 48;" xml:space="preserve">
<path d="M16.4,14.5l-1.3-2.8l-2.8-1.3l2.8-1.3l1.3-2.8l1.3,2.8l2.7,1.3l-2.7,1.3L16.4,14.5z M29.6,20.5l-1-2l-2.1-1l2.1-1l1-2.1
	l1,2.1l2,1l-2,1L29.6,20.5z M7.1,24.5l-1-2l-2.1-1l2.1-1l1-2.1L8,20.5l2.1,1l-2.1,1L7.1,24.5z M8.1,39.6L7,38.5l13.6-13.6l8,8
	l14.3-16.3l1.1,1L28.7,35.2l-8.1-8L8.1,39.6z"/>
</svg>
