<?xml version="1.0" encoding="utf-8"?>
<!-- Generator: Adobe Illustrator 26.3.1, SVG Export Plug-In . SVG Version: 6.00 Build 0)  -->
<svg version="1.1" id="Слой_1" xmlns="http://www.w3.org/2000/svg" xmlns:xlink="http://www.w3.org/1999/xlink" x="0px" y="0px"
	 viewBox="0 0 48 48" style="enable-background:new 0 0 48 48;" xml:space="preserve">
<path d="M5.9,40v-1.5h4.3V8H26v2.1h5.9v16.8h-1.5V11.6H26V40H5.9z M20.2,25.5c0.4,0,0.8-0.2,1.1-0.5s0.4-0.7,0.4-1.1
	s-0.1-0.8-0.4-1.1c-0.3-0.3-0.7-0.5-1.1-0.5s-0.8,0.2-1.1,0.5c-0.3,0.3-0.5,0.7-0.5,1.1s0.2,0.8,0.5,1.1
	C19.4,25.4,19.8,25.5,20.2,25.5z M36.3,42.1l1.7-4l4-1.8l-4-1.8l-1.7-3.8l-1.7,3.8l-4,1.8l4,1.8L36.3,42.1z"/>
</svg>
