<?xml version="1.0" encoding="utf-8"?>
<!-- Generator: Adobe Illustrator 26.3.1, SVG Export Plug-In . SVG Version: 6.00 Build 0)  -->
<svg version="1.1" id="Слой_1" xmlns="http://www.w3.org/2000/svg" xmlns:xlink="http://www.w3.org/1999/xlink" x="0px" y="0px"
	 viewBox="0 0 48 48" style="enable-background:new 0 0 48 48;" xml:space="preserve">
<path d="M11.6,40.5c-1.1,0-2-0.4-2.8-1.2s-1.2-1.7-1.2-2.8c0-1,0.3-1.8,0.9-2.5s1.4-1.2,2.3-1.4v-17c-0.9-0.2-1.7-0.7-2.3-1.4
	s-0.9-1.6-0.9-2.6c0-1.1,0.4-2,1.2-2.8s1.7-1.2,2.8-1.2c1,0,1.8,0.3,2.6,0.9c0.7,0.6,1.2,1.4,1.4,2.3h17c0.2-0.9,0.7-1.7,1.4-2.3
	s1.6-0.9,2.5-0.9c1.1,0,2,0.4,2.8,1.2s1.2,1.7,1.2,2.8c0,1-0.3,1.8-0.9,2.6c-0.6,0.7-1.4,1.2-2.3,1.4v17c0.9,0.2,1.7,0.7,2.3,1.4
	s0.9,1.6,0.9,2.5c0,1.1-0.4,2-1.2,2.8s-1.7,1.2-2.8,1.2c-1,0-1.8-0.3-2.5-0.9c-0.7-0.6-1.2-1.4-1.4-2.3h-17
	c-0.2,0.9-0.7,1.7-1.4,2.3C13.4,40.1,12.5,40.5,11.6,40.5z M15.5,35.7h17c0.2-0.8,0.5-1.5,1.1-2.1s1.3-1,2.1-1.1v-17
	c-0.8-0.2-1.5-0.5-2.1-1.1s-1-1.3-1.1-2.1h-17c-0.2,0.8-0.5,1.5-1.1,2.1s-1.3,1-2.1,1.1v17c0.8,0.2,1.5,0.5,2.1,1.1
	S15.3,34.9,15.5,35.7z M24,29.2l-1.5-3.7l-3.8-1.6l3.8-1.6l1.5-3.6l1.5,3.6l3.8,1.6l-3.8,1.6L24,29.2z"/>
</svg>
