<?xml version="1.0" encoding="utf-8"?>
<!-- Generator: Adobe Illustrator 26.3.1, SVG Export Plug-In . SVG Version: 6.00 Build 0)  -->
<svg version="1.1" id="Слой_1" xmlns="http://www.w3.org/2000/svg" xmlns:xlink="http://www.w3.org/1999/xlink" x="0px" y="0px"
	 viewBox="0 0 48 48" style="enable-background:new 0 0 48 48;" xml:space="preserve">
<path d="M8.5,40c-1.3,0-2.5-0.5-3.4-1.4s-1.4-2.1-1.4-3.4c0-1.2,0.4-2.2,1.1-3.1c0.8-0.9,1.7-1.4,2.9-1.6v-13
	c-1.1-0.2-2.1-0.7-2.9-1.6C4.1,15,3.7,14,3.7,12.8c0-1.3,0.5-2.5,1.4-3.4C6,8.5,7.2,8,8.5,8s2.5,0.5,3.4,1.4s1.4,2.1,1.4,3.4
	c0,1.2-0.4,2.2-1.1,3.1c-0.8,0.9-1.7,1.4-2.9,1.6v5.7h14v-5.7c-1.1-0.2-2.1-0.7-2.9-1.6s-1.1-1.9-1.1-3.1c0-1.3,0.5-2.5,1.4-3.4
	C21.5,8.5,22.7,8,24,8s2.5,0.5,3.4,1.4s1.4,2.1,1.4,3.4c0,1.2-0.4,2.2-1.1,3.1c-0.8,0.9-1.7,1.4-2.9,1.6v5.7h10.8
	c0.9,0,1.7-0.3,2.3-1c0.6-0.6,0.9-1.4,0.9-2.3v-2.5c-1.1-0.2-2.1-0.7-2.9-1.6c-0.8-0.9-1.1-1.9-1.1-3.1c0-1.3,0.5-2.5,1.4-3.4
	c0.9-0.8,2-1.3,3.3-1.3s2.5,0.5,3.4,1.4s1.4,2.1,1.4,3.4c0,1.2-0.4,2.2-1.1,3.1c-0.8,0.9-1.7,1.4-2.9,1.6V20c0,1.3-0.5,2.5-1.4,3.4
	s-2.1,1.4-3.4,1.4H24.8v5.7c1.1,0.2,2.1,0.7,2.9,1.6c0.8,0.9,1.1,1.9,1.1,3.1c0,1.3-0.5,2.5-1.4,3.4S25.3,40,24,40s-2.5-0.5-3.4-1.4
	s-1.4-2.1-1.4-3.4c0-1.2,0.4-2.2,1.1-3.1c0.8-0.9,1.7-1.4,2.9-1.6v-5.7h-14v5.7c1.1,0.2,2.1,0.7,2.9,1.6c0.8,0.9,1.1,1.9,1.1,3.1
	c0,1.3-0.5,2.5-1.4,3.4C11,39.5,9.8,40,8.5,40z"/>
</svg>
