<?xml version="1.0" encoding="utf-8"?>
<!-- Generator: Adobe Illustrator 26.3.1, SVG Export Plug-In . SVG Version: 6.00 Build 0)  -->
<svg version="1.1" id="Слой_1" xmlns="http://www.w3.org/2000/svg" xmlns:xlink="http://www.w3.org/1999/xlink" x="0px" y="0px"
	 viewBox="0 0 48 48" style="enable-background:new 0 0 48 48;" xml:space="preserve">
<path d="M20.2,30.8V17.2L30.8,24L20.2,30.8z M24.2,44c-4.1,0-7.7-1.1-11-3.2s-5.8-5.1-7.7-9V40H4V29.2h10.7v1.5h-8
	c1.6,3.6,4,6.5,7.1,8.6c3.1,2.1,6.5,3.1,10.4,3.1c4.1,0,7.7-1.2,10.9-3.6c3.2-2.4,5.4-5.6,6.6-9.5l1.5,0.3
	c-1.2,4.3-3.6,7.8-7.1,10.4C32.6,42.7,28.6,44,24.2,44z M4.1,22c0.3-2.1,0.7-3.9,1.4-5.6c0.7-1.6,1.7-3.3,3-5l1.2,1.1
	c-1.1,1.5-2,2.9-2.6,4.4C6.4,18.3,6,20,5.6,22H4.1z M12.4,9.7l-1.1-1.2c1.6-1.3,3.3-2.3,5.1-3s3.7-1.2,5.6-1.4v1.5
	c-1.6,0.2-3.3,0.6-4.9,1.2S14,8.5,12.4,9.7z M35.5,9.7c-1.3-1.1-2.8-2-4.5-2.7s-3.4-1.1-5-1.3V4.2c1.9,0.2,3.8,0.6,5.6,1.4
	c1.8,0.7,3.4,1.7,5,3L35.5,9.7z M42.3,22c-0.2-1.8-0.7-3.6-1.4-5.2s-1.6-3.1-2.8-4.4l1.1-1.1c1.3,1.6,2.3,3.3,3.1,5.1
	s1.3,3.7,1.4,5.6C43.8,22,42.3,22,42.3,22z"/>
</svg>
