<?xml version="1.0" encoding="utf-8"?>
<!-- Generator: Adobe Illustrator 26.3.1, SVG Export Plug-In . SVG Version: 6.00 Build 0)  -->
<svg version="1.1" id="Слой_1" xmlns="http://www.w3.org/2000/svg" xmlns:xlink="http://www.w3.org/1999/xlink" x="0px" y="0px"
	 viewBox="0 0 48 48" style="enable-background:new 0 0 48 48;" xml:space="preserve">
<path d="M39,12.8l-1.3-2.9l-3-1.4l3-1.3l1.3-3l1.3,2.9l3,1.4l-3,1.4L39,12.8z M28.6,24.1L23.4,19l3.5-3.4c0.3-0.3,0.7-0.5,1.1-0.5
	s0.8,0.1,1.1,0.5l3,3c0.3,0.3,0.4,0.7,0.4,1.1s-0.2,0.8-0.4,1.1L28.6,24.1z M39.6,42.3L25,27.7L11.7,41c-0.3,0.3-0.6,0.4-1.1,0.4
	s-0.7-0.2-1-0.4l-3-3c-0.3-0.3-0.5-0.7-0.5-1.1c0-0.4,0.2-0.7,0.5-1l13.3-13.2L5.5,8.2l1.1-1.1l34.1,34.1L39.6,42.3z"/>
</svg>
