<?xml version="1.0" encoding="utf-8"?>
<!-- Generator: Adobe Illustrator 26.3.1, SVG Export Plug-In . SVG Version: 6.00 Build 0)  -->
<svg version="1.1" id="Слой_1" xmlns="http://www.w3.org/2000/svg" xmlns:xlink="http://www.w3.org/1999/xlink" x="0px" y="0px"
	 viewBox="0 0 48 48" style="enable-background:new 0 0 48 48;" xml:space="preserve">
<path d="M12,18.5l-1.4-3.1L7.4,14l3.2-1.4L12,9.4l1.4,3.2l3.1,1.4l-3.1,1.4L12,18.5z M35,12.5l-0.8-1.8L32.5,10l1.8-0.8L35,7.4
	l0.8,1.8l1.8,0.8l-1.8,0.8L35,12.5z M38.1,20.5l-0.8-1.8L35.5,18l1.8-0.8l0.8-1.8l0.8,1.8l1.7,0.8l-1.7,0.8L38.1,20.5z M24,27.5
	c-1,0-1.9-0.4-2.5-1c-0.7-0.7-1-1.6-1-2.6V11.6c0-1,0.3-1.8,1-2.5C22.2,8.3,23,8,24,8s1.8,0.3,2.5,1s1,1.5,1,2.5v12.2
	c0,1-0.3,1.9-1,2.6C25.9,27.1,25,27.5,24,27.5z M23.2,43v-7.3c-3.2-0.2-5.8-1.5-8-3.8s-3.2-5-3.2-8.1h1.6c0,2.9,1,5.4,3.1,7.4
	s4.5,3,7.4,3s5.3-1,7.4-3s3.1-4.4,3.1-7.4H36c0,3.1-1.1,5.8-3.2,8.1s-4.8,3.5-8,3.8V43H23.2z"/>
</svg>
