<?xml version="1.0" encoding="utf-8"?>
<!-- Generator: Adobe Illustrator 26.3.1, SVG Export Plug-In . SVG Version: 6.00 Build 0)  -->
<svg version="1.1" id="Слой_1" xmlns="http://www.w3.org/2000/svg" xmlns:xlink="http://www.w3.org/1999/xlink" x="0px" y="0px"
	 viewBox="0 0 48 48" style="enable-background:new 0 0 48 48;" xml:space="preserve">
<path d="M17.7,8.5h12.2v1.3h7.7v1.5h-2.1v8.9c-0.3-0.1-0.5-0.1-0.9-0.1c-0.3,0-0.7,0-1,0c-0.8,0-1.8,0.1-2.8,0.3
	c-1,0.2-1.9,0.5-2.6,0.9v-5.8h-1.5V22c-1.3,0.8-2.4,1.8-3.5,3.2c-1.1,1.3-1.9,2.7-2.4,4.1V15.4h-1.5v18.9h0.8c0,0.9,0.2,1.9,0.5,2.9
	s0.6,2,1,2.8h-6.9c-0.8,0-1.4-0.3-2-0.8c-0.5-0.5-0.8-1.2-0.8-2V11.3h-2V9.8h7.8V8.5z M33.7,23.8c2.8,0,5.1,1,7,2.9s2.9,4.3,2.9,7.1
	s-1,5.1-2.9,7s-4.3,2.9-7.1,2.9s-5.1-1-7-2.9s-2.9-4.3-2.9-7c0-2.8,1-5.1,2.9-7.1C28.6,24.8,31,23.8,33.7,23.8z M32.9,28v6.1
	l4.1,4.1l1.1-1.1l-3.6-3.6V28H32.9z"/>
</svg>
