<?xml version="1.0" encoding="utf-8"?>
<!-- Generator: Adobe Illustrator 26.3.1, SVG Export Plug-In . SVG Version: 6.00 Build 0)  -->
<svg version="1.1" id="Слой_1" xmlns="http://www.w3.org/2000/svg" xmlns:xlink="http://www.w3.org/1999/xlink" x="0px" y="0px"
	 viewBox="0 0 48 48" style="enable-background:new 0 0 48 48;" xml:space="preserve">
<path d="M9.7,38c-0.8,0-1.4-0.3-2-0.8C7.2,36.7,7,36,7,35.2V12.8c0-0.8,0.3-1.4,0.8-2S9,10,9.7,10h22.5c0.8,0,1.4,0.3,2,0.8
	c0.5,0.5,0.8,1.2,0.8,2v10.1l6.1-6.1v14.4L35,25.1v10.1c0,0.8-0.3,1.4-0.8,2c-0.5,0.5-1.2,0.8-2,0.8H9.7z M21,29.7l1.7-4l4-1.8
	l-4-1.8L21,18.3l-1.7,3.9l-4,1.8l4,1.8L21,29.7z"/>
</svg>
