<?xml version="1.0" encoding="utf-8"?>
<!-- Generator: Adobe Illustrator 26.3.1, SVG Export Plug-In . SVG Version: 6.00 Build 0)  -->
<svg version="1.1" id="Слой_1" xmlns="http://www.w3.org/2000/svg" xmlns:xlink="http://www.w3.org/1999/xlink" x="0px" y="0px"
	 viewBox="0 0 48 48" style="enable-background:new 0 0 48 48;" xml:space="preserve">
<path d="M6.8,38c-0.8,0-1.4-0.3-2-0.8C4.3,36.7,4,36,4,35.2V12.8c0-0.8,0.3-1.4,0.8-2C5.3,10.3,6,10,6.8,10h34.5
	c0.8,0,1.4,0.3,2,0.8c0.5,0.5,0.8,1.2,0.8,2v22.5c0,0.8-0.3,1.4-0.8,2c-0.5,0.5-1.2,0.8-2,0.8L6.8,38L6.8,38z M10.5,29.5H12V26h5
	v3.5h1.5V21c0-0.7-0.2-1.2-0.7-1.7s-1-0.7-1.7-0.7h-3.3c-0.7,0-1.2,0.2-1.7,0.7s-0.7,1-0.7,1.7C10.5,20.9,10.5,29.5,10.5,29.5z
	 M12.1,24.4v-3.7c0-0.2,0.1-0.3,0.2-0.4c0.1-0.1,0.3-0.2,0.4-0.2h3.8c0.2,0,0.3,0.1,0.4,0.2s0.2,0.3,0.2,0.4v3.7H12.1z M24.5,29.5
	h2.3l3.2-11h-1.6l-2.7,9.6L23,18.5h-1.6L24.5,29.5z M35.9,29.5h1.5v-11H33V20h2.9V29.5z"/>
</svg>
