<?xml version="1.0" encoding="utf-8"?>
<!-- Generator: Adobe Illustrator 26.3.1, SVG Export Plug-In . SVG Version: 6.00 Build 0)  -->
<svg version="1.1" id="Слой_1" xmlns="http://www.w3.org/2000/svg" xmlns:xlink="http://www.w3.org/1999/xlink" x="0px" y="0px"
	 viewBox="0 0 48 48" style="enable-background:new 0 0 48 48;" xml:space="preserve">
<path d="M6.8,38c-0.8,0-1.4-0.3-2-0.8C4.3,36.7,4,36,4,35.2V12.8c0-0.8,0.3-1.4,0.8-2C5.3,10.3,6,10,6.8,10h34.5
	c0.8,0,1.4,0.3,2,0.8c0.5,0.5,0.8,1.2,0.8,2v22.5c0,0.8-0.3,1.4-0.8,2c-0.5,0.5-1.2,0.8-2,0.8L6.8,38L6.8,38z M10.5,29.5H12V26h4.5
	v3.5H18V21c0-0.7-0.2-1.2-0.7-1.7s-1-0.7-1.7-0.7h-2.8c-0.7,0-1.2,0.2-1.7,0.7s-0.7,1-0.7,1.7C10.5,20.9,10.5,29.5,10.5,29.5z
	 M12.1,24.4v-3.7c0-0.2,0.1-0.3,0.2-0.4c0.1-0.1,0.3-0.2,0.4-0.2h3.2c0.2,0,0.3,0.1,0.4,0.2s0.2,0.3,0.2,0.4v3.7H12.1z M22.9,29.5
	h2.4l3.2-10.9h-1.6l-2.8,9.6l-2.6-9.6h-1.6C19.9,18.5,22.9,29.5,22.9,29.5z M32.3,29.5h2.8c0.7,0,1.2-0.2,1.7-0.7s0.7-1,0.7-1.7
	v-0.4H36v0.6c0,0.2-0.1,0.3-0.2,0.4c-0.1,0.1-0.3,0.2-0.4,0.2h-3.2c-0.2,0-0.3-0.1-0.4-0.2s-0.2-0.3-0.2-0.4v-6.6
	c0-0.2,0.1-0.3,0.2-0.4s0.3-0.2,0.4-0.2h3.2c0.2,0,0.3,0.1,0.4,0.2c0.1,0.1,0.2,0.3,0.2,0.4v0.7h1.5V21c0-0.7-0.2-1.2-0.7-1.7
	s-1-0.7-1.7-0.7h-2.8c-0.7,0-1.2,0.2-1.7,0.7s-0.7,1-0.7,1.7v6.1c0,0.7,0.2,1.2,0.7,1.7C31.1,29.2,31.6,29.5,32.3,29.5z"/>
</svg>
