<?xml version="1.0" encoding="utf-8"?>
<!-- Generator: Adobe Illustrator 26.3.1, SVG Export Plug-In . SVG Version: 6.00 Build 0)  -->
<svg version="1.1" id="Слой_1" xmlns="http://www.w3.org/2000/svg" xmlns:xlink="http://www.w3.org/1999/xlink" x="0px" y="0px"
	 viewBox="0 0 48 48" style="enable-background:new 0 0 48 48;" xml:space="preserve">
<path d="M18.8,4.5V3h10.5v1.5H18.8z M20,32.3l-3.3-6.6c-0.1-0.1-0.1-0.2-0.3-0.3c-0.1-0.1-0.3-0.1-0.4-0.1H8
	c0.2-4.3,1.8-7.9,4.9-10.8C16,11.5,19.7,10,24,10c2,0,4,0.4,5.8,1.1c1.8,0.7,3.5,1.7,4.9,3l2.1-2l1.1,1.1l-2.1,2.1
	c1.2,1.3,2.1,2.8,2.9,4.4c0.8,1.7,1.2,3.5,1.3,5.6h-7.5l-3.8-7.6c-0.1-0.3-0.4-0.4-0.7-0.4c-0.3,0-0.5,0.1-0.7,0.4L20,32.3z M24,42
	c-4.3,0-8-1.5-11.1-4.4C9.8,34.6,8.2,31,8,26.8h7.5l3.8,7.6c0.1,0.3,0.4,0.5,0.7,0.5c0.3,0,0.5-0.1,0.7-0.4L28,19.7l3.3,6.6
	c0.1,0.1,0.1,0.2,0.3,0.3c0.1,0.1,0.3,0.1,0.4,0.1h8c-0.2,4.3-1.8,7.9-4.9,10.8C32,40.5,28.3,42,24,42z"/>
</svg>
