<?xml version="1.0" encoding="utf-8"?>
<!-- Generator: Adobe Illustrator 26.3.1, SVG Export Plug-In . SVG Version: 6.00 Build 0)  -->
<svg version="1.1" id="Слой_1" xmlns="http://www.w3.org/2000/svg" xmlns:xlink="http://www.w3.org/1999/xlink" x="0px" y="0px"
	 viewBox="0 0 48 48" style="enable-background:new 0 0 48 48;" xml:space="preserve">
<path d="M7,43V25.2l3.1-9.1c0.2-0.6,0.5-1.1,1-1.4c0.5-0.3,1-0.5,1.6-0.5c0.2,0,0.4,0,0.6,0.1c0.2,0,0.4,0.1,0.6,0.2l8.6,3.7h4.1
	v1.5H22L15.6,17l-3.1,9.3V43H7z M19.2,33.8v-1.5H41v1.5H19.2z M37.4,30c-0.7,0-1.2-0.2-1.7-0.7s-0.7-1-0.7-1.7s0.2-1.2,0.7-1.7
	s1-0.7,1.7-0.7s1.2,0.2,1.7,0.7s0.7,1,0.7,1.7s-0.2,1.2-0.7,1.7C38.6,29.8,38.1,30,37.4,30z M26,29.8c-0.7,0-1.4-0.3-1.9-0.8
	c-0.6-0.6-0.8-1.2-0.8-1.9v-3.2h-4v-1.5h4.2c0.4,0,0.7,0.1,1,0.4s0.4,0.6,0.4,1v2.6h6.9v-4h1.5V27c0,0.7-0.3,1.4-0.8,1.9
	c-0.6,0.6-1.2,0.8-1.9,0.8H26V29.8z M15.5,10.5c-0.9,0-1.7-0.3-2.3-0.9c-0.6-0.6-0.9-1.4-0.9-2.3s0.3-1.7,0.9-2.3
	c0.6-0.7,1.3-1,2.2-1s1.7,0.3,2.3,0.9c0.6,0.6,1,1.4,1,2.3s-0.3,1.7-0.9,2.3C17.1,10.1,16.3,10.5,15.5,10.5z"/>
</svg>
