<?xml version="1.0" encoding="utf-8"?>
<!-- Generator: Adobe Illustrator 26.3.1, SVG Export Plug-In . SVG Version: 6.00 Build 0)  -->
<svg version="1.1" id="Слой_1" xmlns="http://www.w3.org/2000/svg" xmlns:xlink="http://www.w3.org/1999/xlink" x="0px" y="0px"
	 viewBox="0 0 48 48" style="enable-background:new 0 0 48 48;" xml:space="preserve">
<path d="M8.1,19.3v-2.5L18.5,6.5H21L8.1,19.3z M8,11.9V9.2l2.8-2.8h2.7L8,11.9z M30,12.4c-0.2-0.2-0.5-0.4-0.7-0.6
	c-0.3-0.2-0.5-0.3-0.8-0.5l4.9-4.9H36L30,12.4z M9.2,30.8l6.2-6.2c0.2,0.3,0.3,0.5,0.4,0.8c0.1,0.2,0.3,0.4,0.5,0.6L13,29
	c-0.5,0.2-1.1,0.5-1.8,0.8C10.6,30,9.9,30.4,9.2,30.8z M33.2,16.7L33.2,16.7C33.2,16.8,33.2,16.8,33.2,16.7
	c-0.1-0.2-0.2-0.5-0.3-0.8s-0.3-0.6-0.4-0.9L40,7.5V10L33.2,16.7z M21.9,10.6L26,6.5h2.5l-3.9,4c-0.2-0.1-0.3-0.1-0.5-0.1
	s-0.3,0-0.5,0c-0.3,0-0.5,0.1-0.9,0.1C22.4,10.4,22.1,10.5,21.9,10.6z M8,27v-2.5l6.6-6.6c-0.1,0.3-0.1,0.6-0.2,0.8
	c-0.1,0.3-0.1,0.5-0.1,0.8c0,0.2,0,0.4,0,0.5c0,0.2,0.1,0.3,0.2,0.5L8,27z M36,29.1c-0.3-0.1-0.6-0.2-0.9-0.3
	c-0.3-0.1-0.6-0.2-1-0.3l5.9-5.9v2.5C40,25.1,36,29.1,36,29.1z M32,25.6c0-0.3,0-0.5,0-0.7s0-0.4-0.1-0.7c0.5-0.5,0.9-1,1.2-1.5
	c0.3-0.6,0.6-1.1,0.9-1.7l6-6v2.6L32,25.6z M24,26c-1.7,0-3.1-0.6-4.2-1.8C18.6,23.1,18,21.7,18,20s0.6-3.1,1.8-4.2
	C21,14.6,22.4,14,24,14c1.7,0,3.1,0.6,4.2,1.8C29.4,17,30,18.4,30,20s-0.6,3.1-1.8,4.2C27.1,25.4,25.7,26,24,26z M10,40v-2.8
	c0-0.9,0.3-1.7,0.8-2.4s1.1-1.2,1.9-1.6c1.8-0.9,3.6-1.5,5.5-2c1.9-0.5,3.9-0.7,5.8-0.7s3.9,0.2,5.8,0.7s3.8,1.1,5.5,2
	c0.7,0.4,1.4,0.9,1.9,1.6c0.5,0.7,0.8,1.5,0.8,2.4V40H10z"/>
</svg>
