<?xml version="1.0" encoding="utf-8"?>
<!-- Generator: Adobe Illustrator 26.3.1, SVG Export Plug-In . SVG Version: 6.00 Build 0)  -->
<svg version="1.1" id="Слой_1" xmlns="http://www.w3.org/2000/svg" xmlns:xlink="http://www.w3.org/1999/xlink" x="0px" y="0px"
	 viewBox="0 0 48 48" style="enable-background:new 0 0 48 48;" xml:space="preserve">
<path d="M10.8,40h4.1v-6.9H8v4.1c0,0.7,0.3,1.4,0.8,1.9C9.4,39.7,10,40,10.8,40z M16.4,40h6.8v-6.9h-6.8C16.4,33.1,16.4,40,16.4,40z
	 M24.8,40h6.9v-6.9h-6.9V40z M33.2,40h4.1c0.7,0,1.4-0.3,1.9-0.8c0.6-0.6,0.8-1.2,0.8-1.9v-4.1h-6.8V40z M8,14.8h6.9V8h-4.1
	c-0.8,0-1.4,0.3-2,0.8C8.3,9.4,8,10,8,10.8V14.8z M8,23.2h6.9v-6.9H8V23.2z M8,31.6h6.9v-6.8H8V31.6z M16.4,14.8h6.8V8h-6.8
	C16.4,8,16.4,14.8,16.4,14.8z M16.4,23.2h6.8v-6.9h-6.8C16.4,16.4,16.4,23.2,16.4,23.2z M16.4,31.6h6.8v-6.8h-6.8
	C16.4,24.8,16.4,31.6,16.4,31.6z M24.8,14.8h6.9V8h-6.9V14.8z M24.8,23.2h6.9v-6.9h-6.9V23.2z M24.8,31.6h6.9v-6.8h-6.9V31.6z
	 M33.2,14.8H40v-4.1c0-0.7-0.3-1.4-0.8-1.9C38.6,8.3,38,8,37.2,8h-4.1C33.2,8,33.2,14.8,33.2,14.8z M33.2,23.2H40v-6.9h-6.8V23.2z
	 M33.2,31.6H40v-6.8h-6.8V31.6z"/>
</svg>
