<?xml version="1.0" encoding="utf-8"?>
<!-- Generator: Adobe Illustrator 26.3.1, SVG Export Plug-In . SVG Version: 6.00 Build 0)  -->
<svg version="1.1" id="Слой_1" xmlns="http://www.w3.org/2000/svg" xmlns:xlink="http://www.w3.org/1999/xlink" x="0px" y="0px"
	 viewBox="0 0 48 48" style="enable-background:new 0 0 48 48;" xml:space="preserve">
<path d="M12.8,42c-0.8,0-1.4-0.3-1.9-0.8s-0.8-1.1-0.8-1.9V16.6c0-1.7,0.6-3.1,1.7-4.4s2.6-2,4.3-2.2V6h3.5v4h8.9V6H32v4
	c1.7,0.2,3.2,0.9,4.3,2.2c1.1,1.2,1.7,2.7,1.7,4.4v22.8c0,0.7-0.3,1.4-0.8,1.9c-0.6,0.4-1.2,0.7-2,0.7H12.8z M31.2,30.9h1.5v-5.4
	H15.3V27h15.8v3.9H31.2z"/>
</svg>
