<?xml version="1.0" encoding="utf-8"?>
<!-- Generator: Adobe Illustrator 26.3.1, SVG Export Plug-In . SVG Version: 6.00 Build 0)  -->
<svg version="1.1" id="Слой_1" xmlns="http://www.w3.org/2000/svg" xmlns:xlink="http://www.w3.org/1999/xlink" x="0px" y="0px"
	 viewBox="0 0 48 48" style="enable-background:new 0 0 48 48;" xml:space="preserve">
<path d="M6,29c-0.3,0-0.5-0.1-0.7-0.3C5.1,28.5,5,28.3,5,28s0.1-0.5,0.3-0.7C5.5,27,5.7,26.9,6,26.9s0.5,0.1,0.8,0.3
	C7,27.4,7.1,27.7,7.1,28S7,28.5,6.8,28.7C6.6,28.9,6.3,29,6,29z M6,21.1c-0.3,0-0.5-0.1-0.7-0.3C5.1,20.6,5,20.3,5,20
	s0.1-0.5,0.3-0.7C5.5,19.1,5.7,19,6,19s0.5,0.1,0.8,0.3C7,19.5,7.1,19.7,7.1,20S7,20.5,6.8,20.7C6.6,21,6.3,21.1,6,21.1z M12,37.6
	c-0.5,0-0.8-0.2-1.2-0.5c-0.3-0.3-0.5-0.7-0.5-1.2s0.2-0.8,0.5-1.2c0.3-0.3,0.7-0.5,1.2-0.5s0.8,0.2,1.2,0.5
	c0.3,0.3,0.5,0.7,0.5,1.2s-0.2,0.8-0.5,1.2S12.5,37.6,12,37.6z M12,29.6c-0.5,0-0.8-0.2-1.2-0.5c-0.3-0.3-0.5-0.7-0.5-1.2
	s0.2-0.8,0.5-1.2c0.3-0.3,0.7-0.5,1.2-0.5s0.8,0.2,1.2,0.5c0.3,0.3,0.5,0.7,0.5,1.2s-0.2,0.9-0.5,1.2C12.9,29.4,12.5,29.6,12,29.6z
	 M12,21.7c-0.5,0-0.8-0.2-1.2-0.5c-0.3-0.3-0.5-0.7-0.5-1.2s0.2-0.9,0.5-1.2c0.3-0.3,0.7-0.5,1.2-0.5s0.8,0.2,1.2,0.5
	c0.3,0.3,0.5,0.7,0.5,1.2s-0.2,0.8-0.5,1.2C12.9,21.5,12.5,21.7,12,21.7z M12,13.6c-0.5,0-0.8-0.2-1.2-0.5c-0.3-0.3-0.5-0.7-0.5-1.2
	s0.2-0.8,0.5-1.2c0.3-0.3,0.7-0.5,1.2-0.5s0.8,0.2,1.2,0.5c0.3,0.3,0.5,0.7,0.5,1.2s-0.2,0.8-0.5,1.2S12.5,13.6,12,13.6z M20.1,37.6
	c-0.5,0-0.9-0.2-1.2-0.5c-0.3-0.3-0.5-0.7-0.5-1.2s0.2-0.8,0.5-1.2c0.3-0.3,0.7-0.5,1.2-0.5s0.8,0.2,1.2,0.5
	c0.3,0.3,0.5,0.7,0.5,1.2s-0.2,0.8-0.5,1.2C20.9,37.5,20.5,37.6,20.1,37.6z M20.1,13.6c-0.5,0-0.9-0.2-1.2-0.5
	c-0.3-0.3-0.5-0.7-0.5-1.2s0.2-0.8,0.5-1.2c0.3-0.3,0.7-0.5,1.2-0.5s0.8,0.2,1.2,0.5c0.3,0.3,0.5,0.7,0.5,1.2s-0.2,0.8-0.5,1.2
	C20.9,13.5,20.5,13.6,20.1,13.6z M20.1,43c-0.3,0-0.6-0.1-0.8-0.3C19.1,42.5,19,42.3,19,42s0.1-0.5,0.3-0.7c0.2-0.2,0.4-0.3,0.8-0.3
	c0.3,0,0.5,0.1,0.7,0.3s0.3,0.4,0.3,0.7s-0.1,0.5-0.3,0.7S20.3,43,20.1,43z M20.1,7.1c-0.3,0-0.6-0.1-0.8-0.3C19.1,6.6,19,6.3,19,6
	s0.1-0.5,0.3-0.7C19.5,5.1,19.8,5,20.1,5c0.3,0,0.5,0.1,0.7,0.3C21,5.5,21.1,5.7,21.1,6S21,6.5,20.8,6.7C20.6,7,20.3,7.1,20.1,7.1z
	 M27.9,37.6c-0.5,0-0.8-0.2-1.2-0.5c-0.3-0.3-0.5-0.7-0.5-1.2s0.2-0.8,0.5-1.2c0.3-0.3,0.7-0.5,1.2-0.5s0.9,0.2,1.2,0.5
	c0.3,0.3,0.5,0.7,0.5,1.2s-0.2,0.8-0.5,1.2C28.8,37.5,28.4,37.6,27.9,37.6z M27.9,13.6c-0.5,0-0.8-0.2-1.2-0.5
	c-0.3-0.3-0.5-0.7-0.5-1.2s0.2-0.8,0.5-1.2c0.3-0.3,0.7-0.5,1.2-0.5s0.9,0.2,1.2,0.5c0.3,0.3,0.5,0.7,0.5,1.2s-0.2,0.8-0.5,1.2
	C28.8,13.5,28.4,13.6,27.9,13.6z M27.9,26.4c-0.3,0-0.5-0.1-0.7-0.3c-0.2-0.2-0.3-0.4-0.3-0.7c0-0.3,0.1-0.5,0.3-0.7
	c0.2-0.2,0.4-0.3,0.7-0.3c0.3,0,0.5,0.1,0.8,0.3c0.2,0.2,0.3,0.4,0.3,0.7c0,0.3-0.1,0.5-0.3,0.7C28.5,26.3,28.2,26.4,27.9,26.4z
	 M28.1,23.6c-0.3,0-0.5-0.1-0.7-0.3c-0.2-0.2-0.3-0.4-0.3-0.7s0.1-0.5,0.3-0.7c0.2-0.2,0.4-0.3,0.7-0.3c0.3,0,0.5,0.1,0.8,0.3
	c0.2,0.2,0.3,0.4,0.3,0.7s-0.1,0.5-0.3,0.7C28.6,23.5,28.4,23.6,28.1,23.6z M36,37.6c-0.5,0-0.8-0.2-1.2-0.5
	c-0.3-0.3-0.5-0.7-0.5-1.2s0.2-0.8,0.5-1.2c0.3-0.3,0.7-0.5,1.2-0.5s0.8,0.2,1.2,0.5c0.3,0.3,0.5,0.7,0.5,1.2s-0.2,0.8-0.5,1.2
	S36.5,37.6,36,37.6z M36,29.6c-0.5,0-0.8-0.2-1.2-0.5c-0.3-0.3-0.5-0.7-0.5-1.2s0.2-0.8,0.5-1.2c0.3-0.3,0.7-0.5,1.2-0.5
	s0.8,0.2,1.2,0.5c0.3,0.3,0.5,0.7,0.5,1.2s-0.2,0.9-0.5,1.2C36.9,29.4,36.5,29.6,36,29.6z M36,21.7c-0.5,0-0.8-0.2-1.2-0.5
	c-0.3-0.3-0.5-0.7-0.5-1.2s0.2-0.9,0.5-1.2c0.3-0.3,0.7-0.5,1.2-0.5s0.8,0.2,1.2,0.5c0.3,0.3,0.5,0.7,0.5,1.2s-0.2,0.8-0.5,1.2
	C36.9,21.5,36.5,21.7,36,21.7z M36,13.6c-0.5,0-0.8-0.2-1.2-0.5c-0.3-0.3-0.5-0.7-0.5-1.2s0.2-0.8,0.5-1.2c0.3-0.3,0.7-0.5,1.2-0.5
	s0.8,0.2,1.2,0.5c0.3,0.3,0.5,0.7,0.5,1.2s-0.2,0.8-0.5,1.2S36.5,13.6,36,13.6z M42,29c-0.3,0-0.5-0.1-0.8-0.3
	c-0.2-0.2-0.3-0.4-0.3-0.7c0-0.3,0.1-0.5,0.3-0.7S41.7,27,42,27s0.5,0.1,0.7,0.3S43,27.7,43,28s-0.1,0.5-0.3,0.7
	C42.5,28.9,42.3,29,42,29z M42,21.1c-0.3,0-0.5-0.1-0.8-0.3c-0.2-0.2-0.3-0.4-0.3-0.7c0-0.3,0.1-0.5,0.3-0.7s0.5-0.3,0.8-0.3
	s0.5,0.1,0.7,0.3c0.2,0.2,0.3,0.4,0.3,0.7c0,0.3-0.1,0.5-0.3,0.7C42.5,21,42.3,21.1,42,21.1z M17.4,30.6v-0.3c0-1.4,0.7-2.3,2.1-2.8
	s2.9-0.7,4.5-0.7s3.1,0.2,4.5,0.7c1.4,0.4,2.1,1.4,2.1,2.8v0.3H17.4z M24,23.1c-0.8,0-1.5-0.3-2-0.8c-0.6-0.5-0.8-1.2-0.8-2
	s0.3-1.5,0.8-2s1.2-0.8,2-0.8s1.5,0.3,2,0.8s0.8,1.2,0.8,2s-0.3,1.5-0.8,2C25.5,22.8,24.8,23.1,24,23.1z"/>
</svg>
