<?xml version="1.0" encoding="utf-8"?>
<!-- Generator: Adobe Illustrator 26.3.1, SVG Export Plug-In . SVG Version: 6.00 Build 0)  -->
<svg version="1.1" id="Слой_1" xmlns="http://www.w3.org/2000/svg" xmlns:xlink="http://www.w3.org/1999/xlink" x="0px" y="0px"
	 viewBox="0 0 48 48" style="enable-background:new 0 0 48 48;" xml:space="preserve">
<path d="M40,35.3L35.2,33l3.8-9.2l4.1,7.9c0.7,1.3,0.6,2.4-0.1,3.2C42.3,35.8,41.3,35.9,40,35.3z M28.9,33.9l2-16.7
	c0.1-0.8,0.4-1.4,1.1-1.6c0.6-0.3,1.3-0.2,2.1,0.1l3.5,1.4c0.7,0.3,1.2,0.7,1.4,1.2s0.2,1.3-0.2,2.2l-5.6,13.3L28.9,33.9L28.9,33.9z
	 M15.1,33.9L9.7,20.8c-0.3-0.8-0.4-1.6-0.3-2.2c0.1-0.6,0.6-1.1,1.4-1.4l3.4-1.4c0.8-0.3,1.5-0.3,2.1-0.1s1,0.7,1.1,1.4l2,16.8
	C19.4,33.9,15.1,33.9,15.1,33.9z M8.4,35.3c-1.2,0.6-2.3,0.5-3.1-0.3s-0.9-1.8-0.2-3.2l4.2-8.1l3.8,9.2L8.4,35.3z M20.9,33.9
	l-2.2-19c-0.1-0.9,0.1-1.6,0.7-2.1s1.3-0.8,2.1-0.8h5.2c1,0,1.7,0.3,2.2,0.8s0.7,1.3,0.6,2.2l-2.2,18.8h-6.4V33.9z"/>
</svg>
