<?xml version="1.0" encoding="utf-8"?>
<!-- Generator: Adobe Illustrator 26.3.1, SVG Export Plug-In . SVG Version: 6.00 Build 0)  -->
<svg version="1.1" id="Слой_1" xmlns="http://www.w3.org/2000/svg" xmlns:xlink="http://www.w3.org/1999/xlink" x="0px" y="0px"
	 viewBox="0 0 48 48" style="enable-background:new 0 0 48 48;" xml:space="preserve">
<path d="M3,41v-7.6h1.5v6.1h6.1V41H3z M37.4,41v-1.5h6.1v-6.1H45V41H37.4z M7.8,36.2V11.8h4v24.5L7.8,36.2L7.8,36.2z M13.9,36.2
	V11.8H16v24.5L13.9,36.2L13.9,36.2z M19.9,36.2V11.8H24v24.5L19.9,36.2L19.9,36.2z M26,36.2V11.8h6.1v24.5L26,36.2L26,36.2z
	 M34.1,36.2V11.8h2.1v24.5L34.1,36.2L34.1,36.2z M38.2,36.2V11.8h2v24.5L38.2,36.2L38.2,36.2z M3,14.6V7h7.6v1.5H4.5v6.1H3z
	 M43.5,14.6V8.5h-6.1V7H45v7.6H43.5z"/>
</svg>
