<?xml version="1.0" encoding="utf-8"?>
<!-- Generator: Adobe Illustrator 26.3.1, SVG Export Plug-In . SVG Version: 6.00 Build 0)  -->
<svg version="1.1" id="Слой_1" xmlns="http://www.w3.org/2000/svg" xmlns:xlink="http://www.w3.org/1999/xlink" x="0px" y="0px"
	 viewBox="0 0 48 48" style="enable-background:new 0 0 48 48;" xml:space="preserve">
<path d="M12,38.9c-1.3,0-2.4-0.5-3.2-1.6c-0.8-1-1-2.2-0.7-3.4l3.8-14.3c-1.1-0.4-2-1.1-2.8-2.1C8.4,16.5,8,15.3,8,14
	c0-1.7,0.6-3.1,1.8-4.2C10.9,8.6,12.3,8,14,8h14.8c1,0,1.8,0.4,2.3,1.3c0.5,0.9,0.6,1.8,0.1,2.7L28,18.5c-0.2,0.5-0.6,0.8-1,1.1
	c-0.5,0.3-1,0.4-1.5,0.4h-5.4l-0.8,3h0.2c0.4,0,0.7,0.2,1,0.4c0.3,0.3,0.4,0.6,0.4,1v2.8c0,0.4-0.1,0.7-0.4,1s-0.6,0.4-1,0.4h-1.6
	l-2,7.4c-0.2,0.9-0.7,1.6-1.4,2.1C13.7,38.7,12.9,38.9,12,38.9z M36.1,9l-0.6-1.3L41.3,5l0.6,1.3C41.9,6.3,36.1,9,36.1,9z M41.3,23
	l-5.9-2.6l0.6-1.3l5.8,2.6C41.9,21.7,41.3,23,41.3,23z M36.5,14.7v-1.5H43v1.5C42.9,14.7,36.5,14.7,36.5,14.7z"/>
</svg>
