<?xml version="1.0" encoding="utf-8"?>
<!-- Generator: Adobe Illustrator 26.3.1, SVG Export Plug-In . SVG Version: 6.00 Build 0)  -->
<svg version="1.1" id="Слой_1" xmlns="http://www.w3.org/2000/svg" xmlns:xlink="http://www.w3.org/1999/xlink" x="0px" y="0px"
	 viewBox="0 0 48 48" style="enable-background:new 0 0 48 48;" xml:space="preserve">
<path d="M14,40.8c-0.7,0-1.3-0.3-1.8-0.8s-0.8-1.1-0.8-1.8v-20c0-0.7,0.3-1.3,0.8-1.8s1.1-0.8,1.8-0.8h20c0.7,0,1.3,0.3,1.8,0.8
	s0.8,1.1,0.8,1.8v20c0,0.7-0.3,1.3-0.8,1.8s-1.1,0.8-1.8,0.8H14z M22.8,38.1h2.3v-1.8h-2.3V38.1z M22.8,33.8h2.5
	c0.1-1.1,0.4-2.1,0.9-2.8c0.5-0.8,1-1.5,1.5-2.2s1-1.4,1.4-2.1s0.6-1.5,0.6-2.5c0-1.6-0.6-2.9-1.7-4s-2.5-1.7-4-1.7
	c-1.6,0-2.9,0.6-4,1.7s-1.7,2.5-1.7,4c0,0.9,0.2,1.8,0.6,2.5s0.9,1.4,1.4,2.1s1,1.4,1.5,2.2C22.3,31.8,22.6,32.7,22.8,33.8z
	 M13.5,12.3c0.1-0.5,0.4-0.9,0.7-1.1c0.3-0.3,0.8-0.4,1.3-0.4h16.8c0.5,0,1,0.1,1.3,0.4c0.3,0.3,0.6,0.6,0.7,1.1H13.5z M15.6,7.5
	C15.7,7,16,6.6,16.3,6.4C16.6,6.1,17.1,6,17.6,6h12.8c0.5,0,1,0.1,1.3,0.4s0.6,0.6,0.7,1.1H15.6z"/>
</svg>
