<?xml version="1.0" encoding="utf-8"?>
<!-- Generator: Adobe Illustrator 26.3.1, SVG Export Plug-In . SVG Version: 6.00 Build 0)  -->
<svg version="1.1" id="Слой_1" xmlns="http://www.w3.org/2000/svg" xmlns:xlink="http://www.w3.org/1999/xlink" x="0px" y="0px"
	 viewBox="0 0 48 48" style="enable-background:new 0 0 48 48;" xml:space="preserve">
<path d="M11.7,24.7v1.8c-0.7,0.5-1.2,1-1.5,1.5s-0.5,1-0.5,1.6c0,0.1,0,0.2,0,0.3c0,0.1,0,0.2,0,0.3l0.9,0.2l6.4,1.1l0.3,0.9
	l2.3-0.9h6.8l1.3,1.7l5.2-0.8l1.9-2.7h3.5v-0.2c0-0.5-0.2-1.1-0.5-1.6s-0.8-1-1.5-1.5v-1.8c1.1,0.7,2,1.5,2.6,2.3s0.9,1.7,0.9,2.6
	c0,0.1,0,0.1,0,0.2s0,0.1,0,0.2l1.4,2.1l-1.6,4.8h-5.7l0.2,1.1l-4,1.6h-12l-0.5-1.3l-5.1,1.2l-5.8-4.2v-3.9l1.6-0.8
	c-0.1-0.2-0.1-0.3-0.1-0.5c0-0.1,0-0.3,0-0.5c0-0.9,0.3-1.7,0.9-2.6C9.7,26.2,10.5,25.4,11.7,24.7z M16.2,26.2
	c0.1-0.4,0.1-0.7,0.1-1s0-0.5,0-0.8c0-1.2-0.2-2.1-0.8-3c-0.5-0.8-1.1-1.7-1.7-2.5c-0.9-1.3-1.6-2.4-1.9-3.4c-0.3-1-0.5-2-0.5-3.1
	c0-0.3,0-0.7,0-1.1c0-0.4,0.1-0.8,0.2-1.2h1.5c-0.1,0.4-0.1,0.8-0.2,1.2c0,0.3,0,0.7,0,1c0,1.2,0.2,2.2,0.7,3.1
	c0.4,0.9,1,1.9,1.8,2.9c1,1.3,1.6,2.5,2,3.4c0.3,0.9,0.5,1.8,0.5,2.8c0,0.3,0,0.6,0,0.9s-0.1,0.5-0.2,0.8
	C17.7,26.2,16.2,26.2,16.2,26.2z M23.1,26.2c0.1-0.4,0.1-0.7,0.1-1s0-0.5,0-0.8c0-1.2-0.2-2.1-0.8-3c-0.5-0.8-1.1-1.7-1.7-2.5
	c-0.9-1.3-1.6-2.4-1.9-3.4s-0.5-2-0.5-3.1c0-0.3,0-0.7,0-1.1c0-0.4,0.1-0.8,0.2-1.2H20c0,0.4-0.1,0.7-0.2,1.1
	c-0.1,0.3-0.1,0.7-0.1,1.1c0,1.2,0.2,2.2,0.7,3.1c0.4,0.9,1,1.9,1.8,2.9c1,1.3,1.6,2.5,2,3.4c0.3,0.9,0.5,1.8,0.5,2.8
	c0,0.3,0,0.6,0,0.9s-0.1,0.5-0.1,0.8C24.6,26.2,23.1,26.2,23.1,26.2z M29.9,26.2c0.1-0.4,0.1-0.7,0.1-1s0-0.5,0-0.8
	c0-1.2-0.2-2.1-0.8-3c-0.5-0.8-1.1-1.7-1.7-2.5c-0.9-1.3-1.6-2.4-1.9-3.4s-0.5-2-0.5-3.1c0-0.3,0-0.7,0-1.1c0-0.4,0.1-0.8,0.2-1.2
	h1.5c0,0.4-0.1,0.7-0.2,1.1c-0.1,0.3-0.1,0.7-0.1,1.1c0,1.2,0.2,2.2,0.7,3.1c0.4,0.9,1,1.9,1.8,2.9c1,1.3,1.6,2.5,2,3.4
	c0.3,0.9,0.5,1.8,0.5,2.8c0,0.3,0,0.6,0,0.9s-0.1,0.5-0.1,0.8C31.4,26.2,29.9,26.2,29.9,26.2z"/>
</svg>
