<?xml version="1.0" encoding="utf-8"?>
<!-- Generator: Adobe Illustrator 26.3.1, SVG Export Plug-In . SVG Version: 6.00 Build 0)  -->
<svg version="1.1" id="Слой_1" xmlns="http://www.w3.org/2000/svg" xmlns:xlink="http://www.w3.org/1999/xlink" x="0px" y="0px"
	 viewBox="0 0 48 48" style="enable-background:new 0 0 48 48;" xml:space="preserve">
<path d="M17.8,35.5c0.4,0,0.8-0.1,1.1-0.4c0.3-0.3,0.4-0.7,0.4-1.1c0-0.4-0.1-0.8-0.4-1.1s-0.7-0.4-1.1-0.4s-0.8,0.1-1.1,0.4
	c-0.3,0.3-0.4,0.7-0.4,1.1s0.1,0.8,0.4,1.1C17.1,35.3,17.4,35.5,17.8,35.5z M24,35.5c0.4,0,0.8-0.1,1.1-0.4c0.3-0.3,0.4-0.7,0.4-1.1
	c0-0.4-0.1-0.8-0.4-1.1s-0.7-0.4-1.1-0.4s-0.8,0.1-1.1,0.4c-0.3,0.3-0.4,0.7-0.4,1.1s0.1,0.8,0.4,1.1C23.2,35.3,23.6,35.5,24,35.5z
	 M30.2,35.5c0.4,0,0.8-0.1,1.1-0.4c0.3-0.3,0.4-0.7,0.4-1.1c0-0.4-0.1-0.8-0.4-1.1s-0.7-0.4-1.1-0.4s-0.8,0.1-1.1,0.4
	c-0.3,0.3-0.4,0.7-0.4,1.1s0.1,0.8,0.4,1.1S29.7,35.5,30.2,35.5z M17.8,29.3c0.4,0,0.8-0.1,1.1-0.4c0.3-0.3,0.4-0.7,0.4-1.1
	s-0.1-0.8-0.4-1.1c-0.3-0.3-0.7-0.4-1.1-0.4s-0.8,0.1-1.1,0.4c-0.3,0.3-0.4,0.6-0.4,1.1c0,0.4,0.1,0.8,0.4,1.1
	C17.1,29.2,17.4,29.3,17.8,29.3z M24,29.3c0.4,0,0.8-0.1,1.1-0.4c0.3-0.3,0.4-0.7,0.4-1.1s-0.1-0.8-0.4-1.1
	c-0.3-0.3-0.7-0.4-1.1-0.4s-0.8,0.1-1.1,0.4c-0.3,0.3-0.4,0.6-0.4,1.1c0,0.4,0.1,0.8,0.4,1.1C23.2,29.2,23.6,29.3,24,29.3z
	 M30.2,29.3c0.4,0,0.8-0.1,1.1-0.4c0.3-0.3,0.4-0.7,0.4-1.1s-0.1-0.8-0.4-1.1s-0.7-0.4-1.1-0.4s-0.8,0.1-1.1,0.4
	c-0.3,0.3-0.4,0.6-0.4,1.1c0,0.4,0.1,0.8,0.4,1.1S29.7,29.3,30.2,29.3z M15.2,22.4h17.5v-0.5c0-2.4-0.8-4.5-2.5-6.2
	s-3.8-2.6-6.2-2.6s-4.5,0.9-6.2,2.6s-2.5,3.8-2.5,6.2C15.2,21.9,15.2,22.4,15.2,22.4z M8.8,42c-0.8,0-1.4-0.3-2-0.8
	C6.3,40.7,6,40,6,39.2V8.8c0-0.8,0.3-1.4,0.8-2C7.3,6.3,8,6,8.8,6h30.5c0.8,0,1.4,0.3,2,0.8C41.7,7.3,42,8,42,8.8v30.5
	c0,0.8-0.3,1.4-0.8,2c-0.5,0.5-1.2,0.8-2,0.8L8.8,42L8.8,42z"/>
</svg>
