<?xml version="1.0" encoding="utf-8"?>
<!-- Generator: Adobe Illustrator 26.3.1, SVG Export Plug-In . SVG Version: 6.00 Build 0)  -->
<svg version="1.1" id="Слой_1" xmlns="http://www.w3.org/2000/svg" xmlns:xlink="http://www.w3.org/1999/xlink" x="0px" y="0px"
	 viewBox="0 0 48 48" style="enable-background:new 0 0 48 48;" xml:space="preserve">
<path d="M10,32.2c-0.4,0-0.7-0.1-1-0.4c-0.3-0.3-0.4-0.6-0.4-1v-3.5H6v-6.8h2.6V17c0-0.4,0.1-0.7,0.4-1c0.3-0.3,0.6-0.4,1-0.4h30.6
	c0.4,0,0.7,0.1,1,0.4s0.4,0.6,0.4,1v13.7c0,0.4-0.1,0.7-0.4,1c-0.3,0.3-0.6,0.4-1,0.4C40.6,32.2,10,32.2,10,32.2z M10.1,30.7h15.7
	V17.3H10.1V30.7z"/>
</svg>
