<?xml version="1.0" encoding="utf-8"?>
<!-- Generator: Adobe Illustrator 26.3.1, SVG Export Plug-In . SVG Version: 6.00 Build 0)  -->
<svg version="1.1" id="Слой_1" xmlns="http://www.w3.org/2000/svg" xmlns:xlink="http://www.w3.org/1999/xlink" x="0px" y="0px"
	 viewBox="0 0 48 48" style="enable-background:new 0 0 48 48;" xml:space="preserve">
<path d="M32.5,42l-1.1-1.1l4.2-4.2l-4.2-4.2l1.1-1.1l4.2,4.2l4.2-4.2l1.1,1.1l-4.1,4.2l4.1,4.2L40.9,42l-4.2-4.2L32.5,42z M17.2,42
	c-0.4,0-0.7-0.1-1-0.4c-0.3-0.3-0.4-0.6-0.4-1V10c0-0.4,0.1-0.7,0.4-1s0.6-0.4,1-0.4h3.5V6h6.8v2.6H31c0.4,0,0.7,0.1,1,0.4
	c0.3,0.3,0.4,0.6,0.4,1v16.6c-2,0.9-3.6,2.3-4.8,4.1c-1.2,1.8-1.8,3.8-1.8,6.1c0,0.9,0.1,1.8,0.3,2.7c0.2,0.9,0.6,1.7,1,2.5
	C27,42,17.2,42,17.2,42z"/>
</svg>
