<?xml version="1.0" encoding="utf-8"?>
<!-- Generator: Adobe Illustrator 26.3.1, SVG Export Plug-In . SVG Version: 6.00 Build 0)  -->
<svg version="1.1" id="Слой_1" xmlns="http://www.w3.org/2000/svg" xmlns:xlink="http://www.w3.org/1999/xlink" x="0px" y="0px"
	 viewBox="0 0 48 48" style="enable-background:new 0 0 48 48;" xml:space="preserve">
<path d="M17.1,41.6c-0.4,0-0.7-0.1-1-0.4c-0.3-0.3-0.4-0.6-0.4-1V10.6c0-0.4,0.1-0.7,0.4-0.9c0.3-0.3,0.6-0.4,1-0.4h3.5V6.4h6.8v2.9
	h3.5c0.4,0,0.7,0.1,1,0.4s0.4,0.6,0.4,0.9v29.6c0,0.4-0.1,0.7-0.4,1c-0.3,0.3-0.6,0.4-1,0.4L17.1,41.6z M17.3,34.1h13.4V10.8H17.3
	V34.1z"/>
</svg>
