<?xml version="1.0" encoding="utf-8"?>
<!-- Generator: Adobe Illustrator 26.3.1, SVG Export Plug-In . SVG Version: 6.00 Build 0)  -->
<svg version="1.1" id="Слой_1" xmlns="http://www.w3.org/2000/svg" xmlns:xlink="http://www.w3.org/1999/xlink" x="0px" y="0px"
	 viewBox="0 0 48 48" style="enable-background:new 0 0 48 48;" xml:space="preserve">
<path d="M33.2,42.8v-5.1h-2.6l4.3-8.5v5.1h2.6L33.2,42.8z M17.2,42c-0.4,0-0.7-0.1-1-0.4c-0.3-0.3-0.4-0.6-0.4-1V10
	c0-0.4,0.1-0.7,0.4-1s0.6-0.4,1-0.4h3.5V6h6.8v2.6H31c0.4,0,0.7,0.1,1,0.4c0.3,0.3,0.4,0.6,0.4,1v15c-2.7,0.4-4.9,1.6-6.7,3.6
	c-1.8,2.1-2.7,4.5-2.7,7.3c0,1.2,0.2,2.3,0.5,3.3c0.4,1,0.9,2,1.5,2.8C24.8,42,17.2,42,17.2,42z"/>
</svg>
