<?xml version="1.0" encoding="utf-8"?>
<!-- Generator: Adobe Illustrator 26.3.1, SVG Export Plug-In . SVG Version: 6.00 Build 0)  -->
<svg version="1.1" id="Слой_1" xmlns="http://www.w3.org/2000/svg" xmlns:xlink="http://www.w3.org/1999/xlink" x="0px" y="0px"
	 viewBox="0 0 48 48" style="enable-background:new 0 0 48 48;" xml:space="preserve">
<path d="M33,38.4c0-0.4,0-0.8,0-1.1c0-0.4,0.1-0.7,0.3-1.1c0.3-0.5,0.6-0.9,1.1-1.2c0.4-0.3,0.8-0.7,1.1-1.2c0.1-0.1,0.2-0.4,0.3-1
	c0-0.5-0.2-0.9-0.6-1.2c-0.4-0.3-0.8-0.5-1.3-0.5s-0.9,0.2-1.2,0.5s-0.6,0.7-0.8,1.2L30.1,32c0.3-0.8,0.8-1.5,1.5-2
	c0.7-0.5,1.5-0.8,2.4-0.8c1,0,1.9,0.3,2.7,1s1.2,1.5,1.2,2.5c0,0.3,0,0.6-0.1,0.9c-0.1,0.3-0.2,0.5-0.4,0.8
	c-0.3,0.5-0.7,0.9-1.1,1.2c-0.4,0.3-0.7,0.8-1,1.2c-0.2,0.3-0.3,0.8-0.3,1.6C35,38.4,33,38.4,33,38.4z M34,42.8
	c-0.4,0-0.7-0.1-1-0.4c-0.3-0.3-0.4-0.6-0.4-1s0.1-0.7,0.4-1c0.3-0.3,0.6-0.4,1-0.4s0.7,0.1,1,0.4c0.3,0.3,0.4,0.6,0.4,1
	s-0.1,0.7-0.4,1C34.7,42.6,34.4,42.8,34,42.8z M17.2,42c-0.4,0-0.7-0.1-1-0.4c-0.3-0.3-0.4-0.6-0.4-1V10c0-0.4,0.1-0.7,0.4-1
	s0.6-0.4,1-0.4h3.5V6h6.8v2.6H31c0.4,0,0.7,0.1,1,0.4c0.3,0.3,0.4,0.6,0.4,1v15c-2.7,0.4-4.9,1.6-6.7,3.6c-1.8,2.1-2.7,4.5-2.7,7.3
	c0,1.2,0.2,2.3,0.5,3.3c0.4,1,0.9,2,1.5,2.8C24.8,42,17.2,42,17.2,42z"/>
</svg>
