<?xml version="1.0" encoding="utf-8"?>
<!-- Generator: Adobe Illustrator 26.3.1, SVG Export Plug-In . SVG Version: 6.00 Build 0)  -->
<svg version="1.1" id="Слой_1" xmlns="http://www.w3.org/2000/svg" xmlns:xlink="http://www.w3.org/1999/xlink" x="0px" y="0px"
	 viewBox="0 0 48 48" style="enable-background:new 0 0 48 48;" xml:space="preserve">
<path d="M38.9,40L26.6,27.8l1.2-1.2l12.3,12.3C40.1,38.9,38.9,40,38.9,40z M11.6,37.1C9.3,33.9,8,30.4,7.9,26.5S8.8,19,11,15.8
	c-0.3,1.3-0.3,2.6-0.1,4s0.6,2.8,1.2,4.2c0.6,1.4,1.3,2.8,2.1,4.1c0.8,1.3,1.7,2.6,2.6,3.7L11.6,37.1z M18,30.7
	c-1.4-1.6-2.6-3.2-3.5-4.9c-0.9-1.7-1.5-3.4-1.8-4.9c-0.3-1.6-0.4-3-0.3-4.3c0.2-1.3,0.6-2.3,1.2-3c0.7-0.7,1.7-1.2,3-1.3
	c1.3-0.2,2.8-0.1,4.4,0.3c1.6,0.4,3.3,1,5,1.9s3.3,2,4.8,3.4L18,30.7z M31.9,16.8c-1.1-0.9-2.2-1.8-3.5-2.6s-2.7-1.5-4.1-2.1
	s-2.8-1-4.3-1.2c-1.4-0.2-2.8-0.2-4,0c3.2-2.2,6.8-3.2,10.7-3.1s7.4,1.3,10.6,3.7L31.9,16.8z"/>
</svg>
