<?xml version="1.0" encoding="utf-8"?>
<!-- Generator: Adobe Illustrator 26.3.1, SVG Export Plug-In . SVG Version: 6.00 Build 0)  -->
<svg version="1.1" id="Слой_1" xmlns="http://www.w3.org/2000/svg" xmlns:xlink="http://www.w3.org/1999/xlink" x="0px" y="0px"
	 viewBox="0 0 48 48" style="enable-background:new 0 0 48 48;" xml:space="preserve">
<path d="M10.8,32.9h1.9v-3.2h22.8v3.2h1.9v-7.3c0-0.5-0.2-1-0.5-1.6c-0.4-0.6-0.8-1-1.4-1.4v-2.8c0-0.9-0.3-1.6-0.8-2.2
	c-0.6-0.6-1.3-0.8-2.2-0.8h-6c-0.6,0-1.1,0.1-1.5,0.3c-0.4,0.2-0.7,0.5-0.9,0.9c-0.2-0.4-0.5-0.7-0.9-0.9c-0.4-0.2-0.9-0.3-1.5-0.3
	h-5.9c-0.9,0-1.6,0.3-2.2,0.8c-0.6,0.6-0.8,1.3-0.8,2.2v2.8c-0.5,0.3-1,0.8-1.4,1.4s-0.5,1.1-0.5,1.6C10.8,25.5,10.8,32.9,10.8,32.9
	z M12.6,28.1v-2c0-0.6,0.2-1.1,0.6-1.4c0.4-0.4,0.9-0.6,1.4-0.6h18.8c0.6,0,1.1,0.2,1.4,0.6c0.4,0.4,0.6,0.9,0.6,1.4v2H12.6z
	 M14.2,22.5v-3c0-0.3,0.1-0.6,0.4-0.9c0.2-0.2,0.5-0.4,0.9-0.4H22c0.3,0,0.6,0.1,0.9,0.4c0.2,0.2,0.4,0.5,0.4,0.9v3
	C23.2,22.5,14.2,22.5,14.2,22.5z M24.8,22.5v-3c0-0.3,0.1-0.6,0.3-0.9c0.2-0.2,0.5-0.4,0.9-0.4h6.5c0.3,0,0.6,0.1,0.9,0.4
	c0.2,0.2,0.4,0.5,0.4,0.9v3C33.8,22.5,24.8,22.5,24.8,22.5z M8.8,42c-0.8,0-1.4-0.3-2-0.8C6.3,40.7,6,40,6,39.2V8.8
	c0-0.8,0.3-1.4,0.8-2C7.3,6.3,8,6,8.8,6h30.5c0.8,0,1.4,0.3,2,0.8C41.7,7.3,42,8,42,8.8v30.5c0,0.8-0.3,1.4-0.8,2
	c-0.5,0.5-1.2,0.8-2,0.8L8.8,42L8.8,42z"/>
</svg>
