<?xml version="1.0" encoding="utf-8"?>
<!-- Generator: Adobe Illustrator 26.3.1, SVG Export Plug-In . SVG Version: 6.00 Build 0)  -->
<svg version="1.1" id="Слой_1" xmlns="http://www.w3.org/2000/svg" xmlns:xlink="http://www.w3.org/1999/xlink" x="0px" y="0px"
	 viewBox="0 0 48 48" style="enable-background:new 0 0 48 48;" xml:space="preserve">
<path d="M24,43.5l-12.9-9.7c-0.4-0.2-0.6-0.6-0.8-1S10,32,10,31.5V8.8c0-0.8,0.3-1.4,0.8-2C11.3,6.3,12,6,12.8,6h22.5
	c0.8,0,1.4,0.3,2,0.8C37.7,7.3,38,8,38,8.8v22.9c0,0.4-0.1,0.9-0.3,1.3c-0.2,0.4-0.5,0.7-0.8,1L24,43.5z M21.9,28.6l9.9-9.9
	l-1.1-1.1l-8.8,8.8l-4.6-4.6l-1.1,1.1L21.9,28.6z"/>
</svg>
