<?xml version="1.0" encoding="utf-8"?>
<!-- Generator: Adobe Illustrator 26.3.1, SVG Export Plug-In . SVG Version: 6.00 Build 0)  -->
<svg version="1.1" id="Слой_1" xmlns="http://www.w3.org/2000/svg" xmlns:xlink="http://www.w3.org/1999/xlink" x="0px" y="0px"
	 viewBox="0 0 48 48" style="enable-background:new 0 0 48 48;" xml:space="preserve">
<path d="M27.9,23.2V11.8h11.5c0.8,0,1.4,0.3,2,0.8c0.5,0.5,0.8,1.2,0.8,2v8.7C42.2,23.2,27.9,23.2,27.9,23.2z M8.5,36.2
	c-0.8,0-1.4-0.3-2-0.8c-0.5-0.5-0.8-1.2-0.8-2V14.5c0-0.8,0.3-1.4,0.8-2c0.5-0.5,1.2-0.8,2-0.8h17.8v24.5
	C26.4,36.2,8.5,36.2,8.5,36.2z M16.1,25.8c0.5,0,0.9-0.2,1.3-0.5S18,24.5,18,24s-0.2-1-0.6-1.3c-0.4-0.4-0.8-0.5-1.3-0.5
	s-0.9,0.2-1.3,0.5c-0.4,0.4-0.5,0.8-0.5,1.3s0.2,0.9,0.5,1.3C15.1,25.7,15.6,25.8,16.1,25.8z M27.9,36.2V24.8h14.3v8.7
	c0,0.8-0.3,1.4-0.8,2c-0.5,0.5-1.2,0.8-2,0.8L27.9,36.2L27.9,36.2z"/>
</svg>
