<?xml version="1.0" encoding="utf-8"?>
<!-- Generator: Adobe Illustrator 26.3.1, SVG Export Plug-In . SVG Version: 6.00 Build 0)  -->
<svg version="1.1" id="Слой_1" xmlns="http://www.w3.org/2000/svg" xmlns:xlink="http://www.w3.org/1999/xlink" x="0px" y="0px"
	 viewBox="0 0 48 48" style="enable-background:new 0 0 48 48;" xml:space="preserve">
<path d="M41.3,45.1L36.2,40H10.8c-0.8,0-1.4-0.3-2-0.8C8.3,38.7,8,38,8,37.2V11.8l-5-5l1.1-1.1L42.4,44L41.3,45.1z M40,36.6
	l-9.1-9.1l7.5-8v-2.2l-8.6,9.1L11.4,8h25.8c0.8,0,1.4,0.3,2,0.8c0.5,0.5,0.8,1.2,0.8,2C40,10.8,40,36.6,40,36.6z M9.5,32.3l9.1-9.1
	l8.4,8.4l0.4-0.5L18,21.6L9.6,30C9.5,30.1,9.5,32.3,9.5,32.3z"/>
</svg>
