<?xml version="1.0" encoding="utf-8"?>
<!-- Generator: Adobe Illustrator 26.3.1, SVG Export Plug-In . SVG Version: 6.00 Build 0)  -->
<svg version="1.1" id="Слой_1" xmlns="http://www.w3.org/2000/svg" xmlns:xlink="http://www.w3.org/1999/xlink" x="0px" y="0px"
	 viewBox="0 0 48 48" style="enable-background:new 0 0 48 48;" xml:space="preserve">
<path d="M0.5,37.1v-1.5h9.3c0.2-2.4,1.1-4.5,2.8-6.3s3.7-2.8,6-3L15.5,12c-0.1-0.3-0.3-0.5-0.5-0.7S14.6,11,14.3,11H7.8V9.5h6.3
	c0.6,0,1.2,0.2,1.8,0.6c0.6,0.4,1,0.9,1.1,1.6l3.4,16H20c-2.4,0-4.4,0.8-6.1,2.5s-2.5,3.7-2.5,6.1v0.8H0.5z M20,41.1
	c-1.3,0-2.5-0.5-3.4-1.4s-1.4-2-1.4-3.4c0-1.3,0.5-2.5,1.4-3.4c0.9-0.9,2-1.4,3.4-1.4s2.5,0.5,3.4,1.4c0.9,0.9,1.4,2,1.4,3.4
	c0,1.3-0.5,2.5-1.4,3.4C22.4,40.6,21.3,41.1,20,41.1z M38.7,34.9c-2.3,0-4.3-0.7-6-2.2s-2.6-3.4-2.9-5.7h-5.6L24,25.5h5.8
	c0.1-1,0.5-2.2,1.1-3.6s1.6-2.4,2.7-3h-11l-0.4-1.5h12.3l-3.4-9.7c-0.1-0.2-0.2-0.4-0.4-0.5C30.5,7.1,30.3,7,30.1,7H26V5.5h4
	c0.6,0,1.1,0.2,1.6,0.5c0.5,0.3,0.9,0.8,1.1,1.3l3.6,10h2.6c2.5,0,4.6,0.8,6.2,2.5c1.7,1.7,2.5,3.8,2.5,6.3c0,2.4-0.9,4.4-2.6,6.2
	C43.1,34.1,41.1,34.9,38.7,34.9z M37.4,25.3l1.4-0.5l-2.1-5.7l-1.3,0.6C35.4,19.7,37.4,25.3,37.4,25.3z"/>
</svg>
