<?xml version="1.0" encoding="utf-8"?>
<!-- Generator: Adobe Illustrator 26.3.1, SVG Export Plug-In . SVG Version: 6.00 Build 0)  -->
<svg version="1.1" id="Слой_1" xmlns="http://www.w3.org/2000/svg" xmlns:xlink="http://www.w3.org/1999/xlink" x="0px" y="0px"
	 viewBox="0 0 48 48" style="enable-background:new 0 0 48 48;" xml:space="preserve">
<path d="M11.8,41v-1.5H22V33h-1.3c-2.5,0-4.6-0.9-6.3-2.6c-1.7-1.7-2.6-3.8-2.6-6.3c0-1.8,0.5-3.4,1.5-4.9s2.3-2.6,4-3.2
	c0,0.3,0,0.5,0.1,0.8s0.1,0.5,0.2,0.7c-1.3,0.5-2.4,1.4-3.1,2.6c-0.7,1.2-1.1,2.6-1.1,4c0,2,0.7,3.8,2.1,5.2s3.1,2.1,5.2,2.1h15.6
	v1.5H23.9v6.5h12.3V41H11.8z M29.5,23l-0.7-1.9l-2,0.8l-1.2-3.2c0.3-0.4,0.5-0.8,0.7-1.3c0.1-0.5,0.2-1,0.2-1.5c0-1.1-0.3-2-1-2.9
	s-1.5-1.4-2.6-1.6l-1.1-3l2-0.7l-0.7-1.9L25.2,5l0.7,1.9l1.8-0.6l5,13.4l-1.9,0.7l0.7,1.9C31.6,22.2,29.5,23,29.5,23z M21.9,18.8
	c-0.8,0-1.5-0.3-2.1-0.8c-0.6-0.6-0.8-1.2-0.8-2.1c0-0.8,0.3-1.5,0.8-2c0.6-0.6,1.2-0.8,2.1-0.8c0.8,0,1.5,0.3,2,0.8
	c0.6,0.6,0.8,1.2,0.8,2c0,0.8-0.3,1.5-0.8,2.1C23.4,18.5,22.7,18.8,21.9,18.8z"/>
</svg>
