<?xml version="1.0" encoding="utf-8"?>
<!-- Generator: Adobe Illustrator 26.3.1, SVG Export Plug-In . SVG Version: 6.00 Build 0)  -->
<svg version="1.1" id="Слой_1" xmlns="http://www.w3.org/2000/svg" xmlns:xlink="http://www.w3.org/1999/xlink" x="0px" y="0px"
	 viewBox="0 0 48 48" style="enable-background:new 0 0 48 48;" xml:space="preserve">
<path d="M8.8,40c-1.3,0-2.5-0.5-3.4-1.4S4,36.6,4,35.2V12.8c0-1.3,0.5-2.5,1.4-3.4C6.3,8.5,7.4,8,8.8,8H23c1.3,0,2.5,0.5,3.4,1.4
	s1.4,2.1,1.4,3.4v13.3h3.8c0.8,0,1.4,0.3,2,0.8c0.5,0.5,0.8,1.2,0.8,2V35c0,0.7,0.2,1.2,0.7,1.7s1,0.7,1.7,0.7s1.2-0.2,1.7-0.7
	s0.7-1,0.7-1.7V20.5c-1,0-1.8-0.3-2.5-0.9s-1-1.4-1-2.4V13h1.5V9.8h1.3V13h2.9V9.8h1.3V13h1.5v4.2c0,1-0.3,1.7-1,2.4
	c-0.7,0.6-1.5,0.9-2.5,0.9v14.3c0,1.1-0.4,2-1.2,2.8s-1.7,1.2-2.8,1.2s-2-0.4-2.8-1.2s-1.1-1.7-1.1-2.8v-6.2c0-0.4-0.1-0.7-0.3-0.9
	c-0.2-0.2-0.5-0.3-0.9-0.3h-3.8V36c0-1.8-0.5-3.1-1.5-4.1c-1-1-2.3-1.4-4.1-1.4H11.9c-0.9,0-1.6,0.3-2.2,0.9
	c-0.6,0.6-0.9,1.4-0.9,2.2c0,0.9,0.3,1.6,0.9,2.2c0.6,0.6,1.4,0.9,2.2,0.9h10.3c0.2,0,0.4-0.1,0.5-0.2c0.1-0.1,0.2-0.3,0.2-0.6
	s-0.1-0.4-0.2-0.5s-0.3-0.2-0.5-0.2H11.9c-0.5,0-0.8-0.2-1.2-0.5c-0.3-0.3-0.5-0.7-0.5-1.2s0.2-0.8,0.5-1.2c0.3-0.3,0.7-0.5,1.2-0.5
	h10.3c1.1,0,2,0.4,2.8,1.2s1.2,1.7,1.2,2.8s-0.4,2-1.2,2.8c-0.8,0.8-1.7,1.2-2.8,1.2H8.8V40z"/>
</svg>
