<?xml version="1.0" encoding="utf-8"?>
<!-- Generator: Adobe Illustrator 26.3.1, SVG Export Plug-In . SVG Version: 6.00 Build 0)  -->
<svg version="1.1" id="Слой_1" xmlns="http://www.w3.org/2000/svg" xmlns:xlink="http://www.w3.org/1999/xlink" x="0px" y="0px"
	 viewBox="0 0 48 48" style="enable-background:new 0 0 48 48;" xml:space="preserve">
<path d="M6,40v-1.5h4V8h28v30.5h4V40H6z M11.5,15.6h17.3V9.5H11.5V15.6z M11.5,23.2h17.3v-6.1H11.5V23.2z M11.5,38.5h24.9V24.8h-6.1
	v4.8c0.4,0.2,0.7,0.4,0.9,0.7c0.2,0.3,0.4,0.7,0.4,1.2c0,0.6-0.2,1-0.6,1.4s-0.9,0.6-1.5,0.6s-1-0.2-1.4-0.6
	c-0.4-0.4-0.6-0.9-0.6-1.4c0-0.4,0.1-0.8,0.3-1.2c0.2-0.3,0.5-0.6,0.9-0.7v-4.8H11.5V38.5z M30.4,15.6h6.1V9.5h-6.1V15.6z
	 M30.4,23.2h6.1v-6.1h-6.1V23.2z"/>
</svg>
