<?xml version="1.0" encoding="utf-8"?>
<!-- Generator: Adobe Illustrator 26.3.1, SVG Export Plug-In . SVG Version: 6.00 Build 0)  -->
<svg version="1.1" id="Слой_1" xmlns="http://www.w3.org/2000/svg" xmlns:xlink="http://www.w3.org/1999/xlink" x="0px" y="0px"
	 viewBox="0 0 48 48" style="enable-background:new 0 0 48 48;" xml:space="preserve">
<path d="M11.1,44.3l-1.2-0.9l6.4-8.2L15.2,27c-0.2-1.8-0.2-3.8,0.1-5.9c0.3-2.2,0.8-4.2,1.6-6l-6.1,3.7v6H9.3V18l7.5-4.6
	c0.7-0.4,1.3-0.7,1.8-0.8c0.5-0.2,1-0.3,1.5-0.3c0.6,0,1.1,0.1,1.5,0.4c0.4,0.3,0.8,0.7,1.2,1.4l1.5,2.7c0.9,1.6,2.2,2.9,4,3.9
	c1.7,1,3.6,1.5,5.4,1.5v1.5h-2l9.7,20.1l-1.1,0.6L30.1,23.2c-1.5-0.4-2.9-1.2-4.3-2.3c-1.3-1.1-2.6-2.5-3.7-4.3
	c-0.7,1.9-1.3,3.6-1.6,5.3c-0.3,1.7-0.4,3.1-0.2,4.2l4.4,7.5v10.8h-1.5V34l-5.1-6.5L18,35.7L11.1,44.3z M22.9,9.1
	c-0.9,0-1.6-0.3-2.2-1c-0.6-0.6-0.9-1.4-0.9-2.3s0.3-1.7,0.9-2.3s1.4-0.9,2.2-0.9c0.9,0,1.7,0.3,2.3,0.9c0.6,0.6,0.9,1.4,0.9,2.3
	s-0.3,1.6-0.9,2.3C24.6,8.7,23.8,9.1,22.9,9.1z"/>
</svg>
