<?xml version="1.0" encoding="utf-8"?>
<!-- Generator: Adobe Illustrator 26.3.1, SVG Export Plug-In . SVG Version: 6.00 Build 0)  -->
<svg version="1.1" id="Слой_1" xmlns="http://www.w3.org/2000/svg" xmlns:xlink="http://www.w3.org/1999/xlink" x="0px" y="0px"
	 viewBox="0 0 48 48" style="enable-background:new 0 0 48 48;" xml:space="preserve">
<path d="M24,42c-2.5,0-4.8-0.5-7-1.4s-4.1-2.2-5.7-3.8s-2.9-3.5-3.8-5.7C6.5,28.8,6,26.5,6,24s0.5-4.8,1.4-7s2.2-4.1,3.8-5.7
	s3.5-2.9,5.7-3.8C19.2,6.5,21.5,6,24,6s4.8,0.5,7,1.4s4.1,2.2,5.7,3.8c1.6,1.6,2.9,3.5,3.8,5.7c0.9,2.2,1.4,4.5,1.4,7
	s-0.5,4.8-1.4,7s-2.2,4.1-3.8,5.7s-3.5,2.9-5.7,3.8C28.8,41.5,26.5,42,24,42z M24,40.5c2.1,0,4.1-0.4,6-1.1c1.9-0.7,3.6-1.8,5.1-3.2
	L11.8,12.9c-1.4,1.6-2.4,3.3-3.2,5.2C7.8,20,7.5,22,7.5,24c0,4.6,1.6,8.5,4.8,11.7C15.5,38.9,19.4,40.5,24,40.5z M36.1,35.1
	c1.4-1.5,2.4-3.2,3.2-5.1s1.1-3.9,1.1-6c0-4.6-1.6-8.5-4.8-11.7c-3.1-3.2-7-4.8-11.6-4.8c-2.1,0-4.1,0.4-6,1.1s-3.6,1.8-5.1,3.2
	C12.9,11.9,36.1,35.1,36.1,35.1z"/>
</svg>
