<?xml version="1.0" encoding="utf-8"?>
<!-- Generator: Adobe Illustrator 26.3.1, SVG Export Plug-In . SVG Version: 6.00 Build 0)  -->
<svg version="1.1" id="Слой_1" xmlns="http://www.w3.org/2000/svg" xmlns:xlink="http://www.w3.org/1999/xlink" x="0px" y="0px"
	 viewBox="0 0 48 48" style="enable-background:new 0 0 48 48;" xml:space="preserve">
<path d="M34,41.8c-2.2,0-4-0.8-5.5-2.3s-2.3-3.3-2.3-5.5s0.8-4,2.3-5.5s3.3-2.3,5.5-2.3s4,0.8,5.5,2.3s2.3,3.3,2.3,5.5
	s-0.8,4-2.3,5.5S36.2,41.8,34,41.8z M34.4,34.7l3.9-3.8l-1.1-1.1l-3.8,3.9L34.4,34.7z M6,23.2V12.8c0-0.8,0.3-1.4,0.8-2
	C7.3,10.3,8,10,8.8,10h30.5c0.8,0,1.4,0.3,2,0.8c0.5,0.5,0.8,1.2,0.8,2v12.4c-1.1-1-2.3-1.8-3.7-2.4S35.6,22,34.1,22
	c-1.3,0-2.6,0.2-3.8,0.6c-1.2,0.4-2.3,1-3.3,1.7l-4.3-8.6c-0.1-0.1-0.1-0.2-0.3-0.2c-0.1-0.1-0.2-0.1-0.4-0.1c-0.1,0-0.3,0-0.4,0.1
	s-0.2,0.1-0.3,0.2L14,30.3l-3.4-6.6c-0.1-0.1-0.1-0.2-0.3-0.3c-0.1-0.1-0.2-0.1-0.4-0.1L6,23.2L6,23.2z M8.8,38
	c-0.8,0-1.4-0.3-2-0.8C6.3,36.7,6,36,6,35.2V24.8h3.5l3.7,7.6c0.1,0.1,0.2,0.2,0.3,0.3s0.3,0.1,0.4,0.1c0.1,0,0.3,0,0.4-0.1
	c0.1-0.1,0.2-0.2,0.3-0.3L22,17.7l3.7,7.5c-1.2,1.1-2.1,2.4-2.8,3.9c-0.7,1.5-1,3.1-1,4.9c0,0.7,0.1,1.4,0.2,2
	c0.1,0.7,0.3,1.3,0.6,2H8.8z"/>
</svg>
