<?xml version="1.0" encoding="utf-8"?>
<!-- Generator: Adobe Illustrator 26.3.1, SVG Export Plug-In . SVG Version: 6.00 Build 0)  -->
<svg version="1.1" id="Слой_1" xmlns="http://www.w3.org/2000/svg" xmlns:xlink="http://www.w3.org/1999/xlink" x="0px" y="0px"
	 viewBox="0 0 48 48" style="enable-background:new 0 0 48 48;" xml:space="preserve">
<path d="M19.7,42.3V25.9L9.2,36.3l-1.1-1.1L19.3,24L8.1,12.8l1.1-1.1l10.4,10.4V5.7h0.8l9.7,9.7L21.5,24l8.6,8.6l-9.7,9.7
	C20.4,42.3,19.7,42.3,19.7,42.3z M21.2,22.1l6.7-6.7l-6.7-6.7V22.1z M21.2,39.3l6.7-6.7l-6.7-6.7V39.3z M33.3,27.1l-3-3.1l3.1-3.1
	c0.1,0.5,0.3,1,0.4,1.5c0.1,0.5,0.2,1,0.2,1.6c0,0.5,0,1.1-0.1,1.6C33.6,26.1,33.5,26.6,33.3,27.1z M37.8,31.5l-1.2-1.2
	c0.5-1,0.9-2,1.2-3c0.3-1.1,0.4-2.1,0.4-3.3c0-1.1-0.1-2.2-0.4-3.3c-0.3-1.1-0.7-2.1-1.2-3l1.2-1.2c0.7,1.1,1.2,2.3,1.6,3.6
	c0.3,1.3,0.5,2.6,0.5,3.9s-0.2,2.6-0.5,3.9C39,29.1,38.5,30.3,37.8,31.5z"/>
</svg>
