<?xml version="1.0" encoding="utf-8"?>
<!-- Generator: Adobe Illustrator 26.3.1, SVG Export Plug-In . SVG Version: 6.00 Build 0)  -->
<svg version="1.1" id="Слой_1" xmlns="http://www.w3.org/2000/svg" xmlns:xlink="http://www.w3.org/1999/xlink" x="0px" y="0px"
	 viewBox="0 0 48 48" style="enable-background:new 0 0 48 48;" xml:space="preserve">
<path d="M23.2,42.3V25.9L12.8,36.3l-1.1-1.1L23,24L11.8,12.8l1.1-1.1l10.4,10.4V5.7H24l9.7,9.7L25.1,24l8.6,8.6L24,42.3H23.2z
	 M24.8,22.1l6.8-6.7l-6.8-6.7V22.1z M24.8,39.3l6.8-6.7l-6.8-6.7V39.3z M10.8,25.5c-0.4,0-0.8-0.1-1.1-0.4s-0.4-0.6-0.4-1
	s0.1-0.8,0.4-1.1c0.3-0.3,0.7-0.5,1.1-0.5c0.4,0,0.8,0.2,1.1,0.5s0.4,0.7,0.4,1.1s-0.1,0.8-0.4,1C11.6,25.3,11.2,25.5,10.8,25.5z
	 M37.2,25.5c-0.4,0-0.8-0.1-1.1-0.4s-0.4-0.6-0.4-1s0.1-0.8,0.4-1.1c0.3-0.3,0.7-0.5,1.1-0.5c0.4,0,0.8,0.2,1.1,0.5s0.4,0.7,0.4,1.1
	s-0.1,0.8-0.4,1C38,25.3,37.7,25.5,37.2,25.5z"/>
</svg>
