<?xml version="1.0" encoding="utf-8"?>
<!-- Generator: Adobe Illustrator 26.3.1, SVG Export Plug-In . SVG Version: 6.00 Build 0)  -->
<svg version="1.1" id="Слой_1" xmlns="http://www.w3.org/2000/svg" xmlns:xlink="http://www.w3.org/1999/xlink" x="0px" y="0px"
	 viewBox="0 0 48 48" style="enable-background:new 0 0 48 48;" xml:space="preserve">
<path d="M11.3,34.4c0.6,0,1.2-0.2,1.6-0.7c0.5-0.5,0.7-1,0.7-1.6c0-0.6-0.2-1.2-0.7-1.6s-1-0.7-1.6-0.7s-1.2,0.2-1.6,0.7
	C9.2,30.9,9,31.4,9,32c0,0.6,0.2,1.2,0.7,1.6C10.2,34.1,10.7,34.4,11.3,34.4z M19.4,25.6c0.5,0,0.8-0.2,1.2-0.5
	c0.3-0.3,0.5-0.7,0.5-1.2s-0.2-0.8-0.5-1.2c-0.3-0.3-0.7-0.5-1.2-0.5s-0.8,0.2-1.2,0.5c-0.3,0.3-0.5,0.7-0.5,1.2s0.2,0.8,0.5,1.2
	C18.5,25.4,18.9,25.6,19.4,25.6z M19.4,17.5c0.5,0,0.8-0.2,1.2-0.5c0.3-0.3,0.5-0.7,0.5-1.2c0-0.4-0.2-0.8-0.5-1.2
	c-0.3-0.3-0.7-0.5-1.2-0.5s-0.8,0.2-1.2,0.5c-0.3,0.3-0.5,0.7-0.5,1.2c0,0.4,0.2,0.8,0.5,1.2C18.5,17.3,18.9,17.5,19.4,17.5z
	 M11.3,18.2c0.6,0,1.2-0.2,1.6-0.7c0.5-0.5,0.7-1,0.7-1.6s-0.2-1.2-0.7-1.6c-0.5-0.5-1-0.7-1.6-0.7s-1.2,0.2-1.6,0.7
	c-0.5,0.5-0.7,1-0.7,1.6s0.2,1.2,0.7,1.6S10.7,18.2,11.3,18.2z M11.3,26.2c0.6,0,1.2-0.2,1.6-0.7c0.5-0.5,0.7-1,0.7-1.6
	s-0.2-1.2-0.7-1.6c-0.5-0.5-1-0.7-1.6-0.7s-1.2,0.2-1.6,0.7c-0.5,0.5-0.7,1-0.7,1.6s0.2,1.2,0.7,1.6C10.2,26,10.7,26.2,11.3,26.2z
	 M19.4,33.8c0.5,0,0.8-0.2,1.2-0.5c0.3-0.3,0.5-0.7,0.5-1.2s-0.2-0.8-0.5-1.2c-0.3-0.3-0.7-0.5-1.2-0.5s-0.8,0.2-1.2,0.5
	c-0.3,0.3-0.5,0.7-0.5,1.2s0.2,0.9,0.5,1.2C18.5,33.6,18.9,33.8,19.4,33.8z M35.7,33.1c0.3,0,0.6-0.1,0.8-0.3s0.3-0.5,0.3-0.8
	s-0.1-0.6-0.3-0.8s-0.5-0.3-0.8-0.3s-0.6,0.1-0.8,0.3c-0.2,0.2-0.3,0.5-0.3,0.8s0.1,0.6,0.3,0.8C35.1,33,35.4,33.1,35.7,33.1z
	 M35.7,16.9c0.3,0,0.6-0.1,0.8-0.3c0.2-0.2,0.3-0.5,0.3-0.8s-0.1-0.6-0.3-0.8s-0.5-0.3-0.8-0.3s-0.6,0.1-0.8,0.3s-0.3,0.5-0.3,0.8
	s0.1,0.6,0.3,0.8C35.1,16.8,35.4,16.9,35.7,16.9z M35.7,25c0.3,0,0.6-0.1,0.8-0.3s0.3-0.5,0.3-0.8s-0.1-0.6-0.3-0.8
	c-0.2-0.2-0.5-0.3-0.8-0.3s-0.6,0.1-0.8,0.3c-0.2,0.2-0.3,0.5-0.3,0.8s0.1,0.6,0.3,0.8C35.1,24.9,35.4,25,35.7,25z M27.5,17.5
	c0.5,0,0.8-0.2,1.2-0.5c0.3-0.3,0.5-0.7,0.5-1.2c0-0.4-0.2-0.8-0.5-1.2c-0.3-0.3-0.7-0.5-1.2-0.5s-0.9,0.2-1.2,0.5
	c-0.3,0.3-0.5,0.7-0.5,1.2c0,0.4,0.2,0.8,0.5,1.2C26.6,17.3,27,17.5,27.5,17.5z M27.5,25.6c0.5,0,0.8-0.2,1.2-0.5
	c0.3-0.3,0.5-0.7,0.5-1.2s-0.2-0.8-0.5-1.2c-0.3-0.3-0.7-0.5-1.2-0.5s-0.9,0.2-1.2,0.5c-0.3,0.3-0.5,0.7-0.5,1.2s0.2,0.8,0.5,1.2
	C26.6,25.4,27,25.6,27.5,25.6z M27.5,33.8c0.5,0,0.8-0.2,1.2-0.5c0.3-0.3,0.5-0.7,0.5-1.2s-0.2-0.8-0.5-1.2
	c-0.3-0.3-0.7-0.5-1.2-0.5s-0.9,0.2-1.2,0.5c-0.3,0.3-0.5,0.7-0.5,1.2s0.2,0.9,0.5,1.2C26.6,33.6,27,33.8,27.5,33.8z M8,40V8h32v32
	H8z"/>
</svg>
