<?xml version="1.0" encoding="utf-8"?>
<!-- Generator: Adobe Illustrator 26.3.1, SVG Export Plug-In . SVG Version: 6.00 Build 0)  -->
<svg version="1.1" id="Слой_1" xmlns="http://www.w3.org/2000/svg" xmlns:xlink="http://www.w3.org/1999/xlink" x="0px" y="0px"
	 viewBox="0 0 48 48" style="enable-background:new 0 0 48 48;" xml:space="preserve">
<path d="M30.4,31.5c2.1,0,3.9-0.7,5.3-2.2c1.4-1.4,2.2-3.2,2.2-5.3s-0.7-3.9-2.2-5.3c-1.4-1.4-3.2-2.2-5.3-2.2s-3.9,0.7-5.3,2.2
	c-1.4,1.4-2.2,3.2-2.2,5.3s0.7,3.9,2.2,5.3C26.5,30.7,28.3,31.5,30.4,31.5z M30.4,33c-2.3,0-4.4-0.8-6.1-2.3
	c-1.7-1.6-2.7-3.5-2.9-5.9H13v-1.5h8.4c0.1-1.4,0.5-2.6,1.2-3.8c0.7-1.2,1.6-2.1,2.7-2.9H9V15h21.4c2.5,0,4.6,0.9,6.4,2.6
	c1.8,1.8,2.6,3.9,2.6,6.4s-0.9,4.6-2.6,6.4C35,32.1,32.9,33,30.4,33z"/>
</svg>
