<?xml version="1.0" encoding="utf-8"?>
<!-- Generator: Adobe Illustrator 26.3.1, SVG Export Plug-In . SVG Version: 6.00 Build 0)  -->
<svg version="1.1" id="Слой_1" xmlns="http://www.w3.org/2000/svg" xmlns:xlink="http://www.w3.org/1999/xlink" x="0px" y="0px"
	 viewBox="0 0 48 48" style="enable-background:new 0 0 48 48;" xml:space="preserve">
<path d="M19.9,21.6c0.5,0,0.8-0.2,1.2-0.5c0.3-0.3,0.5-0.7,0.5-1.2c0-0.4-0.2-0.8-0.5-1.2c-0.3-0.3-0.7-0.5-1.2-0.5
	c-0.4,0-0.8,0.2-1.2,0.5c-0.3,0.3-0.5,0.7-0.5,1.2s0.2,0.8,0.5,1.2C19.1,21.4,19.5,21.6,19.9,21.6z M19.9,29.8
	c0.5,0,0.8-0.2,1.2-0.5c0.3-0.3,0.5-0.7,0.5-1.2c0-0.4-0.2-0.8-0.5-1.2c-0.3-0.3-0.7-0.5-1.2-0.5c-0.4,0-0.8,0.2-1.2,0.5
	c-0.3,0.3-0.5,0.7-0.5,1.2s0.2,0.8,0.5,1.2C19.1,29.6,19.5,29.8,19.9,29.8z M13.7,21c0.3,0,0.5-0.1,0.8-0.3c0.2-0.2,0.3-0.5,0.3-0.8
	s-0.1-0.5-0.3-0.8c-0.2-0.2-0.5-0.3-0.8-0.3s-0.5,0.1-0.7,0.3c-0.2,0.2-0.3,0.5-0.3,0.8s0.1,0.5,0.3,0.8C13.2,20.9,13.4,21,13.7,21z
	 M19.9,35.4c0.3,0,0.6-0.1,0.8-0.3c0.2-0.2,0.3-0.5,0.3-0.8s-0.1-0.5-0.3-0.8c-0.2-0.2-0.5-0.3-0.8-0.3s-0.6,0.1-0.8,0.3
	c-0.2,0.2-0.3,0.5-0.3,0.8s0.1,0.5,0.3,0.8C19.4,35.3,19.6,35.4,19.9,35.4z M13.7,29.2c0.3,0,0.5-0.1,0.8-0.3
	c0.2-0.2,0.3-0.5,0.3-0.8s-0.1-0.5-0.3-0.8C14.3,27.1,14,27,13.7,27s-0.5,0.1-0.7,0.3c-0.2,0.2-0.3,0.5-0.3,0.8s0.1,0.5,0.3,0.8
	C13.2,29.1,13.4,29.2,13.7,29.2z M19.9,14.8c0.3,0,0.5-0.1,0.8-0.3S21,14,21,13.7s-0.1-0.5-0.3-0.7c-0.2-0.2-0.5-0.3-0.8-0.3
	s-0.5,0.1-0.8,0.3c-0.2,0.2-0.3,0.5-0.3,0.8s0.1,0.5,0.3,0.8C19.4,14.7,19.6,14.8,19.9,14.8z M28.1,21.6c0.5,0,0.8-0.2,1.2-0.5
	c0.3-0.3,0.5-0.7,0.5-1.2c0-0.4-0.2-0.8-0.5-1.2c-0.3-0.3-0.7-0.5-1.2-0.5c-0.4,0-0.8,0.2-1.2,0.5c-0.3,0.3-0.5,0.7-0.5,1.2
	s0.2,0.8,0.5,1.2C27.3,21.4,27.7,21.6,28.1,21.6z M28.1,14.8c0.3,0,0.5-0.1,0.8-0.3c0.2-0.2,0.3-0.5,0.3-0.8s-0.1-0.5-0.3-0.7
	c-0.2-0.2-0.5-0.3-0.8-0.3s-0.5,0.1-0.8,0.3c-0.2,0.2-0.3,0.5-0.3,0.8s0.1,0.5,0.3,0.8C27.5,14.7,27.8,14.8,28.1,14.8z M34.3,29.2
	c0.3,0,0.5-0.1,0.8-0.3s0.3-0.5,0.3-0.8s-0.1-0.5-0.3-0.8c-0.2-0.2-0.5-0.3-0.8-0.3s-0.5,0.1-0.8,0.3c-0.2,0.2-0.3,0.5-0.3,0.8
	s0.1,0.5,0.3,0.8C33.8,29.1,34,29.2,34.3,29.2z M34.3,21c0.3,0,0.5-0.1,0.8-0.3s0.3-0.5,0.3-0.8s-0.1-0.5-0.3-0.8
	c-0.2-0.2-0.5-0.3-0.8-0.3s-0.5,0.1-0.8,0.3c-0.2,0.2-0.3,0.5-0.3,0.8s0.1,0.5,0.3,0.8C33.8,20.9,34,21,34.3,21z M24,42
	c-2.5,0-4.8-0.5-7-1.4s-4.1-2.2-5.7-3.8s-2.9-3.5-3.8-5.7C6.5,28.8,6,26.5,6,24s0.5-4.8,1.4-7s2.2-4.1,3.8-5.7s3.5-2.9,5.7-3.8
	C19.2,6.5,21.5,6,24,6s4.8,0.5,7,1.4s4.1,2.2,5.7,3.8c1.6,1.6,2.9,3.5,3.8,5.7c0.9,2.2,1.4,4.5,1.4,7s-0.5,4.8-1.4,7
	s-2.2,4.1-3.8,5.7s-3.5,2.9-5.7,3.8C28.8,41.5,26.5,42,24,42z M28.1,35.4c0.3,0,0.5-0.1,0.8-0.3c0.2-0.2,0.3-0.5,0.3-0.8
	s-0.1-0.5-0.3-0.8c-0.2-0.2-0.5-0.3-0.8-0.3s-0.5,0.1-0.8,0.3C27.1,33.8,27,34,27,34.3s0.1,0.5,0.3,0.8
	C27.5,35.3,27.8,35.4,28.1,35.4z M28.1,29.8c0.5,0,0.8-0.2,1.2-0.5c0.3-0.3,0.5-0.7,0.5-1.2c0-0.4-0.2-0.8-0.5-1.2
	c-0.3-0.3-0.7-0.5-1.2-0.5c-0.4,0-0.8,0.2-1.2,0.5c-0.3,0.3-0.5,0.7-0.5,1.2s0.2,0.8,0.5,1.2C27.3,29.6,27.7,29.8,28.1,29.8z"/>
</svg>
