<?xml version="1.0" encoding="utf-8"?>
<!-- Generator: Adobe Illustrator 26.3.1, SVG Export Plug-In . SVG Version: 6.00 Build 0)  -->
<svg version="1.1" id="Слой_1" xmlns="http://www.w3.org/2000/svg" xmlns:xlink="http://www.w3.org/1999/xlink" x="0px" y="0px"
	 viewBox="0 0 48 48" style="enable-background:new 0 0 48 48;" xml:space="preserve">
<path d="M16.4,38.1c1,0.7,2.1,1.2,3.3,1.6c1.2,0.4,2.4,0.5,3.7,0.5l-1.6,1.7c-0.9-0.1-1.9-0.3-2.7-0.6c-0.9-0.3-1.8-0.7-2.7-1.1
	c-1.2,0.6-2.4,1.1-3.6,1.4c-1.2,0.3-2.4,0.5-3.6,0.5H8v-1.5h1.1c1.3,0,2.5-0.2,3.8-0.6C14.2,39.4,15.3,38.9,16.4,38.1z M27.4,42
	l3.4-3.4c-0.9,0-1.7-0.3-2.4-1c-0.7-0.7-1-1.5-1-2.4v-5.3c0-2,0.7-3.6,2.1-4.9s3.1-1.9,5.3-1.9c2.1,0,3.9,0.6,5.2,1.9
	c1.4,1.3,2,2.9,2,4.9v5.3c0,0.9-0.3,1.7-1,2.4s-1.5,1-2.4,1L42,42H27.4z M34.5,36.4c0.3,0,0.7-0.1,0.9-0.4c0.3-0.3,0.4-0.6,0.4-1
	s-0.1-0.7-0.4-1c-0.3-0.3-0.6-0.4-0.9-0.4c-0.4,0-0.7,0.1-1,0.4c-0.3,0.3-0.4,0.6-0.4,1s0.1,0.7,0.4,1
	C33.8,36.3,34.1,36.4,34.5,36.4z M29.2,31.6h11.1v-1.7c0-0.3,0-0.6-0.1-0.9s-0.1-0.5-0.2-0.8H29.5c-0.1,0.3-0.2,0.5-0.2,0.8
	c-0.1,0.3-0.1,0.6-0.1,0.9C29.2,29.9,29.2,31.6,29.2,31.6z M20.2,6h7.4v4.5h6.8c0.8,0,1.4,0.3,2,0.8c0.5,0.5,0.8,1.2,0.8,2v5.8
	C37,19,36.7,19,36.5,18.9c-0.3,0-0.5-0.1-0.8-0.1v-5.7c0-0.3-0.1-0.6-0.3-0.8S34.9,12,34.6,12H13.3c-0.3,0-0.6,0.1-0.8,0.3
	s-0.3,0.5-0.3,0.8v9.3l11.7-3.7l4.9,1.6c-1.8,0.9-3.2,2.3-4.2,4s-1.5,3.6-1.5,5.7v5.5c-0.9-0.1-1.9-0.5-2.9-1.1s-2.3-1.8-3.7-3.4
	c-1.2,1.3-2.2,2.3-3.2,3c-1,0.7-2,1.2-3.1,1.6l-2.7-10c-0.1-0.3,0-0.7,0.1-1C7.8,24.3,8,24,8.4,23.9l2.4-0.8v-9.7
	c0-0.8,0.3-1.4,0.8-2c0.5-0.5,1.2-0.8,2-0.8h6.8V6H20.2z"/>
</svg>
