<?xml version="1.0" encoding="utf-8"?>
<!-- Generator: Adobe Illustrator 26.3.1, SVG Export Plug-In . SVG Version: 6.00 Build 0)  -->
<svg version="1.1" id="Слой_1" xmlns="http://www.w3.org/2000/svg" xmlns:xlink="http://www.w3.org/1999/xlink" x="0px" y="0px"
	 viewBox="0 0 48 48" style="enable-background:new 0 0 48 48;" xml:space="preserve">
<path d="M17.3,35l4.2-19.4l-6.6,2.8v4.4h-1.5v-5.5l8.6-3.6c0.4-0.2,0.9-0.3,1.3-0.4c0.4-0.1,0.8-0.1,1.2,0c0.4,0.1,0.8,0.2,1.1,0.4
	c0.3,0.2,0.6,0.5,0.9,0.8l1.4,2.3c1.3,2,2.5,3.5,3.7,4.6c1.2,1,2.5,1.6,3.8,1.8v1.5c-1.8-0.2-3.4-0.9-4.9-2.1
	c-1.5-1.2-2.9-2.9-4.2-5.1l-1.7,6.4l4.3,4.8V35h-1.5v-5.4L21.9,24l-3.1,11H17.3z M27.2,10.7c-0.9,0-1.7-0.3-2.3-0.9
	C24.3,9.2,24,8.4,24,7.5s0.3-1.7,0.9-2.3s1.4-0.9,2.3-0.9s1.7,0.3,2.3,0.9c0.6,0.6,0.9,1.4,0.9,2.3s-0.3,1.7-0.9,2.3
	C28.9,10.4,28.1,10.7,27.2,10.7z M24,42c-2.5,0-4.8-0.5-7-1.4s-4.1-2.2-5.7-3.9c-1.6-1.6-2.9-3.5-3.9-5.7C6.5,28.8,6,26.5,6,24
	c0-3.5,0.9-6.7,2.8-9.6c1.8-2.9,4.3-5.1,7.2-6.5l0.7,1.4c-2.7,1.3-4.9,3.3-6.6,5.9S7.6,20.7,7.6,24c0,4.6,1.6,8.5,4.8,11.7
	s7.1,4.8,11.7,4.8s8.5-1.6,11.7-4.8s4.8-7.1,4.8-11.7H42c0,2.5-0.5,4.8-1.4,7s-2.2,4.1-3.9,5.7c-1.6,1.6-3.5,2.9-5.7,3.9
	C28.8,41.5,26.5,42,24,42z"/>
</svg>
