<?xml version="1.0" encoding="utf-8"?>
<!-- Generator: Adobe Illustrator 26.3.1, SVG Export Plug-In . SVG Version: 6.00 Build 0)  -->
<svg version="1.1" id="Слой_1" xmlns="http://www.w3.org/2000/svg" xmlns:xlink="http://www.w3.org/1999/xlink" x="0px" y="0px"
	 viewBox="0 0 48 48" style="enable-background:new 0 0 48 48;" xml:space="preserve">
<path d="M24.1,37.5c-1.7-1.1-3.5-2-5.4-2.6S14.8,34,12.8,34c-1,0-1.9,0.1-2.8,0.2c-0.9,0.1-1.8,0.4-2.8,0.6
	c-0.8,0.3-1.5,0.2-2.1-0.3c-0.7-0.5-1-1.2-1-2.1V13.7c0-0.6,0.1-1.1,0.4-1.5c0.3-0.5,0.7-0.8,1.2-1c1.1-0.4,2.3-0.8,3.5-1
	s2.4-0.3,3.6-0.3c2.2,0,4.2,0.3,5.9,0.9c1.8,0.6,3.5,1.5,5.3,2.6c0.3,0.2,0.5,0.4,0.6,0.7c0.2,0.3,0.2,0.6,0.2,1v20.2
	c1.7-0.9,3.4-1.6,5.1-2.1c1.7-0.4,3.5-0.7,5.4-0.7c1.2,0,2.4,0.1,3.4,0.2c1.1,0.1,1.9,0.3,2.5,0.5c0.3,0.1,0.6,0.1,0.8-0.1
	c0.3-0.2,0.4-0.4,0.4-0.8v-21l0,0l0,0c0.5,0.2,0.8,0.6,1.1,1s0.4,0.9,0.4,1.5v18.9c0,0.9-0.4,1.6-1.1,2c-0.7,0.5-1.5,0.6-2.3,0.2
	c-0.9-0.3-1.8-0.5-2.6-0.6c-0.9-0.1-1.8-0.2-2.7-0.2c-2,0-4,0.3-5.9,0.9C27.5,35.6,25.7,36.4,24.1,37.5z M30.2,28.3V8.2L37.1,6v20.1
	L30.2,28.3z"/>
</svg>
