<?xml version="1.0" encoding="utf-8"?>
<!-- Generator: Adobe Illustrator 26.3.1, SVG Export Plug-In . SVG Version: 6.00 Build 0)  -->
<svg version="1.1" id="Слой_1" xmlns="http://www.w3.org/2000/svg" xmlns:xlink="http://www.w3.org/1999/xlink" x="0px" y="0px"
	 viewBox="0 0 48 48" style="enable-background:new 0 0 48 48;" xml:space="preserve">
<path d="M9.5,42c-0.4,0-0.8-0.2-1.1-0.5S8,40.9,8,40.5V15.1c0-0.4,0.1-0.8,0.3-1.1s0.5-0.5,0.9-0.6l16.3-4.6
	c0.5-0.1,0.9-0.1,1.2,0.1c0.4,0.2,0.5,0.5,0.5,0.9v3.7h3.1c0.4,0,0.7,0.2,1,0.5s0.4,0.7,0.4,1.1v7c-2.8,0.4-5.2,1.7-7,3.9
	c-1.9,2.1-2.8,4.6-2.8,7.5c0,1.7,0.3,3.3,1,4.8s1.7,2.8,2.9,3.9C26,42,9.5,42,9.5,42z M14.8,13.5h10.9v-3.3L14.8,13.5z M33.5,41.2
	c-2.2,0-4.1-0.8-5.6-2.3s-2.3-3.4-2.3-5.6c0-2.2,0.8-4.1,2.3-5.6s3.4-2.3,5.6-2.3s4.1,0.8,5.6,2.3s2.3,3.4,2.3,5.6s-0.8,4-2.3,5.6
	C37.6,40.4,35.7,41.2,33.5,41.2z M31.6,36.9l5.1-3.7l-5.1-3.7V36.9z"/>
</svg>
