<?xml version="1.0" encoding="utf-8"?>
<!-- Generator: Adobe Illustrator 26.3.1, SVG Export Plug-In . SVG Version: 6.00 Build 0)  -->
<svg version="1.1" id="Слой_1" xmlns="http://www.w3.org/2000/svg" xmlns:xlink="http://www.w3.org/1999/xlink" x="0px" y="0px"
	 viewBox="0 0 48 48" style="enable-background:new 0 0 48 48;" xml:space="preserve">
<path d="M40.2,13.6h-10v-1.5h10V13.6z M12,39V10.6c0-0.7,0.3-1.4,0.8-1.9s1.2-0.8,2-0.8h13.6c-0.6,0.7-1,1.5-1.3,2.4
	c-0.3,0.8-0.4,1.7-0.4,2.6c0,2.3,0.7,4.2,2.2,5.8c1.5,1.6,3.3,2.5,5.5,2.7c0.3,0,0.5,0.1,0.8,0.1c0.2,0,0.5,0,0.8-0.1V39l-12-5.2
	L12,39z"/>
</svg>
