<?xml version="1.0" encoding="utf-8"?>
<!-- Generator: Adobe Illustrator 26.3.1, SVG Export Plug-In . SVG Version: 6.00 Build 0)  -->
<svg version="1.1" id="Слой_1" xmlns="http://www.w3.org/2000/svg" xmlns:xlink="http://www.w3.org/1999/xlink" x="0px" y="0px"
	 viewBox="0 0 48 48" style="enable-background:new 0 0 48 48;" xml:space="preserve">
<path d="M12,39V10.6c0-0.7,0.3-1.4,0.8-1.9s1.2-0.8,2-0.8h13.6c-0.6,0.7-1,1.5-1.3,2.4c-0.3,0.8-0.4,1.7-0.4,2.6
	c0,2.3,0.7,4.2,2.2,5.8c1.5,1.6,3.3,2.5,5.5,2.7c0.3,0,0.5,0.1,0.8,0.1c0.2,0,0.5,0,0.8-0.1V39l-12-5.2L12,39z M34.5,17.9v-4.2h-4.2
	v-1.5h4.2V7.9H36v4.2h4.2v1.5H36v4.2h-1.5V17.9z"/>
</svg>
