<?xml version="1.0" encoding="utf-8"?>
<!-- Generator: Adobe Illustrator 26.3.1, SVG Export Plug-In . SVG Version: 6.00 Build 0)  -->
<svg version="1.1" id="Слой_1" xmlns="http://www.w3.org/2000/svg" xmlns:xlink="http://www.w3.org/1999/xlink" x="0px" y="0px"
	 viewBox="0 0 48 48" style="enable-background:new 0 0 48 48;" xml:space="preserve">
<path d="M14,42c-1.1,0-2-0.4-2.8-1.1c-0.8-0.7-1.2-1.6-1.2-2.6V11.5c0-1,0.3-1.9,1-2.7s1.5-1.2,2.6-1.5l17.2-3.7v28.8l-17.3,3.9
	c-0.5,0.1-1,0.4-1.4,0.8c-0.4,0.4-0.6,0.8-0.6,1.3c0,0.6,0.2,1.1,0.7,1.5s1,0.6,1.7,0.6h22.5V10H38v32H14z M14.8,34.4l1.5-0.4V8.3
	l-1.5,0.3C14.8,8.7,14.8,34.4,14.8,34.4z"/>
</svg>
