<?xml version="1.0" encoding="utf-8"?>
<!-- Generator: Adobe Illustrator 26.3.1, SVG Export Plug-In . SVG Version: 6.00 Build 0)  -->
<svg version="1.1" id="Слой_1" xmlns="http://www.w3.org/2000/svg" xmlns:xlink="http://www.w3.org/1999/xlink" x="0px" y="0px"
	 viewBox="0 0 48 48" style="enable-background:new 0 0 48 48;" xml:space="preserve">
<path d="M4,48v-3.1h40V48H4z M10,35.6v-4.1L33.5,8.1c0.2-0.2,0.4-0.3,0.6-0.4c0.2-0.1,0.4-0.1,0.6-0.1c0.2,0,0.4,0,0.6,0.1
	c0.2,0.1,0.4,0.2,0.5,0.4l1.8,1.8c0.1,0.2,0.3,0.3,0.3,0.5C38,10.6,38,10.8,38,11s0,0.4-0.1,0.6c-0.1,0.2-0.2,0.4-0.3,0.6L14,35.6
	H10z M33.9,13.5l2.5-2.5l-1.8-1.8l-2.5,2.5L33.9,13.5z"/>
</svg>
