<?xml version="1.0" encoding="utf-8"?>
<!-- Generator: Adobe Illustrator 26.3.1, SVG Export Plug-In . SVG Version: 6.00 Build 0)  -->
<svg version="1.1" id="Слой_1" xmlns="http://www.w3.org/2000/svg" xmlns:xlink="http://www.w3.org/1999/xlink" x="0px" y="0px"
	 viewBox="0 0 48 48" style="enable-background:new 0 0 48 48;" xml:space="preserve">
<path d="M23.2,41.6L9.8,33.9c-0.4-0.2-0.7-0.6-1-1c-0.2-0.4-0.3-0.8-0.3-1.3v-6.8h9v5.8h5.7C23.2,30.5,23.2,41.6,23.2,41.6z
	 M8.5,23.2v-6.8c0-0.5,0.1-0.9,0.3-1.3c0.2-0.4,0.5-0.7,1-1l13.4-7.8v11.1h-5.7v5.8H8.5z M19,29V19h9.9v10H19z M24.8,41.6V30.5h5.7
	v-5.8h9v6.8c0,0.5-0.1,0.9-0.3,1.3c-0.2,0.4-0.6,0.7-1,1C38.2,33.9,24.8,41.6,24.8,41.6z M30.5,23.2v-5.8h-5.7v-11l13.4,7.8
	c0.4,0.2,0.7,0.6,1,1c0.2,0.4,0.3,0.8,0.3,1.3v6.8C39.5,23.2,30.5,23.2,30.5,23.2z"/>
</svg>
