<?xml version="1.0" encoding="utf-8"?>
<!-- Generator: Adobe Illustrator 26.3.1, SVG Export Plug-In . SVG Version: 6.00 Build 0)  -->
<svg version="1.1" id="Слой_1" xmlns="http://www.w3.org/2000/svg" xmlns:xlink="http://www.w3.org/1999/xlink" x="0px" y="0px"
	 viewBox="0 0 48 48" style="enable-background:new 0 0 48 48;" xml:space="preserve">
<path d="M10.8,40c-0.8,0-1.4-0.3-2-0.8C8.3,38.7,8,38,8,37.2V10.8c0-0.8,0.3-1.4,0.8-2C9.3,8.3,10,8,10.8,8h26.5
	c0.8,0,1.4,0.3,2,0.8c0.5,0.5,0.8,1.2,0.8,2v26.5c0,0.8-0.3,1.4-0.8,2c-0.5,0.5-1.2,0.8-2,0.8L10.8,40L10.8,40z M24,30.9
	c0.7,0,1.3-0.2,1.8-0.7s0.7-1.1,0.7-1.8c0-0.7-0.2-1.3-0.7-1.8s-1.1-0.7-1.8-0.7c-0.7,0-1.3,0.2-1.8,0.7s-0.7,1.1-0.7,1.8
	c0,0.7,0.2,1.3,0.7,1.8C22.7,30.7,23.3,30.9,24,30.9z M9.5,29.4H20c-0.4-1.3-0.1-2.4,0.7-3.5s1.9-1.6,3.2-1.6c1.3,0,2.4,0.5,3.2,1.6
	c0.8,1.1,1.1,2.2,0.7,3.5h10.5V10.8c0-0.3-0.1-0.6-0.4-0.8c-0.3-0.3-0.5-0.4-0.8-0.4H10.8c-0.3,0-0.6,0.1-0.8,0.4
	c-0.3,0.3-0.4,0.5-0.4,0.8C9.5,10.8,9.5,29.4,9.5,29.4z"/>
</svg>
