<?xml version="1.0" encoding="utf-8"?>
<!-- Generator: Adobe Illustrator 26.3.1, SVG Export Plug-In . SVG Version: 6.00 Build 0)  -->
<svg version="1.1" id="Слой_1" xmlns="http://www.w3.org/2000/svg" xmlns:xlink="http://www.w3.org/1999/xlink" x="0px" y="0px"
	 viewBox="0 0 48 48" style="enable-background:new 0 0 48 48;" xml:space="preserve">
<path d="M10.8,40c-0.7,0-1.4-0.3-1.9-0.8S8,38,8,37.2V14.7c0-0.3,0.1-0.6,0.2-0.9c0.1-0.3,0.2-0.6,0.4-0.8l3.2-4
	c0.2-0.3,0.6-0.6,0.9-0.8C13.1,8.1,13.5,8,13.9,8h20c0.4,0,0.9,0.1,1.3,0.3c0.4,0.2,0.7,0.4,1,0.8l3.2,4.1c0.2,0.3,0.3,0.5,0.4,0.8
	c0.1,0.3,0.2,0.6,0.2,0.9v5.3c-0.8,0.1-1.5,0.2-2.1,0.5s-1.3,0.7-1.8,1.2L30,28V14.8H18v14.1l6-3l5.4,2.7l-5.2,5.2V40H10.8z
	 M28.5,40v-4.4L39.1,25c0.2-0.2,0.4-0.3,0.6-0.4c0.2-0.1,0.4-0.1,0.6-0.1c0.2,0,0.4,0,0.7,0.1c0.2,0.1,0.4,0.2,0.6,0.4l1.8,1.9
	c0.2,0.2,0.3,0.4,0.4,0.6c0.1,0.2,0.1,0.4,0.1,0.6s0,0.4-0.1,0.6s-0.2,0.4-0.4,0.6L32.9,40H28.5z M40.4,30l1.8-1.9l-1.8-1.9
	l-1.9,1.9L40.4,30z M10.3,13.3h27.3L34.9,10c-0.1-0.1-0.3-0.2-0.4-0.3c-0.2-0.1-0.3-0.1-0.5-0.1H14c-0.2,0-0.4,0-0.5,0.1
	c-0.2,0-0.4,0.1-0.5,0.3L10.3,13.3z"/>
</svg>
