<?xml version="1.0" encoding="utf-8"?>
<!-- Generator: Adobe Illustrator 26.3.1, SVG Export Plug-In . SVG Version: 6.00 Build 0)  -->
<svg version="1.1" id="Слой_1" xmlns="http://www.w3.org/2000/svg" xmlns:xlink="http://www.w3.org/1999/xlink" x="0px" y="0px"
	 viewBox="0 0 48 48" style="enable-background:new 0 0 48 48;" xml:space="preserve">
<path d="M10.8,40c-0.7,0-1.4-0.3-1.9-0.8C8.3,38.6,8,38,8,37.2V14.7c0-0.3,0.1-0.6,0.2-0.9c0.1-0.3,0.2-0.6,0.4-0.8l3.2-4
	c0.2-0.3,0.6-0.6,0.9-0.8C13.1,8.1,13.5,8,14,8h20c0.4,0,0.9,0.1,1.3,0.3c0.4,0.2,0.7,0.4,1,0.8l3.2,4.1c0.2,0.3,0.3,0.5,0.5,0.9
	c0.1,0.3,0.1,0.6,0.1,0.9v8.4c-0.3-0.1-0.6-0.1-0.8-0.2c-0.3,0-0.6,0-0.8,0c-1.6,0-3.2,0.3-4.6,1c-1.4,0.6-2.7,1.5-3.7,2.7V14.8H18
	v14.1l6-3l4.8,2.4c-0.6,0.9-1,1.8-1.3,2.8c-0.3,1-0.5,2.1-0.5,3.2c0,1,0.1,2,0.4,3s0.7,1.8,1.3,2.7C28.8,40,10.8,40,10.8,40z
	 M37.5,41.1v-6h-6v-1.5h6v-6H39v6h6v1.5h-6v6H37.5z M10.3,13.3h27.3L34.9,10c-0.1-0.1-0.3-0.2-0.4-0.3c-0.2-0.1-0.3-0.1-0.5-0.1H14
	c-0.2,0-0.4,0-0.5,0.1c-0.2,0-0.4,0.1-0.5,0.3L10.3,13.3z"/>
</svg>
