<?xml version="1.0" encoding="utf-8"?>
<!-- Generator: Adobe Illustrator 26.3.1, SVG Export Plug-In . SVG Version: 6.00 Build 0)  -->
<svg version="1.1" id="Слой_1" xmlns="http://www.w3.org/2000/svg" xmlns:xlink="http://www.w3.org/1999/xlink" x="0px" y="0px"
	 viewBox="0 0 48 48" style="enable-background:new 0 0 48 48;" xml:space="preserve">
<path d="M11.5,40.9c-1.5,0-2.6-0.3-3.4-0.9C7.4,39.4,7,38.5,7,37.2c0-1.6,0.7-2.7,2.1-3.1c1.4-0.5,3-0.7,4.9-0.7h0.9V31
	c0-0.9,0-1.7-0.1-2.3c-0.1-0.6-0.1-1.1-0.3-1.5c-0.1-0.4-0.3-0.7-0.5-0.9c-0.2-0.2-0.4-0.3-0.7-0.3s-0.5,0-0.7,0.1s-0.4,0.2-0.5,0.3
	c-0.1,0.1-0.2,0.3-0.2,0.4c0,0.2,0,0.3,0.1,0.5c0.2,0.3,0.4,0.6,0.6,0.9s0.3,0.6,0.3,1c0,0.7-0.2,1.3-0.7,1.8c-0.6,0.7-1.2,1-1.9,1
	S9,31.8,8.5,31.3s-0.7-1.1-0.7-1.8c0-0.8,0.2-1.4,0.5-1.9s0.8-0.9,1.4-1.2c0.6-0.3,1.2-0.5,2-0.6s1.6-0.2,2.5-0.2
	c2.4,0,4.1,0.4,5,1.3c0.9,0.8,1.4,2.4,1.4,4.5v6.2c0,0.5,0.1,0.9,0.2,1.2s0.4,0.4,0.7,0.4c0.3,0,0.6-0.3,0.8-0.8
	c0.2-0.5,0.3-1.3,0.4-2.4h0.5c-0.1,1.8-0.4,3-1,3.7s-1.6,1.1-2.9,1.1c-1.2,0-2.2-0.2-2.9-0.6c-0.7-0.4-1.1-0.9-1.3-1.7
	c-0.3,0.8-0.7,1.4-1.2,1.8C13.2,40.7,12.4,40.9,11.5,40.9z M27.3,40.9c-0.6,0-1-0.2-1.4-0.7c-0.3-0.5-0.4-1-0.2-1.5L30,27.3
	c0.2-0.5,0.5-0.9,0.9-1.2c0.4-0.3,0.9-0.5,1.5-0.5c0.5,0,1,0.2,1.4,0.5s0.7,0.7,0.9,1.2L39,38.7c0.2,0.5,0.2,1-0.2,1.5
	c-0.3,0.5-0.8,0.7-1.4,0.7c-0.4,0-0.7-0.1-1-0.3s-0.5-0.5-0.6-0.8L35,37.4h-5.4l-0.8,2.4c-0.1,0.3-0.3,0.6-0.6,0.8
	C28,40.8,27.6,40.9,27.3,40.9z M13.6,39.7c0.4,0,0.7-0.3,0.9-0.9c0.2-0.6,0.4-1.3,0.4-2.1v-2.8c-0.7,0-1.3,0.2-1.6,0.7
	c-0.3,0.4-0.5,1.2-0.5,2.1v0.5c0,1,0.1,1.7,0.2,2C13,39.5,13.3,39.7,13.6,39.7z M30.8,34.4H34l-1.6-4.8L30.8,34.4z M29.2,22.4
	c-1.4,0-2.4-0.5-3.2-1.4c-0.8-1-1.2-2.2-1.2-3.8c0-2.9,0.9-5.3,2.8-7.2s4.2-2.8,7.2-2.8c1.2,0,2.2,0.1,2.9,0.4s1.1,0.6,1.1,1
	c0,0.2,0,0.3-0.1,0.5s-0.2,0.3-0.3,0.5c-0.2,0.2-0.3,0.3-0.5,0.4c-0.2,0.1-0.4,0.1-0.6,0c-0.4-0.1-0.8-0.2-1.4-0.3
	c-0.5-0.1-1-0.1-1.4-0.1c-2,0-3.6,0.7-4.8,2c-1.2,1.4-1.8,3.1-1.8,5.4c0,0.6,0.1,1.3,0.3,1.9c0.2,0.7,0.7,1,1.5,1
	c0.3,0,0.6-0.1,0.9-0.2s0.6-0.3,0.8-0.6c0.5-0.5,0.9-1.3,1.3-2.5s0.8-2.6,1.1-4.3c0.1-0.4,0.2-0.6,0.4-0.8s0.6-0.2,1-0.2
	c0.5,0,0.9,0.1,1.2,0.4c0.3,0.3,0.3,0.6,0.2,1c-0.3,1.2-0.6,2.3-0.7,3.2c-0.1,0.9-0.2,1.7-0.2,2.4c0,0.6,0.1,1,0.2,1.2
	c0.2,0.3,0.4,0.4,0.7,0.4s0.6-0.1,0.9-0.4c0.3-0.2,0.7-0.7,1.2-1.3c0.1-0.1,0.3-0.2,0.6-0.3c0.2,0,0.4,0.1,0.5,0.3
	c0.1,0.2,0.2,0.4,0.2,0.7c0,0.8-0.5,1.6-1.4,2.3c-0.9,0.7-1.8,1.1-2.8,1.1c-0.7,0-1.4-0.2-1.9-0.6s-0.9-1-1.1-1.7
	c-0.4,0.7-0.9,1.3-1.6,1.7C30.7,22.2,30,22.4,29.2,22.4z M8.7,22.3V13c0-1.6,0.6-3,1.7-4.2c1.1-1.1,2.5-1.7,4.2-1.7s3.1,0.6,4.2,1.7
	s1.7,2.5,1.7,4.2v9.3h-3.4v-3.4H12v3.4C12.1,22.3,8.7,22.3,8.7,22.3z M12.1,15.5h5.1V13c0-0.7-0.2-1.3-0.7-1.8s-1.1-0.7-1.8-0.7
	s-1.3,0.2-1.8,0.7s-0.7,1.1-0.7,1.8C12.1,13,12.1,15.5,12.1,15.5z"/>
</svg>
