<?xml version="1.0" encoding="utf-8"?>
<!-- Generator: Adobe Illustrator 26.3.1, SVG Export Plug-In . SVG Version: 6.00 Build 0)  -->
<svg version="1.1" id="Слой_1" xmlns="http://www.w3.org/2000/svg" xmlns:xlink="http://www.w3.org/1999/xlink" x="0px" y="0px"
	 viewBox="0 0 48 48" style="enable-background:new 0 0 48 48;" xml:space="preserve">
<path d="M23.9,40.9c-1.2,0-2.3-0.1-3.5-0.4c-1.1-0.3-2.1-0.6-3-1c-1.3-0.6-2.4-1.2-3.2-2S13,35.8,13,34.8V25c0-0.9,0.3-1.7,1-2.4
	c0.7-0.7,1.5-1.4,2.5-2c1.1-0.6,2.2-1,3.5-1.3s2.6-0.5,3.9-0.5s2.6,0.2,3.9,0.5s2.5,0.7,3.5,1.3c1.1,0.6,1.9,1.2,2.6,2
	c0.6,0.7,1,1.5,1,2.4v9.8c0,0.5-0.1,0.9-0.3,1.4s-0.5,0.9-0.9,1.3c-0.4,0.4-0.9,0.8-1.4,1.1c-0.5,0.4-1.1,0.7-1.8,1
	c0-0.1,0.1-0.5,0.1-1.2c0-1.6-0.6-3-1.7-4.2c-1.2-1.2-2.6-1.7-4.2-1.7c-1.2,0-2.3,0.3-3.2,1c-0.9,0.6-1.6,1.5-2.1,2.5
	c0.9,0.3,1.7,0.4,2.5,0.5s1.4,0.1,2,0.1c0.5,0,0.9,0,1.2-0.1c0.3,0,0.5,0,0.6,0v4.4C25.4,41,25.1,41,24.8,41
	C24.5,40.9,24.2,40.9,23.9,40.9z M29.1,31.6c0.9,0,1.7-0.3,2.4-1c0.7-0.7,1-1.5,1-2.4s-0.3-1.7-1-2.4c-0.7-0.7-1.5-1-2.4-1
	s-1.7,0.3-2.4,1c-0.7,0.7-1,1.5-1,2.4s0.3,1.7,1,2.4C27.3,31.3,28.1,31.6,29.1,31.6z M24,17.2c1.4,0,2.6-0.5,3.6-1.5
	s1.5-2.2,1.5-3.6s-0.5-2.6-1.5-3.6S25.4,7,24,7s-2.6,0.5-3.6,1.5s-1.5,2.2-1.5,3.6s0.5,2.6,1.5,3.6S22.6,17.2,24,17.2z"/>
</svg>
