<?xml version="1.0" encoding="utf-8"?>
<!-- Generator: Adobe Illustrator 26.3.1, SVG Export Plug-In . SVG Version: 6.00 Build 0)  -->
<svg version="1.1" id="Слой_1" xmlns="http://www.w3.org/2000/svg" xmlns:xlink="http://www.w3.org/1999/xlink" x="0px" y="0px"
	 viewBox="0 0 48 48" style="enable-background:new 0 0 48 48;" xml:space="preserve">
<path d="M11.8,40c-0.4,0-0.8-0.1-1.1-0.4c-0.3-0.3-0.4-0.7-0.4-1.1V19.6c-1.1-0.6-2.1-1.4-3-2.3c-0.9-1-1.3-2.2-1.3-3.6
	c0-1.6,0.5-3,1.6-4.1S10.1,8,11.7,8h24.6c1.6,0,3,0.5,4.1,1.6s1.6,2.5,1.6,4.1c0,1.4-0.4,2.6-1.3,3.6c-0.9,0.9-1.8,1.7-2.9,2.3v18.9
	c0,0.4-0.1,0.8-0.4,1.1C37,39.9,36.7,40,36.2,40H11.8z M23.4,33.9c0.2,0.2,0.4,0.3,0.6,0.3s0.4-0.1,0.6-0.3l7.3-7.2
	c0.2-0.2,0.3-0.4,0.3-0.6s-0.1-0.4-0.3-0.6l-7.3-7.3C24.4,18,24.2,18,24,18c-0.3,0-0.5,0.1-0.6,0.2l-7.2,7.3
	c-0.2,0.2-0.3,0.4-0.3,0.6s0.1,0.4,0.3,0.6C16.1,26.6,23.4,33.9,23.4,33.9z M24,32.3L17.7,26l6.3-6.4l6.4,6.4L24,32.3z"/>
</svg>
