<?xml version="1.0" encoding="utf-8"?>
<!-- Generator: Adobe Illustrator 26.3.1, SVG Export Plug-In . SVG Version: 6.00 Build 0)  -->
<svg version="1.1" id="Слой_1" xmlns="http://www.w3.org/2000/svg" xmlns:xlink="http://www.w3.org/1999/xlink" x="0px" y="0px"
	 viewBox="0 0 48 48" style="enable-background:new 0 0 48 48;" xml:space="preserve">
<path d="M18.5,42c-0.2,0-0.4,0-0.5,0c-0.2,0-0.3,0-0.5,0c3-1.8,5.4-4.2,7.1-7.5c1.7-3.2,2.5-6.7,2.5-10.6c0-3.8-0.8-7.4-2.5-10.6
	s-4-5.7-7.1-7.5c0.1,0,0.2,0,0.4,0.1c0.2,0,0.4,0,0.6,0c2.4,0,4.8,0.5,6.9,1.4c2.2,0.9,4.1,2.2,5.7,3.9c1.6,1.6,2.9,3.5,3.8,5.7
	c0.9,2.2,1.4,4.5,1.4,7s-0.5,4.8-1.4,7s-2.2,4.1-3.8,5.7c-1.6,1.6-3.5,2.9-5.7,3.9C23.3,41.5,21,42,18.5,42z"/>
</svg>
