<?xml version="1.0" encoding="utf-8"?>
<!-- Generator: Adobe Illustrator 26.3.1, SVG Export Plug-In . SVG Version: 6.00 Build 0)  -->
<svg version="1.1" id="Слой_1" xmlns="http://www.w3.org/2000/svg" xmlns:xlink="http://www.w3.org/1999/xlink" x="0px" y="0px"
	 viewBox="0 0 48 48" style="enable-background:new 0 0 48 48;" xml:space="preserve">
<path d="M24,43.8L18.1,38H10v-8.1L4.1,24l5.9-5.9V10h8.1L24,4.1l5.9,5.9H38v8.1l5.9,5.9L38,29.9V38h-8.1L24,43.8z M24,32.3
	c2.3,0,4.3-0.8,5.9-2.4s2.4-3.6,2.4-5.9s-0.8-4.3-2.5-5.9c-1.6-1.6-3.6-2.4-5.9-2.4s-4.3,0.8-5.9,2.5c-1.6,1.6-2.4,3.6-2.4,5.9
	s0.8,4.3,2.4,5.9C19.7,31.5,21.7,32.3,24,32.3z M24,30.5c-1.8,0-3.3-0.6-4.6-1.9c-1.3-1.3-1.9-2.8-1.9-4.6c0-1.8,0.6-3.4,1.9-4.6
	c1.3-1.3,2.8-1.9,4.6-1.9c1.8,0,3.4,0.6,4.6,1.9c1.3,1.3,1.9,2.8,1.9,4.6c0,1.8-0.6,3.3-1.9,4.6C27.4,29.8,25.8,30.5,24,30.5z"/>
</svg>
