<?xml version="1.0" encoding="utf-8"?>
<!-- Generator: Adobe Illustrator 26.3.1, SVG Export Plug-In . SVG Version: 6.00 Build 0)  -->
<svg version="1.1" id="Слой_1" xmlns="http://www.w3.org/2000/svg" xmlns:xlink="http://www.w3.org/1999/xlink" x="0px" y="0px"
	 viewBox="0 0 48 48" style="enable-background:new 0 0 48 48;" xml:space="preserve">
<path d="M24,32.9c0.3,0,0.6-0.1,0.8-0.3c0.2-0.2,0.3-0.5,0.3-0.8S25,31.2,24.8,31c-0.2-0.2-0.5-0.3-0.8-0.3s-0.6,0.1-0.8,0.3
	c-0.2,0.2-0.3,0.5-0.3,0.8s0.1,0.6,0.3,0.8C23.4,32.8,23.7,32.9,24,32.9z M23.3,26.5h1.5V14.2h-1.5V26.5z M24,43.8L18.1,38H10v-8.1
	L4.1,24l5.9-5.9V10h8.1L24,4.1l5.9,5.9H38v8.1l5.9,5.9L38,29.9V38h-8.1L24,43.8z"/>
</svg>
