<?xml version="1.0" encoding="utf-8"?>
<!-- Generator: Adobe Illustrator 26.3.1, SVG Export Plug-In . SVG Version: 6.00 Build 0)  -->
<svg version="1.1" id="Слой_1" xmlns="http://www.w3.org/2000/svg" xmlns:xlink="http://www.w3.org/1999/xlink" x="0px" y="0px"
	 viewBox="0 0 48 48" style="enable-background:new 0 0 48 48;" xml:space="preserve">
<path d="M8,26.3V10.8c0-0.8,0.3-1.4,0.8-2C9.3,8.3,10,8,10.8,8h11.5v18.3H8z M25.8,8h11.5c0.8,0,1.4,0.3,2,0.8
	c0.5,0.5,0.8,1.2,0.8,2v7.3H25.8V8z M25.8,40V21.6H40v15.6c0,0.8-0.3,1.4-0.8,2c-0.5,0.5-1.2,0.8-2,0.8H25.8z M8,29.9h14.2V40H10.8
	c-0.8,0-1.4-0.3-2-0.8C8.3,38.7,8,38,8,37.2V29.9z"/>
</svg>
