<?xml version="1.0" encoding="utf-8"?>
<!-- Generator: Adobe Illustrator 26.3.1, SVG Export Plug-In . SVG Version: 6.00 Build 0)  -->
<svg version="1.1" id="Слой_1" xmlns="http://www.w3.org/2000/svg" xmlns:xlink="http://www.w3.org/1999/xlink" x="0px" y="0px"
	 viewBox="0 0 48 48" style="enable-background:new 0 0 48 48;" xml:space="preserve">
<path d="M23.6,30.7l1.1-1.1l-5.9-5.9v-8.5h-1.5v9.1L23.6,30.7z M36.2,38.8V37c2.6-1.2,4.6-3,6.1-5.3s2.2-4.9,2.2-7.7
	s-0.7-5.4-2.2-7.7s-3.5-4.1-6.1-5.3V9.2c3,1.3,5.3,3.3,7.1,6c1.8,2.6,2.7,5.6,2.7,8.8s-0.9,6.1-2.7,8.8
	C41.5,35.4,39.1,37.4,36.2,38.8z M18,40c-2.2,0-4.3-0.4-6.2-1.3c-1.9-0.8-3.6-2-5.1-3.4c-1.4-1.4-2.6-3.1-3.4-5.1S2,26.2,2,24
	s0.4-4.3,1.3-6.2s2-3.6,3.4-5.1c1.5-1.5,3.1-2.6,5.1-3.4C13.7,8.4,15.8,8,18,8s4.3,0.4,6.2,1.3c1.9,0.8,3.6,2,5.1,3.4
	c1.4,1.4,2.6,3.1,3.4,5.1c0.8,1.9,1.3,4,1.3,6.2s-0.4,4.3-1.3,6.2c-0.8,2-2,3.6-3.4,5.1c-1.5,1.4-3.1,2.6-5.1,3.4
	C22.3,39.6,20.2,40,18,40z"/>
</svg>
