<?xml version="1.0" encoding="utf-8"?>
<!-- Generator: Adobe Illustrator 26.3.1, SVG Export Plug-In . SVG Version: 6.00 Build 0)  -->
<svg version="1.1" id="Слой_1" xmlns="http://www.w3.org/2000/svg" xmlns:xlink="http://www.w3.org/1999/xlink" x="0px" y="0px"
	 viewBox="0 0 48 48" style="enable-background:new 0 0 48 48;" xml:space="preserve">
<path d="M7.2,42c-0.4,0-0.7-0.1-0.9-0.3C6.1,41.5,6,41.2,6,40.8V40h25.2v0.8c0,0.4-0.1,0.7-0.3,0.9C30.7,41.9,30.4,42,30,42
	C29.9,42,7.2,42,7.2,42z M6,35.6v-0.8c0-0.4,0.1-0.7,0.3-0.9c0.2-0.2,0.5-0.3,0.9-0.3h7.5v-2.1h7.6v2.1h7.5c0.4,0,0.7,0.1,0.9,0.3
	c0.2,0.2,0.3,0.5,0.3,0.9v0.8H6z M37.3,42V29.1c-0.9-0.6-1.6-1.6-2.3-2.8c-0.7-1.2-1-2.6-1-4V6h8v16.3c0,1.5-0.3,2.8-0.9,4
	c-0.6,1.2-1.4,2.2-2.2,2.8v11.4H42V42H37.3z M35.6,16.8h4.9V7.5h-4.9V16.8z"/>
</svg>
