<?xml version="1.0" encoding="utf-8"?>
<!-- Generator: Adobe Illustrator 26.3.1, SVG Export Plug-In . SVG Version: 6.00 Build 0)  -->
<svg version="1.1" id="Слой_1" xmlns="http://www.w3.org/2000/svg" xmlns:xlink="http://www.w3.org/1999/xlink" x="0px" y="0px"
	 viewBox="0 0 48 48" style="enable-background:new 0 0 48 48;" xml:space="preserve">
<path d="M12.2,39.3c-0.6,0-1.2-0.1-1.9-0.2c-0.6-0.1-1.2-0.3-1.7-0.7c0.8-0.6,1.4-1.3,1.6-2.1c0.3-0.8,0.4-1.7,0.4-2.8
	c0-1,0.3-1.9,1-2.6s1.6-1,2.6-1s1.9,0.3,2.6,1s1.1,1.6,1.1,2.6c0,1.6-0.6,3-1.7,4.1C15.2,38.8,13.8,39.3,12.2,39.3z M21.9,29.1
	L19,26L35.7,9.3c0.4-0.4,0.9-0.6,1.4-0.6c0.6,0,1.1,0.2,1.5,0.6h0.1c0.4,0.4,0.6,1,0.6,1.5c0,0.6-0.2,1.1-0.6,1.5
	C38.8,12.3,21.9,29.1,21.9,29.1z"/>
</svg>
