<?xml version="1.0" encoding="utf-8"?>
<!-- Generator: Adobe Illustrator 26.3.1, SVG Export Plug-In . SVG Version: 6.00 Build 0)  -->
<svg version="1.1" id="Слой_1" xmlns="http://www.w3.org/2000/svg" xmlns:xlink="http://www.w3.org/1999/xlink" x="0px" y="0px"
	 viewBox="0 0 48 48" style="enable-background:new 0 0 48 48;" xml:space="preserve">
<path d="M24,8c2.2,0,4.3,0.4,6.2,1.2s3.6,2,5.1,3.4c1.5,1.5,2.6,3.2,3.4,5.1c0.8,1.9,1.2,4,1.2,6.2s-0.4,4.3-1.2,6.2s-2,3.6-3.4,5.1
	c-1.5,1.5-3.2,2.6-5.1,3.4c-1.9,0.8-4,1.2-6.2,1.2c-1.4,0-2.7-0.2-4.1-0.5s-2.7-0.8-3.7-1.6l1.1-1.1c0.9,0.5,1.9,0.9,3.2,1.2
	c1.3,0.3,2.5,0.4,3.6,0.4c4,0,7.4-1.4,10.3-4.2c2.8-2.8,4.2-6.2,4.2-10.3s-1.4-7.4-4.2-10.3c-3-2.5-6.4-3.9-10.4-3.9
	s-7.4,1.4-10.3,4.2C10.9,16.6,9.5,20,9.5,24c0,1.2,0.1,2.4,0.4,3.5s0.7,2.2,1.2,3.3L10,31.9c-0.6-1-1.1-2.2-1.4-3.6
	C8.2,26.9,8,25.4,8,24c0-2.2,0.4-4.3,1.2-6.2c0.8-1.9,2-3.6,3.4-5.1c1.5-1.5,3.2-2.6,5.1-3.4C19.7,8.4,21.8,8,24,8z M27.4,31v-9.2
	l-18.1,18l-1.1-1.1l18.1-18.1H17v-1.5h11.9V31H27.4z"/>
</svg>
