<?xml version="1.0" encoding="utf-8"?>
<!-- Generator: Adobe Illustrator 26.3.1, SVG Export Plug-In . SVG Version: 6.00 Build 0)  -->
<svg version="1.1" id="Слой_1" xmlns="http://www.w3.org/2000/svg" xmlns:xlink="http://www.w3.org/1999/xlink" x="0px" y="0px"
	 viewBox="0 0 48 48" style="enable-background:new 0 0 48 48;" xml:space="preserve">
<path d="M28.8,40c-1.2,0-2.2-0.4-3-1.2s-1.2-1.8-1.2-3s0.4-2.2,1.2-3c0.8-0.8,1.8-1.2,3-1.2s2.2,0.4,3,1.2c0.8,0.8,1.2,1.8,1.2,3
	s-0.4,2.2-1.2,3C30.9,39.6,29.9,40,28.8,40z M33.1,25.8c-2.5,0-4.6-0.9-6.3-2.6c-1.7-1.7-2.6-3.8-2.6-6.3s0.9-4.6,2.6-6.3
	C28.5,8.9,30.6,8,33.1,8s4.6,0.9,6.3,2.6s2.6,3.8,2.6,6.3s-0.9,4.6-2.6,6.3S35.6,25.8,33.1,25.8z M14.3,34.5c-1.8,0-3.3-0.6-4.5-1.9
	C8.6,31.4,8,29.9,8,28.2c0-1.8,0.6-3.3,1.9-4.5c1.2-1.2,2.7-1.9,4.5-1.9s3.3,0.6,4.5,1.9c1.2,1.2,1.9,2.7,1.9,4.5s-0.6,3.3-1.9,4.5
	S16.1,34.5,14.3,34.5z"/>
</svg>
