<?xml version="1.0" encoding="utf-8"?>
<!-- Generator: Adobe Illustrator 26.3.1, SVG Export Plug-In . SVG Version: 6.00 Build 0)  -->
<svg version="1.1" id="Слой_1" xmlns="http://www.w3.org/2000/svg" xmlns:xlink="http://www.w3.org/1999/xlink" x="0px" y="0px"
	 viewBox="0 0 48 48" style="enable-background:new 0 0 48 48;" xml:space="preserve">
<path d="M36.1,41.1L22.6,27.6c-0.8,0.3-1.6,0.6-2.4,0.8c-0.8,0.2-1.7,0.3-2.6,0.3c-3,0-5.6-1-7.7-3.1S6.8,21,6.8,17.9
	c0-0.8,0.1-1.5,0.2-2.3c0.2-0.8,0.4-1.5,0.7-2.2l7.1,6.9l5.4-5.3l-7-7.1c0.7-0.3,1.4-0.6,2.1-0.8c0.8,0,1.6-0.1,2.3-0.1
	c3,0,5.6,1.1,7.8,3.2c2.1,2.1,3.2,4.7,3.2,7.7c0,1-0.1,1.8-0.3,2.6c-0.2,0.8-0.5,1.6-0.9,2.3l13.5,13.5c0.3,0.3,0.4,0.6,0.4,1
	s-0.1,0.8-0.4,1L38,41.2c-0.3,0.3-0.6,0.4-1,0.4C36.7,41.5,36.3,41.4,36.1,41.1z"/>
</svg>
