<?xml version="1.0" encoding="utf-8"?>
<!-- Generator: Adobe Illustrator 26.3.1, SVG Export Plug-In . SVG Version: 6.00 Build 0)  -->
<svg version="1.1" id="Слой_1" xmlns="http://www.w3.org/2000/svg" xmlns:xlink="http://www.w3.org/1999/xlink" x="0px" y="0px"
	 viewBox="0 0 48 48" style="enable-background:new 0 0 48 48;" xml:space="preserve">
<path d="M32.4,34.3l1.6-1.5c0.2-0.2,0.3-0.4,0.3-0.6c0-0.2-0.1-0.5-0.3-0.6l-7.9-8c0.2-0.4,0.4-0.9,0.5-1.4s0.2-1,0.2-1.5
	c0-1.8-0.6-3.3-1.9-4.5c-1.3-1.3-2.8-1.9-4.6-1.9c-0.5,0-1,0.1-1.4,0.2c-0.4,0.1-0.9,0.3-1.3,0.5l4,4l-3,3l-4.1-4
	c-0.2,0.4-0.4,0.9-0.5,1.3c-0.1,0.5-0.1,0.9-0.1,1.4c0,1.8,0.6,3.3,1.9,4.5c1.2,1.2,2.8,1.9,4.5,1.9c0.5,0,1.1-0.1,1.5-0.2
	c0.5-0.1,1-0.3,1.4-0.5l7.9,8c0.2,0.2,0.4,0.3,0.6,0.3C32,34.5,32.2,34.4,32.4,34.3z M24,42c-2.5,0-4.8-0.5-7-1.4s-4.1-2.2-5.7-3.9
	c-1.6-1.6-2.9-3.5-3.9-5.7C6.5,28.8,6,26.5,6,24s0.5-4.8,1.4-7s2.2-4.1,3.9-5.7c1.6-1.6,3.5-2.9,5.7-3.8c2.2-1,4.5-1.5,7-1.5
	s4.8,0.5,7,1.4s4.1,2.2,5.7,3.8c1.6,1.6,2.9,3.5,3.8,5.7c0.9,2.2,1.4,4.5,1.4,7s-0.5,4.8-1.4,7s-2.2,4.1-3.8,5.7s-3.5,2.9-5.7,3.9
	S26.5,42,24,42z"/>
</svg>
