<?xml version="1.0" encoding="utf-8"?>
<!-- Generator: Adobe Illustrator 26.3.1, SVG Export Plug-In . SVG Version: 6.00 Build 0)  -->
<svg version="1.1" id="Слой_1" xmlns="http://www.w3.org/2000/svg" xmlns:xlink="http://www.w3.org/1999/xlink" x="0px" y="0px"
	 viewBox="0 0 48 48" style="enable-background:new 0 0 48 48;" xml:space="preserve">
<path d="M16.7,31.4c0.6,0,1.1-0.2,1.5-0.6s0.6-0.9,0.6-1.5s-0.2-1.1-0.6-1.5s-0.9-0.6-1.5-0.6s-1.1,0.2-1.5,0.6s-0.6,0.9-0.6,1.5
	s0.2,1.1,0.6,1.5C15.6,31.2,16.1,31.4,16.7,31.4z M27.4,42l3.4-3.4c-0.9,0-1.7-0.3-2.4-1c-0.7-0.7-1-1.5-1-2.4v-5.3
	c0-2,0.7-3.6,2.1-4.9s3.1-1.9,5.3-1.9s3.9,0.6,5.2,1.9s2,2.9,2,4.9v5.3c0,0.9-0.3,1.7-1,2.4s-1.5,1-2.4,1L42,42H27.4z M34.5,36.4
	c0.3,0,0.7-0.1,0.9-0.4c0.3-0.3,0.4-0.6,0.4-1s-0.1-0.7-0.4-1c-0.3-0.3-0.6-0.4-0.9-0.4c-0.4,0-0.7,0.1-1,0.4
	c-0.3,0.3-0.4,0.6-0.4,1s0.1,0.7,0.4,1C33.8,36.3,34.1,36.4,34.5,36.4z M29.2,31.6h11.1v-1.7c0-0.3,0-0.6-0.1-0.9s-0.1-0.5-0.2-0.8
	H29.5c-0.1,0.3-0.2,0.5-0.2,0.8c-0.1,0.3-0.1,0.6-0.1,0.9C29.2,29.9,29.2,31.6,29.2,31.6z M14.3,40c-0.2,0-0.4-0.1-0.6-0.2
	c-0.2-0.1-0.3-0.3-0.3-0.5v-3.9c-0.8-0.2-1.6-0.8-2.3-1.8S10,31.4,10,30.2V11.6c0-1.9,1.1-3.4,3.4-4.3C15.6,6.4,19.2,6,24,6
	c4.9,0,8.5,0.4,10.7,1.3S38,9.6,38,11.6v7.7c-0.3-0.1-0.5-0.1-0.8-0.2C37,19,36.7,19,36.5,18.9v-6.4h-25v10.2h14.2
	c-0.9,1-1.5,2.1-2,3.4C23.3,27.4,23,28.6,23,30v6h-7.9v3.4c0,0.2-0.1,0.4-0.2,0.5C14.7,39.9,14.5,40,14.3,40
	C14.2,40,14.3,40,14.3,40z"/>
</svg>
