<?xml version="1.0" encoding="utf-8"?>
<!-- Generator: Adobe Illustrator 26.3.1, SVG Export Plug-In . SVG Version: 6.00 Build 0)  -->
<svg version="1.1" id="Слой_1" xmlns="http://www.w3.org/2000/svg" xmlns:xlink="http://www.w3.org/1999/xlink" x="0px" y="0px"
	 viewBox="0 0 48 48" style="enable-background:new 0 0 48 48;" xml:space="preserve">
<path d="M13.3,38c-0.8,0-1.4-0.3-2-0.8c-0.5-0.5-0.8-1.2-0.8-2V16.4L5.3,10h32.8c0.8,0,1.4,0.3,2,0.8c0.5,0.5,0.8,1.2,0.8,2v22.5
	c0,0.8-0.3,1.4-0.8,2c-0.5,0.5-1.2,0.8-2,0.8L13.3,38L13.3,38z M24.9,32.8l1.1-1.1l-3.6-3.6h10.7v-1.5H18.6
	C18.6,26.5,24.9,32.8,24.9,32.8z M18.6,21.5H33l-6.3-6.2l-1.1,1.1l3.6,3.6H18.6C18.6,19.9,18.6,21.5,18.6,21.5z"/>
</svg>
