<?xml version="1.0" encoding="utf-8"?>
<!-- Generator: Adobe Illustrator 26.3.1, SVG Export Plug-In . SVG Version: 6.00 Build 0)  -->
<svg version="1.1" id="Слой_1" xmlns="http://www.w3.org/2000/svg" xmlns:xlink="http://www.w3.org/1999/xlink" x="0px" y="0px"
	 viewBox="0 0 48 48" style="enable-background:new 0 0 48 48;" xml:space="preserve">
<path d="M18,31.8h12c0.5,0,0.9-0.2,1.3-0.5c0.3-0.3,0.5-0.8,0.5-1.3v-8c0-0.5-0.2-0.9-0.5-1.3c-0.3-0.3-0.8-0.5-1.3-0.5h-2.2v-2.6
	c0-0.4-0.1-0.7-0.4-1s-0.6-0.4-1-0.4h-4.7c-0.4,0-0.7,0.1-1,0.4s-0.4,0.6-0.4,1v2.6H18c-0.5,0-0.9,0.2-1.3,0.5
	c-0.3,0.3-0.5,0.8-0.5,1.3v8c0,0.5,0.2,0.9,0.5,1.3C17.1,31.6,17.5,31.8,18,31.8z M21.7,20.2v-2.6h4.7v2.6H21.7z M16,36
	c-3.3,0-6.2-1.2-8.5-3.5S4,27.3,4,24s1.2-6.2,3.5-8.5S12.7,12,16,12h16c3.3,0,6.2,1.2,8.5,3.5S44,20.7,44,24s-1.2,6.2-3.5,8.5
	S35.3,36,32,36H16z"/>
</svg>
