<?xml version="1.0" encoding="utf-8"?>
<!-- Generator: Adobe Illustrator 26.3.1, SVG Export Plug-In . SVG Version: 6.00 Build 0)  -->
<svg version="1.1" id="Слой_1" xmlns="http://www.w3.org/2000/svg" xmlns:xlink="http://www.w3.org/1999/xlink" x="0px" y="0px"
	 viewBox="0 0 48 48" style="enable-background:new 0 0 48 48;" xml:space="preserve">
<path d="M9.8,41c-0.2,0-0.4-0.1-0.6-0.2C9.1,40.6,9,40.5,9,40.2v-2.5H7V31c0-0.2,0.1-0.4,0.2-0.6c0.1-0.1,0.3-0.2,0.6-0.2H11V13.8
	c0-1.9,0.7-3.5,2-4.8c1.4-1.3,3-2,5-2c1.9,0,3.5,0.7,4.8,2s2,2.9,2,4.8v20.5c0,1.5,0.5,2.7,1.5,3.7s2.2,1.5,3.7,1.5s2.8-0.5,3.9-1.5
	c1.1-1,1.6-2.2,1.6-3.7V17.8h-3.2c-0.2,0-0.4-0.1-0.6-0.2c-0.1-0.1-0.2-0.3-0.2-0.6v-6.8h2V7.8c0-0.2,0.1-0.4,0.2-0.6
	C33.8,7.1,34,7,34.2,7h4c0.2,0,0.4,0.1,0.6,0.2C38.9,7.4,39,7.5,39,7.8v2.5h2V17c0,0.2-0.1,0.4-0.2,0.6c-0.1,0.1-0.3,0.2-0.6,0.2H37
	v16.5c0,1.9-0.7,3.5-2,4.8c-1.4,1.3-3,2-5,2c-1.9,0-3.5-0.7-4.8-2s-2-2.9-2-4.8V13.8c0-1.5-0.5-2.7-1.5-3.7S19.5,8.6,18,8.6
	s-2.8,0.5-3.9,1.5s-1.6,2.2-1.6,3.7v16.5h3.2c0.2,0,0.4,0.1,0.6,0.2c0.1,0.1,0.2,0.3,0.2,0.6v6.8h-2v2.5c0,0.2-0.1,0.4-0.2,0.6
	c-0.1-0.1-0.3,0-0.5,0H9.8z"/>
</svg>
