<?xml version="1.0" encoding="utf-8"?>
<!-- Generator: Adobe Illustrator 26.3.1, SVG Export Plug-In . SVG Version: 6.00 Build 0)  -->
<svg version="1.1" id="Слой_1" xmlns="http://www.w3.org/2000/svg" xmlns:xlink="http://www.w3.org/1999/xlink" x="0px" y="0px"
	 viewBox="0 0 48 48" style="enable-background:new 0 0 48 48;" xml:space="preserve">
<path d="M23.2,40V15.6h1.5V40H23.2z M15.5,34.3v-13H17v13H15.5z M30.9,34.3v-13h1.5v13H30.9z M7.9,28.6V27h1.5v1.5H7.9V28.6z
	 M38.5,28.6V27H40v1.5h-1.5V28.6z M6,19.1v-1.5h1.1c1.6,0,3-0.4,4.4-1.1c1.3-0.8,2.4-1.8,3.2-3.1c1-1.7,2.3-3,4-3.9
	C20.3,8.5,22.1,8,24,8s3.7,0.5,5.4,1.4c1.7,0.9,3,2.2,4,3.9c0.7,1.3,1.8,2.3,3.1,3.1c1.3,0.8,2.8,1.1,4.4,1.1H42V19h-1.1
	c-1.8,0-3.5-0.4-5.1-1.3S33,15.6,32,14c-0.9-1.4-2-2.5-3.4-3.3s-3-1.2-4.6-1.2c-1.7,0-3.2,0.4-4.6,1.2S16.8,12.6,16,14
	c-1,1.6-2.2,2.8-3.8,3.7S8.9,19,7.1,19H6V19.1z"/>
</svg>
