<?xml version="1.0" encoding="utf-8"?>
<!-- Generator: Adobe Illustrator 26.3.1, SVG Export Plug-In . SVG Version: 6.00 Build 0)  -->
<svg version="1.1" id="Слой_1" xmlns="http://www.w3.org/2000/svg" xmlns:xlink="http://www.w3.org/1999/xlink" x="0px" y="0px"
	 viewBox="0 0 48 48" style="enable-background:new 0 0 48 48;" xml:space="preserve">
<path d="M9.5,42c-0.4,0-0.8-0.2-1-0.5c-0.4-0.3-0.5-0.6-0.5-1v-9.7c0-0.7,0.3-1.4,0.8-1.9c0.6-0.6,1.2-0.9,2-0.9h26.5
	c0.7,0,1.4,0.3,1.9,0.8c0.6,0.6,0.8,1.2,0.8,1.9v9.7c0,0.4-0.2,0.8-0.5,1.1S38.8,42,38.4,42C38.5,42,9.5,42,9.5,42z M12.2,26.5v-7.6
	c0-0.8,0.3-1.4,0.8-2c0.6-0.5,1.2-0.8,1.9-0.8h8.3V13c-0.6-0.4-1.1-0.8-1.4-1.3c-0.4-0.5-0.6-1-0.6-1.7c0-0.4,0.1-0.8,0.2-1.1
	S21.8,8.3,22,8l2-2l2,2c0.3,0.3,0.5,0.6,0.6,0.9c0.2,0.3,0.2,0.7,0.2,1.1c0,0.6-0.2,1.2-0.6,1.7s-0.9,0.9-1.5,1.3v3.1H33
	c0.7,0,1.4,0.3,1.9,0.8c0.6,0.5,0.8,1.2,0.8,2v7.6C35.8,26.5,12.2,26.5,12.2,26.5z"/>
</svg>
