<?xml version="1.0" encoding="utf-8"?>
<!-- Generator: Adobe Illustrator 26.3.1, SVG Export Plug-In . SVG Version: 6.00 Build 0)  -->
<svg version="1.1" id="Слой_1" xmlns="http://www.w3.org/2000/svg" xmlns:xlink="http://www.w3.org/1999/xlink" x="0px" y="0px"
	 viewBox="0 0 48 48" style="enable-background:new 0 0 48 48;" xml:space="preserve">
<path d="M16.5,35.7H18v-4.2h4.2V30H18v-4.2h-1.5V30h-4.2v1.5h4.2V35.7z M26.8,34h8.8v-1.5h-8.8V34z M26.8,28.9h8.8v-1.5h-8.8V28.9z
	 M28.3,20.7l2.9-2.9l2.9,2.9l1.1-1.1l-2.9-2.9l2.9-2.9l-1.1-1.1l-2.9,2.9l-2.9-2.9l-1.1,1.1l2.9,2.9l-2.9,2.9L28.3,20.7z M12.9,17.5
	h8.7V16h-8.7C12.9,16,12.9,17.5,12.9,17.5z M10.8,40c-0.8,0-1.4-0.3-2-0.8C8.3,38.7,8,38,8,37.2V10.8c0-0.8,0.3-1.4,0.8-2
	C9.3,8.3,10,8,10.8,8h26.5c0.8,0,1.4,0.3,2,0.8c0.5,0.5,0.8,1.2,0.8,2v26.5c0,0.8-0.3,1.4-0.8,2c-0.5,0.5-1.2,0.8-2,0.8L10.8,40
	L10.8,40z"/>
</svg>
