<?xml version="1.0" encoding="utf-8"?>
<!-- Generator: Adobe Illustrator 26.3.1, SVG Export Plug-In . SVG Version: 6.00 Build 0)  -->
<svg version="1.1" id="Слой_1" xmlns="http://www.w3.org/2000/svg" xmlns:xlink="http://www.w3.org/1999/xlink" x="0px" y="0px"
	 viewBox="0 0 48 48" style="enable-background:new 0 0 48 48;" xml:space="preserve">
<path d="M29.1,43c-0.2,0-0.4-0.1-0.6-0.2c-0.1-0.1-0.2-0.3-0.2-0.6s0.1-0.4,0.2-0.6s0.3-0.2,0.6-0.2h9.6L30.8,36
	c-0.2-0.1-0.3-0.3-0.3-0.5c-0.1-0.2,0-0.4,0.1-0.5c0.1-0.2,0.3-0.3,0.5-0.3s0.4,0,0.6,0.1l7.8,5.5l-3.3-9c-0.1-0.2-0.1-0.4,0-0.6
	s0.3-0.3,0.5-0.4s0.4-0.1,0.6,0c0.2,0.1,0.3,0.3,0.4,0.5l3.2,8.9l2.5-9.1c0-0.2,0.2-0.3,0.3-0.5c0.2-0.1,0.4-0.1,0.6-0.1
	c0.2,0,0.4,0.2,0.5,0.3c0.1,0.2,0.1,0.3,0.1,0.5L41.6,43H29.1z M10.8,38c-0.8,0-1.4-0.3-2-0.8C8.3,36.7,8,36,8,35.2V12.3
	c0-0.8,0.3-1.4,0.8-2c0.5-0.5,1.2-0.8,2-0.8h4.1v-4h1.8v4h10.8v-4h1.7v4h4.1c0.8,0,1.4,0.3,2,0.8c0.5,0.5,0.8,1.2,0.8,2v12.8
	c-0.3,0-0.5,0-0.8,0s-0.5,0-0.8,0V21h-25v14.2c0,0.3,0.1,0.6,0.4,0.8s0.5,0.4,0.8,0.4H25c0,0.2,0,0.5,0,0.8s0,0.5,0.1,0.8H10.8z"/>
</svg>
