<?xml version="1.0" encoding="utf-8"?>
<!-- Generator: Adobe Illustrator 26.3.1, SVG Export Plug-In . SVG Version: 6.00 Build 0)  -->
<svg version="1.1" id="Слой_1" xmlns="http://www.w3.org/2000/svg" xmlns:xlink="http://www.w3.org/1999/xlink" x="0px" y="0px"
	 viewBox="0 0 48 48" style="enable-background:new 0 0 48 48;" xml:space="preserve">
<path d="M27,37.4c-0.6,0-1.1-0.2-1.5-0.6c-0.4-0.4-0.6-0.9-0.6-1.5V12.7c0-0.6,0.2-1.1,0.6-1.5s0.9-0.6,1.5-0.6h3.2
	c0.6,0,1.1,0.2,1.5,0.6c0.4,0.4,0.6,0.9,0.6,1.5v22.6c0,0.6-0.2,1.1-0.6,1.5s-0.9,0.6-1.5,0.6C30.2,37.4,27,37.4,27,37.4z
	 M17.8,37.4c-0.6,0-1.1-0.2-1.5-0.6c-0.4-0.4-0.6-0.9-0.6-1.5V12.7c0-0.6,0.2-1.1,0.6-1.5c0.4-0.4,0.9-0.6,1.5-0.6H21
	c0.6,0,1.1,0.2,1.5,0.6c0.4,0.4,0.6,0.9,0.6,1.5v22.6c0,0.6-0.2,1.1-0.6,1.5s-0.9,0.6-1.5,0.6C21,37.4,17.8,37.4,17.8,37.4z
	 M8.7,37.4c-0.6,0-1.1-0.2-1.5-0.6c-0.4-0.4-0.6-0.9-0.6-1.5V12.7c0-0.6,0.2-1.1,0.6-1.5s0.9-0.6,1.5-0.6h3.2c0.6,0,1.1,0.2,1.5,0.6
	c0.4,0.4,0.6,0.9,0.6,1.5v22.6c0,0.6-0.2,1.1-0.6,1.5s-0.9,0.6-1.5,0.6C11.9,37.4,8.7,37.4,8.7,37.4z M36.1,37.4
	c-0.6,0-1.1-0.2-1.5-0.6c-0.4-0.4-0.6-0.9-0.6-1.5V12.7c0-0.6,0.2-1.1,0.6-1.5c0.4-0.4,0.9-0.6,1.5-0.6h3.2c0.6,0,1.1,0.2,1.5,0.6
	c0.4,0.4,0.6,0.9,0.6,1.5v22.6c0,0.7-0.2,1.2-0.6,1.6c-0.4,0.3-0.9,0.5-1.5,0.5C39.3,37.4,36.1,37.4,36.1,37.4z"/>
</svg>
