<?xml version="1.0" encoding="utf-8"?>
<!-- Generator: Adobe Illustrator 26.3.1, SVG Export Plug-In . SVG Version: 6.00 Build 0)  -->
<svg version="1.1" id="Слой_1" xmlns="http://www.w3.org/2000/svg" xmlns:xlink="http://www.w3.org/1999/xlink" x="0px" y="0px"
	 viewBox="0 0 48 48" style="enable-background:new 0 0 48 48;" xml:space="preserve">
<path d="M35.5,43v-6h-6v-1.5h6v-6H37v6h6V37h-6v6H35.5z M10.8,38c-0.8,0-1.4-0.3-2-0.8C8.3,36.7,8,36,8,35.2V12.3
	c0-0.8,0.3-1.4,0.8-2c0.5-0.5,1.2-0.8,2-0.8h4.1v-4h1.8v4h10.8v-4h1.7v4h4.1c0.8,0,1.4,0.3,2,0.8c0.5,0.5,0.8,1.2,0.8,2v12.8
	c-0.3,0-0.5,0-0.8,0s-0.5,0-0.8,0V21h-25v14.2c0,0.3,0.1,0.6,0.4,0.8s0.5,0.4,0.8,0.4H25c0,0.2,0,0.5,0,0.8s0,0.5,0.1,0.8H10.8z"/>
</svg>
