<?xml version="1.0" encoding="utf-8"?>
<!-- Generator: Adobe Illustrator 26.3.1, SVG Export Plug-In . SVG Version: 6.00 Build 0)  -->
<svg version="1.1" id="Слой_1" xmlns="http://www.w3.org/2000/svg" xmlns:xlink="http://www.w3.org/1999/xlink" x="0px" y="0px"
	 viewBox="0 0 48 48" style="enable-background:new 0 0 48 48;" xml:space="preserve">
<path d="M10.8,42c-0.8,0-1.4-0.3-2-0.8C8.3,40.7,8,40,8,39.2V12.3c0-0.8,0.3-1.4,0.8-2c0.5-0.5,1.2-0.8,2-0.8h4.1v-4h1.8v4h14.8v-4
	h1.7v4h4.1c0.8,0,1.4,0.3,2,0.8c0.5,0.5,0.8,1.2,0.8,2v11.6c0,0.2-0.1,0.4-0.2,0.5c-0.1,0.1-0.3,0.2-0.6,0.2c-0.2,0-0.4-0.1-0.5-0.2
	s-0.2-0.3-0.2-0.5V21H9.5v18.2c0,0.3,0.1,0.6,0.4,0.8s0.5,0.4,0.8,0.4h14.6c0.2,0,0.4,0.1,0.5,0.2c0.1,0.1,0.2,0.3,0.2,0.6
	c0,0.2-0.1,0.4-0.2,0.5S25.6,42,25.3,42H10.8z M37,44c-2.2,0-4-0.7-5.5-2.2s-2.2-3.3-2.2-5.5s0.7-4,2.2-5.5s3.3-2.2,5.5-2.2
	s4,0.7,5.5,2.2s2.2,3.3,2.2,5.5s-0.7,4-2.2,5.5S39.2,44,37,44z M40.1,40.8l1.1-1.1l-3.6-3.6v-5.4h-1.5v6L40.1,40.8z"/>
</svg>
