<?xml version="1.0" encoding="utf-8"?>
<!-- Generator: Adobe Illustrator 26.3.1, SVG Export Plug-In . SVG Version: 6.00 Build 0)  -->
<svg version="1.1" id="Слой_1" xmlns="http://www.w3.org/2000/svg" xmlns:xlink="http://www.w3.org/1999/xlink" x="0px" y="0px"
	 viewBox="0 0 48 48" style="enable-background:new 0 0 48 48;" xml:space="preserve">
<path d="M6.6,21.3v-8.6c0-0.6,0.2-1.1,0.6-1.5s0.9-0.6,1.5-0.6h6.6c0.6,0,1.1,0.2,1.5,0.6c0.4,0.4,0.6,0.9,0.6,1.5v8.6
	c0,0.6-0.2,1-0.6,1.4s-0.9,0.6-1.5,0.6H8.7c-0.6,0-1.1-0.2-1.5-0.6S6.6,21.9,6.6,21.3z M20.7,23.3c-0.6,0-1.1-0.2-1.5-0.6
	s-0.6-0.9-0.6-1.4v-8.6c0-0.6,0.2-1.1,0.6-1.5s0.9-0.6,1.5-0.6h6.5c0.6,0,1.1,0.2,1.5,0.6c0.4,0.4,0.6,0.9,0.6,1.5v8.6
	c0,0.6-0.2,1-0.6,1.4s-0.9,0.6-1.5,0.6H20.7z M32.7,23.3c-0.6,0-1.1-0.2-1.5-0.6s-0.6-0.9-0.6-1.4v-8.6c0-0.6,0.2-1.1,0.6-1.5
	s0.9-0.6,1.5-0.6h6.6c0.6,0,1.1,0.2,1.5,0.6c0.4,0.4,0.6,0.9,0.6,1.5v8.6c0,0.6-0.2,1-0.6,1.4c-0.4,0.4-0.9,0.6-1.5,0.6H32.7z
	 M15.3,37.4H8.7c-0.6,0-1.1-0.2-1.5-0.6c-0.4-0.4-0.6-0.9-0.6-1.5v-8.6c0-0.6,0.2-1.1,0.6-1.5s0.9-0.6,1.5-0.6h6.6
	c0.6,0,1.1,0.2,1.5,0.6s0.6,0.9,0.6,1.5v8.6c0,0.6-0.2,1.1-0.6,1.5C16.3,37.2,15.9,37.4,15.3,37.4z M20.7,37.4
	c-0.6,0-1.1-0.2-1.5-0.6c-0.4-0.4-0.6-0.9-0.6-1.5v-8.6c0-0.6,0.2-1.1,0.6-1.5s0.9-0.6,1.5-0.6h6.5c0.6,0,1.1,0.2,1.5,0.6
	s0.6,0.9,0.6,1.5v8.6c0,0.6-0.2,1.1-0.6,1.5s-0.9,0.6-1.5,0.6C27.3,37.4,20.7,37.4,20.7,37.4z M32.7,37.4c-0.6,0-1.1-0.2-1.5-0.6
	s-0.6-0.9-0.6-1.5v-8.6c0-0.6,0.2-1.1,0.6-1.5s0.9-0.6,1.5-0.6h6.6c0.6,0,1.1,0.2,1.5,0.6s0.6,0.9,0.6,1.5v8.6
	c0,0.6-0.2,1.1-0.6,1.5c-0.4,0.4-0.9,0.6-1.5,0.6H32.7z"/>
</svg>
