<?xml version="1.0" encoding="utf-8"?>
<!-- Generator: Adobe Illustrator 26.3.1, SVG Export Plug-In . SVG Version: 6.00 Build 0)  -->
<svg version="1.1" id="Слой_1" xmlns="http://www.w3.org/2000/svg" xmlns:xlink="http://www.w3.org/1999/xlink" x="0px" y="0px"
	 viewBox="0 0 48 48" style="enable-background:new 0 0 48 48;" xml:space="preserve">
<path d="M24.5,7.5V6H42v1.5H24.5z M24.5,13.8v-1.5H42v1.5H24.5z M24.5,20.2v-1.5H42v1.5H24.5z M35.8,42c-3.2,0-6.6-0.9-10.1-2.6
	c-3.5-1.7-6.8-4.1-9.9-7.2s-5.5-6.4-7.2-9.9S6,15.4,6,12.2c0-0.6,0.2-1.1,0.6-1.6c0.5-0.4,1-0.6,1.6-0.6h4.4c0.6,0,1,0.2,1.4,0.5
	s0.7,0.8,0.8,1.4l1,4.5c0.1,0.5,0,1-0.1,1.4s-0.3,0.8-0.6,1L10.7,23c0.9,1.6,1.9,3.1,2.9,4.4s2.1,2.6,3.2,3.8
	c1.3,1.3,2.6,2.5,4.1,3.5c1.4,1.1,3,2.1,4.7,3l4.3-4.4c0.3-0.4,0.7-0.6,1.1-0.7c0.4-0.1,0.8-0.1,1.3-0.1l3.8,0.8
	c0.6,0.1,1,0.4,1.4,0.8c0.3,0.4,0.5,0.9,0.5,1.5v4.2c0,0.6-0.2,1.1-0.6,1.5C36.9,41.8,36.4,42,35.8,42z"/>
</svg>
