<?xml version="1.0" encoding="utf-8"?>
<!-- Generator: Adobe Illustrator 26.3.1, SVG Export Plug-In . SVG Version: 6.00 Build 0)  -->
<svg version="1.1" id="Слой_1" xmlns="http://www.w3.org/2000/svg" xmlns:xlink="http://www.w3.org/1999/xlink" x="0px" y="0px"
	 viewBox="0 0 48 48" style="enable-background:new 0 0 48 48;" xml:space="preserve">
<path d="M17.1,31.7c-0.8,0-1.4-0.3-2-0.8c-0.5-0.5-0.8-1.2-0.8-2v-9.8c0-0.8,0.3-1.4,0.8-2c0.5-0.5,1.2-0.8,2-0.8h1.6l1.8-1.8h7.1
	l1.8,1.8H31c0.8,0,1.4,0.3,2,0.8c0.5,0.5,0.8,1.2,0.8,2v9.8c0,0.8-0.3,1.4-0.8,2c-0.5,0.5-1.2,0.8-2,0.8H17.1z M24,26.4
	c0.7,0,1.3-0.2,1.7-0.7c0.5-0.5,0.7-1,0.7-1.7s-0.2-1.3-0.7-1.7c-0.5-0.5-1-0.7-1.7-0.7s-1.3,0.2-1.7,0.7c-0.5,0.5-0.7,1-0.7,1.7
	s0.2,1.3,0.7,1.7C22.8,26.2,23.3,26.4,24,26.4z M20.5,2.2C21.1,2.1,21.6,2,22.2,2s1.2,0,1.7,0c2.8,0,5.5,0.5,8.1,1.5
	s4.8,2.4,6.8,4.2s3.6,3.9,4.9,6.3c1.3,2.4,2,5.1,2.3,7.9h-1.5c-0.2-2.6-0.9-5-2.1-7.2c-1.2-2.2-2.7-4.2-4.6-5.8
	c-1.9-1.7-4-3-6.3-3.9c-2.4-1-4.9-1.5-7.5-1.5l4.2,4.3l-1.1,1L20.5,2.2z M27.5,45.8c-0.6,0.1-1.1,0.2-1.7,0.2s-1.2,0-1.7,0
	c-2.9,0-5.6-0.5-8.1-1.5c-2.6-1-4.8-2.4-6.8-4.2S5.6,36.4,4.3,34s-2-5.1-2.3-7.9h1.6c0.3,2.6,1,5,2.1,7.2c1.2,2.2,2.7,4.2,4.6,5.8
	c1.9,1.7,4,3,6.3,3.9c2.4,0.9,4.9,1.4,7.5,1.5l-4.2-4.3l1.1-1L27.5,45.8z"/>
</svg>
