<?xml version="1.0" encoding="utf-8"?>
<!-- Generator: Adobe Illustrator 26.3.1, SVG Export Plug-In . SVG Version: 6.00 Build 0)  -->
<svg version="1.1" id="Слой_1" xmlns="http://www.w3.org/2000/svg" xmlns:xlink="http://www.w3.org/1999/xlink" x="0px" y="0px"
	 viewBox="0 0 48 48" style="enable-background:new 0 0 48 48;" xml:space="preserve">
<path d="M8.8,42c-0.7,0-1.4-0.3-1.9-0.8C6.3,40.6,6,40,6,39.2V10.8c0-0.8,0.3-1.4,0.8-2C7.4,8.3,8,8,8.8,8H12V5.7
	c0-0.5,0.2-0.9,0.5-1.2C12.8,4.2,13.2,4,13.7,4h4.6c0.5,0,0.9,0.2,1.2,0.5S20,5.2,20,5.7V8h3.2c0.7,0,1.4,0.3,1.9,0.8
	c0.6,0.6,0.9,1.2,0.9,2V12h16v26H25.9v1.2c0,0.7-0.3,1.4-0.8,1.9C24.6,41.7,24,42,23.2,42H8.8z M19.3,33.6h2.6V31h-2.6V33.6z
	 M19.3,19h2.6v-2.6h-2.6V19z M27.2,33.6h2.6V31h-2.6V33.6z M27.2,19h2.6v-2.6h-2.6V19z M35,33.6h2.6V31H35V33.6z M35,19h2.6v-2.6H35
	V19z"/>
</svg>
