<?xml version="1.0" encoding="utf-8"?>
<!-- Generator: Adobe Illustrator 26.3.1, SVG Export Plug-In . SVG Version: 6.00 Build 0)  -->
<svg version="1.1" id="Слой_1" xmlns="http://www.w3.org/2000/svg" xmlns:xlink="http://www.w3.org/1999/xlink" x="0px" y="0px"
	 viewBox="0 0 48 48" style="enable-background:new 0 0 48 48;" xml:space="preserve">
<path d="M24,25.5c-1.5,0-2.8-0.5-3.9-1.6s-1.6-2.4-1.6-3.9s0.5-2.8,1.6-3.9s2.4-1.6,3.9-1.6s2.8,0.5,3.9,1.6s1.6,2.4,1.6,3.9
	s-0.5,2.8-1.6,3.9C26.8,24.9,25.5,25.5,24,25.5z M12.9,17.2c0.3,0,0.6-0.1,0.9-0.4c0.2-0.2,0.4-0.5,0.4-0.9c0-0.3-0.1-0.6-0.4-0.9
	c-0.2-0.2-0.5-0.4-0.9-0.4c-0.3,0-0.6,0.1-0.9,0.4c-0.2,0.2-0.4,0.5-0.4,0.9c0,0.3,0.1,0.6,0.4,0.9C12.3,17,12.6,17.2,12.9,17.2z
	 M9,40v-1.5h6.5l1.6-6.5c-3.1-0.2-5.8-1.5-7.9-3.8S6,23.2,6,20c0-3.3,1.2-6.2,3.5-8.5S14.7,8,18,8h12c3.3,0,6.2,1.2,8.5,3.5
	S42,16.7,42,20c0,3.2-1.1,5.9-3.2,8.2S34,31.7,30.9,32l1.6,6.5H39V40H9z M24,27c1.9,0,3.6-0.7,5-2c1.4-1.4,2-3,2-5s-0.7-3.6-2-5
	c-1.4-1.4-3-2-5-2s-3.6,0.7-5,2c-1.4,1.4-2,3-2,5s0.7,3.6,2,5C20.4,26.3,22.1,27,24,27z"/>
</svg>
