<?xml version="1.0" encoding="utf-8"?>
<!-- Generator: Adobe Illustrator 26.3.1, SVG Export Plug-In . SVG Version: 6.00 Build 0)  -->
<svg version="1.1" id="Слой_1" xmlns="http://www.w3.org/2000/svg" xmlns:xlink="http://www.w3.org/1999/xlink" x="0px" y="0px"
	 viewBox="0 0 48 48" style="enable-background:new 0 0 48 48;" xml:space="preserve">
<path d="M22.3,17.9l6.5-11.3c2.7,0.7,5.1,2.1,7.4,4.1c2.2,2,3.8,4.4,4.9,7.2C41.1,17.9,22.3,17.9,22.3,17.9z M17.8,22.6l-6.5-11.4
	c1.7-1.7,3.7-3,5.9-3.9S21.6,6,23.9,6c0.6,0,1.2,0,1.9,0.1c0.7,0.1,1.2,0.1,1.5,0.2C27.3,6.3,17.8,22.6,17.8,22.6z M6.6,28.5
	c-0.2-0.8-0.4-1.6-0.4-2.3C6,25.4,6,24.7,6,24.1c0-2.1,0.4-4.2,1.1-6.2s1.8-3.8,3.2-5.6l9.2,16.2C19.5,28.5,6.6,28.5,6.6,28.5z
	 M19.4,41.4c-2.8-0.8-5.4-2.2-7.6-4.3S7.9,32.7,7,29.9h18.9L19.4,41.4z M24.2,42c-0.6,0-1.2,0-1.8-0.1c-0.7-0.1-1.2-0.1-1.5-0.2
	l9.5-16.1l6.4,11.1c-1.7,1.7-3.7,3-5.8,3.9S26.4,42,24.2,42z M37.7,35.7l-9.3-16.3h13c0.2,0.8,0.4,1.6,0.4,2.4
	C42,22.6,42,23.3,42,24c0,2.1-0.3,4.2-1,6.1S39.2,33.9,37.7,35.7z"/>
</svg>
