<?xml version="1.0" encoding="utf-8"?>
<!-- Generator: Adobe Illustrator 26.3.1, SVG Export Plug-In . SVG Version: 6.00 Build 0)  -->
<svg version="1.1" id="Слой_1" xmlns="http://www.w3.org/2000/svg" xmlns:xlink="http://www.w3.org/1999/xlink" x="0px" y="0px"
	 viewBox="0 0 48 48" style="enable-background:new 0 0 48 48;" xml:space="preserve">
<path d="M12,39v-1.5h11.3l-3.6-3.6l1.1-1.1l5.4,5.4l-5.4,5.4l-1.1-1.1l3.5-3.5C23.2,39,12,39,12,39z M28,39v-1.5h8V39H28z M12,34.2
	V8.8c0-0.8,0.3-1.4,0.8-2C13.3,6.3,14,6,14.8,6h18.5c0.8,0,1.4,0.3,2,0.8C35.7,7.3,36,8,36,8.8v25.4H24.8l-3.9-3.9L17,34.2H12z
	 M13.5,27.7c1.6-0.7,3.3-1.3,5.1-1.7c1.9-0.4,3.6-0.6,5.3-0.6s3.5,0.2,5.3,0.6c1.9,0.4,3.6,1,5.1,1.7V8.8c0-0.3-0.1-0.6-0.4-0.8
	c-0.3-0.3-0.5-0.4-0.8-0.4H14.8c-0.3,0-0.6,0.1-0.8,0.4c-0.3,0.3-0.4,0.5-0.4,0.8v18.9H13.5z M24,21.8c-1.3,0-2.5-0.5-3.4-1.4
	s-1.4-2.1-1.4-3.4s0.5-2.5,1.4-3.4s2.1-1.4,3.4-1.4s2.5,0.5,3.4,1.4s1.4,2.1,1.4,3.4s-0.5,2.5-1.4,3.4S25.3,21.8,24,21.8z"/>
</svg>
