<?xml version="1.0" encoding="utf-8"?>
<!-- Generator: Adobe Illustrator 26.3.1, SVG Export Plug-In . SVG Version: 6.00 Build 0)  -->
<svg version="1.1" id="Слой_1" xmlns="http://www.w3.org/2000/svg" xmlns:xlink="http://www.w3.org/1999/xlink" x="0px" y="0px"
	 viewBox="0 0 48 48" style="enable-background:new 0 0 48 48;" xml:space="preserve">
<path d="M30.4,37.9l3.5-3.4l3.5,3.4l1-1l-3.5-3.5l3.5-3.5l-1-1l-3.5,3.5L30.3,29l-1,1l3.5,3.5L29.4,37L30.4,37.9z M8.4,37.1V26.6
	L19.7,24L8.4,21.4V10.8l26.7,11.4h-2c-2.5,0.2-4.8,1.1-6.7,2.7c-2,1.6-3.1,3.6-3.5,6C22.8,30.9,8.4,37.1,8.4,37.1z M33.8,41.2
	c-2.1,0-4-0.8-5.5-2.3S26,35.6,26,33.4c0-2.1,0.8-4,2.3-5.5s3.4-2.3,5.5-2.3s4,0.8,5.5,2.3s2.3,3.4,2.3,5.5c0,2.2-0.8,4-2.3,5.5
	C37.8,40.5,36,41.2,33.8,41.2z"/>
</svg>
