<?xml version="1.0" encoding="utf-8"?>
<!-- Generator: Adobe Illustrator 26.3.1, SVG Export Plug-In . SVG Version: 6.00 Build 0)  -->
<svg version="1.1" id="Слой_1" xmlns="http://www.w3.org/2000/svg" xmlns:xlink="http://www.w3.org/1999/xlink" x="0px" y="0px"
	 viewBox="0 0 48 48" style="enable-background:new 0 0 48 48;" xml:space="preserve">
<path d="M24.1,15.3c-1.2,0-2.3-0.4-3.1-1.3c-0.8-0.9-1.2-1.9-1.2-3.1c0-1.4,0.5-2.7,1.4-3.8C22.1,6,23.1,5,24.1,4c1,1,2,2,2.9,3.1
	s1.4,2.3,1.4,3.7c0,1.2-0.4,2.3-1.2,3.2C26.3,14.8,25.3,15.3,24.1,15.3z M39.9,34.3c0.7,0,1.3-0.3,1.8-0.8s0.8-1.1,0.8-1.9
	c0-0.7-0.3-1.3-0.8-1.8S40.6,29,39.9,29s-1.3,0.3-1.8,0.8s-0.8,1.1-0.8,1.8s0.3,1.4,0.8,1.9C38.6,34,39.2,34.3,39.9,34.3z M35.4,42
	H12.8c-1.3,0-2.5-0.5-3.4-1.4c-0.9-1-1.4-2.1-1.4-3.5v-2.9h11.3V21.8c0-0.8,0.3-1.4,0.8-1.9s1.2-0.8,2-0.8h4c0.8,0,1.4,0.3,1.9,0.8
	s0.8,1.2,0.8,1.9v12.5h7.8c-0.3-0.4-0.5-0.8-0.6-1.2c-0.2-0.4-0.2-0.9-0.2-1.4c0-1.1,0.4-2.1,1.2-2.9s1.8-1.2,2.9-1.2
	c1.1,0,2.1,0.4,2.9,1.2c0.8,0.8,1.2,1.8,1.2,2.9s-0.4,2.1-1.1,2.8c-0.7,0.8-1.6,1.2-2.7,1.4v1.3c0,1.3-0.5,2.5-1.4,3.4
	C37.9,41.5,36.7,42,35.4,42z"/>
</svg>
