<?xml version="1.0" encoding="utf-8"?>
<!-- Generator: Adobe Illustrator 26.3.1, SVG Export Plug-In . SVG Version: 6.00 Build 0)  -->
<svg version="1.1" id="Слой_1" xmlns="http://www.w3.org/2000/svg" xmlns:xlink="http://www.w3.org/1999/xlink" x="0px" y="0px"
	 viewBox="0 0 48 48" style="enable-background:new 0 0 48 48;" xml:space="preserve">
<path d="M40.9,42l-7.1-7.1v6.2h-1.5v-8.8h8.8v1.5h-6.2l7.1,7.1L40.9,42z M24,42c-2.5,0-4.8-0.5-7-1.4s-4.1-2.2-5.7-3.9
	c-1.6-1.6-2.9-3.5-3.8-5.7S6,26.5,6,24.1c0-2.5,0.5-4.9,1.4-7.1s2.2-4.1,3.8-5.7s3.5-2.9,5.7-3.9C19.2,6.5,21.5,6,24,6
	s4.8,0.5,7,1.4s4.1,2.2,5.7,3.9c1.6,1.6,2.9,3.5,3.8,5.7c0.9,2.2,1.4,4.5,1.4,7.1c0,0.6,0,1.1-0.1,1.7c0,0.6-0.1,1.1-0.2,1.7h-1.7
	c0.1-0.6,0.3-1.1,0.3-1.7c0.1-0.6,0.1-1.1,0.1-1.7c0-0.8-0.1-1.6-0.2-2.5c-0.1-0.8-0.3-1.7-0.6-2.5h-8.6c0.1,0.8,0.2,1.6,0.3,2.5
	c0.1,0.8,0.1,1.6,0.1,2.5c0,0.6,0,1.2,0,1.7c0,0.6-0.1,1.1-0.1,1.7h-1.6c0.1-0.6,0.1-1.1,0.1-1.7s0-1.1,0-1.7c0-0.8,0-1.7-0.1-2.5
	s-0.2-1.7-0.3-2.5H18.5c-0.1,0.8-0.2,1.6-0.3,2.5C18.1,22.4,18,23.2,18,24s0,1.6,0.1,2.5c0.1,0.8,0.2,1.6,0.3,2.4h9.5v1.5h-9.1
	c0.5,1.9,1.2,3.7,2,5.4c0.8,1.8,1.9,3.3,3.3,4.6c0.6,0,1.2,0,1.7-0.1c0.6-0.1,1.1-0.1,1.7-0.3v1.5c-0.6,0.1-1.2,0.2-1.7,0.3
	C25.2,42,24.6,42,24,42z M8.3,28.9h8.6c-0.1-0.8-0.2-1.6-0.3-2.4c-0.1-0.8-0.1-1.6-0.1-2.4s0-1.7,0.1-2.5s0.2-1.7,0.3-2.5H8.3
	c-0.3,0.8-0.4,1.6-0.6,2.5c-0.1,0.8-0.2,1.7-0.2,2.5s0.1,1.6,0.2,2.4S8,28.1,8.3,28.9z M8.8,17.5h8.4c0.4-1.8,1-3.6,1.8-5.3
	c0.7-1.7,1.7-3.3,3-4.7c-3,0.5-5.6,1.7-7.9,3.4C11.8,12.7,10,14.9,8.8,17.5z M21.9,40.4c-1.1-1.5-2.1-3-2.8-4.7
	c-0.8-1.7-1.4-3.4-1.8-5.2H8.8c1.2,2.7,3,4.9,5.3,6.7C16.4,38.9,19,40,21.9,40.4z M18.8,17.5h10.5c-0.5-1.9-1.1-3.7-2-5.4
	s-1.9-3.3-3.2-4.7c-1.3,1.4-2.4,3-3.3,4.7C19.9,13.9,19.2,15.7,18.8,17.5z M30.9,17.5h8.4c-1.2-2.7-3-4.9-5.3-6.7
	c-2.4-1.7-5-2.8-7.9-3.2c1.1,1.5,2.1,3,2.8,4.7C29.7,14,30.3,15.8,30.9,17.5z"/>
</svg>
