<?xml version="1.0" encoding="utf-8"?>
<!-- Generator: Adobe Illustrator 26.3.1, SVG Export Plug-In . SVG Version: 6.00 Build 0)  -->
<svg version="1.1" id="Слой_1" xmlns="http://www.w3.org/2000/svg" xmlns:xlink="http://www.w3.org/1999/xlink" x="0px" y="0px"
	 viewBox="0 0 48 48" style="enable-background:new 0 0 48 48;" xml:space="preserve">
<path d="M16.8,13.8c-1.4,0-2.6-0.5-3.6-1.5s-1.5-2.2-1.5-3.6s0.5-2.6,1.5-3.6s2.2-1.5,3.6-1.5C18,3.8,19.1,4.2,20,5s1.5,1.9,1.8,3.1
	h14.4v1.5h-2v4.2h-1.5V9.6H21.8c-0.3,1.2-0.9,2.2-1.8,3C19.1,13.4,18,13.8,16.8,13.8z M16.8,12.3c1,0,1.8-0.3,2.5-1s1-1.5,1-2.5
	S20,7,19.3,6.3s-1.5-1-2.5-1s-1.8,0.3-2.5,1s-1,1.5-1,2.5s0.3,1.8,1,2.5C15,11.9,15.8,12.3,16.8,12.3z M16.4,33.8
	c0.4,0,0.7-0.1,0.9-0.4c0.3-0.3,0.4-0.6,0.4-0.9c0-0.4-0.1-0.7-0.4-0.9c-0.3-0.3-0.6-0.4-0.9-0.4c-0.4,0-0.7,0.1-0.9,0.4
	s-0.4,0.6-0.4,0.9s0.1,0.7,0.4,0.9C15.8,33.6,16.1,33.8,16.4,33.8z M31.6,33.8c0.4,0,0.7-0.1,0.9-0.4c0.3-0.3,0.4-0.6,0.4-0.9
	c0-0.4-0.1-0.7-0.4-0.9c-0.3-0.3-0.6-0.4-0.9-0.4c-0.4,0-0.7,0.1-0.9,0.4c-0.2,0.3-0.4,0.6-0.4,0.9s0.1,0.7,0.4,0.9
	C30.9,33.6,31.2,33.8,31.6,33.8z M12,28.8l3-8.6c0.1-0.3,0.2-0.5,0.5-0.7c0.2-0.2,0.5-0.2,0.8-0.2h15.5c0.3,0,0.5,0.1,0.8,0.2
	c0.2,0.2,0.4,0.4,0.5,0.7l3,8.6v11.8c0,0.2-0.1,0.4-0.2,0.5c-0.1,0.1-0.3,0.2-0.5,0.2h-0.1c-0.2,0-0.4-0.1-0.5-0.2
	c-0.1-0.1-0.2-0.3-0.2-0.5v-3.4H13.5v3.4c0,0.2-0.1,0.4-0.2,0.5c-0.1,0.1-0.3,0.2-0.5,0.2h-0.1c-0.2,0-0.4-0.1-0.5-0.2
	C12.1,41,12,40.8,12,40.6V28.8z M13.9,27.8h20.2l-2.4-7H16.3L13.9,27.8z"/>
</svg>
