<?xml version="1.0" encoding="utf-8"?>
<!-- Generator: Adobe Illustrator 26.3.1, SVG Export Plug-In . SVG Version: 6.00 Build 0)  -->
<svg version="1.1" id="Слой_1" xmlns="http://www.w3.org/2000/svg" xmlns:xlink="http://www.w3.org/1999/xlink" x="0px" y="0px"
	 viewBox="0 0 48 48" style="enable-background:new 0 0 48 48;" xml:space="preserve">
<path d="M23.2,41.5v-6H9V34h30v1.5H24.8v6H23.2z M16.4,24c0.4,0,0.7-0.1,0.9-0.4c0.3-0.3,0.4-0.6,0.4-0.9c0-0.4-0.1-0.7-0.4-0.9
	c-0.3-0.3-0.6-0.4-0.9-0.4c-0.4,0-0.7,0.1-0.9,0.4s-0.4,0.6-0.4,0.9c0,0.4,0.1,0.7,0.4,0.9C15.8,23.9,16.1,24,16.4,24z M31.6,24
	c0.4,0,0.7-0.1,0.9-0.4c0.3-0.3,0.4-0.6,0.4-0.9c0-0.4-0.1-0.7-0.4-0.9c-0.3-0.3-0.6-0.4-0.9-0.4c-0.4,0-0.7,0.1-0.9,0.4
	c-0.2,0.3-0.4,0.6-0.4,0.9c0,0.4,0.1,0.7,0.4,0.9C30.9,23.9,31.2,24,31.6,24z M12,19l3-8.6c0.1-0.3,0.3-0.5,0.5-0.7s0.5-0.2,0.8-0.2
	h15.5c0.3,0,0.5,0.1,0.8,0.2c0.2,0.2,0.4,0.4,0.5,0.7l3,8.6v11.8c0,0.2-0.1,0.4-0.2,0.5c-0.1,0.1-0.3,0.2-0.5,0.2h-0.1
	c-0.2,0-0.4-0.1-0.5-0.2s-0.2-0.3-0.2-0.5v-3.4H13.5v3.4c0,0.2-0.1,0.4-0.2,0.5c-0.1,0.1-0.3,0.2-0.5,0.2h-0.1
	c-0.2,0-0.4-0.1-0.5-0.2C12.1,31.2,12,31,12,30.8V19z M13.9,18.1h20.2l-2.4-7H16.3L13.9,18.1z"/>
</svg>
