<?xml version="1.0" encoding="utf-8"?>
<!-- Generator: Adobe Illustrator 26.3.1, SVG Export Plug-In . SVG Version: 6.00 Build 0)  -->
<svg version="1.1" id="Слой_1" xmlns="http://www.w3.org/2000/svg" xmlns:xlink="http://www.w3.org/1999/xlink" x="0px" y="0px"
	 viewBox="0 0 48 48" style="enable-background:new 0 0 48 48;" xml:space="preserve">
<path d="M6.8,40c-0.2,0-0.4-0.1-0.5-0.2C6.1,39.6,6,39.4,6,39.2V24.5l4-11.7c0.1-0.2,0.2-0.4,0.5-0.6c0.2-0.1,0.5-0.2,0.7-0.2H19
	v0.7c0,0.1,0,0.3,0,0.4c0,0.2,0,0.3,0.1,0.4h-7.6l-3.2,9.4h18.4l4.5,4.4c-0.5,0.1-0.8,0.4-1.1,0.8c-0.3,0.4-0.5,0.8-0.5,1.3
	c0,0.6,0.2,1,0.6,1.5c0.4,0.4,0.9,0.6,1.5,0.6c0.6,0,1.1-0.2,1.6-0.7s0.6-1,0.6-1.6c0-0.1,0-0.2,0-0.3c0-0.1,0-0.2-0.1-0.2
	c0.5,0.1,0.9,0.2,1.4,0.2s1,0,1.5-0.1c0.2-0.1,0.3-0.1,0.5-0.2s0.4-0.1,0.5-0.2L38,28v11.2c0,0.2-0.1,0.4-0.2,0.5
	c-0.1,0.1-0.3,0.2-0.5,0.2l0,0c-0.2,0-0.4-0.1-0.5-0.2c-0.1-0.1-0.2-0.3-0.2-0.5v-3.3H7.5v3.3c0,0.2-0.1,0.4-0.2,0.5
	C7.2,39.9,7,40,6.8,40z M12.5,31.5c0.6,0,1.1-0.2,1.5-0.6s0.6-0.9,0.6-1.5s-0.2-1.1-0.6-1.5c-0.4-0.4-0.9-0.6-1.5-0.6
	s-1.1,0.2-1.5,0.6s-0.6,0.9-0.6,1.5s0.2,1.1,0.6,1.5C11.4,31.3,11.9,31.5,12.5,31.5z M33.8,24l-9.9-10c-0.2-0.2-0.3-0.4-0.4-0.6
	c-0.1-0.3-0.2-0.5-0.2-0.8V5.3c0-0.6,0.2-1.1,0.6-1.5s0.9-0.6,1.5-0.6h7.3c0.3,0,0.5,0.1,0.8,0.2c0.3,0.1,0.5,0.2,0.6,0.4l10,10
	c0.4,0.4,0.6,0.9,0.6,1.5s-0.2,1.1-0.6,1.5L36.7,24c-0.4,0.4-0.9,0.6-1.5,0.6S34.2,24.4,33.8,24z M30,11.2c0.3,0,0.6-0.1,0.9-0.4
	c0.2-0.2,0.4-0.5,0.4-0.9c0-0.3-0.1-0.6-0.4-0.9c-0.2-0.2-0.5-0.4-0.9-0.4c-0.3,0-0.6,0.1-0.9,0.4c-0.2,0.2-0.4,0.5-0.4,0.9
	c0,0.3,0.1,0.6,0.4,0.9C29.4,11.1,29.7,11.2,30,11.2z"/>
</svg>
