<?xml version="1.0" encoding="utf-8"?>
<!-- Generator: Adobe Illustrator 26.3.1, SVG Export Plug-In . SVG Version: 6.00 Build 0)  -->
<svg version="1.1" id="Слой_1" xmlns="http://www.w3.org/2000/svg" xmlns:xlink="http://www.w3.org/1999/xlink" x="0px" y="0px"
	 viewBox="0 0 48 48" style="enable-background:new 0 0 48 48;" xml:space="preserve">
<path d="M8.8,6h30.5c0.8,0,1.4,0.3,2,0.8C41.7,7.3,42,8,42,8.8v20.5c0,0.8-0.3,1.4-0.8,2c-0.5,0.5-1.2,0.8-2,0.8h-9.7v8.5L24,37.8
	l-5.5,2.8V32H8.8c-0.8,0-1.4-0.3-2-0.8C6.3,30.7,6,30,6,29.2V8.8c0-0.8,0.3-1.4,0.8-2C7.3,6.3,8,6,8.8,6z M7.5,25.1h32.9v-4H7.5
	V25.1z"/>
</svg>
