<?xml version="1.0" encoding="utf-8"?>
<!-- Generator: Adobe Illustrator 26.3.1, SVG Export Plug-In . SVG Version: 6.00 Build 0)  -->
<svg version="1.1" id="Слой_1" xmlns="http://www.w3.org/2000/svg" xmlns:xlink="http://www.w3.org/1999/xlink" x="0px" y="0px"
	 viewBox="0 0 48 48" style="enable-background:new 0 0 48 48;" xml:space="preserve">
<path d="M21.8,28.3l-3-4.5c-0.1-0.2-0.3-0.3-0.5-0.4s-0.4-0.2-0.6-0.2H8c-0.7-1.2-1.3-2.3-1.5-3.3c-0.3-1-0.4-2.1-0.4-3.1
	c0-2.5,0.8-4.6,2.5-6.3S12.3,8,14.8,8c1.8,0,3.5,0.5,5.1,1.5s2.9,2.4,4.1,4.3c1.3-1.9,2.7-3.4,4.2-4.3c1.5-1,3.2-1.4,5-1.4
	c2.5,0,4.6,0.8,6.2,2.5s2.5,3.8,2.5,6.3c0,1.1-0.1,2.1-0.4,3.1c-0.3,1-0.8,2.1-1.5,3.3h-9.7l-3.8-5.6c-0.1-0.1-0.2-0.2-0.3-0.3
	c-0.1,0-0.2-0.1-0.4-0.1c-0.1,0-0.3,0-0.4,0.1s-0.2,0.2-0.2,0.4C25.3,17.8,21.8,28.3,21.8,28.3z M24,40l-1.1-1
	c-3.5-3.2-6.4-6-8.6-8.2c-2.2-2.3-3.9-4.2-5.2-6h8.5l3.8,5.7c0.1,0.2,0.2,0.3,0.4,0.3c0.1,0,0.3,0.1,0.4,0.1s0.3,0,0.4-0.1
	s0.2-0.2,0.2-0.4l3.5-10.5l2.9,4.4c0.2,0.2,0.3,0.4,0.5,0.5s0.4,0.2,0.6,0.2h8.6c-1.3,1.7-3,3.7-5.2,6s-5.1,5-8.6,8.2L24,40z"/>
</svg>
