<?xml version="1.0" encoding="utf-8"?>
<!-- Generator: Adobe Illustrator 26.3.1, SVG Export Plug-In . SVG Version: 6.00 Build 0)  -->
<svg version="1.1" id="Слой_1" xmlns="http://www.w3.org/2000/svg" xmlns:xlink="http://www.w3.org/1999/xlink" x="0px" y="0px"
	 viewBox="0 0 48 48" style="enable-background:new 0 0 48 48;" xml:space="preserve">
<path d="M16.3,14v-3.7c0-0.8,0.3-1.4,0.8-1.9s1.2-0.8,2-0.8h9.8c0.8,0,1.4,0.3,1.9,0.8s0.8,1.2,0.8,1.9V14h7.5
	c0.8,0,1.4,0.3,1.9,0.8s0.8,1.2,0.8,1.9v20.5c0,0.8-0.3,1.4-0.8,1.9c-0.4,0.6-1,0.9-1.8,0.9H8.8c-0.8,0-1.4-0.3-1.9-0.8
	C6.3,38.6,6,38,6,37.2V16.8c0-0.8,0.3-1.4,0.8-1.9C7.4,14.3,8,14,8.8,14H16.3z M17.8,14h12.3v-3.7c0-0.3-0.1-0.6-0.4-0.9
	C29.5,9.2,29.2,9,28.8,9H19c-0.3,0-0.6,0.1-0.9,0.4c-0.2,0.2-0.4,0.5-0.4,0.9C17.8,10.3,17.8,14,17.8,14z M7.5,33.2h32.9v-4.1H7.5
	C7.5,29.2,7.5,33.2,7.5,33.2z"/>
</svg>
