<?xml version="1.0" encoding="utf-8"?>
<!-- Generator: Adobe Illustrator 26.3.1, SVG Export Plug-In . SVG Version: 6.00 Build 0)  -->
<svg version="1.1" id="Слой_1" xmlns="http://www.w3.org/2000/svg" xmlns:xlink="http://www.w3.org/1999/xlink" x="0px" y="0px"
	 viewBox="0 0 48 48" style="enable-background:new 0 0 48 48;" xml:space="preserve">
<path d="M24.4,24.6l3.9-2.3l3.9,2.3l-1-4.4l3.4-2.9l-4.5-0.4l-1.8-4.1l-1.8,4.1L22,17.3l3.4,2.9C25.5,20.2,24.4,24.6,24.4,24.6z
	 M12,41.7c-0.8,0.1-1.5-0.1-2.1-0.5c-0.6-0.5-0.9-1.1-1-1.8L6.2,18.5c-0.1-0.8,0.1-1.5,0.6-2.1s1.1-1,1.9-1l2.4-0.2v15.5
	c0,1.7,0.6,3.2,1.8,4.5c1.2,1.2,2.7,1.8,4.5,1.8h21.1c0.1,0.4,0,0.8-0.2,1.1s-0.6,0.5-1,0.5C37.2,38.6,12,41.7,12,41.7z M17.3,33.4
	c-0.8,0-1.4-0.3-2-0.8c-0.5-0.5-0.8-1.2-0.8-2V8.8c0-0.8,0.3-1.4,0.8-2c0.5-0.5,1.2-0.8,2-0.8h21.9c0.8,0,1.4,0.3,2,0.8
	C41.7,7.3,42,8,42,8.8v21.9c0,0.8-0.3,1.4-0.8,2c-0.5,0.5-1.2,0.8-2,0.8C39.2,33.4,17.3,33.4,17.3,33.4z"/>
</svg>
