<?xml version="1.0" encoding="utf-8"?>
<!-- Generator: Adobe Illustrator 26.3.1, SVG Export Plug-In . SVG Version: 6.00 Build 0)  -->
<svg version="1.1" id="Слой_1" xmlns="http://www.w3.org/2000/svg" xmlns:xlink="http://www.w3.org/1999/xlink" x="0px" y="0px"
	 viewBox="0 0 48 48" style="enable-background:new 0 0 48 48;" xml:space="preserve">
<path d="M29.8,42.3c-0.9,0-1.7-0.3-2.3-1c-0.6-0.6-1-1.4-1-2.3c0-0.9,0.3-1.7,1-2.3c0.6-0.6,1.4-1,2.3-1s1.7,0.3,2.3,1
	c0.6,0.6,1,1.4,1,2.3c0,0.9-0.3,1.7-1,2.3C31.5,42,30.8,42.3,29.8,42.3z M16.6,39.6c-0.8,0-1.4-0.3-2-0.8c-0.5-0.5-0.8-1.2-0.8-2
	V19.1c0-0.8,0.3-1.4,0.8-2c0.5-0.5,1.2-0.8,2-0.8h1.9v23.3H16.6z M19.6,39.6V16.4h8.8V7.5h-1.8c-0.4,0-0.8-0.2-1.1-0.5
	C25.1,6.8,25,6.4,25,6h4.9v28.2c-1.4,0-2.5,0.5-3.4,1.4c-1,0.9-1.5,2.1-1.5,3.4v0.3c0,0.1,0,0.2,0,0.3H19.6z"/>
</svg>
