<?xml version="1.0" encoding="utf-8"?>
<!-- Generator: Adobe Illustrator 26.3.1, SVG Export Plug-In . SVG Version: 6.00 Build 0)  -->
<svg version="1.1" id="Слой_1" xmlns="http://www.w3.org/2000/svg" xmlns:xlink="http://www.w3.org/1999/xlink" x="0px" y="0px"
	 viewBox="0 0 48 48" style="enable-background:new 0 0 48 48;" xml:space="preserve">
<path d="M33.4,39.4l6.7-6.7l-1.1-1l-5.6,5.6l-2.9-2.9l-1.1,1.1C29.4,35.5,33.4,39.4,33.4,39.4z M34.7,43.4c-2.2,0-4-0.8-5.6-2.3
	c-1.5-1.5-2.3-3.4-2.3-5.6c0-2.2,0.8-4,2.3-5.6c1.5-1.5,3.4-2.3,5.6-2.3s4,0.8,5.6,2.3c1.5,1.5,2.3,3.4,2.3,5.6s-0.8,4-2.3,5.6
	C38.8,42.6,36.9,43.4,34.7,43.4z M19.6,39.6V16.4h8.8V7.5h-1.8c-0.4,0-0.8-0.2-1.1-0.5C25.1,6.8,25,6.4,25,6h4.9v19.1
	c-2,1-3.5,2.4-4.7,4.3c-1.2,1.8-1.8,3.9-1.8,6c0,0.7,0,1.5,0.1,2.2s0.3,1.4,0.6,2.1C24,39.6,19.6,39.6,19.6,39.6z M16.6,39.6
	c-0.8,0-1.4-0.3-2-0.8c-0.5-0.5-0.8-1.2-0.8-2V19.1c0-0.8,0.3-1.4,0.8-2c0.5-0.5,1.2-0.8,2-0.8h1.9v23.3H16.6z"/>
</svg>
