<?xml version="1.0" encoding="utf-8"?>
<!-- Generator: Adobe Illustrator 26.3.1, SVG Export Plug-In . SVG Version: 6.00 Build 0)  -->
<svg version="1.1" id="Слой_1" xmlns="http://www.w3.org/2000/svg" xmlns:xlink="http://www.w3.org/1999/xlink" x="0px" y="0px"
	 viewBox="0 0 48 48" style="enable-background:new 0 0 48 48;" xml:space="preserve">
<path d="M36.7,42.8L31,37.1c0.2,0.3,0.4,0.5,0.5,0.9c0.1,0.3,0.2,0.7,0.2,1.1c0,0.9-0.3,1.7-1,2.3c-0.6,0.6-1.4,1-2.3,1
	s-1.7-0.3-2.3-1c-0.6-0.6-1-1.4-1-2.3c0-0.9,0.3-1.7,1-2.3c0.6-0.7,1.4-1,2.3-1c0.4,0,0.7,0.1,1,0.2s0.6,0.3,0.9,0.5l-2.2-2.2
	c-1.3,0.1-2.3,0.6-3.2,1.5c-0.9,0.9-1.3,2.1-1.3,3.4c0,0.1,0,0.2,0,0.3s0,0.2,0,0.3H18V24.1L16.9,23v16.6H15c-0.8,0-1.4-0.3-2-0.8
	c-0.5-0.5-0.8-1.2-0.8-1.9V19c0-0.1,0-0.2,0-0.3c0-0.1,0.1-0.1,0.2-0.2l-7.9-7.9l1.1-1.1l32,32C37.8,41.6,36.7,42.8,36.7,42.8z
	 M28.3,27.1L17.5,16.4h9.3V7.5H25c-0.4,0-0.8-0.2-1.1-0.5c-0.3-0.3-0.4-0.7-0.4-1.1h4.9v21.2H28.3z"/>
</svg>
