<?xml version="1.0" encoding="utf-8"?>
<!-- Generator: Adobe Illustrator 26.3.1, SVG Export Plug-In . SVG Version: 6.00 Build 0)  -->
<svg version="1.1" id="Слой_1" xmlns="http://www.w3.org/2000/svg" xmlns:xlink="http://www.w3.org/1999/xlink" x="0px" y="0px"
	 viewBox="0 0 48 48" style="enable-background:new 0 0 48 48;" xml:space="preserve">
<path d="M34.7,43.4c-2.2,0-4-0.8-5.6-2.3c-1.5-1.5-2.3-3.4-2.3-5.6c0-2.2,0.8-4,2.3-5.6c1.5-1.5,3.4-2.3,5.6-2.3s4,0.8,5.6,2.3
	c1.5,1.5,2.3,3.4,2.3,5.6s-0.8,4-2.3,5.6C38.8,42.6,36.9,43.4,34.7,43.4z M19.6,39.6V16.4h8.8V7.5h-1.8c-0.4,0-0.8-0.2-1.1-0.5
	C25.1,6.8,25,6.4,25,6h4.9v19.1c-2,1-3.5,2.4-4.7,4.3c-1.2,1.8-1.8,3.9-1.8,6c0,0.7,0,1.5,0.1,2.2s0.3,1.4,0.6,2.1
	C24,39.6,19.6,39.6,19.6,39.6z M16.6,39.6c-0.8,0-1.4-0.3-2-0.8c-0.5-0.5-0.8-1.2-0.8-2V19.1c0-0.8,0.3-1.4,0.8-2
	c0.5-0.5,1.2-0.8,2-0.8h1.9v23.3H16.6z M34.8,41.3c0.3,0,0.6-0.1,0.8-0.3s0.3-0.5,0.3-0.8s-0.1-0.6-0.3-0.8s-0.5-0.3-0.8-0.3
	s-0.6,0.1-0.8,0.3s-0.3,0.5-0.3,0.8s0.1,0.6,0.3,0.8S34.4,41.3,34.8,41.3z M34,37.6h1.6v-0.4c0-0.4,0.1-0.8,0.3-1
	c0.2-0.3,0.5-0.5,0.7-0.8c0.5-0.4,0.9-0.8,1.2-1.3c0.3-0.4,0.4-1,0.4-1.6c0-1-0.3-1.7-1-2.3c-0.6-0.6-1.5-0.9-2.5-0.9
	c-0.8,0-1.5,0.2-2.1,0.7c-0.7,0.5-1.1,1.1-1.4,1.9l1.5,0.5c0.1-0.4,0.4-0.8,0.7-1.1c0.4-0.3,0.8-0.5,1.3-0.5c0.6,0,1,0.1,1.3,0.4
	s0.5,0.7,0.5,1.3c0,0.4-0.1,0.7-0.4,1c-0.3,0.3-0.5,0.6-0.8,0.8c-0.2,0.2-0.4,0.4-0.6,0.7c-0.2,0.2-0.4,0.5-0.6,0.7
	c-0.1,0.1-0.2,0.3-0.2,0.6c0,0.2-0.1,0.4-0.1,0.7C34,37,34,37.6,34,37.6z"/>
</svg>
