<?xml version="1.0" encoding="utf-8"?>
<!-- Generator: Adobe Illustrator 26.3.1, SVG Export Plug-In . SVG Version: 6.00 Build 0)  -->
<svg version="1.1" id="Слой_1" xmlns="http://www.w3.org/2000/svg" xmlns:xlink="http://www.w3.org/1999/xlink" x="0px" y="0px"
	 viewBox="0 0 48 48" style="enable-background:new 0 0 48 48;" xml:space="preserve">
<path d="M32.1,20.7l7.1-4.1l-7.1-4.1L25,16.6L32.1,20.7z M32.1,26.4l5.2-3v-3.5l-5.2,3l-5.2-3v3.5L32.1,26.4z M6,38v-3.5
	c0.9,0,1.7,0.3,2.4,1s1,1.5,1,2.4C9.4,38,6,38,6,38z M14.6,38c0-2.4-0.8-4.4-2.5-6.1c-1.7-1.7-3.7-2.6-6.1-2.6v-1.5
	c2.8,0,5.2,1,7.2,3s3,4.4,3,7.3C16.2,38,14.6,38,14.6,38z M22.2,38c0-2.2-0.4-4.3-1.3-6.3c-0.8-2-2-3.7-3.4-5.2
	C16,25,14.3,23.9,12.3,23c-2-0.8-4.1-1.3-6.3-1.3v-1.5c2.5,0,4.8,0.5,6.9,1.4s4,2.2,5.6,3.8c1.6,1.6,2.9,3.5,3.8,5.6
	c0.9,2.2,1.4,4.5,1.4,6.9C23.7,38,22.2,38,22.2,38z M28.9,38c0-3.2-0.6-6.2-1.8-9c-1.2-2.8-2.8-5.2-4.9-7.3s-4.5-3.7-7.3-4.9
	C12.2,15.6,9.2,15,6,15v-2.2c0-0.7,0.3-1.4,0.8-1.9C7.4,10.3,8,10,8.8,10h30.5c0.8,0,1.4,0.3,2,0.8c0.5,0.6,0.8,1.2,0.8,1.9v22.5
	c0,0.7-0.3,1.4-0.8,1.9c-0.5,0.6-1.2,0.8-2,0.8L28.9,38L28.9,38z"/>
</svg>
