<?xml version="1.0" encoding="utf-8"?>
<!-- Generator: Adobe Illustrator 26.3.1, SVG Export Plug-In . SVG Version: 6.00 Build 0)  -->
<svg version="1.1" id="Слой_1" xmlns="http://www.w3.org/2000/svg" xmlns:xlink="http://www.w3.org/1999/xlink" x="0px" y="0px"
	 viewBox="0 0 48 48" style="enable-background:new 0 0 48 48;" xml:space="preserve">
<path d="M38.1,16.3h1.4V8.9h-1.4V16.3z M33,16.3h1.4V8.9H33V16.3z M6,34.5c0.9,0,1.7,0.3,2.4,1s1,1.5,1,2.4H6V34.5z M6,27.8
	c2.8,0,5.2,1,7.2,3s3,4.4,3,7.3h-1.5c0-2.4-0.8-4.4-2.5-6.1c-1.7-1.7-3.7-2.6-6.1-2.6C6,29.3,6,27.8,6,27.8z M6,20.2
	c2.5,0,4.8,0.5,6.9,1.4s4,2.2,5.6,3.8c1.6,1.6,2.9,3.5,3.8,5.6c0.9,2.2,1.4,4.5,1.4,6.9h-1.5c0-2.2-0.4-4.3-1.3-6.3
	c-0.8-2-2-3.7-3.4-5.2C16,25,14.3,23.9,12.3,23c-2-0.8-4.1-1.3-6.3-1.3C6,21.8,6,20.2,6,20.2z M28.9,38c0-3.2-0.6-6.2-1.8-9
	c-1.2-2.8-2.8-5.2-4.9-7.3s-4.5-3.7-7.3-4.9C12.2,15.6,9.2,15,6,15v-2.2c0-0.7,0.3-1.4,0.8-1.9C7.4,10.3,8,10,8.8,10h15.6
	c-0.1,0.2-0.1,0.5-0.1,0.7c0,0.3-0.1,0.5-0.1,0.8c-0.3,3.5,0.7,6.6,3.1,9.2s5.4,3.9,8.9,3.9c1,0,2-0.1,3-0.4s1.9-0.7,2.8-1.2v12.1
	c0,0.7-0.3,1.4-0.8,1.9c-0.5,0.6-1.2,0.8-2,0.8H28.9V38z M36.2,20.4c-2.1,0-4-0.8-5.5-2.3s-2.3-3.3-2.3-5.5c0-2.1,0.8-4,2.3-5.5
	s3.4-2.3,5.5-2.3s4,0.8,5.5,2.3s2.3,3.3,2.3,5.5s-0.8,4-2.3,5.5S38.4,20.4,36.2,20.4z"/>
</svg>
