<?xml version="1.0" encoding="utf-8"?>
<!-- Generator: Adobe Illustrator 26.3.1, SVG Export Plug-In . SVG Version: 6.00 Build 0)  -->
<svg version="1.1" id="Слой_1" xmlns="http://www.w3.org/2000/svg" xmlns:xlink="http://www.w3.org/1999/xlink" x="0px" y="0px"
	 viewBox="0 0 48 48" style="enable-background:new 0 0 48 48;" xml:space="preserve">
<path d="M15.8,20.3L24,6.9l8.2,13.4H15.8z M35.1,42.5c-2,0-3.8-0.7-5.2-2.1c-1.4-1.4-2.1-3.1-2.1-5.2c0-2.1,0.7-3.8,2.1-5.2
	c1.4-1.4,3.1-2.1,5.2-2.1c2,0,3.8,0.7,5.2,2.1s2.1,3.2,2.1,5.2s-0.7,3.7-2.1,5.2C38.9,41.8,37.2,42.5,35.1,42.5z M7.5,41.3V28.8H20
	v12.5C20.1,41.3,7.5,41.3,7.5,41.3z"/>
</svg>
