<?xml version="1.0" encoding="utf-8"?>
<!-- Generator: Adobe Illustrator 26.3.1, SVG Export Plug-In . SVG Version: 6.00 Build 0)  -->
<svg version="1.1" id="Слой_1" xmlns="http://www.w3.org/2000/svg" xmlns:xlink="http://www.w3.org/1999/xlink" x="0px" y="0px"
	 viewBox="0 0 48 48" style="enable-background:new 0 0 48 48;" xml:space="preserve">
<path d="M7.2,40.7l7.2-20.2l13,12.9C27.4,33.5,7.2,40.7,7.2,40.7z M26.3,26l-1.1-1.1l11.1-11.1c0.9-0.9,2.1-1.4,3.5-1.4
	s2.6,0.4,3.5,1.4l0.6,0.6l-1,1.1l-0.6-0.6c-0.7-0.7-1.5-1-2.4-1s-1.8,0.3-2.4,1C37.4,14.8,26.3,26,26.3,26z M19.7,19.5l-1.1-1
	l1.3-1.3c0.9-0.9,1.3-1.9,1.3-3c0-1.2-0.4-2.2-1.3-3l-1.3-1.3l1.1-1L21,10c1.1,1.1,1.7,2.5,1.7,4.1s-0.6,3-1.7,4.1L19.7,19.5z
	 M23,22.7l-1-1l6.9-6.9c0.7-0.7,1-1.5,1-2.5s-0.3-1.9-1-2.5L26.2,7l1-1l2.7,2.7c0.9,1,1.4,2.2,1.4,3.6s-0.5,2.6-1.4,3.5
	C30,15.8,23,22.7,23,22.7z M29.6,29.3l-1.1-1l1.2-1.2c1.1-1.1,2.5-1.7,4.1-1.7s3,0.5,4.1,1.7l1.3,1.3l-1,1.1l-1.3-1.3
	c-0.9-0.9-1.9-1.3-3-1.3s-2.1,0.4-3,1.3C30.8,28.1,29.6,29.3,29.6,29.3z"/>
</svg>
