<?xml version="1.0" encoding="utf-8"?>
<!-- Generator: Adobe Illustrator 26.3.1, SVG Export Plug-In . SVG Version: 6.00 Build 0)  -->
<svg version="1.1" id="Слой_1" xmlns="http://www.w3.org/2000/svg" xmlns:xlink="http://www.w3.org/1999/xlink" x="0px" y="0px"
	 viewBox="0 0 48 48" style="enable-background:new 0 0 48 48;" xml:space="preserve">
<path d="M11,33c-1.9-1.8-3.3-3.9-4.2-6.1C6,24.6,5.5,22.3,5.5,20s0.4-4.6,1.3-6.9C7.7,10.9,9.1,8.8,11,7l1,1c-1.7,1.7-3,3.5-3.8,5.7
	S7,17.9,7,20s0.4,4.2,1.2,6.3s2.1,4,3.8,5.7L11,33z M15.5,28.5c-1.2-1.2-2-2.5-2.6-4s-0.8-3-0.8-4.4s0.3-2.9,0.8-4.4
	c0.6-1.5,1.4-2.9,2.6-4l1.1,1c-1,1-1.7,2.2-2.2,3.5s-0.8,2.7-0.8,3.9c0,1.2,0.3,2.5,0.8,3.9c0.5,1.3,1.3,2.5,2.2,3.5
	C16.6,27.4,15.5,28.5,15.5,28.5z M16.5,40.7l5.8-17.5c-0.6-0.3-1.1-0.8-1.4-1.4s-0.5-1.2-0.5-1.8c0-1,0.4-1.9,1.1-2.6
	s1.6-1.1,2.6-1.1s1.9,0.4,2.6,1.1s1.1,1.6,1.1,2.6c0,0.6-0.2,1.2-0.5,1.8c-0.3,0.6-0.8,1-1.4,1.4l5.8,17.5h-1.6l-1.4-4.2h-9.1
	l-1.3,4.2C18.1,40.7,16.5,40.7,16.5,40.7z M20,34.9h8l-4-12.2L20,34.9z M32.5,28.5l-1-1.1c0.9-1,1.7-2.1,2.2-3.5
	c0.5-1.3,0.8-2.7,0.8-3.9c0-1.2-0.3-2.4-0.8-3.8s-1.3-2.6-2.2-3.6l1-1c1.1,1.2,2,2.5,2.6,4.1c0.6,1.5,0.8,3,0.8,4.4
	s-0.3,2.9-0.8,4.4C34.5,26,33.6,27.3,32.5,28.5z M37,33l-1-1c1.7-1.7,2.9-3.5,3.8-5.7c0.8-2.1,1.3-4.2,1.3-6.3s-0.4-4.2-1.3-6.3
	S37.6,9.7,36,8l1-1c1.9,1.8,3.3,3.9,4.1,6.1c0.9,2.3,1.3,4.5,1.3,6.9c0,2.3-0.4,4.6-1.3,6.9C40.3,29.1,38.9,31.2,37,33z"/>
</svg>
