<?xml version="1.0" encoding="utf-8"?>
<!-- Generator: Adobe Illustrator 26.3.1, SVG Export Plug-In . SVG Version: 6.00 Build 0)  -->
<svg version="1.1" id="Слой_1" xmlns="http://www.w3.org/2000/svg" xmlns:xlink="http://www.w3.org/1999/xlink" x="0px" y="0px"
	 viewBox="0 0 48 48" style="enable-background:new 0 0 48 48;" xml:space="preserve">
<path d="M7.2,40.8v-9.5h1.5v8h8v1.5C16.8,40.8,7.2,40.8,7.2,40.8z M31.2,40.8v-1.5h8v-8h1.5v9.5C40.8,40.8,31.2,40.8,31.2,40.8z
	 M14.4,29.9l-1.1-1.1l4.1-4.1H5.2v-1.5h12.1l-4.1-4.1l1.1-1.1l5.9,5.9L14.4,29.9z M33.7,29.9l-6-5.9l5.9-5.9l1.1,1.1l-4.1,4.1h12.1
	v1.5h-12l4.1,4.1L33.7,29.9z M7.2,16.8V7.2h9.5v1.5h-8v8C8.8,16.8,7.2,16.8,7.2,16.8z M39.2,16.8v-8h-8V7.2h9.5v9.5L39.2,16.8
	L39.2,16.8z"/>
</svg>
