<?xml version="1.0" encoding="utf-8"?>
<!-- Generator: Adobe Illustrator 26.3.1, SVG Export Plug-In . SVG Version: 6.00 Build 0)  -->
<svg version="1.1" id="Слой_1" xmlns="http://www.w3.org/2000/svg" xmlns:xlink="http://www.w3.org/1999/xlink" x="0px" y="0px"
	 viewBox="0 0 48 48" style="enable-background:new 0 0 48 48;" xml:space="preserve">
<path d="M16.8,42L42,16.8V42H16.8z M36.2,40.5h4.3v-20l-4.3,4.3V40.5z M22.1,24.7c-0.6,0-1.1-0.2-1.5-0.6S20,23.2,20,22.6
	s0.2-1.1,0.6-1.5s0.9-0.6,1.5-0.6s1.1,0.2,1.5,0.6s0.6,0.9,0.6,1.5s-0.2,1.1-0.6,1.5S22.7,24.7,22.1,24.7z M15.2,19.1L14.1,18
	c1.1-1,2.3-1.9,3.8-2.5c1.4-0.6,2.9-0.9,4.3-0.9c1.5,0,2.9,0.3,4.3,0.9c1.4,0.6,2.6,1.4,3.7,2.4L29,19.1c-0.9-0.9-2-1.6-3.1-2.1
	c-1.2-0.5-2.4-0.8-3.6-0.8c-1.3,0-2.5,0.3-3.7,0.8C17.3,17.6,16.2,18.3,15.2,19.1z M10.5,14.3l-1.1-1.2c1.7-1.7,3.7-3,6-3.8
	C17.5,8.4,19.8,8,22.2,8s4.6,0.4,6.8,1.3c2.2,0.9,4.2,2.1,5.9,3.8l-1.1,1.2c-1.6-1.5-3.4-2.6-5.5-3.5c-2-0.8-4.1-1.2-6.1-1.2
	c-2.1,0-4.1,0.4-6.2,1.2C13.9,11.7,12.1,12.8,10.5,14.3z"/>
</svg>
