<?xml version="1.0" encoding="utf-8"?>
<!-- Generator: Adobe Illustrator 26.3.1, SVG Export Plug-In . SVG Version: 6.00 Build 0)  -->
<svg version="1.1" id="Слой_1" xmlns="http://www.w3.org/2000/svg" xmlns:xlink="http://www.w3.org/1999/xlink" x="0px" y="0px"
	 viewBox="0 0 48 48" style="enable-background:new 0 0 48 48;" xml:space="preserve">
<path d="M10.8,40c-0.8,0-1.4-0.3-2-0.8C8.3,38.7,8,38,8,37.2v-7.1h1.5v7.1c0,0.3,0.1,0.6,0.4,0.8s0.5,0.4,0.8,0.4h7.1V40H10.8z
	 M30.2,40v-1.5h7.1c0.3,0,0.6-0.1,0.8-0.4c0.3-0.3,0.4-0.5,0.4-0.8v-7.1H40v7.1c0,0.8-0.3,1.4-0.8,2c-0.5,0.5-1.2,0.8-2,0.8L30.2,40
	L30.2,40z M8,17.8v-7.1c0-0.8,0.3-1.4,0.8-2C9.3,8.3,10,8,10.8,8h7.1v1.5h-7.1c-0.3,0-0.6,0.1-0.8,0.4c-0.3,0.3-0.4,0.5-0.4,0.8v7.1
	H8z M38.5,17.8v-7.1c0-0.3-0.1-0.6-0.4-0.8c-0.3-0.3-0.5-0.4-0.8-0.4h-7.1V8h7.1c0.8,0,1.4,0.3,2,0.8c0.5,0.5,0.8,1.2,0.8,2v7.1
	h-1.6V17.8z M24,31.7c-2.1,0-3.9-0.8-5.4-2.3s-2.3-3.3-2.3-5.4s0.8-3.9,2.3-5.4s3.3-2.3,5.4-2.3s3.9,0.8,5.4,2.3s2.3,3.3,2.3,5.4
	s-0.8,3.9-2.3,5.4C27.9,30.9,26.1,31.7,24,31.7z"/>
</svg>
