<?xml version="1.0" encoding="utf-8"?>
<!-- Generator: Adobe Illustrator 26.3.1, SVG Export Plug-In . SVG Version: 6.00 Build 0)  -->
<svg version="1.1" id="Слой_1" xmlns="http://www.w3.org/2000/svg" xmlns:xlink="http://www.w3.org/1999/xlink" x="0px" y="0px"
	 viewBox="0 0 48 48" style="enable-background:new 0 0 48 48;" xml:space="preserve">
<path d="M9.9,38.7c-0.2,0-0.4-0.1-0.6-0.2c-0.1-0.1-0.2-0.3-0.2-0.6v-2.1H7.6c-1,0-1.9-0.4-2.6-1.1C4.3,34,4,33.1,4,32V21.1
	c0-0.8,0.3-1.5,0.8-2.1s1.2-0.9,2-0.9s1.5,0.3,2,0.9s0.8,1.3,0.8,2.1v7.3h28.8v-7.3c0-0.8,0.3-1.5,0.8-2.1s1.2-0.9,2-0.9
	s1.4,0.3,2,0.9c0.5,0.6,0.8,1.3,0.8,2.1V32c0,1.1-0.3,2-1,2.7s-1.5,1.1-2.6,1.1h-1.5v2.1c0,0.2-0.1,0.4-0.2,0.5
	c-0.1,0.2-0.3,0.2-0.5,0.2s-0.4-0.1-0.6-0.2s-0.2-0.3-0.2-0.6v-2.1H10.7v2.1c0,0.2-0.1,0.4-0.2,0.6C10.3,38.6,10.1,38.7,9.9,38.7z
	 M11.1,26.9v-5.8c0-1.1-0.3-2.2-1-3c-0.6-0.9-1.5-1.3-2.6-1.3v-2.7c0-1,0.3-1.9,1-2.6s1.5-1,2.5-1h25.7c1,0,1.9,0.3,2.5,1
	c0.7,0.7,1,1.6,1,2.6v2.7c-1,0.1-1.9,0.6-2.5,1.4c-0.7,0.9-1,1.8-1,3V27H11.1V26.9z"/>
</svg>
