<?xml version="1.0" encoding="utf-8"?>
<!-- Generator: Adobe Illustrator 26.3.1, SVG Export Plug-In . SVG Version: 6.00 Build 0)  -->
<svg version="1.1" id="Слой_1" xmlns="http://www.w3.org/2000/svg" xmlns:xlink="http://www.w3.org/1999/xlink" x="0px" y="0px"
	 viewBox="0 0 48 48" style="enable-background:new 0 0 48 48;" xml:space="preserve">
<path d="M35.5,21.5v-2.9l-1.8,1.8l-0.9-0.9l2.8-2.8v-2.3h-2.3l-2.8,2.8l-0.9-0.9l1.8-1.8h-2.9v-1.3h2.9l-1.8-1.9l0.9-0.9l2.8,2.7
	h2.3V11l-2.8-2.8l0.9-0.9l1.8,1.8V6.2h1.3v2.9l1.9-1.8l0.9,0.9L36.8,11v2.3H39l2.8-2.8l0.9,0.9l-1.8,1.9h2.9v1.3h-2.9l1.8,1.8
	l-0.9,0.9L39,14.5h-2.3v2.3l2.8,2.8l-0.9,0.9l-1.9-1.8v2.9L35.5,21.5L35.5,21.5z M12,38v-9.7l-2.2,2.2l-1.1-1.1L20,18.2l11.7,11.7
	L30.6,31L28,28.3V38h-7.2v-6.5h-1.5V38H12z"/>
</svg>
