<?xml version="1.0" encoding="utf-8"?>
<!-- Generator: Adobe Illustrator 26.3.1, SVG Export Plug-In . SVG Version: 6.00 Build 0)  -->
<svg version="1.1" id="Слой_1" xmlns="http://www.w3.org/2000/svg" xmlns:xlink="http://www.w3.org/1999/xlink" x="0px" y="0px"
	 viewBox="0 0 48 48" style="enable-background:new 0 0 48 48;" xml:space="preserve">
<path d="M24.1,37.2l4.8-4.8l-4.8-4.8l-1.3,1.3l2.8,2.8c-1.5,0-2.9-0.2-4.1-0.5c-1.2-0.4-2.2-0.9-2.9-1.6c-0.7-0.7-1.3-1.6-1.7-2.5
	c-0.4-0.9-0.6-1.9-0.6-2.8c0-0.6,0.1-1.1,0.2-1.7s0.3-1.1,0.5-1.6l-1.4-1.2c-0.4,0.7-0.7,1.4-0.9,2.2c-0.2,0.8-0.3,1.5-0.3,2.3
	c0,1.2,0.2,2.4,0.7,3.5c0.5,1.2,1.1,2.2,2,3.1s2.1,1.6,3.6,2s3,0.7,4.5,0.7l-2.6,2.6L24.1,37.2z M32.3,28.5c0.4-0.7,0.7-1.4,0.9-2.2
	c0.2-0.8,0.3-1.5,0.3-2.3c0-1.2-0.2-2.4-0.7-3.5c-0.5-1.2-1.1-2.2-2.1-3.1c-0.9-0.9-2.1-1.6-3.6-2s-3-0.7-4.5-0.7l2.6-2.6l-1.3-1.3
	l-4.8,4.8l4.8,4.8l1.3-1.3l-2.8-2.8c1.5,0,2.9,0.2,4.1,0.6s2.2,0.9,2.9,1.7c0.7,0.7,1.3,1.6,1.7,2.5c0.4,0.9,0.6,1.9,0.6,2.8
	c0,0.6-0.1,1.1-0.2,1.7s-0.3,1.1-0.5,1.6L32.3,28.5z M24,42c-2.5,0-4.8-0.5-7-1.4s-4.1-2.2-5.7-3.9c-1.6-1.6-2.9-3.5-3.9-5.7
	C6.5,28.8,6,26.5,6,24s0.5-4.8,1.4-7s2.2-4.1,3.9-5.7c1.6-1.6,3.5-2.9,5.7-3.8c2.2-1,4.5-1.5,7-1.5s4.8,0.5,7,1.4s4.1,2.2,5.7,3.8
	c1.6,1.6,2.9,3.5,3.8,5.7c0.9,2.2,1.4,4.5,1.4,7s-0.5,4.8-1.4,7s-2.2,4.1-3.8,5.7s-3.5,2.9-5.7,3.9S26.5,42,24,42z"/>
</svg>
