<?xml version="1.0" encoding="utf-8"?>
<!-- Generator: Adobe Illustrator 26.3.1, SVG Export Plug-In . SVG Version: 6.00 Build 0)  -->
<svg version="1.1" id="Слой_1" xmlns="http://www.w3.org/2000/svg" xmlns:xlink="http://www.w3.org/1999/xlink" x="0px" y="0px"
	 viewBox="0 0 48 48" style="enable-background:new 0 0 48 48;" xml:space="preserve">
<path d="M23.8,37.9l5.4-16.3h-4.8V9.7L19,26.1h4.8V37.9z M24,42c-2.5,0-4.9-0.5-7-1.4c-2.2-0.9-4.1-2.2-5.7-3.8s-2.9-3.5-3.8-5.7
	C6.5,28.9,6,26.5,6,24s0.5-4.8,1.4-7s2.2-4.1,3.8-5.7s3.5-2.9,5.7-3.8C19.1,6.5,21.5,6,24,6s4.8,0.5,7,1.4s4.1,2.2,5.7,3.8
	c1.6,1.6,2.9,3.5,3.8,5.7c0.9,2.2,1.4,4.5,1.4,7s-0.5,4.9-1.4,7c-0.9,2.2-2.2,4.1-3.8,5.7s-3.5,2.9-5.7,3.8C28.8,41.5,26.5,42,24,42
	z"/>
</svg>
