<?xml version="1.0" encoding="utf-8"?>
<!-- Generator: Adobe Illustrator 26.3.1, SVG Export Plug-In . SVG Version: 6.00 Build 0)  -->
<svg version="1.1" id="Слой_1" xmlns="http://www.w3.org/2000/svg" xmlns:xlink="http://www.w3.org/1999/xlink" x="0px" y="0px"
	 viewBox="0 0 48 48" style="enable-background:new 0 0 48 48;" xml:space="preserve">
<path d="M14.2,16.5h15.5V15H14.2V16.5z M14.2,24.8h9.5v-1.5h-9.5C14.2,23.3,14.2,24.8,14.2,24.8z M35.2,38.8v-6h-6v-1.5h6v-6h1.5v6
	h6v1.5h-6v6H35.2z M7,37.6V9.8c0-0.8,0.3-1.4,0.8-2C8.4,7.3,9,7,9.8,7h24.5c0.7,0,1.4,0.3,1.9,0.8C36.7,8.4,37,9,37,9.8V20
	c-0.3,0-0.5,0-0.8,0s-0.5,0-0.8,0c-3.1,0-5.8,1.1-8.1,3.4s-3.4,4.9-3.4,8c0,0.3,0,0.5,0,0.8c0,0.3,0,0.5,0,0.8H11.6L7,37.6z"/>
</svg>
