<?xml version="1.0" encoding="utf-8"?>
<!-- Generator: Adobe Illustrator 26.3.1, SVG Export Plug-In . SVG Version: 6.00 Build 0)  -->
<svg version="1.1" id="Слой_1" xmlns="http://www.w3.org/2000/svg" xmlns:xlink="http://www.w3.org/1999/xlink" x="0px" y="0px"
	 viewBox="0 0 48 48" style="enable-background:new 0 0 48 48;" xml:space="preserve">
<path d="M7,37.6V9.8c0-0.8,0.3-1.4,0.8-2C8.4,7.3,9,7,9.8,7h24.5c0.8,0,1.4,0.3,1.9,0.8C36.7,8.4,37,9,37,9.8V20c-0.3,0-0.5,0-0.8,0
	s-0.5,0-0.8,0c-3.1,0-5.8,1.1-8.1,3.4s-3.4,5-3.4,8.1c0,0.3,0,0.5,0,0.8s0,0.5,0,0.8H11.6L7,37.6z M14.2,16.5h15.5V15H14.2V16.5z
	 M14.2,24.8h9.5v-1.5h-9.5C14.2,23.3,14.2,24.8,14.2,24.8z M29.1,39c-0.2,0-0.4-0.1-0.6-0.2c-0.1-0.1-0.2-0.3-0.2-0.6
	s0.1-0.4,0.2-0.6s0.3-0.2,0.6-0.2h9.6L30.8,32c-0.2-0.1-0.3-0.3-0.3-0.5c-0.1-0.2,0-0.4,0.1-0.5c0.1-0.2,0.3-0.3,0.5-0.3
	s0.4,0,0.6,0.1l7.8,5.5l-3.3-9c-0.1-0.2-0.1-0.4,0-0.6s0.3-0.3,0.5-0.4s0.4-0.1,0.6,0c0.2,0.1,0.3,0.3,0.4,0.5l3.2,8.9l2.5-9.1
	c0-0.2,0.2-0.3,0.3-0.5c0.2-0.1,0.4-0.1,0.6-0.1c0.2,0,0.4,0.2,0.5,0.3c0.1,0.2,0.2,0.3,0.1,0.5L41.6,39H29.1z"/>
</svg>
