<?xml version="1.0" encoding="utf-8"?>
<!-- Generator: Adobe Illustrator 26.3.1, SVG Export Plug-In . SVG Version: 6.00 Build 0)  -->
<svg version="1.1" id="Слой_1" xmlns="http://www.w3.org/2000/svg" xmlns:xlink="http://www.w3.org/1999/xlink" x="0px" y="0px"
	 viewBox="0 0 48 48" style="enable-background:new 0 0 48 48;" xml:space="preserve">
<path d="M36,40.5l-1.1-1.1l4.4-4.4H29.2v-1.5h10.1L34.9,29l1.1-1l6.3,6.3L36,40.5z M14.2,18.5h15.5V17H14.2V18.5z M14.2,26.8h9.5
	v-1.5h-9.5C14.2,25.3,14.2,26.8,14.2,26.8z M7,39.6V11.8c0-0.7,0.3-1.4,0.8-1.9C8.4,9.3,9,9,9.8,9h24.5c0.8,0,1.4,0.3,1.9,0.8
	S37,11,37,11.7V22c-0.3,0-0.5,0-0.8,0s-0.5,0-0.8,0c-3.1,0-5.8,1.1-8.1,3.4s-3.4,5-3.4,8.1c0,0.3,0,0.5,0,0.8s0,0.5,0,0.8H11.6
	L7,39.6z"/>
</svg>
