<?xml version="1.0" encoding="utf-8"?>
<!-- Generator: Adobe Illustrator 26.3.1, SVG Export Plug-In . SVG Version: 6.00 Build 0)  -->
<svg version="1.1" id="Слой_1" xmlns="http://www.w3.org/2000/svg" xmlns:xlink="http://www.w3.org/1999/xlink" x="0px" y="0px"
	 viewBox="0 0 48 48" style="enable-background:new 0 0 48 48;" xml:space="preserve">
<path d="M15.9,33.7V14h3.2c0-1.4,0.5-2.5,1.4-3.4s2.1-1.4,3.4-1.4s2.5,0.5,3.4,1.4s1.4,2,1.4,3.4H32v19.7H15.9z M20.6,14h6.8
	c0-1-0.3-1.8-1-2.4c-0.7-0.6-1.5-0.9-2.4-0.9s-1.7,0.3-2.4,0.9C20.9,12.2,20.6,13,20.6,14z M33.5,33.7V14h1.8c0.8,0,1.4,0.3,2,0.8
	c0.5,0.5,0.8,1.2,0.8,2V31c0,0.8-0.3,1.4-0.8,2c-0.5,0.5-1.2,0.8-2,0.8L33.5,33.7L33.5,33.7z M12.7,33.7c-0.8,0-1.4-0.3-2-0.8
	c-0.5-0.5-0.8-1.2-0.8-2V16.8c0-0.8,0.3-1.4,0.8-2c0.5-0.5,1.2-0.8,2-0.8h1.8v19.7H12.7z M6.8,38.8v-1.5h34.5v1.5H6.8z"/>
</svg>
