<?xml version="1.0" encoding="utf-8"?>
<!-- Generator: Adobe Illustrator 26.3.1, SVG Export Plug-In . SVG Version: 6.00 Build 0)  -->
<svg version="1.1" id="Слой_1" xmlns="http://www.w3.org/2000/svg" xmlns:xlink="http://www.w3.org/1999/xlink" x="0px" y="0px"
	 viewBox="0 0 48 48" style="enable-background:new 0 0 48 48;" xml:space="preserve">
<path d="M6.8,38c-0.2,0-0.4-0.1-0.6-0.2S6,37.5,6,37.2c0-0.1,0-0.2,0.1-0.3c0-0.1,0.1-0.2,0.3-0.3l16.9-12.8v-3.2
	c0-0.2,0.1-0.4,0.2-0.5s0.3-0.2,0.5-0.2c1.2,0,2.2-0.4,3-1.2c0.8-0.8,1.2-1.8,1.2-3s-0.4-2.1-1.2-2.9c-0.8-0.8-1.8-1.2-3-1.2
	s-2.1,0.4-3,1.2c-0.8,0.8-1.2,1.8-1.2,2.9h-1.5c0-1.6,0.6-2.9,1.7-4s2.5-1.6,4.1-1.6s2.9,0.5,4,1.6s1.6,2.4,1.6,4
	c0,1.4-0.5,2.7-1.4,3.7c-0.9,1.1-2.1,1.7-3.5,1.9v2.5l16.9,12.8c0.1,0.1,0.2,0.2,0.3,0.3c0,0.1,0.1,0.2,0.1,0.3
	c0,0.2-0.1,0.4-0.2,0.6c-0.1,0.1-0.3,0.2-0.6,0.2H6.8z M9.2,36.5h29.7L24,25.2L9.2,36.5z"/>
</svg>
