<?xml version="1.0" encoding="utf-8"?>
<!-- Generator: Adobe Illustrator 26.3.1, SVG Export Plug-In . SVG Version: 6.00 Build 0)  -->
<svg version="1.1" id="Слой_1" xmlns="http://www.w3.org/2000/svg" xmlns:xlink="http://www.w3.org/1999/xlink" x="0px" y="0px"
	 viewBox="0 0 48 48" style="enable-background:new 0 0 48 48;" xml:space="preserve">
<path d="M6,36V12h36v7.3h-1.5l-8.1,8.1H12.9v1.5h17.9L23.7,36H6z M12.9,20.5h9.8V19h-9.8C12.9,19,12.9,20.5,12.9,20.5z M26.8,39.8
	v-1.1l12.4-12.4l1.1,1.1L28,39.8H26.8z M41.5,26.3l-1.1-1.1l1.6-1.6c0.1-0.1,0.3-0.2,0.5-0.2s0.3,0.1,0.5,0.2l0.2,0.1
	c0.1,0.1,0.2,0.3,0.2,0.5s-0.1,0.4-0.2,0.5L41.5,26.3z"/>
</svg>
