<?xml version="1.0" encoding="utf-8"?>
<!-- Generator: Adobe Illustrator 26.3.1, SVG Export Plug-In . SVG Version: 6.00 Build 0)  -->
<svg version="1.1" id="Слой_1" xmlns="http://www.w3.org/2000/svg" xmlns:xlink="http://www.w3.org/1999/xlink" x="0px" y="0px"
	 viewBox="0 0 48 48" style="enable-background:new 0 0 48 48;" xml:space="preserve">
<path d="M20.5,14h6.8c0-0.9-0.3-1.7-1-2.4s-1.5-1-2.4-1s-1.7,0.3-2.4,1C20.8,12.3,20.5,13.1,20.5,14z M33.4,23.9V14h1.8
	c0.7,0,1.4,0.3,1.9,0.8c0.6,0.6,0.8,1.2,0.8,1.9v7.1c-0.7-0.2-1.5-0.3-2.2-0.3C34.9,23.7,34.1,23.8,33.4,23.9z M12.6,33.7
	c-0.7,0-1.4-0.3-1.9-0.8S9.9,31.7,9.9,31V16.8c0-0.7,0.3-1.4,0.8-1.9c0.6-0.6,1.2-0.8,1.9-0.8h1.8v19.7
	C14.4,33.7,12.6,33.7,12.6,33.7z M15.8,33.7V14H19c0-1.3,0.5-2.5,1.4-3.4s2.1-1.4,3.4-1.4s2.5,0.5,3.4,1.4s1.4,2.1,1.4,3.4H32v10.3
	c-2.1,0.7-3.9,1.9-5.3,3.5c-1.4,1.7-2.2,3.6-2.4,5.9C24.2,33.7,15.8,33.7,15.8,33.7z M34.7,37.4h1.6V37c0-0.4,0.1-0.7,0.3-1
	s0.5-0.6,0.7-0.8c0.4-0.4,0.8-0.8,1.1-1.3s0.5-1,0.5-1.6c0-0.9-0.3-1.7-1-2.3c-0.7-0.6-1.5-0.9-2.5-0.9c-0.8,0-1.5,0.2-2.1,0.7
	s-1.1,1.1-1.4,1.8l1.5,0.5c0.1-0.4,0.4-0.8,0.8-1.1c0.4-0.3,0.8-0.4,1.3-0.4s1,0.2,1.3,0.5c0.4,0.3,0.5,0.7,0.5,1.2
	c0,0.4-0.1,0.8-0.4,1c-0.2,0.3-0.5,0.6-0.7,0.8s-0.5,0.4-0.7,0.7s-0.4,0.5-0.5,0.7s-0.2,0.4-0.2,0.6c0,0.2-0.1,0.5-0.1,0.7
	C34.7,36.9,34.7,37.4,34.7,37.4z M35.5,41.2c0.3,0,0.6-0.1,0.8-0.3s0.3-0.5,0.3-0.8s-0.1-0.6-0.3-0.8S35.8,39,35.5,39
	s-0.6,0.1-0.8,0.3s-0.3,0.5-0.3,0.8s0.1,0.6,0.3,0.8C34.9,41,35.1,41.2,35.5,41.2z M35.5,43c-2.2,0-4.1-0.8-5.6-2.3
	s-2.3-3.4-2.3-5.6s0.8-4.1,2.3-5.6s3.4-2.3,5.6-2.3s4.1,0.8,5.6,2.3s2.3,3.4,2.3,5.6s-0.8,4.1-2.3,5.6C39.5,42.2,37.7,43,35.5,43z
	 M6.7,38.8v-1.5h17.6c0,0.3,0.1,0.5,0.1,0.8c0.1,0.3,0.2,0.5,0.2,0.7H6.7z"/>
</svg>
