<?xml version="1.0" encoding="utf-8"?>
<!-- Generator: Adobe Illustrator 26.3.1, SVG Export Plug-In . SVG Version: 6.00 Build 0)  -->
<svg version="1.1" id="Слой_1" xmlns="http://www.w3.org/2000/svg" xmlns:xlink="http://www.w3.org/1999/xlink" x="0px" y="0px"
	 viewBox="0 0 48 48" style="enable-background:new 0 0 48 48;" xml:space="preserve">
<path d="M16.1,9.4L14.7,5l1.2-0.4L17.3,9L16.1,9.4z M23.3,7.2V2.8h1.3v4.3C24.7,7.2,23.3,7.2,23.3,7.2z M31.9,9.4L30.7,9l1.5-4.4
	L33.3,5L31.9,9.4z M42.8,45.1l-10.6-1.7c-0.9-0.1-1.7-0.5-2.4-1.1c-0.7-0.6-1.2-1.3-1.4-2.2l-1.6-5.3c-0.3-1-0.3-2.1,0-3.1
	c0.4-1,1-1.8,1.8-2.4l2.3,7.2l1.2-0.4l-4.7-14.6c-0.3-0.9-0.3-1.9,0-2.8s0.8-1.7,1.6-2.2l1.4-0.8l8.7,16.5c0.3,0.6,0.7,1,1.2,1.3
	s1.1,0.4,1.7,0.4h2.3C44.3,34.2,42.8,45.1,42.8,45.1z M5.1,45L3.7,34.2H6c0.6,0,1.2-0.1,1.7-0.4c0.5-0.3,0.9-0.7,1.2-1.3L17.6,16
	l1.4,0.8c0.8,0.5,1.4,1.2,1.6,2.2c0.3,0.9,0.3,1.9,0,2.8l-4.7,14.6l1.2,0.4l2.3-7.2c0.9,0.6,1.5,1.4,1.8,2.4c0.3,1,0.3,2,0,3.1
	l-1.7,5.3c-0.3,0.9-0.8,1.6-1.4,2.2c-0.7,0.6-1.5,0.9-2.3,1.1C15.7,43.4,5.1,45,5.1,45z"/>
</svg>
