<?xml version="1.0" encoding="utf-8"?>
<!-- Generator: Adobe Illustrator 26.3.1, SVG Export Plug-In . SVG Version: 6.00 Build 0)  -->
<svg version="1.1" id="Слой_1" xmlns="http://www.w3.org/2000/svg" xmlns:xlink="http://www.w3.org/1999/xlink" x="0px" y="0px"
	 viewBox="0 0 48 48" style="enable-background:new 0 0 48 48;" xml:space="preserve">
<path d="M9.5,40.5v-5.1c0-0.8,0.3-1.4,0.8-2c0.5-0.5,1.2-0.8,2-0.8h2.6l1.4-9.8h-4.6v-1.5h24.5v1.5h-4.6l1.4,9.8h2.6
	c0.8,0,1.4,0.3,2,0.8c0.5,0.5,0.8,1.2,0.8,2v5.1C38.5,40.5,9.5,40.5,9.5,40.5z M15.9,19.5l-2.7-12c0.9,0.7,1.8,1.1,2.6,1.4
	c0.8,0.3,1.7,0.4,2.7,0.4c1.1,0,2-0.1,3-0.4c0.9-0.3,1.8-0.7,2.5-1.4c0.8,0.6,1.6,1.1,2.5,1.4s1.9,0.4,2.9,0.4
	c0.8,0,1.7-0.1,2.5-0.3c0.8-0.2,1.8-0.7,2.9-1.4l-2.7,11.9C32.1,19.5,15.9,19.5,15.9,19.5z"/>
</svg>
