<?xml version="1.0" encoding="utf-8"?>
<!-- Generator: Adobe Illustrator 26.3.1, SVG Export Plug-In . SVG Version: 6.00 Build 0)  -->
<svg version="1.1" id="Слой_1" xmlns="http://www.w3.org/2000/svg" xmlns:xlink="http://www.w3.org/1999/xlink" x="0px" y="0px"
	 viewBox="0 0 48 48" style="enable-background:new 0 0 48 48;" xml:space="preserve">
<path d="M28.8,22.6c0.5,0,0.9-0.2,1.3-0.5c0.3-0.3,0.5-0.7,0.5-1.3c0-0.5-0.2-0.9-0.5-1.3c-0.3-0.3-0.8-0.5-1.3-0.5
	s-0.9,0.2-1.2,0.5c-0.3,0.3-0.5,0.8-0.5,1.3s0.2,0.9,0.5,1.3C28,22.4,28.4,22.6,28.8,22.6z M19.1,22.6c0.5,0,0.9-0.2,1.2-0.5
	c0.3-0.3,0.5-0.7,0.5-1.3c0-0.5-0.2-0.9-0.5-1.3C20,19.2,19.5,19,19.1,19c-0.5,0-0.9,0.2-1.3,0.5c-0.3,0.3-0.5,0.8-0.5,1.3
	s0.2,0.9,0.5,1.3C18.2,22.4,18.6,22.6,19.1,22.6z M24,32.3c1.5,0,2.9-0.4,4.3-1.1c1.3-0.7,2.4-1.8,3.3-3.1H16.5
	c0.9,1.3,2,2.3,3.3,3.1C21.1,31.9,22.5,32.3,24,32.3z M24,40c-2.2,0-4.3-0.4-6.2-1.3c-1.9-0.8-3.6-2-5.1-3.4
	c-1.4-1.4-2.6-3.1-3.4-5.1C8.4,28.3,8,26.2,8,24s0.4-4.3,1.3-6.2c0.8-1.9,2-3.6,3.4-5.1c1.4-1.4,3.1-2.6,5.1-3.4
	C19.7,8.4,21.8,8,24,8s4.3,0.4,6.2,1.3c1.9,0.8,3.6,2,5.1,3.4s2.6,3.1,3.4,5.1c0.8,1.9,1.3,4,1.3,6.2s-0.4,4.3-1.3,6.2
	c-0.8,1.9-2,3.6-3.4,5.1c-1.4,1.4-3.1,2.6-5.1,3.4C28.3,39.6,26.2,40,24,40z M24.8,16c0.7,0,1.3-0.1,1.7-0.3
	c0.4-0.2,0.6-0.5,0.6-0.8c0-0.2-0.1-0.3-0.2-0.5c-0.1-0.1-0.3-0.2-0.5-0.2c-0.3,0-0.5,0-0.7,0.1s-0.5,0.1-1,0.1
	c-0.9,0-1.7-0.3-2.4-1c-0.6-0.7-1-1.4-1-2.3c0-0.3,0-0.6,0-0.8s0-0.5,0.1-0.7c-0.3,0.1-0.5,0.1-0.7,0.2C20.5,9.9,20.3,9.9,20,10
	c-0.1,0.2-0.1,0.4-0.2,0.6c0,0.2-0.1,0.4-0.1,0.6c0,1.4,0.5,2.5,1.4,3.5C22.3,15.5,23.4,16,24.8,16z"/>
</svg>
