<?xml version="1.0" encoding="utf-8"?>
<!-- Generator: Adobe Illustrator 26.3.1, SVG Export Plug-In . SVG Version: 6.00 Build 0)  -->
<svg version="1.1" id="Слой_1" xmlns="http://www.w3.org/2000/svg" xmlns:xlink="http://www.w3.org/1999/xlink" x="0px" y="0px"
	 viewBox="0 0 48 48" style="enable-background:new 0 0 48 48;" xml:space="preserve">
<path d="M24,40c-2.2,0-4.3-0.4-6.2-1.3c-1.9-0.8-3.6-2-5.1-3.4c-1.4-1.4-2.6-3.1-3.4-5.1c-0.8-2-1.3-4-1.3-6.2s0.4-4.3,1.3-6.2
	s2-3.6,3.4-5.1s3.1-2.6,5.1-3.4C19.7,8.4,21.8,8,24,8v1.5c-4,0-7.4,1.4-10.2,4.2S9.5,20,9.5,24s1.4,7.4,4.2,10.2
	C16.6,37,20,38.5,24,38.5V40z M32.3,32.3l-1.1-1.1l6.4-6.4H19v-1.5h18.6l-6.4-6.4l1.1-1.1l8.3,8.3L32.3,32.3z"/>
</svg>
