<?xml version="1.0" encoding="utf-8"?>
<!-- Generator: Adobe Illustrator 26.3.1, SVG Export Plug-In . SVG Version: 6.00 Build 0)  -->
<svg version="1.1" id="Слой_1" xmlns="http://www.w3.org/2000/svg" xmlns:xlink="http://www.w3.org/1999/xlink" x="0px" y="0px"
	 viewBox="0 0 48 48" style="enable-background:new 0 0 48 48;" xml:space="preserve">
<path d="M28,25.9l6.3-6.3l-1.1-1.1l-4.4,4.4v-10h-1.5V23l-4.4-4.4l-1.1,1.1L28,25.9z M15.5,33.4c-0.4,0-0.8-0.2-1.1-0.5
	s-0.5-0.7-0.5-1.1v-25c0-0.4,0.2-0.8,0.5-1.1c0.3-0.3,0.7-0.4,1.1-0.4h25c0.4,0,0.8,0.1,1.1,0.4C41.9,6.1,42,6.5,42,6.9v25
	c0,0.4-0.1,0.8-0.4,1.1c-0.3,0.3-0.7,0.5-1.1,0.5C40.5,33.4,15.5,33.4,15.5,33.4z M10.8,41.9c-0.4,0-0.8,0-1.1-0.3
	c-0.3-0.2-0.5-0.6-0.6-1l-3-23.4c0-0.4,0-0.8,0.3-1.1c0.2-0.3,0.6-0.5,1-0.6l3-0.4v16.7c0,1.4,0.5,2.6,1.5,3.6s2.2,1.5,3.6,1.5h22.8
	c0.1,0.4-0.1,0.8-0.3,1.1c-0.3,0.3-0.6,0.5-1,0.5C37,38.6,10.8,41.9,10.8,41.9z"/>
</svg>
