<?xml version="1.0" encoding="utf-8"?>
<!-- Generator: Adobe Illustrator 26.3.1, SVG Export Plug-In . SVG Version: 6.00 Build 0)  -->
<svg version="1.1" id="Слой_1" xmlns="http://www.w3.org/2000/svg" xmlns:xlink="http://www.w3.org/1999/xlink" x="0px" y="0px"
	 viewBox="0 0 48 48" style="enable-background:new 0 0 48 48;" xml:space="preserve">
<path d="M39.8,27.8v-7.5h4.9v7.5H39.8z M12,32.5c-2.1,0-3.9-0.6-5.5-1.7C4.8,29.6,4,28.2,4,26.6v-5.2c0-1.6,0.8-3,2.5-4.2
	c1.6-1.1,3.5-1.7,5.5-1.7c0.9,0,1.7,0.1,2.5,0.3c0.8,0.2,1.8,0.6,3,1c0.5,0.2,0.9,0.4,1.3,0.5s0.8,0.3,1.1,0.4
	c0.4,0.1,0.7,0.2,1,0.2s0.7,0.1,1,0.1h15v12H22c-0.3,0-0.7,0-1,0.1c-0.3,0-0.7,0.1-1,0.2c-0.4,0.1-0.7,0.2-1.1,0.4
	c-0.4,0.1-0.8,0.3-1.3,0.5c-1.2,0.5-2.2,0.8-3,1C13.7,32.4,12.9,32.5,12,32.5z M5.4,24.6h1.2c0.2,0,0.3-0.1,0.5-0.2
	c0.1-0.1,0.2-0.3,0.2-0.4c0-0.2-0.1-0.3-0.2-0.5c-0.1-0.1-0.3-0.2-0.5-0.2H5.4c-0.2,0-0.3,0.1-0.5,0.2c-0.1,0.1-0.2,0.3-0.2,0.5
	s0.1,0.3,0.2,0.4C5.1,24.6,5.2,24.6,5.4,24.6z"/>
</svg>
