<?xml version="1.0" encoding="utf-8"?>
<!-- Generator: Adobe Illustrator 26.3.1, SVG Export Plug-In . SVG Version: 6.00 Build 0)  -->
<svg version="1.1" id="Слой_1" xmlns="http://www.w3.org/2000/svg" xmlns:xlink="http://www.w3.org/1999/xlink" x="0px" y="0px"
	 viewBox="0 0 48 48" style="enable-background:new 0 0 48 48;" xml:space="preserve">
<path d="M34.1,4.3c2.6,0,4.9,0.9,6.7,2.8c1.9,1.9,2.8,4.1,2.8,6.7c0,2.7-0.9,4.9-2.8,6.8c-1.9,1.9-4.1,2.8-6.7,2.8
	c-2.7,0-4.9-0.9-6.8-2.8s-2.8-4.1-2.8-6.8c0-2.6,0.9-4.9,2.8-6.7C29.2,5.3,31.5,4.3,34.1,4.3z M34.1,27c0.5,0,1,0,1.4-0.1
	c0.5-0.1,1-0.1,1.4-0.2c-0.2,4-1.8,7.4-4.7,10.2C29.4,39.6,26,41,21.9,41c-2.1,0-4-0.4-5.8-1.2s-3.4-1.8-4.8-3.2
	c-1.3-1.3-2.4-2.9-3.2-4.8C7.4,30.1,7,28.1,7,26.1c0-4,1.4-7.5,4.1-10.4c2.8-2.9,6.2-4.4,10.2-4.7c-0.1,0.5-0.2,0.9-0.3,1.4
	c-0.1,0.5-0.1,1-0.1,1.5c0,3.6,1.3,6.7,3.8,9.3C27.4,25.7,30.5,27,34.1,27z"/>
</svg>
