<?xml version="1.0" encoding="utf-8"?>
<!-- Generator: Adobe Illustrator 26.3.1, SVG Export Plug-In . SVG Version: 6.00 Build 0)  -->
<svg version="1.1" id="Слой_1" xmlns="http://www.w3.org/2000/svg" xmlns:xlink="http://www.w3.org/1999/xlink" x="0px" y="0px"
	 viewBox="0 0 48 48" style="enable-background:new 0 0 48 48;" xml:space="preserve">
<path d="M11.8,40.5c-1.7,0-3.2-0.6-4.4-1.8S5.6,36,5.6,34.3s0.6-3.2,1.8-4.4C8.6,28.6,10,28,11.8,28c1.7,0,3.2,0.6,4.4,1.8
	c1.2,1.2,1.8,2.7,1.8,4.4s-0.6,3.2-1.8,4.4C15,39.9,13.5,40.5,11.8,40.5z M36.2,40.5c-1.7,0-3.2-0.6-4.4-1.8
	C30.6,37.4,30,36,30,34.2c0-1.7,0.6-3.2,1.8-4.4c1.2-1.2,2.7-1.8,4.4-1.8s3.2,0.6,4.4,1.8c1.2,1.2,1.8,2.7,1.8,4.4s-0.6,3.2-1.8,4.4
	C39.4,39.9,38,40.5,36.2,40.5z M24,29c-0.8,0-1.5-0.3-2-0.8c-0.6-0.5-0.8-1.2-0.8-2.1c0-0.8,0.3-1.5,0.8-2.1c0.6-0.5,1.2-0.8,2-0.8
	s1.5,0.3,2.1,0.8s0.8,1.2,0.8,2.1c0,0.8-0.3,1.5-0.8,2.1C25.5,28.7,24.8,29,24,29z M24,18c-1.7,0-3.2-0.6-4.4-1.8
	c-1.2-1.2-1.8-2.7-1.8-4.4s0.6-3.2,1.8-4.4c1.2-1.2,2.7-1.8,4.4-1.8c1.7,0,3.2,0.6,4.4,1.8c1.2,1.2,1.8,2.7,1.8,4.4
	s-0.6,3.2-1.8,4.4S25.7,18,24,18z"/>
</svg>
