<?xml version="1.0" encoding="utf-8"?>
<!-- Generator: Adobe Illustrator 26.3.1, SVG Export Plug-In . SVG Version: 6.00 Build 0)  -->
<svg version="1.1" id="Слой_1" xmlns="http://www.w3.org/2000/svg" xmlns:xlink="http://www.w3.org/1999/xlink" x="0px" y="0px"
	 viewBox="0 0 48 48" style="enable-background:new 0 0 48 48;" xml:space="preserve">
<path d="M18.2,44c-0.7,0-1.3-0.2-1.9-0.7c-0.5-0.5-0.9-1-0.9-1.7L12.3,18h23.4l-3.1,23.6c-0.1,0.7-0.4,1.2-0.9,1.7
	c-0.5,0.5-1.2,0.7-1.8,0.7H18.2z M24,30.8c1.3,0,2.5-0.5,3.4-1.4s1.4-2.1,1.4-3.4v-2.8h-1.5V26c0,0.9-0.3,1.7-0.9,2.3
	c-0.6,0.6-1.4,0.9-2.3,0.9s-1.7-0.3-2.3-0.9c-0.6-0.6-0.9-1.4-0.9-2.3v-2.8h-1.5V26c0,1.3,0.5,2.5,1.4,3.4
	C21.6,30.3,22.7,30.8,24,30.8z M30,13.5c-0.5,0-0.9-0.2-1.2-0.5c-0.4-0.4-0.5-0.8-0.5-1.3s0.2-0.9,0.5-1.2c0.4-0.3,0.8-0.5,1.3-0.5
	s0.9,0.2,1.2,0.5c0.3,0.3,0.5,0.8,0.5,1.3s-0.2,0.9-0.5,1.2C30.9,13.3,30.5,13.5,30,13.5z M20,11.5c-1,0-1.9-0.4-2.7-1.1
	c-0.7-0.7-1.1-1.6-1.1-2.7c0-1,0.4-1.9,1.1-2.7C18.1,4.3,19,4,20,4s1.9,0.4,2.7,1.1c0.7,0.7,1.1,1.6,1.1,2.7c0,1-0.4,1.9-1.1,2.7
	C21.9,11.1,21.1,11.5,20,11.5z"/>
</svg>
