<?xml version="1.0" encoding="utf-8"?>
<!-- Generator: Adobe Illustrator 26.3.1, SVG Export Plug-In . SVG Version: 6.00 Build 0)  -->
<svg version="1.1" id="Слой_1" xmlns="http://www.w3.org/2000/svg" xmlns:xlink="http://www.w3.org/1999/xlink" x="0px" y="0px"
	 viewBox="0 0 48 48" style="enable-background:new 0 0 48 48;" xml:space="preserve">
<path d="M8,44V32c0-2.4,0.8-4.4,2.5-6.1s3.7-2.5,6.1-2.5h3V6.8c0-0.8,0.3-1.4,0.8-2C21,4.3,21.6,4,22.4,4h3.2c0.7,0,1.4,0.3,1.9,0.8
	c0.5,0.6,0.8,1.2,0.8,2v16.6h3c2.4,0,4.4,0.8,6.1,2.5c1.7,1.7,2.5,3.7,2.5,6.1v12H8z M9.5,42.5h6.1v-7.3c0-0.2,0.1-0.4,0.2-0.5
	c0.1-0.1,0.3-0.2,0.6-0.2c0.2,0,0.4,0.1,0.5,0.2c0.2,0.1,0.2,0.3,0.2,0.5v7.3h6.1v-7.3c0-0.2,0.1-0.4,0.2-0.5s0.3-0.2,0.6-0.2
	c0.2,0,0.4,0.1,0.5,0.2c0.1,0.1,0.2,0.3,0.2,0.5v7.3h6.1v-7.3c0-0.2,0.1-0.4,0.2-0.5s0.3-0.2,0.6-0.2c0.2,0,0.4,0.1,0.5,0.2
	c0.2,0.1,0.2,0.3,0.2,0.5v7.3h6.1V32c0-2-0.7-3.7-2.1-5c-1.4-1.4-3.1-2-5-2H16.6c-2,0-3.6,0.7-5,2.1s-2.1,3-2.1,5
	C9.5,32,9.5,42.5,9.5,42.5z"/>
</svg>
