<?xml version="1.0" encoding="utf-8"?>
<!-- Generator: Adobe Illustrator 26.3.1, SVG Export Plug-In . SVG Version: 6.00 Build 0)  -->
<svg version="1.1" id="Слой_1" xmlns="http://www.w3.org/2000/svg" xmlns:xlink="http://www.w3.org/1999/xlink" x="0px" y="0px"
	 viewBox="0 0 48 48" style="enable-background:new 0 0 48 48;" xml:space="preserve">
<path d="M12.2,39.7V26.8h4.6c0.2,0,0.3,0,0.5,0s0.3,0.1,0.5,0.1l11.3,4.2c0.8,0.3,1.4,0.7,1.9,1.4c0.5,0.6,0.8,1.3,0.8,2.2
	c0,0.2-0.1,0.3-0.2,0.4c-0.1,0.1-0.2,0.2-0.4,0.2h-1.7c-0.9,0-1.9-0.1-2.9-0.2c-1-0.1-1.9-0.3-2.8-0.7L20,33.2l-0.5,1.2l3.9,1.3
	c1,0.4,2,0.6,3.1,0.7c1,0.1,2.1,0.2,3.1,0.2h8.5c1,0,1.9,0.4,2.6,1.1c0.7,0.7,1.1,1.6,1.1,2.7L28,44.5
	C28.2,44.4,12.2,39.7,12.2,39.7z M4.8,42V26.8h5.9V42H4.8z M29.5,27.2L18,23h-6.2c-0.1-2.4,0.7-4.5,2.3-6.1s3.6-2.6,5.9-3V7.5h-3V6
	h9.8c0.7,0,1.4,0.1,2.1,0.2c0.7,0.2,1.3,0.4,2,0.8l-1.2,1.2c-0.4-0.2-0.9-0.3-1.4-0.4s-1-0.2-1.5-0.2h-5.2V14
	c2.3,0.3,4.2,1.3,5.7,2.9c1.5,1.7,2.3,3.6,2.3,5.9L29.5,27.2L29.5,27.2z M37.2,18.7c-0.8,0-1.4-0.3-2-0.8c-0.5-0.5-0.8-1.2-0.8-2
	c0-0.9,0.3-1.9,0.8-2.8c0.6-1,1.2-2,2-3c0.8,1.1,1.4,2.1,2,3c0.6,1,0.8,1.9,0.8,2.8c0,0.8-0.3,1.5-0.8,2
	C38.6,18.4,38,18.7,37.2,18.7z"/>
</svg>
