<?xml version="1.0" encoding="utf-8"?>
<!-- Generator: Adobe Illustrator 26.3.1, SVG Export Plug-In . SVG Version: 6.00 Build 0)  -->
<svg version="1.1" id="Слой_1" xmlns="http://www.w3.org/2000/svg" xmlns:xlink="http://www.w3.org/1999/xlink" x="0px" y="0px"
	 viewBox="0 0 48 48" style="enable-background:new 0 0 48 48;" xml:space="preserve">
<path d="M23.2,10.6V4.1h1.5v6.5H23.2z M34,15.1L32.9,14l4.6-4.7l1.1,1.1C38.6,10.5,34,15.1,34,15.1z M37.4,24.8v-1.5h6.5v1.5H37.4z
	 M23.2,43.9v-6.5h1.5v6.5C24.8,43.9,23.2,43.9,23.2,43.9z M14.1,15.1l-4.8-4.6l1.2-1.1l4.6,4.6L14.1,15.1z M37.5,38.7L32.9,34l1-1
	l4.6,4.5L37.5,38.7z M4.1,24.8v-1.5h6.5v1.5H4.1z M10.5,38.7l-1.1-1.2l4.6-4.6l0.6,0.5l0.6,0.5C15.1,34,10.5,38.7,10.5,38.7z M24,34
	c-2.8,0-5.1-1-7.1-2.9S14,26.8,14,24s1-5.1,2.9-7.1S21.2,14,24,14s5.1,1,7.1,2.9S34,21.2,34,24s-1,5.1-2.9,7.1S26.8,34,24,34z"/>
</svg>
