<?xml version="1.0" encoding="utf-8"?>
<!-- Generator: Adobe Illustrator 26.3.1, SVG Export Plug-In . SVG Version: 6.00 Build 0)  -->
<svg version="1.1" id="Слой_1" xmlns="http://www.w3.org/2000/svg" xmlns:xlink="http://www.w3.org/1999/xlink" x="0px" y="0px"
	 viewBox="0 0 48 48" style="enable-background:new 0 0 48 48;" xml:space="preserve">
<path d="M8.8,24c-0.7,0-1.4-0.3-1.9-0.8C6.3,22.6,6,22,6,21.2V10.8c0-0.8,0.3-1.4,0.8-2C7.4,8.3,8,8,8.8,8h30.5
	c0.7,0,1.4,0.3,1.9,0.8c0.5,0.6,0.8,1.2,0.8,2v10.5c0,0.7-0.3,1.4-0.8,1.9c-0.6,0.5-1.2,0.8-2,0.8h-4.8v-6c0-0.7-0.3-1.4-0.8-1.9
	c-0.6-0.6-1.2-0.8-1.9-0.8H16.4c-0.7,0-1.4,0.3-1.9,0.8c-0.6,0.6-0.8,1.2-0.8,1.9v6H8.8z M15.2,28.7h1.6c0,2.1-0.7,3.9-2.2,5.3
	c-1.5,1.4-3.2,2.2-5.3,2.2v-1.6c1.6,0,3-0.6,4.2-1.7C14.6,31.7,15.2,30.3,15.2,28.7z M15.2,24v-6c0-0.4,0.1-0.7,0.3-0.9
	c0.2-0.2,0.5-0.3,0.9-0.3h15.3c0.4,0,0.7,0.1,0.9,0.3c0.2,0.2,0.3,0.5,0.3,0.9v6H15.2z M23.2,38.2v-9.5h1.5v9.5
	C24.8,38.2,23.2,38.2,23.2,38.2z M31.3,28.7h1.6c0,1.6,0.6,3,1.7,4.2c1.1,1.1,2.5,1.7,4.2,1.7v1.6c-2.1,0-3.9-0.7-5.3-2.2
	C32,32.5,31.3,30.8,31.3,28.7z"/>
</svg>
