<?xml version="1.0" encoding="utf-8"?>
<!-- Generator: Adobe Illustrator 26.3.1, SVG Export Plug-In . SVG Version: 6.00 Build 0)  -->
<svg version="1.1" id="Слой_1" xmlns="http://www.w3.org/2000/svg" xmlns:xlink="http://www.w3.org/1999/xlink" x="0px" y="0px"
	 viewBox="0 0 48 48" style="enable-background:new 0 0 48 48;" xml:space="preserve">
<path d="M34,31c-1.3,0-2.4-0.4-3.3-1.3s-1.3-2-1.3-3.3s0.4-2.4,1.3-3.3s2-1.3,3.3-1.3s2.4,0.4,3.3,1.3c0.9,0.9,1.3,2,1.3,3.3
	s-0.4,2.4-1.3,3.3S35.3,31,34,31z M23.4,42.8v-4.4c0-0.5,0.1-0.9,0.3-1.3c0.2-0.4,0.5-0.7,0.9-1c0.9-0.5,1.8-1,2.7-1.3
	c0.9-0.4,1.9-0.7,2.9-0.9l3.8,5l3.7-5c1,0.2,2,0.5,2.9,0.9s1.9,0.8,2.7,1.3c0.4,0.2,0.7,0.6,0.9,1s0.3,0.8,0.4,1.3v4.5
	C44.6,42.8,23.4,42.8,23.4,42.8z M18.3,38.4V40h-7.5c-0.8,0-1.4-0.3-2-0.8C8.3,38.6,8,38,8,37.2V10.8c0-0.8,0.3-1.4,0.8-2
	C9.4,8.3,10,8,10.8,8h26.5c0.7,0,1.4,0.3,1.9,0.8c0.5,0.6,0.8,1.2,0.8,2v8.5c-0.7-0.8-1.6-1.4-2.7-1.8c-1.1-0.4-2.2-0.7-3.3-0.7
	c-0.2,0-0.3,0-0.5,0s-0.3,0-0.5,0.1v-1.3H15V17h16.2c-1.5,0.5-2.8,1.3-3.9,2.4s-1.9,2.4-2.5,3.9H15v1.5h9.5c-0.1,1-0.1,2,0,2.9
	c0.1,1,0.4,1.9,0.8,2.7c-0.2,0.1-0.5,0.2-0.7,0.3c-0.2,0.1-0.4,0.2-0.6,0.3h-9v1.5h6c-0.9,0.7-1.5,1.6-2,2.7
	C18.5,36.3,18.3,37.3,18.3,38.4z"/>
</svg>
