<?xml version="1.0" encoding="utf-8"?>
<!-- Generator: Adobe Illustrator 26.3.1, SVG Export Plug-In . SVG Version: 6.00 Build 0)  -->
<svg version="1.1" id="Слой_1" xmlns="http://www.w3.org/2000/svg" xmlns:xlink="http://www.w3.org/1999/xlink" x="0px" y="0px"
	 viewBox="0 0 48 48" style="enable-background:new 0 0 48 48;" xml:space="preserve">
<path d="M17.4,36.4c-3.5,0-6.5-1.2-9-3.7s-3.7-5.5-3.7-9s1.2-6.5,3.7-9s5.4-3.7,9-3.7c3.5,0,6.5,1.2,9,3.7s3.7,5.5,3.7,9
	s-1.2,6.5-3.7,9C23.9,35.1,20.9,36.4,17.4,36.4z M39.1,38L34,32.9l1.1-1.1l3.3,3.3V10h1.5v25l3.3-3.3l1.1,1.1L39.1,38z M22.1,29.6
	l1.1-1.1l-5-5v-7.1h-1.5v7.8L22.1,29.6z"/>
</svg>
