<?xml version="1.0" encoding="utf-8"?>
<!-- Generator: Adobe Illustrator 26.3.1, SVG Export Plug-In . SVG Version: 6.00 Build 0)  -->
<svg version="1.1" id="Слой_1" xmlns="http://www.w3.org/2000/svg" xmlns:xlink="http://www.w3.org/1999/xlink" x="0px" y="0px"
	 viewBox="0 0 48 48" style="enable-background:new 0 0 48 48;" xml:space="preserve">
<path d="M42.5,44.8L35.8,38h-25c-0.8,0-1.4-0.3-2-0.8C8.3,36.7,8,36,8,35.2V12.8c0-0.4,0.1-0.7,0.2-1c0.1-0.3,0.3-0.6,0.5-0.9L3.8,6
	l1.1-1.1l38.8,38.8C43.6,43.6,42.5,44.8,42.5,44.8z M40,35l-6.4-6.4c0.3-0.2,0.6-0.4,0.7-0.7c0.2-0.3,0.3-0.7,0.3-1.1v-0.2h-1.5v0.8
	h-0.8l-5-5v-1.6c0-0.2,0.1-0.3,0.2-0.4s0.3-0.2,0.4-0.2h4.5c0.2,0,0.3,0.1,0.4,0.2c0.1,0.1,0.2,0.3,0.2,0.4v0.7h1.5v-0.9
	c0-0.5-0.2-1-0.6-1.4c-0.4-0.4-0.8-0.6-1.4-0.6h-4.9c-0.5,0-0.8,0.1-1.2,0.4c-0.3,0.3-0.6,0.6-0.7,1v0.9L15,10h22.3
	c0.8,0,1.4,0.3,2,0.8c0.5,0.5,0.8,1.2,0.8,2L40,35L40,35z M15.3,29.4h4.4c0.7,0,1.3-0.2,1.8-0.6s0.7-0.8,0.7-1.4v-1.2l0.4,0.4h-1.9
	v0.6c0,0.2-0.1,0.3-0.2,0.4s-0.3,0.2-0.4,0.2h-4.5c-0.2,0-0.3-0.1-0.4-0.2c-0.1-0.1-0.2-0.3-0.2-0.4v-6.4c0-0.2,0.1-0.3,0.2-0.4
	c0.1-0.1,0.3-0.2,0.4-0.2h2.5l-1.7-1.6h-0.8c-0.6-0.1-1.1,0.1-1.6,0.5c-0.4,0.4-0.7,0.9-0.7,1.5v6.8c0,0.5,0.2,1,0.6,1.4
	C14.3,29.2,14.8,29.4,15.3,29.4z"/>
</svg>
