<?xml version="1.0" encoding="utf-8"?>
<!-- Generator: Adobe Illustrator 26.3.1, SVG Export Plug-In . SVG Version: 6.00 Build 0)  -->
<svg version="1.1" id="Слой_1" xmlns="http://www.w3.org/2000/svg" xmlns:xlink="http://www.w3.org/1999/xlink" x="0px" y="0px"
	 viewBox="0 0 48 48" style="enable-background:new 0 0 48 48;" xml:space="preserve">
<path d="M10.8,38c-0.8,0-1.4-0.3-2-0.8C8.3,36.7,8,36,8,35.2V12.8c0-0.8,0.3-1.4,0.8-2c0.5-0.5,1.2-0.8,2-0.8h26.5
	c0.8,0,1.4,0.3,2,0.8c0.5,0.5,0.8,1.2,0.8,2v15.5c-0.2,0-0.5-0.1-0.8-0.1s-0.5,0-0.8,0.1c-1.1,0.1-2.1,0.4-3.1,0.8
	c-1,0.5-1.8,1-2.6,1.8c-0.7,0.8-1.3,1.6-1.8,2.6s-0.7,2-0.8,3.1c0,0.2-0.1,0.5-0.1,0.8s0,0.5,0.1,0.8C30.2,38,10.8,38,10.8,38z
	 M38.5,42v-4h-4v-1.5h4v-4H40v4h4V38h-4v4H38.5z M15.3,29.4h5c0.5,0,1-0.2,1.4-0.6s0.6-0.8,0.6-1.4v-0.8h-1.5v0.6
	c0,0.2-0.1,0.3-0.2,0.4s-0.3,0.2-0.4,0.2h-4.5c-0.2,0-0.3-0.1-0.4-0.2c-0.1-0.1-0.2-0.3-0.2-0.4v-6.4c0-0.2,0.1-0.3,0.2-0.4
	c0.1-0.1,0.3-0.2,0.4-0.2h4.5c0.2,0,0.3,0.1,0.4,0.2s0.2,0.3,0.2,0.4v0.7h1.5v-0.9c0-0.5-0.2-1-0.6-1.4s-0.8-0.6-1.4-0.6h-5
	c-0.5,0-1,0.2-1.4,0.6s-0.6,0.8-0.6,1.4v6.9c0,0.5,0.2,1,0.6,1.4C14.3,29.2,14.8,29.4,15.3,29.4z M27.8,29.4h5c0.2,0,0.4,0,0.5,0
	c0.2,0,0.3-0.1,0.5-0.3c0.1-0.1,0.1-0.1,0.2-0.2c0.1-0.1,0.1-0.1,0.2-0.2c0.2-0.2,0.4-0.4,0.4-0.7c0.1-0.2,0.1-0.4,0.1-0.7v-0.8
	h-1.5v0.6c0,0.2-0.1,0.3-0.2,0.4c-0.1,0.1-0.3,0.2-0.4,0.2H28c-0.2,0-0.3-0.1-0.4-0.2s-0.2-0.3-0.2-0.4v-6.4c0-0.2,0.1-0.3,0.2-0.4
	s0.3-0.2,0.4-0.2h4.5c0.2,0,0.3,0.1,0.4,0.2c0.1,0.1,0.2,0.3,0.2,0.4v0.7h1.5v-0.9c0-0.5-0.2-0.9-0.6-1.3c-0.4-0.4-0.8-0.6-1.4-0.6
	h-4.9c-0.5,0-1,0.2-1.4,0.6s-0.6,0.8-0.6,1.3v6.9c0,0.5,0.2,0.9,0.6,1.3C26.8,29.2,27.2,29.4,27.8,29.4z"/>
</svg>
