<?xml version="1.0" encoding="utf-8"?>
<!-- Generator: Adobe Illustrator 26.3.1, SVG Export Plug-In . SVG Version: 6.00 Build 0)  -->
<svg version="1.1" id="Слой_1" xmlns="http://www.w3.org/2000/svg" xmlns:xlink="http://www.w3.org/1999/xlink" x="0px" y="0px"
	 viewBox="0 0 48 48" style="enable-background:new 0 0 48 48;" xml:space="preserve">
<path d="M12.8,38c-2.4,0-4.5-0.9-6.2-2.6C4.9,33.7,4,31.6,4,29.2c0-2.3,0.8-4.3,2.4-6.1s3.6-2.7,5.9-2.7c0.4-3,1.6-5.5,3.9-7.4
	c2.2-2,4.8-3,7.8-3c3.3,0,6,1.2,8.3,3.5s3.4,5.1,3.4,8.4v2.6h1.2c2-0.1,3.6,0.5,5,1.8s2.1,2.9,2.1,4.9c0,1.9-0.7,3.5-2,4.8
	c-1.3,1.3-2.9,2-4.8,2H12.8z M24,29.7c0.2,0,0.4-0.1,0.6-0.2c0.1-0.1,0.2-0.3,0.2-0.6c0-0.2-0.1-0.4-0.2-0.6
	c-0.1-0.1-0.3-0.2-0.6-0.2c-0.2,0-0.4,0.1-0.6,0.2c-0.1,0.1-0.2,0.3-0.2,0.6c0,0.2,0.1,0.4,0.2,0.6C23.6,29.7,23.8,29.7,24,29.7z
	 M23.2,25h1.5v-8h-1.5V25z"/>
</svg>
