<?xml version="1.0" encoding="utf-8"?>
<!-- Generator: Adobe Illustrator 26.3.1, SVG Export Plug-In . SVG Version: 6.00 Build 0)  -->
<svg version="1.1" id="Слой_1" xmlns="http://www.w3.org/2000/svg" xmlns:xlink="http://www.w3.org/1999/xlink" x="0px" y="0px"
	 viewBox="0 0 48 48" style="enable-background:new 0 0 48 48;" xml:space="preserve">
<path d="M12.8,38c-2.4,0-4.5-0.9-6.2-2.6C4.9,33.7,4,31.6,4,29.2c0-2.3,0.8-4.3,2.4-6.1c1.6-1.7,3.6-2.7,5.9-2.7
	c0.4-2.9,1.6-5.3,3.6-7.2s4.5-3,7.3-3.2v17.3l-4.5-4.6l-1.1,1.1l6.4,6.4l6.5-6.4l-1.1-1.1l-4.6,4.6V10c3.1,0.3,5.7,1.6,7.8,3.8
	s3.2,4.9,3.1,8.1v2.6h1.2c2-0.1,3.6,0.5,5,1.8s2.1,2.9,2.1,4.9c0,1.9-0.7,3.5-2,4.8s-2.9,2-4.8,2H12.8z"/>
</svg>
