<?xml version="1.0" encoding="utf-8"?>
<!-- Generator: Adobe Illustrator 26.3.1, SVG Export Plug-In . SVG Version: 6.00 Build 0)  -->
<svg version="1.1" id="Слой_1" xmlns="http://www.w3.org/2000/svg" xmlns:xlink="http://www.w3.org/1999/xlink" x="0px" y="0px"
	 viewBox="0 0 48 48" style="enable-background:new 0 0 48 48;" xml:space="preserve">
<path d="M41.5,43.7l-5.9-6H12.7c-2.4,0-4.5-0.8-6.2-2.5C4.8,33.6,4,31.5,4,29.1c0-2.5,0.8-4.5,2.5-6.1s3.6-2.4,5.8-2.5
	c0-0.6,0.2-1.3,0.4-2.2c0.3-0.9,0.6-1.7,1-2.2L6,8.2l1.1-1.1l35.5,35.5L41.5,43.7z M41.6,36.3l-24.2-24c1.2-0.8,2.3-1.3,3.3-1.6
	s2.1-0.4,3.2-0.4c3.3,0,6,1.1,8.3,3.4s3.4,5.1,3.4,8.3v2.5h1.2c2-0.1,3.6,0.5,5,1.8s2.1,2.9,2.1,4.8c0,0.9-0.2,1.8-0.5,2.7
	S42.5,35.5,41.6,36.3z"/>
</svg>
