<?xml version="1.0" encoding="utf-8"?>
<!-- Generator: Adobe Illustrator 26.3.1, SVG Export Plug-In . SVG Version: 6.00 Build 0)  -->
<svg version="1.1" id="Слой_1" xmlns="http://www.w3.org/2000/svg" xmlns:xlink="http://www.w3.org/1999/xlink" x="0px" y="0px"
	 viewBox="0 0 48 48" style="enable-background:new 0 0 48 48;" xml:space="preserve">
<path d="M22.6,34.4c-3.4,0-6.4-1.1-8.9-3.4S10,25.9,10,22.6v-13c0-0.4,0.2-0.8,0.5-1.1s0.6-0.5,1-0.5h25.2c1.4,0,2.7,0.5,3.7,1.4
	c1,1,1.6,2.2,1.6,3.6c0,1.6-0.5,3-1.5,4.2S38.2,19,36.7,19h-2v3.5c0,3.3-1.2,6.1-3.6,8.4C28.7,33.3,25.9,34.4,22.6,34.4z M11.5,17.5
	h21.6v-8H11.5V17.5z M34.7,17.5h2c1.1,0,2-0.4,2.7-1.3s1-1.9,1-3.1c0-1-0.4-1.8-1.1-2.5c-0.8-0.7-1.6-1-2.6-1h-2
	C34.7,9.5,34.7,17.5,34.7,17.5z M10,40v-1.5h28V40H10z"/>
</svg>
