<?xml version="1.0" encoding="utf-8"?>
<!-- Generator: Adobe Illustrator 26.3.1, SVG Export Plug-In . SVG Version: 6.00 Build 0)  -->
<svg version="1.1" id="Слой_1" xmlns="http://www.w3.org/2000/svg" xmlns:xlink="http://www.w3.org/1999/xlink" x="0px" y="0px"
	 viewBox="0 0 48 48" style="enable-background:new 0 0 48 48;" xml:space="preserve">
<path d="M14,42v-7.5c-1.9-1.7-3.4-3.7-4.4-5.8C8.5,26.5,8,24.2,8,22c0-4.4,1.6-8.2,4.7-11.3S19.6,6,24,6c3.6,0,6.9,1.1,9.8,3.3
	s4.8,5,5.7,8.5l2.1,8.5c0.1,0.4,0,0.8-0.2,1.2c-0.3,0.3-0.6,0.5-1.1,0.5H36v7.2c0,0.8-0.3,1.4-0.8,1.9S34,38,33.2,38H28v4H14z
	 M15.9,26.7c0.8,0.8,1.8,1.2,3,1.2s2.2-0.4,3-1.2l6.8-6.8c0.8-0.8,1.2-1.8,1.2-3s-0.4-2.2-1.2-3c-0.8-0.8-1.8-1.2-3-1.2
	s-2.2,0.4-3,1.2c-1-0.4-2.1-0.5-3.1-0.3S17.7,14.3,17,15s-1.2,1.6-1.4,2.6s-0.1,2,0.3,3.1c-0.8,0.8-1.2,1.8-1.2,3
	C14.7,24.9,15.1,25.9,15.9,26.7z"/>
</svg>
