<?xml version="1.0" encoding="utf-8"?>
<!-- Generator: Adobe Illustrator 26.3.1, SVG Export Plug-In . SVG Version: 6.00 Build 0)  -->
<svg version="1.1" id="Слой_1" xmlns="http://www.w3.org/2000/svg" xmlns:xlink="http://www.w3.org/1999/xlink" x="0px" y="0px"
	 viewBox="0 0 48 48" style="enable-background:new 0 0 48 48;" xml:space="preserve">
<path d="M24.5,29.1c1.8,0,3.3-0.6,4.6-1.7c1.3-1.1,1.9-2.5,1.9-4.2c0-1.4-0.4-2.6-1.3-3.6s-2-1.5-3.3-1.5c-1.1,0-2,0.4-2.8,1.1
	s-1.2,1.6-1.2,2.6c0,0.4,0.1,0.9,0.3,1.3c0.2,0.4,0.5,0.8,0.8,1.2l1.2-1.1c-0.2-0.2-0.4-0.4-0.6-0.6c-0.1-0.2-0.2-0.5-0.2-0.7
	c0-0.5,0.2-1,0.6-1.5c0.4-0.4,1-0.7,1.9-0.7c0.8,0,1.5,0.3,2.1,1c0.6,0.6,0.9,1.5,0.9,2.6c0,1.2-0.5,2.2-1.4,3.1s-2.1,1.3-3.6,1.3
	c-1.6,0-3.1-0.7-4.3-2s-1.8-3-1.8-4.9c0-1,0.2-1.9,0.6-2.9c0.4-0.9,1-1.8,1.7-2.5l-1.1-1.1c-0.8,0.9-1.5,1.8-2,2.9s-0.7,2.3-0.7,3.5
	c0,2.3,0.7,4.3,2.2,6C20.5,28.3,22.3,29.1,24.5,29.1z M14,42v-7.5c-1.9-1.7-3.4-3.7-4.4-5.8C8.5,26.5,8,24.2,8,22
	c0-4.4,1.6-8.2,4.7-11.3S19.6,6,24,6c3.6,0,6.9,1.1,9.8,3.3s4.8,5,5.7,8.5l2.1,8.5c0.1,0.4,0,0.8-0.2,1.2c-0.3,0.3-0.6,0.5-1.1,0.5
	H36v7.2c0,0.8-0.3,1.4-0.8,2c-0.5,0.5-1.2,0.8-2,0.8H28v4H14z"/>
</svg>
