<?xml version="1.0" encoding="utf-8"?>
<!-- Generator: Adobe Illustrator 26.3.1, SVG Export Plug-In . SVG Version: 6.00 Build 0)  -->
<svg version="1.1" id="Слой_1" xmlns="http://www.w3.org/2000/svg" xmlns:xlink="http://www.w3.org/1999/xlink" x="0px" y="0px"
	 viewBox="0 0 48 48" style="enable-background:new 0 0 48 48;" xml:space="preserve">
<path d="M8,40v-6.2l18-18l-3.9-3.9l1-1.1l5,4.9l7.4-7.4c0.1-0.1,0.2-0.2,0.4-0.3c0.1,0,0.2,0,0.3,0c0.1,0,0.3,0,0.4,0.1
	c0.1,0.1,0.3,0.1,0.4,0.3l2.5,2.6c0.1,0.1,0.2,0.3,0.3,0.4c0.1,0.1,0.1,0.3,0.1,0.4c0,0.1,0,0.3-0.1,0.4c-0.1,0.1-0.1,0.3-0.3,0.4
	L32.2,20l5,5l-1,1l-4-4l-18,18H8z M9.5,38.5h4.2L31.1,21L27,16.9L9.5,34.3V38.5z"/>
</svg>
