<?xml version="1.0" encoding="utf-8"?>
<!-- Generator: Adobe Illustrator 26.3.1, SVG Export Plug-In . SVG Version: 6.00 Build 0)  -->
<svg version="1.1" id="Слой_1" xmlns="http://www.w3.org/2000/svg" xmlns:xlink="http://www.w3.org/1999/xlink" x="0px" y="0px"
	 viewBox="0 0 48 48" style="enable-background:new 0 0 48 48;" xml:space="preserve">
<path d="M12,40c-0.8,0-1.4-0.3-2-0.8c-0.5-0.5-0.8-1.2-0.8-2V10.8c0-0.8,0.3-1.4,0.8-2C10.6,8.3,11.2,8,12,8h6.7
	c0.8,0,1.4,0.3,2,0.8c0.5,0.5,0.8,1.2,0.8,2v4.5c-2,0.5-3.5,1.6-4.7,3.2S15,21.9,15,24s0.6,3.9,1.8,5.5s2.8,2.7,4.7,3.2v4.5
	c0,0.8-0.3,1.4-0.8,2c-0.5,0.5-1.2,0.8-2,0.8H12z M29.3,40c-0.8,0-1.4-0.3-2-0.8c-0.5-0.5-0.8-1.2-0.8-2v-4.5c2-0.5,3.5-1.6,4.7-3.2
	S33,26.1,33,24s-0.6-3.9-1.8-5.5s-2.8-2.7-4.7-3.2v-4.5c0-0.8,0.3-1.4,0.8-2c0.5-0.5,1.2-0.8,2-0.8H36c0.8,0,1.4,0.3,2,0.8
	c0.5,0.5,0.8,1.2,0.8,2v26.5c0,0.8-0.3,1.4-0.8,2c-0.5,0.5-1.2,0.8-2,0.8L29.3,40L29.3,40z M23.2,28.8v-4h-4v-1.5h4v-4h1.5v4h4v1.5
	h-4v4H23.2z"/>
</svg>
