<?xml version="1.0" encoding="utf-8"?>
<!-- Generator: Adobe Illustrator 26.3.1, SVG Export Plug-In . SVG Version: 6.00 Build 0)  -->
<svg version="1.1" id="Слой_1" xmlns="http://www.w3.org/2000/svg" xmlns:xlink="http://www.w3.org/1999/xlink" x="0px" y="0px"
	 viewBox="0 0 48 48" style="enable-background:new 0 0 48 48;" xml:space="preserve">
<path d="M21.6,38.7V27.6l2.7-7.9c0-0.1,0.1-0.2,0.2-0.2c0.1-0.1,0.2-0.1,0.4-0.1h14.6c0.2,0,0.3,0,0.4,0.1c0.1,0,0.2,0.1,0.2,0.2
	l2.7,7.9v11.1c0,0.2-0.1,0.4-0.2,0.6c-0.1,0.1-0.3,0.2-0.5,0.2h-0.2c-0.2,0-0.4-0.1-0.5-0.2c-0.1-0.1-0.2-0.3-0.2-0.6v-2.8H23.3v2.8
	c0,0.2-0.1,0.4-0.2,0.6c-0.1,0.1-0.3,0.2-0.5,0.2h-0.2c-0.2,0-0.4-0.1-0.5-0.2S21.6,38.9,21.6,38.7z M23.5,26.4H41l-1.9-5.7H25.4
	L23.5,26.4z M26.3,32.8c0.5,0,0.9-0.2,1.2-0.5c0.3-0.3,0.5-0.8,0.5-1.2c0-0.5-0.2-0.9-0.5-1.2c-0.3-0.3-0.8-0.5-1.2-0.5
	c-0.5,0-0.9,0.2-1.2,0.5c-0.3,0.3-0.5,0.7-0.5,1.2s0.2,0.9,0.5,1.2C25.4,32.6,25.8,32.8,26.3,32.8z M38.3,32.8
	c0.5,0,0.9-0.2,1.2-0.5c0.4-0.3,0.5-0.8,0.5-1.2c0-0.5-0.2-0.9-0.5-1.2c-0.4-0.3-0.8-0.5-1.2-0.5c-0.5,0-0.9,0.2-1.2,0.5
	s-0.5,0.7-0.5,1.2s0.2,0.9,0.5,1.2C37.4,32.6,37.8,32.8,38.3,32.8z M9.2,39v-0.2L13,35c-2,0-3.8-0.4-5.4-1.2C5.9,33,5.1,31.7,5.1,30
	V12.8c0-1.4,0.9-2.3,2.8-2.9c1.9-0.6,5-0.9,9.2-0.9c4,0,7,0.3,9,0.9s3,1.6,3,2.8V16h-1.5v-3.5H6.7v14.6h11.7V39H9.2z M9.9,31.7
	c0.5,0,0.9-0.2,1.2-0.5s0.5-0.7,0.5-1.2s-0.2-0.9-0.5-1.2c-0.3-0.3-0.8-0.5-1.2-0.5c-0.5,0-0.9,0.2-1.2,0.5S8.2,29.6,8.2,30
	c0,0.5,0.2,0.9,0.5,1.2C9,31.5,9.4,31.7,9.9,31.7z"/>
</svg>
