<?xml version="1.0" encoding="utf-8"?>
<!-- Generator: Adobe Illustrator 26.3.1, SVG Export Plug-In . SVG Version: 6.00 Build 0)  -->
<svg version="1.1" id="Слой_1" xmlns="http://www.w3.org/2000/svg" xmlns:xlink="http://www.w3.org/1999/xlink" x="0px" y="0px"
	 viewBox="0 0 48 48" style="enable-background:new 0 0 48 48;" xml:space="preserve">
<path d="M24,33c-2.3,0-4.3-0.8-6-2.3c-1.6-1.5-2.7-3.4-3-5.7H6v-2h9c0.4-2.3,1.4-4.2,3-5.7s3.6-2.3,6-2.3s4.3,0.8,6,2.3
	s2.7,3.4,3,5.7h9v2h-9c-0.3,2.3-1.3,4.2-3,5.7S26.3,33,24,33z M24,31.5c2.1,0,3.8-0.7,5.3-2.2c1.5-1.4,2.2-3.2,2.2-5.3
	s-0.7-3.8-2.2-5.3c-1.4-1.5-3.2-2.2-5.3-2.2s-3.8,0.7-5.3,2.2c-1.5,1.4-2.2,3.2-2.2,5.3s0.7,3.8,2.2,5.3
	C20.2,30.7,21.9,31.5,24,31.5z"/>
</svg>
