<?xml version="1.0" encoding="utf-8"?>
<!-- Generator: Adobe Illustrator 26.3.1, SVG Export Plug-In . SVG Version: 6.00 Build 0)  -->
<svg version="1.1" id="Слой_1" xmlns="http://www.w3.org/2000/svg" xmlns:xlink="http://www.w3.org/1999/xlink" x="0px" y="0px"
	 viewBox="0 0 48 48" style="enable-background:new 0 0 48 48;" xml:space="preserve">
<path d="M20.9,25.9l-1.1-1.1c0.2-0.3,0.4-0.7,0.5-1.2s0.1-0.9,0.1-1.4s-0.1-1-0.2-1.4c-0.1-0.5-0.3-0.9-0.5-1.2l1.1-1.1
	c0.4,0.5,0.7,1.1,0.9,1.7c0.2,0.7,0.3,1.3,0.3,2s-0.1,1.4-0.3,2C21.6,24.8,21.3,25.4,20.9,25.9z M24.5,29.4l-1.1-1.1
	c0.7-1,1.3-2,1.7-3c0.4-1.1,0.5-2.1,0.5-3.2s-0.2-2.2-0.5-3.2c-0.4-1.1-0.9-2.1-1.7-3l1.1-1.1c0.9,1.1,1.6,2.3,2,3.5
	s0.6,2.5,0.6,3.8s-0.2,2.6-0.6,3.8C26.1,27.1,25.4,28.3,24.5,29.4z M9.8,22.9c-0.8,0-1.5-0.3-2-0.8c-0.5-0.6-0.8-1.2-0.8-2
	s0.3-1.5,0.8-2.1c0.6-0.6,1.2-0.9,2-0.9s1.5,0.3,2.1,0.9c0.6,0.6,0.8,1.3,0.8,2.1c0,0.8-0.3,1.5-0.9,2C11.3,22.6,10.6,22.9,9.8,22.9
	z M3,30.8v-0.1c0-0.5,0.2-1,0.5-1.4s0.7-0.7,1.2-0.9c0.8-0.4,1.6-0.6,2.5-0.8c0.9-0.2,1.7-0.3,2.6-0.3s1.8,0.1,2.6,0.3
	c0.8,0.2,1.7,0.4,2.4,0.8c0.5,0.2,0.9,0.5,1.2,0.9s0.5,0.9,0.5,1.4v0.1H3z M38.2,22.9c-0.8,0-1.5-0.3-2-0.8c-0.5-0.6-0.8-1.2-0.8-2
	s0.3-1.5,0.8-2.1c0.6-0.6,1.2-0.9,2-0.9s1.5,0.3,2.1,0.9s0.9,1.3,0.9,2.1c0,0.8-0.3,1.5-0.9,2C39.7,22.6,39,22.9,38.2,22.9z
	 M31.5,30.8v-0.1c0-0.5,0.2-1,0.5-1.4s0.7-0.7,1.2-0.9c0.8-0.4,1.6-0.6,2.5-0.8c0.9-0.2,1.7-0.3,2.6-0.3c0.9,0,1.8,0.1,2.6,0.3
	c0.8,0.2,1.7,0.4,2.4,0.8c0.5,0.2,0.9,0.5,1.2,0.9s0.5,0.9,0.5,1.4v0.1H31.5z"/>
</svg>
