<?xml version="1.0" encoding="utf-8"?>
<!-- Generator: Adobe Illustrator 26.3.1, SVG Export Plug-In . SVG Version: 6.00 Build 0)  -->
<svg version="1.1" id="Слой_1" xmlns="http://www.w3.org/2000/svg" xmlns:xlink="http://www.w3.org/1999/xlink" x="0px" y="0px"
	 viewBox="0 0 48 48" style="enable-background:new 0 0 48 48;" xml:space="preserve">
<path d="M17.9,31c0.8,0,1.5-0.3,2.1-0.8c0.6-0.6,0.9-1.2,0.9-2s-0.3-1.5-0.9-2c-0.6-0.6-1.3-0.8-2.1-0.8c-0.8,0-1.4,0.3-2,0.8
	c-0.5,0.6-0.8,1.2-0.8,2s0.3,1.5,0.8,2C16.5,30.7,17.2,31,17.9,31z M30.1,31c0.8,0,1.5-0.3,2-0.8c0.6-0.6,0.8-1.2,0.8-2
	s-0.3-1.5-0.8-2c-0.6-0.6-1.2-0.8-2-0.8s-1.5,0.3-2,0.8c-0.6,0.6-0.9,1.2-0.9,2s0.3,1.5,0.9,2C28.6,30.7,29.3,31,30.1,31z M24,20.7
	c0.8,0,1.5-0.3,2.1-0.8c0.6-0.6,0.9-1.2,0.9-2s-0.3-1.5-0.9-2C25.5,15.3,24.8,15,24,15s-1.5,0.3-2,0.8c-0.5,0.5-0.8,1.2-0.8,2
	s0.3,1.5,0.8,2C22.5,20.4,23.2,20.7,24,20.7z M24,42c-2.5,0-4.8-0.5-7-1.4s-4.1-2.2-5.7-3.9c-1.6-1.6-2.9-3.5-3.9-5.7
	C6.5,28.8,6,26.5,6,24s0.5-4.8,1.4-7s2.2-4.1,3.9-5.7c1.6-1.6,3.5-2.9,5.7-3.8c2.2-1,4.5-1.5,7-1.5s4.8,0.5,7,1.4s4.1,2.2,5.7,3.8
	c1.6,1.6,2.9,3.5,3.8,5.7c0.9,2.2,1.4,4.5,1.4,7s-0.5,4.8-1.4,7s-2.2,4.1-3.8,5.7s-3.5,2.9-5.7,3.9S26.5,42,24,42z"/>
</svg>
