<?xml version="1.0" encoding="utf-8"?>
<!-- Generator: Adobe Illustrator 26.3.1, SVG Export Plug-In . SVG Version: 6.00 Build 0)  -->
<svg version="1.1" id="Слой_1" xmlns="http://www.w3.org/2000/svg" xmlns:xlink="http://www.w3.org/1999/xlink" x="0px" y="0px"
	 viewBox="0 0 48 48" style="enable-background:new 0 0 48 48;" xml:space="preserve">
<path d="M42.5,44.8L31.8,34h-23c-0.8,0-1.4-0.3-2-0.8C6.3,32.7,6,32,6,31.2V9c0-0.1,0-0.3,0-0.4c0-0.1,0-0.2,0.1-0.3L3.8,6l1.1-1.1
	l38.8,38.8C43.6,43.6,42.5,44.8,42.5,44.8z M42,37L32,27h3v-1.5h-4.6l-4.7-4.7H35v-1.5H24.2l-4.7-4.7H35V13H18l-7-7h28.3
	c0.8,0,1.4,0.3,2,0.8C41.7,7.3,42,8,42,8.8V37z M13,27h11.8l-1.5-1.5H13V27z M13,20.8h5.5L17,19.2h-4V20.8z"/>
</svg>
