<?xml version="1.0" encoding="utf-8"?>
<!-- Generator: Adobe Illustrator 26.3.1, SVG Export Plug-In . SVG Version: 6.00 Build 0)  -->
<svg version="1.1" id="Слой_1" xmlns="http://www.w3.org/2000/svg" xmlns:xlink="http://www.w3.org/1999/xlink" x="0px" y="0px"
	 viewBox="0 0 48 48" style="enable-background:new 0 0 48 48;" xml:space="preserve">
<path d="M24,40.8c-2.2,0-4-0.8-5.5-2.3s-2.3-3.4-2.3-5.5c0-2.2,0.8-4,2.3-5.5s3.4-2.3,5.5-2.3s4,0.8,5.5,2.3s2.3,3.4,2.3,5.5
	s-0.8,4-2.3,5.5S26.2,40.8,24,40.8z M13.7,22.4l-6.8-6.8c2.4-2,5.1-3.5,8-4.7c2.9-1.1,5.9-1.7,9.1-1.7s6.2,0.6,9.1,1.7
	c2.9,1.1,5.6,2.7,8,4.7l-6.8,6.8c-1.5-1.2-3.1-2.1-4.8-2.7c-1.7-0.6-3.6-1-5.5-1s-3.8,0.3-5.5,1C16.7,20.4,15.1,21.3,13.7,22.4z"/>
</svg>
