<?xml version="1.0" encoding="utf-8"?>
<!-- Generator: Adobe Illustrator 26.3.1, SVG Export Plug-In . SVG Version: 6.00 Build 0)  -->
<svg version="1.1" id="Слой_1" xmlns="http://www.w3.org/2000/svg" xmlns:xlink="http://www.w3.org/1999/xlink" x="0px" y="0px"
	 viewBox="0 0 48 48" style="enable-background:new 0 0 48 48;" xml:space="preserve">
<path d="M22,42v-1.5h22V42H22z M24,37.2c0-2.3,0.8-4.3,2.3-6s3.4-2.7,5.7-2.9v-0.8c0-0.3,0.1-0.5,0.3-0.7s0.4-0.3,0.7-0.3
	s0.5,0.1,0.7,0.3c0.2,0.2,0.3,0.4,0.3,0.7v0.8c2.3,0.2,4.2,1.2,5.7,2.9c1.5,1.7,2.3,3.7,2.3,6H24z M4.1,23.8H10V8.5H4.1V23.8z
	 M11.5,23.8h5.1l13.3-4.9c0.4-0.2,0.8-0.4,1-0.7s0.3-0.7,0.3-1.2l0,0c0-0.4-0.2-0.8-0.5-1.1c-0.3-0.3-0.7-0.5-1.1-0.5h-4l-6.2,2.1
	l-0.5-1.3l6.5-2.1h13.1c0.8,0,1.4-0.2,2-0.7s0.9-1.1,0.9-1.9v-1.1L27.5,6.2l-15.9,4.7C11.5,10.9,11.5,23.8,11.5,23.8z"/>
</svg>
