<?xml version="1.0" encoding="utf-8"?>
<!-- Generator: Adobe Illustrator 26.3.1, SVG Export Plug-In . SVG Version: 6.00 Build 0)  -->
<svg version="1.1" id="Слой_1" xmlns="http://www.w3.org/2000/svg" xmlns:xlink="http://www.w3.org/1999/xlink" x="0px" y="0px"
	 viewBox="0 0 48 48" style="enable-background:new 0 0 48 48;" xml:space="preserve">
<path d="M20,11.3c-0.9,0-1.7-0.3-2.3-0.9c-0.6-0.6-0.9-1.4-0.9-2.3s0.3-1.7,0.9-2.3s1.4-0.9,2.3-0.9s1.7,0.3,2.3,0.9
	c0.6,0.6,0.9,1.4,0.9,2.3s-0.3,1.7-0.9,2.3C21.7,11,20.9,11.3,20,11.3z M33,36.8c1.6,0,3-0.6,4.2-1.7c1.1-1.1,1.7-2.5,1.7-4.2
	s-0.6-3-1.7-4.2S34.7,25,33,25c-1.6,0-3,0.6-4.2,1.7c-1.1,1.1-1.7,2.5-1.7,4.1s0.6,3,1.7,4.2C30,36.3,31.4,36.8,33,36.8z M43.2,42.3
	l-5.5-5.5c-0.7,0.5-1.4,0.9-2.2,1.2s-1.6,0.4-2.5,0.4c-2.1,0-3.8-0.7-5.2-2.2c-1.4-1.4-2.2-3.2-2.2-5.2c0-2.1,0.7-3.8,2.2-5.2
	c1.4-1.4,3.2-2.1,5.2-2.1c2.1,0,3.8,0.7,5.2,2.2c1.4,1.4,2.1,3.2,2.1,5.2c0,0.9-0.1,1.7-0.4,2.5c-0.3,0.8-0.7,1.5-1.2,2.2l5.5,5.5
	L43.2,42.3z M22.5,43v-6.8c0.2,0.5,0.4,0.9,0.7,1.3c0.2,0.4,0.5,0.8,0.9,1.2V43H22.5z M15.9,43V16.5c-2-0.2-4-0.4-6-0.6
	c-2-0.3-4-0.6-5.9-1.1l0.4-1.5c2.6,0.6,5.2,1,7.8,1.3s5.2,0.4,7.9,0.4s5.3-0.1,7.9-0.4c2.6-0.3,5.2-0.7,7.8-1.3l0.3,1.5
	c-2,0.4-3.9,0.8-5.9,1.1c-2,0.3-4,0.5-6,0.6v6.7c-0.8,1-1.4,2.1-1.9,3.3c-0.5,1.2-0.7,2.4-0.8,3.8v-0.2h-3.9V43
	C17.5,43,15.9,43,15.9,43z"/>
</svg>
