<?xml version="1.0" encoding="utf-8"?>
<!-- Generator: Adobe Illustrator 26.3.1, SVG Export Plug-In . SVG Version: 6.00 Build 0)  -->
<svg version="1.1" id="Слой_1" xmlns="http://www.w3.org/2000/svg" xmlns:xlink="http://www.w3.org/1999/xlink" x="0px" y="0px"
	 viewBox="0 0 48 48" style="enable-background:new 0 0 48 48;" xml:space="preserve">
<path d="M24,32.5c0.2,0,0.4-0.1,0.5-0.2c0.1-0.1,0.2-0.3,0.2-0.5s-0.1-0.4-0.2-0.5C24.4,31.1,24.2,31,24,31s-0.4,0.1-0.5,0.2
	s-0.2,0.3-0.2,0.6c0,0.2,0.1,0.4,0.2,0.5C23.6,32.5,23.8,32.5,24,32.5z M24,24.8c0.2,0,0.4-0.1,0.5-0.2s0.2-0.3,0.2-0.6
	s-0.1-0.4-0.2-0.5s-0.3-0.2-0.5-0.2s-0.4,0.1-0.5,0.2s-0.2,0.3-0.2,0.5s0.1,0.4,0.2,0.5C23.6,24.7,23.8,24.8,24,24.8z M24,17
	c0.2,0,0.4-0.1,0.5-0.2s0.2-0.3,0.2-0.5s-0.1-0.4-0.2-0.5s-0.3-0.2-0.5-0.2s-0.4,0.1-0.5,0.2c-0.1,0.1-0.2,0.3-0.2,0.6
	c0,0.2,0.1,0.4,0.2,0.5C23.6,16.9,23.8,17,24,17z M39.2,38H8.8c-0.8,0-1.4-0.3-1.9-0.8S6,36,6,35.2v-5c1.2-0.6,2.2-1.4,3-2.5
	s1.1-2.3,1.1-3.7S9.8,21.4,9,20.2c-0.8-1.1-1.8-1.9-3-2.5v-5c0-0.7,0.3-1.4,0.8-1.9C7.4,10.3,8,10,8.8,10h30.5
	c0.8,0,1.4,0.3,1.9,0.8S42,12,42,12.7v5c-1.2,0.5-2.2,1.4-3,2.5s-1.1,2.4-1.1,3.8s0.4,2.6,1.1,3.7c0.8,1.1,1.8,1.9,3,2.5v5
	c0,0.8-0.3,1.4-0.8,1.9S40,38,39.2,38z"/>
</svg>
