<?xml version="1.0" encoding="utf-8"?>
<!-- Generator: Adobe Illustrator 26.3.1, SVG Export Plug-In . SVG Version: 6.00 Build 0)  -->
<svg version="1.1" id="Слой_1" xmlns="http://www.w3.org/2000/svg" xmlns:xlink="http://www.w3.org/1999/xlink" x="0px" y="0px"
	 viewBox="0 0 48 48" style="enable-background:new 0 0 48 48;" xml:space="preserve">
<path d="M19.9,36c-2.9,0-5.7-0.7-8.2-2.2s-4.4-3.5-5.8-6.2l-1.1-2.1c-0.3-0.5-0.4-1.1-0.3-1.7s0.3-1.1,0.7-1.6L14.6,11
	c0.2-0.2,0.5-0.4,0.7-0.6c0.3-0.2,0.6-0.3,0.9-0.4c0.3-0.1,0.6-0.1,0.9,0c0.3,0,0.6,0.2,0.9,0.3l6,3.2l4.9-2.7
	c0.4-0.2,0.8-0.3,1.2-0.2c0.4,0,0.8,0.2,1.1,0.5c0.3,0.3,0.5,0.7,0.6,1c0.1,0.4,0,0.8-0.2,1.2l-5.7,13.3c-0.3,0.6-0.7,1.1-1.3,1.4
	c-0.6,0.3-1.2,0.4-1.9,0.2L6.3,24.9l0.8,1.5c1.2,2.4,3,4.4,5.3,5.8c2.3,1.5,4.8,2.2,7.5,2.2h8.3c1.9,0,3.8-0.4,5.5-1.2
	c1.8-0.8,3.3-1.8,4.7-3.2l1.4-1.4H36c-1,0-1.8-0.4-2.4-1.1c-0.6-0.8-0.9-1.6-0.7-2.6l1.2-7.8c0.1-0.4,0.2-0.7,0.5-1
	c0.3-0.3,0.6-0.5,0.9-0.6c0.4-0.1,0.7-0.1,1,0s0.7,0.3,0.9,0.6l5.3,6.2c0.4,0.4,0.6,0.9,0.7,1.5c0.1,0.6,0,1.1-0.3,1.6l-0.7,1.5
	c-1.3,2.8-3.2,5-5.8,6.7c-2.6,1.6-5.4,2.5-8.5,2.5C28.2,36,19.9,36,19.9,36z"/>
</svg>
