<?xml version="1.0" encoding="utf-8"?>
<!-- Generator: Adobe Illustrator 26.3.1, SVG Export Plug-In . SVG Version: 6.00 Build 0)  -->
<svg version="1.1" id="Слой_1" xmlns="http://www.w3.org/2000/svg" xmlns:xlink="http://www.w3.org/1999/xlink" x="0px" y="0px"
	 viewBox="0 0 48 48" style="enable-background:new 0 0 48 48;" xml:space="preserve">
<path d="M32,42.2l-5.2-8.8h-6.5c-0.3,0-0.6-0.1-0.8-0.3c-0.2-0.2-0.3-0.5-0.3-0.8s0.1-0.6,0.3-0.8c0.2-0.2,0.5-0.3,0.8-0.3h6.5
	l5.2-8.8h0.6L30,31.1h7.2l1.5-2h0.4l-0.9,3.2l0.9,3.2h-0.4l-1.5-2H30l2.6,8.8C32.6,42.2,32,42.2,32,42.2z M15.4,25.7l2.6-8.8h-7.2
	l-1.5,2H8.8l0.9-3.2l-0.9-3.2h0.4l1.5,2H18l-2.6-8.8H16l5.2,8.8h6.5c0.3,0,0.6,0.1,0.8,0.3c0.2,0.2,0.3,0.5,0.3,0.8
	s-0.1,0.6-0.3,0.8c-0.2,0.2-0.5,0.3-0.8,0.3h-6.5l-5.2,9H15.4z"/>
</svg>
