<?xml version="1.0" encoding="utf-8"?>
<!-- Generator: Adobe Illustrator 26.3.1, SVG Export Plug-In . SVG Version: 6.00 Build 0)  -->
<svg version="1.1" id="Слой_1" xmlns="http://www.w3.org/2000/svg" xmlns:xlink="http://www.w3.org/1999/xlink" x="0px" y="0px"
	 viewBox="0 0 48 48" style="enable-background:new 0 0 48 48;" xml:space="preserve">
<path d="M38.2,40L26.4,28.1l1.5-1.5l11.9,11.9L38.2,40z M9.7,40l-1.5-1.5l14.2-14.2l-6.8-6.8l-1,1l-1.7-1.8v3.7l-1,1l-5.3-5.3l1-1
	h3.7l-1.9-1.8l4.1-4.1c0.4-0.4,0.9-0.7,1.4-0.9S16,8,16.6,8s1.1,0.1,1.7,0.3c0.5,0.2,1,0.5,1.4,1L16,12.9l2.2,2.2l-1,1l6.8,6.7
	l5.8-5.8c-0.3-0.5-0.6-1-0.8-1.5c-0.2-0.5-0.2-1.1-0.2-1.8c0-1.5,0.6-2.9,1.7-4s2.4-1.7,4-1.7c0.3,0,0.7,0,0.9,0.1
	c0.3,0,0.5,0.1,0.7,0.3l-3.8,3.8l3.6,3.6l3.8-3.8c0.1,0.2,0.2,0.5,0.3,0.8s0.1,0.6,0.1,1c0,1.5-0.6,2.9-1.7,4
	c-1.1,1.1-2.4,1.7-4,1.7c-0.7,0-1.2-0.1-1.7-0.2s-0.9-0.4-1.4-0.7L9.7,40z"/>
</svg>
