<?xml version="1.0" encoding="utf-8"?>
<!-- Generator: Adobe Illustrator 26.3.1, SVG Export Plug-In . SVG Version: 6.00 Build 0)  -->
<svg version="1.1" id="Слой_1" xmlns="http://www.w3.org/2000/svg" xmlns:xlink="http://www.w3.org/1999/xlink" x="0px" y="0px"
	 viewBox="0 0 48 48" style="enable-background:new 0 0 48 48;" xml:space="preserve">
<path d="M28.4,22.3h12.9v-8.9H28.4V22.3z M34.9,20.3l-5-3.6v-1.8l5,3.6l5-3.6v1.8C39.9,16.7,34.9,20.3,34.9,20.3z M4.8,39.2
	c-0.8,0-1.4-0.3-2-0.8c-0.5-0.5-0.8-1.2-0.8-2V11.5c0-0.8,0.3-1.4,0.8-2C3.3,9,4,8.8,4.8,8.8h38.5c0.8,0,1.4,0.3,2,0.8
	c0.5,0.5,0.8,1.2,0.8,2v24.9c0,0.8-0.3,1.4-0.8,2c-0.5,0.5-1.2,0.8-2,0.8C43.2,39.2,4.8,39.2,4.8,39.2z M17.3,28.5
	c1.4,0,2.6-0.5,3.5-1.5c1-1,1.5-2.2,1.5-3.5c0-1.4-0.5-2.6-1.5-3.5c-1-1-2.2-1.5-3.5-1.5c-1.4,0-2.6,0.5-3.6,1.5s-1.4,2.2-1.4,3.5
	c0,1.4,0.5,2.6,1.4,3.5S15.9,28.5,17.3,28.5z M6,37.7h22.5c-1.5-1.7-3.2-3.1-5.1-4.2c-1.9-1.1-4-1.6-6.2-1.6s-4.3,0.5-6.2,1.6
	S7.4,36,6,37.7z"/>
</svg>
