<?xml version="1.0" encoding="utf-8"?>
<!-- Generator: Adobe Illustrator 26.3.1, SVG Export Plug-In . SVG Version: 6.00 Build 0)  -->
<svg version="1.1" id="Слой_1" xmlns="http://www.w3.org/2000/svg" xmlns:xlink="http://www.w3.org/1999/xlink" x="0px" y="0px"
	 viewBox="0 0 48 48" style="enable-background:new 0 0 48 48;" xml:space="preserve">
<path d="M34,41.7l-1.1-1.1l4.2-4.2l-4.2-4.2L34,31l4.2,4.3l4.2-4.3l1.1,1.1l-4.2,4.2l4.2,4.2l-1.1,1.1l-4.2-4.2L34,41.7z M18.8,15.8
	v-1.5h16.5v1.5H18.8z M18.8,21.4v-1.5h16.5v1.5H18.8z M11.7,42c-1,0-1.9-0.4-2.6-1.1C8.4,40.2,8,39.4,8,38.3v-5.9h6V6h26v19.3
	c-0.2,0-0.5-0.1-0.8-0.1s-0.5,0-0.8-0.1V7.5H15.5v24.9h12.3c-0.2,0.6-0.4,1.3-0.6,1.9c-0.1,0.7-0.2,1.3-0.2,2c0,1,0.1,2,0.4,3
	s0.7,1.9,1.3,2.7C28.7,42,11.7,42,11.7,42z"/>
</svg>
