<?xml version="1.0" encoding="utf-8"?>
<!-- Generator: Adobe Illustrator 26.3.1, SVG Export Plug-In . SVG Version: 6.00 Build 0)  -->
<svg version="1.1" id="Слой_1" xmlns="http://www.w3.org/2000/svg" xmlns:xlink="http://www.w3.org/1999/xlink" x="0px" y="0px"
	 viewBox="0 0 48 48" style="enable-background:new 0 0 48 48;" xml:space="preserve">
<path d="M24,42c-2.5,0-4.8-0.5-7-1.4s-4.1-2.2-5.7-3.8s-2.9-3.5-3.8-5.7C6.5,28.8,6,26.5,6,24s0.5-4.8,1.4-7s2.2-4.1,3.8-5.7
	s3.5-2.9,5.7-3.8C19.2,6.5,21.5,6,24,6s4.8,0.5,7,1.4s4.1,2.2,5.7,3.8c1.6,1.6,2.9,3.5,3.8,5.7c0.9,2.2,1.4,4.5,1.4,7
	s-0.5,4.8-1.4,7s-2.2,4.1-3.8,5.7s-3.5,2.9-5.7,3.8C28.8,41.5,26.5,42,24,42z M24,40.5c4.6,0,8.5-1.6,11.7-4.8s4.8-7.1,4.8-11.7
	c0-2.2-0.4-4.3-1.2-6.3s-2-3.8-3.6-5.3L12.4,35.6c1.5,1.5,3.3,2.7,5.3,3.6C19.7,40,21.8,40.5,24,40.5z M24.8,31.3v-1.5h8.7v1.5
	C33.4,31.3,24.8,31.3,24.8,31.3z M17.2,22.8h1.5v-4.2h4.2v-1.5h-4.2V13h-1.5v4.2H13v1.5h4.2V22.8z"/>
</svg>
