<?xml version="1.0" encoding="utf-8"?>
<!-- Generator: Adobe Illustrator 26.3.1, SVG Export Plug-In . SVG Version: 6.00 Build 0)  -->
<svg version="1.1" id="Слой_1" xmlns="http://www.w3.org/2000/svg" xmlns:xlink="http://www.w3.org/1999/xlink" x="0px" y="0px"
	 viewBox="0 0 48 48" style="enable-background:new 0 0 48 48;" xml:space="preserve">
<path d="M24,27.1c0.8,0,1.6-0.3,2.1-0.9c0.6-0.6,0.9-1.3,0.9-2.1c0-0.8-0.3-1.6-0.9-2.1c-0.6-0.6-1.3-0.9-2.1-0.9
	c-0.8,0-1.6,0.3-2.1,0.9c-0.6,0.6-0.9,1.3-0.9,2.1c0,0.8,0.3,1.6,0.9,2.1C22.4,26.8,23.2,27.1,24,27.1z M17,33.8h14v-0.3
	c0-0.6-0.2-1.1-0.5-1.6c-0.3-0.4-0.8-0.8-1.3-1c-0.8-0.3-1.6-0.6-2.5-0.8c-0.9-0.2-1.8-0.3-2.7-0.3s-1.8,0.1-2.7,0.3
	c-0.9,0.2-1.7,0.5-2.5,0.8c-0.6,0.3-1,0.6-1.3,1s-0.5,1-0.5,1.6V33.8z M35.2,42H12.8c-0.8,0-1.4-0.3-2-0.8c-0.5-0.5-0.8-1.2-0.8-2
	V8.8c0-0.8,0.3-1.4,0.8-2C11.3,6.3,12,6,12.8,6h14.4L38,16.8v22.4c0,0.8-0.3,1.4-0.8,2C36.7,41.7,36,42,35.2,42z"/>
</svg>
