<?xml version="1.0" encoding="utf-8"?>
<!-- Generator: Adobe Illustrator 26.3.1, SVG Export Plug-In . SVG Version: 6.00 Build 0)  -->
<svg version="1.1" id="Слой_1" xmlns="http://www.w3.org/2000/svg" xmlns:xlink="http://www.w3.org/1999/xlink" x="0px" y="0px"
	 viewBox="0 0 48 48" style="enable-background:new 0 0 48 48;" xml:space="preserve">
<path d="M26.8,40.5l-0.1-4.3h-3.6c-4.2,0-7.8-1.5-10.7-4.4S8,25.3,8,21.1s1.5-7.7,4.4-10.7c3-2.9,6.5-4.4,10.8-4.4
	c2.1,0,4,0.4,5.8,1.2s3.4,1.8,4.7,3.2s2.4,2.9,3.2,4.8c0.8,1.8,1.2,3.8,1.2,5.9c0,1.9-0.3,3.8-0.8,5.6c-0.5,1.8-1.3,3.6-2.2,5.3
	c-1,1.7-2.2,3.2-3.5,4.7C30,38.1,28.5,39.4,26.8,40.5z M23.2,31.5c0.4,0,0.7-0.1,1-0.4s0.4-0.6,0.4-1s-0.1-0.7-0.4-1s-0.6-0.4-1-0.4
	s-0.7,0.1-1,0.4s-0.4,0.6-0.4,1s0.1,0.7,0.4,1S22.9,31.5,23.2,31.5z M22.4,25.5H24c0.1-0.7,0.2-1.4,0.5-1.9c0.3-0.6,0.9-1.3,1.8-2.2
	c0.7-0.7,1.2-1.4,1.5-2s0.5-1.3,0.5-2.1c0-1.3-0.5-2.5-1.4-3.4s-2.1-1.3-3.6-1.3c-1.2,0-2.2,0.3-3.2,1c-0.9,0.6-1.6,1.5-2,2.4
	l1.4,0.6c0.4-0.7,0.8-1.3,1.4-1.7s1.4-0.6,2.3-0.6c1.2,0,2.1,0.3,2.7,0.9c0.6,0.6,0.9,1.3,0.9,2.1c0,0.7-0.2,1.3-0.5,1.9
	c-0.4,0.6-0.9,1.2-1.7,2c-0.8,0.8-1.4,1.5-1.7,2.2C22.6,24,22.4,24.7,22.4,25.5z"/>
</svg>
