<?xml version="1.0" encoding="utf-8"?>
<!-- Generator: Adobe Illustrator 26.3.1, SVG Export Plug-In . SVG Version: 6.00 Build 0)  -->
<svg version="1.1" id="Слой_1" xmlns="http://www.w3.org/2000/svg" xmlns:xlink="http://www.w3.org/1999/xlink" x="0px" y="0px"
	 viewBox="0 0 48 48" style="enable-background:new 0 0 48 48;" xml:space="preserve">
<path d="M36.5,17.5v-4h-4V12h4V8H38v4h4v1.5h-4v4H36.5z M13.6,30.6h11.1v-3.5H13.6V30.6z M13.6,20.9h11.1v-3.5H13.6V20.9z M8.8,38
	c-0.8,0-1.4-0.3-2-0.8C6.3,36.7,6,36,6,35.2V12.8c0-0.8,0.3-1.4,0.8-2C7.3,10.3,8,10,8.8,10h19.8c-0.1,0.4-0.2,0.9-0.3,1.3
	c-0.1,0.5-0.1,0.9-0.1,1.4c0,1.2,0.2,2.3,0.7,3.4c0.5,1,1.1,1.9,2,2.7v11.8h3.5v-9.2c0.5,0.2,0.9,0.3,1.4,0.4s1,0.1,1.5,0.1
	c0.9,0,1.7-0.1,2.5-0.4c0.8-0.2,1.5-0.6,2.2-1v14.8c0,0.8-0.3,1.4-0.8,2c-0.5,0.5-1.2,0.8-2,0.8H8.8V38z"/>
</svg>
