<?xml version="1.0" encoding="utf-8"?>
<!-- Generator: Adobe Illustrator 26.3.1, SVG Export Plug-In . SVG Version: 6.00 Build 0)  -->
<svg version="1.1" id="Слой_1" xmlns="http://www.w3.org/2000/svg" xmlns:xlink="http://www.w3.org/1999/xlink" x="0px" y="0px"
	 viewBox="0 0 48 48" style="enable-background:new 0 0 48 48;" xml:space="preserve">
<path d="M16.2,27.8c0.2-0.6,0.4-1.2,0.5-1.8c0.1-0.6,0.2-1.3,0.2-1.9s-0.1-1.3-0.2-1.9s-0.3-1.3-0.5-1.8L14.7,21
	c0.2,0.5,0.4,1,0.5,1.5c0.1,0.6,0.1,1.1,0.1,1.6s-0.1,1.1-0.2,1.6c-0.1,0.5-0.3,1.1-0.4,1.6L16.2,27.8z M22.8,30.5
	c0.4-1,0.7-2.1,0.9-3.2S24,25.1,24,24c0-1.1-0.1-2.2-0.3-3.3c-0.2-1.1-0.5-2.1-0.9-3.2L21.4,18c0.4,0.9,0.6,1.9,0.8,2.9
	c0.2,1,0.2,2,0.2,3.1s-0.1,2.1-0.2,3.1c-0.2,1-0.4,2-0.8,3C21.4,30,22.8,30.5,22.8,30.5z M29.4,33.2c0.6-1.5,1-3,1.2-4.5
	c0.3-1.5,0.4-3.1,0.4-4.7s-0.1-3.2-0.4-4.7s-0.7-3.1-1.2-4.5l-1.5,0.6c0.5,1.4,0.9,2.8,1.2,4.2c0.3,1.4,0.4,2.9,0.4,4.4
	s-0.1,3-0.4,4.5s-0.6,2.9-1.2,4.2L29.4,33.2z M24,42c-2.5,0-4.8-0.5-7-1.4s-4.1-2.2-5.7-3.9c-1.6-1.6-2.9-3.5-3.9-5.7
	C6.5,28.8,6,26.5,6,24s0.5-4.8,1.4-7s2.2-4.1,3.9-5.7c1.6-1.6,3.5-2.9,5.7-3.8c2.2-1,4.5-1.5,7-1.5s4.8,0.5,7,1.4s4.1,2.2,5.7,3.8
	c1.6,1.6,2.9,3.5,3.8,5.7c0.9,2.2,1.4,4.5,1.4,7s-0.5,4.8-1.4,7s-2.2,4.1-3.8,5.7s-3.5,2.9-5.7,3.9S26.5,42,24,42z"/>
</svg>
