<?xml version="1.0" encoding="utf-8"?>
<!-- Generator: Adobe Illustrator 26.3.1, SVG Export Plug-In . SVG Version: 6.00 Build 0)  -->
<svg version="1.1" id="Слой_1" xmlns="http://www.w3.org/2000/svg" xmlns:xlink="http://www.w3.org/1999/xlink" x="0px" y="0px"
	 viewBox="0 0 48 48" style="enable-background:new 0 0 48 48;" xml:space="preserve">
<path d="M24,34.8c3,0,5.5-1,7.6-3.1s3.1-4.6,3.1-7.6s-1-5.5-3.1-7.6S27,13.4,24,13.4s-5.5,1-7.6,3.1s-3.1,4.6-3.1,7.6s1,5.5,3.1,7.6
	C18.5,33.7,21,34.8,24,34.8z M24,33.2c-2.5,0-4.7-0.9-6.5-2.7s-2.7-4-2.7-6.5s0.9-4.7,2.7-6.5s4-2.7,6.5-2.7s4.7,0.9,6.5,2.7
	s2.7,4,2.7,6.5s-0.9,4.7-2.7,6.5S26.5,33.2,24,33.2z M23.5,24.5c0.2,0.2,0.4,0.3,0.5,0.3s0.4-0.1,0.6-0.3l2.8-2.8
	c0.2-0.2,0.3-0.4,0.3-0.6s-0.1-0.4-0.3-0.5s-0.4-0.3-0.5-0.3c-0.2,0-0.4,0.1-0.6,0.3l-2.8,2.8c-0.2,0.2-0.3,0.4-0.3,0.6
	S23.3,24.4,23.5,24.5z M10.8,40c-0.8,0-1.4-0.3-2-0.8C8.3,38.7,8,38,8,37.2V10.8c0-0.8,0.3-1.4,0.8-2C9.3,8.3,10,8,10.8,8h26.5
	c0.8,0,1.4,0.3,2,0.8c0.5,0.5,0.8,1.2,0.8,2v26.5c0,0.8-0.3,1.4-0.8,2c-0.5,0.5-1.2,0.8-2,0.8L10.8,40L10.8,40z"/>
</svg>
