<?xml version="1.0" encoding="utf-8"?>
<!-- Generator: Adobe Illustrator 26.3.1, SVG Export Plug-In . SVG Version: 6.00 Build 0)  -->
<svg version="1.1" id="Слой_1" xmlns="http://www.w3.org/2000/svg" xmlns:xlink="http://www.w3.org/1999/xlink" x="0px" y="0px"
	 viewBox="0 0 48 48" style="enable-background:new 0 0 48 48;" xml:space="preserve">
<path d="M24,27.8c-1.1,0-1.9-0.4-2.7-1.1c-0.7-0.7-1.1-1.6-1.1-2.7s0.4-2,1.1-2.7s1.6-1.1,2.7-1.1s2,0.4,2.7,1.1s1.1,1.6,1.1,2.7
	s-0.4,1.9-1.1,2.7C25.9,27.4,25,27.8,24,27.8z M24,42l-7.6-7.6l1.1-1.1l6.5,6.5l6.6-6.6l1.1,1.2L24,42z M13.6,31.7L6,24.1l7.7-7.6
	l1.1,1.1L8.2,24l6.5,6.5L13.6,31.7z M17.4,14.8l-1.1-1.1l7.6-7.6l7.6,7.6l-1.1,1.1L24,8.3L17.4,14.8z M34.3,31.7l-1.1-1.1l6.5-6.5
	l-6.5-6.6l1.1-1.1L42,24L34.3,31.7z"/>
</svg>
