<?xml version="1.0" encoding="utf-8"?>
<!-- Generator: Adobe Illustrator 26.3.1, SVG Export Plug-In . SVG Version: 6.00 Build 0)  -->
<svg version="1.1" id="Слой_1" xmlns="http://www.w3.org/2000/svg" xmlns:xlink="http://www.w3.org/1999/xlink" x="0px" y="0px"
	 viewBox="0 0 48 48" style="enable-background:new 0 0 48 48;" xml:space="preserve">
<path d="M8.6,42.8v-1.5h30.8v1.5H8.6z M8.6,6.8V5.2h30.8v1.5H8.6V6.8z M24,27.9c1.4,0,2.6-0.5,3.5-1.4c0.9-1,1.4-2.1,1.4-3.5
	s-0.5-2.6-1.4-3.5c-0.9-1-2.1-1.5-3.5-1.5s-2.6,0.5-3.5,1.4c-0.9,1-1.4,2.1-1.4,3.5s0.5,2.6,1.4,3.5C21.4,27.4,22.6,27.9,24,27.9z
	 M8.6,38c-0.8,0-1.4-0.3-2-0.8c-0.5-0.5-0.8-1.2-0.8-2V12.8c0-0.8,0.3-1.5,0.8-2s1.2-0.8,2-0.8h30.8c0.8,0,1.4,0.3,2,0.8
	c0.5,0.5,0.8,1.2,0.8,2v22.5c0,0.8-0.3,1.4-0.8,2c-0.5,0.5-1.2,0.8-2,0.8L8.6,38L8.6,38z M13.9,36.5h20.2c-1.6-1.5-3.2-2.5-5-3.2
	s-3.5-1-5.1-1c-1.7,0-3.4,0.3-5.1,1C17.2,33.9,15.5,35,13.9,36.5z"/>
</svg>
