<?xml version="1.0" encoding="utf-8"?>
<!-- Generator: Adobe Illustrator 26.3.1, SVG Export Plug-In . SVG Version: 6.00 Build 0)  -->
<svg version="1.1" id="Слой_1" xmlns="http://www.w3.org/2000/svg" xmlns:xlink="http://www.w3.org/1999/xlink" x="0px" y="0px"
	 viewBox="0 0 48 48" style="enable-background:new 0 0 48 48;" xml:space="preserve">
<path d="M11.7,42c-1,0-1.9-0.4-2.6-1.1C8.4,40.2,8,39.3,8,38.3v-5.9h6V6h26v32.3c0,1-0.4,1.9-1.1,2.6c-0.7,0.7-1.6,1.1-2.6,1.1
	C36.4,42,11.7,42,11.7,42z M36.4,40.5c0.6,0,1.1-0.2,1.5-0.6c0.4-0.4,0.6-0.9,0.6-1.5V7.5h-23v24.9h18.7v5.9c0,0.6,0.2,1.1,0.6,1.5
	C35.3,40.3,35.8,40.5,36.4,40.5z M18.8,15.8v-1.5h16.5v1.5H18.8z M18.8,21.4v-1.5h16.5v1.5H18.8z"/>
</svg>
