<?xml version="1.0" encoding="utf-8"?>
<!-- Generator: Adobe Illustrator 26.3.1, SVG Export Plug-In . SVG Version: 6.00 Build 0)  -->
<svg version="1.1" id="Слой_1" xmlns="http://www.w3.org/2000/svg" xmlns:xlink="http://www.w3.org/1999/xlink" x="0px" y="0px"
	 viewBox="0 0 48 48" style="enable-background:new 0 0 48 48;" xml:space="preserve">
<path d="M29.4,33.2c0.2-0.5,0.3-1,0.5-1.5s0.3-1,0.4-1.5L29,29c-0.1,0.6-0.3,1.3-0.5,1.9s-0.4,1.2-0.6,1.8
	C27.9,32.6,29.4,33.2,29.4,33.2z M22.8,30.5c0.4-1.1,0.7-2.1,0.9-3.2c0.2-1.1,0.3-2.2,0.3-3.3l-1.6-1.6c0,0.3,0,0.5,0,0.8
	s0,0.6,0,0.8c0,1-0.1,2.1-0.2,3.1c-0.2,1-0.4,2-0.8,3L22.8,30.5z M16.2,27.8c0.2-0.6,0.4-1.2,0.5-1.8c0.1-0.6,0.2-1.3,0.2-1.9
	s-0.1-1.3-0.2-1.9s-0.3-1.3-0.5-1.8L14.7,21c0.2,0.5,0.4,1,0.5,1.5c0.1,0.6,0.1,1.1,0.1,1.6s-0.1,1.1-0.2,1.6
	c-0.1,0.5-0.3,1.1-0.4,1.6L16.2,27.8z M42.5,44.8l-6.9-6.9c-1.6,1.3-3.4,2.4-5.3,3.1c-1.9,0.7-4,1.1-6.3,1.1c-2.5,0-4.8-0.5-7-1.4
	s-4.1-2.2-5.7-3.8s-2.9-3.5-3.8-5.7S6,26.5,6,24c0-2.3,0.4-4.5,1.2-6.6s1.9-3.9,3.4-5.5H12l25.9,25.9h-2.2L3.8,6l1.1-1.1l38.8,38.8
	C43.6,43.6,42.5,44.8,42.5,44.8z M39,34l-8.1-8.1c0-0.3,0-0.7,0.1-1c0-0.3,0-0.6,0-1c0-1.6-0.1-3.2-0.4-4.7
	c-0.3-1.6-0.7-3.1-1.2-4.5l-1.5,0.6c0.6,1.4,1,2.9,1.2,4.5c0.2,1.5,0.4,3.1,0.3,4.7l-4.9-4.9c0-0.4-0.1-0.8-0.2-1.3
	c-0.2-0.5-0.3-0.9-0.3-1.2l-1.4,0.6L14,9c1.4-0.9,3-1.7,4.7-2.2C20.3,6.3,22.1,6,24,6c2.5,0,4.8,0.5,7,1.4s4.1,2.2,5.7,3.8
	c1.6,1.6,2.9,3.5,3.8,5.7c0.9,2.2,1.4,4.5,1.4,7c0,1.9-0.3,3.7-0.8,5.4C40.7,31.1,40,32.6,39,34z"/>
</svg>
