<?xml version="1.0" encoding="utf-8"?>
<!-- Generator: Adobe Illustrator 26.3.1, SVG Export Plug-In . SVG Version: 6.00 Build 0)  -->
<svg version="1.1" id="Слой_1" xmlns="http://www.w3.org/2000/svg" xmlns:xlink="http://www.w3.org/1999/xlink" x="0px" y="0px"
	 viewBox="0 0 48 48" style="enable-background:new 0 0 48 48;" xml:space="preserve">
<path d="M10,38c-1.1,0-2-0.4-2.8-1.2C6.4,36.1,6,35.1,6,34s0.4-2.1,1.2-2.8C8,30.4,8.9,30,10,30h28c1.1,0,2.1,0.4,2.8,1.2
	C41.6,32,42,32.9,42,34s-0.4,2.1-1.2,2.8C40.1,37.6,39.1,38,38,38H10z M10,36.5h28c0.7,0,1.3-0.2,1.8-0.7s0.7-1.1,0.7-1.8
	s-0.2-1.3-0.7-1.8s-1.1-0.7-1.8-0.7H10c-0.7,0-1.3,0.2-1.8,0.7S7.5,33.3,7.5,34s0.2,1.3,0.7,1.8C8.7,36.2,9.3,36.5,10,36.5z
	 M23.3,26c-0.4,0-0.7-0.1-1-0.4s-0.4-0.6-0.4-1V11.4c0-0.4,0.1-0.7,0.4-1s0.6-0.4,1-0.4h13.3c0.4,0,0.7,0.1,1,0.4
	c0.3,0.3,0.4,0.6,0.4,1v13.3c0,0.4-0.1,0.7-0.4,1c-0.3,0.3-0.6,0.4-1,0.4H23.3V26z M6,22.8v-1.6h12.4v1.6H6z M25.9,16.8H34v-1.5
	h-8.1C25.9,15.2,25.9,16.8,25.9,16.8z M10,16.8h8.6v-1.5H10C10,15.2,10,16.8,10,16.8z"/>
</svg>
