<?xml version="1.0" encoding="utf-8"?>
<!-- Generator: Adobe Illustrator 26.3.1, SVG Export Plug-In . SVG Version: 6.00 Build 0)  -->
<svg version="1.1" id="Слой_1" xmlns="http://www.w3.org/2000/svg" xmlns:xlink="http://www.w3.org/1999/xlink" x="0px" y="0px"
	 viewBox="0 0 48 48" style="enable-background:new 0 0 48 48;" xml:space="preserve">
<path d="M38.1,41c-1.2,0-2.3-0.4-3.2-1.2s-1.4-1.8-1.6-2.9H22.1c-1.9,0-3.6-0.7-4.9-2s-2-2.9-2-4.9s0.7-3.6,2-4.9s2.9-2,4.9-2H26
	c1.5,0,2.7-0.5,3.8-1.5c1-1,1.5-2.3,1.5-3.8s-0.5-2.7-1.5-3.8c-1-1-2.3-1.5-3.8-1.5H14.7c-0.1,1.2-0.7,2.1-1.6,2.9
	c-0.9,0.8-2,1.2-3.2,1.2c-1.3,0-2.5-0.5-3.4-1.4c-1-0.8-1.5-2-1.5-3.3s0.5-2.5,1.4-3.4c1-1,2.1-1.5,3.5-1.5c1.2,0,2.3,0.4,3.2,1.2
	s1.5,1.8,1.6,2.9H26c1.9,0,3.6,0.7,4.9,2c1.3,1.3,2,2.9,2,4.9s-0.7,3.6-2,4.9s-2.9,2-4.9,2h-3.9c-1.5,0-2.7,0.5-3.8,1.5
	c-1,1-1.5,2.3-1.5,3.8s0.5,2.7,1.5,3.8c1,1,2.3,1.5,3.8,1.5h11.3c0.2-1.2,0.7-2.1,1.6-2.9c0.9-0.8,2-1.2,3.2-1.2
	c1.3,0,2.5,0.5,3.4,1.4s1.4,2.1,1.4,3.5c0,1.3-0.5,2.5-1.4,3.4C40.6,40.5,39.5,41,38.1,41z M9.9,15.2c0.9,0,1.7-0.3,2.3-1
	c0.6-0.6,1-1.4,1-2.3c0-0.9-0.3-1.7-1-2.3c-0.6-0.6-1.4-1-2.3-1c-0.9,0-1.7,0.3-2.3,1c-0.6,0.6-1,1.4-1,2.3c0,0.9,0.3,1.7,1,2.3
	C8.2,14.8,8.9,15.2,9.9,15.2z"/>
</svg>
