<?xml version="1.0" encoding="utf-8"?>
<!-- Generator: Adobe Illustrator 26.3.1, SVG Export Plug-In . SVG Version: 6.00 Build 0)  -->
<svg version="1.1" id="Слой_1" xmlns="http://www.w3.org/2000/svg" xmlns:xlink="http://www.w3.org/1999/xlink" x="0px" y="0px"
	 viewBox="0 0 48 48" style="enable-background:new 0 0 48 48;" xml:space="preserve">
<path d="M42.6,44.8L3.8,6l1.1-1.1l38.8,38.8C43.6,43.6,42.6,44.8,42.6,44.8z M22.1,36.9c-1.9,0-3.6-0.7-4.9-2s-2-2.9-2-4.9
	s0.7-3.6,2-4.9s2.9-2,4.9-2h1.2l1.5,1.5h-2.7c-1.5,0-2.8,0.5-3.8,1.5s-1.5,2.3-1.5,3.8s0.5,2.8,1.5,3.8s2.3,1.5,3.8,1.5h13.3
	l5.1,5.1c-0.4,0.2-0.7,0.3-1.1,0.4C38.9,41,38.6,41,38.1,41c-1.2,0-2.3-0.4-3.2-1.2s-1.4-1.8-1.6-2.9C33.3,36.9,22.1,36.9,22.1,36.9
	z M42.7,37.7l-6.1-6.1c0.2-0.1,0.5-0.2,0.8-0.2c0.3-0.1,0.5-0.1,0.8-0.1c1.3,0,2.5,0.5,3.4,1.4s1.4,2.1,1.4,3.5c0,0.3,0,0.5-0.1,0.8
	C42.9,37.2,42.8,37.5,42.7,37.7z M29.1,24.1l-1.2-1.2c1-0.3,1.9-0.9,2.5-1.8s1-1.9,1-3.1c0-1.5-0.5-2.8-1.5-3.8s-2.3-1.5-3.8-1.5
	h-8.4l-1.2-1.5H26c1.9,0,3.6,0.7,4.9,2c1.3,1.3,2,2.9,2,4.9c0,1.4-0.3,2.6-1,3.7C31.1,22.7,30.2,23.5,29.1,24.1z M9.9,16.7
	c-1.3,0-2.5-0.5-3.4-1.4c-1-0.9-1.5-2.1-1.5-3.4c0-0.9,0.2-1.8,0.7-2.5C6.2,8.6,6.8,8,7.6,7.6l6.6,6.6c-0.4,0.7-1,1.4-1.8,1.8
	C11.6,16.5,10.8,16.7,9.9,16.7z"/>
</svg>
