<?xml version="1.0" encoding="utf-8"?>
<!-- Generator: Adobe Illustrator 26.3.1, SVG Export Plug-In . SVG Version: 6.00 Build 0)  -->
<svg version="1.1" id="Слой_1" xmlns="http://www.w3.org/2000/svg" xmlns:xlink="http://www.w3.org/1999/xlink" x="0px" y="0px"
	 viewBox="0 0 48 48" style="enable-background:new 0 0 48 48;" xml:space="preserve">
<path d="M17,29.7c0.7,0,1.4-0.3,1.9-0.8s0.8-1.2,0.8-1.9s-0.3-1.4-0.8-1.9s-1.2-0.8-1.9-0.8c-0.7,0-1.4,0.3-1.9,0.8
	s-0.8,1.2-0.8,1.9s0.3,1.4,0.8,1.9C15.6,29.4,16.3,29.7,17,29.7z M42.5,44.8l-6.9-6.9c-1.6,1.3-3.4,2.4-5.3,3.1
	c-1.9,0.7-4,1.1-6.3,1.1c-2.5,0-4.8-0.5-7-1.4s-4.1-2.2-5.7-3.8s-2.9-3.5-3.8-5.7S6,26.5,6,24c0-2.2,0.4-4.3,1.1-6.3
	c0.7-1.9,1.8-3.7,3.1-5.3L3.8,6l1.1-1.1l38.8,38.8C43.6,43.6,42.5,44.8,42.5,44.8z M39,34L14,9c1.8-1.3,3.8-2.2,6.1-2.7
	s4.5-0.6,6.9-0.2c0,1.4,0.1,2.7,0.5,3.8s1,2.1,1.8,2.9c0.8,0.8,1.8,1.4,3,1.9s2.5,0.7,3.9,0.7c-0.3,1.8,0.2,3.4,1.4,4.8
	s2.7,2.2,4.3,2.5c0.1,2-0.2,3.9-0.7,5.9C40.8,30.7,40,32.5,39,34z"/>
</svg>
