<?xml version="1.0" encoding="utf-8"?>
<!-- Generator: Adobe Illustrator 26.3.1, SVG Export Plug-In . SVG Version: 6.00 Build 0)  -->
<svg version="1.1" id="Слой_1" xmlns="http://www.w3.org/2000/svg" xmlns:xlink="http://www.w3.org/1999/xlink" x="0px" y="0px"
	 viewBox="0 0 48 48" style="enable-background:new 0 0 48 48;" xml:space="preserve">
<path d="M20.7,38.5v-4c0-0.4-0.1-0.7-0.3-0.9c-0.2-0.2-0.5-0.3-0.9-0.3H7v-1.5h12.5c0.7,0,1.4,0.3,1.9,0.8c0.6,0.6,0.8,1.2,0.8,1.9
	v4C22.2,38.5,20.7,38.5,20.7,38.5z M25.8,38.5v-4c0-0.7,0.3-1.4,0.8-1.9c0.6-0.6,1.2-0.8,1.9-0.8H41v1.5H28.5
	c-0.4,0-0.7,0.1-0.9,0.3c-0.2,0.2-0.3,0.5-0.3,0.9v4C27.3,38.5,25.8,38.5,25.8,38.5z M12.8,27.8c-1.3,0-2.5-0.5-3.4-1.4
	C8.5,25.5,8,24.3,8,23v-6.1h32V23c0,1.3-0.5,2.5-1.4,3.4s-2.1,1.4-3.4,1.4H12.8z M8,13.4v-1.5h11.2v-1.1c0-0.4,0.1-0.7,0.4-1
	s0.6-0.4,1-0.4h6.7c0.4,0,0.7,0.1,1,0.4c0.3,0.3,0.4,0.6,0.4,1v1.1H40v1.5H8z"/>
</svg>
