<?xml version="1.0" encoding="utf-8"?>
<!-- Generator: Adobe Illustrator 26.3.1, SVG Export Plug-In . SVG Version: 6.00 Build 0)  -->
<svg version="1.1" id="Слой_1" xmlns="http://www.w3.org/2000/svg" xmlns:xlink="http://www.w3.org/1999/xlink" x="0px" y="0px"
	 viewBox="0 0 48 48" style="enable-background:new 0 0 48 48;" xml:space="preserve">
<path d="M39.2,31.7c-0.7,0-1.4-0.1-2.1-0.2s-1.4-0.4-2-0.7c-0.7-0.2-1.3-0.5-2-0.7s-1.4-0.3-2.1-0.3s-1.5,0.1-2.1,0.3
	c-0.7,0.2-1.3,0.5-1.9,0.8l-0.6-1.4c0.7-0.4,1.5-0.7,2.3-0.9c0.8-0.2,1.6-0.3,2.4-0.3c0.7,0,1.4,0.1,2.1,0.3c0.7,0.2,1.4,0.4,2,0.7
	c0.7,0.3,1.3,0.5,2,0.7s1.4,0.3,2.1,0.3c0.7,0,1.5-0.1,2.1-0.3c0.7-0.2,1.3-0.4,1.9-0.8l0.6,1.4c-0.7,0.4-1.5,0.7-2.3,0.9
	C40.8,31.6,40,31.7,39.2,31.7z M39.2,37.2c-0.7,0-1.4-0.1-2.1-0.2s-1.4-0.4-2-0.7c-0.7-0.2-1.3-0.5-2-0.7s-1.4-0.3-2.1-0.3
	s-1.5,0.1-2.1,0.3c-0.7,0.2-1.3,0.5-1.9,0.8L26.4,35c0.7-0.4,1.5-0.7,2.3-0.9s1.6-0.3,2.4-0.3c0.7,0,1.4,0.1,2.1,0.3
	c0.7,0.2,1.4,0.4,2,0.7c0.7,0.3,1.3,0.5,2,0.7s1.4,0.3,2.1,0.3c0.7,0,1.5-0.1,2.1-0.3c0.7-0.2,1.3-0.4,1.9-0.8l0.6,1.4
	c-0.7,0.4-1.5,0.7-2.3,0.9C40.8,37.1,40,37.2,39.2,37.2z M39.2,42.7c-0.7,0-1.4-0.1-2.1-0.2c-0.7-0.2-1.4-0.4-2-0.7
	c-0.7-0.2-1.3-0.5-2-0.7s-1.4-0.3-2.1-0.3s-1.5,0.1-2.1,0.3c-0.7,0.2-1.3,0.5-1.9,0.8l-0.6-1.4c0.7-0.4,1.5-0.7,2.3-0.9
	s1.6-0.3,2.4-0.3c0.7,0,1.4,0.1,2.1,0.3s1.4,0.4,2,0.7c0.7,0.3,1.3,0.5,2,0.7s1.4,0.3,2.1,0.3c0.7,0,1.5-0.1,2.1-0.3
	c0.7-0.2,1.3-0.4,1.9-0.8l0.6,1.4c-0.7,0.4-1.5,0.7-2.3,0.9C40.8,42.6,40,42.7,39.2,42.7z M22.2,38.9c-3.4-0.4-6.3-1.9-8.7-4.4
	S10,28.9,10,25.3c0-2,0.4-3.8,1.1-5.4c0.8-1.6,1.7-3.1,2.9-4.4l10-9.7l9.9,9.7c1,1.1,1.9,2.2,2.5,3.5c0.7,1.3,1.1,2.7,1.4,4.2H25
	c-0.8,0-1.4,0.3-2,0.8c-0.5,0.5-0.8,1.2-0.8,2V38.9z"/>
</svg>
