<?xml version="1.0" encoding="utf-8"?>
<!-- Generator: Adobe Illustrator 26.3.1, SVG Export Plug-In . SVG Version: 6.00 Build 0)  -->
<svg version="1.1" id="Слой_1" xmlns="http://www.w3.org/2000/svg" xmlns:xlink="http://www.w3.org/1999/xlink" x="0px" y="0px"
	 viewBox="0 0 48 48" style="enable-background:new 0 0 48 48;" xml:space="preserve">
<path d="M22.5,41.5c-0.2,0-0.3-0.1-0.5-0.2c-0.1-0.1-0.2-0.3-0.2-0.5s0.1-0.3,0.2-0.5c0.1-0.1,0.3-0.2,0.5-0.2h0.8v-4.5
	c-1.6-0.1-2.9-0.5-4.1-1S17,33.4,16,32.5l-3.2,3.2l0.7,0.6c0.1,0.1,0.2,0.3,0.2,0.5s-0.1,0.3-0.2,0.5c-0.1,0.1-0.3,0.2-0.5,0.2
	s-0.3-0.1-0.5-0.2l-2-2c-0.1-0.1-0.2-0.3-0.2-0.5s0.1-0.3,0.2-0.5c0.1-0.1,0.3-0.2,0.5-0.2s0.3,0.1,0.5,0.2L12,35l3.2-3.2
	c-0.9-1.1-1.6-2.2-2.1-3.3c-0.5-1.1-0.7-2.4-0.9-3.9H7.8v0.8c0,0.2-0.1,0.3-0.2,0.5c-0.1,0.1-0.3,0.2-0.5,0.2S6.8,26,6.6,25.9
	c-0.1-0.1-0.2-0.3-0.2-0.5v-3c0-0.2,0.1-0.3,0.2-0.5c0.1-0.1,0.3-0.2,0.5-0.2s0.3,0.1,0.5,0.2c0.1,0.1,0.2,0.3,0.2,0.5v0.8h4.5
	c0.1-1.5,0.4-2.8,0.9-3.9s1.2-2.2,2.1-3.3l-3.2-3l-0.6,0.6c-0.1,0.1-0.3,0.2-0.5,0.2s-0.3-0.1-0.5-0.2c-0.1-0.1-0.2-0.3-0.2-0.5
	s0.1-0.3,0.2-0.5l2.1-2.1c0.1-0.1,0.3-0.2,0.5-0.2s0.3,0.1,0.5,0.2c0.1,0.1,0.2,0.3,0.1,0.4s-0.1,0.3-0.2,0.4L12.9,12l3.2,3.2
	c1.2-0.9,2.2-1.6,3.3-2c1-0.4,2.3-0.8,3.9-0.9V7.8h-0.8c-0.2,0-0.3-0.1-0.5-0.2c-0.1-0.1-0.2-0.3-0.2-0.5s0.1-0.3,0.2-0.5
	c0.1-0.1,0.3-0.2,0.5-0.2h3c0.2,0,0.3,0.1,0.5,0.2c0.1,0.1,0.2,0.3,0.2,0.5S26.1,7.5,26,7.6s-0.3,0.2-0.5,0.2h-0.8v4.5
	c1.6,0.2,2.8,0.5,3.9,0.9c1,0.4,2.1,1.1,3.3,2L35,12l-0.6-0.6c-0.2-0.1-0.2-0.3-0.2-0.4c0-0.2,0.1-0.3,0.2-0.5
	c0.1-0.1,0.3-0.2,0.5-0.2s0.3,0.1,0.5,0.2l2.2,2.2c0.1,0.1,0.2,0.3,0.2,0.5s-0.1,0.3-0.2,0.5c-0.1,0.1-0.3,0.2-0.5,0.2
	s-0.3-0.1-0.5-0.3L36,12.9l-3.2,3.2c0.9,1.1,1.6,2.2,2.1,3.4c0.5,1.1,0.8,2.4,0.9,3.9h4.5v-0.8c0-0.2,0.1-0.3,0.2-0.5
	c0.1-0.1,0.3-0.2,0.5-0.2s0.3,0.1,0.5,0.2c0.1,0.1,0.2,0.3,0.2,0.5v3c0,0.2-0.1,0.3-0.2,0.5c-0.1,0.1-0.3,0.2-0.5,0.2
	s-0.3-0.1-0.5-0.2c-0.1-0.1-0.2-0.3-0.2-0.5v-0.8h-4.5c-0.1,1.5-0.4,2.8-0.9,3.9s-1.2,2.2-2.1,3.3l3.2,3l0.7-0.7
	c0.1-0.1,0.3-0.2,0.4-0.2c0.2,0,0.3,0.1,0.5,0.2c0.1,0.1,0.2,0.3,0.2,0.5s-0.1,0.4-0.2,0.5l-2.1,2.1c-0.1,0.1-0.3,0.2-0.5,0.2
	s-0.3-0.1-0.5-0.2c-0.1-0.1-0.2-0.3-0.2-0.5s0.1-0.3,0.2-0.5L35,36l-3.2-3.2c-1,0.8-2,1.5-3.1,2s-2.5,0.8-4,1v4.5h0.8
	c0.2,0,0.3,0.1,0.5,0.2c0.1,0.1,0.2,0.3,0.2,0.5s-0.1,0.3-0.2,0.5c-0.1,0.1-0.3,0.2-0.5,0.2h-3V41.5z M20.9,30.9
	c0.3,0,0.7-0.1,0.9-0.4c0.3-0.3,0.4-0.6,0.4-0.9s-0.1-0.7-0.4-0.9s-0.6-0.4-0.9-0.4s-0.7,0.1-0.9,0.4c-0.3,0.3-0.4,0.6-0.4,0.9
	s0.1,0.7,0.4,0.9C20.2,30.8,20.5,30.9,20.9,30.9z M27.1,30.9c0.4,0,0.7-0.1,0.9-0.4c0.3-0.3,0.4-0.6,0.4-0.9s-0.1-0.7-0.4-0.9
	s-0.6-0.4-0.9-0.4s-0.7,0.1-0.9,0.4s-0.4,0.6-0.4,0.9s0.1,0.7,0.4,0.9C26.5,30.8,26.8,30.9,27.1,30.9z M17.4,25.3
	c0.4,0,0.7-0.1,0.9-0.4c0.3-0.3,0.4-0.6,0.4-0.9s-0.1-0.7-0.4-0.9c-0.3-0.3-0.6-0.4-0.9-0.4s-0.7,0.1-0.9,0.4
	c-0.3,0.3-0.4,0.6-0.4,0.9s0.1,0.7,0.4,0.9C16.7,25.2,17,25.3,17.4,25.3z M24,25.3c0.3,0,0.7-0.1,0.9-0.4c0.3-0.3,0.4-0.6,0.4-0.9
	s-0.1-0.7-0.4-0.9c-0.3-0.3-0.6-0.4-0.9-0.4s-0.7,0.1-0.9,0.4c-0.3,0.3-0.4,0.6-0.4,0.9s0.1,0.7,0.4,0.9
	C23.3,25.2,23.7,25.3,24,25.3z M30.6,25.3c0.4,0,0.7-0.1,0.9-0.4c0.3-0.3,0.4-0.6,0.4-0.9s-0.1-0.7-0.4-0.9
	c-0.3-0.3-0.6-0.4-0.9-0.4s-0.7,0.1-0.9,0.4c-0.3,0.3-0.4,0.6-0.4,0.9s0.1,0.7,0.4,0.9C30,25.2,30.3,25.3,30.6,25.3z M20.9,19.7
	c0.3,0,0.7-0.1,0.9-0.4s0.4-0.6,0.4-0.9s-0.1-0.7-0.4-0.9c-0.3-0.3-0.6-0.4-0.9-0.4s-0.7,0.1-0.9,0.4c-0.3,0.3-0.4,0.6-0.4,0.9
	s0.1,0.7,0.4,0.9C20.2,19.6,20.5,19.7,20.9,19.7z M27.1,19.7c0.4,0,0.7-0.1,0.9-0.4s0.4-0.6,0.4-0.9s-0.1-0.7-0.4-0.9
	c-0.3-0.3-0.6-0.4-0.9-0.4s-0.7,0.1-0.9,0.4c-0.3,0.3-0.4,0.6-0.4,0.9s0.1,0.7,0.4,0.9S26.8,19.7,27.1,19.7z"/>
</svg>
