<?xml version="1.0" encoding="utf-8"?>
<!-- Generator: Adobe Illustrator 26.3.1, SVG Export Plug-In . SVG Version: 6.00 Build 0)  -->
<svg version="1.1" id="Слой_1" xmlns="http://www.w3.org/2000/svg" xmlns:xlink="http://www.w3.org/1999/xlink" x="0px" y="0px"
	 viewBox="0 0 48 48" style="enable-background:new 0 0 48 48;" xml:space="preserve">
<path d="M10,40V21.1l-4.2,3.2l-0.9-1.2l5.1-3.9v-5h1.5V18L24,8.5l19.1,14.6l-0.9,1.2L38,21.1V40H26.5V28.9h-5.1V40H10z M10,11.5
	c0-1.1,0.4-2.1,1.1-2.9c0.7-0.8,1.8-1.2,3.1-1.2c0.9,0,1.6-0.3,2-0.8s0.6-1.1,0.6-1.8h1.5c0,1.1-0.4,2.1-1.1,2.9S15.4,8.9,14,8.9
	c-0.9,0-1.6,0.3-2,0.8s-0.7,1.1-0.7,1.9C11.5,11.5,10,11.5,10,11.5z"/>
</svg>
