<?xml version="1.0" encoding="utf-8"?>
<!-- Generator: Adobe Illustrator 26.3.1, SVG Export Plug-In . SVG Version: 6.00 Build 0)  -->
<svg version="1.1" id="Слой_1" xmlns="http://www.w3.org/2000/svg" xmlns:xlink="http://www.w3.org/1999/xlink" x="0px" y="0px"
	 viewBox="0 0 48 48" style="enable-background:new 0 0 48 48;" xml:space="preserve">
<path d="M24,42c-2.5,0-4.8-0.5-7-1.4s-4.1-2.2-5.7-3.9c-1.6-1.6-2.9-3.5-3.9-5.7C6.5,28.8,6,26.5,6,24s0.5-4.8,1.4-7
	s2.2-4.1,3.9-5.7c1.6-1.6,3.5-2.9,5.7-3.9C19.2,6.5,21.5,6,24,6s4.8,0.5,7,1.4s4.1,2.2,5.7,3.9c1.6,1.6,2.9,3.5,3.9,5.7
	c0.9,2.2,1.4,4.5,1.4,7s-0.5,4.8-1.4,7s-2.2,4.1-3.9,5.7c-1.6,1.6-3.5,2.9-5.7,3.9C28.8,41.5,26.5,42,24,42z M21.9,33.3h4.2
	c0.7,0,1.4-0.3,1.9-0.8s0.8-1.2,0.8-1.9v-4.1c0-0.6-0.2-1.2-0.5-1.7s-0.7-0.7-1.3-0.7c0.5,0,1-0.2,1.3-0.7s0.5-1,0.5-1.6v-4.2
	c0-0.8-0.3-1.4-0.8-2c-0.5-0.5-1.2-0.8-1.9-0.8h-4.2c-0.8,0-1.4,0.3-2,0.8c-0.5,0.5-0.8,1.2-0.8,2v4.2c0,0.6,0.2,1.2,0.5,1.6
	c0.3,0.5,0.7,0.7,1.3,0.7c-0.6,0-1,0.2-1.3,0.7s-0.5,1.1-0.5,1.7v4.1c0,0.7,0.3,1.4,0.8,1.9C20.5,33,21.1,33.3,21.9,33.3z
	 M21.9,16.2h4.2c0.3,0,0.6,0.1,0.9,0.3c0.2,0.2,0.4,0.5,0.4,0.9V22c0,0.3-0.1,0.6-0.4,0.9c-0.2,0.2-0.5,0.4-0.9,0.4h-4.2
	c-0.4,0-0.7-0.1-0.9-0.4c-0.2-0.2-0.3-0.5-0.3-0.9v-4.5c0-0.4,0.1-0.7,0.3-0.9C21.2,16.3,21.5,16.2,21.9,16.2z M21.9,31.8
	c-0.4,0-0.7-0.1-0.9-0.4c-0.2-0.2-0.3-0.5-0.3-0.9V26c0-0.4,0.1-0.7,0.3-0.9c0.2-0.2,0.5-0.3,0.9-0.3h4.2c0.3,0,0.6,0.1,0.9,0.3
	c0.2,0.2,0.4,0.5,0.4,0.9v4.5c0,0.3-0.1,0.6-0.4,0.9s-0.5,0.4-0.9,0.4C26.1,31.8,21.9,31.8,21.9,31.8z"/>
</svg>
