<?xml version="1.0" encoding="utf-8"?>
<!-- Generator: Adobe Illustrator 26.3.1, SVG Export Plug-In . SVG Version: 6.00 Build 0)  -->
<svg version="1.1" id="Слой_1" xmlns="http://www.w3.org/2000/svg" xmlns:xlink="http://www.w3.org/1999/xlink" x="0px" y="0px"
	 viewBox="0 0 48 48" style="enable-background:new 0 0 48 48;" xml:space="preserve">
<path d="M10,38V22.5H6V21h6.8c-0.8,0-1.4-0.3-2-0.8c-0.5-0.6-0.8-1.2-0.8-2V10h10v8.1c0,0.8-0.3,1.5-0.8,2c-0.6,0.6-1.2,0.8-2,0.8
	H35v-6c0-1-0.3-1.8-1-2.4c-0.6-0.7-1.4-1-2.4-1c-1,0-1.8,0.3-2.4,1s-1,1.5-1,2.4h-1.6c0.1-1.4,0.6-2.6,1.5-3.5
	c0.9-1,2.1-1.4,3.5-1.4s2.5,0.5,3.5,1.4c0.9,1,1.4,2.1,1.4,3.5v6H42v1.5h-4V38H10z M23.2,36.5h1.5v-14h-1.5V36.5z"/>
</svg>
