<?xml version="1.0" encoding="utf-8"?>
<!-- Generator: Adobe Illustrator 26.3.1, SVG Export Plug-In . SVG Version: 6.00 Build 0)  -->
<svg version="1.1" id="Слой_1" xmlns="http://www.w3.org/2000/svg" xmlns:xlink="http://www.w3.org/1999/xlink" x="0px" y="0px"
	 viewBox="0 0 48 48" style="enable-background:new 0 0 48 48;" xml:space="preserve">
<path d="M8.8,38c-0.8,0-1.4-0.3-2-0.8C6.3,36.7,6,36,6,35.2V12.8c0-0.8,0.3-1.4,0.8-2C7.3,10.3,8,10,8.8,10h30.5
	c0.8,0,1.4,0.3,2,0.8c0.5,0.5,0.8,1.2,0.8,2V23c-0.2-0.2-0.5-0.3-0.7-0.4c-0.3-0.1-0.5-0.3-0.8-0.4v-4.4H7.5v4H30
	c-2.5,1.1-4.4,2.7-6,4.9c-1.5,2.2-2.3,4.7-2.3,7.5c0,0.6,0,1.3,0.1,1.9c0.1,0.6,0.2,1.2,0.4,1.8C22.3,38,8.8,38,8.8,38z M35.1,40.2
	l-5.9-5.9c-0.4-0.4-0.6-0.8-0.8-1.2c-0.1-0.4-0.2-0.8-0.2-1.2c0-0.9,0.3-1.7,1-2.4c0.6-0.7,1.5-1.1,2.5-1.1c0.8,0,1.4,0.2,1.9,0.6
	s1,0.9,1.6,1.5c0.6-0.6,1.1-1.1,1.6-1.5s1.1-0.6,1.9-0.6c1.1,0,1.9,0.4,2.5,1.1s0.9,1.5,0.9,2.4c0,0.4-0.1,0.8-0.2,1.3
	c-0.2,0.4-0.4,0.8-0.8,1.2L35.1,40.2z"/>
</svg>
