<?xml version="1.0" encoding="utf-8"?>
<!-- Generator: Adobe Illustrator 26.3.1, SVG Export Plug-In . SVG Version: 6.00 Build 0)  -->
<svg version="1.1" id="Слой_1" xmlns="http://www.w3.org/2000/svg" xmlns:xlink="http://www.w3.org/1999/xlink" x="0px" y="0px"
	 viewBox="0 0 48 48" style="enable-background:new 0 0 48 48;" xml:space="preserve">
<path d="M34.3,42l-0.1-1.5c-0.8-0.2-1.5-0.4-2.2-0.8c-0.7-0.4-1.3-0.9-1.8-1.5L28.9,39L28,37.7l1.2-0.9c-0.3-0.8-0.4-1.6-0.4-2.4
	c0-0.8,0.1-1.6,0.4-2.4L28,30.9l0.9-1.3l1.3,0.7c0.5-0.6,1.1-1.1,1.8-1.4s1.4-0.6,2.2-0.8l0.1-1.5h1.5l0.1,1.5
	c0.8,0.1,1.5,0.4,2.2,0.8s1.3,0.8,1.8,1.4l1.3-0.7l1,1.3L41,31.8c0.3,0.8,0.4,1.6,0.4,2.4s-0.1,1.6-0.4,2.4l1.2,0.9l-1,1.3l-1.3-0.7
	c-0.5,0.6-1.1,1.1-1.8,1.5s-1.4,0.6-2.2,0.8L35.8,42H34.3z M35.1,39.1c1.3,0,2.5-0.5,3.4-1.4s1.4-2.1,1.4-3.4c0-1.3-0.5-2.5-1.4-3.4
	s-2.1-1.4-3.4-1.4c-1.3,0-2.5,0.5-3.4,1.4s-1.4,2.1-1.4,3.4s0.5,2.5,1.4,3.4C32.6,38.7,33.7,39.1,35.1,39.1z M8.8,38
	c-0.8,0-1.4-0.3-2-0.8C6.3,36.7,6,36,6,35.2V12.8c0-0.8,0.3-1.4,0.8-2C7.3,10.3,8,10,8.8,10h30.5c0.8,0,1.4,0.3,2,0.8
	c0.5,0.5,0.8,1.2,0.8,2V23c-0.2-0.2-0.5-0.3-0.7-0.4c-0.3-0.1-0.5-0.3-0.8-0.4v-4.4H7.5v4H30c-2.5,1.1-4.4,2.7-6,4.9
	c-1.5,2.2-2.3,4.7-2.3,7.5c0,0.6,0,1.3,0.1,1.9c0.1,0.6,0.2,1.2,0.4,1.8C22.3,38,8.8,38,8.8,38z"/>
</svg>
