<?xml version="1.0" encoding="utf-8"?>
<!-- Generator: Adobe Illustrator 26.3.1, SVG Export Plug-In . SVG Version: 6.00 Build 0)  -->
<svg version="1.1" id="Слой_1" xmlns="http://www.w3.org/2000/svg" xmlns:xlink="http://www.w3.org/1999/xlink" x="0px" y="0px"
	 viewBox="0 0 48 48" style="enable-background:new 0 0 48 48;" xml:space="preserve">
<path d="M20.1,38H8.8c-0.8,0-1.4-0.3-2-0.8C6.3,36.7,6,36,6,35.2V12.8c0-0.8,0.3-1.4,0.8-2C7.3,10.3,8,10,8.8,10h30.5
	c0.8,0,1.4,0.3,2,0.8c0.5,0.5,0.8,1.2,0.8,2v9.1h-1.8l-11,10.9l-6-6L16.1,34L20.1,38z M29.3,41.1L22.2,34l1.1-1.1l6,6L41,27.2
	l1.1,1.1C42.1,28.3,29.3,41.1,29.3,41.1z M7.5,17.6v4.3h32.9v-4.3C40.4,17.6,7.5,17.6,7.5,17.6z"/>
</svg>
