<?xml version="1.0" encoding="utf-8"?>
<!-- Generator: Adobe Illustrator 26.3.1, SVG Export Plug-In . SVG Version: 6.00 Build 0)  -->
<svg version="1.1" id="Слой_1" xmlns="http://www.w3.org/2000/svg" xmlns:xlink="http://www.w3.org/1999/xlink" x="0px" y="0px"
	 viewBox="0 0 48 48" style="enable-background:new 0 0 48 48;" xml:space="preserve">
<path d="M12.6,29.5h4.8V28h-4.6c-0.2,0-0.3-0.1-0.4-0.2c-0.1-0.1-0.2-0.3-0.2-0.4v-6.6c0-0.2,0.1-0.3,0.2-0.4
	c0.1-0.1,0.3-0.2,0.4-0.2h4.6v-1.5h-4.8c-0.5,0-1,0.2-1.4,0.6s-0.6,0.9-0.6,1.4v6.9c0,0.5,0.2,1,0.6,1.4
	C11.6,29.3,12,29.5,12.6,29.5z M20.2,29.5h5c0.6,0,1-0.2,1.4-0.6s0.6-0.9,0.6-1.4v-2.2c0-0.5-0.2-1-0.6-1.4s-0.9-0.5-1.4-0.5h-2.8
	c-0.2,0-0.3-0.1-0.4-0.2s-0.2-0.3-0.2-0.4v-2c0-0.2,0.1-0.3,0.2-0.4s0.3-0.2,0.4-0.2h4.8v-1.5h-5c-0.5,0-1,0.2-1.4,0.6
	s-0.6,0.9-0.6,1.4v2.2c0,0.6,0.2,1,0.6,1.4s0.9,0.6,1.4,0.6H25c0.2,0,0.3,0.1,0.4,0.2s0.2,0.3,0.2,0.4v1.9c0,0.2-0.1,0.3-0.2,0.4
	S25.1,28,25,28h-4.8C20.2,27.9,20.2,29.5,20.2,29.5z M32.7,29.5H35l3.2-10.9h-1.6l-2.8,9.6l-2.6-9.6h-1.6
	C29.6,18.5,32.7,29.5,32.7,29.5z M8.8,38c-0.8,0-1.4-0.3-2-0.8C6.3,36.7,6,36,6,35.2V12.8c0-0.8,0.3-1.4,0.8-2C7.3,10.3,8,10,8.8,10
	h30.5c0.8,0,1.4,0.3,2,0.8c0.5,0.5,0.8,1.2,0.8,2v22.5c0,0.8-0.3,1.4-0.8,2c-0.5,0.5-1.2,0.8-2,0.8L8.8,38L8.8,38z"/>
</svg>
