<?xml version="1.0" encoding="utf-8"?>
<!-- Generator: Adobe Illustrator 26.3.1, SVG Export Plug-In . SVG Version: 6.00 Build 0)  -->
<svg version="1.1" id="Слой_1" xmlns="http://www.w3.org/2000/svg" xmlns:xlink="http://www.w3.org/1999/xlink" x="0px" y="0px"
	 viewBox="0 0 48 48" style="enable-background:new 0 0 48 48;" xml:space="preserve">
<path d="M27.5,40L15.2,27.3V25H21c2.1,0,4-0.7,5.7-2s2.6-3.3,2.6-5.9H13v-1.5h16.3c-0.4-1.8-1.3-3.2-2.8-4.4
	c-1.5-1.1-3.4-1.7-5.4-1.7h-8V8h22v1.5h-8.4c1.1,0.6,2,1.5,2.8,2.6s1.2,2.3,1.5,3.5h4v1.5h-4.2c0,2.9-1,5.2-3,6.9s-4.3,2.5-6.9,2.5
	h-4.3l13,13.5H27.5z"/>
</svg>
