<?xml version="1.0" encoding="utf-8"?>
<!-- Generator: Adobe Illustrator 26.3.1, SVG Export Plug-In . SVG Version: 6.00 Build 0)  -->
<svg version="1.1" id="Слой_1" xmlns="http://www.w3.org/2000/svg" xmlns:xlink="http://www.w3.org/1999/xlink" x="0px" y="0px"
	 viewBox="0 0 48 48" style="enable-background:new 0 0 48 48;" xml:space="preserve">
<path d="M13.1,40v-2c1-0.7,1.9-1.4,2.6-2.1c0.7-0.7,1.2-1.4,1.7-2.1c0.4-0.7,0.7-1.4,0.9-2.1c0.2-0.7,0.3-1.4,0.3-2.1
	c0-0.5,0-1-0.1-1.5s-0.2-0.9-0.3-1.4h-5.1v-1.5h4c-1.3-1.5-2.3-3-2.9-4.3c-0.6-1.4-0.9-2.7-0.9-4.1c0-2.7,0.9-5,2.8-6.9
	c2-2,4.3-2.9,7-2.9c1.9,0,3.6,0.5,5.1,1.4s2.7,2.1,3.5,3.6l-1.4,0.6c-0.7-1.3-1.7-2.3-3-3S24.6,8.5,23,8.5c-2.3,0-4.2,0.8-5.8,2.4
	c-1.6,1.6-2.4,3.5-2.4,5.8c0,1.3,0.3,2.6,1,3.9c0.6,1.3,1.8,2.8,3.4,4.5h7.9v1.5h-7.4c0.1,0.5,0.2,0.9,0.3,1.4c0,0.5,0.1,1,0.1,1.5
	c0,1.7-0.5,3.3-1.4,4.9c-0.9,1.5-2.1,2.9-3.6,4h13c1.3,0,2.5-0.3,3.4-0.9c0.9-0.6,1.6-1.5,2.1-2.7l1.3,0.6c-0.5,1.4-1.4,2.5-2.7,3.3
	C31,39.6,29.6,40,28.1,40H13.1z"/>
</svg>
