<?xml version="1.0" encoding="utf-8"?>
<!-- Generator: Adobe Illustrator 26.3.1, SVG Export Plug-In . SVG Version: 6.00 Build 0)  -->
<svg version="1.1" id="Слой_1" xmlns="http://www.w3.org/2000/svg" xmlns:xlink="http://www.w3.org/1999/xlink" x="0px" y="0px"
	 viewBox="0 0 48 48" style="enable-background:new 0 0 48 48;" xml:space="preserve">
<path d="M15.2,40v-5.8H11v-1.5h4.2v-6.2H11V25h4.2V8h12.5c2.5,0,4.7,0.9,6.5,2.7s2.7,4,2.7,6.5s-0.9,4.7-2.7,6.5s-4,2.7-6.5,2.7h-11
	v6.2H25v1.5h-8.2V40H15.2z M16.8,24.9h11c2.2,0,4-0.7,5.5-2.2s2.2-3.3,2.2-5.5s-0.7-4-2.2-5.5S30,9.5,27.8,9.5h-11
	C16.8,9.5,16.8,24.9,16.8,24.9z"/>
</svg>
