<?xml version="1.0" encoding="utf-8"?>
<!-- Generator: Adobe Illustrator 26.3.1, SVG Export Plug-In . SVG Version: 6.00 Build 0)  -->
<svg version="1.1" id="Слой_1" xmlns="http://www.w3.org/2000/svg" xmlns:xlink="http://www.w3.org/1999/xlink" x="0px" y="0px"
	 viewBox="0 0 48 48" style="enable-background:new 0 0 48 48;" xml:space="preserve">
<path d="M24,44c-4.1,0-7.8-1.2-11.2-3.6C9.5,38,7,35,5.3,31.3v7.3H3.8v-10h10v1.5H6.5c1.3,3.5,3.7,6.4,6.9,8.8
	c3.3,2.3,6.8,3.5,10.5,3.5c2.4,0,4.8-0.4,6.9-1.3c2.2-0.9,4.1-2.1,5.7-3.7c1.7-1.6,3-3.4,4-5.6c1-2.1,1.6-4.4,1.8-6.9H44
	c-0.1,2.6-0.7,5.1-1.8,7.4s-2.5,4.3-4.3,6s-3.9,3.1-6.2,4.1C29.2,43.5,26.7,44,24,44z M23.1,37.4v-2.5c-1.3-0.3-2.5-0.8-3.4-1.6
	c-1-0.7-1.8-1.7-2.5-3.1l1.4-0.6c0.6,1.2,1.3,2.2,2.3,2.8c1,0.7,2.1,1,3.3,1c1.3,0,2.5-0.3,3.6-1s1.6-1.7,1.6-3.1
	c0-1.2-0.4-2.1-1.1-2.8c-0.7-0.7-2.2-1.5-4.4-2.4c-2.2-0.8-3.7-1.7-4.7-2.5c-0.9-0.9-1.4-2-1.4-3.5c0-1.3,0.5-2.4,1.4-3.4
	s2.3-1.6,4-1.8v-2.4h1.6V13c1.1,0.1,2,0.4,2.9,1s1.6,1.3,2.2,2.3l-1.4,0.6c-0.5-0.8-1.2-1.4-1.9-1.8c-0.7-0.4-1.6-0.7-2.6-0.7
	c-1.4,0-2.5,0.4-3.4,1.1s-1.3,1.6-1.3,2.7s0.3,2,1,2.6s2.1,1.3,4.3,2.1c2.4,0.9,4,1.8,4.9,2.8c0.9,0.9,1.4,2.2,1.4,3.7
	c0,0.9-0.2,1.7-0.5,2.4S29.6,33,29,33.5s-1.2,0.8-2,1.1c-0.7,0.3-1.5,0.4-2.3,0.4v2.4C24.8,37.4,23.1,37.4,23.1,37.4z M4,23
	c0.2-2.8,0.8-5.3,2-7.6c1.1-2.3,2.6-4.3,4.4-6s3.9-3,6.2-3.9C18.9,4.5,21.4,4,24,4c4,0,7.7,1.2,11.2,3.6s5.9,5.5,7.5,9.2V9.4h1.5v10
	h-10v-1.5h7.3c-1.3-3.4-3.5-6.3-6.8-8.7S27.8,5.5,24,5.5c-2.3,0-4.6,0.4-6.8,1.3s-4.1,2.1-5.7,3.6c-1.7,1.5-3,3.4-4.1,5.5
	S5.7,20.4,5.6,23C5.6,23,4,23,4,23z"/>
</svg>
