<?xml version="1.0" encoding="utf-8"?>
<!-- Generator: Adobe Illustrator 26.3.1, SVG Export Plug-In . SVG Version: 6.00 Build 0)  -->
<svg version="1.1" id="Слой_1" xmlns="http://www.w3.org/2000/svg" xmlns:xlink="http://www.w3.org/1999/xlink" x="0px" y="0px"
	 viewBox="0 0 48 48" style="enable-background:new 0 0 48 48;" xml:space="preserve">
<path d="M27.3,34.6h2.3v-0.1L22,26.1V26h0.4c1.9,0,3.6-0.5,4.8-1.4c1.3-0.9,2-2.3,2.1-4.1h1.9v-1.6h-2c-0.1-0.7-0.3-1.3-0.6-1.9
	c-0.3-0.6-0.7-1.1-1.2-1.5h3.8v-1.6H16.7v1.5h5.8c1.4,0,2.6,0.3,3.5,0.9c0.9,0.6,1.4,1.5,1.7,2.6h-11v1.6h11
	c-0.1,1.3-0.7,2.2-1.6,2.9c-0.9,0.7-2.1,1-3.6,1h-3v1.7L27.3,34.6z M24,42c-2.5,0-4.8-0.5-7-1.4s-4.1-2.2-5.7-3.9
	c-1.6-1.6-2.9-3.5-3.9-5.7C6.5,28.8,6,26.5,6,24s0.5-4.8,1.4-7s2.2-4.1,3.9-5.7c1.6-1.6,3.5-2.9,5.7-3.8c2.2-1,4.5-1.5,7-1.5
	s4.8,0.5,7,1.4s4.1,2.2,5.7,3.8c1.6,1.6,2.9,3.5,3.8,5.7c0.9,2.2,1.4,4.5,1.4,7s-0.5,4.8-1.4,7s-2.2,4.1-3.8,5.7s-3.5,2.9-5.7,3.9
	S26.5,42,24,42z"/>
</svg>
