<?xml version="1.0" encoding="utf-8"?>
<!-- Generator: Adobe Illustrator 26.3.1, SVG Export Plug-In . SVG Version: 6.00 Build 0)  -->
<svg version="1.1" id="Слой_1" xmlns="http://www.w3.org/2000/svg" xmlns:xlink="http://www.w3.org/1999/xlink" x="0px" y="0px"
	 viewBox="0 0 48 48" style="enable-background:new 0 0 48 48;" xml:space="preserve">
<path d="M19.8,40v-4.2h-6.2v-1.5h4.2V13.8h-4.2v-1.5h6.2V8h1.5v4.2h5.1V8H28v4.2c1.8,0.1,3.2,0.7,4.4,1.9c1.1,1.2,1.6,2.6,1.6,4.4
	c0,1.1-0.2,2-0.6,2.9c-0.4,0.9-1,1.6-1.7,2.1c1.4,0.4,2.4,1.2,3.2,2.2c0.7,1.1,1.1,2.3,1.1,3.7c0,1.8-0.6,3.3-1.8,4.5
	s-2.7,1.8-4.5,1.8H28V40h-1.5v-4.2h-5.1V40H19.8z M19.4,23.2h8.3c1.4,0,2.5-0.4,3.4-1.3s1.3-2,1.3-3.4S32,16,31.1,15.1
	c-0.9-0.9-2-1.3-3.4-1.3h-8.3C19.4,13.8,19.4,23.2,19.4,23.2z M19.4,34.2h10.3c1.4,0,2.5-0.4,3.4-1.3c0.9-0.9,1.3-2,1.3-3.4
	S34,27,33.1,26.1c-0.9-0.9-2-1.3-3.4-1.3H19.4V34.2z"/>
</svg>
