<?xml version="1.0" encoding="utf-8"?>
<!-- Generator: Adobe Illustrator 26.3.1, SVG Export Plug-In . SVG Version: 6.00 Build 0)  -->
<svg version="1.1" id="Слой_1" xmlns="http://www.w3.org/2000/svg" xmlns:xlink="http://www.w3.org/1999/xlink" x="0px" y="0px"
	 viewBox="0 0 48 48" style="enable-background:new 0 0 48 48;" xml:space="preserve">
<path d="M6,40v-1.5h4V8h28v30.5h4V40H6z M12.2,24c3.1,0.9,5.4,2.8,7.1,5.6c1.7,2.9,2.6,5.8,2.9,8.8h3.6c0.3-3,1.2-5.9,2.9-8.8
	c1.7-2.9,4-4.8,7.1-5.6c-3.1-0.9-5.5-2.8-7.1-5.6c-1.7-2.9-2.6-5.8-2.9-8.8h-3.5c-0.3,3-1.2,5.9-2.9,8.8
	C17.6,21.2,15.3,23.1,12.2,24z"/>
</svg>
