<?xml version="1.0" encoding="utf-8"?>
<!-- Generator: Adobe Illustrator 26.3.1, SVG Export Plug-In . SVG Version: 6.00 Build 0)  -->
<svg version="1.1" id="Слой_1" xmlns="http://www.w3.org/2000/svg" xmlns:xlink="http://www.w3.org/1999/xlink" x="0px" y="0px"
	 viewBox="0 0 48 48" style="enable-background:new 0 0 48 48;" xml:space="preserve">
<path d="M39.3,41.2L24.2,26.1l-6.8,6.8c0.3,0.5,0.6,1.1,0.7,1.6s0.2,1.1,0.2,1.8c0,1.8-0.6,3.3-1.8,4.5s-2.7,1.8-4.5,1.8
	S8.6,42,7.4,40.8s-1.8-2.7-1.8-4.5s0.6-3.3,1.8-4.5s2.7-1.8,4.5-1.8c0.6,0,1.2,0.1,1.8,0.2c0.6,0.2,1.1,0.4,1.7,0.8l6.7-6.8
	l-6.8-6.8c-0.5,0.3-1.1,0.5-1.6,0.6s-1.1,0.2-1.8,0.2c-1.8,0-3.3-0.6-4.5-1.8s-1.8-2.7-1.8-4.5s0.6-3.3,1.8-4.5s2.7-1.8,4.5-1.8
	s3.3,0.6,4.5,1.8s1.8,2.7,1.8,4.5c0,0.6-0.1,1.2-0.2,1.8s-0.3,1.1-0.7,1.6l25,25v1.1C42.5,41.2,39.3,41.2,39.3,41.2z M29.2,21.2
	l-2.1-2.1L39.3,6.9h3.2V8L29.2,21.2z M11.9,16.6c1.3,0,2.5-0.5,3.4-1.4s1.4-2.1,1.4-3.4s-0.5-2.5-1.4-3.4S13.2,7,11.9,7
	S9.4,7.5,8.5,8.4s-1.4,2.1-1.4,3.4s0.5,2.5,1.4,3.4S10.6,16.6,11.9,16.6z M24.2,24.1L24.2,24.1L24.2,24.1L24.2,24.1L24.2,24.1
	L24.2,24.1L24.2,24.1L24.2,24.1L24.2,24.1z M11.9,41.1c1.3,0,2.5-0.5,3.4-1.4s1.4-2.1,1.4-3.4c0-1.3-0.5-2.5-1.4-3.4
	c-0.9-0.9-2.1-1.4-3.4-1.4S9.4,32,8.5,32.9c-0.9,0.9-1.4,2.1-1.4,3.4c0,1.3,0.5,2.5,1.4,3.4S10.6,41.1,11.9,41.1z"/>
</svg>
