<?xml version="1.0" encoding="utf-8"?>
<!-- Generator: Adobe Illustrator 26.3.1, SVG Export Plug-In . SVG Version: 6.00 Build 0)  -->
<svg version="1.1" id="Слой_1" xmlns="http://www.w3.org/2000/svg" xmlns:xlink="http://www.w3.org/1999/xlink" x="0px" y="0px"
	 viewBox="0 0 48 48" style="enable-background:new 0 0 48 48;" xml:space="preserve">
<path d="M19.3,41.3c-3.8-1-7-3.1-9.5-6.3S6,28.1,6,24c0-1.2,0.1-2.3,0.3-3.4c0.2-1.1,0.5-2.2,1-3.3L2.6,20l-0.7-1.3l7.4-4.3l4.3,7.4
	l-1.3,0.8l-3.1-5.3c-0.5,1.1-0.9,2.2-1.1,3.3c-0.2,1.1-0.4,2.3-0.4,3.5c0,3.9,1.2,7.3,3.6,10.2s5.4,4.9,9,5.8L19.3,41.3z M30.9,15.5
	V14H37c-1.5-2-3.5-3.6-5.7-4.7C29,8.1,26.6,7.6,24,7.6c-2.3,0-4.5,0.4-6.5,1.3s-3.7,2.1-5.3,3.6L11.4,11c1.6-1.6,3.5-2.8,5.7-3.7
	C19.2,6.5,21.5,6,24,6c2.7,0,5.3,0.6,7.7,1.7s4.5,2.8,6.2,4.9V7h1.5v8.5H30.9z M30.7,45.8l-7.3-4.3l4.3-7.3L29,35l-3.1,5.4
	c4.2-0.5,7.6-2.2,10.4-5.3s4.2-6.7,4.2-11c0-0.9-0.1-1.7-0.2-2.5c-0.1-0.8-0.3-1.6-0.5-2.4h1.6c0.2,0.8,0.4,1.6,0.5,2.4
	s0.2,1.7,0.2,2.5c0,4.5-1.4,8.4-4.3,11.7c-2.9,3.3-6.5,5.3-10.9,6l4.7,2.7C31.5,44.5,30.7,45.8,30.7,45.8z"/>
</svg>
