<?xml version="1.0" encoding="utf-8"?>
<!-- Generator: Adobe Illustrator 26.3.1, SVG Export Plug-In . SVG Version: 6.00 Build 0)  -->
<svg version="1.1" id="Слой_1" xmlns="http://www.w3.org/2000/svg" xmlns:xlink="http://www.w3.org/1999/xlink" x="0px" y="0px"
	 viewBox="0 0 48 48" style="enable-background:new 0 0 48 48;" xml:space="preserve">
<path d="M24.1,40c-4.4,0-8.2-1.6-11.3-4.7C9.7,32.2,8.1,28.4,8.1,24c0-4.1,1.3-7.6,4-10.5s5.9-4.7,9.8-5.3c0,0,0,0,0.1,0
	c0,0,0.1,0,0.2,0c-0.6,1-1.1,2.1-1.4,3.2c-0.3,1.2-0.5,2.4-0.5,3.6c0,3.6,1.2,6.6,3.7,9.1s5.5,3.7,9.1,3.7c1.2,0,2.4-0.1,3.6-0.4
	c1.2-0.3,2.2-0.7,3.2-1.3c0,0.1,0,0.1,0,0.1l0,0c-0.5,3.9-2.3,7.2-5.2,9.8C31.7,38.7,28.2,40,24.1,40z"/>
</svg>
