<?xml version="1.0" encoding="utf-8"?>
<!-- Generator: Adobe Illustrator 26.3.1, SVG Export Plug-In . SVG Version: 6.00 Build 0)  -->
<svg version="1.1" id="Слой_1" xmlns="http://www.w3.org/2000/svg" xmlns:xlink="http://www.w3.org/1999/xlink" x="0px" y="0px"
	 viewBox="0 0 48 48" style="enable-background:new 0 0 48 48;" xml:space="preserve">
<path d="M24,42c-2.5,0-4.8-0.5-7-1.4s-4.1-2.2-5.7-3.9c-1.6-1.6-2.9-3.5-3.9-5.7C6.5,28.8,6,26.5,6,24c0-4.6,1.5-8.6,4.5-12
	s6.9-5.4,11.7-5.9v2.1C18,8.7,14.6,10.5,12,13.5S8.1,20,8.1,24c0,4.4,1.6,8.2,4.7,11.3S19.7,40,24.1,40c2.6,0,5.1-0.6,7.4-1.8
	s4.2-2.8,5.6-4.7l1.7,1.1c-1.8,2.4-4,4.2-6.5,5.5C29.7,41.4,26.9,42,24,42z M23.2,30.8v-6.1h-6v-1.5h6v-6h1.5v6h6v1.5h-6v6.1
	C24.8,30.8,23.2,30.8,23.2,30.8z M40.4,31.3l-1.7-1c0.4-0.9,0.7-1.9,0.9-3s0.3-2.2,0.3-3.4c0-4-1.3-7.6-4-10.6s-6.1-4.8-10.1-5.2v-2
	c4.6,0.4,8.4,2.3,11.5,5.7c3.1,3.4,4.7,7.5,4.7,12.1c0,1.3-0.1,2.6-0.4,3.8C41.3,29,41,30.2,40.4,31.3z"/>
</svg>
