<?xml version="1.0" encoding="utf-8"?>
<!-- Generator: Adobe Illustrator 26.3.1, SVG Export Plug-In . SVG Version: 6.00 Build 0)  -->
<svg version="1.1" id="Слой_1" xmlns="http://www.w3.org/2000/svg" xmlns:xlink="http://www.w3.org/1999/xlink" x="0px" y="0px"
	 viewBox="0 0 48 48" style="enable-background:new 0 0 48 48;" xml:space="preserve">
<path d="M24.8,40c-1.4,0-3-0.1-4.7-0.3s-3.4-0.5-5-1s-3.1-1.1-4.4-1.8S8.5,35.3,8,34.2v-5.9c0.5,0.8,1.2,1.6,2.2,2.3
	c1,0.7,2.1,1.3,3.5,1.8c1.3,0.5,2.7,0.9,4.3,1.2c1.5,0.3,3.1,0.5,4.7,0.5c0.1,1.1,0.3,2.1,0.7,3.1C23.6,38.2,24.1,39.1,24.8,40z
	 M22.7,31c-1.5-0.1-3-0.2-4.5-0.5s-3-0.6-4.3-1.1s-2.5-1-3.6-1.7c-1-0.7-1.8-1.5-2.3-2.4v-5.9c0.5,0.9,1.3,1.8,2.5,2.5
	c1.1,0.7,2.5,1.3,4,1.9c1.5,0.5,3.2,0.9,4.9,1.1c1.8,0.2,3.5,0.4,5.2,0.3c0.3,0,0.6,0,0.8,0c0.3,0,0.5,0,0.8,0
	c-0.9,0.8-1.6,1.6-2.2,2.6C23.4,28.7,23,29.8,22.7,31z M24,22c-4.5,0-8.3-0.7-11.4-2c-3.1-1.4-4.7-3-4.7-5s1.6-3.6,4.7-5
	S19.5,8,24,8s8.3,0.7,11.4,2s4.6,3,4.6,5c0,1.9-1.6,3.6-4.7,5C32.2,21.3,28.5,22,24,22z M42.9,44l-5.3-5.3c-0.6,0.5-1.3,0.8-2,1
	S34.2,40,33.4,40c-1.8,0-3.4-0.6-4.7-1.9c-1.3-1.3-1.9-2.9-1.9-4.7s0.6-3.4,1.9-4.7c1.3-1.3,2.9-1.9,4.7-1.9c1.8,0,3.4,0.6,4.7,1.9
	s1.9,2.9,1.9,4.7c0,0.7-0.1,1.5-0.3,2.2s-0.6,1.4-1.1,2l5.4,5.3L42.9,44z M33.4,38.5c1.4,0,2.6-0.5,3.6-1.5s1.5-2.2,1.5-3.6
	c0-1.4-0.5-2.6-1.5-3.6s-2.2-1.5-3.6-1.5c-1.4,0-2.6,0.5-3.6,1.5s-1.5,2.2-1.5,3.6s0.5,2.6,1.5,3.6C30.8,38,32,38.5,33.4,38.5z"/>
</svg>
