<?xml version="1.0" encoding="utf-8"?>
<!-- Generator: Adobe Illustrator 26.3.1, SVG Export Plug-In . SVG Version: 6.00 Build 0)  -->
<svg version="1.1" id="Слой_1" xmlns="http://www.w3.org/2000/svg" xmlns:xlink="http://www.w3.org/1999/xlink" x="0px" y="0px"
	 viewBox="0 0 48 48" style="enable-background:new 0 0 48 48;" xml:space="preserve">
<path d="M10.8,40c-0.8,0-1.4-0.3-2-0.8C8.3,38.6,8,38,8,37.2V10.8c0-0.8,0.3-1.4,0.8-2C9.4,8.3,10,8,10.8,8h26.5
	c0.8,0,1.4,0.3,2,0.8c0.5,0.5,0.8,1.2,0.8,2v26.5c0,0.8-0.3,1.4-0.8,2c-0.5,0.5-1.2,0.8-2,0.8L10.8,40L10.8,40z M31.1,38.5h2.2
	l5.2-5.2v-0.8h-1.4L31.1,38.5z M14.7,26.7l6.5-6.5l4.2,4.2l8.8-8.9l-1-1.1l-7.8,7.8L21.2,18l-7.6,7.6C13.7,25.7,14.7,26.7,14.7,26.7
	z M10.3,38.5h0.4l6-6h-2.2l-5,5c0.1,0.2,0.2,0.4,0.2,0.6C9.9,38.1,10,38.3,10.3,38.5z M25.7,38.5l6-6h-2.2l-6,6
	C23.6,38.5,25.7,38.5,25.7,38.5z M18.1,38.5l6-6H22l-6,6H18.1z"/>
</svg>
