<?xml version="1.0" encoding="utf-8"?>
<!-- Generator: Adobe Illustrator 26.3.1, SVG Export Plug-In . SVG Version: 6.00 Build 0)  -->
<svg version="1.1" id="Слой_1" xmlns="http://www.w3.org/2000/svg" xmlns:xlink="http://www.w3.org/1999/xlink" x="0px" y="0px"
	 viewBox="0 0 48 48" style="enable-background:new 0 0 48 48;" xml:space="preserve">
<path d="M38.9,40.2c0.4,0,0.7-0.1,0.9-0.4c0.2-0.3,0.4-0.6,0.4-0.9c0-0.4-0.1-0.7-0.4-0.9c-0.3-0.3-0.6-0.4-0.9-0.4
	c-0.3,0-0.7,0.1-0.9,0.4c-0.3,0.3-0.4,0.6-0.4,0.9c0,0.3,0.1,0.7,0.4,0.9C38.3,40.1,38.6,40.2,38.9,40.2z M23.9,42
	c-3.3,0-6.4-0.8-9.1-2.5s-5-3.9-6.6-6.8l8-8l6.6,5.6l10.5-10.4v4.8h1.5v-7.5h-7.5v1.5h4.9l-9.4,9.4l-6.6-5.6l-8.6,8.6
	c-0.5-1.1-0.9-2.3-1.1-3.5C6.1,26.4,6,25.2,6,24.1c0-2.5,0.5-4.8,1.4-7s2.2-4.1,3.8-5.8c1.6-1.6,3.5-2.9,5.7-3.9
	C19.2,6.5,21.5,6,24,6s4.8,0.5,7,1.4s4.1,2.2,5.7,3.9c1.6,1.6,2.9,3.6,3.8,5.8c0.9,2.2,1.4,4.5,1.4,7v14.6c0,0.9-0.3,1.7-1,2.3
	c-0.6,0.6-1.4,1-2.3,1C38.7,42,23.9,42,23.9,42z"/>
</svg>
