<?xml version="1.0" encoding="utf-8"?>
<!-- Generator: Adobe Illustrator 26.3.1, SVG Export Plug-In . SVG Version: 6.00 Build 0)  -->
<svg version="1.1" id="Слой_1" xmlns="http://www.w3.org/2000/svg" xmlns:xlink="http://www.w3.org/1999/xlink" x="0px" y="0px"
	 viewBox="0 0 48 48" style="enable-background:new 0 0 48 48;" xml:space="preserve">
<path d="M15.2,32.8h5.5v-5.5h-5.5C15.2,27.3,15.2,32.8,15.2,32.8z M27.2,32.8h5.5v-5.5h-5.5V32.8z M15.2,20.8h5.5v-5.5h-5.5
	C15.2,15.3,15.2,20.8,15.2,20.8z M27.2,20.8h5.5v-5.5h-5.5V20.8z M10.8,40c-0.8,0-1.4-0.3-2-0.8C8.3,38.7,8,38,8,37.2V10.8
	c0-0.8,0.3-1.4,0.8-2C9.3,8.3,10,8,10.8,8h26.5c0.8,0,1.4,0.3,2,0.8c0.5,0.5,0.8,1.2,0.8,2v26.5c0,0.8-0.3,1.4-0.8,2
	c-0.5,0.5-1.2,0.8-2,0.8L10.8,40L10.8,40z"/>
</svg>
