<?xml version="1.0" encoding="utf-8"?>
<!-- Generator: Adobe Illustrator 26.3.1, SVG Export Plug-In . SVG Version: 6.00 Build 0)  -->
<svg version="1.1" id="Слой_1" xmlns="http://www.w3.org/2000/svg" xmlns:xlink="http://www.w3.org/1999/xlink" x="0px" y="0px"
	 viewBox="0 0 48 48" style="enable-background:new 0 0 48 48;" xml:space="preserve">
<path d="M8,18.1h32v-7.4c0-0.3-0.1-0.6-0.4-0.8c-0.3-0.3-0.5-0.4-0.8-0.4H9.2c-0.3,0-0.6,0.1-0.8,0.4C8.1,10.2,8,10.5,8,10.8V18.1z
	 M8,28.3h32v-8.6H8V28.3z M9.2,38.5h29.5c0.3,0,0.6-0.1,0.8-0.4c0.3-0.3,0.4-0.5,0.4-0.8v-7.4H8v7.4c0,0.3,0.1,0.6,0.4,0.8
	S8.9,38.5,9.2,38.5z M12.1,15.2v-2.8h2.8v2.8C14.8,15.2,12.1,15.2,12.1,15.2z M12.1,25.4v-2.8h2.8v2.8
	C14.8,25.4,12.1,25.4,12.1,25.4z M12.1,35.5v-2.8h2.8v2.8C14.8,35.5,12.1,35.5,12.1,35.5z"/>
</svg>
