<?xml version="1.0" encoding="utf-8"?>
<!-- Generator: Adobe Illustrator 26.3.1, SVG Export Plug-In . SVG Version: 6.00 Build 0)  -->
<svg version="1.1" id="Слой_1" xmlns="http://www.w3.org/2000/svg" xmlns:xlink="http://www.w3.org/1999/xlink" x="0px" y="0px"
	 viewBox="0 0 48 48" style="enable-background:new 0 0 48 48;" xml:space="preserve">
<path d="M23.8,34.1c-0.1,1-0.1,2,0,3s0.4,2,0.8,2.9c-1.5,0-3.1-0.1-4.8-0.3c-1.7-0.2-3.4-0.5-5-1s-3-1.1-4.3-1.8s-2.1-1.6-2.6-2.7
	v-5.9c0.5,0.9,1.3,1.7,2.4,2.4c1.1,0.7,2.4,1.3,3.8,1.8s3,0.9,4.7,1.1C20.5,34,22.2,34.1,23.8,34.1z M30.3,24.6
	c-1.3,0.7-2.4,1.6-3.4,2.7s-1.7,2.3-2.3,3.7c-1.4,0-3-0.1-4.7-0.3c-1.7-0.2-3.4-0.6-5-1c-1.6-0.5-3-1.1-4.3-1.8S8.5,26.3,8,25.3
	v-5.9c0.5,0.9,1.3,1.7,2.4,2.4c1.1,0.7,2.3,1.3,3.8,1.8s3,0.9,4.7,1.1c1.7,0.3,3.4,0.4,5.2,0.4c1.1,0,2.1,0,3.2-0.1
	C28.2,24.9,29.3,24.8,30.3,24.6z M24,22c-4.6,0-8.5-0.7-11.5-2.1s-4.6-3-4.6-4.9s1.5-3.5,4.6-4.9C15.5,8.7,19.4,8,24,8
	s8.4,0.7,11.5,2.1c3,1.4,4.5,3,4.5,4.9s-1.5,3.5-4.5,4.9C32.4,21.3,28.6,22,24,22z M35.2,40.9h1.3v-8.4l3.7,3.7l0.9-0.9L35.8,30
	l-5.3,5.3l0.9,0.9l3.7-3.7v8.4H35.2z M35.8,43.2c-2.1,0-4-0.8-5.5-2.3S28,37.6,28,35.4c0-2.1,0.8-4,2.3-5.5s3.4-2.3,5.5-2.3
	s4,0.8,5.5,2.3s2.3,3.4,2.3,5.5c0,2.2-0.8,4-2.3,5.5C39.8,42.5,38,43.2,35.8,43.2z"/>
</svg>
