<?xml version="1.0" encoding="utf-8"?>
<!-- Generator: Adobe Illustrator 26.3.1, SVG Export Plug-In . SVG Version: 6.00 Build 0)  -->
<svg version="1.1" id="Слой_1" xmlns="http://www.w3.org/2000/svg" xmlns:xlink="http://www.w3.org/1999/xlink" x="0px" y="0px"
	 viewBox="0 0 48 48" style="enable-background:new 0 0 48 48;" xml:space="preserve">
<path d="M24,40c-1.7,0-3.5-0.1-5.2-0.4c-1.7-0.3-3.3-0.6-4.7-1.1s-2.7-1.1-3.8-1.8s-1.9-1.5-2.4-2.4v-5.9c0.5,0.9,1.3,1.7,2.4,2.4
	c1.1,0.7,2.3,1.3,3.8,1.8c1.4,0.5,3,0.9,4.7,1.1c1.7,0.3,3.4,0.4,5.2,0.4c1.5,0,3.1-0.1,4.6-0.3s2.9-0.5,4.3-0.9l4.2,4.2
	c-1.6,0.9-3.6,1.7-5.9,2.2S26.5,40,24,40z M39.7,34.8l-3.3-3.3c0.8-0.4,1.6-0.9,2.2-1.4c0.6-0.5,1.1-1.1,1.4-1.7v4.8
	c0,0.3,0,0.6-0.1,0.8C39.9,34.3,39.8,34.5,39.7,34.8z M24,31c-1.7,0-3.5-0.1-5.2-0.4s-3.3-0.6-4.7-1.1s-2.7-1.1-3.8-1.8
	c-1-0.7-1.8-1.5-2.3-2.4v-5.9c0.5,0.9,1.3,1.7,2.4,2.4c1.1,0.7,2.3,1.3,3.8,1.8s3,0.9,4.7,1.1c1.7,0.3,3.4,0.4,5.2,0.4
	c0.2,0,0.4,0,0.5,0c0.2,0,0.3,0,0.5,0l5.4,5.4c-1,0.2-2,0.3-3.1,0.4C26.2,31,25.1,31,24,31z M34.3,29.3l-4.6-4.6
	c2.4-0.4,4.5-1,6.5-2c1.9-0.9,3.2-2,4-3.4v5.9c-0.4,0.9-1.2,1.6-2.2,2.3C36.8,28.3,35.6,28.8,34.3,29.3z M21.9,22
	c-4.1-0.2-7.4-1-10-2.4C9.3,18.3,8,16.8,8,15c0-0.7,0.2-1.4,0.7-2.1c0.5-0.7,1.2-1.3,2.2-1.9L21.9,22z M26.9,21.9L14.4,9.5
	c1.3-0.4,2.8-0.8,4.4-1C20.4,8.2,22.2,8,24,8c4.6,0,8.4,0.7,11.5,2.1c3,1.4,4.5,3,4.5,4.9c0,1.7-1.2,3.2-3.6,4.5
	C34,20.8,30.8,21.6,26.9,21.9z M39.3,41.5L6.7,9l1.1-1.1l32.5,32.5L39.3,41.5z"/>
</svg>
