<?xml version="1.0" encoding="utf-8"?>
<!-- Generator: Adobe Illustrator 26.3.1, SVG Export Plug-In . SVG Version: 6.00 Build 0)  -->
<svg version="1.1" id="Слой_1" xmlns="http://www.w3.org/2000/svg" xmlns:xlink="http://www.w3.org/1999/xlink" x="0px" y="0px"
	 viewBox="0 0 48 48" style="enable-background:new 0 0 48 48;" xml:space="preserve">
<path d="M24,22c4.6,0,8.4-0.7,11.5-2.1c3-1.4,4.5-3,4.5-4.9s-1.5-3.5-4.5-4.9S28.7,8,24,8s-8.5,0.7-11.5,2.1s-4.6,3-4.6,4.9
	s1.5,3.5,4.6,4.9S19.4,22,24,22z M24,25.1c1.7,0,3.5-0.1,5.2-0.4s3.3-0.6,4.7-1.1c1.5-0.5,2.7-1.1,3.8-1.8c1.1-0.7,1.9-1.5,2.4-2.4
	v5.9c-0.5,0.9-1.3,1.7-2.4,2.4c-1.1,0.7-2.3,1.3-3.8,1.8s-3,0.9-4.7,1.1C27.5,30.9,25.7,31,24,31s-3.5-0.1-5.2-0.4s-3.3-0.6-4.7-1.1
	s-2.7-1.1-3.8-1.8c-1-0.7-1.8-1.5-2.3-2.4v-5.9c0.5,0.9,1.3,1.7,2.4,2.4c1.1,0.7,2.3,1.3,3.8,1.8s3,0.9,4.7,1.1
	C20.5,25,22.3,25.1,24,25.1z M24,34.1c1.7,0,3.5-0.1,5.2-0.4c1.7-0.3,3.3-0.6,4.7-1.1c1.5-0.5,2.7-1.1,3.8-1.8
	c1.1-0.7,1.9-1.5,2.4-2.4v5.9c-0.5,0.9-1.3,1.7-2.4,2.4c-1.1,0.7-2.3,1.3-3.8,1.8s-3,0.9-4.7,1.1C27.5,39.9,25.7,40,24,40
	s-3.5-0.1-5.2-0.4c-1.7-0.3-3.3-0.6-4.7-1.1s-2.7-1.1-3.8-1.8s-1.9-1.5-2.4-2.4v-5.9c0.5,0.9,1.3,1.7,2.4,2.4
	c1.1,0.7,2.3,1.3,3.8,1.8c1.4,0.5,3,0.9,4.7,1.1C20.5,34,22.3,34.1,24,34.1z"/>
</svg>
