<?xml version="1.0" encoding="utf-8"?>
<!-- Generator: Adobe Illustrator 26.3.1, SVG Export Plug-In . SVG Version: 6.00 Build 0)  -->
<svg version="1.1" id="Слой_1" xmlns="http://www.w3.org/2000/svg" xmlns:xlink="http://www.w3.org/1999/xlink" x="0px" y="0px"
	 viewBox="0 0 48 48" style="enable-background:new 0 0 48 48;" xml:space="preserve">
<path d="M29.3,38v-1.5h3.9c0.9,0,1.7-0.3,2.3-0.9c0.6-0.6,1-1.4,1-2.2v-4.7c0-1.1,0.3-2,1-2.9c0.7-0.8,1.6-1.4,2.6-1.7v-0.2
	c-1.1-0.3-1.9-0.8-2.6-1.6c-0.7-0.8-1-1.8-1-2.9v-4.7c0-0.9-0.3-1.6-0.9-2.2c-0.6-0.6-1.4-0.9-2.3-0.9h-3.9V10h3.9
	c1.4,0,2.5,0.5,3.4,1.4s1.4,2,1.4,3.3v4.7c0,0.9,0.3,1.7,1,2.3c0.7,0.6,1.5,0.9,2.4,0.9H42v2.8h-0.6c-0.9,0-1.7,0.3-2.4,0.9
	s-1,1.4-1,2.3v4.7c0,1.3-0.5,2.4-1.4,3.3c-0.9,0.9-2.1,1.4-3.4,1.4C33.2,38,29.3,38,29.3,38z M14.8,38c-1.3,0-2.5-0.5-3.4-1.4
	c-0.9-0.9-1.4-2-1.4-3.3v-4.7c0-0.9-0.3-1.7-1-2.3c-0.7-0.6-1.5-0.9-2.4-0.9H6v-2.8h0.6c0.9,0,1.7-0.3,2.4-0.9s1-1.4,1-2.3v-4.7
	c0-1.3,0.5-2.4,1.4-3.3s2.1-1.4,3.4-1.4h3.9v1.5h-3.9c-0.9,0-1.7,0.3-2.3,0.9c-0.6,0.6-1,1.4-1,2.2v4.7c0,1.1-0.3,2-1,2.9
	c-0.7,0.8-1.6,1.4-2.6,1.6V24c1.1,0.3,1.9,0.8,2.6,1.7c0.7,0.8,1,1.8,1,2.9v4.7c0,0.9,0.3,1.6,0.9,2.2c0.6,0.6,1.4,0.9,2.3,0.9h3.9
	V38C18.7,38,14.8,38,14.8,38z"/>
</svg>
