<?xml version="1.0" encoding="utf-8"?>
<!-- Generator: Adobe Illustrator 26.3.1, SVG Export Plug-In . SVG Version: 6.00 Build 0)  -->
<svg version="1.1" id="Слой_1" xmlns="http://www.w3.org/2000/svg" xmlns:xlink="http://www.w3.org/1999/xlink" x="0px" y="0px"
	 viewBox="0 0 48 48" style="enable-background:new 0 0 48 48;" xml:space="preserve">
<path d="M10.8,38c-0.8,0-1.4-0.3-2-0.8C8.3,36.7,8,36,8,35.2V8.8c0-0.8,0.3-1.4,0.8-2C9.3,6.3,10,6,10.8,6h26.5c0.8,0,1.4,0.3,2,0.8
	C39.7,7.3,40,8,40,8.8v13.7c-0.2,0-0.4,0-0.6,0c-0.2,0-0.4,0-0.6,0H27.5c-1.4,0-2.7,0.2-3.9,0.7c-1.2,0.5-2.3,1.2-3.4,2h-5v5.5h1.3
	c-0.2,0.5-0.3,1.1-0.3,1.6c-0.1,0.5-0.1,1.1-0.1,1.6c0,0.7,0.1,1.4,0.2,2c0.2,0.7,0.4,1.3,0.6,2h-6.1V38z M15.2,18.8h5.5v-5.5h-5.5
	C15.2,13.3,15.2,18.8,15.2,18.8z M28,40c-1.6,0-3.1-0.6-4.2-1.8C22.6,37.1,22,35.7,22,34s0.6-3.1,1.7-4.2c1.2-1.2,2.6-1.8,4.3-1.8
	h3.4v1.5H28c-1.3,0-2.3,0.4-3.2,1.3c-0.9,0.9-1.3,1.9-1.3,3.2c0,1.2,0.4,2.3,1.3,3.2s1.9,1.3,3.2,1.3h3.6V40H28z M27.2,18.8h5.5
	v-5.5h-5.5V18.8z M28,34.8v-1.5h12v1.5H28z M36.4,40v-1.5H40c1.2,0,2.3-0.4,3.2-1.3c0.9-0.9,1.3-1.9,1.3-3.2c0-1.2-0.4-2.3-1.3-3.2
	c-0.9-0.9-1.9-1.3-3.2-1.3h-3.4V28H40c1.7,0,3.1,0.6,4.2,1.7c1.2,1.2,1.8,2.6,1.8,4.3s-0.6,3.1-1.8,4.2C43.1,39.4,41.7,40,40,40
	H36.4z"/>
</svg>
