<?xml version="1.0" encoding="utf-8"?>
<!-- Generator: Adobe Illustrator 26.3.1, SVG Export Plug-In . SVG Version: 6.00 Build 0)  -->
<svg version="1.1" id="Слой_1" xmlns="http://www.w3.org/2000/svg" xmlns:xlink="http://www.w3.org/1999/xlink" x="0px" y="0px"
	 viewBox="0 0 48 48" style="enable-background:new 0 0 48 48;" xml:space="preserve">
<path d="M23.2,41.6c-2.8,0-5.1-1-7.1-2.9c-1.9-1.9-2.9-4.3-2.9-7.1v-1.8c2.1,0.3,4,1.1,5.8,2.3c1.7,1.2,3.1,2.7,4,4.4V25.1
	c-2.4-0.2-4.5-1.3-6.1-3.1c-1.7-1.8-2.5-4-2.5-6.5v-4.9c0-0.6,0.3-1,0.8-1.3c0.5-0.2,1-0.2,1.5,0.2l2.9,2.5l3.3-4.3
	c0.3-0.4,0.7-0.5,1.1-0.5s0.8,0.2,1.1,0.5l3.3,4.3l2.9-2.5c0.4-0.4,0.9-0.5,1.5-0.2c0.5,0.2,0.8,0.7,0.8,1.3v4.9
	c0,2.5-0.8,4.7-2.5,6.5s-3.7,2.9-6.1,3.1v11.3c0.9-1.7,2.2-3.1,4-4.3c1.7-1.2,3.6-2,5.7-2.3v1.8c0,2.8-1,5.1-2.9,7.1
	c-1.9,1.9-4.3,2.9-7.1,2.9C24.7,41.6,23.2,41.6,23.2,41.6z"/>
</svg>
