<?xml version="1.0" encoding="utf-8"?>
<!-- Generator: Adobe Illustrator 26.3.1, SVG Export Plug-In . SVG Version: 6.00 Build 0)  -->
<svg version="1.1" id="Слой_1" xmlns="http://www.w3.org/2000/svg" xmlns:xlink="http://www.w3.org/1999/xlink" x="0px" y="0px"
	 viewBox="0 0 48 48" style="enable-background:new 0 0 48 48;" xml:space="preserve">
<path d="M30.2,41.3L24,35l6.3-6.3l1.1,1.1L27,34.2h14.5v1.5H26.9l4.4,4.4L30.2,41.3z M8.5,25.7v-2.9h2.9v2.9H8.5z M20.1,25.7
	c-1.5,0-2.8-0.5-3.9-1.6s-1.6-2.4-1.6-3.9v-8c0-1.5,0.5-2.8,1.6-3.9s2.4-1.6,3.9-1.6s2.8,0.5,3.9,1.6s1.6,2.4,1.6,3.9v8
	c0,1.5-0.5,2.8-1.6,3.9C23,25.1,21.7,25.7,20.1,25.7z M20.1,24.1c1.1,0,2.1-0.4,2.8-1.1c0.8-0.8,1.1-1.7,1.1-2.8v-8
	c0-1.1-0.4-2.1-1.1-2.8c-0.8-0.8-1.7-1.1-2.8-1.1c-1.1,0-2.1,0.4-2.8,1.1c-0.8,0.8-1.1,1.7-1.1,2.8v8c0,1.1,0.4,2.1,1.1,2.8
	C18.1,23.7,19,24.1,20.1,24.1z"/>
</svg>
