<?xml version="1.0" encoding="utf-8"?>
<!-- Generator: Adobe Illustrator 26.3.1, SVG Export Plug-In . SVG Version: 6.00 Build 0)  -->
<svg version="1.1" id="Слой_1" xmlns="http://www.w3.org/2000/svg" xmlns:xlink="http://www.w3.org/1999/xlink" x="0px" y="0px"
	 viewBox="0 0 48 48" style="enable-background:new 0 0 48 48;" xml:space="preserve">
<path d="M3.4,25.8l0.4-1.5h9l-0.4,1.5H3.4z M14.8,38c-1.4,0-2.5-0.5-3.5-1.5S9.9,34.4,10,33H5.6l1.1-4.2h8.1l1.7-7h4.3l1.9-7.5h-12
	l0.8-2.8c0.1-0.4,0.3-0.8,0.6-1c0.3-0.3,0.7-0.4,1.1-0.4h22.5L34,17.3h4.4l5.3,7.1L41.8,33h-2.3c0.1,1.4-0.4,2.6-1.3,3.5
	c-0.9,1-2.1,1.5-3.5,1.5s-2.5-0.5-3.5-1.5c-0.9-1-1.4-2.2-1.3-3.5H19.5c0.1,1.4-0.4,2.6-1.3,3.5C17.3,37.5,16.2,38,14.8,38z
	 M7.4,18.8l0.4-1.5h11l-0.4,1.5H7.4z M14.8,36.5c0.9,0,1.7-0.3,2.3-1s0.9-1.4,0.9-2.3c0-0.9-0.3-1.7-0.9-2.3
	c-0.6-0.6-1.4-0.9-2.3-0.9c-0.9,0-1.6,0.3-2.3,0.9c-0.6,0.6-1,1.4-1,2.3c0,0.9,0.3,1.6,1,2.3C13.1,36.1,13.9,36.5,14.8,36.5z
	 M34.8,36.5c0.9,0,1.7-0.3,2.3-1c0.6-0.6,0.9-1.4,0.9-2.3c0-0.9-0.3-1.7-0.9-2.3c-0.6-0.6-1.4-0.9-2.3-0.9c-0.9,0-1.6,0.3-2.3,0.9
	c-0.6,0.6-1,1.4-1,2.3c0,0.9,0.3,1.6,1,2.3C33.1,36.1,33.9,36.5,34.8,36.5z M31.7,26.7h9.8l0.4-2.1l-4.4-5.9h-4L31.7,26.7z"/>
</svg>
