<?xml version="1.0" encoding="utf-8"?>
<!-- Generator: Adobe Illustrator 26.3.1, SVG Export Plug-In . SVG Version: 6.00 Build 0)  -->
<svg version="1.1" id="Слой_1" xmlns="http://www.w3.org/2000/svg" xmlns:xlink="http://www.w3.org/1999/xlink" x="0px" y="0px"
	 viewBox="0 0 48 48" style="enable-background:new 0 0 48 48;" xml:space="preserve">
<path d="M8.5,25.4V20H5.2l5.2-8.9v5.3h3.3L8.5,25.4z M14.8,38c-1.3,0-2.5-0.5-3.4-1.4S10,34.5,10,33.2c0-0.6,0.1-1.2,0.4-1.8
	c0.3-0.6,0.6-1.1,0.9-1.6l10.3-18.3h-6.4l0.3-1.5h20l-1.7,7.2h4.4l5.3,7.1L41.8,33h-2.3c0.1,1.4-0.4,2.6-1.3,3.5S36.1,38,34.8,38
	c-1.4,0-2.5-0.5-3.5-1.5c-0.9-1-1.4-2.2-1.3-3.5H19.6c0.1,1.4-0.3,2.6-1.3,3.5C17.4,37.5,16.2,38,14.8,38z M14.8,36.5
	c0.9,0,1.7-0.3,2.3-1s0.9-1.4,0.9-2.3c0-0.9-0.3-1.7-0.9-2.3c-0.6-0.6-1.4-0.9-2.3-0.9c-0.9,0-1.6,0.3-2.3,0.9c-0.6,0.6-1,1.4-1,2.3
	c0,0.9,0.3,1.6,1,2.3C13.1,36.1,13.9,36.5,14.8,36.5z M34.8,36.5c0.9,0,1.7-0.3,2.3-1c0.6-0.6,0.9-1.4,0.9-2.3
	c0-0.9-0.3-1.7-0.9-2.3c-0.6-0.6-1.4-0.9-2.3-0.9c-0.9,0-1.6,0.3-2.3,0.9c-0.6,0.6-1,1.4-1,2.3c0,0.9,0.3,1.6,1,2.3
	C33.1,36.1,33.9,36.5,34.8,36.5z M31.7,26.7h9.8l0.4-2.1l-4.4-5.9h-4L31.7,26.7z"/>
</svg>
