<?xml version="1.0" encoding="utf-8"?>
<!-- Generator: Adobe Illustrator 26.3.1, SVG Export Plug-In . SVG Version: 6.00 Build 0)  -->
<svg version="1.1" id="Слой_1" xmlns="http://www.w3.org/2000/svg" xmlns:xlink="http://www.w3.org/1999/xlink" x="0px" y="0px"
	 viewBox="0 0 48 48" style="enable-background:new 0 0 48 48;" xml:space="preserve">
<path d="M36.3,36.5c0.9,0,1.6-0.3,2.2-0.9c0.6-0.6,0.9-1.4,0.9-2.2c0-0.9-0.3-1.6-0.9-2.2c-0.6-0.6-1.4-0.9-2.2-0.9
	c-0.9,0-1.6,0.3-2.2,0.9c-0.6,0.6-0.9,1.4-0.9,2.2c0,0.9,0.3,1.6,0.9,2.2S35.4,36.5,36.3,36.5z M36.3,42.8c1,0,2-0.2,2.9-0.7
	s1.7-1.2,2.3-2c-0.8-0.5-1.7-0.8-2.5-1.1c-0.9-0.3-1.7-0.4-2.7-0.4c-0.9,0-1.8,0.1-2.7,0.4c-0.9,0.3-1.7,0.6-2.5,1.1
	c0.6,0.9,1.3,1.5,2.2,2C34.3,42.5,35.3,42.8,36.3,42.8z M36.3,44.2c-2.2,0-4-0.8-5.5-2.3s-2.2-3.3-2.2-5.4c0-2.2,0.7-4,2.2-5.5
	s3.3-2.3,5.5-2.3c2.1,0,3.9,0.8,5.4,2.3s2.3,3.3,2.3,5.5c0,2.1-0.8,3.9-2.3,5.4C40.3,43.5,38.4,44.2,36.3,44.2z M15,17h18v-1.5H15
	V17z M24,40H10.8c-0.8,0-1.4-0.3-1.9-0.8S8,38,8,37.2V10.8c0-0.8,0.3-1.4,0.8-2C9.4,8.3,10,8,10.8,8h26.5c0.8,0,1.4,0.3,1.9,0.8
	c0.5,0.6,0.8,1.2,0.8,2v13.3c-0.6-0.2-1.2-0.3-1.8-0.4s-1.2-0.2-1.9-0.2s-1.4,0.1-2.1,0.2c-0.7,0.1-1.4,0.3-2,0.5v-0.9H15v1.5h15.5
	c-1.3,0.7-2.4,1.6-3.4,2.7s-1.8,2.3-2.4,3.6H15v1.5h9c-0.2,0.6-0.3,1.2-0.4,1.9c-0.1,0.6-0.1,1.3-0.1,1.9c0,0.5,0,1.2,0.1,1.9
	C23.7,38.9,23.8,39.5,24,40z"/>
</svg>
