<?xml version="1.0" encoding="utf-8"?>
<!-- Generator: Adobe Illustrator 26.3.1, SVG Export Plug-In . SVG Version: 6.00 Build 0)  -->
<svg version="1.1" id="Слой_1" xmlns="http://www.w3.org/2000/svg" xmlns:xlink="http://www.w3.org/1999/xlink" x="0px" y="0px"
	 viewBox="0 0 48 48" style="enable-background:new 0 0 48 48;" xml:space="preserve">
<path d="M24,23.1l-13.5-7.9L10,15.5c-0.1,0.1-0.2,0.2-0.3,0.3s-0.1,0.3-0.1,0.4v0.2L24,24.9l14.5-8.4v-0.2c0-0.1,0-0.3-0.1-0.4
	c-0.1-0.1-0.2-0.2-0.3-0.3l-0.5-0.3L24,23.1z M22.6,41.5L9.4,33.9c-0.4-0.3-0.8-0.6-1-1c-0.3-0.5-0.4-1-0.4-1.4v-15
	c0-0.5,0.1-0.9,0.4-1.4c0.2-0.4,0.6-0.8,1-1l13.2-7.7C23.1,6.2,23.5,6,24,6s0.9,0.1,1.4,0.4l13.2,7.7c0.4,0.3,0.8,0.6,1,1
	S40,16,40,16.5v9.8c-0.6-0.2-1.2-0.4-1.8-0.5s-1.3-0.2-1.9-0.2c-3.3,0-6.2,1.2-8.5,3.5c-2.4,2.4-3.5,5.2-3.5,8.6
	c0,0.7,0.1,1.4,0.2,2.1c0.1,0.7,0.3,1.3,0.6,1.9c-0.4,0.1-0.8,0.2-1.2,0.1C23.3,41.8,23,41.7,22.6,41.5z M36.2,45.5
	c-2.1,0-4-0.8-5.5-2.3s-2.3-3.3-2.3-5.5c0-2.1,0.8-4,2.3-5.5s3.4-2.3,5.5-2.3s4,0.8,5.5,2.3s2.3,3.3,2.3,5.5s-0.8,4-2.3,5.5
	C40.2,44.8,38.4,45.5,36.2,45.5z M37,37.6v-5.7h-1.6v6.3l4.4,4.2l1-1C40.9,41.3,37,37.6,37,37.6z"/>
</svg>
