<?xml version="1.0" encoding="utf-8"?>
<!-- Generator: Adobe Illustrator 26.3.1, SVG Export Plug-In . SVG Version: 6.00 Build 0)  -->
<svg version="1.1" id="Слой_1" xmlns="http://www.w3.org/2000/svg" xmlns:xlink="http://www.w3.org/1999/xlink" x="0px" y="0px"
	 viewBox="0 0 48 48" style="enable-background:new 0 0 48 48;" xml:space="preserve">
<path d="M22.6,41.5L9.4,33.9c-0.4-0.3-0.8-0.6-1-1c-0.3-0.5-0.4-1-0.4-1.4v-15c0-0.5,0.1-0.9,0.4-1.4c0.2-0.4,0.6-0.8,1-1l13.2-7.7
	C23.1,6.2,23.5,6,24,6s0.9,0.1,1.4,0.4l13.2,7.7c0.4,0.3,0.8,0.6,1,1S40,16,40,16.5v14.9c0,0.5-0.1,0.9-0.4,1.4
	c-0.2,0.4-0.6,0.8-1,1l-13.2,7.6c-0.5,0.2-0.9,0.4-1.4,0.4C23.5,41.9,23.1,41.8,22.6,41.5z M23.2,24.4v15.7l0.2,0.1
	c0.2,0.1,0.4,0.2,0.5,0.2c0.2,0,0.4-0.1,0.5-0.2l0.2-0.1V24.4l13.7-7.9v-0.2c0-0.1,0-0.3-0.1-0.4c-0.1-0.1-0.2-0.2-0.3-0.3l-0.5-0.3
	L24,23.1l-13.5-7.9L10,15.5c-0.1,0.1-0.2,0.2-0.3,0.3s-0.1,0.3-0.1,0.4v0.3C9.5,16.5,23.2,24.4,23.2,24.4z"/>
</svg>
