<?xml version="1.0" encoding="utf-8"?>
<!-- Generator: Adobe Illustrator 26.3.1, SVG Export Plug-In . SVG Version: 6.00 Build 0)  -->
<svg version="1.1" id="Слой_1" xmlns="http://www.w3.org/2000/svg" xmlns:xlink="http://www.w3.org/1999/xlink" x="0px" y="0px"
	 viewBox="0 0 48 48" style="enable-background:new 0 0 48 48;" xml:space="preserve">
<path d="M9.2,7.9v2.2L3.6,4.5l1.1-1.1L42,40.7l-1.2,1.1L33,34h-7.5v4.5h4.1V40H18.3v-1.5h4.1V34H8.8c-0.8,0-1.4-0.3-2-0.8
	C6.3,32.7,6,32,6,31.2V10.8c0-0.7,0.3-1.4,0.8-2S8.1,7.9,9.2,7.9z M40.1,33.8L14.2,8h25c0.8,0,1.4,0.3,2,0.8c0.5,0.5,0.8,1.2,0.8,2
	v20.5c0,0.6-0.2,1.2-0.6,1.7C41.1,33.4,40.6,33.7,40.1,33.8z"/>
</svg>
