<?xml version="1.0" encoding="utf-8"?>
<!-- Generator: Adobe Illustrator 26.3.1, SVG Export Plug-In . SVG Version: 6.00 Build 0)  -->
<svg version="1.1" id="Слой_1" xmlns="http://www.w3.org/2000/svg" xmlns:xlink="http://www.w3.org/1999/xlink" x="0px" y="0px"
	 viewBox="0 0 48 48" style="enable-background:new 0 0 48 48;" xml:space="preserve">
<path d="M8.8,38c-0.8,0-1.4-0.3-2-0.8C6.3,36.7,6,36,6,35.2V12.8c0-0.8,0.3-1.4,0.8-2C7.3,10.3,8,10,8.8,10h30.5
	c0.8,0,1.4,0.3,2,0.8c0.5,0.5,0.8,1.2,0.8,2v14.1c-0.7-0.4-1.5-0.7-2.3-0.9c-0.8-0.2-1.6-0.3-2.5-0.3c-0.4,0-0.7,0-1,0.1
	c-0.3,0-0.7,0.1-1,0.2v-9.1H18v1.3h15.9v8.2c-0.8,0.3-1.6,0.7-2.3,1.2s-1.4,1.1-1.9,1.7v-6.8H12.8v8.9h15.3
	c-0.4,0.7-0.7,1.5-0.9,2.3c-0.2,0.8-0.3,1.6-0.3,2.5c0,0.4,0,0.7,0.1,1c0,0.3,0.1,0.6,0.2,1C27.2,38,8.8,38,8.8,38z M36.5,42v-5.2
	h-5.2v-1.5h5.2V30H38v5.2h5.2v1.5H38V42H36.5z"/>
</svg>
