<?xml version="1.0" encoding="utf-8"?>
<!-- Generator: Adobe Illustrator 26.3.1, SVG Export Plug-In . SVG Version: 6.00 Build 0)  -->
<svg version="1.1" id="Слой_1" xmlns="http://www.w3.org/2000/svg" xmlns:xlink="http://www.w3.org/1999/xlink" x="0px" y="0px"
	 viewBox="0 0 48 48" style="enable-background:new 0 0 48 48;" xml:space="preserve">
<path d="M18,27.8h13c1.1,0,2-0.4,2.7-1.1s1.1-1.6,1.1-2.7s-0.4-2-1.1-2.7C33,20.6,32,20.2,31,20.2h-0.8v-0.5
	c-0.1-1.5-0.7-2.9-1.9-3.9c-1.2-1.1-2.6-1.6-4.3-1.6c-1.1,0-2.1,0.3-3.1,0.9c-0.9,0.6-1.6,1.4-2.1,2.4l-0.3,0.7l-0.7,0.1
	c-1.3,0.1-2.3,0.6-3.2,1.5s-1.3,2-1.3,3.3s0.5,2.4,1.4,3.4C15.5,27.3,16.7,27.8,18,27.8z M18.3,40v-1.5h4.1V34H8.8
	c-0.8,0-1.4-0.3-2-0.8C6.3,32.7,6,32,6,31.2V10.8c0-0.8,0.3-1.4,0.8-2C7.3,8.3,8,8,8.8,8h30.5c0.8,0,1.4,0.3,2,0.8
	c0.5,0.5,0.8,1.2,0.8,2v20.5c0,0.8-0.3,1.4-0.8,2c-0.5,0.5-1.2,0.8-2,0.8H25.5v4.5h4.1V40H18.3z"/>
</svg>
