<?xml version="1.0" encoding="utf-8"?>
<!-- Generator: Adobe Illustrator 26.3.1, SVG Export Plug-In . SVG Version: 6.00 Build 0)  -->
<svg version="1.1" id="Слой_1" xmlns="http://www.w3.org/2000/svg" xmlns:xlink="http://www.w3.org/1999/xlink" x="0px" y="0px"
	 viewBox="0 0 48 48" style="enable-background:new 0 0 48 48;" xml:space="preserve">
<path d="M23.2,40v-8h1.5v8H23.2z M38.5,33.8l-5.6-5.6l1.1-1.1l5.6,5.7C39.5,32.7,38.5,33.8,38.5,33.8z M9.5,33.8l-1.1-1.1L14,27
	l1.1,1.1C15.2,28.2,9.5,33.8,9.5,33.8z M14.5,15.1l1.1,3.2c0.1,0.3,0.3,0.5,0.5,0.6c0.2,0.1,0.4,0.2,0.7,0.2h14.4
	c0.3,0,0.5-0.1,0.7-0.2s0.4-0.3,0.5-0.6l1.1-3.2C33.5,15.1,14.5,15.1,14.5,15.1z M16.8,20.6c-0.6,0-1.1-0.2-1.6-0.5s-0.8-0.8-1-1.3
	l-1.3-3.7h-2.1c-0.8,0-1.4-0.3-2-0.8c-0.5-0.5-0.8-1.2-0.8-2V8h32v4.3c0,0.8-0.3,1.4-0.8,2c-0.5,0.5-1.2,0.8-2,0.8h-2.1l-1.4,3.7
	c-0.2,0.5-0.6,0.9-1,1.3c-0.5,0.3-1,0.5-1.6,0.5H16.8z"/>
</svg>
