<?xml version="1.0" encoding="utf-8"?>
<!-- Generator: Adobe Illustrator 26.3.1, SVG Export Plug-In . SVG Version: 6.00 Build 0)  -->
<svg version="1.1" id="Слой_1" xmlns="http://www.w3.org/2000/svg" xmlns:xlink="http://www.w3.org/1999/xlink" x="0px" y="0px"
	 viewBox="0 0 48 48" style="enable-background:new 0 0 48 48;" xml:space="preserve">
<path d="M6,13.8v-5c0-0.8,0.3-1.4,0.8-2C7.3,6.3,8,6,8.8,6h5.1v1.5H8.8C8.5,7.5,8.2,7.6,8,7.9C7.7,8.2,7.5,8.5,7.5,8.8v5.1L6,13.8
	L6,13.8z M13.8,42h-5c-0.8,0-1.4-0.3-2-0.8C6.3,40.7,6,40,6,39.2v-5.1h1.5v5.1c0,0.3,0.1,0.6,0.4,0.8c0.3,0.3,0.5,0.4,0.8,0.4h5.1
	C13.8,40.4,13.8,42,13.8,42z M34.2,42v-1.5h5.1c0.3,0,0.6-0.1,0.8-0.4c0.3-0.3,0.4-0.5,0.4-0.8v-5.1H42v5.1c0,0.8-0.3,1.4-0.8,2
	c-0.5,0.5-1.2,0.8-2,0.8L34.2,42L34.2,42z M40.5,13.8v-5c0-0.3-0.1-0.6-0.4-0.8c-0.3-0.3-0.5-0.4-0.8-0.4h-5.1V6h5.1
	c0.8,0,1.4,0.3,2,0.8C41.7,7.3,42,8,42,8.8v5.1L40.5,13.8L40.5,13.8z M27,18.1c-0.9,0-1.7-0.3-2.3-0.9c-0.6-0.6-0.9-1.4-0.9-2.3
	c0-0.9,0.3-1.7,0.9-2.3s1.4-0.9,2.3-0.9s1.7,0.3,2.3,0.9c0.6,0.6,0.9,1.4,0.9,2.3c0,0.9-0.3,1.7-0.9,2.3
	C28.7,17.8,27.9,18.1,27,18.1z M24.5,34.9H19l2.2-11.4l-6.5,2.9v6.4h-1.5v-7.5l8.1-3.3c0.8-0.3,1.4-0.6,1.7-0.7
	c0.4-0.1,0.7-0.2,1-0.2c0.5,0,1,0.1,1.4,0.4c0.4,0.2,0.8,0.6,1,1l2.1,3.3c0.8,1.3,2,2.5,3.5,3.6c1.5,1,3.2,1.6,5,1.8v1.5
	c-1.9-0.1-3.7-0.7-5.5-1.8S28,28,26.6,25.5L24.5,34.9z"/>
</svg>
