<?xml version="1.0" encoding="utf-8"?>
<!-- Generator: Adobe Illustrator 26.3.1, SVG Export Plug-In . SVG Version: 6.00 Build 0)  -->
<svg version="1.1" id="Слой_1" xmlns="http://www.w3.org/2000/svg" xmlns:xlink="http://www.w3.org/1999/xlink" x="0px" y="0px"
	 viewBox="0 0 48 48" style="enable-background:new 0 0 48 48;" xml:space="preserve">
<path d="M38.4,32l-6.5-6.5v-3.7h-3.7l-2.6-2.5h6.2v-4.6h-6.9v4l-1.9-2v-2.1h-2L14.3,8h21.4c0.8,0,1.4,0.3,2,0.8
	c0.5,0.5,0.8,1.2,0.8,2v3.8h2.6v1.5h-2.6v6.4h2.6V24h-2.6v6.4h2.6V32H38.4z M13.1,33.4h9.5v-7h-9.5C13.1,26.4,13.1,33.4,13.1,33.4z
	 M9.2,8l29.2,29.2c-0.1,0.8-0.4,1.4-0.9,2S36.4,40,35.6,40H9.5c-0.8,0-1.4-0.3-2-0.8c-0.5-0.5-0.8-1.2-0.8-2V10.8
	c0-0.7,0.2-1.3,0.7-1.8C7.8,8.4,8.5,8.1,9.2,8z M24.9,23.7v9.7h6.9v-2.8C31.8,30.6,24.9,23.7,24.9,23.7z M15.9,14.6h-2.8v9.2h9.5
	v-2.6C22.5,21.3,15.9,14.6,15.9,14.6z M43.2,44.1L4.4,5.3l1.1-1.1L44.3,43L43.2,44.1z"/>
</svg>
