<?xml version="1.0" encoding="utf-8"?>
<!-- Generator: Adobe Illustrator 26.3.1, SVG Export Plug-In . SVG Version: 6.00 Build 0)  -->
<svg version="1.1" id="Слой_1" xmlns="http://www.w3.org/2000/svg" xmlns:xlink="http://www.w3.org/1999/xlink" x="0px" y="0px"
	 viewBox="0 0 48 48" style="enable-background:new 0 0 48 48;" xml:space="preserve">
<path d="M33.8,36.5c2.2,0,4-0.7,5.5-2.2s2.2-3.3,2.2-5.5s-0.7-4-2.2-5.5s-3.3-2.2-5.5-2.2s-4,0.7-5.5,2.2s-2.2,3.3-2.2,5.5
	s0.7,4,2.2,5.5C29.9,35.7,31.7,36.5,33.8,36.5z M9.6,42c-0.7,0-1.4-0.3-1.9-0.8c-0.6-0.6-0.8-1.2-0.8-1.9V8.8c0-0.7,0.3-1.4,0.8-1.9
	C8.2,6.3,8.9,6,9.6,6h14.5c0.7,0,1.4,0.3,1.9,0.8c0.6,0.6,0.8,1.2,0.8,1.9v7.9c-0.3,0.2-0.5,0.3-0.8,0.5c-0.2,0.2-0.5,0.3-0.8,0.5
	v-5.8H8.4v24.3h13.5c0.5,0.9,1.2,1.7,2,2.4s1.6,1.4,2.5,2c-0.2,0.4-0.6,0.8-1,1.1S24.5,42,24,42C23.9,42,9.6,42,9.6,42z M30.3,42
	v-4.7c-1.7-0.7-3.1-1.9-4.2-3.4c-1-1.5-1.5-3.3-1.5-5.1c0-1.9,0.5-3.6,1.5-5.1s2.4-2.7,4.2-3.4v-4.7h7.1v4.7
	c1.7,0.7,3.1,1.9,4.2,3.4c1,1.5,1.5,3.3,1.5,5.1c0,1.9-0.5,3.6-1.5,5.1s-2.4,2.7-4.2,3.4V42H30.3z"/>
</svg>
