<?xml version="1.0" encoding="utf-8"?>
<!-- Generator: Adobe Illustrator 26.3.1, SVG Export Plug-In . SVG Version: 6.00 Build 0)  -->
<svg version="1.1" id="Слой_1" xmlns="http://www.w3.org/2000/svg" xmlns:xlink="http://www.w3.org/1999/xlink" x="0px" y="0px"
	 viewBox="0 0 48 48" style="enable-background:new 0 0 48 48;" xml:space="preserve">
<path d="M24,42c-2.2,0-4.1-0.8-5.7-2.3C16.8,38.1,16,36.2,16,34c0-1.5,0.4-2.8,1.1-4.1c0.7-1.3,1.8-2.2,3.1-2.9V9.8
	c0-1.1,0.4-2,1.1-2.7C22,6.4,22.9,6,24,6s2,0.4,2.7,1.1s1.1,1.6,1.1,2.7V27c1.3,0.6,2.4,1.6,3.1,2.9S32,32.6,32,34
	c0,2.2-0.8,4.1-2.3,5.7C28.1,41.2,26.2,42,24,42z M21.8,22.9h4.4v-3.3H24v-1.5h2.2v-4.6H24V12h2.2V9.8c0-0.6-0.2-1.2-0.6-1.6
	c-0.4-0.4-1-0.6-1.6-0.6s-1.2,0.2-1.6,0.6c-0.4,0.4-0.6,1-0.6,1.6V22.9z"/>
</svg>
