<?xml version="1.0" encoding="utf-8"?>
<!-- Generator: Adobe Illustrator 26.3.1, SVG Export Plug-In . SVG Version: 6.00 Build 0)  -->
<svg version="1.1" id="Слой_1" xmlns="http://www.w3.org/2000/svg" xmlns:xlink="http://www.w3.org/1999/xlink" x="0px" y="0px"
	 viewBox="0 0 48 48" style="enable-background:new 0 0 48 48;" xml:space="preserve">
<path d="M13.9,38H8.8c-0.7,0-1.4-0.3-1.9-0.8C6.3,36.6,6,36,6,35.2V12.8c0-0.7,0.3-1.4,0.8-1.9C7.4,10.3,8,10,8.8,10H38v1.5H8.8
	c-0.4,0-0.7,0.1-0.9,0.3c-0.2,0.2-0.3,0.5-0.3,0.9v22.5c0,0.4,0.1,0.7,0.3,0.9s0.5,0.3,0.9,0.3H14C13.9,36.5,13.9,38,13.9,38z
	 M22,34.7c0.9,0,1.7-0.3,2.3-0.9c0.6-0.6,0.9-1.4,0.9-2.3c0-0.9-0.3-1.7-0.9-2.3c-0.6-0.6-1.4-0.9-2.3-0.9s-1.7,0.3-2.3,0.9
	c-0.6,0.6-0.9,1.4-0.9,2.3c0,0.9,0.3,1.7,0.9,2.3C20.3,34.4,21.1,34.7,22,34.7z M19.5,38v-2.8c-0.6-0.4-1.1-1-1.4-1.6
	c-0.4-0.7-0.6-1.4-0.6-2.2s0.2-1.5,0.6-2.2s0.9-1.2,1.4-1.6v-2.7h5.1v2.8c0.6,0.4,1.1,1,1.4,1.6c0.4,0.7,0.6,1.4,0.6,2.2
	c0,0.8-0.2,1.5-0.6,2.2s-0.8,1.2-1.4,1.6V38H19.5z M40.6,38h-9.2c-0.4,0-0.7-0.1-1-0.4c-0.3-0.3-0.4-0.6-0.4-1V19.4
	c0-0.4,0.1-0.7,0.4-1s0.6-0.4,1-0.4h9.2c0.4,0,0.7,0.1,1,0.4s0.4,0.6,0.4,1v17.2c0,0.4-0.1,0.7-0.4,1C41.3,37.9,41,38,40.6,38z"/>
</svg>
