<?xml version="1.0" encoding="utf-8"?>
<!-- Generator: Adobe Illustrator 26.3.1, SVG Export Plug-In . SVG Version: 6.00 Build 0)  -->
<svg version="1.1" id="Слой_1" xmlns="http://www.w3.org/2000/svg" xmlns:xlink="http://www.w3.org/1999/xlink" x="0px" y="0px"
	 viewBox="0 0 48 48" style="enable-background:new 0 0 48 48;" xml:space="preserve">
<path d="M17,35.2h14v-1.5H17V35.2z M17,30h14v-1.5H17V30z M24,24.2c2-1.8,3.7-3.2,4.9-4.3c1.2-1.1,1.9-2.4,1.9-4
	c0-0.9-0.3-1.6-0.9-2.2c-0.6-0.6-1.4-0.9-2.2-0.9c-1,0-1.7,0.2-2.1,0.6c-0.4,0.4-0.9,1-1.5,1.7c-0.6-0.7-1.1-1.3-1.5-1.7
	s-1.1-0.6-2.1-0.6c-0.9,0-1.6,0.3-2.2,0.9c-0.6,0.6-0.9,1.4-0.9,2.2c0,1.6,0.6,2.9,1.8,3.9C20.2,20.8,21.9,22.3,24,24.2z M35.2,42
	H12.8c-0.8,0-1.4-0.3-2-0.8c-0.5-0.5-0.8-1.2-0.8-2V8.8c0-0.8,0.3-1.4,0.8-2C11.3,6.3,12,6,12.8,6h22.5c0.8,0,1.4,0.3,2,0.8
	C37.7,7.3,38,8,38,8.8v30.5c0,0.8-0.3,1.4-0.8,2C36.7,41.7,36,42,35.2,42z"/>
</svg>
