<?xml version="1.0" encoding="utf-8"?>
<!-- Generator: Adobe Illustrator 26.3.1, SVG Export Plug-In . SVG Version: 6.00 Build 0)  -->
<svg version="1.1" id="Слой_1" xmlns="http://www.w3.org/2000/svg" xmlns:xlink="http://www.w3.org/1999/xlink" x="0px" y="0px"
	 viewBox="0 0 48 48" style="enable-background:new 0 0 48 48;" xml:space="preserve">
<path d="M8.8,28.2h1.6l1.1-3.1h5.7l1.1,3.1h1.6l-4.6-12.3h-1.9L8.8,28.2z M12,23.6l2.2-6.1h0.1l2.2,6.1H12z M27.8,19v-1.4
	c1.1-0.5,2.2-1,3.5-1.2c1.2-0.3,2.5-0.4,3.8-0.4c0.7,0,1.4,0,2.1,0.1c0.7,0.1,1.4,0.2,2.1,0.4v1.4c-0.7-0.2-1.4-0.4-2-0.5
	c-0.7-0.1-1.4-0.1-2.2-0.1c-1.3,0-2.6,0.1-3.8,0.4C30,18,28.8,18.4,27.8,19z M27.8,29.9v-1.5c1-0.5,2.2-0.9,3.4-1.2
	c1.3-0.3,2.5-0.4,3.8-0.4c0.7,0,1.4,0,2.1,0.1c0.7,0.1,1.4,0.2,2.1,0.4v1.4c-0.7-0.2-1.4-0.4-2-0.5c-0.7-0.1-1.4-0.1-2.2-0.1
	c-1.3,0-2.6,0.2-3.8,0.5C30,28.9,28.8,29.3,27.8,29.9z M27.8,24.5V23c1.1-0.5,2.2-1,3.5-1.2c1.2-0.3,2.5-0.4,3.8-0.4
	c0.7,0,1.4,0,2.1,0.1c0.7,0.1,1.4,0.2,2.1,0.4v1.4c-0.7-0.2-1.4-0.4-2-0.5c-0.7-0.1-1.4-0.1-2.2-0.1c-1.3,0-2.6,0.2-3.8,0.5
	C30,23.4,28.8,23.9,27.8,24.5z M24.8,35.3c1.7-0.9,3.4-1.6,5.1-2.1c1.7-0.4,3.5-0.7,5.4-0.7c1.2,0,2.4,0.1,3.4,0.2
	c1,0.1,1.9,0.3,2.5,0.5c0.3,0.1,0.6,0.1,0.8-0.1c0.3-0.2,0.4-0.4,0.4-0.8V13.6c0-0.2-0.1-0.4-0.2-0.6c-0.1-0.2-0.3-0.3-0.7-0.5
	c-1.1-0.4-2.1-0.7-3.1-0.9c-0.9-0.2-2-0.2-3.3-0.2c-1.9,0-3.7,0.3-5.5,0.9c-1.8,0.6-3.5,1.4-4.9,2.6C24.8,14.9,24.8,35.3,24.8,35.3z
	 M24,37.5c-1.7-1.1-3.5-2-5.4-2.6S14.7,34,12.7,34c-0.9,0-1.9,0.1-2.8,0.2c-0.9,0.1-1.8,0.4-2.8,0.6c-0.8,0.3-1.5,0.2-2.2-0.3
	s-1-1.2-1-2.1V13.7c0-0.6,0.1-1.1,0.4-1.5c0.3-0.5,0.7-0.8,1.2-1c1.1-0.4,2.3-0.8,3.5-1s2.4-0.3,3.6-0.3c2,0,4,0.3,6,0.9
	s3.7,1.5,5.4,2.6c1.6-1.2,3.4-2,5.3-2.6s3.9-0.9,5.9-0.9c1.2,0,2.4,0.1,3.6,0.3c1.2,0.2,2.3,0.5,3.5,1c0.5,0.2,0.9,0.5,1.2,1
	s0.4,1,0.4,1.5v18.9c0,0.9-0.4,1.6-1.1,2c-0.7,0.5-1.5,0.6-2.3,0.2c-0.9-0.3-1.8-0.5-2.7-0.6S36,34,35.1,34c-2,0-4,0.3-5.9,0.9
	C27.5,35.6,25.7,36.4,24,37.5z"/>
</svg>
