<?xml version="1.0" encoding="utf-8"?>
<!-- Generator: Adobe Illustrator 26.3.1, SVG Export Plug-In . SVG Version: 6.00 Build 0)  -->
<svg version="1.1" id="Слой_1" xmlns="http://www.w3.org/2000/svg" xmlns:xlink="http://www.w3.org/1999/xlink" x="0px" y="0px"
	 viewBox="0 0 48 48" style="enable-background:new 0 0 48 48;" xml:space="preserve">
<path d="M25.8,20.9h1.5v-4.1h4.1v-1.5h-4.1v-4.1h-1.5v4.1h-4.1v1.5h4.1V20.9z M21.7,28.8h9.7v-1.5h-9.7V28.8z M15.8,36.9
	c-0.8,0-1.4-0.3-2-0.8c-0.5-0.5-0.8-1.2-0.8-2V6.8c0-0.8,0.3-1.4,0.8-2C14.3,4.3,15,4,15.8,4h15.3l8.8,8.8v21.3c0,0.8-0.3,1.4-0.8,2
	c-0.5,0.5-1.2,0.8-2,0.8C37.2,36.9,15.8,36.9,15.8,36.9z M8.8,44c-0.8,0-1.4-0.3-2-0.8C6.3,42.7,6,42,6,41.2V15.1h1.5v26.1
	c0,0.3,0.1,0.6,0.4,0.8c0.3,0.3,0.5,0.4,0.8,0.4h20.1V44H8.8z"/>
</svg>
