<?xml version="1.0" encoding="utf-8"?>
<!-- Generator: Adobe Illustrator 26.3.1, SVG Export Plug-In . SVG Version: 6.00 Build 0)  -->
<svg version="1.1" id="Слой_1" xmlns="http://www.w3.org/2000/svg" xmlns:xlink="http://www.w3.org/1999/xlink" x="0px" y="0px"
	 viewBox="0 0 48 48" style="enable-background:new 0 0 48 48;" xml:space="preserve">
<path d="M24,17.5c-1.5,0-2.7-0.5-3.8-1.5c-1-1-1.5-2.3-1.5-3.8s0.5-2.7,1.5-3.8c1-1,2.3-1.5,3.8-1.5s2.7,0.5,3.8,1.5
	c1,1,1.5,2.3,1.5,3.8s-0.5,2.7-1.5,3.8C26.7,17,25.5,17.5,24,17.5z M24,40.5L13.1,29.6c-0.5-0.5-0.8-1.1-1.1-1.7
	c-0.3-0.7-0.4-1.5-0.4-2.3c0-1.5,0.5-2.7,1.6-3.8s2.3-1.6,3.8-1.6c0.7,0,1.3,0.1,1.9,0.4s1.2,0.7,1.7,1.2l3.5,3.5l3.5-3.5
	c0.4-0.5,1-0.8,1.6-1.1c0.6-0.3,1.3-0.4,2-0.4c1.5,0,2.7,0.5,3.8,1.6c1,1,1.6,2.3,1.6,3.8c0,0.9-0.1,1.6-0.4,2.3
	c-0.3,0.7-0.7,1.3-1.1,1.7C34.9,29.6,24,40.5,24,40.5z"/>
</svg>
