<?xml version="1.0" encoding="utf-8"?>
<!-- Generator: Adobe Illustrator 26.3.1, SVG Export Plug-In . SVG Version: 6.00 Build 0)  -->
<svg version="1.1" id="Слой_1" xmlns="http://www.w3.org/2000/svg" xmlns:xlink="http://www.w3.org/1999/xlink" x="0px" y="0px"
	 viewBox="0 0 48 48" style="enable-background:new 0 0 48 48;" xml:space="preserve">
<path d="M8.6,40.9L6,38.3h36l-2.6,2.6C39.4,40.9,8.6,40.9,8.6,40.9z M8,35.5c0.2-0.5,0.5-0.9,0.9-1.3c0.4-0.4,0.7-0.8,1.1-1.1V16.6
	H8V15h2v-2H8v-1.5h2v-2H8V8h12.6c0.7,0,1.4,0.3,1.9,0.8c0.6,0.6,0.8,1.2,0.8,1.9v0.7H40V13H23.4v0.7c0,0.8-0.3,1.4-0.8,2
	c-0.6,0.5-1.2,0.8-1.9,0.8h-3.9v14.3c0.9,0.1,1.7,0.4,2.5,0.7c0.8,0.4,1.6,0.8,2.3,1.4c0.2-2.1,1.1-3.8,2.7-5.1c1.6-1.3,3.4-2,5.6-2
	c2.3,0,4.3,0.8,5.9,2.5C37.2,30,38,32,38,34.4v1.1H8z M16.7,11.5h5.4v-0.7c0-0.4-0.1-0.7-0.3-0.9c-0.2-0.2-0.5-0.3-0.9-0.3h-4.2
	V11.5z M16.7,15h4.2c0.4,0,0.7-0.1,0.9-0.3c0.2-0.2,0.3-0.5,0.3-0.9V13h-5.4V15z M11.5,11.5h3.6v-2h-3.6V11.5z M11.5,15h3.6v-2h-3.6
	V15z M11.5,32c0.5-0.3,1.1-0.6,1.7-0.8s1.2-0.3,1.9-0.3V16.6h-3.6V32z"/>
</svg>
