<?xml version="1.0" encoding="utf-8"?>
<!-- Generator: Adobe Illustrator 26.3.1, SVG Export Plug-In . SVG Version: 6.00 Build 0)  -->
<svg version="1.1" id="Слой_1" xmlns="http://www.w3.org/2000/svg" xmlns:xlink="http://www.w3.org/1999/xlink" x="0px" y="0px"
	 viewBox="0 0 48 48" style="enable-background:new 0 0 48 48;" xml:space="preserve">
<path d="M42.5,44.8L32.3,34.5L26,40.7c-0.3,0.3-0.6,0.5-0.9,0.6s-0.7,0.2-1.1,0.2s-0.7-0.1-1-0.2c-0.3-0.1-0.7-0.3-0.9-0.6L7.3,26
	c-0.3-0.3-0.5-0.6-0.6-1c-0.1-0.3-0.2-0.7-0.2-1c0-0.4,0.1-0.7,0.2-1.1C6.8,22.6,7,22.3,7.3,22l7.4-7.4l12.1,12V29L3.8,6l1.1-1.1
	l38.8,38.8C43.6,43.6,42.5,44.8,42.5,44.8z M17,28.9h1.5v-6.2h4.2l-1.5-1.5h-2.8c-0.4,0-0.7,0.1-1,0.4s-0.4,0.6-0.4,1
	C17,22.6,17,28.9,17,28.9z M35.8,30.9l-6-6.1l2.8-2.8l-4.1-4v3.3h-2.4l-9.1-9l5-5c0.3-0.3,0.6-0.5,1-0.6c0.3-0.1,0.7-0.2,1-0.2
	c0.4,0,0.7,0.1,1.1,0.2C25.4,6.8,25.7,7,26,7.3L40.7,22c0.3,0.3,0.5,0.6,0.6,0.9s0.2,0.7,0.2,1.1s-0.1,0.7-0.2,1
	c-0.1,0.3-0.3,0.7-0.6,0.9C40.7,26,35.8,30.9,35.8,30.9z"/>
</svg>
