<?xml version="1.0" encoding="utf-8"?>
<!-- Generator: Adobe Illustrator 26.3.1, SVG Export Plug-In . SVG Version: 6.00 Build 0)  -->
<svg version="1.1" id="Слой_1" xmlns="http://www.w3.org/2000/svg" xmlns:xlink="http://www.w3.org/1999/xlink" x="0px" y="0px"
	 viewBox="0 0 48 48" style="enable-background:new 0 0 48 48;" xml:space="preserve">
<path d="M42.5,44.8L32.3,34.5L26,40.7c-0.3,0.3-0.6,0.5-0.9,0.6s-0.7,0.2-1,0.2s-0.7-0.1-1-0.2c-0.3-0.1-0.7-0.3-0.9-0.6L7.3,26
	c-0.3-0.3-0.5-0.6-0.6-1c-0.1-0.3-0.2-0.7-0.2-1c0-0.4,0.1-0.7,0.2-1c0.1-0.4,0.3-0.7,0.6-1l6.3-6.3L3.8,6l1.1-1.1l38.8,38.8
	C43.6,43.6,42.5,44.8,42.5,44.8z M24,32.5l3.2-3.2l-1.1-1.1l-3.2,3.2L24,32.5z M35.8,30.9l-5.6-5.6l1.3-1.3L23,15.5l-1.3,1.3
	l-4.6-4.6L22,7.3c0.3-0.3,0.6-0.5,1-0.6c0.3-0.1,0.7-0.2,1-0.2c0.4,0,0.7,0.1,1,0.2c0.4,0.1,0.7,0.3,1,0.6L40.7,22
	c0.3,0.3,0.5,0.6,0.6,0.9s0.2,0.7,0.2,1c0,0.4-0.1,0.7-0.2,1c-0.1,0.3-0.3,0.7-0.6,0.9C40.7,26,35.8,30.9,35.8,30.9z M15.5,24.8h7.1
	L21,23.2h-5.6C15.5,23.2,15.5,24.8,15.5,24.8z"/>
</svg>
