<?xml version="1.0" encoding="utf-8"?>
<!-- Generator: Adobe Illustrator 26.3.1, SVG Export Plug-In . SVG Version: 6.00 Build 0)  -->
<svg version="1.1" id="Слой_1" xmlns="http://www.w3.org/2000/svg" xmlns:xlink="http://www.w3.org/1999/xlink" x="0px" y="0px"
	 viewBox="0 0 48 48" style="enable-background:new 0 0 48 48;" xml:space="preserve">
<path d="M24,41.5c-0.4,0-0.7-0.1-1-0.2c-0.3-0.1-0.7-0.3-0.9-0.6L7.3,26c-0.3-0.3-0.5-0.6-0.6-1c-0.1-0.3-0.2-0.7-0.2-1
	c0-0.4,0.1-0.7,0.2-1c0.1-0.4,0.3-0.7,0.6-1L22,7.3c0.3-0.3,0.6-0.5,1-0.6c0.3-0.1,0.7-0.2,1-0.2c0.4,0,0.7,0.1,1,0.2
	c0.4,0.1,0.7,0.3,1,0.6L40.7,22c0.3,0.3,0.5,0.6,0.6,0.9s0.2,0.7,0.2,1c0,0.4-0.1,0.7-0.2,1c-0.1,0.3-0.3,0.7-0.6,0.9L26,40.7
	c-0.3,0.3-0.6,0.5-0.9,0.6C24.7,41.5,24.4,41.5,24,41.5z M24,32.5l8.5-8.5L24,15.5l-1.1,1.1l6.7,6.7H15.5v1.5h14.1l-6.7,6.7L24,32.5
	z"/>
</svg>
