<?xml version="1.0" encoding="utf-8"?>
<!-- Generator: Adobe Illustrator 26.3.1, SVG Export Plug-In . SVG Version: 6.00 Build 0)  -->
<svg version="1.1" id="Слой_1" xmlns="http://www.w3.org/2000/svg" xmlns:xlink="http://www.w3.org/1999/xlink" x="0px" y="0px"
	 viewBox="0 0 48 48" style="enable-background:new 0 0 48 48;" xml:space="preserve">
<path d="M30.2,10.5c-0.8,0-1.5-0.3-2-0.8s-0.8-1.2-0.8-2s0.3-1.5,0.8-2s1.2-0.8,2-0.8s1.4,0.3,2,0.8c0.6,0.5,0.8,1.2,0.8,2
	s-0.3,1.5-0.8,2S31,10.5,30.2,10.5z M20.2,20.6l4.6,4.8v11.5h-1.5V27l-7.1-5.4c-0.3-0.2-0.5-0.5-0.6-0.8s-0.2-0.7-0.2-1.1
	s0.1-0.7,0.2-1c0.2-0.3,0.4-0.6,0.6-0.8l6-6c0.2-0.2,0.6-0.4,1-0.6c0.4-0.2,0.8-0.3,1.2-0.3c0.4,0,0.8,0.1,1.2,0.3
	c0.4,0.2,0.7,0.4,1,0.6l3.8,3.9c0.9,0.9,1.9,1.6,3.1,2.2s2.5,1,3.9,1.1v1.6c-1.7-0.1-3.2-0.5-4.6-1.2c-1.4-0.7-2.6-1.6-3.7-2.7
	l-2.5-2.5L20.2,20.6z M10.8,25.5c2.4,0,4.5,0.8,6.2,2.5s2.5,3.7,2.5,6.2s-0.8,4.5-2.5,6.2s-3.7,2.5-6.2,2.5s-4.5-0.8-6.1-2.5
	c-1.7-1.7-2.5-3.7-2.5-6.2S3,29.7,4.7,28C6.3,26.3,8.3,25.5,10.8,25.5z M10.8,41.2c2,0,3.7-0.7,5.1-2s2.1-3.1,2.1-5.1
	s-0.7-3.7-2.1-5.1s-3.1-2-5.1-2s-3.7,0.7-5.1,2c-1.4,1.4-2.1,3.1-2.1,5.1s0.7,3.7,2.1,5.1S8.8,41.2,10.8,41.2z M37.2,25.5
	c2.4,0,4.5,0.8,6.2,2.5s2.5,3.7,2.5,6.2s-0.8,4.5-2.5,6.2s-3.7,2.5-6.2,2.5c-2.4,0-4.5-0.8-6.1-2.5c-1.7-1.7-2.5-3.7-2.5-6.2
	s0.8-4.5,2.5-6.2C32.7,26.3,34.8,25.5,37.2,25.5z M37.2,41.2c2,0,3.7-0.7,5.1-2c1.4-1.4,2.1-3.1,2.1-5.1s-0.7-3.7-2.1-5.1
	c-1.4-1.4-3.1-2-5.1-2s-3.7,0.7-5.1,2c-1.4,1.4-2.1,3.1-2.1,5.1s0.7,3.7,2.1,5.1C33.5,40.6,35.2,41.2,37.2,41.2z"/>
</svg>
