<?xml version="1.0" encoding="utf-8"?>
<!-- Generator: Adobe Illustrator 26.3.1, SVG Export Plug-In . SVG Version: 6.00 Build 0)  -->
<svg version="1.1" id="Слой_1" xmlns="http://www.w3.org/2000/svg" xmlns:xlink="http://www.w3.org/1999/xlink" x="0px" y="0px"
	 viewBox="0 0 48 48" style="enable-background:new 0 0 48 48;" xml:space="preserve">
<path d="M12.8,38.9V38l3-2c-1.6,0-3-0.6-4.1-1.7c-1.1-1.1-1.7-2.5-1.7-4.1V12c0-2.1,1.1-3.7,3.3-4.6S19,6,24,6s8.6,0.5,10.8,1.4
	S38,9.8,38,12v18.2c0,1.6-0.6,3-1.7,4.1c-1.1,1.1-2.5,1.7-4.1,1.7l3,2v0.9H12.8z M11.5,22.3h11.8v-9.7H11.5V22.3z M24.9,22.3h11.6
	v-9.7H24.9C24.9,12.6,24.9,22.3,24.9,22.3z M16.9,31.3c0.6,0,1.1-0.2,1.5-0.6s0.6-0.9,0.6-1.5s-0.2-1.1-0.6-1.5s-0.9-0.6-1.5-0.6
	s-1.1,0.2-1.5,0.6s-0.6,0.9-0.6,1.5s0.2,1.1,0.6,1.5C15.8,31.1,16.3,31.3,16.9,31.3z M31.1,31.3c0.6,0,1.1-0.2,1.5-0.6
	c0.4-0.4,0.6-0.9,0.6-1.5s-0.2-1.1-0.6-1.5c-0.4-0.4-0.9-0.6-1.5-0.6s-1.1,0.2-1.5,0.6s-0.6,1-0.6,1.5c0,0.6,0.2,1.1,0.6,1.5
	S30.6,31.3,31.1,31.3z"/>
</svg>
