<?xml version="1.0" encoding="utf-8"?>
<!-- Generator: Adobe Illustrator 26.3.1, SVG Export Plug-In . SVG Version: 6.00 Build 0)  -->
<svg version="1.1" id="Слой_1" xmlns="http://www.w3.org/2000/svg" xmlns:xlink="http://www.w3.org/1999/xlink" x="0px" y="0px"
	 viewBox="0 0 48 48" style="enable-background:new 0 0 48 48;" xml:space="preserve">
<path d="M17,29h1.5v-6.2h10V26l4-4l-4-4.1v3.3H18.4c-0.4,0-0.7,0.1-1,0.4s-0.4,0.6-0.4,1V29z M24,41.5c-0.4,0-0.7-0.1-1-0.2
	c-0.3-0.1-0.7-0.3-0.9-0.6L7.3,26c-0.3-0.3-0.5-0.6-0.6-1c-0.1-0.3-0.2-0.7-0.2-1c0-0.4,0.1-0.7,0.2-1c0.1-0.4,0.3-0.7,0.6-1L22,7.3
	c0.3-0.3,0.6-0.5,1-0.6c0.3-0.1,0.7-0.2,1-0.2c0.4,0,0.7,0.1,1,0.2c0.4,0.1,0.7,0.3,1,0.6L40.7,22c0.3,0.3,0.5,0.6,0.6,0.9
	s0.2,0.7,0.2,1c0,0.4-0.1,0.7-0.2,1c-0.1,0.3-0.3,0.7-0.6,0.9L26,40.7c-0.3,0.3-0.6,0.5-0.9,0.6C24.7,41.5,24.4,41.5,24,41.5z"/>
</svg>
