<?xml version="1.0" encoding="utf-8"?>
<!-- Generator: Adobe Illustrator 26.3.1, SVG Export Plug-In . SVG Version: 6.00 Build 0)  -->
<svg version="1.1" id="Слой_1" xmlns="http://www.w3.org/2000/svg" xmlns:xlink="http://www.w3.org/1999/xlink" x="0px" y="0px"
	 viewBox="0 0 48 48" style="enable-background:new 0 0 48 48;" xml:space="preserve">
<path d="M8.8,40c-0.8,0-1.4-0.3-2-0.8C6.3,38.7,6,38,6,37.2V14.9c0-0.8,0.3-1.4,0.8-2c0.5-0.5,1.2-0.8,2-0.8h6.4L18.8,8h10.3
	l3.7,4.2h6.4c0.8,0,1.4,0.3,2,0.8c0.5,0.5,0.8,1.2,0.8,2v22.3c0,0.8-0.3,1.4-0.8,2c-0.5,0.5-1.2,0.8-2,0.8L8.8,40L8.8,40z
	 M36.6,36.1c0.4,0,0.8-0.1,1-0.4c0.3-0.3,0.4-0.6,0.4-1s-0.1-0.7-0.4-1c-0.3-0.3-0.6-0.4-1-0.4s-0.7,0.1-1,0.4
	c-0.3,0.3-0.4,0.6-0.4,1s0.1,0.7,0.4,1S36.2,36.1,36.6,36.1z M21.7,31.5c0.6,0,1,0.2,1.3,0.7c0.2,0.5,0.4,1.3,0.4,2.5
	c0,0.5-0.1,1-0.2,1.5c-0.1,0.4-0.2,0.9-0.2,1.5c0,0.4,0.1,0.7,0.3,1c0.2,0.3,0.5,0.4,0.9,0.4s0.7-0.1,0.9-0.4c0.2-0.3,0.3-0.6,0.3-1
	c0-0.8-0.1-1.6-0.3-2.2c-0.2-0.7-0.3-1.4-0.3-2.2c0-0.6,0.2-1.1,0.6-1.5c0.4-0.4,0.9-0.6,1.3-0.6c0.3,0,0.6,0.1,1,0.2
	c0.4,0.2,0.8,0.4,1.4,0.9c0.7,0.5,1.2,0.9,1.5,1c0.3,0.2,0.7,0.3,1,0.3s0.6-0.2,0.9-0.5s0.4-0.7,0.4-1s-0.1-0.5-0.4-0.6
	c-0.3-0.2-0.8-0.4-1.6-0.6c-0.8-0.3-1.4-0.5-1.7-0.8c-0.3-0.3-0.5-0.7-0.5-1.1c0-0.6,0.3-1,0.9-1.2s1.5-0.4,2.6-0.4
	c1.1-0.1,1.9-0.2,2.4-0.3c0.5-0.1,0.8-0.4,0.8-0.8c0-0.3-0.1-0.6-0.3-0.9S34.7,25,34.4,25s-0.9,0.2-1.8,0.6c-0.4,0.2-0.8,0.3-1,0.3
	S31.1,26,30.9,26c-0.3,0-0.6-0.2-0.9-0.6s-0.4-0.8-0.4-1.3s0.2-1,0.7-1.5c0.4-0.5,1.3-1,2.5-1.6s2-1.1,2.5-1.4
	c0.5-0.4,0.7-0.8,0.7-1.2c0-0.4-0.2-0.7-0.5-1.2c-0.3-0.4-0.6-0.6-1-0.6c-0.3,0-0.7,0.2-1.2,0.6c-0.4,0.4-1.2,1.3-2.2,2.6
	c-0.8,1-1.4,1.7-2,2.1s-1.1,0.6-1.6,0.6s-1.1-0.2-1.8-0.7c-0.7-0.5-1.2-1.3-1.5-2.4c-0.2-0.8-0.4-1.4-0.6-1.8
	c-0.2-0.3-0.5-0.5-0.9-0.5s-0.6,0.1-0.8,0.2c-0.2,0.1-0.3,0.3-0.3,0.4c0,0.3,0.3,0.9,0.8,1.9c0.3,0.5,0.5,1,0.6,1.3s0.1,0.6,0.1,1
	c0,0.5-0.2,0.9-0.6,1.3c-0.4,0.3-0.9,0.5-1.4,0.5c-0.4,0-0.8-0.1-1.2-0.4c-0.4-0.2-0.9-0.6-1.4-1.2c-0.7-0.7-1.2-1.2-1.4-1.4
	c-0.2-0.2-0.4-0.3-0.7-0.3c-0.2,0-0.5,0.1-0.7,0.3c-0.2,0.2-0.3,0.4-0.3,0.6s0,0.3,0.1,0.5s0.3,0.5,0.7,0.9c0.2,0.3,0.4,0.5,0.5,0.8
	c0.2,0.3,0.2,0.6,0.2,0.9c0,0.6-0.2,1-0.5,1.1c-0.4,0.2-0.9,0.3-1.6,0.4c-0.6,0.1-1,0.2-1.2,0.3c-0.2,0.1-0.3,0.3-0.3,0.6
	c0,0.3,0.1,0.5,0.3,0.7s0.4,0.3,0.6,0.4c0.4,0.1,0.8,0.1,1.2,0c0.5,0,0.9-0.1,1.3-0.1c0.8,0,1.3,0.3,1.6,0.8
	c0.3,0.5,0.4,1.2,0.4,1.9c0,0.6-0.1,1.2-0.4,1.6c-0.3,0.4-0.7,0.9-1.2,1.3c-0.4,0.3-0.7,0.5-0.8,0.7c-0.1,0.1-0.2,0.3-0.2,0.4
	c0,0.2,0.1,0.5,0.4,0.7s0.5,0.3,0.8,0.3s0.6-0.2,0.9-0.5s0.7-0.9,1.3-1.7c0.4-0.6,0.7-1,1-1.2C21.1,31.6,21.4,31.5,21.7,31.5z"/>
</svg>
