<?xml version="1.0" encoding="utf-8"?>
<!-- Generator: Adobe Illustrator 26.3.1, SVG Export Plug-In . SVG Version: 6.00 Build 0)  -->
<svg version="1.1" id="Слой_1" xmlns="http://www.w3.org/2000/svg" xmlns:xlink="http://www.w3.org/1999/xlink" x="0px" y="0px"
	 viewBox="0 0 48 48" style="enable-background:new 0 0 48 48;" xml:space="preserve">
<path d="M23.3,42c-2.5,0-4.8-0.5-7-1.4s-4.1-2.2-5.7-3.8C9,35.1,7.7,33.2,6.7,31c-0.9-2.2-1.4-4.5-1.4-7s0.5-4.8,1.4-7
	s2.2-4.1,3.8-5.7s3.5-2.9,5.7-3.8s4.5-1.4,7-1.4c3.8,0,7.2,1.1,10.3,3.2s5.3,4.9,6.6,8.4h-3v17.9c-1.8,2-3.9,3.6-6.3,4.8
	C28.5,41.4,26,42,23.3,42z M23.3,30.8c1.9,0,3.5-0.7,4.8-2s2-2.9,2-4.8s-0.7-3.5-2-4.8s-2.9-2-4.8-2s-3.5,0.7-4.8,2s-2,2.9-2,4.8
	s0.7,3.5,2,4.8C19.8,30.1,21.4,30.8,23.3,30.8z M23.3,26c-0.6,0-1-0.2-1.4-0.6s-0.6-0.9-0.6-1.4s0.2-1,0.6-1.4s0.9-0.6,1.4-0.6
	c0.6,0,1,0.2,1.4,0.6s0.6,0.9,0.6,1.4s-0.2,1-0.6,1.4S23.9,26,23.3,26z M41.6,41.2c-0.3,0-0.6-0.1-0.8-0.3s-0.3-0.5-0.3-0.8
	s0.1-0.6,0.3-0.8s0.5-0.3,0.8-0.3s0.6,0.1,0.8,0.3s0.3,0.5,0.3,0.8s-0.1,0.6-0.3,0.8C42.2,41,41.9,41.2,41.6,41.2z M40.8,36.3V21.1
	h1.5v15.2H40.8z"/>
</svg>
