<?xml version="1.0" encoding="utf-8"?>
<!-- Generator: Adobe Illustrator 26.3.1, SVG Export Plug-In . SVG Version: 6.00 Build 0)  -->
<svg version="1.1" id="Слой_1" xmlns="http://www.w3.org/2000/svg" xmlns:xlink="http://www.w3.org/1999/xlink" x="0px" y="0px"
	 viewBox="0 0 48 48" style="enable-background:new 0 0 48 48;" xml:space="preserve">
<path d="M34.9,43.6l-1.1-1.1l4.7-4.7H27.9v-1.5h10.6l-4.7-4.7l1.1-1.1l6.6,6.6L34.9,43.6z M10.8,40c-0.8,0-1.4-0.3-2-0.8
	C8.3,38.7,8,38,8,37.2v-7.1h1.5v7.1c0,0.3,0.1,0.6,0.4,0.8s0.5,0.4,0.8,0.4h7.1V40H10.8z M8,17.8v-7.1c0-0.8,0.3-1.4,0.8-2
	C9.3,8.3,10,8,10.8,8h7.1v1.5h-7.1c-0.3,0-0.6,0.1-0.8,0.4c-0.3,0.3-0.4,0.5-0.4,0.8v7.1H8z M38.5,17.8v-7.1c0-0.3-0.1-0.6-0.4-0.8
	c-0.3-0.3-0.5-0.4-0.8-0.4h-7.1V8h7.1c0.8,0,1.4,0.3,2,0.8c0.5,0.5,0.8,1.2,0.8,2v7.1h-1.6V17.8z"/>
</svg>
