<?xml version="1.0" encoding="utf-8"?>
<!-- Generator: Adobe Illustrator 26.3.1, SVG Export Plug-In . SVG Version: 6.00 Build 0)  -->
<svg version="1.1" id="Слой_1" xmlns="http://www.w3.org/2000/svg" xmlns:xlink="http://www.w3.org/1999/xlink" x="0px" y="0px"
	 viewBox="0 0 48 48" style="enable-background:new 0 0 48 48;" xml:space="preserve">
<path d="M24.9,42l2.1-1.9c3.6-3.3,6.2-5.9,7.5-7.8c1.4-1.9,2.1-3.7,2.1-5.5c0-0.5-0.1-1-0.2-1.4c-0.1-0.5-0.3-0.9-0.5-1.3h3.3
	c0.8,0,1.4,0.3,2,0.8c0.5,0.5,0.8,1.2,0.8,1.9V42H24.9z M6,42V26.8c0-0.8,0.3-1.4,0.8-2C7.3,24.3,8,24,8.8,24h3.3
	c-0.2,0.4-0.4,0.9-0.5,1.3s-0.2,0.9-0.2,1.4c0,1.9,0.6,3.7,1.9,5.4c1.3,1.7,3.9,4.4,7.8,8l2,1.8H6V42z M38,20
	c-1.1,0-2.1-0.4-2.8-1.1C34.4,18.1,34,17.1,34,16s0.4-2.1,1.1-2.8c0.8-0.8,1.7-1.2,2.8-1.2s2.1,0.4,2.8,1.2c0.8,0.8,1.2,1.7,1.2,2.8
	s-0.4,2.1-1.2,2.8C40.1,19.6,39.1,20,38,20z M24,18c-1.4,0-2.6-0.5-3.6-1.4c-1-1-1.4-2.1-1.4-3.5s0.5-2.6,1.4-3.5
	c1-1,2.1-1.5,3.5-1.5s2.6,0.5,3.5,1.5c1,1,1.5,2.2,1.5,3.5c0,1.4-0.5,2.6-1.5,3.6C26.6,17.5,25.4,18,24,18z M12.9,26.8
	c0,1.6,0.6,3.2,1.9,4.9s3.9,4.3,7.7,7.8l1.5,1.3l1.5-1.4c3.5-3.2,5.9-5.8,7.4-7.6c1.5-1.8,2.2-3.5,2.2-5c0-1.7-0.5-3-1.6-4.2
	c-1.1-1.1-2.4-1.7-4.1-1.7c-1,0-1.8,0.2-2.6,0.6c-0.8,0.4-1.5,0.9-2.1,1.5L24,23.8L23.2,23c-0.7-0.6-1.4-1.1-2.2-1.5
	c-0.8-0.4-1.6-0.6-2.4-0.6c-1.6,0-3,0.6-4.1,1.7C13.5,23.7,12.9,25.1,12.9,26.8z M10,20c-1.1,0-2.1-0.4-2.8-1.1
	C6.4,18.1,6,17.1,6,16s0.4-2.1,1.1-2.8C7.9,12.4,8.9,12,10,12s2.1,0.4,2.8,1.2C13.6,14,14,14.9,14,16s-0.4,2.1-1.2,2.8
	C12.1,19.6,11.1,20,10,20z"/>
</svg>
