<?xml version="1.0" encoding="utf-8"?>
<!-- Generator: Adobe Illustrator 26.3.1, SVG Export Plug-In . SVG Version: 6.00 Build 0)  -->
<svg version="1.1" id="Слой_1" xmlns="http://www.w3.org/2000/svg" xmlns:xlink="http://www.w3.org/1999/xlink" x="0px" y="0px"
	 viewBox="0 0 48 48" style="enable-background:new 0 0 48 48;" xml:space="preserve">
<path d="M18.1,43.3c-1.5,0-2.9-0.5-4.1-1.5s-1.9-2.3-2.3-3.8c-0.4,0.7-1,1.3-1.7,1.7s-1.5,0.6-2.3,0.6c-1.3,0-2.5-0.5-3.4-1.4
	S3,36.9,3,35.6c0-1.3,0.4-2.4,1.3-3.4c0.9-0.9,2-1.3,3.4-1.3C7,30.3,6.4,29.6,6,28.6c-0.4-0.9-0.7-1.9-0.7-2.8c0-1.1,0.3-2.1,0.8-3
	s1.3-1.7,2.2-2.3c0.1,0.2,0.2,0.4,0.4,0.7c0.1,0.3,0.3,0.5,0.4,0.7c-0.7,0.5-1.3,1.1-1.6,1.8c-0.4,0.7-0.6,1.4-0.6,2.2
	c0,2.2,0.8,3.5,2.4,4.2c1.6,0.6,3.2,1.1,4.9,1.4l0.2,0.5c-0.4,1.1-0.7,2-0.9,2.8s-0.3,1.4-0.3,2.1c0,1.3,0.5,2.5,1.5,3.4
	c1,1,2.1,1.5,3.5,1.5s2.6-0.5,3.6-1.6c0.9-1.1,1.7-2.4,2.3-3.8c0.6-1.5,1-3,1.4-4.6s0.6-2.9,0.8-3.9l1.5,0.5
	c-0.2,1.3-0.6,2.8-0.9,4.5c-0.4,1.7-0.9,3.4-1.6,4.9c-0.7,1.6-1.6,2.9-2.7,4C21.4,42.8,19.9,43.3,18.1,43.3z M20.3,29.9
	c-1.3-1.2-2.6-2.3-3.7-3.4c-1.1-1-2.1-2.1-2.9-3.1c-0.8-1-1.4-2-1.9-3c-0.4-1-0.7-2-0.7-3.1c0-1.8,0.6-3.4,1.9-4.6s2.8-1.9,4.6-1.9
	c0.4,0,0.8,0,1.2,0.1c0.4,0,0.7,0.1,1,0.2c-0.2-0.4-0.4-0.8-0.6-1.2C19.1,9.5,19,9.2,19,8.8c0-1.3,0.5-2.5,1.4-3.4S22.5,4,23.8,4
	s2.5,0.5,3.4,1.4s1.4,2.1,1.4,3.4c0,0.4-0.1,0.7-0.2,1.1c-0.1,0.4-0.3,0.8-0.6,1.2c0.3-0.1,0.7-0.2,1-0.2c0.4,0,0.8-0.1,1.2-0.1
	c1.5,0,2.7,0.4,3.8,1.2s1.8,1.9,2.2,3.2c-0.2,0-0.5,0-0.8,0s-0.6,0-0.8,0.1c-0.3-0.9-0.9-1.6-1.7-2.1S31,12.4,30,12.4
	c-1.3,0-2.3,0.3-3,1c-0.8,0.6-1.8,1.7-3,3.1h-0.6c-1.2-1.5-2.2-2.5-3-3.1s-1.8-0.9-3-0.9c-1.4,0-2.6,0.5-3.5,1.4s-1.4,2.1-1.4,3.5
	c0,0.8,0.2,1.6,0.6,2.4c0.4,0.8,1,1.7,1.7,2.7c0.7,0.9,1.7,1.9,2.7,3c1.1,1,2.3,2.2,3.6,3.4L20.3,29.9z M29.7,43.4
	c-0.5,0-0.9-0.1-1.4-0.2s-0.9-0.3-1.3-0.5c0.1-0.2,0.2-0.4,0.4-0.7c0.2-0.3,0.3-0.5,0.4-0.7c0.3,0.2,0.7,0.3,1,0.4
	c0.4,0.1,0.7,0.1,1.1,0.1c1.3,0,2.5-0.5,3.5-1.5s1.5-2.1,1.5-3.5c0-0.6-0.1-1.3-0.4-2.1C34.3,34,34,33.1,33.6,32l0.3-0.5
	c1.7-0.3,3.4-0.8,4.9-1.4s2.3-2,2.3-4.2c0-1.7-0.6-2.9-1.8-3.8c-1.2-0.8-2.5-1.2-4-1.2c-1.3,0-2.9,0.2-4.7,0.7s-3.9,1.1-6.3,1.9
	L23.9,22c2.3-0.7,4.3-1.4,6.1-1.9s3.5-0.8,5-0.8c2,0,3.7,0.6,5.2,1.7s2.3,2.8,2.3,4.9c0,1-0.2,1.9-0.6,2.8c-0.4,0.9-1,1.6-1.7,2.3
	c1.4,0,2.5,0.4,3.4,1.3s1.3,2,1.3,3.3s-0.5,2.5-1.4,3.4s-2,1.4-3.4,1.4c-0.9,0-1.6-0.2-2.3-0.6c-0.7-0.4-1.3-1-1.7-1.8
	c-0.4,1.5-1.2,2.8-2.3,3.8C32.7,42.8,31.3,43.4,29.7,43.4z"/>
</svg>
