<?xml version="1.0" encoding="utf-8"?>
<!-- Generator: Adobe Illustrator 26.3.1, SVG Export Plug-In . SVG Version: 6.00 Build 0)  -->
<svg version="1.1" id="Слой_1" xmlns="http://www.w3.org/2000/svg" xmlns:xlink="http://www.w3.org/1999/xlink" x="0px" y="0px"
	 viewBox="0 0 48 48" style="enable-background:new 0 0 48 48;" xml:space="preserve">
<path d="M4.6,27.4c-0.9-1.4-1.5-2.7-2-4.1S2,20.5,2,19.2c0-3.1,1.1-5.7,3.3-7.9S10.1,8,13.2,8c2,0,4,0.5,5.8,1.6
	c1.8,1,3.5,2.5,5,4.5c1.5-1.9,3.2-3.4,5-4.5c1.8-1,3.8-1.6,5.8-1.6c3.1,0,5.7,1.1,7.9,3.3s3.3,4.8,3.3,7.9c0,1.3-0.2,2.6-0.6,4
	c-0.4,1.4-1.1,2.8-2,4.2c-0.2-0.2-0.4-0.3-0.7-0.4c-0.2-0.1-0.5-0.2-0.7-0.3c0.8-1.3,1.4-2.6,1.8-3.8c0.4-1.2,0.6-2.4,0.6-3.6
	c0-2.7-0.9-5-2.8-6.8c-1.9-1.9-4.2-2.8-6.8-2.8c-1.7,0-3.4,0.5-5.2,1.6c-1.8,1.1-3.7,2.8-5.6,5.3c-1.9-2.5-3.7-4.3-5.6-5.3
	c-1.8-1.1-3.6-1.6-5.2-1.6c-2.7,0-5,0.9-6.8,2.8c-1.9,1.9-2.8,4.2-2.8,6.8c0,1.2,0.2,2.4,0.6,3.7c0.4,1.2,1,2.5,1.8,3.8
	c-0.2,0.1-0.4,0.2-0.7,0.4C5,27.1,4.8,27.3,4.6,27.4z M2,42.1v-1.5c0-1.1,0.6-2.1,1.9-2.9c1.3-0.8,2.9-1.2,4.9-1.2
	c0.4,0,0.7,0,1.1,0c0.3,0,0.7,0.1,0.9,0.1c-0.2,0.4-0.3,0.9-0.4,1.4c-0.1,0.5-0.2,1-0.2,1.5v2.4C10.2,42.1,2,42.1,2,42.1z M14,42.1
	v-2.2c0-1.7,0.9-3,2.8-3.9c1.8-1,4.3-1.5,7.2-1.5c3,0,5.4,0.5,7.3,1.5c1.8,1,2.7,2.3,2.7,3.9v2.2H14z M37.8,42.1v-2.4
	c0-0.5,0-1.1-0.1-1.5s-0.2-1-0.5-1.4c0.3-0.1,0.6-0.1,1-0.1c0.3,0,0.7,0,1.1,0c2,0,3.7,0.4,4.9,1.2s1.9,1.7,1.9,2.9v1.5
	C46,42.1,37.8,42.1,37.8,42.1z M8.8,34.9c-0.7,0-1.4-0.3-1.9-0.8S6.1,33,6.1,32.2c0-0.7,0.3-1.3,0.8-1.8s1.1-0.8,1.9-0.8
	c0.7,0,1.3,0.3,1.8,0.8s0.8,1.1,0.8,1.8c0,0.7-0.3,1.4-0.8,1.9C10.1,34.6,9.5,34.9,8.8,34.9z M39.2,34.9c-0.7,0-1.3-0.3-1.8-0.8
	s-0.8-1.1-0.8-1.9c0-0.7,0.3-1.3,0.8-1.8s1.1-0.8,1.8-0.8s1.4,0.3,1.9,0.8s0.8,1.1,0.8,1.8c0,0.7-0.3,1.4-0.8,1.9
	C40.6,34.6,40,34.9,39.2,34.9z M24,32.9c-1.2,0-2.2-0.4-3.1-1.3c-0.9-0.9-1.3-1.9-1.3-3.1s0.4-2.3,1.3-3.1c0.9-0.8,1.9-1.3,3.1-1.3
	s2.3,0.4,3.1,1.3c0.8,0.8,1.3,1.9,1.3,3.1s-0.4,2.2-1.3,3.1C26.3,32.5,25.2,32.9,24,32.9z"/>
</svg>
