<?xml version="1.0" encoding="utf-8"?>
<!-- Generator: Adobe Illustrator 26.3.1, SVG Export Plug-In . SVG Version: 6.00 Build 0)  -->
<svg version="1.1" id="Слой_1" xmlns="http://www.w3.org/2000/svg" xmlns:xlink="http://www.w3.org/1999/xlink" x="0px" y="0px"
	 viewBox="0 0 48 48" style="enable-background:new 0 0 48 48;" xml:space="preserve">
<path d="M14.7,14.3c-0.5,0-0.9,0.2-1.3,0.5c-0.3,0.3-0.5,0.8-0.5,1.3s0.2,0.9,0.5,1.3c0.3,0.3,0.8,0.5,1.3,0.5s0.9-0.2,1.3-0.5
	c0.3-0.3,0.5-0.8,0.5-1.3s-0.2-0.9-0.5-1.3C15.6,14.5,15.2,14.3,14.7,14.3z M14.7,32.2c-0.5,0-0.9,0.2-1.3,0.5
	c-0.3,0.3-0.5,0.8-0.5,1.3s0.2,0.9,0.5,1.3c0.3,0.3,0.8,0.5,1.3,0.5s0.9-0.2,1.3-0.5c0.3-0.3,0.5-0.8,0.5-1.3s-0.2-0.9-0.5-1.3
	C15.6,32.3,15.2,32.2,14.7,32.2z M9.4,9.2h29.2c0.4,0,0.7,0.1,1,0.4c0.3,0.3,0.4,0.6,0.4,1.1v10.4c0,0.6-0.1,1-0.4,1.3
	c-0.3,0.3-0.6,0.5-1,0.5H9.4c-0.4,0-0.7-0.2-1-0.5C8.1,22.1,8,21.7,8,21.1V10.7c0-0.4,0.1-0.8,0.4-1.1C8.7,9.4,9,9.2,9.4,9.2z
	 M9.4,27.1h29c0.4,0,0.8,0.2,1.1,0.5c0.3,0.4,0.5,0.7,0.5,1.2v10.1c0,0.6-0.2,1-0.5,1.4c-0.3,0.3-0.7,0.5-1.1,0.5H9.6
	c-0.5,0-0.9-0.2-1.2-0.5C8.1,40,8,39.5,8,38.9V28.8c0-0.4,0.1-0.8,0.4-1.2C8.6,27.3,8.9,27.1,9.4,27.1z"/>
</svg>
