<?xml version="1.0" encoding="utf-8"?>
<!-- Generator: Adobe Illustrator 26.3.1, SVG Export Plug-In . SVG Version: 6.00 Build 0)  -->
<svg version="1.1" id="Слой_1" xmlns="http://www.w3.org/2000/svg" xmlns:xlink="http://www.w3.org/1999/xlink" x="0px" y="0px"
	 viewBox="0 0 48 48" style="enable-background:new 0 0 48 48;" xml:space="preserve">
<path d="M35.3,30.5l-1.1-1.1l8.1-8l1.1,1.1L35.3,30.5z M32.2,27.5L20.9,16.2l8-8l11.4,11.4C40.3,19.5,32.2,27.5,32.2,27.5z
	 M42.3,44.7L28.6,31l-6.4,6.3H5.3V33c0-0.5,0.2-1,0.5-1.4s0.7-0.7,1.2-0.9c0.8-0.4,1.7-0.8,2.7-1.3c0.9-0.5,1.9-1.1,2.8-1.9l1.6,1.6
	c0.1,0.1,0.3,0.2,0.6,0.2s0.5-0.1,0.6-0.2c0.2-0.2,0.3-0.4,0.3-0.6s-0.1-0.4-0.2-0.6l-1.5-1.5c0.2-0.2,0.4-0.3,0.6-0.6
	c0.2-0.2,0.4-0.4,0.6-0.7l1.5,1.5c0.2,0.2,0.4,0.3,0.6,0.2c0.2,0,0.4-0.1,0.6-0.3c0.2-0.2,0.2-0.4,0.2-0.6c0-0.3-0.1-0.5-0.2-0.6
	L16,23.5c0.2-0.2,0.5-0.5,0.6-0.7c0.2-0.3,0.3-0.5,0.4-0.7l1.9,1.9c0.2,0.2,0.4,0.3,0.6,0.3s0.4-0.1,0.6-0.2s0.3-0.4,0.3-0.6
	s-0.1-0.4-0.3-0.7l-16-16l1.1-1.1l38.1,38.1C43.3,43.6,42.3,44.7,42.3,44.7z"/>
</svg>
