<?xml version="1.0" encoding="utf-8"?>
<!-- Generator: Adobe Illustrator 26.3.1, SVG Export Plug-In . SVG Version: 6.00 Build 0)  -->
<svg version="1.1" id="Слой_1" xmlns="http://www.w3.org/2000/svg" xmlns:xlink="http://www.w3.org/1999/xlink" x="0px" y="0px"
	 viewBox="0 0 48 48" style="enable-background:new 0 0 48 48;" xml:space="preserve">
<path d="M33.2,40.7v-6h-6v-1.5h6v-6h1.5v6h6v1.5h-6v6H33.2z M9,35v-1.5h14.2c0,0.3,0,0.6,0.1,0.8c0,0.2,0,0.5,0.1,0.8L9,35L9,35z
	 M9,26.9v-1.5h18.5c-0.3,0.2-0.6,0.5-0.8,0.7c-0.3,0.3-0.5,0.5-0.8,0.8C25.9,26.9,9,26.9,9,26.9z M9,18.7v-1.5h28v1.5H9z M9,10.5V9
	h28v1.5H9z"/>
</svg>
