<?xml version="1.0" encoding="utf-8"?>
<!-- Generator: Adobe Illustrator 26.3.1, SVG Export Plug-In . SVG Version: 6.00 Build 0)  -->
<svg version="1.1" id="Слой_1" xmlns="http://www.w3.org/2000/svg" xmlns:xlink="http://www.w3.org/1999/xlink" x="0px" y="0px"
	 viewBox="0 0 48 48" style="enable-background:new 0 0 48 48;" xml:space="preserve">
<path d="M33,38.8c1.6,0,3-0.6,4.1-1.7c1.1-1.1,1.7-2.5,1.7-4.2c0-1.6-0.6-3-1.7-4.1c-1.1-1.1-2.5-1.7-4.1-1.7c-1.6,0-3,0.6-4.2,1.7
	c-1.1,1.1-1.7,2.5-1.7,4.1c0,1.6,0.6,3,1.7,4.2C30,38.3,31.4,38.8,33,38.8z M43.2,44.3l-5.6-5.6c-0.6,0.5-1.4,0.9-2.1,1.2
	c-0.8,0.3-1.6,0.4-2.5,0.4c-2.1,0-3.8-0.7-5.2-2.1c-1.4-1.4-2.1-3.2-2.1-5.2s0.7-3.8,2.2-5.2c1.4-1.4,3.2-2.2,5.2-2.2
	s3.8,0.7,5.2,2.2c1.4,1.4,2.2,3.2,2.2,5.2c0,0.9-0.2,1.7-0.5,2.5s-0.7,1.5-1.2,2.1l5.6,5.5L43.2,44.3z M10.8,42
	c-0.8,0-1.4-0.3-2-0.8C8.3,40.7,8,40,8,39.2V8.8c0-0.8,0.3-1.4,0.8-2C9.3,6.3,10,6,10.8,6h16.7l8.5,8.5v7.3c-0.5-0.2-1-0.3-1.5-0.4
	s-1-0.1-1.5-0.1c-3.6,0-6.5,1.2-8.6,3.6s-3.1,5.1-3.1,8.2c0,1.7,0.4,3.4,1.2,4.9c0.8,1.6,2,2.9,3.7,3.9C26.2,42,10.8,42,10.8,42z
	 M26.7,15.2h7.8l-7.8-7.7l7.8,7.7l-7.8-7.7V15.2z"/>
</svg>
