<?xml version="1.0" encoding="utf-8"?>
<!-- Generator: Adobe Illustrator 26.3.1, SVG Export Plug-In . SVG Version: 6.00 Build 0)  -->
<svg version="1.1" id="Слой_1" xmlns="http://www.w3.org/2000/svg" xmlns:xlink="http://www.w3.org/1999/xlink" x="0px" y="0px"
	 viewBox="0 0 48 48" style="enable-background:new 0 0 48 48;" xml:space="preserve">
<path d="M15.6,34c-1.4,0-2.8-0.3-4.1-0.8C10.1,32.7,8.9,32,7.9,31c-1.3-1.3-2.3-2.9-3-4.7C4.3,24.5,4,22.7,4,20.8
	c0-2,0.5-3.6,1.4-4.9S7.7,14,9.5,14c0.3,0,0.6,0,0.9,0.1c0.3,0.1,0.6,0.1,0.9,0.3L24,19.1l12.6-4.8c0.3-0.1,0.6-0.2,0.9-0.3
	c0.3-0.1,0.6-0.1,0.9-0.1c1.8,0,3.2,0.6,4.1,1.9s1.4,2.9,1.4,4.9c0,1.9-0.3,3.8-0.9,5.6c-0.6,1.8-1.6,3.4-3,4.7
	c-1,1-2.2,1.7-3.6,2.2c-1.3,0.5-2.7,0.8-4.1,0.8c-1.8,0-3.5-0.5-5-1.5L25.2,31h-2.5l-2.2,1.5C19.1,33.5,17.4,34,15.6,34z M17.5,27.5
	c0.8,0,1.5-0.2,2-0.6s0.7-0.9,0.7-1.5c0-1.2-0.9-2.3-2.5-3.4s-3.3-1.6-5.1-1.6c-0.8,0-1.5,0.2-1.9,0.6c-0.5,0.4-0.7,0.9-0.7,1.5
	c0,1.2,0.8,2.3,2.5,3.4C14,27,15.7,27.5,17.5,27.5z M30.6,27.5c1.8,0,3.5-0.5,5.1-1.6c1.6-1.1,2.5-2.2,2.5-3.4
	c0-0.6-0.2-1.1-0.7-1.5s-1.1-0.6-2-0.6c-1.7,0-3.4,0.6-5.1,1.7c-1.6,1.1-2.5,2.2-2.5,3.4c0,0.6,0.2,1.1,0.7,1.5S29.7,27.5,30.6,27.5
	z"/>
</svg>
