<?xml version="1.0" encoding="utf-8"?>
<!-- Generator: Adobe Illustrator 26.3.1, SVG Export Plug-In . SVG Version: 6.00 Build 0)  -->
<svg version="1.1" id="Слой_1" xmlns="http://www.w3.org/2000/svg" xmlns:xlink="http://www.w3.org/1999/xlink" x="0px" y="0px"
	 viewBox="0 0 48 48" style="enable-background:new 0 0 48 48;" xml:space="preserve">
<path d="M29.1,22.1c-0.3-0.8-0.7-1.4-1.3-2c-0.6-0.5-1.2-0.9-2-1.2V6.1c4.3,0.4,7.9,2.1,11,5.1c3,3,4.8,6.6,5.2,10.9
	C42,22.1,29.1,22.1,29.1,22.1z M22.2,41.9c-4.6-0.4-8.5-2.4-11.5-5.8C7.6,32.7,6.1,28.7,6.1,24s1.5-8.7,4.6-12.2S17.6,6.4,22.3,6v13
	c-1.1,0.4-1.9,1.1-2.6,2s-1,2-1,3.1s0.3,2.1,1,3s1.5,1.5,2.6,1.9v12.9H22.2z M25.8,41.9v-13c0.8-0.2,1.5-0.6,2-1.2
	c0.6-0.5,1-1.2,1.3-2h12.8c-0.4,4.3-2.1,8-5.2,11C33.7,39.8,30.1,41.5,25.8,41.9z"/>
</svg>
