<?xml version="1.0" encoding="utf-8"?>
<!-- Generator: Adobe Illustrator 26.3.1, SVG Export Plug-In . SVG Version: 6.00 Build 0)  -->
<svg version="1.1" id="Слой_1" xmlns="http://www.w3.org/2000/svg" xmlns:xlink="http://www.w3.org/1999/xlink" x="0px" y="0px"
	 viewBox="0 0 48 48" style="enable-background:new 0 0 48 48;" xml:space="preserve">
<path d="M24,34.2c0.4,0,0.8-0.1,1.1-0.4c0.3-0.3,0.5-0.6,0.6-1h-3.5c0.1,0.4,0.3,0.8,0.6,1C23.2,34.1,23.6,34.2,24,34.2z M16.8,31.8
	h14.5v-1.3h-2v-4.7c0-1.4-0.4-2.6-1.1-3.8c-0.7-1.2-1.7-1.9-3-2.2V19c0-0.3-0.1-0.6-0.3-0.8c-0.2-0.2-0.5-0.3-0.8-0.3
	s-0.6,0.1-0.8,0.3C23.1,18.4,23,18.7,23,19v0.8c-1.3,0.3-2.4,1-3.1,2.2s-1,2.4-1,3.8v4.7h-2v1.3H16.8z M10,40V19L24,8.5L38,19v21H10
	z"/>
</svg>
