<?xml version="1.0" encoding="utf-8"?>
<!-- Generator: Adobe Illustrator 26.3.1, SVG Export Plug-In . SVG Version: 6.00 Build 0)  -->
<svg version="1.1" id="Слой_1" xmlns="http://www.w3.org/2000/svg" xmlns:xlink="http://www.w3.org/1999/xlink" x="0px" y="0px"
	 viewBox="0 0 48 48" style="enable-background:new 0 0 48 48;" xml:space="preserve">
<path d="M18.8,40c-0.7,0-1.4-0.3-1.9-0.8c-0.6-0.6-0.9-1.2-0.9-2V32h8.5c0.6,0,1.1-0.2,1.5-0.6s0.6-0.9,0.6-1.5s-0.2-1.1-0.6-1.5
	s-0.9-0.6-1.5-0.6H16v-17c0-0.7,0.3-1.4,0.8-1.9C17.4,8.3,18,8,18.8,8h10.5c0.7,0,1.4,0.3,1.9,0.8c0.5,0.6,0.8,1.2,0.8,2v26.5
	c0,0.7-0.3,1.4-0.8,1.9c-0.6,0.5-1.2,0.8-2,0.8H18.8z M11.5,30.8c-0.2,0-0.4-0.1-0.5-0.2s-0.2-0.3-0.2-0.6c0-0.2,0.1-0.4,0.2-0.5
	c0.1-0.1,0.3-0.2,0.5-0.2h13c0.2,0,0.4,0.1,0.5,0.2s0.2,0.3,0.2,0.6c0,0.2-0.1,0.4-0.2,0.5s-0.3,0.2-0.5,0.2H11.5z M24,19.3
	c0.4,0,0.7-0.1,0.9-0.4c0.3-0.3,0.4-0.6,0.4-0.9c0-0.4-0.1-0.7-0.4-0.9c-0.3-0.3-0.6-0.4-0.9-0.4c-0.4,0-0.7,0.1-0.9,0.4
	c-0.3,0.3-0.4,0.6-0.4,0.9s0.1,0.7,0.4,0.9C23.4,19.2,23.7,19.3,24,19.3z M39.2,16.8c-0.2,0-0.4-0.1-0.5-0.2s-0.2-0.3-0.2-0.5V8
	c0-0.2,0.1-0.4,0.2-0.5c0.1-0.1,0.3-0.2,0.6-0.2c0.2,0,0.4,0.1,0.5,0.2S40,7.8,40,8v8c0,0.2-0.1,0.4-0.2,0.5
	C39.6,16.7,39.4,16.8,39.2,16.8z"/>
</svg>
