<?xml version="1.0" encoding="utf-8"?>
<!-- Generator: Adobe Illustrator 26.3.1, SVG Export Plug-In . SVG Version: 6.00 Build 0)  -->
<svg version="1.1" id="Слой_1" xmlns="http://www.w3.org/2000/svg" xmlns:xlink="http://www.w3.org/1999/xlink" x="0px" y="0px"
	 viewBox="0 0 48 48" style="enable-background:new 0 0 48 48;" xml:space="preserve">
<path d="M8.9,40v-1.5H12V10c0-0.7,0.3-1.4,0.8-1.9c0.6-0.6,1.2-0.8,1.9-0.8h18.5c0.7,0,1.4,0.3,1.9,0.8C35.7,8.6,36,9.3,36,10v28.5
	h3.1V40H8.9z M30,38.5h4.5V10c0-0.4-0.1-0.7-0.3-0.9s-0.5-0.3-0.9-0.3h-6.9V8.5c1,0.1,1.8,0.5,2.6,1.3c0.7,0.8,1,1.7,1,2.8V38.5z
	 M22,25.3c0.4,0,0.7-0.1,0.9-0.4c0.3-0.3,0.4-0.6,0.4-0.9s-0.1-0.7-0.4-0.9c-0.3-0.3-0.6-0.4-0.9-0.4c-0.4,0-0.7,0.1-0.9,0.4
	c-0.3,0.3-0.4,0.6-0.4,0.9s0.1,0.7,0.4,0.9C21.4,25.2,21.7,25.3,22,25.3z"/>
</svg>
