<?xml version="1.0" encoding="utf-8"?>
<!-- Generator: Adobe Illustrator 26.3.1, SVG Export Plug-In . SVG Version: 6.00 Build 0)  -->
<svg version="1.1" id="Слой_1" xmlns="http://www.w3.org/2000/svg" xmlns:xlink="http://www.w3.org/1999/xlink" x="0px" y="0px"
	 viewBox="0 0 48 48" style="enable-background:new 0 0 48 48;" xml:space="preserve">
<path d="M19.7,25.3c0.4,0,0.7-0.1,1-0.4s0.4-0.6,0.4-1s-0.1-0.7-0.4-1s-0.6-0.4-1-0.4s-0.7,0.1-1,0.4s-0.4,0.6-0.4,1s0.1,0.7,0.4,1
	C19,25.2,19.3,25.3,19.7,25.3z M28.4,25.3c0.4,0,0.7-0.1,1-0.4s0.4-0.6,0.4-1s-0.1-0.7-0.4-1s-0.6-0.4-1-0.4s-0.7,0.1-1,0.4
	s-0.4,0.6-0.4,1s0.1,0.7,0.4,1C27.6,25.2,28,25.3,28.4,25.3z M9,40v-1.5h2.1V10.8c0-0.7,0.3-1.4,0.8-1.9c0.5-0.6,1.2-0.8,2-0.8h9.4
	v30.5h1.3V8H34c0.8,0,1.4,0.3,2,0.8c0.5,0.6,0.8,1.2,0.8,1.9v27.7H39V40H9z"/>
</svg>
