<?xml version="1.0" encoding="utf-8"?>
<!-- Generator: Adobe Illustrator 26.3.1, SVG Export Plug-In . SVG Version: 6.00 Build 0)  -->
<svg version="1.1" id="Слой_1" xmlns="http://www.w3.org/2000/svg" xmlns:xlink="http://www.w3.org/1999/xlink" x="0px" y="0px"
	 viewBox="0 0 48 48" style="enable-background:new 0 0 48 48;" xml:space="preserve">
<path d="M37.1,45c-0.8,0-1.5-0.1-2.3-0.2c-0.7-0.1-1.5-0.3-2.2-0.6l-27.5-10L5.5,33l14.3,5.2l3.7-9.1L15,20.9
	c-0.7-0.6-0.9-1.4-0.8-2.3c0.1-0.9,0.6-1.6,1.4-2l8.5-5c0.4-0.2,0.8-0.3,1.2-0.4c0.4,0,0.8,0,1.2,0.2c0.4,0.1,0.7,0.4,1,0.7
	s0.5,0.7,0.7,1.1l0.6,2.1c0.6,2,1.5,3.6,2.6,4.8c1.1,1.2,2.5,2.1,4.4,2.6l1.1-3.3l1.2,0.4l-1.6,4.7c-2.4-0.6-4.3-1.5-5.7-2.8
	c-1.4-1.2-2.5-3.1-3.3-5.6L19.2,21l6.1,7.4l-4.1,10.3l8.2,2.9L34,27.8c0.2,0.1,0.4,0.2,0.6,0.3c0.2,0.1,0.4,0.1,0.6,0.2l-4.6,13.9
	l2.3,0.8c0.8,0.3,1.5,0.4,2.1,0.6c0.7,0.1,1.4,0.2,2.1,0.2c0.9,0,1.7-0.1,2.5-0.2c0.8-0.1,1.6-0.4,2.4-0.7l0.9,1
	c-0.9,0.5-1.9,0.8-2.8,0.9C39.2,44.9,38.2,45,37.1,45z M32.5,12.1c-0.9,0-1.6-0.3-2.2-1c-0.6-0.6-0.9-1.4-0.9-2.3s0.3-1.7,0.9-2.3
	s1.4-0.9,2.2-0.9c0.9,0,1.7,0.3,2.3,0.9s0.9,1.4,0.9,2.3s-0.3,1.6-0.9,2.3C34.2,11.7,33.4,12.1,32.5,12.1z"/>
</svg>
