<?xml version="1.0" encoding="utf-8"?>
<!-- Generator: Adobe Illustrator 26.3.1, SVG Export Plug-In . SVG Version: 6.00 Build 0)  -->
<svg version="1.1" id="Слой_1" xmlns="http://www.w3.org/2000/svg" xmlns:xlink="http://www.w3.org/1999/xlink" x="0px" y="0px"
	 viewBox="0 0 48 48" style="enable-background:new 0 0 48 48;" xml:space="preserve">
<path d="M24,4.4l17.2,10.3c0.3,0.2,0.5,0.4,0.6,0.7s0.2,0.5,0.2,0.8v21.1c0,0.8-0.3,1.4-0.8,2c-0.5,0.5-1.2,0.8-2,0.8H8.8
	c-0.8,0-1.4-0.3-2-0.8C6.3,38.7,6,38,6,37.2V16.1c0-0.2,0.1-0.5,0.2-0.8s0.3-0.5,0.6-0.7L24,4.4z M24,25.3l16.1-9.5L24,6.1L7.9,15.8
	L24,25.3z"/>
</svg>
