<?xml version="1.0" encoding="utf-8"?>
<!-- Generator: Adobe Illustrator 26.3.1, SVG Export Plug-In . SVG Version: 6.00 Build 0)  -->
<svg version="1.1" id="Слой_1" xmlns="http://www.w3.org/2000/svg" xmlns:xlink="http://www.w3.org/1999/xlink" x="0px" y="0px"
	 viewBox="0 0 48 48" style="enable-background:new 0 0 48 48;" xml:space="preserve">
<path d="M24,42.6l-7-7l1.1-1.1l5.1,5.1V24.8H8.4l4.9,5l-1.1,1.1L5.4,24l6.9-6.9l1.1,1.1l-5,5h14.8V8.4l-4.9,4.9l-1.1-1.1L24,5.4
	l6.8,6.8l-1.1,1.1l-4.9-4.9v14.8h14.8l-4.9-5l1.1-1.1l6.8,6.8l-6.8,6.8l-1.1-1.1l4.9-4.9H24.8v14.8l5.1-5.1l1.1,1.1L24,42.6z"/>
</svg>
