<?xml version="1.0" encoding="utf-8"?>
<!-- Generator: Adobe Illustrator 26.3.1, SVG Export Plug-In . SVG Version: 6.00 Build 0)  -->
<svg version="1.1" id="Слой_1" xmlns="http://www.w3.org/2000/svg" xmlns:xlink="http://www.w3.org/1999/xlink" x="0px" y="0px"
	 viewBox="0 0 48 48" style="enable-background:new 0 0 48 48;" xml:space="preserve">
<path d="M17.9,38.5c-0.6,0-1.2-0.2-1.6-0.7c-0.5-0.5-0.7-1-0.7-1.6s0.2-1.2,0.7-1.6c0.5-0.5,1-0.7,1.6-0.7s1.2,0.2,1.6,0.7
	c0.5,0.5,0.7,1,0.7,1.6s-0.2,1.2-0.7,1.6C19,38.2,18.5,38.5,17.9,38.5z M30.1,38.5c-0.6,0-1.2-0.2-1.6-0.7c-0.5-0.5-0.7-1-0.7-1.6
	s0.2-1.2,0.7-1.6c0.5-0.5,1-0.7,1.6-0.7s1.2,0.2,1.6,0.7c0.5,0.5,0.7,1,0.7,1.6s-0.2,1.2-0.7,1.6C31.3,38.2,30.7,38.5,30.1,38.5z
	 M17.9,26.3c-0.6,0-1.2-0.2-1.6-0.7c-0.5-0.5-0.7-1-0.7-1.6s0.2-1.2,0.7-1.6c0.5-0.5,1-0.7,1.6-0.7s1.2,0.2,1.6,0.7
	c0.5,0.5,0.7,1,0.7,1.6s-0.2,1.2-0.7,1.6C19,26.1,18.5,26.3,17.9,26.3z M30.1,26.3c-0.6,0-1.2-0.2-1.6-0.7s-0.7-1-0.7-1.6
	s0.2-1.2,0.7-1.6c0.5-0.5,1-0.7,1.6-0.7s1.2,0.2,1.6,0.7c0.5,0.5,0.7,1,0.7,1.6s-0.2,1.2-0.7,1.6C31.3,26.1,30.7,26.3,30.1,26.3z
	 M17.9,14.2c-0.6,0-1.2-0.2-1.6-0.7c-0.5-0.5-0.7-1-0.7-1.6s0.2-1.2,0.7-1.6c0.5-0.5,1-0.7,1.6-0.7s1.2,0.2,1.6,0.7
	c0.5,0.5,0.7,1,0.7,1.6s-0.2,1.2-0.7,1.6C19,14,18.5,14.2,17.9,14.2z M30.1,14.2c-0.6,0-1.2-0.2-1.6-0.7c-0.5-0.5-0.7-1-0.7-1.6
	s0.2-1.2,0.7-1.6c0.5-0.5,1-0.7,1.6-0.7s1.2,0.2,1.6,0.7c0.5,0.5,0.7,1,0.7,1.6s-0.2,1.2-0.7,1.6C31.3,14,30.7,14.2,30.1,14.2z"/>
</svg>
