<?xml version="1.0" encoding="utf-8"?>
<!-- Generator: Adobe Illustrator 26.3.1, SVG Export Plug-In . SVG Version: 6.00 Build 0)  -->
<svg version="1.1" id="Слой_1" xmlns="http://www.w3.org/2000/svg" xmlns:xlink="http://www.w3.org/1999/xlink" x="0px" y="0px"
	 viewBox="0 0 48 48" style="enable-background:new 0 0 48 48;" xml:space="preserve">
<path d="M24,34c-2.6,0-4.8-0.8-6.6-2.5c-1.9-1.7-3-3.8-3.3-6.3l1.7,0.5c0.4,2,1.3,3.6,2.9,4.8s3.3,1.9,5.4,1.9c2.3,0,4.3-0.8,6-2.5
	c1.6-1.6,2.5-3.6,2.5-6c0-2.1-0.6-3.8-1.9-5.4c-1.3-1.5-2.9-2.5-4.8-2.9L25.4,14c2.5,0.3,4.6,1.4,6.3,3.3c1.7,1.9,2.5,4.1,2.5,6.6
	c0,2.8-1,5.2-2.9,7.1C29.2,33,26.8,34,24,34z M24,42c-2.5,0-4.8-0.5-7-1.4s-4.1-2.2-5.7-3.8S8.4,33.2,7.4,31C6.5,28.8,6,26.5,6,24
	c0-0.2,0-0.4,0-0.6s0-0.4,0.1-0.6l1.5,0.4V24c0,4.6,1.6,8.5,4.8,11.7s7.1,4.8,11.7,4.8s8.5-1.6,11.7-4.8s4.8-7.1,4.8-11.7
	s-1.6-8.5-4.8-11.7C32.5,9.1,28.6,7.5,24,7.5h-0.7L22.8,6c0.2,0,0.4,0,0.6,0c0.2,0,0.4,0,0.6,0c2.5,0,4.8,0.5,7,1.4s4.1,2.2,5.7,3.8
	c1.6,1.6,2.9,3.5,3.8,5.7c0.9,2.2,1.4,4.5,1.4,7s-0.5,4.8-1.4,7s-2.2,4.1-3.8,5.7s-3.5,2.9-5.7,3.8C28.8,41.5,26.5,42,24,42z
	 M21.5,23.6L11.9,14l-1.8,5.6L6,6l13.5,4.1l-5.6,1.8l9.6,9.6C23.6,21.5,21.5,23.6,21.5,23.6z"/>
</svg>
