<?xml version="1.0" encoding="utf-8"?>
<!-- Generator: Adobe Illustrator 26.3.1, SVG Export Plug-In . SVG Version: 6.00 Build 0)  -->
<svg version="1.1" id="Слой_1" xmlns="http://www.w3.org/2000/svg" xmlns:xlink="http://www.w3.org/1999/xlink" x="0px" y="0px"
	 viewBox="0 0 48 48" style="enable-background:new 0 0 48 48;" xml:space="preserve">
<path d="M27.6,42v-6.1L22.1,35c-1.3-0.2-2.2-0.6-2.9-1.2c-0.7-0.6-1-1.3-1-2.2c0-0.9,0.3-1.6,1-2.1s1.5-0.7,2.7-0.8
	c0.6,0,1.1,0,1.6,0.1s0.9,0.1,1.3,0.1c0.6,0,1.1-0.2,1.5-0.5c0.4-0.4,0.6-0.8,0.6-1.4c0-0.5-0.2-1-0.5-1.5s-0.8-1.1-1.5-1.7
	c-0.5-0.5-1-0.9-1.5-1.4s-0.8-1.1-0.8-1.8c0-0.6,0.2-1.1,0.6-1.5s1-0.6,1.6-0.6c0.4,0,0.8,0.1,1.2,0.2c0.3,0.3,0.6,0.3,1,0.3
	c0.6,0,1.1-0.2,1.4-0.7s0.5-1.2,0.5-2.3c0-0.6,0-1.1-0.1-1.7c-0.1-0.5-0.1-1.1-0.1-1.5c0-1.5,0.4-2.7,1.1-3.5s1.8-1.2,3-1.2
	s2.2,0.3,3,1s1.2,1.6,1.2,2.6s-0.2,1.8-0.7,2.6s-0.7,1.5-0.7,2.3c0,0.5,0.2,1,0.5,1.3c0.3,0.4,0.8,0.6,1.3,0.6
	c0.3,0,0.6-0.1,0.9-0.2c0.3-0.1,0.7-0.2,1.1-0.2c1,0,1.8,0.3,2.4,1c0.7,0.7,1,1.5,1,2.5c0,0.9-0.3,1.7-1,2.4
	c-0.6,0.7-1.6,1.2-2.8,1.6c-0.9,0.3-1.5,0.6-1.9,1s-0.7,0.8-0.7,1.2c0,0.5,0.3,1,0.8,1.4c0.5,0.5,1.3,0.8,2.3,1.1
	c1,0.3,1.6,0.7,2.1,1.1s0.6,1,0.6,1.6c0,1.2-0.5,2-1.6,2.4s-2.1,0.7-3,0.9l-4.1,0.9V42C33.6,42,27.6,42,27.6,42z M7.4,40L6,39.3
	l9.3-20.2l1.4,0.6C16.7,19.7,7.4,40,7.4,40z M7.8,20.4c-0.6-0.8-1-1.7-1.3-2.6S6,15.9,6,14.9c0-2.5,0.9-4.6,2.6-6.3S12.4,6,14.9,6
	c1,0,2,0.2,3,0.5s1.8,0.8,2.6,1.4l-1.1,1c-0.6-0.4-1.3-0.8-2.1-1c-0.7-0.2-1.5-0.3-2.3-0.3c-2.1,0-3.8,0.7-5.3,2.2
	c-1.5,1.4-2.2,3.2-2.2,5.3c0,0.8,0.1,1.5,0.3,2.3c0.2,0.7,0.6,1.4,1,2.1C8.9,19.3,7.8,20.4,7.8,20.4z"/>
</svg>
