<?xml version="1.0" encoding="utf-8"?>
<!-- Generator: Adobe Illustrator 26.3.1, SVG Export Plug-In . SVG Version: 6.00 Build 0)  -->
<svg version="1.1" id="Слой_1" xmlns="http://www.w3.org/2000/svg" xmlns:xlink="http://www.w3.org/1999/xlink" x="0px" y="0px"
	 viewBox="0 0 48 48" style="enable-background:new 0 0 48 48;" xml:space="preserve">
<path d="M10,40v-4L37.4,8.5c0.2-0.2,0.4-0.3,0.6-0.4C38.2,8,38.4,8,38.6,8c0.2,0,0.4,0,0.6,0.1c0.2,0.1,0.4,0.2,0.6,0.4l1.7,1.7
	c0.2,0.2,0.3,0.3,0.4,0.5c0.1,0.2,0.1,0.4,0.1,0.6c0,0.2,0,0.4-0.1,0.6c-0.1,0.2-0.2,0.4-0.4,0.6L14,40H10z M37.3,14.5l3.2-3.2
	l-1.9-1.9l-3.2,3.2L37.3,14.5z M28.5,40c2.3,0,4.3-0.5,6.2-1.6c1.9-1,2.8-2.5,2.8-4.4c0-1.2-0.5-2.3-1.4-3.3s-2.4-1.8-4.3-2.4
	l-1.2,1.3c1.7,0.5,3,1.1,4,1.9s1.5,1.7,1.5,2.6c0,1.3-0.7,2.3-2.2,3.2s-3.2,1.3-5.3,1.3c-0.2,0-0.4,0.1-0.6,0.2
	c-0.1,0.1-0.2,0.3-0.2,0.6c0,0.2,0.1,0.4,0.2,0.6C28.1,39.9,28.3,40,28.5,40z M12.5,27.3l1.2-1.2c-1.4-0.5-2.5-0.9-3.2-1.5
	c-0.7-0.5-1-1.1-1-1.6c0-0.7,0.4-1.3,1.2-1.9s2.3-1.4,4.5-2.2c2.5-1,4.3-1.9,5.2-2.8s1.4-1.9,1.4-3c0-1.5-0.6-2.7-1.9-3.6
	C18.6,8.5,17,8,15,8c-1.2,0-2.4,0.2-3.5,0.6c-1.1,0.4-1.9,1-2.4,1.6c0,0.3-0.1,0.4-0.1,0.6s0.1,0.4,0.3,0.5s0.3,0.2,0.5,0.1
	c0.2,0,0.4-0.1,0.5-0.2c0.6-0.6,1.2-1,2-1.3C13.2,9.7,14,9.5,15,9.5c1.7,0,2.9,0.3,3.9,1c0.9,0.7,1.4,1.5,1.4,2.5
	c0,0.8-0.4,1.5-1.1,2.1s-2.2,1.4-4.5,2.3c-2.7,1.1-4.5,2-5.3,2.9C8.4,21.1,8,22,8,23c0,0.8,0.4,1.6,1.1,2.4
	C9.8,26.2,10.9,26.8,12.5,27.3z"/>
</svg>
