<?xml version="1.0" encoding="utf-8"?>
<!-- Generator: Adobe Illustrator 26.3.1, SVG Export Plug-In . SVG Version: 6.00 Build 0)  -->
<svg version="1.1" id="Слой_1" xmlns="http://www.w3.org/2000/svg" xmlns:xlink="http://www.w3.org/1999/xlink" x="0px" y="0px"
	 viewBox="0 0 48 48" style="enable-background:new 0 0 48 48;" xml:space="preserve">
<path d="M33.8,39.3l-1.1-1.1l7.4-7.4h-6.9v-1.5h9.5v9.5h-1.5v-6.9L33.8,39.3z M11.6,41c-0.4,0-0.8-0.1-1.2-0.3s-0.7-0.5-0.9-0.8
	L5,32c-0.2-0.4-0.3-0.8-0.3-1.2c0-0.4,0.1-0.8,0.3-1.2L17.5,8.2c0.2-0.3,0.5-0.6,0.9-0.8C18.8,7.1,19.2,7,19.5,7h8.9
	c0.4,0,0.8,0.1,1.2,0.3c0.4,0.2,0.7,0.5,0.9,0.8l8,13.8c-0.3,0-0.6,0-0.9,0c-0.3,0-0.6,0-0.9,0L28.9,8.5H19L6,30.8l4.9,8.7h16.3
	c0.2,0.3,0.3,0.5,0.5,0.8c0.2,0.2,0.4,0.5,0.5,0.7C28.3,41,11.6,41,11.6,41z M15.1,33l-0.9-1.6L23,16.1h2l5,8.8
	c-0.2,0.2-0.4,0.4-0.6,0.6s-0.4,0.4-0.5,0.6L24,17.5l-8,14h10.2c0,0.2-0.1,0.5-0.1,0.7c0,0.3-0.1,0.5-0.1,0.8H15.1z"/>
</svg>
