<?xml version="1.0" encoding="utf-8"?>
<!-- Generator: Adobe Illustrator 26.3.1, SVG Export Plug-In . SVG Version: 6.00 Build 0)  -->
<svg version="1.1" id="Слой_1" xmlns="http://www.w3.org/2000/svg" xmlns:xlink="http://www.w3.org/1999/xlink" x="0px" y="0px"
	 viewBox="0 0 48 48" style="enable-background:new 0 0 48 48;" xml:space="preserve">
<path d="M23.7,32.3l1.1-1.1l-4.4-4.4h10.2v-1.5H20.4l4.4-4.5l-1.1-1.1L17.4,26L23.7,32.3z M8.8,38c-0.8,0-1.5-0.3-2-0.8S6,36,6,35.2
	v-21c0-0.8,0.3-1.4,0.8-1.9s1.2-0.8,2-0.8H22l2,2h15.2c0.8,0,1.4,0.3,2,0.8s0.8,1.2,0.8,2v18.9c0,0.8-0.3,1.4-0.8,2S40,38,39.2,38
	H8.8z"/>
</svg>
