<?xml version="1.0" encoding="utf-8"?>
<!-- Generator: Adobe Illustrator 26.3.1, SVG Export Plug-In . SVG Version: 6.00 Build 0)  -->
<svg version="1.1" id="Слой_1" xmlns="http://www.w3.org/2000/svg" xmlns:xlink="http://www.w3.org/1999/xlink" x="0px" y="0px"
	 viewBox="0 0 48 48" style="enable-background:new 0 0 48 48;" xml:space="preserve">
<path d="M11.7,37.2c-0.5-0.2-0.9-0.5-1.3-1c-0.3-0.5-0.5-1-0.5-1.6v-27c0-0.6,0.3-1,0.8-1.3c0.5-0.3,1.1-0.4,1.7-0.1l11.8,4.6
	c0.5,0.2,0.9,0.6,1.3,1c0.3,0.5,0.5,1,0.5,1.6V39c0,1-0.4,1.7-1.2,2.3s-1.7,0.6-2.6,0.3L11.7,37.2z M29.5,36V13.3
	c0-2-0.8-3.5-2.5-4.6s-3.5-2-5.4-2.7h13.6c0.8,0,1.4,0.3,1.9,0.8C37.7,7.4,38,8,38,8.8v24.5c0,0.8-0.3,1.4-0.8,1.9S36,36,35.2,36
	H29.5z"/>
</svg>
