<?xml version="1.0" encoding="utf-8"?>
<!-- Generator: Adobe Illustrator 26.3.1, SVG Export Plug-In . SVG Version: 6.00 Build 0)  -->
<svg version="1.1" id="Слой_1" xmlns="http://www.w3.org/2000/svg" xmlns:xlink="http://www.w3.org/1999/xlink" x="0px" y="0px"
	 viewBox="0 0 48 48" style="enable-background:new 0 0 48 48;" xml:space="preserve">
<path d="M15.9,41c-2.5,0-4.6-0.9-6.3-2.6S7,34.6,7,32.1V11.5c0-1.2,0.5-2.3,1.6-3.2C9.6,7.4,10.8,7,12,7s2.3,0.5,3.3,1.5
	s1.5,2.1,1.5,3.3c0,1.3-0.5,2.5-1.5,3.4c-1,1-2.1,1.4-3.4,1.4H8.5V32c0,2.1,0.7,3.8,2.1,5.2s3.2,2.1,5.2,2.1c2.1,0,3.8-0.7,5.2-2.1
	c1.4-1.4,2.1-3.2,2.1-5.2V15.9c0-2.5,0.9-4.6,2.6-6.3c1.9-1.7,4-2.6,6.4-2.6c2.5,0,4.6,0.9,6.3,2.6s2.6,3.8,2.6,6.3v20.2
	c0,1.3-0.4,2.5-1.3,3.5c-0.9,1-1.9,1.5-3.2,1.5s-2.5-0.5-3.6-1.5c-1.1-1-1.6-2.1-1.6-3.5c0-1.3,0.5-2.4,1.4-3.4c1-1,2.1-1.4,3.4-1.4
	h3.3V15.9c0-2-0.7-3.8-2.1-5.2c-1.4-1.4-3.2-2.1-5.2-2.1s-3.8,0.7-5.2,2.1c-1.4,1.4-2.1,3.1-2.1,5.2v16.2c0,2.5-0.9,4.6-2.6,6.3
	C20.5,40.1,18.4,41,15.9,41z"/>
</svg>
