<?xml version="1.0" encoding="utf-8"?>
<!-- Generator: Adobe Illustrator 26.3.1, SVG Export Plug-In . SVG Version: 6.00 Build 0)  -->
<svg version="1.1" id="Слой_1" xmlns="http://www.w3.org/2000/svg" xmlns:xlink="http://www.w3.org/1999/xlink" x="0px" y="0px"
	 viewBox="0 0 48 48" style="enable-background:new 0 0 48 48;" xml:space="preserve">
<path d="M34.2,41.4c-1.4,0-2.7-0.5-3.7-1.5S29,37.7,29,36.2c0-1.4,0.5-2.6,1.5-3.6s2.2-1.5,3.7-1.5c1.4,0,2.7,0.5,3.6,1.5
	c1,1,1.5,2.2,1.5,3.6c0,1.4-0.5,2.7-1.5,3.7C36.9,40.9,35.7,41.4,34.2,41.4z M33.6,28.4v-3.3h1.3v3.3H33.6z M33.6,47.4v-3.3h1.3v3.3
	H33.6z M40.2,31.1l-0.9-0.9l2.3-2.3l1,0.9C42.6,28.8,40.2,31.1,40.2,31.1z M26.8,44.6l-0.9-0.9l2.3-2.4l0.9,0.9
	C29.2,42.2,26.8,44.6,26.8,44.6z M42.1,36.9v-1.3h3.3v1.3H42.1z M23.1,36.9v-1.3h3.3v1.3H23.1z M41.7,44.6l-2.3-2.4l0.9-0.9l2.3,2.3
	L41.7,44.6z M28.2,31.1l-2.3-2.3l0.9-0.9l2.3,2.3L28.2,31.1z M10.8,42c-0.8,0-1.4-0.3-2-0.8C8.3,40.7,8,40,8,39.2V12.3
	c0-0.8,0.3-1.4,0.8-2c0.5-0.5,1.2-0.8,2-0.8h4.1v-4h1.8v4h14.8v-4h1.7v4h4.1c0.8,0,1.4,0.3,2,0.8c0.5,0.5,0.8,1.2,0.8,2V21H9.5v18.2
	c0,0.3,0.1,0.6,0.4,0.8s0.5,0.4,0.8,0.4H19V42H10.8z"/>
</svg>
