<?xml version="1.0" encoding="utf-8"?>
<!-- Generator: Adobe Illustrator 26.3.1, SVG Export Plug-In . SVG Version: 6.00 Build 0)  -->
<svg version="1.1" id="Слой_1" xmlns="http://www.w3.org/2000/svg" xmlns:xlink="http://www.w3.org/1999/xlink" x="0px" y="0px"
	 viewBox="0 0 48 48" style="enable-background:new 0 0 48 48;" xml:space="preserve">
<path d="M6,23.2V12.8c0-0.8,0.3-1.4,0.8-2C7.3,10.3,8,10,8.8,10h30.5c0.8,0,1.4,0.3,2,0.8c0.5,0.5,0.8,1.2,0.8,2v12.4
	c-0.3-0.1-0.5-0.1-0.7-0.2c-0.2,0-0.5,0-0.8,0c-0.8,0-1.5,0.1-2.3,0.3c-0.8,0.2-1.5,0.5-2.2,0.9c-0.5-0.3-1.1-0.6-1.6-0.8
	c-0.5-0.2-1.1-0.3-1.6-0.4v-1.8h-6.3l-3.8-7.6c-0.1-0.1-0.2-0.2-0.3-0.2c-0.1,0-0.3-0.1-0.4-0.1s-0.3,0-0.4,0.1
	c-0.1,0-0.2,0.1-0.3,0.2L14,30.3l-3.3-6.6c-0.1-0.1-0.1-0.2-0.3-0.3c-0.1-0.1-0.3-0.1-0.4-0.1C10,23.2,6,23.2,6,23.2z M8.8,38
	c-0.8,0-1.4-0.3-2-0.8C6.3,36.7,6,36,6,35.2V24.8h3.5l3.8,7.6c0.1,0.1,0.2,0.2,0.3,0.3s0.3,0.1,0.4,0.1s0.3,0,0.4-0.1
	c0.1-0.1,0.2-0.2,0.3-0.3L22,17.7l3.3,6.6c0.1,0.1,0.2,0.2,0.3,0.3c0.1,0.1,0.3,0.1,0.4,0.1h4.5c-2.1,0.3-3.9,1.3-5.4,3
	s-2.2,3.6-2.2,5.8c0,0.9,0.1,1.7,0.4,2.3c0.2,0.7,0.6,1.3,1.1,2.1H8.8V38z M31.5,29.3c0.6,0,1.2,0.1,1.8,0.4
	c0.5,0.3,1.1,0.7,1.6,1.2l1.1,1l1.1-1c0.6-0.6,1.1-1,1.7-1.2c0.5-0.3,1.1-0.4,1.8-0.4c1.1,0,2.1,0.4,3,1.3c0.8,0.8,1.2,1.9,1.2,3
	c0,0.9-0.4,1.8-1.2,2.8c-0.8,0.9-2.6,2.6-5.4,5L36,43.3l-2.2-1.9c-2.8-2.4-4.6-4.1-5.4-5s-1.2-1.9-1.2-2.8c0-1.2,0.4-2.2,1.2-3
	C29.4,29.7,30.4,29.3,31.5,29.3z"/>
</svg>
