<?xml version="1.0" encoding="utf-8"?>
<!-- Generator: Adobe Illustrator 26.3.1, SVG Export Plug-In . SVG Version: 6.00 Build 0)  -->
<svg version="1.1" id="Слой_1" xmlns="http://www.w3.org/2000/svg" xmlns:xlink="http://www.w3.org/1999/xlink" x="0px" y="0px"
	 viewBox="0 0 48 48" style="enable-background:new 0 0 48 48;" xml:space="preserve">
<path d="M32.6,7.8c2.6,0,4.8,1,6.6,3s2.7,4.4,2.7,7.3c0,0.7-0.1,1.5-0.2,2.2c-0.1,0.7-0.3,1.4-0.6,2.1H30.8l-3.5-5.3
	c-0.1-0.2-0.3-0.4-0.6-0.5c-0.2-0.1-0.5-0.2-0.7-0.2c-0.3,0-0.6,0.1-0.9,0.3c-0.3,0.2-0.5,0.5-0.6,0.8l-3,8.9l-2.2-3.3
	c-0.1-0.2-0.3-0.4-0.6-0.5c-0.2-0.1-0.5-0.2-0.7-0.2H6.9c-0.3-0.7-0.5-1.4-0.7-2.1C6.1,19.6,6,18.9,6,18.2c0-2.9,0.9-5.3,2.7-7.3
	s4-3,6.6-3c1.4,0,2.7,0.3,3.9,0.8c1.3,0.6,2.4,1.4,3.4,2.4l1.3,1.4l1.3-1.3c1-1.1,2.2-1.9,3.4-2.5C30,8.1,31.3,7.8,32.6,7.8z M24,40
	c-0.3,0-0.6-0.1-1-0.2c-0.3-0.1-0.6-0.3-0.8-0.6L9.6,26.6c-0.2-0.2-0.3-0.3-0.5-0.5c-0.1-0.2-0.3-0.3-0.4-0.5h8.4l3.5,5.3
	c0.1,0.2,0.3,0.4,0.6,0.5c0.2,0.1,0.5,0.2,0.7,0.2c0.3,0,0.6-0.1,1-0.3s0.5-0.5,0.6-0.8l3-8.9l2.2,3.3c0.2,0.2,0.4,0.4,0.6,0.5
	s0.5,0.2,0.7,0.2h9.3c-0.1,0.2-0.2,0.3-0.4,0.5c-0.1,0.2-0.3,0.3-0.5,0.5L25.7,39.3c-0.3,0.3-0.5,0.4-0.8,0.6S24.3,40,24,40z"/>
</svg>
