<?xml version="1.0" encoding="utf-8"?>
<!-- Generator: Adobe Illustrator 26.3.1, SVG Export Plug-In . SVG Version: 6.00 Build 0)  -->
<svg version="1.1" id="Слой_1" xmlns="http://www.w3.org/2000/svg" xmlns:xlink="http://www.w3.org/1999/xlink" x="0px" y="0px"
	 viewBox="0 0 48 48" style="enable-background:new 0 0 48 48;" xml:space="preserve">
<path d="M22.4,42c-1.4,0-2.8-0.2-4.1-0.5c-1.3-0.4-2.5-0.9-3.6-1.6c1-3.2,2.3-6.2,4-9.1c1.6-2.9,3.7-5.4,6.3-7.5
	c-2.9,1.7-5.4,3.8-7.6,6.4s-3.6,5.6-4.4,8.9c-0.1-0.1-0.3-0.3-0.4-0.4c-0.1-0.1-0.3-0.2-0.5-0.4c-1.3-1.3-2.3-2.9-3-4.6
	C8.4,31.6,8,29.8,8,28c0-2,0.4-4,1.2-5.8c0.8-1.9,1.9-3.5,3.3-4.9c2.3-2.3,5.2-3.8,8.8-4.5s9.1-0.9,16.5-0.5
	c0.5,7,0.4,12.4-0.4,16.1c-0.8,3.8-2.3,6.8-4.7,9.2c-1.4,1.4-3,2.5-4.8,3.3C26.2,41.6,24.3,42,22.4,42z"/>
</svg>
