<?xml version="1.0" encoding="utf-8"?>
<!-- Generator: Adobe Illustrator 26.3.1, SVG Export Plug-In . SVG Version: 6.00 Build 0)  -->
<svg version="1.1" id="Слой_1" xmlns="http://www.w3.org/2000/svg" xmlns:xlink="http://www.w3.org/1999/xlink" x="0px" y="0px"
	 viewBox="0 0 48 48" style="enable-background:new 0 0 48 48;" xml:space="preserve">
<path d="M14.8,44.5c-1.9,0-3.5-0.7-4.8-2s-2-2.9-2-4.8v-5.9h8.9l6.3,8.3l7.6-7.7l7.5-4.5c0.5-0.2,1-0.4,1.6-0.3
	c0.6,0,1.1,0.2,1.5,0.5l2,1.5L30,43.1c-0.5,0.5-1,0.8-1.6,1.1c-0.6,0.2-1.2,0.4-1.8,0.4C26.6,44.5,14.8,44.5,14.8,44.5z M8,30.3v-20
	c0-0.2,0.1-0.4,0.2-0.5c0.1-0.1,0.3-0.2,0.6-0.2c0.2,0,0.4,0.1,0.5,0.2c0.1,0.1,0.2,0.3,0.2,0.5v13h6v-17c0-0.2,0.1-0.4,0.2-0.5
	c0.1-0.1,0.3-0.2,0.6-0.2s0.4,0.1,0.5,0.2C17,5.9,17,6.1,17,6.3v17h6v-19c0-0.2,0.1-0.4,0.2-0.5s0.3-0.2,0.6-0.2s0.4,0.1,0.5,0.2
	c0.1,0.1,0.2,0.3,0.2,0.5v19h6v-15c0-0.2,0.1-0.4,0.2-0.5s0.3-0.2,0.6-0.2c0.2,0,0.4,0.1,0.5,0.2C31.9,7.9,32,8.1,32,8.3v20.8
	l-8.7,8.7l-5.6-7.6C17.6,30.3,8,30.3,8,30.3z"/>
</svg>
