<?xml version="1.0" encoding="utf-8"?>
<!-- Generator: Adobe Illustrator 26.3.1, SVG Export Plug-In . SVG Version: 6.00 Build 0)  -->
<svg version="1.1" id="Слой_1" xmlns="http://www.w3.org/2000/svg" xmlns:xlink="http://www.w3.org/1999/xlink" x="0px" y="0px"
	 viewBox="0 0 48 48" style="enable-background:new 0 0 48 48;" xml:space="preserve">
<path d="M38.3,38V13L35,16.2l-1.1-1.1L39,10l5.1,5.1L43,16.2L39.8,13v25H38.3z M8,34.1v-6.2L23.1,13c0.5-0.5,1.2-0.8,2-0.8
	s1.4,0.3,2,0.8l2.3,2.3c0.5,0.5,0.8,1.2,0.8,2s-0.3,1.4-0.8,1.9l-15,14.9H8z M25,21.4l3-3c0.3-0.2,0.4-0.5,0.4-0.9s-0.1-0.7-0.4-0.9
	l-2.3-2.3c-0.2-0.2-0.5-0.3-0.8-0.3s-0.6,0.1-0.9,0.3l-3.1,3C20.9,17.4,25,21.4,25,21.4z"/>
</svg>
