<?xml version="1.0" encoding="utf-8"?>
<!-- Generator: Adobe Illustrator 26.3.1, SVG Export Plug-In . SVG Version: 6.00 Build 0)  -->
<svg version="1.1" id="Слой_1" xmlns="http://www.w3.org/2000/svg" xmlns:xlink="http://www.w3.org/1999/xlink" x="0px" y="0px"
	 viewBox="0 0 48 48" style="enable-background:new 0 0 48 48;" xml:space="preserve">
<path d="M12.2,42L6,35.9l6.2-6.1l1.1,1.1L9,35.2h30l-4.3-4.3l1.1-1.1l6.2,6.1L35.8,42l-1.1-1.1l4.3-4.3H9l4.3,4.3L12.2,42z
	 M23.2,25.1V4.2h1.5v20.9C24.8,25.1,23.2,25.1,23.2,25.1z M15.6,21.3V8h1.5v13.3H15.6z M30.9,21.3V8h1.5v13.3H30.9z M8,16.4V13h1.5
	v3.4H8z M38.5,16.4V13H40v3.4H38.5z"/>
</svg>
