<?xml version="1.0" encoding="utf-8"?>
<!-- Generator: Adobe Illustrator 26.3.1, SVG Export Plug-In . SVG Version: 6.00 Build 0)  -->
<svg version="1.1" id="Слой_1" xmlns="http://www.w3.org/2000/svg" xmlns:xlink="http://www.w3.org/1999/xlink" x="0px" y="0px"
	 viewBox="0 0 48 48" style="enable-background:new 0 0 48 48;" xml:space="preserve">
<path d="M24,42c-4.7-4.2-8.2-8-10.6-11.6s-3.6-6.9-3.6-9.8c0-4.2,1.4-7.7,4.1-10.5C16.7,7.4,20,6,24,6c1,0,2,0.1,3,0.3
	c1,0.2,1.9,0.5,2.7,0.9L20,16.9v7.2h7.2l9.8-9.7c0.4,0.9,0.7,1.9,0.9,3c0.2,1,0.3,2.1,0.3,3.3c0,2.9-1.2,6.2-3.6,9.8
	C32.2,34,28.7,37.9,24,42z M24.3,19.8v-1.1L34.9,8.1L36,9.2L25.4,19.8H24.3z M37.5,7.7l-1.1-1.1l1.2-1.2c0.1-0.1,0.3-0.2,0.5-0.3
	c0.2,0,0.4,0,0.5,0.1l0.2,0.2c0.1,0.1,0.2,0.3,0.1,0.5c0,0.2-0.1,0.4-0.3,0.5C38.6,6.6,37.5,7.7,37.5,7.7z"/>
</svg>
