<?xml version="1.0" encoding="utf-8"?>
<!-- Generator: Adobe Illustrator 26.3.1, SVG Export Plug-In . SVG Version: 6.00 Build 0)  -->
<svg version="1.1" id="Слой_1" xmlns="http://www.w3.org/2000/svg" xmlns:xlink="http://www.w3.org/1999/xlink" x="0px" y="0px"
	 viewBox="0 0 48 48" style="enable-background:new 0 0 48 48;" xml:space="preserve">
<path d="M10,27.8v-1.5h14.5v1.5H10z M10,19.6v-1.5h22.7v1.5H10z M10,11.5V10h22.7v1.5H10z M26.5,38v-4.4L37.1,23
	c0.2-0.2,0.4-0.3,0.6-0.4s0.4-0.1,0.6-0.1c0.2,0,0.5,0,0.7,0.1s0.4,0.2,0.6,0.4l1.9,1.9c0.2,0.2,0.3,0.4,0.4,0.6
	c0.1,0.2,0.1,0.4,0.1,0.6s0,0.4-0.1,0.6s-0.2,0.4-0.4,0.6L30.9,38H26.5z M38.4,28l1.8-1.9l-1.8-1.9l-1.9,1.9L38.4,28z"/>
</svg>
