<?xml version="1.0" encoding="utf-8"?>
<!-- Generator: Adobe Illustrator 26.3.1, SVG Export Plug-In . SVG Version: 6.00 Build 0)  -->
<svg version="1.1" id="Слой_1" xmlns="http://www.w3.org/2000/svg" xmlns:xlink="http://www.w3.org/1999/xlink" x="0px" y="0px"
	 viewBox="0 0 48 48" style="enable-background:new 0 0 48 48;" xml:space="preserve">
<path d="M24,42.8c-0.9,0-1.7-0.3-2.3-0.9c-0.6-0.6-0.9-1.4-0.9-2.3h6.5c0,0.9-0.3,1.7-1,2.3C25.6,42.5,24.9,42.8,24,42.8z M10,37.5
	V36h3.2V19.6c0-2.6,0.8-4.9,2.5-7c1.6-2,3.7-3.3,6.3-3.7V8c0-0.6,0.2-1,0.6-1.4S23.4,6,24,6s1,0.2,1.4,0.6S26,7.4,26,8v0.9
	c0.6,0.1,1.2,0.3,1.8,0.5c0.5,0.2,1.1,0.5,1.6,0.7l-9.2,9.1v10.6h10.5l4.1-4.1V36H38v1.5H10z M24.5,25.5v-4.4l10.7-10.6
	c0.2-0.2,0.4-0.3,0.6-0.4C36,10,36.2,10,36.4,10c0.2,0,0.5,0,0.7,0.1s0.4,0.2,0.6,0.4l1.8,1.9c0.2,0.2,0.3,0.4,0.4,0.6
	c0.1,0.2,0.1,0.4,0.1,0.6c0,0.2,0,0.4-0.1,0.6c-0.1,0.2-0.2,0.4-0.4,0.6L28.9,25.5H24.5z M36.4,15.6l1.8-1.9l-1.8-1.9l-1.9,1.9
	L36.4,15.6z"/>
</svg>
