<?xml version="1.0" encoding="utf-8"?>
<!-- Generator: Adobe Illustrator 26.3.1, SVG Export Plug-In . SVG Version: 6.00 Build 0)  -->
<svg version="1.1" id="Слой_1" xmlns="http://www.w3.org/2000/svg" xmlns:xlink="http://www.w3.org/1999/xlink" x="0px" y="0px"
	 viewBox="0 0 48 48" style="enable-background:new 0 0 48 48;" xml:space="preserve">
<path d="M8,40v-4.1L35.4,8.4c0.1-0.1,0.3-0.2,0.5-0.3c0.3,0,0.5-0.1,0.7-0.1c0.2,0,0.4,0,0.6,0.1c0.2,0.1,0.4,0.2,0.5,0.3l1.9,1.9
	c0.1,0.1,0.3,0.3,0.3,0.5C40,11,40,11.2,40,11.4s0,0.4-0.1,0.6c-0.1,0.2-0.2,0.4-0.3,0.5L12.1,40H8z M35.8,14l2.6-2.6l-1.9-1.9
	L34,12.2L35.8,14z"/>
</svg>
