<?xml version="1.0" encoding="utf-8"?>
<!-- Generator: Adobe Illustrator 26.3.1, SVG Export Plug-In . SVG Version: 6.00 Build 0)  -->
<svg version="1.1" id="Слой_1" xmlns="http://www.w3.org/2000/svg" xmlns:xlink="http://www.w3.org/1999/xlink" x="0px" y="0px"
	 viewBox="0 0 48 48" style="enable-background:new 0 0 48 48;" xml:space="preserve">
<path d="M18,26h1.1l7.6-7.6l-1.1-1.1L18,24.9V26z M28.2,16.9l1.2-1.2c0.1-0.1,0.1-0.2,0.1-0.3s0-0.2-0.1-0.3l-0.5-0.5
	c-0.1-0.1-0.2-0.1-0.3-0.1c-0.1,0-0.2,0-0.3,0.1l-1.2,1.2C27.1,15.8,28.2,16.9,28.2,16.9z M24,42c-4.7-4.2-8.2-8-10.6-11.6
	s-3.6-6.9-3.6-9.8c0-4.2,1.4-7.7,4.1-10.5C16.7,7.4,20,6,24,6s7.3,1.4,10.1,4.1s4.1,6.2,4.1,10.5c0,2.9-1.2,6.2-3.6,9.8
	C32.2,34,28.7,37.9,24,42z"/>
</svg>
