<?xml version="1.0" encoding="utf-8"?>
<!-- Generator: Adobe Illustrator 26.3.1, SVG Export Plug-In . SVG Version: 6.00 Build 0)  -->
<svg version="1.1" id="Слой_1" xmlns="http://www.w3.org/2000/svg" xmlns:xlink="http://www.w3.org/1999/xlink" x="0px" y="0px"
	 viewBox="0 0 48 48" style="enable-background:new 0 0 48 48;" xml:space="preserve">
<path d="M14,32c-2.2,0-4.1-0.8-5.7-2.3C6.8,28.1,6,26.2,6,24s0.8-4.1,2.3-5.7C9.9,16.8,11.8,16,14,16h20c2.2,0,4.1,0.8,5.7,2.3
	c1.6,1.6,2.3,3.4,2.3,5.7s-0.8,4.1-2.3,5.7C38.1,31.2,36.2,32,34,32H14z M16.1,27.7l6.2-6.2l-1.1-1.2l-5.1,5.1l-2-2.1l-1.2,1.2
	L16.1,27.7z"/>
</svg>
