<?xml version="1.0" encoding="utf-8"?>
<!-- Generator: Adobe Illustrator 26.3.1, SVG Export Plug-In . SVG Version: 6.00 Build 0)  -->
<svg version="1.1" id="Слой_1" xmlns="http://www.w3.org/2000/svg" xmlns:xlink="http://www.w3.org/1999/xlink" x="0px" y="0px"
	 viewBox="0 0 48 48" style="enable-background:new 0 0 48 48;" xml:space="preserve">
<path d="M32,42c-1.9,0-3.3-0.3-4.3-1s-1.8-1.4-2.5-2.1c-0.7-0.8-1.5-1.5-2.2-2.1S21.2,36,20,36c-1.3,0-2.8-0.2-4.4-0.7
	s-3.1-1.2-4.5-2.2s-2.6-2.4-3.6-4S6,25.5,6,23.1c0-4.8,1.2-8.9,3.7-12.2S15.6,6,20,6c2,0,3.7,0.3,5.1,0.9s2.6,1.3,3.7,2.2
	c1,0.9,1.9,1.9,2.7,3s1.4,2.1,2.1,3.1c0.5,0.8,1,1.6,1.5,2.3s1,1.4,1.6,2c1.8,1.8,3.2,3.4,4.1,4.7c0.9,1.3,1.3,3.3,1.3,5.9
	c0,3.4-1,6.3-3.1,8.5C36.8,40.9,34.5,42,32,42z M24,28.5c1.2,0,2.3-0.4,3.2-1.3c0.9-0.9,1.3-2,1.3-3.2s-0.4-2.3-1.3-3.2
	c-0.9-0.9-2-1.3-3.2-1.3s-2.3,0.4-3.2,1.3s-1.3,2-1.3,3.2s0.4,2.3,1.3,3.2C21.7,28.1,22.8,28.5,24,28.5z"/>
</svg>
