<?xml version="1.0" encoding="utf-8"?>
<!-- Generator: Adobe Illustrator 26.3.1, SVG Export Plug-In . SVG Version: 6.00 Build 0)  -->
<svg version="1.1" id="Слой_1" xmlns="http://www.w3.org/2000/svg" xmlns:xlink="http://www.w3.org/1999/xlink" x="0px" y="0px"
	 viewBox="0 0 48 48" style="enable-background:new 0 0 48 48;" xml:space="preserve">
<path d="M9.5,27.9v3.3c0,0.2-0.1,0.4-0.2,0.5C9.2,31.9,9,32,8.8,32s-0.4-0.1-0.5-0.2C8.1,31.6,8,31.4,8,31.2V16.5l4-11.7
	c0.1-0.3,0.2-0.5,0.4-0.6C12.6,4.1,12.9,4,13.2,4H35c0.3,0,0.5,0.1,0.7,0.2s0.3,0.3,0.4,0.6l4,11.7v14.8c0,0.2-0.1,0.4-0.2,0.5
	c-0.1,0.1-0.3,0.2-0.5,0.2l0,0c-0.2,0-0.4-0.1-0.5-0.2s-0.2-0.3-0.2-0.5V28C38.5,27.9,9.5,27.9,9.5,27.9z M10.2,14.9h27.7l-3.2-9.4
	H13.4L10.2,14.9z M14.5,23.5c0.6,0,1.1-0.2,1.5-0.6s0.6-0.9,0.6-1.5s-0.2-1.1-0.6-1.5s-0.9-0.6-1.5-0.6s-1.1,0.2-1.5,0.6
	s-0.6,0.9-0.6,1.5s0.2,1.1,0.6,1.5C13.4,23.3,13.9,23.5,14.5,23.5z M33.5,23.5c0.6,0,1.1-0.2,1.5-0.6s0.6-0.9,0.6-1.5
	s-0.2-1.1-0.6-1.5c-0.4-0.4-0.9-0.6-1.5-0.6s-1.1,0.2-1.5,0.6c-0.4,0.4-0.6,0.9-0.6,1.5s0.2,1.1,0.6,1.5
	C32.5,23.3,33,23.5,33.5,23.5z M25.6,45.3l-9.9-5.1h6.5v-3.4l9.9,5h-6.6C25.6,41.8,25.6,45.3,25.6,45.3z"/>
</svg>
