<?xml version="1.0" encoding="utf-8"?>
<!-- Generator: Adobe Illustrator 26.3.1, SVG Export Plug-In . SVG Version: 6.00 Build 0)  -->
<svg version="1.1" id="Слой_1" xmlns="http://www.w3.org/2000/svg" xmlns:xlink="http://www.w3.org/1999/xlink" x="0px" y="0px"
	 viewBox="0 0 48 48" style="enable-background:new 0 0 48 48;" xml:space="preserve">
<path d="M9.8,33c-2.5,0-4.6-0.9-6.3-2.6S1,26.6,1,24.1c0-2.4,0.9-4.5,2.6-6.3s3.8-2.6,6.3-2.6c2.2,0,4.2,0.8,5.9,2.3
	s2.7,3.5,2.9,5.8h4.1l-4.5-12.8H15V9h7.7v1.5h-2.8l1.6,4.6H34l-3.7-9.9c0-0.2-0.1-0.4-0.3-0.5c-0.2-0.1-0.4-0.2-0.6-0.2h-4.2V3h4.1
	c0.6,0,1.1,0.2,1.6,0.5s0.8,0.8,1,1.3l3.8,10.4h2.4c2.4,0,4.5,0.9,6.3,2.6c1.7,1.7,2.6,3.8,2.6,6.2c0,2.5-0.9,4.6-2.6,6.3
	c-1.7,1.7-3.8,2.6-6.3,2.6c-2.3,0-4.3-0.8-6-2.3c-1.7-1.6-2.6-3.5-2.9-5.8H18.6c-0.2,2.3-1.2,4.3-2.9,5.8C14,32.2,12,33,9.8,33z
	 M11.1,24.8h6.1v-1.5h-6.1V24.8z M25.6,45.3l-9.8-5h6.5v-3.4l9.9,5h-6.5C25.6,41.9,25.6,45.3,25.6,45.3z M24.5,23.3h4.8
	c0.1-0.9,0.5-2.1,1.1-3.4c0.6-1.4,1.5-2.4,2.7-3.2h-11C22.1,16.7,24.5,23.3,24.5,23.3z M36.9,23.1l1.4-0.5l-2.1-5.7l-1.5,0.5
	L36.9,23.1z"/>
</svg>
