<?xml version="1.0" encoding="utf-8"?>
<!-- Generator: Adobe Illustrator 26.3.1, SVG Export Plug-In . SVG Version: 6.00 Build 0)  -->
<svg version="1.1" id="Слой_1" xmlns="http://www.w3.org/2000/svg" xmlns:xlink="http://www.w3.org/1999/xlink" x="0px" y="0px"
	 viewBox="0 0 48 48" style="enable-background:new 0 0 48 48;" xml:space="preserve">
<path d="M34.9,29v-1.5h5.3c0.2,0,0.4,0.1,0.6,0.2c0.1,0.1,0.2,0.3,0.2,0.6c0,0.2-0.1,0.4-0.2,0.5c-0.1,0.1-0.3,0.2-0.6,0.2
	C40.2,29,34.9,29,34.9,29z M34.9,37v-1.5h5.3c0.2,0,0.4,0.1,0.6,0.2c0.1,0.1,0.2,0.3,0.2,0.6c0,0.2-0.1,0.4-0.2,0.5
	c-0.1,0.1-0.3,0.2-0.6,0.2H34.9z M29,39c-1,0-1.9-0.4-2.7-1.2c-0.7-0.8-1.1-1.7-1.1-2.8h-4.3v-5.5h4.3c0-1.1,0.4-2,1.1-2.8
	s1.6-1.2,2.7-1.2h4.1V39H29z M13.9,33c-2,0-3.6-0.7-4.9-2s-2-3-2-4.9c0-2,0.7-3.6,2-4.9s3-2,4.9-2H17c1.2,0,2.3-0.4,3.1-1.3
	c0.8-0.8,1.3-1.9,1.3-3.1s-0.4-2.2-1.3-3.1c-0.8-0.8-1.9-1.3-3.1-1.3H9.8c-0.2,0-0.4-0.1-0.5-0.2C9.1,10.2,9,10,9,9.8
	s0.1-0.4,0.2-0.6C9.4,9.1,9.6,9,9.8,9H17c1.7,0,3.1,0.6,4.2,1.7s1.7,2.5,1.7,4.2s-0.6,3.1-1.7,4.2c-1.1,1.1-2.5,1.7-4.2,1.7h-3.1
	c-1.5,0-2.8,0.5-3.8,1.5s-1.5,2.3-1.5,3.8s0.5,2.8,1.5,3.8s2.3,1.5,3.8,1.5h5.2V33H13.9z"/>
</svg>
