<?xml version="1.0" encoding="utf-8"?>
<!-- Generator: Adobe Illustrator 26.3.1, SVG Export Plug-In . SVG Version: 6.00 Build 0)  -->
<svg version="1.1" id="Слой_1" xmlns="http://www.w3.org/2000/svg" xmlns:xlink="http://www.w3.org/1999/xlink" x="0px" y="0px"
	 viewBox="0 0 48 48" style="enable-background:new 0 0 48 48;" xml:space="preserve">
<path d="M10,35c-1.3,0-2.4-0.5-3.4-1.4c-0.9-0.9-1.4-2.1-1.4-3.4s0.5-2.5,1.4-3.4s2.1-1.4,3.4-1.4c1.1,0,2.1,0.3,3.1,1
	s1.6,1.7,1.8,3h12.8c0.2-2.5,1.1-4.6,2.8-6.3c1.7-1.8,3.7-2.7,6.1-2.9L33.4,5.5c-0.1-0.3-0.2-0.5-0.5-0.7c-0.2-0.2-0.5-0.2-0.7-0.2
	h-6.6V3h6.3c0.7,0,1.3,0.2,1.9,0.6c0.6,0.4,1,1,1.2,1.8l3.4,16H38c-2.5,0-4.6,0.9-6.3,2.6s-2.6,3.8-2.6,6.3v0.6H14.8
	C14.6,32.2,14,33.3,13,34C12.1,34.7,11.1,35,10,35z M38,35.1c-1.3,0-2.5-0.5-3.4-1.4s-1.4-2.1-1.4-3.4s0.5-2.5,1.4-3.4
	s2.1-1.4,3.4-1.4c1.3,0,2.5,0.5,3.4,1.4s1.4,2.1,1.4,3.4s-0.5,2.5-1.4,3.4S39.3,35.1,38,35.1z M26,45.3l-10-5.1h6.5v-3.5l10,5.1H26
	C26,41.9,26,45.3,26,45.3z"/>
</svg>
