<?xml version="1.0" encoding="utf-8"?>
<!-- Generator: Adobe Illustrator 26.3.1, SVG Export Plug-In . SVG Version: 6.00 Build 0)  -->
<svg version="1.1" id="Слой_1" xmlns="http://www.w3.org/2000/svg" xmlns:xlink="http://www.w3.org/1999/xlink" x="0px" y="0px"
	 viewBox="0 0 48 48" style="enable-background:new 0 0 48 48;" xml:space="preserve">
<path d="M12.5,39.8c-0.1,0.1-0.2,0.1-0.3,0.1c0,0.1-0.1,0.1-0.2,0.1s-0.2,0-0.3-0.1c-0.1,0-0.2-0.1-0.3-0.2
	c-1.1-1.2-1.9-2.4-2.5-3.8C8.3,34.6,8,33.2,8,31.7c0-1.1,0.2-2.2,0.5-3.5c0.3-1.2,0.9-2.8,1.7-4.9c0.8-1.8,1.3-3.3,1.6-4.3
	c0.3-1.1,0.4-2,0.4-2.9c0-1.2-0.3-2.4-0.8-3.5s-1.3-2.2-2.5-3.2c0-0.2-0.1-0.3-0.1-0.4s0-0.2,0-0.3s0-0.2,0-0.3s0-0.2,0.1-0.2
	C9,8.1,9.1,8.1,9.2,8c0.1,0,0.2-0.1,0.3-0.1s0.2,0,0.3,0.1c0,0,0.1,0.1,0.2,0.2c1.1,1.1,2,2.3,2.7,3.6s1,2.7,1,4.2
	c0,1-0.1,2.1-0.4,3.2c-0.3,1.1-0.8,2.7-1.6,4.7c-0.8,1.9-1.3,3.4-1.6,4.5s-0.5,2.2-0.5,3.2c0,1.3,0.3,2.5,0.8,3.7s1.3,2.3,2.3,3.4
	c0,0.1,0.1,0.2,0.1,0.2c0,0.1,0,0.2,0,0.3s0,0.2-0.1,0.3C12.7,39.6,12.6,39.7,12.5,39.8z M21.6,39.8c-0.1,0.1-0.2,0.1-0.2,0.1
	c-0.1,0-0.2,0-0.3,0c-0.1,0-0.2,0-0.3,0c-0.1,0-0.2-0.1-0.3-0.1c-1.1-1.2-1.9-2.4-2.6-3.8c-0.6-1.4-0.9-2.8-0.9-4.3
	c0-1.1,0.2-2.3,0.5-3.5s0.9-2.8,1.8-4.9c0.7-1.8,1.3-3.3,1.6-4.3c0.3-1.1,0.5-2.1,0.5-3c0-1.2-0.3-2.4-0.8-3.5s-1.4-2.2-2.4-3.2
	C18,9.2,18,9.1,17.9,9c0-0.1,0-0.2,0-0.3s0-0.2,0-0.3S18,8.2,18,8.2C18.1,8.1,18.2,8,18.3,8c0.1,0,0.2-0.1,0.3-0.1
	c0.1,0,0.2,0,0.3,0.1c0.1,0,0.2,0.1,0.2,0.2c1.1,1.1,2,2.3,2.7,3.6s1,2.7,1,4.2c0,1-0.2,2.1-0.5,3.3c-0.3,1.1-0.9,2.7-1.7,4.6
	c-0.8,1.9-1.3,3.4-1.6,4.5c-0.3,1.1-0.5,2.2-0.5,3.2c0,1.3,0.2,2.5,0.7,3.7s1.3,2.3,2.3,3.4c0.1,0.1,0.1,0.2,0.1,0.3
	s0.1,0.2,0.1,0.3s0,0.2-0.1,0.3S21.7,39.7,21.6,39.8z M30.8,39.8c-0.1,0.1-0.2,0.1-0.3,0.1c-0.1,0-0.2,0.1-0.3,0.1
	c-0.1,0-0.2,0-0.3-0.1c-0.1,0-0.2-0.1-0.3-0.2c-1.1-1.2-1.9-2.4-2.5-3.8c-0.6-1.4-0.9-2.8-0.9-4.3c0-1.1,0.2-2.2,0.5-3.5
	c0.3-1.2,0.9-2.8,1.7-4.9c0.8-1.8,1.3-3.3,1.6-4.3c0.3-1.1,0.4-2,0.4-2.9c0-1.2-0.3-2.4-0.8-3.5s-1.3-2.2-2.5-3.2
	C27,9.2,27,9.1,26.9,9c0-0.1,0-0.2,0-0.3s0-0.2,0-0.2c0-0.1,0.1-0.2,0.2-0.2c0.1-0.1,0.2-0.2,0.3-0.2C27.6,8,27.7,8,27.8,8
	C27.9,8,28,8,28,8.1c0.1,0,0.2,0.1,0.2,0.1c1.1,1.1,2,2.3,2.7,3.6s1,2.7,1,4.2c0,1-0.2,2.1-0.5,3.3c-0.3,1.1-0.9,2.7-1.7,4.7
	c-0.8,1.9-1.3,3.4-1.6,4.5s-0.5,2.2-0.5,3.2c0,1.3,0.3,2.5,0.8,3.7s1.3,2.3,2.3,3.5c0,0.1,0.1,0.2,0.1,0.2c0,0.1,0,0.2,0,0.3
	s0,0.2-0.1,0.3C30.9,39.6,30.9,39.7,30.8,39.8z M39.2,21.8c-0.2,0-0.4-0.1-0.5-0.2s-0.2-0.3-0.2-0.5s0.1-0.4,0.2-0.6
	c0.1-0.1,0.3-0.2,0.5-0.2s0.4,0.1,0.6,0.2c0.1,0.1,0.2,0.3,0.2,0.6c0,0.2-0.1,0.4-0.2,0.5C39.6,21.7,39.5,21.8,39.2,21.8z
	 M39.2,16.2c-0.2,0-0.4-0.1-0.6-0.2s-0.2-0.3-0.2-0.6V8.8c0-0.2,0.1-0.4,0.2-0.6C38.8,8.1,39,8,39.2,8s0.4,0.1,0.6,0.2
	C39.9,8.4,40,8.6,40,8.8v6.7c0,0.2-0.1,0.4-0.2,0.6C39.6,16.2,39.5,16.2,39.2,16.2z"/>
</svg>
