<?xml version="1.0" encoding="utf-8"?>
<!-- Generator: Adobe Illustrator 26.3.1, SVG Export Plug-In . SVG Version: 6.00 Build 0)  -->
<svg version="1.1" id="Слой_1" xmlns="http://www.w3.org/2000/svg" xmlns:xlink="http://www.w3.org/1999/xlink" x="0px" y="0px"
	 viewBox="0 0 48 48" style="enable-background:new 0 0 48 48;" xml:space="preserve">
<path d="M20.5,40.5V29.4l2.7-7.9c0-0.1,0.1-0.2,0.1-0.2c0.1-0.1,0.2-0.1,0.4-0.1h14.6c0.2,0,0.3,0,0.4,0.1c0.1,0,0.2,0.1,0.2,0.2
	l2.7,7.9v11.1c0,0.2-0.1,0.4-0.2,0.6c-0.1,0.1-0.3,0.2-0.6,0.2h-0.2c-0.2,0-0.4-0.1-0.5-0.2c-0.1-0.1-0.2-0.3-0.2-0.6v-2.8H22.2v2.8
	c0,0.2-0.1,0.4-0.2,0.6c-0.1,0.1-0.3,0.2-0.5,0.2h-0.2c-0.2,0-0.4-0.1-0.5-0.2C20.6,40.9,20.5,40.7,20.5,40.5z M22.4,28.2H40l-2-5.7
	H24.3L22.4,28.2z M25.2,34.5c0.5,0,0.9-0.2,1.2-0.5c0.3-0.3,0.5-0.8,0.5-1.2c0-0.5-0.2-0.9-0.5-1.2c-0.3-0.3-0.8-0.5-1.2-0.5
	c-0.5,0-0.9,0.2-1.2,0.5c-0.3,0.3-0.5,0.7-0.5,1.2s0.2,0.9,0.5,1.2C24.3,34.4,24.7,34.5,25.2,34.5z M37.2,34.5
	c0.5,0,0.9-0.2,1.2-0.5c0.4-0.3,0.5-0.8,0.5-1.2c0-0.5-0.2-0.9-0.5-1.2c-0.4-0.3-0.8-0.5-1.2-0.5c-0.5,0-0.9,0.2-1.2,0.5
	s-0.5,0.7-0.5,1.2s0.2,0.9,0.5,1.2C36.2,34.4,36.7,34.5,37.2,34.5z M12.7,25.5v-2.9h2.9v2.9H12.7z M20.9,15.1v-2.9h2.9v2.9H20.9z
	 M12.7,33.4v-2.9h2.9v2.9H12.7z M12.7,41.2v-2.9h2.9v2.9H12.7z M6.2,41.2V16.1h8.2V5.7h15.8v10.4h-1.5V7.2H15.9v10.4H7.8v23.6
	C7.8,41.2,6.2,41.2,6.2,41.2z"/>
</svg>
