<?xml version="1.0" encoding="utf-8"?>
<!-- Generator: Adobe Illustrator 26.3.1, SVG Export Plug-In . SVG Version: 6.00 Build 0)  -->
<svg version="1.1" id="Слой_1" xmlns="http://www.w3.org/2000/svg" xmlns:xlink="http://www.w3.org/1999/xlink" x="0px" y="0px"
	 viewBox="0 0 48 48" style="enable-background:new 0 0 48 48;" xml:space="preserve">
<path d="M30.7,44c-3.1,0-5.8-0.9-8.1-2.7s-3.9-4.1-4.7-7c0.8,0,1.5-0.1,2.2-0.1c0.7-0.1,1.4-0.2,2-0.4H34c0.1-0.5,0.2-1.1,0.2-1.6
	c0-0.6,0-1.1,0-1.6s0-1,0-1.5s-0.1-1-0.1-1.5h-3.3c0.2-0.2,0.4-0.5,0.5-0.7c0.2-0.3,0.3-0.5,0.5-0.8h9.7c-0.7-1.6-1.7-2.9-3-4.1
	s-2.7-2-4.4-2.5c0-0.2,0-0.5,0.1-0.8c0-0.3,0.1-0.5,0.1-0.8c2.8,0.8,5.2,2.4,7,4.7s2.7,5,2.7,8.1c0,3.7-1.3,6.8-3.9,9.4
	C37.6,42.7,34.4,44,30.7,44z M28.7,42.2c-0.6-1.1-1.2-2.2-1.6-3.4c-0.4-1.1-0.7-2.3-1-3.5H20c0.8,1.8,1.9,3.3,3.5,4.5
	C25,41,26.7,41.8,28.7,42.2z M30.7,42.5c0.8-1.1,1.5-2.3,2-3.5s0.9-2.4,1.1-3.7h-6.1c0.2,1,0.5,2.1,1.1,3.5
	C29.3,40.1,29.9,41.4,30.7,42.5z M32.8,42.2c2-0.4,3.7-1.2,5.2-2.4s2.7-2.7,3.5-4.5h-6.2c-0.2,1.2-0.5,2.4-1,3.5
	C34,40,33.5,41.1,32.8,42.2z M35.7,33.8H42c0.2-0.5,0.3-1,0.3-1.5c0.1-0.5,0.1-1,0.1-1.6c0-0.5,0-1.1-0.1-1.6s-0.2-1-0.3-1.5h-6.4
	c0.1,0.5,0.1,1,0.1,1.5s0,1,0,1.5s0,1.1,0,1.6C35.8,32.7,35.7,33.3,35.7,33.8z M17.3,30.5c-3.7,0-6.8-1.3-9.4-3.9
	C5.3,24.1,4,20.9,4,17.3c0-3.7,1.3-6.8,3.9-9.4C10.4,5.3,13.6,4,17.3,4s6.8,1.3,9.4,3.9s3.9,5.7,3.9,9.4s-1.3,6.8-3.9,9.4
	C24.1,29.2,21,30.5,17.3,30.5z M12.5,15.6c0.3,0,0.6-0.1,0.9-0.4c0.2-0.2,0.4-0.5,0.4-0.9s-0.1-0.7-0.4-0.9
	c-0.2-0.2-0.5-0.3-0.9-0.3c-0.3,0-0.6,0.1-0.9,0.3c-0.2,0.2-0.4,0.5-0.4,0.9c0,0.3,0.1,0.6,0.4,0.9C11.8,15.5,12.1,15.6,12.5,15.6z
	 M17.3,23.9c1.3,0,2.4-0.3,3.5-0.9s1.9-1.4,2.6-2.3H11.3c0.7,1,1.5,1.8,2.6,2.4C14.9,23.6,16,23.9,17.3,23.9z M22.1,15.6
	c0.3,0,0.6-0.1,0.8-0.4c0.3-0.2,0.4-0.5,0.4-0.9s-0.1-0.7-0.4-0.9s-0.5-0.3-0.8-0.3s-0.6,0.1-0.9,0.3c-0.2,0.2-0.4,0.5-0.4,0.9
	c0,0.3,0.1,0.6,0.4,0.9S21.8,15.6,22.1,15.6z"/>
</svg>
