<?xml version="1.0" encoding="utf-8"?>
<!-- Generator: Adobe Illustrator 26.3.1, SVG Export Plug-In . SVG Version: 6.00 Build 0)  -->
<svg version="1.1" id="Слой_1" xmlns="http://www.w3.org/2000/svg" xmlns:xlink="http://www.w3.org/1999/xlink" x="0px" y="0px"
	 viewBox="0 0 48 48" style="enable-background:new 0 0 48 48;" xml:space="preserve">
<path d="M10,40v-1.5h28V40H10z M34.7,17.5h4.4c0.4,0,0.7-0.1,1-0.4c0.3-0.2,0.4-0.5,0.4-0.9v-5.4c0-0.4-0.1-0.7-0.4-0.9
	c-0.3-0.2-0.6-0.4-1-0.4h-4.4V17.5z M16.1,32.9c-1.7,0-3.1-0.6-4.3-1.7c-1.2-1.1-1.7-2.5-1.7-4.2V8h8.2v4.3l-3.1,2.5
	c-0.1,0.1-0.2,0.4-0.4,0.9v5.6c0,0.3,0.1,0.5,0.3,0.7s0.5,0.3,0.8,0.3h6.3c0.3,0,0.6-0.1,0.8-0.3c0.2-0.2,0.3-0.5,0.3-0.7v-5.6
	c0-0.1-0.1-0.4-0.4-0.9l-3.1-2.5V8h19.4c0.8,0,1.5,0.3,2.1,0.8s0.9,1.2,0.9,2v5.4c0,0.8-0.3,1.4-0.9,2C40.7,18.7,40,19,39.2,19h-4.4
	v8.1c0,1.6-0.6,3-1.7,4.2c-1.2,1.1-2.6,1.7-4.3,1.7L16.1,32.9L16.1,32.9z"/>
</svg>
