<?xml version="1.0" encoding="utf-8"?>
<!-- Generator: Adobe Illustrator 26.3.1, SVG Export Plug-In . SVG Version: 6.00 Build 0)  -->
<svg version="1.1" id="Слой_1" xmlns="http://www.w3.org/2000/svg" xmlns:xlink="http://www.w3.org/1999/xlink" x="0px" y="0px"
	 viewBox="0 0 48 48" style="enable-background:new 0 0 48 48;" xml:space="preserve">
<path d="M24,39.8c-0.8,0-1.4-0.2-1.9-0.7c-0.5-0.4-0.8-1-0.8-1.7h-1.5c-0.4,0-0.7-0.2-1.1-0.5c-0.3-0.3-0.5-0.7-0.5-1.1v-6
	c-2.2-1.2-3.9-2.8-5-4.9c-1.2-2-1.7-4.2-1.7-6.5c0-3.5,1.2-6.5,3.6-8.9C17.5,7.2,20.5,6,24,6s6.5,1.2,8.9,3.6s3.6,5.4,3.6,8.9
	c0,2.3-0.6,4.4-1.7,6.5c-1.2,2-2.8,3.6-5,4.9v6c0,0.4-0.2,0.7-0.5,1.1c-0.3,0.3-0.7,0.5-1.1,0.5h-1.5c0,0.7-0.3,1.3-0.8,1.7
	C25.4,39.5,24.8,39.8,24,39.8z M19.8,35.9h8.3v-2.1h-8.3V35.9z M19.8,32.2h8.3v-2h-8.3V32.2z M24.7,28.6v-6.9l4.3-4.3l-1-1l-4,4
	l-4-4l-1,1l4.3,4.3v6.9H24.7z"/>
</svg>
