<?xml version="1.0" encoding="utf-8"?>
<!-- Generator: Adobe Illustrator 26.3.1, SVG Export Plug-In . SVG Version: 6.00 Build 0)  -->
<svg version="1.1" id="Слой_1" xmlns="http://www.w3.org/2000/svg" xmlns:xlink="http://www.w3.org/1999/xlink" x="0px" y="0px"
	 viewBox="0 0 48 48" style="enable-background:new 0 0 48 48;" xml:space="preserve">
<path d="M19.8,43V16.4c-2.6-0.4-4.7-1.5-6.4-3.2s-2.6-3.8-2.9-6.3H12c0.3,2.3,1.3,4.3,3.1,5.8S19,15,21.3,15h5
	c0.9,0,1.5,0.1,1.9,0.2c0.4,0.2,1,0.5,1.6,1.1l8.5,8.3l-1.1,1.1L28,16.6V43h-1.5V30.9h-5.1V43H19.8z M23.9,11.2
	c-0.9,0-1.7-0.3-2.3-0.9C21,9.7,20.7,8.9,20.7,8s0.3-1.7,0.9-2.3s1.4-0.9,2.3-0.9s1.7,0.3,2.3,0.9c0.6,0.6,0.9,1.4,0.9,2.3
	s-0.3,1.7-0.9,2.3C25.6,10.9,24.8,11.2,23.9,11.2z"/>
</svg>
