<?xml version="1.0" encoding="utf-8"?>
<!-- Generator: Adobe Illustrator 26.3.1, SVG Export Plug-In . SVG Version: 6.00 Build 0)  -->
<svg version="1.1" id="Слой_1" xmlns="http://www.w3.org/2000/svg" xmlns:xlink="http://www.w3.org/1999/xlink" x="0px" y="0px"
	 viewBox="0 0 48 48" style="enable-background:new 0 0 48 48;" xml:space="preserve">
<path d="M29.6,35H39v-1.4h-9.4V35z M34.3,42c-2.1,0-3.9-0.8-5.4-2.3s-2.2-3.3-2.2-5.4c0-2.2,0.7-4,2.2-5.5s3.3-2.3,5.5-2.3
	c2.1,0,3.9,0.8,5.5,2.3c1.5,1.5,2.3,3.3,2.3,5.5c0,2.1-0.8,3.9-2.3,5.4C38.3,41.2,36.4,42,34.3,42z M24,41.9c-4-1.2-7.3-3.6-10-7.2
	s-4-7.9-4-12.6V11.4l14-5.2l14,5.2v12.3c-0.6-0.2-1.1-0.4-1.8-0.5C35.6,23.1,35,23,34.3,23c-3.1,0-5.8,1.1-8,3.3s-3.3,4.9-3.3,8
	c0,1.2,0.2,2.4,0.6,3.6c0.4,1.2,1,2.4,1.9,3.4c-0.3,0.1-0.5,0.3-0.8,0.3C24.5,41.8,24.2,41.8,24,41.9z M24,17
	c-0.8,0-1.4,0.3-1.9,0.8s-0.8,1.2-0.8,1.9c0,0.8,0.3,1.4,0.8,1.9s1.2,0.8,1.9,0.8c0.5,0,1-0.1,1.4-0.3c0.4-0.2,0.8-0.4,1.2-0.8
	c-0.1,0.1-0.3,0.2-0.4,0.3s-0.3,0.2-0.4,0.2c0.3-0.3,0.5-0.6,0.7-1s0.3-0.8,0.3-1.2c0-0.8-0.3-1.4-0.8-1.9C25.4,17.3,24.8,17,24,17z
	"/>
</svg>
