<?xml version="1.0" encoding="utf-8"?>
<!-- Generator: Adobe Illustrator 26.3.1, SVG Export Plug-In . SVG Version: 6.00 Build 0)  -->
<svg version="1.1" id="Слой_1" xmlns="http://www.w3.org/2000/svg" xmlns:xlink="http://www.w3.org/1999/xlink" x="0px" y="0px"
	 viewBox="0 0 48 48" style="enable-background:new 0 0 48 48;" xml:space="preserve">
<path d="M6.3,40.2l-0.5-1.4c1.3-0.7,2.3-1.7,3.1-2.9c0.8-1.3,1.2-2.7,1.2-4.2V12c-0.9-0.8-1.7-1.7-2.4-2.6C7,8.4,6.4,7.3,5.8,6.2
	l1.5-0.6c1.6,3.2,3.9,5.7,6.9,7.6s6.3,2.8,9.9,2.8s6.9-0.9,9.9-2.8s5.3-4.4,6.9-7.6l1.4,0.6c-0.6,1.1-1.2,2.1-1.9,3.1
	S38.9,11.2,38,12v19.7c0,1.5,0.4,2.9,1.2,4.2s1.8,2.2,3.1,2.9l-0.5,1.4c-1.6-0.8-2.9-2-3.9-3.5s-1.5-3.2-1.5-5.1V13.4
	c-1.8,1.3-3.7,2.4-5.8,3.1s-4.3,1.1-6.5,1.1s-4.5-0.4-6.5-1.1c-2.1-0.7-4-1.8-5.8-3.1v18.3c0,1.9-0.5,3.5-1.5,5.1
	C9.2,38.3,7.9,39.5,6.3,40.2z M20.3,36c-1.3,0-2.3-0.4-3.2-1.3c-0.9-0.9-1.3-1.9-1.3-3.2V21.3l0.6,0.1c1.7,0.5,3.3,1.3,4.6,2.5
	c1.3,1.1,2.3,2.4,3,3.9c0.7-1.5,1.7-2.8,3-4c1.3-1.1,2.9-1.9,4.6-2.5l0.6-0.1v10.3c0,1.3-0.4,2.3-1.3,3.2C30.1,35.6,29,36,27.7,36
	c-0.8,0-1.5-0.2-2.1-0.5c-0.6-0.4-1.2-0.8-1.6-1.4c-0.4,0.6-1,1-1.6,1.4C21.7,35.8,21,36,20.3,36z"/>
</svg>
