<?xml version="1.0" encoding="utf-8"?>
<!-- Generator: Adobe Illustrator 26.3.1, SVG Export Plug-In . SVG Version: 6.00 Build 0)  -->
<svg version="1.1" id="Слой_1" xmlns="http://www.w3.org/2000/svg" xmlns:xlink="http://www.w3.org/1999/xlink" x="0px" y="0px"
	 viewBox="0 0 48 48" style="enable-background:new 0 0 48 48;" xml:space="preserve">
<path d="M18.9,43.2v-0.5c0-1.1,0.4-1.9,1.3-2.6c0.9-0.6,1.9-1,3.1-0.9V23.3c-1-0.1-1.8-0.5-2.6-1.1c-0.8-0.6-1.3-1.4-1.6-2.3
	l-5.5,1.4c-0.8,0.2-1.5,0.2-2.2-0.1c-0.7-0.3-1.3-0.8-1.8-1.4l9.2-2.3c0.1-1.4,0.7-2.6,1.8-3.5c1-0.9,2.3-1.4,3.7-1.3l1.6-5.6
	C26,6.3,26.5,5.6,27.1,5s1.3-0.9,2.1-0.8l-2.6,9.1c0.9,0.4,1.6,1.1,2.1,2c0.5,0.9,0.7,1.8,0.7,2.8c0,0.5-0.1,1-0.2,1.4
	c-0.1,0.5-0.3,0.9-0.5,1.3l3.9,4.1c0.5,0.6,0.9,1.3,1.2,2.1c0.2,0.8,0.2,1.5-0.2,2.3L27,22.5c-0.3,0.3-0.6,0.4-1,0.6
	c-0.4,0.1-0.8,0.2-1.2,0.3v15.8c1.2,0,2.2,0.3,3.1,0.9c0.9,0.6,1.3,1.5,1.3,2.6v0.5C29.2,43.2,18.9,43.2,18.9,43.2z M24.1,21.8
	c1.1,0,2-0.4,2.7-1.1s1.1-1.6,1.1-2.7s-0.4-2-1.1-2.7s-1.6-1.1-2.7-1.1s-2,0.4-2.7,1.1c-0.7,0.7-1.1,1.6-1.1,2.7s0.4,2,1.1,2.7
	S23,21.8,24.1,21.8z"/>
</svg>
