<?xml version="1.0" encoding="utf-8"?>
<!-- Generator: Adobe Illustrator 26.3.1, SVG Export Plug-In . SVG Version: 6.00 Build 0)  -->
<svg version="1.1" id="Слой_1" xmlns="http://www.w3.org/2000/svg" xmlns:xlink="http://www.w3.org/1999/xlink" x="0px" y="0px"
	 viewBox="0 0 48 48" style="enable-background:new 0 0 48 48;" xml:space="preserve">
<path d="M23,32.8c2.2,0,4-0.8,5.5-2.3s2.3-3.3,2.3-5.5v-7.8H23c-2.2,0-4,0.8-5.5,2.3s-2.3,3.3-2.3,5.5c0,0.9,0.1,1.8,0.4,2.7
	c0.3,0.9,0.7,1.6,1.3,2.3l-1.5,1.5c-0.2,0.2-0.3,0.4-0.3,0.6c0,0.2,0.1,0.4,0.3,0.5c0.2,0.2,0.4,0.3,0.6,0.3s0.4-0.1,0.6-0.3L18,31
	c0.7,0.6,1.5,1,2.3,1.3C21.2,32.6,22.1,32.8,23,32.8z M24,43.2l-6-4.7l-7.5-0.9l-1-7.6l-4.7-6l4.7-6l0.9-7.5l7.6-1l6-4.7l6,4.7
	l7.5,0.9l0.9,7.5l4.7,6l-4.7,6l-0.9,7.5L30,38.5L24,43.2z M24.6,24.5c0.2-0.2,0.3-0.4,0.3-0.6s-0.1-0.4-0.3-0.5
	c-0.2-0.2-0.4-0.3-0.5-0.3c-0.2,0-0.4,0.1-0.6,0.3l-4.9,4.9c-0.2,0.2-0.3,0.4-0.3,0.6s0.1,0.4,0.2,0.5c0.1,0.2,0.3,0.3,0.5,0.2
	c0.2,0,0.4-0.1,0.6-0.2L24.6,24.5z"/>
</svg>
