<?xml version="1.0" encoding="utf-8"?>
<!-- Generator: Adobe Illustrator 26.3.1, SVG Export Plug-In . SVG Version: 6.00 Build 0)  -->
<svg version="1.1" id="Слой_1" xmlns="http://www.w3.org/2000/svg" xmlns:xlink="http://www.w3.org/1999/xlink" x="0px" y="0px"
	 viewBox="0 0 48 48" style="enable-background:new 0 0 48 48;" xml:space="preserve">
<path d="M14,42v-7.5c-1.9-1.7-3.4-3.7-4.4-5.8C8.5,26.5,8,24.2,8,22c0-4.4,1.6-8.2,4.7-11.3S19.6,6,24,6c3.6,0,6.9,1.1,9.8,3.3
	s4.8,5,5.7,8.5l2.1,8.5c0.1,0.4,0,0.8-0.2,1.2c-0.3,0.3-0.6,0.5-1.1,0.5H36v7.2c0,0.8-0.3,1.4-0.8,1.9S34,38,33.2,38H28v4h-6.8
	l1.1-11.2h6.5v-1.5h-6.3l0.5-5.1c0.1-0.8,0.4-1.5,1-2.1s1.3-0.8,2.2-0.8h6.7v-1.5h-6.7c-1.2,0-2.3,0.4-3.2,1.2
	c-0.9,0.8-1.4,1.8-1.6,3.1l-1.9,18L14,42L14,42z"/>
</svg>
