<?xml version="1.0" encoding="utf-8"?>
<!-- Generator: Adobe Illustrator 26.3.1, SVG Export Plug-In . SVG Version: 6.00 Build 0)  -->
<svg version="1.1" id="Слой_1" xmlns="http://www.w3.org/2000/svg" xmlns:xlink="http://www.w3.org/1999/xlink" x="0px" y="0px"
	 viewBox="0 0 48 48" style="enable-background:new 0 0 48 48;" xml:space="preserve">
<path d="M20.3,40c-3.4,0-6.3-1.2-8.7-3.6C9.2,34,8,31.1,8,27.7c0-1.6,0.3-3.1,0.9-4.6c0.6-1.5,1.5-2.9,2.7-4.1l7.5-7.4
	c1.2-1.2,2.5-2.1,4-2.7c1.5-0.6,3-0.9,4.6-0.9c3.4,0,6.3,1.2,8.7,3.6s3.6,5.3,3.6,8.7c0,1.6-0.3,3.1-0.9,4.6c-0.6,1.5-1.5,2.8-2.7,4
	L29,36.4c-1.2,1.2-2.6,2.1-4.1,2.7C23.4,39.7,21.9,40,20.3,40z"/>
</svg>
