<?xml version="1.0" encoding="utf-8"?>
<!-- Generator: Adobe Illustrator 26.3.1, SVG Export Plug-In . SVG Version: 6.00 Build 0)  -->
<svg version="1.1" id="Слой_1" xmlns="http://www.w3.org/2000/svg" xmlns:xlink="http://www.w3.org/1999/xlink" x="0px" y="0px"
	 viewBox="0 0 48 48" style="enable-background:new 0 0 48 48;" xml:space="preserve">
<path d="M20,38c-2.8,0-5.1-1-7.1-2.9S10,30.8,10,28c0-1.3,0.2-2.6,0.7-3.8c0.5-1.2,1.2-2.3,2.2-3.3l7.9-7.9c1-1,2.1-1.7,3.3-2.2
	c1.2-0.5,2.5-0.7,3.8-0.7c2.8,0,5.1,1,7.1,3s2.9,4.3,2.9,7.1c0,1.3-0.2,2.6-0.7,3.8c-0.5,1.2-1.2,2.3-2.2,3.3l-7.9,7.9
	c-1,1-2.1,1.7-3.3,2.2C22.6,37.8,21.3,38,20,38z"/>
</svg>
