<?xml version="1.0" encoding="utf-8"?>
<!-- Generator: Adobe Illustrator 26.3.1, SVG Export Plug-In . SVG Version: 6.00 Build 0)  -->
<svg version="1.1" id="Слой_1" xmlns="http://www.w3.org/2000/svg" xmlns:xlink="http://www.w3.org/1999/xlink" x="0px" y="0px"
	 viewBox="0 0 48 48" style="enable-background:new 0 0 48 48;" xml:space="preserve">
<path d="M30.6,40.6c-3.6,0-6.8-1-9.7-3s-4.9-4.9-6-8.8H7.5v-1.5h6.9c-0.1-0.4-0.2-1-0.2-1.6c-0.1-0.7-0.1-1.2-0.1-1.7s0-1,0.1-1.6
	s0.1-1.2,0.2-1.7H7.5v-1.5h7.4c1-3.6,3-6.5,5.8-8.6s6.1-3.2,9.9-3.2c1.9,0,3.6,0.3,5.1,0.8c1.6,0.5,3.1,1.4,4.7,2.5l-1.1,1.1
	c-1.4-1-2.8-1.7-4.3-2.2s-3-0.7-4.4-0.7c-3.6,0-6.6,1-9.1,2.9s-4.1,4.4-5,7.3h13.1v1.5H16.1c-0.2,0.5-0.2,1.1-0.3,1.7
	c0,0.6-0.1,1.2-0.1,1.6c0,0.5,0,1,0.1,1.7s0.2,1.2,0.3,1.6h13.5v1.5H16.5c1,3.5,2.9,6,5.5,7.7s5.5,2.5,8.5,2.5c1.5,0,3-0.2,4.5-0.7
	c1.6-0.5,3-1.2,4.2-2.2l1.1,1.2c-1.7,1.2-3.3,2.1-4.8,2.6C34.1,40.4,32.4,40.6,30.6,40.6z"/>
</svg>
