<?xml version="1.0" encoding="utf-8"?>
<!-- Generator: Adobe Illustrator 26.3.1, SVG Export Plug-In . SVG Version: 6.00 Build 0)  -->
<svg version="1.1" id="Слой_1" xmlns="http://www.w3.org/2000/svg" xmlns:xlink="http://www.w3.org/1999/xlink" x="0px" y="0px"
	 viewBox="0 0 48 48" style="enable-background:new 0 0 48 48;" xml:space="preserve">
<path d="M24,40c-2.2,0-4.3-0.4-6.2-1.3s-3.6-2-5.1-3.4s-2.6-3.1-3.4-5.1C8.4,28.3,8,26.2,8,24s0.4-4.3,1.3-6.2s2-3.6,3.4-5.1
	s3.1-2.6,5.1-3.4C19.7,8.4,21.8,8,24,8s4.3,0.4,6.2,1.3c1.9,0.8,3.6,2,5.1,3.4s2.6,3.1,3.4,5.1c0.8,1.9,1.3,4,1.3,6.2
	s-0.4,4.3-1.3,6.2s-2,3.6-3.4,5.1c-1.5,1.5-3.1,2.6-5.1,3.4S26.2,40,24,40z M25.4,38.4c3.5-0.4,6.4-1.8,8.8-4.2s3.8-5.4,4.2-8.8
	L25.4,38.4z M23.6,38.3l14.8-14.8c0-0.8-0.1-1.7-0.3-2.5s-0.4-1.6-0.7-2.3L20.9,35.3c0.4,0.6,0.8,1.1,1.3,1.6
	C22.6,37.4,23.1,37.9,23.6,38.3z M20.2,34.1l16.7-16.7c-0.3-0.6-0.7-1.2-1.1-1.7c-0.4-0.6-0.8-1.1-1.3-1.6l-16,16
	c0.2,0.7,0.4,1.4,0.7,2C19.5,32.8,19.8,33.5,20.2,34.1z M18.2,28.6l15.4-15.4c-0.5-0.5-1.1-0.9-1.7-1.3c-0.6-0.4-1.2-0.7-1.8-1
	L17.8,23.2c0,0.9,0,1.9,0,2.8C17.9,26.9,18.1,27.8,18.2,28.6z M18,21.2l10.9-10.8c-0.7-0.2-1.4-0.4-2.1-0.6
	c-0.7-0.1-1.4-0.2-2.2-0.3c-1.8,1.2-3.3,2.8-4.4,4.8C19.1,16.4,18.3,18.7,18,21.2z"/>
</svg>
