<?xml version="1.0" encoding="utf-8"?>
<!-- Generator: Adobe Illustrator 26.3.1, SVG Export Plug-In . SVG Version: 6.00 Build 0)  -->
<svg version="1.1" id="Слой_1" xmlns="http://www.w3.org/2000/svg" xmlns:xlink="http://www.w3.org/1999/xlink" x="0px" y="0px"
	 viewBox="0 0 48 48" style="enable-background:new 0 0 48 48;" xml:space="preserve">
<path d="M10.8,42c-0.8,0-1.4-0.3-2-0.8C8.3,40.7,8,40,8,39.2V12.3c0-0.8,0.3-1.4,0.8-2c0.5-0.5,1.2-0.8,2-0.8h4.1v-4h1.8v4h14.8v-4
	h1.7v4h4.1c0.8,0,1.4,0.3,2,0.8c0.5,0.5,0.8,1.2,0.8,2v12.8h-1.5V21H9.5v18.2c0,0.3,0.1,0.6,0.4,0.8s0.5,0.4,0.8,0.4h14.4V42H10.8z
	 M38,47.4c-2.1,0-4-0.6-5.7-1.9c-1.6-1.3-2.8-2.9-3.3-4.8h1.9c0.5,1.5,1.4,2.7,2.7,3.6c1.3,0.9,2.7,1.4,4.4,1.4
	c2.1,0,3.9-0.7,5.4-2.2s2.2-3.3,2.2-5.4s-0.7-3.9-2.2-5.4s-3.3-2.2-5.4-2.2c-1.2,0-2.4,0.3-3.5,0.9s-2.1,1.4-2.9,2.3h3.8v1.8h-6.8
	v-6.8h1.8v3.7c1-1.1,2.1-2,3.4-2.7c1.3-0.7,2.7-1,4.2-1c2.6,0,4.8,0.9,6.6,2.8c1.8,1.8,2.8,4,2.8,6.6s-0.9,4.8-2.8,6.6
	C42.8,46.5,40.6,47.4,38,47.4z"/>
</svg>
