<?xml version="1.0" encoding="utf-8"?>
<!-- Generator: Adobe Illustrator 26.3.1, SVG Export Plug-In . SVG Version: 6.00 Build 0)  -->
<svg version="1.1" id="Слой_1" xmlns="http://www.w3.org/2000/svg" xmlns:xlink="http://www.w3.org/1999/xlink" x="0px" y="0px"
	 viewBox="0 0 48 48" style="enable-background:new 0 0 48 48;" xml:space="preserve">
<path d="M38.6,18.9L29,9.3l1.2-1.2c0.4-0.4,0.9-0.6,1.5-0.6c0.6,0,1.1,0.2,1.5,0.6l6.6,6.7c0.4,0.4,0.6,0.9,0.6,1.5
	c0,0.6-0.2,1.1-0.6,1.5L38.6,18.9z M17.6,40c-0.4,0.4-0.9,0.6-1.4,0.6c-0.6,0-1-0.2-1.4-0.5l-7.1-7c-0.3-0.3-0.5-0.7-0.5-1.2
	s0.2-0.9,0.5-1.2L9.4,29l9.6,9.6L17.6,40z M24.1,40.3c-0.3,0.3-0.6,0.4-1,0.4s-0.7-0.1-1-0.4L7.7,25.8c-0.3-0.3-0.4-0.6-0.4-1
	s0.1-0.7,0.4-1l3.8-3.8c0.3-0.3,0.6-0.4,1-0.4s0.7,0.1,1,0.4l4,4.1l6.7-6.7l-4.1-4c-0.3-0.3-0.4-0.6-0.4-1s0.1-0.7,0.4-1l3.8-3.8
	c0.3-0.3,0.6-0.4,1-0.4s0.7,0.1,1,0.4l14.5,14.5c0.3,0.3,0.4,0.6,0.4,1s-0.1,0.7-0.4,1l-3.8,3.8c-0.3,0.3-0.6,0.5-1,0.5
	s-0.7-0.1-1-0.5l-4-4.1l-6.7,6.7l4.1,4c0.3,0.3,0.5,0.6,0.5,1s-0.2,0.7-0.5,1C27.9,36.5,24.1,40.3,24.1,40.3z"/>
</svg>
