<?xml version="1.0" encoding="utf-8"?>
<!-- Generator: Adobe Illustrator 26.3.1, SVG Export Plug-In . SVG Version: 6.00 Build 0)  -->
<svg version="1.1" id="Слой_1" xmlns="http://www.w3.org/2000/svg" xmlns:xlink="http://www.w3.org/1999/xlink" x="0px" y="0px"
	 viewBox="0 0 48 48" style="enable-background:new 0 0 48 48;" xml:space="preserve">
<path d="M40.2,42.4l-4.6-4.6c-1.6,1.3-3.3,2.3-5.3,3.1c-2,0.7-4.1,1.1-6.3,1.1c-2.5,0-4.8-0.5-7-1.4s-4.1-2.2-5.7-3.8
	s-2.9-3.5-3.8-5.7S6,26.5,6,24c0-2.2,0.4-4.3,1.1-6.3s1.8-3.7,3.1-5.3L5.6,7.8l1.1-1.1l34.5,34.5C41.3,41.3,40.2,42.4,40.2,42.4z
	 M14.4,33.7l11-6.1l-4.9-4.9C20.6,22.8,14.4,33.7,14.4,33.7z M39,34L28.6,23.6l5.1-9.2l-9.2,5L14,9c1.4-0.9,3-1.7,4.7-2.2
	C20.3,6.3,22.1,6,24,6c2.5,0,4.8,0.5,7,1.4s4.1,2.2,5.7,3.8c1.6,1.6,2.9,3.5,3.8,5.7c0.9,2.2,1.4,4.5,1.4,7c0,1.9-0.3,3.7-0.8,5.3
	C40.7,31,40,32.6,39,34z"/>
</svg>
