<?xml version="1.0" encoding="utf-8"?>
<!-- Generator: Adobe Illustrator 26.3.1, SVG Export Plug-In . SVG Version: 6.00 Build 0)  -->
<svg version="1.1" id="Слой_1" xmlns="http://www.w3.org/2000/svg" xmlns:xlink="http://www.w3.org/1999/xlink" x="0px" y="0px"
	 viewBox="0 0 48 48" style="enable-background:new 0 0 48 48;" xml:space="preserve">
<path d="M13.1,32.8v-6.2H6.9V25h6.2v-6.2h1.5V25h6.2v1.5h-6.2v6.2L13.1,32.8L13.1,32.8z M26.1,35.9v-2l8.9-9.1
	c1.2-1.2,2.1-2.3,2.6-3.2c0.6-0.9,0.8-1.9,0.8-2.9c0-1.6-0.5-2.8-1.5-3.7s-2.3-1.4-3.9-1.4c-1.2,0-2.3,0.3-3.2,0.8
	c-0.9,0.5-1.7,1.3-2.2,2.3L26.1,16c0.7-1.3,1.6-2.3,2.8-3c1.2-0.7,2.5-1,4.1-1c2.1,0,3.8,0.6,5,1.9c1.3,1.3,1.9,2.9,1.9,4.8
	c0,1.2-0.3,2.4-0.9,3.4c-0.6,1.1-1.6,2.3-2.9,3.6L28,34.3v0.1h13.1v1.5C41.1,35.9,26.1,35.9,26.1,35.9z"/>
</svg>
