<?xml version="1.0" encoding="utf-8"?>
<!-- Generator: Adobe Illustrator 26.3.1, SVG Export Plug-In . SVG Version: 6.00 Build 0)  -->
<svg version="1.1" id="Слой_1" xmlns="http://www.w3.org/2000/svg" xmlns:xlink="http://www.w3.org/1999/xlink" x="0px" y="0px"
	 viewBox="0 0 48 48" style="enable-background:new 0 0 48 48;" xml:space="preserve">
<path d="M9.5,40c-0.4,0-0.8-0.2-1.1-0.5S8,38.9,8,38.5V30c1.1-0.4,2-1.1,2.7-2s1-2,1-3.1c0-1.2-0.3-2.2-1-3.1s-1.6-1.6-2.7-2V11
	c0-0.2,0-0.4,0.1-0.6c0.1-0.2,0.2-0.3,0.4-0.5l29.6,29.6c-0.1,0.2-0.3,0.3-0.5,0.4C37.4,40,37.2,40,37,40h-8.8c-0.4-1.1-1.1-2-2-2.7
	s-1.9-1-3.1-1s-2.2,0.3-3.1,1c-1,0.7-1.6,1.6-2,2.7H9.5z M38.1,33.2L14.8,9.9h3.1c0.5-1.1,1.2-2,2.1-2.6c0.9-0.7,1.9-1,3.1-1
	c1.1,0,2.1,0.3,3,1s1.6,1.5,2.1,2.6h8.3c0.4,0,0.8,0.2,1.1,0.5s0.5,0.7,0.5,1.1v8.3c1.1,0.5,2,1.2,2.6,2.2c0.6,0.9,0.9,2,0.9,3.1
	s-0.3,2.1-0.9,3c-0.6,0.9-1.5,1.6-2.6,2.1C38.1,30.1,38.1,33.2,38.1,33.2z M40.2,42.4L5.6,7.8l1.1-1.1l34.5,34.5
	C41.3,41.3,40.2,42.4,40.2,42.4z"/>
</svg>
