<?xml version="1.0" encoding="utf-8"?>
<!-- Generator: Adobe Illustrator 26.3.1, SVG Export Plug-In . SVG Version: 6.00 Build 0)  -->
<svg version="1.1" id="Слой_1" xmlns="http://www.w3.org/2000/svg" xmlns:xlink="http://www.w3.org/1999/xlink" x="0px" y="0px"
	 viewBox="0 0 48 48" style="enable-background:new 0 0 48 48;" xml:space="preserve">
<path d="M18,40H9.5c-0.4,0-0.8-0.2-1.1-0.5c-0.2-0.3-0.4-0.6-0.4-1V30c1.1-0.4,2-1.1,2.7-2s1-2,1-3.1c0-1.2-0.3-2.2-1-3.1
	s-1.6-1.6-2.7-2v-8.5c0-0.4,0.2-0.8,0.5-1.1c0.3-0.2,0.6-0.3,1-0.3h8.4c0.5-1.1,1.2-2,2.1-2.6c0.9-0.7,1.9-1,3.1-1
	c1.1,0,2.1,0.3,3,1s1.6,1.5,2.1,2.6h8.3c0.4,0,0.8,0.2,1.1,0.5s0.5,0.7,0.5,1.1v8.3c1.1,0.5,2,1.2,2.6,2.2c0.6,0.9,0.9,2,0.9,3.1
	s-0.3,2.1-0.9,3c-0.6,0.9-1.5,1.6-2.6,2.1v8.4c0,0.4-0.2,0.8-0.5,1.1c-0.2,0.1-0.6,0.3-1,0.3h-8.5c-0.4-1.2-1.1-2.1-2.1-2.7
	c-0.9-0.6-1.9-1-3-1s-2.1,0.3-3,1C19.1,37.9,18.4,38.8,18,40z"/>
</svg>
