<?xml version="1.0" encoding="utf-8"?>
<!-- Generator: Adobe Illustrator 26.3.1, SVG Export Plug-In . SVG Version: 6.00 Build 0)  -->
<svg version="1.1" id="Слой_1" xmlns="http://www.w3.org/2000/svg" xmlns:xlink="http://www.w3.org/1999/xlink" x="0px" y="0px"
	 viewBox="0 0 48 48" style="enable-background:new 0 0 48 48;" xml:space="preserve">
<path d="M14.7,30.5c1.1,0,2.2-0.3,3.1-1s1.6-1.6,2-2.7l0.6-2c0.6-1.8,0.5-3.5-0.4-5.1c-0.9-1.5-2.2-2.3-3.9-2.3H8.5l1,8.4
	c0.2,1.3,0.7,2.4,1.7,3.3C12.2,30.1,13.4,30.5,14.7,30.5z M33.3,30.5c1.3,0,2.5-0.4,3.5-1.3s1.6-2,1.7-3.4l1-8.4h-7.6
	c-1.7,0-3,0.8-3.9,2.3s-1.1,3.2-0.4,5.1l0.6,2c0.4,1.1,1.1,2,2,2.7C31.1,30.2,32.1,30.5,33.3,30.5z M14.8,32.1
	c-1.7,0-3.2-0.6-4.5-1.7C9,29.2,8.2,27.7,8,26l-1.1-8.5H5.3V16h10.8c1.1,0,2.2,0.3,3.2,1c1,0.6,1.8,1.6,2.5,2.7h4.6
	c0.7-1.2,1.5-2.1,2.5-2.7s2-1,3.2-1h10.7v1.5h-1.6L40,26c-0.2,1.8-1,3.2-2.3,4.4c-1.3,1.2-2.8,1.7-4.5,1.7c-1.5,0-2.8-0.4-4-1.3
	c-1.2-0.8-2-2-2.5-3.4l-0.6-1.9c-0.1-0.3-0.2-0.7-0.3-1.1c-0.1-0.4-0.2-0.9-0.2-1.6h-3.2c-0.1,0.6-0.1,1.1-0.2,1.5s-0.2,0.8-0.3,1.1
	l-0.6,1.9c-0.5,1.4-1.4,2.6-2.5,3.5C17.6,31.6,16.3,32.1,14.8,32.1z"/>
</svg>
