<?xml version="1.0" encoding="utf-8"?>
<!-- Generator: Adobe Illustrator 26.3.1, SVG Export Plug-In . SVG Version: 6.00 Build 0)  -->
<svg version="1.1" id="Слой_1" xmlns="http://www.w3.org/2000/svg" xmlns:xlink="http://www.w3.org/1999/xlink" x="0px" y="0px"
	 viewBox="0 0 48 48" style="enable-background:new 0 0 48 48;" xml:space="preserve">
<path d="M24,44c-3.1,0-6.1-0.7-8.9-2s-5.4-3-7.8-5v5H6v-7.8h7.8v1.3H7.5c2.3,2,4.9,3.8,7.6,5.1c2.8,1.4,5.7,2.1,8.8,2.1
	s6-0.7,8.8-2.1c2.8-1.4,5.3-3.1,7.7-5.1h-6.2v-1.3H42V42h-1.3v-5c-2.4,2-5,3.7-7.8,5S27.1,44,24,44z M23.9,31.9
	c-3.9,0-7.1-1.3-9.9-4s-4-6.1-4-9.9c0-3.9,1.4-7.2,4.1-9.9S20.1,4,24,4s7.1,1.4,9.9,4.1c2.7,2.7,4.1,6,4.1,9.9s-1.4,7.2-4.1,9.9
	C31.1,30.5,27.8,31.9,23.9,31.9z M23.9,30.3c3.4,0,6.4-1.2,8.8-3.6s3.6-5.3,3.6-8.7c0-0.6,0-1.2-0.1-1.7c-0.1-0.6-0.2-1.1-0.4-1.7
	c-0.5,0.1-1.1,0.2-1.6,0.2s-1.1,0.1-1.6,0.1c-2.4,0-4.6-0.5-6.7-1.5S22,11,20.6,9.2c-0.8,2-2,3.8-3.6,5.3s-3.4,2.6-5.5,3.3V18
	c0,3.5,1.2,6.4,3.6,8.8C17.6,29.1,20.5,30.3,23.9,30.3z M19.3,21.1c-0.5,0-0.8-0.2-1.2-0.5c-0.3-0.3-0.5-0.7-0.5-1.2
	c0-0.4,0.2-0.8,0.5-1.1c0.3-0.3,0.7-0.5,1.2-0.5c0.4,0,0.8,0.2,1.1,0.5c0.3,0.3,0.5,0.7,0.5,1.1c0,0.5-0.2,0.8-0.5,1.1
	C20.1,21,19.7,21.1,19.3,21.1z M28.6,21.1c-0.5,0-0.8-0.2-1.1-0.5C27.1,20.4,27,20,27,19.5c0-0.4,0.2-0.8,0.5-1.1
	c0.3-0.3,0.7-0.5,1.2-0.5s0.8,0.2,1.1,0.5c0.3,0.3,0.5,0.7,0.5,1.1c0,0.5-0.2,0.8-0.5,1.1C29.4,21,29,21.1,28.6,21.1z"/>
</svg>
