<?xml version="1.0" encoding="utf-8"?>
<!-- Generator: Adobe Illustrator 26.3.1, SVG Export Plug-In . SVG Version: 6.00 Build 0)  -->
<svg version="1.1" id="Слой_1" xmlns="http://www.w3.org/2000/svg" xmlns:xlink="http://www.w3.org/1999/xlink" x="0px" y="0px"
	 viewBox="0 0 48 48" style="enable-background:new 0 0 48 48;" xml:space="preserve">
<path d="M24,12c-0.3,0-0.5-0.1-0.7-0.3C23.1,11.5,23,11.3,23,11s0.1-0.5,0.3-0.7c0.2-0.2,0.4-0.3,0.7-0.3c0.3,0,0.5,0.1,0.7,0.3
	S25,10.7,25,11s-0.1,0.5-0.3,0.7C24.5,11.9,24.3,12,24,12z M28,12c-0.3,0-0.5-0.1-0.7-0.3C27.1,11.5,27,11.3,27,11s0.1-0.5,0.3-0.7
	c0.2-0.2,0.4-0.3,0.7-0.3c0.3,0,0.5,0.1,0.7,0.3S29,10.7,29,11s-0.1,0.5-0.3,0.7C28.5,11.9,28.3,12,28,12z M20,12
	c-0.3,0-0.5-0.1-0.7-0.3C19.1,11.5,19,11.3,19,11s0.1-0.5,0.3-0.7c0.2-0.2,0.4-0.3,0.7-0.3c0.3,0,0.5,0.1,0.7,0.3S21,10.7,21,11
	s-0.1,0.5-0.3,0.7C20.5,11.9,20.3,12,20,12z M34,14c-0.3,0-0.5-0.1-0.7-0.3S33,13.3,33,13s0.1-0.5,0.3-0.7S33.7,12,34,12
	s0.5,0.1,0.7,0.3S35,12.7,35,13s-0.1,0.5-0.3,0.7S34.3,14,34,14z M18,14c-0.3,0-0.5-0.1-0.7-0.3C17.1,13.5,17,13.3,17,13
	s0.1-0.5,0.3-0.7c0.2-0.2,0.4-0.3,0.7-0.3c0.3,0,0.5,0.1,0.7,0.3S19,12.7,19,13s-0.1,0.5-0.3,0.7C18.5,13.9,18.3,14,18,14z M14,14
	c-0.3,0-0.5-0.1-0.7-0.3S13,13.3,13,13s0.1-0.5,0.3-0.7S13.7,12,14,12s0.5,0.1,0.7,0.3S15,12.7,15,13s-0.1,0.5-0.3,0.7
	S14.3,14,14,14z M22,14c-0.3,0-0.5-0.1-0.7-0.3C21.1,13.5,21,13.3,21,13s0.1-0.5,0.3-0.7c0.2-0.2,0.4-0.3,0.7-0.3
	c0.3,0,0.5,0.1,0.7,0.3S23,12.7,23,13s-0.1,0.5-0.3,0.7C22.5,13.9,22.3,14,22,14z M26,14c-0.3,0-0.5-0.1-0.7-0.3
	C25.1,13.5,25,13.3,25,13s0.1-0.5,0.3-0.7c0.2-0.2,0.4-0.3,0.7-0.3c0.3,0,0.5,0.1,0.7,0.3S27,12.7,27,13s-0.1,0.5-0.3,0.7
	C26.5,13.9,26.3,14,26,14z M30,14c-0.3,0-0.5-0.1-0.7-0.3C29.1,13.5,29,13.3,29,13s0.1-0.5,0.3-0.7c0.2-0.2,0.4-0.3,0.7-0.3
	c0.3,0,0.5,0.1,0.7,0.3S31,12.7,31,13s-0.1,0.5-0.3,0.7C30.5,13.9,30.3,14,30,14z M24,16c-0.3,0-0.5-0.1-0.7-0.3
	C23.1,15.5,23,15.3,23,15s0.1-0.5,0.3-0.7c0.2-0.2,0.4-0.3,0.7-0.3c0.3,0,0.5,0.1,0.7,0.3S25,14.7,25,15s-0.1,0.5-0.3,0.7
	C24.5,15.9,24.3,16,24,16z M28,16c-0.3,0-0.5-0.1-0.7-0.3C27.1,15.5,27,15.3,27,15s0.1-0.5,0.3-0.7c0.2-0.2,0.4-0.3,0.7-0.3
	c0.3,0,0.5,0.1,0.7,0.3S29,14.7,29,15s-0.1,0.5-0.3,0.7C28.5,15.9,28.3,16,28,16z M32,16c-0.3,0-0.5-0.1-0.7-0.3
	C31.1,15.5,31,15.3,31,15s0.1-0.5,0.3-0.7c0.2-0.2,0.4-0.3,0.7-0.3c0.3,0,0.5,0.1,0.7,0.3S33,14.7,33,15s-0.1,0.5-0.3,0.7
	S32.3,16,32,16z M20,16c-0.3,0-0.5-0.1-0.7-0.3C19.1,15.5,19,15.3,19,15s0.1-0.5,0.3-0.7c0.2-0.2,0.4-0.3,0.7-0.3
	c0.3,0,0.5,0.1,0.7,0.3S21,14.7,21,15s-0.1,0.5-0.3,0.7C20.5,15.9,20.3,16,20,16z M16,16c-0.3,0-0.5-0.1-0.7-0.3S15,15.3,15,15
	s0.1-0.5,0.3-0.7S15.7,14,16,14c0.3,0,0.5,0.1,0.7,0.3S17,14.7,17,15s-0.1,0.5-0.3,0.7C16.5,15.9,16.3,16,16,16z M18,18
	c-0.3,0-0.5-0.1-0.7-0.3C17.1,17.5,17,17.3,17,17s0.1-0.5,0.3-0.7c0.2-0.2,0.4-0.3,0.7-0.3c0.3,0,0.5,0.1,0.7,0.3S19,16.7,19,17
	c0,0.3-0.1,0.5-0.3,0.7C18.5,17.9,18.3,18,18,18z M14,18c-0.3,0-0.5-0.1-0.7-0.3C13.1,17.5,13,17.3,13,17s0.1-0.5,0.3-0.7
	S13.7,16,14,16s0.5,0.1,0.7,0.3S15,16.7,15,17c0,0.3-0.1,0.5-0.3,0.7C14.5,17.9,14.3,18,14,18z M22,18c-0.3,0-0.5-0.1-0.7-0.3
	C21.1,17.5,21,17.3,21,17s0.1-0.5,0.3-0.7c0.2-0.2,0.4-0.3,0.7-0.3c0.3,0,0.5,0.1,0.7,0.3S23,16.7,23,17c0,0.3-0.1,0.5-0.3,0.7
	C22.5,17.9,22.3,18,22,18z M26,18c-0.3,0-0.5-0.1-0.7-0.3C25.1,17.5,25,17.3,25,17s0.1-0.5,0.3-0.7c0.2-0.2,0.4-0.3,0.7-0.3
	c0.3,0,0.5,0.1,0.7,0.3S27,16.7,27,17c0,0.3-0.1,0.5-0.3,0.7C26.5,17.9,26.3,18,26,18z M30,18c-0.3,0-0.5-0.1-0.7-0.3
	C29.1,17.5,29,17.3,29,17s0.1-0.5,0.3-0.7c0.2-0.2,0.4-0.3,0.7-0.3c0.3,0,0.5,0.1,0.7,0.3S31,16.7,31,17c0,0.3-0.1,0.5-0.3,0.7
	C30.5,17.9,30.3,18,30,18z M34,18c-0.3,0-0.5-0.1-0.7-0.3C33.1,17.5,33,17.3,33,17s0.1-0.5,0.3-0.7S33.7,16,34,16s0.5,0.1,0.7,0.3
	S35,16.7,35,17c0,0.3-0.1,0.5-0.3,0.7C34.5,17.9,34.3,18,34,18z M10,18c-0.3,0-0.5-0.1-0.7-0.3C9.1,17.5,9,17.3,9,17
	s0.1-0.5,0.3-0.7C9.5,16.1,9.7,16,10,16s0.5,0.1,0.7,0.3c0.2,0.2,0.3,0.4,0.3,0.7c0,0.3-0.1,0.5-0.3,0.7C10.5,17.9,10.3,18,10,18z
	 M12,16c-0.3,0-0.5-0.1-0.7-0.3S11,15.3,11,15s0.1-0.5,0.3-0.7S11.7,14,12,14s0.5,0.1,0.7,0.3S13,14.7,13,15s-0.1,0.5-0.3,0.7
	S12.3,16,12,16z M16,12c-0.3,0-0.5-0.1-0.7-0.3S15,11.3,15,11s0.1-0.5,0.3-0.7S15.7,10,16,10c0.3,0,0.5,0.1,0.7,0.3S17,10.7,17,11
	s-0.1,0.5-0.3,0.7C16.5,11.9,16.3,12,16,12z M18,10c-0.3,0-0.5-0.1-0.7-0.3C17.1,9.5,17,9.3,17,9s0.1-0.5,0.3-0.7
	C17.5,8.1,17.7,8,18,8s0.5,0.1,0.7,0.3C18.9,8.5,19,8.7,19,9s-0.1,0.5-0.3,0.7C18.5,9.9,18.3,10,18,10z M22,10
	c-0.3,0-0.5-0.1-0.7-0.3C21.1,9.5,21,9.3,21,9s0.1-0.5,0.3-0.7C21.5,8.1,21.7,8,22,8s0.5,0.1,0.7,0.3C22.9,8.5,23,8.7,23,9
	s-0.1,0.5-0.3,0.7C22.5,9.9,22.3,10,22,10z M26,10c-0.3,0-0.5-0.1-0.7-0.3C25.1,9.5,25,9.3,25,9s0.1-0.5,0.3-0.7
	C25.5,8.1,25.7,8,26,8s0.5,0.1,0.7,0.3C26.9,8.5,27,8.7,27,9s-0.1,0.5-0.3,0.7C26.5,9.9,26.3,10,26,10z M30,10
	c-0.3,0-0.5-0.1-0.7-0.3C29.1,9.5,29,9.3,29,9s0.1-0.5,0.3-0.7C29.5,8.1,29.7,8,30,8s0.5,0.1,0.7,0.3C30.9,8.5,31,8.7,31,9
	s-0.1,0.5-0.3,0.7C30.5,9.9,30.3,10,30,10z M32,12c-0.3,0-0.5-0.1-0.7-0.3C31.1,11.5,31,11.3,31,11s0.1-0.5,0.3-0.7
	c0.2-0.2,0.4-0.3,0.7-0.3c0.3,0,0.5,0.1,0.7,0.3S33,10.7,33,11s-0.1,0.5-0.3,0.7S32.3,12,32,12z M36,16c-0.3,0-0.5-0.1-0.7-0.3
	S35,15.3,35,15s0.1-0.5,0.3-0.7S35.7,14,36,14s0.5,0.1,0.7,0.3S37,14.7,37,15s-0.1,0.5-0.3,0.7S36.3,16,36,16z M38,18
	c-0.3,0-0.5-0.1-0.7-0.3C37.1,17.5,37,17.3,37,17s0.1-0.5,0.3-0.7S37.7,16,38,16s0.5,0.1,0.7,0.3S39,16.7,39,17
	c0,0.3-0.1,0.5-0.3,0.7C38.5,17.9,38.3,18,38,18z M17.8,28.7c-0.7,0-1.3-0.3-1.8-0.8c-0.5-0.5-0.8-1.1-0.8-1.8s0.3-1.3,0.8-1.8
	c0.5-0.5,1.1-0.7,1.8-0.7s1.3,0.3,1.8,0.8s0.7,1.1,0.7,1.8c0,0.7-0.3,1.3-0.8,1.8C19.2,28.4,18.6,28.7,17.8,28.7z M30.1,28.7
	c-0.7,0-1.3-0.3-1.8-0.8s-0.8-1.1-0.8-1.8s0.3-1.3,0.8-1.8s1.1-0.7,1.8-0.7s1.3,0.3,1.8,0.8c0.5,0.5,0.7,1.1,0.7,1.8
	c0,0.7-0.3,1.3-0.8,1.8C31.5,28.4,30.9,28.7,30.1,28.7z M24,42c-2.5,0-4.8-0.5-7-1.4s-4.1-2.2-5.7-3.9c-1.6-1.6-2.9-3.5-3.9-5.7
	S6,26.5,6,24s0.5-4.8,1.4-7s2.2-4.1,3.9-5.7c1.6-1.6,3.5-2.9,5.7-3.9C19.2,6.5,21.5,6,24,6s4.8,0.5,7,1.4s4.1,2.2,5.7,3.9
	c1.6,1.6,2.9,3.5,3.9,5.7c0.9,2.2,1.4,4.5,1.4,7s-0.5,4.8-1.4,7s-2.2,4.1-3.9,5.7c-1.6,1.6-3.5,2.9-5.7,3.9C28.8,41.5,26.5,42,24,42
	z M24,40.5c4.6,0,8.5-1.6,11.7-4.8s4.8-7.1,4.8-11.6c0-4.6-1.6-8.5-4.8-11.7C32.5,9.1,28.6,7.5,24,7.5s-8.4,1.6-11.7,4.8
	C9.1,15.5,7.5,19.4,7.5,24s1.6,8.4,4.8,11.7C15.5,38.9,19.4,40.5,24,40.5z"/>
</svg>
