<?xml version="1.0" encoding="utf-8"?>
<!-- Generator: Adobe Illustrator 26.3.1, SVG Export Plug-In . SVG Version: 6.00 Build 0)  -->
<svg version="1.1" id="Слой_1" xmlns="http://www.w3.org/2000/svg" xmlns:xlink="http://www.w3.org/1999/xlink" x="0px" y="0px"
	 viewBox="0 0 48 48" style="enable-background:new 0 0 48 48;" xml:space="preserve">
<path d="M24,42c-2.5,0-4.8-0.5-7-1.4s-4.1-2.2-5.7-3.8s-2.9-3.5-3.8-5.7S6,26.5,6,24s0.5-4.8,1.4-7s2.2-4.1,3.8-5.7s3.5-2.9,5.7-3.9
	S21.5,6,24,6c0.9,0,1.7,0,2.4,0.2c0.7,0.1,1.5,0.3,2.4,0.6l-4.5,1.9l10.6,4.5l2.8,6.6c-3.7,0.4-7.1,0-10.2-1.3
	c-3.2-1.3-5.9-3.3-8.2-6.1c-1.3,3.1-3.1,5.6-5.2,7.3c-2.1,1.8-4.3,3.1-6.6,4c0,4.7,1.6,8.7,4.8,11.9s7.1,4.8,11.6,4.8
	c4.6,0,8.5-1.6,11.7-4.9c3.2-3.2,4.8-7.1,4.8-11.6c0-0.5,0-1,0-1.4s-0.1-0.7-0.2-1l1.1-2.5c0.2,0.8,0.4,1.6,0.5,2.4S42,23.1,42,24
	c0,2.5-0.5,4.9-1.4,7c-1,2.2-2.2,4.1-3.9,5.7c-1.6,1.6-3.5,2.9-5.7,3.8C28.8,41.5,26.5,42,24,42z M17.9,28.6c-0.7,0-1.3-0.2-1.8-0.8
	c-0.5-0.5-0.8-1.1-0.8-1.9s0.3-1.3,0.8-1.8s1.1-0.7,1.8-0.7c0.7,0,1.4,0.2,1.9,0.7s0.8,1.1,0.8,1.8s-0.2,1.4-0.8,1.9
	S18.6,28.6,17.9,28.6z M30.2,28.6c-0.7,0-1.3-0.2-1.8-0.8c-0.5-0.5-0.8-1.1-0.8-1.9s0.3-1.3,0.8-1.8s1.1-0.7,1.8-0.7
	c0.7,0,1.3,0.2,1.8,0.7s0.8,1.1,0.8,1.8s-0.2,1.4-0.8,1.9S30.9,28.6,30.2,28.6z M39.6,14.7l-1.9-4.3l-4.2-1.8l4.2-1.8l1.9-4.3
	l1.9,4.3l4.2,1.8l-4.2,1.8L39.6,14.7z"/>
</svg>
