<?xml version="1.0" encoding="utf-8"?>
<!-- Generator: Adobe Illustrator 26.3.1, SVG Export Plug-In . SVG Version: 6.00 Build 0)  -->
<svg version="1.1" id="Слой_1" xmlns="http://www.w3.org/2000/svg" xmlns:xlink="http://www.w3.org/1999/xlink" x="0px" y="0px"
	 viewBox="0 0 48 48" style="enable-background:new 0 0 48 48;" xml:space="preserve">
<path d="M18,38c-3.9,0-7.1-1.4-9.9-4.1C5.4,31.2,4,27.9,4,24s1.4-7.1,4.1-9.9c2.7-2.7,6-4.1,9.9-4.1s7.1,1.4,9.9,4.1
	c2.7,2.7,4.1,6,4.1,9.9s-1.4,7.1-4.1,9.9C25.2,36.6,21.9,38,18,38z M18,36.5c3.4,0,6.4-1.2,8.8-3.6s3.6-5.3,3.6-8.8
	c0-0.6,0-1.2-0.1-1.7c-0.1-0.6-0.2-1.1-0.4-1.7c-0.5,0.1-1.1,0.2-1.6,0.2C27.8,21,27.2,21,26.7,21c-2.3,0-4.6-0.5-6.6-1.4
	c-2.1-1-3.9-2.4-5.4-4.3c-0.8,2-2,3.8-3.6,5.3s-3.4,2.6-5.5,3.3V24c0,3.4,1.2,6.4,3.6,8.8C11.6,35.3,14.6,36.5,18,36.5z M13.3,27.3
	c-0.5,0-0.8-0.2-1.1-0.5s-0.5-0.7-0.5-1.2s0.2-0.8,0.5-1.1c0.3-0.3,0.7-0.5,1.2-0.5c0.4,0,0.8,0.2,1.1,0.5s0.5,0.7,0.5,1.2
	s-0.2,0.8-0.5,1.1S13.8,27.3,13.3,27.3z M22.6,27.3c-0.5,0-0.8-0.2-1.1-0.5c-0.3-0.3-0.5-0.7-0.5-1.2s0.2-0.8,0.5-1.1
	c0.3-0.3,0.7-0.5,1.1-0.5c0.5,0,0.8,0.2,1.2,0.5c0.3,0.3,0.5,0.7,0.5,1.2s-0.2,0.8-0.5,1.1C23.5,27.1,23.1,27.3,22.6,27.3z M34.2,42
	v-7.8h1.3v6.3c2-2.3,3.8-4.9,5.1-7.6c1.4-2.8,2.1-5.7,2.1-8.8s-0.7-6-2.1-8.8c-1.4-2.8-3.1-5.3-5.1-7.7v6.2h-1.3V6H42v1.3h-5
	c2,2.4,3.7,5,5,7.8s2,5.8,2,8.9s-0.7,6.1-2,8.9s-3,5.4-5,7.8h5V42H34.2z"/>
</svg>
