<?xml version="1.0" encoding="utf-8"?>
<!-- Generator: Adobe Illustrator 26.3.1, SVG Export Plug-In . SVG Version: 6.00 Build 0)  -->
<svg version="1.1" id="Слой_1" xmlns="http://www.w3.org/2000/svg" xmlns:xlink="http://www.w3.org/1999/xlink" x="0px" y="0px"
	 viewBox="0 0 48 48" style="enable-background:new 0 0 48 48;" xml:space="preserve">
<path d="M30.6,23.1c-0.4,0-0.8-0.2-1.1-0.5c-0.3-0.3-0.5-0.7-0.5-1.2s0.2-0.8,0.5-1.1c0.3-0.3,0.7-0.5,1.1-0.5
	c0.5,0,0.8,0.2,1.2,0.5c0.3,0.3,0.5,0.7,0.5,1.2s-0.2,0.8-0.5,1.1C31.5,23,31.1,23.1,30.6,23.1z M21.3,23.1c-0.5,0-0.8-0.2-1.1-0.5
	c-0.3-0.3-0.5-0.7-0.5-1.2s0.2-0.8,0.5-1.1c0.3-0.3,0.7-0.5,1.2-0.5s0.8,0.2,1.1,0.5c0.3,0.3,0.5,0.7,0.5,1.2s-0.2,0.8-0.5,1.1
	C22.2,23,21.8,23.1,21.3,23.1z M17.5,32.2c-2.2-1.2-4-2.9-5.4-5c-1.4-2.2-2-4.6-2-7.3c0-3.9,1.4-7.2,4.1-9.9c2.6-2.6,5.9-4,9.8-4
	s7.1,1.4,9.9,4.1c2.7,2.7,4.1,6,4.1,9.9c0,2.7-0.7,5.1-2,7.3c-1.4,2.2-3.1,3.8-5.3,5l-1.2-1.1c2.1-1,3.8-2.5,5.1-4.5s2-4.2,2-6.7
	c0-0.6,0-1.2-0.1-1.7c-0.1-0.6-0.2-1.1-0.4-1.7c-0.5,0.1-1.1,0.2-1.6,0.2c-0.5,0.1-1.1,0.1-1.6,0.1c-2.3,0-4.6-0.5-6.6-1.5
	c-2.1-1-3.9-2.4-5.4-4.2c-0.8,2-2,3.8-3.6,5.3s-3.4,2.6-5.5,3.3V20c0,2.5,0.6,4.7,1.9,6.7s3,3.5,5.1,4.5
	C18.7,31.1,17.5,32.2,17.5,32.2z M24.3,44.5l-1.1-1.1l4.4-4.4H17.5v-1.5h10.1l-4.4-4.4l1.1-1.1l6.3,6.3L24.3,44.5z"/>
</svg>
