<?xml version="1.0" encoding="utf-8"?>
<!-- Generator: Adobe Illustrator 26.3.1, SVG Export Plug-In . SVG Version: 6.00 Build 0)  -->
<svg version="1.1" id="Слой_1" xmlns="http://www.w3.org/2000/svg" xmlns:xlink="http://www.w3.org/1999/xlink" x="0px" y="0px"
	 viewBox="0 0 48 48" style="enable-background:new 0 0 48 48;" xml:space="preserve">
<path d="M17.8,28.7c-0.7,0-1.3-0.3-1.8-0.8c-0.5-0.5-0.8-1.1-0.8-1.8s0.3-1.3,0.8-1.8c0.5-0.5,1.1-0.7,1.8-0.7s1.3,0.3,1.8,0.8
	s0.7,1.1,0.7,1.8c0,0.7-0.3,1.3-0.8,1.8C19.2,28.4,18.6,28.7,17.8,28.7z M30.1,28.7c-0.7,0-1.3-0.3-1.8-0.8s-0.8-1.1-0.8-1.8
	s0.3-1.3,0.8-1.8s1.1-0.7,1.8-0.7s1.3,0.3,1.8,0.8c0.5,0.5,0.7,1.1,0.7,1.8c0,0.7-0.3,1.3-0.8,1.8C31.5,28.4,30.9,28.7,30.1,28.7z
	 M24,40.5c4.6,0,8.5-1.6,11.7-4.8s4.8-7.1,4.8-11.7c0-0.8-0.1-1.6-0.2-2.4c-0.1-0.8-0.3-1.5-0.5-2.2c-0.7,0.2-1.4,0.3-2.1,0.4
	c-0.7,0.1-1.5,0.1-2.3,0.1c-3.1,0-6.1-0.7-8.9-2s-5.2-3.2-7.1-5.6c-1.1,2.6-2.6,4.9-4.7,6.9s-4.4,3.5-7.1,4.5V24
	c0,4.6,1.6,8.5,4.8,11.7C15.5,38.9,19.4,40.5,24,40.5z M24,42c-2.5,0-4.8-0.5-7-1.4s-4.1-2.2-5.7-3.8s-2.9-3.5-3.8-5.7
	C6.5,28.8,6,26.5,6,24s0.5-4.8,1.4-7s2.2-4.1,3.8-5.7s3.5-2.9,5.7-3.8C19.2,6.5,21.5,6,24,6s4.8,0.5,7,1.4s4.1,2.2,5.7,3.8
	c1.6,1.6,2.9,3.5,3.8,5.7c0.9,2.2,1.4,4.5,1.4,7s-0.5,4.8-1.4,7s-2.2,4.1-3.8,5.7s-3.5,2.9-5.7,3.8C28.8,41.5,26.5,42,24,42z"/>
</svg>
