<?xml version="1.0" encoding="utf-8"?>
<!-- Generator: Adobe Illustrator 26.3.1, SVG Export Plug-In . SVG Version: 6.00 Build 0)  -->
<svg version="1.1" id="Слой_1" xmlns="http://www.w3.org/2000/svg" xmlns:xlink="http://www.w3.org/1999/xlink" x="0px" y="0px"
	 viewBox="0 0 48 48" style="enable-background:new 0 0 48 48;" xml:space="preserve">
<path d="M19.8,44.8c-1.4,0-2.7-0.4-3.9-1.3c-1.2-0.8-2-2-2.5-3.4c-0.3-1-0.8-1.9-1.4-2.7c-0.6-0.8-1.4-1.1-2.3-1.1
	c-0.6,0-1.2,0.1-1.8,0.4c-0.6,0.3-1.1,0.7-1.6,1.2l-1.1-1.1c0.6-0.7,1.3-1.2,2-1.5s1.6-0.5,2.4-0.5c1.3,0,2.3,0.5,3.2,1.4
	c0.9,1,1.6,2.1,2,3.5c0.3,1,1,1.9,1.9,2.5c0.9,0.7,1.9,1,3,1c0.9,0,1.7-0.2,2.4-0.7c0.7-0.5,1.3-1,1.8-1.7l0.1-0.1L10.5,21
	c-0.2-0.3-0.3-0.5-0.4-0.8C10,19.9,10,19.6,10,19.3c0-0.3,0.1-0.7,0.2-1c0.1-0.3,0.3-0.6,0.6-0.9L23.2,4.7c0.3-0.2,0.6-0.4,0.9-0.6
	C24.3,4,24.7,4,25,4s0.7,0.1,1,0.2s0.6,0.3,0.9,0.6l12.4,12.7c0.2,0.3,0.4,0.6,0.6,0.9c0.1,0.3,0.2,0.7,0.2,1s0,0.6-0.1,0.9
	s-0.2,0.5-0.4,0.8L25.8,41c-0.8,1.2-1.7,2.1-2.7,2.8C22.1,44.5,21,44.8,19.8,44.8z"/>
</svg>
