<?xml version="1.0" encoding="utf-8"?>
<!-- Generator: Adobe Illustrator 26.3.1, SVG Export Plug-In . SVG Version: 6.00 Build 0)  -->
<svg version="1.1" id="Слой_1" xmlns="http://www.w3.org/2000/svg" xmlns:xlink="http://www.w3.org/1999/xlink" x="0px" y="0px"
	 viewBox="0 0 48 48" style="enable-background:new 0 0 48 48;" xml:space="preserve">
<path d="M24,8.5l19.2,14.3l-1,1.2L38,20.8V40H10V20.8L5.8,24l-0.9-1.2L24,8.5z M17.4,24.9c0,1.3,0.7,2.7,2,4.2
	c1.4,1.5,2.9,3,4.6,4.6c1.7-1.5,3.3-3.1,4.6-4.6c1.4-1.5,2-2.9,2-4.2c0-1-0.3-1.9-1-2.6s-1.5-1-2.6-1c-0.6,0-1.2,0.1-1.7,0.4
	s-1,0.6-1.4,1c-0.3-0.4-0.8-0.7-1.3-1s-1.1-0.4-1.7-0.4c-1,0-1.9,0.3-2.6,1C17.7,23,17.4,23.9,17.4,24.9z"/>
</svg>
