<?xml version="1.0" encoding="utf-8"?>
<!-- Generator: Adobe Illustrator 26.3.1, SVG Export Plug-In . SVG Version: 6.00 Build 0)  -->
<svg version="1.1" id="Слой_1" xmlns="http://www.w3.org/2000/svg" xmlns:xlink="http://www.w3.org/1999/xlink" x="0px" y="0px"
	 viewBox="0 0 48 48" style="enable-background:new 0 0 48 48;" xml:space="preserve">
<path d="M4.9,32.1c0-2.9,1.4-5,4.2-6.3s5.8-2,9.1-2s6.4,0.7,9.1,2c2.8,1.3,4.2,3.4,4.2,6.3H4.9z M4.9,38v-1.7h26.6V38H4.9z M6.2,44
	c-0.3,0-0.7-0.1-0.9-0.4C5,43.3,4.9,43,4.9,42.7v-0.4h26.6v0.4c0,0.3-0.1,0.7-0.4,0.9c-0.2,0.3-0.6,0.4-0.9,0.4
	C30.2,44,6.2,44,6.2,44z M35.1,44V31.8c0-3-1.1-5.5-3.4-7.5c-2.2-2-4.9-3.3-7.9-3.8l-1-7.2h9.3V4.8h1.5v8.5h9.5l-3,28.3
	c-0.1,0.7-0.4,1.4-0.9,1.8c-0.5,0.5-1.1,0.7-1.9,0.7C37.4,44,35.1,44,35.1,44z"/>
</svg>
