<?xml version="1.0" encoding="utf-8"?>
<!-- Generator: Adobe Illustrator 26.3.1, SVG Export Plug-In . SVG Version: 6.00 Build 0)  -->
<svg version="1.1" id="Слой_1" xmlns="http://www.w3.org/2000/svg" xmlns:xlink="http://www.w3.org/1999/xlink" x="0px" y="0px"
	 viewBox="0 0 48 48" style="enable-background:new 0 0 48 48;" xml:space="preserve">
<path d="M6,28.7v-1.5h9.8v-3.4c0-0.3-0.1-0.6-0.3-0.8c-0.2-0.2-0.5-0.3-0.8-0.3h-3.9c-0.2,0-0.4-0.1-0.5-0.2
	C10.1,22.2,10,22,10,21.8s0.1-0.4,0.2-0.5c0.1-0.1,0.3-0.2,0.5-0.2h3.9c0.7,0,1.4,0.3,1.9,0.8s0.8,1.2,0.8,1.9v3.4h5.8V12.9
	c0-1.9,0.7-3.5,2-4.9c1.4-1.3,3-2,4.9-2c1.3,0,2.5,0.3,3.6,1s1.9,1.6,2.5,2.8l1.7,3.5L36.4,14l-1.7-3.5c-0.5-0.9-1.1-1.6-2-2.1
	c-0.9-0.5-1.8-0.8-2.8-0.8c-1.5,0-2.8,0.5-3.8,1.5s-1.5,2.3-1.5,3.8v14.3h5.8v-3.4c0-0.7,0.3-1.4,0.8-1.9s1.2-0.8,1.9-0.8H37
	c0.2,0,0.4,0.1,0.5,0.2s0.2,0.3,0.2,0.6s-0.1,0.4-0.2,0.5c-0.1,0.1-0.3,0.2-0.5,0.2h-3.9c-0.3,0-0.6,0.1-0.8,0.3
	c-0.2,0.2-0.3,0.5-0.3,0.8v3.4h10v1.5C42,28.7,6,28.7,6,28.7z M12.7,40c-0.7,0-1.4-0.3-1.9-0.8S10,38,10,37.3v-7.1h28v7
	c0,0.8-0.3,1.4-0.8,2C36.7,39.7,36,40,35.3,40H12.7z"/>
</svg>
