<?xml version="1.0" encoding="utf-8"?>
<!-- Generator: Adobe Illustrator 26.3.1, SVG Export Plug-In . SVG Version: 6.00 Build 0)  -->
<svg version="1.1" id="Слой_1" xmlns="http://www.w3.org/2000/svg" xmlns:xlink="http://www.w3.org/1999/xlink" x="0px" y="0px"
	 viewBox="0 0 48 48" style="enable-background:new 0 0 48 48;" xml:space="preserve">
<path d="M14.3,39V19H17V9.7h18V19h3.5c1.3,0,2.3,0.4,3.2,1.3s1.3,2,1.3,3.2V39H14.3z M9,41c1.1,0,2-0.4,2.8-1.2S13,38.1,13,37V21
	c0-1.1-0.4-2-1.2-2.8C11,17.4,10.1,17,9,17s-2,0.4-2.8,1.2C5.4,19,5,19.9,5,21v16c0,1.1,0.4,2.1,1.2,2.8S7.9,41,9,41z M18.5,19h14.9
	v-7.8H18.5V19z M30.6,28c0.6,0,1-0.2,1.4-0.6c0.4-0.4,0.6-0.9,0.6-1.4s-0.2-1-0.6-1.4S31.1,24,30.6,24c-0.6,0-1,0.2-1.4,0.6
	s-0.6,0.9-0.6,1.4s0.2,1,0.6,1.4C29.6,27.8,30,28,30.6,28z M36.6,28c0.6,0,1-0.2,1.4-0.6s0.6-0.9,0.6-1.4s-0.2-1-0.6-1.4
	c-0.4-0.4-0.9-0.6-1.4-0.6c-0.6,0-1,0.2-1.4,0.6s-0.6,0.9-0.6,1.4s0.2,1,0.6,1.4C35.6,27.8,36,28,36.6,28z M30.6,34
	c0.6,0,1-0.2,1.4-0.6c0.4-0.4,0.6-0.9,0.6-1.4c0-0.6-0.2-1-0.6-1.4S31.1,30,30.6,30c-0.6,0-1,0.2-1.4,0.6s-0.6,0.9-0.6,1.4
	c0,0.6,0.2,1,0.6,1.4C29.6,33.8,30,34,30.6,34z M36.6,34c0.6,0,1-0.2,1.4-0.6c0.4-0.4,0.6-0.9,0.6-1.4c0-0.6-0.2-1-0.6-1.4
	c-0.4-0.4-0.9-0.6-1.4-0.6c-0.6,0-1,0.2-1.4,0.6s-0.6,0.9-0.6,1.4c0,0.6,0.2,1,0.6,1.4C35.6,33.8,36,34,36.6,34z M19.1,34h7.5V24
	h-7.5V34z"/>
</svg>
