<?xml version="1.0" encoding="utf-8"?>
<!-- Generator: Adobe Illustrator 26.3.1, SVG Export Plug-In . SVG Version: 6.00 Build 0)  -->
<svg version="1.1" id="Слой_1" xmlns="http://www.w3.org/2000/svg" xmlns:xlink="http://www.w3.org/1999/xlink" x="0px" y="0px"
	 viewBox="0 0 48 48" style="enable-background:new 0 0 48 48;" xml:space="preserve">
<path d="M8.5,42V20.3H6v-8.6h10.6c-0.4-0.4-0.8-0.8-1-1.4c-0.2-0.5-0.3-1.1-0.3-1.7c0-1.3,0.4-2.4,1.3-3.3c0.9-0.9,2-1.3,3.3-1.3
	c0.8,0,1.5,0.2,2.2,0.6s1.2,0.9,1.7,1.5c0.4-0.6,1-1.1,1.7-1.5S26.9,4,27.7,4C29,4,30.1,4.4,31,5.3s1.3,2,1.3,3.3
	c0,0.6-0.1,1.1-0.3,1.7c-0.2,0.5-0.5,1-1,1.4h11v8.6h-2.5V42H8.5z M27.6,5.6c-0.9,0-1.6,0.3-2.2,0.9s-0.9,1.3-0.9,2.2
	s0.3,1.6,0.9,2.2c0.6,0.6,1.3,0.9,2.2,0.9c0.9,0,1.6-0.3,2.2-0.9c0.6-0.6,0.9-1.3,0.9-2.2s-0.3-1.6-0.9-2.2S28.5,5.6,27.6,5.6z
	 M16.9,8.7c0,0.9,0.3,1.6,0.9,2.2c0.6,0.6,1.3,0.9,2.2,0.9c0.9,0,1.6-0.3,2.2-0.9c0.6-0.6,0.9-1.3,0.9-2.2s-0.3-1.6-0.9-2.2
	S20.9,5.6,20,5.6c-0.9,0-1.6,0.3-2.2,0.9C17.1,7.1,16.9,7.8,16.9,8.7z M7.5,13.2v5.5h15.7v-5.5C23.2,13.2,7.5,13.2,7.5,13.2z
	 M23.2,40.5V20.3H9.9v20.1L23.2,40.5L23.2,40.5z M24.8,40.5h13.4V20.3H24.8V40.5z M40.5,18.8v-5.5H24.8v5.5H40.5z"/>
</svg>
