<?xml version="1.0" encoding="utf-8"?>
<!-- Generator: Adobe Illustrator 26.3.1, SVG Export Plug-In . SVG Version: 6.00 Build 0)  -->
<svg version="1.1" id="Слой_1" xmlns="http://www.w3.org/2000/svg" xmlns:xlink="http://www.w3.org/1999/xlink" x="0px" y="0px"
	 viewBox="0 0 48 48" style="enable-background:new 0 0 48 48;" xml:space="preserve">
<path d="M23.2,41v-4h-4v-1.5h4V29c-2.6-0.2-4.8-1.3-6.6-3.2C14.9,23.9,14,21.6,14,19c0-2.8,1-5.1,2.9-7.1C18.9,10,21.2,9,24,9
	s5.1,1,7.1,2.9c1.9,2,2.9,4.3,2.9,7.1c0,2.6-0.9,4.9-2.7,6.8s-4,3-6.6,3.2v6.4h4V37h-4v4H23.2z M24,27.5c2.4,0,4.4-0.8,6-2.5
	c1.6-1.6,2.5-3.6,2.5-6s-0.8-4.4-2.5-6c-1.6-1.6-3.6-2.5-6-2.5s-4.4,0.8-6,2.5c-1.6,1.6-2.5,3.6-2.5,6s0.8,4.4,2.5,6
	C19.6,26.6,21.6,27.5,24,27.5z"/>
</svg>
