<?xml version="1.0" encoding="utf-8"?>
<!-- Generator: Adobe Illustrator 26.3.1, SVG Export Plug-In . SVG Version: 6.00 Build 0)  -->
<svg version="1.1" id="Слой_1" xmlns="http://www.w3.org/2000/svg" xmlns:xlink="http://www.w3.org/1999/xlink" x="0px" y="0px"
	 viewBox="0 0 48 48" style="enable-background:new 0 0 48 48;" xml:space="preserve">
<path d="M26.5,25c0.4,0,0.7-0.1,0.9-0.4c0.2-0.3,0.4-0.6,0.4-0.9c0-0.2-0.1-0.5-0.2-0.8c0.3,0,0.7-0.1,0.9-0.4
	c0.3-0.3,0.4-0.5,0.4-0.9s-0.1-0.7-0.4-0.9c-0.3-0.2-0.6-0.4-0.9-0.4s-0.6,0.1-0.9,0.3c-0.2,0.2-0.4,0.5-0.4,0.8l-7.7-3.7
	c0.1-0.1,0.3-0.4,0.6-1.1c0-0.4-0.1-0.7-0.4-0.9s-0.6-0.4-0.9-0.4s-0.7,0.1-0.9,0.4c-0.3,0.2-0.4,0.6-0.4,0.9c0,0.2,0.1,0.4,0.3,0.7
	c-0.4,0-0.7,0.1-0.9,0.4c-0.3,0.3-0.4,0.6-0.4,0.9s0.1,0.7,0.4,0.9c0.3,0.3,0.6,0.4,0.9,0.4s0.6-0.1,0.8-0.3
	c0.2-0.2,0.4-0.4,0.5-0.7l7.7,3.6c-0.1,0.1-0.2,0.4-0.5,1.1c0,0.3,0.1,0.7,0.4,0.9C25.9,24.9,26.2,25,26.5,25z M6.8,21L16.9,7.6
	l13.3,6.1c1.8,0.8,3.2,2,4.3,3.7c1,1.6,1.6,3.5,1.6,5.5V44H22c-0.7-1.7-1.2-3.5-1.4-5.3c-0.3-1.8-0.4-3.4-0.4-5c0-1.5,0.1-2.9,0.2-4
	s0.2-1.9,0.2-2.4c0-0.2,0-0.3-0.1-0.4s-0.1-0.2-0.3-0.2c-0.2,0-0.8-0.1-1.7-0.3c-0.9-0.2-2-0.5-3.2-0.9c-1.3-0.4-2.6-1-4.1-1.7
	C9.6,23.1,8.2,22.2,6.8,21z"/>
</svg>
