<?xml version="1.0" encoding="utf-8"?>
<!-- Generator: Adobe Illustrator 26.3.1, SVG Export Plug-In . SVG Version: 6.00 Build 0)  -->
<svg version="1.1" id="Слой_1" xmlns="http://www.w3.org/2000/svg" xmlns:xlink="http://www.w3.org/1999/xlink" x="0px" y="0px"
	 viewBox="0 0 48 48" style="enable-background:new 0 0 48 48;" xml:space="preserve">
<path d="M19.8,42.2c-1,0-1.8-0.3-2.6-0.9c-0.8-0.6-1.2-1.4-1.4-2.4c-0.2-1.1-0.7-2-1.4-2.7s-1.6-1-2.7-1c-0.2,0-0.4,0-0.5,0
	c-0.2,0-0.3,0-0.4,0c-1.2,0.2-2.4-0.1-3.3-0.9c-1-0.8-1.5-1.8-1.5-3.1c0-1,0.3-1.8,0.9-2.6c0.6-0.7,1.4-1.2,2.4-1.4L16,26l7.1-10.2
	c0.3-0.5,0.4-0.9,0.4-1.4c-0.1-0.4-0.3-0.9-0.7-1.2c-0.3-0.3-0.5-0.6-0.7-1c-0.1-0.4-0.2-0.8-0.2-1.2c0-0.8,0.3-1.5,0.8-2.1
	c0.5-0.5,1.2-0.8,2-0.8c0.5,0,1,0.1,1.4,0.3s0.7,0.4,0.9,0.5c0.3,0.2,0.7,0.4,1.2,0.7c0.6,0.3,1.3,0.4,2.1,0.4
	c-0.1-0.8,0-1.5,0.4-2.2s0.9-1.2,1.7-1.5C33.3,6,34.2,6,35.1,6.4s1.5,1.1,1.8,2l2.5,7c0.3,0.9,0.3,1.8-0.2,2.7
	C39,19,38.4,19.6,37.5,20c-0.8,0.4-1.6,0.3-2.4,0c-0.8-0.4-1.4-1-1.8-1.7h-0.4c-0.4-0.1-0.8,0-1.1,0.1s-0.7,0.4-0.9,0.7l-8.2,11.8
	l1.2,6.6c0.2,1.3-0.1,2.4-0.9,3.3C22.1,41.7,21.1,42.2,19.8,42.2z"/>
</svg>
