<?xml version="1.0" encoding="utf-8"?>
<!-- Generator: Adobe Illustrator 26.3.1, SVG Export Plug-In . SVG Version: 6.00 Build 0)  -->
<svg version="1.1" id="Слой_1" xmlns="http://www.w3.org/2000/svg" xmlns:xlink="http://www.w3.org/1999/xlink" x="0px" y="0px"
	 viewBox="0 0 48 48" style="enable-background:new 0 0 48 48;" xml:space="preserve">
<path d="M24,42c-2.5,0-4.8-0.5-7-1.4s-4.1-2.2-5.7-3.8S8.4,33.2,7.4,31C6.5,28.8,6,26.5,6,24V9l10.6,7.9c1.1-1.7,2.3-3.4,3.6-5.1
	c1.3-1.7,2.5-3.3,3.9-4.8c1.2,1.4,2.4,2.9,3.7,4.6c1.3,1.7,2.5,3.4,3.7,5.3L42,9v15c0,2.5-0.5,4.8-1.4,7s-2.2,4.1-3.8,5.7
	c-1.6,1.6-3.5,2.9-5.7,3.8C28.8,41.5,26.5,42,24,42z"/>
</svg>
