<?xml version="1.0" encoding="utf-8"?>
<!-- Generator: Adobe Illustrator 26.3.1, SVG Export Plug-In . SVG Version: 6.00 Build 0)  -->
<svg version="1.1" id="Слой_1" xmlns="http://www.w3.org/2000/svg" xmlns:xlink="http://www.w3.org/1999/xlink" x="0px" y="0px"
	 viewBox="0 0 48 48" style="enable-background:new 0 0 48 48;" xml:space="preserve">
<path d="M5.5,43c0.7-2.4,1.2-4.8,1.5-7.3s0.5-5.2,0.6-8c-1.3-0.4-2.5-1.2-3.3-2.4C3.4,24,3,22.5,3,20.6v-1.8
	c3.7-1.2,7.4-3.1,11.2-5.6s7.1-5.1,9.8-8c2.7,2.8,5.9,5.5,9.8,8c3.8,2.5,7.6,4.3,11.2,5.6v1.8c0,1.8-0.4,3.4-1.3,4.6
	c-0.9,1.2-2,2.1-3.3,2.4c0,2.7,0.2,5.4,0.6,7.9c0.3,2.5,0.8,5,1.6,7.4C42.5,43,5.5,43,5.5,43z M6.4,19.1h35.2c-3-1.3-6-2.9-8.9-4.8
	s-5.8-4.2-8.7-6.9c-2.8,2.6-5.6,4.9-8.6,6.8S9.5,17.8,6.4,19.1z M29.1,26.2c1.3,0,2.4-0.6,3.1-1.7c0.8-1.1,1.2-2.4,1.2-3.9h-8.6
	c0,1.5,0.4,2.8,1.2,3.9C26.7,25.7,27.8,26.2,29.1,26.2z M18.9,26.2c1.3,0,2.4-0.6,3.2-1.7c0.8-1.1,1.1-2.4,1.1-3.9h-8.6
	c0,1.5,0.4,2.8,1.1,3.9C16.6,25.7,17.6,26.2,18.9,26.2z M8.8,26.2c1.3,0,2.4-0.6,3.1-1.7c0.8-1.1,1.2-2.4,1.2-3.9H4.5
	c0,1.5,0.4,2.8,1.2,3.9C6.5,25.7,7.5,26.2,8.8,26.2z M7.5,41.5h8.1c0.3-2.1,0.6-4.3,0.8-6.6c0.2-2.2,0.3-4.7,0.4-7.5
	c-0.5-0.2-1.1-0.6-1.7-1.1c-0.6-0.5-1-1.1-1.3-1.8c-0.5,1-1.1,1.8-2,2.3c-0.8,0.6-1.8,0.9-2.8,1c-0.1,2.5-0.2,4.8-0.5,7.1
	C8.5,37.1,8.1,39.3,7.5,41.5z M17.2,41.5h13.6c-0.4-2.1-0.6-4.3-0.8-6.5c-0.2-2.2-0.3-4.6-0.4-7.2c-1.3,0.1-2.4-0.2-3.4-0.9
	c-1-0.6-1.8-1.5-2.2-2.7c-0.4,1.2-1.2,2.1-2.2,2.7s-2.1,0.9-3.4,0.9c-0.1,2.3-0.2,4.6-0.3,6.9C17.9,36.9,17.6,39.2,17.2,41.5z
	 M32.4,41.5h8.2c-0.6-2.2-1-4.5-1.2-6.8S39,30.1,39,27.8c-1-0.1-2-0.4-2.8-1s-1.5-1.4-1.9-2.4c-0.3,0.8-0.7,1.4-1.3,1.9
	s-1.1,0.9-1.7,1.1c0,2.2,0.2,4.5,0.4,6.8C31.7,36.5,32,39,32.4,41.5z M39.2,26.2c1.3,0,2.4-0.6,3.2-1.7s1.1-2.4,1.1-3.9h-8.6
	c0,1.5,0.4,2.8,1.1,3.9C36.8,25.7,37.8,26.2,39.2,26.2z"/>
</svg>
