<?xml version="1.0" encoding="utf-8"?>
<!-- Generator: Adobe Illustrator 26.3.1, SVG Export Plug-In . SVG Version: 6.00 Build 0)  -->
<svg version="1.1" id="Слой_1" xmlns="http://www.w3.org/2000/svg" xmlns:xlink="http://www.w3.org/1999/xlink" x="0px" y="0px"
	 viewBox="0 0 48 48" style="enable-background:new 0 0 48 48;" xml:space="preserve">
<path d="M6.8,38c-0.8,0-1.4-0.3-2-0.8C4.3,36.7,4,36,4,35.2V12.8c0-0.8,0.3-1.4,0.8-2C5.3,10.3,6,10,6.8,10h34.5
	c0.8,0,1.4,0.3,2,0.8c0.5,0.5,0.8,1.2,0.8,2v22.5c0,0.8-0.3,1.4-0.8,2c-0.5,0.5-1.2,0.8-2,0.8L6.8,38L6.8,38z M7.5,29.5h1.6v-8.7
	l5.7,8.7h1.6v-11h-1.5v8.7l-5.6-8.7H7.5V29.5z M19.6,29.5h6.7v-1.6h-5.2v-3h5.2v-1.5h-5.2v-3.2h5.2v-1.6h-6.7
	C19.6,18.5,19.6,29.5,19.6,29.5z M31,29.5h8.2c0.4,0,0.7-0.1,0.9-0.3c0.2-0.2,0.3-0.5,0.3-0.9v-9.7H39V28h-3.1v-7.4h-1.5V28h-3v-9.4
	h-1.6v9.7c0,0.4,0.1,0.7,0.3,0.9C30.3,29.3,30.6,29.5,31,29.5z"/>
</svg>
