<?xml version="1.0" encoding="utf-8"?>
<!-- Generator: Adobe Illustrator 26.3.1, SVG Export Plug-In . SVG Version: 6.00 Build 0)  -->
<svg version="1.1" id="Слой_1" xmlns="http://www.w3.org/2000/svg" xmlns:xlink="http://www.w3.org/1999/xlink" x="0px" y="0px"
	 viewBox="0 0 48 48" style="enable-background:new 0 0 48 48;" xml:space="preserve">
<path d="M10.6,29.5h1.5v-4.4H17c0.7,0,1.3-0.2,1.7-0.7c0.5-0.5,0.7-1,0.7-1.7v-1.8c0-0.7-0.2-1.2-0.7-1.7c-0.4-0.5-1-0.7-1.7-0.7
	h-6.4C10.6,18.5,10.6,29.5,10.6,29.5z M22.6,29.5h1.5v-11h-1.5V29.5z M28.3,29.5h1.5v-8.7l5.8,8.7h1.7v-11h-1.6v8.6L30,18.5h-1.7
	V29.5z M12.2,23.5V20h5.1c0.2,0,0.3,0.1,0.4,0.2s0.2,0.3,0.2,0.4v2.2c0,0.2-0.1,0.3-0.2,0.4s-0.3,0.2-0.4,0.2
	C17.2,23.5,12.2,23.5,12.2,23.5z M8.8,38c-0.8,0-1.4-0.3-2-0.8C6.3,36.7,6,36,6,35.2V12.8c0-0.8,0.3-1.4,0.8-2C7.3,10.3,8,10,8.8,10
	h30.5c0.8,0,1.4,0.3,2,0.8c0.5,0.5,0.8,1.2,0.8,2v22.5c0,0.8-0.3,1.4-0.8,2c-0.5,0.5-1.2,0.8-2,0.8L8.8,38L8.8,38z"/>
</svg>
