<?xml version="1.0" encoding="utf-8"?>
<!-- Generator: Adobe Illustrator 26.3.1, SVG Export Plug-In . SVG Version: 6.00 Build 0)  -->
<svg version="1.1" id="Слой_1" xmlns="http://www.w3.org/2000/svg" xmlns:xlink="http://www.w3.org/1999/xlink" x="0px" y="0px"
	 viewBox="0 0 48 48" style="enable-background:new 0 0 48 48;" xml:space="preserve">
<path d="M8.8,38c-0.7,0-1.4-0.3-1.9-0.8C6.3,36.6,6,36,6,35.2V28h15.2c0.7,0,1.4-0.3,1.9-0.8c0.6-0.6,0.8-1.2,0.8-1.9V10h15.2
	c0.7,0,1.4,0.3,1.9,0.8c0.6,0.6,0.8,1.2,0.8,1.9v22.5c0,0.7-0.3,1.4-0.8,1.9c-0.4,0.6-1,0.9-1.8,0.9H8.8z M6,27.7v-11
	c0-0.7,0.3-1.4,0.8-1.9C7.4,14.3,8,14,8.8,14h11L6,27.7z M9.4,26.5l13-13v11.8c0,0.4-0.1,0.7-0.3,0.9c-0.2,0.2-0.5,0.3-0.9,0.3
	C21.2,26.5,9.4,26.5,9.4,26.5z"/>
</svg>
