<?xml version="1.0" encoding="utf-8"?>
<!-- Generator: Adobe Illustrator 26.3.1, SVG Export Plug-In . SVG Version: 6.00 Build 0)  -->
<svg version="1.1" id="Слой_1" xmlns="http://www.w3.org/2000/svg" xmlns:xlink="http://www.w3.org/1999/xlink" x="0px" y="0px"
	 viewBox="0 0 48 48" style="enable-background:new 0 0 48 48;" xml:space="preserve">
<path d="M24,10l6.9,6.9L29.8,18l-5-5v6.8l-1.5-1.5v-5.4l-3,3l-1-1L24,10z M23.2,31.3v-8.1l1.5,1.5v6.5h-1.5V31.3z M40.2,42.4
	L35.8,38h-23c-0.8,0-1.4-0.3-2-0.8c-0.5-0.5-0.8-1.2-0.8-2v-5.4h1.5v5.4c0,0.3,0.1,0.6,0.4,0.8s0.5,0.4,0.8,0.4h21.5L5.6,7.8
	l1.1-1.1l34.5,34.5C41.3,41.3,40.2,42.4,40.2,42.4z M38,33.8l-1.5-1.5v-2.4H38V33.8z"/>
</svg>
