<?xml version="1.0" encoding="utf-8"?>
<!-- Generator: Adobe Illustrator 26.3.1, SVG Export Plug-In . SVG Version: 6.00 Build 0)  -->
<svg version="1.1" id="Слой_1" xmlns="http://www.w3.org/2000/svg" xmlns:xlink="http://www.w3.org/1999/xlink" x="0px" y="0px"
	 viewBox="0 0 48 48" style="enable-background:new 0 0 48 48;" xml:space="preserve">
<path d="M14.8,34.9c-0.8,0-1.4-0.3-2-0.8c-0.5-0.5-0.8-1.2-0.8-2V8.8c0-0.8,0.3-1.4,0.8-2C13.3,6.3,14,6,14.8,6h23.4
	c0.8,0,1.4,0.3,2,0.8C40.7,7.3,41,8,41,8.8v23.4c0,0.8-0.3,1.4-0.8,2c-0.5,0.5-1.2,0.8-2,0.8C38.2,34.9,14.8,34.9,14.8,34.9z
	 M9.8,40c-0.8,0-1.4-0.3-2-0.8C7.3,38.7,7,38,7,37.2V12.3h1.5v24.9c0,0.3,0.1,0.6,0.4,0.8c0.3,0.3,0.5,0.4,0.8,0.4h24.9V40H9.8z
	 M26.5,20.5c-0.5,0-0.9-0.2-1.2-0.5c-0.3-0.3-0.5-0.7-0.5-1.2s0.2-0.9,0.5-1.2c0.3-0.3,0.7-0.5,1.2-0.5s0.9,0.2,1.2,0.5
	c0.3,0.3,0.5,0.7,0.5,1.2S28,19.7,27.7,20C27.4,20.3,27,20.5,26.5,20.5z M26.5,29c2.3-1.9,4-3.7,5.1-5.4c1.1-1.7,1.7-3.2,1.7-4.6
	c0-2.2-0.7-3.9-2.1-5.1c-1.4-1.3-3-1.9-4.8-1.9c-1.8,0-3.4,0.6-4.8,1.9s-2.1,3-2.1,5.1c0,1.4,0.6,2.9,1.7,4.6
	C22.5,25.3,24.2,27.1,26.5,29z"/>
</svg>
