<?xml version="1.0" encoding="utf-8"?>
<!-- Generator: Adobe Illustrator 26.3.1, SVG Export Plug-In . SVG Version: 6.00 Build 0)  -->
<svg version="1.1" id="Слой_1" xmlns="http://www.w3.org/2000/svg" xmlns:xlink="http://www.w3.org/1999/xlink" x="0px" y="0px"
	 viewBox="0 0 48 48" style="enable-background:new 0 0 48 48;" xml:space="preserve">
<path d="M12.3,24.2V20h3.2c0.2,0,0.3,0.1,0.4,0.2c0.1,0.1,0.2,0.3,0.2,0.4v3c0,0.2-0.1,0.3-0.2,0.4c-0.1,0.1-0.3,0.2-0.4,0.2H12.3z
	 M31.9,29.5h3.6c0.5,0,0.9-0.2,1.3-0.5c0.3-0.3,0.5-0.8,0.5-1.3v-3.3h-1.5v3c0,0.2-0.1,0.3-0.2,0.4c-0.1,0.1-0.3,0.2-0.4,0.2h-2.9
	c-0.2,0-0.3-0.1-0.4-0.2s-0.2-0.3-0.2-0.4v-6.7c0-0.2,0.1-0.3,0.2-0.4s0.3-0.2,0.4-0.2h5v-0.5c0-0.3-0.1-0.6-0.3-0.7
	c-0.2-0.2-0.4-0.3-0.7-0.3H32c-0.5,0-0.9,0.2-1.3,0.5c-0.3,0.3-0.5,0.8-0.5,1.3v7.4c0,0.5,0.2,0.9,0.5,1.3
	C31,29.3,31.4,29.5,31.9,29.5z M10.8,29.5h1.5v-3.8h3c0.7,0,1.3-0.2,1.7-0.7c0.5-0.5,0.7-1,0.7-1.7v-2.4c0-0.7-0.2-1.2-0.7-1.7
	s-1-0.7-1.7-0.7h-4.5C10.8,18.5,10.8,29.5,10.8,29.5z M20.5,29.5h1.4v-8.3l3.9,8.3h1.6v-11H26v7.8l-3.6-7.8h-1.9V29.5z M8.8,38
	c-0.8,0-1.4-0.3-2-0.8C6.3,36.7,6,36,6,35.2V12.8c0-0.8,0.3-1.4,0.8-2C7.3,10.3,8,10,8.8,10h30.5c0.8,0,1.4,0.3,2,0.8
	c0.5,0.5,0.8,1.2,0.8,2v22.5c0,0.8-0.3,1.4-0.8,2c-0.5,0.5-1.2,0.8-2,0.8L8.8,38L8.8,38z M7.5,36.5v-25V36.5z"/>
</svg>
