<?xml version="1.0" encoding="utf-8"?>
<!-- Generator: Adobe Illustrator 26.3.1, SVG Export Plug-In . SVG Version: 6.00 Build 0)  -->
<svg version="1.1" id="Слой_1" xmlns="http://www.w3.org/2000/svg" xmlns:xlink="http://www.w3.org/1999/xlink" x="0px" y="0px"
	 viewBox="0 0 48 48" style="enable-background:new 0 0 48 48;" xml:space="preserve">
<path d="M29.5,47v-1.5h12.4L25.2,28.8V39H11.8c-0.7,0-1.4-0.3-1.9-0.8C9.3,37.6,9,37,9,36.2V12.6L3.1,6.7l1.1-1.1L44,45.5V47H29.5z
	 M40.1,36.6l-1-1.1l2.4-2.4l1.1,1.1L40.1,36.6z M37,33.5L35.5,32v-4.5H37V33.5z M26.7,23.2L9.6,6.1c0.3-0.3,0.6-0.6,0.9-0.8
	C10.9,5.1,11.3,5,11.8,5h14.4L37,15.9v7.4C37,23.2,26.7,23.2,26.7,23.2z M25.5,16.5h10l-10-10V16.5z"/>
</svg>
