<?xml version="1.0" encoding="utf-8"?>
<!-- Generator: Adobe Illustrator 26.3.1, SVG Export Plug-In . SVG Version: 6.00 Build 0)  -->
<svg version="1.1" id="Слой_1" xmlns="http://www.w3.org/2000/svg" xmlns:xlink="http://www.w3.org/1999/xlink" x="0px" y="0px"
	 viewBox="0 0 48 48" style="enable-background:new 0 0 48 48;" xml:space="preserve">
<path d="M29.5,47v-1.5H43V47H29.5z M36.2,40.5L30,34.2l1.1-1.1l4.4,4.4v-10H37v10.1l4.4-4.4l1.1,1.1L36.2,40.5z M11.8,39
	c-0.7,0-1.4-0.3-1.9-0.8c-0.6-0.6-0.9-1.3-0.9-2V7.8c0-0.7,0.3-1.4,0.8-1.9c0.6-0.6,1.3-0.9,2-0.9h14.4L37,15.9v7.4H25.2V39H11.8z
	 M25.5,16.5h10l-10-10V16.5z"/>
</svg>
