<?xml version="1.0" encoding="utf-8"?>
<!-- Generator: Adobe Illustrator 26.3.1, SVG Export Plug-In . SVG Version: 6.00 Build 0)  -->
<svg version="1.1" id="Слой_1" xmlns="http://www.w3.org/2000/svg" xmlns:xlink="http://www.w3.org/1999/xlink" x="0px" y="0px"
	 viewBox="0 0 48 48" style="enable-background:new 0 0 48 48;" xml:space="preserve">
<path d="M12.8,42c-0.8,0-1.4-0.3-2-0.8c-0.5-0.5-0.8-1.2-0.8-2V8.8c0-0.8,0.3-1.4,0.8-2C11.3,6.3,12,6,12.8,6H29l9,9v24.2
	c0,0.8-0.3,1.4-0.8,2c-0.5,0.5-1.2,0.8-2,0.8H12.8z M24,36c1.7,0,3.1-0.6,4.3-1.9c1.1-1.3,1.7-2.7,1.7-4.5v-8.7h-1.1v8.7
	c0,1.4-0.5,2.7-1.4,3.7s-2.1,1.6-3.5,1.6s-2.6-0.5-3.5-1.6c-0.9-1-1.4-2.3-1.4-3.7V18.7c0-0.7,0.2-1.2,0.6-1.7s0.9-0.7,1.6-0.7
	c0.6,0,1.2,0.2,1.6,0.7s0.6,1,0.6,1.7v10.5h1.1V18.7c0-1-0.3-1.8-0.9-2.5c-0.6-0.7-1.4-1-2.4-1c-0.9,0-1.7,0.3-2.3,1
	c-0.6,0.7-0.9,1.5-0.9,2.5v10.9c0,1.7,0.6,3.2,1.7,4.5C20.9,35.3,22.3,36,24,36z M28.3,15.7h8.1l-8.1-8.1
	C28.3,7.6,28.3,15.7,28.3,15.7z"/>
</svg>
