<?xml version="1.0" encoding="utf-8"?>
<!-- Generator: Adobe Illustrator 26.3.1, SVG Export Plug-In . SVG Version: 6.00 Build 0)  -->
<svg version="1.1" id="Слой_1" xmlns="http://www.w3.org/2000/svg" xmlns:xlink="http://www.w3.org/1999/xlink" x="0px" y="0px"
	 viewBox="0 0 48 48" style="enable-background:new 0 0 48 48;" xml:space="preserve">
<path d="M27.9,22.9L15,10h21.2c0.4,0,0.6,0.2,0.8,0.5s0.1,0.7-0.1,0.9L27.9,22.9z M40.2,42.4L26,28.2v8.2c0,0.4-0.1,0.8-0.4,1.1
	s-0.7,0.4-1.1,0.4h-0.9c-0.4,0-0.8-0.1-1.1-0.4c-0.3-0.3-0.4-0.7-0.4-1.1V24.2L5.6,7.8l1.1-1.1l34.5,34.5
	C41.3,41.3,40.2,42.4,40.2,42.4z"/>
</svg>
