<?xml version="1.0" encoding="utf-8"?>
<!-- Generator: Adobe Illustrator 26.3.1, SVG Export Plug-In . SVG Version: 6.00 Build 0)  -->
<svg version="1.1" id="Слой_1" xmlns="http://www.w3.org/2000/svg" xmlns:xlink="http://www.w3.org/1999/xlink" x="0px" y="0px"
	 viewBox="0 0 48 48" style="enable-background:new 0 0 48 48;" xml:space="preserve">
<path d="M12.8,38c-2.4,0-4.5-0.9-6.2-2.6C4.9,33.7,4,31.7,4,29.2c0-2.4,0.8-4.4,2.5-6c1.6-1.7,3.7-2.5,6.1-2.5s4.4,0.8,6,2.4
	c1.7,1.6,2.5,3.6,2.5,5.9h1.5c0-2.6-0.9-4.9-2.8-6.9s-4.4-3-7.5-3c0.7-2.7,2.1-4.9,4.4-6.6c2.2-1.7,4.7-2.6,7.3-2.6
	c3.3,0,6,1.2,8.3,3.5c2.3,2.4,3.4,5.2,3.4,8.4v2.6h1.2c2,0,3.7,0.6,5.1,1.9c1.3,1.3,2,2.9,2,4.8c0,1.9-0.7,3.5-2,4.8s-2.9,2-4.8,2
	H12.8V38z"/>
</svg>
