<?xml version="1.0" encoding="utf-8"?>
<!-- Generator: Adobe Illustrator 26.3.1, SVG Export Plug-In . SVG Version: 6.00 Build 0)  -->
<svg version="1.1" id="Слой_1" xmlns="http://www.w3.org/2000/svg" xmlns:xlink="http://www.w3.org/1999/xlink" x="0px" y="0px"
	 viewBox="0 0 48 48" style="enable-background:new 0 0 48 48;" xml:space="preserve">
<path d="M24,39.9c-1.6,0-3-0.6-4.1-1.8c-1.2-1.2-1.7-2.6-1.6-4.1c-1.5,0.9-2.9,1.1-4.5,0.7s-2.7-1.4-3.5-2.8c-0.8-1.4-1-2.9-0.5-4.4
	c0.4-1.6,1.5-2.7,3.2-3.4c-1.7-0.7-2.8-1.9-3.2-3.5s-0.2-3.1,0.6-4.5s2-2.3,3.6-2.7c1.6-0.5,3-0.2,4.4,0.6c-0.1-1.6,0.5-3,1.7-4.2
	C21.1,8.6,22.4,8,24,8s3,0.6,4.1,1.8c1.2,1.2,1.7,2.6,1.6,4.2c1.4-0.9,2.8-1.1,4.4-0.6c1.5,0.5,2.7,1.4,3.5,2.7
	c0.8,1.4,1,2.9,0.6,4.5s-1.5,2.8-3.2,3.5c1.6,0.7,2.7,1.9,3.1,3.5c0.4,1.6,0.3,3.1-0.5,4.4c-0.8,1.4-2,2.3-3.5,2.8
	c-1.5,0.4-3,0.2-4.4-0.6c0.1,1.6-0.5,2.9-1.7,4.1C26.9,39.3,25.6,39.9,24,39.9z M24,30.2c1.7,0,3.2-0.6,4.4-1.8
	c1.2-1.2,1.8-2.7,1.8-4.4s-0.6-3.2-1.8-4.4c-1.2-1.2-2.7-1.8-4.4-1.8c-1.7,0-3.2,0.6-4.3,1.8c-1.2,1.2-1.8,2.7-1.8,4.4
	c0,1.7,0.6,3.2,1.8,4.4C20.8,29.6,22.3,30.2,24,30.2z"/>
</svg>
