<?xml version="1.0" encoding="utf-8"?>
<!-- Generator: Adobe Illustrator 26.3.1, SVG Export Plug-In . SVG Version: 6.00 Build 0)  -->
<svg version="1.1" id="Слой_1" xmlns="http://www.w3.org/2000/svg" xmlns:xlink="http://www.w3.org/1999/xlink" x="0px" y="0px"
	 viewBox="0 0 48 48" style="enable-background:new 0 0 48 48;" xml:space="preserve">
<path d="M37.2,40H10.8c-0.8,0-1.4-0.3-2-0.8C8.3,38.7,8,38,8,37.2V10.8c0-0.8,0.3-1.4,0.8-2C9.3,8.3,10,8,10.8,8h26.5
	c0.8,0,1.4,0.3,2,0.8c0.5,0.5,0.8,1.2,0.8,2v26.5c0,0.8-0.3,1.4-0.8,2C38.7,39.7,38,40,37.2,40z M9.9,38.1c0.1,0.1,0.2,0.2,0.3,0.2
	c0.1,0.1,0.3,0.1,0.5,0.1H24V21.9L38.1,38c0.1-0.1,0.2-0.2,0.2-0.3s0.1-0.3,0.1-0.5V10.8c0-0.4-0.1-0.7-0.3-0.9s-0.5-0.3-0.9-0.3H24
	V22C24,21.9,9.9,38.1,9.9,38.1z"/>
</svg>
