<?xml version="1.0" encoding="utf-8"?>
<!-- Generator: Adobe Illustrator 26.3.1, SVG Export Plug-In . SVG Version: 6.00 Build 0)  -->
<svg version="1.1" id="Слой_1" xmlns="http://www.w3.org/2000/svg" xmlns:xlink="http://www.w3.org/1999/xlink" x="0px" y="0px"
	 viewBox="0 0 48 48" style="enable-background:new 0 0 48 48;" xml:space="preserve">
<path d="M10.2,19.7c0.5-2.8,1.8-5.1,4.1-7c2.3-1.8,4.8-2.7,7.7-2.7c2.8,0,5.1,0.7,6.7,2.1c1.7,1.4,2.9,2.7,3.7,4V10H34v9.7h-9.7
	v-1.5h7.4c-0.7-1.6-1.9-3.1-3.5-4.5s-3.7-2.1-6.2-2.1s-4.7,0.8-6.6,2.3s-3.1,3.5-3.6,5.9C11.8,19.7,10.2,19.7,10.2,19.7z M39.5,40.7
	L29.8,31c-1.2,1-2.4,1.7-3.7,2.2C24.8,33.7,23.4,34,22,34c-2.1,0-4.1-0.5-6-1.6c-1.9-1-3.4-2.5-4.5-4.5v6H10v-9.7h9.7v1.5h-7.5
	c0.8,1.9,2.1,3.5,3.9,4.8c1.8,1.2,3.8,1.9,5.9,1.9c2.4,0,4.6-0.8,6.5-2.3s3.1-3.5,3.7-5.8h1.5c-0.2,1.2-0.5,2.2-1,3
	c-0.5,0.9-1.1,1.7-1.8,2.6l9.7,9.7C40.6,39.6,39.5,40.7,39.5,40.7z"/>
</svg>
