<?xml version="1.0" encoding="utf-8"?>
<!-- Generator: Adobe Illustrator 26.3.1, SVG Export Plug-In . SVG Version: 6.00 Build 0)  -->
<svg version="1.1" id="Слой_1" xmlns="http://www.w3.org/2000/svg" xmlns:xlink="http://www.w3.org/1999/xlink" x="0px" y="0px"
	 viewBox="0 0 48 48" style="enable-background:new 0 0 48 48;" xml:space="preserve">
<path d="M12.8,42c-0.8,0-1.4-0.3-2-0.8c-0.5-0.5-0.8-1.2-0.8-2V8.8c0-0.8,0.3-1.4,0.8-2C11.3,6.3,12,6,12.8,6h16.1L38,16.7V39
	l-9.5-9.5c0.4-0.5,0.7-1,0.9-1.6c0.2-0.6,0.3-1.2,0.3-1.9c0-1.6-0.5-3-1.6-4.1s-2.4-1.6-4.1-1.6c-1.6,0-3,0.5-4.1,1.6
	s-1.6,2.4-1.6,4.1s0.5,3,1.6,4.1s2.4,1.6,4.1,1.6c0.6,0,1.2-0.1,1.8-0.2c0.5-0.2,1.1-0.4,1.7-0.9l9.7,9.8c-0.4,0.5-0.9,0.9-1.5,1.2
	S34.5,42,33.8,42C33.9,42,12.8,42,12.8,42z M24,30.2c-1.1,0-2.1-0.4-2.9-1.2c-0.8-0.8-1.2-1.8-1.2-2.9s0.4-2.1,1.2-2.9
	c0.8-0.8,1.8-1.2,2.9-1.2s2.1,0.4,2.9,1.2c0.8,0.8,1.2,1.8,1.2,2.9s-0.4,2.1-1.2,2.9C26.1,29.8,25.1,30.2,24,30.2z"/>
</svg>
