<?xml version="1.0" encoding="utf-8"?>
<!-- Generator: Adobe Illustrator 26.3.1, SVG Export Plug-In . SVG Version: 6.00 Build 0)  -->
<svg version="1.1" id="Слой_1" xmlns="http://www.w3.org/2000/svg" xmlns:xlink="http://www.w3.org/1999/xlink" x="0px" y="0px"
	 viewBox="0 0 48 48" style="enable-background:new 0 0 48 48;" xml:space="preserve">
<path d="M42.9,44.4L23.3,24.7c-1.1,0.1-2,0.6-2.8,1.5s-1.1,1.9-1.1,3.1c0,3.1,1,5.9,2.9,8.3s4.6,4,7.9,5c0.2,0.1,0.3,0.1,0.4,0.2
	c0.1,0.1,0.1,0.2,0,0.4s-0.1,0.3-0.3,0.4c-0.1,0.1-0.3,0.1-0.4,0c-3.5-0.9-6.4-2.7-8.5-5.3s-3.1-5.6-3.1-9.1c0-1.3,0.4-2.5,1.1-3.5
	c0.8-1,1.7-1.7,2.9-2.1L19.5,21c-1.7,0.8-2.9,2-3.9,3.5c-0.9,1.5-1.4,3.1-1.4,4.9c0,2.5,0.4,4.8,1.3,6.7c0.8,2,2.3,4.1,4.4,6.3
	c0.1,0.1,0.2,0.3,0.2,0.4s-0.1,0.3-0.2,0.4c-0.1,0.1-0.2,0.1-0.4,0.1c-0.2,0-0.3,0-0.4-0.1c-2.1-2.3-3.6-4.5-4.6-6.7
	S13,31.9,13,29.4c0-1.9,0.5-3.7,1.5-5.3s2.4-2.9,4.1-3.9l-2.9-2.9c-2.1,1.2-3.8,2.9-5.1,5.1s-1.9,4.5-1.9,7c0,1,0.1,2.2,0.4,3.4
	c0.2,1.3,0.6,2.6,1.1,4c0.1,0.2,0.1,0.3,0,0.4c-0.1,0.1-0.2,0.2-0.3,0.3c-0.2,0.1-0.3,0.1-0.5,0.1s-0.2-0.2-0.3-0.4
	c-0.5-1.4-0.9-2.7-1.1-4c-0.2-1.3-0.4-2.5-0.4-3.8c0-2.6,0.7-5,2-7.3s3.1-4.2,5.3-5.6l-2.7-2.7c-1,0.7-1.9,1.4-2.8,2.2
	c-0.8,0.8-1.6,1.7-2.3,2.6c-0.2,0.2-0.3,0.3-0.5,0.3c-0.1,0-0.3,0-0.4-0.1S6,18.6,6,18.5c0-0.1,0-0.3,0.1-0.4c0.8-1,1.6-1.9,2.5-2.7
	s1.8-1.6,2.8-2.3L4.1,5.6l0.8-0.8l38.8,38.8L42.9,44.4z M34.5,29.9c-0.1,0-0.3-0.1-0.4-0.2S34,29.5,34,29.4c0-2.6-1-4.8-2.9-6.6
	S26.9,20,24.2,20c-0.1,0-0.2,0-0.3,0c-0.1,0-0.2,0-0.3,0.1l-1-1c0.2,0,0.4-0.1,0.7-0.1c0.2,0,0.5,0,0.7,0c3,0,5.6,1,7.8,3
	s3.2,4.5,3.2,7.4c0,0.2,0,0.3-0.1,0.4C34.8,29.9,34.7,29.9,34.5,29.9z M24.1,4.2c2.1,0,4.2,0.3,6.2,0.8s4,1.3,5.8,2.3
	c0.2,0.1,0.3,0.2,0.4,0.4c0,0.1,0,0.3,0,0.4c-0.1,0.1-0.2,0.2-0.3,0.2c-0.1,0.1-0.3,0.1-0.4,0c-1.8-1-3.7-1.7-5.6-2.2s-4-0.7-6-0.7
	c-2.1,0-4.2,0.3-6.2,0.8c-2,0.6-3.9,1.3-5.8,2.3l-0.8-0.7c1.9-1.2,4-2,6.1-2.6C19.6,4.5,21.8,4.2,24.1,4.2z M24,9.2
	c3.5,0,6.9,0.8,10,2.3s5.8,3.7,7.9,6.5c0.1,0.2,0.1,0.3,0.1,0.4s-0.1,0.2-0.3,0.3c-0.1,0.1-0.2,0.1-0.4,0.1s-0.3-0.1-0.4-0.3
	c-1.9-2.7-4.4-4.8-7.4-6.2s-6.2-2.1-9.5-2.1c-1.5,0-2.9,0.1-4.3,0.4c-1.4,0.3-2.8,0.7-4.1,1.3l-0.8-0.8c1.4-0.7,2.9-1.2,4.5-1.5
	C20.8,9.4,22.4,9.2,24,9.2z M24,13.9c4.5,0,8.3,1.4,11.5,4.3s4.8,6.5,4.8,10.9c0,1-0.2,1.9-0.7,2.8s-1.1,1.6-1.9,2.1l-0.8-0.8
	c0.6-0.4,1.2-1,1.6-1.7c0.4-0.8,0.7-1.6,0.7-2.4c0-4-1.5-7.4-4.5-10.1s-6.6-4-10.7-4c-0.8,0-1.6,0.1-2.4,0.2
	c-0.8,0.1-1.5,0.3-2.3,0.5l-0.9-0.9c0.9-0.3,1.8-0.5,2.7-0.7C22.1,14,23,13.9,24,13.9z M34.2,39.6c-2.9,0-5.4-1-7.5-2.9
	s-3.2-4.4-3.2-7.3c0-0.2,0-0.3,0.1-0.4s0.2-0.2,0.4-0.2c0.1,0,0.3,0.1,0.4,0.2s0.2,0.2,0.2,0.4c0,2.7,1,4.9,2.9,6.6
	c1.9,1.7,4.2,2.5,6.8,2.5c0.3,0,0.7,0,1.1-0.1c0.4,0,0.8-0.1,1.1-0.1c0.1,0,0.2,0,0.3,0.1s0.2,0.1,0.2,0.3s0,0.3-0.1,0.4
	c-0.1,0.1-0.2,0.2-0.4,0.2c-0.4,0.1-0.8,0.2-1.2,0.2C34.9,39.6,34.5,39.6,34.2,39.6z"/>
</svg>
