<?xml version="1.0" encoding="utf-8"?>
<!-- Generator: Adobe Illustrator 26.3.1, SVG Export Plug-In . SVG Version: 6.00 Build 0)  -->
<svg version="1.1" id="Слой_1" xmlns="http://www.w3.org/2000/svg" xmlns:xlink="http://www.w3.org/1999/xlink" x="0px" y="0px"
	 viewBox="0 0 48 48" style="enable-background:new 0 0 48 48;" xml:space="preserve">
<path d="M10.2,42v-1.5H14v-8h-2.8c-0.5,0-1-0.2-1.4-0.6S9.2,31,9.2,30.5V26c0-0.5,0.2-1,0.6-1.4c0.4-0.4,0.9-0.6,1.4-0.6H14v-8h-3.8
	v-1.5h3.9c0.4-2.4,1.5-4.4,3.3-6C19.3,6.8,21.5,6,24,6s4.7,0.8,6.6,2.4c1.8,1.6,3,3.6,3.3,6h3.9V16H34v8h2.8c0.5,0,1,0.2,1.4,0.6
	s0.6,0.9,0.6,1.4v4.4c0,0.5-0.2,1-0.6,1.4c-0.4,0.4-0.9,0.6-1.4,0.6H34v8h3.8V42H10.2z M24,34.3c1.7,0,3.1-0.6,4.3-1.8
	c1.2-1.2,1.8-2.6,1.8-4.3c0-1.7-0.6-3.1-1.8-4.3c-1.2-1.2-2.6-1.8-4.3-1.8c-1.7,0-3.1,0.6-4.3,1.8c-1.2,1.2-1.8,2.6-1.8,4.3
	c0,1.7,0.6,3.1,1.8,4.3C20.9,33.7,22.3,34.3,24,34.3z M24,32.8c-1.3,0-2.3-0.4-3.2-1.3c-0.9-0.9-1.3-2-1.3-3.2s0.4-2.3,1.3-3.2
	c0.9-0.9,2-1.3,3.2-1.3c1.3,0,2.3,0.4,3.2,1.3c0.9,0.9,1.3,2,1.3,3.2s-0.4,2.3-1.3,3.2C26.3,32.3,25.3,32.8,24,32.8z"/>
</svg>
