<?xml version="1.0" encoding="utf-8"?>
<!-- Generator: Adobe Illustrator 26.3.1, SVG Export Plug-In . SVG Version: 6.00 Build 0)  -->
<svg version="1.1" id="Слой_1" xmlns="http://www.w3.org/2000/svg" xmlns:xlink="http://www.w3.org/1999/xlink" x="0px" y="0px"
	 viewBox="0 0 48 48" style="enable-background:new 0 0 48 48;" xml:space="preserve">
<path d="M14,40.5c-1.5,0-2.7-0.5-3.7-1.5s-1.5-2.3-1.5-3.7h-2c-0.7,0-1.4-0.3-1.9-0.8c-0.6-0.6-0.9-1.3-0.9-2V22h22v-7.2
	c0-0.7,0.3-1.4,0.8-1.9c0.6-0.6,1.2-0.8,1.9-0.8h4.5v-1.2c0-0.4,0.1-0.7,0.4-1c0.3-0.3,0.6-0.4,1-0.4h0.8c0.4,0,0.7,0.1,1,0.4
	c0.3,0.3,0.4,0.6,0.4,1V12h1.8c0.6,0,1.1,0.2,1.6,0.5c0.5,0.4,0.8,0.8,1,1.4l2.7,8C44,22,44,22.2,44,22.3c0,0.2,0,0.3,0,0.4v12.5
	h-4.8c0,1.5-0.5,2.7-1.5,3.7s-2.3,1.5-3.7,1.5c-1.5,0-2.7-0.5-3.7-1.5s-1.5-2.3-1.5-3.7h-9.5c0,1.5-0.5,2.7-1.5,3.7
	C16.7,40,15.4,40.5,14,40.5z M14,38.9c1.1,0,1.9-0.4,2.6-1.1c0.7-0.7,1.1-1.6,1.1-2.6s-0.4-1.9-1.1-2.6c-0.7-0.7-1.6-1.1-2.6-1.1
	s-1.9,0.4-2.6,1.1s-1.1,1.6-1.1,2.6s0.4,1.9,1.1,2.6C12.1,38.6,12.9,38.9,14,38.9z M34,38.9c1.1,0,1.9-0.4,2.6-1.1
	c0.7-0.7,1.1-1.6,1.1-2.6s-0.4-1.9-1.1-2.6S35,31.5,34,31.5c-1.1,0-1.9,0.4-2.6,1.1s-1.1,1.6-1.1,2.6s0.4,1.9,1.1,2.6
	C32.1,38.6,32.9,38.9,34,38.9z M27.5,22h14.7l-2.5-7.6c-0.1-0.3-0.3-0.5-0.5-0.6c-0.2-0.2-0.5-0.2-0.7-0.2h-9.8
	c-0.4,0-0.7,0.1-0.9,0.3c-0.2,0.2-0.3,0.5-0.3,0.9C27.5,14.8,27.5,22,27.5,22z M4,20v-1.3h2v-5.4H4V12h18.8v1.3h-2v5.4h2V20H4z
	 M7.3,18.7h5.4v-5.4H7.3V18.7z M14,18.7h5.4v-5.4H14V18.7z"/>
</svg>
