<?xml version="1.0" encoding="utf-8"?>
<!-- Generator: Adobe Illustrator 26.3.1, SVG Export Plug-In . SVG Version: 6.00 Build 0)  -->
<svg version="1.1" id="Слой_1" xmlns="http://www.w3.org/2000/svg" xmlns:xlink="http://www.w3.org/1999/xlink" x="0px" y="0px"
	 viewBox="0 0 48 48" style="enable-background:new 0 0 48 48;" xml:space="preserve">
<path d="M12,41V10h10.7c-0.1,0.2-0.1,0.4-0.1,0.6c0,0.2-0.1,0.4-0.1,0.6c0,3.5,1.2,6.4,3.7,8.7c2.4,2.3,5.3,3.5,8.5,3.5
	c0.5,0,1.1,0,1.6-0.1c0.6-0.1,1.1-0.2,1.6-0.3v6.5h-9.8l-0.9-4.1H13.5V41H12z M34.8,3.3c2.2,0,4,0.8,5.6,2.3
	c1.5,1.5,2.3,3.4,2.3,5.6s-0.8,4.1-2.3,5.6s-3.4,2.3-5.6,2.3c-2.2,0-4.1-0.8-5.6-2.3s-2.3-3.4-2.3-5.6s0.8-4,2.3-5.6
	C30.7,4.1,32.6,3.3,34.8,3.3z M33.4,15.1l6.7-6.8l-0.9-0.9l-5.8,5.9l-3.1-3.1l-0.9,0.9C29.4,11.1,33.4,15.1,33.4,15.1z"/>
</svg>
