<?xml version="1.0" encoding="utf-8"?>
<!-- Generator: Adobe Illustrator 26.3.1, SVG Export Plug-In . SVG Version: 6.00 Build 0)  -->
<svg version="1.1" id="Слой_1" xmlns="http://www.w3.org/2000/svg" xmlns:xlink="http://www.w3.org/1999/xlink" x="0px" y="0px"
	 viewBox="0 0 48 48" style="enable-background:new 0 0 48 48;" xml:space="preserve">
<path d="M11.6,41V21c-1.1-0.1-2-0.4-2.7-1.2c-0.7-0.7-1.1-1.6-1.1-2.7V7.7c0-0.2,0.1-0.4,0.2-0.5C8.1,7.1,8.3,7,8.5,7S8.9,7.1,9,7.2
	s0.2,0.3,0.2,0.5v7.4h2.4V7.7c0-0.2,0.1-0.4,0.2-0.5S12.2,7,12.4,7s0.4,0.1,0.5,0.2s0.2,0.3,0.2,0.5v7.4h2.3V7.7
	c0-0.2,0.1-0.4,0.2-0.5C15.9,7.1,16,7,16.3,7c0.2,0,0.4,0.1,0.5,0.2C16.9,7.4,17,7.5,17,7.7v9.4c0,1-0.4,1.9-1.1,2.7
	c-0.7,0.7-1.7,1.1-2.7,1.2v20H11.6z M24.8,41V21c-1.3-0.7-2.3-1.6-3-2.8c-0.7-1.2-1-2.6-1-4.2c0-1.8,0.4-3.4,1.3-4.8
	c0.8-1.4,2-2.2,3.6-2.2s2.8,0.7,3.6,2.2c0.8,1.4,1.3,3,1.3,4.8c0,1.5-0.4,2.9-1.1,4.2c-0.7,1.2-1.7,2.2-3.1,2.8v20
	C26.4,41,24.8,41,24.8,41z M35,41V7.1c1.5,0.3,2.7,1.1,3.7,2.4c1,1.2,1.5,2.6,1.5,4.3v11.1h-3.7V41H35z"/>
</svg>
