<?xml version="1.0" encoding="utf-8"?>
<!-- Generator: Adobe Illustrator 26.3.1, SVG Export Plug-In . SVG Version: 6.00 Build 0)  -->
<svg version="1.1" id="Слой_1" xmlns="http://www.w3.org/2000/svg" xmlns:xlink="http://www.w3.org/1999/xlink" x="0px" y="0px"
	 viewBox="0 0 48 48" style="enable-background:new 0 0 48 48;" xml:space="preserve">
<path d="M17.6,40h-6.8c-0.8,0-1.4-0.3-2-0.8C8.3,38.6,8,38,8,37.2V10.8c0-0.8,0.3-1.4,0.8-2C9.4,8.3,10,8,10.8,8h6.8v1.5h-6.8
	c-0.4,0-0.7,0.1-0.9,0.3s-0.3,0.5-0.3,0.9v26.5c0,0.4,0.1,0.7,0.3,0.9s0.5,0.3,0.9,0.3h6.8C17.6,38.5,17.6,40,17.6,40z M23.3,46V2.8
	h1.5V46H23.3z M30.5,40v-2h2v2H30.5z M30.5,10V8h2v2H30.5z M38,40v-2h2c0,0.6-0.2,1-0.6,1.4C39,39.8,38.5,40,38,40z M38,32.5v-2h2v2
	H38z M38,25v-2h2v2H38z M38,17.5v-2h2v2H38z M38,10V8c0.5,0,1,0.2,1.4,0.6C39.8,9,40,9.5,40,10H38z"/>
</svg>
