<?xml version="1.0" encoding="utf-8"?>
<!-- Generator: Adobe Illustrator 26.3.1, SVG Export Plug-In . SVG Version: 6.00 Build 0)  -->
<svg version="1.1" id="Слой_1" xmlns="http://www.w3.org/2000/svg" xmlns:xlink="http://www.w3.org/1999/xlink" x="0px" y="0px"
	 viewBox="0 0 48 48" style="enable-background:new 0 0 48 48;" xml:space="preserve">
<path d="M10.8,40c-0.7,0-1.4-0.3-1.9-0.8C8.3,38.6,8,38,8,37.2V15.5h1.5v21.8c0,0.4,0.1,0.7,0.3,0.9s0.5,0.3,0.9,0.3h21.8V40H10.8z
	 M17.5,30.5v2c-0.6,0-1-0.2-1.4-0.6s-0.6-0.9-0.6-1.4H17.5z M15.5,25v-2h2v2H15.5z M15.5,17.5v-2h2v2H15.5z M17.5,10h-2
	c0-0.5,0.2-1,0.6-1.4C16.5,8.2,17,8,17.5,8V10z M23,32.5v-2h2v2H23z M23,10V8h2v2H23z M30.5,10V8h2v2H30.5z M30.5,32.5v-2h2v2H30.5z
	 M38,10V8c0.5,0,1,0.2,1.4,0.6C39.8,9,40,9.5,40,10H38z M38,30.5h2c0,0.6-0.2,1-0.6,1.4c-0.4,0.4-0.9,0.6-1.4,0.6V30.5z M38,25v-2h2
	v2H38z M38,17.5v-2h2v2H38z"/>
</svg>
