<?xml version="1.0" encoding="utf-8"?>
<!-- Generator: Adobe Illustrator 26.3.1, SVG Export Plug-In . SVG Version: 6.00 Build 0)  -->
<svg version="1.1" id="Слой_1" xmlns="http://www.w3.org/2000/svg" xmlns:xlink="http://www.w3.org/1999/xlink" x="0px" y="0px"
	 viewBox="0 0 48 48" style="enable-background:new 0 0 48 48;" xml:space="preserve">
<path d="M18.3,32.5c-0.8,0-1.4-0.3-2-0.8c-0.5-0.5-0.8-1.2-0.8-2V10.8c0-0.8,0.3-1.4,0.8-2c0.5-0.5,1.2-0.8,2-0.8h18.9
	c0.8,0,1.4,0.3,2,0.8c0.5,0.5,0.8,1.2,0.8,2v18.9c0,0.8-0.3,1.4-0.8,2c-0.5,0.5-1.2,0.8-2,0.8C37.2,32.5,18.3,32.5,18.3,32.5z
	 M18.3,30.9h18.9c0.3,0,0.6-0.1,0.8-0.4c0.3-0.2,0.4-0.5,0.4-0.9V10.8c0-0.3-0.1-0.6-0.4-0.8c-0.3-0.3-0.5-0.4-0.8-0.4H18.3
	c-0.3,0-0.6,0.1-0.9,0.4c-0.2,0.3-0.4,0.5-0.4,0.8v18.9c0,0.3,0.1,0.6,0.4,0.9C17.7,30.8,18,30.9,18.3,30.9z M10,38v2
	c-0.5,0-1-0.2-1.4-0.6C8.2,39,8,38.5,8,38H10z M8,32.5v-2h2v2H8z M8,25v-2h2v2H8z M8,17.5v-2h2v2H8z M15.5,40v-2h2v2H15.5z M23,40
	v-2h2v2H23z M30.5,40v-2h2v2H30.5z"/>
</svg>
