<?xml version="1.0" encoding="utf-8"?>
<!-- Generator: Adobe Illustrator 26.3.1, SVG Export Plug-In . SVG Version: 6.00 Build 0)  -->
<svg version="1.1" id="Слой_1" xmlns="http://www.w3.org/2000/svg" xmlns:xlink="http://www.w3.org/1999/xlink" x="0px" y="0px"
	 viewBox="0 0 48 48" style="enable-background:new 0 0 48 48;" xml:space="preserve">
<path d="M5,41v-1.6c1.1-0.3,1.9-0.6,2.4-1.1c0.6-0.5,1.6-0.8,3.1-0.8c1.6,0,2.8,0.3,3.5,1s1.8,1,3.2,1s2.5-0.3,3.2-1s1.9-1,3.5-1
	s2.8,0.3,3.6,1c0.8,0.7,1.8,1,3.2,1c1.4,0,2.5-0.4,3.2-1.1c0.7-0.7,1.9-1.1,3.5-1.1c1.5,0,2.5,0.3,3.1,0.9c0.6,0.6,1.4,1,2.4,1.2V41
	c-1-0.2-1.9-0.6-2.7-1.2c-0.7-0.6-1.7-1-2.8-1c-1.3,0-2.4,0.4-3.2,1.1c-0.8,0.7-2,1.1-3.6,1.1s-2.8-0.3-3.6-1c-0.8-0.7-1.8-1-3.1-1
	c-1.3,0-2.4,0.3-3.1,1c-0.8,0.7-2,1-3.6,1s-2.8-0.3-3.6-1s-1.8-1-3.1-1c-1.2,0-2.1,0.3-2.9,0.8C6.9,40.4,6,40.8,5,41z M5,33.7v-1.6
	c1.1-0.3,1.9-0.6,2.5-1.1s1.6-0.8,3.1-0.8c0.6,0,1.3,0.1,1.9,0.2c0.6,0.2,1.4,0.5,2.3,1l-3.2-11.9l-3.2,3.9l-1.2-0.9l13-16.1
	l19.4,7.4L39,15.2l-4.7-1.8l4.4,16.7c0.8,0.1,1.5,0.4,2.2,1c0.7,0.5,1.4,0.9,2.1,1v1.5c-1-0.2-1.9-0.5-2.6-1.2
	c-0.7-0.6-1.7-0.9-2.9-0.9c-1.3,0-2.4,0.4-3.1,1.1c-0.8,0.7-2,1.1-3.6,1.1s-2.8-0.3-3.6-1c-0.8-0.7-1.8-1-3.1-1
	c-1.3,0-2.4,0.3-3.1,1c-0.8,0.7-2,1-3.6,1s-2.8-0.3-3.6-1s-1.8-1-3.1-1c-1.2,0-2.1,0.3-2.9,0.8C6.9,33.2,6,33.5,5,33.7z M31,32.2
	l-3.1-11.5l-7.3,1.9l2.1,7.8c0.2,0,0.4-0.1,0.6-0.1s0.4,0,0.6,0c1.6,0,2.8,0.3,3.6,1C28.4,31.9,29.5,32.2,31,32.2z"/>
</svg>
