<?xml version="1.0" encoding="utf-8"?>
<!-- Generator: Adobe Illustrator 26.3.1, SVG Export Plug-In . SVG Version: 6.00 Build 0)  -->
<svg version="1.1" id="Слой_1" xmlns="http://www.w3.org/2000/svg" xmlns:xlink="http://www.w3.org/1999/xlink" x="0px" y="0px"
	 viewBox="0 0 48 48" style="enable-background:new 0 0 48 48;" xml:space="preserve">
<path d="M23.3,38V22H14c-0.5,0-0.8-0.2-1.1-0.6s-0.4-0.8-0.2-1.2l3.2-10.3c0.2-0.6,0.5-1,1-1.4s1-0.5,1.6-0.5h11.2
	c0.6,0,1.1,0.2,1.6,0.5c0.5,0.4,0.8,0.8,1,1.4l3.2,10.3c0.1,0.4,0.1,0.9-0.2,1.2C35,21.8,34.6,22,34.2,22h-9.3v16H23.3z M17.3,42
	v-1.5h13.5V42H17.3z"/>
</svg>
