<?xml version="1.0" encoding="utf-8"?>
<!-- Generator: Adobe Illustrator 26.3.1, SVG Export Plug-In . SVG Version: 6.00 Build 0)  -->
<svg version="1.1" id="Слой_1" xmlns="http://www.w3.org/2000/svg" xmlns:xlink="http://www.w3.org/1999/xlink" x="0px" y="0px"
	 viewBox="0 0 48 48" style="enable-background:new 0 0 48 48;" xml:space="preserve">
<path d="M8.6,38c-0.8,0-1.4-0.3-2-0.8c-0.5-0.5-0.8-1.2-0.8-2V12.8c0-0.8,0.3-1.4,0.8-2c0.5-0.5,1.2-0.8,2-0.8h30.8
	c0.8,0,1.4,0.3,2,0.8c0.5,0.5,0.8,1.2,0.8,2h-13c-1.8,0-3.3,0.6-4.6,1.7c-1.3,1.1-2,2.5-2.3,4.1V19H13v1.5h9.2v6.9H13V29h9.2v1
	c0.2,1.7,0.6,3.2,1.4,4.6c0.8,1.4,1.8,2.5,3.1,3.4H8.6z M36.5,42.2c-0.7,0-1.4-0.3-1.9-0.8s-0.8-1.2-0.8-1.9v-2.3
	c-2-0.2-3.8-1.1-5.2-2.6c-1.4-1.5-2.1-3.3-2.1-5.4V20c0-0.7,0.3-1.4,0.8-1.9s1.2-0.8,2-0.8h10.5c0.7,0,1.4,0.3,1.9,0.8
	s0.8,1.2,0.8,1.9v9.2c0,2.1-0.7,3.9-2.1,5.4c-1.4,1.5-3.1,2.4-5.1,2.6v2.3c0,0.4,0.1,0.7,0.3,0.9s0.5,0.3,0.9,0.3h5v1.5
	C41.5,42.2,36.5,42.2,36.5,42.2z M38,28.3h3.1v-8.6c0-0.3-0.1-0.6-0.4-0.8s-0.5-0.4-0.8-0.4H29.1c-0.4,0-0.7,0.1-0.9,0.4
	s-0.3,0.5-0.3,0.8v4.6H30c0.9,0,1.8,0.2,2.6,0.6s1.5,1,2.1,1.7c0.4,0.5,0.9,1,1.5,1.2C36.7,28.2,37.3,28.3,38,28.3z"/>
</svg>
