<?xml version="1.0" encoding="utf-8"?>
<!-- Generator: Adobe Illustrator 26.3.1, SVG Export Plug-In . SVG Version: 6.00 Build 0)  -->
<svg version="1.1" id="Слой_1" xmlns="http://www.w3.org/2000/svg" xmlns:xlink="http://www.w3.org/1999/xlink" x="0px" y="0px"
	 viewBox="0 0 48 48" style="enable-background:new 0 0 48 48;" xml:space="preserve">
<path d="M26,43c-0.8,0-1.4-0.3-2-0.8s-0.8-1.2-0.8-2v-4.3c-3.1-0.2-5.8-1.4-8-3.7s-3.3-5-3.3-8.2V6.8c0-0.7,0.3-1.4,0.8-1.9
	C13.4,4.3,14,4,14.8,4h18.5c0.7,0,1.4,0.3,1.9,0.8C35.7,5.4,36,6,36,6.8V24c0,3.2-1.1,5.9-3.3,8.2s-4.8,3.5-8,3.7v4.3
	c0,0.4,0.1,0.7,0.3,0.9c0.2,0.2,0.5,0.3,0.9,0.3h10.2V43C36.2,43,26,43,26,43z M27.7,27.2h6.2c0.2-0.5,0.3-1.1,0.4-1.6
	c0.1-0.5,0.1-1.1,0.1-1.6v-3.2H27v-1.5h7.5v-6.5H25v-1.5h9.5V6.8c0-0.4-0.1-0.7-0.3-0.9c-0.2-0.2-0.5-0.3-0.9-0.3H14.8
	c-0.4,0-0.7,0.1-0.9,0.3c-0.2,0.2-0.3,0.5-0.3,0.9v16.5H19c0.9,0,1.8,0.2,2.6,0.5s1.5,0.8,2.1,1.5c0.6,0.6,1.2,1.1,1.9,1.5
	C26.3,27.1,27,27.2,27.7,27.2z"/>
</svg>
