<?xml version="1.0" encoding="utf-8"?>
<!-- Generator: Adobe Illustrator 26.3.1, SVG Export Plug-In . SVG Version: 6.00 Build 0)  -->
<svg version="1.1" id="Слой_1" xmlns="http://www.w3.org/2000/svg" xmlns:xlink="http://www.w3.org/1999/xlink" x="0px" y="0px"
	 viewBox="0 0 48 48" style="enable-background:new 0 0 48 48;" xml:space="preserve">
<path d="M16.2,30.8c-0.1-0.1,0.2-0.6,0.8-1.3c0.6-0.8,1.4-1.6,2.2-2.5c0.9-1,2-2.2,3.2-3.5c0.4-0.5,0.9-0.8,1.4-0.8
	c0.6,0,1.1,0.2,1.5,0.7c0.3,0.5,0.5,1,0.4,1.5c-0.1,0.6-0.4,1-0.9,1.3c-1.6,0.9-2.9,1.7-4.2,2.4c-1.1,0.6-2,1.1-2.9,1.6
	C16.7,30.8,16.2,31,16.2,30.8z M21.9,42.7c-0.2,0-0.3,0-0.4-0.1s-0.2-0.2-0.3-0.3c-0.1-0.2-0.2-0.4-0.3-0.7c-0.1-0.3-0.2-0.6-0.2-1
	c0-0.3,0-0.5,0.1-0.7c0-0.2,0.1-0.4,0.1-0.6c-0.8-0.1-1.4-0.5-1.9-1.1s-0.8-1.3-0.8-2.1c0-0.2,0-0.5,0.1-0.9c-2.1-0.7-3.8-1.9-5-3.5
	c-1.3-1.6-2.1-3.7-2.5-6.2c-0.2,0.2-0.3,0.3-0.5,0.4S9.9,26,9.7,26c-0.4,0-0.9-0.3-1.6-1c-0.6-0.6-1-2-1-4.1c0-1.9,0.6-3.7,1.7-5.3
	s2.3-2.4,3.4-2.4c0.4,0,0.6,0.2,0.7,0.5C13,14,13,14.3,13,14.6c1.1-1.5,2.4-2.8,4-3.8s3.4-1.6,5.4-1.8c0.2-0.9,0.6-1.5,1.2-2
	s1.3-0.7,2.1-0.7V8c0.1-0.1,0.2-0.3,0.4-0.4c0.1-0.1,0.3-0.2,0.5-0.3c0.2-0.1,0.5-0.1,0.7-0.1c0.3,0,0.5,0,0.7,0.1s0.4,0.2,0.5,0.3
	C28.8,7.7,29,7.9,29.1,8c-0.4,0-0.8,0.1-1.1,0.4c-0.3,0.2-0.5,0.6-0.5,0.9c1.5,0.4,2.9,1,4.2,1.9c1.3,0.9,2.4,2,3.3,3.2
	c0-0.3,0-0.6,0.1-0.9c0.1-0.3,0.3-0.5,0.7-0.5c1.1,0,2.3,0.8,3.4,2.3c1.1,1.6,1.7,3.3,1.7,5.3c0,2.1-0.3,3.5-1,4.1
	c-0.6,0.6-1.2,1-1.6,1c-0.2,0-0.4,0-0.5-0.1c-0.2-0.1-0.3-0.2-0.5-0.3c-0.4,2.8-1.4,5.1-2.9,6.7c-1.5,1.7-3.6,2.8-6.1,3.4
	c0.1,0.4,0.3,0.7,0.6,1c0.3,0.2,0.6,0.4,1,0.4h1c0.2,0,0.4,0.1,0.5,0.2c0.1,0.1,0.2,0.3,0.3,0.4c0.1,0.4,0.4,0.9,0.7,1.3
	c0.4,0.4,0.7,0.7,1,1c0.2,0.2,0.3,0.4,0.3,0.7s-0.1,0.5-0.3,0.6c-0.3,0.2-0.7,0.4-1.2,0.6c-0.5,0.2-1.1,0.3-1.9,0.4
	c-0.2,0-0.3,0-0.4-0.1s-0.2-0.2-0.3-0.3c-0.1-0.2-0.2-0.4-0.3-0.7c-0.1-0.3-0.2-0.6-0.2-1c0-0.3,0-0.5,0.1-0.7
	c0-0.2,0.1-0.4,0.1-0.6c-0.7-0.1-1.2-0.4-1.7-0.9s-0.8-1-0.9-1.7c-0.4,0.1-0.8,0.1-1.3,0.1c-0.4,0-0.9,0-1.4,0c-0.7,0-1.5,0-2.1-0.1
	c-0.7-0.1-1.4-0.2-2-0.3l-0.1,0.4c0,0.5,0.2,0.9,0.5,1.2s0.7,0.5,1.2,0.5h1c0.2,0,0.4,0.1,0.5,0.2c0.1,0.1,0.2,0.3,0.3,0.4
	c0.1,0.4,0.4,0.9,0.7,1.3c0.4,0.4,0.7,0.7,1,1c0.2,0.2,0.3,0.4,0.3,0.7S25.2,41.9,25,42c-0.3,0.2-0.7,0.4-1.2,0.6
	C23.3,42.5,22.7,42.6,21.9,42.7z M35.4,26.1c0.1-0.6,0.2-1.2,0.3-1.8c0.1-0.6,0.1-1.3,0.1-2c0-3.3-1.2-6.1-3.5-8.4s-5.1-3.5-8.4-3.5
	s-6.1,1.2-8.4,3.5S12,19,12,22.3c0,0.7,0,1.4,0.1,2s0.2,1.2,0.3,1.7c0.2-0.6,0.4-1.1,0.6-1.6c0.2-0.5,0.5-1,0.8-1.5
	c-0.2-0.4-0.3-0.8-0.4-1.3c-0.1-0.4-0.1-0.9-0.1-1.4c0-1.8,0.6-3.3,1.8-4.5s2.7-1.8,4.5-1.8c0.8,0,1.6,0.1,2.3,0.4s1.4,0.7,1.9,1.2
	c0.6-0.5,1.2-0.9,1.9-1.2c0.7-0.3,1.5-0.4,2.3-0.4c1.8,0,3.3,0.6,4.5,1.8s1.8,2.7,1.8,4.5c0,0.5-0.1,0.9-0.2,1.4
	c-0.1,0.4-0.2,0.8-0.4,1.3c0.3,0.5,0.6,1,0.8,1.5C35.1,25,35.3,25.5,35.4,26.1z M24,34.2c2.5,0,4.5-0.4,6.2-1.1
	c1.7-0.8,3-1.9,3.9-3.4c0-0.1,0-0.2,0-0.3c0-0.1,0-0.2,0-0.3c0-0.8-0.1-1.7-0.3-2.5s-0.5-1.5-0.9-2.2c-0.6,0.7-1.3,1.2-2.1,1.6
	c-0.8,0.4-1.7,0.6-2.6,0.6c-0.2,0-0.5,0-0.7,0s-0.5-0.1-0.7-0.1c0.1-0.2,0.2-0.4,0.3-0.6c0.1-0.2,0.1-0.4,0.2-0.7c0-0.1,0-0.1,0-0.2
	v-0.2c0.2,0,0.3,0.1,0.4,0.1s0.3,0,0.4,0c1.3,0,2.4-0.5,3.3-1.4c0.9-0.9,1.4-2,1.4-3.3s-0.5-2.4-1.4-3.3s-2-1.3-3.3-1.3
	c-0.6,0-1.1,0.1-1.7,0.3c-0.5,0.2-1,0.5-1.4,0.9l-1.2,1l-1.2-1c-0.4-0.4-0.9-0.7-1.4-0.9c-0.5-0.2-1.1-0.3-1.7-0.3
	c-1.3,0-2.4,0.5-3.3,1.4c-0.9,0.9-1.4,2-1.4,3.3c0,1.1,0.4,2.1,1.1,3c0.7,0.8,1.6,1.4,2.7,1.6l-1.3,1.4c-0.5-0.2-1-0.4-1.4-0.7
	c-0.4-0.3-0.8-0.7-1.2-1.1c-0.4,0.7-0.7,1.5-0.9,2.2c-0.2,0.8-0.3,1.6-0.3,2.5v0.4c1,1.5,2.3,2.7,4,3.5C19.5,33.8,21.6,34.2,24,34.2
	z M28.2,23.2c-0.7,0-1.3-0.3-1.8-0.9s-0.7-1.3-0.7-2.1c0-0.8,0.2-1.5,0.7-2.1s1.1-0.9,1.8-0.9c0.7,0,1.3,0.3,1.8,0.9
	s0.7,1.3,0.7,2.1c0,0.8-0.2,1.5-0.7,2.1C29.5,22.9,28.9,23.2,28.2,23.2z M28.8,19.4c0.2,0,0.3-0.1,0.5-0.2c0.1-0.1,0.2-0.3,0.2-0.4
	s-0.1-0.3-0.2-0.4s-0.3-0.2-0.4-0.2c-0.2,0-0.3,0.1-0.5,0.2c-0.1,0.1-0.2,0.3-0.2,0.4c0,0.2,0.1,0.3,0.2,0.5
	C28.5,19.4,28.7,19.4,28.8,19.4z M19.8,23.2c-0.7,0-1.3-0.3-1.8-0.9s-0.7-1.3-0.7-2.1c0-0.8,0.2-1.5,0.7-2.1s1.1-0.9,1.8-0.9
	c0.7,0,1.3,0.3,1.8,0.9s0.7,1.3,0.7,2.1c0,0.8-0.2,1.5-0.7,2.1C21.1,22.9,20.5,23.2,19.8,23.2z M20.4,19.4c0.2,0,0.3-0.1,0.5-0.2
	C21,19.1,21,19,21,18.8s-0.1-0.3-0.2-0.4s-0.3-0.2-0.4-0.2c-0.2,0-0.3,0.1-0.5,0.2c-0.1,0.1-0.2,0.3-0.2,0.4c0,0.2,0.1,0.3,0.2,0.5
	C20.1,19.4,20.2,19.4,20.4,19.4z"/>
</svg>
