<?xml version="1.0" encoding="utf-8"?>
<!-- Generator: Adobe Illustrator 26.3.1, SVG Export Plug-In . SVG Version: 6.00 Build 0)  -->
<svg version="1.1" id="Слой_1" xmlns="http://www.w3.org/2000/svg" xmlns:xlink="http://www.w3.org/1999/xlink" x="0px" y="0px"
	 viewBox="0 0 48 48" style="enable-background:new 0 0 48 48;" xml:space="preserve">
<path d="M10,26.7v-6.4c-0.7,0.1-1.3,0.3-2,0.4c-0.7,0.2-1.3,0.3-2,0.5v-1.6c2.9-0.8,5.9-1.3,8.9-1.7c3-0.3,6-0.5,9.1-0.5
	s6.1,0.2,9.1,0.5s6,0.9,8.9,1.7v1.6c-0.7-0.2-1.3-0.3-2-0.5c-0.7-0.1-1.3-0.3-2-0.4v6.3h-1.5V20c-2.1-0.3-4.1-0.6-6.2-0.7
	C28.2,19.1,26.1,19,24,19s-4.2,0.1-6.3,0.2c-2.1,0.2-4.1,0.4-6.2,0.7v6.6H10V26.7z M18.9,12.4L19.7,8h8.7l0.7,4.4
	c-0.8,0-1.7,0-2.5-0.1c-0.9-0.1-1.7-0.1-2.5-0.1c-0.9,0-1.7,0-2.5,0C20.6,12.3,19.8,12.3,18.9,12.4z M14.5,40L17,24.4
	c1-0.1,2.1-0.2,3.1-0.2c1-0.1,2.1-0.1,3.1-0.1v4.5h1.5v-4.5c1,0,2.1,0,3.1,0.1s2.1,0.1,3.1,0.3L33.5,40h-8.7v-5.3h-1.5V40
	C23.2,40,14.5,40,14.5,40z"/>
</svg>
