<?xml version="1.0" encoding="utf-8"?>
<!-- Generator: Adobe Illustrator 26.3.1, SVG Export Plug-In . SVG Version: 6.00 Build 0)  -->
<svg version="1.1" id="Слой_1" xmlns="http://www.w3.org/2000/svg" xmlns:xlink="http://www.w3.org/1999/xlink" x="0px" y="0px"
	 viewBox="0 0 48 48" style="enable-background:new 0 0 48 48;" xml:space="preserve">
<path d="M8.8,38c-0.8,0-1.4-0.3-2-0.8C6.3,36.7,6,36,6,35.2V12.8c0-0.8,0.3-1.4,0.8-2C7.3,10.3,8,10,8.8,10h10.9l3.5,3.5h16
	c0.8,0,1.4,0.3,2,0.8c0.5,0.5,0.8,1.2,0.8,1.9v8.6c-1.1-0.9-2.3-1.6-3.6-2.1C37,22.3,35.7,22,34.2,22c-3.4,0-6.3,1.2-8.6,3.6
	C23.2,28,22,30.9,22,34.3c0,0.6,0,1.3,0.1,1.9c0.1,0.6,0.2,1.2,0.4,1.8C22.6,38,8.8,38,8.8,38z M34.1,42c-2.2,0-4-0.8-5.6-2.3
	c-1.5-1.5-2.3-3.4-2.3-5.6c0-2.2,0.8-4,2.3-5.6c1.5-1.5,3.4-2.3,5.6-2.3s4,0.8,5.6,2.3c1.5,1.5,2.3,3.4,2.3,5.6s-0.8,4-2.3,5.6
	C38.2,41.2,36.3,42,34.1,42z M33.4,39.2h1.5V33h-1.5C33.4,33.1,33.4,39.2,33.4,39.2z M34.1,31.1c0.3,0,0.5-0.1,0.7-0.3
	c0.2-0.2,0.3-0.4,0.3-0.7c0-0.3-0.1-0.5-0.3-0.7s-0.4-0.3-0.7-0.3s-0.5,0.1-0.7,0.3c-0.2,0.2-0.3,0.4-0.3,0.7c0,0.3,0.1,0.5,0.3,0.7
	C33.6,31,33.9,31.1,34.1,31.1z"/>
</svg>
