<?xml version="1.0" encoding="utf-8"?>
<!-- Generator: Adobe Illustrator 26.3.1, SVG Export Plug-In . SVG Version: 6.00 Build 0)  -->
<svg version="1.1" id="Слой_1" xmlns="http://www.w3.org/2000/svg" xmlns:xlink="http://www.w3.org/1999/xlink" x="0px" y="0px"
	 viewBox="0 0 48 48" style="enable-background:new 0 0 48 48;" xml:space="preserve">
<path d="M8.8,38c-0.8,0-1.4-0.3-2-0.8C6.3,36.7,6,36,6,35.2V12.8c0-0.8,0.3-1.4,0.8-2C7.3,10.3,8,10,8.8,10h10.9l3.5,3.5h16
	c0.8,0,1.4,0.3,2,0.8c0.5,0.5,0.8,1.2,0.8,2v6c-1-0.6-2-1.1-3.2-1.4c-1.1-0.3-2.3-0.5-3.5-0.5c-3.7,0-6.7,1.3-9,3.8
	c-2.4,2.5-3.5,5.5-3.5,8.8c0,0.9,0.1,1.7,0.3,2.5c0.2,0.8,0.4,1.6,0.8,2.4C23.9,38,8.8,38,8.8,38z M28.8,38v-0.3
	c0-1.1,0.6-2,1.7-2.6s2.8-0.9,4.9-0.9c2.1,0,3.8,0.3,4.9,0.9c1.1,0.6,1.7,1.4,1.7,2.6V38H28.8z M35.4,30.5c-0.8,0-1.4-0.3-2-0.8
	c-0.6-0.6-0.8-1.2-0.8-2s0.3-1.5,0.8-2c0.6-0.5,1.2-0.8,2-0.8s1.5,0.3,2,0.8s0.8,1.2,0.8,2s-0.3,1.5-0.8,2S36.2,30.5,35.4,30.5z"/>
</svg>
