<?xml version="1.0" encoding="utf-8"?>
<!-- Generator: Adobe Illustrator 26.3.1, SVG Export Plug-In . SVG Version: 6.00 Build 0)  -->
<svg version="1.1" id="Слой_1" xmlns="http://www.w3.org/2000/svg" xmlns:xlink="http://www.w3.org/1999/xlink" x="0px" y="0px"
	 viewBox="0 0 48 48" style="enable-background:new 0 0 48 48;" xml:space="preserve">
<path d="M30.9,31v-5.8l-2.4-4.4c-1,0.1-1.8,0.6-2.5,1.3c-0.6,0.8-1,1.7-1,2.7v10.3l4.3,6.9H42l-2-22.3L27.3,4.5l0.2-0.2
	c-1.1,1.1-1.9,2.4-2.3,3.8c-0.4,1.5-0.3,2.8,0.4,4.1l6.7,12.5V31H30.9z M15.7,31v-6.2l6.7-12.5c0.7-1.3,0.8-2.7,0.4-4.1
	c-0.5-1.5-1.2-2.7-2.3-3.9l0.1,0.2L8,19.7L6,42h12.5l4.3-6.9V24.8c0-1-0.3-1.9-1-2.6c-0.6-0.8-1.5-1.2-2.5-1.3L17,25.2V31H15.7z"/>
</svg>
