<?xml version="1.0" encoding="utf-8"?>
<!-- Generator: Adobe Illustrator 26.3.1, SVG Export Plug-In . SVG Version: 6.00 Build 0)  -->
<svg version="1.1" id="Слой_1" xmlns="http://www.w3.org/2000/svg" xmlns:xlink="http://www.w3.org/1999/xlink" x="0px" y="0px"
	 viewBox="0 0 48 48" style="enable-background:new 0 0 48 48;" xml:space="preserve">
<path d="M18.2,36.7c-2.2-1-4-2.4-5.4-4.3c-1.4-1.9-2.3-4.1-2.7-6.5h1.5c0.3,2,1,3.7,2.2,5.3s2.6,2.8,4.4,3.8V36.7z M25.3,42
	c-0.6,0-1.1-0.2-1.5-0.6c-0.4-0.4-0.6-0.9-0.6-1.5V29.1c0-0.6,0.2-1.1,0.6-1.5s0.9-0.6,1.5-0.6H29c0.3,0,0.7,0.1,1,0.3
	c0.3,0.2,0.6,0.4,0.7,0.7l1.3,1.9h8c0.6,0,1.1,0.2,1.5,0.6c0.3,0.5,0.5,1,0.5,1.5v7.9c0,0.6-0.2,1.1-0.6,1.5
	C41,41.8,40.5,42,39.9,42H25.3z M8.1,20.9c-0.6,0-1.1-0.2-1.5-0.6C6.2,19.9,6,19.4,6,18.9V8.1C6,7.5,6.2,7,6.6,6.6S7.5,6,8.1,6h3.7
	c0.3,0,0.7,0.1,1,0.3c0.3,0.2,0.6,0.4,0.7,0.7l1.3,1.9h8c0.6,0,1.1,0.2,1.5,0.6c0.4,0.4,0.6,0.9,0.6,1.5v7.9c0,0.6-0.2,1.1-0.6,1.5
	S23.4,21,22.8,21C22.7,20.9,8.1,20.9,8.1,20.9z M36.5,24c0-2.3-0.6-4.5-1.8-6.4c-1.2-2-2.8-3.5-4.9-4.5v-1.7c2.5,1.1,4.5,2.8,6,5.1
	S38,21.3,38,24H36.5z"/>
</svg>
