<?xml version="1.0" encoding="utf-8"?>
<!-- Generator: Adobe Illustrator 26.3.1, SVG Export Plug-In . SVG Version: 6.00 Build 0)  -->
<svg version="1.1" id="Слой_1" xmlns="http://www.w3.org/2000/svg" xmlns:xlink="http://www.w3.org/1999/xlink" x="0px" y="0px"
	 viewBox="0 0 48 48" style="enable-background:new 0 0 48 48;" xml:space="preserve">
<path d="M8.8,38c-0.8,0-1.4-0.3-2-0.8C6.3,36.7,6,36,6,35.2V12.8c0-0.8,0.3-1.4,0.8-2C7.3,10.3,8,10,8.8,10h10.9l3.5,3.5h16
	c0.8,0,1.4,0.3,2,0.8c0.5,0.5,0.8,1.2,0.8,2v13.3c-1.4-1-2.9-1.8-4.5-2.4s-3.3-0.9-5-0.9c-3.7,0-7,1.2-9.9,3.6c-3,2.4-5.3,5.1-7,8.1
	H8.8z M32.5,44c-2.4,0-4.6-0.6-6.6-1.8s-3.6-2.8-4.9-4.9c1.2-2,2.8-3.6,4.9-4.9c2-1.2,4.2-1.8,6.6-1.8s4.6,0.6,6.6,1.8
	c2,1.2,3.6,2.8,4.9,4.9c-1.2,2-2.8,3.7-4.9,4.9C37.1,43.4,34.9,44,32.5,44z M32.5,40.6c0.9,0,1.7-0.3,2.3-1c0.6-0.6,1-1.4,1-2.4
	c0-0.9-0.3-1.7-1-2.3c-0.6-0.6-1.4-1-2.4-1c-0.9,0-1.7,0.3-2.3,1c-0.6,0.6-1,1.4-1,2.4c0,0.9,0.3,1.7,1,2.3
	C30.8,40.3,31.6,40.6,32.5,40.6z M32.5,39.1c-0.5,0-0.9-0.2-1.3-0.5c-0.3-0.3-0.5-0.8-0.5-1.3s0.2-0.9,0.5-1.3
	c0.3-0.3,0.8-0.5,1.3-0.5s0.9,0.2,1.3,0.5c0.3,0.3,0.5,0.8,0.5,1.3s-0.2,0.9-0.5,1.3C33.5,38.9,33,39.1,32.5,39.1z"/>
</svg>
