<?xml version="1.0" encoding="utf-8"?>
<!-- Generator: Adobe Illustrator 26.3.1, SVG Export Plug-In . SVG Version: 6.00 Build 0)  -->
<svg version="1.1" id="Слой_1" xmlns="http://www.w3.org/2000/svg" xmlns:xlink="http://www.w3.org/1999/xlink" x="0px" y="0px"
	 viewBox="0 0 48 48" style="enable-background:new 0 0 48 48;" xml:space="preserve">
<path d="M8.8,38c-0.8,0-1.4-0.3-2-0.8C6.3,36.7,6,36,6,35.2V12.8c0-0.8,0.3-1.4,0.8-2C7.3,10.3,8,10,8.8,10h10.9l3.5,3.5h16
	c0.8,0,1.4,0.3,2,0.8c0.5,0.5,0.8,1.2,0.8,2v18.9c0,0.8-0.3,1.4-0.8,2c-0.5,0.5-1.2,0.8-2,0.8C39.2,38,8.8,38,8.8,38z M23.4,32.4
	h13.2v-0.3c0-1.1-0.6-2-1.7-2.6c-1.2-0.6-2.8-1-4.9-1s-3.7,0.3-4.9,1c-1.1,0.6-1.7,1.5-1.7,2.6C23.4,32.1,23.4,32.4,23.4,32.4z
	 M30,24.8c0.8,0,1.4-0.3,2-0.8c0.6-0.5,0.8-1.2,0.8-2s-0.3-1.5-0.8-2c-0.6-0.5-1.2-0.8-2-0.8s-1.5,0.3-2,0.8c-0.5,0.6-0.8,1.2-0.8,2
	s0.3,1.5,0.8,2S29.2,24.8,30,24.8z"/>
</svg>
