<?xml version="1.0" encoding="utf-8"?>
<!-- Generator: Adobe Illustrator 26.3.1, SVG Export Plug-In . SVG Version: 6.00 Build 0)  -->
<svg version="1.1" id="Слой_1" xmlns="http://www.w3.org/2000/svg" xmlns:xlink="http://www.w3.org/1999/xlink" x="0px" y="0px"
	 viewBox="0 0 48 48" style="enable-background:new 0 0 48 48;" xml:space="preserve">
<path d="M34.8,27.6c2.2,0,4,0.8,5.6,2.3c1.5,1.5,2.3,3.4,2.3,5.6s-0.8,4.1-2.3,5.6s-3.4,2.3-5.6,2.3c-2.2,0-4.1-0.8-5.6-2.3
	s-2.3-3.4-2.3-5.6c0-2.2,0.8-4,2.3-5.6C30.7,28.4,32.5,27.6,34.8,27.6z M22.6,36.5c0,0.3,0.1,0.5,0.1,0.8s0.1,0.5,0.1,0.8h-14
	c-0.8,0-1.4-0.3-2-0.8C6.3,36.7,6,36,6,35.2V12.8c0-0.8,0.3-1.4,0.8-2C7.3,10.3,8,10,8.8,10h10.9l3.5,3.5h16c0.8,0,1.4,0.3,2,0.8
	c0.5,0.5,0.8,1.2,0.8,2v9.4c-1-0.8-2.2-1.4-3.4-1.8s-2.5-0.6-3.8-0.6c-3.6,0-6.6,1.3-9,3.9S22.3,32.9,22.6,36.5z M33.4,39.4l6.7-6.8
	l-0.9-0.9l-5.8,5.9l-3.1-3.1l-0.9,0.9C29.4,35.4,33.4,39.4,33.4,39.4z"/>
</svg>
