<?xml version="1.0" encoding="utf-8"?>
<!-- Generator: Adobe Illustrator 26.3.1, SVG Export Plug-In . SVG Version: 6.00 Build 0)  -->
<svg version="1.1" id="Слой_1" xmlns="http://www.w3.org/2000/svg" xmlns:xlink="http://www.w3.org/1999/xlink" x="0px" y="0px"
	 viewBox="0 0 48 48" style="enable-background:new 0 0 48 48;" xml:space="preserve">
<path d="M8.8,38c-0.8,0-1.4-0.3-2-0.8C6.3,36.7,6,36,6,35.2V12.8c0-0.8,0.3-1.4,0.8-2C7.3,10.3,8,10,8.8,10h10.9l3.5,3.5h16
	c0.8,0,1.4,0.3,2,0.8c0.5,0.5,0.8,1.2,0.8,2v11.4H31.5c-2.6,0-4.9,0.9-6.8,2.7s-2.8,3.9-2.8,6.2V38C21.9,38,8.8,38,8.8,38z
	 M31.6,42.6l-5.4-5.4l5.4-5.4l1.1,1.1l-4.4,4.3l4.4,4.4L31.6,42.6z M38.5,42.6l-1.1-1.1l4.3-4.4l-4.3-4.3l1.1-1.1l5.5,5.4L38.5,42.6
	z"/>
</svg>
