<?xml version="1.0" encoding="utf-8"?>
<!-- Generator: Adobe Illustrator 26.3.1, SVG Export Plug-In . SVG Version: 6.00 Build 0)  -->
<svg version="1.1" id="Слой_1" xmlns="http://www.w3.org/2000/svg" xmlns:xlink="http://www.w3.org/1999/xlink" x="0px" y="0px"
	 viewBox="0 0 48 48" style="enable-background:new 0 0 48 48;" xml:space="preserve">
<path d="M8.8,38c-0.8,0-1.4-0.3-2-0.8C6.3,36.7,6,36,6,35.2V12.8c0-0.8,0.3-1.4,0.8-2C7.3,10.3,8,10,8.8,10h10.9l3.5,3.5h16
	c0.8,0,1.4,0.3,2,0.8c0.5,0.5,0.8,1.2,0.8,2v18.9c0,0.8-0.3,1.4-0.8,2c-0.5,0.5-1.2,0.8-2,0.8C39.2,38,8.8,38,8.8,38z M24,31.9
	c1.9,0,3.5-0.7,4.8-2s2-2.9,2-4.8s-0.7-3.5-2-4.8s-2.9-2-4.8-2s-3.5,0.7-4.8,2s-2,2.9-2,4.8s0.7,3.5,2,4.8
	C20.5,31.3,22.1,31.9,24,31.9z M20.9,20.9c0.5-0.3,0.9-0.6,1.5-0.7c0.5-0.2,1.1-0.3,1.7-0.3c1.5,0,2.7,0.5,3.7,1.5s1.5,2.3,1.5,3.7
	c0,0.6-0.1,1.1-0.3,1.7c-0.2,0.5-0.4,1-0.7,1.5L20.9,20.9z M24,30.4c-1.4,0-2.7-0.5-3.7-1.5s-1.5-2.3-1.5-3.7c0-0.6,0.1-1.1,0.3-1.7
	c0.2-0.5,0.4-1,0.8-1.5l7.3,7.3c-0.5,0.3-0.9,0.6-1.5,0.8C25.1,30.3,24.6,30.4,24,30.4z"/>
</svg>
