<?xml version="1.0" encoding="utf-8"?>
<!-- Generator: Adobe Illustrator 26.3.1, SVG Export Plug-In . SVG Version: 6.00 Build 0)  -->
<svg version="1.1" id="Слой_1" xmlns="http://www.w3.org/2000/svg" xmlns:xlink="http://www.w3.org/1999/xlink" x="0px" y="0px"
	 viewBox="0 0 48 48" style="enable-background:new 0 0 48 48;" xml:space="preserve">
<path d="M42.5,44.8L26.9,29.1h2.2l11.9,12c-0.3,0.3-0.6,0.5-0.9,0.7C39.8,41.9,39.4,42,39,42H8.9c-0.8,0-1.5-0.3-2-0.8
	c-0.6-0.6-0.8-1.2-0.8-2V9c0-0.1,0-0.2,0-0.3s0-0.2,0.1-0.3L3.8,6l1.1-1.1l38.8,38.8C43.6,43.6,42.5,44.8,42.5,44.8z M42,37
	L28.9,23.9l-4.2-11.5h-1.3l-1.6,4.4L11,6h28.2c0.8,0,1.5,0.3,2,0.8C41.8,7.4,42,8,42,8.8C42,8.9,42,37,42,37z M15,35.2h1.7l2.2-6.1
	h7.9l-1.5-1.5h-5.9l1.5-4.3l-1.2-1.2C19.8,22.1,15,35.2,15,35.2z M23.9,15.2h0.2l2.2,6.1L22.9,18L23.9,15.2z M31.2,35.2H33l-1.3-3.5
	l-2.6-2.6L31.2,35.2z"/>
</svg>
