<?xml version="1.0" encoding="utf-8"?>
<!-- Generator: Adobe Illustrator 26.3.1, SVG Export Plug-In . SVG Version: 6.00 Build 0)  -->
<svg version="1.1" id="Слой_1" xmlns="http://www.w3.org/2000/svg" xmlns:xlink="http://www.w3.org/1999/xlink" x="0px" y="0px"
	 viewBox="0 0 48 48" style="enable-background:new 0 0 48 48;" xml:space="preserve">
<path d="M8.3,39c-0.9,0-1.6-0.3-2.3-1c-0.6-0.6-0.9-1.4-0.9-2.2v-2c0-0.9,0.3-1.6,0.9-2.2c0.6-0.6,1.4-0.9,2.2-0.9
	c0.9,0,1.6,0.3,2.2,0.9c0.6,0.6,0.9,1.4,0.9,2.2v2c0,0.9-0.3,1.6-0.9,2.2C9.9,38.7,9.1,39,8.3,39z M42.1,39.4h-2.8
	c-0.2,0-0.4-0.1-0.6-0.3c-0.1-0.2-0.2-0.4-0.1-0.6l0.5-1.5c0-0.2,0.1-0.3,0.3-0.4c0.1-0.1,0.3-0.1,0.5-0.1l2.4,0.4
	c0.3,0,0.6,0.2,0.8,0.4s0.3,0.5,0.3,0.8S43.3,38.7,43,39C42.7,39.3,42.4,39.4,42.1,39.4z M34.6,38.6l-5.1-1.7
	c-0.2-0.1-0.3-0.2-0.4-0.4s-0.1-0.4,0-0.5l1.3-2.8c0.1-0.2,0.2-0.3,0.4-0.4c0.2-0.1,0.4,0,0.6,0.1l4.3,2.5c0.1,0.1,0.2,0.2,0.3,0.3
	c0,0.1,0.1,0.3,0.1,0.4l-0.4,2.1c-0.1,0.2-0.2,0.4-0.3,0.5C35,38.7,34.8,38.7,34.6,38.6z M25.3,35.1l-3.6-0.9
	c-0.3-0.1-0.6-0.2-0.8-0.5c-0.2-0.2-0.3-0.5-0.3-0.9V31c0-0.5,0.1-1.1,0.2-1.6s0.4-0.9,0.7-1.3c0.2-0.1,0.4-0.2,0.6-0.2
	c0.3,0,0.5,0,0.7,0.1l4.4,2.4c0.1,0.1,0.2,0.2,0.3,0.4c0.1,0.2,0.1,0.3,0,0.5L26,34.8c-0.1,0.1-0.2,0.2-0.3,0.3
	C25.6,35.2,25.5,35.2,25.3,35.1z M15.3,33.4c-0.2,0-0.3-0.1-0.5-0.2c-0.1-0.2-0.2-0.3-0.3-0.6c-0.2-1.6-1-2.9-2.2-3.8
	S9.6,27.4,8,27.4H7c-0.1,0-0.2,0-0.3-0.1c-0.1-0.1-0.1-0.2-0.1-0.3c0-0.1,0-0.2,0.1-0.3c0.1-0.1,0.2-0.1,0.3-0.1h1.8
	c0.6,0,1.3-0.1,1.9-0.3c0.6-0.2,1.2-0.4,1.8-0.7c0.2-0.1,0.3-0.1,0.5-0.1s0.3,0,0.5,0.1c0.6,0.4,1.3,0.6,2,0.8
	c0.7,0.1,1.3,0.2,2,0.2c0.3,0,0.5,0.1,0.6,0.3c0.1,0.2,0.2,0.4,0,0.7c-0.2,0.5-0.4,1.1-0.6,1.7c-0.1,0.6-0.2,1.2-0.2,1.7v1.7
	c0,0.2-0.1,0.4-0.2,0.5s-0.3,0.2-0.5,0.2C16.6,33.4,15.3,33.4,15.3,33.4z M8.9,23.3c-1,0-1.9-0.4-2.6-1.1s-1.1-1.6-1.1-2.6
	c0-0.5,0.1-1,0.3-1.4c0.2-0.4,0.4-0.8,0.8-1.1l3-2.9v-3.3c0-0.4,0.1-0.7,0.4-1c0.3-0.3,0.6-0.4,1-0.4h4.8c0.4,0,0.7,0.1,1,0.4
	c0.3,0.3,0.4,0.6,0.4,1v3.3l3,2.9c0.3,0.3,0.6,0.7,0.8,1.1c0.2,0.4,0.3,0.9,0.3,1.4c0,1-0.4,1.9-1.1,2.6s-1.6,1.1-2.6,1.1
	c-0.5,0-1-0.1-1.4-0.3c-0.4-0.2-0.8-0.5-1.2-0.8c-0.2-0.2-0.4-0.3-0.7-0.5c-0.2-0.1-0.5-0.2-0.8-0.2s-0.8,0.2-1.6,0.7
	c-0.4,0.3-0.8,0.5-1.2,0.8C9.8,23.2,9.4,23.3,8.9,23.3z"/>
</svg>
