<?xml version="1.0" encoding="utf-8"?>
<!-- Generator: Adobe Illustrator 26.3.1, SVG Export Plug-In . SVG Version: 6.00 Build 0)  -->
<svg version="1.1" id="Слой_1" xmlns="http://www.w3.org/2000/svg" xmlns:xlink="http://www.w3.org/1999/xlink" x="0px" y="0px"
	 viewBox="0 0 48 48" style="enable-background:new 0 0 48 48;" xml:space="preserve">
<path d="M9.7,40.8c-1.3,0-2.4-0.5-3.4-1.4c-0.9-0.9-1.4-2.1-1.4-3.4c0-0.8,0.2-1.5,0.5-2.2s0.8-1.3,1.5-1.7V23h4.6V12h11.9l8.7,20.2
	c0.2,0.4,0.3,0.9,0.5,1.3c0.1,0.5,0.2,0.9,0.2,1.4c0,1.6-0.6,2.9-1.7,4.1c-1.1,1.1-2.5,1.7-4.1,1.7c-1.2,0-2.4-0.4-3.4-1.1
	c-1-0.7-1.7-1.7-2.1-2.9h-7.1c-0.2,1.1-0.7,2.1-1.6,2.9C11.9,40.4,10.9,40.8,9.7,40.8z M35.5,38.8V9H37v28.2h6.1v1.5
	C43.1,38.8,35.5,38.8,35.5,38.8z M9.7,39.2c0.9,0,1.7-0.3,2.3-0.9c0.6-0.6,0.9-1.4,0.9-2.3c0-0.9-0.3-1.7-0.9-2.3
	c-0.6-0.6-1.4-0.9-2.3-0.9c-0.9,0-1.7,0.3-2.3,0.9c-0.6,0.6-0.9,1.4-0.9,2.3c0,0.9,0.3,1.7,0.9,2.3C8,38.9,8.8,39.2,9.7,39.2z
	 M27,39.2c1.2,0,2.2-0.4,3-1.2s1.2-1.8,1.2-3s-0.4-2.2-1.2-3c-0.8-0.8-1.8-1.2-3-1.2s-2.2,0.4-3,1.2c-0.8,0.8-1.2,1.8-1.2,3
	s0.4,2.2,1.2,3C24.8,38.8,25.8,39.2,27,39.2z M19,29.2h8.4c0.3,0,0.7,0,1,0.1s0.6,0.2,0.9,0.3l-6.9-16.1H13V23L19,29.2z"/>
</svg>
