<?xml version="1.0" encoding="utf-8"?>
<!-- Generator: Adobe Illustrator 26.3.1, SVG Export Plug-In . SVG Version: 6.00 Build 0)  -->
<svg version="1.1" id="Слой_1" xmlns="http://www.w3.org/2000/svg" xmlns:xlink="http://www.w3.org/1999/xlink" x="0px" y="0px"
	 viewBox="0 0 48 48" style="enable-background:new 0 0 48 48;" xml:space="preserve">
<path d="M13.7,42V24.8c-1.9-0.5-3.3-1.3-4.2-2.4c-1-1.1-1.4-2.5-1.4-4.1V6h1.5v11.5h4.2V6h1.5v11.5h4.2V6H21v12.3
	c0,1.7-0.5,3-1.5,4.1s-2.4,1.9-4.2,2.4V42C15.2,42,13.7,42,13.7,42z M32.7,42V24.1c-1.8-0.6-3.3-1.7-4.2-3.3c-1-1.5-1.5-3.5-1.5-5.8
	c0-2.5,0.6-4.6,1.9-6.4C30.2,6.9,31.7,6,33.5,6s3.4,0.9,4.6,2.6c1.3,1.8,1.9,3.9,1.9,6.4c0,2.3-0.5,4.2-1.5,5.8
	c-1,1.5-2.4,2.6-4.3,3.3V42C34.3,42,32.7,42,32.7,42z"/>
</svg>
