<?xml version="1.0" encoding="utf-8"?>
<!-- Generator: Adobe Illustrator 26.3.1, SVG Export Plug-In . SVG Version: 6.00 Build 0)  -->
<svg version="1.1" id="Слой_1" xmlns="http://www.w3.org/2000/svg" xmlns:xlink="http://www.w3.org/1999/xlink" x="0px" y="0px"
	 viewBox="0 0 48 48" style="enable-background:new 0 0 48 48;" xml:space="preserve">
<path d="M27.2,40v-7.3c-0.6-2.4-1.8-4.3-3.5-5.5s-3.5-1.9-5.5-1.9c-0.9,0-1.8,0.1-2.7,0.2c-0.9,0.1-1.8,0.2-2.6,0.4l4.8,4.8
	l-1.1,1.1L10,25.1l6.7-6.7l1.1,1.1L13,24.3c0.8-0.1,1.7-0.3,2.6-0.4s1.8-0.1,2.7-0.1c2.1,0,3.9,0.5,5.4,1.4s2.7,2.2,3.6,3.8V11
	l-4.8,4.8l-1.1-1.1L27.9,8l6.7,6.7l-1.1,1.1L28.7,11v29H27.2z"/>
</svg>
