<?xml version="1.0" encoding="utf-8"?>
<!-- Generator: Adobe Illustrator 26.3.1, SVG Export Plug-In . SVG Version: 6.00 Build 0)  -->
<svg version="1.1" id="Слой_1" xmlns="http://www.w3.org/2000/svg" xmlns:xlink="http://www.w3.org/1999/xlink" x="0px" y="0px"
	 viewBox="0 0 48 48" style="enable-background:new 0 0 48 48;" xml:space="preserve">
<path d="M15.8,36.5v-25h8.6c1.9,0,3.6,0.6,4.9,1.9c1.4,1.2,2,2.8,2,4.6c0,1.1-0.3,2.2-1,3.2c-0.6,1-1.6,1.8-2.8,2.3v0.1
	c1.5,0.4,2.7,1.2,3.4,2.3c0.8,1.2,1.2,2.4,1.2,3.7c0,1.8-0.7,3.4-2.1,4.8s-3.2,2-5.3,2L15.8,36.5L15.8,36.5z M17.6,35h7
	c1.4,0,2.7-0.5,3.9-1.4c1.2-0.9,1.8-2.2,1.8-3.9c0-1.6-0.6-2.9-1.8-3.9c-1.2-0.9-2.5-1.4-3.9-1.4h-7.1V35H17.6z M17.6,22.9h6.7
	c1.4,0,2.6-0.5,3.7-1.4s1.6-2.1,1.6-3.6c0-1.4-0.5-2.6-1.6-3.5S25.7,13,24.3,13h-6.7C17.6,13,17.6,22.9,17.6,22.9z"/>
</svg>
