<?xml version="1.0" encoding="utf-8"?>
<!-- Generator: Adobe Illustrator 26.3.1, SVG Export Plug-In . SVG Version: 6.00 Build 0)  -->
<svg version="1.1" id="Слой_1" xmlns="http://www.w3.org/2000/svg" xmlns:xlink="http://www.w3.org/1999/xlink" x="0px" y="0px"
	 viewBox="0 0 48 48" style="enable-background:new 0 0 48 48;" xml:space="preserve">
<path d="M4,48v-3.1h40V48H4z M21.4,18.2l7.7,7.7l-8.1,8c-0.6,0.6-1.3,0.9-2.2,0.9c-0.9,0-1.6-0.3-2.2-0.9L16,33.2L13.3,36H8.8l4.9-5
	l-0.4-0.4c-0.6-0.6-0.9-1.3-0.9-2.2c0-0.9,0.3-1.6,0.9-2.3C13.4,26.1,21.4,18.2,21.4,18.2z M22.5,17.1l9.8-9.8
	c0.5-0.5,1.2-0.8,1.9-0.8c0.8,0,1.4,0.3,1.9,0.8l3.7,3.7c0.5,0.5,0.8,1.2,0.8,2s-0.3,1.5-0.8,2l-9.7,9.7L22.5,17.1z"/>
</svg>
