<?xml version="1.0" encoding="utf-8"?>
<!-- Generator: Adobe Illustrator 26.3.1, SVG Export Plug-In . SVG Version: 6.00 Build 0)  -->
<svg version="1.1" id="Слой_1" xmlns="http://www.w3.org/2000/svg" xmlns:xlink="http://www.w3.org/1999/xlink" x="0px" y="0px"
	 viewBox="0 0 48 48" style="enable-background:new 0 0 48 48;" xml:space="preserve">
<path d="M19.6,37.1v-1.5H40v1.5H19.6z M19.6,24.8v-1.5H40v1.5H19.6z M19.6,12.5V11H40v1.5H19.6z M10.4,38.6c-0.7,0-1.2-0.2-1.7-0.7
	S8,36.9,8,36.2s0.2-1.2,0.7-1.7s1-0.7,1.7-0.7s1.2,0.2,1.7,0.7s0.7,1,0.7,1.7c0,0.6-0.2,1.2-0.7,1.6C11.6,38.4,11.1,38.6,10.4,38.6z
	 M10.4,26.4c-0.7,0-1.2-0.2-1.7-0.7C8.2,25.2,8,24.6,8,24s0.2-1.2,0.7-1.6c0.5-0.5,1-0.7,1.7-0.7c0.6,0,1.2,0.2,1.6,0.7
	c0.5,0.5,0.7,1,0.7,1.6s-0.2,1.2-0.7,1.6C11.6,26.1,11.1,26.4,10.4,26.4z M10.4,14c-0.6,0-1.2-0.2-1.6-0.7c-0.5-0.5-0.7-1-0.7-1.6
	s0.2-1.2,0.7-1.6c0.5-0.5,1-0.7,1.7-0.7c0.6,0,1.2,0.2,1.7,0.7s0.7,1,0.7,1.6s-0.2,1.2-0.7,1.6C11.6,13.8,11,14,10.4,14z"/>
</svg>
