<?xml version="1.0" encoding="utf-8"?>
<!-- Generator: Adobe Illustrator 26.3.1, SVG Export Plug-In . SVG Version: 6.00 Build 0)  -->
<svg version="1.1" id="Слой_1" xmlns="http://www.w3.org/2000/svg" xmlns:xlink="http://www.w3.org/1999/xlink" x="0px" y="0px"
	 viewBox="0 0 48 48" style="enable-background:new 0 0 48 48;" xml:space="preserve">
<path d="M11.4,8.5V7h25.2v1.5H11.4z M24,40.6c-3.5,0-6.5-1.2-8.9-3.7c-2.4-2.4-3.7-5.4-3.7-8.9s1.2-6.5,3.7-8.9
	c2.4-2.4,5.4-3.7,8.9-3.7s6.5,1.2,8.9,3.7c2.4,2.4,3.7,5.4,3.7,8.9s-1.2,6.5-3.7,8.9C30.5,39.4,27.5,40.6,24,40.6z M24,38.8
	c3,0,5.6-1.1,7.7-3.2c2.1-2.1,3.2-4.7,3.2-7.7s-1.1-5.6-3.2-7.7S27,17,24,17s-5.6,1.1-7.7,3.2s-3.2,4.7-3.2,7.7s1.1,5.6,3.2,7.7
	C18.4,37.8,21,38.8,24,38.8z"/>
</svg>
