<?xml version="1.0" encoding="utf-8"?>
<!-- Generator: Adobe Illustrator 26.3.1, SVG Export Plug-In . SVG Version: 6.00 Build 0)  -->
<svg version="1.1" id="Слой_1" xmlns="http://www.w3.org/2000/svg" xmlns:xlink="http://www.w3.org/1999/xlink" x="0px" y="0px"
	 viewBox="0 0 48 48" style="enable-background:new 0 0 48 48;" xml:space="preserve">
<path d="M13.6,34.6l4.9-8.4c-0.3,0.1-0.7,0.2-1.1,0.3c-0.4,0.1-0.8,0.1-1.2,0.1c-1.9,0-3.4-0.6-4.7-1.9S9.6,21.8,9.6,20
	c0-1.9,0.6-3.4,1.9-4.7s2.8-1.9,4.7-1.9c1.8,0,3.4,0.6,4.7,1.9s1.9,2.8,1.9,4.7c0,0.6-0.1,1.2-0.2,1.8c-0.2,0.6-0.4,1.1-0.7,1.6
	l-6.5,11.2H13.6z M31.2,34.6l4.9-8.4c-0.3,0.1-0.7,0.2-1.1,0.3c-0.4,0.1-0.8,0.1-1.2,0.1c-1.9,0-3.4-0.6-4.7-1.9
	c-1.3-1.3-1.9-2.9-1.9-4.7c0-1.9,0.6-3.5,1.9-4.7c1.3-1.3,2.8-1.9,4.7-1.9c1.8,0,3.4,0.6,4.7,1.9s1.9,2.8,1.9,4.7
	c0,0.6-0.1,1.2-0.2,1.8c-0.2,0.6-0.4,1.1-0.7,1.6L33,34.6H31.2z"/>
</svg>
