<?xml version="1.0" encoding="utf-8"?>
<!-- Generator: Adobe Illustrator 26.3.1, SVG Export Plug-In . SVG Version: 6.00 Build 0)  -->
<svg version="1.1" id="Слой_1" xmlns="http://www.w3.org/2000/svg" xmlns:xlink="http://www.w3.org/1999/xlink" x="0px" y="0px"
	 viewBox="0 0 48 48" style="enable-background:new 0 0 48 48;" xml:space="preserve">
<path d="M10,38V10h1.5v28H10z M36.5,38V10H38v28H36.5z M20.8,33.5l-5.4-5.3l5.4-5.3l1.1,1.1l-3.5,3.5h7.8c1.5,0,2.8-0.5,3.9-1.6
	s1.6-2.3,1.6-3.9c0-1.5-0.5-2.8-1.6-3.9s-2.3-1.6-3.9-1.6H14.8V15h11.3c1.9,0,3.6,0.7,5,2c1.4,1.4,2,3,2,5s-0.7,3.6-2,5
	c-1.4,1.4-3,2-5,2h-7.8l3.5,3.5C21.9,32.5,20.8,33.5,20.8,33.5z"/>
</svg>
