<?xml version="1.0" encoding="utf-8"?>
<!-- Generator: Adobe Illustrator 26.3.1, SVG Export Plug-In . SVG Version: 6.00 Build 0)  -->
<svg version="1.1" id="Слой_1" xmlns="http://www.w3.org/2000/svg" xmlns:xlink="http://www.w3.org/1999/xlink" x="0px" y="0px"
	 viewBox="0 0 48 48" style="enable-background:new 0 0 48 48;" xml:space="preserve">
<path d="M35.6,41.5H37v-5.2h5.2v-1.4H37v-5.2h-1.4v5.2h-5.2v1.4h5.2C35.6,36.2,35.6,41.5,35.6,41.5z M36.3,43.2
	c-2.1,0-4-0.8-5.5-2.3s-2.2-3.3-2.2-5.4c0-2.2,0.7-4,2.2-5.5s3.3-2.2,5.5-2.2c2.1,0,3.9,0.7,5.4,2.2s2.3,3.3,2.3,5.5
	c0,2.1-0.8,3.9-2.3,5.4C40.3,42.5,38.4,43.2,36.3,43.2z M19.6,12.5V11H40v1.5H19.6z M10.4,38.6c-0.7,0-1.2-0.2-1.7-0.7
	S8,36.9,8,36.2s0.2-1.2,0.7-1.7s1-0.7,1.7-0.7s1.2,0.2,1.7,0.7s0.7,1,0.7,1.7c0,0.6-0.2,1.2-0.7,1.6C11.6,38.4,11.1,38.6,10.4,38.6z
	 M10.4,26.4c-0.7,0-1.2-0.2-1.7-0.7C8.2,25.2,8,24.6,8,24s0.2-1.2,0.7-1.6c0.5-0.5,1-0.7,1.7-0.7c0.6,0,1.2,0.2,1.6,0.7
	c0.5,0.5,0.7,1,0.7,1.6s-0.2,1.2-0.7,1.6C11.6,26.1,11.1,26.4,10.4,26.4z M10.4,14c-0.6,0-1.2-0.2-1.6-0.7c-0.5-0.5-0.7-1-0.7-1.6
	s0.2-1.2,0.7-1.6c0.5-0.5,1-0.7,1.7-0.7c0.6,0,1.2,0.2,1.7,0.7s0.7,1,0.7,1.6s-0.2,1.2-0.7,1.6C11.6,13.8,11,14,10.4,14z M19.6,37.1
	v-1.5H24c0,0.3,0,0.5,0,0.8s0.1,0.5,0.1,0.8C24.2,37.1,19.6,37.1,19.6,37.1z M19.6,24.8v-1.5h16.7c-1.1,0-2.1,0.1-3.1,0.4
	s-1.9,0.6-2.8,1.2C30.4,24.8,19.6,24.8,19.6,24.8z"/>
</svg>
