<?xml version="1.0" encoding="utf-8"?>
<!-- Generator: Adobe Illustrator 26.3.1, SVG Export Plug-In . SVG Version: 6.00 Build 0)  -->
<svg version="1.1" id="Слой_1" xmlns="http://www.w3.org/2000/svg" xmlns:xlink="http://www.w3.org/1999/xlink" x="0px" y="0px"
	 viewBox="0 0 48 48" style="enable-background:new 0 0 48 48;" xml:space="preserve">
<path d="M36.6,32.4L17.4,13.3L24,6.8l9.9,9.7c1.2,1.2,2.2,2.7,3,4.5s1.1,3.6,1.1,5.4c0,0.9-0.1,1.9-0.4,3
	C37.4,30.4,37,31.4,36.6,32.4z M40.1,42.6l-6.4-6.4c-1.1,1.2-2.5,2.1-4.3,2.8c-1.7,0.7-3.5,1-5.4,1c-3.9,0-7.2-1.3-9.9-4
	S10,30.1,10,26.3c0-2,0.4-3.8,1.1-5.4c0.7-1.7,1.7-3.1,2.9-4.3L5.7,8.2l1.1-1.1l34.4,34.4L40.1,42.6z"/>
</svg>
