<?xml version="1.0" encoding="utf-8"?>
<!-- Generator: Adobe Illustrator 26.3.1, SVG Export Plug-In . SVG Version: 6.00 Build 0)  -->
<svg version="1.1" id="Слой_1" xmlns="http://www.w3.org/2000/svg" xmlns:xlink="http://www.w3.org/1999/xlink" x="0px" y="0px"
	 viewBox="0 0 48 48" style="enable-background:new 0 0 48 48;" xml:space="preserve">
<path d="M21.9,42c-0.4,0-0.8-0.1-1.1-0.4c-0.3-0.3-0.5-0.7-0.5-1.1V29.1h-7.5c-0.8,0-1.5-0.3-2-0.8S10,27.1,10,26.4V12.7
	c0-1.3,0.5-2.4,1.4-3.3s2-1.4,3.3-1.4H38v18.4c0,0.7-0.3,1.4-0.8,1.9c-0.6,0.5-1.2,0.8-2,0.8h-7.5v11.3c0,0.4-0.2,0.8-0.5,1.1
	s-0.7,0.4-1.1,0.4C26.1,42,21.9,42,21.9,42z M11.5,21.1h24.9V9.5h-3.6v7.7h-1.5V9.5h-4.4v4h-1.5v-4H14.7c-0.9,0-1.7,0.3-2.3,0.9
	c-0.6,0.6-0.9,1.3-0.9,2.2C11.5,12.7,11.5,21.1,11.5,21.1z"/>
</svg>
