<?xml version="1.0" encoding="utf-8"?>
<!-- Generator: Adobe Illustrator 26.3.1, SVG Export Plug-In . SVG Version: 6.00 Build 0)  -->
<svg version="1.1" id="Слой_1" xmlns="http://www.w3.org/2000/svg" xmlns:xlink="http://www.w3.org/1999/xlink" x="0px" y="0px"
	 viewBox="0 0 48 48" style="enable-background:new 0 0 48 48;" xml:space="preserve">
<path d="M14.7,41c-0.4,0-0.9-0.1-1.3-0.3c-0.5-0.2-0.9-0.4-1.2-0.7c-0.3-0.2-0.6-0.5-1-0.7S10.4,39,10,39H9.2v-1.5H10
	c0.4,0,0.9,0.1,1.3,0.3c0.5,0.2,0.9,0.4,1.2,0.7c0.3,0.2,0.6,0.5,1,0.7s0.7,0.4,1.1,0.4c0.4,0,0.8-0.1,1.2-0.3
	c0.4-0.2,0.7-0.5,1-0.7s0.7-0.5,1.2-0.7s0.9-0.3,1.3-0.3s0.9,0.1,1.3,0.3c0.5,0.2,0.9,0.4,1.2,0.7c0.3,0.2,0.6,0.5,1,0.7
	s0.7,0.4,1.1,0.4s0.8-0.1,1.2-0.3s0.7-0.5,1-0.7s0.7-0.5,1.2-0.7s0.9-0.3,1.3-0.3s0.9,0.1,1.3,0.3c0.5,0.2,0.8,0.4,1.2,0.7
	c0.3,0.2,0.7,0.5,1,0.7c0.4,0.2,0.8,0.4,1.1,0.4c0.4,0,0.8-0.1,1.1-0.3c0.4-0.2,0.7-0.5,1-0.7c0.3-0.3,0.7-0.5,1.2-0.7
	s0.9-0.3,1.3-0.3h0.8V39H38c-0.4,0-0.8,0.1-1.1,0.3c-0.4,0.2-0.7,0.5-1,0.7c-0.3,0.3-0.8,0.5-1.2,0.7c-0.5,0.2-0.9,0.3-1.4,0.3
	c-0.4,0-0.9-0.1-1.3-0.3c-0.5-0.2-0.8-0.4-1.2-0.6c-0.3-0.3-0.7-0.5-1-0.7C29.4,39.1,29,39,28.6,39s-0.8,0.1-1.1,0.3
	c-0.4,0.2-0.7,0.5-1,0.7s-0.7,0.5-1.2,0.6C24.8,40.9,24.4,41,24,41s-0.9-0.1-1.3-0.3c-0.5-0.2-0.9-0.4-1.2-0.6
	c-0.3-0.2-0.7-0.5-1-0.7c-0.4-0.2-0.7-0.4-1.1-0.4s-0.8,0.1-1.2,0.3c-0.4,0.2-0.7,0.5-1,0.7s-0.7,0.5-1.2,0.6
	C15.5,40.9,15.1,41,14.7,41z M24,31.6c-3,0-5.5-1-7.5-3.1c-2-2-3.1-4.5-3.1-7.5V6.4h1.8v14.7c0,2.5,0.9,4.5,2.5,6.2
	c1.7,1.7,3.8,2.5,6.3,2.5s4.6-0.8,6.3-2.5c1.7-1.7,2.6-3.8,2.6-6.2V6.4h1.8v14.7c0,2.9-1,5.4-3.1,7.5C29.5,30.6,27,31.6,24,31.6z"/>
</svg>
