<?xml version="1.0" encoding="utf-8"?>
<!-- Generator: Adobe Illustrator 26.3.1, SVG Export Plug-In . SVG Version: 6.00 Build 0)  -->
<svg version="1.1" id="Слой_1" xmlns="http://www.w3.org/2000/svg" xmlns:xlink="http://www.w3.org/1999/xlink" x="0px" y="0px"
	 viewBox="0 0 48 48" style="enable-background:new 0 0 48 48;" xml:space="preserve">
<path d="M8,42v-1.8h5v-2.7h-3v-1.8h3V33H8v-1.8h5.4c0.4,0,0.7,0.1,1,0.4s0.4,0.6,0.4,1v2.8c0,0.4-0.1,0.7-0.4,1
	c-0.3,0.3-0.6,0.4-1,0.4c0.4,0,0.7,0.1,1,0.4c0.3,0.3,0.4,0.6,0.4,1v2.5c0,0.4-0.1,0.7-0.4,1c-0.3,0.3-0.6,0.4-1,0.4
	C13.4,42,8,42,8,42z M8,29.4v-4.9c0-0.4,0.1-0.7,0.4-1c0.3-0.3,0.6-0.4,1-0.4H13v-2.7H8v-1.8h5.4c0.4,0,0.7,0.1,1,0.4s0.4,0.6,0.4,1
	v3.5c0,0.4-0.1,0.7-0.4,1c-0.3,0.3-0.6,0.4-1,0.4H9.8v2.7h5v1.8H8z M11,16.8v-9H8V6h4.8v10.8H11z M19.5,36.8v-1.5H40v1.5H19.5z
	 M19.5,24.7v-1.5H40v1.5H19.5z M19.5,12.6v-1.5H40v1.5H19.5z"/>
</svg>
