<?xml version="1.0" encoding="utf-8"?>
<!-- Generator: Adobe Illustrator 26.3.1, SVG Export Plug-In . SVG Version: 6.00 Build 0)  -->
<svg version="1.1" id="Слой_1" xmlns="http://www.w3.org/2000/svg" xmlns:xlink="http://www.w3.org/1999/xlink" x="0px" y="0px"
	 viewBox="0 0 48 48" style="enable-background:new 0 0 48 48;" xml:space="preserve">
<path d="M3,41v-6.5l4-4V17.3l-4-4V7h1.5v4H11V7h1.5v4H19V7h1.5v6.3l-4,4v4.2h14.9v-4.2l-4-4V7H29v4h6.5V7H37v4h6.5V7H45v6.3l-4,4
	v13.2l4,4V41H29.2v-5c0-1.4-0.5-2.7-1.5-3.7s-2.3-1.5-3.7-1.5c-1.4,0-2.7,0.5-3.7,1.5s-1.5,2.3-1.5,3.7v5H3z"/>
</svg>
