<?xml version="1.0" encoding="utf-8"?>
<!-- Generator: Adobe Illustrator 26.3.1, SVG Export Plug-In . SVG Version: 6.00 Build 0)  -->
<svg version="1.1" id="Слой_1" xmlns="http://www.w3.org/2000/svg" xmlns:xlink="http://www.w3.org/1999/xlink" x="0px" y="0px"
	 viewBox="0 0 48 48" style="enable-background:new 0 0 48 48;" xml:space="preserve">
<path d="M24,42c-2.2,0-4.3-0.4-6.2-1.2c-1.9-0.8-3.6-2-5.1-3.4c-1.5-1.5-2.6-3.2-3.4-5.1C8.4,30.3,8,28.2,8,26s0.4-4.3,1.2-6.2
	c0.8-1.9,2-3.6,3.4-5.1c1.5-1.5,3.2-2.6,5.1-3.4c1.9-0.8,4-1.2,6.2-1.2H25l-3.7-3.7l1.1-1.1l5.5,5.4l-5.4,5.4l-1-1.1l3.5-3.5h-1.1
	c-4,0-7.4,1.4-10.2,4.2C10.9,18.6,9.5,22,9.5,26s1.4,7.4,4.2,10.2s6.2,4.2,10.2,4.2s7.4-1.4,10.2-4.2S38.3,30,38.3,26H40
	c0,2.2-0.4,4.3-1.2,6.2s-2,3.6-3.4,5.1c-1.5,1.5-3.2,2.6-5.1,3.4C28.3,41.6,26.2,42,24,42z"/>
</svg>
