<?xml version="1.0" encoding="utf-8"?>
<!-- Generator: Adobe Illustrator 26.3.1, SVG Export Plug-In . SVG Version: 6.00 Build 0)  -->
<svg version="1.1" id="Слой_1" xmlns="http://www.w3.org/2000/svg" xmlns:xlink="http://www.w3.org/1999/xlink" x="0px" y="0px"
	 viewBox="0 0 48 48" style="enable-background:new 0 0 48 48;" xml:space="preserve">
<path d="M37.5,43.5l-1.1-1.1l4.3-4.4H30v-1.5h10.9L36.4,32l1.1-1.1l6.3,6.3L37.5,43.5z M8.8,38c-0.8,0-1.4-0.3-2-0.8
	C6.3,36.6,6,36,6,35.2V12.8c0-0.8,0.3-1.4,0.8-2C7.4,10.3,8,10,8.8,10h30.5c0.8,0,1.4,0.3,2,0.8c0.5,0.5,0.8,1.2,0.8,2v15.4
	c-0.7-0.3-1.4-0.5-2.1-0.7c-0.7-0.2-1.5-0.2-2.2-0.2c-2.9,0-5.4,1-7.4,3s-3,4.5-3,7.4V38C27.2,38,8.8,38,8.8,38z M24,23.7l16.5-10.8
	l-0.6-1.3L24,21.8L8.2,11.5l-0.6,1.3L24,23.7z"/>
</svg>
