<?xml version="1.0" encoding="utf-8"?>
<!-- Generator: Adobe Illustrator 26.3.1, SVG Export Plug-In . SVG Version: 6.00 Build 0)  -->
<svg version="1.1" id="Слой_1" xmlns="http://www.w3.org/2000/svg" xmlns:xlink="http://www.w3.org/1999/xlink" x="0px" y="0px"
	 viewBox="0 0 48 48" style="enable-background:new 0 0 48 48;" xml:space="preserve">
<path d="M24,33.4c-2.1,0-4-0.6-5.7-1.9c-1.6-1.3-2.8-2.9-3.3-4.8h1.9c0.5,1.5,1.4,2.7,2.7,3.6c1.3,0.9,2.7,1.4,4.4,1.4
	c2.1,0,3.9-0.7,5.4-2.2s2.2-3.3,2.2-5.4s-0.7-3.9-2.2-5.4s-3.3-2.2-5.4-2.2c-1.2,0-2.4,0.3-3.5,0.9s-2.1,1.4-2.9,2.3h3.8v1.8h-6.8
	v-6.8h1.8v3.7c1-1.1,2.1-2,3.4-2.7s2.7-1,4.2-1c2.6,0,4.8,0.9,6.6,2.8c1.8,1.8,2.8,4,2.8,6.6s-0.9,4.8-2.8,6.6
	C28.8,32.5,26.6,33.4,24,33.4z M10.8,40c-0.8,0-1.4-0.3-2-0.8C8.3,38.7,8,38,8,37.2v-7.1h1.5v7.1c0,0.3,0.1,0.6,0.4,0.8
	s0.5,0.4,0.8,0.4h7.1V40H10.8z M30.2,40v-1.5h7.1c0.3,0,0.6-0.1,0.8-0.4c0.3-0.3,0.4-0.5,0.4-0.8v-7.1H40v7.1c0,0.8-0.3,1.4-0.8,2
	c-0.5,0.5-1.2,0.8-2,0.8L30.2,40L30.2,40z M8,17.8v-7.1c0-0.8,0.3-1.4,0.8-2C9.3,8.3,10,8,10.8,8h7.1v1.5h-7.1
	c-0.3,0-0.6,0.1-0.8,0.4c-0.3,0.3-0.4,0.5-0.4,0.8v7.1H8z M38.5,17.8v-7.1c0-0.3-0.1-0.6-0.4-0.8c-0.3-0.3-0.5-0.4-0.8-0.4h-7.1V8
	h7.1c0.8,0,1.4,0.3,2,0.8c0.5,0.5,0.8,1.2,0.8,2v7.1h-1.6V17.8z"/>
</svg>
