<?xml version="1.0" encoding="utf-8"?>
<!-- Generator: Adobe Illustrator 26.3.1, SVG Export Plug-In . SVG Version: 6.00 Build 0)  -->
<svg version="1.1" id="Слой_1" xmlns="http://www.w3.org/2000/svg" xmlns:xlink="http://www.w3.org/1999/xlink" x="0px" y="0px"
	 viewBox="0 0 48 48" style="enable-background:new 0 0 48 48;" xml:space="preserve">
<path d="M8.8,42c-0.8,0-1.4-0.3-2-0.8C6.3,40.7,6,40,6,39.2v-7.1h1.5v7.1c0,0.3,0.1,0.6,0.4,0.8c0.3,0.3,0.5,0.4,0.8,0.4h7.1V42H8.8
	z M6,15.8v-7c0-0.8,0.3-1.4,0.8-2C7.3,6.3,8,6,8.8,6h7.1v1.5H8.8C8.5,7.5,8.2,7.6,8,7.9C7.7,8.2,7.5,8.5,7.5,8.8v7.1L6,15.8L6,15.8z
	 M32.2,42v-1.5h7.1c0.3,0,0.6-0.1,0.8-0.4c0.3-0.3,0.4-0.5,0.4-0.8v-7.1H42v7.1c0,0.8-0.3,1.4-0.8,2c-0.5,0.5-1.2,0.8-2,0.8L32.2,42
	L32.2,42z M40.5,15.8v-7c0-0.3-0.1-0.6-0.4-0.8c-0.3-0.3-0.5-0.4-0.8-0.4h-7.1V6h7.1c0.8,0,1.4,0.3,2,0.8C41.7,7.3,42,8,42,8.8v7.1
	L40.5,15.8L40.5,15.8z M24,23.8c-1.4,0-2.6-0.5-3.5-1.5c-1-1-1.5-2.2-1.5-3.5c0-1.4,0.5-2.5,1.5-3.5s2.2-1.5,3.5-1.5
	c1.4,0,2.5,0.5,3.5,1.5s1.5,2.2,1.5,3.5c0,1.4-0.5,2.6-1.5,3.5C26.5,23.3,25.4,23.8,24,23.8z M13,34.2v-2.8c0-0.6,0.2-1.2,0.6-1.7
	c0.4-0.5,0.9-0.9,1.4-1.2c1.4-0.8,2.8-1.3,4.3-1.7c1.5-0.4,3.1-0.6,4.6-0.6s3.1,0.2,4.7,0.6c1.5,0.4,3,0.9,4.4,1.7
	c0.6,0.3,1.1,0.7,1.4,1.2c0.4,0.5,0.6,1.1,0.6,1.7v2.8H13z"/>
</svg>
