<?xml version="1.0" encoding="utf-8"?>
<!-- Generator: Adobe Illustrator 26.3.1, SVG Export Plug-In . SVG Version: 6.00 Build 0)  -->
<svg version="1.1" id="Слой_1" xmlns="http://www.w3.org/2000/svg" xmlns:xlink="http://www.w3.org/1999/xlink" x="0px" y="0px"
	 viewBox="0 0 48 48" style="enable-background:new 0 0 48 48;" xml:space="preserve">
<path d="M42.6,44.8L39.8,42h-7.6v-1.5h6.1L32,34.2H13v-2.8c0-0.6,0.1-1,0.4-1.5c0.3-0.4,0.6-0.8,1.1-1.1c1.4-0.9,2.9-1.6,4.6-2
	s3.3-0.7,4.7-0.7H24L7.5,9.8v6.1H6V8.2L3.8,6l1.1-1.1l38.8,38.8C43.6,43.6,42.6,44.8,42.6,44.8z M29,18.8c0,0.7-0.1,1.4-0.4,2
	s-0.7,1.1-1.2,1.6l-7-7c0.4-0.5,1-0.9,1.6-1.2s1.3-0.4,2-0.4c1.4,0,2.5,0.5,3.5,1.5C28.5,16.2,29,17.4,29,18.8z M42,32.2V37
	l-1.5-1.5v-3.3H42z M8.8,42c-0.8,0-1.4-0.3-2-0.8C6.3,40.7,6,40,6,39.2v-7.1h1.5v7.1c0,0.3,0.1,0.6,0.4,0.8c0.3,0.3,0.5,0.4,0.8,0.4
	h7.1V42H8.8z M40.5,15.8v-7c0-0.3-0.1-0.6-0.4-0.8c-0.3-0.3-0.5-0.4-0.8-0.4h-7.1V6h7.1c0.8,0,1.4,0.3,2,0.8C41.7,7.3,42,8,42,8.8
	v7.1L40.5,15.8L40.5,15.8z M15.8,6v1.5h-3.3L11,6H15.8z"/>
</svg>
