<?xml version="1.0" encoding="utf-8"?>
<!-- Generator: Adobe Illustrator 26.3.1, SVG Export Plug-In . SVG Version: 6.00 Build 0)  -->
<svg version="1.1" id="Слой_1" xmlns="http://www.w3.org/2000/svg" xmlns:xlink="http://www.w3.org/1999/xlink" x="0px" y="0px"
	 viewBox="0 0 48 48" style="enable-background:new 0 0 48 48;" xml:space="preserve">
<path d="M10.8,34.2v-2.8c0-0.6,0.2-1.2,0.6-1.7c0.4-0.5,0.9-0.9,1.4-1.2c1.8-1,3.7-1.6,5.7-2c2-0.3,4-0.4,6-0.1
	c0,0.1-0.1,0.3-0.1,0.4c0,0.2,0,0.3,0,0.4c0,1.3,0.3,2.6,0.8,3.9c0.5,1.2,1.3,2.3,2.4,3.1C27.6,34.2,10.8,34.2,10.8,34.2z
	 M21.8,23.8c-1.4,0-2.6-0.5-3.5-1.5c-1-1-1.5-2.2-1.5-3.5c0-1.4,0.5-2.5,1.5-3.5s2.2-1.5,3.5-1.5c1.4,0,2.5,0.5,3.5,1.5
	s1.5,2.2,1.5,3.5c0,1.4-0.5,2.6-1.5,3.5C24.3,23.3,23.1,23.8,21.8,23.8z M8.8,42c-0.8,0-1.4-0.3-2-0.8C6.3,40.7,6,40,6,39.2v-7h1.5
	v7.1c0,0.3,0.1,0.6,0.4,0.8c0.3,0.3,0.5,0.4,0.8,0.4h7.1V42H8.8z M6,15.8v-7c0-0.8,0.3-1.4,0.8-2C7.3,6.3,8,6,8.8,6h7v1.5h-7
	C8.5,7.5,8.2,7.6,8,7.9C7.7,8.2,7.5,8.5,7.5,8.8v7.1L6,15.8L6,15.8z M32.2,42v-1.5h7.1c0.3,0,0.6-0.1,0.8-0.4
	c0.3-0.3,0.4-0.5,0.4-0.8v-7.1H42v7c0,0.8-0.3,1.4-0.8,2c-0.5,0.5-1.2,0.8-2,0.8H32.2z M40.5,15.8v-7c0-0.3-0.1-0.6-0.4-0.8
	c-0.3-0.3-0.5-0.4-0.8-0.4h-7.1V6h7c0.8,0,1.4,0.3,2,0.8C41.7,7.3,42,8,42,8.8v7H40.5z M32.9,34.2v-2.6c-1.2-0.2-2.2-0.8-3-1.7
	c-0.8-0.9-1.2-2-1.2-3.2h1.5c0,0.9,0.4,1.7,1,2.4c0.7,0.7,1.5,1,2.4,1s1.7-0.3,2.4-1s1-1.5,1-2.4h1.5c0,1.2-0.4,2.3-1.2,3.2
	c-0.8,0.9-1.8,1.4-3,1.7v2.6C34.5,34.2,32.9,34.2,32.9,34.2z M33.7,28.6c-0.6,0-1.1-0.2-1.4-0.6c-0.4-0.4-0.6-0.9-0.6-1.4v-3.4
	c0-0.6,0.2-1.1,0.6-1.4c0.4-0.4,0.9-0.6,1.4-0.6c0.6,0,1.1,0.2,1.4,0.6c0.4,0.4,0.6,0.9,0.6,1.4v3.4c0,0.6-0.2,1.1-0.6,1.4
	C34.7,28.4,34.3,28.6,33.7,28.6z"/>
</svg>
