<?xml version="1.0" encoding="utf-8"?>
<!-- Generator: Adobe Illustrator 26.3.1, SVG Export Plug-In . SVG Version: 6.00 Build 0)  -->
<svg version="1.1" id="Слой_1" xmlns="http://www.w3.org/2000/svg" xmlns:xlink="http://www.w3.org/1999/xlink" x="0px" y="0px"
	 viewBox="0 0 48 48" style="enable-background:new 0 0 48 48;" xml:space="preserve">
<path d="M32.3,43.1l-5.7-5.7l1.1-1.1l4.6,4.6l8.8-8.8l1.1,1.1L32.3,43.1z M14.6,32.4l-1.1-1.1l3.4-3.4l-3.4-3.4l1.1-1.1l3.4,3.4
	l3.4-3.4l1.1,1.1L19.1,28l3.4,3.4l-1.1,1.1L18,29.1L14.6,32.4z M10.8,42c-0.8,0-1.4-0.3-2-0.8C8.3,40.7,8,40,8,39.2V12.3
	c0-0.8,0.3-1.4,0.8-2c0.5-0.5,1.2-0.8,2-0.8h4.1v-4h1.8v4h14.8v-4h1.7v4h4.1c0.8,0,1.4,0.3,2,0.8c0.5,0.5,0.8,1.2,0.8,2V26l-1.5,1.6
	V21H9.5v18.2c0,0.3,0.1,0.6,0.4,0.8s0.5,0.4,0.8,0.4h11.7l1.6,1.5L10.8,42L10.8,42z"/>
</svg>
