<?xml version="1.0" encoding="utf-8"?>
<!-- Generator: Adobe Illustrator 26.3.1, SVG Export Plug-In . SVG Version: 6.00 Build 0)  -->
<svg version="1.1" id="Слой_1" xmlns="http://www.w3.org/2000/svg" xmlns:xlink="http://www.w3.org/1999/xlink" x="0px" y="0px"
	 viewBox="0 0 48 48" style="enable-background:new 0 0 48 48;" xml:space="preserve">
<path d="M24.9,44c-4.1,0-7.7-1.4-10.6-4.3c-2.9-2.9-4.3-6.4-4.3-10.5V10.8c0-0.2,0.1-0.4,0.2-0.5c0.1-0.1,0.3-0.2,0.6-0.2
	c0.2,0,0.4,0.1,0.5,0.2c0.1,0.1,0.2,0.3,0.2,0.5V23h5.9V7.8c0-0.2,0.1-0.4,0.2-0.5C17.8,7.1,18,7,18.2,7s0.4,0.1,0.5,0.2
	C18.9,7.4,19,7.6,19,7.8V23h6V5.8c0-0.2,0.1-0.4,0.2-0.5C25.3,5.1,25.5,5,25.7,5s0.4,0.1,0.5,0.2s0.2,0.3,0.2,0.5v17.2h6V9.8
	c0-0.2,0.1-0.4,0.2-0.5C32.8,9.1,33,9,33.2,9s0.4,0.1,0.5,0.2C33.9,9.4,34,9.6,34,9.8v12.1c-0.4,0.6-0.7,1.2-0.9,1.8
	c-0.2,0.6-0.4,1.3-0.4,2v2.5h-2.4c-1.8,0-3.4,0.7-4.6,2c-1.2,1.4-1.8,3-1.8,4.9v0.7h1.3V35c0-1.5,0.5-2.8,1.5-3.9s2.2-1.7,3.7-1.7
	H34v-3.8c0-1.3,0.4-2.3,1.3-3.2s2-1.3,3.2-1.3H40v8.1c-0.1,4.2-1.6,7.7-4.5,10.6C32.6,42.6,29,44,24.9,44z"/>
</svg>
