<?xml version="1.0" encoding="utf-8"?>
<!-- Generator: Adobe Illustrator 26.3.1, SVG Export Plug-In . SVG Version: 6.00 Build 0)  -->
<svg version="1.1" id="Слой_1" xmlns="http://www.w3.org/2000/svg" xmlns:xlink="http://www.w3.org/1999/xlink" x="0px" y="0px"
	 viewBox="0 0 48 48" style="enable-background:new 0 0 48 48;" xml:space="preserve">
<path d="M8.7,38.5c-1.3,0-2.5-0.5-3.4-1.4c-0.9-0.9-1.3-2-1.3-3.4V22.3c0-0.8,0.3-1.4,0.8-2c0.5-0.5,1.2-0.8,1.9-0.8h11.1v-10h8.3
	c1.3,0,2.4,0.5,3.4,1.4c0.9,0.9,1.4,2.1,1.4,3.4v8.8H34v-3c0-0.3,0.1-0.7,0.2-1c0.1-0.3,0.3-0.6,0.5-0.8l2.7-2.7l7.3,13.7h-8.2
	c-0.7,0-1.3-0.2-1.8-0.7S34,27.4,34,26.7v-2.1h-3.1v5c0.7,0.5,1.3,1,1.7,1.7c0.4,0.7,0.6,1.5,0.6,2.3c0,1.3-0.5,2.4-1.4,3.4
	c-0.9,0.9-2.1,1.4-3.4,1.4c-1.2,0-2.2-0.4-3.1-1.1c-0.9-0.7-1.4-1.7-1.6-2.8H13.4c-0.2,1.1-0.8,2.1-1.6,2.8
	C10.9,38.1,9.9,38.5,8.7,38.5z M8.7,37c0.9,0,1.7-0.3,2.3-0.9s0.9-1.4,0.9-2.3c0-0.9-0.3-1.7-0.9-2.3c-0.6-0.6-1.4-0.9-2.3-0.9
	S7,30.9,6.4,31.5c-0.6,0.6-0.9,1.4-0.9,2.3c0,0.9,0.3,1.6,1,2.3C7.1,36.6,7.8,37,8.7,37z M28.4,37c0.9,0,1.7-0.3,2.3-0.9
	c0.6-0.6,0.9-1.4,0.9-2.3c0-0.9-0.3-1.7-0.9-2.3c-0.6-0.6-1.4-0.9-2.3-0.9s-1.6,0.3-2.3,0.9c-0.6,0.6-1,1.4-1,2.3
	c0,0.9,0.3,1.6,0.9,2.3C26.7,36.6,27.5,37,28.4,37z M42.1,27.7L37,18.1l-0.9,1c-0.2,0.1-0.3,0.3-0.4,0.5c-0.1,0.2-0.1,0.4-0.1,0.6
	v6.5c0,0.3,0.1,0.5,0.3,0.7s0.4,0.3,0.7,0.3H42.1z M19.4,23.1h10v-8.8c0-0.9-0.3-1.7-0.9-2.3s-1.4-0.9-2.3-0.9h-6.7
	C19.4,11.1,19.4,23.1,19.4,23.1z"/>
</svg>
