<?xml version="1.0" encoding="utf-8"?>
<!-- Generator: Adobe Illustrator 26.3.1, SVG Export Plug-In . SVG Version: 6.00 Build 0)  -->
<svg version="1.1" id="Слой_1" xmlns="http://www.w3.org/2000/svg" xmlns:xlink="http://www.w3.org/1999/xlink" x="0px" y="0px"
	 viewBox="0 0 48 48" style="enable-background:new 0 0 48 48;" xml:space="preserve">
<path d="M7.8,36c-0.8,0-1.4-0.3-1.9-0.8S5,34,5,33.2V14.8c0-0.8,0.3-1.4,0.8-1.9C6.4,12.3,7,12,7.8,12h18.5c0.8,0,1.4,0.3,1.9,0.8
	S29,14,29,14.7v18.5c0,0.8-0.3,1.4-0.8,1.9c-0.6,0.6-1.2,0.9-2,0.9H7.8z M34.6,22c-0.5,0-0.9-0.2-1.2-0.5s-0.5-0.7-0.5-1.2v-6.7
	c0-0.5,0.2-0.9,0.5-1.2s0.7-0.5,1.2-0.5h6.7c0.5,0,0.9,0.2,1.2,0.5s0.5,0.7,0.5,1.2v6.7c0,0.5-0.2,0.9-0.5,1.2
	c-0.3,0.3-0.7,0.5-1.2,0.5H34.6z M9.4,29.8h15.2l-4.9-6.5l-3.8,5l-2.8-3.6L9.4,29.8z M34.6,36c-0.5,0-0.9-0.2-1.2-0.5
	s-0.5-0.7-0.5-1.2v-6.7c0-0.5,0.2-0.9,0.5-1.2s0.7-0.5,1.2-0.5h6.7c0.5,0,0.9,0.2,1.2,0.5s0.5,0.7,0.5,1.2v6.7
	c0,0.5-0.2,0.9-0.5,1.2S41.8,36,41.3,36H34.6z"/>
</svg>
