<?xml version="1.0" encoding="utf-8"?>
<!-- Generator: Adobe Illustrator 26.3.1, SVG Export Plug-In . SVG Version: 6.00 Build 0)  -->
<svg version="1.1" id="Слой_1" xmlns="http://www.w3.org/2000/svg" xmlns:xlink="http://www.w3.org/1999/xlink" x="0px" y="0px"
	 viewBox="0 0 48 48" style="enable-background:new 0 0 48 48;" xml:space="preserve">
<path d="M8,43V32c0-1.3,0.5-2.5,1.4-3.4s2.1-1.4,3.4-1.4h4c2.3,0,4.1-0.7,5.4-2c1.2-1.3,1.9-2.9,1.9-4.8c0-1.1-0.3-1.9-1-2.6
	s-1.5-1-2.5-1c-0.7,0-1.3-0.2-1.8-0.7s-0.7-1.1-0.7-1.8V5h8v2.3c0,0.5,0.2,1,0.6,1.3C27.1,9,27.5,9.2,28,9.2c3.4,0,6.2,1.3,8.6,3.8
	s3.5,5.5,3.5,9v2c0,3.5-1.2,6.5-3.7,9s-5.5,3.7-9,3.7h-8c-0.9,0-1.7,0.3-2.3,0.9C16.3,38.3,16,39.1,16,40v3H8z"/>
</svg>
