<?xml version="1.0" encoding="utf-8"?>
<!-- Generator: Adobe Illustrator 26.3.1, SVG Export Plug-In . SVG Version: 6.00 Build 0)  -->
<svg version="1.1" id="Слой_1" xmlns="http://www.w3.org/2000/svg" xmlns:xlink="http://www.w3.org/1999/xlink" x="0px" y="0px"
	 viewBox="0 0 48 48" style="enable-background:new 0 0 48 48;" xml:space="preserve">
<path d="M12.8,35.2V18.7c0-1.6,0.6-3,1.7-4.2c1.1-1.1,2.5-1.7,4.1-1.7h4.5v10.4h-3.4v1.5h3.4v10.4C23.2,35.2,12.8,35.2,12.8,35.2z
	 M24.8,35.2V24.8h3.4v-1.5h-3.4V12.8h4.5c1.6,0,3,0.6,4.2,1.7c1.1,1.1,1.7,2.5,1.7,4.2v16.5H24.8z M7.8,31.8V16.2h1.5v15.5L7.8,31.8
	L7.8,31.8z M38.7,31.8V16.2h1.5v15.5L38.7,31.8L38.7,31.8z"/>
</svg>
