<?xml version="1.0" encoding="utf-8"?>
<!-- Generator: Adobe Illustrator 26.3.1, SVG Export Plug-In . SVG Version: 6.00 Build 0)  -->
<svg version="1.1" id="Слой_1" xmlns="http://www.w3.org/2000/svg" xmlns:xlink="http://www.w3.org/1999/xlink" x="0px" y="0px"
	 viewBox="0 0 48 48" style="enable-background:new 0 0 48 48;" xml:space="preserve">
<path d="M19.4,38c-3.9,0-7.2-1.4-9.9-4.1s-4.1-6-4.1-9.9s1.3-7.2,4.1-9.9s6-4.1,9.9-4.1s7.2,1.4,9.9,4.1s4.1,6,4.1,9.9
	s-1.4,7.2-4.1,9.9S23.3,38,19.4,38z M18.2,30.1h2.3v-10h4v-1.3H14.2v1.3h4V30.1z M37.6,13.7l-1.5-3.5l-3.5-1.5l3.5-1.6l1.5-3.5
	l1.6,3.5l3.5,1.6l-3.5,1.5L37.6,13.7z M37.6,44.3l-1.5-3.5l-3.5-1.6l3.5-1.5l1.5-3.5l1.6,3.5l3.5,1.5l-3.5,1.6L37.6,44.3z"/>
</svg>
