<?xml version="1.0" encoding="utf-8"?>
<!-- Generator: Adobe Illustrator 26.3.1, SVG Export Plug-In . SVG Version: 6.00 Build 0)  -->
<svg version="1.1" id="Слой_1" xmlns="http://www.w3.org/2000/svg" xmlns:xlink="http://www.w3.org/1999/xlink" x="0px" y="0px"
	 viewBox="0 0 48 48" style="enable-background:new 0 0 48 48;" xml:space="preserve">
<path d="M12,44.2v-1c0-4.7,1-8.3,3-10.9s4.6-5.3,7.9-8.3c-3.3-3-5.9-5.8-7.9-8.3c-2-2.6-3-6.2-3-10.9v-1h1.5v1c0,0.7,0,1.3,0.1,1.9
	c0,0.6,0.1,1.2,0.2,1.8h20.4c0.1-0.6,0.2-1.2,0.2-1.8s0.1-1.3,0.1-1.9v-1H36v1c0,4.7-1,8.3-3,10.9S28.4,21,25.1,24
	c3.3,3,5.9,5.7,7.9,8.3s3,6.2,3,10.9v1h-1.5v-1c0-0.7,0-1.3-0.1-1.9c0-0.6-0.1-1.2-0.2-1.8H13.8c-0.1,0.6-0.2,1.2-0.2,1.8
	s-0.1,1.3-0.1,1.9v1C13.5,44.2,12,44.2,12,44.2z M17.1,16h13.8c0.7-0.9,1.3-1.8,1.8-2.8s0.9-2,1.2-3.2H14.1c0.3,1.2,0.7,2.2,1.2,3.2
	S16.4,15.1,17.1,16z M24,23c1.1-1,2.1-1.9,3-2.8s1.8-1.8,2.6-2.7H18.3c0.8,0.9,1.7,1.8,2.6,2.7C21.9,21.1,22.9,22,24,23z M18.4,30.5
	h11.3c-0.8-0.9-1.7-1.8-2.6-2.7c-0.9-0.9-1.9-1.8-3-2.8c-1.1,1-2.1,1.9-3,2.8C20,28.7,19.2,29.6,18.4,30.5z M14.2,38h19.7
	c-0.3-1.2-0.7-2.2-1.2-3.2s-1.1-1.9-1.8-2.8H17.1c-0.7,0.9-1.3,1.8-1.8,2.8S14.4,36.9,14.2,38z"/>
</svg>
