<?xml version="1.0" encoding="utf-8"?>
<!-- Generator: Adobe Illustrator 26.3.1, SVG Export Plug-In . SVG Version: 6.00 Build 0)  -->
<svg version="1.1" id="Слой_1" xmlns="http://www.w3.org/2000/svg" xmlns:xlink="http://www.w3.org/1999/xlink" x="0px" y="0px"
	 viewBox="0 0 48 48" style="enable-background:new 0 0 48 48;" xml:space="preserve">
<path d="M23.8,29.4V18.6h1.5v10.8C25.3,29.4,23.8,29.4,23.8,29.4z M13.7,29.4c-0.7,0-1.3-0.3-1.8-0.8s-0.8-1.1-0.8-1.9v-5.5
	c0-0.7,0.3-1.4,0.8-1.9s1.1-0.8,1.8-0.8h4.7c0.4,0,0.7,0.1,0.9,0.4c0.2,0.2,0.3,0.5,0.3,0.9V20h-5.9c-0.3,0-0.6,0.1-0.8,0.4
	c-0.3,0.3-0.4,0.5-0.4,0.8v5.4c0,0.3,0.1,0.6,0.4,0.8c0.3,0.3,0.5,0.4,0.8,0.4h3.1c0.3,0,0.6-0.1,0.8-0.4c0.3-0.3,0.4-0.5,0.4-0.8
	v-2.4h1.5v2.5c0,0.7-0.3,1.4-0.8,1.9s-1.1,0.8-1.9,0.8C17,29.4,13.7,29.4,13.7,29.4z M29.3,29.4V18.6h7.6v1.5h-6.1v3.4h4V25h-4v4.4
	C30.8,29.4,29.3,29.4,29.3,29.4z"/>
</svg>
