<?xml version="1.0" encoding="utf-8"?>
<!-- Generator: Adobe Illustrator 26.3.1, SVG Export Plug-In . SVG Version: 6.00 Build 0)  -->
<svg version="1.1" id="Слой_1" xmlns="http://www.w3.org/2000/svg" xmlns:xlink="http://www.w3.org/1999/xlink" x="0px" y="0px"
	 viewBox="0 0 48 48" style="enable-background:new 0 0 48 48;" xml:space="preserve">
<path d="M24,14.5c-0.7,0-1.3-0.2-1.8-0.7s-0.7-1.1-0.7-1.8s0.2-1.3,0.7-1.8s1.1-0.7,1.8-0.7c0.7,0,1.3,0.2,1.8,0.7s0.7,1.1,0.7,1.8
	s-0.2,1.3-0.7,1.8S24.7,14.5,24,14.5z M21.8,37.9v-8.1h-3.2l3.9-11.6c0.1-0.3,0.3-0.6,0.6-0.8c0.3-0.2,0.6-0.3,1-0.3s0.7,0.1,1,0.3
	c0.3,0.2,0.5,0.5,0.6,0.8l3.9,11.6h-3.2v8.1C26.2,37.9,21.8,37.9,21.8,37.9z"/>
</svg>
