<?xml version="1.0" encoding="utf-8"?>
<!-- Generator: Adobe Illustrator 26.3.1, SVG Export Plug-In . SVG Version: 6.00 Build 0)  -->
<svg version="1.1" id="Слой_1" xmlns="http://www.w3.org/2000/svg" xmlns:xlink="http://www.w3.org/1999/xlink" x="0px" y="0px"
	 viewBox="0 0 48 48" style="enable-background:new 0 0 48 48;" xml:space="preserve">
<path d="M24,42c-2.5,0-4.8-0.5-7-1.4s-4.1-2.2-5.7-3.9c-1.6-1.6-2.9-3.5-3.9-5.7C6.5,28.8,6,26.5,6,24s0.5-4.8,1.4-7
	s2.2-4.1,3.9-5.7c1.6-1.6,3.5-2.9,5.7-3.8c2.2-1,4.5-1.5,7-1.5s4.8,0.5,7,1.4s4.1,2.2,5.7,3.8c1.6,1.6,2.9,3.5,3.8,5.7
	c0.9,2.2,1.4,4.5,1.4,7s-0.5,4.8-1.4,7s-2.2,4.1-3.8,5.7s-3.5,2.9-5.7,3.9S26.5,42,24,42z M24,40.5c4.6,0,8.5-1.6,11.7-4.8
	s4.8-7.1,4.8-11.7v-0.5c0-0.2,0-0.3,0-0.5c-0.1,0.8-0.5,1.5-1.1,2.1s-1.4,0.8-2.2,0.8h-5.1c-1,0-1.8-0.3-2.4-1c-0.6-0.6-1-1.5-1-2.4
	v-1.7h-6.8v-3.4c0-0.9,0.3-1.7,1-2.4c0.6-0.7,1.5-1,2.4-1H27v-2c0-0.9,0.3-1.6,1-2.3c0.6-0.7,1.4-1,2.3-1c-1-0.4-2-0.7-3-0.9
	c-1-0.2-2.1-0.3-3.2-0.3c-4.6,0-8.5,1.6-11.7,4.8C9.1,15.5,7.5,19.4,7.5,24v0.6c0,0.2,0,0.4,0,0.6h7.8c1.9,0,3.5,0.7,4.8,2
	c1.3,1.3,2,2.9,2,4.8v1.7H17V39c1.1,0.5,2.2,0.9,3.3,1.1C21.6,40.3,22.8,40.5,24,40.5z"/>
</svg>
