<?xml version="1.0" encoding="utf-8"?>
<!-- Generator: Adobe Illustrator 26.3.1, SVG Export Plug-In . SVG Version: 6.00 Build 0)  -->
<svg version="1.1" id="Слой_1" xmlns="http://www.w3.org/2000/svg" xmlns:xlink="http://www.w3.org/1999/xlink" x="0px" y="0px"
	 viewBox="0 0 48 48" style="enable-background:new 0 0 48 48;" xml:space="preserve">
<path d="M24,40.5c0.6,0,1.2,0,1.8-0.1c0.6-0.1,1.1-0.2,1.7-0.3L25,36.3h-7.2v-2.1c0-1.1,0.4-2.1,1.2-2.9c0.8-0.8,1.8-1.2,2.9-1.2H26
	V24h-4c-0.6,0-1-0.2-1.4-0.6S20,22.5,20,21.9v-4.1h-1c-0.9,0-1.6-0.3-2.3-0.9c-0.6-0.6-0.9-1.4-0.9-2.3c0-0.3,0-0.6,0.1-0.9
	c0.1-0.3,0.2-0.6,0.4-0.8l3.2-4.7c-3.5,1-6.3,2.9-8.6,5.8s-3.4,6.2-3.4,10h2.1v-2.1c0-0.6,0.2-1,0.6-1.4c0.4-0.4,0.9-0.6,1.4-0.6
	h4.1c0.6,0,1.1,0.2,1.5,0.6s0.6,0.9,0.6,1.4V24c0,0.6-0.2,1-0.6,1.4S16.3,26,15.7,26v2c0,1.2-0.4,2.1-1.2,2.9s-1.8,1.2-2.9,1.2H9.8
	c1.4,2.5,3.4,4.5,5.9,6C18.2,39.7,20.9,40.5,24,40.5z M39.6,29c0.3-0.8,0.5-1.6,0.6-2.5c0.1-0.8,0.2-1.7,0.2-2.6
	c0-3.8-1.2-7.2-3.5-10.1S31.7,9,28.1,8v5.6c1.1,0,2.1,0.4,2.9,1.2s1.2,1.8,1.2,2.9v4.1c0.6,0,1.2,0.1,1.8,0.3c0.5,0.2,1,0.5,1.5,1
	L39.6,29z M24,42c-2.5,0-4.8-0.5-7-1.4s-4.1-2.2-5.7-3.9c-1.6-1.6-2.9-3.5-3.9-5.7C6.5,28.8,6,26.5,6,24s0.5-4.8,1.4-7
	s2.2-4.1,3.9-5.7c1.6-1.6,3.5-2.9,5.7-3.8c2.2-1,4.5-1.5,7-1.5s4.8,0.5,7,1.4s4.1,2.2,5.7,3.8c1.6,1.6,2.9,3.5,3.8,5.7
	c0.9,2.2,1.4,4.5,1.4,7s-0.5,4.8-1.4,7s-2.2,4.1-3.8,5.7s-3.5,2.9-5.7,3.9S26.5,42,24,42z"/>
</svg>
