<?xml version="1.0" encoding="utf-8"?>
<!-- Generator: Adobe Illustrator 26.3.1, SVG Export Plug-In . SVG Version: 6.00 Build 0)  -->
<svg version="1.1" id="Слой_1" xmlns="http://www.w3.org/2000/svg" xmlns:xlink="http://www.w3.org/1999/xlink" x="0px" y="0px"
	 viewBox="0 0 48 48" style="enable-background:new 0 0 48 48;" xml:space="preserve">
<path d="M22.9,40.3c-1.1,0-2.1-0.4-2.9-1.2s-1.2-1.7-1.2-2.9s0.4-2.1,1.2-2.9c0.8-0.8,1.8-1.2,2.9-1.2l1.2-1.1
	c0.3-0.3,0.6-0.5,0.9-0.7c0.4-0.2,0.7-0.2,1.1-0.2c0.8,0,1.5,0.3,2.1,0.9s0.8,1.3,0.8,2v0.9c0,0.7,0.2,1.2,0.7,1.7s1,0.7,1.7,0.7
	c0.5,0,1-0.2,1.4-0.5s0.7-0.7,0.9-1.2l0.6-1.7c0.3-0.8,0.8-1.5,1.4-2c0.6-0.5,1.4-0.8,2.3-0.8c0.4-0.9,0.6-1.9,0.9-3
	c0.2-1,0.3-2.1,0.3-3.1c0-3.1-0.7-5.8-2.2-8.3s-3.5-4.4-6-5.9v1.9c0,1.1-0.4,2.1-1.2,2.9c-0.8,0.8-1.8,1.2-2.9,1.2h-2v4.1
	c0,0.6-0.2,1-0.6,1.4s-0.9,0.6-1.4,0.6h-2.1v3.5c0,0.7-0.3,1.4-0.8,1.9s-1.1,0.8-1.9,0.8c-0.5,0-0.9-0.1-1.3-0.3
	c-0.4-0.2-0.7-0.5-1-0.8l-3.3-5h-2.1v2c0,1.1-0.3,2-1,2.7c-0.7,0.8-1.5,1.2-2.5,1.3c0.9,3.6,2.8,6.5,5.7,8.8
	C15.7,39.1,19.1,40.3,22.9,40.3z M27,28.1c-0.6,0-1.1-0.2-1.5-0.6C25.2,27,25,26.6,25,26s0.2-1,0.6-1.4s0.9-0.6,1.5-0.6h2
	c0.6,0,1.1,0.2,1.5,0.6s0.6,0.9,0.6,1.4c0,0.6-0.2,1.1-0.6,1.5s-0.9,0.6-1.5,0.6C29,28.1,27,28.1,27,28.1z M31.8,21.9
	c-0.7,0-1.2-0.3-1.6-0.8s-0.5-1.1-0.3-1.8l0.8-2.2c0.1-0.4,0.4-0.8,0.7-1c0.4-0.2,0.7-0.4,1.1-0.4c0.7,0,1.2,0.3,1.6,0.8
	c0.4,0.5,0.5,1.1,0.3,1.8l-0.8,2.2c-0.1,0.4-0.4,0.8-0.7,1C32.6,21.8,32.2,21.9,31.8,21.9z M22.9,42c-2.5,0-4.8-0.5-7-1.4
	s-4.1-2.2-5.7-3.9c-1.6-1.6-2.9-3.5-3.9-5.7c-0.9-2.2-1.4-4.5-1.4-7s0.5-4.8,1.4-7s2.2-4.1,3.9-5.7c1.6-1.6,3.5-2.9,5.7-3.8
	s4.5-1.4,7-1.4s4.8,0.5,7,1.4s4.1,2.2,5.7,3.8s2.9,3.5,3.8,5.7c0.9,2.2,1.4,4.5,1.4,7s-0.5,4.8-1.4,7s-2.2,4.1-3.8,5.7
	c-1.6,1.6-3.5,2.9-5.7,3.9C27.7,41.5,25.4,42,22.9,42z"/>
</svg>
