<?xml version="1.0" encoding="utf-8"?>
<!-- Generator: Adobe Illustrator 26.3.1, SVG Export Plug-In . SVG Version: 6.00 Build 0)  -->
<svg version="1.1" id="Слой_1" xmlns="http://www.w3.org/2000/svg" xmlns:xlink="http://www.w3.org/1999/xlink" x="0px" y="0px"
	 viewBox="0 0 48 48" style="enable-background:new 0 0 48 48;" xml:space="preserve">
<path d="M8.1,26c0-0.3-0.1-0.7-0.1-1s0-0.7,0-1c0-2.2,0.4-4.3,1.3-6.2c0.8-1.9,2-3.6,3.4-5.1s3.2-2.6,5.1-3.4c2-0.8,4-1.3,6.2-1.3
	s4.3,0.4,6.3,1.3c2,0.8,3.7,2,5.1,3.4c1.5,1.4,2.6,3.1,3.4,5.1c0.8,1.9,1.3,4,1.3,6.2c0,0.3,0,0.7,0,1S40,25.7,40,26h-1.5
	c0-0.3,0.1-0.7,0.1-1s0.1-0.7,0.1-1c0-0.5,0-1-0.1-1.5c0-0.5-0.1-1-0.2-1.5h-7.9c0,0.5,0.1,1,0.1,1.5s0,1,0,1.5c0,0.3,0,0.7,0,1
	s0,0.7,0,1h-1.5c0-0.3,0-0.6,0-0.8v-0.8c0-0.6,0-1.2,0-1.8c0-0.6-0.1-1.1-0.1-1.6h-9.6c-0.1,0.5-0.1,1.1-0.1,1.6c0,0.6,0,1.1,0,1.8
	v0.8c0,0.3,0,0.5,0,0.8h-1.5c0-0.3-0.1-0.7-0.1-1s0-0.7,0-1c0-0.5,0-1,0-1.5s0.1-1,0.1-1.5h-8c-0.1,0.5-0.2,1-0.2,1.5
	s-0.1,1-0.1,1.5c0,0.3,0,0.7,0.1,1c0,0.3,0.1,0.7,0.1,1H8.1z M10.2,19.4h7.6c0.4-2.3,0.9-4.3,1.6-5.8c0.7-1.6,1.7-2.9,2.9-4
	c-2.8,0.3-5.3,1.4-7.5,3.2C12.7,14.5,11.1,16.8,10.2,19.4z M19.4,19.4h9.2c-0.3-1.8-0.8-3.5-1.6-5.2c-0.8-1.6-1.8-3.1-3-4.5
	c-1.2,1.4-2.2,2.9-3,4.5C20.2,15.9,19.7,17.6,19.4,19.4z M30.2,19.4h7.7c-0.9-2.7-2.5-4.9-4.7-6.7s-4.8-2.8-7.6-3.2
	c1.3,1.1,2.3,2.5,3,4.1C29.3,15.3,29.8,17.2,30.2,19.4z M23.2,40v-1.3c0-1.9-0.7-3.5-2-4.8c-1.4-1.3-3-2-4.9-2H6v-1.5h10.3
	c1.6,0,3.1,0.4,4.5,1.3c1.4,0.8,2.4,2,3.2,3.4c0.7-1.4,1.8-2.6,3.1-3.4c1.4-0.8,2.8-1.3,4.5-1.3H42v1.5H31.6c-1.9,0-3.5,0.7-4.8,2
	c-1.3,1.3-2,2.9-2,4.8V40H23.2z"/>
</svg>
