<?xml version="1.0" encoding="utf-8"?>
<!-- Generator: Adobe Illustrator 26.3.1, SVG Export Plug-In . SVG Version: 6.00 Build 0)  -->
<svg version="1.1" id="Слой_1" xmlns="http://www.w3.org/2000/svg" xmlns:xlink="http://www.w3.org/1999/xlink" x="0px" y="0px"
	 viewBox="0 0 48 48" style="enable-background:new 0 0 48 48;" xml:space="preserve">
<path d="M29.6,42c-1,0-1.9-0.2-2.8-0.6c-0.9-0.4-1.7-1-2.3-1.8l-11-12.7l1.5-1.1c0.5-0.4,1-0.5,1.6-0.6s1.1,0.1,1.6,0.5l4.8,3.1v-21
	c0-0.2,0.1-0.4,0.2-0.6C23.4,7.1,23.6,7,23.8,7c0.2,0,0.4,0.1,0.6,0.2c0.1,0.1,0.2,0.3,0.2,0.6v17h5V14.6c0-0.2,0.1-0.4,0.2-0.6
	c0.1-0.1,0.3-0.2,0.5-0.2s0.4,0.1,0.6,0.2c0.1,0.1,0.2,0.3,0.2,0.6v10.2h4.8V17c0-0.2,0.1-0.4,0.2-0.6c0.1-0.1,0.3-0.2,0.5-0.2
	s0.4,0.1,0.6,0.2c0.1,0.1,0.2,0.3,0.2,0.6v7.8h5V21c0-0.2,0.1-0.4,0.2-0.6c0.1-0.1,0.3-0.2,0.5-0.2s0.4,0.1,0.6,0.2
	C44,20.6,44,20.8,44,21v14.2c0,1.9-0.7,3.5-2,4.8s-2.9,2-4.8,2H29.6z M9,19c-1.7,0-3.1-0.6-4.3-1.7C3.6,16.1,3,14.8,3,13.1
	c0-1,0.2-1.9,0.6-2.6c0.4-0.7,1.4-2,3-3.8L9,4l2.4,2.8c1.6,1.9,2.6,3.2,3,3.9c0.4,0.7,0.6,1.5,0.6,2.5c0,1.6-0.6,3-1.7,4.2
	C12.1,18.4,10.7,19,9,19z"/>
</svg>
