<?xml version="1.0" encoding="utf-8"?>
<!-- Generator: Adobe Illustrator 26.3.1, SVG Export Plug-In . SVG Version: 6.00 Build 0)  -->
<svg version="1.1" id="Слой_1" xmlns="http://www.w3.org/2000/svg" xmlns:xlink="http://www.w3.org/1999/xlink" x="0px" y="0px"
	 viewBox="0 0 48 48" style="enable-background:new 0 0 48 48;" xml:space="preserve">
<path d="M17.1,40v-4.2H8.6c-0.8,0-1.4-0.3-2-0.8c-0.5-0.5-0.8-1.2-0.8-2V10.8c0-0.8,0.3-1.4,0.8-2C7.2,8.3,7.8,8,8.6,8h30.5
	c0.8,0,1.4,0.3,2,0.8c0.5,0.5,0.8,1.2,0.8,2V15h-1.5v-4.2c0-0.4-0.1-0.7-0.4-0.9c-0.2-0.2-0.5-0.3-0.9-0.3H8.6
	c-0.4,0-0.7,0.1-0.9,0.3c-0.2,0.2-0.3,0.5-0.3,0.9v22.3c0,0.3,0.1,0.6,0.3,0.9c0.2,0.2,0.5,0.4,0.9,0.4h15.1V40H17.1z M30.8,32.6
	c0-1.1,0.4-2,1.2-2.8c0.8-0.8,1.7-1.2,2.8-1.2s2,0.4,2.8,1.2c0.8,0.8,1.2,1.7,1.2,2.8s-0.4,2-1.2,2.8s-1.7,1.2-2.8,1.2
	s-2-0.4-2.8-1.2C31.1,34.6,30.8,33.7,30.8,32.6z M40.5,18.3c0.5,0,0.9,0.2,1.2,0.5s0.5,0.7,0.5,1.2v18.2c0,0.5-0.2,0.9-0.5,1.2
	s-0.7,0.5-1.2,0.5H28.9c-0.5,0-0.9-0.2-1.2-0.5c-0.3-0.3-0.5-0.7-0.5-1.2V20c0-0.5,0.2-0.9,0.5-1.2c0.3-0.3,0.7-0.5,1.2-0.5H40.5z
	 M34.7,20c-0.7,0-1.3,0.3-1.8,0.8s-0.7,1.1-0.7,1.8c0,0.7,0.3,1.3,0.8,1.8s1.1,0.7,1.8,0.7s1.3-0.2,1.8-0.7s0.7-1.1,0.7-1.8
	s-0.2-1.3-0.7-1.8C36,20.3,35.4,20,34.7,20z M34.7,38.4c1.7,0,3-0.6,4.1-1.7c1.1-1.1,1.6-2.5,1.6-4.1c0-1.6-0.5-3-1.6-4.1
	s-2.5-1.7-4.1-1.7c-1.7,0-3,0.6-4.1,1.7S29,31,29,32.6c0,1.7,0.5,3,1.6,4.1S33,38.4,34.7,38.4z"/>
</svg>
