<?xml version="1.0" encoding="utf-8"?>
<!-- Generator: Adobe Illustrator 26.3.1, SVG Export Plug-In . SVG Version: 6.00 Build 0)  -->
<svg version="1.1" id="Слой_1" xmlns="http://www.w3.org/2000/svg" xmlns:xlink="http://www.w3.org/1999/xlink" x="0px" y="0px"
	 viewBox="0 0 48 48" style="enable-background:new 0 0 48 48;" xml:space="preserve">
<path d="M7.3,21.5l0.6-8.9c0.1-0.7,0.4-1.4,0.9-1.8c0.5-0.5,1.1-0.7,1.9-0.7h26.7c0.7,0,1.4,0.2,1.9,0.7s0.8,1.1,0.9,1.8l0.6,8.9
	H7.3z M11.3,38l-0.5-1.5H9.3c-0.8,0-1.5-0.3-2-0.9s-0.8-1.3-0.7-2.1L7.2,23h33.6l0.6,10.5c0.1,0.8-0.2,1.5-0.7,2.1s-1.2,0.9-2,0.9
	h-1.6L36.7,38H11.3z"/>
</svg>
