<?xml version="1.0" encoding="utf-8"?>
<!-- Generator: Adobe Illustrator 26.3.1, SVG Export Plug-In . SVG Version: 6.00 Build 0)  -->
<svg version="1.1" id="Слой_1" xmlns="http://www.w3.org/2000/svg" xmlns:xlink="http://www.w3.org/1999/xlink" x="0px" y="0px"
	 viewBox="0 0 48 48" style="enable-background:new 0 0 48 48;" xml:space="preserve">
<path d="M10.8,40c-0.8,0-1.4-0.3-2-0.8C8.3,38.6,8,38,8,37.2V10.8c0-0.8,0.3-1.4,0.8-2C9.4,8.3,10,8,10.8,8h26.4
	c0.8,0,1.4,0.3,2,0.8c0.5,0.5,0.8,1.2,0.8,2v26.4c0,0.8-0.3,1.4-0.8,2c-0.5,0.5-1.2,0.8-2,0.8H10.8z M21.9,21.9V26H26v-4.1
	C26.1,21.9,21.9,21.9,21.9,21.9z M13.7,21.9V26h4.1v-4.1H13.7z M17.8,26.1v4.1h4.1v-4.1H17.8z M26.1,26.1v4.1h4.1v-4.1H26.1z
	 M9.5,26.1v4.1h4.1v-4.1C13.7,26.1,9.5,26.1,9.5,26.1z M30.2,21.9V26h4.1v4.1h4.1V26h-4.1v-4.1H30.2z M13.7,30.2v4.1H9.5v2.9
	c0,0.3,0.1,0.6,0.4,0.9c0.2,0.2,0.5,0.4,0.9,0.4h2.9v-4.1h4.1v4.1h4.1v-4.1h4.2v4.1h4.1v-4.1h4.1v4.1h2.9c0.3,0,0.6-0.1,0.9-0.4
	c0.2-0.2,0.4-0.5,0.4-0.9v-2.9h-4.1v-4.1h-4.1v4.1h-4.1v-4.1h-4.1v4.1H18v-4.1C18,30.2,13.7,30.2,13.7,30.2z M38.5,21.9V26V21.9z
	 M38.5,30.2v4.1V30.2z"/>
</svg>
