<?xml version="1.0" encoding="utf-8"?>
<!-- Generator: Adobe Illustrator 26.3.1, SVG Export Plug-In . SVG Version: 6.00 Build 0)  -->
<svg version="1.1" id="Слой_1" xmlns="http://www.w3.org/2000/svg" xmlns:xlink="http://www.w3.org/1999/xlink" x="0px" y="0px"
	 viewBox="0 0 48 48" style="enable-background:new 0 0 48 48;" xml:space="preserve">
<path d="M10.6,42c-1.2,0-2.3-0.4-3.2-1.3c-0.9-0.9-1.3-2-1.3-3.2c0-1.1,0.4-2.1,1.1-2.9c0.7-0.8,1.6-1.4,2.7-1.6v-5.1
	c0-1.2,0.5-2.3,1.4-3.2c0.9-0.9,2-1.4,3.2-1.4h8.9v-8.1c-1.1-0.2-2-0.7-2.7-1.6c-0.7-0.8-1.1-1.8-1.1-3c0-1.3,0.4-2.3,1.3-3.2
	C21.7,6.4,22.7,6,24,6s2.4,0.4,3.3,1.3s1.3,2,1.3,3.2c0,1.1-0.4,2.1-1.1,3c-0.7,0.8-1.6,1.4-2.7,1.6v8.1h8.9c1.2,0,2.3,0.5,3.2,1.4
	s1.4,2,1.4,3.2V33c1.1,0.2,2,0.7,2.7,1.6c0.7,0.8,1.1,1.8,1.1,2.9c0,1.3-0.5,2.3-1.4,3.2s-2,1.3-3.2,1.3s-2.3-0.4-3.2-1.3
	c-0.9-0.9-1.3-2-1.3-3.2s0.4-2.2,1.1-3c0.8-0.9,1.7-1.4,2.7-1.5v-5.1c0-0.9-0.3-1.6-0.9-2.2c-0.6-0.6-1.3-0.9-2.2-0.9h-8.9v8.1
	c1.1,0.2,2,0.7,2.7,1.6c0.7,0.8,1.1,1.8,1.1,3c0,1.3-0.5,2.3-1.4,3.2S25.2,42,24,42s-2.3-0.4-3.2-1.3c-0.9-0.9-1.3-2-1.3-3.2
	c0-1.1,0.4-2.1,1.1-3c0.7-0.8,1.6-1.4,2.7-1.6v-8.1h-8.9c-0.9,0-1.6,0.3-2.2,0.9c-0.6,0.6-0.9,1.3-0.9,2.2V33c1.1,0.2,2,0.7,2.7,1.5
	c0.8,0.9,1.1,1.9,1.1,3c0,1.3-0.5,2.4-1.4,3.2C12.9,41.6,11.8,42,10.6,42z M10.6,40.5c0.9,0,1.6-0.3,2.2-0.9
	c0.6-0.6,0.9-1.3,0.9-2.1s-0.3-1.6-0.9-2.2c-0.6-0.6-1.3-0.9-2.2-0.9c-0.8,0-1.5,0.3-2.1,0.9c-0.6,0.6-0.9,1.3-0.9,2.1
	s0.3,1.6,0.9,2.1C9,40.2,9.7,40.5,10.6,40.5z M24,40.5c0.8,0,1.6-0.3,2.1-0.9c0.6-0.6,0.9-1.3,0.9-2.1s-0.3-1.6-0.9-2.2
	c-0.6-0.6-1.3-0.9-2.2-0.9c-0.8,0-1.5,0.3-2.1,0.9c-0.6,0.6-0.9,1.3-0.9,2.1s0.3,1.6,0.9,2.1C22.5,40.2,23.2,40.5,24,40.5z
	 M37.4,40.5c0.8,0,1.6-0.3,2.2-0.9c0.6-0.6,0.9-1.3,0.9-2.1s-0.3-1.6-0.9-2.2c-0.6-0.6-1.3-0.9-2.2-0.9c-0.8,0-1.5,0.3-2.1,0.9
	c-0.6,0.6-0.9,1.3-0.9,2.1s0.3,1.6,0.9,2.1C35.9,40.2,36.6,40.5,37.4,40.5z M24,13.6c0.8,0,1.6-0.3,2.2-0.9c0.6-0.6,0.9-1.3,0.9-2.1
	c0-0.9-0.3-1.6-0.9-2.2S24.9,7.5,24,7.5c-0.8,0-1.5,0.3-2.1,0.9S21,9.7,21,10.6c0,0.8,0.3,1.6,0.9,2.1C22.5,13.3,23.2,13.6,24,13.6z
	"/>
</svg>
