<?xml version="1.0" encoding="utf-8"?>
<!-- Generator: Adobe Illustrator 26.3.1, SVG Export Plug-In . SVG Version: 6.00 Build 0)  -->
<svg version="1.1" id="Слой_1" xmlns="http://www.w3.org/2000/svg" xmlns:xlink="http://www.w3.org/1999/xlink" x="0px" y="0px"
	 viewBox="0 0 48 48" style="enable-background:new 0 0 48 48;" xml:space="preserve">
<path d="M24.1,42c-1.3,0-2.3-0.4-3.2-1.3c-0.9-0.9-1.3-2-1.3-3.2c0-1.1,0.3-2.1,1-2.9c0.7-0.8,1.6-1.4,2.6-1.6V16.5L14,27.7
	c0.4,0.4,0.6,0.9,0.8,1.4s0.3,1,0.3,1.6c0,1.3-0.5,2.4-1.4,3.3c-0.9,0.9-2,1.3-3.2,1.3S8.2,34.9,7.3,34C6.4,33.1,6,32,6,30.7
	s0.4-2.4,1.3-3.3s2-1.3,3.2-1.3c0.4,0,0.9,0,1.2,0.1c0.4,0.1,0.7,0.2,1.1,0.5l9.7-11.8c-0.9-0.3-1.6-0.9-2.2-1.6
	c-0.6-0.8-0.9-1.7-0.9-2.7c0-1.3,0.4-2.4,1.3-3.2c1-1,2-1.4,3.3-1.4s2.4,0.4,3.3,1.3s1.3,2,1.3,3.2c0,1-0.3,1.9-0.9,2.7
	s-1.3,1.3-2.3,1.6l9.7,11.8c0.3-0.2,0.7-0.3,1.1-0.4c0.4-0.1,0.7-0.2,1.1-0.2c1.3,0,2.3,0.4,3.2,1.3s1.4,2,1.4,3.2
	c0,1.3-0.5,2.4-1.4,3.3c-0.9,0.9-2,1.3-3.2,1.3s-2.3-0.4-3.2-1.3c-0.9-0.9-1.3-2-1.3-3.3c0-0.6,0.1-1.1,0.3-1.6s0.5-1,0.8-1.4
	l-9.2-11.2v16.4c1.1,0.2,2,0.7,2.8,1.5c0.8,0.9,1.1,1.9,1.1,3c0,1.3-0.4,2.3-1.3,3.2C26.5,41.6,25.4,42,24.1,42z M24.1,40.4
	c0.8,0,1.6-0.3,2.1-0.9c0.6-0.6,0.9-1.3,0.9-2.1c0-0.9-0.3-1.6-0.9-2.2c-0.6-0.6-1.3-0.9-2.2-0.9c-0.8,0-1.6,0.3-2.2,0.9
	c-0.6,0.6-0.9,1.3-0.9,2.1s0.3,1.6,0.9,2.1C22.6,40.1,23.3,40.4,24.1,40.4z M10.6,33.7c0.9,0,1.6-0.3,2.2-0.9
	c0.6-0.6,0.9-1.3,0.9-2.1c0-0.9-0.3-1.6-0.9-2.1c-0.6-0.6-1.3-0.9-2.2-0.9c-0.8,0-1.5,0.3-2.1,0.9s-0.9,1.3-0.9,2.1
	c0,0.8,0.3,1.5,0.9,2.1C9,33.4,9.7,33.7,10.6,33.7z M37.4,33.7c0.8,0,1.6-0.3,2.2-0.9c0.6-0.6,0.9-1.3,0.9-2.1
	c0-0.9-0.3-1.6-0.9-2.1c-0.6-0.6-1.3-0.9-2.2-0.9c-0.8,0-1.5,0.3-2.1,0.9s-0.9,1.3-0.9,2.1c0,0.8,0.3,1.5,0.9,2.1
	C35.9,33.4,36.6,33.7,37.4,33.7z M24,13.6c0.8,0,1.6-0.3,2.2-0.9c0.6-0.6,0.9-1.3,0.9-2.1c0-0.9-0.3-1.6-0.9-2.2S24.9,7.5,24,7.5
	c-0.8,0-1.5,0.3-2.1,0.9S21,9.7,21,10.6c0,0.8,0.3,1.6,0.9,2.1C22.5,13.3,23.2,13.6,24,13.6z"/>
</svg>
