<?xml version="1.0" encoding="utf-8"?>
<!-- Generator: Adobe Illustrator 26.3.1, SVG Export Plug-In . SVG Version: 6.00 Build 0)  -->
<svg version="1.1" id="Слой_1" xmlns="http://www.w3.org/2000/svg" xmlns:xlink="http://www.w3.org/1999/xlink" x="0px" y="0px"
	 viewBox="0 0 48 48" style="enable-background:new 0 0 48 48;" xml:space="preserve">
<path d="M24,42c-1.2,0-2.3-0.4-3.2-1.3c-0.9-0.9-1.3-1.9-1.3-3.2c0-0.3,0-0.6,0.1-0.8c0-0.3,0.1-0.5,0.2-0.8l-5.7-3.2
	c-0.4,0.5-0.9,0.9-1.5,1.2s-1.3,0.5-2,0.5c-1.3,0-2.3-0.4-3.2-1.3c-1-1-1.4-2.1-1.4-3.3c0-1.3,0.4-2.3,1.3-3.2
	c0.9-0.9,1.9-1.3,3.2-1.3c0.7,0,1.5,0.2,2.1,0.5c0.7,0.3,1.2,0.8,1.6,1.4l7.3-3.7c-0.2-0.8-0.2-1.7,0-2.5s0.7-1.5,1.3-2.1l-2.7-4
	c-0.3,0.1-0.6,0.2-0.9,0.3s-0.6,0.1-1,0.1c-1.2,0-2.3-0.4-3.2-1.3c-0.9-0.9-1.3-2-1.3-3.2c0-1.3,0.4-2.3,1.3-3.2
	c0.9-0.9,2-1.3,3.2-1.3c1.3,0,2.3,0.4,3.2,1.3c0.9,0.9,1.4,2,1.4,3.2c0,0.6-0.1,1.3-0.4,1.8c-0.3,0.6-0.6,1.1-1,1.5l2.7,4
	c0.3-0.1,0.6-0.2,0.9-0.3c0.3-0.1,0.6-0.1,0.9-0.1c0.6,0,1.1,0.1,1.6,0.3c0.5,0.2,1,0.5,1.4,0.8l4.6-3.8c-0.2-0.3-0.3-0.7-0.5-1
	c-0.1-0.4-0.2-0.8-0.2-1.2c0-1.3,0.4-2.4,1.3-3.2c0.9-0.9,2-1.3,3.2-1.3c1.3,0,2.3,0.4,3.3,1.3c0.9,0.9,1.4,2,1.4,3.2
	c0,1.3-0.5,2.4-1.4,3.2c-0.9,0.9-2,1.3-3.3,1.3c-0.6,0-1.1-0.1-1.6-0.3c-0.5-0.2-0.9-0.5-1.3-0.8L29.8,20c0.2,0.3,0.4,0.7,0.5,1.1
	s0.1,0.8,0.1,1.2c0,1.3-0.5,2.4-1.4,3.3s-2,1.3-3.3,1.3c-0.8,0-1.5-0.2-2.1-0.5S22.4,25.6,22,25l-7.3,3.7c0.1,0.5,0.2,1,0.2,1.5
	s-0.1,1-0.3,1.5l5.6,3.2c0.4-0.5,1-0.9,1.6-1.2s1.3-0.5,2-0.5c1.3,0,2.3,0.4,3.2,1.3c0.9,0.9,1.4,2,1.4,3.2c0,1.3-0.5,2.3-1.4,3.2
	C26.4,41.6,25.3,42,24,42z M10.5,32.8c0.8,0,1.6-0.3,2.2-0.9c0.6-0.6,0.9-1.3,0.9-2.1c0-0.9-0.3-1.6-0.9-2.2
	c-0.6-0.6-1.3-0.9-2.2-0.9c-0.8,0-1.5,0.3-2.1,0.9s-0.9,1.3-0.9,2.2c0,0.8,0.3,1.6,0.9,2.1C9,32.5,9.7,32.8,10.5,32.8z M18.2,13.6
	c0.9,0,1.6-0.3,2.2-0.9c0.6-0.6,0.9-1.3,0.9-2.1c0-0.9-0.3-1.6-0.9-2.2s-1.3-0.9-2.2-0.9c-0.8,0-1.5,0.3-2.1,0.9s-0.9,1.3-0.9,2.1
	c0,0.8,0.3,1.6,0.9,2.1C16.7,13.3,17.4,13.6,18.2,13.6z M24,40.5c0.8,0,1.6-0.3,2.1-0.9c0.6-0.6,0.9-1.3,0.9-2.1s-0.3-1.6-0.9-2.2
	c-0.6-0.6-1.3-0.9-2.1-0.9c-0.8,0-1.6,0.3-2.1,0.9c-0.6,0.6-0.9,1.3-0.9,2.1s0.3,1.6,0.9,2.1C22.4,40.2,23.2,40.5,24,40.5z
	 M25.9,25.1c0.8,0,1.6-0.3,2.1-0.9c0.6-0.6,0.9-1.3,0.9-2.1c0-0.8-0.3-1.6-0.9-2.2S26.7,19,25.9,19c-0.8,0-1.5,0.3-2.1,0.9
	s-0.9,1.3-0.9,2.1c0,0.8,0.3,1.6,0.9,2.1C24.4,24.8,25.1,25.1,25.9,25.1z M37.4,15.6c0.9,0,1.6-0.3,2.2-0.9c0.6-0.6,0.9-1.3,0.9-2.1
	c0-0.9-0.3-1.6-0.9-2.2c-0.6-0.6-1.3-0.9-2.2-0.9c-0.8,0-1.5,0.3-2.1,0.9c-0.6,0.6-0.9,1.3-0.9,2.2c0,0.8,0.3,1.5,0.9,2.1
	C35.8,15.3,36.6,15.6,37.4,15.6z"/>
</svg>
