<?xml version="1.0" encoding="utf-8"?>
<!-- Generator: Adobe Illustrator 26.3.1, SVG Export Plug-In . SVG Version: 6.00 Build 0)  -->
<svg version="1.1" id="Слой_1" xmlns="http://www.w3.org/2000/svg" xmlns:xlink="http://www.w3.org/1999/xlink" x="0px" y="0px"
	 viewBox="0 0 48 48" style="enable-background:new 0 0 48 48;" xml:space="preserve">
<path d="M7.1,36.9v-1.5h10c-0.6-2.5-1.8-4.7-3.6-6.5s-3.9-3.1-6.3-3.7c0.6-0.1,1.1-0.2,1.7-0.3c0.5-0.1,1.1-0.1,1.7-0.1
	c3.8,0,7,1.1,9.6,3.2c2.6,2.2,3.9,5.1,3.9,8.9H7.1z M25.5,36.9c0-0.7-0.1-1.3-0.1-1.9c-0.1-0.6-0.2-1.2-0.4-1.8
	c1.1-2.4,2.7-4.4,4.9-6s4.7-2.4,7.7-2.4c0.6,0,1.2,0,1.7,0.1s1.1,0.2,1.7,0.3c-2.4,0.6-4.5,1.8-6.4,3.7c-1.8,1.9-3,4-3.6,6.5h10v1.5
	C40.9,36.9,25.5,36.9,25.5,36.9z M24.5,31.7c-0.4-2.3-0.4-4.5,0.1-6.5s1.3-3.8,2.5-5.3s2.6-2.7,4.3-3.6s3.6-1.4,5.7-1.6
	c-2.1,1.3-3.8,3-5.1,4.9s-2,3.9-2.3,5.8c-1.1,0.6-2.1,1.5-3.2,2.7C25.5,29.3,24.8,30.5,24.5,31.7z M22.8,28.9
	c-0.5-0.7-1.2-1.3-1.9-2c-0.8-0.7-1.5-1.2-2.3-1.6c0.1-0.3,0.2-0.8,0.3-1.3c0.1-0.5,0.1-1,0.1-1.4c0-2.1-0.3-4.2-1-6.1
	c-0.7-1.9-1.6-3.7-2.9-5.2c2.1,0.8,4,2.2,5.6,4.1c1.7,1.9,2.8,4.3,3.3,7.1c-0.4,0.9-0.7,2-0.9,3.1C22.9,26.8,22.8,27.9,22.8,28.9z"
	/>
</svg>
