<?xml version="1.0" encoding="utf-8"?>
<!-- Generator: Adobe Illustrator 26.3.1, SVG Export Plug-In . SVG Version: 6.00 Build 0)  -->
<svg version="1.1" id="Слой_1" xmlns="http://www.w3.org/2000/svg" xmlns:xlink="http://www.w3.org/1999/xlink" x="0px" y="0px"
	 viewBox="0 0 48 48" style="enable-background:new 0 0 48 48;" xml:space="preserve">
<path d="M42.5,44.8L37.8,40h-7.4v-7.4L28.8,31v9h-9.6v-9.6h9l-1.5-1.5h-7.4v-7.4L17.8,20v9H8v-9.7h8.9l-1.5-1.5H8v-7.4L3.7,6
	l1.2-1.2l38.8,38.8C43.6,43.6,42.5,44.8,42.5,44.8z M10.8,40c-0.7,0-1.4-0.3-1.9-0.8C8.3,38.6,8,38,8,37.2v-6.8h9.7V40H10.8z M40,35
	l-4.7-4.7H40V35z M33.8,28.8l-3.5-3.5v-6.2H40v9.7H33.8z M28.8,23.9l-4.7-4.7h4.7V23.9z M22.6,17.6l-3.4-3.4V8h9.6v9.6H22.6z
	 M30.3,17.6V8h6.9c0.7,0,1.4,0.3,1.9,0.8c0.6,0.6,0.9,1.2,0.9,2v6.8H30.3z M17.7,12.7L13,8h4.7V12.7z"/>
</svg>
