<?xml version="1.0" encoding="utf-8"?>
<!-- Generator: Adobe Illustrator 26.3.1, SVG Export Plug-In . SVG Version: 6.00 Build 0)  -->
<svg version="1.1" id="Слой_1" xmlns="http://www.w3.org/2000/svg" xmlns:xlink="http://www.w3.org/1999/xlink" x="0px" y="0px"
	 viewBox="0 0 48 48" style="enable-background:new 0 0 48 48;" xml:space="preserve">
<path d="M10.8,40h6.9v-9.6H8v6.8c0,0.7,0.3,1.4,0.8,1.9C9.4,39.7,10,40,10.8,40z M19.2,40h9.6v-9.6h-9.6V40z M30.3,40h6.9
	c0.7,0,1.4-0.3,1.9-0.8c0.6-0.6,0.8-1.2,0.8-1.9v-6.8h-9.7C30.3,30.4,30.3,40,30.3,40z M8,28.8h9.7v-9.7H8V28.8z M19.2,28.8h9.6
	v-9.7h-9.6C19.2,19.2,19.2,28.8,19.2,28.8z M30.3,28.8H40v-9.7h-9.7C30.3,19.2,30.3,28.8,30.3,28.8z M8,17.6h9.7V8h-6.9
	c-0.8,0-1.4,0.3-2,0.8C8.3,9.4,8,10,8,10.8V17.6z M19.2,17.6h9.6V8h-9.6V17.6z M30.3,17.6H40v-6.8c0-0.7-0.3-1.4-0.8-1.9
	C38.6,8.3,38,8,37.2,8h-6.9C30.3,8,30.3,17.6,30.3,17.6z"/>
</svg>
