<?xml version="1.0" encoding="utf-8"?>
<!-- Generator: Adobe Illustrator 26.3.1, SVG Export Plug-In . SVG Version: 6.00 Build 0)  -->
<svg version="1.1" id="Слой_1" xmlns="http://www.w3.org/2000/svg" xmlns:xlink="http://www.w3.org/1999/xlink" x="0px" y="0px"
	 viewBox="0 0 48 48" style="enable-background:new 0 0 48 48;" xml:space="preserve">
<path d="M10.6,38.5h26.8L31,32.2c-0.9,0.8-2,1.5-3.2,1.9c-1.2,0.5-2.5,0.7-3.8,0.7s-2.6-0.2-3.8-0.7c-1.2-0.5-2.3-1.1-3.2-2
	L10.6,38.5z M9.5,37.3l6.3-6.3c-0.8-0.9-1.5-2-1.9-3.2c-0.5-1.2-0.7-2.5-0.7-3.8s0.2-2.6,0.7-3.8c0.5-1.2,1.1-2.3,1.9-3.2l-6.3-6.4
	V37.3z M16.9,30l6-6L17,18c-0.7,0.8-1.2,1.7-1.6,2.8c-0.4,1-0.6,2.1-0.6,3.2s0.2,2.2,0.6,3.2C15.7,28.2,16.3,29.1,16.9,30z M24,33.2
	c1.1,0,2.2-0.2,3.2-0.6c1-0.4,1.9-0.9,2.8-1.6l-6-6l-6,6c0.8,0.7,1.7,1.2,2.7,1.6C21.8,33,22.9,33.2,24,33.2z M24,22.9l6-5.9
	c-0.8-0.7-1.7-1.2-2.8-1.6c-1-0.4-2.1-0.6-3.2-0.6s-2.2,0.2-3.2,0.6c-1,0.4-1.9,0.9-2.8,1.6L24,22.9z M31.1,30
	c0.7-0.8,1.2-1.7,1.6-2.8c0.4-1,0.6-2.1,0.6-3.2s-0.2-2.2-0.6-3.2c-0.4-1-0.9-1.9-1.6-2.8l-5.9,6L31.1,30z M38.5,37.3V10.6L32.1,17
	c0.8,0.9,1.5,2,1.9,3.2c0.5,1.2,0.7,2.5,0.7,3.8s-0.2,2.6-0.7,3.8c-0.4,1.2-1,2.3-1.8,3.2L38.5,37.3z M31,15.9l6.4-6.3H10.7l6.3,6.3
	c0.9-0.8,2-1.5,3.2-1.9c1.2-0.5,2.5-0.7,3.8-0.7c1.4,0,2.6,0.2,3.8,0.7C29,14.4,30.1,15,31,15.9z M10.8,40c-0.8,0-1.4-0.3-2-0.8
	C8.3,38.7,8,38,8,37.2V10.8c0-0.8,0.3-1.4,0.8-2C9.3,8.3,10,8,10.8,8h26.5c0.8,0,1.4,0.3,2,0.8c0.5,0.5,0.8,1.2,0.8,2v26.5
	c0,0.7-0.3,1.4-0.8,1.9s-1.2,0.8-2,0.8H10.8z"/>
</svg>
