<?xml version="1.0" encoding="utf-8"?>
<!-- Generator: Adobe Illustrator 26.3.1, SVG Export Plug-In . SVG Version: 6.00 Build 0)  -->
<svg version="1.1" id="Слой_1" xmlns="http://www.w3.org/2000/svg" xmlns:xlink="http://www.w3.org/1999/xlink" x="0px" y="0px"
	 viewBox="0 0 48 48" style="enable-background:new 0 0 48 48;" xml:space="preserve">
<path d="M13.4,41v-6.4H7v-1.5h6.4v-8.3H7v-1.5h6.4v-8.4H7v-1.5h6.4V7h1.5v6.3h8.3V7h1.5v6.3h8.4V7h1.5v6.3H41v1.5h-6.3v8.4H41v1.5
	h-6.3V33H41v1.5h-6.3V41h-1.5v-6.4h-8.4V41h-1.5v-6.4H15V41H13.4z M14.9,33.1h8.3v-8.3h-8.3C14.9,24.8,14.9,33.1,14.9,33.1z
	 M24.8,33.1h8.4v-8.3h-8.4C24.8,24.8,24.8,33.1,24.8,33.1z M14.9,23.2h8.3v-8.4h-8.3C14.9,14.9,14.9,23.2,14.9,23.2z M24.8,23.2h8.4
	v-8.4h-8.4C24.8,14.8,24.8,23.2,24.8,23.2z"/>
</svg>
