<?xml version="1.0" encoding="utf-8"?>
<!-- Generator: Adobe Illustrator 26.3.1, SVG Export Plug-In . SVG Version: 6.00 Build 0)  -->
<svg version="1.1" id="Слой_1" xmlns="http://www.w3.org/2000/svg" xmlns:xlink="http://www.w3.org/1999/xlink" x="0px" y="0px"
	 viewBox="0 0 48 48" style="enable-background:new 0 0 48 48;" xml:space="preserve">
<path d="M32.1,42c-2.8,0-5.1-1-7-2.8c-1.9-1.9-2.8-4.2-2.8-7s0.9-5.1,2.8-7s4.2-2.8,7-2.8s5.1,0.9,7,2.8s2.8,4.2,2.8,7s-1,5.1-2.8,7
	C37.2,41,34.9,42,32.1,42z M32.1,40.5c2.3,0,4.3-0.8,5.9-2.4c1.6-1.6,2.4-3.6,2.4-5.9c0-2.3-0.8-4.3-2.4-5.9
	c-1.6-1.6-3.6-2.4-5.9-2.4c-2.3,0-4.3,0.8-5.9,2.4s-2.4,3.6-2.4,5.9s0.8,4.3,2.4,5.9C27.9,39.7,29.9,40.5,32.1,40.5z M8.8,38
	c-0.8,0-1.4-0.3-2-0.8C6.3,36.7,6,36,6,35.2V20.9c0-0.3,0.1-0.7,0.2-1c0.1-0.4,0.2-0.7,0.4-1l4.7-10.3h-2c-0.4,0-0.7-0.1-0.9-0.3
	C8.1,8,8,7.7,8,7.3V7.2c0-0.4,0.1-0.7,0.3-0.9C8.5,6.1,8.8,6,9.2,6h11c0.4,0,0.7,0.1,0.9,0.3c0.2,0.2,0.3,0.5,0.3,0.9v0.1
	c0,0.4-0.1,0.7-0.3,0.9c-0.2,0.2-0.5,0.3-0.9,0.3h-2l5.7,12.9c-0.2,0.1-0.4,0.2-0.6,0.4c-0.2,0.2-0.4,0.4-0.6,0.6L16.5,8.5H13
	L7.5,20.3v14.9c0,0.4,0.1,0.7,0.3,0.9c0.2,0.2,0.5,0.3,0.9,0.3h10.6c0.1,0.3,0.2,0.5,0.3,0.8c0.1,0.3,0.2,0.5,0.3,0.7H8.8V38z
	 M32.1,19.3c-0.8-0.2-1.4-0.7-1.9-1.3c-0.5-0.6-0.7-1.4-0.7-2.2c0-0.9,0.2-1.6,0.7-2.2c0.5-0.6,1.1-1,1.9-1.3V19.3
	c0.2-0.8,0.7-1.4,1.3-1.9s1.4-0.7,2.2-0.7s1.6,0.2,2.2,0.7c0.6,0.5,1,1.1,1.3,1.9H32.1z"/>
</svg>
