<?xml version="1.0" encoding="utf-8"?>
<!-- Generator: Adobe Illustrator 26.3.1, SVG Export Plug-In . SVG Version: 6.00 Build 0)  -->
<svg version="1.1" id="Слой_1" xmlns="http://www.w3.org/2000/svg" xmlns:xlink="http://www.w3.org/1999/xlink" x="0px" y="0px"
	 viewBox="0 0 48 48" style="enable-background:new 0 0 48 48;" xml:space="preserve">
<path d="M42.5,44.8l-9.4-9.4v1.9h-28v-2.9c0-0.9,0.2-1.7,0.7-2.4s1.2-1.2,2.1-1.6c1.9-0.8,3.7-1.5,5.3-2s3.6-0.7,5.9-0.7
	c1.5,0,2.8,0.1,4,0.3c1.2,0.2,2.3,0.4,3.4,0.7l-6.1-6.1c-0.2,0-0.4,0.1-0.6,0.1s-0.4,0-0.6,0c-1.7,0-3-0.5-4.1-1.6s-1.6-2.5-1.6-4.1
	c0-0.2,0-0.4,0-0.6s0-0.4,0.1-0.6L3.8,6l1.1-1.1l38.8,38.8C43.6,43.6,42.5,44.8,42.5,44.8z M33.5,28.2c1.2,0.2,2.5,0.5,3.6,0.9
	c1.2,0.4,2.2,0.8,3.1,1.2c0.8,0.4,1.5,1,2,1.7c0.5,0.7,0.8,1.6,0.8,2.5v2.7h-0.8l-6-6c-0.3-0.7-0.7-1.2-1.1-1.7
	C34.6,28.9,34.1,28.5,33.5,28.2z M27,22c0.5-0.7,0.8-1.5,1.1-2.3c0.2-0.9,0.4-1.8,0.4-2.7c0-1.1-0.2-2.2-0.5-3.1
	c-0.4-0.9-0.8-1.8-1.4-2.6c0.1,0,0.1,0,0.2,0s0.2,0,0.2,0c1.7,0,3.1,0.5,4.1,1.6c1.1,1.1,1.6,2.5,1.6,4.2c0,1.5-0.5,2.8-1.4,3.9
	s-2.2,1.7-3.6,1.9C27.7,22.7,27,22,27,22z M24.4,19.4l-7.7-7.7c0.4-0.1,0.7-0.3,1.2-0.3c0.4-0.1,0.8-0.1,1.3-0.1
	c1.7,0,3.1,0.5,4.1,1.6c1.1,1.1,1.6,2.5,1.6,4.1c0,0.4,0,0.9-0.1,1.3C24.7,18.7,24.6,19.1,24.4,19.4z"/>
</svg>
