<?xml version="1.0" encoding="utf-8"?>
<!-- Generator: Adobe Illustrator 26.3.1, SVG Export Plug-In . SVG Version: 6.00 Build 0)  -->
<svg version="1.1" id="Слой_1" xmlns="http://www.w3.org/2000/svg" xmlns:xlink="http://www.w3.org/1999/xlink" x="0px" y="0px"
	 viewBox="0 0 48 48" style="enable-background:new 0 0 48 48;" xml:space="preserve">
<path d="M21.1,26c-0.5,0-0.9-0.2-1.2-0.5c-0.3-0.4-0.4-0.8-0.3-1.2l0.5-3c0.2-0.9,0.6-1.7,1.4-2.3c0.7-0.6,1.6-0.9,2.5-0.9
	s1.8,0.3,2.5,0.9s1.2,1.4,1.4,2.3l0.5,3c0.1,0.5,0,0.9-0.3,1.2c-0.3,0.4-0.7,0.5-1.2,0.5H21.1z M7.9,28.1c-0.5,0-1-0.1-1.3-0.3
	c-0.4-0.2-0.6-0.6-0.7-1c-0.1-0.2-0.1-0.4,0-0.6c0-0.2,0.1-0.4,0.2-0.6c0,0,0,0-0.1-0.1c-0.1,0-0.2-0.3-0.3-0.8c0-0.3,0-0.5,0.1-0.7
	s0.2-0.4,0.4-0.6c0,0,0,0,0.1-0.1c0-0.4,0.2-0.8,0.5-1c0.2-0.3,0.6-0.5,1-0.5c0,0,0.2,0,0.6,0.1h0.1c0.1-0.1,0.2-0.2,0.4-0.2
	c0.2-0.1,0.3-0.1,0.5-0.1c0.3,0,0.5,0,0.7,0.1s0.3,0.2,0.5,0.4l0,0l0,0c0.3,0,0.6,0.1,0.8,0.3c0.2,0.2,0.4,0.4,0.5,0.7
	c0,0.2,0,0.3,0,0.5c0,0.1,0,0.2-0.1,0.4c0,0,0,0.1,0.1,0.1c0.2,0.2,0.3,0.3,0.3,0.5c0.1,0.2,0.1,0.4,0.1,0.6c0,0-0.1,0.2-0.2,0.7
	c0,0,0,0.1,0,0.2c0.1,0.1,0.1,0.3,0.1,0.5c0,0.5-0.2,0.8-0.6,1.2c-0.4,0.3-0.8,0.5-1.4,0.5C10.4,28.1,7.9,28.1,7.9,28.1z M39.2,28.2
	c-0.7,0-1.3-0.3-1.9-0.8c-0.5-0.5-0.8-1.1-0.8-1.9c0-0.2,0-0.5,0.1-0.7s0.2-0.5,0.3-0.7L36,23.3c-0.2-0.2-0.3-0.4-0.1-0.6
	c0.1-0.2,0.3-0.4,0.6-0.4h2.6c0.7,0,1.3,0.3,1.9,0.8c0.5,0.5,0.8,1.1,0.8,1.9v0.6c0,0.7-0.3,1.3-0.8,1.8
	C40.6,28,39.9,28.2,39.2,28.2z M2,35.2v-1.5c0-1.2,0.6-2.1,1.9-2.9s2.9-1.2,4.9-1.1c0.4,0,0.7,0,1.1,0c0.3,0,0.7,0.1,1,0.1
	c-0.2,0.4-0.3,0.9-0.4,1.4c-0.1,0.5-0.2,1-0.2,1.6v2.4C10.2,35.2,2,35.2,2,35.2z M14,35.2V33c0-1.7,0.9-3,2.8-3.9
	c1.8-1,4.3-1.5,7.2-1.5c3,0,5.4,0.5,7.2,1.5c1.8,1,2.7,2.3,2.7,3.9v2.2H14z M39.2,29.6c2.1,0,3.7,0.4,4.9,1.1
	c1.2,0.8,1.8,1.7,1.8,2.9v1.5h-8.2v-2.4c0-0.5,0-1.1-0.1-1.6s-0.2-1-0.5-1.4c0.3-0.1,0.6-0.1,1-0.1C38.5,29.6,38.9,29.6,39.2,29.6z"
	/>
</svg>
