<?xml version="1.0" encoding="utf-8"?>
<!-- Generator: Adobe Illustrator 26.3.1, SVG Export Plug-In . SVG Version: 6.00 Build 0)  -->
<svg version="1.1" id="Слой_1" xmlns="http://www.w3.org/2000/svg" xmlns:xlink="http://www.w3.org/1999/xlink" x="0px" y="0px"
	 viewBox="0 0 48 48" style="enable-background:new 0 0 48 48;" xml:space="preserve">
<path d="M5.1,37.2v-2.9c0-0.9,0.2-1.7,0.7-2.4c0.5-0.7,1.2-1.2,2.1-1.6c1.9-0.8,3.7-1.5,5.3-2s3.6-0.7,5.9-0.7s4.3,0.2,5.9,0.7
	c1.6,0.5,3.4,1.1,5.3,2c0.9,0.4,1.5,0.9,2,1.6c0.5,0.7,0.7,1.5,0.7,2.4v2.9H5.1z M36.7,37.2v-2.8c0-1.5-0.3-2.7-0.9-3.7
	c-0.6-1-1.4-1.9-2.3-2.6c1.2,0.2,2.5,0.5,3.6,0.9c1.2,0.4,2.2,0.8,3.1,1.2c0.8,0.4,1.4,1,1.9,1.7s0.8,1.5,0.8,2.5v2.8H36.7z
	 M19.1,22.8c-1.6,0-3-0.5-4.1-1.6s-1.6-2.5-1.6-4.1c0-1.7,0.5-3.1,1.6-4.1c1.1-1.1,2.5-1.6,4.1-1.6c1.7,0,3.1,0.5,4.1,1.6
	c1.1,1.1,1.6,2.5,1.6,4.1s-0.5,3-1.6,4.1C22.2,22.2,20.8,22.8,19.1,22.8z M32.7,17c0,1.6-0.5,3-1.6,4.1s-2.5,1.6-4.1,1.6
	c-0.1,0-0.2,0-0.2,0c-0.1,0-0.1,0-0.2-0.1c0.6-0.7,1.1-1.6,1.4-2.5c0.3-1,0.5-2,0.5-3.2c0-1.1-0.2-2.2-0.5-3.1
	c-0.4-0.9-0.8-1.8-1.4-2.6c0.1,0,0.1,0,0.2,0s0.2,0,0.2,0c1.7,0,3.1,0.5,4.1,1.6C32.2,13.9,32.7,15.3,32.7,17z"/>
</svg>
