<?xml version="1.0" encoding="utf-8"?>
<!-- Generator: Adobe Illustrator 26.3.1, SVG Export Plug-In . SVG Version: 6.00 Build 0)  -->
<svg version="1.1" id="Слой_1" xmlns="http://www.w3.org/2000/svg" xmlns:xlink="http://www.w3.org/1999/xlink" x="0px" y="0px"
	 viewBox="0 0 48 48" style="enable-background:new 0 0 48 48;" xml:space="preserve">
<path d="M24.8,22.6c0.7-0.8,1.2-1.6,1.4-2.6c0.3-0.9,0.4-1.9,0.4-3s-0.1-2.1-0.4-3s-0.7-1.8-1.4-2.6c1.8-0.3,3.3,0.1,4.5,1.2
	c1.3,1.1,1.9,2.5,1.9,4.4s-0.6,3.3-1.9,4.4C28.1,22.4,26.5,22.8,24.8,22.6z M34.7,37.2v-2.8c0-1.2-0.3-2.4-0.8-3.4
	c-0.5-1.1-1.4-1.9-2.8-2.6c3.3,0.5,5.6,1.2,7,2.2s2.1,2.3,2.1,3.8v2.8H34.7z M44.6,20.3H34.2v-1.5h10.5v1.5H44.6z M17.3,22.8
	c-1.7,0-3.1-0.5-4.1-1.6c-1.1-1.1-1.6-2.5-1.6-4.1c0-1.7,0.5-3.1,1.6-4.1s2.5-1.6,4.1-1.6s3,0.5,4.1,1.6s1.6,2.5,1.6,4.1
	s-0.5,3-1.6,4.1C20.3,22.2,18.9,22.8,17.3,22.8z M3.4,37.2v-2.9c0-0.8,0.2-1.6,0.7-2.3s1.2-1.3,2-1.7c2-0.9,4-1.6,5.7-2
	c1.8-0.4,3.6-0.7,5.4-0.7s3.6,0.2,5.4,0.7c1.8,0.4,3.7,1.1,5.7,2c0.8,0.4,1.5,0.9,2,1.7c0.5,0.7,0.8,1.5,0.8,2.3v2.9
	C31.2,37.2,3.4,37.2,3.4,37.2z"/>
</svg>
