<?xml version="1.0" encoding="utf-8"?>
<!-- Generator: Adobe Illustrator 26.3.1, SVG Export Plug-In . SVG Version: 6.00 Build 0)  -->
<svg version="1.1" id="Слой_1" xmlns="http://www.w3.org/2000/svg" xmlns:xlink="http://www.w3.org/1999/xlink" x="0px" y="0px"
	 viewBox="0 0 48 48" style="enable-background:new 0 0 48 48;" xml:space="preserve">
<path d="M8.8,28.3l3-3l-3-3l-3,3L8.8,28.3z M36,28l3.2-5.2l3.3,5.2H36z M24,26c-1.2,0-2.3-0.4-3.1-1.3c-0.9-0.9-1.3-1.9-1.3-3.1
	s0.4-2.3,1.3-3.1c0.9-0.8,1.9-1.3,3.1-1.3s2.3,0.4,3.1,1.3c0.8,0.8,1.3,1.9,1.3,3.1s-0.4,2.3-1.3,3.1C26.3,25.6,25.3,26,24,26z
	 M2,35.2v-1.5c0-1.2,0.6-2.1,1.9-2.9s2.9-1.2,4.9-1.1c0.4,0,0.7,0,1.1,0c0.3,0,0.7,0.1,1,0.1c-0.2,0.4-0.3,0.9-0.4,1.4
	c-0.1,0.5-0.2,1-0.2,1.6v2.4C10.2,35.2,2,35.2,2,35.2z M14,35.2V33c0-1.7,0.9-3,2.8-3.9c1.8-1,4.3-1.5,7.2-1.5c3,0,5.4,0.5,7.2,1.5
	c1.8,1,2.7,2.3,2.7,3.9v2.2H14z M39.2,29.6c2.1,0,3.7,0.4,4.9,1.1c1.2,0.8,1.8,1.7,1.8,2.9v1.5h-8.2v-2.4c0-0.5,0-1.1-0.1-1.6
	s-0.2-1-0.5-1.4c0.3-0.1,0.6-0.1,1-0.1C38.5,29.6,38.9,29.6,39.2,29.6z"/>
</svg>
