<?xml version="1.0" encoding="utf-8"?>
<!-- Generator: Adobe Illustrator 26.3.1, SVG Export Plug-In . SVG Version: 6.00 Build 0)  -->
<svg version="1.1" id="Слой_1" xmlns="http://www.w3.org/2000/svg" xmlns:xlink="http://www.w3.org/1999/xlink" x="0px" y="0px"
	 viewBox="0 0 48 48" style="enable-background:new 0 0 48 48;" xml:space="preserve">
<path d="M19.1,22.8c-1.6,0-3-0.5-4.1-1.6s-1.6-2.5-1.6-4.1c0-1.7,0.5-3.1,1.6-4.1c1.1-1.1,2.5-1.6,4.1-1.6c1.7,0,3.1,0.5,4.1,1.6
	c1.1,1.1,1.6,2.5,1.6,4.1s-0.5,3-1.6,4.1C22.2,22.2,20.8,22.8,19.1,22.8z M33.6,38.5c1.4,0,2.5-0.5,3.4-1.4c0.9-1,1.4-2.1,1.4-3.4
	c0-1.4-0.5-2.5-1.4-3.4s-2.1-1.4-3.4-1.4c-1.4,0-2.5,0.5-3.4,1.4s-1.4,2.1-1.4,3.4c0,1.4,0.5,2.5,1.4,3.4
	C31.1,38,32.3,38.5,33.6,38.5z M42.6,43.4l-4.9-4.9c-0.6,0.5-1.2,0.9-1.9,1.1c-0.7,0.2-1.4,0.4-2.2,0.4c-1.8,0-3.3-0.6-4.5-1.9
	c-1.2-1.2-1.9-2.7-1.9-4.5s0.6-3.3,1.9-4.5c1.2-1.2,2.7-1.9,4.5-1.9s3.3,0.6,4.5,1.9c1.2,1.2,1.9,2.7,1.9,4.5c0,0.7-0.1,1.4-0.4,2.1
	c-0.2,0.7-0.6,1.3-1,1.8l4.9,4.9C43.5,42.4,42.6,43.4,42.6,43.4z M5.1,37.2v-2.9c0-0.9,0.2-1.7,0.7-2.4c0.5-0.7,1.2-1.2,2.1-1.6
	c1.9-0.8,3.7-1.5,5.3-2s3.6-0.7,5.9-0.7c1,0,1.9,0,2.7,0.1c0.8,0.1,1.7,0.3,2.5,0.5c-0.5,0.8-0.8,1.7-1,2.6S23,32.6,23,33.5
	c0,0.6,0.1,1.2,0.2,1.8s0.3,1.2,0.5,1.8H5.1V37.2z M32.7,17c0,1.6-0.5,3-1.6,4.1s-2.5,1.6-4.1,1.6c-0.1,0-0.2,0-0.2,0
	c-0.1,0-0.1,0-0.2-0.1c0.6-0.7,1.1-1.6,1.4-2.5c0.3-1,0.5-2,0.5-3.2c0-1.1-0.2-2.2-0.5-3.1c-0.4-0.9-0.8-1.8-1.4-2.6
	c0.1,0,0.1,0,0.2,0s0.2,0,0.2,0c1.7,0,3.1,0.5,4.1,1.6C32.2,13.9,32.7,15.3,32.7,17z"/>
</svg>
