<?xml version="1.0" encoding="utf-8"?>
<!-- Generator: Adobe Illustrator 26.3.1, SVG Export Plug-In . SVG Version: 6.00 Build 0)  -->
<svg version="1.1" id="Слой_1" xmlns="http://www.w3.org/2000/svg" xmlns:xlink="http://www.w3.org/1999/xlink" x="0px" y="0px"
	 viewBox="0 0 48 48" style="enable-background:new 0 0 48 48;" xml:space="preserve">
<path d="M24,44c-5.6,0-10.4-1-14.2-3C5.9,39,4,36.5,4,33.6c0-2.1,1-4,3-5.6s4.9-2.7,8.5-3.4v1.5c-3.1,0.6-5.5,1.5-7.3,2.8
	s-2.7,2.9-2.7,4.6c0,2.4,1.8,4.4,5.5,6.2s8,2.7,13,2.7s9.3-0.9,13-2.7s5.5-3.8,5.5-6.2c0-1.7-0.9-3.3-2.7-4.6
	c-1.8-1.3-4.2-2.3-7.3-2.8v-1.5c3.6,0.7,6.4,1.8,8.5,3.4c2,1.6,3.1,3.4,3.1,5.6c0,2.9-1.9,5.4-5.8,7.4C34.4,43,29.7,44,24,44z
	 M19.8,35.8v-22H10v-1.5h28v1.5h-9.8v22h-1.5v-10h-5.2v10C21.4,35.8,19.8,35.8,19.8,35.8z M24,9.4c-0.7,0-1.4-0.3-1.9-0.8
	s-0.8-1.2-0.8-1.9s0.3-1.4,0.8-1.9C22.6,4.2,23.2,4,24,4c0.7,0,1.4,0.3,1.9,0.8s0.8,1.2,0.8,1.9s-0.3,1.4-0.8,1.9S24.8,9.4,24,9.4z"
	/>
</svg>
