<?xml version="1.0" encoding="utf-8"?>
<!-- Generator: Adobe Illustrator 26.3.1, SVG Export Plug-In . SVG Version: 6.00 Build 0)  -->
<svg version="1.1" id="Слой_1" xmlns="http://www.w3.org/2000/svg" xmlns:xlink="http://www.w3.org/1999/xlink" x="0px" y="0px"
	 viewBox="0 0 48 48" style="enable-background:new 0 0 48 48;" xml:space="preserve">
<path d="M19.7,40.8L19,39.5c-0.2-0.5-0.4-1-0.5-1.5s-0.2-1-0.2-1.6c0-0.7,0.1-1.3,0.3-2c0.2-0.6,0.5-1.2,0.9-1.8
	c0.3-0.5,0.6-1,0.7-1.5c0.2-0.5,0.3-1.1,0.3-1.7s-0.1-1.2-0.3-1.7c-0.2-0.6-0.5-1.1-0.8-1.7c-0.2-0.6-0.5-1.1-0.7-1.7
	s-0.3-1.2-0.3-1.8v-6.3c0-1.1-0.3-2.1-1-3c-0.7-0.8-1.5-1.3-2.6-1.3c-0.9,0-1.8,0.3-2.5,0.8s-1.1,1.2-1.2,2c1.1,0.3,2.1,0.8,2.8,1.7
	c0.7,0.9,1.1,1.9,1.1,3.1c0,1.4-0.5,2.6-1.5,3.6s-2.2,1.5-3.5,1.5s-2.6-0.5-3.5-1.5c-1-1-1.5-2.2-1.5-3.5s0.4-2.5,1.3-3.4
	s1.9-1.5,3.2-1.6c0.1-1.2,0.7-2.3,1.7-3.1s2.2-1.2,3.5-1.2c0.1,0,0.3,0,0.4,0c0.1,0,0.3,0,0.4,0.1c1.3-0.8,2.6-1.3,4-1.6
	c1.5-0.1,3-0.3,4.5-0.3s3,0.2,4.4,0.5c1.5,0.3,2.8,0.8,4.1,1.6c0.1,0,0.2,0,0.4-0.1c0.1,0,0.3,0,0.4,0c1.3,0,2.4,0.4,3.4,1.2
	s1.6,1.8,1.7,3c1.3,0.1,2.4,0.7,3.2,1.6c0.9,0.9,1.3,2.1,1.3,3.4c0,1.4-0.5,2.6-1.5,3.5c-1,1-2.2,1.5-3.5,1.5
	c-1.4,0-2.6-0.5-3.5-1.5s-1.5-2.2-1.5-3.5c0-1.2,0.4-2.3,1.1-3.2c0.7-0.9,1.7-1.5,2.8-1.7c-0.1-0.9-0.5-1.5-1.2-2S34.1,12,33.2,12
	c-1.1,0-2,0.4-2.6,1.3c-0.7,0.8-1,1.8-1,3v6.3c0,0.6-0.1,1.2-0.3,1.8c-0.2,0.6-0.4,1.1-0.7,1.7c-0.3,0.6-0.5,1.1-0.7,1.7
	s-0.3,1.1-0.3,1.7s0.1,1.1,0.3,1.7c0.2,0.6,0.4,1.1,0.7,1.5c0.4,0.5,0.7,1.1,0.9,1.8s0.3,1.3,0.3,1.9c0,0.5-0.1,1.1-0.2,1.6
	s-0.3,1-0.5,1.5l-0.7,1.4L27,40.2l0.7-1.4c0.2-0.4,0.3-0.7,0.5-1.1c0.1-0.4,0.2-0.8,0.2-1.2c0-0.5-0.1-1-0.2-1.5s-0.4-1-0.7-1.4
	c-0.4-0.6-0.7-1.2-0.9-1.8C26.1,31,26,30.3,26,29.6c0-0.7,0.1-1.3,0.3-1.9c0.2-0.6,0.5-1.2,0.7-1.8c0.2-0.5,0.5-1,0.7-1.6
	c0.2-0.5,0.3-1.1,0.3-1.7v-6.3c0-1,0.2-2,0.7-2.9s1.1-1.6,1.9-2.1c-1-0.5-2.1-0.8-3.2-1S25.2,10,24,10c-1.1,0-2.3,0.1-3.4,0.3
	s-2.2,0.5-3.2,1c0.8,0.5,1.4,1.2,1.8,2.1c0.5,0.9,0.7,1.8,0.7,2.9v6.3c0,0.6,0.1,1.2,0.3,1.7c0.2,0.5,0.4,1.1,0.7,1.6
	c0.3,0.6,0.5,1.2,0.7,1.8c0.2,0.6,0.3,1.2,0.3,1.9c0,0.7-0.1,1.4-0.3,2.1c-0.2,0.7-0.5,1.3-0.9,1.9C20.4,34,20.2,34.5,20,35
	s-0.2,1-0.2,1.5c0,0.4,0.1,0.8,0.2,1.2s0.2,0.8,0.4,1.1l0.7,1.4C21.1,40.1,19.7,40.8,19.7,40.8z"/>
</svg>
