<?xml version="1.0" encoding="utf-8"?>
<!-- Generator: Adobe Illustrator 26.3.1, SVG Export Plug-In . SVG Version: 6.00 Build 0)  -->
<svg version="1.1" id="Слой_1" xmlns="http://www.w3.org/2000/svg" xmlns:xlink="http://www.w3.org/1999/xlink" x="0px" y="0px"
	 viewBox="0 0 48 48" style="enable-background:new 0 0 48 48;" xml:space="preserve">
<path d="M9.9,43v-9.6h3.6V43C13.6,43,9.9,43,9.9,43z M20.1,43V16.8c-2.2,0.7-3.8,1.7-5.1,3.1c-1.2,1.4-1.9,3.4-2.2,5.9h-1.5
	c0.2-3.6,1.5-6.2,3.7-8.1c2.3-1.8,5.3-2.8,9-2.8c3.6,0,6.4-0.5,8.4-1.5s3-3.2,3.2-6.6h1.5c-0.1,2.9-0.9,5.2-2.4,6.8
	s-3.7,2.5-6.6,2.7V43h-1.5V30.9h-5V43H20.1z M24.1,11.2c-0.9,0-1.7-0.3-2.3-0.9c-0.6-0.6-0.9-1.4-0.9-2.3s0.3-1.7,0.9-2.3
	s1.4-0.9,2.3-0.9s1.7,0.3,2.3,0.9C27,6.3,27.3,7.1,27.3,8s-0.3,1.7-0.9,2.3C25.7,10.9,25,11.2,24.1,11.2z"/>
</svg>
