<?xml version="1.0" encoding="utf-8"?>
<!-- Generator: Adobe Illustrator 26.3.1, SVG Export Plug-In . SVG Version: 6.00 Build 0)  -->
<svg version="1.1" id="Слой_1" xmlns="http://www.w3.org/2000/svg" xmlns:xlink="http://www.w3.org/1999/xlink" x="0px" y="0px"
	 viewBox="0 0 48 48" style="enable-background:new 0 0 48 48;" xml:space="preserve">
<path d="M17.5,12.6L16,11.1V9.9c0-0.2,0.1-0.4,0.2-0.6c0.1-0.1,0.3-0.2,0.6-0.2s0.4,0.1,0.6,0.2c0.1,0.1,0.2,0.3,0.2,0.6
	C17.5,9.9,17.5,12.6,17.5,12.6z M25,20.1l-1.5-1.5V5.9c0-0.2,0.1-0.4,0.2-0.6c0.1-0.1,0.3-0.2,0.6-0.2s0.4,0.1,0.6,0.2
	C25,5.5,25,5.7,25,5.9V20.1z M22.3,43c-0.8,0-1.5-0.2-2.2-0.6c-0.7-0.4-1.3-0.9-1.8-1.5L7,27.7l0.3-0.5c0.5-0.5,1-0.8,1.7-0.9
	s1.3,0,1.8,0.3l5.2,3.1V18.2L3.8,6l1.1-1.1l38.8,38.8l-1.1,1.1l-4.2-4.2c-0.6,0.7-1.4,1.3-2.2,1.8c-0.9,0.4-1.9,0.6-2.9,0.6
	C33.3,43,22.3,43,22.3,43z M43,11.3c0-1.5-0.5-2.8-1.6-3.9S39,5.8,37.5,5.8V4.2c2,0,3.6,0.7,5,2.1s2.1,3,2.1,5
	C44.6,11.3,43,11.3,43,11.3z M12.1,43.5c-2.1,0-3.9-0.7-5.4-2.2S4.5,38,4.5,35.9H6c0,1.7,0.6,3.1,1.8,4.3C9,41.4,10.4,42,12.1,42
	V43.5z M40,35L27.9,22.9H31v-15c0-0.2,0.1-0.4,0.2-0.6c0.1-0.1,0.3-0.2,0.6-0.2c0.2,0,0.4,0.1,0.6,0.2c0.1,0.1,0.2,0.3,0.2,0.6v15
	h5.9V10.8c0-0.2,0.1-0.4,0.2-0.6c0.1-0.1,0.3-0.2,0.6-0.2s0.4,0.1,0.6,0.2c0.1,0.1,0.2,0.3,0.2,0.6V35H40z"/>
</svg>
