<?xml version="1.0" encoding="utf-8"?>
<!-- Generator: Adobe Illustrator 26.3.1, SVG Export Plug-In . SVG Version: 6.00 Build 0)  -->
<svg version="1.1" id="Слой_1" xmlns="http://www.w3.org/2000/svg" xmlns:xlink="http://www.w3.org/1999/xlink" x="0px" y="0px"
	 viewBox="0 0 48 48" style="enable-background:new 0 0 48 48;" xml:space="preserve">
<path d="M12.1,43.5c-2.1,0-3.9-0.7-5.4-2.2S4.5,38,4.5,35.9H6c0,1.7,0.6,3.1,1.8,4.3C9,41.4,10.4,42,12.1,42V43.5z M21.8,43
	c-0.8,0-1.5-0.2-2.2-0.5c-0.7-0.4-1.3-0.9-1.7-1.6L5.6,22.8l0.3-0.3c0.4-0.3,0.8-0.5,1.4-0.6c0.5-0.1,1.1,0.1,1.6,0.5l7.1,5.1V9.9
	c0-0.2,0.1-0.4,0.2-0.5s0.3-0.2,0.6-0.2c0.2,0,0.4,0.1,0.5,0.2c0.1,0.1,0.2,0.3,0.2,0.5V23h6V5.9c0-0.2,0.1-0.4,0.2-0.5
	s0.3-0.2,0.6-0.2c0.2,0,0.4,0.1,0.5,0.2C25,5.5,25,5.7,25,5.9V23h6V7.9c0-0.2,0.1-0.4,0.2-0.5s0.3-0.2,0.6-0.2
	c0.2,0,0.4,0.1,0.5,0.2c0.1,0.1,0.2,0.3,0.2,0.5V23h5.9V10.8c0-0.2,0.1-0.4,0.2-0.5c0.1-0.1,0.3-0.2,0.6-0.2c0.2,0,0.4,0.1,0.5,0.2
	c0.1,0.1,0.2,0.3,0.2,0.5v25.5c0,1.9-0.7,3.5-2,4.8s-2.9,2-4.8,2L21.8,43L21.8,43z M43,11.3c0-1.5-0.5-2.8-1.6-3.9S39,5.8,37.5,5.8
	V4.2c2,0,3.6,0.7,5,2.1s2.1,3,2.1,5C44.6,11.3,43,11.3,43,11.3z"/>
</svg>
