<?xml version="1.0" encoding="utf-8"?>
<!-- Generator: Adobe Illustrator 26.3.1, SVG Export Plug-In . SVG Version: 6.00 Build 0)  -->
<svg version="1.1" id="Слой_1" xmlns="http://www.w3.org/2000/svg" xmlns:xlink="http://www.w3.org/1999/xlink" x="0px" y="0px"
	 viewBox="0 0 48 48" style="enable-background:new 0 0 48 48;" xml:space="preserve">
<path d="M37.2,42c-0.2,0-0.4,0-0.5-0.1c-0.2-0.1-0.3-0.2-0.4-0.3L25.4,30.7c-0.1-0.1-0.3-0.3-0.3-0.4C25,30.1,25,30,25,29.8
	s0-0.4,0.1-0.5c0.1-0.2,0.2-0.3,0.3-0.4l3.3-3.3c0.1-0.1,0.3-0.3,0.4-0.3c0.2-0.1,0.3-0.1,0.5-0.1s0.3,0,0.5,0.1s0.3,0.2,0.5,0.3
	l10.8,10.8c0.1,0.1,0.2,0.3,0.3,0.4c0.1,0.2,0.1,0.3,0.1,0.5s0,0.4-0.1,0.5c-0.1,0.2-0.2,0.3-0.3,0.4l-3.3,3.3
	c-0.1,0.1-0.3,0.2-0.4,0.3C37.5,41.9,37.4,42,37.2,42z M10.8,42c-0.2,0-0.4,0-0.5-0.1c-0.2-0.1-0.3-0.2-0.4-0.3l-3.3-3.3
	c-0.1-0.1-0.2-0.3-0.3-0.4c-0.1-0.2-0.1-0.3-0.1-0.5s0-0.4,0.1-0.5c0.1-0.2,0.2-0.3,0.3-0.5l10.6-10.6h4.2l1.6-1.6l-8.7-8.7h-2.9
	l-5.1-5.1l4-4l5.1,5.1v2.9l8.7,8.7l6.3-6.3l-4.2-4.2l2.3-2.3H24l-0.6-0.6l5.4-5.4l0.6,0.6v4.6l2.3-2.3l8.6,8.5
	c0.4,0.4,0.8,0.9,1,1.5c0.2,0.6,0.3,1.2,0.3,1.8c0,0.4-0.1,0.8-0.2,1.3c-0.1,0.4-0.3,0.8-0.5,1.2l-4.1-4.1L34,20.2l-2.4-2.4
	l-9.1,9.1V31L11.8,41.5c-0.1,0.1-0.3,0.2-0.4,0.3C11.2,41.9,11,42,10.8,42z"/>
</svg>
