<?xml version="1.0" encoding="utf-8"?>
<!-- Generator: Adobe Illustrator 26.3.1, SVG Export Plug-In . SVG Version: 6.00 Build 0)  -->
<svg version="1.1" id="Слой_1" xmlns="http://www.w3.org/2000/svg" xmlns:xlink="http://www.w3.org/1999/xlink" x="0px" y="0px"
	 viewBox="0 0 48 48" style="enable-background:new 0 0 48 48;" xml:space="preserve">
<path d="M23.6,41.4c-0.5,0-0.9-0.2-1.3-0.5s-0.6-0.8-0.6-1.3c0-0.3,0.1-0.6,0.2-0.9c0.1-0.3,0.3-0.6,0.5-0.8l7.4-7.4l-0.9-0.9
	L21.5,37c-0.2,0.2-0.5,0.4-0.8,0.5s-0.6,0.2-0.9,0.2c-0.5,0-1-0.2-1.3-0.5S18,36.3,18,35.8c0-0.3,0.1-0.6,0.2-0.9
	c0.1-0.3,0.3-0.5,0.5-0.7l7.4-7.4l-0.9-0.9l-7.4,7.4c-0.2,0.2-0.4,0.4-0.7,0.5c-0.3,0.1-0.6,0.2-0.9,0.2c-0.5,0-0.9-0.2-1.3-0.5
	c-0.4-0.4-0.5-0.8-0.5-1.3c0-0.3,0.1-0.6,0.2-0.9c0.1-0.3,0.3-0.5,0.5-0.8l6.9-6.9l-0.9-0.9L14,29.5c-0.2,0.2-0.4,0.4-0.7,0.5
	s-0.6,0.2-0.9,0.2c-0.5,0-1-0.2-1.3-0.5s-0.5-0.8-0.5-1.3c0-0.3,0.1-0.6,0.2-0.9c0.1-0.3,0.3-0.5,0.5-0.7l9.9-9.9l3.8,3.7
	c0.4,0.4,0.8,0.6,1.2,0.8c0.4,0.2,0.9,0.3,1.5,0.3c1,0,1.8-0.3,2.4-0.9s0.9-1.4,0.9-2.4c0-0.5-0.1-0.9-0.3-1.4
	c-0.2-0.4-0.5-0.9-0.9-1.2l-5.3-5.3l2.1-2.1c0.4-0.4,1-0.8,1.6-1C28.7,7.1,29.3,7,29.9,7c0.7,0,1.3,0.1,1.9,0.4
	c0.6,0.2,1.2,0.6,1.6,1L42,17c0.4,0.4,0.8,0.9,1,1.5s0.4,1.3,0.4,2s-0.1,1.3-0.4,1.9c-0.2,0.6-0.6,1.1-1,1.5L25.2,40.7
	c-0.2,0.2-0.5,0.4-0.8,0.5C24.2,41.4,23.9,41.4,23.6,41.4z M9,27l-2.7-2.7c-0.6-0.6-1-1.2-1.3-2S4.6,20.7,4.6,20
	c0-0.8,0.1-1.5,0.4-2.1s0.6-1.2,1-1.6l7.9-7.9c0.4-0.4,0.9-0.8,1.4-1C15.8,7.1,16.4,7,17,7c0.7,0,1.3,0.1,1.8,0.4
	c0.6,0.2,1.1,0.6,1.5,1l8.3,8.3c0.2,0.2,0.4,0.5,0.6,0.8c0.1,0.3,0.2,0.6,0.2,0.8c0,0.6-0.2,1.1-0.5,1.5c-0.4,0.4-0.8,0.6-1.5,0.6
	c-0.3,0-0.6-0.1-0.9-0.2s-0.6-0.3-0.9-0.6L21,15L9,27z"/>
</svg>
