<?xml version="1.0" encoding="utf-8"?>
<!-- Generator: Adobe Illustrator 26.3.1, SVG Export Plug-In . SVG Version: 6.00 Build 0)  -->
<svg version="1.1" id="Слой_1" xmlns="http://www.w3.org/2000/svg" xmlns:xlink="http://www.w3.org/1999/xlink" x="0px" y="0px"
	 viewBox="0 0 48 48" style="enable-background:new 0 0 48 48;" xml:space="preserve">
<path d="M41.2,44.4l-6.6-6.7H9.1c-0.8,0-1.4-0.3-2-0.8c-0.5-0.5-0.8-1.2-0.8-2V13.2c0-0.8,0.3-1.4,0.8-2c0.5-0.5,1.1-0.8,1.9-0.8
	h0.5l0.3,0.3v2.2L4.2,7.4l1.1-1.1l37.1,37.1C42.3,43.3,41.2,44.4,41.2,44.4z M41.3,37.3l-7-7.1v-13l-6.7,5.4v-5.4h-6.4L14.1,10h25.3
	c0.8,0,1.4,0.3,2,0.8c0.5,0.5,0.8,1.2,0.8,2V35c0,0.5-0.1,1-0.2,1.4C41.8,36.8,41.6,37.1,41.3,37.3z M14.2,30.5h13.1L14.2,17.4V30.5
	z"/>
</svg>
