<?xml version="1.0" encoding="utf-8"?>
<!-- Generator: Adobe Illustrator 26.3.1, SVG Export Plug-In . SVG Version: 6.00 Build 0)  -->
<svg version="1.1" id="Слой_1" xmlns="http://www.w3.org/2000/svg" xmlns:xlink="http://www.w3.org/1999/xlink" x="0px" y="0px"
	 viewBox="0 0 48 48" style="enable-background:new 0 0 48 48;" xml:space="preserve">
<path d="M27.4,37.2c0.4,0,0.8-0.2,1.1-0.5c0.3-0.3,0.5-0.7,0.5-1.1c0-0.4-0.2-0.8-0.5-1.1S27.8,34,27.4,34s-0.8,0.2-1.1,0.5
	c-0.3,0.3-0.5,0.7-0.5,1.1c0,0.4,0.2,0.8,0.5,1.1C26.6,37.1,27,37.2,27.4,37.2z M33.7,37.2c0.4,0,0.8-0.2,1.1-0.5s0.5-0.7,0.5-1.1
	c0-0.4-0.2-0.8-0.5-1.1S34.1,34,33.7,34c-0.4,0-0.8,0.2-1.1,0.5s-0.5,0.7-0.5,1.1c0,0.4,0.2,0.8,0.5,1.1
	C32.9,37.1,33.3,37.2,33.7,37.2z M8,27.2V8.8c0-0.8,0.3-1.4,0.8-2C9.3,6.3,10,6,10.8,6h26.5c0.8,0,1.4,0.3,2,0.8
	C39.7,7.3,40,8,40,8.8v18.5L8,27.2L8,27.2z M10.8,42c-0.8,0-1.4-0.3-2-0.8C8.3,40.7,8,40,8,39.2V28.8h32v10.5c0,0.8-0.3,1.4-0.8,2
	c-0.5,0.5-1.2,0.8-2,0.8L10.8,42L10.8,42z"/>
</svg>
