<?xml version="1.0" encoding="utf-8"?>
<!-- Generator: Adobe Illustrator 26.3.1, SVG Export Plug-In . SVG Version: 6.00 Build 0)  -->
<svg version="1.1" id="Слой_1" xmlns="http://www.w3.org/2000/svg" xmlns:xlink="http://www.w3.org/1999/xlink" x="0px" y="0px"
	 viewBox="0 0 48 48" style="enable-background:new 0 0 48 48;" xml:space="preserve">
<path d="M34.2,29.5c0.5,0,0.9-0.2,1.2-0.5c0.4-0.3,0.5-0.8,0.5-1.3s-0.2-0.9-0.5-1.2C35,26.1,34.6,26,34.2,26
	c-0.5,0-0.9,0.2-1.3,0.5c-0.3,0.4-0.5,0.8-0.5,1.2c0,0.5,0.2,0.9,0.5,1.3C33.3,29.3,33.7,29.5,34.2,29.5z M6,20l6-6.8
	c0.2-0.3,0.5-0.5,0.9-0.6s0.7-0.2,1.1-0.2h20c0.3,0,0.7,0.1,1.1,0.2c0.4,0.2,0.7,0.4,0.9,0.6l6,6.8H6z M8.8,34.8
	c-0.8,0-1.4-0.3-2-0.8C6.3,33.5,6,32.8,6,32V21.5h36V32c0,0.8-0.3,1.4-0.8,2c-0.5,0.5-1.2,0.8-2,0.8H8.8z"/>
</svg>
