<?xml version="1.0" encoding="utf-8"?>
<!-- Generator: Adobe Illustrator 26.3.1, SVG Export Plug-In . SVG Version: 6.00 Build 0)  -->
<svg version="1.1" id="Слой_1" xmlns="http://www.w3.org/2000/svg" xmlns:xlink="http://www.w3.org/1999/xlink" x="0px" y="0px"
	 viewBox="0 0 48 48" style="enable-background:new 0 0 48 48;" xml:space="preserve">
<path d="M12.8,42c-0.8,0-1.4-0.3-2-0.8c-0.5-0.5-0.8-1.2-0.8-2V8.8c0-0.8,0.3-1.4,0.8-2C11.3,6.3,12,6,12.8,6h22.5
	c0.8,0,1.4,0.3,2,0.8C37.8,7.3,38,8,38,8.8v30.5c0,0.8-0.3,1.4-0.8,2c-0.5,0.5-1.2,0.8-2,0.8L12.8,42L12.8,42z M16.8,35.1h14.5v-1.5
	H16.8V35.1z M24,27.8c2.1,0,3.8-0.7,5.3-2.2s2.2-3.2,2.2-5.3s-0.7-3.9-2.2-5.3c-1.5-1.5-3.2-2.2-5.3-2.2s-3.9,0.7-5.3,2.2
	s-2.2,3.2-2.2,5.3s0.7,3.9,2.2,5.3C20.1,27.1,21.9,27.8,24,27.8z M24,24.9c-1.2,0-2.3-0.4-3.2-1.3c-0.9-0.9-1.3-2-1.3-3.2
	s0.4-2.3,1.3-3.2c0.9-0.9,1.9-1.3,3.2-1.3c1.3,0,2.4,0.4,3.3,1.3s1.3,2,1.3,3.2s-0.4,2.3-1.3,3.2C26.4,24.4,25.3,24.9,24,24.9z"/>
</svg>
