<?xml version="1.0" encoding="utf-8"?>
<!-- Generator: Adobe Illustrator 26.3.1, SVG Export Plug-In . SVG Version: 6.00 Build 0)  -->
<svg version="1.1" id="Слой_1" xmlns="http://www.w3.org/2000/svg" xmlns:xlink="http://www.w3.org/1999/xlink" x="0px" y="0px"
	 viewBox="0 0 48 48" style="enable-background:new 0 0 48 48;" xml:space="preserve">
<path d="M24,25.5c-2.7,0-5-0.9-6.9-2.8s-2.8-4.2-2.8-6.9s0.9-5,2.8-6.9S21.3,6,24,6s5,0.9,6.9,2.8s2.8,4.2,2.8,6.9s-0.9,5-2.8,6.9
	C29,24.5,26.7,25.5,24,25.5z M41.9,43v-4h-4v-1.5h4v-4h1.5v4h4V39h-4v4H41.9z M26.8,43.4v-11h5.8c0.8,0,1.4,0.2,1.9,0.7
	s0.8,1.2,0.8,2v1.1c0,0.6-0.2,1.1-0.6,1.7c-0.4,0.5-0.9,0.9-1.7,1.2l1.9,4.4h-1.7l-1.8-4.2h-3.2v4.2C28.3,43.4,26.8,43.4,26.8,43.4z
	 M28.3,37.7h4.3c0.3,0,0.6-0.1,0.8-0.4c0.3-0.3,0.4-0.5,0.4-0.8v-1.4c0-0.3-0.1-0.6-0.4-0.8c-0.3-0.3-0.5-0.4-0.8-0.4h-4.3V37.7z
	 M0.6,43.4v-11h1.5v4.2h5.5v-4.2h1.5v11H7.6V38H2.1v5.4H0.6z M13.7,43.4v-11h5.8c0.8,0,1.4,0.3,1.9,0.8s0.8,1.2,0.8,1.9v5.6
	c0,0.8-0.3,1.4-0.8,1.9s-1.2,0.8-1.9,0.8H13.7z M15.2,41.9h4.3c0.3,0,0.6-0.1,0.8-0.4c0.3-0.3,0.4-0.5,0.4-0.8v-5.6
	c0-0.3-0.1-0.6-0.4-0.8c-0.3-0.3-0.5-0.4-0.8-0.4h-4.3C15.2,33.8,15.2,41.9,15.2,41.9z"/>
</svg>
