<?xml version="1.0" encoding="utf-8"?>
<!-- Generator: Adobe Illustrator 26.3.1, SVG Export Plug-In . SVG Version: 6.00 Build 0)  -->
<svg version="1.1" id="Слой_1" xmlns="http://www.w3.org/2000/svg" xmlns:xlink="http://www.w3.org/1999/xlink" x="0px" y="0px"
	 viewBox="0 0 48 48" style="enable-background:new 0 0 48 48;" xml:space="preserve">
<path d="M40,42.2L6,8.2l1.1-1.1L41,41C41.1,41.1,40,42.2,40,42.2z M39.4,29.4l-1.7-4H34V29l-1.5-1.5v-8.8h6.1c0.8,0,1.5,0.3,2,0.8
	s0.8,1.2,0.8,2v1.2c0,0.7-0.2,1.2-0.6,1.7c-0.4,0.5-0.9,0.8-1.6,0.9l1.8,4.2h-1.6V29.4z M34,23.9h4.7c0.3,0,0.6-0.1,0.8-0.4
	c0.3-0.3,0.4-0.5,0.4-0.8v-1.3c0-0.3-0.1-0.6-0.4-0.8c-0.3-0.3-0.5-0.4-0.8-0.4H34C34,20.1,34,23.9,34,23.9z M28.4,23.4l-4.8-4.8h2
	c0.7,0,1.4,0.3,1.9,0.8s0.8,1.2,0.8,2C28.4,21.4,28.4,23.4,28.4,23.4z M6.6,29.4V18.6h1.5v4.2h5.7v-4.2h1.5v10.8h-1.5v-5.1H8.1v5.1
	C8.1,29.4,6.6,29.4,6.6,29.4z M19.6,20.9l1.5,1.5v5.5h4.2c0.2,0,0.3,0,0.4-0.1s0.3-0.2,0.4-0.3l1.2,1.2c-0.2,0.2-0.5,0.4-0.8,0.5
	s-0.6,0.2-0.9,0.2h-6.1v-8.5H19.6z"/>
</svg>
