<?xml version="1.0" encoding="utf-8"?>
<!-- Generator: Adobe Illustrator 26.3.1, SVG Export Plug-In . SVG Version: 6.00 Build 0)  -->
<svg version="1.1" id="Слой_1" xmlns="http://www.w3.org/2000/svg" xmlns:xlink="http://www.w3.org/1999/xlink" x="0px" y="0px"
	 viewBox="0 0 48 48" style="enable-background:new 0 0 48 48;" xml:space="preserve">
<path d="M30,34.7h1.4v-3.2h3.2v-1.4h-3.2v-3.2H30v3.2h-3.2v1.4H30V34.7z M14.5,23.2h1.4V18h5.8v5.2h1.4V12.4h-1.4v4.2h-5.8v-4.2
	h-1.4C14.5,12.4,14.5,23.2,14.5,23.2z M26.9,23.2h5c0.8,0,1.4-0.2,1.9-0.7s0.8-1.1,0.8-1.9v-5.5c0-0.8-0.3-1.4-0.8-1.9
	s-1.1-0.8-1.9-0.8h-5V23.2z M20.1,32.2H16v-3.9h4.1c0.4,0,0.8,0.1,1.1,0.4c0.3,0.3,0.4,0.7,0.4,1.1v0.8c0,0.4-0.1,0.8-0.4,1.1
	C20.9,32,20.6,32.2,20.1,32.2z M21.1,37.7h1.5l-1.7-4.2c0.6-0.1,1.2-0.5,1.6-0.9c0.4-0.5,0.6-1,0.6-1.7v-1.4c0-0.7-0.3-1.3-0.8-1.8
	s-1.1-0.8-1.9-0.8h-5.7v10.8h1.4v-4.2h3.3L21.1,37.7z M28.3,21.8v-7.9h3.4c0.4,0,0.8,0.1,1.1,0.4c0.3,0.3,0.4,0.6,0.4,1.1v4.9
	c0,0.4-0.1,0.8-0.4,1.1c-0.3,0.3-0.6,0.4-1.1,0.4H28.3z M24,42c-2.5,0-4.9-0.5-7-1.4c-2.2-0.9-4.1-2.2-5.7-3.8s-2.9-3.5-3.8-5.7
	C6.5,28.9,6,26.5,6,24s0.5-4.8,1.4-7s2.2-4.1,3.8-5.7s3.5-2.9,5.7-3.8C19.1,6.5,21.5,6,24,6s4.8,0.5,7,1.4s4.1,2.2,5.7,3.8
	c1.6,1.6,2.9,3.5,3.8,5.7c0.9,2.2,1.4,4.5,1.4,7s-0.5,4.9-1.4,7c-0.9,2.2-2.2,4.1-3.8,5.7s-3.5,2.9-5.7,3.8C28.8,41.5,26.5,42,24,42
	z"/>
</svg>
