<?xml version="1.0" encoding="utf-8"?>
<!-- Generator: Adobe Illustrator 26.3.1, SVG Export Plug-In . SVG Version: 6.00 Build 0)  -->
<svg version="1.1" id="Слой_1" xmlns="http://www.w3.org/2000/svg" xmlns:xlink="http://www.w3.org/1999/xlink" x="0px" y="0px"
	 viewBox="0 0 48 48" style="enable-background:new 0 0 48 48;" xml:space="preserve">
<path d="M28.3,21.8h3.4c0.4,0,0.8-0.1,1.1-0.4s0.4-0.7,0.4-1.1v-4.9c0-0.4-0.1-0.8-0.4-1.1c-0.3-0.3-0.6-0.4-1.1-0.4h-3.4V21.8z
	 M16.1,32.2h4.1c0.4,0,0.8-0.1,1.1-0.4c0.3-0.3,0.4-0.6,0.4-1.1v-0.8c0-0.4-0.1-0.8-0.4-1.1c-0.3-0.3-0.6-0.4-1.1-0.4h-4.1
	C16.1,28.3,16.1,32.2,16.1,32.2z M14.7,37.7h1.4v-4.2h3.3l1.7,4.2h1.5l-1.7-4.2c0.6-0.1,1.2-0.4,1.6-0.9s0.6-1,0.6-1.7v-1.4
	c0-0.7-0.3-1.3-0.8-1.8s-1.1-0.8-1.9-0.8h-5.7C14.7,26.9,14.7,37.7,14.7,37.7z M14.7,23.2h1.4v-5.8L14.7,16V23.2z M24,42
	c-2.5,0-4.8-0.5-7-1.4s-4.1-2.2-5.7-3.9c-1.6-1.6-2.9-3.5-3.9-5.7C6.5,28.8,6,26.5,6,24c0-2.6,0.5-5,1.4-7.2c1-2.1,2.2-4,3.7-5.5
	l25.6,25.6c-1.7,1.7-3.7,2.9-5.9,3.8S26.4,42,24,42z M42.8,45.2l-40-40l1.1-1.1l40,40C43.9,44.1,42.8,45.2,42.8,45.2z M38.9,34.1
	L28,23.2h3.9c0.8,0,1.4-0.2,1.9-0.7s0.8-1.1,0.8-1.9v-5.5c0-0.8-0.3-1.4-0.8-1.9s-1.1-0.8-1.9-0.8h-5v9.7l-3.8-3.7v-6h-1.4v4.5
	l-7.8-7.8c1.5-1,3.1-1.7,4.7-2.3C20.2,6.3,22,6,24,6c2.5,0,4.8,0.5,7,1.4s4.1,2.2,5.7,3.9c1.6,1.6,2.9,3.5,3.9,5.7
	c0.9,2.2,1.4,4.5,1.4,7c0,1.8-0.2,3.6-0.7,5.2C40.8,30.9,40,32.5,38.9,34.1z"/>
</svg>
