<?xml version="1.0" encoding="utf-8"?>
<!-- Generator: Adobe Illustrator 26.3.1, SVG Export Plug-In . SVG Version: 6.00 Build 0)  -->
<svg version="1.1" id="Слой_1" xmlns="http://www.w3.org/2000/svg" xmlns:xlink="http://www.w3.org/1999/xlink" x="0px" y="0px"
	 viewBox="0 0 48 48" style="enable-background:new 0 0 48 48;" xml:space="preserve">
<path d="M11,29.8c-1.6,0-3-0.6-4.1-1.7C5.8,27,5.2,25.6,5.2,24s0.6-3,1.7-4.1s2.5-1.7,4.1-1.7s3,0.6,4.1,1.7s1.7,2.5,1.7,4.1
	s-0.6,3-1.7,4.1C14,29.2,12.6,29.8,11,29.8z M32.8,33.9c-2.8,0-5.1-1-7.1-2.9s-2.9-4.3-2.9-7.1s1-5.1,2.9-7.1c1.9-1.9,4.3-2.9,7-2.9
	c2.8,0,5.2,1,7.1,2.9c1.9,1.9,2.9,4.3,2.9,7.1s-1,5.1-2.9,7.1C37.9,33,35.6,33.9,32.8,33.9z M32.8,32.4c2.4,0,4.3-0.8,6-2.4
	c1.6-1.6,2.5-3.6,2.5-6s-0.8-4.3-2.5-6c-1.6-1.6-3.6-2.5-6-2.5s-4.3,0.8-6,2.5c-1.6,1.6-2.4,3.6-2.4,6s0.8,4.3,2.4,6
	C28.4,31.6,30.4,32.4,32.8,32.4z"/>
</svg>
