<?xml version="1.0" encoding="utf-8"?>
<!-- Generator: Adobe Illustrator 26.3.1, SVG Export Plug-In . SVG Version: 6.00 Build 0)  -->
<svg version="1.1" id="Слой_1" xmlns="http://www.w3.org/2000/svg" xmlns:xlink="http://www.w3.org/1999/xlink" x="0px" y="0px"
	 viewBox="0 0 48 48" style="enable-background:new 0 0 48 48;" xml:space="preserve">
<path d="M11.4,40.7l-4.2-4.2c-0.6-0.5-0.8-1.2-0.8-1.9c0-0.8,0.3-1.4,0.8-2L32.7,7.2c0.5-0.5,1.2-0.8,1.9-0.8c0.8,0,1.4,0.3,2,0.8
	l4.1,4.1c0.5,0.6,0.8,1.2,0.8,2s-0.3,1.4-0.8,1.9L15.3,40.7c-0.5,0.6-1.2,0.8-2,0.8C12.6,41.5,11.9,41.3,11.4,40.7z M25,32.9l8-8
	l7.7,7.7c0.6,0.5,0.9,1.2,0.9,2s-0.3,1.4-0.8,2l-4.1,4.1c-0.5,0.5-1.2,0.8-1.9,0.8c-0.8,0-1.4-0.3-1.9-0.8
	C32.8,40.7,25,32.9,25,32.9z M24.1,28.6c0.5,0,0.8-0.2,1.1-0.5c0.3-0.3,0.5-0.7,0.5-1.1s-0.2-0.8-0.5-1.1c-0.3-0.3-0.7-0.4-1.1-0.4
	c-0.5,0-0.8,0.2-1.1,0.5c-0.3,0.3-0.5,0.7-0.5,1.1s0.2,0.8,0.5,1.1C23.2,28.5,23.6,28.6,24.1,28.6z M21,25.5c0.4,0,0.8-0.2,1.1-0.5
	c0.3-0.3,0.4-0.7,0.4-1.1c0-0.5-0.2-0.8-0.5-1.1c-0.3-0.3-0.7-0.5-1.1-0.5s-0.8,0.2-1.1,0.5c-0.3,0.3-0.5,0.7-0.5,1.1
	c0,0.5,0.2,0.8,0.5,1.1C20.2,25.4,20.5,25.5,21,25.5z M27.2,25.5c0.5,0,0.8-0.2,1.1-0.5c0.3-0.3,0.5-0.7,0.5-1.1
	c0-0.5-0.2-0.8-0.5-1.1c-0.3-0.3-0.7-0.5-1.1-0.5c-0.5,0-0.8,0.2-1.1,0.5c-0.3,0.3-0.5,0.7-0.5,1.1c0,0.5,0.2,0.8,0.5,1.1
	C26.3,25.4,26.7,25.5,27.2,25.5z M15.1,23l-7.8-7.8c-0.5-0.5-0.8-1.2-0.8-1.9s0.2-1.3,0.7-1.9l4.2-4.2c0.5-0.5,1.2-0.8,1.9-0.8
	c0.8,0,1.4,0.3,2,0.8l7.7,7.7C23.1,14.9,15.1,23,15.1,23z M24.1,22.5c0.5,0,0.8-0.2,1.1-0.5c0.3-0.3,0.5-0.7,0.5-1.1
	c0-0.5-0.2-0.8-0.5-1.1c-0.3-0.3-0.7-0.5-1.1-0.5c-0.5,0-0.8,0.2-1.1,0.5c-0.3,0.3-0.5,0.7-0.5,1.1c0,0.5,0.2,0.8,0.5,1.1
	C23.2,22.3,23.6,22.5,24.1,22.5z"/>
</svg>
