<?xml version="1.0" encoding="utf-8"?>
<!-- Generator: Adobe Illustrator 26.3.1, SVG Export Plug-In . SVG Version: 6.00 Build 0)  -->
<svg version="1.1" id="Слой_1" xmlns="http://www.w3.org/2000/svg" xmlns:xlink="http://www.w3.org/1999/xlink" x="0px" y="0px"
	 viewBox="0 0 48 48" style="enable-background:new 0 0 48 48;" xml:space="preserve">
<path d="M16,41.7V32H6.3v-7.2h11.3l3.8,5.6c0.1,0.1,0.2,0.2,0.2,0.3c0.1,0.1,0.2,0.1,0.3,0.1c0.2,0,0.4,0,0.5-0.1s0.2-0.2,0.3-0.4
	l3.5-10.5l3.1,4.7c0.1,0.1,0.2,0.2,0.3,0.3s0.2,0.1,0.3,0.1h11.7V32H32v9.7H16z M21.8,28.3l-3.1-4.8c-0.1-0.1-0.2-0.2-0.3-0.2
	c-0.1-0.1-0.2-0.1-0.4-0.1H6.3V16H16V6.3h16V16h9.7v7.2H30.4l-3.7-5.6c-0.1-0.1-0.2-0.2-0.3-0.3c-0.1-0.1-0.2-0.1-0.4-0.1
	c-0.2,0-0.3,0-0.5,0.1c-0.1,0.1-0.2,0.2-0.3,0.4C25.3,17.8,21.8,28.3,21.8,28.3z"/>
</svg>
