<?xml version="1.0" encoding="utf-8"?>
<!-- Generator: Adobe Illustrator 26.3.1, SVG Export Plug-In . SVG Version: 6.00 Build 0)  -->
<svg version="1.1" id="Слой_1" xmlns="http://www.w3.org/2000/svg" xmlns:xlink="http://www.w3.org/1999/xlink" x="0px" y="0px"
	 viewBox="0 0 48 48" style="enable-background:new 0 0 48 48;" xml:space="preserve">
<path d="M24.1,41.3c-3.6-3.6-6.6-6.6-8.9-9.1c-2.3-2.5-4.2-4.6-5.5-6.4s-2.3-3.4-2.8-4.7C6.3,19.8,6,18.4,6,17c0-2.8,1-5.1,2.9-7.1
	S13.2,7,16,7c1.3,0,2.5,0.2,3.7,0.7c1.2,0.4,2.3,1.1,3.2,1.9L19.7,21h6.1L24,38.2L30.4,17h-6.1l3-8.9c0.7-0.4,1.5-0.6,2.2-0.8
	C30.3,7.1,31.1,7,31.9,7C34.7,7,37,8,39,9.9c1.9,1.9,2.9,4.3,2.9,7.1c0,1.4-0.3,2.8-0.8,4.2c-0.5,1.4-1.5,3-2.9,4.8s-3.2,4-5.5,6.4
	C30.4,34.8,27.5,37.8,24.1,41.3z"/>
</svg>
