<?xml version="1.0" encoding="utf-8"?>
<!-- Generator: Adobe Illustrator 26.3.1, SVG Export Plug-In . SVG Version: 6.00 Build 0)  -->
<svg version="1.1" id="Слой_1" xmlns="http://www.w3.org/2000/svg" xmlns:xlink="http://www.w3.org/1999/xlink" x="0px" y="0px"
	 viewBox="0 0 48 48" style="enable-background:new 0 0 48 48;" xml:space="preserve">
<path d="M29.5,26.8v-1.5h14v1.5H29.5z M22,39.3l-2.3-2.1c-3-2.8-5.6-5.2-7.6-7.2s-3.6-3.8-4.8-5.4s-2-3-2.5-4.3
	C4.2,19.1,4,17.8,4,16.4c0-2.5,0.9-4.7,2.6-6.4s3.9-2.6,6.4-2.6c1.8,0,3.4,0.4,5,1.3c1.5,0.9,2.9,2.2,4,3.9c1.2-1.7,2.5-3,4.1-3.9
	c1.5-0.9,3.2-1.3,4.9-1.3c2.4,0,4.5,0.8,6.1,2.3c1.7,1.6,2.6,3.5,2.8,5.8c-0.5-0.2-1-0.3-1.6-0.4C37.7,15,37.1,15,36.5,15
	c-3.1,0-5.7,1.1-7.8,3.2s-3.2,4.7-3.2,7.8c0,1.4,0.3,2.7,0.8,4s1.2,2.4,2.2,3.5c-0.7,0.6-1.5,1.4-2.3,2.1c-0.9,0.8-1.7,1.6-2.6,2.4
	L22,39.3z"/>
</svg>
