<?xml version="1.0" encoding="utf-8"?>
<!-- Generator: Adobe Illustrator 26.3.1, SVG Export Plug-In . SVG Version: 6.00 Build 0)  -->
<svg version="1.1" id="Слой_1" xmlns="http://www.w3.org/2000/svg" xmlns:xlink="http://www.w3.org/1999/xlink" x="0px" y="0px"
	 viewBox="0 0 48 48" style="enable-background:new 0 0 48 48;" xml:space="preserve">
<path d="M22,39.3l-2.1-1.9c-3.1-2.9-5.7-5.3-7.8-7.4c-2-2.1-3.7-3.9-4.9-5.4c-1.2-1.6-2-3-2.5-4.3C4.2,19.1,4,17.7,4,16.4
	c0-2.5,0.8-4.6,2.5-6.3s3.8-2.6,6.2-2.6c1.8,0,3.5,0.5,5.1,1.5c1.6,1,2.9,2.4,4.1,4.3c1.3-2,2.7-3.4,4.2-4.4c1.5-1,3.2-1.4,5-1.4
	c2.3,0,4.2,0.8,5.9,2.4s2.6,3.5,2.8,5.7c-0.6-0.2-1.1-0.3-1.6-0.4c-0.5-0.1-1-0.1-1.6-0.1c-3.2,0-5.9,1.1-8,3.1s-3.2,4.6-3.2,7.8
	c0,1.4,0.2,2.7,0.7,4s1.2,2.5,2.2,3.5c-0.8,0.7-1.7,1.5-2.5,2.3c-0.9,0.8-1.8,1.6-2.8,2.5L22,39.3z M35.9,30.6L32,26.7l1.1-1.1
	l2.9,2.8l7-7.1l1.1,1.1L35.9,30.6z"/>
</svg>
