<?xml version="1.0" encoding="utf-8"?>
<!-- Generator: Adobe Illustrator 26.3.1, SVG Export Plug-In . SVG Version: 6.00 Build 0)  -->
<svg version="1.1" id="Слой_1" xmlns="http://www.w3.org/2000/svg" xmlns:xlink="http://www.w3.org/1999/xlink" x="0px" y="0px"
	 viewBox="0 0 48 48" style="enable-background:new 0 0 48 48;" xml:space="preserve">
<path d="M23.3,33.7v-8.1l-5.7,5.7c0.8,0.8,1.6,1.3,2.6,1.7C21.2,33.4,22.3,33.6,23.3,33.7z M24.7,33.7c1.1-0.1,2.1-0.3,3.1-0.7
	s1.9-1,2.7-1.7l-5.7-5.7C24.7,25.6,24.7,33.7,24.7,33.7z M31.3,30.4c0.7-0.8,1.3-1.7,1.7-2.6c0.4-1,0.6-2,0.7-3.1h-8.1
	C25.6,24.7,31.3,30.4,31.3,30.4z M25.6,23.3h8.1c0-1.1-0.3-2.1-0.7-3.1s-1-1.8-1.7-2.7C31.3,17.6,25.6,23.3,25.6,23.3z M24.7,22.4
	l5.8-5.7c-0.8-0.7-1.7-1.3-2.7-1.7s-2-0.7-3.1-0.7C24.7,14.3,24.7,22.4,24.7,22.4z M24,25.1c0.3,0,0.6-0.1,0.8-0.3
	c0.2-0.2,0.3-0.5,0.3-0.8s-0.1-0.6-0.3-0.8c-0.2-0.2-0.5-0.3-0.8-0.3s-0.6,0.1-0.8,0.3c-0.2,0.2-0.3,0.5-0.3,0.8s0.1,0.6,0.3,0.8
	S23.7,25.1,24,25.1z M23.3,22.4v-8.1c-1.1,0.1-2.1,0.3-3.1,0.7s-1.9,1-2.6,1.7C17.6,16.7,23.3,22.4,23.3,22.4z M14.2,23.3h8.2
	l-5.7-5.8c-0.7,0.8-1.3,1.7-1.7,2.7C14.6,21.2,14.3,22.3,14.2,23.3z M16.7,30.4l5.7-5.7h-8.1c0,1.1,0.2,2.1,0.6,3.1
	C15.4,28.7,15.9,29.6,16.7,30.4z M10.8,40c-0.8,0-1.4-0.3-2-0.8C8.3,38.7,8,38,8,37.2V10.8c0-0.8,0.3-1.4,0.8-2C9.3,8.3,10,8,10.8,8
	h26.5c0.8,0,1.4,0.3,2,0.8c0.5,0.5,0.8,1.2,0.8,2v26.5c0,0.8-0.3,1.4-0.8,2c-0.5,0.5-1.2,0.8-2,0.8L10.8,40L10.8,40z"/>
</svg>
