<?xml version="1.0" encoding="utf-8"?>
<!-- Generator: Adobe Illustrator 26.3.1, SVG Export Plug-In . SVG Version: 6.00 Build 0)  -->
<svg version="1.1" id="Слой_1" xmlns="http://www.w3.org/2000/svg" xmlns:xlink="http://www.w3.org/1999/xlink" x="0px" y="0px"
	 viewBox="0 0 48 48" style="enable-background:new 0 0 48 48;" xml:space="preserve">
<path d="M13.8,34.8c1.3,0,2.5-0.5,3.4-1.4c0.9-0.9,1.4-2.1,1.4-3.4v-9.6c0-0.9,0.3-1.7,1-2.3c0.6-0.6,1.4-1,2.3-1s1.7,0.3,2.3,1
	c0.6,0.6,1,1.4,1,2.3V30c0,1.3,0.5,2.5,1.4,3.4s2.1,1.4,3.4,1.4s2.5-0.5,3.4-1.4c0.9-0.9,1.4-2.1,1.4-3.4V18.3
	c0-0.9,0.3-1.7,0.9-2.3c0.6-0.6,1.4-0.9,2.3-0.9h5.6l-3.7,3.5l1.1,1.1l5.5-5.4L41,8.8l-1.1,1.1l3.6,3.6H38c-1.4,0-2.5,0.5-3.4,1.4
	s-1.4,2.1-1.4,3.4V30c0,0.9-0.3,1.7-1,2.3c-0.6,0.6-1.4,1-2.3,1s-1.7-0.3-2.3-1c-0.6-0.6-1-1.4-1-2.3v-9.6c0-1.3-0.5-2.5-1.4-3.4
	s-2.1-1.4-3.4-1.4s-2.5,0.5-3.4,1.4S17,19.1,17,20.4V30c0,0.9-0.3,1.7-1,2.3c-0.6,0.6-1.4,1-2.3,1c-0.9,0-1.7-0.3-2.3-1
	c-0.6-0.6-1-1.4-1-2.3V15.5H9V30c0,1.3,0.5,2.5,1.4,3.4C11.4,34.3,12.5,34.8,13.8,34.8z M6.8,41.2c-0.7,0-1.4-0.3-1.9-0.8
	c-0.6-0.6-0.9-1.2-0.9-2v-14h40v14.1c0,0.7-0.3,1.4-0.8,1.9c-0.6,0.6-1.2,0.8-1.9,0.8H6.8z"/>
</svg>
