<?xml version="1.0" encoding="utf-8"?>
<!-- Generator: Adobe Illustrator 26.3.1, SVG Export Plug-In . SVG Version: 6.00 Build 0)  -->
<svg version="1.1" id="Слой_1" xmlns="http://www.w3.org/2000/svg" xmlns:xlink="http://www.w3.org/1999/xlink" x="0px" y="0px"
	 viewBox="0 0 48 48" style="enable-background:new 0 0 48 48;" xml:space="preserve">
<path d="M16.5,37.5c-0.4,0-0.8-0.2-1.1-0.5s-0.5-0.7-0.5-1.1v-3.5h5.7V25c-1.3,0.3-2.7,0.3-4.1,0s-2.6-1-3.5-1.9V20h-3l-5.6-5.6
	c1.1-0.9,2.4-1.6,3.9-2.1c1.4-0.6,2.9-0.8,4.4-0.8c1.3,0,2.7,0.2,4.1,0.7c1.4,0.4,2.7,1.1,3.9,2.1v-4.1H40v23.7c0,1-0.4,1.9-1.1,2.6
	s-1.6,1.1-2.6,1.1C36.4,37.5,16.5,37.5,16.5,37.5z M22.1,32.5h12.1v1.4c0,0.6,0.2,1.1,0.6,1.5c0.4,0.4,0.9,0.6,1.5,0.6
	s1.1-0.2,1.5-0.6c0.4-0.4,0.6-0.9,0.6-1.5V11.7H22.1v4l11,11v1.1H32l-6.4-6.3l-1.4,1.4c-0.4,0.4-0.7,0.7-1,0.9
	c-0.3,0.2-0.7,0.4-1.1,0.7C22.1,24.4,22.1,32.5,22.1,32.5z M10.7,18.6h3.8v4c0.7,0.5,1.4,0.8,2.1,1s1.3,0.3,1.9,0.3
	c0.9,0,1.8-0.2,2.7-0.6c0.9-0.4,1.6-0.9,2.1-1.5l1.3-1.3l-3.8-3.8c-1.1-1.1-2.4-2-3.8-2.6s-2.8-0.9-4.4-0.9c-1.1,0-2.1,0.2-3.1,0.5
	s-1.9,0.7-2.7,1.2C6.9,14.7,10.7,18.6,10.7,18.6z"/>
</svg>
