<?xml version="1.0" encoding="utf-8"?>
<!-- Generator: Adobe Illustrator 26.3.1, SVG Export Plug-In . SVG Version: 6.00 Build 0)  -->
<svg version="1.1" id="Слой_1" xmlns="http://www.w3.org/2000/svg" xmlns:xlink="http://www.w3.org/1999/xlink" x="0px" y="0px"
	 viewBox="0 0 48 48" style="enable-background:new 0 0 48 48;" xml:space="preserve">
<path d="M24,42c-4.6,0-8.7-1.5-12.1-4.5s-5.3-6.8-5.8-11.4h1.6c0.5,4.2,2.3,7.6,5.4,10.3s6.7,4.1,10.9,4.1c4.6,0,8.5-1.6,11.7-4.8
	s4.8-7.1,4.8-11.7s-1.6-8.5-4.8-11.7S28.6,7.5,24,7.5c-3.3,0-6.3,0.9-9.1,2.7c-2.7,1.8-4.8,4.2-6,7.3h6.3V19H6.7
	c1.1-3.9,3.2-7,6.4-9.4S20,6,24,6c2.5,0,4.8,0.5,7,1.4s4.1,2.2,5.7,3.8c1.6,1.6,2.9,3.5,3.8,5.7c0.9,2.2,1.4,4.5,1.4,7
	s-0.5,4.8-1.4,7s-2.2,4.1-3.8,5.7s-3.5,2.9-5.7,3.8C28.8,41.5,26.5,42,24,42z M29.4,30.5l-6.1-6.1v-8.7h1.5v8.1l5.7,5.7
	C30.4,29.4,29.4,30.5,29.4,30.5z"/>
</svg>
