<?xml version="1.0" encoding="utf-8"?>
<!-- Generator: Adobe Illustrator 26.3.1, SVG Export Plug-In . SVG Version: 6.00 Build 0)  -->
<svg version="1.1" id="Слой_1" xmlns="http://www.w3.org/2000/svg" xmlns:xlink="http://www.w3.org/1999/xlink" x="0px" y="0px"
	 viewBox="0 0 48 48" style="enable-background:new 0 0 48 48;" xml:space="preserve">
<path d="M31.8,23.3l-3.2-5.9l3.2-5.9h6.5l3.2,5.9l-3.2,5.9H31.8z M20.7,29.9L17.5,24l3.2-5.9h6.5l3.2,5.9l-3.2,5.9H20.7z M20.7,16.8
	l-3.2-5.9L20.7,5h6.5l3.2,5.9l-3.2,5.9H20.7z M9.7,23.3l-3.2-5.9l3.2-5.9h6.5l3.3,5.9l-3.3,5.9H9.7z M9.7,36.4l-3.2-5.9l3.2-5.9h6.5
	l3.3,5.9l-3.3,5.9H9.7z M20.7,43l-3.2-5.9l3.2-5.9h6.5l3.2,5.9L27.3,43H20.7z M31.8,36.4l-3.2-5.9l3.2-5.9h6.5l3.2,5.9l-3.2,5.9
	H31.8z"/>
</svg>
