<?xml version="1.0" encoding="utf-8"?>
<!-- Generator: Adobe Illustrator 26.3.1, SVG Export Plug-In . SVG Version: 6.00 Build 0)  -->
<svg version="1.1" id="Слой_1" xmlns="http://www.w3.org/2000/svg" xmlns:xlink="http://www.w3.org/1999/xlink" x="0px" y="0px"
	 viewBox="0 0 48 48" style="enable-background:new 0 0 48 48;" xml:space="preserve">
<path d="M34.4,29.4l-2.6-2.5v-0.1H33v1l0.2,0.2h5.6v-3.3h-6.2c-0.3,0-0.6-0.1-0.8-0.3c-0.2-0.2-0.3-0.5-0.3-0.8V20
	c0-0.4,0.1-0.7,0.4-1c0.3-0.3,0.6-0.4,1-0.4h6c0.4,0,0.7,0.1,1,0.4s0.4,0.6,0.4,1v2h-1.5v-1.9H33v3.3h6.2c0.3,0,0.6,0.1,0.8,0.3
	c0.2,0.2,0.3,0.5,0.3,0.8V28c0,0.4-0.1,0.7-0.4,1c-0.3,0.3-0.6,0.4-1,0.4C39,29.4,34.4,29.4,34.4,29.4z M6.6,29.4V18.6h1.5v4.2h5.7
	v-4.2h1.5v10.8h-1.5v-5.1H8.1v5.1C8.1,29.4,6.6,29.4,6.6,29.4z M40.2,42.4L5.6,7.8l1.1-1.1l34.6,34.5L40.2,42.4z M20.4,29.4v-7.9
	l1.5,1.5v5h5l1.5,1.5C28.3,29.4,20.4,29.4,20.4,29.4z"/>
</svg>
