<?xml version="1.0" encoding="utf-8"?>
<!-- Generator: Adobe Illustrator 26.3.1, SVG Export Plug-In . SVG Version: 6.00 Build 0)  -->
<svg version="1.1" id="Слой_1" xmlns="http://www.w3.org/2000/svg" xmlns:xlink="http://www.w3.org/1999/xlink" x="0px" y="0px"
	 viewBox="0 0 48 48" style="enable-background:new 0 0 48 48;" xml:space="preserve">
<path d="M14,25.1l1.6-12c0-0.2,0.1-0.5,0.3-0.6c0.1-0.2,0.3-0.3,0.6-0.4l13.8-5.7c0.4-0.2,0.9-0.1,1.2,0.1c0.4,0.2,0.6,0.6,0.6,1
	l2,17.7H14V25.1z M19.4,40c-2,0-3.7-0.8-4.9-2.4c-1.2-1.6-1.7-3.4-1.4-5.4l0.7-5.6h20.5l0.6,5.8c0.2,2-0.3,3.7-1.5,5.3
	c-1.2,1.5-2.8,2.3-4.8,2.3C28.6,40,19.4,40,19.4,40z"/>
</svg>
