<?xml version="1.0" encoding="utf-8"?>
<!-- Generator: Adobe Illustrator 26.3.1, SVG Export Plug-In . SVG Version: 6.00 Build 0)  -->
<svg version="1.1" id="Слой_1" xmlns="http://www.w3.org/2000/svg" xmlns:xlink="http://www.w3.org/1999/xlink" x="0px" y="0px"
	 viewBox="0 0 48 48" style="enable-background:new 0 0 48 48;" xml:space="preserve">
<path d="M10,38V18.3l-5.1,3.8L4,20.9L24,6l20,14.9l-0.7,1c-1.2-0.7-2.6-1-4-1s-2.9,0.3-4.4,1c-2.1-1-4.1-1.2-6-0.8
	c-1.9,0.4-3.6,1.4-5.1,2.9s-2.5,3.3-2.9,5.1c-0.4,1.9-0.1,3.9,0.8,6c-0.2,0.5-0.4,1-0.6,1.5c0,0.4-0.1,0.9-0.1,1.4H10z M35,43.2
	c-1.5,1.1-3,1.6-4.4,1.6s-2.6-0.6-3.7-1.7c-1.1-1.1-1.7-2.4-1.7-3.8c0-1.4,0.5-2.8,1.6-4.3c-1.1-1.5-1.6-3-1.6-4.4s0.6-2.6,1.7-3.7
	s2.4-1.7,3.8-1.7s2.8,0.5,4.3,1.6c1.5-1.1,3-1.6,4.4-1.6s2.6,0.6,3.7,1.7c1.1,1.1,1.7,2.4,1.7,3.8s-0.5,2.8-1.6,4.3
	c1.1,1.5,1.6,3,1.6,4.4s-0.6,2.6-1.7,3.7c-1.1,1.1-2.4,1.7-3.8,1.7C38,44.8,36.5,44.3,35,43.2z M35,36.3c0.4,0,0.7-0.1,0.9-0.4
	c0.3-0.3,0.4-0.6,0.4-0.9c0-0.4-0.1-0.7-0.4-0.9c-0.3-0.3-0.6-0.4-0.9-0.4s-0.7,0.1-0.9,0.4c-0.3,0.3-0.4,0.6-0.4,0.9
	c0,0.4,0.1,0.7,0.4,0.9C34.3,36.2,34.6,36.3,35,36.3z"/>
</svg>
