<?xml version="1.0" encoding="utf-8"?>
<!-- Generator: Adobe Illustrator 26.3.1, SVG Export Plug-In . SVG Version: 6.00 Build 0)  -->
<svg version="1.1" id="Слой_1" xmlns="http://www.w3.org/2000/svg" xmlns:xlink="http://www.w3.org/1999/xlink" x="0px" y="0px"
	 viewBox="0 0 48 48" style="enable-background:new 0 0 48 48;" xml:space="preserve">
<path d="M24,12c2.3,0,4.5,0.3,6.6,0.8c2.2,0.5,4.1,1.3,5.8,2.3s3,2.3,4.1,3.7c1,1.5,1.5,3.2,1.5,5.2H6c0-2,0.5-3.8,1.5-5.2
	c1-1.5,2.4-2.7,4.1-3.7s3.6-1.8,5.8-2.3C19.5,12.3,21.7,12,24,12z M17.8,36c-3,0-5.6-1-7.8-3s-3.5-4.5-3.8-7.5H42
	c-0.4,3-1.7,5.5-4,7.5s-4.9,3-7.9,3H17.8z"/>
</svg>
