<?xml version="1.0" encoding="utf-8"?>
<!-- Generator: Adobe Illustrator 26.3.1, SVG Export Plug-In . SVG Version: 6.00 Build 0)  -->
<svg version="1.1" id="Слой_1" xmlns="http://www.w3.org/2000/svg" xmlns:xlink="http://www.w3.org/1999/xlink" x="0px" y="0px"
	 viewBox="0 0 48 48" style="enable-background:new 0 0 48 48;" xml:space="preserve">
<path d="M16,37.5v-1.3h-5.5c-1.8,0-3.4-0.6-4.6-1.9C4.6,33.1,4,31.5,4,29.7V18.5c0-1.8,0.6-3.4,1.9-4.6S8.7,12,10.5,12h26.9
	c1.8,0,3.4,0.6,4.6,1.9c1.3,1.3,1.9,2.8,1.9,4.6v11.2c0,1.8-0.6,3.4-1.9,4.6c-1.3,1.3-2.8,1.9-4.6,1.9H32v1.3H16z M21,25.4
	c0.3,0,0.7-0.1,0.9-0.4c0.3-0.2,0.4-0.6,0.4-0.9s-0.1-0.6-0.4-0.9s-0.6-0.4-0.9-0.4c-0.4,0-0.7,0.1-1,0.4c-0.2,0.3-0.4,0.6-0.4,0.9
	c0,0.4,0.1,0.7,0.4,0.9C20.3,25.3,20.6,25.4,21,25.4z M15,25.4c0.3,0,0.7-0.1,0.9-0.4c0.3-0.2,0.4-0.6,0.4-0.9s-0.1-0.6-0.4-0.9
	c-0.3-0.3-0.6-0.4-0.9-0.4c-0.4,0-0.7,0.1-1,0.4c-0.2,0.3-0.4,0.6-0.4,0.9c0,0.4,0.1,0.7,0.4,0.9C14.3,25.3,14.6,25.4,15,25.4z
	 M27,25.4c0.3,0,0.7-0.1,0.9-0.4c0.3-0.2,0.4-0.6,0.4-0.9s-0.1-0.6-0.4-0.9s-0.6-0.4-0.9-0.4c-0.4,0-0.7,0.1-1,0.4
	c-0.2,0.3-0.4,0.6-0.4,0.9c0,0.4,0.1,0.7,0.4,0.9C26.3,25.3,26.6,25.4,27,25.4z M33,25.4c0.3,0,0.7-0.1,0.9-0.4
	c0.3-0.2,0.4-0.6,0.4-0.9s-0.1-0.6-0.4-0.9c-0.3-0.3-0.6-0.4-0.9-0.4c-0.4,0-0.7,0.1-1,0.4c-0.2,0.3-0.4,0.6-0.4,0.9
	c0,0.4,0.1,0.7,0.4,0.9C32.3,25.3,32.6,25.4,33,25.4z"/>
</svg>
