<?xml version="1.0" encoding="utf-8"?>
<!-- Generator: Adobe Illustrator 26.3.1, SVG Export Plug-In . SVG Version: 6.00 Build 0)  -->
<svg version="1.1" id="Слой_1" xmlns="http://www.w3.org/2000/svg" xmlns:xlink="http://www.w3.org/1999/xlink" x="0px" y="0px"
	 viewBox="0 0 48 48" style="enable-background:new 0 0 48 48;" xml:space="preserve">
<path d="M8.8,40c-0.8,0-1.4-0.3-2-0.8C6.3,38.7,6,38,6,37.2V10.8c0-0.8,0.3-1.4,0.8-2C7.3,8.3,8,8,8.8,8h10.1c0.8,0,1.4,0.3,2,0.8
	c0.5,0.5,0.8,1.2,0.8,2v26.5c0,0.8-0.3,1.4-0.8,2c-0.5,0.5-1.2,0.8-2,0.8L8.8,40L8.8,40z M29.2,40c-0.8,0-1.4-0.3-2-0.8
	c-0.5-0.5-0.8-1.2-0.8-2V10.8c0-0.8,0.3-1.4,0.8-2c0.5-0.5,1.2-0.8,2-0.8h10.1c0.8,0,1.4,0.3,2,0.8c0.5,0.5,0.8,1.2,0.8,2v26.5
	c0,0.8-0.3,1.4-0.8,2c-0.5,0.5-1.2,0.8-2,0.8L29.2,40L29.2,40z M10.8,28.6h6v-1.5h-6C10.8,27.1,10.8,28.6,10.8,28.6z M31.2,28.6h6
	v-1.5h-6V28.6z M10.8,22.9h6v-1.5h-6C10.8,21.4,10.8,22.9,10.8,22.9z M31.2,22.9h6v-1.5h-6V22.9z M10.8,17.1h6v-1.5h-6
	C10.8,15.6,10.8,17.1,10.8,17.1z M31.2,17.1h6v-1.5h-6V17.1z"/>
</svg>
