<?xml version="1.0" encoding="utf-8"?>
<!-- Generator: Adobe Illustrator 26.3.1, SVG Export Plug-In . SVG Version: 6.00 Build 0)  -->
<svg version="1.1" id="Слой_1" xmlns="http://www.w3.org/2000/svg" xmlns:xlink="http://www.w3.org/1999/xlink" x="0px" y="0px"
	 viewBox="0 0 48 48" style="enable-background:new 0 0 48 48;" xml:space="preserve">
<path d="M13.6,17.1c-0.7,0-1.4-0.3-1.9-0.8s-0.7-1.1-0.8-1.9c0-0.7,0.3-1.4,0.8-1.9s1.1-0.8,1.9-0.8c0.7,0,1.4,0.3,1.9,0.8
	s0.8,1.1,0.8,1.9c0,0.7-0.3,1.4-0.8,1.9C15,16.8,14.3,17.1,13.6,17.1z M8.8,42c-0.8,0-1.4-0.3-2-0.8C6.3,40.6,6,40,6,39.2V25.9h5.7
	V22c0-0.7,0.2-1.2,0.7-1.7s1.1-0.7,1.8-0.7c0.4,0,0.8,0.1,1.2,0.3c0.4,0.2,0.7,0.4,1,0.8l2.7,3c0.4,0.5,0.8,0.9,1.2,1.2
	c0.4,0.4,0.9,0.7,1.4,1H42v13.4c0,0.8-0.3,1.4-0.8,2c-0.5,0.5-1.2,0.8-2,0.8L8.8,42L8.8,42z M37.6,20.5v-0.8c0-0.9-0.1-1.8-0.5-2.7
	c-0.4-0.9-0.9-1.6-1.5-2.3c-0.7-0.9-1.2-1.8-1.6-2.7c-0.4-1-0.6-2-0.5-3V8.2H35v1c0,0.9,0.1,1.7,0.5,2.5c0.3,0.8,0.8,1.5,1.5,2.2
	c0.7,0.9,1.3,1.8,1.8,2.8s0.6,2,0.5,3.1L39,20.5H37.6z M29.6,20.5l0.1-0.8c0-1-0.1-1.9-0.6-2.7c-0.4-0.8-0.9-1.6-1.6-2.3
	c-0.7-0.9-1.2-1.8-1.6-2.7c-0.4-1-0.6-2-0.5-3V8h1.5v1c0,0.9,0.1,1.7,0.5,2.5c0.3,0.8,0.8,1.5,1.4,2.2c0.7,0.8,1.3,1.8,1.8,2.8
	s0.6,2.1,0.6,3.2L31,20.5H29.6z M32.7,40.5h6.4V27.4h-6.4V40.5z M24.8,40.5h6.4V27.4h-6.4V40.5z M16.8,40.5h6.4V27.4h-6.4V40.5z
	 M8.8,40.5h6.4V27.4H8.8V40.5z"/>
</svg>
