<?xml version="1.0" encoding="utf-8"?>
<!-- Generator: Adobe Illustrator 26.3.1, SVG Export Plug-In . SVG Version: 6.00 Build 0)  -->
<svg version="1.1" id="Слой_1" xmlns="http://www.w3.org/2000/svg" xmlns:xlink="http://www.w3.org/1999/xlink" x="0px" y="0px"
	 viewBox="0 0 48 48" style="enable-background:new 0 0 48 48;" xml:space="preserve">
<path d="M4,36V10.3h1.5v17.9h17.8V14.5h15.1c1.5,0,2.9,0.6,4,1.7s1.7,2.4,1.7,4V36h-1.5v-6.2H5.5V36H4z M13.8,24
	c-1.1,0-2-0.4-2.8-1.1s-1.1-1.7-1.1-2.8c0-1.1,0.4-2,1.1-2.8c0.8-0.7,1.7-1.1,2.8-1.1s2,0.4,2.8,1.1c0.8,0.8,1.1,1.7,1.1,2.8
	c0,1.1-0.4,2-1.1,2.8C15.8,23.6,14.9,24,13.8,24z"/>
</svg>
