<?xml version="1.0" encoding="utf-8"?>
<!-- Generator: Adobe Illustrator 26.3.1, SVG Export Plug-In . SVG Version: 6.00 Build 0)  -->
<svg version="1.1" id="Слой_1" xmlns="http://www.w3.org/2000/svg" xmlns:xlink="http://www.w3.org/1999/xlink" x="0px" y="0px"
	 viewBox="0 0 48 48" style="enable-background:new 0 0 48 48;" xml:space="preserve">
<path d="M7,38v-1.5h3V31c0-1.7,0.5-3.2,1.6-4.5c1-1.3,2.4-2.2,4-2.5c-1.7-0.3-3-1.2-4-2.5s-1.5-2.9-1.5-4.6v-5.4H7V10h20.6v1.5h-2.9
	v5.4c0,1.7-0.5,3.3-1.6,4.6c-1,1.3-2.4,2.1-4.1,2.5c1.7,0.3,3,1.2,4.1,2.5c1,1.3,1.6,2.8,1.6,4.5v5.5h2.9V38H7z M39.1,38L34,32.9
	l1.1-1.1l3.3,3.3V10h1.5v25l3.3-3.3l1.1,1.1L39.1,38z"/>
</svg>
