<?xml version="1.0" encoding="utf-8"?>
<!-- Generator: Adobe Illustrator 26.3.1, SVG Export Plug-In . SVG Version: 6.00 Build 0)  -->
<svg version="1.1" id="Слой_1" xmlns="http://www.w3.org/2000/svg" xmlns:xlink="http://www.w3.org/1999/xlink" x="0px" y="0px"
	 viewBox="0 0 48 48" style="enable-background:new 0 0 48 48;" xml:space="preserve">
<path d="M15.3,40.5h17.4v-6.2c0-2.4-0.8-4.5-2.5-6.2s-3.7-2.6-6.2-2.6c-2.4,0-4.5,0.9-6.2,2.6s-2.5,3.8-2.5,6.2
	C15.3,34.3,15.3,40.5,15.3,40.5z M10,42v-1.5h3.8v-6.2c0-2.6,0.8-5,2.5-6.9c1.7-2,3.8-3.1,6.5-3.4c-2.6-0.3-4.8-1.5-6.5-3.4
	c-1.7-2-2.5-4.3-2.5-6.9V7.5H10V6h28v1.5h-3.8v6.1c0,2.6-0.8,4.9-2.5,6.9s-3.8,3.1-6.5,3.4c2.6,0.3,4.8,1.4,6.5,3.4s2.5,4.3,2.5,6.9
	v6.2H38V42H10z"/>
</svg>
