<?xml version="1.0" encoding="utf-8"?>
<!-- Generator: Adobe Illustrator 26.3.1, SVG Export Plug-In . SVG Version: 6.00 Build 0)  -->
<svg version="1.1" id="Слой_1" xmlns="http://www.w3.org/2000/svg" xmlns:xlink="http://www.w3.org/1999/xlink" x="0px" y="0px"
	 viewBox="0 0 48 48" style="enable-background:new 0 0 48 48;" xml:space="preserve">
<path d="M10.4,42v-1.5H15v-6.2c0-2.5,0.7-4.7,2.1-6.6s3.3-3.2,5.7-3.7c-2.4-0.5-4.3-1.8-5.7-3.7S15,16.1,15,13.7V7.6h-4.6V6h27.2
	v1.6H33v6.2c0,2.4-0.7,4.6-2.1,6.6c-1.4,1.9-3.3,3.2-5.7,3.7c2.4,0.5,4.3,1.8,5.7,3.7c1.4,1.9,2.1,4.1,2.1,6.6v6.2h4.6V42H10.4z"/>
</svg>
