<?xml version="1.0" encoding="utf-8"?>
<!-- Generator: Adobe Illustrator 26.3.1, SVG Export Plug-In . SVG Version: 6.00 Build 0)  -->
<svg version="1.1" id="Слой_1" xmlns="http://www.w3.org/2000/svg" xmlns:xlink="http://www.w3.org/1999/xlink" x="0px" y="0px"
	 viewBox="0 0 48 48" style="enable-background:new 0 0 48 48;" xml:space="preserve">
<path d="M42.5,44.8L39.8,42H10v-1.5h3.8v-6.2c0-2.7,0.8-5,2.5-6.8c1.7-1.8,3.6-3,5.7-3.4v-0.2c-1.4-0.3-2.9-1.1-4.6-2.4
	s-2.7-3-3.3-5.1L3.8,6l1.1-1.1l38.8,38.8C43.6,43.6,42.5,44.8,42.5,44.8z M27.8,22.8l-1.1-1.1c1.5-0.7,2.9-1.8,4.1-3.3
	s1.8-3.1,1.8-4.8V7.5H15.3v2.8l-1.9-1.9V7.5h-0.9L11,6h27v1.5h-3.8v6.1c0,1.9-0.7,3.7-2,5.3C30.9,20.6,29.5,21.9,27.8,22.8z
	 M15.3,40.5h17.4v-5.6l-9.4-9.4c-2,0.2-3.8,1.1-5.5,2.7s-2.5,3.6-2.5,6.1C15.3,34.3,15.3,40.5,15.3,40.5z M34.2,40.5h3.2l-3.2-3.7
	V40.5z"/>
</svg>
