<?xml version="1.0" encoding="utf-8"?>
<!-- Generator: Adobe Illustrator 26.3.1, SVG Export Plug-In . SVG Version: 6.00 Build 0)  -->
<svg version="1.1" id="Слой_1" xmlns="http://www.w3.org/2000/svg" xmlns:xlink="http://www.w3.org/1999/xlink" x="0px" y="0px"
	 viewBox="0 0 48 48" style="enable-background:new 0 0 48 48;" xml:space="preserve">
<path d="M15.7,40.5c-0.4,0-0.8-0.2-1.1-0.5s-0.5-0.7-0.5-1.1V30c0-2.6,0.4-5.1,1.3-7.6c0.9-2.5,2.3-5,4.3-7.4l-1.5,0.2
	c-1.1,0.2-2.1-0.1-3-0.8c-0.8-0.7-1.3-1.5-1.3-2.6V9.7c0-1,0.4-1.9,1.2-2.5c0.8-0.7,1.7-0.9,2.7-0.9L34.6,8c0.4,0,0.7,0.2,0.9,0.6
	c0.2,0.3,0.3,0.7,0.3,1V12c0,0.4-0.1,0.8-0.4,1.1c-0.2,0.3-0.6,0.5-1,0.5l-1.7,0.2c0.4,1.5,0.9,2.8,1.6,4c0.7,1.2,1.5,2.1,2.4,2.9
	L35.9,22c-1.1-0.7-2.1-1.9-3-3.4c-0.9-1.5-1.5-3.1-1.8-4.6l-5.6,0.6c0.1,2,0.6,3.9,1.4,5.8c0.8,1.8,1.9,3.8,3.2,5.9
	c0.6,0.9,1,1.8,1.2,2.9c0.3,1,0.4,2.1,0.4,3.1v7c0,0.4-0.2,0.8-0.5,1.1s-0.7,0.5-1.1,0.5C30.5,40.5,15.7,40.5,15.7,40.5z M15.6,9.7
	v1.9c0,0.6,0.2,1.1,0.7,1.5c0.5,0.3,1,0.5,1.6,0.4l16.6-1.7V9.5L17.9,7.8c-0.6-0.1-1.1,0.1-1.6,0.4C15.8,8.6,15.6,9.1,15.6,9.7z"/>
</svg>
