<?xml version="1.0" encoding="utf-8"?>
<!-- Generator: Adobe Illustrator 26.3.1, SVG Export Plug-In . SVG Version: 6.00 Build 0)  -->
<svg version="1.1" id="Слой_1" xmlns="http://www.w3.org/2000/svg" xmlns:xlink="http://www.w3.org/1999/xlink" x="0px" y="0px"
	 viewBox="0 0 48 48" style="enable-background:new 0 0 48 48;" xml:space="preserve">
<path d="M30.7,39.4l-5.6-5.6l1.1-1.1l4.5,4.5L41,26.9l1.1,1.1L30.7,39.4z M19.9,22.7c-1.6,0-3-0.5-4.1-1.6s-1.6-2.5-1.6-4.1
	c0-1.7,0.5-3,1.6-4.1s2.5-1.6,4.1-1.6c1.7,0,3,0.5,4.1,1.6s1.6,2.5,1.6,4.1c0,1.7-0.5,3.1-1.6,4.1C22.9,22.2,21.5,22.7,19.9,22.7z
	 M24.9,28.1L19.1,34l3.2,3.2H5.9v-2.9c0-1,0.3-1.9,0.8-2.5c0.5-0.6,1.2-1.1,2-1.5c2-0.9,3.8-1.6,5.4-2s3.5-0.6,5.8-0.6
	c1,0,1.9,0,2.7,0.1C23.4,27.9,24.2,28,24.9,28.1z"/>
</svg>
