<?xml version="1.0" encoding="utf-8"?>
<!-- Generator: Adobe Illustrator 26.3.1, SVG Export Plug-In . SVG Version: 6.00 Build 0)  -->
<svg version="1.1" id="Слой_1" xmlns="http://www.w3.org/2000/svg" xmlns:xlink="http://www.w3.org/1999/xlink" x="0px" y="0px"
	 viewBox="0 0 48 48" style="enable-background:new 0 0 48 48;" xml:space="preserve">
<path d="M10.3,42.5c-0.8,0-1.4-0.3-2-0.8c-0.5-0.5-0.8-1.2-0.8-2v-6.8l5.6-6.1l1.1,1.1L9,33.6h30l-5.1-5.7l1.1-1.1l5.5,6.1v6.8
	c0,0.8-0.3,1.4-0.8,2c-0.5,0.5-1.2,0.8-2,0.8C37.7,42.5,10.3,42.5,10.3,42.5z M22.2,27.8l-6.4-6.5c-0.6-0.6-0.8-1.2-0.8-1.9
	c0-0.7,0.3-1.4,0.9-2L25,8.3c0.5-0.5,1.2-0.8,1.9-0.8c0.7,0,1.4,0.3,1.9,0.8l6.5,6.4c0.5,0.6,0.8,1.2,0.8,1.9c0,0.7-0.3,1.4-0.9,2
	L26,27.7c-0.5,0.6-1.2,0.9-1.9,0.9C23.4,28.7,22.8,28.4,22.2,27.8z M34,17.5c0.2-0.2,0.3-0.5,0.3-0.9S34.2,16,34,15.7l-6.1-6.2
	c-0.2-0.2-0.5-0.3-0.9-0.3s-0.7,0.1-0.9,0.3l-9,9c-0.2,0.2-0.3,0.5-0.3,0.9s0.1,0.7,0.3,0.9l6.1,6.2c0.2,0.2,0.5,0.3,0.9,0.3
	s0.7-0.1,0.9-0.3L34,17.5z"/>
</svg>
