<?xml version="1.0" encoding="utf-8"?>
<!-- Generator: Adobe Illustrator 26.3.1, SVG Export Plug-In . SVG Version: 6.00 Build 0)  -->
<svg version="1.1" id="Слой_1" xmlns="http://www.w3.org/2000/svg" xmlns:xlink="http://www.w3.org/1999/xlink" x="0px" y="0px"
	 viewBox="0 0 48 48" style="enable-background:new 0 0 48 48;" xml:space="preserve">
<path d="M8.7,40v-1.5h30.5V40H8.7z M12.3,23.4c-0.8-0.7-1.3-1.6-1.7-2.6s-0.5-2-0.5-3c0-2.2,0.7-4,2.2-5.5s3.2-2.3,5.4-2.3
	c1,0,1.9,0.2,2.8,0.6c0.9,0.4,1.7,0.9,2.4,1.6l1.2,1.2l1.2-1.1c0.7-0.7,1.5-1.3,2.4-1.7s1.8-0.6,2.8-0.6c2.1,0,3.9,0.8,5.4,2.3
	s2.2,3.4,2.2,5.5c0,1-0.2,2-0.6,3c-0.4,0.9-0.9,1.8-1.6,2.5L25.4,33.4c-0.2,0.2-0.4,0.3-0.6,0.4C24.5,33.9,24.3,34,24,34
	s-0.5,0-0.7-0.1s-0.4-0.2-0.6-0.4C22.6,33.4,12.3,23.4,12.3,23.4z"/>
</svg>
