<?xml version="1.0" encoding="utf-8"?>
<!-- Generator: Adobe Illustrator 26.3.1, SVG Export Plug-In . SVG Version: 6.00 Build 0)  -->
<svg version="1.1" id="Слой_1" xmlns="http://www.w3.org/2000/svg" xmlns:xlink="http://www.w3.org/1999/xlink" x="0px" y="0px"
	 viewBox="0 0 48 48" style="enable-background:new 0 0 48 48;" xml:space="preserve">
<path d="M0.3,29.4V18.6h1.5v4.2h5.9v-4.2h1.5v10.8H7.7v-5.1H1.8v5.1C1.8,29.4,0.3,29.4,0.3,29.4z M16,29.4v-9.3h-3.9v-1.5h9.2v1.5
	h-3.9v9.3C17.4,29.4,16,29.4,16,29.4z M24.2,29.4V20c0-0.4,0.1-0.7,0.4-1s0.6-0.4,1-0.4h9.2c0.4,0,0.7,0.1,1,0.4s0.4,0.6,0.4,1v9.4
	h-1.5v-9.3h-3.8v7.2h-1.5v-7.2h-3.8v9.3C25.7,29.4,24.2,29.4,24.2,29.4z M40.5,29.4V18.6H42v9.3h5.7v1.5
	C47.7,29.4,40.5,29.4,40.5,29.4z"/>
</svg>
