<?xml version="1.0" encoding="utf-8"?>
<!-- Generator: Adobe Illustrator 26.3.1, SVG Export Plug-In . SVG Version: 6.00 Build 0)  -->
<svg version="1.1" id="Слой_1" xmlns="http://www.w3.org/2000/svg" xmlns:xlink="http://www.w3.org/1999/xlink" x="0px" y="0px"
	 viewBox="0 0 48 48" style="enable-background:new 0 0 48 48;" xml:space="preserve">
<path d="M5.4,24.1l10-13.6c2.6,1.4,4.8,3.3,6.9,5.6c2,2.3,3.4,4.6,4.1,7c1.4-1.8,2.8-3.1,4.2-3.9s3.6-1.6,6.6-2.4
	c1.2-0.3,2.3-0.6,3.2-1s1.8-0.7,2.6-1v14.7l-14.6,9.2c-0.5,0.3-1.1,0.6-1.7,0.8s-1.2,0.3-1.9,0.3c-0.8,0-1.7-0.2-2.5-0.5
	s-1.5-0.8-2.2-1.4L5.4,24.1z M19.5,30.5c0.4,0,0.7-0.1,0.9-0.4c0.3-0.3,0.4-0.6,0.4-0.9c0,0,0-0.1,0-0.2s0-0.2,0-0.2
	c0.1,0.1,0.3,0.1,0.4,0.1s0.3,0,0.4,0c0.4,0,0.7-0.1,0.9-0.4c0.3-0.3,0.4-0.6,0.4-0.9s-0.1-0.7-0.4-0.9c-0.3-0.3-0.6-0.4-0.9-0.4
	c-0.2,0-0.4,0.1-0.6,0.2s-0.4,0.3-0.5,0.5l-5.4-5.9c0.3-0.1,0.5-0.3,0.7-0.5s0.3-0.5,0.3-0.8s-0.1-0.7-0.4-0.9
	c-0.3-0.3-0.6-0.4-0.9-0.4c-0.3,0-0.7,0.1-0.9,0.4c-0.3,0.3-0.4,0.6-0.4,0.9c0,0.1,0,0.1,0,0.2s0,0.1,0,0.2
	c-0.1-0.1-0.3-0.1-0.4-0.1c-0.1,0-0.3,0-0.4,0c-0.3,0-0.7,0.1-0.9,0.4c-0.3,0.3-0.4,0.6-0.4,0.9s0.1,0.7,0.4,0.9
	c0.3,0.3,0.6,0.4,0.9,0.4c0.3,0,0.5-0.1,0.7-0.2s0.4-0.3,0.5-0.5l5.5,6c-0.3,0-0.6,0.2-0.8,0.4s-0.3,0.5-0.3,0.9
	c0,0.3,0.1,0.7,0.4,0.9C18.8,30.4,19.1,30.5,19.5,30.5z"/>
</svg>
