<?xml version="1.0" encoding="utf-8"?>
<!-- Generator: Adobe Illustrator 26.3.1, SVG Export Plug-In . SVG Version: 6.00 Build 0)  -->
<svg version="1.1" id="Слой_1" xmlns="http://www.w3.org/2000/svg" xmlns:xlink="http://www.w3.org/1999/xlink" x="0px" y="0px"
	 viewBox="0 0 48 48" style="enable-background:new 0 0 48 48;" xml:space="preserve">
<path d="M28.2,34c0.5,0,0.9-0.2,1.3-0.5s0.5-0.8,0.5-1.3s-0.2-0.9-0.5-1.3c-0.3-0.3-0.8-0.5-1.3-0.5s-0.9,0.2-1.3,0.5
	s-0.5,0.8-0.5,1.3s0.2,0.9,0.5,1.3C27.3,33.8,27.7,34,28.2,34z M18.9,34.2l11.3-11.3l-1.1-1.1L17.8,33.1L18.9,34.2z M19.8,25.5
	c0.5,0,0.9-0.2,1.3-0.5c0.3-0.3,0.5-0.8,0.5-1.3s-0.2-0.9-0.5-1.3c-0.3-0.3-0.8-0.5-1.3-0.5s-0.9,0.2-1.3,0.5
	c-0.3,0.3-0.5,0.8-0.5,1.3s0.2,0.9,0.5,1.3C18.9,25.4,19.3,25.5,19.8,25.5z M24,42c-4,0-7.3-1.4-10-4.1c-2.7-2.8-4-6.2-4-10.3
	c0-2.9,1.2-6,3.5-9.5S19.3,10.8,24,6.6c4.7,4.2,8.2,8,10.5,11.5s3.5,6.7,3.5,9.5c0,4.1-1.3,7.5-4,10.3C31.3,40.6,28,42,24,42z"/>
</svg>
