<?xml version="1.0" encoding="utf-8"?>
<!-- Generator: Adobe Illustrator 26.3.1, SVG Export Plug-In . SVG Version: 6.00 Build 0)  -->
<svg version="1.1" id="Слой_1" xmlns="http://www.w3.org/2000/svg" xmlns:xlink="http://www.w3.org/1999/xlink" x="0px" y="0px"
	 viewBox="0 0 48 48" style="enable-background:new 0 0 48 48;" xml:space="preserve">
<path d="M20,42c-3.9,0-7.2-1.3-9.9-4S6,32.1,6,28.2c0-1.8,0.4-3.6,1.1-5.3c0.7-1.7,1.7-3.2,3-4.5L20,8.8l9.9,9.7
	c1.2,1.3,2.2,2.8,3,4.5c0.7,1.7,1.1,3.4,1.1,5.3c0,3.8-1.4,7.1-4.1,9.7C27.2,40.7,23.9,42,20,42z M36.3,19.5c0-2.2-0.8-4-2.3-5.5
	s-3.4-2.3-5.5-2.3c2.2,0,4-0.7,5.5-2.2s2.3-3.3,2.3-5.5c0,2.2,0.7,4,2.2,5.5s3.3,2.2,5.5,2.2c-2.2,0-4,0.8-5.5,2.3
	S36.3,17.4,36.3,19.5z"/>
</svg>
