<?xml version="1.0" encoding="utf-8"?>
<!-- Generator: Adobe Illustrator 26.3.1, SVG Export Plug-In . SVG Version: 6.00 Build 0)  -->
<svg version="1.1" id="Слой_1" xmlns="http://www.w3.org/2000/svg" xmlns:xlink="http://www.w3.org/1999/xlink" x="0px" y="0px"
	 viewBox="0 0 48 48" style="enable-background:new 0 0 48 48;" xml:space="preserve">
<path d="M24,41c-3.9,0-7.2-1.3-9.9-4S10,31.1,10,27.2c0-1.8,0.4-3.6,1.1-5.2c0.7-1.7,1.7-3.2,3-4.5l8-7.8c0.3-0.3,0.6-0.5,0.9-0.6
	s0.7-0.2,1-0.2s0.7,0.1,1,0.2c0.3,0.1,0.6,0.3,0.9,0.6l8,7.8c1.2,1.3,2.2,2.9,3,4.5c0.7,1.7,1.1,3.4,1.1,5.2c0,3.8-1.4,7.1-4.1,9.8
	S27.9,41,24,41z"/>
</svg>
