<?xml version="1.0" encoding="utf-8"?>
<!-- Generator: Adobe Illustrator 26.3.1, SVG Export Plug-In . SVG Version: 6.00 Build 0)  -->
<svg version="1.1" id="Слой_1" xmlns="http://www.w3.org/2000/svg" xmlns:xlink="http://www.w3.org/1999/xlink" x="0px" y="0px"
	 viewBox="0 0 48 48" style="enable-background:new 0 0 48 48;" xml:space="preserve">
<path d="M24,33.7c2.7,0,5-0.9,6.9-2.8c1.9-1.9,2.8-4.2,2.8-6.9s-0.9-5-2.8-6.9c-1.9-1.9-4.2-2.8-6.9-2.8s-5,0.9-6.9,2.8
	s-2.8,4.2-2.8,6.9s0.9,5,2.8,6.9C19,32.8,21.3,33.7,24,33.7z M24,32.2c-1.1,0-2.2-0.2-3.2-0.7c-1-0.4-1.9-1-2.7-1.8h11.7
	c-0.8,0.8-1.7,1.4-2.7,1.8C26.2,32,25.1,32.2,24,32.2z M16.9,28.2c-0.3-0.5-0.5-1.1-0.7-1.7c-0.2-0.6-0.3-1.2-0.4-1.8h16.3
	c-0.1,0.6-0.2,1.2-0.4,1.8c-0.2,0.6-0.4,1.1-0.8,1.7C31,28.2,16.9,28.2,16.9,28.2z M15.8,23.2c0.1-0.6,0.2-1.2,0.4-1.8
	c0.2-0.6,0.4-1.1,0.8-1.7h14.1c0.3,0.5,0.5,1.1,0.7,1.7c0.2,0.6,0.3,1.2,0.4,1.8H15.8z M18.1,18.2c0.8-0.8,1.7-1.4,2.7-1.8
	s2-0.7,3.2-0.7s2.2,0.2,3.2,0.7c1,0.4,1.9,1,2.7,1.8H18.1z M10.8,40c-0.7,0-1.4-0.3-1.9-0.8C8.3,38.6,8,38,8,37.2V10.8
	c0-0.8,0.3-1.4,0.8-2C9.4,8.3,10,8,10.8,8h26.5c0.7,0,1.4,0.3,1.9,0.8c0.5,0.6,0.8,1.2,0.8,2v26.5c0,0.7-0.3,1.4-0.8,1.9
	c-0.6,0.5-1.2,0.8-2,0.8H10.8z"/>
</svg>
