<?xml version="1.0" encoding="utf-8"?>
<!-- Generator: Adobe Illustrator 26.3.1, SVG Export Plug-In . SVG Version: 6.00 Build 0)  -->
<svg version="1.1" id="Слой_1" xmlns="http://www.w3.org/2000/svg" xmlns:xlink="http://www.w3.org/1999/xlink" x="0px" y="0px"
	 viewBox="0 0 48 48" style="enable-background:new 0 0 48 48;" xml:space="preserve">
<path d="M5,43v-1.5h8v-6.7H7V7h14.6v5.3h-4.7c-0.2,0-0.3,0.1-0.5,0.2c-0.1,0.1-0.2,0.3-0.2,0.5s0.1,0.3,0.2,0.4
	c0.1,0.1,0.3,0.2,0.5,0.2h4.8v2.7h-4.8c-0.2,0-0.3,0.1-0.5,0.2c-0.1,0.1-0.2,0.3-0.2,0.5s0.1,0.3,0.2,0.4s0.3,0.2,0.5,0.2h5.3
	c0.4,0.8,1,1.5,1.7,2s1.5,1,2.4,1.2l5.5,1.5c1.5,0.4,2.7,1.2,3.6,2.4c0.9,1.2,1.3,2.6,1.3,4.1v5.9H31v6.7h5.2c1.9,0,3.5-0.6,4.9-1.7
	c1.4-1.2,2.2-2.7,2.4-4.5H45c-0.2,2.2-1.1,4.1-2.8,5.6s-3.7,2.2-6,2.2H5z M14.5,41.5h14.9v-6.7H14.5V41.5z"/>
</svg>
