<?xml version="1.0" encoding="utf-8"?>
<!-- Generator: Adobe Illustrator 26.3.1, SVG Export Plug-In . SVG Version: 6.00 Build 0)  -->
<svg version="1.1" id="Слой_1" xmlns="http://www.w3.org/2000/svg" xmlns:xlink="http://www.w3.org/1999/xlink" x="0px" y="0px"
	 viewBox="0 0 48 48" style="enable-background:new 0 0 48 48;" xml:space="preserve">
<path d="M24,41.7l-8.1-16.2c-1.8,0.8-3.6,0.6-5.3-0.5C8.9,23.8,8,22.2,8,20.1c0-1.2,0.4-2.3,1.2-3.5s2.1-2,3.9-2.4
	c0.4-3.2,1.6-5.7,3.8-7.5C19,4.9,21.4,4,24,4s5,0.9,7.1,2.7c2.2,1.8,3.4,4.3,3.8,7.5c1.8,0.4,3.1,1.3,3.9,2.4
	c0.8,1.2,1.2,2.3,1.2,3.5c0,2.1-0.8,3.8-2.5,4.8c-1.7,1.1-3.4,1.3-5.2,0.5L24,41.7z M24,38.2l6.9-13.4l-0.7-0.6
	c-1.1,0.6-2.2,1-3.3,1.3c-1.1,0.3-2,0.4-2.9,0.4s-1.8-0.1-2.9-0.4s-2.2-0.7-3.2-1.4l-0.6,0.6L24,38.2z"/>
</svg>
