<?xml version="1.0" encoding="utf-8"?>
<!-- Generator: Adobe Illustrator 26.3.1, SVG Export Plug-In . SVG Version: 6.00 Build 0)  -->
<svg version="1.1" id="Слой_1" xmlns="http://www.w3.org/2000/svg" xmlns:xlink="http://www.w3.org/1999/xlink" x="0px" y="0px"
	 viewBox="0 0 48 48" style="enable-background:new 0 0 48 48;" xml:space="preserve">
<path d="M24,40.9l10.2-6.2c-1.5-1-3.2-1.9-4.9-2.5c-1.7-0.6-3.5-0.9-5.4-0.9c-1.8,0-3.6,0.3-5.4,0.9c-1.7,0.6-3.4,1.4-4.9,2.4
	L24,40.9z M24,24.8c1.6,0,3-0.6,4.1-1.7s1.7-2.5,1.7-4.1s-0.6-3-1.7-4.1s-2.5-1.7-4.1-1.7s-3,0.6-4.1,1.7s-1.7,2.5-1.7,4.1
	s0.6,3,1.7,4.1C21.1,24.2,22.4,24.8,24,24.8z M24,42.7L8,32.9V15.1l16-9.8l16,9.8v17.8L24,42.7z"/>
</svg>
