<?xml version="1.0" encoding="utf-8"?>
<!-- Generator: Adobe Illustrator 26.3.1, SVG Export Plug-In . SVG Version: 6.00 Build 0)  -->
<svg version="1.1" id="Слой_1" xmlns="http://www.w3.org/2000/svg" xmlns:xlink="http://www.w3.org/1999/xlink" x="0px" y="0px"
	 viewBox="0 0 48 48" style="enable-background:new 0 0 48 48;" xml:space="preserve">
<path d="M42.6,44.8L35.8,38h-27c-0.8,0-1.4-0.3-2-0.8C6.3,36.6,6,36,6,35.2V12.8c0-0.8,0.3-1.4,0.8-2C7.4,10.3,8,10,8.8,10H10v2.2
	L3.8,6l1.1-1.1l38.8,38.8C43.6,43.6,42.6,44.8,42.6,44.8z M8.8,36.5h25.5L13.4,15.6H7.5v19.6c0,0.4,0.1,0.7,0.3,0.9
	C8.1,36.3,8.4,36.5,8.8,36.5z M41.6,36.6l-1.1-1.1V15.6H20.6L15,10h24.2c0.8,0,1.4,0.3,2,0.8c0.5,0.5,0.8,1.2,0.8,2v22.5
	c0,0.2,0,0.5-0.1,0.7C41.8,36.2,41.7,36.4,41.6,36.6z M36,31L25,20h11V31z"/>
</svg>
