<?xml version="1.0" encoding="utf-8"?>
<!-- Generator: Adobe Illustrator 26.3.1, SVG Export Plug-In . SVG Version: 6.00 Build 0)  -->
<svg version="1.1" id="Слой_1" xmlns="http://www.w3.org/2000/svg" xmlns:xlink="http://www.w3.org/1999/xlink" x="0px" y="0px"
	 viewBox="0 0 48 48" style="enable-background:new 0 0 48 48;" xml:space="preserve">
<path d="M10.8,40c-0.8,0-1.4-0.3-2-0.8C8.3,38.7,8,38,8,37.2V10.8c0-0.8,0.3-1.4,0.8-2C9.3,8.3,10,8,10.8,8h9.1v1.5h-9.1
	c-0.3,0-0.6,0.1-0.8,0.4c-0.3,0.3-0.4,0.5-0.4,0.8v26.5c0,0.3,0.1,0.6,0.4,0.8s0.5,0.4,0.8,0.4h26.5c0.3,0,0.6-0.1,0.8-0.4
	c0.3-0.3,0.4-0.5,0.4-0.8V25.1l1.5,1.5v10.5c0,0.8-0.3,1.4-0.8,2c-0.5,0.5-1.2,0.8-2,0.8H10.8V40z M14.9,33.1l3.8-4.9l3.6,4.3
	l5.5-6.8l5.6,7.4C33.4,33.1,14.9,33.1,14.9,33.1z M42.9,24.6l-6.5-6.5c-0.6,0.5-1.3,0.8-1.9,1c-0.6,0.2-1.3,0.3-2.1,0.3
	c-1.9,0-3.5-0.6-4.8-1.9s-1.9-2.9-1.9-4.8s0.6-3.5,1.9-4.8C28.9,6.6,30.5,6,32.4,6s3.5,0.6,4.7,1.9c1.3,1.3,1.9,2.9,1.9,4.8
	c0,0.8-0.1,1.6-0.4,2.3c-0.2,0.7-0.6,1.4-1.1,2.1l6.3,6.3L42.9,24.6z M32.4,17.8c1.5,0,2.7-0.5,3.7-1.5s1.5-2.2,1.5-3.7
	s-0.5-2.7-1.5-3.7s-2.2-1.5-3.7-1.5s-2.7,0.5-3.6,1.5c-1,1-1.5,2.2-1.5,3.7s0.5,2.7,1.5,3.7C29.7,17.3,30.9,17.8,32.4,17.8z"/>
</svg>
