<?xml version="1.0" encoding="utf-8"?>
<!-- Generator: Adobe Illustrator 26.3.1, SVG Export Plug-In . SVG Version: 6.00 Build 0)  -->
<svg version="1.1" id="Слой_1" xmlns="http://www.w3.org/2000/svg" xmlns:xlink="http://www.w3.org/1999/xlink" x="0px" y="0px"
	 viewBox="0 0 48 48" style="enable-background:new 0 0 48 48;" xml:space="preserve">
<path d="M40.8,43l-3.1-3.2c-0.1,0-0.2,0.1-0.3,0.1s-0.2,0-0.3,0H10.8c-0.7,0-1.4-0.3-1.9-0.8C8.3,38.6,8,38,8,37.2V11
	c0-0.1,0-0.2,0-0.4c0-0.1,0-0.2,0.1-0.3L5.2,7.4l1.2-1.1L42,41.9L40.8,43z M14,32.5h16.2l-4.9-5l-2.6,3.4L19,26.4L14,32.5z M40,35
	L13,8h24.3c0.7,0,1.4,0.3,1.9,0.8c0.5,0.6,0.8,1.2,0.8,2V35z"/>
</svg>
