<?xml version="1.0" encoding="utf-8"?>
<!-- Generator: Adobe Illustrator 26.3.1, SVG Export Plug-In . SVG Version: 6.00 Build 0)  -->
<svg version="1.1" id="Слой_1" xmlns="http://www.w3.org/2000/svg" xmlns:xlink="http://www.w3.org/1999/xlink" x="0px" y="0px"
	 viewBox="0 0 48 48" style="enable-background:new 0 0 48 48;" xml:space="preserve">
<path d="M26.1,42c-1.8,0-4.1-0.2-6.9-0.7s-5-1.3-6.6-2.6c-0.9-0.7-1.9-1.8-2.9-3.4c-1-1.5-1.9-3.2-2.8-4.9c-0.8-1.8-1.5-3.5-2.1-5.3
	C4.3,23.3,4,21.8,4,20.6c0-2.4,0.9-4.4,2.7-5.9s3.6-2.9,5.5-4.2c1.8-1.2,3.9-2.2,6.1-3.2c2.3-0.8,4.6-1.3,7-1.3
	c2.3,0,4.4,0.5,6.4,1.4s3.9,2.1,5.8,3.4c0.4,0.3,1,0.8,1.8,1.4c0.7,0.6,1.4,1.4,2.1,2.3c0.7,0.9,1.3,2,1.8,3.1
	c0.5,1.2,0.7,2.5,0.8,3.9c0,2.2-0.5,4.5-1.5,6.9s-2.3,4.6-4,6.6s-3.6,3.7-5.7,5C30.6,41.3,28.4,42,26.1,42z M20.7,34.8
	c1.4,0,2.6-0.5,3.6-1.5c0.9-1,1.4-2.2,1.4-3.5c0-0.6-0.1-1.2-0.3-1.7c-0.2-0.5-0.6-1.1-1.1-1.6c-0.8-0.8-1.5-1.6-2-2.5
	s-0.9-1.9-1.2-3c-0.2-1.2-0.8-2.1-1.7-2.8c-0.9-0.7-1.9-1-3-1c-1.3,0-2.4,0.5-3.5,1.5c-1,1-1.5,2.2-1.5,3.5c0,1.2,0.2,2.5,0.7,3.9
	s1.1,2.8,2,4.1c0.8,1.3,1.8,2.4,3,3.3S19.3,34.8,20.7,34.8z M20.7,33.2c-1,0-2-0.4-2.9-1.2c-1-0.8-1.8-1.8-2.6-3
	c-0.7-1.2-1.3-2.4-1.8-3.6c-0.5-1.3-0.7-2.3-0.7-3.2c0-0.9,0.4-1.7,1.1-2.4c0.7-0.7,1.5-1.1,2.4-1.1c0.6,0,1.3,0.2,2,0.6
	s1.1,1.1,1.3,2c0.3,1.3,0.7,2.4,1.3,3.4c0.6,1,1.3,2,2.3,2.9c0.3,0.3,0.6,0.7,0.8,1c0.2,0.4,0.3,0.8,0.3,1.2c0,0.8-0.3,1.6-0.9,2.3
	C22.6,32.9,21.7,33.2,20.7,33.2z M32.5,24.8c0.2,0,0.4-0.1,0.6-0.2c0.1-0.1,0.2-0.3,0.2-0.5v-2.5l2.3,1.1c0.2,0.1,0.4,0.2,0.6,0.1
	c0.2,0,0.4-0.2,0.5-0.4c0.1-0.2,0.2-0.4,0.1-0.6c0-0.2-0.1-0.4-0.3-0.4L33.7,20l2.7-1.4c0.2-0.1,0.3-0.2,0.3-0.5
	c0-0.2,0-0.4-0.1-0.6s-0.2-0.3-0.5-0.3c-0.2,0-0.4,0-0.6,0.1l-2.3,1.1V16c0-0.2-0.1-0.4-0.2-0.6c-0.1-0.1-0.3-0.2-0.6-0.2
	c-0.2,0-0.4,0.1-0.5,0.2c-0.1,0.1-0.2,0.3-0.2,0.6v2.6l-2.3-1.2c-0.2-0.1-0.4-0.2-0.6-0.1c-0.2,0-0.4,0.2-0.5,0.4
	c-0.1,0.2-0.1,0.3-0.1,0.6c0,0.2,0.1,0.4,0.3,0.5l2.5,1.1l-2.3,1.6c-0.2,0.1-0.3,0.3-0.4,0.5s-0.1,0.4,0.1,0.6
	c0.1,0.2,0.3,0.3,0.4,0.4c0.2,0,0.4,0,0.6-0.1l2.3-1.2V24c0,0.2,0.1,0.4,0.2,0.5C32.1,24.7,32.3,24.8,32.5,24.8z"/>
</svg>
