<?xml version="1.0" encoding="utf-8"?>
<!-- Generator: Adobe Illustrator 26.3.1, SVG Export Plug-In . SVG Version: 6.00 Build 0)  -->
<svg version="1.1" id="Слой_1" xmlns="http://www.w3.org/2000/svg" xmlns:xlink="http://www.w3.org/1999/xlink" x="0px" y="0px"
	 viewBox="0 0 48 48" style="enable-background:new 0 0 48 48;" xml:space="preserve">
<path d="M33.4,39.7H35v-6.5h-1.5C33.4,33.2,33.4,39.7,33.4,39.7z M37.7,39.7h1.5v-6.5h-1.5V39.7z M13.5,17h20.9v-1.5H13.5V17z
	 M36.3,44.2c-2.1,0-4-0.8-5.5-2.3s-2.2-3.3-2.2-5.4c0-2.2,0.7-4,2.2-5.5s3.3-2.2,5.5-2.2c2.1,0,3.9,0.7,5.4,2.2s2.3,3.3,2.3,5.5
	c0,2.1-0.8,3.9-2.3,5.4C40.3,43.5,38.4,44.2,36.3,44.2z M8,41.5V10.8c0-0.8,0.3-1.4,0.8-2C9.4,8.3,10,8,10.8,8h26.5
	c0.7,0,1.4,0.3,1.9,0.8c0.5,0.6,0.8,1.2,0.8,2V24c-1.2-0.3-2.3-0.5-3.5-0.5S34.2,23.7,33,24v-0.8H13.5v1.5h16.9
	c-1.3,0.7-2.4,1.6-3.4,2.7s-1.8,2.3-2.4,3.6H13.5v1.5h10.6c-0.2,0.6-0.3,1.2-0.4,1.8s-0.1,1.2-0.1,1.9s0.1,1.5,0.2,2.2
	s0.3,1.5,0.5,2.2l-0.7,0.7l-2.3-1.7l-2.7,1.9l-2.7-1.9l-2.7,1.9l-2.7-1.9L8,41.5z"/>
</svg>
