<?xml version="1.0" encoding="utf-8"?>
<!-- Generator: Adobe Illustrator 26.3.1, SVG Export Plug-In . SVG Version: 6.00 Build 0)  -->
<svg version="1.1" id="Слой_1" xmlns="http://www.w3.org/2000/svg" xmlns:xlink="http://www.w3.org/1999/xlink" x="0px" y="0px"
	 viewBox="0 0 48 48" style="enable-background:new 0 0 48 48;" xml:space="preserve">
<path d="M34,38.5L33.9,37c-0.9-0.2-1.7-0.5-2.3-0.8s-1.2-0.8-1.7-1.5l-1.3,0.7l-0.9-1.3l1.2-0.9c-0.3-0.8-0.5-1.6-0.5-2.4
	s0.2-1.6,0.5-2.4l-1.2-1l0.9-1.3l1.3,0.7c0.5-0.6,1.1-1,1.7-1.4c0.7-0.4,1.4-0.7,2.3-0.9l0.1-1.4h1.5l0.1,1.4
	c0.8,0.2,1.6,0.5,2.3,0.8s1.2,0.9,1.8,1.4L41,26l0.9,1.3l-1.2,1c0.3,0.8,0.5,1.7,0.5,2.5s-0.2,1.6-0.5,2.4l1.3,0.9l-0.9,1.3
	l-1.3-0.7c-0.5,0.6-1.1,1.1-1.7,1.4c-0.6,0.4-1.4,0.7-2.3,0.9l-0.1,1.4C35.5,38.5,34,38.5,34,38.5z M10.8,38c-0.8,0-1.4-0.3-2-0.8
	C8.3,36.7,8,36,8,35.2V8.8c0-0.8,0.3-1.4,0.8-2C9.3,6.3,10,6,10.8,6h26.5c0.8,0,1.4,0.3,2,0.8C39.7,7.3,40,8,40,8.8v11.7
	c-0.2-0.1-0.5-0.2-0.7-0.4s-0.5-0.3-0.8-0.4V8.8c0-0.4-0.1-0.7-0.3-0.9c-0.2-0.2-0.5-0.3-0.9-0.3H10.8c-0.4,0-0.7,0.1-0.9,0.3
	C9.7,8.1,9.5,8.4,9.5,8.8v19H18c0.5,1,1.1,1.8,1.8,2.5c0.8,0.7,1.6,1.2,2.6,1.4c0.2,1.2,0.5,2.4,1,3.4c0.5,1.1,1.2,2.1,2,2.9
	C25.5,38,10.8,38,10.8,38z M34.7,35.6c1.3,0,2.5-0.5,3.4-1.4s1.4-2.1,1.4-3.4c0-1.3-0.5-2.5-1.4-3.4S36,26,34.7,26
	c-1.4,0-2.5,0.5-3.4,1.4s-1.4,2.1-1.4,3.4c0,1.3,0.5,2.5,1.4,3.4S33.4,35.6,34.7,35.6z"/>
</svg>
