<?xml version="1.0" encoding="utf-8"?>
<!-- Generator: Adobe Illustrator 26.3.1, SVG Export Plug-In . SVG Version: 6.00 Build 0)  -->
<svg version="1.1" id="Слой_1" xmlns="http://www.w3.org/2000/svg" xmlns:xlink="http://www.w3.org/1999/xlink" x="0px" y="0px"
	 viewBox="0 0 48 48" style="enable-background:new 0 0 48 48;" xml:space="preserve">
<path d="M26.4,38.4l-1.1-1.1c1.7-1.7,3-3.7,4-6s1.5-4.7,1.5-7.3s-0.5-5-1.5-7.3s-2.3-4.3-4-6l1.1-1.1c1.9,1.8,3.3,4,4.4,6.4
	c1.1,2.5,1.6,5.1,1.6,7.9s-0.5,5.5-1.6,7.9C29.7,34.4,28.2,36.5,26.4,38.4z M22.2,34.2l-1.1-1.1c1.2-1.2,2.1-2.5,2.8-4.1
	c0.7-1.6,1-3.2,1-5s-0.3-3.5-1-5c-0.7-1.6-1.6-2.9-2.8-4.1l1.1-1.1c1.3,1.3,2.3,2.8,3.1,4.6c0.8,1.8,1.1,3.6,1.1,5.6
	s-0.4,3.9-1.1,5.6C24.6,31.4,23.5,32.9,22.2,34.2z M18.1,30.1L17,29c0.6-0.7,1.1-1.4,1.5-2.3s0.5-1.8,0.5-2.8s-0.2-1.9-0.5-2.8
	c-0.4-0.9-0.9-1.6-1.5-2.3l1.1-1.1c0.8,0.8,1.4,1.7,1.9,2.7c0.4,1,0.7,2.2,0.7,3.3c0,1.2-0.2,2.3-0.7,3.3
	C19.5,28.4,18.9,29.3,18.1,30.1z M10.5,39V9H12v12.2c0.8,0,1.4,0.3,1.9,0.8s0.8,1.2,0.8,1.9c0,0.8-0.3,1.4-0.8,1.9s-1.2,0.8-1.9,0.8
	V39H10.5z"/>
</svg>
