<?xml version="1.0" encoding="utf-8"?>
<!-- Generator: Adobe Illustrator 26.3.1, SVG Export Plug-In . SVG Version: 6.00 Build 0)  -->
<svg version="1.1" id="Слой_1" xmlns="http://www.w3.org/2000/svg" xmlns:xlink="http://www.w3.org/1999/xlink" x="0px" y="0px"
	 viewBox="0 0 48 48" style="enable-background:new 0 0 48 48;" xml:space="preserve">
<path d="M40.2,42.4L29.5,31.7l-6,6.3H8.9l-2.7-2.8c-0.6-0.5-0.9-1.2-0.9-1.9s0.3-1.4,0.8-1.9l11.2-11.9L5.6,7.8l1.1-1.1l34.5,34.5
	C41.3,41.3,40.2,42.4,40.2,42.4z M33,28L20.7,15.8l6.1-6.5c0.5-0.6,1.2-0.8,1.9-0.8c0.7,0,1.4,0.3,1.9,0.9l8.3,8.5
	c0.5,0.6,0.8,1.2,0.9,2c0,0.7-0.2,1.4-0.8,1.9L33,28z"/>
</svg>
