<?xml version="1.0" encoding="utf-8"?>
<!-- Generator: Adobe Illustrator 26.3.1, SVG Export Plug-In . SVG Version: 6.00 Build 0)  -->
<svg version="1.1" id="Слой_1" xmlns="http://www.w3.org/2000/svg" xmlns:xlink="http://www.w3.org/1999/xlink" x="0px" y="0px"
	 viewBox="0 0 48 48" style="enable-background:new 0 0 48 48;" xml:space="preserve">
<path d="M31.2,7.5H16V6h16.8L31.2,7.5z M24.5,14.3H10v-1.5h16L24.5,14.3z M17.7,21.1H4v-1.5h15.2L17.7,21.1z M24.2,20.7l7.7,7.7
	l-10.1,10c-0.6,0.6-1.3,0.8-2.2,0.8c-0.9,0-1.6-0.3-2.2-0.8l-0.6-0.6l-2.7,2.7H9.6l4.9-4.9l-0.4-0.4c-0.6-0.6-0.9-1.4-0.9-2.2
	c0-0.9,0.3-1.6,1-2.3C14.2,30.6,24.2,20.7,24.2,20.7z M25.3,19.6L35.6,9.3c0.5-0.5,1.2-0.8,2-0.8s1.4,0.3,2,0.8l3.7,3.7
	c0.5,0.5,0.8,1.2,0.8,2s-0.3,1.5-0.8,2L33,27.2L25.3,19.6z"/>
</svg>
