<?xml version="1.0" encoding="utf-8"?>
<!-- Generator: Adobe Illustrator 26.3.1, SVG Export Plug-In . SVG Version: 6.00 Build 0)  -->
<svg version="1.1" id="Слой_1" xmlns="http://www.w3.org/2000/svg" xmlns:xlink="http://www.w3.org/1999/xlink" x="0px" y="0px"
	 viewBox="0 0 48 48" style="enable-background:new 0 0 48 48;" xml:space="preserve">
<path d="M27.3,25.1l-4-4.1l9.2-9.2L31.7,11c-0.2-0.2-0.5-0.3-0.9-0.3s-0.7,0.1-0.9,0.3L19.7,21.2l-1.1-1l10.1-10.1
	c0.7-0.7,1.4-1,2.2-1c0.8,0,1.5,0.3,2.1,1l0.6,0.6l1.5-1.5c0.3-0.3,0.7-0.5,1.1-0.5c0.4,0,0.7,0.2,1.1,0.5l2.1,2.1
	c0.3,0.3,0.5,0.6,0.4,1c0,0.3-0.2,0.7-0.5,1L27.3,25.1z M12.3,40h-4v-4l13.8-13.8l4.1,4L12.3,40z"/>
</svg>
