<?xml version="1.0" encoding="utf-8"?>
<!-- Generator: Adobe Illustrator 26.3.1, SVG Export Plug-In . SVG Version: 6.00 Build 0)  -->
<svg version="1.1" id="Слой_1" xmlns="http://www.w3.org/2000/svg" xmlns:xlink="http://www.w3.org/1999/xlink" x="0px" y="0px"
	 viewBox="0 0 48 48" style="enable-background:new 0 0 48 48;" xml:space="preserve">
<path d="M13,40.2l-1.7-1.7l-1.6,1.6c-0.2,0.3-0.5,0.4-0.8,0.4s-0.6-0.1-0.8-0.3c-0.3-0.2-0.4-0.5-0.4-0.9c0-0.3,0.2-0.6,0.4-0.9
	l1.6-1.6L8,35.1L34,9c0.3-0.3,0.6-0.4,1-0.4s0.8,0.1,1.1,0.4l2.9,3c0.3,0.3,0.5,0.7,0.5,1.1c0,0.4-0.2,0.8-0.5,1.1L13,40.2z
	 M22,23.1l-11.9,12l2.8,2.9l12-11.9L22,23.1z"/>
</svg>
