<?xml version="1.0" encoding="utf-8"?>
<!-- Generator: Adobe Illustrator 26.3.1, SVG Export Plug-In . SVG Version: 6.00 Build 0)  -->
<svg version="1.1" id="Слой_1" xmlns="http://www.w3.org/2000/svg" xmlns:xlink="http://www.w3.org/1999/xlink" x="0px" y="0px"
	 viewBox="0 0 48 48" style="enable-background:new 0 0 48 48;" xml:space="preserve">
<path d="M5.8,39.2c-0.7,0-1.4-0.3-1.9-0.8c-0.6-0.5-0.8-1.2-0.8-2s0.3-1.4,0.8-2s1.2-0.8,1.9-0.8c0.2,0,0.5,0,0.7,0.1S7,33.8,7.2,34
	l10.4-10.5c-0.1-0.2-0.2-0.5-0.2-0.7s-0.1-0.5-0.1-0.7c0-0.8,0.3-1.4,0.8-2s1.2-0.8,2-0.8s1.5,0.3,2,0.8s0.8,1.2,0.8,2
	c0,0.2-0.1,0.6-0.2,1.3l6.2,6.2c0.2-0.1,0.4-0.2,0.6-0.2c0.2-0.1,0.4-0.1,0.6-0.1s0.5,0,0.7,0.1s0.4,0.1,0.6,0.2l8.5-8.5
	c-0.1-0.2-0.2-0.4-0.2-0.6s-0.1-0.4-0.1-0.7c0-0.8,0.3-1.5,0.8-2s1.2-0.8,2-0.8s1.4,0.3,2,0.8s0.8,1.2,0.8,2s-0.3,1.4-0.8,2
	s-1.2,0.8-2,0.8c-0.2,0-0.5,0-0.7-0.1c-0.2,0-0.4-0.1-0.6-0.2l-8.5,8.5c0.1,0.2,0.2,0.4,0.2,0.6c0.1,0.2,0.1,0.4,0.1,0.7
	c0,0.7-0.3,1.4-0.8,1.9c-0.5,0.6-1.2,0.8-2,0.8s-1.4-0.3-2-0.8c-0.5-0.5-0.8-1.2-0.8-1.9c0-0.2,0-0.5,0.1-0.7c0-0.2,0.1-0.5,0.2-0.7
	l-6.1-6.2c-0.3,0.1-0.5,0.2-0.7,0.3C20.5,25,20.2,25,20,25s-0.6-0.1-1.3-0.2L8.2,35.2c0.1,0.2,0.2,0.5,0.2,0.7s0.1,0.4,0.1,0.6
	c0,0.8-0.3,1.4-0.8,2C7.2,39,6.5,39.2,5.8,39.2z M8,17.6l-0.7-1.4L6,15.6L7.3,15L8,13.6L8.6,15l1.4,0.6l-1.4,0.7L8,17.6z M30,14.6
	l-1-2.1l-2.1-0.9l2.1-0.9l1-2.1l1,2.1l2.1,0.9L31,12.5L30,14.6z"/>
</svg>
