<?xml version="1.0" encoding="utf-8"?>
<!-- Generator: Adobe Illustrator 26.3.1, SVG Export Plug-In . SVG Version: 6.00 Build 0)  -->
<svg version="1.1" id="Слой_1" xmlns="http://www.w3.org/2000/svg" xmlns:xlink="http://www.w3.org/1999/xlink" x="0px" y="0px"
	 viewBox="0 0 48 48" style="enable-background:new 0 0 48 48;" xml:space="preserve">
<path d="M14.8,44c-0.8,0-1.4-0.3-2-0.8c-0.5-0.5-0.8-1.2-0.8-2V6.8c0-0.8,0.3-1.4,0.8-2C13.3,4.3,14,4,14.8,4h13.8v5.8H13.5v28.3
	h20.9V33H36v8.2c0,0.8-0.3,1.4-0.8,2c-0.5,0.5-1.2,0.8-2,0.8H14.8z M36.3,26.3L28,18l1.1-1.1l6.4,6.4V7.2H37v16.1l6.4-6.4l1.1,1.1
	C44.6,18,36.3,26.3,36.3,26.3z"/>
</svg>
