<?xml version="1.0" encoding="utf-8"?>
<!-- Generator: Adobe Illustrator 26.3.1, SVG Export Plug-In . SVG Version: 6.00 Build 0)  -->
<svg version="1.1" id="Слой_1" xmlns="http://www.w3.org/2000/svg" xmlns:xlink="http://www.w3.org/1999/xlink" x="0px" y="0px"
	 viewBox="0 0 48 48" style="enable-background:new 0 0 48 48;" xml:space="preserve">
<path d="M19.2,29.8l1.1-1.1L15.7,24l4.6-4.7l-1.1-1.1L13.5,24L19.2,29.8z M28.8,29.8l5.7-5.8l-5.7-5.7l-1.1,1.1l4.7,4.7l-4.7,4.7
	L28.8,29.8z M10.8,40c-0.8,0-1.4-0.3-1.9-0.8S8,38,8,37.2V10.8c0-0.8,0.3-1.4,0.8-2C9.4,8.3,10,8,10.8,8H21c-0.3-1-0.1-1.9,0.5-2.7
	C22.1,4.4,23,4,24,4c1.1,0,1.9,0.4,2.5,1.3C27.2,6.1,27.3,7,27,8h10.2c0.8,0,1.4,0.3,1.9,0.8c0.6,0.6,0.9,1.2,0.9,2v26.5
	c0,0.8-0.3,1.4-0.8,1.9S38,40,37.2,40H10.8z M24,8.7c0.4,0,0.8-0.2,1.1-0.5c0.3-0.3,0.5-0.7,0.5-1.2c0-0.4-0.2-0.8-0.5-1.1
	c-0.3-0.3-0.7-0.5-1.1-0.5s-0.8,0.2-1.1,0.5c-0.3,0.3-0.5,0.7-0.5,1.1c0,0.5,0.2,0.9,0.5,1.2C23.2,8.6,23.6,8.7,24,8.7z"/>
</svg>
