<?xml version="1.0" encoding="utf-8"?>
<!-- Generator: Adobe Illustrator 26.3.1, SVG Export Plug-In . SVG Version: 6.00 Build 0)  -->
<svg version="1.1" id="Слой_1" xmlns="http://www.w3.org/2000/svg" xmlns:xlink="http://www.w3.org/1999/xlink" x="0px" y="0px"
	 viewBox="0 0 48 48" style="enable-background:new 0 0 48 48;" xml:space="preserve">
<path d="M41.1,32.3c-0.5,0-1-0.2-1.4-0.5s-0.5-0.8-0.5-1.3v-5c0-0.5,0.2-1,0.5-1.4c0.4-0.4,0.8-0.5,1.4-0.5c0.5,0,1,0.2,1.3,0.5
	c0.4,0.4,0.6,0.8,0.5,1.4v5c0,0.5-0.2,1-0.5,1.3C42.1,32.2,41.7,32.3,41.1,32.3z M40.5,39.8v-3.1c-1.6-0.3-3-0.9-3.9-2
	c-1-1.1-1.5-2.4-1.6-4h1.3c0,1.3,0.5,2.5,1.5,3.4c0.9,0.9,2.1,1.4,3.4,1.4c1.3,0,2.5-0.5,3.4-1.4s1.4-2,1.5-3.4h1.3
	c-0.1,1.6-0.6,3-1.6,4c-1,1.1-2.3,1.8-4,2v3.2C41.8,39.8,40.5,39.8,40.5,39.8z M18.2,22.2c-1.5-0.1-2.8-0.6-3.8-1.7
	c-1-1-1.5-2.4-1.5-4s0.5-3,1.5-4s2.2-1.6,3.8-1.7c0,0,0,0,0.1,0s0.2,0,0.2,0c-0.6,0.7-1.1,1.5-1.4,2.4c-0.3,0.9-0.5,2-0.5,3.3
	s0.1,2.3,0.4,3.2c0.3,0.9,0.8,1.7,1.4,2.5C18.5,22.2,18.4,22.2,18.2,22.2L18.2,22.2z M3.8,37.2v-2.9c0-0.7,0.2-1.4,0.6-2
	c0.4-0.6,1-1.2,1.8-1.8c0.6-0.4,1.4-0.7,2.4-1s2-0.5,3.2-0.7c-1.2,0.6-2,1.4-2.5,2.3s-0.7,2-0.7,3.2v2.9C8.5,37.2,3.8,37.2,3.8,37.2
	z M26,22.3c-1.6,0-3-0.6-4.1-1.7s-1.7-2.5-1.7-4.1s0.6-2.9,1.7-4.1c1.1-1.1,2.5-1.7,4.1-1.7s2.9,0.6,4.1,1.7
	c1.1,1.1,1.7,2.5,1.7,4.1s-0.6,2.9-1.7,4.1C28.9,21.7,27.6,22.3,26,22.3z M12.1,37.2v-2.9c0-0.8,0.3-1.6,0.8-2.3s1.2-1.3,2-1.7
	c1.5-0.7,3.2-1.3,5.2-1.9s3.9-0.8,5.9-0.8c0.8,0,1.6,0.1,2.5,0.2s1.7,0.3,2.5,0.5c-0.4,1.6-0.4,3.1,0,4.6s1.1,2.9,2.1,4.2L12.1,37.2
	L12.1,37.2z"/>
</svg>
