<?xml version="1.0" encoding="utf-8"?>
<!-- Generator: Adobe Illustrator 26.3.1, SVG Export Plug-In . SVG Version: 6.00 Build 0)  -->
<svg version="1.1" id="Слой_1" xmlns="http://www.w3.org/2000/svg" xmlns:xlink="http://www.w3.org/1999/xlink" x="0px" y="0px"
	 viewBox="0 0 48 48" style="enable-background:new 0 0 48 48;" xml:space="preserve">
<path d="M36.7,32L24,19.2V8.9l-5.2,5.2L17.7,13L24,6.8l9.9,9.7c1.4,1.3,2.4,2.9,3.1,4.7c0.7,1.8,1,3.5,1,5.2c0,0.9-0.1,1.9-0.4,3
	C37.4,30.4,37.1,31.3,36.7,32z M39.9,42.4l-6.3-6.3c-1.4,1.4-2.9,2.3-4.6,2.9c-1.6,0.7-3.3,1-5,1c-3.9,0-7.2-1.3-9.9-3.9
	c-2.7-2.6-4.1-5.9-4.1-9.8c0-1.6,0.3-3.3,0.9-4.9c0.6-1.6,1.6-3.2,3.2-4.8L7,9.5l1.1-1.1l33,33C41,41.3,39.9,42.4,39.9,42.4z
	 M24,38.5v-12l-8.8-8.9c-1.4,1.4-2.4,2.8-2.9,4.3c-0.5,1.5-0.7,2.9-0.7,4.4c0,3.4,1.2,6.3,3.7,8.7C17.6,37.3,20.6,38.5,24,38.5z"/>
</svg>
