<?xml version="1.0" encoding="utf-8"?>
<!-- Generator: Adobe Illustrator 26.3.1, SVG Export Plug-In . SVG Version: 6.00 Build 0)  -->
<svg version="1.1" id="Слой_1" xmlns="http://www.w3.org/2000/svg" xmlns:xlink="http://www.w3.org/1999/xlink" x="0px" y="0px"
	 viewBox="0 0 48 48" style="enable-background:new 0 0 48 48;" xml:space="preserve">
<path d="M10.8,42c-0.7,0-1.4-0.3-1.9-0.8S8,40,8,39.2v-23c-0.6-0.1-1-0.5-1.4-1c-0.4-0.4-0.6-1-0.6-1.7V8.8c0-0.8,0.3-1.4,0.8-2
	S8,6,8.8,6h30.5c0.7,0,1.4,0.3,1.9,0.8C41.7,7.4,42,8,42,8.8v4.8c0,0.6-0.2,1.2-0.6,1.7c-0.4,0.5-0.9,0.8-1.4,1v23
	c0,0.7-0.3,1.4-0.8,1.9c-0.6,0.5-1.2,0.8-2,0.8H10.8z M8.8,14.8h30.5c0.4,0,0.7-0.1,0.9-0.3s0.3-0.5,0.3-0.9V8.8
	c0-0.4-0.1-0.7-0.3-0.9c-0.2-0.2-0.5-0.3-0.9-0.3H8.8c-0.4,0-0.7,0.1-0.9,0.3S7.5,8.4,7.5,8.8v4.8c0,0.4,0.1,0.7,0.3,0.9
	C8.1,14.7,8.4,14.8,8.8,14.8z M18.8,25.3h10.5V24H18.8V25.3z"/>
</svg>
