<?xml version="1.0" encoding="utf-8"?>
<!-- Generator: Adobe Illustrator 26.3.1, SVG Export Plug-In . SVG Version: 6.00 Build 0)  -->
<svg version="1.1" id="Слой_1" xmlns="http://www.w3.org/2000/svg" xmlns:xlink="http://www.w3.org/1999/xlink" x="0px" y="0px"
	 viewBox="0 0 48 48" style="enable-background:new 0 0 48 48;" xml:space="preserve">
<path d="M12.8,44c-0.8,0-1.4-0.3-2-0.8c-0.5-0.5-0.8-1.2-0.8-2V20.1c0-0.8,0.3-1.4,0.8-2c0.5-0.5,1.2-0.8,2-0.8h5.4v1.5h-5.4
	c-0.3,0-0.6,0.1-0.8,0.4c-0.3,0.3-0.4,0.5-0.4,0.8v21.1c0,0.3,0.1,0.6,0.4,0.8s0.5,0.4,0.8,0.4h22.5c0.3,0,0.6-0.1,0.8-0.4
	c0.3-0.3,0.4-0.5,0.4-0.8v-21c0-0.3-0.1-0.6-0.4-0.8c-0.3-0.3-0.5-0.4-0.8-0.4h-5.4v-1.5h5.4c0.8,0,1.4,0.3,2,0.8
	c0.5,0.5,0.8,1.2,0.8,2v21.1c0,0.8-0.3,1.4-0.8,2c-0.5,0.5-1.2,0.8-2,0.8H12.8V44z M23.2,30.4v-22l-4.7,4.7L17.3,12L24,5.4l6.6,6.6
	l-1.1,1.1l-4.7-4.7v22C24.8,30.4,23.2,30.4,23.2,30.4z"/>
</svg>
