<?xml version="1.0" encoding="utf-8"?>
<!-- Generator: Adobe Illustrator 26.3.1, SVG Export Plug-In . SVG Version: 6.00 Build 0)  -->
<svg version="1.1" id="Слой_1" xmlns="http://www.w3.org/2000/svg" xmlns:xlink="http://www.w3.org/1999/xlink" x="0px" y="0px"
	 viewBox="0 0 48 48" style="enable-background:new 0 0 48 48;" xml:space="preserve">
<path d="M13.6,29.4c-0.3,0-0.6-0.1-0.8-0.3c-0.2-0.2-0.3-0.5-0.3-0.8V25H14v2.9h4.7v-9.3h1.5v9.6c0,0.3-0.1,0.6-0.3,0.8
	c-0.2,0.2-0.5,0.3-0.8,0.3h-5.5V29.4z M26,29.4c-0.4,0-0.7-0.1-1-0.4s-0.4-0.6-0.4-1v-2h1.5v1.9h5.8v-3.3h-6.2
	c-0.3,0-0.6-0.1-0.8-0.3c-0.2-0.2-0.3-0.5-0.3-0.8V20c0-0.4,0.1-0.7,0.4-1s0.6-0.4,1-0.4h6c0.4,0,0.7,0.1,1,0.4s0.4,0.6,0.4,1v2
	h-1.5v-1.9h-5.8v3.3h6.2c0.3,0,0.6,0.1,0.8,0.3c0.2,0.2,0.3,0.5,0.3,0.8V28c0,0.4-0.1,0.7-0.4,1c-0.3,0.3-0.6,0.4-1,0.4H26z"/>
</svg>
