<?xml version="1.0" encoding="utf-8"?>
<!-- Generator: Adobe Illustrator 26.3.1, SVG Export Plug-In . SVG Version: 6.00 Build 0)  -->
<svg version="1.1" id="Слой_1" xmlns="http://www.w3.org/2000/svg" xmlns:xlink="http://www.w3.org/1999/xlink" x="0px" y="0px"
	 viewBox="0 0 48 48" style="enable-background:new 0 0 48 48;" xml:space="preserve">
<path d="M32,36c-1.3,0-2.6-0.2-3.8-0.6C27.1,35,26,34.5,25,33.7c1.3-1.4,2.4-2.9,3.2-4.6c0.8-1.6,1.2-3.4,1.2-5.2s-0.4-3.5-1.2-5.2
	c-0.8-1.7-1.8-3.2-3.2-4.6c1-0.7,2.1-1.3,3.2-1.7c1.2-0.4,2.4-0.6,3.8-0.6c3.3,0,6.2,1.2,8.5,3.5s3.5,5.2,3.5,8.5s-1.2,6.2-3.5,8.5
	S35.3,36,32,36z M24,32.9c-1.2-1.1-2.2-2.4-2.9-3.9c-0.7-1.5-1.1-3.2-1.1-5s0.4-3.4,1.1-5c0.7-1.5,1.7-2.8,2.9-3.9
	c1.2,1.1,2.2,2.4,2.9,3.9c0.7,1.5,1.1,3.2,1.1,5s-0.4,3.4-1.1,5C26.2,30.5,25.2,31.8,24,32.9z M16,36c-3.3,0-6.2-1.2-8.5-3.5
	S4,27.3,4,24s1.2-6.2,3.5-8.5S12.7,12,16,12c1.3,0,2.6,0.2,3.8,0.6c1.2,0.4,2.3,0.9,3.2,1.7c-1.3,1.4-2.4,2.9-3.2,4.6
	c-0.8,1.6-1.2,3.4-1.2,5.2c0,2,0.4,3.8,1.2,5.4c0.8,1.7,1.8,3.1,3.1,4.3c-1,0.7-2.1,1.3-3.3,1.7C18.6,35.8,17.3,36,16,36z"/>
</svg>
