<?xml version="1.0" encoding="utf-8"?>
<!-- Generator: Adobe Illustrator 26.3.1, SVG Export Plug-In . SVG Version: 6.00 Build 0)  -->
<svg version="1.1" id="Слой_1" xmlns="http://www.w3.org/2000/svg" xmlns:xlink="http://www.w3.org/1999/xlink" x="0px" y="0px"
	 viewBox="0 0 48 48" style="enable-background:new 0 0 48 48;" xml:space="preserve">
<path d="M23.2,18.1v-2.6c-1.1-0.2-2.1-0.8-2.8-1.6c-0.8-0.9-1.2-1.9-1.2-3.1c0-1.3,0.5-2.5,1.4-3.4C21.5,6.5,22.7,6,24,6
	s2.5,0.5,3.4,1.4s1.4,2.1,1.4,3.4c0,1.2-0.4,2.2-1.2,3.1c-0.8,0.9-1.7,1.4-2.8,1.6v2.6l13.8,8c0.4,0.2,0.8,0.6,1,1S40,28,40,28.5v3
	c0,0.5-0.1,0.9-0.4,1.4c-0.2,0.4-0.6,0.8-1,1l-13.2,7.7C24.9,41.8,24.5,42,24,42s-0.9-0.1-1.4-0.4L9.4,33.9c-0.4-0.2-0.8-0.6-1-1
	C8.1,32.4,8,32,8,31.5v-3c0-0.5,0.1-0.9,0.4-1.4c0.2-0.4,0.6-0.8,1-1L23.2,18.1z M10.4,27.3l13,7.5c0.2,0.1,0.4,0.2,0.6,0.2
	s0.4-0.1,0.6-0.2l13-7.5l-12.8-7.4v6.6h-1.5v-6.6L10.4,27.3z"/>
</svg>
