<?xml version="1.0" encoding="utf-8"?>
<!-- Generator: Adobe Illustrator 26.3.1, SVG Export Plug-In . SVG Version: 6.00 Build 0)  -->
<svg version="1.1" id="Слой_1" xmlns="http://www.w3.org/2000/svg" xmlns:xlink="http://www.w3.org/1999/xlink" x="0px" y="0px"
	 viewBox="0 0 48 48" style="enable-background:new 0 0 48 48;" xml:space="preserve">
<path d="M5,45v-1.5h1c1,0,2.1-0.2,3.1-0.5s2-0.9,2.9-1.6c1,0.7,1.9,1.3,2.9,1.6s2,0.5,3.1,0.5c1,0,2.1-0.2,3.1-0.5s2-0.9,2.9-1.6
	c1,0.7,2,1.3,3,1.6s2,0.5,3,0.5s2.1-0.2,3.1-0.5s2-0.9,2.9-1.6c0.9,0.7,1.9,1.3,2.9,1.6s2,0.5,3.1,0.5h1V45h-1
	c-0.9,0-1.9-0.1-2.9-0.4c-1-0.3-2.1-0.8-3.1-1.4c-1.1,0.7-2.1,1.2-3.1,1.4c-1,0.3-2,0.4-2.9,0.4s-1.9-0.1-2.9-0.4
	c-1-0.3-2.1-0.8-3.1-1.4c-1.1,0.7-2.1,1.2-3.1,1.4c-1,0.3-2,0.4-2.9,0.4s-1.9-0.1-2.9-0.4c-1-0.3-2.1-0.8-3.1-1.4
	c-1.1,0.7-2.1,1.2-3.1,1.4c-1,0.3-2,0.4-2.9,0.4H5z M18,38.3c-1,0-2-0.2-3.1-0.6c-1.1-0.4-2-1.1-2.9-1.9c-0.2,0.2-0.5,0.4-0.7,0.7
	c-0.3,0.2-0.5,0.5-0.8,0.7C9.3,37,8,36.7,6.7,36.3c-1.4-0.4-2.7-0.8-4-1.3c1.6-0.6,3.6-1.2,5.9-1.7c2.3-0.6,4.5-1,6.6-1.4l3.1-9.6
	c0.2-0.7,0.6-1.1,1.3-1.5c0.6-0.3,1.3-0.3,1.9,0l5.6,2.9l6.1-3.5l3.7-8.3l-1-2.6L38,5l4.8,2.2l-2,4.4l-2.6,1l-8.3,18.9
	c2.8,0.3,5.6,0.8,8.3,1.5s5.1,1.3,7,2c-1.5,0.5-2.9,0.9-4.2,1.3c-1.3,0.3-2.5,0.6-3.6,0.8c-0.3-0.2-0.5-0.5-0.8-0.7
	s-0.5-0.5-0.7-0.7c-0.9,0.9-1.9,1.6-2.9,2s-2,0.6-3,0.6s-2-0.2-3.1-0.6c-1.1-0.4-2-1.1-2.9-2c-0.9,0.9-1.9,1.6-2.9,2
	C20,38.1,19,38.3,18,38.3z M28.5,31.4l3.8-8.8l-5.1,2.9L23,23.4l-2.6,8c0.6-0.1,1.1-0.1,1.7-0.1s1.3-0.1,1.9-0.1c0.7,0,1.4,0,2.1,0
	S27.7,31.4,28.5,31.4z M24,18.1c-0.9,0-1.7-0.3-2.3-1c-0.6-0.6-0.9-1.4-0.9-2.3c0-0.9,0.3-1.7,0.9-2.3s1.4-0.9,2.3-0.9
	s1.7,0.3,2.3,0.9c0.6,0.6,0.9,1.4,0.9,2.3c0,0.9-0.3,1.6-0.9,2.3C25.7,17.7,24.9,18.1,24,18.1z"/>
</svg>
