<?xml version="1.0" encoding="utf-8"?>
<!-- Generator: Adobe Illustrator 26.3.1, SVG Export Plug-In . SVG Version: 6.00 Build 0)  -->
<svg version="1.1" id="Слой_1" xmlns="http://www.w3.org/2000/svg" xmlns:xlink="http://www.w3.org/1999/xlink" x="0px" y="0px"
	 viewBox="0 0 48 48" style="enable-background:new 0 0 48 48;" xml:space="preserve">
<path d="M14.1,45.2V36h-2.6c-1.1,0-1.9-0.4-2.7-1.1c-0.7-0.7-1.1-1.6-1.1-2.7c0-1.1,0.4-2,1.1-2.7s1.6-1.1,2.7-1.1h2.6v-3.7H7.8
	v-7.5h6.3v-3.7h-2.6c-1.1,0-1.9-0.4-2.7-1.1c-0.7-0.7-1.1-1.6-1.1-2.7s0.4-2,1.1-2.7c0.8-0.6,1.7-1,2.7-1h2.6V2.8h1.3V6H18
	c1.1,0,1.9,0.4,2.7,1.1c0.7,0.7,1.1,1.6,1.1,2.7s-0.4,1.9-1.1,2.7c-0.7,0.7-1.6,1.1-2.7,1.1h-2.6v3.7h6.3v7.5h-6.3v3.7H18
	c1.1,0,1.9,0.4,2.7,1.1s1.1,1.6,1.1,2.7c0,1.1-0.4,1.9-1.1,2.7c-0.8,0.6-1.6,1-2.7,1h-2.6v9.2H14.1z M32.6,45.2V36H30
	c-1.1,0-1.9-0.4-2.7-1.1c-0.7-0.7-1.1-1.6-1.1-2.7c0-1.1,0.4-2,1.1-2.7s1.6-1.1,2.7-1.1h2.6v-3.7h-6.3v-7.5h6.3v-3.7H30
	c-1.1,0-1.9-0.4-2.7-1.1c-0.7-0.7-1.1-1.6-1.1-2.7s0.4-2,1.1-2.7s1.6-1,2.7-1h2.6V2.8h1.3V6h2.6c1.1,0,1.9,0.4,2.7,1.1
	c0.7,0.7,1.1,1.6,1.1,2.7s-0.4,1.9-1.1,2.7c-0.7,0.7-1.6,1.1-2.7,1.1h-2.6v3.7h6.3v7.5h-6.3v3.7h2.6c1.1,0,1.9,0.4,2.7,1.1
	c0.7,0.7,1.1,1.6,1.1,2.7c0,1.1-0.4,1.9-1.1,2.7c-0.7,0.7-1.6,1.1-2.7,1.1h-2.6v9.2C33.9,45.2,32.6,45.2,32.6,45.2z"/>
</svg>
