<?xml version="1.0" encoding="utf-8"?>
<!-- Generator: Adobe Illustrator 26.3.1, SVG Export Plug-In . SVG Version: 6.00 Build 0)  -->
<svg version="1.1" id="Слой_1" xmlns="http://www.w3.org/2000/svg" xmlns:xlink="http://www.w3.org/1999/xlink" x="0px" y="0px"
	 viewBox="0 0 48 48" style="enable-background:new 0 0 48 48;" xml:space="preserve">
<path d="M18,41l-0.8-0.8v-10H8.8v-1.5l3.2-3.1V9.5H9.8V8h13.4c-0.9,1.1-1.7,2.3-2.2,3.6s-0.7,2.7-0.7,4.2c0,2.3,0.6,4.5,1.8,6.4
	c1.2,1.9,2.9,3.4,5,4.4v3.6h-8.4v10L18,41z M32.3,23.5c-2.2,0-4-0.8-5.5-2.3s-2.2-3.3-2.2-5.5s0.7-4,2.2-5.5S30.1,8,32.3,8
	s4,0.7,5.5,2.2s2.2,3.3,2.2,5.5c0,2.1-0.7,4-2.2,5.5S34.4,23.5,32.3,23.5z M32.3,22c1.1,0,2-0.2,2.9-0.7s1.7-1.2,2.3-2
	c-0.8-0.5-1.7-0.8-2.5-1.1c-0.9-0.2-1.7-0.4-2.7-0.4c-0.9,0-1.8,0.1-2.7,0.4c-0.9,0.2-1.7,0.6-2.5,1.1c0.6,0.9,1.3,1.5,2.2,2
	C30.3,21.8,31.2,22,32.3,22z M32.3,15.7c0.9,0,1.6-0.3,2.2-0.9c0.6-0.6,0.9-1.4,0.9-2.2c0-0.9-0.3-1.6-0.9-2.2
	c-0.6-0.6-1.4-0.9-2.2-0.9c-0.9,0-1.6,0.3-2.2,0.9c-0.6,0.6-0.9,1.4-0.9,2.2c0,0.9,0.3,1.6,0.9,2.2C30.7,15.4,31.4,15.7,32.3,15.7z"
	/>
</svg>
