<?xml version="1.0" encoding="utf-8"?>
<!-- Generator: Adobe Illustrator 26.3.1, SVG Export Plug-In . SVG Version: 6.00 Build 0)  -->
<svg version="1.1" id="Слой_1" xmlns="http://www.w3.org/2000/svg" xmlns:xlink="http://www.w3.org/1999/xlink" x="0px" y="0px"
	 viewBox="0 0 48 48" style="enable-background:new 0 0 48 48;" xml:space="preserve">
<path d="M14,27.9c1.1,0,2-0.4,2.8-1.1c0.8-0.8,1.1-1.7,1.1-2.8s-0.4-2-1.1-2.8c-0.8-0.8-1.7-1.1-2.8-1.1s-2,0.4-2.8,1.1
	c-0.8,0.8-1.1,1.7-1.1,2.8c0,1.1,0.4,2,1.1,2.8C12,27.5,12.9,27.9,14,27.9z M14,33.5c-2.7,0-4.9-0.9-6.7-2.7s-2.7-4.1-2.7-6.7
	s0.9-4.9,2.7-6.7s4.1-2.7,6.7-2.7c2.3,0,4.3,0.6,5.9,1.9s2.6,2.8,3.1,4.6h18.3l2.8,2.9L39.4,29l-3.6-3L32,29l-2.9-2.2H23
	c-0.4,1.8-1.4,3.4-3.1,4.7C18.3,32.8,16.3,33.5,14,33.5z"/>
</svg>
