<?xml version="1.0" encoding="utf-8"?>
<!-- Generator: Adobe Illustrator 26.3.1, SVG Export Plug-In . SVG Version: 6.00 Build 0)  -->
<svg version="1.1" id="Слой_1" xmlns="http://www.w3.org/2000/svg" xmlns:xlink="http://www.w3.org/1999/xlink" x="0px" y="0px"
	 viewBox="0 0 48 48" style="enable-background:new 0 0 48 48;" xml:space="preserve">
<path d="M24.1,17.9c1.1,0,2-0.4,2.8-1.1C27.6,16,28,15.1,28,14s-0.4-2-1.1-2.8c-0.8-0.8-1.7-1.1-2.8-1.1c-1.1,0-2,0.4-2.7,1.1
	c-0.7,0.8-1.1,1.7-1.1,2.8s0.4,2,1.1,2.8C22.1,17.5,23,17.9,24.1,17.9z M24.1,44.2l-4.9-4.4l2.9-4L19,32l2.2-2.9V23
	c-1.8-0.6-3.4-1.7-4.7-3.2c-1.3-1.6-1.9-3.5-1.9-5.8c0-2.7,0.9-4.9,2.7-6.7c1.8-1.8,4.1-2.7,6.7-2.7c2.7,0,4.9,0.9,6.7,2.7
	c1.8,1.8,2.7,4.1,2.7,6.7c0,2.3-0.6,4.2-1.9,5.8c-1.3,1.5-2.8,2.6-4.6,3.2v18.3C27,41.3,24.1,44.2,24.1,44.2z"/>
</svg>
