<?xml version="1.0" encoding="utf-8"?>
<!-- Generator: Adobe Illustrator 26.3.1, SVG Export Plug-In . SVG Version: 6.00 Build 0)  -->
<svg version="1.1" id="Слой_1" xmlns="http://www.w3.org/2000/svg" xmlns:xlink="http://www.w3.org/1999/xlink" x="0px" y="0px"
	 viewBox="0 0 48 48" style="enable-background:new 0 0 48 48;" xml:space="preserve">
<path d="M40.2,42.4L24.8,27H23c-0.5,1.8-1.6,3.4-3.2,4.6c-1.7,1.2-3.6,1.9-5.8,1.9c-2.7,0-4.9-0.9-6.7-2.7s-2.7-4.1-2.7-6.7
	c0-2.4,0.7-4.4,2.2-6.1s3.4-2.8,5.7-3.2l-6.9-7l1.1-1.1l34.7,34.6L40.2,42.4z M41.3,21.1l2.8,2.9l-4.9,4.9L35.8,26l-2.7,2.1L32,27
	l-2.9-3l-2.9-2.9C26.1,21.1,41.3,21.1,41.3,21.1z M14,27.9c1.1,0,2.1-0.4,2.8-1.2s1.1-1.7,1.1-2.7c0-0.3-0.1-0.7-0.4-1.2
	c-0.3-0.4-0.7-0.9-1.1-1.3s-0.8-0.8-1.3-1.1c-0.4-0.3-0.8-0.5-1.1-0.5c-1,0-1.9,0.4-2.7,1.1s-1.2,1.7-1.2,2.8c0,1.1,0.4,2,1.1,2.8
	C12,27.5,12.9,27.9,14,27.9z"/>
</svg>
