<?xml version="1.0" encoding="utf-8"?>
<!-- Generator: Adobe Illustrator 26.3.1, SVG Export Plug-In . SVG Version: 6.00 Build 0)  -->
<svg version="1.1" id="Слой_1" xmlns="http://www.w3.org/2000/svg" xmlns:xlink="http://www.w3.org/1999/xlink" x="0px" y="0px"
	 viewBox="0 0 48 48" style="enable-background:new 0 0 48 48;" xml:space="preserve">
<path d="M8,40v-1.5h4V40H8z M8,32.4v-1.5h13.4v1.5H8z M8,24.8v-1.5h32v1.5H8z M8,17.1v-1.5h13.4v1.5H8z M8,9.5V8h4v1.5H8z M17.4,40
	v-1.5h4V40H17.4z M17.3,9.5V8h4v1.5H17.3z M26.7,40v-1.5h3.9V40H26.7z M26.7,32.4v-1.5H40v1.5H26.7z M26.7,17.1v-1.5H40v1.5H26.7z
	 M26.7,9.5V8h4v1.5H26.7z M36,40v-1.5h4V40H36z M36,9.5V8h4v1.5H36z"/>
</svg>
