<?xml version="1.0" encoding="utf-8"?>
<!-- Generator: Adobe Illustrator 26.3.1, SVG Export Plug-In . SVG Version: 6.00 Build 0)  -->
<svg version="1.1" id="Слой_1" xmlns="http://www.w3.org/2000/svg" xmlns:xlink="http://www.w3.org/1999/xlink" x="0px" y="0px"
	 viewBox="0 0 48 48" style="enable-background:new 0 0 48 48;" xml:space="preserve">
<path d="M42.7,43.9L7,8.2l1.1-1.1l35.7,35.7C43.8,42.8,42.7,43.9,42.7,43.9z M16,31.4h16.4l-2.6-2.6H16V31.4z M10.5,25.3h2.6v-2.6
	h-2.6V25.3z M16.6,25.3h2.6v-2.6h-2.6V25.3z M34.9,25.3h2.6v-2.6h-2.6V25.3z M10.5,19.2h2.6v-2.6h-2.6V19.2z M28.8,19.2h2.6v-2.6
	h-2.6V19.2z M34.9,19.2h2.6v-2.6h-2.6V19.2z M8.8,36c-0.8,0-1.4-0.3-2-0.8C6.3,34.7,6,34,6,33.2V14.8c0-0.8,0.3-1.4,0.8-2
	C7.3,12.3,8,12,8.8,12H13l24,24H8.8z M41.2,35.2l-9.8-9.8v-2.6h-2.7l-3.4-3.5v-2.7h-2.7L18.1,12h21.2c0.8,0,1.4,0.3,2,0.8
	c0.5,0.5,0.8,1.2,0.8,2v18.4c0,0.4-0.1,0.8-0.2,1.1C41.6,34.6,41.4,34.9,41.2,35.2z"/>
</svg>
