<?xml version="1.0" encoding="utf-8"?>
<!-- Generator: Adobe Illustrator 26.3.1, SVG Export Plug-In . SVG Version: 6.00 Build 0)  -->
<svg version="1.1" id="Слой_1" xmlns="http://www.w3.org/2000/svg" xmlns:xlink="http://www.w3.org/1999/xlink" x="0px" y="0px"
	 viewBox="0 0 48 48" style="enable-background:new 0 0 48 48;" xml:space="preserve">
<path d="M14.6,33.4v-2.6h18.8v2.6H14.6z M6.5,25.3v-2.6h2.6v2.6H6.5z M14.6,25.3v-2.6h2.6v2.6H14.6z M22.7,25.3v-2.6h2.6v2.6H22.7z
	 M30.8,25.3v-2.6h2.6v2.6H30.8z M38.9,25.3v-2.6h2.6v2.6H38.9z M6.5,17.2v-2.6h2.6v2.6H6.5z M14.6,17.2v-2.6h2.6v2.6H14.6z
	 M22.7,17.2v-2.6h2.6v2.6H22.7z M30.8,17.2v-2.6h2.6v2.6H30.8z M38.9,17.2v-2.6h2.6v2.6H38.9z"/>
</svg>
