<?xml version="1.0" encoding="utf-8"?>
<!-- Generator: Adobe Illustrator 26.3.1, SVG Export Plug-In . SVG Version: 6.00 Build 0)  -->
<svg version="1.1" id="Слой_1" xmlns="http://www.w3.org/2000/svg" xmlns:xlink="http://www.w3.org/1999/xlink" x="0px" y="0px"
	 viewBox="0 0 48 48" style="enable-background:new 0 0 48 48;" xml:space="preserve">
<path d="M10.5,22.7v2.6h2.6v-2.6H10.5z M16.6,22.7v2.6h2.6v-2.6H16.6z M22.7,22.7v2.6h2.6v-2.6H22.7z M10.5,16.6v2.6h2.6v-2.6H10.5z
	 M16.6,16.6v2.6h2.6v-2.6H16.6z M22.7,16.6v2.6h2.6v-2.6H22.7z M28.8,16.6v2.6h2.6v-2.6H28.8z M34.9,16.6v2.6h2.6v-2.6H34.9z
	 M35.7,41.5l-1.1-1.1L39,36H29v-1.5h10L34.6,30l1.1-1.1l6.3,6.3C42,35.2,35.7,41.5,35.7,41.5z M24.1,36H8.8c-0.8,0-1.4-0.3-2-0.8
	C6.3,34.7,6,34,6,33.2V14.8c0-0.8,0.3-1.4,0.8-2C7.3,12.3,8,12,8.8,12h30.5c0.8,0,1.4,0.3,2,0.8c0.5,0.5,0.8,1.2,0.8,2v10.7
	c-0.7-0.4-1.4-0.8-2.2-1.1c-0.8-0.3-1.5-0.5-2.3-0.6v-1.1H35v1c-0.6,0-1.2,0.1-1.8,0.3c-0.6,0.1-1.1,0.3-1.7,0.5v-1.8h-2.6v2.6h0.9
	c-0.7,0.5-1.4,1-2,1.6s-1.2,1.2-1.7,1.9H16v2.6h8.8c-0.2,0.6-0.4,1.2-0.5,1.8c-0.1,0.6-0.2,1.3-0.2,2v0.4
	C24.1,35.7,24.1,35.9,24.1,36z"/>
</svg>
