<?xml version="1.0" encoding="utf-8"?>
<!-- Generator: Adobe Illustrator 26.3.1, SVG Export Plug-In . SVG Version: 6.00 Build 0)  -->
<svg version="1.1" id="Слой_1" xmlns="http://www.w3.org/2000/svg" xmlns:xlink="http://www.w3.org/1999/xlink" x="0px" y="0px"
	 viewBox="0 0 48 48" style="enable-background:new 0 0 48 48;" xml:space="preserve">
<path d="M16,33.4h16v-2.6H16V33.4z M10.5,27.3h2.6v-2.6h-2.6V27.3z M16.6,27.3h2.6v-2.6h-2.6V27.3z M22.7,27.3h2.6v-2.6h-2.6V27.3z
	 M28.8,27.3h2.6v-2.6h-2.6V27.3z M34.9,27.3h2.6v-2.6h-2.6C34.9,24.7,34.9,27.3,34.9,27.3z M8.8,38c-0.8,0-1.4-0.3-2-0.8
	C6.3,36.7,6,36,6,35.2V12.8c0-0.8,0.3-1.4,0.8-2C7.3,10.3,8,10,8.8,10h30.5c0.8,0,1.4,0.3,2,0.8c0.5,0.5,0.8,1.2,0.8,2v22.5
	c0,0.8-0.3,1.4-0.8,2c-0.5,0.5-1.2,0.8-2,0.8L8.8,38L8.8,38z M7.5,19.1h32.9v-6.3c0-0.3-0.1-0.6-0.4-0.8s-0.5-0.4-0.8-0.4H8.8
	c-0.3,0-0.6,0.1-0.8,0.4c-0.3,0.3-0.4,0.5-0.4,0.8L7.5,19.1L7.5,19.1z"/>
</svg>
