<?xml version="1.0" encoding="utf-8"?>
<!-- Generator: Adobe Illustrator 26.3.1, SVG Export Plug-In . SVG Version: 6.00 Build 0)  -->
<svg version="1.1" id="Слой_1" xmlns="http://www.w3.org/2000/svg" xmlns:xlink="http://www.w3.org/1999/xlink" x="0px" y="0px"
	 viewBox="0 0 48 48" style="enable-background:new 0 0 48 48;" xml:space="preserve">
<path d="M8.8,36c-0.8,0-1.4-0.3-2-0.8C6.3,34.7,6,34,6,33.2V14.8c0-0.8,0.3-1.4,0.8-2C7.3,12.3,8,12,8.8,12h30.5
	c0.8,0,1.4,0.3,2,0.8c0.5,0.5,0.8,1.2,0.8,2v18.5c0,0.8-0.3,1.4-0.8,2c-0.5,0.5-1.2,0.8-2,0.8L8.8,36L8.8,36z M16,31.4h16v-2.6H16
	V31.4z M10.5,25.3h2.6v-2.6h-2.6V25.3z M16.6,25.3h2.6v-2.6h-2.6V25.3z M22.7,25.3h2.6v-2.6h-2.6V25.3z M28.8,25.3h2.6v-2.6h-2.6
	V25.3z M34.9,25.3h2.6v-2.6h-2.6C34.9,22.7,34.9,25.3,34.9,25.3z M10.5,19.2h2.6v-2.6h-2.6V19.2z M16.6,19.2h2.6v-2.6h-2.6V19.2z
	 M22.7,19.2h2.6v-2.6h-2.6V19.2z M28.8,19.2h2.6v-2.6h-2.6V19.2z M34.9,19.2h2.6v-2.6h-2.6V19.2z"/>
</svg>
