<?xml version="1.0" encoding="utf-8"?>
<!-- Generator: Adobe Illustrator 26.3.1, SVG Export Plug-In . SVG Version: 6.00 Build 0)  -->
<svg version="1.1" id="Слой_1" xmlns="http://www.w3.org/2000/svg" xmlns:xlink="http://www.w3.org/1999/xlink" x="0px" y="0px"
	 viewBox="0 0 48 48" style="enable-background:new 0 0 48 48;" xml:space="preserve">
<path d="M8.8,42c-0.8,0-1.4-0.3-2-0.8C6.3,40.7,6,40,6,39.2V20.8c0-0.8,0.3-1.4,0.8-2C7.3,18.3,8,18,8.8,18h30.5
	c0.8,0,1.4,0.3,2,0.8c0.5,0.5,0.8,1.2,0.8,2v18.5c0,0.8-0.3,1.4-0.8,2c-0.5,0.5-1.2,0.8-2,0.8L8.8,42L8.8,42z M16,37.4h16v-2.6H16
	C16,34.8,16,37.4,16,37.4z M10.5,31.3h2.6v-2.6h-2.6V31.3z M16.6,31.3h2.6v-2.6h-2.6V31.3z M22.7,31.3h2.6v-2.6h-2.6V31.3z
	 M28.8,31.3h2.6v-2.6h-2.6V31.3z M34.9,31.3h2.6v-2.6h-2.6C34.9,28.7,34.9,31.3,34.9,31.3z M10.5,25.2h2.6v-2.6h-2.6V25.2z
	 M16.6,25.2h2.6v-2.6h-2.6V25.2z M22.7,25.2h2.6v-2.6h-2.6V25.2z M28.8,25.2h2.6v-2.6h-2.6V25.2z M34.9,25.2h2.6v-2.6h-2.6V25.2z
	 M13.2,13.1V5.5h1.5v4.6c1-1.4,2.3-2.5,3.9-3.3s3.3-1.2,5.1-1.2c2.4,0,4.6,0.7,6.5,2.1c1.9,1.4,3.2,3.2,4,5.5h-1.7
	c-0.7-1.8-1.8-3.3-3.4-4.4s-3.4-1.6-5.4-1.6c-1.7,0-3.3,0.4-4.7,1.2c-1.4,0.8-2.6,1.9-3.4,3.3h5.1v1.5
	C20.8,13.1,13.2,13.1,13.2,13.1z"/>
</svg>
