<?xml version="1.0" encoding="utf-8"?>
<!-- Generator: Adobe Illustrator 26.3.1, SVG Export Plug-In . SVG Version: 6.00 Build 0)  -->
<svg version="1.1" id="Слой_1" xmlns="http://www.w3.org/2000/svg" xmlns:xlink="http://www.w3.org/1999/xlink" x="0px" y="0px"
	 viewBox="0 0 48 48" style="enable-background:new 0 0 48 48;" xml:space="preserve">
<path d="M32.8,42c-0.5,0-0.9-0.2-1.3-0.6c-0.4-0.4-0.6-0.9-0.6-1.3v-5.4c0-0.5,0.2-0.9,0.6-1.3c0.4-0.4,0.9-0.6,1.3-0.6h0.1v-2
	c0-1,0.3-1.9,1-2.6s1.5-1.1,2.5-1.1s1.9,0.4,2.5,1.1c0.7,0.7,1,1.6,1,2.6v2H40c0.5,0,0.9,0.2,1.3,0.6c0.4,0.4,0.6,0.8,0.6,1.3v5.4
	c0,0.4-0.2,0.9-0.6,1.3C41,41.8,40.6,42,40.1,42H32.8z M34.4,32.8h4.1v-2c0-0.6-0.2-1.1-0.6-1.5c-0.4-0.4-0.9-0.6-1.4-0.6
	c-0.6,0-1.1,0.2-1.5,0.6s-0.6,0.9-0.6,1.5V32.8z M10.5,25.3h2.6v-2.6h-2.6V25.3z M16.6,25.3h2.6v-2.6h-2.6V25.3z M22.7,25.3h2.6
	v-2.6h-2.6V25.3z M28.8,25.3h2.6v-2.6h-2.6V25.3z M10.5,19.2h2.6v-2.6h-2.6V19.2z M16.6,19.2h2.6v-2.6h-2.6V19.2z M22.7,19.2h2.6
	v-2.6h-2.6V19.2z M28.8,19.2h2.6v-2.6h-2.6V19.2z M34.9,19.2h2.6v-2.6h-2.6V19.2z M27,33.6V36H8.8c-0.8,0-1.4-0.3-2-0.8
	C6.3,34.7,6,34,6,33.2V14.8c0-0.8,0.3-1.4,0.8-2C7.3,12.3,8,12,8.8,12h30.5c0.8,0,1.4,0.3,2,0.8c0.5,0.5,0.8,1.2,0.8,2v11.3
	c-0.7-0.5-1.4-0.9-2.1-1.2c-0.8-0.3-1.6-0.5-2.4-0.6v-1.6H35v1.7c-1.4,0.2-2.7,0.7-3.8,1.5c-1.1,0.8-2,1.7-2.7,2.9H16v2.6h11.3
	c-0.1,0.4-0.2,0.7-0.2,1.1S27,33.3,27,33.6z"/>
</svg>
