<?xml version="1.0" encoding="utf-8"?>
<!-- Generator: Adobe Illustrator 26.3.1, SVG Export Plug-In . SVG Version: 6.00 Build 0)  -->
<svg version="1.1" id="Слой_1" xmlns="http://www.w3.org/2000/svg" xmlns:xlink="http://www.w3.org/1999/xlink" x="0px" y="0px"
	 viewBox="0 0 48 48" style="enable-background:new 0 0 48 48;" xml:space="preserve">
<path d="M9,36H8.1l-0.6-4H6v-7.1c0-0.8,0.3-1.5,0.8-2c0.5-0.6,1.2-0.8,2-0.8h1.4v-5.3c0-0.7,0.3-1.4,0.8-1.9s1.2-0.8,2-0.8h22.2
	c0.7,0,1.4,0.3,1.9,0.8s0.8,1.2,0.8,1.9v5.3h1.4c0.7,0,1.4,0.3,1.9,0.8s0.8,1.2,0.8,1.9V32h-1.5l-0.6,4H39l-0.6-4H9.6L9,36z
	 M24.8,22.1h11.5v-5.3c0-0.4-0.1-0.7-0.4-0.9c-0.2-0.2-0.5-0.3-0.9-0.3H24.8V22.1z M11.7,22.1h11.5v-6.5H12.9
	c-0.4,0-0.7,0.1-0.9,0.3s-0.3,0.5-0.3,0.9V22.1z"/>
</svg>
