<?xml version="1.0" encoding="utf-8"?>
<!-- Generator: Adobe Illustrator 26.3.1, SVG Export Plug-In . SVG Version: 6.00 Build 0)  -->
<svg version="1.1" id="Слой_1" xmlns="http://www.w3.org/2000/svg" xmlns:xlink="http://www.w3.org/1999/xlink" x="0px" y="0px"
	 viewBox="0 0 48 48" style="enable-background:new 0 0 48 48;" xml:space="preserve">
<path d="M16.1,15.8h1.5v-5.2h-1.5V15.8z M16.1,32h1.5v-8.6h-1.5V32z M12.8,42c-0.7,0-1.4-0.3-1.9-0.8c-0.6-0.6-0.9-1.2-0.9-2V20.4
	h28v18.9c0,0.7-0.3,1.4-0.8,1.9c-0.6,0.5-1.2,0.8-2,0.8H12.8z M10,18.8v-10c0-0.7,0.3-1.4,0.8-1.9C11.4,6.3,12,6,12.8,6h22.5
	c0.7,0,1.4,0.3,1.9,0.8C37.7,7.4,38,8,38,8.8v10.1H10V18.8z"/>
</svg>
