<?xml version="1.0" encoding="utf-8"?>
<!-- Generator: Adobe Illustrator 26.3.1, SVG Export Plug-In . SVG Version: 6.00 Build 0)  -->
<svg version="1.1" id="Слой_1" xmlns="http://www.w3.org/2000/svg" xmlns:xlink="http://www.w3.org/1999/xlink" x="0px" y="0px"
	 viewBox="0 0 48 48" style="enable-background:new 0 0 48 48;" xml:space="preserve">
<path d="M6.8,40c-0.8,0-1.4-0.3-2-0.8C4.3,38.6,4,38,4,37.2v-8.5c0-0.8,0.3-1.4,0.8-2C5.4,26.3,6,26,6.8,26H8v-9.2H7.6
	c-0.5,0-0.8-0.2-1.2-0.5C6.2,16,6,15.6,6,15.2v-3.5c0-0.4,0.2-0.8,0.5-1.1s0.7-0.5,1.1-0.5h10.8c0.4,0,0.8,0.2,1.1,0.5
	c0.3,0.3,0.5,0.7,0.5,1.1v3.5c0,0.5-0.2,0.9-0.5,1.2s-0.7,0.5-1.2,0.5H18V26h12v-9.2h-0.4c-0.5,0-0.8-0.2-1.2-0.5
	C28.2,16,28,15.6,28,15.2v-3.5c0-0.4,0.2-0.8,0.5-1.1s0.7-0.5,1.1-0.5h10.8c0.4,0,0.8,0.2,1.1,0.5s0.5,0.7,0.5,1.1v3.5
	c0,0.5-0.2,0.9-0.5,1.2s-0.7,0.5-1.2,0.5H40V26h1.2c0.8,0,1.4,0.3,2,0.8c0.5,0.5,0.8,1.2,0.8,2v8.5c0,0.8-0.3,1.4-0.8,2
	c-0.5,0.5-1.2,0.8-2,0.8L6.8,40L6.8,40z M31.5,26h6.9v-9.2h-6.9C31.5,16.8,31.5,26,31.5,26z M9.5,26h6.9v-9.2H9.5V26z"/>
</svg>
