<?xml version="1.0" encoding="utf-8"?>
<!-- Generator: Adobe Illustrator 26.3.1, SVG Export Plug-In . SVG Version: 6.00 Build 0)  -->
<svg version="1.1" id="Слой_1" xmlns="http://www.w3.org/2000/svg" xmlns:xlink="http://www.w3.org/1999/xlink" x="0px" y="0px"
	 viewBox="0 0 48 48" style="enable-background:new 0 0 48 48;" xml:space="preserve">
<path d="M24,42c-2.4,0-4.5-0.8-6.1-2.5c-1.7-1.7-2.5-3.7-2.5-6.1V15.3c-0.9,0-1.7-0.3-2.3-0.9c-0.6-0.6-1-1.4-1-2.3V9.3
	c0-0.9,0.3-1.7,1-2.3c0.6-0.6,1.4-1,2.3-1h17.3c0.9,0,1.7,0.3,2.4,1c0.7,0.6,1,1.4,1,2.3V12c0,0.9-0.3,1.7-1,2.3s-1.4,0.9-2.4,0.9
	V34c-0.2,2.3-1.1,4.1-2.7,5.7C28.3,41.2,26.3,42,24,42z M24,40.5c2,0,3.7-0.7,5-2c1.4-1.3,2.1-3,2.1-5v-2h-6.8V30h6.8v-6.2h-6.8
	v-1.5h6.8v-7H16.8v18.2c0,2,0.7,3.6,2.1,5C20.3,39.8,22,40.5,24,40.5z"/>
</svg>
