<?xml version="1.0" encoding="utf-8"?>
<!-- Generator: Adobe Illustrator 26.3.1, SVG Export Plug-In . SVG Version: 6.00 Build 0)  -->
<svg version="1.1" id="Слой_1" xmlns="http://www.w3.org/2000/svg" xmlns:xlink="http://www.w3.org/1999/xlink" x="0px" y="0px"
	 viewBox="0 0 48 48" style="enable-background:new 0 0 48 48;" xml:space="preserve">
<path d="M6,42v-7.1l6,1.9l19.2-6.4L40,42H6z M12,35.2l-6-2v-5.9l6,1.9l10.1-3.3l7.8,3.3L12,35.2z M35.8,26.5l6.7-3v-5.1L36,16.9
	l-3.5,2.8v4.1L35.8,26.5z M12,27.6l-6-2V18h9l5.3,6.9L12,27.6z M24.2,15.3l7.8-3.1v-7l-7.6-1.5l-4.4,3v5.8
	C20,12.5,24.2,15.3,24.2,15.3z"/>
</svg>
