<?xml version="1.0" encoding="utf-8"?>
<!-- Generator: Adobe Illustrator 26.3.1, SVG Export Plug-In . SVG Version: 6.00 Build 0)  -->
<svg version="1.1" id="Слой_1" xmlns="http://www.w3.org/2000/svg" xmlns:xlink="http://www.w3.org/1999/xlink" x="0px" y="0px"
	 viewBox="0 0 48 48" style="enable-background:new 0 0 48 48;" xml:space="preserve">
<path d="M4.3,38l5.9-11.3c0.2-0.4,0.6-0.8,1-1.1c0.4-0.3,0.9-0.4,1.4-0.4c0.6,0,1.1,0.2,1.6,0.5s0.8,0.7,1,1.2l1.3,3
	c0.3,0.6,0.9,0.9,1.7,0.9c0.8-0.1,1.3-0.4,1.5-1L24,16.1c0.4-1.3,1.2-2.3,2.3-3c1.1-0.8,2.3-1.1,3.6-1.1c1.3,0,2.5,0.4,3.6,1.1
	c1.1,0.7,1.9,1.7,2.3,3l8,22L4.3,38L4.3,38z M12,19.5c-1.3,0-2.5-0.5-3.4-1.4S7.2,16,7.2,14.7s0.5-2.5,1.4-3.4S10.7,10,12,10
	s2.4,0.5,3.3,1.4s1.4,2,1.4,3.4c0,1.3-0.5,2.5-1.4,3.4C14.4,19,13.3,19.5,12,19.5z"/>
</svg>
