<?xml version="1.0" encoding="utf-8"?>
<!-- Generator: Adobe Illustrator 26.3.1, SVG Export Plug-In . SVG Version: 6.00 Build 0)  -->
<svg version="1.1" id="Слой_1" xmlns="http://www.w3.org/2000/svg" xmlns:xlink="http://www.w3.org/1999/xlink" x="0px" y="0px"
	 viewBox="0 0 48 48" style="enable-background:new 0 0 48 48;" xml:space="preserve">
<path d="M27.8,31.5H37c0.4,0,0.7-0.1,0.9-0.3c0.2-0.2,0.3-0.5,0.3-0.9V26c0-0.4-0.1-0.7-0.3-0.9c-0.2-0.2-0.5-0.3-0.9-0.3h-9.3
	L27.8,31.5L27.8,31.5z M27.8,23.2H37c0.4,0,0.7-0.1,0.9-0.3c0.2-0.2,0.3-0.5,0.3-0.9v-4.2c0-0.4-0.1-0.7-0.3-0.9
	c-0.2-0.2-0.5-0.3-0.9-0.3h-9.3C27.8,16.5,27.8,23.2,27.8,23.2z M11,33c-0.7,0-1.4-0.3-1.9-0.8S8.3,31,8.3,30.3V17.8
	c0-0.7,0.3-1.4,0.8-1.9C9.6,15.3,10.2,15,11,15h8c0.5,0,1,0.1,1.5,0.4c0.5,0.3,0.8,0.6,1,1.1H11c-0.4,0-0.7,0.1-0.9,0.3
	c-0.2,0.2-0.3,0.5-0.3,0.9v12.5c0,0.4,0.1,0.7,0.3,0.9c0.2,0.2,0.5,0.3,0.9,0.3h8c0.4,0,0.7-0.1,0.9-0.3c0.2-0.2,0.3-0.5,0.3-0.9
	v-5.5h-4.4v-1.5h5.9v7c0,0.7-0.3,1.4-0.8,1.9C20.4,32.7,19.7,33,19,33H11z M26.2,33V15H37c0.7,0,1.4,0.3,1.9,0.8
	c0.5,0.5,0.8,1.2,0.8,1.9v4c0,0.5-0.1,0.9-0.4,1.3s-0.6,0.7-1,0.9c0.4,0.2,0.8,0.5,1,0.9c0.3,0.4,0.4,0.8,0.4,1.3v4
	c0,0.7-0.3,1.4-0.8,1.9c-0.5,0.7-1.1,1-1.9,1H26.2z"/>
</svg>
