<?xml version="1.0" encoding="utf-8"?>
<!-- Generator: Adobe Illustrator 26.3.1, SVG Export Plug-In . SVG Version: 6.00 Build 0)  -->
<svg version="1.1" id="Слой_1" xmlns="http://www.w3.org/2000/svg" xmlns:xlink="http://www.w3.org/1999/xlink" x="0px" y="0px"
	 viewBox="0 0 48 48" style="enable-background:new 0 0 48 48;" xml:space="preserve">
<path d="M24,42c-2.5,0-4.8-0.5-7-1.4s-4.1-2.2-5.7-3.9c-1.6-1.6-2.9-3.5-3.8-5.7c-1-2.2-1.5-4.5-1.5-7.1c0-2.5,0.5-4.8,1.4-7
	s2.2-4.1,3.8-5.7s3.5-2.9,5.7-3.8C19.2,6.5,21.5,6,24,6s4.8,0.5,7,1.4s4.1,2.2,5.7,3.8c1.6,1.6,2.9,3.5,3.8,5.7
	c0.9,2.2,1.4,4.5,1.4,7s-0.5,4.9-1.4,7.1s-2.2,4.1-3.8,5.7c-1.6,1.6-3.5,2.9-5.7,3.9C28.8,41.5,26.5,42,24,42z M24,40.6
	c1.3-1.5,2.4-3,3.2-4.6c0.8-1.6,1.5-3.4,2-5.5H18.8c0.5,2.2,1.2,4,2,5.6C21.6,37.6,22.7,39.1,24,40.6z M21.9,40.3
	c-1-1.2-2-2.6-2.8-4.4c-0.8-1.8-1.5-3.6-1.9-5.5H8.8c1.3,2.8,3,5,5.2,6.7S18.8,39.8,21.9,40.3z M26.1,40.3c2.8-0.4,5.4-1.5,7.7-3.2
	s4.1-4,5.4-6.7h-8.4c-0.6,2-1.3,3.8-2.1,5.5C27.9,37.7,27.1,39.2,26.1,40.3z M8.3,28.9h8.6c-0.2-0.9-0.3-1.8-0.3-2.6
	c-0.1-0.8-0.1-1.6-0.1-2.4s0-1.6,0.1-2.4s0.2-1.6,0.3-2.5H8.3c-0.3,0.7-0.4,1.5-0.6,2.3c-0.1,0.8-0.2,1.7-0.2,2.5
	c0,0.9,0.1,1.8,0.2,2.6C7.8,27.3,8,28.1,8.3,28.9z M18.5,28.9h11.1c0.2-1,0.3-1.9,0.3-2.6c0.1-0.8,0.1-1.5,0.1-2.4
	c0-0.8,0-1.5-0.1-2.3c-0.1-0.7-0.2-1.6-0.3-2.6H18.5c-0.2,1-0.3,1.8-0.3,2.6c-0.1,0.7-0.1,1.5-0.1,2.3s0,1.6,0.1,2.4
	C18.2,27.1,18.3,27.9,18.5,28.9z M31.1,28.9h8.6c0.3-0.8,0.4-1.6,0.6-2.4c0.1-0.8,0.2-1.7,0.2-2.6s-0.1-1.7-0.2-2.5
	c-0.1-0.8-0.3-1.6-0.6-2.3h-8.6c0.1,1,0.2,1.9,0.3,2.7c0.1,0.8,0.1,1.5,0.1,2.1c0,0.8,0,1.5-0.1,2.3C31.4,27.1,31.2,27.9,31.1,28.9z
	 M30.8,17.5h8.4c-1.3-2.8-3-5.1-5.3-6.8S29,7.9,26,7.5c1,1.3,2,2.8,2.8,4.5C29.7,13.8,30.3,15.6,30.8,17.5z M18.8,17.5h10.5
	c-0.5-2-1.2-3.8-2.1-5.5S25.3,8.8,24,7.5c-1.2,1.2-2.2,2.6-3,4.2C20.2,13.2,19.4,15.2,18.8,17.5z M8.8,17.5h8.4
	c0.5-1.9,1.1-3.7,1.9-5.4s1.7-3.2,2.8-4.5c-3,0.4-5.6,1.5-7.9,3.2C11.8,12.5,10,14.7,8.8,17.5z"/>
</svg>
