<?xml version="1.0" encoding="utf-8"?>
<!-- Generator: Adobe Illustrator 26.3.1, SVG Export Plug-In . SVG Version: 6.00 Build 0)  -->
<svg version="1.1" id="Слой_1" xmlns="http://www.w3.org/2000/svg" xmlns:xlink="http://www.w3.org/1999/xlink" x="0px" y="0px"
	 viewBox="0 0 48 48" style="enable-background:new 0 0 48 48;" xml:space="preserve">
<path d="M10.8,25.6c1,0,1.9-0.2,2.6-0.7s1.1-1.1,1.1-2.1c0-0.9-0.4-1.6-1.1-2.1c-0.7-0.5-1.6-0.7-2.6-0.7s-1.9,0.2-2.6,0.7
	c-0.7,0.5-1.1,1.1-1.1,2s0.4,1.6,1.1,2.1C8.9,25.4,9.8,25.6,10.8,25.6z M4.9,17.3V16H10v-3.1h1.4V16h5.2v1.3H4.9z M10.8,27
	c-1.4,0-2.6-0.4-3.6-1.1s-1.5-1.7-1.5-3s0.5-2.3,1.5-3s2.2-1.1,3.6-1.1s2.6,0.4,3.6,1.1s1.5,1.7,1.5,3s-0.5,2.3-1.5,3
	S12.2,27,10.8,27z M8.5,34.3v-5.7H10V33h11.7v1.4H8.5V34.3z M20,29.1V13.8h1.4v6.8h3.9V22h-3.9v7.2C21.4,29.1,20,29.1,20,29.1z
	 M34,33.2c1.1,0,2.3-0.3,3.4-0.9c1.1-0.6,2.2-1.4,3.3-2.5v-7.1c-1,0.2-1.9,0.4-2.7,0.6s-1.6,0.4-2.4,0.7c-1.8,0.6-3.2,1.4-4,2.3
	c-0.9,0.9-1.3,1.9-1.3,3.1c0,1.1,0.4,2.1,1.1,2.8C31.9,32.9,32.9,33.2,34,33.2z M34,34.6c-1.6,0-2.9-0.5-3.9-1.4
	c-1-1-1.5-2.2-1.5-3.8c0-1.5,0.5-2.8,1.6-3.8c1.1-1.1,2.7-2,4.9-2.7c0.6-0.2,1.3-0.4,2.3-0.6c0.9-0.2,2-0.4,3.3-0.7v-0.5
	c0-2-0.3-3.5-1-4.6c-0.7-1-1.8-1.5-3.5-1.5c-0.9,0-1.8,0.2-2.7,0.5s-1.9,0.8-2.8,1.5L30,15.8c1.1-0.7,2.1-1.2,3.2-1.6
	c1.1-0.4,2.1-0.5,3.2-0.5c2.1,0,3.6,0.7,4.6,2s1.4,3.1,1.4,5.5v13.2h-1.3l-0.2-2.7c-1.1,1-2.2,1.8-3.4,2.3
	C36.2,34.4,35,34.6,34,34.6z"/>
</svg>
