<?xml version="1.0" encoding="utf-8"?>
<!-- Generator: Adobe Illustrator 26.3.1, SVG Export Plug-In . SVG Version: 6.00 Build 0)  -->
<svg version="1.1" id="Слой_1" xmlns="http://www.w3.org/2000/svg" xmlns:xlink="http://www.w3.org/1999/xlink" x="0px" y="0px"
	 viewBox="0 0 48 48" style="enable-background:new 0 0 48 48;" xml:space="preserve">
<path d="M28.2,31.5h7.1c0.4,0,0.7-0.1,0.9-0.3c0.2-0.2,0.3-0.5,0.3-0.9V17.8c0-0.4-0.1-0.7-0.3-0.9c-0.2-0.2-0.5-0.3-0.9-0.3h-7.1
	c-0.4,0-0.7,0.1-0.9,0.3c-0.2,0.2-0.3,0.5-0.3,0.9v12.5c0,0.4,0.1,0.7,0.3,0.9C27.5,31.3,27.8,31.5,28.2,31.5z M12.8,33
	c-0.8,0-1.4-0.3-2-0.8c-0.5-0.5-0.8-1.2-0.8-2V17.8c0-0.8,0.3-1.4,0.8-2c0.5-0.5,1.2-0.8,2-0.8h8.4v1.5h-8.4c-0.4,0-0.7,0.1-0.9,0.3
	c-0.2,0.2-0.3,0.5-0.3,0.9v12.5c0,0.4,0.1,0.7,0.3,0.9c0.2,0.2,0.5,0.3,0.9,0.3h8.4V33H12.8z M28.2,33c-0.8,0-1.4-0.3-2-0.8
	c-0.5-0.5-0.8-1.2-0.8-2V17.8c0-0.8,0.3-1.4,0.8-2c0.5-0.5,1.2-0.8,2-0.8h7.1c0.8,0,1.4,0.3,2,0.8c0.5,0.5,0.8,1.2,0.8,2v12.5
	c0,0.8-0.3,1.4-0.8,2c-0.5,0.5-1.2,0.8-2,0.8L28.2,33L28.2,33z"/>
</svg>
