<?xml version="1.0" encoding="utf-8"?>
<!-- Generator: Adobe Illustrator 26.3.1, SVG Export Plug-In . SVG Version: 6.00 Build 0)  -->
<svg version="1.1" id="Слой_1" xmlns="http://www.w3.org/2000/svg" xmlns:xlink="http://www.w3.org/1999/xlink" x="0px" y="0px"
	 viewBox="0 0 48 48" style="enable-background:new 0 0 48 48;" xml:space="preserve">
<path d="M16.6,35.6l-0.8-1.2c2.4-0.4,4.4-1.3,5.9-2.6c1.5-1.3,2.2-2.8,2.2-4.6c0-1.1-0.4-2.2-1.3-3.1s-2-1.6-3.4-2.1
	c-0.9,2-1.8,3.8-2.9,5.4s-2.3,2.9-3.6,4.1c0.1,0.3,0.2,0.7,0.3,1c0.1,0.4,0.2,0.7,0.4,1.1L12,34.1c-0.1-0.2-0.1-0.4-0.2-0.7
	c-0.1-0.3-0.2-0.6-0.2-1c-1.1,0.6-2,1.1-2.8,1.3C8,34,7.3,34.1,6.5,34.1s-1.5-0.3-2.1-1c-0.6-0.6-0.9-1.4-0.9-2.3
	c0-1.8,0.6-3.5,1.8-5s3-2.9,5.2-3.9c0-0.8,0.1-1.6,0.1-2.4c0.1-0.8,0.1-1.6,0.2-2.3c-1,0-2.1,0-3.2,0s-2.1-0.1-3.2-0.1l-0.1-1.5
	c0.9,0.1,1.8,0.2,2.8,0.3c1,0.1,2.3,0.1,3.7,0c0.1-0.6,0.1-1.2,0.2-1.8c0.1-0.6,0.1-1.2,0.1-1.8l1.6,0.1c-0.1,0.6-0.3,1.1-0.4,1.7
	c-0.1,0.6-0.2,1.2-0.3,1.8c2-0.1,3.9-0.2,5.5-0.4c1.6-0.2,3.1-0.4,4.5-0.7v1.4c-1.6,0.3-3.3,0.5-4.9,0.6c-1.7,0.2-3.4,0.3-5.2,0.4
	c-0.1,0.7-0.2,1.4-0.2,2.1s-0.1,1.4-0.2,2.1c1.2-0.3,2.4-0.5,3.4-0.7c1.1-0.1,2.1-0.2,3.1-0.1c0.1-0.4,0.2-0.7,0.2-1
	s0.1-0.5,0.2-0.8l1.4,0.4c-0.1,0.2-0.2,0.4-0.2,0.7c-0.1,0.3-0.2,0.6-0.3,1c1.8,0.5,3.2,1.3,4.2,2.5s1.6,2.5,1.6,3.9
	c0,2-0.8,3.7-2.4,5.3C21.3,34.1,19.2,35.1,16.6,35.6z M6.9,32.7c0.7,0,1.3-0.1,2-0.4c0.7-0.3,1.5-0.7,2.3-1.3
	c-0.3-1.3-0.4-2.6-0.5-3.8c-0.1-1.3-0.2-2.6-0.2-3.9c-1.9,1.2-3.3,2.4-4.2,3.6C5.4,28,5,29.2,5,30.5c0,0.6,0.2,1.1,0.6,1.5
	C5.9,32.5,6.4,32.7,6.9,32.7z M12.4,30.1c1.2-1.2,2.3-2.5,3.2-3.8c0.9-1.4,1.7-2.8,2.3-4.4c-1-0.1-2,0-3,0.2s-2.1,0.4-3.1,0.8
	c-0.1,1-0.1,2.1,0,3.3C12,27.2,12.2,28.6,12.4,30.1z M34,33.2c1.1,0,2.3-0.3,3.4-0.9c1.1-0.6,2.2-1.4,3.3-2.5v-7
	c-1,0.2-1.9,0.4-2.7,0.6s-1.6,0.4-2.4,0.7c-1.8,0.6-3.2,1.4-4,2.3c-0.9,0.9-1.3,1.9-1.3,3.1c0,1.1,0.4,2.1,1.1,2.8
	C31.9,32.9,32.9,33.2,34,33.2z M34,34.6c-1.6,0-2.9-0.5-3.9-1.4c-1-1-1.5-2.2-1.5-3.8c0-1.5,0.5-2.8,1.6-3.8c1.1-1.1,2.7-2,4.9-2.7
	c0.6-0.2,1.3-0.4,2.2-0.6s2-0.4,3.3-0.7v-0.5c0-2-0.3-3.5-1-4.6c-0.7-1-1.8-1.5-3.5-1.5c-0.9,0-1.8,0.2-2.7,0.5s-1.9,0.8-2.8,1.5
	l-0.7-1.2c1.1-0.7,2.1-1.2,3.2-1.6c1.1-0.4,2.1-0.5,3.2-0.5c2.1,0,3.6,0.7,4.6,2s1.4,3.1,1.4,5.5v13.2H41l-0.2-2.7
	c-1.1,1-2.2,1.8-3.4,2.3C36.2,34.4,35,34.6,34,34.6z"/>
</svg>
