<?xml version="1.0" encoding="utf-8"?>
<!-- Generator: Adobe Illustrator 26.3.1, SVG Export Plug-In . SVG Version: 6.00 Build 0)  -->
<svg version="1.1" id="Слой_1" xmlns="http://www.w3.org/2000/svg" xmlns:xlink="http://www.w3.org/1999/xlink" x="0px" y="0px"
	 viewBox="0 0 48 48" style="enable-background:new 0 0 48 48;" xml:space="preserve">
<path d="M18,39.5l-1.1-1.1l4.4-4.4h-3.4c-3.3,0-6.1-1.2-8.4-3.5S6,25.3,6,22s1.2-6.2,3.5-8.5S14.6,10,18,10h12.1
	c3.3,0,6.1,1.2,8.5,3.5c2.3,2.3,3.5,5.2,3.5,8.5s-1.2,6.2-3.5,8.5C36.2,32.9,33.3,34,30,34v-1.5c2.9,0,5.4-1,7.4-3.1
	c2-2,3-4.5,3-7.4s-1-5.4-3-7.4s-4.5-3.1-7.4-3.1H17.9c-2.9,0-5.4,1-7.4,3.1c-2,2-3,4.5-3,7.4s1,5.4,3,7.4s4.5,3,7.4,3h3.3L16.9,28
	l1.1-1l6.3,6.3L18,39.5z"/>
</svg>
