<?xml version="1.0" encoding="utf-8"?>
<!-- Generator: Adobe Illustrator 26.3.1, SVG Export Plug-In . SVG Version: 6.00 Build 0)  -->
<svg version="1.1" id="Слой_1" xmlns="http://www.w3.org/2000/svg" xmlns:xlink="http://www.w3.org/1999/xlink" x="0px" y="0px"
	 viewBox="0 0 48 48" style="enable-background:new 0 0 48 48;" xml:space="preserve">
<path d="M7.6,22.2l-1.5-0.1c0.2-1.4,0.5-2.7,0.9-4s1-2.6,1.8-3.7l1.3,0.8c-0.7,1.1-1.2,2.2-1.6,3.4C8.1,19.8,7.8,21,7.6,22.2z
	 M11.2,36.7c-1-1-1.8-2-2.5-3.2S7.4,31.1,7,29.8l1.5-0.4c0.4,1.2,0.9,2.3,1.6,3.3c0.7,1,1.4,2,2.3,2.9L11.2,36.7z M15.1,10.1
	l-0.8-1.3C15.5,8,16.8,7.5,18.1,7c1.3-0.4,2.6-0.8,4-0.9l0.1,1.5c-1.3,0.2-2.5,0.4-3.7,0.8C17.4,8.8,16.3,9.4,15.1,10.1z M24.2,42
	c-1.1,0-2.2-0.1-3.2-0.3s-2-0.5-3-0.8l0.5-1.4c0.9,0.3,1.8,0.6,2.8,0.7c1,0.2,1.9,0.3,2.9,0.3C24.2,40.4,24.2,42,24.2,42z
	 M35.6,12.5c-0.9-0.9-1.9-1.7-3-2.4c-1.1-0.7-2.2-1.2-3.4-1.6L29.8,7c1.3,0.5,2.6,1.1,3.7,1.8c1.2,0.7,2.2,1.6,3.2,2.5L35.6,12.5z
	 M33,40.3l-1.7-9l7.2,1.8L38,34.2l-5.4-2.6l7.9,5.3l-0.8,1.2l-7.1-5.3l1.7,7.1C34.4,40,33,40.3,33,40.3z M40.4,23.9
	c0-0.9-0.1-1.9-0.2-2.9c-0.1-1-0.4-1.9-0.8-2.8l1.5-0.4c0.4,1,0.7,2,0.8,3c0.2,1,0.3,2,0.3,3.1C42,23.9,40.4,23.9,40.4,23.9z"/>
</svg>
