<?xml version="1.0" encoding="utf-8"?>
<!-- Generator: Adobe Illustrator 26.3.1, SVG Export Plug-In . SVG Version: 6.00 Build 0)  -->
<svg version="1.1" id="Слой_1" xmlns="http://www.w3.org/2000/svg" xmlns:xlink="http://www.w3.org/1999/xlink" x="0px" y="0px"
	 viewBox="0 0 48 48" style="enable-background:new 0 0 48 48;" xml:space="preserve">
<path d="M8,27.1v-1.5c2.4,0,4.7-0.5,6.9-1.4c2.1-0.9,4-2.2,5.6-3.8c1.6-1.6,2.9-3.5,3.8-5.6s1.4-4.4,1.4-6.9h1.5
	c0,2.6-0.5,5.1-1.5,7.5c-1,2.3-2.4,4.3-4.1,6.1c-1.7,1.7-3.7,3.1-6.1,4.1C13.1,26.6,10.7,27.1,8,27.1z M8,20.1v-1.5
	c2.9,0,5.4-1,7.5-3.1S18.6,11,18.6,8h1.5c0,3.4-1.2,6.2-3.5,8.6C14.2,18.9,11.4,20.1,8,20.1z M8,13V8h5c0,1.4-0.5,2.5-1.5,3.5
	S9.4,13,8,13z M20.9,40c0-2.7,0.5-5.1,1.5-7.5c1-2.3,2.4-4.3,4.1-6.1c1.7-1.7,3.8-3.1,6.1-4.1s4.8-1.5,7.5-1.5v1.5
	c-2.4,0-4.7,0.5-6.9,1.4c-2.1,0.9-4,2.2-5.6,3.8c-1.6,1.6-2.9,3.5-3.8,5.6s-1.4,4.4-1.4,6.9C22.4,40,20.9,40,20.9,40z M27.9,40
	c0-3.4,1.2-6.2,3.5-8.6c2.3-2.3,5.2-3.5,8.6-3.5v1.5c-2.9,0-5.4,1-7.5,3.1S29.4,37,29.4,40C29.5,40,27.9,40,27.9,40z M35,40
	c0-1.4,0.5-2.5,1.5-3.5S38.7,35,40,35v5H35z"/>
</svg>
