<?xml version="1.0" encoding="utf-8"?>
<!-- Generator: Adobe Illustrator 26.3.1, SVG Export Plug-In . SVG Version: 6.00 Build 0)  -->
<svg version="1.1" id="Слой_1" xmlns="http://www.w3.org/2000/svg" xmlns:xlink="http://www.w3.org/1999/xlink" x="0px" y="0px"
	 viewBox="0 0 48 48" style="enable-background:new 0 0 48 48;" xml:space="preserve">
<path d="M31.3,42v-8.6h1.5v6.4c1.8-2.1,3.2-4.5,4.1-7.2c1-2.7,1.4-5.5,1.4-8.6S38,18.1,37,15.4s-2.3-5.1-4.1-7.2v6.4h-1.5V6H40v1.5
	h-5.7c1.8,2.2,3.2,4.8,4.2,7.6S40,20.9,40,24s-0.5,6.1-1.5,8.9s-2.4,5.3-4.2,7.6H40V42H31.3z M16.8,32.8h-3.5v2.5h3.5V32.8z
	 M22.2,32.8h-3.7v2.5h3.7V32.8z M21.7,25.5v1.3h3.5v1.6h-3.5V30h-1.6v-1.6h-4.9V30h-1.6v-1.6H10v-1.6h3.6v-1.3h1.6v1.3h4.9v-1.3
	H21.7z M10.8,41.8c-0.1-0.3-0.3-0.6-0.5-0.8c-0.2-0.3-0.3-0.5-0.5-0.7c1.5-0.2,2.8-0.6,3.9-1.1s2-1.3,2.6-2.2H9.9v-1.6h1.8v-4.1h5.1
	v-1.8h1.7v1.8h5.3v4.1h1.6V37H19c1,1,2,1.7,3.1,2.3s2.3,0.9,3.5,1.1c-0.2,0.2-0.4,0.5-0.5,0.7s-0.3,0.5-0.4,0.8
	c-1.4-0.2-2.7-0.6-3.9-1.3c-1.2-0.7-2.3-1.6-3.1-2.8c-0.6,1-1.5,1.8-2.6,2.4C14,40.7,12.5,41.2,10.8,41.8z M12,20.8L10.4,20
	c0.8-1.3,1.5-2.6,2.1-3.9s1-2.8,1.4-4.5h-3.6V9.9h4c0.2-0.6,0.3-1.2,0.4-1.8c0.1-0.6,0.1-1.2,0.2-1.8L16.7,7
	c-0.1,0.7-0.2,1.2-0.3,1.7c-0.1,0.5-0.2,1-0.3,1.4h1.8c0.8,0,1.5,0.3,2.1,0.9c0.6,0.6,0.9,1.5,0.9,2.7c0,0.7-0.1,1.5-0.2,2.5
	c-0.1,0.9-0.3,1.8-0.6,2.6c-0.2,0.5-0.4,0.8-0.5,1.1c-0.2,0.2-0.4,0.4-0.6,0.6c-0.2,0.1-0.5,0.2-0.7,0.3c-0.3,0.1-0.5,0.1-0.8,0.1
	l-2-0.2L14.9,19h1.9c0.4,0,0.7-0.1,1-0.2c0.3-0.2,0.5-0.5,0.7-0.9c0.2-0.5,0.3-1.2,0.4-2c0.1-0.8,0.1-1.5,0.1-2.1
	c0-0.9-0.2-1.4-0.6-1.7s-0.8-0.4-1.3-0.4h-1.5c-0.4,1.6-0.9,3.1-1.5,4.6C13.6,17.8,12.9,19.3,12,20.8z M23,8.6
	c0.6,1,1.1,1.9,1.6,2.9s0.9,2.1,1.3,3.1L24,15.4c-0.3-1.1-0.6-2.1-1.1-3.1s-1-2-1.7-2.9L23,8.6z"/>
</svg>
