<?xml version="1.0" encoding="utf-8"?>
<!-- Generator: Adobe Illustrator 26.3.1, SVG Export Plug-In . SVG Version: 6.00 Build 0)  -->
<svg version="1.1" id="Слой_1" xmlns="http://www.w3.org/2000/svg" xmlns:xlink="http://www.w3.org/1999/xlink" x="0px" y="0px"
	 viewBox="0 0 48 48" style="enable-background:new 0 0 48 48;" xml:space="preserve">
<path d="M7.2,42v-1.5h13.5V42H7.2z M34,39.8c-0.8,0-1.5-0.3-2-0.9c-0.6-0.6-0.8-1.2-0.8-2h-5.7c-0.4,0-0.7-0.1-1-0.4
	c-0.3-0.2-0.4-0.6-0.4-1c0-2.4,1-4.3,2.8-5.9s3.9-2.5,6.4-2.6V8.2h1.5v18.9c2.5,0.2,4.6,1,6.4,2.6c1.8,1.6,2.7,3.6,2.8,5.9
	c0,0.4-0.1,0.7-0.4,1c-0.3,0.2-0.6,0.4-1,0.4h-5.7c0,0.8-0.3,1.5-0.8,2C35.5,39.6,34.8,39.8,34,39.8z M13.2,37V22H5.8
	c-0.5,0-0.8-0.2-1.1-0.5c-0.3-0.4-0.3-0.8-0.2-1.2L7.5,9C7.6,8.7,7.7,8.5,8,8.3C8.2,8.1,8.5,8,8.8,8h10.4c0.3,0,0.6,0.1,0.9,0.3
	c0.2,0.2,0.4,0.4,0.5,0.7l3,11.2c0.1,0.4,0.1,0.8-0.2,1.2c-0.3,0.4-0.6,0.5-1.1,0.5h-7.5v15L13.2,37L13.2,37z"/>
</svg>
