<?xml version="1.0" encoding="utf-8"?>
<!-- Generator: Adobe Illustrator 26.3.1, SVG Export Plug-In . SVG Version: 6.00 Build 0)  -->
<svg version="1.1" id="Слой_1" xmlns="http://www.w3.org/2000/svg" xmlns:xlink="http://www.w3.org/1999/xlink" x="0px" y="0px"
	 viewBox="0 0 48 48" style="enable-background:new 0 0 48 48;" xml:space="preserve">
<path d="M24,43.5c-4.5,0-7.9-0.5-10.2-1.6c-2.2-1.1-3.4-2.7-3.4-4.9c0-1.3,0.3-2.3,0.8-3c0.6-0.7,1.4-1.2,2.4-1.6
	c-0.4,0.2-0.7,0.5-0.9,0.9s-0.3,0.8-0.3,1.4c0,0.8,0.3,1.5,0.8,2.1s1.3,1.1,2.3,1.5s2.2,0.7,3.6,0.8c1.4,0.2,3.1,0.3,4.9,0.3
	s3.4-0.1,4.9-0.3c1.4-0.2,2.6-0.5,3.6-0.8c1-0.4,1.7-0.9,2.3-1.5c0.5-0.6,0.8-1.3,0.8-2.1c0-0.6-0.1-1-0.3-1.4s-0.5-0.6-0.9-0.9
	c1,0.4,1.8,0.9,2.4,1.6c0.6,0.7,0.8,1.7,0.8,3c0,2.2-1.1,3.8-3.4,4.9C31.9,43,28.5,43.5,24,43.5z M24,38.1c-3.1,0-5.6-0.3-7.5-0.9
	c-1.8-0.6-2.8-1.4-2.8-2.5s0.9-1.9,2.7-2.5c1.8-0.6,4.3-0.9,7.5-0.9s5.6,0.3,7.5,0.9c1.8,0.6,2.7,1.5,2.7,2.5s-0.9,1.9-2.7,2.5
	C29.6,37.8,27.1,38.1,24,38.1z M22.4,27.8v-8.4h-3.3l6.6-11.7V16H29L22.4,27.8z"/>
</svg>
