<?xml version="1.0" encoding="utf-8"?>
<!-- Generator: Adobe Illustrator 26.3.1, SVG Export Plug-In . SVG Version: 6.00 Build 0)  -->
<svg version="1.1" id="Слой_1" xmlns="http://www.w3.org/2000/svg" xmlns:xlink="http://www.w3.org/1999/xlink" x="0px" y="0px"
	 viewBox="0 0 48 48" style="enable-background:new 0 0 48 48;" xml:space="preserve">
<path d="M24,42c-2.5,0-4.8-0.5-7-1.4s-4.1-2.2-5.7-3.9c-1.6-1.6-2.9-3.5-3.9-5.7C6.5,28.8,6,26.5,6,24s0.5-4.8,1.4-7
	s2.2-4.1,3.9-5.7c1.6-1.6,3.5-2.9,5.7-3.8c2.2-1,4.5-1.5,7-1.5s4.8,0.5,7,1.4s4.1,2.2,5.7,3.8c1.6,1.6,2.9,3.5,3.8,5.7
	c0.9,2.2,1.4,4.5,1.4,7s-0.5,4.8-1.4,7s-2.2,4.1-3.8,5.7s-3.5,2.9-5.7,3.9S26.5,42,24,42z M24,36.9c0.4,0,0.9-0.1,1.2-0.3
	c0.4-0.2,0.6-0.6,0.8-1h-4c0.2,0.4,0.5,0.7,0.8,1C23.2,36.8,23.6,36.9,24,36.9z M18.6,32.2h10.8v-1.3H18.6V32.2z M18.2,27.8h11.5
	c1.1-0.8,2-1.9,2.6-3.2c0.7-1.3,1-2.7,1-4.2c0-2.6-0.9-4.8-2.7-6.6s-4-2.7-6.6-2.7s-4.8,0.9-6.6,2.7s-2.7,4-2.7,6.6
	c0,1.5,0.3,2.9,1,4.2C16.3,25.9,17.1,27,18.2,27.8z M18.8,26.5c-0.9-0.9-1.6-1.8-2.1-2.9s-0.8-2.1-0.8-3.2c0-2.2,0.8-4.1,2.4-5.7
	s3.5-2.4,5.7-2.4s4.1,0.8,5.7,2.4s2.4,3.5,2.4,5.7c0,1.1-0.3,2.2-0.8,3.2c-0.5,1.1-1.2,2-2.1,2.9C29.2,26.5,18.8,26.5,18.8,26.5z"/>
</svg>
