<?xml version="1.0" encoding="utf-8"?>
<!-- Generator: Adobe Illustrator 26.3.1, SVG Export Plug-In . SVG Version: 6.00 Build 0)  -->
<svg version="1.1" id="Слой_1" xmlns="http://www.w3.org/2000/svg" xmlns:xlink="http://www.w3.org/1999/xlink" x="0px" y="0px"
	 viewBox="0 0 48 48" style="enable-background:new 0 0 48 48;" xml:space="preserve">
<path d="M20.4,35.2c-0.8,0-1.4-0.3-2-0.8s-0.8-1.2-0.8-1.9v-4.3c-1.8-1.1-3.2-2.6-4.1-4.4C12.5,22,12,20,12,18
	c0-3.3,1.2-6.1,3.5-8.5C17.8,7.2,20.7,6,24,6s6.2,1.2,8.5,3.5S36,14.7,36,18c0,2.1-0.5,4-1.5,5.8s-2.4,3.3-4.1,4.4v4.3
	c0,0.7-0.3,1.4-0.8,1.9c-0.6,0.6-1.2,0.8-1.9,0.8C27.6,35.2,20.4,35.2,20.4,35.2z M20.3,42c-0.2,0-0.4-0.1-0.5-0.2
	c-0.1-0.1-0.2-0.3-0.2-0.5v-0.8h9v0.8c0,0.2-0.1,0.4-0.2,0.5C28.1,41.9,28,42,27.7,42H20.3z"/>
</svg>
