<?xml version="1.0" encoding="utf-8"?>
<!-- Generator: Adobe Illustrator 26.3.1, SVG Export Plug-In . SVG Version: 6.00 Build 0)  -->
<svg version="1.1" id="Слой_1" xmlns="http://www.w3.org/2000/svg" xmlns:xlink="http://www.w3.org/1999/xlink" x="0px" y="0px"
	 viewBox="0 0 48 48" style="enable-background:new 0 0 48 48;" xml:space="preserve">
<path d="M36.6,31.8l-1.3-1.3c1.5-0.4,2.8-1.1,3.7-2.3c1-1.2,1.4-2.6,1.4-4.1c0-1.8-0.6-3.4-1.9-4.7c-1.3-1.3-2.8-1.9-4.6-1.9h-7.1
	V16h7.1c2.2,0,4.1,0.8,5.7,2.4c1.6,1.6,2.4,3.5,2.4,5.8c0,1.7-0.5,3.2-1.5,4.6C39.4,30.1,38.2,31.1,36.6,31.8z M29.7,24.8l-1.5-1.5
	h2.7v1.5H29.7z M41.5,43.8L4.3,6.6l1.1-1.1l37.2,37.2C42.6,42.7,41.5,43.8,41.5,43.8z M21.5,32.2h-7.4c-2.3,0-4.2-0.8-5.8-2.4
	C6.8,28.2,6,26.3,6,24c0-2.2,0.7-4.1,2.2-5.7s3.3-2.4,5.5-2.5h0.9l1.5,1.5h-2c-1.8,0-3.4,0.6-4.7,1.9s-1.9,2.9-1.9,4.7
	s0.6,3.4,1.9,4.7c1.3,1.3,2.8,1.9,4.7,1.9h7.4C21.5,30.6,21.5,32.2,21.5,32.2z M17.2,24.8v-1.5H22l1.5,1.5H17.2z"/>
</svg>
