<?xml version="1.0" encoding="utf-8"?>
<!-- Generator: Adobe Illustrator 26.3.1, SVG Export Plug-In . SVG Version: 6.00 Build 0)  -->
<svg version="1.1" id="Слой_1" xmlns="http://www.w3.org/2000/svg" xmlns:xlink="http://www.w3.org/1999/xlink" x="0px" y="0px"
	 viewBox="0 0 48 48" style="enable-background:new 0 0 48 48;" xml:space="preserve">
<path d="M37.5,17.1c-1.7,0-3.1-0.6-4.4-1.7c-1.2-1.1-1.9-2.5-2.1-4.1H16.9c-0.2,1.5-0.8,2.8-1.8,3.8c-1,1.1-2.3,1.7-3.8,1.8v14
	c1.6,0.2,3,0.9,4.1,2.1c1.1,1.2,1.7,2.7,1.7,4.4c0,1.8-0.6,3.4-1.9,4.6c-1.3,1.3-2.8,1.9-4.6,1.9S7.2,43.3,6,42
	c-1.4-1.2-2-2.7-2-4.5c0-1.7,0.6-3.1,1.7-4.4c1.1-1.2,2.5-1.9,4.1-2.1V17c-1.6-0.2-3-0.9-4.1-2.1S4,12.2,4,10.5
	c0-1.8,0.6-3.4,1.9-4.6C7.1,4.6,8.7,4,10.5,4c1.7,0,3.1,0.6,4.4,1.7c1.2,1.1,1.9,2.5,2.1,4.1h14c0.2-1.6,0.9-3,2.1-4.1
	C34.3,4.6,35.8,4,37.5,4c1.8,0,3.3,0.6,4.6,1.9S44,8.7,44,10.5s-0.6,3.4-1.9,4.6C40.8,16.4,39.3,17.1,37.5,17.1z M37.5,44
	c-1.8,0-3.4-0.6-4.6-1.9c-1.3-1.3-1.9-2.8-1.9-4.6s0.6-3.4,1.9-4.7s2.8-1.9,4.6-1.9s3.4,0.6,4.6,1.9c1.3,1.3,1.9,2.8,1.9,4.7
	c0,1.8-0.6,3.4-1.9,4.6C40.8,43.4,39.3,44,37.5,44z"/>
</svg>
