<?xml version="1.0" encoding="utf-8"?>
<!-- Generator: Adobe Illustrator 26.3.1, SVG Export Plug-In . SVG Version: 6.00 Build 0)  -->
<svg version="1.1" id="Слой_1" xmlns="http://www.w3.org/2000/svg" xmlns:xlink="http://www.w3.org/1999/xlink" x="0px" y="0px"
	 viewBox="0 0 48 48" style="enable-background:new 0 0 48 48;" xml:space="preserve">
<path d="M8,42v-1.5h3.3v-7.3c-1.1-0.2-1.9-0.7-2.4-1.4C8.3,31,8,30.2,8,29.2V15h8.1v14.2c0,0.9-0.3,1.8-0.9,2.5
	c-0.6,0.8-1.4,1.3-2.5,1.5v7.3H16V42H8z M9.5,24.4h5.1v-7.8H9.5C9.5,16.5,9.5,24.4,9.5,24.4z M25.8,42c-0.4,0-0.8-0.2-1.1-0.5
	c-0.3-0.3-0.5-0.7-0.5-1.1v-20c0-0.3,0.1-0.6,0.3-0.8s0.5-0.4,0.8-0.5l1.9-0.8c1.1-0.4,1.9-0.9,2.4-1.5s0.8-1.6,0.8-2.9V7.4
	c0-0.4,0.1-0.7,0.4-1s0.6-0.4,1-0.4h2.4c0.4,0,0.7,0.1,1,0.4s0.4,0.6,0.4,1v6.5c0,1.3,0.3,2.3,0.9,2.9c0.6,0.6,1.4,1.1,2.5,1.5
	l1.9,0.8c0.3,0.1,0.6,0.3,0.8,0.5s0.3,0.5,0.3,0.8v20c0,0.4-0.2,0.8-0.5,1.1S40.8,42,40.4,42C40.5,42,25.8,42,25.8,42z M32.1,9.8
	h2.1V7.5h-2.1V9.8z M25.8,25.5h14.6v-5l-2-0.8c-1.3-0.5-2.3-1.2-3.1-2.1s-1.2-2.2-1.2-3.9v-2.4H32v2.4c0,1.7-0.4,3-1.1,3.8
	c-0.8,0.9-1.8,1.5-3,2l-2.1,0.9C25.8,20.5,25.8,25.5,25.8,25.5z M25.8,40.5h14.6v-5.9H25.8V40.5z"/>
</svg>
