<?xml version="1.0" encoding="utf-8"?>
<!-- Generator: Adobe Illustrator 26.3.1, SVG Export Plug-In . SVG Version: 6.00 Build 0)  -->
<svg version="1.1" id="Слой_1" xmlns="http://www.w3.org/2000/svg" xmlns:xlink="http://www.w3.org/1999/xlink" x="0px" y="0px"
	 viewBox="0 0 48 48" style="enable-background:new 0 0 48 48;" xml:space="preserve">
<path d="M35.3,45v-6h-6v-1.5h6v-6h1.5v6h6V39h-6v6H35.3z M15.8,32.9c0.4,0,0.7-0.1,0.9-0.4c0.2-0.3,0.4-0.6,0.4-0.9
	c0-0.4-0.1-0.7-0.4-0.9c-0.3-0.2-0.6-0.4-0.9-0.4c-0.4,0-0.7,0.1-0.9,0.4s-0.4,0.6-0.4,0.9c0,0.4,0.1,0.7,0.4,0.9
	C15.1,32.8,15.4,32.9,15.8,32.9z M15.8,25.3c0.4,0,0.7-0.1,0.9-0.4s0.4-0.6,0.4-0.9c0-0.4-0.1-0.7-0.4-0.9c-0.3-0.2-0.6-0.4-0.9-0.4
	c-0.4,0-0.7,0.1-0.9,0.4s-0.4,0.6-0.4,0.9c0,0.4,0.1,0.7,0.4,0.9C15.1,25.2,15.4,25.3,15.8,25.3z M15.8,17.7c0.4,0,0.7-0.1,0.9-0.4
	s0.4-0.6,0.4-0.9c0-0.4-0.1-0.7-0.4-0.9s-0.6-0.4-0.9-0.4c-0.4,0-0.7,0.1-0.9,0.4c-0.2,0.3-0.4,0.6-0.4,0.9c0,0.4,0.1,0.7,0.4,0.9
	C15.1,17.6,15.4,17.7,15.8,17.7z M22.2,24.8h10.9v-1.5H22.2V24.8z M22.2,17.1h10.9v-1.5H22.2V17.1z M10.8,40c-0.7,0-1.4-0.3-1.9-0.8
	C8.3,38.6,8,38,8,37.2V10.8c0-0.8,0.3-1.4,0.8-2C9.4,8.3,10,8,10.8,8h26.5c0.7,0,1.4,0.3,1.9,0.8c0.5,0.6,0.8,1.2,0.8,2v17.4
	c-0.6-0.2-1.3-0.4-1.9-0.5c-0.7-0.1-1.3-0.2-2-0.2c-1.6,0-3,0.3-4.3,0.9s-2.4,1.4-3.4,2.4h-6.1v1.5h4.9c-0.6,0.9-1,1.8-1.3,2.9
	c-0.3,1-0.5,2.1-0.5,3.2c0,0.3,0,0.5,0.1,0.8c0,0.3,0.1,0.5,0.1,0.7C25.5,40,10.8,40,10.8,40z"/>
</svg>
