<?xml version="1.0" encoding="utf-8"?>
<!-- Generator: Adobe Illustrator 26.3.1, SVG Export Plug-In . SVG Version: 6.00 Build 0)  -->
<svg version="1.1" id="Слой_1" xmlns="http://www.w3.org/2000/svg" xmlns:xlink="http://www.w3.org/1999/xlink" x="0px" y="0px"
	 viewBox="0 0 48 48" style="enable-background:new 0 0 48 48;" xml:space="preserve">
<path d="M10.8,40c-0.8,0-1.4-0.3-2-0.8C8.3,38.7,8,38,8,37.2V10.8c0-0.8,0.3-1.4,0.8-2C9.3,8.3,10,8,10.8,8h26.5
	c0.8,0,1.4,0.3,2,0.8c0.5,0.5,0.8,1.2,0.8,2v17.7l-5.3,5.3l-4.1-4.1l-7.1,7.2l3.1,3.2C26.5,40,10.8,40,10.8,40z M22.2,24.8h10.9
	v-1.5H22.2V24.8z M22.2,17.1h10.9v-1.5H22.2V17.1z M34.7,42l-5.2-5.2l1.1-1.2l4.1,4.1l8.2-8.2l1.1,1.1L34.7,42z M15.8,25.3
	c0.4,0,0.7-0.1,0.9-0.4s0.4-0.6,0.4-0.9c0-0.4-0.1-0.7-0.4-0.9c-0.3-0.2-0.6-0.4-0.9-0.4c-0.4,0-0.7,0.1-0.9,0.4s-0.4,0.6-0.4,0.9
	c0,0.4,0.1,0.7,0.4,0.9C15.1,25.2,15.4,25.3,15.8,25.3z M15.8,17.7c0.4,0,0.7-0.1,0.9-0.4s0.4-0.6,0.4-0.9c0-0.4-0.1-0.7-0.4-0.9
	s-0.6-0.4-0.9-0.4c-0.4,0-0.7,0.1-0.9,0.4c-0.2,0.3-0.4,0.6-0.4,0.9c0,0.4,0.1,0.7,0.4,0.9C15.1,17.6,15.4,17.7,15.8,17.7z"/>
</svg>
