<?xml version="1.0" encoding="utf-8"?>
<!-- Generator: Adobe Illustrator 26.3.1, SVG Export Plug-In . SVG Version: 6.00 Build 0)  -->
<svg version="1.1" id="Слой_1" xmlns="http://www.w3.org/2000/svg" xmlns:xlink="http://www.w3.org/1999/xlink" x="0px" y="0px"
	 viewBox="0 0 48 48" style="enable-background:new 0 0 48 48;" xml:space="preserve">
<path d="M24,43.2L18.8,38h-8.1c-0.8,0-1.4-0.3-2-0.8C8.3,36.7,8,36,8,35.2V8.8c0-0.8,0.3-1.4,0.8-2C9.3,6.3,10,6,10.8,6h26.5
	c0.8,0,1.4,0.3,2,0.8C39.7,7.3,40,8,40,8.8v26.5c0,0.8-0.3,1.4-0.8,2c-0.5,0.5-1.2,0.8-2,0.8h-8.1L24,43.2z M24.2,32.3
	c0.4,0,0.7-0.1,0.9-0.4s0.4-0.6,0.4-0.9c0-0.4-0.1-0.7-0.4-0.9s-0.6-0.4-0.9-0.4s-0.7,0.1-0.9,0.4s-0.4,0.6-0.4,0.9
	c0,0.4,0.1,0.7,0.4,0.9S23.9,32.3,24.2,32.3z M23.3,25.8h1.5c0-0.4,0.1-0.8,0.1-1.1c0.1-0.3,0.2-0.6,0.4-1c0.2-0.3,0.4-0.6,0.7-1
	c0.3-0.3,0.6-0.7,1-1.1c0.9-0.9,1.6-1.8,2-2.5s0.6-1.5,0.6-2.4c0-1.6-0.5-2.9-1.5-3.8c-1-0.9-2.3-1.4-3.8-1.4
	c-1.4,0-2.5,0.4-3.5,1.1c-1,0.7-1.7,1.6-2.2,2.5L20,16c0.4-0.8,1-1.5,1.6-2s1.5-0.7,2.6-0.7c1.3,0,2.3,0.4,2.9,1.1
	c0.6,0.7,0.9,1.5,0.9,2.5c0,0.7-0.2,1.4-0.6,1.9c-0.4,0.6-0.9,1.1-1.5,1.8c-0.5,0.5-0.9,1-1.3,1.4s-0.6,0.8-0.9,1.2
	c-0.2,0.4-0.3,0.8-0.4,1.3C23.3,24.8,23.3,25.3,23.3,25.8z"/>
</svg>
