<?xml version="1.0" encoding="utf-8"?>
<!-- Generator: Adobe Illustrator 26.3.1, SVG Export Plug-In . SVG Version: 6.00 Build 0)  -->
<svg version="1.1" id="Слой_1" xmlns="http://www.w3.org/2000/svg" xmlns:xlink="http://www.w3.org/1999/xlink" x="0px" y="0px"
	 viewBox="0 0 48 48" style="enable-background:new 0 0 48 48;" xml:space="preserve">
<path d="M8.8,42c-0.8,0-1.4-0.3-2-0.8C6.3,40.7,6,40,6,39.2V8.8c0-0.8,0.3-1.4,0.8-2C7.3,6.3,8,6,8.8,6h30.5c0.8,0,1.4,0.3,2,0.8
	C41.7,7.3,42,8,42,8.8v30.5c0,0.8-0.3,1.4-0.8,2c-0.5,0.5-1.2,0.8-2,0.8L8.8,42L8.8,42z M13.7,34.8h20.6c1.1,0,1.8-0.3,2.1-0.8
	s0.5-1.1,0.5-1.8V24c0-0.8-0.3-1.5-0.8-2.2c-0.5-0.6-1.1-1.1-1.8-1.3v-1.7c0-1.3-0.5-2.4-1.4-3.3c-0.9-0.9-2-1.3-3.3-1.3H18.4
	c-1.3,0-2.3,0.4-3.3,1.3c-0.9,0.9-1.4,2-1.4,3.3v1.7c-0.7,0.2-1.3,0.6-1.8,1.3c-0.5,0.6-0.8,1.4-0.8,2.2v8.2c0,1.1,0.2,1.8,0.7,2.1
	C12.4,34.6,13,34.8,13.7,34.8z M13.7,33.2c-0.3,0-0.5-0.1-0.7-0.3s-0.3-0.4-0.3-0.7V24c0-0.6,0.2-1.1,0.6-1.5
	c0.4-0.4,0.9-0.6,1.5-0.6s1.1,0.2,1.4,0.6c0.4,0.4,0.6,0.9,0.6,1.5v4.2h14.4V24c0-0.6,0.2-1.1,0.6-1.5s0.9-0.6,1.4-0.6
	c0.6,0,1.1,0.2,1.5,0.6s0.6,0.9,0.6,1.5v8.2c0,0.3-0.1,0.5-0.3,0.7s-0.4,0.3-0.7,0.3H13.7z M18.3,26.6V24c0-1-0.3-1.8-0.9-2.4
	s-1.3-1-2.1-1v-1.7c0-0.9,0.3-1.6,0.9-2.2c0.6-0.6,1.3-0.9,2.2-0.9h11.3c0.9,0,1.6,0.3,2.2,0.9c0.6,0.6,0.9,1.3,0.9,2.2v1.7
	c-0.8,0-1.5,0.4-2.1,1c-0.7,0.6-1,1.4-1,2.4v2.6H18.3z"/>
</svg>
