<?xml version="1.0" encoding="utf-8"?>
<!-- Generator: Adobe Illustrator 26.3.1, SVG Export Plug-In . SVG Version: 6.00 Build 0)  -->
<svg version="1.1" id="Слой_1" xmlns="http://www.w3.org/2000/svg" xmlns:xlink="http://www.w3.org/1999/xlink" x="0px" y="0px"
	 viewBox="0 0 48 48" style="enable-background:new 0 0 48 48;" xml:space="preserve">
<path d="M7.4,42c-0.4,0-0.7-0.1-1-0.4C6.1,41.3,6,41,6,40.6V28.2c0-0.4,0.1-0.7,0.4-1s0.6-0.4,1-0.4h6.8v-11c0-2.7,1-5,2.9-6.9
	C18.9,6.9,21.3,6,24,6h8.3c2.7,0,5,1,6.9,2.9s2.8,4.2,2.8,6.9V42h-1.5v-5.9H29.7v4.5c0,0.4-0.2,0.7-0.5,1S28.5,42,28.1,42H7.4z
	 M17.8,36l10.3-6v-1.7l-10.3,5.9L7.5,28.4V30L17.8,36z M29.7,34.6h10.8V15.8c0-2.3-0.8-4.2-2.4-5.8c-1.6-1.6-3.5-2.4-5.8-2.4H24
	c-2.3,0-4.3,0.8-5.9,2.4s-2.4,3.5-2.4,5.8v11.1h12.5c0.4,0,0.8,0.1,1.1,0.4c0.3,0.3,0.5,0.6,0.5,1C29.7,28.2,29.7,34.6,29.7,34.6z
	 M21,18.6v-1.5h14.1v1.5H21z"/>
</svg>
