<?xml version="1.0" encoding="utf-8"?>
<!-- Generator: Adobe Illustrator 26.3.1, SVG Export Plug-In . SVG Version: 6.00 Build 0)  -->
<svg version="1.1" id="Слой_1" xmlns="http://www.w3.org/2000/svg" xmlns:xlink="http://www.w3.org/1999/xlink" x="0px" y="0px"
	 viewBox="0 0 48 48" style="enable-background:new 0 0 48 48;" xml:space="preserve">
<path d="M24,28.8c1.3,0,2.5-0.5,3.4-1.4s1.4-2.1,1.4-3.4s-0.5-2.5-1.4-3.4s-2.1-1.4-3.4-1.4s-2.5,0.5-3.4,1.4s-1.4,2.1-1.4,3.4
	s0.5,2.5,1.4,3.4C21.6,28.3,22.7,28.8,24,28.8z M11.5,38.5h24.8v-0.1c0-0.5-0.1-0.9-0.2-1.3c-0.1-0.4-0.4-0.8-0.7-1.1
	c-1.7-1.3-3.5-2.2-5.4-2.9s-4-1-6.1-1c-2,0-4,0.3-5.9,1s-3.7,1.6-5.3,2.9c-0.4,0.3-0.7,0.6-0.8,1.1C11.6,37.5,11.5,37.9,11.5,38.5
	C11.5,38.4,11.5,38.5,11.5,38.5z M10,40V19L24,8.5L38,19v21H10z"/>
</svg>
