<?xml version="1.0" encoding="utf-8"?>
<!-- Generator: Adobe Illustrator 26.3.1, SVG Export Plug-In . SVG Version: 6.00 Build 0)  -->
<svg version="1.1" id="Слой_1" xmlns="http://www.w3.org/2000/svg" xmlns:xlink="http://www.w3.org/1999/xlink" x="0px" y="0px"
	 viewBox="0 0 48 48" style="enable-background:new 0 0 48 48;" xml:space="preserve">
<path d="M24.1,9.9c-0.7,0-1.2-0.2-1.7-0.7s-0.7-1-0.7-1.6c0-0.7,0.2-1.3,0.7-2c0.5-0.6,1-1.3,1.6-1.9c0.6,0.7,1.2,1.3,1.6,1.9
	c0.5,0.6,0.7,1.3,0.7,2c0,0.6-0.2,1.2-0.7,1.6C25.3,9.7,24.7,9.9,24.1,9.9z M14.3,9.9c-0.6,0-1.2-0.2-1.7-0.7s-0.7-1-0.7-1.6
	c0-0.7,0.2-1.3,0.7-2c0.5-0.6,1-1.3,1.6-1.9c0.6,0.7,1.1,1.3,1.6,1.9s0.7,1.3,0.7,2c0,0.6-0.2,1.2-0.7,1.6
	C15.5,9.7,14.9,9.9,14.3,9.9z M33.8,9.9c-0.6,0-1.2-0.2-1.7-0.7s-0.7-1-0.7-1.6c0-0.7,0.2-1.3,0.7-2c0.5-0.6,1-1.3,1.6-1.9
	C34.4,4.3,35,5,35.5,5.6s0.7,1.3,0.7,2c0,0.6-0.2,1.2-0.7,1.6C35,9.7,34.5,9.9,33.8,9.9z M9.5,39.9v3.3c0,0.2-0.1,0.4-0.2,0.6
	S9,44,8.8,44s-0.4-0.1-0.6-0.2S8,43.5,8,43.2V28.5l4-11.7c0.1-0.3,0.2-0.5,0.4-0.6s0.5-0.2,0.7-0.2H35c0.2,0,0.5,0.1,0.6,0.2
	c0.2,0.1,0.3,0.3,0.4,0.6l4,11.7v14.8c0,0.2-0.1,0.4-0.2,0.6S39.5,44,39.2,44l0,0c-0.2,0-0.4-0.1-0.6-0.2s-0.2-0.3-0.2-0.6v-3.3H9.5
	z M10.2,26.9h27.7l-3.2-9.4H13.4L10.2,26.9z M14.5,35.5c0.6,0,1.1-0.2,1.5-0.6c0.4-0.4,0.6-0.9,0.6-1.5s-0.2-1.1-0.6-1.5
	c-0.4-0.4-0.9-0.6-1.5-0.6s-1.1,0.2-1.5,0.6c-0.4,0.4-0.6,0.9-0.6,1.5s0.2,1.1,0.6,1.5S13.9,35.5,14.5,35.5z M33.5,35.5
	c0.6,0,1.1-0.2,1.5-0.6c0.4-0.4,0.6-0.9,0.6-1.5s-0.2-1.1-0.6-1.5c-0.4-0.4-0.9-0.6-1.5-0.6s-1.1,0.2-1.5,0.6
	c-0.4,0.4-0.6,0.9-0.6,1.5s0.2,1.1,0.6,1.5C32.4,35.3,32.9,35.5,33.5,35.5z"/>
</svg>
