<?xml version="1.0" encoding="utf-8"?>
<!-- Generator: Adobe Illustrator 26.3.1, SVG Export Plug-In . SVG Version: 6.00 Build 0)  -->
<svg version="1.1" id="Слой_1" xmlns="http://www.w3.org/2000/svg" xmlns:xlink="http://www.w3.org/1999/xlink" x="0px" y="0px"
	 viewBox="0 0 48 48" style="enable-background:new 0 0 48 48;" xml:space="preserve">
<path d="M10,40V10.8c0-0.8,0.3-1.4,0.8-2C11.3,8.3,12,8,12.8,8H23c0.8,0,1.4,0.3,2,0.8c0.5,0.5,0.8,1.2,0.8,2V23h2.4
	c0.7,0,1.3,0.3,1.8,0.8s0.8,1.1,0.8,1.8v10c0,0.8,0.3,1.5,0.9,2c0.6,0.6,1.3,0.8,2.1,0.8s1.5-0.3,2.1-0.8c0.6-0.6,0.9-1.2,0.9-2
	V21.8c-0.3,0.2-0.7,0.4-1.1,0.5c-0.4,0.1-0.7,0.2-1.1,0.2c-1,0-1.9-0.4-2.6-1.1c-0.7-0.7-1.1-1.6-1.1-2.6c0-0.9,0.3-1.7,0.8-2.4
	c0.5-0.7,1.3-1.1,2.2-1.2l-5.1-5.1l1-1.1l7,7c0.4,0.4,0.7,0.8,0.9,1.2c0.2,0.5,0.4,1,0.4,1.5v16.8c0,1.2-0.4,2.3-1.3,3.2
	c-0.9,0.9-1.9,1.3-3.2,1.3c-1.2,0-2.3-0.4-3.2-1.3c-0.9-0.9-1.3-1.9-1.3-3.2v-9.8c0-0.3-0.1-0.6-0.3-0.9c-0.2-0.2-0.5-0.4-0.9-0.4
	h-2.2V40H10z M11.5,21.2h12.7V10.8c0-0.3-0.1-0.6-0.4-0.8c-0.3-0.3-0.5-0.4-0.8-0.4H12.8c-0.3,0-0.6,0.1-0.8,0.4
	c-0.3,0.3-0.4,0.5-0.4,0.8v10.4H11.5z M34.4,20.9c0.6,0,1.1-0.2,1.5-0.6s0.6-0.9,0.6-1.5s-0.2-1.1-0.6-1.5c-0.4-0.4-0.9-0.6-1.5-0.6
	s-1.1,0.2-1.5,0.6s-0.6,0.9-0.6,1.5s0.2,1.1,0.6,1.5C33.3,20.7,33.8,20.9,34.4,20.9z"/>
</svg>
