<?xml version="1.0" encoding="utf-8"?>
<!-- Generator: Adobe Illustrator 26.3.1, SVG Export Plug-In . SVG Version: 6.00 Build 0)  -->
<svg version="1.1" id="Слой_1" xmlns="http://www.w3.org/2000/svg" xmlns:xlink="http://www.w3.org/1999/xlink" x="0px" y="0px"
	 viewBox="0 0 48 48" style="enable-background:new 0 0 48 48;" xml:space="preserve">
<path d="M24,19.5c1.1,0,2-0.4,2.7-1.1s1.1-1.6,1.1-2.6c0-1.1-0.4-2-1.1-2.7S25.1,12,24,12c-1,0-1.9,0.4-2.6,1.1
	c-0.7,0.7-1.1,1.6-1.1,2.7c0,1,0.4,1.9,1.1,2.6C22.1,19.1,23,19.5,24,19.5z M24,26.7c-1,0-1.9-0.3-2.7-0.9c-0.8-0.6-1.4-1.5-1.7-2.5
	c-0.2,0.1-0.4,0.1-0.6,0.1s-0.4,0-0.6,0c-1.2,0-2.3-0.4-3.2-1.3c-0.9-0.9-1.3-1.9-1.3-3.1c0-0.6,0.1-1.2,0.4-1.7
	c0.3-0.5,0.6-1.1,1-1.6c-0.4-0.5-0.7-1-1-1.6s-0.4-1.1-0.4-1.7c0-1.2,0.4-2.3,1.3-3.1C16.1,8.4,17.1,8,18.3,8c0.2,0,0.4,0,0.7,0
	c0.3,0,0.5,0.1,0.7,0.1c0.3-1,0.9-1.9,1.7-2.5C22.1,5.1,23,4.8,24,4.8s1.9,0.3,2.7,0.9c0.8,0.6,1.3,1.4,1.7,2.5
	c0.2-0.1,0.4-0.1,0.7-0.1c0.3,0,0.5,0,0.7,0c1.2,0,2.3,0.4,3.1,1.3c0.9,0.9,1.3,1.9,1.3,3.1c0,0.6-0.1,1.2-0.4,1.7
	c-0.2,0.6-0.6,1.1-1,1.5c0.4,0.5,0.7,1,1,1.6c0.2,0.5,0.4,1.1,0.4,1.7c0,1.2-0.4,2.3-1.3,3.1C32,23,31,23.4,29.8,23.4
	c-0.2,0-0.4,0-0.7,0s-0.5-0.1-0.7-0.1c-0.3,1.1-0.8,1.9-1.6,2.5C25.9,26.4,25,26.7,24,26.7z M24,41.7c0-1.8,0.4-3.6,1.3-5.4
	c0.9-1.8,2-3.4,3.4-4.8c1.4-1.4,3-2.6,4.8-3.4c1.8-0.9,3.6-1.3,5.4-1.3c0,1.8-0.4,3.6-1.3,5.4c-0.9,1.8-2,3.4-3.4,4.8
	c-1.4,1.4-3,2.6-4.8,3.4C27.6,41.3,25.8,41.7,24,41.7z M24,41.7c0-1.8-0.4-3.6-1.3-5.4c-0.9-1.8-2-3.4-3.4-4.8
	c-1.4-1.4-3-2.6-4.8-3.4c-1.8-0.9-3.6-1.3-5.4-1.3c0,1.8,0.4,3.6,1.3,5.4c0.9,1.8,2,3.4,3.4,4.8c1.4,1.4,3,2.6,4.8,3.4
	C20.4,41.3,22.2,41.7,24,41.7z"/>
</svg>
