<?xml version="1.0" encoding="utf-8"?>
<!-- Generator: Adobe Illustrator 26.3.1, SVG Export Plug-In . SVG Version: 6.00 Build 0)  -->
<svg version="1.1" id="Слой_1" xmlns="http://www.w3.org/2000/svg" xmlns:xlink="http://www.w3.org/1999/xlink" x="0px" y="0px"
	 viewBox="0 0 48 48" style="enable-background:new 0 0 48 48;" xml:space="preserve">
<path d="M12.8,42c-0.7,0-1.4-0.3-1.9-0.8c-0.6-0.6-0.9-1.2-0.9-2V8.8c0-0.7,0.3-1.4,0.8-1.9C11.4,6.3,12,6,12.8,6h22.5
	c0.7,0,1.4,0.3,1.9,0.8C37.7,7.4,38,8,38,8.8v30.5c0,0.7-0.3,1.4-0.8,1.9c-0.6,0.5-1.2,0.8-2,0.8H12.8z M24,36.5
	c2.3,0,4.3-0.8,5.9-2.4c1.6-1.6,2.4-3.6,2.4-5.9s-0.8-4.3-2.4-5.9c-1.6-1.6-3.6-2.4-5.9-2.4s-4.3,0.8-5.9,2.4s-2.4,3.6-2.4,5.9
	s0.8,4.3,2.4,5.9C19.7,35.7,21.7,36.5,24,36.5z M24,34.2c-0.8,0-1.6-0.1-2.4-0.4c-0.8-0.3-1.4-0.7-2-1.3l8.6-8.6
	c0.6,0.6,1,1.2,1.3,2s0.4,1.5,0.4,2.4c0,1.7-0.6,3.1-1.8,4.3C27.1,33.6,25.7,34.2,24,34.2z M15.6,13.4c0.5,0,0.9-0.2,1.3-0.5
	c0.3-0.4,0.5-0.8,0.5-1.2c0-0.5-0.2-0.9-0.5-1.3c-0.3-0.3-0.8-0.5-1.3-0.5c-0.5,0-0.9,0.2-1.2,0.5s-0.5,0.8-0.5,1.3s0.2,0.9,0.5,1.2
	S15.2,13.4,15.6,13.4z M21.9,13.4c0.5,0,0.9-0.2,1.3-0.5c0.3-0.4,0.5-0.8,0.5-1.2c0-0.5-0.2-0.9-0.5-1.3c-0.3-0.3-0.8-0.5-1.3-0.5
	s-0.9,0.2-1.2,0.5c-0.3,0.3-0.5,0.8-0.5,1.3s0.2,0.9,0.5,1.2C21.1,13.2,21.5,13.4,21.9,13.4z"/>
</svg>
