<?xml version="1.0" encoding="utf-8"?>
<!-- Generator: Adobe Illustrator 26.3.1, SVG Export Plug-In . SVG Version: 6.00 Build 0)  -->
<svg version="1.1" id="Слой_1" xmlns="http://www.w3.org/2000/svg" xmlns:xlink="http://www.w3.org/1999/xlink" x="0px" y="0px"
	 viewBox="0 0 48 48" style="enable-background:new 0 0 48 48;" xml:space="preserve">
<path d="M14,40V8h12.2c2.7,0,5,1,7,2.9c1.9,1.9,2.9,4.2,2.9,7c0,2.7-1,5-2.9,6.9c-1.9,1.9-4.2,2.9-7,2.9h-9.1V40H14z M17.1,24.5h9
	c1.9,0,3.5-0.7,4.8-2c1.3-1.3,2-2.9,2-4.8s-0.7-3.5-2-4.8s-2.9-2-4.8-2h-9C17.1,11.1,17.1,24.5,17.1,24.5z"/>
</svg>
