<?xml version="1.0" encoding="utf-8"?>
<!-- Generator: Adobe Illustrator 26.3.1, SVG Export Plug-In . SVG Version: 6.00 Build 0)  -->
<svg version="1.1" id="Слой_1" xmlns="http://www.w3.org/2000/svg" xmlns:xlink="http://www.w3.org/1999/xlink" x="0px" y="0px"
	 viewBox="0 0 48 48" style="enable-background:new 0 0 48 48;" xml:space="preserve">
<path d="M24,33.8c-1.6,0-3-0.5-4.1-1.6c-1.1-1.1-1.6-2.4-1.6-4.1c0-1.6,0.5-3,1.6-4c1.1-1.1,2.4-1.6,4-1.6c0.2,0,0.4,0,0.6,0.1
	c0.2,0,0.4,0.1,0.6,0.2c0.6,0.9,1.3,1.8,2,2.6c0.7,0.8,1.5,1.6,2.3,2.4c0.1,0.2,0.1,0.3,0.1,0.5s0,0.3,0,0.5
	c-0.1,1.5-0.7,2.7-1.7,3.7C26.8,33.3,25.5,33.8,24,33.8z M8.8,42c-0.8,0-1.4-0.3-2-0.8C6.3,40.7,6,40,6,39.2V16.9
	c0-0.8,0.3-1.4,0.8-2c0.5-0.5,1.2-0.8,2-0.8h6.4l3.7-4.2H21c0,0.2-0.1,0.5-0.1,0.7c0,0.3,0,0.5,0,0.8c0,1.7,0.3,3.3,0.8,4.8
	s1.2,3,2.2,4.4c-2,0.1-3.7,0.8-5,2.2c-1.3,1.4-2,3.1-2,5.1s0.7,3.8,2.1,5.1c1.4,1.4,3.1,2.1,5.2,2.1c1.8,0,3.4-0.6,4.8-1.7
	c1.3-1.1,2.1-2.6,2.4-4.3c0.8,0.8,1.7,1.6,2.5,2.3c0.8,0.7,1.6,1.4,2.3,2.1c1-0.9,2-1.9,3-2.8s2-1.8,3-2.8V39c0,0.8-0.3,1.4-0.8,2
	c-0.5,0.5-1.2,0.8-2,0.8H8.8V42z M36,27.3c4-3.7,6.8-6.6,8.2-8.8s2.2-4.4,2.2-6.7c0-3.3-1-5.9-3.1-7.8c-2.1-2-4.6-2.9-7.3-2.9
	S30.8,2,28.8,4s-3.1,4.5-3.1,7.8c0,2.2,0.7,4.5,2.2,6.7C29.2,20.7,32,23.6,36,27.3z M33.4,15.7l1-3.2l-2.7-2.2H35l1-3.2l1.1,3.2h3.2
	l-2.7,2.2l1,3.2l-2.7-2C36,13.7,33.4,15.7,33.4,15.7z"/>
</svg>
