<?xml version="1.0" encoding="utf-8"?>
<!-- Generator: Adobe Illustrator 26.3.1, SVG Export Plug-In . SVG Version: 6.00 Build 0)  -->
<svg version="1.1" id="Слой_1" xmlns="http://www.w3.org/2000/svg" xmlns:xlink="http://www.w3.org/1999/xlink" x="0px" y="0px"
	 viewBox="0 0 48 48" style="enable-background:new 0 0 48 48;" xml:space="preserve">
<path d="M42.5,44.8L31.8,34.1c-1,1.3-2.2,2.5-3.5,3.9c-1.3,1.3-2.7,2.6-4.3,4c-4.7-4.2-8.2-8-10.6-11.6s-3.6-6.9-3.6-9.8
	c0-1.3,0.1-2.5,0.4-3.7c0.3-1.2,0.7-2.3,1.2-3.3L3.8,6l1.1-1.2l38.8,38.8C43.6,43.6,42.5,44.8,42.5,44.8z M34.9,29.9l-8.4-8.3
	c0.1-0.2,0.2-0.4,0.3-0.6c0.1-0.2,0.1-0.5,0.1-0.7c0-0.8-0.3-1.5-0.9-2.1s-1.3-0.9-2.1-0.9c-0.3,0-0.5,0-0.7,0.1s-0.4,0.2-0.6,0.3
	l-8.1-8.1c1.2-1.1,2.7-2,4.3-2.6c1.7-0.7,3.4-1,5.2-1c4,0,7.3,1.4,10.1,4.1s4.1,6.2,4.1,10.5c0,1.4-0.3,2.9-0.8,4.5
	C36.8,26.6,36,28.2,34.9,29.9z"/>
</svg>
