<?xml version="1.0" encoding="utf-8"?>
<!-- Generator: Adobe Illustrator 26.3.1, SVG Export Plug-In . SVG Version: 6.00 Build 0)  -->
<svg version="1.1" id="Слой_1" xmlns="http://www.w3.org/2000/svg" xmlns:xlink="http://www.w3.org/1999/xlink" x="0px" y="0px"
	 viewBox="0 0 48 48" style="enable-background:new 0 0 48 48;" xml:space="preserve">
<path d="M10.8,42c-0.8,0-1.4-0.3-2-0.8C8.3,40.7,8,40,8,39.2V16.5c0-0.8,0.3-1.4,0.8-2c0.5-0.5,1.2-0.8,2-0.8h5.5
	c0-2.2,0.7-4,2.2-5.5C19.9,6.8,21.7,6,23.9,6s4,0.8,5.6,2.3c1.5,1.5,2.3,3.3,2.3,5.5h5.5c0.8,0,1.4,0.3,2,0.8c0.5,0.5,0.8,1.2,0.8,2
	v22.7c0,0.8-0.3,1.4-0.8,2c-0.5,0.5-1.2,0.8-2,0.8H10.8V42z M24,25.3c2.2,0,4-0.8,5.6-2.3c1.5-1.5,2.3-3.4,2.3-5.6h-1.5
	c0,1.8-0.6,3.3-1.9,4.5s-2.8,1.9-4.5,1.9s-3.2-0.6-4.5-1.9c-1.2-1.2-1.9-2.7-1.9-4.5h-1.5c0,2.2,0.8,4,2.3,5.6
	C20,24.5,21.8,25.3,24,25.3z M17.8,13.8h12.5c0-1.7-0.6-3.2-1.8-4.4c-1.2-1.2-2.7-1.8-4.4-1.8c-1.7,0-3.2,0.6-4.4,1.8
	C18.4,10.6,17.8,12,17.8,13.8z"/>
</svg>
