<?xml version="1.0" encoding="utf-8"?>
<!-- Generator: Adobe Illustrator 26.3.1, SVG Export Plug-In . SVG Version: 6.00 Build 0)  -->
<svg version="1.1" id="Слой_1" xmlns="http://www.w3.org/2000/svg" xmlns:xlink="http://www.w3.org/1999/xlink" x="0px" y="0px"
	 viewBox="0 0 48 48" style="enable-background:new 0 0 48 48;" xml:space="preserve">
<path d="M14.6,42c-0.7,0-1.3-0.2-1.9-0.7c-0.5-0.5-0.8-1-0.9-1.8L8,6h32l-3.8,33.5c-0.1,0.7-0.4,1.3-0.9,1.8S34.1,42,33.4,42H14.6z
	 M10.7,16.8h26.6l1-9.2H9.7L10.7,16.8z M24,36.4c1.3,0,2.3-0.4,3.2-1.3c0.9-0.9,1.3-1.9,1.3-3.2c0-1.2-0.3-2.4-1-3.7
	c-0.7-1.3-1.9-2.9-3.6-5c-1.7,2-2.9,3.7-3.6,5s-1,2.5-1,3.7c0,1.3,0.4,2.3,1.3,3.2C21.7,35.9,22.7,36.4,24,36.4z"/>
</svg>
