<?xml version="1.0" encoding="utf-8"?>
<!-- Generator: Adobe Illustrator 26.3.1, SVG Export Plug-In . SVG Version: 6.00 Build 0)  -->
<svg version="1.1" id="Слой_1" xmlns="http://www.w3.org/2000/svg" xmlns:xlink="http://www.w3.org/1999/xlink" x="0px" y="0px"
	 viewBox="0 0 48 48" style="enable-background:new 0 0 48 48;" xml:space="preserve">
<path d="M8.4,40.6l-1.1-1.1L27.8,19c-0.7-1.7-0.9-3.3-0.6-4.8c0.4-1.5,1.2-3,2.6-4.4c1.2-1.2,2.7-2,4.7-2.6c1.9-0.6,3.6-0.2,4.9,1.1
	c1.3,1.3,1.7,3,1.1,4.9c-0.6,1.9-1.5,3.5-2.7,4.8c-1.3,1.3-2.7,2.1-4.2,2.5s-3.1,0.2-4.7-0.5l-4,4l15.4,15.4l-1.1,1.1L23.7,25.3
	L8.4,40.6z M14.7,23.5L9.1,18c-1.4-1.5-2.2-3.2-2.4-5.1C6.6,11,7.2,9.2,8.4,7.5l11.2,11.2C19.5,18.7,14.7,23.5,14.7,23.5z"/>
</svg>
