<?xml version="1.0" encoding="utf-8"?>
<!-- Generator: Adobe Illustrator 26.3.1, SVG Export Plug-In . SVG Version: 6.00 Build 0)  -->
<svg version="1.1" id="Слой_1" xmlns="http://www.w3.org/2000/svg" xmlns:xlink="http://www.w3.org/1999/xlink" x="0px" y="0px"
	 viewBox="0 0 48 48" style="enable-background:new 0 0 48 48;" xml:space="preserve">
<path d="M12.8,42c-0.7,0-1.4-0.3-1.9-0.8c-0.6-0.6-0.9-1.2-0.9-2V20.9c0-0.8,0.3-1.4,0.8-2c0.6-0.5,1.2-0.8,1.9-0.8h3.5v-4.4
	c0-2.2,0.8-4,2.3-5.5C20,6.8,21.8,6,24,6s4,0.8,5.5,2.3s2.3,3.3,2.3,5.5v4.4h3.5c0.7,0,1.4,0.3,1.9,0.8c0.6,0.5,0.8,1.2,0.8,2v18.3
	c0,0.7-0.3,1.4-0.8,1.9c-0.6,0.5-1.2,0.8-2,0.8H12.8z M24,33c0.8,0,1.5-0.3,2.1-0.9c0.6-0.6,0.9-1.3,0.9-2.1c0-0.8-0.3-1.5-0.9-2.1
	S24.8,27,24,27s-1.5,0.3-2.1,0.9S21,29.2,21,30c0,0.8,0.3,1.5,0.9,2C22.5,32.7,23.2,33,24,33z M17.8,18.1h12.5v-4.4
	c0-1.7-0.6-3.2-1.8-4.4c-1.2-1.2-2.7-1.8-4.4-1.8c-1.7,0-3.2,0.6-4.4,1.8c-1.2,1.2-1.8,2.7-1.8,4.4v4.4H17.8z"/>
</svg>
