<?xml version="1.0" encoding="utf-8"?>
<!-- Generator: Adobe Illustrator 26.3.1, SVG Export Plug-In . SVG Version: 6.00 Build 0)  -->
<svg version="1.1" id="Слой_1" xmlns="http://www.w3.org/2000/svg" xmlns:xlink="http://www.w3.org/1999/xlink" x="0px" y="0px"
	 viewBox="0 0 48 48" style="enable-background:new 0 0 48 48;" xml:space="preserve">
<path d="M17.8,18.1h12.5v-4.3c0-1.8-0.6-3.2-1.8-4.5c-1.2-1.2-2.7-1.8-4.4-1.8c-1.7,0-3.2,0.6-4.4,1.8c-1.2,1.2-1.8,2.7-1.8,4.5v4.3
	H17.8z M36,43.1c-2.2,0-4-0.8-5.6-2.3c-1.5-1.5-2.3-3.4-2.3-5.6c0-2.2,0.8-4,2.3-5.6c1.5-1.5,3.4-2.3,5.6-2.3s4,0.8,5.6,2.3
	c1.5,1.5,2.3,3.4,2.3,5.6s-0.8,4-2.3,5.6C40,42.3,38.2,43.1,36,43.1z M26.9,42H12.8c-0.7,0-1.4-0.3-1.9-0.8c-0.6-0.6-0.9-1.2-0.9-2
	V20.9c0-0.8,0.3-1.4,0.8-2c0.6-0.5,1.2-0.8,1.9-0.8h3.5v-4.3c0-2.2,0.8-4,2.3-5.6C20,6.8,21.8,6,24,6s4,0.8,5.5,2.3s2.3,3.4,2.3,5.6
	v4.3h3.5c0.7,0,1.4,0.3,1.9,0.8c0.6,0.5,0.8,1.2,0.8,2v3.2c-0.4-0.1-0.8-0.1-1.2-0.2s-0.8,0-1.2,0c-3.1,0.1-5.7,1.2-7.8,3.4
	s-3.2,4.8-3.2,7.9c0,1.3,0.2,2.5,0.5,3.7C25.4,40.1,26,41.1,26.9,42z M36,35c0.9,0,1.6-0.3,2.2-0.9c0.6-0.6,0.9-1.4,0.9-2.2
	c0-0.9-0.3-1.6-0.9-2.2c-0.6-0.6-1.4-0.9-2.2-0.9c-0.9,0-1.6,0.3-2.2,0.9c-0.6,0.6-0.9,1.4-0.9,2.2c0,0.8,0.3,1.6,0.9,2.2
	S35.1,35,36,35z M36,41.3c1.1,0,2-0.2,2.9-0.7s1.7-1.2,2.3-2c-0.8-0.5-1.7-0.8-2.5-1.1c-0.9-0.3-1.7-0.4-2.7-0.4s-1.8,0.1-2.7,0.4
	c-0.9,0.3-1.7,0.6-2.5,1.1c0.6,0.9,1.3,1.5,2.2,2C34,41.1,34.9,41.3,36,41.3z"/>
</svg>
