<?xml version="1.0" encoding="utf-8"?>
<!-- Generator: Adobe Illustrator 26.3.1, SVG Export Plug-In . SVG Version: 6.00 Build 0)  -->
<svg version="1.1" id="Слой_1" xmlns="http://www.w3.org/2000/svg" xmlns:xlink="http://www.w3.org/1999/xlink" x="0px" y="0px"
	 viewBox="0 0 48 48" style="enable-background:new 0 0 48 48;" xml:space="preserve">
<path d="M16.9,35.2c-1.5,0-2.8-0.4-3.8-1.3s-1.5-1.9-1.5-3.2c0-1.5,0.6-2.6,1.7-3.5c1.1-0.8,2.6-1.3,4.4-1.3c0.8,0,1.5,0.1,2.3,0.2
	c0.8,0.2,1.4,0.4,1.9,0.6v-1.3c0-1.4-0.3-2.5-1-3.2c-0.6-0.7-1.6-1.1-3-1.1c-0.7,0-1.3,0.1-2,0.3c-0.6,0.2-1.2,0.6-1.9,1.1l-0.9-1
	c0.7-0.6,1.5-1,2.2-1.3s1.6-0.4,2.5-0.4c1.8,0,3.1,0.5,4,1.4c0.9,1,1.3,2.4,1.3,4.3v9H22v-2.2h-0.2c-0.6,0.9-1.3,1.6-2.1,2
	C18.9,34.9,17.9,35.2,16.9,35.2z M16.8,33.9c1.4,0,2.6-0.5,3.6-1.6c1-1.1,1.5-2.5,1.5-4.1c-0.5-0.3-1.1-0.5-1.9-0.6
	c-0.7-0.2-1.5-0.2-2.2-0.2c-1.5,0-2.7,0.3-3.5,0.9c-0.9,0.6-1.3,1.4-1.3,2.6c0,0.9,0.3,1.7,1,2.3C14.8,33.6,15.7,33.9,16.8,33.9z
	 M34.2,35.2l-6.3-6.3l1.1-1.1l4.4,4.4v-15h1.5v15l4.4-4.4l1.1,1.1C40.5,28.9,34.2,35.2,34.2,35.2z"/>
</svg>
