<?xml version="1.0" encoding="utf-8"?>
<!-- Generator: Adobe Illustrator 26.3.1, SVG Export Plug-In . SVG Version: 6.00 Build 0)  -->
<svg version="1.1" id="Слой_1" xmlns="http://www.w3.org/2000/svg" xmlns:xlink="http://www.w3.org/1999/xlink" x="0px" y="0px"
	 viewBox="0 0 48 48" style="enable-background:new 0 0 48 48;" xml:space="preserve">
<path d="M14.5,40c-0.7,0-1.4-0.3-1.9-0.8c-0.6-0.6-0.8-1.2-0.8-1.9V15.5c0-0.7,0.3-1.4,0.8-1.9c0.6-0.6,1.2-0.8,1.9-0.8h4.9v-4
	c0-0.7,0.3-1.4,0.8-1.9c0.5-0.6,1.2-0.8,2-0.8H26c0.7,0,1.4,0.3,1.9,0.8c0.6,0.6,0.8,1.2,0.8,1.9v4h4.9c0.7,0,1.4,0.3,1.9,0.8
	c0.6,0.6,0.8,1.2,0.8,1.9v21.7c0,0.7-0.3,1.4-0.8,1.9c-0.6,0.6-1.2,0.8-1.9,0.8v0.5c0,0.4-0.2,0.8-0.5,1.1S32.4,42,32,42
	c-0.4,0-0.8-0.2-1.1-0.5c-0.3-0.3-0.5-0.7-0.5-1.1V40H17.5v0.5c0,0.4-0.2,0.8-0.5,1.1c-0.2,0.2-0.6,0.4-1,0.4s-0.8-0.2-1.1-0.5
	s-0.5-0.7-0.5-1.1V40H14.5z M19.4,34.5h1.5V18.3h-1.5V34.5z M27.1,34.5h1.5V18.3h-1.5V34.5z M20.9,12.8h6.2v-4
	c0-0.4-0.1-0.7-0.4-0.9c-0.2-0.2-0.5-0.3-0.9-0.3H22c-0.4,0-0.7,0.1-0.9,0.3c-0.2,0.2-0.3,0.5-0.3,0.9L20.9,12.8L20.9,12.8z"/>
</svg>
