<?xml version="1.0" encoding="utf-8"?>
<!-- Generator: Adobe Illustrator 26.3.1, SVG Export Plug-In . SVG Version: 6.00 Build 0)  -->
<svg version="1.1" id="Слой_1" xmlns="http://www.w3.org/2000/svg" xmlns:xlink="http://www.w3.org/1999/xlink" x="0px" y="0px"
	 viewBox="0 0 48 48" style="enable-background:new 0 0 48 48;" xml:space="preserve">
<path d="M8.8,40c-0.7,0-1.4-0.3-1.9-0.8C6.3,38.6,6,38,6,37.2v-5.7h36v5.7c0,0.7-0.3,1.4-0.8,1.9c-0.6,0.6-1.2,0.9-2,0.9H8.8z
	 M24,25.1c-1.2,0-2.2,0.3-2.8,1c-0.6,0.7-1.7,1-3.2,1s-2.6-0.3-3.2-1c-0.6-0.7-1.5-1-2.8-1c-1.2,0-2.2,0.3-2.8,1s-1.7,1-3.3,1v-1.5
	c1.1,0,2-0.3,2.7-1s1.8-1,3.3-1s2.6,0.3,3.2,1c0.6,0.7,1.5,1,2.8,1c1.2,0,2.2-0.3,2.8-1c0.6-0.7,1.7-1,3.2-1s2.6,0.3,3.2,1
	s1.6,1,2.8,1c1.2,0,2.1-0.3,2.7-1s1.6-1,3.1-1s2.7,0.3,3.4,1s1.6,1,2.8,1v1.5c-1.5,0-2.6-0.3-3.2-1c-0.6-0.7-1.6-1-2.8-1
	s-2.2,0.3-2.8,1s-1.7,1-3.2,1s-2.6-0.3-3.2-1C26.2,25.4,25.2,25.1,24,25.1z M6,19.3v-1.2c0-3,1.4-5.5,4.1-7.3C12.8,8.9,17.5,8,24,8
	s11.2,0.9,13.9,2.7S42,15,42,18v1.2L6,19.3L6,19.3z"/>
</svg>
