<?xml version="1.0" encoding="utf-8"?>
<!-- Generator: Adobe Illustrator 26.3.1, SVG Export Plug-In . SVG Version: 6.00 Build 0)  -->
<svg version="1.1" id="Слой_1" xmlns="http://www.w3.org/2000/svg" xmlns:xlink="http://www.w3.org/1999/xlink" x="0px" y="0px"
	 viewBox="0 0 48 48" style="enable-background:new 0 0 48 48;" xml:space="preserve">
<path d="M14.2,26.8h6v-1.5h-6C14.2,25.3,14.2,26.8,14.2,26.8z M37.2,22.8c-1.3,0-2.5-0.5-3.4-1.4s-1.4-2.1-1.4-3.4s0.5-2.5,1.4-3.4
	s2.1-1.4,3.4-1.4c0.6,0,1.2,0.1,1.7,0.3s1,0.5,1.5,0.9V3h5.8v1.5H42V18c0,1.3-0.5,2.5-1.4,3.4C39.7,22.3,38.6,22.8,37.2,22.8z
	 M14.2,20.8h12v-1.5h-12C14.2,19.3,14.2,20.8,14.2,20.8z M14.2,14.8h12v-1.5h-12C14.2,13.3,14.2,14.8,14.2,14.8z M12.3,34l-5.2,5.2
	V8.8C7.2,8,7.4,7.4,8,6.8C8.5,6.3,9.2,6,9.9,6h20.5c0.7,0,1.4,0.3,1.9,0.8c0.6,0.6,0.8,1.2,0.8,1.9v1.5c-1.4,0.7-2.6,1.8-3.4,3.2
	c-0.9,1.4-1.3,2.9-1.3,4.5s0.4,3.2,1.3,4.5c0.9,1.4,2,2.4,3.4,3.2v5.5c0,0.7-0.3,1.4-0.8,1.9c-0.6,0.6-1.2,0.8-1.9,0.8H12.3V34z"/>
</svg>
