<?xml version="1.0" encoding="utf-8"?>
<!-- Generator: Adobe Illustrator 26.3.1, SVG Export Plug-In . SVG Version: 6.00 Build 0)  -->
<svg version="1.1" id="Слой_1" xmlns="http://www.w3.org/2000/svg" xmlns:xlink="http://www.w3.org/1999/xlink" x="0px" y="0px"
	 viewBox="0 0 48 48" style="enable-background:new 0 0 48 48;" xml:space="preserve">
<path d="M37.5,32.4l-4.2-4.2c0.9-0.5,1.8-0.8,2.8-1.1c1-0.3,1.9-0.4,2.9-0.4c0,1-0.1,1.9-0.4,2.9C38.3,30.6,37.9,31.5,37.5,32.4z
	 M41.5,41.5l-1.1,1.1l-5.9-5.9c-1.5,1.5-3.1,2.7-4.9,3.6c-1.8,0.9-3.7,1.4-5.6,1.4c0-1.9,0.5-3.8,1.4-5.6s2.1-3.4,3.6-4.9l-4.6-4.6
	c-0.1,0-0.2,0-0.3,0.1c-0.1,0-0.2,0-0.3,0c-1-0.1-1.9-0.4-2.6-1s-1.3-1.4-1.6-2.4c-0.2,0.1-0.4,0.1-0.6,0.1s-0.4,0-0.6,0
	c-1.2,0-2.3-0.4-3.1-1.3C14.4,21.2,14,20.2,14,19c0-0.4,0.1-0.8,0.2-1.2c0.1-0.4,0.3-0.7,0.5-1.1L6.2,8.4l1.1-1.1
	C7.3,7.3,41.5,41.5,41.5,41.5z M24,4.8c1,0,1.9,0.3,2.7,1c0.8,0.6,1.3,1.5,1.6,2.4c0.2-0.1,0.4-0.1,0.7-0.1c0.2,0,0.5,0,0.7,0
	c1.2,0,2.3,0.4,3.1,1.3c0.8,0.9,1.3,1.9,1.3,3.1c0,0.6-0.1,1.2-0.4,1.7c-0.3,0.6-0.6,1.1-1,1.5c0.4,0.5,0.7,1,1,1.6
	c0.2,0.5,0.4,1.1,0.4,1.7c0,1.2-0.4,2.3-1.3,3.2c-0.9,0.9-1.9,1.3-3.2,1.3c-0.2,0-0.4,0-0.6,0s-0.4,0-0.6-0.1l-3.9-3.9
	c0.9-0.1,1.7-0.5,2.3-1.2c0.6-0.7,0.9-1.5,0.9-2.5c0-1.1-0.4-2-1.1-2.7C26,12.4,25.1,12,24,12c-1,0-1.8,0.3-2.5,0.9
	c-0.7,0.6-1.1,1.4-1.2,2.3l-5.4-5.4c0.4-0.6,1-1,1.7-1.3s1.4-0.4,2.2-0.4c0.2,0,0.3,0,0.5,0s0.3,0,0.5,0.1c0.3-1,0.8-1.8,1.6-2.4
	C22.1,5.1,23,4.8,24,4.8z M24,41.7c0-1.8-0.4-3.6-1.3-5.4c-0.9-1.8-2-3.4-3.4-4.8c-1.4-1.4-3-2.6-4.8-3.4c-1.8-0.9-3.6-1.3-5.4-1.3
	c0,1.8,0.4,3.6,1.3,5.4c0.9,1.8,2,3.4,3.4,4.8c1.4,1.4,3,2.6,4.8,3.4C20.4,41.3,22.2,41.7,24,41.7z"/>
</svg>
