<?xml version="1.0" encoding="utf-8"?>
<!-- Generator: Adobe Illustrator 26.3.1, SVG Export Plug-In . SVG Version: 6.00 Build 0)  -->
<svg version="1.1" id="Слой_1" xmlns="http://www.w3.org/2000/svg" xmlns:xlink="http://www.w3.org/1999/xlink" x="0px" y="0px"
	 viewBox="0 0 48 48" style="enable-background:new 0 0 48 48;" xml:space="preserve">
<path d="M24,25.9c-1,0-1.8-0.3-2.5-1c-0.7-0.6-1-1.5-1-2.5v-0.3c-0.2,0.2-0.5,0.4-0.8,0.5s-0.7,0.2-1.1,0.2c-1,0-1.8-0.3-2.4-1
	c-0.6-0.6-1-1.5-1-2.4c0-0.7,0.2-1.3,0.6-1.9c0.4-0.6,0.9-1,1.4-1.3c-0.6-0.2-1.1-0.6-1.4-1.2c-0.4-0.6-0.6-1.2-0.6-1.9
	c0-1,0.3-1.8,1-2.4c0.6-0.6,1.5-1,2.4-1c0.4,0,0.8,0.1,1.1,0.2c0.3,0.1,0.6,0.3,0.8,0.5v-0.3c0-1,0.3-1.9,1-2.5s1.5-1,2.5-1
	s1.8,0.3,2.5,1c0.7,0.6,1,1.5,1,2.5v0.3c0.3-0.2,0.6-0.4,1-0.6c0.4-0.1,0.7-0.2,1.2-0.2L28.3,13c-0.5-0.6-1.1-1.1-1.8-1.5
	C25.7,11.2,24.9,11,24,11c-1.5,0-2.8,0.5-3.8,1.5s-1.5,2.3-1.5,3.8s0.5,2.8,1.5,3.8s2.3,1.5,3.8,1.5c0.4,0,0.8,0,1.2-0.1
	s0.7-0.2,1.1-0.4c0.2,0.3,0.5,0.5,0.8,0.7s0.7,0.3,1.1,0.3h3.4c-0.3,0.3-0.6,0.5-1,0.6s-0.8,0.2-1.3,0.2c-0.4,0-0.8-0.1-1.1-0.2
	c-0.3-0.1-0.6-0.3-0.8-0.5v0.3c0,1-0.3,1.8-1,2.5C25.8,25.6,25,25.9,24,25.9z M29.1,19l5.5-13.8h1.1L41.2,19h-1.8l-1.7-4.1h-5.1
	L30.9,19H29.1z M33.2,13.4h4l-1.9-5H35L33.2,13.4z M24,41.7c0-1.8,0.4-3.6,1.3-5.4c0.9-1.8,2-3.4,3.4-4.8c1.4-1.4,3-2.6,4.8-3.4
	c1.8-0.9,3.6-1.3,5.4-1.3c0,1.8-0.4,3.6-1.3,5.4c-0.9,1.8-2,3.4-3.4,4.8c-1.4,1.4-3,2.6-4.8,3.4C27.6,41.3,25.8,41.7,24,41.7z
	 M24,41.7c0-1.8-0.4-3.6-1.3-5.4c-0.9-1.8-2-3.4-3.4-4.8c-1.4-1.4-3-2.6-4.8-3.4c-1.8-0.9-3.6-1.3-5.4-1.3c0,1.8,0.4,3.6,1.3,5.4
	c0.9,1.8,2,3.4,3.4,4.8c1.4,1.4,3,2.6,4.8,3.4C20.4,41.3,22.2,41.7,24,41.7z"/>
</svg>
