<?xml version="1.0" encoding="utf-8"?>
<!-- Generator: Adobe Illustrator 26.3.1, SVG Export Plug-In . SVG Version: 6.00 Build 0)  -->
<svg version="1.1" id="Слой_1" xmlns="http://www.w3.org/2000/svg" xmlns:xlink="http://www.w3.org/1999/xlink" x="0px" y="0px"
	 viewBox="0 0 48 48" style="enable-background:new 0 0 48 48;" xml:space="preserve">
<path d="M24,23.7l16.5-10.8l-0.6-1.3L24,21.8L8.2,11.5l-0.6,1.3C7.5,12.8,24,23.7,24,23.7z M37.1,38c-0.5,0-0.9-0.2-1.2-0.5
	s-0.5-0.7-0.5-1.2v-6c0-0.5,0.2-0.9,0.6-1.2c0.4-0.3,0.9-0.5,1.4-0.5v-2.4c0-1,0.4-1.8,1.1-2.6c0.7-0.7,1.6-1.1,2.6-1.1
	s1.8,0.4,2.6,1.1c0.7,0.7,1.1,1.6,1.1,2.6v2.4c0.5,0,1,0.2,1.4,0.5s0.6,0.7,0.6,1.2v6c0,0.5-0.2,0.9-0.5,1.2
	C46,37.8,45.6,38,45.1,38H37.1z M38.8,28.7h4.7v-2.3c0-0.6-0.2-1.2-0.7-1.7s-1-0.7-1.6-0.7c-0.7,0-1.2,0.2-1.7,0.7s-0.7,1-0.7,1.7
	V28.7z M8.8,38c-0.8,0-1.5-0.3-2-0.8S6,36,6,35.2V12.8c0-0.7,0.3-1.4,0.8-1.9C7.4,10.3,8,10,8.8,10h30.5c0.7,0,1.4,0.3,1.9,0.8
	c0.6,0.6,0.8,1.2,0.8,1.9v6.4h-0.8c-2.6,0-4.8,0.9-6.6,2.8s-2.7,4.1-2.7,6.7V38H8.8z"/>
</svg>
