<?xml version="1.0" encoding="utf-8"?>
<!-- Generator: Adobe Illustrator 26.3.1, SVG Export Plug-In . SVG Version: 6.00 Build 0)  -->
<svg version="1.1" id="Слой_1" xmlns="http://www.w3.org/2000/svg" xmlns:xlink="http://www.w3.org/1999/xlink" x="0px" y="0px"
	 viewBox="0 0 48 48" style="enable-background:new 0 0 48 48;" xml:space="preserve">
<path d="M30.3,39.8l-12.5-4.4l-7.8,3c-0.5,0.2-0.9,0.2-1.3-0.1C8.2,38.1,8,37.7,8,37.2V12.8c0-0.4,0.1-0.7,0.3-1s0.4-0.5,0.7-0.6
	l8.8-3.1l12.5,4.4l7.7-3c0.5-0.2,0.9-0.2,1.3,0c0.4,0.2,0.7,0.6,0.7,1.1v24.9c0,0.3-0.1,0.6-0.3,0.9c-0.2,0.3-0.5,0.4-0.8,0.5
	L30.3,39.8z M29.4,37.9V13.7L18.6,10v24.3L29.4,37.9z"/>
</svg>
