<?xml version="1.0" encoding="utf-8"?>
<!-- Generator: Adobe Illustrator 26.3.1, SVG Export Plug-In . SVG Version: 6.00 Build 0)  -->
<svg version="1.1" id="Слой_1" xmlns="http://www.w3.org/2000/svg" xmlns:xlink="http://www.w3.org/1999/xlink" x="0px" y="0px"
	 viewBox="0 0 48 48" style="enable-background:new 0 0 48 48;" xml:space="preserve">
<path d="M38,12.9c-1.3,0-2.5-0.5-3.4-1.4s-1.4-2.1-1.4-3.4s0.5-2.5,1.4-3.4s2.1-1.4,3.4-1.4c1.3,0,2.5,0.5,3.4,1.4s1.4,2.1,1.4,3.4
	s-0.5,2.5-1.4,3.4C40.5,12.5,39.3,12.9,38,12.9z M6,40.2V8.8c0-0.8,0.3-1.4,0.8-2C7.3,6.3,8,6,8.8,6h20.7c-0.1,0.2-0.1,0.5-0.2,0.7
	c-0.1,0.3-0.1,0.5-0.1,0.8c0,2.6,0.8,4.8,2.5,6.6c1.7,1.9,3.8,2.8,6.3,2.8c0.7,0,1.4-0.1,2.1-0.3c0.7-0.2,1.3-0.4,1.9-0.8v15.4
	c0,0.8-0.3,1.4-0.8,2c-0.5,0.5-1.2,0.8-2,0.8h-27L6,40.2z"/>
</svg>
