<?xml version="1.0" encoding="utf-8"?>
<!-- Generator: Adobe Illustrator 26.3.1, SVG Export Plug-In . SVG Version: 6.00 Build 0)  -->
<svg version="1.1" id="Слой_1" xmlns="http://www.w3.org/2000/svg" xmlns:xlink="http://www.w3.org/1999/xlink" x="0px" y="0px"
	 viewBox="0 0 48 48" style="enable-background:new 0 0 48 48;" xml:space="preserve">
<path d="M16.8,34.9c-0.8,0-1.4-0.3-2-0.8c-0.5-0.5-0.8-1.2-0.8-2V8.8c0-0.8,0.3-1.4,0.8-2C15.3,6.3,16,6,16.8,6h17.4
	c0.8,0,1.4,0.3,2,0.8C36.7,7.3,37,8,37,8.8v23.4c0,0.8-0.3,1.4-0.8,2c-0.5,0.5-1.2,0.8-2,0.8C34.2,34.9,16.8,34.9,16.8,34.9z
	 M11.8,40c-0.8,0-1.4-0.3-2-0.8C9.3,38.7,9,38,9,37.2V12.3h1.5v24.9c0,0.3,0.1,0.6,0.4,0.8c0.3,0.3,0.5,0.4,0.8,0.4h18.9V40H11.8z
	 M19.6,25.8h1.5v-9.2h3.6v6.2h1.5v-6.2h3.6v9.2h1.5v-9.4c0-0.4-0.1-0.7-0.4-1s-0.6-0.4-1-0.4H21c-0.4,0-0.7,0.1-1,0.4
	c-0.3,0.3-0.4,0.6-0.4,1C19.6,16.5,19.6,25.8,19.6,25.8z"/>
</svg>
