<?xml version="1.0" encoding="utf-8"?>
<!-- Generator: Adobe Illustrator 26.3.1, SVG Export Plug-In . SVG Version: 6.00 Build 0)  -->
<svg version="1.1" id="Слой_1" xmlns="http://www.w3.org/2000/svg" xmlns:xlink="http://www.w3.org/1999/xlink" x="0px" y="0px"
	 viewBox="0 0 48 48" style="enable-background:new 0 0 48 48;" xml:space="preserve">
<path d="M7.5,33.2c-0.4-0.3-0.8-0.6-1.1-1C6.2,31.9,6,31.4,6,30.9V15c0-0.3,0.1-0.6,0.2-0.8s0.4-0.4,0.7-0.6L22.1,6l14.8,7.6
	c0.2,0.1,0.4,0.4,0.6,0.7c0.2,0.3,0.3,0.6,0.4,0.9h-1.3L22.1,7.7L7.5,15V33.2z M13.6,40c-0.8,0-1.4-0.3-2-0.8
	c-0.5-0.5-0.8-1.2-0.8-2v-16c0-0.8,0.3-1.4,0.8-2c0.5-0.5,1.2-0.8,2-0.8h25.6c0.8,0,1.4,0.3,2,0.8c0.5,0.5,0.8,1.2,0.8,2v16
	c0,0.8-0.3,1.4-0.8,2c-0.5,0.5-1.2,0.8-2,0.8H13.6z M26.4,28.7l14-6.9V20l-14,6.9l-14-6.9v1.8L26.4,28.7z"/>
</svg>
