<?xml version="1.0" encoding="utf-8"?>
<!-- Generator: Adobe Illustrator 26.3.1, SVG Export Plug-In . SVG Version: 6.00 Build 0)  -->
<svg version="1.1" id="Слой_1" xmlns="http://www.w3.org/2000/svg" xmlns:xlink="http://www.w3.org/1999/xlink" x="0px" y="0px"
	 viewBox="0 0 48 48" style="enable-background:new 0 0 48 48;" xml:space="preserve">
<path d="M18.8,41.2c-3.3,0-6.2-1.2-8.5-3.5s-3.5-5.2-3.5-8.5S8,23,10.3,20.7s5.2-3.5,8.5-3.5s6.2,1.2,8.5,3.5s3.5,5.2,3.5,8.5
	s-1.2,6.2-3.5,8.5C24.9,40.1,22.1,41.2,18.8,41.2z M18.8,39.7c2.9,0,5.4-1,7.4-3.1c2-2,3.1-4.5,3.1-7.4s-1-5.4-3.1-7.4
	c-2-2-4.5-3.1-7.4-3.1s-5.4,1-7.4,3.1c-2,2-3.1,4.5-3.1,7.4s1,5.4,3.1,7.4C13.4,38.7,15.9,39.7,18.8,39.7z M33.3,30
	c0-0.1,0-0.3,0-0.4s0-0.3,0-0.4c0-4-1.4-7.4-4.3-10.3s-6.3-4.3-10.3-4.3c-0.1,0-0.2,0-0.4,0c-0.1,0-0.3,0-0.4,0
	c0.6-2,1.9-3.8,3.9-5.5s4.4-2.5,7.3-2.5c3.3,0,6.2,1.2,8.5,3.5s3.5,5.2,3.5,8.5c0,2.8-0.8,5.3-2.5,7.3C37.1,28.1,35.3,29.4,33.3,30z
	"/>
</svg>
