<?xml version="1.0" encoding="utf-8"?>
<!-- Generator: Adobe Illustrator 26.3.1, SVG Export Plug-In . SVG Version: 6.00 Build 0)  -->
<svg version="1.1" id="Слой_1" xmlns="http://www.w3.org/2000/svg" xmlns:xlink="http://www.w3.org/1999/xlink" x="0px" y="0px"
	 viewBox="0 0 48 48" style="enable-background:new 0 0 48 48;" xml:space="preserve">
<path d="M4,36v-6.8h1.5v5.2h36.9v-5.2H44V36H4z M19.8,29.9v-2.2h-0.2c-0.5,0.9-1.1,1.5-1.8,1.9c-0.7,0.4-1.6,0.6-2.6,0.6
	c-1.3,0-2.4-0.4-3.2-1.1s-1.2-1.7-1.2-3c0-1.4,0.5-2.6,1.5-3.4s2.3-1.3,3.8-1.3c0.6,0,1.3,0.1,2,0.2s1.2,0.4,1.7,0.6V21
	c0-1.4-0.3-2.5-0.9-3.2s-1.6-1-2.9-1c-0.7,0-1.4,0.1-2,0.3c-0.6,0.2-1.2,0.5-1.9,1l-0.9-0.9c0.8-0.6,1.5-1,2.2-1.3s1.6-0.4,2.5-0.4
	c1.7,0,3,0.5,3.9,1.4c0.9,0.9,1.3,2.4,1.3,4.3v8.7C21.1,29.9,19.8,29.9,19.8,29.9z M16.3,22.7c-1.2,0-2.2,0.3-3,0.9
	c-0.7,0.6-1.1,1.4-1.1,2.5c0,0.9,0.3,1.6,0.8,2.1s1.3,0.8,2.1,0.8c1.4,0,2.5-0.5,3.4-1.5s1.3-2.3,1.3-3.9c-0.4-0.3-1-0.5-1.6-0.6
	C17.6,22.8,17,22.7,16.3,22.7z M25.8,30V10H27v7.2l-0.1,2H27c0.6-0.8,1.3-1.4,2.1-1.8c0.8-0.3,1.6-0.5,2.5-0.5
	c1.5,0,2.8,0.6,3.9,1.8c1,1.2,1.6,2.9,1.6,5s-0.5,3.7-1.5,4.9c-1,1.2-2.3,1.8-4,1.8c-0.9,0-1.7-0.2-2.5-0.5s-1.4-0.9-1.9-1.7H27V30
	H25.8z M31.4,18.1c-1.3,0-2.4,0.5-3.2,1.6c-0.9,1-1.3,2.4-1.3,4s0.4,3,1.3,4s1.9,1.5,3.2,1.5c1.2,0,2.2-0.5,3-1.5
	c0.8-1,1.2-2.3,1.2-4s-0.4-3-1.2-4C33.6,18.6,32.6,18.1,31.4,18.1z"/>
</svg>
