<?xml version="1.0" encoding="utf-8"?>
<!-- Generator: Adobe Illustrator 26.3.1, SVG Export Plug-In . SVG Version: 6.00 Build 0)  -->
<svg version="1.1" id="Слой_1" xmlns="http://www.w3.org/2000/svg" xmlns:xlink="http://www.w3.org/1999/xlink" x="0px" y="0px"
	 viewBox="0 0 48 48" style="enable-background:new 0 0 48 48;" xml:space="preserve">
<path d="M24,19.5c-1.7,0-3.4-0.3-4.9-0.8c-1.5-0.6-3-1.3-4.2-2.3l1.4-0.9c0.8,0.6,1.8,1.1,2.9,1.5s2.5,0.8,4,1V6.6L24,6.2l0.8,0.5
	V18c1.4-0.3,2.7-0.6,3.9-1c1.2-0.4,2.2-0.9,3-1.5l1.4,0.9c-1.3,1-2.7,1.7-4.2,2.3C27.4,19.2,25.7,19.5,24,19.5z M20.4,38.2l-1.5-0.8
	c0-0.2,0.1-0.4,0.1-0.6c0-0.2,0-0.4,0-0.6c0-0.8-0.1-1.8-0.4-2.8c-0.2-1.1-0.6-2.2-1-3.4l-9.8,6L7,35.6v-0.9l9.8-5.9
	c-0.9-1.1-1.9-2-2.9-2.8s-2-1.4-2.9-1.8v-1.7c2.8,1.1,5.1,2.9,6.9,5.4s2.7,5.3,2.7,8.4c0,0.3,0,0.7,0,1
	C20.5,37.6,20.5,37.9,20.4,38.2z M27.6,38.2c0-0.3,0-0.6-0.1-1c0-0.3,0-0.6,0-1c0-3.1,0.9-6,2.7-8.4c1.8-2.5,4.1-4.3,6.9-5.4v1.7
	c-0.9,0.4-1.9,1-2.8,1.8c-1,0.8-1.9,1.7-2.9,2.8l9.7,5.9v0.9L40.2,36l-9.8-5.9c-0.5,1.2-0.8,2.3-1.1,3.4c-0.2,1.1-0.4,2-0.4,2.8
	c0,0.2,0,0.4,0,0.6c0,0.2,0,0.4,0.1,0.6L27.6,38.2z"/>
</svg>
