<?xml version="1.0" encoding="utf-8"?>
<!-- Generator: Adobe Illustrator 26.3.1, SVG Export Plug-In . SVG Version: 6.00 Build 0)  -->
<svg version="1.1" id="Слой_1" xmlns="http://www.w3.org/2000/svg" xmlns:xlink="http://www.w3.org/1999/xlink" x="0px" y="0px"
	 viewBox="0 0 48 48" style="enable-background:new 0 0 48 48;" xml:space="preserve">
<path d="M24,36c-1.9,0-3.7-0.1-5.6-0.2s-3.7-0.4-5.6-0.6c-0.8-0.1-1.5-0.5-2.1-1.1S9.9,32.8,9.9,32v-1.1c-1.6-0.4-2.8-1.3-3.8-2.5
	c-1-1.3-1.5-2.7-1.5-4.3s0.5-3,1.5-4.2s2.3-2.1,3.8-2.5v-1.9c0-0.9,0.3-1.7,1-2.3s1.5-0.9,2.4-0.9c0.7,0.1,1.5,0.1,2.2,0.2
	c0.7,0.1,1.5,0.2,2.2,0.3c1,0.1,2.1,0.1,3.1,0.2c1,0,2,0.1,3.1,0.1c0.9,0,1.8,0,2.7-0.1c0.9-0.1,1.8-0.1,2.7-0.1
	c0.9-0.1,1.8-0.1,2.6-0.2c0.8-0.1,1.7-0.2,2.6-0.3c0.9-0.1,1.8,0.2,2.5,0.8s1,1.4,1,2.4v1.9c1.5,0.4,2.8,1.3,3.8,2.5
	s1.5,2.6,1.5,4.2c0,1.6-0.5,3-1.5,4.2S39.5,30.5,38,31v1.1c0,0.8-0.3,1.5-0.8,2.1s-1.2,1-2.1,1.1c-1.8,0.3-3.7,0.5-5.5,0.7
	C27.7,35.9,25.9,36,24,36z M24,29.8c1.4,0,2.8-0.1,4.1-0.2c1.4-0.2,2.7-0.4,4.1-0.8c0.2,0,0.3-0.2,0.4-0.4c0.1-0.2,0.1-0.4,0.1-0.6
	s-0.2-0.4-0.4-0.5s-0.4-0.1-0.6-0.1c-1.3,0.3-2.6,0.6-3.9,0.7c-1.3,0.2-2.6,0.2-3.9,0.2S21.3,28,20,27.9s-2.6-0.4-3.9-0.8
	c-0.2-0.1-0.4-0.1-0.6,0.1c-0.2,0.1-0.3,0.3-0.4,0.5c0,0.2,0,0.4,0.1,0.6s0.3,0.3,0.5,0.4c1.3,0.4,2.7,0.7,4.1,0.8
	C21.2,29.7,22.6,29.8,24,29.8z M10,29.3V18.8c-1.1,0.4-2,1.1-2.7,2c-0.7,1-1,2-1,3.2s0.3,2.3,1,3.2S8.9,28.9,10,29.3z M38,29.2
	c1.1-0.4,2-1.1,2.7-2c0.7-1,1-2,1-3.2s-0.3-2.3-1-3.2c-0.7-1-1.6-1.6-2.7-2V29.2z M24,21.8c1.4,0,2.8-0.1,4.1-0.2
	c1.4-0.2,2.7-0.4,4.1-0.8c0.2,0,0.3-0.2,0.4-0.4c0.1-0.2,0.1-0.4,0.1-0.6s-0.2-0.4-0.4-0.5s-0.4-0.1-0.6-0.1
	c-1.3,0.3-2.6,0.6-3.9,0.7c-1.3,0.2-2.6,0.2-3.9,0.2S21.3,20,20,19.9c-1.3-0.2-2.6-0.4-3.9-0.7c-0.2,0-0.4,0-0.6,0.1
	c-0.2,0.1-0.3,0.3-0.4,0.5c0,0.2,0,0.4,0.1,0.6s0.2,0.3,0.4,0.4c1.3,0.4,2.7,0.6,4.1,0.8C21.2,21.7,22.6,21.8,24,21.8z"/>
</svg>
