<?xml version="1.0" encoding="utf-8"?>
<!-- Generator: Adobe Illustrator 26.3.1, SVG Export Plug-In . SVG Version: 6.00 Build 0)  -->
<svg version="1.1" id="Слой_1" xmlns="http://www.w3.org/2000/svg" xmlns:xlink="http://www.w3.org/1999/xlink" x="0px" y="0px"
	 viewBox="0 0 48 48" style="enable-background:new 0 0 48 48;" xml:space="preserve">
<path d="M17.2,17c0.7,0,1.3-0.3,1.9-0.8c0.5-0.5,0.8-1.1,0.8-1.9c0-0.7-0.3-1.3-0.8-1.9c-0.5-0.5-1.1-0.8-1.9-0.8
	c-0.7,0-1.3,0.3-1.9,0.8c-0.5,0.5-0.8,1.1-0.8,1.9c0,0.7,0.3,1.3,0.8,1.9C15.9,16.7,16.5,17,17.2,17z M25.5,42h-2.1
	c-0.8,0-1.5-0.3-2.1-0.9c-0.6-0.6-0.9-1.3-0.9-2.1v-8.1c0-3,1-5.5,3.1-7.6s4.6-3.1,7.6-3.1s5.5,1,7.6,3.1c2.1,2.1,3.1,4.6,3.1,7.6
	V39c0,0.8-0.3,1.5-0.9,2.1C40.5,41.7,39.8,42,39,42h-2.1v-8.3h3.8v-2.8c0-2.6-0.9-4.9-2.8-6.7c-1.8-1.8-4.1-2.8-6.7-2.8
	s-4.9,0.9-6.7,2.8c-1.8,1.8-2.8,4.1-2.8,6.7v2.8h3.8V42z M16.2,38H8.7c-0.8,0-1.4-0.3-2-0.8C6.3,36.6,6,36,6,35.2V8.8
	c0-0.8,0.3-1.4,0.8-2C7.3,6.3,8,6,8.8,6h16.9c0.7,0,1.4,0.3,1.9,0.8c0.6,0.6,0.8,1.2,0.8,1.9V16c-1.8,0.3-3.4,0.9-4.9,1.8
	s-2.8,1.9-3.9,3.2c-0.4-0.2-0.8-0.4-1.2-0.5c-0.4-0.1-0.9-0.2-1.4-0.2c-1.8,0-3.3,0.6-4.5,1.9c-1.2,1.2-1.9,2.8-1.9,4.5
	c0,1.6,0.5,2.9,1.5,4.1s2.3,1.9,3.8,2.1V38H16.2z M17.2,22c0.3,0,0.6,0,0.8,0.1c0.2,0.1,0.5,0.2,0.7,0.3c-0.8,1.2-1.5,2.6-1.9,4
	c-0.5,1.4-0.7,2.9-0.7,4.5v0.5c-1-0.2-1.9-0.8-2.7-1.6c-0.7-0.9-1.1-1.9-1.1-3c0-1.3,0.5-2.5,1.4-3.4C14.7,22.5,15.9,22,17.2,22z"/>
</svg>
