<?xml version="1.0" encoding="utf-8"?>
<!-- Generator: Adobe Illustrator 26.3.1, SVG Export Plug-In . SVG Version: 6.00 Build 0)  -->
<svg version="1.1" id="Слой_1" xmlns="http://www.w3.org/2000/svg" xmlns:xlink="http://www.w3.org/1999/xlink" x="0px" y="0px"
	 viewBox="0 0 48 48" style="enable-background:new 0 0 48 48;" xml:space="preserve">
<path d="M40.4,42.5L31.8,34l-3.2,3.3l-1.1-1.1l3.2-3.3L20.5,22.7v11.2c0,1.7-0.6,3-1.7,4.1s-2.5,1.6-4.1,1.6s-2.9-0.5-4.1-1.6
	c-1-1.1-1.6-2.5-1.6-4.2c0-1.6,0.6-3,1.7-4.1s2.5-1.7,4.1-1.7c1,0,1.8,0.2,2.6,0.6c0.7,0.4,1.3,0.8,1.7,1.3v-8.7L6.3,8.5l1.1-1.1
	l34,34C41.5,41.4,40.4,42.5,40.4,42.5z M40.8,35.7L27.6,22.5l1-1l6.1,6.1v-10h0.6l6.5,6.6l-5.3,5.2l5.3,5.2
	C41.8,34.7,40.8,35.7,40.8,35.7z M36.1,27.8l3.7-3.6l-3.7-3.7C36.1,20.5,36.1,27.8,36.1,27.8z M20.5,15.5L19,13.9V8.4h9.6v4.5h-8.1
	V15.5z"/>
</svg>
