<?xml version="1.0" encoding="utf-8"?>
<!-- Generator: Adobe Illustrator 26.3.1, SVG Export Plug-In . SVG Version: 6.00 Build 0)  -->
<svg version="1.1" id="Слой_1" xmlns="http://www.w3.org/2000/svg" xmlns:xlink="http://www.w3.org/1999/xlink" x="0px" y="0px"
	 viewBox="0 0 48 48" style="enable-background:new 0 0 48 48;" xml:space="preserve">
<path d="M15.8,37.1l6.7-4.2l-6.7-4.1V37.1z M26.8,14.1h6.3v-1.3h-6.3V14.1z M6.8,43.8c-0.7,0-1.4-0.3-1.9-0.8C4.3,42.4,4,41.8,4,41
	V24.8c0-0.7,0.3-1.4,0.8-1.9C5.4,22.3,6,22,6.8,22h22.5c0.7,0,1.4,0.3,1.9,0.8c0.6,0.6,0.8,1.2,0.8,1.9V41c0,0.7-0.3,1.4-0.8,1.9
	c-0.6,0.6-1.2,0.8-1.9,0.8C29.2,43.8,6.8,43.8,6.8,43.8z M35.8,26v-1.2c0-1.4-0.4-2.7-1.2-3.8c-0.8-1.1-1.8-1.9-3.1-2.4H34
	c1.4,0,2.7-0.5,3.7-1.5s1.5-2.2,1.5-3.6s-0.5-2.6-1.5-3.6S35.5,8.4,34,8.4h-1.7v1.3H34c1.1,0,2,0.4,2.7,1.1c0.7,0.7,1.1,1.7,1.1,2.7
	c0,1.1-0.4,2-1.1,2.7C36,17,35.1,17.3,34,17.3h-1.7v1.3h-0.7c-0.4,0-0.9-0.1-1.2-0.2c-0.4-0.1-0.8-0.2-1.1-0.2h-1.6v-0.9H26
	c-1.1,0-2-0.4-2.7-1.1c-0.7-0.7-1.1-1.7-1.1-2.7c0-1.1,0.4-2,1.1-2.7C24,10,24.9,9.6,26,9.6h1.7V8.3H26c-1.4,0-2.7,0.5-3.7,1.5
	s-1.5,2.2-1.5,3.6c0,1.1,0.3,2.1,0.9,2.9s1.4,1.5,2.3,1.9h-8V7c0-0.7,0.3-1.4,0.8-1.9c0.6-0.6,1.2-0.8,1.9-0.8h22.5
	c0.7,0,1.4,0.3,1.9,0.8C43.7,5.6,44,6.2,44,7v16.2c0,0.7-0.3,1.4-0.8,1.9c-0.6,0.6-1.2,0.9-2,0.9H35.8z"/>
</svg>
