<?xml version="1.0" encoding="utf-8"?>
<!-- Generator: Adobe Illustrator 26.3.1, SVG Export Plug-In . SVG Version: 6.00 Build 0)  -->
<svg version="1.1" id="Слой_1" xmlns="http://www.w3.org/2000/svg" xmlns:xlink="http://www.w3.org/1999/xlink" x="0px" y="0px"
	 viewBox="0 0 48 48" style="enable-background:new 0 0 48 48;" xml:space="preserve">
<path d="M23.2,32.9h1.5v-5.3h5.4V26h-5.4v-5.3h-1.5V26h-5.4v1.5h5.4V32.9z M14.8,39.8c-0.7,0-1.4-0.3-1.9-0.8
	c-0.6-0.6-0.9-1.3-0.9-2V16.5c0-0.7,0.3-1.4,0.8-1.9c0.6-0.6,1.2-0.8,1.9-0.8h18.5c0.7,0,1.4,0.3,1.9,0.8c0.6,0.6,0.8,1.2,0.8,1.9
	V37c0,0.7-0.3,1.4-0.8,1.9c-0.6,0.6-1.2,0.8-1.9,0.8L14.8,39.8L14.8,39.8z M12.9,9.8V8.2h22.2v1.5C35.1,9.8,12.9,9.8,12.9,9.8z"/>
</svg>
