<?xml version="1.0" encoding="utf-8"?>
<!-- Generator: Adobe Illustrator 26.3.1, SVG Export Plug-In . SVG Version: 6.00 Build 0)  -->
<svg version="1.1" id="Слой_1" xmlns="http://www.w3.org/2000/svg" xmlns:xlink="http://www.w3.org/1999/xlink" x="0px" y="0px"
	 viewBox="0 0 48 48" style="enable-background:new 0 0 48 48;" xml:space="preserve">
<path d="M6,9v15c0,3.7,1,6.9,2.9,9.9s4.5,5.1,7.6,6.6c-1.6-1.2-2.9-2.7-3.8-4.5c-1-1.8-1.5-3.8-1.5-6c0-1.6,0.4-3.6,1.3-6
	c0.9-2.3,2.1-4.8,3.6-7.4L6,9z M24,8.1c-3.2,3.9-5.9,7.8-8,11.8c-2.1,3.9-3.2,7.3-3.2,10.2c0,3.1,1.1,5.8,3.3,7.9
	c2.2,2.2,4.8,3.3,7.9,3.3s5.8-1.1,7.9-3.3c2.2-2.2,3.3-4.8,3.3-7.9c0-2.8-1.1-6.3-3.2-10.2C29.9,15.8,27.2,11.9,24,8.1z M42,9
	l-10.2,7.7c1.5,2.6,2.7,5.1,3.6,7.4c0.9,2.3,1.4,4.3,1.4,6c0,2.2-0.5,4.1-1.5,6c-1,1.8-2.3,3.3-3.8,4.5c3.1-1.4,5.6-3.6,7.6-6.6
	c2-2.9,2.9-6.2,2.9-9.9V9z"/>
</svg>
