<?xml version="1.0" encoding="utf-8"?>
<!-- Generator: Adobe Illustrator 26.3.1, SVG Export Plug-In . SVG Version: 6.00 Build 0)  -->
<svg version="1.1" id="Слой_1" xmlns="http://www.w3.org/2000/svg" xmlns:xlink="http://www.w3.org/1999/xlink" x="0px" y="0px"
	 viewBox="0 0 48 48" style="enable-background:new 0 0 48 48;" xml:space="preserve">
<path d="M20.3,34v-6.2h-2.6V22c0-0.6,0.4-1,1.2-1.4c0.8-0.4,1.8-0.6,3.1-0.6c1.3,0,2.4,0.2,3.1,0.6c0.8,0.4,1.2,0.8,1.2,1.4v5.8
	h-2.6V34C23.8,34,20.3,34,20.3,34z M22.1,18.5c-0.6,0-1.2-0.2-1.6-0.6s-0.6-1-0.6-1.6s0.2-1.2,0.6-1.6c0.4-0.4,1-0.6,1.6-0.6
	s1.2,0.2,1.6,0.6c0.4,0.4,0.6,1,0.6,1.6s-0.2,1.2-0.6,1.6C23.2,18.3,22.7,18.5,22.1,18.5z M22.1,40.1c-4.5,0-8.3-1.6-11.4-4.7
	C7.6,32.3,6,28.5,6,24c0-2.2,0.4-4.3,1.3-6.3c0.8-2,2-3.7,3.4-5.1c1.5-1.5,3.2-2.6,5.1-3.4c2-0.8,4-1.3,6.3-1.3s4.3,0.4,6.3,1.3
	c2,0.8,3.7,2,5.1,3.4c1.5,1.5,2.6,3.2,3.4,5.1c0.8,2,1.3,4,1.3,6.3v3.1l4.2-4.3l1.1,1.1L37.4,30l-6.1-6.1l1.1-1.1l4.2,4.2v-3
	c0-4-1.4-7.4-4.3-10.3C29.5,10.9,26,9.4,22,9.4s-7.4,1.4-10.3,4.3C8.9,16.6,7.5,20,7.5,24s1.4,7.4,4.2,10.3S18,38.6,22,38.6
	c1.9,0,3.6-0.3,5.2-1s3.1-1.6,4.5-2.8l1.1,1.1c-1.5,1.3-3.2,2.3-5.1,3.1C26,39.7,24,40.1,22.1,40.1z"/>
</svg>
