<?xml version="1.0" encoding="utf-8"?>
<!-- Generator: Adobe Illustrator 26.3.1, SVG Export Plug-In . SVG Version: 6.00 Build 0)  -->
<svg version="1.1" id="Слой_1" xmlns="http://www.w3.org/2000/svg" xmlns:xlink="http://www.w3.org/1999/xlink" x="0px" y="0px"
	 viewBox="0 0 48 48" style="enable-background:new 0 0 48 48;" xml:space="preserve">
<path d="M20,25.5c-1,0-1.9-0.4-2.6-1.1s-1-1.6-1-2.6V9.5c0-1,0.3-1.8,1-2.5C18.2,6.3,19,6,20,6s1.8,0.3,2.5,1s1,1.5,1,2.5v12.2
	c0,1-0.3,1.9-1,2.6C21.9,25.1,21,25.5,20,25.5z M20.8,41h-1.5v-7.3c-3.1-0.2-5.8-1.5-8-3.8S8,24.9,8,21.8h1.5c0,2.9,1,5.4,3.1,7.4
	c2,2,4.5,3,7.4,3c0.2,0,0.3,0,0.4,0s0.2,0,0.4,0C20.8,32.2,20.8,41,20.8,41z M32.7,39.6c0.3,0,0.5-0.1,0.7-0.3s0.3-0.4,0.3-0.7
	s-0.1-0.5-0.3-0.7s-0.4-0.3-0.7-0.3s-0.5,0.1-0.7,0.3s-0.3,0.4-0.3,0.7s0.1,0.5,0.3,0.7C32.2,39.5,32.4,39.6,32.7,39.6z M31.9,35.8
	h1.5v-6.9h-1.5C31.9,28.8,31.9,35.8,31.9,35.8z M32.7,42c-2.1,0-4-0.8-5.5-2.3s-2.3-3.3-2.3-5.5c0-2.1,0.8-4,2.3-5.5
	s3.4-2.3,5.5-2.3s4,0.8,5.5,2.3s2.3,3.3,2.3,5.5s-0.8,4-2.3,5.5C36.7,41.3,34.8,42,32.7,42z"/>
</svg>
