<?xml version="1.0" encoding="utf-8"?>
<!-- Generator: Adobe Illustrator 26.3.1, SVG Export Plug-In . SVG Version: 6.00 Build 0)  -->
<svg version="1.1" id="Слой_1" xmlns="http://www.w3.org/2000/svg" xmlns:xlink="http://www.w3.org/1999/xlink" x="0px" y="0px"
	 viewBox="0 0 48 48" style="enable-background:new 0 0 48 48;" xml:space="preserve">
<path d="M9.2,7.9L8.8,9.8L3.6,4.5l1.1-1.1L42,40.7l-1.2,1.1l-6.5-6.5h-3L33,37v3H14.8v-2.9l1.7-1.7H8.8c-0.8,0-1.4-0.3-2-0.8
	C6.3,34,6,33.4,6,32.6V10.8c0-0.7,0.3-1.4,0.8-2S8.1,7.9,9.2,7.9z M40.8,34.6L14.1,8h25.1c0.8,0,1.4,0.3,2,0.8
	c0.5,0.5,0.8,1.2,0.8,2v21.8c0,0.6-0.1,1-0.4,1.3S41.1,34.5,40.8,34.6z"/>
</svg>
