<?xml version="1.0" encoding="utf-8"?>
<!-- Generator: Adobe Illustrator 26.3.1, SVG Export Plug-In . SVG Version: 6.00 Build 0)  -->
<svg version="1.1" id="Слой_1" xmlns="http://www.w3.org/2000/svg" xmlns:xlink="http://www.w3.org/1999/xlink" x="0px" y="0px"
	 viewBox="0 0 48 48" style="enable-background:new 0 0 48 48;" xml:space="preserve">
<path d="M10.7,9.3L9.6,8.2c2.2-1.9,4.5-3.2,6.9-4.1s4.9-1.3,7.6-1.3s5.2,0.4,7.6,1.3s4.7,2.3,6.9,4.1l-1.1,1.1
	c-1.8-1.6-3.9-2.8-6.1-3.7C29,4.7,26.6,4.3,24,4.3s-5,0.4-7.2,1.3S12.5,7.7,10.7,9.3z M16.6,15.4l-1.1-1.1c1.2-1,2.5-1.8,3.9-2.3
	s3-0.8,4.6-0.8c1.7,0,3.2,0.3,4.6,0.8s2.7,1.3,3.9,2.3l-1.1,1.1c-1-0.8-2.1-1.5-3.4-1.9c-1.3-0.5-2.6-0.7-4-0.7s-2.8,0.2-4,0.7
	C18.7,13.9,17.6,14.6,16.6,15.4z M24,46.8c-1.6,0-3-0.6-4.2-1.7c-1.1-1.1-1.7-2.5-1.7-4.2V25.1c0-1.6,0.6-3,1.7-4.2
	c1.1-1.1,2.5-1.7,4.2-1.7c1.6,0,3,0.6,4.2,1.7c1.1,1.1,1.7,2.5,1.7,4.2v15.8c0,1.6-0.6,3-1.7,4.2C27,46.2,25.6,46.8,24,46.8z
	 M24,29.4c1.2,0,2.2-0.4,3-1.2c0.8-0.8,1.2-1.8,1.2-3s-0.4-2.2-1.2-3c-0.8-0.8-1.8-1.2-3-1.2s-2.2,0.4-3,1.2c-0.8,0.8-1.2,1.8-1.2,3
	s0.4,2.2,1.2,3C21.8,29,22.8,29.4,24,29.4z"/>
</svg>
