<?xml version="1.0" encoding="utf-8"?>
<!-- Generator: Adobe Illustrator 26.3.1, SVG Export Plug-In . SVG Version: 6.00 Build 0)  -->
<svg version="1.1" id="Слой_1" xmlns="http://www.w3.org/2000/svg" xmlns:xlink="http://www.w3.org/1999/xlink" x="0px" y="0px"
	 viewBox="0 0 48 48" style="enable-background:new 0 0 48 48;" xml:space="preserve">
<path d="M22.5,30.4l7.5-7.6l-1.1-1.1l-6.4,6.4l-7.7-7.7H20v-1.5h-7.9v7.8h1.5v-5.2L22.5,30.4z M9.7,38c-0.8,0-1.4-0.3-2-0.8
	C7.2,36.7,7,36,7,35.2V12.8c0-0.8,0.3-1.4,0.8-2C8.3,10.3,9,10,9.7,10h22.5c0.8,0,1.4,0.3,2,0.8c0.5,0.5,0.8,1.2,0.8,2v10.1l6.1-6.1
	v14.4L35,25.1v10.1c0,0.8-0.3,1.4-0.8,2c-0.5,0.5-1.2,0.8-2,0.8H9.7z"/>
</svg>
