<?xml version="1.0" encoding="utf-8"?>
<!-- Generator: Adobe Illustrator 26.3.1, SVG Export Plug-In . SVG Version: 6.00 Build 0)  -->
<svg version="1.1" id="Слой_1" xmlns="http://www.w3.org/2000/svg" xmlns:xlink="http://www.w3.org/1999/xlink" x="0px" y="0px"
	 viewBox="0 0 48 48" style="enable-background:new 0 0 48 48;" xml:space="preserve">
<path d="M15.9,41.8l-1.5-1.2v-7.9h-2.8c-0.7,0-1.4-0.3-1.9-0.8C9,31.4,8.8,30.7,8.8,30V14.5H8c-0.2,0-0.4-0.1-0.5-0.2
	c-0.1-0.1-0.2-0.3-0.2-0.6c0-0.2,0.1-0.4,0.2-0.5C7.6,13.1,7.8,13,8,13h6.4V9.1h-1.8c-0.2,0-0.4-0.1-0.5-0.2
	c-0.1-0.1-0.2-0.3-0.2-0.6s0.1-0.4,0.2-0.5c0.1-0.1,0.3-0.2,0.5-0.2h5.2c0.2,0,0.4,0.1,0.5,0.2s0.2,0.3,0.2,0.5s-0.1,0.4-0.2,0.5
	C18.2,9,18,9.1,17.8,9.1H16V13h6.4c0.2,0,0.4,0.1,0.5,0.2c0.1,0.1,0.2,0.3,0.2,0.5s-0.1,0.4-0.2,0.5s-0.3,0.2-0.5,0.2h-0.8V30
	c0,0.7-0.3,1.4-0.8,1.9c-0.6,0.6-1.2,0.8-1.9,0.8h-2.8C15.9,32.8,15.9,41.8,15.9,41.8z M32.8,40.8c-1.8,0-3.3-0.6-4.5-1.9
	c-1.2-1.3-1.9-2.8-1.9-4.5v-14c0-1.8,0.6-3.3,1.9-4.5c1.3-1.3,2.8-1.9,4.5-1.9c1.8,0,3.3,0.6,4.5,1.9s1.9,2.8,1.9,4.5v14
	c0,1.8-0.6,3.3-1.9,4.5C36.1,40.1,34.6,40.8,32.8,40.8z M11.5,31.2h7.2c0.4,0,0.7-0.1,0.9-0.3c0.2-0.2,0.3-0.5,0.3-0.9v-3.3h-4.3
	c-0.2,0-0.4-0.1-0.6-0.3c-0.2-0.2-0.3-0.4-0.3-0.6s0.1-0.4,0.3-0.6s0.4-0.3,0.6-0.3H20v-4.1h-4.3c-0.2,0-0.4-0.1-0.6-0.3
	c-0.2-0.2-0.3-0.4-0.3-0.6s0.1-0.4,0.3-0.6s0.4-0.3,0.6-0.3H20v-4.5h-9.7V30c0,0.4,0.1,0.7,0.3,0.9C10.9,31.1,11.2,31.2,11.5,31.2z
	 M28,31.6h9.7v-8.5H28V31.6z"/>
</svg>
