<?xml version="1.0" encoding="utf-8"?>
<!-- Generator: Adobe Illustrator 26.3.1, SVG Export Plug-In . SVG Version: 6.00 Build 0)  -->
<svg version="1.1" id="Слой_1" xmlns="http://www.w3.org/2000/svg" xmlns:xlink="http://www.w3.org/1999/xlink" x="0px" y="0px"
	 viewBox="0 0 48 48" style="enable-background:new 0 0 48 48;" xml:space="preserve">
<path d="M42.4,45.5L2,4.8l1.1-1.1l40.4,40.7L42.4,45.5z M12,13.7l1.5,1.6v22.8h21l1.5,1.5v1.6c0,0.8-0.3,1.4-0.8,2
	c-0.5,0.5-1.2,0.8-2,0.8H14.8c-0.8,0-1.4-0.3-2-0.8c-0.5-0.5-0.8-1.2-0.8-2V13.7z M13.3,9.8l-1.4-1.5V7.1c-0.1-0.8,0.2-1.6,0.7-2.2
	C13.2,4.3,13.9,4,14.8,4h18.5c0.8,0,1.4,0.3,2,0.8C35.7,5.3,36,6,36,6.8v25.1l-1.5-1.5V9.8H13.3z"/>
</svg>
