<?xml version="1.0" encoding="utf-8"?>
<!-- Generator: Adobe Illustrator 26.3.1, SVG Export Plug-In . SVG Version: 6.00 Build 0)  -->
<svg version="1.1" id="Слой_1" xmlns="http://www.w3.org/2000/svg" xmlns:xlink="http://www.w3.org/1999/xlink" x="0px" y="0px"
	 viewBox="0 0 48 48" style="enable-background:new 0 0 48 48;" xml:space="preserve">
<path d="M19.2,29.6v-2.5c0-1.4,0.5-2.5,1.4-3.5c1-0.9,2.1-1.4,3.5-1.4h2.5v-2.3l3.1,3.1l-3.1,3.1v-2.3h-2.5c-0.9,0-1.7,0.3-2.4,1
	c-0.7,0.6-1,1.4-1,2.3v2.5C20.7,29.6,19.2,29.6,19.2,29.6z M14.8,44c-0.8,0-1.4-0.3-2-0.8c-0.5-0.5-0.8-1.2-0.8-2V6.8
	c0-0.8,0.3-1.4,0.8-2C13.3,4.3,14,4,14.8,4h18.5c0.8,0,1.4,0.3,2,0.8C35.7,5.3,36,6,36,6.8v34.5c0,0.8-0.3,1.4-0.8,2
	c-0.5,0.5-1.2,0.8-2,0.8L14.8,44L14.8,44z M13.5,38.2h20.9V9.8H13.5V38.2z"/>
</svg>
