<?xml version="1.0" encoding="utf-8"?>
<!-- Generator: Adobe Illustrator 26.3.1, SVG Export Plug-In . SVG Version: 6.00 Build 0)  -->
<svg version="1.1" id="Слой_1" xmlns="http://www.w3.org/2000/svg" xmlns:xlink="http://www.w3.org/1999/xlink" x="0px" y="0px"
	 viewBox="0 0 48 48" style="enable-background:new 0 0 48 48;" xml:space="preserve">
<path d="M10,28c0-2.4,0.5-4.6,1.4-6.6s2.1-3.8,3.3-5.3c1.3-1.6,2.6-2.9,4-4c1.4-1.1,2.4-1.9,3.3-2.5v3c0,1.8,0.6,3.3,1.9,4.4
	c1.2,1.1,2.6,1.6,4.2,1.6c0.6,0,1.3-0.1,1.8-0.3c0.6-0.2,1.1-0.5,1.7-0.9l0.9-0.7c1.7,1.3,3.1,2.9,4.1,4.9s1.5,4.1,1.5,6.4
	c0,3.2-0.9,6-2.7,8.4c-1.8,2.4-4.2,4.1-7.1,5c0.8-0.6,1.5-1.4,1.9-2.3c0.5-0.9,0.7-1.9,0.7-2.9c0-0.9-0.2-1.7-0.5-2.5
	s-0.8-1.5-1.4-2.2l-5-4.8l-4.8,4.7c-0.7,0.6-1.1,1.4-1.5,2.2c-0.3,0.8-0.5,1.6-0.5,2.5c0,1,0.2,2,0.7,2.9s1.1,1.7,1.9,2.3
	c-2.9-0.9-5.2-2.6-7.1-5C10.9,34,10,31.2,10,28z M24,28.9l3.7,3.7c0.5,0.5,0.8,1,1.1,1.6c0.3,0.6,0.4,1.3,0.4,2
	c0,1.4-0.5,2.6-1.5,3.6s-2.2,1.5-3.7,1.5s-2.7-0.5-3.7-1.5s-1.5-2.2-1.5-3.6c0-0.7,0.1-1.3,0.4-1.9c0.3-0.6,0.6-1.1,1.1-1.6L24,28.9
	z"/>
</svg>
