<?xml version="1.0" encoding="utf-8"?>
<!-- Generator: Adobe Illustrator 26.3.1, SVG Export Plug-In . SVG Version: 6.00 Build 0)  -->
<svg version="1.1" id="Слой_1" xmlns="http://www.w3.org/2000/svg" xmlns:xlink="http://www.w3.org/1999/xlink" x="0px" y="0px"
	 viewBox="0 0 48 48" style="enable-background:new 0 0 48 48;" xml:space="preserve">
<path d="M11.1,40.4c-0.2,0.1-0.4,0.2-0.6,0.2s-0.4-0.1-0.5-0.2c-1.1-1.1-2-2.4-2.6-3.8c-0.7-1.4-1-2.9-1-4.4c0-1.6,0.2-3.1,0.7-4.6
	c0.4-1.5,1-2.9,1.6-4.3c0.6-1.2,1.1-2.5,1.5-3.8s0.7-2.6,0.7-4c0-1.3-0.3-2.5-1-3.7c-0.7-1.1-1.5-2.1-2.5-3.1
	C7.2,8.6,7.1,8.5,7.1,8.2c0-0.2,0.1-0.4,0.2-0.5c0.1-0.2,0.3-0.3,0.5-0.3s0.4,0.1,0.6,0.2c1.2,1,2.1,2.2,2.8,3.6
	c0.7,1.3,1.1,2.8,1.1,4.3s-0.2,2.9-0.7,4.2s-1,2.7-1.5,4.1c-0.6,1.3-1.1,2.6-1.5,4c-0.5,1.4-0.7,2.8-0.7,4.2s0.3,2.7,0.9,3.9
	c0.6,1.2,1.4,2.3,2.4,3.3c0.1,0.1,0.2,0.3,0.1,0.5C11.3,40.1,11.2,40.2,11.1,40.4z M19,40.4c-0.2,0.1-0.4,0.2-0.6,0.2
	s-0.4-0.1-0.6-0.2c-1.1-1.1-1.9-2.4-2.6-3.8c-0.7-1.4-1-2.9-1-4.4c0-1.6,0.2-3.1,0.7-4.6s1-2.9,1.6-4.3c0.6-1.2,1.1-2.5,1.5-3.8
	s0.7-2.6,0.7-4c0-1.3-0.3-2.5-1-3.7c-0.7-1.1-1.5-2.2-2.5-3.1C15.1,8.6,15,8.4,15,8.2s0.1-0.4,0.2-0.6c0.1-0.2,0.3-0.2,0.5-0.2
	s0.4,0.1,0.6,0.2c1.2,1,2.1,2.2,2.8,3.5c0.7,1.3,1.1,2.8,1.1,4.4c0,1.4-0.2,2.9-0.7,4.3c-0.4,1.4-0.9,2.7-1.5,4
	c-0.6,1.4-1.1,2.7-1.6,4.1s-0.7,2.8-0.7,4.2c0,1.4,0.3,2.7,0.9,3.9s1.4,2.3,2.4,3.3c0.1,0.1,0.2,0.3,0.2,0.5
	C19.2,40.1,19.2,40.2,19,40.4z M25,42.2V5.8c0-0.2,0.1-0.4,0.2-0.6C25.4,5.1,25.5,5,25.8,5c0.2,0,0.4,0.1,0.6,0.2
	c0.1,0.1,0.2,0.3,0.2,0.6v9.5L34,8c0.2-0.2,0.4-0.3,0.5-0.3c0.2,0,0.4,0.1,0.5,0.3c0.2,0.2,0.3,0.4,0.3,0.6c0,0.2-0.1,0.4-0.3,0.6
	l-8.5,8.5v5.6h5.6l8.4-8.4c0.2-0.2,0.4-0.3,0.6-0.3c0.2,0,0.4,0.1,0.5,0.3c0.1,0.1,0.2,0.3,0.2,0.5s-0.1,0.4-0.2,0.6l-7.2,7.3H44
	c0.2,0,0.4,0.1,0.6,0.2c0.1,0.1,0.2,0.3,0.2,0.6c0,0.2-0.1,0.4-0.2,0.6c-0.1,0.1-0.3,0.2-0.6,0.2h-9.5l7.3,7.4
	c0.1,0.2,0.2,0.4,0.2,0.5c0,0.2-0.1,0.4-0.2,0.5c-0.2,0.1-0.4,0.2-0.6,0.2c-0.2,0-0.4-0.1-0.6-0.2l-8.5-8.5h-5.6v5.6l8.5,8.5
	c0.2,0.2,0.2,0.4,0.2,0.5c0,0.2-0.1,0.4-0.2,0.5c-0.2,0.1-0.3,0.2-0.6,0.2S34.1,40.2,34,40l-7.4-7.4v9.6c0,0.2-0.1,0.4-0.2,0.6
	C26.2,42.9,26,43,25.8,43s-0.4-0.1-0.6-0.2S25,42.5,25,42.2z"/>
</svg>
