<?xml version="1.0" encoding="utf-8"?>
<!-- Generator: Adobe Illustrator 26.3.1, SVG Export Plug-In . SVG Version: 6.00 Build 0)  -->
<svg version="1.1" id="Слой_1" xmlns="http://www.w3.org/2000/svg" xmlns:xlink="http://www.w3.org/1999/xlink" x="0px" y="0px"
	 viewBox="0 0 48 48" style="enable-background:new 0 0 48 48;" xml:space="preserve">
<path d="M35.7,38.4L29.3,32l6.4-6.4l1.1,1.1l-4.5,4.5h9.8v1.5h-9.8l4.5,4.5C36.7,37.3,35.7,38.4,35.7,38.4z M8.8,38
	c-0.8,0-1.4-0.3-2-0.8C6.3,36.7,6,36,6,35.2V29c0-0.8,0.3-1.4,0.8-2c0.5-0.5,1.2-0.8,2-0.8h12.6c0.8,0,1.4,0.3,2,0.8
	c0.5,0.5,0.8,1.2,0.8,2v6.2c0,0.8-0.3,1.4-0.8,2c-0.5,0.5-1.2,0.8-2,0.8H8.8z M12.3,22.2l-1.1-1.1l4.5-4.5H6v-1.5h9.8l-4.5-4.5
	l1.1-1.1l6.4,6.3C18.7,15.8,12.3,22.2,12.3,22.2z M26.7,21.8c-0.8,0-1.4-0.3-2-0.8c-0.5-0.5-0.8-1.2-0.8-2v-6.2c0-0.8,0.3-1.4,0.8-2
	c0.5-0.5,1.2-0.8,2-0.8h12.6c0.8,0,1.4,0.3,2,0.8c0.5,0.5,0.8,1.2,0.8,2V19c0,0.8-0.3,1.4-0.8,2c-0.5,0.5-1.2,0.8-2,0.8H26.7z"/>
</svg>
