<?xml version="1.0" encoding="utf-8"?>
<!-- Generator: Adobe Illustrator 26.3.1, SVG Export Plug-In . SVG Version: 6.00 Build 0)  -->
<svg version="1.1" id="Слой_1" xmlns="http://www.w3.org/2000/svg" xmlns:xlink="http://www.w3.org/1999/xlink" x="0px" y="0px"
	 viewBox="0 0 48 48" style="enable-background:new 0 0 48 48;" xml:space="preserve">
<path d="M14.3,33.2c-2.1-0.8-3.7-2-5-3.8s-1.9-3.8-1.9-6c0-1.8,0.4-3.5,1.1-4.9c0.7-1.5,1.5-2.8,2.5-4s2-2.2,3-3s1.8-1.5,2.5-1.9
	v2.3c0,1.3,0.4,2.3,1.3,3.2s2,1.3,3.2,1.3c0.5,0,1-0.1,1.4-0.3c0.5-0.2,0.9-0.4,1.2-0.7l0.6-0.5c0.9,0.7,1.7,1.5,2.3,2.4
	c0.6,0.9,1.1,1.9,1.4,3l-6,6c0-0.1-0.1-0.2-0.1-0.3c-0.1-0.1-0.1-0.2-0.2-0.2L18,22.1l-3.7,3.7c-0.5,0.5-0.9,1.1-1.2,1.7
	s-0.4,1.3-0.4,2s0.1,1.4,0.4,2.1C13.4,32.2,13.8,32.7,14.3,33.2z M15.9,32.4c-0.5-0.3-0.9-0.7-1.2-1.2s-0.4-1.1-0.4-1.7
	c0-0.5,0.1-1,0.3-1.4s0.5-0.8,0.8-1.1l2.6-2.7l2.6,2.6c0.1,0.1,0.1,0.2,0.2,0.2c0.1,0.1,0.1,0.2,0.1,0.3
	C20.9,27.4,15.9,32.4,15.9,32.4z M10.5,45l-1.1-1.1l32.5-32.5l1.1,1.1L32.5,23H43v1.5H30.9l-3.6,3.6l4.1,4.1H43v1.5H33l7.6,7.6
	l-1.1,1.1l-7.6-7.6V45h-1.5V33.3l-4.1-4.1l-3.7,3.7V45H21V34.4L10.5,45z"/>
</svg>
