<?xml version="1.0" encoding="utf-8"?>
<!-- Generator: Adobe Illustrator 26.3.1, SVG Export Plug-In . SVG Version: 6.00 Build 0)  -->
<svg version="1.1" id="Слой_1" xmlns="http://www.w3.org/2000/svg" xmlns:xlink="http://www.w3.org/1999/xlink" x="0px" y="0px"
	 viewBox="0 0 48 48" style="enable-background:new 0 0 48 48;" xml:space="preserve">
<path d="M10.4,36.2c-1.1-1.4-1.9-3-2.5-4.7C7.3,29.7,7,27.9,7,26c0-4.7,1.6-8.8,4.9-12.1C15.2,10.7,19.3,9,24,9c0.7,0,1.3,0,1.8,0
	s1.1,0,1.7,0l-4.6-4.6l1.1-1l6.6,6.6L24,16.6l-1.1-1.1l4.9-4.9c-0.7,0-1.3,0-1.9-0.1c-0.6,0-1.2,0-1.8,0c-4.3,0-7.9,1.5-10.9,4.5
	s-4.5,6.7-4.5,10.9c0,1.6,0.3,3.3,0.8,4.9c0.5,1.6,1.2,3,2.2,4.2C11.5,35.1,10.4,36.2,10.4,36.2z M22.6,36.6c-0.2-1-0.5-1.8-0.9-2.6
	c-0.5-0.7-0.9-1.5-1.5-2.2c-0.5-0.7-1-1.4-1.4-2.1s-0.6-1.5-0.6-2.5c0-1.6,0.6-2.9,1.7-4.1c1.1-1.1,2.5-1.7,4.1-1.7s2.9,0.6,4.1,1.7
	c1.1,1.1,1.7,2.5,1.7,4.1c0,0.9-0.2,1.7-0.6,2.5c-0.4,0.7-0.9,1.5-1.4,2.2c-0.5,0.7-1,1.4-1.5,2.2c-0.5,0.7-0.8,1.6-0.9,2.6
	C25.4,36.6,22.6,36.6,22.6,36.6z M22.6,41.4v-2h2.8v2H22.6z M37.6,36.2l-1.1-1.1c0.9-1.2,1.6-2.6,2.1-4.1c0.5-1.6,0.8-3.2,0.8-5
	c0-2.1-0.4-4.2-1.2-6.1c-0.8-1.9-2-3.6-3.6-5.1l1.1-1.1c1.7,1.6,2.9,3.4,3.9,5.5c0.9,2.1,1.4,4.4,1.4,6.8c0,1.9-0.3,3.7-0.9,5.5
	C39.5,33.2,38.7,34.8,37.6,36.2z"/>
</svg>
