<?xml version="1.0" encoding="utf-8"?>
<!-- Generator: Adobe Illustrator 26.3.1, SVG Export Plug-In . SVG Version: 6.00 Build 0)  -->
<svg version="1.1" id="Слой_1" xmlns="http://www.w3.org/2000/svg" xmlns:xlink="http://www.w3.org/1999/xlink" x="0px" y="0px"
	 viewBox="0 0 48 48" style="enable-background:new 0 0 48 48;" xml:space="preserve">
<path d="M40.2,44.4l-7.9-7.9c-0.5,0.4-1,0.7-1.6,1s-1.2,0.5-1.8,0.7c0.5-0.4,1-0.9,1.3-1.4c0.3-0.6,0.5-1.2,0.6-1.8l-1.5-1.6
	c0,0.1,0,0.2,0.1,0.4c0,0.1,0,0.2,0,0.3c0,1.4-0.5,2.6-1.5,3.7c-1,1-2.3,1.5-3.7,1.5c-1.5,0-2.7-0.5-3.7-1.5S19,35.6,19,34.2
	c0-0.7,0.1-1.3,0.4-1.9c0.3-0.6,0.6-1.1,1.1-1.6l3-3l-1.1-1.1l-3,3c-0.7,0.6-1.1,1.4-1.5,2.2c-0.3,0.8-0.5,1.6-0.5,2.5
	c0,1,0.2,2,0.7,2.9s1.1,1.7,1.9,2.3c-2.9-0.9-5.2-2.6-7.1-5C10.9,32,10,29.2,10,26c0-1.7,0.2-3.3,0.7-4.9c0.5-1.5,1.1-2.9,1.9-4.3
	l-7-7.1l1.1-1.1l34.5,34.5C41.3,43.3,40.2,44.4,40.2,44.4z M34.9,34.8L14.5,14.3c1.3-1.6,2.7-3,4.1-4.1s2.5-2,3.4-2.6v3
	c0,1.8,0.6,3.3,1.9,4.4c1.2,1.1,2.6,1.6,4.2,1.6c0.6,0,1.3-0.1,1.8-0.3c0.6-0.2,1.1-0.5,1.7-0.9l0.9-0.7c1.7,1.3,3.1,2.9,4.1,4.9
	s1.5,4.1,1.5,6.4c0,1.7-0.3,3.2-0.8,4.7C36.7,32.2,35.9,33.5,34.9,34.8z"/>
</svg>
