<?xml version="1.0" encoding="utf-8"?>
<!-- Generator: Adobe Illustrator 26.3.1, SVG Export Plug-In . SVG Version: 6.00 Build 0)  -->
<svg version="1.1" id="Слой_1" xmlns="http://www.w3.org/2000/svg" xmlns:xlink="http://www.w3.org/1999/xlink" x="0px" y="0px"
	 viewBox="0 0 48 48" style="enable-background:new 0 0 48 48;" xml:space="preserve">
<path d="M41.6,25.3c0,1.6-0.4,2.9-1.3,3.9c-0.8,0.9-1.9,1.4-3.2,1.4c-0.7,0-1.5-0.2-2.4-0.5c-0.9-0.4-1.6-0.8-2.1-1.4l-15-14.9
	C17.2,11.3,18,9.5,20,8.3s4.2-1.9,6.6-1.9c1.2,0,2.2,0.4,2.9,1.1c0.7,0.7,1.1,1.6,1.1,2.6c0,0.7-0.2,1.4-0.5,2s-0.7,1.1-1.3,1.5
	c-0.8,0.5-1.5,1.2-2,2.2s-0.9,2.1-1.1,3.3c0.3,0.1,0.6,0.2,0.9,0.3c0.2,0.1,0.4,0.3,0.6,0.5l5.2-2c0.5-0.2,0.9-0.3,1.4-0.4
	c0.4-0.1,0.9-0.1,1.3-0.1c2,0,3.6,0.8,4.8,2.3C41,21.2,41.6,23.1,41.6,25.3z M41.3,44.8L30.5,33.9c0,0.1,0,0.3,0.1,0.4
	c0,0.1,0,0.3,0,0.4c0,1.9-0.7,3.6-2.4,4.9c-1.6,1.3-3.8,2-6.6,2c-1.2,0-2.2-0.4-3-1.1c-0.8-0.7-1.2-1.6-1.2-2.7c0-0.7,0.2-1.4,0.5-2
	s0.7-1.1,1.3-1.5c0.8-0.5,1.4-1.2,1.9-2.1c0.5-0.9,0.9-2,1.2-3.4c-0.3-0.1-0.5-0.2-0.8-0.4c-0.2-0.1-0.4-0.3-0.7-0.4l-5.1,2
	c-0.5,0.2-1,0.3-1.4,0.4s-0.9,0.2-1.4,0.2c-2,0-3.6-0.7-4.8-2.2C7,26.9,6.4,25,6.4,22.7c0-1.7,0.4-3,1.3-3.9
	c0.8-0.9,1.9-1.3,3.3-1.3c0.8,0,1.8,0.2,2.8,0.5c1,0.4,1.8,0.8,2.3,1.4L2.5,6l1.1-1.1l38.8,38.8C42.4,43.6,41.3,44.8,41.3,44.8z"/>
</svg>
