<?xml version="1.0" encoding="utf-8"?>
<!-- Generator: Adobe Illustrator 26.3.1, SVG Export Plug-In . SVG Version: 6.00 Build 0)  -->
<svg version="1.1" id="Слой_1" xmlns="http://www.w3.org/2000/svg" xmlns:xlink="http://www.w3.org/1999/xlink" x="0px" y="0px"
	 viewBox="0 0 48 48" style="enable-background:new 0 0 48 48;" xml:space="preserve">
<path d="M24,24.1c-0.2,0-0.4-0.1-0.5-0.2s-0.2-0.3-0.2-0.5v-17c0-0.2,0.1-0.4,0.2-0.5s0.3-0.2,0.6-0.2c0.2,0,0.4,0.1,0.5,0.2
	s0.2,0.3,0.2,0.5v16.9c0,0.2-0.1,0.4-0.2,0.5C24.4,24,24.2,24.1,24,24.1z M24,40.1c-2.2,0-4.3-0.4-6.2-1.3c-1.9-0.8-3.6-2-5.1-3.4
	c-1.4-1.4-2.6-3.1-3.4-5.1c-0.8-2-1.3-4-1.3-6.2c0-2,0.4-3.9,1.1-5.8c0.7-1.8,1.8-3.5,3.2-5c0.1-0.2,0.3-0.2,0.5-0.2
	s0.4,0.1,0.6,0.2c0.1,0.1,0.2,0.3,0.2,0.5s-0.1,0.4-0.3,0.5c-1.2,1.3-2.1,2.8-2.8,4.5c-0.6,1.7-1,3.4-1,5.2c0,4,1.4,7.4,4.2,10.2
	s6.2,4.2,10.2,4.2s7.4-1.4,10.2-4.2S38.3,28,38.3,24c0-1.8-0.3-3.5-1-5.2c-0.6-1.6-1.6-3.1-2.8-4.5c-0.1-0.2-0.2-0.3-0.3-0.6
	c0-0.2,0-0.4,0.2-0.5c0.2-0.2,0.4-0.3,0.6-0.2c0.2,0,0.4,0.1,0.6,0.3c1.3,1.4,2.4,3.1,3.1,4.9c0.7,1.8,1.1,3.8,1.1,5.8
	c0,2.2-0.4,4.3-1.3,6.2c-0.8,2-2,3.6-3.4,5.1c-1.5,1.4-3.1,2.6-5.1,3.4C28.3,39.6,26.2,40.1,24,40.1z"/>
</svg>
