<?xml version="1.0" encoding="utf-8"?>
<!-- Generator: Adobe Illustrator 26.3.1, SVG Export Plug-In . SVG Version: 6.00 Build 0)  -->
<svg version="1.1" id="Слой_1" xmlns="http://www.w3.org/2000/svg" xmlns:xlink="http://www.w3.org/1999/xlink" x="0px" y="0px"
	 viewBox="0 0 48 48" style="enable-background:new 0 0 48 48;" xml:space="preserve">
<path d="M18.1,6c2.4,0,4.8,0.5,6.9,1.4c2.2,0.9,4.1,2.2,5.7,3.8c1.6,1.6,2.9,3.5,3.8,5.7c0.9,2.2,1.4,4.5,1.4,7.1
	c0,2.5-0.5,4.9-1.4,7c-0.9,2.2-2.2,4.1-3.8,5.7c-1.6,1.6-3.5,2.9-5.6,3.8S20.5,42,18,42c-1.1,0-2.1-0.1-3.1-0.3S13,41.3,12.2,41
	c2.5-2.3,4.4-4.8,5.7-7.8c1.3-2.9,2-6,2-9.2s-0.7-6.3-2-9.2S14.7,9.3,12.2,7c0.8-0.3,1.7-0.6,2.7-0.7C15.9,6.1,17,6,18.1,6z"/>
</svg>
