<?xml version="1.0" encoding="utf-8"?>
<!-- Generator: Adobe Illustrator 26.3.1, SVG Export Plug-In . SVG Version: 6.00 Build 0)  -->
<svg version="1.1" id="Слой_1" xmlns="http://www.w3.org/2000/svg" xmlns:xlink="http://www.w3.org/1999/xlink" x="0px" y="0px"
	 viewBox="0 0 48 48" style="enable-background:new 0 0 48 48;" xml:space="preserve">
<path d="M23.2,32.6L15.8,40c-0.1,0.1-0.3,0.2-0.5,0.2s-0.4-0.1-0.5-0.2c-0.2-0.1-0.3-0.3-0.3-0.5s0.1-0.4,0.3-0.6l8.5-8.5v-5.6h-5.6
	l-8.5,8.5c-0.1,0.1-0.3,0.2-0.5,0.2s-0.4-0.1-0.5-0.2C8,33.2,7.9,33,7.9,32.8s0.1-0.4,0.3-0.5l7.3-7.4H5.7c-0.2,0-0.4-0.1-0.5-0.2
	C5.1,24.4,5,24.2,5,24s0.1-0.4,0.2-0.5c0.1-0.2,0.3-0.2,0.6-0.2h9.6L8,15.8c-0.1-0.1-0.2-0.3-0.2-0.5s0.1-0.4,0.3-0.6
	c0.1-0.1,0.3-0.2,0.5-0.2s0.4,0.1,0.6,0.2l8.5,8.5h5.6v-5.6l-8.5-8.4c-0.1-0.1-0.2-0.3-0.2-0.5s0.1-0.4,0.2-0.6
	c0.1-0.1,0.3-0.2,0.5-0.2s0.4,0.1,0.6,0.2l7.3,7.2V5.8c0-0.2,0.1-0.4,0.2-0.5C23.6,5.1,23.8,5,24,5s0.4,0.1,0.5,0.2
	c0.2,0.2,0.2,0.3,0.2,0.5v9.5L32.2,8c0.1-0.1,0.3-0.2,0.5-0.2s0.4,0.1,0.6,0.2c0.1,0.2,0.2,0.4,0.2,0.6c0,0.2-0.1,0.4-0.2,0.5
	l-8.5,8.5v5.6h5.6l8.4-8.4c0.1-0.1,0.3-0.2,0.5-0.2s0.4,0.1,0.6,0.2c0.1,0.1,0.2,0.3,0.2,0.5s-0.1,0.4-0.2,0.5l-7.2,7.3h9.5
	c0.2,0,0.4,0.1,0.5,0.2c0.2,0.2,0.2,0.3,0.2,0.5s-0.1,0.4-0.2,0.6c-0.2,0.1-0.3,0.2-0.5,0.2h-9.5l7.3,7.5c0.1,0.1,0.2,0.3,0.2,0.5
	S40.1,33,40,33.1c-0.2,0.2-0.4,0.2-0.6,0.2c-0.2,0-0.4-0.1-0.5-0.2l-8.5-8.5h-5.6v5.6l8.5,8.6c0.1,0.1,0.2,0.3,0.2,0.5
	s-0.1,0.4-0.3,0.6c-0.1,0.2-0.3,0.2-0.5,0.2s-0.4-0.1-0.5-0.2l-7.4-7.4v9.6c0,0.2-0.1,0.4-0.2,0.5C24.4,42.9,24.2,43,24,43
	s-0.4-0.1-0.6-0.2c-0.1-0.1-0.2-0.3-0.2-0.6C23.2,42.2,23.2,32.6,23.2,32.6z"/>
</svg>
