<?xml version="1.0" encoding="utf-8"?>
<!-- Generator: Adobe Illustrator 26.3.1, SVG Export Plug-In . SVG Version: 6.00 Build 0)  -->
<svg version="1.1" id="Слой_1" xmlns="http://www.w3.org/2000/svg" xmlns:xlink="http://www.w3.org/1999/xlink" x="0px" y="0px"
	 viewBox="0 0 48 48" style="enable-background:new 0 0 48 48;" xml:space="preserve">
<path d="M29.6,31h6.2c0.2,0,0.4-0.1,0.5-0.2s0.2-0.3,0.2-0.5V17.8c0-0.2-0.1-0.4-0.2-0.5C36.2,17.1,36,17,35.8,17h-6.2
	c-0.2,0-0.4,0.1-0.5,0.2s-0.2,0.3-0.2,0.5v12.5c0,0.2,0.1,0.4,0.2,0.5C29.2,30.9,29.4,31,29.6,31z M30.4,29.5v-11H35v10.9h-4.6V29.5
	z M17.9,31H24c0.2,0,0.4-0.1,0.5-0.2s0.2-0.3,0.2-0.5V17.8c0-0.2-0.1-0.4-0.2-0.5C24.4,17.1,24.2,17,24,17h-6.1
	c-0.2,0-0.4,0.1-0.5,0.2s-0.2,0.3-0.2,0.5v12.5c0,0.2,0.1,0.4,0.2,0.5C17.5,30.9,17.7,31,17.9,31z M18.7,29.5v-11h4.5v10.9
	C23.2,29.5,18.7,29.5,18.7,29.5z M11.5,31H13V17h-1.5V31z M6,38V10h36v28H6z"/>
</svg>
