<?xml version="1.0" encoding="utf-8"?>
<!-- Generator: Adobe Illustrator 26.3.1, SVG Export Plug-In . SVG Version: 6.00 Build 0)  -->
<svg version="1.1" id="Слой_1" xmlns="http://www.w3.org/2000/svg" xmlns:xlink="http://www.w3.org/1999/xlink" x="0px" y="0px"
	 viewBox="0 0 48 48" style="enable-background:new 0 0 48 48;" xml:space="preserve">
<path d="M37.2,45v-6.2H31v-1.5h6.2V31h1.5v6.2H45v1.5h-6.2V45H37.2z M24,23c1.4,0,2.7-0.5,3.7-1.5s1.5-2.2,1.5-3.7
	c0-1.4-0.5-2.6-1.5-3.7c-1-1-2.2-1.5-3.7-1.5c-1.4,0-2.7,0.5-3.7,1.5s-1.5,2.2-1.5,3.7s0.5,2.6,1.5,3.7C21.3,22.5,22.6,23,24,23z
	 M20.9,18.8c-0.3,0-0.5-0.1-0.7-0.3c-0.2-0.2-0.3-0.4-0.3-0.7c0-0.3,0.1-0.5,0.3-0.7c0.2-0.2,0.4-0.3,0.7-0.3s0.5,0.1,0.7,0.3
	c0.2,0.2,0.3,0.4,0.3,0.7c0,0.3-0.1,0.5-0.3,0.7S21.2,18.8,20.9,18.8z M24,18.8c-0.3,0-0.5-0.1-0.7-0.3c-0.2-0.2-0.3-0.4-0.3-0.7
	c0-0.3,0.1-0.5,0.3-0.7c0.2-0.2,0.4-0.3,0.7-0.3c0.3,0,0.5,0.1,0.7,0.3c0.2,0.2,0.3,0.4,0.3,0.7c0,0.3-0.1,0.5-0.3,0.7
	C24.5,18.7,24.3,18.8,24,18.8z M27.1,18.8c-0.3,0-0.5-0.1-0.7-0.3c-0.2-0.2-0.3-0.4-0.3-0.7c0-0.3,0.1-0.5,0.3-0.7
	c0.2-0.2,0.4-0.3,0.7-0.3c0.3,0,0.5,0.1,0.7,0.3c0.2,0.2,0.3,0.4,0.3,0.7c0,0.3-0.1,0.5-0.3,0.7C27.6,18.7,27.3,18.8,27.1,18.8z
	 M10.8,40c-0.7,0-1.4-0.3-1.9-0.8C8.3,38.6,8,38,8,37.2V10.8c0-0.8,0.3-1.4,0.8-2C9.4,8.3,10,8,10.8,8h26.5c0.7,0,1.4,0.3,1.9,0.8
	c0.5,0.6,0.8,1.2,0.8,2V27c-0.3-0.1-0.7-0.2-1-0.2s-0.7-0.1-1-0.1c-3.1,0-5.8,1.1-8,3.3s-3.3,4.9-3.3,8c0,0.3,0,0.7,0.1,1
	s0.1,0.7,0.2,1H10.8z"/>
</svg>
