<?xml version="1.0" encoding="utf-8"?>
<!-- Generator: Adobe Illustrator 26.3.1, SVG Export Plug-In . SVG Version: 6.00 Build 0)  -->
<svg version="1.1" id="Слой_1" xmlns="http://www.w3.org/2000/svg" xmlns:xlink="http://www.w3.org/1999/xlink" x="0px" y="0px"
	 viewBox="0 0 48 48" style="enable-background:new 0 0 48 48;" xml:space="preserve">
<path d="M23.2,34.7h1.5v5.7h9.5V42H13.8v-1.5h9.4V34.7z M15.5,6h16.9c1.5,0,2.8,0.5,3.9,1.6C37.5,8.7,38,10,38,11.5v20.1
	c0,1.4-0.5,2.5-1.4,3.5c-0.9,0.9-2.1,1.4-3.4,1.4h-4.4v-5.7h-9.5v5.7h-4.4c-1.4,0-2.5-0.5-3.5-1.4c-0.9-1-1.4-2.1-1.4-3.5V11.5
	c0-1.5,0.5-2.8,1.6-3.9S14,6,15.5,6z M11.5,13.1v8.2h24.9v-8.2C36.5,13.1,11.5,13.1,11.5,13.1z"/>
</svg>
