<?xml version="1.0" encoding="utf-8"?>
<!-- Generator: Adobe Illustrator 26.3.1, SVG Export Plug-In . SVG Version: 6.00 Build 0)  -->
<svg version="1.1" id="Слой_1" xmlns="http://www.w3.org/2000/svg" xmlns:xlink="http://www.w3.org/1999/xlink" x="0px" y="0px"
	 viewBox="0 0 48 48" style="enable-background:new 0 0 48 48;" xml:space="preserve">
<path d="M7.6,42.7h6v-5.2c0-0.2,0.1-0.4,0.2-0.5c0.1-0.1,0.3-0.2,0.6-0.2c0.2,0,0.4,0.1,0.5,0.2c0.1,0.1,0.2,0.3,0.2,0.5v5.2h8.1
	v-5.2c0-0.2,0.1-0.4,0.2-0.5s0.3-0.2,0.6-0.2c0.2,0,0.4,0.1,0.5,0.2c0.1,0.1,0.2,0.3,0.2,0.5v5.2h8.1v-5.2c0-0.2,0.1-0.4,0.2-0.5
	c0.1-0.1,0.3-0.2,0.6-0.2c0.2,0,0.4,0.1,0.5,0.2c0.1,0.1,0.2,0.3,0.2,0.5v5.2h6c0.4,0,0.7-0.2,1-0.5c0.2-0.3,0.3-0.7,0.2-1.1
	l-2.7-9.4H9.1l-2.7,9.4c-0.1,0.4,0,0.7,0.2,1.1C6.8,42.5,7.2,42.7,7.6,42.7z M40.1,44.2H7.9c-1,0-1.8-0.4-2.4-1.2S4.7,41.4,5,40.4
	l2.8-9.6V26c0-0.8,0.3-1.6,0.9-2.1C9.3,23.3,10,23,10.8,23h8.6V8.4c0-1.3,0.4-2.4,1.3-3.3s2-1.3,3.3-1.3s2.4,0.4,3.3,1.3
	s1.3,2,1.3,3.3V23h8.6c0.8,0,1.6,0.3,2.1,0.9c0.6,0.6,0.9,1.3,0.9,2.1v4.9l2.8,9.7c0.3,0.9,0.1,1.8-0.5,2.5
	C41.9,43.8,41.1,44.2,40.1,44.2z"/>
</svg>
