<?xml version="1.0" encoding="utf-8"?>
<!-- Generator: Adobe Illustrator 26.3.1, SVG Export Plug-In . SVG Version: 6.00 Build 0)  -->
<svg version="1.1" id="Слой_1" xmlns="http://www.w3.org/2000/svg" xmlns:xlink="http://www.w3.org/1999/xlink" x="0px" y="0px"
	 viewBox="0 0 48 48" style="enable-background:new 0 0 48 48;" xml:space="preserve">
<path d="M14.3,36c-1.4,0-2.5-0.5-3.5-1.4c-1-1-1.4-2.1-1.4-3.5h-4v-5c0-1.9,0.7-3.5,2-4.9s3-2,4.9-2h6.9v10.4h8.9l7.7-9.6v-5.8
	c0-0.4-0.1-0.7-0.3-0.9S35,13,34.6,13h-4.8v-1.5h4.8c0.8,0,1.4,0.3,2,0.8c0.5,0.6,0.8,1.2,0.8,1.9v6.3L29,31.2h-9.8
	c0,1.4-0.5,2.5-1.4,3.5C16.8,35.5,15.6,36,14.3,36z M14.2,34.5c0.9,0,1.7-0.3,2.4-1s1-1.5,1-2.4h-6.8c0,0.9,0.3,1.7,1,2.4
	C12.5,34.1,13.3,34.5,14.2,34.5z M11.4,15.1v-1.5h7.8v1.5H11.4z M37.7,36c-1.4,0-2.5-0.5-3.5-1.4s-1.4-2.1-1.4-3.5s0.5-2.5,1.4-3.5
	s2.1-1.4,3.5-1.4s2.5,0.5,3.5,1.4s1.4,2.1,1.4,3.5c0,1.4-0.5,2.5-1.4,3.5C40.3,35.5,39.1,36,37.7,36z M37.7,34.5
	c0.9,0,1.7-0.3,2.4-1s1-1.5,1-2.4s-0.3-1.7-1-2.4c-0.7-0.7-1.5-1-2.4-1s-1.7,0.3-2.4,1s-1,1.5-1,2.4s0.3,1.7,1,2.4
	S36.8,34.5,37.7,34.5z"/>
</svg>
