<?xml version="1.0" encoding="utf-8"?>
<!-- Generator: Adobe Illustrator 26.3.1, SVG Export Plug-In . SVG Version: 6.00 Build 0)  -->
<svg version="1.1" id="Слой_1" xmlns="http://www.w3.org/2000/svg" xmlns:xlink="http://www.w3.org/1999/xlink" x="0px" y="0px"
	 viewBox="0 0 48 48" style="enable-background:new 0 0 48 48;" xml:space="preserve">
<path d="M22,40c-2.2,0-4.3-0.4-6.2-1.3s-3.6-2-5.1-3.4s-2.6-3.1-3.4-5.1C6.4,28.3,6,26.2,6,24s0.4-4.3,1.3-6.2
	c0.8-1.9,2-3.6,3.4-5.1s3.1-2.6,5.1-3.4c2-0.8,4-1.3,6.2-1.3c0.8,0,1.6,0.1,2.3,0.2c0.8,0.1,1.5,0.3,2.3,0.5v1.7
	c-0.7-0.3-1.5-0.4-2.3-0.6c-0.8-0.1-1.6-0.2-2.4-0.2c-4,0-7.4,1.4-10.2,4.2C9,16.6,7.5,20,7.5,24s1.4,7.4,4.2,10.2
	C14.6,37,18,38.5,22,38.5s7.4-1.4,10.2-4.2C35,31.4,36.5,28,36.5,24c0-0.4,0-0.9-0.1-1.4c0-0.5-0.1-1-0.3-1.5h1.5
	c0.1,0.4,0.1,0.9,0.2,1.4C38,23,38,23.5,38,24c0,2.2-0.4,4.3-1.3,6.2c-0.8,1.9-2,3.6-3.4,5.1c-1.4,1.4-3.1,2.6-5.1,3.4
	C26.3,39.6,24.2,40,22,40z M28.4,31.7l-7.3-7.3V14h1.5v9.7l6.9,6.9C29.5,30.6,28.4,31.7,28.4,31.7z M36.3,17.5v-6.1h-6.1V9.9h6.1
	V3.8h1.5v6.1H44v1.5h-6.1v6.1H36.3z"/>
</svg>
