<?xml version="1.0" encoding="utf-8"?>
<!-- Generator: Adobe Illustrator 26.3.1, SVG Export Plug-In . SVG Version: 6.00 Build 0)  -->
<svg version="1.1" id="Слой_1" xmlns="http://www.w3.org/2000/svg" xmlns:xlink="http://www.w3.org/1999/xlink" x="0px" y="0px"
	 viewBox="0 0 48 48" style="enable-background:new 0 0 48 48;" xml:space="preserve">
<path d="M10.5,10.9v26.2c-0.8-0.8-1.5-1.7-2.1-2.7s-1.2-2-1.6-3V16.6c0.5-1,1-2,1.6-3S9.7,11.7,10.5,10.9z M17.6,6.3v35.3
	c-1-0.4-2-0.8-2.9-1.3s-1.8-1.1-2.6-1.8V9.4c0.8-0.7,1.7-1.3,2.6-1.8C15.6,7.2,16.6,6.7,17.6,6.3z M28.2,42.3V5.6
	c4.2,1,7.7,3.2,10.4,6.5s4.1,7.3,4.1,11.8s-1.4,8.4-4.1,11.8C35.9,39.2,32.4,41.4,28.2,42.3z M24,42.8c-0.8,0-1.7-0.1-2.5-0.2
	c-0.8-0.1-1.6-0.2-2.4-0.4V5.8c0.8-0.2,1.6-0.3,2.4-0.4s1.6-0.2,2.5-0.2c0.5,0,0.9,0,1.4,0.1c0.5,0,0.9,0.1,1.3,0.2v37.1
	c-0.4,0.1-0.9,0.1-1.3,0.2C24.9,42.7,24.5,42.8,24,42.8z"/>
</svg>
