<?xml version="1.0" encoding="utf-8"?>
<!-- Generator: Adobe Illustrator 26.3.1, SVG Export Plug-In . SVG Version: 6.00 Build 0)  -->
<svg version="1.1" id="Слой_1" xmlns="http://www.w3.org/2000/svg" xmlns:xlink="http://www.w3.org/1999/xlink" x="0px" y="0px"
	 viewBox="0 0 48 48" style="enable-background:new 0 0 48 48;" xml:space="preserve">
<path d="M10.8,36c-2.2,0-4.1-0.8-5.7-2.3c-1.6-1.6-2.3-3.4-2.3-5.7s0.8-4.1,2.3-5.7c1.6-1.6,3.4-2.3,5.7-2.3h23.9l-6.1-6.1
	c-0.1-0.1-0.3-0.2-0.4-0.3s-0.3-0.1-0.4-0.1h-5.3V12h5.3c0.4,0,0.8,0.1,1.1,0.2c0.4,0.2,0.6,0.4,0.9,0.6l7.1,7.1
	c2.4-0.1,4.4,0.7,6,2.3c1.6,1.6,2.4,3.5,2.4,5.7S44.5,32,43,33.6c-1.6,1.6-3.4,2.3-5.7,2.3c-2.2,0-4.1-0.8-5.7-2.3
	c-1.6-1.6-2.3-3.4-2.3-5.7c0-1,0.2-2,0.7-2.9s1.1-1.8,1.8-2.5h-3.4L21.9,29h-3.3c-0.2,2-1.1,3.7-2.6,5S12.8,36,10.8,36z M37.2,34.5
	c1.8,0,3.3-0.6,4.6-1.9c1.3-1.3,1.9-2.8,1.9-4.6c0-1.8-0.6-3.3-1.9-4.6c-1.3-1.3-2.8-1.9-4.6-1.9s-3.3,0.6-4.6,1.9s-1.9,2.8-1.9,4.6
	c0,1.8,0.6,3.3,1.9,4.6C33.9,33.8,35.4,34.5,37.2,34.5z M10.8,34.5c1.6,0,3-0.5,4.2-1.6c1.2-1,2-2.4,2.3-4.1h-6v-1.5h6
	c-0.3-1.7-1-3.1-2.3-4.1c-1.2-1-2.6-1.6-4.2-1.6c-1.8,0-3.3,0.6-4.6,1.9s-1.9,2.8-1.9,4.6c0,1.8,0.6,3.3,1.9,4.6
	C7.4,33.8,9,34.5,10.8,34.5z"/>
</svg>
