<?xml version="1.0" encoding="utf-8"?>
<!-- Generator: Adobe Illustrator 26.3.1, SVG Export Plug-In . SVG Version: 6.00 Build 0)  -->
<svg version="1.1" id="Слой_1" xmlns="http://www.w3.org/2000/svg" xmlns:xlink="http://www.w3.org/1999/xlink" x="0px" y="0px"
	 viewBox="0 0 48 48" style="enable-background:new 0 0 48 48;" xml:space="preserve">
<path d="M15.2,25.9l2.1-4.3c0.2-0.5,0.6-0.9,1-1.1c0.4-0.3,0.9-0.4,1.4-0.4h3.5V6H34l-1.4,2.8l1.4,2.8h-9.2V20h3.3
	c0.5,0,1,0.1,1.5,0.4s0.8,0.6,1,1.1l2.1,4.4l-4.8,3.2l-3.9-2l-3.9,2C20.1,29.1,15.2,25.9,15.2,25.9z M7.2,42l7.3-14.8l5.4,3.6l4.1-2
	l4.1,2l5.4-3.6L40.8,42H7.2z"/>
</svg>
