<?xml version="1.0" encoding="utf-8"?>
<!-- Generator: Adobe Illustrator 26.3.1, SVG Export Plug-In . SVG Version: 6.00 Build 0)  -->
<svg version="1.1" id="Слой_1" xmlns="http://www.w3.org/2000/svg" xmlns:xlink="http://www.w3.org/1999/xlink" x="0px" y="0px"
	 viewBox="0 0 48 48" style="enable-background:new 0 0 48 48;" xml:space="preserve">
<path d="M30.8,42c-0.5,0-0.9-0.2-1.3-0.6c-0.4-0.4-0.6-0.9-0.6-1.3v-5.4c0-0.5,0.2-0.9,0.6-1.3c0.4-0.4,0.9-0.6,1.3-0.6h0.1v-2
	c0-1,0.3-1.9,1-2.6c0.7-0.7,1.5-1.1,2.5-1.1s1.9,0.4,2.5,1.1c0.7,0.7,1,1.6,1,2.6v2H38c0.5,0,0.9,0.2,1.3,0.6
	c0.4,0.4,0.6,0.8,0.6,1.3v5.4c0,0.4-0.2,0.9-0.6,1.3C39,41.8,38.6,42,38.1,42H30.8z M32.4,32.8h4.1v-2c0-0.6-0.2-1.1-0.6-1.5
	c-0.4-0.4-0.9-0.6-1.5-0.6s-1.1,0.2-1.5,0.6s-0.6,0.9-0.6,1.5C32.4,30.8,32.4,32.8,32.4,32.8z M12,17.7c0-3.2,1.1-5.9,3.2-8.2
	c2.2-2.3,4.8-3.5,8-3.7v12H12V17.7z M24.8,17.7v-12c3.2,0.2,5.8,1.4,8,3.7s3.2,5.1,3.2,8.2H24.8V17.7z M24,42
	c-3.3,0-6.2-1.2-8.5-3.5S12,33.3,12,30V19.2h24v4.4c-0.3,0-0.5-0.1-0.8-0.1s-0.5,0-0.8,0c-2.6,0-4.8,0.9-6.7,2.7
	c-1.8,1.8-2.7,4-2.7,6.7v9c-0.1,0-0.3,0-0.5,0.1C24.4,42,24.2,42,24,42z"/>
</svg>
