<?xml version="1.0" encoding="utf-8"?>
<!-- Generator: Adobe Illustrator 26.3.1, SVG Export Plug-In . SVG Version: 6.00 Build 0)  -->
<svg version="1.1" id="Слой_1" xmlns="http://www.w3.org/2000/svg" xmlns:xlink="http://www.w3.org/1999/xlink" x="0px" y="0px"
	 viewBox="0 0 48 48" style="enable-background:new 0 0 48 48;" xml:space="preserve">
<path d="M24,42c-3.3,0-6.2-1.2-8.5-3.5S12,33.3,12,30V19.2h24V30c0,3.3-1.2,6.2-3.5,8.5S27.3,42,24,42z M12,17.7
	c0-3.2,1.1-5.9,3.2-8.2c2.2-2.3,4.8-3.5,8-3.7v12C23.2,17.7,12,17.7,12,17.7z M24.8,17.7v-12c3.2,0.2,5.8,1.4,8,3.7s3.2,5,3.2,8.2
	H24.8V17.7z"/>
</svg>
