<?xml version="1.0" encoding="utf-8"?>
<!-- Generator: Adobe Illustrator 26.3.1, SVG Export Plug-In . SVG Version: 6.00 Build 0)  -->
<svg version="1.1" id="Слой_1" xmlns="http://www.w3.org/2000/svg" xmlns:xlink="http://www.w3.org/1999/xlink" x="0px" y="0px"
	 viewBox="0 0 48 48" style="enable-background:new 0 0 48 48;" xml:space="preserve">
<path d="M41.2,44L4.2,6.9l1.1-1.1l37,37.1C42.3,42.9,41.2,44,41.2,44z M30.8,42c-0.5,0-0.9-0.2-1.3-0.6c-0.4-0.4-0.6-0.9-0.6-1.3
	v-5.9c0-0.4,0.1-0.7,0.4-1s0.6-0.4,1-0.4h2.1l7.7,7.7v-0.1c-0.1,0.4-0.3,0.8-0.7,1.1S38.6,42,38.2,42C38.1,42,30.8,42,30.8,42z
	 M38,33.4l-1.5-1.5v-1.1c0-0.6-0.2-1.1-0.6-1.5c-0.4-0.4-0.9-0.6-1.5-0.6c-0.2,0-0.4,0-0.5,0.1c-0.2,0.1-0.3,0.2-0.4,0.3L32.3,28
	c0.3-0.2,0.6-0.4,0.9-0.5c0.3-0.1,0.7-0.2,1.1-0.2c1,0,1.9,0.4,2.5,1.1c0.7,0.7,1,1.6,1,2.6v2.4H38z M24.8,17.7v-12
	c3.2,0.2,5.8,1.4,8,3.7s3.2,5.1,3.2,8.2H24.8V17.7z M29.4,24.9l-5.7-5.7H36v4.4c-0.3,0-0.5-0.1-0.8-0.1s-0.5,0-0.8,0
	c-0.9,0-1.8,0.1-2.7,0.4C30.9,24.1,30.2,24.4,29.4,24.9z M24,42c-3.3,0-6.2-1.2-8.5-3.5S12,33.3,12,30V19.2h6.7l8.1,8.1
	c-0.6,0.8-1,1.6-1.4,2.6c-0.3,0.9-0.5,1.9-0.5,3v9c-0.1,0-0.3,0-0.5,0.1C24.3,42,24.2,42,24,42z M23.2,18.7l-8.6-8.6
	c1-1.3,2.3-2.3,3.8-3.1s3.1-1.2,4.8-1.3C23.2,5.7,23.2,18.7,23.2,18.7z M12,17.7c0-0.8,0.1-1.5,0.2-2.3c0.2-0.7,0.4-1.4,0.6-2.1
	l4.4,4.4H12z"/>
</svg>
