<?xml version="1.0" encoding="utf-8"?>
<!-- Generator: Adobe Illustrator 26.3.1, SVG Export Plug-In . SVG Version: 6.00 Build 0)  -->
<svg version="1.1" id="Слой_1" xmlns="http://www.w3.org/2000/svg" xmlns:xlink="http://www.w3.org/1999/xlink" x="0px" y="0px"
	 viewBox="0 0 48 48" style="enable-background:new 0 0 48 48;" xml:space="preserve">
<path d="M36.3,24.3l-1.1-1.1l6.2-6.2c-5.5-0.2-9.5,0.1-12,1.1c-2.5,0.9-4.6,2.1-6.1,3.7c1.8-3,4.3-4.8,7.7-5.6
	c3.4-0.8,6.8-1.2,10.3-1.2l-6.2-6.2l1.1-1.1l8.3,8.3L36.3,24.3z M24,42.7c-4.9-4.3-8.7-8.3-11.2-12C10.3,27.1,9,23.6,9,20.4
	c0-4.3,1.4-7.9,4.3-10.9S19.8,5,24,5c1.4,0,2.8,0.2,4.1,0.5c1.4,0.3,2.6,0.9,3.8,1.7l-1.1,1.1c-1-0.6-2.1-1.1-3.3-1.4
	S25.2,6.5,24,6.5c-3.8,0-6.9,1.4-9.6,4.1c-2.6,2.7-3.9,6-3.9,9.8c0,2.7,1.1,5.7,3.4,9.1c2.2,3.3,5.6,7.1,10.1,11.2
	c2-1.8,3.9-3.8,5.7-5.9c1.8-2.1,3.5-4.4,5.3-6.9l1.1,1.1c-2,2.8-4,5.4-6,7.7C28.1,38.9,26,40.9,24,42.7z"/>
</svg>
