<?xml version="1.0" encoding="utf-8"?>
<!-- Generator: Adobe Illustrator 26.3.1, SVG Export Plug-In . SVG Version: 6.00 Build 0)  -->
<svg version="1.1" id="Слой_1" xmlns="http://www.w3.org/2000/svg" xmlns:xlink="http://www.w3.org/1999/xlink" x="0px" y="0px"
	 viewBox="0 0 48 48" style="enable-background:new 0 0 48 48;" xml:space="preserve">
<path d="M20.2,42c-4.7-4.2-8.2-8-10.6-11.6S6,23.5,6,20.6c0-4.2,1.4-7.7,4.1-10.5C12.9,7.4,16.2,6,20.2,6s7.3,1.4,10.1,4.1
	s4.1,6.2,4.1,10.5c0,0.4,0,0.8,0,1.2c0,0.4-0.1,0.8-0.2,1.2c-1.5,0.4-2.9,1-4.1,1.9s-2.1,1.9-2.9,3.2c-0.7,1.2-1.2,2.6-1.5,4.1
	c-0.2,1.5-0.2,2.9,0.2,4.4c-0.9,0.9-1.8,1.8-2.7,2.7C22.3,40.1,21.3,41.1,20.2,42z M20.2,28.8c1.4,0,2.7-0.3,3.9-1
	c1.2-0.6,2.2-1.5,3-2.5c-1-0.7-2.1-1.2-3.3-1.5c-1.2-0.3-2.4-0.5-3.7-0.5c-1.3,0-2.5,0.2-3.7,0.5s-2.2,0.9-3.3,1.5
	c0.8,1.1,1.8,1.9,3,2.5C17.5,28.5,18.8,28.8,20.2,28.8z M20.2,18.8c0.8,0,1.4-0.3,2-0.8c0.5-0.5,0.8-1.2,0.8-2c0-0.8-0.3-1.4-0.8-2
	c-0.5-0.5-1.2-0.8-2-0.8s-1.4,0.3-2,0.8c-0.5,0.5-0.8,1.2-0.8,2c0,0.8,0.3,1.4,0.8,2C18.8,18.5,19.4,18.8,20.2,18.8z M37.2,40
	l-1.1-1.1l4.4-4.4H29.9V33h10.6l-4.4-4.4l1.1-1.1l6.3,6.3L37.2,40z"/>
</svg>
