<?xml version="1.0" encoding="utf-8"?>
<!-- Generator: Adobe Illustrator 26.3.1, SVG Export Plug-In . SVG Version: 6.00 Build 0)  -->
<svg version="1.1" id="Слой_1" xmlns="http://www.w3.org/2000/svg" xmlns:xlink="http://www.w3.org/1999/xlink" x="0px" y="0px"
	 viewBox="0 0 48 48" style="enable-background:new 0 0 48 48;" xml:space="preserve">
<path d="M41.6,24.8H18.4v-1.5h23.2l-4.8-4.8l1.1-1.1l6.7,6.7l-6.7,6.7l-1.1-1.1L41.6,24.8z M30.3,18.2v-7.4c0-0.4-0.1-0.7-0.3-0.9
	c-0.2-0.2-0.5-0.3-0.9-0.3H10.8c-0.4,0-0.7,0.1-0.9,0.3s-0.3,0.5-0.3,0.9v26.5c0,0.4,0.1,0.7,0.3,0.9s0.5,0.3,0.9,0.3h18.3
	c0.4,0,0.7-0.1,0.9-0.3c0.2-0.2,0.3-0.5,0.3-0.9v-7.4h1.5v7.4c0,0.7-0.3,1.4-0.8,1.9S29.8,40,29.1,40H10.8c-0.7,0-1.4-0.3-1.9-0.8
	S8,38,8,37.2V10.8c0-0.8,0.3-1.4,0.8-2C9.4,8.3,10,8,10.8,8h18.3c0.7,0,1.4,0.3,1.9,0.8s0.8,1.2,0.8,1.9v7.4
	C31.9,18.2,30.3,18.2,30.3,18.2z"/>
</svg>
