<?xml version="1.0" encoding="utf-8"?>
<!-- Generator: Adobe Illustrator 26.3.1, SVG Export Plug-In . SVG Version: 6.00 Build 0)  -->
<svg version="1.1" id="Слой_1" xmlns="http://www.w3.org/2000/svg" xmlns:xlink="http://www.w3.org/1999/xlink" x="0px" y="0px"
	 viewBox="0 0 48 48" style="enable-background:new 0 0 48 48;" xml:space="preserve">
<path d="M22,33.6c-0.2,0-0.3-0.1-0.4-0.2c-0.1-0.1-0.2-0.2-0.2-0.4c-0.4-1.1-0.9-2-1.5-2.8c-0.5-0.8-1.1-1.5-1.6-2.2
	c-0.7-0.9-1.3-1.8-1.8-2.8c-0.5-0.9-0.8-2.1-0.8-3.5c0-1.8,0.6-3.3,1.9-4.5c1.2-1.2,2.8-1.9,4.5-1.9c1.8,0,3.3,0.6,4.5,1.9
	c1.2,1.2,1.9,2.8,1.9,4.5c0,1.4-0.3,2.5-0.8,3.5c-0.5,0.9-1.1,1.9-1.8,2.8c-0.5,0.7-1.1,1.5-1.6,2.2c-0.5,0.8-1,1.7-1.4,2.8
	c-0.1,0.2-0.2,0.3-0.3,0.4C22.3,33.5,22.2,33.6,22,33.6z M22,23.9c0.6,0,1.1-0.2,1.5-0.6s0.6-0.9,0.6-1.5s-0.2-1.1-0.6-1.5
	s-0.9-0.6-1.5-0.6s-1.1,0.2-1.5,0.6s-0.6,0.9-0.6,1.5s0.2,1.1,0.6,1.5C20.9,23.7,21.4,23.9,22,23.9z M22.1,40.1
	c-4.5,0-8.3-1.6-11.4-4.7C7.5,32.3,6,28.5,6,24c0-2.2,0.4-4.3,1.3-6.3s2-3.7,3.4-5.1c1.5-1.5,3.2-2.6,5.1-3.4c2-0.8,4-1.3,6.3-1.3
	c2.2,0,4.3,0.4,6.3,1.3c2,0.8,3.7,2,5.1,3.4c1.5,1.5,2.6,3.2,3.4,5.1c0.8,2,1.3,4,1.3,6.3v3.1l4.5-4.5l1.1,1.1L37.5,30l-6.3-6.3
	l1.1-1.1l4.5,4.5v-3c0-4-1.4-7.4-4.3-10.3c-2.8-2.8-6.3-4.3-10.3-4.3s-7.4,1.4-10.3,4.3C8.9,16.6,7.5,20,7.5,24s1.4,7.4,4.2,10.3
	S18,38.6,22,38.6c1.9,0,3.6-0.3,5.3-1c1.6-0.7,3.1-1.6,4.5-2.8l1.1,1.1c-1.5,1.3-3.2,2.3-5.1,3.1C26,39.7,24,40.1,22.1,40.1z"/>
</svg>
