<?xml version="1.0" encoding="utf-8"?>
<!-- Generator: Adobe Illustrator 26.3.1, SVG Export Plug-In . SVG Version: 6.00 Build 0)  -->
<svg version="1.1" id="Слой_1" xmlns="http://www.w3.org/2000/svg" xmlns:xlink="http://www.w3.org/1999/xlink" x="0px" y="0px"
	 viewBox="0 0 48 48" style="enable-background:new 0 0 48 48;" xml:space="preserve">
<path d="M18.7,22.5l-1.4,3l-3.1,1.4l3.1,1.4l1.4,3l1.4-3l2.9-1.4l-3-1.4L18.7,22.5z M31.3,21.5l-1,2.2l-2.3,1l2.2,1l1,2.2l1-2.2
	l2.2-1l-2.2-1L31.3,21.5z M8.8,10l2.9,5.9h6.2L15,10h4.2l2.9,5.9h6.2L25.5,10h4.2l2.8,5.9h6.2L35.8,10h3.4c0.8,0,1.4,0.3,2,0.8
	c0.5,0.5,0.8,1.2,0.8,1.9v22.5c0,0.8-0.3,1.4-0.8,2S40,38,39.2,38H8.8c-0.8,0-1.4-0.3-1.9-0.8S6,36,6,35.2V12.8
	c0-0.8,0.3-1.4,0.8-1.9C7.3,10.3,8,10,8.8,10z"/>
</svg>
