<?xml version="1.0" encoding="utf-8"?>
<!-- Generator: Adobe Illustrator 26.3.1, SVG Export Plug-In . SVG Version: 6.00 Build 0)  -->
<svg version="1.1" id="Слой_1" xmlns="http://www.w3.org/2000/svg" xmlns:xlink="http://www.w3.org/1999/xlink" x="0px" y="0px"
	 viewBox="0 0 48 48" style="enable-background:new 0 0 48 48;" xml:space="preserve">
<path d="M8,41c-0.8,0-1.4-0.3-2-0.8c-0.5-0.5-0.8-1.2-0.8-2V9.8c0-0.8,0.3-1.4,0.8-2C6.6,7.3,7.2,7,8,7h32c0.8,0,1.4,0.3,2,0.8
	c0.5,0.5,0.8,1.2,0.8,2v28.5c0,0.8-0.3,1.4-0.8,2c-0.5,0.5-1.2,0.8-2,0.8L8,41L8,41z M8,39.5h5.4v-6.6H6.8v5.4
	c0,0.3,0.1,0.6,0.4,0.8C7.4,39.3,7.7,39.5,8,39.5z M34.7,39.5H40c0.3,0,0.6-0.1,0.8-0.4c0.3-0.3,0.4-0.5,0.4-0.8v-5.4h-6.6
	L34.7,39.5L34.7,39.5z M23.2,31.5h1.5v-10h-1.5V31.5z M6.8,31.4h6.6v-6.6H6.8V31.4z M34.7,31.4h6.6v-6.6h-6.6V31.4z M6.8,23.2h6.6
	v-6.6H6.8V23.2z M34.7,23.2h6.6v-6.6h-6.6V23.2z M24,17.7c0.3,0,0.5-0.1,0.7-0.3c0.2-0.2,0.3-0.4,0.3-0.7s-0.1-0.5-0.3-0.7
	c-0.2-0.2-0.4-0.3-0.7-0.3c-0.3,0-0.5,0.1-0.7,0.3c-0.2,0.2-0.3,0.4-0.3,0.7c0,0.3,0.1,0.5,0.3,0.7C23.5,17.6,23.7,17.7,24,17.7z
	 M6.8,15.1h6.6V8.5H8c-0.3,0-0.6,0.1-0.8,0.4C6.9,9.2,6.8,9.5,6.8,9.8V15.1z M34.7,15.1h6.6V9.8c0-0.3-0.1-0.6-0.4-0.8
	c-0.3-0.3-0.5-0.4-0.8-0.4h-5.3L34.7,15.1L34.7,15.1z"/>
</svg>
