<?xml version="1.0" encoding="utf-8"?>
<!-- Generator: Adobe Illustrator 26.3.1, SVG Export Plug-In . SVG Version: 6.00 Build 0)  -->
<svg version="1.1" id="Слой_1" xmlns="http://www.w3.org/2000/svg" xmlns:xlink="http://www.w3.org/1999/xlink" x="0px" y="0px"
	 viewBox="0 0 48 48" style="enable-background:new 0 0 48 48;" xml:space="preserve">
<path d="M14.7,38L8,31.3l6.7-6.6l1.1,1.1L11,30.6h15.3v1.5H10.9l4.8,4.8C15.7,36.9,14.7,38,14.7,38z M30.8,32.3
	c-0.2,0-0.5-0.1-0.7-0.3s-0.3-0.4-0.3-0.7c0-0.3,0.1-0.5,0.3-0.7c0.2-0.2,0.4-0.3,0.7-0.3c0.3,0,0.5,0.1,0.7,0.3
	c0.2,0.2,0.3,0.4,0.3,0.7c0,0.3-0.1,0.5-0.3,0.7C31.3,32.2,31,32.3,30.8,32.3z M36.2,32.3c-0.2,0-0.5-0.1-0.7-0.3s-0.3-0.4-0.3-0.7
	c0-0.3,0.1-0.5,0.3-0.7s0.4-0.3,0.7-0.3s0.5,0.1,0.7,0.3c0.2,0.2,0.3,0.4,0.3,0.7c0,0.3-0.1,0.5-0.3,0.7S36.5,32.3,36.2,32.3z
	 M33.3,23.3l-1.1-1.1l4.8-4.8H21.7v-1.5H37l-4.8-4.8l1.1-1.1l6.7,6.7L33.3,23.3z M11.8,17.6c-0.2,0-0.5-0.1-0.7-0.3
	c-0.2-0.2-0.3-0.4-0.3-0.7c0-0.3,0.1-0.5,0.3-0.7s0.4-0.3,0.7-0.3s0.5,0.1,0.7,0.3s0.3,0.4,0.3,0.7c0,0.2-0.1,0.5-0.3,0.7
	C12.3,17.5,12,17.6,11.8,17.6z M17.2,17.6c-0.2,0-0.5-0.1-0.7-0.3c-0.2-0.2-0.3-0.4-0.3-0.7c0-0.3,0.1-0.5,0.3-0.7
	c0.2-0.2,0.4-0.3,0.7-0.3c0.3,0,0.5,0.1,0.7,0.3s0.3,0.4,0.3,0.7c0,0.2-0.1,0.5-0.3,0.7C17.7,17.5,17.5,17.6,17.2,17.6z"/>
</svg>
