<?xml version="1.0" encoding="utf-8"?>
<!-- Generator: Adobe Illustrator 26.3.1, SVG Export Plug-In . SVG Version: 6.00 Build 0)  -->
<svg version="1.1" id="Слой_1" xmlns="http://www.w3.org/2000/svg" xmlns:xlink="http://www.w3.org/1999/xlink" x="0px" y="0px"
	 viewBox="0 0 48 48" style="enable-background:new 0 0 48 48;" xml:space="preserve">
<path d="M17,11V8.8c0-0.7,0.3-1.4,0.8-1.9C18.4,6.3,19,6,19.8,6h8.5c0.7,0,1.4,0.3,1.9,0.8C30.7,7.4,31,8,31,8.8V11h6.2
	c0.7,0,1.4,0.3,1.9,0.8c0.6,0.6,0.8,1.2,0.8,1.9v4.5H8v-4.5c0-0.7,0.3-1.4,0.8-1.9c0.6-0.5,1.2-0.8,2-0.8H17z M10.8,40
	c-0.7,0-1.4-0.3-1.9-0.8C8.3,38.6,8,38,8,37.2V19.8h7v3.7c0,0.7,0.3,1.4,0.8,1.9c0.6,0.6,1.2,0.8,1.9,0.8h12.5
	c0.7,0,1.4-0.3,1.9-0.8c0.6-0.6,0.8-1.2,0.8-1.9v-3.7h7v17.5c0,0.7-0.3,1.4-0.8,1.9C38.6,39.7,38,40,37.2,40H10.8z M15.8,34.5
	c0.4,0,0.7-0.1,0.9-0.4c0.3-0.3,0.4-0.6,0.4-0.9c0-0.4-0.1-0.7-0.4-0.9s-0.6-0.4-0.9-0.4c-0.4,0-0.7,0.1-0.9,0.4
	c-0.3,0.3-0.4,0.6-0.4,0.9c0,0.4,0.1,0.7,0.4,0.9C15.1,34.4,15.4,34.5,15.8,34.5z M24,34.5c0.4,0,0.7-0.1,0.9-0.4
	c0.3-0.3,0.4-0.6,0.4-0.9c0-0.4-0.1-0.7-0.4-0.9c-0.3-0.3-0.6-0.4-0.9-0.4c-0.4,0-0.7,0.1-0.9,0.4c-0.3,0.3-0.4,0.6-0.4,0.9
	c0,0.4,0.1,0.7,0.4,0.9C23.4,34.4,23.7,34.5,24,34.5z M32.2,34.5c0.4,0,0.7-0.1,0.9-0.4c0.3-0.3,0.4-0.6,0.4-0.9
	c0-0.4-0.1-0.7-0.4-0.9c-0.3-0.3-0.6-0.4-0.9-0.4c-0.4,0-0.7,0.1-0.9,0.4c-0.3,0.3-0.4,0.6-0.4,0.9c0,0.4,0.1,0.7,0.4,0.9
	S31.9,34.5,32.2,34.5z M17.8,24.7c-0.4,0-0.7-0.1-0.9-0.3c-0.2-0.2-0.3-0.5-0.3-0.9v-3.7h14.9v3.7c0,0.4-0.1,0.7-0.3,0.9
	c-0.2,0.2-0.5,0.3-0.9,0.3H17.8z M18.5,11h10.9V8.8c0-0.4-0.1-0.7-0.3-0.9c-0.2-0.2-0.5-0.3-0.9-0.3h-8.5c-0.4,0-0.7,0.1-0.9,0.3
	c-0.2,0.2-0.3,0.5-0.3,0.9C18.5,8.8,18.5,11,18.5,11z"/>
</svg>
