<?xml version="1.0" encoding="utf-8"?>
<!-- Generator: Adobe Illustrator 26.3.1, SVG Export Plug-In . SVG Version: 6.00 Build 0)  -->
<svg version="1.1" id="Слой_1" xmlns="http://www.w3.org/2000/svg" xmlns:xlink="http://www.w3.org/1999/xlink" x="0px" y="0px"
	 viewBox="0 0 48 48" style="enable-background:new 0 0 48 48;" xml:space="preserve">
<path d="M14.4,43c-0.6,0-1.2-0.1-1.8-0.4c-0.6-0.2-1.1-0.6-1.5-1L2.5,33l1-1c0.3-0.3,0.6-0.5,1-0.5c0.4-0.1,0.8,0,1.1,0.1l4.4,1
	V15.8c0-0.2,0.1-0.4,0.2-0.5c0.1-0.1,0.3-0.2,0.6-0.2c0.2,0,0.4,0.1,0.5,0.2c0.1,0.1,0.2,0.3,0.2,0.5v13.8h4.2v-7.8
	c0-0.2,0.1-0.4,0.2-0.5c0.1-0.1,0.3-0.2,0.6-0.2s0.4,0.1,0.5,0.2s0.2,0.3,0.2,0.5v7.8h4.1v-4.8c0-0.2,0.1-0.4,0.2-0.5
	s0.3-0.2,0.6-0.2c0.2,0,0.4,0.1,0.5,0.2s0.2,0.3,0.2,0.5v4.8H27c0-0.2,0.1-0.4,0.2-0.5s0.3-0.2,0.6-0.2c0.2,0,0.4,0.1,0.5,0.2
	s0.2,0.3,0.2,0.5v6.6c0,1.9-0.7,3.5-2,4.8s-2.9,2-4.8,2C21.8,43,14.4,43,14.4,43z M32.5,19.4c-2.4,0-4.6-0.6-6.6-1.8
	c-2-1.2-3.6-2.8-4.9-4.9c1.2-2,2.8-3.6,4.9-4.9S30.2,6,32.5,6c2.4,0,4.6,0.6,6.6,1.8s3.6,2.8,4.9,4.9c-1.2,2-2.8,3.7-4.9,4.9
	C37.1,18.8,34.9,19.4,32.5,19.4z M32.5,16c0.9,0,1.7-0.3,2.3-1c0.6-0.6,1-1.4,1-2.4c0-0.9-0.3-1.7-1-2.3c-0.6-0.6-1.4-1-2.4-1
	c-0.9,0-1.7,0.3-2.3,1c-0.6,0.6-1,1.4-1,2.4c0,0.9,0.3,1.7,1,2.3C30.8,15.7,31.6,16,32.5,16z M32.5,14.5c-0.5,0-0.9-0.2-1.3-0.5
	c-0.3-0.3-0.5-0.8-0.5-1.3s0.2-0.9,0.5-1.3c0.3-0.3,0.8-0.5,1.3-0.5s0.9,0.2,1.3,0.5c0.3,0.3,0.5,0.8,0.5,1.3s-0.2,0.9-0.5,1.3
	C33.5,14.3,33,14.5,32.5,14.5z"/>
</svg>
