<?xml version="1.0" encoding="utf-8"?>
<!-- Generator: Adobe Illustrator 26.3.1, SVG Export Plug-In . SVG Version: 6.00 Build 0)  -->
<svg version="1.1" id="Слой_1" xmlns="http://www.w3.org/2000/svg" xmlns:xlink="http://www.w3.org/1999/xlink" x="0px" y="0px"
	 viewBox="0 0 48 48" style="enable-background:new 0 0 48 48;" xml:space="preserve">
<path d="M6.6,35.7l-1.1-1.1l13.3-13.4l8,8.1l7.8-8.7c-2.1-2.5-4.5-4.4-7.1-5.8S22,12.7,19,12.7c-2.3,0-4.6,0.4-6.7,1.2
	s-4,1.9-5.8,3.3l-1.1-1.1c1.9-1.6,4-2.8,6.3-3.7s4.7-1.3,7.3-1.3c3.2,0,6.1,0.7,9,2.2c2.8,1.4,5.4,3.5,7.6,6.1l5.9-6.6l1,1.1
	l-6.1,6.9c1.1,1.6,2,3.4,2.7,5.4s1.3,4,1.6,6h-1.5c-0.3-1.6-0.7-3.3-1.3-5s-1.5-3.5-2.5-5.2l-8.6,9.5l-8.1-8.1L6.6,35.7z"/>
</svg>
