<?xml version="1.0" encoding="utf-8"?>
<!-- Generator: Adobe Illustrator 26.3.1, SVG Export Plug-In . SVG Version: 6.00 Build 0)  -->
<svg version="1.1" id="Слой_1" xmlns="http://www.w3.org/2000/svg" xmlns:xlink="http://www.w3.org/1999/xlink" x="0px" y="0px"
	 viewBox="0 0 48 48" style="enable-background:new 0 0 48 48;" xml:space="preserve">
<path d="M27.7,38c-1.6,0-3-0.5-4-1.6c-1.1-1.1-1.6-2.4-1.6-4c0-1.6,0.5-3,1.6-4.1s2.4-1.6,4-1.6c0.8,0,1.6,0.2,2.3,0.5
	c0.7,0.3,1.3,0.8,1.9,1.4v-19h10.3V14h-8.8v18.5c0,1.6-0.5,3-1.6,4C30.7,37.4,29.3,38,27.7,38z M5.8,32.3c0-3.1,0.6-6,1.7-8.7
	s2.7-5,4.6-7c2-2,4.3-3.5,6.9-4.6c2.7-1.1,5.5-1.7,8.6-1.7v1.5c-2.9,0-5.5,0.5-8,1.6c-2.5,1-4.6,2.5-6.5,4.3c-1.8,1.8-3.3,4-4.3,6.5
	s-1.6,5.2-1.6,8C7.3,32.3,5.8,32.3,5.8,32.3z M13.2,32.3c0-2.1,0.4-4,1.1-5.8c0.7-1.8,1.8-3.3,3.1-4.6c1.3-1.3,2.8-2.3,4.6-3
	c1.8-0.7,3.7-1.1,5.8-1.1v1.5c-3.8,0-6.9,1.2-9.3,3.7c-2.4,2.4-3.7,5.6-3.7,9.3C14.7,32.3,13.2,32.3,13.2,32.3z"/>
</svg>
