<?xml version="1.0" encoding="utf-8"?>
<!-- Generator: Adobe Illustrator 26.3.1, SVG Export Plug-In . SVG Version: 6.00 Build 0)  -->
<svg version="1.1" id="Слой_1" xmlns="http://www.w3.org/2000/svg" xmlns:xlink="http://www.w3.org/1999/xlink" x="0px" y="0px"
	 viewBox="0 0 48 48" style="enable-background:new 0 0 48 48;" xml:space="preserve">
<path d="M39,43.4L5.7,10.2l1.1-1.1l33.3,33.3C40.1,42.3,39,43.4,39,43.4z M26.7,23.9l-1.5-1.5v-14h9.6v4.5h-8.1
	C26.7,12.9,26.7,23.9,26.7,23.9z M20.9,39.6c-1.6,0-3-0.6-4.1-1.7c-1.1-1.1-1.7-2.5-1.7-4.1s0.6-3,1.7-4.1s2.5-1.7,4.1-1.7
	c0.8,0,1.6,0.2,2.4,0.5c0.7,0.3,1.4,0.8,1.9,1.4v-2.6l1.5,1.5v5c0,1.6-0.6,3-1.7,4.1C23.9,39.1,22.5,39.6,20.9,39.6z"/>
</svg>
