<?xml version="1.0" encoding="utf-8"?>
<!-- Generator: Adobe Illustrator 26.3.1, SVG Export Plug-In . SVG Version: 6.00 Build 0)  -->
<svg version="1.1" id="Слой_1" xmlns="http://www.w3.org/2000/svg" xmlns:xlink="http://www.w3.org/1999/xlink" x="0px" y="0px"
	 viewBox="0 0 48 48" style="enable-background:new 0 0 48 48;" xml:space="preserve">
<path d="M23.2,42.9v-2.8c-4.4-0.4-7.9-1.9-10.6-4.7c-2.7-2.7-4.3-6.3-4.7-10.6H5.1v-1.5h2.8c0.4-4.4,1.9-7.9,4.7-10.6
	S18.9,8.4,23.2,8V5.1h1.5v2.8c4.4,0.4,7.9,2,10.6,4.7s4.3,6.3,4.7,10.6h2.8v1.5H40c-0.4,4.4-2,7.9-4.7,10.6S29,39.6,24.7,40v2.8
	L23.2,42.9L23.2,42.9z M24,38.5c4,0,7.4-1.4,10.3-4.3c2.8-2.8,4.3-6.3,4.3-10.3s-1.4-7.4-4.3-10.3C31.4,10.9,28,9.5,24,9.5
	s-7.4,1.4-10.3,4.3C10.9,16.6,9.5,20,9.5,24s1.4,7.4,4.3,10.3S20,38.5,24,38.5z M24,29.8c-1.6,0-3-0.6-4.1-1.7s-1.7-2.5-1.7-4.1
	s0.6-3,1.7-4.1s2.5-1.7,4.1-1.7s3,0.6,4.1,1.7s1.7,2.5,1.7,4.1s-0.6,3-1.7,4.1C27,29.2,25.6,29.8,24,29.8z"/>
</svg>
