<?xml version="1.0" encoding="utf-8"?>
<!-- Generator: Adobe Illustrator 26.3.1, SVG Export Plug-In . SVG Version: 6.00 Build 0)  -->
<svg version="1.1" id="Слой_1" xmlns="http://www.w3.org/2000/svg" xmlns:xlink="http://www.w3.org/1999/xlink" x="0px" y="0px"
	 viewBox="0 0 48 48" style="enable-background:new 0 0 48 48;" xml:space="preserve">
<path d="M22,36.5c4,0,7.4-1.4,10.2-4.2s4.2-6.2,4.2-10.2s-1.4-7.4-4.2-10.2C29.4,8.9,26,7.5,22,7.5s-7.4,1.4-10.2,4.2
	C8.9,14.6,7.5,18,7.5,22s1.4,7.4,4.2,10.2C14.6,35.1,18,36.5,22,36.5z M22,26.1c1.1,0,2.1-0.4,2.9-1.2c0.8-0.8,1.2-1.8,1.2-2.9
	s-0.4-2.1-1.2-2.9c-0.8-0.8-1.8-1.2-2.9-1.2s-2.1,0.4-2.9,1.2c-0.8,0.8-1.2,1.8-1.2,2.9s0.4,2.1,1.2,2.9
	C19.9,25.7,20.9,26.1,22,26.1z M22,29.4c-2.6,0-4.9-0.7-7-2c-2-1.3-3.5-3.1-4.4-5.4c0.9-2.2,2.4-4,4.4-5.3c2-1.4,4.3-2,7-2
	c2.6,0,4.9,0.7,6.9,2c2,1.4,3.5,3.1,4.4,5.3c-0.9,2.2-2.4,4-4.4,5.4C26.9,28.7,24.6,29.4,22,29.4z M22,24.8c0.8,0,1.4-0.3,2-0.8
	c0.5-0.5,0.8-1.2,0.8-2s-0.3-1.4-0.8-2c-0.5-0.5-1.2-0.8-2-0.8s-1.4,0.3-2,0.8c-0.5,0.5-0.8,1.2-0.8,2s0.3,1.4,0.8,2
	C20.6,24.5,21.2,24.8,22,24.8z M40.9,42l-8.2-8.2c-1.4,1.3-3.1,2.3-4.9,3.1C26,37.6,24.1,38,22,38c-2.2,0-4.3-0.4-6.2-1.3
	c-1.9-0.8-3.6-2-5.1-3.4s-2.6-3.1-3.4-5.1C6.4,26.3,6,24.2,6,22s0.4-4.3,1.3-6.2c0.8-1.9,2-3.6,3.4-5.1s3.1-2.6,5.1-3.4
	C17.7,6.4,19.8,6,22,6s4.3,0.4,6.2,1.3c1.9,0.8,3.6,2,5.1,3.4c1.5,1.5,2.6,3.2,3.4,5.1c0.8,1.9,1.3,4,1.3,6.2c0,2.1-0.4,4-1.1,5.9
	c-0.7,1.8-1.8,3.5-3.1,4.9L42,41L40.9,42z"/>
</svg>
