<?xml version="1.0" encoding="utf-8"?>
<!-- Generator: Adobe Illustrator 26.3.1, SVG Export Plug-In . SVG Version: 6.00 Build 0)  -->
<svg version="1.1" id="Слой_1" xmlns="http://www.w3.org/2000/svg" xmlns:xlink="http://www.w3.org/1999/xlink" x="0px" y="0px"
	 viewBox="0 0 48 48" style="enable-background:new 0 0 48 48;" xml:space="preserve">
<path d="M12.7,42.2v-1.5h10.5v-9.9H18c-2.2,0-4.1-0.8-5.7-2.3C10.8,26.9,10,25,10,22.8c0-1.8,0.6-3.3,1.7-4.7
	c1.2-1.4,2.6-2.4,4.2-3.1c0.3-2.6,1.1-4.6,2.6-6.1C20,7.5,21.8,6.8,24,6.8s4,0.7,5.5,2.1s2.3,3.4,2.6,6.1c1.7,0.7,3.1,1.7,4.2,3.1
	c1.1,1.4,1.7,3,1.7,4.7c0,2.2-0.8,4.1-2.3,5.7c-1.6,1.6-3.4,2.3-5.7,2.3h-5.2v9.9h10.8v1.5C35.5,42.2,12.7,42.2,12.7,42.2z"/>
</svg>
