<?xml version="1.0" encoding="utf-8"?>
<!-- Generator: Adobe Illustrator 26.3.1, SVG Export Plug-In . SVG Version: 6.00 Build 0)  -->
<svg version="1.1" id="Слой_1" xmlns="http://www.w3.org/2000/svg" xmlns:xlink="http://www.w3.org/1999/xlink" x="0px" y="0px"
	 viewBox="0 0 48 48" style="enable-background:new 0 0 48 48;" xml:space="preserve">
<path d="M8.8,25.6c-0.5,0-0.9-0.2-1.3-0.5c-0.4-0.4-0.6-0.8-0.6-1.3s0.2-0.9,0.5-1.3c0.4-0.4,0.8-0.6,1.3-0.6s0.9,0.2,1.3,0.5
	c0.4,0.4,0.6,0.8,0.6,1.3s-0.2,0.9-0.5,1.3C9.7,25.4,9.3,25.6,8.8,25.6z M7.4,43v-7.7H5.8V28c0-0.2,0.1-0.4,0.2-0.5
	c0.2-0.1,0.4-0.2,0.6-0.2h4.2c0.2,0,0.4,0.1,0.6,0.2c0.2,0.1,0.2,0.3,0.2,0.5v7.3h-1.5v6.1h19.4V28.2h-4.8c-1.7,0-3.2-0.6-4.4-1.7
	c-1.2-1.1-1.8-2.5-1.8-4.1c0-1.3,0.4-2.6,1.3-3.8c0.9-1.2,2.1-2.1,3.6-2.7c0-2.2,0.8-3.9,2.2-5.2c1.4-1.3,3-2,4.7-2s3.3,0.7,4.7,2
	s2.1,3,2.2,5.2c1.5,0.6,2.7,1.5,3.6,2.7c0.9,1.2,1.3,2.4,1.3,3.8c0,1.6-0.6,3-1.8,4.1s-2.7,1.7-4.4,1.7H31v13.2h10.2V43H7.4z"/>
</svg>
