<?xml version="1.0" encoding="utf-8"?>
<!-- Generator: Adobe Illustrator 26.3.1, SVG Export Plug-In . SVG Version: 6.00 Build 0)  -->
<svg version="1.1" id="Слой_1" xmlns="http://www.w3.org/2000/svg" xmlns:xlink="http://www.w3.org/1999/xlink" x="0px" y="0px"
	 viewBox="0 0 48 48" style="enable-background:new 0 0 48 48;" xml:space="preserve">
<path d="M40.1,36.6V21.1h1.5v15.5H40.1z M40.9,41.5c-0.3,0-0.6-0.1-0.8-0.3s-0.3-0.5-0.3-0.8s0.1-0.5,0.3-0.8
	c0.2-0.2,0.5-0.4,0.8-0.4s0.5,0.1,0.7,0.4c0.2,0.2,0.4,0.5,0.4,0.8s-0.1,0.6-0.4,0.8C41.4,41.4,41.2,41.5,40.9,41.5z M22.8,40.7
	c-0.3,0-0.6-0.1-1-0.2c-0.3-0.1-0.7-0.4-1-0.6L7,25.9c-0.3-0.3-0.5-0.6-0.6-1c-0.1-0.3-0.2-0.7-0.2-1c0-0.4,0.1-0.7,0.2-1
	S6.7,22.3,7,22L20.9,8.1c0.3-0.3,0.6-0.5,0.9-0.6s0.7-0.2,1-0.2s0.7,0.1,1,0.2s0.6,0.3,0.9,0.6L35,18.4v2.9L23.4,9.6
	c-0.2-0.2-0.4-0.3-0.6-0.3s-0.4,0.1-0.6,0.3L8.4,23.4c-0.2,0.2-0.3,0.4-0.3,0.6s0.1,0.4,0.3,0.6l13.7,13.7c0.2,0.2,0.4,0.3,0.6,0.3
	s0.4-0.1,0.6-0.3L35,26.7v2.8L24.7,39.8c-0.3,0.3-0.6,0.5-1,0.6C23.4,40.6,23.1,40.7,22.8,40.7z M22.8,32.1L14.7,24l8.1-8.1l8.1,8.1
	L22.8,32.1z"/>
</svg>
