<?xml version="1.0" encoding="utf-8"?>
<!-- Generator: Adobe Illustrator 26.3.1, SVG Export Plug-In . SVG Version: 6.00 Build 0)  -->
<svg version="1.1" id="Слой_1" xmlns="http://www.w3.org/2000/svg" xmlns:xlink="http://www.w3.org/1999/xlink" x="0px" y="0px"
	 viewBox="0 0 48 48" style="enable-background:new 0 0 48 48;" xml:space="preserve">
<path d="M19.8,40.4v-9.3c-0.4,0.4-0.9,0.7-1.5,0.9c-0.5,0.2-1.1,0.3-1.7,0.3c-2.9,0-5.3-1.1-7.3-3.2s-2.9-4.6-2.9-7.6v-3.2
	c0-3,1-5.5,2.9-7.6c2-2.1,4.4-3.2,7.3-3.2c1.3,0,2.5,0.5,3.4,1.4s1.4,2,1.4,3.4c0,1.3-0.5,2.5-1.4,3.4s-2.1,1.4-3.4,1.4v5.7
	c1.3,0,2.5,0.5,3.4,1.4s1.4,2.1,1.4,3.4v12.8C21.4,40.4,19.8,40.4,19.8,40.4z M26.6,40.4V27.6c0-1.3,0.5-2.5,1.4-3.4
	s2.1-1.4,3.4-1.4v-5.7c-1.3,0-2.5-0.5-3.4-1.4s-1.4-2-1.4-3.4c0-1.3,0.5-2.5,1.4-3.4s2.1-1.4,3.4-1.4c2.9,0,5.3,1.1,7.3,3.2
	s2.9,4.6,2.9,7.6v3.2c0,3-1,5.5-2.9,7.6c-2,2.1-4.4,3.2-7.3,3.2c-0.6,0-1.2-0.1-1.7-0.3s-1-0.5-1.5-0.9v9.3
	C28.2,40.4,26.6,40.4,26.6,40.4z"/>
</svg>
