<?xml version="1.0" encoding="utf-8"?>
<!-- Generator: Adobe Illustrator 26.3.1, SVG Export Plug-In . SVG Version: 6.00 Build 0)  -->
<svg version="1.1" id="Слой_1" xmlns="http://www.w3.org/2000/svg" xmlns:xlink="http://www.w3.org/1999/xlink" x="0px" y="0px"
	 viewBox="0 0 48 48" style="enable-background:new 0 0 48 48;" xml:space="preserve">
<path d="M17.5,40c-2.6,0-4.9-0.9-6.7-2.8c-1.9-1.8-2.8-4-2.8-6.7v-13c0-2.6,0.9-4.9,2.8-6.7s4-2.8,6.7-2.8h13.1
	c2.6,0,4.9,0.9,6.7,2.8c1.8,1.8,2.8,4.1,2.8,6.7v13.1c0,2.6-0.9,4.9-2.8,6.7c-1.8,1.8-4.1,2.8-6.7,2.8L17.5,40L17.5,40z M18.4,38.5
	c0-0.4,0.1-0.8,0.4-1.1s0.6-0.4,1.1-0.4c0.4,0,0.8,0.1,1.1,0.4c0.3,0.3,0.4,0.6,0.4,1.1h5.4c0-0.4,0.1-0.8,0.4-1.1s0.6-0.4,1.1-0.4
	c0.4,0,0.8,0.1,1.1,0.4c0.3,0.3,0.4,0.6,0.4,1.1c1.8,0,3.2-0.2,4.3-0.7c1-0.5,2-1.2,2.8-2.2H34c0,0.4-0.1,0.8-0.4,1.1
	c-0.3,0.3-0.6,0.4-1.1,0.4c-0.4,0-0.8-0.1-1.1-0.4c-0.3-0.3-0.4-0.6-0.4-1.1h-5.4c0,0.4-0.1,0.8-0.4,1.1C24.8,36.9,24.4,37,24,37
	s-0.8-0.1-1.1-0.4c-0.3-0.3-0.4-0.6-0.4-1.1h-5.4c0,0.4-0.1,0.8-0.4,1.1S16.1,37,15.6,37c-0.4,0-0.8-0.1-1.1-0.4
	c-0.3-0.3-0.4-0.6-0.4-1.1h-2.8c0.8,1,1.7,1.7,2.7,2.2C15.2,38.2,16.6,38.5,18.4,38.5z"/>
</svg>
