<?xml version="1.0" encoding="utf-8"?>
<!-- Generator: Adobe Illustrator 26.3.1, SVG Export Plug-In . SVG Version: 6.00 Build 0)  -->
<svg version="1.1" id="Слой_1" xmlns="http://www.w3.org/2000/svg" xmlns:xlink="http://www.w3.org/1999/xlink" x="0px" y="0px"
	 viewBox="0 0 48 48" style="enable-background:new 0 0 48 48;" xml:space="preserve">
<path d="M18.4,42.4c-0.4,0-0.8-0.2-1.1-0.5c-0.3-0.3-0.5-0.7-0.5-1.1v-2.4c0-2.2,0.8-4.1,2.3-5.7c1.6-1.5,3.4-2.3,5.7-2.3
	c0.5,0,0.9,0,1.3,0.1s0.8,0.2,1.3,0.3l1.4-2.1l-5.1-0.5c-2.8-0.3-5.1-1.4-6.9-3.5c-1.8-2-2.8-4.4-2.8-7.2s0.9-5.2,2.8-7.2
	s4.2-3.2,6.9-3.5L31.1,6c0.8-0.1,1.5,0.2,2.1,0.7C33.8,7.3,34,8,34,8.8v17.3c0,0.8-0.3,1.5-0.9,2.1c-0.6,0.5-1.3,0.8-2.1,0.7
	l-0.6-0.1l-1.7,2.6c1.2,0.7,2.2,1.6,2.9,2.9c0.7,1.2,1.1,2.6,1.1,4.1v2.4c0,0.4-0.2,0.8-0.5,1.1s-0.7,0.5-1.2,0.5
	C31.2,42.4,18.4,42.4,18.4,42.4z"/>
</svg>
