<?xml version="1.0" encoding="utf-8"?>
<!-- Generator: Adobe Illustrator 26.3.1, SVG Export Plug-In . SVG Version: 6.00 Build 0)  -->
<svg version="1.1" id="Слой_1" xmlns="http://www.w3.org/2000/svg" xmlns:xlink="http://www.w3.org/1999/xlink" x="0px" y="0px"
	 viewBox="0 0 48 48" style="enable-background:new 0 0 48 48;" xml:space="preserve">
<path d="M24,42c-2.5,0-4.8-0.5-7-1.4s-4.1-2.2-5.7-3.8s-2.9-3.5-3.8-5.7C6.5,28.8,6,26.5,6,24s0.5-4.8,1.4-7s2.2-4.1,3.8-5.7
	s3.5-2.9,5.7-3.8C19.2,6.5,21.5,6,24,6s4.8,0.5,7,1.4s4.1,2.2,5.7,3.8c1.6,1.6,2.9,3.5,3.8,5.7c0.9,2.2,1.4,4.5,1.4,7
	s-0.5,4.8-1.4,7s-2.2,4.1-3.8,5.7s-3.5,2.9-5.7,3.8C28.8,41.5,26.5,42,24,42z M24,40.5c4.6,0,8.4-1.6,11.7-4.8
	c3.2-3.2,4.8-7.1,4.8-11.6s-1.6-8.4-4.8-11.7S28.6,7.5,24,7.5s-8.4,1.6-11.7,4.8C9.1,15.5,7.5,19.4,7.5,24s1.6,8.4,4.8,11.7
	C15.5,38.9,19.4,40.5,24,40.5z M24,36.9c-3.6,0-6.6-1.3-9.1-3.8s-3.8-5.6-3.8-9.2s1.3-6.6,3.8-9.2c2.5-2.5,5.6-3.8,9.1-3.8
	s6.6,1.3,9.2,3.8c2.5,2.5,3.8,5.6,3.8,9.2s-1.3,6.6-3.8,9.2C30.6,35.7,27.6,36.9,24,36.9z M24,35.4c3.1,0,5.8-1.1,8-3.3
	s3.3-4.9,3.3-8.1c0-3.1-1.1-5.8-3.3-8s-4.9-3.3-8.1-3.3c-3.1,0-5.8,1.1-8,3.3s-3.3,4.9-3.3,8.1c0,3.1,1.1,5.8,3.3,8
	C18.2,34.3,20.9,35.4,24,35.4z"/>
</svg>
