<?xml version="1.0" encoding="utf-8"?>
<!-- Generator: Adobe Illustrator 26.3.1, SVG Export Plug-In . SVG Version: 6.00 Build 0)  -->
<svg version="1.1" id="Слой_1" xmlns="http://www.w3.org/2000/svg" xmlns:xlink="http://www.w3.org/1999/xlink" x="0px" y="0px"
	 viewBox="0 0 48 48" style="enable-background:new 0 0 48 48;" xml:space="preserve">
<path d="M17.5,40c-2.2,0-4.1-0.7-5.8-2s-2.8-3.1-3.4-5.2h31.5c-0.5,2.1-1.7,3.9-3.4,5.2s-3.7,2-5.8,2H17.5z M8,31.2
	c0-0.1,0-0.2,0-0.3c0-0.1,0-0.2,0-0.3V17.5c0-2.6,0.9-4.8,2.8-6.7c1.8-1.9,4-2.8,6.7-2.8h13.1c2.6,0,4.8,0.9,6.7,2.8
	c1.8,1.8,2.8,4.1,2.8,6.7v13.4c0,0.1,0,0.2,0,0.3C40.1,31.2,8,31.2,8,31.2z"/>
</svg>
