<?xml version="1.0" encoding="utf-8"?>
<!-- Generator: Adobe Illustrator 26.3.1, SVG Export Plug-In . SVG Version: 6.00 Build 0)  -->
<svg version="1.1" id="Слой_1" xmlns="http://www.w3.org/2000/svg" xmlns:xlink="http://www.w3.org/1999/xlink" x="0px" y="0px"
	 viewBox="0 0 48 48" style="enable-background:new 0 0 48 48;" xml:space="preserve">
<path d="M17.5,40c-2.6,0-4.9-0.9-6.7-2.8S8,33.2,8,30.5V17.4c0-2.6,0.9-4.9,2.8-6.7s4-2.7,6.7-2.7h13.1c2.6,0,4.9,0.9,6.7,2.8
	s2.8,4.1,2.8,6.7v13.1c0,2.6-0.9,4.9-2.8,6.7S33.2,40,30.5,40H17.5z M18.4,38.5c0-0.4,0.1-0.8,0.4-1s0.6-0.4,1-0.4s0.8,0.1,1,0.4
	s0.4,0.6,0.4,1h5.4c0-0.4,0.1-0.8,0.4-1s0.6-0.4,1-0.4s0.8,0.1,1,0.4s0.4,0.6,0.4,1c1.8,0,3.3-0.2,4.3-0.7s1.9-1.2,2.8-2.2h-2.9
	c0,0.4-0.1,0.8-0.4,1c-0.3,0.3-0.6,0.4-1,0.4c-0.4,0-0.8-0.1-1-0.4s-0.4-0.6-0.4-1h-5.4c0,0.4-0.1,0.8-0.4,1S24.4,37,24,37
	s-0.8-0.1-1-0.4s-0.4-0.6-0.4-1h-5.4c0,0.4-0.1,0.8-0.4,1S16.1,37,15.7,37c-0.4,0-0.8-0.1-1.1-0.4s-0.4-0.6-0.4-1h-2.9
	c0.8,1,1.7,1.7,2.7,2.2S16.6,38.5,18.4,38.5z"/>
</svg>
