<?xml version="1.0" encoding="utf-8"?>
<!-- Generator: Adobe Illustrator 26.3.1, SVG Export Plug-In . SVG Version: 6.00 Build 0)  -->
<svg version="1.1" id="Слой_1" xmlns="http://www.w3.org/2000/svg" xmlns:xlink="http://www.w3.org/1999/xlink" x="0px" y="0px"
	 viewBox="0 0 48 48" style="enable-background:new 0 0 48 48;" xml:space="preserve">
<path d="M24,43c-2.5,0-4.6-0.9-6.4-2.6C15.9,38.6,15,36.5,15,34V14c0-2.5,0.9-4.6,2.6-6.4C19.4,5.9,21.5,5,24,5s4.6,0.9,6.4,2.6
	C32.1,9.4,33,11.5,33,14v10h-6.2c-0.7,0-1.4,0.3-1.9,0.8c-0.6,0.6-0.9,1.2-0.9,2v1.5c-1,0-1.9,0.4-2.7,1.1c-0.7,0.7-1.1,1.6-1.1,2.7
	c0,1,0.4,1.9,1.1,2.6c0.7,0.7,1.6,1.1,2.7,1.2V43z M29.5,43v-0.9c0-1.4,0.7-2.4,2.1-2.9s3-0.8,4.6-0.8c1.7,0,3.2,0.3,4.6,0.8
	c1.4,0.5,2.1,1.5,2.1,2.9V43H29.5z M36.2,34c-0.8,0-1.4-0.3-2-0.8c-0.5-0.5-0.8-1.2-0.8-2s0.3-1.4,0.8-2c0.5-0.5,1.2-0.8,2-0.8
	s1.4,0.3,2,0.8c0.5,0.5,0.8,1.2,0.8,2s-0.3,1.4-0.8,2C37.7,33.7,37,34,36.2,34z M24,34.3c-0.7,0-1.2-0.2-1.7-0.7
	c-0.4-0.4-0.7-1-0.7-1.7s0.2-1.2,0.7-1.7c0.4-0.5,1-0.7,1.6-0.7c0.7,0,1.2,0.2,1.7,0.7s0.7,1,0.7,1.7s-0.2,1.2-0.7,1.7
	C25.2,34.1,24.7,34.3,24,34.3z M24,19.8c1,0,1.9-0.4,2.7-1.1c0.7-0.7,1.1-1.6,1.1-2.7s-0.4-1.9-1.1-2.7c-0.7-0.7-1.6-1.1-2.7-1.1
	c-1,0-1.9,0.4-2.7,1.1c-0.7,0.7-1.1,1.6-1.1,2.7s0.4,1.9,1.1,2.7S23,19.8,24,19.8z"/>
</svg>
