<?xml version="1.0" encoding="utf-8"?>
<!-- Generator: Adobe Illustrator 26.3.1, SVG Export Plug-In . SVG Version: 6.00 Build 0)  -->
<svg version="1.1" id="Слой_1" xmlns="http://www.w3.org/2000/svg" xmlns:xlink="http://www.w3.org/1999/xlink" x="0px" y="0px"
	 viewBox="0 0 48 48" style="enable-background:new 0 0 48 48;" xml:space="preserve">
<path d="M14.4,29.8h7.5v-1.3h-5.8l0,0c0.5-0.5,1.2-1.1,1.9-1.7c0.7-0.6,1.3-1.1,1.7-1.6c0.7-0.7,1.2-1.3,1.6-1.9
	c0.3-0.6,0.5-1.3,0.5-2c0-0.8-0.3-1.5-1-2.2S19.3,18,18.2,18c-0.9,0-1.6,0.2-2.3,0.7s-1.2,1-1.5,1.8l1.2,0.5
	c0.2-0.5,0.5-0.9,0.9-1.2c0.4-0.3,0.9-0.4,1.6-0.4s1.2,0.2,1.7,0.5c0.5,0.4,0.7,0.9,0.7,1.5c0,0.5-0.1,1-0.4,1.5s-0.8,1-1.5,1.7
	c-0.5,0.5-1.2,1-1.8,1.6c-0.7,0.6-1.5,1.3-2.4,2.1C14.4,28.2,14.4,29.8,14.4,29.8z M28.9,30.1c1.5,0,2.6-0.6,3.4-1.7
	s1.2-2.6,1.2-4.3s-0.4-3.2-1.2-4.3c-0.8-1.1-1.9-1.7-3.4-1.7s-2.6,0.6-3.4,1.7s-1.2,2.6-1.2,4.3s0.4,3.2,1.2,4.3
	C26.3,29.5,27.4,30.1,28.9,30.1z M28.9,28.8c-1,0-1.8-0.4-2.4-1.1c-0.6-0.8-0.9-2-0.9-3.6s0.3-2.7,0.9-3.5s1.4-1.2,2.4-1.2
	s1.8,0.4,2.4,1.2c0.6,0.8,1,2,1,3.5c0,1.6-0.3,2.8-0.9,3.6C30.7,28.4,29.9,28.8,28.9,28.8z M24,42c-2.5,0-4.8-0.5-7-1.4
	s-4.1-2.2-5.7-3.9c-1.6-1.6-2.9-3.5-3.9-5.7C6.5,28.8,6,26.5,6,24s0.5-4.8,1.4-7s2.2-4.1,3.9-5.7c1.6-1.6,3.5-2.9,5.7-3.8
	c2.2-1,4.5-1.5,7-1.5s4.8,0.5,7,1.4s4.1,2.2,5.7,3.8c1.6,1.6,2.9,3.5,3.8,5.7c0.9,2.2,1.4,4.5,1.4,7s-0.5,4.8-1.4,7
	s-2.2,4.1-3.8,5.7s-3.5,2.9-5.7,3.9S26.5,42,24,42z"/>
</svg>
