<?xml version="1.0" encoding="utf-8"?>
<!-- Generator: Adobe Illustrator 26.3.1, SVG Export Plug-In . SVG Version: 6.00 Build 0)  -->
<svg version="1.1" id="Слой_1" xmlns="http://www.w3.org/2000/svg" xmlns:xlink="http://www.w3.org/1999/xlink" x="0px" y="0px"
	 viewBox="0 0 48 48" style="enable-background:new 0 0 48 48;" xml:space="preserve">
<path d="M13.2,27.8h1.2v-7.6h-0.8l-2.2,1.6l0.6,1l1.2-0.9V27.8z M16.1,27.9h5v-1.2h-3.3v-0.1l1.9-2c0.4-0.4,0.7-0.8,0.9-1.2
	c0.2-0.4,0.3-0.8,0.3-1.2c0-0.7-0.2-1.2-0.7-1.6c-0.4-0.4-1-0.6-1.7-0.6c-0.6,0-1.1,0.1-1.6,0.4c-0.4,0.3-0.7,0.7-0.9,1.2l1,0.5
	c0.1-0.3,0.3-0.6,0.6-0.8c0.2-0.2,0.5-0.2,0.9-0.2s0.7,0.1,0.9,0.3s0.3,0.4,0.3,0.8s-0.3,0.9-0.9,1.5L16,26.6v1.3H16.1z M23.1,27.8
	c0.3,0,0.5-0.1,0.7-0.2C24,27.4,24,27.2,24,27s-0.1-0.5-0.2-0.6c-0.2-0.2-0.4-0.2-0.7-0.2c-0.3,0-0.5,0.1-0.6,0.2
	c-0.2,0.2-0.2,0.4-0.2,0.6s0.1,0.5,0.2,0.6C22.7,27.7,22.9,27.8,23.1,27.8z M23.1,23.8c0.3,0,0.5-0.1,0.7-0.2C24,23.4,24,23.2,24,23
	c0-0.3-0.1-0.5-0.2-0.7c-0.2-0.2-0.4-0.2-0.7-0.2c-0.3,0-0.5,0.1-0.6,0.2c-0.2,0.2-0.2,0.4-0.2,0.7c0,0.3,0.1,0.5,0.2,0.6
	C22.7,23.7,22.9,23.8,23.1,23.8z M27.8,28c0.8,0,1.4-0.2,1.9-0.6s0.7-1,0.7-1.7c0-0.5-0.1-0.9-0.4-1.2c-0.2-0.3-0.6-0.6-1-0.7l0,0
	c0.3-0.2,0.6-0.4,0.8-0.7s0.3-0.6,0.3-1c0-0.6-0.2-1.1-0.7-1.5s-1-0.6-1.7-0.6c-0.6,0-1.1,0.1-1.5,0.4s-0.7,0.7-0.9,1.2l1.1,0.4
	c0.1-0.3,0.3-0.5,0.5-0.7s0.5-0.2,0.8-0.2c0.4,0,0.7,0.1,0.9,0.3c0.2,0.2,0.3,0.4,0.3,0.7c0,0.3-0.1,0.6-0.4,0.8s-0.6,0.3-0.9,0.3
	H27v1.1h0.7c0.5,0,0.8,0.1,1.1,0.3s0.4,0.5,0.4,0.8s-0.1,0.7-0.4,0.9s-0.6,0.4-1,0.4s-0.7-0.1-0.9-0.3c-0.2-0.2-0.4-0.5-0.5-1
	L25.1,26c0.2,0.6,0.5,1.1,1,1.5C26.5,27.8,27.1,28,27.8,28z M34,28c0.7,0,1.4-0.2,1.9-0.8s0.8-1.1,0.8-1.9c0-0.7-0.2-1.2-0.7-1.7
	c-0.4-0.5-1-0.7-1.6-0.7c-0.1,0-0.3,0.1-0.8,0.2l0,0l1.8-2.4l-1-0.7l-2,2.8c-0.4,0.6-0.7,1-0.8,1.4c-0.1,0.4-0.2,0.7-0.2,1.1
	c0,0.8,0.3,1.4,0.8,1.9S33.2,28,34,28z M34,26.9c-0.4,0-0.7-0.1-1-0.4s-0.4-0.6-0.4-1s0.1-0.7,0.4-1c0.3-0.3,0.6-0.4,1-0.4
	s0.7,0.1,1,0.4s0.4,0.6,0.4,1s-0.1,0.7-0.4,1C34.7,26.7,34.4,26.9,34,26.9z M24,42c-2.5,0-4.8-0.5-7-1.4s-4.1-2.2-5.7-3.9
	c-1.6-1.6-2.9-3.5-3.9-5.7C6.5,28.8,6,26.5,6,24s0.5-4.8,1.4-7s2.2-4.1,3.9-5.7c1.6-1.6,3.5-2.9,5.7-3.9C19.2,6.5,21.5,6,24,6
	s4.8,0.5,7,1.4s4.1,2.2,5.7,3.9c1.6,1.6,2.9,3.5,3.9,5.7c0.9,2.2,1.4,4.5,1.4,7s-0.5,4.8-1.4,7s-2.2,4.1-3.9,5.7
	c-1.6,1.6-3.5,2.9-5.7,3.9C28.8,41.5,26.5,42,24,42z"/>
</svg>
