<?xml version="1.0" encoding="utf-8"?>
<!-- Generator: Adobe Illustrator 26.3.1, SVG Export Plug-In . SVG Version: 6.00 Build 0)  -->
<svg version="1.1" id="Слой_1" xmlns="http://www.w3.org/2000/svg" xmlns:xlink="http://www.w3.org/1999/xlink" x="0px" y="0px"
	 viewBox="0 0 48 48" style="enable-background:new 0 0 48 48;" xml:space="preserve">
<path d="M9.3,38.4c-0.1-0.1-0.2-0.3-0.2-0.5s0.1-0.4,0.2-0.5l4.2-4.3c-1.1-1.3-2-2.7-2.6-4.3c-0.6-1.6-1-3.3-1-5.1
	c0-3.9,1.4-7.2,4.1-9.9s6-4.1,9.9-4.1h14v14c0,3.9-1.4,7.2-4.1,9.9c-2.7,2.7-6,4.1-9.9,4.1c-1.8,0-3.5-0.3-5.1-1
	c-1.6-0.6-3-1.5-4.2-2.6l-4.3,4.2c-0.1,0.2-0.3,0.3-0.5,0.3C9.7,38.6,9.5,38.6,9.3,38.4z M17.4,30.4c0.1,0.1,0.3,0.2,0.5,0.2
	s0.4-0.1,0.5-0.2l7.9-7.9c0.1-0.1,0.2-0.3,0.2-0.5s-0.1-0.4-0.2-0.5s-0.3-0.2-0.5-0.2s-0.4,0.1-0.5,0.2l-7.9,7.9
	c-0.1,0.1-0.2,0.3-0.2,0.5S17.3,30.2,17.4,30.4z"/>
</svg>
