<?xml version="1.0" encoding="utf-8"?>
<!-- Generator: Adobe Illustrator 26.3.1, SVG Export Plug-In . SVG Version: 6.00 Build 0)  -->
<svg version="1.1" id="Слой_1" xmlns="http://www.w3.org/2000/svg" xmlns:xlink="http://www.w3.org/1999/xlink" x="0px" y="0px"
	 viewBox="0 0 48 48" style="enable-background:new 0 0 48 48;" xml:space="preserve">
<path d="M40.5,23.9c-0.4,0-0.8-0.2-1.1-0.5s-0.5-0.7-0.5-1.1V11.5c0-0.4,0.2-0.8,0.5-1.1s0.7-0.5,1.1-0.5c0.4,0,0.8,0.2,1.1,0.5
	s0.5,0.7,0.5,1.1v10.8c0,0.4-0.2,0.8-0.5,1.1C41.2,23.8,40.9,23.9,40.5,23.9z M15.2,40c-0.3,0-0.5-0.1-0.8-0.2
	c-0.2-0.1-0.5-0.3-0.7-0.5l-8.6-8.7l1.2-1.2C6.5,29.2,6.7,29,7,29c0.2-0.1,0.5-0.1,0.8,0l6.6,1.3V10.5c0-0.7,0.2-1.3,0.7-1.8
	C15.7,8.2,16.3,8,17,8s1.3,0.2,1.8,0.7s0.7,1.1,0.7,1.8v10.9h2c0.2,0,0.4,0,0.5,0.1c0.2,0,0.3,0.1,0.4,0.2L29,25
	c1,0.5,1.6,1.2,2,2.2s0.5,2,0.3,3l-1.4,8.3c-0.1,0.5-0.3,0.8-0.7,1.1C29,39.9,28.5,40,28,40H15.2z"/>
</svg>
