<?xml version="1.0" encoding="utf-8"?>
<!-- Generator: Adobe Illustrator 26.3.1, SVG Export Plug-In . SVG Version: 6.00 Build 0)  -->
<svg version="1.1" id="Слой_1" xmlns="http://www.w3.org/2000/svg" xmlns:xlink="http://www.w3.org/1999/xlink" x="0px" y="0px"
	 viewBox="0 0 48 48" style="enable-background:new 0 0 48 48;" xml:space="preserve">
<path d="M24,36.8c-1.5,0-2.8-0.5-3.9-1.6s-1.6-2.4-1.6-3.9c0-1.5,0.5-2.8,1.6-3.9s2.4-1.6,3.9-1.6s2.8,0.5,3.9,1.6s1.6,2.4,1.6,3.9
	c0,1.5-0.5,2.8-1.6,3.9S25.5,36.8,24,36.8z M9.9,16.7l-1.1-1.1c2-1.9,4.2-3.4,6.8-4.5c2.5-1.1,5.3-1.7,8.4-1.7s5.9,0.6,8.4,1.7
	s4.8,2.6,6.8,4.5l-1.1,1.1c-1.9-1.8-4-3.2-6.4-4.2S26.7,11,24,11s-5.3,0.5-7.7,1.5S11.8,14.9,9.9,16.7z M32.4,22.6
	c-1.2-1.1-2.5-2-3.9-2.5s-2.9-0.8-4.5-0.8s-3.2,0.3-4.5,0.8c-1.4,0.5-2.7,1.4-3.9,2.5l-1.1-1.1c1.4-1.2,2.9-2.2,4.4-2.8
	c1.6-0.6,3.3-0.9,5-0.9s3.5,0.3,5,0.9c1.6,0.6,3.1,1.6,4.5,2.8C33.5,21.5,32.4,22.6,32.4,22.6z"/>
</svg>
