<?xml version="1.0" encoding="utf-8"?>
<!-- Generator: Adobe Illustrator 26.3.1, SVG Export Plug-In . SVG Version: 6.00 Build 0)  -->
<svg version="1.1" id="Слой_1" xmlns="http://www.w3.org/2000/svg" xmlns:xlink="http://www.w3.org/1999/xlink" x="0px" y="0px"
	 viewBox="0 0 48 48" style="enable-background:new 0 0 48 48;" xml:space="preserve">
<path d="M11.3,37.3l-0.4-1.5H9.3c-0.8,0-1.5-0.3-2.1-0.9s-0.8-1.3-0.7-2.1L7.7,13c0.1-0.8,0.4-1.4,0.9-1.9s1.1-0.7,1.9-0.7h26.9
	c0.7,0,1.4,0.2,1.9,0.7s0.8,1.1,0.9,1.9l1.2,19.9c0.1,0.8-0.2,1.5-0.7,2.1s-1.2,0.9-2,0.9h-1.5l-0.5,1.5L11.3,37.3z M8.8,21.5h30.4
	l-0.5-8.4c0-0.3-0.1-0.6-0.3-0.8S37.9,12,37.6,12h-27c-0.3,0-0.6,0.1-0.8,0.3s-0.3,0.5-0.4,0.8L8.8,21.5z M9.4,34.3h29.4
	c0.3,0,0.6-0.1,0.9-0.4S40,33.4,40,33l-0.7-9.9H8.7L8.1,33c0,0.4,0.1,0.7,0.3,0.9S9,34.3,9.4,34.3z"/>
</svg>
