<?xml version="1.0" encoding="utf-8"?>
<!-- Generator: Adobe Illustrator 26.3.1, SVG Export Plug-In . SVG Version: 6.00 Build 0)  -->
<svg version="1.1" id="Слой_1" xmlns="http://www.w3.org/2000/svg" xmlns:xlink="http://www.w3.org/1999/xlink" x="0px" y="0px"
	 viewBox="0 0 48 48" style="enable-background:new 0 0 48 48;" xml:space="preserve">
<path d="M24,42c-2.5,0-4.8-0.5-7-1.4s-4.1-2.2-5.7-3.9c-1.6-1.6-2.9-3.5-3.9-5.7C6.5,28.8,6,26.5,6,24s0.5-4.8,1.4-7
	s2.2-4.1,3.9-5.7c1.6-1.6,3.5-2.9,5.7-3.9C19.2,6.5,21.5,6,24,6c2.4,0,4.6,0.4,6.8,1.3c2.1,0.9,4,2.1,5.6,3.7
	c1.6,1.5,2.9,3.4,3.9,5.4c1,2.1,1.6,4.3,1.7,6.7c-0.8-0.5-1.6-0.8-2.4-1c-0.8-0.2-1.7-0.3-2.6-0.3c-0.7,0-1.3,0.1-2,0.2
	c-0.6,0.1-1.2,0.3-1.8,0.6c-0.2-1.3-0.7-2.5-1.5-3.3c-0.8-0.9-1.8-1.3-3-1.3c-1.5,0-2.6,0.6-3.4,1.7s-1.2,2.6-1.2,4.3
	c0,1.4,0.3,2.6,0.8,3.7c0.5,1,1.3,1.7,2.3,2.1c-0.1,0.3-0.1,0.7-0.2,1c0,0.4,0,0.7,0,1.1c0,1.7,0.4,3.4,1.2,4.9
	c0.8,1.5,1.9,2.7,3.4,3.6c-1.2,0.6-2.4,1-3.7,1.3C26.6,41.9,25.3,42,24,42z M27.5,28.5c-0.7-0.3-1.2-0.8-1.6-1.5s-0.6-1.7-0.6-3
	c0-1.6,0.3-2.7,0.9-3.5s1.4-1.2,2.4-1.2c0.9,0,1.6,0.3,2.2,1s1,1.6,1.1,2.9c-1,0.6-1.9,1.3-2.7,2.2C28.5,26.3,27.9,27.3,27.5,28.5z
	 M37,40.4c-2.4,0-4.4-0.8-6.1-2.5c-1.7-1.7-2.5-3.7-2.5-6.1s0.8-4.4,2.5-6.1c1.7-1.7,3.7-2.5,6.1-2.5s4.4,0.8,6.1,2.5
	c1.7,1.7,2.5,3.7,2.5,6.1s-0.8,4.4-2.5,6.1C41.4,39.6,39.4,40.4,37,40.4z M14.4,29.8h7.5v-1.3h-5.8l0,0c0.5-0.5,1.2-1.1,1.9-1.7
	c0.7-0.6,1.3-1.1,1.7-1.6c0.7-0.7,1.2-1.3,1.6-1.9c0.3-0.6,0.5-1.3,0.5-2c0-0.8-0.3-1.5-1-2.2S19.3,18,18.2,18
	c-0.9,0-1.6,0.2-2.3,0.7s-1.2,1-1.5,1.8l1.2,0.5c0.2-0.5,0.5-0.9,0.9-1.2c0.4-0.3,0.9-0.4,1.6-0.4s1.2,0.2,1.7,0.5
	c0.5,0.4,0.7,0.9,0.7,1.5c0,0.5-0.1,1-0.4,1.5s-0.8,1-1.5,1.7c-0.5,0.5-1.2,1-1.8,1.6c-0.7,0.6-1.5,1.3-2.4,2.1
	C14.4,28.2,14.4,29.8,14.4,29.8z"/>
</svg>
