<?xml version="1.0" encoding="utf-8"?>
<!-- Generator: Adobe Illustrator 26.3.1, SVG Export Plug-In . SVG Version: 6.00 Build 0)  -->
<svg version="1.1" id="Слой_1" xmlns="http://www.w3.org/2000/svg" xmlns:xlink="http://www.w3.org/1999/xlink" x="0px" y="0px"
	 viewBox="0 0 48 48" style="enable-background:new 0 0 48 48;" xml:space="preserve">
<path d="M15,27.3c0.3,0,0.7-0.1,0.9-0.4c0.3-0.3,0.4-0.6,0.4-0.9s-0.1-0.7-0.4-0.9c-0.3-0.3-0.6-0.4-0.9-0.4c-0.4,0-0.7,0.1-0.9,0.4
	c-0.3,0.3-0.4,0.6-0.4,0.9s0.1,0.7,0.4,0.9C14.4,27.2,14.7,27.3,15,27.3z M21,27.3c0.4,0,0.7-0.1,0.9-0.4c0.3-0.3,0.4-0.6,0.4-0.9
	s-0.1-0.7-0.4-0.9c-0.3-0.3-0.6-0.4-0.9-0.4c-0.4,0-0.7,0.1-0.9,0.4c-0.3,0.3-0.4,0.6-0.4,0.9s0.1,0.7,0.4,0.9
	C20.4,27.2,20.7,27.3,21,27.3z M27,27.3c0.4,0,0.7-0.1,0.9-0.4s0.4-0.6,0.4-0.9s-0.1-0.7-0.4-0.9s-0.6-0.4-0.9-0.4s-0.7,0.1-0.9,0.4
	c-0.3,0.3-0.4,0.6-0.4,0.9s0.1,0.7,0.4,0.9S26.7,27.3,27,27.3z M33,27.3c0.3,0,0.7-0.1,0.9-0.4c0.3-0.3,0.4-0.6,0.4-0.9
	s-0.1-0.7-0.4-0.9c-0.3-0.3-0.6-0.4-0.9-0.4c-0.4,0-0.7,0.1-0.9,0.4c-0.3,0.3-0.4,0.6-0.4,0.9s0.1,0.7,0.4,0.9
	C32.4,27.2,32.7,27.3,33,27.3z M24,43.5c-2.4,0-4.7-0.5-6.8-1.4s-4-2.2-5.6-3.8C10,36.8,8.8,35,7.8,32.8c-0.9-2.1-1.4-4.4-1.4-6.8
	c0-4.7,1.6-8.8,4.8-12.2s7.2-5.2,11.9-5.4V1.8c0-0.2,0.1-0.4,0.2-0.5C23.6,1.1,23.8,1,24,1s0.4,0.1,0.5,0.2s0.2,0.3,0.2,0.5v6.7
	c4.7,0.2,8.7,2,11.9,5.4c3.2,3.4,4.8,7.4,4.8,12.2c0,2.4-0.5,4.7-1.4,6.8s-2.2,4-3.8,5.6s-3.4,2.8-5.6,3.8
	C28.7,43.1,26.4,43.5,24,43.5z"/>
</svg>
