<?xml version="1.0" encoding="utf-8"?>
<!-- Generator: Adobe Illustrator 26.3.1, SVG Export Plug-In . SVG Version: 6.00 Build 0)  -->
<svg version="1.1" id="Слой_1" xmlns="http://www.w3.org/2000/svg" xmlns:xlink="http://www.w3.org/1999/xlink" x="0px" y="0px"
	 viewBox="0 0 48 48" style="enable-background:new 0 0 48 48;" xml:space="preserve">
<path d="M24,42c-3.2,0-6-1.1-8.3-3.5c-2.3-2.3-3.4-5.1-3.4-8.3c0-2.5,0.8-4.8,2.3-7s3.8-3.7,6.7-4.5V6.4c0-0.4,0.1-0.7,0.4-1
	c0.2-0.3,0.6-0.4,1-0.4h2.8c0.4,0,0.7,0.1,1,0.4c0.2,0.3,0.4,0.6,0.4,1v12.4c2.9,0.8,5.2,2.3,6.7,4.5s2.3,4.5,2.3,7
	c0,3.2-1.1,6-3.5,8.3C30,40.9,27.2,42,24,42z M24,40.5c2.8,0,5.2-1,7.2-3s3-4.4,3-7.2s-1-5.2-3-7.2s-4.4-3-7.2-3s-5.2,1-7.2,3
	s-3,4.4-3,7.2s1,5.2,3,7.2S21.2,40.5,24,40.5z"/>
</svg>
