<?xml version="1.0" encoding="utf-8"?>
<!-- Generator: Adobe Illustrator 26.3.1, SVG Export Plug-In . SVG Version: 6.00 Build 0)  -->
<svg version="1.1" id="Слой_1" xmlns="http://www.w3.org/2000/svg" xmlns:xlink="http://www.w3.org/1999/xlink" x="0px" y="0px"
	 viewBox="0 0 48 48" style="enable-background:new 0 0 48 48;" xml:space="preserve">
<path d="M12,40c-0.6,0-1.1-0.2-1.4-0.7c-0.4-0.4-0.6-1-0.6-1.6l1.2-14c0.2-2.5,1-4.7,2.5-6.6s3.3-3.3,5.5-4.2V20
	c0,1.3,0.5,2.5,1.4,3.4s2.1,1.4,3.4,1.4s2.5-0.5,3.4-1.4s1.4-2.1,1.4-3.4v-7.1c2.2,0.9,4.1,2.3,5.6,4.2s2.3,4.1,2.5,6.6L38,38
	c0,0.6-0.2,1.1-0.6,1.5C37.1,39.8,36.6,40,36,40H12z M24,23.2c-0.9,0-1.7-0.3-2.3-0.9c-0.6-0.6-0.9-1.4-0.9-2.3v-8
	c0-0.9,0.3-1.7,0.9-2.3s1.4-0.9,2.3-0.9s1.7,0.3,2.3,0.9c0.6,0.6,0.9,1.4,0.9,2.3v8c0,0.9-0.3,1.7-0.9,2.3
	C25.7,22.9,24.9,23.2,24,23.2z"/>
</svg>
