<?xml version="1.0" encoding="utf-8"?>
<!-- Generator: Adobe Illustrator 26.3.1, SVG Export Plug-In . SVG Version: 6.00 Build 0)  -->
<svg version="1.1" id="Слой_1" xmlns="http://www.w3.org/2000/svg" xmlns:xlink="http://www.w3.org/1999/xlink" x="0px" y="0px"
	 viewBox="0 0 48 48" style="enable-background:new 0 0 48 48;" xml:space="preserve">
<path d="M39.9,22.8c-0.4,0-0.8-0.2-1.1-0.5s-0.5-0.7-0.5-1.1V10.4c0-0.4,0.2-0.8,0.5-1.1s0.7-0.5,1.1-0.5S40.7,9,41,9.3
	s0.5,0.7,0.5,1.1v10.8c0,0.4-0.2,0.8-0.5,1.1C40.7,22.6,40.3,22.8,39.9,22.8z M20,22.8c-1.6,0-3-0.6-4.1-1.7s-1.7-2.5-1.7-4.1
	s0.6-3,1.7-4.1s2.5-1.7,4.1-1.7s3,0.6,4.1,1.7s1.7,2.5,1.7,4.1s-0.6,3-1.7,4.1C23,22.2,21.6,22.8,20,22.8z M6,37.2v-2.9
	c0-0.9,0.3-1.6,0.8-2.3s1.2-1.3,2-1.6c1.8-0.8,3.6-1.4,5.5-1.9s3.8-0.7,5.8-0.7s3.9,0.2,5.7,0.7c1.9,0.5,3.7,1.1,5.5,1.9
	c0.8,0.4,1.5,0.9,2,1.6s0.8,1.5,0.8,2.3v2.9H6z"/>
</svg>
