<?xml version="1.0" encoding="utf-8"?>
<!-- Generator: Adobe Illustrator 26.3.1, SVG Export Plug-In . SVG Version: 6.00 Build 0)  -->
<svg version="1.1" id="Слой_1" xmlns="http://www.w3.org/2000/svg" xmlns:xlink="http://www.w3.org/1999/xlink" x="0px" y="0px"
	 viewBox="0 0 48 48" style="enable-background:new 0 0 48 48;" xml:space="preserve">
<path d="M25,38.3h1.5v4.5H25V38.3z M31.8,35.2l3.2,3.2l-1.1,1.1l-3.2-3.2L31.8,35.2z M3,1.2h2.8c0.8,0,1.4,0.3,2,0.8
	c0.5,0.5,0.8,1.2,0.8,2v5.8c0.8-1.7,1.9-3.1,3.5-4.2C13.6,4.5,15.4,4,17.4,4h9.4c0.8,0,1.4,0.3,2,0.8c0.5,0.5,0.8,1.2,0.8,2v10.1
	l-3.4-3.4c-1.1-1.1-2.5-2.1-3.9-2.7c-1.5-0.7-3-1-4.7-1c-1.8,0-3.5,0.3-5,1.1c-1.5,0.7-2.9,1.7-4,2.9v3.9c0.9-1.7,2.1-3.1,3.7-4.1
	s3.4-1.5,5.3-1.5c1.3,0,2.6,0.3,3.8,0.8c1.2,0.5,2.3,1.3,3.3,2.3l6.3,6.4c0.5,0.5,0.8,1.2,0.8,1.9s-0.3,1.4-0.8,1.9L20.7,35.5
	c-0.5,0.5-1.2,0.8-1.9,0.8c-0.8,0-1.4-0.3-1.9-0.8l-6.4-6.3c-0.4-0.4-0.8-0.8-1.1-1.3S8.8,27,8.5,26.5V32c0,0.8-0.3,1.4-0.8,2
	c-0.5,0.5-1.2,0.8-2,0.8H3V1.2z M33.8,29.4h4.5V31h-4.5V29.4z"/>
</svg>
