<?xml version="1.0" encoding="utf-8"?>
<!-- Generator: Adobe Illustrator 26.3.1, SVG Export Plug-In . SVG Version: 6.00 Build 0)  -->
<svg version="1.1" id="Слой_1" xmlns="http://www.w3.org/2000/svg" xmlns:xlink="http://www.w3.org/1999/xlink" x="0px" y="0px"
	 viewBox="0 0 48 48" style="enable-background:new 0 0 48 48;" xml:space="preserve">
<path d="M18.8,43c-1.6,0-2.9-0.6-4.1-1.7c-1.1-1.1-1.7-2.5-1.7-4.1V7.8c0-0.7,0.3-1.4,0.8-1.9C14.4,5.3,15,5,15.8,5h6
	c0.7,0,1.4,0.3,1.9,0.8c0.6,0.6,0.8,1.2,0.8,1.9v29.5c0,1.6-0.6,2.9-1.7,4.1C21.7,42.4,20.4,43,18.8,43z M18.8,41.5
	c1.2,0,2.2-0.4,3-1.2s1.2-1.8,1.2-3s-0.4-2.2-1.2-3c-0.8-0.8-1.8-1.2-3-1.2s-2.2,0.4-3,1.2c-0.8,0.8-1.2,1.8-1.2,3s0.4,2.2,1.2,3
	C16.6,41,17.6,41.5,18.8,41.5z M33.8,35c-0.7,0-1.4-0.3-1.9-0.8c-0.6-0.6-0.9-1.2-0.9-2V15.8c0-0.7,0.3-1.4,0.8-1.9
	c0.6-0.6,1.2-0.8,1.9-0.8h2.5c0.7,0,1.4,0.3,1.9,0.8c0.6,0.6,0.8,1.2,0.8,1.9v16.5c0,0.7-0.3,1.4-0.8,1.9C37.6,34.7,37,35,36.2,35
	H33.8z"/>
</svg>
