<?xml version="1.0" encoding="utf-8"?>
<!-- Generator: Adobe Illustrator 26.3.1, SVG Export Plug-In . SVG Version: 6.00 Build 0)  -->
<svg version="1.1" id="Слой_1" xmlns="http://www.w3.org/2000/svg" xmlns:xlink="http://www.w3.org/1999/xlink" x="0px" y="0px"
	 viewBox="0 0 48 48" style="enable-background:new 0 0 48 48;" xml:space="preserve">
<path d="M24,42c-2.5,0-4.8-0.5-7-1.4s-4.1-2.2-5.7-3.8s-2.9-3.5-3.8-5.7C6.5,28.8,6,26.5,6,24s0.5-4.8,1.4-7s2.2-4.1,3.8-5.7
	s3.5-2.9,5.7-3.8C19.2,6.5,21.5,6,24,6c2.4,0,4.7,0.4,6.8,1.3s4,2.1,5.6,3.7c1.6,1.5,2.9,3.4,3.9,5.4s1.6,4.3,1.7,6.7
	c-0.8-0.5-1.6-0.8-2.4-1c-0.8-0.2-1.7-0.3-2.6-0.3c-0.7,0-1.3,0.1-2,0.2c-0.6,0.1-1.3,0.3-1.9,0.6c-0.2-1.3-0.7-2.4-1.5-3.3
	S29.8,18,28.5,18c-1.5,0-2.6,0.6-3.4,1.7s-1.2,2.6-1.2,4.3c0,1.4,0.3,2.6,0.8,3.7c0.5,1,1.3,1.7,2.3,2.1c-0.1,0.3-0.1,0.7-0.2,1
	c0,0.4,0,0.7,0,1.1c0,1.7,0.4,3.4,1.2,4.9c0.8,1.5,1.9,2.7,3.4,3.6c-1.2,0.6-2.4,1-3.7,1.3C26.6,41.9,25.3,42,24,42z M27.5,28.5
	c-0.7-0.3-1.2-0.8-1.6-1.5s-0.6-1.7-0.6-3c0-1.6,0.3-2.7,0.9-3.5s1.4-1.2,2.4-1.2c0.9,0,1.6,0.3,2.2,1s1,1.6,1.1,2.9
	c-1,0.6-1.9,1.3-2.7,2.2C28.5,26.3,27.9,27.3,27.5,28.5z M37,40.4c-2.4,0-4.4-0.8-6-2.5c-1.7-1.7-2.5-3.7-2.5-6c0-2.4,0.8-4.4,2.5-6
	c1.7-1.7,3.7-2.5,6-2.5c2.4,0,4.4,0.8,6,2.5c1.7,1.7,2.5,3.7,2.5,6c0,2.4-0.8,4.4-2.5,6C41.4,39.6,39.4,40.4,37,40.4z M16.4,30.1
	L22.1,20v-1.6h-7.6v1.3h6.2l0.1,0.1l-5.5,9.6L16.4,30.1z"/>
</svg>
