<?xml version="1.0" encoding="utf-8"?>
<!-- Generator: Adobe Illustrator 26.3.1, SVG Export Plug-In . SVG Version: 6.00 Build 0)  -->
<svg version="1.1" id="Слой_1" xmlns="http://www.w3.org/2000/svg" xmlns:xlink="http://www.w3.org/1999/xlink" x="0px" y="0px"
	 viewBox="0 0 48 48" style="enable-background:new 0 0 48 48;" xml:space="preserve">
<path d="M18,42c-2.1,0-3.8-0.6-5.1-1.9c-1.3-1.3-2.3-2.9-3-4.7s-1.2-3.8-1.5-5.9C8.1,27.4,8,25.6,8,24c0-3,0.2-5.6,0.7-7.8
	s1.3-4.1,2.5-5.6s2.9-2.7,4.9-3.5C18.2,6.4,20.8,6,24,6s5.8,0.4,7.9,1.2s3.7,1.9,4.9,3.5c1.2,1.5,2.1,3.4,2.5,5.6
	c0.5,2.2,0.7,4.9,0.7,7.8c0,1.6-0.1,3.4-0.4,5.4c-0.3,2.1-0.8,4-1.5,5.9c-0.7,1.9-1.7,3.5-3,4.7c-1.3,1.3-3,1.9-5.1,1.9H18z
	 M32.5,23.3c0.2,0,0.4-0.1,0.5-0.2c0.2-0.2,0.2-0.3,0.2-0.5c0-2.8-1-5.1-3-7s-4.4-2.8-7.2-2.8c-0.2,0-0.4,0.1-0.5,0.2
	c-0.2,0.1-0.2,0.3-0.2,0.6c0,0.2,0.1,0.4,0.2,0.6c0.1,0.1,0.3,0.2,0.5,0.2c2.4,0,4.4,0.8,6.2,2.4c1.7,1.6,2.6,3.5,2.6,5.8
	c0,0.2,0.1,0.4,0.2,0.6C32.1,23.3,32.3,23.3,32.5,23.3z"/>
</svg>
