<?xml version="1.0" encoding="utf-8"?>
<!-- Generator: Adobe Illustrator 26.3.1, SVG Export Plug-In . SVG Version: 6.00 Build 0)  -->
<svg version="1.1" id="Слой_1" xmlns="http://www.w3.org/2000/svg" xmlns:xlink="http://www.w3.org/1999/xlink" x="0px" y="0px"
	 viewBox="0 0 48 48" style="enable-background:new 0 0 48 48;" xml:space="preserve">
<path d="M17,41c-0.4,0-0.8-0.2-1.1-0.5c-0.3-0.3-0.5-0.7-0.5-1.1h7.8v-8.6c-3.2-0.3-5.8-1.6-8-3.9s-3.2-5-3.2-8.2
	c0-3.3,1.2-6.2,3.5-8.5C17.8,8,20.7,6.9,24,6.9s6.2,1.2,8.5,3.5s3.5,5.2,3.5,8.5c0,3.2-1.1,5.9-3.2,8.2c-2.2,2.3-4.8,3.6-8,3.9v8.6
	h7.8c0,0.4-0.2,0.8-0.5,1.1C31.8,40.9,31.4,41,31,41H17z M24,29.3c2.9,0,5.4-1,7.4-3s3-4.5,3-7.4s-1-5.4-3-7.4s-4.5-3-7.4-3
	s-5.4,1-7.4,3s-3,4.5-3,7.4s1,5.4,3,7.4S21.1,29.3,24,29.3z M24,22.2c-0.9,0-1.7-0.3-2.4-1c-0.6-0.6-1-1.4-1-2.4
	c0-0.9,0.3-1.7,1-2.4c0.6-0.6,1.4-1,2.4-1s1.7,0.3,2.4,1c0.6,0.6,1,1.4,1,2.4s-0.3,1.7-1,2.4C25.7,21.9,24.9,22.2,24,22.2z"/>
</svg>
