<?xml version="1.0" encoding="utf-8"?>
<!-- Generator: Adobe Illustrator 26.3.1, SVG Export Plug-In . SVG Version: 6.00 Build 0)  -->
<svg version="1.1" id="Слой_1" xmlns="http://www.w3.org/2000/svg" xmlns:xlink="http://www.w3.org/1999/xlink" x="0px" y="0px"
	 viewBox="0 0 48 48" style="enable-background:new 0 0 48 48;" xml:space="preserve">
<path d="M17.5,40c-2.1,0-4-0.6-5.7-1.9s-3-3.1-3.6-5.3h31.5c-0.6,2.3-1.8,4.1-3.5,5.4S32.6,40,30.5,40H17.5z M8.1,31.2
	C8,31.1,8,31,8,30.9V17.5c0-2.6,0.9-4.8,2.8-6.7s4-2.8,6.7-2.8h13.1c2.6,0,4.8,0.9,6.7,2.8c1.8,1.9,2.8,4.1,2.8,6.7v13.4
	c0,0.1,0,0.3,0,0.4L8.1,31.2L8.1,31.2z"/>
</svg>
