<?xml version="1.0" encoding="utf-8"?>
<!-- Generator: Adobe Illustrator 26.3.1, SVG Export Plug-In . SVG Version: 6.00 Build 0)  -->
<svg version="1.1" id="Слой_1" xmlns="http://www.w3.org/2000/svg" xmlns:xlink="http://www.w3.org/1999/xlink" x="0px" y="0px"
	 viewBox="0 0 48 48" style="enable-background:new 0 0 48 48;" xml:space="preserve">
<path d="M18,29h12.5c1,0,1.8-0.3,2.5-1s1-1.5,1-2.5s-0.3-1.8-1-2.5c-0.6-0.7-1.4-1-2.4-1h-1.4l-0.4-1.5c-0.3-1.1-0.9-1.9-1.8-2.6
	c-0.9-0.6-1.9-1-3-1c-1,0-1.9,0.3-2.7,0.8s-1.4,1.2-1.8,2.1L19,21h-1.2c-1.1,0-2,0.5-2.7,1.2C14.4,23,14,23.9,14,25s0.4,2.1,1.2,2.8
	C15.9,28.6,16.9,29,18,29z M18,27.5c-0.7,0-1.3-0.2-1.7-0.7c-0.5-0.5-0.7-1.1-0.7-1.7c0-0.7,0.2-1.3,0.7-1.7c0.5-0.5,1-0.7,1.7-0.7
	h2l0.9-2c0.3-0.6,0.7-1.1,1.3-1.5c0.6-0.4,1.2-0.5,1.8-0.5c0.8,0,1.5,0.2,2.1,0.7s1,1,1.2,1.8l0.7,2.5h2.5c0.5,0,1,0.2,1.4,0.6
	s0.5,0.8,0.5,1.4c0,0.5-0.2,1-0.6,1.4s-0.8,0.6-1.4,0.6C30.5,27.5,18,27.5,18,27.5z M24,42c-2.5,0-4.8-0.5-7-1.4s-4.1-2.2-5.7-3.9
	c-1.6-1.6-2.9-3.5-3.9-5.7C6.5,28.8,6,26.5,6,24s0.5-4.8,1.4-7s2.2-4.1,3.9-5.7c1.6-1.6,3.5-2.9,5.7-3.8c2.2-1,4.5-1.5,7-1.5
	s4.8,0.5,7,1.4s4.1,2.2,5.7,3.8c1.6,1.6,2.9,3.5,3.8,5.7c0.9,2.2,1.4,4.5,1.4,7s-0.5,4.8-1.4,7s-2.2,4.1-3.8,5.7s-3.5,2.9-5.7,3.9
	S26.5,42,24,42z"/>
</svg>
