<?xml version="1.0" encoding="utf-8"?>
<!-- Generator: Adobe Illustrator 26.3.1, SVG Export Plug-In . SVG Version: 6.00 Build 0)  -->
<svg version="1.1" id="Слой_1" xmlns="http://www.w3.org/2000/svg" xmlns:xlink="http://www.w3.org/1999/xlink" x="0px" y="0px"
	 viewBox="0 0 48 48" style="enable-background:new 0 0 48 48;" xml:space="preserve">
<path d="M9.6,41.8c-0.5,0-0.8-0.1-1.1-0.4c-0.3-0.3-0.4-0.7-0.4-1.1h9.3c-3.2-1.3-5.9-3.5-8-6.4C7.3,31,6.2,27.6,6.2,23.7
	c0-2.4,0.5-4.7,1.4-6.9c0.9-2.1,2.2-4,3.8-5.6s3.5-2.9,5.6-3.8C19.3,6.5,21.6,6,24,6s4.7,0.5,6.9,1.4c2.1,0.9,4,2.2,5.6,3.8
	s2.9,3.5,3.8,5.6c0.9,2.1,1.4,4.4,1.4,6.9c0,3.9-1.1,7.2-3.2,10.1c-2.1,2.9-4.8,5-8,6.4H40c0,0.4-0.1,0.8-0.4,1.1
	c-0.3,0.3-0.7,0.4-1.1,0.4C38.4,41.8,9.6,41.8,9.6,41.8z M14.4,29.8h7.5v-1.3h-5.8l0,0c0.5-0.5,1.2-1.1,1.9-1.7
	c0.7-0.6,1.3-1.1,1.7-1.6c0.7-0.7,1.2-1.3,1.6-1.9c0.3-0.6,0.5-1.3,0.5-2c0-0.8-0.3-1.5-1-2.2S19.3,18,18.2,18
	c-0.9,0-1.6,0.2-2.3,0.7s-1.2,1-1.5,1.8l1.2,0.5c0.2-0.5,0.5-0.9,0.9-1.2c0.4-0.3,0.9-0.4,1.6-0.4s1.2,0.2,1.7,0.5
	c0.5,0.4,0.7,0.9,0.7,1.5c0,0.5-0.1,1-0.4,1.5s-0.8,1-1.5,1.7c-0.5,0.5-1.2,1-1.8,1.6c-0.7,0.6-1.5,1.3-2.4,2.1
	C14.4,28.2,14.4,29.8,14.4,29.8z M28.9,30.1c1.5,0,2.6-0.6,3.4-1.7s1.2-2.6,1.2-4.3s-0.4-3.2-1.2-4.3c-0.8-1.1-1.9-1.7-3.4-1.7
	s-2.6,0.6-3.4,1.7s-1.2,2.6-1.2,4.3s0.4,3.2,1.2,4.3C26.3,29.5,27.4,30.1,28.9,30.1z M28.9,28.8c-1,0-1.8-0.4-2.4-1.1
	c-0.6-0.8-0.9-2-0.9-3.6s0.3-2.7,0.9-3.5s1.4-1.2,2.4-1.2s1.8,0.4,2.4,1.2c0.6,0.8,1,2,1,3.5c0,1.6-0.3,2.8-0.9,3.6
	C30.7,28.4,29.9,28.8,28.9,28.8z"/>
</svg>
