<?xml version="1.0" encoding="utf-8"?>
<!-- Generator: Adobe Illustrator 26.3.1, SVG Export Plug-In . SVG Version: 6.00 Build 0)  -->
<svg version="1.1" id="Слой_1" xmlns="http://www.w3.org/2000/svg" xmlns:xlink="http://www.w3.org/1999/xlink" x="0px" y="0px"
	 viewBox="0 0 48 48" style="enable-background:new 0 0 48 48;" xml:space="preserve">
<path d="M24,42c-3.3,0-6.1-1.1-8.3-3.4c-2.3-2.3-3.4-5.1-3.4-8.4c0-2.6,0.8-5,2.5-7.2c1.7-2.1,3.8-3.6,6.5-4.3V6.4
	c0-0.4,0.1-0.7,0.4-1s0.6-0.4,1-0.4h2.8c0.4,0,0.7,0.1,1,0.4s0.4,0.6,0.4,1v12.4c2.7,0.8,4.8,2.2,6.5,4.3s2.5,4.5,2.5,7.1
	c0,3.3-1.1,6.1-3.4,8.4C30,40.9,27.2,42,24,42z M24,40.5c2.8,0,5.2-1,7.2-3s3-4.4,3-7.3c0-2.8-1-5.2-3-7.2s-4.4-3-7.2-3
	c-2.9,0-5.3,1-7.3,3s-3,4.4-3,7.2c0,2.9,1,5.3,3,7.3S21.1,40.5,24,40.5z"/>
</svg>
