<?xml version="1.0" encoding="utf-8"?>
<!-- Generator: Adobe Illustrator 26.3.1, SVG Export Plug-In . SVG Version: 6.00 Build 0)  -->
<svg version="1.1" id="Слой_1" xmlns="http://www.w3.org/2000/svg" xmlns:xlink="http://www.w3.org/1999/xlink" x="0px" y="0px"
	 viewBox="0 0 48 48" style="enable-background:new 0 0 48 48;" xml:space="preserve">
<path d="M3.7,21.7l-1.6-1.6c2.9-2.9,6.2-5.2,10-6.7c3.8-1.6,7.7-2.3,11.8-2.3c0.7,0,1.5,0,2.2,0.1c0.7,0,1.5,0.1,2.2,0.2l-1,2.2
	c-0.6-0.1-1.1-0.2-1.7-0.2s-1.1,0-1.7,0c-3.8,0-7.5,0.7-11,2.2C9.6,17,6.5,19,3.7,21.7z M11.2,29l-1.6-1.5c2-1.8,4.1-3.1,6.6-4.1
	c2.4-0.9,4.9-1.5,7.6-1.6l-1,2.3c-2.2,0.1-4.2,0.5-6.2,1.4C14.6,26.4,12.8,27.6,11.2,29z M22.9,38.7c-0.7-0.2-1.2-0.7-1.4-1.4
	c-0.3-0.7-0.2-1.4,0.1-2.1l10-22.2c0.1-0.2,0.2-0.3,0.4-0.4c0.2-0.1,0.3-0.1,0.4,0c0.2,0.1,0.3,0.2,0.4,0.3C33,13,33,13.2,33,13.4
	l-6.7,23.7c-0.2,0.7-0.6,1.2-1.3,1.5C24.3,38.9,23.6,38.9,22.9,38.7z M36.9,29.1c-0.6-0.5-1.2-1-1.8-1.5s-1.3-0.9-2-1.2l0.6-2.1
	c0.9,0.4,1.8,0.9,2.6,1.4s1.6,1.2,2.3,1.9C38.4,27.5,36.9,29.1,36.9,29.1z M44.3,21.7c-1.2-1.2-2.5-2.3-3.9-3.3s-2.9-1.8-4.4-2.5
	l0.6-2.2c1.7,0.8,3.4,1.7,4.9,2.8c1.6,1.1,3,2.3,4.3,3.6C45.8,20.2,44.3,21.7,44.3,21.7z"/>
</svg>
