<?xml version="1.0" encoding="utf-8"?>
<!-- Generator: Adobe Illustrator 26.3.1, SVG Export Plug-In . SVG Version: 6.00 Build 0)  -->
<svg version="1.1" id="Слой_1" xmlns="http://www.w3.org/2000/svg" xmlns:xlink="http://www.w3.org/1999/xlink" x="0px" y="0px"
	 viewBox="0 0 48 48" style="enable-background:new 0 0 48 48;" xml:space="preserve">
<path d="M18.9,37.2c0.7-0.6,1.4-1.1,2.2-1.5c0.8-0.4,1.7-0.6,2.6-0.6c-0.1,0.5-0.1,1.1-0.1,1.6s0.1,1.1,0.2,1.6
	c0.1,0.6,0.2,1.2,0.4,1.8c0.2,0.6,0.4,1.2,0.7,1.7l-0.8,0.8C24.3,42.6,18.9,37.2,18.9,37.2z M12.2,30.5L10.7,29
	c1.8-1.8,3.8-3.2,6.1-4.3c2.3-1.1,4.7-1.6,7.2-1.6c1.3,0,2.5,0.2,3.7,0.5s2.4,0.7,3.5,1.3c-0.4,0.2-0.9,0.3-1.3,0.5
	c-0.5,0.2-0.9,0.4-1.3,0.6c-0.8-0.2-1.6-0.4-2.3-0.5c-0.8-0.1-1.5-0.2-2.3-0.2c-2.2,0-4.4,0.5-6.4,1.4
	C15.6,27.6,13.8,28.9,12.2,30.5z M3.7,22l-1.6-1.6c2.9-2.9,6.3-5.2,10-6.8c3.8-1.7,7.7-2.5,11.8-2.5s8.1,0.8,11.8,2.5
	c3.8,1.7,7.1,3.9,10,6.8L44.3,22c-2.7-2.7-5.8-4.8-9.3-6.3s-7.1-2.3-11-2.3c-3.8,0-7.5,0.8-11,2.3C9.6,17.2,6.5,19.3,3.7,22z
	 M36.3,28.1l0.1,1.5c0.9,0.2,1.7,0.5,2.3,0.8c0.6,0.4,1.2,0.8,1.7,1.4l1.3-0.7l0.9,1.3l-1.2,0.9c0.3,0.8,0.4,1.6,0.4,2.4
	c0,0.8-0.1,1.6-0.4,2.4l1.2,0.9l-0.9,1.3l-1.3-0.7c-0.5,0.6-1,1.1-1.7,1.4c-0.6,0.4-1.4,0.6-2.3,0.8l-0.1,1.5h-1.5L34.7,42
	c-0.9-0.2-1.7-0.5-2.3-0.8c-0.6-0.4-1.2-0.8-1.7-1.4l-1.3,0.7l-0.9-1.3l1.2-0.9c-0.3-0.8-0.4-1.6-0.4-2.4c0-0.8,0.1-1.6,0.4-2.4
	l-1.2-0.9l0.9-1.3l1.3,0.7c0.5-0.6,1-1.1,1.6-1.4c0.6-0.4,1.4-0.6,2.3-0.8l0.1-1.5C34.8,28.1,36.3,28.1,36.3,28.1z M35.6,31
	c-1.4,0-2.5,0.5-3.4,1.4c-0.9,0.9-1.4,2.1-1.4,3.4c0,1.3,0.5,2.5,1.4,3.4c0.9,0.9,2.1,1.4,3.4,1.4c1.3,0,2.5-0.5,3.4-1.4
	s1.4-2.1,1.4-3.4c0-1.4-0.5-2.5-1.4-3.4C38,31.5,36.9,31,35.6,31z"/>
</svg>
