<?xml version="1.0" encoding="utf-8"?>
<!-- Generator: Adobe Illustrator 26.3.1, SVG Export Plug-In . SVG Version: 6.00 Build 0)  -->
<svg version="1.1" id="Слой_1" xmlns="http://www.w3.org/2000/svg" xmlns:xlink="http://www.w3.org/1999/xlink" x="0px" y="0px"
	 viewBox="0 0 48 48" style="enable-background:new 0 0 48 48;" xml:space="preserve">
<path d="M16.9,38c-0.2,0-0.5-0.1-0.7-0.2c-0.2-0.1-0.4-0.3-0.5-0.5L12,30.7h2.8l1.9,3.5h4v-1.3h-3.2l-1.9-3.5h-4.3l-2.7-4.7
	c-0.1-0.1-0.1-0.2-0.2-0.3c0-0.1-0.1-0.2-0.1-0.3c0,0,0.1-0.3,0.2-0.7l2.7-4.7h4.3l1.9-3.5h3.2v-1.3h-4l-1.9,3.5H12l3.7-6.6
	c0.1-0.2,0.3-0.4,0.5-0.5s0.5-0.2,0.7-0.2H22c0.4,0,0.7,0.1,1,0.4c0.3,0.3,0.4,0.6,0.4,1v7.6h-3.6l-1.3,1.3h4.9v5.7h-4.2l-1.8-3.5
	h-3.9l-1.3,1.3h4.3l1.8,3.5h5v9.4c0,0.4-0.1,0.7-0.4,1s-0.6,0.4-1,0.4C22,38,16.9,38,16.9,38z M26.1,38c-0.4,0-0.7-0.1-1-0.4
	c-0.3-0.3-0.4-0.6-0.4-1v-9.4h5l1.8-3.5h4.3l-1.3-1.3h-3.9l-1.8,3.5h-4.1v-5.7h4.9l-1.3-1.3h-3.6v-7.6c0-0.4,0.1-0.7,0.4-1
	s0.6-0.4,1-0.4h5.1c0.2,0,0.5,0.1,0.7,0.2c0.2,0.1,0.4,0.3,0.5,0.5l3.7,6.6h-2.8l-1.9-3.5h-4V15h3.2l1.9,3.5h4.4l2.7,4.7
	c0.1,0.1,0.1,0.3,0.2,0.4c0,0.1,0.1,0.2,0,0.3c0,0-0.1,0.3-0.2,0.7l-2.7,4.7h-4.4l-1.9,3.5h-3.2v1.3h4l1.9-3.5H36l-3.7,6.6
	c-0.1,0.2-0.3,0.4-0.5,0.5s-0.5,0.2-0.7,0.2h-5V38z"/>
</svg>
