<?xml version="1.0" encoding="utf-8"?>
<!-- Generator: Adobe Illustrator 26.3.1, SVG Export Plug-In . SVG Version: 6.00 Build 0)  -->
<svg version="1.1" id="Слой_1" xmlns="http://www.w3.org/2000/svg" xmlns:xlink="http://www.w3.org/1999/xlink" x="0px" y="0px"
	 viewBox="0 0 48 48" style="enable-background:new 0 0 48 48;" xml:space="preserve">
<path d="M16.4,38c-0.2,0-0.5-0.1-0.7-0.2c-0.2-0.1-0.4-0.3-0.5-0.5l-3.7-6.6h2.8l1.9,3.5h4v-1.3H17l-1.9-3.5h-4.3l-2.7-4.7
	C8,24.6,8,24.5,8,24.4c0-0.2,0-0.3,0-0.4c0,0,0.1-0.3,0.2-0.7l2.7-4.7h4.3l1.9-3.5h3.2v-1.3h-4l-1.9,3.5h-2.8l3.7-6.6
	c0.1-0.2,0.3-0.4,0.5-0.5c0.2-0.1,0.5-0.2,0.7-0.2h5.1c0.4,0,0.7,0.1,1,0.4c0.3,0.3,0.4,0.6,0.4,1V19h-3.6L18,20.2h4.9v5.7h-4.2
	L17,22.4h-3.9l-1.3,1.3h4.3l1.8,3.5h5v9.4c0,0.4-0.1,0.7-0.4,1s-0.6,0.4-1,0.4H16.4z M28.2,38c-0.8,0-1.4-0.3-2-0.8
	c-0.5-0.5-0.8-1.2-0.8-2c0-0.6,0.2-1.2,0.6-1.7s0.9-0.8,1.4-1V15.4c-0.6-0.2-1.1-0.5-1.4-1c-0.4-0.5-0.6-1-0.6-1.7
	c0-0.8,0.3-1.4,0.8-2c0.5-0.5,1.2-0.8,2-0.8s1.4,0.3,2,0.8c0.5,0.5,0.8,1.2,0.8,2c0,0.6-0.2,1.2-0.6,1.7s-0.9,0.8-1.4,1v6.1l5.5-3.3
	c-0.2-0.9-0.1-1.6,0.5-2.4c0.6-0.7,1.3-1.1,2.2-1.1c0.8,0,1.4,0.3,2,0.8c0.5,0.5,0.8,1.2,0.8,2s-0.3,1.4-0.8,2
	c-0.5,0.5-1.2,0.8-2,0.8c-0.4,0-0.7-0.1-1-0.2s-0.6-0.3-0.8-0.5L29.6,23l6,4.8c0.2-0.2,0.5-0.3,0.8-0.4s0.6-0.1,0.9-0.1
	c0.8,0,1.4,0.3,2,0.8c0.5,0.5,0.8,1.2,0.8,2s-0.3,1.4-0.8,2c-0.5,0.5-1.2,0.8-2,0.8c-1,0-1.8-0.4-2.4-1.3c-0.5-0.8-0.6-1.7-0.2-2.6
	L29,24.5v8.1c0.6,0.2,1,0.5,1.4,0.9c0.4,0.5,0.6,1,0.6,1.7c0,0.8-0.3,1.4-0.8,2C29.6,37.7,29,38,28.2,38z"/>
</svg>
