<?xml version="1.0" encoding="utf-8"?>
<!-- Generator: Adobe Illustrator 26.3.1, SVG Export Plug-In . SVG Version: 6.00 Build 0)  -->
<svg version="1.1" id="Слой_1" xmlns="http://www.w3.org/2000/svg" xmlns:xlink="http://www.w3.org/1999/xlink" x="0px" y="0px"
	 viewBox="0 0 48 48" style="enable-background:new 0 0 48 48;" xml:space="preserve">
<path d="M10.7,42c-1.3,0-2.4-0.5-3.3-1.4S6,38.6,6,37.3C6,36,6.5,34.9,7.4,34s2-1.4,3.3-1.4c0.6,0,1.2,0.1,1.7,0.3s1,0.5,1.4,0.9
	l9.4-9.4v-9.1c-1.1-0.2-2-0.8-2.8-1.6c-0.8-0.9-1.1-1.9-1.1-3c0-1.3,0.5-2.4,1.4-3.3C21.6,6.5,22.7,6,24,6s2.4,0.5,3.3,1.4
	s1.4,2,1.4,3.3c0,1.1-0.4,2.2-1.1,3c-0.7,0.9-1.7,1.4-2.8,1.6v9.1l9.4,9.4c0.4-0.4,0.9-0.7,1.5-0.9c0.5-0.2,1.1-0.3,1.7-0.3
	c1.3,0,2.4,0.5,3.3,1.4c0.9,0.9,1.4,2,1.4,3.3s-0.5,2.4-1.4,3.3c-0.9,0.9-2,1.4-3.3,1.4s-2.4-0.5-3.3-1.4c-0.9-0.9-1.4-2-1.4-3.3
	c0-0.4,0.1-0.8,0.2-1.2c0.1-0.4,0.3-0.7,0.4-1L24,25.9l-9.2,9.2c0.2,0.3,0.3,0.7,0.4,1c0.1,0.4,0.2,0.8,0.2,1.2
	c0,1.3-0.5,2.4-1.4,3.3C13.1,41.5,12,42,10.7,42z M37.3,40.5c0.9,0,1.6-0.3,2.3-0.9c0.6-0.6,0.9-1.3,0.9-2.2s-0.3-1.6-0.9-2.3
	c-0.6-0.6-1.3-0.9-2.2-0.9s-1.6,0.3-2.3,0.9c-0.6,0.6-0.9,1.3-0.9,2.2s0.3,1.6,0.9,2.3C35.7,40.2,36.4,40.5,37.3,40.5z M24,13.8
	c0.9,0,1.6-0.3,2.3-0.9c0.6-0.6,0.9-1.3,0.9-2.2s-0.3-1.6-0.9-2.3c-0.6-0.6-1.3-0.9-2.2-0.9s-1.6,0.3-2.3,0.9
	c-0.6,0.6-0.9,1.3-0.9,2.2s0.3,1.6,0.9,2.3C22.3,13.5,23.1,13.8,24,13.8z M10.7,40.5c0.9,0,1.6-0.3,2.3-0.9c0.6-0.6,0.9-1.3,0.9-2.2
	s-0.3-1.6-0.9-2.3c-0.6-0.6-1.3-0.9-2.2-0.9s-1.6,0.3-2.3,0.9c-0.6,0.6-0.9,1.3-0.9,2.2s0.3,1.6,0.9,2.3C9,40.2,9.8,40.5,10.7,40.5z
	"/>
</svg>
