<?xml version="1.0" encoding="utf-8"?>
<!-- Generator: Adobe Illustrator 26.3.1, SVG Export Plug-In . SVG Version: 6.00 Build 0)  -->
<svg version="1.1" id="Слой_1" xmlns="http://www.w3.org/2000/svg" xmlns:xlink="http://www.w3.org/1999/xlink" x="0px" y="0px"
	 viewBox="0 0 48 48" style="enable-background:new 0 0 48 48;" xml:space="preserve">
<path d="M10.8,40c-0.8,0-1.4-0.3-2-0.8C8.3,38.7,8,38,8,37.2V10.8c0-0.8,0.3-1.4,0.8-2C9.3,8.3,10,8,10.8,8h11.4v1.5H10.8
	c-0.3,0-0.6,0.1-0.8,0.4c-0.3,0.3-0.4,0.5-0.4,0.8v26.5c0,0.3,0.1,0.6,0.4,0.8s0.5,0.4,0.8,0.4h26.5c0.3,0,0.6-0.1,0.8-0.4
	c0.3-0.3,0.4-0.5,0.4-0.8V25.8H40v11.4c0,0.8-0.3,1.4-0.8,2c-0.5,0.5-1.2,0.8-2,0.8C37.2,40,10.8,40,10.8,40z M32.5,21.5v-6h-6V14h6
	V8H34v6h6v1.5h-6v6H32.5z"/>
</svg>
