<?xml version="1.0" encoding="utf-8"?>
<!-- Generator: Adobe Illustrator 26.3.1, SVG Export Plug-In . SVG Version: 6.00 Build 0)  -->
<svg version="1.1" id="Слой_1" xmlns="http://www.w3.org/2000/svg" xmlns:xlink="http://www.w3.org/1999/xlink" x="0px" y="0px"
	 viewBox="0 0 48 48" style="enable-background:new 0 0 48 48;" xml:space="preserve">
<path d="M7.8,41c-0.7,0-1.4-0.3-1.9-0.8C5.3,39.6,5,39,5,38.2V8.4l2.3,2.4l3.3-3.4l3.3,3.4l3.4-3.4l3.3,3.4L24,7.4l3.4,3.4l3.3-3.4
	l3.4,3.4l3.4-3.4l3.3,3.4L43,8.4v29.8c0,0.7-0.3,1.4-0.8,1.9c-0.6,0.6-1.2,0.9-2,0.9H7.8z M7.8,39.5h15.5v-15H6.5v13.7
	c0,0.4,0.1,0.7,0.3,0.9C7.1,39.3,7.4,39.5,7.8,39.5z M24.8,39.5h15.5c0.4,0,0.7-0.1,0.9-0.3s0.3-0.5,0.3-0.9v-5.5H24.8V39.5z
	 M24.8,31.2h16.7v-6.7H24.8V31.2z M6.5,23h34.9v-8.4H6.5V23z"/>
</svg>
