<?xml version="1.0" encoding="utf-8"?>
<!-- Generator: Adobe Illustrator 26.3.1, SVG Export Plug-In . SVG Version: 6.00 Build 0)  -->
<svg version="1.1" id="Слой_1" xmlns="http://www.w3.org/2000/svg" xmlns:xlink="http://www.w3.org/1999/xlink" x="0px" y="0px"
	 viewBox="0 0 48 48" style="enable-background:new 0 0 48 48;" xml:space="preserve">
<path d="M29,42c-2.5,0-4.8-0.5-7-1.4s-4.1-2.2-5.7-3.9c-1.6-1.6-2.9-3.5-3.9-5.7c-0.9-2.2-1.4-4.5-1.4-7s0.5-4.8,1.4-7
	s2.2-4.1,3.9-5.7c1.6-1.6,3.5-2.9,5.7-3.9C24.2,6.5,26.5,6,29,6c1.1,0,2.1,0.1,3.1,0.3c1,0.2,2,0.5,2.9,0.9c-2.4,2-4.4,4.4-5.8,7.3
	C27.7,17.4,27,20.6,27,24s0.7,6.6,2.2,9.5c1.4,2.9,3.4,5.4,5.8,7.3c-0.9,0.4-1.9,0.7-2.9,0.9C31.1,41.9,30.1,42,29,42z"/>
</svg>
