<?xml version="1.0" encoding="utf-8"?>
<!-- Generator: Adobe Illustrator 26.3.1, SVG Export Plug-In . SVG Version: 6.00 Build 0)  -->
<svg version="1.1" id="Слой_1" xmlns="http://www.w3.org/2000/svg" xmlns:xlink="http://www.w3.org/1999/xlink" x="0px" y="0px"
	 viewBox="0 0 48 48" style="enable-background:new 0 0 48 48;" xml:space="preserve">
<path d="M35.2,20.8v-6h-6v-1.5h6v-6h1.5v6h6v1.5h-6v6H35.2z M22,40.8c-4.1,0-7.6-1.4-10.5-4.3S7.2,30.1,7.2,26c0-3.8,1.3-7.2,3.9-10
	s5.8-4.4,9.7-4.7h-0.2c-0.6,0.8-1,1.9-1.3,3.1s-0.5,2.4-0.5,3.6c0,3.6,1.3,6.8,3.9,9.3c2.6,2.6,5.7,3.9,9.3,3.9
	c0.7,0,1.4-0.1,2.1-0.2c0.7-0.1,1.3-0.3,2-0.5c-1,3-2.7,5.4-5.3,7.3C28.2,39.8,25.3,40.8,22,40.8z"/>
</svg>
