<?xml version="1.0" encoding="utf-8"?>
<!-- Generator: Adobe Illustrator 26.3.1, SVG Export Plug-In . SVG Version: 6.00 Build 0)  -->
<svg version="1.1" id="Слой_1" xmlns="http://www.w3.org/2000/svg" xmlns:xlink="http://www.w3.org/1999/xlink" x="0px" y="0px"
	 viewBox="0 0 48 48" style="enable-background:new 0 0 48 48;" xml:space="preserve">
<path d="M22,40.8c-4.1,0-7.6-1.4-10.5-4.3C8.7,33.6,7.2,30.1,7.2,26c0-3.9,1.3-7.2,3.9-10.1c2.6-2.8,5.8-4.4,9.7-4.6h-0.2
	c-0.7,1-1.2,2.1-1.4,3.2c-0.3,1.1-0.4,2.3-0.4,3.5c0,3.7,1.3,6.8,3.9,9.4s5.7,3.9,9.4,3.9c0.7,0,1.3-0.1,2-0.2s1.4-0.3,2-0.5
	c-1,3.1-2.8,5.5-5.4,7.4C28.1,39.8,25.2,40.8,22,40.8z M29.2,21.4l5.6-16.9h2.5L43,21.4h-1.9l-1.4-4h-7.3l-1.3,4H29.2z M32.9,15.8
	h6.3l-3.1-9.6L32.9,15.8z"/>
</svg>
