<?xml version="1.0" encoding="utf-8"?>
<!-- Generator: Adobe Illustrator 26.3.1, SVG Export Plug-In . SVG Version: 6.00 Build 0)  -->
<svg version="1.1" id="Слой_1" xmlns="http://www.w3.org/2000/svg" xmlns:xlink="http://www.w3.org/1999/xlink" x="0px" y="0px"
	 viewBox="0 0 48 48" style="enable-background:new 0 0 48 48;" xml:space="preserve">
<path d="M18.8,18.3L14,13.6c1-0.6,2.1-1.2,3.2-1.5c1.1-0.4,2.3-0.6,3.5-0.7h-0.2c-0.6,0.9-1.1,2-1.4,3c-0.3,1.1-0.4,2.2-0.4,3.3
	c0,0.1,0,0.2,0,0.3C18.8,18.1,18.8,18.2,18.8,18.3z M34.4,34l-2.8-2.8c0.7,0.1,1.5,0,2.2-0.1s1.5-0.3,2.2-0.5
	c-0.2,0.6-0.4,1.2-0.7,1.7C35.1,32.9,34.7,33.4,34.4,34z M29.2,21.4l5.6-16.9h2.5L43,21.4h-1.9l-1.4-4h-7.3l-1.3,4H29.2z M32.9,15.8
	h6.3l-3.1-9.6L32.9,15.8z M38.3,42.8l-1.1,1.1L31,37.7c-1.3,1-2.7,1.8-4.2,2.3s-3.1,0.8-4.8,0.8c-4.1,0-7.6-1.4-10.5-4.3
	C8.7,33.6,7.2,30.1,7.2,26c0-1.7,0.3-3.3,0.8-4.8s1.3-3,2.3-4.2l-6.6-6.7l1.1-1.1L38.3,42.8z"/>
</svg>
