<?xml version="1.0" encoding="utf-8"?>
<!-- Generator: Adobe Illustrator 26.3.1, SVG Export Plug-In . SVG Version: 6.00 Build 0)  -->
<svg version="1.1" id="Слой_1" xmlns="http://www.w3.org/2000/svg" xmlns:xlink="http://www.w3.org/1999/xlink" x="0px" y="0px"
	 viewBox="0 0 48 48" style="enable-background:new 0 0 48 48;" xml:space="preserve">
<path d="M28.8,22.4L20.4,14c0.4-0.3,1-0.6,1.6-0.8s1.3-0.3,2.1-0.3c1.7,0,3,0.6,4.2,1.7c1.1,1.1,1.7,2.5,1.7,4.2
	c0,0.7-0.1,1.4-0.3,2.1C29.4,21.7,29.1,22.2,28.8,22.4z M12.2,35.5c2-1.3,3.9-2.3,5.7-2.9c1.8-0.7,3.9-1,6.2-1
	c1.8,0,3.6,0.2,5.1,0.7c1.6,0.4,2.8,0.9,3.7,1.4L24,24.8c-1.7,0-3.1-0.6-4.2-1.6s-1.6-2.4-1.6-4l-6.3-6.3c-1.3,1.4-2.3,3.1-3.1,5
	s-1.2,4-1.2,6.3s0.4,4.3,1.2,6.2C9.5,32.1,10.7,33.8,12.2,35.5z M36.4,35c1.2-1.4,2.1-3,2.9-4.8c0.8-1.8,1.2-3.9,1.2-6.2
	c0-4.7-1.6-8.6-4.7-11.8C32.6,9.1,28.7,7.5,24,7.5c-2.3,0-4.3,0.4-6.2,1.1c-1.8,0.8-3.5,1.7-4.9,3C13,11.6,36.4,35,36.4,35z M24,42
	c-2.5,0-4.9-0.5-7.1-1.4s-4.1-2.2-5.7-3.8s-2.9-3.5-3.8-5.7S6,26.5,6,24s0.5-4.9,1.4-7.1s2.2-4.1,3.8-5.7s3.5-2.9,5.7-3.8
	S21.5,6,24,6s4.9,0.5,7.1,1.4s4.1,2.2,5.7,3.8s2.9,3.5,3.8,5.7c0.9,2.2,1.4,4.5,1.4,7.1s-0.5,4.9-1.4,7.1s-2.2,4.1-3.8,5.7
	s-3.5,2.9-5.7,3.8C28.9,41.5,26.5,42,24,42z"/>
</svg>
