<?xml version="1.0" encoding="utf-8"?>
<!-- Generator: Adobe Illustrator 26.3.1, SVG Export Plug-In . SVG Version: 6.00 Build 0)  -->
<svg version="1.1" id="Слой_1" xmlns="http://www.w3.org/2000/svg" xmlns:xlink="http://www.w3.org/1999/xlink" x="0px" y="0px"
	 viewBox="0 0 48 48" style="enable-background:new 0 0 48 48;" xml:space="preserve">
<path d="M24,42c-2.5,0-4.9-0.5-7.1-1.4s-4.1-2.2-5.7-3.8s-2.9-3.5-3.8-5.7S6,26.5,6,24s0.5-4.9,1.4-7.1s2.2-4.1,3.8-5.7
	s3.5-2.9,5.7-3.8S21.5,6,24,6s4.9,0.5,7.1,1.4s4.1,2.2,5.7,3.8s2.9,3.5,3.8,5.7c0.9,2.2,1.4,4.5,1.4,7.1c0,2.5-0.5,4.9-1.4,7.1
	s-2.2,4.1-3.8,5.7s-3.5,2.9-5.7,3.8S26.5,42,24,42z M24,40.5c2.1,0,4.1-0.4,6-1.1c1.9-0.8,3.6-1.8,5-3.2L28.9,30h2.2l5.1,5.1
	c1.3-1.5,2.4-3.2,3.2-5.1s1.1-3.9,1.1-6c0-4.5-1.6-8.4-4.8-11.6C32.4,9.1,28.5,7.5,24,7.5c-2.1,0-4.1,0.4-6,1.1
	c-1.9,0.8-3.6,1.8-5.1,3.2l6.2,6.1h-2.2l-5.1-5.1c-1.3,1.5-2.4,3.2-3.2,5.1s-1.1,3.9-1.1,6c0,4.5,1.6,8.4,4.8,11.6
	C15.6,38.9,19.5,40.5,24,40.5z M11,27.5l2.6-3.5L11,20.5h1.7l1.8,2.3l1.8-2.3H18L15.4,24l2.6,3.5h-1.7l-1.8-2.3l-1.8,2.3H11z
	 M20.5,27.5l2.6-3.5l-2.6-3.5h1.7l1.8,2.3l1.8-2.3h1.7L24.9,24l2.6,3.5h-1.7L24,25.2l-1.8,2.3H20.5z M30,27.5l2.6-3.5L30,20.5h1.7
	l1.8,2.3l1.8-2.3H37L34.4,24l2.6,3.5h-1.7l-1.8-2.3l-1.8,2.3H30z"/>
</svg>
