<?xml version="1.0" encoding="utf-8"?>
<!-- Generator: Adobe Illustrator 26.3.1, SVG Export Plug-In . SVG Version: 6.00 Build 0)  -->
<svg version="1.1" id="Слой_1" xmlns="http://www.w3.org/2000/svg" xmlns:xlink="http://www.w3.org/1999/xlink" x="0px" y="0px"
	 viewBox="0 0 48 48" style="enable-background:new 0 0 48 48;" xml:space="preserve">
<path d="M32.7,28l5.3,5V16.6c0-1.7-0.6-3.2-1.7-4.4s-2.6-2-4.3-2.2V6h-3.5v4h-8.9V6H16v4c-0.1,0-0.3,0.1-0.4,0.1
	c-0.1,0-0.3,0.1-0.4,0.1l15.1,15.3h2.4V28z M40.2,42.4l-5.8-5.8h2.2L38,38v1.3c0,0.8-0.3,1.4-0.8,1.9S36,42,35.2,42H12.8
	c-0.8,0-1.4-0.3-2-0.8S10,40.1,10,39.3V16.6c0-0.9,0.2-1.7,0.5-2.5s0.8-1.5,1.5-2.1l0.3,0.2v2.2L5.6,7.8l1.1-1.1l34.6,34.5
	C41.3,41.3,40.2,42.4,40.2,42.4z M15.3,27.1h9.5l-1.6-1.5h-8C15.3,25.5,15.3,27.1,15.3,27.1z"/>
</svg>
