<?xml version="1.0" encoding="utf-8"?>
<!-- Generator: Adobe Illustrator 26.3.1, SVG Export Plug-In . SVG Version: 6.00 Build 0)  -->
<svg version="1.1" id="Слой_1" xmlns="http://www.w3.org/2000/svg" xmlns:xlink="http://www.w3.org/1999/xlink" x="0px" y="0px"
	 viewBox="0 0 48 48" style="enable-background:new 0 0 48 48;" xml:space="preserve">
<path d="M38,35.7L20.5,18.1h9.8v-4.4c0-1.8-0.6-3.2-1.9-4.4s-2.8-1.8-4.6-1.8c-1.8,0-3.3,0.6-4.6,1.8c-1.3,1.2-1.9,2.7-1.9,4.4v0.9
	l-1.4-1.4c0.1-2.1,0.9-3.8,2.5-5.2c1.4-1.3,3.2-2,5.4-2s4.1,0.8,5.6,2.3c1.6,1.5,2.4,3.3,2.4,5.5v4.4h3.5c0.8,0,1.4,0.3,2,0.8
	c0.5,0.5,0.8,1.2,0.8,2C38,20.9,38,35.7,38,35.7z M42.1,47.7l-5.8-5.8c-0.3,0-0.6,0.1-0.9,0.1s-0.6,0-0.9,0H12.8
	c-0.8,0-1.4-0.3-2-0.8c-0.5-0.5-0.8-1.2-0.8-2V20.9c0-0.7,0.2-1.3,0.7-1.9c0.5-0.5,1.1-0.8,1.9-0.9L0.4,6l1.2-1.1l41.6,41.7
	C43.2,46.6,42.1,47.7,42.1,47.7z M22.1,27.6c-0.3,0.3-0.5,0.6-0.6,0.9c-0.1,0.4-0.2,0.7-0.2,1.1c0,0.8,0.3,1.5,0.8,2
	c0.6,0.6,1.2,0.8,2,0.8c0.4,0,0.8-0.1,1.1-0.2c0.4-0.1,0.7-0.4,0.9-0.6C26.2,31.7,22.1,27.6,22.1,27.6z"/>
</svg>
