<?xml version="1.0" encoding="utf-8"?>
<!-- Generator: Adobe Illustrator 26.3.1, SVG Export Plug-In . SVG Version: 6.00 Build 0)  -->
<svg version="1.1" id="Слой_1" xmlns="http://www.w3.org/2000/svg" xmlns:xlink="http://www.w3.org/1999/xlink" x="0px" y="0px"
	 viewBox="0 0 48 48" style="enable-background:new 0 0 48 48;" xml:space="preserve">
<path d="M42.5,44.8l-7.1-7.2v1.2c0,0.6-0.2,1.1-0.6,1.6c-0.4,0.4-0.9,0.7-1.5,0.7H9c-0.6,0-1.1-0.2-1.5-0.6S6.9,39.6,6.9,39V21.5
	c0-0.6,0.2-1.1,0.6-1.5s0.9-0.6,1.5-0.6h4.6l1.7-1.9L3.8,6l1.1-1.1l38.8,38.8C43.6,43.6,42.5,44.8,42.5,44.8z M21.9,24.2
	c-0.1,0-0.2,0-0.3,0h-0.3c-1.8-0.1-3.3,0.5-4.5,1.8c-1.3,1.2-1.9,2.7-1.9,4.5c0,1.7,0.6,3.2,1.8,4.4s2.7,1.8,4.4,1.8
	c1.8,0,3.2-0.6,4.5-1.9c1.2-1.3,1.8-2.8,1.8-4.5V30c0-0.1,0-0.2,0-0.3C27.4,29.6,21.9,24.2,21.9,24.2z M21.2,35.1
	c-1.3,0-2.4-0.5-3.3-1.4s-1.4-2-1.4-3.3s0.5-2.4,1.4-3.3s2-1.4,3.3-1.4s2.4,0.5,3.3,1.4s1.4,2,1.4,3.3s-0.5,2.4-1.4,3.3
	C23.6,34.6,22.5,35.1,21.2,35.1z M35.4,30.4L21.6,16.6h4.6l2.6,2.8h4.6c0.6,0,1.1,0.2,1.5,0.6s0.6,0.9,0.6,1.5
	C35.4,21.5,35.4,30.4,35.4,30.4z M37.4,18.7v-6.4h-1V6.2H41l-2.1,4.7h2.4L37.4,18.7z"/>
</svg>
