<?xml version="1.0" encoding="utf-8"?>
<!-- Generator: Adobe Illustrator 26.3.1, SVG Export Plug-In . SVG Version: 6.00 Build 0)  -->
<svg version="1.1" id="Слой_1" xmlns="http://www.w3.org/2000/svg" xmlns:xlink="http://www.w3.org/1999/xlink" x="0px" y="0px"
	 viewBox="0 0 48 48" style="enable-background:new 0 0 48 48;" xml:space="preserve">
<path d="M40.5,44.8L27.8,32.1H4.9c0-2,1-3.8,3.1-5.6c2.1-1.8,5.5-2.7,10.2-2.7c0.7,0,1.3,0,2,0.1c0.6,0,1.2,0.1,1.8,0.2v2.2L1.7,6
	l1.1-1.1l38.8,38.8C41.6,43.6,40.5,44.8,40.5,44.8z M4.9,38v-1.7h26.6V38H4.9z M6.2,44c-0.4,0-0.7-0.1-0.9-0.4
	C5,43.4,4.9,43,4.9,42.7v-0.4h26.6v0.4c0,0.4-0.1,0.7-0.4,0.9c-0.2,0.3-0.6,0.4-0.9,0.4C30.2,44,6.2,44,6.2,44z M40.6,37.6
	L23.8,20.8l-1-7.6h9.3V4.8h1.5v8.5h9.5C43.1,13.2,40.6,37.6,40.6,37.6z"/>
</svg>
