<?xml version="1.0" encoding="utf-8"?>
<!-- Generator: Adobe Illustrator 26.3.1, SVG Export Plug-In . SVG Version: 6.00 Build 0)  -->
<svg version="1.1" id="Слой_1" xmlns="http://www.w3.org/2000/svg" xmlns:xlink="http://www.w3.org/1999/xlink" x="0px" y="0px"
	 viewBox="0 0 48 48" style="enable-background:new 0 0 48 48;" xml:space="preserve">
<path d="M42.5,44.8l-6.4-6.4c-0.2,0.5-0.6,0.9-1,1.2c-0.5,0.3-1,0.5-1.6,0.5v0.5c0,0.4-0.2,0.8-0.5,1.1c-0.2,0.1-0.6,0.3-1,0.3
	c-0.4,0-0.8-0.2-1.1-0.5c-0.3-0.3-0.5-0.7-0.5-1.1V40H17.5v0.5c0,0.4-0.2,0.8-0.5,1.1c-0.2,0.2-0.6,0.4-1,0.4s-0.8-0.2-1.1-0.5
	s-0.5-0.7-0.5-1.1V40c-0.7,0-1.4-0.3-1.9-0.8s-0.8-1.2-0.8-1.9V15.5c0-0.2,0-0.5,0.1-0.7s0.1-0.4,0.2-0.7L3.8,6l1.1-1.1l38.8,38.8
	C43.6,43.6,42.5,44.8,42.5,44.8z M19.4,34.5h1.5V23.1l-1.5-1.5V34.5z M27.1,34.5h1.5v-3.6l-1.5-1.5C27.1,29.3,27.1,34.5,27.1,34.5z
	 M36.3,30.2l-7.6-7.7v-4.2h-1.5V21l-7.8-7.8V8.8c0-0.7,0.3-1.4,0.8-1.9s1.2-0.8,2-0.8H26c0.7,0,1.4,0.3,1.9,0.8s0.8,1.2,0.8,1.9v4
	h4.9c0.7,0,1.4,0.3,1.9,0.8s0.8,1.2,0.8,1.9C36.3,15.5,36.3,30.2,36.3,30.2z M20.9,12.8h6.2v-4c0-0.4-0.1-0.7-0.4-0.9
	c-0.2-0.2-0.5-0.3-0.9-0.3H22c-0.4,0-0.7,0.1-0.9,0.3c-0.2,0.2-0.3,0.5-0.3,0.9L20.9,12.8L20.9,12.8z"/>
</svg>
