<?xml version="1.0" encoding="utf-8"?>
<!-- Generator: Adobe Illustrator 26.3.1, SVG Export Plug-In . SVG Version: 6.00 Build 0)  -->
<svg version="1.1" id="Слой_1" xmlns="http://www.w3.org/2000/svg" xmlns:xlink="http://www.w3.org/1999/xlink" x="0px" y="0px"
	 viewBox="0 0 48 48" style="enable-background:new 0 0 48 48;" xml:space="preserve">
<path d="M42.5,44.8l-7.1-7.1V43h-1.5v-6.9L3.8,6l1.1-1.1l38.8,38.8C43.6,43.6,42.5,44.8,42.5,44.8z M35.5,30.5L34,29v-2h-2l-2.8-2.8
	V13.4c0-2.1,0.5-4.1,1.6-5.8S33.5,5,35.5,5C35.5,5.1,35.5,30.5,35.5,30.5z M22.3,17.1l-1.5-1.3V5h1.5V17.1z M16.7,11.7l-1.5-1.5V5
	h1.5V11.7z M11,6l-1-1h1V6z M15.1,43V24.9c-1.6-0.2-2.9-0.8-4-2s-1.7-2.7-1.7-4.4v-9L11,11v7.5h4.1v-3.3l1.5,1.5v1.8h1.8l3.1,3.1
	c-0.5,0.9-1.2,1.7-2,2.3c-0.9,0.6-1.8,0.9-2.8,1V43H15.1z"/>
</svg>
