<?xml version="1.0" encoding="utf-8"?>
<!-- Generator: Adobe Illustrator 26.3.1, SVG Export Plug-In . SVG Version: 6.00 Build 0)  -->
<svg version="1.1" id="Слой_1" xmlns="http://www.w3.org/2000/svg" xmlns:xlink="http://www.w3.org/1999/xlink" x="0px" y="0px"
	 viewBox="0 0 48 48" style="enable-background:new 0 0 48 48;" xml:space="preserve">
<path d="M42.5,44.8L37.8,40h-29c-0.8,0-1.4-0.3-2-0.8C6.3,38.6,6,38,6,37.2V14.9c0-0.8,0.3-1.4,0.8-2c0.5-0.5,1.2-0.8,2-0.8h3.4v2.2
	L3.8,6l1.1-1.1l38.8,38.8C43.6,43.6,42.5,44.8,42.5,44.8z M42,37L31.1,26.2c0-0.9-0.1-1.9-0.4-2.8s-0.8-1.7-1.5-2.4
	c-0.7-0.7-1.5-1.2-2.4-1.5S25,19,24,19l-7.8-7.8L18.8,8h10.3l3.7,4.2h6.4c0.8,0,1.4,0.3,2,0.8c0.5,0.5,0.8,1.2,0.8,2
	C42,14.9,42,37,42,37z M24,33.3c0.9,0,1.9-0.2,2.7-0.5c0.9-0.4,1.7-0.9,2.4-1.5L18.8,21c-0.7,0.7-1.2,1.5-1.5,2.3
	c-0.4,0.9-0.5,1.8-0.5,2.7c0,2,0.7,3.7,2.1,5.1C20.3,32.6,22,33.3,24,33.3z M24,31.8c-1.6,0-2.9-0.6-4-1.7s-1.7-2.4-1.7-4
	c0-0.8,0.1-1.5,0.4-2.2s0.7-1.3,1.2-1.8l8,8c-0.5,0.6-1.1,1-1.8,1.3C25.5,31.6,24.8,31.8,24,31.8z"/>
</svg>
