<?xml version="1.0" encoding="utf-8"?>
<!-- Generator: Adobe Illustrator 26.3.1, SVG Export Plug-In . SVG Version: 6.00 Build 0)  -->
<svg version="1.1" id="Слой_1" xmlns="http://www.w3.org/2000/svg" xmlns:xlink="http://www.w3.org/1999/xlink" x="0px" y="0px"
	 viewBox="0 0 48 48" style="enable-background:new 0 0 48 48;" xml:space="preserve">
<path d="M22.6,6c0.2,0,0.4,0,0.7,0h1.4c0.2,0,0.5,0,0.7,0l-0.2,1.5c-0.2,0-0.4-0.1-0.6-0.1h-1.2c-0.2,0-0.4,0-0.5,0.1L22.6,6z
	 M15,8.4c0.4-0.2,0.8-0.5,1.3-0.6c0.4-0.2,0.9-0.4,1.3-0.5l0.5,1.5c-0.4,0.1-0.8,0.3-1.1,0.4c-0.4,0.2-0.7,0.3-1.1,0.6
	C15.9,9.7,15,8.4,15,8.4z M32.3,9.7c-0.3-0.2-0.7-0.4-1.1-0.6c-0.4-0.2-0.7-0.3-1.1-0.5l0.5-1.5c0.4,0.2,0.9,0.4,1.3,0.6
	c0.4,0.2,0.9,0.4,1.3,0.7C33.1,8.4,32.3,9.7,32.3,9.7z M37.6,14.7c-0.2-0.3-0.5-0.7-0.7-1c-0.3-0.3-0.5-0.6-0.8-0.9l1-1.2
	c0.3,0.3,0.6,0.7,0.9,1.1c0.3,0.4,0.6,0.8,0.9,1.2L37.6,14.7z M9.1,13.9c0.2-0.4,0.5-0.7,0.8-1.1c0.3-0.4,0.6-0.7,0.9-1.1l1,1.1
	c-0.3,0.3-0.5,0.6-0.8,0.9c-0.2,0.3-0.5,0.6-0.7,1L9.1,13.9z M6.2,21.3c0.1-0.5,0.2-0.9,0.3-1.4c0.1-0.5,0.2-0.9,0.4-1.4l1.4,0.6
	c-0.1,0.4-0.2,0.8-0.3,1.2c-0.1,0.4-0.2,0.8-0.2,1.2L6.2,21.3z M40.3,21.5c0-0.4-0.1-0.8-0.2-1.2c-0.1-0.4-0.2-0.8-0.3-1.2l1.5-0.5
	c0.1,0.5,0.3,0.9,0.4,1.4c0.1,0.5,0.2,0.9,0.3,1.4L40.3,21.5z M39.7,28.9c0.1-0.4,0.2-0.8,0.3-1.2c0.1-0.4,0.2-0.8,0.3-1.2l1.5,0.1
	c-0.1,0.5-0.2,0.9-0.3,1.4s-0.2,0.9-0.4,1.4C41.2,29.4,39.7,28.9,39.7,28.9z M7.7,26.6C7.8,27,7.9,27.4,8,27.8
	c0.1,0.4,0.2,0.8,0.3,1.2l-1.4,0.6c-0.2-0.5-0.3-0.9-0.4-1.4s-0.2-0.9-0.3-1.4C6.2,26.7,7.7,26.6,7.7,26.6z M36.1,35.1
	c0.3-0.3,0.5-0.6,0.8-0.9c0.2-0.3,0.5-0.7,0.7-1L39,34c-0.3,0.4-0.6,0.8-0.8,1.2c-0.3,0.4-0.6,0.7-0.9,1.1L36.1,35.1z M10.9,36.3
	c-0.3-0.3-0.6-0.7-0.9-1.1c-0.3-0.4-0.6-0.8-0.9-1.2l1.4-0.8c0.2,0.3,0.5,0.7,0.7,1c0.3,0.3,0.5,0.6,0.8,0.9
	C12,35.2,10.9,36.3,10.9,36.3z M30.1,39.3c0.4-0.1,0.8-0.3,1.1-0.5c0.4-0.2,0.7-0.4,1.1-0.6l0.8,1.3c-0.4,0.2-0.8,0.5-1.3,0.7
	c-0.4,0.2-0.9,0.4-1.3,0.6C30.6,40.7,30.1,39.3,30.1,39.3z M17.6,40.8c-0.4-0.2-0.9-0.4-1.3-0.6c-0.4-0.2-0.8-0.4-1.3-0.7l0.8-1.3
	c0.3,0.2,0.7,0.4,1.1,0.6c0.4,0.2,0.7,0.3,1.1,0.5C18,39.4,17.6,40.8,17.6,40.8z M24,42h-0.7c-0.2,0-0.5,0-0.7,0l0.3-1.5
	c0.2,0,0.6,0,1.1,0h0.6c0.2,0,0.4,0,0.6,0l0.2,1.5c-0.2,0-0.5,0-0.7,0H24z M26,34.8c-1,0-1.9-0.3-2.8-0.9c-0.8-0.6-1.4-1.4-1.7-2.4
	c-0.1-0.4-0.3-0.8-0.5-1.1s-0.4-0.7-0.7-1l-2.7-2.7c-0.8-0.8-1.3-1.7-1.8-2.6c-0.4-1-0.6-2-0.6-3c0-2.2,0.8-4,2.3-5.5
	s3.3-2.2,5.5-2.2c2,0,3.7,0.6,5.2,1.9c1.5,1.3,2.3,2.9,2.5,4.8h-1.5c-0.3-1.5-1-2.7-2.1-3.7c-1.2-1-2.5-1.4-4-1.4
	c-1.7,0-3.2,0.6-4.4,1.8c-1.2,1.2-1.8,2.7-1.8,4.4c0,0.8,0.2,1.7,0.5,2.4c0.3,0.8,0.8,1.5,1.4,2.1l2.7,2.7c0.4,0.4,0.7,0.8,0.9,1.3
	c0.2,0.5,0.4,1,0.6,1.5c0.2,0.6,0.6,1.2,1.2,1.6s1.2,0.6,1.9,0.6c0.9,0,1.7-0.3,2.3-1c0.6-0.6,0.9-1.4,0.9-2.3h1.5
	c0,1.3-0.5,2.4-1.4,3.4C28.5,34.3,27.3,34.8,26,34.8z M27,26.8c-0.5,0-0.9-0.2-1.2-0.5c-0.4-0.4-0.5-0.8-0.5-1.2
	c0-0.5,0.2-0.9,0.5-1.3c0.4-0.3,0.8-0.5,1.2-0.5c0.5,0,0.9,0.2,1.3,0.5c0.3,0.3,0.5,0.8,0.5,1.3s-0.2,0.9-0.5,1.2
	C27.9,26.6,27.5,26.8,27,26.8z"/>
</svg>
