<?xml version="1.0" encoding="utf-8"?>
<!-- Generator: Adobe Illustrator 26.3.1, SVG Export Plug-In . SVG Version: 6.00 Build 0)  -->
<svg version="1.1" id="Слой_1" xmlns="http://www.w3.org/2000/svg" xmlns:xlink="http://www.w3.org/1999/xlink" x="0px" y="0px"
	 viewBox="0 0 48 48" style="enable-background:new 0 0 48 48;" xml:space="preserve">
<path d="M24,42c-1.9,0-3.8-0.3-5.6-0.9c-1.8-0.6-3.4-1.4-4.8-2.5l1.1-1.1c1.3,0.9,2.8,1.6,4.4,2.1s3.2,0.8,4.9,0.8
	c1.8,0,3.4-0.3,5-0.8s3-1.2,4.3-2.1l1.1,1.1c-1.5,1-3.1,1.9-4.8,2.5C27.8,41.7,25.9,42,24,42z M9.3,34.4c-1-1.5-1.9-3.1-2.5-4.8
	C6.3,27.8,6,25.9,6,24s0.3-3.8,0.9-5.6c0.6-1.8,1.4-3.4,2.5-4.8l1.1,1.1c-1,1.3-1.7,2.8-2.2,4.3c-0.5,1.6-0.8,3.2-0.8,5
	s0.3,3.4,0.8,5s1.2,3,2.2,4.4C10.5,33.3,9.3,34.4,9.3,34.4z M38.7,34.4l-1.1-1.1c0.9-1.3,1.6-2.8,2.1-4.3c0.5-1.6,0.8-3.2,0.8-5
	s-0.3-3.4-0.8-5s-1.2-3-2.1-4.3l1.1-1.1c1,1.5,1.9,3.1,2.5,4.8c0.6,1.8,0.9,3.6,0.9,5.6s-0.3,3.8-0.9,5.6
	C40.5,31.3,39.7,32.9,38.7,34.4z M14.7,10.5l-1.1-1.1c1.5-1,3.1-1.9,4.8-2.5C20.2,6.3,22.1,6,24,6s3.8,0.3,5.6,0.9
	c1.8,0.6,3.4,1.4,4.8,2.5l-1.1,1.1c-1.3-1-2.8-1.7-4.3-2.2c-1.6-0.5-3.2-0.8-5-0.8s-3.4,0.3-5,0.8S16,9.5,14.7,10.5z M26,34.8
	c-1,0-1.9-0.3-2.8-0.9c-0.8-0.6-1.4-1.4-1.7-2.4c-0.1-0.4-0.3-0.8-0.5-1.1s-0.4-0.7-0.7-1l-2.7-2.7c-0.8-0.8-1.3-1.7-1.8-2.6
	c-0.4-1-0.6-2-0.6-3c0-2.2,0.8-4,2.3-5.5s3.3-2.2,5.5-2.2c2,0,3.7,0.6,5.2,1.9c1.5,1.3,2.3,2.9,2.5,4.8h-1.5c-0.3-1.5-1-2.7-2.1-3.7
	c-1.2-1-2.5-1.4-4-1.4c-1.7,0-3.2,0.6-4.4,1.8c-1.2,1.2-1.8,2.7-1.8,4.4c0,0.8,0.2,1.7,0.5,2.4c0.3,0.8,0.8,1.5,1.4,2.1l2.7,2.7
	c0.4,0.4,0.7,0.8,0.9,1.3c0.2,0.5,0.4,1,0.6,1.5c0.2,0.6,0.6,1.2,1.2,1.6s1.2,0.6,1.9,0.6c0.9,0,1.7-0.3,2.3-1
	c0.6-0.6,0.9-1.4,0.9-2.3h1.5c0,1.3-0.5,2.4-1.4,3.4C28.5,34.3,27.3,34.8,26,34.8z M27,26.8c-0.5,0-0.9-0.2-1.2-0.5
	c-0.4-0.4-0.5-0.8-0.5-1.2c0-0.5,0.2-0.9,0.5-1.3c0.4-0.3,0.8-0.5,1.2-0.5c0.5,0,0.9,0.2,1.3,0.5c0.3,0.3,0.5,0.8,0.5,1.3
	s-0.2,0.9-0.5,1.2C27.9,26.6,27.5,26.8,27,26.8z"/>
</svg>
