<?xml version="1.0" encoding="utf-8"?>
<!-- Generator: Adobe Illustrator 26.3.1, SVG Export Plug-In . SVG Version: 6.00 Build 0)  -->
<svg version="1.1" id="Слой_1" xmlns="http://www.w3.org/2000/svg" xmlns:xlink="http://www.w3.org/1999/xlink" x="0px" y="0px"
	 viewBox="0 0 48 48" style="enable-background:new 0 0 48 48;" xml:space="preserve">
<path d="M9.1,45l3.6-16.2H14L10.4,45H9.1z M15.2,45L21,15.5l-6.6,2.9v6.4h-1.5v-7.5l8.9-3.7c0.9-0.4,1.7-0.5,2.5-0.4s1.5,0.5,2,1.3
	l2,3.2c0.9,1.4,2.1,2.6,3.6,3.6c1.5,1,3.2,1.6,5.1,1.8v1.5c-2.1-0.1-4-0.8-5.8-2s-3.3-2.9-4.6-5.2l-2.2,9.9l4.4,4.2V45h-1.5V33.7
	l-6.4-6l-4,17.3H15.2z M27,10.2c-0.9,0-1.7-0.3-2.3-0.9c-0.6-0.6-0.9-1.4-0.9-2.3s0.3-1.7,0.9-2.3s1.4-0.9,2.3-0.9s1.7,0.3,2.3,0.9
	s0.9,1.4,0.9,2.3s-0.3,1.7-0.9,2.3C28.7,9.9,27.9,10.2,27,10.2z M35.9,45V28.8h1.3V45H35.9z"/>
</svg>
