<?xml version="1.0" encoding="utf-8"?>
<!-- Generator: Adobe Illustrator 26.3.1, SVG Export Plug-In . SVG Version: 6.00 Build 0)  -->
<svg version="1.1" id="Слой_1" xmlns="http://www.w3.org/2000/svg" xmlns:xlink="http://www.w3.org/1999/xlink" x="0px" y="0px"
	 viewBox="0 0 48 48" style="enable-background:new 0 0 48 48;" xml:space="preserve">
<path d="M24,30.6c0.3,0,0.6-0.1,0.9-0.4c0.3-0.2,0.4-0.5,0.4-0.8s-0.1-0.6-0.4-0.9s-0.5-0.4-0.9-0.4c-0.3,0-0.6,0.1-0.8,0.4
	c-0.2,0.3-0.4,0.5-0.4,0.9c0,0.3,0.1,0.6,0.4,0.8C23.4,30.5,23.7,30.6,24,30.6z M23.2,25.1h1.5c0-0.4,0-0.8,0.1-1.1
	c0.1-0.3,0.2-0.6,0.4-0.9c0.2-0.3,0.4-0.6,0.7-0.9c0.3-0.3,0.7-0.7,1.2-1.2c0.7-0.6,1.1-1.2,1.4-1.8c0.3-0.6,0.4-1.3,0.4-2.1
	c0-1.3-0.5-2.3-1.4-3.2c-0.9-0.8-2-1.2-3.4-1.2c-1.1,0-2.1,0.3-3,0.9c-0.9,0.6-1.6,1.4-2,2.3l1.4,0.6c0.3-0.7,0.8-1.2,1.5-1.7
	c0.6-0.4,1.4-0.6,2.2-0.6c0.9,0,1.6,0.3,2.3,0.8c0.6,0.5,0.9,1.2,0.9,2.1c0,0.6-0.1,1.2-0.4,1.6c-0.3,0.5-0.8,1-1.5,1.7
	c-0.5,0.4-0.9,0.8-1.2,1.2c-0.3,0.4-0.5,0.7-0.7,1.1s-0.3,0.7-0.4,1.1C23.3,24.3,23.2,24.7,23.2,25.1z M24,42
	c-4.7-4.2-8.2-8-10.6-11.6s-3.6-6.9-3.6-9.8c0-4.2,1.4-7.7,4.1-10.5C16.7,7.4,20,6,24,6s7.3,1.4,10.1,4.1s4.1,6.2,4.1,10.5
	c0,2.9-1.2,6.2-3.6,9.8C32.2,34,28.7,37.9,24,42z"/>
</svg>
