<?xml version="1.0" encoding="utf-8"?>
<!-- Generator: Adobe Illustrator 26.3.1, SVG Export Plug-In . SVG Version: 6.00 Build 0)  -->
<svg version="1.1" id="Слой_1" xmlns="http://www.w3.org/2000/svg" xmlns:xlink="http://www.w3.org/1999/xlink" x="0px" y="0px"
	 viewBox="0 0 48 48" style="enable-background:new 0 0 48 48;" xml:space="preserve">
<path d="M40.2,42.4l-5-5V40h-1.9v-4.5l-3.7-3.7h-7.8c-1.4,0-2.5-0.6-3.3-1.7c-0.8-1.2-0.8-2.4-0.2-3.7l1.9-4L5.6,7.8l1.1-1.1
	l34.5,34.5C41.3,41.3,40.2,42.4,40.2,42.4z M34.8,29.8l-3-3h0.1c0.6,0.2,1.2,0.6,1.7,1.1s0.9,1.1,1.1,1.8
	C34.8,29.7,34.8,29.8,34.8,29.8z M26.7,21.7L20,15h5.4c1.1,0,1.9,0.4,2.5,1.2c0.6,0.8,0.6,1.7,0.1,2.8L26.7,21.7z M16.2,42
	c-2.3,0-4.2-0.8-5.8-2.5C8.8,37.9,8,35.9,8,33.7s0.8-4.2,2.4-5.9c1.6-1.6,3.6-2.4,5.8-2.4V27c-1.9,0-3.4,0.7-4.8,2
	c-1.3,1.3-2,2.9-2,4.8s0.7,3.4,2,4.8c1.3,1.3,2.9,2,4.8,2s3.4-0.6,4.7-1.9c1.3-1.3,2-3,2-5h1.5c0,2.5-0.8,4.5-2.5,6.2
	C20.4,41.2,18.5,42,16.2,42z M29.4,13.3c-0.8,0-1.6-0.3-2.2-0.9c-0.6-0.6-0.9-1.3-0.9-2.2c0-0.8,0.3-1.6,0.9-2.2s1.3-0.9,2.2-0.9
	c0.8,0,1.6,0.3,2.1,0.9s0.9,1.3,0.9,2.2c0,0.8-0.3,1.6-0.9,2.2C30.9,13,30.2,13.3,29.4,13.3z"/>
</svg>
