<?xml version="1.0" encoding="utf-8"?>
<!-- Generator: Adobe Illustrator 26.3.1, SVG Export Plug-In . SVG Version: 6.00 Build 0)  -->
<svg version="1.1" id="Слой_1" xmlns="http://www.w3.org/2000/svg" xmlns:xlink="http://www.w3.org/1999/xlink" x="0px" y="0px"
	 viewBox="0 0 48 48" style="enable-background:new 0 0 48 48;" xml:space="preserve">
<path d="M28.2,35.8h1.5v-6h6v-1.5h-6v-6h-1.5v6h-6v1.5h6V35.8z M16,39.2V18.8c0-0.8,0.3-1.4,0.8-2c0.5-0.5,1.2-0.8,2-0.8h20.5
	c0.7,0,1.4,0.3,1.9,0.8c0.6,0.6,0.8,1.2,0.8,1.9v14.4L33.2,42H18.8c-0.7,0-1.4-0.3-1.9-0.8C16.3,40.6,16,40,16,39.2z M6.1,12.8
	c-0.1-0.8,0-1.4,0.5-2.1c0.4-0.6,1-1,1.8-1.1l20.2-3.5c0.8-0.1,1.4,0,2.1,0.4c0.6,0.4,1,1,1.1,1.8l0.6,3.4H18.8c-2,0-3.6,0.7-5,2.1
	s-2.1,3.1-2.1,5v16.4c-0.5-0.1-1-0.3-1.3-0.7C10,34,9.7,33.5,9.6,33L6.1,12.8z"/>
</svg>
