<?xml version="1.0" encoding="utf-8"?>
<!-- Generator: Adobe Illustrator 26.3.1, SVG Export Plug-In . SVG Version: 6.00 Build 0)  -->
<svg version="1.1" id="Слой_1" xmlns="http://www.w3.org/2000/svg" xmlns:xlink="http://www.w3.org/1999/xlink" x="0px" y="0px"
	 viewBox="0 0 48 48" style="enable-background:new 0 0 48 48;" xml:space="preserve">
<path d="M8,42c-0.8,0-1.4-0.3-2-0.8c-0.5-0.5-0.8-1.2-0.8-2V16.5h1.5v22.8c0,0.4,0.1,0.7,0.3,0.9c0.2,0.2,0.5,0.3,0.9,0.3h25V42H8z
	 M13.1,36.9c-0.8,0-1.4-0.3-2-0.8c-0.5-0.5-0.8-1.2-0.8-2V17.6c0-0.5,0.1-0.9,0.3-1.3s0.5-0.7,0.9-0.9l15-8.9l1.6,0.8l-15.9,9.6
	l14.3,8.9l13.9-8.6c0.2-0.2,0.5-0.3,0.8-0.3s0.5,0,0.8,0.2c0.2,0.1,0.4,0.3,0.6,0.5c0.1,0.2,0.2,0.5,0.2,0.8v15.8
	c0,0.8-0.3,1.4-0.8,2c-0.5,0.5-1.2,0.8-2,0.8L13.1,36.9L13.1,36.9z M26,20.9l-4.3-4.3l1.1-1.1l3.2,3.2l8.1-8l1.1,1.1L26,20.9z"/>
</svg>
