<?xml version="1.0" encoding="utf-8"?>
<!-- Generator: Adobe Illustrator 26.3.1, SVG Export Plug-In . SVG Version: 6.00 Build 0)  -->
<svg version="1.1" id="Слой_1" xmlns="http://www.w3.org/2000/svg" xmlns:xlink="http://www.w3.org/1999/xlink" x="0px" y="0px"
	 viewBox="0 0 48 48" style="enable-background:new 0 0 48 48;" xml:space="preserve">
<path d="M24,42.8c-0.9,0-1.7-0.3-2.3-0.9c-0.6-0.6-0.9-1.4-0.9-2.3h6.5c0,0.9-0.3,1.7-1,2.3C25.6,42.5,24.9,42.8,24,42.8z
	 M35.8,26.8v-6.2h-6.2V19h6.2v-6.2h1.5V19h6.2v1.5h-6.2v6.2C37.3,26.8,35.8,26.8,35.8,26.8z M10,37.5V36h3.2V19.6
	c0-2.6,0.8-4.9,2.5-7c1.6-2,3.7-3.3,6.3-3.7V8c0-0.6,0.2-1,0.6-1.4S23.4,6,24,6s1,0.2,1.4,0.6S26,7.4,26,8v0.9
	c0.7,0.1,1.4,0.3,2.1,0.6s1.3,0.6,1.9,0.9c-1.5,1.1-2.6,2.4-3.5,4c-0.8,1.6-1.3,3.4-1.3,5.3c0,2.9,0.9,5.3,2.7,7.4
	c1.8,2.1,4.1,3.4,6.9,3.8V36H38v1.5H10z"/>
</svg>
