<?xml version="1.0" encoding="utf-8"?>
<!-- Generator: Adobe Illustrator 26.3.1, SVG Export Plug-In . SVG Version: 6.00 Build 0)  -->
<svg version="1.1" id="Слой_1" xmlns="http://www.w3.org/2000/svg" xmlns:xlink="http://www.w3.org/1999/xlink" x="0px" y="0px"
	 viewBox="0 0 48 48" style="enable-background:new 0 0 48 48;" xml:space="preserve">
<path d="M10,37.5V36h3.2V19.6c0-2.6,0.8-4.9,2.5-7c1.6-2,3.7-3.3,6.3-3.7V8c0-0.6,0.2-1,0.6-1.4S23.4,6,24,6s1,0.2,1.4,0.6
	S26,7.4,26,8v0.9c2.6,0.4,4.7,1.7,6.3,3.7s2.5,4.3,2.5,7V36H38v1.5H10z M24,42.8c-0.9,0-1.7-0.3-2.3-0.9c-0.6-0.6-0.9-1.4-0.9-2.3
	h6.5c0,0.9-0.3,1.7-0.9,2.3C25.7,42.5,24.9,42.8,24,42.8z M7.4,19.5c0-2.6,0.6-5.1,1.7-7.3c1.2-2.3,2.7-4.1,4.6-5.7l1,1.2
	c-1.8,1.4-3.2,3.1-4.2,5.1s-1.6,4.3-1.6,6.7C8.9,19.5,7.4,19.5,7.4,19.5z M39.1,19.5c0-2.4-0.5-4.7-1.6-6.7c-1-2-2.4-3.7-4.2-5.1
	l1-1.2c1.9,1.5,3.5,3.4,4.6,5.7c1.2,2.3,1.7,4.7,1.7,7.3H39.1z"/>
</svg>
