<?xml version="1.0" encoding="utf-8"?>
<!-- Generator: Adobe Illustrator 26.3.1, SVG Export Plug-In . SVG Version: 6.00 Build 0)  -->
<svg version="1.1" id="Слой_1" xmlns="http://www.w3.org/2000/svg" xmlns:xlink="http://www.w3.org/1999/xlink" x="0px" y="0px"
	 viewBox="0 0 48 48" style="enable-background:new 0 0 48 48;" xml:space="preserve">
<path d="M40.2,42.4l-4.6-4.6c-1.6,1.4-3.4,2.4-5.4,3.1c-2,0.7-4,1.1-6.2,1.1c-2.5,0-4.8-0.5-7-1.4s-4.1-2.2-5.7-3.9
	c-1.6-1.6-2.9-3.5-3.9-5.7C6.5,28.8,6,26.5,6,24c0-2.1,0.4-4.2,1.1-6.2s1.8-3.8,3.1-5.4L5.6,7.8l1.1-1.1l34.5,34.5
	C41.3,41.3,40.2,42.4,40.2,42.4z M17,33h13.8l-1.5-1.5H17V33z M39,34L26.7,21.7l5.1-5.1l-1.1-1.2l-5.1,5.1L14,9
	c1.5-1,3.1-1.7,4.8-2.2C20.5,6.3,22.2,6,24,6c2.5,0,4.8,0.5,7,1.4s4.1,2.2,5.7,3.9c1.6,1.6,2.9,3.5,3.9,5.7c0.9,2.2,1.4,4.5,1.4,7
	c0,1.8-0.3,3.5-0.8,5.2C40.7,30.9,40,32.5,39,34z"/>
</svg>
