<?xml version="1.0" encoding="utf-8"?>
<!-- Generator: Adobe Illustrator 26.3.1, SVG Export Plug-In . SVG Version: 6.00 Build 0)  -->
<svg version="1.1" id="Слой_1" xmlns="http://www.w3.org/2000/svg" xmlns:xlink="http://www.w3.org/1999/xlink" x="0px" y="0px"
	 viewBox="0 0 48 48" style="enable-background:new 0 0 48 48;" xml:space="preserve">
<path d="M41.5,42.8L36.7,38c-0.5,0.3-1,0.6-1.6,0.8s-1.2,0.3-1.9,0.3c-1.7,0-3.1-0.6-4.2-1.8c-1.2-1.2-1.8-2.6-1.8-4.2
	c0-1.7,0.6-3.1,1.8-4.3c1.2-1.2,2.6-1.7,4.2-1.7c1.7,0,3.1,0.6,4.2,1.7s1.8,2.6,1.8,4.3c0,0.7-0.1,1.4-0.4,2.1
	c-0.3,0.7-0.6,1.3-1,1.8l4.8,4.8L41.5,42.8z M33.2,37.6c1.2,0,2.3-0.4,3.2-1.3c0.9-0.9,1.3-1.9,1.3-3.2c0-1.2-0.4-2.3-1.3-3.2
	c-0.9-0.9-1.9-1.3-3.2-1.3c-1.2,0-2.3,0.4-3.2,1.3c-0.9,0.9-1.3,1.9-1.3,3.2c0,1.2,0.4,2.3,1.3,3.2S32,37.6,33.2,37.6z M8,43V32
	c0-1.3,0.5-2.5,1.4-3.4s2.1-1.4,3.4-1.4h4c2.3,0,4.1-0.7,5.4-2c1.2-1.3,1.9-2.9,1.9-4.8c0-1.1-0.3-1.9-1-2.6s-1.5-1-2.5-1
	c-0.7,0-1.3-0.2-1.8-0.7s-0.7-1.1-0.7-1.8V5h8v2.3L28,9.2c3.4,0,6.2,1.3,8.6,3.8s3.5,5.5,3.5,9v2.8c-1-0.8-2-1.4-3.2-1.8
	c-1.1-0.4-2.3-0.6-3.6-0.6c-3,0-5.5,1-7.6,3.1s-3.1,4.6-3.1,7.6c0,0.5,0.1,1.1,0.2,1.8s0.3,1.3,0.5,1.8h-3.9c-0.9,0-1.7,0.3-2.3,0.9
	C16.3,38.3,16,39.1,16,40v3H8z"/>
</svg>
