<?xml version="1.0" encoding="utf-8"?>
<!-- Generator: Adobe Illustrator 26.3.1, SVG Export Plug-In . SVG Version: 6.00 Build 0)  -->
<svg version="1.1" id="Слой_1" xmlns="http://www.w3.org/2000/svg" xmlns:xlink="http://www.w3.org/1999/xlink" x="0px" y="0px"
	 viewBox="0 0 48 48" style="enable-background:new 0 0 48 48;" xml:space="preserve">
<path d="M11.3,36.7c-1.7-1.8-3.1-3.8-3.9-5.9C6.5,28.8,6,26.5,6,24s0.4-4.8,1.3-6.9s2.2-4.1,3.9-5.9l1.1,1.1
	c-1.6,1.6-2.8,3.4-3.6,5.4S7.5,21.8,7.5,24s0.4,4.2,1.2,6.3c0.8,2,2,3.8,3.6,5.4C12.4,35.6,11.3,36.7,11.3,36.7z M15.1,32.9
	c-1.2-1.3-2.1-2.6-2.8-4.1s-1-3.1-1-4.8c0-1.8,0.3-3.4,1-4.8c0.7-1.5,1.6-2.8,2.8-4.1l1.1,1.1c-1,1-1.8,2.2-2.4,3.5
	c-0.6,1.3-0.9,2.8-0.9,4.3s0.3,3,0.9,4.3c0.6,1.3,1.4,2.5,2.4,3.5L15.1,32.9z M22.6,32.4c-0.2-1-0.5-1.8-0.9-2.6
	c-0.5-0.7-0.9-1.5-1.5-2.2c-0.5-0.7-1-1.4-1.4-2.1S18.2,24,18.2,23c0-1.6,0.6-2.9,1.7-4.1c1.1-1.1,2.5-1.7,4.1-1.7s2.9,0.6,4.1,1.7
	c1.1,1.1,1.7,2.5,1.7,4.1c0,0.9-0.2,1.7-0.6,2.5c-0.4,0.7-0.9,1.5-1.4,2.2s-1,1.4-1.5,2.2c-0.5,0.7-0.8,1.6-0.9,2.6
	C25.4,32.4,22.6,32.4,22.6,32.4z M22.6,37.2v-2h2.8v2H22.6z M33,32.9l-1.1-1.1c1-1,1.8-2.2,2.4-3.5s0.9-2.8,0.9-4.3
	c0-1.5-0.3-3-0.9-4.3c-0.6-1.3-1.4-2.5-2.4-3.6L33,15c1.2,1.3,2.1,2.7,2.7,4.1c0.7,1.5,1,3.1,1,4.8c0,1.8-0.3,3.4-1,4.8
	C35.1,30.3,34.2,31.7,33,32.9z M36.8,36.7l-1.1-1.1c1.6-1.6,2.8-3.4,3.6-5.4s1.2-4.1,1.2-6.3s-0.4-4.2-1.2-6.3c-0.8-2-2-3.8-3.6-5.4
	l1.1-1.1c1.7,1.8,3,3.8,3.9,5.9s1.3,4.4,1.3,6.9s-0.4,4.8-1.3,6.9C39.8,33,38.5,34.9,36.8,36.7z"/>
</svg>
