<?xml version="1.0" encoding="utf-8"?>
<!-- Generator: Adobe Illustrator 26.3.1, SVG Export Plug-In . SVG Version: 6.00 Build 0)  -->
<svg version="1.1" id="Слой_1" xmlns="http://www.w3.org/2000/svg" xmlns:xlink="http://www.w3.org/1999/xlink" x="0px" y="0px"
	 viewBox="0 0 48 48" style="enable-background:new 0 0 48 48;" xml:space="preserve">
<path d="M24,40c-3.9,0-7.2-1.3-9.9-3.9c-2.7-2.6-4.1-5.9-4.1-9.8c0-1.9,0.4-3.7,1.1-5.3s1.7-3.1,3-4.5L24,6.8l9.9,9.7
	c1.2,1.3,2.2,2.8,3,4.5s1.1,3.4,1.1,5.3c0,3.9-1.4,7.2-4.1,9.8C31.2,38.7,27.9,40,24,40z M11.7,28h24.6c0.4-2.4,0.2-4.5-0.7-6.3
	s-1.8-3.2-2.7-4.1L24,8.9l-8.9,8.7c-0.9,0.9-1.8,2.3-2.7,4.1C11.6,23.5,11.3,25.6,11.7,28z"/>
</svg>
