<?xml version="1.0" encoding="utf-8"?>
<!-- Generator: Adobe Illustrator 26.3.1, SVG Export Plug-In . SVG Version: 6.00 Build 0)  -->
<svg version="1.1" id="Слой_1" xmlns="http://www.w3.org/2000/svg" xmlns:xlink="http://www.w3.org/1999/xlink" x="0px" y="0px"
	 viewBox="0 0 48 48" style="enable-background:new 0 0 48 48;" xml:space="preserve">
<path d="M12.5,41.1c-1.6,0-2.9-0.5-4-1.6s-1.6-2.4-1.6-4s0.5-2.9,1.6-4c1.1-1.1,2.4-1.6,4-1.6s2.9,0.5,4,1.6c1.1,1.1,1.6,2.4,1.6,4
	c0,0.7-0.1,1.3-0.4,2c-0.2,0.6-0.6,1.2-1,1.7v-0.3c1.1,0.6,2.3,1,3.5,1.3s2.5,0.4,3.8,0.4c4.6,0,8.5-1.6,11.7-4.8s4.8-7.1,4.8-11.7
	H42c0,2.5-0.5,4.8-1.4,7s-2.2,4.1-3.9,5.7c-1.6,1.6-3.5,2.9-5.7,3.9c-2.2,0.9-4.5,1.4-7,1.4c-1.5,0-2.9-0.2-4.3-0.5s-2.7-0.8-4-1.5
	c-0.5,0.4-1,0.6-1.5,0.8C13.6,41,13.1,41.1,12.5,41.1z M24,29.6c-1.6,0-2.9-0.5-4-1.6s-1.6-2.4-1.6-4s0.5-2.9,1.6-4s2.4-1.6,4-1.6
	s2.9,0.5,4,1.6s1.6,2.4,1.6,4s-0.5,2.9-1.6,4C26.9,29,25.6,29.6,24,29.6z M6,24c0-2.5,0.5-4.8,1.4-7s2.2-4.1,3.9-5.7
	c1.6-1.6,3.5-2.9,5.7-3.9C19.2,6.5,21.5,6,24,6c1.5,0,2.9,0.2,4.3,0.5s2.7,0.8,4,1.5c0.5-0.3,1-0.6,1.5-0.8C34.4,7.1,34.9,7,35.5,7
	c1.6,0,2.9,0.5,3.9,1.6c1.1,1,1.6,2.4,1.6,3.9s-0.5,2.9-1.6,3.9C38.3,17.5,37,18,35.5,18s-2.9-0.5-3.9-1.6c-1.1-1.1-1.6-2.4-1.6-4
	c0-0.7,0.1-1.3,0.4-2c0.2-0.6,0.6-1.2,1-1.7v0.4c-1.2-0.6-2.3-1-3.6-1.3c-1.2-0.3-2.5-0.4-3.8-0.4c-4.6,0-8.5,1.6-11.7,4.8
	C9.1,15.5,7.5,19.4,7.5,24H6z"/>
</svg>
