<?xml version="1.0" encoding="utf-8"?>
<!-- Generator: Adobe Illustrator 26.3.1, SVG Export Plug-In . SVG Version: 6.00 Build 0)  -->
<svg version="1.1" id="Слой_1" xmlns="http://www.w3.org/2000/svg" xmlns:xlink="http://www.w3.org/1999/xlink" x="0px" y="0px"
	 viewBox="0 0 48 48" style="enable-background:new 0 0 48 48;" xml:space="preserve">
<path d="M34.1,40.2l5.8-3.7l-5.8-3.7V40.2z M13.5,17h20.9v-1.5H13.5V17z M36.3,44.2c-2.1,0-4-0.8-5.5-2.3s-2.2-3.3-2.2-5.4
	c0-2.2,0.8-4,2.2-5.5c1.5-1.5,3.3-2.3,5.5-2.3c2.1,0,3.9,0.8,5.5,2.3c1.5,1.5,2.3,3.3,2.3,5.5c0,2.1-0.8,3.9-2.3,5.4
	C40.3,43.5,38.4,44.2,36.3,44.2z M8,41.5V10.8c0-0.8,0.3-1.4,0.8-2C9.4,8.3,10,8,10.8,8h26.5c0.8,0,1.4,0.3,2,0.8
	c0.5,0.5,0.8,1.2,0.8,2V24c-1.2-0.3-2.3-0.5-3.5-0.5s-2.3,0.2-3.5,0.5v-0.8H13.5v1.5h16.9c-1.3,0.7-2.4,1.6-3.4,2.7
	s-1.8,2.3-2.4,3.6H13.5v1.5h10.6c-0.2,0.6-0.3,1.2-0.4,1.8s-0.1,1.2-0.1,1.9s0.1,1.5,0.2,2.2s0.3,1.5,0.5,2.2l-0.7,0.7l-2.3-1.7
	l-2.7,1.9l-2.7-1.9l-2.7,1.9l-2.7-1.9L8,41.5z"/>
</svg>
