<?xml version="1.0" encoding="utf-8"?>
<!-- Generator: Adobe Illustrator 26.3.1, SVG Export Plug-In . SVG Version: 6.00 Build 0)  -->
<svg version="1.1" id="Слой_1" xmlns="http://www.w3.org/2000/svg" xmlns:xlink="http://www.w3.org/1999/xlink" x="0px" y="0px"
	 viewBox="0 0 48 48" style="enable-background:new 0 0 48 48;" xml:space="preserve">
<path d="M24,42.4c-2,0-3.7-0.2-5.1-0.6c-1.4-0.4-2.5-0.7-3.2-0.9c-0.4-0.1-0.7-0.4-0.9-0.7c-0.3-0.3-0.4-0.7-0.4-1.1v-1.5h-1.6
	c-0.4,0-0.7-0.1-1-0.4c-0.3-0.3-0.4-0.6-0.4-1v-2.5c0-0.4,0.1-0.8,0.4-1c0.3-0.3,0.6-0.4,1-0.4h1.6v-5.7h-1.6c-0.4,0-0.7-0.1-1-0.4
	s-0.4-0.6-0.4-1v-2.5c0-0.4,0.1-0.8,0.4-1c0.3-0.3,0.6-0.4,1-0.4h1.6V16h-1.6c-0.4,0-0.7-0.1-1-0.4c-0.3-0.3-0.4-0.6-0.4-1V12
	c0-0.4,0.1-0.8,0.4-1c0.3-0.3,0.6-0.4,1-0.4h1.6V8.2c0-0.5,0.2-0.8,0.5-1s0.7-0.3,1.2-0.1c1,0.3,2.1,0.6,3.5,0.9s2.9,0.4,4.4,0.4
	c1.6,0,3.1-0.2,4.5-0.5C29.8,7.6,31,7.3,32,7c0.4-0.2,0.8-0.1,1.1,0.1s0.5,0.6,0.5,1.1v2.5h1.6c0.4,0,0.7,0.1,1,0.4
	c0.3,0.3,0.4,0.6,0.4,1v2.5c0,0.4-0.1,0.8-0.4,1c-0.3,0.3-0.6,0.4-1,0.4h-1.6v5.3h1.6c0.4,0,0.7,0.1,1,0.4s0.4,0.6,0.4,1v2.5
	c0,0.4-0.1,0.8-0.4,1c-0.3,0.3-0.6,0.4-1,0.4h-1.6v5.7h1.6c0.4,0,0.7,0.1,1,0.4c0.3,0.3,0.4,0.6,0.4,1v2.5c0,0.4-0.1,0.8-0.4,1
	s-0.6,0.4-1,0.4h-1.6v1.5c0,0.4-0.1,0.8-0.4,1.1c-0.3,0.3-0.6,0.6-0.9,0.7c-0.8,0.2-1.8,0.5-3.2,0.9C27.7,42.2,26,42.4,24,42.4z
	 M24,18.9c1.6,0,3-0.1,4.4-0.4s2.6-0.6,3.7-1V8.6c-1.2,0.4-2.5,0.7-3.9,1S25.4,10,24,10s-2.8-0.1-4.1-0.4c-1.4-0.3-2.7-0.6-3.9-1
	v8.9c1.1,0.4,2.3,0.7,3.7,1C21,18.7,22.4,18.9,24,18.9z M24,30.4c1.6,0,3-0.1,4.4-0.4s2.6-0.6,3.7-1v-9.8c-1.1,0.3-2.4,0.6-3.8,0.9
	s-2.8,0.4-4.3,0.4s-2.9-0.1-4.3-0.4c-1.3-0.2-2.6-0.5-3.8-0.9V29c1.1,0.4,2.3,0.7,3.7,1S22.4,30.4,24,30.4z M24,40.9
	c1.5,0,3-0.2,4.4-0.5s2.6-0.7,3.7-1v-8.7c-1.2,0.4-2.5,0.7-3.8,0.9C27,31.8,25.5,32,24,32s-2.9-0.1-4.3-0.4
	c-1.3-0.2-2.6-0.5-3.8-0.9v8.7c1.1,0.4,2.3,0.7,3.7,1S22.5,40.9,24,40.9z"/>
</svg>
