<?xml version="1.0" encoding="utf-8"?>
<!-- Generator: Adobe Illustrator 26.3.1, SVG Export Plug-In . SVG Version: 6.00 Build 0)  -->
<svg version="1.1" id="Слой_1" xmlns="http://www.w3.org/2000/svg" xmlns:xlink="http://www.w3.org/1999/xlink" x="0px" y="0px"
	 viewBox="0 0 48 48" style="enable-background:new 0 0 48 48;" xml:space="preserve">
<path d="M32.2,37.8c0.3,0,0.7-0.1,0.9-0.4c0.3-0.3,0.4-0.6,0.4-1c0-0.3-0.1-0.7-0.4-0.9c-0.3-0.3-0.6-0.4-0.9-0.4
	c-0.4,0-0.7,0.1-1,0.4c-0.3,0.3-0.4,0.6-0.4,0.9c0,0.4,0.1,0.7,0.4,1C31.5,37.7,31.8,37.8,32.2,37.8z M36.3,37.8
	c0.3,0,0.7-0.1,0.9-0.4c0.3-0.3,0.4-0.6,0.4-1c0-0.3-0.1-0.7-0.4-0.9c-0.3-0.3-0.6-0.4-0.9-0.4c-0.4,0-0.7,0.1-1,0.4
	c-0.3,0.3-0.4,0.6-0.4,0.9c0,0.4,0.1,0.7,0.4,1C35.6,37.7,35.9,37.8,36.3,37.8z M40.4,37.8c0.3,0,0.7-0.1,0.9-0.4
	c0.3-0.3,0.4-0.6,0.4-1c0-0.3-0.1-0.7-0.4-0.9c-0.3-0.3-0.6-0.4-0.9-0.4c-0.4,0-0.7,0.1-1,0.4c-0.3,0.3-0.4,0.6-0.4,0.9
	c0,0.4,0.1,0.7,0.4,1C39.7,37.7,40,37.8,40.4,37.8z M36.3,44.2c-2.1,0-3.9-0.8-5.4-2.3c-1.5-1.5-2.2-3.3-2.2-5.4
	c0-2.2,0.7-4,2.2-5.5c1.5-1.5,3.3-2.2,5.5-2.2c2.1,0,3.9,0.7,5.5,2.2c1.5,1.5,2.3,3.3,2.3,5.5c0,2.1-0.8,3.9-2.3,5.4
	C40.3,43.5,38.4,44.2,36.3,44.2z M15,17h18v-1.5H15V17z M24,40H10.8c-0.7,0-1.4-0.3-1.9-0.8S8,38,8,37.2V10.8c0-0.8,0.3-1.4,0.8-2
	C9.4,8.3,10,8,10.8,8h26.5c0.7,0,1.4,0.3,1.9,0.8c0.5,0.6,0.8,1.2,0.8,2v13.3c-0.6-0.2-1.2-0.3-1.8-0.4s-1.2-0.2-1.9-0.2
	s-1.4,0.1-2.1,0.2c-0.7,0.1-1.4,0.3-2,0.5v-0.9H15v1.5h15.5c-1.3,0.7-2.4,1.6-3.4,2.7s-1.8,2.3-2.4,3.6H15v1.5h9
	c-0.2,0.6-0.3,1.2-0.4,1.9c-0.1,0.6-0.1,1.3-0.1,1.9c0,0.5,0,1.2,0.1,1.9C23.7,38.9,23.8,39.5,24,40z"/>
</svg>
