<?xml version="1.0" encoding="utf-8"?>
<!-- Generator: Adobe Illustrator 26.3.1, SVG Export Plug-In . SVG Version: 6.00 Build 0)  -->
<svg version="1.1" id="Слой_1" xmlns="http://www.w3.org/2000/svg" xmlns:xlink="http://www.w3.org/1999/xlink" x="0px" y="0px"
	 viewBox="0 0 48 48" style="enable-background:new 0 0 48 48;" xml:space="preserve">
<path d="M32.2,34c1.2,0,2.2,0.4,3,1.2s1.2,1.8,1.2,3s-0.4,2.2-1.2,3s-1.8,1.2-3,1.2c-1,0-1.9-0.3-2.7-0.9c-0.8-0.6-1.3-1.4-1.4-2.5
	H12.7l-1.9,3c-0.1,0.2-0.3,0.3-0.5,0.4c-0.2,0-0.4,0-0.5-0.1c-0.2-0.1-0.3-0.3-0.4-0.5c-0.1-0.2,0-0.4,0.1-0.6L18.7,27
	c-2.2-0.7-4-1.8-5.4-3.4s-2.4-3.4-2.9-5.5h23.2c-0.5,2.1-1.5,4-2.9,5.5s-3.2,2.7-5.4,3.3l4.1,6.5c-0.2,0.2-0.5,0.3-0.7,0.5
	s-0.4,0.3-0.6,0.5l-4.5-7.2c-0.2,0.1-0.5,0.1-0.8,0.1h-1.9c-0.3,0-0.5,0-0.8-0.1l-6.7,10.2h14.4c0.1-1,0.6-1.9,1.4-2.5
	C30.2,34.3,31.1,34,32.2,34z M32.2,40.9c0.8,0,1.4-0.3,1.9-0.8s0.8-1.2,0.8-1.9c0-0.8-0.3-1.4-0.8-1.9s-1.2-0.8-1.9-0.8
	c-0.8,0-1.4,0.3-1.9,0.8s-0.8,1.2-0.8,1.9c0,0.8,0.3,1.4,0.8,1.9C30.8,40.7,31.4,40.9,32.2,40.9z M18,14.6c0.1-0.9,0.1-1.7-0.1-2.4
	s-0.6-1.4-1.3-2.3c-0.7-0.9-1.2-1.7-1.4-2.5s-0.2-1.6,0-2.6H16c-0.1,1-0.1,1.8,0.1,2.5s0.6,1.4,1.2,2.2c0.7,0.9,1.1,1.7,1.3,2.5
	c0.2,0.8,0.3,1.6,0.1,2.6H18z M22.4,14.6c0.1-1,0.1-1.9-0.1-2.5c-0.2-0.7-0.6-1.4-1.2-2.1c-0.7-0.9-1.1-1.7-1.3-2.5s-0.2-1.6,0-2.6
	h0.8c-0.1,0.9-0.1,1.6,0.1,2.3s0.6,1.5,1.2,2.3c0.7,0.9,1.1,1.7,1.3,2.5c0.2,0.8,0.2,1.6,0.1,2.6C23.2,14.6,22.4,14.6,22.4,14.6z
	 M26.9,14.6c0.1-1,0.1-1.9-0.1-2.5c-0.2-0.7-0.6-1.4-1.2-2.1c-0.7-0.9-1.2-1.7-1.4-2.5C24,6.8,24,5.9,24.2,5H25
	c-0.1,0.9-0.1,1.6,0.1,2.3s0.6,1.5,1.2,2.3c0.7,0.9,1.1,1.7,1.3,2.4c0.2,0.8,0.2,1.6,0.1,2.6C27.7,14.6,26.9,14.6,26.9,14.6z"/>
</svg>
