<?xml version="1.0" encoding="utf-8"?>
<!-- Generator: Adobe Illustrator 26.3.1, SVG Export Plug-In . SVG Version: 6.00 Build 0)  -->
<svg version="1.1" id="Слой_1" xmlns="http://www.w3.org/2000/svg" xmlns:xlink="http://www.w3.org/1999/xlink" x="0px" y="0px"
	 viewBox="0 0 48 48" style="enable-background:new 0 0 48 48;" xml:space="preserve">
<path d="M36.3,38.5l-1.1-1.1l4.3-4.4h-10v-1.5h10.1L35.3,27l1.1-1.1l6.3,6.3C42.6,32.2,36.3,38.5,36.3,38.5z M20.8,20.5L35.5,10
	c0-0.1,0-0.2-0.1-0.3c0-0.1-0.1-0.3-0.2-0.5C35.1,9,35.1,8.9,35,8.8c-0.1-0.1-0.1-0.2-0.2-0.2H35l-14.2,10L7,8.5h0.1
	c0,0.1-0.1,0.1-0.2,0.3c0,0.1-0.1,0.2-0.1,0.4C6.7,9.4,6.6,9.5,6.6,9.7S6.5,10,6.5,10.1L20.8,20.5z M7.8,33c-0.8,0-1.5-0.3-2-0.8
	C5.3,31.6,5,31,5,30.2V9.8c0-0.8,0.3-1.4,0.8-2C6.4,7.3,7,7,7.8,7h26.3c0.8,0,1.4,0.3,2,0.8C36.7,8.4,37,9,37,9.8v11.4
	c-0.2,0-0.4,0-0.7,0c-0.2,0-0.5,0-0.7,0c-2.9,0-5.4,1-7.4,3s-3,4.5-3,7.4c0,0.2,0,0.5,0,0.7s0,0.5,0,0.7C25.3,33,7.8,33,7.8,33z"/>
</svg>
