<?xml version="1.0" encoding="utf-8"?>
<!-- Generator: Adobe Illustrator 26.3.1, SVG Export Plug-In . SVG Version: 6.00 Build 0)  -->
<svg version="1.1" id="Слой_1" xmlns="http://www.w3.org/2000/svg" xmlns:xlink="http://www.w3.org/1999/xlink" x="0px" y="0px"
	 viewBox="0 0 48 48" style="enable-background:new 0 0 48 48;" xml:space="preserve">
<path d="M39,29.3l-1.1-1.1l3.4-3.4h-8.6v-1.5h8.6l-3.4-3.4l1.2-1.1l5.2,5.3L39,29.3z M5.7,10V8.5h20V10H5.7z M13.7,34h4v-5h5v-4h-5
	v-5h-4v5h-5v4h5C13.7,29,13.7,34,13.7,34z M6.5,40c-0.8,0-1.4-0.3-2-0.8c-0.5-0.5-0.8-1.2-0.8-2V16.8c0-0.8,0.3-1.4,0.8-2
	C5,14.3,5.7,14,6.5,14H25c0.8,0,1.4,0.3,2,0.8c0.5,0.5,0.8,1.2,0.8,2v20.5c0,0.8-0.3,1.4-0.8,2c-0.5,0.5-1.2,0.8-2,0.8L6.5,40
	L6.5,40z"/>
</svg>
