<?xml version="1.0" encoding="utf-8"?>
<!-- Generator: Adobe Illustrator 26.3.1, SVG Export Plug-In . SVG Version: 6.00 Build 0)  -->
<svg version="1.1" id="Слой_1" xmlns="http://www.w3.org/2000/svg" xmlns:xlink="http://www.w3.org/1999/xlink" x="0px" y="0px"
	 viewBox="0 0 48 48" style="enable-background:new 0 0 48 48;" xml:space="preserve">
<path d="M8,22.8v14.5c0,0.8,0.3,1.4,0.8,2c0.5,0.5,1.2,0.8,2,0.8h26.5c0.8,0,1.4-0.3,2-0.8c0.5-0.5,0.8-1.2,0.8-2V22.8h-8.2v9H16.2
	v-9H8z M17.8,30.2h12.5v-7.5H17.8V30.2z M8,21.2h32V10.8c0-0.8-0.3-1.4-0.8-2C38.7,8.3,38,8,37.2,8H10.8c-0.8,0-1.4,0.3-2,0.8
	C8.3,9.3,8,10,8,10.8V21.2z M15.9,16.2c-0.3,0-0.7-0.1-0.9-0.4c-0.3-0.3-0.4-0.6-0.4-0.9c0-0.3,0.1-0.7,0.4-0.9
	c0.3-0.3,0.6-0.4,0.9-0.4s0.7,0.1,0.9,0.4c0.3,0.3,0.4,0.6,0.4,0.9c0,0.4-0.1,0.7-0.4,0.9C16.6,16,16.3,16.2,15.9,16.2z M23.9,16.2
	c-0.4,0-0.7-0.1-0.9-0.4c-0.3-0.3-0.4-0.6-0.4-0.9c0-0.3,0.1-0.7,0.4-0.9c0.3-0.3,0.6-0.4,0.9-0.4c0.4,0,0.7,0.1,0.9,0.4
	c0.3,0.3,0.4,0.6,0.4,0.9c0,0.4-0.1,0.7-0.4,0.9C24.6,16,24.3,16.2,23.9,16.2z M31.9,16.2c-0.4,0-0.7-0.1-0.9-0.4
	c-0.3-0.3-0.4-0.6-0.4-0.9c0-0.3,0.1-0.7,0.4-0.9c0.3-0.3,0.6-0.4,0.9-0.4c0.4,0,0.7,0.1,0.9,0.4c0.3,0.3,0.4,0.6,0.4,0.9
	c0,0.4-0.1,0.7-0.4,0.9C32.6,16,32.3,16.2,31.9,16.2z"/>
</svg>
