<?xml version="1.0" encoding="utf-8"?>
<!-- Generator: Adobe Illustrator 26.3.1, SVG Export Plug-In . SVG Version: 6.00 Build 0)  -->
<svg version="1.1" id="Слой_1" xmlns="http://www.w3.org/2000/svg" xmlns:xlink="http://www.w3.org/1999/xlink" x="0px" y="0px"
	 viewBox="0 0 48 48" style="enable-background:new 0 0 48 48;" xml:space="preserve">
<path d="M24,29c3.3,0,6.2-1,8.7-3s3.8-4.6,3.8-7.7c0-1.4-0.3-2.6-0.8-3.8s-1.2-2.2-2.1-3.1c-2.4,0.1-4.5,1-6.2,2.7s-2.6,3.7-2.6,6.1
	h-1.5c0-2.4-0.9-4.5-2.6-6.1c-1.7-1.7-3.9-2.5-6.3-2.6c-0.8,0.9-1.5,1.9-2,3.1c-0.5,1.1-0.7,2.4-0.7,3.7c0,3.2,1.3,5.7,3.8,7.7
	S20.7,29,24,29z M17.4,19.5c-0.4,0-0.6-0.1-0.9-0.4s-0.3-0.5-0.3-0.9c0-0.3,0.1-0.6,0.4-0.9c0.2-0.2,0.5-0.4,0.9-0.4
	c0.3,0,0.6,0.1,0.9,0.4c0.2,0.2,0.4,0.5,0.4,0.9s-0.1,0.6-0.4,0.9C18,19.4,17.7,19.5,17.4,19.5z M30.6,19.5c-0.4,0-0.6-0.1-0.9-0.4
	s-0.3-0.5-0.3-0.9c0-0.3,0.1-0.6,0.4-0.9c0.2-0.2,0.5-0.4,0.9-0.4c0.3,0,0.6,0.1,0.9,0.4c0.2,0.2,0.4,0.5,0.4,0.9s-0.1,0.6-0.4,0.9
	C31.2,19.4,31,19.5,30.6,19.5z M24,42c-3.9,0-7.2-1.4-9.9-4.1c-2.7-2.8-4.1-6.1-4.1-10v-9.6c0-3.6,1.4-6.5,4.2-8.8S20.2,6,24,6
	c3.6,0,6.8,1.1,9.7,3.4c2.9,2.2,4.3,5.2,4.3,8.9v22.2h-1.5c-2.3,0-4.3-0.8-6-2.5S28,34.4,28,32v-2c-0.2,0.1-0.5,0.1-0.8,0.2
	s-0.5,0.1-0.8,0.1V32c0,2.8,1,5.1,2.9,7.1c1.9,1.9,4.3,2.9,7.1,2.9H24z"/>
</svg>
