<?xml version="1.0" encoding="utf-8"?>
<!-- Generator: Adobe Illustrator 26.3.1, SVG Export Plug-In . SVG Version: 6.00 Build 0)  -->
<svg version="1.1" id="Слой_1" xmlns="http://www.w3.org/2000/svg" xmlns:xlink="http://www.w3.org/1999/xlink" x="0px" y="0px"
	 viewBox="0 0 48 48" style="enable-background:new 0 0 48 48;" xml:space="preserve">
<path d="M14,25.8c-1.7-0.3-3.1-1.1-4.3-2.3C8.6,22.2,8,20.7,8,18.9c0-1.9,0.7-3.6,2-4.9c1.4-1.3,3-2,5-2h1.8c0.4,0,0.7-0.1,0.9-0.3
	c0.2-0.2,0.3-0.5,0.3-0.9V4h12v6.8c0,0.4,0.1,0.7,0.3,0.9c0.2,0.2,0.5,0.3,0.9,0.3H33c1.9,0,3.6,0.7,5,2s2,3,2,4.9
	c0,1.8-0.6,3.3-1.7,4.5c-1.1,1.3-2.6,2-4.3,2.3h-5c0.2-0.2,0.4-0.5,0.5-0.7c0.1-0.3,0.2-0.6,0.4-0.9c0.2-0.6,0.6-1.2,1.2-1.6
	s1.2-0.6,1.9-0.6h1v-1.5h-1.1c-1,0-1.9,0.3-2.8,0.9c-0.8,0.6-1.4,1.4-1.7,2.4c-0.2,0.5-0.4,0.9-0.7,1.3c-0.3,0.4-0.7,0.6-1.2,0.8
	h-4.9c-0.4-0.2-0.8-0.5-1.1-0.8s-0.6-0.8-0.8-1.3c-0.3-1-0.9-1.8-1.7-2.4c-0.8-0.6-1.8-0.9-2.8-0.9H14V22h1.1c0.7,0,1.3,0.2,1.9,0.6
	s1,0.9,1.2,1.6c0.1,0.3,0.2,0.6,0.4,0.9c0.1,0.3,0.3,0.5,0.5,0.7C19.1,25.8,14,25.8,14,25.8z M15.6,42c-0.6,0-1.2-0.2-1.6-0.6
	c-0.4-0.4-0.7-0.9-0.8-1.4H8.8c-1.3,0-2.5-0.5-3.4-1.4S4,36.6,4,35.2v-6.8h1.5v6.8c0,0.9,0.3,1.7,0.9,2.3s1.4,0.9,2.3,0.9h4.5
	c0.1-0.6,0.3-1,0.8-1.4c0.4-0.4,1-0.6,1.6-0.6h3.6v-3.2c0-0.2,0.1-0.4,0.2-0.6c0.1-0.1,0.3-0.2,0.6-0.2c0.2,0,0.4,0.1,0.6,0.2
	c0.1,0.1,0.2,0.3,0.2,0.6v3.2h6.5v-3.2c0-0.2,0.1-0.4,0.2-0.6c0.1-0.1,0.3-0.2,0.6-0.2c0.2,0,0.4,0.1,0.6,0.2
	c0.1,0.1,0.2,0.3,0.2,0.6v3.2h3.6c0.6,0,1.1,0.2,1.6,0.6c0.4,0.4,0.7,0.9,0.8,1.4h4.5c0.9,0,1.7-0.3,2.3-0.9
	c0.6-0.6,0.9-1.4,0.9-2.3v-6.8H44v6.8c0,1.3-0.5,2.5-1.4,3.4S40.5,40,39.2,40h-4.5c-0.1,0.6-0.3,1-0.8,1.4c-0.4,0.4-1,0.6-1.6,0.6
	C32.4,42,15.6,42,15.6,42z"/>
</svg>
