<?xml version="1.0" encoding="utf-8"?>
<!-- Generator: Adobe Illustrator 26.3.1, SVG Export Plug-In . SVG Version: 6.00 Build 0)  -->
<svg version="1.1" id="Слой_1" xmlns="http://www.w3.org/2000/svg" xmlns:xlink="http://www.w3.org/1999/xlink" x="0px" y="0px"
	 viewBox="0 0 48 48" style="enable-background:new 0 0 48 48;" xml:space="preserve">
<path d="M24,42c-2.5,0-4.8-0.5-7-1.4s-4.1-2.2-5.7-3.9c-1.6-1.6-2.9-3.5-3.9-5.7S6,26.5,6,24s0.5-4.8,1.4-7s2.2-4.1,3.9-5.7
	c1.6-1.6,3.5-2.9,5.7-3.8c2.2-1,4.5-1.5,7-1.5s4.8,0.5,7,1.4s4.1,2.2,5.7,3.8c1.6,1.6,2.9,3.5,3.8,5.7c0.9,2.2,1.4,4.5,1.4,7
	c0,0.9-0.1,1.9-0.2,2.8c-0.1,0.9-0.4,1.8-0.6,2.7c-0.2-0.1-0.4-0.3-0.6-0.4s-0.5-0.2-0.7-0.4c0.2-0.7,0.4-1.5,0.5-2.3
	s0.2-1.6,0.2-2.4c0-4.6-1.6-8.5-4.8-11.7C32.5,9.1,28.6,7.5,24,7.5s-8.5,1.6-11.7,4.8S7.5,19.4,7.5,24s1.6,8.5,4.8,11.7
	s7.1,4.8,11.7,4.8c1.9,0,3.7-0.3,5.4-0.9c1.7-0.6,3.3-1.5,4.7-2.5c0.2,0.2,0.3,0.4,0.5,0.6c0.2,0.2,0.4,0.3,0.6,0.5
	c-1.6,1.2-3.3,2.2-5.2,2.9C28.1,41.7,26.1,42,24,42z M38.2,35c-0.3,0-0.6-0.1-0.9-0.4c-0.3-0.3-0.4-0.5-0.4-0.9s0.1-0.7,0.4-0.9
	s0.5-0.4,0.9-0.4c0.3,0,0.6,0.1,0.9,0.4c0.3,0.2,0.4,0.5,0.4,0.9c0,0.3-0.1,0.6-0.4,0.9S38.5,35,38.2,35z M31.7,32.8l-8.4-8.5V13.7
	h1.5v10l8,8C32.8,31.7,31.7,32.8,31.7,32.8z"/>
</svg>
