<?xml version="1.0" encoding="utf-8"?>
<!-- Generator: Adobe Illustrator 26.3.1, SVG Export Plug-In . SVG Version: 6.00 Build 0)  -->
<svg version="1.1" id="Слой_1" xmlns="http://www.w3.org/2000/svg" xmlns:xlink="http://www.w3.org/1999/xlink" x="0px" y="0px"
	 viewBox="0 0 48 48" style="enable-background:new 0 0 48 48;" xml:space="preserve">
<path d="M23.2,41.9V24.4L8,15.6v15.9c0,0.5,0.1,0.9,0.4,1.4s0.6,0.8,1,1L23.2,41.9z M24.8,41.9l13.8-8c0.4-0.2,0.8-0.6,1-1
	S40,32,40,31.5V15.6l-15.2,8.8V41.9z M32.2,18.3l6.9-3.9L25.4,6.5C25,6.3,24.5,6.1,24,6.1s-0.9,0.1-1.4,0.4l-5.4,3.2L32.2,18.3z
	 M24,23.1l6.6-3.9l-15.1-8.7l-6.6,3.8L24,23.1z"/>
</svg>
