<?xml version="1.0" encoding="utf-8"?>
<!-- Generator: Adobe Illustrator 26.3.1, SVG Export Plug-In . SVG Version: 6.00 Build 0)  -->
<svg version="1.1" id="Слой_1" xmlns="http://www.w3.org/2000/svg" xmlns:xlink="http://www.w3.org/1999/xlink" x="0px" y="0px"
	 viewBox="0 0 48 48" style="enable-background:new 0 0 48 48;" xml:space="preserve">
<path d="M15.9,17.1c0.3,0,0.7-0.1,0.9-0.4c0.3-0.3,0.4-0.6,0.4-0.9c0-0.3-0.1-0.7-0.4-0.9c-0.3-0.3-0.6-0.4-0.9-0.4
	c-0.3,0-0.7,0.1-0.9,0.4c-0.3,0.3-0.4,0.6-0.4,0.9s0.1,0.7,0.4,0.9C15.3,17,15.6,17.1,15.9,17.1z M24,17.1c0.3,0,0.7-0.1,0.9-0.4
	c0.3-0.3,0.4-0.6,0.4-0.9c0-0.3-0.1-0.7-0.4-0.9c-0.3-0.3-0.6-0.4-0.9-0.4s-0.7,0.1-0.9,0.4c-0.3,0.3-0.4,0.6-0.4,0.9
	s0.1,0.7,0.4,0.9C23.3,17,23.7,17.1,24,17.1z M32.1,17.1c0.3,0,0.7-0.1,0.9-0.4c0.3-0.3,0.4-0.6,0.4-0.9c0-0.3-0.1-0.7-0.4-0.9
	c-0.3-0.3-0.6-0.4-0.9-0.4c-0.3,0-0.7,0.1-0.9,0.4c-0.3,0.3-0.4,0.6-0.4,0.9s0.1,0.7,0.4,0.9C31.4,17,31.7,17.1,32.1,17.1z M10.8,40
	c-0.8,0-1.4-0.3-2-0.8C8.3,38.7,8,38,8,37.2V10.8c0-0.8,0.3-1.4,0.8-2C9.3,8.3,10,8,10.8,8h26.5c0.8,0,1.4,0.3,2,0.8
	c0.5,0.5,0.8,1.2,0.8,2v26.5c0,0.8-0.3,1.4-0.8,2c-0.5,0.5-1.2,0.8-2,0.8L10.8,40L10.8,40z"/>
</svg>
