<?xml version="1.0" encoding="utf-8"?>
<!-- Generator: Adobe Illustrator 26.3.1, SVG Export Plug-In . SVG Version: 6.00 Build 0)  -->
<svg version="1.1" id="Слой_1" xmlns="http://www.w3.org/2000/svg" xmlns:xlink="http://www.w3.org/1999/xlink" x="0px" y="0px"
	 viewBox="0 0 48 48" style="enable-background:new 0 0 48 48;" xml:space="preserve">
<path d="M35.1,38.3c-1.6,0-3-0.6-4.2-1.7c-1.1-1.1-1.7-2.5-1.7-4.2s0.6-3,1.7-4.2c1.1-1.1,2.5-1.7,4.2-1.7s3,0.6,4.2,1.7
	c1.1,1.1,1.7,2.5,1.7,4.2c0,1.6-0.6,3-1.7,4.2C38.2,37.8,36.8,38.3,35.1,38.3z M9.1,33.2v-1.5h15.4v1.5H9.1z M12.9,21.4
	c-1.6,0-3-0.6-4.2-1.7C7.6,18.6,7,17.2,7,15.5c0-1.6,0.6-3,1.7-4.2c1.1-1.1,2.5-1.7,4.2-1.7s3,0.6,4.2,1.7c1.1,1.1,1.7,2.5,1.7,4.2
	s-0.6,3-1.7,4.2C15.9,20.9,14.5,21.4,12.9,21.4z M23.5,16.3v-1.5h15.4v1.5H23.5z"/>
</svg>
