<?xml version="1.0" encoding="utf-8"?>
<!-- Generator: Adobe Illustrator 26.3.1, SVG Export Plug-In . SVG Version: 6.00 Build 0)  -->
<svg version="1.1" id="Слой_1" xmlns="http://www.w3.org/2000/svg" xmlns:xlink="http://www.w3.org/1999/xlink" x="0px" y="0px"
	 viewBox="0 0 48 48" style="enable-background:new 0 0 48 48;" xml:space="preserve">
<path d="M23,28.2c-1.4,0-2.7-0.5-3.7-1.5s-1.5-2.2-1.5-3.7s0.5-2.7,1.5-3.7s2.3-1.5,3.7-1.5c1.5,0,2.7,0.5,3.7,1.5s1.5,2.2,1.5,3.7
	s-0.5,2.7-1.5,3.7S24.5,28.2,23,28.2z M8.8,38c-0.8,0-1.4-0.3-2-0.8C6.3,36.7,6,36,6,35.2V12.8c0-0.8,0.3-1.4,0.8-2
	C7.3,10.3,8,10,8.8,10h30.5c0.8,0,1.4,0.3,2,0.8c0.5,0.5,0.8,1.2,0.8,2v22.5c0,0.7-0.2,1.3-0.6,1.8c-0.4,0.5-1,0.9-1.7,1L28.5,26.7
	c0.5-0.7,0.8-1.3,0.9-1.9c0.2-0.6,0.2-1.2,0.2-1.9c0-1.9-0.6-3.4-1.9-4.8c-1.3-1.3-2.9-2-4.7-2c-1.8,0-3.4,0.7-4.8,2
	c-1.3,1.3-2,2.9-2,4.8s0.7,3.5,2,4.8s2.9,2,4.8,2c0.9,0,1.7-0.1,2.4-0.4c0.7-0.3,1.4-0.7,2.1-1.3l10,10.1H8.8V38z"/>
</svg>
