<?xml version="1.0" encoding="utf-8"?>
<!-- Generator: Adobe Illustrator 26.3.1, SVG Export Plug-In . SVG Version: 6.00 Build 0)  -->
<svg version="1.1" id="Слой_1" xmlns="http://www.w3.org/2000/svg" xmlns:xlink="http://www.w3.org/1999/xlink" x="0px" y="0px"
	 viewBox="0 0 48 48" style="enable-background:new 0 0 48 48;" xml:space="preserve">
<path d="M8,9.5V8h32v1.5H8z M37.2,14.8c0.8,0,1.4,0.3,2,0.8c0.5,0.5,0.8,1.2,0.8,2v19.7c0,0.8-0.3,1.4-0.8,2c-0.5,0.5-1.2,0.8-2,0.8
	H10.8c-0.8,0-1.4-0.3-2-0.8C8.3,38.7,8,38,8,37.2V17.5c0-0.8,0.3-1.4,0.8-2c0.5-0.5,1.2-0.8,2-0.8C10.8,14.8,37.2,14.8,37.2,14.8z"
	/>
</svg>
