<?xml version="1.0" encoding="utf-8"?>
<!-- Generator: Adobe Illustrator 26.3.1, SVG Export Plug-In . SVG Version: 6.00 Build 0)  -->
<svg version="1.1" id="Слой_1" xmlns="http://www.w3.org/2000/svg" xmlns:xlink="http://www.w3.org/1999/xlink" x="0px" y="0px"
	 viewBox="0 0 48 48" style="enable-background:new 0 0 48 48;" xml:space="preserve">
<path d="M20.9,40c-0.7,0-1.4-0.2-2-0.5c-0.7-0.3-1.2-0.8-1.7-1.3L5.9,24.6l0.9-0.9c0.4-0.3,0.8-0.5,1.3-0.5s1,0.2,1.4,0.4l6.4,3.9
	V6.7c0-0.2,0.1-0.4,0.2-0.5C16.4,6,16.6,6,16.8,6c0.2,0,0.4,0,0.5,0.2c0.1,0.1,0.2,0.3,0.2,0.5v17h6V12.3c0-0.2,0.1-0.4,0.2-0.5
	s0.3-0.2,0.6-0.2c0.2,0,0.4,0.1,0.5,0.2c0.1,0.1,0.2,0.3,0.2,0.5v11.5h6v-8.6c0-0.2,0.1-0.4,0.2-0.5s0.3-0.2,0.6-0.2
	c0.2,0,0.4,0.1,0.5,0.2c0.1,0.1,0.2,0.3,0.2,0.5v8.6h5.9v-4.5c0-0.2,0.1-0.4,0.2-0.5c0.1-0.1,0.3-0.2,0.6-0.2c0.2,0,0.4,0.1,0.5,0.2
	s0.2,0.3,0.2,0.5v14c0,1.9-0.7,3.5-2,4.8s-2.9,2-4.8,2C33.2,40,20.9,40,20.9,40z"/>
</svg>
