<?xml version="1.0" encoding="utf-8"?>
<!-- Generator: Adobe Illustrator 26.3.1, SVG Export Plug-In . SVG Version: 6.00 Build 0)  -->
<svg version="1.1" id="Слой_1" xmlns="http://www.w3.org/2000/svg" xmlns:xlink="http://www.w3.org/1999/xlink" x="0px" y="0px"
	 viewBox="0 0 48 48" style="enable-background:new 0 0 48 48;" xml:space="preserve">
<path d="M12.1,42c-0.6,0-1-0.2-1.3-0.6c-0.3-0.4-0.3-0.9-0.2-1.4c0.2-0.7,0.4-1.5,0.7-2.5s0.5-2.2,0.8-3.6c0.3-1.4,0.5-2.9,0.7-4.5
	C13,27.8,13,26,13,24s-0.1-3.8-0.3-5.5S12.3,15.3,12,14c-0.3-1.4-0.5-2.5-0.8-3.6c-0.3-1-0.5-1.9-0.7-2.5c-0.1-0.5-0.1-1,0.2-1.3
	C11.1,6.2,11.5,6,12.1,6h23.8c0.6,0,1,0.2,1.3,0.6C37.4,7,37.5,7.4,37.3,8c-0.2,0.7-0.4,1.5-0.7,2.5s-0.5,2.2-0.8,3.6
	c-0.2,1.4-0.4,2.9-0.6,4.5C35.1,20.2,35,22.1,35,24c0,2,0.1,3.8,0.3,5.4s0.4,3.1,0.6,4.5c0.2,1.4,0.5,2.5,0.8,3.6
	c0.3,1,0.5,1.9,0.7,2.5c0.1,0.5,0.1,1-0.2,1.4S36.5,42,35.9,42C35.9,42,12.1,42,12.1,42z"/>
</svg>
