<?xml version="1.0" encoding="utf-8"?>
<!-- Generator: Adobe Illustrator 26.3.1, SVG Export Plug-In . SVG Version: 6.00 Build 0)  -->
<svg version="1.1" id="Слой_1" xmlns="http://www.w3.org/2000/svg" xmlns:xlink="http://www.w3.org/1999/xlink" x="0px" y="0px"
	 viewBox="0 0 48 48" style="enable-background:new 0 0 48 48;" xml:space="preserve">
<path d="M7.9,37.4c-0.5,0.1-1,0.1-1.3-0.2C6.2,36.9,6,36.5,6,35.9V12.2c0-0.6,0.2-1,0.6-1.3s0.8-0.3,1.3-0.2
	c0.7,0.2,1.5,0.4,2.5,0.7s2.2,0.5,3.6,0.8c1.4,0.2,2.9,0.4,4.5,0.6C20.2,12.9,22,13,24,13s3.8-0.1,5.4-0.3s3.1-0.4,4.5-0.6
	c1.4-0.2,2.5-0.5,3.6-0.8c1-0.3,1.9-0.5,2.5-0.7c0.5-0.1,1-0.1,1.4,0.2s0.6,0.7,0.6,1.3v23.8c0,0.6-0.2,1-0.6,1.3
	c-0.4,0.3-0.9,0.3-1.4,0.2c-0.7-0.2-1.5-0.4-2.5-0.7s-2.2-0.5-3.6-0.8c-1.4-0.3-2.9-0.5-4.5-0.7C27.8,35.1,26,35,24,35
	s-3.8,0.1-5.5,0.3S15.3,35.7,14,36c-1.4,0.3-2.5,0.5-3.6,0.8C9.4,37,8.6,37.2,7.9,37.4z"/>
</svg>
