<?xml version="1.0" encoding="utf-8"?>
<!-- Generator: Adobe Illustrator 26.3.1, SVG Export Plug-In . SVG Version: 6.00 Build 0)  -->
<svg version="1.1" id="Слой_1" xmlns="http://www.w3.org/2000/svg" xmlns:xlink="http://www.w3.org/1999/xlink" x="0px" y="0px"
	 viewBox="0 0 48 48" style="enable-background:new 0 0 48 48;" xml:space="preserve">
<path d="M24,40.7c-3.2,0-6.1-0.8-8.7-2.5s-4.7-3.9-6.2-6.7C8.3,31.3,7.7,31,7,30.7c-0.6-0.3-1.3-0.6-2-0.9c-0.3-0.2-0.6-0.4-0.8-0.7
	c-0.2-0.3-0.3-0.6-0.3-1v-8.4c0-0.4,0.1-0.7,0.3-1S4.6,18.2,5,18c0.7-0.3,1.3-0.6,2-0.9c0.6-0.3,1.3-0.5,2.1-0.8
	c1.5-2.8,3.6-5,6.2-6.7s5.5-2.5,8.7-2.5s6.1,0.8,8.7,2.5c2.6,1.6,4.7,3.9,6.2,6.7c0.8,0.2,1.4,0.5,2.1,0.8c0.6,0.3,1.3,0.6,2,0.9
	c0.4,0.2,0.6,0.4,0.8,0.7c0.2,0.3,0.3,0.7,0.3,1v8.4c0,0.4-0.1,0.7-0.3,1s-0.5,0.5-0.8,0.7c-0.7,0.3-1.3,0.6-2,0.9
	c-0.6,0.3-1.3,0.5-2.1,0.8c-1.5,2.8-3.6,5-6.2,6.7S27.1,40.7,24,40.7z M24,39.2c2.6,0,5-0.6,7.2-1.9c2.2-1.3,4-3,5.5-5.2
	c-1.9,0.6-4,1-6.2,1.4C28.3,33.8,26.1,34,24,34s-4.3-0.2-6.6-0.5c-2.2-0.3-4.3-0.8-6.2-1.4c1.6,2.2,3.4,4,5.6,5.2S21.4,39.2,24,39.2
	z M24,8.8c-2.6,0-4.9,0.6-7.1,1.9c-2.2,1.2-4.1,3-5.6,5.2c1.9-0.6,4-1,6.2-1.3s4.4-0.5,6.6-0.5s4.3,0.2,6.5,0.5s4.3,0.8,6.2,1.3
	c-1.5-2.2-3.3-3.9-5.5-5.2C29,9.5,26.6,8.8,24,8.8z"/>
</svg>
