<?xml version="1.0" encoding="utf-8"?>
<!-- Generator: Adobe Illustrator 26.3.1, SVG Export Plug-In . SVG Version: 6.00 Build 0)  -->
<svg version="1.1" id="Слой_1" xmlns="http://www.w3.org/2000/svg" xmlns:xlink="http://www.w3.org/1999/xlink" x="0px" y="0px"
	 viewBox="0 0 48 48" style="enable-background:new 0 0 48 48;" xml:space="preserve">
<path d="M24,33.2c-0.9,0-1.7-0.3-2.3-0.9c-0.6-0.6-0.9-1.4-0.9-2.3s0.3-1.7,0.9-2.3c0.6-0.6,1.4-0.9,2.3-0.9s1.7,0.3,2.3,0.9
	c0.6,0.6,0.9,1.4,0.9,2.3s-0.3,1.7-0.9,2.3C25.7,32.9,24.9,33.2,24,33.2z M19.2,47v-6.7c-2.7-0.8-4.6-2.2-5.9-4.2
	c-1.2-2-1.9-4.3-2.1-6.9h1.5c0.2,3.4,1.2,6,3.1,7.6c1.9,1.6,4.6,2.4,8.1,2.4s6.2-0.8,8.1-2.4c1.9-1.6,2.9-4.1,3.1-7.6h1.5
	c-0.1,2.6-0.8,4.9-2.1,6.9c-1.2,2-3.2,3.4-5.9,4.2V47H19.2z M10.8,25.5L6.2,15.1c-0.6,0.2-1.1,0.4-1.5,0.6C4.3,15.9,4,16,3.8,16
	s-0.4-0.1-0.5-0.2C3.1,15.7,3,15.5,3,15.2v-7c0-1.9,2-3.6,6-5.1s9-2.2,15-2.2s10.9,0.7,15,2.2c4,1.5,6,3.1,6,5.1v7
	c0,0.2-0.1,0.4-0.2,0.6c-0.2,0.1-0.3,0.2-0.5,0.2s-0.6-0.1-1-0.3s-0.9-0.4-1.5-0.6l-4.6,10.4h-2.1L32,12.3c-1.4-0.2-2.8-0.3-4.1-0.4
	c-1.3-0.1-2.6-0.1-3.9-0.1s-2.5,0-3.9,0.1c-1.3,0.1-2.7,0.2-4.1,0.4l-3.1,13.2H10.8z M11.8,24.2l2.5-11.6c-1.3,0.3-2.5,0.5-3.4,0.8
	c-0.9,0.3-2,0.7-3.2,1.2L11.8,24.2z M36.2,24.2l4.2-9.6c-1.2-0.5-2.3-0.9-3.3-1.1c-0.9-0.3-2.1-0.6-3.4-0.8L36.2,24.2z"/>
</svg>
