<?xml version="1.0" encoding="utf-8"?>
<!-- Generator: Adobe Illustrator 26.3.1, SVG Export Plug-In . SVG Version: 6.00 Build 0)  -->
<svg version="1.1" id="Слой_1" xmlns="http://www.w3.org/2000/svg" xmlns:xlink="http://www.w3.org/1999/xlink" x="0px" y="0px"
	 viewBox="0 0 48 48" style="enable-background:new 0 0 48 48;" xml:space="preserve">
<path d="M13.2,37.6c-1.8,0-3.3-0.6-4.5-1.9c-1.2-1.2-1.9-2.7-1.9-4.5c0-1.7,0.6-3.1,1.8-4.2c1.2-1.2,2.6-1.8,4.2-1.8
	c1.1,0,2.2,0.3,3.1,0.9c0.9,0.6,1.6,1.4,2.1,2.4l0.9,2.3h2.5c0.9,0,1.7,0.3,2.3,1c0.6,0.7,1,1.4,1,2.4c0,0.9-0.3,1.7-1,2.4
	s-1.5,1-2.4,1C21.4,37.6,13.2,37.6,13.2,37.6z M28.1,33.1c-0.3-1.7-1.1-3.1-2.4-4.2s-2.7-1.6-4.4-1.6c-0.5-1.5-1.4-2.8-2.7-3.8
	c-1.3-1-2.7-1.6-4.4-1.7c0.5-2.3,1.6-4.2,3.5-5.6c1.8-1.5,3.9-2.2,6.3-2.2c2.8,0,5.1,1,7.1,2.9S34,21.2,34,24c0,2-0.5,3.8-1.6,5.4
	C31.3,31,29.9,32.2,28.1,33.1z M23.2,10.6V4.1h1.5v6.5H23.2z M34,15.1L32.9,14l4.6-4.6l1.1,1.1L34,15.1z M37.4,24.8v-1.5h6.5v1.5
	H37.4z M37.5,38.6L32.9,34l1.1-1.2l4.6,4.6L37.5,38.6z M14,15.1l-4.7-4.7l1.1-1l4.7,4.6L14,15.1z"/>
</svg>
