<?xml version="1.0" encoding="utf-8"?>
<!-- Generator: Adobe Illustrator 26.3.1, SVG Export Plug-In . SVG Version: 6.00 Build 0)  -->
<svg version="1.1" id="Слой_1" xmlns="http://www.w3.org/2000/svg" xmlns:xlink="http://www.w3.org/1999/xlink" x="0px" y="0px"
	 viewBox="0 0 48 48" style="enable-background:new 0 0 48 48;" xml:space="preserve">
<path d="M12,29.3c1.3,0,2.6,0.4,3.7,1.1s1.9,1.7,2.5,2.9l0.8,2h2.1c1,0,1.8,0.4,2.5,1.1c0.7,0.7,1.1,1.6,1.1,2.6s-0.4,1.9-1.1,2.6
	c-0.7,0.7-1.6,1.1-2.6,1.1h-9c-1.8,0-3.4-0.7-4.7-2s-2-2.9-2-4.7c0-1.9,0.7-3.5,2-4.8C8.6,30,10.2,29.3,12,29.3z M20.2,8.7
	c-0.1,3.1,0.3,6.1,1.4,9s2.7,5.4,5,7.6c2.2,2.2,4.8,3.9,7.6,5c2.9,1.1,5.9,1.6,9,1.4c-1.2,3.7-3.4,6.6-6.5,8.9
	c-3.1,2.2-6.6,3.4-10.5,3.4H26c0.7-0.6,1.2-1.4,1.6-2.3c0.4-0.9,0.6-1.8,0.6-2.7c0-2-0.7-3.7-2-5.1c-1.3-1.4-3-2.1-4.9-2.1
	c-0.8-1.8-2.1-3.3-3.8-4.4s-3.5-1.7-5.6-1.7c-0.7,0-1.4,0.1-2,0.2c-0.7,0.1-1.3,0.4-2,0.7v-0.8c0-3.9,1.1-7.4,3.3-10.5
	C13.6,12.2,16.5,10,20.2,8.7z"/>
</svg>
