<?xml version="1.0" encoding="utf-8"?>
<!-- Generator: Adobe Illustrator 26.3.1, SVG Export Plug-In . SVG Version: 6.00 Build 0)  -->
<svg version="1.1" id="Слой_1" xmlns="http://www.w3.org/2000/svg" xmlns:xlink="http://www.w3.org/1999/xlink" x="0px" y="0px"
	 viewBox="0 0 48 48" style="enable-background:new 0 0 48 48;" xml:space="preserve">
<path d="M8.8,40c-0.8,0-1.4-0.3-2-0.8C6.3,38.7,6,38,6,37.2V14.9c0-0.8,0.3-1.4,0.8-2c0.5-0.5,1.2-0.8,2-0.8h6.4L18.8,8h10.3
	l3.7,4.2h6.4c0.8,0,1.4,0.3,2,0.8c0.5,0.5,0.8,1.2,0.8,2v22.3c0,0.8-0.3,1.4-0.8,2c-0.5,0.5-1.2,0.8-2,0.8L8.8,40L8.8,40z M24,33.3
	c2,0,3.8-0.7,5.1-2.1c1.4-1.4,2.1-3.1,2.1-5.2c0-0.2,0-0.3,0-0.5c0-0.1,0-0.3-0.1-0.5h-1.5c0,0.2,0,0.3,0.1,0.5c0,0.1,0,0.3,0,0.5
	c0,1.6-0.6,2.9-1.7,4.1c-1.1,1.1-2.5,1.7-4,1.7h-4.3c0.4,0.4,1,0.8,1.8,1.1C22.2,33.2,23.1,33.3,24,33.3z M16.8,27.1h1.4
	c0-0.2,0-0.3,0-0.5s0-0.4,0-0.5c0-1.5,0.6-2.9,1.7-4s2.5-1.6,4-1.6h4.4c-0.5-0.4-1.2-0.8-1.9-1.1c-0.7-0.3-1.5-0.4-2.5-0.4
	c-2,0-3.8,0.7-5.2,2c-1.4,1.4-2.1,3.1-2.1,5.1c0,0.2,0,0.3,0,0.5C16.8,26.7,16.8,26.9,16.8,27.1z"/>
</svg>
