<?xml version="1.0" encoding="utf-8"?>
<!-- Generator: Adobe Illustrator 26.3.1, SVG Export Plug-In . SVG Version: 6.00 Build 0)  -->
<svg version="1.1" id="Слой_1" xmlns="http://www.w3.org/2000/svg" xmlns:xlink="http://www.w3.org/1999/xlink" x="0px" y="0px"
	 viewBox="0 0 48 48" style="enable-background:new 0 0 48 48;" xml:space="preserve">
<path d="M5,37v-1.5h38V37H5z M5.9,24.8l-1.3-0.7l2.1-3.6H2.6v-1.4h4.1l-2.1-3.5l1.3-0.7l2,3.5l2-3.5l1.2,0.7l-2,3.5h4.1v1.4H9.1
	l2,3.6l-1.2,0.7l-2-3.5C7.9,21.2,5.9,24.8,5.9,24.8z M22,24.8L20.7,24l2.1-3.6h-4.1V19h4.1l-2.1-3.5l1.3-0.7l2,3.5l2-3.5l1.3,0.7
	L25.2,19h4.1v1.4h-4.1l2.1,3.6L26,24.8l-2-3.5C24,21.2,22,24.8,22,24.8z M38.1,24.8L36.8,24l2-3.6h-4.1V19h4.1l-2-3.5l1.2-0.7l2,3.5
	l2-3.5l1.3,0.7l-2,3.5h4.1v1.4h-4.1l2.1,3.6l-1.3,0.7l-2-3.5L38.1,24.8z"/>
</svg>
