<?xml version="1.0" encoding="utf-8"?>
<!-- Generator: Adobe Illustrator 26.3.1, SVG Export Plug-In . SVG Version: 6.00 Build 0)  -->
<svg version="1.1" id="Слой_1" xmlns="http://www.w3.org/2000/svg" xmlns:xlink="http://www.w3.org/1999/xlink" x="0px" y="0px"
	 viewBox="0 0 48 48" style="enable-background:new 0 0 48 48;" xml:space="preserve">
<path d="M8.2,37.2c-0.7,0-1.4-0.3-1.9-0.8s-0.8-1.2-0.8-1.9V16.4H7v18.1c0,0.3,0.1,0.6,0.4,0.8c0.3,0.3,0.5,0.4,0.8,0.4h28.5v1.5
	H8.2z M13.2,32.2c-0.7,0-1.4-0.3-1.9-0.8s-0.8-1.2-0.8-1.9V13.2c0-0.7,0.3-1.4,0.8-1.9c0.6-0.6,1.2-0.8,1.9-0.8h26.6
	c0.7,0,1.4,0.3,1.9,0.8c0.6,0.6,0.8,1.2,0.8,1.9v16.2c0,0.7-0.3,1.4-0.8,1.9c-0.6,0.6-1.2,0.8-1.9,0.8
	C39.8,32.2,13.2,32.2,13.2,32.2z M15.7,30.6c0-1-0.4-1.9-1.1-2.6c-0.7-0.7-1.6-1.1-2.6-1.1v2.5c0,0.3,0.1,0.6,0.4,0.9
	c0.2,0.2,0.5,0.4,0.9,0.4L15.7,30.6L15.7,30.6z M37.4,30.6h2.5c0.3,0,0.6-0.1,0.9-0.4s0.4-0.5,0.4-0.9v-2.5c-1,0-1.9,0.4-2.6,1.1
	C37.7,28.7,37.4,29.6,37.4,30.6z M26.5,25.3c1.1,0,2.1-0.4,2.8-1.2c0.8-0.8,1.2-1.7,1.2-2.8c0-1.1-0.4-2.1-1.2-2.8
	c-0.8-0.8-1.7-1.2-2.8-1.2s-2.1,0.4-2.8,1.2c-0.8,0.8-1.2,1.7-1.2,2.8c0,1.1,0.4,2.1,1.2,2.8C24.5,24.9,25.4,25.3,26.5,25.3z
	 M12,15.7c1,0,1.9-0.4,2.6-1.1c0.7-0.7,1.1-1.6,1.1-2.6h-2.5c-0.3,0-0.6,0.1-0.9,0.4c-0.2,0.2-0.4,0.5-0.4,0.9L12,15.7L12,15.7z
	 M41.1,15.7v-2.5c0-0.3-0.1-0.6-0.4-0.9c-0.2-0.2-0.5-0.4-0.9-0.4h-2.5c0,1,0.4,1.9,1.1,2.6C39.2,15.3,40.1,15.7,41.1,15.7z"/>
</svg>
