<?xml version="1.0" encoding="utf-8"?>
<!-- Generator: Adobe Illustrator 26.3.1, SVG Export Plug-In . SVG Version: 6.00 Build 0)  -->
<svg version="1.1" id="Слой_1" xmlns="http://www.w3.org/2000/svg" xmlns:xlink="http://www.w3.org/1999/xlink" x="0px" y="0px"
	 viewBox="0 0 48 48" style="enable-background:new 0 0 48 48;" xml:space="preserve">
<path d="M14.4,23.8v-3.7h2.8c0.2,0,0.3,0.1,0.4,0.2s0.2,0.3,0.2,0.4v2.5c0,0.2-0.1,0.3-0.2,0.4s-0.3,0.2-0.4,0.2
	C17.2,23.8,14.4,23.8,14.4,23.8z M12.8,29.4h1.5v-4H17c0.7,0,1.2-0.2,1.7-0.7s0.7-1,0.7-1.7v-2c0-0.7-0.2-1.2-0.7-1.7
	s-1-0.7-1.7-0.7h-4.2C12.8,18.6,12.8,29.4,12.8,29.4z M21.6,29.4h4.2c0.5,0,0.9-0.1,1.3-0.4c0.4-0.2,0.7-0.6,0.9-1l-1.4-1.4v1.2
	h-3.5v-4.6l-1.5-1.5C21.6,21.7,21.6,29.4,21.6,29.4z M10.8,40c-0.7,0-1.4-0.3-1.9-0.8C8.3,38.6,8,38,8,37.2V10.8
	c0-0.4,0.1-0.7,0.2-1c0.1-0.3,0.3-0.6,0.6-0.9l30.4,30.4c-0.2,0.3-0.5,0.5-0.8,0.6s-0.7,0.2-1,0.2L10.8,40L10.8,40z M39.4,41.7
	L6.6,8.9l1.1-1.1l32.8,32.8L39.4,41.7z M40,10.8v24.3l-7.9-7.9v-2h4.1v-1.5h-4.1v-3.5h4.1v-1.5h-5.6v7l-2.4-2.4V21
	c0-0.7-0.2-1.2-0.7-1.7s-1-0.7-1.7-0.7h-2.2L12.9,8h24.3c0.7,0,1.4,0.3,1.9,0.8C39.7,9.4,40,10,40,10.8z"/>
</svg>
