<?xml version="1.0" encoding="utf-8"?>
<!-- Generator: Adobe Illustrator 26.3.1, SVG Export Plug-In . SVG Version: 6.00 Build 0)  -->
<svg version="1.1" id="Слой_1" xmlns="http://www.w3.org/2000/svg" xmlns:xlink="http://www.w3.org/1999/xlink" x="0px" y="0px"
	 viewBox="0 0 48 48" style="enable-background:new 0 0 48 48;" xml:space="preserve">
<path d="M9.9,39c-2.5,0-4.6-0.9-6.3-2.6C1.9,34.7,1,32.6,1,30.1c0-2.4,0.9-4.5,2.6-6.3c1.7-1.8,3.8-2.6,6.3-2.6
	c2.2,0,4.1,0.8,5.9,2.3c1.7,1.5,2.7,3.5,2.9,5.8h4.1l-4.5-12.8H15V15h7.7v1.5h-2.8l1.7,4.6h12.5l-3.7-9.9c-0.1-0.2-0.2-0.4-0.4-0.5
	c-0.2-0.1-0.4-0.2-0.6-0.2h-4.2V9h4.1c0.6,0,1.1,0.2,1.6,0.5s0.8,0.8,1,1.3l3.8,10.4h2.4c2.5,0,4.6,0.9,6.3,2.6S47,27.6,47,30
	c0,2.5-0.9,4.6-2.6,6.3c-1.7,1.7-3.8,2.6-6.3,2.6c-2.3,0-4.3-0.8-6-2.3c-1.7-1.6-2.6-3.5-2.9-5.8H18.7c-0.2,2.3-1.2,4.3-2.9,5.8
	C14,38.2,12.1,39,9.9,39z M11.1,30.8h6.1v-1.5h-6.1V30.8z M24.5,29.3h4.8c0.1-0.9,0.5-2.1,1.1-3.4c0.6-1.4,1.5-2.4,2.7-3.2h-11
	C22.1,22.7,24.5,29.3,24.5,29.3z M36.9,29.1l1.4-0.5l-2.1-5.7l-1.5,0.5L36.9,29.1z"/>
</svg>
