<?xml version="1.0" encoding="utf-8"?>
<!-- Generator: Adobe Illustrator 26.3.1, SVG Export Plug-In . SVG Version: 6.00 Build 0)  -->
<svg version="1.1" id="Слой_1" xmlns="http://www.w3.org/2000/svg" xmlns:xlink="http://www.w3.org/1999/xlink" x="0px" y="0px"
	 viewBox="0 0 48 48" style="enable-background:new 0 0 48 48;" xml:space="preserve">
<path d="M13.7,25.8c0.5,0,0.9-0.2,1.3-0.5c0.3-0.3,0.5-0.8,0.5-1.3s-0.2-0.9-0.5-1.3c-0.3-0.3-0.8-0.5-1.3-0.5s-0.9,0.2-1.3,0.5
	c-0.3,0.3-0.5,0.8-0.5,1.3s0.2,0.9,0.5,1.3C12.8,25.6,13.2,25.8,13.7,25.8z M24,25.8c0.5,0,0.9-0.2,1.3-0.5c0.3-0.3,0.5-0.8,0.5-1.3
	s-0.2-0.9-0.5-1.3c-0.3-0.3-0.8-0.5-1.3-0.5s-0.9,0.2-1.3,0.5c-0.3,0.3-0.5,0.8-0.5,1.3s0.2,0.9,0.5,1.3
	C23.1,25.6,23.5,25.8,24,25.8z M34.3,25.8c0.5,0,0.9-0.2,1.3-0.5c0.3-0.3,0.5-0.8,0.5-1.3s-0.2-0.9-0.5-1.3
	c-0.3-0.3-0.8-0.5-1.3-0.5s-0.9,0.2-1.3,0.5c-0.3,0.3-0.5,0.8-0.5,1.3s0.2,0.9,0.5,1.3C33.4,25.6,33.8,25.8,34.3,25.8z M24,42
	c-2.5,0-4.8-0.5-7-1.4s-4.1-2.2-5.7-3.9c-1.6-1.6-2.9-3.5-3.9-5.7C6.5,28.8,6,26.5,6,24s0.5-4.8,1.4-7s2.2-4.1,3.9-5.7
	c1.6-1.6,3.5-2.9,5.7-3.8c2.2-1,4.5-1.5,7-1.5s4.8,0.5,7,1.4s4.1,2.2,5.7,3.8c1.6,1.6,2.9,3.5,3.8,5.7c0.9,2.2,1.4,4.5,1.4,7
	s-0.5,4.8-1.4,7s-2.2,4.1-3.8,5.7s-3.5,2.9-5.7,3.9S26.5,42,24,42z"/>
</svg>
