<?xml version="1.0" encoding="utf-8"?>
<!-- Generator: Adobe Illustrator 26.3.1, SVG Export Plug-In . SVG Version: 6.00 Build 0)  -->
<svg version="1.1" id="Слой_1" xmlns="http://www.w3.org/2000/svg" xmlns:xlink="http://www.w3.org/1999/xlink" x="0px" y="0px"
	 viewBox="0 0 48 48" style="enable-background:new 0 0 48 48;" xml:space="preserve">
<path d="M35,42c-2.2,0-4-0.7-5.5-2.2s-2.2-3.3-2.2-5.5s0.7-4,2.2-5.5s3.3-2.2,5.5-2.2s4,0.7,5.5,2.2s2.2,3.3,2.2,5.5s-0.7,4-2.2,5.5
	S37.2,42,35,42z M38.1,38.8l1.1-1.1l-3.6-3.6v-5.4h-1.5v6L38.1,38.8z M10.8,40c-0.7,0-1.4-0.3-1.9-0.8S8,38,8,37.2V10.8
	c0-0.8,0.3-1.4,0.8-2C9.3,8.3,10,8,10.8,8h10.1c0.1-0.8,0.4-1.4,1-2c0.6-0.5,1.3-0.8,2.1-0.8c0.8,0,1.5,0.3,2.1,0.8s0.9,1.2,1,2
	h10.1c0.8,0,1.4,0.3,2,0.8c0.5,0.5,0.8,1.2,0.8,2v13.4c-0.3-0.1-0.6-0.2-0.8-0.3c-0.2-0.1-0.5-0.2-0.8-0.3V10.8
	c0-0.3-0.1-0.6-0.4-0.8c-0.3-0.3-0.5-0.4-0.8-0.4h-4.3v3.8H15.1V9.5h-4.3c-0.3,0-0.6,0.1-0.8,0.4c-0.3,0.3-0.4,0.5-0.4,0.8v26.5
	c0,0.4,0.1,0.7,0.3,0.9s0.5,0.3,0.9,0.3h13.8c0.1,0.3,0.2,0.5,0.3,0.8c0.1,0.2,0.3,0.5,0.4,0.8H10.8z M24,10c0.5,0,0.8-0.2,1.2-0.5
	c0.3-0.3,0.5-0.7,0.5-1.2s-0.2-0.8-0.5-1.2c-0.3-0.3-0.7-0.5-1.2-0.5s-0.8,0.2-1.2,0.5c-0.3,0.3-0.5,0.7-0.5,1.2s0.2,0.8,0.5,1.2
	C23.2,9.8,23.5,10,24,10z"/>
</svg>
