<?xml version="1.0" encoding="utf-8"?>
<!-- Generator: Adobe Illustrator 26.3.1, SVG Export Plug-In . SVG Version: 6.00 Build 0)  -->
<svg version="1.1" id="Слой_1" xmlns="http://www.w3.org/2000/svg" xmlns:xlink="http://www.w3.org/1999/xlink" x="0px" y="0px"
	 viewBox="0 0 48 48" style="enable-background:new 0 0 48 48;" xml:space="preserve">
<path d="M15.4,20.8c-1.5,0-2.8-0.5-3.8-1.6c-1.1-1.1-1.6-2.3-1.6-3.8s0.5-2.8,1.6-3.8c1.1-1.1,2.3-1.6,3.8-1.6s2.8,0.5,3.8,1.6
	c1.1,1.1,1.6,2.3,1.6,3.8s-0.5,2.8-1.6,3.8C18.2,20.3,16.9,20.8,15.4,20.8z M15.4,19.3c1.1,0,2-0.4,2.8-1.1c0.7-0.7,1.1-1.7,1.1-2.8
	s-0.4-2-1.1-2.8c-0.7-0.7-1.7-1.1-2.8-1.1s-2,0.4-2.8,1.1c-0.7,0.7-1.1,1.7-1.1,2.8s0.4,2,1.1,2.8C13.4,18.9,14.3,19.3,15.4,19.3z
	 M32.6,38c-1.5,0-2.8-0.5-3.8-1.6c-1.1-1.1-1.6-2.3-1.6-3.8s0.5-2.8,1.6-3.8c1.1-1.1,2.3-1.6,3.8-1.6s2.8,0.5,3.8,1.6
	c1.1,1.1,1.6,2.3,1.6,3.8s-0.5,2.8-1.6,3.8C35.4,37.5,34.1,38,32.6,38z M32.6,36.5c1.1,0,2-0.4,2.8-1.1c0.7-0.7,1.1-1.7,1.1-2.8
	c0-1.1-0.4-2-1.1-2.8c-0.7-0.7-1.7-1.1-2.8-1.1c-1.1,0-2,0.4-2.8,1.1c-0.7,0.7-1.1,1.7-1.1,2.8s0.4,2,1.1,2.8
	C30.6,36.1,31.5,36.5,32.6,36.5z M11.4,37.6l-1.1-1.1l26.2-26.2l1.1,1.1C37.7,11.4,11.4,37.6,11.4,37.6z"/>
</svg>
