<?xml version="1.0" encoding="utf-8"?>
<!-- Generator: Adobe Illustrator 26.3.1, SVG Export Plug-In . SVG Version: 6.00 Build 0)  -->
<svg version="1.1" id="Слой_1" xmlns="http://www.w3.org/2000/svg" xmlns:xlink="http://www.w3.org/1999/xlink" x="0px" y="0px"
	 viewBox="0 0 48 48" style="enable-background:new 0 0 48 48;" xml:space="preserve">
<path d="M8.8,38c-0.8,0-1.4-0.3-2-0.8C6.3,36.7,6,36,6,35.2V12.8c0-0.8,0.3-1.4,0.8-2C7.3,10.3,8,10,8.8,10h30.5
	c0.8,0,1.4,0.3,2,0.8c0.5,0.5,0.8,1.2,0.8,2v22.5c0,0.8-0.3,1.4-0.8,2c-0.5,0.5-1.2,0.8-2,0.8L8.8,38L8.8,38z M27.3,32.3l9.1-9.1
	l-1-1.2l-8.1,8.1L20,22.8l-8.4,8.4l1.1,1.1L20,25L27.3,32.3z M27.9,22.8l1.1-2.5l2.6-1.2L29,17.9l-1.1-2.6l-1.2,2.6l-2.6,1.2
	l2.6,1.2C26.7,20.3,27.9,22.8,27.9,22.8z"/>
</svg>
