<?xml version="1.0" encoding="utf-8"?>
<!-- Generator: Adobe Illustrator 26.3.1, SVG Export Plug-In . SVG Version: 6.00 Build 0)  -->
<svg version="1.1" id="Слой_1" xmlns="http://www.w3.org/2000/svg" xmlns:xlink="http://www.w3.org/1999/xlink" x="0px" y="0px"
	 viewBox="0 0 48 48" style="enable-background:new 0 0 48 48;" xml:space="preserve">
<path d="M8,40V6.8c0-0.2,0.1-0.4,0.2-0.5C8.4,6.1,8.6,6,8.8,6s0.4,0.1,0.5,0.2s0.2,0.3,0.2,0.5V10h28.9V6.8c0-0.2,0.1-0.4,0.2-0.5
	C38.8,6.1,39,6,39.2,6s0.4,0.1,0.5,0.2C39.9,6.4,40,6.6,40,6.8V40h-1.5V19.1h-29V40H8z M23.2,40v-5.9h-5.7v-1.5h12.8v1.5h-5.6V40
	H23.2z"/>
</svg>
