<?xml version="1.0" encoding="utf-8"?>
<!-- Generator: Adobe Illustrator 26.3.1, SVG Export Plug-In . SVG Version: 6.00 Build 0)  -->
<svg version="1.1" id="Слой_1" xmlns="http://www.w3.org/2000/svg" xmlns:xlink="http://www.w3.org/1999/xlink" x="0px" y="0px"
	 viewBox="0 0 48 48" style="enable-background:new 0 0 48 48;" xml:space="preserve">
<path d="M37,40.6c1.3,0,2.5-0.5,3.4-1.4s1.4-2.1,1.4-3.4c0-1.4-0.5-2.5-1.4-3.4C39.5,31.5,38.3,31,37,31c-1.4,0-2.5,0.5-3.4,1.4
	s-1.4,2.1-1.4,3.4c0,1.3,0.5,2.5,1.4,3.4C34.5,40.2,35.6,40.6,37,40.6z M36.2,43.5V42c-0.9-0.2-1.7-0.5-2.3-0.8
	c-0.6-0.4-1.2-0.8-1.7-1.4l-1.3,0.7L30,39.2l1.2-0.9c-0.3-0.8-0.4-1.6-0.4-2.4c0-0.8,0.1-1.6,0.4-2.4L30,32.6l0.9-1.3l1.3,0.7
	c0.5-0.6,1-1.1,1.7-1.4c0.6-0.4,1.4-0.6,2.3-0.8l0.1-1.5h1.5l0.1,1.5c0.9,0.2,1.7,0.5,2.3,0.8s1.2,0.8,1.7,1.4l1.3-0.7l0.9,1.3
	l-1.2,0.9c0.3,0.8,0.4,1.6,0.4,2.4c0,0.8-0.1,1.6-0.4,2.4l1.2,0.9l-0.9,1.3l-1.3-0.7c-0.5,0.6-1,1.1-1.7,1.4
	c-0.6,0.4-1.4,0.6-2.3,0.8l-0.1,1.5H36.2z M6,42L42,6v18.9c-0.8-0.4-1.6-0.6-2.5-0.8c-0.8-0.2-1.7-0.3-2.6-0.3
	c-3.4,0-6.3,1.2-8.6,3.5c-2.4,2.3-3.5,5.2-3.5,8.6c0,1,0.2,2,0.5,3.2s0.7,2.1,1.3,3H6V42z"/>
</svg>
