<?xml version="1.0" encoding="utf-8"?>
<!-- Generator: Adobe Illustrator 26.3.1, SVG Export Plug-In . SVG Version: 6.00 Build 0)  -->
<svg version="1.1" id="Слой_1" xmlns="http://www.w3.org/2000/svg" xmlns:xlink="http://www.w3.org/1999/xlink" x="0px" y="0px"
	 viewBox="0 0 48 48" style="enable-background:new 0 0 48 48;" xml:space="preserve">
<path d="M24,22.8c-1.6,0-3-0.6-4.1-1.7s-1.7-2.5-1.7-4.1s0.6-3,1.7-4.1s2.5-1.7,4.1-1.7s3,0.6,4.1,1.7s1.7,2.5,1.7,4.1
	s-0.6,3-1.7,4.1C27,22.2,25.6,22.8,24,22.8z M30.8,37.2v-8.5c0.7,0.2,1.5,0.4,2.2,0.7c0.7,0.3,1.5,0.6,2.2,0.9
	c0.8,0.4,1.5,0.9,2,1.6s0.8,1.5,0.8,2.3v2.9L30.8,37.2L30.8,37.2z M18.7,32.5v-4.2c0.9-0.2,1.8-0.3,2.6-0.5c0.9-0.1,1.8-0.2,2.7-0.2
	s1.8,0,2.6,0.1c0.9,0.1,1.8,0.3,2.7,0.5v4.2C29.3,32.5,18.7,32.5,18.7,32.5z M10,37.2v-2.9c0-0.9,0.3-1.6,0.8-2.3s1.2-1.3,2-1.6
	c0.7-0.3,1.4-0.6,2.2-0.9c0.7-0.3,1.5-0.5,2.2-0.8v8.5H10z"/>
</svg>
