<?xml version="1.0" encoding="utf-8"?>
<!-- Generator: Adobe Illustrator 26.3.1, SVG Export Plug-In . SVG Version: 6.00 Build 0)  -->
<svg version="1.1" id="Слой_1" xmlns="http://www.w3.org/2000/svg" xmlns:xlink="http://www.w3.org/1999/xlink" x="0px" y="0px"
	 viewBox="0 0 48 48" style="enable-background:new 0 0 48 48;" xml:space="preserve">
<path d="M28.5,40v-4.4L39.1,25c0.2-0.2,0.4-0.3,0.6-0.4s0.4-0.1,0.6-0.1c0.2,0,0.5,0,0.7,0.1s0.4,0.2,0.6,0.4l1.9,1.9
	c0.2,0.2,0.3,0.4,0.4,0.6c0.1,0.2,0.1,0.4,0.1,0.6s0,0.4-0.1,0.6s-0.2,0.4-0.4,0.6L32.9,40H28.5z M10,37.2v-2.9
	c0-0.9,0.3-1.7,0.8-2.4c0.5-0.7,1.2-1.2,2-1.6c2-0.9,3.9-1.5,5.8-2s3.7-0.7,5.5-0.7c0.9,0,1.8,0.1,2.8,0.2c0.9,0.1,1.9,0.3,2.8,0.5
	l-5.4,5.3v3.5C24.2,37.2,10,37.2,10,37.2z M40.4,30l1.8-1.9l-1.8-1.9l-1.9,1.9L40.4,30z M24,22.8c-1.6,0-3-0.6-4.1-1.7
	s-1.7-2.5-1.7-4.1s0.6-3,1.7-4.1s2.5-1.7,4.1-1.7s3,0.6,4.1,1.7s1.7,2.5,1.7,4.1s-0.6,3-1.7,4.1C27,22.2,25.6,22.8,24,22.8z"/>
</svg>
