<?xml version="1.0" encoding="utf-8"?>
<!-- Generator: Adobe Illustrator 26.3.1, SVG Export Plug-In . SVG Version: 6.00 Build 0)  -->
<svg version="1.1" id="Слой_1" xmlns="http://www.w3.org/2000/svg" xmlns:xlink="http://www.w3.org/1999/xlink" x="0px" y="0px"
	 viewBox="0 0 48 48" style="enable-background:new 0 0 48 48;" xml:space="preserve">
<path d="M24,28.8c1.4,0,2.7-0.3,3.9-0.9c1.2-0.6,2.2-1.5,3-2.5c-1-0.7-2.1-1.2-3.3-1.5c-1.2-0.3-2.4-0.5-3.7-0.5
	c-1.3,0-2.5,0.2-3.7,0.5s-2.2,0.9-3.3,1.5c0.8,1.1,1.8,1.9,3,2.5S22.6,28.8,24,28.8z M24,18.8c0.8,0,1.4-0.3,2-0.8
	c0.5-0.5,0.8-1.2,0.8-2c0-0.8-0.3-1.4-0.8-2c-0.5-0.5-1.2-0.8-2-0.8s-1.4,0.3-2,0.8c-0.5,0.5-0.8,1.2-0.8,2c0,0.8,0.3,1.4,0.8,2
	C22.6,18.5,23.3,18.8,24,18.8z M24,42c-4.7-4.2-8.2-8-10.6-11.6s-3.6-6.9-3.6-9.8c0-4.2,1.4-7.7,4.1-10.5C16.7,7.4,20,6,24,6
	s7.3,1.4,10.1,4.1s4.1,6.2,4.1,10.5c0,2.9-1.2,6.2-3.6,9.8C32.2,34,28.7,37.9,24,42z"/>
</svg>
