<?xml version="1.0" encoding="utf-8"?>
<!-- Generator: Adobe Illustrator 26.3.1, SVG Export Plug-In . SVG Version: 6.00 Build 0)  -->
<svg version="1.1" id="Слой_1" xmlns="http://www.w3.org/2000/svg" xmlns:xlink="http://www.w3.org/1999/xlink" x="0px" y="0px"
	 viewBox="0 0 48 48" style="enable-background:new 0 0 48 48;" xml:space="preserve">
<path d="M34.8,24.3l-1.1-1.1l4.2-4.2l-4.2-4.2l1.1-1.1l4.2,4.2l4.2-4.2l1.1,1.1L40.1,19l4.1,4.2l-1.1,1.1L39,20.1L34.8,24.3z
	 M18,22.8c-1.7,0-3-0.5-4.1-1.6s-1.6-2.5-1.6-4.1c0-1.7,0.5-3.1,1.6-4.2s2.5-1.6,4.1-1.6c1.7,0,3,0.5,4.1,1.6s1.6,2.5,1.6,4.2
	s-0.5,3-1.6,4.1C21,22.2,19.7,22.8,18,22.8z M4,37.2v-2.9c0-0.8,0.2-1.6,0.7-2.3s1.2-1.3,2-1.7c2.1-0.9,4-1.6,5.8-2s3.6-0.6,5.4-0.6
	s3.6,0.2,5.4,0.6s3.8,1.1,5.8,2c0.9,0.4,1.5,1,2,1.7s0.7,1.5,0.7,2.3v2.9H4z"/>
</svg>
