<?xml version="1.0" encoding="utf-8"?>
<!-- Generator: Adobe Illustrator 26.3.1, SVG Export Plug-In . SVG Version: 6.00 Build 0)  -->
<svg version="1.1" id="Слой_1" xmlns="http://www.w3.org/2000/svg" xmlns:xlink="http://www.w3.org/1999/xlink" x="0px" y="0px"
	 viewBox="0 0 48 48" style="enable-background:new 0 0 48 48;" xml:space="preserve">
<path d="M24,7.7c1.1,0,2,0.4,2.8,1.2s1.2,1.7,1.2,2.8v0.7c2.3,0.8,4.2,2.3,5.7,4.3s2.3,4.4,2.3,7.1v7.9l-15.9-16v-3.9
	c0-1.1,0.4-2.1,1.1-2.9C22,8.1,22.9,7.7,24,7.7z M24,9.2c-0.7,0-1.3,0.2-1.7,0.8c-0.5,0.5-0.7,1.1-0.7,1.8V12
	c0.3-0.1,0.7-0.1,1.2-0.2c0.5,0,0.9-0.1,1.2-0.1c0.4,0,0.8,0,1.3,0.1c0.5,0,0.9,0.1,1.2,0.2v-0.2c0-0.7-0.2-1.3-0.7-1.8
	S24.7,9.2,24,9.2z M41.6,44.5l-7.8-7.9H36v2.6c0,0.8-0.3,1.4-0.8,2c-0.5,0.5-1.2,0.8-2,0.8H14.8c-0.8,0-1.4-0.3-2-0.8
	c-0.5-0.5-0.8-1.2-0.8-2V23.8c0-1.2,0.2-2.4,0.5-3.6s0.9-2.2,1.6-3.2L6.2,9l1.1-1.1l35.5,35.5L41.6,44.5z M22.2,25h-5.8v1.5h7.4
	L22.2,25z"/>
</svg>
