<?xml version="1.0" encoding="utf-8"?>
<!-- Generator: Adobe Illustrator 26.3.1, SVG Export Plug-In . SVG Version: 6.00 Build 0)  -->
<svg version="1.1" id="Слой_1" xmlns="http://www.w3.org/2000/svg" xmlns:xlink="http://www.w3.org/1999/xlink" x="0px" y="0px"
	 viewBox="0 0 48 48" style="enable-background:new 0 0 48 48;" xml:space="preserve">
<path d="M24,18.8c-1.6,0-3-0.6-4.1-1.7s-1.7-2.5-1.7-4.1s0.6-3,1.7-4.1c1.1-1,2.5-1.6,4.1-1.6s3,0.6,4.1,1.7s1.7,2.5,1.7,4.1
	s-0.6,3-1.7,4.1C27,18.3,25.6,18.8,24,18.8z M20.5,38.4c-0.6,0-1.2-0.2-1.7-0.7s-0.7-1-0.7-1.7c0-0.6,0.2-1.2,0.7-1.7s1-0.7,1.7-0.7
	H26l-2.3,4.7h-3.2V38.4z M10,39.9v-10c0-0.9,0.3-1.7,0.8-2.4c0.5-0.7,1.2-1.2,2-1.6c1.8-0.8,3.6-1.5,5.5-1.9s3.8-0.7,5.8-0.7
	c1.1,0,2.2,0.1,3.3,0.3c1.1,0.2,2.2,0.4,3.2,0.7l-3.8,7.9h-6.3c-1.1,0-2,0.4-2.8,1.1s-1.1,1.7-1.1,2.8s0.4,2,1.1,2.8
	c0.7,0.7,1.7,1.1,2.8,1.1C20.5,39.9,10,39.9,10,39.9z M32.2,39.9V24.7c0.5,0.2,1,0.4,1.5,0.5c0.5,0.2,1,0.4,1.5,0.6
	c0.8,0.4,1.5,0.9,2,1.6s0.8,1.5,0.8,2.4v7.3c0,0.8-0.3,1.4-0.8,1.9s-1.2,0.8-1.9,0.8C35.2,39.9,32.2,39.9,32.2,39.9z"/>
</svg>
