<?xml version="1.0" encoding="utf-8"?>
<!-- Generator: Adobe Illustrator 26.3.1, SVG Export Plug-In . SVG Version: 6.00 Build 0)  -->
<svg version="1.1" id="Слой_1" xmlns="http://www.w3.org/2000/svg" xmlns:xlink="http://www.w3.org/1999/xlink" x="0px" y="0px"
	 viewBox="0 0 48 48" style="enable-background:new 0 0 48 48;" xml:space="preserve">
<path d="M24,33.2c-2.4,0-4.6,0.4-6.7,1.2s-4,1.8-5.8,3.1v1.8c0,0.3,0.1,0.6,0.3,0.9c0.2,0.2,0.5,0.4,0.8,0.4h22.5
	c0.4,0,0.7-0.1,0.9-0.3s0.3-0.5,0.3-0.9v-1.8c-1.8-1.3-3.7-2.4-5.8-3.1C28.6,33.6,26.4,33.2,24,33.2z M12.8,42
	c-0.7,0-1.4-0.3-1.9-0.8c-0.6-0.6-0.9-1.2-0.9-2V8.8c0-0.8,0.3-1.4,0.8-2C11.3,6.3,12,6,12.8,6h22.5c0.8,0,1.4,0.3,2,0.8
	C37.7,7.3,38,8,38,8.8v30.5c0,0.7-0.3,1.4-0.8,1.9S36,42,35.2,42H12.8z M24,28.6c1.7,0,3.1-0.6,4.2-1.7c1.2-1.2,1.7-2.6,1.7-4.2
	c0-1.7-0.6-3.1-1.7-4.2c-1.2-1.2-2.6-1.7-4.2-1.7c-1.7,0-3.1,0.6-4.2,1.7c-1.2,1.2-1.7,2.6-1.7,4.2c0,1.7,0.6,3.1,1.7,4.2
	C21,28,22.4,28.6,24,28.6z"/>
</svg>
