<?xml version="1.0" encoding="utf-8"?>
<!-- Generator: Adobe Illustrator 26.3.1, SVG Export Plug-In . SVG Version: 6.00 Build 0)  -->
<svg version="1.1" id="Слой_1" xmlns="http://www.w3.org/2000/svg" xmlns:xlink="http://www.w3.org/1999/xlink" x="0px" y="0px"
	 viewBox="0 0 48 48" style="enable-background:new 0 0 48 48;" xml:space="preserve">
<path d="M40.2,42.4L35,37.2H10v-2.9c0-0.9,0.3-1.7,0.8-2.4c0.5-0.7,1.2-1.2,2-1.6c2-0.9,3.9-1.6,5.8-2s3.8-0.7,5.7-0.7h0.6
	c0.2,0,0.4,0,0.7,0L5.6,7.8l1.1-1.1l34.5,34.5C41.3,41.3,40.2,42.4,40.2,42.4z M36.1,30.8c0.2,0.1,0.4,0.3,0.6,0.5
	c0.2,0.2,0.2,0.5,0.2,0.8v0.2l-1.8-1.7c0.1,0,0.3,0.1,0.4,0.1C35.8,30.7,35.9,30.7,36.1,30.8z M27,22l-8-8c0.5-0.9,1.2-1.6,2.1-2.1
	s1.8-0.7,2.9-0.7c1.6,0,3,0.6,4.1,1.7s1.7,2.5,1.7,4.1c0,1-0.2,2-0.7,2.9S27.9,21.5,27,22z"/>
</svg>
