<?xml version="1.0" encoding="utf-8"?>
<!-- Generator: Adobe Illustrator 26.3.1, SVG Export Plug-In . SVG Version: 6.00 Build 0)  -->
<svg version="1.1" id="Слой_1" xmlns="http://www.w3.org/2000/svg" xmlns:xlink="http://www.w3.org/1999/xlink" x="0px" y="0px"
	 viewBox="0 0 48 48" style="enable-background:new 0 0 48 48;" xml:space="preserve">
<path d="M11.2,23.6L5.6,18l5.6-5.5l5.5,5.5C16.7,18.1,11.2,23.6,11.2,23.6z M19.9,42v-9.5c-2-0.2-4-0.4-6-0.6c-2-0.3-4-0.6-5.9-1.1
	l0.4-1.5c2.6,0.6,5.2,1,7.8,1.3s5.2,0.4,7.9,0.4s5.3-0.1,7.9-0.4s5.2-0.7,7.8-1.3l0.3,1.5c-2,0.4-3.9,0.8-5.9,1.1s-4,0.5-6,0.6V42
	H19.9z M24,14.3c-1.2,0-2.3-0.4-3.1-1.3c-0.8-0.9-1.3-1.9-1.3-3.1s0.4-2.3,1.3-3.1s1.9-1.3,3.1-1.3s2.3,0.4,3.1,1.3
	c0.8,0.9,1.3,1.9,1.3,3.1S28,12.2,27.1,13C26.2,13.9,25.2,14.3,24,14.3z M24,27.3c-0.9,0-1.7-0.3-2.3-0.9c-0.6-0.6-0.9-1.4-0.9-2.3
	s0.3-1.7,0.9-2.3c0.6-0.6,1.4-0.9,2.3-0.9s1.7,0.3,2.3,0.9c0.6,0.6,0.9,1.4,0.9,2.3s-0.3,1.7-0.9,2.3C25.7,26.9,24.9,27.3,24,27.3z
	 M34.4,23.5l-2.5-4.4l2.5-4.4h4.9l2.5,4.4l-2.5,4.4C39.2,23.5,34.4,23.5,34.4,23.5z"/>
</svg>
