<?xml version="1.0" encoding="utf-8"?>
<!-- Generator: Adobe Illustrator 26.3.1, SVG Export Plug-In . SVG Version: 6.00 Build 0)  -->
<svg version="1.1" id="Слой_1" xmlns="http://www.w3.org/2000/svg" xmlns:xlink="http://www.w3.org/1999/xlink" x="0px" y="0px"
	 viewBox="0 0 48 48" style="enable-background:new 0 0 48 48;" xml:space="preserve">
<path d="M20.8,12.1c0.4-0.1,0.8-0.1,1.2-0.2c0.4,0,0.8-0.1,1.2-0.1c0.4,0,0.8,0,1.2,0.1c0.4,0,0.8,0.1,1.2,0.2v-0.3
	c0-0.7-0.2-1.3-0.7-1.8s-1-0.8-1.7-0.8s-1.3,0.3-1.7,0.8c-0.5,0.5-0.7,1.1-0.7,1.8V12.1z M34,43.4c-2.2,0-4.1-0.8-5.6-2.3
	s-2.3-3.4-2.3-5.6c0-2.2,0.8-4,2.3-5.6c1.5-1.5,3.4-2.3,5.6-2.3s4,0.8,5.6,2.3s2.3,3.4,2.3,5.6s-0.8,4.1-2.3,5.6
	C38.1,42.6,36.2,43.4,34,43.4z M33.3,37.6h1.6v-0.4c0-0.4,0.1-0.8,0.3-1c0.2-0.3,0.5-0.5,0.7-0.8c0.5-0.4,0.8-0.8,1.1-1.3
	c0.3-0.4,0.4-1,0.4-1.6c0-1-0.3-1.8-1-2.4c-0.6-0.6-1.5-0.9-2.5-0.9c-0.8,0-1.5,0.2-2.1,0.7c-0.7,0.5-1.1,1.1-1.4,1.8l1.5,0.6
	c0.1-0.4,0.4-0.8,0.7-1.1c0.4-0.3,0.8-0.5,1.3-0.5c0.6,0,1,0.1,1.4,0.4c0.3,0.3,0.5,0.7,0.5,1.3c0,0.4-0.1,0.7-0.4,1
	c-0.3,0.3-0.5,0.6-0.8,0.8c-0.2,0.2-0.4,0.4-0.6,0.7c-0.2,0.2-0.4,0.5-0.6,0.7c-0.1,0.2-0.2,0.3-0.2,0.6c0,0.2-0.1,0.5-0.1,0.7
	C33.3,37,33.3,37.6,33.3,37.6z M34.1,41.3c0.3,0,0.6-0.1,0.8-0.3s0.3-0.5,0.3-0.8s-0.1-0.6-0.3-0.8s-0.5-0.3-0.8-0.3
	s-0.6,0.1-0.8,0.3S33,39.9,33,40.2s0.1,0.6,0.3,0.8S33.8,41.3,34.1,41.3z M14,42.1c-0.8,0-1.4-0.3-2-0.8c-0.5-0.5-0.8-1.2-0.8-2
	V23.9c0-2.6,0.8-5,2.3-7s3.4-3.5,5.8-4.3v-0.7c0-1.1,0.4-2,1.2-2.8c0.8-0.8,1.7-1.2,2.8-1.2c1.1,0,2,0.4,2.8,1.2s1.2,1.8,1.2,2.8
	v0.7c2.2,0.8,4.1,2.2,5.6,4.1c1.5,1.9,2.3,4.1,2.4,6.7c-0.2,0-0.5,0-0.8,0s-0.5,0-0.8-0.1c-1.1,0.1-2.1,0.2-3,0.4
	c-0.9,0.2-1.9,0.7-3,1.4H15.6v1.5h9.8c-1,1-1.9,2.2-2.6,3.7s-1.1,3.2-1.1,5c0,0.9,0.1,1.7,0.2,2.6c0.2,0.9,0.4,1.7,0.8,2.6
	c0.1,0.3,0.2,0.5,0.3,0.8c0.2,0.3,0.3,0.5,0.6,0.7C23.8,42.1,14,42.1,14,42.1z"/>
</svg>
