<?xml version="1.0" encoding="utf-8"?>
<!-- Generator: Adobe Illustrator 26.3.1, SVG Export Plug-In . SVG Version: 6.00 Build 0)  -->
<svg version="1.1" id="Слой_1" xmlns="http://www.w3.org/2000/svg" xmlns:xlink="http://www.w3.org/1999/xlink" x="0px" y="0px"
	 viewBox="0 0 48 48" style="enable-background:new 0 0 48 48;" xml:space="preserve">
<path d="M20,26.8c-1.1,0-2.1-0.4-2.8-1.2c-0.8-0.8-1.2-1.7-1.2-2.8c0-0.9,0.2-1.6,0.6-2s0.7-1,0.8-1.7c0-0.4-0.1-0.8-0.2-1.1
	c-0.1-0.4-0.2-0.7-0.2-1.1c0-0.9,0.2-1.6,0.7-2.3s1.2-1.2,2.2-1.6c0.5-0.5,1.1-1,1.7-1.4S23,11,24,11c1.1,0,1.9,0.2,2.5,0.7
	s1.1,0.9,1.6,1.4c1,0.4,1.7,1,2.2,1.6c0.5,0.7,0.7,1.4,0.7,2.3c0,0.4-0.1,0.8-0.2,1.1c-0.1,0.4-0.2,0.7-0.2,1.1
	c0.1,0.7,0.4,1.3,0.8,1.7c0.4,0.4,0.6,1.1,0.6,2c0,1.1-0.4,2-1.2,2.8c-0.8,0.8-1.7,1.2-2.8,1.2L20,26.8L20,26.8z M10,41.2v-2.9
	c0-0.9,0.3-1.7,0.8-2.4s1.2-1.2,2-1.6c2-0.9,3.9-1.5,5.8-2c1.9-0.4,3.7-0.7,5.5-0.7s3.6,0.2,5.5,0.7s3.8,1.1,5.7,2
	c0.8,0.4,1.5,0.9,2,1.6c0.5,0.7,0.8,1.5,0.8,2.4v2.9H10z"/>
</svg>
