<?xml version="1.0" encoding="utf-8"?>
<!-- Generator: Adobe Illustrator 26.3.1, SVG Export Plug-In . SVG Version: 6.00 Build 0)  -->
<svg version="1.1" id="Слой_1" xmlns="http://www.w3.org/2000/svg" xmlns:xlink="http://www.w3.org/1999/xlink" x="0px" y="0px"
	 viewBox="0 0 48 48" style="enable-background:new 0 0 48 48;" xml:space="preserve">
<path d="M24,43.2L18.8,38h-8.1c-0.8,0-1.4-0.3-2-0.8C8.3,36.6,8,36,8,35.2V8.8c0-0.8,0.3-1.4,0.8-2C9.3,6.3,10,6,10.8,6h26.5
	c0.8,0,1.4,0.3,2,0.8C39.7,7.3,40,8,40,8.8v26.5c0,0.8-0.3,1.4-0.8,2c-0.5,0.5-1.2,0.8-2,0.8h-8.1L24,43.2z M24.1,25
	c1.7,0,3.1-0.6,4.2-1.7c1.2-1.1,1.7-2.5,1.7-4.2s-0.6-3.1-1.7-4.2c-1.2-1.1-2.6-1.7-4.2-1.7c-1.7,0-3.1,0.6-4.2,1.7
	c-1.2,1.1-1.7,2.6-1.7,4.2c0,1.7,0.6,3.1,1.7,4.2C21,24.4,22.4,25,24.1,25z M10.4,36.5h27.2c0.3-0.3,0.5-0.5,0.6-0.6
	s0.2-0.3,0.3-0.7c-1.9-1.8-4.1-3.2-6.5-4.3c-2.4-1.1-5.1-1.6-8-1.6s-5.5,0.5-7.9,1.6c-2.4,1.1-4.6,2.5-6.5,4.3
	c0.1,0.4,0.2,0.6,0.3,0.7C9.9,35.9,10.1,36.1,10.4,36.5z"/>
</svg>
