<?xml version="1.0" encoding="utf-8"?>
<!-- Generator: Adobe Illustrator 26.3.1, SVG Export Plug-In . SVG Version: 6.00 Build 0)  -->
<svg version="1.1" id="Слой_1" xmlns="http://www.w3.org/2000/svg" xmlns:xlink="http://www.w3.org/1999/xlink" x="0px" y="0px"
	 viewBox="0 0 48 48" style="enable-background:new 0 0 48 48;" xml:space="preserve">
<path d="M6,42.5V41h36v1.5H6z M10,38v-8.7c-1.2-2.9-2.1-5.3-2.7-7.4c-0.5-2.1-0.8-4-0.8-5.8c0-1.5,0.2-3.2,0.6-4.9
	c0.4-1.8,1-3.8,1.9-6c0.2-0.3,0.4-0.6,0.6-0.8C9.9,4.1,10.2,4,10.5,4c0.4,0,0.7,0.2,0.8,0.5c0.2,0.3,0.3,0.7,0.3,1.3l-0.2,5.1
	c-0.1,1.7,0.1,3.4,0.8,5s1.6,3.1,2.8,4.3c1.2,1.3,2.6,2.3,4.2,3.1c1.6,0.8,3.2,1.2,4.9,1.2c2.4,0,4.5,0.1,6.1,0.4
	c1.7,0.3,3.1,0.7,4.2,1.3c1.2,0.6,2.1,1.4,2.7,2.4c0.6,1,0.9,2.1,0.9,3.5V38H18.8v-0.8c0-1.4,0.5-2.5,1.5-3.5s2.2-1.5,3.5-1.5h6.5
	v-1.5h-6.5c-1.8,0-3.3,0.6-4.6,1.9c-1.3,1.3-1.9,2.8-1.9,4.6V38H10z M24,21.1c-1.7,0-3.1-0.6-4.2-1.8c-1.2-1.2-1.8-2.6-1.8-4.2
	c0-1.7,0.6-3.1,1.8-4.2C21,9.7,22.4,9.1,24,9.1c1.7,0,3.1,0.6,4.2,1.8c1.2,1.2,1.8,2.6,1.8,4.2c0,1.7-0.6,3.1-1.8,4.2
	C27.1,20.5,25.7,21.1,24,21.1z"/>
</svg>
