<?xml version="1.0" encoding="utf-8"?>
<!-- Generator: Adobe Illustrator 26.3.1, SVG Export Plug-In . SVG Version: 6.00 Build 0)  -->
<svg version="1.1" id="Слой_1" xmlns="http://www.w3.org/2000/svg" xmlns:xlink="http://www.w3.org/1999/xlink" x="0px" y="0px"
	 viewBox="0 0 48 48" style="enable-background:new 0 0 48 48;" xml:space="preserve">
<path d="M24.2,40.3c-2.8,0-5.1-0.9-7.1-2.8c-1.9-1.9-3-4.2-3.2-7c-2.1-0.4-3.8-1.5-5.1-3.1c-1.4-1.6-2-3.5-2-5.6
	c0-2.4,0.8-4.4,2.5-6.1s3.7-2.5,6.1-2.5H21c0.7,0,1.2-0.2,1.6-0.7s0.7-1,0.7-1.7c0-0.6-0.2-1.2-0.7-1.6c-0.5-0.5-1-0.7-1.6-0.7h-3
	c-0.3,0-0.5-0.1-0.6-0.2C17.1,8.2,17,8,17,7.8s0.1-0.4,0.3-0.6C17.4,7.1,17.6,7,17.9,7h3c1.1,0,2,0.4,2.7,1.1
	c0.8,0.8,1.1,1.7,1.1,2.8s-0.4,2-1.1,2.8s-1.7,1.1-2.7,1.1h-5.6c-2,0-3.6,0.7-5,2c-1.4,1.4-2.1,3-2.1,5c0,1.7,0.5,3.2,1.6,4.5
	s2.4,2.2,4.1,2.7c0.3-2.6,1.4-4.8,3.2-6.6c1.9-1.8,4.1-2.6,6.7-2.6c0.6,0,1.3,0,1.9,0.1s1.2,0.3,1.8,0.5c-1.3,0.7-2.3,1.6-3.1,2.8
	c-0.8,1.2-1.2,2.5-1.2,3.9c0,0.9,0.1,1.8,0.4,2.6c0.3,0.8,0.7,1.6,1.3,2.2l0.6-0.4c-0.5-0.6-0.9-1.3-1.1-2C24.2,28.6,24,27.8,24,27
	c0-1.8,0.7-3.4,2-4.7c1.3-1.3,2.9-1.9,4.8-1.9c1.9,0,3.4,0.6,4.7,1.9s1.9,2.8,2,4.7c0,0.7-0.1,1.3-0.2,1.9s-0.4,1.2-0.8,1.8l4.2,4.1
	c0.4,0.4,0.8,0.8,1.1,1.2c0.3,0.5,0.4,1,0.4,1.5c0,0.8-0.3,1.4-1,1.9s-1.4,0.7-2.3,0.7C38.8,40.3,24.2,40.3,24.2,40.3z M34,35.8
	c0.4,0,0.7-0.1,0.9-0.4c0.3-0.3,0.4-0.6,0.4-0.9c0-0.4-0.1-0.7-0.4-0.9c-0.3-0.3-0.6-0.4-0.9-0.4c-0.4,0-0.7,0.1-0.9,0.4
	c-0.3,0.3-0.4,0.6-0.4,0.9c0,0.4,0.1,0.7,0.4,0.9C33.3,35.6,33.6,35.8,34,35.8z"/>
</svg>
