<?xml version="1.0" encoding="utf-8"?>
<!-- Generator: Adobe Illustrator 26.3.1, SVG Export Plug-In . SVG Version: 6.00 Build 0)  -->
<svg version="1.1" id="Слой_1" xmlns="http://www.w3.org/2000/svg" xmlns:xlink="http://www.w3.org/1999/xlink" x="0px" y="0px"
	 viewBox="0 0 48 48" style="enable-background:new 0 0 48 48;" xml:space="preserve">
<path d="M18.7,42c-1.3,0-2.4-0.4-3.3-1.3c-0.9-0.9-1.3-2-1.3-3.4c0-0.6,0-1.1-0.1-1.7c-0.1-0.6-0.2-0.9-0.4-1.1
	c-0.2-0.2-0.6-0.4-1.1-0.5c-0.6-0.1-1.1-0.2-1.7-0.2c-1.4,0-2.5-0.4-3.4-1.3c-0.9-0.9-1.3-2-1.3-3.3c0-1.4,0.4-2.5,1.3-3.4
	s2-1.3,3.4-1.3c0.7,0,1.4,0.1,1.9,0.4c0.6,0.2,1,0.5,1.3,0.8c0.4,0.3,0.8,0.4,1.3,0.4s0.9-0.2,1.2-0.5l9.1-9.1
	c0.3-0.3,0.5-0.7,0.6-1.2s-0.1-1-0.3-1.4c-0.2-0.3-0.5-0.7-0.7-1.3c-0.3-0.6-0.4-1.2-0.4-1.9c0-1.4,0.4-2.5,1.3-3.4s2-1.3,3.4-1.3
	c1.3,0,2.4,0.4,3.3,1.3s1.3,2,1.3,3.4c0,0.6,0,1.1,0.1,1.7c0.1,0.6,0.2,0.9,0.4,1.1c0.2,0.2,0.6,0.4,1.1,0.4
	c0.6,0.1,1.1,0.1,1.7,0.1c1.4,0,2.5,0.4,3.4,1.3c0.9,0.9,1.3,2,1.3,3.3c0,1.4-0.4,2.5-1.3,3.4c-0.9,0.9-2,1.3-3.4,1.3
	c-0.7,0-1.4-0.1-1.9-0.4c-0.6-0.3-1-0.5-1.3-0.7c-0.4-0.3-0.8-0.4-1.3-0.3c-0.5,0-0.9,0.2-1.2,0.6l-9.1,9.1
	c-0.3,0.3-0.5,0.7-0.6,1.2s0,0.9,0.3,1.3c0.2,0.3,0.5,0.8,0.8,1.3c0.3,0.6,0.4,1.2,0.4,2c0,1.4-0.4,2.5-1.3,3.4
	C21.2,41.6,20.1,42,18.7,42z"/>
</svg>
