<?xml version="1.0" encoding="utf-8"?>
<!-- Generator: Adobe Illustrator 26.3.1, SVG Export Plug-In . SVG Version: 6.00 Build 0)  -->
<svg version="1.1" id="Слой_1" xmlns="http://www.w3.org/2000/svg" xmlns:xlink="http://www.w3.org/1999/xlink" x="0px" y="0px"
	 viewBox="0 0 48 48" style="enable-background:new 0 0 48 48;" xml:space="preserve">
<path d="M22.2,40c-2.8,0-5.3-1-7.2-3.1c-2-2-2.9-4.5-2.9-7.4V21l6.6,6.7l-1.1,1.1l-4-4.1v4.9c0,2.4,0.8,4.5,2.5,6.3
	c1.7,1.7,3.7,2.6,6.1,2.6s4.5-0.9,6.1-2.6c1.7-1.7,2.5-3.8,2.5-6.3v-6.9c-1.1-0.2-1.9-0.7-2.6-1.5s-1-1.8-1-2.9s0.3-2.1,1-2.9
	c0.7-0.8,1.6-1.4,2.6-1.5V6h1.5v7.9c1.1,0.2,1.9,0.7,2.6,1.5c0.7,0.8,1,1.8,1,2.9s-0.3,2.1-1,2.9s-1.6,1.3-2.6,1.5v6.9
	c0,2.9-1,5.3-2.9,7.4C27.4,39,25,40,22.2,40z"/>
</svg>
