<?xml version="1.0" encoding="utf-8"?>
<!-- Generator: Adobe Illustrator 26.3.1, SVG Export Plug-In . SVG Version: 6.00 Build 0)  -->
<svg version="1.1" id="Слой_1" xmlns="http://www.w3.org/2000/svg" xmlns:xlink="http://www.w3.org/1999/xlink" x="0px" y="0px"
	 viewBox="0 0 48 48" style="enable-background:new 0 0 48 48;" xml:space="preserve">
<path d="M14.8,44c-0.8,0-1.4-0.3-2-0.8c-0.5-0.5-0.8-1.2-0.8-2V6.8c0-0.8,0.3-1.4,0.8-2C13.4,4.3,14,4,14.8,4h18.5
	c0.8,0,1.4,0.3,2,0.8C35.7,5.4,36,6,36,6.8v6.3h-1.5V9.8h-21v28.3h20.9v-3.2H36v6.3c0,0.8-0.3,1.4-0.8,2c-0.5,0.5-1.2,0.8-2,0.8
	C33.2,44,14.8,44,14.8,44z M34.5,30l-0.1-1.5c-0.6-0.1-1.1-0.3-1.5-0.5c-0.4-0.3-0.8-0.6-1.1-1l-1.3,0.7l-0.8-1.2l1.2-0.9
	c-0.2-0.5-0.3-1.1-0.3-1.7s0.1-1.1,0.3-1.7l-1.2-0.9l0.7-1.2l1.3,0.7c0.3-0.4,0.6-0.7,1.1-0.9c0.4-0.3,0.9-0.4,1.6-0.5l0.1-1.6H36
	l0.1,1.6c0.6,0.1,1.1,0.3,1.5,0.5c0.4,0.3,0.8,0.6,1.1,0.9l1.3-0.7l0.7,1.2l-1.2,0.9c0.2,0.5,0.3,1.1,0.3,1.7s-0.1,1.1-0.3,1.7
	l1.2,0.9L40,27.7L38.7,27c-0.3,0.4-0.7,0.7-1.1,1c-0.4,0.3-0.9,0.4-1.5,0.5L35.9,30H34.5z M35.2,27.2c0.9,0,1.6-0.3,2.3-0.9
	c0.6-0.6,0.9-1.4,1-2.3c0-0.9-0.3-1.6-1-2.3c-0.6-0.6-1.4-0.9-2.3-0.9c-0.9,0-1.7,0.3-2.3,0.9S32,23.1,32,24s0.3,1.7,0.9,2.3
	C33.5,26.9,34.3,27.2,35.2,27.2z"/>
</svg>
