<?xml version="1.0" encoding="utf-8"?>
<!-- Generator: Adobe Illustrator 26.3.1, SVG Export Plug-In . SVG Version: 6.00 Build 0)  -->
<svg version="1.1" id="Слой_1" xmlns="http://www.w3.org/2000/svg" xmlns:xlink="http://www.w3.org/1999/xlink" x="0px" y="0px"
	 viewBox="0 0 48 48" style="enable-background:new 0 0 48 48;" xml:space="preserve">
<path d="M16.6,11.5L15,10h25v1.5H16.6z M42,36.5l-14.5-14v-5.3c0-0.4,0.1-0.7,0.4-1c0.3-0.3,0.6-0.4,1-0.4h11.7c0.4,0,0.7,0.1,1,0.4
	s0.4,0.6,0.4,1V36.5z M40.5,42.7L35.8,38H29c-0.4,0-0.7-0.1-1-0.4c-0.3-0.3-0.4-0.6-0.4-1v-6.8l-16-16v21.9h11V38H6v-2.3h4V12.3
	L5.8,8.1L6.9,7l34.7,34.6C41.6,41.6,40.5,42.7,40.5,42.7z"/>
</svg>
