<?xml version="1.0" encoding="utf-8"?>
<!-- Generator: Adobe Illustrator 26.3.1, SVG Export Plug-In . SVG Version: 6.00 Build 0)  -->
<svg version="1.1" id="Слой_1" xmlns="http://www.w3.org/2000/svg" xmlns:xlink="http://www.w3.org/1999/xlink" x="0px" y="0px"
	 viewBox="0 0 48 48" style="enable-background:new 0 0 48 48;" xml:space="preserve">
<path d="M30.5,19.8c-0.4,0-0.7-0.1-1-0.4s-0.4-0.6-0.4-1V12c0-0.4,0.1-0.7,0.4-1s0.6-0.4,1-0.4l0.5,0.8l0.3-2.8c0-1,0.3-1.8,1-2.5
	s1.5-1,2.4-1c1,0,1.8,0.3,2.5,1s1,1.5,1,2.5L38,11.4l1-0.8c0.4,0,0.7,0.1,1,0.4c0.3,0.3,0.4,0.6,0.4,1v6.4c0,0.4-0.1,0.7-0.4,1
	c-0.3,0.3-0.6,0.4-1,0.4C38.9,19.8,30.5,19.8,30.5,19.8z M32.4,11.5h4.1l0.2-2.8c0-0.6-0.2-1.1-0.6-1.5c-0.4-0.4-0.9-0.6-1.4-0.6
	c-0.6,0-1.1,0.2-1.5,0.6s-0.6,0.9-0.6,1.5L32.4,11.5z M37.8,40c-3.2,0-6.6-0.9-10.1-2.6c-3.5-1.7-6.8-4.1-9.9-7.2s-5.5-6.4-7.2-9.9
	S8,13.4,8,10.2c0-0.6,0.2-1.1,0.6-1.6C9,8.2,9.6,8,10.2,8h4.4c0.6,0,1,0.2,1.4,0.5s0.7,0.8,0.8,1.4l1,4.4c0.1,0.5,0,1-0.1,1.4
	s-0.3,0.8-0.6,1L12.7,21c0.9,1.6,1.9,3.1,2.9,4.4s2.1,2.6,3.2,3.8c1.3,1.3,2.6,2.5,4.1,3.5c1.4,1.1,3,2.1,4.7,3l4.3-4.4
	c0.3-0.4,0.7-0.6,1.1-0.7c0.4-0.1,0.8-0.1,1.3-0.1l3.8,0.8c0.6,0.1,1,0.4,1.4,0.8c0.3,0.4,0.5,0.9,0.5,1.5v4.2
	c0,0.6-0.2,1.1-0.6,1.5C38.9,39.8,38.4,40,37.8,40z"/>
</svg>
