<?xml version="1.0" encoding="utf-8"?>
<!-- Generator: Adobe Illustrator 26.3.1, SVG Export Plug-In . SVG Version: 6.00 Build 0)  -->
<svg version="1.1" id="Слой_1" xmlns="http://www.w3.org/2000/svg" xmlns:xlink="http://www.w3.org/1999/xlink" x="0px" y="0px"
	 viewBox="0 0 48 48" style="enable-background:new 0 0 48 48;" xml:space="preserve">
<path d="M42.4,45.5L2,4.8l1.1-1.1l40.4,40.7L42.4,45.5z M12,13.7l1.5,1.6v22.8h21l1.5,1.5v1.6c0,0.8-0.3,1.4-0.8,2
	c-0.5,0.5-1.2,0.8-2,0.8H14.8c-0.8,0-1.4-0.3-2-0.8c-0.5-0.5-0.8-1.2-0.8-2V13.7z M14.1,9.8l-2.2-2.2V7.1c-0.1-0.8,0.2-1.6,0.7-2.2
	C13.2,4.3,13.9,4,14.8,4h18.5c0.8,0,1.4,0.3,2,0.8C35.7,5.3,36,6,36,6.8v6.3h-1.5V9.8H14.1z M35.7,29.1L34.6,28
	c0.6-0.5,1.1-1.1,1.5-1.8c0.4-0.7,0.5-1.5,0.5-2.3s-0.2-1.5-0.5-2.2c-0.4-0.7-0.8-1.3-1.5-1.9l1-1.1c0.8,0.7,1.4,1.4,1.8,2.3
	c0.5,0.9,0.7,1.8,0.7,2.9c0,1-0.2,2-0.7,2.9C37.1,27.7,36.5,28.5,35.7,29.1z M39.7,33.1L38.6,32c1.1-1.1,1.9-2.3,2.5-3.7
	c0.6-1.4,0.9-2.8,0.9-4.3s-0.3-3-0.9-4.4c-0.6-1.4-1.5-2.6-2.6-3.6l1.2-1.2c1.3,1.2,2.2,2.6,2.9,4.2s1,3.2,1,5c0,1.7-0.3,3.4-1,4.9
	C41.8,30.5,40.9,31.9,39.7,33.1z"/>
</svg>
