<?xml version="1.0" encoding="utf-8"?>
<!-- Generator: Adobe Illustrator 26.3.1, SVG Export Plug-In . SVG Version: 6.00 Build 0)  -->
<svg version="1.1" id="Слой_1" xmlns="http://www.w3.org/2000/svg" xmlns:xlink="http://www.w3.org/1999/xlink" x="0px" y="0px"
	 viewBox="0 0 48 48" style="enable-background:new 0 0 48 48;" xml:space="preserve">
<path d="M10.2,40c-0.6,0-1.1-0.2-1.6-0.6c-0.4-0.5-0.6-1-0.6-1.6v-4.2c0-0.6,0.2-1.1,0.5-1.5c0.3-0.4,0.8-0.7,1.4-0.8l3.8-0.8
	c0.5-0.1,0.9,0,1.3,0.1c0.4,0.1,0.7,0.4,1.1,0.7l4.3,4.4c1.7-0.9,3.3-1.9,4.7-3c1.4-1.1,2.8-2.2,4.1-3.5c1.1-1.2,2.2-2.4,3.2-3.8
	c1-1.3,2-2.8,2.9-4.4l-4.5-4.2c-0.3-0.3-0.5-0.6-0.6-1s-0.1-0.9-0.1-1.4l1-4.5c0.2-0.6,0.4-1,0.8-1.4C32.4,8.2,32.8,8,33.4,8h4.4
	c0.6,0,1.1,0.2,1.5,0.7c0.4,0.4,0.6,1,0.6,1.6c0,3.2-0.9,6.6-2.6,10.1c-1.7,3.5-4.1,6.8-7.2,9.9s-6.4,5.5-9.9,7.2
	C16.8,39.1,13.4,40,10.2,40z"/>
</svg>
