<?xml version="1.0" encoding="utf-8"?>
<!-- Generator: Adobe Illustrator 26.3.1, SVG Export Plug-In . SVG Version: 6.00 Build 0)  -->
<svg version="1.1" id="Слой_1" xmlns="http://www.w3.org/2000/svg" xmlns:xlink="http://www.w3.org/1999/xlink" x="0px" y="0px"
	 viewBox="0 0 48 48" style="enable-background:new 0 0 48 48;" xml:space="preserve">
<path d="M27.7,30.5l-1.1-1.1L32,24l-5.4-5.4l1.1-1.1l5.4,5.4l5.4-5.4l1.1,1.1L34.2,24l5.4,5.4l-1.1,1.1L33.1,25L27.7,30.5z M12.8,44
	c-0.8,0-1.4-0.3-1.9-0.8c-0.6-0.6-0.9-1.2-0.9-2V6.8c0-0.7,0.3-1.4,0.8-1.9C11.4,4.3,12,4,12.8,4h18.5c0.8,0,1.4,0.3,1.9,0.8
	C33.7,5.4,34,6,34,6.8v6.3h-1.5V9.8h-21v28.3h20.9v-3.2H34v6.3c0,0.8-0.3,1.4-0.8,2c-0.6,0.5-1.2,0.8-2,0.8H12.8z"/>
</svg>
