<?xml version="1.0" encoding="utf-8"?>
<!-- Generator: Adobe Illustrator 26.3.1, SVG Export Plug-In . SVG Version: 6.00 Build 0)  -->
<svg version="1.1" id="Слой_1" xmlns="http://www.w3.org/2000/svg" xmlns:xlink="http://www.w3.org/1999/xlink" x="0px" y="0px"
	 viewBox="0 0 48 48" style="enable-background:new 0 0 48 48;" xml:space="preserve">
<path d="M28,29c2.4-0.1,4.4-0.9,6.2-2.6c1.8-1.6,2.7-3.7,2.9-6.1c-2.4,0-4.5,0.8-6.3,2.5C29,24.6,28.1,26.6,28,29z M28,29
	c-0.1-2.4-1-4.4-2.9-6.1c-1.8-1.7-3.9-2.5-6.3-2.5c0.2,2.4,1.2,4.4,2.9,6.1C23.6,28.1,25.6,28.9,28,29z M28,22.7
	c0.6,0,1.1-0.2,1.5-0.6s0.6-0.9,0.6-1.6V20l0.5,0.2c0.7,0.2,1.2,0.3,1.8,0.2c0.5-0.1,0.9-0.4,1.2-0.9s0.4-1,0.3-1.7
	c-0.1-0.6-0.4-1.1-1.1-1.4l-0.5-0.2l0.5-0.2c0.7-0.3,1-0.8,1.1-1.4c0.1-0.6,0-1.1-0.3-1.6s-0.7-0.8-1.2-0.9
	c-0.5-0.1-1.1-0.1-1.8,0.2l-0.5,0.2V12c0-0.6-0.2-1.1-0.6-1.5C29.1,10,28.6,9.8,28,9.8s-1.1,0.2-1.6,0.6c-0.4,0.4-0.6,0.9-0.6,1.5
	v0.5l-0.5-0.2C24.6,12,24,11.9,23.5,12s-0.9,0.4-1.2,0.9c-0.3,0.5-0.4,1-0.4,1.6c0.1,0.6,0.5,1.1,1.1,1.4l0.5,0.2L23,16.3
	c-0.7,0.3-1,0.7-1.1,1.4c-0.1,0.6,0,1.2,0.3,1.6c0.3,0.5,0.7,0.8,1.2,0.9s1.1,0,1.8-0.2l0.5-0.2v0.5c0,0.6,0.2,1.1,0.6,1.6
	C26.9,22.5,27.4,22.7,28,22.7z M28,18.4c-0.6,0-1.1-0.2-1.5-0.6s-0.6-0.9-0.6-1.5s0.2-1.1,0.6-1.5s0.9-0.6,1.5-0.6s1.1,0.2,1.5,0.6
	c0.4,0.4,0.6,0.9,0.6,1.5s-0.2,1.1-0.6,1.5C29.1,18.2,28.6,18.4,28,18.4z M16.7,33.4c-0.8,0-1.4-0.3-2-0.8c-0.5-0.5-0.8-1.2-0.8-2
	V8.2c0-0.8,0.3-1.4,0.8-2c0.5-0.5,1.2-0.8,2-0.8h22.5c0.8,0,1.4,0.3,2,0.8c0.5,0.5,0.8,1.2,0.8,2v22.5c0,0.8-0.3,1.4-0.8,2
	c-0.5,0.5-1.2,0.8-2,0.8C39.2,33.4,16.7,33.4,16.7,33.4z M12,41.7c-0.8,0.1-1.5-0.1-2.1-0.5c-0.6-0.5-0.9-1.1-1-1.8L6.2,18.5
	c-0.1-0.8,0.1-1.5,0.6-2.1s1.1-1,1.9-1.1l1.7-0.2v16.7c0,1.4,0.5,2.6,1.5,3.6s2.2,1.5,3.6,1.5h22.9c0.1,0.4,0,0.8-0.2,1.1
	s-0.6,0.5-1,0.5C37.2,38.6,12,41.7,12,41.7z"/>
</svg>
