<?xml version="1.0" encoding="utf-8"?>
<!-- Generator: Adobe Illustrator 26.3.1, SVG Export Plug-In . SVG Version: 6.00 Build 0)  -->
<svg version="1.1" id="Слой_1" xmlns="http://www.w3.org/2000/svg" xmlns:xlink="http://www.w3.org/1999/xlink" x="0px" y="0px"
	 viewBox="0 0 48 48" style="enable-background:new 0 0 48 48;" xml:space="preserve">
<path d="M11.2,43.2c-0.8,0.1-1.5,0-2.1-0.5s-1-1.1-1-1.9L5.4,20c-0.1-0.8,0-1.4,0.5-2s1.1-1,1.9-1.1l1.7-0.2v17
	c0,1.4,0.5,2.5,1.4,3.4s2.1,1.4,3.4,1.4h23.2c0,0.4-0.1,0.8-0.4,1.1c-0.3,0.3-0.6,0.5-1,0.5L11.2,43.2z M15.8,35
	c-0.8,0-1.4-0.3-2-0.8c-0.5-0.5-0.8-1.2-0.8-2V9.7c0-0.8,0.3-1.4,0.8-2c0.5-0.5,1.2-0.8,2-0.8h13.5c-0.2,0.4-0.3,0.8-0.4,1.3
	c-0.1,0.4-0.1,0.9-0.1,1.3c0,0.8,0.1,1.6,0.3,2.4c0.2,0.8,0.5,1.5,0.9,2.3c-0.4-0.3-0.9-0.5-1.4-0.6s-1-0.2-1.5-0.2
	c-1.4,0-2.6,0.5-3.5,1.5c-1,1-1.4,2.1-1.4,3.5s0.5,2.5,1.4,3.5c1,1,2.1,1.4,3.5,1.4s2.6-0.5,3.6-1.5s1.4-2.2,1.4-3.6
	c0-0.3,0-0.6-0.1-0.9s-0.1-0.6-0.2-0.8c0.9,0.8,1.9,1.4,2.9,1.9c1.1,0.4,2.2,0.6,3.4,0.6c0.5,0,1,0,1.5-0.1s1-0.2,1.5-0.4v13.9
	c0,0.8-0.3,1.4-0.8,2c-0.5,0.5-1.2,0.8-2,0.8C38.3,35,15.8,35,15.8,35z M15.7,33.4h22.7v0.2c-1.4-1.7-3.1-3-5.1-4s-4-1.5-6.2-1.5
	s-4.3,0.5-6.3,1.5s-3.6,2.3-5.1,4C15.7,33.6,15.7,33.4,15.7,33.4z M34.3,13.7l2.9-8.2h1.7l2.9,8.2h-1.5L39.7,12h-3.3l-0.6,1.7H34.3z
	 M36.9,10.7h2.5l-1.2-3.9L36.9,10.7z"/>
</svg>
