<?xml version="1.0" encoding="utf-8"?>
<!-- Generator: Adobe Illustrator 26.3.1, SVG Export Plug-In . SVG Version: 6.00 Build 0)  -->
<svg version="1.1" id="Слой_1" xmlns="http://www.w3.org/2000/svg" xmlns:xlink="http://www.w3.org/1999/xlink" x="0px" y="0px"
	 viewBox="0 0 48 48" style="enable-background:new 0 0 48 48;" xml:space="preserve">
<path d="M8.8,40c-0.8,0-1.4-0.3-2-0.8C6.3,38.7,6,38,6,37.2V14.9c0-0.8,0.3-1.4,0.8-2c0.5-0.5,1.2-0.8,2-0.8h6.4L18.8,8h10.3
	l3.7,4.2h6.4c0.8,0,1.4,0.3,2,0.8c0.5,0.5,0.8,1.2,0.8,2v22.3c0,0.8-0.3,1.4-0.8,2c-0.5,0.5-1.2,0.8-2,0.8L8.8,40L8.8,40z
	 M17.4,32.1h13.2v-0.3c0-1.1-0.6-2-1.7-2.6s-2.8-0.9-4.9-0.9s-3.7,0.3-4.9,0.9c-1.1,0.6-1.7,1.4-1.7,2.6
	C17.4,31.8,17.4,32.1,17.4,32.1z M24,24.5c0.8,0,1.5-0.3,2-0.8s0.8-1.2,0.8-2s-0.3-1.5-0.8-2c-0.6-0.5-1.2-0.8-2-0.8s-1.5,0.3-2,0.8
	c-0.5,0.6-0.8,1.2-0.8,2s0.3,1.5,0.8,2C22.5,24.3,23.2,24.5,24,24.5z"/>
</svg>
