<?xml version="1.0" encoding="utf-8"?>
<!-- Generator: Adobe Illustrator 26.3.1, SVG Export Plug-In . SVG Version: 6.00 Build 0)  -->
<svg version="1.1" id="Слой_1" xmlns="http://www.w3.org/2000/svg" xmlns:xlink="http://www.w3.org/1999/xlink" x="0px" y="0px"
	 viewBox="0 0 48 48" style="enable-background:new 0 0 48 48;" xml:space="preserve">
<path d="M31.1,30.3H18.4c-0.6,0-1.1,0.2-1.4,0.5c-0.4,0.4-0.6,0.8-0.7,1.3s-0.1,0.9,0.2,1.4c0.2,0.5,0.6,0.8,1.2,1.1l11.5,4.5
	c0.3,0.1,0.5,0.1,0.8,0.1c0.2,0,0.5-0.1,0.6-0.2c0.2-0.1,0.3-0.3,0.4-0.5s0.2-0.5,0.2-0.7v-7.5H31.1z M20,8c1.6,0,3.1,0.6,4.2,1.8
	C25.4,11,26,12.4,26,14s-0.6,3.1-1.8,4.2C23.1,19.4,21.6,20,20,20s-3.1-0.6-4.2-1.8C14.6,17.1,14,15.6,14,14s0.6-3.1,1.8-4.2
	S18.4,8,20,8z M37.7,22.8c0.6,0,1.2,0.2,1.6,0.7c0.5,0.5,0.7,1,0.7,1.7c0,0.5-0.2,1-0.5,1.4s-0.7,0.7-1.2,0.8l-5.7,1.5H18.4
	c-1,0-1.9,0.4-2.7,1.1c-0.7,0.7-1.1,1.6-1.1,2.7c0,0.7,0.2,1.4,0.7,2c0.4,0.6,1,1.1,1.7,1.4l2.2,0.9H8v-6c0-2.2,0.8-4.1,2.3-5.7
	c1.6-1.6,3.4-2.3,5.7-2.3h21.7V22.8z"/>
</svg>
