<?xml version="1.0" encoding="utf-8"?>
<!-- Generator: Adobe Illustrator 26.3.1, SVG Export Plug-In . SVG Version: 6.00 Build 0)  -->
<svg version="1.1" id="Слой_1" xmlns="http://www.w3.org/2000/svg" xmlns:xlink="http://www.w3.org/1999/xlink" x="0px" y="0px"
	 viewBox="0 0 48 48" style="enable-background:new 0 0 48 48;" xml:space="preserve">
<path d="M10.8,40c-0.8,0-1.4-0.3-2-0.8C8.3,38.7,8,38,8,37.2V10.8c0-0.8,0.3-1.4,0.8-2C9.3,8.3,10,8,10.8,8h26.5
	c0.8,0,1.4,0.3,2,0.8c0.5,0.5,0.8,1.2,0.8,2v26.5c0,0.8-0.3,1.4-0.8,2c-0.5,0.5-1.2,0.8-2,0.8L10.8,40L10.8,40z M10.8,38.5h6.7V28.2
	h-1c-0.4,0-0.7-0.1-1-0.4s-0.4-0.6-0.4-1V9.5h-4.2c-0.4,0-0.7,0.1-0.9,0.3s-0.3,0.5-0.3,0.9v26.5c0,0.4,0.1,0.7,0.3,0.9
	C10.1,38.3,10.4,38.5,10.8,38.5z M30.5,38.5h6.7c0.4,0,0.7-0.1,0.9-0.3s0.3-0.5,0.3-0.9V10.8c0-0.4-0.1-0.7-0.3-0.9
	s-0.5-0.3-0.9-0.3H33v17.2c0,0.4-0.1,0.7-0.4,1c-0.3,0.3-0.6,0.4-1,0.4h-1C30.5,28.2,30.5,38.5,30.5,38.5z M18.8,38.5h10.5V28.2h-1
	c-0.4,0-0.8-0.1-1-0.4c-0.3-0.3-0.4-0.6-0.4-1V9.5h-5.5v17.2c0,0.4-0.1,0.7-0.4,1s-0.6,0.4-1,0.4h-1C18.8,28.2,18.8,38.5,18.8,38.5z
	"/>
</svg>
