<?xml version="1.0" encoding="utf-8"?>
<!-- Generator: Adobe Illustrator 26.3.1, SVG Export Plug-In . SVG Version: 6.00 Build 0)  -->
<svg version="1.1" id="Слой_1" xmlns="http://www.w3.org/2000/svg" xmlns:xlink="http://www.w3.org/1999/xlink" x="0px" y="0px"
	 viewBox="0 0 48 48" style="enable-background:new 0 0 48 48;" xml:space="preserve">
<path d="M31.1,30l6.2-6.2c0.9-0.9,1.5-1.9,2-3s0.7-2.3,0.7-3.6c0-2.6-0.9-4.8-2.7-6.6s-4-2.7-6.6-2.7c-1.2,0-2.4,0.2-3.6,0.7
	c-1.1,0.5-2.1,1.1-3,2L18,16.9L31.1,30z M17.3,40c1.2,0,2.4-0.2,3.6-0.7c1.1-0.5,2.1-1.1,3-2l6.2-6.1L16.9,18l-6.1,6.2
	c-0.9,0.9-1.5,1.9-2,3C8.2,28.3,8,29.5,8,30.8c0,2.6,0.9,4.8,2.7,6.6C12.5,39.1,14.7,40,17.3,40z"/>
</svg>
