<?xml version="1.0" encoding="utf-8"?>
<!-- Generator: Adobe Illustrator 26.3.1, SVG Export Plug-In . SVG Version: 6.00 Build 0)  -->
<svg version="1.1" id="Слой_1" xmlns="http://www.w3.org/2000/svg" xmlns:xlink="http://www.w3.org/1999/xlink" x="0px" y="0px"
	 viewBox="0 0 48 48" style="enable-background:new 0 0 48 48;" xml:space="preserve">
<path d="M33,28.1L19.9,15l4.3-4.3c0.9-0.9,1.9-1.5,3-2C28.3,8.2,29.5,8,30.8,8c2.6,0,4.8,0.9,6.6,2.7s2.7,4,2.7,6.6
	c0,1.2-0.2,2.4-0.7,3.5s-1.1,2.1-2,3L33,28.1z M39.9,42.3L29.3,31.7l-5.5,5.5c-0.9,0.9-1.9,1.5-3,2s-2.3,0.7-3.6,0.7
	c-2.6,0-4.8-0.9-6.6-2.7s-2.7-4-2.7-6.6c0-1.2,0.2-2.4,0.7-3.6c0.5-1.1,1.1-2.1,2-3l5.5-5.5L5.9,8.4L7,7.2l34,34.1L39.9,42.3z"/>
</svg>
