<?xml version="1.0" encoding="utf-8"?>
<!-- Generator: Adobe Illustrator 26.3.1, SVG Export Plug-In . SVG Version: 6.00 Build 0)  -->
<svg version="1.1" id="Слой_1" xmlns="http://www.w3.org/2000/svg" xmlns:xlink="http://www.w3.org/1999/xlink" x="0px" y="0px"
	 viewBox="0 0 48 48" style="enable-background:new 0 0 48 48;" xml:space="preserve">
<path d="M24,36.2c-4.3-3.3-7.5-6.4-9.6-9.4s-3.2-5.9-3.2-8.8c0-2.1,0.4-4,1.1-5.7c0.8-1.6,1.8-3,3-4.1s2.6-1.9,4.1-2.5
	C21,5.3,22.5,5,24,5s3,0.3,4.5,0.8c1.5,0.6,2.9,1.4,4.1,2.5c1.2,1.1,2.2,2.5,3,4.1s1.1,3.5,1.1,5.7c0,2.8-1.1,5.8-3.2,8.8
	C31.5,29.9,28.3,33,24,36.2z M24,20.5c0.8,0,1.4-0.3,2-0.8c0.5-0.5,0.8-1.2,0.8-2s-0.3-1.4-0.8-2c-0.5-0.5-1.2-0.8-2-0.8
	s-1.4,0.3-2,0.8c-0.5,0.5-0.8,1.2-0.8,2s0.3,1.4,0.8,2C22.6,20.3,23.2,20.5,24,20.5z M11.2,43v-1.5h25.5V43H11.2z"/>
</svg>
