<?xml version="1.0" encoding="utf-8"?>
<!-- Generator: Adobe Illustrator 26.3.1, SVG Export Plug-In . SVG Version: 6.00 Build 0)  -->
<svg version="1.1" id="Слой_1" xmlns="http://www.w3.org/2000/svg" xmlns:xlink="http://www.w3.org/1999/xlink" x="0px" y="0px"
	 viewBox="0 0 48 48" style="enable-background:new 0 0 48 48;" xml:space="preserve">
<path d="M21,12.5V6.7L6.7,21h5.8v1.3h-8v-8.1h1.3V20L20.1,5.8h-5.8V4.5h8.1v8.1C22.3,12.5,21,12.5,21,12.5z M28,43.5
	c-0.6,0-1.2-0.1-1.8-0.4c-0.6-0.2-1.1-0.6-1.6-1l-9.9-9.9l0.6-0.7c0.2-0.3,0.5-0.5,0.8-0.6s0.7-0.1,1,0l6.3,1.5V15.5
	c0-0.2,0.1-0.4,0.2-0.5s0.3-0.2,0.6-0.2s0.4,0.1,0.5,0.2c0.1,0.1,0.2,0.3,0.2,0.5v14.8h4.3v-8.2c0-0.2,0.1-0.4,0.2-0.5
	s0.3-0.2,0.6-0.2s0.4,0.1,0.5,0.2s0.2,0.3,0.2,0.5v8.2H35v-6.2c0-0.2,0.1-0.4,0.2-0.5c0.1-0.1,0.3-0.2,0.6-0.2
	c0.2,0,0.4,0.1,0.5,0.2s0.2,0.3,0.2,0.5v6.2h4.3v-2.2c0-0.2,0.1-0.4,0.2-0.5c0.1-0.1,0.3-0.2,0.6-0.2s0.4,0.1,0.5,0.2
	s0.2,0.3,0.2,0.5v8.5c0,1.9-0.7,3.6-2,5c-1.4,1.4-3,2-5,2C35.5,43.5,28,43.5,28,43.5z"/>
</svg>
