<?xml version="1.0" encoding="utf-8"?>
<!-- Generator: Adobe Illustrator 26.3.1, SVG Export Plug-In . SVG Version: 6.00 Build 0)  -->
<svg version="1.1" id="Слой_1" xmlns="http://www.w3.org/2000/svg" xmlns:xlink="http://www.w3.org/1999/xlink" x="0px" y="0px"
	 viewBox="0 0 48 48" style="enable-background:new 0 0 48 48;" xml:space="preserve">
<path d="M3.5,24.4l-0.9-0.9l6.8-6.8H3.6v-1.3h8.1v8.1h-1.3v-5.8L3.5,24.4z M15.3,11.7V3.6h1.3v5.8l6.8-6.8l1,1l-6.8,6.8h5.8v1.3
	C23.4,11.7,15.3,11.7,15.3,11.7z M28,43.5c-0.6,0-1.2-0.1-1.8-0.4c-0.6-0.2-1.1-0.6-1.6-1l-9.9-9.9l0.6-0.7c0.2-0.3,0.5-0.5,0.8-0.6
	s0.7-0.1,1,0l6.3,1.5V15.5c0-0.2,0.1-0.4,0.2-0.5s0.3-0.2,0.6-0.2s0.4,0.1,0.5,0.2c0.1,0.1,0.2,0.3,0.2,0.5v14.8h4.3v-8.2
	c0-0.2,0.1-0.4,0.2-0.5s0.3-0.2,0.6-0.2s0.4,0.1,0.5,0.2s0.2,0.3,0.2,0.5v8.2H35v-6.2c0-0.2,0.1-0.4,0.2-0.5
	c0.1-0.1,0.3-0.2,0.6-0.2c0.2,0,0.4,0.1,0.5,0.2s0.2,0.3,0.2,0.5v6.2h4.3v-2.2c0-0.2,0.1-0.4,0.2-0.5c0.1-0.1,0.3-0.2,0.6-0.2
	s0.4,0.1,0.5,0.2s0.2,0.3,0.2,0.5v8.5c0,1.9-0.7,3.6-2,5c-1.4,1.4-3,2-5,2C35.5,43.5,28,43.5,28,43.5z"/>
</svg>
