<?xml version="1.0" encoding="utf-8"?>
<!-- Generator: Adobe Illustrator 26.3.1, SVG Export Plug-In . SVG Version: 6.00 Build 0)  -->
<svg version="1.1" id="Слой_1" xmlns="http://www.w3.org/2000/svg" xmlns:xlink="http://www.w3.org/1999/xlink" x="0px" y="0px"
	 viewBox="0 0 48 48" style="enable-background:new 0 0 48 48;" xml:space="preserve">
<path d="M6,21.2v-1.5h8.6L2.9,8L4,6.8l11.7,11.7V10h1.5v11.2H6z M8.8,38c-0.8,0-1.4-0.3-2-0.8C6.3,36.7,6,36,6,35.2v-9.5h1.5v9.5
	c0,0.4,0.1,0.7,0.3,0.9c0.2,0.2,0.5,0.3,0.9,0.3h14.8V38H8.8z M40.5,25.5V12.8c0-0.4-0.1-0.7-0.3-0.9s-0.5-0.3-0.9-0.3H21.8V10h17.5
	c0.8,0,1.4,0.3,2,0.8c0.5,0.5,0.8,1.2,0.8,2v12.8h-1.6V25.5z M27.8,38v-8.2H42V38H27.8z"/>
</svg>
