<?xml version="1.0" encoding="utf-8"?>
<!-- Generator: Adobe Illustrator 26.3.1, SVG Export Plug-In . SVG Version: 6.00 Build 0)  -->
<svg version="1.1" id="Слой_1" xmlns="http://www.w3.org/2000/svg" xmlns:xlink="http://www.w3.org/1999/xlink" x="0px" y="0px"
	 viewBox="0 0 48 48" style="enable-background:new 0 0 48 48;" xml:space="preserve">
<path d="M34.9,32l1.1-1.1l-9.2-9.2h6.9v-1.5h-9.5v9.5h1.5v-6.9L34.9,32z M6,18.2V10h12.2v8.2H6z M6,22.5h16.5V10h16.8
	c0.8,0,1.4,0.3,2,0.8c0.5,0.5,0.8,1.2,0.8,2v22.5c0,0.8-0.3,1.4-0.8,2c-0.5,0.5-1.2,0.8-2,0.8H8.8c-0.8,0-1.4-0.3-2-0.8
	C6.3,36.7,6,36,6,35.2V22.5z"/>
</svg>
