<?xml version="1.0" encoding="utf-8"?>
<!-- Generator: Adobe Illustrator 26.3.1, SVG Export Plug-In . SVG Version: 6.00 Build 0)  -->
<svg version="1.1" id="Слой_1" xmlns="http://www.w3.org/2000/svg" xmlns:xlink="http://www.w3.org/1999/xlink" x="0px" y="0px"
	 viewBox="0 0 48 48" style="enable-background:new 0 0 48 48;" xml:space="preserve">
<path d="M10.8,40c-0.7,0-1.4-0.3-1.9-0.8S8,38,8,37.2V18.8c0-0.7,0.3-1.4,0.8-1.9c0.6-0.6,1.2-0.9,2-0.9h7.4v1.5h-7.4
	c-0.4,0-0.7,0.1-0.9,0.3c-0.2,0.2-0.3,0.5-0.3,0.9v18.5c0,0.4,0.1,0.7,0.3,0.9s0.5,0.3,0.9,0.3h26.5c0.4,0,0.7-0.1,0.9-0.3
	s0.3-0.5,0.3-0.9V18.8c0-0.4-0.1-0.7-0.3-0.9c-0.2-0.2-0.5-0.3-0.9-0.3h-7.4V16h7.4c0.7,0,1.4,0.3,1.9,0.8S40,18,40,18.7v18.5
	c0,0.7-0.3,1.4-0.8,1.9c-0.6,0.6-1.2,0.9-2,0.9H10.8z M24,30.5l-6.7-6.7l1.1-1.1l4.8,4.8V3h1.5v24.5l4.8-4.8l1.1,1.1L24,30.5z"/>
</svg>
