<?xml version="1.0" encoding="utf-8"?>
<!-- Generator: Adobe Illustrator 26.3.1, SVG Export Plug-In . SVG Version: 6.00 Build 0)  -->
<svg version="1.1" id="Слой_1" xmlns="http://www.w3.org/2000/svg" xmlns:xlink="http://www.w3.org/1999/xlink" x="0px" y="0px"
	 viewBox="0 0 48 48" style="enable-background:new 0 0 48 48;" xml:space="preserve">
<path d="M21.9,31.5c0.7,0,1.3-0.1,2-0.3c0.7-0.2,1.3-0.5,1.9-1l5.7,5.7l1-1l-5.7-5.7c0.4-0.5,0.7-1.1,0.9-1.8
	c0.2-0.6,0.3-1.3,0.3-1.9c0-1.7-0.6-3.1-1.7-4.2c-1.2-1.2-2.6-1.7-4.3-1.7s-3.1,0.6-4.2,1.7c-1.2,1.2-1.7,2.6-1.7,4.3
	c0,1.7,0.6,3.1,1.7,4.3C18.8,31,20.2,31.5,21.9,31.5z M21.9,30c-1.2,0-2.3-0.4-3.1-1.3c-0.9-0.9-1.3-1.9-1.3-3.2
	c0-1.2,0.4-2.3,1.3-3.2c0.9-0.9,1.9-1.3,3.1-1.3c1.3,0,2.3,0.4,3.2,1.3c0.9,0.9,1.3,1.9,1.3,3.2c0,1.2-0.4,2.3-1.3,3.2
	C24.3,29.6,23.2,30,21.9,30z M12.8,42c-0.8,0-1.4-0.3-2-0.8c-0.5-0.5-0.8-1.2-0.8-2V8.8c0-0.8,0.3-1.4,0.8-2C11.3,6.3,12,6,12.8,6
	h16.7l8.5,8.5v24.7c0,0.8-0.3,1.4-0.8,2c-0.5,0.5-1.2,0.8-2,0.8H12.8z M28.7,15.2h7.8l-7.8-7.7V15.2z"/>
</svg>
