<?xml version="1.0" encoding="utf-8"?>
<!-- Generator: Adobe Illustrator 26.3.1, SVG Export Plug-In . SVG Version: 6.00 Build 0)  -->
<svg version="1.1" id="Слой_1" xmlns="http://www.w3.org/2000/svg" xmlns:xlink="http://www.w3.org/1999/xlink" x="0px" y="0px"
	 viewBox="0 0 48 48" style="enable-background:new 0 0 48 48;" xml:space="preserve">
<path d="M22.5,20.4c0.5,0,1-0.2,1.3-0.6c0.4-0.4,0.6-0.8,0.6-1.3s-0.2-1-0.6-1.3c-0.4-0.4-0.8-0.6-1.3-0.6s-1,0.2-1.3,0.6
	c-0.4,0.4-0.6,0.8-0.6,1.3s0.2,1,0.6,1.3C21.5,20.2,21.9,20.4,22.5,20.4z M41.4,42.5c-0.9,0-2.4-0.7-4.7-2s-4.7-3-7.4-4.8
	c-0.8,0.4-1.7,0.7-2.6,0.9s-1.8,0.3-2.8,0.3c-3.5,0-6.5-1.2-9-3.7s-3.7-5.5-3.7-9c0-0.9,0.1-1.9,0.3-2.8s0.5-1.8,0.9-2.6
	c-1.9-2.6-3.4-5-4.7-7.3s-2-3.8-2-4.6C5.7,6.5,5.8,6.3,6,6c0.2-0.2,0.4-0.3,0.7-0.3c0.7,0,2,0.5,3.9,1.6s3.8,2.2,5.7,3.3
	c-0.3,0.1-0.5,0.3-0.8,0.4c-0.2,0.1-0.5,0.3-0.7,0.5c-1.2-0.8-2.4-1.5-3.7-2.1C9.9,8.7,8.7,8.1,7.4,7.6c0.8,1.7,1.7,3.4,2.6,5
	s1.9,3.2,3,4.8c1.1-1.8,2.7-3.3,4.6-4.4s4-1.7,6.3-1.7c3.5,0,6.5,1.2,9,3.7s3.7,5.5,3.7,9c0,2.3-0.5,4.4-1.7,6.3
	c-1.1,1.9-2.6,3.4-4.4,4.5c1.6,1.2,3.2,2.2,4.9,3.1c1.6,0.9,3.4,1.8,5.1,2.7c-0.6-1.2-1.2-2.5-1.9-3.7s-1.4-2.5-2.1-3.7
	c0.2-0.2,0.3-0.4,0.5-0.7s0.3-0.5,0.4-0.8c1.1,1.8,2.2,3.7,3.3,5.6c1.1,1.9,1.6,3.2,1.6,4c0,0.3-0.1,0.5-0.3,0.7
	C41.9,42.4,41.7,42.5,41.4,42.5z M27.4,29.3c0.3,0,0.6-0.1,0.9-0.4c0.2-0.2,0.4-0.5,0.4-0.9s-0.1-0.6-0.4-0.9
	c-0.2-0.2-0.5-0.4-0.9-0.4c-0.3,0-0.6,0.1-0.9,0.4c-0.2,0.2-0.4,0.5-0.4,0.9c0,0.3,0.1,0.6,0.4,0.9C26.8,29.2,27.1,29.3,27.4,29.3z
	 M30,22.6c0.3,0,0.6-0.1,0.8-0.3c0.2-0.2,0.3-0.5,0.3-0.8s-0.1-0.6-0.3-0.8c-0.2-0.2-0.5-0.3-0.8-0.3s-0.6,0.1-0.8,0.3
	c-0.2,0.2-0.3,0.5-0.3,0.8s0.1,0.6,0.3,0.8S29.7,22.6,30,22.6z"/>
</svg>
