<?xml version="1.0" encoding="utf-8"?>
<!-- Generator: Adobe Illustrator 26.3.1, SVG Export Plug-In . SVG Version: 6.00 Build 0)  -->
<svg version="1.1" id="Слой_1" xmlns="http://www.w3.org/2000/svg" xmlns:xlink="http://www.w3.org/1999/xlink" x="0px" y="0px"
	 viewBox="0 0 48 48" style="enable-background:new 0 0 48 48;" xml:space="preserve">
<path d="M14.8,7.5v12.3l3.9-2.3l3.9,2.3V7.5H14.8z M35.2,43.4c-2.2,0-4-0.8-5.5-2.3s-2.3-3.4-2.3-5.5s0.8-4,2.3-5.5s3.4-2.3,5.7-2.3
	c2.1,0,3.9,0.8,5.4,2.3s2.2,3.4,2.2,5.5c0,2.2-0.8,4-2.3,5.5C39.2,42.6,37.3,43.4,35.2,43.4z M33.5,39.2l5.1-3.7l-5.1-3.6
	C33.5,31.8,33.5,39.2,33.5,39.2z M23.8,35.6c0,1.2,0.1,2.3,0.4,3.4c0.3,1.1,0.8,2.1,1.4,3H10.8c-0.7,0-1.4-0.3-1.9-0.8
	C8.3,40.7,8,40,8,39.2V8.8c0-0.8,0.3-1.4,0.8-2C9.4,6.3,10,6,10.8,6h22.5c0.7,0,1.4,0.3,1.9,0.8C35.7,7.4,36,8,36,8.8v15.5
	c-0.1,0-0.2,0-0.3,0s-0.2,0-0.3,0c-3.2,0-5.9,1.1-8.2,3.3C25,29.7,23.8,32.4,23.8,35.6z"/>
</svg>
