<?xml version="1.0" encoding="utf-8"?>
<!-- Generator: Adobe Illustrator 26.3.1, SVG Export Plug-In . SVG Version: 6.00 Build 0)  -->
<svg version="1.1" id="Слой_1" xmlns="http://www.w3.org/2000/svg" xmlns:xlink="http://www.w3.org/1999/xlink" x="0px" y="0px"
	 viewBox="0 0 48 48" style="enable-background:new 0 0 48 48;" xml:space="preserve">
<path d="M24,38c-2.8,0-5.1-0.9-7.1-2.8S14,31,14,28.3h1.5c0,2.3,0.8,4.2,2.5,5.8s3.7,2.4,6,2.4s4.3-0.8,6-2.4s2.5-3.5,2.5-5.8H34
	c0,2.7-1,5-2.9,6.9S26.8,38,24,38z M23.9,30.1l-6.6-6.6l1.1-1.1l4.8,4.8V12.4h1.5V27l4.7-4.7l1.1,1.1C30.6,23.4,23.9,30.1,23.9,30.1
	z"/>
</svg>
