<?xml version="1.0" encoding="utf-8"?>
<!-- Generator: Adobe Illustrator 26.3.1, SVG Export Plug-In . SVG Version: 6.00 Build 0)  -->
<svg version="1.1" id="Слой_1" xmlns="http://www.w3.org/2000/svg" xmlns:xlink="http://www.w3.org/1999/xlink" x="0px" y="0px"
	 viewBox="0 0 48 48" style="enable-background:new 0 0 48 48;" xml:space="preserve">
<path d="M5.5,20.8L14.1,6l8.5,14.9H5.5V20.8z M14.1,41c-1.9,0-3.6-0.7-5-2C7.7,37.6,7,36,7,34s0.7-3.6,2.1-5s3-2,5-2s3.6,0.7,5,2
	c1.4,1.4,2,3,2,5s-0.7,3.6-2,5C17.8,40.4,16.1,41,14.1,41z M27,41V27h14.1v14H27z M28.1,20.5L27,19.4l6-6l-6-6l1.1-1.1l6,6l6-6
	l1,1.1l-6,6l6,6l-1,1.1l-6-6L28.1,20.5z"/>
</svg>
