<?xml version="1.0" encoding="utf-8"?>
<!-- Generator: Adobe Illustrator 26.3.1, SVG Export Plug-In . SVG Version: 6.00 Build 0)  -->
<svg version="1.1" id="Слой_1" xmlns="http://www.w3.org/2000/svg" xmlns:xlink="http://www.w3.org/1999/xlink" x="0px" y="0px"
	 viewBox="0 0 48 48" style="enable-background:new 0 0 48 48;" xml:space="preserve">
<path d="M37.5,18.3l-5.6-5.6l-4.7,4.7L24,14.3L29.3,9c0.3-0.3,0.6-0.5,0.9-0.6s0.7-0.2,1-0.2s0.7,0.1,1,0.2c0.4,0.1,0.7,0.3,0.9,0.6
	l3.5,3.5c0.4,0.4,0.8,1,1,1.5c0.2,0.6,0.3,1.1,0.4,1.7c0,0.4,0,0.9-0.1,1.3C37.9,17.5,37.7,18,37.5,18.3z M14.9,26.6
	c-0.4-0.4-0.7-1-0.7-1.6c0-0.7,0.2-1.2,0.7-1.7l4.1-4l3.3,3.2l-4.1,4.1c-0.5,0.5-1,0.7-1.6,0.7C15.9,27.3,15.4,27.1,14.9,26.6z
	 M10.7,40.6c-0.3-0.3-0.4-0.6-0.6-0.9C10,39.3,9.9,39,9.9,38.6s0.1-0.8,0.2-1.1c0.1-0.3,0.3-0.6,0.6-0.9l14-14l-7.4-7.4
	c-0.4-0.4-0.6-0.8-0.5-1.2c0-0.4,0.2-0.9,0.6-1.2c0.4-0.4,0.8-0.6,1.3-0.5c0.5,0,0.9,0.2,1.3,0.6l7.4,7.4l2.8-2.9l4.4,4.4
	c0.2,0.2,0.3,0.3,0.3,0.5s-0.1,0.4-0.3,0.5c-0.2,0.2-0.5,0.3-0.7,0.2c-0.2-0.1-0.5-0.3-0.9-0.6L14.6,40.5c-0.3,0.3-0.6,0.5-0.9,0.6
	c-0.3,0.1-0.7,0.2-1.1,0.2c-0.4,0-0.7-0.1-1.1-0.2C11.2,41,10.9,40.8,10.7,40.6z"/>
</svg>
