<?xml version="1.0" encoding="utf-8"?>
<!-- Generator: Adobe Illustrator 26.3.1, SVG Export Plug-In . SVG Version: 6.00 Build 0)  -->
<svg version="1.1" id="Слой_1" xmlns="http://www.w3.org/2000/svg" xmlns:xlink="http://www.w3.org/1999/xlink" x="0px" y="0px"
	 viewBox="0 0 48 48" style="enable-background:new 0 0 48 48;" xml:space="preserve">
<path d="M34.2,29.4l8.1-8l1.1,1.1l-8,8.1L34.2,29.4z M5.3,37.3V33c0-0.5,0.2-1,0.5-1.4s0.7-0.7,1.2-1c1-0.4,1.9-0.9,2.8-1.4
	c0.9-0.5,1.8-1.1,2.6-1.8L14,29c0.1,0.2,0.3,0.3,0.6,0.3c0.2,0,0.5-0.1,0.7-0.3c0.2-0.2,0.2-0.4,0.2-0.6s-0.1-0.4-0.2-0.6l-1.5-1.5
	c0.2-0.2,0.4-0.4,0.6-0.6c0.2-0.2,0.4-0.4,0.7-0.7l1.4,1.5c0.1,0.2,0.3,0.3,0.6,0.2c0.2,0,0.5-0.1,0.7-0.3C18,26.2,18,26,18,25.8
	s-0.1-0.5-0.2-0.7L16,23.3c0.2-0.2,0.4-0.4,0.6-0.7c0.2-0.3,0.3-0.5,0.5-0.8l1.9,2c0.1,0.2,0.3,0.3,0.6,0.3c0.2,0,0.5-0.1,0.7-0.3
	c0.2-0.2,0.2-0.4,0.2-0.6s-0.1-0.5-0.2-0.7l-2.5-2.4l2.5-4L29.1,8l11.4,11.4L22.2,37.3H5.3z"/>
</svg>
