<?xml version="1.0" encoding="utf-8"?>
<!-- Generator: Adobe Illustrator 26.3.1, SVG Export Plug-In . SVG Version: 6.00 Build 0)  -->
<svg version="1.1" id="Слой_1" xmlns="http://www.w3.org/2000/svg" xmlns:xlink="http://www.w3.org/1999/xlink" x="0px" y="0px"
	 viewBox="0 0 48 48" style="enable-background:new 0 0 48 48;" xml:space="preserve">
<path d="M9.9,29L8.2,18h5.2c0.2-1.4,0.8-2.5,1.7-3.6c0.9-1,2-1.8,3.3-2.2c0-0.1,0-0.1,0-0.2v-0.2c0-0.8,0.2-1.5,0.8-2
	C19.5,9.3,20.2,9,21,9s1.4,0.3,2,0.8c0.5,0.5,0.8,1.2,0.8,2s-0.3,1.4-0.8,2c-0.5,0.5-1.2,0.8-2,0.8c-0.4,0-0.8-0.1-1.2-0.2
	c-0.4-0.2-0.7-0.4-0.9-0.7c-1,0.4-1.9,1-2.6,1.7c-0.7,0.8-1.2,1.7-1.4,2.7h25l-1.7,11h-6l0.2-1.2c0.1-1.4-0.2-2.6-0.9-3.4
	c-0.7-0.9-1.6-1.3-2.7-1.3h-9.5c-1.1,0-2,0.4-2.7,1.3c-0.7,0.9-1,2-0.9,3.4l0.2,1.2C15.8,29,9.9,29,9.9,29z M18.6,39.1l-1.2-12.2
	c-0.1-0.5,0.1-1,0.5-1.4s0.8-0.6,1.4-0.6h9.5c0.5,0,1,0.2,1.4,0.6s0.5,0.9,0.5,1.4l-1.2,12.2H18.6z"/>
</svg>
