<?xml version="1.0" encoding="utf-8"?>
<!-- Generator: Adobe Illustrator 26.3.1, SVG Export Plug-In . SVG Version: 6.00 Build 0)  -->
<svg version="1.1" id="Слой_1" xmlns="http://www.w3.org/2000/svg" xmlns:xlink="http://www.w3.org/1999/xlink" x="0px" y="0px"
	 viewBox="0 0 48 48" style="enable-background:new 0 0 48 48;" xml:space="preserve">
<path d="M24,42c-2.5,0-4.8-0.5-7-1.4s-4.1-2.2-5.7-3.9c-1.6-1.6-2.9-3.5-3.9-5.7C6.5,28.8,6,26.5,6,24s0.5-4.8,1.4-7
	s2.2-4.1,3.9-5.7c1.6-1.6,3.5-2.9,5.7-3.9C19.2,6.5,21.5,6,24,6s4.8,0.5,7,1.4s4.1,2.2,5.7,3.9c1.6,1.6,2.9,3.5,3.9,5.7
	c0.9,2.2,1.4,4.5,1.4,7s-0.5,4.8-1.4,7s-2.2,4.1-3.9,5.7c-1.6,1.6-3.5,2.9-5.7,3.9C28.8,41.5,26.5,42,24,42z M23.2,40.5v-4.3
	c-1.4-0.1-2.7-0.4-4-0.9c-1.2-0.5-2.3-1.2-3.3-2.1l-3.1,3c1.4,1.3,3,2.3,4.7,3.1C19.3,40,21.2,40.4,23.2,40.5z M24.8,40.5
	c2-0.1,3.9-0.5,5.6-1.3c1.7-0.8,3.3-1.8,4.7-3.1l-3-3c-1,0.9-2.1,1.6-3.4,2.1c-1.2,0.5-2.6,0.8-4,0.9C24.8,36.2,24.8,40.5,24.8,40.5
	z M24,34.7c3,0,5.5-1,7.6-3.1s3.1-4.6,3.1-7.6s-1-5.5-3.1-7.6S27,13.3,24,13.3s-5.5,1-7.6,3.1S13.3,21,13.3,24s1,5.5,3.1,7.6
	S21,34.7,24,34.7z M36.2,35.1c1.3-1.4,2.3-3,3.1-4.7c0.8-1.8,1.2-3.6,1.3-5.6h-4.3c-0.1,1.4-0.4,2.7-0.9,4c-0.5,1.2-1.2,2.3-2.1,3.3
	C33.2,32.1,36.2,35.1,36.2,35.1z M11.8,35.1l3-3c-0.9-1-1.6-2.1-2.1-3.4c-0.5-1.2-0.8-2.6-0.9-4H7.5c0.1,2,0.5,3.9,1.3,5.6
	C9.5,32.2,10.6,33.7,11.8,35.1z M24,30.5L19.1,24l4.9-6.5l4.9,6.5L24,30.5z M7.5,23.2h4.3c0.1-1.4,0.4-2.7,0.9-4
	c0.5-1.2,1.2-2.4,2.1-3.4l-3-3c-1.3,1.4-2.3,3-3.1,4.7C8,19.4,7.6,21.2,7.5,23.2z M36.2,23.2h4.3c-0.1-2-0.5-3.9-1.3-5.6
	s-1.8-3.3-3-4.7l-3,3c0.9,1,1.6,2.1,2.1,3.4C35.8,20.5,36.1,21.8,36.2,23.2z M15.9,14.8c1-0.9,2.1-1.6,3.4-2.1
	c1.2-0.5,2.6-0.8,4-0.9V7.5c-2,0.1-3.9,0.5-5.6,1.3c-1.8,0.8-3.3,1.8-4.7,3.1C12.9,11.8,15.9,14.8,15.9,14.8z M32.1,14.8l3-3
	c-1.4-1.3-3-2.3-4.7-3c-1.7-0.8-3.6-1.2-5.6-1.3v4.3c1.4,0.1,2.7,0.4,4,0.9C30,13.2,31.1,14,32.1,14.8z"/>
</svg>
