<?xml version="1.0" encoding="utf-8"?>
<!-- Generator: Adobe Illustrator 26.3.1, SVG Export Plug-In . SVG Version: 6.00 Build 0)  -->
<svg version="1.1" id="Слой_1" xmlns="http://www.w3.org/2000/svg" xmlns:xlink="http://www.w3.org/1999/xlink" x="0px" y="0px"
	 viewBox="0 0 48 48" style="enable-background:new 0 0 48 48;" xml:space="preserve">
<path d="M24,41.9c-4-1.2-7.4-3.6-10-7.4c-2.7-3.7-4-7.9-4-12.5V11.4l14-5.2l14,5.2v10.7c0,2-0.3,4-0.9,5.8c-0.6,1.9-1.4,3.7-2.3,5.4
	l-6.1-6c0.3-0.5,0.6-1,0.8-1.6c0.2-0.6,0.3-1.2,0.3-1.8c0-1.6-0.6-3-1.7-4.1s-2.5-1.7-4.1-1.7s-3,0.6-4.1,1.7s-1.7,2.5-1.7,4.1
	s0.6,3,1.7,4.1s2.5,1.7,4.1,1.7c0.7,0,1.3-0.1,1.9-0.3c0.6-0.2,1.2-0.5,1.7-0.9l6.2,6.2c-1.4,1.7-2.9,3.2-4.4,4.5S26,41.3,24,41.9z
	 M24,28.1c-1.2,0-2.1-0.4-3-1.2c-0.8-0.8-1.2-1.8-1.2-3s0.4-2.2,1.2-3c0.8-0.8,1.8-1.2,3-1.2s2.1,0.4,3,1.2c0.8,0.8,1.2,1.8,1.2,3
	s-0.4,2.2-1.2,3C26.1,27.7,25.2,28.1,24,28.1z"/>
</svg>
