<?xml version="1.0" encoding="utf-8"?>
<!-- Generator: Adobe Illustrator 26.3.1, SVG Export Plug-In . SVG Version: 6.00 Build 0)  -->
<svg version="1.1" id="Слой_1" xmlns="http://www.w3.org/2000/svg" xmlns:xlink="http://www.w3.org/1999/xlink" x="0px" y="0px"
	 viewBox="0 0 48 48" style="enable-background:new 0 0 48 48;" xml:space="preserve">
<path d="M5,40.9v-1.7c1-0.2,1.8-0.5,2.5-1s1.7-0.8,3.1-0.8s2.5,0.3,3.4,1s2,1,3.4,1s2.5-0.3,3.3-1s1.9-1,3.3-1s2.6,0.3,3.5,1
	s2,1,3.4,1c1.4,0,2.5-0.3,3.3-1s1.9-1,3.3-1c1.4,0,2.4,0.3,3.1,0.8c0.7,0.5,1.5,0.9,2.5,1v1.7c-0.8-0.2-1.6-0.6-2.4-1.1
	c-0.8-0.6-1.8-0.8-3.1-0.8s-2.3,0.3-3.1,1s-2,1-3.4,1c-1.5,0-2.6-0.3-3.6-1c-0.9-0.7-2-1-3.3-1s-2.3,0.3-3.2,1c-0.9,0.7-2,1-3.5,1
	s-2.6-0.3-3.5-1s-1.9-1-3.2-1s-2.3,0.3-3.1,0.8C6.7,40.3,5.8,40.7,5,40.9z M5,31.8v-1.6c1-0.2,1.8-0.5,2.5-1s1.7-0.8,3.1-0.8
	s2.5,0.3,3.4,1c0.8,0.7,2,1,3.3,1c1.4,0,2.5-0.3,3.3-1s2-1,3.4-1s2.5,0.3,3.4,1c0.8,0.7,2,1,3.3,1c1.4,0,2.5-0.3,3.4-1s2-1,3.3-1
	c1.4,0,2.4,0.3,3.1,0.8c0.7,0.5,1.5,0.9,2.5,1v1.6c-0.8-0.2-1.6-0.6-2.4-1.1c-0.8-0.6-1.8-0.8-3.1-0.8s-2.3,0.3-3.2,1
	c-0.8,0.7-2,1-3.4,1s-2.6-0.3-3.6-1c-0.9-0.7-2-1-3.3-1s-2.3,0.3-3.2,1c-0.9,0.7-2,1-3.4,1s-2.6-0.3-3.5-1s-2-1-3.3-1
	S8.3,30,7.5,30.6S5.8,31.6,5,31.8z M15.9,22l6.5-6.5L19,12.2c-1.1-1.1-2.2-1.8-3.2-2.2c-1.1-0.4-2.5-0.6-4.2-0.7V7
	c2,0.1,3.7,0.4,5.1,0.9c1.3,0.5,2.7,1.5,4,2.8l11.6,11.6c-0.2,0.2-0.4,0.3-0.6,0.4c-0.3,0.1-0.5,0.1-0.8,0.1c-0.9,0-1.8-0.3-2.8-1
	s-2.3-1-3.9-1s-3,0.3-3.9,1c-1,0.7-1.9,1-2.8,1c-0.3,0-0.6-0.1-0.9-0.2C16.2,22.4,16,22.3,15.9,22z M32.9,7.5c1.2,0,2.1,0.4,2.9,1.2
	c0.8,0.8,1.2,1.8,1.2,2.9c0,1.2-0.4,2.1-1.2,2.9c-0.8,0.8-1.8,1.2-2.9,1.2c-1.2,0-2.1-0.4-2.9-1.2s-1.2-1.8-1.2-2.9
	c0-1.2,0.4-2.1,1.2-2.9C30.7,7.9,31.7,7.5,32.9,7.5z"/>
</svg>
