<?xml version="1.0" encoding="utf-8"?>
<!-- Generator: Adobe Illustrator 26.3.1, SVG Export Plug-In . SVG Version: 6.00 Build 0)  -->
<svg version="1.1" id="Слой_1" xmlns="http://www.w3.org/2000/svg" xmlns:xlink="http://www.w3.org/1999/xlink" x="0px" y="0px"
	 viewBox="0 0 48 48" style="enable-background:new 0 0 48 48;" xml:space="preserve">
<path d="M17.7,42c-0.6,0-1.2-0.2-1.7-0.6c-0.5-0.4-0.8-0.9-1-1.5l-2.2-8.7h22.5L33,39.9c-0.2,0.6-0.5,1.1-1,1.5S31,42,30.3,42H17.7z
	 M24,17.3c0.3-2.4,1.4-4.6,3.3-6.5s4.1-3,6.5-3.3c-0.3,2.3-1.3,4.4-3.1,6.2c-1.8,1.8-3.8,3-6,3.5v5h14.5v4.9c0,0.8-0.3,1.4-0.8,2
	c-0.5,0.5-1.2,0.8-2,0.8h-25c-0.8,0-1.4-0.3-2-0.8c-0.5-0.5-0.8-1.2-0.8-2v-4.9h14.5v-5c-2.2-0.5-4.2-1.7-6-3.5
	c-1.7-1.8-2.8-3.9-3.1-6.2c2.4,0.3,4.6,1.4,6.5,3.3C22.6,12.7,23.7,14.9,24,17.3z"/>
</svg>
