<?xml version="1.0" encoding="utf-8"?>
<!-- Generator: Adobe Illustrator 26.3.1, SVG Export Plug-In . SVG Version: 6.00 Build 0)  -->
<svg version="1.1" id="Слой_1" xmlns="http://www.w3.org/2000/svg" xmlns:xlink="http://www.w3.org/1999/xlink" x="0px" y="0px"
	 viewBox="0 0 48 48" style="enable-background:new 0 0 48 48;" xml:space="preserve">
<path d="M23.2,26.1V7.6h1.5v18.5H23.2z M24,40.1c-2.2,0-4.3-0.4-6.2-1.3c-1.9-0.8-3.6-2-5.1-3.4s-2.6-3.1-3.4-5.1
	c-0.8-2-1.3-4-1.3-6.2c0-2.4,0.5-4.7,1.5-6.8s2.5-3.9,4.3-5.5l1.1,1.1c-1.7,1.3-3,3-4,4.9c-0.9,1.9-1.4,4-1.4,6.2
	c0,4,1.4,7.4,4.2,10.2s6.2,4.2,10.2,4.2s7.4-1.4,10.2-4.2S38.3,28,38.3,24c0-2.2-0.5-4.3-1.4-6.3s-2.3-3.6-4-4.9l1.2-1.1
	c1.8,1.5,3.2,3.3,4.3,5.4c1,2.1,1.5,4.4,1.5,6.8c0,2.2-0.4,4.3-1.3,6.2c-0.8,2-2,3.6-3.4,5.1c-1.5,1.4-3.1,2.6-5.1,3.4
	C28.3,39.6,26.2,40.1,24,40.1z"/>
</svg>
