<?xml version="1.0" encoding="utf-8"?>
<!-- Generator: Adobe Illustrator 26.3.1, SVG Export Plug-In . SVG Version: 6.00 Build 0)  -->
<svg version="1.1" id="Слой_1" xmlns="http://www.w3.org/2000/svg" xmlns:xlink="http://www.w3.org/1999/xlink" x="0px" y="0px"
	 viewBox="0 0 48 48" style="enable-background:new 0 0 48 48;" xml:space="preserve">
<path d="M20.6,40v-5.2l-6.6-7V19c0-0.6,0.2-1,0.5-1.5c0.3-0.4,0.8-0.7,1.5-0.8V19L3.9,6.9L5,5.8l37.1,37.1L41,44L29.5,32.5l-2.1,2.2
	V40H20.6z M33.3,29.2L19.2,15.1V8h1.5v8.2h6.5V8h1.5v9L28,16.2h3.2c0.8,0,1.4,0.3,2,0.8c0.5,0.5,0.8,1.2,0.8,2v9.3
	C34,28.4,33.3,29.2,33.3,29.2z"/>
</svg>
