<?xml version="1.0" encoding="utf-8"?>
<!-- Generator: Adobe Illustrator 26.3.1, SVG Export Plug-In . SVG Version: 6.00 Build 0)  -->
<svg version="1.1" id="Слой_1" xmlns="http://www.w3.org/2000/svg" xmlns:xlink="http://www.w3.org/1999/xlink" x="0px" y="0px"
	 viewBox="0 0 48 48" style="enable-background:new 0 0 48 48;" xml:space="preserve">
<path d="M24,43.8L18.1,38H10v-8.1L4.1,24l5.9-5.9V10h8.1L24,4.1l5.9,5.9H38v8.1l5.9,5.9L38,29.9V38h-8.1L24,43.8z M25.7,23.2
	l2.5-1.8l2.4,1.8l-1-2.9l2.5-1.8H29l-0.9-2.9l-0.9,2.9h-3.1l2.5,1.8C26.7,20.3,25.7,23.2,25.7,23.2z M24,32.5c2.3,0,4.3-0.8,6-2.5
	c1.7-1.6,2.5-3.6,2.5-6c0-0.2,0-0.5,0-0.7s-0.1-0.4-0.1-0.7c-0.3,1.3-1,2.4-2.1,3.3s-2.3,1.3-3.8,1.3c-1.7,0-3.1-0.6-4.3-1.7
	c-1.2-1.2-1.7-2.6-1.7-4.2c0-1.3,0.4-2.5,1.1-3.5c0.8-1,1.7-1.7,2.9-2.2H24c-2.4,0-4.4,0.8-6,2.5c-1.6,1.6-2.5,3.6-2.5,6
	s0.8,4.4,2.5,6C19.6,31.6,21.6,32.5,24,32.5z"/>
</svg>
