<?xml version="1.0" encoding="utf-8"?>
<!-- Generator: Adobe Illustrator 26.3.1, SVG Export Plug-In . SVG Version: 6.00 Build 0)  -->
<svg version="1.1" id="Слой_1" xmlns="http://www.w3.org/2000/svg" xmlns:xlink="http://www.w3.org/1999/xlink" x="0px" y="0px"
	 viewBox="0 0 48 48" style="enable-background:new 0 0 48 48;" xml:space="preserve">
<path d="M21.7,43V32.5H18v-14c0-1.1,0.3-2,1-2.7s1.6-1,2.7-1s2,0.4,2.6,1.1c0.6,0.7,1,1.6,1,2.6c1.5,0.2,2.6,0.8,3.5,1.9
	s1.3,2.3,1.3,3.8v8.2h-6.3V43H21.7z M21.7,11.2c-0.9,0-1.7-0.3-2.3-0.9c-0.6-0.6-0.9-1.4-0.9-2.3s0.3-1.7,0.9-2.3s1.4-0.9,2.3-0.9
	s1.7,0.3,2.3,0.9c0.6,0.6,0.9,1.4,0.9,2.3s-0.3,1.7-0.9,2.3C23.4,10.9,22.6,11.2,21.7,11.2z"/>
</svg>
