<?xml version="1.0" encoding="utf-8"?>
<!-- Generator: Adobe Illustrator 26.3.1, SVG Export Plug-In . SVG Version: 6.00 Build 0)  -->
<svg version="1.1" id="Слой_1" xmlns="http://www.w3.org/2000/svg" xmlns:xlink="http://www.w3.org/1999/xlink" x="0px" y="0px"
	 viewBox="0 0 48 48" style="enable-background:new 0 0 48 48;" xml:space="preserve">
<path d="M36.1,43.8l3.2-3.2l-7.7-7.7l-3.2,3.2c-1.1,1.1-1.6,2.4-1.6,3.9s0.5,2.8,1.6,3.9c1.1,1.1,2.4,1.6,3.9,1.6
	C33.8,45.4,35.1,44.9,36.1,43.8z M40.4,39.5l3.2-3.2c1.1-1.1,1.6-2.4,1.6-3.9s-0.5-2.8-1.6-3.9s-2.3-1.6-3.9-1.6
	c-1.5,0-2.8,0.5-3.9,1.6l-3.2,3.2C32.7,31.8,40.4,39.5,40.4,39.5z M15,17h18v-1.5H15V17z M24,8.7c0.4,0,0.8-0.2,1.1-0.5
	c0.3-0.3,0.5-0.7,0.5-1.2c0-0.4-0.2-0.8-0.5-1.1c-0.3-0.3-0.7-0.5-1.1-0.5s-0.8,0.2-1.1,0.5c-0.3,0.3-0.5,0.7-0.5,1.1
	c0,0.5,0.2,0.9,0.5,1.2C23.2,8.6,23.6,8.7,24,8.7z M21.9,40H10.8c-0.8,0-1.4-0.3-2-0.8C8.3,38.6,8,38,8,37.2V10.8
	c0-0.8,0.3-1.4,0.8-2C9.4,8.3,10,8,10.8,8H21c-0.3-1-0.1-1.9,0.5-2.7C22.1,4.4,23,4,24,4c1.1,0,1.9,0.4,2.5,1.3
	C27.2,6.1,27.3,7,27,8h10.2c0.8,0,1.4,0.3,2,0.8c0.5,0.5,0.8,1.2,0.8,2V22c-1.3-0.1-2.5,0.1-3.7,0.5s-2.3,1-3.3,1.8v-1.1H15v1.5
	h17.5L26.3,31H15v1.5h9.8c-1,1-1.7,2.1-2.2,3.4C22.1,37.3,21.9,38.6,21.9,40z"/>
</svg>
