<?xml version="1.0" encoding="utf-8"?>
<!-- Generator: Adobe Illustrator 26.3.1, SVG Export Plug-In . SVG Version: 6.00 Build 0)  -->
<svg version="1.1" id="Слой_1" xmlns="http://www.w3.org/2000/svg" xmlns:xlink="http://www.w3.org/1999/xlink" x="0px" y="0px"
	 viewBox="0 0 48 48" style="enable-background:new 0 0 48 48;" xml:space="preserve">
<path d="M6,38V10h36v28H6z M17.1,33.1h1.5V31h2.7c0.4,0,0.7-0.1,1-0.4s0.4-0.6,0.4-1v-4.9c0-0.4-0.1-0.8-0.4-1.1s-0.6-0.4-1-0.4
	h-6.8v-4.6h8.2V17h-4.1v-2.1h-1.5V17h-2.6c-0.4,0-0.8,0.1-1.1,0.4S13,18.1,13,18.5v4.8c0,0.4,0.1,0.8,0.4,1c0.3,0.3,0.7,0.4,1.1,0.4
	h6.7v4.8H13V31h4.2C17.1,31,17.1,33.1,17.1,33.1z M32.2,32l2.6-2.6h-5.2L32.2,32z M29.6,19.1h5.2l-2.6-2.6L29.6,19.1z"/>
</svg>
