<?xml version="1.0" encoding="utf-8"?>
<!-- Generator: Adobe Illustrator 26.3.1, SVG Export Plug-In . SVG Version: 6.00 Build 0)  -->
<svg version="1.1" id="Слой_1" xmlns="http://www.w3.org/2000/svg" xmlns:xlink="http://www.w3.org/1999/xlink" x="0px" y="0px"
	 viewBox="0 0 48 48" style="enable-background:new 0 0 48 48;" xml:space="preserve">
<path d="M14.2,29v-2.1H9v-1.5h10.5v-6.6h-9.1c-0.3,0-0.6-0.1-0.9-0.4c-0.3-0.3-0.4-0.6-0.4-1v-7c-0.1-0.4,0-0.7,0.3-1
	C9.6,9.2,10,9,10.3,9h3.9V7h1.5v2.1H21v1.5H10.5v6.6h9.1c0.4,0,0.7,0.1,0.9,0.4c0.3,0.2,0.4,0.6,0.4,1v7c0,0.4-0.1,0.7-0.4,0.9
	c-0.2,0.2-0.6,0.4-0.9,0.4h-3.9V29C15.8,29,14.2,29,14.2,29z M27.9,40.6l-7.1-7.1l1.1-1.1l6,6l11.7-11.7l1.1,1.1L27.9,40.6z"/>
</svg>
