<?xml version="1.0" encoding="utf-8"?>
<!-- Generator: Adobe Illustrator 26.3.1, SVG Export Plug-In . SVG Version: 6.00 Build 0)  -->
<svg version="1.1" id="Слой_1" xmlns="http://www.w3.org/2000/svg" xmlns:xlink="http://www.w3.org/1999/xlink" x="0px" y="0px"
	 viewBox="0 0 48 48" style="enable-background:new 0 0 48 48;" xml:space="preserve">
<path d="M14,40v-8.4H7.2V20.7c0-1,0.4-1.9,1.1-2.6S9.9,17,10.9,17h26.3c1,0,1.9,0.4,2.6,1.1c0.7,0.7,1.1,1.6,1.1,2.6v2.9
	c-0.4-0.2-0.8-0.3-1.2-0.4s-0.9-0.1-1.4-0.1c-2,0-3.9,0.5-5.5,1.5c-1.7,1-3,2.3-4.1,4.1h-13v9.8H28c0.1,0.3,0.2,0.6,0.4,0.8
	c0.2,0.3,0.3,0.5,0.5,0.7H14z M14.1,15.8V9.2H34v6.5C33.9,15.8,14.1,15.8,14.1,15.8z M37.5,41.1v-6h-6v-1.5h6v-6H39v6h6v1.5h-6v6
	H37.5z"/>
</svg>
