<?xml version="1.0" encoding="utf-8"?>
<!-- Generator: Adobe Illustrator 26.3.1, SVG Export Plug-In . SVG Version: 6.00 Build 0)  -->
<svg version="1.1" id="Слой_1" xmlns="http://www.w3.org/2000/svg" xmlns:xlink="http://www.w3.org/1999/xlink" x="0px" y="0px"
	 viewBox="0 0 48 48" style="enable-background:new 0 0 48 48;" xml:space="preserve">
<path d="M33.3,40c-0.4,0-0.8-0.1-1.1-0.4c-0.3-0.3-0.4-0.7-0.4-1.1v-5.4c0-0.4,0.2-0.8,0.5-1c0.4-0.3,0.8-0.4,1.3-0.4v-2.1
	c0-0.9,0.3-1.7,1-2.3c0.6-0.6,1.4-1,2.3-1c0.9,0,1.7,0.3,2.3,1c0.6,0.6,0.9,1.4,0.9,2.3v2.1c0.5,0,0.9,0.1,1.3,0.4
	c0.4,0.3,0.5,0.6,0.5,1v5.4c0,0.4-0.1,0.8-0.4,1.1c-0.3,0.3-0.6,0.4-1,0.4H33.3z M34.9,31.7h4v-2.1c0-0.6-0.2-1.1-0.5-1.4
	c-0.4-0.4-0.8-0.5-1.4-0.5s-1.1,0.2-1.4,0.6c-0.4,0.4-0.6,0.9-0.6,1.4L34.9,31.7L34.9,31.7z M14,40v-8.4H7.2V20.7
	c0-1,0.4-1.9,1.1-2.6S9.9,17,10.9,17h26.3c1,0,1.9,0.4,2.6,1.1c0.7,0.7,1.1,1.6,1.1,2.6v2.9c-0.4-0.2-0.8-0.3-1.2-0.4
	s-0.9-0.1-1.4-0.1c-2,0-3.9,0.5-5.5,1.5c-1.7,1-3,2.3-4.1,4.1h-13v9.8H28c0.1,0.3,0.2,0.6,0.4,0.8c0.2,0.3,0.3,0.5,0.5,0.7H14z
	 M14.1,15.8V9.2H34v6.5C33.9,15.8,14.1,15.8,14.1,15.8z"/>
</svg>
