<?xml version="1.0" encoding="utf-8"?>
<!-- Generator: Adobe Illustrator 26.3.1, SVG Export Plug-In . SVG Version: 6.00 Build 0)  -->
<svg version="1.1" id="Слой_1" xmlns="http://www.w3.org/2000/svg" xmlns:xlink="http://www.w3.org/1999/xlink" x="0px" y="0px"
	 viewBox="0 0 48 48" style="enable-background:new 0 0 48 48;" xml:space="preserve">
<path d="M40.2,42.4L34,36.2V40H14.1v-8.4H7.2V20.7c0-1,0.4-1.9,1.1-2.6S9.9,17,10.9,17h4L5.6,7.8l1.1-1.1l34.5,34.5
	C41.3,41.3,40.2,42.4,40.2,42.4z M15.6,38.5h16.8v-3.8l-6-6H15.6V38.5z M36.6,31.6L22,17.1h15.1c1,0,1.9,0.4,2.6,1.1
	c0.7,0.7,1.1,1.6,1.1,2.6v10.9C40.8,31.6,36.6,31.6,36.6,31.6z M32.4,15.8H20.7l-6.5-6.5h19.7v6.5H32.4z M35.7,23.5
	c0.5,0,0.9-0.2,1.2-0.5c0.4-0.4,0.5-0.8,0.5-1.2c0-0.5-0.2-0.9-0.5-1.2s-0.8-0.5-1.2-0.5c-0.5,0-0.9,0.2-1.3,0.5
	c-0.3,0.4-0.5,0.8-0.5,1.2c0,0.5,0.2,0.9,0.5,1.2C34.8,23.3,35.2,23.5,35.7,23.5z"/>
</svg>
