<?xml version="1.0" encoding="utf-8"?>
<!-- Generator: Adobe Illustrator 26.3.1, SVG Export Plug-In . SVG Version: 6.00 Build 0)  -->
<svg version="1.1" id="Слой_1" xmlns="http://www.w3.org/2000/svg" xmlns:xlink="http://www.w3.org/1999/xlink" x="0px" y="0px"
	 viewBox="0 0 48 48" style="enable-background:new 0 0 48 48;" xml:space="preserve">
<path d="M33.9,15.8H14.1V9.2H34C33.9,9.2,33.9,15.8,33.9,15.8z M35.7,23.5c0.5,0,0.9-0.2,1.3-0.5c0.4-0.4,0.5-0.8,0.5-1.2
	c0-0.5-0.2-0.9-0.5-1.2s-0.8-0.5-1.2-0.5c-0.5,0-0.9,0.2-1.3,0.5C34.2,21,34,21.4,34,21.8c0,0.5,0.2,0.9,0.5,1.2
	C34.8,23.3,35.2,23.5,35.7,23.5z M32.4,38.5v-9.8H15.6v9.8H32.4z M33.9,40H14.1v-8.4H7.2V20.7c0-1,0.4-1.9,1.1-2.6S9.9,17,10.9,17
	h26.3c1,0,1.9,0.4,2.6,1.1c0.7,0.7,1.1,1.6,1.1,2.6v10.9H34L33.9,40L33.9,40z"/>
</svg>
