<?xml version="1.0" encoding="utf-8"?>
<!-- Generator: Adobe Illustrator 26.3.1, SVG Export Plug-In . SVG Version: 6.00 Build 0)  -->
<svg version="1.1" id="Слой_1" xmlns="http://www.w3.org/2000/svg" xmlns:xlink="http://www.w3.org/1999/xlink" x="0px" y="0px"
	 viewBox="0 0 48 48" style="enable-background:new 0 0 48 48;" xml:space="preserve">
<path d="M24,36c-3.2,0-5.9-1.1-8.2-3.3s-3.5-4.8-3.7-8H4.8v-1.5H12c0.2-3.1,1.4-5.8,3.7-8s5-3.3,8.2-3.3s5.9,1.1,8.2,3.3
	s3.5,4.8,3.7,8h7.3v1.5H36c-0.2,3.1-1.4,5.8-3.7,8C29.9,34.9,27.2,36,24,36z M20.1,30.4H28c0.5,0,0.9-0.2,1.2-0.5
	c0.3-0.3,0.5-0.7,0.5-1.2v-5.9c0-0.5-0.2-0.9-0.5-1.2c-0.3-0.3-0.8-0.5-1.2-0.5h-0.2v-1.7c0-1-0.4-1.9-1.1-2.7
	c-0.7-0.8-1.6-1.2-2.6-1.2s-1.9,0.4-2.6,1.1c-0.7,0.7-1.1,1.6-1.1,2.7v1.8h-0.2c-0.5,0-0.9,0.2-1.2,0.5c-0.3,0.3-0.5,0.7-0.5,1.2
	v5.9c0,0.5,0.2,0.9,0.5,1.2C19.2,30.2,19.6,30.4,20.1,30.4z M24,27.2c-0.4,0-0.7-0.1-1-0.4s-0.4-0.6-0.4-1s0.1-0.7,0.4-1
	s0.6-0.4,1-0.4s0.7,0.1,1,0.4s0.4,0.6,0.4,1s-0.1,0.7-0.4,1S24.4,27.2,24,27.2z M21.6,21.1v-1.8c0-0.7,0.2-1.2,0.7-1.7
	s1-0.7,1.7-0.7s1.2,0.2,1.7,0.7s0.7,1.1,0.7,1.7v1.8C26.4,21.1,21.6,21.1,21.6,21.1z"/>
</svg>
