<?xml version="1.0" encoding="utf-8"?>
<!-- Generator: Adobe Illustrator 26.3.1, SVG Export Plug-In . SVG Version: 6.00 Build 0)  -->
<svg version="1.1" id="Слой_1" xmlns="http://www.w3.org/2000/svg" xmlns:xlink="http://www.w3.org/1999/xlink" x="0px" y="0px"
	 viewBox="0 0 48 48" style="enable-background:new 0 0 48 48;" xml:space="preserve">
<path d="M39.4,41.9L5.1,7.7l1.1-1.1l34.3,34.3L39.4,41.9z M41.2,31.2l-6.1-6.1v5.3L24,19.3v-1.5c0-0.8-0.3-1.5-0.9-2.1
	s-1.3-0.9-2.1-0.9c-0.2,0-0.4,0-0.7,0.1c-0.2,0-0.4,0.1-0.7,0.1l-5-5h17.6c0.8,0,1.4,0.3,2,0.8c0.5,0.5,0.8,1.2,0.8,2v10.1l6.1-6.1
	v14.4H41.2z M9.8,38c-0.8,0-1.4-0.3-2-0.8C7.3,36.7,7,36,7,35.2V12.8c0-0.7,0.2-1.3,0.6-1.8s1-0.8,1.6-0.9h0.4L35,35.3v0.5
	c-0.1,0.6-0.4,1.1-0.9,1.6C33.6,37.8,33,38,32.3,38H21.9v-5.6c1.2-0.1,2.3-0.5,3.3-1c1-0.6,1.9-1.3,2.6-2.3l-1.2-1.2
	c-0.6,0.9-1.4,1.5-2.4,2c-0.9,0.5-2,0.7-3,0.7c-1.7,0-3.3-0.6-4.5-1.7c-1.3-1.2-2-2.6-2.1-4.3h-1.8c0.2,2.1,0.9,3.8,2.4,5.3
	c1.4,1.5,3.2,2.3,5.3,2.5V38H9.8z M18.2,20.7V24c0,0.8,0.3,1.5,0.9,2.1s1.3,0.9,2.1,0.9c0.4,0,0.9-0.1,1.3-0.2
	c0.4-0.2,0.8-0.4,1.1-0.7C23.4,25.9,18.2,20.7,18.2,20.7z"/>
</svg>
