<?xml version="1.0" encoding="utf-8"?>
<!-- Generator: Adobe Illustrator 26.3.1, SVG Export Plug-In . SVG Version: 6.00 Build 0)  -->
<svg version="1.1" id="Слой_1" xmlns="http://www.w3.org/2000/svg" xmlns:xlink="http://www.w3.org/1999/xlink" x="0px" y="0px"
	 viewBox="0 0 48 48" style="enable-background:new 0 0 48 48;" xml:space="preserve">
<path d="M42.6,44.8L35.8,38H7.1l14.3-14.4l-1.1-1.1L6,36.9V25.1l8.4-8.4l-1.1-1.1L6,22.9V12.8c0-0.6,0.2-1.2,0.5-1.6
	c0.4-0.5,0.8-0.8,1.4-1L3.8,6l1.1-1.1l38.8,38.8L42.6,44.8z M42,37L25,20l10-10h4.2c0.8,0,1.4,0.3,2,0.8c0.5,0.5,0.8,1.2,0.8,2V37z
	 M23.9,19L18,13.1l3-3.1h11.8L23.9,19z M17,12l-2-2h3.9L17,12z"/>
</svg>
