<?xml version="1.0" encoding="utf-8"?>
<!-- Generator: Adobe Illustrator 26.3.1, SVG Export Plug-In . SVG Version: 6.00 Build 0)  -->
<svg version="1.1" id="Слой_1" xmlns="http://www.w3.org/2000/svg" xmlns:xlink="http://www.w3.org/1999/xlink" x="0px" y="0px"
	 viewBox="0 0 48 48" style="enable-background:new 0 0 48 48;" xml:space="preserve">
<path d="M36.5,21.5c-1,0-2.1-0.3-3.2-0.9C32.1,19.9,31,19.1,30,18c-1.1-1.1-1.9-2.2-2.5-3.4s-0.9-2.3-0.9-3.3c0-0.3,0-0.5,0.1-0.8
	c0.1-0.2,0.2-0.4,0.3-0.6c0.7-0.7,2.2-1.3,4.5-1.8s4.6-0.7,7.1-0.7c0.4,0,0.7,0,1,0.1s0.5,0.2,0.6,0.3c0.1,0.1,0.2,0.3,0.3,0.6
	c0.1,0.2,0.1,0.5,0.1,0.9c0,2.5-0.2,4.9-0.7,7.2s-1,3.7-1.7,4.4c-0.2,0.2-0.4,0.3-0.6,0.4C37.2,21.4,36.9,21.5,36.5,21.5z
	 M37.7,18.1c0.4-1.1,0.7-2.4,0.9-3.9C38.8,12.7,38.9,11,39,9c-1.7,0-3.4,0-4.9,0.3c-1.5,0.2-2.9,0.5-4.2,1c0.9,0.5,1.8,1,2.5,1.5
	c0.8,0.6,1.5,1.1,2.1,1.7c0.7,0.7,1.4,1.5,1.9,2.2C37,16.5,37.4,17.3,37.7,18.1z M36.8,19.9c-0.3-1-0.7-1.9-1.2-2.8
	s-1.2-1.7-2.1-2.6c-0.9-0.9-1.8-1.6-2.7-2.1c-0.9-0.5-1.8-1-2.6-1.2c0,0.9,0.3,1.9,0.9,2.9c0.6,1.1,1.2,2,2,2.8
	c0.9,0.9,1.8,1.6,2.8,2.1C34.8,19.6,35.8,19.9,36.8,19.9z M42.6,35.7l-8.9-8.9h-20l-9.4-9.4l1.1-1.1l8.9,8.9h20l9.4,9.4L42.6,35.7z
	 M17.2,41.7V35c0-0.8,0.3-1.4,0.8-2c0.5-0.5,1.2-0.8,2-0.8h8c0.8,0,1.4,0.3,2,0.8c0.5,0.5,0.8,1.2,0.8,2v6.8
	C30.8,41.7,17.2,41.7,17.2,41.7z"/>
</svg>
