<?xml version="1.0" encoding="utf-8"?>
<!-- Generator: Adobe Illustrator 26.3.1, SVG Export Plug-In . SVG Version: 6.00 Build 0)  -->
<svg version="1.1" id="Слой_1" xmlns="http://www.w3.org/2000/svg" xmlns:xlink="http://www.w3.org/1999/xlink" x="0px" y="0px"
	 viewBox="0 0 48 48" style="enable-background:new 0 0 48 48;" xml:space="preserve">
<path d="M21.1,15.9c-1.6,0-3-0.6-4.1-1.7s-1.7-2.5-1.7-4.1s0.6-3,1.7-4.1s2.5-1.7,4.1-1.7s3,0.6,4.1,1.7s1.7,2.5,1.7,4.1
	s-0.6,3-1.7,4.1C24.1,15.4,22.8,15.9,21.1,15.9z M29,15.9c0.4-0.6,0.7-1.2,0.9-1.9c0.2-0.7,0.2-1.5,0.1-2.3c0.2-1,0.2-1.9,0-2.9
	S29.5,6.9,29,6c0-0.3,0-0.5-0.1-0.8s-0.2-0.5-0.4-0.8c1.2,0,2.3,0.4,3.2,1.2s1.4,1.8,1.4,2.9c0.5,1.2,0.4,2.3,0,3.4
	c-0.5,1.1-1.3,1.9-2.5,2.4c0,0.5-0.2,0.8-0.5,1.2C29.8,15.8,29.4,15.9,29,15.9z M37.4,36.7c-2.2,0-4-0.8-5.6-2.3
	c-1.5-1.5-2.3-3.4-2.3-5.6s0.8-4.1,2.3-5.6c1.5-1.5,3.4-2.3,5.6-2.3s4.1,0.8,5.6,2.3s2.3,3.4,2.3,5.6s-0.8,4-2.3,5.6
	C41.5,35.9,39.6,36.7,37.4,36.7z M36,33.5l5.4-5.4l-0.9-0.9L36,31.6l-2.3-2.3l-0.9,0.9C32.8,30.3,36,33.5,36,33.5z M7.1,30.4v-2.9
	c0-0.9,0.2-1.7,0.7-2.4c0.5-0.7,1.2-1.2,2-1.6c1.7-0.8,3.4-1.4,5.1-1.9s3.7-0.8,6.1-0.8c1.5,0,3,0.1,4.2,0.4c1.3,0.2,2.5,0.6,3.6,1
	c-1.1,1.1-1.8,2.4-2.3,3.8s-0.7,2.9-0.6,4.4C26,30.4,7.1,30.4,7.1,30.4z"/>
</svg>
