<?xml version="1.0" encoding="utf-8"?>
<!-- Generator: Adobe Illustrator 26.3.1, SVG Export Plug-In . SVG Version: 6.00 Build 0)  -->
<svg version="1.1" id="Слой_1" xmlns="http://www.w3.org/2000/svg" xmlns:xlink="http://www.w3.org/1999/xlink" x="0px" y="0px"
	 viewBox="0 0 48 48" style="enable-background:new 0 0 48 48;" xml:space="preserve">
<path d="M10,26.7v-8.2c0-1.6,0.5-3,1.6-4.1s2.4-1.7,3.9-1.9V8.8c0-0.7,0.3-1.4,0.8-1.9c0.6-0.6,1.3-0.9,2-0.9h11.4
	c0.7,0,1.4,0.3,1.9,0.8s0.8,1.2,0.8,1.9v3.8c1.6,0.1,2.9,0.7,3.9,1.9c1.1,1.1,1.6,2.5,1.6,4.1v8.2C38,26.7,10,26.7,10,26.7z M16,42
	c-1.7,0-3.1-0.6-4.2-1.8C10.6,39.1,10,37.7,10,36v-7.8h28V36c0,1.7-0.6,3.1-1.8,4.2C35.1,41.4,33.7,42,32,42H16z M17.1,12.5h5.4
	c0-0.4,0.2-0.8,0.5-1.1s0.7-0.5,1.1-0.5s0.8,0.2,1.1,0.5c0.3,0.3,0.5,0.7,0.5,1.1h5.4V8.8c0-0.4-0.1-0.7-0.3-0.9
	c-0.2-0.2-0.5-0.3-0.9-0.3H18.3c-0.4,0-0.7,0.1-0.9,0.3c-0.2,0.2-0.3,0.5-0.3,0.9V12.5z"/>
</svg>
