<?xml version="1.0" encoding="utf-8"?>
<!-- Generator: Adobe Illustrator 26.3.1, SVG Export Plug-In . SVG Version: 6.00 Build 0)  -->
<svg version="1.1" id="Слой_1" xmlns="http://www.w3.org/2000/svg" xmlns:xlink="http://www.w3.org/1999/xlink" x="0px" y="0px"
	 viewBox="0 0 48 48" style="enable-background:new 0 0 48 48;" xml:space="preserve">
<path d="M23.2,40.8V25.2h-0.5c-1.9,0-3.6-0.4-5.3-1.1s-3.2-1.7-4.5-3s-2.3-2.8-2.9-4.6c-0.7-1.7-1-3.5-1-5.4v-2h2
	c1.8,0,3.6,0.4,5.3,1.1c1.7,0.7,3.2,1.7,4.5,3c1.1,1.1,2,2.4,2.6,3.8c0.7,1.4,1.1,2.9,1.3,4.5c0.3-0.6,0.7-1.2,1.1-1.8
	c0.4-0.6,0.9-1.1,1.4-1.6c1.3-1.3,2.8-2.3,4.5-3c1.7-0.7,3.5-1.1,5.3-1.1h2v2c0,1.9-0.4,3.7-1.1,5.4c-0.7,1.7-1.7,3.3-3,4.6
	c-1.3,1.3-2.8,2.3-4.5,3s-3.4,1-5.3,1h-0.4v10.8H23.2z"/>
</svg>
