<?xml version="1.0" encoding="utf-8"?>
<!-- Generator: Adobe Illustrator 26.3.1, SVG Export Plug-In . SVG Version: 6.00 Build 0)  -->
<svg version="1.1" id="Слой_1" xmlns="http://www.w3.org/2000/svg" xmlns:xlink="http://www.w3.org/1999/xlink" x="0px" y="0px"
	 viewBox="0 0 48 48" style="enable-background:new 0 0 48 48;" xml:space="preserve">
<path d="M14,42v-7.5c-1.9-1.7-3.4-3.7-4.4-5.8C8.5,26.5,8,24.2,8,22c0-4.4,1.6-8.2,4.7-11.3S19.6,6,24,6c3.6,0,6.9,1.1,9.8,3.3
	s4.8,5,5.7,8.5l2.1,8.5c0.1,0.4,0,0.8-0.2,1.2c-0.3,0.3-0.6,0.5-1.1,0.5H36v7.2c0,0.8-0.3,1.4-0.8,1.9S34,38,33.2,38H28v4H14z
	 M23.6,31.6c0.4,0,0.8-0.1,1.1-0.4c0.3-0.3,0.4-0.6,0.4-1s-0.1-0.8-0.4-1c-0.3-0.3-0.6-0.4-1-0.4s-0.8,0.1-1,0.4
	c-0.3,0.3-0.4,0.6-0.4,1s0.1,0.8,0.4,1C22.8,31.5,23.2,31.6,23.6,31.6z M22.8,26.1h1.8c0-0.6,0.1-1.2,0.4-1.7s0.7-1.2,1.4-1.9
	c0.6-0.6,1.1-1.3,1.6-1.9c0.5-0.7,0.8-1.4,0.8-2.4c0-1.2-0.5-2.3-1.4-3.2s-2.1-1.3-3.6-1.3c-1.1,0-2.1,0.3-3,0.9
	c-0.9,0.6-1.6,1.4-2.1,2.3l1.6,0.7c0.3-0.7,0.8-1.2,1.5-1.6c0.6-0.4,1.3-0.6,2-0.6c0.9,0,1.6,0.3,2.2,0.8c0.6,0.5,0.9,1.2,0.9,2
	s-0.2,1.4-0.7,1.9s-1,1.1-1.5,1.7c-0.7,0.7-1.2,1.4-1.5,2.1C22.9,24.6,22.8,25.3,22.8,26.1z"/>
</svg>
