<?xml version="1.0" encoding="utf-8"?>
<!-- Generator: Adobe Illustrator 26.3.1, SVG Export Plug-In . SVG Version: 6.00 Build 0)  -->
<svg version="1.1" id="Слой_1" xmlns="http://www.w3.org/2000/svg" xmlns:xlink="http://www.w3.org/1999/xlink" x="0px" y="0px"
	 viewBox="0 0 48 48" style="enable-background:new 0 0 48 48;" xml:space="preserve">
<path d="M20.8,41.7c-2.1-0.4-4.1-1.2-5.9-2.2c-1.8-1.1-3.3-2.4-4.6-3.9C9,34,8,32.3,7.3,30.3S6.2,26.2,6.2,24c0-2.8,0.7-5.5,2-8
	s3.3-4.8,5.9-6.7H7.5V7.7h9.3V17h-1.5v-6.6c-2.5,1.7-4.3,3.8-5.6,6.2s-1.9,4.9-1.9,7.5c0,4,1.2,7.4,3.6,10.4s5.5,4.9,9.4,5.7V41.7z
	 M21.1,31.5l-6.7-6.8l1.1-1.1l5.6,5.6l11.4-11.4l1.1,1.1L21.1,31.5z M31.2,40.3V31h1.5v6.6c2.5-1.8,4.3-3.8,5.6-6.2s1.9-4.9,1.9-7.5
	c0-4-1.2-7.4-3.6-10.4c-2.4-3-5.5-4.9-9.4-5.7V6.3c4.3,0.8,7.8,2.9,10.5,6.1c2.7,3.3,4.1,7.1,4.1,11.6c0,2.8-0.7,5.5-2,8.1
	c-1.3,2.5-3.3,4.8-5.9,6.8h6.6v1.5C40.5,40.3,31.2,40.3,31.2,40.3z"/>
</svg>
