<?xml version="1.0" encoding="utf-8"?>
<!-- Generator: Adobe Illustrator 26.3.1, SVG Export Plug-In . SVG Version: 6.00 Build 0)  -->
<svg version="1.1" id="Слой_1" xmlns="http://www.w3.org/2000/svg" xmlns:xlink="http://www.w3.org/1999/xlink" x="0px" y="0px"
	 viewBox="0 0 48 48" style="enable-background:new 0 0 48 48;" xml:space="preserve">
<path d="M24,42c-2.5,0-4.8-0.5-7-1.4s-4.1-2.2-5.7-3.8s-2.9-3.5-3.8-5.7C6.5,28.8,6,26.5,6,24s0.5-4.8,1.4-7s2.2-4.1,3.8-5.7
	s3.5-2.9,5.7-3.8C19.2,6.5,21.5,6,24,6s4.8,0.5,7,1.4s4.1,2.2,5.7,3.8c1.6,1.6,2.9,3.5,3.8,5.7c0.9,2.2,1.4,4.5,1.4,7
	s-0.5,4.8-1.4,7s-2.2,4.1-3.8,5.7s-3.5,2.9-5.7,3.8C28.8,41.5,26.5,42,24,42z M21.9,40.4v-4c-1.1,0-2.1-0.4-2.9-1.2
	s-1.2-1.8-1.2-2.9v-2.1L8,20.2c-0.1,0.6-0.2,1.2-0.3,1.9c-0.1,0.6-0.1,1.3-0.1,1.9c0,4.2,1.4,7.8,4.1,10.9
	C14.4,38.1,17.8,39.9,21.9,40.4z M36.2,35.1c0.7-0.7,1.3-1.6,1.8-2.4c0.5-0.9,1-1.8,1.4-2.7s0.6-2,0.8-3s0.3-2,0.3-3
	c0-3.4-0.9-6.5-2.8-9.3c-1.9-2.8-4.4-4.8-7.5-6.1v1c0,1.1-0.4,2.1-1.2,2.9c-0.8,0.8-1.8,1.2-2.9,1.2h-4.2v4.2c0,0.6-0.2,1.1-0.6,1.4
	c-0.4,0.4-0.9,0.6-1.5,0.6h-4.1V24h12.4c0.6,0,1.1,0.2,1.4,0.6c0.4,0.4,0.6,0.9,0.6,1.5v6.2h2.1c0.9,0,1.8,0.3,2.5,0.8
	S35.9,34.3,36.2,35.1z"/>
</svg>
