<?xml version="1.0" encoding="utf-8"?>
<!-- Generator: Adobe Illustrator 26.3.1, SVG Export Plug-In . SVG Version: 6.00 Build 0)  -->
<svg version="1.1" id="Слой_1" xmlns="http://www.w3.org/2000/svg" xmlns:xlink="http://www.w3.org/1999/xlink" x="0px" y="0px"
	 viewBox="0 0 48 48" style="enable-background:new 0 0 48 48;" xml:space="preserve">
<path d="M42.5,44.8l-7-7c-1.6,1.3-3.4,2.4-5.3,3.1c-2,0.7-4,1.1-6.3,1.1c-2.5,0-4.8-0.5-7-1.4s-4.1-2.2-5.7-3.8S8.4,33.2,7.4,31
	S6,26.5,6,24c0-2.2,0.4-4.3,1.1-6.3s1.8-3.7,3.1-5.3L3.8,6l1.1-1.1l38.8,38.8C43.6,43.6,42.5,44.8,42.5,44.8z M21.9,40.4v-4
	c-1.1,0-2.1-0.4-2.9-1.2s-1.2-1.8-1.2-2.9v-2.1L8,20.2c-0.1,0.6-0.2,1.2-0.3,1.9c-0.1,0.6-0.1,1.3-0.1,1.9c0,4.2,1.4,7.8,4.1,10.9
	C14.4,38.1,17.8,39.9,21.9,40.4z M39,34l-1.1-1.1c0.9-1.3,1.5-2.8,2-4.3c0.4-1.5,0.7-3,0.7-4.6c0-3.4-0.9-6.5-2.8-9.3
	c-1.9-2.8-4.4-4.8-7.5-6.1v0.9c0,1.1-0.4,2.1-1.2,2.9c-0.8,0.8-1.8,1.2-2.9,1.2H22V17l-8-8c1.4-1,3-1.7,4.7-2.2
	C20.4,6.3,22.1,6,24,6c2.5,0,4.8,0.5,7,1.4s4.1,2.2,5.7,3.8c1.6,1.6,2.9,3.5,3.8,5.7s1.4,4.5,1.4,7c0,1.9-0.3,3.6-0.8,5.3
	C40.7,31,39.9,32.6,39,34z"/>
</svg>
