<?xml version="1.0" encoding="utf-8"?>
<!-- Generator: Adobe Illustrator 26.3.1, SVG Export Plug-In . SVG Version: 6.00 Build 0)  -->
<svg version="1.1" id="Слой_1" xmlns="http://www.w3.org/2000/svg" xmlns:xlink="http://www.w3.org/1999/xlink" x="0px" y="0px"
	 viewBox="0 0 48 48" style="enable-background:new 0 0 48 48;" xml:space="preserve">
<path d="M10.8,41c-1.3,0-2.5-0.5-3.4-1.4S6,37.6,6,36.2v-8.6l4.9-12.9c0.4-1.1,1.1-2,2-2.7s2-1.1,3.1-1.1c1.4,0,2.6,0.5,3.6,1.5
	s1.4,2.2,1.3,3.6v2.7l-4.8,4.9l1.6,1.6l5.5-5.5V5h1.5v14.7l5.5,5.5l1.6-1.6L27,18.8V16c-0.1-1.4,0.3-2.6,1.3-3.6s2.2-1.5,3.6-1.5
	c1.2,0,2.2,0.4,3.1,1.1c0.9,0.7,1.6,1.6,2,2.7l5,12.9v8.6c0,1.3-0.5,2.5-1.4,3.4s-2,1.4-3.4,1.4h-6.5c-1.3,0-2.5-0.5-3.4-1.4
	s-1.4-2.1-1.4-3.4v-3.8l0.9-8.4l-2.9-3l-3,3l1,8.4v3.8c0,1.3-0.5,2.5-1.4,3.4S18.4,41,17.1,41H10.8z"/>
</svg>
