<?xml version="1.0" encoding="utf-8"?>
<!-- Generator: Adobe Illustrator 26.3.1, SVG Export Plug-In . SVG Version: 6.00 Build 0)  -->
<svg version="1.1" id="Слой_1" xmlns="http://www.w3.org/2000/svg" xmlns:xlink="http://www.w3.org/1999/xlink" x="0px" y="0px"
	 viewBox="0 0 48 48" style="enable-background:new 0 0 48 48;" xml:space="preserve">
<path d="M9.4,25.2c-1-1.2-1.7-2.6-2.4-3.9c-0.6-1.4-0.9-2.9-0.9-4.4c0-2.4,0.8-4.4,2.3-6.2C9.9,8.9,12.1,8,14.8,8
	c1.8,0,3.5,0.5,5.1,1.5s3,2.4,4.1,4.3c1.2-1.9,2.6-3.3,4.1-4.3c1.6-1,3.3-1.5,5.1-1.5c2.6,0,4.7,0.9,6.3,2.7s2.4,3.9,2.4,6.5
	c-0.9-0.6-1.8-1.1-2.8-1.4c-1-0.3-2.1-0.5-3.2-0.5c-2.9,0-5.3,1-7.4,2.9c-2,1.9-3.2,4.3-3.4,7.1H21l-3.3-4.9
	c-0.1-0.2-0.3-0.4-0.5-0.5s-0.4-0.2-0.6-0.2s-0.4,0.1-0.6,0.2c-0.2,0.1-0.4,0.3-0.5,0.5l-3.3,4.9C12.4,25.2,9.4,25.2,9.4,25.2z
	 M24,39.8l-1.7-1.5c-2.9-2.7-5.3-4.9-7.1-6.7s-3.4-3.4-4.5-4.8h1.8c0.2,0,0.5-0.1,0.6-0.2c0.2-0.1,0.4-0.3,0.5-0.5l3.2-4.8l3.2,4.8
	c0.2,0.2,0.3,0.4,0.5,0.5s0.4,0.2,0.6,0.2h4.1c0.1,1.6,0.6,3.1,1.4,4.5c0.8,1.3,1.8,2.5,3,3.4c-0.6,0.6-1.2,1.2-1.9,1.8
	c-0.7,0.6-1.3,1.2-2,1.9L24,39.8z M36,32.8c-0.3,0-0.6-0.1-0.9-0.4c-0.2-0.2-0.4-0.5-0.4-0.9c0-0.3,0.1-0.6,0.4-0.9
	c0.2-0.2,0.5-0.4,0.9-0.4c0.3,0,0.6,0.1,0.9,0.4c0.2,0.2,0.4,0.5,0.4,0.9c0,0.3-0.1,0.6-0.4,0.9C36.6,32.7,36.3,32.8,36,32.8z
	 M35.2,27.1v-7.8h1.5v7.8C36.7,27.1,35.2,27.1,35.2,27.1z"/>
</svg>
