<?xml version="1.0" encoding="utf-8"?>
<!-- Generator: Adobe Illustrator 26.3.1, SVG Export Plug-In . SVG Version: 6.00 Build 0)  -->
<svg version="1.1" id="Слой_1" xmlns="http://www.w3.org/2000/svg" xmlns:xlink="http://www.w3.org/1999/xlink" x="0px" y="0px"
	 viewBox="0 0 48 48" style="enable-background:new 0 0 48 48;" xml:space="preserve">
<path d="M8,42V13.2h5.9V5.5h20.3v7.7H40V42H8z M15.4,13.2h17.2V7.1H15.4V13.2z M24,35.7c2.2,0,4.1-0.8,5.7-2.4
	c1.6-1.6,2.4-3.5,2.4-5.7s-0.8-4.1-2.4-5.7s-3.5-2.4-5.7-2.4s-4.1,0.8-5.7,2.4S16,25.4,16,27.6s0.8,4.1,2.3,5.7
	C19.8,34.9,21.7,35.7,24,35.7z M26.1,30.9l1.1-1.1l-2.5-2.5v-4.2h-1.5V28C23.3,27.9,26.1,30.9,26.1,30.9z"/>
</svg>
