<?xml version="1.0" encoding="utf-8"?>
<!-- Generator: Adobe Illustrator 26.3.1, SVG Export Plug-In . SVG Version: 6.00 Build 0)  -->
<svg version="1.1" id="Слой_1" xmlns="http://www.w3.org/2000/svg" xmlns:xlink="http://www.w3.org/1999/xlink" x="0px" y="0px"
	 viewBox="0 0 48 48" style="enable-background:new 0 0 48 48;" xml:space="preserve">
<path d="M6,13.5V6h7.5v1.5h-6v5.9H6V13.5z M6,42v-7.5h1.5v5.9h5.9V42H6z M34.5,42v-1.5h5.9v-5.9H42V42H34.5z M40.5,13.5v-6h-5.9V6
	H42v7.5H40.5z M34.1,34.1h2.5v2.5h-2.5V34.1z M34.1,29.1h2.5v2.5h-2.5V29.1z M31.6,31.6h2.5v2.5h-2.5C31.6,34.1,31.6,31.6,31.6,31.6
	z M29.1,34.1h2.5v2.5h-2.5V34.1z M26.6,31.6h2.5v2.5h-2.5V31.6z M31.6,26.6h2.5v2.5h-2.5C31.6,29.1,31.6,26.6,31.6,26.6z M29.1,29.1
	h2.5v2.5h-2.5V29.1z M26.6,26.6h2.5v2.5h-2.5V26.6z M36.5,11.4v10h-9.9v-10H36.5z M21.4,26.6v10h-10v-10
	C11.4,26.6,21.4,26.6,21.4,26.6z M21.4,11.4v10h-10v-10H21.4z M19.8,35.1v-6.9h-6.9v6.9H19.8z M19.8,19.8v-6.9h-6.9v6.9H19.8z
	 M35,19.8v-6.9h-6.9v6.9H35z"/>
</svg>
