<?xml version="1.0" encoding="utf-8"?>
<!-- Generator: Adobe Illustrator 26.3.1, SVG Export Plug-In . SVG Version: 6.00 Build 0)  -->
<svg version="1.1" id="Слой_1" xmlns="http://www.w3.org/2000/svg" xmlns:xlink="http://www.w3.org/1999/xlink" x="0px" y="0px"
	 viewBox="0 0 48 48" style="enable-background:new 0 0 48 48;" xml:space="preserve">
<path d="M26,40.1v-3.6h3.6v3.6H26z M22.4,36.5v-8.8H26v8.8H22.4z M36.5,29.7V24h3.6v5.7H36.5z M32.8,24v-3.6h3.6V24H32.8z
	 M11.5,27.6V24h3.6v3.6H11.5z M7.9,24v-3.6h3.6V24H7.9z M24,11.5V7.9h3.6v3.6H24z M9.5,17.2h7.8V9.5H9.5V17.2z M7.9,18.8V7.9h10.8
	v10.8C18.8,18.8,7.9,18.8,7.9,18.8z M9.5,38.5h8.1v-7.8H9.5C9.5,30.8,9.5,38.5,9.5,38.5z M7.9,40.1V29.2h11.2V40
	C19.1,40.1,7.9,40.1,7.9,40.1z M30.8,17.2h7.8V9.5h-7.8V17.2z M29.2,18.8V7.9H40v10.8L29.2,18.8L29.2,18.8z M32.8,40.1v-6.8h-3.6
	v-3.6h7.2v6.8H40v3.6C40.1,40.1,32.8,40.1,32.8,40.1z M26,27.6V24h6.8v3.6H26z M18.8,27.6V24h-3.6v-3.6H26V24h-3.6v3.6H18.8z
	 M20.4,18.8v-7.2H24v3.6h3.6v3.6H20.4z M12.1,14.6v-2.5h2.5v2.5H12.1z M12.3,35.7v-2.5h2.5v2.5C14.9,35.7,12.3,35.7,12.3,35.7z
	 M33.4,14.6v-2.5h2.5v2.5H33.4z"/>
</svg>
