<?xml version="1.0" encoding="utf-8"?>
<!-- Generator: Adobe Illustrator 26.3.1, SVG Export Plug-In . SVG Version: 6.00 Build 0)  -->
<svg version="1.1" id="Слой_1" xmlns="http://www.w3.org/2000/svg" xmlns:xlink="http://www.w3.org/1999/xlink" x="0px" y="0px"
	 viewBox="0 0 48 48" style="enable-background:new 0 0 48 48;" xml:space="preserve">
<path d="M8,22.2V8h14.2v14.2H8z M9.5,20.7h11.2V9.5H9.5V20.7z M8,40V25.8h14.2V40H8z M9.5,38.5h11.2V27.3H9.5V38.5z M25.8,22.2V8H40
	v14.2H25.8z M27.3,20.7h11.2V9.5H27.3V20.7z M36.4,40v-3.6H40V40H36.4z M25.8,29.3v-3.6h3.6v3.6H25.8z M29.3,32.9v-3.5h3.6v3.5H29.3
	z M25.8,36.4v-3.6h3.6v3.6H25.8z M29.3,40v-3.6h3.6V40H29.3z M32.9,36.4v-3.6h3.5v3.6H32.9z M32.9,29.3v-3.6h3.5v3.6H32.9z
	 M36.4,32.9v-3.5H40v3.5H36.4z"/>
</svg>
