<?xml version="1.0" encoding="utf-8"?>
<!-- Generator: Adobe Illustrator 26.3.1, SVG Export Plug-In . SVG Version: 6.00 Build 0)  -->
<svg version="1.1" id="Слой_1" xmlns="http://www.w3.org/2000/svg" xmlns:xlink="http://www.w3.org/1999/xlink" x="0px" y="0px"
	 viewBox="0 0 48 48" style="enable-background:new 0 0 48 48;" xml:space="preserve">
<path d="M24,44c-4.1,0-7.8-1.2-11.2-3.6C9.5,38,7,35,5.3,31.3v7.3H3.8v-10h10v1.5H6.5c1.3,3.5,3.7,6.4,6.9,8.8
	c3.3,2.3,6.8,3.5,10.5,3.5c2.4,0,4.8-0.4,6.9-1.3c2.2-0.9,4.1-2.1,5.7-3.7c1.7-1.6,3-3.4,4-5.6c1-2.1,1.6-4.4,1.8-6.9H44
	c-0.1,2.6-0.7,5.1-1.8,7.4s-2.5,4.3-4.3,6s-3.9,3.1-6.2,4.1C29.2,43.5,26.7,44,24,44z M4,23c0.2-2.8,0.8-5.3,2-7.6
	c1.1-2.3,2.6-4.3,4.4-6s3.9-3,6.2-3.9C18.9,4.5,21.4,4,24,4c4,0,7.7,1.2,11.2,3.6s5.9,5.5,7.5,9.2V9.4h1.5v10h-10v-1.5h7.3
	c-1.3-3.4-3.5-6.3-6.8-8.7S27.8,5.5,24,5.5c-2.3,0-4.6,0.4-6.8,1.3s-4.1,2.1-5.7,3.6c-1.7,1.5-3,3.4-4.1,5.5S5.7,20.4,5.6,23
	C5.6,23,4,23,4,23z M24,34.1c0.4,0,0.7-0.1,0.9-0.4c0.3-0.3,0.4-0.6,0.4-0.9c0-0.4-0.1-0.7-0.4-0.9c-0.3-0.3-0.6-0.4-0.9-0.4
	c-0.4,0-0.7,0.1-0.9,0.4c-0.3,0.3-0.4,0.6-0.4,0.9c0,0.4,0.1,0.7,0.4,0.9C23.3,34,23.6,34.1,24,34.1z M23,27.6h1.5
	c0.1-0.8,0.2-1.5,0.5-2c0.3-0.6,0.9-1.2,1.6-2c0.9-0.9,1.6-1.8,2-2.5c0.4-0.8,0.6-1.6,0.6-2.4c0-1.5-0.5-2.7-1.5-3.7
	c-1-0.9-2.3-1.4-3.8-1.4c-1.3,0-2.5,0.3-3.5,0.9c-1,0.6-1.8,1.5-2.4,2.7l1.5,0.6c0.4-0.8,1-1.5,1.8-2s1.6-0.7,2.5-0.7
	c1.1,0,2,0.3,2.7,1c0.7,0.6,1.1,1.5,1.1,2.5c0,0.7-0.2,1.4-0.6,1.9c-0.4,0.6-0.9,1.2-1.6,1.8c-1.1,1.1-1.8,2-2.2,2.8
	C23.2,25.9,23,26.7,23,27.6z"/>
</svg>
