<?xml version="1.0" encoding="utf-8"?>
<!-- Generator: Adobe Illustrator 26.3.1, SVG Export Plug-In . SVG Version: 6.00 Build 0)  -->
<svg version="1.1" id="Слой_1" xmlns="http://www.w3.org/2000/svg" xmlns:xlink="http://www.w3.org/1999/xlink" x="0px" y="0px"
	 viewBox="0 0 48 48" style="enable-background:new 0 0 48 48;" xml:space="preserve">
<path d="M18.5,40.2V32h-0.6c-3.3,0.1-6-1-8.4-3.1C7.2,26.8,6,24.1,6,21s1.1-5.7,3.2-7.8S13.9,10,17,10h4.7l-4.5-4.5l1.1-1.1l6.4,6.4
	l-6.4,6.4l-1.1-1.1l4.5-4.5H17c-2.6,0-4.8,0.9-6.7,2.8c-1.8,1.8-2.8,4.1-2.8,6.7c0,2.7,1,5,3,6.8c2,1.8,4.4,2.7,7.1,2.7H20v6l6-6h5
	c2.6,0,4.9-0.9,6.7-2.8s2.8-4.1,2.8-6.7s-0.9-4.9-2.8-6.7c-1.8-1.8-4.1-2.7-6.7-2.7h-1.4V10H31c3.1,0,5.7,1.1,7.8,3.2S42,17.9,42,21
	c0,3-1.1,5.6-3.2,7.8C36.7,30.9,34.1,32,31,32h-4.3L18.5,40.2z"/>
</svg>
