<?xml version="1.0" encoding="utf-8"?>
<!-- Generator: Adobe Illustrator 26.3.1, SVG Export Plug-In . SVG Version: 6.00 Build 0)  -->
<svg version="1.1" id="Слой_1" xmlns="http://www.w3.org/2000/svg" xmlns:xlink="http://www.w3.org/1999/xlink" x="0px" y="0px"
	 viewBox="0 0 48 48" style="enable-background:new 0 0 48 48;" xml:space="preserve">
<path d="M31.3,38.2h1.5v-5.8h-1.5C31.3,32.5,31.3,38.2,31.3,38.2z M32.1,30.8c0.2,0,0.4,0,0.5-0.2s0.2-0.3,0.2-0.6
	c0-0.2-0.1-0.4-0.2-0.6c-0.2-0.2-0.3-0.2-0.5-0.2s-0.4,0.1-0.6,0.2c-0.1,0.2-0.2,0.3-0.2,0.5s0.1,0.4,0.2,0.5
	C31.6,30.7,31.8,30.8,32.1,30.8z M32,41.4c-2.2,0-4-0.8-5.6-2.3c-1.5-1.5-2.3-3.4-2.3-5.6c0-2.2,0.8-4,2.3-5.6
	c1.5-1.5,3.4-2.3,5.6-2.3s4,0.8,5.6,2.3c1.5,1.5,2.3,3.4,2.3,5.6s-0.8,4-2.3,5.6C36.1,40.6,34.2,41.4,32,41.4z M26.7,15.2h7.8
	l-7.8-7.7l7.8,7.7l-7.8-7.7V15.2z M10.8,42c-0.7,0-1.4-0.3-1.9-0.8C8.3,40.6,8,40,8,39.2V8.8c0-0.8,0.3-1.4,0.8-2
	C9.4,6.3,10,6,10.8,6h16.7l8.5,8.5V22c-0.6-0.3-1.3-0.4-1.9-0.6c-0.7-0.1-1.3-0.2-2-0.2c-1.7,0-3.3,0.3-4.8,1s-2.7,1.6-3.8,2.7H15
	v1.5h7c-0.6,1-1.1,2-1.5,3.1s-0.6,2.3-0.6,3.5H15v1.5h4.9c0.1,1.4,0.5,2.7,1.1,3.9s1.4,2.3,2.3,3.3C23.4,42,10.8,42,10.8,42z"/>
</svg>
