<?xml version="1.0" encoding="utf-8"?>
<!-- Generator: Adobe Illustrator 26.3.1, SVG Export Plug-In . SVG Version: 6.00 Build 0)  -->
<svg version="1.1" id="Слой_1" xmlns="http://www.w3.org/2000/svg" xmlns:xlink="http://www.w3.org/1999/xlink" x="0px" y="0px"
	 viewBox="0 0 48 48" style="enable-background:new 0 0 48 48;" xml:space="preserve">
<path d="M38.5,35.2L12.9,9.5c1-1.2,2.2-2.3,3.6-3.3S19.4,4.5,21,4c-0.1,3.1,0.3,6.1,1.3,9.1c1,2.9,2.7,5.5,4.9,7.7s4.8,3.9,7.6,5
	c2.9,1.1,5.9,1.6,9,1.4c-0.5,1.6-1.3,3.1-2.2,4.4C40.8,33,39.7,34.1,38.5,35.2z M39.4,43.2L34,37.9c-1.1,0.5-2.2,0.8-3.4,1
	c-1.2,0.2-2.4,0.3-3.7,0.3c-2.5,0-4.9-0.5-7.1-1.4c-2.2-1-4.1-2.3-5.8-3.9c-1.7-1.6-3-3.6-3.9-5.8c-1-2.2-1.4-4.6-1.4-7.1
	c0-1.2,0.1-2.4,0.4-3.6c0.2-1.2,0.6-2.3,1.1-3.4L4.8,8.6l1.1-1.1L40.4,42C40.5,42.1,39.4,43.2,39.4,43.2z"/>
</svg>
