<?xml version="1.0" encoding="utf-8"?>
<!-- Generator: Adobe Illustrator 26.3.1, SVG Export Plug-In . SVG Version: 6.00 Build 0)  -->
<svg version="1.1" id="Слой_1" xmlns="http://www.w3.org/2000/svg" xmlns:xlink="http://www.w3.org/1999/xlink" x="0px" y="0px"
	 viewBox="0 0 48 48" style="enable-background:new 0 0 48 48;" xml:space="preserve">
<path d="M26.6,29.5c0.4,0,0.8-0.1,1.1-0.4c0.3-0.3,0.5-0.7,0.5-1.1s-0.2-0.8-0.5-1.1c-0.3-0.3-0.7-0.4-1.1-0.4s-0.8,0.1-1.1,0.4
	C25.2,27.2,25,27.6,25,28s0.2,0.8,0.5,1.1C25.8,29.4,26.2,29.5,26.6,29.5z M25.8,24h1.5c0-0.9,0.2-1.5,0.4-1.9
	c0.2-0.4,0.8-1,1.7-1.9c0.8-0.7,1.4-1.4,1.7-2c0.3-0.6,0.5-1.3,0.5-2.1c0-1.4-0.5-2.5-1.4-3.4c-1-0.9-2.2-1.4-3.6-1.4
	c-1.1,0-2,0.3-2.9,0.8c-0.9,0.6-1.5,1.3-2,2.4l1.4,0.6c0.4-0.8,0.9-1.4,1.4-1.8c0.5-0.4,1.2-0.6,2-0.6c1.1,0,1.9,0.3,2.6,0.9
	c0.7,0.6,1,1.4,1,2.3c0,0.6-0.2,1.2-0.5,1.7s-0.9,1.1-1.7,1.7c-0.8,0.7-1.4,1.4-1.7,2C26,22.2,25.8,23,25.8,24z M14.8,34.9
	c-0.8,0-1.4-0.3-2-0.8c-0.5-0.5-0.8-1.2-0.8-2V8.8c0-0.8,0.3-1.4,0.8-2C13.3,6.3,14,6,14.8,6h23.4c0.8,0,1.4,0.3,2,0.8
	C40.7,7.3,41,8,41,8.8v23.4c0,0.8-0.3,1.4-0.8,2c-0.5,0.5-1.2,0.8-2,0.8C38.2,34.9,14.8,34.9,14.8,34.9z M9.8,40
	c-0.8,0-1.4-0.3-2-0.8C7.3,38.7,7,38,7,37.2V12.3h1.5v24.9c0,0.3,0.1,0.6,0.4,0.8c0.3,0.3,0.5,0.4,0.8,0.4h24.9V40H9.8z"/>
</svg>
