<?xml version="1.0" encoding="utf-8"?>
<!-- Generator: Adobe Illustrator 26.3.1, SVG Export Plug-In . SVG Version: 6.00 Build 0)  -->
<svg version="1.1" id="Слой_1" xmlns="http://www.w3.org/2000/svg" xmlns:xlink="http://www.w3.org/1999/xlink" x="0px" y="0px"
	 viewBox="0 0 48 48" style="enable-background:new 0 0 48 48;" xml:space="preserve">
<path d="M8.8,42c-0.8,0-1.4-0.3-2-0.8C6.3,40.7,6,40,6,39.2V15.7c0-0.3,0.1-0.6,0.4-1c0.2-0.3,0.5-0.6,0.8-0.7l22.4-9.1l0.5,1.4
	L11,14h28.2c0.8,0,1.4,0.3,2,0.8c0.5,0.5,0.8,1.2,0.8,2v22.5c0,0.8-0.3,1.4-0.8,2c-0.5,0.5-1.2,0.8-2,0.8L8.8,42L8.8,42z M15.7,36.7
	c1.2,0,2.1-0.4,2.9-1.2c0.8-0.8,1.2-1.8,1.2-2.9c0-1.2-0.4-2.1-1.2-2.9c-0.8-0.8-1.8-1.2-2.9-1.2c-1.2,0-2.1,0.4-2.9,1.2
	c-0.8,0.8-1.2,1.8-1.2,3c0,1.2,0.4,2.1,1.2,2.9C13.6,36.3,14.5,36.7,15.7,36.7z M7.5,23.3h25.9v-3.2H35v3.2h5.5v-6.5
	c0-0.3-0.1-0.6-0.4-0.8c-0.3-0.3-0.5-0.4-0.8-0.4H8.8c-0.3,0-0.6,0.1-0.8,0.4c-0.3,0.3-0.4,0.5-0.4,0.8C7.5,16.8,7.5,23.3,7.5,23.3z
	"/>
</svg>
