<?xml version="1.0" encoding="utf-8"?>
<!-- Generator: Adobe Illustrator 26.3.1, SVG Export Plug-In . SVG Version: 6.00 Build 0)  -->
<svg version="1.1" id="Слой_1" xmlns="http://www.w3.org/2000/svg" xmlns:xlink="http://www.w3.org/1999/xlink" x="0px" y="0px"
	 viewBox="0 0 48 48" style="enable-background:new 0 0 48 48;" xml:space="preserve">
<path d="M10.8,42c-0.8,0-1.4-0.3-2-0.8C8.3,40.7,8,40,8,39.2V12.3c0-0.8,0.3-1.4,0.8-2c0.5-0.5,1.2-0.8,2-0.8h4.1v-4h1.8v4h14.8v-4
	h1.7v4h4.1c0.8,0,1.4,0.3,2,0.8c0.5,0.5,0.8,1.2,0.8,2v26.9c0,0.8-0.3,1.4-0.8,2c-0.5,0.5-1.2,0.8-2,0.8H10.8z M19.2,40.5H21v-5
	c0-0.2-0.1-0.5-0.4-1l-4-4.7c-0.3-0.3-0.5-0.7-0.6-1.1s-0.1-0.8,0-1.2c0.3,0.2,0.7,0.4,1,0.5c0.4,0.1,0.7,0.2,1.1,0.2
	c0.5,0,1-0.1,1.5-0.3c0.5-0.2,0.9-0.5,1.3-0.9s0.8-0.7,1.3-0.9c0.5-0.2,1-0.3,1.6-0.3s1.1,0.1,1.6,0.3c0.5,0.2,0.9,0.5,1.3,0.9
	s0.8,0.7,1.3,0.9c0.5,0.2,1,0.3,1.5,0.3c0.4,0,0.8-0.1,1.1-0.2c0.4-0.1,0.7-0.3,1-0.5c0.1,0.4,0.1,0.8,0,1.2
	c-0.1,0.4-0.3,0.8-0.6,1.1l-4,4.7c-0.1,0.2-0.2,0.3-0.2,0.5c0.2,0.1,0.2,0.3,0.2,0.5v5h1.8v-4.9l3.9-4.6c0.3-0.3,0.5-0.7,0.8-1.2
	c0.2-0.5,0.3-1,0.3-1.7c0-0.4,0-0.7-0.1-1.1s-0.2-0.7-0.4-1c0.2-0.3,0.3-0.6,0.4-1c0.1-0.4,0.1-0.7,0.1-1.1c0-0.5-0.1-1-0.3-1.5
	s-0.4-0.9-0.8-1.3l-3.9-4.6v-5.4H27v5.5c0,0.2,0,0.3,0.1,0.5c0,0.2,0.1,0.3,0.3,0.4l4,4.8c0.2,0.3,0.4,0.5,0.5,0.8s0.2,0.6,0.2,0.9
	c0,0.6-0.2,1.2-0.6,1.7s-1,0.7-1.6,0.7c-0.3,0-0.5,0-0.8-0.1s-0.5-0.3-0.8-0.5c-0.6-0.6-1.2-1-1.9-1.3c-0.7-0.3-1.5-0.4-2.2-0.5
	c-0.8,0-1.5,0.2-2.2,0.5s-1.4,0.7-1.9,1.3c-0.2,0.2-0.5,0.4-0.7,0.5c-0.3,0.1-0.5,0.2-0.8,0.1c-0.7,0-1.2-0.2-1.7-0.7
	c-0.4-0.5-0.6-1.1-0.6-1.7c0-0.3,0.1-0.6,0.1-0.9c0.1-0.3,0.3-0.6,0.5-0.8l4-4.7c0.1-0.2,0.2-0.3,0.2-0.5c0.1-0.2,0.1-0.3,0.1-0.5
	v-5.5h-1.8v5.3L15.3,21c-0.3,0.3-0.5,0.7-0.8,1.2c-0.2,0.5-0.3,1-0.3,1.7c0,0.4,0,0.8,0.1,1.1c0.1,0.4,0.2,0.7,0.4,1
	c-0.2,0.3-0.3,0.7-0.4,1c-0.1,0.4-0.1,0.7-0.1,1.1c0,0.6,0.1,1.2,0.3,1.7s0.5,0.9,0.8,1.2l3.9,4.6C19.2,35.6,19.2,40.5,19.2,40.5z"
	/>
</svg>
