<?xml version="1.0" encoding="utf-8"?>
<!-- Generator: Adobe Illustrator 26.3.1, SVG Export Plug-In . SVG Version: 6.00 Build 0)  -->
<svg version="1.1" id="Слой_1" xmlns="http://www.w3.org/2000/svg" xmlns:xlink="http://www.w3.org/1999/xlink" x="0px" y="0px"
	 viewBox="0 0 48 48" style="enable-background:new 0 0 48 48;" xml:space="preserve">
<path d="M9.3,22.7c-0.2,0.1-0.4,0.1-0.6,0.1c-0.2-0.1-0.3-0.2-0.4-0.4l-5-10c-0.1-0.2-0.1-0.4-0.1-0.6c0.1-0.2,0.2-0.3,0.4-0.4
	c0.2-0.1,0.4-0.1,0.6-0.1c0.2,0.1,0.3,0.2,0.4,0.4l5,10c0.1,0.2,0.1,0.4,0.1,0.6C9.7,22.5,9.5,22.6,9.3,22.7z M16.3,36.7
	c-0.2,0.1-0.4,0.1-0.6,0.1c-0.2-0.1-0.3-0.2-0.4-0.4l-4-8c-0.1-0.2-0.1-0.4,0-0.6s0.2-0.3,0.4-0.4s0.4-0.1,0.5,0
	c0.2,0.1,0.3,0.2,0.4,0.4l4,8c0.1,0.2,0.1,0.4,0,0.6C16.7,36.4,16.5,36.6,16.3,36.7z M20.4,26.7c-0.2,0.1-0.4,0.1-0.6,0.1
	c-0.2-0.1-0.3-0.2-0.4-0.4l-7-14c-0.1-0.2-0.1-0.4-0.1-0.6c0.1-0.2,0.2-0.3,0.4-0.4c0.2-0.1,0.4-0.1,0.6-0.1
	c0.2,0.1,0.4,0.2,0.5,0.4l7,14c0.1,0.2,0.1,0.4,0,0.6C20.8,26.5,20.6,26.6,20.4,26.7z M24.8,16.7c-0.2,0.1-0.4,0.2-0.6,0.1
	s-0.3-0.2-0.4-0.4l-2-4.1c-0.1-0.2-0.1-0.4-0.1-0.6c0.1-0.2,0.2-0.3,0.4-0.4c0.2-0.1,0.4-0.1,0.6,0s0.4,0.2,0.5,0.4l2,4
	c0.1,0.2,0.1,0.4,0,0.6C25.1,16.4,24.9,16.6,24.8,16.7z M25.9,36.6c-0.2,0.1-0.4,0.2-0.6,0.1c-0.2-0.1-0.3-0.2-0.4-0.4l-2-4
	c-0.1-0.2-0.1-0.4,0-0.6s0.2-0.3,0.4-0.4c0.2-0.1,0.4-0.1,0.6,0s0.3,0.2,0.4,0.4l2,4c0.1,0.2,0.1,0.4,0,0.6
	C26.3,36.4,26.1,36.5,25.9,36.6z M35.3,36.6c-0.2,0.1-0.4,0.2-0.6,0.1c-0.2-0.1-0.3-0.2-0.4-0.4l-7-14c-0.1-0.2-0.1-0.4,0-0.6
	s0.2-0.3,0.4-0.4c0.2-0.1,0.4-0.1,0.6,0s0.3,0.2,0.4,0.4l7,14c0.1,0.2,0.1,0.4,0,0.6C35.6,36.4,35.4,36.5,35.3,36.6z M38.3,24.7
	c-0.2,0.1-0.4,0.1-0.6,0.1c-0.2-0.1-0.3-0.2-0.4-0.4l-6-12c-0.1-0.2-0.1-0.4,0-0.6c0.1-0.2,0.2-0.3,0.4-0.4c0.2-0.1,0.4-0.1,0.6,0
	s0.3,0.2,0.4,0.4l6,12c0.1,0.2,0.1,0.4,0,0.6C38.7,24.5,38.5,24.6,38.3,24.7z M44.3,36.7c-0.2,0.1-0.4,0.1-0.6,0.1
	c-0.2-0.1-0.3-0.2-0.4-0.4l-3-6c-0.1-0.2-0.1-0.4,0-0.6s0.2-0.3,0.4-0.4s0.4-0.1,0.6,0c0.2,0.1,0.3,0.2,0.4,0.4l3,6
	c0.1,0.2,0.1,0.4,0,0.6C44.7,36.5,44.5,36.6,44.3,36.7z"/>
</svg>
