<?xml version="1.0" encoding="utf-8"?>
<!-- Generator: Adobe Illustrator 26.3.1, SVG Export Plug-In . SVG Version: 6.00 Build 0)  -->
<svg version="1.1" id="Слой_1" xmlns="http://www.w3.org/2000/svg" xmlns:xlink="http://www.w3.org/1999/xlink" x="0px" y="0px"
	 viewBox="0 0 48 48" style="enable-background:new 0 0 48 48;" xml:space="preserve">
<path d="M23.3,40V11l-4.8,4.8l-1.1-1.1L24.1,8l6.6,6.7l-1.1,1.1L24.8,11v7.5c0,1.9,0.3,3.6,0.9,5.1c0.6,1.6,1.4,3,2.5,4.4
	c1,1.3,2.3,2.6,3.6,3.7c1.4,1.1,2.9,2.2,4.4,3.2l-1,1.1c-2.4-1.5-4.5-3.1-6.3-4.9c-1.8-1.8-3.2-3.7-4.1-5.6V40
	C24.8,40,23.3,40,23.3,40z"/>
</svg>
