<?xml version="1.0" encoding="utf-8"?>
<!-- Generator: Adobe Illustrator 26.3.1, SVG Export Plug-In . SVG Version: 6.00 Build 0)  -->
<svg version="1.1" id="Слой_1" xmlns="http://www.w3.org/2000/svg" xmlns:xlink="http://www.w3.org/1999/xlink" x="0px" y="0px"
	 viewBox="0 0 48 48" style="enable-background:new 0 0 48 48;" xml:space="preserve">
<path d="M19.4,34.4L16.2,42l-1.4-0.6l3-7.1c-3.4-0.6-6.3-2.2-8.5-4.8C7.1,26.7,6,23.6,6,20.2v-7.7c0-1.8,0.6-3.3,1.9-4.6
	C9.2,6.6,10.7,6,12.5,6c0.5,0,0.9,0,1.3,0.1c0.4,0.1,0.8,0.2,1.2,0.4l9.7,4.1L19,12.7V17l15,10.1H19.7c-1.7,0-3.1-0.6-4.2-1.7
	c-1.2-1.1-1.8-2.5-1.8-4.1h-1.5c0,2,0.7,3.7,2.2,5.2c1.5,1.4,3.3,2.1,5.3,2.1h16.6l4.5,3.1L42,38h-2.5l-1.4-3.6H26.6V42h-1.5v-7.6
	H19.4z M12.5,11.3c-0.3,0-0.6,0.1-0.9,0.4c-0.2,0.2-0.4,0.5-0.4,0.9s0.1,0.7,0.4,0.9c0.2,0.2,0.5,0.3,0.9,0.3s0.6-0.1,0.9-0.3
	c0.2-0.2,0.3-0.5,0.3-0.9c0-0.3-0.1-0.6-0.3-0.9C13.2,11.4,12.9,11.3,12.5,11.3z"/>
</svg>
