<?xml version="1.0" encoding="utf-8"?>
<!-- Generator: Adobe Illustrator 26.3.1, SVG Export Plug-In . SVG Version: 6.00 Build 0)  -->
<svg version="1.1" id="Слой_1" xmlns="http://www.w3.org/2000/svg" xmlns:xlink="http://www.w3.org/1999/xlink" x="0px" y="0px"
	 viewBox="0 0 48 48" style="enable-background:new 0 0 48 48;" xml:space="preserve">
<path d="M22.2,39.5v-5.3L36.3,20c0.1-0.1,0.3-0.3,0.5-0.3c0.2-0.1,0.4-0.1,0.6-0.1c0.2,0,0.4,0,0.6,0.1c0.2,0.1,0.4,0.2,0.5,0.3
	l2.9,2.9c0.2,0.1,0.3,0.3,0.4,0.5c0.1,0.2,0.1,0.4,0.2,0.6c0,0.2,0,0.4-0.1,0.6s-0.2,0.4-0.4,0.6L27.3,39.5H22.2z M37.4,27.2l3-3.1
	l-2.9-3l-3.1,3.1L37.4,27.2z M21.5,18.2l-1.1-1.1l4.9-4.9h-9.8c-0.2,0.8-0.5,1.5-1.1,2.1s-1.3,1-2.1,1.1v17c0.9,0.2,1.7,0.6,2.3,1.4
	c0.6,0.7,0.9,1.6,0.9,2.6c0,1.1-0.4,2-1.2,2.8s-1.7,1.2-2.8,1.2s-2-0.4-2.8-1.2s-1.2-1.7-1.2-2.8c0-1,0.3-1.9,0.9-2.6
	s1.4-1.2,2.3-1.4v-17C9.8,15.2,9,14.8,8.4,14s-0.9-1.6-0.9-2.6c0-1.1,0.4-2,1.2-2.8s1.7-1.2,2.8-1.2c1,0,1.9,0.3,2.6,0.9
	c0.7,0.6,1.2,1.4,1.4,2.3h9.8l-4.9-4.9l1.1-1.1l6.8,6.8L21.5,18.2z M36.5,7.5c1.1,0,2,0.4,2.8,1.2s1.2,1.7,1.2,2.8s-0.4,2-1.2,2.8
	s-1.7,1.2-2.8,1.2s-2-0.4-2.8-1.2s-1.2-1.7-1.2-2.8s0.4-2,1.2-2.8C34.4,7.9,35.4,7.5,36.5,7.5z"/>
</svg>
