<?xml version="1.0" encoding="utf-8"?>
<!-- Generator: Adobe Illustrator 26.3.1, SVG Export Plug-In . SVG Version: 6.00 Build 0)  -->
<svg version="1.1" id="Слой_1" xmlns="http://www.w3.org/2000/svg" xmlns:xlink="http://www.w3.org/1999/xlink" x="0px" y="0px"
	 viewBox="0 0 48 48" style="enable-background:new 0 0 48 48;" xml:space="preserve">
<path d="M7.5,36c-1.2,0-2.1-0.4-2.8-1.1c-0.7-0.7-1.1-1.7-1.1-2.8V15.9c0-1.2,0.4-2.1,1.1-2.8S6.3,12,7.5,12h16.2
	c1.2,0,2.1,0.4,2.8,1.1c0.7,0.7,1.1,1.7,1.1,2.8v16.2c0,1.2-0.4,2.1-1.1,2.8S24.8,36,23.7,36H7.5z M5.1,31.6c1.5-1,3.2-1.8,4.9-2.4
	c1.8-0.6,3.6-0.9,5.5-0.9s3.7,0.3,5.5,0.9s3.4,1.4,4.9,2.4V15.9c0-0.7-0.2-1.2-0.7-1.7s-1-0.7-1.7-0.7h-16c-0.7,0-1.2,0.2-1.7,0.7
	s-0.7,1-0.7,1.7C5.1,15.9,5.1,31.6,5.1,31.6z M15.5,25.9c-1.4,0-2.5-0.5-3.5-1.4c-1-1-1.4-2.1-1.4-3.5s0.5-2.5,1.4-3.5
	c1-1,2.1-1.4,3.5-1.4s2.5,0.5,3.5,1.4c1,1,1.4,2.1,1.4,3.5s-0.5,2.5-1.4,3.5C18.1,25.4,16.9,25.9,15.5,25.9z M34.5,36V12H36v24H34.5
	z M42.9,36V12h1.5v24H42.9z"/>
</svg>
