<?xml version="1.0" encoding="utf-8"?>
<!-- Generator: Adobe Illustrator 26.3.1, SVG Export Plug-In . SVG Version: 6.00 Build 0)  -->
<svg version="1.1" id="Слой_1" xmlns="http://www.w3.org/2000/svg" xmlns:xlink="http://www.w3.org/1999/xlink" x="0px" y="0px"
	 viewBox="0 0 48 48" style="enable-background:new 0 0 48 48;" xml:space="preserve">
<path d="M11.6,42c-1,0-1.9-0.4-2.6-1.1c-0.7-0.7-1.1-1.6-1.1-2.6v-4.1h6.2V6.8l2.5,1.8l2.6-1.8l2.6,1.8l2.6-1.8L27,8.6l2.6-1.8
	l2.6,1.8l2.6-1.8l2.6,1.8l2.5-1.8v31.6c0,1-0.4,1.9-1.1,2.6c-0.7,0.7-1.6,1.1-2.6,1.1L11.6,42L11.6,42z M36.4,40.5
	c0.6,0,1.1-0.2,1.5-0.6c0.4-0.4,0.6-0.9,0.6-1.6V9.2H15.7v26.2h18.7v2.9c0,0.6,0.2,1.1,0.6,1.5C35.3,40.3,35.8,40.5,36.4,40.5z
	 M18.8,16v-1.5h10.7V16H18.8z M18.8,22.4v-1.5h10.7v1.5H18.8z M34.1,16.6c-0.3,0-0.7-0.1-0.9-0.4c-0.3-0.3-0.4-0.6-0.4-0.9
	c0-0.3,0.1-0.7,0.4-0.9c0.3-0.3,0.6-0.4,0.9-0.4s0.7,0.1,0.9,0.4c0.3,0.3,0.4,0.6,0.4,0.9c0,0.3-0.1,0.7-0.4,0.9
	C34.7,16.4,34.4,16.6,34.1,16.6z M34.1,22.8c-0.3,0-0.7-0.1-0.9-0.4c-0.3-0.3-0.4-0.6-0.4-0.9s0.1-0.7,0.4-0.9
	c0.3-0.3,0.6-0.4,0.9-0.4s0.7,0.1,0.9,0.4s0.4,0.6,0.4,0.9s-0.1,0.7-0.4,0.9C34.7,22.6,34.4,22.8,34.1,22.8z"/>
</svg>
