<?xml version="1.0" encoding="utf-8"?>
<!-- Generator: Adobe Illustrator 26.3.1, SVG Export Plug-In . SVG Version: 6.00 Build 0)  -->
<svg version="1.1" id="Слой_1" xmlns="http://www.w3.org/2000/svg" xmlns:xlink="http://www.w3.org/1999/xlink" x="0px" y="0px"
	 viewBox="0 0 48 48" style="enable-background:new 0 0 48 48;" xml:space="preserve">
<path d="M18.5,32.2h10.8c0.3,0,0.5-0.1,0.7-0.2c0.2-0.1,0.3-0.3,0.5-0.5l3.3-7.6c0.1-0.2,0.2-0.5,0.2-0.8s0.1-0.5,0.1-0.7v-0.7
	c0-0.2,0-0.4-0.1-0.5C33.9,21,33.7,21,33.5,21h-11l1.2-5.9c0.1-0.2,0.1-0.4,0-0.7c-0.1-0.2-0.2-0.4-0.3-0.6l-0.2-0.2l-5.7,6.2
	c-0.1,0.1-0.2,0.3-0.2,0.5C17,20.5,17,20.7,17,20.9v9.8c0,0.4,0.2,0.8,0.5,1.1C17.8,32.1,18.1,32.2,18.5,32.2z M24,42
	c-2.5,0-4.8-0.5-7-1.4s-4.1-2.2-5.7-3.9c-1.6-1.6-2.9-3.5-3.9-5.7C6.5,28.8,6,26.5,6,24s0.5-4.8,1.4-7s2.2-4.1,3.9-5.7
	c1.6-1.6,3.5-2.9,5.7-3.8c2.2-1,4.5-1.5,7-1.5s4.8,0.5,7,1.4s4.1,2.2,5.7,3.8c1.6,1.6,2.9,3.5,3.8,5.7c0.9,2.2,1.4,4.5,1.4,7
	s-0.5,4.8-1.4,7s-2.2,4.1-3.8,5.7s-3.5,2.9-5.7,3.9S26.5,42,24,42z"/>
</svg>
