<?xml version="1.0" encoding="utf-8"?>
<!-- Generator: Adobe Illustrator 26.3.1, SVG Export Plug-In . SVG Version: 6.00 Build 0)  -->
<svg version="1.1" id="Слой_1" xmlns="http://www.w3.org/2000/svg" xmlns:xlink="http://www.w3.org/1999/xlink" x="0px" y="0px"
	 viewBox="0 0 48 48" style="enable-background:new 0 0 48 48;" xml:space="preserve">
<path d="M14,29.7c-0.4,0.1-0.7,0.1-1.1,0.1c-0.4,0-0.8-0.1-1.2-0.1c-1.8-0.2-3.3-1-4.5-2.4C6,26,5.4,24.4,5.4,22.5
	c0-2,0.6-3.5,1.7-4.6s2.5-1.4,4-1c0.4-0.6,0.8-1,1.3-1.3s1.1-0.4,1.7-0.4c1.6,0,3,0.8,4.4,2.3s2,3.2,2,5.1c0,1.8-0.7,3.5-2,5
	C17.2,28.8,15.7,29.6,14,29.7c1.4-0.2,2.5-0.7,3.3-1.5s1.1-1.8,0.9-2.9c0-0.2-0.1-0.5-0.1-0.7c-0.1-0.3-0.1-0.5-0.2-0.8
	c0.2-0.4,0.4-0.9,0.6-1.3c0.1-0.5,0.2-0.9,0.2-1.4c0-1.4-0.5-2.6-1.5-3.7s-2.1-1.7-3.3-1.7c-0.5,0-0.9,0.1-1.3,0.3
	c-0.4,0.2-0.7,0.6-1,1.1c-0.7-0.3-0.9-0.5-0.7-0.4s0.3,0.1,0.2,0.1c-0.4,0.6-0.6,1.2-0.8,1.8c-0.2,0.6-0.4,1.4-0.5,2.5
	c-0.5,0.4-0.8,0.9-1,1.4s-0.3,1.1-0.3,1.7c0,0.9,0.2,1.7,0.7,2.5c0.4,0.8,1.1,1.4,1.9,1.8c0.4,0.4,0.8,0.7,1.3,0.9
	C12.9,29.6,13.4,29.7,14,29.7z M17.2,26.5c0,0.7-0.3,1.4-1,1.8c-0.7,0.5-1.5,0.7-2.6,0.7c-0.5,0-0.9-0.1-1.4-0.2
	c-0.4-0.1-0.8-0.3-1.2-0.5c-0.5-0.5-0.9-1.2-1.1-2.2c-0.3-0.9-0.4-2-0.4-3.2c0-0.3,0-0.7,0-1.1s0.1-0.7,0.1-1
	c0.1-0.1,0.3-0.3,0.4-0.4c0.1-0.1,0.3-0.2,0.4-0.2c0,0.2-0.1,0.4-0.1,0.5v0.5c0,1.5,0.3,2.7,0.8,3.6c0.6,0.9,1.3,1.3,2.3,1.3
	c0.5,0,1.1-0.1,1.6-0.3c0.5-0.2,1.1-0.6,1.6-1.1c0.2,0.3,0.2,0.6,0.3,0.8C17.2,26.1,17.2,26.3,17.2,26.5z M16.9,25
	c-0.4-0.9-0.9-1.7-1.6-2.5c-0.7-0.8-1.5-1.4-2.3-1.8c-0.4-0.2-0.8-0.3-1.2-0.4c-0.4,0-0.8,0-1.2,0.2c0.1-0.7,0.2-1.3,0.3-1.9
	c0.2-0.6,0.4-1.1,0.7-1.5c1,0.2,2.1,1.1,3.5,2.6s2.3,2.9,2.8,4.2c-0.1,0.2-0.3,0.4-0.4,0.6C17.2,24.7,17,24.8,16.9,25z M24.2,32.9
	v-7.8h-1.6V23h4.3v9.9H24.2z M25.4,22c-0.4,0-0.8-0.2-1.1-0.5c-0.3-0.3-0.5-0.7-0.5-1.1s0.2-0.8,0.5-1.1c0.3-0.3,0.7-0.5,1.1-0.5
	s0.8,0.2,1.1,0.5c0.3,0.3,0.5,0.7,0.5,1.1s-0.2,0.8-0.5,1.1C26.2,21.9,25.9,22,25.4,22z M30,32.9v-7.8h-1.6v-2.2H30v-0.7
	c0-1,0.3-1.8,0.8-2.4C31.3,19.3,32,19,33,19c0.4,0,0.8,0,1.1,0.1s0.6,0.1,0.9,0.2v2.2c-0.5-0.1-0.9-0.2-1.2-0.2
	c-0.4,0-0.7,0.1-0.8,0.3c-0.2,0.2-0.3,0.5-0.3,0.9V23H35v2.2h-2.3V33L30,32.9L30,32.9z M40.7,32.9c-1,0-1.8-0.3-2.3-0.8
	s-0.8-1.3-0.8-2.4v-4.6h-1.5V23h1.5v-4h2.7v4h2.3v2.2h-2.4v4.3c0,0.4,0.1,0.7,0.3,0.9c0.2,0.2,0.5,0.3,0.9,0.3c0.2,0,0.5,0,0.8-0.1
	v2.2c-0.3,0.1-0.6,0.1-0.7,0.1S41.1,32.9,40.7,32.9z"/>
</svg>
