<?xml version="1.0" encoding="utf-8"?>
<!-- Generator: Adobe Illustrator 26.3.1, SVG Export Plug-In . SVG Version: 6.00 Build 0)  -->
<svg version="1.1" id="Слой_1" xmlns="http://www.w3.org/2000/svg" xmlns:xlink="http://www.w3.org/1999/xlink" x="0px" y="0px"
	 viewBox="0 0 48 48" style="enable-background:new 0 0 48 48;" xml:space="preserve">
<path d="M11.5,36.9c-1.7-1.8-3.1-3.7-4.1-5.9s-1.5-4.5-1.5-7s0.5-4.8,1.4-7s2.3-4.2,4.1-5.9l1.1,1.1c-1.7,1.6-2.9,3.4-3.8,5.4
	S7.4,21.8,7.4,24c0,2.3,0.5,4.4,1.4,6.4s2.2,3.8,3.8,5.4L11.5,36.9z M19,34.8c-0.5,0-0.9-0.2-1.3-0.5c-0.3-0.3-0.5-0.8-0.5-1.3
	s0.2-0.9,0.5-1.3c0.3-0.3,0.8-0.5,1.3-0.5s0.9,0.2,1.3,0.5c0.3,0.3,0.5,0.8,0.5,1.3s-0.2,0.9-0.5,1.3C19.9,34.6,19.5,34.8,19,34.8z
	 M27.2,24.8v-4.5l-3.9,2.3l-0.8-1.3l3.9-2.2l-3.9-2.2l0.8-1.3l3.9,2.3v-4.5h1.5v4.5l3.9-2.3l0.8,1.3L29.5,19l3.9,2.2l-0.8,1.3
	l-3.9-2.3v4.5L27.2,24.8L27.2,24.8z M36.5,36.9l-1.1-1.1c1.6-1.5,2.9-3.3,3.8-5.4s1.4-4.2,1.4-6.5c0-2.2-0.5-4.4-1.4-6.4
	s-2.2-3.8-3.8-5.4l1.1-1.1c1.7,1.7,3.1,3.7,4.1,5.9s1.5,4.6,1.5,7c0,2.5-0.5,4.8-1.4,7C39.6,33.2,38.2,35.2,36.5,36.9z"/>
</svg>
