<?xml version="1.0" encoding="utf-8"?>
<!-- Generator: Adobe Illustrator 26.3.1, SVG Export Plug-In . SVG Version: 6.00 Build 0)  -->
<svg version="1.1" id="Слой_1" xmlns="http://www.w3.org/2000/svg" xmlns:xlink="http://www.w3.org/1999/xlink" x="0px" y="0px"
	 viewBox="0 0 48 48" style="enable-background:new 0 0 48 48;" xml:space="preserve">
<path d="M24,40c-0.3,0-0.6-0.1-1-0.2c-0.3-0.1-0.6-0.3-0.8-0.6L9.6,26.6C9,26,8.5,25.4,8.1,24.8c-0.4-0.6-0.8-1.3-1.1-2h16.8
	c0.9,0,1.7,0.3,2.3,0.9c0.6,0.6,0.9,1.4,0.9,2.3s-0.3,1.7-0.9,2.3c-0.6,0.6-1.4,0.9-2.3,0.9c-0.5,0-1-0.1-1.4-0.3
	c-0.5-0.2-0.8-0.5-1.2-0.9l-1.6,0.4c0.5,0.7,1,1.3,1.8,1.7c0.7,0.4,1.5,0.6,2.4,0.6c1.3,0,2.5-0.5,3.4-1.4s1.4-2.1,1.4-3.4
	c0-0.6-0.1-1.2-0.3-1.8c-0.2-0.5-0.5-1-0.9-1.4h4.4c1.3,0,2.5-0.5,3.4-1.4s1.4-2.1,1.4-3.4s-0.5-2.5-1.4-3.4s-2.1-1.4-3.4-1.4
	c-0.9,0-1.7,0.2-2.4,0.6c-0.7,0.4-1.3,1-1.8,1.7l1.6,0.4c0.3-0.4,0.7-0.7,1.2-0.9s0.9-0.3,1.4-0.3c0.9,0,1.7,0.3,2.3,0.9
	c0.6,0.6,0.9,1.4,0.9,2.3s-0.3,1.7-0.9,2.3c-0.6,0.6-1.4,0.9-2.3,0.9H6.4c-0.1-0.5-0.2-1-0.3-1.5C6,19.2,6,18.7,6,18.2
	c0-2.9,0.9-5.3,2.7-7.3s4-3,6.6-3c1.4,0,2.7,0.3,3.9,0.8c1.3,0.6,2.4,1.4,3.4,2.4l1.3,1.4l1.3-1.3c1-1.1,2.2-1.9,3.4-2.5
	c1.3-0.6,2.6-0.9,3.9-0.9c2.6,0,4.8,1,6.6,3s2.7,4.4,2.7,7.3c0,1.6-0.3,3.1-0.9,4.5c-0.6,1.5-1.5,2.8-2.7,3.9L25.7,39.3
	c-0.3,0.3-0.5,0.4-0.8,0.6S24.3,40,24,40z"/>
</svg>
