<?xml version="1.0" encoding="utf-8"?>
<!-- Generator: Adobe Illustrator 26.3.1, SVG Export Plug-In . SVG Version: 6.00 Build 0)  -->
<svg version="1.1" id="Слой_1" xmlns="http://www.w3.org/2000/svg" xmlns:xlink="http://www.w3.org/1999/xlink" x="0px" y="0px"
	 viewBox="0 0 48 48" style="enable-background:new 0 0 48 48;" xml:space="preserve">
<path d="M18.1,42.5l-3.3-5.7l-6.5-1.3L9,29l-4.3-5l4.2-4.9l-0.7-6.5l6.5-1.4L18,5.5l6,2.6l5.9-2.6l3.4,5.7l6.5,1.4l-0.7,6.5l4.2,4.9
	l-4.2,4.9l0.7,6.5l-6.5,1.3l-3.4,5.7L24,39.9L18.1,42.5z M24,32.9c0.3,0,0.6-0.1,0.8-0.3c0.2-0.2,0.3-0.5,0.3-0.8S25,31.2,24.8,31
	c-0.2-0.2-0.5-0.3-0.8-0.3s-0.6,0.1-0.8,0.3c-0.2,0.2-0.3,0.5-0.3,0.8s0.1,0.6,0.3,0.8C23.4,32.8,23.7,32.9,24,32.9z M23.3,26.5h1.5
	V14.2h-1.5V26.5z"/>
</svg>
