<?xml version="1.0" encoding="utf-8"?>
<!-- Generator: Adobe Illustrator 26.3.1, SVG Export Plug-In . SVG Version: 6.00 Build 0)  -->
<svg version="1.1" id="Слой_1" xmlns="http://www.w3.org/2000/svg" xmlns:xlink="http://www.w3.org/1999/xlink" x="0px" y="0px"
	 viewBox="0 0 48 48" style="enable-background:new 0 0 48 48;" xml:space="preserve">
<path d="M14.8,44c-0.7,0-1.4-0.3-1.9-0.8c-0.6-0.6-0.9-1.2-0.9-2V6.8c0-0.7,0.3-1.4,0.8-1.9C13.4,4.3,14,4,14.8,4h18.5
	c0.7,0,1.4,0.3,1.9,0.8C35.7,5.4,36,6,36,6.8v34.5c0,0.7-0.3,1.4-0.8,1.9c-0.6,0.5-1.2,0.8-2,0.8H14.8z M24,28.9
	c1.9,0,3.7,0.3,5.5,0.8s3.4,1.2,5,2.1v-22h-21v21.9c1.6-0.9,3.3-1.6,5-2.1C20.3,29.2,22.1,28.9,24,28.9z M24,25.4
	c-1.4,0-2.5-0.5-3.5-1.4s-1.4-2.1-1.4-3.5s0.5-2.5,1.4-3.5s2.1-1.4,3.4-1.4c1.4,0,2.5,0.5,3.5,1.4c1,1,1.4,2.1,1.4,3.5
	S28.3,23,27.4,24C26.6,24.9,25.4,25.4,24,25.4z"/>
</svg>
