<?xml version="1.0" encoding="utf-8"?>
<!-- Generator: Adobe Illustrator 26.3.1, SVG Export Plug-In . SVG Version: 6.00 Build 0)  -->
<svg version="1.1" id="Слой_1" xmlns="http://www.w3.org/2000/svg" xmlns:xlink="http://www.w3.org/1999/xlink" x="0px" y="0px"
	 viewBox="0 0 48 48" style="enable-background:new 0 0 48 48;" xml:space="preserve">
<path d="M13.4,18.5h3.5V15c0-1-0.3-1.8-1-2.5s-1.5-1-2.5-1s-1.8,0.3-2.5,1s-1,1.5-1,2.5s0.3,1.8,1,2.5
	C11.6,18.1,12.4,18.5,13.4,18.5z M21.6,18.5c1,0,1.8-0.3,2.5-1s1-1.5,1-2.5s-0.3-1.8-1-2.5s-1.5-1-2.5-1s-1.8,0.3-2.5,1
	s-1,1.5-1,2.5v3.5H21.6z M18.4,23.1h14.8c1.3,0,2.5,0.5,3.4,1.4s1.4,2.1,1.4,3.4v7.3c0,1.9-0.7,3.5-2,4.8s-2.9,2-4.8,2H23
	c-1.1,0-2.2-0.2-3.2-0.7s-1.8-1.1-2.5-2L7.8,26.8l0.6-0.6c0.2-0.3,0.5-0.4,0.9-0.5c0.3-0.1,0.7,0,1,0.1l6.6,3.1V20h-3.5
	c-1.4,0-2.6-0.5-3.5-1.5S8.4,16.4,8.4,15s0.5-2.6,1.5-3.5S12,10,13.4,10c0.6,0,1.3,0.1,1.9,0.4c0.6,0.2,1.1,0.6,1.6,1V6.8
	c0-0.2,0.1-0.4,0.2-0.5C17.2,6.1,17.4,6,17.6,6s0.4,0.1,0.5,0.2s0.2,0.3,0.2,0.5v4.5c0.4-0.4,0.9-0.7,1.5-0.9
	c0.5-0.2,1.1-0.3,1.7-0.3c1.4,0,2.6,0.5,3.5,1.5c1,1,1.5,2.2,1.5,3.5c0,1.4-0.5,2.6-1.5,3.5c-1,1-2.2,1.5-3.5,1.5h-3.2
	C18.4,20,18.4,23.1,18.4,23.1z"/>
</svg>
