<?xml version="1.0" encoding="utf-8"?>
<!-- Generator: Adobe Illustrator 26.3.1, SVG Export Plug-In . SVG Version: 6.00 Build 0)  -->
<svg version="1.1" id="Слой_1" xmlns="http://www.w3.org/2000/svg" xmlns:xlink="http://www.w3.org/1999/xlink" x="0px" y="0px"
	 viewBox="0 0 48 48" style="enable-background:new 0 0 48 48;" xml:space="preserve">
<path d="M35.8,31.5L14.1,9.8L24,6.1l14,5.2V22c0,1.5-0.2,3-0.5,4.6C37.1,28.2,36.6,29.8,35.8,31.5z M40,42.4l-6.8-6.8
	c-1.3,1.5-2.7,2.8-4.2,3.9c-1.6,1.1-3.2,1.9-5,2.4c-4.3-1.3-7.7-3.8-10.2-7.6C11.3,30.6,10,26.5,10,22v-9.7L5.7,8.1L6.8,7l34.3,34.3
	C41.2,41.3,40,42.4,40,42.4z"/>
</svg>
