<?xml version="1.0" encoding="utf-8"?>
<!-- Generator: Adobe Illustrator 26.3.1, SVG Export Plug-In . SVG Version: 6.00 Build 0)  -->
<svg version="1.1" id="Слой_1" xmlns="http://www.w3.org/2000/svg" xmlns:xlink="http://www.w3.org/1999/xlink" x="0px" y="0px"
	 viewBox="0 0 48 48" style="enable-background:new 0 0 48 48;" xml:space="preserve">
<path d="M8.8,38c-0.8,0-1.4-0.3-2-0.8C6.3,36.7,6,36,6,35.2V12.8c0-0.8,0.3-1.4,0.8-2C7.3,10.3,8,10,8.8,10h30.5
	c0.8,0,1.4,0.3,2,0.8c0.5,0.5,0.8,1.2,0.8,2v10.5h-1.5v-7.6H7.5v19.6c0,0.3,0.1,0.6,0.4,0.8c0.3,0.3,0.5,0.4,0.8,0.4h13.5V38H8.8z
	 M36.5,44.8c-2.1,0-4-0.6-5.7-1.9s-2.8-3-3.3-4.9h1.9c0.5,1.5,1.4,2.7,2.7,3.6c1.3,0.9,2.7,1.4,4.4,1.4c2.1,0,3.9-0.7,5.4-2.2
	s2.2-3.3,2.2-5.4c0-2.1-0.7-3.9-2.2-5.4s-3.3-2.2-5.4-2.2c-1.2,0-2.4,0.3-3.5,0.9c-1.1,0.6-2.1,1.4-2.9,2.3h3.8v1.8h-6.8V26h1.8v3.7
	c1-1.1,2.1-2,3.4-2.7c1.3-0.7,2.7-1,4.2-1c2.6,0,4.8,0.9,6.6,2.8c1.8,1.8,2.8,4,2.8,6.6S45,40.2,43.1,42
	C41.3,43.9,39,44.8,36.5,44.8z"/>
</svg>
