<?xml version="1.0" encoding="utf-8"?>
<!-- Generator: Adobe Illustrator 26.3.1, SVG Export Plug-In . SVG Version: 6.00 Build 0)  -->
<svg version="1.1" id="Слой_1" xmlns="http://www.w3.org/2000/svg" xmlns:xlink="http://www.w3.org/1999/xlink" x="0px" y="0px"
	 viewBox="0 0 48 48" style="enable-background:new 0 0 48 48;" xml:space="preserve">
<path d="M24,36c3.1,0,5.7-1.1,7.8-3.2S35,28.1,35,25c0-3.5-1.4-6.3-4.2-8.5s-6-3-9.6-2.6l4.2-4.1L24,8.3L17.3,15l6.7,6.7l1.5-1.5
	l-4.2-4.1c3.1-0.4,5.8,0.2,8.1,2c2.4,1.7,3.5,4.1,3.5,7c0,2.5-0.9,4.6-2.6,6.3C28.6,33.1,26.5,34,24,34c-2.3,0-4.3-0.8-6-2.3
	s-2.6-3.4-2.9-5.7H13c0.2,2.9,1.4,5.3,3.5,7.2S21.1,36.1,24,36z M24,42c-2.5,0-4.8-0.5-7-1.4c-2.2-1-4.1-2.2-5.7-3.8
	s-2.9-3.5-3.8-5.7S6,26.5,6,24s0.5-4.8,1.4-7s2.2-4.1,3.8-5.7s3.5-2.9,5.7-3.8c2.2-1,4.5-1.4,7-1.4s4.8,0.5,7,1.4s4.1,2.2,5.7,3.8
	s2.9,3.5,3.8,5.7c1,2.2,1.4,4.5,1.4,7s-0.5,4.8-1.4,7c-1,2.2-2.2,4.1-3.8,5.7c-1.6,1.6-3.5,2.9-5.7,3.8S26.5,42,24,42z"/>
</svg>
