<?xml version="1.0" encoding="utf-8"?>
<!-- Generator: Adobe Illustrator 26.3.1, SVG Export Plug-In . SVG Version: 6.00 Build 0)  -->
<svg version="1.1" id="Слой_1" xmlns="http://www.w3.org/2000/svg" xmlns:xlink="http://www.w3.org/1999/xlink" x="0px" y="0px"
	 viewBox="0 0 48 48" style="enable-background:new 0 0 48 48;" xml:space="preserve">
<path d="M8.4,18c0.9-3.6,2.8-6.5,5.7-8.7S20.3,6,24,6c3.1,0,5.9,0.8,8.5,2.5c2.6,1.6,4.6,3.8,5.9,6.6V8.7H40V18h-9.3v-1.5h6.8
	c-1.2-2.7-3-4.9-5.4-6.5C29.7,8.3,27,7.5,24,7.5c-3.3,0-6.2,1-8.8,2.9S10.9,14.8,10,18H8.4z M21.5,42c-1.4,0-2.7-0.5-3.7-1.5
	s-1.5-2.3-1.5-3.7s0.5-2.7,1.5-3.7s2.3-1.5,3.7-1.5c0.7,0,1.4,0.1,2,0.4c0.6,0.3,1.2,0.6,1.7,1.1V22.8h7.5v1.5h-6v12.5
	c0,1.4-0.5,2.7-1.5,3.7S23,42,21.5,42z"/>
</svg>
