<?xml version="1.0" encoding="utf-8"?>
<!-- Generator: Adobe Illustrator 26.3.1, SVG Export Plug-In . SVG Version: 6.00 Build 0)  -->
<svg version="1.1" id="Слой_1" xmlns="http://www.w3.org/2000/svg" xmlns:xlink="http://www.w3.org/1999/xlink" x="0px" y="0px"
	 viewBox="0 0 48 48" style="enable-background:new 0 0 48 48;" xml:space="preserve">
<path d="M41.2,43.7l-7-7.1L30.7,40H17.3L8,30.7V17.3l3.5-3.4L4.3,6.8l1.1-1.1l36.8,36.8L41.2,43.7z M37.7,33.1l-13-13v-5.5h-1.5v4
	L15,10.3L17.3,8h13.3l9.3,9.3v13.3C40,30.7,37.7,33.1,37.7,33.1z M24,32.8c0.3,0,0.6-0.1,0.8-0.4c0.2-0.2,0.3-0.5,0.3-0.8
	c0-0.2,0-0.4-0.1-0.5c-0.1-0.2-0.2-0.3-0.3-0.5l0.4,0.4c-0.2-0.2-0.3-0.3-0.5-0.4s-0.4-0.1-0.5-0.1c-0.3,0-0.6,0.1-0.8,0.3
	C23.1,31,23,31.3,23,31.6s0.1,0.5,0.3,0.8C23.4,32.7,23.7,32.8,24,32.8z"/>
</svg>
