<?xml version="1.0" encoding="utf-8"?>
<!-- Generator: Adobe Illustrator 26.3.1, SVG Export Plug-In . SVG Version: 6.00 Build 0)  -->
<svg version="1.1" id="Слой_1" xmlns="http://www.w3.org/2000/svg" xmlns:xlink="http://www.w3.org/1999/xlink" x="0px" y="0px"
	 viewBox="0 0 48 48" style="enable-background:new 0 0 48 48;" xml:space="preserve">
<path d="M29.4,42c-1.5,0-2.8-0.5-3.8-1.6c-1-1-1.6-2.3-1.6-3.9c0-0.8,0.2-1.6,0.6-2.4c0.4-0.7,0.9-1.4,1.6-1.9v-5.1
	c0-0.9,0.3-1.7,0.9-2.3c0.6-0.6,1.4-0.9,2.3-0.9s1.7,0.3,2.3,0.9c0.6,0.6,0.9,1.4,0.9,2.3v5.1c0.7,0.5,1.2,1.1,1.6,1.9
	c0.4,0.7,0.6,1.5,0.6,2.4c0,1.5-0.5,2.8-1.6,3.9C32.2,41.5,30.9,42,29.4,42z M25.8,36.6H33c0-0.7-0.2-1.4-0.6-1.9
	c-0.4-0.5-0.9-1-1.5-1.4v-6.1c0-0.4-0.1-0.8-0.4-1c-0.3-0.3-0.6-0.4-1-0.4s-0.8,0.1-1,0.4c-0.3,0.3-0.4,0.6-0.4,1v6.1
	c-0.6,0.4-1.2,0.9-1.6,1.4C26,35.2,25.8,35.9,25.8,36.6z M35.7,31.2v-1.7H40v1.7H35.7z M35.7,26.7V25H42v1.7H35.7z M39.3,19.7h-1.6
	c-0.9-2.9-2.7-5.4-5.2-7.3s-5.4-2.9-8.6-2.9c-4,0-7.4,1.4-10.2,4.2C10.9,16.6,9.5,20,9.5,24c0,3,0.8,5.6,2.3,8
	c1.6,2.3,3.6,4.1,6.1,5.2v-6.7h1.5V40H10v-1.5h7.2c-2.7-1.3-4.9-3.3-6.7-5.8C8.9,30.1,8,27.2,8,24c0-2.2,0.4-4.3,1.3-6.2
	s2-3.6,3.4-5.1s3.1-2.6,5.1-3.4C19.7,8.4,21.8,8,24,8c3.7,0,6.9,1.1,9.7,3.3S38.4,16.3,39.3,19.7z"/>
</svg>
