<?xml version="1.0" encoding="utf-8"?>
<!-- Generator: Adobe Illustrator 26.3.1, SVG Export Plug-In . SVG Version: 6.00 Build 0)  -->
<svg version="1.1" id="Слой_1" xmlns="http://www.w3.org/2000/svg" xmlns:xlink="http://www.w3.org/1999/xlink" x="0px" y="0px"
	 viewBox="0 0 48 48" style="enable-background:new 0 0 48 48;" xml:space="preserve">
<path d="M24,30.6V26c0-0.6,0.2-1.1,0.6-1.5s0.9-0.6,1.5-0.6h4.5v1.8h-4.8v4.8H24V30.6z M26.1,42c-0.6,0-1.1-0.2-1.5-0.6
	C24.2,41,24,40.5,24,39.9v-4.5h1.8v4.8h4.8V42H26.1z M40.2,30.6v-4.8h-4.8V24H40c0.6,0,1.1,0.2,1.5,0.6s0.6,0.9,0.6,1.5v4.6h-1.9
	V30.6z M35.4,42v-1.8h4.8v-4.8H42v4.5c0,0.6-0.2,1.1-0.6,1.5C41,41.8,40.5,42,39.9,42H35.4z M39.3,19.7h-1.6
	c-0.9-2.9-2.7-5.4-5.2-7.3s-5.4-2.9-8.6-2.9c-4,0-7.4,1.4-10.2,4.2C10.9,16.6,9.5,20,9.5,24c0,3,0.8,5.6,2.3,8
	c1.6,2.3,3.6,4.1,6.1,5.2v-6.7h1.5V40H10v-1.5h7.2c-2.7-1.3-4.9-3.3-6.7-5.8C8.9,30.1,8,27.2,8,24c0-2.2,0.4-4.3,1.3-6.2
	c0.8-1.9,2-3.6,3.4-5.1s3.1-2.6,5.1-3.4C19.7,8.4,21.8,8,24,8c3.7,0,6.9,1.1,9.7,3.3S38.4,16.3,39.3,19.7z"/>
</svg>
