<?xml version="1.0" encoding="utf-8"?>
<!-- Generator: Adobe Illustrator 26.3.1, SVG Export Plug-In . SVG Version: 6.00 Build 0)  -->
<svg version="1.1" id="Слой_1" xmlns="http://www.w3.org/2000/svg" xmlns:xlink="http://www.w3.org/1999/xlink" x="0px" y="0px"
	 viewBox="0 0 48 48" style="enable-background:new 0 0 48 48;" xml:space="preserve">
<path d="M24,33c0-1.3,0.3-2.6,0.8-3.8c0.6-1.2,1.3-2.2,2.2-3l3.9,6.8H24z M28.5,40.8c-1.1-0.6-2-1.4-2.8-2.5c-0.8-1-1.3-2.2-1.6-3.5
	h7.8L28.5,40.8z M31.9,31.2l-3.4-6c0.7-0.4,1.4-0.7,2.1-0.9c0.7-0.2,1.5-0.3,2.4-0.3c0.5,0,1,0,1.4,0.1c0.5,0.1,0.9,0.2,1.4,0.4
	C35.8,24.5,31.9,31.2,31.9,31.2z M33,42c-0.5,0-1,0-1.5-0.1s-0.9-0.2-1.4-0.4l3.9-6.7l3.5,5.9c-0.7,0.4-1.4,0.7-2.1,0.9
	C34.6,41.9,33.8,42,33,42z M34,31.2l3.5-6c1.1,0.6,2,1.5,2.8,2.5s1.3,2.2,1.5,3.5H34z M38.9,39.8L35.1,33H42c0,1.3-0.3,2.6-0.8,3.7
	C40.6,37.9,39.9,38.9,38.9,39.8z M39.3,19.7h-1.6c-0.9-2.9-2.7-5.4-5.2-7.3s-5.4-2.9-8.6-2.9c-4,0-7.4,1.4-10.2,4.2
	C10.9,16.6,9.5,20,9.5,24c0,3,0.8,5.6,2.3,8c1.6,2.3,3.6,4.1,6.1,5.2v-6.7h1.5V40H10v-1.5h7.2c-2.7-1.3-4.9-3.3-6.7-5.8
	C8.9,30.1,8,27.2,8,24c0-2.2,0.4-4.3,1.3-6.2s2-3.6,3.4-5.1s3.1-2.6,5.1-3.4C19.7,8.4,21.8,8,24,8c3.7,0,6.9,1.1,9.7,3.3
	S38.4,16.3,39.3,19.7z"/>
</svg>
