<?xml version="1.0" encoding="utf-8"?>
<!-- Generator: Adobe Illustrator 26.3.1, SVG Export Plug-In . SVG Version: 6.00 Build 0)  -->
<svg version="1.1" id="Слой_1" xmlns="http://www.w3.org/2000/svg" xmlns:xlink="http://www.w3.org/1999/xlink" x="0px" y="0px"
	 viewBox="0 0 48 48" style="enable-background:new 0 0 48 48;" xml:space="preserve">
<path d="M26.1,44c-0.5,0-0.9-0.2-1.2-0.5c-0.3-0.3-0.5-0.7-0.5-1.2v-6.2l2.5-6.4c0.1-0.4,0.3-0.7,0.7-0.9c0.3-0.2,0.7-0.3,1.1-0.3
	H32v3.6l-2.4,2.3l1.1,1.1l2.8-2.8v-9.2H35v9.1l2.8,2.8l1.1-1.1L36.5,32v-3.6h3.2c0.4,0,0.7,0.1,1,0.3c0.3,0.2,0.5,0.5,0.7,0.8L44,36
	v6.2c0,0.5-0.2,0.9-0.5,1.2s-0.7,0.5-1.1,0.5h-4.5c-0.5,0-0.9-0.2-1.2-0.5s-0.5-0.7-0.5-1.2v-6.3l-2-1.9l-2.1,2.1v6.1
	c0,0.5-0.2,0.9-0.5,1.3S30.8,44,30.4,44H26.1z M14,30.3l-3.4-6.6c-0.1-0.1-0.1-0.2-0.3-0.3s-0.2-0.1-0.4-0.1H6V12.8
	c0-0.8,0.3-1.4,0.8-2C7.3,10.3,8,10,8.8,10h30.5c0.8,0,1.4,0.3,2,0.8c0.5,0.5,0.8,1.2,0.8,2v11.9h-3.2v-5h-9.1v5l-2.4,0.1l-4.6-9.2
	c-0.1-0.1-0.1-0.2-0.3-0.2c-0.1-0.1-0.3-0.1-0.4-0.1s-0.3,0-0.4,0.1s-0.2,0.1-0.3,0.2L14,30.3z M8.8,38c-0.8,0-1.4-0.3-2-0.8
	C6.3,36.7,6,36,6,35.2V24.8h3.5l3.7,7.6c0.1,0.1,0.2,0.2,0.3,0.3s0.3,0.1,0.4,0.1c0.1,0,0.3,0,0.4-0.1c0.1-0.1,0.2-0.2,0.3-0.3
	L22,17.7l3.8,7.7c-0.5,0.3-1,0.7-1.4,1.2s-0.7,1-1,1.6l-2.7,7.1V38H8.8z"/>
</svg>
