<?xml version="1.0" encoding="utf-8"?>
<!-- Generator: Adobe Illustrator 26.3.1, SVG Export Plug-In . SVG Version: 6.00 Build 0)  -->
<svg version="1.1" id="Слой_1" xmlns="http://www.w3.org/2000/svg" xmlns:xlink="http://www.w3.org/1999/xlink" x="0px" y="0px"
	 viewBox="0 0 48 48" style="enable-background:new 0 0 48 48;" xml:space="preserve">
<path d="M15.1,43V24.9c-1.6-0.2-2.9-0.8-4-2s-1.7-2.7-1.7-4.4V5H11v13.5h4.1V5h1.5v13.5h4.1V5h1.5v13.5c0,1.7-0.6,3.2-1.7,4.4
	c-1.1,1.2-2.4,1.9-4,2V43H15.1z M33.9,43V27h-4.8V13.4c0-2.1,0.5-4,1.6-5.6s2.7-2.5,4.7-2.8v38C35.5,43,33.9,43,33.9,43z"/>
</svg>
