<?xml version="1.0" encoding="utf-8"?>
<!-- Generator: Adobe Illustrator 26.3.1, SVG Export Plug-In . SVG Version: 6.00 Build 0)  -->
<svg version="1.1" id="Слой_1" xmlns="http://www.w3.org/2000/svg" xmlns:xlink="http://www.w3.org/1999/xlink" x="0px" y="0px"
	 viewBox="0 0 48 48" style="enable-background:new 0 0 48 48;" xml:space="preserve">
<path d="M23.2,30.2h1.5V20.1l4.6,4.7l1.1-1.1L24,17.2l-6.5,6.5l1.1,1.1l4.6-4.7C23.2,20.1,23.2,30.2,23.2,30.2z M14.8,40
	c-0.8,0-1.4-0.3-2-0.8c-0.5-0.5-0.8-1.2-0.8-2V11.3h-2V9.8h7.7V8.5h12.6v1.3H38v1.5h-2v25.9c0,0.8-0.3,1.4-0.8,2
	c-0.5,0.5-1.2,0.8-2,0.8H14.8z"/>
</svg>
