<?xml version="1.0" encoding="utf-8"?>
<!-- Generator: Adobe Illustrator 26.3.1, SVG Export Plug-In . SVG Version: 6.00 Build 0)  -->
<svg version="1.1" id="Слой_1" xmlns="http://www.w3.org/2000/svg" xmlns:xlink="http://www.w3.org/1999/xlink" x="0px" y="0px"
	 viewBox="0 0 48 48" style="enable-background:new 0 0 48 48;" xml:space="preserve">
<path d="M24.1,34.3c2.3,0,4.2-0.8,5.8-2.4c1.6-1.6,2.4-3.5,2.4-5.8s-0.8-4.3-2.4-5.8c-1.6-1.6-3.5-2.4-5.8-2.4c-1.5,0-2.8,0.3-4,1
	c-1.1,0.7-2,1.5-2.7,2.3v-3.6H16v6.1h6.1v-1.4h-3.6c0.5-0.8,1.2-1.5,2.2-2c1-0.6,2.1-0.9,3.3-0.9c1.9,0,3.5,0.6,4.7,1.9
	c1.3,1.3,1.9,2.8,1.9,4.7c0,1.9-0.6,3.5-1.9,4.8s-2.8,1.9-4.7,1.9c-1.5,0-2.9-0.4-4-1.3c-1.2-0.9-2-2-2.4-3.3H16
	c0.6,1.9,1.6,3.4,3.1,4.5C20.5,33.7,22.2,34.3,24.1,34.3z M12.8,42c-0.8,0-1.4-0.3-2-0.8c-0.5-0.5-0.8-1.2-0.8-2V8.8
	c0-0.8,0.3-1.4,0.8-2C11.3,6.3,12,6,12.8,6h14.4L38,16.8v22.4c0,0.8-0.3,1.4-0.8,2c-0.5,0.5-1.2,0.8-2,0.8C35.2,42,12.8,42,12.8,42z
	"/>
</svg>
