<?xml version="1.0" encoding="utf-8"?>
<!-- Generator: Adobe Illustrator 26.3.1, SVG Export Plug-In . SVG Version: 6.00 Build 0)  -->
<svg version="1.1" id="Слой_1" xmlns="http://www.w3.org/2000/svg" xmlns:xlink="http://www.w3.org/1999/xlink" x="0px" y="0px"
	 viewBox="0 0 48 48" style="enable-background:new 0 0 48 48;" xml:space="preserve">
<path d="M16,42.5v-9l-4.7-4.8c-0.2-0.2-0.4-0.5-0.5-0.7c-0.2-0.3-0.3-0.5-0.3-0.8c0.5,0.5,1.1,0.8,1.8,1.1c0.7,0.2,1.3,0.4,2.1,0.4
	c0.8,0,1.6-0.1,2.3-0.4c0.7-0.3,1.4-0.8,2.2-1.4c0.3-0.3,0.6-0.5,0.9-0.6s0.6-0.2,0.8-0.2c0.3,0,0.6,0.1,0.9,0.2s0.6,0.4,0.9,0.6
	c0.8,0.6,1.6,1.1,2.2,1.4c0.7,0.3,1.4,0.4,2.2,0.4c0.8,0,1.5-0.1,2.1-0.4c0.7-0.3,1.3-0.6,1.8-1.1c-0.1,0.3-0.2,0.6-0.3,0.9
	c-0.1,0.2-0.3,0.5-0.6,0.7L25,33.5v9H16z M14.2,26.6c-1.2,0-2.2-0.4-3-1.2c-0.8-0.8-1.2-1.8-1.2-3c0-0.6,0.1-1.1,0.3-1.6
	s0.5-1,0.9-1.3l4.7-4.8v-9h9v9l4.8,4.8c0.4,0.4,0.7,0.8,0.9,1.4c0.2,0.5,0.3,1.1,0.3,1.7c0,1.2-0.4,2.2-1.2,3
	c-0.8,0.8-1.8,1.2-3,1.2c-0.8,0-1.4-0.1-1.8-0.4c-0.5-0.3-0.9-0.6-1.3-1c-0.6-0.5-1.2-0.8-1.7-1s-1-0.3-1.4-0.3
	c-0.5,0-0.9,0.1-1.4,0.3c-0.5,0.2-1.1,0.5-1.6,1c-0.4,0.4-0.9,0.7-1.3,1C15.6,26.4,15,26.6,14.2,26.6z M44.8,33l-7.9-2.7l0.4-1.4
	l7.9,2.6L44.8,33z M45,24.8h-7.7v-1.5H45V24.8z M45.2,16.4L37.3,19l-0.5-1.5l7.9-2.6C44.7,15,45.2,16.4,45.2,16.4z"/>
</svg>
