<?xml version="1.0" encoding="utf-8"?>
<!-- Generator: Adobe Illustrator 26.3.1, SVG Export Plug-In . SVG Version: 6.00 Build 0)  -->
<svg version="1.1" id="Слой_1" xmlns="http://www.w3.org/2000/svg" xmlns:xlink="http://www.w3.org/1999/xlink" x="0px" y="0px"
	 viewBox="0 0 48 48" style="enable-background:new 0 0 48 48;" xml:space="preserve">
<path d="M10,42.8c-1.3,0-2.4-0.5-3.4-1.4S5.2,39.3,5.2,38c0-0.2,0.1-0.4,0.2-0.6c0.1-0.1,0.3-0.2,0.5-0.2s0.4,0.1,0.6,0.2
	c0.1,0.1,0.2,0.3,0.2,0.6c0,0.9,0.3,1.6,1,2.3c0.6,0.6,1.4,1,2.3,1c0.7,0,1.5-0.3,2.4-0.9c0.9-0.6,1.8-1.3,2.7-2.2s1.8-1.8,2.6-2.7
	c0.8-1,1.5-1.8,2-2.6c1-1.3,1.8-2.8,2.5-4.3s1-3,1-4.6V6c0-0.2,0.1-0.4,0.2-0.6c0.1-0.1,0.3-0.2,0.5-0.2s0.4,0.1,0.6,0.2
	c0.1,0.1,0.2,0.3,0.2,0.6v18c0,1.6,0.3,3.1,1,4.6s1.5,2.9,2.5,4.3c0.5,0.7,1.2,1.6,2,2.6s1.7,1.9,2.6,2.7c0.9,0.9,1.8,1.6,2.7,2.2
	c0.9,0.6,1.7,0.9,2.4,0.9c0.9,0,1.7-0.3,2.3-1c0.6-0.6,0.9-1.4,0.9-2.3c0-0.2,0.1-0.4,0.2-0.6c0.1-0.1,0.3-0.2,0.5-0.2
	s0.4,0.1,0.6,0.2c0.1,0.1,0.2,0.3,0.2,0.6c0,1.3-0.5,2.4-1.4,3.4c-0.9,0.9-2.1,1.4-3.4,1.4c-1.2,0-2.3-0.3-3.3-1
	c-1.1-0.7-2.1-1.5-3.1-2.5c-1-1-2-2-2.9-3.1s-1.8-2.2-2.6-3.1c-0.3-0.4-0.6-0.7-1-0.9c-0.3-0.2-0.7-0.4-1.1-0.4s-0.7,0.1-1.1,0.4
	c-0.3,0.2-0.6,0.5-1,0.9c-0.7,1-1.6,2-2.5,3.1s-1.9,2.2-2.9,3.1c-1,1-2.1,1.8-3.1,2.5C12.3,42.4,11.2,42.8,10,42.8z M11.8,37.1
	L7,33.3c-0.4-0.3-0.7-0.7-0.9-1.1c-0.2-0.4-0.3-0.8-0.3-1.3s0.1-0.9,0.3-1.3c0.2-0.4,0.5-0.8,0.8-1.1c0.1-0.1,0.3-0.1,0.5-0.2
	s0.3,0.1,0.5,0.2C8,28.7,8,28.8,8,29s-0.1,0.4-0.2,0.5c-0.2,0.1-0.3,0.3-0.5,0.5c-0.1,0.2-0.2,0.5-0.2,0.8c0,0.2,0,0.5,0.1,0.7
	c0.1,0.3,0.3,0.5,0.5,0.7l5.1,4c-0.2,0.2-0.4,0.3-0.5,0.5C12.2,36.8,12.1,36.9,11.8,37.1z M16.9,31.9L10,26.3
	c-0.4-0.3-0.7-0.7-0.9-1.1s-0.3-0.8-0.3-1.3s0.1-0.9,0.3-1.4c0.2-0.4,0.4-0.8,0.8-1.1c0.1-0.1,0.3-0.1,0.5-0.1s0.4,0.1,0.5,0.2
	s0.1,0.3,0.2,0.5c0,0.2-0.1,0.3-0.2,0.5c-0.2,0.1-0.4,0.3-0.5,0.6c-0.1,0.3-0.2,0.6-0.2,0.9c0,0.2,0,0.5,0.1,0.7s0.3,0.5,0.5,0.7
	l6.8,5.4c-0.2,0.2-0.3,0.4-0.4,0.5C17.2,31.5,17.1,31.6,16.9,31.9z M19.9,25L13,19.5c-0.4-0.3-0.7-0.7-0.9-1.1s-0.3-0.9-0.3-1.4
	s0.1-0.9,0.3-1.4c0.2-0.4,0.5-0.8,0.9-1.1c0.1-0.1,0.3-0.1,0.5-0.1s0.3,0.1,0.4,0.2c0.1,0.1,0.1,0.3,0.2,0.5c0,0.2-0.1,0.3-0.2,0.5
	c-0.1,0.1-0.3,0.3-0.5,0.6s-0.3,0.6-0.3,1c0,0.1,0.2,0.6,0.7,1.4l6.1,5V24c0,0.2,0,0.4,0,0.5S19.9,24.8,19.9,25z M20,15.6l-4.1-3.4
	c-0.3-0.3-0.6-0.7-0.8-1.1c-0.2-0.4-0.3-0.8-0.3-1.3c0-0.8,0.3-1.5,0.9-2.2C16.3,7,17,6.7,17.8,6.7c0.2,0,0.5,0,0.8,0S19,6.9,19,7.3
	s0,0.8-0.3,0.8s-0.6,0-0.8,0c-0.5,0-0.9,0.2-1.2,0.6c-0.3,0.4-0.5,0.8-0.5,1.2c0,0.2,0,0.4,0.1,0.7c0.1,0.2,0.3,0.4,0.5,0.6l3.2,2.7
	C20,13.9,20,15.6,20,15.6z M28.1,25c0-0.2,0-0.4,0-0.5s0-0.3,0-0.5v-0.6l6.1-5c0.3-0.2,0.5-0.7,0.7-1.4c0-0.4-0.1-0.7-0.3-1
	c-0.2-0.3-0.3-0.5-0.5-0.6s-0.2-0.3-0.2-0.4c0-0.2,0.1-0.3,0.2-0.5c0.1-0.2,0.3-0.2,0.5-0.2s0.4,0,0.5,0.1c0.4,0.3,0.7,0.7,0.9,1.2
	c0.2,0.4,0.3,0.9,0.3,1.4s-0.1,0.9-0.3,1.4c-0.2,0.4-0.5,0.8-0.9,1.1L28.1,25z M28,15.5v-1.7l3.2-2.6c0.2-0.2,0.3-0.3,0.5-0.6
	c0.1-0.2,0.2-0.5,0.2-0.7c0-0.5-0.2-0.9-0.5-1.3c-0.3-0.3-0.7-0.5-1.2-0.5c-0.2,0-0.5,0-0.8,0S29,7.9,29,7.5s0.1-0.6,0.4-0.6
	s0.6,0,0.8,0c0.8,0,1.5,0.3,2.1,0.9s0.9,1.3,0.9,2.2c0,0.4-0.1,0.9-0.3,1.3c-0.2,0.4-0.5,0.7-0.8,1.1L28,15.5z M31.1,31.8
	c-0.2-0.2-0.3-0.4-0.4-0.5s-0.2-0.3-0.4-0.5l6.8-5.5c0.2-0.2,0.4-0.6,0.7-1.4c0-0.2-0.2-0.7-0.6-1.3c-0.2-0.1-0.3-0.3-0.3-0.5
	s0-0.4,0.2-0.5c0.1-0.2,0.3-0.2,0.5-0.2s0.4,0,0.5,0.1c0.4,0.3,0.7,0.7,0.8,1.1c0.2,0.4,0.3,0.9,0.3,1.4s-0.1,0.9-0.3,1.4
	c-0.2,0.4-0.5,0.8-0.9,1.1L31.1,31.8z M36.2,37.1c-0.2-0.1-0.4-0.2-0.6-0.3c-0.1-0.1-0.3-0.3-0.5-0.5l5-4c0.2-0.2,0.4-0.6,0.7-1.4
	c0-0.3-0.1-0.6-0.2-0.8c-0.1-0.3-0.3-0.4-0.4-0.6C40.1,29.4,40,29.2,40,29s0-0.4,0.1-0.5c0.1-0.2,0.3-0.2,0.5-0.2s0.3,0.1,0.5,0.2
	c0.3,0.3,0.6,0.7,0.8,1.1s0.3,0.9,0.3,1.3c0,0.5-0.1,0.9-0.3,1.3s-0.5,0.8-0.8,1C41,33.3,36.2,37.1,36.2,37.1z"/>
</svg>
