<?xml version="1.0" encoding="utf-8"?>
<!-- Generator: Adobe Illustrator 26.3.1, SVG Export Plug-In . SVG Version: 6.00 Build 0)  -->
<svg version="1.1" id="Слой_1" xmlns="http://www.w3.org/2000/svg" xmlns:xlink="http://www.w3.org/1999/xlink" x="0px" y="0px"
	 viewBox="0 0 48 48" style="enable-background:new 0 0 48 48;" xml:space="preserve">
<path d="M18,42v-2.8c-3.3-1.3-6.2-3.3-8.5-5.9S6,27.5,6,24c0-2.5,0.5-4.8,1.4-7s2.2-4.1,3.8-5.7s3.5-2.9,5.7-3.8
	C19.2,6.5,21.5,6,24,6s4.8,0.5,7,1.4s4.1,2.2,5.7,3.8c1.6,1.6,2.9,3.5,3.8,5.7c0.9,2.2,1.4,4.5,1.4,7c0,3.5-1.2,6.6-3.5,9.2
	s-5.2,4.6-8.5,5.9v3H18z M18.8,24h10.5V8.4c-0.9-0.3-1.7-0.5-2.6-0.7c-0.9-0.1-1.7-0.2-2.6-0.2s-1.7,0.1-2.6,0.2s-1.7,0.4-2.6,0.7
	C18.8,8.4,18.8,24,18.8,24z M7.5,24h9.7V9c-3,1.4-5.3,3.4-7.1,6.1C8.4,17.8,7.5,20.7,7.5,24z M30.8,24h9.7c0-3.3-0.9-6.2-2.6-8.9
	s-4.1-4.7-7.1-6.1C30.8,9,30.8,24,30.8,24z"/>
</svg>
