<?xml version="1.0" encoding="utf-8"?>
<!-- Generator: Adobe Illustrator 26.3.1, SVG Export Plug-In . SVG Version: 6.00 Build 0)  -->
<svg version="1.1" id="Слой_1" xmlns="http://www.w3.org/2000/svg" xmlns:xlink="http://www.w3.org/1999/xlink" x="0px" y="0px"
	 viewBox="0 0 48 48" style="enable-background:new 0 0 48 48;" xml:space="preserve">
<path d="M25.2,33.9l0.5-1.7c1.9-0.4,3.5-1.4,4.8-2.9s1.9-3.3,1.9-5.4c0-2.3-0.8-4.3-2.5-6c-1.6-1.6-3.6-2.5-6-2.5
	c-2.1,0-3.9,0.6-5.4,1.9s-2.5,2.9-2.9,4.8l-1.7,0.5c0.3-2.5,1.4-4.6,3.3-6.3s4.1-2.5,6.6-2.5c2.8,0,5.2,1,7.1,2.9
	C33,18.8,34,21.2,34,24c0,2.6-0.8,4.8-2.5,6.6C29.8,32.5,27.7,33.6,25.2,33.9z M8.5,41.6l-2.1-2.1l9.6-9.6l-5.6-1.8L24,24l-4.1,13.5
	l-1.8-5.6L8.5,41.6z"/>
</svg>
