<?xml version="1.0" encoding="utf-8"?>
<!-- Generator: Adobe Illustrator 26.3.1, SVG Export Plug-In . SVG Version: 6.00 Build 0)  -->
<svg version="1.1" id="Слой_1" xmlns="http://www.w3.org/2000/svg" xmlns:xlink="http://www.w3.org/1999/xlink" x="0px" y="0px"
	 viewBox="0 0 48 48" style="enable-background:new 0 0 48 48;" xml:space="preserve">
<path d="M6.7,38.2l-3.1-3c-0.4-0.4-0.6-0.8-0.5-1.3c0-0.5,0.2-1,0.6-1.3c2.5-2.7,5.6-4.8,9.2-6.3C16.4,24.8,20.2,24,24,24
	s7.6,0.8,11.2,2.3s6.7,3.6,9.2,6.3c0.3,0.4,0.5,0.8,0.6,1.3c0,0.5-0.1,0.9-0.5,1.3l-3.1,3c-0.4,0.4-0.9,0.6-1.4,0.7
	c-0.5,0-1-0.1-1.4-0.4l-4.2-3.2c-0.4-0.3-0.6-0.6-0.8-0.9c-0.2-0.3-0.3-0.7-0.3-1.1v-6.1c-1.7-0.6-3.3-1.1-4.7-1.3
	c-1.5-0.3-3-0.4-4.5-0.4s-3.1,0.1-4.5,0.4c-1.5,0.3-3,0.7-4.7,1.3v6.1c0,0.4-0.1,0.7-0.3,1.1c-0.2,0.3-0.4,0.6-0.8,0.9l-4.2,3.2
	c-0.6,0.4-1,0.5-1.5,0.4C7.6,38.9,7.1,38.6,6.7,38.2z M23.3,13.5V5.8h1.5v7.7H23.3z M35.4,18.7l-1.1-1.1l5.5-5.4l1,1.1
	C40.8,13.3,35.4,18.7,35.4,18.7z M12.8,18.7l-5.6-5.3l1.2-1.2l5.4,5.4L12.8,18.7z"/>
</svg>
