<?xml version="1.0" encoding="utf-8"?>
<!-- Generator: Adobe Illustrator 26.3.1, SVG Export Plug-In . SVG Version: 6.00 Build 0)  -->
<svg version="1.1" id="Слой_1" xmlns="http://www.w3.org/2000/svg" xmlns:xlink="http://www.w3.org/1999/xlink" x="0px" y="0px"
	 viewBox="0 0 48 48" style="enable-background:new 0 0 48 48;" xml:space="preserve">
<path d="M18,22.8c0.8,0,1.4-0.3,2-0.8c0.5-0.5,0.8-1.2,0.8-2s-0.3-1.4-0.8-2c-0.5-0.5-1.2-0.8-2-0.8s-1.4,0.3-2,0.8
	c-0.5,0.5-0.8,1.2-0.8,2s0.3,1.4,0.8,2C16.6,22.5,17.2,22.8,18,22.8z M30,22.8c0.8,0,1.4-0.3,2-0.8c0.5-0.5,0.8-1.2,0.8-2
	s-0.3-1.4-0.8-2c-0.5-0.5-1.2-0.8-2-0.8s-1.4,0.3-2,0.8c-0.5,0.5-0.8,1.2-0.8,2s0.3,1.4,0.8,2C28.6,22.5,29.2,22.8,30,22.8z
	 M16.8,40v-6c0-0.4,0.1-0.7,0.3-0.9c0.2-0.2,0.5-0.3,0.9-0.3h5.2V40H16.8z M24.8,40v-7.2H30c0.4,0,0.7,0.1,0.9,0.3
	c0.2,0.2,0.3,0.5,0.3,0.9v6H24.8z M10.8,40c-0.7,0-1.4-0.3-1.9-0.8C8.3,38.6,8,38,8,37.2V18c0-2.8,1-5.1,2.9-7.1C12.9,9,15.2,8,18,8
	h12c2.8,0,5.1,1,7.1,2.9c1.9,2,2.9,4.3,2.9,7.1v19.2c0,0.7-0.3,1.4-0.8,1.9c-0.6,0.6-1.2,0.9-2,0.9h-4.5v-6c0-0.7-0.3-1.4-0.8-1.9
	c-0.6-0.6-1.2-0.8-1.9-0.8H18c-0.7,0-1.4,0.3-1.9,0.8c-0.6,0.6-0.8,1.2-0.8,1.9v6H10.8z"/>
</svg>
