<?xml version="1.0" encoding="utf-8"?>
<!-- Generator: Adobe Illustrator 26.3.1, SVG Export Plug-In . SVG Version: 6.00 Build 0)  -->
<svg version="1.1" id="Слой_1" xmlns="http://www.w3.org/2000/svg" xmlns:xlink="http://www.w3.org/1999/xlink" x="0px" y="0px"
	 viewBox="0 0 48 48" style="enable-background:new 0 0 48 48;" xml:space="preserve">
<path d="M10,40v-8.5c0-0.7,0.3-1.4,0.8-1.9c0.6-0.5,1.2-0.8,1.9-0.8h22.5c0.7,0,1.4,0.3,1.9,0.8c0.6,0.6,0.8,1.2,0.8,1.9V40H10z
	 M18.6,25.2c-2.4,0-4.4-0.8-6.1-2.5S10,18.9,10,16.6c0-2.4,0.8-4.4,2.5-6.1S16.2,8,18.6,8h10.8c2.4,0,4.4,0.8,6.1,2.5
	c1.7,1.7,2.5,3.7,2.5,6.1s-0.8,4.4-2.5,6.1s-3.7,2.5-6.1,2.5H18.6z M18.6,17.8c0.3,0,0.6-0.1,0.9-0.4c0.2-0.2,0.4-0.5,0.4-0.9
	c0-0.3-0.1-0.6-0.4-0.9c-0.2-0.2-0.5-0.4-0.9-0.4s-0.6,0.1-0.9,0.4c-0.2,0.2-0.4,0.5-0.4,0.9c0,0.3,0.1,0.6,0.4,0.9
	C18,17.7,18.3,17.8,18.6,17.8z M29.4,17.8c0.3,0,0.6-0.1,0.9-0.4c0.2-0.2,0.4-0.5,0.4-0.9s-0.1-0.6-0.4-0.9
	c-0.2-0.2-0.5-0.4-0.9-0.4c-0.3,0-0.6,0.1-0.9,0.4c-0.2,0.2-0.4,0.5-0.4,0.9c0,0.3,0.1,0.6,0.4,0.9C28.8,17.7,29.1,17.8,29.4,17.8z"
	/>
</svg>
