<?xml version="1.0" encoding="utf-8"?>
<!-- Generator: Adobe Illustrator 26.3.1, SVG Export Plug-In . SVG Version: 6.00 Build 0)  -->
<svg version="1.1" id="Слой_1" xmlns="http://www.w3.org/2000/svg" xmlns:xlink="http://www.w3.org/1999/xlink" x="0px" y="0px"
	 viewBox="0 0 48 48" style="enable-background:new 0 0 48 48;" xml:space="preserve">
<path d="M11,41.2V30.9c0-0.5,0.1-1,0.4-1.5c0.3-0.5,0.6-0.9,1.1-1.2l2.9-1.9c0.2,2.4,0.5,4.4,0.9,6.2c0.4,1.8,1,3.7,1.8,5.9
	C18.1,38.4,11,41.2,11,41.2z M19.1,37.6c-0.8-2.1-1.4-4.3-1.8-6.4c-0.4-2.2-0.7-4.3-0.7-6.4c0-3.5,0.6-6.8,1.8-9.7
	c1.2-3,3.1-5.6,5.6-7.9c2.5,2.3,4.4,4.9,5.6,7.9s1.8,6.2,1.8,9.7c0,2.1-0.2,4.3-0.7,6.4c-0.4,2.2-1,4.3-1.8,6.4H19.1z M24,24.8
	c0.8,0,1.4-0.3,2-0.8c0.5-0.5,0.8-1.2,0.8-2s-0.3-1.4-0.8-2s-1.2-0.8-2-0.8s-1.4,0.3-2,0.8c-0.5,0.5-0.8,1.2-0.8,2s0.3,1.4,0.8,2
	C22.6,24.5,23.2,24.8,24,24.8z M36.9,41.2l-7-2.8c0.8-2.2,1.4-4.1,1.8-5.9c0.4-1.8,0.7-3.9,0.9-6.2l2.9,2c0.5,0.3,0.8,0.7,1.1,1.2
	s0.4,1,0.4,1.5C36.9,31,36.9,41.2,36.9,41.2z"/>
</svg>
