<?xml version="1.0" encoding="utf-8"?>
<!-- Generator: Adobe Illustrator 26.3.1, SVG Export Plug-In . SVG Version: 6.00 Build 0)  -->
<svg version="1.1" id="Слой_1" xmlns="http://www.w3.org/2000/svg" xmlns:xlink="http://www.w3.org/1999/xlink" x="0px" y="0px"
	 viewBox="0 0 48 48" style="enable-background:new 0 0 48 48;" xml:space="preserve">
<path d="M7.4,22.6l7.2-7.2c0.4-0.4,0.8-0.7,1.3-0.8c0.5-0.2,1-0.2,1.6-0.1l3.4,0.7c-1.5,1.8-2.8,3.4-3.8,5c-1,1.5-2,3.3-2.9,5.5
	L7.4,22.6z M15.6,25.8c1-2,2-4,3.3-5.8c1.2-1.8,2.6-3.5,4.1-5c2.5-2.5,5.2-4.4,8.1-5.6s6.1-1.8,9.5-1.6c0.2,3.4-0.3,6.6-1.6,9.5
	s-3.1,5.6-5.6,8.1c-1.5,1.5-3.2,2.9-5,4.1s-3.8,2.3-5.8,3.2C22.5,32.7,15.6,25.8,15.6,25.8z M28.1,20.1c0.5,0.5,1.2,0.8,2,0.8
	s1.4-0.3,2-0.8c0.5-0.5,0.8-1.2,0.8-2s-0.3-1.4-0.8-2c-0.5-0.5-1.2-0.8-2-0.8s-1.4,0.3-2,0.8c-0.5,0.5-0.8,1.2-0.8,2
	S27.6,19.6,28.1,20.1z M25.7,40.9l-3-6.9c2.1-0.9,3.9-1.9,5.4-2.9c1.5-1,3.2-2.3,5-3.8l0.7,3.4c0.1,0.5,0.1,1.1-0.1,1.6
	c-0.1,0.5-0.4,1-0.8,1.3L25.7,40.9z M10.3,32.3c0.8-0.8,1.7-1.2,2.8-1.2s2.1,0.4,2.8,1.2c0.8,0.8,1.2,1.7,1.2,2.8S16.8,37.2,16,38
	c-0.7,0.7-1.8,1.3-3.2,1.7c-1.4,0.5-3.2,0.8-5.3,1c0.2-2.1,0.5-3.8,1-5.3C9,34,9.6,33,10.3,32.3z"/>
</svg>
