<?xml version="1.0" encoding="utf-8"?>
<!-- Generator: Adobe Illustrator 26.3.1, SVG Export Plug-In . SVG Version: 6.00 Build 0)  -->
<svg version="1.1" id="Слой_1" xmlns="http://www.w3.org/2000/svg" xmlns:xlink="http://www.w3.org/1999/xlink" x="0px" y="0px"
	 viewBox="0 0 48 48" style="enable-background:new 0 0 48 48;" xml:space="preserve">
<path d="M9,30.8V3h14.6v5.3h-4.7c-0.2,0-0.3,0.1-0.5,0.2c-0.1,0.1-0.2,0.3-0.2,0.5s0.1,0.3,0.2,0.4c0.1,0.1,0.3,0.2,0.5,0.2h4.7V11
	c0,0.2,0,0.4,0,0.6c0,0.2,0.1,0.4,0.1,0.6h-4.8c-0.2,0-0.3,0.1-0.5,0.2c-0.1,0.1-0.2,0.3-0.2,0.5s0.1,0.3,0.2,0.4
	c0.1,0.1,0.3,0.2,0.5,0.2h5.3c0.4,0.8,1,1.5,1.7,2s1.5,1,2.4,1.2l5.5,1.5c1.5,0.4,2.7,1.2,3.6,2.4c0.9,1.2,1.3,2.6,1.3,4.1v5.9
	C38.6,30.8,9,30.8,9,30.8z M9.8,45c-1.3,0-2.5-0.5-3.4-1.4c-0.9-0.9-1.4-2-1.4-3.4c0-1.3,0.5-2.5,1.4-3.4s2.1-1.4,3.4-1.4
	s2.5,0.5,3.4,1.4c0.9,0.9,1.4,2.1,1.4,3.4c0,1.3-0.5,2.5-1.4,3.4C12.2,44.5,11.1,45,9.8,45z M38.2,45c-1.3,0-2.5-0.5-3.4-1.4
	s-1.4-2.1-1.4-3.4c0-1.3,0.5-2.5,1.4-3.4s2.1-1.4,3.4-1.4c1.3,0,2.5,0.5,3.4,1.4s1.4,2.1,1.4,3.4c0,1.3-0.5,2.5-1.4,3.4
	S39.6,45,38.2,45z M24,45c-1.3,0-2.5-0.5-3.4-1.4s-1.4-2.1-1.4-3.4c0-1.3,0.5-2.5,1.4-3.4s2.1-1.4,3.4-1.4s2.5,0.5,3.4,1.4
	s1.4,2.1,1.4,3.4c0,1.3-0.5,2.5-1.4,3.4C26.4,44.5,25.3,45,24,45z"/>
</svg>
