<?xml version="1.0" encoding="utf-8"?>
<!-- Generator: Adobe Illustrator 26.3.1, SVG Export Plug-In . SVG Version: 6.00 Build 0)  -->
<svg version="1.1" id="Слой_1" xmlns="http://www.w3.org/2000/svg" xmlns:xlink="http://www.w3.org/1999/xlink" x="0px" y="0px"
	 viewBox="0 0 48 48" style="enable-background:new 0 0 48 48;" xml:space="preserve">
<path d="M9,40v-1.5h4.3V8h15.8v2.1h5.7v12.1h-1.5V11.6h-4.2v12.6c-1.5,1.2-2.6,2.5-3.5,4s-1.2,3.3-1.2,5.2c0,1.3,0.2,2.4,0.5,3.4
	c0.4,1,0.9,2.1,1.6,3.1L9,40L9,40z M23.2,25.5c0.4,0,0.8-0.2,1.1-0.5c0.3-0.3,0.4-0.7,0.4-1.1s-0.1-0.8-0.4-1.1
	c-0.3-0.3-0.7-0.5-1.1-0.5s-0.8,0.2-1.1,0.5c-0.3,0.3-0.5,0.7-0.5,1.1s0.2,0.8,0.5,1.1C22.5,25.4,22.8,25.5,23.2,25.5z M34.9,41.2
	l-0.1-1.4c-0.9-0.2-1.7-0.5-2.3-0.9c-0.7-0.4-1.2-0.9-1.7-1.4l-1.2,0.7l-1.1-1.4l1.2-0.9c-0.3-0.9-0.4-1.7-0.4-2.4s0.1-1.6,0.4-2.4
	l-1.2-0.9l1.1-1.4l1.2,0.7c0.5-0.5,1-1,1.7-1.4s1.4-0.7,2.3-0.9l0.1-1.5h1.5l0.1,1.5c0.9,0.2,1.6,0.5,2.3,0.9s1.2,0.9,1.7,1.4
	l1.3-0.7l1,1.4L41.5,31c0.3,0.9,0.4,1.7,0.4,2.5s-0.1,1.6-0.4,2.4l1.2,0.9l-1,1.4l-1.3-0.7c-0.5,0.5-1,1-1.7,1.4s-1.4,0.7-2.3,0.9
	l-0.1,1.4C36.4,41.2,34.9,41.2,34.9,41.2z M35.7,38.2c1.3,0,2.5-0.5,3.4-1.4s1.4-2.1,1.4-3.4c0-1.3-0.5-2.5-1.4-3.4
	s-2.1-1.4-3.4-1.4c-1.4,0-2.5,0.5-3.4,1.4c-0.9,0.9-1.4,2.1-1.4,3.4s0.5,2.5,1.4,3.4C33.2,37.8,34.3,38.2,35.7,38.2z"/>
</svg>
