<?xml version="1.0" encoding="utf-8"?>
<!-- Generator: Adobe Illustrator 26.3.1, SVG Export Plug-In . SVG Version: 6.00 Build 0)  -->
<svg version="1.1" id="Слой_1" xmlns="http://www.w3.org/2000/svg" xmlns:xlink="http://www.w3.org/1999/xlink" x="0px" y="0px"
	 viewBox="0 0 48 48" style="enable-background:new 0 0 48 48;" xml:space="preserve">
<path d="M16.3,32.3H18l2.2-5.6H28l2.2,5.6h1.7l-7.4-18.7h-0.9L16.3,32.3z M20.7,25.2l3.2-8.3h0.2l3.3,8.3
	C27.4,25.2,20.7,25.2,20.7,25.2z M24,42c-2.6,0-5-0.5-7.2-1.5s-4.1-2.3-5.8-4c-1.6-1.7-2.9-3.7-3.8-6S5.9,25.8,6,23.3h1.6
	c-0.1,2.3,0.2,4.6,1.1,6.6c0.8,2.1,2,3.9,3.5,5.5c1.5,1.6,3.3,2.8,5.3,3.7s4.2,1.4,6.6,1.4c4.6,0,8.5-1.6,11.7-4.8s4.8-7.1,4.8-11.7
	s-1.6-8.5-4.8-11.7C32.5,9.2,28.6,7.6,24,7.6c-3.4,0-6.5,0.9-9.2,2.7s-4.7,4.2-6,7.1H15V19H6v-9h1.5v6.6c1.4-3.2,3.6-5.7,6.5-7.7
	C17,7,20.3,6,24,6c2.5,0,4.8,0.5,7,1.4s4.1,2.2,5.7,3.8c1.6,1.6,2.9,3.5,3.8,5.7c0.9,2.2,1.4,4.5,1.4,7s-0.5,4.8-1.4,7
	s-2.2,4.1-3.8,5.7s-3.5,2.9-5.7,3.8C28.8,41.5,26.5,42,24,42z"/>
</svg>
