<?xml version="1.0" encoding="utf-8"?>
<!-- Generator: Adobe Illustrator 26.3.1, SVG Export Plug-In . SVG Version: 6.00 Build 0)  -->
<svg version="1.1" id="Слой_1" xmlns="http://www.w3.org/2000/svg" xmlns:xlink="http://www.w3.org/1999/xlink" x="0px" y="0px"
	 viewBox="0 0 48 48" style="enable-background:new 0 0 48 48;" xml:space="preserve">
<path d="M30.2,40v-9.9c0-0.6,0.2-1.2,0.6-1.7s0.9-0.8,1.6-0.9c2.3-0.3,4.2-1.3,5.8-3s2.3-3.6,2.3-5.9c0-2.5-0.9-4.7-2.7-6.4
	c-1.8-1.8-3.9-2.6-6.5-2.6c-2.3,0-4.3,0.8-5.9,2.3c-1.7,1.6-2.7,3.5-3,5.7c-0.1,0.6-0.4,1.1-0.9,1.5s-1,0.6-1.7,0.6H8.9l4.8,4.8
	l-1.1,1.1L6,19l6.7-6.7l1.1,1.1L9,18.2h11c0.2,0,0.4-0.1,0.5-0.2c0.2-0.2,0.3-0.3,0.3-0.5c0.4-2.7,1.5-5,3.5-6.8s4.3-2.7,7-2.7
	c2.9,0,5.5,1,7.5,3.1c2.1,2.1,3.1,4.6,3.1,7.5c0,2.7-0.9,5-2.7,7s-4.1,3.1-6.8,3.5c-0.2,0.1-0.4,0.2-0.5,0.3
	c-0.2,0.2-0.2,0.4-0.2,0.6v10H30.2z"/>
</svg>
