<?xml version="1.0" encoding="utf-8"?>
<!-- Generator: Adobe Illustrator 26.3.1, SVG Export Plug-In . SVG Version: 6.00 Build 0)  -->
<svg version="1.1" id="Слой_1" xmlns="http://www.w3.org/2000/svg" xmlns:xlink="http://www.w3.org/1999/xlink" x="0px" y="0px"
	 viewBox="0 0 48 48" style="enable-background:new 0 0 48 48;" xml:space="preserve">
<path d="M17.9,41c-1.9,0-3.6-0.7-4.9-2s-2-3-2-4.9V16.6c-1.2-0.4-2.1-1.1-2.9-1.9C7.4,13.8,7,12.8,7,11.8c0-1.3,0.5-2.5,1.4-3.4
	c0.9-0.9,2-1.4,3.4-1.4c1.3,0,2.5,0.5,3.4,1.4c0.9,0.9,1.4,2.1,1.4,3.4c0,1-0.4,2-1.1,2.8c-0.8,0.9-1.7,1.5-2.9,1.9V34
	c0,1.5,0.5,2.7,1.6,3.8c1,1.1,2.3,1.6,3.8,1.6s2.7-0.5,3.8-1.6c1-1.1,1.5-2.3,1.5-3.8V13.9c0-1.9,0.7-3.5,2-4.9c1.3-1.3,3-2,4.9-2
	C32,7,33.7,7.7,35,9s2,3,2,4.9v17.6c1.2,0.4,2.1,1.1,2.9,1.9c0.8,0.9,1.1,1.8,1.1,2.8c0,1.3-0.5,2.5-1.4,3.4s-2,1.4-3.4,1.4
	c-1.3,0-2.5-0.5-3.4-1.4c-0.9-0.9-1.4-2.1-1.4-3.4c0-1,0.4-2,1.1-2.9c0.8-0.9,1.7-1.5,2.9-1.9V13.9c0-1.5-0.5-2.7-1.6-3.8
	c-1-1-2.3-1.6-3.8-1.6s-2.7,0.5-3.8,1.6c-1,1-1.6,2.3-1.6,3.8v20.2c0,1.9-0.7,3.6-2,4.9C21.4,40.3,19.8,41,17.9,41z"/>
</svg>
