<?xml version="1.0" encoding="utf-8"?>
<!-- Generator: Adobe Illustrator 26.3.1, SVG Export Plug-In . SVG Version: 6.00 Build 0)  -->
<svg version="1.1" id="Слой_1" xmlns="http://www.w3.org/2000/svg" xmlns:xlink="http://www.w3.org/1999/xlink" x="0px" y="0px"
	 viewBox="0 0 48 48" style="enable-background:new 0 0 48 48;" xml:space="preserve">
<path d="M21.8,26.3c1.5,1.6,3.2,2.9,5.1,4.1s3.9,2.1,6,2.8c-1.2,1.2-2.5,2.1-4.1,2.7c-1.5,0.6-3.1,0.9-4.8,0.9c-3.5,0-6.5-1.2-9-3.7
	s-3.7-5.5-3.7-9c0-1.7,0.3-3.2,0.9-4.8c0.6-1.5,1.5-2.9,2.7-4.1c0.7,2.1,1.7,4.2,2.8,6C18.8,23,20.2,24.8,21.8,26.3z M35.5,29.5
	c-0.2-0.1-0.5-0.2-0.8-0.2c-0.3-0.1-0.5-0.2-0.8-0.3c0.4-0.8,0.7-1.6,0.9-2.4s0.3-1.7,0.3-2.6c0-3.1-1.1-5.8-3.3-8s-4.8-3.3-8-3.3
	c-0.9,0-1.7,0.1-2.6,0.3c-0.8,0.2-1.7,0.5-2.4,0.9c-0.1-0.2-0.2-0.5-0.2-0.7c-0.1-0.2-0.1-0.5-0.2-0.7c0.8-0.4,1.7-0.7,2.7-1
	c0.9-0.2,1.9-0.3,2.9-0.3c3.5,0,6.5,1.2,9,3.7s3.7,5.5,3.7,9c0,1-0.1,1.9-0.3,2.9S36,28.7,35.5,29.5z M23.2,6.5V1.8h1.5v4.8h-1.5
	V6.5z M23.2,46.2v-4.8h1.5v4.8H23.2z M36.9,12.2l-1.1-1.1l3.3-3.3l1.1,1.1L36.9,12.2z M8.9,40.2l-1.1-1.1l3.3-3.3l1.1,1.1L8.9,40.2z
	 M41.5,24.8v-1.5h4.8v1.5H41.5z M1.8,24.8v-1.5h4.8v1.5C6.5,24.8,1.8,24.8,1.8,24.8z M39.1,40.2l-3.3-3.3l1.1-1.1l3.3,3.3
	C40.2,39.1,39.1,40.2,39.1,40.2z M11.1,12.2L7.8,8.9l1.1-1.1l3.3,3.3C12.2,11.1,11.1,12.2,11.1,12.2z"/>
</svg>
