<?xml version="1.0" encoding="utf-8"?>
<!-- Generator: Adobe Illustrator 26.3.1, SVG Export Plug-In . SVG Version: 6.00 Build 0)  -->
<svg version="1.1" id="Слой_1" xmlns="http://www.w3.org/2000/svg" xmlns:xlink="http://www.w3.org/1999/xlink" x="0px" y="0px"
	 viewBox="0 0 48 48" style="enable-background:new 0 0 48 48;" xml:space="preserve">
<path d="M2.6,29.4V18.6h6.5c0.6,0,1.1,0.2,1.6,0.6c0.4,0.4,0.6,0.9,0.6,1.5v2.4c0,0.6-0.2,1.1-0.7,1.5c-0.4,0.4-0.9,0.6-1.4,0.6
	l1.7,4.1H9.2l-1.7-4.1H4.1v4.1C4.1,29.4,2.6,29.4,2.6,29.4z M14.8,29.4v-1.5h6v-3.2h-4.6c-0.4,0-0.7-0.1-1-0.4s-0.4-0.6-0.4-1V20
	c0-0.4,0.1-0.7,0.4-1c0.3-0.3,0.6-0.4,1-0.4h6.1v1.5h-6v3.2h4.6c0.4,0,0.7,0.1,1,0.4s0.4,0.6,0.4,1V28c0,0.4-0.1,0.7-0.4,1
	s-0.6,0.4-1,0.4H14.8z M28.7,29.4l-3.1-10.8h1.6l2.6,9l2.5-9H34l-3.1,10.8C30.9,29.4,28.7,29.4,28.7,29.4z M36.8,29.4V18.6h6.5
	c0.6,0,1.1,0.2,1.5,0.6s0.6,0.9,0.6,1.5V23c0,0.6-0.2,1.1-0.6,1.6c-0.4,0.4-0.9,0.6-1.5,0.6h-5v4.1C38.2,29.4,36.8,29.4,36.8,29.4z
	 M4.1,23.8h5c0.2,0,0.3-0.1,0.5-0.2s0.2-0.3,0.2-0.4v-2.4c0-0.2-0.1-0.3-0.2-0.5c-0.1-0.1-0.3-0.2-0.5-0.2h-5
	C4.1,20.1,4.1,23.8,4.1,23.8z M38.2,23.8h5c0.2,0,0.3-0.1,0.5-0.2c0.1-0.1,0.2-0.3,0.2-0.5v-2.3c0-0.2-0.1-0.3-0.2-0.5
	c-0.1-0.1-0.3-0.2-0.5-0.2h-5C38.2,20.1,38.2,23.8,38.2,23.8z"/>
</svg>
