<?xml version="1.0" encoding="utf-8"?>
<!-- Generator: Adobe Illustrator 26.3.1, SVG Export Plug-In . SVG Version: 6.00 Build 0)  -->
<svg version="1.1" id="Слой_1" xmlns="http://www.w3.org/2000/svg" xmlns:xlink="http://www.w3.org/1999/xlink" x="0px" y="0px"
	 viewBox="0 0 48 48" style="enable-background:new 0 0 48 48;" xml:space="preserve">
<path d="M8.8,38c-0.8,0-1.4-0.3-2-0.8C6.3,36.7,6,36,6,35.2V12.8c0-0.8,0.3-1.4,0.8-2C7.3,10.3,8,10,8.8,10h10.9l3.5,3.5h16
	c0.8,0,1.4,0.3,2,0.8c0.5,0.5,0.8,1.2,0.8,2v18.9c0,0.8-0.3,1.4-0.8,2c-0.5,0.5-1.2,0.8-2,0.8C39.2,38,8.8,38,8.8,38z M15.7,30.5
	l8.2-8.2l-1.1-1.1l-7.1,7.1l-2.8-2.8l-1.1,1.1L15.7,30.5z M28.8,30.5l3.2-3.2l3.2,3.2l1.1-1.1l-3.2-3.2l3.2-3.2l-1.1-1L32,25.2
	L28.8,22l-1.1,1.1l3.2,3.2l-3.2,3.2L28.8,30.5z"/>
</svg>
