<?xml version="1.0" encoding="utf-8"?>
<!-- Generator: Adobe Illustrator 26.3.1, SVG Export Plug-In . SVG Version: 6.00 Build 0)  -->
<svg version="1.1" id="Слой_1" xmlns="http://www.w3.org/2000/svg" xmlns:xlink="http://www.w3.org/1999/xlink" x="0px" y="0px"
	 viewBox="0 0 48 48" style="enable-background:new 0 0 48 48;" xml:space="preserve">
<path d="M38.8,40.6l-1.1-1.1l3.7-3.7H22.5c-0.2,1.2-0.7,2.2-1.6,3s-2,1.2-3.2,1.2s-2.3-0.4-3.2-1.2s-1.5-1.8-1.7-3h-2
	c-1.4,0-2.6-0.5-3.6-1.4s-1.4-2.1-1.4-3.6v-9.9h10.9v-6.4h-11V13h22.8c0.8,0,1.4,0.3,2,0.8c0.5,0.5,0.8,1.2,0.8,2v18.5h10.1
	l-3.7-3.6l1.1-1.1l5.5,5.5L38.8,40.6z M18.3,20.9h11.4v-5.1c0-0.3-0.1-0.6-0.4-0.8c-0.3-0.3-0.5-0.4-0.8-0.4H18.3V20.9z M17.6,38.5
	c0.9,0,1.7-0.3,2.4-1c0.7-0.7,1-1.5,1-2.4s-0.3-1.7-1-2.4s-1.5-1-2.4-1s-1.7,0.3-2.4,1s-1,1.5-1,2.4s0.3,1.7,1,2.4
	C15.9,38.1,16.7,38.5,17.6,38.5z"/>
</svg>
