<?xml version="1.0" encoding="utf-8"?>
<!-- Generator: Adobe Illustrator 26.3.1, SVG Export Plug-In . SVG Version: 6.00 Build 0)  -->
<svg version="1.1" id="Слой_1" xmlns="http://www.w3.org/2000/svg" xmlns:xlink="http://www.w3.org/1999/xlink" x="0px" y="0px"
	 viewBox="0 0 48 48" style="enable-background:new 0 0 48 48;" xml:space="preserve">
<path d="M40,42.4l1.2-1.1L6.8,7L5.7,8.1l4.3,4.3V22c0,4.5,1.3,8.6,3.8,12.3s5.9,6.3,10.2,7.6c1.7-0.5,3.4-1.3,5-2.4
	c1.6-1.1,3-2.4,4.2-3.9L40,42.4z M24,31.9c-2.2,0-4-0.8-5.5-2.3s-2.3-3.4-2.3-5.5c0-0.8,0.1-1.5,0.3-2.2c0.2-0.7,0.5-1.4,0.9-2
	l10.8,10.8c-0.6,0.4-1.3,0.7-2,0.9S24.8,31.9,24,31.9z M35.8,31.5c0.7-1.7,1.3-3.3,1.6-4.9C37.8,25,38,23.5,38,22V11.3L24,6.1
	l-9.9,3.7l7,7c0.4-0.2,0.9-0.4,1.4-0.5s1-0.2,1.5-0.2c2.2,0,4,0.8,5.6,2.3c1.5,1.5,2.3,3.4,2.3,5.5c0,0.5-0.1,1-0.2,1.5
	s-0.3,0.9-0.5,1.4C31.2,26.9,35.8,31.5,35.8,31.5z"/>
</svg>
