<?xml version="1.0" encoding="utf-8"?>
<!-- Generator: Adobe Illustrator 26.3.1, SVG Export Plug-In . SVG Version: 6.00 Build 0)  -->
<svg version="1.1" id="Слой_1" xmlns="http://www.w3.org/2000/svg" xmlns:xlink="http://www.w3.org/1999/xlink" x="0px" y="0px"
	 viewBox="0 0 48 48" style="enable-background:new 0 0 48 48;" xml:space="preserve">
<path d="M8.8,42c-0.8,0-1.4-0.3-2-0.8C6.3,40.7,6,40,6,39.2V8.8c0-0.8,0.3-1.4,0.8-2C7.3,6.3,8,6,8.8,6h30.5c0.8,0,1.4,0.3,2,0.8
	C41.7,7.3,42,8,42,8.8v30.5c0,0.8-0.3,1.4-0.8,2c-0.5,0.5-1.2,0.8-2,0.8L8.8,42L8.8,42z M7.5,30.8v8.5c0,0.4,0.1,0.7,0.3,0.9
	c0.2,0.2,0.5,0.3,0.9,0.3H13v-5.3h-1.8v-4.4C11.2,30.8,7.5,30.8,7.5,30.8z M7.5,29.2h3.7v-1.3c0-0.3,0.1-0.6,0.3-0.8
	c0.2-0.2,0.5-0.3,0.8-0.3h0.2v-4.7c0-0.7,0.2-1.2,0.7-1.7s1-0.7,1.7-0.7h4c0.7,0,1.2,0.2,1.7,0.7s0.7,1,0.7,1.7v4.7h0.2
	c0.3,0,0.6,0.1,0.8,0.3c0.2,0.2,0.3,0.5,0.3,0.8v1.3h17.7V8.8c0-0.4-0.1-0.7-0.3-0.9c-0.2-0.2-0.5-0.3-0.9-0.3H8.8
	c-0.4,0-0.7,0.1-0.9,0.3S7.5,8.4,7.5,8.8V29.2z M17,17.7c-0.7,0-1.2-0.2-1.7-0.7s-0.7-1-0.7-1.7s0.2-1.2,0.7-1.7s1-0.7,1.7-0.7
	s1.2,0.2,1.7,0.7s0.7,1,0.7,1.7s-0.2,1.2-0.7,1.7S17.7,17.7,17,17.7z M15.6,40.5h2.8v-5.3h-2.8C15.6,35.2,15.6,40.5,15.6,40.5z
	 M21,40.5h18.2c0.4,0,0.7-0.1,0.9-0.3s0.3-0.5,0.3-0.9v-8.5H22.8v4.4H21V40.5z M25.3,19.2c0,0,0-0.1,0-0.3c0-0.2,0-0.4,0-0.6
	c0-0.5-0.1-0.9-0.3-1.3c-0.2-0.4-0.6-0.9-1-1.5s-0.7-1.1-1-1.7c-0.2-0.6-0.3-1.1-0.3-1.7c0-0.2,0-0.4,0-0.6c0-0.2,0-0.4,0.1-0.8h1.5
	c0,0.2,0,0.4,0,0.7c0,0.2,0,0.5,0,0.7c0,0.5,0.1,0.9,0.3,1.3c0.2,0.4,0.5,0.9,0.9,1.4c0.5,0.6,0.9,1.2,1.2,1.8
	c0.3,0.6,0.4,1.2,0.4,1.8c0,0.2,0,0.4,0,0.5s0,0.3,0,0.4C26.9,19.2,25.3,19.2,25.3,19.2z M30.3,19.2c0,0,0-0.1,0-0.3
	c0-0.2,0-0.4,0-0.6c0-0.5-0.1-0.9-0.3-1.3c-0.2-0.4-0.6-0.9-1-1.5s-0.7-1.1-1-1.7c-0.2-0.6-0.3-1.1-0.3-1.7c0-0.2,0-0.4,0-0.6
	c0-0.2,0-0.4,0.1-0.8h1.5c0,0.2,0,0.4,0,0.7c0,0.2,0,0.5,0,0.7c0,0.5,0.1,0.9,0.3,1.3c0.2,0.4,0.5,0.9,0.9,1.4
	c0.5,0.6,0.9,1.2,1.2,1.8c0.3,0.6,0.4,1.2,0.4,1.8c0,0.2,0,0.4,0,0.5s0,0.3,0,0.4L30.3,19.2L30.3,19.2z M35.4,19.2c0,0,0-0.1,0-0.3
	c0-0.2,0-0.4,0-0.6c0-0.5-0.1-0.9-0.3-1.3s-0.6-0.9-1-1.5s-0.7-1.1-1-1.7c-0.2-0.6-0.3-1.1-0.3-1.7c0-0.2,0-0.4,0-0.6
	c0-0.2,0-0.4,0.1-0.8h1.5c0,0.2,0,0.4,0,0.7c0,0.2,0,0.5,0,0.7c0,0.5,0.1,0.9,0.3,1.3c0.2,0.4,0.5,0.9,0.9,1.4
	c0.5,0.6,0.9,1.2,1.2,1.8c0.3,0.6,0.4,1.2,0.4,1.8c0,0.2,0,0.4,0,0.5s0,0.3,0,0.4L35.4,19.2L35.4,19.2z"/>
</svg>
