<?xml version="1.0" encoding="utf-8"?>
<!-- Generator: Adobe Illustrator 26.3.1, SVG Export Plug-In . SVG Version: 6.00 Build 0)  -->
<svg version="1.1" id="Слой_1" xmlns="http://www.w3.org/2000/svg" xmlns:xlink="http://www.w3.org/1999/xlink" x="0px" y="0px"
	 viewBox="0 0 48 48" style="enable-background:new 0 0 48 48;" xml:space="preserve">
<path d="M26.5,44v-4.4L37.1,29c0.2-0.2,0.4-0.3,0.6-0.4c0.2-0.1,0.4-0.1,0.6-0.1c0.2,0,0.4,0,0.7,0.1c0.2,0.1,0.4,0.2,0.6,0.4
	l1.8,1.9c0.2,0.2,0.3,0.4,0.4,0.6c0.1,0.2,0.1,0.4,0.1,0.6c0,0.2,0,0.4-0.1,0.6c-0.1,0.2-0.2,0.4-0.4,0.6L30.9,44H26.5z M13.4,19
	h14.8v-5.6H13.4V19z M38.4,34l1.8-1.9l-1.8-1.9l-1.9,1.9L38.4,34z M21.4,40H10.8c-0.8,0-1.4-0.3-2-0.8C8.3,38.6,8,38,8,37.2V10.8
	c0-0.8,0.3-1.4,0.8-2C9.4,8.3,10,8,10.8,8h22.5l6.8,6.8v8.9c-0.2-0.1-0.5-0.2-0.7-0.2c-0.2-0.1-0.5-0.1-0.7-0.1
	c-0.9,0-1.8,0.2-2.6,0.5c-0.9,0.3-1.6,0.8-2.3,1.4l-6.6,6.6c0.2-0.3,0.4-0.7,0.5-1.1s0.2-0.8,0.2-1.3c0-1-0.3-1.9-1-2.6
	s-1.6-1.1-2.6-1.1s-1.9,0.4-2.6,1.1s-1,1.6-1,2.6s0.3,1.9,1,2.6c0.7,0.7,1.6,1,2.6,1c0.4,0,0.9-0.1,1.3-0.2c0.4-0.1,0.8-0.3,1.2-0.5
	l-5.1,5V40H21.4z"/>
</svg>
