<?xml version="1.0" encoding="utf-8"?>
<!-- Generator: Adobe Illustrator 26.3.1, SVG Export Plug-In . SVG Version: 6.00 Build 0)  -->
<svg version="1.1" id="Слой_1" xmlns="http://www.w3.org/2000/svg" xmlns:xlink="http://www.w3.org/1999/xlink" x="0px" y="0px"
	 viewBox="0 0 48 48" style="enable-background:new 0 0 48 48;" xml:space="preserve">
<path d="M39.3,40.3L26.5,27.5c-1,0.9-2.1,1.6-3.5,2c-1.3,0.5-2.6,0.7-4,0.7c-3.2,0-5.9-1.1-8.1-3.3s-3.3-4.9-3.3-8
	c0-3.2,1.1-5.8,3.3-8.1c2.2-2.2,4.9-3.3,8.1-3.3c3.1,0,5.8,1.1,8,3.3s3.3,4.9,3.3,8c0,1.4-0.2,2.7-0.7,4s-1.2,2.5-2.1,3.5l12.8,12.8
	C40.4,39.1,39.3,40.3,39.3,40.3z M19,28.7c2.7,0,5.1-0.9,7-2.8s2.9-4.2,2.9-7s-1-5.1-2.9-7s-4.2-2.8-7-2.8s-5.1,0.9-7,2.8
	s-2.9,4.2-2.9,7s1,5.1,2.9,7C13.9,27.8,16.2,28.7,19,28.7z M16.3,22.9l1-3.2l-2.8-2.2h3.3l1.1-3.2l1.1,3.2h3.3l-2.8,2.2l1,3.2
	l-2.6-2C19,20.9,16.3,22.9,16.3,22.9z"/>
</svg>
