<?xml version="1.0" encoding="utf-8"?>
<!-- Generator: Adobe Illustrator 26.3.1, SVG Export Plug-In . SVG Version: 6.00 Build 0)  -->
<svg version="1.1" id="Слой_1" xmlns="http://www.w3.org/2000/svg" xmlns:xlink="http://www.w3.org/1999/xlink" x="0px" y="0px"
	 viewBox="0 0 48 48" style="enable-background:new 0 0 48 48;" xml:space="preserve">
<path d="M40,14.8v22.5c0,0.8-0.3,1.4-0.8,2c-0.5,0.5-1.2,0.8-2,0.8H10.8c-0.8,0-1.4-0.3-2-0.8C8.3,38.7,8,38,8,37.2V10.8
	c0-0.8,0.3-1.4,0.8-2C9.3,8.3,10,8,10.8,8h22.5L40,14.8z M24,32.9c1,0,1.9-0.4,2.6-1.1c0.7-0.7,1.1-1.6,1.1-2.6s-0.4-1.9-1.1-2.6
	S25,25.5,24,25.5s-1.9,0.4-2.6,1.1s-1.1,1.6-1.1,2.6s0.4,1.9,1.1,2.6C22.1,32.6,23,32.9,24,32.9z M13.4,19h14.8v-5.6H13.4V19z"/>
</svg>
