<?xml version="1.0" encoding="utf-8"?>
<!-- Generator: Adobe Illustrator 26.3.1, SVG Export Plug-In . SVG Version: 6.00 Build 0)  -->
<svg version="1.1" id="Слой_1" xmlns="http://www.w3.org/2000/svg" xmlns:xlink="http://www.w3.org/1999/xlink" x="0px" y="0px"
	 viewBox="0 0 48 48" style="enable-background:new 0 0 48 48;" xml:space="preserve">
<path d="M37,42c-2.2,0-4-0.8-5.5-2.3s-2.3-3.3-2.3-5.5s0.8-4,2.3-5.5s3.3-2.3,5.5-2.3s4,0.8,5.5,2.3s2.3,3.3,2.3,5.5s-0.8,4-2.3,5.5
	S39.2,42,37,42z M40.1,38.8l1.1-1.1l-3.6-3.6v-5.4h-1.5v6C36.1,34.7,40.1,38.8,40.1,38.8z M13.4,19h14.8v-5.6H13.4V19z M10.8,40
	c-0.8,0-1.4-0.3-2-0.8C8.3,38.7,8,38,8,37.2V10.3c0-0.8,0.3-1.4,0.8-2c0.5-0.5,1.2-0.8,2-0.8h22.5l6.8,6.8v8.3
	c-0.5-0.2-1-0.3-1.5-0.3c-0.5-0.1-1-0.1-1.6-0.1c-2,0-3.9,0.5-5.6,1.4c-1.7,0.9-3.1,2.1-4.2,3.7c-0.4-0.5-0.9-0.8-1.4-1.1
	c-0.5-0.3-1.1-0.4-1.8-0.4c-1,0-1.8,0.4-2.6,1.1c-0.7,0.7-1.1,1.6-1.1,2.6c0,1.1,0.4,2,1.2,2.7c0.8,0.7,1.7,1.1,2.8,1h0.3
	c0.1,0,0.2,0,0.3,0c-0.1,1.3-0.1,2.5,0.2,3.6c0.2,1.1,0.7,2.3,1.3,3.4C26.5,40,10.8,40,10.8,40z"/>
</svg>
