<?xml version="1.0" encoding="utf-8"?>
<!-- Generator: Adobe Illustrator 26.3.1, SVG Export Plug-In . SVG Version: 6.00 Build 0)  -->
<svg version="1.1" id="Слой_1" xmlns="http://www.w3.org/2000/svg" xmlns:xlink="http://www.w3.org/1999/xlink" x="0px" y="0px"
	 viewBox="0 0 48 48" style="enable-background:new 0 0 48 48;" xml:space="preserve">
<path d="M28.7,15.2h7.8l-7.8-7.7V15.2z M31.8,41.4l-1.1-1.1l4.2-4.2L30.7,32l1.1-1.1l4.2,4.2l4.2-4.2l1.1,1.1l-4.2,4.2l4.2,4.2
	l-1.1,1.1L36,37.3L31.8,41.4z M12.8,42c-0.8,0-1.4-0.3-2-0.8c-0.5-0.5-0.8-1.2-0.8-2V8.8c0-0.8,0.3-1.4,0.8-2C11.3,6.3,12,6,12.8,6
	h16.7l8.5,8.5v10.9c-0.4-0.1-0.7-0.2-1-0.2s-0.7-0.1-1-0.1c-3,0-5.6,1.1-7.8,3.2C26,30.5,25,33.1,25,36.1c0,1,0.2,2.1,0.5,3.1
	c0.3,1.1,0.8,2,1.5,2.8C27,42,12.8,42,12.8,42z"/>
</svg>
