<?xml version="1.0" encoding="utf-8"?>
<!-- Generator: Adobe Illustrator 26.3.1, SVG Export Plug-In . SVG Version: 6.00 Build 0)  -->
<svg version="1.1" id="Слой_1" xmlns="http://www.w3.org/2000/svg" xmlns:xlink="http://www.w3.org/1999/xlink" x="0px" y="0px"
	 viewBox="0 0 48 48" style="enable-background:new 0 0 48 48;" xml:space="preserve">
<path d="M33.8,39.5c-1.6,0-3-0.6-4.1-1.7s-1.7-2.5-1.7-4c0-1.6,0.6-3,1.7-4.1s2.5-1.7,4.1-1.7c1.6,0,2.9,0.6,4,1.7s1.7,2.5,1.7,4.1
	s-0.6,2.9-1.7,4C36.8,39,35.4,39.5,33.8,39.5z M14.2,33.3c-1.6,0-2.9-0.6-4-1.7c-1.1-1.1-1.7-2.5-1.7-4s0.6-3,1.7-4.1s2.4-1.7,4-1.7
	s3,0.6,4.1,1.7c1.1,1.1,1.7,2.5,1.7,4.1s-0.6,2.9-1.7,4C17.1,32.8,15.8,33.3,14.2,33.3z M21.9,18.2c-1.6,0-2.9-0.6-4-1.7
	s-1.7-2.5-1.7-4.1s0.6-2.9,1.7-4s2.5-1.7,4-1.7c1.6,0,3,0.6,4.1,1.7s1.7,2.4,1.7,4s-0.6,3-1.7,4.1C24.9,17.7,23.5,18.2,21.9,18.2z"
	/>
</svg>
