<?xml version="1.0" encoding="utf-8"?>
<!-- Generator: Adobe Illustrator 26.3.1, SVG Export Plug-In . SVG Version: 6.00 Build 0)  -->
<svg version="1.1" id="Слой_1" xmlns="http://www.w3.org/2000/svg" xmlns:xlink="http://www.w3.org/1999/xlink" x="0px" y="0px"
	 viewBox="0 0 48 48" style="enable-background:new 0 0 48 48;" xml:space="preserve">
<path d="M41.5,43V13.8c0-1.4-0.5-2.7-1.5-3.7s-2.3-1.5-3.7-1.5H33v2.8c0,0.3-0.1,0.6-0.3,0.8s-0.5,0.3-0.8,0.3h-8.7
	c-0.5,0-0.8-0.2-1-0.6c-0.2-0.4-0.2-0.8,0-1.2L25.3,4c0.2-0.4,0.4-0.7,0.7-0.9c0.2,0,0.6-0.1,1.1-0.1h4.4c0.4,0,0.8,0.1,1.1,0.4
	C32.9,3.7,33,4.1,33,4.5V7h3.2c1.9,0,3.5,0.7,4.8,2s2,2.9,2,4.8V43H41.5z M9.8,43c-1.4,0-2.5-0.5-3.4-1.4S5,39.6,5,38.2v-4.4
	c0-0.9,0.3-1.7,0.8-2.2s1.3-0.8,2.2-0.8s1.7,0.3,2.2,0.8s0.8,1.3,0.8,2.2V37h17.5v-3.2c0-0.9,0.3-1.7,0.8-2.2s1.3-0.8,2.2-0.8
	s1.7,0.3,2.2,0.8s0.8,1.3,0.8,2.2v4.5c0,1.4-0.5,2.5-1.4,3.4s-2,1.4-3.4,1.4H9.8V43z M12.3,35.7v-2.5c0-0.9-0.3-1.7-0.8-2.4
	c-0.6-0.7-1.4-1.1-2.5-1.4v-5.3c0-0.7,0.3-1.4,0.8-1.9s1.2-0.8,1.9-0.8h16c0.7,0,1.4,0.3,1.9,0.8s0.8,1.2,0.8,1.9v5.3
	c-1.1,0.2-1.9,0.7-2.5,1.4c-0.6,0.7-0.8,1.5-0.8,2.4v2.5C27.2,35.7,12.3,35.7,12.3,35.7z"/>
</svg>
