<?xml version="1.0" encoding="utf-8"?>
<!-- Generator: Adobe Illustrator 26.3.1, SVG Export Plug-In . SVG Version: 6.00 Build 0)  -->
<svg version="1.1" id="Слой_1" xmlns="http://www.w3.org/2000/svg" xmlns:xlink="http://www.w3.org/1999/xlink" x="0px" y="0px"
	 viewBox="0 0 48 48" style="enable-background:new 0 0 48 48;" xml:space="preserve">
<path d="M27.7,23l-7.4-7.5v-6h-3.1c-0.2,0-0.4-0.1-0.5-0.2c-0.1-0.1-0.2-0.3-0.2-0.6c0-0.2,0.1-0.4,0.2-0.5C16.8,8.1,17,8,17.2,8
	h13.5c0.2,0,0.4,0.1,0.5,0.2c0.1,0.1,0.2,0.3,0.2,0.6c0,0.2-0.1,0.4-0.2,0.5s-0.3,0.2-0.5,0.2h-3.1C27.7,9.5,27.7,23,27.7,23z
	 M39.1,41.6L37.5,40H9.4c-0.7,0-1.2-0.3-1.5-1s-0.2-1.3,0.3-1.8l12.2-14.3L6.6,9.2l1.1-1.1l32.4,32.4C40.2,40.5,39.1,41.6,39.1,41.6
	z"/>
</svg>
