<?xml version="1.0" encoding="utf-8"?>
<!-- Generator: Adobe Illustrator 26.3.1, SVG Export Plug-In . SVG Version: 6.00 Build 0)  -->
<svg version="1.1" id="Слой_1" xmlns="http://www.w3.org/2000/svg" xmlns:xlink="http://www.w3.org/1999/xlink" x="0px" y="0px"
	 viewBox="0 0 48 48" style="enable-background:new 0 0 48 48;" xml:space="preserve">
<path d="M37.4,36.4c0.9,0,1.6-0.3,2.2-0.9c0.6-0.6,0.9-1.3,0.9-2.2s-0.3-1.6-0.9-2.2c-0.6-0.6-1.3-0.9-2.2-0.9s-1.6,0.3-2.2,0.9
	c-0.6,0.6-0.9,1.3-0.9,2.2s0.3,1.6,0.9,2.2C35.8,36.1,36.5,36.4,37.4,36.4z M37.4,38c-1.3,0-2.4-0.5-3.3-1.4c-0.9-0.9-1.4-2-1.4-3.3
	s0.5-2.4,1.4-3.3s2-1.4,3.3-1.4s2.4,0.5,3.3,1.4c0.9,0.9,1.3,2,1.3,3.3s-0.4,2.4-1.3,3.3C39.8,37.5,38.7,38,37.4,38z M10.7,36.4
	c0.9,0,1.6-0.3,2.2-0.9c0.6-0.6,0.9-1.3,0.9-2.2s-0.3-1.6-0.9-2.2c-0.6-0.6-1.3-0.9-2.2-0.9s-1.6,0.3-2.2,0.9s-0.9,1.3-0.9,2.2
	s0.3,1.6,0.9,2.2C9.1,36.1,9.8,36.4,10.7,36.4z M10.7,38c-1.3,0-2.4-0.5-3.3-1.4S6,34.6,6,33.3s0.5-2.4,1.4-3.3s2-1.4,3.3-1.4
	c1.2,0,2.2,0.4,3,1.1s1.4,1.7,1.5,2.8h12.3c0.2-2.3,1.1-4.3,2.7-5.9s3.6-2.6,5.9-2.8L33,10.2c-0.1-0.3-0.2-0.5-0.4-0.6
	s-0.4-0.2-0.7-0.2h-6.4V8h6.4c0.6,0,1.2,0.2,1.7,0.6c0.5,0.4,0.8,0.9,1,1.5l3.3,15.1h-0.4c-2.3,0-4.3,0.8-6,2.4S29,31.1,29,33.5v0.7
	H15.3c-0.2,1.1-0.7,2-1.6,2.8C12.8,37.6,11.8,38,10.7,38z"/>
</svg>
