<?xml version="1.0" encoding="utf-8"?>
<!-- Generator: Adobe Illustrator 26.3.1, SVG Export Plug-In . SVG Version: 6.00 Build 0)  -->
<svg version="1.1" id="Слой_1" xmlns="http://www.w3.org/2000/svg" xmlns:xlink="http://www.w3.org/1999/xlink" x="0px" y="0px"
	 viewBox="0 0 48 48" style="enable-background:new 0 0 48 48;" xml:space="preserve">
<path d="M10.8,40c-0.8,0-1.4-0.3-2-0.8C8.3,38.7,8,38,8,37.2V10.8c0-0.8,0.3-1.4,0.8-2C9.3,8.3,10,8,10.8,8h26.5
	c0.8,0,1.4,0.3,2,0.8c0.5,0.5,0.8,1.2,0.8,2v26.5c0,0.8-0.3,1.4-0.8,2c-0.5,0.5-1.2,0.8-2,0.8L10.8,40L10.8,40z M24.8,23.2h1.5V12.5
	h-1.5V23.2z M30,23.2h2l-3.7-5.5l3.7-5.2h-2l-3.7,5.4C26.3,17.9,30,23.2,30,23.2z M14.5,23.2h6.6v-1.5H16v-3.2h5.1v-6h-6.6V14h5.1v3
	h-5.1V23.2z M38.5,25v-2.4L26,35.1l-8.2-8.2l-8.3,8.3v2.3l8.3-8.3l8.2,8.2C26,37.5,38.5,25,38.5,25z"/>
</svg>
