<?xml version="1.0" encoding="utf-8"?>
<!-- Generator: Adobe Illustrator 26.3.1, SVG Export Plug-In . SVG Version: 6.00 Build 0)  -->
<svg version="1.1" id="Слой_1" xmlns="http://www.w3.org/2000/svg" xmlns:xlink="http://www.w3.org/1999/xlink" x="0px" y="0px"
	 viewBox="0 0 48 48" style="enable-background:new 0 0 48 48;" xml:space="preserve">
<path d="M8.7,37.6c-0.8,0-1.4-0.3-2-0.8c-0.5-0.5-0.8-1.2-0.8-2V13.4c0-0.8,0.3-1.4,0.8-2c0.5-0.5,1.2-0.8,2-0.8h6.5v-4h1.5v4h14.5
	v-4h1.5v4h6.5c0.8,0,1.4,0.3,2,0.8c0.5,0.5,0.8,1.2,0.8,2v21.4c0,0.8-0.3,1.4-0.8,2c-0.5,0.5-1.2,0.8-2,0.8
	C39.3,37.6,8.7,37.6,8.7,37.6z M23.2,35.8h1.5v-2.5h-1.5V35.8z M29.9,29.2h5c0.3,0,0.6-0.1,0.9-0.4c0.3-0.2,0.4-0.5,0.4-0.9v-8
	c0-0.3-0.1-0.6-0.4-0.9c-0.3-0.3-0.6-0.4-0.9-0.4h-5c-0.3,0-0.6,0.1-0.9,0.4c-0.2,0.3-0.4,0.6-0.4,0.9v8c0,0.3,0.1,0.6,0.4,0.9
	C29.2,29.1,29.5,29.2,29.9,29.2z M11.9,29.2h7.5v-1.5h-6v-2.9H18c0.3,0,0.7-0.1,1-0.4s0.4-0.6,0.4-1V20c0-0.3-0.1-0.6-0.4-0.9
	c-0.2-0.3-0.5-0.4-0.9-0.4h-6.3v1.5h6v2.9h-4.5c-0.3,0-0.7,0.1-1,0.4s-0.5,0.6-0.5,1C11.9,24.5,11.9,29.2,11.9,29.2z M23.2,28.3h1.5
	v-1.8h-1.5C23.2,26.6,23.2,28.3,23.2,28.3z M30.1,27.7v-7.5h4.5v7.5H30.1z M23.2,21.7h1.5v-1.8h-1.5V21.7z M23.2,15h1.5v-2.5h-1.5
	V15z"/>
</svg>
