<?xml version="1.0" encoding="utf-8"?>
<!-- Generator: Adobe Illustrator 26.3.1, SVG Export Plug-In . SVG Version: 6.00 Build 0)  -->
<svg version="1.1" id="Слой_1" xmlns="http://www.w3.org/2000/svg" xmlns:xlink="http://www.w3.org/1999/xlink" x="0px" y="0px"
	 viewBox="0 0 48 48" style="enable-background:new 0 0 48 48;" xml:space="preserve">
<path d="M8.8,33.6c-0.9-1.4-1.6-2.9-2.1-4.5C6.2,27.5,6,25.8,6,24s0.2-3.5,0.7-5.1s1.2-3.1,2-4.5l1.1,1.1c-0.7,1.2-1.3,2.5-1.7,4
	c-0.4,1.5-0.6,3-0.6,4.5s0.2,3,0.6,4.5c0.4,1.4,1,2.8,1.7,4C9.9,32.5,8.8,33.6,8.8,33.6z M24,42c-1.8,0-3.4-0.2-5.1-0.7
	c-1.6-0.5-3.1-1.2-4.5-2l1.1-1.1c1.2,0.7,2.5,1.3,4,1.7c1.4,0.4,2.9,0.6,4.5,0.6c1.5,0,3-0.2,4.5-0.6c1.4-0.4,2.8-1,4-1.7l1.1,1.1
	c-1.4,0.9-2.9,1.6-4.5,2C27.5,41.8,25.8,42,24,42z M39.2,33.6l-1.1-1.1c0.8-1.2,1.3-2.5,1.8-4c0.4-1.4,0.6-2.9,0.6-4.5
	c0-1.5-0.2-3-0.6-4.5c-0.4-1.4-1-2.8-1.7-4l1.1-1.1c0.9,1.4,1.6,2.9,2,4.5c0.5,1.6,0.7,3.3,0.7,5.1s-0.2,3.5-0.7,5.1
	S40.1,32.2,39.2,33.6z M15.6,9.9l-1.1-1.1c1.4-0.9,2.9-1.6,4.5-2S22.2,6,24,6s3.5,0.2,5.1,0.7s3.1,1.2,4.5,2.1l-1.1,1.1
	c-1.2-0.7-2.6-1.3-4-1.7C27,7.7,25.6,7.5,24,7.5c-1.5,0-3,0.2-4.5,0.6C18.1,8.6,16.8,9.1,15.6,9.9z M24,32.8c-2.4,0-4.5-0.9-6.2-2.6
	s-2.6-3.8-2.6-6.2s0.9-4.5,2.6-6.2s3.8-2.6,6.2-2.6s4.5,0.9,6.2,2.6s2.6,3.8,2.6,6.2s-0.9,4.5-2.6,6.2C28.5,31.9,26.4,32.8,24,32.8z
	"/>
</svg>
