<?xml version="1.0" encoding="utf-8"?>
<!-- Generator: Adobe Illustrator 26.3.1, SVG Export Plug-In . SVG Version: 6.00 Build 0)  -->
<svg version="1.1" id="Слой_1" xmlns="http://www.w3.org/2000/svg" xmlns:xlink="http://www.w3.org/1999/xlink" x="0px" y="0px"
	 viewBox="0 0 48 48" style="enable-background:new 0 0 48 48;" xml:space="preserve">
<path d="M17.8,28.5h1.5v-4.2c0-1,0.3-1.8,1-2.4c0.6-0.6,1.4-1,2.4-1h4v2.4l3.2-3.2L26.8,17v2.4h-4c-1.4,0-2.5,0.5-3.5,1.4
	c-1,1-1.4,2.1-1.4,3.5C17.8,24.3,17.8,28.5,17.8,28.5z M8.8,34.9c-0.8,0-1.4-0.3-2-0.8c-0.5-0.5-0.8-1.2-0.8-2V11.7
	c0-0.8,0.3-1.4,0.8-2c0.5-0.5,1.2-0.8,2-0.8h30.5c0.8,0,1.4,0.3,2,0.8c0.5,0.5,0.8,1.2,0.8,2v20.5c0,0.8-0.3,1.4-0.8,2
	c-0.5,0.5-1.2,0.8-2,0.8C39.2,34.9,8.8,34.9,8.8,34.9z M3.5,38.9v-1.5h40.9v1.5C44.5,38.9,3.5,38.9,3.5,38.9z"/>
</svg>
