<?xml version="1.0" encoding="utf-8"?>
<!-- Generator: Adobe Illustrator 26.3.1, SVG Export Plug-In . SVG Version: 6.00 Build 0)  -->
<svg version="1.1" id="Слой_1" xmlns="http://www.w3.org/2000/svg" xmlns:xlink="http://www.w3.org/1999/xlink" x="0px" y="0px"
	 viewBox="0 0 48 48" style="enable-background:new 0 0 48 48;" xml:space="preserve">
<path d="M26.1,44.5c-3,0-5.9-0.6-8.5-1.7c-2.7-1.1-5-2.7-7-4.7s-3.6-4.3-4.7-7s-1.7-5.5-1.7-8.5h1.5c0,2.8,0.5,5.4,1.6,7.9
	s2.5,4.6,4.3,6.5c1.8,1.8,4,3.3,6.5,4.4S23.2,43,26,43l-7.5-7.5l1.1-1.1l9.8,9.8c-0.6,0.1-1.2,0.2-1.7,0.3
	C27.3,44.4,26.7,44.5,26.1,44.5z M32.4,18c-0.5,0-0.9-0.2-1.3-0.6s-0.6-0.8-0.6-1.3v-5.2c0-0.5,0.2-0.9,0.6-1.3
	C31.5,9.2,31.9,9,32.4,9h0.2V6.9c0-1,0.3-1.8,1-2.5s1.5-1,2.5-1s1.8,0.3,2.5,1s1,1.5,1,2.5V9h0.2c0.5,0,0.9,0.2,1.3,0.6
	c0.4,0.4,0.5,0.8,0.5,1.3v5.2c0,0.5-0.2,0.9-0.6,1.3c-0.4,0.4-0.8,0.6-1.3,0.6H32.4z M34,8.9h4v-2c0-0.6-0.2-1.1-0.6-1.4
	C37,5.1,36.5,4.9,36,4.9c-0.6,0-1.1,0.2-1.4,0.6C34.2,5.8,34,6.3,34,6.9V8.9z M28.3,34.7L13.8,20.3C13.2,19.7,13,19,13,18.2
	s0.3-1.5,0.8-2.1l6.1-6.1c0.6-0.6,1.3-0.8,2.1-0.8c0.8,0,1.5,0.3,2.1,0.8l2.1,2.1v4c0,1.7,0.6,3.2,1.8,4.4c1.2,1.2,2.7,1.8,4.4,1.8
	h4.1l2.1,2.2c0.6,0.6,0.9,1.3,0.9,2.1c0,0.8-0.3,1.5-0.9,2.1l-6.1,6.1c-0.6,0.6-1.3,0.9-2.1,0.9C29.6,35.6,28.9,35.3,28.3,34.7z"/>
</svg>
