<?xml version="1.0" encoding="utf-8"?>
<!-- Generator: Adobe Illustrator 26.3.1, SVG Export Plug-In . SVG Version: 6.00 Build 0)  -->
<svg version="1.1" id="Слой_1" xmlns="http://www.w3.org/2000/svg" xmlns:xlink="http://www.w3.org/1999/xlink" x="0px" y="0px"
	 viewBox="0 0 48 48" style="enable-background:new 0 0 48 48;" xml:space="preserve">
<path d="M26.1,36.3L11.6,21.8c-0.6-0.6-0.9-1.3-0.9-2.1c0-0.8,0.3-1.5,0.9-2.1l6.1-6.1c0.6-0.6,1.3-0.9,2.1-0.9s1.5,0.3,2.1,0.9
	L36.4,26c0.6,0.6,0.9,1.3,0.9,2.1s-0.3,1.5-0.9,2.1l-6.1,6.1c-0.6,0.6-1.3,0.9-2.1,0.9S26.7,36.9,26.1,36.3z M23.9,46
	c-3,0-5.9-0.6-8.5-1.7c-2.7-1.1-5-2.7-7-4.7s-3.6-4.3-4.7-7S2,27.1,2,24.1h1.5c0,2.8,0.5,5.4,1.6,7.9s2.5,4.6,4.3,6.5
	c1.8,1.8,4,3.3,6.4,4.4c2.5,1.1,5.1,1.6,7.9,1.6L16.2,37l1.1-1.1l9.9,9.8c-0.6,0.1-1.1,0.2-1.7,0.3C25.1,46,24.5,46,23.9,46z
	 M44.5,24.1c0-2.8-0.5-5.5-1.6-7.9c-1-2.5-2.5-4.6-4.3-6.5c-1.8-1.8-4-3.3-6.4-4.4c-2.5-1.1-5.1-1.6-7.9-1.6l7.4,7.4l-1.1,1.1
	l-9.8-9.8c0.5-0.1,1-0.2,1.6-0.3C22.9,2,23.4,2,23.9,2c3.1,0,5.9,0.6,8.6,1.7c2.7,1.2,5,2.7,7,4.7s3.6,4.3,4.7,7
	c1.2,2.7,1.7,5.5,1.7,8.6h-1.4V24.1z"/>
</svg>
