<?xml version="1.0" encoding="utf-8"?>
<!-- Generator: Adobe Illustrator 26.3.1, SVG Export Plug-In . SVG Version: 6.00 Build 0)  -->
<svg version="1.1" id="Слой_1" xmlns="http://www.w3.org/2000/svg" xmlns:xlink="http://www.w3.org/1999/xlink" x="0px" y="0px"
	 viewBox="0 0 48 48" style="enable-background:new 0 0 48 48;" xml:space="preserve">
<path d="M6.8,38c-0.7,0-1.4-0.3-1.9-0.8C4.3,36.6,4,36,4,35.2V12.8c0-0.7,0.3-1.4,0.8-1.9C5.4,10.3,6,10,6.8,10h34.5
	c0.7,0,1.4,0.3,1.9,0.8c0.6,0.6,0.8,1.2,0.8,1.9v22.5c0,0.7-0.3,1.4-0.8,1.9c-0.6,0.6-1.2,0.9-2,0.9H6.8z M9.8,36.5h28.3v-25H9.8
	V36.5z M28.5,33.2h6.4v-6.4h-1.3v5.1h-5.1C28.5,31.9,28.5,33.2,28.5,33.2z M13.1,21.2h1.3v-5.1h5.1v-1.3h-6.4V21.2z"/>
</svg>
