<?xml version="1.0" encoding="utf-8"?>
<!-- Generator: Adobe Illustrator 26.3.1, SVG Export Plug-In . SVG Version: 6.00 Build 0)  -->
<svg version="1.1" id="Слой_1" xmlns="http://www.w3.org/2000/svg" xmlns:xlink="http://www.w3.org/1999/xlink" x="0px" y="0px"
	 viewBox="0 0 48 48" style="enable-background:new 0 0 48 48;" xml:space="preserve">
<path d="M40.5,19.8v-5c0-0.3-0.1-0.6-0.4-0.8c-0.3-0.3-0.5-0.4-0.8-0.4h-5V12h5c0.8,0,1.4,0.3,2,0.8c0.5,0.5,0.8,1.2,0.8,2v5H40.5z
	 M6,19.8v-5c0-0.8,0.3-1.4,0.8-2C7.3,12.3,8,12,8.8,12h5v1.5h-5c-0.3,0-0.6,0.1-0.8,0.4c-0.3,0.3-0.4,0.5-0.4,0.8v5L6,19.8L6,19.8z
	 M34.2,36v-1.5h5c0.3,0,0.6-0.1,0.8-0.4c0.3-0.3,0.4-0.5,0.4-0.8v-5H42v5c0,0.8-0.3,1.4-0.8,2c-0.5,0.5-1.2,0.8-2,0.8L34.2,36
	L34.2,36z M8.8,36c-0.8,0-1.4-0.3-2-0.8C6.3,34.7,6,34,6,33.2v-5h1.5v5c0,0.3,0.1,0.6,0.4,0.8c0.3,0.3,0.5,0.4,0.8,0.4h5V36H8.8z"/>
</svg>
