<?xml version="1.0" encoding="utf-8"?>
<!-- Generator: Adobe Illustrator 26.3.1, SVG Export Plug-In . SVG Version: 6.00 Build 0)  -->
<svg version="1.1" id="Слой_1" xmlns="http://www.w3.org/2000/svg" xmlns:xlink="http://www.w3.org/1999/xlink" x="0px" y="0px"
	 viewBox="0 0 48 48" style="enable-background:new 0 0 48 48;" xml:space="preserve">
<path d="M7.4,44.6l-1.2-0.9l5.1-6.9l2-9.6c0.1-0.5,0.3-1,0.7-1.5c0.3-0.4,0.8-0.7,1.4-0.9L34.9,19l4-8.8l5-5l1.2,1.1l-4.8,5
	l-3.5,8.9l-9.3,6.6l-12.1,3.9l-2.8,7C12.6,37.7,7.4,44.6,7.4,44.6z M5.8,29.6c-0.9,0-1.7-0.3-2.3-0.9s-0.9-1.4-0.9-2.3
	s0.3-1.7,0.9-2.3c0.6-0.6,1.4-0.9,2.3-0.9s1.6,0.3,2.3,0.9c0.6,0.6,1,1.4,1,2.3s-0.3,1.7-1,2.3C7.5,29.3,6.7,29.6,5.8,29.6z
	 M17.1,20.7c-0.6,0.2-1.1,0.1-1.6-0.2c-0.5-0.3-0.9-0.7-1-1.3c-0.1-0.6-0.1-1.1,0.2-1.6s0.7-0.9,1.3-1l8.5-2.6l1.1,4.2L17.1,20.7z"
	/>
</svg>
