<?xml version="1.0" encoding="utf-8"?>
<!-- Generator: Adobe Illustrator 26.3.1, SVG Export Plug-In . SVG Version: 6.00 Build 0)  -->
<svg version="1.1" id="Слой_1" xmlns="http://www.w3.org/2000/svg" xmlns:xlink="http://www.w3.org/1999/xlink" x="0px" y="0px"
	 viewBox="0 0 48 48" style="enable-background:new 0 0 48 48;" xml:space="preserve">
<path d="M12.8,42c-0.8,0-1.4-0.3-2-0.8c-0.5-0.5-0.8-1.2-0.8-2V16.8L20.8,6h14.4c0.8,0,1.4,0.3,2,0.8C37.7,7.3,38,8,38,8.8v30.5
	c0,0.8-0.3,1.4-0.8,2c-0.5,0.5-1.2,0.8-2,0.8L12.8,42L12.8,42z M19.7,21.4h1.5v-6.8h-1.5V21.4z M25.3,21.4h1.5v-6.8h-1.5
	C25.3,14.6,25.3,21.4,25.3,21.4z M30.9,21.4h1.5v-6.8h-1.5C30.9,14.6,30.9,21.4,30.9,21.4z"/>
</svg>
