<?xml version="1.0" encoding="utf-8"?>
<!-- Generator: Adobe Illustrator 26.3.1, SVG Export Plug-In . SVG Version: 6.00 Build 0)  -->
<svg version="1.1" id="Слой_1" xmlns="http://www.w3.org/2000/svg" xmlns:xlink="http://www.w3.org/1999/xlink" x="0px" y="0px"
	 viewBox="0 0 48 48" style="enable-background:new 0 0 48 48;" xml:space="preserve">
<path d="M18.3,25.5l9.1-9.1l-1.1-1.1l-8,8l-4.1-4.1l-1.1,1.1L18.3,25.5z M20.4,34.7c-4,0-7.4-1.4-10.2-4.2S6,24.3,6,20.3
	s1.4-7.4,4.2-10.2S16.4,6,20.4,6s7.4,1.4,10.2,4.2s4.2,6.2,4.2,10.2c0,1.8-0.3,3.6-1,5.2c-0.7,1.6-1.5,3.1-2.7,4.4L42,40.8L40.9,42
	L30,31c-1.3,1.2-2.7,2.1-4.3,2.7C24,34.4,22.3,34.7,20.4,34.7z"/>
</svg>
