<?xml version="1.0" encoding="utf-8"?>
<!-- Generator: Adobe Illustrator 26.3.1, SVG Export Plug-In . SVG Version: 6.00 Build 0)  -->
<svg version="1.1" id="Слой_1" xmlns="http://www.w3.org/2000/svg" xmlns:xlink="http://www.w3.org/1999/xlink" x="0px" y="0px"
	 viewBox="0 0 48 48" style="enable-background:new 0 0 48 48;" xml:space="preserve">
<path d="M15.5,32.5v-17h17v17H15.5z M17.1,30.9H31V17H17.1V30.9z M10,38v2c-0.5,0-1-0.2-1.4-0.6C8.2,39,8,38.5,8,38H10z M8,32.5v-2
	h2v2H8z M8,25v-2h2v2H8z M8,17.5v-2h2v2H8z M10,10H8c0-0.5,0.2-1,0.6-1.4C9,8.2,9.5,8,10,8V10z M15.5,40v-2h2v2H15.5z M15.5,10V8h2
	v2H15.5z M23,40v-2h2v2H23z M23,10V8h2v2H23z M30.5,40v-2h2v2H30.5z M30.5,10V8h2v2H30.5z M38,40v-2h2c0,0.6-0.2,1-0.6,1.4
	C39,39.8,38.5,40,38,40z M38,32.5v-2h2v2H38z M38,25v-2h2v2H38z M38,17.5v-2h2v2H38z M38,10V8c0.5,0,1,0.2,1.4,0.6
	C39.8,9,40,9.5,40,10H38z"/>
</svg>
