<?xml version="1.0" encoding="utf-8"?>
<!-- Generator: Adobe Illustrator 26.3.1, SVG Export Plug-In . SVG Version: 6.00 Build 0)  -->
<svg version="1.1" id="Слой_1" xmlns="http://www.w3.org/2000/svg" xmlns:xlink="http://www.w3.org/1999/xlink" x="0px" y="0px"
	 viewBox="0 0 48 48" style="enable-background:new 0 0 48 48;" xml:space="preserve">
<path d="M40.5,28.3V17.6c0-1.2-0.4-2.1-1.2-2.9c-0.8-0.8-1.8-1.2-3-1.2H13.6V8.8c0-0.8,0.3-1.4,0.8-2C15,6.3,15.6,6,16.4,6h22.8
	c0.8,0,1.4,0.3,2,0.8C41.7,7.3,42,8,42,8.8v17.1c0,0.5-0.1,1-0.4,1.4C41.3,27.7,40.9,28,40.5,28.3z M8.8,42c-0.8,0-1.4-0.3-2-0.8
	C6.3,40.7,6,40,6,39.2V20.5c0-0.8,0.3-1.4,0.8-2c0.5-0.5,1.2-0.8,2-0.8h24.6c0.8,0,1.4,0.3,2,0.8c0.5,0.5,0.8,1.2,0.8,1.9v18.8
	c0,0.8-0.3,1.4-0.8,2c-0.5,0.5-1.2,0.8-2,0.8C33.4,42,8.8,42,8.8,42z"/>
</svg>
