<?xml version="1.0" encoding="utf-8"?>
<!-- Generator: Adobe Illustrator 26.3.1, SVG Export Plug-In . SVG Version: 6.00 Build 0)  -->
<svg version="1.1" id="Слой_1" xmlns="http://www.w3.org/2000/svg" xmlns:xlink="http://www.w3.org/1999/xlink" x="0px" y="0px"
	 viewBox="0 0 48 48" style="enable-background:new 0 0 48 48;" xml:space="preserve">
<path d="M13.4,38.6c-0.7,0-1.2-0.2-1.7-0.6c-0.4-0.4-0.7-0.9-0.7-1.6c0-0.5,0.1-0.9,0.4-1.3c0.2-0.4,0.6-0.6,1-0.8l8.8-3.5v-8.6
	c-2.6,3.1-4.8,5.3-6.7,6.5c-1.9,1.3-4.3,2.1-7.1,2.3v-1.6c2-0.1,3.9-0.7,5.7-1.7s3.4-2.4,4.9-4.3l2.8-3.1c0.2-0.3,0.5-0.6,0.9-0.8
	c0.4-0.2,0.8-0.3,1.2-0.3h2.2c0.4,0,0.8,0.1,1.2,0.3c0.4,0.2,0.7,0.5,1,0.8l2.8,3.1c1.5,1.8,3.2,3.2,5,4.2s3.7,1.6,5.7,1.7v1.6
	c-2.8-0.3-5.2-1.1-7.1-2.3c-1.9-1.3-4.2-3.5-6.7-6.5v8.6l8.8,3.5c0.4,0.2,0.8,0.4,1,0.8c0.2,0.4,0.4,0.8,0.4,1.3
	c0,0.7-0.2,1.2-0.7,1.6c-0.4,0.4-1,0.6-1.7,0.6H19.9v-0.1c0-0.8,0.2-1.4,0.6-1.8c0.4-0.4,1-0.7,1.8-0.7h6.8c0.3,0,0.5-0.1,0.7-0.3
	s0.3-0.4,0.3-0.7s-0.1-0.5-0.3-0.7c-0.2-0.2-0.4-0.3-0.7-0.3h-6.8c-1.3,0-2.4,0.4-3.2,1.2c-0.8,0.8-1.2,1.9-1.2,3.3v0.1
	C17.9,38.6,13.4,38.6,13.4,38.6z M24,16.2c-0.9,0-1.7-0.3-2.3-0.9c-0.6-0.6-0.9-1.4-0.9-2.3c0-0.9,0.3-1.7,0.9-2.3s1.4-0.9,2.3-0.9
	s1.7,0.3,2.3,0.9s0.9,1.4,0.9,2.3c0,0.9-0.3,1.7-0.9,2.3C25.7,15.9,24.9,16.2,24,16.2z"/>
</svg>
