<?xml version="1.0" encoding="utf-8"?>
<!-- Generator: Adobe Illustrator 26.3.1, SVG Export Plug-In . SVG Version: 6.00 Build 0)  -->
<svg version="1.1" id="Слой_1" xmlns="http://www.w3.org/2000/svg" xmlns:xlink="http://www.w3.org/1999/xlink" x="0px" y="0px"
	 viewBox="0 0 48 48" style="enable-background:new 0 0 48 48;" xml:space="preserve">
<path d="M31.8,41.7c-0.2,0-0.3,0-0.4-0.1s-0.1-0.2-0.1-0.4s0-0.3,0.1-0.4c0.1-0.1,0.2-0.1,0.4-0.1h5.9v-2.9h-5.9
	c-0.2,0-0.3,0-0.4-0.1s-0.1-0.2-0.1-0.4s0-0.3,0.1-0.4c0.1-0.1,0.2-0.1,0.4-0.1h5.9v-2.9h-5.9c-0.2,0-0.3,0-0.4-0.1
	s-0.1-0.2-0.1-0.4s0-0.3,0.1-0.4c0.1-0.1,0.2-0.1,0.4-0.1h5.9V30h-5.9c-0.2,0-0.3,0-0.4-0.1s-0.1-0.2-0.1-0.4s0-0.3,0.1-0.4
	s0.2-0.1,0.4-0.1h5.9v-2.9h-5.9c-0.2,0-0.3,0-0.4-0.1s-0.1-0.2-0.1-0.4c0-0.2,0-0.3,0.1-0.4s0.2-0.1,0.4-0.1h5.9v-2.9h-5.9
	c-0.2,0-0.3,0-0.4-0.1s-0.1-0.2-0.1-0.4s0-0.3,0.1-0.4s0.2-0.1,0.4-0.1h6.5c0.7,0,1.3,0.3,1.8,0.9s0.7,1.3,0.7,2v15.6
	c0,0.7-0.2,1.3-0.7,1.8s-1.1,0.7-1.8,0.7C38.3,41.7,31.8,41.7,31.8,41.7z M17.6,30.5c2.3,0,4.3-1.1,6-3.4c1.7-2.3,2.5-4.9,2.5-8.1
	s-0.8-5.8-2.5-8.1s-3.6-3.4-6-3.4c-2.3,0-4.3,1.1-6,3.4c-1.6,2.3-2.4,5-2.4,8.1s0.8,5.8,2.5,8.1C13.3,29.3,15.3,30.5,17.6,30.5z
	 M17.6,41.7c-0.9,0-1.6-0.3-2.1-1c-0.5-0.6-0.7-1.4-0.6-2.2l0.7-6.7c-2.3-0.6-4.2-2.1-5.8-4.5c-1.5-2.4-2.3-5.1-2.3-8.3
	c0-3.6,1-6.7,2.9-9.2C12.5,7.3,14.8,6,17.6,6s5.1,1.3,7.1,3.8c1.9,2.5,2.9,5.6,2.9,9.2c0,3.2-0.8,5.9-2.3,8.3s-3.5,3.9-5.8,4.5
	l0.8,6.7c0.1,0.8-0.1,1.6-0.6,2.2C19.2,41.4,18.5,41.7,17.6,41.7z"/>
</svg>
