<?xml version="1.0" encoding="utf-8"?>
<!-- Generator: Adobe Illustrator 26.3.1, SVG Export Plug-In . SVG Version: 6.00 Build 0)  -->
<svg version="1.1" id="Слой_1" xmlns="http://www.w3.org/2000/svg" xmlns:xlink="http://www.w3.org/1999/xlink" x="0px" y="0px"
	 viewBox="0 0 48 48" style="enable-background:new 0 0 48 48;" xml:space="preserve">
<path d="M41.2,28L28,41.2c-0.3,0.3-0.6,0.5-0.9,0.6C26.7,41.9,26.4,42,26,42s-0.7-0.1-1-0.2c-0.3-0.1-0.6-0.3-0.9-0.6L6.9,24
	c-0.3-0.2-0.5-0.5-0.7-0.9C6.1,22.8,6,22.4,6,22V8.8c0-0.8,0.3-1.4,0.8-2C7.4,6.3,8,6,8.8,6H22c0.4,0,0.7,0.1,1.1,0.2
	c0.3,0.1,0.6,0.3,0.9,0.6L41.2,24c0.3,0.3,0.5,0.6,0.7,0.9c0.1,0.3,0.2,0.7,0.2,1.1s-0.1,0.7-0.2,1.1C41.7,27.4,41.5,27.7,41.2,28z
	 M12.8,14.6c0.5,0,0.9-0.2,1.3-0.5c0.4-0.4,0.5-0.8,0.5-1.3s-0.2-0.9-0.5-1.3S13.3,11,12.8,11s-0.9,0.2-1.3,0.5
	c-0.4,0.4-0.6,0.8-0.6,1.3s0.2,0.9,0.5,1.3C11.8,14.4,12.3,14.6,12.8,14.6z"/>
</svg>
