<?xml version="1.0" encoding="utf-8"?>
<!-- Generator: Adobe Illustrator 26.3.1, SVG Export Plug-In . SVG Version: 6.00 Build 0)  -->
<svg version="1.1" id="Слой_1" xmlns="http://www.w3.org/2000/svg" xmlns:xlink="http://www.w3.org/1999/xlink" x="0px" y="0px"
	 viewBox="0 0 48 48" style="enable-background:new 0 0 48 48;" xml:space="preserve">
<path d="M34.1,30.4L33,29.3l4.6-4.6H25v-1.5h12.7L33,18.6l1.1-1.1l6.5,6.5L34.1,30.4z M14.8,44c-0.8,0-1.4-0.3-1.9-0.8
	c-0.6-0.6-0.9-1.2-0.9-2V6.8c0-0.7,0.3-1.4,0.8-1.9C13.4,4.3,14,4,14.8,4h18.5c0.8,0,1.4,0.3,1.9,0.8C35.7,5.4,36,6,36,6.8v6.3h-1.5
	V9.8h-21v28.3h20.9v-3.2H36v6.3c0,0.8-0.3,1.4-0.8,2c-0.6,0.5-1.2,0.8-2,0.8H14.8z"/>
</svg>
