<?xml version="1.0" encoding="utf-8"?>
<!-- Generator: Adobe Illustrator 26.3.1, SVG Export Plug-In . SVG Version: 6.00 Build 0)  -->
<svg version="1.1" id="Слой_1" xmlns="http://www.w3.org/2000/svg" xmlns:xlink="http://www.w3.org/1999/xlink" x="0px" y="0px"
	 viewBox="0 0 48 48" style="enable-background:new 0 0 48 48;" xml:space="preserve">
<path d="M27.4,42.4v-6.5l7.6-1.7l-7.6-1.7V26l16.4,8.2L27.4,42.4z M9.5,40c-0.4,0-0.8-0.2-1.1-0.5c-0.2-0.3-0.4-0.6-0.4-1V30
	c1.1-0.4,2-1.1,2.7-2s1-2,1-3.1c0-1.2-0.3-2.2-1-3.1s-1.6-1.6-2.7-2v-8.5c0-0.4,0.2-0.8,0.5-1.1c0.3-0.2,0.6-0.3,1-0.3h8.4
	c0.5-1.1,1.2-2,2.1-2.6c0.9-0.7,1.9-1,3.1-1c1.1,0,2.1,0.3,3,1s1.6,1.5,2.1,2.6h8.3c0.4,0,0.8,0.2,1.1,0.5s0.5,0.7,0.5,1.1v16
	l-13.9-7v15.9c-1.4-0.3-2.7,0-3.8,0.7c-1.1,0.7-1.9,1.7-2.4,3C18,40,9.5,40,9.5,40z"/>
</svg>
