<?xml version="1.0" encoding="utf-8"?>
<!-- Generator: Adobe Illustrator 26.3.1, SVG Export Plug-In . SVG Version: 6.00 Build 0)  -->
<svg version="1.1" id="Слой_1" xmlns="http://www.w3.org/2000/svg" xmlns:xlink="http://www.w3.org/1999/xlink" x="0px" y="0px"
	 viewBox="0 0 48 48" style="enable-background:new 0 0 48 48;" xml:space="preserve">
<path d="M11.8,37.3c-3.5-1.1-6-3-7.5-5.7C2.8,29,2.1,26.5,2.1,24s0.7-5,2.2-7.7c1.5-2.6,4-4.5,7.5-5.7v1.6c-2.4,0.8-4.3,2.3-5.9,4.4
	c-1.5,2.1-2.3,4.6-2.3,7.3s0.8,5.1,2.3,7.2s3.5,3.6,5.9,4.5V37.3z M28.1,38c-3.9,0-7.2-1.4-9.9-4.1s-4.1-6-4.1-9.9s1.4-7.2,4.1-9.9
	s6-4.1,9.9-4.1c1.6,0,3.2,0.3,4.8,0.8c1.6,0.6,3,1.4,4.3,2.5l-1,1.1c-1.1-0.9-2.4-1.7-3.7-2.2c-1.4-0.5-2.8-0.8-4.3-0.8
	c-3.4,0-6.4,1.2-8.8,3.7c-2.4,2.4-3.7,5.4-3.7,8.8s1.2,6.4,3.7,8.8c2.4,2.4,5.4,3.7,8.8,3.7c1.5,0,2.9-0.2,4.3-0.7
	c1.4-0.5,2.6-1.2,3.7-2.1l1,1c-1.3,1.1-2.7,2-4.3,2.5C31.3,37.7,29.7,38,28.1,38z M39.5,30.4l-1.1-1.1l4.7-4.6H26.4v-1.4H43
	l-4.6-4.6l1.1-1.1l6.5,6.5C45.9,23.9,39.5,30.4,39.5,30.4z"/>
</svg>
