<?xml version="1.0" encoding="utf-8"?>
<!-- Generator: Adobe Illustrator 26.3.1, SVG Export Plug-In . SVG Version: 6.00 Build 0)  -->
<svg version="1.1" id="Слой_1" xmlns="http://www.w3.org/2000/svg" xmlns:xlink="http://www.w3.org/1999/xlink" x="0px" y="0px"
	 viewBox="0 0 48 48" style="enable-background:new 0 0 48 48;" xml:space="preserve">
<path d="M9.1,34c-1-1.4-1.7-3-2.2-4.7C6.3,27.6,6,25.9,6,24s0.3-3.6,0.8-5.3C7.3,17,8.1,15.4,9.1,14l1.3,0.9
	c-0.9,1.3-1.6,2.7-2.1,4.3c-0.5,1.5-0.7,3.2-0.7,4.9c0,1.7,0.2,3.3,0.7,4.9c0.5,1.5,1.2,3,2.1,4.3L9.1,34z M34,29L19,14
	c0.8-0.4,1.6-0.7,2.4-0.9s1.7-0.3,2.6-0.3c3.1,0,5.8,1.1,8,3.3s3.3,4.8,3.3,8c0,0.9-0.1,1.8-0.3,2.6C34.7,27.5,34.4,28.3,34,29z
	 M39.1,33.7l-1.2-0.8c0.8-1.3,1.4-2.7,1.9-4.2c0.4-1.5,0.7-3,0.7-4.6c0-1.7-0.2-3.3-0.7-4.9c-0.5-1.5-1.2-3-2.1-4.3L39,14
	c1,1.4,1.7,3,2.3,4.7s0.8,3.5,0.8,5.3s-0.3,3.5-0.8,5.1C40.7,30.7,40,32.3,39.1,33.7z M39.4,41.7L30.7,33c-0.9,0.7-2,1.3-3.1,1.6
	s-2.3,0.6-3.6,0.6c-3.1,0-5.8-1.1-8-3.3s-3.3-4.8-3.3-8c0-1.3,0.2-2.5,0.6-3.6c0.4-1.1,0.9-2.2,1.6-3.1L6.6,8.9l1.1-1.1l32.8,32.8
	L39.4,41.7z"/>
</svg>
