<?xml version="1.0" encoding="utf-8"?>
<!-- Generator: Adobe Illustrator 26.3.1, SVG Export Plug-In . SVG Version: 6.00 Build 0)  -->
<svg version="1.1" id="Слой_1" xmlns="http://www.w3.org/2000/svg" xmlns:xlink="http://www.w3.org/1999/xlink" x="0px" y="0px"
	 viewBox="0 0 48 48" style="enable-background:new 0 0 48 48;" xml:space="preserve">
<path d="M10.2,41.8V9c0-0.8,0.3-1.4,0.8-2c0.5-0.5,1.2-0.8,2-0.8h22c0.8,0,1.4,0.3,2,0.8s0.8,1.2,0.8,2v32.8H10.2z M31,25.8
	c0.5,0,0.9-0.2,1.3-0.5c0.3-0.3,0.5-0.8,0.5-1.2c0-0.5-0.2-0.9-0.5-1.3c-0.3-0.3-0.8-0.5-1.3-0.5s-0.9,0.2-1.3,0.5
	c-0.3,0.3-0.5,0.8-0.5,1.3s0.2,0.9,0.5,1.3C30.1,25.6,30.5,25.8,31,25.8z"/>
</svg>
