<?xml version="1.0" encoding="utf-8"?>
<!-- Generator: Adobe Illustrator 26.3.1, SVG Export Plug-In . SVG Version: 6.00 Build 0)  -->
<svg version="1.1" id="Слой_1" xmlns="http://www.w3.org/2000/svg" xmlns:xlink="http://www.w3.org/1999/xlink" x="0px" y="0px"
	 viewBox="0 0 48 48" style="enable-background:new 0 0 48 48;" xml:space="preserve">
<path d="M40.2,42.4L17,19.2c-0.5,0.7-0.8,1.4-1.1,2.3c-0.3,0.8-0.4,1.7-0.4,2.6c0,1.2,0.2,2.3,0.7,3.3c0.4,1,1.1,1.9,1.8,2.7
	l-1.1,1.1c-0.9-0.9-1.6-1.9-2.1-3.2c-0.5-1.3-0.8-2.6-0.8-4c0-1.1,0.2-2.2,0.5-3.2s0.8-1.9,1.4-2.7l-4.6-4.6
	c-1.2,1.5-2.1,3.1-2.8,4.8c-0.7,1.8-1,3.6-1,5.6c0,2.3,0.4,4.4,1.3,6.4s2,3.7,3.6,5.2l-1.1,1.1c-1.6-1.6-2.9-3.5-3.9-5.7
	S6,26.5,6,24c0-2.2,0.4-4.3,1.1-6.3s1.8-3.7,3.1-5.3L5.6,7.8l1.1-1.1l34.5,34.5C41.3,41.3,40.2,42.4,40.2,42.4z M38.9,34l-1.1-1.1
	c0.8-1.3,1.5-2.7,1.9-4.2s0.7-3,0.7-4.7c0-2.3-0.4-4.4-1.3-6.4s-2-3.7-3.6-5.2l1.1-1.1c1.6,1.7,2.9,3.6,3.9,5.7
	c0.9,2.2,1.4,4.5,1.4,7c0,1.8-0.3,3.6-0.8,5.3C40.7,31,39.9,32.5,38.9,34z M33.1,28.1l-1.2-1.2c0.2-0.4,0.3-0.9,0.4-1.4
	c0.1-0.5,0.1-1,0.1-1.5c0-1.2-0.2-2.3-0.7-3.3c-0.4-1-1.1-1.9-1.8-2.7l1.1-1.1c0.9,0.9,1.6,2,2.1,3.2s0.8,2.5,0.8,3.9
	c0,0.7-0.1,1.4-0.2,2.1C33.6,26.8,33.4,27.4,33.1,28.1z"/>
</svg>
