<?xml version="1.0" encoding="utf-8"?>
<!-- Generator: Adobe Illustrator 26.3.1, SVG Export Plug-In . SVG Version: 6.00 Build 0)  -->
<svg version="1.1" id="Слой_1" xmlns="http://www.w3.org/2000/svg" xmlns:xlink="http://www.w3.org/1999/xlink" x="0px" y="0px"
	 viewBox="0 0 48 48" style="enable-background:new 0 0 48 48;" xml:space="preserve">
<path d="M9.1,34c-1-1.4-1.7-3-2.2-4.7C6.3,27.6,6,25.9,6,24s0.3-3.6,0.8-5.3C7.3,17,8.1,15.4,9.1,14l1.3,0.9c-0.9,1.3-1.6,2.7-2,4.3
	c-0.5,1.5-0.7,3.2-0.7,4.9c0,1.7,0.2,3.4,0.7,4.9s1.2,3,2,4.3C10.3,33.2,9.1,34,9.1,34z M24,35.2c-3.1,0-5.8-1.1-8-3.3
	s-3.3-4.8-3.3-8s1.1-5.8,3.3-8s4.8-3.3,8-3.3c3.1,0,5.8,1.1,8,3.3s3.3,4.8,3.3,8s-1.1,5.8-3.3,8C29.8,34.1,27.1,35.2,24,35.2z
	 M38.9,34l-1.3-0.8c0.9-1.3,1.6-2.8,2.1-4.3s0.7-3.2,0.7-4.9s-0.2-3.4-0.7-4.9s-1.2-3-2.1-4.3l1.3-0.9c1,1.4,1.7,3,2.3,4.7
	s0.8,3.5,0.8,5.3c0,1.9-0.3,3.6-0.8,5.3C40.6,31,39.8,32.6,38.9,34z"/>
</svg>
