<?xml version="1.0" encoding="utf-8"?>
<!-- Generator: Adobe Illustrator 26.3.1, SVG Export Plug-In . SVG Version: 6.00 Build 0)  -->
<svg version="1.1" id="Слой_1" xmlns="http://www.w3.org/2000/svg" xmlns:xlink="http://www.w3.org/1999/xlink" x="0px" y="0px"
	 viewBox="0 0 48 48" style="enable-background:new 0 0 48 48;" xml:space="preserve">
<path d="M22.6,35h2.8c1.7,0,3-0.5,4-1.5S31,31.4,31,30s-0.5-2.6-1.6-3.5S27,25,25.4,25h-2.8c-1.7,0-3,0.5-4,1.5S17,28.7,17,30
	c0,1.4,0.5,2.6,1.6,3.5C19.6,34.5,20.9,35,22.6,35z M22.6,33.2c-1.2,0-2.1-0.3-2.8-0.9c-0.7-0.6-1-1.4-1-2.3s0.3-1.7,1-2.3
	c0.7-0.6,1.6-0.9,2.8-0.9h2.8c1.2,0,2.1,0.3,2.8,0.9c0.7,0.6,1,1.4,1,2.3s-0.3,1.7-1,2.3s-1.6,0.9-2.8,0.9H22.6z M13.2,20h3.4
	c1.4,0,2.6-0.5,3.6-1.4s1.6-2,1.7-3.4h-1.8c-0.2,0.9-0.6,1.6-1.2,2.1c-0.7,0.6-1.4,0.9-2.3,0.9h-3.4C13.2,18.2,13.2,20,13.2,20z
	 M31.4,20h3.4v-1.8h-3.4c-0.9,0-1.7-0.3-2.3-0.9c-0.7-0.6-1.1-1.3-1.2-2.1H26c0.1,1.4,0.7,2.5,1.7,3.4C28.8,19.5,30,20,31.4,20z
	 M24,42c-2.5,0-4.8-0.5-7-1.4s-4.1-2.2-5.7-3.8s-2.9-3.5-3.8-5.7C6.5,28.8,6,26.5,6,24s0.5-4.8,1.4-7s2.2-4.1,3.8-5.7
	s3.5-2.9,5.7-3.8C19.2,6.5,21.5,6,24,6s4.8,0.5,7,1.4s4.1,2.2,5.7,3.8c1.6,1.6,2.9,3.5,3.8,5.7c0.9,2.2,1.4,4.5,1.4,7
	s-0.5,4.8-1.4,7s-2.2,4.1-3.8,5.7s-3.5,2.9-5.7,3.8C28.8,41.5,26.5,42,24,42z"/>
</svg>
