<?xml version="1.0" encoding="utf-8"?>
<!-- Generator: Adobe Illustrator 26.3.1, SVG Export Plug-In . SVG Version: 6.00 Build 0)  -->
<svg version="1.1" id="Слой_1" xmlns="http://www.w3.org/2000/svg" xmlns:xlink="http://www.w3.org/1999/xlink" x="0px" y="0px"
	 viewBox="0 0 48 48" style="enable-background:new 0 0 48 48;" xml:space="preserve">
<path d="M24,27.1c-1.9,0-3.6,0.5-5.2,1.5S16,31,15.2,32.7h17.7c-0.8-1.7-2-3.1-3.6-4.2C27.6,27.6,25.9,27.1,24,27.1z M15.1,22.9
	l2.3-2.2l2.2,2.2l1-1.1l-2.2-2.2l2.2-2.2l-1-1.1l-2.2,2.2l-2.3-2.2l-1,1.1l2.2,2.2l-2.2,2.2C14.1,21.8,15.1,22.9,15.1,22.9z
	 M28.4,22.9l2.2-2.2l2.4,2.2l1-1.1l-2.2-2.2l2.2-2.2l-1-1.1l-2.4,2.2l-2.2-2.2l-1,1.1l2.2,2.2l-2.2,2.2L28.4,22.9z M24,42
	c-2.5,0-4.8-0.5-7-1.4s-4.1-2.2-5.7-3.8s-2.9-3.5-3.8-5.7C6.5,28.8,6,26.5,6,24s0.5-4.8,1.4-7s2.2-4.1,3.8-5.7s3.5-2.9,5.7-3.8
	C19.2,6.5,21.5,6,24,6s4.8,0.5,7,1.4s4.1,2.2,5.7,3.8c1.6,1.6,2.9,3.5,3.8,5.7c0.9,2.2,1.4,4.5,1.4,7s-0.5,4.8-1.4,7
	s-2.2,4.1-3.8,5.7s-3.5,2.9-5.7,3.8C28.8,41.5,26.5,42,24,42z"/>
</svg>
