<?xml version="1.0" encoding="utf-8"?>
<!-- Generator: Adobe Illustrator 26.3.1, SVG Export Plug-In . SVG Version: 6.00 Build 0)  -->
<svg version="1.1" id="Слой_1" xmlns="http://www.w3.org/2000/svg" xmlns:xlink="http://www.w3.org/1999/xlink" x="0px" y="0px"
	 viewBox="0 0 48 48" style="enable-background:new 0 0 48 48;" xml:space="preserve">
<path d="M16.6,24.6V28c0,2,0.7,3.8,2.2,5.2c1.4,1.4,3.2,2.2,5.2,2.2s3.8-0.7,5.2-2.2c1.4-1.4,2.2-3.2,2.2-5.2v-3.4H16.6z M24,33.6
	c-1.6,0-2.9-0.5-4-1.6s-1.6-2.4-1.6-4v-1.6h11.2V28c0,1.6-0.5,2.9-1.6,4C26.9,33.1,25.6,33.6,24,33.6z M17,14.6c-1,0-2,0.4-2.8,1.1
	s-1.5,1.7-1.9,3l1.7,0.4c0.3-0.8,0.7-1.5,1.2-2s1.1-0.7,1.8-0.8c0.6,0,1.2,0.3,1.8,0.8c0.5,0.5,0.9,1.1,1.2,2l1.7-0.4
	c-0.4-1.3-1-2.3-1.9-3C19,15,18,14.6,17,14.6z M31,14.6c-1,0-2,0.4-2.8,1.1s-1.5,1.7-1.9,3l1.7,0.4c0.3-0.8,0.7-1.5,1.2-2
	s1.1-0.7,1.8-0.7s1.3,0.2,1.8,0.7s0.9,1.2,1.2,2l1.7-0.4c-0.4-1.3-1-2.3-1.9-3C33,15,32,14.6,31,14.6z M24,42c-2.5,0-4.8-0.5-7-1.4
	s-4.1-2.2-5.7-3.8s-2.9-3.5-3.8-5.7C6.5,28.8,6,26.5,6,24s0.5-4.8,1.4-7s2.2-4.1,3.8-5.7s3.5-2.9,5.7-3.8C19.2,6.5,21.5,6,24,6
	s4.8,0.5,7,1.4s4.1,2.2,5.7,3.8c1.6,1.6,2.9,3.5,3.8,5.7c0.9,2.2,1.4,4.5,1.4,7s-0.5,4.8-1.4,7s-2.2,4.1-3.8,5.7s-3.5,2.9-5.7,3.8
	C28.8,41.5,26.5,42,24,42z"/>
</svg>
