<?xml version="1.0" encoding="utf-8"?>
<!-- Generator: Adobe Illustrator 26.3.1, SVG Export Plug-In . SVG Version: 6.00 Build 0)  -->
<svg version="1.1" id="Слой_1" xmlns="http://www.w3.org/2000/svg" xmlns:xlink="http://www.w3.org/1999/xlink" x="0px" y="0px"
	 viewBox="0 0 48 48" style="enable-background:new 0 0 48 48;" xml:space="preserve">
<path d="M12.4,36h5.8v-0.7H15l2.6-7.3h8.5l2.6,7.3h-3V36h8v-0.7h-1.5L23.6,12h-1.2L14,35.3h-1.6V36z M17.9,27.2l4-11.1l4,11.1H17.9z
	 M8.8,42c-0.8,0-1.4-0.3-2-0.8C6.3,40.7,6,40,6,39.2V8.8c0-0.8,0.3-1.4,0.8-2C7.3,6.3,8,6,8.8,6h30.5c0.8,0,1.4,0.3,2,0.8
	C41.7,7.3,42,8,42,8.8v30.5c0,0.8-0.3,1.4-0.8,2c-0.5,0.5-1.2,0.8-2,0.8L8.8,42L8.8,42z"/>
</svg>
