<?xml version="1.0" encoding="utf-8"?>
<!-- Generator: Adobe Illustrator 26.3.1, SVG Export Plug-In . SVG Version: 6.00 Build 0)  -->
<svg version="1.1" id="Слой_1" xmlns="http://www.w3.org/2000/svg" xmlns:xlink="http://www.w3.org/1999/xlink" x="0px" y="0px"
	 viewBox="0 0 48 48" style="enable-background:new 0 0 48 48;" xml:space="preserve">
<path d="M7.5,38c-0.4,0-0.8-0.2-1.1-0.5c-0.2-0.3-0.4-0.6-0.4-1v-9.3h9.1v2.1h1.5v-2.1h14.8v2.1h1.5v-2.1H42v9.3
	c0,0.4-0.2,0.8-0.5,1.1s-0.7,0.5-1.1,0.5L7.5,38L7.5,38z M6.2,25.6l4.7-11c0.1-0.2,0.3-0.4,0.6-0.6c0.2-0.2,0.5-0.2,0.8-0.2h4.6
	v-2.6c0-0.4,0.2-0.8,0.5-1.1s0.7-0.5,1.1-0.5h11.1c0.4,0,0.7,0.2,1.1,0.5c0.3,0.3,0.5,0.7,0.5,1.1v2.6h4.6c0.3,0,0.6,0.1,0.8,0.2
	c0.2,0.2,0.4,0.4,0.6,0.6l4.7,11H33v-2.1h-1.5v2.1H16.6v-2.1h-1.5v2.1C15.1,25.6,6.2,25.6,6.2,25.6z M18.5,13.8h11.1v-2.6H18.5V13.8
	z"/>
</svg>
