<?xml version="1.0" encoding="utf-8"?>
<!-- Generator: Adobe Illustrator 26.3.1, SVG Export Plug-In . SVG Version: 6.00 Build 0)  -->
<svg version="1.1" id="Слой_1" xmlns="http://www.w3.org/2000/svg" xmlns:xlink="http://www.w3.org/1999/xlink" x="0px" y="0px"
	 viewBox="0 0 48 48" style="enable-background:new 0 0 48 48;" xml:space="preserve">
<path d="M12.8,42c-0.8,0-1.4-0.3-2-0.8c-0.5-0.5-0.8-1.2-0.8-2V8.8c0-0.8,0.3-1.4,0.8-2C11.3,6.3,12,6,12.8,6h22.5
	c0.8,0,1.4,0.3,2,0.8C37.8,7.3,38,8,38,8.8v30.5c0,0.8-0.3,1.4-0.8,2c-0.5,0.5-1.2,0.8-2,0.8h-4.9l-1.9-3.8h-9L17.6,42H12.8z
	 M17.4,28.7h13.2v-0.3c0-1.4-0.7-2.3-2.1-2.8C27.1,25.2,25.6,25,24,25s-3.1,0.2-4.5,0.7c-1.4,0.4-2.1,1.4-2.1,2.8V28.7z M24,21.1
	c0.8,0,1.5-0.3,2-0.8s0.8-1.2,0.8-2s-0.3-1.5-0.8-2c-0.6-0.6-1.2-0.8-2-0.8s-1.5,0.3-2,0.8s-0.8,1.2-0.8,2s0.3,1.4,0.8,2
	S23.2,21.1,24,21.1z"/>
</svg>
