<?xml version="1.0" encoding="utf-8"?>
<!-- Generator: Adobe Illustrator 26.3.1, SVG Export Plug-In . SVG Version: 6.00 Build 0)  -->
<svg version="1.1" id="Слой_1" xmlns="http://www.w3.org/2000/svg" xmlns:xlink="http://www.w3.org/1999/xlink" x="0px" y="0px"
	 viewBox="0 0 48 48" style="enable-background:new 0 0 48 48;" xml:space="preserve">
<path d="M6.5,28.2c-0.7,0-1.4-0.3-1.9-0.8s-0.8-1.2-0.8-1.9v-17c0-0.7,0.3-1.4,0.8-1.9C5.1,6,5.8,5.8,6.5,5.8h34.9
	c0.7,0,1.4,0.3,1.9,0.8s0.8,1.2,0.8,1.9v16.9c0,0.7-0.3,1.4-0.8,1.9s-1.2,0.8-1.9,0.8C41.5,28.2,6.5,28.2,6.5,28.2z M6.7,35.6
	l-0.1-1.8L41.4,32l0.1,1.8C41.4,33.8,6.7,35.6,6.7,35.6z M6.6,40.6v-1.8h34.8v1.8C41.4,40.6,6.6,40.6,6.6,40.6z M21.6,21.8
	c2.1,0,4.1-0.3,6.1-1s3.7-1.7,5.2-3.2c0.2,1,0.7,1.8,1.6,2.3c0.8,0.5,1.8,0.9,2.8,1v-7.8c-1.1,0.1-2,0.5-2.9,1
	c-0.9,0.6-1.4,1.3-1.5,2.3c-1.5-1.4-3.3-2.5-5.2-3.2c-1.9-0.7-3.9-1.1-6-1.1c-2.2,0-4.4,0.4-6.5,1.1c-2.1,0.7-3.8,2-5.2,3.7
	c1.4,1.7,3.1,3,5.2,3.7C17.2,21.5,19.4,21.8,21.6,21.8z"/>
</svg>
