<?xml version="1.0" encoding="utf-8"?>
<!-- Generator: Adobe Illustrator 26.3.1, SVG Export Plug-In . SVG Version: 6.00 Build 0)  -->
<svg version="1.1" id="Слой_1" xmlns="http://www.w3.org/2000/svg" xmlns:xlink="http://www.w3.org/1999/xlink" x="0px" y="0px"
	 viewBox="0 0 48 48" style="enable-background:new 0 0 48 48;" xml:space="preserve">
<path d="M28.4,42c-0.5,0-0.9-0.2-1.2-0.5c-0.3-0.3-0.5-0.7-0.5-1.2v-9.9c0-0.5,0.2-0.9,0.5-1.2c0.3-0.3,0.7-0.5,1.2-0.5h9.9
	c0.5,0,0.9,0.2,1.2,0.5s0.5,0.7,0.5,1.2v3.3l3.3-3.3v9.9L39.9,37v3.3c0,0.5-0.2,0.9-0.5,1.2S38.7,42,38.2,42
	C38.3,42,28.4,42,28.4,42z M20.7,42l-0.8-5.7c-0.7-0.2-1.5-0.6-2.4-1.1s-1.6-1-2.2-1.6L9.9,36l-3.3-5.9l4.7-3.5
	c-0.1-0.4-0.1-0.8-0.2-1.3c0-0.4-0.1-0.9-0.1-1.3s0-0.8,0.1-1.2c0-0.4,0.1-0.9,0.2-1.4l-4.7-3.5l3.3-5.8l5.2,2.3
	c0.7-0.6,1.4-1.1,2.3-1.6c0.8-0.5,1.6-0.8,2.4-1.1L20.7,6h6.7l0.8,5.8c0.8,0.3,1.6,0.7,2.4,1.1c0.8,0.4,1.5,0.9,2.2,1.5l5.4-2.3
	l3.3,5.8l-4.9,3.6c0.1,0.5,0.2,0.9,0.2,1.3s0,0.8,0,1.2h-8.1c0-1.3-0.5-2.5-1.4-3.4s-2-1.4-3.4-1.4c-1.3,0-2.4,0.5-3.4,1.4
	c-0.9,0.9-1.4,2.1-1.4,3.4c0,1,0.3,1.9,0.8,2.6c0.5,0.8,1.2,1.3,2,1.7V42H20.7z"/>
</svg>
