<?xml version="1.0" encoding="utf-8"?>
<!-- Generator: Adobe Illustrator 26.3.1, SVG Export Plug-In . SVG Version: 6.00 Build 0)  -->
<svg version="1.1" id="Слой_1" xmlns="http://www.w3.org/2000/svg" xmlns:xlink="http://www.w3.org/1999/xlink" x="0px" y="0px"
	 viewBox="0 0 48 48" style="enable-background:new 0 0 48 48;" xml:space="preserve">
<path d="M33.5,42c-2.3,0-4.3-0.8-6-2.5s-2.5-3.6-2.5-6s0.8-4.3,2.5-6s3.6-2.5,6-2.5s4.3,0.8,6,2.5s2.5,3.6,2.5,6s-0.8,4.3-2.5,6
	C37.9,41.2,35.9,42,33.5,42z M37.2,37.2c0.1-0.2,0.2-0.3,0.1-0.5c-0.1-0.2-0.2-0.3-0.4-0.3c-0.7-0.1-1.4-0.4-2.1-0.8s-1.1-1-1.5-1.7
	s-0.6-1.4-0.7-2.2c-0.1-0.7,0-1.5,0.3-2.2c0.1-0.2,0-0.4-0.1-0.5c-0.1-0.2-0.3-0.2-0.5-0.2c-1.9,0.3-3.2,1.4-3.9,3.2
	c-0.7,1.8-0.4,3.5,0.8,5c1,1.2,2.3,1.9,3.9,1.9C34.9,39,36.2,38.4,37.2,37.2z M20.7,42l-0.8-5.7c-0.9-0.3-1.7-0.6-2.5-1.1
	c-0.8-0.4-1.5-1-2.2-1.6L9.9,36l-3.3-5.9l4.7-3.5c-0.1-0.4-0.1-0.8-0.2-1.3c0-0.4-0.1-0.9-0.1-1.3s0-0.9,0.1-1.3
	c0-0.4,0.1-0.9,0.2-1.3l-4.7-3.5l3.3-5.8l5.2,2.3c0.7-0.6,1.4-1.1,2.2-1.5c0.8-0.5,1.6-0.8,2.4-1.1l1-5.8h6.7l0.8,5.8
	c0.8,0.3,1.6,0.7,2.4,1.1c0.8,0.4,1.5,0.9,2.2,1.5l5.4-2.3l3.3,5.8l-4,3c-0.6-0.2-1.3-0.3-1.9-0.4c-0.6-0.1-1.3-0.1-1.9-0.1
	c-1,0-1.9,0.1-2.8,0.3c-0.9,0.2-1.8,0.5-2.7,1c-0.4-0.7-1-1.3-1.7-1.7c-0.7-0.4-1.5-0.6-2.4-0.6c-1.3,0-2.4,0.5-3.4,1.4
	c-0.9,0.9-1.4,2.1-1.4,3.4c0,0.8,0.2,1.6,0.6,2.3c0.4,0.7,1,1.3,1.7,1.8c-0.4,1-0.7,1.9-0.9,3c-0.2,1-0.2,2.1-0.2,3.1
	c0.1,1.4,0.4,2.8,0.9,4.2c0.5,1.3,1.2,2.5,2.2,3.7C23.4,42,20.7,42,20.7,42z"/>
</svg>
