<?xml version="1.0" encoding="utf-8"?>
<!-- Generator: Adobe Illustrator 26.3.1, SVG Export Plug-In . SVG Version: 6.00 Build 0)  -->
<svg version="1.1" id="Слой_1" xmlns="http://www.w3.org/2000/svg" xmlns:xlink="http://www.w3.org/1999/xlink" x="0px" y="0px"
	 viewBox="0 0 48 48" style="enable-background:new 0 0 48 48;" xml:space="preserve">
<path d="M18,42v-4.7l-6-12.1V14.4h2V9c0-0.8,0.3-1.5,0.8-2.1S16,6,16.8,6h14.5c0.8,0,1.4,0.3,2,0.9C33.7,7.4,34,8.1,34,9v5.5h2v10.8
	l-6,12.1V42H18z M15.5,14.4h4.6v-4.3h1.4v4.3h4.8v-4.3h1.4v4.3h4.6V9c0-0.4-0.1-0.8-0.3-1c-0.2-0.3-0.5-0.4-0.9-0.4H16.8
	c-0.4,0-0.7,0.1-0.9,0.4c-0.2,0.3-0.3,0.6-0.3,1L15.5,14.4L15.5,14.4z"/>
</svg>
