<?xml version="1.0" encoding="utf-8"?>
<!-- Generator: Adobe Illustrator 26.3.1, SVG Export Plug-In . SVG Version: 6.00 Build 0)  -->
<svg version="1.1" id="Слой_1" xmlns="http://www.w3.org/2000/svg" xmlns:xlink="http://www.w3.org/1999/xlink" x="0px" y="0px"
	 viewBox="0 0 48 48" style="enable-background:new 0 0 48 48;" xml:space="preserve">
<path d="M7.9,44v-8.9c-1.1-0.3-2-0.8-2.8-1.7C4.4,32.6,4,31.6,4,30.5v-5h9.3v5c0,1.1-0.4,2.1-1.1,2.9c-0.7,0.8-1.7,1.4-2.8,1.7V44
	H7.9z M23.2,44v-8.9c-1.1-0.3-2-0.8-2.8-1.7c-0.8-0.8-1.1-1.8-1.1-2.9v-5h9.3v5c0,1.1-0.4,2.1-1.1,2.9s-1.7,1.4-2.8,1.7V44
	C24.8,44,23.2,44,23.2,44z M38.6,44v-8.9c-1.1-0.3-2-0.8-2.8-1.7c-0.8-0.8-1.1-1.8-1.1-2.9v-5H44v5c0,1.1-0.4,2.1-1.1,2.9
	c-0.8,0.8-1.7,1.4-2.8,1.7V44H38.6z M4,23.9V12.4h3.9V4.8c0-0.2,0.1-0.4,0.2-0.6C8.2,4.1,8.4,4,8.7,4c0.2,0,0.4,0.1,0.6,0.2
	c0.1,0.1,0.2,0.3,0.2,0.6v7.7h3.9V24H4V23.9z M19.4,23.9V12.4h3.9V4.8c0-0.2,0.1-0.4,0.2-0.6C23.6,4.1,23.8,4,24,4s0.4,0.1,0.6,0.2
	c0.1,0.1,0.2,0.3,0.2,0.6v7.7h3.9V24h-9.3V23.9z M34.7,23.9V12.4h3.9V4.8c0-0.2,0.1-0.4,0.2-0.6C38.9,4.1,39.1,4,39.4,4
	c0.2,0,0.4,0.1,0.6,0.2c0.1,0.1,0.2,0.3,0.2,0.6v7.7H44V24h-9.3V23.9z"/>
</svg>
