<?xml version="1.0" encoding="utf-8"?>
<!-- Generator: Adobe Illustrator 26.3.1, SVG Export Plug-In . SVG Version: 6.00 Build 0)  -->
<svg version="1.1" id="Слой_1" xmlns="http://www.w3.org/2000/svg" xmlns:xlink="http://www.w3.org/1999/xlink" x="0px" y="0px"
	 viewBox="0 0 48 48" style="enable-background:new 0 0 48 48;" xml:space="preserve">
<path d="M28.8,41.9c-0.5,0.1-1,0-1.5-0.3c-0.4-0.3-0.7-0.8-0.7-1.3v-9.1c0-0.6,0.2-1,0.7-1.3s0.9-0.4,1.5-0.3c1,0.3,2.1,0.5,3.1,0.6
	c1.1,0.1,2.1,0.2,3.2,0.2s2.1-0.1,3.2-0.2c1.1-0.1,2.1-0.3,3.2-0.6c0.5-0.2,1-0.1,1.5,0.3c0.4,0.3,0.7,0.8,0.7,1.4v9.1
	c0,0.6-0.2,1-0.7,1.4c-0.4,0.3-0.9,0.4-1.5,0.3c-1.1-0.3-2.1-0.5-3.2-0.6c-1.1-0.1-2.1-0.2-3.2-0.2c-1.1,0-2.1,0.1-3.2,0.2
	C30.9,41.5,29.8,41.7,28.8,41.9z M20.7,42l-0.8-5.7c-0.7-0.2-1.5-0.6-2.4-1.1s-1.6-1-2.2-1.6L9.9,36l-3.3-5.9l4.7-3.5
	c-0.1-0.4-0.1-0.8-0.2-1.3c0-0.4-0.1-0.9-0.1-1.3s0-0.8,0.1-1.2c0-0.4,0.1-0.9,0.2-1.4l-4.7-3.5l3.3-5.8l5.2,2.3
	c0.7-0.6,1.4-1.1,2.3-1.6c0.8-0.5,1.6-0.8,2.4-1.1L20.7,6h6.7l0.8,5.8c0.8,0.3,1.6,0.7,2.4,1.1c0.8,0.4,1.5,0.9,2.2,1.5l5.4-2.3
	l3.3,5.8l-4.9,3.6c0.1,0.5,0.2,0.9,0.2,1.3s0,0.8,0,1.2v0.5c0,0.2,0,0.3,0,0.5h-8.3c0-0.2,0.1-0.3,0.1-0.5s0-0.3,0-0.5
	c0-1.3-0.5-2.5-1.4-3.4s-2-1.4-3.4-1.4c-1.3,0-2.4,0.5-3.4,1.4C19.5,21.5,19,22.7,19,24c0,1,0.3,1.8,0.8,2.6c0.5,0.8,1.2,1.4,2,1.8
	V42C21.9,42,20.7,42,20.7,42z"/>
</svg>
