<?xml version="1.0" encoding="utf-8"?>
<!-- Generator: Adobe Illustrator 26.3.1, SVG Export Plug-In . SVG Version: 6.00 Build 0)  -->
<svg version="1.1" id="Слой_1" xmlns="http://www.w3.org/2000/svg" xmlns:xlink="http://www.w3.org/1999/xlink" x="0px" y="0px"
	 viewBox="0 0 48 48" style="enable-background:new 0 0 48 48;" xml:space="preserve">
<path d="M28.3,42c-0.5,0-1-0.2-1.3-0.5c-0.4-0.4-0.5-0.8-0.5-1.3v-9.7c0-0.5,0.1-0.9,0.4-1.2c0.3-0.3,0.6-0.5,1-0.6L29,31h2.5
	l-1.3-2.5h2.5L34,31h2.5l-1.3-2.5h2.5L39,31h2.5l-1.3-2.5h1.1c0.5,0,1,0.2,1.3,0.5c0.4,0.4,0.5,0.8,0.5,1.3v9.8c0,0.5-0.2,1-0.5,1.3
	c-0.4,0.4-0.8,0.5-1.3,0.5h-13V42z M28.2,40.2h13.4v-7.5H28.2C28.2,32.8,28.2,40.2,28.2,40.2z M20.7,42l-0.8-5.7
	c-0.7-0.2-1.5-0.6-2.4-1.1s-1.6-1-2.2-1.6L9.9,36l-3.3-5.9l4.7-3.5c-0.1-0.4-0.1-0.8-0.2-1.3c0-0.4-0.1-0.9-0.1-1.3s0-0.8,0.1-1.2
	c0-0.4,0.1-0.9,0.2-1.4l-4.7-3.5l3.3-5.8l5.2,2.3c0.7-0.6,1.4-1.1,2.3-1.6c0.8-0.5,1.6-0.8,2.4-1.1L20.7,6h6.7l0.8,5.8
	c0.8,0.3,1.6,0.7,2.4,1.1c0.8,0.4,1.5,0.9,2.2,1.5l5.4-2.3l3.3,5.8l-4.9,3.6c0.1,0.5,0.2,0.9,0.2,1.3s0,0.8,0,1.2h-8.2l0,0
	c0-1.3-0.5-2.4-1.4-3.4c-0.9-0.9-2-1.4-3.3-1.4s-2.4,0.5-3.4,1.4c-0.9,0.9-1.4,2-1.4,3.4c0,1,0.3,1.8,0.8,2.6c0.5,0.8,1.2,1.4,2,1.7
	V42H20.7z"/>
</svg>
