<?xml version="1.0" encoding="utf-8"?>
<!-- Generator: Adobe Illustrator 26.3.1, SVG Export Plug-In . SVG Version: 6.00 Build 0)  -->
<svg version="1.1" id="Слой_1" xmlns="http://www.w3.org/2000/svg" xmlns:xlink="http://www.w3.org/1999/xlink" x="0px" y="0px"
	 viewBox="0 0 48 48" style="enable-background:new 0 0 48 48;" xml:space="preserve">
<path d="M18.2,29.5h13.3c0.8,0,1.4-0.2,1.9-0.7s0.8-1.1,0.8-1.9c0-0.7-0.3-1.3-0.8-1.8s-1.2-0.7-1.9-0.7h-1.3c0-1.7-0.5-3.1-1.5-4.4
	c-1-1.2-2.3-1.9-3.8-1.9c-1.3,0-2.5,0.4-3.5,1.2c-1,0.8-1.6,1.8-1.9,3.1h-1.4c-1,0-1.8,0.3-2.4,1c-0.7,0.7-1,1.5-1,2.5
	s0.3,1.9,1,2.6C16.3,29.2,17.2,29.5,18.2,29.5z M8.8,38c-0.8,0-1.4-0.3-2-0.8C6.3,36.7,6,36,6,35.2V12.8c0-0.8,0.3-1.4,0.8-2
	C7.3,10.3,8,10,8.8,10h30.5c0.8,0,1.4,0.3,2,0.8c0.5,0.5,0.8,1.2,0.8,2v22.5c0,0.8-0.3,1.4-0.8,2c-0.5,0.5-1.2,0.8-2,0.8L8.8,38
	L8.8,38z"/>
</svg>
