<?xml version="1.0" encoding="utf-8"?>
<!-- Generator: Adobe Illustrator 26.3.1, SVG Export Plug-In . SVG Version: 6.00 Build 0)  -->
<svg version="1.1" id="Слой_1" xmlns="http://www.w3.org/2000/svg" xmlns:xlink="http://www.w3.org/1999/xlink" x="0px" y="0px"
	 viewBox="0 0 48 48" style="enable-background:new 0 0 48 48;" xml:space="preserve">
<path d="M24,7.3c-0.9,0-1.7-0.3-2.3-0.9c-0.6-0.6-0.9-1.4-0.9-2.3s0.3-1.7,0.9-2.3s1.4-0.9,2.3-0.9s1.7,0.3,2.3,0.9
	c0.6,0.6,0.9,1.4,0.9,2.3s-0.3,1.7-0.9,2.3C25.7,7,24.9,7.3,24,7.3z M20,37.8V12.5c-2.1-0.2-4.2-0.4-6.2-0.7s-3.9-0.6-5.6-1.1
	l0.4-1.5c2.5,0.6,5.1,1.1,7.6,1.3c2.5,0.3,5.1,0.4,7.8,0.4s5.3-0.1,7.8-0.4c2.5-0.3,5-0.7,7.6-1.3l0.3,1.5c-1.7,0.4-3.6,0.8-5.6,1.1
	s-4,0.5-6.2,0.7v25.2h-1.5V25.6h-4.9v12.2C21.5,37.8,20,37.8,20,37.8z M15.9,47.5c-0.4,0-0.8-0.1-1-0.4c-0.3-0.3-0.4-0.6-0.4-1.1
	c0-0.4,0.1-0.8,0.4-1.1c0.3-0.3,0.6-0.4,1.1-0.4c0.4,0,0.8,0.1,1.1,0.4c0.3,0.3,0.4,0.6,0.4,1.1c0,0.4-0.1,0.8-0.4,1.1
	C16.7,47.4,16.3,47.5,15.9,47.5z M24,47.5c-0.4,0-0.8-0.1-1.1-0.4c-0.3-0.3-0.4-0.6-0.4-1.1c0-0.4,0.1-0.8,0.4-1.1s0.6-0.4,1.1-0.4
	s0.8,0.1,1.1,0.4c0.3,0.3,0.4,0.6,0.4,1.1c0,0.4-0.1,0.8-0.4,1.1C24.8,47.4,24.4,47.5,24,47.5z M32.1,47.5c-0.4,0-0.8-0.1-1.1-0.4
	c-0.3-0.3-0.4-0.6-0.4-1.1c0-0.4,0.1-0.8,0.4-1.1s0.6-0.4,1.1-0.4c0.4,0,0.8,0.1,1.1,0.4c0.3,0.3,0.4,0.6,0.4,1.1
	c0,0.4-0.1,0.8-0.4,1.1C32.9,47.4,32.5,47.5,32.1,47.5z"/>
</svg>
