<?xml version="1.0" encoding="utf-8"?>
<!-- Generator: Adobe Illustrator 26.3.1, SVG Export Plug-In . SVG Version: 6.00 Build 0)  -->
<svg version="1.1" id="Слой_1" xmlns="http://www.w3.org/2000/svg" xmlns:xlink="http://www.w3.org/1999/xlink" x="0px" y="0px"
	 viewBox="0 0 48 48" style="enable-background:new 0 0 48 48;" xml:space="preserve">
<path d="M23.9,25.9c-0.5,0-0.9-0.2-1.3-0.5c-0.4-0.4-0.5-0.8-0.5-1.3s0.2-1,0.5-1.3c0.4-0.4,0.8-0.6,1.3-0.6s1,0.2,1.3,0.6
	c0.4,0.4,0.6,0.8,0.6,1.3s-0.2,1-0.6,1.3C24.9,25.7,24.4,25.9,23.9,25.9z M23.9,40c-4.2,0-7.9-1.4-10.9-4.3c-3.1-2.9-4.7-6.4-5-10.6
	h1.5c0.3,3.8,1.8,6.9,4.6,9.5c2.7,2.6,6,3.9,9.8,3.9c4,0,7.4-1.4,10.3-4.2C37,31.4,38.4,28,38.4,24s-1.4-7.4-4.2-10.3
	c-2.8-2.8-6.2-4.2-10.3-4.2c-2.1,0-4,0.4-5.9,1.3c-1.8,0.9-3.5,2-4.9,3.5H18v1.5h-7.6V8.2H12v5.1c1.6-1.7,3.4-3,5.5-3.9
	c2-0.9,4.2-1.4,6.4-1.4s4.3,0.4,6.2,1.3c1.9,0.8,3.6,2,5.1,3.4s2.6,3.1,3.4,5.1c0.8,1.9,1.3,4,1.3,6.2s-0.4,4.3-1.3,6.2
	c-0.8,1.9-2,3.6-3.4,5.1s-3.1,2.6-5.1,3.4S26.1,40,23.9,40z"/>
</svg>
