<?xml version="1.0" encoding="utf-8"?>
<!-- Generator: Adobe Illustrator 26.3.1, SVG Export Plug-In . SVG Version: 6.00 Build 0)  -->
<svg version="1.1" id="Слой_1" xmlns="http://www.w3.org/2000/svg" xmlns:xlink="http://www.w3.org/1999/xlink" x="0px" y="0px"
	 viewBox="0 0 48 48" style="enable-background:new 0 0 48 48;" xml:space="preserve">
<path d="M15.8,47.5c-0.4,0-0.7-0.1-0.9-0.4c-0.3-0.3-0.4-0.6-0.4-0.9c0-0.4,0.1-0.7,0.4-0.9c0.3-0.3,0.6-0.4,0.9-0.4
	c0.3,0,0.7,0.1,0.9,0.4c0.3,0.3,0.4,0.6,0.4,0.9c0,0.4-0.1,0.7-0.4,0.9C16.5,47.4,16.2,47.5,15.8,47.5z M24,47.5
	c-0.3,0-0.6-0.1-0.9-0.4c-0.3-0.3-0.4-0.6-0.4-0.9c0-0.3,0.1-0.7,0.4-0.9c0.3-0.3,0.6-0.4,0.9-0.4s0.7,0.1,0.9,0.4
	c0.3,0.3,0.4,0.6,0.4,0.9c0,0.4-0.1,0.7-0.4,0.9C24.7,47.4,24.4,47.5,24,47.5z M32.1,47.5c-0.4,0-0.7-0.1-0.9-0.4
	c-0.3-0.3-0.4-0.6-0.4-0.9c0-0.4,0.1-0.7,0.4-0.9c0.3-0.3,0.6-0.4,0.9-0.4c0.4,0,0.7,0.1,0.9,0.4s0.4,0.6,0.4,0.9
	c0,0.4-0.1,0.7-0.4,0.9C32.8,47.4,32.5,47.5,32.1,47.5z M24,25.5c-1,0-1.9-0.4-2.6-1.1s-1-1.6-1-2.6V9.5c0-1,0.3-1.8,1-2.5
	C22.2,6.3,23,6,24,6s1.8,0.3,2.5,1s1,1.5,1,2.5v12.2c0,1-0.3,1.9-1,2.6C25.9,25.1,25,25.5,24,25.5z M23.2,41v-7.3
	c-3.1-0.3-5.8-1.5-8-3.8s-3.3-5-3.3-8.1h1.5c0,2.9,1,5.4,3.1,7.4c2,2,4.5,3,7.4,3s5.4-1,7.4-3s3.1-4.5,3.1-7.4H36
	c0,3.1-1.1,5.9-3.3,8.1c-2.2,2.3-4.8,3.6-8,3.8V41H23.2z"/>
</svg>
