<?xml version="1.0" encoding="utf-8"?>
<!-- Generator: Adobe Illustrator 26.3.1, SVG Export Plug-In . SVG Version: 6.00 Build 0)  -->
<svg version="1.1" id="Слой_1" xmlns="http://www.w3.org/2000/svg" xmlns:xlink="http://www.w3.org/1999/xlink" x="0px" y="0px"
	 viewBox="0 0 48 48" style="enable-background:new 0 0 48 48;" xml:space="preserve">
<path d="M36.4,16.6l-1.8-3.9l-3.9-1.8L34.6,9l1.8-3.8L38.2,9l3.8,1.9l-3.8,1.8L36.4,16.6z M40.5,31.4l-1.3-2.8l-2.8-1.3l2.8-1.4
	l1.3-2.8l1.3,2.8l2.8,1.4l-2.8,1.3L40.5,31.4z M16.1,42l-0.4-4c-0.6-0.2-1.2-0.5-1.9-0.8s-1.3-0.8-1.7-1.2l-3.6,1.5l-2.9-4.9
	l3.3-2.3c-0.2-0.8-0.2-1.5-0.2-2.1s0.1-1.3,0.2-2L5.6,24l2.8-5l3.6,1.5c0.4-0.4,1-0.8,1.7-1.2c0.7-0.4,1.3-0.6,1.9-0.8l0.5-4.1h5.7
	l0.5,4.1c0.6,0.2,1.2,0.4,1.9,0.8s1.3,0.8,1.7,1.2l3.6-1.5l3,5l-3.4,2.2c0.2,0.8,0.3,1.4,0.3,2s-0.1,1.3-0.3,2.1l3.4,2.3l-3,4.9
	L26,36c-0.4,0.4-1,0.8-1.7,1.2s-1.4,0.6-1.9,0.8l-0.5,4H16.1z M19,33c1.4,0,2.5-0.5,3.5-1.4c0.9-0.9,1.4-2.1,1.4-3.4
	s-0.5-2.5-1.4-3.4s-2.1-1.4-3.5-1.4c-1.3,0-2.5,0.5-3.4,1.4s-1.4,2.1-1.4,3.4c0,1.4,0.5,2.5,1.4,3.4C16.5,32.6,17.7,33,19,33z"/>
</svg>
