<?xml version="1.0" encoding="utf-8"?>
<!-- Generator: Adobe Illustrator 26.3.1, SVG Export Plug-In . SVG Version: 6.00 Build 0)  -->
<svg version="1.1" id="Слой_1" xmlns="http://www.w3.org/2000/svg" xmlns:xlink="http://www.w3.org/1999/xlink" x="0px" y="0px"
	 viewBox="0 0 48 48" style="enable-background:new 0 0 48 48;" xml:space="preserve">
<path d="M24,42c-2.5,0-4.8-0.5-7-1.4s-4.1-2.2-5.7-3.9s-3-3.5-3.9-5.7S6,26.5,6,24s0.5-4.9,1.4-7c0.9-2.2,2.2-4.1,3.8-5.7
	s3.5-2.9,5.7-3.8C19.2,6.5,21.5,6,24,6s4.8,0.5,7,1.4s4.1,2.2,5.7,3.8c1.6,1.6,2.9,3.5,3.8,5.7c0.9,2.2,1.4,4.5,1.4,7
	s-0.5,4.8-1.4,7s-2.2,4.1-3.8,5.7s-3.5,2.9-5.7,3.8C28.8,41.5,26.5,42,24,42z M14.8,24.8c0.5,0,1-0.2,1.3-0.5
	c0.4-0.4,0.5-0.8,0.5-1.3s-0.2-1-0.5-1.3c-0.4-0.4-0.8-0.5-1.3-0.5s-1,0.2-1.3,0.5C13.1,22.1,13,22.5,13,23s0.2,1,0.5,1.3
	C13.8,24.6,14.3,24.8,14.8,24.8z M33.2,24.8c0.5,0,1-0.2,1.3-0.5c0.4-0.4,0.5-0.8,0.5-1.3s-0.2-1-0.5-1.3c-0.4-0.4-0.8-0.5-1.3-0.5
	s-1,0.2-1.3,0.5c-0.4,0.4-0.5,0.8-0.5,1.3s0.2,1,0.5,1.3C32.3,24.6,32.7,24.8,33.2,24.8z M17.9,34.2c0.5,0,1-0.2,1.3-0.5
	c0.4-0.4,0.5-0.8,0.5-1.3s-0.2-0.9-0.5-1.3c-0.4-0.4-0.8-0.5-1.3-0.5s-1,0.2-1.3,0.5c-0.4,0.4-0.5,0.8-0.5,1.3s0.2,1,0.5,1.3
	S17.3,34.2,17.9,34.2z M30.2,34.2c0.5,0,1-0.2,1.3-0.5c0.4-0.4,0.5-0.8,0.5-1.3s-0.2-0.9-0.5-1.3c-0.4-0.4-0.8-0.5-1.3-0.5
	s-1,0.2-1.3,0.5c-0.4,0.4-0.5,0.8-0.5,1.3s0.2,1,0.5,1.3S29.6,34.2,30.2,34.2z M20.9,16.6h6.2c0.5,0,0.9-0.2,1.3-0.5
	c0.4-0.4,0.6-0.8,0.6-1.3s-0.2-1-0.6-1.4s-0.8-0.6-1.3-0.6h-6.2c-0.5,0-0.9,0.2-1.3,0.6c-0.4,0.4-0.6,0.9-0.6,1.4s0.2,0.9,0.6,1.3
	C20,16.4,20.4,16.6,20.9,16.6z"/>
</svg>
