<?xml version="1.0" encoding="utf-8"?>
<!-- Generator: Adobe Illustrator 26.3.1, SVG Export Plug-In . SVG Version: 6.00 Build 0)  -->
<svg version="1.1" id="Слой_1" xmlns="http://www.w3.org/2000/svg" xmlns:xlink="http://www.w3.org/1999/xlink" x="0px" y="0px"
	 viewBox="0 0 48 48" style="enable-background:new 0 0 48 48;" xml:space="preserve">
<path d="M29.2,43.7c-0.7,0-1.3-0.2-1.8-0.7s-0.7-1.1-0.7-1.8V29.3c0-0.7,0.2-1.3,0.7-1.8s1.1-0.7,1.8-0.7H41c0.7,0,1.3,0.2,1.8,0.7
	s0.7,1.1,0.7,1.8v11.8c0,0.7-0.2,1.3-0.7,1.8s-1.1,0.7-1.8,0.7C41.1,43.7,29.2,43.7,29.2,43.7z M29.2,41.2H41v-1.4
	c-0.7-0.9-1.6-1.6-2.6-2.1s-2.1-0.8-3.3-0.8s-2.3,0.3-3.4,0.8c-1,0.5-1.9,1.2-2.6,2.1C29.2,39.8,29.2,41.2,29.2,41.2z M35.1,35.2
	c0.7,0,1.3-0.2,1.8-0.7s0.7-1.1,0.7-1.8s-0.2-1.3-0.7-1.8s-1.1-0.7-1.8-0.7s-1.3,0.2-1.8,0.7s-0.7,1.1-0.7,1.8s0.2,1.3,0.7,1.8
	S34.4,35.2,35.1,35.2z M20.7,42l-0.8-5.7c-0.7-0.2-1.5-0.6-2.4-1.1s-1.6-1-2.2-1.6L9.9,36l-3.3-5.9l4.7-3.5
	c-0.1-0.4-0.1-0.8-0.2-1.3c0-0.4-0.1-0.9-0.1-1.3s0-0.8,0.1-1.3c0-0.4,0.1-0.9,0.2-1.4l-4.7-3.5L9.9,12l5.2,2.3
	c0.7-0.6,1.4-1.1,2.3-1.6c0.8-0.5,1.6-0.8,2.4-1.1L20.7,6h6.7l0.8,5.8c0.8,0.3,1.6,0.7,2.4,1.1c0.8,0.4,1.5,0.9,2.2,1.5l5.4-2.3
	l3.3,5.8l-5.1,3.8c0,0.1,0,0.1,0,0.2s0,0.1,0,0.2h-8.2c-0.4-0.8-1-1.5-1.7-2c-0.8-0.5-1.6-0.8-2.6-0.8c-1.3,0-2.4,0.5-3.4,1.4
	c-0.9,0.9-1.4,2.1-1.4,3.4c0,1,0.3,1.9,0.8,2.6c0.5,0.8,1.2,1.3,2,1.7V42H20.7z"/>
</svg>
