<?xml version="1.0" encoding="utf-8"?>
<!-- Generator: Adobe Illustrator 26.3.1, SVG Export Plug-In . SVG Version: 6.00 Build 0)  -->
<svg version="1.1" id="Слой_1" xmlns="http://www.w3.org/2000/svg" xmlns:xlink="http://www.w3.org/1999/xlink" x="0px" y="0px"
	 viewBox="0 0 48 48" style="enable-background:new 0 0 48 48;" xml:space="preserve">
<path d="M4,24c0-2.8,0.5-5.4,1.6-7.8c1-2.4,2.5-4.6,4.3-6.4s3.9-3.2,6.3-4.3c2.4-1,5-1.6,7.8-1.6s5.4,0.5,7.8,1.6
	c2.4,1,4.6,2.5,6.4,4.3c1.8,1.8,3.2,3.9,4.3,6.4c1,2.4,1.6,5,1.6,7.8h-1.5c0-2.6-0.5-5-1.5-7.2s-2.3-4.2-4-5.9s-3.6-3-5.9-3.9
	c-2.3-1-4.6-1.4-7.2-1.4c-2.5,0-4.9,0.5-7.2,1.4c-2.2,1-4.2,2.3-5.9,3.9c-1.7,1.7-3,3.6-4,5.9C6,19,5.5,21.4,5.5,24H4z M12.4,24
	c0-3.3,1.1-6,3.4-8.3s5-3.4,8.2-3.4s6,1.1,8.3,3.4s3.4,5,3.4,8.3h-1.5c0-2.8-1-5.2-3-7.2s-4.4-3-7.2-3s-5.2,1-7.2,3
	s-2.9,4.4-2.9,7.2H12.4z M18,43.4l-1.1-1.1l6.3-6.3v-8.2c-0.9-0.3-1.6-0.8-2.2-1.4c-0.6-0.7-0.8-1.4-0.8-2.3c0-1.1,0.4-2,1.1-2.7
	s1.6-1.1,2.7-1.1s2,0.4,2.7,1.1s1.1,1.6,1.1,2.7c0,0.9-0.3,1.6-0.8,2.3c-0.6,0.7-1.3,1.2-2.2,1.4V36l6.3,6.3L30,43.4l-6-6L18,43.4z"
	/>
</svg>
