<?xml version="1.0" encoding="utf-8"?>
<!-- Generator: Adobe Illustrator 26.3.1, SVG Export Plug-In . SVG Version: 6.00 Build 0)  -->
<svg version="1.1" id="Слой_1" xmlns="http://www.w3.org/2000/svg" xmlns:xlink="http://www.w3.org/1999/xlink" x="0px" y="0px"
	 viewBox="0 0 48 48" style="enable-background:new 0 0 48 48;" xml:space="preserve">
<path d="M23.2,23.5V7.3h1.5v16.1C24.8,23.5,23.2,23.5,23.2,23.5z M24,35.2c-3.8,0-7.1-1.3-9.7-4s-4-5.9-4-9.7c0-2.3,0.6-4.5,1.7-6.5
	s2.6-3.7,4.6-5.1l1.1,1.1c-1.7,1.2-3.2,2.8-4.2,4.6c-1.1,1.8-1.6,3.8-1.6,5.9c0,3.4,1.2,6.2,3.6,8.6s5.3,3.6,8.6,3.6
	s6.2-1.2,8.6-3.6s3.6-5.2,3.6-8.6c0-2.1-0.5-4.1-1.5-6s-2.4-3.4-4.2-4.4l1.1-1.1c1.9,1.4,3.4,3.1,4.5,5.1s1.7,4.2,1.7,6.5
	c0,3.8-1.3,7.1-4,9.7C31,33.8,27.8,35.2,24,35.2z M15.8,47.6c-0.4,0-0.8-0.2-1.1-0.5s-0.5-0.7-0.5-1.1c0-0.4,0.2-0.8,0.5-1.1
	s0.7-0.4,1.1-0.4c0.5,0,0.8,0.2,1.1,0.5s0.4,0.7,0.4,1.1c0,0.5-0.1,0.8-0.4,1.1C16.6,47.4,16.2,47.6,15.8,47.6z M24,47.6
	c-0.5,0-0.8-0.2-1.1-0.5c-0.3-0.3-0.4-0.7-0.4-1.1c0-0.4,0.1-0.8,0.4-1.1s0.7-0.5,1.1-0.5s0.8,0.2,1.1,0.5c0.3,0.3,0.5,0.7,0.5,1.1
	c0,0.5-0.2,0.8-0.5,1.1C24.8,47.4,24.4,47.6,24,47.6z M32.2,47.6c-0.5,0-0.8-0.2-1.1-0.5c-0.3-0.3-0.4-0.7-0.4-1.1
	c0-0.4,0.1-0.8,0.4-1.1s0.7-0.5,1.1-0.5c0.4,0,0.8,0.2,1.1,0.5s0.5,0.7,0.5,1.1c0,0.5-0.2,0.8-0.5,1.1C33,47.4,32.7,47.6,32.2,47.6z
	"/>
</svg>
