<?xml version="1.0" encoding="utf-8"?>
<!-- Generator: Adobe Illustrator 26.3.1, SVG Export Plug-In . SVG Version: 6.00 Build 0)  -->
<svg version="1.1" id="Слой_1" xmlns="http://www.w3.org/2000/svg" xmlns:xlink="http://www.w3.org/1999/xlink" x="0px" y="0px"
	 viewBox="0 0 48 48" style="enable-background:new 0 0 48 48;" xml:space="preserve">
<path d="M40.2,18.8c-0.2,0-0.4-0.1-0.5-0.2s-0.2-0.3-0.2-0.5s0.1-0.4,0.2-0.6c0.1-0.1,0.3-0.2,0.5-0.2s0.4,0.1,0.6,0.2
	c0.1,0.1,0.2,0.3,0.2,0.6c0,0.2-0.1,0.4-0.2,0.5C40.6,18.7,40.5,18.8,40.2,18.8z M21,43v-8.9l-6.4,6.4l-1.1-1.1l7.5-7.5V27h-4.9
	l-7.5,7.5l-1.1-1.1l6.4-6.4H5v-1.5h8.9L7.5,19l1.1-1l7.5,7.5H21v-4.9L13.5,13l1.1-1.1l6.4,6.4V9.5h1.5v8.9L29,12l1,1l-7.5,7.5v4.9
	h16V27h-8.9l6.4,6.4l-1,1.1L27.5,27h-4.9v4.9l7.5,7.5L29,40.5l-6.4-6.4V43H21z M39.5,13.2V5H41v8.2H39.5z"/>
</svg>
