<?xml version="1.0" encoding="utf-8"?>
<!-- Generator: Adobe Illustrator 26.3.1, SVG Export Plug-In . SVG Version: 6.00 Build 0)  -->
<svg version="1.1" id="Слой_1" xmlns="http://www.w3.org/2000/svg" xmlns:xlink="http://www.w3.org/1999/xlink" x="0px" y="0px"
	 viewBox="0 0 48 48" style="enable-background:new 0 0 48 48;" xml:space="preserve">
<path d="M18.5,30.5c-3.3,0-6.2-1.2-8.5-3.5s-3.5-5.2-3.5-8.5S7.7,12.3,10,10s5.2-3.5,8.5-3.5S24.7,7.7,27,10s3.5,5.2,3.5,8.5
	S29.3,24.7,27,27C24.6,29.3,21.8,30.5,18.5,30.5z M17.5,38.8v-3.3c0.2,0,0.3,0,0.5,0h0.5c4.7,0,8.7-1.7,12.1-5c3.3-3.3,5-7.4,5-12.1
	V18c0-0.2,0-0.3,0-0.5h3.3c0.7,0,1.4,0.3,1.9,0.8c0.6,0.6,0.8,1.2,0.8,1.9v18.5c0,0.7-0.3,1.4-0.8,1.9c-0.6,0.6-1.2,0.8-1.9,0.8
	H20.3c-0.7,0-1.4-0.3-1.9-0.8C17.8,40.2,17.5,39.5,17.5,38.8z"/>
</svg>
