<?xml version="1.0" encoding="utf-8"?>
<!-- Generator: Adobe Illustrator 26.3.1, SVG Export Plug-In . SVG Version: 6.00 Build 0)  -->
<svg version="1.1" id="Слой_1" xmlns="http://www.w3.org/2000/svg" xmlns:xlink="http://www.w3.org/1999/xlink" x="0px" y="0px"
	 viewBox="0 0 48 48" style="enable-background:new 0 0 48 48;" xml:space="preserve">
<path d="M20.1,46c-2.5,0-4.8-0.5-7-1.4S9,42.4,7.4,40.7s-3-3.5-4-5.7C2.5,32.8,2,30.5,2,28s0.5-4.8,1.4-7s2.2-4.1,3.9-5.7
	c1.6-1.6,3.5-2.9,5.7-3.9c2.2-0.9,4.5-1.4,7-1.4h0.4c0.1,0,0.2,0,0.4,0v1.5c-0.1,0-0.3,0-0.4,0H20c-4.6,0-8.5,1.6-11.7,4.8
	S3.5,23.4,3.5,28c0,4.5,1.6,8.4,4.8,11.6c3.2,3.2,7.1,4.8,11.7,4.8c4.5,0,8.4-1.6,11.6-4.8s4.8-7.1,4.8-11.6H38c0,2.5-0.5,4.8-1.4,7
	s-2.2,4.1-3.9,5.7s-3.5,2.9-5.7,3.9C24.9,45.5,22.5,46,20.1,46z M27.6,36.7l-8.4-8.4V18.2h1.5v9.5l7.9,7.9L27.6,36.7z M43.9,22.9
	c-0.9-4.6-3.1-8.6-6.3-12c-3.3-3.4-7.2-5.6-11.7-6.7V2.6c5,1.1,9.3,3.5,12.9,7.2c3.6,3.7,5.8,8,6.8,13.1
	C45.5,22.9,43.9,22.9,43.9,22.9z M35.6,22.9c-0.8-2.4-2-4.5-3.7-6.3s-3.7-3.1-6.1-3.9V11c2.8,0.9,5.2,2.4,7.2,4.5s3.4,4.6,4.2,7.4
	H35.6z"/>
</svg>
