<?xml version="1.0" encoding="utf-8"?>
<!-- Generator: Adobe Illustrator 26.3.1, SVG Export Plug-In . SVG Version: 6.00 Build 0)  -->
<svg version="1.1" id="Слой_1" xmlns="http://www.w3.org/2000/svg" xmlns:xlink="http://www.w3.org/1999/xlink" x="0px" y="0px"
	 viewBox="0 0 48 48" style="enable-background:new 0 0 48 48;" xml:space="preserve">
<path d="M26.1,41.9v-1.5c1.6-0.2,3-0.6,4.4-1.2c1.4-0.6,2.6-1.3,3.7-2.1l1,1.1c-1.3,1.1-2.7,1.9-4.2,2.5
	C29.4,41.2,27.8,41.6,26.1,41.9z M38.2,35.2l-1.1-1c0.9-1.1,1.6-2.4,2.2-3.7c0.6-1.3,0.9-2.8,1.2-4.3H42c-0.2,1.6-0.6,3.2-1.3,4.8
	C40,32.4,39.2,33.8,38.2,35.2z M40.4,21.9c-0.2-1.5-0.6-3-1.2-4.3c-0.6-1.3-1.3-2.6-2.2-3.7l1.2-1c1.1,1.6,2,3,2.5,4.3
	s0.9,2.9,1.2,4.8C41.9,21.9,40.4,21.9,40.4,21.9z M21.9,41.9c-4.5-0.6-8.3-2.5-11.3-5.9s-4.5-7.4-4.5-12s1.5-8.6,4.5-12
	s6.8-5.4,11.3-5.9v1.5c-4.1,0.6-7.5,2.4-10.2,5.5S7.6,19.9,7.6,24s1.4,7.8,4.1,10.8c2.7,3.1,6.1,4.9,10.2,5.5V41.9z M34.2,11
	c-1.2-0.9-2.6-1.6-3.9-2.2c-1.4-0.6-2.7-1-4.1-1.2V6.1c1.6,0.2,3.1,0.7,4.6,1.3c1.5,0.6,2.9,1.4,4.3,2.4C35.1,9.8,34.2,11,34.2,11z
	 M24,32.3c-1.6-1.4-3.1-2.8-4.5-4.4s-2.1-3.4-2.1-5.5c0-1.9,0.6-3.4,1.9-4.8c1.3-1.3,2.8-2,4.7-2c1.8,0,3.4,0.7,4.7,2
	c1.3,1.3,1.9,2.9,1.9,4.8c0,2.1-0.7,3.9-2.1,5.5C27.1,29.5,25.6,30.9,24,32.3z M24,24c0.5,0,0.9-0.2,1.3-0.5
	c0.3-0.3,0.5-0.8,0.5-1.3s-0.2-0.9-0.5-1.3s-0.8-0.5-1.3-0.5s-0.9,0.2-1.3,0.5c-0.3,0.4-0.5,0.8-0.5,1.3s0.2,0.9,0.5,1.3
	C23.1,23.9,23.5,24,24,24z"/>
</svg>
