<?xml version="1.0" encoding="utf-8"?>
<!-- Generator: Adobe Illustrator 26.3.1, SVG Export Plug-In . SVG Version: 6.00 Build 0)  -->
<svg version="1.1" id="Слой_1" xmlns="http://www.w3.org/2000/svg" xmlns:xlink="http://www.w3.org/1999/xlink" x="0px" y="0px"
	 viewBox="0 0 48 48" style="enable-background:new 0 0 48 48;" xml:space="preserve">
<path d="M11.8,27.7c2.2,0,4,0.8,5.5,2.3s2.3,3.3,2.3,5.5s-0.8,4-2.3,5.5s-3.3,2.3-5.5,2.3s-4-0.8-5.5-2.3S4,37.6,4,35.5
	c0-2.2,0.8-4,2.3-5.5C7.8,28.4,9.6,27.7,11.8,27.7z M11.8,36.5l3.4,3.4l1-1l-3.5-3.5l3.5-3.5l-1-1l-3.5,3.5L8.3,31l-1,1l3.5,3.5
	L7.3,39l1,1L11.8,36.5z M36.2,14.7c-0.7,0-1.4-0.1-2.1-0.4c-0.7-0.3-1.2-0.7-1.7-1.3l-16,9.2c0.1,0.3,0.2,0.5,0.2,0.8s0,0.6,0,0.9
	c-0.7-0.3-1.5-0.6-2.3-0.8c-0.8-0.2-1.7-0.3-2.6-0.3c-0.8,0-1.7,0.1-2.4,0.2c-0.8,0.2-1.6,0.4-2.3,0.7c0.1-1.3,0.5-2.4,1.5-3.3
	c0.9-0.9,2-1.4,3.4-1.4c0.7,0,1.4,0.2,2.1,0.5c0.7,0.3,1.2,0.8,1.7,1.4l16-9.4c-0.1-0.3-0.2-0.6-0.3-0.9c0-0.3-0.1-0.6-0.1-0.9
	c0-1.3,0.5-2.5,1.4-3.4c1-0.8,2.1-1.3,3.5-1.3c1.3,0,2.5,0.5,3.4,1.4c1,1,1.4,2.1,1.4,3.4c0,1.4-0.5,2.5-1.4,3.4
	C38.6,14.2,37.5,14.7,36.2,14.7z M36.2,43c-1.3,0-2.5-0.5-3.4-1.4c-0.9-1-1.4-2.1-1.4-3.4c0-0.3,0-0.6,0.1-0.9
	c0-0.3,0.1-0.6,0.3-0.9L24,31.8c-0.2-0.4-0.3-0.8-0.5-1.2c-0.2-0.4-0.4-0.8-0.7-1.2l9.8,5.7c0.5-0.5,1-0.9,1.7-1.2
	c0.6-0.3,1.3-0.5,2.1-0.5c1.3,0,2.5,0.5,3.4,1.4c1,0.9,1.4,2.1,1.4,3.4c0,1.3-0.5,2.5-1.4,3.4S37.5,43,36.2,43z"/>
</svg>
