<?xml version="1.0" encoding="utf-8"?>
<!-- Generator: Adobe Illustrator 26.3.1, SVG Export Plug-In . SVG Version: 6.00 Build 0)  -->
<svg version="1.1" id="Слой_1" xmlns="http://www.w3.org/2000/svg" xmlns:xlink="http://www.w3.org/1999/xlink" x="0px" y="0px"
	 viewBox="0 0 48 48" style="enable-background:new 0 0 48 48;" xml:space="preserve">
<path d="M15.5,28.8V18c0-0.8,0.3-1.4,0.8-2c0.5-0.5,1.2-0.8,1.9-0.8h18.5l-6.4-6.4l1.1-1.1l8.3,8.2l-8.3,8.3l-1.1-1.1l6.4-6.4H18.2
	c-0.4,0-0.7,0.1-0.9,0.3c-0.2,0.3-0.3,0.6-0.3,1v10.8H15.5z M10.8,40c-0.7,0-1.4-0.3-1.9-0.8S8,38,8,37.2V8.8h1.5v28.5
	c0,0.4,0.1,0.7,0.3,0.9s0.5,0.3,0.9,0.3h22.5c0.4,0,0.7-0.1,0.9-0.3s0.3-0.5,0.3-0.9v-8.5H36v8.5c0,0.7-0.3,1.4-0.8,1.9
	c-0.6,0.5-1.2,0.8-2,0.8H10.8z"/>
</svg>
