<?xml version="1.0" encoding="utf-8"?>
<!-- Generator: Adobe Illustrator 26.3.1, SVG Export Plug-In . SVG Version: 6.00 Build 0)  -->
<svg version="1.1" id="Слой_1" xmlns="http://www.w3.org/2000/svg" xmlns:xlink="http://www.w3.org/1999/xlink" x="0px" y="0px"
	 viewBox="0 0 48 48" style="enable-background:new 0 0 48 48;" xml:space="preserve">
<path d="M10.7,25.7c-0.6,0-1-0.2-1.4-0.6s-0.6-0.9-0.6-1.5V5c0-0.6,0.2-1.1,0.6-1.5C9.6,3.2,10.1,3,10.7,3h26.7
	c0.6,0,1.1,0.2,1.5,0.6C39.2,4,39.4,4.4,39.4,5v18.7c0,0.6-0.2,1-0.6,1.5c-0.4,0.4-0.9,0.6-1.5,0.6H10.7V25.7z M11.8,12.8h10.7V6.1
	h-9.7c-0.3,0-0.5,0.1-0.7,0.3c-0.2,0.2-0.3,0.4-0.3,0.7V12.8z M25.6,12.8h10.7V7c0-0.3-0.1-0.5-0.3-0.7S35.6,6,35.3,6h-9.7
	C25.6,6,25.6,12.8,25.6,12.8z M22.4,22.6v-6.7H11.8v5.7c0,0.3,0.1,0.5,0.3,0.7s0.4,0.3,0.7,0.3C12.7,22.6,22.4,22.6,22.4,22.6z
	 M25.6,22.6h9.7c0.3,0,0.5-0.1,0.7-0.3c0.2-0.2,0.3-0.4,0.3-0.7v-5.7H25.6C25.6,15.9,25.6,22.6,25.6,22.6z M13.9,43.2l-7.4-7.4
	l7.4-7.4l2.2,2.2l-3.6,3.6h27.2v3.2H12.5l3.6,3.6L13.9,43.2z"/>
</svg>
