<?xml version="1.0" encoding="utf-8"?>
<!-- Generator: Adobe Illustrator 26.3.1, SVG Export Plug-In . SVG Version: 6.00 Build 0)  -->
<svg version="1.1" id="Слой_1" xmlns="http://www.w3.org/2000/svg" xmlns:xlink="http://www.w3.org/1999/xlink" x="0px" y="0px"
	 viewBox="0 0 48 48" style="enable-background:new 0 0 48 48;" xml:space="preserve">
<path d="M10.8,40c-0.7,0-1.4-0.3-1.9-0.8C8.3,38.6,8,38,8,37.2v-6.3h32v6.3c0,0.7-0.3,1.4-0.8,1.9c-0.6,0.6-1.2,0.9-2,0.9H10.8z
	 M32,29.4V8h5.2c0.7,0,1.4,0.3,1.9,0.8c0.6,0.6,0.9,1.2,0.9,2v18.6C40,29.4,32,29.4,32,29.4z M8,29.4V10.8c0-0.8,0.3-1.4,0.8-2
	C9.4,8.3,10,8,10.8,8H16v21.4H8z M17.5,29.4V8h12.9v21.4C30.5,29.4,17.5,29.4,17.5,29.4z"/>
</svg>
