<?xml version="1.0" encoding="utf-8"?>
<!-- Generator: Adobe Illustrator 26.3.1, SVG Export Plug-In . SVG Version: 6.00 Build 0)  -->
<svg version="1.1" id="Слой_1" xmlns="http://www.w3.org/2000/svg" xmlns:xlink="http://www.w3.org/1999/xlink" x="0px" y="0px"
	 viewBox="0 0 48 48" style="enable-background:new 0 0 48 48;" xml:space="preserve">
<path d="M24,30.2c2.6-2.4,4.2-4,5-4.9c0.7-0.9,1.1-1.8,1.1-2.8c0-0.9-0.3-1.7-1-2.3c-0.7-0.6-1.4-1-2.4-1c-0.6,0-1.1,0.1-1.5,0.3
	c-0.5,0.2-0.9,0.5-1.2,0.9c-0.3-0.4-0.7-0.7-1.2-0.9c-0.5-0.2-1-0.3-1.5-0.3c-0.9,0-1.7,0.3-2.3,1c-0.7,0.7-1,1.4-1,2.3
	c0,0.5,0.1,0.9,0.2,1.3s0.4,0.9,0.8,1.4c0.4,0.6,1,1.2,1.8,2C21.6,28,22.7,29,24,30.2z M24,41.9c-4-1.2-7.4-3.7-10-7.4
	c-2.7-3.7-4-7.9-4-12.5V11.4l14-5.2l14,5.2V22c0,4.6-1.3,8.8-4,12.5C31.4,38.2,28,40.7,24,41.9z"/>
</svg>
