<?xml version="1.0" encoding="utf-8"?>
<!-- Generator: Adobe Illustrator 26.3.1, SVG Export Plug-In . SVG Version: 6.00 Build 0)  -->
<svg version="1.1" id="Слой_1" xmlns="http://www.w3.org/2000/svg" xmlns:xlink="http://www.w3.org/1999/xlink" x="0px" y="0px"
	 viewBox="0 0 48 48" style="enable-background:new 0 0 48 48;" xml:space="preserve">
<path d="M24,41.9c-4-1.2-7.4-3.7-10-7.4c-2.7-3.7-4-7.9-4-12.5V11.4l14-5.2l14,5.2V22c0,0.2,0,0.4,0,0.6s0,0.4,0,0.5
	c-0.2,0-0.4,0-0.5,0c-0.2,0-0.3,0-0.5,0c-2.7,0-5,1-7,2.8s-3,4.1-3,6.9v7.9c-0.5,0.3-0.9,0.5-1.4,0.7C25,41.6,24.5,41.8,24,41.9z
	 M32.8,42c-0.5,0-0.9-0.2-1.3-0.6c-0.4-0.4-0.6-0.9-0.6-1.3v-5.4c0-0.5,0.2-0.9,0.6-1.3c0.4-0.4,0.9-0.6,1.3-0.6h0.1v-2
	c0-1,0.3-1.9,1-2.6s1.5-1.1,2.5-1.1s1.9,0.4,2.5,1.1c0.7,0.7,1,1.6,1,2.6v2H40c0.5,0,0.9,0.2,1.3,0.6c0.4,0.4,0.6,0.8,0.6,1.3v5.4
	c0,0.4-0.2,0.9-0.6,1.3C41,41.8,40.6,42,40.1,42H32.8z M34.4,32.8h4.1v-2c0-0.6-0.2-1.1-0.6-1.5c-0.4-0.4-0.9-0.6-1.5-0.6
	s-1.1,0.2-1.5,0.6s-0.6,0.9-0.6,1.5C34.4,30.8,34.4,32.8,34.4,32.8z"/>
</svg>
