<?xml version="1.0" encoding="utf-8"?>
<!-- Generator: Adobe Illustrator 26.3.1, SVG Export Plug-In . SVG Version: 6.00 Build 0)  -->
<svg version="1.1" id="Слой_1" xmlns="http://www.w3.org/2000/svg" xmlns:xlink="http://www.w3.org/1999/xlink" x="0px" y="0px"
	 viewBox="0 0 48 48" style="enable-background:new 0 0 48 48;" xml:space="preserve">
<path d="M24,17.5l13.2,10.2c-0.7,2.8-1.9,5.4-3.7,7.7s-4,4.1-6.7,5.3v-9.5h-5.5v9.5c-2.7-1.3-4.9-3-6.7-5.3s-3-4.9-3.7-7.7L24,17.5z
	 M24,6.1l14,5.2V22c0,0.6,0,1.3-0.1,2.1c-0.1,0.8-0.2,1.5-0.3,2L24,15.6L10.4,26.1c-0.1-0.6-0.2-1.3-0.3-2C10,23.3,10,22.6,10,22
	V11.3L24,6.1z"/>
</svg>
