<?xml version="1.0" encoding="utf-8"?>
<!-- Generator: Adobe Illustrator 26.3.1, SVG Export Plug-In . SVG Version: 6.00 Build 0)  -->
<svg version="1.1" id="Слой_1" xmlns="http://www.w3.org/2000/svg" xmlns:xlink="http://www.w3.org/1999/xlink" x="0px" y="0px"
	 viewBox="0 0 48 48" style="enable-background:new 0 0 48 48;" xml:space="preserve">
<path d="M24,41.9c-4-1.2-7.4-3.7-10-7.4c-2.7-3.7-4-7.9-4-12.5V11.4l14-5.2l14,5.2V22c0,4.6-1.3,8.8-4,12.5
	C31.4,38.2,28,40.7,24,41.9z M24,33c0-2.5,0.9-4.6,2.6-6.4S30.5,24,33,24c-2.5,0-4.6-0.9-6.4-2.6C24.9,19.6,24,17.5,24,15
	c0,2.5-0.9,4.6-2.6,6.4C19.6,23.2,17.5,24,15,24c2.5,0,4.6,0.9,6.4,2.6C23.1,28.4,24,30.6,24,33z"/>
</svg>
