<?xml version="1.0" encoding="utf-8"?>
<!-- Generator: Adobe Illustrator 26.3.1, SVG Export Plug-In . SVG Version: 6.00 Build 0)  -->
<svg version="1.1" id="Слой_1" xmlns="http://www.w3.org/2000/svg" xmlns:xlink="http://www.w3.org/1999/xlink" x="0px" y="0px"
	 viewBox="0 0 48 48" style="enable-background:new 0 0 48 48;" xml:space="preserve">
<path d="M25.1,30.8c0.9,0,1.8-0.2,2.7-0.5c0.9-0.3,1.6-0.8,2.4-1.4c0.2-0.2,0.3-0.3,0.3-0.4s-0.1-0.2-0.4-0.3
	c-1.2-0.4-2.4-1-3.4-1.8s-1.9-1.8-2.6-3c-0.6-1.1-1.1-2.3-1.3-3.6c-0.2-1.3-0.1-2.5,0.3-3.7c0.1-0.3,0-0.5-0.1-0.5
	c-0.2-0.1-0.4-0.1-0.6,0c-1.6,0.6-2.8,1.6-3.7,3c-0.9,1.4-1.4,2.8-1.4,4.4c0,2.2,0.8,4,2.3,5.5C21,30,22.9,30.8,25.1,30.8z M24,41.9
	c-4-1.2-7.4-3.7-10-7.4c-2.7-3.7-4-7.9-4-12.5V11.4l14-5.2l14,5.2V22c0,4.6-1.3,8.8-4,12.5C31.4,38.2,28,40.7,24,41.9z"/>
</svg>
