<?xml version="1.0" encoding="utf-8"?>
<!-- Generator: Adobe Illustrator 26.3.1, SVG Export Plug-In . SVG Version: 6.00 Build 0)  -->
<svg version="1.1" id="Слой_1" xmlns="http://www.w3.org/2000/svg" xmlns:xlink="http://www.w3.org/1999/xlink" x="0px" y="0px"
	 viewBox="0 0 48 48" style="enable-background:new 0 0 48 48;" xml:space="preserve">
<path d="M22,42c-0.4,0-0.7-0.1-1.1-0.2c-0.3-0.1-0.6-0.3-0.9-0.6L6.8,28c-0.3-0.3-0.5-0.6-0.6-0.9C6,26.7,6,26.4,6,26
	s0.1-0.7,0.2-1.1s0.4-0.7,0.6-1L24,6.8c0.3-0.2,0.6-0.4,0.9-0.6C25.2,6.1,25.6,6,26,6h13.2c0.8,0,1.4,0.3,2,0.8
	C41.7,7.4,42,8,42,8.8V22c0,0.4-0.1,0.7-0.2,1.1s-0.3,0.6-0.6,0.9L23.9,41.2c-0.3,0.3-0.6,0.5-0.9,0.6C22.7,41.9,22.3,42,22,42z
	 M35.2,14.6c0.5,0,0.9-0.2,1.3-0.5c0.4-0.4,0.6-0.8,0.6-1.3s-0.2-0.9-0.5-1.3c-0.4-0.4-0.8-0.5-1.3-0.5s-1,0.2-1.3,0.5
	c-0.3,0.4-0.5,0.8-0.5,1.3s0.2,0.9,0.5,1.3S34.7,14.6,35.2,14.6z"/>
</svg>
