<?xml version="1.0" encoding="utf-8"?>
<!-- Generator: Adobe Illustrator 26.3.1, SVG Export Plug-In . SVG Version: 6.00 Build 0)  -->
<svg version="1.1" id="Слой_1" xmlns="http://www.w3.org/2000/svg" xmlns:xlink="http://www.w3.org/1999/xlink" x="0px" y="0px"
	 viewBox="0 0 48 48" style="enable-background:new 0 0 48 48;" xml:space="preserve">
<path d="M14.8,42.2c-0.8,0-1.5-0.3-2-0.8s-0.8-1.2-0.8-2s0.3-1.5,0.8-2s1.2-0.8,2-0.8s1.5,0.3,2,0.8s0.8,1.2,0.8,2s-0.3,1.5-0.8,2
	C16.2,41.9,15.6,42.2,14.8,42.2z M33.5,42.2c-0.8,0-1.5-0.3-2-0.8s-0.8-1.2-0.8-2s0.3-1.5,0.8-2s1.2-0.8,2-0.8s1.5,0.3,2,0.8
	s0.8,1.2,0.8,2s-0.3,1.5-0.8,2S34.3,42.2,33.5,42.2z M10.7,9h26c0.9,0,1.5,0.4,2,1.1c0.4,0.7,0.5,1.4,0.1,2.2l-5.5,10.1
	c-0.3,0.5-0.7,0.8-1.1,1.1c-0.5,0.3-0.9,0.4-1.5,0.4H16.2l-2.7,5c-0.2,0.3-0.2,0.6,0,1s0.5,0.5,0.8,0.5h22V32H14.5
	c-1.1,0-1.9-0.4-2.4-1.2c-0.5-0.8-0.5-1.7,0-2.6l3.2-5.8L7.8,6.5H4.2V5h4.6C8.8,5,10.7,9,10.7,9z"/>
</svg>
