<?xml version="1.0" encoding="utf-8"?>
<!-- Generator: Adobe Illustrator 26.3.1, SVG Export Plug-In . SVG Version: 6.00 Build 0)  -->
<svg version="1.1" id="Слой_1" xmlns="http://www.w3.org/2000/svg" xmlns:xlink="http://www.w3.org/1999/xlink" x="0px" y="0px"
	 viewBox="0 0 48 48" style="enable-background:new 0 0 48 48;" xml:space="preserve">
<path d="M12.7,42c-0.6,0-1-0.2-1.4-0.7c-0.4-0.4-0.5-0.9-0.5-1.5l0.1-1h5.2l1.9-7.5h4.1l2.5-10.2H12.7l0.6-4.7
	c0.1-0.7,0.4-1.3,0.9-1.8s1.1-0.7,1.8-0.7h4l0.1-1.2c0.3-2.2,1.1-3.8,2.3-5c1.3-1.2,3-1.8,5.2-1.8c1.9,0,3.4,0.7,4.6,2.2
	c1.2,1.5,1.6,3.2,1.3,5.2l0,0.7h5.6c0.8,0,1.5,0.3,2,0.9c0.5,0.6,0.8,1.3,0.7,2.2L39,39.6c-0.1,0.7-0.4,1.3-0.9,1.7
	C37.6,41.8,37,42,36.3,42H12.7z M4.3,34.5L4.7,33h8.5l-0.4,1.5H4.3z M8.3,27l0.4-1.5h10.5L18.8,27H8.3z M21.5,14H32l0.1-0.6
	c0.2-1.5-0.2-2.9-1-4.1S29,7.5,27.6,7.5c-1.7,0-3,0.5-4,1.4s-1.6,2.2-1.8,3.9C21.6,12.8,21.5,14,21.5,14z"/>
</svg>
