<?xml version="1.0" encoding="utf-8"?>
<!-- Generator: Adobe Illustrator 26.3.1, SVG Export Plug-In . SVG Version: 6.00 Build 0)  -->
<svg version="1.1" id="Слой_1" xmlns="http://www.w3.org/2000/svg" xmlns:xlink="http://www.w3.org/1999/xlink" x="0px" y="0px"
	 viewBox="0 0 48 48" style="enable-background:new 0 0 48 48;" xml:space="preserve">
<path d="M12.8,42c-0.8,0-1.4-0.3-2-0.8c-0.5-0.5-0.8-1.2-0.8-2V16.8c0-0.8,0.3-1.4,0.8-2c0.5-0.5,1.2-0.8,2-0.8h4.5v-1.2
	c0-1.9,0.7-3.5,2-4.8s2.9-2,4.8-2s3.5,0.7,4.8,2s2,2.9,2,4.8V14h4.5c0.8,0,1.4,0.3,2,0.8c0.5,0.5,0.8,1.2,0.8,2v22.5
	c0,0.8-0.3,1.4-0.8,2c-0.5,0.5-1.2,0.8-2,0.8L12.8,42L12.8,42z M18.8,14h10.5v-1.2c0-1.5-0.5-2.7-1.5-3.7s-2.2-1.5-3.7-1.5
	s-2.7,0.5-3.7,1.5s-1.5,2.2-1.5,3.7L18.8,14L18.8,14z M30,21.5c0.2,0,0.4-0.1,0.6-0.2c0.1-0.1,0.2-0.3,0.2-0.6v-5.2h-1.5v5.2
	c0,0.2,0.1,0.4,0.2,0.6S29.8,21.5,30,21.5z M18,21.5c0.2,0,0.4-0.1,0.6-0.2c0.1-0.1,0.2-0.3,0.2-0.6v-5.2h-1.5v5.2
	c0,0.2,0.1,0.4,0.2,0.6C17.6,21.5,17.8,21.5,18,21.5z"/>
</svg>
