<?xml version="1.0" encoding="utf-8"?>
<!-- Generator: Adobe Illustrator 26.3.1, SVG Export Plug-In . SVG Version: 6.00 Build 0)  -->
<svg version="1.1" id="Слой_1" xmlns="http://www.w3.org/2000/svg" xmlns:xlink="http://www.w3.org/1999/xlink" x="0px" y="0px"
	 viewBox="0 0 48 48" style="enable-background:new 0 0 48 48;" xml:space="preserve">
<path d="M19.4,17.8c-0.8,0-1.4-0.3-2-0.8c-0.5-0.5-0.8-1.2-0.8-2s0.3-1.4,0.8-2c0.5-0.5,1.2-0.8,2-0.8s1.4,0.3,2,0.8
	c0.5,0.5,0.8,1.2,0.8,2s-0.3,1.4-0.8,2C20.9,17.5,20.2,17.8,19.4,17.8z M34,42.8c-2.4,0-4.5-0.9-6.2-2.6c-1.7-1.7-2.6-3.8-2.6-6.2
	s0.9-4.5,2.6-6.2s3.8-2.6,6.2-2.6s4.5,0.9,6.2,2.6s2.6,3.8,2.6,6.2s-0.9,4.5-2.6,6.2C38.5,41.9,36.4,42.8,34,42.8z M37.4,38.4
	l1.1-1.1l-3.7-3.7v-5.5h-1.5v6.1L37.4,38.4z M11.2,42c-0.8,0-1.4-0.3-2-0.8c-0.5-0.5-0.8-1.2-0.8-2V8.8c0-0.7,0.3-1.4,0.8-1.9
	c0.5-0.6,1.2-0.8,2-0.8h16.5c0.7,0,1.4,0.3,1.9,0.8c0.6,0.6,0.8,1.2,0.8,1.9v12.7c-0.3,0.1-0.5,0.1-0.8,0.2s-0.5,0.2-0.7,0.3V8.8
	c0-0.4-0.1-0.7-0.4-0.9c-0.2-0.2-0.5-0.3-0.9-0.3H11.2c-0.4,0-0.7,0.1-0.9,0.3S10,8.4,10,8.8v15.1c0.6-0.6,1.2-1.1,2-1.4
	s1.6-0.5,2.5-0.5h12.7v1c-1.6,0.9-3,2.2-4,3.6c-1,1.5-1.7,3.1-2.1,4.9h-0.9v-4.3h-1.5v4h-4v1.5h4v4h1.6v-3.9l0.5,0.2
	c-0.1,1.6,0.2,3.2,0.7,4.8c0.6,1.6,1.4,2.9,2.5,4.1H11.2V42z"/>
</svg>
