<?xml version="1.0" encoding="utf-8"?>
<!-- Generator: Adobe Illustrator 26.3.1, SVG Export Plug-In . SVG Version: 6.00 Build 0)  -->
<svg version="1.1" id="Слой_1" xmlns="http://www.w3.org/2000/svg" xmlns:xlink="http://www.w3.org/1999/xlink" x="0px" y="0px"
	 viewBox="0 0 48 48" style="enable-background:new 0 0 48 48;" xml:space="preserve">
<path d="M5.5,44c-0.4,0-0.8-0.2-1.1-0.5c-0.2-0.3-0.4-0.6-0.4-1v-37c0-0.4,0.2-0.8,0.5-1.1C4.8,4.1,5.1,4,5.5,4h36.9
	c0.4,0,0.8,0.2,1.1,0.5c0.4,0.3,0.5,0.6,0.5,1v36.9c0,0.4-0.2,0.8-0.5,1.1S42.8,44,42.4,44H5.5z M28.8,38H38v-9h-1.5v6.4l-8.1-8.1
	l-1.1,1.1l8.1,8.1h-6.6C28.8,36.5,28.8,38,28.8,38z M11.1,38l25.4-25.4V19H38v-9h-9.2v1.5h6.5L10,36.9L11.1,38z M19.4,20.5l1.1-1.1
	L11.1,10L10,11.1L19.4,20.5z"/>
</svg>
