<?xml version="1.0" encoding="utf-8"?>
<!-- Generator: Adobe Illustrator 26.3.1, SVG Export Plug-In . SVG Version: 6.00 Build 0)  -->
<svg version="1.1" id="Слой_1" xmlns="http://www.w3.org/2000/svg" xmlns:xlink="http://www.w3.org/1999/xlink" x="0px" y="0px"
	 viewBox="0 0 48 48" style="enable-background:new 0 0 48 48;" xml:space="preserve">
<path d="M36.5,43.2V38h-5.2v-1.5h5.2v-5.2H38v5.2h5.4V38H38v5.2H36.5z M17.8,5.5V4h12.4v1.5H17.8z M24.1,42c-2.2,0-4.3-0.4-6.3-1.3
	c-2-0.8-3.7-2-5.1-3.4s-2.6-3.1-3.4-5.1c-0.8-2-1.3-4-1.3-6.3c0-2.2,0.4-4.3,1.3-6.2c0.8-1.9,2-3.6,3.4-5.1c1.4-1.4,3.1-2.6,5.1-3.4
	c1.9-0.8,4-1.2,6.2-1.2c2.1,0,4.1,0.4,5.9,1.1s3.4,1.8,5,3.1l2.7-2.6l1.1,1.1L36,15.4c1.4,1.6,2.4,3.4,3.1,5.2c0.7,1.9,1,3.9,0.9,6
	c-0.3-0.1-0.6-0.1-0.8-0.2s-0.5-0.1-0.7-0.1c0-0.2,0.1-0.3,0.1-0.5v-0.5c-0.2-3.9-1.6-7.2-4.4-9.9c-2.8-2.7-6.1-4-10.1-4
	s-7.4,1.4-10.2,4.2c-3,3-4.4,6.4-4.4,10.4s1.4,7.4,4.2,10.2s6.2,4.2,10.2,4.2c0.4,0,0.9,0,1.3-0.1c0.5-0.1,0.9-0.1,1.3-0.2
	c0.1,0.2,0.1,0.5,0.2,0.7s0.2,0.5,0.3,0.7c-0.5,0.1-1,0.2-1.5,0.3C25.1,42,24.6,42,24.1,42z M26.4,38.8c-0.2-1.6-0.1-3.2,0.3-4.7
	c0.5-1.5,1.2-2.8,2.2-4s2.2-2.1,3.6-2.8c1.4-0.7,2.9-1.1,4.6-1.1c0-0.4,0-0.8,0-1.1c0-0.4,0-0.8-0.1-1.1h-7.9l-8.3,14.7
	c1,0.3,2,0.4,2.8,0.4C24.5,39.2,25.4,39.1,26.4,38.8z M23.6,22.5h13.1c-0.6-2.1-1.5-3.9-2.9-5.3c-1.4-1.5-3-2.6-5-3.5
	C28.8,13.7,23.6,22.5,23.6,22.5z M20.7,24.7l6.7-11.4c-2.2-0.5-4.3-0.6-6.3-0.1s-3.9,1.4-5.4,2.7C15.6,15.8,20.7,24.7,20.7,24.7z
	 M11,28.1h10l-6.4-11.3c-1.4,1.5-2.4,3.2-3.1,5.2C10.8,24,10.7,26,11,28.1z M19.3,38.3l5-8.7h-13c0.5,1.9,1.5,3.7,2.9,5.3
	C15.7,36.4,17.4,37.5,19.3,38.3z"/>
</svg>
