<?xml version="1.0" encoding="utf-8"?>
<!-- Generator: Adobe Illustrator 26.3.1, SVG Export Plug-In . SVG Version: 6.00 Build 0)  -->
<svg version="1.1" id="Слой_1" xmlns="http://www.w3.org/2000/svg" xmlns:xlink="http://www.w3.org/1999/xlink" x="0px" y="0px"
	 viewBox="0 0 48 48" style="enable-background:new 0 0 48 48;" xml:space="preserve">
<path d="M17.8,5.5V4h12.4v1.5H17.8z M24.1,42c-2.2,0-4.3-0.4-6.3-1.3c-2-0.8-3.7-2-5.1-3.4s-2.6-3.1-3.4-5.1c-0.8-2-1.3-4-1.3-6.3
	c0-2.2,0.4-4.3,1.3-6.2c0.8-1.9,2-3.6,3.4-5.1c1.4-1.4,3.1-2.6,5.1-3.4c1.9-0.8,4-1.2,6.2-1.2c2.1,0,4.1,0.4,5.9,1.1s3.4,1.8,5,3.1
	l2.7-2.6l1.1,1.1L36,15.4c1.3,1.5,2.3,3.2,3,4.9s1,3.7,1,5.8c0,2.2-0.4,4.3-1.3,6.2c-0.8,1.9-2,3.6-3.4,5.1s-3.1,2.6-5.1,3.4
	S26.2,42,24.1,42z M24,40.5c4,0,7.4-1.4,10.2-4.2s4.2-6.2,4.2-10.2s-1.4-7.4-4.2-10.2S28,11.7,24,11.7s-7.4,1.4-10.2,4.2
	C10.9,18.6,9.5,22,9.5,26s1.4,7.4,4.2,10.2C16.6,39.1,20,40.5,24,40.5z M23.6,22.5h13.1c-0.6-2.1-1.5-3.9-2.9-5.4s-3-2.6-5-3.5
	C28.8,13.7,23.6,22.5,23.6,22.5z M20.7,24.7l6.7-11.4c-2.2-0.5-4.3-0.6-6.3-0.1s-3.9,1.4-5.4,2.7C15.6,15.8,20.7,24.7,20.7,24.7z
	 M11,28.1h10l-6.4-11.3c-1.4,1.5-2.4,3.2-3.1,5.2C10.8,24,10.7,26,11,28.1z M19.3,38.3l5-8.7h-13c0.5,1.9,1.5,3.7,2.9,5.3
	C15.7,36.4,17.4,37.5,19.3,38.3z M20.8,38.7c2.5,0.6,4.7,0.6,6.7,0s3.6-1.5,4.9-2.5l-5.2-8.8C27.2,27.4,20.8,38.7,20.8,38.7z
	 M33.4,35.2c1-1,2-2.5,2.9-4.5s1.1-4.3,0.7-6.7H26.9L33.4,35.2z"/>
</svg>
