<?xml version="1.0" encoding="utf-8"?>
<!-- Generator: Adobe Illustrator 26.3.1, SVG Export Plug-In . SVG Version: 6.00 Build 0)  -->
<svg version="1.1" id="Слой_1" xmlns="http://www.w3.org/2000/svg" xmlns:xlink="http://www.w3.org/1999/xlink" x="0px" y="0px"
	 viewBox="0 0 48 48" style="enable-background:new 0 0 48 48;" xml:space="preserve">
<path d="M16.8,22.2L20,19l-3.2-3.2l-1.1,1.1l2.2,2.1l-2.2,2.2L16.8,22.2z M42,17.2c-0.9,0-1.7-0.3-2.3-0.9s-0.9-1.4-0.9-2.3
	c0-0.8,0.2-1.6,0.6-2.4c0.4-0.8,1.3-2.3,2.7-4.3c1.4,2,2.3,3.4,2.7,4.3c0.4,0.8,0.6,1.6,0.6,2.4c0,0.9-0.3,1.7-1,2.3
	C43.7,16.9,42.9,17.2,42,17.2z M31.2,22.2l1.1-1.1l-2.1-2.2l2.1-2.1l-1.1-1.1L28,19L31.2,22.2z M24,27.1c-0.9,0-1.8,0.1-2.7,0.4
	c-0.9,0.3-1.8,0.7-2.6,1.2l-7.3-4.3c0-0.5-0.1-0.9-0.3-1.4c-0.2-0.4-0.5-0.8-0.9-1c-0.5-0.3-1.1-0.4-1.7-0.2C7.8,22,7.3,22.3,7,22.9
	c-0.3,0.5-0.4,1.1-0.2,1.7c0.2,0.6,0.5,1.1,1,1.4c0.4,0.2,0.9,0.3,1.3,0.2c0.5-0.1,0.9-0.2,1.3-0.5l6.9,4c-0.4,0.4-0.9,0.9-1.2,1.4
	c-0.4,0.5-0.7,1-1,1.7h1.7c0.7-1.3,1.7-2.3,3-3.1c1.3-0.7,2.7-1.1,4.2-1.1c1.5,0,2.9,0.4,4.2,1.1c1.3,0.7,2.2,1.8,3,3.1h1.6
	c-0.9-1.9-2.2-3.4-3.8-4.3C27.4,27.5,25.7,27.1,24,27.1z M24,42c-2.5,0-4.8-0.5-7-1.4s-4.1-2.2-5.7-3.9c-1.6-1.6-2.9-3.6-3.9-5.7
	C6.5,28.8,6,26.5,6,24s0.5-4.8,1.4-7s2.2-4.1,3.9-5.7c1.6-1.6,3.5-2.9,5.7-3.9C19.2,6.5,21.5,6,24,6c2.3,0,4.5,0.4,6.5,1.2
	s3.9,1.9,5.5,3.4c-0.3,0.6-0.5,1.1-0.6,1.7c-0.1,0.5-0.2,1.1-0.2,1.8c0,1.8,0.6,3.3,1.8,4.6c1.2,1.3,2.7,2,4.4,2.2
	c0.1,0,0.1,0,0.2,0c0.1,0,0.1,0,0.2,0c0.1,0.5,0.2,1.1,0.2,1.6s0.1,1.1,0.1,1.6c0,2.5-0.5,4.8-1.4,7s-2.2,4.1-3.9,5.7
	c-1.6,1.6-3.5,2.9-5.7,3.9C28.8,41.5,26.5,42,24,42z"/>
</svg>
