<?xml version="1.0" encoding="utf-8"?>
<!-- Generator: Adobe Illustrator 26.3.1, SVG Export Plug-In . SVG Version: 6.00 Build 0)  -->
<svg version="1.1" id="Слой_1" xmlns="http://www.w3.org/2000/svg" xmlns:xlink="http://www.w3.org/1999/xlink" x="0px" y="0px"
	 viewBox="0 0 48 48" style="enable-background:new 0 0 48 48;" xml:space="preserve">
<path d="M37.5,42v-6h-6v-1.5h6v-6H39v6h6V36h-6v6H37.5z M6,42L42,6v18.9c-0.5-0.2-1.1-0.4-1.9-0.5c-0.8-0.1-1.4-0.2-1.9-0.2
	c-3.1,0-5.7,1.1-7.9,3.2c-2.2,2.2-3.2,4.8-3.2,7.9c0,1.2,0.2,2.4,0.6,3.6c0.4,1.2,1,2.3,1.7,3.2L6,42L6,42z"/>
</svg>
