<?xml version="1.0" encoding="utf-8"?>
<!-- Generator: Adobe Illustrator 26.3.1, SVG Export Plug-In . SVG Version: 6.00 Build 0)  -->
<svg version="1.1" id="Слой_1" xmlns="http://www.w3.org/2000/svg" xmlns:xlink="http://www.w3.org/1999/xlink" x="0px" y="0px"
	 viewBox="0 0 48 48" style="enable-background:new 0 0 48 48;" xml:space="preserve">
<path d="M24,39.2L2.8,18c3-2.6,6.2-4.5,9.8-5.9S20,10,24,10s7.7,0.7,11.3,2.1s6.9,3.4,9.8,5.9l-4.4,4.4c-0.5-0.1-1.1-0.3-1.7-0.4
	c-0.6-0.1-1.1-0.1-1.7-0.1c-3,0-5.6,1.1-7.7,3.2s-3.2,4.6-3.2,7.6c0,0.5,0,1.1,0.1,1.7c0.1,0.6,0.2,1.1,0.4,1.7
	C27,36.2,24,39.2,24,39.2z M33.2,38.2l-1.1-1.1l4.2-4.2l-4.2-4.2l1.1-1.1l4.2,4.2l4.2-4.2l1.1,1.1l-4.2,4.2l4.2,4.2l-1.1,1.1
	L37.4,34L33.2,38.2z"/>
</svg>
