<?xml version="1.0" encoding="utf-8"?>
<!-- Generator: Adobe Illustrator 26.3.1, SVG Export Plug-In . SVG Version: 6.00 Build 0)  -->
<svg version="1.1" id="Слой_1" xmlns="http://www.w3.org/2000/svg" xmlns:xlink="http://www.w3.org/1999/xlink" x="0px" y="0px"
	 viewBox="0 0 48 48" style="enable-background:new 0 0 48 48;" xml:space="preserve">
<path d="M33.8,41.3l-1.1-1.1l4.2-4.2l-4.2-4.2l1.1-1.1l4.2,4.2l4.2-4.2l1.1,1.1L39.1,36l4.2,4.2l-1.1,1.1L38,37.1L33.8,41.3z M6,42
	L42,6v19.8c-0.7-0.3-1.3-0.5-1.9-0.7c-0.7,0-1.3-0.1-2.1-0.1c-3.1,0-5.7,1.1-7.8,3.2S27,32.9,27,36c0,1.1,0.2,2.1,0.5,3.2
	c0.3,1.1,0.8,2,1.5,2.8H6z"/>
</svg>
