<?xml version="1.0" encoding="utf-8"?>
<!-- Generator: Adobe Illustrator 26.3.1, SVG Export Plug-In . SVG Version: 6.00 Build 0)  -->
<svg version="1.1" id="Слой_1" xmlns="http://www.w3.org/2000/svg" xmlns:xlink="http://www.w3.org/1999/xlink" x="0px" y="0px"
	 viewBox="0 0 48 48" style="enable-background:new 0 0 48 48;" xml:space="preserve">
<path d="M32.9,27.9l-1-1c0.8-1,1.4-2.1,1.8-3.2s0.7-2.4,0.7-3.7c0-1.4-0.2-2.7-0.7-4s-1.2-2.4-2.2-3.4l1-1c1.1,1.2,2,2.5,2.5,3.9
	c0.6,1.5,0.9,3,0.9,4.6c0,1.5-0.2,2.9-0.8,4.2C34.6,25.6,33.9,26.8,32.9,27.9z M27,22l-5-5c0.3-0.2,0.6-0.4,0.9-0.5s0.7-0.1,1.1-0.1
	c1,0,1.9,0.4,2.6,1.1s1.1,1.6,1.1,2.6c0,0.4,0,0.7-0.1,1.1C27.4,21.4,27.2,21.7,27,22z M37.5,32.5l-1.1-1c1.4-1.6,2.6-3.4,3.3-5.3
	c0.8-2,1.2-4,1.2-6.2c0-2.3-0.4-4.4-1.3-6.5c-0.8-2.1-2-3.9-3.6-5.5l1-1c1.7,1.7,3.1,3.7,4,5.9c1,2.2,1.4,4.6,1.4,7
	s-0.4,4.6-1.3,6.7C40.3,28.9,39.1,30.8,37.5,32.5z M40.2,42.4L24.8,27v13.2h-1.5V25.5l-9.1-9.1c-0.2,0.6-0.4,1.2-0.4,1.8
	c-0.1,0.6-0.1,1.2-0.1,1.8c0,1.4,0.2,2.7,0.7,4s1.2,2.4,2.3,3.4l-1.1,1.1c-1.1-1.1-1.9-2.4-2.5-3.9s-0.9-3-0.9-4.6
	c0-0.8,0.1-1.6,0.2-2.4c0.1-0.8,0.4-1.5,0.8-2.3l-3.8-3.8c-0.8,1.3-1.4,2.7-1.8,4.1C7.2,17,7,18.5,7,20c0,2.3,0.4,4.4,1.3,6.5
	s2.1,3.9,3.7,5.5l-1,1c-1.7-1.7-3.1-3.7-4-5.9c-1-2.3-1.4-4.6-1.4-7.1c0-1.7,0.2-3.3,0.7-5c0.4-1.6,1.1-3.2,2-4.6L5.6,7.8l1.1-1.1
	l34.5,34.5C41.3,41.3,40.2,42.4,40.2,42.4z"/>
</svg>
