<?xml version="1.0" encoding="utf-8"?>
<!-- Generator: Adobe Illustrator 26.3.1, SVG Export Plug-In . SVG Version: 6.00 Build 0)  -->
<svg version="1.1" id="Слой_1" xmlns="http://www.w3.org/2000/svg" xmlns:xlink="http://www.w3.org/1999/xlink" x="0px" y="0px"
	 viewBox="0 0 48 48" style="enable-background:new 0 0 48 48;" xml:space="preserve">
<path d="M10.8,42.8c-0.2,0-0.4-0.1-0.6-0.2C10.1,42.5,10,42.3,10,42c0-0.2,0.1-0.4,0.2-0.6c0.1-0.1,0.3-0.2,0.6-0.2h7v-4h-11
	c-0.2,0-0.4-0.1-0.6-0.2C6.1,36.9,6,36.7,6,36.5s0.1-0.4,0.2-0.6c0.1-0.1,0.3-0.2,0.6-0.2h11v-4h-13c-0.2,0-0.4-0.1-0.6-0.2
	C4.1,31.4,4,31.2,4,31s0.1-0.4,0.2-0.6c0.1-0.1,0.3-0.2,0.6-0.2h13v-4h-9c-0.2,0-0.4-0.1-0.6-0.2C8.1,25.8,8,25.7,8,25.4
	c0-0.2,0.1-0.4,0.2-0.6c0.1-0.1,0.3-0.2,0.6-0.2h14.4l-3-5.3C20,19,20,18.8,20,18.4c0-0.3,0.2-0.6,0.4-0.8l1.1-1l11.9,8.9
	c0.6,0.5,1.1,1,1.4,1.7c0.3,0.7,0.5,1.4,0.5,2.1V38c0,1.3-0.5,2.5-1.4,3.4s-2.1,1.4-3.4,1.4C30.5,42.8,10.8,42.8,10.8,42.8z
	 M16.4,21.3l-2.7-2c-0.2-0.1-0.3-0.3-0.3-0.5s0-0.4,0.2-0.6c0.1-0.2,0.3-0.3,0.5-0.3s0.4,0,0.5,0.2l2.1,1.6c0.1,0.3,0.1,0.6,0.2,0.9
	s0.2,0.5,0.4,0.8C17.4,21.3,16.4,21.3,16.4,21.3z M13.7,11.3c0.1-0.2,0.3-0.3,0.5-0.3s0.4,0,0.5,0.2l4.3,3.2l-0.8,0.7
	c-0.1,0.1-0.1,0.1-0.2,0.2c-0.1,0.1-0.1,0.1-0.1,0.2l-4.1-3c-0.2-0.1-0.3-0.3-0.3-0.5C13.5,11.7,13.5,11.5,13.7,11.3z M41.3,23.1
	l-3.2,4.3c-0.2-0.9-0.5-1.8-1-2.5S36,23.5,35.3,23l-10.8-8l0.7-0.9l-9.7-7.2c-0.2-0.1-0.3-0.3-0.3-0.5s0-0.4,0.1-0.6
	s0.3-0.3,0.5-0.3c0.2,0,0.4,0,0.6,0.2l10.5,7.7l2.4-3.2L22,4.7c-0.2-0.1-0.3-0.3-0.3-0.5c0-0.2,0.1-0.4,0.2-0.6
	c0.1-0.2,0.3-0.3,0.5-0.3s0.4,0,0.5,0.2l11.5,8.6L35.3,6c0-0.3,0.2-0.6,0.4-0.8c0.2-0.2,0.5-0.4,0.8-0.4l1.4-0.1L42,19
	c0.2,0.7,0.3,1.5,0.2,2.2C42.1,21.8,41.8,22.5,41.3,23.1z"/>
</svg>
