<?xml version="1.0" encoding="utf-8"?>
<!-- Generator: Adobe Illustrator 26.3.1, SVG Export Plug-In . SVG Version: 6.00 Build 0)  -->
<svg version="1.1" id="Слой_1" xmlns="http://www.w3.org/2000/svg" xmlns:xlink="http://www.w3.org/1999/xlink" x="0px" y="0px"
	 viewBox="0 0 48 48" style="enable-background:new 0 0 48 48;" xml:space="preserve">
<path d="M25.7,26.7c3.1-2,5.6-4.2,7.4-6.7c1.8-2.5,2.7-4.9,2.7-7.3c0-1.6-0.3-2.8-0.9-3.8c-0.6-1-1.4-1.4-2.5-1.4
	c-2.1,0-3.8,1.4-5.2,4.2c-1.4,2.8-2,6.2-2,10.4c0,0.9,0,1.8,0.1,2.5C25.4,25.4,25.5,26.1,25.7,26.7z M8,40v-2.5h2.5V40H8z M15.4,40
	v-2.5h2.5V40H15.4z M22.7,40v-2.5h2.5V40H22.7z M30.1,40v-2.5h2.5V40H30.1z M37.5,40v-2.5H40V40H37.5z M7.1,32.5L6,31.4l3.2-3.2
	L6,25l1.1-1l3.2,3.2l3.2-3.2l1.1,1.1l-3.2,3.2l3.2,3.2l-1.1,1.1l-3.2-3.2C10.3,29.3,7.1,32.5,7.1,32.5z M29.6,32
	c-1,0-1.9-0.3-2.7-0.8C26.1,30.7,25.5,30,25,29c-0.8,0.5-1.6,0.9-2.5,1.3s-1.7,0.8-2.7,1.2l-0.5-1.4c0.9-0.4,1.7-0.8,2.6-1.2
	c0.8-0.4,1.7-0.8,2.4-1.3c-0.2-0.7-0.4-1.6-0.5-2.5s-0.2-1.9-0.2-2.9c0-4.7,0.8-8.6,2.4-11.6S29.7,6,32.3,6c1.5,0,2.7,0.6,3.6,1.9
	c0.9,1.2,1.3,2.9,1.3,4.9c0,2.8-1,5.5-3,8.2s-4.7,5.1-8.1,7.3c0.4,0.7,0.8,1.3,1.4,1.7c0.5,0.4,1.2,0.6,1.9,0.6
	c1.2,0,2.4-0.5,3.7-1.5c1.2-1,2.3-2.3,3.4-4.1l1.3,0.6c-0.1,1.2-0.2,2.2-0.1,2.9c0.1,0.7,0.3,1.5,0.7,2.1c0.5-0.2,1-0.5,1.4-0.8
	s0.9-0.8,1.5-1.4l1.2,1c-0.9,0.9-1.6,1.5-2.3,2s-1.3,0.7-1.9,0.7c-0.6,0-1.1-0.4-1.5-1.1s-0.6-1.7-0.7-2.8c-0.8,1.2-1.9,2.1-3.1,2.9
	C31.9,31.6,30.8,32,29.6,32z"/>
</svg>
