<?xml version="1.0" encoding="utf-8"?>
<!-- Generator: Adobe Illustrator 26.3.1, SVG Export Plug-In . SVG Version: 6.00 Build 0)  -->
<svg version="1.1" id="Слой_1" xmlns="http://www.w3.org/2000/svg" xmlns:xlink="http://www.w3.org/1999/xlink" x="0px" y="0px"
	 viewBox="0 0 48 48" style="enable-background:new 0 0 48 48;" xml:space="preserve">
<path d="M14.9,37.4h1.5V35h-1.5V37.4z M14.9,29.9h1.5v-7h-1.5V29.9z M23.2,37.4h1.5v-7.1h-1.5C23.2,30.3,23.2,37.4,23.2,37.4z
	 M23.2,25.2h1.5v-2.4h-1.5V25.2z M31.7,37.4h1.5V35h-1.5V37.4z M31.7,29.9h1.5v-7h-1.5V29.9z M12.8,42c-0.8,0-1.4-0.3-2-0.8
	c-0.5-0.5-0.8-1.2-0.8-2V16.8L20.8,6h14.4c0.8,0,1.4,0.3,2,0.8C37.7,7.3,38,8,38,8.8v30.5c0,0.8-0.3,1.4-0.8,2
	c-0.5,0.5-1.2,0.8-2,0.8L12.8,42L12.8,42z"/>
</svg>
