<?xml version="1.0" encoding="utf-8"?>
<!-- Generator: Adobe Illustrator 26.3.1, SVG Export Plug-In . SVG Version: 6.00 Build 0)  -->
<svg version="1.1" id="Слой_1" xmlns="http://www.w3.org/2000/svg" xmlns:xlink="http://www.w3.org/1999/xlink" x="0px" y="0px"
	 viewBox="0 0 48 48" style="enable-background:new 0 0 48 48;" xml:space="preserve">
<path d="M24.1,32.3l6.5-6.5l-1.1-1.1l-4.6,4.6v-9.9h-1.5v9.9l-4.6-4.6l-1.1,1.1C17.5,25.8,24.1,32.3,24.1,32.3z M12.8,42
	c-0.8,0-1.4-0.3-2-0.8c-0.5-0.5-0.8-1.2-0.8-2V16.8L20.8,6h14.4c0.8,0,1.4,0.3,2,0.8C37.7,7.3,38,8,38,8.8v30.5c0,0.8-0.3,1.4-0.8,2
	c-0.5,0.5-1.2,0.8-2,0.8L12.8,42L12.8,42z"/>
</svg>
