<?xml version="1.0" encoding="utf-8"?>
<!-- Generator: Adobe Illustrator 26.3.1, SVG Export Plug-In . SVG Version: 6.00 Build 0)  -->
<svg version="1.1" id="Слой_1" xmlns="http://www.w3.org/2000/svg" xmlns:xlink="http://www.w3.org/1999/xlink" x="0px" y="0px"
	 viewBox="0 0 48 48" style="enable-background:new 0 0 48 48;" xml:space="preserve">
<path d="M17.5,25.9H19v-5.7c0-1.3,0.5-2.5,1.4-3.5c1-1,2.1-1.5,3.5-1.5v-1.5c-1.8,0-3.3,0.6-4.6,1.9c-1.3,1.3-1.9,2.8-1.9,4.6v5.7
	H17.5z M8.8,40c-0.7,0-1.4-0.3-1.9-0.8C6.3,38.6,6,38,6,37.2v-3.6c0-0.7,0.3-1.4,0.8-1.9c0.6-0.6,1.2-0.8,1.9-0.8h3V20.2
	c0-3.4,1.2-6.3,3.6-8.6C17.7,9.2,20.6,8,24,8s6.3,1.2,8.7,3.6s3.6,5.3,3.6,8.6v10.6h3c0.7,0,1.4,0.3,1.9,0.8
	c0.6,0.6,0.8,1.2,0.8,1.9v3.6c0,0.7-0.3,1.4-0.8,1.9c-0.6,0.7-1.2,1-2,1H8.8z"/>
</svg>
