<?xml version="1.0" encoding="utf-8"?>
<!-- Generator: Adobe Illustrator 26.3.1, SVG Export Plug-In . SVG Version: 6.00 Build 0)  -->
<svg version="1.1" id="Слой_1" xmlns="http://www.w3.org/2000/svg" xmlns:xlink="http://www.w3.org/1999/xlink" x="0px" y="0px"
	 viewBox="0 0 48 48" style="enable-background:new 0 0 48 48;" xml:space="preserve">
<path d="M35,43.8c-2.3,0-4.3-0.8-5.9-2.4c-1.6-1.6-2.4-3.6-2.4-5.9c0-2.3,0.8-4.3,2.4-5.9s3.6-2.4,5.9-2.4s4.3,0.8,5.9,2.4
	c1.6,1.6,2.4,3.6,2.4,5.9s-0.8,4.3-2.4,5.9S37.3,43.8,35,43.8z M35,41.5c0.3,0,0.6-0.1,0.8-0.3s0.3-0.5,0.3-0.8s-0.1-0.6-0.3-0.8
	s-0.5-0.3-0.8-0.3s-0.6,0.1-0.8,0.3s-0.3,0.5-0.3,0.8s0.1,0.6,0.3,0.8C34.5,41.4,34.7,41.5,35,41.5z M34.3,37.8h1.6v-0.4
	c0-0.4,0.1-0.8,0.3-1c0.2-0.3,0.5-0.5,0.7-0.8c0.5-0.4,0.9-0.8,1.2-1.3c0.3-0.4,0.4-1,0.4-1.6c0-1-0.3-1.8-1-2.4
	c-0.6-0.6-1.5-0.9-2.5-0.9c-0.8,0-1.5,0.2-2.1,0.7c-0.7,0.5-1.1,1.1-1.4,1.8l1.5,0.6c0.1-0.4,0.4-0.8,0.7-1.1
	c0.4-0.3,0.8-0.5,1.3-0.5c0.6,0,1,0.1,1.3,0.4s0.5,0.7,0.5,1.3c0,0.4-0.1,0.7-0.4,1c-0.2,0.3-0.5,0.5-0.8,0.8
	c-0.2,0.2-0.4,0.4-0.6,0.7c-0.2,0.3-0.4,0.5-0.6,0.7c-0.1,0.2-0.2,0.4-0.2,0.6c0,0.2-0.1,0.4-0.1,0.7C34.3,37.2,34.3,37.8,34.3,37.8
	z M8.8,40c-0.7,0-1.4-0.3-1.9-0.8C6.3,38.6,6,38,6,37.2v-3.6c0-0.7,0.3-1.4,0.8-1.9c0.6-0.6,1.2-0.8,1.9-0.8h3V20.2
	c0-3.4,1.2-6.3,3.6-8.6C17.7,9.2,20.6,8,24,8s6.3,1.2,8.7,3.6s3.6,5.3,3.6,8.6v2.6c-0.2,0-0.4,0-0.6,0c-0.2,0-0.4,0-0.6,0
	c-3.5,0-6.5,1.2-9,3.7s-3.7,5.5-3.7,9c0,0.8,0.1,1.5,0.2,2.3s0.4,1.5,0.6,2.3C23.2,40,8.8,40,8.8,40z M17.5,25.9H19v-5.7
	c0-1.3,0.5-2.5,1.4-3.5c1-1,2.1-1.5,3.5-1.5v-1.5c-1.8,0-3.3,0.6-4.6,1.9c-1.3,1.3-1.9,2.8-1.9,4.6v5.7H17.5z"/>
</svg>
