<?xml version="1.0" encoding="utf-8"?>
<!-- Generator: Adobe Illustrator 26.3.1, SVG Export Plug-In . SVG Version: 6.00 Build 0)  -->
<svg version="1.1" id="Слой_1" xmlns="http://www.w3.org/2000/svg" xmlns:xlink="http://www.w3.org/1999/xlink" x="0px" y="0px"
	 viewBox="0 0 48 48" style="enable-background:new 0 0 48 48;" xml:space="preserve">
<path d="M12,28.5c-1.1,0-2.1-0.4-2.9-1.1C8.4,26.5,8,25.6,8,24.5V18h24.5c-0.1-1,0.2-1.9,0.6-2.7c0.5-0.8,1.2-1.4,2.2-1.7l8.5-2.8
	l0.5,1.4L35.8,15c-0.5,0.2-1,0.5-1.3,1S34,17,34,17.6v6.9c0,1.1-0.4,2-1.1,2.8s-1.7,1.2-2.9,1.2H12z M20.7,40v-4.8
	c0-0.4-0.1-0.7-0.3-0.9c-0.2-0.2-0.5-0.3-0.9-0.3H6v-1.5h13.5c0.7,0,1.4,0.3,1.9,0.8s0.8,1.2,0.8,1.9V40C22.2,40,20.7,40,20.7,40z
	 M25.8,40v-4.8c0-0.7,0.3-1.4,0.8-1.9s1.2-0.8,1.9-0.8H42V34H28.5c-0.4,0-0.7,0.1-0.9,0.3c-0.2,0.2-0.3,0.5-0.3,0.9V40H25.8z"/>
</svg>
