<?xml version="1.0" encoding="utf-8"?>
<!-- Generator: Adobe Illustrator 26.3.1, SVG Export Plug-In . SVG Version: 6.00 Build 0)  -->
<svg version="1.1" id="Слой_1" xmlns="http://www.w3.org/2000/svg" xmlns:xlink="http://www.w3.org/1999/xlink" x="0px" y="0px"
	 viewBox="0 0 48 48" style="enable-background:new 0 0 48 48;" xml:space="preserve">
<path d="M21.4,30.1h5.2L24,24.9L21.4,30.1z M17,24.8c0.8,0,1.5-0.3,2.1-0.9s0.9-1.3,0.9-2.1s-0.3-1.5-0.9-2.1s-1.3-0.9-2.1-0.9
	c-0.8,0-1.5,0.3-2.1,0.9C14.3,20.2,14,21,14,21.8s0.3,1.5,0.9,2.1C15.5,24.5,16.2,24.8,17,24.8z M31,24.8c0.8,0,1.5-0.3,2.1-0.9
	s0.9-1.3,0.9-2.1s-0.3-1.5-0.9-2.1c-0.6-0.6-1.3-0.9-2.1-0.9c-0.8,0-1.5,0.3-2.1,0.9C28.3,20.2,28,21,28,21.8s0.3,1.5,0.9,2.1
	S30.2,24.8,31,24.8z M14,42v-7.8c-1.2-0.5-2.3-1.1-3.3-2c-1-0.8-1.8-1.8-2.5-2.8c-0.7-1.1-1.3-2.2-1.6-3.5C6.2,24.7,6,23.4,6,22
	c0-4.7,1.7-8.5,5-11.5S18.7,6,24,6s9.6,1.5,13,4.5s5,6.8,5,11.5c0,1.4-0.2,2.7-0.6,3.9c-0.4,1.3-0.9,2.4-1.6,3.5
	c-0.7,1.1-1.6,2-2.5,2.8c-1,0.8-2.1,1.5-3.3,2V42h-4.8v-4.8h-2.6V42h-5.1v-4.8h-2.6V42H14z"/>
</svg>
