<?xml version="1.0" encoding="utf-8"?>
<!-- Generator: Adobe Illustrator 26.3.1, SVG Export Plug-In . SVG Version: 6.00 Build 0)  -->
<svg version="1.1" id="Слой_1" xmlns="http://www.w3.org/2000/svg" xmlns:xlink="http://www.w3.org/1999/xlink" x="0px" y="0px"
	 viewBox="0 0 48 48" style="enable-background:new 0 0 48 48;" xml:space="preserve">
<path d="M38.2,45.4c-0.5,0-1,0-1.4-0.1S36,45.1,35.6,45L2.7,34.2L3.1,33l8.2,2.6l1.5-4.7l-8.2-2.6L5,27.1l4.2,1.4v-8.7l10.2-4.3
	c0.2-0.1,0.3-0.1,0.5-0.2c0.2,0,0.4,0,0.6,0c1.1,0,1.8,0.3,2.3,1.1c0.5,0.7,0.5,1.6,0.2,2.7l-2.5,7.7l5.7-0.9c0.6-0.1,1.2,0,1.7,0.2
	c0.5,0.3,1,0.7,1.3,1.3l4.5,9.1l3.6,1.2l-0.4,1.2l-6.7-2.2l-1.5,4.6l7.2,2.4c0.4,0.1,0.7,0.2,1.1,0.3c0.3,0.1,0.7,0.1,1.2,0.1
	c1.6,0,3-0.6,4.1-1.7c1.1-1.1,1.7-2.5,1.7-4.1c0-1.4-0.3-2.6-1-3.5c-0.6-1-1.5-1.7-2.6-2.2l0.5-1.2c1.3,0.6,2.4,1.5,3.2,2.7
	s1.2,2.6,1.2,4.3c0,2-0.7,3.7-2.1,5.1C41.8,44.7,40.2,45.4,38.2,45.4z M27.3,40.9l1.6-4.7L14,31.4l-1.5,4.7L27.3,40.9z M31.6,35.8
	l-3.8-7.7L16.9,31L31.6,35.8z M15.5,30.5c-0.4-0.5-0.7-1-0.8-1.7s0-1.4,0.2-2.1l2.9-8.9l-7,2.9V29C10.8,29,15.5,30.5,15.5,30.5z
	 M23.9,12.1c-0.9,0-1.7-0.3-2.3-1c-0.6-0.6-0.9-1.4-0.9-2.3s0.3-1.7,0.9-2.3s1.4-0.9,2.3-0.9s1.7,0.3,2.3,0.9
	c0.6,0.6,0.9,1.4,0.9,2.3s-0.3,1.6-0.9,2.3C25.6,11.7,24.8,12.1,23.9,12.1z"/>
</svg>
