<?xml version="1.0" encoding="utf-8"?>
<!-- Generator: Adobe Illustrator 26.3.1, SVG Export Plug-In . SVG Version: 6.00 Build 0)  -->
<svg version="1.1" id="Слой_1" xmlns="http://www.w3.org/2000/svg" xmlns:xlink="http://www.w3.org/1999/xlink" x="0px" y="0px"
	 viewBox="0 0 48 48" style="enable-background:new 0 0 48 48;" xml:space="preserve">
<path d="M29.6,5.6c3.5,0,6.5,1.2,9,3.7s3.7,5.5,3.7,9h-1.5c0-1.5-0.3-2.9-0.8-4.2c-0.6-1.3-1.3-2.5-2.3-3.5l-0.9,1.5
	c-0.3,0.5-0.6,1.1-1,1.8c-0.4,0.6-0.8,1.2-1.2,1.7C34.3,15.8,34,16,33.7,16s-0.7-0.1-0.9-0.4c-0.3-0.2-0.4-0.6-0.4-0.9
	c0-0.4,0.1-0.7,0.4-1c0.4-0.4,1-0.8,1.6-1.2s1.2-0.7,1.8-1l1.6-0.9c-1-1.1-2.3-1.9-3.6-2.5c-1.4-0.6-2.9-0.9-4.4-0.9
	C29.6,7.1,29.6,5.6,29.6,5.6z M24.1,42c-2.5,0-4.9-0.5-7.1-1.4c-2.2-1-4.1-2.3-5.8-3.9c-1.7-1.6-3-3.6-3.9-5.8
	c-1-2.2-1.4-4.6-1.4-7.1c0-3.9,1.1-7.4,3.4-10.5c2.2-3.1,5.2-5.3,8.9-6.5c-0.1,3.1,0.3,6.1,1.4,9s2.7,5.4,5,7.6
	c2.2,2.2,4.8,3.9,7.6,5c2.9,1.1,5.9,1.6,9,1.4c-1.2,3.7-3.4,6.6-6.5,8.9C31.6,40.9,28,42,24.1,42z"/>
</svg>
