<?xml version="1.0" encoding="utf-8"?>
<!-- Generator: Adobe Illustrator 26.3.1, SVG Export Plug-In . SVG Version: 6.00 Build 0)  -->
<svg version="1.1" id="Слой_1" xmlns="http://www.w3.org/2000/svg" xmlns:xlink="http://www.w3.org/1999/xlink" x="0px" y="0px"
	 viewBox="0 0 48 48" style="enable-background:new 0 0 48 48;" xml:space="preserve">
<path d="M9,38c-0.8,0-1.5-0.3-2.1-0.9C6.3,36.5,6,35.8,6,35V14.8h1.5v20.5c0,0.4,0.1,0.7,0.3,0.9c0.2,0.2,0.5,0.3,0.9,0.3H36V38H9z
	 M15,32c-0.8,0-1.5-0.3-2.1-0.9S12,29.8,12,29V13c0-0.8,0.3-1.5,0.9-2.1c0.6-0.6,1.3-0.9,2.1-0.9h15.1l-1.5,1.5H14.8
	c-0.4,0-0.7,0.1-0.9,0.3s-0.3,0.5-0.3,0.9v16.5c0,0.4,0.1,0.7,0.3,0.9c0.2,0.2,0.5,0.3,0.9,0.3h24.5c0.4,0,0.7-0.1,0.9-0.3
	c0.2-0.2,0.3-0.5,0.3-0.9V15.4l1.5-1.5V29c0,0.8-0.3,1.5-0.9,2.1C40.5,31.7,39.8,32,39,32H15z M26,23.1c-0.5,0-0.9-0.1-1.3-0.3
	c-0.4-0.2-0.8-0.4-1-0.8c0.4,0,0.7-0.1,1.1-0.3c0.3-0.2,0.5-0.5,0.5-0.8c0-0.4,0.2-0.8,0.5-1.1c0.3-0.3,0.7-0.5,1.2-0.5
	c0.4,0,0.8,0.2,1.1,0.5c0.3,0.3,0.5,0.7,0.5,1.1c0,0.6-0.2,1.1-0.7,1.5C27.2,22.9,26.6,23.1,26,23.1z M30.4,19.3l-1.8-1.8l9-8.9
	c0.1-0.1,0.3-0.2,0.5-0.2s0.4,0.1,0.5,0.2l0.8,0.8c0.1,0.1,0.2,0.3,0.2,0.5s-0.1,0.4-0.2,0.5L30.4,19.3z"/>
</svg>
