<?xml version="1.0" encoding="utf-8"?>
<!-- Generator: Adobe Illustrator 26.3.1, SVG Export Plug-In . SVG Version: 6.00 Build 0)  -->
<svg version="1.1" id="Слой_1" xmlns="http://www.w3.org/2000/svg" xmlns:xlink="http://www.w3.org/1999/xlink" x="0px" y="0px"
	 viewBox="0 0 48 48" style="enable-background:new 0 0 48 48;" xml:space="preserve">
<path d="M9.8,35.1c-1.2-1.5-2-3-2.6-4.4c-0.6-1.5-0.9-3.1-1.1-4.9h1.6c0.2,1.5,0.6,3,1.1,4.3c0.6,1.4,1.3,2.6,2.2,3.8L9.8,35.1z
	 M6.1,21.8C6.2,20,6.6,18.4,7.2,17c0.6-1.5,1.5-2.9,2.6-4.4l1.2,1.1c-0.9,1.2-1.7,2.5-2.2,3.8c-0.6,1.4-0.9,2.8-1.1,4.3
	C7.7,21.8,6.1,21.8,6.1,21.8z M22,41.7c-1.9-0.3-3.6-0.8-5-1.3c-1.4-0.6-2.8-1.4-4.3-2.5l1.2-1.2c1.1,0.8,2.4,1.6,3.8,2.2
	c1.4,0.6,2.8,1,4.4,1.3C22,40.2,22,41.7,22,41.7z M14,10.7l-1.2-1.2c1.5-1.1,3-1.9,4.4-2.4s3.1-1,5-1.3v1.5c-1.5,0.2-3,0.6-4.4,1.2
	C16.4,9.1,15.1,9.8,14,10.7z M20.2,30.7V16.8l10.9,6.9C31.1,23.8,20.2,30.7,20.2,30.7z M26.1,41.7v-1.5c4.1-0.6,7.6-2.4,10.3-5.5
	s4.1-6.7,4.1-10.9s-1.4-7.8-4.1-10.9C33.7,9.8,30.2,8,26.1,7.4V5.8c4.6,0.5,8.4,2.4,11.4,5.9c3,3.4,4.5,7.5,4.5,12.1
	s-1.5,8.7-4.5,12.1C34.5,39.3,30.7,41.3,26.1,41.7z"/>
</svg>
