<?xml version="1.0" encoding="utf-8"?>
<!-- Generator: Adobe Illustrator 26.3.1, SVG Export Plug-In . SVG Version: 6.00 Build 0)  -->
<svg version="1.1" id="Слой_1" xmlns="http://www.w3.org/2000/svg" xmlns:xlink="http://www.w3.org/1999/xlink" x="0px" y="0px"
	 viewBox="0 0 48 48" style="enable-background:new 0 0 48 48;" xml:space="preserve">
<path d="M42.5,42.3l-2.8-2.8H6V36c0-0.8,0.3-1.4,0.8-2c0.5-0.5,1.2-0.8,2-0.8h24.7L29.2,29H11.7V11.5l-8-8l1.2-1.1l38.8,38.8
	C43.6,41.2,42.5,42.3,42.5,42.3z M14.5,3.5h19c0.8,0,1.4,0.3,2,0.8c0.5,0.5,0.8,1.2,0.8,2V28h-0.9l-7.6-7.7c0.7-0.1,1.3-0.3,1.8-0.8
	s0.7-1.1,0.7-1.8c0-0.7-0.3-1.4-0.8-1.9C29,15.3,28.4,15,27.6,15c-0.7,0-1.3,0.2-1.8,0.7c-0.5,0.5-0.8,1-0.9,1.7L12.3,4.7
	c0.2-0.3,0.5-0.6,0.9-0.9C13.6,3.7,14,3.5,14.5,3.5z M16.5,24.2h1.1c0.8,0,1.5-0.3,2-0.9s0.9-1.5,1.2-2.7l-4.4-4.3
	C16.5,16.3,16.5,24.2,16.5,24.2z"/>
</svg>
