<?xml version="1.0" encoding="utf-8"?>
<!-- Generator: Adobe Illustrator 26.3.1, SVG Export Plug-In . SVG Version: 6.00 Build 0)  -->
<svg version="1.1" id="Слой_1" xmlns="http://www.w3.org/2000/svg" xmlns:xlink="http://www.w3.org/1999/xlink" x="0px" y="0px"
	 viewBox="0 0 48 48" style="enable-background:new 0 0 48 48;" xml:space="preserve">
<path d="M6,42v-3.5c0-0.8,0.3-1.4,0.8-1.9c0.6-0.6,1.2-0.9,2-0.9h30.5c0.7,0,1.4,0.3,1.9,0.8c0.6,0.6,0.8,1.2,0.8,1.9V42H6z
	 M11.7,31.5V8.8c0-0.8,0.3-1.4,0.8-2C13,6.3,13.7,6,14.5,6h19c0.8,0,1.4,0.3,2,0.8c0.5,0.5,0.8,1.2,0.8,2v22.7H11.7z M16.5,26.7h1.1
	c1.1,0,2-0.6,2.6-1.7s0.9-2.7,0.9-4.8s-0.3-3.7-0.9-4.8s-1.5-1.7-2.6-1.7h-1.1C16.5,13.6,16.5,26.7,16.5,26.7z M27.8,22.9
	c0.7,0,1.4-0.3,1.9-0.8s0.8-1.2,0.8-1.9s-0.3-1.4-0.8-1.9s-1.1-0.8-1.9-0.8s-1.4,0.3-1.9,0.8s-0.8,1.1-0.8,1.9
	c0,0.7,0.3,1.4,0.8,1.9S27.1,22.9,27.8,22.9z"/>
</svg>
