<?xml version="1.0" encoding="utf-8"?>
<!-- Generator: Adobe Illustrator 26.3.1, SVG Export Plug-In . SVG Version: 6.00 Build 0)  -->
<svg version="1.1" id="Слой_1" xmlns="http://www.w3.org/2000/svg" xmlns:xlink="http://www.w3.org/1999/xlink" x="0px" y="0px"
	 viewBox="0 0 48 48" style="enable-background:new 0 0 48 48;" xml:space="preserve">
<path d="M14.8,44c-0.7,0-1.4-0.3-1.9-0.8c-0.6-0.6-0.9-1.2-0.9-2V6.8c0-0.7,0.3-1.4,0.8-1.9C13.4,4.3,14,4,14.8,4h18.5
	c0.7,0,1.4,0.3,1.9,0.8C35.7,5.4,36,6,36,6.8v3.1H13.5v28.3H36v3.1c0,0.7-0.3,1.4-0.8,1.9c-0.6,0.5-1.2,0.8-2,0.8H14.8z M29.2,30.8
	c-0.7,0-1.3-0.3-1.8-0.8s-0.8-1.1-0.8-1.8v-6.8c0-0.7,0.3-1.3,0.8-1.8s1.1-0.8,1.8-0.8h1.7l1.7-1.7H36l1.7,1.7h1.7
	c0.7,0,1.3,0.3,1.8,0.8s0.8,1.1,0.8,1.8v6.8c0,0.7-0.3,1.3-0.8,1.8s-1.1,0.8-1.8,0.8H29.2z M34.3,27.8c0.8,0,1.5-0.3,2.1-0.9
	s0.9-1.3,0.9-2.1c0-0.8-0.3-1.5-0.9-2.1c-0.6-0.6-1.3-0.9-2.1-0.9s-1.5,0.3-2.1,0.9c-0.6,0.6-0.9,1.3-0.9,2.1c0,0.8,0.3,1.5,0.9,2.1
	C32.8,27.5,33.5,27.8,34.3,27.8z"/>
</svg>
