<?xml version="1.0" encoding="utf-8"?>
<!-- Generator: Adobe Illustrator 26.3.1, SVG Export Plug-In . SVG Version: 6.00 Build 0)  -->
<svg version="1.1" id="Слой_1" xmlns="http://www.w3.org/2000/svg" xmlns:xlink="http://www.w3.org/1999/xlink" x="0px" y="0px"
	 viewBox="0 0 48 48" style="enable-background:new 0 0 48 48;" xml:space="preserve">
<path d="M22.2,25.6h9.4c0.6,0,1.1-0.2,1.6-0.6c0.4-0.4,0.6-0.9,0.6-1.6c0-0.6-0.2-1.2-0.6-1.6c-0.4-0.4-0.9-0.7-1.6-0.7h-1.3
	L30.1,20c-0.1-0.9-0.5-1.6-1.2-2.2s-1.5-0.9-2.4-0.9c-0.7,0-1.4,0.2-2,0.6s-1,0.9-1.3,1.5l-0.3,0.8H22c-0.8,0-1.4,0.3-1.9,0.9
	s-0.8,1.2-0.8,2s0.3,1.5,0.9,2.1C20.7,25.3,21.4,25.6,22.2,25.6z M6.8,39.5c-0.8,0-1.4-0.3-2-0.8c-0.5-0.5-0.8-1.2-0.8-2V15.5h1.5
	v21.3c0,0.3,0.1,0.6,0.4,0.8C6.2,37.9,6.5,38,6.8,38h32v1.5H6.8z M11.8,34.5c-0.8,0-1.4-0.3-2-0.8c-0.5-0.5-0.8-1.2-0.8-2V8.8
	c0-0.8,0.3-1.4,0.8-2C10.3,6.3,11,6,11.8,6H24l2,2h15.2c0.8,0,1.4,0.3,2,0.8c0.5,0.5,0.8,1.2,0.8,2v20.9c0,0.8-0.3,1.4-0.8,2
	c-0.5,0.5-1.2,0.8-2,0.8H11.8z"/>
</svg>
