<?xml version="1.0" encoding="utf-8"?>
<!-- Generator: Adobe Illustrator 26.3.1, SVG Export Plug-In . SVG Version: 6.00 Build 0)  -->
<svg version="1.1" id="Слой_1" xmlns="http://www.w3.org/2000/svg" xmlns:xlink="http://www.w3.org/1999/xlink" x="0px" y="0px"
	 viewBox="0 0 48 48" style="enable-background:new 0 0 48 48;" xml:space="preserve">
<path d="M15.7,21.5c0.4,0,0.8-0.2,1.1-0.5s0.5-0.7,0.5-1.1s-0.2-0.8-0.5-1.1c-0.3-0.3-0.7-0.5-1.1-0.5s-0.8,0.2-1.1,0.5
	s-0.4,0.7-0.4,1.1s0.1,0.8,0.4,1.1C14.9,21.3,15.2,21.5,15.7,21.5z M24.1,21.5c0.4,0,0.8-0.2,1.1-0.5c0.3-0.3,0.5-0.7,0.5-1.1
	s-0.2-0.8-0.5-1.1c-0.3-0.3-0.7-0.5-1.1-0.5s-0.8,0.2-1.1,0.5c-0.3,0.3-0.5,0.7-0.5,1.1s0.2,0.8,0.5,1.1
	C23.3,21.3,23.7,21.5,24.1,21.5z M32.3,21.5c0.4,0,0.8-0.2,1.1-0.5s0.5-0.7,0.5-1.1s-0.2-0.8-0.5-1.1c-0.3-0.3-0.7-0.5-1.1-0.5
	c-0.4,0-0.8,0.2-1.1,0.5s-0.5,0.7-0.5,1.1s0.2,0.8,0.5,1.1C31.5,21.3,31.9,21.5,32.3,21.5z M6,40.2V8.8c0-0.8,0.3-1.4,0.8-2
	C7.3,6.3,8,6,8.8,6h30.5c0.8,0,1.4,0.3,2,0.8C41.7,7.3,42,8,42,8.8v22.5c0,0.8-0.3,1.4-0.8,2c-0.5,0.5-1.2,0.8-2,0.8h-27L6,40.2z"/>
</svg>
