<?xml version="1.0" encoding="utf-8"?>
<!-- Generator: Adobe Illustrator 26.3.1, SVG Export Plug-In . SVG Version: 6.00 Build 0)  -->
<svg version="1.1" id="Слой_1" xmlns="http://www.w3.org/2000/svg" xmlns:xlink="http://www.w3.org/1999/xlink" x="0px" y="0px"
	 viewBox="0 0 48 48" style="enable-background:new 0 0 48 48;" xml:space="preserve">
<path d="M23.2,23.1h1.5V10.8h-1.5V23.1z M24,28.7c0.3,0,0.6-0.1,0.8-0.3s0.3-0.5,0.3-0.8s-0.1-0.5-0.3-0.8c-0.2-0.2-0.4-0.3-0.8-0.3
	s-0.6,0.1-0.8,0.3c-0.2,0.2-0.3,0.5-0.3,0.8s0.1,0.6,0.3,0.8S23.7,28.7,24,28.7z M6,40.2V8.8c0-0.8,0.3-1.5,0.8-2S8,6,8.8,6h30.5
	c0.8,0,1.4,0.3,2,0.8S42,8,42,8.8v22.5c0,0.8-0.3,1.4-0.8,2S40,34,39.2,34H12.1L6,40.2z"/>
</svg>
