<?xml version="1.0" encoding="utf-8"?>
<!-- Generator: Adobe Illustrator 26.3.1, SVG Export Plug-In . SVG Version: 6.00 Build 0)  -->
<svg version="1.1" id="Слой_1" xmlns="http://www.w3.org/2000/svg" xmlns:xlink="http://www.w3.org/1999/xlink" x="0px" y="0px"
	 viewBox="0 0 48 48" style="enable-background:new 0 0 48 48;" xml:space="preserve">
<path d="M19.7,31.3h8.6v-1.5h-6.7l6.7-7.5v-1.8h-8.6V22h6.8l-6.8,7.6C19.7,29.6,19.7,31.3,19.7,31.3z M24,41.9
	c-2.2,0-4.3-0.4-6.2-1.2c-1.9-0.8-3.6-2-5.1-3.4c-1.4-1.4-2.6-3.1-3.4-5.1S8,28.2,8,26s0.4-4.3,1.3-6.2s2-3.6,3.4-5.1
	s3.1-2.6,5.1-3.4c1.9-0.8,4-1.2,6.2-1.2s4.2,0.4,6.2,1.2c1.9,0.8,3.6,2,5.1,3.4c1.5,1.5,2.6,3.2,3.4,5.1c0.8,1.9,1.2,4,1.2,6.2
	s-0.4,4.3-1.2,6.2s-2,3.6-3.4,5.1c-1.5,1.4-3.2,2.6-5.1,3.4C28.2,41.5,26.2,41.9,24,41.9z M11.6,6.8l1.1,1.1l-6.8,6.7l-1.1-1.1
	L11.6,6.8z M36.4,6.8l6.9,6.7l-1.1,1.1l-6.8-6.7L36.4,6.8z"/>
</svg>
