<?xml version="1.0" encoding="utf-8"?>
<!-- Generator: Adobe Illustrator 26.3.1, SVG Export Plug-In . SVG Version: 6.00 Build 0)  -->
<svg version="1.1" id="Слой_1" xmlns="http://www.w3.org/2000/svg" xmlns:xlink="http://www.w3.org/1999/xlink" x="0px" y="0px"
	 viewBox="0 0 48 48" style="enable-background:new 0 0 48 48;" xml:space="preserve">
<path d="M12.4,39.8L6,33.4l6.4-6.4l1.2,1.2l-4.3,4.3h29.5l-4.3-4.3l1.2-1.2l6.4,6.4l-6.4,6.4l-1.2-1.2l4.3-4.3H9.3l4.3,4.3
	C13.6,38.6,12.4,39.8,12.4,39.8z M6,20.6v-0.1c0-0.5,0.2-1,0.5-1.4s0.7-0.7,1.2-1c0.8-0.3,1.6-0.6,2.5-0.8c0.9-0.2,1.7-0.3,2.6-0.3
	s1.8,0.1,2.6,0.3c0.8,0.2,1.7,0.4,2.5,0.8c0.5,0.2,0.9,0.6,1.2,1c0.3,0.4,0.5,0.9,0.5,1.4v0.1H6z M28.5,20.6v-0.1
	c0-0.5,0.2-1,0.5-1.4s0.7-0.7,1.3-1c0.8-0.3,1.6-0.6,2.4-0.8c0.8-0.2,1.7-0.3,2.6-0.3c0.9,0,1.8,0.1,2.6,0.3
	c0.8,0.2,1.7,0.4,2.4,0.8c0.5,0.2,0.9,0.6,1.2,1S42,20,42,20.5v0.1H28.5z M12.8,13.5c-0.8,0-1.5-0.3-2.1-0.9c-0.6-0.6-0.9-1.2-0.9-2
	s0.3-1.5,0.9-2C11.3,8,12,7.8,12.8,7.8s1.5,0.3,2,0.9c0.5,0.6,0.8,1.2,0.8,2s-0.3,1.5-0.8,2C14.2,13.3,13.6,13.5,12.8,13.5z
	 M35.2,13.5c-0.8,0-1.5-0.3-2-0.9c-0.5-0.6-0.8-1.2-0.8-2s0.3-1.5,0.8-2c0.6-0.6,1.2-0.8,2-0.8s1.5,0.3,2.1,0.9
	c0.6,0.6,0.8,1.2,0.8,2s-0.3,1.5-0.9,2C36.7,13.3,36,13.5,35.2,13.5z"/>
</svg>
