<?xml version="1.0" encoding="utf-8"?>
<!-- Generator: Adobe Illustrator 26.3.1, SVG Export Plug-In . SVG Version: 6.00 Build 0)  -->
<svg version="1.1" id="Слой_1" xmlns="http://www.w3.org/2000/svg" xmlns:xlink="http://www.w3.org/1999/xlink" x="0px" y="0px"
	 viewBox="0 0 48 48" style="enable-background:new 0 0 48 48;" xml:space="preserve">
<path d="M14.9,40c-2.5,0-4.6-0.9-6.3-2.6C6.9,35.6,6,33.5,6,31c0-2.4,0.8-4.5,2.5-6.3c1.7-1.7,3.8-2.6,6.2-2.7c0.3,0,0.5,0,0.8,0.1
	c0.3,0,0.5,0.1,0.8,0.1L9.7,9.1h9.5l4.8,9.5l4.8-9.5h9.5l-6.5,13.1c0.2-0.1,0.5-0.1,0.7-0.1s0.5,0,0.8,0c2.4,0.1,4.5,1,6.2,2.7
	s2.5,3.8,2.5,6.3s-0.9,4.6-2.6,6.4C37.6,39.1,35.5,40,33,40c-0.4,0-0.8,0-1.2-0.1c-0.4,0-0.8-0.1-1.1-0.2c1.5-0.8,2.6-1.9,3.3-3.6
	c0.7-1.6,1-3.3,1-5.1c0-3.1-1.1-5.7-3.2-7.8S27.1,20,24,20s-5.7,1.1-7.8,3.2S13,27.9,13,31c0,1.8,0.3,3.6,0.9,5.2
	c0.6,1.7,1.7,2.8,3.3,3.5c-0.4,0.1-0.8,0.2-1.1,0.2C15.7,40,15.4,40,14.9,40z M24,40.5c-2.6,0-4.9-0.9-6.7-2.8
	c-1.8-1.8-2.8-4.1-2.8-6.7s0.9-4.9,2.8-6.7c1.8-1.8,4.1-2.8,6.7-2.8s4.9,0.9,6.7,2.8c1.8,1.8,2.8,4.1,2.8,6.7s-0.9,4.9-2.8,6.7
	C28.9,39.5,26.6,40.5,24,40.5z M20.9,35.6l3.1-2.4l3.1,2.4L26,31.7l3.1-2.2h-3.9L24,25.4l-1.2,4.1h-3.9l3.1,2.2L20.9,35.6z"/>
</svg>
