<?xml version="1.0" encoding="utf-8"?>
<!-- Generator: Adobe Illustrator 26.3.1, SVG Export Plug-In . SVG Version: 6.00 Build 0)  -->
<svg version="1.1" id="Слой_1" xmlns="http://www.w3.org/2000/svg" xmlns:xlink="http://www.w3.org/1999/xlink" x="0px" y="0px"
	 viewBox="0 0 48 48" style="enable-background:new 0 0 48 48;" xml:space="preserve">
<path d="M9.8,35c-1.2-1.5-2.2-3.2-2.8-5.1C6.3,28,6,26,6,24c0-4.7,1.6-8.7,4.7-12.1s6.9-5.3,11.4-5.8v1.5C18,8.1,14.5,9.9,11.7,13
	s-4.2,6.7-4.2,11c0,1.9,0.3,3.7,0.9,5.4C9,31,9.8,32.6,10.9,34L9.8,35z M24,42c-2.2,0-4.2-0.4-6.1-1.1c-1.9-0.7-3.7-1.7-5.2-3
	l1.1-1.1c1.4,1.1,3,2,4.7,2.6s3.6,0.9,5.5,0.9c2,0,3.8-0.3,5.5-1c1.7-0.6,3.3-1.5,4.8-2.7l1.1,1.1c-1.6,1.3-3.3,2.3-5.3,3
	C28.2,41.6,26.2,42,24,42z M38.2,35l-1.1-1.1c1.1-1.4,1.9-2.9,2.5-4.6s0.9-3.4,0.9-5.3c0-4.2-1.4-7.9-4.2-10.9
	C33.5,10,30.1,8.2,26,7.7V6.1c4.5,0.5,8.3,2.5,11.4,5.8C40.5,15.3,42,19.3,42,24c0,2.1-0.3,4-1,5.9S39.4,33.5,38.2,35z M20.2,30.7
	V16.8l10.9,6.9C31.1,23.8,20.2,30.7,20.2,30.7z"/>
</svg>
