<?xml version="1.0" encoding="utf-8"?>
<!-- Generator: Adobe Illustrator 26.3.1, SVG Export Plug-In . SVG Version: 6.00 Build 0)  -->
<svg version="1.1" id="Слой_1" xmlns="http://www.w3.org/2000/svg" xmlns:xlink="http://www.w3.org/1999/xlink" x="0px" y="0px"
	 viewBox="0 0 48 48" style="enable-background:new 0 0 48 48;" xml:space="preserve">
<path d="M31.1,32.8h-7.4L18,38.5c-0.5,0.5-1.2,0.8-2,0.8c-0.8,0-1.4-0.3-2-0.8l-4.6-4.6C9,33.4,8.7,32.7,8.7,32c0-0.8,0.3-1.4,0.8-2
	l5.7-5.6V17L31.1,32.8z M16.3,10.4c3.1-1.6,6.4-2.2,9.8-1.7s6.4,1.9,8.8,4.4c2.5,2.5,3.9,5.4,4.4,8.8s-0.1,6.7-1.7,9.8l-1.2-1.2
	c1.4-2.8,1.8-5.6,1.3-8.6s-1.8-5.6-3.9-7.7c-2.2-2.2-4.7-3.5-7.7-3.9c-3-0.5-5.9,0-8.6,1.4C17.5,11.6,16.3,10.4,16.3,10.4z M21.9,16
	c1.4-0.3,2.8-0.3,4.2,0.1c1.4,0.4,2.6,1.1,3.7,2.1c1,1,1.7,2.3,2.1,3.7c0.4,1.4,0.4,2.8,0,4.2l-1.3-1.3c0.1-1-0.1-2-0.4-2.9
	c-0.3-1-0.8-1.8-1.6-2.5c-0.7-0.7-1.6-1.3-2.5-1.6c-0.9-0.3-1.9-0.4-2.9-0.3L21.9,16z"/>
</svg>
