<?xml version="1.0" encoding="utf-8"?>
<!-- Generator: Adobe Illustrator 26.3.1, SVG Export Plug-In . SVG Version: 6.00 Build 0)  -->
<svg version="1.1" id="Слой_1" xmlns="http://www.w3.org/2000/svg" xmlns:xlink="http://www.w3.org/1999/xlink" x="0px" y="0px"
	 viewBox="0 0 48 48" style="enable-background:new 0 0 48 48;" xml:space="preserve">
<path d="M11.2,26.4c0.2-0.4,0.3-0.8,0.4-1.1c0.1-0.4,0.1-0.8,0.1-1.3c0-1.2-0.3-2.4-1-3.6s-1-2.4-1-3.6c0-0.3,0-0.6,0.1-1
	s0.2-0.8,0.4-1.1h1.5c-0.2,0.4-0.3,0.7-0.4,1.1c-0.1,0.4-0.1,0.7-0.1,1c0,1.1,0.3,2.3,1,3.5s1,2.5,1,3.7c0,0.5,0,0.9-0.1,1.3
	s-0.2,0.8-0.4,1.1H11.2z M24.2,26.4c0.2-0.4,0.3-0.8,0.4-1.1c0.1-0.4,0.1-0.8,0.1-1.3c0-1.2-0.3-2.4-1-3.6s-1-2.4-1-3.6
	c0-0.3,0-0.6,0.1-1s0.2-0.8,0.4-1.1h1.5c-0.2,0.4-0.3,0.7-0.4,1.1c-0.1,0.4-0.1,0.7-0.1,1c0,1.1,0.3,2.3,1,3.5s1,2.5,1,3.7
	c0,0.5,0,0.9-0.1,1.3s-0.2,0.8-0.4,1.1C25.8,26.4,24.2,26.4,24.2,26.4z M17.7,26.4c0.2-0.4,0.3-0.8,0.4-1.1c0.1-0.4,0.1-0.8,0.1-1.3
	c0-1.2-0.3-2.4-1-3.6s-1-2.4-1-3.6c0-0.3,0-0.6,0.1-1s0.2-0.8,0.4-1.1h1.5c-0.2,0.4-0.3,0.7-0.4,1.1c-0.1,0.4-0.1,0.7-0.1,1
	c0,1.1,0.3,2.3,1,3.5s1,2.5,1,3.7c0,0.5,0,0.9-0.1,1.3s-0.2,0.8-0.4,1.1C19.3,26.4,17.7,26.4,17.7,26.4z M19.5,43
	c-3.1,0-5.8-1.1-8.2-3.2c-2.4-2.1-3.8-4.7-4.3-7.7c0-0.3,0-0.5,0.1-0.6c0.1-0.2,0.3-0.2,0.6-0.2h22.6l2.3-22c0.1-1.2,0.7-2.2,1.6-3
	s2-1.3,3.2-1.3c1.3,0,2.5,0.5,3.4,1.4s1.4,2.1,1.4,3.4c0,0.2,0,0.4,0,0.7s0,0.6-0.1,1l-1.5-0.2c0-0.2,0.1-0.4,0.1-0.7s0-0.5,0-0.7
	c0-0.9-0.3-1.7-0.9-2.3c-0.6-0.6-1.4-0.9-2.3-0.9c-0.9,0-1.6,0.3-2.2,0.8c-0.6,0.6-0.9,1.2-1,2.1l-2.3,22c-0.3,3.3-1.7,6-4,8.2
	C25.5,41.9,22.7,43,19.5,43z"/>
</svg>
