<?xml version="1.0" encoding="utf-8"?>
<!-- Generator: Adobe Illustrator 26.3.1, SVG Export Plug-In . SVG Version: 6.00 Build 0)  -->
<svg version="1.1" id="Слой_1" xmlns="http://www.w3.org/2000/svg" xmlns:xlink="http://www.w3.org/1999/xlink" x="0px" y="0px"
	 viewBox="0 0 48 48" style="enable-background:new 0 0 48 48;" xml:space="preserve">
<path d="M15,17h18v-1.5H15V17z M36,45.4c-2.1,0-4-0.6-5.7-1.9c-1.7-1.3-2.8-2.9-3.3-4.8h1.9c0.5,1.5,1.4,2.7,2.7,3.6
	c1.3,0.9,2.7,1.4,4.4,1.4c2.1,0,3.9-0.7,5.4-2.2s2.2-3.3,2.2-5.4s-0.7-3.9-2.2-5.4c-1.5-1.5-3.3-2.2-5.4-2.2c-1.2,0-2.4,0.3-3.5,0.9
	c-1.1,0.6-2.1,1.4-2.9,2.3h3.8v1.8h-6.8v-6.8h1.8v3.7c1-1.1,2.1-2,3.4-2.7c1.3-0.7,2.7-1,4.2-1c2.6,0,4.8,0.9,6.6,2.7s2.7,4,2.7,6.6
	s-0.9,4.8-2.7,6.6C40.8,44.5,38.6,45.4,36,45.4z M21.7,40H10.8c-0.8,0-1.4-0.3-1.9-0.8S8,38,8,37.2V10.8c0-0.8,0.3-1.4,0.8-2
	C9.4,8.3,10,8,10.8,8h26.5c0.8,0,1.4,0.3,1.9,0.8c0.5,0.6,0.8,1.2,0.8,2v10.9c-0.6-0.2-1.3-0.3-2-0.5c-0.7-0.1-1.3-0.2-2-0.2
	c-1.4,0-2.8,0.2-4.1,0.6c-1.3,0.4-2.5,0.9-3.6,1.6H15v1.5h11.1c-0.9,0.8-1.8,1.8-2.5,2.8s-1.3,2.2-1.7,3.4H15v1.5h6.5
	c-0.1,0.6-0.2,1.1-0.3,1.7c-0.1,0.6-0.1,1.2-0.1,1.8c0,0.7,0,1.4,0.1,2C21.3,38.7,21.5,39.3,21.7,40z"/>
</svg>
