<?xml version="1.0" encoding="utf-8"?>
<!-- Generator: Adobe Illustrator 26.3.1, SVG Export Plug-In . SVG Version: 6.00 Build 0)  -->
<svg version="1.1" id="Слой_1" xmlns="http://www.w3.org/2000/svg" xmlns:xlink="http://www.w3.org/1999/xlink" x="0px" y="0px"
	 viewBox="0 0 48 48" style="enable-background:new 0 0 48 48;" xml:space="preserve">
<path d="M24.9,41.9c-2.5-0.2-4.8-0.9-6.9-2s-4-2.4-5.6-4.2C10.8,34,9.5,32,8.6,29.6c-1-2.4-1.5-5.1-1.7-8C9.4,21.5,11.8,22,14,23
	s4.1,2.4,5.7,4.2c1.6,1.8,2.9,4,3.8,6.5C24.5,36.1,24.9,38.9,24.9,41.9z M24,30.6c-0.8-1.4-1.7-2.7-2.6-3.8c-0.9-1.1-1.9-2.1-3-3
	c0.1-1.3,0.2-2.7,0.5-4c0.3-1.4,0.7-2.7,1.2-4.1c0.5-1.3,1.1-2.6,1.7-3.9c0.6-1.2,1.4-2.3,2.1-3.3c0.7,0.9,1.5,2,2.1,3.3
	c0.7,1.2,1.2,2.5,1.7,3.9s0.9,2.8,1.2,4.2c0.3,1.4,0.5,2.8,0.6,4.1c-1.1,0.7-2.2,1.7-3.2,2.9C25.3,28.1,24.5,29.4,24,30.6z
	 M26.5,41.5c0-1.4-0.2-2.9-0.5-4.5s-0.7-3.1-1.2-4.5c1.3-3.1,3.5-5.7,6.7-7.9c3.2-2.1,6.4-3.2,9.7-3.1c-0.3,5.3-1.7,9.5-4.1,12.7
	C34.6,37.4,31.1,39.9,26.5,41.5z"/>
</svg>
