<?xml version="1.0" encoding="utf-8"?>
<!-- Generator: Adobe Illustrator 26.3.1, SVG Export Plug-In . SVG Version: 6.00 Build 0)  -->
<svg version="1.1" id="Слой_1" xmlns="http://www.w3.org/2000/svg" xmlns:xlink="http://www.w3.org/1999/xlink" x="0px" y="0px"
	 viewBox="0 0 48 48" style="enable-background:new 0 0 48 48;" xml:space="preserve">
<path d="M44.9,19.3c-2.2,0-4.3-0.4-6.4-1.3c-2-0.8-3.8-2-5.4-3.6c-1.6-1.5-2.8-3.3-3.6-5.4c-0.8-2-1.3-4.1-1.3-6.4h1.6
	c0,2,0.4,3.9,1.2,5.8c0.8,1.8,1.9,3.5,3.2,4.9c1.4,1.4,3,2.5,4.9,3.2c1.8,0.8,3.8,1.1,5.8,1.1C44.9,17.7,44.9,19.3,44.9,19.3z
	 M44.9,9.8c-0.9,0-1.9-0.2-2.7-0.5c-0.9-0.4-1.6-0.9-2.3-1.5c-0.7-0.7-1.2-1.4-1.6-2.3c-0.4-0.9-0.6-1.8-0.6-2.7h1.6
	c0,0.7,0.1,1.4,0.4,2.1c0.3,0.7,0.7,1.3,1.2,1.8s1.1,0.9,1.8,1.2c0.7,0.3,1.4,0.4,2.1,0.4C44.9,8.2,44.9,9.8,44.9,9.8z M20.2,24
	c-1.6,0-3-0.5-4.1-1.6s-1.6-2.5-1.6-4.1c0-1.7,0.5-3.1,1.6-4.1c1.1-1.1,2.5-1.6,4.1-1.6s3,0.5,4.1,1.6s1.6,2.5,1.6,4.1
	s-0.5,3-1.6,4.1C23.2,23.4,21.8,24,20.2,24z M6.2,38.5v-2.9c0-1,0.2-1.8,0.7-2.4c0.5-0.6,1.2-1.2,2-1.6c1.6-0.8,3.5-1.4,5.5-1.9
	c2.1-0.5,4-0.7,5.7-0.7c1.7,0,3.6,0.2,5.7,0.7s3.9,1.1,5.6,1.9c0.8,0.4,1.5,0.9,2,1.6c0.5,0.6,0.7,1.4,0.7,2.4v2.9
	C34.2,38.5,6.2,38.5,6.2,38.5z"/>
</svg>
