<?xml version="1.0" encoding="utf-8"?>
<!-- Generator: Adobe Illustrator 26.3.1, SVG Export Plug-In . SVG Version: 6.00 Build 0)  -->
<svg version="1.1" id="Слой_1" xmlns="http://www.w3.org/2000/svg" xmlns:xlink="http://www.w3.org/1999/xlink" x="0px" y="0px"
	 viewBox="0 0 48 48" style="enable-background:new 0 0 48 48;" xml:space="preserve">
<path d="M37.5,26.9l1.1-1.1c-1.4-1.5-2.6-3.2-3.4-5.1c-0.8-1.9-1.2-3.9-1.2-6s0.4-4.1,1.2-6s2-3.6,3.4-5.1l-1.1-1.1
	C35.9,4,34.6,5.9,33.8,8c-0.9,2.1-1.3,4.3-1.3,6.6s0.4,4.5,1.3,6.6C34.6,23.3,35.8,25.2,37.5,26.9z M44.6,19.8l1.1-1.1
	c-0.5-0.6-0.9-1.2-1.2-1.9c-0.3-0.7-0.4-1.4-0.4-2.2c0-0.7,0.1-1.5,0.4-2.2c0.3-0.7,0.7-1.3,1.2-1.9l-1.1-1.1
	c-0.7,0.7-1.2,1.5-1.6,2.4c-0.4,0.9-0.5,1.8-0.5,2.8s0.2,1.9,0.6,2.8C43.4,18.3,43.9,19.1,44.6,19.8z M19.4,24c-1.7,0-3-0.5-4.1-1.6
	s-1.6-2.5-1.6-4.1c0-1.7,0.5-3.1,1.6-4.2s2.5-1.6,4.1-1.6c1.7,0,3,0.5,4.1,1.6s1.6,2.5,1.6,4.2s-0.5,3-1.6,4.1
	C22.5,23.4,21.1,24,19.4,24z M5.4,38.5v-2.9c0-1,0.2-1.8,0.7-2.4c0.5-0.6,1.2-1.2,2-1.6c1.6-0.8,3.5-1.4,5.5-1.9
	c2.1-0.5,4-0.7,5.7-0.7c1.7,0,3.6,0.2,5.7,0.7s3.9,1.1,5.6,1.9c0.8,0.4,1.5,0.9,2,1.6c0.5,0.6,0.7,1.4,0.7,2.4v2.9
	C33.4,38.5,5.4,38.5,5.4,38.5z"/>
</svg>
