<?xml version="1.0" encoding="utf-8"?>
<!-- Generator: Adobe Illustrator 26.3.1, SVG Export Plug-In . SVG Version: 6.00 Build 0)  -->
<svg version="1.1" id="Слой_1" xmlns="http://www.w3.org/2000/svg" xmlns:xlink="http://www.w3.org/1999/xlink" x="0px" y="0px"
	 viewBox="0 0 48 48" style="enable-background:new 0 0 48 48;" xml:space="preserve">
<path d="M17.8,38.9c-0.8,0-1.4-0.3-2-0.8c-0.5-0.5-0.8-1.2-0.8-2V6.8c0-0.8,0.3-1.4,0.8-2C16.3,4.3,17,4,17.8,4h19.4
	c0.8,0,1.4,0.3,2,0.8C39.7,5.3,40,6,40,6.8v29.4c0,0.8-0.3,1.4-0.8,2c-0.5,0.5-1.2,0.8-2,0.8C37.2,38.9,17.8,38.9,17.8,38.9z
	 M27.5,15.2c0.9,0,1.6-0.3,2.2-0.9c0.6-0.6,0.9-1.3,0.9-2.2s-0.3-1.6-0.9-2.2C29.1,9.3,28.4,9,27.5,9c-0.9,0-1.6,0.3-2.2,0.9
	c-0.6,0.6-0.9,1.3-0.9,2.2s0.3,1.6,0.9,2.2S26.7,15.2,27.5,15.2z M27.6,32.9c1.7,0,3.1-0.6,4.2-1.7c1.2-1.2,1.7-2.6,1.7-4.3
	c0-1.7-0.6-3.1-1.7-4.3c-1.2-1.2-2.6-1.7-4.2-1.7c-1.7,0-3.1,0.6-4.3,1.7c-1.2,1.2-1.8,2.6-1.8,4.3c0,1.7,0.6,3.1,1.8,4.3
	C24.5,32.4,25.9,32.9,27.6,32.9z M27.5,31.4c-1.2,0-2.3-0.4-3.1-1.3c-0.9-0.9-1.3-1.9-1.3-3.2c0-1.2,0.4-2.3,1.3-3.2
	c0.9-0.9,1.9-1.3,3.1-1.3s2.3,0.4,3.2,1.3c0.9,0.9,1.3,1.9,1.3,3.2c0,1.2-0.4,2.3-1.3,3.2C29.8,30.9,28.7,31.4,27.5,31.4z M27.2,44
	H12.8c-0.8,0-1.4-0.3-2-0.8c-0.5-0.5-0.8-1.2-0.8-2V11.1h1.5v30.2c0,0.4,0.1,0.7,0.3,0.9s0.5,0.3,0.9,0.3h14.4V44H27.2z"/>
</svg>
