<?xml version="1.0" encoding="utf-8"?>
<!-- Generator: Adobe Illustrator 26.3.1, SVG Export Plug-In . SVG Version: 6.00 Build 0)  -->
<svg version="1.1" id="Слой_1" xmlns="http://www.w3.org/2000/svg" xmlns:xlink="http://www.w3.org/1999/xlink" x="0px" y="0px"
	 viewBox="0 0 48 48" style="enable-background:new 0 0 48 48;" xml:space="preserve">
<path d="M41.5,43.4L32.1,34h-20L6,40.2V7.3h1.6l14.2,14.2h-2.2L2.6,4.6l1.1-1.1l38.8,38.8C42.6,42.3,41.5,43.4,41.5,43.4z
	 M39.2,34.1L25.9,20.7h9.2v-1.5H24.4L20,14.7h15.1v-1.5H19.4v1L11.3,6h27.9c0.8,0,1.4,0.3,2,0.8C41.7,7.3,42,8,42,8.8v22.5
	c0,0.8-0.3,1.5-0.8,2C40.7,33.7,40,34,39.2,34.1z M14.2,27.5c0.4,0,0.8-0.2,1.1-0.5s0.5-0.7,0.5-1.1s-0.2-0.8-0.5-1.1
	c-0.3-0.3-0.7-0.5-1.1-0.5s-0.8,0.2-1.1,0.5s-0.5,0.7-0.5,1.1s0.2,0.8,0.5,1.1C13.4,27.3,13.7,27.5,14.2,27.5z M14.2,21.5
	c0.4,0,0.8-0.2,1.1-0.5s0.5-0.7,0.5-1.1s-0.2-0.8-0.5-1.1c-0.3-0.3-0.7-0.5-1.1-0.5s-0.8,0.2-1.1,0.5s-0.5,0.7-0.5,1.1
	s0.2,0.8,0.5,1.1C13.4,21.3,13.7,21.5,14.2,21.5z"/>
</svg>
