<?xml version="1.0" encoding="utf-8"?>
<!-- Generator: Adobe Illustrator 26.3.1, SVG Export Plug-In . SVG Version: 6.00 Build 0)  -->
<svg version="1.1" id="Слой_1" xmlns="http://www.w3.org/2000/svg" xmlns:xlink="http://www.w3.org/1999/xlink" x="0px" y="0px"
	 viewBox="0 0 48 48" style="enable-background:new 0 0 48 48;" xml:space="preserve">
<path d="M15.9,15.8l-1.1-1.1c1.2-1.2,2.6-2.1,4.2-2.7s3.2-0.9,5-0.9s3.4,0.3,5,0.9c1.6,0.6,3,1.5,4.2,2.7l-1.1,1.1
	c-1.1-1-2.4-1.8-3.8-2.4c-1.4-0.5-2.8-0.8-4.3-0.8s-2.9,0.3-4.3,0.8C18.3,13.9,17,14.7,15.9,15.8z M11,10.7L9.9,9.6
	c1.8-1.7,3.9-3.1,6.4-4.1S21.3,4,24,4s5.2,0.5,7.7,1.5s4.6,2.4,6.4,4.1L37,10.7c-1.7-1.7-3.7-2.9-6-3.9c-2.2-0.9-4.6-1.4-7-1.4
	S19.2,6,17,6.9C14.7,7.8,12.7,9.1,11,10.7z M20.1,42.5c-0.8,0-1.4-0.3-2-0.8c-0.5-0.5-0.8-1.2-0.8-2V23.9c0-0.8,0.3-1.4,0.8-2
	c0.5-0.5,1.2-0.8,2-0.8H28c0.8,0,1.4,0.3,2,0.8c0.5,0.5,0.8,1.2,0.8,2v15.8c0,0.8-0.3,1.4-0.8,2c-0.5,0.5-1.2,0.8-2,0.8H20.1z"/>
</svg>
