<?xml version="1.0" encoding="utf-8"?>
<!-- Generator: Adobe Illustrator 26.3.1, SVG Export Plug-In . SVG Version: 6.00 Build 0)  -->
<svg version="1.1" id="Слой_1" xmlns="http://www.w3.org/2000/svg" xmlns:xlink="http://www.w3.org/1999/xlink" x="0px" y="0px"
	 viewBox="0 0 48 48" style="enable-background:new 0 0 48 48;" xml:space="preserve">
<path d="M8,40v-3.5h10.3c-3-1.2-5.5-3.1-7.3-5.8C9.1,28,8.2,25,8.2,21.8c0-4.4,1.5-8.1,4.6-11.2S19.6,6,24,6s8.1,1.5,11.2,4.6
	c3.1,3.1,4.6,6.8,4.6,11.2c0,3.2-0.9,6.2-2.7,8.9s-4.3,4.6-7.3,5.8H40V40H26.4v-6.2c2.9-0.5,5.2-1.9,7.1-4.2
	c1.8-2.3,2.8-4.9,2.8-7.8c0-3.4-1.2-6.3-3.6-8.7S27.4,9.5,24,9.5s-6.3,1.2-8.7,3.6s-3.6,5.3-3.6,8.7c0,2.9,0.9,5.5,2.8,7.8
	c1.8,2.3,4.2,3.7,7.1,4.2V40H8z"/>
</svg>
