<?xml version="1.0" encoding="utf-8"?>
<!-- Generator: Adobe Illustrator 26.3.1, SVG Export Plug-In . SVG Version: 6.00 Build 0)  -->
<svg version="1.1" id="Слой_1" xmlns="http://www.w3.org/2000/svg" xmlns:xlink="http://www.w3.org/1999/xlink" x="0px" y="0px"
	 viewBox="0 0 48 48" style="enable-background:new 0 0 48 48;" xml:space="preserve">
<path d="M14.7,42c-0.8,0-1.4-0.2-1.9-0.7s-0.8-1-0.9-1.8L8.2,6h31.5L36,39.5c-0.1,0.7-0.4,1.3-0.9,1.8S34,42,33.3,42H14.7z M11,17.2
	h8.2c0.6-0.6,1.4-1.1,2.2-1.5c0.8-0.4,1.7-0.5,2.6-0.5s1.8,0.2,2.6,0.5c0.8,0.3,1.6,0.8,2.2,1.5H37l1-9.7H9.9L11,17.2z M24,27.2
	c1.4,0,2.7-0.5,3.7-1.5s1.5-2.3,1.5-3.7c0-1.4-0.5-2.7-1.5-3.7s-2.3-1.5-3.7-1.5c-1.5,0-2.7,0.5-3.7,1.5s-1.5,2.3-1.5,3.7
	c0,1.5,0.5,2.7,1.5,3.7S22.6,27.2,24,27.2z"/>
</svg>
