<?xml version="1.0" encoding="utf-8"?>
<!-- Generator: Adobe Illustrator 26.3.1, SVG Export Plug-In . SVG Version: 6.00 Build 0)  -->
<svg version="1.1" id="Слой_1" xmlns="http://www.w3.org/2000/svg" xmlns:xlink="http://www.w3.org/1999/xlink" x="0px" y="0px"
	 viewBox="0 0 48 48" style="enable-background:new 0 0 48 48;" xml:space="preserve">
<path d="M35.2,28.4l-2-1.1l4.8-3.5l2,1.1L35.2,28.4z M10,38v-1.5h8.6c0.4,0,0.7-0.1,0.9-0.3c0.2-0.2,0.3-0.5,0.3-0.9V23.5L13.4,20
	c-0.7-0.4-1.1-0.9-1.3-1.7c-0.2-0.8-0.1-1.5,0.3-2.2l2.8-4.6c0.4-0.6,0.9-1.1,1.7-1.3c0.7-0.2,1.4-0.1,2.1,0.3l18,9.9l-9.9,7.1
	l-5.8-3.2v10.9c0,0.8-0.3,1.4-0.8,2c-0.5,0.5-1.2,0.8-2,0.8C18.5,38,10,38,10,38z"/>
</svg>
