<?xml version="1.0" encoding="utf-8"?>
<!-- Generator: Adobe Illustrator 26.3.1, SVG Export Plug-In . SVG Version: 6.00 Build 0)  -->
<svg version="1.1" id="Слой_1" xmlns="http://www.w3.org/2000/svg" xmlns:xlink="http://www.w3.org/1999/xlink" x="0px" y="0px"
	 viewBox="0 0 48 48" style="enable-background:new 0 0 48 48;" xml:space="preserve">
<path d="M15.6,33.1v-1.5h1.5v1.5H15.6z M20.6,33.1v-1.5h7c0.3,0,0.6-0.1,0.9-0.4c0.2-0.2,0.4-0.5,0.4-0.9v-4.4
	c0-0.3-0.1-0.6-0.4-0.9s-0.5-0.4-0.9-0.4h-7v-9.8h9.8v1.5h-8.2V23h5.5c0.7,0,1.4,0.3,1.9,0.8s0.8,1.2,0.8,2v4.4c0,0.8-0.3,1.4-0.8,2
	c-0.5,0.5-1.2,0.8-1.9,0.8C27.6,33.1,20.6,33.1,20.6,33.1z"/>
</svg>
