<?xml version="1.0" encoding="utf-8"?>
<!-- Generator: Adobe Illustrator 26.3.1, SVG Export Plug-In . SVG Version: 6.00 Build 0)  -->
<svg version="1.1" id="Слой_1" xmlns="http://www.w3.org/2000/svg" xmlns:xlink="http://www.w3.org/1999/xlink" x="0px" y="0px"
	 viewBox="0 0 48 48" style="enable-background:new 0 0 48 48;" xml:space="preserve">
<path d="M33.2,19.5c-0.8,0-1.4-0.3-1.9-0.8s-0.8-1.2-0.8-2V8c0-0.8,0.3-1.4,0.8-2c0.5-0.5,1.2-0.8,2-0.8c0.8,0,1.4,0.3,2,0.8
	C35.7,6.6,36,7.2,36,8v8.8c0,0.8-0.3,1.4-0.8,2C34.6,19.3,34,19.5,33.2,19.5z M10.8,42c-0.7,0-1.4-0.3-1.9-0.8C8.3,40.6,8,40,8,39.2
	V8.8c0-0.8,0.3-1.4,0.8-2C9.4,6.3,10,6,10.8,6H25v1.5H10.8c-0.4,0-0.7,0.1-0.9,0.3c-0.2,0.3-0.4,0.6-0.4,1v30.5
	c0,0.4,0.1,0.7,0.3,0.9s0.5,0.3,0.9,0.3h20.5c0.4,0,0.7-0.1,0.9-0.3s0.3-0.5,0.3-0.9v-4H34v4c0,0.8-0.3,1.4-0.8,2
	c-0.6,0.4-1.2,0.7-2,0.7H10.8z M15,35.2v-2h12v2H15z M15,29.2v-1.5h8v1.5H15z M34,30.8h-1.5v-5c-2.5-0.2-4.6-1.1-6.3-2.8
	c-1.8-1.7-2.7-3.8-2.7-6.2H25c0,2.1,0.8,3.9,2.4,5.3s3.5,2.1,5.8,2.1c2.2,0,4.2-0.7,5.8-2.1s2.4-3.2,2.4-5.3H43
	c0,2.4-0.9,4.5-2.6,6.2c-1.8,1.7-3.9,2.6-6.4,2.8V30.8z"/>
</svg>
