<?xml version="1.0" encoding="utf-8"?>
<!-- Generator: Adobe Illustrator 26.3.1, SVG Export Plug-In . SVG Version: 6.00 Build 0)  -->
<svg version="1.1" id="Слой_1" xmlns="http://www.w3.org/2000/svg" xmlns:xlink="http://www.w3.org/1999/xlink" x="0px" y="0px"
	 viewBox="0 0 48 48" style="enable-background:new 0 0 48 48;" xml:space="preserve">
<path d="M21.5,30.4c0.6,0.6,1.4,0.9,2.4,0.8c1,0,1.7-0.4,2.2-1l10.4-14.6L21.8,26c-0.7,0.4-1,1.1-1.1,2.1
	C20.6,29,20.9,29.8,21.5,30.4z M9.9,38c-0.3,0-0.6-0.1-0.9-0.3c-0.3-0.2-0.5-0.4-0.6-0.7c-0.8-1.4-1.4-2.8-1.8-4.3
	C6.2,31.2,6,29.6,6,28c0-2.5,0.5-4.8,1.4-7s2.2-4.1,3.9-5.7c1.6-1.6,3.5-2.9,5.7-3.9c2.2-0.9,4.5-1.4,7-1.4s4.8,0.5,7,1.4
	s4.1,2.2,5.8,3.8c1.6,1.6,2.9,3.5,3.9,5.7c0.9,2.2,1.4,4.5,1.4,7c0,1.6-0.2,3.2-0.6,4.8c-0.4,1.6-1,3.1-1.8,4.5
	c-0.2,0.3-0.4,0.5-0.7,0.6S38.4,38,38.1,38C38.1,38,9.9,38,9.9,38z"/>
</svg>
