<?xml version="1.0" encoding="utf-8"?>
<!-- Generator: Adobe Illustrator 26.3.1, SVG Export Plug-In . SVG Version: 6.00 Build 0)  -->
<svg version="1.1" id="Слой_1" xmlns="http://www.w3.org/2000/svg" xmlns:xlink="http://www.w3.org/1999/xlink" x="0px" y="0px"
	 viewBox="0 0 48 48" style="enable-background:new 0 0 48 48;" xml:space="preserve">
<path d="M38.5,44.5V40H34v-1.5h4.5V34H40v4.5h4.5V40H40v4.5H38.5z M10.8,40c-0.7,0-1.4-0.3-1.9-0.8C8.3,38.6,8,38,8,37.2V10.8
	c0-0.8,0.3-1.4,0.8-2C9.4,8.3,10,8,10.8,8h7.4c0.8,0,1.4,0.3,2,0.8c0.5,0.6,0.8,1.2,0.8,2v26.5c0,0.7-0.3,1.4-0.8,1.9
	c-0.5,0.6-1.2,0.8-2,0.8H10.8z M29.3,39.7c-0.6-0.2-1.2-0.5-1.6-0.9s-0.6-0.9-0.6-1.5V10.8c0-0.7,0.3-1.4,0.8-1.9
	c0.5-0.6,1.2-0.8,2-0.8h7.4c0.7,0,1.4,0.3,1.9,0.8C39.7,9.4,40,10,40,10.8v18.5c-0.2,0-0.4,0-0.6-0.1c-0.2,0-0.4,0-0.6,0
	c-2.5,0-4.6,0.8-6.4,2.5c-1.8,1.6-2.8,3.7-3.1,6.1c-0.1,0.3-0.1,0.6-0.1,0.9S29.3,39.4,29.3,39.7z"/>
</svg>
