<?xml version="1.0" encoding="utf-8"?>
<!-- Generator: Adobe Illustrator 26.3.1, SVG Export Plug-In . SVG Version: 6.00 Build 0)  -->
<svg version="1.1" id="Слой_1" xmlns="http://www.w3.org/2000/svg" xmlns:xlink="http://www.w3.org/1999/xlink" x="0px" y="0px"
	 viewBox="0 0 48 48" style="enable-background:new 0 0 48 48;" xml:space="preserve">
<path d="M24,19.5c-1.6,0-2.9-0.6-4.1-1.7c-1.1-1.1-1.7-2.5-1.7-4.1s0.6-2.9,1.7-4.1C21.1,8.6,22.4,8,24,8s2.9,0.6,4.1,1.7
	c1.1,1.1,1.7,2.5,1.7,4.1s-0.6,2.9-1.7,4.1C26.9,19,25.6,19.5,24,19.5z M13.8,40c-1.6,0-2.9-0.6-4.1-1.7C8.6,37.2,8,35.8,8,34.2
	s0.6-2.9,1.7-4.1c1.1-1.1,2.5-1.7,4.1-1.7s2.9,0.6,4.1,1.7c1.1,1.1,1.7,2.5,1.7,4.1c0,1.6-0.6,2.9-1.7,4.1
	C16.7,39.4,15.3,40,13.8,40z M34.2,40c-1.6,0-2.9-0.6-4.1-1.7c-1.1-1.1-1.7-2.5-1.7-4.1s0.6-2.9,1.7-4.1c1.1-1.1,2.5-1.7,4.1-1.7
	c1.6,0,2.9,0.6,4.1,1.7c1.1,1.1,1.7,2.5,1.7,4.1c0,1.6-0.6,2.9-1.7,4.1C37.2,39.4,35.8,40,34.2,40z"/>
</svg>
