<?xml version="1.0" encoding="utf-8"?>
<!-- Generator: Adobe Illustrator 26.3.1, SVG Export Plug-In . SVG Version: 6.00 Build 0)  -->
<svg version="1.1" id="Слой_1" xmlns="http://www.w3.org/2000/svg" xmlns:xlink="http://www.w3.org/1999/xlink" x="0px" y="0px"
	 viewBox="0 0 48 48" style="enable-background:new 0 0 48 48;" xml:space="preserve">
<path d="M24,37c-4.3,0-8.3-1.2-11.9-3.5S5.9,28,4.2,24c1.7-4,4.4-7.1,8-9.5S19.7,11,24,11s8.3,1.2,11.9,3.5c3.6,2.3,6.2,5.5,8,9.5
	c-1.7,4-4.4,7.1-8,9.5C32.3,35.8,28.3,37,24,37z M5.6,24.5c2.4-2.7,5.2-4.7,8.4-6.1s6.5-2.1,10-2.1s6.8,0.8,9.9,2.3
	c3.1,1.5,6,3.5,8.6,6c-1.7-3.7-4.2-6.6-7.5-8.8s-7-3.2-11-3.2s-7.6,1.1-10.9,3.2C9.7,17.9,7.2,20.8,5.6,24.5z M24,35.5
	c3.6,0,6.9-0.9,10-2.7s5.5-4.2,7.3-7.3c-1.7-1.6-3.5-3-5.5-4.2s-4.1-2.1-6.3-2.7c0.7,0.7,1.2,1.5,1.6,2.5c0.4,0.9,0.6,1.9,0.6,3
	c0,2.2-0.8,4-2.3,5.5C28,31,26.2,31.8,24,31.8s-4-0.8-5.5-2.3s-2.3-3.3-2.3-5.5c0-1.1,0.2-2.1,0.6-3.1s1-1.8,1.7-2.5
	C16.2,19,14.1,19.8,12,21c-2,1.2-3.8,2.7-5.4,4.5c1.8,3.1,4.3,5.5,7.3,7.3C17.1,34.6,20.4,35.5,24,35.5z M24,30.2
	c1.7,0,3.2-0.6,4.4-1.8c1.2-1.2,1.8-2.7,1.8-4.4c0-1.7-0.6-3.2-1.8-4.4c-1.2-1.2-2.7-1.8-4.4-1.8s-3.2,0.6-4.4,1.8
	c-1.2,1.2-1.8,2.7-1.8,4.4c0,1.7,0.6,3.2,1.8,4.4S22.3,30.2,24,30.2z"/>
</svg>
