<?xml version="1.0" encoding="utf-8"?>
<!-- Generator: Adobe Illustrator 26.3.1, SVG Export Plug-In . SVG Version: 6.00 Build 0)  -->
<svg version="1.1" id="Слой_1" xmlns="http://www.w3.org/2000/svg" xmlns:xlink="http://www.w3.org/1999/xlink" x="0px" y="0px"
	 viewBox="0 0 48 48" style="enable-background:new 0 0 48 48;" xml:space="preserve">
<path d="M14.2,40V24.8c-1.7-0.4-3.2-1.1-4.4-2.3C8.6,21.4,8,19.9,8,18c0-1.6,0.5-3,1.4-4.2s2.2-2.1,3.8-2.6c0.7-1.5,1.7-2.8,3.1-3.8
	C17.6,6.5,19.2,6,21,6c1,0,2,0.2,3,0.5s1.9,0.9,2.9,1.8c0.3-0.1,0.6-0.2,0.8-0.3c0.2,0,0.5,0,0.8,0c1.9,0,3.4,0.7,4.7,2.1
	c1.2,1.4,1.9,3,1.9,4.9c0,0.6-0.1,1.2-0.2,1.7c-0.1,0.5-0.3,1-0.6,1.3h2.6c0.9,0,1.6,0.3,2.2,0.9c0.6,0.6,0.9,1.3,0.9,2.2v11.4
	c0,0.9-0.3,1.6-0.9,2.2c-0.6,0.6-1.4,0.9-2.2,0.9H33V40H14.2z M9.5,18c0,1.4,0.5,2.7,1.6,3.7s2.4,1.5,3.8,1.5c1.2,0,2.2-0.3,3.1-0.9
	s1.7-1.4,2.6-2.4s1.8-1.9,2.8-2.6s2.2-1.1,3.6-1.1h6.5c0.2-1.9-0.2-3.4-1.2-4.8c-0.9-1.3-2.2-2-3.8-2c-0.4,0-0.7,0-1.1,0.1
	s-0.7,0.2-1,0.3l-0.9-0.7c-0.5-0.5-1.2-0.8-2-1.2C22.8,7.7,22,7.5,21,7.5c-1.3,0-2.5,0.3-3.6,1s-2,1.6-2.5,2.8l-0.5,1.1l-1.2,0.4
	c-1.1,0.4-1.9,1-2.6,2C9.9,15.8,9.5,16.9,9.5,18z M33,34.1h3.8c0.5,0,0.8-0.2,1.2-0.5s0.5-0.7,0.5-1.2V21.1c0-0.5-0.2-0.8-0.5-1.1
	c-0.3-0.3-0.7-0.4-1.2-0.4H33C33,19.5,33,34.1,33,34.1z"/>
</svg>
