<?xml version="1.0" encoding="utf-8"?>
<!-- Generator: Adobe Illustrator 26.3.1, SVG Export Plug-In . SVG Version: 6.00 Build 0)  -->
<svg version="1.1" id="Слой_1" xmlns="http://www.w3.org/2000/svg" xmlns:xlink="http://www.w3.org/1999/xlink" x="0px" y="0px"
	 viewBox="0 0 48 48" style="enable-background:new 0 0 48 48;" xml:space="preserve">
<path d="M16.8,45.6l-1.3-0.8l6.2-10.6L18,32.1l-3.6,6l-1.3-0.8l10.9-18c-1.3-1-2.3-2-3-3s-1-2.2-1-3.5c0-1,0.1-2,0.4-3
	s0.7-2.1,1.2-3.4l1.3,0.7c-0.4,1-0.8,2-1,2.9c-0.2,0.9-0.4,1.7-0.4,2.5c0,1.3,0.3,2.4,1,3.3s1.8,1.9,3.4,2.8l4.4,2.6
	c1.5,0.9,2.6,1.9,3.4,3s1.1,2.4,1.1,3.8c0,1-0.1,2-0.4,3.1c-0.3,1.1-0.8,2.3-1.5,3.7L31.6,34c0.6-1.2,1-2.2,1.3-3.1s0.5-1.9,0.5-2.9
	s-0.2-2-0.7-2.9s-1.3-1.7-2.4-2.5L16.8,45.6z M30.7,17.9c-0.9,0-1.7-0.3-2.3-0.9c-0.6-0.6-0.9-1.4-0.9-2.3c0-0.9,0.3-1.7,0.9-2.3
	s1.4-0.9,2.3-0.9s1.7,0.3,2.3,0.9c0.6,0.6,0.9,1.4,0.9,2.3c0,0.9-0.3,1.7-0.9,2.3C32.3,17.6,31.6,17.9,30.7,17.9z M26.9,9.4
	c-0.7,0-1.4-0.2-1.9-0.7s-0.8-1.1-0.8-1.9c0-0.7,0.2-1.4,0.7-1.9s1.1-0.8,1.9-0.8c0.7,0,1.4,0.2,1.9,0.7s0.8,1.1,0.8,1.9
	c0,0.7-0.3,1.4-0.8,1.9C28.2,9.1,27.6,9.4,26.9,9.4z"/>
</svg>
