<?xml version="1.0" encoding="utf-8"?>
<!-- Generator: Adobe Illustrator 26.3.1, SVG Export Plug-In . SVG Version: 6.00 Build 0)  -->
<svg version="1.1" id="Слой_1" xmlns="http://www.w3.org/2000/svg" xmlns:xlink="http://www.w3.org/1999/xlink" x="0px" y="0px"
	 viewBox="0 0 48 48" style="enable-background:new 0 0 48 48;" xml:space="preserve">
<path d="M6.1,23.2c0-1.7,0.4-3.5,1.1-5.4C7.8,16,8.6,14.4,9.7,13c1.7,1.6,2.9,3.2,3.8,5c0.8,1.8,1.3,3.5,1.5,5.2H6.1z M33.1,23.2
	c0.1-1.7,0.6-3.5,1.4-5.2c0.8-1.7,2.1-3.4,3.8-5c1.1,1.4,2,3,2.6,4.8c0.7,1.8,1,3.6,1.1,5.3h-8.9V23.2z M9.7,34.9
	c-1.1-1.4-1.9-3-2.6-4.8c-0.6-1.8-1-3.6-1.1-5.3h8.9c-0.1,1.7-0.6,3.5-1.5,5.2C12.6,31.7,11.4,33.3,9.7,34.9z M38.3,34.9
	c-1.7-1.6-3-3.3-3.8-5s-1.3-3.4-1.4-5.2H42c0,1.7-0.4,3.5-1.1,5.3C40.2,31.9,39.4,33.5,38.3,34.9z M16.5,23.2
	c-0.1-2-0.7-3.9-1.5-5.8s-2.3-3.7-4.2-5.6c1.5-1.6,3.3-3,5.4-4.1s4.5-1.7,7.1-1.8v17.2C23.2,23.2,16.5,23.2,16.5,23.2z M24.8,23.2V6
	c2.6,0.1,5,0.7,7.1,1.8s3.9,2.4,5.4,4.1c-2,1.8-3.4,3.6-4.3,5.5s-1.4,3.8-1.5,5.8H24.8z M23.2,42c-2.7-0.1-5.1-0.7-7.2-1.8
	c-2-1.2-3.8-2.6-5.2-4.2c2-1.8,3.4-3.6,4.3-5.5c0.9-1.8,1.4-3.8,1.5-5.8h6.7L23.2,42L23.2,42z M24.8,42V24.8h6.7
	c0.1,2,0.6,3.9,1.5,5.8c0.9,1.9,2.3,3.7,4.3,5.5c-1.5,1.6-3.3,3-5.4,4.1C29.8,41.2,27.5,41.8,24.8,42z"/>
</svg>
