<?xml version="1.0" encoding="utf-8"?>
<!-- Generator: Adobe Illustrator 26.3.1, SVG Export Plug-In . SVG Version: 6.00 Build 0)  -->
<svg version="1.1" id="Слой_1" xmlns="http://www.w3.org/2000/svg" xmlns:xlink="http://www.w3.org/1999/xlink" x="0px" y="0px"
	 viewBox="0 0 48 48" style="enable-background:new 0 0 48 48;" xml:space="preserve">
<path d="M20,35.8c-2.7,0-5-0.9-6.9-2.8c-1.9-1.9-2.8-4.2-2.8-6.9c0-0.5,0-0.9,0.1-1.4s0.2-0.8,0.2-1.1c-0.1,0-0.3,0.1-0.4,0.1
	c-0.2,0-0.3,0-0.4,0c-1.1,0-2-0.4-2.7-1.1S6,20.9,6,19.8s0.4-2,1.1-2.7S8.7,16,9.8,16c0.9,0,1.7,0.3,2.4,0.8c0.7,0.5,1.1,1.2,1.3,2
	c0.8-0.8,1.8-1.5,3-2c1.2-0.5,2.4-0.7,3.7-0.7h22v3.1H29.8V26c0,2.7-0.9,5-2.8,6.9C25.1,34.8,22.8,35.8,20,35.8z M9.7,21.8
	c0.6,0,1.1-0.2,1.4-0.6c0.4-0.4,0.6-0.9,0.6-1.4c0-0.6-0.2-1.1-0.6-1.4c-0.4-0.4-0.9-0.6-1.4-0.6c-0.6,0-1.1,0.2-1.4,0.6
	c-0.4,0.4-0.6,0.9-0.6,1.4c0,0.6,0.2,1.1,0.6,1.4C8.7,21.7,9.2,21.8,9.7,21.8z M20,29.2c0.9,0,1.7-0.3,2.3-1
	c0.6-0.6,0.9-1.4,0.9-2.3s-0.3-1.7-1-2.3c-0.6-0.6-1.4-0.9-2.3-0.9s-1.7,0.3-2.3,1c-0.6,0.6-0.9,1.4-0.9,2.3s0.3,1.7,1,2.3
	C18.4,28.9,19.2,29.2,20,29.2z"/>
</svg>
