<?xml version="1.0" encoding="utf-8"?>
<!-- Generator: Adobe Illustrator 26.3.1, SVG Export Plug-In . SVG Version: 6.00 Build 0)  -->
<svg version="1.1" id="Слой_1" xmlns="http://www.w3.org/2000/svg" xmlns:xlink="http://www.w3.org/1999/xlink" x="0px" y="0px"
	 viewBox="0 0 48 48" style="enable-background:new 0 0 48 48;" xml:space="preserve">
<path d="M20.6,40.1l0.7-2.9c0.1-0.4,0.3-0.8,0.6-1.1c0.3-0.3,0.7-0.5,1.2-0.5l6.4-0.5c0.4,0,0.9,0.1,1.2,0.3
	c0.4,0.2,0.7,0.5,0.8,0.9l0.7,2c1.3-0.8,2.6-1.8,3.6-2.9c1.1-1.1,1.9-2.3,2.6-3.7L38,31.3c-0.4-0.3-0.7-0.6-0.9-1s-0.2-0.8-0.1-1.2
	l1.4-6.3c0.1-0.4,0.3-0.8,0.6-1c0.3-0.3,0.7-0.4,1.1-0.4c-0.2-0.9-0.4-1.7-0.7-2.6c-0.3-0.8-0.6-1.7-1.1-2.4
	c-0.3,0.2-0.6,0.3-0.9,0.3c-0.3,0-0.7-0.1-1-0.3L31.2,13c-0.4-0.2-0.6-0.6-0.8-1c-0.2-0.4-0.2-0.8-0.1-1.3L30.8,9
	c-1.1-0.5-2.2-0.9-3.3-1.1c-1.1-0.2-2.3-0.4-3.5-0.4c-0.5,0-1,0-1.5,0s-1,0.1-1.5,0.1l1.5,3.5c0.2,0.4,0.2,0.9,0.1,1.3
	c-0.1,0.4-0.3,0.8-0.7,1.1l-4.8,4.2c-0.3,0.3-0.8,0.4-1.2,0.4c-0.5,0-0.9-0.1-1.3-0.3L10,15c-0.8,1.3-1.5,2.7-1.9,4.2
	c-0.4,1.5-0.6,3-0.6,4.5c0,0.6,0.1,1.5,0.2,2.7l4.5-0.5c0.5,0,0.9,0.1,1.3,0.3c0.4,0.2,0.7,0.6,0.9,1l2.4,5.9
	c0.2,0.4,0.2,0.8,0.1,1.2s-0.3,0.8-0.6,1.1l-1.9,1.7c0.9,0.7,1.9,1.2,2.9,1.7C18.4,39.5,19.5,39.9,20.6,40.1z M24.4,31.2
	c-0.5,0-0.9-0.1-1.3-0.3c-0.4-0.2-0.7-0.5-0.8-1l-2.8-6.4c-0.2-0.4-0.2-0.9-0.1-1.3s0.4-0.8,0.7-1l5.2-4.5c0.3-0.3,0.7-0.5,1.1-0.5
	s0.9,0.1,1.3,0.3l5.7,3.4c0.4,0.2,0.7,0.6,0.8,1c0.2,0.4,0.2,0.8,0.1,1.3L32.9,29c-0.1,0.4-0.3,0.8-0.6,1.1
	c-0.3,0.3-0.7,0.5-1.1,0.5C31.2,30.6,24.4,31.2,24.4,31.2z M24,42c-2.5,0-4.8-0.5-7-1.4s-4.1-2.2-5.7-3.8s-2.9-3.5-3.8-5.7
	C6.5,28.8,6,26.5,6,24s0.5-4.8,1.4-7s2.2-4.1,3.8-5.7s3.5-2.9,5.7-3.8C19.2,6.5,21.5,6,24,6s4.8,0.5,7,1.4s4.1,2.2,5.7,3.8
	c1.6,1.6,2.9,3.5,3.8,5.7c0.9,2.2,1.4,4.5,1.4,7s-0.5,4.8-1.4,7s-2.2,4.1-3.8,5.7s-3.5,2.9-5.7,3.8C28.8,41.5,26.5,42,24,42z"/>
</svg>
