<?xml version="1.0" encoding="utf-8"?>
<!-- Generator: Adobe Illustrator 26.3.1, SVG Export Plug-In . SVG Version: 6.00 Build 0)  -->
<svg version="1.1" id="Слой_1" xmlns="http://www.w3.org/2000/svg" xmlns:xlink="http://www.w3.org/1999/xlink" x="0px" y="0px"
	 viewBox="0 0 48 48" style="enable-background:new 0 0 48 48;" xml:space="preserve">
<path d="M28.1,28.2l-4.3,4.2c-0.3,0.3-0.6,0.4-1,0.4s-0.7-0.1-1-0.4l-16-15.9c-0.3-0.3-0.4-0.6-0.4-1c0-0.3,0.1-0.7,0.4-1l4.4-4.4
	c0.3-0.3,0.6-0.5,1-0.5s0.7,0.1,1,0.4l15.9,16.1c0.3,0.3,0.4,0.6,0.4,1C28.6,27.5,28.4,27.8,28.1,28.2z M37.3,42.5l-8.8-8.8l1.1-1.1
	l8.8,8.8C38.5,41.4,37.3,42.5,37.3,42.5z M37.2,16.1c-1.5,0-2.7-0.5-3.8-1.5c-1-1-1.5-2.3-1.5-3.8s0.5-2.7,1.5-3.8
	c1-1,2.3-1.5,3.8-1.5S40,6,41,7s1.5,2.3,1.5,3.8S42,13.5,41,14.6C40,15.6,38.8,16.1,37.2,16.1z"/>
</svg>
