<?xml version="1.0" encoding="utf-8"?>
<!-- Generator: Adobe Illustrator 26.3.1, SVG Export Plug-In . SVG Version: 6.00 Build 0)  -->
<svg version="1.1" id="Слой_1" xmlns="http://www.w3.org/2000/svg" xmlns:xlink="http://www.w3.org/1999/xlink" x="0px" y="0px"
	 viewBox="0 0 48 48" style="enable-background:new 0 0 48 48;" xml:space="preserve">
<path d="M15.1,41c-1.8,0-3.3-0.1-4.5-0.4c-1.2-0.3-2.1-0.6-2.4-1c-0.4-0.4-0.7-1.2-0.9-2.4C7.1,36.1,7,34.6,7,32.9
	c0-3.6,0.6-7.1,1.9-10.5c1.3-3.3,3-6.2,5.2-8.4c2.1-2.3,4.9-4,8.3-5.2C25.8,7.6,29.3,7,33,7c1.8,0,3.3,0.1,4.5,0.4
	c1.3,0.2,2.1,0.5,2.4,0.9c0.4,0.3,0.6,1.1,0.8,2.3s0.3,2.7,0.3,4.5c0,3.7-0.6,7.2-1.8,10.6C38,29,36.3,31.8,34.1,34
	c-2.2,2.3-5,4.1-8.4,5.3S18.8,41,15.1,41z M8.5,36c1-3.4,2.4-6.6,4.2-9.4s3.8-5.5,6.1-7.9c2.1-2.1,4.6-4,7.5-5.7s6.2-3.2,9.9-4.5
	c-4-0.4-7.9,0.1-11.7,1.3c-3.9,1.2-6.9,3-9.3,5.3c-2.2,2.3-4,5.4-5.2,9.2C8.7,28.2,8.2,32.1,8.5,36z M12,39.5
	c4.1,0.2,8-0.3,11.8-1.5s6.8-3,9.1-5.2c2.2-2.3,4-5.4,5.2-9.3s1.7-7.8,1.4-11.7c-1.3,3.7-2.7,7-4.4,9.8s-3.6,5.3-5.8,7.6
	c-2.1,2.2-4.6,4.1-7.4,5.8C19,36.6,15.8,38.1,12,39.5z"/>
</svg>
