<?xml version="1.0" encoding="utf-8"?>
<!-- Generator: Adobe Illustrator 26.3.1, SVG Export Plug-In . SVG Version: 6.00 Build 0)  -->
<svg version="1.1" id="Слой_1" xmlns="http://www.w3.org/2000/svg" xmlns:xlink="http://www.w3.org/1999/xlink" x="0px" y="0px"
	 viewBox="0 0 48 48" style="enable-background:new 0 0 48 48;" xml:space="preserve">
<path d="M10.5,36c-1.4-1.7-2.6-3.5-3.3-5.6S6,26.2,6,24s0.4-4.4,1.2-6.4c0.8-2.1,1.9-3.9,3.3-5.6c1.9,1.4,3.4,3.2,4.4,5.3
	s1.5,4.4,1.5,6.8s-0.5,4.6-1.5,6.7S12.4,34.6,10.5,36z M24,42c-2.3,0-4.5-0.4-6.6-1.2s-4-2-5.6-3.6c2-1.6,3.5-3.6,4.6-5.8
	S18,26.6,18,24s-0.5-5-1.6-7.3s-2.6-4.2-4.6-5.9c1.6-1.6,3.5-2.8,5.6-3.6C19.5,6.4,21.7,6,24,6s4.5,0.4,6.6,1.2s4,2,5.6,3.6
	c-2,1.6-3.5,3.6-4.6,5.9S30,21.4,30,24s0.5,5,1.6,7.3s2.6,4.2,4.6,5.8c-1.6,1.6-3.5,2.8-5.6,3.6C28.5,41.6,26.3,42,24,42z M37.5,36
	c-1.9-1.4-3.4-3.1-4.4-5.3c-1-2.1-1.5-4.4-1.5-6.7c0-2.4,0.5-4.6,1.5-6.8c1-2.1,2.5-3.9,4.4-5.3c1.4,1.7,2.6,3.6,3.3,5.6
	c0.8,2.1,1.1,4.2,1.1,6.4s-0.4,4.3-1.1,6.4C40.1,32.5,39,34.3,37.5,36z"/>
</svg>
