<?xml version="1.0" encoding="utf-8"?>
<!-- Generator: Adobe Illustrator 26.3.1, SVG Export Plug-In . SVG Version: 6.00 Build 0)  -->
<svg version="1.1" id="Слой_1" xmlns="http://www.w3.org/2000/svg" xmlns:xlink="http://www.w3.org/1999/xlink" x="0px" y="0px"
	 viewBox="0 0 48 48" style="enable-background:new 0 0 48 48;" xml:space="preserve">
<path d="M18,39.2c-0.6,0-1.1-0.2-1.4-0.6c-0.4-0.4-0.6-0.9-0.6-1.4v-3.9h16.2v3.9c0,0.6-0.2,1.1-0.6,1.4c-0.4,0.4-0.9,0.6-1.4,0.6
	H18z M35.5,14.6V22c0,0.2,0,0.3-0.1,0.4l-1.3,6.1c-0.1,0.4-0.3,0.8-0.6,1.1c-0.3,0.3-0.7,0.4-1.2,0.4H15.5c-0.4,0-0.8-0.1-1.1-0.4
	s-0.5-0.6-0.6-1.1l-1.2-6c-0.1-0.1-0.1-0.3-0.1-0.4V10.5c0-0.8,0.3-1.4,0.8-2c0.5-0.5,1.2-0.8,2-0.8H30c0.8,0,1.5,0.3,2,0.8
	s0.8,1.2,0.8,2v4.2c0-0.4,0.1-0.7,0.4-1c0.3-0.3,0.6-0.4,1-0.4s0.7,0.1,1,0.4C35.4,13.9,35.5,14.2,35.5,14.6z M18.4,19.4h8.5v-3.9
	h-8.5V19.4z"/>
</svg>
