<?xml version="1.0" encoding="utf-8"?>
<!-- Generator: Adobe Illustrator 26.3.1, SVG Export Plug-In . SVG Version: 6.00 Build 0)  -->
<svg version="1.1" id="Слой_1" xmlns="http://www.w3.org/2000/svg" xmlns:xlink="http://www.w3.org/1999/xlink" x="0px" y="0px"
	 viewBox="0 0 48 48" style="enable-background:new 0 0 48 48;" xml:space="preserve">
<path d="M18.3,11.7h3.2V8.5h-3.2V11.7z M24.8,11.7V8.5H28v3.2H24.8z M18.3,24.6v-3.2h3.2v3.2H18.3z M31.2,18.2V15h3.2v3.2H31.2z
	 M31.2,24.6v-3.2h3.2v3.2H31.2z M24.8,24.6v-3.2H28v3.2H24.8z M31.2,11.7V8.5h3.2v3.2H31.2z M21.5,14.9v-3.2h3.2v3.2
	C24.8,14.9,21.5,14.9,21.5,14.9z M13.5,38.9V8.5H15v3.2h3.2v3.2H15v3.2h3.2v3.2H15v17.5C15.1,38.9,13.5,38.9,13.5,38.9z M28,21.4
	v-3.2h3.2v3.2H28z M21.5,21.4v-3.2h3.2v3.2H21.5z M18.3,18.2V15h3.2v3.2H18.3z M24.8,18.2V15H28v3.2H24.8z M28,14.9v-3.2h3.2v3.2H28
	z"/>
</svg>
