<?xml version="1.0" encoding="utf-8"?>
<!-- Generator: Adobe Illustrator 26.3.1, SVG Export Plug-In . SVG Version: 6.00 Build 0)  -->
<svg version="1.1" id="Слой_1" xmlns="http://www.w3.org/2000/svg" xmlns:xlink="http://www.w3.org/1999/xlink" x="0px" y="0px"
	 viewBox="0 0 48 48" style="enable-background:new 0 0 48 48;" xml:space="preserve">
<path d="M28.2,36.5H9.7c-0.6,0-1.1-0.2-1.6-0.7c-0.4-0.5-0.7-1-0.7-1.6c0-1.4,0.1-2.5,0.2-3.2c0.1-0.8,0.2-1.5,0.4-2.1h12.9
	c1.7,0,3.1-0.6,4.3-1.8c1.2-1.2,1.8-2.6,1.8-4.4c0-1.2-0.3-2.4-0.9-3.4c-0.6-1.1-1.6-1.8-2.9-2.4l-6.4-2.4c1.7-1.1,3.5-1.9,5.2-2.4
	c1.8-0.5,3.7-0.8,5.8-0.8c3.6,0,6.6,1.2,9.2,3.6c2.5,2.4,3.8,5.4,3.8,8.9s-1.2,6.5-3.6,8.9C34.6,35.3,31.7,36.5,28.2,36.5z
	 M8.1,27.4c0.6-2.5,1.5-4.7,2.7-6.7s2.6-3.7,4.4-5.2l7.3,3c0.9,0.4,1.6,0.9,2.1,1.7c0.5,0.8,0.8,1.7,0.8,2.6c0,1.3-0.4,2.4-1.3,3.3
	s-2,1.3-3.3,1.3C20.7,27.4,8.1,27.4,8.1,27.4z"/>
</svg>
