<?xml version="1.0" encoding="utf-8"?>
<!-- Generator: Adobe Illustrator 26.3.1, SVG Export Plug-In . SVG Version: 6.00 Build 0)  -->
<svg version="1.1" id="Слой_1" xmlns="http://www.w3.org/2000/svg" xmlns:xlink="http://www.w3.org/1999/xlink" x="0px" y="0px"
	 viewBox="0 0 48 48" style="enable-background:new 0 0 48 48;" xml:space="preserve">
<path d="M41.9,21.4L24.8,11.3V6c4.4,0.2,8.2,1.7,11.3,4.6C39.3,13.4,41.2,17.1,41.9,21.4z M14.4,28.6V8.9c1.2-0.8,2.5-1.4,3.9-1.9
	s3-0.8,5-0.9v17.4L14.4,28.6z M8,32.4c-0.7-1.3-1.2-2.6-1.5-4C6.1,26.9,6,25.5,6,24c0-2.8,0.6-5.4,1.8-7.8s2.9-4.6,5.1-6.3v19.7
	L8,32.4z M15.7,39.9c-1.4-0.7-2.7-1.6-3.9-2.7c-1.2-1.1-2.2-2.2-3-3.5L24,24.8l9,5.2L15.7,39.9z M24,42c-1.2,0-2.3-0.1-3.5-0.3
	c-1.1-0.2-2.2-0.5-3.2-0.9l17.1-9.9l4.8,2.8c-1.7,2.6-3.9,4.6-6.5,6.1S27.2,42,24,42z M40,32.3l-15.2-8.9V13.2L42,23.3
	c0,1.6-0.1,3.1-0.4,4.6C41.3,29.5,40.7,30.9,40,32.3z"/>
</svg>
