<?xml version="1.0" encoding="utf-8"?>
<!-- Generator: Adobe Illustrator 26.3.1, SVG Export Plug-In . SVG Version: 6.00 Build 0)  -->
<svg version="1.1" id="Слой_1" xmlns="http://www.w3.org/2000/svg" xmlns:xlink="http://www.w3.org/1999/xlink" x="0px" y="0px"
	 viewBox="0 0 48 48" style="enable-background:new 0 0 48 48;" xml:space="preserve">
<path d="M12.7,38.9c-1,0-1.8-0.4-2.6-1.1C9.4,37.1,9,36.2,9,35.2V15.4c0-0.8,0.4-1.4,1.1-1.8c0.8-0.3,1.4-0.2,2,0.4l1.9,1.9
	l-1.3,1.3l0.9,0.9l1.3-1.3l4.6,4.6l-1.3,1.3l0.9,0.9l1.3-1.3l4.8,4.7L24,28.4l0.9,0.9l1.3-1.3l4.6,4.6l-1.3,1.3l0.9,0.9l1.3-1.3l2,2
	c0.6,0.6,0.8,1.3,0.4,2.1c-0.3,0.8-0.9,1.2-1.8,1.2C32.3,38.9,12.7,38.9,12.7,38.9z M12.3,36.9h18.4L11.1,17.3v18.4
	c0,0.4,0.1,0.7,0.3,0.9C11.7,36.8,11.9,36.9,12.3,36.9z"/>
</svg>
