<?xml version="1.0" encoding="utf-8"?>
<!-- Generator: Adobe Illustrator 26.3.1, SVG Export Plug-In . SVG Version: 6.00 Build 0)  -->
<svg version="1.1" id="Слой_1" xmlns="http://www.w3.org/2000/svg" xmlns:xlink="http://www.w3.org/1999/xlink" x="0px" y="0px"
	 viewBox="0 0 48 48" style="enable-background:new 0 0 48 48;" xml:space="preserve">
<path d="M13.7,28.5V30H8.8c-0.7,0-1.4-0.3-1.9-0.8C6.3,28.6,6,28,6,27.2V8.8c0-0.8,0.3-1.4,0.8-2C7.4,6.3,8,6,8.8,6h18.5
	c0.7,0,1.4,0.3,1.9,0.8C29.7,7.4,30,8,30,8.8v4.9h-1.5V8.8c0-0.4-0.1-0.7-0.3-0.9c-0.2-0.2-0.5-0.3-0.9-0.3H8.8
	c-0.4,0-0.7,0.1-0.9,0.3S7.5,8.4,7.5,8.8v18.5c0,0.4,0.1,0.7,0.3,0.9c0.2,0.2,0.5,0.3,0.9,0.3C8.7,28.5,13.7,28.5,13.7,28.5z
	 M20.8,42c-0.7,0-1.4-0.3-1.9-0.8c-0.6-0.6-0.9-1.2-0.9-2V20.8c0-0.7,0.3-1.4,0.8-1.9c0.6-0.6,1.2-0.8,1.9-0.8h18.5
	c0.7,0,1.4,0.3,1.9,0.8c0.6,0.6,0.8,1.2,0.8,1.9v18.5c0,0.7-0.3,1.4-0.8,1.9S40,42,39.2,42H20.8z"/>
</svg>
