<?xml version="1.0" encoding="utf-8"?>
<!-- Generator: Adobe Illustrator 26.3.1, SVG Export Plug-In . SVG Version: 6.00 Build 0)  -->
<svg version="1.1" id="Слой_1" xmlns="http://www.w3.org/2000/svg" xmlns:xlink="http://www.w3.org/1999/xlink" x="0px" y="0px"
	 viewBox="0 0 48 48" style="enable-background:new 0 0 48 48;" xml:space="preserve">
<path d="M6.8,39.5c-0.8,0-1.4-0.3-2-0.8c-0.5-0.5-0.8-1.2-0.8-2V16.4h1.5v20.4c0,0.4,0.1,0.7,0.3,0.9c0.3,0.2,0.6,0.3,1,0.3h30.9
	v1.5H6.8z M11.8,34.5c-0.8,0-1.4-0.3-2-0.8c-0.5-0.5-0.8-1.2-0.8-2V10.3c0-0.8,0.3-1.4,0.8-2c0.5-0.5,1.2-0.8,2-0.8h29.4
	c0.8,0,1.4,0.3,2,0.8c0.5,0.5,0.8,1.2,0.8,2v21.4c0,0.8-0.3,1.4-0.8,2c-0.5,0.5-1.2,0.8-2,0.8H11.8z M26.5,23.7l16-12.7
	c0-0.3,0-0.6-0.1-0.9c-0.1-0.3-0.2-0.5-0.3-0.8L26.5,21.7L10.9,9.4c-0.1,0.2-0.2,0.5-0.2,0.8s-0.1,0.5-0.1,0.8L26.5,23.7z"/>
</svg>
