<?xml version="1.0" encoding="utf-8"?>
<!-- Generator: Adobe Illustrator 26.3.1, SVG Export Plug-In . SVG Version: 6.00 Build 0)  -->
<svg version="1.1" id="Слой_1" xmlns="http://www.w3.org/2000/svg" xmlns:xlink="http://www.w3.org/1999/xlink" x="0px" y="0px"
	 viewBox="0 0 48 48" style="enable-background:new 0 0 48 48;" xml:space="preserve">
<path d="M11.1,28.3c-1.2,0-2.3-0.4-3.1-1.2c-0.8-0.8-1.2-1.8-1.2-3.1s0.4-2.3,1.2-3.1c0.8-0.8,1.8-1.3,3.1-1.3s2.3,0.4,3.1,1.3
	c0.8,0.8,1.3,1.9,1.3,3.1s-0.4,2.3-1.3,3.1S12.3,28.3,11.1,28.3z M11.1,26.8c0.8,0,1.5-0.3,2-0.8s0.8-1.2,0.8-2s-0.3-1.5-0.8-2
	s-1.2-0.8-2-0.8s-1.5,0.3-2,0.8s-0.8,1.2-0.8,2s0.3,1.5,0.8,2S10.3,26.8,11.1,26.8z M24,28.3c-1.2,0-2.3-0.4-3.1-1.2
	c-0.8-0.8-1.2-1.8-1.2-3.1s0.4-2.3,1.2-3.1c0.8-0.8,1.8-1.3,3.1-1.3s2.3,0.4,3.1,1.3c0.8,0.8,1.3,1.9,1.3,3.1s-0.4,2.3-1.3,3.1
	C26.3,27.9,25.2,28.3,24,28.3z M24,26.8c0.8,0,1.5-0.3,2-0.8s0.8-1.2,0.8-2s-0.3-1.5-0.8-2s-1.2-0.8-2-0.8s-1.5,0.3-2,0.8
	s-0.8,1.2-0.8,2s0.3,1.5,0.8,2S23.2,26.8,24,26.8z M36.9,28.3c-1.2,0-2.3-0.4-3.1-1.2c-0.8-0.8-1.2-1.8-1.2-3.1s0.4-2.3,1.2-3.1
	c0.8-0.8,1.8-1.3,3.1-1.3c1.2,0,2.3,0.4,3.1,1.3c0.8,0.8,1.3,1.9,1.3,3.1s-0.4,2.3-1.3,3.1C39.2,27.9,38.2,28.3,36.9,28.3z"/>
</svg>
