<?xml version="1.0" encoding="utf-8"?>
<!-- Generator: Adobe Illustrator 26.3.1, SVG Export Plug-In . SVG Version: 6.00 Build 0)  -->
<svg version="1.1" id="Слой_1" xmlns="http://www.w3.org/2000/svg" xmlns:xlink="http://www.w3.org/1999/xlink" x="0px" y="0px"
	 viewBox="0 0 48 48" style="enable-background:new 0 0 48 48;" xml:space="preserve">
<path d="M10.8,20.2H6.1c0.1-0.5,0.3-0.9,0.4-1.4C6.8,18.4,7,18,7.3,17.6L15,7.3c0.3-0.4,0.7-0.6,1.1-0.8c0.5-0.1,0.9-0.1,1.3,0.2
	l1.4,0.7c0.4,0.2,0.6,0.4,0.8,0.8c0.2,0.3,0.3,0.7,0.3,1V16l6.2-1.6c0.5-0.1,1-0.1,1.4,0.2s0.8,0.6,0.9,1.1L32,26l8.8,8.8
	c0.5,0.5,0.8,1,0.9,1.5c0.2,0.5,0.2,1.1,0.2,1.7c0,1.1-0.4,2-1.1,2.7c-0.7,0.8-1.6,1.2-2.6,1.2h-1.3l-20-19.3
	c-0.8-0.8-1.8-1.3-2.8-1.8C13,20.4,11.9,20.2,10.8,20.2z M28.3,42c-0.7,0-1.5-0.1-2.1-0.4c-0.7-0.3-1.3-0.7-1.9-1.2L8,25.7
	c-0.6-0.5-1.1-1.1-1.4-1.8c-0.3-0.7-0.5-1.4-0.6-2.1h4.7c0.9,0,1.8,0.2,2.7,0.5s1.6,0.8,2.3,1.5l19,18.2H28.3z"/>
</svg>
