<?xml version="1.0" encoding="utf-8"?>
<!-- Generator: Adobe Illustrator 26.3.1, SVG Export Plug-In . SVG Version: 6.00 Build 0)  -->
<svg version="1.1" id="Слой_1" xmlns="http://www.w3.org/2000/svg" xmlns:xlink="http://www.w3.org/1999/xlink" x="0px" y="0px"
	 viewBox="0 0 48 48" style="enable-background:new 0 0 48 48;" xml:space="preserve">
<path d="M34.9,40.6l-1.1-1.1l4.7-4.7H27.9v-1.5h10.6l-4.7-4.7l1.1-1.1l6.6,6.6L34.9,40.6z M26.5,42c-3.1,0-5.7-1.1-7.9-3.3
	c-2.1-2.2-3.2-4.8-3.2-7.9v-1.3c-2.5-0.2-4.7-1.2-6.4-3.1s-2.6-4.1-2.6-6.7V9h6V7H14v5.5h-1.5v-2H8v9.2c0,2.3,0.8,4.2,2.4,5.8
	C12,27.2,14,28,16.3,28s4.2-0.8,5.8-2.4c1.6-1.6,2.4-3.5,2.4-5.8v-9.2H20v2h-1.5V7H20v2h6v10.8c0,2.6-0.9,4.8-2.6,6.7
	c-1.7,1.9-3.9,2.9-6.4,3.1v1.3c0,2.7,0.9,4.9,2.7,6.8c1.8,1.9,4.1,2.8,6.8,2.8V42z"/>
</svg>
