<?xml version="1.0" encoding="utf-8"?>
<!-- Generator: Adobe Illustrator 26.3.1, SVG Export Plug-In . SVG Version: 6.00 Build 0)  -->
<svg version="1.1" id="Слой_1" xmlns="http://www.w3.org/2000/svg" xmlns:xlink="http://www.w3.org/1999/xlink" x="0px" y="0px"
	 viewBox="0 0 48 48" style="enable-background:new 0 0 48 48;" xml:space="preserve">
<path d="M10.8,40c-0.8,0-1.4-0.3-2-0.8C8.3,38.7,8,38,8,37.2V10.8c0-0.8,0.3-1.4,0.8-2C9.3,8.3,10,8,10.8,8h26.5
	c0.8,0,1.4,0.3,2,0.8c0.5,0.5,0.8,1.2,0.8,2v20.4l-9,8.8H10.8z M23.2,31h1.5V18.5H31V17H17v1.5h6.2V31z M30.2,38.5l8.2-8.2h-4.1
	c-1.2,0-2.1,0.4-3,1.2c-0.8,0.8-1.2,1.8-1.2,3C30.2,34.4,30.2,38.5,30.2,38.5z"/>
</svg>
