<?xml version="1.0" encoding="utf-8"?>
<!-- Generator: Adobe Illustrator 26.3.1, SVG Export Plug-In . SVG Version: 6.00 Build 0)  -->
<svg version="1.1" id="Слой_1" xmlns="http://www.w3.org/2000/svg" xmlns:xlink="http://www.w3.org/1999/xlink" x="0px" y="0px"
	 viewBox="0 0 48 48" style="enable-background:new 0 0 48 48;" xml:space="preserve">
<path d="M12.6,38c-1.3,0-2.4-0.4-3.3-1.3c-0.9-0.9-1.3-2-1.3-3.3V15.5h32v17.9c0,1.3-0.4,2.4-1.3,3.3c-0.9,0.9-2,1.3-3.3,1.3H12.6z
	 M8,12.7v-1.6h11.2V9.4c0-0.4,0.1-0.7,0.4-1s0.6-0.4,1-0.4h6.7c0.4,0,0.7,0.1,1,0.4s0.4,0.6,0.4,1v1.8H40v1.6H8V12.7z"/>
</svg>
