<?xml version="1.0" encoding="utf-8"?>
<!-- Generator: Adobe Illustrator 26.3.1, SVG Export Plug-In . SVG Version: 6.00 Build 0)  -->
<svg version="1.1" id="Слой_1" xmlns="http://www.w3.org/2000/svg" xmlns:xlink="http://www.w3.org/1999/xlink" x="0px" y="0px"
	 viewBox="0 0 48 48" style="enable-background:new 0 0 48 48;" xml:space="preserve">
<path d="M42.8,45.2l-6.4-6.4H3.5v-1.5h31.3l-2.1-2.1H8.9c-0.8,0-1.4-0.3-2-0.8s-0.8-1.2-0.8-2V11.9c0-0.4,0.1-0.8,0.4-1.2
	C6.7,10.3,7,10,7.4,9.8L2.9,5.3L4,4.2l39.9,39.9L42.8,45.2z M20,22.4l-1-1c-0.3,0.3-0.6,0.8-0.8,1.3c-0.2,0.5-0.3,1.1-0.3,1.7v4.2
	h1.5V24c0-0.3,0.1-0.6,0.2-0.9C19.6,22.8,19.8,22.6,20,22.4z M39.7,34.9L27.5,22.7l2.4-2.5L26.8,17v2.4h-2.5L13.9,9.1h25.2
	c0.8,0,1.4,0.3,2,0.8c0.5,0.5,0.8,1.2,0.8,2v20.5c0,0.6-0.2,1.1-0.5,1.6C41,34.5,40.4,34.8,39.7,34.9z"/>
</svg>
