<?xml version="1.0" encoding="utf-8"?>
<!-- Generator: Adobe Illustrator 26.3.1, SVG Export Plug-In . SVG Version: 6.00 Build 0)  -->
<svg version="1.1" id="Слой_1" xmlns="http://www.w3.org/2000/svg" xmlns:xlink="http://www.w3.org/1999/xlink" x="0px" y="0px"
	 viewBox="0 0 48 48" style="enable-background:new 0 0 48 48;" xml:space="preserve">
<path d="M8.8,34c-0.8,0-1.4-0.3-2-0.8C6.3,32.7,6,32,6,31.2V16.8c0-0.8,0.3-1.4,0.8-2C7.3,14.3,8,14,8.8,14h6v8.5h1.5V14h6.9v8.5
	h1.5V14h6.9v8.5h1.5V14h6c0.8,0,1.4,0.3,2,0.8c0.5,0.5,0.8,1.2,0.8,2v14.4c0,0.8-0.3,1.4-0.8,2c-0.5,0.5-1.2,0.8-2,0.8
	C39.1,34,8.8,34,8.8,34z"/>
</svg>
