<?xml version="1.0" encoding="utf-8"?>
<!-- Generator: Adobe Illustrator 26.3.1, SVG Export Plug-In . SVG Version: 6.00 Build 0)  -->
<svg version="1.1" id="Слой_1" xmlns="http://www.w3.org/2000/svg" xmlns:xlink="http://www.w3.org/1999/xlink" x="0px" y="0px"
	 viewBox="0 0 48 48" style="enable-background:new 0 0 48 48;" xml:space="preserve">
<path d="M24,31.2c2.1,0,4.4-0.4,7-1.2c2.5-0.8,6.1-2.2,10.8-4.4c0.1-0.4,0.1-0.9,0.2-1.3c0-0.4,0.1-0.8,0.1-1.3c0-1-0.4-1.9-1.2-2.5
	c-1-0.5-1.9-0.7-2.9-0.4c-0.5,0.2-1.1,0.4-1.6,0.6c-0.6,0.2-1.3,0.5-2.2,0.9c-2.2,0.9-4.1,1.6-5.6,1.9S25.6,24,24,24
	s-3.2-0.2-4.7-0.5c-1.5-0.4-3.4-1-5.7-2c-0.8-0.3-1.4-0.6-2-0.8c-0.6-0.2-1.1-0.4-1.6-0.6c-1-0.3-1.9-0.2-2.7,0.5
	C6.4,21.2,6,22.1,6,23.1c0,0.4,0,0.9,0.1,1.3c0,0.4,0.1,0.8,0.1,1.2c3.8,1.9,7.2,3.3,10.2,4.2C19.3,30.8,21.8,31.2,24,31.2z M24,40
	c4.2,0,7.9-1.2,11.1-3.5s5.3-5.3,6.3-9c-3.9,1.9-7.2,3.2-9.9,4s-5.2,1.2-7.5,1.2s-4.9-0.4-7.8-1.3c-2.9-0.9-6.1-2.2-9.6-4
	c0.9,3.8,3,6.8,6.1,9.1C15.8,38.9,19.5,40,24,40z M24,20c-1.9,0-3.6-0.7-5-2c-1.4-1.4-2-3-2-5s0.7-3.6,2-5c1.4-1.4,3-2,5-2
	s3.6,0.7,5,2c1.4,1.4,2,3,2,5s-0.7,3.6-2,5C27.6,19.3,25.9,20,24,20z"/>
</svg>
