<?xml version="1.0" encoding="utf-8"?>
<!-- Generator: Adobe Illustrator 26.3.1, SVG Export Plug-In . SVG Version: 6.00 Build 0)  -->
<svg version="1.1" id="Слой_1" xmlns="http://www.w3.org/2000/svg" xmlns:xlink="http://www.w3.org/1999/xlink" x="0px" y="0px"
	 viewBox="0 0 48 48" style="enable-background:new 0 0 48 48;" xml:space="preserve">
<path d="M34.5,22c-2.3,0-4.3-0.8-6-2.5s-2.5-3.6-2.5-6s0.8-4.3,2.5-6s3.6-2.5,6-2.5c2.3,0,4.3,0.8,6,2.5s2.5,3.6,2.5,6
	s-0.8,4.3-2.5,6S36.8,22,34.5,22z M10.2,37.8c-0.4-0.3-0.6-0.6-0.8-1S9.1,36,9.1,35.6V11.8c0-1,0.3-1.8,1-2.4c0.6-0.6,1.5-1,2.4-1
	h11.4c-0.4,0.7-0.7,1.5-0.9,2.4c-0.2,0.9-0.3,1.8-0.3,2.7c0,1.6,0.3,3.2,0.9,4.6c0.6,1.5,1.5,2.7,2.5,3.8L10.2,37.8z M24.3,38.9
	v-9.2c0-1.2,0.4-2.3,1.1-3.2c0.8-0.9,1.7-1.5,2.9-1.8c1-0.2,2-0.4,3-0.4c1-0.1,2.1-0.1,3.2-0.1c1,0,1.8,0,2.7,0.1
	c0.8,0.1,1.6,0.2,2.4,0.3v11c0,1-0.3,1.8-1,2.4c-0.6,0.6-1.5,1-2.4,1C36.2,38.9,24.3,38.9,24.3,38.9z"/>
</svg>
