<?xml version="1.0" encoding="utf-8"?>
<!-- Generator: Adobe Illustrator 26.3.1, SVG Export Plug-In . SVG Version: 6.00 Build 0)  -->
<svg version="1.1" id="Слой_1" xmlns="http://www.w3.org/2000/svg" xmlns:xlink="http://www.w3.org/1999/xlink" x="0px" y="0px"
	 viewBox="0 0 48 48" style="enable-background:new 0 0 48 48;" xml:space="preserve">
<path d="M24.7,38.8c-2.2,0-4.2-0.6-5.9-1.7c-1.7-1.1-3-2.6-3.9-4.6l1.6-0.6c0.7,1.5,1.8,2.8,3.2,3.7c1.4,0.9,3.1,1.4,5,1.4
	s3.5-0.5,5-1.5c1.4-1,2.2-2.5,2.2-4.5c0-1-0.1-1.9-0.4-2.6c-0.3-0.8-0.7-1.5-1.2-2.1h2c0.4,0.6,0.8,1.2,1,2.1
	c0.3,0.8,0.4,1.7,0.4,2.7c0,2.4-0.9,4.2-2.6,5.6C29.3,38.1,27.2,38.8,24.7,38.8z M5,22.8v-1.5h38v1.5H5z M23.9,9.1
	c1.8,0,3.3,0.4,4.6,1.1c1.3,0.7,2.4,1.8,3.2,3.2l-1.6,0.7c-0.6-1-1.4-1.8-2.5-2.4c-1.1-0.6-2.4-0.9-3.8-0.9c-2.2,0-3.9,0.6-5.1,1.9
	c-1.2,1.2-1.7,2.7-1.5,4.3c0,0.1,0,0.2,0,0.3s0,0.2,0.1,0.3h-1.7c0-0.1-0.1-0.2-0.1-0.4c0-0.1,0-0.3,0-0.4c-0.2-2.1,0.4-3.9,2-5.5
	C19.2,9.9,21.3,9.1,23.9,9.1z"/>
</svg>
