<?xml version="1.0" encoding="utf-8"?>
<!-- Generator: Adobe Illustrator 26.3.1, SVG Export Plug-In . SVG Version: 6.00 Build 0)  -->
<svg version="1.1" id="Слой_1" xmlns="http://www.w3.org/2000/svg" xmlns:xlink="http://www.w3.org/1999/xlink" x="0px" y="0px"
	 viewBox="0 0 48 48" style="enable-background:new 0 0 48 48;" xml:space="preserve">
<path d="M29.2,40.7c-0.7,0-1.2-0.2-1.7-0.7s-0.7-1-0.7-1.7s0.2-1.2,0.7-1.7s1-0.7,1.7-0.7s1.2,0.2,1.7,0.7s0.7,1,0.7,1.7
	s-0.2,1.2-0.7,1.7C30.4,40.5,29.9,40.7,29.2,40.7z M13.9,40.7c-0.6,0-1.2-0.2-1.7-0.7s-0.7-1-0.7-1.7s0.2-1.2,0.7-1.7s1-0.7,1.7-0.7
	s1.2,0.2,1.7,0.7c0.5,0.5,0.7,1,0.7,1.7s-0.2,1.2-0.7,1.7C15.2,40.5,14.6,40.7,13.9,40.7z M14.5,33.5c-0.4,0-0.7-0.2-0.9-0.6
	c-0.2-0.4-0.1-0.7,0.2-1.1L31.5,11c0.5-0.6,1.2-1.1,1.9-1.5C34,9.2,34.8,9,35.6,9c1.2,0,2.2,0.4,3,1.2s1.2,1.8,1.2,3V14h-1.5v-0.8
	c0-0.7-0.3-1.3-0.8-1.9c-0.5-0.5-1.1-0.8-1.9-0.8c-0.6,0-1.1,0.1-1.6,0.4c-0.5,0.3-0.9,0.6-1.4,1.1l-2.8,3.2v15.4
	c0,0.8-0.3,1.4-0.8,2c-0.6,0.5-1.2,0.8-1.9,0.8C27.1,33.5,14.5,33.5,14.5,33.5z M21.1,19.3l-7.9-7.9c1.1-0.7,2.3-1.3,3.7-1.7
	s2.8-0.6,4.3-0.6c1.2,0,2.4,0.1,3.6,0.4c1.2,0.3,2.4,0.6,3.6,1.2L21.1,19.3z"/>
</svg>
