<?xml version="1.0" encoding="utf-8"?>
<!-- Generator: Adobe Illustrator 26.3.1, SVG Export Plug-In . SVG Version: 6.00 Build 0)  -->
<svg version="1.1" id="Слой_1" xmlns="http://www.w3.org/2000/svg" xmlns:xlink="http://www.w3.org/1999/xlink" x="0px" y="0px"
	 viewBox="0 0 48 48" style="enable-background:new 0 0 48 48;" xml:space="preserve">
<path d="M23.2,42c-2.5,0-4.8-0.5-7-1.4s-4.1-2.2-5.7-3.9c-1.6-1.6-2.9-3.5-3.9-5.7c-0.9-2.2-1.4-4.5-1.4-7s0.5-4.8,1.4-7
	s2.2-4.1,3.9-5.7c1.6-1.6,3.5-2.9,5.7-3.9c2.2-0.9,4.5-1.4,7-1.4s4.8,0.5,7,1.4s4.1,2.2,5.7,3.9c1.6,1.6,2.9,3.5,3.9,5.7
	s1.4,4.5,1.4,7s-0.5,4.8-1.4,7s-2.2,4.1-3.9,5.7c-1.6,1.6-3.5,2.9-5.7,3.9C28,41.5,25.6,42,23.2,42z M38.2,30.8H17.4l-4.5,4.5h22.2
	c0.6-0.6,1.2-1.3,1.7-2.1S37.8,31.6,38.2,30.8z M39.6,24.8H23.5L19,29.2h19.8c0.2-0.7,0.4-1.4,0.6-2.2
	C39.5,26.3,39.6,25.6,39.6,24.8z M38.8,18.8h-9.3L25,23.2h14.6c0-0.8-0.1-1.6-0.3-2.3C39.2,20.2,39,19.5,38.8,18.8z M35.3,12.9
	L31,17.2h7.1c-0.4-0.8-0.8-1.5-1.3-2.3C36.4,14.3,35.9,13.6,35.3,12.9z M11,35.1l23.3-23.2c-1.5-1.4-3.2-2.4-5-3.2
	c-1.9-0.8-3.9-1.1-6.1-1.1c-4.6,0-8.5,1.6-11.7,4.8c-3.2,3.1-4.8,7-4.8,11.6c0,2.2,0.4,4.2,1.1,6C8.6,31.9,9.7,33.6,11,35.1z
	 M23.2,40.5c2,0,3.9-0.3,5.6-1c1.8-0.7,3.4-1.6,4.8-2.7H12.7c1.4,1.2,3,2.1,4.8,2.7C19.3,40.1,21.2,40.5,23.2,40.5z"/>
</svg>
