<?xml version="1.0" encoding="utf-8"?>
<!-- Generator: Adobe Illustrator 26.3.1, SVG Export Plug-In . SVG Version: 6.00 Build 0)  -->
<svg version="1.1" id="Слой_1" xmlns="http://www.w3.org/2000/svg" xmlns:xlink="http://www.w3.org/1999/xlink" x="0px" y="0px"
	 viewBox="0 0 48 48" style="enable-background:new 0 0 48 48;" xml:space="preserve">
<path d="M23.2,42c-2.5,0-4.8-0.5-7-1.4s-4.1-2.2-5.7-3.9c-1.6-1.6-2.9-3.5-3.9-5.7c-0.9-2.2-1.4-4.5-1.4-7s0.5-4.8,1.4-7
	s2.2-4.1,3.9-5.7c1.6-1.6,3.5-2.9,5.7-3.9c2.2-0.9,4.5-1.4,7-1.4s4.8,0.5,7,1.4s4.1,2.2,5.7,3.9c1.6,1.6,2.9,3.5,3.9,5.7
	s1.4,4.5,1.4,7s-0.5,4.8-1.4,7s-2.2,4.1-3.9,5.7c-1.6,1.6-3.5,2.9-5.7,3.9C28,41.5,25.6,42,23.2,42z M24.9,40.4
	c3.9-0.4,7.2-2,9.9-4.8c2.7-2.7,4.3-6.1,4.8-9.9C39.6,25.7,24.9,40.4,24.9,40.4z M6.7,22.1L21.3,7.6c-3.9,0.5-7.1,2-9.8,4.7
	S7.2,18.3,6.7,22.1z M7.7,29.8L29,8.6c-0.8-0.3-1.7-0.6-2.6-0.7c-0.9-0.2-1.8-0.2-2.8-0.3L6.7,24.4c0,0.9,0.1,1.9,0.3,2.8
	C7.2,28.1,7.4,29,7.7,29.8z M11,35.1l23.3-23.3c-0.6-0.5-1.2-1-1.8-1.4c-0.6-0.4-1.3-0.8-2-1.2l-22,22c0.4,0.7,0.8,1.4,1.2,2
	S10.5,34.5,11,35.1z M15.9,38.8l22-22.1c-0.3-0.7-0.7-1.4-1.2-2c-0.4-0.6-0.9-1.2-1.4-1.8L12.1,36.2c0.6,0.5,1.1,1,1.8,1.4
	C14.5,38,15.2,38.4,15.9,38.8z M22.7,40.4l16.9-16.9c0-0.9-0.1-1.9-0.3-2.8s-0.4-1.8-0.7-2.6L17.4,39.4c0.8,0.3,1.7,0.6,2.6,0.7
	C20.9,40.3,21.8,40.4,22.7,40.4z"/>
</svg>
