<?xml version="1.0" encoding="utf-8"?>
<!-- Generator: Adobe Illustrator 26.3.1, SVG Export Plug-In . SVG Version: 6.00 Build 0)  -->
<svg version="1.1" id="Слой_1" xmlns="http://www.w3.org/2000/svg" xmlns:xlink="http://www.w3.org/1999/xlink" x="0px" y="0px"
	 viewBox="0 0 48 48" style="enable-background:new 0 0 48 48;" xml:space="preserve">
<path d="M11.3,36.7c-2.4-0.2-4.3-0.8-5.6-1.8s-1.9-2.5-1.9-4.3s0.8-3.3,2.4-4.4s3.8-1.8,6.6-2.1c1.7-0.2,3-0.5,3.8-1
	c0.8-0.5,1.2-1.2,1.2-2.1c0-1.2-0.5-2.1-1.5-2.7s-2.6-1.1-4.8-1.4l0.2-1.5c2.5,0.3,4.4,1,5.7,1.9c1.3,0.9,2,2.2,2,3.6
	c0,1.3-0.6,2.4-1.7,3.2c-1.1,0.8-2.7,1.3-4.7,1.5c-2.5,0.2-4.4,0.7-5.7,1.6c-1.3,0.8-1.9,2-1.9,3.4c0,1.3,0.5,2.4,1.5,3.1
	c1,0.8,2.5,1.2,4.5,1.4C11.3,35.1,11.3,36.7,11.3,36.7z M25.1,35.6l-5.4-5.4L37,12.9c0.4-0.4,0.9-0.6,1.4-0.6s1,0.2,1.4,0.6l2.6,2.6
	c0.4,0.4,0.6,0.9,0.6,1.4s-0.2,1-0.6,1.4L25.1,35.6z M18.4,38c-0.3,0.1-0.6,0-0.9-0.3s-0.3-0.5-0.3-0.9l1.1-5.5l5.5,5.5L18.4,38z"/>
</svg>
