<?xml version="1.0" encoding="utf-8"?>
<!-- Generator: Adobe Illustrator 26.3.1, SVG Export Plug-In . SVG Version: 6.00 Build 0)  -->
<svg version="1.1" id="Слой_1" xmlns="http://www.w3.org/2000/svg" xmlns:xlink="http://www.w3.org/1999/xlink" x="0px" y="0px"
	 viewBox="0 0 48 48" style="enable-background:new 0 0 48 48;" xml:space="preserve">
<path d="M8.5,41.1H8.4c-1.1-0.5-1.8-1.2-2.2-2.3c-0.4-1.1-0.3-2.2,0.2-3.2L8.5,31C8.5,30.9,8.5,41.1,8.5,41.1z M18.6,44.1
	c-1.1,0-2.1-0.4-2.9-1.2c-0.8-0.8-1.2-1.7-1.2-2.9v-7.2l3.5,9.9c0.1,0.3,0.2,0.5,0.3,0.7c0.1,0.2,0.3,0.4,0.5,0.6
	C18.9,44.1,18.6,44.1,18.6,44.1z M26,41.8c-0.4,0.2-0.8,0.1-1.2-0.1c-0.4-0.3-0.7-0.6-0.9-1l-9.2-25.1c-0.2-0.4-0.2-0.8,0.1-1.2
	c0.2-0.4,0.5-0.7,1-0.9l15.5-5.6C31.6,7.8,32,7.8,32.4,8s0.7,0.6,0.8,1l9.2,24.9c0.1,0.4,0.1,0.9,0,1.3c-0.2,0.4-0.5,0.7-0.9,0.9
	C41.4,36.2,26,41.8,26,41.8z M22.5,19.4c0.5,0,0.9-0.2,1.2-0.5c0.4-0.4,0.5-0.8,0.5-1.2c0-0.5-0.2-0.9-0.5-1.2
	c-0.4-0.4-0.8-0.5-1.2-0.5c-0.5,0-0.9,0.2-1.3,0.5c-0.3,0.4-0.5,0.8-0.5,1.2c0,0.5,0.2,0.9,0.5,1.2S22,19.4,22.5,19.4z"/>
</svg>
