<?xml version="1.0" encoding="utf-8"?>
<!-- Generator: Adobe Illustrator 26.3.1, SVG Export Plug-In . SVG Version: 6.00 Build 0)  -->
<svg version="1.1" id="Слой_1" xmlns="http://www.w3.org/2000/svg" xmlns:xlink="http://www.w3.org/1999/xlink" x="0px" y="0px"
	 viewBox="0 0 48 48" style="enable-background:new 0 0 48 48;" xml:space="preserve">
<path d="M37,38v-2.9c0-0.4,0.1-0.7,0.4-1c0.3-0.3,0.6-0.4,1-0.4h3.9V32H37v-1.3h5.2c0.4,0,0.7,0.1,1,0.4s0.4,0.6,0.4,1v1.5
	c0,0.4-0.1,0.7-0.4,1c-0.3,0.3-0.6,0.4-1,0.4h-3.9v1.7h5.2V38H37z M14,34.8l8.4-12.9L14.7,10h2.1l6.9,10.7l0,0l7-10.7h2.1L25,21.8
	l8.4,12.9h-2.1L23.7,23l0,0l-7.6,11.8H14z"/>
</svg>
