<?xml version="1.0" encoding="utf-8"?>
<!-- Generator: Adobe Illustrator 26.3.1, SVG Export Plug-In . SVG Version: 6.00 Build 0)  -->
<svg version="1.1" id="Слой_1" xmlns="http://www.w3.org/2000/svg" xmlns:xlink="http://www.w3.org/1999/xlink" x="0px" y="0px"
	 viewBox="0 0 48 48" style="enable-background:new 0 0 48 48;" xml:space="preserve">
<path d="M8.8,42c-0.8,0-1.4-0.3-2-0.8C6.3,40.7,6,40,6,39.2V20.8c0-0.8,0.3-1.4,0.8-2C7.3,18.3,8,18,8.8,18h30.5
	c0.8,0,1.4,0.3,2,0.8c0.5,0.5,0.8,1.2,0.8,2v18.5c0,0.8-0.3,1.4-0.8,2c-0.5,0.5-1.2,0.8-2,0.8L8.8,42L8.8,42z M21.2,35.9L30,30
	l-8.8-5.9C21.2,24.1,21.2,35.9,21.2,35.9z M8.8,14v-1.5h30.5V14C39.2,14,8.8,14,8.8,14z M15,8.5V6.9h18v1.5H15V8.5z"/>
</svg>
