<?xml version="1.0" encoding="utf-8"?>
<!-- Generator: Adobe Illustrator 26.3.1, SVG Export Plug-In . SVG Version: 6.00 Build 0)  -->
<svg version="1.1" id="Слой_1" xmlns="http://www.w3.org/2000/svg" xmlns:xlink="http://www.w3.org/1999/xlink" x="0px" y="0px"
	 viewBox="0 0 48 48" style="enable-background:new 0 0 48 48;" xml:space="preserve">
<path d="M34.8,22.4H27L14.7,10h24.5c0.8,0,1.4,0.3,2,0.8c0.5,0.5,0.8,1.2,0.8,2v22.5c0,0.3,0,0.6-0.1,0.9c-0.1,0.3-0.2,0.5-0.3,0.8
	l-13-13h6.2C34.8,24,34.8,22.4,34.8,22.4z M39,41.6L35.5,38H8.8c-0.8,0-1.4-0.3-2-0.8C6.3,36.7,6,36,6,35.2V12.8
	c0-0.8,0.3-1.4,0.8-2C7.3,10.3,8,10,8.8,10v1.3L5.1,7.6l1.1-1.1l33.9,33.9L39,41.6z M13.2,23.9h1.5V22l0.4,0.4h-1.9V23.9z
	 M26.1,28.6h-13v1.5h14.5L26.1,28.6z"/>
</svg>
