<?xml version="1.0" encoding="utf-8"?>
<!-- Generator: Adobe Illustrator 26.3.1, SVG Export Plug-In . SVG Version: 6.00 Build 0)  -->
<svg version="1.1" id="Слой_1" xmlns="http://www.w3.org/2000/svg" xmlns:xlink="http://www.w3.org/1999/xlink" x="0px" y="0px"
	 viewBox="0 0 48 48" style="enable-background:new 0 0 48 48;" xml:space="preserve">
<path d="M10.8,40c-0.8,0-1.4-0.3-2-0.8C8.3,38.7,8,38,8,37.2V10.8c0-0.8,0.3-1.4,0.8-2C9.3,8.3,10,8,10.8,8h20.4l8.8,8.8v20.4
	c0,0.8-0.3,1.4-0.8,2c-0.5,0.5-1.2,0.8-2,0.8C37.2,40,10.8,40,10.8,40z M15.8,33.6c0.3,0,0.7-0.1,1-0.4c0.3-0.3,0.4-0.6,0.4-1
	c0-0.3-0.1-0.7-0.4-1s-0.6-0.4-1-0.4s-0.7,0.1-1,0.4s-0.4,0.6-0.4,1c0,0.4,0.1,0.7,0.4,1S15.4,33.6,15.8,33.6z M15.8,25.4
	c0.3,0,0.7-0.1,1-0.4s0.4-0.6,0.4-1s-0.1-0.7-0.4-1s-0.6-0.4-1-0.4s-0.7,0.1-1,0.4s-0.4,0.6-0.4,1s0.1,0.7,0.4,1
	S15.4,25.4,15.8,25.4z M15.8,17.1c0.3,0,0.7-0.1,1-0.4s0.4-0.6,0.4-1s-0.1-0.7-0.4-1s-0.6-0.4-1-0.4s-0.7,0.1-1,0.4
	c-0.3,0.3-0.4,0.6-0.4,1c0,0.3,0.1,0.7,0.4,1C15.1,17,15.4,17.1,15.8,17.1z M30.2,17.8h8.2l-8.2-8.2V17.8z"/>
</svg>
