<?xml version="1.0" encoding="utf-8"?>
<!-- Generator: Adobe Illustrator 26.3.1, SVG Export Plug-In . SVG Version: 6.00 Build 0)  -->
<svg version="1.1" id="Слой_1" xmlns="http://www.w3.org/2000/svg" xmlns:xlink="http://www.w3.org/1999/xlink" x="0px" y="0px"
	 viewBox="0 0 48 48" style="enable-background:new 0 0 48 48;" xml:space="preserve">
<path d="M5.2,37.2v-2.9c0-0.9,0.2-1.7,0.7-2.4c0.5-0.7,1.2-1.3,2-1.6c1.8-0.8,3.6-1.5,5.5-1.9c1.9-0.5,3.8-0.7,5.8-0.7
	c0.8,0,1.6,0,2.3,0.1c0.8,0.1,1.5,0.2,2.3,0.3v0.5c-1.4,1-2.4,2-3.1,3.2s-1,2.5-1,3.8v1.6C19.9,37.2,5.2,37.2,5.2,37.2z M24.9,37.2
	v-1.7c0-0.6,0.1-1.1,0.4-1.6s0.7-0.9,1.2-1.1c1.1-0.5,2.3-0.9,3.5-1.2c1.2-0.3,2.5-0.4,3.7-0.4c1.3,0,2.5,0.1,3.7,0.4
	s2.4,0.7,3.6,1.2c0.5,0.2,0.9,0.6,1.2,1.1s0.4,1,0.4,1.6v1.7H24.9z M33.9,26.8c-1.1,0-2-0.4-2.7-1.1C30.4,24.9,30,24,30,22.9
	s0.4-2,1.1-2.7c0.8-0.8,1.7-1.1,2.7-1.1c1.1,0,2,0.4,2.7,1.1c0.7,0.8,1.1,1.7,1.1,2.7c0,1.1-0.4,2-1.1,2.8
	C35.9,26.4,34.9,26.8,33.9,26.8z M19.2,22.8c-1.6,0-3-0.6-4.1-1.7C14,20,13.5,18.6,13.5,17s0.6-3,1.7-4.1s2.5-1.7,4.1-1.7
	c1.6,0,3,0.6,4.1,1.7c1,1.1,1.6,2.5,1.6,4.1s-0.6,3-1.7,4.1C22.2,22.2,20.8,22.8,19.2,22.8z"/>
</svg>
