<?xml version="1.0" encoding="utf-8"?>
<!-- Generator: Adobe Illustrator 26.3.1, SVG Export Plug-In . SVG Version: 6.00 Build 0)  -->
<svg version="1.1" id="Слой_1" xmlns="http://www.w3.org/2000/svg" xmlns:xlink="http://www.w3.org/1999/xlink" x="0px" y="0px"
	 viewBox="0 0 48 48" style="enable-background:new 0 0 48 48;" xml:space="preserve">
<path d="M40.2,42.4l-4.6-4.6c-1.6,1.4-3.4,2.4-5.4,3.1c-2,0.7-4,1.1-6.2,1.1c-2.5,0-4.8-0.5-7-1.4s-4.1-2.2-5.7-3.9
	c-1.6-1.6-2.9-3.5-3.9-5.7C6.5,28.8,6,26.5,6,24c0-2.2,0.4-4.3,1.1-6.2c0.7-2,1.8-3.7,3.1-5.3L5.6,7.8l1.1-1.1l34.5,34.5
	C41.3,41.3,40.2,42.4,40.2,42.4z M24,40.5c2,0,3.8-0.3,5.6-1c1.8-0.7,3.4-1.6,4.8-2.8l-3.1-3c-1.8,0.3-3.6,1-5.4,2.2
	c-1.7,1.2-3.1,2.6-4.2,4.5c0.4,0,0.7,0.1,1.1,0.1S23.7,40.5,24,40.5z M17,38.9c0.7-1.5,1.5-2.8,2.5-3.9c1-1,2-2,3.1-3
	c-0.5-0.2-1.2-0.3-1.9-0.4c-0.8-0.1-1.5-0.1-2.2-0.1c-1.5,0-2.8,0.2-4.1,0.6c-1.3,0.4-2.5,0.9-3.7,1.6c0.8,1.1,1.8,2.2,2.8,3
	C14.5,37.5,15.7,38.3,17,38.9z M38.9,34l-5.1-5.2c1.2-0.1,2.2-0.7,3.1-1.6c0.9-0.9,1.3-2,1.3-3.3c0-1.4-0.5-2.5-1.4-3.5
	c-1-1-2.1-1.4-3.5-1.4c-1.3,0-2.4,0.4-3.3,1.3s-1.4,1.9-1.6,3.1l-3.8-3.8c0-1.5-0.6-2.8-1.6-3.9c-1.1-1.1-2.4-1.6-3.9-1.6l-5.1-5
	c1.4-1,3-1.7,4.7-2.3C20.4,6.3,22.2,6,24,6c2.5,0,4.8,0.5,7,1.4s4.1,2.2,5.7,3.9c1.6,1.6,2.9,3.5,3.9,5.7c0.9,2.2,1.4,4.5,1.4,7
	c0,1.8-0.3,3.6-0.8,5.3C40.7,31,39.9,32.6,38.9,34z M18.8,26c0.7,0,1.4-0.1,2-0.3c0.6-0.2,1.2-0.5,1.7-0.9l-8.4-8.5
	c-0.4,0.5-0.7,1.1-0.9,1.7s-0.3,1.3-0.3,2c0,1.6,0.6,3,1.7,4.2C15.8,25.4,17.2,26,18.8,26z"/>
</svg>
