<?xml version="1.0" encoding="utf-8"?>
<!-- Generator: Adobe Illustrator 26.3.1, SVG Export Plug-In . SVG Version: 6.00 Build 0)  -->
<svg version="1.1" id="Слой_1" xmlns="http://www.w3.org/2000/svg" xmlns:xlink="http://www.w3.org/1999/xlink" x="0px" y="0px"
	 viewBox="0 0 48 48" style="enable-background:new 0 0 48 48;" xml:space="preserve">
<path d="M5,45v-1.5h1c1.1,0,2.1-0.2,3.1-0.5s2-0.9,2.9-1.6c1,0.7,1.9,1.3,2.9,1.6s2,0.5,3.1,0.5c1,0,2.1-0.2,3.1-0.5s2-0.9,2.9-1.6
	c1,0.7,1.9,1.3,2.9,1.6s2,0.5,3.1,0.5c1,0,2.1-0.2,3.1-0.5s2-0.9,2.9-1.6c0.9,0.7,1.9,1.3,2.9,1.6s2,0.5,3.1,0.5h1V45h-1
	c-0.9,0-1.9-0.1-2.9-0.4c-1-0.3-2.1-0.8-3.1-1.4c-1.1,0.7-2.1,1.2-3.1,1.4c-1,0.3-2,0.4-2.9,0.4s-1.9-0.1-2.9-0.4
	c-1-0.3-2.1-0.8-3.1-1.4c-1.1,0.7-2.1,1.2-3.1,1.4c-1,0.3-2,0.4-2.9,0.4s-1.9-0.1-2.9-0.4c-1-0.3-2.1-0.8-3.1-1.4
	c-1.1,0.7-2.1,1.2-3.1,1.4c-1,0.3-2,0.4-2.9,0.4H5z M17.4,8.7l10.6,2c0.3,0,0.5,0.2,0.8,0.4s0.5,0.5,0.7,0.8l1.8,3.1
	c0.9,1.5,2.1,2.8,3.6,3.8s3.2,1.6,5,1.8v1.6c-2.2-0.2-4.2-1-6.1-2.3c-1.8-1.3-3.3-3-4.5-5.2l-7.1,5.2l8.5,6.7v7.9
	c0.5,0.4,1.1,0.8,1.8,1.4c0.7,0.6,1.3,1,1.8,1.4c-0.4,0.3-1,0.6-1.8,0.8c-0.8,0.3-1.6,0.4-2.6,0.4s-2.1-0.2-3.1-0.6
	c-1-0.4-2-1.1-2.9-2c-0.9,0.9-1.8,1.6-2.7,1.9c-0.9,0.4-1.8,0.6-2.6,0.6h0.1h0.1c-3.5-2.2-6.3-4.4-8.5-6.7c-2.2-2.2-3.2-3.9-3.2-5.1
	c0-0.5,0.3-0.9,0.8-1.1s1.1-0.3,1.6-0.3c0.9,0,2.2,0.2,3.9,0.7c1.7,0.4,3.7,1.1,6,2.1l-2.1-8.1c-0.2-0.6-0.2-1.3-0.1-1.9
	s0.4-1,0.8-1.3l7-5.1c-0.2,0-0.7-0.1-1.4-0.3c-0.7-0.1-1.5-0.3-2.3-0.4c-0.8-0.2-1.6-0.3-2.3-0.4c-0.7-0.1-1.2-0.2-1.4-0.3l-5,3.5
	l-0.9-1.3C11.9,12.5,17.4,8.7,17.4,8.7z M20,21.3l1.2,7.4c1.3,0.6,2.6,1.3,3.8,2c1.3,0.7,2.6,1.5,4.2,2.4v-5.3L20,21.3z M34,10.1
	c-0.9,0-1.7-0.3-2.3-1c-0.6-0.6-0.9-1.4-0.9-2.3s0.3-1.7,0.9-2.3c0.6-0.6,1.4-0.9,2.3-0.9s1.7,0.3,2.3,0.9s0.9,1.4,0.9,2.3
	s-0.3,1.6-0.9,2.3C35.7,9.7,34.9,10.1,34,10.1z"/>
</svg>
