<?xml version="1.0" encoding="utf-8"?>
<!-- Generator: Adobe Illustrator 26.3.1, SVG Export Plug-In . SVG Version: 6.00 Build 0)  -->
<svg version="1.1" id="Слой_1" xmlns="http://www.w3.org/2000/svg" xmlns:xlink="http://www.w3.org/1999/xlink" x="0px" y="0px"
	 viewBox="0 0 48 48" style="enable-background:new 0 0 48 48;" xml:space="preserve">
<path d="M23.3,29.2l-4.7-4.7l14.2-14.2c0.3-0.3,0.6-0.4,1-0.4s0.7,0.1,1,0.4l2.7,2.7c0.3,0.3,0.4,0.6,0.4,1s-0.1,0.7-0.4,1
	L23.3,29.2z M25.7,38.4l1.5-1.5h17v1.5H25.7z M11.4,38.5c-0.9,0-1.8-0.1-2.7-0.4c-0.9-0.3-1.7-0.7-2.4-1.2l10.2-10.2l3.8,3.8
	c0.3,0.3,0.5,0.6,0.7,1s0.3,0.7,0.3,1.1c0,0.4-0.1,0.8-0.2,1.2c-0.2,0.4-0.4,0.7-0.7,1l-1,1c-0.9,0.9-1.9,1.6-3.1,2.1
	s-2.4,0.7-3.7,0.7C12.6,38.5,11.4,38.5,11.4,38.5z"/>
</svg>
