<?xml version="1.0" encoding="utf-8"?>
<!-- Generator: Adobe Illustrator 26.3.1, SVG Export Plug-In . SVG Version: 6.00 Build 0)  -->
<svg version="1.1" id="Слой_1" xmlns="http://www.w3.org/2000/svg" xmlns:xlink="http://www.w3.org/1999/xlink" x="0px" y="0px"
	 viewBox="0 0 48 48" style="enable-background:new 0 0 48 48;" xml:space="preserve">
<path d="M12.4,36L6,29.6l1.2-1.1l4.4,4.4V16.6c0-1.8,0.6-3.4,1.9-4.7s2.8-1.9,4.7-1.9c1.8,0,3.4,0.6,4.7,1.9
	c1.3,1.3,1.9,2.8,1.9,4.7v12.8c0,1.4,0.5,2.6,1.5,3.6s2.2,1.5,3.6,1.5s2.6-0.5,3.5-1.5c1-1,1.5-2.2,1.5-3.6V13.1l-4.4,4.4l-1.2-1.1
	l6.4-6.4l6.4,6.4l-1.2,1.1l-4.4-4.4v16.3c0,1.9-0.6,3.4-1.9,4.7c-1.3,1.3-2.8,1.9-4.7,1.9c-1.9,0-3.4-0.6-4.7-1.9
	c-1.3-1.3-1.9-2.8-1.9-4.7V16.6c0-1.4-0.5-2.6-1.5-3.5c-1-1-2.2-1.5-3.5-1.5c-1.4,0-2.6,0.5-3.6,1.5s-1.5,2.2-1.5,3.5v16.3l4.4-4.4
	l1.2,1.1L12.4,36z"/>
</svg>
