<?xml version="1.0" encoding="utf-8"?>
<!-- Generator: Adobe Illustrator 26.3.1, SVG Export Plug-In . SVG Version: 6.00 Build 0)  -->
<svg version="1.1" id="Слой_1" xmlns="http://www.w3.org/2000/svg" xmlns:xlink="http://www.w3.org/1999/xlink" x="0px" y="0px"
	 viewBox="0 0 48 48" style="enable-background:new 0 0 48 48;" xml:space="preserve">
<path d="M24,42c-2.5,0-4.8-0.5-7-1.4s-4.1-2.2-5.7-3.8s-2.9-3.5-3.8-5.7C6.5,28.8,6,26.5,6,24s0.5-4.8,1.4-7s2.2-4.1,3.8-5.7
	s3.5-2.9,5.7-3.8C19.2,6.5,21.5,6,24,6s4.8,0.5,7,1.4s4.1,2.2,5.7,3.8c1.6,1.6,2.9,3.5,3.8,5.7c0.9,2.2,1.4,4.5,1.4,7
	s-0.5,4.8-1.4,7s-2.2,4.1-3.8,5.7s-3.5,2.9-5.7,3.8C28.8,41.5,26.5,42,24,42z M13.7,21.2c0.4,0,0.7-0.1,1-0.4s0.4-0.6,0.4-1
	s-0.1-0.7-0.4-1c-0.3-0.3-0.6-0.4-1-0.4s-0.7,0.1-1,0.4s-0.4,0.6-0.4,1s0.1,0.7,0.4,1C13,21.1,13.3,21.2,13.7,21.2z M19.9,15.1
	c0.4,0,0.7-0.1,1-0.4c0.3-0.3,0.4-0.6,0.4-1s-0.1-0.7-0.4-1s-0.6-0.4-1-0.4s-0.7,0.1-1,0.4c-0.3,0.3-0.4,0.6-0.4,1s0.1,0.7,0.4,1
	C19.2,14.9,19.6,15.1,19.9,15.1z M34.3,21.2c0.4,0,0.7-0.1,1-0.4s0.4-0.6,0.4-1s-0.1-0.7-0.4-1c-0.3-0.3-0.6-0.4-1-0.4
	s-0.7,0.1-1,0.4s-0.4,0.6-0.4,1s0.1,0.7,0.4,1C33.6,21.1,33.9,21.2,34.3,21.2z M24,26.8c0.8,0,1.5-0.3,2-0.8c0.6-0.5,0.8-1.2,0.8-2
	c0-0.5-0.1-0.9-0.3-1.3c-0.2-0.4-0.5-0.8-0.8-1.1l3.5-8.4c0.1-0.2,0.1-0.3,0-0.5s-0.2-0.3-0.4-0.4c-0.2-0.1-0.4-0.1-0.6,0
	s-0.3,0.2-0.4,0.4l-3.6,8.5c-0.8-0.1-1.6,0.2-2.2,0.7c-0.6,0.6-0.9,1.3-0.9,2.1c0,0.8,0.3,1.5,0.8,2S23.2,26.8,24,26.8z M14.9,37.7
	c1.4-0.9,2.9-1.5,4.5-1.9s3.1-0.7,4.7-0.7s3.1,0.2,4.7,0.7c1.6,0.4,3,1.1,4.5,1.9l1.4-1c-1.6-1.1-3.3-1.8-5.1-2.3
	c-1.8-0.5-3.6-0.7-5.5-0.7s-3.7,0.2-5.5,0.7s-3.5,1.3-5.1,2.3C13.4,36.6,14.9,37.7,14.9,37.7z"/>
</svg>
