<?xml version="1.0" encoding="utf-8"?>
<!-- Generator: Adobe Illustrator 26.3.1, SVG Export Plug-In . SVG Version: 6.00 Build 0)  -->
<svg version="1.1" id="Слой_1" xmlns="http://www.w3.org/2000/svg" xmlns:xlink="http://www.w3.org/1999/xlink" x="0px" y="0px"
	 viewBox="0 0 48 48" style="enable-background:new 0 0 48 48;" xml:space="preserve">
<path d="M42,14.3h-8.3V13h7c-2.4-2-5-3.6-7.8-4.8c-2.8-1.3-5.7-1.9-8.9-1.9c-3.1,0-6.1,0.6-8.9,1.9C12.3,9.4,9.7,11,7.3,13h7v1.3H6
	V6h1.3v5.3c2.5-1.9,5.1-3.4,7.9-4.6C18,5.6,20.9,5,24,5s6,0.6,8.8,1.8s5.4,2.7,7.9,4.6V6H42V14.3z M23.6,42c-0.6,0-1.2-0.1-1.8-0.4
	c-0.6-0.2-1.1-0.6-1.6-1l-9.9-9.9l0.6-0.7c0.2-0.3,0.5-0.5,0.8-0.6s0.7-0.1,1,0l6.3,1.5V14c0-0.2,0.1-0.4,0.2-0.5s0.3-0.2,0.6-0.2
	c0.2,0,0.4,0.1,0.5,0.2c0.1,0.1,0.2,0.3,0.2,0.5v14.8h4.3v-8.2c0-0.2,0.1-0.4,0.2-0.5s0.3-0.2,0.6-0.2s0.4,0.1,0.5,0.2
	s0.2,0.3,0.2,0.5v8.2h4.3v-6.2c0-0.2,0.1-0.4,0.2-0.5s0.3-0.2,0.6-0.2c0.2,0,0.4,0.1,0.5,0.2s0.2,0.3,0.2,0.5v6.2h4.3v-2.2
	c0-0.2,0.1-0.4,0.2-0.5c0.1-0.1,0.3-0.2,0.6-0.2c0.2,0,0.4,0.1,0.5,0.2s0.2,0.3,0.2,0.5V35c0,1.9-0.7,3.6-2,5c-1.4,1.4-3,2-4.9,2
	C31,42,23.6,42,23.6,42z"/>
</svg>
