<?xml version="1.0" encoding="utf-8"?>
<!-- Generator: Adobe Illustrator 26.3.1, SVG Export Plug-In . SVG Version: 6.00 Build 0)  -->
<svg version="1.1" id="Слой_1" xmlns="http://www.w3.org/2000/svg" xmlns:xlink="http://www.w3.org/1999/xlink" x="0px" y="0px"
	 viewBox="0 0 48 48" style="enable-background:new 0 0 48 48;" xml:space="preserve">
<path d="M24,38c-2.5,0-4.6-0.9-6.4-2.6C15.9,33.6,15,31.5,15,29s0.8-4.5,2.4-6.2c1.6-1.6,3.5-2.6,5.8-2.9v-11l-4.8,4.8l-1.1-1.1
	L24,6l6.6,6.6l-1.1,1.1l-4.8-4.8v11c2.3,0.3,4.2,1.2,5.8,2.9c1.6,1.6,2.4,3.7,2.4,6.2s-0.9,4.6-2.6,6.4C28.6,37.1,26.5,38,24,38z"/>
</svg>
