<?xml version="1.0" encoding="utf-8"?>
<!-- Generator: Adobe Illustrator 26.3.1, SVG Export Plug-In . SVG Version: 6.00 Build 0)  -->
<svg version="1.1" id="Слой_1" xmlns="http://www.w3.org/2000/svg" xmlns:xlink="http://www.w3.org/1999/xlink" x="0px" y="0px"
	 viewBox="0 0 48 48" style="enable-background:new 0 0 48 48;" xml:space="preserve">
<path d="M32.3,39.6c-0.6,0.2-1.2,0.3-1.8,0.3c-0.6,0-1.2-0.2-1.8-0.5l-12.8-5.9l0.4-0.9c0.1-0.4,0.3-0.6,0.6-0.8
	c0.3-0.2,0.6-0.3,1-0.4l6.4-0.7l-5.9-15.9c-0.1-0.2-0.1-0.4,0-0.6c0.1-0.2,0.3-0.3,0.5-0.4c0.2-0.1,0.4-0.1,0.6,0s0.3,0.3,0.4,0.5
	l5,13.8l4-1.4L26.1,19c-0.1-0.2-0.1-0.4,0-0.6s0.3-0.3,0.5-0.4s0.4-0.1,0.6,0s0.3,0.3,0.4,0.5l2.8,7.7l4-1.5l-2.1-5.8
	c-0.1-0.2-0.1-0.4,0-0.6s0.3-0.3,0.5-0.4s0.4-0.1,0.6,0c0.2,0.1,0.3,0.2,0.4,0.5l2.2,5.8l4-1.4l-0.8-2.1c-0.1-0.2-0.1-0.4,0-0.6
	s0.2-0.3,0.5-0.4c0.2-0.1,0.4-0.1,0.6,0c0.2,0.1,0.3,0.2,0.4,0.5l2.9,8c0.7,1.8,0.6,3.6-0.2,5.4c-0.8,1.7-2.1,2.9-4,3.6L32.3,39.6z
	 M12.5,27.2c-1.4-1.9-2.5-4-3.3-6.3S8,16.3,8,13.9c0-1.3,0.1-2.5,0.3-3.8C8.4,8.9,8.7,7.7,9,6.4l-4,4L4,9.5l5.8-5.8l5.8,5.8
	l-0.9,0.9l-4.3-4.3C10.1,7.4,9.8,8.7,9.6,10s-0.3,2.6-0.3,3.9c0,2.2,0.4,4.4,1.1,6.5s1.7,4.1,3.1,5.9C13.4,26.3,12.5,27.2,12.5,27.2
	z"/>
</svg>
