<?xml version="1.0" encoding="utf-8"?>
<!-- Generator: Adobe Illustrator 26.3.1, SVG Export Plug-In . SVG Version: 6.00 Build 0)  -->
<svg version="1.1" id="Слой_1" xmlns="http://www.w3.org/2000/svg" xmlns:xlink="http://www.w3.org/1999/xlink" x="0px" y="0px"
	 viewBox="0 0 48 48" style="enable-background:new 0 0 48 48;" xml:space="preserve">
<path d="M23.6,42c-0.6,0-1.2-0.1-1.8-0.4c-0.6-0.2-1.1-0.6-1.6-1l-9.9-9.9l0.6-0.7c0.2-0.3,0.5-0.5,0.8-0.6s0.7-0.1,1,0l6.3,1.5V14
	c0-0.2,0.1-0.4,0.2-0.5s0.3-0.2,0.6-0.2c0.2,0,0.4,0.1,0.5,0.2c0.1,0.1,0.2,0.3,0.2,0.5v14.8h4.3v-8.2c0-0.2,0.1-0.4,0.2-0.5
	s0.3-0.2,0.6-0.2c0.2,0,0.4,0.1,0.5,0.2s0.2,0.3,0.2,0.5v8.2h4.3v-6.2c0-0.2,0.1-0.4,0.2-0.5s0.3-0.2,0.6-0.2c0.2,0,0.4,0.1,0.5,0.2
	s0.2,0.3,0.2,0.5v6.2h4.3v-2.2c0-0.2,0.1-0.4,0.2-0.5c0.1-0.1,0.3-0.2,0.6-0.2c0.2,0,0.4,0.1,0.5,0.2s0.2,0.3,0.2,0.5V35
	c0,1.9-0.7,3.6-2,5c-1.4,1.4-3,2-5,2H23.6z M6,14.3V6h1.3v5.3c2.8-2.1,5.6-3.7,8.4-4.8c2.8-1,5.7-1.6,8.7-1.6
	c3.8,0,7.3,0.8,10.4,2.5c3.1,1.6,5.5,3.9,7.2,6.9h-1.5c-1.7-2.6-4-4.6-6.8-5.9c-2.8-1.4-5.9-2.1-9.3-2.1c-3,0-5.9,0.6-8.7,1.7
	c-2.8,1-5.6,2.7-8.4,5h7v1.3H6z"/>
</svg>
