<?xml version="1.0" encoding="utf-8"?>
<!-- Generator: Adobe Illustrator 26.3.1, SVG Export Plug-In . SVG Version: 6.00 Build 0)  -->
<svg version="1.1" id="Слой_1" xmlns="http://www.w3.org/2000/svg" xmlns:xlink="http://www.w3.org/1999/xlink" x="0px" y="0px"
	 viewBox="0 0 48 48" style="enable-background:new 0 0 48 48;" xml:space="preserve">
<path d="M23.6,42c-0.6,0-1.2-0.1-1.8-0.4c-0.6-0.2-1.1-0.6-1.6-1l-9.9-9.9l0.6-0.7c0.2-0.3,0.5-0.5,0.8-0.6s0.7-0.1,1,0l6.3,1.5V14
	c0-0.2,0.1-0.4,0.2-0.5s0.3-0.2,0.6-0.2c0.2,0,0.4,0.1,0.5,0.2c0.1,0.1,0.2,0.3,0.2,0.5v14.8h4.3v-8.2c0-0.2,0.1-0.4,0.2-0.5
	s0.3-0.2,0.6-0.2c0.2,0,0.4,0.1,0.5,0.2s0.2,0.3,0.2,0.5v8.2h4.3v-6.2c0-0.2,0.1-0.4,0.2-0.5s0.3-0.2,0.6-0.2c0.2,0,0.4,0.1,0.5,0.2
	s0.2,0.3,0.2,0.5v6.2h4.3v-2.2c0-0.2,0.1-0.4,0.2-0.5c0.1-0.1,0.3-0.2,0.6-0.2c0.2,0,0.4,0.1,0.5,0.2s0.2,0.3,0.2,0.5V35
	c0,1.9-0.7,3.6-2,5c-1.4,1.4-3,2-5,2H23.6z M6,14.3c1.7-2.9,4.1-5.2,7.2-6.9C16.4,5.8,19.8,5,23.7,5c3,0,5.9,0.5,8.7,1.6
	c2.8,1,5.6,2.6,8.4,4.8V6H42v8.3h-8.3V13h7c-2.8-2.3-5.5-4-8.3-5.1s-5.7-1.7-8.7-1.7c-3.4,0-6.5,0.7-9.3,2.1s-5.1,3.4-6.8,5.9H6
	V14.3z"/>
</svg>
