<?xml version="1.0" encoding="utf-8"?>
<!-- Generator: Adobe Illustrator 26.3.1, SVG Export Plug-In . SVG Version: 6.00 Build 0)  -->
<svg version="1.1" id="Слой_1" xmlns="http://www.w3.org/2000/svg" xmlns:xlink="http://www.w3.org/1999/xlink" x="0px" y="0px"
	 viewBox="0 0 48 48" style="enable-background:new 0 0 48 48;" xml:space="preserve">
<path d="M32.3,39.6c-0.6,0.2-1.2,0.3-1.8,0.3c-0.6,0-1.2-0.2-1.8-0.5l-12.8-5.9l0.4-0.9c0.1-0.4,0.3-0.6,0.6-0.8
	c0.3-0.2,0.6-0.3,1-0.4l6.4-0.7l-5.9-15.9c-0.1-0.2-0.1-0.4,0-0.6c0.1-0.2,0.3-0.3,0.5-0.4c0.2-0.1,0.4-0.1,0.6,0s0.3,0.3,0.4,0.5
	l5,13.8l4-1.4l-2.6-7.3c-0.1-0.2-0.1-0.5-0.1-0.8s0.2-0.6,0.4-0.6c0.2-0.1,0.4-0.1,0.6,0s0.3,0.3,0.4,0.5l2.8,7.7l4-1.5l-2.1-5.8
	c-0.1-0.2-0.1-0.4,0-0.6s0.3-0.3,0.5-0.4s0.4-0.1,0.6,0c0.2,0.1,0.3,0.2,0.4,0.5l2.2,5.8l4-1.4l-0.8-2.1c-0.1-0.2-0.1-0.4,0-0.6
	s0.2-0.3,0.5-0.4c0.2-0.1,0.4-0.1,0.6,0c0.2,0.1,0.3,0.2,0.4,0.5l2.9,8c0.7,1.8,0.6,3.6-0.2,5.4c-0.8,1.7-2.1,2.9-4,3.6L32.3,39.6z
	 M6,42v-1.3h4.9c-2-2.4-3.6-5-4.9-7.8c-1.2-2.8-1.9-5.8-1.9-8.9s0.6-6.1,1.9-8.9s2.9-5.4,4.9-7.8H6V6h7.7v7.8h-1.3V7.5
	c-2.1,2.4-3.8,4.9-5.1,7.7s-2,5.7-2,8.8s0.7,6,2,8.8s3,5.3,5.1,7.6v-6.2h1.3V42H6z"/>
</svg>
