<?xml version="1.0" encoding="utf-8"?>
<!-- Generator: Adobe Illustrator 26.3.1, SVG Export Plug-In . SVG Version: 6.00 Build 0)  -->
<svg version="1.1" id="Слой_1" xmlns="http://www.w3.org/2000/svg" xmlns:xlink="http://www.w3.org/1999/xlink" x="0px" y="0px"
	 viewBox="0 0 48 48" style="enable-background:new 0 0 48 48;" xml:space="preserve">
<path d="M8.8,40c-0.8,0-1.4-0.3-2-0.8C6.3,38.7,6,38,6,37.2V14.9c0-0.8,0.3-1.4,0.8-2c0.5-0.5,1.2-0.8,2-0.8h6.4L18.8,8h10.3
	l3.7,4.2h6.4c0.8,0,1.4,0.3,2,0.8c0.5,0.5,0.8,1.2,0.8,2v22.3c0,0.8-0.3,1.4-0.8,2c-0.5,0.5-1.2,0.8-2,0.8L8.8,40L8.8,40z
	 M19.6,32.7l1.2-1.2l-4.7-4.7h15.8l-4.7,4.7l1.2,1.2l6.5-6.5l-6.5-6.5l-1.2,1.2l4.6,4.5H16.1l4.6-4.5l-1.1-1.2l-6.5,6.6
	C13.1,26.2,19.6,32.7,19.6,32.7z"/>
</svg>
