<?xml version="1.0" encoding="utf-8"?>
<!-- Generator: Adobe Illustrator 26.3.1, SVG Export Plug-In . SVG Version: 6.00 Build 0)  -->
<svg version="1.1" id="Слой_1" xmlns="http://www.w3.org/2000/svg" xmlns:xlink="http://www.w3.org/1999/xlink" x="0px" y="0px"
	 viewBox="0 0 48 48" style="enable-background:new 0 0 48 48;" xml:space="preserve">
<path d="M27.5,23.8c1.4,0,2.6-0.5,3.5-1.4c1-1,1.4-2.1,1.4-3.5s-0.5-2.6-1.4-3.5c-1-1-2.1-1.5-3.5-1.5s-2.6,0.5-3.5,1.4
	c-1,1-1.4,2.1-1.4,3.5s0.5,2.6,1.4,3.5C25,23.4,26.1,23.8,27.5,23.8z M15.8,34.9c-0.7,0-1.4-0.3-1.9-0.8c-0.6-0.6-0.8-1.2-0.8-1.9
	V8.8c0-0.7,0.3-1.4,0.8-1.9C14.5,6.3,15.1,6,15.8,6h23.4c0.7,0,1.4,0.3,1.9,0.8C41.7,7.4,42,8,42,8.8v23.4c0,0.7-0.3,1.4-0.8,1.9
	c-0.6,0.6-1.2,0.8-1.9,0.8C39.2,34.9,15.8,34.9,15.8,34.9z M8.8,42c-0.7,0-1.4-0.3-1.9-0.8C6.3,40.6,6,40,6,39.2v-25h1.5v25
	c0,0.4,0.1,0.7,0.3,0.9c0.2,0.2,0.5,0.3,0.9,0.3h25V42H8.8z M15.8,33.4h23.5c-1.5-1.7-3.3-3-5.3-4S29.8,28,27.5,28s-4.4,0.5-6.5,1.4
	C19.1,30.4,17.3,31.7,15.8,33.4z"/>
</svg>
