<?xml version="1.0" encoding="utf-8"?>
<!-- Generator: Adobe Illustrator 26.3.1, SVG Export Plug-In . SVG Version: 6.00 Build 0)  -->
<svg version="1.1" id="Слой_1" xmlns="http://www.w3.org/2000/svg" xmlns:xlink="http://www.w3.org/1999/xlink" x="0px" y="0px"
	 viewBox="0 0 48 48" style="enable-background:new 0 0 48 48;" xml:space="preserve">
<path d="M30.1,23L25,17.9L36.8,6H42v5.2L30.1,23z M8.3,41.6l-2-2c-0.3-0.3-0.4-0.6-0.4-1s0.2-0.7,0.4-1l6.3-6.3L8.2,27l0.9-0.9
	c0.5-0.5,1.1-0.8,1.9-0.8c0.8,0,1.4,0.3,2,0.8l1.8,1.9l3-3l5.2,5.2l-3,3l1.8,1.8c0.5,0.5,0.8,1.2,0.8,2s-0.3,1.4-0.8,1.9l-0.9,0.9
	l-4.4-4.4l-6.3,6.3c-0.3,0.3-0.6,0.5-1,0.5C8.9,42.1,8.6,41.9,8.3,41.6z M42,41l-1.1,1L17.5,18.7c-1.3,1-2.7,1.4-4.4,1.4
	s-3-0.7-4.2-1.9L6.8,16l0.3-0.3c1-1,2.2-1.6,3.6-1.6s2.6,0.5,3.7,1.6l3,3c0.1-0.1,0.2-0.2,0.3-0.3c0.1-0.1,0.2-0.2,0.3-0.3
	c0.1-0.1,0.2-0.2,0.2-0.3c0.1-0.1,0.2-0.2,0.2-0.2l-3-3c-1.3-1.3-2.9-2-4.7-2s-3.4,0.7-4.7,2l-0.3,0.3L4.8,14L14,4.9L18.1,9
	c1.2,1.2,1.8,2.6,1.9,4.2s-0.4,3.1-1.4,4.4l15.9,15.9c-0.4-1-0.7-2-0.8-3s-0.1-2.1,0.1-3.1c0.2-0.8,0.5-1.7,0.9-2.4
	c0.4-0.8,0.9-1.5,1.4-2.1c0.6-0.6,1.2-1.2,1.9-1.8c0.7-0.6,1.4-1,2.2-1.5c1,1.4,1.8,3,2.4,4.6c0.6,1.6,0.7,3.3,0.3,5
	c-0.3,1.5-1,2.9-1.9,4.2c-1,1.2-2.1,2.3-3.5,3.1L42,41z"/>
</svg>
