<?xml version="1.0" encoding="utf-8"?>
<!-- Generator: Adobe Illustrator 26.3.1, SVG Export Plug-In . SVG Version: 6.00 Build 0)  -->
<svg version="1.1" id="Слой_1" xmlns="http://www.w3.org/2000/svg" xmlns:xlink="http://www.w3.org/1999/xlink" x="0px" y="0px"
	 viewBox="0 0 48 48" style="enable-background:new 0 0 48 48;" xml:space="preserve">
<path d="M35.7,17.2v-2.7c0-1.2,0.4-2.2,1.1-3c0.8-0.8,1.8-1.1,3-1.1s2.2,0.4,3,1.1c0.7,0.8,1.1,1.8,1.1,3v2.7H35.7z M4.1,17.2v-2.7
	c0-1.2,0.4-2.2,1.1-3c0.8-0.8,1.8-1.1,3-1.1s2.2,0.4,3,1.1c0.7,0.8,1.1,1.8,1.1,3v2.7H4.1z M4.1,39.9V18.5h8.2v21.4
	C12.3,39.9,4.1,39.9,4.1,39.9z M13.6,39.9V17.6L24,8.7l10.4,8.9v22.3h-7V32c0-1-0.3-1.8-0.9-2.5c-0.6-0.6-1.4-0.9-2.5-0.9
	c-1,0-1.8,0.3-2.5,0.9c-0.6,0.6-0.9,1.4-0.9,2.5v7.9C20.6,39.9,13.6,39.9,13.6,39.9z M35.7,39.9V18.5h8.2v21.4H35.7z M24,22.1
	c0.6,0,1.1-0.2,1.5-0.6s0.6-0.9,0.6-1.5s-0.2-1.1-0.6-1.5s-0.9-0.6-1.5-0.6s-1.1,0.2-1.5,0.6s-0.6,0.9-0.6,1.5s0.2,1.1,0.6,1.5
	S23.4,22.1,24,22.1z"/>
</svg>
