<?xml version="1.0" encoding="utf-8"?>
<!-- Generator: Adobe Illustrator 26.3.1, SVG Export Plug-In . SVG Version: 6.00 Build 0)  -->
<svg version="1.1" id="Слой_1" xmlns="http://www.w3.org/2000/svg" xmlns:xlink="http://www.w3.org/1999/xlink" x="0px" y="0px"
	 viewBox="0 0 48 48" style="enable-background:new 0 0 48 48;" xml:space="preserve">
<path d="M9.5,38.7v-1.5h6.7l-2.1-2c-1.7-1.6-3-3.3-3.8-5.1C9.4,28.2,9,26.3,9,24.2c0-3.1,0.9-6,2.6-8.5c1.8-2.6,4.1-4.4,7.1-5.6v1.6
	c-2.5,1.1-4.5,2.8-5.9,5.1c-1.5,2.3-2.2,4.8-2.2,7.5c0,1.9,0.4,3.7,1.1,5.3c0.7,1.6,1.8,3,3.1,4.3l2.5,2.3v-6.7h1.5v9.3
	C18.8,38.7,9.5,38.7,9.5,38.7z M29.3,38v-1.6c2.5-1.1,4.5-2.8,6-5.1s2.2-4.8,2.2-7.5c0-1.7-0.4-3.3-1.1-5c-0.7-1.6-1.7-3.1-3.1-4.5
	L30.8,12v6.7h-1.6V9.3h9.3v1.5h-6.7l2.1,2.1c1.7,1.6,2.9,3.4,3.8,5.3c0.8,1.9,1.2,3.8,1.2,5.6c0,3.1-0.9,6-2.6,8.5
	S32.3,36.8,29.3,38z"/>
</svg>
