<?xml version="1.0" encoding="utf-8"?>
<!-- Generator: Adobe Illustrator 26.3.1, SVG Export Plug-In . SVG Version: 6.00 Build 0)  -->
<svg version="1.1" id="Слой_1" xmlns="http://www.w3.org/2000/svg" xmlns:xlink="http://www.w3.org/1999/xlink" x="0px" y="0px"
	 viewBox="0 0 48 48" style="enable-background:new 0 0 48 48;" xml:space="preserve">
<path d="M37.3,21.5c-0.4-1.7-1-3.2-1.9-4.6s-2.4-3-4.5-4.9v6.6h-1.5V9.3h9.3v1.5H32c2.2,1.9,3.9,3.8,4.9,5.5c1,1.7,1.7,3.4,2,5.1
	C38.8,21.5,37.3,21.5,37.3,21.5z M28.1,36.5c-0.5,0-0.9-0.2-1.3-0.5c-0.3-0.3-0.5-0.8-0.5-1.3V28c0-0.5,0.2-0.9,0.5-1.3
	c0.3-0.3,0.8-0.5,1.3-0.5h12.1c0.5,0,0.9,0.2,1.3,0.5C41.8,27,42,27.5,42,28v6.7c0,0.5-0.2,0.9-0.5,1.3c-0.3,0.3-0.8,0.5-1.3,0.5
	H28.1z M9.5,38.7v-1.5h6.7C13.6,35,11.7,33,10.6,31S9,26.7,9,24.2c0-3.1,0.9-5.9,2.6-8.6c1.7-2.6,4.1-4.5,7.1-5.6v1.6
	c-2.4,1-4.3,2.7-5.9,5c-1.5,2.3-2.3,4.8-2.3,7.6c0,2.2,0.5,4.2,1.4,6c1,1.8,2.7,3.8,5.3,5.8v-6.7h1.5v9.3
	C18.8,38.7,9.5,38.7,9.5,38.7z M24.3,42v-1.5H44V42H24.3z"/>
</svg>
