<?xml version="1.0" encoding="utf-8"?>
<!-- Generator: Adobe Illustrator 26.3.1, SVG Export Plug-In . SVG Version: 6.00 Build 0)  -->
<svg version="1.1" id="Слой_1" xmlns="http://www.w3.org/2000/svg" xmlns:xlink="http://www.w3.org/1999/xlink" x="0px" y="0px"
	 viewBox="0 0 48 48" style="enable-background:new 0 0 48 48;" xml:space="preserve">
<path d="M8.5,38.7v-1.5H15l-2.1-2.1c-1.6-1.7-2.9-3.5-3.7-5.3S8,26.2,8,24.3c0-3.2,0.9-6.1,2.7-8.7s4.1-4.5,7.1-5.7v1.6
	c-2.5,1.1-4.5,2.8-6,5.1s-2.2,4.9-2.2,7.6c0,1.7,0.3,3.4,1,5c0.6,1.6,1.7,3.1,3.1,4.4l2.5,2.4v-6.5h1.5v9.2
	C17.7,38.7,8.5,38.7,8.5,38.7z M24,33.5c-0.3,0-0.7-0.1-0.9-0.4c-0.3-0.3-0.4-0.6-0.4-0.9c0-0.3,0.1-0.7,0.4-0.9
	c0.3-0.3,0.6-0.4,0.9-0.4s0.7,0.1,0.9,0.4c0.3,0.3,0.4,0.6,0.4,0.9s-0.1,0.7-0.4,0.9C24.7,33.3,24.3,33.5,24,33.5z M23.3,26.7V15
	h1.5v11.7H23.3z M30.2,38.1v-1.6c2.5-1.1,4.5-2.8,5.9-5.1c1.5-2.3,2.2-4.8,2.2-7.6c0-1.8-0.3-3.5-1-5c-0.6-1.6-1.6-3.1-3-4.4
	L31.9,12v6.5h-1.5V9.3h9.1v1.5H33l2.1,2.1c1.7,1.6,2.9,3.4,3.7,5.3c0.8,1.9,1.1,3.7,1.1,5.6c0,3.2-0.9,6-2.7,8.6
	C35.5,35,33.1,36.9,30.2,38.1z"/>
</svg>
