<?xml version="1.0" encoding="utf-8"?>
<!-- Generator: Adobe Illustrator 26.3.1, SVG Export Plug-In . SVG Version: 6.00 Build 0)  -->
<svg version="1.1" id="Слой_1" xmlns="http://www.w3.org/2000/svg" xmlns:xlink="http://www.w3.org/1999/xlink" x="0px" y="0px"
	 viewBox="0 0 48 48" style="enable-background:new 0 0 48 48;" xml:space="preserve">
<path d="M14.8,44c-0.8,0-1.4-0.3-2-0.8c-0.5-0.5-0.8-1.2-0.8-2V6.8c0-0.8,0.3-1.4,0.8-2C13.3,4.3,14,4,14.8,4h18.5
	c0.8,0,1.4,0.3,2,0.8C35.7,5.3,36,6,36,6.8v34.5c0,0.8-0.3,1.4-0.8,2c-0.5,0.5-1.2,0.8-2,0.8L14.8,44L14.8,44z M13.5,38.2h20.9V9.8
	H13.5V38.2z M24,30.7l-6.5-6.5l1.1-1.1l4.6,4.6v-10h1.5v10l4.6-4.6l1.1,1.1L24,30.7z"/>
</svg>
