<?xml version="1.0" encoding="utf-8"?>
<!-- Generator: Adobe Illustrator 26.3.1, SVG Export Plug-In . SVG Version: 6.00 Build 0)  -->
<svg version="1.1" id="Слой_1" xmlns="http://www.w3.org/2000/svg" xmlns:xlink="http://www.w3.org/1999/xlink" x="0px" y="0px"
	 viewBox="0 0 48 48" style="enable-background:new 0 0 48 48;" xml:space="preserve">
<path d="M39.7,40.5l1-1.1l-3.9-3.6v-5.7h-1.6v6.3C35.3,36.4,39.7,40.5,39.7,40.5z M27.5,18.1h12.9v-5.3c0-0.3-0.1-0.6-0.4-0.8
	c-0.3-0.3-0.5-0.4-0.8-0.4H27.5C27.5,11.5,27.5,18.1,27.5,18.1z M36.2,43.8c-2.2,0-4-0.8-5.5-2.3s-2.3-3.4-2.3-5.5s0.8-4,2.3-5.6
	c1.5-1.5,3.4-2.3,5.5-2.3c2.2,0,4,0.8,5.5,2.3C43.2,32,44,33.8,44,36s-0.8,4-2.3,5.5C40.2,43.1,38.3,43.8,36.2,43.8z M8.8,38
	c-0.8,0-1.4-0.3-2-0.8C6.3,36.7,6,36,6,35.2V12.8c0-0.8,0.3-1.4,0.8-2C7.3,10.3,8,10,8.8,10h30.5c0.8,0,1.4,0.3,2,0.8
	c0.5,0.5,0.8,1.2,0.8,2v13.4c-0.8-0.5-1.8-0.9-2.7-1.2s-2-0.4-3-0.4c-3.2,0-5.9,1.1-8.1,3.3s-3.4,4.9-3.4,8.1c0,0.3,0,0.6,0.1,1
	c0,0.4,0.1,0.7,0.2,1C25,38,8.8,38,8.8,38z"/>
</svg>
