<?xml version="1.0" encoding="utf-8"?>
<!-- Generator: Adobe Illustrator 26.3.1, SVG Export Plug-In . SVG Version: 6.00 Build 0)  -->
<svg version="1.1" id="Слой_1" xmlns="http://www.w3.org/2000/svg" xmlns:xlink="http://www.w3.org/1999/xlink" x="0px" y="0px"
	 viewBox="0 0 48 48" style="enable-background:new 0 0 48 48;" xml:space="preserve">
<path d="M38.3,44.6l-1.1-1.1l4.3-4.4h-10v-1.5h10.1l-4.3-4.4l1.1-1.1l6.3,6.3L38.3,44.6z M10.8,40c-0.8,0-1.4-0.3-2-0.8
	C8.3,38.7,8,38,8,37.2V10.8c0-0.8,0.3-1.4,0.8-2C9.3,8.3,10,8,10.8,8h26.5c0.8,0,1.4,0.3,2,0.8c0.5,0.5,0.8,1.2,0.8,2v17.1
	c-0.3,0-0.6-0.1-0.8-0.1s-0.6-0.1-0.8-0.1c-1.3,0-2.6,0.2-3.7,0.7c-1.2,0.5-2.2,1.1-3.2,1.9L25.1,24l5.7-5.7l-1.1-1.1L24,22.9
	l-5.7-5.7l-1.1,1.1l5.7,5.7l-5.7,5.7l1.1,1.1l5.7-5.7l6.3,6.3c-0.5,0.5-1.1,1.5-1.7,3c-0.6,1.4-0.9,2.8-0.9,4.1c0,0.3,0,0.5,0.1,0.8
	c0,0.3,0.1,0.5,0.1,0.8L10.8,40L10.8,40z"/>
</svg>
