<?xml version="1.0" encoding="utf-8"?>
<!-- Generator: Adobe Illustrator 26.3.1, SVG Export Plug-In . SVG Version: 6.00 Build 0)  -->
<svg version="1.1" id="Слой_1" xmlns="http://www.w3.org/2000/svg" xmlns:xlink="http://www.w3.org/1999/xlink" x="0px" y="0px"
	 viewBox="0 0 48 48" style="enable-background:new 0 0 48 48;" xml:space="preserve">
<path d="M10.8,40c-0.7,0-1.4-0.3-1.9-0.8C8.3,38.6,8,38,8,37.2V10.8c0-0.8,0.3-1.4,0.8-2C9.4,8.3,10,8,10.8,8h26.5
	c0.7,0,1.4,0.3,1.9,0.8c0.5,0.6,0.8,1.2,0.8,2V28c-0.2-0.1-0.5-0.3-0.8-0.4s-0.5-0.2-0.8-0.4v-7.9h-8.6v7.1c-0.3,0-0.5,0.1-0.8,0.1
	c-0.3,0.1-0.5,0.1-0.7,0.2v-7.4h-8.6v11.3c0.2-0.2,0.4-0.3,0.5-0.5c0.2-0.2,0.3-0.4,0.5-0.6H9.5V37c0,0.4,0.1,0.7,0.3,0.9
	s0.5,0.3,0.9,0.3h5.8c0.2,0.3,0.3,0.6,0.5,0.8c0.2,0.3,0.4,0.5,0.6,0.7h-6.8V40z M9.5,28.2h8.6v-8.8H9.5V28.2z M9.5,17.8h28.9v-7.1
	c0-0.4-0.1-0.7-0.3-0.9s-0.5-0.3-0.9-0.3H10.8c-0.4,0-0.7,0.1-0.9,0.3s-0.3,0.5-0.3,0.9v7.1H9.5z M32.5,44c-2.4,0-4.6-0.6-6.6-1.8
	s-3.6-2.8-4.9-4.9c1.2-2,2.8-3.6,4.9-4.9c2-1.2,4.2-1.8,6.6-1.8s4.6,0.6,6.6,1.8c2,1.2,3.6,2.8,4.9,4.9c-1.2,2-2.8,3.7-4.9,4.9
	C37.1,43.4,34.9,44,32.5,44z M32.5,40.6c0.9,0,1.7-0.3,2.3-1c0.6-0.6,1-1.4,1-2.4c0-0.9-0.3-1.7-1-2.3c-0.6-0.6-1.4-1-2.4-1
	c-0.9,0-1.7,0.3-2.3,1c-0.6,0.6-1,1.4-1,2.4c0,0.9,0.3,1.7,1,2.3C30.8,40.3,31.6,40.6,32.5,40.6z M32.5,39.1c-0.5,0-0.9-0.2-1.3-0.5
	c-0.3-0.3-0.5-0.8-0.5-1.3s0.2-0.9,0.5-1.3c0.3-0.3,0.8-0.5,1.3-0.5s0.9,0.2,1.3,0.5c0.3,0.3,0.5,0.8,0.5,1.3s-0.2,0.9-0.5,1.3
	C33.5,38.9,33,39.1,32.5,39.1z"/>
</svg>
