<?xml version="1.0" encoding="utf-8"?>
<!-- Generator: Adobe Illustrator 26.3.1, SVG Export Plug-In . SVG Version: 6.00 Build 0)  -->
<svg version="1.1" id="Слой_1" xmlns="http://www.w3.org/2000/svg" xmlns:xlink="http://www.w3.org/1999/xlink" x="0px" y="0px"
	 viewBox="0 0 48 48" style="enable-background:new 0 0 48 48;" xml:space="preserve">
<path d="M18.8,40c-0.7,0-1.4-0.3-1.9-0.8S16,38,16,37.2V18.8c0-0.7,0.3-1.4,0.8-1.9s1.2-0.8,1.9-0.8h18.5c0.7,0,1.4,0.3,1.9,0.8
	s0.8,1.2,0.8,1.9v18.5c0,0.7-0.3,1.4-0.8,1.9S38,40,37.2,40H18.8z M17.5,23.5h20.9v-4.7c0-0.4-0.1-0.7-0.3-0.9
	c-0.2-0.2-0.5-0.3-0.9-0.3H18.8c-0.4,0-0.7,0.1-0.9,0.3c-0.2,0.2-0.3,0.5-0.3,0.9C17.5,18.8,17.5,23.5,17.5,23.5z M25,31h6v-6h-6V31
	z M25,38.5h6v-5.9h-6C25,32.5,25,38.5,25,38.5z M17.5,31h5.9v-6h-5.9V31z M32.5,31h5.9v-6h-5.9V31z M18.8,38.5h4.7v-5.9h-5.9v4.7
	c0,0.4,0.1,0.7,0.3,0.9C18.1,38.3,18.4,38.5,18.8,38.5z M32.5,38.5h4.7c0.4,0,0.7-0.1,0.9-0.3s0.3-0.5,0.3-0.9v-4.7h-5.9
	C32.5,32.5,32.5,38.5,32.5,38.5z M10.8,32c-0.7,0-1.4-0.3-1.9-0.8S8,30,8,29.2V10.8c0-0.8,0.3-1.4,0.8-2C9.4,8.3,10,8,10.8,8h18.5
	c0.7,0,1.4,0.3,1.9,0.8c0.5,0.6,0.8,1.2,0.8,2v3.5h-1.5v-3.5c0-0.4-0.1-0.7-0.3-0.9c-0.2-0.2-0.5-0.3-0.9-0.3H10.8
	c-0.4,0-0.7,0.1-0.9,0.3s-0.3,0.5-0.3,0.9v18.5c0,0.4,0.1,0.7,0.3,0.9c0.2,0.2,0.5,0.3,0.9,0.3h3.5V32H10.8z"/>
</svg>
