<?xml version="1.0" encoding="utf-8"?>
<!-- Generator: Adobe Illustrator 26.3.1, SVG Export Plug-In . SVG Version: 6.00 Build 0)  -->
<svg version="1.1" id="Слой_1" xmlns="http://www.w3.org/2000/svg" xmlns:xlink="http://www.w3.org/1999/xlink" x="0px" y="0px"
	 viewBox="0 0 48 48" style="enable-background:new 0 0 48 48;" xml:space="preserve">
<path d="M8,37.2V10.8c0-0.8,0.3-1.4,0.8-2C9.4,8.3,10,8,10.8,8h26.5c0.7,0,1.4,0.3,1.9,0.8c0.5,0.6,0.8,1.2,0.8,2v26.5
	c0,0.7-0.3,1.4-0.8,1.9c-0.6,0.5-1.2,0.8-2,0.8H10.8c-0.7,0-1.4-0.3-1.9-0.8C8.3,38.6,8,38,8,37.2z M9.5,17.8h28.9v-7.1
	c0-0.4-0.1-0.7-0.3-0.9s-0.5-0.3-0.9-0.3H10.8c-0.4,0-0.7,0.1-0.9,0.3s-0.3,0.5-0.3,0.9v7.1H9.5z M19.7,28.2h8.6v-8.8h-8.6
	C19.7,19.4,19.7,28.2,19.7,28.2z M19.7,38.5h8.6v-8.8h-8.6V38.5z M9.5,28.2h8.6v-8.8H9.5C9.5,19.4,9.5,28.2,9.5,28.2z M29.8,28.2
	h8.6v-8.8h-8.6C29.8,19.4,29.8,28.2,29.8,28.2z M10.8,38.5h7.4v-8.8H9.5v7.5c0,0.4,0.1,0.7,0.3,0.9C10.1,38.3,10.4,38.5,10.8,38.5z
	 M29.8,38.5h7.4c0.4,0,0.7-0.1,0.9-0.3s0.3-0.5,0.3-0.9v-7.5h-8.6C29.8,29.7,29.8,38.5,29.8,38.5z"/>
</svg>
