<?xml version="1.0" encoding="utf-8"?>
<!-- Generator: Adobe Illustrator 26.3.1, SVG Export Plug-In . SVG Version: 6.00 Build 0)  -->
<svg version="1.1" id="Слой_1" xmlns="http://www.w3.org/2000/svg" xmlns:xlink="http://www.w3.org/1999/xlink" x="0px" y="0px"
	 viewBox="0 0 48 48" style="enable-background:new 0 0 48 48;" xml:space="preserve">
<path d="M24.8,29.3H40v7.9c0,0.7-0.3,1.4-0.8,1.9c-0.6,0.6-1.2,0.9-2,0.9H24.8V29.3z M24.8,27.8V17.1H40v10.7H24.8z M8,15.5v-4.8
	C8,10,8.3,9.4,8.8,8.8C9.4,8.3,10,8,10.8,8h26.5c0.7,0,1.4,0.3,1.9,0.8c0.5,0.6,0.8,1.2,0.8,2v4.8H8V15.5z M8,42v-1.5h5.2
	c-1.6-0.6-2.9-1.6-3.8-3c-1-1.4-1.5-3-1.5-4.7c0-2.3,0.8-4.2,2.4-5.8c1.6-1.6,3.6-2.4,5.9-2.4v1.5c-1.9,0-3.5,0.7-4.8,2
	s-2,2.9-2,4.8c0,1.6,0.5,3.1,1.6,4.4c1.1,1.3,2.4,2,4,2.3v-6.1h1.5V42H8z"/>
</svg>
