<?xml version="1.0" encoding="utf-8"?>
<!-- Generator: Adobe Illustrator 26.3.1, SVG Export Plug-In . SVG Version: 6.00 Build 0)  -->
<svg version="1.1" id="Слой_1" xmlns="http://www.w3.org/2000/svg" xmlns:xlink="http://www.w3.org/1999/xlink" x="0px" y="0px"
	 viewBox="0 0 48 48" style="enable-background:new 0 0 48 48;" xml:space="preserve">
<path d="M8,17v-6.2c0-0.8,0.3-1.4,0.8-2C9.4,8.3,10,8,10.8,8h26.5c0.7,0,1.4,0.3,1.9,0.8c0.5,0.6,0.8,1.2,0.8,2V17H8z M10.8,40
	c-0.7,0-1.4-0.3-1.9-0.8C8.3,38.6,8,38,8,37.2V18.5h8V40H10.8z M32,40V18.5h8v18.7c0,0.7-0.3,1.4-0.8,1.9c-0.6,0.6-1.2,0.9-2,0.9H32
	z M17.5,40V18.5h12.9V40H17.5z"/>
</svg>
