<?xml version="1.0" encoding="utf-8"?>
<!-- Generator: Adobe Illustrator 26.3.1, SVG Export Plug-In . SVG Version: 6.00 Build 0)  -->
<svg version="1.1" id="Слой_1" xmlns="http://www.w3.org/2000/svg" xmlns:xlink="http://www.w3.org/1999/xlink" x="0px" y="0px"
	 viewBox="0 0 48 48" style="enable-background:new 0 0 48 48;" xml:space="preserve">
<path d="M8,27.8V17.1h15.2v10.7H8z M8,15.5v-4.8C8,10,8.3,9.4,8.8,8.8C9.4,8.3,10,8,10.8,8h26.5c0.8,0,1.4,0.3,1.9,0.8
	c0.5,0.6,0.8,1.2,0.8,2v4.8H8V15.5z M10.8,40c-0.8,0-1.4-0.3-1.9-0.8S8,38,8,37.2v-7.9h15.2V40H10.8z M24.8,27.8V17.1H40v6.5
	c-0.9-0.3-1.8-0.4-2.7-0.2c-0.9,0.2-1.8,0.6-2.5,1.3l-3.1,3C31.7,27.8,24.8,27.8,24.8,27.8z M26.5,42v-4.4L37.1,27
	c0.2-0.2,0.4-0.3,0.6-0.4s0.4-0.1,0.6-0.1c0.2,0,0.5,0,0.7,0.1s0.4,0.2,0.6,0.4l1.9,1.9c0.2,0.2,0.3,0.4,0.4,0.6
	c0.1,0.2,0.1,0.4,0.1,0.6s0,0.4-0.1,0.6s-0.2,0.4-0.4,0.6L30.9,42H26.5z M38.4,32l1.8-1.9l-1.8-1.9l-1.9,1.9L38.4,32z"/>
</svg>
