<?xml version="1.0" encoding="utf-8"?>
<!-- Generator: Adobe Illustrator 26.3.1, SVG Export Plug-In . SVG Version: 6.00 Build 0)  -->
<svg version="1.1" id="Слой_1" xmlns="http://www.w3.org/2000/svg" xmlns:xlink="http://www.w3.org/1999/xlink" x="0px" y="0px"
	 viewBox="0 0 48 48" style="enable-background:new 0 0 48 48;" xml:space="preserve">
<path d="M32.6,40l-1.1-1.1l3.1-3.2l-3.1-3.1l1.1-1.1l3.2,3.2l3.2-3.2l1.1,1.1l-3.2,3.2l3.2,3.2l-1.2,1l-3.2-3.2L32.6,40z M12.8,38.5
	c0.9,0,1.7-0.3,2.3-0.9c0.6-0.6,0.9-1.4,0.9-2.3c0-0.9-0.3-1.7-0.9-2.3c-0.6-0.6-1.4-0.9-2.3-0.9c-0.9,0-1.7,0.3-2.3,0.9
	c-0.6,0.6-0.9,1.4-0.9,2.3s0.3,1.7,0.9,2.3C11.1,38.1,11.8,38.5,12.8,38.5z M12.8,40c-1.3,0-2.5-0.5-3.4-1.4C8.5,37.7,8,36.5,8,35.2
	s0.5-2.4,1.4-3.4c0.9-0.9,2.1-1.4,3.4-1.4c1.2,0,2.2,0.4,3.1,1.1c0.9,0.8,1.4,1.7,1.6,2.9c1.7,0,3.1-0.6,4.3-1.8
	c1.2-1.2,1.8-2.6,1.8-4.3v-7.9c0-2.4,0.9-4.5,2.6-6.2s3.8-2.6,6.2-2.6H37l-4.4-4.4l1.1-1.1l6.3,6.3l-6.3,6.3l-1.1-1.1l4.3-4.4h-4.6
	c-2,0-3.7,0.7-5.1,2.1s-2.1,3.1-2.1,5.1v7.9c0,2.1-0.8,3.9-2.3,5.4s-3.3,2.2-5.4,2.2c-0.2,1.1-0.8,2.1-1.6,2.8
	C15,39.6,13.9,40,12.8,40z M9.1,16.5l-1.1-1l3.2-3.2L8,9.1L9.1,8l3.2,3.2L15.4,8l1.1,1.1l-3.2,3.1l3.2,3.2l-1.1,1.1l-3.1-3.1
	C12.3,13.4,9.1,16.5,9.1,16.5z"/>
</svg>
