<?xml version="1.0" encoding="utf-8"?>
<!-- Generator: Adobe Illustrator 26.3.1, SVG Export Plug-In . SVG Version: 6.00 Build 0)  -->
<svg version="1.1" id="Слой_1" xmlns="http://www.w3.org/2000/svg" xmlns:xlink="http://www.w3.org/1999/xlink" x="0px" y="0px"
	 viewBox="0 0 48 48" style="enable-background:new 0 0 48 48;" xml:space="preserve">
<path d="M10,38c-0.4,0-0.7-0.1-1.1-0.2c-0.3-0.2-0.6-0.4-0.9-0.6l-3.8-3.8v-0.1c0.1-0.1,0.2-0.2,0.3-0.3c0.1-0.1,0.3-0.1,0.4-0.1
	c0.2,0,0.4,0,0.6,0.1c0.2,0,0.3,0.1,0.4,0.3l1.8,1.8v-9.4c0-0.2,0.1-0.3,0.2-0.5C8.1,25.1,8.2,25,8.4,25s0.3,0.1,0.5,0.2
	C9,25.3,9,25.5,9,25.7v4.5h1.3v-7c0-0.2,0.1-0.3,0.2-0.5c0.1-0.1,0.3-0.2,0.5-0.2s0.3,0.1,0.5,0.2c0.1,0.1,0.2,0.3,0.2,0.5v7H13
	v-5.7c0-0.2,0.1-0.3,0.2-0.5c0.1-0.1,0.3-0.2,0.5-0.2s0.3,0.1,0.5,0.2c0.1,0.1,0.2,0.3,0.2,0.5v5.7h1.3v-4.1c0-0.2,0.1-0.3,0.2-0.5
	c0.1-0.1,0.3-0.2,0.5-0.2s0.3,0.1,0.5,0.2c0.1,0.1,0.2,0.3,0.2,0.5v9.1c0,0.8-0.3,1.4-0.8,1.9s-1.2,0.8-2,0.8L10,38L10,38z
	 M21.7,35.8v-14c0-0.7-0.3-1.4-0.8-1.9c-0.6-0.6-1.2-0.8-1.9-0.8H7v-8.5c0-0.8,0.3-1.4,0.8-2S9,7.8,9.7,7.8h22.5
	c0.8,0,1.4,0.3,2,0.8c0.5,0.5,0.8,1.2,0.8,2v10.1l6.1-6.1V29L35,22.9V33c0,0.8-0.3,1.4-0.8,2c-0.5,0.5-1.2,0.8-2,0.8H21.7z"/>
</svg>
