<?xml version="1.0" encoding="utf-8"?>
<!-- Generator: Adobe Illustrator 26.3.1, SVG Export Plug-In . SVG Version: 6.00 Build 0)  -->
<svg version="1.1" id="Слой_1" xmlns="http://www.w3.org/2000/svg" xmlns:xlink="http://www.w3.org/1999/xlink" x="0px" y="0px"
	 viewBox="0 0 48 48" style="enable-background:new 0 0 48 48;" xml:space="preserve">
<path d="M14,45.2V26H9.3c-1.1,0-1.9-0.4-2.7-1.1c-0.7-0.7-1.1-1.6-1.1-2.7s0.4-1.9,1.1-2.7s1.6-1.1,2.7-1.1H14v-2.9H9.3
	c-1.1,0-1.9-0.4-2.7-1.1c-0.7-0.7-1.1-1.6-1.1-2.7S5.9,9.8,6.6,9s1.7-1,2.7-1H14V2.8h1.5V8h4.7c1.1,0,1.9,0.4,2.7,1.1
	c0.7,0.7,1.1,1.6,1.1,2.7s-0.4,1.9-1.1,2.7c-0.7,0.7-1.6,1.1-2.7,1.1h-4.7v2.9h4.7c1.1,0,1.9,0.4,2.7,1.1c0.7,0.7,1.1,1.6,1.1,2.7
	s-0.4,1.9-1.1,2.7c-0.7,0.7-1.6,1.1-2.7,1.1h-4.7v19.2C15.5,45.2,14,45.2,14,45.2z M30.2,45.2v-1.5h4.2V27c-1.7-0.4-3.2-1.2-4.4-2.5
	c-1.2-1.3-1.8-2.8-1.8-4.5V2.8h14V20c0,1.7-0.6,3.2-1.8,4.5S37.7,26.6,36,27v16.7h4.2v1.5C40.2,45.2,30.2,45.2,30.2,45.2z
	 M29.8,13.5h10.9V4.3H29.8V13.5z"/>
</svg>
