<?xml version="1.0" encoding="utf-8"?>
<!-- Generator: Adobe Illustrator 26.3.1, SVG Export Plug-In . SVG Version: 6.00 Build 0)  -->
<svg version="1.1" id="Слой_1" xmlns="http://www.w3.org/2000/svg" xmlns:xlink="http://www.w3.org/1999/xlink" x="0px" y="0px"
	 viewBox="0 0 48 48" style="enable-background:new 0 0 48 48;" xml:space="preserve">
<path d="M24,42c-2.5,0-4.8-0.5-7-1.4s-4.1-2.2-5.7-3.8s-2.9-3.5-3.8-5.7C6.5,28.8,6,26.5,6,24s0.5-4.8,1.4-7s2.2-4.1,3.8-5.7
	s3.5-2.9,5.7-3.8C19.2,6.5,21.5,6,24,6s4.8,0.5,7,1.4s4.1,2.2,5.7,3.8c1.6,1.6,2.9,3.5,3.8,5.7c0.9,2.2,1.4,4.5,1.4,7
	s-0.5,4.8-1.4,7s-2.2,4.1-3.8,5.7s-3.5,2.9-5.7,3.8C28.8,41.5,26.5,42,24,42z M24,40.5c4.6,0,8.5-1.6,11.7-4.8s4.8-7.1,4.8-11.7
	s-1.6-8.5-4.8-11.7S28.6,7.5,24,7.5s-8.5,1.6-11.7,4.8S7.5,19.4,7.5,24s1.6,8.5,4.8,11.7S19.4,40.5,24,40.5z M24,34
	c-2.8,0-5.1-1-7.1-2.9S14,26.8,14,24s1-5.1,2.9-7.1S21.2,14,24,14s5.1,1,7.1,2.9S34,21.2,34,24s-1,5.1-2.9,7.1S26.8,34,24,34z
	 M24,32.5c2.3,0,4.3-0.8,6-2.5c1.6-1.6,2.5-3.6,2.5-6s-0.8-4.3-2.5-6c-1.6-1.6-3.6-2.5-6-2.5s-4.3,0.8-6,2.5c-1.6,1.6-2.5,3.6-2.5,6
	s0.8,4.3,2.5,6C19.6,31.6,21.6,32.5,24,32.5z M24,26c-0.5,0-1-0.2-1.4-0.6S22,24.5,22,24s0.2-1,0.6-1.4S23.5,22,24,22s1,0.2,1.4,0.6
	S26,23.5,26,24s-0.2,1-0.6,1.4S24.5,26,24,26z"/>
</svg>
