<?xml version="1.0" encoding="utf-8"?>
<!-- Generator: Adobe Illustrator 26.3.1, SVG Export Plug-In . SVG Version: 6.00 Build 0)  -->
<svg version="1.1" id="Слой_1" xmlns="http://www.w3.org/2000/svg" xmlns:xlink="http://www.w3.org/1999/xlink" x="0px" y="0px"
	 viewBox="0 0 48 48" style="enable-background:new 0 0 48 48;" xml:space="preserve">
<path d="M24,42c-2.5,0-4.8-0.5-7-1.4s-4.1-2.2-5.7-3.8s-2.9-3.5-3.8-5.7C6.5,28.8,6,26.5,6,24s0.5-4.8,1.4-7s2.2-4.1,3.8-5.7
	s3.5-2.9,5.7-3.8S21.5,6,24,6c2.1,0,4.1,0.3,6,1s3.6,1.6,5.1,2.8l-1.3,1.4c-1.4-1.1-2.9-1.9-4.5-2.4C27.7,8.2,25.9,7.9,24,8
	c-4.5,0-8.3,1.6-11.5,4.7s-4.7,7-4.7,11.5s1.6,8.3,4.7,11.5s7,4.7,11.5,4.7s8.3-1.6,11.5-4.7s4.7-7,4.7-11.5c0-0.9-0.1-1.8-0.2-2.6
	c-0.1-0.8-0.3-1.6-0.6-2.4l1.4-1.4c0.4,1,0.7,2.1,0.9,3.1c0.2,1.1,0.3,2.2,0.3,3.3c0,2.5-0.5,4.8-1.4,7s-2.2,4.1-3.8,5.7
	c-1.6,1.6-3.5,2.9-5.7,3.8C28.8,41.5,26.5,42,24,42z M21.1,31.8L14,24.7l1.3-1.3l5.8,5.8L40.7,9.6l1.3,1.3L21.1,31.8z"/>
</svg>
