<?xml version="1.0" encoding="utf-8"?>
<!-- Generator: Adobe Illustrator 26.3.1, SVG Export Plug-In . SVG Version: 6.00 Build 0)  -->
<svg version="1.1" id="Слой_1" xmlns="http://www.w3.org/2000/svg" xmlns:xlink="http://www.w3.org/1999/xlink" x="0px" y="0px"
	 viewBox="0 0 48 48" style="enable-background:new 0 0 48 48;" xml:space="preserve">
<path d="M32,41.5c-1.2,0-2.4-0.2-3.5-0.6c-1.1-0.4-2.1-1-3-1.8L22.6,42c-0.1,0.1-0.3,0.2-0.5,0.2s-0.4-0.1-0.6-0.2
	c-0.1-0.2-0.2-0.4-0.2-0.6c0-0.2,0.1-0.4,0.2-0.5l2.9-2.9c-0.7-0.9-1.3-1.9-1.8-3S22,32.7,22,31.5c0-2.8,1-5.1,2.9-7.1
	s4.3-2.9,7.1-2.9h10v10c0,2.8-0.9,5.1-2.9,7.1S34.8,41.5,32,41.5z M26.6,36.9c0.1,0.2,0.3,0.2,0.5,0.2s0.4-0.1,0.5-0.2l4.9-4.9
	c0.2-0.2,0.2-0.3,0.2-0.5s-0.1-0.4-0.2-0.5c-0.2-0.2-0.3-0.2-0.5-0.2s-0.4,0.1-0.5,0.2l-4.9,4.9c-0.2,0.1-0.2,0.3-0.2,0.5
	C26.3,36.6,26.4,36.8,26.6,36.9z M14.1,24.6c-1.2,0-2.3-0.4-3.2-1.3s-1.3-2-1.3-3.2v-4.6h4.6c1.2,0,2.3,0.4,3.2,1.3
	c0.9,0.9,1.3,2,1.3,3.2v4.6H14.1z M25.3,14.6v-2.5c0-0.7,0.2-1.3,0.7-1.8s1.1-0.7,1.8-0.7h2.5v2.5c0,0.7-0.2,1.3-0.7,1.8
	s-1.1,0.7-1.8,0.7H25.3z"/>
</svg>
