<?xml version="1.0" encoding="utf-8"?>
<!-- Generator: Adobe Illustrator 26.3.1, SVG Export Plug-In . SVG Version: 6.00 Build 0)  -->
<svg version="1.1" id="Слой_1" xmlns="http://www.w3.org/2000/svg" xmlns:xlink="http://www.w3.org/1999/xlink" x="0px" y="0px"
	 viewBox="0 0 48 48" style="enable-background:new 0 0 48 48;" xml:space="preserve">
<path d="M16.3,13.9L24,3.7L31.7,14H16.3V13.9z M13,21.9v-5.2c-1.5-0.3-2.8-1-3.9-1.9c-1-0.9-1.7-2.1-2-3.6h1.5
	c0.3,1.1,0.9,2,1.8,2.8c0.9,0.8,2,1.1,3.2,1.1h20.6c1.2,0,2.3-0.4,3.2-1.1c0.9-0.8,1.5-1.7,1.8-2.8h1.6c-0.3,1.4-0.9,2.6-2,3.5
	c-1,0.9-2.4,1.6-3.9,1.9v5.2H13V21.9z M9,43V24.8c-1.5-0.3-2.8-0.9-3.9-1.9s-1.7-2.2-2-3.6h1.6c0.3,1.1,0.9,2,1.8,2.8s2,1.1,3.2,1.1
	h28.6c1.2,0,2.3-0.4,3.2-1.1s1.5-1.7,1.8-2.8h1.6c-0.2,1.4-0.9,2.6-1.9,3.6c-1.1,1-2.4,1.6-4,1.9V43H27.2v-7c0-0.9-0.3-1.7-0.9-2.3
	s-1.4-0.9-2.3-0.9s-1.7,0.3-2.3,0.9c-0.6,0.6-0.9,1.4-0.9,2.3v7H9z"/>
</svg>
