<?xml version="1.0" encoding="utf-8"?>
<!-- Generator: Adobe Illustrator 26.3.1, SVG Export Plug-In . SVG Version: 6.00 Build 0)  -->
<svg version="1.1" id="Слой_1" xmlns="http://www.w3.org/2000/svg" xmlns:xlink="http://www.w3.org/1999/xlink" x="0px" y="0px"
	 viewBox="0 0 48 48" style="enable-background:new 0 0 48 48;" xml:space="preserve">
<path d="M23,10V8h2v2H23z M23,40v-2h2v2H23z M15.5,10V8h2v2H15.5z M15.5,40v-2h2v2H15.5z M8,10V8h2v2H8z M8,17.5v-2h2v2H8z M8,25v-2
	h2v2H8z M8,32.5v-2h2v2H8z M8,40v-2h2v2H8z M30.4,40v-1.5h4v-29h-4V8H40v1.5h-4.1v28.9H40V40H30.4z"/>
</svg>
