<?xml version="1.0" encoding="utf-8"?>
<!-- Generator: Adobe Illustrator 26.3.1, SVG Export Plug-In . SVG Version: 6.00 Build 0)  -->
<svg version="1.1" id="Слой_1" xmlns="http://www.w3.org/2000/svg" xmlns:xlink="http://www.w3.org/1999/xlink" x="0px" y="0px"
	 viewBox="0 0 48 48" style="enable-background:new 0 0 48 48;" xml:space="preserve">
<path d="M22.5,44.5V40H10.8c-0.8,0-1.4-0.3-2-0.8C8.3,38.7,8,38,8,37.2V10.8c0-0.8,0.3-1.4,0.8-2C9.3,8.3,10,8,10.8,8h11.8V3.5h1.5
	v40.9C24.1,44.5,22.5,44.5,22.5,44.5z M28,9.5V8h9.6c0.8,0,1.4,0.3,2,0.8c0.5,0.5,0.8,1.2,0.8,2v26.5c0,0.8-0.3,1.4-0.8,2
	c-0.5,0.5-1.2,0.8-2,0.8H28v-1.5h9.6c0.3,0,0.6-0.1,0.8-0.4s0.4-0.5,0.4-0.8V10.8c0-0.3-0.1-0.6-0.4-0.8c-0.3-0.3-0.5-0.4-0.8-0.4
	C37.6,9.5,28,9.5,28,9.5z M28,24.8v-1.5h7.5v1.5H28z M28,17.8v-1.5h7.5v1.5H28z M15,31.8h7.5v-1.5H15V31.8z M15,24.8h7.5v-1.5H15
	V24.8z M15,17.8h7.5v-1.5H15V17.8z"/>
</svg>
