<?xml version="1.0" encoding="utf-8"?>
<!-- Generator: Adobe Illustrator 26.3.1, SVG Export Plug-In . SVG Version: 6.00 Build 0)  -->
<svg version="1.1" id="Слой_1" xmlns="http://www.w3.org/2000/svg" xmlns:xlink="http://www.w3.org/1999/xlink" x="0px" y="0px"
	 viewBox="0 0 48 48" style="enable-background:new 0 0 48 48;" xml:space="preserve">
<path d="M9.1,40c-0.3-0.2-0.5-0.3-0.7-0.5c-0.1-0.1-0.3-0.4-0.4-0.7L38.9,8c0.2,0.1,0.5,0.3,0.7,0.5s0.3,0.4,0.4,0.7L9.1,40z
	 M8,26.4v-2.2L24.2,8h2.2L8,26.4z M8,11.8v-1.1c0-0.8,0.3-1.4,0.8-2C9.3,8.3,10,8,10.8,8h1.1L8,11.8z M36.2,40l3.8-3.8v1.1
	c0,0.8-0.3,1.4-0.8,2c-0.5,0.5-1.2,0.8-2,0.8L36.2,40L36.2,40z M21.6,40L40,21.6v2.2L23.8,40H21.6z"/>
</svg>
