<?xml version="1.0" encoding="utf-8"?>
<!-- Generator: Adobe Illustrator 26.3.1, SVG Export Plug-In . SVG Version: 6.00 Build 0)  -->
<svg version="1.1" id="Слой_1" xmlns="http://www.w3.org/2000/svg" xmlns:xlink="http://www.w3.org/1999/xlink" x="0px" y="0px"
	 viewBox="0 0 48 48" style="enable-background:new 0 0 48 48;" xml:space="preserve">
<path d="M14.9,42c-2.8,0-5.1-1-7-2.9c-1.9-2-2.9-4.3-2.9-7V20.4h19.8v11.7c0,2.7-1,5-2.9,7C20,41,17.6,42,14.9,42z M10.8,28.5
	c0.4,0,0.7-0.1,1-0.4s0.4-0.6,0.4-1s-0.1-0.7-0.4-1c-0.3-0.3-0.6-0.4-1-0.4s-0.7,0.1-1,0.4s-0.4,0.6-0.4,1s0.1,0.7,0.4,1
	C10,28.3,10.4,28.5,10.8,28.5z M14.9,35.7c1.2,0,2.3-0.3,3.2-0.8c0.9-0.5,1.4-1.2,1.5-2.1h-9.4c0.1,0.8,0.6,1.5,1.5,2.1
	C12.6,35.4,13.7,35.7,14.9,35.7z M19,28.5c0.4,0,0.7-0.1,1-0.4s0.4-0.6,0.4-1s-0.1-0.7-0.4-1s-0.6-0.4-1-0.4s-0.7,0.1-1,0.4
	s-0.4,0.6-0.4,1s0.1,0.7,0.4,1C18.3,28.3,18.7,28.5,19,28.5z M33.1,27.5c-1,0-2.1-0.1-3.1-0.4s-1.9-0.7-2.5-1.2v-8.2h-4.3V6H43v11.9
	c0,2.7-1,4.9-2.9,6.8C38.2,26.6,35.9,27.5,33.1,27.5z M29,14.2c0.4,0,0.7-0.1,1-0.4c0.3-0.3,0.4-0.6,0.4-1s-0.1-0.7-0.4-1
	s-0.6-0.4-1-0.4s-0.7,0.1-1,0.4c-0.3,0.3-0.4,0.6-0.4,1c0,0.3,0.1,0.7,0.4,1S28.6,14.2,29,14.2z M28.5,21.3h9.4
	c-0.1-0.8-0.7-1.5-1.6-2.1c-0.9-0.5-2-0.8-3.1-0.8c-0.8,0-1.8,0.2-2.9,0.7C29.1,19.5,28.5,20.3,28.5,21.3z M37.3,14.2
	c0.4,0,0.7-0.1,1-0.4c0.3-0.3,0.4-0.6,0.4-1s-0.1-0.7-0.4-1c-0.3-0.3-0.6-0.4-1-0.4s-0.7,0.1-1,0.4c-0.3,0.3-0.4,0.6-0.4,1
	c0,0.3,0.1,0.7,0.4,1C36.6,14.1,36.9,14.2,37.3,14.2z"/>
</svg>
