<?xml version="1.0" encoding="utf-8"?>
<!-- Generator: Adobe Illustrator 26.3.1, SVG Export Plug-In . SVG Version: 6.00 Build 0)  -->
<svg version="1.1" id="Слой_1" xmlns="http://www.w3.org/2000/svg" xmlns:xlink="http://www.w3.org/1999/xlink" x="0px" y="0px"
	 viewBox="0 0 48 48" style="enable-background:new 0 0 48 48;" xml:space="preserve">
<path d="M34.1,21v-6.2h-6.2v-1.5h6.2V7h1.5v6.2h6.2v1.5h-6.2V21H34.1z M17.5,40c-2.1,0-3.9-0.7-5.4-2.2s-2.2-3.3-2.2-5.4
	c0-1.5,0.4-2.8,1.2-4s1.8-2.2,3.1-2.9V11.4c0-1,0.3-1.8,1-2.4c0.6-0.6,1.4-1,2.4-1c0.9,0,1.7,0.3,2.4,1c0.7,0.6,1,1.4,1,2.4v14.1
	c1.3,0.7,2.3,1.7,3.1,2.9c0.8,1.2,1.2,2.5,1.2,4c0,2.1-0.8,3.9-2.3,5.4C21.4,39.3,19.6,40,17.5,40z M15.7,19.4h3.7v-8
	c0-0.5-0.2-1-0.5-1.3c-0.4-0.4-0.8-0.5-1.3-0.5s-0.9,0.2-1.3,0.5c-0.4,0.4-0.5,0.8-0.5,1.3v8H15.7z"/>
</svg>
