<?xml version="1.0" encoding="utf-8"?>
<!-- Generator: Adobe Illustrator 26.3.1, SVG Export Plug-In . SVG Version: 6.00 Build 0)  -->
<svg version="1.1" id="Слой_1" xmlns="http://www.w3.org/2000/svg" xmlns:xlink="http://www.w3.org/1999/xlink" x="0px" y="0px"
	 viewBox="0 0 48 48" style="enable-background:new 0 0 48 48;" xml:space="preserve">
<path d="M15.8,40c-2.1,0-3.9-0.7-5.4-2.2s-2.2-3.3-2.2-5.4c0-1.4,0.4-2.7,1.1-3.9c0.7-1.2,1.8-2.2,3.1-3V11.4c0-1,0.3-1.8,1-2.4
	c0.7-0.6,1.5-1,2.4-1s1.7,0.3,2.4,1c0.6,0.6,1,1.4,1,2.4v14.1c1.3,0.8,2.4,1.8,3.1,3s1.1,2.5,1.1,3.9c0,2.1-0.7,3.9-2.2,5.4
	C19.7,39.3,17.9,40,15.8,40z M9.7,32.4h12.1c0-1.2-0.3-2.2-0.9-3.3c-0.6-1-1.5-1.9-2.6-2.5l-0.7-0.3V11.4c0-0.5-0.2-1-0.5-1.3
	c-0.4-0.4-0.8-0.5-1.3-0.5c-0.5,0-1,0.2-1.3,0.5c-0.4,0.4-0.5,0.8-0.5,1.3v14.9l-0.6,0.3c-1.1,0.7-2,1.5-2.7,2.6
	C10,30.2,9.7,31.2,9.7,32.4z M38.3,38V13L35,16.2l-1.1-1.1L39,10l5.1,5.1L43,16.2L39.8,13v25H38.3z"/>
</svg>
