<?xml version="1.0" encoding="utf-8"?>
<!-- Generator: Adobe Illustrator 26.3.1, SVG Export Plug-In . SVG Version: 6.00 Build 0)  -->
<svg version="1.1" id="Слой_1" xmlns="http://www.w3.org/2000/svg" xmlns:xlink="http://www.w3.org/1999/xlink" x="0px" y="0px"
	 viewBox="0 0 48 48" style="enable-background:new 0 0 48 48;" xml:space="preserve">
<path d="M8.2,40v-1.5h5.9v-9.8h-3.2v-1.5H14c0-2.5,0.9-4.6,2.6-6.3c1.7-1.7,3.9-2.6,6.6-2.8V9.7h9.9v5.4h-8.3v3
	c2.7,0.2,4.9,1.1,6.6,2.8c1.7,1.7,2.6,3.8,2.6,6.3h3.1v1.5h-3.2v9.8h5.9V40H8.2z M15.6,38.5h7.6v-9.8h-7.6V38.5z M24.8,38.5h7.6
	v-9.8h-7.6C24.8,28.7,24.8,38.5,24.8,38.5z"/>
</svg>
