<?xml version="1.0" encoding="utf-8"?>
<!-- Generator: Adobe Illustrator 26.3.1, SVG Export Plug-In . SVG Version: 6.00 Build 0)  -->
<svg version="1.1" id="Слой_1" xmlns="http://www.w3.org/2000/svg" xmlns:xlink="http://www.w3.org/1999/xlink" x="0px" y="0px"
	 viewBox="0 0 48 48" style="enable-background:new 0 0 48 48;" xml:space="preserve">
<path d="M26.6,42.6c-0.3,0-0.6-0.1-0.9-0.2c-0.3-0.2-0.5-0.4-0.6-0.6C25,41.5,25,41.2,25,40.9s0.1-0.6,0.3-0.9l7.2-11.8
	c0.2-0.3,0.4-0.5,0.6-0.6c0.3-0.1,0.5-0.2,0.8-0.2s0.5,0.1,0.8,0.2c0.2,0.1,0.5,0.3,0.6,0.6L42.5,40c0.2,0.3,0.3,0.6,0.3,0.9
	c0,0.3-0.1,0.6-0.2,0.8c-0.1,0.3-0.3,0.5-0.6,0.6c-0.3,0.2-0.6,0.2-0.9,0.2C41,42.6,26.6,42.6,26.6,42.6z M33.9,41.1
	c0.3,0,0.6-0.1,0.8-0.3S35,40.3,35,40s-0.1-0.6-0.3-0.8s-0.5-0.3-0.8-0.3s-0.6,0.1-0.8,0.3s-0.3,0.5-0.3,0.8s0.1,0.6,0.3,0.8
	C33.3,41,33.5,41.1,33.9,41.1z M16.9,38c-0.3,0-0.5-0.1-0.7-0.2c-0.2-0.1-0.4-0.3-0.5-0.5L12,30.7h2.8l1.9,3.5h4v-1.3h-3.2l-1.9-3.5
	h-4.3l-2.7-4.7c0-0.1-0.1-0.2-0.1-0.4c0-0.1-0.1-0.2-0.1-0.3c0,0,0.1-0.3,0.2-0.7l2.7-4.7h4.3l1.9-3.5h3.2v-1.3h-4l-1.9,3.5H12
	l3.6-6.5c0.1-0.2,0.3-0.4,0.5-0.5c0.2-0.1,0.5-0.2,0.7-0.2H22c0.4,0,0.7,0.1,1,0.4c0.3,0.3,0.4,0.6,0.4,1v7.6h-3.6l-1.3,1.3h4.9v5.7
	h-4.2l-1.8-3.5h-3.9l-1.3,1.3h4.3l1.8,3.5h5v9.1l-0.9,1.4L22.3,38v0.1L16.9,38L16.9,38z M32.8,37.4H35v-6.6h-2.2
	C32.8,30.8,32.8,37.4,32.8,37.4z M24.7,34.1V20.2h4.9l-1.3-1.3h-3.6v-7.6c0-0.4,0.1-0.7,0.4-1s0.6-0.4,1-0.4h5.1
	c0.3,0,0.5,0.1,0.7,0.2c0.2,0.1,0.4,0.3,0.5,0.5l3.6,6.5h-2.8l-1.9-3.5h-4V15h3.2l1.9,3.5h4.4l2.7,4.7c0.1,0.1,0.1,0.2,0.2,0.4
	c0,0.1,0,0.2,0,0.3c0,0.1-0.1,0.3-0.2,0.7l-1,1.8L38,25.7c-0.4-0.7-1-1.1-1.8-1.4s-1.6-0.4-2.5-0.4s-1.6,0.2-2.3,0.5
	s-1.2,0.8-1.6,1.5C29.7,25.8,24.7,34.1,24.7,34.1z"/>
</svg>
