<?xml version="1.0" encoding="utf-8"?>
<!-- Generator: Adobe Illustrator 26.3.1, SVG Export Plug-In . SVG Version: 6.00 Build 0)  -->
<svg version="1.1" id="Слой_1" xmlns="http://www.w3.org/2000/svg" xmlns:xlink="http://www.w3.org/1999/xlink" x="0px" y="0px"
	 viewBox="0 0 48 48" style="enable-background:new 0 0 48 48;" xml:space="preserve">
<path d="M34.9,40H13.8V18.2L26.3,5.6L26.8,6c0.2,0.2,0.4,0.4,0.5,0.7c0.1,0.2,0.2,0.5,0.2,0.7v0.2l-2.1,10.6h15.8
	c0.7,0,1.4,0.3,1.9,0.8c0.6,0.6,0.8,1.2,0.8,1.9v2.5c0,0.3,0,0.6-0.1,0.9s-0.1,0.6-0.2,0.8l-5.4,12.6c-0.3,0.6-0.7,1.2-1.4,1.6
	C36.3,39.8,35.6,40,34.9,40z M12.2,18.2V40H6V18.2H12.2z"/>
</svg>
