<?xml version="1.0" encoding="utf-8"?>
<!-- Generator: Adobe Illustrator 26.3.1, SVG Export Plug-In . SVG Version: 6.00 Build 0)  -->
<svg version="1.1" id="Слой_1" xmlns="http://www.w3.org/2000/svg" xmlns:xlink="http://www.w3.org/1999/xlink" x="0px" y="0px"
	 viewBox="0 0 48 48" style="enable-background:new 0 0 48 48;" xml:space="preserve">
<path d="M13.1,9.6h21.2v21.8L21.7,44l-0.5-0.3c-0.3-0.2-0.4-0.4-0.6-0.7c-0.1-0.2-0.2-0.5-0.2-0.8V42l2.1-10.5H6.8
	c-0.7,0-1.4-0.3-1.9-0.8C4.3,30,4,29.4,4,28.7v-2.5c0-0.3,0-0.6,0.1-0.9s0.1-0.6,0.2-0.8l5.4-12.6c0.3-0.6,0.7-1.2,1.4-1.6
	C11.7,9.8,12.4,9.6,13.1,9.6z M35.8,31.4V9.6H42v21.8H35.8z"/>
</svg>
