<?xml version="1.0" encoding="utf-8"?>
<!-- Generator: Adobe Illustrator 26.3.1, SVG Export Plug-In . SVG Version: 6.00 Build 0)  -->
<svg version="1.1" id="Слой_1" xmlns="http://www.w3.org/2000/svg" xmlns:xlink="http://www.w3.org/1999/xlink" x="0px" y="0px"
	 viewBox="0 0 48 48" style="enable-background:new 0 0 48 48;" xml:space="preserve">
<path d="M6.8,29.9c-0.7,0-1.3-0.3-1.9-0.9S4,27.8,4,27v-2.5c0-0.3,0-0.6,0.1-0.9s0.1-0.6,0.2-0.8l5.4-12.6C10,9.6,10.4,9,11.1,8.6
	c0.6-0.4,1.3-0.6,2-0.6h21.2v21.9L21.7,42.4l-0.5-0.3c-0.3-0.2-0.4-0.5-0.5-0.7s-0.1-0.5-0.1-0.8v-0.2l2-10.5L6.8,29.9z M35.8,29.9
	V8H42v21.9H35.8z"/>
</svg>
