<?xml version="1.0" encoding="utf-8"?>
<!-- Generator: Adobe Illustrator 26.3.1, SVG Export Plug-In . SVG Version: 6.00 Build 0)  -->
<svg version="1.1" id="Слой_1" xmlns="http://www.w3.org/2000/svg" xmlns:xlink="http://www.w3.org/1999/xlink" x="0px" y="0px"
	 viewBox="0 0 48 48" style="enable-background:new 0 0 48 48;" xml:space="preserve">
<path d="M20,17.6l-4.8-4.8c-0.4-0.4-0.7-0.8-0.9-1.3S14,10.5,14,10c0-1.1,0.4-2,1.1-2.8C15.9,6.4,16.8,6,17.9,6h12.2
	c1.1,0,2,0.4,2.7,1.2s1.1,1.7,1.1,2.8c0,0.5-0.1,1.1-0.3,1.6s-0.5,0.9-0.9,1.4L28,17.5v12.8l4.8,4.8c0.4,0.4,0.6,0.8,0.9,1.3
	c0.2,0.5,0.3,1,0.3,1.5c0,1.1-0.4,2.1-1.2,2.9C32,41.6,31.1,42,30,42c-0.5,0-1.1-0.1-1.5-0.3c-0.5-0.2-0.9-0.5-1.3-0.9
	s-0.9-0.7-1.4-1c-0.5-0.2-1.1-0.3-1.7-0.3s-1.1,0.1-1.7,0.3c-0.5,0.2-1,0.6-1.4,1s-0.8,0.6-1.3,0.9c-0.5,0.2-1,0.3-1.5,0.3
	c-1.1,0-2.1-0.4-2.9-1.2C14.4,40,14,39,14,37.9c0-0.5,0.1-1.1,0.3-1.6s0.5-0.9,0.9-1.3l4.8-4.8C20,30.3,20,17.6,20,17.6z"/>
</svg>
