<?xml version="1.0" encoding="utf-8"?>
<!-- Generator: Adobe Illustrator 26.3.1, SVG Export Plug-In . SVG Version: 6.00 Build 0)  -->
<svg version="1.1" id="Слой_1" xmlns="http://www.w3.org/2000/svg" xmlns:xlink="http://www.w3.org/1999/xlink" x="0px" y="0px"
	 viewBox="0 0 48 48" style="enable-background:new 0 0 48 48;" xml:space="preserve">
<path d="M18.3,34.7h8.4c0.4,0,0.7-0.1,0.9-0.3c0.2-0.2,0.3-0.5,0.3-0.9v-19c0-0.4-0.1-0.7-0.3-0.9c-0.2-0.2-0.5-0.3-0.9-0.3h-8.4
	c-0.3,0-0.6,0.1-0.9,0.3c-0.2,0.2-0.4,0.5-0.4,0.9v18.9c0,0.4,0.1,0.7,0.4,0.9C17.7,34.6,18,34.7,18.3,34.7z M18.3,36.2
	c-0.8,0-1.5-0.3-2-0.8s-0.8-1.2-0.8-2V14.5c0-0.8,0.3-1.5,0.8-2s1.2-0.8,2-0.8h8.4c0.8,0,1.5,0.3,2,0.8s0.8,1.2,0.8,2v18.9
	c0,0.8-0.3,1.5-0.8,2s-1.2,0.8-2,0.8H18.3z M7.5,36.2V13.3H3.4v-1.5h5.7v24.5C9.1,36.2,7.5,36.2,7.5,36.2z M34.9,36.2v-1.5H43V30
	h-6.7c-0.4,0-0.8-0.1-1-0.4c-0.3-0.3-0.4-0.6-0.4-1v-5c0-0.4,0.1-0.7,0.4-1c0.3-0.3,0.6-0.4,1-0.4h8.2v1.5h-8.1v4.7h6.7
	c0.4,0,0.7,0.1,1,0.4s0.4,0.6,0.4,1v5c0,0.4-0.1,0.7-0.4,1s-0.6,0.4-1,0.4C43.2,36.2,34.9,36.2,34.9,36.2z"/>
</svg>
