<?xml version="1.0" encoding="utf-8"?>
<!-- Generator: Adobe Illustrator 26.3.1, SVG Export Plug-In . SVG Version: 6.00 Build 0)  -->
<svg version="1.1" id="Слой_1" xmlns="http://www.w3.org/2000/svg" xmlns:xlink="http://www.w3.org/1999/xlink" x="0px" y="0px"
	 viewBox="0 0 48 48" style="enable-background:new 0 0 48 48;" xml:space="preserve">
<path d="M40.3,42.7L35,37.5c-1.4,1.4-3,2.5-5,3.3c-1.8,0.8-3.9,1.2-6,1.2c-2.2,0-4.3-0.4-6.2-1.3c-1.9-0.8-3.6-2-5.1-3.4
	s-2.6-3.1-3.4-5.1c-0.8-2-1.3-4-1.3-6.2c0-2.1,0.4-4,1.1-5.9c0.7-1.9,1.8-3.6,3.4-5.2L5.3,7.7l1.1-1.1l35,35L40.3,42.7z M18.8,4.5V3
	h10.5v1.5H18.8z M38.1,33.3L24.8,20v-3.3h-1.5v1.7l-6.6-6.6c1.1-0.6,2.3-1.1,3.6-1.4c1.3-0.3,2.5-0.4,3.8-0.4c2,0,3.9,0.4,5.7,1.1
	c1.8,0.7,3.5,1.7,5,3.1l2-2.1l1.1,1.1l-2.1,2.1c1.4,1.5,2.5,3.2,3.2,5s1,3.8,1,5.7c0,1.3-0.2,2.5-0.5,3.8
	C39.2,31.1,38.8,32.3,38.1,33.3z"/>
</svg>
