<?xml version="1.0" encoding="utf-8"?>
<!-- Generator: Adobe Illustrator 26.3.1, SVG Export Plug-In . SVG Version: 6.00 Build 0)  -->
<svg version="1.1" id="Слой_1" xmlns="http://www.w3.org/2000/svg" xmlns:xlink="http://www.w3.org/1999/xlink" x="0px" y="0px"
	 viewBox="0 0 48 48" style="enable-background:new 0 0 48 48;" xml:space="preserve">
<path d="M9.8,36.2v-1.5H21c0.4,0,0.7-0.1,0.9-0.3c0.2-0.2,0.3-0.5,0.3-0.9V26c0-0.4-0.1-0.7-0.3-0.9c-0.2-0.2-0.5-0.3-0.9-0.3H9.8
	v-1.5H21c0.4,0,0.7-0.1,0.9-0.3c0.2-0.2,0.3-0.5,0.3-0.9v-7.5c0-0.4-0.1-0.7-0.3-0.9c-0.2-0.2-0.5-0.3-0.9-0.3H9.8v-1.5H21
	c0.8,0,1.4,0.3,2,0.8c0.5,0.5,0.8,1.2,0.8,2v7.4c0,0.6-0.2,1.1-0.5,1.5s-0.7,0.6-1.2,0.6c0.5,0,0.9,0.2,1.2,0.6
	c0.3,0.4,0.5,0.9,0.5,1.4v7.4c0,0.8-0.3,1.4-0.8,2c-0.5,0.5-1.2,0.8-2,0.8C21,36.2,9.8,36.2,9.8,36.2z M30.2,36.2v-1.5h8.5V30h-7.1
	c-0.4,0-0.7-0.1-1-0.4s-0.4-0.6-0.4-1v-5c0-0.4,0.1-0.7,0.4-1s0.6-0.4,1-0.4h8.6v1.5h-8.5v4.7h7.1c0.4,0,0.7,0.1,1,0.4
	s0.4,0.6,0.4,1v5c0,0.4-0.1,0.7-0.4,1c-0.3,0.3-0.6,0.4-1,0.4C38.8,36.2,30.2,36.2,30.2,36.2z"/>
</svg>
