<?xml version="1.0" encoding="utf-8"?>
<!-- Generator: Adobe Illustrator 26.3.1, SVG Export Plug-In . SVG Version: 6.00 Build 0)  -->
<svg version="1.1" id="Слой_1" xmlns="http://www.w3.org/2000/svg" xmlns:xlink="http://www.w3.org/1999/xlink" x="0px" y="0px"
	 viewBox="0 0 48 48" style="enable-background:new 0 0 48 48;" xml:space="preserve">
<path d="M17.4,33.2h1.8l1.5-4.3h6.7l1.5,4.3h1.8l-5.5-15.7h-2.3L17.4,33.2z M21.1,27.5l2.9-8.3l2.8,8.3H21.1z M18.8,4.5V3h10.5v1.5
	H18.8z M24,42c-2.2,0-4.3-0.4-6.2-1.3c-1.9-0.8-3.6-2-5.1-3.4s-2.6-3.1-3.4-5.1c-0.8-2-1.3-4-1.3-6.2s0.4-4.3,1.3-6.2s2-3.6,3.4-5.1
	c1.5-1.5,3.2-2.6,5.1-3.4c1.9-0.8,4-1.3,6.2-1.3c2,0,4,0.4,5.8,1.1c1.8,0.7,3.5,1.7,4.9,3l2.1-2.1l1.1,1.1l-2.1,2.1
	c1.3,1.3,2.3,2.9,3,4.7c0.8,1.8,1.2,3.8,1.2,6s-0.4,4.3-1.3,6.2c-0.8,2-2,3.6-3.4,5.1c-1.5,1.4-3.2,2.6-5.1,3.4
	C28.3,41.6,26.2,42,24,42z"/>
</svg>
