<?xml version="1.0" encoding="utf-8"?>
<!-- Generator: Adobe Illustrator 26.3.1, SVG Export Plug-In . SVG Version: 6.00 Build 0)  -->
<svg version="1.1" id="Слой_1" xmlns="http://www.w3.org/2000/svg" xmlns:xlink="http://www.w3.org/1999/xlink" x="0px" y="0px"
	 viewBox="0 0 48 48" style="enable-background:new 0 0 48 48;" xml:space="preserve">
<path d="M19.7,33h7.1c0.4,0,0.8-0.1,1.1-0.4c0.3-0.2,0.4-0.6,0.4-1v-5.2c0-0.4-0.2-0.7-0.5-0.9c-0.3-0.2-0.7-0.4-1.1-0.4h-5.6v-4.7
	h7.1v-1.5h-8.6v7.8h7.1v4.7h-7.1C19.7,31.5,19.7,33,19.7,33z M18.8,4.5V3h10.5v1.5H18.8z M24,42c-2.2,0-4.3-0.4-6.2-1.3
	c-1.9-0.8-3.6-2-5.1-3.4s-2.6-3.1-3.4-5.1c-0.8-2-1.3-4-1.3-6.2s0.4-4.3,1.3-6.2s2-3.6,3.4-5.1c1.5-1.5,3.2-2.6,5.1-3.4
	c1.9-0.8,4-1.3,6.2-1.3c2,0,4,0.4,5.8,1.1c1.8,0.7,3.5,1.7,4.9,3l2.1-2.1l1.1,1.1l-2.1,2.1c1.3,1.3,2.3,2.9,3,4.7
	c0.8,1.8,1.2,3.8,1.2,6s-0.4,4.3-1.3,6.2c-0.8,2-2,3.6-3.4,5.1c-1.5,1.4-3.2,2.6-5.1,3.4C28.3,41.6,26.2,42,24,42z"/>
</svg>
