<?xml version="1.0" encoding="utf-8"?>
<!-- Generator: Adobe Illustrator 26.3.1, SVG Export Plug-In . SVG Version: 6.00 Build 0)  -->
<svg version="1.1" id="Слой_1" xmlns="http://www.w3.org/2000/svg" xmlns:xlink="http://www.w3.org/1999/xlink" x="0px" y="0px"
	 viewBox="0 0 48 48" style="enable-background:new 0 0 48 48;" xml:space="preserve">
<path d="M26.3,34.7h8.6c0.4,0,0.7-0.1,0.9-0.3s0.3-0.5,0.3-0.9v-19c0-0.4-0.1-0.7-0.3-0.9s-0.5-0.3-0.9-0.3h-8.6
	c-0.4,0-0.7,0.1-0.9,0.3c-0.2,0.2-0.3,0.5-0.3,0.9v18.9c0,0.4,0.1,0.7,0.3,0.9C25.7,34.6,26,34.7,26.3,34.7z M26.3,36.2
	c-0.8,0-1.5-0.3-2-0.8s-0.8-1.2-0.8-2V14.5c0-0.8,0.3-1.5,0.8-2s1.2-0.8,2-0.8h8.6c0.8,0,1.5,0.3,2,0.8s0.8,1.2,0.8,2v18.9
	c0,0.8-0.3,1.5-0.8,2s-1.2,0.8-2,0.8H26.3z M15.6,36.2V13.3h-5.2v-1.5h6.7v24.5C17.1,36.2,15.6,36.2,15.6,36.2z"/>
</svg>
