<?xml version="1.0" encoding="utf-8"?>
<!-- Generator: Adobe Illustrator 26.3.1, SVG Export Plug-In . SVG Version: 6.00 Build 0)  -->
<svg version="1.1" id="Слой_1" xmlns="http://www.w3.org/2000/svg" xmlns:xlink="http://www.w3.org/1999/xlink" x="0px" y="0px"
	 viewBox="0 0 48 48" style="enable-background:new 0 0 48 48;" xml:space="preserve">
<path d="M44.2,18.9l-0.8-2l-2-0.9l2-0.9l0.8-1.9l1,1.9L47,16l-1.9,0.9L44.2,18.9z M38,10l-1.3-2.9l-3-1.3l3-1.3l1.3-3l1.3,3l3,1.3
	l-3,1.3L38,10z M18,42.3c-0.9,0-1.7-0.3-2.4-0.9S14.5,40,14.4,39h7.3c-0.1,0.9-0.5,1.7-1.2,2.3S18.9,42.3,18,42.3z M10.9,35v-1.5H25
	V35H10.9z M10.9,29.5c-1.8-1.3-3.3-2.8-4.3-4.7C5.5,23,5,20.9,5,18.6C5,15,6.3,12,8.8,9.4s5.6-3.8,9.2-3.8s6.6,1.3,9.2,3.8
	S31,15,31,18.6c0,2.3-0.5,4.4-1.6,6.2s-2.5,3.4-4.4,4.6L10.9,29.5z M11.5,27.9h13c1.5-1.1,2.7-2.4,3.6-4s1.3-3.4,1.3-5.3
	c0-3.2-1.1-5.9-3.4-8.1s-4.8-3.3-8-3.3s-5.9,1.1-8.1,3.3s-3.3,4.9-3.3,8.1c0,1.9,0.4,3.7,1.3,5.3S9.9,26.8,11.5,27.9z M11.5,27.9
	c-1.6-1.1-2.8-2.4-3.7-4s-1.3-3.4-1.3-5.3c0-3.2,1.1-5.9,3.3-8.1s4.9-3.3,8.1-3.3s5.9,1.1,8.1,3.3s3.4,4.9,3.4,8.1
	c0,1.9-0.4,3.7-1.3,5.3c-0.9,1.6-2.1,3-3.6,4C24.5,27.9,11.5,27.9,11.5,27.9z"/>
</svg>
