<?xml version="1.0" encoding="utf-8"?>
<!-- Generator: Adobe Illustrator 26.3.1, SVG Export Plug-In . SVG Version: 6.00 Build 0)  -->
<svg version="1.1" id="Слой_1" xmlns="http://www.w3.org/2000/svg" xmlns:xlink="http://www.w3.org/1999/xlink" x="0px" y="0px"
	 viewBox="0 0 48 48" style="enable-background:new 0 0 48 48;" xml:space="preserve">
<path d="M18.2,34.1V15.7H12v-1.4h13.9v1.4h-6.2v18.4H18.2z M34.8,34.6c-1,0-1.9-0.4-2.7-1.2s-1.2-1.7-1.2-2.8v-8.8h-2.7v-1.3h2.7
	v-4.4h1.4v4.4H36v1.3h-3.7v8.6c0,0.8,0.2,1.4,0.7,2c0.5,0.6,1.1,0.9,1.8,0.9c0.2,0,0.4,0,0.6,0c0.2,0,0.4,0,0.6-0.1v1.2
	c-0.3,0-0.5,0.1-0.7,0.1C35.2,34.6,35,34.6,34.8,34.6z"/>
</svg>
