<?xml version="1.0" encoding="utf-8"?>
<!-- Generator: Adobe Illustrator 26.3.1, SVG Export Plug-In . SVG Version: 6.00 Build 0)  -->
<svg version="1.1" id="Слой_1" xmlns="http://www.w3.org/2000/svg" xmlns:xlink="http://www.w3.org/1999/xlink" x="0px" y="0px"
	 viewBox="0 0 48 48" style="enable-background:new 0 0 48 48;" xml:space="preserve">
<path d="M14,34c-2.8,0-5.1-1-7.1-2.9C5,29.1,4,26.8,4,24s1-5.1,2.9-7.1C8.9,15,11.2,14,14,14h20c2.8,0,5.1,1,7.1,2.9
	c1.9,2,2.9,4.3,2.9,7.1s-1,5.1-2.9,7.1C39.1,33,36.8,34,34,34H14z M34,28.5c1.3,0,2.4-0.4,3.3-1.3c0.9-0.9,1.3-2,1.3-3.2
	c0-1.3-0.4-2.4-1.3-3.2c-0.9-0.9-2-1.3-3.2-1.3c-1.3,0-2.4,0.4-3.2,1.3c-0.9,0.9-1.3,2-1.3,3.2c0,1.3,0.4,2.4,1.3,3.2
	C31.7,28.1,32.7,28.5,34,28.5z"/>
</svg>
