<?xml version="1.0" encoding="utf-8"?>
<!-- Generator: Adobe Illustrator 26.3.1, SVG Export Plug-In . SVG Version: 6.00 Build 0)  -->
<svg version="1.1" id="Слой_1" xmlns="http://www.w3.org/2000/svg" xmlns:xlink="http://www.w3.org/1999/xlink" x="0px" y="0px"
	 viewBox="0 0 48 48" style="enable-background:new 0 0 48 48;" xml:space="preserve">
<path d="M18.5,20L7.8,14L24,5.2L40.2,14l-10.6,6c-0.7-0.9-1.5-1.6-2.5-2c-1-0.5-2-0.7-3.1-0.7s-2.1,0.2-3.1,0.7
	C20,18.5,19.1,19.2,18.5,20z M23.2,42.4L7,33.3V15.2l10.7,6.2c-0.2,0.4-0.3,0.9-0.4,1.3s-0.1,0.9-0.1,1.3c0,1.7,0.6,3.2,1.7,4.5
	s2.6,2,4.3,2.4C23.2,30.8,23.2,42.4,23.2,42.4z M24,29.2c-1.5,0-2.7-0.5-3.7-1.5s-1.5-2.2-1.5-3.7s0.5-2.7,1.5-3.7s2.2-1.5,3.7-1.5
	s2.7,0.5,3.7,1.5s1.5,2.2,1.5,3.7s-0.5,2.7-1.5,3.7S25.5,29.2,24,29.2z M24.8,42.4V30.8c1.7-0.3,3.1-1.1,4.3-2.4
	c1.1-1.3,1.7-2.7,1.7-4.5c0-0.4,0-0.9-0.1-1.3s-0.2-0.9-0.4-1.3L41,15.2v18.1L24.8,42.4z"/>
</svg>
