<?xml version="1.0" encoding="utf-8"?>
<!-- Generator: Adobe Illustrator 26.3.1, SVG Export Plug-In . SVG Version: 6.00 Build 0)  -->
<svg version="1.1" id="Слой_1" xmlns="http://www.w3.org/2000/svg" xmlns:xlink="http://www.w3.org/1999/xlink" x="0px" y="0px"
	 viewBox="0 0 48 48" style="enable-background:new 0 0 48 48;" xml:space="preserve">
<path d="M24,42c-2.5,0-4.8-0.5-7-1.4s-4.1-2.2-5.7-3.8s-2.9-3.5-3.8-5.7C6.5,28.8,6,26.5,6,24s0.5-4.8,1.4-7s2.2-4.1,3.8-5.7
	s3.5-2.9,5.7-3.8C19.2,6.5,21.5,6,24,6s4.8,0.5,7,1.4s4.1,2.2,5.7,3.8c1.6,1.6,2.9,3.5,3.8,5.7c0.9,2.2,1.4,4.5,1.4,7
	s-0.5,4.8-1.4,7s-2.2,4.1-3.8,5.7s-3.5,2.9-5.7,3.8C28.8,41.5,26.5,42,24,42z M23.2,40.5v-33c-4.4,0.5-8.1,2.3-11.1,5.4
	S7.5,19.7,7.5,24s1.5,8,4.6,11.1C15.1,38.1,18.9,39.9,23.2,40.5z M24.8,40.5c1.6-0.1,3.2-0.3,4.7-0.9c1.5-0.5,2.9-1.3,4.2-2.3h-8.9
	C24.8,37.3,24.8,40.5,24.8,40.5z M24.8,35.8h10.8c0.7-0.7,1.3-1.4,1.9-2.2c0.6-0.8,1.1-1.6,1.5-2.5H24.8
	C24.8,31,24.8,35.8,24.8,35.8z M24.8,29.5h14.7c0.3-0.7,0.5-1.5,0.7-2.3c0.1-0.8,0.2-1.6,0.3-2.4H24.8
	C24.8,24.8,24.8,29.5,24.8,29.5z M24.8,23.2h15.7c-0.1-0.8-0.1-1.6-0.3-2.4s-0.3-1.6-0.7-2.3H24.8V23.2z M24.8,17H39
	c-0.4-0.9-0.9-1.7-1.5-2.5s-1.2-1.5-1.9-2.2H24.8C24.8,12.2,24.8,17,24.8,17z M24.8,10.7h8.9c-1.3-1-2.7-1.8-4.2-2.3
	s-3.1-0.8-4.7-0.9C24.8,7.6,24.8,10.7,24.8,10.7z"/>
</svg>
