<?xml version="1.0" encoding="utf-8"?>
<!-- Generator: Adobe Illustrator 26.3.1, SVG Export Plug-In . SVG Version: 6.00 Build 0)  -->
<svg version="1.1" id="Слой_1" xmlns="http://www.w3.org/2000/svg" xmlns:xlink="http://www.w3.org/1999/xlink" x="0px" y="0px"
	 viewBox="0 0 48 48" style="enable-background:new 0 0 48 48;" xml:space="preserve">
<path d="M13,27.5h13.8V26H13V27.5z M13,21.3h22v-1.5H13V21.3z M13,15h22v-1.5H13V15z M24,42l-4.5-6.9H8.8c-0.7,0-1.4-0.3-1.9-0.8
	C6.3,33.7,6,33,6,32.3V8.8c0-0.8,0.3-1.4,0.8-2C7.4,6.3,8,6,8.8,6h30.5c0.7,0,1.4,0.3,1.9,0.8C41.7,7.4,42,8,42,8.8v23.5
	c0,0.7-0.3,1.4-0.8,1.9C40.6,34.8,40,35,39.3,35H28.5L24,42z"/>
</svg>
