<?xml version="1.0" encoding="utf-8"?>
<!-- Generator: Adobe Illustrator 26.3.1, SVG Export Plug-In . SVG Version: 6.00 Build 0)  -->
<svg version="1.1" id="Слой_1" xmlns="http://www.w3.org/2000/svg" xmlns:xlink="http://www.w3.org/1999/xlink" x="0px" y="0px"
	 viewBox="0 0 48 48" style="enable-background:new 0 0 48 48;" xml:space="preserve">
<path d="M8.8,32c-0.7,0-1.4-0.3-1.9-0.8C6.3,30.6,6,30,6,29.2V18.8c0-0.7,0.3-1.4,0.8-1.9C7.4,16.3,8,16,8.8,16h30.5
	c0.7,0,1.4,0.3,1.9,0.8c0.6,0.6,0.8,1.2,0.8,1.9v10.5c0,0.7-0.3,1.4-0.8,1.9c-0.6,0.6-1.2,0.9-2,0.9H8.8z M19,24.5h4.2v-6.9H19
	c-0.9,0-1.7,0.3-2.4,1c-0.7,0.7-1,1.5-1,2.4s0.3,1.7,1,2.4C17.3,24.1,18.1,24.5,19,24.5z M24.8,24.5H29c0.9,0,1.7-0.3,2.4-1
	s1-1.5,1-2.4s-0.3-1.7-1-2.4c-0.7-0.7-1.5-1-2.4-1h-4.2C24.8,17.5,24.8,24.5,24.8,24.5z"/>
</svg>
