<?xml version="1.0" encoding="utf-8"?>
<!-- Generator: Adobe Illustrator 26.3.1, SVG Export Plug-In . SVG Version: 6.00 Build 0)  -->
<svg version="1.1" id="Слой_1" xmlns="http://www.w3.org/2000/svg" xmlns:xlink="http://www.w3.org/1999/xlink" x="0px" y="0px"
	 viewBox="0 0 48 48" style="enable-background:new 0 0 48 48;" xml:space="preserve">
<path d="M13.7,18.8h9.5c0.2,0,0.3-0.1,0.4-0.2s0.2-0.3,0.2-0.4c0-0.2-0.1-0.3-0.2-0.4s-0.3-0.2-0.4-0.2h-9.5c-0.2,0-0.3,0.1-0.4,0.2
	c-0.2,0-0.3,0.2-0.3,0.3c0,0.2,0.1,0.3,0.2,0.4C13.3,18.7,13.5,18.8,13.7,18.8z M13.7,14.5h9.5c0.2,0,0.3-0.1,0.4-0.2
	c0.1-0.1,0.2-0.3,0.2-0.4c0-0.2-0.1-0.3-0.2-0.4c-0.1-0.1-0.3-0.2-0.4-0.2h-9.5c-0.2,0-0.3,0.1-0.4,0.2c-0.1,0.1-0.2,0.3-0.2,0.4
	c0,0.2,0.1,0.3,0.2,0.4C13.3,14.5,13.5,14.5,13.7,14.5z M31.5,20.4v-8.8h1.7c0.7,0,1.4,0.3,1.9,0.8c0.6,0.6,0.8,1.2,0.8,1.9v0.8h3.6
	c0.2,0,0.4,0.1,0.5,0.2c0.1,0.1,0.2,0.3,0.2,0.5s-0.1,0.4-0.2,0.5c-0.1,0.1-0.3,0.2-0.5,0.2H36v0.8c0,0.7-0.3,1.4-0.8,1.9
	C34.6,19.8,34,20,33.3,20C33.2,20.4,31.5,20.4,31.5,20.4z M22.4,27.5h-7.5v-3.9h-2.1c-1.6,0-3.1-0.6-4.2-1.8
	c-1.2-1.2-1.8-2.6-1.8-4.2v-3.2c0-1.6,0.6-3.1,1.8-4.2c1.2-1.2,2.6-1.8,4.2-1.8h14.5c0.7,0,1.4,0.3,1.9,0.8c0.6,0.6,0.8,1.2,0.8,1.9
	v9.7c0,0.7-0.3,1.4-0.8,1.9c-0.6,0.6-1.2,0.8-1.9,0.8h-4.8v4H22.4z M13.7,35.6c-0.6,0-1.1-0.2-1.5-0.6c-0.4-0.4-0.6-0.9-0.6-1.5
	v-2.4c0-0.6,0.2-1.1,0.6-1.5c0.4-0.4,0.9-0.6,1.5-0.6h9.8c0.6,0,1.1,0.2,1.5,0.6s0.6,0.9,0.6,1.5v2.4c0,0.6-0.2,1.1-0.6,1.5
	s-0.9,0.6-1.5,0.6C23.6,35.6,13.7,35.6,13.7,35.6z"/>
</svg>
