<?xml version="1.0" encoding="utf-8"?>
<!-- Generator: Adobe Illustrator 26.3.1, SVG Export Plug-In . SVG Version: 6.00 Build 0)  -->
<svg version="1.1" id="Слой_1" xmlns="http://www.w3.org/2000/svg" xmlns:xlink="http://www.w3.org/1999/xlink" x="0px" y="0px"
	 viewBox="0 0 48 48" style="enable-background:new 0 0 48 48;" xml:space="preserve">
<path d="M36,40.8L22.5,27.2c-0.7,0.4-1.5,0.6-2.3,0.8s-1.6,0.3-2.5,0.3c-3.1,0-5.7-1.1-7.8-3.2s-3.2-4.7-3.2-7.8
	c0-0.8,0.1-1.8,0.4-2.8s0.6-1.9,1-2.5l6.7,6.6l4.2-4.1l-6.7-6.7c0.6-0.4,1.4-0.7,2.4-1s2-0.4,3-0.4c3.1,0,5.7,1.1,7.8,3.2
	s3.2,4.7,3.2,7.8c0,0.9-0.1,1.7-0.3,2.5c-0.2,0.8-0.4,1.6-0.8,2.3l13.5,13.5c0.5,0.6,0.8,1.2,0.8,2c0,0.7-0.2,1.4-0.8,2L40,40.8
	c-0.5,0.5-1.2,0.8-2,0.8S36.6,41.3,36,40.8z"/>
</svg>
