<?xml version="1.0" encoding="utf-8"?>
<!-- Generator: Adobe Illustrator 26.3.1, SVG Export Plug-In . SVG Version: 6.00 Build 0)  -->
<svg version="1.1" id="Слой_1" xmlns="http://www.w3.org/2000/svg" xmlns:xlink="http://www.w3.org/1999/xlink" x="0px" y="0px"
	 viewBox="0 0 48 48" style="enable-background:new 0 0 48 48;" xml:space="preserve">
<path d="M18,38c-3.9,0-7.2-1.4-9.9-4.1C5.4,31.2,4,27.9,4,24s1.4-7.2,4.1-9.9s6-4.1,9.9-4.1h12c3.9,0,7.2,1.4,9.9,4.1s4.1,6,4.1,9.9
	s-1.4,7.2-4.1,9.9c-2.7,2.7-6,4.1-9.9,4.1H18z M24,26.8c0.8,0,1.4-0.3,2-0.8c0.5-0.5,0.8-1.2,0.8-2s-0.3-1.4-0.8-2
	c-0.5-0.5-1.2-0.8-2-0.8s-1.4,0.3-2,0.8c-0.5,0.5-0.8,1.2-0.8,2s0.3,1.4,0.8,2C22.6,26.5,23.2,26.8,24,26.8z M22,16.8h4
	c0.2,0,0.4-0.1,0.5-0.2s0.2-0.3,0.2-0.6c0-0.2-0.1-0.4-0.2-0.5s-0.3-0.2-0.5-0.2h-4c-0.2,0-0.4,0.1-0.5,0.2
	c-0.1,0.1-0.2,0.3-0.2,0.5c0,0.2,0.1,0.4,0.2,0.5C21.6,16.7,21.8,16.8,22,16.8z M22,32.8h4c0.2,0,0.4-0.1,0.5-0.2
	c0.1-0.1,0.2-0.3,0.2-0.6c0-0.2-0.1-0.4-0.2-0.5s-0.3-0.2-0.5-0.2h-4c-0.2,0-0.4,0.1-0.5,0.2s-0.2,0.3-0.2,0.5
	c0,0.2,0.1,0.4,0.2,0.5C21.6,32.7,21.8,32.8,22,32.8z M32,26.8c0.2,0,0.4-0.1,0.5-0.2s0.2-0.3,0.2-0.5v-4c0-0.2-0.1-0.4-0.2-0.5
	c-0.1-0.1-0.3-0.2-0.5-0.2s-0.4,0.1-0.5,0.2s-0.2,0.3-0.2,0.5v4c0,0.2,0.1,0.4,0.2,0.5C31.6,26.7,31.8,26.8,32,26.8z M16,26.8
	c0.2,0,0.4-0.1,0.5-0.2s0.2-0.3,0.2-0.5v-4c0-0.2-0.1-0.4-0.2-0.5s-0.3-0.2-0.5-0.2c-0.2,0-0.4,0.1-0.5,0.2s-0.2,0.3-0.2,0.5v4
	c0,0.2,0.1,0.4,0.2,0.5S15.8,26.8,16,26.8z"/>
</svg>
