<?xml version="1.0" encoding="utf-8"?>
<!-- Generator: Adobe Illustrator 26.3.1, SVG Export Plug-In . SVG Version: 6.00 Build 0)  -->
<svg version="1.1" id="Слой_1" xmlns="http://www.w3.org/2000/svg" xmlns:xlink="http://www.w3.org/1999/xlink" x="0px" y="0px"
	 viewBox="0 0 48 48" style="enable-background:new 0 0 48 48;" xml:space="preserve">
<path d="M33,42c-2.5,0-4.6-0.9-6.4-2.6C24.9,37.6,24,35.5,24,33v-4.2h18V33c0,2.5-0.9,4.6-2.6,6.4C37.6,41.1,35.5,42,33,42z M8.8,38
	c-0.8,0-1.4-0.3-2-0.8C6.3,36.7,6,36,6,35.2V12.8c0-0.8,0.3-1.4,0.8-2C7.3,10.3,8,10,8.8,10h30.5c0.8,0,1.4,0.3,2,0.8
	c0.5,0.5,0.8,1.2,0.8,2v4.5c-1.2-1.2-2.6-2.1-4.1-2.7c-1.6-0.6-3.2-0.9-4.9-0.9c-3.7,0-6.8,1.3-9.4,3.9s-3.9,5.7-3.9,9.4v6
	c0,0.9,0.1,1.7,0.3,2.6c0.2,0.8,0.4,1.6,0.8,2.4H8.8z M24,27.2c0-2.4,0.8-4.5,2.4-6.2c1.6-1.8,3.5-2.8,5.9-3v9.3
	C32.2,27.2,24,27.2,24,27.2z M33.8,27.2V18c2.4,0.2,4.3,1.3,5.9,3c1.6,1.8,2.3,3.8,2.4,6.2C42,27.2,33.8,27.2,33.8,27.2z"/>
</svg>
