<?xml version="1.0" encoding="utf-8"?>
<!-- Generator: Adobe Illustrator 26.3.1, SVG Export Plug-In . SVG Version: 6.00 Build 0)  -->
<svg version="1.1" id="Слой_1" xmlns="http://www.w3.org/2000/svg" xmlns:xlink="http://www.w3.org/1999/xlink" x="0px" y="0px"
	 viewBox="0 0 48 48" style="enable-background:new 0 0 48 48;" xml:space="preserve">
<path d="M22.9,42c-1.1,0-2.2-0.2-3.2-0.7s-1.8-1.1-2.5-2L7.8,26.8l0.6-0.6c0.2-0.3,0.5-0.4,0.9-0.5c0.3-0.1,0.7,0,1,0.1l6.6,3.1
	V12.8c0-0.2,0.1-0.4,0.2-0.6c0.1-0.1,0.3-0.2,0.6-0.2c0.2,0,0.4,0.1,0.6,0.2s0.2,0.3,0.2,0.6V23h14.8c1.4,0,2.5,0.5,3.4,1.4
	s1.4,2.1,1.4,3.4v7.3c0,1.9-0.7,3.5-2,4.8s-2.9,2-4.8,2C31.2,42,22.9,42,22.9,42z M14.3,12.8v6.5c-1.2-0.6-2.2-1.5-2.9-2.7
	c-0.7-1.2-1.1-2.4-1.1-3.9c0-2,0.7-3.8,2.1-5.2s3.1-2.1,5.2-2.1s3.8,0.7,5.2,2.1c1.4,1.4,2.1,3.1,2.1,5.2c0,1.4-0.4,2.7-1.1,3.9
	s-1.7,2-2.9,2.7v-6.5c0-0.9-0.3-1.7-0.9-2.4c-0.6-0.6-1.4-0.9-2.4-0.9c-0.9,0-1.7,0.3-2.4,0.9C14.6,11.1,14.3,11.9,14.3,12.8z"/>
</svg>
