<?xml version="1.0" encoding="utf-8"?>
<!-- Generator: Adobe Illustrator 26.3.1, SVG Export Plug-In . SVG Version: 6.00 Build 0)  -->
<svg version="1.1" id="Слой_1" xmlns="http://www.w3.org/2000/svg" xmlns:xlink="http://www.w3.org/1999/xlink" x="0px" y="0px"
	 viewBox="0 0 48 48" style="enable-background:new 0 0 48 48;" xml:space="preserve">
<path d="M22.9,42c-1.1,0-2.2-0.2-3.2-0.7s-1.8-1.1-2.5-2L7.8,26.8l0.6-0.6c0.2-0.3,0.5-0.4,0.9-0.5c0.3-0.1,0.7,0,1,0.1l6.6,3.1
	V12.8c0-0.2,0.1-0.4,0.2-0.6c0.1-0.1,0.3-0.2,0.6-0.2c0.2,0,0.4,0.1,0.6,0.2c0.1,0.1,0.2,0.3,0.2,0.6V23h14.8c1.3,0,2.5,0.5,3.4,1.4
	s1.4,2.1,1.4,3.4v7.3c0,1.9-0.7,3.5-2,4.8s-2.9,2-4.8,2C31.2,42,22.9,42,22.9,42z M11.3,16.5c-0.3-0.5-0.6-1.1-0.7-1.7
	c-0.2-0.6-0.3-1.3-0.3-1.9c0-2,0.7-3.8,2.1-5.2s3.1-2.1,5.2-2.1s3.8,0.7,5.2,2.1c1.4,1.4,2.1,3.1,2.1,5.2c0,0.7-0.1,1.3-0.3,1.9
	c-0.2,0.6-0.4,1.2-0.7,1.7l-1.3-0.8c0.3-0.4,0.5-0.9,0.6-1.4s0.2-1,0.2-1.5c0-1.6-0.6-3-1.7-4.1S19.2,7,17.6,7s-3,0.6-4.1,1.7
	s-1.7,2.5-1.7,4.1c0,0.5,0.1,1,0.2,1.5c0.1,0.5,0.3,0.9,0.6,1.4C12.6,15.7,11.3,16.5,11.3,16.5z"/>
</svg>
