<?xml version="1.0" encoding="utf-8"?>
<!-- Generator: Adobe Illustrator 26.3.1, SVG Export Plug-In . SVG Version: 6.00 Build 0)  -->
<svg version="1.1" id="Слой_1" xmlns="http://www.w3.org/2000/svg" xmlns:xlink="http://www.w3.org/1999/xlink" x="0px" y="0px"
	 viewBox="0 0 48 48" style="enable-background:new 0 0 48 48;" xml:space="preserve">
<path d="M8.8,38c-0.8,0-1.4-0.3-2-0.8C6.3,36.7,6,36,6,35.2V12.8c0-0.8,0.3-1.4,0.8-2C7.3,10.3,8,10,8.8,10H10l11.1,11
	c-0.4,0.9-0.8,1.9-1,2.9s-0.4,2-0.4,3.1v6c0,0.9,0.1,1.7,0.3,2.6c0.2,0.8,0.4,1.6,0.8,2.4H8.8z M33,13.7c-2,0-3.8,0.4-5.5,1.2
	s-3.2,1.9-4.4,3.2L15,10h24.3c0.8,0,1.4,0.3,2,0.8c0.5,0.5,0.8,1.2,0.8,2v4.5c-1.2-1.2-2.6-2.1-4.1-2.7C36.3,14,34.7,13.7,33,13.7z
	 M33.8,27.2V18c2.4,0.2,4.3,1.3,5.9,3c1.6,1.8,2.3,3.8,2.4,6.2H33.8z M32.2,18v9h-0.3l-5.7-5.7c0.7-0.9,1.6-1.6,2.7-2.2
	C29.9,18.5,31,18.1,32.2,18z M41.3,36.3l-7.6-7.6H42V33c0,0.6-0.1,1.2-0.2,1.8S41.5,35.9,41.3,36.3z M33,42c-2.5,0-4.6-0.9-6.4-2.6
	C24.9,37.6,24,35.5,24,33v-4.2h2.5L3.8,6l1.1-1.1l38.8,38.8l-1.1,1.1l-4.4-4.4c-0.7,0.5-1.5,0.9-2.4,1.2C34.9,41.9,34,42,33,42z"/>
</svg>
