<?xml version="1.0" encoding="utf-8"?>
<!-- Generator: Adobe Illustrator 26.3.1, SVG Export Plug-In . SVG Version: 6.00 Build 0)  -->
<svg version="1.1" id="Слой_1" xmlns="http://www.w3.org/2000/svg" xmlns:xlink="http://www.w3.org/1999/xlink" x="0px" y="0px"
	 viewBox="0 0 48 48" style="enable-background:new 0 0 48 48;" xml:space="preserve">
<path d="M8,36.9c0-0.3,0.1-0.5,0.2-0.7c0.2-0.2,0.4-0.3,0.6-0.3c0.1,0,0.3,0,0.4,0.1c0.1,0,0.2,0.1,0.3,0.1c0.3,0.2,0.7,0.3,1,0.3
	c0.4,0,0.7,0.1,1.1,0.1c1.7,0,3.2-0.6,4.4-1.8s1.8-2.7,1.8-4.4c0-1.7-0.6-3.1-1.8-4.3s-2.6-1.8-4.4-1.8c-0.3,0-0.6,0-0.9,0.1
	c-0.3,0.1-0.6,0.1-0.9,0.2c-0.2,0-0.3,0.1-0.5,0.1c-0.1,0-0.3,0-0.4,0c-0.3,0-0.5-0.1-0.6-0.3C8.1,24.1,8,23.9,8,23.6v-3.9
	c0-0.4,0.1-0.7,0.4-1c0.3-0.3,0.6-0.4,1-0.4H19c0.2,0,0.3-0.1,0.3-0.3c0.1-0.2,0-0.4-0.2-0.6c-0.6-0.6-1.1-1.4-1.3-2.2
	c-0.3-0.8-0.4-1.7-0.4-2.6c0-1.8,0.6-3.4,1.9-4.7C20.6,6.6,22.2,6,24,6c1.9,0,3.4,0.6,4.7,1.9c1.3,1.3,1.9,2.9,1.9,4.7
	c0,0.9-0.1,1.7-0.4,2.6c-0.3,0.8-0.7,1.6-1.3,2.2c-0.2,0.2-0.2,0.4-0.2,0.6c0.1,0.2,0.2,0.3,0.3,0.3h9.5c0.4,0,0.7,0.1,1,0.4
	s0.4,0.6,0.4,1v3c0,0.4,0,0.9-0.1,1.2c-0.1,0.4-0.3,0.6-0.7,0.6c-0.2,0-0.4,0-0.6,0c-0.2,0-0.4,0-0.6-0.1c-0.3-0.1-0.6-0.2-0.8-0.2
	c-0.3,0-0.6-0.1-0.9-0.1c-1.7,0-3.2,0.6-4.4,1.8c-1.2,1.2-1.8,2.6-1.8,4.3s0.6,3.2,1.8,4.4s2.6,1.8,4.4,1.8c0.3,0,0.7,0,1-0.1
	c0.4,0,0.7-0.2,1-0.3c0.1,0,0.3-0.1,0.4-0.1c0.1,0,0.3-0.1,0.4-0.1c0.2,0,0.4,0.1,0.6,0.3c0.1,0.2,0.2,0.4,0.2,0.7v3.7
	c0,0.4-0.1,0.7-0.4,1c-0.3,0.3-0.6,0.4-1,0.4h-29c-0.4,0-0.7-0.1-1-0.4c-0.3-0.3-0.4-0.6-0.4-1C8,40.6,8,36.9,8,36.9z"/>
</svg>
