<?xml version="1.0" encoding="utf-8"?>
<!-- Generator: Adobe Illustrator 26.3.1, SVG Export Plug-In . SVG Version: 6.00 Build 0)  -->
<svg version="1.1" id="Слой_1" xmlns="http://www.w3.org/2000/svg" xmlns:xlink="http://www.w3.org/1999/xlink" x="0px" y="0px"
	 viewBox="0 0 48 48" style="enable-background:new 0 0 48 48;" xml:space="preserve">
<path d="M13.9,39c-1.4,0-2.7-0.6-3.6-1.7c-1-1.1-1.4-2.4-1.3-3.9C7.9,32.8,7.1,32,6.5,31s-0.9-2.1-0.9-3.3c0-1.6,0.5-2.9,1.5-4.1
	s2.2-1.9,3.7-2.1L6.4,17L5,18.4c-0.2,0.2-0.4,0.3-0.6,0.3S4,18.6,3.8,18.5c-0.2-0.2-0.2-0.4-0.2-0.6s0.1-0.4,0.3-0.6l3.9-3.9
	c0.2-0.2,0.4-0.3,0.6-0.3c0.2,0,0.4,0,0.6,0.2c0.1,0.2,0.2,0.4,0.2,0.6c0,0.2-0.1,0.4-0.3,0.6l-1.4,1.4l4.5,4.6l2.1-6.2
	c0.3-0.8,0.8-1.5,1.4-2c0.7-0.5,1.4-0.8,2.2-0.8h12.6c0.8,0,1.6,0.3,2.3,0.8s1.1,1.2,1.4,2l2.3,7.1c1.7,0,3.2,0.6,4.4,1.8
	c1.2,1.2,1.8,2.7,1.8,4.5c0,1.2-0.3,2.3-0.9,3.3c-0.6,1-1.4,1.8-2.5,2.4c0.1,1.5-0.4,2.8-1.3,3.9c-1,1.1-2.2,1.7-3.6,1.7
	c-1.4,0-2.5-0.5-3.5-1.5c-0.9-1-1.4-2.2-1.5-3.5H18.8c0,1.4-0.5,2.6-1.5,3.5C16.4,38.5,15.3,39,13.9,39z M13.2,21.5h9.9v-8.4h-5.5
	c-0.5,0-1,0.2-1.4,0.5s-0.7,0.7-0.8,1.2L13.2,21.5z M24.7,21.5h9.9l-2.1-6.7c-0.2-0.5-0.5-0.9-0.9-1.2s-0.8-0.5-1.3-0.5h-5.6V21.5z
	 M13.9,37.5c1,0,1.8-0.3,2.5-1c0.7-0.7,1-1.5,1-2.5s-0.3-1.8-1-2.5c-0.7-0.7-1.5-1-2.5-1s-1.8,0.3-2.5,1s-1,1.5-1,2.5s0.3,1.8,1,2.5
	C12.1,37.1,12.9,37.5,13.9,37.5z M34.1,37.5c0.9,0,1.8-0.3,2.4-1c0.7-0.7,1-1.5,1-2.5s-0.3-1.8-1-2.5s-1.5-1-2.4-1
	c-1,0-1.8,0.3-2.5,1s-1,1.5-1,2.5s0.3,1.8,1,2.5C32.3,37.1,33.2,37.5,34.1,37.5z"/>
</svg>
