<?xml version="1.0" encoding="utf-8"?>
<!-- Generator: Adobe Illustrator 26.3.1, SVG Export Plug-In . SVG Version: 6.00 Build 0)  -->
<svg version="1.1" id="Слой_1" xmlns="http://www.w3.org/2000/svg" xmlns:xlink="http://www.w3.org/1999/xlink" x="0px" y="0px"
	 viewBox="0 0 48 48" style="enable-background:new 0 0 48 48;" xml:space="preserve">
<path d="M8.8,36c-0.8,0-1.4-0.3-2-0.8C6.3,34.7,6,34,6,33.2V10.8c0-0.8,0.3-1.4,0.8-2C7.3,8.3,8,8,8.8,8h28.5c0.8,0,1.4,0.3,2,0.8
	c0.5,0.5,0.8,1.2,0.8,2v7.3h-1.5v-7.3c0-0.3-0.1-0.6-0.4-0.8c-0.3-0.3-0.5-0.4-0.8-0.4H8.8C8.5,9.6,8.2,9.7,8,10
	c-0.3,0.3-0.4,0.5-0.4,0.8v22.5c0,0.3,0.1,0.6,0.4,0.8c0.3,0.3,0.5,0.4,0.8,0.4h4.3l1.5,1.5H8.8z M28.4,42c-0.6,0-1.2-0.1-1.8-0.4
	c-0.6-0.2-1.1-0.6-1.6-1l-8.5-8.5l1-1c0.3-0.3,0.6-0.5,1-0.5c0.4-0.1,0.8,0,1.1,0.1l4.4,1V16.8c0-0.2,0.1-0.4,0.2-0.5
	s0.3-0.2,0.6-0.2c0.2,0,0.4,0.1,0.6,0.2c0.1,0.1,0.2,0.3,0.2,0.5v11.8h4.2v-7.8c0-0.2,0.1-0.4,0.2-0.5s0.3-0.2,0.6-0.2
	c0.2,0,0.4,0.1,0.6,0.2c0.1,0.1,0.2,0.3,0.2,0.5v7.8h4.1v-4.8c0-0.2,0.1-0.4,0.2-0.5c0.1-0.1,0.3-0.2,0.6-0.2c0.2,0,0.4,0.1,0.5,0.2
	s0.2,0.3,0.2,0.5v4.8h4.2c0-0.2,0.1-0.4,0.2-0.5c0.1-0.1,0.3-0.2,0.6-0.2c0.2,0,0.4,0.1,0.6,0.2c0.1,0.1,0.2,0.3,0.2,0.5v6.6
	c0,1.9-0.7,3.5-2,4.8s-2.9,2-4.8,2C36,42,28.4,42,28.4,42z"/>
</svg>
