<?xml version="1.0" encoding="utf-8"?>
<!-- Generator: Adobe Illustrator 26.3.1, SVG Export Plug-In . SVG Version: 6.00 Build 0)  -->
<svg version="1.1" id="Слой_1" xmlns="http://www.w3.org/2000/svg" xmlns:xlink="http://www.w3.org/1999/xlink" x="0px" y="0px"
	 viewBox="0 0 48 48" style="enable-background:new 0 0 48 48;" xml:space="preserve">
<path d="M23.9,35.4c0.6,0,1.1-0.2,1.5-0.6c0.4-0.4,0.6-0.9,0.6-1.6c0-0.6-0.2-1.1-0.6-1.5C25,31.2,24.5,31,23.9,31s-1.1,0.2-1.5,0.6
	s-0.6,0.9-0.6,1.5s0.2,1.2,0.6,1.6C22.8,35.2,23.3,35.4,23.9,35.4z M23.9,26.2c0.6,0,1.1-0.2,1.5-0.6s0.6-0.9,0.6-1.5
	s-0.2-1.1-0.6-1.5S24.5,22,23.9,22s-1.1,0.2-1.5,0.6s-0.6,0.9-0.6,1.5s0.2,1.1,0.6,1.5S23.3,26.2,23.9,26.2z M23.9,17
	c0.6,0,1.1-0.2,1.5-0.6s0.6-0.9,0.6-1.5s-0.2-1.2-0.6-1.6s-0.9-0.6-1.5-0.6s-1.1,0.2-1.5,0.6c-0.4,0.4-0.6,0.9-0.6,1.6
	c0,0.6,0.2,1.1,0.6,1.5S23.3,17,23.9,17z M15.8,30.8v-5.5c-1.3-0.3-2.2-0.8-2.8-1.5c-0.7-0.8-1-1.6-1-2.4h3.8V16
	c-1.3-0.2-2.2-0.7-2.8-1.5s-0.9-1.6-0.9-2.4h3.8V9.7c0-0.6,0.1-1,0.4-1.3c0.2-0.3,0.6-0.4,1-0.4h13.2c0.4,0,0.8,0.1,1.1,0.4
	C31.9,8.7,32,9.1,32,9.7v2.4h4c0,0.8-0.3,1.6-1,2.4c-0.7,0.8-1.7,1.3-2.9,1.5v5.4H36c0,0.8-0.3,1.6-1,2.4s-1.7,1.3-2.9,1.5v5.5H36
	c0,0.8-0.3,1.6-1,2.4c-0.7,0.8-1.7,1.3-2.9,1.5v3.8c0,0.4-0.2,0.8-0.5,1.1S30.9,40,30.5,40H17.3c-0.4,0-0.8-0.1-1.1-0.4
	c-0.3-0.3-0.4-0.7-0.4-1.1v-3.8c-1.3-0.2-2.2-0.7-2.8-1.5s-0.9-1.6-0.9-2.4C12,30.8,15.8,30.8,15.8,30.8z"/>
</svg>
