<?xml version="1.0" encoding="utf-8"?>
<!-- Generator: Adobe Illustrator 26.3.1, SVG Export Plug-In . SVG Version: 6.00 Build 0)  -->
<svg version="1.1" id="Слой_1" xmlns="http://www.w3.org/2000/svg" xmlns:xlink="http://www.w3.org/1999/xlink" x="0px" y="0px"
	 viewBox="0 0 48 48" style="enable-background:new 0 0 48 48;" xml:space="preserve">
<path d="M14,33v-1.5h14.9c-1.2-0.9-2.2-1.9-2.8-3.1c-0.6-1.2-1-2.4-1.1-3.6h-7.4v-1.5H25c0.1-1.2,0.5-2.4,1.2-3.6
	c0.6-1.2,1.6-2.2,2.7-3.1H7V15h27c2.5,0,4.6,0.9,6.4,2.6c1.8,1.8,2.6,3.9,2.6,6.4s-0.9,4.6-2.6,6.4C38.7,32.2,36.5,33,34,33H14z
	 M5,24.8v-1.5h10.8v1.5H5z M7,33v-1.5h5.2V33H7z"/>
</svg>
