<?xml version="1.0" encoding="utf-8"?>
<!-- Generator: Adobe Illustrator 26.3.1, SVG Export Plug-In . SVG Version: 6.00 Build 0)  -->
<svg version="1.1" id="Слой_1" xmlns="http://www.w3.org/2000/svg" xmlns:xlink="http://www.w3.org/1999/xlink" x="0px" y="0px"
	 viewBox="0 0 48 48" style="enable-background:new 0 0 48 48;" xml:space="preserve">
<path d="M18.9,32.3h10.2v-1.5L27.4,30c0.9,0,1.7-0.3,2.4-1c0.7-0.7,1-1.5,1-2.4V19c0-1.2-0.5-2.1-1.6-2.6c-1-0.5-2.8-0.8-5.2-0.8
	c-2.3,0-4.1,0.3-5.1,0.8c-1.1,0.5-1.6,1.4-1.6,2.6v7.6c0,0.9,0.3,1.7,1,2.4s1.5,1,2.4,1L19,30.8C18.9,30.8,18.9,32.3,18.9,32.3z
	 M21,28.2c-0.4,0-0.7-0.1-0.9-0.4c-0.2-0.2-0.4-0.5-0.4-0.9s0.1-0.7,0.4-0.9c0.2-0.2,0.5-0.4,0.9-0.4s0.7,0.1,0.9,0.4
	c0.2,0.2,0.4,0.5,0.4,0.9s-0.1,0.7-0.4,0.9C21.7,28.1,21.4,28.2,21,28.2z M27,28.2c-0.4,0-0.7-0.1-0.9-0.4c-0.2-0.2-0.4-0.5-0.4-0.9
	s0.1-0.7,0.4-0.9c0.2-0.2,0.5-0.4,0.9-0.4s0.7,0.1,0.9,0.4c0.2,0.2,0.4,0.5,0.4,0.9s-0.1,0.7-0.4,0.9C27.6,28.1,27.3,28.2,27,28.2z
	 M19,24.2V19h10v5.2H19z M8.8,38c-0.8,0-1.4-0.3-1.9-0.8S6,36,6,35.2v-4.1c0-0.3,0.1-0.5,0.2-0.8c0.1-0.2,0.3-0.4,0.6-0.6
	c1.1-0.6,1.9-1.4,2.5-2.4c0.6-1,0.9-2.2,0.9-3.4c0-1.2-0.3-2.3-0.9-3.4c-0.6-1-1.4-1.8-2.5-2.4c-0.2-0.1-0.4-0.3-0.6-0.6
	C6.1,17.4,6,17.2,6,16.9v-4.1c0-0.7,0.3-1.4,0.8-1.9C7.4,10.3,8,10,8.8,10h30.5c0.8,0,1.4,0.3,1.9,0.8S42,12,42,12.7v4.1
	c0,0.3-0.1,0.5-0.2,0.8c-0.1,0.2-0.3,0.4-0.5,0.6c-1.1,0.6-1.9,1.4-2.5,2.4s-0.9,2.2-0.9,3.4c0,1.2,0.3,2.3,0.9,3.4
	c0.6,1,1.5,1.8,2.5,2.4c0.2,0.1,0.4,0.3,0.5,0.6c0.1,0.2,0.2,0.5,0.2,0.8v4.1c0,0.8-0.3,1.4-0.8,1.9S40,38,39.2,38H8.8z"/>
</svg>
