<?xml version="1.0" encoding="utf-8"?>
<!-- Generator: Adobe Illustrator 26.3.1, SVG Export Plug-In . SVG Version: 6.00 Build 0)  -->
<svg version="1.1" id="Слой_1" xmlns="http://www.w3.org/2000/svg" xmlns:xlink="http://www.w3.org/1999/xlink" x="0px" y="0px"
	 viewBox="0 0 48 48" style="enable-background:new 0 0 48 48;" xml:space="preserve">
<path d="M11.7,38c-0.5,0-0.9-0.2-1.2-0.5S10,36.8,10,36.3s0.2-0.9,0.5-1.3c0.3-0.3,0.7-0.5,1.2-0.5s0.9,0.2,1.2,0.5s0.5,0.7,0.5,1.2
	s-0.2,0.8-0.5,1.2C12.6,37.8,12.2,38,11.7,38z M19.9,38c-0.5,0-0.9-0.2-1.2-0.5c-0.3-0.3-0.5-0.7-0.5-1.2s0.2-0.9,0.5-1.2
	s0.7-0.5,1.2-0.5s0.9,0.2,1.2,0.5c0.3,0.3,0.5,0.7,0.5,1.2s-0.2,0.8-0.5,1.2C20.8,37.8,20.4,38,19.9,38z M28.1,38
	c-0.5,0-0.8-0.2-1.2-0.5c-0.3-0.3-0.5-0.7-0.5-1.2s0.2-0.9,0.5-1.2s0.7-0.5,1.2-0.5s0.9,0.2,1.2,0.5c0.3,0.3,0.5,0.7,0.5,1.2
	s-0.2,0.8-0.5,1.2C29,37.8,28.5,38,28.1,38z M36.3,38c-0.5,0-0.9-0.2-1.2-0.5s-0.5-0.7-0.5-1.2s0.2-0.9,0.5-1.2s0.7-0.5,1.2-0.5
	s0.9,0.2,1.2,0.5s0.5,0.7,0.5,1.2s-0.2,0.8-0.5,1.2C37.1,37.8,36.7,38,36.3,38z M11.7,29.8c-0.5,0-0.8-0.2-1.2-0.5
	C10.2,29,10,28.6,10,28.1c0-0.4,0.2-0.8,0.5-1.2c0.3-0.3,0.7-0.5,1.2-0.5s0.9,0.2,1.2,0.5s0.5,0.7,0.5,1.2s-0.2,0.9-0.5,1.2
	C12.6,29.7,12.2,29.8,11.7,29.8z M19.9,29.8c-0.5,0-0.9-0.2-1.2-0.5c-0.3-0.3-0.5-0.7-0.5-1.2s0.2-0.9,0.5-1.2
	c0.3-0.3,0.7-0.5,1.2-0.5s0.9,0.2,1.2,0.5c0.3,0.3,0.5,0.7,0.5,1.2s-0.2,0.9-0.5,1.2C20.8,29.7,20.4,29.8,19.9,29.8z M28.1,29.8
	c-0.5,0-0.8-0.2-1.2-0.5c-0.3-0.3-0.5-0.7-0.5-1.2s0.2-0.9,0.5-1.2c0.3-0.3,0.7-0.5,1.2-0.5s0.9,0.2,1.2,0.5
	c0.3,0.3,0.5,0.7,0.5,1.2s-0.2,0.9-0.5,1.2C29,29.7,28.5,29.8,28.1,29.8z M36.3,29.8c-0.5,0-0.9-0.2-1.2-0.5s-0.5-0.7-0.5-1.2
	s0.2-0.9,0.5-1.2c0.3-0.3,0.7-0.5,1.2-0.5s0.9,0.2,1.2,0.5s0.5,0.7,0.5,1.2s-0.2,0.9-0.5,1.2C37.1,29.7,36.7,29.8,36.3,29.8z
	 M11.7,21.6c-0.5,0-0.8-0.2-1.2-0.5c-0.3-0.3-0.5-0.7-0.5-1.2c0-0.4,0.2-0.8,0.5-1.2s0.7-0.5,1.2-0.5s0.9,0.2,1.2,0.5
	s0.5,0.7,0.5,1.2s-0.2,0.8-0.5,1.2C12.6,21.5,12.2,21.6,11.7,21.6z M19.9,21.6c-0.5,0-0.9-0.2-1.2-0.5c-0.3-0.3-0.5-0.7-0.5-1.2
	s0.2-0.9,0.5-1.2c0.3-0.3,0.7-0.5,1.2-0.5s0.9,0.2,1.2,0.5s0.5,0.7,0.5,1.2s-0.2,0.8-0.5,1.2C20.8,21.5,20.4,21.6,19.9,21.6z
	 M28.1,21.6c-0.5,0-0.8-0.2-1.2-0.5c-0.3-0.3-0.5-0.7-0.5-1.2s0.2-0.9,0.5-1.2c0.3-0.3,0.7-0.5,1.2-0.5s0.9,0.2,1.2,0.5
	s0.5,0.7,0.5,1.2s-0.2,0.8-0.5,1.2C29,21.5,28.5,21.6,28.1,21.6z M36.3,21.6c-0.5,0-0.9-0.2-1.2-0.5s-0.5-0.7-0.5-1.2
	s0.2-0.9,0.5-1.2c0.3-0.3,0.7-0.5,1.2-0.5s0.9,0.2,1.2,0.5s0.5,0.7,0.5,1.2s-0.2,0.8-0.5,1.2C37.1,21.5,36.7,21.6,36.3,21.6z
	 M11.7,13.5c-0.5,0-0.8-0.2-1.2-0.5c-0.3-0.3-0.5-0.7-0.5-1.2s0.2-0.9,0.5-1.2c0.3-0.4,0.7-0.5,1.2-0.5s0.9,0.2,1.2,0.5
	s0.5,0.8,0.5,1.2c0,0.5-0.2,0.9-0.5,1.2C12.6,13.3,12.2,13.5,11.7,13.5z M19.9,13.5c-0.5,0-0.9-0.2-1.2-0.5
	c-0.3-0.3-0.5-0.7-0.5-1.2s0.2-0.9,0.5-1.2s0.7-0.5,1.2-0.5s0.9,0.2,1.2,0.5c0.3,0.3,0.5,0.8,0.5,1.2c0,0.5-0.2,0.9-0.5,1.2
	C20.8,13.3,20.4,13.5,19.9,13.5z M28.1,13.5c-0.5,0-0.8-0.2-1.2-0.5c-0.3-0.3-0.5-0.7-0.5-1.2s0.2-0.9,0.5-1.2s0.7-0.5,1.2-0.5
	s0.9,0.2,1.2,0.5c0.3,0.3,0.5,0.8,0.5,1.2c0,0.5-0.2,0.9-0.5,1.2C29,13.3,28.5,13.5,28.1,13.5z M36.3,13.5c-0.5,0-0.9-0.2-1.2-0.5
	s-0.5-0.7-0.5-1.2s0.2-0.9,0.5-1.2s0.7-0.5,1.2-0.5s0.9,0.2,1.2,0.5s0.5,0.8,0.5,1.2c0,0.5-0.2,0.9-0.5,1.2
	C37.1,13.3,36.7,13.5,36.3,13.5z"/>
</svg>
