<?xml version="1.0" encoding="utf-8"?>
<!-- Generator: Adobe Illustrator 26.3.1, SVG Export Plug-In . SVG Version: 6.00 Build 0)  -->
<svg version="1.1" id="Слой_1" xmlns="http://www.w3.org/2000/svg" xmlns:xlink="http://www.w3.org/1999/xlink" x="0px" y="0px"
	 viewBox="0 0 48 48" style="enable-background:new 0 0 48 48;" xml:space="preserve">
<path d="M31.4,43.8L25,37.4l1.1-1.1l4.6,4.5V32h-12c-0.8,0-1.4-0.3-2-0.8s-0.8-1.2-0.8-2V17.4H6v-1.5h9.8V7.2l-4.6,4.5l-1.1-1.1
	l6.4-6.4l6.4,6.4L22,11.7l-4.6-4.5v22.1c0,0.3,0.1,0.6,0.4,0.8c0.3,0.3,0.5,0.4,0.8,0.4H42V32h-9.8v8.8l4.6-4.5l1.1,1.1L31.4,43.8z
	 M30.6,27v-8.3c0-0.3-0.1-0.6-0.4-0.8c-0.3-0.3-0.5-0.4-0.8-0.4h-8.5V16h8.5c0.8,0,1.4,0.3,2,0.8c0.5,0.5,0.8,1.2,0.8,2V27H30.6z"/>
</svg>
