<?xml version="1.0" encoding="utf-8"?>
<!-- Generator: Adobe Illustrator 26.3.1, SVG Export Plug-In . SVG Version: 6.00 Build 0)  -->
<svg version="1.1" id="Слой_1" xmlns="http://www.w3.org/2000/svg" xmlns:xlink="http://www.w3.org/1999/xlink" x="0px" y="0px"
	 viewBox="0 0 48 48" style="enable-background:new 0 0 48 48;" xml:space="preserve">
<path d="M36.9,32.5c-2.3,0-4.2-0.8-5.8-2.2c-1.6-1.4-2.6-3.4-2.9-5.8h-7.3L20,23.1h8.2c0.1-1.2,0.5-2.4,1.1-3.6
	c0.7-1.3,1.6-2.3,2.7-3H16.3l-1-1.5h17.5l-3.4-9.6c-0.1-0.3-0.2-0.5-0.4-0.6c-0.2-0.1-0.5-0.2-0.7-0.2h-5.7V3h5.7
	c0.6,0,1.1,0.2,1.6,0.5s0.8,0.8,1,1.3l3.6,10.1h2.3c2.6,0,4.8,0.8,6.5,2.5s2.5,3.8,2.5,6.4c0,2.4-0.9,4.5-2.6,6.2
	C41.4,31.7,39.3,32.5,36.9,32.5z M36.9,31c2,0,3.7-0.7,5.1-2.1c1.4-1.4,2.1-3.1,2.1-5.1c0-2.1-0.7-3.8-2.1-5.2
	c-1.4-1.4-3.1-2.1-5.2-2.1c-0.3,0-0.7,0-1,0.1c-0.4,0.1-0.7,0.1-0.9,0.2l2.1,5.6l-1.4,0.5l-2-5.6c-1.3,0.7-2.2,1.6-2.9,2.8
	c-0.7,1.2-1,2.4-1,3.7c0,2,0.7,3.7,2.1,5.1C33.2,30.3,34.9,31,36.9,31z M15.5,45.1c-1.3,0-2.4-0.5-3.4-1.4c-0.9-0.9-1.4-2-1.4-3.4
	c0-0.3,0-0.5,0-0.7s0.1-0.4,0.1-0.6H2.5v-9h4.2v-7H2.5v-1.5H15l5,8.5h4.6c0.8,0,1.4,0.3,2,0.8c0.5,0.5,0.8,1.2,0.8,2v3.5
	c0,0.8-0.3,1.4-0.8,2c-0.5,0.5-1.2,0.8-2,0.8h-4.4c0.1,0.2,0.1,0.4,0.1,0.6c0,0.2,0,0.4,0,0.7c0,1.3-0.5,2.4-1.4,3.4
	S16.9,45.1,15.5,45.1z M8.3,30h9.9l-4-7H8.3V30z M15.5,43.5c0.9,0,1.6-0.3,2.3-0.9c0.6-0.6,1-1.4,1-2.3c0-0.9-0.3-1.6-1-2.2
	c-0.6-0.6-1.4-0.9-2.3-0.9c-0.9,0-1.6,0.3-2.3,0.9c-0.6,0.6-1,1.4-1,2.2c0,0.9,0.3,1.7,1,2.3C13.9,43.2,14.7,43.5,15.5,43.5z"/>
</svg>
