<?xml version="1.0" encoding="utf-8"?>
<!-- Generator: Adobe Illustrator 26.3.1, SVG Export Plug-In . SVG Version: 6.00 Build 0)  -->
<svg version="1.1" id="Слой_1" xmlns="http://www.w3.org/2000/svg" xmlns:xlink="http://www.w3.org/1999/xlink" x="0px" y="0px"
	 viewBox="0 0 48 48" style="enable-background:new 0 0 48 48;" xml:space="preserve">
<path d="M21.5,14h5.1V9.2h-5.1V14z M24,24.8c-2.1,0-4.2-0.3-6.3-1c-2-0.7-3.9-1.6-5.7-2.8v-4.2c0-0.8,0.3-1.4,0.8-1.9
	s1.2-0.8,1.9-0.8h5.2V9c0-0.4,0.1-0.7,0.4-1s0.6-0.4,1-0.4h5.3c0.4,0,0.7,0.1,1,0.4S28,8.6,28,9v5h5.1c0.8,0,1.4,0.3,1.9,0.8
	s0.8,1.2,0.8,1.9V21c-1.8,1.2-3.7,2.1-5.7,2.8C28.2,24.4,26.1,24.8,24,24.8z M14.8,42v-2.1c-0.8,0-1.4-0.3-1.9-0.8s-0.8-1.2-0.8-2
	V22.6c1.7,1.1,3.5,2,5.4,2.6s3.9,1,5.9,1.1v2h1.5v-2c2-0.1,4-0.4,5.9-1.1c1.9-0.6,3.7-1.5,5.4-2.6v14.5c0,0.8-0.3,1.4-0.8,2
	c-0.5,0.5-1.2,0.8-1.9,0.8V42H32v-2.1H16.3V42H14.8z"/>
</svg>
