<?xml version="1.0" encoding="utf-8"?>
<!-- Generator: Adobe Illustrator 26.3.1, SVG Export Plug-In . SVG Version: 6.00 Build 0)  -->
<svg version="1.1" id="Слой_1" xmlns="http://www.w3.org/2000/svg" xmlns:xlink="http://www.w3.org/1999/xlink" x="0px" y="0px"
	 viewBox="0 0 48 48" style="enable-background:new 0 0 48 48;" xml:space="preserve">
<path d="M23.5,42c-2.4-0.1-4.7-0.6-6.8-1.6s-4-2.2-5.6-3.9c-1.6-1.6-2.8-3.5-3.7-5.7C6.5,28.8,6,26.5,6,24s0.5-4.8,1.4-7
	s2.2-4.1,3.9-5.7c1.6-1.6,3.5-2.9,5.7-3.9C19.2,6.5,21.5,6,24,6c4.7,0,8.8,1.6,12.2,4.7s5.3,7,5.8,11.6h-1.5
	c-0.3-3.1-1.4-5.8-3.2-8.2s-4.2-4.2-7-5.4v0.9c0,1.1-0.4,2.1-1.2,2.9c-0.8,0.8-1.8,1.2-2.9,1.2H22v4.2c0,0.6-0.2,1-0.6,1.4
	s-0.9,0.6-1.5,0.6h-4.1V24h4.4v6.1h-2.3L8,20.2c-0.1,0.6-0.2,1.2-0.3,1.9c-0.1,0.6-0.1,1.3-0.1,1.9c0,4.4,1.5,8.2,4.6,11.4
	s6.8,4.9,11.4,5C23.5,40.4,23.5,42,23.5,42z M42.2,41.3l-7-7c-0.6,0.5-1.3,0.8-2,1.1c-0.7,0.2-1.4,0.4-2.2,0.4c-1.9,0-3.5-0.7-4.8-2
	s-2-2.9-2-4.8s0.7-3.5,2-4.8s2.9-2,4.8-2c1.9,0,3.5,0.7,4.8,2s2,2.9,2,4.8c0,0.7-0.1,1.5-0.4,2.2c-0.3,0.7-0.6,1.4-1.1,2l7,7
	L42.2,41.3z M31,34.2c1.5,0,2.7-0.5,3.7-1.5s1.5-2.2,1.5-3.7s-0.5-2.7-1.5-3.7s-2.2-1.5-3.7-1.5s-2.7,0.5-3.7,1.5s-1.5,2.2-1.5,3.7
	s0.5,2.7,1.5,3.7S29.5,34.2,31,34.2z"/>
</svg>
