<?xml version="1.0" encoding="utf-8"?>
<!-- Generator: Adobe Illustrator 26.3.1, SVG Export Plug-In . SVG Version: 6.00 Build 0)  -->
<svg version="1.1" id="Слой_1" xmlns="http://www.w3.org/2000/svg" xmlns:xlink="http://www.w3.org/1999/xlink" x="0px" y="0px"
	 viewBox="0 0 48 48" style="enable-background:new 0 0 48 48;" xml:space="preserve">
<path d="M14.7,40v-0.6l3.4-3.4H8v-1.5h2v-23H8V10h7.6V7.5h16.8V10H40v1.5h-2v22.9h2V36H29.9l3.4,3.4V40h-1.4l-4-4h-7.7l-4,4H14.7z
	 M24.8,21.1h11.7v-8.2H24.8V21.1z M11.5,21.1h11.7v-8.2H11.5C11.5,12.8,11.5,21.1,11.5,21.1z M24,30.6c0.6,0,1-0.2,1.4-0.5
	c0.4-0.4,0.5-0.8,0.5-1.4c0-0.5-0.2-1-0.5-1.4c-0.4-0.4-0.8-0.6-1.4-0.6c-0.5,0-1,0.2-1.4,0.6S22,28.1,22,28.7s0.2,1,0.6,1.4
	C23,30.4,23.5,30.6,24,30.6z"/>
</svg>
