<?xml version="1.0" encoding="utf-8"?>
<!-- Generator: Adobe Illustrator 26.3.1, SVG Export Plug-In . SVG Version: 6.00 Build 0)  -->
<svg version="1.1" id="Слой_1" xmlns="http://www.w3.org/2000/svg" xmlns:xlink="http://www.w3.org/1999/xlink" x="0px" y="0px"
	 viewBox="0 0 48 48" style="enable-background:new 0 0 48 48;" xml:space="preserve">
<path d="M10,34.5v-25H5V8h6.5v24.9H42v1.5C42,34.5,10,34.5,10,34.5z M12.4,41.8c-0.7,0-1.3-0.2-1.7-0.7C10.2,40.6,10,40,10,39.3
	s0.2-1.3,0.7-1.7c0.5-0.5,1-0.7,1.8-0.7c0.7,0,1.3,0.2,1.8,0.7s0.7,1.1,0.7,1.7c0,0.7-0.2,1.3-0.7,1.7
	C13.7,41.5,13.1,41.8,12.4,41.8z M15.8,28.7v-8.5h8.5v8.5C24.2,28.7,15.8,28.7,15.8,28.7z M29.8,28.7v-8.5h8.5v8.5
	C38.2,28.7,29.8,28.7,29.8,28.7z M39.5,41.8c-0.7,0-1.2-0.2-1.7-0.7s-0.7-1.1-0.7-1.7c0-0.7,0.2-1.3,0.7-1.7c0.5-0.5,1-0.7,1.7-0.7
	s1.3,0.2,1.8,0.7s0.7,1.1,0.7,1.7c0,0.7-0.3,1.3-0.8,1.7S40.2,41.8,39.5,41.8z"/>
</svg>
