<?xml version="1.0" encoding="utf-8"?>
<!-- Generator: Adobe Illustrator 26.3.1, SVG Export Plug-In . SVG Version: 6.00 Build 0)  -->
<svg version="1.1" id="Слой_1" xmlns="http://www.w3.org/2000/svg" xmlns:xlink="http://www.w3.org/1999/xlink" x="0px" y="0px"
	 viewBox="0 0 48 48" style="enable-background:new 0 0 48 48;" xml:space="preserve">
<path d="M5,40.9v-1.5c1-0.1,1.9-0.4,2.9-0.8c0.9-0.4,1.9-0.9,2.8-1.6c1,0.7,2.1,1.3,3.3,1.8c1.1,0.4,2.3,0.6,3.4,0.6
	s2.2-0.2,3.4-0.6c1.2-0.4,2.3-1,3.3-1.7c1.1,0.8,2.2,1.4,3.3,1.8c1.1,0.4,2.2,0.5,3.4,0.5c1.2,0,2.2-0.2,3.3-0.6s2.2-1,3.4-1.8
	c1,0.7,1.9,1.3,2.9,1.6c0.9,0.4,1.8,0.6,2.7,0.7v1.5c-0.8-0.1-1.7-0.3-2.7-0.6s-1.9-0.8-2.9-1.3c-1.2,0.7-2.4,1.3-3.5,1.6
	S31.8,41,30.8,41s-2.1-0.2-3.2-0.5s-2.3-0.9-3.5-1.6c-1.1,0.7-2.2,1.3-3.4,1.6c-1.1,0.3-2.2,0.5-3.3,0.5c-1,0-2.1-0.2-3.3-0.5
	c-1.1-0.3-2.3-0.9-3.4-1.6c-0.9,0.5-1.9,1-2.9,1.3C6.8,40.6,5.9,40.8,5,40.9z M5,33.7V29c0-3.1,0.6-5.9,1.8-8.4
	c1.2-2.6,2.9-4.8,5-6.6c2.1-1.9,4.5-3.3,7.3-4.4S24.8,8,28,8c0.7,0,1.5,0,2.2,0.1s1.4,0.1,2.1,0.2c-0.5,1-0.8,2-1.1,3
	c-0.3,1-0.4,1.9-0.4,2.8c0,2.2,0.8,4.1,2.3,5.7c1.5,1.6,3.4,2.4,5.6,2.4H43v1.5h-4.3c-2.6,0-4.9-1-6.7-2.9s-2.7-4.2-2.7-6.8
	c0-0.7,0.1-1.4,0.3-2.3c0.2-0.9,0.4-1.7,0.7-2.4c-3.4,0.6-6.1,2.1-8.2,4.5s-3.2,5.1-3.2,8.1c0,1.9,0.3,3.5,0.8,4.9s1.2,2.8,2.2,4.2
	c0.4-0.2,0.8-0.4,1.2-0.7c0.4-0.3,0.8-0.5,1.1-0.7c1.1,0.8,2.2,1.4,3.4,1.8c1.2,0.4,2.3,0.6,3.3,0.6s2.1-0.2,3.3-0.7
	c1.2-0.4,2.3-1,3.4-1.8c0.8,0.6,1.7,1.1,2.7,1.5s1.9,0.7,2.9,0.9v1.5c-0.8-0.1-1.7-0.3-2.7-0.7s-1.9-0.8-2.9-1.4
	c-1.2,0.7-2.4,1.3-3.5,1.6s-2.2,0.5-3.2,0.5c-1.1,0-2.2-0.2-3.5-0.6c-1.2-0.4-2.3-0.9-3.2-1.6c-1.1,0.7-2.2,1.3-3.3,1.6
	c-1,0.4-2.2,0.5-3.4,0.6c-1.2,0-2.4-0.2-3.5-0.5s-2.1-0.9-3.2-1.5c-0.9,0.5-1.9,1-2.9,1.3S5.9,33.6,5,33.7z"/>
</svg>
