<?xml version="1.0" encoding="utf-8"?>
<!-- Generator: Adobe Illustrator 26.3.1, SVG Export Plug-In . SVG Version: 6.00 Build 0)  -->
<svg version="1.1" id="Слой_1" xmlns="http://www.w3.org/2000/svg" xmlns:xlink="http://www.w3.org/1999/xlink" x="0px" y="0px"
	 viewBox="0 0 48 48" style="enable-background:new 0 0 48 48;" xml:space="preserve">
<path d="M13,29.5h1.5v-9.4h2.7v-1.5h-6.9v1.5H13V29.5z M19.7,29.5h4.8c0.5,0,1-0.2,1.4-0.6s0.6-0.9,0.6-1.4v-2.2
	c0-0.5-0.2-1-0.6-1.4s-0.9-0.5-1.4-0.5h-2.6c-0.2,0-0.3-0.1-0.4-0.2s-0.2-0.3-0.2-0.4v-2c0-0.2,0.1-0.3,0.2-0.4s0.3-0.2,0.4-0.2h4.6
	v-1.5h-4.8c-0.6,0-1,0.2-1.4,0.6s-0.6,0.9-0.6,1.4v2.2c0,0.6,0.2,1,0.6,1.4s0.9,0.6,1.4,0.6h2.6c0.2,0,0.3,0.1,0.4,0.2
	s0.2,0.3,0.2,0.4v1.9c0,0.2-0.1,0.3-0.2,0.4S24.4,28,24.3,28h-4.6C19.7,27.9,19.7,29.5,19.7,29.5z M32,29.5h2.3l3.2-10.9H36
	l-2.8,9.6l-2.6-9.6H29L32,29.5z M8.8,38c-0.8,0-1.4-0.3-2-0.8C6.3,36.7,6,36,6,35.2V12.8c0-0.8,0.3-1.4,0.8-2C7.3,10.3,8,10,8.8,10
	h30.5c0.8,0,1.4,0.3,2,0.8c0.5,0.5,0.8,1.2,0.8,2v22.5c0,0.8-0.3,1.4-0.8,2c-0.5,0.5-1.2,0.8-2,0.8L8.8,38L8.8,38z"/>
</svg>
