<?xml version="1.0" encoding="utf-8"?>
<!-- Generator: Adobe Illustrator 26.3.1, SVG Export Plug-In . SVG Version: 6.00 Build 0)  -->
<svg version="1.1" id="Слой_1" xmlns="http://www.w3.org/2000/svg" xmlns:xlink="http://www.w3.org/1999/xlink" x="0px" y="0px"
	 viewBox="0 0 48 48" style="enable-background:new 0 0 48 48;" xml:space="preserve">
<path d="M13.2,40V29.2c0-0.7,0.3-1.4,0.8-1.9s1.2-0.8,1.9-0.8h16c0.4,0,0.7-0.1,0.9-0.3c0.2-0.2,0.3-0.5,0.3-0.9V11l-4.8,4.8
	l-1.1-1.1L34,8l6.7,6.7l-1.1,1.1L34.8,11v14.3c0,0.7-0.3,1.4-0.8,1.9c-0.6,0.5-1.3,0.8-2,0.8H16c-0.4,0-0.7,0.1-0.9,0.3
	c-0.2,0.2-0.3,0.5-0.3,0.9V40H13.2z"/>
</svg>
