<?xml version="1.0" encoding="utf-8"?>
<!-- Generator: Adobe Illustrator 26.3.1, SVG Export Plug-In . SVG Version: 6.00 Build 0)  -->
<svg version="1.1" id="Слой_1" xmlns="http://www.w3.org/2000/svg" xmlns:xlink="http://www.w3.org/1999/xlink" x="0px" y="0px"
	 viewBox="0 0 48 48" style="enable-background:new 0 0 48 48;" xml:space="preserve">
<path d="M8.8,38c-0.8,0-1.4-0.3-2-0.8C6.3,36.6,6,36,6,35.2V12.8c0-0.8,0.3-1.4,0.8-2C7.4,10.3,8,10,8.8,10h30.5
	c0.8,0,1.4,0.3,2,0.8c0.5,0.5,0.8,1.2,0.8,2v22.5c0,0.8-0.3,1.4-0.8,2c-0.5,0.5-1.2,0.8-2,0.8L8.8,38L8.8,38z M23.2,31.5h1.5
	l0.1-1.4c0.8-0.1,1.5-0.4,2.2-0.8s1.3-0.9,1.8-1.4l1.3,0.7l0.9-1.2l-1.3-1.1c0.2-0.8,0.3-1.6,0.3-2.4s-0.1-1.6-0.3-2.4l1.3-1.1
	l-0.9-1.2l-1.3,0.7c-0.5-0.6-1.1-1-1.8-1.4c-0.7-0.4-1.4-0.6-2.2-0.8l-0.1-1.4h-1.5l-0.1,1.4c-0.8,0.1-1.5,0.4-2.1,0.8
	c-0.7,0.4-1.3,0.9-1.8,1.4l-1.3-0.7L17,20.6l1.3,1.1C18.1,22.4,18,23.2,18,24s0.1,1.6,0.3,2.4l-1.3,1l0.9,1.2l1.3-0.7
	c0.5,0.6,1.1,1,1.8,1.4c0.7,0.4,1.4,0.6,2.1,0.8C23.2,30.1,23.2,31.5,23.2,31.5z M24,28.5c-1.3,0-2.3-0.4-3.2-1.3
	c-0.9-0.9-1.3-1.9-1.3-3.2c0-1.3,0.4-2.3,1.3-3.2c0.9-0.9,1.9-1.3,3.2-1.3s2.3,0.4,3.2,1.3c0.9,0.9,1.3,1.9,1.3,3.2
	s-0.4,2.3-1.3,3.2C26.3,28,25.3,28.5,24,28.5z"/>
</svg>
