<?xml version="1.0" encoding="utf-8"?>
<!-- Generator: Adobe Illustrator 26.3.1, SVG Export Plug-In . SVG Version: 6.00 Build 0)  -->
<svg version="1.1" id="Слой_1" xmlns="http://www.w3.org/2000/svg" xmlns:xlink="http://www.w3.org/1999/xlink" x="0px" y="0px"
	 viewBox="0 0 48 48" style="enable-background:new 0 0 48 48;" xml:space="preserve">
<path d="M17.4,28.6h13.2v-0.3c0-1.1-0.6-1.9-1.8-2.5c-1.2-0.6-2.8-0.9-4.8-0.9s-3.6,0.3-4.8,0.9c-1.2,0.6-1.8,1.4-1.8,2.5
	C17.4,28.3,17.4,28.6,17.4,28.6z M24,21.1c0.8,0,1.5-0.3,2-0.8s0.8-1.2,0.8-2s-0.3-1.5-0.8-2c-0.5-0.6-1.2-0.8-2-0.8s-1.5,0.3-2,0.8
	s-0.8,1.2-0.8,2s0.3,1.5,0.8,2C22.5,20.8,23.2,21.1,24,21.1z M18.2,40v-4H8.8c-0.8,0-1.4-0.3-2-0.8C6.3,34.7,6,34,6,33.2V10.8
	c0-0.8,0.3-1.4,0.8-2C7.3,8.3,8,8,8.8,8h30.5c0.8,0,1.4,0.3,2,0.8c0.5,0.5,0.8,1.2,0.8,2v22.5c0,0.8-0.3,1.4-0.8,2
	c-0.5,0.5-1.2,0.8-2,0.8h-9.5v4L18.2,40L18.2,40z"/>
</svg>
