<?xml version="1.0" encoding="utf-8"?>
<!-- Generator: Adobe Illustrator 26.3.1, SVG Export Plug-In . SVG Version: 6.00 Build 0)  -->
<svg version="1.1" id="Слой_1" xmlns="http://www.w3.org/2000/svg" xmlns:xlink="http://www.w3.org/1999/xlink" x="0px" y="0px"
	 viewBox="0 0 48 48" style="enable-background:new 0 0 48 48;" xml:space="preserve">
<path d="M30.2,42c-0.5,0-0.9-0.2-1.2-0.5c-0.3-0.3-0.5-0.8-0.5-1.2v-3.9H42v3.9c0,0.5-0.2,0.9-0.5,1.2S40.7,42,40.3,42
	C40.2,42,30.2,42,30.2,42z M8.8,38c-0.8,0-1.4-0.3-2-0.8C6.3,36.7,6,36,6,35.2V12.8c0-0.8,0.3-1.4,0.8-2C7.3,10.3,8,10,8.8,10h30.5
	c0.8,0,1.4,0.3,2,0.8c0.5,0.5,0.8,1.2,0.8,2v10.4h-1.5V12.8c0-0.3-0.1-0.6-0.4-0.8c-0.3-0.3-0.5-0.4-0.8-0.4H24.8v11.7
	c-0.4,0.2-0.8,0.5-1.1,1c-0.3,0.4-0.4,0.9-0.4,1.5V38H8.8z M28.4,35c-0.5,0-1-0.2-1.3-0.6c-0.3-0.4-0.5-0.9-0.3-1.5l0.8-4
	c0.1-0.4,0.3-0.8,0.6-1c0.3-0.3,0.7-0.4,1.1-0.4h12c0.4,0,0.8,0.1,1.1,0.4s0.5,0.6,0.6,1l0.8,4c0.1,0.6,0,1-0.3,1.5
	c-0.3,0.4-0.8,0.6-1.3,0.6H28.4z M10.5,31.1h9.7v-1.5h-9.7C10.5,29.5,10.5,31.1,10.5,31.1z M10.5,24.9h9.7v-1.5h-9.7
	C10.5,23.3,10.5,24.9,10.5,24.9z M10.5,18.6h9.7v-1.5h-9.7C10.5,17.1,10.5,18.6,10.5,18.6z M27.8,18.6v-1.5h9.7v1.5H27.8z"/>
</svg>
