<?xml version="1.0" encoding="utf-8"?>
<!-- Generator: Adobe Illustrator 26.3.1, SVG Export Plug-In . SVG Version: 6.00 Build 0)  -->
<svg version="1.1" id="Слой_1" xmlns="http://www.w3.org/2000/svg" xmlns:xlink="http://www.w3.org/1999/xlink" x="0px" y="0px"
	 viewBox="0 0 48 48" style="enable-background:new 0 0 48 48;" xml:space="preserve">
<path d="M34.7,41.9c-0.5,0-1.1-0.1-1.6-0.3s-1-0.5-1.4-0.9c-0.3-0.3-0.6-0.6-0.8-0.7c-0.2-0.1-0.5-0.2-0.8-0.2h-4.4
	c-0.9,0-1.6-0.3-2.1-0.9c-0.6-0.6-0.9-1.3-0.9-2.1c0-0.5,0.1-0.9,0.3-1.3c0.2-0.4,0.5-0.8,0.9-1.1l2-1.7c0.2-0.2,0.4-0.4,0.6-0.7
	c0.1-0.3,0.2-0.5,0.2-0.8v-11c0-0.2,0-0.4-0.1-0.6s-0.1-0.4-0.3-0.6l-3.1-4.4c-0.2-0.3-0.3-0.5-0.4-0.8s-0.1-0.6-0.1-0.9
	c0-0.8,0.3-1.5,0.9-2.1c0.6-0.6,1.3-0.9,2.1-0.9h10c0.8,0,1.6,0.3,2.2,0.9c0.6,0.6,0.9,1.3,0.9,2.1c0,0.3-0.1,0.6-0.2,0.9
	c-0.1,0.3-0.3,0.6-0.4,0.9L35,19c-0.1,0.2-0.2,0.3-0.2,0.5c-0.1,0.2-0.1,0.4-0.1,0.6v11.2c0,0.3,0.1,0.5,0.2,0.8
	c0.1,0.2,0.3,0.4,0.4,0.7l1.9,2c0.5,0.4,0.8,0.9,1.1,1.5c0.3,0.5,0.4,1.1,0.4,1.7c0,1.1-0.4,2.1-1.2,2.9
	C36.7,41.5,35.8,41.9,34.7,41.9z M18.1,39.5c-0.2,0.1-0.4,0.2-0.7,0.3c-0.2,0.1-0.5,0.1-0.7,0.1c-0.9,0-1.7-0.3-2.3-1
	c-0.7-0.6-1-1.4-1-2.3V18.7c0-0.3,0-0.6-0.1-0.8c-0.1-0.3-0.1-0.5-0.3-0.7l-3.3-7C9.6,9.9,9.5,9.7,9.4,9.5c0-0.2-0.1-0.4-0.1-0.6
	c0-0.8,0.3-1.5,0.9-2.1c0.6-0.6,1.3-0.9,2.1-0.9h7v3.5c0,0.1,0,0.2,0.1,0.3s0.2,0.1,0.3,0.1h1.5c0.9,0,1.6,0.3,2.1,0.9
	c0.6,0.6,0.9,1.3,0.9,2.1c0,0.3,0,0.6-0.1,0.9c-0.1,0.3-0.2,0.6-0.4,0.9L22,16.9c-0.2,0.3-0.4,0.6-0.5,1s-0.2,0.7-0.2,1.1v9
	c0,0.2,0,0.4,0,0.5c0,0.2,0.1,0.3,0.1,0.5c0.1,0.2,0.1,0.3,0.2,0.5s0.2,0.3,0.2,0.5l1.9,2.9c0.2,0.3,0.3,0.5,0.4,0.8
	s0.1,0.6,0.1,0.9c0,0.5-0.1,1.1-0.4,1.5c-0.3,0.5-0.7,0.8-1.2,1.1C22.7,37.2,18.1,39.5,18.1,39.5z"/>
</svg>
