<?xml version="1.0" encoding="utf-8"?>
<!-- Generator: Adobe Illustrator 26.3.1, SVG Export Plug-In . SVG Version: 6.00 Build 0)  -->
<svg version="1.1" id="Слой_1" xmlns="http://www.w3.org/2000/svg" xmlns:xlink="http://www.w3.org/1999/xlink" x="0px" y="0px"
	 viewBox="0 0 48 48" style="enable-background:new 0 0 48 48;" xml:space="preserve">
<path d="M5.4,24.1l10-13.6c2.6,1.4,4.8,3.3,6.9,5.6c2,2.3,3.4,4.6,4.1,7c1.4-1.8,2.8-3.1,4.2-3.9s3.6-1.6,6.6-2.4
	c1.2-0.3,2.3-0.6,3.2-1s1.8-0.7,2.6-1v14.7l-14.6,9.2c-0.5,0.3-1.1,0.6-1.7,0.8s-1.2,0.3-1.9,0.3c-0.8,0-1.7-0.2-2.5-0.5
	s-1.5-0.8-2.2-1.4L5.4,24.1z M26.1,33.9c0.4,0,0.7-0.1,0.9-0.4c0.3-0.3,0.4-0.6,0.4-0.9c0-0.2-0.2-0.5-0.6-1.1l7.3-4.6
	c0,0.3,0.2,0.6,0.5,0.8c0.3,0.2,0.6,0.3,0.9,0.3c0.4,0,0.7-0.1,0.9-0.4c0.3-0.3,0.4-0.6,0.4-0.9c0-0.4-0.1-0.7-0.4-1
	c-0.3-0.3-0.6-0.4-1-0.3h-0.2h-0.1c0.1-0.1,0.2-0.3,0.2-0.4s0.1-0.3,0.1-0.5c0-0.4-0.1-0.7-0.4-0.9c-0.3-0.3-0.6-0.4-0.9-0.4
	c-0.3,0-0.7,0.1-0.9,0.4c-0.3,0.3-0.4,0.6-0.4,0.9c0,0.1,0.2,0.5,0.7,1.2L26,30.3c-0.1-0.3-0.2-0.6-0.5-0.8
	c-0.2-0.2-0.5-0.3-0.9-0.3c-0.3,0-0.7,0.1-0.9,0.4c-0.3,0.3-0.4,0.6-0.4,0.9c0,0.4,0.1,0.7,0.4,1s0.6,0.4,1,0.4H25h0.1
	c-0.1,0.1-0.2,0.2-0.2,0.4c0,0.1-0.1,0.3-0.1,0.4c0,0.3,0.1,0.7,0.4,0.9C25.4,33.8,25.7,33.9,26.1,33.9z"/>
</svg>
