<?xml version="1.0" encoding="utf-8"?>
<!-- Generator: Adobe Illustrator 26.3.1, SVG Export Plug-In . SVG Version: 6.00 Build 0)  -->
<svg version="1.1" id="Слой_1" xmlns="http://www.w3.org/2000/svg" xmlns:xlink="http://www.w3.org/1999/xlink" x="0px" y="0px"
	 viewBox="0 0 48 48" style="enable-background:new 0 0 48 48;" xml:space="preserve">
<path d="M24,43c-0.2,0-0.3,0-0.4-0.1s-0.2-0.2-0.3-0.4l-9.8-28.7l5.6,1.3l4.1-2.9V6.6c0-1,0.4-1.8,1.1-2.5s1.6-1,2.7-1s2,0.3,2.7,1
	s1.1,1.5,1.1,2.5v1h-1.5v-1c0-0.6-0.2-1.2-0.7-1.6c-0.4-0.4-1-0.6-1.6-0.6s-1.1,0.2-1.6,0.7C25,5.5,24.8,6,24.8,6.6v5.7l4.1,2.9
	l5.6-1.3l-9.8,28.6c-0.1,0.2-0.1,0.3-0.3,0.4C24.3,43,24.2,43,24,43z M24.8,37.8L32.1,16l-3.5,0.9l-3.8-2.7
	C24.8,14.1,24.8,37.8,24.8,37.8z M23.2,37.8V14.1l-3.8,2.7l-3.6-1C15.8,15.9,23.2,37.8,23.2,37.8z"/>
</svg>
