<?xml version="1.0" encoding="utf-8"?>
<!-- Generator: Adobe Illustrator 26.3.1, SVG Export Plug-In . SVG Version: 6.00 Build 0)  -->
<svg version="1.1" id="Слой_1" xmlns="http://www.w3.org/2000/svg" xmlns:xlink="http://www.w3.org/1999/xlink" x="0px" y="0px"
	 viewBox="0 0 48 48" style="enable-background:new 0 0 48 48;" xml:space="preserve">
<path d="M14.3,36v-1.5h15.1c2.2,0,4-0.8,5.5-2.3s2.3-3.4,2.3-5.6s-0.8-4-2.3-5.5s-3.4-2.3-5.5-2.3H13l6.2,6.2L18,26.1l-8-8l8-8
	l1.1,1.1L13,17.3h16.4c2.6,0,4.8,0.9,6.7,2.7c1.8,1.8,2.8,4,2.8,6.6s-0.9,4.8-2.8,6.7C34.2,35.1,32,36,29.4,36H14.3z"/>
</svg>
