<?xml version="1.0" encoding="utf-8"?>
<!-- Generator: Adobe Illustrator 26.3.1, SVG Export Plug-In . SVG Version: 6.00 Build 0)  -->
<svg version="1.1" id="Слой_1" xmlns="http://www.w3.org/2000/svg" xmlns:xlink="http://www.w3.org/1999/xlink" x="0px" y="0px"
	 viewBox="0 0 48 48" style="enable-background:new 0 0 48 48;" xml:space="preserve">
<path d="M26,23.1l1.1-1.1L18,12.8h6.9v-1.5h-9.5v9.5h1.5v-6.9L26,23.1z M29.8,42V29.8H38V42H29.8z M12.8,42c-0.8,0-1.4-0.3-2-0.8
	c-0.5-0.5-0.8-1.2-0.8-2V8.8c0-0.8,0.3-1.4,0.8-2C11.3,6.3,12,6,12.8,6h22.5c0.8,0,1.4,0.3,2,0.8C37.7,7.3,38,8,38,8.8v16.8H25.5V42
	H12.8z"/>
</svg>
