<?xml version="1.0" encoding="utf-8"?>
<!-- Generator: Adobe Illustrator 26.3.1, SVG Export Plug-In . SVG Version: 6.00 Build 0)  -->
<svg version="1.1" id="Слой_1" xmlns="http://www.w3.org/2000/svg" xmlns:xlink="http://www.w3.org/1999/xlink" x="0px" y="0px"
	 viewBox="0 0 48 48" style="enable-background:new 0 0 48 48;" xml:space="preserve">
<path d="M17.7,45.1L16.6,44l7.4-7.4l7.4,7.4l-1.1,1.1L24,38.8C24.1,38.8,17.7,45.1,17.7,45.1z M17.7,35.1L16.6,34l7.4-7.4l7.4,7.4
	l-1.1,1.1L24,28.8L17.7,35.1z M24,21.4L16.6,14l1.1-1.1l6.3,6.3l6.4-6.3l1.1,1.1C31.5,13.9,24,21.4,24,21.4z M24,11.4L16.6,4
	l1.1-1.1L24,9.1l6.4-6.3l1.1,1.1L24,11.4z"/>
</svg>
