<?xml version="1.0" encoding="utf-8"?>
<!-- Generator: Adobe Illustrator 26.3.1, SVG Export Plug-In . SVG Version: 6.00 Build 0)  -->
<svg version="1.1" id="Слой_1" xmlns="http://www.w3.org/2000/svg" xmlns:xlink="http://www.w3.org/1999/xlink" x="0px" y="0px"
	 viewBox="0 0 48 48" style="enable-background:new 0 0 48 48;" xml:space="preserve">
<path d="M6,36V12h36v24H6z M11,28h5.2c0.4,0,0.8-0.2,1.1-0.5c0.3-0.3,0.5-0.7,0.5-1.1v-3.3c0-0.4-0.2-0.7-0.5-1s-0.7-0.4-1.1-0.4
	h-3.7v-3.2h5.2V17H11v6.3h5.2v3.2H11V28z M23.2,30.8h13.6v-0.3c0-1.2-0.6-2.1-1.8-2.7s-2.9-1-5-1s-3.8,0.3-5,1
	c-1.2,0.6-1.8,1.5-1.8,2.7C23.2,30.5,23.2,30.8,23.2,30.8z M30,23.2c0.8,0,1.6-0.3,2.1-0.9c0.6-0.6,0.9-1.3,0.9-2.1
	c0-0.8-0.3-1.6-0.9-2.1c-0.6-0.6-1.3-0.9-2.1-0.9s-1.6,0.3-2.1,0.9c-0.6,0.6-0.9,1.3-0.9,2.1c0,0.8,0.3,1.5,0.9,2.1
	C28.4,22.9,29.2,23.2,30,23.2z"/>
</svg>
