<?xml version="1.0" encoding="utf-8"?>
<!-- Generator: Adobe Illustrator 26.3.1, SVG Export Plug-In . SVG Version: 6.00 Build 0)  -->
<svg version="1.1" id="Слой_1" xmlns="http://www.w3.org/2000/svg" xmlns:xlink="http://www.w3.org/1999/xlink" x="0px" y="0px"
	 viewBox="0 0 48 48" style="enable-background:new 0 0 48 48;" xml:space="preserve">
<path d="M8.8,38c-0.8,0-1.4-0.3-2-0.8C6.3,36.7,6,36,6,35.2V12.8c0-0.8,0.3-1.4,0.8-2C7.3,10.3,8,10,8.8,10h30.5
	c0.8,0,1.4,0.3,2,0.8c0.5,0.5,0.8,1.2,0.8,2v22.5c0,0.8-0.3,1.4-0.8,2c-0.5,0.5-1.2,0.8-2,0.8L8.8,38L8.8,38z M24,24
	c-0.5,0-0.9-0.2-1.2-0.5c-0.3-0.3-0.5-0.7-0.5-1.2s0.2-0.9,0.5-1.2c0.3-0.3,0.7-0.5,1.2-0.5s0.9,0.2,1.2,0.5
	c0.3,0.3,0.5,0.7,0.5,1.2s-0.2,0.9-0.5,1.2C24.9,23.8,24.5,24,24,24z M24,32.5c2.3-1.9,4-3.7,5.1-5.4c1.1-1.7,1.7-3.2,1.7-4.6
	c0-2.2-0.7-3.9-2.1-5.1c-1.4-1.3-3-1.9-4.8-1.9s-3.4,0.6-4.8,1.9s-2.1,3-2.1,5.1c0,1.4,0.6,2.9,1.7,4.6C20,28.8,21.7,30.6,24,32.5z"
	/>
</svg>
