<?xml version="1.0" encoding="utf-8"?>
<!-- Generator: Adobe Illustrator 26.3.1, SVG Export Plug-In . SVG Version: 6.00 Build 0)  -->
<svg version="1.1" id="Слой_1" xmlns="http://www.w3.org/2000/svg" xmlns:xlink="http://www.w3.org/1999/xlink" x="0px" y="0px"
	 viewBox="0 0 48 48" style="enable-background:new 0 0 48 48;" xml:space="preserve">
<path d="M10,23.8v-1.5h13.9v1.5H10z M24,42c-2.4,0-4.7-0.4-6.9-1.3c-2.2-0.9-4.2-2.2-5.8-3.9l1.1-1.1c1.7,1.5,3.5,2.7,5.4,3.6
	c1.9,0.8,4,1.2,6.3,1.2c4.7,0,8.6-1.6,11.7-4.7c3.1-3.1,4.7-7.1,4.7-11.7s-1.6-8.6-4.7-11.7C32.6,9.1,28.7,7.5,24,7.5V6
	c2.5,0,4.9,0.5,7.1,1.4s4.1,2.2,5.7,3.8s2.9,3.5,3.8,5.7c0.9,2.2,1.4,4.5,1.4,7.1s-0.5,4.9-1.4,7.1s-2.2,4.1-3.8,5.7
	s-3.5,2.9-5.7,3.8S26.5,42,24,42z"/>
</svg>
