<?xml version="1.0" encoding="utf-8"?>
<!-- Generator: Adobe Illustrator 26.3.1, SVG Export Plug-In . SVG Version: 6.00 Build 0)  -->
<svg version="1.1" id="Слой_1" xmlns="http://www.w3.org/2000/svg" xmlns:xlink="http://www.w3.org/1999/xlink" x="0px" y="0px"
	 viewBox="0 0 48 48" style="enable-background:new 0 0 48 48;" xml:space="preserve">
<path d="M32.1,41.4c-2.2,0-4.1-0.8-5.6-2.3s-2.3-3.4-2.3-5.6c0-2.2,0.8-4,2.3-5.6c1.5-1.5,3.4-2.3,5.6-2.3s4,0.8,5.6,2.3
	c1.5,1.5,2.3,3.4,2.3,5.6s-0.8,4.1-2.3,5.6C36.1,40.6,34.2,41.4,32.1,41.4z M32.1,39.3c0.3,0,0.6-0.1,0.8-0.3s0.3-0.5,0.3-0.8
	s-0.1-0.6-0.3-0.8s-0.5-0.3-0.8-0.3s-0.6,0.1-0.8,0.3c-0.2,0.2-0.3,0.5-0.3,0.8s0.1,0.6,0.3,0.8C31.5,39.2,31.7,39.3,32.1,39.3z
	 M31.3,35.6h1.6v-0.4c0-0.4,0.1-0.8,0.3-1c0.2-0.3,0.5-0.5,0.7-0.8c0.5-0.4,0.9-0.8,1.2-1.2c0.3-0.4,0.4-1,0.4-1.6
	c0-0.9-0.3-1.7-1-2.3c-0.6-0.6-1.5-0.9-2.4-0.9c-0.8,0-1.5,0.2-2.1,0.7c-0.7,0.5-1.1,1.1-1.4,1.9l1.5,0.5c0.1-0.4,0.4-0.8,0.8-1.1
	c0.4-0.3,0.8-0.5,1.3-0.5s1,0.1,1.3,0.4S34,30,34,30.6c0,0.4-0.1,0.7-0.4,1c-0.2,0.3-0.5,0.6-0.8,0.8c-0.2,0.2-0.4,0.4-0.6,0.7
	c-0.2,0.2-0.4,0.5-0.6,0.7c-0.1,0.1-0.2,0.3-0.2,0.6c0,0.2-0.1,0.4-0.1,0.7C31.3,35,31.3,35.6,31.3,35.6z M26.7,15.2h7.8l-7.8-7.7
	l7.8,7.7l-7.8-7.7V15.2z M10.8,42c-0.7,0-1.4-0.3-1.9-0.8C8.3,40.6,8,40,8,39.2V8.8c0-0.8,0.3-1.4,0.8-2C9.4,6.3,10,6,10.8,6h16.7
	l8.5,8.5V22c-0.6-0.3-1.3-0.5-1.9-0.6c-0.7-0.1-1.3-0.2-2-0.2c-1.7,0-3.3,0.3-4.8,1s-2.7,1.6-3.8,2.7H15v1.5h7c-0.6,1-1.2,2-1.5,3.1
	c-0.4,1.1-0.6,2.3-0.6,3.5H15v1.5h4.9c0.1,1.4,0.5,2.7,1.1,3.9s1.4,2.3,2.3,3.3C23.4,42,10.8,42,10.8,42z"/>
</svg>
