<?xml version="1.0" encoding="utf-8"?>
<!-- Generator: Adobe Illustrator 26.3.1, SVG Export Plug-In . SVG Version: 6.00 Build 0)  -->
<svg version="1.1" id="Слой_1" xmlns="http://www.w3.org/2000/svg" xmlns:xlink="http://www.w3.org/1999/xlink" x="0px" y="0px"
	 viewBox="0 0 48 48" style="enable-background:new 0 0 48 48;" xml:space="preserve">
<path d="M21.5,36.3c-0.7,0-1.3,0-1.8-0.1S19,35.9,19,35.5c0-0.5,0.2-0.9,0.7-1.2s1.1-0.5,1.8-0.5s1.3,0.2,1.8,0.5S24,35,24,35.5
	c0,0.4-0.2,0.7-0.7,0.7C22.8,36.3,22.2,36.3,21.5,36.3z M35.5,40c-0.7,0-1.3,0-1.8-0.1S33,39.6,33,39.2c0-0.5,0.2-0.9,0.7-1.2
	s1.1-0.5,1.8-0.5s1.3,0.2,1.8,0.5s0.7,0.7,0.7,1.2c0,0.4-0.2,0.7-0.7,0.7C36.8,40,36.2,40,35.5,40z M26.9,40c-0.7,0-1.3,0-1.8-0.1
	s-0.7-0.3-0.7-0.7c0-0.5,0.2-0.9,0.7-1.2s1.1-0.5,1.8-0.5c0.7,0,1.3,0.2,1.8,0.5s0.7,0.7,0.7,1.2c0,0.4-0.2,0.7-0.7,0.7
	C28.2,40,27.6,40,26.9,40z M12.5,40c-0.7,0-1.3,0-1.8-0.1S10,39.6,10,39.2c0-0.5,0.2-0.9,0.7-1.2s1.1-0.5,1.8-0.5s1.3,0.2,1.8,0.5
	s0.7,0.7,0.7,1.2c0,0.4-0.2,0.7-0.7,0.7C13.8,40,13.2,40,12.5,40z M19.4,42c-0.7,0-1.3,0-1.8-0.1s-0.7-0.3-0.7-0.7
	c0-0.5,0.2-0.9,0.7-1.2s1.1-0.5,1.8-0.5c0.7,0,1.3,0.2,1.8,0.5s0.7,0.7,0.7,1.2c0,0.4-0.2,0.7-0.7,0.7C20.7,42,20.1,42,19.4,42z
	 M9.5,29.9v3.3c0,0.2-0.1,0.4-0.2,0.5C9.2,33.9,9,34,8.8,34s-0.4-0.1-0.5-0.2C8.1,33.6,8,33.4,8,33.2V18.5l4-11.7
	c0.1-0.3,0.2-0.5,0.4-0.6C12.6,6.1,12.9,6,13.2,6H35c0.3,0,0.5,0.1,0.7,0.2s0.3,0.3,0.4,0.6l4,11.7v14.8c0,0.2-0.1,0.4-0.2,0.5
	c-0.1,0.1-0.3,0.2-0.5,0.2l0,0c-0.2,0-0.4-0.1-0.5-0.2c-0.1-0.1-0.2-0.3-0.2-0.5V30C38.5,29.9,9.5,29.9,9.5,29.9z M10.2,16.9h27.7
	l-3.2-9.4H13.4L10.2,16.9z M14.5,25.5c0.6,0,1.1-0.2,1.5-0.6s0.6-0.9,0.6-1.5s-0.2-1.1-0.6-1.5s-0.9-0.6-1.5-0.6s-1.1,0.2-1.5,0.6
	s-0.6,0.9-0.6,1.5s0.2,1.1,0.6,1.5C13.4,25.3,13.9,25.5,14.5,25.5z M33.5,25.5c0.6,0,1.1-0.2,1.5-0.6s0.6-0.9,0.6-1.5
	s-0.2-1.1-0.6-1.5c-0.4-0.4-0.9-0.6-1.5-0.6s-1.1,0.2-1.5,0.6c-0.4,0.4-0.6,0.9-0.6,1.5s0.2,1.1,0.6,1.5
	C32.5,25.3,33,25.5,33.5,25.5z"/>
</svg>
