<?xml version="1.0" encoding="utf-8"?>
<!-- Generator: Adobe Illustrator 26.3.1, SVG Export Plug-In . SVG Version: 6.00 Build 0)  -->
<svg version="1.1" id="Слой_1" xmlns="http://www.w3.org/2000/svg" xmlns:xlink="http://www.w3.org/1999/xlink" x="0px" y="0px"
	 viewBox="0 0 48 48" style="enable-background:new 0 0 48 48;" xml:space="preserve">
<path d="M42.5,44.8l-6.9-6.9c-1.6,1.3-3.4,2.4-5.3,3.1c-1.9,0.7-4,1.1-6.3,1.1c-2.5,0-4.8-0.5-7-1.4s-4.1-2.2-5.7-3.8
	s-2.9-3.5-3.8-5.7S6,26.5,6,24c0-2.2,0.4-4.3,1.1-6.3c0.7-1.9,1.8-3.7,3.1-5.3L3.8,6l1.1-1.1l38.8,38.8
	C43.6,43.6,42.5,44.8,42.5,44.8z M39,34L28.9,23.9l4.9-5l-1.2-1.2l-5,5L14,9c1.4-0.9,3-1.7,4.7-2.2C20.3,6.3,22.1,6,24,6
	c2.5,0,4.8,0.5,7,1.4s4.1,2.2,5.7,3.8c1.6,1.6,2.9,3.5,3.8,5.7c0.9,2.2,1.4,4.5,1.4,7c0,1.9-0.3,3.7-0.8,5.4
	C40.7,31.1,40,32.6,39,34z M21.1,31.8l4.2-4.2l-1.2-1.2l-3.1,3l-5.8-5.8l-1.1,1.2L21.1,31.8z"/>
</svg>
