<?xml version="1.0" encoding="utf-8"?>
<!-- Generator: Adobe Illustrator 26.3.1, SVG Export Plug-In . SVG Version: 6.00 Build 0)  -->
<svg version="1.1" id="Слой_1" xmlns="http://www.w3.org/2000/svg" xmlns:xlink="http://www.w3.org/1999/xlink" x="0px" y="0px"
	 viewBox="0 0 48 48" style="enable-background:new 0 0 48 48;" xml:space="preserve">
<path d="M24,23.7l16.5-10.8l-0.6-1.3L24,21.8L8.2,11.5l-0.6,1.3L24,23.7z M38.3,44c-2.1,0-3.9-0.7-5.4-2.2s-2.3-3.3-2.3-5.4
	c0-2.1,0.8-4,2.3-5.5s3.3-2.2,5.4-2.2c2.1,0,3.9,0.7,5.4,2.2s2.3,3.3,2.3,5.5c0,2.1-0.8,4-2.3,5.4C42.2,43.3,40.4,44,38.3,44z
	 M33.8,37h9.1v-1.5h-9.1C33.8,35.5,33.8,37,33.8,37z M8.8,38c-0.7,0-1.4-0.3-1.9-0.8C6.3,36.6,6,36,6,35.2V12.8
	c0-0.7,0.3-1.4,0.8-1.9C7.4,10.3,8,10,8.8,10h30.5c0.7,0,1.4,0.3,1.9,0.8c0.6,0.6,0.8,1.2,0.8,1.9v12.9c-0.6-0.2-1.2-0.4-1.8-0.5
	S39,25,38.3,25c-3.1,0-5.8,1.1-8,3.3S27,33.2,27,36.4c0,0.2,0,0.5,0,0.8s0.1,0.5,0.1,0.8C27.2,38,8.8,38,8.8,38z"/>
</svg>
