<?xml version="1.0" encoding="utf-8"?>
<!-- Generator: Adobe Illustrator 26.3.1, SVG Export Plug-In . SVG Version: 6.00 Build 0)  -->
<svg version="1.1" id="Слой_1" xmlns="http://www.w3.org/2000/svg" xmlns:xlink="http://www.w3.org/1999/xlink" x="0px" y="0px"
	 viewBox="0 0 48 48" style="enable-background:new 0 0 48 48;" xml:space="preserve">
<path d="M8.8,40c-0.8,0-1.4-0.3-2-0.8C6.3,38.7,6,38,6,37.2v-7.9c0-0.7,0.3-1.4,0.8-1.9s1.2-0.8,2-0.8h7.5c0.4,1.8,1.4,3.3,2.8,4.5
	s3.1,1.7,4.9,1.7c1.9,0,3.6-0.6,5-1.7c1.4-1.2,2.4-2.6,2.7-4.5h7.5c0.8,0,1.4,0.3,2,0.8c0.5,0.5,0.8,1.2,0.8,1.9v7.9
	c0,0.8-0.3,1.4-0.8,2c-0.5,0.5-1.2,0.8-2,0.8H8.8z M35,21.2l-1.1-1.1l5.6-5.6l1.1,1.1C40.6,15.7,35,21.2,35,21.2z M13,21.2l-5.6-5.6
	l1.2-1.1l5.5,5.6L13,21.2z M23.2,15.8V8.1h1.5v7.7H23.2z"/>
</svg>
