<?xml version="1.0" encoding="utf-8"?>
<!-- Generator: Adobe Illustrator 26.3.1, SVG Export Plug-In . SVG Version: 6.00 Build 0)  -->
<svg version="1.1" id="Слой_1" xmlns="http://www.w3.org/2000/svg" xmlns:xlink="http://www.w3.org/1999/xlink" x="0px" y="0px"
	 viewBox="0 0 48 48" style="enable-background:new 0 0 48 48;" xml:space="preserve">
<path d="M24,42.2c-0.8,0-1.5-0.3-2-0.8s-0.8-1.2-0.8-2c0-0.6,0.2-1.2,0.5-1.7c0.4-0.5,0.9-0.9,1.5-1.1v-5.9h-6.6
	c-0.8,0-1.4-0.3-2-0.8c-0.5-0.5-0.8-1.2-0.8-2v-4.6c-0.6-0.2-1.1-0.5-1.5-1s-0.6-1.1-0.6-1.7c0-0.8,0.3-1.5,0.8-2.1
	c0.5-0.5,1.2-0.8,2-0.8s1.5,0.3,2,0.8s0.8,1.2,0.8,2.1c0,0.7-0.2,1.2-0.6,1.7s-0.9,0.8-1.5,1v4.6c0,0.3,0.1,0.6,0.4,0.8
	c0.3,0.3,0.5,0.4,0.8,0.4H23V12.2h-3l3.8-5l3.8,5h-3v16.9h6.6c0.3,0,0.6-0.1,0.8-0.4c0.3-0.3,0.4-0.5,0.4-0.8v-4.5h-2v-5.6H36v5.6
	h-2.1v4.5c0,0.8-0.3,1.4-0.8,2s-1.2,0.8-2,0.8h-6.6v5.9c0.6,0.2,1.1,0.6,1.5,1.1s0.6,1.1,0.6,1.7c0,0.8-0.3,1.5-0.8,2.1
	C25.5,42,24.8,42.2,24,42.2z"/>
</svg>
