<?xml version="1.0" encoding="utf-8"?>
<!-- Generator: Adobe Illustrator 26.3.1, SVG Export Plug-In . SVG Version: 6.00 Build 0)  -->
<svg version="1.1" id="Слой_1" xmlns="http://www.w3.org/2000/svg" xmlns:xlink="http://www.w3.org/1999/xlink" x="0px" y="0px"
	 viewBox="0 0 48 48" style="enable-background:new 0 0 48 48;" xml:space="preserve">
<path d="M28.1,13v-1.5h14.6V13H28.1z M28.1,20.5V19h14.6v1.5H28.1z M28.1,28.1v-1.5h14.6v1.5H28.1z M15.7,27.2
	c-1.3,0-2.3-0.4-3.2-1.3c-0.8-0.8-1.3-1.9-1.3-3.1c0-1.3,0.4-2.3,1.2-3.2c0.8-0.8,1.9-1.3,3.1-1.3c1.3,0,2.3,0.4,3.2,1.3
	c0.8,0.8,1.3,1.9,1.3,3.2c0,1.2-0.4,2.3-1.2,3.1S17,27.2,15.7,27.2z M5.3,37.7v-2c0-0.4,0.1-0.8,0.3-1.1c0.2-0.4,0.5-0.6,0.8-0.8
	c1.4-0.9,2.8-1.5,4.4-2s3.2-0.7,4.9-0.7s3.3,0.2,4.9,0.7s3.1,1.1,4.5,2c0.3,0.2,0.5,0.5,0.8,0.9c0.2,0.3,0.3,0.7,0.3,1.1v2
	C26.2,37.7,5.3,37.7,5.3,37.7z"/>
</svg>
