<?xml version="1.0" encoding="utf-8"?>
<!-- Generator: Adobe Illustrator 26.3.1, SVG Export Plug-In . SVG Version: 6.00 Build 0)  -->
<svg version="1.1" id="Слой_1" xmlns="http://www.w3.org/2000/svg" xmlns:xlink="http://www.w3.org/1999/xlink" x="0px" y="0px"
	 viewBox="0 0 48 48" style="enable-background:new 0 0 48 48;" xml:space="preserve">
<path d="M14.8,43l-1.5-1.2v-9.1H8.8c-0.5,0-0.8-0.1-1.1-0.4s-0.4-0.7-0.4-1.1V13.8H6c-0.2,0-0.4-0.1-0.6-0.2
	c-0.1-0.1-0.2-0.3-0.2-0.6c0-0.2,0.1-0.4,0.2-0.6c0.1-0.1,0.3-0.2,0.6-0.2h7.2V6.5H11c-0.2,0-0.4-0.1-0.6-0.2
	c-0.1-0.1-0.2-0.3-0.2-0.6c0-0.2,0.1-0.4,0.2-0.6C10.6,5.1,10.8,5,11,5h6c0.2,0,0.4,0.1,0.6,0.2c0.1,0.1,0.2,0.3,0.2,0.6
	c0,0.2-0.1,0.4-0.2,0.6c-0.1,0.1-0.3,0.2-0.6,0.2h-2.2v5.7H22c0.2,0,0.4,0.1,0.6,0.2c0.1,0.1,0.2,0.3,0.2,0.6c0,0.2-0.1,0.4-0.2,0.6
	c-0.1,0.1-0.3,0.2-0.6,0.2h-1.2v17.5c0,0.5-0.1,0.8-0.4,1.1s-0.7,0.4-1.1,0.4h-4.5C14.8,32.9,14.8,43,14.8,43z M8.8,31.2h10.5v-5.1
	h-4.7c-0.2,0-0.3-0.1-0.5-0.2c-0.1-0.1-0.2-0.3-0.2-0.5s0.1-0.3,0.2-0.5c0.1-0.1,0.3-0.2,0.5-0.2h4.7V20h-4.7
	c-0.2,0-0.3-0.1-0.5-0.2c-0.1-0.1-0.2-0.3-0.2-0.5s0.1-0.3,0.2-0.5c0.1-0.1,0.3-0.2,0.5-0.2h4.7v-5.1H8.8V31.2z M29,43
	c-0.5,0-0.8-0.1-1.1-0.4c-0.3-0.3-0.4-0.7-0.4-1.1V27.3c0-1,0.2-1.8,0.6-2.4s0.8-1.1,1.1-1.5c0.5-0.5,0.8-0.9,1-1.2
	c0.2-0.3,0.3-0.7,0.3-1.2v-2.2h-1.2c-0.2,0-0.4-0.1-0.6-0.2c-0.1-0.1-0.2-0.3-0.2-0.6c0-0.2,0.1-0.4,0.2-0.6
	c0.1-0.1,0.3-0.2,0.5-0.2h10c0.2,0,0.4,0.1,0.6,0.2c0.1,0.1,0.2,0.3,0.2,0.6c0,0.2-0.1,0.4-0.2,0.6c-0.1,0.1-0.3,0.2-0.6,0.2H38V21
	c0,0.5,0.1,0.9,0.3,1.2c0.2,0.4,0.5,0.8,1,1.3c0.4,0.4,0.8,0.9,1.1,1.5c0.4,0.6,0.5,1.3,0.5,2.4v14.2c0,0.5-0.1,0.8-0.4,1.1
	s-0.6,0.3-1,0.3H29z M29,29.1h10.5v-1.8c0-0.7-0.2-1.3-0.5-1.8s-0.7-1-1.1-1.5c-0.4-0.5-0.7-0.9-1-1.4s-0.4-1-0.4-1.7v-2.2H32V21
	c0,0.6-0.1,1.2-0.4,1.7s-0.6,0.9-1,1.4s-0.8,1-1.1,1.5c-0.3,0.4-0.5,1-0.5,1.7V29.1z M29,41.5h10.5v-5.1H29V41.5z"/>
</svg>
