<?xml version="1.0" encoding="utf-8"?>
<!-- Generator: Adobe Illustrator 26.3.1, SVG Export Plug-In . SVG Version: 6.00 Build 0)  -->
<svg version="1.1" id="Слой_1" xmlns="http://www.w3.org/2000/svg" xmlns:xlink="http://www.w3.org/1999/xlink" x="0px" y="0px"
	 viewBox="0 0 48 48" style="enable-background:new 0 0 48 48;" xml:space="preserve">
<path d="M7.9,43c-1.3,0-2.5-0.5-3.4-1.4c-1-1-1.4-2.1-1.4-3.4s0.5-2.5,1.4-3.4c1-0.9,2.1-1.4,3.4-1.4s2.5,0.5,3.4,1.4
	c0.9,0.9,1.4,2.1,1.4,3.4s-0.5,2.5-1.4,3.4C10.4,42.5,9.2,43,7.9,43z M7.9,41.5c0.9,0,1.7-0.3,2.3-1c0.6-0.7,1-1.4,1-2.3
	c0-0.9-0.3-1.7-1-2.3s-1.4-1-2.3-1s-1.7,0.3-2.3,1s-1,1.4-1,2.3c0,0.9,0.3,1.7,1,2.3C6.2,41.1,6.9,41.5,7.9,41.5z M14.7,43
	c0.5-0.7,0.9-1.5,1.1-2.3c0.3-0.8,0.4-1.7,0.4-2.5c0-2.3-0.8-4.3-2.4-5.9c-1.6-1.6-3.6-2.4-5.9-2.4c-0.5,0-0.9,0-1.4,0.1
	s-0.9,0.2-1.4,0.3v-11h6.1V11c0-2.2,0.8-4.1,2.3-5.7C15.1,3.8,17,3,19.2,3c1.6,0,3.1,0.4,4.5,1.3C25,5.2,26,6.4,26.6,7.9l14.1,33.5
	H45V43H33.3v-1.5h5.8l-14-32.9c-0.5-1.2-1.3-2.2-2.4-2.9c-1.1-0.8-2.2-1.1-3.5-1.1c-1.8,0-3.3,0.6-4.6,1.9s-1.9,2.8-1.9,4.6v8.2h3.4
	c1.9,0,3.5,0.7,4.8,2s2,2.9,2,4.8v17C22.9,43,14.7,43,14.7,43z"/>
</svg>
