<?xml version="1.0" encoding="utf-8"?>
<!-- Generator: Adobe Illustrator 26.3.1, SVG Export Plug-In . SVG Version: 6.00 Build 0)  -->
<svg version="1.1" id="Слой_1" xmlns="http://www.w3.org/2000/svg" xmlns:xlink="http://www.w3.org/1999/xlink" x="0px" y="0px"
	 viewBox="0 0 48 48" style="enable-background:new 0 0 48 48;" xml:space="preserve">
<path d="M15.4,37.2c-1.1-0.2-2.2-0.4-3.2-0.5s-2-0.2-3.1-0.2h-2V34h2.1c1.1,0,2.1-0.1,3.1-0.2c1-0.1,2-0.3,3.2-0.5L15.4,37.2
	L15.4,37.2z M17.1,37.2v-4h24.6v4H17.1z M21,36.2c0.3,0,0.5-0.1,0.7-0.3s0.3-0.4,0.3-0.7s-0.1-0.5-0.3-0.7c-0.2-0.2-0.4-0.3-0.7-0.3
	c-0.3,0-0.5,0.1-0.7,0.3C20.1,34.7,20,35,20,35.2s0.1,0.5,0.3,0.7C20.5,36.1,20.7,36.2,21,36.2z M36.5,30.3v-2.7
	c0-1.2-0.4-2.3-1.2-3.1c-0.8-0.8-1.8-1.2-2.8-1.2h-3.3c-1.5,0-2.8-0.6-3.8-1.7s-1.5-2.5-1.5-4s0.5-2.7,1.5-3.7s2.3-1.5,3.8-1.5V14
	c-1.1,0-2,0.3-2.7,1s-1.1,1.5-1.1,2.6s0.4,2,1.1,2.9s1.6,1.3,2.7,1.3h3.3c1.5,0,2.8,0.6,3.9,1.7s1.6,2.5,1.6,4v2.8
	C38.1,30.3,36.5,30.3,36.5,30.3z M40.2,30.3v-4.7c0-2.3-0.8-4.2-2.4-5.6c-1.6-1.4-3.6-2.1-5.9-2.1v-1.5c1.1,0,1.9-0.4,2.6-1.1
	c0.7-0.7,1-1.6,1-2.7s-0.3-2-1-2.8s-1.6-1.2-2.6-1.2V7.1c1.5,0,2.7,0.5,3.7,1.6s1.5,2.4,1.5,3.8c0,1-0.2,1.9-0.6,2.6
	c-0.4,0.7-0.9,1.3-1.6,1.6c1.8,0.5,3.4,1.5,4.8,3c1.4,1.5,2.1,3.5,2.1,5.8v4.7C41.7,30.3,40.2,30.3,40.2,30.3z"/>
</svg>
