<?xml version="1.0" encoding="utf-8"?>
<!-- Generator: Adobe Illustrator 26.3.1, SVG Export Plug-In . SVG Version: 6.00 Build 0)  -->
<svg version="1.1" id="Слой_1" xmlns="http://www.w3.org/2000/svg" xmlns:xlink="http://www.w3.org/1999/xlink" x="0px" y="0px"
	 viewBox="0 0 48 48" style="enable-background:new 0 0 48 48;" xml:space="preserve">
<path d="M8,32V16h32v5.3c-0.2,0-0.4,0-0.5,0c-0.2,0-0.3,0-0.5,0c-2.7,0-5,0.9-6.8,2.8c-1.9,1.9-2.8,4.2-2.8,6.8c0,0.2,0,0.4,0,0.5
	c0,0.2,0,0.3,0,0.5C29.3,32,8,32,8,32z M34.7,36.3l-1.1-1.1l4.3-4.3l-4.3-4.2l1.1-1.1l4.2,4.3l4.3-4.3l1.1,1.1L40,30.9l4.3,4.3
	l-1.1,1.1L38.9,32L34.7,36.3z"/>
</svg>
