<?xml version="1.0" encoding="utf-8"?>
<!-- Generator: Adobe Illustrator 26.3.1, SVG Export Plug-In . SVG Version: 6.00 Build 0)  -->
<svg version="1.1" id="Слой_1" xmlns="http://www.w3.org/2000/svg" xmlns:xlink="http://www.w3.org/1999/xlink" x="0px" y="0px"
	 viewBox="0 0 48 48" style="enable-background:new 0 0 48 48;" xml:space="preserve">
<path d="M24,40.5c-2.6,0-5.1-0.5-7.4-1.4c-2.3-1-4.3-2.3-6.1-4c-0.3,0.2-0.6,0.3-1,0.4c-0.3,0.1-0.7,0.1-1.1,0.1
	c-1.1,0-2.1-0.4-2.8-1.2c-0.8-0.8-1.2-1.7-1.2-2.8c0-0.6,0.1-1.2,0.4-1.7s0.6-1,1-1.3c-0.4-0.9-0.7-1.8-0.9-2.8
	C4.7,25,4.5,24,4.3,23l1.5-0.2c0.1,0.9,0.3,1.8,0.5,2.6c0.2,0.9,0.5,1.7,0.9,2.5c0.2-0.1,0.4-0.1,0.6-0.1s0.4-0.1,0.6-0.1
	c1.1,0,2.1,0.4,2.8,1.2c0.8,0.8,1.2,1.7,1.2,2.8c0,0.5-0.1,0.9-0.2,1.3c-0.1,0.4-0.3,0.8-0.6,1.1c1.5,1.5,3.3,2.6,5.2,3.5
	c2,0.8,4.1,1.3,6.3,1.4V28.8c0-0.9-0.3-1.7-0.9-2.3c-0.6-0.6-1.4-0.9-2.3-0.9c-1.9,0-3.5-0.7-4.8-2s-2-2.9-2-4.8
	c0-1.9,0.7-3.5,2-4.8s2.9-2,4.8-2h3.6v-0.8c0-0.8,0.3-1.4,0.8-2c0.5-0.5,1.2-0.8,2-0.8h7.2c0.8,0,1.4,0.3,2,0.8
	c0.5,0.5,0.8,1.2,0.8,2V12H38c0.2,0,0.4,0.1,0.6,0.2c0.1,0.1,0.2,0.3,0.2,0.6c0,0.2-0.1,0.4-0.2,0.6s-0.3,0.2-0.6,0.2h-1.7v0.8
	c0,0.8-0.3,1.4-0.8,2c-0.5,0.5-1.2,0.8-2,0.8h-7.2c-0.8,0-1.4-0.3-2-0.8c-0.5-0.5-0.8-1.2-0.8-2v-0.8H20c-1.5,0-2.7,0.5-3.7,1.5
	s-1.5,2.2-1.5,3.7s0.5,2.7,1.5,3.7S18.5,24,20,24c1.3,0,2.5,0.5,3.4,1.4s1.4,2.1,1.4,3.4V39c3.6-0.1,6.7-1.2,9.6-3.2
	c2.8-2,4.9-4.6,6.3-7.7l-2.3-1.2l0.7-1.4l2.3,1.1c0.2-0.6,0.4-1.3,0.5-1.9s0.3-1.3,0.4-2l1.6,0.2c-0.1,0.8-0.2,1.5-0.4,2.3
	c-0.2,0.7-0.4,1.5-0.7,2.2l2.2,1.1l-0.7,1.4l-2-1c-1.6,3.5-4,6.3-7.2,8.5C31.6,39.5,28,40.5,24,40.5z"/>
</svg>
