<?xml version="1.0" encoding="utf-8"?>
<!-- Generator: Adobe Illustrator 26.3.1, SVG Export Plug-In . SVG Version: 6.00 Build 0)  -->
<svg version="1.1" id="Слой_1" xmlns="http://www.w3.org/2000/svg" xmlns:xlink="http://www.w3.org/1999/xlink" x="0px" y="0px"
	 viewBox="0 0 48 48" style="enable-background:new 0 0 48 48;" xml:space="preserve">
<path d="M2.9,28.9v-9.8h1.5v9.8C4.4,28.9,2.9,28.9,2.9,28.9z M8.5,33.1V14.9H10V33L8.5,33.1L8.5,33.1z M43.5,28.9v-9.8H45v9.8
	C45,28.9,43.5,28.9,43.5,28.9z M38,33.1V14.9h1.5V33L38,33.1L38,33.1z M16.8,40c-0.7,0-1.4-0.3-1.9-0.8c-0.6-0.6-0.9-1.2-0.9-2V10.8
	c0-0.7,0.3-1.4,0.8-1.9C15.4,8.3,16,8,16.8,8h14.5c0.7,0,1.4,0.3,1.9,0.8c0.5,0.6,0.8,1.2,0.8,2v26.5c0,0.7-0.3,1.4-0.8,1.9
	c-0.6,0.5-1.2,0.8-2,0.8H16.8z"/>
</svg>
