<?xml version="1.0" encoding="utf-8"?>
<!-- Generator: Adobe Illustrator 26.3.1, SVG Export Plug-In . SVG Version: 6.00 Build 0)  -->
<svg version="1.1" id="Слой_1" xmlns="http://www.w3.org/2000/svg" xmlns:xlink="http://www.w3.org/1999/xlink" x="0px" y="0px"
	 viewBox="0 0 48 48" style="enable-background:new 0 0 48 48;" xml:space="preserve">
<path d="M9.7,38c-0.8,0-1.4-0.3-2-0.8C7.2,36.7,7,36,7,35.2V22.7c0.7,0.5,1.5,0.9,2.3,1.1s1.7,0.4,2.6,0.4c2.6,0,4.8-0.9,6.6-2.7
	c1.8-1.8,2.7-4,2.7-6.6c0-0.9-0.1-1.8-0.4-2.6s-0.6-1.6-1.1-2.3h12.5c0.8,0,1.4,0.3,2,0.8c0.5,0.5,0.8,1.2,0.8,2v10.1l6.1-6.1v14.4
	L35,25.1v10.1c0,0.8-0.3,1.4-0.8,2c-0.5,0.5-1.2,0.8-2,0.8H9.7z M11.1,19.9v-4.2H7v-1.5h4.2V10h1.5v4.2h4.2v1.5h-4.2v4.2H11.1z
	 M12.4,31.2h17.4L24.4,24l-5.1,6.4l-3.3-4L12.4,31.2z"/>
</svg>
