<?xml version="1.0" encoding="utf-8"?>
<!-- Generator: Adobe Illustrator 26.3.1, SVG Export Plug-In . SVG Version: 6.00 Build 0)  -->
<svg version="1.1" id="Слой_1" xmlns="http://www.w3.org/2000/svg" xmlns:xlink="http://www.w3.org/1999/xlink" x="0px" y="0px"
	 viewBox="0 0 48 48" style="enable-background:new 0 0 48 48;" xml:space="preserve">
<path d="M41.2,31.2l-6.1-6.1v5.3L14.7,10h17.6c0.8,0,1.4,0.3,2,0.8c0.5,0.5,0.8,1.2,0.8,2v10.1l6.1-6.1
	C41.2,16.8,41.2,31.2,41.2,31.2z M39.4,41.9L5.1,7.7l1.1-1.1l34.3,34.3L39.4,41.9z M9.8,10.1L35,35.3v0.5c-0.1,0.6-0.4,1.1-0.9,1.6
	C33.6,37.8,33,38,32.3,38H9.8c-0.8,0-1.4-0.3-2-0.8C7.3,36.7,7,36,7,35.2V12.8c0-0.7,0.2-1.3,0.6-1.8s1-0.8,1.6-0.9H9.8z M14.2,30.7
	h13.6v-0.3c0-1.1-0.6-2-1.9-2.7s-2.9-1-4.9-1s-3.6,0.3-4.9,1s-1.9,1.6-1.9,2.7C14.2,30.4,14.2,30.7,14.2,30.7z"/>
</svg>
