<?xml version="1.0" encoding="utf-8"?>
<!-- Generator: Adobe Illustrator 26.3.1, SVG Export Plug-In . SVG Version: 6.00 Build 0)  -->
<svg version="1.1" id="Слой_1" xmlns="http://www.w3.org/2000/svg" xmlns:xlink="http://www.w3.org/1999/xlink" x="0px" y="0px"
	 viewBox="0 0 48 48" style="enable-background:new 0 0 48 48;" xml:space="preserve">
<path d="M8.8,34c-0.8,0-1.4-0.3-2-0.8C6.3,32.7,6,32,6,31.2V16.8c0-0.8,0.3-1.4,0.8-2C7.3,14.3,8,14,8.7,14H14l15.4,15.4h-2.2
	L5.6,7.8l1.1-1.1l34.5,34.5l-1.1,1.1L31.8,34H8.8z M19,14h20.2c0.8,0,1.4,0.3,2,0.8c0.5,0.5,0.8,1.2,0.8,2v14.4c0,0.9-0.3,1.6-0.9,2
	C40.5,33.7,39.8,34,39,34L19,14z M34.6,19.1c-0.4,0-0.8,0.2-1.2,0.5c-0.3,0.3-0.5,0.7-0.5,1.2s0.2,0.9,0.5,1.2
	c0.3,0.3,0.7,0.5,1.2,0.5c0.4,0,0.8-0.2,1.2-0.5c0.3-0.3,0.5-0.7,0.5-1.2c0-0.4-0.2-0.8-0.5-1.2C35.4,19.2,35.1,19.1,34.6,19.1z
	 M15.2,29.4h1.5v-4.5h4.5v-1.5h-4.5v-4.5h-1.5v4.5h-4.5v1.5h4.5C15.2,24.8,15.2,29.4,15.2,29.4z"/>
</svg>
