<?xml version="1.0" encoding="utf-8"?>
<!-- Generator: Adobe Illustrator 26.3.1, SVG Export Plug-In . SVG Version: 6.00 Build 0)  -->
<svg version="1.1" id="Слой_1" xmlns="http://www.w3.org/2000/svg" xmlns:xlink="http://www.w3.org/1999/xlink" x="0px" y="0px"
	 viewBox="0 0 48 48" style="enable-background:new 0 0 48 48;" xml:space="preserve">
<path d="M14.2,30.7h13.6v-0.3c0-1.1-0.6-2-1.9-2.7s-2.9-1-4.9-1s-3.6,0.3-4.9,1s-1.9,1.6-1.9,2.7C14.2,30.4,14.2,30.7,14.2,30.7z
	 M21,23.1c0.9,0,1.6-0.3,2.1-0.9c0.6-0.6,0.9-1.3,0.9-2.1c0-0.9-0.3-1.6-0.9-2.1c-0.6-0.6-1.3-0.9-2.1-0.9s-1.6,0.3-2.1,0.9
	c-0.6,0.6-0.9,1.3-0.9,2.1c0,0.9,0.3,1.6,0.9,2.1C19.4,22.8,20.1,23.1,21,23.1z M9.7,38c-0.8,0-1.4-0.3-2-0.8C7.2,36.7,7,36,7,35.2
	V12.8c0-0.8,0.3-1.4,0.8-2C8.3,10.3,9,10,9.7,10h22.5c0.8,0,1.4,0.3,2,0.8c0.5,0.5,0.8,1.2,0.8,2v10.1l6.1-6.1v14.4L35,25.1v10.1
	c0,0.8-0.3,1.4-0.8,2c-0.5,0.5-1.2,0.8-2,0.8H9.7z"/>
</svg>
