<?xml version="1.0" encoding="utf-8"?>
<!-- Generator: Adobe Illustrator 26.3.1, SVG Export Plug-In . SVG Version: 6.00 Build 0)  -->
<svg version="1.1" id="Слой_1" xmlns="http://www.w3.org/2000/svg" xmlns:xlink="http://www.w3.org/1999/xlink" x="0px" y="0px"
	 viewBox="0 0 48 48" style="enable-background:new 0 0 48 48;" xml:space="preserve">
<path d="M18.1,35.2h8.3c0.3,0,0.6-0.1,0.8-0.3c0.2-0.2,0.3-0.5,0.3-0.8v-3.3l3.7,2V27l-3.7,2v-3.3c0-0.3-0.1-0.5-0.3-0.8
	c-0.2-0.2-0.5-0.3-0.8-0.3h-8.3c-0.3,0-0.6,0.1-0.8,0.3c-0.2,0.2-0.3,0.5-0.3,0.8v8.2c0,0.3,0.1,0.6,0.3,0.8
	C17.5,35.1,17.7,35.2,18.1,35.2z M12.8,42c-0.8,0-1.4-0.3-2-0.8c-0.5-0.5-0.8-1.2-0.8-2V8.8c0-0.8,0.3-1.4,0.8-2
	C11.3,6.3,12,6,12.8,6h16.7l8.5,8.5v24.7c0,0.8-0.3,1.4-0.8,2c-0.5,0.5-1.2,0.8-2,0.8H12.8z M28.7,15.2h7.8l-7.8-7.7V15.2z"/>
</svg>
