<?xml version="1.0" encoding="utf-8"?>
<!-- Generator: Adobe Illustrator 26.3.1, SVG Export Plug-In . SVG Version: 6.00 Build 0)  -->
<svg version="1.1" id="Слой_1" xmlns="http://www.w3.org/2000/svg" xmlns:xlink="http://www.w3.org/1999/xlink" x="0px" y="0px"
	 viewBox="0 0 48 48" style="enable-background:new 0 0 48 48;" xml:space="preserve">
<path d="M16.5,26.8h10.9c0.4,0,0.8-0.1,1-0.4c0.3-0.3,0.4-0.6,0.4-1v-4.6l4,4v-9.5l-4,4v-4.6c0-0.4-0.1-0.8-0.4-1
	c-0.3-0.3-0.6-0.4-1-0.4H16.5c-0.4,0-0.8,0.1-1,0.4c-0.3,0.3-0.4,0.6-0.4,1v10.8c0,0.4,0.1,0.8,0.4,1C15.7,26.6,16,26.8,16.5,26.8z
	 M6,40.2V8.8c0-0.8,0.3-1.4,0.8-2C7.3,6.3,8,6,8.8,6h30.5c0.8,0,1.4,0.3,2,0.8C41.7,7.3,42,8,42,8.8v22.5c0,0.8-0.3,1.4-0.8,2
	c-0.5,0.5-1.2,0.8-2,0.8h-27L6,40.2z"/>
</svg>
