<?xml version="1.0" encoding="utf-8"?>
<!-- Generator: Adobe Illustrator 26.3.1, SVG Export Plug-In . SVG Version: 6.00 Build 0)  -->
<svg version="1.1" id="Слой_1" xmlns="http://www.w3.org/2000/svg" xmlns:xlink="http://www.w3.org/1999/xlink" x="0px" y="0px"
	 viewBox="0 0 48 48" style="enable-background:new 0 0 48 48;" xml:space="preserve">
<path d="M23.4,38c0.5-0.9,0.8-1.8,1-2.7c0.2-1,0.3-1.9,0.3-2.9c0-3.5-1.2-6.5-3.7-8.9s-5.4-3.7-8.9-3.7c-0.9,0-1.8,0.1-2.7,0.3
	C8.6,20.3,7.8,20.6,7,21v-8.2c0-0.8,0.3-1.4,0.8-2C8.3,10.3,9,10,9.7,10h22.5c0.8,0,1.4,0.3,2,0.8c0.5,0.5,0.8,1.2,0.8,2v10.1
	l6.1-6.1v14.4L35,25.1v10.1c0,0.8-0.3,1.4-0.8,2c-0.5,0.5-1.2,0.8-2,0.8H23.4z M12.1,40c-2.2,0-4-0.8-5.5-2.3s-2.3-3.3-2.3-5.5
	s0.8-4,2.3-5.5s3.3-2.3,5.5-2.3c2.1,0,4,0.8,5.5,2.3s2.3,3.4,2.3,5.5s-0.8,4-2.3,5.5C16,39.2,14.2,40,12.1,40z M11.3,33.1h1.4v-5.6
	h-1.4V33.1z M12.1,36.9c0.2,0,0.5-0.1,0.7-0.3s0.3-0.4,0.3-0.7s-0.1-0.5-0.3-0.7s-0.4-0.3-0.7-0.3s-0.5,0.1-0.7,0.3
	s-0.3,0.4-0.3,0.7s0.1,0.5,0.3,0.7C11.5,36.8,11.8,36.9,12.1,36.9z"/>
</svg>
