<?xml version="1.0" encoding="utf-8"?>
<!-- Generator: Adobe Illustrator 26.3.1, SVG Export Plug-In . SVG Version: 6.00 Build 0)  -->
<svg version="1.1" id="Слой_1" xmlns="http://www.w3.org/2000/svg" xmlns:xlink="http://www.w3.org/1999/xlink" x="0px" y="0px"
	 viewBox="0 0 48 48" style="enable-background:new 0 0 48 48;" xml:space="preserve">
<path d="M8,37.5V36h32v1.5H8z M8,12v-1.5h32V12H8z M10.8,29.8c-0.8,0-1.4-0.3-2-0.8C8.3,28.4,8,27.8,8,27v-6c0-0.8,0.3-1.4,0.8-2
	c0.5-0.5,1.2-0.8,2-0.8h26.5c0.8,0,1.4,0.3,2,0.8c0.5,0.5,0.8,1.2,0.8,2v6c0,0.8-0.3,1.4-0.8,2c-0.5,0.5-1.2,0.8-2,0.8H10.8z"/>
</svg>
