<?xml version="1.0" encoding="utf-8"?>
<!-- Generator: Adobe Illustrator 26.3.1, SVG Export Plug-In . SVG Version: 6.00 Build 0)  -->
<svg version="1.1" id="Слой_1" xmlns="http://www.w3.org/2000/svg" xmlns:xlink="http://www.w3.org/1999/xlink" x="0px" y="0px"
	 viewBox="0 0 48 48" style="enable-background:new 0 0 48 48;" xml:space="preserve">
<path d="M7.7,38c-0.5,0-0.9-0.2-1.2-0.5C6.2,37.2,6,36.8,6,36.3V11.7c0-0.5,0.2-0.9,0.5-1.2S7.2,10,7.7,10h7.7
	c0.5,0,0.9,0.2,1.2,0.5c0.3,0.3,0.5,0.7,0.5,1.2v24.6c0,0.5-0.2,0.9-0.5,1.2S15.9,38,15.4,38H7.7z M20.3,38c-0.5,0-0.9-0.2-1.2-0.5
	c-0.3-0.3-0.5-0.7-0.5-1.2V11.7c0-0.5,0.2-0.9,0.5-1.2s0.7-0.5,1.2-0.5h7.5c0.5,0,0.9,0.2,1.2,0.5c0.3,0.3,0.5,0.7,0.5,1.2v24.6
	c0,0.5-0.2,0.9-0.5,1.2S28.3,38,27.8,38C27.7,38,20.3,38,20.3,38z M32.7,38c-0.5,0-0.9-0.2-1.2-0.5c-0.3-0.3-0.5-0.7-0.5-1.2V11.7
	c0-0.5,0.2-0.9,0.5-1.2s0.7-0.5,1.2-0.5h7.7c0.5,0,0.9,0.2,1.2,0.5s0.5,0.7,0.5,1.2v24.6c0,0.5-0.2,0.9-0.5,1.2S40.9,38,40.4,38
	H32.7z"/>
</svg>
