<?xml version="1.0" encoding="utf-8"?>
<!-- Generator: Adobe Illustrator 26.3.1, SVG Export Plug-In . SVG Version: 6.00 Build 0)  -->
<svg version="1.1" id="Слой_1" xmlns="http://www.w3.org/2000/svg" xmlns:xlink="http://www.w3.org/1999/xlink" x="0px" y="0px"
	 viewBox="0 0 48 48" style="enable-background:new 0 0 48 48;" xml:space="preserve">
<path d="M42.1,37.8V10.2V37.8z M5.9,18.5v-8.3h8.2v8.3H5.9z M15.4,18.5v-8.3h7.9v8.3H15.4z M24.7,18.5v-8.3h7.9v8.3H24.7z
	 M33.9,18.5v-8.3h8.2v8.3H33.9z M33.9,28.2v-8.4h8.2v8.4H33.9z M24.7,28.2v-8.4h7.9v8.4C32.6,28.2,24.7,28.2,24.7,28.2z M15.4,28.2
	v-8.4h7.9v8.4C23.4,28.2,15.4,28.2,15.4,28.2z M5.9,28.2v-8.4h8.2v8.4H5.9z M33.9,37.8v-8.3h8.2v8.3C42.1,37.8,33.9,37.8,33.9,37.8z
	 M24.7,37.8v-8.3h7.9v8.3C32.6,37.8,24.7,37.8,24.7,37.8z M15.4,37.8v-8.3h7.9v8.3C23.4,37.8,15.4,37.8,15.4,37.8z M5.9,37.8v-8.3
	h8.2v8.3H5.9z"/>
</svg>
