<?xml version="1.0" encoding="utf-8"?>
<!-- Generator: Adobe Illustrator 26.3.1, SVG Export Plug-In . SVG Version: 6.00 Build 0)  -->
<svg version="1.1" id="Слой_1" xmlns="http://www.w3.org/2000/svg" xmlns:xlink="http://www.w3.org/1999/xlink" x="0px" y="0px"
	 viewBox="0 0 48 48" style="enable-background:new 0 0 48 48;" xml:space="preserve">
<path d="M4,38V10l9.8,1.6v24.8L4,38z M18.8,36.3V11.7h10.4v24.6C29.2,36.3,18.8,36.3,18.8,36.3z M44,38l-9.8-1.6V11.6L44,10V38z
	 M5.5,36.1l6.7-1.1V12.9l-6.7-1.1V36.1z M20.4,34.7h7.3V13.2h-7.3C20.4,13.2,20.4,34.7,20.4,34.7z M42.5,36.2V11.8l-6.7,1.1v22.2
	C35.7,35.1,42.5,36.2,42.5,36.2z M5.5,36.1V11.8l6.7,1.1V35C12.3,35,5.5,36.1,5.5,36.1z M20.4,34.7V13.2h7.3v21.5H20.4z M42.5,36.2
	l-6.7-1.1V12.9l6.7-1.1C42.5,11.8,42.5,36.2,42.5,36.2z"/>
</svg>
