<?xml version="1.0" encoding="utf-8"?>
<!-- Generator: Adobe Illustrator 26.3.1, SVG Export Plug-In . SVG Version: 6.00 Build 0)  -->
<svg version="1.1" id="Слой_1" xmlns="http://www.w3.org/2000/svg" xmlns:xlink="http://www.w3.org/1999/xlink" x="0px" y="0px"
	 viewBox="0 0 48 48" style="enable-background:new 0 0 48 48;" xml:space="preserve">
<path d="M35.8,18.3c-0.6,0-1.1-0.2-1.5-0.6s-0.6-0.9-0.6-1.5v-4.1c0-0.6,0.2-1.1,0.6-1.5c0.4-0.4,0.9-0.6,1.5-0.6H40
	c0.6,0,1.1,0.2,1.5,0.6c0.4,0.4,0.6,0.9,0.6,1.5v4.1c0,0.6-0.2,1.1-0.6,1.5c-0.4,0.4-0.9,0.6-1.5,0.6H35.8z M35.8,28.2
	c-0.6,0-1.1-0.2-1.5-0.6s-0.6-0.9-0.6-1.4V22c0-0.6,0.2-1.1,0.6-1.5c0.4-0.4,0.9-0.6,1.5-0.6H40c0.6,0,1.1,0.2,1.5,0.6
	s0.6,0.9,0.6,1.5v4.2c0,0.6-0.2,1-0.6,1.4c-0.4,0.4-0.9,0.6-1.5,0.6C39.9,28.2,35.8,28.2,35.8,28.2z M8.8,38c-0.8,0-1.4-0.3-2-0.8
	C6.3,36.7,6,36,6,35.2V12.8c0-0.8,0.3-1.4,0.8-2C7.3,10.3,8,10,8.8,10h20.6c0.8,0,1.4,0.3,2,0.8c0.5,0.5,0.8,1.2,0.8,2v22.5
	c0,0.8-0.3,1.4-0.8,2c-0.5,0.5-1.2,0.8-2,0.8L8.8,38L8.8,38z M35.8,38c-0.6,0-1.1-0.2-1.5-0.6c-0.4-0.4-0.6-0.9-0.6-1.5v-4.1
	c0-0.6,0.2-1.1,0.6-1.5c0.4-0.4,0.9-0.6,1.5-0.6H40c0.6,0,1.1,0.2,1.5,0.6s0.6,0.9,0.6,1.5v4.1c0,0.6-0.2,1.1-0.6,1.5
	c-0.5,0.4-1,0.6-1.6,0.6H35.8z"/>
</svg>
