<?xml version="1.0" encoding="utf-8"?>
<!-- Generator: Adobe Illustrator 26.3.1, SVG Export Plug-In . SVG Version: 6.00 Build 0)  -->
<svg version="1.1" id="Слой_1" xmlns="http://www.w3.org/2000/svg" xmlns:xlink="http://www.w3.org/1999/xlink" x="0px" y="0px"
	 viewBox="0 0 48 48" style="enable-background:new 0 0 48 48;" xml:space="preserve">
<path d="M32.6,23.3c-0.8,0-1.4-0.3-2-0.8c-0.5-0.5-0.8-1.2-0.8-2v-5.8c0-0.8,0.3-1.4,0.8-2c0.5-0.5,1.2-0.8,2-0.8h4.6
	c0.8,0,1.4,0.3,2,0.8c0.5,0.5,0.8,1.2,0.8,2v5.8c0,0.8-0.3,1.4-0.8,2c-0.5,0.5-1.2,0.8-2,0.8C37.2,23.3,32.6,23.3,32.6,23.3z
	 M21.9,23.3c-0.8,0-1.4-0.3-2-0.8c-0.5-0.5-0.8-1.2-0.8-2v-5.8c0-0.8,0.3-1.4,0.8-2c0.5-0.5,1.2-0.8,2-0.8h4.3c0.8,0,1.4,0.3,2,0.8
	c0.5,0.5,0.8,1.2,0.8,2v5.8c0,0.8-0.3,1.4-0.8,2c-0.5,0.5-1.2,0.8-2,0.8H21.9z M10.8,23.3c-0.8,0-1.4-0.3-2-0.8
	C8.3,22,8,21.3,8,20.5v-5.8c0-0.8,0.3-1.4,0.8-2c0.5-0.5,1.2-0.8,2-0.8h4.6c0.7,0,1.4,0.3,1.9,0.8s0.8,1.2,0.8,2v5.8
	c0,0.8-0.3,1.4-0.8,2c-0.5,0.5-1.2,0.8-1.9,0.8H10.8z M10.8,36c-0.8,0-1.4-0.3-2-0.8C8.3,34.7,8,34,8,33.2v-5.8
	c0-0.7,0.3-1.4,0.8-1.9s1.2-0.8,2-0.8h4.6c0.7,0,1.4,0.3,1.9,0.8s0.8,1.2,0.8,1.9v5.8c0,0.8-0.3,1.4-0.8,2c-0.5,0.5-1.2,0.8-1.9,0.8
	H10.8z M21.9,36c-0.8,0-1.4-0.3-2-0.8c-0.5-0.5-0.8-1.2-0.8-2v-5.8c0-0.7,0.3-1.4,0.8-1.9s1.2-0.8,2-0.8h4.3c0.8,0,1.4,0.3,2,0.8
	c0.5,0.5,0.8,1.2,0.8,1.9v5.8c0,0.8-0.3,1.4-0.8,2c-0.5,0.5-1.2,0.8-2,0.8H21.9z M32.6,36c-0.8,0-1.4-0.3-2-0.8
	c-0.5-0.5-0.8-1.2-0.8-2v-5.8c0-0.7,0.3-1.4,0.8-1.9s1.2-0.8,2-0.8h4.6c0.8,0,1.4,0.3,2,0.8c0.5,0.5,0.8,1.2,0.8,1.9v5.8
	c0,0.8-0.3,1.4-0.8,2c-0.5,0.5-1.2,0.8-2,0.8C37.2,36,32.6,36,32.6,36z"/>
</svg>
