<?xml version="1.0" encoding="utf-8"?>
<!-- Generator: Adobe Illustrator 26.3.1, SVG Export Plug-In . SVG Version: 6.00 Build 0)  -->
<svg version="1.1" id="Слой_1" xmlns="http://www.w3.org/2000/svg" xmlns:xlink="http://www.w3.org/1999/xlink" x="0px" y="0px"
	 viewBox="0 0 48 48" style="enable-background:new 0 0 48 48;" xml:space="preserve">
<path d="M8,33.9V14.1c0-0.6,0.2-1.1,0.6-1.5C9,12.2,9.5,12,10.1,12s1.1,0.2,1.5,0.6c0.4,0.4,0.6,0.9,0.6,1.5v19.8
	c0,0.6-0.2,1.1-0.6,1.5c-0.4,0.4-0.9,0.6-1.5,0.6S9,35.8,8.6,35.4C8.2,35,8,34.5,8,33.9z M17.6,36c-0.6,0-1.1-0.2-1.5-0.6
	c-0.4-0.4-0.6-0.9-0.6-1.5V14.1c0-0.6,0.2-1.1,0.6-1.5c0.4-0.4,0.9-0.6,1.5-0.6h12.8c0.6,0,1.1,0.2,1.5,0.6c0.4,0.4,0.6,0.9,0.6,1.5
	v19.8c0,0.6-0.2,1.1-0.6,1.5C31.5,35.8,31,36,30.4,36H17.6z M35.8,33.9V14.1c0-0.6,0.2-1.1,0.6-1.5c0.4-0.4,0.9-0.6,1.5-0.6
	s1.1,0.2,1.5,0.6c0.4,0.4,0.6,0.9,0.6,1.5v19.8c0,0.6-0.2,1.1-0.6,1.5C39,35.8,38.5,36,37.9,36s-1.1-0.2-1.5-0.6
	C36,35,35.8,34.5,35.8,33.9z"/>
</svg>
