<?xml version="1.0" encoding="utf-8"?>
<!-- Generator: Adobe Illustrator 26.3.1, SVG Export Plug-In . SVG Version: 6.00 Build 0)  -->
<svg version="1.1" id="Слой_1" xmlns="http://www.w3.org/2000/svg" xmlns:xlink="http://www.w3.org/1999/xlink" x="0px" y="0px"
	 viewBox="0 0 48 48" style="enable-background:new 0 0 48 48;" xml:space="preserve">
<path d="M40,42.1l-7.8-7.8c-0.9,0.4-2,0.8-3.5,1.2c-1.4,0.3-3,0.5-4.7,0.5c-4.3,0-8.2-1.2-11.8-3.5S5.9,27,4.2,23
	C5,21.2,6,19.6,7.3,18s2.8-3,4.4-4.2l-6-5.9l1.1-1.1L41,40.9L40,42.1z M24,30.1c0.5,0,1.1-0.1,1.8-0.2c0.7-0.1,1.2-0.3,1.5-0.5
	l-9.6-9.6c-0.2,0.4-0.4,0.9-0.5,1.5S17,22.5,17,23c0,2,0.7,3.7,2.1,5C20.4,29.4,22,30.1,24,30.1z M36.9,31.7l-6.3-6.2
	c0.1-0.3,0.2-0.6,0.3-1.1C31,24,31,23.5,31,23c0-2-0.7-3.7-2.1-5c-1.4-1.4-3-2.1-5-2.1c-0.5,0-1,0-1.4,0.1s-0.8,0.2-1.1,0.4
	l-5.1-5.1c1.1-0.4,2.3-0.8,3.7-1c1.4-0.2,2.7-0.4,4-0.4c4.2,0,8.1,1.2,11.7,3.5c3.6,2.4,6.3,5.5,8,9.5c-0.8,1.7-1.7,3.3-2.9,4.7
	C39.8,29.2,38.5,30.5,36.9,31.7z M29.3,24.2l-6.5-6.5c0.8-0.2,1.7-0.2,2.6,0s1.7,0.7,2.3,1.3c0.7,0.7,1.2,1.4,1.5,2.3
	C29.6,22.1,29.6,23.1,29.3,24.2z"/>
</svg>
