<?xml version="1.0" encoding="utf-8"?>
<!-- Generator: Adobe Illustrator 26.3.1, SVG Export Plug-In . SVG Version: 6.00 Build 0)  -->
<svg version="1.1" id="Слой_1" xmlns="http://www.w3.org/2000/svg" xmlns:xlink="http://www.w3.org/1999/xlink" x="0px" y="0px"
	 viewBox="0 0 48 48" style="enable-background:new 0 0 48 48;" xml:space="preserve">
<path d="M24,30.1c1.9,0,3.6-0.7,5-2.1s2.1-3.1,2.1-5s-0.7-3.6-2.1-5s-3.1-2.1-5-2.1s-3.6,0.7-5,2.1s-2.1,3.1-2.1,5s0.7,3.6,2.1,5
	S22.1,30.1,24,30.1z M24,28.5c-1.5,0-2.8-0.5-3.9-1.6s-1.6-2.4-1.6-3.9s0.5-2.8,1.6-3.9s2.4-1.6,3.9-1.6s2.8,0.5,3.9,1.6
	s1.6,2.4,1.6,3.9s-0.5,2.8-1.6,3.9S25.5,28.5,24,28.5z M24,36c-4.3,0-8.2-1.2-11.8-3.6c-3.5-2.3-6.2-5.5-8-9.4
	c1.8-3.9,4.5-7.1,8.1-9.4C15.8,11.2,19.7,10,24,10s8.2,1.2,11.8,3.6c3.5,2.4,6.2,5.5,8.1,9.4c-1.8,3.9-4.5,7.1-8.1,9.4
	C32.2,34.8,28.3,36,24,36z"/>
</svg>
