<?xml version="1.0" encoding="utf-8"?>
<!-- Generator: Adobe Illustrator 26.3.1, SVG Export Plug-In . SVG Version: 6.00 Build 0)  -->
<svg version="1.1" id="Слой_1" xmlns="http://www.w3.org/2000/svg" xmlns:xlink="http://www.w3.org/1999/xlink" x="0px" y="0px"
	 viewBox="0 0 48 48" style="enable-background:new 0 0 48 48;" xml:space="preserve">
<path d="M18.9,35.8c-0.3,0-0.6-0.1-0.8-0.3s-0.4-0.4-0.5-0.7l-4.2-10H4.2v-1.5h10.1L18.9,34l8.9-20.9c0.1-0.2,0.2-0.4,0.5-0.6
	s0.5-0.3,0.9-0.3c0.3,0,0.6,0.1,0.8,0.3s0.4,0.4,0.5,0.6l4.3,10.1h9v1.5H33.7l-4.6-10.8l-8.9,20.8c-0.1,0.3-0.2,0.5-0.5,0.7
	S19.2,35.8,18.9,35.8z"/>
</svg>
