<?xml version="1.0" encoding="utf-8"?>
<!-- Generator: Adobe Illustrator 26.3.1, SVG Export Plug-In . SVG Version: 6.00 Build 0)  -->
<svg version="1.1" id="Слой_1" xmlns="http://www.w3.org/2000/svg" xmlns:xlink="http://www.w3.org/1999/xlink" x="0px" y="0px"
	 viewBox="0 0 48 48" style="enable-background:new 0 0 48 48;" xml:space="preserve">
<path d="M12.8,20.8h1.3v-1.5h-1.3V20.8z M17.8,24.8h1.3v-9.5h-1.3V24.8z M23.3,28.8h1.3V11.2h-1.3V28.8z M28.8,24.8h1.3v-9.5h-1.3
	V24.8z M33.8,20.8h1.3v-1.5h-1.3V20.8z M6,40.2V8.8c0-0.8,0.3-1.4,0.8-2C7.3,6.3,8,6,8.8,6h30.5c0.8,0,1.4,0.3,2,0.8
	C41.7,7.3,42,8,42,8.8v22.5c0,0.8-0.3,1.4-0.8,2c-0.5,0.5-1.2,0.8-2,0.8h-27L6,40.2z"/>
</svg>
