<?xml version="1.0" encoding="utf-8"?>
<!-- Generator: Adobe Illustrator 26.3.1, SVG Export Plug-In . SVG Version: 6.00 Build 0)  -->
<svg version="1.1" id="Слой_1" xmlns="http://www.w3.org/2000/svg" xmlns:xlink="http://www.w3.org/1999/xlink" x="0px" y="0px"
	 viewBox="0 0 48 48" style="enable-background:new 0 0 48 48;" xml:space="preserve">
<path d="M6,42v-1.5c1.7,0,3.4-0.1,5.1-0.3s3.3-0.6,5-1.3c0.3-0.1,0.4-0.3,0.4-0.7s-0.3-0.6-0.7-0.7c-1.6-0.5-3-1.3-4.1-2.5
	S10,32.3,10,30.7v-3h6.8c0.4,0,0.7-0.1,0.9-0.3c0.2-0.2,0.3-0.5,0.3-0.9v-4.6h5.5c0.5,0,0.8-0.2,1-0.6s0.3-0.8,0.1-1.2L18.7,8.2
	l1.4-0.7l5.9,12c0.5,0.9,0.4,1.8-0.1,2.6c-0.5,0.8-1.3,1.3-2.4,1.3h-4v3.1c0,0.8-0.3,1.4-0.8,2c-0.5,0.5-1.2,0.8-2,0.8h-5.2v1.5
	c0,1.3,0.4,2.4,1.3,3.3c0.8,0.9,1.9,1.6,3.2,1.9l0.6,0.1c0.9,0.2,1.4,0.9,1.5,2s-0.4,1.8-1.4,2.2c-1.7,0.7-3.4,1.2-5.2,1.4
	C9.6,41.9,7.8,42,6,42z M31.7,37.2l-1.1-1.1c0.8-0.8,1.5-1.8,1.9-2.9c0.5-1.1,0.7-2.2,0.7-3.4c0-1.2-0.2-2.3-0.7-3.4s-1.1-2-1.9-2.9
	l1.1-1.1c1,1,1.7,2.1,2.3,3.4c0.5,1.3,0.8,2.6,0.8,4s-0.3,2.7-0.8,4C33.4,35.1,32.7,36.2,31.7,37.2z M36.5,42l-1.1-1.1
	c1.5-1.4,2.6-3.1,3.4-5c0.8-1.9,1.2-3.9,1.2-6s-0.4-4.1-1.2-6s-1.9-3.6-3.4-5l1.1-1.1c1.6,1.6,2.8,3.5,3.7,5.6s1.3,4.3,1.3,6.6
	s-0.4,4.5-1.3,6.6C39.4,38.6,38.1,40.4,36.5,42z"/>
</svg>
