<?xml version="1.0" encoding="utf-8"?>
<!-- Generator: Adobe Illustrator 26.3.1, SVG Export Plug-In . SVG Version: 6.00 Build 0)  -->
<svg version="1.1" id="Слой_1" xmlns="http://www.w3.org/2000/svg" xmlns:xlink="http://www.w3.org/1999/xlink" x="0px" y="0px"
	 viewBox="0 0 48 48" style="enable-background:new 0 0 48 48;" xml:space="preserve">
<path d="M40.5,35.6l-1.2-1.2c0.8-2.8,0.9-5.5,0.2-8.3s-2.1-5.2-4.1-7.2l1.1-1.1c1.6,1.6,2.8,3.4,3.7,5.5s1.3,4.3,1.3,6.6
	c0,1-0.1,2-0.2,2.9C41.1,33.7,40.9,34.7,40.5,35.6z M26.2,21.2L24,19.1L18.7,8.2l1.4-0.7l5.9,12c0.2,0.3,0.2,0.6,0.3,0.9
	C26.3,20.7,26.3,21,26.2,21.2z M6,42v-1.5c1.7,0,3.4-0.1,5.1-0.3s3.3-0.6,5-1.3c0.3-0.1,0.4-0.3,0.4-0.7s-0.3-0.6-0.7-0.7
	c-1.6-0.5-3-1.3-4.1-2.5S10,32.3,10,30.7v-3h6.8c0.4,0,0.7-0.1,0.9-0.3c0.2-0.2,0.3-0.5,0.3-0.9v-4.6h3.9l1.5,1.5h-3.9v3.1
	c0,0.8-0.3,1.4-0.8,2c-0.5,0.5-1.2,0.8-2,0.8h-5.2v1.5c0,1.3,0.4,2.4,1.3,3.3c0.8,0.9,1.9,1.6,3.2,1.9l0.6,0.1
	c0.9,0.2,1.5,0.9,1.5,2c0.1,1.1-0.4,1.8-1.4,2.2c-1.7,0.7-3.4,1.2-5.2,1.4C9.6,41.9,7.8,42,6,42z M42.5,44.8L3.7,6l1.2-1.2
	l38.8,38.8C43.6,43.6,42.5,44.8,42.5,44.8z"/>
</svg>
