<?xml version="1.0" encoding="utf-8"?>
<!-- Generator: Adobe Illustrator 26.3.1, SVG Export Plug-In . SVG Version: 6.00 Build 0)  -->
<svg version="1.1" id="Слой_1" xmlns="http://www.w3.org/2000/svg" xmlns:xlink="http://www.w3.org/1999/xlink" x="0px" y="0px"
	 viewBox="0 0 48 48" style="enable-background:new 0 0 48 48;" xml:space="preserve">
<path d="M28.2,39v-1.6c2.9-1,5.2-2.7,7-5.2c1.8-2.4,2.7-5.2,2.7-8.2s-0.9-5.8-2.7-8.2c-1.8-2.5-4.1-4.2-7-5.2V8.9
	c3.3,1.1,6,3,8.1,5.7c2.1,2.8,3.1,5.9,3.1,9.3s-1,6.6-3.1,9.3C34.2,36,31.5,37.9,28.2,39z M8.6,28v-8h6.8l7.2-7.2v22.3L15.5,28H8.6z
	 M27.7,30.8V17.1c1.3,0.6,2.2,1.6,2.9,2.8c0.7,1.2,1,2.6,1,4s-0.3,2.8-1,4C29.9,29.2,28.9,30.1,27.7,30.8z"/>
</svg>
