<?xml version="1.0" encoding="utf-8"?>
<!-- Generator: Adobe Illustrator 26.3.1, SVG Export Plug-In . SVG Version: 6.00 Build 0)  -->
<svg version="1.1" id="Слой_1" xmlns="http://www.w3.org/2000/svg" xmlns:xlink="http://www.w3.org/1999/xlink" x="0px" y="0px"
	 viewBox="0 0 48 48" style="enable-background:new 0 0 48 48;" xml:space="preserve">
<path d="M16,36c-3.3,0-6.2-1.2-8.5-3.5S4,27.3,4,24s1.2-6.2,3.5-8.5S12.7,12,16,12h16c3.3,0,6.2,1.2,8.5,3.5S44,20.7,44,24
	s-1.2,6.2-3.5,8.5S35.3,36,32,36H16z M17.3,29.2h1.3v-4.5h4.5v-1.3h-4.5v-4.5h-1.3v4.5h-4.5v1.3h4.5V29.2z M31.8,29.2h1.3V18.8h-4.3
	v1.3h3V29.2z"/>
</svg>
