<?xml version="1.0" encoding="utf-8"?>
<!-- Generator: Adobe Illustrator 26.3.1, SVG Export Plug-In . SVG Version: 6.00 Build 0)  -->
<svg version="1.1" id="Слой_1" xmlns="http://www.w3.org/2000/svg" xmlns:xlink="http://www.w3.org/1999/xlink" x="0px" y="0px"
	 viewBox="0 0 48 48" style="enable-background:new 0 0 48 48;" xml:space="preserve">
<path d="M24,42c-2.5,0-4.9-0.5-7.1-1.4s-4.1-2.2-5.7-3.8s-2.9-3.5-3.8-5.7S6,26.5,6,24s0.5-4.9,1.4-7.1s2.2-4.1,3.8-5.7
	s3.5-2.9,5.7-3.8C19,6.5,21.4,6,23.8,6c1.2,0,2.5,0.1,3.7,0.3c1.3,0.2,2.3,0.5,3.2,0.9v2.3c0,1.1-0.4,2.1-1.2,2.9s-1.8,1.2-2.9,1.2
	h-4.8v4c0,0.6-0.2,1.1-0.6,1.5s-0.9,0.6-1.5,0.6h-4V24H28c0.6,0,1.1,0.2,1.5,0.6s0.6,0.9,0.6,1.5v6.2h2c0.9,0,1.8,0.3,2.5,0.8
	s1.2,1.2,1.5,2.1c1.4-1.5,2.5-3.2,3.2-5.1c0.8-1.9,1.1-3.9,1.1-6c0-0.4,0-0.9,0-1.4s0-0.9-0.1-1.3h1.5c0.1,0.3,0.1,0.7,0.1,1.2
	s0,0.9,0,1.4c0,2.5-0.5,4.9-1.4,7.1s-2.2,4.1-3.8,5.7c-1.6,1.6-3.5,2.9-5.7,3.8C28.9,41.5,26.5,42,24,42z M21.8,40.5v-4.2
	c-1.1,0-2-0.4-2.8-1.2s-1.2-1.7-1.2-2.8v-2l-9.9-9.9c-0.1,0.7-0.2,1.3-0.3,1.8c-0.1,0.5-0.1,1.1-0.1,1.7c0,4.3,1.4,8,4.1,11.1
	S17.7,40,21.8,40.5z M35.7,17.8c-0.4,0-0.7-0.1-1-0.4s-0.4-0.6-0.4-1V10c0-0.4,0.1-0.7,0.4-1c0.3-0.3,0.6-0.4,1-0.4h0.8v-2
	c0-1,0.3-1.8,1-2.5s1.5-1,2.5-1s1.8,0.3,2.5,1s1,1.5,1,2.5v2h0.8c0.4,0,0.7,0.1,1,0.4c0.3,0.3,0.4,0.6,0.4,1v6.5
	c0,0.4-0.1,0.7-0.4,1c-0.3,0.3-0.6,0.4-1,0.4h-8.6V17.8z M37.9,8.6H42v-2c0-0.6-0.2-1.1-0.6-1.5c-0.4-0.4-0.9-0.6-1.5-0.6
	s-1.1,0.2-1.5,0.6S37.8,6,37.8,6.6C37.9,6.6,37.9,8.6,37.9,8.6z"/>
</svg>
