<?xml version="1.0" encoding="utf-8"?>
<!-- Generator: Adobe Illustrator 26.3.1, SVG Export Plug-In . SVG Version: 6.00 Build 0)  -->
<svg version="1.1" id="Слой_1" xmlns="http://www.w3.org/2000/svg" xmlns:xlink="http://www.w3.org/1999/xlink" x="0px" y="0px"
	 viewBox="0 0 48 48" style="enable-background:new 0 0 48 48;" xml:space="preserve">
<path d="M40.2,42.4L25.4,27.6h-2.1c-0.7,1.9-1.8,3.4-3.4,4.6C18.2,33.4,16.3,34,14,34c-2.8,0-5.1-1-7.1-2.9S4,26.8,4,24
	c0-2.3,0.7-4.4,2.2-6.2s3.4-3,5.9-3.5L5.6,7.8l1.1-1.1l34.5,34.5C41.3,41.3,40.2,42.4,40.2,42.4z M14,26.2c0.6,0,1.1-0.2,1.5-0.6
	s0.6-0.9,0.6-1.5c0-0.4-0.1-0.8-0.2-1.1c-0.1-0.4-0.3-0.7-0.7-1l0.8,0.8c-0.3-0.3-0.6-0.5-1-0.7s-0.8-0.2-1.2-0.2
	c-0.6,0-1.1,0.2-1.5,0.6s-0.6,0.9-0.6,1.5s0.2,1.1,0.6,1.5C12.9,26,13.4,26.2,14,26.2z M38.2,33.2L26.7,21.7H44v4.6h-5.7L38.2,33.2
	L38.2,33.2z"/>
</svg>
