<?xml version="1.0" encoding="utf-8"?>
<!-- Generator: Adobe Illustrator 26.3.1, SVG Export Plug-In . SVG Version: 6.00 Build 0)  -->
<svg version="1.1" id="Слой_1" xmlns="http://www.w3.org/2000/svg" xmlns:xlink="http://www.w3.org/1999/xlink" x="0px" y="0px"
	 viewBox="0 0 48 48" style="enable-background:new 0 0 48 48;" xml:space="preserve">
<path d="M14,26.2c0.6,0,1.1-0.2,1.5-0.6s0.6-0.9,0.6-1.5s-0.2-1.1-0.6-1.5C15.1,22.2,14.6,22,14,22s-1.1,0.2-1.5,0.6
	s-0.6,0.9-0.6,1.5s0.2,1.1,0.6,1.5C12.9,26,13.4,26.2,14,26.2z M41.9,34.5c-0.3,0-0.6-0.1-0.9-0.4c-0.2-0.2-0.4-0.5-0.4-0.9
	c0-0.3,0.1-0.6,0.4-0.9c0.3-0.2,0.5-0.4,0.9-0.4c0.3,0,0.6,0.1,0.9,0.4c0.2,0.2,0.4,0.5,0.4,0.9c0,0.3-0.1,0.6-0.4,0.9
	C42.5,34.3,42.2,34.5,41.9,34.5z M41.2,29.5v-9.1h1.5v9.1H41.2z M14,34c-2.8,0-5.1-1-7.1-2.9C5,29.1,4,26.8,4,24s1-5.1,2.9-7.1
	C8.9,15,11.2,14,14,14c2.5,0,4.6,0.8,6.4,2.3c1.7,1.5,2.9,3.3,3.4,5.4h12.5V34h-2.1v-7.7H23.8c-0.5,2.1-1.6,3.9-3.4,5.4
	C18.6,33.2,16.5,34,14,34z"/>
</svg>
