<?xml version="1.0" encoding="utf-8"?>
<!-- Generator: Adobe Illustrator 26.3.1, SVG Export Plug-In . SVG Version: 6.00 Build 0)  -->
<svg version="1.1" id="Слой_1" xmlns="http://www.w3.org/2000/svg" xmlns:xlink="http://www.w3.org/1999/xlink" x="0px" y="0px"
	 viewBox="0 0 48 48" style="enable-background:new 0 0 48 48;" xml:space="preserve">
<path d="M16.9,33.6c-3.2-0.8-5.8-2.5-7.8-5C7,26,6,23.1,6,19.8c0-1.7,0.3-3.3,0.9-4.9c0.6-1.5,1.4-2.9,2.4-4.2L4.9,6.4L6,5.2
	L43.8,43l-1.1,1.1L40.5,42H24c-0.8,0-1.4-0.3-2-0.8c-0.5-0.5-0.8-1.2-0.8-2V22.7l-2.9-2.9c-0.4,0.6-0.8,1.2-1,1.9
	c-0.3,0.7-0.4,1.5-0.4,2.3C16.9,24,16.9,33.6,16.9,33.6z M19.8,6c3.3,0,6.2,1,8.7,3.1s4.2,4.7,5,7.8h-9.4c-0.1,0-0.2,0-0.3,0
	c-0.1,0-0.2,0-0.3,0l-9.7-9.6c1-0.5,1.9-0.8,3-1C17.8,6.1,18.8,6,19.8,6z M27.7,21.2h11.5c0.8,0,1.4,0.3,2,0.8
	c0.5,0.5,0.8,1.2,0.8,2v11.5L27.7,21.2z M36.5,38l-3.1-3.1l-2.2,2.7l-2.1-3c-0.1-0.1-0.2-0.2-0.4-0.2c-0.2,0-0.3,0.1-0.3,0.2L26,38
	H36.5z"/>
</svg>
