<?xml version="1.0" encoding="utf-8"?>
<!-- Generator: Adobe Illustrator 26.3.1, SVG Export Plug-In . SVG Version: 6.00 Build 0)  -->
<svg version="1.1" id="Слой_1" xmlns="http://www.w3.org/2000/svg" xmlns:xlink="http://www.w3.org/1999/xlink" x="0px" y="0px"
	 viewBox="0 0 48 48" style="enable-background:new 0 0 48 48;" xml:space="preserve">
<path d="M24,42c-0.8,0-1.4-0.3-2-0.8c-0.5-0.5-0.8-1.2-0.8-2V24c0-0.8,0.3-1.4,0.8-2c0.5-0.5,1.2-0.8,2-0.8h15.2
	c0.8,0,1.4,0.3,2,0.8c0.5,0.5,0.8,1.2,0.8,2v15.2c0,0.8-0.3,1.4-0.8,2c-0.5,0.5-1.2,0.8-2,0.8H24z M26,38h12.5l-3.8-4.9l-3.5,4.7
	l-2.6-3.4C28.7,34.3,26,38,26,38z M16.9,33.6c-3.2-0.8-5.8-2.5-7.8-5C7,26,6,23.1,6,19.8c0-3.8,1.3-7.1,4-9.8s6-4,9.8-4
	c3.3,0,6.2,1,8.7,3.1s4.2,4.7,5,7.8H24c-1.9,0-3.6,0.7-5,2.1s-2.1,3.1-2.1,5C16.9,24,16.9,33.6,16.9,33.6z"/>
</svg>
