<?xml version="1.0" encoding="utf-8"?>
<!-- Generator: Adobe Illustrator 26.3.1, SVG Export Plug-In . SVG Version: 6.00 Build 0)  -->
<svg version="1.1" id="Слой_1" xmlns="http://www.w3.org/2000/svg" xmlns:xlink="http://www.w3.org/1999/xlink" x="0px" y="0px"
	 viewBox="0 0 48 48" style="enable-background:new 0 0 48 48;" xml:space="preserve">
<path d="M12,38c-1.7,0-3.1-0.6-4.2-1.8C6.6,35.1,6,33.7,6,32V16c0-1.7,0.6-3.1,1.8-4.2C8.9,10.6,10.3,10,12,10h24
	c1.7,0,3.1,0.6,4.2,1.8C41.4,13,42,14.4,42,16v16c0,1.7-0.6,3.1-1.8,4.2C39.1,37.4,37.7,38,36,38H12z M12,17.2h24
	c0.9,0,1.7,0.2,2.5,0.5s1.4,0.8,2,1.4V16c0-1.2-0.4-2.3-1.3-3.2c-0.9-0.9-1.9-1.3-3.2-1.3H12c-1.2,0-2.3,0.4-3.2,1.3
	c-0.8,0.9-1.3,2-1.3,3.2v3.1c0.6-0.6,1.2-1.1,2-1.4C10.3,17.4,11.1,17.2,12,17.2z M7.5,22.8L31,28.5c0.2,0,0.4,0,0.7,0
	c0.2,0,0.4-0.1,0.6-0.3l8-6.7c-0.3-0.8-0.9-1.5-1.6-2c-0.8-0.5-1.6-0.8-2.5-0.8H12c-1.2,0-2.2,0.4-3,1.2C8.1,20.7,7.6,21.7,7.5,22.8
	z"/>
</svg>
