<?xml version="1.0" encoding="utf-8"?>
<!-- Generator: Adobe Illustrator 26.3.1, SVG Export Plug-In . SVG Version: 6.00 Build 0)  -->
<svg version="1.1" id="Слой_1" xmlns="http://www.w3.org/2000/svg" xmlns:xlink="http://www.w3.org/1999/xlink" x="0px" y="0px"
	 viewBox="0 0 48 48" style="enable-background:new 0 0 48 48;" xml:space="preserve">
<path d="M7.5,40V30H9v10H7.5z M12.5,35.8v-1.5H22c0.9,0,1.7-0.3,2.3-0.9c0.6-0.6,0.9-1.4,0.9-2.3v-5h-9.4c-0.5,0-0.8-0.2-1.1-0.6
	s-0.3-0.8-0.2-1.2l4-13.3c0.1-0.3,0.2-0.5,0.5-0.7c0.2-0.2,0.5-0.3,0.8-0.3h12.4c0.3,0,0.6,0.1,0.8,0.3s0.4,0.4,0.5,0.7l3.9,13.2
	c0.1,0.4,0.1,0.8-0.2,1.2c-0.2,0.4-0.6,0.6-1,0.6h-9.4v5c0,1.3-0.5,2.5-1.4,3.4s-2.1,1.4-3.4,1.4C22,35.8,12.5,35.8,12.5,35.8z"/>
</svg>
