<?xml version="1.0" encoding="utf-8"?>
<!-- Generator: Adobe Illustrator 26.3.1, SVG Export Plug-In . SVG Version: 6.00 Build 0)  -->
<svg version="1.1" id="Слой_1" xmlns="http://www.w3.org/2000/svg" xmlns:xlink="http://www.w3.org/1999/xlink" x="0px" y="0px"
	 viewBox="0 0 48 48" style="enable-background:new 0 0 48 48;" xml:space="preserve">
<path d="M7,6h3.4c0.4,0,0.7,0.1,1,0.4s0.4,0.6,0.4,1V42c-0.6-0.4-1-0.8-1.2-1.2s-0.3-0.9-0.3-1.5V7.5H7c-0.2,0-0.4-0.1-0.5-0.2
	C6.3,7.2,6.2,7,6.2,6.8s0.1-0.4,0.2-0.5C6.6,6.1,6.8,6,7,6z M18.5,42c-0.7,0-1.4-0.3-1.9-0.8c-0.6-0.6-0.8-1.2-0.8-1.9V8.8
	c0-0.7,0.3-1.4,0.8-1.9C17.1,6.3,17.8,6,18.5,6H35c0.7,0,1.4,0.3,1.9,0.8c0.6,0.6,0.8,1.2,0.8,1.9v30.5c0,0.7-0.3,1.4-0.8,1.9
	C36.4,41.7,35.7,42,35,42H18.5z M17.3,23.9c0.6-0.6,1.2-1.1,2-1.4s1.6-0.5,2.5-0.5h10c0.9,0,1.7,0.2,2.5,0.5s1.4,0.8,2,1.4V8.8
	c0-0.4-0.1-0.7-0.3-0.9c-0.2-0.2-0.5-0.3-0.9-0.3H18.5c-0.4,0-0.7,0.1-0.9,0.3c-0.2,0.2-0.3,0.5-0.3,0.9
	C17.3,8.8,17.3,23.9,17.3,23.9z M26.8,17.8c-0.8,0-1.4-0.3-2-0.8c-0.5-0.5-0.8-1.2-0.8-2s0.3-1.4,0.8-2c0.5-0.5,1.2-0.8,2-0.8
	s1.4,0.3,2,0.8c0.5,0.5,0.8,1.2,0.8,2s-0.3,1.4-0.8,2C28.2,17.5,27.5,17.8,26.8,17.8z M26,36.8h1.5v-4h4v-1.5h-4v-4H26v4h-4v1.5h4
	V36.8z"/>
</svg>
