<?xml version="1.0" encoding="utf-8"?>
<!-- Generator: Adobe Illustrator 26.3.1, SVG Export Plug-In . SVG Version: 6.00 Build 0)  -->
<svg version="1.1" id="Слой_1" xmlns="http://www.w3.org/2000/svg" xmlns:xlink="http://www.w3.org/1999/xlink" x="0px" y="0px"
	 viewBox="0 0 48 48" style="enable-background:new 0 0 48 48;" xml:space="preserve">
<path d="M24.1,35.3c0.3,0,0.5-0.1,0.7-0.3s0.3-0.4,0.3-0.7s-0.1-0.5-0.3-0.7c-0.2-0.2-0.4-0.3-0.7-0.3s-0.5,0.1-0.7,0.3
	s-0.3,0.4-0.3,0.7s0.1,0.5,0.3,0.7C23.6,35.2,23.8,35.3,24.1,35.3z M39.1,34.1L20,14.9l4-7L39.1,34.1z M41,43.2L37.8,40H5.5
	l11.9-20.4L4.8,7l1.1-1.1l36.2,36.2C42.1,42.1,41,43.2,41,43.2z M23.3,31.1h1.9v-3.6l-1.9-1.9V31.1z"/>
</svg>
