<?xml version="1.0" encoding="utf-8"?>
<!-- Generator: Adobe Illustrator 26.3.1, SVG Export Plug-In . SVG Version: 6.00 Build 0)  -->
<svg version="1.1" id="Слой_1" xmlns="http://www.w3.org/2000/svg" xmlns:xlink="http://www.w3.org/1999/xlink" x="0px" y="0px"
	 viewBox="0 0 48 48" style="enable-background:new 0 0 48 48;" xml:space="preserve">
<path d="M12.8,42c-1.9,0-3.5-0.6-4.8-1.7c-1.3-1.2-2-2.7-2-4.6v-9.9c0-0.8,0.2-1.6,0.6-2.3c0.4-0.7,0.9-1.3,1.6-1.8l16.1-10.4
	l0.2,0.2c0.4,0.4,0.6,0.9,0.7,1.4c0.1,0.6-0.1,1.1-0.3,1.6l-3.7,6.2h16.1c0.2,0,0.4,0.1,0.6,0.2c0.1,0.1,0.2,0.3,0.2,0.6
	c0,0.2-0.1,0.4-0.2,0.5c-0.1,0.1-0.3,0.2-0.6,0.2H26v5h15.2c0.2,0,0.4,0.1,0.6,0.2c0.1,0.1,0.2,0.3,0.2,0.6c0,0.2-0.1,0.4-0.2,0.5
	c-0.1,0.1-0.3,0.2-0.6,0.2H26v5h13.2c0.2,0,0.4,0.1,0.6,0.2c0.1,0.1,0.2,0.3,0.2,0.6c0,0.2-0.1,0.4-0.2,0.5
	c-0.1,0.1-0.3,0.2-0.6,0.2H26v5h9.2c0.2,0,0.4,0.1,0.6,0.2c0.1,0.1,0.2,0.3,0.2,0.6c0,0.2-0.1,0.4-0.2,0.5c-0.1,0.1-0.3,0.2-0.6,0.2
	C35.2,42,12.8,42,12.8,42z M35.8,15.6c-1,0-1.9-0.4-2.6-1.2c-0.8-0.8-1.1-1.6-1.1-2.6c0-0.9,0.3-2,0.9-3.1c0.6-1.1,1.6-2.5,2.9-4.2
	c1.3,1.7,2.3,3.1,2.9,4.2c0.6,1.1,0.9,2.1,0.9,3.1s-0.4,1.9-1.2,2.6C37.6,15.2,36.7,15.6,35.8,15.6z"/>
</svg>
