<?xml version="1.0" encoding="utf-8"?>
<!-- Generator: Adobe Illustrator 26.3.1, SVG Export Plug-In . SVG Version: 6.00 Build 0)  -->
<svg version="1.1" id="Слой_1" xmlns="http://www.w3.org/2000/svg" xmlns:xlink="http://www.w3.org/1999/xlink" x="0px" y="0px"
	 viewBox="0 0 48 48" style="enable-background:new 0 0 48 48;" xml:space="preserve">
<path d="M8.8,32.8c-0.8-1.3-1.4-2.7-1.7-4.2s-0.6-3-0.6-4.6s0.2-3.1,0.6-4.6s1-2.9,1.7-4.1l1.3,0.8c-0.7,1.2-1.2,2.4-1.6,3.8
	C8.2,21.1,8,22.5,8,24s0.2,2.9,0.6,4.2c0.4,1.3,0.9,2.6,1.6,3.8L8.8,32.8z M39.2,32.8L37.9,32c0.7-1.2,1.2-2.4,1.6-3.8
	c0.4-1.3,0.6-2.7,0.6-4.2s-0.2-2.9-0.5-4.2c-0.4-1.3-0.9-2.6-1.6-3.8l1.3-0.8c0.8,1.3,1.4,2.7,1.7,4.1c0.4,1.5,0.6,3,0.6,4.6
	S41.4,27,41,28.5C40.6,30.1,40,31.4,39.2,32.8z M20.1,42L18,34.4c-1.8-0.9-3.2-2.3-4.3-4.2C12.6,28.4,12,26.3,12,24s0.6-4.4,1.7-6.2
	c1.1-1.9,2.5-3.2,4.3-4.2L20.1,6H28l2.1,7.6c1.8,0.9,3.2,2.3,4.3,4.2c1.1,1.8,1.7,3.9,1.7,6.2s-0.6,4.4-1.7,6.2
	c-1.1,1.8-2.5,3.2-4.3,4.2L27.9,42H20.1z M24,34.5c2.9,0,5.4-1,7.4-3s3-4.5,3-7.4s-1-5.4-3-7.4s-4.5-3-7.4-3s-5.4,1-7.4,3
	s-3,4.5-3,7.4s1,5.4,3,7.4C18.6,33.4,21.1,34.5,24,34.5z"/>
</svg>
