<?xml version="1.0" encoding="utf-8"?>
<!-- Generator: Adobe Illustrator 26.3.1, SVG Export Plug-In . SVG Version: 6.00 Build 0)  -->
<svg version="1.1" id="Слой_1" xmlns="http://www.w3.org/2000/svg" xmlns:xlink="http://www.w3.org/1999/xlink" x="0px" y="0px"
	 viewBox="0 0 48 48" style="enable-background:new 0 0 48 48;" xml:space="preserve">
<path d="M39.2,43l-8.9-8.9l-0.2,0.2l-1.7,6.1h-8.8l-1.6-6c-1.7-0.9-3.2-2.2-4.3-4.1C12.6,28.5,12,26.4,12,24c0-1.1,0.1-2.2,0.4-3.3
	c0.3-1.1,0.7-2.1,1.3-3.1L5,8.8l1.1-1.1L40.3,42L39.2,43z M24,34.5c0.9,0,1.8-0.1,2.7-0.4c0.9-0.2,1.7-0.6,2.5-1L14.9,18.8
	c-0.5,0.8-0.8,1.7-1.1,2.6c-0.2,0.9-0.3,1.8-0.3,2.6c0,2.9,1,5.4,3,7.4C18.6,33.4,21.1,34.5,24,34.5z M34.1,30.7l-1.2-1.1
	c0.5-0.8,0.8-1.6,1.1-2.5s0.4-1.9,0.4-3c0-2.9-1-5.4-3-7.4s-4.5-3-7.4-3c-1.1,0-2.1,0.2-3.1,0.5s-1.8,0.7-2.5,1.1l-0.8-0.8l0.2-0.1
	l1.8-6.6h8.8l1.6,6c1.9,1,3.3,2.4,4.4,4.3C35.5,20,36,22,36,24.2c0,1.2-0.2,2.4-0.5,3.6C35.1,28.7,34.6,29.8,34.1,30.7z"/>
</svg>
