<?xml version="1.0" encoding="utf-8"?>
<!-- Generator: Adobe Illustrator 26.3.1, SVG Export Plug-In . SVG Version: 6.00 Build 0)  -->
<svg version="1.1" id="Слой_1" xmlns="http://www.w3.org/2000/svg" xmlns:xlink="http://www.w3.org/1999/xlink" x="0px" y="0px"
	 viewBox="0 0 48 48" style="enable-background:new 0 0 48 48;" xml:space="preserve">
<path d="M21.9,28.6L18,24.7l1.1-1.1l2.8,2.8l7.1-7l1.1,1.1L21.9,28.6z M20.1,42L18,34.4c-1.8-0.9-3.2-2.3-4.3-4.2
	C12.6,28.4,12,26.3,12,24s0.6-4.4,1.7-6.2c1.1-1.9,2.5-3.2,4.3-4.2L20.1,6H28l2.1,7.6c1.8,0.9,3.2,2.3,4.3,4.2
	c1.1,1.8,1.7,3.9,1.7,6.2s-0.6,4.4-1.7,6.2c-1.1,1.8-2.5,3.2-4.3,4.2L27.9,42H20.1z M24,34.5c2.9,0,5.4-1,7.4-3s3-4.5,3-7.4
	s-1-5.4-3-7.4s-4.5-3-7.4-3s-5.4,1-7.4,3s-3,4.5-3,7.4s1,5.4,3,7.4C18.6,33.4,21.1,34.5,24,34.5z"/>
</svg>
