<?xml version="1.0" encoding="utf-8"?>
<!-- Generator: Adobe Illustrator 26.3.1, SVG Export Plug-In . SVG Version: 6.00 Build 0)  -->
<svg version="1.1" id="Слой_1" xmlns="http://www.w3.org/2000/svg" xmlns:xlink="http://www.w3.org/1999/xlink" x="0px" y="0px"
	 viewBox="0 0 48 48" style="enable-background:new 0 0 48 48;" xml:space="preserve">
<path d="M19.2,27.8v-7.5H21v7.5H19.2z M23.1,27.8v-5.5h1.8v5.5H23.1z M27,27.8v-3.5h1.8v3.5H27z M19.6,40.4l-1.6-6
	c-1.8-0.9-3.2-2.3-4.3-4.2C12.6,28.4,12,26.3,12,24s0.6-4.4,1.7-6.2c1.1-1.9,2.5-3.2,4.3-4.2l1.6-6h8.8l1.6,6
	c1.8,0.9,3.2,2.3,4.3,4.2c1.1,1.8,1.7,3.9,1.7,6.2s-0.6,4.4-1.7,6.2c-1.1,1.8-2.5,3.2-4.3,4.2l-1.6,6C28.4,40.4,19.6,40.4,19.6,40.4
	z M24,34.5c2.9,0,5.4-1,7.4-3s3-4.5,3-7.4s-1-5.4-3-7.4s-4.5-3-7.4-3s-5.4,1-7.4,3s-3,4.5-3,7.4s1,5.4,3,7.4
	C18.6,33.4,21.1,34.5,24,34.5z"/>
</svg>
