<?xml version="1.0" encoding="utf-8"?>
<!-- Generator: Adobe Illustrator 26.3.1, SVG Export Plug-In . SVG Version: 6.00 Build 0)  -->
<svg version="1.1" id="Слой_1" xmlns="http://www.w3.org/2000/svg" xmlns:xlink="http://www.w3.org/1999/xlink" x="0px" y="0px"
	 viewBox="0 0 48 48" style="enable-background:new 0 0 48 48;" xml:space="preserve">
<path d="M36.6,24V8.1h1.5V24C38.2,24,36.6,24,36.6,24z M15.1,40.4l-1.6-6c-1.8-0.9-3.2-2.3-4.3-4.2c-1.1-1.8-1.7-3.9-1.7-6.2
	s0.6-4.4,1.7-6.2c1.1-1.9,2.5-3.2,4.3-4.2l1.6-6h8.8l1.6,6c1.8,0.9,3.2,2.3,4.3,4.2c1.1,1.8,1.7,3.9,1.7,6.2s-0.6,4.4-1.7,6.2
	c-1.1,1.8-2.5,3.2-4.3,4.2l-1.6,6C23.9,40.4,15.1,40.4,15.1,40.4z M19.5,34.5c2.9,0,5.4-1,7.4-3s3-4.5,3-7.4s-1-5.4-3-7.4
	s-4.5-3-7.4-3s-5.4,1-7.4,3s-3,4.5-3,7.4s1,5.4,3,7.4C14.1,33.4,16.6,34.5,19.5,34.5z"/>
</svg>
