<?xml version="1.0" encoding="utf-8"?>
<!-- Generator: Adobe Illustrator 26.3.1, SVG Export Plug-In . SVG Version: 6.00 Build 0)  -->
<svg version="1.1" id="Слой_1" xmlns="http://www.w3.org/2000/svg" xmlns:xlink="http://www.w3.org/1999/xlink" x="0px" y="0px"
	 viewBox="0 0 48 48" style="enable-background:new 0 0 48 48;" xml:space="preserve">
<path d="M22.8,42V31.2h7.3c0.4,0,0.8,0.2,1,0.5c0.3,0.3,0.4,0.7,0.4,1.1v3.9c0,0.4-0.1,0.8-0.4,1c-0.3,0.3-0.6,0.4-1,0.4h-5.8V42
	H22.8z M34.9,42V31.2h1.5v4.2h5.9v-4.2h1.5V42h-1.5v-5.1h-5.9V42H34.9z M24.3,36.7h5.8v-4h-5.8V36.7z M19.3,42
	c-3.8-0.2-7-1.6-9.5-4.3C7.3,34.9,6,31.6,6,27.6c0-2.9,1.2-6,3.5-9.5S15.3,10.8,20,6.6c4.6,4.1,8,7.8,10.3,11.2s3.5,6.5,3.7,9.4v0.3
	c0,0.1,0,0.2,0,0.3H22.1c-0.8,0-1.4,0.3-1.9,0.8s-0.8,1.2-0.8,1.9V42H19.3z"/>
</svg>
