<?xml version="1.0" encoding="utf-8"?>
<!-- Generator: Adobe Illustrator 26.3.1, SVG Export Plug-In . SVG Version: 6.00 Build 0)  -->
<svg version="1.1" id="Слой_1" xmlns="http://www.w3.org/2000/svg" xmlns:xlink="http://www.w3.org/1999/xlink" x="0px" y="0px"
	 viewBox="0 0 48 48" style="enable-background:new 0 0 48 48;" xml:space="preserve">
<path d="M16.5,22.1c0,1.6,0.4,3,1.3,4.2c0.9,1.2,2,2.1,3.4,2.7c-0.3-0.3-0.6-0.7-0.8-1.2c-0.2-0.5-0.3-0.9-0.3-1.4s0.1-1,0.3-1.5
	c0.2-0.5,0.5-0.9,0.9-1.2l2.8-2.8l2.8,2.8c0.4,0.4,0.7,0.8,0.9,1.2s0.3,1,0.3,1.5s-0.1,1-0.3,1.4c-0.2,0.4-0.5,0.9-0.8,1.2
	c1.4-0.6,2.5-1.4,3.3-2.7c0.9-1.2,1.3-2.6,1.3-4.2c0-1.3-0.3-2.5-0.8-3.6c-0.6-1.1-1.3-2-2.3-2.6L28,16.2c-0.2,0.2-0.5,0.4-0.8,0.5
	s-0.6,0.2-1,0.2c-0.8,0-1.5-0.3-2.1-0.8c-0.6-0.6-0.9-1.3-0.9-2.1v-2c-0.3,0.2-0.9,0.6-1.6,1.2c-0.7,0.5-1.5,1.2-2.2,2.1
	c-0.8,0.8-1.4,1.8-2,3C16.8,19.4,16.5,20.6,16.5,22.1z M24,22.3l-2,2c-0.3,0.3-0.5,0.6-0.6,0.9c-0.2,0.4-0.2,0.7-0.2,1.1
	c0,0.8,0.3,1.4,0.8,2c0.6,0.5,1.2,0.8,2,0.8s1.5-0.3,2-0.8c0.6-0.5,0.8-1.2,0.8-2c0-0.4-0.1-0.8-0.2-1.1c-0.2-0.4-0.4-0.7-0.6-0.9
	L24,22.3z M11.8,43c-0.8,0-1.4-0.3-1.9-0.8C9.3,41.6,9,41,9,40.2V12c0-1.9,0.7-3.6,2-5c1.4-1.4,3-2,5-2h16c1.9,0,3.6,0.7,5,2
	c1.4,1.4,2,3,2,5v28.2c0,0.8-0.3,1.4-0.8,1.9c-0.6,0.6-1.2,0.9-2,0.9H11.8z M17.8,35.2c1.3,0,2.3-0.3,2.9-1s1.7-1,3.4-1
	c1.6,0,2.7,0.3,3.4,1c0.7,0.7,1.6,1,2.8,1c1.2,0,2.2-0.3,2.9-1s2.2-1,4.3-1V12c0-1.5-0.5-2.8-1.6-3.9S33.5,6.5,32,6.5H16
	c-1.5,0-2.8,0.5-3.9,1.6s-1.6,2.4-1.6,3.9v21.2c2.1,0,3.6,0.3,4.3,1S16.5,35.2,17.8,35.2z"/>
</svg>
