<?xml version="1.0" encoding="utf-8"?>
<!-- Generator: Adobe Illustrator 26.3.1, SVG Export Plug-In . SVG Version: 6.00 Build 0)  -->
<svg version="1.1" id="Слой_1" xmlns="http://www.w3.org/2000/svg" xmlns:xlink="http://www.w3.org/1999/xlink" x="0px" y="0px"
	 viewBox="0 0 48 48" style="enable-background:new 0 0 48 48;" xml:space="preserve">
<path d="M12,38V18.8l-7.1,5.3L4,22.9L24,8l20,14.9l-0.9,1.2L36,18.8V38H12z M24,30.8c0.8,0,1.4-0.3,2-0.8c0.5-0.5,0.8-1.2,0.8-2
	c0-0.6-0.1-1.2-0.4-1.7s-1.1-1.7-2.3-3.6c-1.3,1.9-2.1,3.1-2.4,3.6s-0.4,1-0.4,1.7c0,0.8,0.3,1.4,0.8,2C22.6,30.5,23.2,30.8,24,30.8
	z"/>
</svg>
