<?xml version="1.0" encoding="utf-8"?>
<!-- Generator: Adobe Illustrator 26.3.1, SVG Export Plug-In . SVG Version: 6.00 Build 0)  -->
<svg version="1.1" id="Слой_1" xmlns="http://www.w3.org/2000/svg" xmlns:xlink="http://www.w3.org/1999/xlink" x="0px" y="0px"
	 viewBox="0 0 48 48" style="enable-background:new 0 0 48 48;" xml:space="preserve">
<path d="M30,43.8l-0.5-1.1c-0.2-0.5-0.4-1.1-0.5-1.6c-0.1-0.6-0.2-1.1-0.2-1.7c0-0.7,0.1-1.4,0.3-2.1c0.2-0.7,0.4-1.4,0.7-2
	c0.3-0.6,0.5-1.2,0.7-1.8s0.3-1.2,0.3-1.9c0-0.6-0.1-1.1-0.2-1.7c-0.1-0.5-0.3-1.1-0.5-1.6l-0.3-0.7l1.2-0.5l0.4,1.1
	c0.2,0.5,0.4,1.1,0.5,1.7s0.2,1.1,0.2,1.7c0,0.7-0.1,1.4-0.3,2c-0.2,0.7-0.4,1.3-0.7,2c-0.3,0.6-0.5,1.2-0.7,1.8s-0.3,1.3-0.3,2
	c0,0.5,0.1,1,0.2,1.6c0.1,0.5,0.3,1,0.5,1.5l0.4,0.9C31.2,43.3,30,43.8,30,43.8z M36,43.8l-0.5-1.1c-0.2-0.5-0.4-1.1-0.5-1.6
	c-0.1-0.6-0.2-1.1-0.2-1.7c0-0.7,0.1-1.4,0.3-2.1c0.2-0.7,0.4-1.4,0.7-2s0.5-1.2,0.7-1.8s0.3-1.2,0.3-1.9c0-0.6-0.1-1.1-0.2-1.7
	c-0.1-0.5-0.3-1.1-0.5-1.6l-0.3-0.7l1.2-0.5l0.4,1c0.2,0.5,0.4,1.1,0.5,1.7s0.2,1.1,0.2,1.7c0,0.7-0.1,1.3-0.2,2
	c-0.2,0.7-0.4,1.3-0.7,1.9c-0.3,0.6-0.5,1.3-0.8,1.9c-0.2,0.6-0.3,1.3-0.3,2c0,0.5,0.1,1,0.2,1.6c0.1,0.5,0.3,1,0.5,1.5l0.4,0.9
	C37.2,43.3,36,43.8,36,43.8z M42,43.8l-0.5-1.1c-0.2-0.5-0.4-1.1-0.5-1.6c-0.1-0.6-0.2-1.1-0.2-1.7c0-0.7,0.1-1.4,0.3-2.1
	c0.2-0.7,0.4-1.4,0.7-2s0.5-1.2,0.7-1.8s0.3-1.2,0.3-1.9c0-0.6-0.1-1.1-0.2-1.7c-0.1-0.5-0.3-1.1-0.5-1.6l-0.3-0.7l1.2-0.5l0.5,1
	c0.3,0.5,0.4,1.1,0.5,1.7s0.1,1.1,0.2,1.7c0,0.7-0.1,1.3-0.2,2c-0.2,0.7-0.4,1.3-0.7,1.9c-0.3,0.7-0.5,1.3-0.8,1.9
	c-0.2,0.6-0.3,1.3-0.3,2c0,0.5,0.1,1,0.2,1.6c0.1,0.5,0.3,1,0.5,1.5l0.4,0.9C43.2,43.3,42,43.8,42,43.8z M10,27.6
	c0-2.9,1.2-6,3.5-9.5S19.3,10.8,24,6.6c3.6,3.2,6.6,6.3,8.8,9.1s3.7,5.5,4.5,7.9H28c-0.8,0-1.4,0.3-2,0.8c-0.5,0.5-0.8,1.2-0.8,2V42
	c-0.2,0-0.4,0-0.7,0H24c-4,0-7.3-1.4-10-4.1C11.3,35.1,10,31.7,10,27.6z"/>
</svg>
