<?xml version="1.0" encoding="utf-8"?>
<!-- Generator: Adobe Illustrator 26.3.1, SVG Export Plug-In . SVG Version: 6.00 Build 0)  -->
<svg version="1.1" id="Слой_1" xmlns="http://www.w3.org/2000/svg" xmlns:xlink="http://www.w3.org/1999/xlink" x="0px" y="0px"
	 viewBox="0 0 48 48" style="enable-background:new 0 0 48 48;" xml:space="preserve">
<path d="M12.4,31.5c1.5-0.7,3.1-1.3,4.7-1.7c1.6-0.4,3.3-0.6,5-0.6c1,0,1.9,0.1,2.9,0.2s1.9,0.3,2.8,0.6c1.8,0.5,3.1,0.8,4.1,1
	c0.9,0.2,2,0.2,3,0.2h0.6l2.6-23.7H9.7L12.4,31.5z M14.6,42c-0.7,0-1.4-0.2-1.9-0.7s-0.8-1-0.9-1.8L8,6h32l-3.8,33.5
	c-0.1,0.7-0.4,1.3-0.9,1.8S34.2,42,33.4,42H14.6z"/>
</svg>
