<?xml version="1.0" encoding="utf-8"?>
<!-- Generator: Adobe Illustrator 26.3.1, SVG Export Plug-In . SVG Version: 6.00 Build 0)  -->
<svg version="1.1" id="Слой_1" xmlns="http://www.w3.org/2000/svg" xmlns:xlink="http://www.w3.org/1999/xlink" x="0px" y="0px"
	 viewBox="0 0 48 48" style="enable-background:new 0 0 48 48;" xml:space="preserve">
<path d="M11,18.4c1.7-1,3.5-1.8,5.4-2.3s3.8-0.8,5.8-0.8c1,0,1.9,0.1,2.9,0.2c1,0.1,1.9,0.3,2.8,0.6c1.8,0.5,3.1,0.8,4.1,1
	c0.9,0.2,2,0.2,3,0.2h2.2l1-9.7H9.7C9.7,7.5,11,18.4,11,18.4z M14.6,42c-0.7,0-1.4-0.2-1.9-0.7s-0.8-1-0.9-1.8L8,6h32l-3.8,33.5
	c-0.1,0.7-0.4,1.3-0.9,1.8S34.2,42,33.4,42H14.6z"/>
</svg>
