<?xml version="1.0" encoding="utf-8"?>
<!-- Generator: Adobe Illustrator 26.3.1, SVG Export Plug-In . SVG Version: 6.00 Build 0)  -->
<svg version="1.1" id="Слой_1" xmlns="http://www.w3.org/2000/svg" xmlns:xlink="http://www.w3.org/1999/xlink" x="0px" y="0px"
	 viewBox="0 0 48 48" style="enable-background:new 0 0 48 48;" xml:space="preserve">
<path d="M24.1,37.2c0.4,0,0.6-0.1,0.8-0.2c0.2-0.1,0.3-0.3,0.3-0.5s-0.1-0.4-0.3-0.5c-0.2-0.1-0.5-0.2-0.8-0.2
	c-1.4,0.1-2.9-0.4-4.5-1.4c-1.7-1-2.7-2.6-3.1-4.8c0-0.3-0.1-0.5-0.3-0.6s-0.3-0.2-0.5-0.2s-0.4,0.1-0.5,0.3
	c-0.1,0.2-0.2,0.4-0.1,0.7c0.5,2.7,1.7,4.6,3.7,5.8C20.7,36.7,22.5,37.2,24.1,37.2z M24,42c-4,0-7.3-1.4-10-4.1
	c-2.7-2.7-4-6.2-4-10.3c0-2.9,1.2-6,3.5-9.5S19.3,10.8,24,6.6c4.7,4.2,8.2,8,10.5,11.5s3.5,6.7,3.5,9.5c0,4.1-1.3,7.5-4,10.3
	C31.3,40.6,28,42,24,42z"/>
</svg>
