<?xml version="1.0" encoding="utf-8"?>
<!-- Generator: Adobe Illustrator 26.3.1, SVG Export Plug-In . SVG Version: 6.00 Build 0)  -->
<svg version="1.1" id="Слой_1" xmlns="http://www.w3.org/2000/svg" xmlns:xlink="http://www.w3.org/1999/xlink" x="0px" y="0px"
	 viewBox="0 0 48 48" style="enable-background:new 0 0 48 48;" xml:space="preserve">
<path d="M24,20l-1.3,1.9c-0.6,1-1.1,1.7-1.2,2c-0.2,0.4-0.3,0.8-0.3,1.4c0,0.8,0.3,1.4,0.8,2s1.2,0.8,2,0.8s1.4-0.3,2-0.8
	c0.5-0.5,0.8-1.2,0.8-2c0-0.5-0.1-1-0.3-1.4c-0.2-0.4-0.6-1.1-1.2-2C25.3,21.8,24,20,24,20z M24,35.7c-3.2,0-6-1.1-8.2-3.4
	c-2.3-2.3-3.4-5-3.4-8.3c0-3.2,1.1-6,3.4-8.2c2.3-2.3,5-3.4,8.3-3.4c3.2,0,6,1.1,8.2,3.4c2.3,2.3,3.4,5,3.4,8.3c0,3.2-1.1,6-3.4,8.3
	C30,34.5,27.2,35.7,24,35.7z M41.5,22.5V21H37c-0.4-2-1.3-3.8-2.5-5.3c-1.2-1.6-2.7-2.8-4.5-3.7h11.4v-1.5H43v12.1
	C43,22.5,41.5,22.5,41.5,22.5z M5,37.5v-12h1.5V27H11c0.4,2,1.3,3.8,2.5,5.3c1.2,1.6,2.7,2.8,4.5,3.7H6.5v1.5H5z"/>
</svg>
