<?xml version="1.0" encoding="utf-8"?>
<!-- Generator: Adobe Illustrator 26.3.1, SVG Export Plug-In . SVG Version: 6.00 Build 0)  -->
<svg version="1.1" id="Слой_1" xmlns="http://www.w3.org/2000/svg" xmlns:xlink="http://www.w3.org/1999/xlink" x="0px" y="0px"
	 viewBox="0 0 48 48" style="enable-background:new 0 0 48 48;" xml:space="preserve">
<path d="M4.5,15.2c0-3,1.1-5.5,3.2-7.6s4.6-3.2,7.6-3.2v1.5c-2.6,0-4.8,0.9-6.6,2.7S6,12.6,6,15.2C6,15.3,4.5,15.2,4.5,15.2z
	 M11,36.8c-2.7-2.7-4-5.9-4-9.6s1.4-6.9,4.1-9.6l4.8-4.8l1.4,1.4c0.6,0.6,1,1.4,1,2.2c0.1,0.8-0.2,1.5-0.8,2.1l-2.3,2.3
	c-0.3,0.3-0.4,0.6-0.4,1s0.1,0.7,0.4,1l0.1,0.1c0.9,0.9,1.4,2,1.4,3.3s-0.5,2.4-1.4,3.3l-1.2,1.2l1,1l1.2-1.2
	c1.2-1.2,1.8-2.6,1.8-4.3s-0.6-3.1-1.8-4.3l0,0l2.6-2.6c0.3-0.4,0.6-0.8,0.7-1.2c0.2-0.4,0.2-0.9,0.2-1.3l7.6-7.7
	C27.6,9,27.8,8.9,28,8.9s0.4,0.1,0.5,0.2c0.2,0.2,0.3,0.4,0.3,0.6c0,0.2-0.1,0.4-0.3,0.5l-9.3,9.3l3.6,3.6L35,11
	c0.1-0.2,0.3-0.3,0.5-0.3s0.4,0.1,0.6,0.3c0.1,0.2,0.2,0.4,0.2,0.6c0,0.2-0.1,0.4-0.2,0.6l-12.2,12l3.7,3.7l10.8-10.8
	c0.2-0.1,0.4-0.2,0.6-0.2c0.2,0,0.4,0.1,0.6,0.2c0.2,0.2,0.3,0.4,0.3,0.6s-0.1,0.4-0.3,0.5L28.7,28.9l3.7,3.7L40,25
	c0.2-0.1,0.4-0.2,0.6-0.2c0.2,0,0.4,0.1,0.5,0.2c0.2,0.2,0.3,0.4,0.3,0.5c0,0.2-0.1,0.4-0.3,0.6L30.3,36.9c-2.7,2.7-5.9,4-9.7,4
	C16.9,40.9,13.7,39.5,11,36.8z M32.8,43.5V42c2.6,0,4.8-0.9,6.6-2.7s2.7-4,2.7-6.6h1.5c0,3-1.1,5.5-3.2,7.6
	C38.3,42.5,35.7,43.5,32.8,43.5z"/>
</svg>
