<?xml version="1.0" encoding="utf-8"?>
<!-- Generator: Adobe Illustrator 26.3.1, SVG Export Plug-In . SVG Version: 6.00 Build 0)  -->
<svg version="1.1" id="Слой_1" xmlns="http://www.w3.org/2000/svg" xmlns:xlink="http://www.w3.org/1999/xlink" x="0px" y="0px"
	 viewBox="0 0 48 48" style="enable-background:new 0 0 48 48;" xml:space="preserve">
<path d="M12.4,27.8v-7.6h23.2v7.6H12.4z M23.3,9.5V4.9h1.5v4.5h-1.5V9.5z M36.6,14.5l-1.1-1.1l2.9-2.9l1.1,1.1L36.6,14.5z
	 M23.3,42.9v-4.5h1.5v4.5H23.3z M38.4,37.3l-2.9-2.9l1.1-1.1l2.9,2.9L38.4,37.3z M11.4,14.5l-2.9-2.9l1.1-1.1l2.9,2.9L11.4,14.5z
	 M9.6,37.3l-1.1-1.1l2.9-2.9l1.1,1.1L9.6,37.3z"/>
</svg>
