<?xml version="1.0" encoding="utf-8"?>
<!-- Generator: Adobe Illustrator 26.3.1, SVG Export Plug-In . SVG Version: 6.00 Build 0)  -->
<svg version="1.1" id="Слой_1" xmlns="http://www.w3.org/2000/svg" xmlns:xlink="http://www.w3.org/1999/xlink" x="0px" y="0px"
	 viewBox="0 0 48 48" style="enable-background:new 0 0 48 48;" xml:space="preserve">
<path d="M23.2,43v-5.4h1.5V43H23.2z M5,24.8v-1.5h5.4v1.5H5z M37.6,24.8v-1.5H43v1.5H37.6z M36.5,38.2l-3.8-3.8l1.1-1.1l3.8,3.8
	C37.6,37.1,36.5,38.2,36.5,38.2z M11.5,38.2l-1.1-1.1l3.8-3.8l1.1,1.1L11.5,38.2z M24,31.6c-2.1,0-3.9-0.7-5.4-2.2s-2.2-3.3-2.2-5.4
	c0-1.5,0.4-2.8,1.1-4s1.7-2.1,2.9-2.8V9.4h7.2v7.9c1.2,0.7,2.2,1.6,2.9,2.8c0.7,1.2,1.1,2.5,1.1,4c0,2.1-0.7,3.9-2.2,5.4
	C27.9,30.9,26.1,31.6,24,31.6z M21.9,16.8c0.3-0.1,0.7-0.2,1-0.3c0.3-0.1,0.7-0.1,1-0.1s0.7,0,1.1,0.1c0.3,0,0.7,0.1,1,0.3v-5.9
	h-4.1V16.8z"/>
</svg>
