<?xml version="1.0" encoding="utf-8"?>
<!-- Generator: Adobe Illustrator 26.3.1, SVG Export Plug-In . SVG Version: 6.00 Build 0)  -->
<svg version="1.1" id="Слой_1" xmlns="http://www.w3.org/2000/svg" xmlns:xlink="http://www.w3.org/1999/xlink" x="0px" y="0px"
	 viewBox="0 0 48 48" style="enable-background:new 0 0 48 48;" xml:space="preserve">
<path d="M12.1,43V29H9.4V17.8c0-0.8,0.3-1.5,0.8-2c0.5-0.6,1.2-0.8,2-0.8h5c0.8,0,1.4,0.3,2,0.8c0.5,0.6,0.8,1.2,0.8,2V29h-2.8v14
	H12.1z M14.7,12.6c-0.9,0-1.7-0.3-2.3-0.9c-0.6-0.6-0.9-1.4-0.9-2.3c0-0.9,0.3-1.7,0.9-2.3c0.6-0.6,1.4-0.9,2.3-0.9
	c0.9,0,1.7,0.3,2.3,0.9s0.9,1.4,0.9,2.3c0,0.9-0.3,1.7-0.9,2.3C16.4,12.3,15.6,12.6,14.7,12.6z M31.7,43V32h-4.5l3.6-15.1
	c0.2-0.6,0.5-1,1-1.4c0.5-0.3,1.1-0.5,1.7-0.5s1.2,0.2,1.7,0.5s0.8,0.8,1,1.4L39.9,32h-4.5v11H31.7z M33.6,12.6
	c-0.9,0-1.7-0.3-2.3-0.9c-0.6-0.6-0.9-1.4-0.9-2.3c0-0.9,0.3-1.7,0.9-2.3s1.4-0.9,2.3-0.9c0.9,0,1.7,0.3,2.3,0.9s0.9,1.4,0.9,2.3
	c0,0.9-0.3,1.7-0.9,2.3C35.2,12.3,34.5,12.6,33.6,12.6z"/>
</svg>
