<?xml version="1.0" encoding="utf-8"?>
<!-- Generator: Adobe Illustrator 26.3.1, SVG Export Plug-In . SVG Version: 6.00 Build 0)  -->
<svg version="1.1" id="Слой_1" xmlns="http://www.w3.org/2000/svg" xmlns:xlink="http://www.w3.org/1999/xlink" x="0px" y="0px"
	 viewBox="0 0 48 48" style="enable-background:new 0 0 48 48;" xml:space="preserve">
<path d="M26.2,43.9l-2-2l2-2l2,2L26.2,43.9z M19.3,40.9l-1.1-1.1l4.9-4.9l1.1,1.1C24.2,36,19.3,40.9,19.3,40.9z M32.2,37.9l-2-2l2-2
	l2,2L32.2,37.9z M14.2,37.9l-2-2l2-2l2,2L14.2,37.9z M14.8,30.5c-2.7,0-5-1-6.9-2.9S5,23.5,5,20.8c0-2.5,0.9-4.7,2.6-6.6
	c1.8-1.9,4-2.9,6.7-3.1c1-1.9,2.3-3.3,4-4.4C20,5.5,21.9,5,24,5c2.9,0,5.3,1,7.3,2.9s3.1,4.3,3.5,7.1c2.6,0.1,4.7,0.9,6.1,2.5
	c1.4,1.5,2.1,3.3,2.1,5.3c0,2.2-0.8,4-2.3,5.5s-3.3,2.3-5.5,2.3C35.2,30.5,14.8,30.5,14.8,30.5z"/>
</svg>
