<?xml version="1.0" encoding="utf-8"?>
<!-- Generator: Adobe Illustrator 26.3.1, SVG Export Plug-In . SVG Version: 6.00 Build 0)  -->
<svg version="1.1" id="Слой_1" xmlns="http://www.w3.org/2000/svg" xmlns:xlink="http://www.w3.org/1999/xlink" x="0px" y="0px"
	 viewBox="0 0 48 48" style="enable-background:new 0 0 48 48;" xml:space="preserve">
<path d="M4.9,23.2v-1.5H11v1.5H4.9z M10.6,34.7l-1-1l4.3-4.3l1,1L10.6,34.7z M13.8,15.3L9.5,11l1-1l4.2,4.3L13.8,15.3z M34.4,37
	l-8.8-8.8l-1.8,5.5l-4-13.5l13.5,4.2l-5.6,2l8.7,8.7C36.4,35,34.4,37,34.4,37z M21.1,12.1V6h1.5v6.1H21.1z M29.9,15.3l-1-1l4.3-4.3
	l1,1.1L29.9,15.3z"/>
</svg>
