<?xml version="1.0" encoding="utf-8"?>
<!-- Generator: Adobe Illustrator 26.3.1, SVG Export Plug-In . SVG Version: 6.00 Build 0)  -->
<svg version="1.1" id="Слой_1" xmlns="http://www.w3.org/2000/svg" xmlns:xlink="http://www.w3.org/1999/xlink" x="0px" y="0px"
	 viewBox="0 0 48 48" style="enable-background:new 0 0 48 48;" xml:space="preserve">
<path d="M34.7,39.7V8.3c0.7,0.1,1.3,0.4,1.7,0.9s0.6,1.1,0.6,1.9v25.8c0,0.8-0.2,1.4-0.6,1.9C36,39.2,35.4,39.5,34.7,39.7z M11,42.5
	c-0.8,0-1.4-0.3-2-0.8c-0.5-0.5-0.8-1.2-0.8-2V8.3c0-0.8,0.3-1.4,0.8-2c0.5-0.5,1.2-0.8,2-0.8h18.5c0.8,0,1.4,0.3,2,0.8
	c0.5,0.5,0.8,1.2,0.8,2v31.4c0,0.8-0.3,1.4-0.8,2c-0.5,0.5-1.2,0.8-2,0.8H11z M39.5,36.9V11.1c0.4,0.1,0.8,0.3,1,0.6
	s0.3,0.7,0.3,1.2v22.2c0,0.5-0.1,0.9-0.3,1.2C40.2,36.5,39.9,36.7,39.5,36.9z"/>
</svg>
