<?xml version="1.0" encoding="utf-8"?>
<!-- Generator: Adobe Illustrator 26.3.1, SVG Export Plug-In . SVG Version: 6.00 Build 0)  -->
<svg version="1.1" id="Слой_1" xmlns="http://www.w3.org/2000/svg" xmlns:xlink="http://www.w3.org/1999/xlink" x="0px" y="0px"
	 viewBox="0 0 48 48" style="enable-background:new 0 0 48 48;" xml:space="preserve">
<path d="M7.6,36.9c-1,0-1.9-0.4-2.6-1.1s-1-1.6-1-2.6V22.7c0-0.8,0.3-1.4,0.8-2c0.5-0.5,1.2-0.8,2-0.8s1.4,0.3,2,0.8s0.8,1.2,0.8,2
	v7h28.8v-7c0-0.8,0.3-1.4,0.8-2c0.6-0.5,1.2-0.8,2-0.8s1.4,0.3,2,0.8c0.5,0.5,0.8,1.2,0.8,2v10.5c0,1-0.3,1.9-1,2.6
	c-0.7,0.7-1.5,1.1-2.6,1.1C40.4,36.9,7.6,36.9,7.6,36.9z M11.1,28.2v-5.9c0-1-0.3-1.9-0.9-2.6c-0.6-0.7-1.4-1.2-2.4-1.3v-2.9
	c0-1,0.3-1.9,1-2.7c0.7-0.7,1.6-1.1,2.6-1.1h25.1c1,0,1.9,0.4,2.5,1.1c0.7,0.7,1,1.6,1,2.7v2.9c-1,0.2-1.7,0.6-2.4,1.4
	c-0.6,0.7-0.9,1.6-0.9,2.6v5.9C36.9,28.2,11.1,28.2,11.1,28.2z"/>
</svg>
