<?xml version="1.0" encoding="utf-8"?>
<!-- Generator: Adobe Illustrator 26.3.1, SVG Export Plug-In . SVG Version: 6.00 Build 0)  -->
<svg version="1.1" id="Слой_1" xmlns="http://www.w3.org/2000/svg" xmlns:xlink="http://www.w3.org/1999/xlink" x="0px" y="0px"
	 viewBox="0 0 48 48" style="enable-background:new 0 0 48 48;" xml:space="preserve">
<path d="M24,16c0.7,0,1.3-0.2,1.8-0.7s0.7-1.1,0.7-1.8s-0.2-1.3-0.7-1.8S24.7,11,24,11s-1.3,0.2-1.8,0.7s-0.7,1.1-0.7,1.8
	s0.2,1.3,0.7,1.8S23.3,16,24,16z M27.2,16h5.3c0.7,0,1.3,0.2,1.8,0.7c0.5,0.4,0.8,1,0.9,1.7l2.6,18.5c0.1,0.8-0.1,1.6-0.7,2.2
	c-0.4,0.6-1.1,0.9-2,0.9H12.9c-0.9,0-1.6-0.3-2.1-0.9c-0.5-0.6-0.8-1.4-0.7-2.2l2.6-18.5c0.1-0.7,0.4-1.3,0.9-1.7
	c0.5-0.4,1.1-0.7,1.8-0.7h5.3c-0.3-0.3-0.5-0.7-0.6-1.1c0-0.5-0.1-0.9-0.1-1.4c0-1.1,0.4-2.1,1.2-2.8C22,9.9,22.9,9.5,24,9.5
	s2.1,0.4,2.8,1.2c0.8,0.8,1.2,1.7,1.2,2.8c0,0.5-0.1,0.9-0.2,1.3C27.7,15.3,27.5,15.7,27.2,16z"/>
</svg>
