<?xml version="1.0" encoding="utf-8"?>
<!-- Generator: Adobe Illustrator 26.3.1, SVG Export Plug-In . SVG Version: 6.00 Build 0)  -->
<svg version="1.1" id="Слой_1" xmlns="http://www.w3.org/2000/svg" xmlns:xlink="http://www.w3.org/1999/xlink" x="0px" y="0px"
	 viewBox="0 0 48 48" style="enable-background:new 0 0 48 48;" xml:space="preserve">
<path d="M21.9,24.8l8.4-8.4l-1.1-1.1l-7.3,7.3l-3-3l-1.1,1.1L21.9,24.8z M24,42c-4.7-4.2-8.2-8-10.6-11.6s-3.6-6.9-3.6-9.8
	c0-4.2,1.4-7.7,4.1-10.5C16.7,7.4,20,6,24,6s7.3,1.4,10.1,4.1s4.1,6.2,4.1,10.5c0,2.9-1.2,6.2-3.6,9.8C32.2,34,28.7,37.9,24,42z"/>
</svg>
