<?xml version="1.0" encoding="utf-8"?>
<!-- Generator: Adobe Illustrator 26.3.1, SVG Export Plug-In . SVG Version: 6.00 Build 0)  -->
<svg version="1.1" id="Слой_1" xmlns="http://www.w3.org/2000/svg" xmlns:xlink="http://www.w3.org/1999/xlink" x="0px" y="0px"
	 viewBox="0 0 48 48" style="enable-background:new 0 0 48 48;" xml:space="preserve">
<path d="M6,42v-9.8h9.8V42H6z M19.1,42v-9.8h9.8V42C28.9,42,19.1,42,19.1,42z M32.2,42v-9.8H42V42H32.2z M6,28.9v-9.8h9.8v9.8
	C15.8,28.9,6,28.9,6,28.9z M19.1,28.9v-9.8h9.8v9.8C28.9,28.9,19.1,28.9,19.1,28.9z M32.2,28.9v-9.8H42v9.8
	C42,28.9,32.2,28.9,32.2,28.9z M6,15.8V6h9.8v9.8H6z M19.1,15.8V6h9.8v9.8C28.9,15.8,19.1,15.8,19.1,15.8z M32.2,15.8V6H42v9.8H32.2
	z"/>
</svg>
