<?xml version="1.0" encoding="utf-8"?>
<!-- Generator: Adobe Illustrator 26.3.1, SVG Export Plug-In . SVG Version: 6.00 Build 0)  -->
<svg version="1.1" id="Слой_1" xmlns="http://www.w3.org/2000/svg" xmlns:xlink="http://www.w3.org/1999/xlink" x="0px" y="0px"
	 viewBox="0 0 48 48" style="enable-background:new 0 0 48 48;" xml:space="preserve">
<path d="M40.2,42.4L17,19.2c-0.5,0.7-0.8,1.4-1.1,2.2c-0.3,0.8-0.4,1.7-0.4,2.6c0,1.3,0.3,2.5,0.8,3.5c0.5,1.1,1.2,2,2.1,2.8
	l-1.1,1.1c-1-0.9-1.8-2-2.4-3.3S14,25.5,14,24c0-1.1,0.2-2.1,0.5-3.1s0.8-1.9,1.4-2.7l-4.6-4.7c-1.2,1.4-2.1,3-2.8,4.8s-1,3.7-1,5.7
	c0,2.4,0.5,4.6,1.4,6.7c0.9,2,2.2,3.8,3.8,5.3l-1.1,1.1c-1.7-1.7-3.1-3.6-4.1-5.8S6,26.6,6,24c0-2.2,0.4-4.3,1.1-6.3
	s1.8-3.7,3.1-5.3L5.6,7.8l1.1-1.1l34.5,34.5C41.3,41.3,40.2,42.4,40.2,42.4z M39,34l-1.1-1.1c0.8-1.3,1.5-2.6,1.9-4.1
	s0.7-3.1,0.7-4.7c0-4.6-1.6-8.5-4.8-11.7C32.5,9.1,28.6,7.5,24,7.5c-1.6,0-3.2,0.2-4.7,0.7s-2.9,1.1-4.2,1.9L14,9
	c1.5-0.9,3-1.7,4.7-2.2C20.4,6.3,22.2,6,24,6c2.5,0,4.8,0.5,7,1.4s4.1,2.2,5.7,3.9c1.6,1.6,2.9,3.5,3.9,5.7c0.9,2.2,1.4,4.5,1.4,7
	c0,1.8-0.3,3.6-0.8,5.3C40.7,31,39.9,32.5,39,34z M33.1,28.1l-1.2-1.2c0.2-0.4,0.3-0.9,0.4-1.4c0.1-0.5,0.1-1,0.1-1.5
	c0-2.3-0.8-4.3-2.5-6c-1.6-1.6-3.6-2.5-6-2.5c-0.5,0-1,0-1.5,0.1s-1,0.2-1.4,0.4l-1.2-1.2c0.6-0.3,1.3-0.5,1.9-0.7
	c0.7-0.2,1.4-0.2,2.1-0.2c2.8,0,5.1,1,7.1,2.9S34,21.2,34,24c0,0.7-0.1,1.5-0.2,2.1C33.6,26.8,33.4,27.5,33.1,28.1z"/>
</svg>
