<?xml version="1.0" encoding="utf-8"?>
<!-- Generator: Adobe Illustrator 26.3.1, SVG Export Plug-In . SVG Version: 6.00 Build 0)  -->
<svg version="1.1" id="Слой_1" xmlns="http://www.w3.org/2000/svg" xmlns:xlink="http://www.w3.org/1999/xlink" x="0px" y="0px"
	 viewBox="0 0 48 48" style="enable-background:new 0 0 48 48;" xml:space="preserve">
<path d="M40.2,42.4l-17-17C21,25.5,19,26,17.1,26.9s-3.6,2.1-4.9,3.5l-1.5-1.5c1.4-1.4,2.9-2.6,4.7-3.6s3.7-1.7,5.8-2l-7.9-7.8
	c-1.6,0.6-3.3,1.5-5,2.7c-1.7,1.2-3.3,2.4-4.6,3.7l-1.5-1.5c1.4-1.4,2.9-2.7,4.6-3.9c1.6-1.2,3.2-2.1,4.7-2.8L6.8,9l1.1-1.1
	l33.4,33.4C41.3,41.3,40.2,42.4,40.2,42.4z M24,40.7c-0.8,0-1.4-0.3-2-0.8c-0.6-0.6-0.9-1.2-0.9-2s0.3-1.4,0.9-2s1.2-0.8,2-0.8
	s1.4,0.3,2,0.8c0.6,0.6,0.8,1.2,0.8,2s-0.3,1.5-0.8,2C25.4,40.4,24.8,40.7,24,40.7z M36.1,30.1c-0.6-0.6-1.1-1-1.6-1.4
	s-1.1-0.7-1.8-1.1l-3.4-3.5c1.3,0.2,2.7,0.7,4,1.4c1.4,0.8,2.7,1.9,4,3.2C37.4,28.8,36.1,30.1,36.1,30.1z M44.3,22
	c-2.7-2.7-5.8-4.8-9.2-6.3c-3.4-1.6-7.1-2.3-11-2.3c-1,0-1.9,0-2.8,0.1s-1.7,0.2-2.3,0.4L17,12c0.9-0.3,1.9-0.5,3.1-0.7
	s2.5-0.2,3.9-0.2c4.3,0,8.3,0.8,12,2.5s7,4,9.8,6.8C45.8,20.4,44.3,22,44.3,22z"/>
</svg>
