<?xml version="1.0" encoding="utf-8"?>
<!-- Generator: Adobe Illustrator 26.3.1, SVG Export Plug-In . SVG Version: 6.00 Build 0)  -->
<svg version="1.1" id="Слой_1" xmlns="http://www.w3.org/2000/svg" xmlns:xlink="http://www.w3.org/1999/xlink" x="0px" y="0px"
	 viewBox="0 0 48 48" style="enable-background:new 0 0 48 48;" xml:space="preserve">
<path d="M24,40.7c-0.8,0-1.4-0.3-2-0.8c-0.6-0.6-0.8-1.2-0.9-2c0-0.8,0.3-1.4,0.9-2s1.2-0.8,2-0.8s1.4,0.3,2,0.8
	c0.6,0.6,0.8,1.2,0.8,2s-0.3,1.4-0.8,2C25.4,40.4,24.8,40.7,24,40.7z M12.2,30.5L10.7,29c1.9-1.9,4-3.4,6.2-4.4s4.6-1.5,7.2-1.5
	s5,0.5,7.2,1.5s4.3,2.4,6.2,4.3L36,30.5c-1.7-1.7-3.6-3-5.6-3.9s-4.1-1.3-6.2-1.3c-2.2,0-4.2,0.4-6.2,1.3
	C15.8,27.4,13.9,28.7,12.2,30.5z"/>
</svg>
