<?xml version="1.0" encoding="utf-8"?>
<!-- Generator: Adobe Illustrator 26.3.1, SVG Export Plug-In . SVG Version: 6.00 Build 0)  -->
<svg version="1.1" id="Слой_1" xmlns="http://www.w3.org/2000/svg" xmlns:xlink="http://www.w3.org/1999/xlink" x="0px" y="0px"
	 viewBox="0 0 48 48" style="enable-background:new 0 0 48 48;" xml:space="preserve">
<path d="M24.8,24.8H40v12.5c0,0.7-0.3,1.4-0.8,1.9c-0.6,0.5-1.2,0.8-2,0.8H24.8V24.8z M24.8,23.2V8h12.5c0.7,0,1.4,0.3,1.9,0.8
	c0.5,0.6,0.8,1.2,0.8,2v12.5L24.8,23.2L24.8,23.2z M23.2,23.2H8V10.8c0-0.8,0.3-1.4,0.8-2C9.4,8.3,10,8,10.8,8h12.5L23.2,23.2
	L23.2,23.2z M23.2,24.8V40H10.8c-0.7,0-1.4-0.3-1.9-0.8C8.3,38.6,8,38,8,37.2V24.8H23.2z"/>
</svg>
