<?xml version="1.0" encoding="utf-8"?>
<!-- Generator: Adobe Illustrator 26.3.1, SVG Export Plug-In . SVG Version: 6.00 Build 0)  -->
<svg version="1.1" id="Слой_1" xmlns="http://www.w3.org/2000/svg" xmlns:xlink="http://www.w3.org/1999/xlink" x="0px" y="0px"
	 viewBox="0 0 48 48" style="enable-background:new 0 0 48 48;" xml:space="preserve">
<path d="M43,17.8c-0.2,0-0.4-0.1-0.5-0.2s-0.2-0.3-0.2-0.5V9c0-0.2,0.1-0.4,0.2-0.5c0.1-0.1,0.3-0.2,0.6-0.2c0.2,0,0.4,0.1,0.5,0.2
	c0.1,0.1,0.2,0.3,0.2,0.5v8c0,0.2-0.1,0.4-0.2,0.5C43.4,17.7,43.2,17.8,43,17.8z M8,40V8h28v32H8z M10.8,23.2h9.6v-1.5h3.1v1.5h9.6
	V10.8H10.8V23.2z M10.8,37.2h22.3V24.8H10.8V37.2z M9.5,38.5h24.9v-29H9.5V38.5z"/>
</svg>
