<?xml version="1.0" encoding="utf-8"?>
<!-- Generator: Adobe Illustrator 26.3.1, SVG Export Plug-In . SVG Version: 6.00 Build 0)  -->
<svg version="1.1" id="Слой_1" xmlns="http://www.w3.org/2000/svg" xmlns:xlink="http://www.w3.org/1999/xlink" x="0px" y="0px"
	 viewBox="0 0 48 48" style="enable-background:new 0 0 48 48;" xml:space="preserve">
<path d="M22.6,44c0-0.5,0.2-0.8,0.7-1.1s1.1-0.4,1.9-0.4V30c0.1,0,0.3,0,0.4,0s0.2,0,0.4,0c1,0,1.8-0.3,2.5-0.9s1.2-1.3,1.4-2.3
	v-0.1l6.4,1.6c0.3,0.1,0.5,0.2,0.7,0.3c0.2,0.1,0.4,0.3,0.5,0.6l4.5,8.2c0.3,0.5,0.4,1.1,0.3,1.6c-0.1,0.6-0.3,1-0.8,1.4
	c-0.5,0.5-1.1,0.7-1.8,0.7s-1.3-0.3-1.8-0.8L27.6,30.1c-0.1,0.1-0.3,0.1-0.4,0.2c-0.1,0-0.3,0.1-0.4,0.1v12.1c0.8,0,1.5,0.1,1.9,0.4
	c0.5,0.3,0.7,0.7,0.7,1.1H22.6z M8,39.8v-1.5h8v1.5H8z M15.5,31.6l-9-2.5c-0.6-0.2-1-0.5-1.3-0.9c-0.3-0.5-0.5-1-0.5-1.5
	c0-0.7,0.2-1.3,0.7-1.8C5.9,24.2,6.5,24,7.2,24h15.3c-0.2,0.3-0.4,0.6-0.5,0.9s-0.2,0.7-0.2,1.1s0.1,0.7,0.2,1.1
	c0.1,0.3,0.3,0.7,0.5,0.9l-5.4,3.4c-0.2,0.1-0.4,0.2-0.7,0.3S15.8,31.7,15.5,31.6z M26,28.8c-0.8,0-1.5-0.3-2-0.8
	c-0.6-0.5-0.8-1.2-0.8-2s0.3-1.5,0.8-2c0.5-0.6,1.2-0.8,2-0.8s1.5,0.3,2,0.8c0.6,0.5,0.8,1.2,0.8,2s-0.3,1.5-0.8,2
	S26.8,28.8,26,28.8z M28.6,23.1c-0.3-0.4-0.7-0.6-1.2-0.9c-0.5-0.2-1-0.3-1.5-0.3c-0.2,0-0.4,0-0.5,0c-0.2,0-0.3,0.1-0.5,0.1v-7.2
	c0-0.3,0.1-0.5,0.2-0.8s0.3-0.5,0.5-0.7L32.5,7c0.4-0.4,0.9-0.7,1.5-0.7c0.6-0.1,1.1,0.1,1.6,0.4c0.6,0.4,1,0.9,1.2,1.6
	s0.1,1.3-0.3,1.9L28.6,23.1z M4,17.8v-1.5h8v1.5H4z M10,9.8V8.2h10v1.5H10V9.8z"/>
</svg>
