<?xml version="1.0" encoding="utf-8"?>
<!-- Generator: Adobe Illustrator 26.3.1, SVG Export Plug-In . SVG Version: 6.00 Build 0)  -->
<svg version="1.1" id="Слой_1" xmlns="http://www.w3.org/2000/svg" xmlns:xlink="http://www.w3.org/1999/xlink" x="0px" y="0px"
	 viewBox="0 0 48 48" style="enable-background:new 0 0 48 48;" xml:space="preserve">
<path d="M20.8,43V31.2h-5.5l5.2-14.7c0.3-0.7,0.7-1.3,1.4-1.8c0.7-0.4,1.4-0.6,2.2-0.6c0.8,0,1.5,0.2,2.2,0.6c0.7,0.4,1.1,1,1.4,1.8
	l5.2,14.7h-5.5V43H20.8z M24,11.3c-0.9,0-1.7-0.3-2.3-0.9c-0.6-0.6-0.9-1.4-0.9-2.3s0.3-1.7,0.9-2.3s1.4-0.9,2.3-0.9
	s1.7,0.3,2.3,0.9c0.6,0.6,0.9,1.4,0.9,2.3s-0.3,1.7-0.9,2.3C25.7,11,24.9,11.3,24,11.3z"/>
</svg>
