<?xml version="1.0" encoding="utf-8"?>
<!-- Generator: Adobe Illustrator 26.3.1, SVG Export Plug-In . SVG Version: 6.00 Build 0)  -->
<svg version="1.1" id="Слой_1" xmlns="http://www.w3.org/2000/svg" xmlns:xlink="http://www.w3.org/1999/xlink" x="0px" y="0px"
	 viewBox="0 0 48 48" style="enable-background:new 0 0 48 48;" xml:space="preserve">
<path d="M36,41l4.9-4.9L40,35.2l-3.3,3.3V31h-1.3v7.6L32,35.2l-0.9,0.9L36,41z M19.5,14h8.9v-3.2c0-0.4-0.1-0.7-0.3-0.9
	c-0.2-0.2-0.5-0.3-0.9-0.3h-6.5c-0.4,0-0.7,0.1-0.9,0.3c-0.2,0.2-0.3,0.5-0.3,0.9C19.5,10.8,19.5,14,19.5,14z M36,43.8
	c-2.2,0-4-0.8-5.5-2.3s-2.3-3.4-2.3-5.5s0.8-4,2.3-5.6c1.5-1.5,3.4-2.3,5.5-2.3c2.2,0,4,0.8,5.5,2.3s2.3,3.4,2.3,5.6s-0.8,4-2.3,5.5
	C40,43.1,38.2,43.8,36,43.8z M8.8,40c-0.8,0-1.4-0.3-2-0.8C6.3,38.7,6,38,6,37.2V16.8c0-0.8,0.3-1.4,0.8-2C7.3,14.3,8,14,8.8,14H18
	v-3.2c0-0.8,0.3-1.4,0.8-2C19.3,8.3,20,8,20.8,8h6.5c0.8,0,1.4,0.3,2,0.8c0.5,0.5,0.8,1.2,0.8,2V14h9.2c0.8,0,1.4,0.3,2,0.8
	c0.5,0.5,0.8,1.2,0.8,2v9.6c-0.9-0.6-1.8-1-2.9-1.3c-1-0.3-2.1-0.5-3.1-0.5c-3.1,0-5.8,1.1-8,3.3s-3.3,4.9-3.3,8
	c0,0.7,0.1,1.4,0.2,2s0.3,1.3,0.6,2L8.8,40L8.8,40z"/>
</svg>
