<?xml version="1.0" encoding="utf-8"?>
<!-- Generator: Adobe Illustrator 26.3.1, SVG Export Plug-In . SVG Version: 6.00 Build 0)  -->
<svg version="1.1" id="Слой_1" xmlns="http://www.w3.org/2000/svg" xmlns:xlink="http://www.w3.org/1999/xlink" x="0px" y="0px"
	 viewBox="0 0 48 48" style="enable-background:new 0 0 48 48;" xml:space="preserve">
<path d="M7.4,41.7l-1.1-1.1l5-5l-5.2-1.4l0.4-1.5l5.2,1.4l-1.4-5.3l1.5-0.4l1.4,5.3l9.3-9.3L17.3,23l0.4-1.5l5.3,1.4l-1.4-5.2
	l1.5-0.4l1.4,5.2l9.3-9.3l-5.3-1.4l0.4-1.5l5.2,1.4l-1.4-5.2l1.5-0.4l1.4,5.2l5-5l1.1,1.1l-5,5l5.2,1.4l-0.4,1.5l-5.2-1.4l1.4,5.3
	l-1.5,0.4l-1.4-5.2l-9.3,9.3l5.3,1.4l-0.4,1.5l-5.2-1.4l1.4,5.3L25,30.7l-1.4-5.2l-9.3,9.3l5.3,1.4l-0.4,1.5l-5.3-1.4l1.4,5.2
	l-1.5,0.4l-1.4-5.2L7.4,41.7z"/>
</svg>
