<?xml version="1.0" encoding="utf-8"?>
<!-- Generator: Adobe Illustrator 26.3.1, SVG Export Plug-In . SVG Version: 6.00 Build 0)  -->
<svg version="1.1" id="Слой_1" xmlns="http://www.w3.org/2000/svg" xmlns:xlink="http://www.w3.org/1999/xlink" x="0px" y="0px"
	 viewBox="0 0 48 48" style="enable-background:new 0 0 48 48;" xml:space="preserve">
<path d="M28.9,39.9l-5.5-5.7l5.5-5.7l1.1,1.1l-3.7,3.8H34c1.2,0,2.3-0.5,3.2-1.4c0.9-0.9,1.3-2,1.3-3.3c0-1.2-0.4-2.3-1.3-3.2
	c-0.9-0.9-1.9-1.3-3.2-1.3H10v-1.5h24c1.7,0,3.1,0.6,4.3,1.8c1.2,1.2,1.8,2.6,1.8,4.3c0,1.7-0.6,3.1-1.8,4.4
	C37.1,34.4,35.6,35,34,35h-7.7l3.7,3.8L28.9,39.9z M10,35v-1.5h7.6V35H10z M10,13.5V12h28.1v1.5H10z"/>
</svg>
