<?xml version="1.0" encoding="utf-8"?>
<!-- Generator: Adobe Illustrator 26.3.1, SVG Export Plug-In . SVG Version: 6.00 Build 0)  -->
<svg version="1.1" id="Слой_1" xmlns="http://www.w3.org/2000/svg" xmlns:xlink="http://www.w3.org/1999/xlink" x="0px" y="0px"
	 viewBox="0 0 48 48" style="enable-background:new 0 0 48 48;" xml:space="preserve">
<path d="M24,23.2c0.8,0,1.5-0.3,2.1-0.9S27,21,27,20.2c0-0.8-0.3-1.5-0.9-2.1s-1.3-0.9-2.1-0.9s-1.5,0.3-2.1,0.9S21,19.4,21,20.2
	c0,0.8,0.3,1.5,0.9,2.1C22.5,22.9,23.2,23.2,24,23.2z M24,42c-4.7-4.2-8.2-8-10.6-11.6s-3.6-6.9-3.6-9.8c0-4.2,1.4-7.7,4.1-10.5
	C16.7,7.4,20,6,24,6c0.4,0,0.8,0,1.2,0.1c0.4,0,0.8,0.1,1.2,0.2l3.8,3.8L26,14.3l6.1,6.1l4.2-4.2l1.8,1.7c0,0.5,0.1,1,0.1,1.4
	s0.1,0.8,0.1,1.4c0,2.9-1.2,6.2-3.6,9.8C32.2,34,28.7,37.9,24,42z M32,15.3l-1.1-1.1l4.2-4.2l-4.2-4.2L32,4.7l4.2,4.2l4.2-4.2
	l1.1,1.1L37.3,10l4.2,4.2l-1.1,1.1l-4.2-4.2L32,15.3z"/>
</svg>
