<?xml version="1.0" encoding="utf-8"?>
<!-- Generator: Adobe Illustrator 26.3.1, SVG Export Plug-In . SVG Version: 6.00 Build 0)  -->
<svg version="1.1" id="Слой_1" xmlns="http://www.w3.org/2000/svg" xmlns:xlink="http://www.w3.org/1999/xlink" x="0px" y="0px"
	 viewBox="0 0 48 48" style="enable-background:new 0 0 48 48;" xml:space="preserve">
<path d="M41,39.2L29.3,27.5c-1,0.9-2.1,1.5-3.4,2s-2.6,0.7-4,0.7c-1.5,0-2.9-0.3-4.2-0.8s-2.4-1.2-3.3-2.1l1.1-1.1
	c0.8,0.8,1.8,1.4,2.9,1.8s2.2,0.6,3.5,0.6c2.8,0,5.1-0.9,7-2.8s2.8-4.2,2.8-7s-0.9-5.1-2.8-7S24.7,9,21.9,9s-5.2,1-7.1,2.9
	S12,16.2,12,19l3.3-3.5l1.1,1.1l-5.1,5.1l-5.1-5.1l1.1-1.1l3.1,3.3c0-3.2,1.1-5.9,3.3-8.1s4.9-3.3,8.1-3.3s5.9,1.1,8.1,3.3
	s3.3,4.9,3.3,8c0,1.4-0.3,2.7-0.8,4.1c-0.5,1.3-1.2,2.5-2,3.5L42.1,38L41,39.2z"/>
</svg>
