<?xml version="1.0" encoding="utf-8"?>
<!-- Generator: Adobe Illustrator 26.3.1, SVG Export Plug-In . SVG Version: 6.00 Build 0)  -->
<svg version="1.1" id="Слой_1" xmlns="http://www.w3.org/2000/svg" xmlns:xlink="http://www.w3.org/1999/xlink" x="0px" y="0px"
	 viewBox="0 0 48 48" style="enable-background:new 0 0 48 48;" xml:space="preserve">
<path d="M8.8,38c-0.8,0-1.4-0.3-2-0.8C6.3,36.7,6,36,6,35.2v-5.1h1.5v5.1c0,0.3,0.1,0.6,0.4,0.8c0.3,0.3,0.5,0.4,0.8,0.4h5.1V38H8.8
	z M19,30.9l2.2-11.4l-6.5,2.9v6.4h-1.5v-7.5l8.1-3.3c0.8-0.3,1.4-0.6,1.7-0.7c0.4-0.1,0.7-0.2,1-0.2c0.5,0,1,0.1,1.4,0.4
	c0.4,0.2,0.8,0.6,1,1L28,21l0,0l0,0c-1.5,1.1-2.6,2.5-3.5,4.2s-1.3,3.5-1.2,5.6C23.2,30.9,19,30.9,19,30.9z M27,14.1
	c-0.9,0-1.7-0.3-2.3-0.9c-0.6-0.6-0.9-1.4-0.9-2.3c0-0.9,0.3-1.7,0.9-2.3s1.4-0.9,2.3-0.9s1.7,0.3,2.3,0.9c0.6,0.6,0.9,1.4,0.9,2.3
	c0,0.9-0.3,1.7-0.9,2.3C28.7,13.8,27.9,14.1,27,14.1z M6,9.8v-5c0-0.8,0.3-1.4,0.8-2C7.3,2.3,8,2,8.8,2h5.1v1.5H8.8
	C8.5,3.5,8.2,3.6,8,3.9C7.7,4.2,7.5,4.5,7.5,4.8v5.1L6,9.8L6,9.8z M40.5,9.8v-5c0-0.3-0.1-0.6-0.4-0.8c-0.3-0.3-0.5-0.4-0.8-0.4
	h-5.1V2h5.1c0.8,0,1.4,0.3,2,0.8C41.7,3.3,42,4,42,4.8v5.1L40.5,9.8L40.5,9.8z M35.4,38.4c-2.2,0-4-0.8-5.5-2.3s-2.3-3.4-2.3-5.5
	c0-2.2,0.8-4,2.3-5.5s3.4-2.2,5.5-2.2c2.2,0,4,0.8,5.5,2.3s2.2,3.3,2.2,5.5s-0.8,4-2.3,5.5C39.4,37.6,37.6,38.4,35.4,38.4z
	 M34.7,31.6h1.4V26h-1.4V31.6z M35.4,35.4c0.3,0,0.5-0.1,0.7-0.3s0.3-0.4,0.3-0.7s-0.1-0.5-0.3-0.7s-0.4-0.3-0.7-0.3
	s-0.5,0.1-0.7,0.3s-0.3,0.4-0.3,0.7s0.1,0.5,0.3,0.7C34.9,35.3,35.2,35.4,35.4,35.4z"/>
</svg>
