<?xml version="1.0" encoding="utf-8"?>
<!-- Generator: Adobe Illustrator 26.3.1, SVG Export Plug-In . SVG Version: 6.00 Build 0)  -->
<svg version="1.1" id="Слой_1" xmlns="http://www.w3.org/2000/svg" xmlns:xlink="http://www.w3.org/1999/xlink" x="0px" y="0px"
	 viewBox="0 0 48 48" style="enable-background:new 0 0 48 48;" xml:space="preserve">
<path d="M15.5,29.4H17V18.6h-5.8v1.5h4.3V29.4z M21.3,29.4h4.8c0.4,0,0.7-0.1,1-0.4c0.3-0.3,0.4-0.6,0.4-1v-8c0-0.4-0.1-0.7-0.4-1
	c-0.3-0.3-0.6-0.4-1-0.4h-4.8c-0.4,0-0.8,0.1-1,0.4c-0.3,0.3-0.4,0.6-0.4,1v8c0,0.4,0.1,0.7,0.4,1C20.5,29.3,20.9,29.4,21.3,29.4z
	 M21.4,27.8v-7.7h4.5v7.7H21.4z M30.3,29.4h1.5v-4.7l4.9,4.7h2.3l-5.8-5.5l5.8-5.3h-2.2l-5,4.7v-4.7h-1.5V29.4z M11.7,40
	c-0.8,0-1.4-0.3-2-0.8c-0.5-0.5-0.8-1.2-0.8-2V10.8c0-0.8,0.3-1.4,0.8-2c0.5-0.5,1.2-0.8,2-0.8h26.5c0.8,0,1.4,0.3,2,0.8
	c0.5,0.5,0.8,1.2,0.8,2v26.5c0,0.8-0.3,1.4-0.8,2c-0.5,0.5-1.2,0.8-2,0.8H11.7z M11.7,38.5h26.5c0.3,0,0.6-0.1,0.8-0.4
	c0.3-0.3,0.4-0.5,0.4-0.8V10.8c0-0.3-0.1-0.6-0.4-0.8c-0.3-0.3-0.5-0.4-0.8-0.4H11.7c-0.3,0-0.6,0.1-0.8,0.4
	c-0.3,0.3-0.4,0.5-0.4,0.8v26.5c0,0.3,0.1,0.6,0.4,0.8S11.4,38.5,11.7,38.5z M10.4,9.5v28.9V9.5z"/>
</svg>
