<?xml version="1.0" encoding="utf-8"?>
<!-- Generator: Adobe Illustrator 26.3.1, SVG Export Plug-In . SVG Version: 6.00 Build 0)  -->
<svg version="1.1" id="Слой_1" xmlns="http://www.w3.org/2000/svg" xmlns:xlink="http://www.w3.org/1999/xlink" x="0px" y="0px"
	 viewBox="0 0 48 48" style="enable-background:new 0 0 48 48;" xml:space="preserve">
<path d="M17.5,22.2h1.5V11.4h-4.6v1.5h3.1V22.2z M24.2,22.2h6c0.4,0,0.7-0.2,1.1-0.5c0.3-0.3,0.5-0.7,0.5-1.1v-7.7
	c0-0.4-0.2-0.7-0.5-1.1c-0.3-0.3-0.7-0.5-1.1-0.5h-6v1.5h6v3.2h-4.4v1.4h4.4v3.1h-6C24.2,20.6,24.2,22.2,24.2,22.2z M12.5,36.6H14
	v-9.2h3.5v6.2h1.5v-6.2h3.7v9.2h1.5v-9.4c0-0.4-0.1-0.7-0.4-1c-0.3-0.3-0.6-0.4-1-0.4h-9.1c-0.4,0-0.7,0.1-1,0.4
	c-0.3,0.3-0.4,0.6-0.4,1C12.5,27.2,12.5,36.6,12.5,36.6z M28,36.6h1.5v-3.1h4.6c0.4,0,0.7-0.1,1-0.4c0.3-0.3,0.4-0.6,0.4-1v-4.9
	c0-0.4-0.1-0.7-0.4-1c-0.3-0.3-0.6-0.4-1-0.4H28C28,25.8,28,36.6,28,36.6z M29.5,32v-4.6H34V32C34,32,29.5,32,29.5,32z M10.8,40
	c-0.8,0-1.4-0.3-2-0.8C8.3,38.7,8,38,8,37.2V10.8c0-0.8,0.3-1.4,0.8-2C9.3,8.3,10,8,10.8,8h26.5c0.8,0,1.4,0.3,2,0.8
	c0.5,0.5,0.8,1.2,0.8,2v26.5c0,0.8-0.3,1.4-0.8,2c-0.5,0.5-1.2,0.8-2,0.8H10.8z M10.8,38.5h26.5c0.3,0,0.6-0.1,0.8-0.4
	c0.3-0.3,0.4-0.5,0.4-0.8V10.8c0-0.3-0.1-0.6-0.4-0.8c-0.3-0.3-0.5-0.4-0.8-0.4H10.8c-0.3,0-0.6,0.1-0.8,0.4
	c-0.3,0.3-0.4,0.5-0.4,0.8v26.5c0,0.3,0.1,0.6,0.4,0.8S10.5,38.5,10.8,38.5z M9.5,9.5v28.9V9.5z"/>
</svg>
