<?xml version="1.0" encoding="utf-8"?>
<!-- Generator: Adobe Illustrator 26.3.1, SVG Export Plug-In . SVG Version: 6.00 Build 0)  -->
<svg version="1.1" id="Слой_1" xmlns="http://www.w3.org/2000/svg" xmlns:xlink="http://www.w3.org/1999/xlink" x="0px" y="0px"
	 viewBox="0 0 48 48" style="enable-background:new 0 0 48 48;" xml:space="preserve">
<path d="M13.4,22.2h7.5v-1.5h-6v-3.1h4.5c0.4,0,0.7-0.2,1.1-0.5S21,16.4,21,16v-3c0-0.4-0.2-0.7-0.5-1.1c-0.3-0.3-0.7-0.5-1.1-0.5
	h-6v1.5h6v3.2h-4.5c-0.4,0-0.7,0.2-1.1,0.5c-0.3,0.3-0.5,0.7-0.5,1.1v4.5H13.4z M28.5,22.2H33c0.4,0,0.7-0.2,1.1-0.5
	c0.3-0.3,0.5-0.7,0.5-1.1v-7.7c0-0.4-0.2-0.7-0.5-1.1c-0.3-0.3-0.7-0.5-1.1-0.5h-4.5c-0.4,0-0.7,0.2-1.1,0.5
	c-0.3,0.3-0.5,0.7-0.5,1.1v7.7c0,0.4,0.2,0.7,0.5,1.1C27.7,22,28.1,22.2,28.5,22.2z M28.3,20.6v-7.7h4.6v7.7
	C32.9,20.6,28.3,20.6,28.3,20.6z M12.5,36.6H14v-9.2h3.5v6.2H19v-6.2h3.7v9.2h1.5v-9.4c0-0.4-0.1-0.7-0.4-1s-0.6-0.4-1-0.4h-9.1
	c-0.4,0-0.7,0.1-1,0.4s-0.4,0.6-0.4,1C12.5,27.2,12.5,36.6,12.5,36.6z M28,36.6h1.5v-3.1h4.6c0.4,0,0.7-0.1,1-0.4
	c0.3-0.3,0.4-0.6,0.4-1v-4.9c0-0.4-0.1-0.7-0.4-1c-0.3-0.3-0.6-0.4-1-0.4H28V36.6z M29.5,32v-4.6H34V32H29.5z M10.8,40
	c-0.8,0-1.4-0.3-2-0.8C8.3,38.7,8,38,8,37.2V10.8c0-0.8,0.3-1.4,0.8-2C9.3,8.3,10,8,10.8,8h26.5c0.8,0,1.4,0.3,2,0.8
	c0.5,0.5,0.8,1.2,0.8,2v26.5c0,0.8-0.3,1.4-0.8,2c-0.5,0.5-1.2,0.8-2,0.8L10.8,40L10.8,40z M10.8,38.5h26.5c0.3,0,0.6-0.1,0.8-0.4
	c0.3-0.3,0.4-0.5,0.4-0.8V10.8c0-0.3-0.1-0.6-0.4-0.8c-0.3-0.3-0.5-0.4-0.8-0.4H10.8c-0.3,0-0.6,0.1-0.8,0.4
	c-0.3,0.3-0.4,0.5-0.4,0.8v26.5c0,0.3,0.1,0.6,0.4,0.8S10.5,38.5,10.8,38.5z M9.5,9.5v28.9V9.5z"/>
</svg>
