<?xml version="1.0" encoding="utf-8"?>
<!-- Generator: Adobe Illustrator 26.3.1, SVG Export Plug-In . SVG Version: 6.00 Build 0)  -->
<svg version="1.1" id="Слой_1" xmlns="http://www.w3.org/2000/svg" xmlns:xlink="http://www.w3.org/1999/xlink" x="0px" y="0px"
	 viewBox="0 0 48 48" style="enable-background:new 0 0 48 48;" xml:space="preserve">
<path d="M10.6,26v-1.5h7.6c0.4,0,0.7-0.1,0.9-0.3c0.2-0.2,0.3-0.5,0.3-0.9V20c0-0.4-0.1-0.7-0.3-0.9c-0.2-0.2-0.5-0.3-0.9-0.3h-7.7
	v-1.5h7.7c0.4,0,0.7-0.1,0.9-0.3c0.2-0.2,0.3-0.5,0.3-0.9v-3.2c0-0.4-0.1-0.7-0.3-0.9c-0.2-0.2-0.5-0.3-0.9-0.3h-7.6V10h7.6
	c0.8,0,1.4,0.3,2,0.8c0.5,0.5,0.8,1.2,0.8,2v2.9c0,0.6-0.2,1.1-0.6,1.6C20,17.8,19.6,18,19.2,18c0.4,0,0.8,0.3,1.2,0.8
	c0.4,0.5,0.6,1.1,0.6,1.6v2.8c0,0.8-0.3,1.4-0.8,2c-0.5,0.5-1.2,0.8-2,0.8C18.2,26,10.6,26,10.6,26z M34.7,26h-4.9
	c-0.8,0-1.4-0.3-2-0.8c-0.5-0.5-0.8-1.2-0.8-2V12.8c0-0.8,0.3-1.4,0.8-2c0.5-0.5,1.2-0.8,2-0.8h4.9c0.8,0,1.4,0.3,2,0.8
	c0.5,0.5,0.8,1.2,0.8,2v10.5c0,0.8-0.3,1.4-0.8,2C36.1,25.7,35.4,26,34.7,26z M34.7,24.5c0.3,0,0.6-0.1,0.9-0.3
	c0.2-0.2,0.4-0.5,0.4-0.9V12.8c0-0.4-0.1-0.7-0.4-0.9c-0.2-0.2-0.5-0.3-0.9-0.3h-4.9c-0.3,0-0.6,0.1-0.9,0.3
	c-0.2,0.2-0.4,0.5-0.4,0.9v10.5c0,0.4,0.1,0.7,0.4,0.9c0.2,0.2,0.5,0.3,0.9,0.3C29.8,24.5,34.7,24.5,34.7,24.5z M7.7,43v-7.7h1.5V43
	H7.7z M13.5,43v-7.7H15V43H13.5z M19.4,43v-7.7h1.5V43H19.4z M25.2,43v-7.7h15.1V43H25.2z"/>
</svg>
