<?xml version="1.0" encoding="utf-8"?>
<!-- Generator: Adobe Illustrator 26.3.1, SVG Export Plug-In . SVG Version: 6.00 Build 0)  -->
<svg version="1.1" id="Слой_1" xmlns="http://www.w3.org/2000/svg" xmlns:xlink="http://www.w3.org/1999/xlink" x="0px" y="0px"
	 viewBox="0 0 48 48" style="enable-background:new 0 0 48 48;" xml:space="preserve">
<path d="M24,42c-2.5,0-4.8-0.5-7-1.4s-4.1-2.2-5.7-3.9c-1.6-1.6-2.9-3.5-3.9-5.7S6,26.5,6,24h1.5c0,4.4,1.5,8.1,4.5,11.3
	s6.6,4.9,11,5.2l-3.2-3.2l1-1l5.6,5.6c-0.4,0.1-0.8,0.2-1.2,0.2C24.8,42,24.4,42,24,42z M25.8,29.6V18.4h5.7c0.6,0,1.1,0.2,1.5,0.6
	s0.6,0.9,0.6,1.5v7c0,0.6-0.2,1.1-0.6,1.5c-0.4,0.4-0.9,0.6-1.5,0.6H25.8z M14.4,29.6v-1.5h6.2v-3.3h-4.2v-1.5h4.2V20h-6.2v-1.5h6.3
	c0.4,0,0.8,0.1,1.1,0.4c0.3,0.3,0.4,0.6,0.4,1v8.2c0,0.4-0.1,0.8-0.4,1.1c-0.3,0.3-0.7,0.4-1.1,0.4C20.7,29.6,14.4,29.6,14.4,29.6z
	 M27.3,28.1h4.3c0.2,0,0.3,0,0.3-0.1c0.1-0.1,0.1-0.2,0.1-0.3v-7.2c0-0.2,0-0.3-0.1-0.3c-0.1-0.1-0.2-0.1-0.3-0.1h-4.3
	C27.3,19.9,27.3,28.1,27.3,28.1z M40.5,24c0-4.4-1.5-8.1-4.4-11.3c-3-3.2-6.6-4.9-11-5.2l3.2,3.2l-1.1,1l-5.6-5.6
	C22,6.1,22.4,6,22.8,6s0.8,0,1.2,0c2.5,0,4.8,0.5,7,1.4s4.1,2.2,5.7,3.9c1.6,1.6,2.9,3.5,3.9,5.7c0.9,2.2,1.4,4.5,1.4,7H40.5z"/>
</svg>
