<?xml version="1.0" encoding="utf-8"?>
<!-- Generator: Adobe Illustrator 26.3.1, SVG Export Plug-In . SVG Version: 6.00 Build 0)  -->
<svg version="1.1" id="Слой_1" xmlns="http://www.w3.org/2000/svg" xmlns:xlink="http://www.w3.org/1999/xlink" x="0px" y="0px"
	 viewBox="0 0 48 48" style="enable-background:new 0 0 48 48;" xml:space="preserve">
<path d="M7,33v-1.5h8.9c0.4,0,0.7-0.1,0.9-0.3c0.2-0.2,0.3-0.5,0.3-0.9V26c0-0.4-0.1-0.7-0.3-0.9c-0.2-0.2-0.5-0.3-0.9-0.3H7.1v-1.5
	H16c0.4,0,0.7-0.1,0.9-0.3c0.2-0.2,0.3-0.5,0.3-0.9v-4.2c0-0.4-0.1-0.7-0.3-0.9c-0.2-0.2-0.5-0.3-0.9-0.3H7V15h8.9
	c0.8,0,1.4,0.3,2,0.8c0.5,0.5,0.8,1.2,0.8,1.9v3.9c0,0.6-0.2,1.1-0.5,1.6s-0.7,0.7-1.3,0.8c0.6,0.1,1,0.3,1.3,0.8s0.5,1,0.5,1.6v3.8
	c0,0.7-0.3,1.4-0.8,1.9s-1.2,0.8-2,0.8H7V33z M41,23.2v7.1c0,0.7-0.3,1.4-0.8,1.9S39,33,38.2,33H28c-0.7,0-1.4-0.3-1.9-0.8
	s-0.8-1.2-0.8-1.9V17.8c0-0.7,0.3-1.4,0.8-1.9s1.2-0.8,1.9-0.8h10.5c0.5,0,1,0.1,1.4,0.4c0.4,0.3,0.8,0.7,1,1.1H28
	c-0.4,0-0.7,0.1-0.9,0.3c-0.2,0.2-0.3,0.5-0.3,0.9v12.5c0,0.4,0.1,0.7,0.3,0.9c0.2,0.2,0.5,0.3,0.9,0.3h10.2c0.4,0,0.7-0.1,0.9-0.3
	c0.2-0.2,0.3-0.5,0.3-0.9v-5.5h-5.1v-1.5L41,23.2L41,23.2z"/>
</svg>
