<?xml version="1.0" encoding="utf-8"?>
<!-- Generator: Adobe Illustrator 26.3.1, SVG Export Plug-In . SVG Version: 6.00 Build 0)  -->
<svg version="1.1" id="Слой_1" xmlns="http://www.w3.org/2000/svg" xmlns:xlink="http://www.w3.org/1999/xlink" x="0px" y="0px"
	 viewBox="0 0 48 48" style="enable-background:new 0 0 48 48;" xml:space="preserve">
<path d="M15.1,33v-6.2H7V15h1.5v10.2H15V15h1.5v10.2h4.1v1.5h-4.1V33H15.1z M41,23.2v7.1c0,0.7-0.3,1.4-0.8,1.9
	c-0.5,0.6-1.2,0.8-2,0.8H28c-0.7,0-1.4-0.3-1.9-0.8c-0.6-0.6-0.8-1.2-0.8-1.9V17.8c0-0.7,0.3-1.4,0.8-1.9c0.6-0.6,1.2-0.8,1.9-0.8
	h10.5c0.5,0,1,0.1,1.4,0.4c0.4,0.3,0.8,0.7,1,1.1H28c-0.4,0-0.7,0.1-0.9,0.3c-0.2,0.2-0.3,0.5-0.3,0.9v12.5c0,0.4,0.1,0.7,0.3,0.9
	c0.2,0.2,0.5,0.3,0.9,0.3h10.2c0.4,0,0.7-0.1,0.9-0.3c0.2-0.2,0.3-0.5,0.3-0.9v-5.5h-5.1v-1.5L41,23.2L41,23.2z"/>
</svg>
