<?xml version="1.0" encoding="utf-8"?>
<!-- Generator: Adobe Illustrator 26.3.1, SVG Export Plug-In . SVG Version: 6.00 Build 0)  -->
<svg version="1.1" id="Слой_1" xmlns="http://www.w3.org/2000/svg" xmlns:xlink="http://www.w3.org/1999/xlink" x="0px" y="0px"
	 viewBox="0 0 48 48" style="enable-background:new 0 0 48 48;" xml:space="preserve">
<path d="M40.8,28.9v-4.1h-4.1v-1.5h4.1v-4.1h1.5v4.1h4.1v1.5h-4.1v4.1H40.8z M11.6,33v-6.1h-8V15h1.5v10.3h6.5V15h1.5v10.3h2.2v1.5
	h-2.2V33C13.2,33,11.6,33,11.6,33z M33.1,23.2v7c0,0.7-0.3,1.4-0.8,1.9c-0.6,0.6-1.3,0.9-2,0.9h-8.2c-0.7,0-1.4-0.3-1.9-0.8
	c-0.6-0.6-0.8-1.2-0.8-1.9V17.8c0-0.7,0.3-1.4,0.8-1.9c0.6-0.6,1.2-0.8,1.9-0.8h8.5c0.5,0,1,0.1,1.4,0.4c0.4,0.3,0.8,0.7,1,1.1H22
	c-0.3,0-0.6,0.1-0.9,0.3c-0.2,0.2-0.4,0.5-0.4,0.9v12.5c0,0.4,0.1,0.7,0.4,0.9c0.2,0.2,0.5,0.3,0.9,0.3h8.2c0.3,0,0.6-0.1,0.9-0.3
	c0.2-0.2,0.4-0.5,0.4-0.9v-5.5h-4v-1.5L33.1,23.2L33.1,23.2z"/>
</svg>
