<?xml version="1.0" encoding="utf-8"?>
<!-- Generator: Adobe Illustrator 26.3.1, SVG Export Plug-In . SVG Version: 6.00 Build 0)  -->
<svg version="1.1" id="Слой_1" xmlns="http://www.w3.org/2000/svg" xmlns:xlink="http://www.w3.org/1999/xlink" x="0px" y="0px"
	 viewBox="0 0 48 48" style="enable-background:new 0 0 48 48;" xml:space="preserve">
<path d="M16.9,36.2H8.5c-0.8,0-1.5-0.3-2-0.8s-0.8-1.2-0.8-2V14.5c0-0.8,0.3-1.5,0.8-2s1.2-0.8,2-0.8h9.1v1.5H8.5
	c-0.4,0-0.7,0.1-0.9,0.3c-0.2,0.2-0.3,0.5-0.3,0.9V22h9.6c0.8,0,1.4,0.3,2,0.8c0.5,0.5,0.8,1.2,0.8,2v8.5c0,0.8-0.3,1.5-0.8,2
	C18.3,36,17.7,36.2,16.9,36.2z M7.3,23.7v9.8c0,0.4,0.1,0.7,0.3,0.9c0.2,0.2,0.5,0.3,0.9,0.3h8.4c0.3,0,0.6-0.1,0.9-0.3
	c0.2-0.2,0.4-0.5,0.4-0.9V25c0-0.3-0.1-0.6-0.4-0.9c-0.2-0.2-0.5-0.4-0.9-0.4H7.3z M29.1,34.7h10.4c0.4,0,0.7-0.1,0.9-0.3
	s0.3-0.5,0.3-0.9v-19c0-0.4-0.1-0.7-0.3-0.9s-0.5-0.3-0.9-0.3H29.1c-0.4,0-0.7,0.1-0.9,0.3c-0.2,0.2-0.3,0.5-0.3,0.9v18.9
	c0,0.4,0.1,0.7,0.3,0.9C28.4,34.6,28.7,34.7,29.1,34.7z M29.1,36.2c-0.8,0-1.5-0.3-2-0.8s-0.8-1.2-0.8-2V14.5c0-0.8,0.3-1.5,0.8-2
	s1.2-0.8,2-0.8h10.4c0.8,0,1.5,0.3,2,0.8s0.8,1.2,0.8,2v18.9c0,0.8-0.3,1.5-0.8,2s-1.2,0.8-2,0.8H29.1z"/>
</svg>
