<?xml version="1.0" encoding="utf-8"?>
<!-- Generator: Adobe Illustrator 26.3.1, SVG Export Plug-In . SVG Version: 6.00 Build 0)  -->
<svg version="1.1" id="Слой_1" xmlns="http://www.w3.org/2000/svg" xmlns:xlink="http://www.w3.org/1999/xlink" x="0px" y="0px"
	 viewBox="0 0 48 48" style="enable-background:new 0 0 48 48;" xml:space="preserve">
<path d="M15.1,43.8c-0.2,0-0.4-0.1-0.5-0.2c-0.1-0.1-0.2-0.3-0.2-0.5v-5.8c0-0.2,0.1-0.4,0.2-0.5c0.1-0.1,0.3-0.2,0.5-0.2h4.6v1.3
	h-4v1.7H19c0.2,0,0.4,0.1,0.5,0.2c0.2,0.1,0.2,0.3,0.2,0.5V43c0,0.2-0.1,0.4-0.2,0.5s-0.3,0.2-0.5,0.2
	C18.9,43.8,15.1,43.8,15.1,43.8z M23.4,43.8v-7.3h4.3v1.3h-3v1.7h2v1.3h-2v3H23.4z M31.4,43.8v-6h-2v-1.3h5.3v1.3h-2v6H31.4z
	 M15.7,42.5h2.7v-1.7h-2.7V42.5z M11,32.7l-5.1-5.1l5.1-5.1l1.1,1.1l-3.2,3.2h30.3l-3.3-3.2l1.1-1.1l5.1,5.1L37,32.7l-1.1-1.1
	l3.2-3.2H8.8l3.2,3.2L11,32.7z M6,18.6L6,18.6c0-0.6,0.2-1.1,0.5-1.5s0.7-0.7,1.2-1c0.8-0.3,1.6-0.6,2.5-0.8s1.7-0.3,2.6-0.3
	s1.8,0.1,2.6,0.3c0.8,0.2,1.7,0.5,2.4,0.8c0.5,0.2,0.9,0.6,1.2,1c0.3,0.4,0.5,0.9,0.5,1.5l0,0H6z M28.5,18.6L28.5,18.6
	c0-0.6,0.2-1.1,0.5-1.5s0.7-0.7,1.2-1c0.8-0.3,1.6-0.6,2.5-0.8c0.9-0.2,1.7-0.3,2.6-0.3c0.9,0,1.8,0.1,2.6,0.3s1.7,0.5,2.4,0.8
	c0.5,0.2,0.9,0.6,1.2,1S42,18,42,18.6l0,0H28.5z M12.8,11.5c-0.8,0-1.5-0.3-2-0.9C10.3,10,10,9.4,10,8.6s0.3-1.5,0.8-2
	c0.6-0.6,1.2-0.8,2-0.8s1.5,0.3,2.1,0.9c0.6,0.6,0.8,1.2,0.8,2s-0.3,1.5-0.9,2C14.3,11.3,13.6,11.5,12.8,11.5z M35.2,11.5
	c-0.8,0-1.5-0.3-2-0.9c-0.5-0.6-0.8-1.2-0.8-2s0.3-1.5,0.8-2c0.6-0.6,1.2-0.8,2-0.8s1.5,0.3,2.1,0.9s0.9,1.2,0.9,2s-0.3,1.5-0.9,2
	C36.7,11.3,36,11.5,35.2,11.5z"/>
</svg>
