<?xml version="1.0" encoding="utf-8"?>
<!-- Generator: Adobe Illustrator 26.3.1, SVG Export Plug-In . SVG Version: 6.00 Build 0)  -->
<svg version="1.1" id="Слой_1" xmlns="http://www.w3.org/2000/svg" xmlns:xlink="http://www.w3.org/1999/xlink" x="0px" y="0px"
	 viewBox="0 0 48 48" style="enable-background:new 0 0 48 48;" xml:space="preserve">
<path d="M25.8,29.4h1.5v-4.7l4.9,4.7h2.3l-5.8-5.5l5.8-5.3h-2.2l-5,4.7v-4.7h-1.5C25.8,18.6,25.8,29.4,25.8,29.4z M15.1,29.4h4.8
	c0.4,0,0.7-0.1,1-0.4s0.4-0.6,0.4-1v-3.3c0-0.4-0.1-0.7-0.4-1s-0.6-0.4-1-0.4h-4.6v-3.2h6v-1.5h-6.1c-0.4,0-0.7,0.1-1,0.4
	s-0.4,0.6-0.4,1v8c0,0.4,0.1,0.7,0.4,1C14.3,29.3,14.7,29.4,15.1,29.4z M15.2,28v-3.3h4.5V28H15.2z M10.8,40c-0.8,0-1.4-0.3-2-0.8
	C8.3,38.7,8,38,8,37.2V10.8c0-0.8,0.3-1.4,0.8-2C9.3,8.3,10,8,10.8,8h26.5c0.8,0,1.4,0.3,2,0.8c0.5,0.5,0.8,1.2,0.8,2v26.5
	c0,0.8-0.3,1.4-0.8,2c-0.5,0.5-1.2,0.8-2,0.8L10.8,40L10.8,40z M10.8,38.5h26.5c0.3,0,0.6-0.1,0.8-0.4c0.3-0.3,0.4-0.5,0.4-0.8V10.8
	c0-0.3-0.1-0.6-0.4-0.8c-0.3-0.3-0.5-0.4-0.8-0.4H10.8c-0.3,0-0.6,0.1-0.8,0.4c-0.3,0.3-0.4,0.5-0.4,0.8v26.5c0,0.3,0.1,0.6,0.4,0.8
	S10.5,38.5,10.8,38.5z M9.5,9.5v28.9V9.5z"/>
</svg>
