<?xml version="1.0" encoding="utf-8"?>
<!-- Generator: Adobe Illustrator 26.3.1, SVG Export Plug-In . SVG Version: 6.00 Build 0)  -->
<svg version="1.1" id="Слой_1" xmlns="http://www.w3.org/2000/svg" xmlns:xlink="http://www.w3.org/1999/xlink" x="0px" y="0px"
	 viewBox="0 0 48 48" style="enable-background:new 0 0 48 48;" xml:space="preserve">
<path d="M23.2,43V32.6l-8,7.9l-1.1-1.1l9.1-9.1v-5.6h-5.6l-9,9l-1.1-1.1l7.9-7.9H5v-1.5h10.4l-7.9-8l1.1-1.1l9.1,9.1h5.6v-5.6l-9-9
	l1.1-1.1l7.9,7.8V5h1.5v10.3l8-7.9l1.1,1.1l-9.1,9.1v5.6h5.6l9-9l1.1,1.1l-7.8,7.9H43v1.5H32.7l7.9,8l-1.1,1.1l-9.1-9.1h-5.6v5.6
	l9.1,9.1l-1.1,1.1l-8-7.9V43C24.8,43,23.2,43,23.2,43z"/>
</svg>
