<?xml version="1.0" encoding="utf-8"?>
<!-- Generator: Adobe Illustrator 26.3.1, SVG Export Plug-In . SVG Version: 6.00 Build 0)  -->
<svg version="1.1" id="Слой_1" xmlns="http://www.w3.org/2000/svg" xmlns:xlink="http://www.w3.org/1999/xlink" x="0px" y="0px"
	 viewBox="0 0 48 48" style="enable-background:new 0 0 48 48;" xml:space="preserve">
<path d="M16.2,42c-2.3,0-4.2-0.8-5.8-2.5C8.8,37.9,8,35.9,8,33.7s0.8-4.2,2.4-5.9c1.6-1.6,3.6-2.4,5.8-2.4V27c-1.9,0-3.4,0.7-4.8,2
	c-1.3,1.3-2,2.9-2,4.8s0.7,3.4,2,4.8c1.3,1.3,2.9,2,4.8,2s3.5-0.6,4.8-1.9c1.3-1.3,2-3,2-5h1.5c0,2.5-0.8,4.5-2.5,6.2
	C20.4,41.2,18.5,42,16.2,42z M33.2,40v-7.4c0-0.3-0.1-0.5-0.2-0.6c-0.1-0.2-0.4-0.2-0.6-0.2H21.8c-1.4,0-2.5-0.6-3.3-1.7
	c-0.7-1.2-0.8-2.4-0.2-3.7l4.3-9.6h-5.1l-1.5,4l-1.5-0.6l1.3-3.7c0.2-0.5,0.4-0.9,0.7-1.1c0.3-0.3,0.8-0.4,1.4-0.4h7.4
	c1.1,0,1.9,0.4,2.5,1.2c0.6,0.8,0.6,1.7,0.1,2.8l-5,10.6h9c0.8,0,1.4,0.3,2,0.8c0.5,0.6,0.8,1.2,0.8,2V40C34.8,40,33.2,40,33.2,40z
	 M29.4,13.3c-0.9,0-1.6-0.3-2.2-0.9c-0.6-0.6-0.9-1.3-0.9-2.2c0-0.8,0.3-1.6,0.9-2.2s1.3-0.9,2.2-0.9c0.9,0,1.6,0.3,2.1,0.9
	c0.6,0.6,0.9,1.3,0.9,2.2c0,0.8-0.3,1.6-0.9,2.2C30.9,13,30.2,13.3,29.4,13.3z"/>
</svg>
