<?xml version="1.0" encoding="utf-8"?>
<!-- Generator: Adobe Illustrator 26.3.1, SVG Export Plug-In . SVG Version: 6.00 Build 0)  -->
<svg version="1.1" id="Слой_1" xmlns="http://www.w3.org/2000/svg" xmlns:xlink="http://www.w3.org/1999/xlink" x="0px" y="0px"
	 viewBox="0 0 48 48" style="enable-background:new 0 0 48 48;" xml:space="preserve">
<path d="M24,40.5c2,0,3.8-0.3,5.7-1s3.5-1.6,5-2.9c-1.5-1.2-3.2-2.1-5-2.7c-1.8-0.6-3.7-1-5.6-1c-2,0-3.8,0.3-5.7,0.9
	c-1.8,0.6-3.5,1.5-5,2.8c1.4,1.3,3.1,2.3,4.9,2.9S22,40.5,24,40.5z M28.1,23.2L27,22.1c0.5-0.4,0.8-0.9,1.1-1.4
	c0.2-0.6,0.4-1.2,0.4-1.8c0-1.2-0.4-2.3-1.3-3.1c-0.9-0.9-1.9-1.3-3.1-1.3c-0.6,0-1.2,0.1-1.8,0.3c-0.6,0.2-1.1,0.6-1.4,1.1
	l-1.1-1.1c0.6-0.6,1.2-1.1,2-1.4c0.7-0.3,1.5-0.5,2.4-0.5c1.6,0,3,0.6,4.2,1.7c1.2,1.2,1.7,2.5,1.7,4.2c0,0.8-0.2,1.6-0.5,2.4
	S28.7,22.6,28.1,23.2z M38.9,34l-1-1.1c0.8-1.4,1.4-2.8,1.9-4.3c0.4-1.5,0.7-3.1,0.7-4.7c0-4.6-1.6-8.5-4.8-11.7
	C32.5,9.1,28.6,7.5,24,7.5c-1.6,0-3.2,0.2-4.7,0.7c-1.5,0.4-2.9,1.1-4.3,2l-1-1.1c1.5-1,3.1-1.8,4.8-2.3C20.4,6.3,22.2,6,24,6
	c2.5,0,4.8,0.5,7,1.4s4.1,2.2,5.7,3.8c1.6,1.6,2.9,3.5,3.8,5.7s1.4,4.5,1.4,7c0,1.8-0.3,3.6-0.8,5.3C40.7,30.9,40,32.5,38.9,34z
	 M24,42c-2.5,0-4.8-0.5-7-1.4s-4.1-2.2-5.7-3.8s-2.9-3.5-3.9-5.7C6.5,28.8,6,26.5,6,24c0-2.1,0.4-4.2,1.1-6.1s1.7-3.8,3.1-5.4L3.8,6
	l1.1-1.1l38.8,38.8l-1.1,1.1L11.3,13.5c-1.2,1.5-2.2,3.2-2.8,5s-0.9,3.6-0.9,5.6c0,2.2,0.4,4.2,1.2,6.2s1.9,3.7,3.4,5.3
	c1.8-1.2,3.7-2.2,5.7-3s4.1-1.2,6.2-1.2c1.9,0,3.7,0.3,5.5,0.9c1.8,0.6,3.5,1.4,5.1,2.4l2.1,2.1c-1.7,1.7-3.6,3-5.8,3.9
	C28.7,41.6,26.4,42,24,42z"/>
</svg>
