<?xml version="1.0" encoding="utf-8"?>
<!-- Generator: Adobe Illustrator 26.3.1, SVG Export Plug-In . SVG Version: 6.00 Build 0)  -->
<svg version="1.1" id="Слой_1" xmlns="http://www.w3.org/2000/svg" xmlns:xlink="http://www.w3.org/1999/xlink" x="0px" y="0px"
	 viewBox="0 0 48 48" style="enable-background:new 0 0 48 48;" xml:space="preserve">
<path d="M24,7c1.4,0,2.6,0.5,3.6,1.5s1.5,2.2,1.5,3.6s-0.5,2.6-1.5,3.6s-2.2,1.5-3.6,1.5s-2.6-0.5-3.6-1.5s-1.5-2.2-1.5-3.6
	s0.5-2.6,1.5-3.6S22.6,7,24,7z M24,18.8c1.3,0,2.6,0.2,3.9,0.5s2.4,0.8,3.5,1.3c1.1,0.6,1.9,1.2,2.6,1.9c0.7,0.7,1,1.5,1,2.4v9.8
	c0,0.5-0.1,1-0.4,1.4c-0.2,0.5-0.5,0.9-0.9,1.3c-0.4,0.4-0.9,0.8-1.4,1.1s-1.1,0.6-1.8,0.9v-3.8c0-1.1-0.7-1.9-2.2-2.6
	c-1.4-0.7-2.9-1-4.3-1s-2.8,0.3-4.2,0.8c-1.3,0.6-2.1,1.3-2.4,2.2c1.1,0.5,2.3,0.8,3.5,0.9c1.2,0.1,2.4,0.2,3.7,0.2
	c0.1,0,0.3,0,0.5,0s0.3,0,0.5,0v4.3c-0.2,0-0.4,0.1-0.6,0.1h-0.6c-1,0-2.1-0.1-3.4-0.3s-2.5-0.5-3.7-0.9c-1.2-0.5-2.1-1.1-2.9-1.8
	c-0.8-0.7-1.2-1.7-1.2-2.8V25c0-0.9,0.3-1.6,1-2.4c0.7-0.7,1.5-1.4,2.5-1.9c1.1-0.6,2.2-1,3.5-1.3C21.4,19,22.7,18.8,24,18.8z
	 M24,29c0.9,0,1.7-0.3,2.4-1c0.7-0.7,1-1.5,1-2.4s-0.3-1.7-1-2.4c-0.7-0.7-1.5-1-2.4-1s-1.7,0.3-2.4,1c-0.7,0.7-1,1.5-1,2.4
	s0.3,1.7,1,2.4C22.3,28.7,23.1,29,24,29z"/>
</svg>
