<?xml version="1.0" encoding="utf-8"?>
<!-- Generator: Adobe Illustrator 26.3.1, SVG Export Plug-In . SVG Version: 6.00 Build 0)  -->
<svg version="1.1" id="Слой_1" xmlns="http://www.w3.org/2000/svg" xmlns:xlink="http://www.w3.org/1999/xlink" x="0px" y="0px"
	 viewBox="0 0 48 48" style="enable-background:new 0 0 48 48;" xml:space="preserve">
<path d="M42.3,44.7L4.1,6.6l1.1-1.1l38.1,38.1L42.3,44.7z M44,26h-9.4c-0.1-0.3-0.2-0.5-0.3-0.8s-0.2-0.5-0.3-0.7h8.5
	c0-0.7-0.1-1.2-0.4-1.7s-0.7-0.8-1.3-1.1c-1.1-0.6-2.3-1.1-3.6-1.4c-1.2-0.3-2.5-0.4-3.8-0.5c-0.5,0-1.1,0-1.6,0.1
	c-0.5,0.1-1.1,0.1-1.6,0.2c-0.3-0.2-0.6-0.4-0.9-0.6s-0.6-0.4-1-0.5c0.8-0.2,1.7-0.4,2.5-0.5c0.9-0.1,1.7-0.2,2.6-0.2
	c1.4,0,2.7,0.2,4.1,0.5c1.3,0.3,2.6,0.8,3.9,1.4c0.9,0.5,1.5,1,1.9,1.7c0.4,0.6,0.6,1.5,0.6,2.5L44,26L44,26z M33.5,15.7
	c-1.3,0-2.5-0.5-3.4-1.4s-1.4-2.1-1.4-3.4s0.5-2.5,1.4-3.4C31,6.5,32.2,6,33.5,6s2.5,0.5,3.4,1.4s1.4,2.1,1.4,3.4s-0.5,2.5-1.4,3.4
	C36,15.2,34.8,15.7,33.5,15.7z M33.5,14.2c0.9,0,1.7-0.3,2.3-0.9c0.6-0.6,0.9-1.4,0.9-2.3c0-0.9-0.3-1.7-0.9-2.4
	c-0.6-0.6-1.4-1-2.3-1c-0.9,0-1.7,0.3-2.3,0.9c-0.6,0.6-0.9,1.4-0.9,2.3c0,0.9,0.3,1.7,0.9,2.4C31.8,13.8,32.6,14.2,33.5,14.2z
	 M4,26v-1.7c0-1,0.2-1.8,0.6-2.5c0.4-0.6,1.1-1.2,2-1.7c1.2-0.6,2.5-1.1,3.9-1.4c1.3-0.3,2.7-0.5,4.1-0.5c0.6,0,1.2,0,1.8,0.1
	c0.6,0.1,1.2,0.2,1.8,0.3v1.5c-0.6-0.1-1.2-0.2-1.8-0.3c-0.6-0.1-1.2-0.1-1.8-0.1c-1.3,0-2.5,0.1-3.8,0.5c-1.2,0.3-2.4,0.8-3.6,1.4
	c-0.6,0.3-1,0.7-1.3,1.1c-0.3,0.5-0.4,1-0.4,1.7H14c-0.1,0.2-0.2,0.5-0.3,0.7c-0.1,0.3-0.2,0.5-0.3,0.8C13.4,26,4,26,4,26z
	 M18.3,13.6l-6.9-6.9c0.3-0.4,0.7-0.7,1.1-1c0.4-0.3,0.8-0.5,1.2-0.6c1.8,0.4,3.2,1.2,4.2,2.2s1.5,2.2,1.5,3.5c0,0.5-0.1,1-0.3,1.5
	C18.8,12.8,18.6,13.3,18.3,13.6z M24,32.3c-0.8,0-1.4-0.3-1.9-0.8s-0.8-1.2-0.8-1.9v-5.8c0-0.3,0-0.6,0.1-0.9s0.2-0.5,0.4-0.7
	l4.8,4.8v2.6c0,0.8-0.3,1.4-0.8,1.9C25.4,32,24.7,32.3,24,32.3z M23.3,42v-3.9c-2.2-0.2-4-1.1-5.5-2.7c-1.5-1.6-2.2-3.6-2.2-5.8h1.3
	c0,2,0.7,3.7,2,5.1c1.4,1.4,3,2.1,5,2.1c1.7,0,3.2-0.5,4.4-1.6c1.3-1.1,2.1-2.4,2.4-4l1.1,1.1c-0.5,1.6-1.4,3-2.8,4
	s-2.8,1.7-4.5,1.8V42H23.3z"/>
</svg>
