<?xml version="1.0" encoding="utf-8"?>
<!-- Generator: Adobe Illustrator 26.3.1, SVG Export Plug-In . SVG Version: 6.00 Build 0)  -->
<svg version="1.1" id="Слой_1" xmlns="http://www.w3.org/2000/svg" xmlns:xlink="http://www.w3.org/1999/xlink" x="0px" y="0px"
	 viewBox="0 0 48 48" style="enable-background:new 0 0 48 48;" xml:space="preserve">
<path d="M12.2,22.4v-1.7c0-2,0.5-3.9,1.4-5.5c0.9-1.7,2.2-3,3.7-4.1l-3.2-3.2l1.5-1.5l3.6,3.6c0.7-0.3,1.5-0.6,2.3-0.8
	s1.7-0.3,2.5-0.3c0.9,0,1.7,0.1,2.5,0.3s1.6,0.4,2.3,0.8l3.6-3.6l1.5,1.5L30.8,11c1.5,1.1,2.8,2.5,3.7,4.1c0.9,1.7,1.4,3.5,1.4,5.5
	v1.7L12.2,22.4L12.2,22.4z M29.1,19c0.5,0,0.9-0.2,1.2-0.5c0.3-0.3,0.5-0.7,0.5-1.2s-0.2-0.9-0.5-1.2c-0.3-0.3-0.7-0.5-1.2-0.5
	s-0.9,0.2-1.2,0.5c-0.3,0.3-0.5,0.7-0.5,1.2s0.2,0.8,0.5,1.2C28.2,18.8,28.6,19,29.1,19z M18.9,19c0.5,0,0.9-0.2,1.2-0.5
	c0.3-0.3,0.5-0.7,0.5-1.2s-0.2-0.9-0.5-1.2c-0.3-0.3-0.7-0.5-1.2-0.5s-0.9,0.2-1.2,0.5c-0.3,0.3-0.5,0.7-0.5,1.2s0.2,0.8,0.5,1.2
	C18,18.8,18.4,19,18.9,19z M24,42.7c-3.3,0-6.1-1.1-8.4-3.4c-2.3-2.3-3.4-5.1-3.4-8.4v-6.8h23.7v6.8c0,3.3-1.1,6.1-3.4,8.4
	S27.3,42.7,24,42.7z"/>
</svg>
