<?xml version="1.0" encoding="utf-8"?>
<!-- Generator: Adobe Illustrator 26.3.1, SVG Export Plug-In . SVG Version: 6.00 Build 0)  -->
<svg version="1.1" id="Слой_1" xmlns="http://www.w3.org/2000/svg" xmlns:xlink="http://www.w3.org/1999/xlink" x="0px" y="0px"
	 viewBox="0 0 48 48" style="enable-background:new 0 0 48 48;" xml:space="preserve">
<path d="M36.5,38.8v-6.4h-6.4v-1.5h6.4v-6.3H38v6.3h6.3v1.5H38v6.4C38.1,38.8,36.5,38.8,36.5,38.8z M6.4,40c-0.8,0-1.4-0.3-2-0.8
	c-0.5-0.5-0.8-1.2-0.8-2V10.4c0-0.7,0.3-1.4,0.8-1.9s1.2-0.8,2-0.8h26.8c0.7,0,1.4,0.3,1.9,0.8C35.7,9,36,9.7,36,10.4v9.8h-1.5v-5.8
	H5.2v22.8c0,0.4,0.1,0.7,0.3,0.9c0.2,0.2,0.5,0.3,0.9,0.3h25.8V40H6.4z M5.2,12.9h29.3v-2.5c0-0.3-0.1-0.6-0.4-0.9s-0.5-0.4-0.9-0.4
	H6.4C6,9.2,5.7,9.3,5.5,9.5S5.2,10,5.2,10.4V12.9z M5.2,12.9V9.2V12.9z"/>
</svg>
