<?xml version="1.0" encoding="utf-8"?>
<!-- Generator: Adobe Illustrator 26.3.1, SVG Export Plug-In . SVG Version: 6.00 Build 0)  -->
<svg version="1.1" id="Слой_1" xmlns="http://www.w3.org/2000/svg" xmlns:xlink="http://www.w3.org/1999/xlink" x="0px" y="0px"
	 viewBox="0 0 48 48" style="enable-background:new 0 0 48 48;" xml:space="preserve">
<path d="M10,40c-0.7,0-1.4-0.3-1.9-0.8c-0.6-0.6-0.8-1.2-0.8-1.9V10.8c0-0.7,0.3-1.4,0.8-1.9C8.6,8.3,9.3,8,10,8h17.9v1.5H10
	c-0.4,0-0.7,0.1-0.9,0.3s-0.3,0.5-0.3,0.9v26.5c0,0.4,0.1,0.7,0.3,0.9s0.5,0.3,0.9,0.3h26.5c0.4,0,0.7-0.1,0.9-0.3s0.3-0.5,0.3-0.9
	V19.4h1.5v17.9c0,0.7-0.3,1.4-0.8,1.9c-0.6,0.6-1.2,0.8-1.9,0.8H10z M35.2,16.1V12h-4v-1.5h4v-4h1.5v4h4V12h-4v4.1H35.2z M14.2,32.9
	h18.3L27,25.6l-5.4,6.8L18,28.1C18.1,28.1,14.2,32.9,14.2,32.9z M8.8,9.5v28.9V9.5z"/>
</svg>
