<?xml version="1.0" encoding="utf-8"?>
<!-- Generator: Adobe Illustrator 26.3.1, SVG Export Plug-In . SVG Version: 6.00 Build 0)  -->
<svg version="1.1" id="Слой_1" xmlns="http://www.w3.org/2000/svg" xmlns:xlink="http://www.w3.org/1999/xlink" x="0px" y="0px"
	 viewBox="0 0 48 48" style="enable-background:new 0 0 48 48;" xml:space="preserve">
<path d="M24,42c-2.5,0-4.8-0.5-7-1.4s-4.1-2.2-5.7-3.8s-2.9-3.5-3.8-5.7C6.5,28.9,6,26.5,6,24s0.5-4.8,1.4-7s2.2-4.1,3.8-5.7
	s3.5-2.9,5.7-3.8C19.1,6.5,21.5,6,24,6c2.2,0,4.3,0.4,6.2,1.1s3.7,1.7,5.2,2.9l-1.1,1.2c-1.4-1.2-3-2.1-4.7-2.7
	c-1.7-0.7-3.6-1-5.6-1c-4.6,0-8.5,1.6-11.7,4.8S7.5,19.4,7.5,24s1.6,8.5,4.8,11.7s7.1,4.8,11.7,4.8c1.2,0,2.5-0.1,3.6-0.4
	c1.2-0.3,2.3-0.7,3.4-1.2l1.2,1.2c-1.2,0.6-2.5,1.1-3.9,1.4C26.9,41.8,25.5,42,24,42z M39.2,38.8v-6h-6v-1.5h6v-6h1.5v6h6v1.5h-6v6
	H39.2z M21.1,31.8l-7-7l1.1-1.2l5.8,5.8L40.8,9.7l1.2,1.1L21.1,31.8z"/>
</svg>
