<?xml version="1.0" encoding="utf-8"?>
<!-- Generator: Adobe Illustrator 26.3.1, SVG Export Plug-In . SVG Version: 6.00 Build 0)  -->
<svg version="1.1" id="Слой_1" xmlns="http://www.w3.org/2000/svg" xmlns:xlink="http://www.w3.org/1999/xlink" x="0px" y="0px"
	 viewBox="0 0 48 48" style="enable-background:new 0 0 48 48;" xml:space="preserve">
<path d="M6.8,40c-0.8,0-1.4-0.3-2-0.8C4.3,38.7,4,38,4,37.2V14.9c0-0.8,0.3-1.4,0.8-2c0.5-0.5,1.2-0.8,2-0.8h6.4L16.8,8H28v1.5H17.6
	l-3.7,4.2H6.8c-0.4,0-0.7,0.1-0.9,0.4c-0.2,0.2-0.3,0.5-0.3,0.9v22.3c0,0.4,0.1,0.7,0.3,0.9c0.2,0.2,0.5,0.3,0.9,0.3h30.5
	c0.4,0,0.7-0.1,0.9-0.3s0.3-0.5,0.3-0.9V20H40v17.2c0,0.8-0.3,1.4-0.8,2c-0.5,0.5-1.2,0.8-2,0.8H6.8z M38.5,13.7V9.5h-4.1V8h4.1V3.8
	H40V8h4.2v1.5H40v4.1L38.5,13.7L38.5,13.7z M22,33.3c2,0,3.8-0.7,5.2-2.1c1.4-1.4,2.1-3.1,2.1-5.2c0-2-0.7-3.8-2.1-5.1
	c-1.4-1.4-3.1-2.1-5.2-2.1c-2,0-3.8,0.7-5.1,2.1c-1.4,1.4-2.1,3.1-2.1,5.1s0.7,3.8,2.1,5.2C18.2,32.6,19.9,33.3,22,33.3z M22,31.8
	c-1.6,0-3-0.5-4.1-1.6s-1.6-2.4-1.6-4.1c0-1.6,0.5-3,1.6-4.1s2.4-1.6,4.1-1.6c1.6,0,3,0.5,4.1,1.6s1.6,2.4,1.6,4.1
	c0,1.6-0.5,3-1.6,4.1C25,31.2,23.6,31.8,22,31.8z"/>
</svg>
