<?xml version="1.0" encoding="utf-8"?>
<!-- Generator: Adobe Illustrator 26.3.1, SVG Export Plug-In . SVG Version: 6.00 Build 0)  -->
<svg version="1.1" id="Слой_1" xmlns="http://www.w3.org/2000/svg" xmlns:xlink="http://www.w3.org/1999/xlink" x="0px" y="0px"
	 viewBox="0 0 48 48" style="enable-background:new 0 0 48 48;" xml:space="preserve">
<path d="M25.8,27.5h1.5v-6.3h6.3v-1.5h-6.3v-6.3h-1.5v6.3h-6.3v1.5h6.3V27.5z M14.8,34.9c-0.8,0-1.4-0.3-2-0.8
	c-0.5-0.5-0.8-1.2-0.8-2V8.8c0-0.8,0.3-1.4,0.8-2C13.3,6.3,14,6,14.8,6h23.4c0.8,0,1.4,0.3,2,0.8C40.7,7.3,41,8,41,8.8v23.4
	c0,0.8-0.3,1.4-0.8,2c-0.5,0.5-1.2,0.8-2,0.8C38.2,34.9,14.8,34.9,14.8,34.9z M14.8,33.4h23.4c0.3,0,0.6-0.1,0.8-0.4
	c0.3-0.3,0.4-0.5,0.4-0.8V8.8c0-0.3-0.1-0.6-0.4-0.8c-0.3-0.3-0.5-0.4-0.8-0.4H14.8c-0.3,0-0.6,0.1-0.8,0.4
	c-0.3,0.3-0.4,0.5-0.4,0.8v23.4c0,0.3,0.1,0.6,0.4,0.8C14.3,33.3,14.5,33.4,14.8,33.4z M9.8,40c-0.8,0-1.4-0.3-2-0.8
	C7.3,38.7,7,38,7,37.2V12.3h1.5v24.9c0,0.3,0.1,0.6,0.4,0.8c0.3,0.3,0.5,0.4,0.8,0.4h24.9V40H9.8z M13.6,7.5v25.8V7.5z"/>
</svg>
