<?xml version="1.0" encoding="utf-8"?>
<!-- Generator: Adobe Illustrator 26.3.1, SVG Export Plug-In . SVG Version: 6.00 Build 0)  -->
<svg version="1.1" id="Слой_1" xmlns="http://www.w3.org/2000/svg" xmlns:xlink="http://www.w3.org/1999/xlink" x="0px" y="0px"
	 viewBox="0 0 48 48" style="enable-background:new 0 0 48 48;" xml:space="preserve">
<path d="M36.1,44v-6h-6v-1.5h6v-6h1.5v6h6V38h-6v6H36.1z M7,39V26.6H4.3v-1.5L6.7,15h27.4l2.4,10.2v1.4h-2.7v7.6h-1.5v-7.6H22V39H7z
	 M8.5,37.5h11.9V26.6H8.5V37.5z M5.9,25.1h29.2C35.1,25.1,5.9,25.1,5.9,25.1z M6.7,10.5V9h27.5v1.5H6.7z M5.9,25.1h29.2l-2-8.5H7.9
	C7.9,16.5,5.9,25.1,5.9,25.1z"/>
</svg>
