<?xml version="1.0" encoding="utf-8"?>
<!-- Generator: Adobe Illustrator 26.3.1, SVG Export Plug-In . SVG Version: 6.00 Build 0)  -->
<svg version="1.1" id="Слой_1" xmlns="http://www.w3.org/2000/svg" xmlns:xlink="http://www.w3.org/1999/xlink" x="0px" y="0px"
	 viewBox="0 0 48 48" style="enable-background:new 0 0 48 48;" xml:space="preserve">
<path d="M24,41.9c-4-1.2-7.3-3.6-10-7.2s-4-7.9-4-12.6V11.4l14-5.2l14,5.2v12.3c-0.2-0.1-0.5-0.2-0.8-0.3c-0.3-0.1-0.5-0.2-0.8-0.2
	V12.4L24,7.8l-12.5,4.6v9.7c0,2.4,0.4,4.7,1.1,6.8c0.8,2.1,1.8,3.9,3,5.5c1.3,1.6,2.7,3,4.2,4c1.6,1.1,3.2,1.8,4.8,2.2h0.1
	c0.1,0.1,0.2,0.2,0.4,0.4c0.1,0.2,0.3,0.3,0.3,0.4c-0.3,0.1-0.5,0.3-0.8,0.3C24.5,41.8,24.2,41.8,24,41.9z M34.3,42
	c-2.1,0-4-0.8-5.5-2.3s-2.2-3.3-2.2-5.4c0-2.2,0.7-4,2.2-5.5s3.3-2.3,5.5-2.3c2.1,0,3.9,0.8,5.4,2.3s2.3,3.3,2.3,5.5
	c0,2.1-0.8,3.9-2.3,5.4C38.3,41.2,36.4,42,34.3,42z M33.6,39H35v-4h4v-1.4h-4v-4h-1.4v4h-4V35h4V39z"/>
</svg>
