<?xml version="1.0" encoding="utf-8"?>
<!-- Generator: Adobe Illustrator 26.3.1, SVG Export Plug-In . SVG Version: 6.00 Build 0)  -->
<svg version="1.1" id="Слой_1" xmlns="http://www.w3.org/2000/svg" xmlns:xlink="http://www.w3.org/1999/xlink" x="0px" y="0px"
	 viewBox="0 0 48 48" style="enable-background:new 0 0 48 48;" xml:space="preserve">
<path d="M16.8,44c-0.7,0-1.4-0.3-1.9-0.8c-0.6-0.6-0.9-1.2-0.9-2v-6.3h1.5v3.2h20.9V9.8H15.5V13H14V6.8c0-0.7,0.3-1.4,0.8-1.9
	C15.4,4.3,16,4,16.8,4h18.5c0.7,0,1.4,0.3,1.9,0.8C37.7,5.4,38,6,38,6.8v34.5c0,0.7-0.3,1.4-0.8,1.9c-0.6,0.5-1.2,0.8-2,0.8H16.8z
	 M15.5,39.7v1.5c0,0.3,0.1,0.6,0.4,0.8c0.3,0.3,0.5,0.4,0.8,0.4h18.5c0.3,0,0.6-0.1,0.8-0.4c0.3-0.3,0.4-0.5,0.4-0.8v-1.5
	C36.5,39.7,15.5,39.7,15.5,39.7z M8.5,32.3l-1.1-1.1l12.7-12.7H11V17h11.8v11.8h-1.5v-9.1L8.5,32.3z M15.5,8.3h20.9V6.8
	c0-0.3-0.1-0.6-0.4-0.8c-0.3-0.3-0.5-0.4-0.8-0.4H16.8c-0.3,0-0.6,0.1-0.8,0.4c-0.3,0.3-0.4,0.5-0.4,0.8C15.5,6.8,15.5,8.3,15.5,8.3
	z M15.5,8.3V5.5V8.3z M15.5,39.7v2.8V39.7z"/>
</svg>
