<?xml version="1.0" encoding="utf-8"?>
<!-- Generator: Adobe Illustrator 26.3.1, SVG Export Plug-In . SVG Version: 6.00 Build 0)  -->
<svg version="1.1" id="Слой_1" xmlns="http://www.w3.org/2000/svg" xmlns:xlink="http://www.w3.org/1999/xlink" x="0px" y="0px"
	 viewBox="0 0 48 48" style="enable-background:new 0 0 48 48;" xml:space="preserve">
<path d="M23.2,26.8h1.5v-6h6v-1.5h-6v-6h-1.5v6h-6v1.5h6V26.8z M24,40c3.9-3.4,7-6.9,9.3-10.3s3.4-6.5,3.4-9c0-3.8-1.2-6.9-3.6-9.4
	S27.7,7.6,24,7.6c-3.6,0-6.7,1.2-9.1,3.7s-3.6,5.6-3.6,9.4c0,2.6,1.1,5.6,3.4,9C17.1,33.1,20.1,36.6,24,40z M24,42
	c-4.7-4.2-8.2-8-10.6-11.6s-3.6-6.9-3.6-9.8c0-4.2,1.4-7.7,4.1-10.5C16.7,7.4,20,6,24,6s7.3,1.4,10.1,4.1s4.1,6.2,4.1,10.5
	c0,2.9-1.2,6.2-3.6,9.8C32.2,34,28.7,37.9,24,42z"/>
</svg>
