<?xml version="1.0" encoding="utf-8"?>
<!-- Generator: Adobe Illustrator 26.3.1, SVG Export Plug-In . SVG Version: 6.00 Build 0)  -->
<svg version="1.1" id="Слой_1" xmlns="http://www.w3.org/2000/svg" xmlns:xlink="http://www.w3.org/1999/xlink" x="0px" y="0px"
	 viewBox="0 0 48 48" style="enable-background:new 0 0 48 48;" xml:space="preserve">
<path d="M24,42c-4.7-4.2-8.2-8-10.6-11.6s-3.6-6.9-3.6-9.8c0-4.2,1.4-7.7,4.1-10.5C16.7,7.4,20,6,24,6c0.3,0,0.6,0,0.9,0
	s0.6,0,0.9,0.1v1.6c-0.3,0-0.6-0.1-0.9-0.1S24.3,7.5,24,7.5c-3.6,0-6.7,1.2-9.1,3.7s-3.6,5.6-3.6,9.4c0,2.6,1.1,5.6,3.4,9
	c2.3,3.5,5.4,6.9,9.2,10.3c3.9-3.4,6.9-6.8,9.2-10.2c2.2-3.4,3.4-6.4,3.5-8.9c0-0.1,0-0.2,0-0.3c0-0.1,0-0.2-0.1-0.3h1.6
	c0,0.1,0,0.2,0,0.3v0.3c-0.1,2.9-1.3,6.2-3.7,9.7S28.6,37.9,24,42z M24,23.2c0.8,0,1.5-0.3,2.1-0.9S27,21,27,20.2
	c0-0.8-0.3-1.5-0.9-2.1s-1.3-0.9-2.1-0.9c-0.8,0-1.5,0.3-2.1,0.9S21,19.4,21,20.2s0.3,1.5,0.9,2.1C22.5,22.9,23.2,23.2,24,23.2z
	 M36.3,15.9h1.5V9.7H44V8.2h-6.2V2h-1.5v6.2h-6.2v1.5h6.2V15.9z"/>
</svg>
