<?xml version="1.0" encoding="utf-8"?>
<!-- Generator: Adobe Illustrator 26.3.1, SVG Export Plug-In . SVG Version: 6.00 Build 0)  -->
<svg version="1.1" id="Слой_1" xmlns="http://www.w3.org/2000/svg" xmlns:xlink="http://www.w3.org/1999/xlink" x="0px" y="0px"
	 viewBox="0 0 48 48" style="enable-background:new 0 0 48 48;" xml:space="preserve">
<path d="M11.4,38.5v-9h8.8v9v-9h-8.8C11.4,29.5,11.4,38.5,11.4,38.5z M4,40V23.2l11.8-8.4l12.4,8.9c-0.1,0.2-0.3,0.4-0.4,0.6
	s-0.3,0.4-0.4,0.6l-11.5-8.1L5.5,24v14.4h5.9v-9h8.8V40h-1.5v-9H13v9H4z M44,8v18.2c-0.2-0.2-0.5-0.4-0.7-0.6
	c-0.3-0.2-0.5-0.3-0.8-0.5V9.5h-20v5.7L21,14.1V8H44z M34.9,17h2.6v-2.6h-2.6V17z M36.3,44c-2.1,0-4-0.8-5.5-2.3s-2.2-3.3-2.2-5.4
	c0-2.2,0.7-4,2.2-5.5s3.3-2.3,5.5-2.3c2.1,0,3.9,0.8,5.4,2.3s2.3,3.3,2.3,5.5c0,2.1-0.8,3.9-2.3,5.4C40.3,43.2,38.4,44,36.3,44z
	 M35.6,42.2H37V37h5.2v-1.4H37v-5.2h-1.4v5.2h-5.2V37h5.2V42.2z"/>
</svg>
