<?xml version="1.0" encoding="utf-8"?>
<!-- Generator: Adobe Illustrator 26.3.1, SVG Export Plug-In . SVG Version: 6.00 Build 0)  -->
<svg version="1.1" id="Слой_1" xmlns="http://www.w3.org/2000/svg" xmlns:xlink="http://www.w3.org/1999/xlink" x="0px" y="0px"
	 viewBox="0 0 48 48" style="enable-background:new 0 0 48 48;" xml:space="preserve">
<path d="M35.6,38.2H37V33h5.2v-1.4H37v-5.2h-1.4v5.2h-5.2V33h5.2V38.2z M36.3,40c-2.1,0-4-0.8-5.5-2.3s-2.2-3.3-2.2-5.4
	c0-2.2,0.7-4,2.2-5.5s3.3-2.3,5.5-2.3c2.1,0,3.9,0.8,5.4,2.3s2.3,3.3,2.3,5.5c0,2.1-0.8,3.9-2.3,5.4C40.3,39.2,38.4,40,36.3,40z
	 M10,36V15L24,4.4L38,15v4.6c-0.2-0.1-0.5-0.1-0.8-0.1s-0.5,0-0.8,0v-3.7L24,6.3l-12.5,9.4v18.7h12.2c0,0.3,0.1,0.5,0.2,0.8
	s0.2,0.5,0.3,0.7C24.1,36,10,36,10,36z"/>
</svg>
