<?xml version="1.0" encoding="utf-8"?>
<!-- Generator: Adobe Illustrator 26.3.1, SVG Export Plug-In . SVG Version: 6.00 Build 0)  -->
<svg version="1.1" id="Слой_1" xmlns="http://www.w3.org/2000/svg" xmlns:xlink="http://www.w3.org/1999/xlink" x="0px" y="0px"
	 viewBox="0 0 48 48" style="enable-background:new 0 0 48 48;" xml:space="preserve">
<path d="M23.3,31.6c-1,0.9-2.1,1.4-3.4,1.4s-2.5-0.5-3.4-1.4s-1.4-2.1-1.4-3.4s0.5-2.5,1.4-3.4l8.3-8.4c0.9-0.9,2.1-1.4,3.4-1.4
	s2.5,0.5,3.4,1.4c0.9,0.9,1.4,2.1,1.4,3.4s-0.5,2.5-1.4,3.4L23.3,31.6z M17.5,30.5c0.8,0.8,1.6,1.1,2.5,1s1.6-0.4,2.1-1l3.6-3.6
	l-4.6-4.6l-3.6,3.6c-0.7,0.6-1,1.4-1,2.3C16.5,29.1,16.8,29.8,17.5,30.5z M30.5,17.5c-0.8-0.8-1.6-1.1-2.5-1s-1.6,0.4-2.1,1
	l-3.6,3.7l4.6,4.6l3.7-3.6c0.7-0.6,1-1.4,1-2.3C31.5,18.9,31.1,18.2,30.5,17.5z M10.8,40c-0.7,0-1.4-0.3-1.9-0.8S8,38,8,37.2V10.8
	c0-0.8,0.3-1.4,0.8-2C9.4,8.3,10,8,10.8,8H21c-0.3-1-0.1-1.9,0.5-2.7C22.1,4.4,23,4,24,4c1.1,0,1.9,0.4,2.5,1.3
	C27.2,6.1,27.3,7,27,8h10.2c0.7,0,1.4,0.3,1.9,0.8c0.6,0.6,0.9,1.2,0.9,2v26.5c0,0.7-0.3,1.4-0.8,1.9c-0.6,0.5-1.2,0.8-2,0.8H10.8z
	 M10.8,38.5h26.5c0.3,0,0.6-0.1,0.8-0.4c0.3-0.3,0.4-0.5,0.4-0.8V10.8c0-0.3-0.1-0.6-0.4-0.8c-0.3-0.3-0.5-0.4-0.8-0.4H10.8
	c-0.3,0-0.6,0.1-0.8,0.4c-0.3,0.3-0.4,0.5-0.4,0.8v26.5c0,0.3,0.1,0.6,0.4,0.8S10.5,38.5,10.8,38.5z M24,8.7c0.4,0,0.8-0.2,1.1-0.5
	c0.3-0.3,0.5-0.7,0.5-1.1c0-0.5-0.2-0.8-0.5-1.1c-0.3-0.3-0.7-0.5-1.1-0.5S23.2,5.7,22.9,6c-0.3,0.3-0.5,0.7-0.5,1.1
	c0,0.5,0.2,0.8,0.5,1.1C23.2,8.6,23.6,8.7,24,8.7z M9.5,38.5v-29V38.5z"/>
</svg>
