<?xml version="1.0" encoding="utf-8"?>
<!-- Generator: Adobe Illustrator 26.3.1, SVG Export Plug-In . SVG Version: 6.00 Build 0)  -->
<svg version="1.1" id="Слой_1" xmlns="http://www.w3.org/2000/svg" xmlns:xlink="http://www.w3.org/1999/xlink" x="0px" y="0px"
	 viewBox="0 0 48 48" style="enable-background:new 0 0 48 48;" xml:space="preserve">
<path d="M22.8,33.9c-2.5-0.3-4.6-1.4-6.3-3.3c-1.7-1.8-2.5-4-2.5-6.6c0-2.8,1-5.2,2.9-7.1S21.2,14,24,14c2.6,0,4.8,0.8,6.6,2.5
	c1.9,1.7,3,3.8,3.3,6.3l-1.7-0.5c-0.4-2-1.3-3.6-2.9-4.8c-1.5-1.3-3.3-1.9-5.4-1.9c-2.3,0-4.3,0.8-6,2.5c-1.6,1.6-2.5,3.6-2.5,6
	c0,2.1,0.6,3.8,1.9,5.4c1.3,1.5,2.9,2.5,4.8,2.9C22.3,32.3,22.8,33.9,22.8,33.9z M25.2,41.9C25,42,24.8,42,24.6,42
	c-0.2,0-0.4,0-0.6,0c-2.5,0-4.8-0.5-7-1.4s-4.1-2.2-5.7-3.8s-2.9-3.5-3.8-5.7C6.5,28.8,6,26.5,6,24s0.5-4.8,1.4-7s2.2-4.1,3.8-5.7
	s3.5-2.9,5.7-3.8C19.2,6.5,21.5,6,24,6s4.8,0.5,7,1.4s4.1,2.2,5.7,3.8c1.6,1.6,2.9,3.5,3.8,5.7c0.9,2.2,1.4,4.5,1.4,7
	c0,0.2,0,0.4,0,0.6s0,0.4-0.1,0.6l-1.5-0.4V24c0-4.6-1.6-8.5-4.8-11.7c-3-3.2-6.9-4.8-11.5-4.8s-8.5,1.6-11.7,4.8S7.5,19.4,7.5,24
	s1.6,8.5,4.8,11.7s7.1,4.8,11.7,4.8h0.7L25.2,41.9z M39.5,41.6L29.9,32l-1.8,5.6L24,24l13.5,4.1L32,29.9l9.6,9.6L39.5,41.6z"/>
</svg>
