<?xml version="1.0" encoding="utf-8"?>
<!-- Generator: Adobe Illustrator 26.3.1, SVG Export Plug-In . SVG Version: 6.00 Build 0)  -->
<svg version="1.1" id="Слой_1" xmlns="http://www.w3.org/2000/svg" xmlns:xlink="http://www.w3.org/1999/xlink" x="0px" y="0px"
	 viewBox="0 0 48 48" style="enable-background:new 0 0 48 48;" xml:space="preserve">
<path d="M24,40c-2.8,0-5.1-1-7.1-2.9C15,35.1,14,32.8,14,30c0-2.7,0.9-4.9,2.7-6.8c1.8-1.9,4-2.9,6.6-3.1V10h1.5v10.1
	c2.6,0.2,4.8,1.2,6.6,3.1s2.7,4.2,2.7,6.8c0,2.8-1,5.1-2.9,7.1S26.8,40,24,40z M24,38.5c2.2,0,4.2-0.7,5.7-2.2
	c1.6-1.5,2.5-3.3,2.7-5.5H15.6c0.2,2.2,1.1,4,2.7,5.5C19.9,37.7,21.8,38.5,24,38.5z M15.6,29.2h16.9c-0.2-2.2-1.1-4-2.7-5.5
	s-3.5-2.2-5.8-2.2c-2.2,0-4.1,0.7-5.7,2.2S15.7,27,15.6,29.2z"/>
</svg>
