<?xml version="1.0" encoding="utf-8"?>
<!-- Generator: Adobe Illustrator 26.3.1, SVG Export Plug-In . SVG Version: 6.00 Build 0)  -->
<svg version="1.1" id="Слой_1" xmlns="http://www.w3.org/2000/svg" xmlns:xlink="http://www.w3.org/1999/xlink" x="0px" y="0px"
	 viewBox="0 0 48 48" style="enable-background:new 0 0 48 48;" xml:space="preserve">
<path d="M8,40V12.8c0-1.3,0.5-2.4,1.4-3.4c0.9-0.9,2-1.4,3.4-1.4H20c1.3,0,2.4,0.5,3.4,1.4c0.9,0.9,1.4,2.1,1.4,3.4V40H8z
	 M21.2,31.5h2v-13h-2c-0.4,0-0.7,0.1-0.9,0.3C20.1,19,20,19.3,20,19.7v10.5c0,0.4,0.1,0.7,0.3,0.9C20.6,31.3,20.9,31.5,21.2,31.5z
	 M9.5,38.5h13.7V33h-2c-0.7,0-1.4-0.3-1.9-0.8s-0.8-1.2-0.8-1.9V19.8c0-0.7,0.3-1.4,0.8-1.9s1.2-0.8,1.9-0.8h2v-4.2
	c0-0.9-0.3-1.7-0.9-2.3S20.9,9.7,20,9.7h-7.2c-0.9,0-1.6,0.3-2.3,0.9c-0.6,0.6-1,1.4-1,2.3C9.5,12.8,9.5,38.5,9.5,38.5z M33.7,25.9
	c-0.6,0-1.2-0.1-1.8-0.2c-0.6-0.1-1.1-0.3-1.7-0.5l0.5-1.4c0.5,0.2,1.1,0.4,1.6,0.5c0.5,0.1,1,0.1,1.5,0.1s1-0.1,1.5-0.2
	c0.5-0.2,1-0.4,1.6-0.8c0.7-0.4,1.4-0.8,2.1-1c0.7-0.2,1.3-0.3,1.9-0.3c0.6,0,1.2,0.1,1.8,0.2s1.2,0.3,1.8,0.5L44,24.3
	c-0.7-0.2-1.3-0.4-1.7-0.5s-0.8-0.2-1.3-0.2s-1.1,0.1-1.7,0.3c-0.6,0.2-1.2,0.5-1.8,0.9s-1.2,0.7-1.8,0.8
	C34.9,25.8,34.3,25.9,33.7,25.9z M33.7,18.7c-0.6,0-1.2-0.1-1.8-0.2c-0.6-0.1-1.2-0.3-1.8-0.5l0.5-1.5c0.6,0.2,1.2,0.4,1.7,0.5
	s0.9,0.2,1.4,0.2s1-0.1,1.5-0.2s1-0.4,1.6-0.8c0.7-0.4,1.4-0.8,2.1-1c0.7-0.2,1.3-0.3,2-0.3c0.5,0,1.1,0.1,1.7,0.2
	c0.6,0.1,1.2,0.3,1.8,0.5l-0.5,1.5c-0.6-0.2-1.2-0.3-1.6-0.5c-0.5-0.1-0.9-0.2-1.4-0.2s-1.1,0.1-1.7,0.2c-0.6,0.2-1.2,0.5-1.9,1
	c-0.5,0.3-1,0.6-1.7,0.7C35,18.6,34.4,18.7,33.7,18.7z M33.7,33.2c-0.6,0-1.2-0.1-1.8-0.2c-0.6-0.1-1.2-0.3-1.8-0.5l0.5-1.5
	c0.6,0.2,1.1,0.3,1.6,0.5c0.5,0.1,1,0.2,1.4,0.2c0.5,0,1-0.1,1.5-0.2c0.5-0.2,1-0.4,1.6-0.8c0.7-0.4,1.4-0.8,2.1-1
	c0.7-0.2,1.4-0.3,2-0.3c0.5,0,1.1,0.1,1.7,0.2c0.6,0.1,1.2,0.3,1.8,0.5l-0.5,1.5c-0.6-0.2-1.2-0.4-1.7-0.5s-1-0.2-1.3-0.2
	c-0.6,0-1.2,0.1-1.8,0.3c-0.6,0.2-1.2,0.5-1.8,0.9c-0.4,0.3-1,0.6-1.6,0.7C35.1,33.1,34.4,33.2,33.7,33.2z M23.2,38.5V12.1v0.7v-0.7
	V38.5z"/>
</svg>
