<?xml version="1.0" encoding="utf-8"?>
<!-- Generator: Adobe Illustrator 26.3.1, SVG Export Plug-In . SVG Version: 6.00 Build 0)  -->
<svg version="1.1" id="Слой_1" xmlns="http://www.w3.org/2000/svg" xmlns:xlink="http://www.w3.org/1999/xlink" x="0px" y="0px"
	 viewBox="0 0 48 48" style="enable-background:new 0 0 48 48;" xml:space="preserve">
<path d="M14.8,12.7c-0.9,0-1.6-0.3-2.2-0.9c-0.6-0.6-0.9-1.4-0.9-2.2S12,8,12.6,7.4c0.6-0.6,1.4-0.9,2.2-0.9c0.9,0,1.6,0.3,2.2,0.9
	c0.7,0.5,1,1.3,1,2.1s-0.3,1.6-0.9,2.2C16.5,12.4,15.7,12.7,14.8,12.7z M27.9,37.5H15.5c-0.8,0-1.5-0.3-2.1-0.8s-1-1.1-1.1-1.9
	L8,13.4h1.6l4.2,21.4c0.1,0.3,0.3,0.6,0.5,0.8c0.3,0.3,0.6,0.4,0.9,0.4H28C27.9,36,27.9,37.5,27.9,37.5z M38.5,42.8l-5.1-8.9H18.1
	c-0.7,0-1.3-0.2-1.8-0.6c-0.5-0.4-0.8-0.9-1-1.5l-2.4-12c-0.2-1.4,0.1-2.5,0.9-3.4s1.9-1.4,3.1-1.4c0.9,0,1.8,0.3,2.5,0.9
	c0.7,0.6,1.2,1.4,1.4,2.3l2.5,12.3h8.2c0.5,0,0.9,0.1,1.4,0.4c0.4,0.3,0.8,0.7,1,1.1l6,10L38.5,42.8z"/>
</svg>
