<?xml version="1.0" encoding="utf-8"?>
<!-- Generator: Adobe Illustrator 26.3.1, SVG Export Plug-In . SVG Version: 6.00 Build 0)  -->
<svg version="1.1" id="Слой_1" xmlns="http://www.w3.org/2000/svg" xmlns:xlink="http://www.w3.org/1999/xlink" x="0px" y="0px"
	 viewBox="0 0 48 48" style="enable-background:new 0 0 48 48;" xml:space="preserve">
<path d="M30,37.8H16.3c-0.8,0-1.4-0.3-2-0.8c-0.5-0.5-0.8-1.2-0.8-2V13.7H15V35c0,0.3,0.1,0.6,0.4,0.8c0.3,0.3,0.5,0.4,0.8,0.4H30
	V37.8z M21,13.1c-1,0-1.8-0.3-2.4-1c-0.7-0.7-1-1.5-1-2.4c0-1,0.3-1.8,1-2.4c0.7-0.7,1.5-1,2.4-1c1,0,1.8,0.3,2.5,1s1,1.5,1,2.4
	c0,1-0.3,1.8-1,2.4S22,13.1,21,13.1z M33,43v-8.8H20c-0.8,0-1.5-0.3-2.1-0.9c-0.6-0.6-0.9-1.2-0.9-2V19.6c0-1.1,0.4-2,1.1-2.8
	c0.8-0.8,1.7-1.1,2.8-1.1s2.1,0.4,2.8,1.1c0.8,0.8,1.1,1.7,1.1,2.8v11.1h6.7c0.8,0,1.4,0.3,2,0.8c0.6,0.6,0.9,1.2,0.9,2V43H33z"/>
</svg>
