<?xml version="1.0" encoding="utf-8"?>
<!-- Generator: Adobe Illustrator 26.3.1, SVG Export Plug-In . SVG Version: 6.00 Build 0)  -->
<svg version="1.1" id="Слой_1" xmlns="http://www.w3.org/2000/svg" xmlns:xlink="http://www.w3.org/1999/xlink" x="0px" y="0px"
	 viewBox="0 0 48 48" style="enable-background:new 0 0 48 48;" xml:space="preserve">
<path d="M19.4,36v-1.5h3.8c0-5.2-1.7-9.6-4.9-13.4C15.1,17.2,11,15.3,6,15.3v-1.5c4.3,0,8.2,1.4,11.4,4.2c3.3,2.8,5.5,6.4,6.6,10.7
	c1-3.4,2.7-6.3,5-8.9c2.4-2.5,5.1-4.6,8.2-6.3H29V12h11v11h-1.5v-8.3c-4,1.9-7.2,4.6-9.8,8.1s-3.9,7.4-3.9,11.7h3.7V36H19.4z"/>
</svg>
