<?xml version="1.0" encoding="utf-8"?>
<!-- Generator: Adobe Illustrator 26.3.1, SVG Export Plug-In . SVG Version: 6.00 Build 0)  -->
<svg version="1.1" id="Слой_1" xmlns="http://www.w3.org/2000/svg" xmlns:xlink="http://www.w3.org/1999/xlink" x="0px" y="0px"
	 viewBox="0 0 48 48" style="enable-background:new 0 0 48 48;" xml:space="preserve">
<path d="M9,36.5h26.1l5-24.9H27.4L9,36.5z M6,38l20.6-28H42l-5.6,28H6z M28.6,26.3c0.9,0,1.7-0.3,2.4-1c0.7-0.6,1-1.4,1-2.3
	s-0.3-1.7-1-2.3c-0.6-0.7-1.4-1-2.4-1c-0.9,0-1.7,0.3-2.3,1c-0.6,0.6-1,1.4-1,2.4c0,0.9,0.3,1.7,1,2.3C26.9,26,27.7,26.3,28.6,26.3z
	 M9,36.5h26.1C35.2,36.5,9,36.5,9,36.5z"/>
</svg>
