<?xml version="1.0" encoding="utf-8"?>
<!-- Generator: Adobe Illustrator 26.3.1, SVG Export Plug-In . SVG Version: 6.00 Build 0)  -->
<svg version="1.1" id="Слой_1" xmlns="http://www.w3.org/2000/svg" xmlns:xlink="http://www.w3.org/1999/xlink" x="0px" y="0px"
	 viewBox="0 0 48 48" style="enable-background:new 0 0 48 48;" xml:space="preserve">
<path d="M19.1,26V16h16c1.6,0,3,0.6,4.1,1.7s1.7,2.5,1.7,4.1V26H19.1z M20.6,17.5v6.9V17.5z M7.1,31.5V30h33.8v1.5
	C40.9,31.5,7.1,31.5,7.1,31.5z M11.3,26c-1.2,0-2.2-0.4-3-1.2s-1.2-1.8-1.2-3s0.4-2.2,1.2-3s1.8-1.2,3-1.2s2.2,0.4,3,1.2
	c0.8,0.8,1.2,1.8,1.2,3s-0.4,2.2-1.2,3C13.5,25.6,12.5,26,11.3,26z M11.3,24.5c0.8,0,1.4-0.3,1.9-0.8s0.8-1.2,0.8-1.9
	c0-0.8-0.3-1.4-0.8-1.9s-1.2-0.8-1.9-0.8c-0.8,0-1.4,0.3-1.9,0.8s-0.8,1.2-0.8,1.9c0,0.8,0.3,1.4,0.8,1.9
	C9.9,24.2,10.5,24.5,11.3,24.5z M20.6,24.5h18.8v-2.7c0-1.1-0.4-2.1-1.3-3c-0.8-0.8-1.8-1.3-3-1.3H20.6V24.5z"/>
</svg>
