<?xml version="1.0" encoding="utf-8"?>
<!-- Generator: Adobe Illustrator 26.3.1, SVG Export Plug-In . SVG Version: 6.00 Build 0)  -->
<svg version="1.1" id="Слой_1" xmlns="http://www.w3.org/2000/svg" xmlns:xlink="http://www.w3.org/1999/xlink" x="0px" y="0px"
	 viewBox="0 0 48 48" style="enable-background:new 0 0 48 48;" xml:space="preserve">
<path d="M19.5,24.2l3.4-9.4L38,20.3c1.5,0.5,2.6,1.5,3.3,3c0.7,1.4,0.7,2.9,0.2,4.5L40,31.7L19.5,24.2z M23.9,16.7
	c-0.3,0.7-0.5,1.4-0.7,2.1s-0.5,1.3-0.7,2l-0.9,2.5L23.9,16.7z M6.4,25.3l0.5-1.4l31.8,11.5l-0.5,1.5C38.2,36.8,6.4,25.3,6.4,25.3z
	 M13.7,21.7c-1.2,0-2.2-0.4-3-1.2c-0.8-0.8-1.2-1.8-1.2-3s0.4-2.2,1.2-3s1.8-1.2,3-1.2s2.2,0.4,3,1.2c0.8,0.8,1.2,1.8,1.2,3
	s-0.4,2.2-1.2,3C15.8,21.3,14.8,21.7,13.7,21.7z M13.6,20.2c0.8,0,1.4-0.3,1.9-0.8s0.8-1.1,0.8-1.9s-0.3-1.4-0.8-1.9
	s-1.1-0.8-1.9-0.8c-0.8,0-1.4,0.3-1.9,0.8S11,16.7,11,17.5s0.2,1.4,0.7,1.9C12.3,19.9,12.9,20.2,13.6,20.2z M21.5,23.3l17.6,6.4
	l0.9-2.5c0.4-1.1,0.3-2.2-0.2-3.2c-0.5-1.1-1.3-1.8-2.4-2.2l-13.6-5C23.9,16.7,21.5,23.3,21.5,23.3z"/>
</svg>
