<?xml version="1.0" encoding="utf-8"?>
<!-- Generator: Adobe Illustrator 26.3.1, SVG Export Plug-In . SVG Version: 6.00 Build 0)  -->
<svg version="1.1" id="Слой_1" xmlns="http://www.w3.org/2000/svg" xmlns:xlink="http://www.w3.org/1999/xlink" x="0px" y="0px"
	 viewBox="0 0 48 48" style="enable-background:new 0 0 48 48;" xml:space="preserve">
<path d="M15.6,40l8.4-8.4l8.4,8.4H15.6z M6,33.2V10.8c0-0.8,0.3-1.4,0.8-2C7.3,8.3,8,8,8.8,8h30.5c0.8,0,1.4,0.3,2,0.8
	c0.5,0.5,0.8,1.2,0.8,2v22.5c0,0.7-0.3,1.4-0.8,1.9C40.6,35.7,40,36,39.2,36h-4.8v-1.5h4.8c0.3,0,0.6-0.1,0.8-0.4
	c0.3-0.3,0.4-0.5,0.4-0.8V10.8c0-0.3-0.1-0.6-0.4-0.8c-0.3-0.3-0.5-0.4-0.8-0.4H8.8C8.5,9.6,8.2,9.7,8,10c-0.3,0.3-0.4,0.5-0.4,0.8
	v22.5c0,0.3,0.1,0.6,0.4,0.8c0.3,0.3,0.5,0.4,0.8,0.4h4.8V36H8.8c-0.7,0-1.4-0.3-1.9-0.8C6.3,34.6,6,34,6,33.2z"/>
</svg>
