<?xml version="1.0" encoding="utf-8"?>
<!-- Generator: Adobe Illustrator 26.3.1, SVG Export Plug-In . SVG Version: 6.00 Build 0)  -->
<svg version="1.1" id="Слой_1" xmlns="http://www.w3.org/2000/svg" xmlns:xlink="http://www.w3.org/1999/xlink" x="0px" y="0px"
	 viewBox="0 0 48 48" style="enable-background:new 0 0 48 48;" xml:space="preserve">
<path d="M12.5,34.4c-1.2,0-2.1-0.4-2.9-1.2c-0.8-0.8-1.2-1.8-1.2-2.9H4.5V13.8c0-0.5,0.2-0.9,0.5-1.2C5.4,12.2,5.8,12,6.3,12h26.5
	l10.7,10.1v8.1h-3.2c0,1.2-0.4,2.1-1.2,2.9c-0.8,0.8-1.8,1.2-2.9,1.2c-1.2,0-2.1-0.4-2.9-1.2c-0.8-0.8-1.2-1.8-1.2-2.9H16.7
	c0,1.1-0.4,2.1-1.2,2.9C14.6,34,13.6,34.4,12.5,34.4z M28.5,21.2h11.7l-8.1-7.6h-3.6C28.5,13.6,28.5,21.2,28.5,21.2z M17.3,21.2H27
	v-7.6h-9.7V21.2z M6,21.2h9.7v-7.6H6C6,13.5,6,21.2,6,21.2z M12.5,33c0.8,0,1.4-0.3,1.9-0.8s0.8-1.2,0.8-1.9c0-0.8-0.3-1.4-0.8-1.9
	s-1.2-0.8-1.9-0.8c-0.8,0-1.4,0.3-1.9,0.8s-0.8,1.2-0.8,1.9c0,0.8,0.3,1.4,0.8,1.9S11.7,33,12.5,33z M36.1,33c0.8,0,1.4-0.3,1.9-0.8
	s0.8-1.2,0.8-1.9c0-0.8-0.3-1.4-0.8-1.9s-1.2-0.8-1.9-0.8c-0.8,0-1.4,0.3-1.9,0.8s-0.8,1.2-0.8,1.9c0,0.8,0.3,1.4,0.8,1.9
	C34.7,32.7,35.3,33,36.1,33z M6,28.7h2.5c0.3-0.7,0.8-1.4,1.5-1.9s1.6-0.8,2.4-0.8c0.9,0,1.6,0.2,2.4,0.7s1.3,1.1,1.6,1.9h15.7
	c0.3-0.7,0.8-1.3,1.5-1.8S35.2,26,36,26c0.9,0,1.6,0.2,2.4,0.7c0.7,0.5,1.3,1.1,1.6,1.9h2v-6H6C6,22.7,6,28.7,6,28.7z M42,22.7H6H42
	z"/>
</svg>
