<?xml version="1.0" encoding="utf-8"?>
<!-- Generator: Adobe Illustrator 26.3.1, SVG Export Plug-In . SVG Version: 6.00 Build 0)  -->
<svg version="1.1" id="Слой_1" xmlns="http://www.w3.org/2000/svg" xmlns:xlink="http://www.w3.org/1999/xlink" x="0px" y="0px"
	 viewBox="0 0 48 48" style="enable-background:new 0 0 48 48;" xml:space="preserve">
<path d="M37.6,33l-1.1-1.1c0.4-1,0.8-1.9,1-3s0.3-2,0.3-3c0-4.1-1.4-7.5-4.2-10.2c-2.9-2.8-6.3-4.1-10.3-4.1c-1,0-2,0.1-3,0.3
	s-1.9,0.6-2.8,1l-1.2-1.2c1-0.5,2.1-0.9,3.3-1.2c1.2-0.3,2.4-0.5,3.7-0.5c2.2,0,4.3,0.4,6.3,1.2s3.7,2,5.1,3.4
	c1.5,1.4,2.6,3.1,3.5,5.1c0.9,1.9,1.3,4,1.2,6.2c0,1.2-0.1,2.4-0.4,3.6C38.6,30.7,38.2,31.9,37.6,33z M41.3,14.7l-6.8-6.8l1.1-1
	l6.9,6.7C42.5,13.5,41.3,14.7,41.3,14.7z M41.2,43.9l-6.5-6.6c-1.4,1.4-3,2.5-5,3.4c-2,0.8-4.1,1.3-6.3,1.3s-4.3-0.4-6.2-1.3
	s-3.6-2-5.1-3.4c-1.4-1.5-2.6-3.2-3.4-5.1s-1.2-4-1.2-6.3c0-2.1,0.4-4.1,1.2-6s1.9-3.7,3.4-5.2l-3.4-3.4l-3.3,3.3l-1.1-1.1l3.3-3.3
	L4.2,6.8l1.1-1.1l37,37.1L41.2,43.9z M23.3,40.4c1.9,0,3.7-0.4,5.5-1.1c1.7-0.7,3.3-1.7,4.7-3.1L13.1,15.7c-1.4,1.4-2.4,2.9-3.1,4.7
	c-0.7,1.7-1.1,3.6-1.1,5.5c0,4,1.4,7.5,4.2,10.3C15.8,39,19.3,40.4,23.3,40.4z"/>
</svg>
