<?xml version="1.0" encoding="utf-8"?>
<!-- Generator: Adobe Illustrator 26.3.1, SVG Export Plug-In . SVG Version: 6.00 Build 0)  -->
<svg version="1.1" id="Слой_1" xmlns="http://www.w3.org/2000/svg" xmlns:xlink="http://www.w3.org/1999/xlink" x="0px" y="0px"
	 viewBox="0 0 48 48" style="enable-background:new 0 0 48 48;" xml:space="preserve">
<path d="M24,41.9c-2.2,0-4.3-0.4-6.2-1.2c-1.9-0.8-3.6-2-5.1-3.4c-1.4-1.4-2.6-3.1-3.4-5.1C8.4,30.3,8,28.2,8,26s0.4-4.3,1.3-6.2
	s2-3.6,3.4-5.1s3.1-2.6,5.1-3.4c1.9-0.8,4-1.2,6.2-1.2s4.3,0.4,6.2,1.2s3.6,2,5.1,3.4c1.5,1.5,2.6,3.2,3.4,5.1
	c0.8,1.9,1.2,4,1.2,6.2s-0.4,4.3-1.2,6.2s-2,3.6-3.4,5.1c-1.5,1.4-3.2,2.6-5.1,3.4C28.2,41.5,26.2,41.9,24,41.9z M30.5,33.6l1.1-1.1
	l-6.7-6.7V16h-1.5v10.4C23.3,26.4,30.5,33.6,30.5,33.6z M11.6,6.8l1.1,1.1l-6.8,6.7l-1.1-1.1L11.6,6.8z M36.4,6.8l6.9,6.7l-1.1,1.1
	l-6.8-6.7L36.4,6.8z M24,40.4c4,0,7.4-1.4,10.2-4.2S38.4,30,38.4,26s-1.4-7.4-4.2-10.2S28,11.6,24,11.6s-7.4,1.4-10.2,4.2
	C10.9,18.6,9.5,22,9.5,26s1.4,7.4,4.2,10.2C16.6,39,20,40.4,24,40.4z"/>
</svg>
