<?xml version="1.0" encoding="utf-8"?>
<!-- Generator: Adobe Illustrator 26.3.1, SVG Export Plug-In . SVG Version: 6.00 Build 0)  -->
<svg version="1.1" id="Слой_1" xmlns="http://www.w3.org/2000/svg" xmlns:xlink="http://www.w3.org/1999/xlink" x="0px" y="0px"
	 viewBox="0 0 48 48" style="enable-background:new 0 0 48 48;" xml:space="preserve">
<path d="M11.8,34.5L18.6,24l-6.8-10.5L18.6,24l-1.1,1.6c-0.7,1.1-1.5,2.3-2.3,3.6c-0.8,1.3-1.6,2.5-2.3,3.6L11.8,34.5z M9.1,36
	l7.7-12L9.1,12h19c0.8,0,1.5,0.2,2.1,0.5c0.7,0.4,1.2,0.8,1.6,1.5L39,24.2l-0.4,0.5c-0.2,0-0.4-0.1-0.6-0.1c-0.2,0-0.4-0.1-0.6-0.1
	l-7.2-10c-0.2-0.3-0.5-0.6-0.8-0.7c-0.3-0.2-0.7-0.3-1.1-0.3H11.8L18.6,24l-6.8,10.5h12.6c0,0.2-0.1,0.5-0.1,0.8s0,0.5,0,0.8
	C24.3,36,9.1,36,9.1,36z M35,39.9l5.7-5.6L39.5,33L35,37.4l-1.9-2l-1.3,1.3C31.9,36.7,35,39.9,35,39.9z M36.3,44.2
	c-2.1,0-4-0.8-5.5-2.3s-2.2-3.3-2.2-5.4c0-2.2,0.7-4,2.2-5.5s3.3-2.2,5.5-2.2c2.1,0,3.9,0.7,5.4,2.2s2.3,3.3,2.3,5.5
	c0,2.1-0.8,3.9-2.3,5.4C40.3,43.5,38.4,44.2,36.3,44.2z"/>
</svg>
