<?xml version="1.0" encoding="utf-8"?>
<!-- Generator: Adobe Illustrator 26.3.1, SVG Export Plug-In . SVG Version: 6.00 Build 0)  -->
<svg version="1.1" id="Слой_1" xmlns="http://www.w3.org/2000/svg" xmlns:xlink="http://www.w3.org/1999/xlink" x="0px" y="0px"
	 viewBox="0 0 48 48" style="enable-background:new 0 0 48 48;" xml:space="preserve">
<path d="M24,42c-2.5,0-4.8-0.5-7-1.4s-4.1-2.2-5.7-3.8s-2.9-3.5-3.8-5.7C6.5,28.8,6,26.5,6,24s0.5-4.8,1.4-7s2.2-4.1,3.8-5.7
	s3.5-2.9,5.7-3.8C19.2,6.5,21.5,6,24,6s4.8,0.5,7,1.4s4.1,2.2,5.7,3.8c1.6,1.6,2.9,3.5,3.8,5.7c0.9,2.2,1.4,4.5,1.4,7v1.8
	c0,1.6-0.6,3-1.7,4.1c-1.1,1.1-2.5,1.7-4.2,1.7c-1.2,0-2.3-0.3-3.3-1s-1.7-1.6-2.1-2.8c-0.6,1.4-1.6,2.3-2.8,3s-2.5,1-3.8,1
	c-2.1,0-3.9-0.7-5.4-2.2s-2.3-3.3-2.3-5.5s0.8-4,2.3-5.5s3.3-2.2,5.4-2.2s3.9,0.7,5.4,2.2s2.3,3.3,2.3,5.5v1.8
	c0,1.2,0.4,2.2,1.3,3.1c0.9,0.8,1.9,1.3,3.1,1.3s2.2-0.4,3.1-1.3c0.9-0.8,1.3-1.9,1.3-3.1V24c0-4.6-1.6-8.5-4.8-11.7
	C32.5,9.1,28.6,7.5,24,7.5s-8.5,1.6-11.7,4.8S7.5,19.4,7.5,24s1.6,8.5,4.8,11.7s7.1,4.8,11.7,4.8h10.3V42H24z M24,30.1
	c1.7,0,3.2-0.6,4.4-1.8c1.2-1.2,1.8-2.6,1.8-4.4c0-1.7-0.6-3.2-1.8-4.4c-1.2-1.2-2.7-1.8-4.4-1.8c-1.7,0-3.2,0.6-4.4,1.8
	c-1.2,1.2-1.8,2.7-1.8,4.4c0,1.7,0.6,3.1,1.8,4.3S22.3,30.1,24,30.1z"/>
</svg>
