<?xml version="1.0" encoding="utf-8"?>
<!-- Generator: Adobe Illustrator 26.3.1, SVG Export Plug-In . SVG Version: 6.00 Build 0)  -->
<svg version="1.1" id="Слой_1" xmlns="http://www.w3.org/2000/svg" xmlns:xlink="http://www.w3.org/1999/xlink" x="0px" y="0px"
	 viewBox="0 0 48 48" style="enable-background:new 0 0 48 48;" xml:space="preserve">
<path d="M23.2,9.5V3.7h1.5v5.8H23.2z M15.8,11.8l-4.4-4.4l1.1-1.1l4.4,4.4C17,10.7,15.8,11.8,15.8,11.8z M8.8,44
	c-0.2,0-0.4-0.1-0.5-0.2C8.1,43.6,8,43.4,8,43.2V28.5L12,17c0.1-0.3,0.3-0.6,0.6-0.7c0.3-0.2,0.6-0.3,0.9-0.3h6.7v-3h3.6
	c-0.3,0.7-0.6,1.4-0.8,2.2c-0.2,0.7-0.3,1.5-0.4,2.3l0,0h-9.2l-3.2,9.1h16c0.3,0.3,0.6,0.5,0.9,0.8s0.6,0.5,1,0.7H9.5v10.2h28.9
	v-8.7c0.3-0.1,0.5-0.2,0.8-0.3c0.3-0.1,0.5-0.2,0.7-0.4v14.2c0,0.2-0.1,0.4-0.2,0.5c-0.1,0.1-0.3,0.2-0.5,0.2l0,0
	c-0.2,0-0.4-0.1-0.5-0.2c-0.1-0.1-0.2-0.3-0.2-0.5v-3.3h-29v3.3c0,0.2-0.1,0.4-0.2,0.5C9.2,43.9,9,44,8.8,44z M13.4,34.5h5.4
	c0.3,0,0.6-0.1,0.9-0.4c0.2-0.2,0.4-0.5,0.4-0.9c0-0.3-0.1-0.6-0.4-0.9c-0.2-0.2-0.5-0.3-0.9-0.3h-5.4V34.5z M34.6,34.5V32h-5.4
	c-0.3,0-0.6,0.1-0.9,0.4C28.1,32.7,28,33,28,33.3s0.1,0.6,0.4,0.9c0.2,0.2,0.5,0.4,0.9,0.4h5.3V34.5z M9.5,28.2v10.2V28.2z M33.4,22
	l6.4-6.4l-0.9-0.9l-5.4,5.5l-2.7-2.7l-0.9,0.9L33.4,22z M34.8,10.2c2.2,0,4,0.8,5.6,2.3c1.5,1.5,2.3,3.4,2.3,5.6s-0.8,4-2.3,5.6
	C38.9,25.2,37,26,34.8,26s-4-0.8-5.6-2.3c-1.5-1.5-2.3-3.4-2.3-5.6s0.8-4,2.3-5.6C30.7,11,32.6,10.2,34.8,10.2z"/>
</svg>
