<?xml version="1.0" encoding="utf-8"?>
<!-- Generator: Adobe Illustrator 26.3.1, SVG Export Plug-In . SVG Version: 6.00 Build 0)  -->
<svg version="1.1" id="Слой_1" xmlns="http://www.w3.org/2000/svg" xmlns:xlink="http://www.w3.org/1999/xlink" x="0px" y="0px"
	 viewBox="0 0 48 48" style="enable-background:new 0 0 48 48;" xml:space="preserve">
<path d="M24,42.2c-2.3,0-4.4-0.3-6.4-1s-3.7-1.6-5.1-2.8C11,37.2,9.9,35.8,9,34.3c-0.8-1.6-1.3-3.2-1.3-5v-3.2l4.9,3.7L10,32.6
	c1,2.3,2.7,4.3,5.1,5.7c2.4,1.5,5.1,2.3,8.1,2.4V21.9H17v-1.5h6.2v-5.1C22,15,21,14.4,20.3,13.6c-0.7-0.9-1.1-1.9-1.1-3
	c0-1.3,0.5-2.5,1.4-3.4s2.1-1.4,3.4-1.4s2.5,0.5,3.4,1.4s1.4,2.1,1.4,3.4c0,1.1-0.4,2.2-1.1,3C27,14.5,26,15,24.8,15.3v5.1H31v1.5
	h-6.2v18.7c3-0.1,5.7-0.9,8.2-2.4c2.4-1.5,4.1-3.4,5.1-5.7l-2.7-2.7l4.9-3.7v3.2c0,1.8-0.4,3.4-1.3,5c-0.8,1.6-2,2.9-3.5,4.1
	c-1.5,1.2-3.2,2.1-5.1,2.8C28.4,41.9,26.3,42.2,24,42.2z M24,13.8c0.9,0,1.7-0.3,2.3-1c0.6-0.6,0.9-1.4,0.9-2.3
	c0-0.9-0.3-1.7-0.9-2.3S24.9,7.3,24,7.3s-1.6,0.3-2.3,0.9c-0.6,0.6-1,1.4-1,2.3c0,0.9,0.3,1.6,1,2.3C22.4,13.4,23.1,13.8,24,13.8z"
	/>
</svg>
