<?xml version="1.0" encoding="utf-8"?>
<!-- Generator: Adobe Illustrator 26.3.1, SVG Export Plug-In . SVG Version: 6.00 Build 0)  -->
<svg version="1.1" id="Слой_1" xmlns="http://www.w3.org/2000/svg" xmlns:xlink="http://www.w3.org/1999/xlink" x="0px" y="0px"
	 viewBox="0 0 48 48" style="enable-background:new 0 0 48 48;" xml:space="preserve">
<path d="M25.2,25l8.9-6l-8.9-6.1C25.2,12.9,25.2,25,25.2,25z M37.7,37h0.7c0.1,0.4,0,0.8-0.2,1.1s-0.6,0.5-1,0.5L12,41.7
	c-0.8,0.1-1.5-0.1-2.1-0.5c-0.6-0.5-0.9-1.1-1-1.8L6.2,18.5c-0.1-0.8,0.1-1.5,0.6-2.1s1.1-1,1.9-1.1l1.7-0.2v1.6l-1.5,0.1
	c-0.3,0.1-0.6,0.2-0.8,0.5s-0.3,0.6-0.3,0.9L10.4,39c0.1,0.4,0.2,0.6,0.5,0.8s0.6,0.3,0.9,0.2C11.8,40.2,37.7,37,37.7,37z
	 M16.7,33.4c-0.8,0-1.4-0.3-2-0.8c-0.5-0.5-0.8-1.2-0.8-2V8.2c0-0.8,0.3-1.4,0.8-2c0.5-0.5,1.2-0.8,2-0.8h22.5c0.8,0,1.4,0.3,2,0.8
	c0.5,0.5,0.8,1.2,0.8,2v22.5c0,0.8-0.3,1.4-0.8,2c-0.5,0.5-1.2,0.8-2,0.8C39.2,33.4,16.7,33.4,16.7,33.4z M16.7,31.9h22.5
	c0.4,0,0.7-0.1,0.9-0.4c0.2-0.2,0.3-0.5,0.3-0.9V8.2c0-0.4-0.1-0.7-0.3-0.9C39.9,7.1,39.6,7,39.2,7H16.7c-0.3,0-0.6,0.1-0.9,0.3
	c-0.2,0.2-0.4,0.5-0.4,0.9v22.5c0,0.3,0.1,0.6,0.4,0.9C16.1,31.8,16.4,31.9,16.7,31.9z"/>
</svg>
