<?xml version="1.0" encoding="utf-8"?>
<!-- Generator: Adobe Illustrator 26.3.1, SVG Export Plug-In . SVG Version: 6.00 Build 0)  -->
<svg version="1.1" id="Слой_1" xmlns="http://www.w3.org/2000/svg" xmlns:xlink="http://www.w3.org/1999/xlink" x="0px" y="0px"
	 viewBox="0 0 48 48" style="enable-background:new 0 0 48 48;" xml:space="preserve">
<path d="M17.9,42c-1.6,0-3.2-0.3-4.6-0.9c-1.4-0.6-2.7-1.5-3.8-2.6S7.6,36.2,7,34.7c-0.6-1.4-0.9-3-0.9-4.6c0-2.4,0.6-4.5,1.9-6.5
	s3-3.4,5.2-4.3c0.6-1.4,1.5-2.7,2.5-3.8c1.1-1.1,2.3-1.9,3.8-2.5c0.9-2.2,2.4-3.9,4.2-5.2c1.8-1.2,4-1.8,6.5-1.8
	c1.6,0,3.2,0.3,4.6,0.9c1.4,0.6,2.7,1.5,3.8,2.6s1.9,2.4,2.5,3.8s0.9,2.9,0.9,4.6c0,2.5-0.6,4.6-1.8,6.5s-3,3.3-5.3,4.3
	c-0.6,1.5-1.4,2.7-2.5,3.7c-1,1-2.3,1.9-3.8,2.5c-0.9,2.2-2.3,3.9-4.2,5.2S20.3,42,17.9,42z M17.9,40.5c1.7,0,3.4-0.4,5-1.3
	c1.7-0.9,2.9-2.1,3.8-3.7c-2.1,0.4-4.1,0.4-6-0.2c-1.9-0.6-3.6-1.6-5-2.9c-1.4-1.4-2.4-3.1-3-5s-0.7-3.9-0.2-6
	c-1.6,0.9-2.8,2.1-3.6,3.8c-0.9,1.6-1.3,3.3-1.3,5c0,1.4,0.3,2.8,0.8,4s1.3,2.3,2.2,3.3c1,0.9,2.1,1.7,3.3,2.2
	C15.1,40.2,16.5,40.5,17.9,40.5z M24,34.3c2.1,0,3.9-0.5,5.5-1.5c1.5-1,2.7-2.1,3.4-3.4c-2.1,0.4-4.1,0.4-6-0.3
	c-1.9-0.6-3.6-1.6-4.9-3c-1.4-1.4-2.4-3.1-3-5s-0.7-3.9-0.2-6c-1.5,1-2.7,2.2-3.6,3.6c-0.9,1.5-1.3,3.2-1.3,5.2c0,1.4,0.3,2.7,0.8,4
	c0.5,1.2,1.3,2.3,2.2,3.3c0.9,1,2,1.7,3.3,2.2C21.3,34,22.6,34.3,24,34.3z M30.3,28.1c0.6,0,1.2-0.1,1.7-0.2
	c0.6-0.1,1.2-0.3,1.8-0.5c0.7-2,0.8-3.9,0.3-5.8c-0.5-1.9-1.4-3.5-2.8-4.9c-1.3-1.3-3-2.2-4.9-2.7s-3.9-0.4-5.8,0.2
	c-0.2,0.6-0.3,1.1-0.4,1.7s-0.1,1.2-0.1,1.9c0,1.4,0.3,2.7,0.8,4c0.5,1.2,1.3,2.4,2.2,3.3c0.9,1,2,1.7,3.3,2.2
	C27.6,27.8,28.9,28.1,30.3,28.1z M35.7,26.7c1.5-0.9,2.7-2,3.5-3.4s1.3-3.2,1.3-5.4c0-1.4-0.3-2.7-0.8-4c-0.5-1.2-1.3-2.3-2.2-3.3
	c-1-1-2.1-1.7-3.3-2.3c-1.2-0.5-2.6-0.8-4-0.8c-1.9,0-3.6,0.4-5.1,1.3s-2.8,2-3.8,3.6c2.1-0.4,4.1-0.4,6.1,0.3c2,0.6,3.6,1.6,5.1,3
	c1.4,1.4,2.5,3.1,3.1,5C36.1,22.6,36.2,24.6,35.7,26.7z"/>
</svg>
