<?xml version="1.0" encoding="utf-8"?>
<!-- Generator: Adobe Illustrator 26.3.1, SVG Export Plug-In . SVG Version: 6.00 Build 0)  -->
<svg version="1.1" id="Слой_1" xmlns="http://www.w3.org/2000/svg" xmlns:xlink="http://www.w3.org/1999/xlink" x="0px" y="0px"
	 viewBox="0 0 48 48" style="enable-background:new 0 0 48 48;" xml:space="preserve">
<path d="M7,40.3V14.4h8.1V6.3h17.8v16.2H41v17.8H27.3v-8.1h-6.6v8.1C20.7,40.3,7,40.3,7,40.3z M8.5,38.8h6.6v-6.6H8.5V38.8z
	 M8.5,30.6h6.6V24H8.5V30.6z M8.5,22.5h6.6v-6.6H8.5V22.5z M16.7,30.6h6.6V24h-6.6C16.7,24.1,16.7,30.6,16.7,30.6z M16.7,22.5h6.6
	v-6.6h-6.6V22.5z M16.7,14.4h6.6V7.8h-6.6V14.4z M24.8,30.6h6.6V24h-6.6V30.6z M24.8,22.5h6.6v-6.6h-6.6V22.5z M24.8,14.4h6.6V7.8
	h-6.6V14.4z M32.9,38.8h6.6v-6.6h-6.6V38.8z M32.9,30.6h6.6V24h-6.6V30.6z"/>
</svg>
