<?xml version="1.0" encoding="utf-8"?>
<!-- Generator: Adobe Illustrator 26.3.1, SVG Export Plug-In . SVG Version: 6.00 Build 0)  -->
<svg version="1.1" id="Слой_1" xmlns="http://www.w3.org/2000/svg" xmlns:xlink="http://www.w3.org/1999/xlink" x="0px" y="0px"
	 viewBox="0 0 48 48" style="enable-background:new 0 0 48 48;" xml:space="preserve">
<path d="M6,24c0-2.8,0.6-5.4,1.7-7.8c1.2-2.4,2.7-4.4,4.7-6c2-1.7,4.2-2.9,6.8-3.6c2.5-0.7,5.2-0.9,8-0.3c0.2,0,0.4,0.1,0.5,0.3
	c0.1,0.2,0.1,0.4,0,0.6s-0.2,0.3-0.4,0.5c-0.2,0.1-0.4,0.1-0.6,0.1c-2.5-0.4-4.9-0.3-7.2,0.4s-4.3,1.8-6.1,3.3s-3.2,3.4-4.3,5.5
	c-1.1,2.2-1.6,4.5-1.6,7.1c0,4.6,1.6,8.5,4.8,11.7s7.1,4.8,11.7,4.8c2.5,0,4.9-0.5,7-1.6s4-2.5,5.5-4.3c1.6-1.8,2.7-3.9,3.4-6.2
	s0.8-4.7,0.4-7.1c-0.1-0.2,0-0.4,0.1-0.6s0.3-0.3,0.5-0.4s0.4,0,0.6,0c0.2,0.1,0.3,0.2,0.3,0.5c0.5,2.7,0.4,5.4-0.4,7.9
	s-1.9,4.8-3.5,6.8c-1.7,2.1-3.8,3.7-6.2,4.8c-2.4,1-5,1.6-7.7,1.6c-2.5,0-4.8-0.5-7-1.4s-4.1-2.2-5.7-3.9c-1.6-1.6-2.9-3.5-3.9-5.7
	C6.5,28.8,6,26.5,6,24z M35.2,17.5c-1.3,0-2.5-0.5-3.4-1.4s-1.4-2.1-1.4-3.4s0.5-2.5,1.4-3.4c1-0.8,2.1-1.3,3.4-1.3s2.5,0.5,3.4,1.4
	s1.4,2,1.4,3.4c0,1.3-0.5,2.5-1.4,3.4C37.7,17.1,36.6,17.5,35.2,17.5z"/>
</svg>
