<?xml version="1.0" encoding="utf-8"?>
<!-- Generator: Adobe Illustrator 26.3.1, SVG Export Plug-In . SVG Version: 6.00 Build 0)  -->
<svg version="1.1" id="Слой_1" xmlns="http://www.w3.org/2000/svg" xmlns:xlink="http://www.w3.org/1999/xlink" x="0px" y="0px"
	 viewBox="0 0 48 48" style="enable-background:new 0 0 48 48;" xml:space="preserve">
<path d="M14.8,44c-0.7,0-1.4-0.3-1.9-0.8c-0.6-0.6-0.9-1.2-0.9-2V6.8c0-0.7,0.3-1.4,0.8-1.9C13.4,4.3,14,4,14.8,4h18.5
	c0.7,0,1.4,0.3,1.9,0.8C35.7,5.4,36,6,36,6.8v6.3h-1.5V9.8h-21v28.3h20.9v-3.2H36v6.3c0,0.7-0.3,1.4-0.8,1.9c-0.6,0.6-1.2,0.9-2,0.9
	H14.8z M14.8,42.5h18.5c0.3,0,0.6-0.1,0.8-0.4c0.3-0.3,0.4-0.5,0.4-0.8v-1.5h-21v1.5c0,0.3,0.1,0.6,0.4,0.8
	C14.2,42.3,14.5,42.5,14.8,42.5z M35,31.4c-2,0-3.8-0.7-5.2-2.2c-1.4-1.4-2.2-3.2-2.2-5.2s0.7-3.8,2.2-5.2c1.4-1.4,3.2-2.2,5.2-2.2
	s3.8,0.7,5.2,2.2c1.4,1.4,2.2,3.2,2.2,5.2s-0.7,3.8-2.2,5.2C38.8,30.7,37,31.4,35,31.4z M35,29.8c0.7,0,1.3-0.1,1.9-0.3
	c0.6-0.2,1.2-0.5,1.7-0.9l-8.2-8.2c-0.4,0.6-0.7,1.1-0.9,1.7c-0.2,0.6-0.3,1.2-0.3,1.9c0,1.6,0.6,3,1.7,4.1
	C32,29.3,33.4,29.8,35,29.8z M39.7,27.6c0.4-0.6,0.7-1.2,0.9-1.7c0.2-0.6,0.3-1.2,0.3-1.8c0-1.6-0.6-3-1.7-4.1
	c-1.1-1.1-2.5-1.7-4.1-1.7c-0.7,0-1.3,0.1-1.9,0.3c-0.6,0.2-1.2,0.5-1.7,0.9L39.7,27.6z M13.5,8.3h20.9V6.8c0-0.3-0.1-0.6-0.4-0.8
	c-0.3-0.3-0.5-0.4-0.8-0.4H14.8c-0.3,0-0.6,0.1-0.8,0.4c-0.3,0.3-0.4,0.5-0.4,0.8C13.5,6.8,13.5,8.3,13.5,8.3z M13.5,8.3V5.5V8.3z
	 M13.5,42.5v-2.8V42.5z"/>
</svg>
