<?xml version="1.0" encoding="utf-8"?>
<!-- Generator: Adobe Illustrator 26.3.1, SVG Export Plug-In . SVG Version: 6.00 Build 0)  -->
<svg version="1.1" id="Слой_1" xmlns="http://www.w3.org/2000/svg" xmlns:xlink="http://www.w3.org/1999/xlink" x="0px" y="0px"
	 viewBox="0 0 48 48" style="enable-background:new 0 0 48 48;" xml:space="preserve">
<path d="M30.5,22.1L24,28.6l-6.5-6.5l1.1-1.1l4.7,4.7V15.4h1.5v10.2l4.7-4.7C29.4,21,30.5,22.1,30.5,22.1z M20.4,40.1h7.2v-1.5h-7.2
	C20.4,38.6,20.4,40.1,20.4,40.1z M14.8,44c-0.8,0-1.4-0.3-2-0.8c-0.5-0.5-0.8-1.2-0.8-2V6.8c0-0.8,0.3-1.4,0.8-2
	C13.3,4.3,14,4,14.8,4h18.5c0.8,0,1.4,0.3,2,0.8C35.7,5.3,36,6,36,6.8v34.5c0,0.8-0.3,1.4-0.8,2c-0.5,0.5-1.2,0.8-2,0.8L14.8,44
	L14.8,44z M13.5,36.2v5c0,0.3,0.1,0.6,0.4,0.8s0.5,0.4,0.8,0.4h18.5c0.3,0,0.6-0.1,0.8-0.4c0.3-0.3,0.4-0.5,0.4-0.8v-5
	C34.5,36.2,13.5,36.2,13.5,36.2z M13.5,34.7h20.9V9.8H13.5V34.7z M13.5,8.3h20.9V6.8c0-0.3-0.1-0.6-0.4-0.8
	c-0.3-0.3-0.5-0.4-0.8-0.4H14.8c-0.3,0-0.6,0.1-0.8,0.4c-0.3,0.3-0.4,0.5-0.4,0.8C13.5,6.8,13.5,8.3,13.5,8.3z M13.5,36.2v6.2V36.2z
	 M13.5,8.3V5.5V8.3z"/>
</svg>
