<?xml version="1.0" encoding="utf-8"?>
<!-- Generator: Adobe Illustrator 26.3.1, SVG Export Plug-In . SVG Version: 6.00 Build 0)  -->
<svg version="1.1" id="Слой_1" xmlns="http://www.w3.org/2000/svg" xmlns:xlink="http://www.w3.org/1999/xlink" x="0px" y="0px"
	 viewBox="0 0 48 48" style="enable-background:new 0 0 48 48;" xml:space="preserve">
<path d="M11.7,38.5c-0.6,0-1.1-0.2-1.5-0.6c-0.4-0.4-0.6-0.9-0.6-1.5s0.2-1.1,0.6-1.5c0.4-0.4,0.9-0.6,1.5-0.6s1.1,0.2,1.5,0.6
	c0.4,0.4,0.6,0.9,0.6,1.5s-0.2,1.1-0.6,1.5C12.8,38.3,12.3,38.5,11.7,38.5z M11.7,26.1c-0.6,0-1.1-0.2-1.5-0.6S9.6,24.6,9.6,24
	s0.2-1.1,0.6-1.5c0.4-0.4,0.9-0.6,1.5-0.6s1.1,0.2,1.5,0.6s0.6,0.9,0.6,1.5s-0.2,1.1-0.6,1.5C12.8,25.9,12.3,26.1,11.7,26.1z
	 M11.7,13.8c-0.6,0-1.1-0.2-1.5-0.6c-0.4-0.4-0.6-0.9-0.6-1.5s0.2-1.1,0.6-1.5c0.4-0.4,0.9-0.6,1.5-0.6s1.1,0.2,1.5,0.6
	c0.4,0.4,0.6,0.9,0.6,1.5s-0.2,1.1-0.6,1.5C12.8,13.6,12.3,13.8,11.7,13.8z M24,13.8c-0.6,0-1.1-0.2-1.5-0.6
	c-0.4-0.4-0.6-0.9-0.6-1.5s0.2-1.1,0.6-1.5s0.9-0.6,1.5-0.6s1.1,0.2,1.5,0.6c0.4,0.4,0.6,0.9,0.6,1.5s-0.2,1.1-0.6,1.5
	C25.1,13.6,24.6,13.8,24,13.8z M36.3,13.8c-0.6,0-1.1-0.2-1.5-0.6c-0.4-0.4-0.6-0.9-0.6-1.5s0.2-1.1,0.6-1.5
	c0.4-0.4,0.9-0.6,1.5-0.6s1.1,0.2,1.5,0.6c0.4,0.4,0.6,0.9,0.6,1.5s-0.2,1.1-0.6,1.5C37.4,13.6,36.9,13.8,36.3,13.8z M24,26.1
	c-0.6,0-1.1-0.2-1.5-0.6s-0.6-0.9-0.6-1.5s0.2-1.1,0.6-1.5s0.9-0.6,1.5-0.6s1.1,0.2,1.5,0.6s0.6,0.9,0.6,1.5s-0.2,1.1-0.6,1.5
	S24.6,26.1,24,26.1z M26.5,38.5V34l10.7-10.6c0.2-0.2,0.4-0.3,0.6-0.4s0.4-0.1,0.6-0.1c0.2,0,0.5,0,0.7,0.1s0.4,0.2,0.6,0.4l1.9,1.9
	c0.2,0.2,0.3,0.4,0.4,0.6c0.1,0.2,0.1,0.4,0.1,0.6s0,0.4-0.1,0.6s-0.2,0.4-0.4,0.6L30.9,38.5H26.5z M40.2,26.6l-1.8-1.9L40.2,26.6z
	 M28.2,36.7h1.9l6.9-6.9l-0.9-0.9l-0.9-1l-7,7C28.2,34.8,28.2,36.7,28.2,36.7z M36.1,28.8l-0.9-1l1.9,1.9L36.1,28.8z"/>
</svg>
