<?xml version="1.0" encoding="utf-8"?>
<!-- Generator: Adobe Illustrator 26.3.1, SVG Export Plug-In . SVG Version: 6.00 Build 0)  -->
<svg version="1.1" id="Слой_1" xmlns="http://www.w3.org/2000/svg" xmlns:xlink="http://www.w3.org/1999/xlink" x="0px" y="0px"
	 viewBox="0 0 48 48" style="enable-background:new 0 0 48 48;" xml:space="preserve">
<path d="M14.2,17.5l-4.1,2.3C9.8,20,9.4,20,9,20c-0.4-0.1-0.7-0.3-0.8-0.7L6,15.5c-0.2-0.4-0.3-0.7-0.2-1c0.1-0.3,0.3-0.6,0.7-0.8
	L15.9,8h2.3c0.4,0,0.8,0.1,1,0.4c0.2,0.2,0.4,0.6,0.4,1v0.3c0,1.3,0.4,2.3,1.3,3.2s1.9,1.3,3.2,1.3s2.3-0.4,3.2-1.3
	c0.9-0.9,1.3-1.9,1.3-3.2V9.3c0-0.4,0.1-0.7,0.4-1c0.2-0.2,0.6-0.4,1-0.4h2.3l9.5,5.6c0.4,0.2,0.6,0.5,0.7,0.8c0.1,0.3,0,0.7-0.2,1
	l-2.2,3.8c-0.2,0.4-0.5,0.6-0.9,0.7s-0.8,0.1-1.1-0.2L34,17.2v21.1c0,0.4-0.1,0.8-0.4,1.1s-1,0.6-1.4,0.6H15.7
	c-0.4,0-0.8-0.1-1.1-0.4c-0.3-0.3-0.4-0.7-0.4-1.1V17.5z M15.8,14.8v23.6h16.4V14.8l6.4,3.6l2.1-3.6l-8.9-5.2h-1.7
	c0,1.7-0.6,3.1-1.7,4.3c-1.2,1.2-2.6,1.8-4.3,1.8s-3.2-0.6-4.3-1.8c-1.2-1.2-1.8-2.6-1.8-4.3h-1.7l-8.9,5.2l2.1,3.6L15.8,14.8z"/>
</svg>
