<?xml version="1.0" encoding="utf-8"?>
<!-- Generator: Adobe Illustrator 26.3.1, SVG Export Plug-In . SVG Version: 6.00 Build 0)  -->
<svg version="1.1" id="Слой_1" xmlns="http://www.w3.org/2000/svg" xmlns:xlink="http://www.w3.org/1999/xlink" x="0px" y="0px"
	 viewBox="0 0 48 48" style="enable-background:new 0 0 48 48;" xml:space="preserve">
<path d="M26.2,21.8l-6.9-6.9l1.1-1.1l5.8,5.8L37.7,8.2l1.1,1.1C38.7,9.2,26.2,21.8,26.2,21.8z M12.2,37.8L28,42.5l12.2-3.8
	c0.1-0.8-0.1-1.4-0.6-1.8c-0.4-0.4-0.9-0.6-1.5-0.6h-9.6c-0.7,0-1.3,0-2-0.1s-1.4-0.2-2-0.5L20,34.3l0.6-1.6l4.4,1.6
	c0.5,0.2,1.1,0.3,1.8,0.4c0.7,0,1.4,0,2.3,0h1.3c0-0.8-0.2-1.4-0.5-1.9c-0.4-0.5-0.8-0.8-1.4-1l-11.1-4.1c-0.1,0-0.2,0-0.2-0.1
	c-0.1,0-0.1,0-0.2,0h-4.7C12.2,27.8,12.2,37.8,12.2,37.8z M4.8,42V26.2h12c0.2,0,0.3,0,0.5,0s0.3,0.1,0.5,0.1L29,30.5
	c0.8,0.3,1.5,0.8,2.1,1.5s0.9,1.7,0.9,2.8h6.2c1.2,0,2.2,0.4,2.8,1.2s1,1.8,1,2.9v0.9L28.2,44l-15.9-4.7V42H4.8z M6.3,40.5h4.3V27.8
	H6.3V40.5z"/>
</svg>
