<?xml version="1.0" encoding="utf-8"?>
<!-- Generator: Adobe Illustrator 26.3.1, SVG Export Plug-In . SVG Version: 6.00 Build 0)  -->
<svg version="1.1" id="Слой_1" xmlns="http://www.w3.org/2000/svg" xmlns:xlink="http://www.w3.org/1999/xlink" x="0px" y="0px"
	 viewBox="0 0 48 48" style="enable-background:new 0 0 48 48;" xml:space="preserve">
<path d="M11.7,38.5c-0.6,0-1.1-0.2-1.5-0.6c-0.4-0.4-0.6-0.9-0.6-1.5s0.2-1.1,0.6-1.5c0.4-0.4,0.9-0.6,1.5-0.6s1.1,0.2,1.5,0.6
	c0.4,0.4,0.6,0.9,0.6,1.5s-0.2,1.1-0.6,1.5C12.8,38.3,12.3,38.5,11.7,38.5z M11.7,26.1c-0.6,0-1.1-0.2-1.5-0.6S9.6,24.6,9.6,24
	s0.2-1.1,0.6-1.5c0.4-0.4,0.9-0.6,1.5-0.6s1.1,0.2,1.5,0.6s0.6,0.9,0.6,1.5s-0.2,1.1-0.6,1.5C12.8,25.9,12.3,26.1,11.7,26.1z
	 M11.7,13.8c-0.6,0-1.1-0.2-1.5-0.6c-0.4-0.4-0.6-0.9-0.6-1.5s0.2-1.1,0.6-1.5c0.4-0.4,0.9-0.6,1.5-0.6s1.1,0.2,1.5,0.6
	c0.4,0.4,0.6,0.9,0.6,1.5s-0.2,1.1-0.6,1.5C12.8,13.6,12.3,13.8,11.7,13.8z M24,38.5c-0.6,0-1.1-0.2-1.5-0.6
	c-0.4-0.4-0.6-0.9-0.6-1.5s0.2-1.1,0.6-1.5s0.9-0.6,1.5-0.6s1.1,0.2,1.5,0.6c0.4,0.4,0.6,0.9,0.6,1.5s-0.2,1.1-0.6,1.5
	C25.1,38.3,24.6,38.5,24,38.5z M24,26.1c-0.6,0-1.1-0.2-1.5-0.6s-0.6-0.9-0.6-1.5s0.2-1.1,0.6-1.5s0.9-0.6,1.5-0.6s1.1,0.2,1.5,0.6
	s0.6,0.9,0.6,1.5s-0.2,1.1-0.6,1.5S24.6,26.1,24,26.1z M24,13.8c-0.6,0-1.1-0.2-1.5-0.6c-0.4-0.4-0.6-0.9-0.6-1.5s0.2-1.1,0.6-1.5
	s0.9-0.6,1.5-0.6c0.1,0,0.2,0,0.3,0c0.1,0,0.2,0,0.3,0.1c0,0.1,0,0.1,0,0.2c0,0.1,0,0.1,0,0.2c0,0.6,0,1.3,0.1,1.8
	c0.1,0.6,0.1,1.2,0.3,1.8c-0.1,0.1-0.3,0.1-0.4,0.2C24.2,13.8,24.1,13.8,24,13.8z M37.5,18.5c-2.2,0-4.1-0.8-5.7-2.3
	c-1.6-1.6-2.3-3.4-2.3-5.7s0.8-4.1,2.3-5.7c1.6-1.6,3.4-2.3,5.7-2.3s4.1,0.8,5.7,2.3c1.6,1.6,2.3,3.4,2.3,5.7s-0.8,4.1-2.3,5.7
	C41.6,17.7,39.7,18.5,37.5,18.5z M36.3,38.5c-0.6,0-1.1-0.2-1.5-0.6c-0.4-0.4-0.6-0.9-0.6-1.5s0.2-1.1,0.6-1.5
	c0.4-0.4,0.9-0.6,1.5-0.6s1.1,0.2,1.5,0.6c0.4,0.4,0.6,0.9,0.6,1.5s-0.2,1.1-0.6,1.5C37.4,38.3,36.9,38.5,36.3,38.5z M36.3,26.1
	c-0.6,0-1.1-0.2-1.5-0.6s-0.6-0.9-0.6-1.5c0-0.1,0-0.2,0-0.4c0-0.1,0.1-0.3,0.2-0.4c0.6,0.1,1.2,0.2,1.8,0.3
	c0.6,0.1,1.2,0.1,1.8,0.1c0.1,0,0.1,0,0.2,0c0.1,0,0.1,0,0.2,0c0,0.1,0,0.2,0.1,0.3c0,0.1,0,0.2,0,0.3c0,0.6-0.2,1.1-0.6,1.5
	C37.4,25.9,36.9,26.1,36.3,26.1z M37.5,15.4c0.3,0,0.5-0.1,0.7-0.3s0.3-0.4,0.3-0.7s-0.1-0.5-0.3-0.7s-0.4-0.3-0.7-0.3
	s-0.5,0.1-0.7,0.3s-0.3,0.4-0.3,0.7s0.1,0.5,0.3,0.7S37.2,15.4,37.5,15.4z M36.7,11.7h1.5v-6h-1.5V11.7z"/>
</svg>
