<?xml version="1.0" encoding="utf-8"?>
<!-- Generator: Adobe Illustrator 26.3.1, SVG Export Plug-In . SVG Version: 6.00 Build 0)  -->
<svg version="1.1" id="Слой_1" xmlns="http://www.w3.org/2000/svg" xmlns:xlink="http://www.w3.org/1999/xlink" x="0px" y="0px"
	 viewBox="0 0 48 48" style="enable-background:new 0 0 48 48;" xml:space="preserve">
<path d="M24,10.2c3.8,0,7.1,1.3,9.8,4s4,6,4,9.8s-1.3,7.1-4,9.8s-6,4-9.8,4s-7.1-1.3-9.8-4s-4-6-4-9.8s1.3-7.1,4-9.8
	S20.2,10.2,24,10.2z M24,36.3c3.4,0,6.3-1.2,8.7-3.6s3.6-5.3,3.6-8.7s-1.2-6.3-3.6-8.7s-5.3-3.6-8.7-3.6s-6.3,1.2-8.7,3.6
	s-3.6,5.3-3.6,8.7s1.2,6.3,3.6,8.7S20.6,36.3,24,36.3z M24,30.2c1.4,0,2.7-0.4,3.8-1.1c1.2-0.7,2-1.8,2.7-3h-13
	c0.6,1.3,1.5,2.3,2.7,3C21.3,29.8,22.6,30.2,24,30.2z M17.5,19.9c0,0.4,0.2,0.8,0.5,1.1c0.3,0.3,0.7,0.4,1.1,0.4
	c0.5,0,0.8-0.2,1.1-0.5c0.3-0.3,0.5-0.7,0.5-1.1s-0.2-0.8-0.5-1.1c-0.3-0.3-0.7-0.5-1.1-0.5c-0.5,0-0.8,0.2-1.1,0.5
	C17.6,19.1,17.5,19.5,17.5,19.9z M27.3,19.9c0,0.4,0.2,0.8,0.5,1.1c0.3,0.3,0.7,0.4,1.1,0.4c0.5,0,0.8-0.2,1.1-0.5
	c0.3-0.3,0.5-0.7,0.5-1.1S30.3,19,30,18.7c-0.3-0.3-0.7-0.5-1.1-0.5c-0.5,0-0.8,0.2-1.1,0.5C27.5,19.1,27.3,19.5,27.3,19.9z M4,11.8
	v-5c0-0.8,0.3-1.4,0.8-2C5.4,4.3,6,4,6.8,4h5v1.5h-5c-0.4,0-0.7,0.1-0.9,0.3c-0.2,0.3-0.4,0.6-0.4,1v5H4z M11.8,44h-5
	c-0.7,0-1.4-0.3-1.9-0.8C4.3,42.6,4,42,4,41.2v-5h1.5v5c0,0.4,0.1,0.7,0.3,0.9c0.2,0.2,0.5,0.3,0.9,0.3h5L11.8,44L11.8,44z
	 M36.2,43.5V42h5c0.4,0,0.7-0.1,0.9-0.4c0.2-0.2,0.3-0.5,0.3-0.9v-5H44v5c0,0.7-0.3,1.4-0.8,1.9c-0.6,0.6-1.2,0.8-1.9,0.8
	C41.2,43.5,36.2,43.5,36.2,43.5z M42.5,11.8v-5c0-0.4-0.1-0.7-0.3-0.9c-0.2-0.2-0.5-0.3-0.9-0.3h-5V4h5c0.7,0,1.4,0.3,1.9,0.8
	C43.7,5.4,44,6,44,6.8v5H42.5z"/>
</svg>
