<?xml version="1.0" encoding="utf-8"?>
<!-- Generator: Adobe Illustrator 26.3.1, SVG Export Plug-In . SVG Version: 6.00 Build 0)  -->
<svg version="1.1" id="Слой_1" xmlns="http://www.w3.org/2000/svg" xmlns:xlink="http://www.w3.org/1999/xlink" x="0px" y="0px"
	 viewBox="0 0 48 48" style="enable-background:new 0 0 48 48;" xml:space="preserve">
<path d="M24,30.9c2.2,0,4.1-0.8,5.6-2.3s2.3-3.4,2.3-5.6s-0.8-4-2.3-5.6c-1.5-1.5-3.4-2.3-5.6-2.4v1.5c1.8,0,3.3,0.7,4.5,1.9
	c1.2,1.2,1.8,2.7,1.8,4.5s-0.6,3.3-1.9,4.5c-1.2,1.2-2.7,1.8-4.5,1.8c-1.1,0-2-0.2-3-0.7c-0.9-0.5-1.7-1.2-2.3-2l-1.2,0.9
	c0.8,1.1,1.7,1.9,2.8,2.5C21.4,30.6,22.7,30.9,24,30.9z M16.9,24.8c0.4,0,0.7-0.1,0.9-0.4c0.3-0.2,0.4-0.6,0.4-0.9s-0.1-0.7-0.4-0.9
	c-0.3-0.3-0.6-0.4-1-0.4s-0.7,0.1-0.9,0.4c-0.2,0.3-0.4,0.6-0.4,0.9s0.1,0.7,0.4,0.9S16.5,24.8,16.9,24.8z M17.9,20.7
	c0.4,0,0.7-0.1,0.9-0.4c0.3-0.2,0.4-0.5,0.4-0.9s-0.1-0.7-0.4-1S18.2,18,17.9,18c-0.4,0-0.7,0.1-0.9,0.4c-0.2,0.3-0.4,0.6-0.4,1
	s0.1,0.7,0.4,0.9S17.5,20.7,17.9,20.7z M20.7,17.8c0.4,0,0.7-0.1,0.9-0.4c0.3-0.2,0.4-0.6,0.4-0.9c0-0.4-0.1-0.7-0.4-0.9
	c-0.3-0.3-0.6-0.4-1-0.4s-0.7,0.1-0.9,0.4s-0.4,0.6-0.4,0.9c0,0.4,0.1,0.7,0.4,0.9C20,17.7,20.3,17.8,20.7,17.8z M24,41.9
	c-4-1.2-7.4-3.7-10-7.4c-2.7-3.7-4-7.9-4-12.5V11.4l14-5.2l14,5.2V22c0,4.6-1.3,8.8-4,12.5C31.4,38.2,28,40.7,24,41.9z M24,40.3
	c3.6-1.2,6.6-3.4,9-6.8s3.5-7.2,3.5-11.4v-9.6L24,7.8l-12.5,4.7V22c0,4.2,1.2,8,3.5,11.4S20.4,39.1,24,40.3z"/>
</svg>
