<?xml version="1.0" encoding="utf-8"?>
<!-- Generator: Adobe Illustrator 26.3.1, SVG Export Plug-In . SVG Version: 6.00 Build 0)  -->
<svg version="1.1" id="Слой_1" xmlns="http://www.w3.org/2000/svg" xmlns:xlink="http://www.w3.org/1999/xlink" x="0px" y="0px"
	 viewBox="0 0 48 48" style="enable-background:new 0 0 48 48;" xml:space="preserve">
<path d="M24,40l-6.3-6.3l1.1-1.1l4.4,4.4V25.7c0-1.1-0.4-2-1.2-2.8c-0.8-0.8-1.7-1.2-2.8-1.2h-12c-0.7,0-1.4-0.3-1.9-0.8
	S4.5,19.7,4.5,19V8H6v10.9c0,0.4,0.1,0.7,0.3,0.9c0.2,0.2,0.5,0.3,0.9,0.3h12c1,0,2,0.3,2.8,0.8s1.5,1.2,2,2c0.5-0.8,1.1-1.5,2-2
	c0.8-0.5,1.8-0.8,2.8-0.8h12c0.4,0,0.7-0.1,0.9-0.3c0.2-0.2,0.3-0.5,0.3-0.9V8h1.5v10.9c0,0.7-0.3,1.4-0.8,1.9s-1.2,0.8-1.9,0.8h-12
	c-1.1,0-2,0.4-2.8,1.2c-0.8,0.8-1.2,1.7-1.2,2.8V37l4.4-4.4l1.1,1.1L24,40z"/>
</svg>
