<?xml version="1.0" encoding="utf-8"?>
<!-- Generator: Adobe Illustrator 26.3.1, SVG Export Plug-In . SVG Version: 6.00 Build 0)  -->
<svg version="1.1" id="Слой_1" xmlns="http://www.w3.org/2000/svg" xmlns:xlink="http://www.w3.org/1999/xlink" x="0px" y="0px"
	 viewBox="0 0 48 48" style="enable-background:new 0 0 48 48;" xml:space="preserve">
<path d="M37.4,19.7H43v2.6h-4.1v10.8c0,1.2-0.4,2.2-1.2,3s-1.8,1.2-3,1.2s-2.2-0.4-3-1.2s-1.2-1.8-1.2-3s0.4-2.2,1.2-3
	c0.8-0.8,1.8-1.2,3-1.2c0.5,0,1,0.1,1.5,0.2c0.4,0.2,0.8,0.4,1.1,0.7V19.7H37.4z M6.1,37.2v-2.9c0-0.8,0.2-1.5,0.7-2.3
	c0.5-0.7,1.1-1.3,2.1-1.7c2.1-0.9,4.1-1.6,5.9-2s3.6-0.6,5.4-0.6c1.2,0,2.3,0.1,3.4,0.2c1.1,0.2,2.1,0.4,3.2,0.8
	c-0.1,0.2-0.2,0.5-0.3,0.7c-0.1,0.2-0.2,0.4-0.2,0.5c-0.9-0.2-1.8-0.4-2.9-0.5s-2.1-0.2-3.2-0.2c-1.8,0-3.5,0.2-5.2,0.6
	s-3.5,1-5.4,1.9C9,32,8.5,32.4,8.2,32.9c-0.3,0.5-0.5,1-0.5,1.5v1.4H26c0.1,0.3,0.2,0.6,0.3,0.9c0.1,0.3,0.2,0.5,0.4,0.7H6.1V37.2z
	 M20.1,22.8c-1.7,0-3-0.5-4.1-1.6s-1.6-2.5-1.6-4.1c0-1.7,0.5-3,1.6-4.1s2.5-1.6,4.1-1.6s3,0.5,4.1,1.6s1.6,2.5,1.6,4.1
	c0,1.7-0.5,3-1.6,4.1C23.1,22.2,21.7,22.8,20.1,22.8z M20.1,21.2c1.2,0,2.2-0.4,3-1.2c0.8-0.8,1.2-1.8,1.2-3s-0.4-2.2-1.2-3
	c-0.8-0.8-1.8-1.2-3-1.2s-2.2,0.4-3,1.2s-1.2,1.8-1.2,3s0.4,2.2,1.2,3S18.9,21.2,20.1,21.2z"/>
</svg>
