<?xml version="1.0" encoding="utf-8"?>
<!-- Generator: Adobe Illustrator 26.3.1, SVG Export Plug-In . SVG Version: 6.00 Build 0)  -->
<svg version="1.1" id="Слой_1" xmlns="http://www.w3.org/2000/svg" xmlns:xlink="http://www.w3.org/1999/xlink" x="0px" y="0px"
	 viewBox="0 0 48 48" style="enable-background:new 0 0 48 48;" xml:space="preserve">
<path d="M18.9,33h7.9v-1.5h-7.9V33z M18.9,24.8H33v-1.5H18.9C18.9,23.2,18.9,24.8,18.9,24.8z M14.9,16.5H33V15H14.9V16.5z M14.2,42
	c-2.3,0-4.2-0.8-5.9-2.4c-1.6-1.6-2.4-3.5-2.4-5.8c0-1.7,0.5-3.3,1.5-4.7c1-1.4,2.3-2.4,3.8-3H6v-1.5h8.6v8.6h-1.5v-6.1
	c-1.6,0.3-2.9,1-4,2.3c-1.1,1.2-1.6,2.7-1.6,4.4c0,1.9,0.7,3.5,2,4.8s2.9,2,4.8,2V42H14.2z M18.9,40v-1.5h18.3
	c0.3,0,0.6-0.1,0.8-0.4c0.3-0.3,0.4-0.5,0.4-0.8V10.8c0-0.3-0.1-0.6-0.4-0.8c-0.3-0.3-0.5-0.4-0.8-0.4H10.8c-0.3,0-0.6,0.1-0.8,0.4
	c-0.3,0.3-0.4,0.5-0.4,0.8v9.5H8v-9.5c0-0.8,0.3-1.4,0.8-2C9.3,8.3,10,8,10.8,8h26.5c0.8,0,1.4,0.3,2,0.8c0.5,0.5,0.8,1.2,0.8,2
	v26.5c0,0.8-0.3,1.4-0.8,2c-0.5,0.5-1.2,0.8-2,0.8C37.2,40,18.9,40,18.9,40z"/>
</svg>
