<?xml version="1.0" encoding="utf-8"?>
<!-- Generator: Adobe Illustrator 26.3.1, SVG Export Plug-In . SVG Version: 6.00 Build 0)  -->
<svg version="1.1" id="Слой_1" xmlns="http://www.w3.org/2000/svg" xmlns:xlink="http://www.w3.org/1999/xlink" x="0px" y="0px"
	 viewBox="0 0 48 48" style="enable-background:new 0 0 48 48;" xml:space="preserve">
<path d="M26.7,41.4l1.8-17.6c-1.3-0.3-2.6-0.8-3.6-1.5c-1.1-0.7-2.1-1.5-2.9-2.4l-1.1-1.1l-6.5,6.4l4.8,5.9v10.2h-1.5v-9.5l-5.1-4.9
	l0.7,6L7,40.8l-1.2-0.9l5.6-7.2l-2.3-7.4C8.9,24.6,8.9,24,9,23.4s0.3-1,0.7-1.4l6.3-6.3c0.3-0.3,0.6-0.5,0.9-0.6s0.7-0.2,1-0.2
	c0.5,0,0.9,0.1,1.2,0.3c0.3,0.2,0.6,0.4,0.8,0.5l2.9,2.8c1.1,1.1,2.2,2,3.5,2.8s2.8,1.2,4.6,1.2h4.3c0.4,0,0.7,0.1,1,0.4
	c0.3,0.2,0.4,0.5,0.5,0.9L38.1,38c0.5,0.1,0.9,0.4,1.2,0.8c0.3,0.4,0.5,0.9,0.5,1.4c0,0.6-0.2,1.1-0.6,1.5c-0.4,0.4-0.9,0.6-1.5,0.6
	s-1.1-0.2-1.5-0.6c-0.4-0.4-0.7-0.9-0.7-1.5c0-0.4,0.1-0.9,0.3-1.2c0.2-0.4,0.5-0.6,0.9-0.8l-0.5-4.4h-7.4L28,41.4
	C28.1,41.4,26.7,41.4,26.7,41.4z M25.6,13.9c-0.9,0-1.6-0.3-2.2-0.9c-0.6-0.6-0.9-1.4-0.9-2.2c0-0.9,0.3-1.6,0.9-2.2
	C24,8,24.8,7.7,25.6,7.7c0.9,0,1.6,0.3,2.2,0.9s0.9,1.4,0.9,2.2c0,0.9-0.3,1.6-0.9,2.2C27.2,13.6,26.5,13.9,25.6,13.9z M29,32.5h7.2
	L35.3,24h-5.5C29.8,23.9,29,32.5,29,32.5z"/>
</svg>
