<?xml version="1.0" encoding="utf-8"?>
<!-- Generator: Adobe Illustrator 26.3.1, SVG Export Plug-In . SVG Version: 6.00 Build 0)  -->
<svg version="1.1" id="Слой_1" xmlns="http://www.w3.org/2000/svg" xmlns:xlink="http://www.w3.org/1999/xlink" x="0px" y="0px"
	 viewBox="0 0 48 48" style="enable-background:new 0 0 48 48;" xml:space="preserve">
<path d="M24,43.2L18.9,38h-8.1c-0.8,0-1.4-0.3-1.9-0.8C8.3,36.7,8,36,8,35.2V8.8c0-0.8,0.3-1.5,0.8-2S10,6,10.8,6h26.5
	c0.8,0,1.4,0.3,2,0.8S40,8,40,8.8v26.5c0,0.8-0.3,1.4-0.8,2S38,38,37.2,38h-8.1L24,43.2z M10.8,36.5h8.8L24,41l4.5-4.5h8.8
	c0.3,0,0.6-0.1,0.8-0.3s0.3-0.5,0.3-0.8V8.8c0-0.3-0.1-0.6-0.3-0.8s-0.5-0.3-0.8-0.3H10.8c-0.3,0-0.6,0.1-0.9,0.3
	C9.7,8.1,9.5,8.4,9.5,8.8v26.5c0,0.3,0.1,0.6,0.4,0.8S10.4,36.4,10.8,36.5z M9.6,7.6v28.9V7.6z M26.2,24.3l5-2.2l-5-2.2l-2.2-5
	l-2.2,4.9l-5,2.2l5,2.2l2.2,5L26.2,24.3z"/>
</svg>
