<?xml version="1.0" encoding="utf-8"?>
<!-- Generator: Adobe Illustrator 26.3.1, SVG Export Plug-In . SVG Version: 6.00 Build 0)  -->
<svg version="1.1" id="Слой_1" xmlns="http://www.w3.org/2000/svg" xmlns:xlink="http://www.w3.org/1999/xlink" x="0px" y="0px"
	 viewBox="0 0 48 48" style="enable-background:new 0 0 48 48;" xml:space="preserve">
<path d="M10.8,40c-0.7,0-1.4-0.3-1.9-0.8S8,38,8,37.2V10.8c0-0.8,0.3-1.4,0.8-2C9.4,8.3,10,8,10.8,8H21c-0.3-1-0.1-1.9,0.5-2.7
	C22.1,4.4,23,4,24,4c1.1,0,1.9,0.4,2.5,1.3C27.2,6.1,27.3,7,27,8h10.2c0.7,0,1.4,0.3,1.9,0.8c0.6,0.6,0.9,1.2,0.9,2v13.3
	c-0.3-0.1-0.5-0.2-0.8-0.2c-0.3-0.1-0.5-0.1-0.8-0.2V10.8c0-0.3-0.1-0.6-0.4-0.8c-0.3-0.3-0.5-0.4-0.8-0.4H10.8
	c-0.3,0-0.6,0.1-0.8,0.4c-0.3,0.3-0.4,0.5-0.4,0.8v26.5c0,0.3,0.1,0.6,0.4,0.8s0.5,0.4,0.8,0.4h12.9c0.1,0.3,0.1,0.5,0.2,0.8
	s0.1,0.5,0.2,0.7H10.8z M9.5,36.3v2.2v-29v14.1v-0.2C9.5,23.5,9.5,36.3,9.5,36.3z M15,32.5h9c0.1-0.3,0.2-0.5,0.3-0.8
	c0.1-0.3,0.2-0.5,0.4-0.8H15C15,31,15,32.5,15,32.5z M15,24.8h15.5c0.4-0.1,0.7-0.2,0.9-0.3c0.2-0.1,0.5-0.2,0.8-0.3v-0.9H15V24.8z
	 M15,17h18v-1.5H15V17z M24,8.7c0.4,0,0.8-0.2,1.1-0.5c0.3-0.3,0.5-0.7,0.5-1.1c0-0.5-0.2-0.8-0.5-1.1c-0.3-0.3-0.7-0.5-1.1-0.5
	S23.2,5.7,22.9,6c-0.3,0.3-0.5,0.7-0.5,1.1c0,0.5,0.2,0.8,0.5,1.1C23.2,8.6,23.6,8.7,24,8.7z M36.3,44.2c-2.1,0-4-0.8-5.5-2.3
	s-2.2-3.3-2.2-5.4c0-2.2,0.7-4,2.2-5.5s3.3-2.2,5.5-2.2c2.1,0,3.9,0.7,5.4,2.2s2.3,3.3,2.3,5.5c0,2.1-0.8,3.9-2.3,5.4
	C40.3,43.5,38.4,44.2,36.3,44.2z M35.6,42.5H37v-5.2h5.2v-1.4H37v-5.2h-1.4v5.2h-5.2v1.4h5.2V42.5z"/>
</svg>
