<?xml version="1.0" encoding="utf-8"?>
<!-- Generator: Adobe Illustrator 26.3.1, SVG Export Plug-In . SVG Version: 6.00 Build 0)  -->
<svg version="1.1" id="Слой_1" xmlns="http://www.w3.org/2000/svg" xmlns:xlink="http://www.w3.org/1999/xlink" x="0px" y="0px"
	 viewBox="0 0 48 48" style="enable-background:new 0 0 48 48;" xml:space="preserve">
<path d="M10.8,40c-0.8,0-1.4-0.3-2-0.8C8.3,38.7,8,38,8,37.2V10.8c0-0.8,0.3-1.4,0.8-2C9.3,8.3,10,8,10.8,8h10.3
	c-0.4-1.1-0.3-2,0.3-3C22,4.1,22.9,3.6,24,3.6s2,0.5,2.6,1.4s0.7,1.9,0.3,3h10.3c0.8,0,1.4,0.3,2,0.8c0.5,0.5,0.8,1.2,0.8,2v26.5
	c0,0.8-0.3,1.4-0.8,2c-0.5,0.5-1.2,0.8-2,0.8L10.8,40L10.8,40z M24,8.1c0.4,0,0.8-0.1,1.1-0.4c0.3-0.3,0.4-0.6,0.4-1.1
	c0-0.4-0.1-0.8-0.4-1.1S24.4,5.1,24,5.1s-0.8,0.1-1.1,0.4s-0.4,0.6-0.4,1.1c0,0.4,0.1,0.8,0.4,1.1C23.2,8,23.6,8.1,24,8.1z
	 M9.5,37.2c1.9-1.8,4.1-3.3,6.5-4.4c2.4-1.1,5.1-1.6,7.9-1.6c2.9,0,5.5,0.5,8,1.6c2.4,1.1,4.6,2.5,6.5,4.4V10.8
	c0-0.3-0.1-0.6-0.4-0.8c-0.3-0.3-0.5-0.4-0.8-0.4H10.8c-0.3,0-0.6,0.1-0.8,0.4c-0.3,0.3-0.4,0.5-0.4,0.8v26.4H9.5z M24,26.6
	c1.7,0,3.1-0.6,4.2-1.7c1.2-1.2,1.7-2.6,1.7-4.2c0-1.7-0.6-3.1-1.7-4.2c-1.2-1.2-2.6-1.7-4.2-1.7c-1.7,0-3.1,0.6-4.2,1.7
	c-1.2,1.2-1.7,2.6-1.7,4.2c0,1.7,0.6,3.1,1.7,4.2C21,26,22.4,26.6,24,26.6z M10.8,38.5h26.5v-0.3c-2-1.8-4.1-3.2-6.3-4.1
	c-2.2-0.9-4.6-1.3-7-1.3s-4.7,0.4-6.9,1.3s-4.3,2.2-6.3,4V38.5z M24.1,25.1c-1.2,0-2.3-0.4-3.1-1.3c-0.9-0.9-1.3-1.9-1.3-3.1
	s0.4-2.3,1.3-3.1c0.9-0.9,1.9-1.3,3.1-1.3s2.3,0.4,3.1,1.3c0.9,0.9,1.3,1.9,1.3,3.1s-0.4,2.3-1.3,3.1C26.3,24.6,25.3,25.1,24.1,25.1
	z"/>
</svg>
