<?xml version="1.0" encoding="utf-8"?>
<!-- Generator: Adobe Illustrator 26.3.1, SVG Export Plug-In . SVG Version: 6.00 Build 0)  -->
<svg version="1.1" id="Слой_1" xmlns="http://www.w3.org/2000/svg" xmlns:xlink="http://www.w3.org/1999/xlink" x="0px" y="0px"
	 viewBox="0 0 48 48" style="enable-background:new 0 0 48 48;" xml:space="preserve">
<path d="M13.3,34.9V17.5h1.5v17.4H13.3z M23.3,34.9V17.5h1.5v17.4H23.3z M7.1,14v-1.1L24,4.2l16.9,8.7V14H7.1z M11.4,12.5h25.3L24,6
	L11.4,12.5z M7.1,40v-1.5h22.6c0,0.3,0,0.5,0.1,0.8c0,0.2,0.1,0.5,0.2,0.8C29.9,40,7.1,40,7.1,40z M33.2,28.9V17.5h1.5v10.6
	L33.2,28.9z M40,46.5c-2-0.5-3.6-1.6-4.9-3.4c-1.3-1.8-1.9-3.7-1.9-5.8V33l6.8-3.4l6.8,3.4v4.3c0,2.1-0.6,4.1-1.9,5.8
	C43.6,44.9,42,46,40,46.5z M38.7,41.2l6.1-6.1l-0.8-1l-5.2,5.2l-2.4-2.4l-0.9,0.9L38.7,41.2z M11.4,12.5h25.3H11.4z"/>
</svg>
