<?xml version="1.0" encoding="utf-8"?>
<!-- Generator: Adobe Illustrator 26.3.1, SVG Export Plug-In . SVG Version: 6.00 Build 0)  -->
<svg version="1.1" id="Слой_1" xmlns="http://www.w3.org/2000/svg" xmlns:xlink="http://www.w3.org/1999/xlink" x="0px" y="0px"
	 viewBox="0 0 48 48" style="enable-background:new 0 0 48 48;" xml:space="preserve">
<path d="M37.6,13.7l-1.5-3.4l-3.5-1.6l3.5-1.6l1.5-3.5l1.6,3.5l3.5,1.6l-3.5,1.6L37.6,13.7z M37.6,44.3l-1.5-3.5l-3.5-1.6l3.5-1.6
	l1.5-3.4l1.6,3.4l3.5,1.6l-3.5,1.6L37.6,44.3z M13,30.2l5.8-14.8H20l5.8,14.8h-1.2l-1.5-4h-7.2l-1.6,4H13z M16.2,25.1h6.3l-3.1-8.4
	L16.2,25.1z M19.4,36.5c3.4,0,6.4-1.2,8.8-3.6s3.6-5.4,3.6-8.8s-1.2-6.4-3.6-8.8s-5.4-3.7-8.8-3.7c-3.5,0-6.4,1.2-8.9,3.6
	S6.9,20.5,6.9,24c0,3.4,1.2,6.4,3.7,8.8S15.9,36.5,19.4,36.5z M19.4,38c-3.9,0-7.2-1.4-9.9-4.1s-4.1-6-4.1-9.9s1.3-7.2,4.1-9.9
	s6-4.1,9.9-4.1s7.2,1.4,9.9,4.1s4.1,6,4.1,9.9s-1.4,7.2-4.1,9.9S23.3,38,19.4,38z"/>
</svg>
