<?xml version="1.0" encoding="utf-8"?>
<!-- Generator: Adobe Illustrator 26.3.1, SVG Export Plug-In . SVG Version: 6.00 Build 0)  -->
<svg version="1.1" id="Слой_1" xmlns="http://www.w3.org/2000/svg" xmlns:xlink="http://www.w3.org/1999/xlink" x="0px" y="0px"
	 viewBox="0 0 48 48" style="enable-background:new 0 0 48 48;" xml:space="preserve">
<path d="M36.3,15.6l-1.6-3.7L31,10.3l3.7-1.6l1.6-3.5l1.5,3.5l3.8,1.6l-3.8,1.6L36.3,15.6z M43.5,44.5L4.1,4.9l1.1-1l11,11.1
	l0.6-1.4l2.2,4.6l3.6,3.6l4.8,2.1L26,24.6l9.5,9.6l0.8-1.8l1.5,3.7l3.8,1.7l-1.9,0.8l4.9,5L43.5,44.5z M16.9,34.4l-3.2-7.2L6.4,24
	l8.1-3.6l6.1,6.1L16.9,34.4z"/>
</svg>
