<?xml version="1.0" encoding="utf-8"?>
<!-- Generator: Adobe Illustrator 26.3.1, SVG Export Plug-In . SVG Version: 6.00 Build 0)  -->
<svg version="1.1" id="Слой_1" xmlns="http://www.w3.org/2000/svg" xmlns:xlink="http://www.w3.org/1999/xlink" x="0px" y="0px"
	 viewBox="0 0 48 48" style="enable-background:new 0 0 48 48;" xml:space="preserve">
<path d="M24.2,42c-3,0-5.5-1.1-7.6-3.2s-3.1-4.7-3.1-7.7V15.7l-9-9l1.1-1.1l37.2,37.2l-1.1,1.1l-8-7.9c-0.9,1.8-2.2,3.2-3.9,4.3
	S26.3,42,24.2,42z M14.9,17.2v13.9c0,2.6,0.9,4.8,2.7,6.6c1.8,1.8,4,2.7,6.6,2.7c1.9,0,3.6-0.5,5.1-1.5s2.6-2.4,3.3-4l-4.4-4.4
	c-0.1,1.1-0.5,2-1.3,2.7c-0.8,0.8-1.7,1.2-2.7,1.2c-1.1,0-2.1-0.4-2.9-1.2s-1.2-1.8-1.2-2.9v-7.9L14.9,17.2z M21.6,23.9v6.3
	c0,0.7,0.3,1.3,0.8,1.8s1.1,0.8,1.8,0.8c0.7,0,1.3-0.3,1.8-0.8s0.7-1.1,0.7-1.8V29L21.6,23.9z M33.3,28.5V13.6h1.5v16.5L33.3,28.5z
	 M26.7,21.8v-8.4c0-1.6-0.6-3-1.7-4.2s-2.5-1.7-4.2-1.7c-1.1,0-2.1,0.3-3,0.9c-0.9,0.6-1.6,1.3-2.1,2.3l-1.1-1.2
	c0.7-1,1.5-1.9,2.6-2.5s2.3-1,3.6-1c2.1,0,3.8,0.7,5.3,2.2c1.4,1.5,2.2,3.2,2.2,5.3v9.9C28.2,23.4,26.7,21.8,26.7,21.8z M21.6,13.6
	v3L20,15v-1.4H21.6z"/>
</svg>
