<?xml version="1.0" encoding="utf-8"?>
<!-- Generator: Adobe Illustrator 26.3.1, SVG Export Plug-In . SVG Version: 6.00 Build 0)  -->
<svg version="1.1" id="Слой_1" xmlns="http://www.w3.org/2000/svg" xmlns:xlink="http://www.w3.org/1999/xlink" x="0px" y="0px"
	 viewBox="0 0 48 48" style="enable-background:new 0 0 48 48;" xml:space="preserve">
<path d="M23.2,41v-4c-1.8-0.2-3.3-0.8-4.5-1.7c-1.2-1-2.1-2.2-2.6-3.8l1.4-0.6c0.6,1.5,1.5,2.6,2.5,3.4c1.1,0.8,2.4,1.2,4.1,1.2
	c1.6,0,3.1-0.4,4.4-1.3c1.3-0.8,2-2.1,2-3.9c0-1.6-0.5-2.8-1.5-3.7c-1-0.9-2.8-1.8-5.2-2.6c-2.4-0.8-4.1-1.7-5.2-2.7
	c-1.1-1.1-1.7-2.5-1.7-4.2s0.7-3.1,2-4.3c1.3-1.1,2.8-1.7,4.4-1.8V7h1.5v4c1.3,0.1,2.5,0.4,3.5,1s1.8,1.4,2.5,2.5l-1.3,0.7
	c-0.5-0.9-1.2-1.5-2.1-2.1s-1.9-0.8-3.2-0.8c-1.6,0-2.9,0.4-4,1.2s-1.7,2-1.7,3.4c0,1.3,0.4,2.4,1.3,3.2c0.9,0.8,2.7,1.7,5.4,2.6
	c2.4,0.8,4.2,1.8,5.3,2.9c1.1,1.1,1.6,2.6,1.6,4.5s-0.7,3.4-2,4.7c-1.3,1.2-3.1,1.9-5.2,2.1v4C24.7,41,23.2,41,23.2,41z"/>
</svg>
