<?xml version="1.0" encoding="utf-8"?>
<!-- Generator: Adobe Illustrator 26.3.1, SVG Export Plug-In . SVG Version: 6.00 Build 0)  -->
<svg version="1.1" id="Слой_1" xmlns="http://www.w3.org/2000/svg" xmlns:xlink="http://www.w3.org/1999/xlink" x="0px" y="0px"
	 viewBox="0 0 48 48" style="enable-background:new 0 0 48 48;" xml:space="preserve">
<path d="M33.2,23.7V13.6h1.5v10.1H33.2z M21.4,33.5c-0.5-0.4-0.8-0.8-1.1-1.4c-0.3-0.6-0.4-1.2-0.4-1.8V13.6h1.5V33.5z M24,42
	c-3,0-5.6-1-7.7-3.1s-3.1-4.7-3.1-7.7V13.5c0-2.1,0.7-3.8,2.2-5.3C16.8,6.7,18.5,6,20.6,6s3.8,0.7,5.3,2.2c1.5,1.5,2.2,3.2,2.2,5.3
	V29h-1.5V13.4c0-1.6-0.6-3-1.7-4.2s-2.5-1.7-4.2-1.7c-1.6,0-3,0.6-4.2,1.7c-1.1,1.2-1.7,2.6-1.7,4.2v17.7c0,2.6,0.9,4.8,2.7,6.6
	s4,2.7,6.6,2.7c0.9,0,1.8-0.1,2.6-0.4c0.8-0.3,1.6-0.6,2.2-1.1v1.9c-0.7,0.4-1.5,0.7-2.3,0.9C25.7,41.9,24.9,42,24,42z M33.2,40
	v-5.2H28v-1.5h5.2V28h1.5v5.2h5.2v1.5h-5.2V40H33.2z"/>
</svg>
