<?xml version="1.0" encoding="utf-8"?>
<!-- Generator: Adobe Illustrator 26.3.1, SVG Export Plug-In . SVG Version: 6.00 Build 0)  -->
<svg version="1.1" id="Слой_1" xmlns="http://www.w3.org/2000/svg" xmlns:xlink="http://www.w3.org/1999/xlink" x="0px" y="0px"
	 viewBox="0 0 48 48" style="enable-background:new 0 0 48 48;" xml:space="preserve">
<path d="M21.8,18.4l2.1-5.5H24l2.2,5.5H21.8z M24,27.5c-2.8,0-5.1-0.9-7-2.8s-2.8-4.2-2.8-6.9s0.9-5,2.8-6.9c1.9-2,4.2-2.9,7-2.9
	s5.1,0.9,7,2.8c1.9,1.9,2.8,4.2,2.8,6.9s-0.9,5-2.8,6.9C29.1,26.5,26.8,27.5,24,27.5z M18.5,23.1H20l1.3-3.4h5.4l1.3,3.4h1.6
	l-5.2-12.9h-1L18.5,23.1z M7.7,43v-7.7h1.5V43H7.7z M13.5,43v-7.7H15V43H13.5z M19.4,43v-7.7h1.5V43H19.4z M25.2,43v-7.7h15.1V43
	H25.2z"/>
</svg>
