<?xml version="1.0" encoding="utf-8"?>
<!-- Generator: Adobe Illustrator 26.3.1, SVG Export Plug-In . SVG Version: 6.00 Build 0)  -->
<svg version="1.1" id="Слой_1" xmlns="http://www.w3.org/2000/svg" xmlns:xlink="http://www.w3.org/1999/xlink" x="0px" y="0px"
	 viewBox="0 0 48 48" style="enable-background:new 0 0 48 48;" xml:space="preserve">
<path d="M24,31l-2.1-4.9L17,24l4.9-2.2L24,17l2.2,4.9l4.9,2.2l-4.9,2.1L24,31z M24.1,44c-4.1,0-7.7-1-10.9-3.2
	c-3.2-2.1-5.8-5.1-7.7-8.9V40H4V29.2h10.6v1.5H6.7c1.6,3.6,4,6.5,7,8.6c3.1,2.1,6.5,3.1,10.4,3.1c4.1,0,7.7-1.2,10.9-3.6
	c3.2-2.4,5.4-5.6,6.5-9.5l1.5,0.3c-1.2,4.3-3.6,7.8-7.1,10.4C32.6,42.7,28.6,44,24.1,44z M4.1,22c0.3-2.1,0.7-4,1.4-5.6s1.7-3.3,3-5
	l1.1,1.1c-1.1,1.5-2,2.9-2.6,4.4C6.5,18.3,6,20,5.7,22H4.1z M12.5,9.7l-1.1-1.2c1.6-1.2,3.3-2.2,5.1-2.9s3.6-1.2,5.5-1.4v1.5
	c-1.6,0.2-3.3,0.6-4.9,1.2S14,8.5,12.5,9.7z M35.5,9.7c-1.3-1.1-2.8-2-4.5-2.7s-3.4-1.2-5-1.3V4.2c1.9,0.2,3.8,0.6,5.5,1.3
	s3.4,1.7,5,3L35.5,9.7z M42.3,22c-0.2-1.8-0.7-3.6-1.4-5.2s-1.6-3.1-2.8-4.4l1.1-1.1c1.3,1.6,2.3,3.2,3.1,5s1.3,3.7,1.4,5.7H42.3z"
	/>
</svg>
