<?xml version="1.0" encoding="utf-8"?>
<!-- Generator: Adobe Illustrator 26.3.1, SVG Export Plug-In . SVG Version: 6.00 Build 0)  -->
<svg version="1.1" id="Слой_1" xmlns="http://www.w3.org/2000/svg" xmlns:xlink="http://www.w3.org/1999/xlink" x="0px" y="0px"
	 viewBox="0 0 48 48" style="enable-background:new 0 0 48 48;" xml:space="preserve">
<path d="M22.2,40H10.8c-0.8,0-1.4-0.3-2-0.8C8.3,38.7,8,38,8,37.2V10.8c0-0.8,0.3-1.4,0.8-2C9.3,8.3,10,8,10.8,8h11.5L22.2,40
	L22.2,40z M20.7,38.5v-29h-9.9c-0.4,0-0.7,0.1-0.9,0.3s-0.3,0.5-0.3,0.9v26.5c0,0.4,0.1,0.7,0.3,0.9s0.5,0.3,0.9,0.3
	C10.8,38.5,20.7,38.5,20.7,38.5z M25.8,22.2V8h11.4c0.8,0,1.4,0.3,2,0.8c0.5,0.5,0.8,1.2,0.8,2v11.4H25.8z M27.3,20.7h11.1v-9.9
	c0-0.4-0.1-0.7-0.3-0.9s-0.5-0.3-0.9-0.3h-9.9C27.3,9.6,27.3,20.7,27.3,20.7z M25.8,40V25.8H40v11.5c0,0.8-0.3,1.4-0.8,2
	c-0.5,0.5-1.2,0.8-2,0.8L25.8,40L25.8,40z M27.3,38.5h9.9c0.4,0,0.7-0.1,0.9-0.3s0.3-0.5,0.3-0.9v-9.9H27.3
	C27.3,27.3,27.3,38.5,27.3,38.5z"/>
</svg>
