<?xml version="1.0" encoding="utf-8"?>
<!-- Generator: Adobe Illustrator 26.3.1, SVG Export Plug-In . SVG Version: 6.00 Build 0)  -->
<svg version="1.1" id="Слой_1" xmlns="http://www.w3.org/2000/svg" xmlns:xlink="http://www.w3.org/1999/xlink" x="0px" y="0px"
	 viewBox="0 0 48 48" style="enable-background:new 0 0 48 48;" xml:space="preserve">
<path d="M13.6,11.3v27.2V11.3z M21.7,40h-6.9c-0.8,0-1.4-0.3-2-0.8c-0.5-0.5-0.8-1.2-0.8-2V11.3H9.9V9.8h7.8V8.5h12.2v1.3h7.7v1.5
	h-2.1v8.9c-0.2-0.1-0.5-0.1-0.8-0.1s-0.5,0-0.8,0v-8.8H13.6v25.9c0,0.3,0.1,0.6,0.4,0.8c0.3,0.3,0.5,0.4,0.8,0.4h6.3
	c0.1,0.2,0.1,0.5,0.3,0.8C21.5,39.5,21.6,39.8,21.7,40z M19.3,34.3h0.8c0-1.6,0.1-2.9,0.4-3.8l0.4-1.4V15.4h-1.5
	C19.3,15.4,19.3,34.3,19.3,34.3z M26.8,22c0.2-0.1,0.5-0.3,0.8-0.4s0.5-0.3,0.8-0.4v-5.8h-1.5C26.8,15.4,26.8,22,26.8,22z
	 M33.7,43.7c-2.8,0-5.1-1-7-2.9s-2.9-4.3-2.9-7c0-2.8,1-5.1,2.9-7.1c1.9-1.9,4.3-2.9,7-2.9c2.8,0,5.1,1,7,2.9s2.9,4.3,2.9,7.1
	s-1,5.1-2.9,7S36.5,43.7,33.7,43.7z M37,38.2l1.1-1.1l-3.6-3.6V28H33v6.1C32.9,34.1,37,38.2,37,38.2z"/>
</svg>
