<?xml version="1.0" encoding="utf-8"?>
<!-- Generator: Adobe Illustrator 26.3.1, SVG Export Plug-In . SVG Version: 6.00 Build 0)  -->
<svg version="1.1" id="Слой_1" xmlns="http://www.w3.org/2000/svg" xmlns:xlink="http://www.w3.org/1999/xlink" x="0px" y="0px"
	 viewBox="0 0 48 48" style="enable-background:new 0 0 48 48;" xml:space="preserve">
<path d="M3.2,33.1V30H26L5.3,13.8v7.6H3.8v-9.6h0.8l25,13.9V10.8h6.3l8.9,10.7v11.6h-4.4c0.4,1.4,0.2,2.7-0.7,3.9s-2.1,1.8-3.6,1.8
	s-2.7-0.6-3.6-1.8c-0.9-1.2-1.1-2.5-0.7-3.9H17.1c0.4,1.4,0.2,2.7-0.7,3.9c-0.9,1.2-2.1,1.8-3.6,1.8s-2.7-0.6-3.6-1.8
	c-0.9-1.2-1.1-2.5-0.7-3.9C8.5,33.1,3.2,33.1,3.2,33.1z M12.8,37.4c0.9,0,1.6-0.3,2.2-0.9c0.6-0.6,0.9-1.3,0.9-2.2
	c0-0.8-0.3-1.6-0.9-2.2c-0.6-0.6-1.4-0.9-2.2-0.9c-0.9,0-1.6,0.3-2.2,0.9c-0.6,0.6-0.9,1.3-0.9,2.2c0,0.8,0.3,1.6,0.9,2.2
	C11.2,37.1,11.9,37.4,12.8,37.4z M36.1,37.4c0.9,0,1.6-0.3,2.2-0.9c0.6-0.6,0.9-1.3,0.9-2.2c0-0.8-0.3-1.6-0.9-2.2
	c-0.6-0.6-1.3-0.9-2.2-0.9s-1.6,0.3-2.2,0.9c-0.6,0.6-0.9,1.3-0.9,2.2s0.3,1.6,0.9,2.2C34.5,37.1,35.2,37.4,36.1,37.4z M31.1,21.5
	h11.7l-7.7-9.2h-4C31.1,12.3,31.1,21.5,31.1,21.5z"/>
</svg>
