<?xml version="1.0" encoding="utf-8"?>
<!-- Generator: Adobe Illustrator 26.3.1, SVG Export Plug-In . SVG Version: 6.00 Build 0)  -->
<svg version="1.1" id="Слой_1" xmlns="http://www.w3.org/2000/svg" xmlns:xlink="http://www.w3.org/1999/xlink" x="0px" y="0px"
	 viewBox="0 0 48 48" style="enable-background:new 0 0 48 48;" xml:space="preserve">
<path d="M23.9,37.5c-1.6-1.1-3.4-2-5.2-2.6C16.9,34.3,15,34,13,34c-1,0-2.1,0.1-3.1,0.3s-2,0.5-2.9,0.8c-0.7,0.3-1.4,0.2-2-0.2
	c-0.6-0.5-1-1.1-1-1.9V13.7c0-0.5,0.1-0.9,0.4-1.3C4.7,12,5,11.7,5.5,11.6c1.2-0.5,2.4-0.9,3.7-1.2S11.8,10,13,10
	c2,0,3.9,0.3,5.7,0.9c1.8,0.6,3.6,1.4,5.3,2.4v22.3c1.7-1.1,3.5-1.9,5.3-2.4c1.9-0.5,3.8-0.7,5.7-0.7c1.1,0,2.2,0.1,3.2,0.2
	c1,0.1,2.1,0.4,3.1,0.9c0.3,0.1,0.5,0.1,0.8,0c0.2-0.1,0.4-0.3,0.4-0.6V11.4c0.1,0,0.2,0.1,0.3,0.1s0.2,0.1,0.3,0.2
	c0.3,0.2,0.5,0.4,0.7,0.7s0.2,0.6,0.2,1v19.5c0,0.8-0.3,1.4-1,1.8c-0.7,0.4-1.4,0.5-2.2,0.3c-0.9-0.4-1.9-0.6-2.8-0.8
	c-1-0.1-2-0.2-3-0.2c-2,0-3.9,0.3-5.8,0.8C27.3,35.4,25.5,36.3,23.9,37.5z M27.5,30.8V14.4L38.9,3v17.7L27.5,30.8z M22.5,34.8V14.2
	c-1.4-0.8-3-1.5-4.6-2s-3.3-0.7-4.8-0.7c-1.4,0-2.6,0.1-3.8,0.4c-1.1,0.3-2.1,0.6-3,0.9c-0.2,0.1-0.4,0.2-0.5,0.3s-0.2,0.3-0.2,0.5
	V33c0,0.4,0.1,0.6,0.4,0.6c0.2,0.1,0.5,0,0.8-0.1c0.8-0.3,1.7-0.6,2.8-0.8c1-0.2,2.2-0.3,3.6-0.3c1.9,0,3.7,0.2,5.4,0.7
	C20,33.6,21.4,34.2,22.5,34.8z M22.5,34.8V14.2V34.8z"/>
</svg>
