<?xml version="1.0" encoding="utf-8"?>
<!-- Generator: Adobe Illustrator 26.3.1, SVG Export Plug-In . SVG Version: 6.00 Build 0)  -->
<svg version="1.1" id="Слой_1" xmlns="http://www.w3.org/2000/svg" xmlns:xlink="http://www.w3.org/1999/xlink" x="0px" y="0px"
	 viewBox="0 0 48 48" style="enable-background:new 0 0 48 48;" xml:space="preserve">
<path d="M12.5,40c-1.8,0-3.3-0.6-4.6-1.9C6.6,36.9,6,35.3,6,33.5s0.6-3.3,1.9-4.6c1.3-1.3,2.8-1.9,4.6-1.9c0.8,0,1.5,0.1,2.1,0.3
	c0.7,0.2,1.3,0.5,1.8,1l6.5-6.5l-6-6.1c-0.5-0.5-0.8-1-1-1.5c-0.2-0.5-0.3-1.1-0.3-1.7c0-1.2,0.4-2.3,1.3-3.2c0.8-0.9,2-1.4,3.3-1.4
	h7.7c1.4,0,2.5,0.5,3.3,1.4s1.3,2,1.3,3.2c0,0.6-0.1,1.1-0.3,1.7c-0.2,0.6-0.6,1.1-1,1.5l-6,6.1l6.4,6.5c0.5-0.4,1.2-0.7,1.8-1
	c0.7-0.2,1.4-0.4,2.1-0.4c1.8,0,3.3,0.6,4.6,1.9s1.9,2.8,1.9,4.6s-0.6,3.3-1.9,4.6c-1.3,1.3-2.8,1.9-4.6,1.9s-3.4-0.6-4.6-1.9
	c-1.3-1.3-1.9-2.8-1.9-4.6c0-0.8,0.1-1.5,0.4-2.2s0.6-1.3,1.1-1.9L24,23l-6.4,6.5c0.5,0.6,0.8,1.2,1.1,1.9c0.3,0.7,0.4,1.4,0.4,2.1
	c0,1.8-0.6,3.3-1.9,4.6C15.8,39.4,14.3,40,12.5,40z M12.5,38.5c1.3,0,2.5-0.5,3.5-1.4c1-1,1.5-2.1,1.5-3.5S17,31.1,16,30.1
	s-2.2-1.4-3.5-1.4c-1.4,0-2.5,0.5-3.5,1.4c-1,1-1.4,2.1-1.4,3.5C7.5,34.9,8,36.1,9,37C10,38,11.1,38.5,12.5,38.5z M35.5,38.5
	c1.4,0,2.6-0.5,3.5-1.4c1-1,1.4-2.1,1.4-3.5S40,31,39,30.1s-2.1-1.4-3.5-1.4S33,29.2,32,30.2s-1.5,2.1-1.5,3.5s0.5,2.5,1.5,3.5
	C33,38,34.1,38.5,35.5,38.5z M20.2,9.5c-0.9,0-1.6,0.3-2.2,0.9c-0.6,0.6-0.8,1.3-0.8,2.1c0,0.4,0.1,0.8,0.2,1.2s0.4,0.7,0.7,1l6,6
	l6-6.1c0.3-0.3,0.6-0.6,0.7-1s0.2-0.7,0.2-1.1c0-0.8-0.3-1.5-0.8-2.1c-0.6-0.6-1.3-0.9-2.2-0.9C27.8,9.5,20.2,9.5,20.2,9.5z"/>
</svg>
