<?xml version="1.0" encoding="utf-8"?>
<!-- Generator: Adobe Illustrator 26.3.1, SVG Export Plug-In . SVG Version: 6.00 Build 0)  -->
<svg version="1.1" id="Слой_1" xmlns="http://www.w3.org/2000/svg" xmlns:xlink="http://www.w3.org/1999/xlink" x="0px" y="0px"
	 viewBox="0 0 48 48" style="enable-background:new 0 0 48 48;" xml:space="preserve">
<path d="M39.8,24l-7,10c-0.5,0.6-1,1.1-1.6,1.5C30.5,35.8,29.8,36,29,36H11c-0.7,0-1.4-0.3-1.9-0.8S8.3,34,8.3,33.3V14.8
	c0-0.7,0.3-1.4,0.8-1.9C9.6,12.3,10.3,12,11,12h18c0.8,0,1.5,0.2,2.1,0.6c0.6,0.4,1.2,0.9,1.7,1.5L39.8,24z M37.9,24l-6.7-9.5
	c-0.2-0.3-0.5-0.5-0.8-0.7s-0.7-0.3-1.1-0.3H11c-0.3,0-0.6,0.1-0.8,0.4c-0.3,0.3-0.4,0.5-0.4,0.8v18.5c0,0.3,0.1,0.6,0.4,0.8
	c0.3,0.3,0.5,0.4,0.8,0.4h18.2c0.4,0,0.8-0.1,1.1-0.3c0.3-0.2,0.6-0.4,0.8-0.7C31.2,33.5,37.9,24,37.9,24z M9.8,24v10.5v-21V24z
	 M21.3,29.7l1.7-4l4-1.8l-4-1.8l-1.7-3.9l-1.7,3.9l-4,1.8l4,1.8C19.6,25.7,21.3,29.7,21.3,29.7z"/>
</svg>
