<?xml version="1.0" encoding="utf-8"?>
<!-- Generator: Adobe Illustrator 26.3.1, SVG Export Plug-In . SVG Version: 6.00 Build 0)  -->
<svg version="1.1" id="Слой_1" xmlns="http://www.w3.org/2000/svg" xmlns:xlink="http://www.w3.org/1999/xlink" x="0px" y="0px"
	 viewBox="0 0 48 48" style="enable-background:new 0 0 48 48;" xml:space="preserve">
<path d="M24,44c-4.1,0-7.8-1.2-11.2-3.6S7,35,5.3,31.4v5.2H3.8v-8h8v1.5H6.5c1.3,3.5,3.7,6.5,6.9,8.8c3.3,2.3,6.8,3.5,10.6,3.5
	c2.4,0,4.7-0.4,6.9-1.3s4.1-2.1,5.7-3.7c1.6-1.6,3-3.4,4-5.6c1-2.1,1.6-4.4,1.8-6.9H44c-0.1,2.6-0.8,5.1-1.8,7.4
	c-1.1,2.3-2.5,4.3-4.3,6s-3.8,3.1-6.2,4C29.2,43.5,26.7,44,24,44z M14.8,8l-0.9-1.2c1.5-0.9,3.1-1.6,4.8-2.1S22.2,4,24,4
	c4,0,7.7,1.2,11.2,3.6s5.9,5.5,7.5,9.2v-5.4h1.5v8h-8v-1.5h5.3c-1.3-3.4-3.5-6.3-6.8-8.7S27.8,5.6,24,5.6c-1.7,0-3.3,0.2-4.9,0.6
	C17.6,6.6,16.1,7.2,14.8,8z M8,21.2l-1.6-3.7l-3.8-1.6l3.8-1.6L8,10.8l1.6,3.6l3.8,1.6l-3.8,1.6L8,21.2z M16.2,32.3l7.3-18.7h0.9
	l7.5,18.7h-1.7l-2.3-5.6h-7.7l-2.3,5.6H16.2z M20.6,25.2h6.7L24,16.9h-0.2L20.6,25.2z"/>
</svg>
