<?xml version="1.0" encoding="utf-8"?>
<!-- Generator: Adobe Illustrator 26.3.1, SVG Export Plug-In . SVG Version: 6.00 Build 0)  -->
<svg version="1.1" id="Слой_1" xmlns="http://www.w3.org/2000/svg" xmlns:xlink="http://www.w3.org/1999/xlink" x="0px" y="0px"
	 viewBox="0 0 48 48" style="enable-background:new 0 0 48 48;" xml:space="preserve">
<path d="M10.3,30.1c-0.5-1-0.8-2-1-3S9,25.1,9,24c0-4.1,1.5-7.7,4.4-10.6S19.9,9,24,9h3.6L23,4.5l1-1l6.4,6.4L24,16.2l-1-1l4.5-4.5
	H24c-3.7,0-6.9,1.3-9.5,4c-2.6,2.6-3.9,5.8-3.9,9.5c0,0.8,0.1,1.7,0.2,2.5c0.2,0.8,0.4,1.6,0.6,2.4L10.3,30.1z M23.9,44.6l-6.4-6.4
	l6.4-6.3l1,1l-4.5,4.6H24c3.7,0,6.9-1.3,9.5-4c2.6-2.6,3.9-5.8,3.9-9.5c0-0.8-0.1-1.7-0.2-2.5c-0.1-0.8-0.4-1.6-0.7-2.4l1.1-1.1
	c0.4,1,0.8,2,1,3s0.3,2,0.3,3.1c0,4.1-1.5,7.7-4.4,10.6C31.7,37.5,28.1,39,24,39h-3.6l4.5,4.6L23.9,44.6z"/>
</svg>
