<?xml version="1.0" encoding="utf-8"?>
<!-- Generator: Adobe Illustrator 26.3.1, SVG Export Plug-In . SVG Version: 6.00 Build 0)  -->
<svg version="1.1" id="Слой_1" xmlns="http://www.w3.org/2000/svg" xmlns:xlink="http://www.w3.org/1999/xlink" x="0px" y="0px"
	 viewBox="0 0 48 48" style="enable-background:new 0 0 48 48;" xml:space="preserve">
<path d="M39.3,12.8L38,9.9l-3-1.4l3-1.3l1.3-3l1.3,2.9l3,1.4l-3,1.4L39.3,12.8z M16.8,12.8l-1.4-2.9l-2.9-1.4l2.9-1.3l1.4-3l1.4,2.9
	l3,1.4l-3,1.4L16.8,12.8z M39.3,35.3l-1.3-3L35,31l3-1.4l1.3-3l1.3,3l3,1.4l-3,1.3L39.3,35.3z M9.9,41l-3-3c-0.3-0.3-0.5-0.7-0.5-1
	c0-0.4,0.1-0.8,0.5-1l20.3-20.2c0.3-0.3,0.7-0.4,1.1-0.4s0.8,0.1,1,0.4l3,3c0.3,0.3,0.5,0.7,0.5,1.1s-0.1,0.8-0.4,1.1L12.1,41
	c-0.3,0.3-0.6,0.5-1.1,0.5S10.2,41.2,9.9,41z M10.9,39.8l15-15l-3-3L8,36.9L10.9,39.8z"/>
</svg>
