<?xml version="1.0" encoding="utf-8"?>
<!-- Generator: Adobe Illustrator 26.3.1, SVG Export Plug-In . SVG Version: 6.00 Build 0)  -->
<svg version="1.1" id="Слой_1" xmlns="http://www.w3.org/2000/svg" xmlns:xlink="http://www.w3.org/1999/xlink" x="0px" y="0px"
	 viewBox="0 0 48 48" style="enable-background:new 0 0 48 48;" xml:space="preserve">
<path d="M24,36l-1.5-3.7l-3.8-1.6l3.8-1.6l1.5-3.5l1.5,3.5l3.8,1.6l-3.8,1.6L24,36z M10.8,42c-0.8,0-1.4-0.3-1.9-0.8
	C8.3,40.7,8,40,8,39.2v-27c0-0.8,0.3-1.4,0.8-1.9s1.2-0.8,1.9-0.8h4.1v-4h1.8v4h14.8v-4h1.7v4h4.1c0.8,0,1.4,0.3,2,0.8
	s0.8,1.2,0.8,1.9v27c0,0.8-0.3,1.4-0.8,2S38,42,37.2,42H10.8z M10.8,40.5h26.5c0.3,0,0.6-0.1,0.8-0.4s0.4-0.5,0.4-0.8V21H9.6v18.2
	c0,0.3,0.1,0.6,0.4,0.8S10.4,40.5,10.8,40.5z M9.6,19.5h28.9v-7.2c0-0.3-0.1-0.6-0.4-0.8c-0.2-0.2-0.5-0.4-0.8-0.4H10.8
	c-0.3,0-0.6,0.1-0.8,0.4c-0.2,0.3-0.4,0.5-0.4,0.8V19.5z M9.6,19.5v-8.4V19.5z"/>
</svg>
