<?xml version="1.0" encoding="utf-8"?>
<!-- Generator: Adobe Illustrator 26.3.1, SVG Export Plug-In . SVG Version: 6.00 Build 0)  -->
<svg version="1.1" id="Слой_1" xmlns="http://www.w3.org/2000/svg" xmlns:xlink="http://www.w3.org/1999/xlink" x="0px" y="0px"
	 viewBox="0 0 48 48" style="enable-background:new 0 0 48 48;" xml:space="preserve">
<path d="M24,40c-2.2,0-4.3-0.4-6.2-1.3c-1.9-0.8-3.6-2-5.1-3.4c-1.5-1.5-2.6-3.2-3.4-5.1C8.4,28.3,8,26.2,8,24
	c0-1.3,0.1-2.5,0.4-3.6c0.3-1.2,0.7-2.3,1.2-3.3s1.1-2,1.8-2.9s1.5-1.7,2.4-2.5L26,23.8l-1.1,1.1L13.7,13.8c-1.2,1.2-2.2,2.7-3,4.4
	S9.5,21.8,9.5,24c0,4,1.4,7.4,4.2,10.2s6.2,4.2,10.2,4.2s7.4-1.4,10.2-4.2S38.3,28,38.3,24c0-3.7-1.3-6.9-3.8-9.8
	c-2.5-2.8-5.9-4.4-10.1-4.7V14h-1.5V8h0.9C26,8,28.1,8.4,30,9.3c2,0.8,3.7,2,5.1,3.4c1.5,1.4,2.6,3.1,3.4,5.1s1.3,4,1.3,6.2
	s-0.4,4.3-1.3,6.2c-0.8,1.9-2,3.6-3.4,5.1c-1.5,1.5-3.2,2.6-5.1,3.4C28.3,39.6,26.2,40,24,40z M13.5,25.5c-0.4,0-0.8-0.1-1.1-0.4
	S12,24.5,12,24c0-0.4,0.1-0.8,0.4-1.1c0.3-0.3,0.6-0.4,1.1-0.4c0.4,0,0.8,0.1,1.1,0.4S15,23.5,15,24c0,0.4-0.1,0.8-0.4,1.1
	C14.3,25.3,14,25.5,13.5,25.5z M24,35.9c-0.4,0-0.8-0.1-1.1-0.4c-0.3-0.3-0.4-0.6-0.4-1.1c0-0.4,0.1-0.8,0.4-1.1s0.6-0.4,1.1-0.4
	c0.4,0,0.8,0.1,1.1,0.4c0.3,0.3,0.4,0.7,0.4,1.1c0,0.4-0.1,0.8-0.4,1.1C24.7,35.8,24.4,35.9,24,35.9z M34.5,25.5
	c-0.4,0-0.8-0.1-1.1-0.4S33,24.5,33,24c0-0.4,0.1-0.8,0.4-1.1c0.3-0.3,0.7-0.4,1.1-0.4c0.4,0,0.8,0.1,1.1,0.4S36,23.5,36,24
	c0,0.4-0.1,0.8-0.4,1.1C35.2,25.3,34.9,25.5,34.5,25.5z"/>
</svg>
