<?xml version="1.0" encoding="utf-8"?>
<!-- Generator: Adobe Illustrator 26.3.1, SVG Export Plug-In . SVG Version: 6.00 Build 0)  -->
<svg version="1.1" id="Слой_1" xmlns="http://www.w3.org/2000/svg" xmlns:xlink="http://www.w3.org/1999/xlink" x="0px" y="0px"
	 viewBox="0 0 48 48" style="enable-background:new 0 0 48 48;" xml:space="preserve">
<path d="M9.5,25.2H16c0.1,0,0.3,0,0.4,0.1s0.2,0.2,0.3,0.3l3.3,6.6l7.3-14.6c0.1-0.3,0.4-0.4,0.7-0.4c0.3,0,0.5,0.1,0.7,0.4l3.8,7.6
	h6c-0.2-3.9-1.7-7.1-4.5-9.7s-6.1-4-10-4s-7.2,1.3-10,4C11.2,18.1,9.7,21.4,9.5,25.2z M24,40.5c3.9,0,7.2-1.3,10-4
	c2.8-2.6,4.3-5.9,4.4-9.7H32c-0.1,0-0.3,0-0.4-0.1s-0.2-0.2-0.3-0.3L28,19.7l-7.3,14.7c-0.1,0.3-0.4,0.4-0.7,0.4
	c-0.3,0-0.5-0.2-0.7-0.5l-3.8-7.6H9.6c0.2,3.8,1.7,7.1,4.4,9.7C16.8,39.1,20.1,40.5,24,40.5z M24,42c-2.2,0-4.3-0.4-6.2-1.3
	c-1.9-0.8-3.6-2-5.1-3.4s-2.6-3.1-3.4-5.1c-0.8-2-1.3-4-1.3-6.2h1.5c0,4,1.4,7.4,4.2,10.2C16.6,39,20,40.5,24,40.5s7.4-1.4,10.2-4.2
	s4.2-6.2,4.2-10.2H40c0,2.2-0.4,4.3-1.3,6.2c-0.8,2-2,3.6-3.4,5.1c-1.5,1.4-3.2,2.6-5.1,3.4C28.3,41.6,26.2,42,24,42z M8,26
	c0-2.2,0.4-4.3,1.3-6.2s2-3.6,3.4-5.1c1.5-1.5,3.2-2.6,5.1-3.4c1.9-0.8,4-1.3,6.2-1.3c2,0,4,0.4,5.8,1.1c1.8,0.7,3.5,1.7,4.9,3
	l2-2.1l1.1,1.1l-2.1,2.1c1.3,1.3,2.3,2.9,3,4.7c0.8,1.8,1.2,3.8,1.2,6h-1.5c0-4-1.4-7.4-4.2-10.2S28,11.5,24,11.5s-7.4,1.4-10.2,4.2
	C10.9,18.6,9.5,22,9.5,26H8z M18.8,4.5V3h10.5v1.5H18.8z M24,40.5c-4,0-7.4-1.4-10.2-4.2C10.9,33.4,9.5,30,9.5,26s1.4-7.4,4.2-10.2
	s6.2-4.2,10.2-4.2s7.4,1.4,10.2,4.2S38.3,22,38.3,26s-1.4,7.4-4.2,10.2C31.4,39,28,40.5,24,40.5z"/>
</svg>
