<?xml version="1.0" encoding="utf-8"?>
<!-- Generator: Adobe Illustrator 26.3.1, SVG Export Plug-In . SVG Version: 6.00 Build 0)  -->
<svg version="1.1" id="Слой_1" xmlns="http://www.w3.org/2000/svg" xmlns:xlink="http://www.w3.org/1999/xlink" x="0px" y="0px"
	 viewBox="0 0 48 48" style="enable-background:new 0 0 48 48;" xml:space="preserve">
<path d="M18.8,36c-0.8,0-1.5-0.2-2.1-0.5c-0.6-0.4-1.2-0.8-1.6-1.5L8,24l7.1-9.9c0.4-0.6,1-1.1,1.6-1.5S18,12,18.8,12h18.5
	c0.7,0,1.4,0.3,1.9,0.8S40,14,40,14.7v18.5c0,0.7-0.3,1.4-0.8,1.9c-0.6,0.6-1.2,0.9-2,0.9H18.8z M38.5,34.5v-21V34.5z M18.5,34.5
	h18.7c0.3,0,0.6-0.1,0.8-0.4c0.3-0.3,0.4-0.5,0.4-0.8V14.8c0-0.3-0.1-0.6-0.4-0.8c-0.3-0.3-0.5-0.4-0.8-0.4H18.5
	c-0.4,0-0.8,0.1-1.1,0.3c-0.3,0.2-0.6,0.4-0.8,0.7L9.9,24l6.7,9.5c0.2,0.3,0.5,0.5,0.8,0.7C17.8,34.4,18.1,34.5,18.5,34.5z
	 M21.9,30.5l5.4-5.4l5.4,5.4l1.2-1.1L28.4,24l5.4-5.4l-1.1-1.1l-5.3,5.4L22,17.5l-1.1,1.1l5.4,5.4l-5.4,5.4
	C20.8,29.4,21.9,30.5,21.9,30.5z"/>
</svg>
