<?xml version="1.0" encoding="utf-8"?>
<!-- Generator: Adobe Illustrator 26.3.1, SVG Export Plug-In . SVG Version: 6.00 Build 0)  -->
<svg version="1.1" id="Слой_1" xmlns="http://www.w3.org/2000/svg" xmlns:xlink="http://www.w3.org/1999/xlink" x="0px" y="0px"
	 viewBox="0 0 48 48" style="enable-background:new 0 0 48 48;" xml:space="preserve">
<path d="M25,44c-2.8,0-5.3-0.7-7.7-2.1c-2.3-1.4-4.2-3.3-5.6-5.7L5.2,24.8l0.6-0.6c0.3-0.3,0.6-0.4,1-0.5c0.4,0,0.7,0.1,1.1,0.3
	l8.2,5.5V9.8c0-0.2,0.1-0.4,0.2-0.5C16.4,9.1,16.5,9,16.8,9c0.2,0,0.4,0.1,0.5,0.2c0.2,0.2,0.2,0.3,0.2,0.5v22.7l-10.3-7l5.9,9.9
	c1.2,2.2,2.9,3.9,5,5.2s4.4,1.9,7,1.9c3.7,0,6.9-1.3,9.5-3.9c2.6-2.6,3.9-5.7,3.9-9.4V10.8c0-0.2,0.1-0.4,0.2-0.5S39,10,39.2,10
	s0.4,0.1,0.5,0.2c0.2,0.2,0.2,0.3,0.2,0.5v18.4c0,4.1-1.5,7.6-4.4,10.5C32.7,42.6,29.2,44,25,44z M23.5,22.8v-17
	c0-0.2,0.1-0.4,0.2-0.5C23.9,5.1,24.1,5,24.3,5c0.2,0,0.4,0.1,0.6,0.2C25,5.4,25,5.6,25,5.8v17H23.5z M31,22.8v-15
	c0-0.2,0.1-0.4,0.2-0.5C31.4,7.1,31.6,7,31.8,7c0.2,0,0.4,0.1,0.5,0.2c0.1,0.2,0.2,0.3,0.2,0.5v15C32.5,22.8,31,22.8,31,22.8z"/>
</svg>
