<?xml version="1.0" encoding="utf-8"?>
<!-- Generator: Adobe Illustrator 26.3.1, SVG Export Plug-In . SVG Version: 6.00 Build 0)  -->
<svg version="1.1" id="Слой_1" xmlns="http://www.w3.org/2000/svg" xmlns:xlink="http://www.w3.org/1999/xlink" x="0px" y="0px"
	 viewBox="0 0 48 48" style="enable-background:new 0 0 48 48;" xml:space="preserve">
<path d="M12.8,38c-2.4,0-4.5-0.9-6.2-2.6C4.9,33.7,4,31.6,4,29.2c0-2.3,0.8-4.4,2.5-6.1s3.6-2.6,5.9-2.7c0.4-3,1.6-5.5,3.9-7.4
	c2.2-2,4.8-3,7.8-3c3.3,0,6,1.2,8.3,3.5c2.2,2.3,3.4,5.1,3.4,8.4v2.6H37c2-0.1,3.6,0.5,5,1.8s2.1,2.9,2.1,4.9c0,1.9-0.6,3.5-1.9,4.8
	c-1.3,1.3-2.9,2-4.7,2H26c-0.8,0-1.4-0.3-2-0.8c-0.5-0.5-0.8-1.2-0.8-2V22.4l-4.7,4.7l-1-1.1l6.5-6.5l6.5,6.5l-1.1,1.1l-4.6-4.7
	v12.8c0,0.3,0.1,0.6,0.4,0.8c0.3,0.3,0.5,0.4,0.8,0.4h11.2c1.4,0,2.7-0.5,3.7-1.5s1.5-2.2,1.5-3.7c0-1.4-0.5-2.7-1.5-3.7
	S38.6,26,37.2,26h-3.1v-4.1c0-2.8-1-5.3-3-7.3s-4.4-3.1-7.2-3.1c-2.9,0-5.3,1-7.3,3.1c-2,2-3,4.5-3,7.3h-1.1c-1.9,0-3.6,0.7-5,2.1
	s-2.1,3.1-2.1,5.2c0,2,0.7,3.7,2.1,5.1c1.4,1.4,3.1,2.1,5.1,2.1h5.9V38H12.8z"/>
</svg>
