<?xml version="1.0" encoding="utf-8"?>
<!-- Generator: Adobe Illustrator 26.3.1, SVG Export Plug-In . SVG Version: 6.00 Build 0)  -->
<svg version="1.1" id="Слой_1" xmlns="http://www.w3.org/2000/svg" xmlns:xlink="http://www.w3.org/1999/xlink" x="0px" y="0px"
	 viewBox="0 0 48 48" style="enable-background:new 0 0 48 48;" xml:space="preserve">
<path d="M10.8,38.5h4.9v-6.1H9.5v4.9c0,0.3,0.1,0.6,0.4,0.8S10.5,38.5,10.8,38.5z M17.2,38.5h6.1v-6.1h-6.1V38.5z M24.8,38.5h6.1
	v-6.1h-6.1V38.5z M32.4,38.5h4.8c0.3,0,0.6-0.1,0.8-0.4c0.3-0.3,0.4-0.5,0.4-0.8v-4.9h-6.1L32.4,38.5L32.4,38.5z M9.5,15.6h6.1V9.5
	h-4.9c-0.3,0-0.6,0.1-0.8,0.4s-0.4,0.5-0.4,0.8C9.5,10.8,9.5,15.6,9.5,15.6z M9.5,23.2h6.1v-6.1H9.5V23.2z M9.5,30.8h6.1v-6.1H9.5
	V30.8z M17.2,15.6h6.1V9.5h-6.1V15.6z M17.2,23.2h6.1v-6.1h-6.1V23.2z M17.2,30.8h6.1v-6.1h-6.1C17.2,24.8,17.2,30.8,17.2,30.8z
	 M24.8,15.6h6.1V9.5h-6.1V15.6z M24.8,23.2h6.1v-6.1h-6.1V23.2z M24.8,30.8h6.1v-6.1h-6.1V30.8z M32.4,15.6h6.1v-4.8
	c0-0.3-0.1-0.6-0.4-0.8c-0.3-0.3-0.5-0.4-0.8-0.4h-4.8C32.4,9.5,32.4,15.6,32.4,15.6z M32.4,23.2h6.1v-6.1h-6.1V23.2z M32.4,30.8
	h6.1v-6.1h-6.1V30.8z M10.8,40c-0.8,0-1.4-0.3-2-0.8C8.3,38.7,8,38,8,37.2V10.8c0-0.8,0.3-1.4,0.8-2C9.3,8.3,10,8,10.8,8h26.5
	c0.8,0,1.4,0.3,2,0.8c0.5,0.5,0.8,1.2,0.8,2v26.5c0,0.8-0.3,1.4-0.8,2c-0.5,0.5-1.2,0.8-2,0.8L10.8,40L10.8,40z"/>
</svg>
