<?xml version="1.0" encoding="utf-8"?>
<!-- Generator: Adobe Illustrator 26.3.1, SVG Export Plug-In . SVG Version: 6.00 Build 0)  -->
<svg version="1.1" id="Слой_1" xmlns="http://www.w3.org/2000/svg" xmlns:xlink="http://www.w3.org/1999/xlink" x="0px" y="0px"
	 viewBox="0 0 48 48" style="enable-background:new 0 0 48 48;" xml:space="preserve">
<path d="M19.3,24.3L7.5,12.6v8.6H6V10h11.2v1.5H8.6l11.8,11.7L19.3,24.3z M8.8,38c-0.8,0-1.4-0.3-2-0.8C6.3,36.7,6,36,6,35.2v-9.5
	h1.5v9.5c0,0.4,0.1,0.7,0.3,0.9c0.2,0.2,0.5,0.3,0.9,0.3h14.8V38H8.8z M40.5,25.5V12.8c0-0.4-0.1-0.7-0.3-0.9s-0.5-0.3-0.9-0.3H21.8
	V10h17.5c0.8,0,1.4,0.3,2,0.8c0.5,0.5,0.8,1.2,0.8,2v12.8h-1.6V25.5z M42,29.8V38H27.8v-8.2H42z"/>
</svg>
