<?xml version="1.0" encoding="utf-8"?>
<!-- Generator: Adobe Illustrator 26.3.1, SVG Export Plug-In . SVG Version: 6.00 Build 0)  -->
<svg version="1.1" id="Слой_1" xmlns="http://www.w3.org/2000/svg" xmlns:xlink="http://www.w3.org/1999/xlink" x="0px" y="0px"
	 viewBox="0 0 48 48" style="enable-background:new 0 0 48 48;" xml:space="preserve">
<path d="M39.8,35.3c1.3,0.7,2.3,0.5,3.1-0.5s0.9-2.1,0.3-3.3L39,23.8l-3.6,9.1L39.8,35.3z M28.9,33.4h4.7l4.9-12.1
	c0.3-0.9,0.4-1.6,0.3-2.2c-0.2-0.6-0.6-1-1.2-1.3l-4.1-1.7c-0.7-0.3-1.4-0.4-2-0.1c-0.7,0.2-1,0.7-1,1.4
	C30.3,17.4,28.9,33.4,28.9,33.4z M14.5,33.4h4.6l-1.4-16.2c0-0.6-0.4-1-1-1.3s-1.3-0.2-2.1,0.1l-3.9,1.6C10,18,9.6,18.5,9.5,19.2
	s0,1.5,0.3,2.2C9.8,21.5,14.5,33.4,14.5,33.4z M8.2,35.3l4.3-2.4L9,23.8l-4.2,8c-0.6,1.2-0.5,2.3,0.4,3.1
	C6.1,35.7,7.1,35.9,8.2,35.3z M20.6,33.4h6.7L29,15c0-0.7-0.1-1.2-0.6-1.7c-0.4-0.5-1-0.7-1.7-0.7h-5.4c-0.6,0-1.2,0.2-1.6,0.6
	c-0.5,0.4-0.7,1-0.7,1.6C19,14.8,20.6,33.4,20.6,33.4z M7,37.1c-1.1,0-2-0.4-2.8-1.1S3,34.3,3,33.2c0-0.4,0-0.7,0.1-1.1
	c0.1-0.4,0.2-0.7,0.4-1L8.3,22c-0.4-1.1-0.5-2.3-0.2-3.4s0.9-1.9,2-2.3l4.1-1.7c0.6-0.3,1.2-0.4,1.9-0.4c0.6,0,1.2,0.2,1.6,0.7
	c0-1.1,0.4-2,1.1-2.8s1.6-1.2,2.7-1.2h5.4c1,0,1.9,0.4,2.7,1.1c0.7,0.7,1.1,1.6,1.2,2.6c0.4-0.4,0.9-0.6,1.5-0.5
	c0.6,0.1,1.2,0.2,1.8,0.5l4.1,1.7c1,0.4,1.7,1.1,2,2.3c0.3,1.1,0.2,2.2-0.2,3.3l4.7,9.2c0.1,0.3,0.2,0.5,0.4,0.8
	c0.1,0.3,0.2,0.6,0.2,0.9c0,1.2-0.4,2.3-1.3,3.1c-0.8,0.8-1.9,1.3-3.1,1.3c-0.3,0-0.6-0.1-0.8-0.2c-0.2-0.1-0.5-0.2-0.8-0.3L36.1,35
	h-24L9,36.5c-0.3,0.1-0.7,0.3-1,0.4C7.7,37,7.3,37.1,7,37.1z"/>
</svg>
