<?xml version="1.0" encoding="utf-8"?>
<!-- Generator: Adobe Illustrator 26.3.1, SVG Export Plug-In . SVG Version: 6.00 Build 0)  -->
<svg version="1.1" id="Слой_1" xmlns="http://www.w3.org/2000/svg" xmlns:xlink="http://www.w3.org/1999/xlink" x="0px" y="0px"
	 viewBox="0 0 48 48" style="enable-background:new 0 0 48 48;" xml:space="preserve">
<path d="M6,40v-1.5h17.2v-23c-0.9-0.2-1.8-0.6-2.5-1.3s-1.2-1.6-1.4-2.6h-7.6l5.9,14.9c-0.1,1.2-0.7,2.3-1.8,3.2s-2.4,1.3-4,1.3
	c-1.5,0-2.9-0.4-4-1.3s-1.7-2-1.8-3.2l5.9-14.9H8V10h11.3c0.2-1.1,0.8-2.1,1.6-2.8C21.8,6.4,22.8,6,24,6s2.2,0.4,3.1,1.2
	s1.4,1.7,1.6,2.8H40v1.5h-3.9l5.9,15c-0.1,1.2-0.7,2.3-1.8,3.2c-1.1,0.9-2.4,1.3-4,1.3c-1.5,0-2.9-0.4-4-1.3
	c-1.1-0.9-1.7-1.9-1.8-3.2l5.9-14.9h-7.6c-0.2,1-0.7,1.9-1.4,2.6c-0.7,0.7-1.6,1.1-2.5,1.3v23H42V40H6z M32.2,26.2h8l-4-10.3
	L32.2,26.2z M7.7,26.2h8l-4-10.3C11.8,16,7.8,26.2,7.7,26.2z M24,14c0.9,0,1.7-0.3,2.3-1c0.6-0.6,0.9-1.4,0.9-2.3
	c0-0.9-0.3-1.7-0.9-2.3S24.9,7.5,24,7.5s-1.6,0.3-2.3,0.9c-0.6,0.6-1,1.4-1,2.3c0,0.9,0.3,1.6,1,2.3C22.4,13.7,23.1,14,24,14z"/>
</svg>
