<?xml version="1.0" encoding="utf-8"?>
<!-- Generator: Adobe Illustrator 26.3.1, SVG Export Plug-In . SVG Version: 6.00 Build 0)  -->
<svg version="1.1" id="Слой_1" xmlns="http://www.w3.org/2000/svg" xmlns:xlink="http://www.w3.org/1999/xlink" x="0px" y="0px"
	 viewBox="0 0 48 48" style="enable-background:new 0 0 48 48;" xml:space="preserve">
<path d="M16.7,23.1v-2.6h2.6v2.6C19.3,23.1,16.7,23.1,16.7,23.1z M28.7,23.1v-2.6h2.6v2.6C31.3,23.1,28.7,23.1,28.7,23.1z M8,42
	V28.8h2V20c0-1.9,0.4-3.8,1.1-5.5c0.7-1.7,1.7-3.2,3-4.4c1.3-1.3,2.8-2.3,4.5-3C20.3,6.4,22.1,6,24,6s3.8,0.4,5.5,1.1s3.2,1.7,4.4,3
	c1.3,1.3,2.3,2.8,3,4.4C37.6,16.2,38,18,38,20v8.8h2V42H8z M9.5,40.5h5.6V30.4H9.5V40.5z M16.7,40.5h6.6V30.4h-6.6V40.5z M11.5,28.8
	h11.7V7.6c-3,0.1-5.8,1.3-8.1,3.7c-2.4,2.3-3.6,5.2-3.6,8.7V28.8z M24.8,28.8h11.7V20c0-3.5-1.2-6.4-3.6-8.7s-5.1-3.5-8.1-3.7
	C24.8,7.6,24.8,28.8,24.8,28.8z M24.8,40.5h6.6V30.4h-6.6V40.5z M32.9,40.5h5.6V30.4h-5.6V40.5z"/>
</svg>
