<?xml version="1.0" encoding="utf-8"?>
<!-- Generator: Adobe Illustrator 26.3.1, SVG Export Plug-In . SVG Version: 6.00 Build 0)  -->
<svg version="1.1" id="Слой_1" xmlns="http://www.w3.org/2000/svg" xmlns:xlink="http://www.w3.org/1999/xlink" x="0px" y="0px"
	 viewBox="0 0 48 48" style="enable-background:new 0 0 48 48;" xml:space="preserve">
<path d="M12,38.9c-1.3,0-2.4-0.5-3.2-1.6c-0.8-1-1-2.2-0.7-3.4l3.8-14.3c-1.1-0.4-2-1.1-2.8-2.1C8.4,16.5,8,15.3,8,14
	c0-1.6,0.6-3.1,1.8-4.2S12.4,8,14,8h14.8c1,0,1.8,0.4,2.3,1.3c0.5,0.9,0.6,1.8,0.1,2.7L28,18.5c-0.3,0.5-0.6,0.8-1,1.1
	c-0.4,0.3-0.9,0.4-1.4,0.4h-5.4l-0.8,3h0.2c0.4,0,0.7,0.2,1,0.4c0.3,0.3,0.4,0.6,0.4,1v2.8c0,0.4-0.1,0.7-0.4,1s-0.6,0.4-1,0.4H18
	L15.9,36c-0.2,0.9-0.7,1.6-1.4,2.1C13.7,38.7,12.9,38.9,12,38.9z M12,37.4c0.6,0,1.1-0.2,1.5-0.5s0.7-0.8,0.9-1.3L18.6,20h-5.1
	L9.6,34.3c-0.2,0.8-0.1,1.5,0.4,2.1C10.5,37.1,11.2,37.4,12,37.4z M14,18.5h11.5c0.2,0,0.4-0.1,0.7-0.2c0.2-0.1,0.4-0.3,0.5-0.5
	l3.2-6.5c0.2-0.4,0.2-0.8-0.1-1.2c-0.2-0.4-0.6-0.6-1.1-0.6H14c-1.3,0-2.3,0.4-3.2,1.3C10,11.7,9.5,12.7,9.5,14
	c0,1.2,0.4,2.3,1.3,3.2C11.7,18,12.7,18.5,14,18.5z M36.1,9l-0.6-1.3L41.3,5l0.6,1.3C41.9,6.3,36.1,9,36.1,9z M41.3,23l-5.9-2.6
	l0.6-1.3l5.8,2.6C41.9,21.7,41.3,23,41.3,23z M36.5,14.7v-1.5H43v1.5C42.9,14.7,36.5,14.7,36.5,14.7z"/>
</svg>
