<?xml version="1.0" encoding="utf-8"?>
<!-- Generator: Adobe Illustrator 26.3.1, SVG Export Plug-In . SVG Version: 6.00 Build 0)  -->
<svg version="1.1" id="Слой_1" xmlns="http://www.w3.org/2000/svg" xmlns:xlink="http://www.w3.org/1999/xlink" x="0px" y="0px"
	 viewBox="0 0 48 48" style="enable-background:new 0 0 48 48;" xml:space="preserve">
<path d="M13.2,15.8c-0.2,0-0.4-0.1-0.5-0.2c-0.1-0.1-0.2-0.3-0.2-0.6c0-0.2,0.1-0.4,0.2-0.5c0.1-0.1,0.3-0.2,0.6-0.2
	c0.2,0,0.4,0.1,0.5,0.2c0.1,0.1,0.2,0.3,0.2,0.6c0,0.2-0.1,0.4-0.2,0.5C13.6,15.7,13.4,15.8,13.2,15.8z M20,40.5
	c-1.7,0-3.1-0.6-4.2-1.8c-1.2-1.2-1.8-2.6-1.8-4.2v-12c0-2.8,1-5.1,2.9-7.1c1.9-1.9,4.3-2.9,7.1-2.9h3.6c1.7,0,3.2,0.6,4.5,1.7
	c1.2,1.2,1.9,2.6,1.9,4.3c0,1.2-0.3,2.2-0.9,3.2c-0.6,1-1.5,1.7-2.5,2.2c-1.4,0.7-2.5,1.7-3.3,3s-1.2,2.7-1.2,4.3v3.4
	c0,1.7-0.6,3.1-1.7,4.3C23.1,39.9,21.7,40.5,20,40.5z M17.3,12c-0.2,0-0.4-0.1-0.5-0.2c-0.1-0.1-0.2-0.3-0.2-0.5V9.4
	c0-0.2,0.1-0.4,0.2-0.5s0.3-0.2,0.6-0.2c0.2,0,0.4,0.1,0.5,0.2C18,9,18,9.2,18,9.4v1.8c0,0.2-0.1,0.4-0.2,0.5
	C17.7,11.9,17.5,12,17.3,12z M20,38.9c1.2,0,2.3-0.4,3.2-1.3c0.9-0.9,1.3-1.9,1.3-3.2V31c0-1.8,0.5-3.6,1.5-5.1c1-1.6,2.3-2.7,4-3.5
	c0.8-0.4,1.4-0.9,1.8-1.6c0.5-0.7,0.7-1.5,0.7-2.4c0-1.2-0.5-2.3-1.4-3.1c-1-0.9-2.1-1.3-3.5-1.3H24c-2.4,0-4.4,0.8-6,2.5
	c-1.6,1.6-2.5,3.6-2.5,6v12c0,1.3,0.4,2.3,1.3,3.2C17.7,38.5,18.7,38.9,20,38.9z M22.5,10c-0.2,0-0.4-0.1-0.5-0.2
	c-0.1-0.1-0.2-0.3-0.2-0.5V7.4c0-0.2,0.1-0.4,0.2-0.5s0.3-0.2,0.6-0.2c0.2,0,0.4,0.1,0.5,0.2s0.2,0.3,0.2,0.5v1.8
	c0,0.2-0.1,0.4-0.2,0.5C22.9,9.9,22.7,10,22.5,10z M27.7,10c-0.2,0-0.4-0.1-0.5-0.2C27,9.6,27,9.4,27,9.2V6.4c0-0.2,0-0.4,0.2-0.6
	c0.1-0.1,0.3-0.2,0.6-0.2c0.2,0,0.4,0.1,0.5,0.2s0.2,0.3,0.2,0.5v2.8c0,0.2-0.1,0.4-0.2,0.5C28.1,9.9,27.9,10,27.7,10z M33.7,11.6
	c-0.4,0-0.8-0.2-1.1-0.5s-0.5-0.7-0.5-1.1V7.5c0-0.4,0.2-0.8,0.5-1.1C33,6.2,33.3,6,33.7,6s0.8,0.2,1.1,0.5s0.5,0.7,0.5,1.1v2.5
	c0,0.4-0.2,0.8-0.5,1.1C34.5,11.5,34.1,11.6,33.7,11.6z"/>
</svg>
