<?xml version="1.0" encoding="utf-8"?>
<!-- Generator: Adobe Illustrator 26.3.1, SVG Export Plug-In . SVG Version: 6.00 Build 0)  -->
<svg version="1.1" id="Слой_1" xmlns="http://www.w3.org/2000/svg" xmlns:xlink="http://www.w3.org/1999/xlink" x="0px" y="0px"
	 viewBox="0 0 48 48" style="enable-background:new 0 0 48 48;" xml:space="preserve">
<path d="M14.1,20.1c-0.8,0-1.5-0.3-2-0.8c-0.6-0.5-0.8-1.2-0.8-2s0.3-1.4,0.8-2s1.2-0.9,2-0.9s1.5,0.3,2,0.9c0.6,0.6,0.8,1.2,0.8,2
	s-0.3,1.4-0.8,2C15.5,19.9,14.9,20.1,14.1,20.1z M10.9,42c-0.6,0-1.1-0.2-1.5-0.6C9,41,8.8,40.5,8.8,39.9c-0.8,0-1.4-0.3-2-0.9
	C6.3,38.4,6,37.8,6,37v-9.4h5.2v-1.5c0-1,0.4-1.9,1.1-2.6s1.6-1.1,2.6-1.1c0.6,0,1.1,0.1,1.7,0.4c0.5,0.3,1,0.6,1.4,1.1l1.9,2.3
	c0.2,0.3,0.5,0.5,0.7,0.7s0.5,0.4,0.8,0.6h15V10.6c0-0.8-0.3-1.5-0.8-2.2c-0.5-0.6-1.2-0.9-2-0.9c-0.4,0-0.8,0.1-1.2,0.2
	s-0.7,0.3-1,0.6L29,11c0.1,0.6,0.2,1.2,0.1,1.7c-0.1,0.6-0.3,1.1-0.6,1.6l-3.9-3.8c0.5-0.3,1-0.6,1.6-0.7c0.6-0.1,1.1,0,1.7,0.2
	l2.5-2.6c0.4-0.5,0.9-0.8,1.5-1.1C32.4,6.1,33,6,33.6,6c1.2,0,2.3,0.5,3.1,1.4s1.3,2,1.3,3.2v17.1h4v9.4c0,0.8-0.3,1.4-0.8,2
	S40,40,39.2,40c0,0.6-0.2,1.1-0.6,1.5c-0.4,0.4-0.9,0.6-1.5,0.6L10.9,42L10.9,42z M8.8,38.4h30.5c0.4,0,0.7-0.1,0.9-0.4
	c0.2-0.3,0.3-0.6,0.3-0.9v-7.8h-33v7.8c0,0.4,0.1,0.7,0.3,0.9C8.1,38.3,8.4,38.4,8.8,38.4z M8.8,38.4H7.5h32.9
	C40.5,38.4,8.8,38.4,8.8,38.4z"/>
</svg>
