<?xml version="1.0" encoding="utf-8"?>
<!-- Generator: Adobe Illustrator 26.3.1, SVG Export Plug-In . SVG Version: 6.00 Build 0)  -->
<svg version="1.1" id="Слой_1" xmlns="http://www.w3.org/2000/svg" xmlns:xlink="http://www.w3.org/1999/xlink" x="0px" y="0px"
	 viewBox="0 0 48 48" style="enable-background:new 0 0 48 48;" xml:space="preserve">
<path d="M8.8,42c-0.8,0-1.4-0.3-2-0.8C6.3,40.7,6,40,6,39.2V16.8c0-0.8,0.3-1.4,0.8-2C7.3,14.3,8,14,8.8,14H14v1.5H8.8
	c-0.3,0-0.6,0.1-0.8,0.4c-0.3,0.3-0.4,0.5-0.4,0.8v22.5c0,0.3,0.1,0.6,0.4,0.8c0.3,0.3,0.5,0.4,0.8,0.4h30.5c0.3,0,0.6-0.1,0.8-0.4
	c0.3-0.3,0.4-0.5,0.4-0.8V16.8c0-0.3-0.1-0.6-0.4-0.8c-0.3-0.3-0.5-0.4-0.8-0.4H34V14h5.2c0.8,0,1.4,0.3,2,0.8
	c0.5,0.5,0.8,1.2,0.8,2v22.5c0,0.8-0.3,1.4-0.8,2c-0.5,0.5-1.2,0.8-2,0.8L8.8,42L8.8,42z M13,31.2c-0.6,0-1.1-0.2-1.6-0.7
	c-0.4-0.4-0.7-1-0.7-1.6s0.2-1.2,0.7-1.6c0.4-0.5,1-0.7,1.6-0.7s1.2,0.2,1.6,0.7c0.5,0.5,0.7,1,0.7,1.6s-0.2,1.1-0.7,1.6
	S13.6,31.2,13,31.2z M10.8,37.2v-0.5c0-0.8,0.3-1.5,0.9-2.1c0.6-0.6,1.3-0.9,2.1-0.9c0.4,0,0.8,0.1,1.2,0.3s0.7,0.4,1,0.7l1.7,2
	c0.1,0.1,0.2,0.2,0.3,0.3c0.1,0.1,0.2,0.2,0.3,0.2H10.8z M18.8,31.2v-0.6c0-0.8,0.5-1.5,1.5-2.1s2.2-0.8,3.8-0.8
	c1.5,0,2.8,0.3,3.8,0.8c1,0.6,1.5,1.3,1.5,2.1v0.6H18.8z M37.3,37.2H30c0.1-0.1,0.1-0.1,0.2-0.2c0.1-0.1,0.2-0.2,0.2-0.3l1.8-2.1
	c0.2-0.2,0.6-0.5,1-0.7s0.8-0.3,1.2-0.3c0.8,0,1.5,0.3,2.1,0.9c0.6,0.6,0.9,1.3,0.9,2.1C37.3,36.8,37.3,37.2,37.3,37.2z M24,25.2
	c-0.6,0-1.1-0.2-1.6-0.7c-0.4-0.4-0.7-1-0.7-1.6s0.2-1.2,0.7-1.6c0.4-0.5,1-0.7,1.6-0.7s1.2,0.2,1.6,0.7c0.5,0.5,0.7,1,0.7,1.6
	s-0.2,1.1-0.7,1.6S24.6,25.2,24,25.2z M35,31.2c-0.6,0-1.1-0.2-1.6-0.7c-0.4-0.4-0.7-1-0.7-1.6s0.2-1.2,0.7-1.6
	c0.4-0.5,1-0.7,1.6-0.7s1.2,0.2,1.6,0.7c0.5,0.5,0.7,1,0.7,1.6s-0.2,1.1-0.7,1.6S35.6,31.2,35,31.2z M17.6,15.5
	c0.1-0.3,0.1-0.6,0.2-0.8c0-0.2,0.1-0.5,0.1-0.8c0-0.6-0.1-1.1-0.4-1.7c-0.3-0.6-0.7-1.2-1.3-2c-0.7-0.8-1.2-1.6-1.6-2.5
	C14.2,6.9,14,6,14,5.1c0-0.3,0-0.6,0-0.9s0.1-0.6,0.1-0.9h1.5c0,0.4-0.1,0.7-0.1,1c0,0.2,0,0.5,0,0.8c0,0.7,0.1,1.4,0.4,2.1
	s0.7,1.4,1.3,2.1c0.7,0.9,1.2,1.8,1.6,2.5c0.4,0.8,0.5,1.5,0.5,2.2c0,0.3,0,0.6-0.1,0.8c0,0.3-0.1,0.5-0.2,0.8
	C19.2,15.5,17.6,15.5,17.6,15.5z M23.4,15.5c0.1-0.3,0.1-0.6,0.2-0.8c0-0.2,0-0.5,0-0.8c0-0.6-0.1-1.1-0.4-1.7
	c-0.3-0.6-0.7-1.2-1.3-2c-0.7-0.8-1.2-1.6-1.6-2.5C20,6.9,19.8,6,19.8,5.1c0-0.3,0-0.6,0-0.9s0.1-0.6,0.1-0.9h1.5
	c-0.1,0.4-0.1,0.7-0.1,1c0,0.2,0,0.5,0,0.8c0,0.7,0.1,1.4,0.4,2.1s0.7,1.4,1.3,2.1c0.7,0.9,1.2,1.8,1.6,2.5c0.3,0.8,0.5,1.5,0.5,2.2
	c0,0.3,0,0.6,0,0.8S25,15.3,25,15.6C25,15.5,23.4,15.5,23.4,15.5z M29.5,15.5c0.1-0.3,0.1-0.6,0.2-0.8c0-0.2,0-0.5,0-0.8
	c0-0.6-0.1-1.1-0.4-1.7c-0.3-0.6-0.7-1.2-1.3-2c-0.7-0.8-1.2-1.6-1.6-2.5C26,6.9,25.9,6,25.9,5.1c0-0.3,0-0.6,0-0.9S26,3.6,26,3.3
	h1.5c0,0.4-0.1,0.7-0.1,1c0,0.2,0,0.5,0,0.8c0,0.7,0.1,1.4,0.4,2.1s0.7,1.4,1.3,2.1c0.7,0.9,1.3,1.8,1.6,2.5
	c0.3,0.8,0.5,1.5,0.5,2.2c0,0.3,0,0.6-0.1,0.8c0,0.3-0.1,0.5-0.2,0.8C31,15.5,29.5,15.5,29.5,15.5z"/>
</svg>
