<?xml version="1.0" encoding="utf-8"?>
<!-- Generator: Adobe Illustrator 26.3.1, SVG Export Plug-In . SVG Version: 6.00 Build 0)  -->
<svg version="1.1" id="Слой_1" xmlns="http://www.w3.org/2000/svg" xmlns:xlink="http://www.w3.org/1999/xlink" x="0px" y="0px"
	 viewBox="0 0 48 48" style="enable-background:new 0 0 48 48;" xml:space="preserve">
<path d="M38,21.6c-0.7,0-1.3-0.2-1.8-0.7s-0.7-1.1-0.7-1.8c0-0.7,0.2-1.3,0.7-1.8s1.1-0.7,1.8-0.7s1.3,0.2,1.7,0.7
	c0.5,0.5,0.7,1.1,0.7,1.8c0,0.7-0.2,1.3-0.7,1.7C39.2,21.3,38.7,21.6,38,21.6z M10,21.6c-0.7,0-1.3-0.2-1.7-0.7
	c-0.5-0.5-0.7-1.1-0.7-1.8c0-0.7,0.2-1.3,0.7-1.8s1.1-0.7,1.8-0.7s1.3,0.2,1.8,0.7s0.7,1.1,0.7,1.8c0,0.7-0.2,1.3-0.7,1.7
	C11.3,21.3,10.7,21.6,10,21.6z M18.5,19.8c0.2-1.1,0.2-2,0-2.8s-0.7-1.7-1.5-2.7c-0.9-1.1-1.5-2.2-1.8-3.3S14.8,8.6,15,7.1h1.3
	c-0.1,1.5-0.1,2.7,0.1,3.5c0.2,0.9,0.7,1.8,1.5,2.8c0.9,1.2,1.5,2.2,1.8,3.2s0.4,2.1,0.2,3.2C19.8,19.8,18.5,19.8,18.5,19.8z
	 M24.1,19.8c0.2-1.1,0.2-2,0-2.8s-0.7-1.7-1.5-2.7c-0.9-1.1-1.5-2.2-1.8-3.3s-0.4-2.4-0.2-3.9h1.3c-0.2,1.3-0.1,2.5,0.1,3.4
	s0.8,1.9,1.5,2.9c0.9,1.1,1.5,2.2,1.8,3.2s0.4,2.1,0.2,3.2C25.4,19.8,24.1,19.8,24.1,19.8z M29.8,19.8c0.2-1.1,0.2-2,0-2.8
	s-0.7-1.7-1.5-2.7c-0.9-1.1-1.5-2.2-1.8-3.3s-0.4-2.4-0.2-3.9h1.3c-0.2,1.3-0.1,2.4,0.1,3.4s0.8,1.9,1.5,2.9
	c0.9,1.1,1.5,2.2,1.8,3.2s0.4,2.1,0.2,3.2C31.2,19.8,29.8,19.8,29.8,19.8z M8.8,42c-0.7,0-1.4-0.3-1.9-0.8S6,40,6,39.2V28h1.5v-1.2
	c0-0.8,0.3-1.5,0.9-2.1c0.6-0.6,1.3-0.9,2.1-0.9c0.5,0,1,0.1,1.4,0.3c0.4,0.2,0.8,0.5,1.2,0.9l1.6,1.9c0.2,0.2,0.4,0.4,0.6,0.6
	c0.2,0.2,0.4,0.4,0.7,0.5h16c0.2-0.2,0.4-0.3,0.7-0.5c0.2-0.2,0.4-0.4,0.6-0.6L35,25c0.3-0.4,0.7-0.7,1.1-0.9
	c0.4-0.2,0.9-0.3,1.4-0.3c0.8,0,1.6,0.3,2.1,0.9c0.6,0.6,0.9,1.3,0.9,2.1V28H42v11.2c0,0.7-0.3,1.4-0.8,1.9c-0.6,0.6-1.2,0.9-2,0.9
	H8.8z M7.5,35.5h32.9v-5.9H7.5C7.5,29.5,7.5,35.5,7.5,35.5z M8.8,40.5h30.5c0.4,0,0.7-0.1,0.9-0.3s0.3-0.5,0.3-0.9V37h-33v2.2
	c0,0.4,0.1,0.7,0.3,0.9C8.1,40.3,8.4,40.5,8.8,40.5z M24,37v-1.5V37z"/>
</svg>
