<?xml version="1.0" encoding="utf-8"?>
<!-- Generator: Adobe Illustrator 26.3.1, SVG Export Plug-In . SVG Version: 6.00 Build 0)  -->
<svg version="1.1" id="Слой_1" xmlns="http://www.w3.org/2000/svg" xmlns:xlink="http://www.w3.org/1999/xlink" x="0px" y="0px"
	 viewBox="0 0 48 48" style="enable-background:new 0 0 48 48;" xml:space="preserve">
<path d="M23.5,32.8l1.1-1l-1-1c-0.3-0.3-0.5-0.6-0.6-0.9s-0.2-0.7-0.2-1c0-0.4,0.1-0.7,0.2-1.1s0.3-0.7,0.6-1l1.9-1.9
	c0.4-0.4,0.7-0.8,0.9-1.4c0.2-0.5,0.3-1.1,0.3-1.6c0-0.6-0.1-1.2-0.3-1.7c-0.2-0.6-0.5-1-0.9-1.4l-1-1l-1.1,1.1l1,1
	c0.3,0.3,0.5,0.6,0.6,0.9c0.2,0.3,0.3,0.7,0.3,1.1s-0.1,0.7-0.2,1.1c-0.2,0.3-0.4,0.6-0.6,0.9l-1.9,1.9c-0.4,0.4-0.7,0.9-1,1.4
	c-0.2,0.5-0.3,1.1-0.3,1.7s0.1,1.1,0.3,1.7c0.2,0.6,0.5,1,0.9,1.4L23.5,32.8z M17.2,42c-0.4,0-0.7-0.1-1-0.4c-0.3-0.3-0.4-0.6-0.4-1
	V10c0-0.4,0.1-0.7,0.4-1s0.6-0.4,1-0.4h3.5V6h6.8v2.6H31c0.4,0,0.7,0.1,1,0.4c0.3,0.3,0.4,0.6,0.4,1v30.6c0,0.4-0.1,0.7-0.4,1
	c-0.3,0.3-0.6,0.4-1,0.4H17.2z M17.3,40.5h13.4V10.1H17.3V40.5z M17.3,40.5h13.4C30.7,40.5,17.3,40.5,17.3,40.5z"/>
</svg>
