<?xml version="1.0" encoding="utf-8"?>
<!-- Generator: Adobe Illustrator 26.3.1, SVG Export Plug-In . SVG Version: 6.00 Build 0)  -->
<svg version="1.1" id="Слой_1" xmlns="http://www.w3.org/2000/svg" xmlns:xlink="http://www.w3.org/1999/xlink" x="0px" y="0px"
	 viewBox="0 0 48 48" style="enable-background:new 0 0 48 48;" xml:space="preserve">
<path d="M17.2,42c-0.4,0-0.7-0.1-1-0.4c-0.3-0.3-0.4-0.6-0.4-1V10c0-0.4,0.1-0.7,0.4-1s0.6-0.4,1-0.4h3.5V6h6.8v2.6H31
	c0.4,0,0.7,0.1,1,0.4c0.3,0.3,0.4,0.6,0.4,1v5.8h-1.5v-5.7H17.3v30.4h13.4v-4.2h1.5v4.4c0,0.4-0.1,0.7-0.4,1c-0.3,0.3-0.6,0.4-1,0.4
	C30.8,42,17.2,42,17.2,42z M21.3,32.8V28c0-0.8,0.3-1.4,0.8-1.9s1.2-0.8,1.9-0.8h10.7l-4.4-4.4l1.1-1.1l6.3,6.3l-6.3,6.3l-1.1-1.1
	l4.4-4.4H24.1c-0.4,0-0.7,0.1-0.9,0.3c-0.2,0.2-0.3,0.5-0.3,0.9v4.8h-1.6V32.8z"/>
</svg>
