<?xml version="1.0" encoding="utf-8"?>
<!-- Generator: Adobe Illustrator 26.3.1, SVG Export Plug-In . SVG Version: 6.00 Build 0)  -->
<svg version="1.1" id="Слой_1" xmlns="http://www.w3.org/2000/svg" xmlns:xlink="http://www.w3.org/1999/xlink" x="0px" y="0px"
	 viewBox="0 0 48 48" style="enable-background:new 0 0 48 48;" xml:space="preserve">
<path d="M31.9,40.6L28,36.7l1.1-1.1l2.8,2.8l7.1-7l1.1,1.1L31.9,40.6z M17.2,42c-0.4,0-0.7-0.1-1-0.4c-0.3-0.3-0.4-0.6-0.4-1V10
	c0-0.4,0.1-0.7,0.4-1s0.6-0.4,1-0.4h3.5V6h6.8v2.6H31c0.4,0,0.7,0.1,1,0.4c0.3,0.3,0.4,0.6,0.4,1v15c-0.3,0.1-0.5,0.1-0.8,0.1
	s-0.5,0.1-0.7,0.2V10.1H17.3v30.4h6.4c0.2,0.3,0.3,0.6,0.5,0.8c0.2,0.3,0.4,0.5,0.5,0.7C24.8,42,17.2,42,17.2,42z"/>
</svg>
