<?xml version="1.0" encoding="utf-8"?>
<!-- Generator: Adobe Illustrator 26.3.1, SVG Export Plug-In . SVG Version: 6.00 Build 0)  -->
<svg version="1.1" id="Слой_1" xmlns="http://www.w3.org/2000/svg" xmlns:xlink="http://www.w3.org/1999/xlink" x="0px" y="0px"
	 viewBox="0 0 48 48" style="enable-background:new 0 0 48 48;" xml:space="preserve">
<path d="M17.2,42c-0.4,0-0.7-0.1-1-0.4c-0.3-0.3-0.4-0.6-0.4-1V10c0-0.4,0.1-0.7,0.4-1s0.6-0.4,1-0.4h3.5V6h6.8v2.6H31
	c0.4,0,0.7,0.1,1,0.4c0.3,0.3,0.4,0.6,0.4,1v12.4c-0.3,0-0.5,0.1-0.8,0.1s-0.5,0.1-0.7,0.1V10.1H17.3v30.4h5.5
	c0.2,0.3,0.4,0.6,0.6,0.8c0.2,0.3,0.4,0.5,0.7,0.7H17.2z M32.5,42l-0.1-1.4c-0.9-0.2-1.7-0.5-2.3-0.9c-0.7-0.4-1.2-0.9-1.7-1.4
	L27.2,39l-1.1-1.4l1.2-0.9c-0.3-0.9-0.4-1.7-0.4-2.4s0.1-1.6,0.4-2.4L26.1,31l1.1-1.4l1.2,0.7c0.5-0.5,1-1,1.7-1.4s1.4-0.7,2.3-0.9
	l0.1-1.4H34l0.1,1.4c0.9,0.2,1.6,0.5,2.3,0.9s1.2,0.9,1.7,1.4l1.3-0.7l1,1.4l-1.2,0.9c0.3,0.9,0.4,1.7,0.4,2.5s-0.1,1.6-0.4,2.4
	l1.2,0.9l-1,1.4l-1.3-0.7c-0.5,0.5-1,1-1.7,1.4s-1.4,0.7-2.3,0.9L34,42H32.5z M33.2,39.1c1.3,0,2.5-0.5,3.4-1.4s1.4-2.1,1.4-3.4
	c0-1.3-0.5-2.5-1.4-3.4s-2.1-1.4-3.4-1.4c-1.4,0-2.5,0.5-3.4,1.4s-1.4,2.1-1.4,3.4s0.5,2.5,1.4,3.4S31.9,39.1,33.2,39.1z"/>
</svg>
