<?xml version="1.0" encoding="utf-8"?>
<!-- Generator: Adobe Illustrator 26.3.1, SVG Export Plug-In . SVG Version: 6.00 Build 0)  -->
<svg version="1.1" id="Слой_1" xmlns="http://www.w3.org/2000/svg" xmlns:xlink="http://www.w3.org/1999/xlink" x="0px" y="0px"
	 viewBox="0 0 48 48" style="enable-background:new 0 0 48 48;" xml:space="preserve">
<path d="M38.9,40L26.6,27.8l1.2-1.2l12.3,12.3C40.1,38.9,38.9,40,38.9,40z M11.6,37.1c-1.3-1.6-2.2-3.4-2.8-5.3
	C8.2,29.9,7.9,28,7.9,26c0-2.4,0.4-4.7,1.3-6.9s2.2-4.2,4-6s3.8-3.1,6-4s4.5-1.3,6.8-1.3c2,0,3.9,0.3,5.8,0.9
	c1.9,0.6,3.7,1.5,5.3,2.8C37.2,11.5,11.6,37.1,11.6,37.1z M11.7,34.7l4-4c-0.6-0.8-1.1-1.6-1.6-2.5s-1-1.9-1.4-2.9s-0.8-2.2-1-3.3
	c-0.2-1.2-0.3-2.4-0.3-3.7c-1.5,2.6-2.1,5.4-1.9,8.3C9.6,29.5,10.4,32.2,11.7,34.7z M17,29.6l12.6-12.8c-1.5-1.1-3-2-4.5-2.7
	c-1.6-0.6-3-1-4.5-1.2c-1.4-0.2-2.7-0.2-3.8,0.1c-1.1,0.2-2,0.6-2.6,1.2c-0.6,0.6-1,1.5-1.3,2.6c-0.2,1.1-0.2,2.4,0,3.8
	s0.6,2.9,1.3,4.4C14.9,26.6,15.8,28.1,17,29.6z M30.9,15.6l4-4c-2.6-1.5-5.3-2.4-8.2-2.5s-5.7,0.6-8.3,2c1.3-0.1,2.5,0,3.7,0.3
	c1.2,0.2,2.3,0.6,3.3,1s2,0.9,2.9,1.5C29.2,14.5,30.1,15.1,30.9,15.6z"/>
</svg>
