<?xml version="1.0" encoding="utf-8"?>
<!-- Generator: Adobe Illustrator 26.3.1, SVG Export Plug-In . SVG Version: 6.00 Build 0)  -->
<svg version="1.1" id="Слой_1" xmlns="http://www.w3.org/2000/svg" xmlns:xlink="http://www.w3.org/1999/xlink" x="0px" y="0px"
	 viewBox="0 0 48 48" style="enable-background:new 0 0 48 48;" xml:space="preserve">
<path d="M6,36V25.6c0-0.6,0.2-1.2,0.5-1.8c0.3-0.7,0.8-1.1,1.5-1.4v-4.7c0-1,0.4-1.9,1.1-2.6s1.6-1.1,2.6-1.1h9.5
	c0.7,0,1.2,0.2,1.7,0.5s0.9,0.7,1.1,1.2c0.3-0.5,0.7-0.9,1.1-1.2c0.5-0.3,1-0.5,1.7-0.5h9.5c1,0,1.9,0.4,2.6,1.1
	c0.7,0.7,1.1,1.6,1.1,2.6v4.7c0.7,0.3,1.2,0.8,1.5,1.4c0.3,0.7,0.5,1.3,0.5,1.8V36h-1.5v-4h-33v4H6z M24.8,22.1h13.7v-4.4
	c0-0.6-0.2-1.1-0.6-1.5c-0.4-0.4-0.9-0.6-1.5-0.6h-9.5c-0.6,0-1,0.2-1.4,0.6c-0.4,0.4-0.6,0.9-0.6,1.5v4.4H24.8z M9.5,22.1h13.7
	v-4.4c0-0.6-0.2-1.1-0.6-1.5s-0.9-0.6-1.4-0.6h-9.5c-0.6,0-1.1,0.2-1.5,0.6c-0.4,0.4-0.6,0.9-0.6,1.5C9.5,17.7,9.5,22.1,9.5,22.1z
	 M7.5,30.5h32.9v-4.8c0-0.5-0.2-1-0.6-1.4c-0.4-0.4-0.9-0.6-1.4-0.6H9.5c-0.6,0-1,0.2-1.4,0.6c-0.4,0.4-0.6,0.9-0.6,1.4
	C7.5,25.6,7.5,30.5,7.5,30.5z M40.5,30.5h-33H40.5z"/>
</svg>
