<?xml version="1.0" encoding="utf-8"?>
<!-- Generator: Adobe Illustrator 26.3.1, SVG Export Plug-In . SVG Version: 6.00 Build 0)  -->
<svg version="1.1" id="Слой_1" xmlns="http://www.w3.org/2000/svg" xmlns:xlink="http://www.w3.org/1999/xlink" x="0px" y="0px"
	 viewBox="0 0 48 48" style="enable-background:new 0 0 48 48;" xml:space="preserve">
<path d="M24.1,35.9c2.5,0,4.9-0.5,7.3-1.4s4.4-2.2,6.2-3.9l-1.3-1.2c-0.3,0.3-0.7,0.6-1.1,1c-0.5,0.3-0.9,0.6-1.4,0.9L31.5,27v-4.8
	H34v-1.4H22.3l-3.7-6.3h-4.5l1,0.7l-3.2,3.6l1,1.1l3.7-2.5v9.5l-2.4,4.3c-0.6-0.3-1.1-0.7-1.5-1s-0.8-0.6-1.1-0.9l-1.3,1.2
	c1.8,1.6,3.9,2.9,6.3,3.9C19.1,35.4,21.5,35.9,24.1,35.9z M24.1,34.1c-1.3,0-2.7-0.1-4.1-0.4c-1.4-0.3-2.9-0.9-4.4-1.7l2.5-4.4
	c1.1,0.4,2.1,0.7,3.1,0.9c1,0.2,1.9,0.3,2.9,0.3c0.9,0,1.9-0.1,2.9-0.3c1-0.2,2-0.5,3.1-0.9l2.5,4.4c-1.5,0.8-3,1.3-4.4,1.6
	C26.7,34,25.4,34.1,24.1,34.1z M8.8,42c-0.8,0-1.4-0.3-2-0.8C6.3,40.7,6,40,6,39.2V8.8c0-0.8,0.3-1.4,0.8-2C7.3,6.3,8,6,8.8,6h30.5
	c0.8,0,1.4,0.3,2,0.8C41.7,7.3,42,8,42,8.8v30.5c0,0.8-0.3,1.4-0.8,2c-0.5,0.5-1.2,0.8-2,0.8L8.8,42L8.8,42z M8.8,40.5h30.5
	c0.3,0,0.6-0.1,0.8-0.4c0.3-0.3,0.4-0.5,0.4-0.8V8.8c0-0.3-0.1-0.6-0.4-0.8c-0.3-0.3-0.5-0.4-0.8-0.4H8.8C8.5,7.6,8.2,7.7,8,8
	C7.7,8.2,7.5,8.5,7.5,8.8v30.5c0,0.3,0.1,0.6,0.4,0.8C8.2,40.3,8.5,40.5,8.8,40.5z M7.5,40.5v-33V40.5z"/>
</svg>
