<?xml version="1.0" encoding="utf-8"?>
<!-- Generator: Adobe Illustrator 26.3.1, SVG Export Plug-In . SVG Version: 6.00 Build 0)  -->
<svg version="1.1" id="Слой_1" xmlns="http://www.w3.org/2000/svg" xmlns:xlink="http://www.w3.org/1999/xlink" x="0px" y="0px"
	 viewBox="0 0 48 48" style="enable-background:new 0 0 48 48;" xml:space="preserve">
<path d="M38.5,35.2L37.3,34c0.9-0.7,1.7-1.5,2.4-2.4s1.3-1.8,1.9-2.8c-3.2-0.3-6.3-1.1-9.2-2.4s-5.4-3.2-7.7-5.6l2.4,2.4
	c-2.4-2.2-4.2-4.7-5.6-7.6c-1.3-2.9-2.1-5.9-2.4-9.1c-1,0.6-1.9,1.2-2.8,1.9C15.5,9,14.7,9.8,14,10.7l-1.2-1.2
	c1-1.2,2.2-2.3,3.6-3.2c1.3-0.9,2.8-1.6,4.4-2.1c-0.1,3.1,0.3,6.1,1.4,9s2.7,5.4,5,7.6c2.2,2.2,4.8,3.9,7.6,5c2.9,1.1,5.9,1.6,9,1.4
	c-0.5,1.6-1.2,3.1-2.1,4.4C40.8,32.9,39.7,34.1,38.5,35.2z M39.4,43.2L34,37.9c-1.1,0.5-2.3,0.9-3.5,1.1c-1.2,0.3-2.5,0.4-3.7,0.4
	c-2.5,0-4.9-0.5-7.1-1.4c-2.2-1-4.1-2.3-5.8-3.9c-1.6-1.6-3-3.6-3.9-5.8c-1-2.2-1.4-4.6-1.4-7.1c0-1.3,0.1-2.5,0.4-3.7
	c0.3-1.2,0.6-2.4,1.1-3.5L4.8,8.7l1.1-1.1l34.5,34.5C40.5,42.1,39.4,43.2,39.4,43.2z M26.8,37.9c1.1,0,2.1-0.1,3.1-0.3s2-0.5,3-0.9
	L11.3,15.1c-0.4,1-0.7,2-0.9,3s-0.3,2.1-0.3,3.1c0,4.6,1.6,8.6,4.8,11.8S22.1,37.9,26.8,37.9z"/>
</svg>
