<?xml version="1.0" encoding="utf-8"?>
<!-- Generator: Adobe Illustrator 26.3.1, SVG Export Plug-In . SVG Version: 6.00 Build 0)  -->
<svg version="1.1" id="Слой_1" xmlns="http://www.w3.org/2000/svg" xmlns:xlink="http://www.w3.org/1999/xlink" x="0px" y="0px"
	 viewBox="0 0 48 48" style="enable-background:new 0 0 48 48;" xml:space="preserve">
<path d="M8.5,36.2c-0.8,0-1.4-0.3-2-0.8c-0.5-0.5-0.8-1.2-0.8-2V14.5c0-0.8,0.3-1.4,0.8-2c0.5-0.5,1.2-0.8,2-0.8h30.9
	c0.8,0,1.4,0.3,2,0.8c0.5,0.5,0.8,1.2,0.8,2v18.9c0,0.8-0.3,1.4-0.8,2c-0.5,0.5-1.2,0.8-2,0.8C39.5,36.2,8.5,36.2,8.5,36.2z
	 M26.4,23.2h14.3v-8.7c0-0.3-0.1-0.6-0.4-0.8c-0.3-0.3-0.5-0.4-0.8-0.4H26.4C26.4,13.3,26.4,23.2,26.4,23.2z M8.5,34.7h16.3V13.3
	H8.5c-0.3,0-0.6,0.1-0.8,0.4c-0.3,0.3-0.4,0.5-0.4,0.8v18.9c0,0.3,0.1,0.6,0.4,0.8C7.9,34.6,8.2,34.7,8.5,34.7z M16,25.8
	c-0.5,0-0.9-0.2-1.3-0.5c-0.4-0.4-0.5-0.8-0.5-1.3s0.2-1,0.5-1.3c0.4-0.4,0.8-0.5,1.3-0.5s1,0.2,1.3,0.5c0.4,0.4,0.5,0.8,0.5,1.3
	s-0.2,0.9-0.5,1.3C16.9,25.7,16.5,25.8,16,25.8z M26.4,34.7h13.1c0.3,0,0.6-0.1,0.8-0.4c0.3-0.3,0.4-0.5,0.4-0.8v-8.7H26.4V34.7z"/>
</svg>
