<?xml version="1.0" encoding="utf-8"?>
<!-- Generator: Adobe Illustrator 26.3.1, SVG Export Plug-In . SVG Version: 6.00 Build 0)  -->
<svg version="1.1" id="Слой_1" xmlns="http://www.w3.org/2000/svg" xmlns:xlink="http://www.w3.org/1999/xlink" x="0px" y="0px"
	 viewBox="0 0 48 48" style="enable-background:new 0 0 48 48;" xml:space="preserve">
<path d="M7.5,36.5h5.7v-5.2h1.5v5.2h6.5v-5.2h1.5v5.2h6.5v-5.2h1.5v5.2h9.7V19.6c-1,0.9-2.3,1.6-3.9,2c-1.6,0.4-3.3,0.6-5,0.6
	c-1.4,0-2.7-0.1-3.9-0.4c-1.3-0.3-2.4-0.7-3.3-1.3H7.5C7.5,20.5,7.5,36.5,7.5,36.5z M13.5,19h8.8c-0.4-0.4-0.7-0.8-0.9-1.3
	c-0.2-0.5-0.3-1-0.3-1.7c0-0.5,0.1-0.9,0.2-1.3c0.1-0.4,0.3-0.8,0.5-1.1h-8.3C13.5,13.5,13.5,19,13.5,19z M31.6,20.7
	c2.1,0,4.2-0.3,6.1-1c1.9-0.6,2.8-1.9,2.8-3.7s-0.9-3.1-2.8-3.7c-1.9-0.6-3.9-1-6.1-1c-2.1,0-4.2,0.3-6.1,1
	c-1.9,0.6-2.8,1.9-2.8,3.7s0.9,3.1,2.8,3.7C27.4,20.4,29.4,20.7,31.6,20.7z M6,38V19h6v-7h11.2c1-0.8,2.3-1.4,3.8-1.7s3-0.5,4.6-0.5
	c2.6,0,5,0.5,7.1,1.4c2.2,1,3.3,2.6,3.3,4.8v22H6z M7.5,36.5h32.9C40.5,36.5,7.5,36.5,7.5,36.5z"/>
</svg>
