<?xml version="1.0" encoding="utf-8"?>
<!-- Generator: Adobe Illustrator 26.3.1, SVG Export Plug-In . SVG Version: 6.00 Build 0)  -->
<svg version="1.1" id="Слой_1" xmlns="http://www.w3.org/2000/svg" xmlns:xlink="http://www.w3.org/1999/xlink" x="0px" y="0px"
	 viewBox="0 0 48 48" style="enable-background:new 0 0 48 48;" xml:space="preserve">
<path d="M10.8,40c-0.8,0-1.4-0.3-2-0.8C8.3,38.7,8,38,8,37.2V10.8c0-0.8,0.3-1.4,0.8-2C9.3,8.3,10,8,10.8,8h26.5
	c0.8,0,1.4,0.3,2,0.8c0.5,0.5,0.8,1.2,0.8,2v26.5c0,0.8-0.3,1.4-0.8,2c-0.5,0.5-1.2,0.8-2,0.8L10.8,40L10.8,40z M9.5,32.3v5
	c0,0.3,0.1,0.6,0.4,0.8s0.5,0.4,0.8,0.4h26.5c0.3,0,0.6-0.1,0.8-0.4c0.3-0.3,0.4-0.5,0.4-0.8V19.5L26.7,31.9l-8.4-8.3
	C18.3,23.5,9.5,32.3,9.5,32.3z M9.5,30.1l8.8-8.8l8.4,8.4l11.7-12.4v-6.6c0-0.3-0.1-0.6-0.4-0.8c-0.3-0.3-0.5-0.4-0.8-0.4H10.8
	c-0.3,0-0.6,0.1-0.8,0.4s-0.4,0.5-0.4,0.8C9.5,10.8,9.5,30.1,9.5,30.1z M9.5,19.5v-2.2v12.4v-8.4v11v-8.8v8.4V19.5z M9.5,30.1V9.5
	v20.2v-8.4C9.5,21.3,9.5,30.1,9.5,30.1z M9.5,32.3v-8.8v8.4V19.5v19V32.3z"/>
</svg>
