<?xml version="1.0" encoding="utf-8"?>
<!-- Generator: Adobe Illustrator 26.3.1, SVG Export Plug-In . SVG Version: 6.00 Build 0)  -->
<svg version="1.1" id="Слой_1" xmlns="http://www.w3.org/2000/svg" xmlns:xlink="http://www.w3.org/1999/xlink" x="0px" y="0px"
	 viewBox="0 0 48 48" style="enable-background:new 0 0 48 48;" xml:space="preserve">
<path d="M4.1,5.7L42.4,44l-1.1,1.1L36.2,40H10.8c-0.8,0-1.4-0.3-2-0.8C8.3,38.7,8,38,8,37.2V11.8l-5-5L4.1,5.7z M18.5,23.2l-9,9v5
	c0,0.3,0.1,0.6,0.4,0.8s0.5,0.4,0.8,0.4h23.9l-7.3-7.3L27,31.6L18.5,23.2z M9.5,13.3v16.8l8.4-8.4L9.5,13.3z M11.4,8h25.8
	c0.8,0,1.4,0.3,2,0.8c0.5,0.5,0.8,1.2,0.8,2v25.8L38.5,35V19.5l-7.5,8l-1.1-1.1l8.6-9.1v-6.6c0-0.3-0.1-0.6-0.4-0.8
	c-0.3-0.3-0.5-0.4-0.8-0.4H13L11.4,8z"/>
</svg>
