<?xml version="1.0" encoding="utf-8"?>
<!-- Generator: Adobe Illustrator 26.3.1, SVG Export Plug-In . SVG Version: 6.00 Build 0)  -->
<svg version="1.1" id="Слой_1" xmlns="http://www.w3.org/2000/svg" xmlns:xlink="http://www.w3.org/1999/xlink" x="0px" y="0px"
	 viewBox="0 0 48 48" style="enable-background:new 0 0 48 48;" xml:space="preserve">
<path d="M11,33c-1.8-1.8-3.1-3.7-4-6c-0.9-2.2-1.4-4.6-1.4-7c0-2.5,0.5-4.8,1.4-7s2.3-4.2,4-6l1,1c-1.6,1.6-2.8,3.4-3.7,5.5
	S7,17.7,7,20s0.4,4.4,1.3,6.5s2.1,3.9,3.7,5.5L11,33z M15.6,28.4c-1.1-1.1-2-2.4-2.6-3.9c-0.6-1.4-0.9-3-0.9-4.6s0.3-3.1,0.9-4.6
	c0.6-1.4,1.4-2.7,2.6-3.9l1,1c-1,1-1.7,2.1-2.2,3.4s-0.8,2.6-0.8,4s0.3,2.7,0.8,4s1.3,2.4,2.2,3.4C16.6,27.4,15.6,28.4,15.6,28.4z
	 M23.2,40.2V23.5c-0.9-0.1-1.5-0.6-2.1-1.2c-0.5-0.7-0.8-1.4-0.8-2.3c0-1,0.3-1.9,1-2.6s1.6-1,2.6-1s1.9,0.3,2.6,1s1,1.6,1,2.6
	c0,0.9-0.3,1.6-0.8,2.3c-0.5,0.7-1.2,1.1-2.1,1.2v16.7C24.8,40.2,23.2,40.2,23.2,40.2z M32.4,28.4l-1-1c1-1,1.7-2.2,2.2-3.4
	c0.5-1.3,0.8-2.6,0.8-4s-0.3-2.7-0.8-4s-1.3-2.4-2.2-3.4l1-1c1.1,1.1,2,2.4,2.6,3.9c0.6,1.4,0.9,3,0.9,4.6s-0.3,3.1-0.9,4.6
	C34.4,26,33.5,27.3,32.4,28.4z M37,33l-1-1c1.6-1.6,2.8-3.4,3.7-5.5S41,22.3,41,20s-0.4-4.4-1.3-6.5C38.8,11.4,37.6,9.6,36,8l1-1
	c1.8,1.8,3.1,3.7,4,6c0.9,2.2,1.4,4.6,1.4,7s-0.5,4.8-1.4,7C40.1,29.3,38.8,31.3,37,33z"/>
</svg>
