<?xml version="1.0" encoding="utf-8"?>
<!-- Generator: Adobe Illustrator 26.3.1, SVG Export Plug-In . SVG Version: 6.00 Build 0)  -->
<svg version="1.1" id="Слой_1" xmlns="http://www.w3.org/2000/svg" xmlns:xlink="http://www.w3.org/1999/xlink" x="0px" y="0px"
	 viewBox="0 0 48 48" style="enable-background:new 0 0 48 48;" xml:space="preserve">
<path d="M8,40v-1.5l10.2-1.8l1.8-26c0-0.7,0.3-1.4,0.9-1.8C21.3,8.2,22,8,22.7,8h2.6c0.7,0,1.4,0.2,1.9,0.7s0.8,1.1,0.9,1.8l1.7,26
	l10.2,2V40H8z M21.6,36.8h4.8V11.9c0-0.7-0.2-1.2-0.7-1.7s-1-0.7-1.7-0.7s-1.2,0.2-1.7,0.7s-0.7,1-0.7,1.7
	C21.6,11.9,21.6,36.8,21.6,36.8z"/>
</svg>
