<?xml version="1.0" encoding="utf-8"?>
<!-- Generator: Adobe Illustrator 26.3.1, SVG Export Plug-In . SVG Version: 6.00 Build 0)  -->
<svg version="1.1" id="Слой_1" xmlns="http://www.w3.org/2000/svg" xmlns:xlink="http://www.w3.org/1999/xlink" x="0px" y="0px"
	 viewBox="0 0 48 48" style="enable-background:new 0 0 48 48;" xml:space="preserve">
<path d="M35.4,40.5c1.4,0,2.6-0.5,3.6-1.5s1.5-2.2,1.5-3.6S40,32.8,39,31.8s-2.2-1.5-3.6-1.5c-1.4,0-2.6,0.5-3.6,1.5
	c-1,1-1.5,2.2-1.5,3.6s0.5,2.6,1.5,3.6C32.8,40,34,40.5,35.4,40.5z M35.4,42c-1.8,0-3.4-0.6-4.7-1.9c-1.3-1.3-1.9-2.8-1.9-4.7
	c0-1.8,0.6-3.4,1.9-4.7c1.3-1.3,2.9-2,4.7-2s3.4,0.7,4.7,2s1.9,2.9,1.9,4.7s-0.6,3.4-1.9,4.7C38.8,41.4,37.2,42,35.4,42z M30.2,15.5
	c-0.6,0-1.2-0.2-1.6-0.6c-0.4-0.4-0.6-1-0.6-1.6s0.2-1.2,0.6-1.6c0.4-0.4,1-0.6,1.6-0.6s1.1,0.2,1.6,0.6c0.4,0.4,0.6,1,0.6,1.6
	s-0.2,1.1-0.6,1.6C31.3,15.3,30.8,15.5,30.2,15.5z M23.2,37.2v-7.3l-4.8-4.1c-0.6-0.5-0.9-1.1-0.9-1.9s0.3-1.5,0.9-2l4.1-4.2
	c0.5-0.5,1.2-0.8,1.9-0.8c0.8,0,1.4,0.3,2,0.8l1,1.2c1.4,1.4,2.8,2.4,4.1,2.9s2.6,0.8,3.9,0.8v1.5c-1.6,0-3.2-0.3-4.8-1
	s-2.9-1.6-4-2.8l-0.8-0.9l-5.5,5.5l4.4,4.3v8C24.7,37.2,23.2,37.2,23.2,37.2z M12.6,40.5c1.4,0,2.6-0.5,3.6-1.5s1.5-2.2,1.5-3.6
	c0-1.4-0.5-2.6-1.5-3.6s-2.2-1.5-3.6-1.5S10,30.8,9,31.8c-1,1-1.5,2.2-1.5,3.6S8,38,9,39S11.2,40.5,12.6,40.5z M9.2,15.1l5.7-5.7
	l-1-0.9l-4.7,4.7l-2-1.9l-0.9,0.9C6.3,12.1,9.2,15.1,9.2,15.1z M12.6,42c-1.8,0-3.4-0.6-4.7-1.9C6.6,38.8,6,37.3,6,35.4
	c0-1.8,0.6-3.4,1.9-4.7s2.8-2,4.7-2c1.8,0,3.4,0.7,4.7,2s1.9,2.9,1.9,4.7s-0.6,3.4-1.9,4.7S14.4,42,12.6,42z M10.6,20.5
	c-2-0.5-3.6-1.6-4.8-3.2C4.6,15.6,4,13.7,4,11.5v-5L10.5,4L17,6.5v5c0,2.2-0.6,4.1-1.7,5.7C14.2,18.9,12.6,20,10.6,20.5z"/>
</svg>
