<?xml version="1.0" encoding="utf-8"?>
<!-- Generator: Adobe Illustrator 26.3.1, SVG Export Plug-In . SVG Version: 6.00 Build 0)  -->
<svg version="1.1" id="Слой_1" xmlns="http://www.w3.org/2000/svg" xmlns:xlink="http://www.w3.org/1999/xlink" x="0px" y="0px"
	 viewBox="0 0 48 48" style="enable-background:new 0 0 48 48;" xml:space="preserve">
<path d="M11.8,41v-1.5H22V33h-1.3c-2.5,0-4.6-0.9-6.3-2.6c-1.7-1.7-2.6-3.8-2.6-6.3c0-1.8,0.5-3.5,1.6-5s2.5-2.6,4.3-3.2
	c0-1.5,0.6-2.6,1.8-3.4c1.2-0.8,2.4-1,3.8-0.5L22,8.4l2-0.7l-0.7-1.9L25.4,5l0.7,1.9l1.8-0.6l5,13.4L31,20.4l0.7,1.9l-2,0.8L29,21.2
	L27,22l-1.3-3.7c-0.4,0.6-1,1.1-1.6,1.4s-1.3,0.5-2.1,0.5c-0.9,0-1.7-0.2-2.4-0.8c-0.7-0.5-1.2-1.2-1.6-2.1
	c-1.4,0.6-2.5,1.5-3.3,2.7s-1.2,2.6-1.2,4.1c0,2,0.7,3.8,2.1,5.2s3.1,2.1,5.2,2.1h15.6v1.5H23.9v6.5h12.3V41H11.8z M27.8,19.9l3-1.1
	l-4-10.6l-3,1L27.8,19.9z M21.9,18.6c0.8,0,1.4-0.3,1.9-0.8s0.8-1.1,0.8-1.9c0-0.8-0.3-1.4-0.8-1.9s-1.2-0.8-1.9-0.8
	S20.5,13.5,20,14s-0.8,1.2-0.8,1.9c0,0.8,0.3,1.4,0.8,1.9C20.5,18.3,21.1,18.6,21.9,18.6z"/>
</svg>
