<?xml version="1.0" encoding="utf-8"?>
<!-- Generator: Adobe Illustrator 26.3.1, SVG Export Plug-In . SVG Version: 6.00 Build 0)  -->
<svg version="1.1" id="Слой_1" xmlns="http://www.w3.org/2000/svg" xmlns:xlink="http://www.w3.org/1999/xlink" x="0px" y="0px"
	 viewBox="0 0 48 48" style="enable-background:new 0 0 48 48;" xml:space="preserve">
<path d="M15.2,42c-0.4,0-0.8-0.2-1.1-0.5s-0.5-0.7-0.5-1.1V38c0-1.3,0.3-2.5,1-3.7s1.7-2.1,3.1-2.9L16,21h-3.8c-0.8,0-1.4-0.3-2-0.8
	c-0.5-0.5-0.8-1.2-0.8-2v-7.5c0-0.8,0.3-1.4,0.8-2c0.5-0.5,1.2-0.8,2-0.8h7.5V6.5h8.1V8H34l-3.9,23.5c1.4,0.8,2.5,1.8,3.1,2.9
	c0.7,1.2,1,2.4,1,3.7v2.4c0,0.4-0.2,0.8-0.5,1.1s-0.7,0.5-1.1,0.5C32.8,42,15.2,42,15.2,42z M15.8,19.5l-1.6-10h-1.9
	c-0.3,0-0.6,0.1-0.8,0.4s-0.4,0.5-0.4,0.8v7.5c0,0.3,0.1,0.6,0.4,0.8c0.3,0.3,0.5,0.4,0.8,0.4h3.5V19.5z M24,37.5
	c0.4,0,0.8-0.1,1.1-0.4c0.3-0.3,0.4-0.7,0.4-1.1c0-0.4-0.1-0.8-0.4-1.1s-0.7-0.4-1.1-0.4s-0.8,0.1-1.1,0.4s-0.4,0.7-0.4,1.1
	s0.1,0.8,0.4,1.1S23.6,37.5,24,37.5z M19.2,30.5h9.6l3.5-20.9H15.7L19.2,30.5z M15.2,40.5h17.7v-2.4c0-1.7-0.6-3.2-1.9-4.3
	c-1.2-1.2-2.8-1.8-4.6-1.8h-4.8c-1.8,0-3.3,0.6-4.6,1.8c-1.2,1.2-1.9,2.6-1.9,4.3C15.2,38.1,15.2,40.5,15.2,40.5z"/>
</svg>
