<?xml version="1.0" encoding="utf-8"?>
<!-- Generator: Adobe Illustrator 26.3.1, SVG Export Plug-In . SVG Version: 6.00 Build 0)  -->
<svg version="1.1" id="Слой_1" xmlns="http://www.w3.org/2000/svg" xmlns:xlink="http://www.w3.org/1999/xlink" x="0px" y="0px"
	 viewBox="0 0 48 48" style="enable-background:new 0 0 48 48;" xml:space="preserve">
<path d="M24,42c-4,0-7.3-1.4-10-4.1c-2.7-2.8-4-6.2-4-10.3c0-2.9,1.2-6,3.5-9.5S19.3,10.8,24,6.6c4.7,4.2,8.2,8,10.5,11.5
	s3.5,6.7,3.5,9.5c0,4.1-1.3,7.5-4,10.3C31.3,40.6,28,42,24,42z M24,40.5c3.6,0,6.5-1.2,8.9-3.7c2.4-2.4,3.5-5.5,3.5-9.2
	c0-2.5-1.1-5.4-3.2-8.6S28,12.4,23.9,8.7c-4.1,3.7-7.2,7.1-9.3,10.3s-3.2,6.1-3.2,8.6c0,3.7,1.2,6.8,3.5,9.2
	C17.5,39.2,20.4,40.5,24,40.5z M19,34.5h10V33H19V34.5z M23.2,29h1.5v-4.2H29v-1.5h-4.2V19h-1.5v4.2H19v1.5h4.2V29z"/>
</svg>
