<?xml version="1.0" encoding="utf-8"?>
<!-- Generator: Adobe Illustrator 26.3.1, SVG Export Plug-In . SVG Version: 6.00 Build 0)  -->
<svg version="1.1" id="Слой_1" xmlns="http://www.w3.org/2000/svg" xmlns:xlink="http://www.w3.org/1999/xlink" x="0px" y="0px"
	 viewBox="0 0 48 48" style="enable-background:new 0 0 48 48;" xml:space="preserve">
<path d="M6,18.9v-6.2c0-0.8,0.3-1.4,0.8-2C7.3,10.3,8,10,8.8,10h30.5c0.8,0,1.4,0.3,2,0.8c0.5,0.5,0.8,1.2,0.8,2v11.9h-1.5V12.8
	c0-0.3-0.1-0.6-0.4-0.8c-0.3-0.3-0.5-0.4-0.8-0.4H8.8c-0.3,0-0.6,0.1-0.8,0.4c-0.3,0.3-0.4,0.5-0.4,0.8V19H6V18.9z M14,32.8
	c-0.2,0-0.3,0-0.4-0.1c-0.1-0.1-0.2-0.2-0.3-0.3l-3.7-7.6H6v-1.5h4c0.1,0,0.3,0,0.4,0.1c0.1,0.1,0.2,0.2,0.3,0.3l3.4,6.6l7.3-14.6
	c0.1-0.1,0.1-0.2,0.3-0.2c0.1-0.1,0.3-0.1,0.4-0.1s0.3,0,0.4,0.1s0.2,0.1,0.3,0.2l4.3,8.6c-0.2,0.1-0.4,0.3-0.6,0.5
	s-0.4,0.4-0.6,0.6L22,17.7l-7.3,14.6c-0.1,0.1-0.2,0.2-0.3,0.3C14.3,32.7,14.1,32.8,14,32.8z M22.7,38H8.8c-0.8,0-1.4-0.3-2-0.8
	C6.3,36.7,6,36,6,35.2V29h1.5v6.2c0,0.3,0.1,0.6,0.4,0.8c0.3,0.3,0.5,0.4,0.8,0.4h13.4c0.1,0.3,0.2,0.5,0.2,0.8
	C22.5,37.5,22.6,37.8,22.7,38z M34,41.8c-2.2,0-4-0.8-5.5-2.3s-2.3-3.3-2.3-5.5s0.8-4,2.3-5.5s3.3-2.3,5.5-2.3s4,0.8,5.5,2.3
	s2.3,3.3,2.3,5.5s-0.8,4-2.3,5.5S36.2,41.8,34,41.8z M34.4,34.7l3.9-3.9l-1.1-1.1l-3.9,3.9L34.4,34.7z"/>
</svg>
