<?xml version="1.0" encoding="utf-8"?>
<!-- Generator: Adobe Illustrator 26.3.1, SVG Export Plug-In . SVG Version: 6.00 Build 0)  -->
<svg version="1.1" id="Слой_1" xmlns="http://www.w3.org/2000/svg" xmlns:xlink="http://www.w3.org/1999/xlink" x="0px" y="0px"
	 viewBox="0 0 48 48" style="enable-background:new 0 0 48 48;" xml:space="preserve">
<path d="M11.7,31.5c0.6,0,1.1-0.2,1.5-0.6s0.6-0.9,0.6-1.5s-0.2-1.1-0.6-1.5c-0.4-0.4-0.9-0.6-1.5-0.6s-1.1,0.2-1.5,0.6
	s-0.6,0.9-0.6,1.5s0.2,1.1,0.6,1.5C10.7,31.3,11.2,31.5,11.7,31.5z M30.8,31.5c0.6,0,1.1-0.2,1.5-0.6c0.4-0.4,0.6-0.9,0.6-1.5
	s-0.2-1.1-0.6-1.5c-0.4-0.4-0.9-0.6-1.5-0.6s-1.1,0.2-1.5,0.6s-0.6,0.9-0.6,1.5s0.2,1.1,0.6,1.5C29.7,31.3,30.2,31.5,30.8,31.5z
	 M6,40c-0.2,0-0.4-0.1-0.5-0.2c-0.1-0.1-0.2-0.3-0.2-0.5v-15L9.2,13c0.1-0.3,0.3-0.6,0.6-0.7c0.3-0.2,0.6-0.3,0.9-0.3h18.6v1.5H10.6
	l-3.2,9.4h21.8v1.5H6.8v9.9h28.9v-9.9h1.5v14.8c0,0.2-0.1,0.4-0.2,0.5c-0.1,0.1-0.3,0.2-0.5,0.2l0,0c-0.2,0-0.4-0.1-0.6-0.2
	c-0.2-0.1-0.2-0.3-0.2-0.5v-3.3H6.8v3.3c0,0.2-0.1,0.4-0.2,0.5C6.4,39.9,6.2,40,6,40z M36.9,21.8v-8.2l-5,5l-0.9-1l5.6-5.6L31,6.4
	l0.9-0.9l5,5V2.2h0.4l5.5,5.5L38.5,12l4.3,4.3l-5.5,5.5H36.9z M38.3,10.1l2.4-2.4l-2.4-2.4V10.1z M38.3,18.7l2.4-2.4l-2.4-2.4
	C38.3,13.9,38.3,18.7,38.3,18.7z M6.8,24.5v9.9V24.5z"/>
</svg>
