<?xml version="1.0" encoding="utf-8"?>
<!-- Generator: Adobe Illustrator 26.3.1, SVG Export Plug-In . SVG Version: 6.00 Build 0)  -->
<svg version="1.1" id="Слой_1" xmlns="http://www.w3.org/2000/svg" xmlns:xlink="http://www.w3.org/1999/xlink" x="0px" y="0px"
	 viewBox="0 0 48 48" style="enable-background:new 0 0 48 48;" xml:space="preserve">
<path d="M16.4,38.1c0.8,0.5,1.6,1,2.4,1.3c0.9,0.4,1.7,0.6,2.7,0.8v1.6c-0.9-0.1-1.7-0.4-2.6-0.6c-0.9-0.3-1.7-0.6-2.5-1
	c-1.2,0.6-2.4,1.1-3.6,1.4c-1.2,0.3-2.4,0.5-3.6,0.5H8v-1.5h1.1c1.3,0,2.5-0.2,3.8-0.6C14.2,39.4,15.3,38.9,16.4,38.1z M20.2,6h7.4
	v4.5h6.8c0.8,0,1.4,0.3,2,0.8c0.5,0.5,0.8,1.2,0.8,2V19c-0.2,0-0.5-0.1-0.7-0.1c-0.3,0-0.5,0-0.8,0v-5.7c0-0.3-0.1-0.6-0.3-0.8
	s-0.5-0.3-0.8-0.3H13.3c-0.3,0-0.6,0.1-0.8,0.3s-0.3,0.5-0.3,0.8v9.3l11.7-3.7l3,1c-0.2,0-0.3,0.1-0.5,0.1s-0.3,0-0.5-0.1L9,25.1
	l2.2,8.2c0.8-0.4,1.5-0.9,2.1-1.5c0.6-0.6,1.2-1.3,1.8-2l1.2-1.4c0.7,0.8,1.5,1.5,2.4,2.3c0.8,0.8,1.7,1.5,2.7,2.2v2
	c-0.7-0.2-1.5-0.7-2.3-1.3s-1.7-1.5-2.8-2.7c-1.2,1.3-2.2,2.3-3.2,3s-2,1.2-3.1,1.6l-2.7-10c-0.1-0.3,0-0.7,0.1-1
	c0.2-0.3,0.4-0.6,0.8-0.7l2.4-0.8v-9.7c0-0.8,0.3-1.4,0.8-2c0.5-0.5,1.2-0.8,2-0.8h6.8C20.2,10.5,20.2,6,20.2,6z M28.3,42
	c-0.2,0-0.4-0.1-0.6-0.2c-0.2-0.2-0.2-0.4-0.2-0.6v-2c-0.5-0.3-0.9-0.7-1.2-1.2c-0.3-0.5-0.4-1.1-0.4-1.7v-8.8c0-1.5,0.7-2.5,2-3.2
	s3.4-1,6.2-1c2.9,0,5,0.3,6.2,1s1.9,1.7,1.9,3.3v8.8c0,0.6-0.1,1.1-0.4,1.7c-0.3,0.5-0.7,0.9-1.2,1.2v2c0,0.2-0.1,0.4-0.2,0.6
	c-0.2,0.2-0.4,0.2-0.6,0.2h-1.2c-0.2,0-0.4-0.1-0.6-0.2c-0.2-0.2-0.2-0.4-0.2-0.6v-1.5h-7v1.5c0,0.2-0.1,0.4-0.3,0.6
	c-0.5,0-0.7,0.1-1,0.1H28.3z M30.2,36.6c0.4,0,0.7-0.1,1-0.4c0.3-0.3,0.4-0.6,0.4-1s-0.1-0.7-0.4-1s-0.6-0.4-1-0.4s-0.7,0.1-1,0.4
	c-0.3,0.3-0.4,0.6-0.4,1s0.1,0.7,0.4,1C29.5,36.4,29.9,36.6,30.2,36.6z M37.5,36.6c0.4,0,0.7-0.1,1-0.4c0.3-0.3,0.4-0.6,0.4-1
	s-0.1-0.7-0.4-1s-0.6-0.4-1-0.4s-0.7,0.1-1,0.4c-0.3,0.3-0.4,0.6-0.4,1s0.1,0.7,0.4,1C36.8,36.4,37.1,36.6,37.5,36.6z M27.5,30.6
	h12.7v-3.2H27.5V30.6z"/>
</svg>
