<?xml version="1.0" encoding="utf-8"?>
<!-- Generator: Adobe Illustrator 26.3.1, SVG Export Plug-In . SVG Version: 6.00 Build 0)  -->
<svg version="1.1" id="Слой_1" xmlns="http://www.w3.org/2000/svg" xmlns:xlink="http://www.w3.org/1999/xlink" x="0px" y="0px"
	 viewBox="0 0 48 48" style="enable-background:new 0 0 48 48;" xml:space="preserve">
<path d="M40,30.5h-2v6.2c0,0.5-0.1,1-0.3,1.4s-0.5,0.7-0.9,1c-0.4,0.2-0.9,0.4-1.3,0.4c-0.5,0-0.9-0.1-1.4-0.3L8.6,26.5
	c-0.5-0.2-0.9-0.6-1.1-1.1C7.2,25,7.1,24.5,7.1,24s0.1-1,0.4-1.4c0.2-0.4,0.6-0.8,1.1-1L34,8.9c0.5-0.2,0.9-0.3,1.4-0.3
	s0.9,0.2,1.3,0.4c0.4,0.2,0.7,0.5,0.9,1c0.2,0.4,0.3,0.9,0.3,1.4v6.1h2V19h-5.5v-1.5h2v-6c0-0.5-0.2-0.8-0.6-1.1
	c-0.4-0.3-0.8-0.3-1.2,0l-9.2,4.5c1,1.3,1.8,2.8,2.4,4.3c0.6,1.5,0.9,3.1,0.9,4.8c0,1.7-0.3,3.3-0.9,4.9c-0.6,1.5-1.4,3-2.4,4.3
	l9.2,4.6c0.4,0.2,0.8,0.2,1.2-0.1c0.4-0.2,0.6-0.6,0.6-1.1v-6.1h-1.9V29H40V30.5z M24,32.5c0.9-1.2,1.7-2.6,2.3-4
	c0.6-1.5,0.9-3,0.9-4.5s-0.3-3-0.9-4.4S25,16.9,24,15.7L9.3,22.9c-0.5,0.2-0.7,0.6-0.7,1.1s0.2,0.9,0.7,1.1L24,32.5z"/>
</svg>
