<?xml version="1.0" encoding="utf-8"?>
<!-- Generator: Adobe Illustrator 26.3.1, SVG Export Plug-In . SVG Version: 6.00 Build 0)  -->
<svg version="1.1" id="Слой_1" xmlns="http://www.w3.org/2000/svg" xmlns:xlink="http://www.w3.org/1999/xlink" x="0px" y="0px"
	 viewBox="0 0 48 48" style="enable-background:new 0 0 48 48;" xml:space="preserve">
<path d="M17.9,43.1c-3.6,0-6.7-1.3-9.2-3.8s-3.8-5.6-3.8-9.2c0-3.7,1.3-6.7,3.9-9.2s5.8-3.7,9.4-3.7c0.3,0,0.5,0,0.7,0
	s0.5,0,0.7,0.1l1.4-2.4c0.3-0.5,0.7-0.8,1.3-1c0.6-0.1,1.1-0.1,1.6,0.2l1.8,1l0.2-0.4c0.7-1.1,1.6-1.8,2.9-2.2
	c1.2-0.3,2.5-0.2,3.6,0.5l0.6,0.4l-0.8,1.3l-0.6-0.4c-0.8-0.5-1.6-0.6-2.5-0.4c-0.9,0.2-1.5,0.7-2,1.5L27,15.8l1.9,1.1
	c0.5,0.3,0.8,0.7,1,1.3c0.1,0.6,0.1,1.1-0.2,1.6l-1.4,2.5c0.8,1.3,1.4,2.6,1.9,3.9c0.5,1.4,0.7,2.8,0.7,4.3c0,3.6-1.3,6.6-3.8,9.1
	C24.6,41.9,21.5,43.1,17.9,43.1z M17.9,41.6c3.2,0,5.9-1.1,8.1-3.4c2.2-2.2,3.4-4.9,3.4-8.1c0-1.1-0.1-2.1-0.4-3.2
	c-0.3-1-0.7-2-1.3-3l-1.1-1.8l1.7-3c0.1-0.2,0.2-0.4,0.1-0.7c-0.1-0.3-0.2-0.5-0.4-0.6l-4.4-2.5c-0.2-0.1-0.5-0.2-0.7-0.1
	c-0.3,0.1-0.4,0.2-0.5,0.4l-1.7,2.9H18c-3.2,0-6,1.1-8.2,3.4c-2.3,2.2-3.4,4.9-3.4,8c0,3.2,1.1,5.9,3.4,8.2
	C12,40.5,14.7,41.6,17.9,41.6z M38.5,17.1v-1.5H42v1.5H38.5z M29.5,7.7V4.1H31v3.5L29.5,7.7L29.5,7.7z M37.9,10.1l-1-1.1l2.5-2.6
	l1.1,1.1L37.9,10.1z"/>
</svg>
