<?xml version="1.0" encoding="utf-8"?>
<!-- Generator: Adobe Illustrator 26.3.1, SVG Export Plug-In . SVG Version: 6.00 Build 0)  -->
<svg version="1.1" id="Слой_1" xmlns="http://www.w3.org/2000/svg" xmlns:xlink="http://www.w3.org/1999/xlink" x="0px" y="0px"
	 viewBox="0 0 48 48" style="enable-background:new 0 0 48 48;" xml:space="preserve">
<path d="M9.5,42c-0.4,0-0.8-0.1-1.1-0.4C8.1,41.3,8,40.9,8,40.5V15.1c0-0.4,0.1-0.7,0.4-1.1c0.2-0.3,0.5-0.6,0.9-0.6l16.3-4.6
	c0.4-0.1,0.8-0.1,1.2,0c0.4,0.1,0.5,0.5,0.5,1v3.7h3.1c0.4,0,0.8,0.1,1.1,0.4c0.3,0.3,0.4,0.7,0.4,1.1v6.9h-1.5V15H9.5v25.5h14.9
	L26,42H9.5z M14.6,13.5h11.1v-3.2L14.6,13.5z M33.5,41.2c-2.2,0-4.1-0.8-5.6-2.3s-2.3-3.4-2.3-5.6c0-2.2,0.8-4.1,2.3-5.6
	s3.4-2.3,5.6-2.3s4.1,0.8,5.6,2.3s2.3,3.4,2.3,5.6s-0.8,4.1-2.3,5.6S35.7,41.2,33.5,41.2z M31.6,36.9l5.1-3.7l-5.1-3.7V36.9z
	 M9.5,40.5V15V40.5z"/>
</svg>
