<?xml version="1.0" encoding="utf-8"?>
<!-- Generator: Adobe Illustrator 26.3.1, SVG Export Plug-In . SVG Version: 6.00 Build 0)  -->
<svg version="1.1" id="Слой_1" xmlns="http://www.w3.org/2000/svg" xmlns:xlink="http://www.w3.org/1999/xlink" x="0px" y="0px"
	 viewBox="0 0 48 48" style="enable-background:new 0 0 48 48;" xml:space="preserve">
<path d="M9.5,34.3c0.4-0.3,0.8-0.6,1.3-0.8s1-0.3,1.6-0.3h2.3V7.5h-2.3c-0.8,0-1.5,0.3-2.1,0.8c-0.6,0.6-0.8,1.3-0.8,2.1
	C9.5,10.4,9.5,34.3,9.5,34.3z M12.5,42c-1.2,0-2.3-0.4-3.2-1.3C8.4,39.9,8,38.8,8,37.6V10.5c0-1.2,0.4-2.3,1.3-3.2
	C10.2,6.4,11.2,6,12.5,6h14.8v1.5h-11v25.7h14.9v-8.5h1.5v10H12.5c-0.8,0-1.5,0.3-2.1,0.8s-0.8,1.2-0.8,2s0.3,1.5,0.8,2
	c0.6,0.5,1.3,0.8,2.1,0.8h26V22.8H40V42H12.5z M9.5,34.3V7.5V34.3z M35,22.8c0-2.7,1-5,2.9-6.9s4.2-2.9,6.9-2.9c-2.7,0-5-1-6.9-2.9
	S35,5.9,35,3.2c0,2.7-1,5-2.9,6.9C30.2,12,27.9,13,25.2,13c2.7,0,5,1,6.9,2.9C34,17.8,35,20.1,35,22.8z"/>
</svg>
