<?xml version="1.0" encoding="utf-8"?>
<!-- Generator: Adobe Illustrator 26.3.1, SVG Export Plug-In . SVG Version: 6.00 Build 0)  -->
<svg version="1.1" id="Слой_1" xmlns="http://www.w3.org/2000/svg" xmlns:xlink="http://www.w3.org/1999/xlink" x="0px" y="0px"
	 viewBox="0 0 48 48" style="enable-background:new 0 0 48 48;" xml:space="preserve">
<path d="M9,43V13.8c0-0.8,0.3-1.4,0.8-2c0.5-0.5,1.2-0.8,2-0.8h19.4c0.8,0,1.4,0.3,2,0.8c0.5,0.5,0.8,1.2,0.8,2V43l-12.5-5.3L9,43z
	 M10.5,40.6l10.9-4.7l10.9,4.7V13.8c0-0.3-0.1-0.6-0.4-0.8c-0.3-0.3-0.5-0.4-0.8-0.4H11.8c-0.3,0-0.6,0.1-0.8,0.4
	c-0.3,0.3-0.4,0.5-0.4,0.8C10.5,13.8,10.5,40.6,10.5,40.6z M37.5,37.7V8.8c0-0.3-0.1-0.6-0.4-0.8c-0.3-0.3-0.5-0.4-0.8-0.4H14.8V6
	h21.4c0.8,0,1.4,0.3,2,0.8C38.7,7.3,39,8,39,8.8v28.9H37.5z M10.5,12.6h21.8C32.4,12.6,10.5,12.6,10.5,12.6z"/>
</svg>
