<?xml version="1.0" encoding="utf-8"?>
<!-- Generator: Adobe Illustrator 26.3.1, SVG Export Plug-In . SVG Version: 6.00 Build 0)  -->
<svg version="1.1" id="Слой_1" xmlns="http://www.w3.org/2000/svg" xmlns:xlink="http://www.w3.org/1999/xlink" x="0px" y="0px"
	 viewBox="0 0 48 48" style="enable-background:new 0 0 48 48;" xml:space="preserve">
<path d="M20.1,26.9l3.9-2.3l3.9,2.3l-1-4.4l3.4-3l-4.5-0.4l-1.8-4l-1.8,4.1l-4.5,0.4l3.4,3C21.2,22.5,20.1,26.9,20.1,26.9z M12,39
	V10.6c0-0.7,0.3-1.4,0.8-1.9s1.2-0.8,2-0.8h18.5c0.8,0,1.4,0.3,2,0.8c0.5,0.5,0.8,1.2,0.8,1.9V39l-12-5.2L12,39z M13.5,36.6L24,32.1
	l10.5,4.5v-26c0-0.3-0.1-0.6-0.4-0.8c-0.3-0.3-0.5-0.4-0.8-0.4H14.8c-0.3,0-0.6,0.1-0.8,0.4c-0.3,0.3-0.4,0.5-0.4,0.8
	C13.5,10.6,13.5,36.6,13.5,36.6z M13.5,9.4h20.9H13.5z"/>
</svg>
