<?xml version="1.0" encoding="utf-8"?>
<!-- Generator: Adobe Illustrator 26.3.1, SVG Export Plug-In . SVG Version: 6.00 Build 0)  -->
<svg version="1.1" id="Слой_1" xmlns="http://www.w3.org/2000/svg" xmlns:xlink="http://www.w3.org/1999/xlink" x="0px" y="0px"
	 viewBox="0 0 48 48" style="enable-background:new 0 0 48 48;" xml:space="preserve">
<path d="M34.3,17.9l-4.1-4l1.1-1.1l3,3l7.2-7.3l1.1,1.1L34.3,17.9z M12,39V10.6c0-0.7,0.3-1.4,0.8-1.9s1.2-0.8,2-0.8h11.9v1.5H14.8
	c-0.3,0-0.6,0.1-0.8,0.4c-0.3,0.3-0.4,0.5-0.4,0.8v26L24,32.1l10.5,4.5V21.4H36V39l-12-5.2L12,39z M13.5,9.4h13.2H13.5z"/>
</svg>
