<?xml version="1.0" encoding="utf-8"?>
<!-- Generator: Adobe Illustrator 26.3.1, SVG Export Plug-In . SVG Version: 6.00 Build 0)  -->
<svg version="1.1" id="Слой_1" xmlns="http://www.w3.org/2000/svg" xmlns:xlink="http://www.w3.org/1999/xlink" x="0px" y="0px"
	 viewBox="0 0 48 48" style="enable-background:new 0 0 48 48;" xml:space="preserve">
<path d="M24,27.5c1.5-1.3,2.6-2.4,3.5-3.3s1.6-1.6,2-2.2c0.5-0.6,0.8-1.1,1-1.6s0.2-1,0.2-1.5c0-1-0.4-1.9-1.1-2.6
	c-0.7-0.7-1.6-1.1-2.6-1.1c-0.6,0-1.2,0.1-1.7,0.4c-0.5,0.2-1,0.6-1.3,1c-0.3-0.4-0.8-0.8-1.3-1s-1.1-0.4-1.7-0.4
	c-1,0-1.9,0.4-2.6,1.1s-1.1,1.6-1.1,2.6c0,0.5,0.1,1,0.2,1.5s0.5,1,1,1.6s1.2,1.3,2.1,2.2C21.3,25,22.5,26.1,24,27.5z M12,39V10.6
	c0-0.7,0.3-1.4,0.8-1.9s1.2-0.8,2-0.8h18.5c0.8,0,1.4,0.3,2,0.8c0.5,0.5,0.8,1.2,0.8,1.9V39l-12-5.2L12,39z M13.5,36.6L24,32.1
	l10.5,4.5v-26c0-0.3-0.1-0.6-0.4-0.8c-0.3-0.3-0.5-0.4-0.8-0.4H14.8c-0.3,0-0.6,0.1-0.8,0.4c-0.3,0.3-0.4,0.5-0.4,0.8
	C13.5,10.6,13.5,36.6,13.5,36.6z M13.5,9.4h20.9H13.5z"/>
</svg>
