<?xml version="1.0" encoding="utf-8"?>
<!-- Generator: Adobe Illustrator 26.3.1, SVG Export Plug-In . SVG Version: 6.00 Build 0)  -->
<svg version="1.1" id="Слой_1" xmlns="http://www.w3.org/2000/svg" xmlns:xlink="http://www.w3.org/1999/xlink" x="0px" y="0px"
	 viewBox="0 0 48 48" style="enable-background:new 0 0 48 48;" xml:space="preserve">
<path d="M15,42c-1.4,0-2.6-0.5-3.5-1.5c-1-1-1.5-2.2-1.5-3.5V11.8c0-1.6,0.6-2.9,1.7-4.1C12.8,6.6,14.2,6,15.8,6H38v27.5
	c-0.9,0-1.7,0.3-2.3,1s-0.9,1.5-0.9,2.4c0,1,0.3,1.8,0.9,2.5s1.4,1,2.3,1V42H15z M15,40.5h19.6c-0.4-0.4-0.8-1-1-1.6
	s-0.3-1.2-0.3-1.9s0.1-1.3,0.3-1.9c0.2-0.6,0.6-1.1,1-1.6H15c-1,0-1.8,0.3-2.4,1c-0.7,0.7-1,1.5-1,2.5s0.3,1.8,1,2.5
	C13.2,40.1,14,40.5,15,40.5z M11.5,33.3c0.4-0.4,1-0.8,1.5-1c0.6-0.2,1.2-0.3,1.9-0.3h21.5V7.5H15.8c-1.2,0-2.2,0.4-3,1.2
	s-1.2,1.8-1.2,3C11.5,11.8,11.5,33.3,11.5,33.3z M18.1,25.5h1.6l1.2-3.2H27l1.2,3.2h1.6l-4.9-13.1H23C23,12.5,18.1,25.5,18.1,25.5z
	 M21.5,20.9l2.5-6.7l0,0l2.5,6.7H21.5z M11.5,33.3v-25V33.3z"/>
</svg>
