<?xml version="1.0" encoding="utf-8"?>
<!-- Generator: Adobe Illustrator 26.3.1, SVG Export Plug-In . SVG Version: 6.00 Build 0)  -->
<svg version="1.1" id="Слой_1" xmlns="http://www.w3.org/2000/svg" xmlns:xlink="http://www.w3.org/1999/xlink" x="0px" y="0px"
	 viewBox="0 0 48 48" style="enable-background:new 0 0 48 48;" xml:space="preserve">
<path d="M15,42c-1.4,0-2.6-0.5-3.5-1.5c-1-1-1.5-2.2-1.5-3.5V11.8c0-1.6,0.6-2.9,1.7-4.1C12.8,6.6,14.2,6,15.8,6H38v27.5
	c-0.9,0-1.7,0.3-2.3,1s-0.9,1.5-0.9,2.4s0.3,1.7,0.9,2.4c0.6,0.7,1.4,1,2.3,1V42H15z M11.5,33.3c0.4-0.4,1-0.8,1.5-1
	c0.6-0.2,1.2-0.3,1.9-0.3h1.8V7.5h-1c-1.2,0-2.2,0.4-3,1.2s-1.2,1.8-1.2,3C11.5,11.8,11.5,33.3,11.5,33.3z M18.3,32h18.2V7.5H18.3
	V32z M11.5,33.3v-25V33.3z M15,40.5h19.6c-0.4-0.4-0.8-1-1-1.6s-0.3-1.2-0.3-1.9s0.1-1.3,0.3-1.9c0.2-0.6,0.6-1.1,1-1.6H15
	c-1,0-1.8,0.3-2.4,1c-0.7,0.7-1,1.5-1,2.5s0.3,1.8,1,2.5C13.2,40.1,14,40.5,15,40.5z"/>
</svg>
