<?xml version="1.0" encoding="utf-8"?>
<!-- Generator: Adobe Illustrator 26.3.1, SVG Export Plug-In . SVG Version: 6.00 Build 0)  -->
<svg version="1.1" id="Слой_1" xmlns="http://www.w3.org/2000/svg" xmlns:xlink="http://www.w3.org/1999/xlink" x="0px" y="0px"
	 viewBox="0 0 48 48" style="enable-background:new 0 0 48 48;" xml:space="preserve">
<path d="M21.8,28.7c0.3,0,0.6-0.1,0.8-0.3c0.2-0.2,0.3-0.5,0.3-0.8v-0.4H25v0.4c0,0.3,0.1,0.6,0.3,0.8c0.2,0.2,0.5,0.3,0.8,0.3
	s0.6-0.1,0.8-0.3c0.2-0.2,0.3-0.5,0.3-0.8v-0.4c0.5,0,0.9-0.2,1.2-0.5c0.3-0.3,0.5-0.7,0.5-1.2v-7c0-0.5-0.2-0.9-0.5-1.2
	c-0.3-0.3-0.7-0.5-1.2-0.5h-0.5v-2.3c0-0.5-0.2-0.9-0.5-1.2s-0.7-0.5-1.2-0.5h-2.4c-0.5,0-0.9,0.2-1.2,0.5c-0.3,0.3-0.5,0.7-0.5,1.2
	v2.3h-0.5c-0.5,0-0.9,0.2-1.2,0.5c-0.3,0.3-0.5,0.7-0.5,1.2v7c0,0.5,0.2,0.9,0.5,1.2c0.3,0.3,0.7,0.5,1.2,0.5v0.4
	c0,0.3,0.1,0.6,0.3,0.8C21.2,28.6,21.4,28.7,21.8,28.7z M22.6,16.8v-2.5h2.7v2.5H22.6z M12,39V10.6c0-0.7,0.3-1.4,0.8-1.9
	s1.2-0.8,2-0.8h18.5c0.8,0,1.4,0.3,2,0.8c0.5,0.5,0.8,1.2,0.8,1.9V39l-12-5.2L12,39z M13.5,36.6L24,32.1l10.5,4.5v-26
	c0-0.3-0.1-0.6-0.4-0.8c-0.3-0.3-0.5-0.4-0.8-0.4H14.8c-0.3,0-0.6,0.1-0.8,0.4c-0.3,0.3-0.4,0.5-0.4,0.8
	C13.5,10.6,13.5,36.6,13.5,36.6z M13.5,9.4h20.9H13.5z"/>
</svg>
