<?xml version="1.0" encoding="utf-8"?>
<!-- Generator: Adobe Illustrator 26.3.1, SVG Export Plug-In . SVG Version: 6.00 Build 0)  -->
<svg version="1.1" id="Слой_1" xmlns="http://www.w3.org/2000/svg" xmlns:xlink="http://www.w3.org/1999/xlink" x="0px" y="0px"
	 viewBox="0 0 48 48" style="enable-background:new 0 0 48 48;" xml:space="preserve">
<path d="M12.5,42c-1.2,0-2.3-0.4-3.2-1.3C8.4,39.9,8,38.8,8,37.6V10.5c0-1.2,0.4-2.3,1.3-3.2C10.2,6.4,11.2,6,12.5,6h20.3v28.8H12.5
	c-0.8,0-1.5,0.3-2.1,0.8s-0.8,1.2-0.8,2s0.3,1.5,0.8,2c0.6,0.5,1.3,0.8,2.1,0.8h26V10H40v32H12.5z M16.3,33.2h14.9V7.5H16.3V33.2z
	 M14.8,33.2V7.5h-2.3c-0.8,0-1.5,0.3-2.1,0.8c-0.6,0.6-0.8,1.3-0.8,2.1v23.8c0.4-0.3,0.8-0.6,1.3-0.8s1-0.3,1.6-0.3h2.3V33.2z
	 M9.5,7.5v26.7V7.5z"/>
</svg>
