<?xml version="1.0" encoding="utf-8"?>
<!-- Generator: Adobe Illustrator 26.3.1, SVG Export Plug-In . SVG Version: 6.00 Build 0)  -->
<svg version="1.1" id="Слой_1" xmlns="http://www.w3.org/2000/svg" xmlns:xlink="http://www.w3.org/1999/xlink" x="0px" y="0px"
	 viewBox="0 0 48 48" style="enable-background:new 0 0 48 48;" xml:space="preserve">
<path d="M8,40V8h1.5v32H8z M15.5,40v-2h2v2H15.5z M15.5,25v-2h2v2H15.5z M15.5,10V8h2v2H15.5z M23,40v-2h2v2H23z M23,32.5v-2h2v2H23
	z M23,25v-2h2v2H23z M23,17.5v-2h2v2H23z M23,10V8h2v2H23z M30.5,40v-2h2v2H30.5z M30.5,25v-2h2v2H30.5z M30.5,10V8h2v2H30.5z
	 M38,40v-2h2v2H38z M38,32.5v-2h2v2H38z M38,25v-2h2v2H38z M38,17.5v-2h2v2H38z M38,10V8h2v2H38z"/>
</svg>
