<?xml version="1.0" encoding="utf-8"?>
<!-- Generator: Adobe Illustrator 26.3.1, SVG Export Plug-In . SVG Version: 6.00 Build 0)  -->
<svg version="1.1" id="Слой_1" xmlns="http://www.w3.org/2000/svg" xmlns:xlink="http://www.w3.org/1999/xlink" x="0px" y="0px"
	 viewBox="0 0 48 48" style="enable-background:new 0 0 48 48;" xml:space="preserve">
<path d="M24,42c-0.2,0-0.5,0-0.7-0.1s-0.4-0.2-0.6-0.3L9.3,33.9c-0.4-0.2-0.7-0.6-1-1C8.1,32.5,8,32.1,8,31.6V16.4
	c0-0.5,0.1-0.9,0.3-1.3c0.2-0.4,0.5-0.7,1-1l13.4-7.8c0.2-0.1,0.4-0.2,0.6-0.3c0.2,0,0.4,0,0.7,0c0.2,0,0.4,0,0.7,0.1
	c0.2,0.1,0.4,0.2,0.7,0.3l13.4,7.8c0.4,0.2,0.7,0.6,1,1c0.2,0.4,0.3,0.8,0.3,1.3v15.2c0,0.5-0.1,0.9-0.3,1.3c-0.2,0.4-0.6,0.7-1,1
	l-13.4,7.8c-0.2,0.1-0.4,0.2-0.7,0.3C24.4,42,24.2,42,24,42z M17.5,30.5v-5.8h-8v6.7c0,0.2,0.1,0.4,0.2,0.6c0.1,0.2,0.3,0.3,0.5,0.5
	l13.1,7.6v-9.7h-5.8V30.5z M17.5,17.5h5.7V7.8l-13.1,7.6c-0.2,0.1-0.4,0.3-0.5,0.5c-0.1,0.2-0.2,0.4-0.2,0.6v6.7h8
	C17.5,23.2,17.5,17.5,17.5,17.5z M19,29h9.9V19H19V29z M30.5,30.5h-5.7v9.7l13.1-7.6c0.2-0.1,0.4-0.3,0.5-0.5s0.2-0.4,0.2-0.6v-6.7
	h-8C30.5,24.8,30.5,30.5,30.5,30.5z M30.5,17.5v5.8h8v-6.7c0-0.2-0.1-0.4-0.2-0.6c-0.1-0.2-0.3-0.3-0.5-0.5l-13-7.7v9.7H30.5z"/>
</svg>
