<?xml version="1.0" encoding="utf-8"?>
<!-- Generator: Adobe Illustrator 26.3.1, SVG Export Plug-In . SVG Version: 6.00 Build 0)  -->
<svg version="1.1" id="Слой_1" xmlns="http://www.w3.org/2000/svg" xmlns:xlink="http://www.w3.org/1999/xlink" x="0px" y="0px"
	 viewBox="0 0 48 48" style="enable-background:new 0 0 48 48;" xml:space="preserve">
<path d="M9.5,14.8v22.4c0,0.4,0.1,0.7,0.3,0.9s0.5,0.3,0.9,0.3h26.5c0.4,0,0.7-0.1,0.9-0.3s0.3-0.5,0.3-0.9V14.8H30v14.1l-6-3l-6,3
	V14.8H9.5z M10.8,40c-0.7,0-1.4-0.3-1.9-0.8S8,38,8,37.2V14.7c0-0.3,0.1-0.6,0.2-0.9c0.1-0.3,0.2-0.6,0.4-0.8l3.2-4
	c0.2-0.3,0.6-0.6,0.9-0.8C13.1,8.1,13.5,8,13.9,8h20c0.4,0,0.9,0.1,1.3,0.3c0.4,0.2,0.7,0.4,1,0.8l3.2,4.1c0.2,0.3,0.3,0.5,0.4,0.8
	c0.1,0.3,0.2,0.6,0.2,0.9v22.4c0,0.7-0.3,1.4-0.8,1.9c-0.6,0.5-1.2,0.8-2,0.8H10.8z M10.3,13.3h27.3L34.9,10
	c-0.1-0.1-0.3-0.2-0.4-0.3c-0.2-0.1-0.3-0.1-0.5-0.1H14c-0.2,0-0.4,0-0.5,0.1c-0.2,0-0.4,0.1-0.5,0.3L10.3,13.3z M19.5,14.8v11.6
	l4.5-2.2l4.5,2.2V14.8H19.5z M9.5,14.8h28.9H9.5z"/>
</svg>
