<?xml version="1.0" encoding="utf-8"?>
<!-- Generator: Adobe Illustrator 26.3.1, SVG Export Plug-In . SVG Version: 6.00 Build 0)  -->
<svg version="1.1" id="Слой_1" xmlns="http://www.w3.org/2000/svg" xmlns:xlink="http://www.w3.org/1999/xlink" x="0px" y="0px"
	 viewBox="0 0 48 48" style="enable-background:new 0 0 48 48;" xml:space="preserve">
<path d="M10.3,13.3h27.3L34.9,10c-0.1-0.1-0.3-0.2-0.4-0.3c-0.2-0.1-0.3-0.1-0.5-0.1H14c-0.2,0-0.4,0-0.5,0.1
	c-0.2,0-0.4,0.1-0.5,0.3L10.3,13.3z M19.5,26.4l4.5-2.2l4.5,2.2V14.8h-8.9v11.6H19.5z M10.8,40c-0.7,0-1.4-0.3-1.9-0.8S8,38,8,37.2
	V14.7c0-0.3,0.1-0.6,0.2-0.9c0.1-0.3,0.2-0.6,0.4-0.8l3.2-4c0.2-0.3,0.6-0.6,0.9-0.8C13.1,8.1,13.5,8,13.9,8h20
	c0.4,0,0.9,0.1,1.3,0.3c0.4,0.2,0.7,0.4,1,0.8l3.2,4.1c0.2,0.3,0.3,0.5,0.4,0.8c0.1,0.3,0.2,0.6,0.2,0.9v5.3c-0.3,0-0.6,0-0.8,0.1
	s-0.5,0.1-0.7,0.2v-5.6H30V28l-0.6,0.6L24,25.9l-6,3V14.8H9.5v22.4c0,0.4,0.1,0.7,0.3,0.9s0.5,0.3,0.9,0.3h13.4V40H10.8z M30,14.8
	h8.5H30z M9.5,14.8h19.8C29.4,14.8,9.5,14.8,9.5,14.8z M28.5,40v-4.4L39.1,25c0.2-0.2,0.4-0.3,0.6-0.4c0.2-0.1,0.4-0.1,0.6-0.1
	c0.2,0,0.4,0,0.7,0.1c0.2,0.1,0.4,0.2,0.6,0.4l1.8,1.9c0.2,0.2,0.3,0.4,0.4,0.6c0.1,0.2,0.1,0.4,0.1,0.6s0,0.4-0.1,0.6
	s-0.2,0.4-0.4,0.6L32.9,40H28.5z M42.2,28.1l-1.8-1.9L42.2,28.1z M30.2,38.2h1.9l6.9-6.9l-0.9-1l-0.9-1l-7,7
	C30.2,36.3,30.2,38.2,30.2,38.2z M38.1,30.3l-0.9-1l1.9,1.9L38.1,30.3z"/>
</svg>
