<?xml version="1.0" encoding="utf-8"?>
<!-- Generator: Adobe Illustrator 26.3.1, SVG Export Plug-In . SVG Version: 6.00 Build 0)  -->
<svg version="1.1" id="Слой_1" xmlns="http://www.w3.org/2000/svg" xmlns:xlink="http://www.w3.org/1999/xlink" x="0px" y="0px"
	 viewBox="0 0 48 48" style="enable-background:new 0 0 48 48;" xml:space="preserve">
<path d="M30,14.8h8.5H30z M9.5,14.8h19.3H27h0.8C27.9,14.8,9.5,14.8,9.5,14.8z M10.3,13.3h27.3L34.9,10c-0.1-0.1-0.3-0.2-0.4-0.3
	c-0.2-0.1-0.3-0.1-0.5-0.1H14c-0.2,0-0.4,0-0.5,0.1c-0.2,0-0.4,0.1-0.5,0.3L10.3,13.3z M19.5,26.4l4.5-2.2l4.5,2.2V14.8h-8.9v11.6
	H19.5z M28.8,40h-18c-0.7,0-1.4-0.3-1.9-0.8C8.3,38.6,8,38,8,37.2V14.7c0-0.3,0.1-0.6,0.2-0.9c0.1-0.3,0.2-0.6,0.4-0.8l3.2-4
	c0.2-0.3,0.6-0.6,0.9-0.8C13.1,8.1,13.5,8,14,8h20c0.4,0,0.9,0.1,1.3,0.3c0.4,0.2,0.7,0.4,1,0.8l3.2,4.1c0.2,0.3,0.3,0.5,0.5,0.9
	c0.1,0.3,0.1,0.6,0.1,0.9v8.4c-0.2-0.1-0.4-0.1-0.6-0.1c-0.2,0-0.4,0-0.7-0.1h-0.2v-8.3H30v11.9c-0.2,0.2-0.4,0.5-0.6,0.8
	s-0.4,0.6-0.5,0.8L24,25.9l-6,3V14.8H9.5v22.4c0,0.4,0.1,0.7,0.3,0.9s0.5,0.3,0.9,0.3h17.1c0.1,0.3,0.3,0.5,0.4,0.8
	C28.4,39.5,28.6,39.8,28.8,40z M37.5,41.1v-6h-6v-1.5h6v-6H39v6h6v1.5h-6v6H37.5z"/>
</svg>
