<?xml version="1.0" encoding="utf-8"?>
<!-- Generator: Adobe Illustrator 26.3.1, SVG Export Plug-In . SVG Version: 6.00 Build 0)  -->
<svg version="1.1" id="Слой_1" xmlns="http://www.w3.org/2000/svg" xmlns:xlink="http://www.w3.org/1999/xlink" x="0px" y="0px"
	 viewBox="0 0 48 48" style="enable-background:new 0 0 48 48;" xml:space="preserve">
<path d="M24,14.5c-0.7,0-1.3-0.2-1.8-0.7s-0.7-1.1-0.7-1.8s0.2-1.3,0.7-1.8s1.1-0.7,1.8-0.7c0.7,0,1.3,0.2,1.8,0.7s0.7,1.1,0.7,1.8
	s-0.2,1.3-0.7,1.8S24.7,14.5,24,14.5z M21.8,37.9v-9.2h-2v-9.3c0-0.6,0.2-1.1,0.7-1.6c0.4-0.4,1-0.7,1.6-0.7h4
	c0.6,0,1.1,0.2,1.6,0.7c0.4,0.4,0.7,1,0.7,1.6v9.3h-2v9.2C26.2,37.9,21.8,37.9,21.8,37.9z"/>
</svg>
