<?xml version="1.0" encoding="utf-8"?>
<!-- Generator: Adobe Illustrator 26.3.1, SVG Export Plug-In . SVG Version: 6.00 Build 0)  -->
<svg version="1.1" id="Слой_1" xmlns="http://www.w3.org/2000/svg" xmlns:xlink="http://www.w3.org/1999/xlink" x="0px" y="0px"
	 viewBox="0 0 48 48" style="enable-background:new 0 0 48 48;" xml:space="preserve">
<path d="M13.8,32.8h8.5v-1.5h-8.5C13.8,31.3,13.8,32.8,13.8,32.8z M32.7,32.8h1.5v-1.5h-1.5V32.8z M13.8,24.8h8.5v-1.5h-8.5
	C13.8,23.2,13.8,24.8,13.8,24.8z M32.7,24.8h1.5v-9.5h-1.5V24.8z M13.8,16.8h8.5v-1.5h-8.5C13.8,15.2,13.8,16.8,13.8,16.8z M8.6,40
	c-0.8,0-1.4-0.3-2-0.8c-0.5-0.5-0.8-1.2-0.8-2V10.8c0-0.8,0.3-1.4,0.8-2C7.2,8.3,7.8,8,8.6,8h30.8c0.8,0,1.4,0.3,2,0.8
	c0.5,0.5,0.8,1.2,0.8,2v26.5c0,0.8-0.3,1.4-0.8,2c-0.5,0.5-1.2,0.8-2,0.8L8.6,40L8.6,40z M8.6,38.5h30.8c0.3,0,0.6-0.1,0.8-0.4
	c0.3-0.3,0.4-0.5,0.4-0.8V10.8c0-0.3-0.1-0.6-0.4-0.8c-0.3-0.3-0.5-0.4-0.8-0.4H8.6C8.3,9.5,8,9.7,7.8,9.9c-0.3,0.3-0.4,0.5-0.4,0.8
	v26.5c0,0.3,0.1,0.6,0.4,0.8C8,38.3,8.3,38.5,8.6,38.5z M7.4,38.5v-29V38.5z"/>
</svg>
