<?xml version="1.0" encoding="utf-8"?>
<!-- Generator: Adobe Illustrator 26.3.1, SVG Export Plug-In . SVG Version: 6.00 Build 0)  -->
<svg version="1.1" id="Слой_1" xmlns="http://www.w3.org/2000/svg" xmlns:xlink="http://www.w3.org/1999/xlink" x="0px" y="0px"
	 viewBox="0 0 48 48" style="enable-background:new 0 0 48 48;" xml:space="preserve">
<path d="M25,32.3c2.3,0,4.3-0.8,5.9-2.4s2.4-3.6,2.4-5.9s-0.8-4.3-2.4-5.9s-3.6-2.4-5.9-2.4c-0.6,0-1.2,0.1-1.7,0.2
	s-1.1,0.3-1.7,0.6c1.5,0.7,2.7,1.7,3.5,3.1c0.9,1.3,1.3,2.8,1.3,4.5s-0.4,3.2-1.3,4.5C24.2,30,23,31,21.6,31.7
	c0.6,0.2,1.1,0.4,1.7,0.6C23.8,32.2,24.4,32.3,25,32.3z M24,43.8L18.1,38H10v-8.1L4.1,24l5.9-5.9V10h8.1L24,4.1l5.9,5.9H38v8.1
	l5.9,5.9L38,29.9V38h-8.1L24,43.8z M24,41.6l5.2-5.2h7.3v-7.2l5.2-5.2l-5.2-5.2v-7.2h-7.2L24,6.3l-5.2,5.2h-7.2v7.2L6.3,24l5.2,5.2
	v7.2h7.2C18.8,36.5,24,41.6,24,41.6z"/>
</svg>
