<?xml version="1.0" encoding="utf-8"?>
<!-- Generator: Adobe Illustrator 26.3.1, SVG Export Plug-In . SVG Version: 6.00 Build 0)  -->
<svg version="1.1" id="Слой_1" xmlns="http://www.w3.org/2000/svg" xmlns:xlink="http://www.w3.org/1999/xlink" x="0px" y="0px"
	 viewBox="0 0 48 48" style="enable-background:new 0 0 48 48;" xml:space="preserve">
<path d="M22.5,40c3.7-1,6.7-2.9,8.9-5.9c2.3-3,3.4-6.3,3.4-10.1s-1.1-7.2-3.4-10.1c-2.3-3-5.3-4.9-9-5.9c2.1,2.1,3.6,4.6,4.7,7.4
	c1,2.8,1.6,5.6,1.6,8.6s-0.5,5.9-1.5,8.6C26.1,35.4,24.6,37.8,22.5,40z M18.6,42c-0.2,0-0.4,0-0.5,0c-0.2,0-0.3,0-0.5,0
	c3.2-1.8,5.6-4.4,7.2-7.6s2.4-6.7,2.4-10.4s-0.8-7.2-2.4-10.4s-4-5.8-7.2-7.6c0.2,0,0.3,0,0.5,0s0.3,0,0.5,0c2.5,0,4.8,0.5,7,1.4
	s4.1,2.2,5.7,3.9c1.6,1.6,2.9,3.5,3.8,5.7c0.9,2.2,1.4,4.5,1.4,7s-0.5,4.8-1.4,7s-2.2,4.1-3.8,5.7c-1.6,1.6-3.5,2.9-5.7,3.9
	C23.4,41.5,21,42,18.6,42z"/>
</svg>
