<?xml version="1.0" encoding="utf-8"?>
<!-- Generator: Adobe Illustrator 26.3.1, SVG Export Plug-In . SVG Version: 6.00 Build 0)  -->
<svg version="1.1" id="Слой_1" xmlns="http://www.w3.org/2000/svg" xmlns:xlink="http://www.w3.org/1999/xlink" x="0px" y="0px"
	 viewBox="0 0 48 48" style="enable-background:new 0 0 48 48;" xml:space="preserve">
<path d="M16.3,32.3H18l2.2-5.6H28l2.2,5.6h1.7l-7.4-18.7h-0.9L16.3,32.3z M20.7,25.2l3.2-8.3h0.2l3.3,8.3
	C27.4,25.2,20.7,25.2,20.7,25.2z M24,43.8L18.1,38H10v-8.1L4.1,24l5.9-5.9V10h8.1L24,4.1l5.8,5.9H38v8.1l5.9,5.9L38,29.9V38h-8.1
	L24,43.8z M24,41.6l5.2-5.2h7.3v-7.2l5.2-5.2l-5.2-5.2v-7.2h-7.2L24,6.3l-5.2,5.2h-7.2v7.2L6.3,24l5.2,5.2v7.2h7.2
	C18.8,36.5,24,41.6,24,41.6z"/>
</svg>
