<?xml version="1.0" encoding="utf-8"?>
<!-- Generator: Adobe Illustrator 26.3.1, SVG Export Plug-In . SVG Version: 6.00 Build 0)  -->
<svg version="1.1" id="Слой_1" xmlns="http://www.w3.org/2000/svg" xmlns:xlink="http://www.w3.org/1999/xlink" x="0px" y="0px"
	 viewBox="0 0 48 48" style="enable-background:new 0 0 48 48;" xml:space="preserve">
<path d="M6,38V17L20,6.5l11.6,8.7c-0.4,0.1-0.7,0.1-1,0.2c-0.3,0.1-0.7,0.2-1,0.3L20,8.4L7.5,17.8v18.7h13.1
	c0.1,0.3,0.3,0.6,0.4,0.8c0.2,0.3,0.3,0.5,0.5,0.7H6z M26.2,39c-1.4-1.1-2.4-2.5-3.1-4.1S22,31.7,22,30c0-3.4,1.2-6.3,3.5-8.6
	s5.2-3.5,8.6-3.5c3.4,0,6.3,1.2,8.6,3.5c2.4,2.3,3.5,5.2,3.5,8.6c0,1.7-0.4,3.4-1.1,4.9c-0.7,1.6-1.7,2.9-3.1,4L41.2,38
	c1.2-1,2.1-2.2,2.7-3.6c0.6-1.4,0.9-2.9,0.9-4.5c0-3-1.1-5.6-3.2-7.7c-2.1-2.1-4.7-3.1-7.7-3.1s-5.6,1-7.7,3.1S23,26.9,23,29.9
	c0,1.6,0.3,3.1,1,4.5c0.6,1.4,1.5,2.6,2.7,3.6C27.1,38.1,26.2,39,26.2,39z M29.7,35.4c-0.8-0.7-1.5-1.5-1.9-2.5
	c-0.5-0.9-0.7-1.9-0.7-3c0-2,0.7-3.7,2.1-5.1s3.1-2.1,5.1-2.1s3.7,0.7,5.1,2.1c1.4,1.4,2.1,3.1,2.1,5.1c0,1.1-0.2,2.1-0.7,3
	c-0.5,1-1.1,1.8-1.9,2.5l-1-0.9c0.7-0.6,1.2-1.2,1.6-2c0.4-0.8,0.6-1.7,0.6-2.6c0-1.6-0.6-3-1.7-4.1c-1.1-1.1-2.5-1.7-4.1-1.7
	s-3,0.6-4.1,1.7C29,27,28.4,28.4,28.4,30c0,0.9,0.2,1.7,0.6,2.5s1,1.5,1.6,2.1L29.7,35.4z M33.6,41.4v-9.9c-0.3-0.1-0.5-0.3-0.7-0.6
	c-0.2-0.3-0.3-0.6-0.3-0.9c0-0.5,0.2-0.9,0.5-1.2c0.3-0.3,0.7-0.5,1.1-0.5c0.5,0,0.9,0.2,1.2,0.5s0.5,0.7,0.5,1.2
	c0,0.3-0.1,0.6-0.2,0.9c-0.2,0.3-0.4,0.5-0.8,0.6v9.9C34.9,41.4,33.6,41.4,33.6,41.4z"/>
</svg>
