<?xml version="1.0" encoding="utf-8"?>
<!-- Generator: Adobe Illustrator 26.3.1, SVG Export Plug-In . SVG Version: 6.00 Build 0)  -->
<svg version="1.1" id="Слой_1" xmlns="http://www.w3.org/2000/svg" xmlns:xlink="http://www.w3.org/1999/xlink" x="0px" y="0px"
	 viewBox="0 0 48 48" style="enable-background:new 0 0 48 48;" xml:space="preserve">
<path d="M42,15c-0.2-0.1-0.5-0.3-0.7-0.4c-0.3-0.1-0.5-0.3-0.8-0.4V8.8c0-0.3-0.1-0.6-0.4-0.8c-0.3-0.3-0.5-0.4-0.8-0.4H10V6h29.2
	c0.8,0,1.4,0.3,2,0.8C41.7,7.3,42,8,42,8.8V15z M7.3,34c-0.4,0-0.7-0.1-1-0.4C6.1,33.4,6,33.1,6,32.7V17c0-0.4,0.1-0.7,0.4-0.9
	c0.2-0.2,0.6-0.4,1-0.4h8c0.4,0,0.7,0.1,1,0.4c0.2,0.2,0.4,0.6,0.4,0.9v15.7c0,0.4-0.1,0.7-0.4,0.9c-0.2,0.2-0.6,0.4-1,0.4
	C15.4,34,7.3,34,7.3,34z M33.6,39.5v-10c-0.3-0.1-0.5-0.3-0.7-0.6c-0.2-0.3-0.3-0.6-0.3-0.9c0-0.5,0.2-0.9,0.5-1.2
	c0.3-0.3,0.7-0.5,1.1-0.5c0.5,0,0.9,0.2,1.2,0.5s0.5,0.7,0.5,1.2c0,0.3-0.1,0.6-0.2,0.9c-0.2,0.3-0.4,0.5-0.8,0.6v10
	C34.9,39.5,33.6,39.5,33.6,39.5z M29.7,33.4c-0.8-0.7-1.5-1.5-1.9-2.5c-0.5-0.9-0.7-1.9-0.7-3c0-2,0.7-3.7,2.1-5.1s3.1-2.1,5.1-2.1
	s3.7,0.7,5.1,2.1c1.4,1.4,2.1,3.1,2.1,5.1c0,1.1-0.2,2.1-0.7,3c-0.5,1-1.1,1.8-1.9,2.5l-1-0.9c0.7-0.6,1.2-1.2,1.6-2
	c0.4-0.8,0.6-1.7,0.6-2.6c0-1.6-0.6-3-1.7-4.1c-1.1-1.1-2.5-1.7-4.1-1.7s-3,0.6-4.1,1.7C29,25,28.4,26.4,28.4,28
	c0,0.9,0.2,1.7,0.6,2.5s1,1.5,1.6,2.1C30.6,32.5,29.7,33.4,29.7,33.4z M26.2,37c-1.4-1.1-2.4-2.5-3.1-4.1C22.4,31.3,22,29.7,22,28
	c0-3.4,1.2-6.3,3.5-8.6s5.2-3.5,8.6-3.5c3.4,0,6.3,1.2,8.6,3.5c2.4,2.3,3.5,5.2,3.5,8.6c0,1.7-0.4,3.4-1.1,4.9
	c-0.7,1.6-1.7,2.9-3.1,4L41.2,36c1.2-1,2.1-2.2,2.7-3.6c0.6-1.4,0.9-2.9,0.9-4.5c0-3-1.1-5.6-3.2-7.7c-2.1-2.1-4.7-3.1-7.7-3.1
	s-5.6,1-7.7,3.1S23,24.9,23,27.9c0,1.6,0.3,3.1,1,4.5c0.6,1.4,1.5,2.6,2.7,3.6C27.1,36.1,26.2,37,26.2,37z M7.5,32.5H15V17.2H7.5
	V32.5z M7.5,32.5H15C15.1,32.5,7.5,32.5,7.5,32.5z"/>
</svg>
