<?xml version="1.0" encoding="utf-8"?>
<!-- Generator: Adobe Illustrator 26.3.1, SVG Export Plug-In . SVG Version: 6.00 Build 0)  -->
<svg version="1.1" id="Слой_1" xmlns="http://www.w3.org/2000/svg" xmlns:xlink="http://www.w3.org/1999/xlink" x="0px" y="0px"
	 viewBox="0 0 48 48" style="enable-background:new 0 0 48 48;" xml:space="preserve">
<path d="M14.8,40v-2.9l1.7-1.7H8.8c-0.8,0-1.4-0.3-2-0.8C6.3,34,6,33.4,6,32.6V10.8c0-0.8,0.3-1.4,0.8-2C7.3,8.3,8,8,8.8,8h17.4v1.5
	H8.8C8.5,9.5,8.2,9.6,8,9.9c-0.3,0.3-0.4,0.5-0.4,0.8v21.8c0,0.3,0.1,0.6,0.4,0.8c0.3,0.3,0.5,0.4,0.8,0.4h30.5
	c0.3,0,0.6-0.1,0.8-0.4c0.3-0.3,0.4-0.5,0.4-0.8V26H42v6.6c0,0.8-0.3,1.4-0.8,2c-0.5,0.5-1.2,0.8-2,0.8h-7.8l1.7,1.7V40H14.8z
	 M32,28.9l-8.4-8.4l1.1-1.1l6.5,6.6V8h1.5v18l6.5-6.6l1.1,1.1C40.5,20.5,32,28.9,32,28.9z"/>
</svg>
