<?xml version="1.0" encoding="utf-8"?>
<!-- Generator: Adobe Illustrator 26.3.1, SVG Export Plug-In . SVG Version: 6.00 Build 0)  -->
<svg version="1.1" id="Слой_1" xmlns="http://www.w3.org/2000/svg" xmlns:xlink="http://www.w3.org/1999/xlink" x="0px" y="0px"
	 viewBox="0 0 48 48" style="enable-background:new 0 0 48 48;" xml:space="preserve">
<path d="M8,26.3V10.8c0-0.8,0.3-1.4,0.8-2C9.3,8.3,10,8,10.8,8h11.5v18.3H8z M25.8,8h11.5c0.8,0,1.4,0.3,2,0.8
	c0.5,0.5,0.8,1.2,0.8,2v7.3H25.8V8z M25.8,40V21.6H40v15.6c0,0.8-0.3,1.4-0.8,2c-0.5,0.5-1.2,0.8-2,0.8H25.8z M8,29.9h14.2V40H10.8
	c-0.8,0-1.4-0.3-2-0.8C8.3,38.7,8,38,8,37.2V29.9z M9.5,24.8h11.2V9.5h-9.9c-0.4,0-0.7,0.1-0.9,0.3s-0.3,0.5-0.3,0.9
	C9.5,10.8,9.5,24.8,9.5,24.8z M27.3,16.6h11.2v-5.8c0-0.4-0.1-0.7-0.3-0.9s-0.5-0.3-0.9-0.3h-9.9v7H27.3z M27.3,23.2v15.3h9.9
	c0.4,0,0.7-0.1,0.9-0.3s0.3-0.5,0.3-0.9V23.2H27.3z M9.5,31.4v5.8c0,0.4,0.1,0.7,0.3,0.9s0.5,0.3,0.9,0.3h9.9v-7.1
	C20.7,31.4,9.5,31.4,9.5,31.4z"/>
</svg>
