<?xml version="1.0" encoding="utf-8"?>
<!-- Generator: Adobe Illustrator 26.3.1, SVG Export Plug-In . SVG Version: 6.00 Build 0)  -->
<svg version="1.1" id="Слой_1" xmlns="http://www.w3.org/2000/svg" xmlns:xlink="http://www.w3.org/1999/xlink" x="0px" y="0px"
	 viewBox="0 0 48 48" style="enable-background:new 0 0 48 48;" xml:space="preserve">
<path d="M6,20.2v-8.5c0-0.8,0.3-1.4,0.8-2c0.5-0.5,1.2-0.8,2-0.8h30.5c0.8,0,1.4,0.3,2,0.8c0.5,0.5,0.8,1.2,0.8,2v8.5h-1.5v-8.5
	c0-0.3-0.1-0.6-0.4-0.8c-0.3-0.3-0.5-0.4-0.8-0.4H8.8c-0.3,0-0.6,0.1-0.8,0.4c-0.3,0.3-0.4,0.5-0.4,0.8v8.5C7.5,20.2,6,20.2,6,20.2z
	 M8.8,34.9c-0.8,0-1.4-0.3-2-0.8c-0.5-0.5-0.8-1.2-0.8-2V21.7h1.5v10.5c0,0.3,0.1,0.6,0.4,0.8c0.3,0.3,0.5,0.4,0.8,0.4h30.5
	c0.3,0,0.6-0.1,0.8-0.4c0.3-0.3,0.4-0.5,0.4-0.8V21.7H42v10.5c0,0.8-0.3,1.4-0.8,2c-0.5,0.5-1.2,0.8-2,0.8
	C39.2,34.9,8.8,34.9,8.8,34.9z M3.5,38.9v-1.5h40.9v1.5C44.5,38.9,3.5,38.9,3.5,38.9z M6,21.7v-1.5h10c0.1,0,0.3,0,0.4,0.1
	s0.2,0.2,0.3,0.3l3.4,6.9l7.1-12.9c0.1-0.1,0.2-0.2,0.3-0.3s0.3-0.1,0.4-0.1s0.3,0,0.4,0.1c0.1,0,0.2,0.1,0.3,0.2l2.8,5.6H42v1.5
	H31.4c-0.3,0-0.5-0.1-0.7-0.2s-0.4-0.3-0.5-0.5L28,16.5l-7.2,12.7c-0.1,0.2-0.2,0.3-0.3,0.3c-0.1,0.1-0.3,0.1-0.4,0.1
	s-0.3,0-0.4-0.1s-0.2-0.2-0.3-0.3l-3.8-7.6C15.5,21.7,6,21.7,6,21.7z"/>
</svg>
