<?xml version="1.0" encoding="utf-8"?>
<!-- Generator: Adobe Illustrator 26.3.1, SVG Export Plug-In . SVG Version: 6.00 Build 0)  -->
<svg version="1.1" id="Слой_1" xmlns="http://www.w3.org/2000/svg" xmlns:xlink="http://www.w3.org/1999/xlink" x="0px" y="0px"
	 viewBox="0 0 48 48" style="enable-background:new 0 0 48 48;" xml:space="preserve">
<path d="M28.8,40c-1.2,0-2.2-0.4-3-1.2s-1.2-1.8-1.2-3s0.4-2.2,1.2-3c0.8-0.8,1.8-1.2,3-1.2s2.2,0.4,3,1.2c0.8,0.8,1.2,1.8,1.2,3
	s-0.4,2.2-1.2,3C30.9,39.6,29.9,40,28.8,40z M28.7,38.5c0.7,0,1.4-0.3,1.9-0.8s0.8-1.2,0.8-1.9s-0.3-1.4-0.8-1.9s-1.2-0.8-1.9-0.8
	c-0.8,0-1.4,0.3-1.9,0.8S26,35.1,26,35.8s0.3,1.4,0.8,1.9C27.3,38.2,28,38.5,28.7,38.5z M33.1,25.8c-2.5,0-4.6-0.9-6.3-2.6
	c-1.7-1.7-2.6-3.8-2.6-6.3s0.9-4.6,2.6-6.3C28.5,8.9,30.6,8,33.1,8s4.6,0.9,6.3,2.6s2.6,3.8,2.6,6.3s-0.9,4.6-2.6,6.3
	S35.6,25.8,33.1,25.8z M33.1,24.2c2.1,0,3.8-0.7,5.2-2.1s2.1-3.2,2.1-5.2c0-2.1-0.7-3.8-2.1-5.2c-1.4-1.4-3.2-2.1-5.2-2.1
	c-2.1,0-3.8,0.7-5.2,2.1c-1.4,1.4-2.1,3.2-2.1,5.2c0,2.1,0.7,3.8,2.1,5.2C29.3,23.5,31.1,24.2,33.1,24.2z M14.3,34.5
	c-1.8,0-3.3-0.6-4.5-1.9C8.6,31.4,8,29.9,8,28.2c0-1.8,0.6-3.3,1.9-4.5c1.2-1.2,2.7-1.9,4.5-1.9s3.3,0.6,4.5,1.9
	c1.2,1.2,1.9,2.7,1.9,4.5s-0.6,3.3-1.9,4.5S16.1,34.5,14.3,34.5z M14.3,33c1.3,0,2.5-0.5,3.4-1.4c0.9-0.9,1.4-2.1,1.4-3.4
	s-0.5-2.5-1.4-3.4s-2.1-1.4-3.4-1.4s-2.5,0.5-3.4,1.4s-1.4,2.1-1.4,3.4s0.5,2.5,1.4,3.4C11.9,32.5,13,33,14.3,33z"/>
</svg>
