<?xml version="1.0" encoding="utf-8"?>
<!-- Generator: Adobe Illustrator 26.3.1, SVG Export Plug-In . SVG Version: 6.00 Build 0)  -->
<svg version="1.1" id="Слой_1" xmlns="http://www.w3.org/2000/svg" xmlns:xlink="http://www.w3.org/1999/xlink" x="0px" y="0px"
	 viewBox="0 0 48 48" style="enable-background:new 0 0 48 48;" xml:space="preserve">
<path d="M19.4,17.4l8.9,8.9v-6.2h1.5V29H21v-1.5h6.2l-9-8.9L19.4,17.4z M37.4,38c-1.3,0-2.4-0.5-3.3-1.4c-0.9-0.9-1.4-2-1.4-3.3
	s0.5-2.4,1.4-3.3s2-1.3,3.3-1.3s2.4,0.4,3.3,1.3c0.9,0.9,1.3,2,1.3,3.3s-0.4,2.4-1.3,3.3C39.8,37.5,38.7,38,37.4,38z M8.8,38
	c-0.8,0-1.4-0.3-2-0.8C6.3,36.7,6,36,6,35.2V12.8c0-0.8,0.3-1.4,0.8-2C7.3,10.3,8,10,8.8,10h30.5c0.8,0,1.4,0.3,2,0.8
	c0.5,0.5,0.8,1.2,0.8,2v11.6h-1.5V12.8c0-0.4-0.1-0.7-0.3-0.9s-0.5-0.3-0.9-0.3H8.8c-0.4,0-0.7,0.1-0.9,0.3
	c-0.2,0.2-0.3,0.5-0.3,0.9v22.5c0,0.4,0.1,0.7,0.3,0.9s0.5,0.3,0.9,0.3h19.6V38H8.8z"/>
</svg>
