<?xml version="1.0" encoding="utf-8"?>
<!-- Generator: Adobe Illustrator 26.3.1, SVG Export Plug-In . SVG Version: 6.00 Build 0)  -->
<svg version="1.1" id="Слой_1" xmlns="http://www.w3.org/2000/svg" xmlns:xlink="http://www.w3.org/1999/xlink" x="0px" y="0px"
	 viewBox="0 0 48 48" style="enable-background:new 0 0 48 48;" xml:space="preserve">
<path d="M24,38.5c2.3,0,4.3-0.8,5.9-2.4c1.6-1.6,2.4-3.6,2.4-5.9V22c0-2.3-0.8-4.3-2.4-5.9s-3.6-2.4-5.9-2.4s-4.3,0.8-5.9,2.4
	s-2.4,3.6-2.4,5.9v8.2c0,2.3,0.8,4.3,2.4,5.9C19.7,37.7,21.7,38.5,24,38.5z M20.6,31h6.8v-1.5h-6.8C20.6,29.5,20.6,31,20.6,31z
	 M20.6,22.7h6.8v-1.5h-6.8C20.6,21.2,20.6,22.7,20.6,22.7z M24,26.1L24,26.1L24,26.1L24,26.1L24,26.1L24,26.1L24,26.1L24,26.1
	L24,26.1z M24,40c-1.8,0-3.5-0.4-5-1.3c-1.5-0.9-2.7-2.1-3.5-3.7H10v-1.5h4.7c-0.3-1.1-0.5-2.2-0.5-3.3c0-1.1,0-2.2,0-3.3H10v-1.5
	h4.1c0-1.1,0-2.3,0-3.5s0.2-2.3,0.6-3.3H10V17h5.5c0.5-1,1.2-1.8,2-2.5s1.7-1.2,2.7-1.7L16.3,9l1-1l4.4,4.4c0.8-0.2,1.6-0.3,2.4-0.3
	s1.6,0.1,2.3,0.3L30.8,8l1,1L28,12.9c1,0.4,1.9,1,2.6,1.7c0.8,0.7,1.4,1.5,1.9,2.4H38v1.5h-4.7c0.5,1.1,0.7,2.2,0.6,3.3
	c0,1.2,0,2.3,0,3.5H38v1.5h-4.1c0,1.1,0,2.2,0,3.3c0,1.1-0.2,2.2-0.5,3.3H38V35h-5.4c-0.8,1.6-2,2.8-3.5,3.7
	C27.5,39.6,25.8,40,24,40z"/>
</svg>
