<?xml version="1.0" encoding="utf-8"?>
<!-- Generator: Adobe Illustrator 26.3.1, SVG Export Plug-In . SVG Version: 6.00 Build 0)  -->
<svg version="1.1" id="Слой_1" xmlns="http://www.w3.org/2000/svg" xmlns:xlink="http://www.w3.org/1999/xlink" x="0px" y="0px"
	 viewBox="0 0 48 48" style="enable-background:new 0 0 48 48;" xml:space="preserve">
<path d="M36.1,41.1L22.6,27.6c-0.8,0.3-1.6,0.6-2.4,0.8c-0.8,0.2-1.7,0.3-2.6,0.3c-3,0-5.6-1.1-7.7-3.2s-3.2-4.7-3.2-7.7
	c0-0.8,0.1-1.5,0.2-2.3c0.2-0.8,0.4-1.5,0.7-2.2l7.1,6.9l5.4-5.3l-7-7.1c0.7-0.3,1.4-0.6,2.1-0.8c0.9,0.1,1.7,0,2.4,0
	c3,0,5.6,1.1,7.8,3.2c2.1,2.1,3.2,4.7,3.2,7.7c0,1-0.1,1.8-0.3,2.6c-0.2,0.8-0.5,1.6-0.9,2.3l13.5,13.5c0.3,0.3,0.4,0.6,0.4,1
	s-0.1,0.8-0.4,1L38,41.2c-0.2,0.3-0.6,0.4-1,0.3C36.7,41.5,36.3,41.4,36.1,41.1z M37.1,40l2.6-2.6L25.5,23.2
	c0.5-0.8,0.9-1.6,1.2-2.5c0.3-0.9,0.4-1.8,0.4-2.7c0-2.7-1.1-5-3.2-7c-2.2-2-4.8-2.8-8-2.3l5.6,5.7c0.3,0.3,0.4,0.6,0.4,1
	s-0.2,0.7-0.4,1l-5.7,5.5c-0.3,0.3-0.6,0.4-1,0.4s-0.7-0.1-1-0.4l-5.5-5.5c-0.4,3.5,0.5,6.3,2.5,8.2c2.1,1.9,4.3,2.9,6.8,2.9
	c0.9,0,1.8-0.1,2.7-0.4c0.9-0.3,1.7-0.6,2.5-1.2L37.1,40z"/>
</svg>
