<?xml version="1.0" encoding="utf-8"?>
<!-- Generator: Adobe Illustrator 26.3.1, SVG Export Plug-In . SVG Version: 6.00 Build 0)  -->
<svg version="1.1" id="Слой_1" xmlns="http://www.w3.org/2000/svg" xmlns:xlink="http://www.w3.org/1999/xlink" x="0px" y="0px"
	 viewBox="0 0 48 48" style="enable-background:new 0 0 48 48;" xml:space="preserve">
<path d="M3.5,36V12H5v24H3.5z M12,36V12h1.5v24H12z M23.2,36c-0.8,0-1.4-0.3-2-0.8c-0.5-0.5-0.8-1.2-0.8-2V14.8c0-0.8,0.3-1.4,0.8-2
	c0.5-0.5,1.2-0.8,2-0.8h18.5c0.8,0,1.4,0.3,2,0.8c0.5,0.5,0.8,1.2,0.8,2v18.5c0,0.8-0.3,1.4-0.8,2c-0.5,0.5-1.2,0.8-2,0.8L23.2,36
	L23.2,36z M23.2,34.5h18.5c0.3,0,0.6-0.1,0.8-0.4c0.3-0.3,0.4-0.5,0.4-0.8V14.8c0-0.3-0.1-0.6-0.4-0.8c-0.3-0.3-0.5-0.4-0.8-0.4
	H23.2c-0.3,0-0.6,0.1-0.8,0.4c-0.3,0.3-0.4,0.5-0.4,0.8v18.5c0,0.3,0.1,0.6,0.4,0.8C22.6,34.3,22.9,34.5,23.2,34.5z M25.4,29.6h14.2
	L35.4,24l-4,5.2l-2.9-3.9C28.6,25.4,25.4,29.6,25.4,29.6z M22,34.5v-21V34.5z"/>
</svg>
