<?xml version="1.0" encoding="utf-8"?>
<!-- Generator: Adobe Illustrator 26.3.1, SVG Export Plug-In . SVG Version: 6.00 Build 0)  -->
<svg version="1.1" id="Слой_1" xmlns="http://www.w3.org/2000/svg" xmlns:xlink="http://www.w3.org/1999/xlink" x="0px" y="0px"
	 viewBox="0 0 48 48" style="enable-background:new 0 0 48 48;" xml:space="preserve">
<path d="M16.7,27.2c-0.6,0-1.1,0.2-1.5,0.6s-0.6,0.9-0.6,1.5s0.2,1.1,0.6,1.5c0.4,0.4,0.9,0.6,1.5,0.6s1.1-0.2,1.5-0.6
	s0.6-0.9,0.6-1.5s-0.2-1.1-0.6-1.5S17.3,27.2,16.7,27.2z M34.7,23.2c2.2,0,3.9,0.6,5.2,1.9s2,2.9,2,4.9v5.3c0,0.9-0.3,1.7-1,2.4
	s-1.5,1-2.4,1L42,42H27.4l3.4-3.4c-0.9,0-1.7-0.3-2.4-1c-0.7-0.7-1-1.5-1-2.4v-5.3c0-2,0.7-3.6,2.1-4.9
	C30.8,23.8,32.6,23.2,34.7,23.2z M34.5,33.7c-0.4,0-0.7,0.1-1,0.4c-0.3,0.3-0.4,0.6-0.4,1s0.1,0.7,0.4,1c0.3,0.3,0.6,0.4,1,0.4
	c0.3,0,0.7-0.1,0.9-0.4c0.3-0.3,0.4-0.6,0.4-1s-0.1-0.7-0.4-1C35.2,33.8,34.9,33.7,34.5,33.7z M29.5,28.2c-0.1,0.3-0.2,0.5-0.2,0.8
	c-0.1,0.3-0.1,0.6-0.1,0.9v1.7h11.1v-1.7c0-0.3,0-0.6-0.1-0.9s-0.1-0.5-0.2-0.8C39.9,28.2,29.5,28.2,29.5,28.2z M24,6
	c4.9,0,8.5,0.4,10.7,1.3S38,9.6,38,11.6v7.7c-0.3-0.1-0.5-0.1-0.8-0.2C37,19,36.7,19,36.5,18.9v-6.4h-25v10.2h14.2
	c-0.2,0.2-0.4,0.5-0.6,0.7s-0.4,0.5-0.6,0.8h-13v6c0,1.1,0.4,2.1,1.2,2.9c0.8,0.8,1.7,1.3,2.9,1.3h7.5v1.5h-7.9v3.4
	c0,0.2-0.1,0.4-0.2,0.5c-0.2,0.1-0.4,0.2-0.7,0.2l0,0c-0.2,0-0.4-0.1-0.6-0.2c-0.2-0.1-0.3-0.3-0.3-0.5v-3.9
	c-0.8-0.2-1.6-0.8-2.3-1.8S10,31.4,10,30.2V11.6c0-1.9,1.1-3.4,3.4-4.3C15.6,6.4,19.2,6,24,6z M24,11h12.6H11.3H24z M11.3,11h25.3
	c-0.5-1.2-1.8-2-3.9-2.6s-5-0.8-8.8-0.8c-4.1,0-7.1,0.3-9.1,0.8S11.7,9.8,11.3,11z"/>
</svg>
