<?xml version="1.0" encoding="utf-8"?>
<!-- Generator: Adobe Illustrator 26.3.1, SVG Export Plug-In . SVG Version: 6.00 Build 0)  -->
<svg version="1.1" id="Слой_1" xmlns="http://www.w3.org/2000/svg" xmlns:xlink="http://www.w3.org/1999/xlink" x="0px" y="0px"
	 viewBox="0 0 48 48" style="enable-background:new 0 0 48 48;" xml:space="preserve">
<path d="M15.6,39.5V38H8v-1.5h2v-25H8V10h6.1l1.2-2.5h17.4L34,10h6v1.5h-2v24.9h2V38h-7.6v1.5H15.6z M11.5,36.5h24.9v-12H11.5V36.5z
	 M24,32.7c0.6,0,1.1-0.2,1.6-0.6c0.4-0.4,0.6-0.9,0.6-1.6c0-0.6-0.2-1.2-0.7-1.6c-0.4-0.4-1-0.7-1.6-0.7s-1.1,0.2-1.6,0.7
	c-0.4,0.4-0.6,1-0.6,1.6s0.2,1.1,0.7,1.6C22.9,32.5,23.4,32.7,24,32.7z M11.5,22.9h7.1v-7.8c0-1-0.3-1.8-1-2.5s-1.5-1-2.5-1
	s-1.8,0.3-2.5,1s-1,1.5-1,2.5C11.5,15.1,11.5,22.9,11.5,22.9z M20.4,22.9h7.1V15c0-1-0.3-1.8-1-2.5s-1.5-1-2.5-1s-1.8,0.3-2.5,1
	S20.4,14,20.4,15C20.4,15.1,20.4,22.9,20.4,22.9z M29.4,22.9h7.1V15c0-1-0.4-1.8-1.1-2.5c-0.7-0.7-1.5-1-2.5-1s-1.8,0.3-2.5,1
	s-1,1.5-1,2.5C29.4,15.1,29.4,22.9,29.4,22.9z M11.5,24.5h24.9H11.5z"/>
</svg>
