<?xml version="1.0" encoding="utf-8"?>
<!-- Generator: Adobe Illustrator 26.3.1, SVG Export Plug-In . SVG Version: 6.00 Build 0)  -->
<svg version="1.1" id="Слой_1" xmlns="http://www.w3.org/2000/svg" xmlns:xlink="http://www.w3.org/1999/xlink" x="0px" y="0px"
	 viewBox="0 0 48 48" style="enable-background:new 0 0 48 48;" xml:space="preserve">
<path d="M38.5,15.9v-4.2h-4.2v-1.5h4.2V5.9H40v4.2h4.2v1.5H40v4.2L38.5,15.9L38.5,15.9z M7.5,42c-0.4,0-0.8-0.2-1-0.5
	c-0.4-0.3-0.5-0.6-0.5-1v-10c0-0.7,0.3-1.4,0.8-1.9c0.6-0.6,1.2-0.9,2-0.9h1.4v-8.8c0-0.8,0.3-1.4,0.8-2c0.5-0.5,1.2-0.8,1.9-0.8
	h8.3V13c-0.6-0.4-1.1-0.8-1.4-1.3c-0.4-0.5-0.6-1-0.6-1.7c0-0.4,0.1-0.8,0.2-1.1S19.8,8.3,20,8l2-2l2,2.1c0.3,0.2,0.5,0.5,0.6,0.9
	c0.2,0.3,0.2,0.7,0.2,1.1c0,0.6-0.2,1.2-0.6,1.7s-0.9,0.9-1.5,1.3v3.1H31c0.7,0,1.4,0.3,1.9,0.8s0.8,1.2,0.8,2v8.8h1.4
	c0.7,0,1.4,0.3,1.9,0.8s0.8,1.2,0.8,1.9v10c0,0.4-0.2,0.8-0.5,1.1s-0.7,0.5-1.1,0.5C36.5,42,7.5,42,7.5,42z M11.7,27.7h20.6v-8.8
	c0-0.4-0.1-0.7-0.4-0.9c-0.2-0.2-0.5-0.3-0.9-0.3H12.9c-0.3,0-0.6,0.1-0.9,0.3c-0.2,0.2-0.4,0.5-0.4,0.9
	C11.7,18.9,11.7,27.7,11.7,27.7z M7.5,40.5h28.9v-10c0-0.3-0.1-0.6-0.3-0.9c-0.2-0.2-0.5-0.4-0.9-0.4H8.8c-0.4,0-0.7,0.1-0.9,0.4
	c-0.2,0.2-0.3,0.5-0.3,0.9C7.5,30.5,7.5,40.5,7.5,40.5z M11.7,27.7h20.6H11.7z M7.5,40.5h28.9C36.5,40.5,7.5,40.5,7.5,40.5z
	 M34.5,27.7h-25H34.5z"/>
</svg>
