<?xml version="1.0" encoding="utf-8"?>
<!-- Generator: Adobe Illustrator 26.3.1, SVG Export Plug-In . SVG Version: 6.00 Build 0)  -->
<svg version="1.1" id="Слой_1" xmlns="http://www.w3.org/2000/svg" xmlns:xlink="http://www.w3.org/1999/xlink" x="0px" y="0px"
	 viewBox="0 0 48 48" style="enable-background:new 0 0 48 48;" xml:space="preserve">
<path d="M8.8,38c-0.8,0-1.4-0.3-2-0.8C6.3,36.7,6,36,6,35.2V12.8c0-0.8,0.3-1.4,0.8-2C7.3,10.3,8,10,8.8,10h30.5
	c0.8,0,1.4,0.3,2,0.8c0.5,0.5,0.8,1.2,0.8,2v22.5c0,0.8-0.3,1.4-0.8,2c-0.5,0.5-1.2,0.8-2,0.8L8.8,38L8.8,38z M7.5,23.2h10V11.5H8.8
	c-0.4,0-0.7,0.1-0.9,0.3c-0.2,0.2-0.3,0.5-0.3,0.9L7.5,23.2L7.5,23.2z M19,23.2h10V11.5H19V23.2z M30.5,23.2h10V12.8
	c0-0.4-0.1-0.7-0.3-0.9s-0.5-0.3-0.9-0.3h-8.7C30.5,11.5,30.5,23.2,30.5,23.2z M17.5,36.5V24.8h-10v10.5c0,0.4,0.1,0.7,0.3,0.9
	c0.2,0.2,0.5,0.3,0.9,0.3C8.8,36.5,17.5,36.5,17.5,36.5z M19,36.5h10V24.8H19V36.5z M30.5,36.5h8.7c0.4,0,0.7-0.1,0.9-0.3
	s0.3-0.5,0.3-0.9V24.8h-10L30.5,36.5L30.5,36.5z"/>
</svg>
