<?xml version="1.0" encoding="utf-8"?>
<!-- Generator: Adobe Illustrator 26.3.1, SVG Export Plug-In . SVG Version: 6.00 Build 0)  -->
<svg version="1.1" id="Слой_1" xmlns="http://www.w3.org/2000/svg" xmlns:xlink="http://www.w3.org/1999/xlink" x="0px" y="0px"
	 viewBox="0 0 48 48" style="enable-background:new 0 0 48 48;" xml:space="preserve">
<path d="M8.8,38c-0.8,0-1.4-0.3-2-0.8C6.3,36.7,6,36,6,35.2V12.8c0-0.8,0.3-1.4,0.8-2C7.3,10.3,8,10,8.8,10h30.5
	c0.8,0,1.4,0.3,2,0.8c0.5,0.5,0.8,1.2,0.8,2v22.5c0,0.8-0.3,1.4-0.8,2c-0.5,0.5-1.2,0.8-2,0.8L8.8,38L8.8,38z M24.9,36.5h7v-25h-7
	V36.5z M16.1,36.5h7v-25h-7V36.5z M8.8,36.5h5.8v-25H8.8c-0.4,0-0.7,0.1-0.9,0.3c-0.2,0.2-0.3,0.5-0.3,0.9v22.5
	c0,0.4,0.1,0.7,0.3,0.9C8.1,36.3,8.4,36.5,8.8,36.5z M33.4,36.5h5.8c0.4,0,0.7-0.1,0.9-0.3s0.3-0.5,0.3-0.9V12.8
	c0-0.4-0.1-0.7-0.3-0.9s-0.5-0.3-0.9-0.3h-5.8C33.4,11.5,33.4,36.5,33.4,36.5z"/>
</svg>
