<?xml version="1.0" encoding="utf-8"?>
<!-- Generator: Adobe Illustrator 26.3.1, SVG Export Plug-In . SVG Version: 6.00 Build 0)  -->
<svg version="1.1" id="Слой_1" xmlns="http://www.w3.org/2000/svg" xmlns:xlink="http://www.w3.org/1999/xlink" x="0px" y="0px"
	 viewBox="0 0 48 48" style="enable-background:new 0 0 48 48;" xml:space="preserve">
<path d="M6.7,31.2l-3.1-3c-0.4-0.4-0.6-0.8-0.5-1.3c0-0.5,0.2-1,0.6-1.3c2.5-2.7,5.6-4.8,9.2-6.3S20.2,17,24,17s7.6,0.8,11.2,2.3
	s6.7,3.6,9.2,6.3c0.3,0.4,0.5,0.8,0.6,1.3c0,0.5-0.1,0.9-0.5,1.3l-3.1,3c-0.4,0.4-0.9,0.6-1.4,0.7c-0.5,0-1-0.1-1.4-0.4l-4.2-3.2
	c-0.4-0.3-0.6-0.5-0.8-0.9c-0.2-0.3-0.3-0.7-0.3-1.1v-6.1c-1.7-0.6-3.3-1.1-4.7-1.3c-1.5-0.3-3-0.4-4.5-0.4s-3.1,0.1-4.5,0.4
	c-1.5,0.3-3,0.7-4.7,1.3v6.1c0,0.4-0.1,0.8-0.3,1.1c-0.2,0.3-0.4,0.6-0.8,0.9l-4.2,3.2c-0.6,0.4-1,0.5-1.5,0.4
	C7.5,31.9,7.1,31.7,6.7,31.2z M13.1,20.8c-1.6,0.7-3.1,1.6-4.6,2.6s-2.7,2-3.7,3.1c-0.1,0.1-0.2,0.3-0.2,0.4s0.1,0.3,0.2,0.4
	l2.8,2.8c0.1,0.1,0.3,0.2,0.5,0.2s0.4,0,0.5-0.1l4-3c0.1-0.1,0.2-0.2,0.3-0.4c0.1-0.2,0.1-0.3,0.1-0.4L13.1,20.8L13.1,20.8z
	 M34.8,20.7v5.6c0,0.2,0,0.3,0.1,0.5s0.2,0.3,0.3,0.3l4.1,3.1c0.2,0.1,0.3,0.2,0.5,0.2s0.4-0.1,0.5-0.3l2.8-2.8
	c0.1-0.1,0.2-0.2,0.2-0.4s-0.1-0.3-0.2-0.4c-1-1-2.2-2.1-3.7-3.1C37.9,22.4,36.4,21.5,34.8,20.7z"/>
</svg>
