<?xml version="1.0" encoding="utf-8"?>
<!-- Generator: Adobe Illustrator 26.3.1, SVG Export Plug-In . SVG Version: 6.00 Build 0)  -->
<svg version="1.1" id="Слой_1" xmlns="http://www.w3.org/2000/svg" xmlns:xlink="http://www.w3.org/1999/xlink" x="0px" y="0px"
	 viewBox="0 0 48 48" style="enable-background:new 0 0 48 48;" xml:space="preserve">
<path d="M35.8,42c-3.2,0-6.6-0.9-10.1-2.6c-3.5-1.7-6.8-4.1-9.9-7.2s-5.5-6.4-7.2-9.9S6,15.4,6,12.2c0-0.6,0.2-1.2,0.6-1.6
	C7,10.2,7.6,10,8.2,10h4.4c0.6,0,1.1,0.2,1.4,0.5c0.4,0.3,0.7,0.8,0.8,1.4l1,4.4c0.1,0.5,0,1-0.1,1.4s-0.3,0.8-0.6,1L10.7,23
	c0.9,1.6,1.9,3.1,2.9,4.4s2.1,2.6,3.2,3.8c1.3,1.3,2.6,2.5,4.1,3.5c1.4,1.1,3,2.1,4.7,3l4.3-4.4c0.3-0.4,0.7-0.6,1.1-0.7
	c0.4-0.1,0.8-0.1,1.3-0.1l3.8,0.8c0.6,0.1,1,0.4,1.4,0.8c0.3,0.4,0.5,0.9,0.5,1.5v4.2c0,0.6-0.2,1.1-0.6,1.6
	C36.9,41.8,36.4,42,35.8,42z M9.9,21.6l4.2-3.9c0.1-0.1,0.2-0.2,0.2-0.4c0-0.2,0-0.3,0-0.5l-1-4.6c0-0.2-0.1-0.4-0.2-0.5
	c-0.1-0.1-0.3-0.2-0.5-0.2H8.1c-0.2,0-0.3,0.1-0.4,0.2c-0.1,0.1-0.2,0.2-0.2,0.4c0,1.4,0.2,2.9,0.6,4.4C8.6,18.1,9.2,19.8,9.9,21.6z
	 M27.1,38.4c1.4,0.7,2.9,1.2,4.5,1.6c1.7,0.3,3.1,0.5,4.3,0.5c0.2,0,0.3-0.1,0.4-0.2c0.1-0.1,0.2-0.2,0.2-0.4v-4.5
	c0-0.2-0.1-0.4-0.2-0.5c-0.1-0.1-0.3-0.2-0.5-0.2l-3.9-0.8c-0.2,0-0.3,0-0.4,0s-0.2,0.1-0.4,0.2C31.2,34.1,27.1,38.4,27.1,38.4z
	 M33.2,23.5c-2.4,0-4.5-0.9-6.2-2.6s-2.6-3.8-2.6-6.2s0.9-4.5,2.6-6.2C28.7,6.9,30.8,6,33.2,6s4.5,0.9,6.2,2.6s2.6,3.8,2.6,6.2
	s-0.9,4.5-2.6,6.2C37.7,22.7,35.7,23.5,33.2,23.5z M32.5,20.5H34v-7.2h-1.5V20.5z M33.2,11.2c0.3,0,0.5-0.1,0.7-0.3s0.3-0.4,0.3-0.7
	s-0.1-0.5-0.3-0.7s-0.4-0.3-0.7-0.3s-0.5,0.1-0.7,0.3s-0.3,0.4-0.3,0.7s0.1,0.5,0.3,0.7C32.7,11.1,33,11.2,33.2,11.2z"/>
</svg>
