<?xml version="1.0" encoding="utf-8"?>
<!-- Generator: Adobe Illustrator 26.3.1, SVG Export Plug-In . SVG Version: 6.00 Build 0)  -->
<svg version="1.1" id="Слой_1" xmlns="http://www.w3.org/2000/svg" xmlns:xlink="http://www.w3.org/1999/xlink" x="0px" y="0px"
	 viewBox="0 0 48 48" style="enable-background:new 0 0 48 48;" xml:space="preserve">
<path d="M22.5,18.4h17.1c-0.9-2.4-2.3-4.6-4.3-6.5S31,8.7,28.5,8.1L22.5,18.4z M18.4,22.5L27,7.7c-0.4,0-0.9-0.1-1.5-0.1
	s-1.1,0-1.5,0c-2.3,0-4.4,0.4-6.4,1.3c-1.9,0.8-3.7,2-5.2,3.5C12.4,12.3,18.4,22.5,18.4,22.5z M8,28.2h11.8l-8.4-14.8
	c-1.3,1.5-2.2,3.1-2.9,4.9s-1,3.7-1,5.7c0,0.7,0,1.4,0.1,2.1C7.7,26.8,7.9,27.5,8,28.2z M19.7,39.9l6-10.3H8.4
	c0.9,2.4,2.3,4.6,4.4,6.5C14.8,38,17.1,39.3,19.7,39.9z M24,40.5c2.3,0,4.4-0.4,6.4-1.3s3.7-2,5.2-3.5l-5.9-10.2l-8.6,14.7
	c0.4,0.1,0.9,0.1,1.4,0.2C23.1,40.4,23.6,40.5,24,40.5z M36.6,34.6c1.1-1.4,2-3,2.8-4.9s1.1-3.8,1.1-5.7c0-0.7,0-1.4-0.1-2.1
	s-0.2-1.4-0.4-2.1H28.2L36.6,34.6z M24,42c-2.5,0-4.8-0.5-7-1.4s-4.1-2.2-5.7-3.9c-1.6-1.6-2.9-3.5-3.9-5.7C6.5,28.8,6,26.5,6,24
	s0.5-4.8,1.4-7s2.2-4.1,3.9-5.7c1.6-1.6,3.5-2.9,5.7-3.9C19.2,6.5,21.5,6,24,6s4.8,0.5,7,1.4s4.1,2.2,5.7,3.9
	c1.6,1.6,2.9,3.5,3.9,5.7c0.9,2.2,1.4,4.5,1.4,7s-0.5,4.8-1.4,7s-2.2,4.1-3.9,5.7c-1.6,1.6-3.5,2.9-5.7,3.9C28.8,41.5,26.5,42,24,42
	z"/>
</svg>
