<?xml version="1.0" encoding="utf-8"?>
<!-- Generator: Adobe Illustrator 26.3.1, SVG Export Plug-In . SVG Version: 6.00 Build 0)  -->
<svg version="1.1" id="Слой_1" xmlns="http://www.w3.org/2000/svg" xmlns:xlink="http://www.w3.org/1999/xlink" x="0px" y="0px"
	 viewBox="0 0 48 48" style="enable-background:new 0 0 48 48;" xml:space="preserve">
<path d="M24,33.9c2.1,0,4-0.8,5.5-2.3s2.3-3.4,2.3-5.5c0-2.2-0.8-4.1-2.3-5.6C28,19,26.1,18.2,24,18.2c-2.2,0-4,0.8-5.5,2.3
	s-2.3,3.4-2.3,5.6s0.8,4,2.3,5.5C20,33.1,21.8,33.9,24,33.9z M24,32.2l-1.9-4.4L17.9,26l4.2-1.9l1.9-4.4l1.9,4.4l4.2,1.9l-4.2,1.8
	L24,32.2z M8.8,40c-0.8,0-1.4-0.3-1.9-0.8S6,38,6,37.2V15c0-0.8,0.3-1.4,0.8-2s1.2-0.8,1.9-0.8h6.4L18.9,8h10.3l3.7,4.1h6.4
	c0.8,0,1.4,0.3,2,0.8c0.5,0.5,0.8,1.2,0.8,2v22.3c0,0.8-0.3,1.4-0.8,2S40,40,39.3,40H8.8z M39.2,38.5c0.3,0,0.6-0.1,0.8-0.3
	s0.3-0.5,0.3-0.8V15c0-0.3-0.1-0.6-0.3-0.9s-0.5-0.4-0.8-0.4h-7.1l-3.7-4.1h-8.9l-3.7,4.1h-7c-0.3,0-0.6,0.1-0.8,0.4
	c-0.2,0.2-0.4,0.5-0.3,0.9v22.3c0,0.3,0.1,0.6,0.3,0.8c0.2,0.2,0.5,0.3,0.8,0.3h30.4V38.5z"/>
</svg>
