<?xml version="1.0" encoding="utf-8"?>
<!-- Generator: Adobe Illustrator 26.3.1, SVG Export Plug-In . SVG Version: 6.00 Build 0)  -->
<svg version="1.1" id="Слой_1" xmlns="http://www.w3.org/2000/svg" xmlns:xlink="http://www.w3.org/1999/xlink" x="0px" y="0px"
	 viewBox="0 0 48 48" style="enable-background:new 0 0 48 48;" xml:space="preserve">
<path d="M24.8,35.9c-0.3,0-0.6-0.1-0.8-0.3c-0.2-0.2-0.3-0.5-0.3-0.8v-8.2c0-0.3,0.1-0.6,0.3-0.8c0.2-0.2,0.5-0.3,0.8-0.3h8.4
	c0.3,0,0.6,0.1,0.8,0.3c0.2,0.2,0.3,0.5,0.3,0.8v3.3l3.7-2v5.8l-3.7-2V35c0,0.3-0.1,0.6-0.3,0.8s-0.5,0.3-0.8,0.3
	C33.2,35.9,24.8,35.9,24.8,35.9z M10,40V19L24,8.5L38,19v3.9h-1.5v-3.2L24,10.4l-12.5,9.4v18.7H38V40H10z"/>
</svg>
