<?xml version="1.0" encoding="utf-8"?>
<!-- Generator: Adobe Illustrator 26.3.1, SVG Export Plug-In . SVG Version: 6.00 Build 0)  -->
<svg version="1.1" id="Слой_1" xmlns="http://www.w3.org/2000/svg" xmlns:xlink="http://www.w3.org/1999/xlink" x="0px" y="0px"
	 viewBox="0 0 48 48" style="enable-background:new 0 0 48 48;" xml:space="preserve">
<path d="M12,34.2V8.8c0-0.8,0.3-1.4,0.8-2C13.3,6.3,14,6,14.8,6h18.5c0.8,0,1.4,0.3,2,0.8C35.7,7.3,36,8,36,8.8v25.4h-1.5V8.8
	c0-0.3-0.1-0.6-0.4-0.8c-0.3-0.3-0.5-0.4-0.8-0.4H14.8c-0.3,0-0.6,0.1-0.8,0.4c-0.3,0.3-0.4,0.5-0.4,0.8v25.4H12z M24,19.5
	c0.7,0,1.4-0.3,1.9-0.8s0.8-1.2,0.8-1.9c0-0.7-0.3-1.4-0.8-1.9s-1.2-0.8-1.9-0.8c-0.7,0-1.4,0.3-1.9,0.8s-0.8,1.2-0.8,1.9
	c0,0.7,0.3,1.4,0.8,1.9S23.3,19.5,24,19.5z M20.9,43.6l-1.1-1.1l3.5-3.5H12v-1.5h11.3l-3.6-3.6l1.1-1.1l5.4,5.4L20.9,43.6z M28,39
	v-1.5h8V39H28z"/>
</svg>
