<?xml version="1.0" encoding="utf-8"?>
<!-- Generator: Adobe Illustrator 26.3.1, SVG Export Plug-In . SVG Version: 6.00 Build 0)  -->
<svg version="1.1" id="Слой_1" xmlns="http://www.w3.org/2000/svg" xmlns:xlink="http://www.w3.org/1999/xlink" x="0px" y="0px"
	 viewBox="0 0 48 48" style="enable-background:new 0 0 48 48;" xml:space="preserve">
<path d="M18.1,33.4h8.4c0.3,0,0.6-0.1,0.8-0.3c0.2-0.2,0.3-0.5,0.3-0.8V29l3.7,2v-5.8l-3.7,2V24c0-0.3-0.1-0.6-0.3-0.8
	s-0.5-0.3-0.8-0.3h-8.4c-0.3,0-0.6,0.1-0.8,0.3C17.1,23.4,17,23.7,17,24v8.4c0,0.3,0.1,0.5,0.3,0.8C17.5,33.3,17.8,33.4,18.1,33.4z
	 M10,40V19L24,8.5L38,19v21H10z M11.5,38.5h24.9V19.7L24,10.5l-12.5,9.2V38.5z"/>
</svg>
