<?xml version="1.0" encoding="utf-8"?>
<!-- Generator: Adobe Illustrator 26.3.1, SVG Export Plug-In . SVG Version: 6.00 Build 0)  -->
<svg version="1.1" id="Слой_1" xmlns="http://www.w3.org/2000/svg" xmlns:xlink="http://www.w3.org/1999/xlink" x="0px" y="0px"
	 viewBox="0 0 48 48" style="enable-background:new 0 0 48 48;" xml:space="preserve">
<path d="M17.1,31.7c-0.8,0-1.4-0.3-2-0.8c-0.5-0.5-0.8-1.2-0.8-1.9v-9.8c0-0.7,0.3-1.4,0.8-1.9s1.2-0.8,2-0.8h1.6l1.8-1.8h7.1
	l1.8,1.8H31c0.7,0,1.4,0.3,1.9,0.8s0.8,1.2,0.8,1.9V29c0,0.7-0.3,1.4-0.8,1.9s-1.2,0.8-1.9,0.8C31,31.7,17.1,31.7,17.1,31.7z
	 M17.1,30.1H31c0.4,0,0.7-0.1,0.9-0.4c0.2-0.2,0.3-0.5,0.3-0.9V19c0-0.3-0.1-0.6-0.3-0.9c-0.2-0.2-0.5-0.4-0.9-0.4H17.1
	c-0.4,0-0.7,0.1-0.9,0.4c-0.2,0.2-0.3,0.5-0.3,0.9v9.8c0,0.3,0.1,0.6,0.3,0.9C16.4,30,16.7,30.1,17.1,30.1z M24,26.4
	c0.7,0,1.2-0.2,1.7-0.7s0.7-1,0.7-1.7c0-0.6-0.2-1.2-0.7-1.7s-1-0.7-1.7-0.7c-0.6,0-1.2,0.2-1.7,0.7s-0.7,1-0.7,1.7s0.2,1.2,0.7,1.7
	C22.8,26.2,23.4,26.4,24,26.4z M20.5,2.2C21.1,2.1,21.7,2,22.2,2c0.6,0,1.1,0,1.7,0c2.8,0,5.5,0.5,8.1,1.5s4.8,2.4,6.8,4.2
	s3.6,3.9,4.9,6.3c1.3,2.4,2,5.1,2.3,7.9h-1.5c-0.2-2.6-0.9-5-2.1-7.3c-1.2-2.2-2.7-4.2-4.5-5.8s-4-2.9-6.3-3.9
	c-2.5-0.9-5-1.4-7.6-1.4l4.2,4.2l-1.1,1.1L20.5,2.2z M27.5,45.8c-0.6,0.1-1.1,0.2-1.7,0.2s-1.1,0-1.7,0c-2.9,0-5.6-0.5-8.1-1.5
	c-2.6-1-4.8-2.4-6.8-4.2S5.6,36.4,4.3,34s-2-5.1-2.3-7.9h1.5c0.3,2.6,1,5,2.1,7.3c1.2,2.2,2.7,4.2,4.5,5.8s3.9,2.9,6.3,3.9
	c2.4,0.9,4.9,1.4,7.5,1.5l-4.2-4.2l1.1-1.1L27.5,45.8z"/>
</svg>
