<?xml version="1.0" encoding="utf-8"?>
<!-- Generator: Adobe Illustrator 26.3.1, SVG Export Plug-In . SVG Version: 6.00 Build 0)  -->
<svg version="1.1" id="Слой_1" xmlns="http://www.w3.org/2000/svg" xmlns:xlink="http://www.w3.org/1999/xlink" x="0px" y="0px"
	 viewBox="0 0 48 48" style="enable-background:new 0 0 48 48;" xml:space="preserve">
<path d="M20.9,43.6l-1.1-1.1l3.5-3.5H12v-1.5h11.3l-3.6-3.6l1.1-1.1l5.4,5.4L20.9,43.6z M12,34.2V8.8c0-0.8,0.3-1.4,0.8-2
	C13.3,6.3,14,6,14.8,6h18.5c0.8,0,1.4,0.3,2,0.8C35.7,7.3,36,8,36,8.8v25.4h-1.5v-4.8c-1.3-0.7-2.9-1.3-4.8-1.8s-3.8-0.7-5.6-0.7
	c-1.8,0-3.7,0.2-5.6,0.7s-3.5,1.1-4.9,1.8v4.8H12z M13.5,27.7c1.6-0.7,3.3-1.3,5.1-1.7c1.9-0.4,3.6-0.6,5.3-0.6s3.5,0.2,5.3,0.6
	c1.9,0.4,3.6,1,5.1,1.7V8.8c0-0.3-0.1-0.6-0.4-0.8c-0.3-0.3-0.5-0.4-0.8-0.4H14.8c-0.3,0-0.6,0.1-0.8,0.4c-0.3,0.3-0.4,0.5-0.4,0.8
	v18.9H13.5z M28,39v-1.5h8V39H28z M24,21.8c-1.3,0-2.5-0.5-3.4-1.4s-1.4-2.1-1.4-3.4s0.5-2.5,1.4-3.4s2.1-1.4,3.4-1.4
	s2.5,0.5,3.4,1.4s1.4,2.1,1.4,3.4s-0.5,2.5-1.4,3.4S25.3,21.8,24,21.8z M24,20.2c0.9,0,1.7-0.3,2.3-1c0.6-0.6,1-1.4,1-2.3
	s-0.3-1.7-1-2.3c-0.6-0.6-1.4-1-2.3-1s-1.7,0.3-2.3,1c-0.6,0.6-1,1.4-1,2.3s0.3,1.7,1,2.3C22.3,19.9,23.1,20.2,24,20.2z"/>
</svg>
