<?xml version="1.0" encoding="utf-8"?>
<!-- Generator: Adobe Illustrator 26.3.1, SVG Export Plug-In . SVG Version: 6.00 Build 0)  -->
<svg version="1.1" id="Слой_1" xmlns="http://www.w3.org/2000/svg" xmlns:xlink="http://www.w3.org/1999/xlink" x="0px" y="0px"
	 viewBox="0 0 48 48" style="enable-background:new 0 0 48 48;" xml:space="preserve">
<path d="M36.1,24.8v-1.5h6.2v1.5H36.1z M38.3,37.9l-5-3.7l1-1.2l5,3.7L38.3,37.9z M34.2,14.8l-1-1.2l4.9-3.7l1,1.2L34.2,14.8z
	 M11.2,35.9v-7.6H8.5c-0.7,0-1.4-0.3-1.9-0.8s-0.8-1.2-0.8-1.9v-3.1c0-0.7,0.3-1.4,0.8-1.9s1.2-0.8,1.9-0.8h7.9l7.9-4.7v18l-7.9-4.7
	h-3.6V36C12.8,35.9,11.2,35.9,11.2,35.9z M22.8,30.3V17.7l-6,3.5H8.5c-0.3,0-0.6,0.1-0.8,0.4c-0.3,0.3-0.4,0.5-0.4,0.8v3.1
	c0,0.3,0.1,0.6,0.4,0.8s0.5,0.4,0.8,0.4h8.3C16.8,26.8,22.8,30.3,22.8,30.3z M27.8,29.8V18.2c0.7,0.6,1.2,1.4,1.6,2.4
	s0.6,2.1,0.6,3.3s-0.2,2.3-0.6,3.3C29.1,28.3,28.5,29.2,27.8,29.8z"/>
</svg>
