<?xml version="1.0" encoding="utf-8"?>
<!-- Generator: Adobe Illustrator 26.3.1, SVG Export Plug-In . SVG Version: 6.00 Build 0)  -->
<svg version="1.1" id="Слой_1" xmlns="http://www.w3.org/2000/svg" xmlns:xlink="http://www.w3.org/1999/xlink" x="0px" y="0px"
	 viewBox="0 0 48 48" style="enable-background:new 0 0 48 48;" xml:space="preserve">
<path d="M7.5,25.1v4.1c0,0.3,0.1,0.6,0.4,0.8c0.3,0.3,0.5,0.4,0.8,0.4h30.5c0.3,0,0.6-0.1,0.8-0.4c0.3-0.3,0.4-0.5,0.4-0.8v-4.1H7.5
	z M8.8,6h30.5c0.7,0,1.4,0.3,1.9,0.8C41.7,7.4,42,8,42,8.8v20.5c0,0.7-0.3,1.4-0.8,1.9c-0.6,0.5-1.2,0.8-2,0.8h-9.7v8.5L24,37.8
	l-5.5,2.8V32H8.8c-0.7,0-1.4-0.3-1.9-0.8S6,30,6,29.2V8.8c0-0.8,0.3-1.4,0.8-2C7.4,6.3,8,6,8.8,6z M7.5,21.1h32.9V8.8
	c0-0.3-0.1-0.6-0.4-0.8c-0.3-0.3-0.5-0.4-0.8-0.4H8.8C8.5,7.6,8.2,7.7,8,8C7.7,8.2,7.5,8.5,7.5,8.8V21.1z M7.5,29.2V7.5h1.2
	c-0.3,0-0.6,0.1-0.8,0.4C7.7,8.2,7.5,8.5,7.5,8.8V29.2c0,0.3,0.1,0.6,0.4,0.8c0.3,0.3,0.5,0.4,0.8,0.4H7.5V29.2z"/>
</svg>
