<?xml version="1.0" encoding="utf-8"?>
<!-- Generator: Adobe Illustrator 26.3.1, SVG Export Plug-In . SVG Version: 6.00 Build 0)  -->
<svg version="1.1" id="Слой_1" xmlns="http://www.w3.org/2000/svg" xmlns:xlink="http://www.w3.org/1999/xlink" x="0px" y="0px"
	 viewBox="0 0 48 48" style="enable-background:new 0 0 48 48;" xml:space="preserve">
<path d="M14.8,8c1.8,0,3.5,0.5,5.1,1.5s2.9,2.4,4.1,4.3c1.3-1.9,2.7-3.4,4.2-4.3c1.5-1,3.2-1.4,5-1.4c2.5,0,4.6,0.8,6.2,2.5
	s2.5,3.8,2.5,6.3c0,0.4,0,0.7-0.1,1.1c0,0.3-0.1,0.7-0.2,1.1H40c0.1-0.4,0.1-0.7,0.2-1.1c0.1-0.3,0.1-0.7,0.1-1.1
	c0-2.1-0.7-3.8-2.1-5.2c-1.4-1.4-3.1-2.1-5.2-2.1c-1.7,0-3.2,0.5-4.6,1.5s-2.7,2.5-4,4.6h-1.3c-1.3-2.1-2.6-3.6-4-4.6
	s-2.9-1.5-4.6-1.5c-2,0-3.8,0.7-5.2,2.1s-2.1,3.1-2.1,5.2c0,0.4,0,0.7,0.1,1.1c0.1,0.3,0.1,0.7,0.2,1.1H6.2C6.1,18.7,6.1,18.4,6,18
	c0-0.5,0-0.8,0-1.2c0-2.5,0.8-4.6,2.5-6.3S12.3,8,14.8,8z M12.8,29.1h2c1.2,1.2,2.5,2.6,4,4c1.5,1.4,3.3,3.1,5.2,4.9
	c1.9-1.8,3.7-3.4,5.2-4.8c1.5-1.4,2.9-2.8,4-4h2c-1.2,1.4-2.7,2.8-4.3,4.4c-1.7,1.6-3.6,3.4-5.8,5.5L24,40l-1.1-1
	c-2.2-2-4.1-3.9-5.8-5.5C15.4,31.9,14,30.4,12.8,29.1z M22.1,30.8c0.1,0,0.3,0,0.4-0.1s0.2-0.2,0.2-0.4l3.5-10.5l2.9,4.4
	c0.2,0.2,0.3,0.4,0.5,0.5s0.4,0.2,0.6,0.2h14.5v-1.5H30.4l-3.8-5.6c-0.1-0.1-0.2-0.2-0.3-0.3c-0.1,0-0.2-0.1-0.4-0.1
	c-0.1,0-0.3,0-0.4,0.1s-0.2,0.2-0.2,0.4l-3.5,10.5l-3-4.5c-0.1-0.2-0.3-0.3-0.5-0.4s-0.4-0.2-0.6-0.2H3.2v1.5h14.3l3.8,5.7
	c0.1,0.2,0.2,0.3,0.4,0.3C21.8,30.8,22,30.8,22.1,30.8z"/>
</svg>
