<?xml version="1.0" encoding="utf-8"?>
<!-- Generator: Adobe Illustrator 26.3.1, SVG Export Plug-In . SVG Version: 6.00 Build 0)  -->
<svg version="1.1" id="Слой_1" xmlns="http://www.w3.org/2000/svg" xmlns:xlink="http://www.w3.org/1999/xlink" x="0px" y="0px"
	 viewBox="0 0 48 48" style="enable-background:new 0 0 48 48;" xml:space="preserve">
<path d="M7.5,33.2v4c0,0.3,0.1,0.6,0.4,0.8c0.3,0.3,0.5,0.4,0.8,0.4h30.5c0.3,0,0.6-0.1,0.8-0.4c0.3-0.3,0.4-0.5,0.4-0.8v-4H7.5z
	 M16.3,14v-3.7c0-0.8,0.3-1.4,0.8-2c0.5-0.5,1.2-0.8,2-0.8h9.8c0.8,0,1.4,0.3,2,0.8c0.5,0.5,0.8,1.2,0.8,2V14h7.5
	c0.8,0,1.4,0.3,2,0.8c0.5,0.5,0.8,1.2,0.8,2v20.5c0,0.8-0.3,1.4-0.8,2c-0.5,0.5-1.2,0.8-2,0.8H8.8c-0.8,0-1.4-0.3-2-0.8
	C6.3,38.7,6,38,6,37.2V16.8c0-0.8,0.3-1.4,0.8-2C7.3,14.3,8,14,8.8,14H16.3z M7.5,29.2h32.9V16.8c0-0.3-0.1-0.6-0.4-0.8
	c-0.3-0.3-0.5-0.4-0.8-0.4h-7.5v3.1h-1.5v-3.1H17.8v3.1h-1.5v-3.1H8.8c-0.3,0-0.6,0.1-0.8,0.4c-0.3,0.3-0.4,0.5-0.4,0.8
	C7.5,16.8,7.5,29.2,7.5,29.2z M17.8,14h12.3v-3.7c0-0.3-0.1-0.6-0.4-0.8c-0.3-0.3-0.5-0.4-0.8-0.4h-9.8c-0.3,0-0.6,0.1-0.8,0.4
	c-0.3,0.3-0.4,0.5-0.4,0.8C17.8,10.3,17.8,14,17.8,14z M7.5,37.2V15.5v3.1v-3.1v3.1v-3.1h1.2c-0.3,0-0.6,0.1-0.8,0.4
	c-0.3,0.3-0.4,0.5-0.4,0.8L7.5,37.2c0,0.3,0.1,0.6,0.4,0.8c0.3,0.3,0.5,0.4,0.8,0.4H7.5V37.2z"/>
</svg>
