<?xml version="1.0" encoding="utf-8"?>
<!-- Generator: Adobe Illustrator 26.3.1, SVG Export Plug-In . SVG Version: 6.00 Build 0)  -->
<svg version="1.1" id="Слой_1" xmlns="http://www.w3.org/2000/svg" xmlns:xlink="http://www.w3.org/1999/xlink" x="0px" y="0px"
	 viewBox="0 0 48 48" style="enable-background:new 0 0 48 48;" xml:space="preserve">
<path d="M24.1,39.8l-1.7-1.5c-3.4-3.1-6.2-5.7-8.3-7.8s-3.8-4-5-5.6s-2-3-2.4-4.2c-0.4-1.2-0.6-2.5-0.6-3.7c0-2.5,0.8-4.6,2.5-6.3
	C10.3,8.9,12.3,8,14.8,8c1.8,0,3.5,0.5,5.1,1.5s3,2.4,4.1,4.3c1.2-1.9,2.6-3.3,4.1-4.3S31.3,8,33.2,8c2.4,0,4.5,0.9,6.2,2.6
	s2.5,3.8,2.5,6.3c0,1.3-0.2,2.5-0.6,3.7c-0.4,1.2-1.2,2.6-2.4,4.2s-2.8,3.5-5,5.6c-2.1,2.1-4.9,4.7-8.3,7.8
	C25.7,38.3,24.1,39.8,24.1,39.8z M9,22h30.1c0.5-0.9,0.9-1.8,1.1-2.6c0.2-0.8,0.3-1.6,0.3-2.5c0-2.1-0.7-3.9-2.1-5.3
	c-1.4-1.4-3.1-2.1-5.2-2.1c-1.7,0-3.2,0.5-4.6,1.5s-2.7,2.5-3.8,4.5h-1.7c-1.1-2-2.4-3.6-3.8-4.5c-1.4-1-2.9-1.5-4.6-1.5
	c-2.1,0-3.8,0.7-5.2,2.1s-2,3.2-2,5.3c0,0.8,0.1,1.6,0.3,2.5C8.1,20.2,8.5,21.1,9,22z M14.2,28.5h19.6c0.9-1,1.8-1.9,2.5-2.7
	c0.7-0.8,1.3-1.6,1.8-2.3H10c0.5,0.7,1.1,1.5,1.8,2.3C12.5,26.7,13.3,27.6,14.2,28.5z M24.1,37.8c1.7-1.5,3.2-2.9,4.6-4.2
	s2.6-2.5,3.7-3.5H15.8c1.1,1.1,2.3,2.3,3.7,3.5C20.8,34.9,22.4,36.3,24.1,37.8z"/>
</svg>
