<?xml version="1.0" encoding="utf-8"?>
<!-- Generator: Adobe Illustrator 26.3.1, SVG Export Plug-In . SVG Version: 6.00 Build 0)  -->
<svg version="1.1" id="Слой_1" xmlns="http://www.w3.org/2000/svg" xmlns:xlink="http://www.w3.org/1999/xlink" x="0px" y="0px"
	 viewBox="0 0 48 48" style="enable-background:new 0 0 48 48;" xml:space="preserve">
<path d="M30.3,41.9c-0.3,0.3-0.6,0.5-0.9,0.6c-0.4,0.1-0.7,0.2-1,0.2s-0.7-0.1-1-0.2c-0.3-0.1-0.6-0.3-0.9-0.6l-3-3
	c-0.3-0.3-0.5-0.6-0.6-0.9c-0.1-0.3-0.2-0.7-0.2-1s0.1-0.7,0.2-1s0.3-0.6,0.6-0.9l0.8-0.9L7.5,10.6l6.2-6.2l25.1,25.1
	c0.3,0.3,0.5,0.6,0.6,0.9c0.2,0.4,0.2,0.7,0.2,1s-0.1,0.7-0.2,1c-0.1,0.3-0.4,0.6-0.6,0.9L30.3,41.9z M25.2,33.1l7.5-7.5l-19-19.1
	l-4.2,4.2L25.2,33.1z M27.5,40.8c0.3,0.2,0.6,0.3,0.9,0.3s0.6-0.1,0.8-0.3l8.5-8.5c0.2-0.2,0.3-0.5,0.3-0.8s-0.1-0.6-0.3-0.9l-3.9-4
	L24.4,36c-0.3,0.3-0.4,0.6-0.4,0.9c0,0.3,0.1,0.6,0.4,0.9L27.5,40.8z M25.2,33.1l7.5-7.5C32.7,25.6,25.2,33.1,25.2,33.1z"/>
</svg>
