<?xml version="1.0" encoding="utf-8"?>
<!-- Generator: Adobe Illustrator 26.3.1, SVG Export Plug-In . SVG Version: 6.00 Build 0)  -->
<svg version="1.1" id="Слой_1" xmlns="http://www.w3.org/2000/svg" xmlns:xlink="http://www.w3.org/1999/xlink" x="0px" y="0px"
	 viewBox="0 0 48 48" style="enable-background:new 0 0 48 48;" xml:space="preserve">
<path d="M29.8,34.2c1.4,0,2.5,0.5,3.4,1.4s1.4,2.1,1.4,3.4s-0.5,2.5-1.4,3.4s-2.1,1.4-3.4,1.4s-2.4-0.4-3.3-1.2s-1.4-1.8-1.5-3h-8.4
	c-0.8,0-1.4-0.3-2-0.8c-0.5-0.5-0.8-1.2-0.8-2V19.1c0-0.8,0.3-1.4,0.8-2c0.5-0.5,1.2-0.8,2-0.8h11.7V7.5h-1.8
	c-0.4,0-0.8-0.2-1.1-0.5C25.1,6.8,25,6.4,25,6h4.9C29.8,6,29.8,34.2,29.8,34.2z M18.9,38.1V17.9h-2.3c-0.4,0-0.7,0.1-0.9,0.3
	c-0.2,0.2-0.3,0.5-0.3,0.9v17.7c0,0.4,0.1,0.7,0.3,0.9s0.5,0.3,0.9,0.3C16.6,38.1,18.9,38.1,18.9,38.1z M20.5,17.9v20.2h4.6
	c0.1-0.9,0.4-1.6,1-2.3s1.3-1.2,2.2-1.5V17.9C28.3,17.9,20.5,17.9,20.5,17.9z M29.8,42.3c0.9,0,1.7-0.3,2.3-1c0.6-0.6,1-1.4,1-2.3
	c0-0.9-0.3-1.7-1-2.3c-0.6-0.6-1.4-1-2.3-1s-1.7,0.3-2.3,1c-0.6,0.6-1,1.4-1,2.3c0,0.9,0.3,1.7,1,2.3C28.1,42,28.9,42.3,29.8,42.3z
	 M18.9,38.1V17.9V38.1z M20.5,17.9v20.2V17.9z"/>
</svg>
