<?xml version="1.0" encoding="utf-8"?>
<!-- Generator: Adobe Illustrator 26.3.1, SVG Export Plug-In . SVG Version: 6.00 Build 0)  -->
<svg version="1.1" id="Слой_1" xmlns="http://www.w3.org/2000/svg" xmlns:xlink="http://www.w3.org/1999/xlink" x="0px" y="0px"
	 viewBox="0 0 48 48" style="enable-background:new 0 0 48 48;" xml:space="preserve">
<path d="M33.4,39.4l6.7-6.7l-1.1-1l-5.6,5.6l-2.9-2.9l-1.1,1.1C29.4,35.5,33.4,39.4,33.4,39.4z M18.9,38.1V17.9h-2.3
	c-0.4,0-0.7,0.1-0.9,0.3c-0.2,0.2-0.3,0.5-0.3,0.9v17.7c0,0.4,0.1,0.7,0.3,0.9s0.5,0.3,0.9,0.3C16.6,38.1,18.9,38.1,18.9,38.1z
	 M24,39.6h-7.4c-0.8,0-1.4-0.3-2-0.8c-0.5-0.5-0.8-1.2-0.8-2V19.1c0-0.8,0.3-1.4,0.8-2c0.5-0.5,1.2-0.8,2-0.8h11.7V7.5h-1.8
	c-0.4,0-0.8-0.2-1.1-0.5C25.1,6.8,25,6.4,25,6h4.9v19c-0.2,0.1-0.4,0.3-0.8,0.4c-0.3,0.2-0.6,0.4-0.8,0.5v-8.1h-7.8V38h3.1
	c0,0.2,0.1,0.5,0.2,0.8C23.8,39.2,23.9,39.4,24,39.6z M34.8,27.6c2.2,0,4,0.8,5.6,2.3c1.5,1.5,2.3,3.4,2.3,5.6s-0.8,4-2.3,5.6
	c-1.5,1.5-3.4,2.3-5.6,2.3s-4-0.8-5.6-2.3c-1.5-1.5-2.3-3.4-2.3-5.6c0-2.2,0.8-4,2.3-5.6C30.7,28.4,32.6,27.6,34.8,27.6z M18.9,38.1
	V17.9V38.1z M20.5,38.1V17.9V38.1z"/>
</svg>
