<?xml version="1.0" encoding="utf-8"?>
<!-- Generator: Adobe Illustrator 26.3.1, SVG Export Plug-In . SVG Version: 6.00 Build 0)  -->
<svg version="1.1" id="Слой_1" xmlns="http://www.w3.org/2000/svg" xmlns:xlink="http://www.w3.org/1999/xlink" x="0px" y="0px"
	 viewBox="0 0 48 48" style="enable-background:new 0 0 48 48;" xml:space="preserve">
<path d="M28.3,27.1l-1.5-1.5v-7.7H19l-1.5-1.5h9.3V7.5H25c-0.4,0-0.8-0.2-1.1-0.5c-0.3-0.3-0.4-0.7-0.4-1.1h4.9v21.2H28.3z
	 M36.7,42.8l-3.5-3.5c-0.1,1.2-0.5,2.2-1.4,3.2s-2,1.4-3.4,1.4c-1.3,0-2.5-0.4-3.3-1.3c-0.9-0.9-1.4-1.8-1.5-2.9h-8.4
	c-0.8,0-1.4-0.3-2-0.8s-0.8-1.2-0.8-2V19.1c0-0.1,0-0.2,0-0.3c0-0.1,0.1-0.2,0.2-0.2l-7.9-7.9l1.1-1.1l32,32
	C37.8,41.6,36.7,42.8,36.7,42.8z M17.4,38.1V23.5l-3.6-3.6v17c0,0.4,0.1,0.7,0.3,0.9s0.5,0.3,0.9,0.3C15,38.1,17.4,38.1,17.4,38.1z
	 M28.3,42.3c0.9,0,1.7-0.3,2.4-1c0.6-0.6,1-1.4,1-2.3c0-0.9-0.3-1.7-1-2.4c-0.6-0.6-1.4-1-2.3-1s-1.7,0.3-2.4,1
	c-0.6,0.6-1,1.4-1,2.3c0,0.9,0.3,1.7,1,2.4C26.6,42,27.4,42.3,28.3,42.3z M18.9,38.1h4.6c0.1-0.8,0.5-1.5,1.1-2.3
	c0.7-0.8,1.4-1.3,2.1-1.5v-1.5L18.9,25V38.1z M17.4,38.1V23.5V38.1z M18.9,38.1V25V38.1z"/>
</svg>
