<?xml version="1.0" encoding="utf-8"?>
<!-- Generator: Adobe Illustrator 26.3.1, SVG Export Plug-In . SVG Version: 6.00 Build 0)  -->
<svg version="1.1" id="Слой_1" xmlns="http://www.w3.org/2000/svg" xmlns:xlink="http://www.w3.org/1999/xlink" x="0px" y="0px"
	 viewBox="0 0 48 48" style="enable-background:new 0 0 48 48;" xml:space="preserve">
<path d="M6.8,40.4c-0.8,0-1.4-0.3-2-0.8C4.3,39,4,38.4,4,37.6V18.9h1.5v18.8c0,0.3,0.1,0.6,0.4,0.8c0.3,0.3,0.5,0.4,0.8,0.4h28.1
	v1.5C34.9,40.4,6.8,40.4,6.8,40.4z M11.8,35.3c-0.8,0-1.4-0.3-2-0.8C9.3,34,9,33.3,9,32.5V12h11.6V8.8c0-0.8,0.3-1.4,0.8-2
	C22,6.3,22.7,6,23.4,6h6.2c0.8,0,1.4,0.3,2,0.8c0.5,0.5,0.8,1.2,0.8,2V12H44v20.6c0,0.8-0.3,1.4-0.8,2c-0.5,0.5-1.2,0.8-2,0.8
	C41.2,35.3,11.8,35.3,11.8,35.3z M11.8,33.8h29.4c0.3,0,0.6-0.1,0.8-0.4c0.3-0.3,0.4-0.5,0.4-0.8v-19H10.6v19c0,0.3,0.1,0.6,0.4,0.8
	S11.5,33.8,11.8,33.8z M22.2,12h8.6V8.8c0-0.3-0.1-0.6-0.4-0.8c-0.3-0.3-0.5-0.4-0.8-0.4h-6.2c-0.3,0-0.6,0.1-0.8,0.4
	c-0.3,0.3-0.4,0.5-0.4,0.8C22.2,8.8,22.2,12,22.2,12z M10.6,33.8V13.5V33.8z"/>
</svg>
