<?xml version="1.0" encoding="utf-8"?>
<!-- Generator: Adobe Illustrator 26.3.1, SVG Export Plug-In . SVG Version: 6.00 Build 0)  -->
<svg version="1.1" id="Слой_1" xmlns="http://www.w3.org/2000/svg" xmlns:xlink="http://www.w3.org/1999/xlink" x="0px" y="0px"
	 viewBox="0 0 48 48" style="enable-background:new 0 0 48 48;" xml:space="preserve">
<path d="M3,41V19.2h1.5v4h6.7V7h1.5v4h6.5V7h1.5v4h6.5V7h1.5v4h6.5V7h1.5v16.2h6.7v-4H45V41H29.2v-5c0-1.5-0.5-2.7-1.5-3.7
	s-2.2-1.5-3.7-1.5s-2.7,0.5-3.7,1.5s-1.5,2.2-1.5,3.7v5H3z M4.5,39.5h12.7V36c0-1.9,0.7-3.5,2-4.8s2.9-2,4.8-2s3.5,0.7,4.8,2
	s2,2.9,2,4.8v3.5h12.7V24.8h-8.2V12.5H12.8v12.2H4.5C4.5,24.8,4.5,39.5,4.5,39.5z M19.2,22.8h1.5v-4.2h-1.5V22.8z M27.2,22.8h1.5
	v-4.2h-1.5V22.8z"/>
</svg>
