<?xml version="1.0" encoding="utf-8"?>
<!-- Generator: Adobe Illustrator 26.3.1, SVG Export Plug-In . SVG Version: 6.00 Build 0)  -->
<svg version="1.1" id="Слой_1" xmlns="http://www.w3.org/2000/svg" xmlns:xlink="http://www.w3.org/1999/xlink" x="0px" y="0px"
	 viewBox="0 0 48 48" style="enable-background:new 0 0 48 48;" xml:space="preserve">
<path d="M37.7,15.9h1.4V9.3h-1.4V15.9z M33.3,15.9h1.4V9.3h-1.4V15.9z M6,34.5c0.9,0,1.7,0.3,2.4,1s1,1.5,1,2.4H6V34.5z M6,27.8
	c2.8,0,5.2,1,7.2,3s3,4.4,3,7.3h-1.5c0-2.4-0.8-4.4-2.5-6.1c-1.7-1.7-3.7-2.6-6.1-2.6C6,29.3,6,27.8,6,27.8z M6,20.2
	c2.5,0,4.8,0.5,6.9,1.4s4,2.2,5.6,3.8c1.6,1.6,2.9,3.5,3.8,5.6c0.9,2.2,1.4,4.5,1.4,6.9h-1.5c0-2.2-0.4-4.3-1.3-6.3
	c-0.8-2-2-3.7-3.4-5.2C16,25,14.3,23.9,12.3,23c-2-0.8-4.1-1.3-6.3-1.3V20.2z M39.2,38H28.9c0-0.2,0-0.5,0-0.8s0-0.5,0-0.8h10.4
	c0.4,0,0.7-0.1,0.9-0.3s0.3-0.5,0.3-0.9V23.9c0.3-0.1,0.6-0.2,0.8-0.4c0.3-0.1,0.5-0.3,0.7-0.4v12.1c0,0.7-0.3,1.4-0.8,1.9
	C40.7,37.7,40,38,39.2,38z M6,15v-2.2c0-0.7,0.3-1.4,0.8-1.9C7.4,10.3,8,10,8.8,10h15.6c-0.1,0.2-0.1,0.5-0.1,0.7
	c0,0.3-0.1,0.5-0.1,0.8H8.8c-0.3,0-0.6,0.1-0.9,0.3c-0.2,0.2-0.4,0.5-0.4,0.9V15c-0.2,0-0.5,0-0.8,0C6.5,15,6.3,15,6,15z M36.2,20.4
	c-2.1,0-4-0.8-5.5-2.3s-2.3-3.3-2.3-5.5c0-2.1,0.8-4,2.3-5.5s3.4-2.3,5.5-2.3s4,0.8,5.5,2.3s2.3,3.3,2.3,5.5s-0.8,4-2.3,5.5
	S38.4,20.4,36.2,20.4z"/>
</svg>
