<?xml version="1.0" encoding="utf-8"?>
<!-- Generator: Adobe Illustrator 26.3.1, SVG Export Plug-In . SVG Version: 6.00 Build 0)  -->
<svg version="1.1" id="Слой_1" xmlns="http://www.w3.org/2000/svg" xmlns:xlink="http://www.w3.org/1999/xlink" x="0px" y="0px"
	 viewBox="0 0 48 48" style="enable-background:new 0 0 48 48;" xml:space="preserve">
<path d="M34.9,30.9h-7.1c-0.1-0.2-0.1-0.5-0.2-0.8s-0.2-0.5-0.3-0.7h6.1V18.6h-15c-0.5-0.3-1-0.6-1.5-0.8c-0.5-0.3-1.1-0.5-1.6-0.7
	h19.6V30.9z M6,38v-3.5c0.9,0,1.7,0.3,2.4,1s1,1.5,1,2.4C9.4,38,6,38,6,38z M14.6,38c0-2.4-0.8-4.4-2.5-6.1
	c-1.7-1.7-3.7-2.6-6.1-2.6v-1.5c2.8,0,5.2,1,7.2,3s3,4.4,3,7.3L14.6,38L14.6,38z M22.2,38c0-2.2-0.4-4.3-1.3-6.3
	c-0.8-2-2-3.7-3.4-5.2C16,25,14.3,23.9,12.3,23c-2-0.8-4.1-1.3-6.3-1.3v-1.5c2.5,0,4.8,0.5,6.9,1.4s4,2.2,5.6,3.8
	c1.6,1.6,2.9,3.5,3.8,5.6c0.9,2.2,1.4,4.5,1.4,6.9C23.7,38,22.2,38,22.2,38z M39.2,38H28.9c0-0.2,0-0.5,0-0.8s0-0.5,0-0.8h10.4
	c0.4,0,0.7-0.1,0.9-0.3s0.3-0.5,0.3-0.9V12.8c0-0.4-0.1-0.7-0.3-0.9s-0.5-0.3-0.9-0.3H8.8c-0.3,0-0.6,0.1-0.9,0.3
	c-0.2,0.2-0.4,0.5-0.4,0.9V15c-0.2,0-0.5,0-0.8,0s-0.5,0-0.8,0v-2.2c0-0.7,0.3-1.4,0.8-1.9C7.4,10.3,8,10,8.8,10h30.5
	c0.8,0,1.4,0.3,2,0.8c0.5,0.6,0.8,1.2,0.8,1.9v22.5c0,0.7-0.3,1.4-0.8,1.9C40.7,37.7,40,38,39.2,38z"/>
</svg>
