<?xml version="1.0" encoding="utf-8"?>
<!-- Generator: Adobe Illustrator 26.3.1, SVG Export Plug-In . SVG Version: 6.00 Build 0)  -->
<svg version="1.1" id="Слой_1" xmlns="http://www.w3.org/2000/svg" xmlns:xlink="http://www.w3.org/1999/xlink" x="0px" y="0px"
	 viewBox="0 0 48 48" style="enable-background:new 0 0 48 48;" xml:space="preserve">
<path d="M6,38.9V26.3h12.5v12.5H6V38.9z M7.5,37.3H17v-9.5H7.5V37.3z M14.2,17.9l8.2-13.4l8.2,13.4C30.7,17.9,14.2,17.9,14.2,17.9z
	 M17,16.3h11l-5.6-8.9L17,16.3z M43.4,43.5l-5.1-5.1c-0.7,0.5-1.4,0.9-2.2,1.2S34.5,40,33.6,40c-2.1,0-3.8-0.7-5.2-2.1
	c-1.4-1.4-2.1-3.1-2.1-5.2s0.7-3.8,2.1-5.2c1.4-1.4,3.1-2.1,5.2-2.1s3.8,0.7,5.2,2.1s2.1,3.1,2.1,5.2c0,0.9-0.1,1.7-0.4,2.5
	c-0.3,0.8-0.7,1.4-1.2,2.1l5.1,5.1L43.4,43.5z M33.6,38.5c1.6,0,3-0.6,4.1-1.7c1.1-1.1,1.7-2.5,1.7-4.1c0-1.6-0.6-3-1.7-4.1
	c-1.1-1.1-2.5-1.7-4.1-1.7c-1.6,0-3,0.6-4.1,1.7s-1.7,2.5-1.7,4.1c0,1.6,0.6,3,1.7,4.1C30.6,37.9,32,38.5,33.6,38.5z"/>
</svg>
