<?xml version="1.0" encoding="utf-8"?>
<!-- Generator: Adobe Illustrator 26.3.1, SVG Export Plug-In . SVG Version: 6.00 Build 0)  -->
<svg version="1.1" id="Слой_1" xmlns="http://www.w3.org/2000/svg" xmlns:xlink="http://www.w3.org/1999/xlink" x="0px" y="0px"
	 viewBox="0 0 48 48" style="enable-background:new 0 0 48 48;" xml:space="preserve">
<path d="M24,29.6c-1.6,0-2.9-0.5-4-1.6s-1.6-2.4-1.6-4s0.5-2.9,1.6-4s2.4-1.6,4-1.6s2.9,0.5,4,1.6s1.6,2.4,1.6,4s-0.5,2.9-1.6,4
	S25.6,29.6,24,29.6z M24,28.1c1.1,0,2.1-0.4,2.9-1.2c0.8-0.8,1.2-1.7,1.2-2.9c0-1.1-0.4-2.1-1.2-2.9c-0.8-0.8-1.7-1.2-2.9-1.2
	c-1.1,0-2.1,0.4-2.9,1.2c-0.8,0.8-1.2,1.7-1.2,2.9c0,1.1,0.4,2.1,1.2,2.9C21.9,27.7,22.9,28.1,24,28.1z M10.8,40
	c-0.8,0-1.4-0.3-2-0.8C8.3,38.7,8,38,8,37.2v-7h1.5v7.1c0,0.3,0.1,0.6,0.4,0.8s0.5,0.4,0.8,0.4h7.1V40H10.8z M30.2,40v-1.5h7.1
	c0.3,0,0.6-0.1,0.8-0.4c0.3-0.3,0.4-0.5,0.4-0.8v-7.1H40v7c0,0.8-0.3,1.4-0.8,2c-0.5,0.5-1.2,0.8-2,0.8C37.2,40,30.2,40,30.2,40z
	 M8,17.8v-7c0-0.8,0.3-1.4,0.8-2C9.3,8.3,10,8,10.8,8h7v1.5h-7.1c-0.3,0-0.6,0.1-0.8,0.4c-0.3,0.3-0.4,0.5-0.4,0.8v7.1H8z
	 M38.5,17.8v-7.1c0-0.3-0.1-0.6-0.4-0.8c-0.3-0.3-0.5-0.4-0.8-0.4h-7.1V8h7c0.8,0,1.4,0.3,2,0.8c0.5,0.5,0.8,1.2,0.8,2v7H38.5z"/>
</svg>
