<?xml version="1.0" encoding="utf-8"?>
<!-- Generator: Adobe Illustrator 26.3.1, SVG Export Plug-In . SVG Version: 6.00 Build 0)  -->
<svg version="1.1" id="Слой_1" xmlns="http://www.w3.org/2000/svg" xmlns:xlink="http://www.w3.org/1999/xlink" x="0px" y="0px"
	 viewBox="0 0 48 48" style="enable-background:new 0 0 48 48;" xml:space="preserve">
<path d="M9.9,38.7c-0.2,0-0.4-0.1-0.5-0.2c-0.1-0.1-0.2-0.3-0.2-0.5v-2.1H7.8c-1.1,0-2-0.4-2.7-1.1C4.4,34.1,4,33.2,4,32.1v-11
	c0-1.3,0.4-2.2,1.2-2.8c0.8-0.6,1.6-0.8,2.4-0.8v-3.4c0-1,0.3-1.9,1-2.6c0.7-0.7,1.5-1,2.6-1h25.5c1,0,1.9,0.3,2.6,1
	c0.7,0.7,1,1.6,1,2.6v3.4c0.9,0,1.8,0.3,2.5,0.9s1.1,1.5,1.1,2.7v11c0,1.1-0.4,2-1.1,2.7c-0.7,0.7-1.6,1.1-2.7,1.1h-1.4V38
	c0,0.2-0.1,0.4-0.2,0.5c-0.1,0.1-0.3,0.2-0.5,0.2s-0.4-0.1-0.5-0.2c-0.1-0.1-0.2-0.3-0.2-0.5v-2.1H10.7V38c0,0.2-0.1,0.4-0.2,0.5
	C10.3,38.6,10.1,38.7,9.9,38.7z M7.8,34.3h32.5c0.6,0,1.1-0.2,1.6-0.7c0.4-0.4,0.7-1,0.7-1.6V21c0-0.6-0.2-1.1-0.6-1.5
	c-0.5-0.3-1-0.5-1.6-0.5s-1.1,0.2-1.5,0.6s-0.6,0.9-0.6,1.5v7.4H9.7v-7.4c0-0.6-0.2-1.1-0.6-1.5C8.7,19.2,8.2,19,7.6,19
	s-1.1,0.2-1.5,0.6s-0.6,0.9-0.6,1.5v11c0,0.6,0.2,1.1,0.7,1.6C6.6,34.1,7.2,34.3,7.8,34.3z M11.2,26.9h25.5v-5.8
	c0-0.8,0.2-1.5,0.6-2c0.4-0.6,0.9-1,1.5-1.3v-3.7c0-0.6-0.2-1.1-0.6-1.5c-0.4-0.4-0.9-0.6-1.5-0.6H11.2c-0.6,0-1.1,0.2-1.5,0.6
	c-0.4,0.4-0.6,0.9-0.6,1.5v3.7c0.6,0.3,1.1,0.7,1.5,1.3c0.4,0.6,0.6,1.3,0.6,2C11.2,21.1,11.2,26.9,11.2,26.9z"/>
</svg>
