<?xml version="1.0" encoding="utf-8"?>
<!-- Generator: Adobe Illustrator 26.3.1, SVG Export Plug-In . SVG Version: 6.00 Build 0)  -->
<svg version="1.1" id="Слой_1" xmlns="http://www.w3.org/2000/svg" xmlns:xlink="http://www.w3.org/1999/xlink" x="0px" y="0px"
	 viewBox="0 0 48 48" style="enable-background:new 0 0 48 48;" xml:space="preserve">
<path d="M12.8,39.6V27.1c0-0.8,0.3-1.5,0.8-2s1.2-0.8,2-0.8h2.2v-4.4h-2.2c-0.8,0-1.4-0.3-2-0.8c-0.5-0.5-0.8-1.2-0.8-2v-5.2
	c0-0.8,0.3-1.4,0.8-2c0.5-0.5,1.2-0.8,2-0.8h16.9c0.8,0,1.4,0.3,2,0.8c0.5,0.5,0.8,1.2,0.8,2v5.2c0,0.8-0.3,1.4-0.8,2
	c-0.5,0.5-1.2,0.8-2,0.8h-2.2v4.4h2.2c0.8,0,1.4,0.3,2,0.8c0.5,0.5,0.8,1.2,0.8,2v12.6h-1.5v-6.1H14.3v6.1
	C14.3,39.6,12.8,39.6,12.8,39.6z M15.5,18.4h16.9c0.3,0,0.6-0.1,0.8-0.4c0.3-0.3,0.4-0.5,0.4-0.8V12c0-0.3-0.1-0.6-0.4-0.8
	c-0.3-0.3-0.5-0.4-0.8-0.4H15.5c-0.3,0-0.6,0.1-0.8,0.4c-0.3,0.3-0.4,0.5-0.4,0.8v5.2c0,0.3,0.1,0.6,0.4,0.8
	C14.9,18.2,15.2,18.4,15.5,18.4z M19.3,24.3h9.4v-4.4h-9.4V24.3z M14.3,32h19.4v-5c0-0.3-0.1-0.6-0.4-0.8c-0.3-0.3-0.5-0.4-0.8-0.4
	h-17c-0.3,0-0.6,0.1-0.8,0.4c-0.3,0.3-0.4,0.5-0.4,0.8C14.3,27.1,14.3,32,14.3,32z M14.3,18.4v-7.7V18.4z M14.3,32v-6.2V32z"/>
</svg>
