<?xml version="1.0" encoding="utf-8"?>
<!-- Generator: Adobe Illustrator 26.3.1, SVG Export Plug-In . SVG Version: 6.00 Build 0)  -->
<svg version="1.1" id="Слой_1" xmlns="http://www.w3.org/2000/svg" xmlns:xlink="http://www.w3.org/1999/xlink" x="0px" y="0px"
	 viewBox="0 0 48 48" style="enable-background:new 0 0 48 48;" xml:space="preserve">
<path d="M7,37.6V9.8c0-0.8,0.3-1.4,0.8-2C8.4,7.3,9,7,9.8,7h24.5c0.7,0,1.4,0.3,1.9,0.8C36.7,8.4,37,9,37,9.8V20c-0.2,0-0.3,0-0.5,0
	s-0.3,0-0.5,0c-0.1,0-0.2,0-0.3,0s-0.2,0-0.3,0V9.8c0-0.4-0.1-0.7-0.3-0.9s-0.5-0.3-0.9-0.3H9.8c-0.4,0-0.7,0.1-0.9,0.3
	C8.7,9.1,8.5,9.4,8.5,9.8v21.7H24c0,0.1,0,0.2,0,0.3c0,0.1,0,0.2,0,0.3c0,0.2,0,0.3,0,0.5s0,0.3,0,0.5H11.6L7,37.6z M14.2,16.5h15.5
	V15H14.2V16.5z M14.2,24.8h9.5v-1.5h-9.5C14.2,23.3,14.2,24.8,14.2,24.8z M35.2,38.8v-6h-6v-1.5h6v-6h1.5v6h6v1.5h-6v6H35.2z
	 M8.5,31.5v-23V31.5z"/>
</svg>
