<?xml version="1.0" encoding="utf-8"?>
<!-- Generator: Adobe Illustrator 26.3.1, SVG Export Plug-In . SVG Version: 6.00 Build 0)  -->
<svg version="1.1" id="Слой_1" xmlns="http://www.w3.org/2000/svg" xmlns:xlink="http://www.w3.org/1999/xlink" x="0px" y="0px"
	 viewBox="0 0 48 48" style="enable-background:new 0 0 48 48;" xml:space="preserve">
<path d="M36,40.5l-1.1-1.1l4.4-4.4H29.2v-1.5h10.1L34.9,29l1.1-1l6.3,6.3L36,40.5z M7,39.6V11.8c0-0.7,0.3-1.4,0.8-1.9
	C8.4,9.3,9,9,9.8,9h24.5c0.7,0,1.4,0.3,1.9,0.8S37,11,37,11.7V22c-0.2,0-0.3,0-0.5,0s-0.3,0-0.5,0c-0.1,0-0.2,0-0.3,0s-0.2,0-0.3,0
	V11.8c0-0.4-0.1-0.7-0.3-0.9s-0.5-0.3-0.9-0.3H9.8c-0.4,0-0.7,0.1-0.9,0.3s-0.3,0.5-0.3,0.9v21.7H24c0,0.1,0,0.2,0,0.3s0,0.2,0,0.3
	c0,0.2,0,0.3,0,0.5s0,0.3,0,0.5H11.6C11.6,35,7,39.6,7,39.6z M8.5,33.5v-23V33.5z"/>
</svg>
