<?xml version="1.0" encoding="utf-8"?>
<!-- Generator: Adobe Illustrator 26.3.1, SVG Export Plug-In . SVG Version: 6.00 Build 0)  -->
<svg version="1.1" id="Слой_1" xmlns="http://www.w3.org/2000/svg" xmlns:xlink="http://www.w3.org/1999/xlink" x="0px" y="0px"
	 viewBox="0 0 48 48" style="enable-background:new 0 0 48 48;" xml:space="preserve">
<path d="M29.1,39c-0.2,0-0.4-0.1-0.5-0.2c-0.1-0.1-0.2-0.3-0.2-0.6c0-0.2,0.1-0.4,0.2-0.5s0.3-0.2,0.5-0.2h9.6L30.8,32
	c-0.2-0.1-0.3-0.3-0.3-0.5c-0.1-0.2,0-0.4,0.1-0.5c0.1-0.2,0.3-0.3,0.5-0.3s0.4,0,0.6,0.1l7.8,5.5l-3.3-9c-0.1-0.2-0.1-0.4,0-0.6
	s0.3-0.3,0.5-0.4s0.4-0.1,0.6,0c0.2,0.1,0.3,0.3,0.4,0.4l3.2,8.9l2.5-9.1c0-0.2,0.2-0.3,0.3-0.5c0.2-0.1,0.4-0.1,0.6-0.1
	c0.2,0,0.4,0.2,0.5,0.3c0.1,0.2,0.2,0.3,0.1,0.5L41.6,39H29.1z M7,37.6V9.8c0-0.8,0.3-1.4,0.8-2C8.4,7.3,9,7,9.8,7h24.5
	c0.7,0,1.4,0.3,1.9,0.8C36.7,8.4,37,9,37,9.8V20c-0.2,0-0.3,0-0.5,0s-0.3,0-0.5,0c-0.1,0-0.2,0-0.3,0s-0.2,0-0.3,0V9.8
	c0-0.4-0.1-0.7-0.3-0.9s-0.5-0.3-0.9-0.3H9.8c-0.4,0-0.7,0.1-0.9,0.3C8.7,9.1,8.5,9.4,8.5,9.8v21.7H24c0,0.1,0,0.2,0,0.3
	c0,0.1,0,0.2,0,0.3c0,0.2,0,0.3,0,0.5s0,0.3,0,0.5H11.6L7,37.6z M14.2,16.5h15.5V15H14.2V16.5z M14.2,24.8h9.5v-1.5h-9.5
	C14.2,23.3,14.2,24.8,14.2,24.8z M8.5,31.5v-23V31.5z"/>
</svg>
