<?xml version="1.0" encoding="utf-8"?>
<!-- Generator: Adobe Illustrator 26.3.1, SVG Export Plug-In . SVG Version: 6.00 Build 0)  -->
<svg version="1.1" id="Слой_1" xmlns="http://www.w3.org/2000/svg" xmlns:xlink="http://www.w3.org/1999/xlink" x="0px" y="0px"
	 viewBox="0 0 48 48" style="enable-background:new 0 0 48 48;" xml:space="preserve">
<path d="M6.8,38.8v-1.5h34.5v1.5H6.8z M12.7,33.7c-0.8,0-1.4-0.3-2-0.8c-0.5-0.5-0.8-1.2-0.8-2V16.8c0-0.8,0.3-1.4,0.8-2
	c0.5-0.5,1.2-0.8,2-0.8h6.4c0-1.4,0.5-2.5,1.4-3.4c0.9-0.9,2.1-1.4,3.4-1.4s2.5,0.5,3.4,1.4s1.4,2,1.4,3.4h6.4c0.8,0,1.4,0.3,2,0.8
	c0.5,0.5,0.8,1.2,0.8,2V31c0,0.8-0.3,1.4-0.8,2c-0.5,0.5-1.2,0.8-2,0.8L12.7,33.7L12.7,33.7z M33.5,32.2h1.8c0.4,0,0.7-0.1,0.9-0.3
	s0.3-0.5,0.3-0.9V16.8c0-0.4-0.1-0.7-0.3-0.9c-0.2-0.2-0.5-0.3-0.9-0.3h-1.8V32.2z M20.6,14h6.8c0-1-0.3-1.8-1-2.4
	c-0.7-0.6-1.5-0.9-2.4-0.9s-1.7,0.3-2.4,0.9C20.9,12.2,20.6,13,20.6,14z M14.5,32.2V15.5h-1.8c-0.3,0-0.6,0.1-0.9,0.3
	c-0.2,0.2-0.4,0.5-0.4,0.9v14.2c0,0.4,0.1,0.7,0.4,0.9c0.2,0.2,0.5,0.3,0.9,0.3L14.5,32.2L14.5,32.2z M15.9,15.5v16.6h16.2V15.5
	H15.9z M14.5,32.2h1.4H14.5z M33.5,32.2h-1.4H33.5z M14.5,32.2h-3H14.5z M15.9,32.2h16.2H15.9z M33.5,32.2h3H33.5z"/>
</svg>
