<?xml version="1.0" encoding="utf-8"?>
<!-- Generator: Adobe Illustrator 26.3.1, SVG Export Plug-In . SVG Version: 6.00 Build 0)  -->
<svg version="1.1" id="Слой_1" xmlns="http://www.w3.org/2000/svg" xmlns:xlink="http://www.w3.org/1999/xlink" x="0px" y="0px"
	 viewBox="0 0 48 48" style="enable-background:new 0 0 48 48;" xml:space="preserve">
<path d="M12.9,28.9h17.9l1.5-1.5H12.9V28.9z M12.9,20.5h9.8V19h-9.8C12.9,19,12.9,20.5,12.9,20.5z M7.5,13.5v20.9h17.7L23.7,36H6V12
	h36v7.3h-1.5v-5.7L7.5,13.5L7.5,13.5z M43.1,23.6c0.1,0.1,0.2,0.3,0.2,0.5s-0.1,0.4-0.2,0.5l-1.6,1.6l-1.1-1.1l1.7-1.7
	c0.1-0.1,0.3-0.2,0.5-0.2s0.3,0.1,0.5,0.2C42.9,23.5,43.1,23.6,43.1,23.6z M26.8,39.8v-1.1l12.4-12.4l1.1,1.1L28,39.8H26.8z
	 M7.5,13.5v20.9V13.5z"/>
</svg>
