<?xml version="1.0" encoding="utf-8"?>
<!-- Generator: Adobe Illustrator 26.3.1, SVG Export Plug-In . SVG Version: 6.00 Build 0)  -->
<svg version="1.1" id="Слой_1" xmlns="http://www.w3.org/2000/svg" xmlns:xlink="http://www.w3.org/1999/xlink" x="0px" y="0px"
	 viewBox="0 0 48 48" style="enable-background:new 0 0 48 48;" xml:space="preserve">
<path d="M20.4,14h6.8c0-1-0.3-1.8-1-2.4c-0.7-0.6-1.5-1-2.4-1s-1.8,0.3-2.4,1C20.8,12.2,20.4,13,20.4,14z M14.4,15.5h-1.8
	c-0.3,0-0.6,0.1-0.9,0.3c-0.2,0.2-0.4,0.5-0.4,0.9v14.2c0,0.4,0.1,0.7,0.4,0.9c0.2,0.2,0.5,0.3,0.9,0.3h1.8V15.5z M6.7,38.8v-1.5
	h17.6c0,0.3,0.1,0.5,0.2,0.9c0.1,0.3,0.2,0.5,0.2,0.7C24.6,38.8,6.7,38.8,6.7,38.8z M15.8,15.5v16.6h8.6c0,0.1-0.1,0.4-0.1,0.7
	s-0.1,0.6-0.1,0.8H12.6c-0.8,0-1.4-0.3-2-0.8c-0.5-0.5-0.8-1.2-0.8-2v-14c0-0.8,0.3-1.4,0.8-2c0.5-0.5,1.2-0.8,2-0.8H19
	c0-1.3,0.5-2.5,1.4-3.4c0.9-0.9,2.1-1.4,3.4-1.4s2.5,0.5,3.4,1.4s1.4,2,1.4,3.4h6.5c0.8,0,1.4,0.3,2,0.8c0.5,0.5,0.8,1.2,0.8,2v7.1
	c-0.3-0.1-0.5-0.1-0.8-0.1s-0.5,0-0.8-0.1v-7c0-0.4-0.1-0.7-0.3-0.9s-0.5-0.3-0.9-0.3h-1.8v8.3c-0.2,0-0.5,0.1-0.8,0.2
	s-0.5,0.1-0.7,0.2v-8.7C31.8,15.5,15.8,15.5,15.8,15.5z M35.5,27.2c2.2,0,4.1,0.8,5.6,2.3s2.3,3.4,2.3,5.6c0,2.2-0.8,4.1-2.3,5.6
	S37.7,43,35.5,43s-4.1-0.8-5.6-2.3s-2.3-3.4-2.3-5.6c0-2.2,0.8-4.1,2.3-5.6C31.4,28,33.2,27.2,35.5,27.2z M35.5,41.2
	c0.3,0,0.6-0.1,0.8-0.3s0.3-0.5,0.3-0.8s-0.1-0.6-0.3-0.8S35.8,39,35.5,39s-0.6,0.1-0.8,0.3s-0.3,0.5-0.3,0.8s0.1,0.6,0.3,0.8
	C34.9,41,35.2,41.2,35.5,41.2z M35.4,29.1c-0.8,0-1.5,0.2-2.1,0.7s-1.1,1.1-1.4,1.8l1.5,0.5c0.1-0.4,0.4-0.8,0.8-1.1
	c0.4-0.3,0.8-0.5,1.3-0.5c0.6,0,1,0.1,1.3,0.4s0.5,0.7,0.5,1.3c0,0.4-0.1,0.8-0.3,1c-0.2,0.3-0.5,0.5-0.8,0.8
	c-0.3,0.2-0.5,0.4-0.7,0.7c-0.2,0.2-0.4,0.5-0.5,0.7s-0.2,0.4-0.2,0.6c0,0.2-0.1,0.4-0.1,0.7v0.6h1.6v-0.4c0-0.4,0.1-0.8,0.3-1
	c0.2-0.3,0.4-0.5,0.7-0.8c0.5-0.4,0.9-0.8,1.2-1.3c0.3-0.4,0.5-1,0.5-1.6c0-0.9-0.3-1.7-1-2.3C37.3,29.4,36.5,29.1,35.4,29.1z
	 M14.4,15.5h1.4H14.4z M14.4,15.5h-3H14.4z M15.8,15.5H32H15.8z M32,15.5h1.4H32z M33.4,15.5h3H33.4z"/>
</svg>
