<?xml version="1.0" encoding="utf-8"?>
<!-- Generator: Adobe Illustrator 26.3.1, SVG Export Plug-In . SVG Version: 6.00 Build 0)  -->
<svg version="1.1" id="Слой_1" xmlns="http://www.w3.org/2000/svg" xmlns:xlink="http://www.w3.org/1999/xlink" x="0px" y="0px"
	 viewBox="0 0 48 48" style="enable-background:new 0 0 48 48;" xml:space="preserve">
<path d="M14.6,35.6c-1.3,0-2.4-0.5-3.3-1.4c-0.9-0.9-1.4-2.1-1.4-3.4c0-1.4,0.4-2.5,1.4-3.4c0.9-0.9,2-1.4,3.4-1.4s2.5,0.5,3.4,1.4
	s1.4,2.1,1.4,3.4c0,1.3-0.5,2.5-1.4,3.4C17.1,35.2,16,35.6,14.6,35.6z M10.4,22v-9.6h1.4V22H10.4z M14.6,34.2c0.9,0,1.7-0.3,2.4-1
	c0.6-0.6,1-1.5,1-2.5s-0.3-1.8-1-2.4s-1.4-1-2.4-1c-0.9,0-1.7,0.3-2.3,1s-1,1.5-1,2.4c0,1,0.3,1.8,1,2.4
	C12.9,33.9,13.7,34.2,14.6,34.2z M14.6,22v-9.6h1.8l4.3,7.5v-1.2v-6.3h1.4V22h-1.7L16,14.2v1.2V22H14.6z M25.3,35.6
	c-1,0-1.9-0.4-2.6-1.1c-0.7-0.7-1-1.7-1-2.8V26H23v5.8c0,0.7,0.2,1.2,0.7,1.7c0.4,0.5,1,0.7,1.6,0.7s1.2-0.2,1.6-0.7s0.6-1,0.6-1.7
	V26h1.4v5.7c0,1.1-0.3,2-1,2.8C27.2,35.2,26.3,35.6,25.3,35.6z M33.8,35.6v-8.3h-2.7V26h7v1.3h-2.8v8.3H33.8z"/>
</svg>
