<?xml version="1.0" encoding="utf-8"?>
<!-- Generator: Adobe Illustrator 26.3.1, SVG Export Plug-In . SVG Version: 6.00 Build 0)  -->
<svg version="1.1" id="Слой_1" xmlns="http://www.w3.org/2000/svg" xmlns:xlink="http://www.w3.org/1999/xlink" x="0px" y="0px"
	 viewBox="0 0 48 48" style="enable-background:new 0 0 48 48;" xml:space="preserve">
<path d="M16.1,9.4L14.7,5l1.2-0.4L17.3,9L16.1,9.4z M23.3,7.2V2.8h1.3v4.3C24.7,7.2,23.3,7.2,23.3,7.2z M31.9,9.4L30.7,9l1.5-4.4
	L33.3,5L31.9,9.4z M5.1,45L5,43.5l10.6-1.6c0.6-0.1,1.1-0.3,1.6-0.7s0.8-0.9,1-1.5l1.7-5.3c0.3-0.9,0.2-1.7-0.2-2.4
	c-0.4-0.8-1-1.3-1.8-1.6L16,36.3l-1.5-0.5l4.7-14.7c0.2-0.6,0.2-1.2,0-1.7c-0.2-0.6-0.5-1-1.1-1.2l-7.9,15c-0.4,0.8-1,1.4-1.7,1.9
	c-0.8,0.5-1.6,0.7-2.5,0.7H4.4v-1.5H6c0.6,0,1.1-0.2,1.6-0.5s0.9-0.7,1.2-1.3L17.5,16l1.4,0.8c0.8,0.5,1.4,1.2,1.7,2.2
	c0.3,0.9,0.3,1.9,0,2.8l-2.4,7.3c1.3,0.4,2.2,1.2,2.7,2.4c0.6,1.2,0.6,2.4,0.3,3.6l-1.7,5.3c-0.3,0.9-0.8,1.6-1.4,2.2
	c-0.7,0.6-1.5,0.9-2.3,1.1C15.7,43.4,5.1,45,5.1,45z M42.9,45.1l-10.6-1.7c-0.9-0.1-1.7-0.5-2.3-1.1c-0.7-0.6-1.2-1.3-1.4-2.2
	l-1.7-5.3c-0.4-1.3-0.3-2.5,0.3-3.6c0.6-1.2,1.5-1.9,2.7-2.4l-2.4-7.3c-0.3-0.9-0.3-1.9,0-2.8s0.8-1.7,1.7-2.2l1.4-0.8l8.7,16.5
	c0.3,0.5,0.7,1,1.2,1.3s1.1,0.5,1.6,0.5h1.6v1.5H42c-0.9,0-1.7-0.2-2.5-0.7s-1.3-1.1-1.7-1.9l-7.9-15c-0.5,0.2-0.9,0.6-1.1,1.2
	s-0.2,1.1,0,1.7l4.7,14.7L32,36l-1.9-5.9c-0.8,0.3-1.4,0.8-1.8,1.6c-0.4,0.8-0.4,1.6-0.2,2.4l1.6,5.3c0.2,0.6,0.5,1.1,1,1.5
	s1,0.6,1.6,0.7L43,43.5L42.9,45.1z M32.1,36.3l-2.3-7.4L32.1,36.3z M18.2,28.9l-2.3,7.4L18.2,28.9z"/>
</svg>
