<?xml version="1.0" encoding="utf-8"?>
<!-- Generator: Adobe Illustrator 26.3.1, SVG Export Plug-In . SVG Version: 6.00 Build 0)  -->
<svg version="1.1" id="Слой_1" xmlns="http://www.w3.org/2000/svg" xmlns:xlink="http://www.w3.org/1999/xlink" x="0px" y="0px"
	 viewBox="0 0 48 48" style="enable-background:new 0 0 48 48;" xml:space="preserve">
<path d="M10,42v-8.3c3.3-2.4,5.6-4.7,6.7-6.9s1.9-4.2,2.4-6h-5.3v-1.5h5.6c-0.9-0.7-1.6-1.5-2.1-2.6c-0.5-1-0.7-2.1-0.7-3.3
	c0-2,0.7-3.8,2.2-5.2C20.2,6.7,22,6,24,6s3.8,0.7,5.2,2.1c1.5,1.4,2.2,3.2,2.2,5.2c0,1.2-0.3,2.3-0.8,3.3s-1.2,1.9-2.1,2.6h5.7v1.5
	h-5.3c0.4,1.7,1.2,3.7,2.3,6s3.4,4.6,6.7,6.9V42H10z M11.5,40.5h24.9v-5.7c-2.6-2-4.5-4.2-6-6.5c-1.4-2.3-2.5-4.8-3.2-7.5h-6.6
	c-0.7,2.7-1.8,5.2-3.2,7.5s-3.4,4.5-6,6.5C11.5,34.8,11.5,40.5,11.5,40.5z M24,19.2c1.6,0,3-0.6,4.2-1.7c1.1-1.1,1.7-2.5,1.7-4.2
	c0-1.6-0.6-3-1.7-4.1C27,8.1,25.6,7.5,24,7.5s-3,0.6-4.1,1.7s-1.7,2.5-1.7,4.1s0.6,3,1.7,4.2S22.4,19.2,24,19.2z"/>
</svg>
