<?xml version="1.0" encoding="utf-8"?>
<!-- Generator: Adobe Illustrator 26.3.1, SVG Export Plug-In . SVG Version: 6.00 Build 0)  -->
<svg version="1.1" id="Слой_1" xmlns="http://www.w3.org/2000/svg" xmlns:xlink="http://www.w3.org/1999/xlink" x="0px" y="0px"
	 viewBox="0 0 48 48" style="enable-background:new 0 0 48 48;" xml:space="preserve">
<path d="M11.1,38.9h25.8v-3.6c0-0.4-0.1-0.7-0.3-0.9s-0.5-0.3-0.9-0.3H12.3c-0.4,0-0.7,0.1-0.9,0.3s-0.3,0.5-0.3,0.9
	C11.1,35.3,11.1,38.9,11.1,38.9z M16.4,32.6h15.1l-1.4-9.8H17.8L16.4,32.6z M9.5,40.5v-5.1c0-0.7,0.3-1.4,0.8-1.9
	c0.6-0.6,1.2-0.8,1.9-0.8h2.6l1.4-9.8h-4.6v-1.5h24.5v1.5h-4.6l1.4,9.8h2.6c0.8,0,1.4,0.3,2,0.8c0.5,0.6,0.8,1.2,0.8,1.9v5.1
	C38.5,40.5,9.5,40.5,9.5,40.5z M16.3,21.2l-3-13.7c0.9,0.7,1.8,1.1,2.6,1.4c0.9,0.3,1.7,0.4,2.7,0.4s2-0.1,2.9-0.4
	c0.9-0.3,1.8-0.7,2.5-1.4c0.8,0.6,1.6,1.1,2.5,1.4s1.9,0.4,2.9,0.4c0.8,0,1.7-0.1,2.5-0.3c0.8-0.2,1.8-0.7,2.9-1.4l-3.1,13.7h-1.6
	l2.5-10.9c-0.6,0.2-1.2,0.3-1.8,0.4c-0.6,0.1-1.1,0.1-1.6,0.1c-0.9,0-1.8-0.1-2.7-0.3c-0.9-0.2-1.7-0.6-2.5-1
	c-0.8,0.5-1.6,0.8-2.5,1s-1.8,0.3-2.7,0.3c-0.5,0-1,0-1.6-0.1c-0.5-0.1-1.1-0.2-1.7-0.3l2.4,10.8C17.9,21.2,16.3,21.2,16.3,21.2z"/>
</svg>
