<?xml version="1.0" encoding="utf-8"?>
<!-- Generator: Adobe Illustrator 26.3.1, SVG Export Plug-In . SVG Version: 6.00 Build 0)  -->
<svg version="1.1" id="Слой_1" xmlns="http://www.w3.org/2000/svg" xmlns:xlink="http://www.w3.org/1999/xlink" x="0px" y="0px"
	 viewBox="0 0 48 48" style="enable-background:new 0 0 48 48;" xml:space="preserve">
<path d="M18.7,40.5c-0.6,0-1.1-0.2-1.5-0.6c-0.4-0.4-0.6-0.9-0.6-1.5s0.2-1.1,0.6-1.5s0.9-0.7,1.5-0.7s1.1,0.2,1.5,0.6
	c0.4,0.4,0.6,0.9,0.6,1.5s-0.2,1.1-0.6,1.5C19.8,40.3,19.3,40.5,18.7,40.5z M35.3,40.5c-0.6,0-1.1-0.2-1.5-0.6
	c-0.4-0.4-0.7-0.9-0.7-1.5s0.2-1.1,0.6-1.5c0.4-0.4,0.9-0.7,1.5-0.7s1.1,0.2,1.5,0.6c0.4,0.4,0.6,0.9,0.6,1.5s-0.2,1.1-0.6,1.5
	C36.3,40.3,35.8,40.5,35.3,40.5z M25.5,16.7l-6.2-7.5c1.1-0.4,2.2-0.7,3.4-0.9c1-0.2,2.1-0.3,3.1-0.3c1.4,0,2.8,0.2,4,0.5
	c1.3,0.3,2.4,0.8,3.5,1.4L25.5,16.7z M24.4,34c-2.2,0-4-0.7-5.5-2.2s-2.3-3.4-2.3-5.6V13.3L15,11.4c-0.9-1.1-1.7-1.9-2.3-2.3
	c-0.6-0.4-1.2-0.6-1.9-0.6c-1,0-1.7,0.3-2.3,1S7.7,11,7.7,11.9H6.2c0-1.4,0.5-2.5,1.4-3.5S9.6,7,10.9,7c0.9,0,1.7,0.2,2.5,0.7
	C14.1,8.1,15,9,16,10.3l17.7,21.2c0.4,0.5,0.5,1,0.2,1.6S33.1,34,32.5,34H24.4z M24.4,32.5h8.1L18.1,15.2v11c0,1.8,0.6,3.3,1.8,4.5
	C21.2,31.9,22.7,32.5,24.4,32.5z"/>
</svg>
