<?xml version="1.0" encoding="utf-8"?>
<!-- Generator: Adobe Illustrator 26.3.1, SVG Export Plug-In . SVG Version: 6.00 Build 0)  -->
<svg version="1.1" id="Слой_1" xmlns="http://www.w3.org/2000/svg" xmlns:xlink="http://www.w3.org/1999/xlink" x="0px" y="0px"
	 viewBox="0 0 48 48" style="enable-background:new 0 0 48 48;" xml:space="preserve">
<path d="M39.8,27.8v-7.5h4.9v7.5H39.8z M37,30H22c-0.7,0-1.4,0.1-2.1,0.3c-0.7,0.2-1.5,0.5-2.5,0.9c-1.2,0.5-2.2,0.8-3,1
	c-0.8,0.2-1.6,0.3-2.5,0.3c-2.1,0-3.9-0.6-5.5-1.7C4.8,29.6,4,28.2,4,26.6v-5.2c0-1.6,0.8-3,2.5-4.2c1.6-1.1,3.5-1.7,5.5-1.7
	c0.9,0,1.7,0.1,2.5,0.3c0.8,0.2,1.8,0.6,3,1c1,0.4,1.8,0.7,2.5,0.9c0.7,0.2,1.4,0.3,2,0.3h15V30z M12,31c0.8,0,1.5-0.1,2.2-0.3
	c0.7-0.2,1.6-0.5,2.6-0.9c1.2-0.5,2.1-0.8,2.9-1s1.5-0.3,2.3-0.3h13.5v-8.9H22c-0.8,0-1.5-0.1-2.3-0.3c-0.8-0.2-1.7-0.5-2.9-1
	c-1-0.5-1.9-0.8-2.6-0.9C13.5,17.1,12.8,17,12,17c-1.7,0-3.2,0.4-4.5,1.3c-1.3,0.8-2,1.9-2,3.1v1.9h1c0.2,0,0.3,0.1,0.5,0.2
	c0.1,0.1,0.2,0.3,0.2,0.5S7.1,24.3,7,24.4s-0.3,0.2-0.5,0.2h-1v2c0,1.2,0.7,2.2,2,3.1C8.8,30.5,10.3,31,12,31z"/>
</svg>
