<?xml version="1.0" encoding="utf-8"?>
<!-- Generator: Adobe Illustrator 26.3.1, SVG Export Plug-In . SVG Version: 6.00 Build 0)  -->
<svg version="1.1" id="Слой_1" xmlns="http://www.w3.org/2000/svg" xmlns:xlink="http://www.w3.org/1999/xlink" x="0px" y="0px"
	 viewBox="0 0 48 48" style="enable-background:new 0 0 48 48;" xml:space="preserve">
<path d="M26,27.1l1.1-1.1l-4.3-4.3v-8.4h-1.5v9.1L26,27.1z M20.3,36.3c0.3-1.3,1-2.3,2-3.1s2.2-1.2,3.6-1.2h6.3
	c1.3-1.3,2.3-2.8,3.1-4.5s1.1-3.6,1.1-5.5c0-4-1.4-7.4-4.2-10.3C29.4,8.9,26,7.5,22,7.5s-7.4,1.4-10.3,4.2C8.9,14.6,7.5,18,7.5,22
	c0,3.7,1.2,6.9,3.7,9.7C13.7,34.3,16.7,35.9,20.3,36.3z M26,44c-1.7,0-3.1-0.6-4.3-1.8c-1.2-1.2-1.7-2.7-1.6-4.3
	c-4-0.5-7.3-2.2-10-5.2S6,26.1,6,22c0-4.4,1.6-8.2,4.7-11.3S17.5,6,22,6s8.2,1.6,11.3,4.7C36.4,13.8,38,17.6,38,22
	c0,1.9-0.3,3.7-1,5.4c-0.7,1.7-1.6,3.2-2.7,4.6h3.8c1.7,0,3,0.6,4.2,1.8C43.4,35,44,36.4,44,38s-0.6,3.1-1.8,4.2
	C41.1,43.4,39.7,44,38,44H26z M26,42.5h12c1.3,0,2.3-0.4,3.2-1.3c0.9-0.9,1.3-1.9,1.3-3.2c0-1.2-0.4-2.3-1.3-3.2
	c-0.9-0.9-1.9-1.3-3.2-1.3H26c-1.3,0-2.3,0.4-3.2,1.3c-0.9,0.9-1.3,1.9-1.3,3.2c0,1.2,0.4,2.3,1.3,3.2C23.7,42,24.7,42.5,26,42.5z
	 M26,39.2c-0.3,0-0.6-0.1-0.9-0.4c-0.2-0.2-0.4-0.5-0.4-0.9c0-0.3,0.1-0.6,0.4-0.9c0.2-0.2,0.5-0.4,0.9-0.4c0.3,0,0.6,0.1,0.9,0.4
	c0.2,0.2,0.4,0.5,0.4,0.9c0,0.3-0.1,0.6-0.4,0.9C26.6,39.1,26.3,39.2,26,39.2z M32,39.2c-0.3,0-0.6-0.1-0.9-0.4
	c-0.2-0.2-0.4-0.5-0.4-0.9c0-0.3,0.1-0.6,0.4-0.9c0.2-0.2,0.5-0.4,0.9-0.4c0.3,0,0.6,0.1,0.9,0.4c0.2,0.2,0.4,0.5,0.4,0.9
	c0,0.3-0.1,0.6-0.4,0.9C32.6,39.1,32.3,39.2,32,39.2z M38,39.2c-0.3,0-0.6-0.1-0.9-0.4c-0.2-0.2-0.4-0.5-0.4-0.9
	c0-0.3,0.1-0.6,0.4-0.9c0.2-0.2,0.5-0.4,0.9-0.4c0.3,0,0.6,0.1,0.9,0.4c0.2,0.2,0.4,0.5,0.4,0.9c0,0.3-0.1,0.6-0.4,0.9
	C38.6,39.1,38.3,39.2,38,39.2z"/>
</svg>
