<?xml version="1.0" encoding="utf-8"?>
<!-- Generator: Adobe Illustrator 26.3.1, SVG Export Plug-In . SVG Version: 6.00 Build 0)  -->
<svg version="1.1" id="Слой_1" xmlns="http://www.w3.org/2000/svg" xmlns:xlink="http://www.w3.org/1999/xlink" x="0px" y="0px"
	 viewBox="0 0 48 48" style="enable-background:new 0 0 48 48;" xml:space="preserve">
<path d="M20.7,40c-3.4,0-6.2-1.2-8.6-3.6c-2.4-2.4-3.6-5.3-3.6-8.6c0-3.2,1.1-6,3.3-8.4s4.9-3.6,8.1-3.8v-4.2c0-1.5,0.5-2.8,1.6-3.8
	c1-1.1,2.3-1.6,3.8-1.6c0.9,0,1.8,0.2,2.7,0.6c0.9,0.4,1.6,1,2.2,1.7l8.9,11.3l1.2-1l4,5l-3.5,2.8l-4-5l1.1-0.9l-9-11.4
	c-0.4-0.5-1-1-1.6-1.3s-1.3-0.5-2-0.5c-1.1,0-2,0.4-2.8,1.1c-0.8,0.8-1.1,1.7-1.1,2.7v4.2c3.2,0.2,5.9,1.5,8.1,3.8s3.3,5.1,3.3,8.4
	c0,3.4-1.2,6.2-3.6,8.6C26.9,38.8,24,40,20.7,40z M20.7,38.5c3,0,5.5-1,7.6-3.1s3.1-4.6,3.1-7.6s-1-5.5-3.1-7.6s-4.6-3.1-7.6-3.1
	s-5.5,1-7.6,3.1S10,24.9,10,27.8c0,3,1,5.5,3.1,7.6C15.1,37.4,17.7,38.5,20.7,38.5z"/>
</svg>
