<?xml version="1.0" encoding="utf-8"?>
<!-- Generator: Adobe Illustrator 26.3.1, SVG Export Plug-In . SVG Version: 6.00 Build 0)  -->
<svg version="1.1" id="Слой_1" xmlns="http://www.w3.org/2000/svg" xmlns:xlink="http://www.w3.org/1999/xlink" x="0px" y="0px"
	 viewBox="0 0 48 48" style="enable-background:new 0 0 48 48;" xml:space="preserve">
<path d="M5,43V28.7l8.1-3.6v-6.7l10.1-5.1V8.2h-4V6.7h4v-4h1.5v4h4v1.5h-4v5.1l10.1,5.1v6.7l8.1,3.6V43H27.2v-7.2
	c0-0.9-0.3-1.7-0.9-2.3s-1.4-0.9-2.3-0.9s-1.7,0.3-2.3,0.9c-0.6,0.6-0.9,1.4-0.9,2.3V43H5z M6.5,41.5h12.7v-5.6
	c0-1.3,0.5-2.5,1.4-3.4c0.9-0.9,2.1-1.4,3.4-1.4s2.5,0.5,3.4,1.4c0.9,0.9,1.4,2.1,1.4,3.4v5.6h12.7V29.7l-8.1-3.6v-6.7L24,14.6
	l-9.3,4.8v6.7l-8.1,3.6C6.5,29.7,6.5,41.5,6.5,41.5z M24,26.1c0.6,0,1.1-0.2,1.5-0.6s0.6-0.9,0.6-1.5s-0.2-1.1-0.6-1.5
	s-0.9-0.6-1.5-0.6s-1.1,0.2-1.5,0.6s-0.6,0.9-0.6,1.5s0.2,1.1,0.6,1.5S23.4,26.1,24,26.1z"/>
</svg>
