<?xml version="1.0" encoding="utf-8"?>
<!-- Generator: Adobe Illustrator 26.3.1, SVG Export Plug-In . SVG Version: 6.00 Build 0)  -->
<svg version="1.1" id="Слой_1" xmlns="http://www.w3.org/2000/svg" xmlns:xlink="http://www.w3.org/1999/xlink" x="0px" y="0px"
	 viewBox="0 0 48 48" style="enable-background:new 0 0 48 48;" xml:space="preserve">
<path d="M8.8,8l2.9,5.8h6.2L15,8h4.2l2.9,5.8h6.2L25.5,8h4.2l2.9,5.8h6.2L35.9,8h3.4c0.8,0,1.4,0.3,2,0.8c0.5,0.5,0.8,1.2,0.8,2
	v26.5c0,0.8-0.3,1.4-0.8,2c-0.5,0.5-1.2,0.8-2,0.8H8.8c-0.8,0-1.4-0.3-2-0.8C6.3,38.7,6,38,6,37.2V10.8c0-0.8,0.3-1.4,0.8-2
	C7.3,8.3,8,8,8.8,8z M7.5,15.4v21.9c0,0.4,0.1,0.7,0.3,0.9c0.2,0.2,0.5,0.3,0.9,0.3h30.5c0.4,0,0.7-0.1,0.9-0.3s0.3-0.5,0.3-0.9
	V15.4H7.5z M7.5,15.4v23.1V15.4z M17.4,34.2h13.2v-0.6c0-1-0.6-1.8-1.8-2.5c-1.2-0.6-2.8-1-4.8-1s-3.6,0.3-4.8,1
	c-1.2,0.6-1.8,1.5-1.8,2.5C17.4,33.7,17.4,34.2,17.4,34.2z M24,26.5c0.8,0,1.5-0.3,2-0.8c0.6-0.6,0.8-1.2,0.8-2s-0.3-1.5-0.8-2
	c-0.6-0.6-1.2-0.8-2-0.8s-1.5,0.3-2,0.8c-0.6,0.6-0.8,1.2-0.8,2s0.3,1.5,0.8,2C22.5,26.3,23.2,26.5,24,26.5z"/>
</svg>
