<?xml version="1.0" encoding="utf-8"?>
<!-- Generator: Adobe Illustrator 26.3.1, SVG Export Plug-In . SVG Version: 6.00 Build 0)  -->
<svg version="1.1" id="Слой_1" xmlns="http://www.w3.org/2000/svg" xmlns:xlink="http://www.w3.org/1999/xlink" x="0px" y="0px"
	 viewBox="0 0 48 48" style="enable-background:new 0 0 48 48;" xml:space="preserve">
<path d="M11.8,40.5c-1.7,0-3.2-0.6-4.4-1.8S5.6,36,5.6,34.3s0.6-3.2,1.8-4.4C8.6,28.6,10,28,11.8,28c1.7,0,3.2,0.6,4.4,1.8
	c1.2,1.2,1.8,2.7,1.8,4.4s-0.6,3.2-1.8,4.4C15,39.9,13.5,40.5,11.8,40.5z M36.3,40.5c-1.7,0-3.2-0.6-4.4-1.8
	C30.6,37.4,30,36,30,34.2c0-1.7,0.6-3.2,1.8-4.4c1.2-1.2,2.7-1.8,4.4-1.8s3.2,0.6,4.4,1.8c1.2,1.2,1.8,2.7,1.8,4.4s-0.6,3.2-1.8,4.4
	C39.4,39.9,38,40.5,36.3,40.5z M11.8,38.9c1.3,0,2.4-0.5,3.3-1.4s1.4-2,1.4-3.3s-0.5-2.4-1.4-3.3s-2-1.4-3.3-1.4S9.3,30,8.4,30.9
	S7,32.9,7,34.2s0.5,2.4,1.4,3.3C9.3,38.5,10.4,38.9,11.8,38.9z M36.2,38.9c1.3,0,2.4-0.5,3.3-1.4c0.9-0.9,1.4-2,1.4-3.3
	s-0.5-2.4-1.4-3.3s-2-1.4-3.3-1.4s-2.4,0.5-3.3,1.4c-0.9,0.9-1.4,2-1.4,3.3s0.5,2.4,1.4,3.3C33.8,38.5,34.9,38.9,36.2,38.9z M24,29
	c-0.8,0-1.5-0.3-2.1-0.8s-0.8-1.2-0.8-2.1c0-0.8,0.3-1.5,0.8-2.1c0.6-0.5,1.2-0.8,2-0.8s1.5,0.3,2.1,0.8s0.8,1.2,0.8,2.1
	c0,0.8-0.3,1.5-0.8,2.1C25.5,28.7,24.8,29,24,29z M24,18c-1.7,0-3.2-0.6-4.4-1.8c-1.2-1.2-1.8-2.7-1.8-4.4s0.6-3.2,1.8-4.4
	c1.2-1.2,2.7-1.8,4.4-1.8c1.7,0,3.2,0.6,4.4,1.8c1.2,1.2,1.8,2.7,1.8,4.4s-0.6,3.2-1.8,4.4S25.7,18,24,18z M24,16.5
	c1.3,0,2.4-0.5,3.3-1.4s1.4-2,1.4-3.3s-0.5-2.4-1.4-3.3s-2-1.4-3.3-1.4s-2.4,0.5-3.3,1.4s-1.4,2-1.4,3.3s0.5,2.4,1.4,3.3
	S22.7,16.5,24,16.5z"/>
</svg>
