<?xml version="1.0" encoding="utf-8"?>
<!-- Generator: Adobe Illustrator 26.3.1, SVG Export Plug-In . SVG Version: 6.00 Build 0)  -->
<svg version="1.1" id="Слой_1" xmlns="http://www.w3.org/2000/svg" xmlns:xlink="http://www.w3.org/1999/xlink" x="0px" y="0px"
	 viewBox="0 0 48 48" style="enable-background:new 0 0 48 48;" xml:space="preserve">
<path d="M24,35.9c0.6,0,1.2-0.2,1.6-0.7c0.5-0.4,0.7-1,0.8-1.7h-4.9c0.1,0.7,0.3,1.2,0.8,1.7C22.8,35.6,23.4,35.9,24,35.9z M15.7,30
	h16.6v-2h-2v-5.7c0-1.7-0.4-3.2-1.3-4.6s-2.1-2.2-3.7-2.6v-1.8c0-0.4-0.1-0.7-0.3-0.9c-0.3-0.3-0.6-0.4-1-0.4s-0.7,0.1-0.9,0.4
	c-0.2,0.3-0.3,0.6-0.3,0.9v1.8c-1.6,0.3-2.8,1.1-3.7,2.5c-0.9,1.3-1.3,2.8-1.3,4.5V28h-2v2H15.7z M19.7,28v-6.5
	c0-1.2,0.4-2.3,1.3-3.1c0.8-0.9,1.8-1.3,3-1.3s2.2,0.4,3.1,1.3c0.8,0.9,1.3,1.9,1.3,3.1V28H19.7z M24,42c-2.5,0-4.8-0.5-7-1.4
	s-4.1-2.2-5.7-3.9c-1.6-1.6-2.9-3.5-3.9-5.7C6.5,28.8,6,26.5,6,24s0.5-4.8,1.4-7s2.2-4.1,3.9-5.7c1.6-1.6,3.5-2.9,5.7-3.8
	c2.2-1,4.5-1.5,7-1.5s4.8,0.5,7,1.4s4.1,2.2,5.7,3.8c1.6,1.6,2.9,3.5,3.8,5.7c0.9,2.2,1.4,4.5,1.4,7s-0.5,4.8-1.4,7
	s-2.2,4.1-3.8,5.7s-3.5,2.9-5.7,3.9S26.5,42,24,42z M24,40.5c4.6,0,8.4-1.6,11.6-4.8c3.2-3.2,4.8-7.1,4.8-11.7s-1.6-8.4-4.8-11.6
	c-3.1-3.3-7-4.9-11.6-4.9s-8.5,1.6-11.7,4.8S7.5,19.4,7.5,24s1.6,8.5,4.8,11.7S19.4,40.5,24,40.5z"/>
</svg>
