<?xml version="1.0" encoding="utf-8"?>
<!-- Generator: Adobe Illustrator 26.3.1, SVG Export Plug-In . SVG Version: 6.00 Build 0)  -->
<svg version="1.1" id="Слой_1" xmlns="http://www.w3.org/2000/svg" xmlns:xlink="http://www.w3.org/1999/xlink" x="0px" y="0px"
	 viewBox="0 0 48 48" style="enable-background:new 0 0 48 48;" xml:space="preserve">
<path d="M34.3,27c0.4,0,0.9-0.1,1.3-0.1c0.4-0.1,0.9-0.1,1.3-0.2c-0.2,4-1.8,7.4-4.7,10.2C29.4,39.6,26,41,21.9,41
	c-2.1,0-4-0.4-5.8-1.2s-3.4-1.8-4.8-3.2c-1.3-1.3-2.4-2.9-3.2-4.8C7.4,30.1,7,28.1,7,26.1c0-4,1.4-7.5,4.1-10.4
	c2.8-2.9,6.2-4.4,10.2-4.7c-0.1,0.4-0.2,0.9-0.2,1.3c0,0.5-0.1,0.9-0.1,1.4c-3.2,0.4-5.9,1.7-8.1,4S9.7,22.8,9.7,26
	c0,3.4,1.2,6.3,3.6,8.7s5.3,3.6,8.7,3.6c3.2,0,6-1.1,8.4-3.2C32.7,32.9,34,30.2,34.3,27z M34.1,4.3c2.6,0,4.9,0.9,6.8,2.8
	c1.9,1.9,2.8,4.1,2.8,6.8s-0.9,4.9-2.8,6.8c-1.9,1.9-4.1,2.8-6.8,2.8s-4.9-0.9-6.8-2.8s-2.8-4.1-2.8-6.8c0-2.6,0.9-4.9,2.8-6.7
	C29.2,5.2,31.5,4.3,34.1,4.3z M34.1,20.8c1.9,0,3.5-0.7,4.9-2s2-3,2-4.9s-0.7-3.5-2-4.9s-3-2-4.9-2s-3.5,0.7-4.9,2
	c-1.3,1.4-2,3-2,4.9s0.7,3.5,2,4.9C30.6,20.1,32.2,20.8,34.1,20.8z"/>
</svg>
