<?xml version="1.0" encoding="utf-8"?>
<!-- Generator: Adobe Illustrator 26.3.1, SVG Export Plug-In . SVG Version: 6.00 Build 0)  -->
<svg version="1.1" id="Слой_1" xmlns="http://www.w3.org/2000/svg" xmlns:xlink="http://www.w3.org/1999/xlink" x="0px" y="0px"
	 viewBox="0 0 48 48" style="enable-background:new 0 0 48 48;" xml:space="preserve">
<path d="M12.2,37.8L28,42.5l12.2-3.8c0.1-0.8-0.1-1.4-0.6-1.8c-0.4-0.4-0.9-0.6-1.5-0.6h-9.6c-0.7,0-1.3,0-2-0.1s-1.4-0.2-2-0.5
	L20,34.3l0.6-1.6l4.4,1.6c0.5,0.2,1.1,0.3,1.8,0.4c0.7,0,1.4,0,2.3,0h1.3c0-0.8-0.2-1.4-0.5-1.9c-0.4-0.5-0.8-0.8-1.4-1l-11.1-4.1
	c-0.1,0-0.2,0-0.2-0.1c-0.1,0-0.1,0-0.2,0h-4.7C12.2,27.8,12.2,37.8,12.2,37.8z M4.8,42V26.2h12c0.2,0,0.3,0,0.5,0s0.3,0.1,0.5,0.1
	L29,30.5c0.8,0.3,1.5,0.8,2.1,1.5s0.9,1.7,0.9,2.8h6.2c1.2,0,2.2,0.4,2.8,1.2s1,1.8,1,2.9v0.9L28.2,44l-15.9-4.7V42H4.8z M6.3,40.5
	h4.3V27.8H6.3V40.5z M29.5,25.9L28,25.3v-2.6c0-2-0.7-3.8-2.1-5.2s-3.1-2.1-5.1-2.1c-1.9,0-3.5,0.6-4.8,1.8
	c-1.3,1.2-2.1,2.7-2.5,4.4H12c0.3-2,1.1-3.7,2.5-5.1s3.2-2.3,5.5-2.7V7.5h-3V6h9.8c0.7,0,1.4,0.1,2.1,0.2c0.7,0.2,1.3,0.4,2,0.7
	l-1.2,1.2c-0.4-0.2-0.9-0.3-1.4-0.4s-1-0.2-1.5-0.2h-5.2v6.4c2.5,0.3,4.4,1.3,5.8,3s2.2,3.6,2.2,5.7C29.5,22.7,29.5,25.9,29.5,25.9z
	 M37.2,18.7c-0.8,0-1.4-0.3-2-0.8c-0.5-0.5-0.8-1.2-0.8-2c0-0.9,0.3-1.9,0.8-2.8c0.6-1,1.2-2,2-3c0.8,1.1,1.4,2.1,2,3
	c0.6,1,0.8,1.9,0.8,2.8c0,0.8-0.3,1.5-0.8,2C38.6,18.4,38,18.7,37.2,18.7z"/>
</svg>
