<?xml version="1.0" encoding="utf-8"?>
<!-- Generator: Adobe Illustrator 26.3.1, SVG Export Plug-In . SVG Version: 6.00 Build 0)  -->
<svg version="1.1" id="Слой_1" xmlns="http://www.w3.org/2000/svg" xmlns:xlink="http://www.w3.org/1999/xlink" x="0px" y="0px"
	 viewBox="0 0 48 48" style="enable-background:new 0 0 48 48;" xml:space="preserve">
<path d="M20,16.2l2.3-4.8V10h-3.2V8H29c0.4,0,0.7,0.1,1,0.4c0.3,0.3,0.4,0.6,0.4,1v1.4l-1.8,3.5h-3.5v-2.2l-3.8,4.1
	C21.3,16.2,20,16.2,20,16.2z M17.6,42V30.6c0-0.3,0-0.6,0.1-0.9s0.2-0.6,0.3-0.9l7.1-13h3.5c0.4,0.4,0.7,0.8,0.8,1.2
	c0.1,0.4,0.1,0.9,0.1,1.4V42C29.6,42,17.6,42,17.6,42z M19.1,40.5H28V17.4h-2l-6.9,12.7V40.5z M19.1,40.5H28H19.1z"/>
</svg>
