<?xml version="1.0" encoding="utf-8"?>
<!-- Generator: Adobe Illustrator 26.3.1, SVG Export Plug-In . SVG Version: 6.00 Build 0)  -->
<svg version="1.1" id="Слой_1" xmlns="http://www.w3.org/2000/svg" xmlns:xlink="http://www.w3.org/1999/xlink" x="0px" y="0px"
	 viewBox="0 0 48 48" style="enable-background:new 0 0 48 48;" xml:space="preserve">
<path d="M26.2,44c-2.5,0-4.9-0.5-7.1-1.4c-2.2-1-4.1-2.3-5.8-3.9c-1.6-1.7-3-3.6-3.9-5.8c-1-2.2-1.4-4.6-1.4-7.1
	c0-3.9,1.1-7.4,3.4-10.5c2.2-3.1,5.2-5.3,8.9-6.5c-0.1,3.1,0.3,6.1,1.4,9s2.7,5.4,5,7.6c2.2,2.2,4.8,3.9,7.6,5
	c2.9,1.1,5.9,1.6,9,1.4c-1.2,3.7-3.4,6.6-6.5,8.9C33.6,42.9,30.1,44,26.2,44z M26.2,42.5c3.1,0,6-0.8,8.6-2.5
	c2.6-1.7,4.7-3.9,6.2-6.6c-2.9-0.3-5.7-1-8.4-2.1c-2.7-1.2-5-2.8-7.1-4.9s-3.7-4.4-4.9-7s-1.8-5.4-2.1-8.3c-2.7,1.5-4.9,3.6-6.6,6.2
	s-2.5,5.5-2.5,8.6c0,4.6,1.6,8.6,4.8,11.8S21.6,42.5,26.2,42.5z"/>
</svg>
