<?xml version="1.0" encoding="utf-8"?>
<!-- Generator: Adobe Illustrator 26.3.1, SVG Export Plug-In . SVG Version: 6.00 Build 0)  -->
<svg version="1.1" id="Слой_1" xmlns="http://www.w3.org/2000/svg" xmlns:xlink="http://www.w3.org/1999/xlink" x="0px" y="0px"
	 viewBox="0 0 48 48" style="enable-background:new 0 0 48 48;" xml:space="preserve">
<path d="M39.2,24H8.8c-0.7,0-1.4-0.3-1.9-0.8C6.3,22.6,6,22,6,21.2V10.8c0-0.8,0.3-1.4,0.8-2C7.4,8.3,8,8,8.8,8h30.5
	c0.7,0,1.4,0.3,1.9,0.8c0.5,0.6,0.8,1.2,0.8,2v10.5c0,0.7-0.3,1.4-0.8,1.9C40.6,23.7,40,24,39.2,24z M9.2,36.1v-1.6
	c1.6,0,3-0.6,4.2-1.7c1.2-1.1,1.7-2.5,1.7-4.2h1.6c0,2.1-0.7,3.9-2.2,5.3C13.1,35.4,11.3,36.1,9.2,36.1z M38.8,36.1
	c-2.1,0-3.9-0.7-5.3-2.2c-1.4-1.4-2.2-3.2-2.2-5.3h1.6c0,1.6,0.6,3,1.7,4.2c1.1,1.1,2.5,1.7,4.2,1.7C38.8,34.6,38.8,36.1,38.8,36.1z
	 M23.2,38.2v-9.5h1.5v9.5H23.2z M39.2,22.5h1.2H7.5H39.2z M13.6,22.5V18c0-0.7,0.3-1.4,0.8-1.9c0.6-0.6,1.2-0.8,1.9-0.8h15.3
	c0.7,0,1.4,0.3,1.9,0.8c0.6,0.6,0.8,1.2,0.8,1.9v4.5h-1.5V18c0-0.4-0.1-0.7-0.3-0.9c-0.2-0.2-0.5-0.3-0.9-0.3H16.4
	c-0.4,0-0.7,0.1-0.9,0.3c-0.2,0.2-0.3,0.5-0.3,0.9v4.5H13.6z M8.8,22.5h30.5c0.4,0,0.7-0.1,0.9-0.3c0.2-0.2,0.3-0.5,0.3-0.9V10.8
	c0-0.4-0.1-0.7-0.3-0.9s-0.5-0.3-0.9-0.3H8.8c-0.4,0-0.7,0.1-0.9,0.3c-0.2,0.2-0.3,0.5-0.3,0.9v10.5c0,0.4,0.1,0.7,0.3,0.9
	C8.1,22.3,8.4,22.5,8.8,22.5z"/>
</svg>
