<?xml version="1.0" encoding="utf-8"?>
<!-- Generator: Adobe Illustrator 26.3.1, SVG Export Plug-In . SVG Version: 6.00 Build 0)  -->
<svg version="1.1" id="Слой_1" xmlns="http://www.w3.org/2000/svg" xmlns:xlink="http://www.w3.org/1999/xlink" x="0px" y="0px"
	 viewBox="0 0 48 48" style="enable-background:new 0 0 48 48;" xml:space="preserve">
<path d="M34,31c-1.3,0-2.4-0.4-3.3-1.3s-1.3-2-1.3-3.3s0.4-2.4,1.3-3.3s2-1.3,3.3-1.3s2.4,0.4,3.3,1.3c0.9,0.9,1.3,2,1.3,3.3
	s-0.4,2.4-1.3,3.3S35.3,31,34,31z M34,29.5c0.9,0,1.6-0.3,2.2-0.9c0.6-0.6,0.9-1.3,0.9-2.2s-0.3-1.6-0.9-2.2
	c-0.6-0.6-1.3-0.9-2.2-0.9s-1.6,0.3-2.2,0.9c-0.6,0.6-0.9,1.3-0.9,2.2s0.3,1.6,0.9,2.2C32.4,29.2,33.1,29.5,34,29.5z M23.4,42.8
	v-4.4c0-0.5,0.1-0.9,0.3-1.3c0.2-0.4,0.5-0.7,0.9-1c0.9-0.5,1.8-1,2.7-1.3c0.9-0.4,1.9-0.7,2.9-0.9l3.8,5l3.7-5c1,0.2,2,0.5,2.9,0.9
	s1.9,0.8,2.7,1.3c0.4,0.2,0.7,0.6,0.9,1s0.3,0.8,0.4,1.3v4.5C44.6,42.8,23.4,42.8,23.4,42.8z M24.9,41.3h8.9l-4.2-5.5
	c-0.9,0.2-1.7,0.5-2.5,0.9c-0.8,0.3-1.5,0.7-2.3,1.1v3.5H24.9z M34.2,41.3h8.9v-3.6c-0.7-0.4-1.5-0.8-2.3-1.1s-1.6-0.6-2.4-0.8
	C38.3,35.8,34.2,41.3,34.2,41.3z M10.8,40c-0.8,0-1.4-0.3-2-0.8C8.3,38.6,8,38,8,37.2V10.8c0-0.8,0.3-1.4,0.8-2C9.4,8.3,10,8,10.8,8
	h26.5c0.7,0,1.4,0.3,1.9,0.8c0.5,0.6,0.8,1.2,0.8,2v8.5c-0.2-0.3-0.4-0.5-0.7-0.7s-0.5-0.4-0.8-0.7v-7.1c0-0.4-0.1-0.7-0.3-0.9
	s-0.5-0.3-0.9-0.3H10.8c-0.4,0-0.7,0.1-0.9,0.3s-0.3,0.5-0.3,0.9v26.5c0,0.4,0.1,0.7,0.3,0.9s0.5,0.3,0.9,0.3h7.5c0,0,0,0,0.1,0l0,0
	V40H10.8z M15,17h16.2c0.3,0,0.6-0.1,0.9-0.1c0.3,0,0.6-0.1,0.9-0.1v-1.3H15V17z M15,24.8h9.5c0.1-0.3,0.1-0.5,0.2-0.8
	s0.1-0.5,0.2-0.7H15C15,23.2,15,24.8,15,24.8z M15,32.5h6.1c0.4-0.3,0.9-0.6,1.3-0.9c0.5-0.3,0.9-0.5,1.5-0.7V31H15V32.5z M9.5,38.5
	v-29v8.3v-1.1C9.5,16.7,9.5,38.5,9.5,38.5z"/>
</svg>
