<?xml version="1.0" encoding="utf-8"?>
<!-- Generator: Adobe Illustrator 26.3.1, SVG Export Plug-In . SVG Version: 6.00 Build 0)  -->
<svg version="1.1" id="Слой_1" xmlns="http://www.w3.org/2000/svg" xmlns:xlink="http://www.w3.org/1999/xlink" x="0px" y="0px"
	 viewBox="0 0 48 48" style="enable-background:new 0 0 48 48;" xml:space="preserve">
<path d="M18.6,18.6l1.5,1.5h-4.6c-0.2,0-0.3,0.1-0.4,0.2c-0.1,0.1-0.2,0.3-0.2,0.4v6.4c0,0.2,0.1,0.3,0.2,0.4
	c0.1,0.1,0.3,0.2,0.4,0.2H20c0.2,0,0.3-0.1,0.4-0.2s0.2-0.3,0.2-0.4v-0.6h1.5v0.8c0,0.5-0.2,1-0.6,1.4s-0.8,0.6-1.4,0.6h-5
	c-0.5,0-1-0.2-1.4-0.6s-0.6-0.8-0.6-1.4v-6.9c0-0.5,0.2-1,0.6-1.4c0.4-0.4,0.8-0.6,1.4-0.6C15.3,18.6,18.6,18.6,18.6,18.6z M15,10
	h22.3c0.8,0,1.4,0.3,2,0.8c0.5,0.5,0.8,1.2,0.8,2V35l-1.5-1.5V12.8c0-0.4-0.1-0.7-0.3-0.9s-0.5-0.3-0.9-0.3H16.5L15,10z M34.6,26.6
	v0.8c0,0.3-0.1,0.6-0.2,0.8c-0.2,0.2-0.3,0.4-0.6,0.4h-0.2l-1.3-1.2h0.8v-0.8C33.1,26.6,34.6,26.6,34.6,26.6z M33.1,21.5v-0.7
	c0-0.2-0.1-0.3-0.2-0.4c-0.1-0.1-0.3-0.2-0.4-0.2H28c-0.2,0-0.3,0.1-0.4,0.2s-0.2,0.3-0.2,0.4v1.6l-1.5-1.5V20
	c0.1-0.4,0.3-0.7,0.7-1c0.3-0.3,0.7-0.4,1.2-0.4h4.9c0.5,0,1,0.2,1.4,0.6s0.6,0.8,0.6,1.4v0.9H33.1z M10.1,10.1l1.5,1.5h-0.8
	c-0.3,0-0.6,0.1-0.8,0.4c-0.3,0.3-0.4,0.5-0.4,0.8v22.5c0,0.3,0.1,0.6,0.4,0.8s0.5,0.4,0.8,0.4h23.5L3.8,6l1.1-1.1l38.8,38.8
	l-1.1,1.1L35.8,38h-25c-0.8,0-1.4-0.3-2-0.8C8.3,36.7,8,36,8,35.2V12.8c0-0.7,0.2-1.2,0.6-1.7C9,10.5,9.5,10.2,10.1,10.1z"/>
</svg>
