<?xml version="1.0" encoding="utf-8"?>
<!-- Generator: Adobe Illustrator 26.3.1, SVG Export Plug-In . SVG Version: 6.00 Build 0)  -->
<svg version="1.1" id="Слой_1" xmlns="http://www.w3.org/2000/svg" xmlns:xlink="http://www.w3.org/1999/xlink" x="0px" y="0px"
	 viewBox="0 0 48 48" style="enable-background:new 0 0 48 48;" xml:space="preserve">
<path d="M10.8,38c-0.8,0-1.4-0.3-2-0.8C8.3,36.7,8,36,8,35.2V12.8c0-0.8,0.3-1.4,0.8-2c0.5-0.5,1.2-0.8,2-0.8h26.5
	c0.8,0,1.4,0.3,2,0.8c0.5,0.5,0.8,1.2,0.8,2v22.5c0,0.8-0.3,1.4-0.8,2c-0.5,0.5-1.2,0.8-2,0.8L10.8,38L10.8,38z M10.8,36.5h26.5
	c0.3,0,0.6-0.1,0.8-0.4c0.3-0.3,0.4-0.5,0.4-0.8V12.8c0-0.3-0.1-0.6-0.4-0.8c-0.3-0.3-0.5-0.4-0.8-0.4H10.8c-0.3,0-0.6,0.1-0.8,0.4
	c-0.3,0.3-0.4,0.5-0.4,0.8v22.5c0,0.3,0.1,0.6,0.4,0.8S10.5,36.5,10.8,36.5z M15.3,29.4h5c0.5,0,1-0.2,1.4-0.6s0.6-0.8,0.6-1.4v-0.8
	h-1.5v0.6c0,0.2-0.1,0.3-0.2,0.4s-0.3,0.2-0.4,0.2h-4.5c-0.2,0-0.3-0.1-0.4-0.2c-0.1-0.1-0.2-0.3-0.2-0.4v-6.4
	c0-0.2,0.1-0.3,0.2-0.4c0.1-0.1,0.3-0.2,0.4-0.2h4.5c0.2,0,0.3,0.1,0.4,0.2s0.2,0.3,0.2,0.4v0.7h1.5v-0.9c0-0.5-0.2-1-0.6-1.4
	s-0.8-0.6-1.4-0.6h-5c-0.5,0-1,0.2-1.4,0.6s-0.6,0.8-0.6,1.4v6.9c0,0.5,0.2,1,0.6,1.4C14.3,29.2,14.8,29.4,15.3,29.4z M27.8,29.4
	h4.9c0.5,0,1-0.2,1.4-0.6s0.6-0.8,0.6-1.3v-0.8h-1.5v0.6c0,0.2-0.1,0.3-0.2,0.4c-0.1,0.1-0.3,0.2-0.4,0.2H28c-0.2,0-0.3-0.1-0.4-0.2
	s-0.2-0.3-0.2-0.4v-6.4c0-0.2,0.1-0.3,0.2-0.4s0.3-0.2,0.4-0.2h4.5c0.2,0,0.3,0.1,0.4,0.2c0.1,0.1,0.2,0.3,0.2,0.4v0.7h1.5v-0.9
	c0-0.5-0.2-0.9-0.6-1.3c-0.4-0.4-0.8-0.6-1.4-0.6h-4.9c-0.5,0-1,0.2-1.4,0.6s-0.6,0.8-0.6,1.3v6.9c0,0.5,0.2,0.9,0.6,1.3
	S27.2,29.4,27.8,29.4z M9.5,36.5v-25V36.5z"/>
</svg>
