<?xml version="1.0" encoding="utf-8"?>
<!-- Generator: Adobe Illustrator 26.3.1, SVG Export Plug-In . SVG Version: 6.00 Build 0)  -->
<svg version="1.1" id="Слой_1" xmlns="http://www.w3.org/2000/svg" xmlns:xlink="http://www.w3.org/1999/xlink" x="0px" y="0px"
	 viewBox="0 0 48 48" style="enable-background:new 0 0 48 48;" xml:space="preserve">
<path d="M9.5,38.7v-1.5h6.7C13.6,35,11.7,33,10.6,31S9,26.7,9,24.2c0-3.1,0.9-5.9,2.6-8.6c1.7-2.6,4.1-4.5,7.1-5.6v1.6
	c-2.4,1-4.3,2.7-5.9,5c-1.5,2.3-2.3,4.8-2.3,7.6c0,2.2,0.5,4.2,1.4,6c1,1.8,2.7,3.8,5.3,5.8v-6.7h1.5v9.3
	C18.8,38.7,9.5,38.7,9.5,38.7z M30,39c-1.4,0-2.5-0.5-3.5-1.5S25,35.3,25,34s0.5-2.5,1.4-3.5S28.5,29,30,29c0.5-1.2,1.3-2.2,2.3-2.9
	c1-0.7,2.3-1.1,3.7-1.1c1.6,0,3.1,0.5,4.3,1.6s1.9,2.5,2.1,4.4H43c1.1,0,2.1,0.4,2.8,1.2C46.6,33,47,33.9,47,35s-0.4,2.1-1.2,2.9
	C45.1,38.6,44.1,39,43,39H30z M37.3,21.5c-0.4-1.7-1-3.2-1.9-4.6s-2.4-3-4.5-4.9v6.6h-1.5V9.3h9.3v1.5H32c2.2,1.9,3.9,3.8,4.9,5.5
	c1,1.7,1.7,3.4,2,5.1C38.8,21.5,37.3,21.5,37.3,21.5z M30,37.5h13c0.7,0,1.2-0.2,1.7-0.7s0.7-1.1,0.7-1.7s-0.2-1.2-0.7-1.7
	s-1.1-0.7-1.7-0.7h-2v-1c0-1.4-0.5-2.5-1.5-3.5s-2.1-1.5-3.5-1.5s-2.5,0.4-3.4,1.2c-0.9,0.8-1.4,1.8-1.5,2.9v-0.1H30
	c-1,0-1.8,0.3-2.5,1s-1,1.5-1,2.5s0.3,1.8,1,2.5C28.2,37.1,29,37.5,30,37.5z"/>
</svg>
