<?xml version="1.0" encoding="utf-8"?>
<!-- Generator: Adobe Illustrator 26.3.1, SVG Export Plug-In . SVG Version: 6.00 Build 0)  -->
<svg version="1.1" id="Слой_1" xmlns="http://www.w3.org/2000/svg" xmlns:xlink="http://www.w3.org/1999/xlink" x="0px" y="0px"
	 viewBox="0 0 48 48" style="enable-background:new 0 0 48 48;" xml:space="preserve">
<path d="M16.9,29.7H32c1.1,0,2-0.3,2.7-1c0.8-0.7,1.1-1.6,1.1-2.6s-0.4-1.9-1.1-2.6c-0.7-0.7-1.7-1-2.8-1h-2v-1.2
	c0-1.7-0.6-3.1-1.7-4.3s-2.5-1.8-4.1-1.8s-2.9,0.5-4,1.4c-1.1,1-1.7,2.2-1.9,3.7H17c-1.3-0.1-2.5,0.4-3.4,1.3c-1,0.9-1.4,2-1.4,3.3
	s0.5,2.4,1.4,3.3C14.5,29.2,15.6,29.7,16.9,29.7z M16.9,28.2c-0.9,0-1.7-0.3-2.3-0.9s-0.9-1.3-0.9-2.2c0-0.9,0.3-1.6,0.9-2.2
	c0.6-0.6,1.4-0.9,2.3-0.9h2.8v-1c0-1.2,0.4-2.2,1.3-3s1.9-1.2,3.1-1.2s2.2,0.4,3,1.2c0.8,0.8,1.2,1.8,1.2,3v3H32
	c0.6,0,1.2,0.2,1.6,0.6c0.5,0.4,0.7,0.9,0.7,1.5s-0.2,1.1-0.7,1.5s-1,0.6-1.6,0.6C32,28.2,16.9,28.2,16.9,28.2z M24,42
	c-2.5,0-4.8-0.5-7-1.4s-4.1-2.2-5.7-3.9c-1.6-1.6-2.9-3.5-3.9-5.7C6.5,28.8,6,26.5,6,24s0.5-4.8,1.4-7s2.2-4.1,3.9-5.7
	c1.6-1.6,3.5-2.9,5.7-3.8c2.2-1,4.5-1.5,7-1.5s4.8,0.5,7,1.4s4.1,2.2,5.7,3.8c1.6,1.6,2.9,3.5,3.8,5.7c0.9,2.2,1.4,4.5,1.4,7
	s-0.5,4.8-1.4,7s-2.2,4.1-3.8,5.7s-3.5,2.9-5.7,3.9S26.5,42,24,42z M24,40.5c4.6,0,8.5-1.6,11.7-4.8s4.8-7.1,4.8-11.7
	s-1.6-8.5-4.8-11.7S28.6,7.5,24,7.5s-8.5,1.6-11.7,4.8S7.5,19.4,7.5,24s1.6,8.5,4.8,11.7S19.4,40.5,24,40.5z"/>
</svg>
