<?xml version="1.0" encoding="utf-8"?>
<!-- Generator: Adobe Illustrator 26.3.1, SVG Export Plug-In . SVG Version: 6.00 Build 0)  -->
<svg version="1.1" id="Слой_1" xmlns="http://www.w3.org/2000/svg" xmlns:xlink="http://www.w3.org/1999/xlink" x="0px" y="0px"
	 viewBox="0 0 48 48" style="enable-background:new 0 0 48 48;" xml:space="preserve">
<path d="M12.8,38c-2.5,0-4.6-0.9-6.2-2.6S4,31.6,4,29.2c0-2.3,0.8-4.3,2.4-6.1s3.6-2.7,5.9-2.7c0.4-3,1.7-5.4,3.9-7.4s4.8-3,7.8-3
	c3.3,0,6,1.2,8.3,3.5s3.4,5.1,3.4,8.5v2.5h1.2c2-0.1,3.6,0.5,5,1.8s2.1,2.9,2.1,4.9c0,1.9-0.7,3.5-2,4.8c-1.3,1.3-2.9,2-4.8,2H12.8z
	 M12.8,36.5h24.5c1.4,0,2.7-0.5,3.7-1.5s1.5-2.2,1.5-3.7c0-1.4-0.5-2.7-1.5-3.7s-2.2-1.5-3.7-1.5h-3.1V22c0-2.9-1-5.4-3-7.4
	s-4.4-3-7.2-3s-5.2,1-7.2,3s-3,4.5-3,7.4h-1c-2,0-3.7,0.7-5.1,2.1s-2.1,3.1-2.1,5.1s0.7,3.7,2.1,5.1S10.8,36.5,12.8,36.5z"/>
</svg>
