<?xml version="1.0" encoding="utf-8"?>
<!-- Generator: Adobe Illustrator 26.3.1, SVG Export Plug-In . SVG Version: 6.00 Build 0)  -->
<svg version="1.1" id="Слой_1" xmlns="http://www.w3.org/2000/svg" xmlns:xlink="http://www.w3.org/1999/xlink" x="0px" y="0px"
	 viewBox="0 0 48 48" style="enable-background:new 0 0 48 48;" xml:space="preserve">
<path d="M12.8,38c-2.5,0-4.5-0.9-6.2-2.6C4.8,33.7,4,31.6,4,29.2c0-2.3,0.8-4.3,2.4-6.1s3.6-2.7,5.9-2.7c0.4-3,1.6-5.5,3.9-7.4
	c2.2-2,4.8-3,7.8-3c3.3,0,6,1.2,8.3,3.5s3.4,5.1,3.4,8.4v2.6h1.2c2-0.1,3.6,0.5,5,1.8s2.1,2.9,2.1,4.9c0,1.9-0.7,3.5-2,4.8
	c-1.3,1.3-2.9,2-4.8,2H12.8z M12.8,36.5h24.5c1.4,0,2.7-0.5,3.7-1.5s1.5-2.2,1.5-3.7c0-1.4-0.5-2.7-1.5-3.7s-2.3-1.5-3.7-1.5h-3.1
	V22c0-2.9-1-5.3-3-7.4c-2-2-4.4-3-7.3-3c-2.8,0-5.2,1-7.2,3s-3,4.5-3,7.4h-1c-2,0-3.7,0.7-5.1,2.1s-2.1,3.1-2.1,5.2
	c0,2,0.7,3.7,2.1,5.1S10.8,36.5,12.8,36.5z M24,29.7c0.2,0,0.4-0.1,0.6-0.2c0.1-0.1,0.2-0.3,0.2-0.6s-0.1-0.4-0.2-0.6
	c-0.1-0.1-0.3-0.2-0.6-0.2s-0.4,0.1-0.6,0.2c-0.1,0.1-0.2,0.3-0.2,0.6c0,0.2,0.1,0.4,0.2,0.6C23.6,29.7,23.8,29.7,24,29.7z M23.2,25
	h1.5v-8h-1.5V25z"/>
</svg>
