<?xml version="1.0" encoding="utf-8"?>
<!-- Generator: Adobe Illustrator 26.3.1, SVG Export Plug-In . SVG Version: 6.00 Build 0)  -->
<svg version="1.1" id="Слой_1" xmlns="http://www.w3.org/2000/svg" xmlns:xlink="http://www.w3.org/1999/xlink" x="0px" y="0px"
	 viewBox="0 0 48 48" style="enable-background:new 0 0 48 48;" xml:space="preserve">
<path d="M12.8,38c-2.5,0-4.5-0.9-6.2-2.6C4.8,33.7,4,31.6,4,29.2c0-2.3,0.8-4.4,2.4-6.1s3.6-2.6,5.9-2.7c0.3-2.6,1.5-5,3.7-7.1
	c2.1-2.1,4.6-3.1,7.2-3.1c0.4,0,0.8,0.1,1.1,0.4c0.3,0.2,0.5,0.6,0.5,0.9v15.8l4.6-4.6l1.1,1.1L24,30.2l-6.4-6.4l1.1-1.1l4.5,4.6
	V11.6c-2.7,0.1-4.9,1.2-6.8,3.3s-2.8,4.5-2.8,7h-1c-2,0-3.7,0.7-5.1,2.1s-2.1,3.1-2.1,5.2c0,2,0.7,3.8,2.1,5.2s3.1,2.1,5.1,2.1h24.5
	c1.4,0,2.7-0.5,3.7-1.5s1.5-2.2,1.5-3.7c0-1.4-0.5-2.7-1.5-3.7s-2.3-1.5-3.7-1.5H34V22c0-1.9-0.4-3.7-1.3-5.2
	c-0.9-1.5-2.1-2.7-3.5-3.6v-1.8c2,0.9,3.6,2.4,4.7,4.3c1.1,1.9,1.7,4,1.7,6.3v2.6h1.2c2-0.1,3.6,0.5,5,1.8s2.1,2.9,2.1,4.9
	c0,1.9-0.7,3.5-2,4.8s-2.9,2-4.8,2L12.8,38L12.8,38z"/>
</svg>
