<?xml version="1.0" encoding="utf-8"?>
<!-- Generator: Adobe Illustrator 26.3.1, SVG Export Plug-In . SVG Version: 6.00 Build 0)  -->
<svg version="1.1" id="Слой_1" xmlns="http://www.w3.org/2000/svg" xmlns:xlink="http://www.w3.org/1999/xlink" x="0px" y="0px"
	 viewBox="0 0 48 48" style="enable-background:new 0 0 48 48;" xml:space="preserve">
<path d="M27.5,38H12.8c-2.4,0-4.5-0.9-6.2-2.6C4.9,33.7,4,31.6,4,29.2c0-2.3,0.8-4.4,2.5-6.1s3.6-2.6,5.9-2.7c0.4-3,1.6-5.5,3.9-7.4
	c2.2-2,4.8-3,7.8-3c2.9,0,5.5,1,7.6,2.9s3.4,4.3,3.8,7.1c-0.3,0.1-0.5,0.1-0.8,0.2s-0.5,0.1-0.7,0.2v-0.2c-0.4-2.4-1.5-4.4-3.4-6.1
	s-4.1-2.5-6.6-2.5c-2.8,0-5.3,1-7.2,3.1c-2,2-3,4.5-3,7.3h-1.1c-1.9,0-3.6,0.7-5,2.1s-2.1,3.1-2.1,5.2c0,2,0.7,3.7,2.1,5.1
	c1.4,1.4,3.1,2.1,5.1,2.1h14.7V38z M33.3,38c-0.4,0-0.8-0.1-1.1-0.4c-0.3-0.3-0.4-0.7-0.4-1.1v-5.4c0-0.4,0.2-0.8,0.5-1
	c0.4-0.3,0.8-0.4,1.3-0.4v-2.1c0-0.9,0.3-1.7,1-2.3c0.6-0.6,1.4-1,2.3-1s1.7,0.3,2.3,1c0.6,0.6,0.9,1.4,0.9,2.3v2.1
	c0.5,0,0.9,0.1,1.3,0.4s0.5,0.6,0.5,1v5.4c0,0.4-0.1,0.8-0.4,1.1c-0.3,0.3-0.6,0.4-1,0.4H33.3z M34.9,29.6h4v-2.1
	c0-0.6-0.2-1.1-0.5-1.4c-0.4-0.4-0.8-0.5-1.4-0.5s-1.1,0.2-1.5,0.6s-0.6,0.9-0.6,1.4V29.6z"/>
</svg>
