<?xml version="1.0" encoding="utf-8"?>
<!-- Generator: Adobe Illustrator 26.3.1, SVG Export Plug-In . SVG Version: 6.00 Build 0)  -->
<svg version="1.1" id="Слой_1" xmlns="http://www.w3.org/2000/svg" xmlns:xlink="http://www.w3.org/1999/xlink" x="0px" y="0px"
	 viewBox="0 0 48 48" style="enable-background:new 0 0 48 48;" xml:space="preserve">
<path d="M22.2,29.2c-0.4,0-0.7-0.1-1-0.4s-0.4-0.6-0.4-1v-7.7c0-0.4,0.1-0.7,0.4-1s0.6-0.4,1-0.4h5.7c0.4,0,0.7,0.1,1,0.4
	s0.4,0.6,0.4,1v7.7c0,0.4-0.1,0.7-0.4,1s-0.6,0.4-1,0.4C27.8,29.2,22.2,29.2,22.2,29.2z M22.2,27.8h5.5v-7.5h-5.5V27.8z M8.2,29.2
	c-0.4,0-0.7-0.1-1-0.4s-0.4-0.6-0.4-1v-7.7c0-0.4,0.1-0.7,0.4-1s0.6-0.4,1-0.4h5.7c0.4,0,0.7,0.1,1,0.4s0.4,0.6,0.4,1v1.1h-1.5v-1
	H8.2v7.5h5.5v-1h1.5v1.1c0,0.4-0.1,0.7-0.4,1c-0.3,0.3-0.6,0.4-1,0.4C13.8,29.2,8.2,29.2,8.2,29.2z M34.8,35.2v-4.5
	c0-0.4,0.1-0.7,0.4-1c0.3-0.3,0.6-0.4,1-0.4h4.6v-3.1h-6v-1.5h6.1c0.4,0,0.7,0.1,1,0.4s0.4,0.6,0.4,1v3.1c0,0.4-0.1,0.7-0.4,1
	s-0.6,0.4-1,0.4h-4.6v3.1h6v1.5C42.2,35.2,34.8,35.2,34.8,35.2z"/>
</svg>
