<?xml version="1.0" encoding="utf-8"?>
<!-- Generator: Adobe Illustrator 26.3.1, SVG Export Plug-In . SVG Version: 6.00 Build 0)  -->
<svg version="1.1" id="Слой_1" xmlns="http://www.w3.org/2000/svg" xmlns:xlink="http://www.w3.org/1999/xlink" x="0px" y="0px"
	 viewBox="0 0 48 48" style="enable-background:new 0 0 48 48;" xml:space="preserve">
<path d="M42.5,38.9V9.8c0-0.4-0.1-0.7-0.3-0.9s-0.5-0.3-0.9-0.3H6.8c-0.4,0-0.7,0.1-0.9,0.3S5.5,9.4,5.5,9.8v14.8H4V9.8
	c0-0.8,0.3-1.4,0.8-2C5.4,7.3,6,7,6.8,7h34.5c0.7,0,1.4,0.3,1.9,0.8C43.7,8.4,44,9,44,9.8v26.7c0,0.5-0.1,1-0.4,1.5
	C43.3,38.3,42.9,38.7,42.5,38.9z M18,26.8c-1.6,0-3-0.5-4.1-1.6s-1.6-2.5-1.6-4.1c0-1.7,0.5-3,1.6-4.1s2.5-1.6,4.1-1.6
	s3,0.5,4.1,1.6s1.6,2.5,1.6,4.1c0,1.7-0.5,3-1.6,4.1C21,26.2,19.6,26.8,18,26.8z M18,25.2c1.2,0,2.2-0.4,3-1.2
	c0.8-0.8,1.2-1.8,1.2-3s-0.4-2.2-1.2-3c-0.8-0.8-1.8-1.2-3-1.2s-2.2,0.4-3,1.2c-0.8,0.8-1.2,1.8-1.2,3s0.4,2.2,1.2,3
	S16.8,25.2,18,25.2z M4,41.2v-2.9c0-0.9,0.3-1.7,0.8-2.4s1.2-1.2,2-1.6c2-0.9,3.9-1.5,5.8-2c1.9-0.4,3.7-0.7,5.5-0.7
	s3.6,0.2,5.5,0.7s3.8,1.1,5.7,2c0.8,0.4,1.5,0.9,2,1.6c0.5,0.7,0.8,1.5,0.8,2.4v2.9H4z M5.5,39.7h24.9v-1.4c0-0.5-0.2-1-0.5-1.5
	s-0.8-0.9-1.4-1.2c-1.8-0.9-3.6-1.5-5.3-1.9c-1.7-0.4-3.5-0.6-5.3-0.6s-3.6,0.2-5.3,0.6c-1.7,0.4-3.5,1-5.3,1.9
	C6.9,36,6.4,36.4,6,36.9c-0.3,0.5-0.5,1-0.5,1.5C5.5,38.3,5.5,39.7,5.5,39.7z"/>
</svg>
