<?xml version="1.0" encoding="utf-8"?>
<!-- Generator: Adobe Illustrator 26.3.1, SVG Export Plug-In . SVG Version: 6.00 Build 0)  -->
<svg version="1.1" id="Слой_1" xmlns="http://www.w3.org/2000/svg" xmlns:xlink="http://www.w3.org/1999/xlink" x="0px" y="0px"
	 viewBox="0 0 48 48" style="enable-background:new 0 0 48 48;" xml:space="preserve">
<path d="M12.8,42c-0.8,0-1.4-0.3-2-0.8c-0.5-0.5-0.8-1.2-0.8-2V8.8c0-0.8,0.3-1.4,0.8-2C11.3,6.3,12,6,12.8,6H38v1.5h-5.6v1.8
	c0,0.4-0.2,0.7-0.5,1.1c-0.3,0.3-0.7,0.5-1.1,0.5H18.7c-0.4,0-0.7-0.2-1-0.5s-0.5-0.7-0.5-1.1V7.5h-4.4c-0.4,0-0.7,0.1-0.9,0.3
	c-0.2,0.2-0.3,0.5-0.3,0.9v30.5c0,0.4,0.1,0.7,0.3,0.9s0.5,0.3,0.9,0.3h8.4c-1.2-0.7-2.1-1.6-2.9-2.6c-0.7-1.1-1.1-2.5-1.1-4.1v-7.8
	h15.2v7.8c0,1.7-0.4,3-1.1,4.1c-0.7,1.1-1.7,2-2.9,2.6H38V42H12.8z M24.8,39.9c1.7,0,3.1-0.6,4.3-1.8c1.2-1.2,1.8-2.7,1.8-4.4v-6.3
	H18.8v6.3c0,1.7,0.6,3.2,1.8,4.4C21.7,39.3,23.1,39.9,24.8,39.9z M24.8,20c0.4,0,0.8-0.1,1.1-0.4c0.3-0.3,0.5-0.7,0.5-1.1
	s-0.2-0.8-0.5-1.1c-0.3-0.3-0.7-0.4-1.1-0.4s-0.8,0.1-1.1,0.4c-0.3,0.3-0.5,0.7-0.5,1.1s0.2,0.8,0.5,1.1C24,19.9,24.4,20,24.8,20z"
	/>
</svg>
