<?xml version="1.0" encoding="utf-8"?>
<!-- Generator: Adobe Illustrator 26.3.1, SVG Export Plug-In . SVG Version: 6.00 Build 0)  -->
<svg version="1.1" id="Слой_1" xmlns="http://www.w3.org/2000/svg" xmlns:xlink="http://www.w3.org/1999/xlink" x="0px" y="0px"
	 viewBox="0 0 48 48" style="enable-background:new 0 0 48 48;" xml:space="preserve">
<path d="M17.4,39.1L6.9,28.6c-0.3-0.3-0.5-0.6-0.6-1C6.1,27.2,6,26.9,6,26.5s0.1-0.8,0.2-1.1c0.2-0.3,0.4-0.7,0.6-1l11.6-11.6
	L12.5,7l1.1-1l18.5,18.5c0.3,0.3,0.5,0.6,0.7,1c0.1,0.3,0.2,0.7,0.2,1.1s-0.1,0.7-0.2,1.1c-0.1,0.4-0.4,0.7-0.7,1L21.6,39.1
	c-0.3,0.3-0.6,0.5-1,0.6c-0.3,0.2-0.7,0.2-1.1,0.2s-0.7-0.1-1.1-0.2C18,39.6,17.7,39.4,17.4,39.1z M19.5,13.9L7.7,25.7
	c-0.2,0.2-0.3,0.3-0.3,0.5c-0.1,0.2-0.1,0.3-0.1,0.5h24.3c0-0.2,0-0.3-0.1-0.5s-0.2-0.3-0.3-0.5L19.5,13.9z M38.8,40
	c-0.9,0-1.6-0.3-2.2-0.9c-0.6-0.6-0.9-1.4-0.9-2.3c0-0.7,0.1-1.4,0.4-2.1c0.3-0.7,0.6-1.2,1.1-1.8l1.7-2.1l1.7,2.1
	c0.5,0.5,0.8,1.1,1.1,1.8s0.4,1.3,0.4,2.1c0,0.9-0.3,1.7-0.9,2.3C40.5,39.7,39.7,40,38.8,40z"/>
</svg>
