<?xml version="1.0" encoding="utf-8"?>
<!-- Generator: Adobe Illustrator 26.3.1, SVG Export Plug-In . SVG Version: 6.00 Build 0)  -->
<svg version="1.1" id="Слой_1" xmlns="http://www.w3.org/2000/svg" xmlns:xlink="http://www.w3.org/1999/xlink" x="0px" y="0px"
	 viewBox="0 0 48 48" style="enable-background:new 0 0 48 48;" xml:space="preserve">
<path d="M24,32.4c1.6,0,3-0.5,4.2-1.5s1.9-2.3,2.2-3.8H17.6c0.3,1.6,1,2.9,2.2,3.8C21,31.9,22.4,32.4,24,32.4z M15.3,18.5h6
	c0-0.8-0.3-1.6-0.9-2.2s-1.3-0.9-2.2-0.9c-0.8,0-1.6,0.3-2.1,0.9C15.6,16.9,15.3,17.6,15.3,18.5z M26.7,18.4h6.1
	c0-0.8-0.3-1.6-0.9-2.1c-0.6-0.6-1.3-0.9-2.2-0.9c-0.8,0-1.5,0.3-2.1,0.9C27,16.9,26.7,17.6,26.7,18.4z M24,42
	c-2.2,0-4.3-0.4-6.2-1.3c-1.9-0.8-3.6-2-5.1-3.4c-1.4-1.5-2.6-3.2-3.4-5.1c-0.8-2-1.3-4-1.3-6.3V6h32v19.9c0,2.2-0.4,4.3-1.3,6.3
	c-0.8,2-2,3.7-3.4,5.1c-1.5,1.5-3.1,2.6-5.1,3.4C28.3,41.6,26.2,42,24,42z M24,40.5c4,0,7.4-1.4,10.2-4.2S38.4,30,38.4,26V7.5H9.5
	v18.4c0,4.1,1.4,7.5,4.2,10.3S20,40.5,24,40.5z"/>
</svg>
