<?xml version="1.0" encoding="utf-8"?>
<!-- Generator: Adobe Illustrator 26.3.1, SVG Export Plug-In . SVG Version: 6.00 Build 0)  -->
<svg version="1.1" id="Слой_1" xmlns="http://www.w3.org/2000/svg" xmlns:xlink="http://www.w3.org/1999/xlink" x="0px" y="0px"
	 viewBox="0 0 48 48" style="enable-background:new 0 0 48 48;" xml:space="preserve">
<path d="M22,7.2l-4.3,4.3h-6.1v6.1L7.2,22l4.3,4.3v6.1h6.1l4.3,4.3l5.1-5.1l9.4,4.8l-4.8-9.3l5.1-5.1l-4.3-4.3v-6.1h-6.1
	C26.3,11.6,22,7.2,22,7.2z M22,5l5,5h7v7l5,5l-5.4,5.4l4.5,8.8c0.2,0.3,0.2,0.6,0.2,0.9c-0.1,0.3-0.2,0.5-0.4,0.7s-0.5,0.3-0.7,0.4
	c-0.3,0.1-0.5,0-0.9-0.2l-8.8-4.5L22,39l-5-5h-7v-7l-5-5l5-5v-7h7L22,5z"/>
</svg>
