<?xml version="1.0" encoding="utf-8"?>
<!-- Generator: Adobe Illustrator 26.3.1, SVG Export Plug-In . SVG Version: 6.00 Build 0)  -->
<svg version="1.1" id="Слой_1" xmlns="http://www.w3.org/2000/svg" xmlns:xlink="http://www.w3.org/1999/xlink" x="0px" y="0px"
	 viewBox="0 0 48 48" style="enable-background:new 0 0 48 48;" xml:space="preserve">
<path d="M8.8,34c-0.8,0-1.4-0.3-2-0.8C6.3,32.7,6,32,6,31.2V9c0-0.1,0-0.3,0-0.4c0-0.1,0-0.2,0.1-0.3L3.8,6l1.1-1.1l38.8,38.8
	l-1.1,1.1L31.8,34H8.8z M42,37l-4.6-4.6h3V8.8c0-0.4-0.1-0.7-0.3-0.9c-0.2-0.2-0.5-0.3-0.9-0.3H12.5L11,6h28.3c0.8,0,1.4,0.3,2,0.8
	C41.7,7.3,42,8,42,8.8V37z M8.8,32.5h21.5L24.8,27H13v-1.5h10.2l-4.7-4.7H13v-1.5h4L7.5,9.8v21.5c0,0.4,0.1,0.7,0.3,0.9
	C8.1,32.3,8.4,32.5,8.8,32.5z M32,27l-1.5-1.5H35V27H32z M25.7,20.8l-1.5-1.5H35v1.5H25.7z M19.5,14.5L18,13h17v1.5H19.5z"/>
</svg>
