<?xml version="1.0" encoding="utf-8"?>
<!-- Generator: Adobe Illustrator 26.3.1, SVG Export Plug-In . SVG Version: 6.00 Build 0)  -->
<svg version="1.1" id="Слой_1" xmlns="http://www.w3.org/2000/svg" xmlns:xlink="http://www.w3.org/1999/xlink" x="0px" y="0px"
	 viewBox="0 0 48 48" style="enable-background:new 0 0 48 48;" xml:space="preserve">
<path d="M10.3,41.4L10,39.1c-0.3-0.2-0.6-0.3-0.9-0.4c-0.3-0.1-0.5-0.3-0.7-0.4l-2.1,0.9l-1.5-2.6l1.8-1.3v-1.9L4.8,32l1.5-2.6
	l2.1,0.9c0.4-0.3,0.7-0.5,0.9-0.6s0.5-0.3,0.7-0.3l0.3-2.2h3l0.3,2.3c0.2,0.1,0.3,0.1,0.4,0.2c0.1,0.1,0.3,0.1,0.4,0.2
	c0.1,0.1,0.2,0.1,0.4,0.2c0.1,0.1,0.3,0.2,0.4,0.3l2.1-0.9l1.5,2.6L17,33.2c0,0.3,0,0.7,0,1.1c0,0.5-0.1,0.8-0.2,1
	c0.1,0.1,0.3,0.2,0.4,0.2s0.2,0.1,0.4,0.2l11.7-6.4l-1.5,2.6l-0.1-0.1l-9.1,5l-1.3,2.3l-2.1-0.9c-0.4,0.2-0.7,0.4-0.9,0.6
	c-0.2,0.1-0.5,0.3-0.7,0.4l-0.3,2.2C13.3,41.4,10.3,41.4,10.3,41.4z M11.8,30.4c-1.1,0-2,0.4-2.7,1.1C8.4,32.2,8,33.1,8,34.2
	c0,1.1,0.4,2,1.1,2.7c0.7,0.7,1.6,1.1,2.7,1.1s2-0.4,2.7-1.1c0.7-0.7,1.1-1.6,1.1-2.7c0-1-0.4-1.9-1.1-2.7
	C13.7,30.8,12.8,30.4,11.8,30.4z M20.5,19l-0.2-2.2c-0.4-0.2-0.7-0.4-0.9-0.5c-0.3-0.2-0.5-0.3-0.7-0.5l-0.4,0.4v12.3L18,27.9
	l-1.1,0.5V16.6L15,14.1l1.7-1.3v-1.9L15,9.5l1.5-2.6l2.1,0.9c0.4-0.3,0.7-0.4,0.9-0.6C19.8,7.1,20,7,20.2,6.9l0.3-2.2h3L23.8,7
	c0.3,0.1,0.6,0.3,0.8,0.4c0.2,0.1,0.5,0.3,0.8,0.5L27.5,7L29,9.5l-1.8,1.3v1.9l1.8,1.4l-1.5,2.6l-2.1-0.9c-0.4,0.2-0.7,0.4-0.9,0.6
	s-0.5,0.3-0.7,0.4L23.5,19H20.5z M22,8c-1.1,0-2,0.4-2.7,1.1c-0.7,0.7-1.1,1.6-1.1,2.7c0,1,0.4,1.9,1.1,2.7c0.7,0.7,1.6,1.1,2.7,1.1
	s2-0.4,2.7-1.1c0.7-0.7,1.1-1.6,1.1-2.7s-0.4-2-1.1-2.7C24,8.4,23.1,8,22,8z M34.7,41.4l-0.3-2.3c-0.4-0.2-0.7-0.3-0.9-0.5
	c-0.2-0.1-0.5-0.3-0.7-0.4l-2.1,0.9l-1.5-2.6l1.8-1.3v-1.9L29.2,32l1.5-2.7l2.1,0.9c0.3-0.2,0.5-0.4,0.8-0.6
	c0.2-0.2,0.4-0.3,0.5-0.3l0.2-1l-11.2-8.1h1.3l0.1-0.7L35,27h2.7l0.3,2.3c0.2,0.1,0.3,0.1,0.4,0.2c0.1,0.1,0.3,0.1,0.4,0.2
	c0.1,0.1,0.2,0.1,0.4,0.2c0.1,0.1,0.3,0.2,0.4,0.3l2.1-0.9l1.5,2.6l-1.8,1.3v1.9l1.8,1.4l-1.5,2.6l-2.1-0.9
	c-0.4,0.3-0.7,0.5-0.9,0.6S38.3,39,38,39.1l-0.3,2.2C37.7,41.4,34.7,41.4,34.7,41.4z M36.2,30.4c-1.1,0-2,0.4-2.7,1.1
	s-1.1,1.6-1.1,2.7c0,1.1,0.4,2,1.1,2.7c0.7,0.7,1.6,1.1,2.7,1.1c1.1,0,2-0.4,2.7-1.1c0.7-0.7,1.1-1.6,1.1-2.7c0-1-0.4-1.9-1.1-2.7
	C38.2,30.8,37.3,30.4,36.2,30.4z"/>
</svg>
