<?xml version="1.0" encoding="utf-8"?>
<!-- Generator: Adobe Illustrator 26.3.1, SVG Export Plug-In . SVG Version: 6.00 Build 0)  -->
<svg version="1.1" id="Слой_1" xmlns="http://www.w3.org/2000/svg" xmlns:xlink="http://www.w3.org/1999/xlink" x="0px" y="0px"
	 viewBox="0 0 48 48" style="enable-background:new 0 0 48 48;" xml:space="preserve">
<path d="M24,39.7c-2.2,0-4.3-0.4-6.3-1.3c-1.9-0.8-3.6-2-5.1-3.4c-1.5-1.5-2.6-3.2-3.4-5.1c-0.8-1.9-1.3-4-1.3-6.3
	c0-2.2,0.4-4.3,1.3-6.3c0.8-1.9,2-3.6,3.4-5.1c1.5-1.5,3.2-2.6,5.1-3.4c1.9-0.8,4-1.3,6.3-1.3V3.3l6.8,6.8L24,16.8v-4.2
	c-3,0-5.6,1.1-7.8,3.2S13,20.6,13,23.6c0,1.9,0.4,3.6,1.3,5.2c0.8,1.6,2,2.9,3.5,3.9c0.4-0.8,1.1-1.4,2-2c0.9-0.5,1.9-0.9,3.1-1
	c-0.1-0.6-0.2-1.2-0.4-1.8c-0.1-0.6-0.3-1.1-0.5-1.6c-0.3,0.3-0.6,0.4-1,0.6c-0.4,0.1-0.8,0.2-1.2,0.2c-0.9,0-1.7-0.3-2.4-1
	c-0.7-0.7-1-1.5-1-2.4V22c0-0.5-0.1-0.9-0.2-1.3s-0.4-0.8-0.6-1.2c1.4,0,2.7,0.1,3.8,0.4c1,0.3,1.8,0.7,2.6,1.2
	c0.8,0.6,1.2,1.5,1.2,2.6c0,0.3,0,0.5-0.1,0.7c0,0.2-0.1,0.4-0.2,0.6c-0.4-0.3-0.7-0.5-1.1-0.8c-0.4-0.2-0.7-0.4-1.1-0.6
	c0.5,0.4,1,1,1.7,1.7c0.6,0.8,1.2,1.7,1.7,2.7c0.6-1.4,1.3-2.7,2.1-4.1c0.8-1.3,1.8-2.6,2.9-3.7c-0.6,0.5-1.3,0.9-1.9,1.4
	s-1.2,1-1.7,1.6c-0.2-0.3-0.3-0.7-0.5-1c-0.1-0.4-0.2-0.8-0.2-1.2c0-1.2,0.4-2.2,1.2-3c0.8-0.8,1.8-1.2,3-1.2h1.7
	c0.6,0,1.2-0.1,1.6-0.3c0.4-0.2,0.8-0.4,1.1-0.6c0.3-0.3,0.6-0.5,0.7-0.8c0.1,1.9,0,3.6-0.3,5.1c-0.3,1.3-0.8,2.4-1.5,3.5
	s-1.8,1.6-3.3,1.6c-0.4,0-0.8-0.1-1.2-0.2c-0.4-0.1-0.7-0.3-1-0.5c-0.2,0.5-0.4,1.2-0.7,2.1c-0.3,0.9-0.5,1.8-0.6,2.9
	c1.1,0.2,2,0.6,2.8,1.1s1.4,1.2,1.8,1.9c1.4-1,2.6-2.3,3.5-3.8c0.9-1.6,1.3-3.3,1.3-5.2H40c0,2.2-0.4,4.3-1.3,6.3
	c-0.8,1.9-2,3.6-3.4,5.1c-1.5,1.5-3.2,2.6-5.1,3.4C28.3,39.3,26.2,39.7,24,39.7z"/>
</svg>
