<?xml version="1.0" encoding="utf-8"?>
<!-- Generator: Adobe Illustrator 26.3.1, SVG Export Plug-In . SVG Version: 6.00 Build 0)  -->
<svg version="1.1" id="Слой_1" xmlns="http://www.w3.org/2000/svg" xmlns:xlink="http://www.w3.org/1999/xlink" x="0px" y="0px"
	 viewBox="0 0 48 48" style="enable-background:new 0 0 48 48;" xml:space="preserve">
<path d="M24,40.8c-2.2,0-4-0.8-5.5-2.3s-2.3-3.4-2.3-5.5c0-2.2,0.8-4,2.3-5.5s3.4-2.3,5.5-2.3s4,0.8,5.5,2.3s2.3,3.4,2.3,5.5
	c0,2.2-0.8,4-2.3,5.5S26.2,40.8,24,40.8z M24,39.2c1.7,0,3.2-0.6,4.4-1.8c1.2-1.2,1.8-2.7,1.8-4.4s-0.6-3.2-1.8-4.5
	c-1.2-1.2-2.7-1.8-4.4-1.8c-1.7,0-3.2,0.6-4.4,1.8c-1.2,1.2-1.8,2.7-1.8,4.4s0.6,3.2,1.8,4.4C20.8,38.6,22.3,39.2,24,39.2z
	 M13.7,22.4l-6.8-6.8c2.4-2,5.1-3.5,8-4.7c2.9-1.1,5.9-1.7,9.1-1.7c3.1,0,6.2,0.6,9.1,1.7c2.9,1.1,5.6,2.7,8,4.7l-6.8,6.8
	c-1.5-1.2-3.1-2.1-4.8-2.7c-1.7-0.6-3.6-1-5.5-1s-3.8,0.3-5.5,1C16.7,20.4,15.1,21.3,13.7,22.4z M13.8,20.4c1.5-1,3.2-1.8,4.9-2.4
	c1.7-0.5,3.5-0.8,5.3-0.8s3.6,0.3,5.3,0.8c1.7,0.5,3.3,1.3,4.9,2.4l4.6-4.6c-2.1-1.6-4.5-2.8-7-3.7s-5.1-1.3-7.8-1.3
	s-5.3,0.4-7.8,1.3c-2.5,0.9-4.8,2.1-7,3.7C9.2,15.7,13.8,20.4,13.8,20.4z"/>
</svg>
