<?xml version="1.0" encoding="utf-8"?>
<!-- Generator: Adobe Illustrator 26.3.1, SVG Export Plug-In . SVG Version: 6.00 Build 0)  -->
<svg version="1.1" id="Слой_1" xmlns="http://www.w3.org/2000/svg" xmlns:xlink="http://www.w3.org/1999/xlink" x="0px" y="0px"
	 viewBox="0 0 48 48" style="enable-background:new 0 0 48 48;" xml:space="preserve">
<path d="M22,42v-1.5h22V42H22z M24,37.2c0-2.3,0.8-4.3,2.3-6s3.4-2.7,5.7-2.9v-0.8c0-0.3,0.1-0.5,0.3-0.7s0.4-0.3,0.7-0.3
	s0.5,0.1,0.7,0.3c0.2,0.2,0.3,0.4,0.3,0.7v0.8c2.3,0.2,4.2,1.2,5.7,2.9c1.5,1.7,2.3,3.7,2.3,6H24z M25.6,35.7h14.7
	c-0.4-1.7-1.3-3.1-2.6-4.3c-1.3-1.1-2.9-1.7-4.7-1.7s-3.4,0.6-4.8,1.7C26.9,32.5,26,34,25.6,35.7z M4.1,23.8V8.5h7.4v2.6l15.9-4.7
	l13.9,4.3v1.1c0,1-0.4,1.8-1.3,2.5c-0.8,0.7-1.8,1-2.9,1h-5.9v0.4c0,0.6-0.3,1.3-0.9,2.1c-0.6,0.8-1.2,1.3-1.7,1.5l-12,4.4
	C16.6,23.8,4.1,23.8,4.1,23.8z M5.6,22.2h4.3V10.1H5.6V22.2z M11.5,22.2h4.9l12.2-4.6c0.3-0.1,0.5-0.3,0.7-0.7
	c0.2-0.3,0.3-0.7,0.3-1v-0.7h-4l-5.8,1.9l-0.6-1.5l6.3-2h11.6c0.5,0,1-0.2,1.6-0.5c0.5-0.3,0.9-0.8,1-1.5L27.3,8l-15.8,4.7
	C11.5,12.8,11.5,22.2,11.5,22.2z"/>
</svg>
