<?xml version="1.0" encoding="utf-8"?>
<!-- Generator: Adobe Illustrator 26.3.1, SVG Export Plug-In . SVG Version: 6.00 Build 0)  -->
<svg version="1.1" id="Слой_1" xmlns="http://www.w3.org/2000/svg" xmlns:xlink="http://www.w3.org/1999/xlink" x="0px" y="0px"
	 viewBox="0 0 48 48" style="enable-background:new 0 0 48 48;" xml:space="preserve">
<path d="M10.6,31.4h2.5c-0.2-0.7-0.5-1.2-0.9-1.7c-0.4-0.4-1-0.7-1.6-0.9V31.4z M17.3,31.4h1.5c0-2.3-0.8-4.2-2.4-5.8
	c-1.6-1.6-3.5-2.4-5.8-2.4v1.5c1.8,0,3.4,0.7,4.7,2C16.6,28,17.3,29.6,17.3,31.4z M22.9,31.4h1.5c0-1.9-0.4-3.7-1.1-5.3
	c-0.7-1.7-1.7-3.1-2.9-4.4c-1.2-1.2-2.7-2.2-4.4-2.9c-1.7-0.7-3.5-1.1-5.3-1.1v1.5c3.4,0,6.3,1.2,8.7,3.6S22.9,28,22.9,31.4z
	 M18.2,40v-4H8.8c-0.8,0-1.4-0.3-2-0.8C6.3,34.7,6,34,6,33.2V10.8c0-0.8,0.3-1.4,0.8-2C7.3,8.3,8,8,8.8,8h30.5c0.8,0,1.4,0.3,2,0.8
	c0.5,0.5,0.8,1.2,0.8,2v22.5c0,0.8-0.3,1.4-0.8,2c-0.5,0.5-1.2,0.8-2,0.8h-9.5v4L18.2,40L18.2,40z M8.8,34.5h30.5
	c0.3,0,0.6-0.1,0.8-0.4c0.3-0.3,0.4-0.5,0.4-0.8V10.8c0-0.3-0.1-0.6-0.4-0.8c-0.3-0.3-0.5-0.4-0.8-0.4H8.8C8.5,9.6,8.2,9.7,8,10
	c-0.3,0.3-0.4,0.5-0.4,0.8v22.5c0,0.3,0.1,0.6,0.4,0.8C8.2,34.3,8.5,34.5,8.8,34.5z M7.5,34.5v-25V34.5z"/>
</svg>
