<?xml version="1.0" encoding="utf-8"?>
<!-- Generator: Adobe Illustrator 26.3.1, SVG Export Plug-In . SVG Version: 6.00 Build 0)  -->
<svg version="1.1" id="Слой_1" xmlns="http://www.w3.org/2000/svg" xmlns:xlink="http://www.w3.org/1999/xlink" x="0px" y="0px"
	 viewBox="0 0 48 48" style="enable-background:new 0 0 48 48;" xml:space="preserve">
<path d="M32.5,42v-4.1c-1.6-0.4-3.1-1.2-4.3-2.3c-1.2-1.1-2-2.5-2.4-4.1h1.6c0.5,1.5,1.3,2.7,2.5,3.6s2.7,1.4,4.3,1.4h6
	c0.5,0,0.9,0.2,1.2,0.5s0.5,0.8,0.5,1.2V42H32.5z M37.2,32.1c-0.8,0-1.5-0.3-2-0.8c-0.5-0.6-0.8-1.2-0.8-2s0.3-1.5,0.8-2.1
	c0.6-0.6,1.2-0.9,2-0.9s1.5,0.3,2.1,0.9s0.9,1.3,0.9,2.1c0,0.8-0.3,1.5-0.9,2C38.7,31.8,38,32.1,37.2,32.1z M20.2,26.5
	c0-3.5,1.2-6.4,3.7-8.9c2.4-2.4,5.4-3.6,8.9-3.6v1.5c-3.1,0-5.7,1.1-7.8,3.2s-3.2,4.7-3.2,7.8C21.8,26.5,20.2,26.5,20.2,26.5z
	 M25.3,26.5c0-2.1,0.7-3.9,2.2-5.3c1.4-1.4,3.2-2.2,5.3-2.2v1.5c-1.6,0-3,0.6-4.2,1.7c-1.2,1.2-1.7,2.6-1.7,4.2
	C26.8,26.5,25.3,26.5,25.3,26.5z M6,21.6v-3.8c0-0.5,0.2-0.9,0.5-1.2c0.3-0.3,0.8-0.5,1.2-0.5h6c1.7,0,3.1-0.5,4.3-1.4
	s2.1-2.1,2.5-3.6h1.6c-0.3,1.6-1.1,2.9-2.4,4.1c-1.2,1.1-2.7,1.9-4.3,2.3v4.1C15.5,21.6,6,21.6,6,21.6z M10.8,11.8
	c-0.8,0-1.5-0.3-2-0.9C8.3,10.3,8,9.7,8,8.9s0.3-1.5,0.8-2C9.3,6.3,10,6,10.8,6s1.5,0.3,2.1,0.9c0.6,0.6,0.8,1.2,0.8,2
	c0,0.8-0.3,1.5-0.9,2C12.3,11.5,11.6,11.8,10.8,11.8z"/>
</svg>
