<?xml version="1.0" encoding="utf-8"?>
<!-- Generator: Adobe Illustrator 26.3.1, SVG Export Plug-In . SVG Version: 6.00 Build 0)  -->
<svg version="1.1" id="Слой_1" xmlns="http://www.w3.org/2000/svg" xmlns:xlink="http://www.w3.org/1999/xlink" x="0px" y="0px"
	 viewBox="0 0 48 48" style="enable-background:new 0 0 48 48;" xml:space="preserve">
<path d="M39.2,38H8.8c-0.8,0-1.4-0.3-2-0.8C6.3,36.7,6,36,6,35.2V12.8c0-0.8,0.3-1.4,0.8-2C7.3,10.3,8,10,8.8,10h19.5v1.5H8.8
	c-0.3,0-0.6,0.1-0.8,0.4c-0.3,0.3-0.4,0.5-0.4,0.8v22.5c0,0.3,0.1,0.6,0.4,0.8c0.3,0.3,0.5,0.4,0.8,0.4h30.5c0.3,0,0.6-0.1,0.8-0.4
	c0.3-0.3,0.4-0.5,0.4-0.8v-14H42v14c0,0.8-0.3,1.4-0.8,2C40.7,37.7,40,38,39.2,38z M13.6,30.6h11.1v-3.5H13.6V30.6z M13.6,20.9h11.1
	v-3.5H13.6V20.9z M30.9,30.6h3.5v-9.3h-3.5C30.9,21.2,30.9,30.6,30.9,30.6z M7.5,36.5v-25V36.5z M36.5,17.5v-4h-4V12h4V8H38v4h4v1.5
	h-4v4H36.5z"/>
</svg>
