<?xml version="1.0" encoding="utf-8"?>
<!-- Generator: Adobe Illustrator 26.3.1, SVG Export Plug-In . SVG Version: 6.00 Build 0)  -->
<svg version="1.1" id="Слой_1" xmlns="http://www.w3.org/2000/svg" xmlns:xlink="http://www.w3.org/1999/xlink" x="0px" y="0px"
	 viewBox="0 0 48 48" style="enable-background:new 0 0 48 48;" xml:space="preserve">
<path d="M36.3,40.6l-1.1-1.1l4.4-4.4H25.5v-1.5h14.1l-4.4-4.4l1.1-1.1l6.3,6.3C42.6,34.3,36.3,40.6,36.3,40.6z M40,24.5h-1.5V10.8
	c0-0.3-0.1-0.6-0.4-0.8c-0.3-0.3-0.5-0.4-0.8-0.4H33v3.8H15.1V9.5h-4.3c-0.3,0-0.6,0.1-0.8,0.4c-0.3,0.3-0.4,0.5-0.4,0.8v26.5
	c0,0.3,0.1,0.6,0.4,0.8s0.5,0.4,0.8,0.4H22V40H10.8c-0.8,0-1.4-0.3-2-0.8C8.3,38.7,8,38,8,37.2V10.8c0-0.8,0.3-1.4,0.8-2
	C9.3,8.3,10,8,10.8,8h10.1c0.1-0.8,0.4-1.4,1-2c0.6-0.5,1.3-0.8,2.1-0.8c0.8,0,1.5,0.3,2.1,0.8s0.9,1.2,1,2h10.1
	c0.8,0,1.4,0.3,2,0.8c0.5,0.5,0.8,1.2,0.8,2C40,10.8,40,24.5,40,24.5z M24,10c0.5,0,0.8-0.2,1.2-0.5c0.3-0.3,0.5-0.7,0.5-1.2
	s-0.2-0.8-0.5-1.2c-0.3-0.3-0.7-0.5-1.2-0.5s-0.8,0.2-1.2,0.5c-0.3,0.3-0.5,0.7-0.5,1.2s0.2,0.8,0.5,1.2C23.2,9.8,23.5,10,24,10z"/>
</svg>
