<?xml version="1.0" encoding="utf-8"?>
<!-- Generator: Adobe Illustrator 26.3.1, SVG Export Plug-In . SVG Version: 6.00 Build 0)  -->
<svg version="1.1" id="Слой_1" xmlns="http://www.w3.org/2000/svg" xmlns:xlink="http://www.w3.org/1999/xlink" x="0px" y="0px"
	 viewBox="0 0 48 48" style="enable-background:new 0 0 48 48;" xml:space="preserve">
<path d="M29.2,30.4h1.5v-5.7h5.7v-1.5h-5.7v-5.7h-1.5v5.7h-5.7v1.5h5.7V30.4z M11.8,38.8c-3-1.3-5.3-3.3-7.1-6S2,27.2,2,24
	s0.9-6.2,2.7-8.8s4.2-4.6,7.1-6V11c-2.6,1.2-4.6,2.9-6.1,5.3c-1.5,2.3-2.2,4.9-2.2,7.7s0.7,5.4,2.2,7.7s3.5,4.1,6.1,5.3
	C11.8,37,11.8,38.8,11.8,38.8z M30,40c-2.2,0-4.3-0.4-6.2-1.3c-1.9-0.8-3.6-2-5.1-3.4c-1.4-1.4-2.6-3.1-3.4-5.1
	c-0.8-2-1.3-4-1.3-6.2s0.4-4.3,1.3-6.2c0.8-1.9,2-3.6,3.4-5.1s3.1-2.6,5.1-3.4C25.7,8.4,27.8,8,30,8s4.3,0.4,6.2,1.3
	c1.9,0.8,3.6,2,5.1,3.4s2.6,3.1,3.4,5.1c0.8,1.9,1.3,4,1.3,6.2s-0.4,4.3-1.3,6.2c-0.8,2-2,3.6-3.4,5.1c-1.4,1.4-3.1,2.6-5.1,3.4
	C34.3,39.6,32.2,40,30,40z M30,38.5c4,0,7.4-1.4,10.2-4.2s4.2-6.2,4.2-10.3c0-4-1.4-7.4-4.2-10.2C37.4,10.9,34,9.5,30,9.5
	s-7.4,1.4-10.2,4.2S15.5,20,15.5,24s1.4,7.5,4.2,10.3C22.6,37,26,38.5,30,38.5z"/>
</svg>
