<?xml version="1.0" encoding="utf-8"?>
<!-- Generator: Adobe Illustrator 26.3.1, SVG Export Plug-In . SVG Version: 6.00 Build 0)  -->
<svg version="1.1" id="Слой_1" xmlns="http://www.w3.org/2000/svg" xmlns:xlink="http://www.w3.org/1999/xlink" x="0px" y="0px"
	 viewBox="0 0 48 48" style="enable-background:new 0 0 48 48;" xml:space="preserve">
<path d="M24,42c-2.5,0-4.8-0.5-7-1.4s-4.1-2.2-5.7-3.8s-2.9-3.5-3.8-5.7C6.5,28.8,6,26.5,6,24s0.5-4.8,1.4-7s2.2-4.1,3.8-5.7
	s3.5-2.9,5.7-3.8C19.2,6.5,21.5,6,24,6s4.8,0.5,7,1.4s4.1,2.2,5.7,3.8c1.6,1.6,2.9,3.5,3.8,5.7c0.9,2.2,1.4,4.5,1.4,7
	s-0.5,4.8-1.4,7s-2.2,4.1-3.8,5.7s-3.5,2.9-5.7,3.8C28.8,41.5,26.5,42,24,42z M24.5,40.5c4.4-0.2,8.1-1.9,11.3-5
	c3.1-3.1,4.7-7,4.7-11.5s-1.5-8.4-4.6-11.5s-6.9-4.8-11.3-5C24.5,7.5,24.5,40.5,24.5,40.5z"/>
</svg>
