<?xml version="1.0" encoding="utf-8"?>
<!-- Generator: Adobe Illustrator 26.3.1, SVG Export Plug-In . SVG Version: 6.00 Build 0)  -->
<svg version="1.1" id="Слой_1" xmlns="http://www.w3.org/2000/svg" xmlns:xlink="http://www.w3.org/1999/xlink" x="0px" y="0px"
	 viewBox="0 0 48 48" style="enable-background:new 0 0 48 48;" xml:space="preserve">
<path d="M40,35l-1.5-1.5V10.8c0-0.3-0.1-0.6-0.4-0.8c-0.3-0.3-0.5-0.4-0.8-0.4H33v3.8H18.2L12.9,8h7.9c0.1-0.8,0.4-1.4,1-2
	c0.6-0.5,1.3-0.8,2.1-0.8S25.4,5.5,26,6s0.9,1.2,1,2h10.1c0.8,0,1.4,0.3,2,0.8c0.5,0.5,0.8,1.2,0.8,2V35H40z M24,10
	c0.5,0,0.8-0.2,1.2-0.5c0.3-0.3,0.5-0.7,0.5-1.2s-0.2-0.8-0.5-1.2c-0.3-0.3-0.7-0.5-1.2-0.5s-0.8,0.2-1.2,0.5
	c-0.3,0.3-0.5,0.7-0.5,1.2s0.2,0.8,0.5,1.2C23.2,9.8,23.5,10,24,10z M36.2,38.5L9.5,11.8v25.5c0,0.3,0.1,0.6,0.4,0.8
	s0.5,0.4,0.8,0.4C10.8,38.5,36.2,38.5,36.2,38.5z M10.8,40c-0.8,0-1.4-0.3-2-0.8C8.3,38.7,8,38,8,37.2V11c0-0.1,0-0.2,0-0.3
	s0-0.2,0.1-0.3L5.6,7.8l1.1-1.1l34.5,34.5l-1.1,1.1l-2.5-2.5c-0.1,0.1-0.2,0.1-0.3,0.1s-0.2,0-0.3,0C37,40,10.8,40,10.8,40z"/>
</svg>
