<?xml version="1.0" encoding="utf-8"?>
<!-- Generator: Adobe Illustrator 26.3.1, SVG Export Plug-In . SVG Version: 6.00 Build 0)  -->
<svg version="1.1" id="Слой_1" xmlns="http://www.w3.org/2000/svg" xmlns:xlink="http://www.w3.org/1999/xlink" x="0px" y="0px"
	 viewBox="0 0 48 48" style="enable-background:new 0 0 48 48;" xml:space="preserve">
<path d="M42.5,44.8l-6.9-6.9c-1.6,1.3-3.4,2.4-5.3,3.1c-1.9,0.7-4,1.1-6.3,1.1c-2.5,0-4.9-0.5-7-1.4c-2.2-0.9-4.1-2.2-5.7-3.8
	s-2.9-3.5-3.8-5.7C6.5,28.9,6,26.5,6,24c0-2.2,0.4-4.3,1.1-6.3c0.7-1.9,1.8-3.7,3.1-5.3L3.8,6l1.1-1.1l38.8,38.8
	C43.6,43.6,42.5,44.8,42.5,44.8z M24,40.5c2,0,3.9-0.3,5.7-1c1.8-0.7,3.4-1.6,4.8-2.7L24,26.2V40.5z M39,34l-1.1-1.1
	c0.8-1.3,1.4-2.7,1.9-4.2s0.7-3.1,0.7-4.7c0-4.6-1.6-8.5-4.8-11.7C32.5,9.1,28.6,7.5,24,7.5V19L14,9c1.4-0.9,3-1.7,4.7-2.2
	C20.3,6.3,22.1,6,24,6c2.5,0,4.8,0.5,7,1.4s4.1,2.2,5.7,3.8c1.6,1.6,2.9,3.5,3.8,5.7c0.9,2.2,1.4,4.5,1.4,7c0,1.9-0.3,3.7-0.8,5.4
	C40.7,31,39.9,32.6,39,34z"/>
</svg>
