<?xml version="1.0" encoding="utf-8"?>
<!-- Generator: Adobe Illustrator 26.3.1, SVG Export Plug-In . SVG Version: 6.00 Build 0)  -->
<svg version="1.1" id="Слой_1" xmlns="http://www.w3.org/2000/svg" xmlns:xlink="http://www.w3.org/1999/xlink" x="0px" y="0px"
	 viewBox="0 0 48 48" style="enable-background:new 0 0 48 48;" xml:space="preserve">
<path d="M18.8,15.8v-1.5h16.5v1.5H18.8z M18.8,21.4v-1.5h16.5v1.5H18.8z M24.2,40.5H9.5H24.2z M24.2,42H11.7c-1,0-1.9-0.4-2.6-1.1
	C8.4,40.2,8,39.3,8,38.3v-5.9h6V6h26v16.2c-0.3,0-0.5,0-0.8,0.1c-0.2,0-0.5,0.1-0.7,0.2v-15h-23v24.9h11.9L25.9,34H9.5v4.3
	c0,0.6,0.2,1.1,0.6,1.5c0.4,0.4,0.9,0.6,1.5,0.6h12.5C24.2,40.5,24.2,42,24.2,42z M28.5,42v-4.4L39.1,27c0.2-0.2,0.4-0.3,0.6-0.4
	c0.2-0.1,0.4-0.1,0.6-0.1c0.2,0,0.4,0,0.7,0.1c0.2,0.1,0.4,0.2,0.6,0.4l1.8,1.9c0.2,0.2,0.3,0.4,0.4,0.6c0.1,0.2,0.1,0.4,0.1,0.6
	s0,0.4-0.1,0.6s-0.2,0.4-0.4,0.6L32.9,42H28.5z M42.2,30.1l-1.8-1.9L42.2,30.1z M30.2,40.2h1.9l6.9-6.9l-0.9-1l-0.9-1l-7,7V40.2z
	 M38.1,32.3l-0.9-1l1.8,1.9L38.1,32.3z"/>
</svg>
