<?xml version="1.0" encoding="utf-8"?>
<!-- Generator: Adobe Illustrator 26.3.1, SVG Export Plug-In . SVG Version: 6.00 Build 0)  -->
<svg version="1.1" id="Слой_1" xmlns="http://www.w3.org/2000/svg" xmlns:xlink="http://www.w3.org/1999/xlink" x="0px" y="0px"
	 viewBox="0 0 48 48" style="enable-background:new 0 0 48 48;" xml:space="preserve">
<path d="M29.4,33.2l-1.5-0.6c0.2-0.6,0.4-1.2,0.6-1.8c0.2-0.6,0.3-1.2,0.5-1.9l1.3,1.3c-0.1,0.5-0.3,1-0.4,1.5
	C29.7,32.3,29.5,32.8,29.4,33.2z M22.8,30.5L21.4,30c0.4-1,0.6-1.9,0.8-3c0.2-1,0.2-2,0.2-3.1c0-0.3,0-0.5,0-0.8s0-0.6,0-0.8
	l1.6,1.6c0,1.1-0.1,2.2-0.3,3.3C23.5,28.4,23.2,29.5,22.8,30.5z M16.2,27.8l-1.5-0.6c0.2-0.5,0.3-1,0.4-1.6c0.1-0.5,0.2-1.1,0.2-1.6
	s0-1.1-0.1-1.6c-0.1-0.6-0.3-1.1-0.5-1.5l1.5-0.6c0.2,0.6,0.4,1.2,0.5,1.8c0.1,0.6,0.2,1.3,0.2,1.9s-0.1,1.3-0.2,1.9
	C16.5,26.5,16.4,27.2,16.2,27.8z M30.9,25.9l-1.4-1.4c0-1.6-0.1-3.2-0.3-4.7c-0.2-1.5-0.7-3-1.2-4.5l1.5-0.6c0.6,1.5,1,3,1.2,4.5
	c0.3,1.6,0.4,3.1,0.4,4.7c0,0.3,0,0.6,0,1C30.9,25.3,30.9,25.6,30.9,25.9z M24.6,19.6l-1.9-2l1.4-0.6c0.1,0.4,0.2,0.8,0.3,1.2
	C24.5,18.8,24.6,19.2,24.6,19.6z M42.5,44.8l-6.9-6.9c-1.6,1.3-3.4,2.4-5.3,3.1c-1.9,0.7-4,1.1-6.3,1.1c-2.5,0-4.8-0.5-7-1.4
	s-4.1-2.2-5.7-3.8s-2.9-3.5-3.8-5.7S6,26.5,6,24c0-2.2,0.4-4.3,1.1-6.3c0.7-1.9,1.8-3.7,3.1-5.3L3.8,6l1.1-1.1l38.8,38.8
	C43.6,43.6,42.5,44.8,42.5,44.8z M24,40.5c2,0,3.9-0.3,5.7-1c1.8-0.7,3.4-1.6,4.8-2.7L11.3,13.5c-1.2,1.5-2.1,3.1-2.7,4.8
	c-0.7,1.8-1,3.7-1,5.7c0,4.6,1.6,8.5,4.8,11.7C15.5,38.9,19.4,40.5,24,40.5z M39,34l-1.1-1.1c0.8-1.3,1.4-2.7,1.9-4.2
	s0.7-3.1,0.7-4.7c0-4.6-1.6-8.5-4.8-11.7C32.5,9.1,28.6,7.5,24,7.5c-1.7,0-3.2,0.2-4.7,0.7s-2.9,1.1-4.2,1.9L14,9
	c1.4-0.9,3-1.7,4.7-2.2S22.1,6,24,6c2.5,0,4.8,0.5,7,1.4s4.1,2.2,5.7,3.8c1.6,1.6,2.9,3.5,3.8,5.7c0.9,2.2,1.4,4.5,1.4,7
	c0,1.9-0.3,3.7-0.8,5.4C40.7,31.1,40,32.6,39,34z"/>
</svg>
