<?xml version="1.0" encoding="utf-8"?>
<!-- Generator: Adobe Illustrator 26.3.1, SVG Export Plug-In . SVG Version: 6.00 Build 0)  -->
<svg version="1.1" id="Слой_1" xmlns="http://www.w3.org/2000/svg" xmlns:xlink="http://www.w3.org/1999/xlink" x="0px" y="0px"
	 viewBox="0 0 48 48" style="enable-background:new 0 0 48 48;" xml:space="preserve">
<path d="M8.6,42.8v-1.5h30.8v1.5H8.6z M8.6,6.8V5.2h30.8v1.5H8.6V6.8z M24,27.9c1.4,0,2.6-0.5,3.5-1.4c0.9-1,1.4-2.1,1.4-3.5
	s-0.5-2.6-1.4-3.5c-0.9-1-2.1-1.5-3.5-1.5s-2.6,0.5-3.5,1.4c-0.9,1-1.4,2.1-1.4,3.5s0.5,2.6,1.4,3.5C21.4,27.4,22.6,27.9,24,27.9z
	 M8.6,38c-0.8,0-1.4-0.3-2-0.8c-0.5-0.5-0.8-1.2-0.8-2V12.8c0-0.8,0.3-1.5,0.8-2s1.2-0.8,2-0.8h30.8c0.8,0,1.4,0.3,2,0.8
	c0.5,0.5,0.8,1.2,0.8,2v22.5c0,0.8-0.3,1.4-0.8,2c-0.5,0.5-1.2,0.8-2,0.8L8.6,38L8.6,38z M13.9,36.5c1.6-1.5,3.3-2.5,5-3.2
	s3.4-1,5.1-1s3.4,0.3,5.1,1c1.8,0.7,3.4,1.7,5,3.2h5.3c0.3,0,0.6-0.1,0.8-0.4c0.3-0.3,0.4-0.5,0.4-0.8V12.8c0-0.3-0.1-0.6-0.4-0.8
	c-0.3-0.3-0.5-0.4-0.8-0.4H8.6c-0.3,0-0.6,0.1-0.8,0.4c-0.3,0.3-0.4,0.5-0.4,0.8v22.5c0,0.3,0.1,0.6,0.4,0.8
	c0.3,0.3,0.5,0.4,0.8,0.4H13.9z M16.6,36.5h14.8c-1-0.8-2.1-1.5-3.4-1.9c-1.2-0.5-2.6-0.7-4.1-0.7s-2.8,0.2-4.1,0.7
	C18.7,35,17.6,35.6,16.6,36.5z M24,26.4c-0.9,0-1.7-0.3-2.4-1c-0.7-0.7-1-1.5-1-2.4s0.3-1.7,1-2.4c0.7-0.7,1.5-1,2.4-1
	s1.7,0.3,2.4,1c0.7,0.7,1,1.5,1,2.4s-0.3,1.7-1,2.4S24.9,26.4,24,26.4z"/>
</svg>
