<?xml version="1.0" encoding="utf-8"?>
<!-- Generator: Adobe Illustrator 26.3.1, SVG Export Plug-In . SVG Version: 6.00 Build 0)  -->
<svg version="1.1" id="Слой_1" xmlns="http://www.w3.org/2000/svg" xmlns:xlink="http://www.w3.org/1999/xlink" x="0px" y="0px"
	 viewBox="0 0 48 48" style="enable-background:new 0 0 48 48;" xml:space="preserve">
<path d="M38.3,37.5L34,41.7l-1.1-1.1l4.2-4.2l-4.2-4.2L34,31l4.2,4.3l4.2-4.3l1.1,1.1l-4.2,4.2l4.2,4.2l-1.1,1.1L38.3,37.5z
	 M11.7,42c-1,0-1.9-0.4-2.6-1.1S8,39.4,8,38.3v-5.9h6V6h26v19.3c-0.2,0-0.5-0.1-0.8-0.1s-0.5,0-0.8-0.1V7.5H15.5v24.9h12.3
	c-0.1,0.2-0.2,0.5-0.3,0.7c-0.1,0.3-0.2,0.5-0.2,0.8H9.5v4.3c0,0.6,0.2,1.1,0.6,1.5c0.4,0.4,0.9,0.6,1.5,0.6h16.2
	c0.1,0.3,0.3,0.6,0.4,0.8c0.2,0.3,0.3,0.5,0.5,0.7C28.8,42,11.7,42,11.7,42z M18.8,15.8v-1.5h16.5v1.5H18.8z M18.8,21.4v-1.5h16.5
	v1.5H18.8z M27.9,40.5H9.5h17.7H27H27.9z"/>
</svg>
