<?xml version="1.0" encoding="utf-8"?>
<!-- Generator: Adobe Illustrator 26.3.1, SVG Export Plug-In . SVG Version: 6.00 Build 0)  -->
<svg version="1.1" id="Слой_1" xmlns="http://www.w3.org/2000/svg" xmlns:xlink="http://www.w3.org/1999/xlink" x="0px" y="0px"
	 viewBox="0 0 48 48" style="enable-background:new 0 0 48 48;" xml:space="preserve">
<path d="M11.5,40.9c-0.4,0-0.8-0.2-1.2-0.6s-0.5-0.8-0.5-1.2v-4.4c0-2.5,0.8-4.8,2.4-6.7c1.6-1.9,3.6-3.2,6.1-3.7
	c-1.1,0.8-2,1.8-2.6,3s-0.9,2.5-0.9,3.9v8c0,0.3,0,0.6,0.1,0.9c0.1,0.3,0.2,0.6,0.4,0.9C15.2,40.9,11.5,40.9,11.5,40.9z M17.7,40.9
	c-0.5,0-0.9-0.2-1.2-0.5C16.1,40,16,39.6,16,39.1v-8c0-2,0.7-3.7,2.1-5.1s3.1-2.1,5.1-2.1h8c2,0,3.7,0.7,5,2.1
	c1.4,1.4,2.1,3.1,2.1,5.1v2.7c0,2-0.7,3.7-2.1,5.1c-1.4,1.4-3.1,2.1-5.1,2.1L17.7,40.9L17.7,40.9z M24,20.4c-1.9,0-3.4-0.6-4.7-1.9
	c-1.3-1.3-1.9-2.9-1.9-4.7c0-1.9,0.6-3.4,1.9-4.7s2.9-1.9,4.7-1.9c1.9,0,3.4,0.6,4.7,1.9c1.3,1.3,1.9,2.9,1.9,4.7
	c0,1.9-0.6,3.4-1.9,4.7C27.4,19.8,25.9,20.4,24,20.4z"/>
</svg>
