<?xml version="1.0" encoding="utf-8"?>
<!-- Generator: Adobe Illustrator 26.3.1, SVG Export Plug-In . SVG Version: 6.00 Build 0)  -->
<svg version="1.1" id="Слой_1" xmlns="http://www.w3.org/2000/svg" xmlns:xlink="http://www.w3.org/1999/xlink" x="0px" y="0px"
	 viewBox="0 0 48 48" style="enable-background:new 0 0 48 48;" xml:space="preserve">
<path d="M24,43c-2.6,0-5.1-0.5-7.4-1.5s-4.3-2.4-6-4.1c-1.7-1.7-3.1-3.7-4.1-6S5,26.6,5,24c0-2.7,0.5-5.2,1.5-7.5s2.4-4.3,4.1-6
	s3.7-3.1,6-4c2.3-1,4.7-1.5,7.1-1.5c0.5,0,1,0,1.5,0s1,0.1,1.5,0.2c0,1.4,0.1,2.8,0.6,4c0.4,1.2,1,2.2,1.9,3.1
	c0.8,0.9,1.9,1.6,3.2,2.1c1.3,0.5,2.7,0.8,4.4,0.9c-0.1,2,0.4,3.8,1.5,5.2c1.2,1.4,2.7,2.3,4.7,2.7c0,0,0,0.1,0,0.2v0.2
	c0,2.7-0.5,5.2-1.5,7.6s-2.4,4.4-4.1,6.2c-1.7,1.8-3.7,3.2-6,4.2C29.1,42.5,26.6,43,24,43z M21,19.7c0.7,0,1.4-0.3,1.9-0.8
	s0.8-1.2,0.8-1.9c0-0.7-0.3-1.4-0.8-1.9s-1.2-0.8-1.9-0.8c-0.7,0-1.3,0.3-1.9,0.8c-0.5,0.5-0.8,1.2-0.8,1.9c0,0.7,0.3,1.3,0.8,1.9
	C19.6,19.4,20.3,19.7,21,19.7z M17,29.7c0.7,0,1.4-0.3,1.9-0.8s0.8-1.2,0.8-1.9c0-0.7-0.3-1.4-0.8-1.9s-1.2-0.8-1.9-0.8
	c-0.7,0-1.3,0.3-1.9,0.8c-0.5,0.5-0.8,1.2-0.8,1.9c0,0.7,0.3,1.3,0.8,1.9C15.6,29.4,16.3,29.7,17,29.7z M30,31.6
	c0.5,0,0.8-0.2,1.1-0.5c0.3-0.3,0.5-0.7,0.5-1.2s-0.2-0.8-0.5-1.1c-0.3-0.3-0.7-0.5-1.2-0.5c-0.4,0-0.8,0.2-1.1,0.5
	c-0.3,0.3-0.5,0.7-0.5,1.2c0,0.4,0.2,0.8,0.5,1.1C29.2,31.5,29.6,31.6,30,31.6z M24,41.5c4.6,0,8.6-1.6,11.9-4.9
	c3.3-3.3,5.2-7.4,5.5-12.3c-1.8-0.7-3.2-1.7-4.3-3s-1.7-2.9-1.8-4.8c-2.8-0.2-5.1-1.3-7-3.1s-2.8-4.1-2.9-6.9
	c-2.5-0.2-4.8,0.1-7.1,0.9s-4.3,2-6,3.6s-3.1,3.5-4.2,5.7c-1,2.2-1.6,4.6-1.6,7.2c0,4.8,1.7,9,5.1,12.4C15,39.8,19.2,41.5,24,41.5z"
	/>
</svg>
