<?xml version="1.0" encoding="utf-8"?>
<!-- Generator: Adobe Illustrator 26.3.1, SVG Export Plug-In . SVG Version: 6.00 Build 0)  -->
<svg version="1.1" id="Слой_1" xmlns="http://www.w3.org/2000/svg" xmlns:xlink="http://www.w3.org/1999/xlink" x="0px" y="0px"
	 viewBox="0 0 48 48" style="enable-background:new 0 0 48 48;" xml:space="preserve">
<path d="M39,34l-1.1-1.2c0.8-1.2,1.4-2.6,1.8-4.1c0.4-1.5,0.7-3.1,0.8-4.7c-1.7-0.6-3-1.5-4-2.7s-1.6-2.6-1.7-4.4
	c-2.6-0.2-4.8-1.2-6.5-2.9s-2.6-3.9-2.7-6.5c-1.9-0.1-3.7,0-5.5,0.4S16.7,9,15.3,10L14,9c1.8-1.3,3.8-2.2,6.1-2.7s4.5-0.6,6.9-0.2
	c0,1.4,0.1,2.7,0.5,3.8s1,2.1,1.8,2.9c0.8,0.8,1.8,1.4,3,1.9s2.5,0.7,3.9,0.7c-0.3,1.8,0.2,3.4,1.4,4.8s2.7,2.2,4.3,2.5
	c0.1,2-0.2,3.9-0.7,5.9C40.8,30.7,40,32.4,39,34z M17,29.7c-0.7,0-1.3-0.3-1.9-0.8c-0.5-0.5-0.8-1.1-0.8-1.9c0-0.7,0.3-1.4,0.8-1.9
	s1.1-0.8,1.9-0.8c0.7,0,1.4,0.3,1.9,0.8s0.8,1.2,0.8,1.9c0,0.7-0.3,1.3-0.8,1.9C18.4,29.4,17.7,29.7,17,29.7z M42.5,44.8l-6.9-6.9
	c-1.6,1.3-3.4,2.4-5.3,3.1c-1.9,0.7-4,1.1-6.3,1.1c-2.5,0-4.8-0.5-7-1.4s-4.1-2.2-5.7-3.8s-2.9-3.5-3.8-5.7S6,26.5,6,24
	c0-2.2,0.4-4.3,1.1-6.3c0.7-1.9,1.8-3.7,3.1-5.3L3.8,6l1.1-1.1l38.8,38.8C43.6,43.6,42.5,44.8,42.5,44.8z M24,40.5
	c2,0,3.9-0.3,5.7-1c1.8-0.7,3.4-1.6,4.8-2.7L11.3,13.5c-1.2,1.5-2.1,3.1-2.7,4.8c-0.7,1.8-1,3.7-1,5.7c0,4.6,1.6,8.5,4.8,11.7
	C15.5,38.9,19.4,40.5,24,40.5z"/>
</svg>
