<?xml version="1.0" encoding="utf-8"?>
<!-- Generator: Adobe Illustrator 26.3.1, SVG Export Plug-In . SVG Version: 6.00 Build 0)  -->
<svg version="1.1" id="Слой_1" xmlns="http://www.w3.org/2000/svg" xmlns:xlink="http://www.w3.org/1999/xlink" x="0px" y="0px"
	 viewBox="0 0 48 48" style="enable-background:new 0 0 48 48;" xml:space="preserve">
<path d="M22.2,38.9c-3.4-0.4-6.3-1.9-8.7-4.4S10,28.9,10,25.3c0-2,0.4-3.8,1.1-5.4c0.8-1.6,1.7-3.1,2.9-4.4l10-9.7l9.9,9.7
	c1,1.1,1.9,2.2,2.5,3.5c0.7,1.3,1.1,2.7,1.4,4.2h-1.5c-0.2-1.3-0.6-2.4-1.2-3.5c-0.6-1.1-1.3-2.1-2.3-3L24,8l-8.9,8.7
	c-1.2,1.1-2.1,2.4-2.7,3.9s-0.9,3-0.9,4.7c0,3.1,1,5.8,3.1,8.1s4.6,3.6,7.6,4C22.2,37.3,22.2,38.9,22.2,38.9z M27,30.9l-0.6-1.4
	c0.7-0.4,1.5-0.7,2.3-0.9c0.8-0.2,1.6-0.3,2.4-0.3c0.7,0,1.4,0.1,2.1,0.3c0.7,0.2,1.4,0.4,2,0.7c0.7,0.3,1.3,0.5,2,0.7
	s1.4,0.3,2.1,0.3c0.7,0,1.4-0.1,2.1-0.3s1.3-0.4,2-0.8l0.6,1.4c-0.7,0.4-1.5,0.7-2.3,0.9c-0.8,0.2-1.6,0.3-2.4,0.3
	c-0.7,0-1.4-0.1-2.1-0.2c-0.7-0.2-1.4-0.4-2-0.7c-0.7-0.2-1.3-0.5-2-0.7s-1.4-0.3-2.1-0.3S29.7,30,29,30.2
	C28.2,30.3,27.6,30.6,27,30.9z M27,36.3L26.4,35c0.7-0.4,1.5-0.7,2.3-0.9s1.6-0.3,2.4-0.3c0.7,0,1.4,0.1,2.1,0.3
	c0.7,0.2,1.4,0.4,2,0.7c0.7,0.3,1.3,0.5,2,0.7s1.4,0.3,2.1,0.3c0.7,0,1.4-0.1,2.1-0.3s1.3-0.4,2-0.8l0.6,1.4
	c-0.7,0.4-1.5,0.7-2.3,0.9s-1.6,0.3-2.4,0.3c-0.7,0-1.4-0.1-2.1-0.2c-0.7-0.2-1.4-0.4-2-0.7c-0.7-0.2-1.3-0.5-2-0.7
	s-1.4-0.3-2.1-0.3s-1.4,0.1-2.1,0.3C28.2,35.8,27.6,36,27,36.3z M27,41.8l-0.6-1.4c0.7-0.4,1.5-0.7,2.3-0.9s1.6-0.3,2.4-0.3
	c0.7,0,1.4,0.1,2.1,0.3c0.7,0.2,1.4,0.4,2,0.7c0.7,0.3,1.3,0.5,2,0.7s1.4,0.3,2.1,0.3c0.7,0,1.4-0.1,2.1-0.3s1.3-0.4,2-0.8l0.6,1.4
	c-0.7,0.4-1.5,0.7-2.3,0.9s-1.6,0.3-2.4,0.3c-0.7,0-1.4-0.1-2.1-0.2c-0.7-0.2-1.4-0.4-2-0.7c-0.7-0.2-1.3-0.5-2-0.7
	s-1.4-0.3-2.1-0.3s-1.4,0.1-2.1,0.3C28.2,41.2,27.6,41.5,27,41.8z"/>
</svg>
