<?xml version="1.0" encoding="utf-8"?>
<!-- Generator: Adobe Illustrator 26.3.1, SVG Export Plug-In . SVG Version: 6.00 Build 0)  -->
<svg version="1.1" id="Слой_1" xmlns="http://www.w3.org/2000/svg" xmlns:xlink="http://www.w3.org/1999/xlink" x="0px" y="0px"
	 viewBox="0 0 48 48" style="enable-background:new 0 0 48 48;" xml:space="preserve">
<path d="M8,34.4v-2h2v2H8z M8,26.8v-2h2v2H8z M8,19.2v-2h2v2H8z M15.6,42v-2h2v2H15.6z M18.2,34.6c-0.8,0-1.4-0.3-2-0.8
	c-0.5-0.5-0.8-1.2-0.8-2v-23c0-0.8,0.3-1.4,0.8-2c0.5-0.5,1.2-0.8,2-0.8h17.1c0.8,0,1.4,0.3,2,0.8C37.7,7.3,38,8,38,8.8v23.1
	c0,0.8-0.3,1.4-0.8,2c-0.5,0.5-1.2,0.8-2,0.8C35.2,34.6,18.2,34.6,18.2,34.6z M18.2,33.1h17.1c0.3,0,0.6-0.1,0.8-0.4
	c0.3-0.3,0.4-0.5,0.4-0.8V8.8c0-0.3-0.1-0.6-0.4-0.8c-0.3-0.3-0.5-0.4-0.8-0.4H18.2c-0.3,0-0.6,0.1-0.8,0.4C17.1,8.3,17,8.5,17,8.8
	v23.1c0,0.3,0.1,0.6,0.4,0.8C17.6,32.9,17.8,33.1,18.2,33.1z M23.2,42v-2h2v2H23.2z M10,42c-0.5,0-1-0.2-1.4-0.6C8.2,41,8,40.5,8,40
	h2V42z M30.8,42v-2h2c0,0.6-0.2,1-0.6,1.4C31.8,41.8,31.4,42,30.8,42z M8,11.5c0-0.5,0.2-1,0.6-1.4S9.5,9.5,10,9.5v2H8z"/>
</svg>
