<?xml version="1.0" encoding="utf-8"?>
<!-- Generator: Adobe Illustrator 26.3.1, SVG Export Plug-In . SVG Version: 6.00 Build 0)  -->
<svg version="1.1" id="Слой_1" xmlns="http://www.w3.org/2000/svg" xmlns:xlink="http://www.w3.org/1999/xlink" x="0px" y="0px"
	 viewBox="0 0 48 48" style="enable-background:new 0 0 48 48;" xml:space="preserve">
<path d="M24,42c-2.5,0-4.8-0.5-7-1.4s-4.1-2.2-5.7-3.9c-1.6-1.6-2.9-3.5-3.9-5.7C6.5,28.8,6,26.5,6,24s0.5-4.8,1.4-7
	s2.2-4.1,3.9-5.7c1.6-1.6,3.5-2.9,5.7-3.8c2.2-1,4.5-1.5,7-1.5s4.8,0.5,7,1.4s4.1,2.2,5.7,3.8c1.6,1.6,2.9,3.5,3.8,5.7
	c0.9,2.2,1.4,4.5,1.4,7s-0.5,4.8-1.4,7s-2.2,4.1-3.8,5.7s-3.5,2.9-5.7,3.9S26.5,42,24,42z M24,40.5c4.6,0,8.4-1.6,11.6-4.8
	c3.2-3.2,4.8-7.1,4.8-11.7s-1.6-8.4-4.8-11.6c-3.1-3.3-7-4.9-11.6-4.9s-8.5,1.6-11.7,4.8S7.5,19.4,7.5,24s1.6,8.5,4.8,11.7
	S19.4,40.5,24,40.5z M19.1,33.1h7c0.8,0,1.4-0.3,2-0.8c0.5-0.5,0.8-1.2,0.8-2v-3.9c0-0.8-0.2-1.4-0.6-1.8s-0.8-0.6-1.2-0.7
	c0.4-0.1,0.8-0.3,1.2-0.6c0.4-0.3,0.6-0.9,0.6-1.7v-3.9c0-0.8-0.3-1.4-0.8-2c-0.5-0.5-1.2-0.8-2-0.8h-7v1.5h7c0.3,0,0.6,0.1,0.9,0.4
	c0.2,0.2,0.4,0.5,0.4,0.9v4.2c0,0.4-0.1,0.7-0.4,0.9s-0.5,0.3-0.9,0.3h-3.7v1.5h3.7c0.3,0,0.6,0.1,0.9,0.4s0.4,0.5,0.4,0.9v4.4
	c0,0.3-0.1,0.6-0.4,0.9c-0.2,0.2-0.5,0.4-0.9,0.4h-7C19.1,31.5,19.1,33.1,19.1,33.1z"/>
</svg>
