<?xml version="1.0" encoding="utf-8"?>
<!-- Generator: Adobe Illustrator 26.3.1, SVG Export Plug-In . SVG Version: 6.00 Build 0)  -->
<svg version="1.1" id="Слой_1" xmlns="http://www.w3.org/2000/svg" xmlns:xlink="http://www.w3.org/1999/xlink" x="0px" y="0px"
	 viewBox="0 0 48 48" style="enable-background:new 0 0 48 48;" xml:space="preserve">
<path d="M7.5,36.5V21.1v1.1V11.5V36.5z M7.5,17.8h32.9v-5.1c0-0.3-0.1-0.6-0.4-0.8c-0.3-0.3-0.5-0.4-0.8-0.4H8.8
	c-0.3,0-0.6,0.1-0.8,0.4c-0.3,0.3-0.4,0.5-0.4,0.8L7.5,17.8L7.5,17.8z M22.3,38H8.8c-0.8,0-1.4-0.3-2-0.8C6.3,36.7,6,36,6,35.2V12.8
	c0-0.8,0.3-1.4,0.8-2C7.3,10.3,8,10,8.8,10h30.5c0.8,0,1.4,0.3,2,0.8c0.5,0.5,0.8,1.2,0.8,2v10.3c-1-0.7-2.2-1.2-3.3-1.5
	c-1.2-0.3-2.4-0.5-3.6-0.5c-0.9,0-1.7,0.1-2.6,0.2c-0.8,0.1-1.7,0.3-2.5,0.6H7.5v13.4c0,0.3,0.1,0.6,0.4,0.8
	c0.3,0.3,0.5,0.4,0.8,0.4H22c0,0.3,0.1,0.5,0.1,0.8C22.2,37.5,22.2,37.8,22.3,38z M39.1,39.6l1.1-1.1L36,34.3v-5.9h-1.5V35
	C34.4,34.9,39.1,39.6,39.1,39.6z M35.4,43.6c-2.6,0-4.8-0.9-6.5-2.7c-1.8-1.8-2.7-3.9-2.7-6.5s0.9-4.7,2.7-6.5
	c1.8-1.8,4-2.7,6.5-2.7s4.7,0.9,6.5,2.7c1.8,1.8,2.7,4,2.7,6.5s-0.9,4.7-2.7,6.5C40,42.7,37.9,43.6,35.4,43.6z"/>
</svg>
