<?xml version="1.0" encoding="utf-8"?>
<!-- Generator: Adobe Illustrator 26.3.1, SVG Export Plug-In . SVG Version: 6.00 Build 0)  -->
<svg version="1.1" id="Слой_1" xmlns="http://www.w3.org/2000/svg" xmlns:xlink="http://www.w3.org/1999/xlink" x="0px" y="0px"
	 viewBox="0 0 48 48" style="enable-background:new 0 0 48 48;" xml:space="preserve">
<path d="M7.5,36.5V21.1v1.1V11.5V36.5z M7.5,17.8h32.9v-5.1c0-0.3-0.1-0.6-0.4-0.8c-0.3-0.3-0.5-0.4-0.8-0.4H8.8
	c-0.3,0-0.6,0.1-0.8,0.4c-0.3,0.3-0.4,0.5-0.4,0.8L7.5,17.8L7.5,17.8z M22.3,38H8.8c-0.8,0-1.4-0.3-2-0.8C6.3,36.7,6,36,6,35.2V12.8
	c0-0.8,0.3-1.4,0.8-2C7.3,10.3,8,10,8.8,10h30.5c0.8,0,1.4,0.3,2,0.8c0.5,0.5,0.8,1.2,0.8,2V23c-1-0.6-2.1-1.1-3.3-1.5
	c-1.2-0.3-2.4-0.5-3.7-0.5c-0.9,0-1.7,0.1-2.5,0.2s-1.7,0.3-2.5,0.6H7.5v13.4c0,0.3,0.1,0.6,0.4,0.8c0.3,0.3,0.5,0.4,0.8,0.4H22
	c0,0.3,0.1,0.5,0.1,0.8C22.2,37.5,22.3,37.8,22.3,38z M34.3,42l-0.1-1.5c-0.8-0.2-1.5-0.4-2.2-0.8c-0.7-0.4-1.3-0.9-1.8-1.5L28.9,39
	L28,37.7l1.2-0.9c-0.3-0.8-0.4-1.6-0.4-2.4c0-0.8,0.1-1.7,0.4-2.4L28,30.9l0.9-1.3l1.3,0.7c0.5-0.6,1.1-1.1,1.8-1.4s1.4-0.6,2.2-0.8
	l0.1-1.5h1.5l0.1,1.5c0.8,0.1,1.5,0.4,2.2,0.8s1.3,0.8,1.8,1.4l1.3-0.7l1,1.3L41,31.8c0.3,0.8,0.4,1.6,0.4,2.4s-0.1,1.7-0.4,2.4
	l1.2,0.9l-1,1.3l-1.3-0.7c-0.5,0.6-1.1,1.1-1.8,1.5s-1.4,0.6-2.2,0.8L35.8,42H34.3z M35.1,39.1c1.3,0,2.5-0.5,3.4-1.4
	s1.4-2.1,1.4-3.4c0-1.3-0.5-2.5-1.4-3.4s-2.1-1.4-3.4-1.4c-1.3,0-2.5,0.5-3.4,1.4s-1.4,2.1-1.4,3.4s0.5,2.5,1.4,3.4
	C32.6,38.7,33.7,39.1,35.1,39.1z"/>
</svg>
