<?xml version="1.0" encoding="utf-8"?>
<!-- Generator: Adobe Illustrator 26.3.1, SVG Export Plug-In . SVG Version: 6.00 Build 0)  -->
<svg version="1.1" id="Слой_1" xmlns="http://www.w3.org/2000/svg" xmlns:xlink="http://www.w3.org/1999/xlink" x="0px" y="0px"
	 viewBox="0 0 48 48" style="enable-background:new 0 0 48 48;" xml:space="preserve">
<path d="M7.5,36.5V21.1v1.1V11.5V36.5z M35.1,40.2l-5.9-5.9c-0.4-0.4-0.6-0.8-0.8-1.2c-0.1-0.4-0.2-0.8-0.2-1.2c0-0.9,0.3-1.7,1-2.4
	c0.6-0.7,1.5-1.1,2.5-1.1c0.8,0,1.4,0.2,1.9,0.6s1,0.9,1.6,1.5c0.6-0.6,1.1-1.1,1.6-1.5s1.1-0.6,1.9-0.6c1.1,0,1.9,0.4,2.5,1.1
	s0.9,1.5,0.9,2.4c0,0.4-0.1,0.8-0.2,1.3c-0.2,0.4-0.4,0.8-0.8,1.2L35.1,40.2z M7.5,17.8h32.9v-5.1c0-0.3-0.1-0.6-0.4-0.8
	c-0.3-0.3-0.5-0.4-0.8-0.4H8.8c-0.3,0-0.6,0.1-0.8,0.4c-0.3,0.3-0.4,0.5-0.4,0.8L7.5,17.8L7.5,17.8z M22.3,38H8.8
	c-0.8,0-1.4-0.3-2-0.8C6.3,36.7,6,36,6,35.2V12.8c0-0.8,0.3-1.4,0.8-2C7.3,10.3,8,10,8.8,10h30.5c0.8,0,1.4,0.3,2,0.8
	c0.5,0.5,0.8,1.2,0.8,2V23c-1-0.6-2.1-1.1-3.3-1.5c-1.2-0.3-2.4-0.5-3.7-0.5c-0.9,0-1.7,0.1-2.5,0.2s-1.7,0.3-2.5,0.6H7.5v13.4
	c0,0.3,0.1,0.6,0.4,0.8c0.3,0.3,0.5,0.4,0.8,0.4H22c0,0.3,0.1,0.5,0.1,0.8C22.2,37.5,22.3,37.8,22.3,38z"/>
</svg>
