<?xml version="1.0" encoding="utf-8"?>
<!-- Generator: Adobe Illustrator 26.3.1, SVG Export Plug-In . SVG Version: 6.00 Build 0)  -->
<svg version="1.1" id="Слой_1" xmlns="http://www.w3.org/2000/svg" xmlns:xlink="http://www.w3.org/1999/xlink" x="0px" y="0px"
	 viewBox="0 0 48 48" style="enable-background:new 0 0 48 48;" xml:space="preserve">
<path d="M12.8,29.5h22.5c0.4,0,0.7-0.1,0.9-0.4c0.2-0.2,0.3-0.6,0.3-1v-5.4c0-0.4-0.1-0.7-0.3-1s-0.5-0.4-0.9-0.4H20.8v-9.8H16
	c-1.3,0-2.3,0.5-3.2,1.4s-1.3,2-1.3,3.4v11.9c0,0.4,0.1,0.8,0.3,1C12.1,29.4,12.4,29.5,12.8,29.5z M24,40.5c0.9,0,1.8-0.1,2.6-0.2
	c0.9-0.2,1.7-0.4,2.6-0.7v-8.5H18.8v8.5c0.8,0.3,1.7,0.5,2.6,0.7C22.2,40.4,23.1,40.5,24,40.5z M24,42c-2.4,0-4.7-0.5-6.9-1.4
	s-4.2-2.2-5.9-3.9l1.1-1.1c0.7,0.7,1.5,1.4,2.3,1.9s1.7,1,2.6,1.4V31h-4.5c-0.8,0-1.4-0.3-2-0.8c-0.4-0.5-0.7-1.2-0.7-2V16.3
	c0-1.7,0.6-3.2,1.8-4.4s2.6-1.8,4.2-1.8h6.4v9.8h12.8c0.8,0,1.4,0.3,2,0.9c0.5,0.6,0.8,1.3,0.8,2.1v5.4c0,0.8-0.3,1.5-0.8,2.1
	s-1.2,0.8-2,0.8h-4.5V39c0.9-0.4,1.8-0.9,2.6-1.5s1.6-1.2,2.3-1.9l1.1,1.1c-1.7,1.6-3.7,2.9-5.9,3.9C28.7,41.5,26.4,42,24,42z"/>
</svg>
