<?xml version="1.0" encoding="utf-8"?>
<!-- Generator: Adobe Illustrator 26.3.1, SVG Export Plug-In . SVG Version: 6.00 Build 0)  -->
<svg version="1.1" id="Слой_1" xmlns="http://www.w3.org/2000/svg" xmlns:xlink="http://www.w3.org/1999/xlink" x="0px" y="0px"
	 viewBox="0 0 48 48" style="enable-background:new 0 0 48 48;" xml:space="preserve">
<path d="M24,42c-2.5,0-4.8-0.5-7-1.4s-4.1-2.2-5.7-3.9c-1.6-1.6-2.9-3.5-3.9-5.7C6.5,28.8,6,26.5,6,24c0-3.2,0.8-6.2,2.4-9
	s3.8-5,6.7-6.6c0,0.3,0.1,0.5,0.1,0.8c0.1,0.3,0.1,0.5,0.1,0.8c-2.4,1.5-4.3,3.5-5.7,6s-2.1,5.1-2.1,8c0,4.6,1.6,8.5,4.8,11.7
	s7.1,4.8,11.7,4.8s8.5-1.6,11.7-4.8s4.8-7.1,4.8-11.7c0-2.9-0.7-5.6-2.1-8.1c-1.4-2.5-3.3-4.5-5.8-6c0-0.2,0.1-0.5,0.2-0.7
	c0.1-0.3,0.1-0.5,0.2-0.8c2.8,1.6,5.1,3.8,6.7,6.6c1.6,2.8,2.4,5.8,2.4,9c0,2.5-0.5,4.8-1.4,7s-2.2,4.1-3.9,5.7
	c-1.6,1.6-3.5,2.9-5.7,3.9C28.8,41.5,26.5,42,24,42z M24,34c-2.8,0-5.1-1-7.1-2.9C15,29.1,14,26.8,14,24c0-1.4,0.3-2.8,0.9-4.1
	c0.6-1.3,1.4-2.4,2.5-3.3c0.1,0.3,0.2,0.5,0.3,0.8c0.1,0.3,0.2,0.5,0.3,0.8c-0.8,0.8-1.4,1.6-1.8,2.7c-0.4,1-0.6,2.1-0.6,3.1
	c0,2.3,0.8,4.3,2.5,6c1.6,1.6,3.6,2.5,6,2.5s4.3-0.8,6-2.5c1.6-1.6,2.5-3.6,2.5-6c0-1.1-0.2-2.2-0.6-3.1c-0.4-1-1-1.9-1.8-2.7
	c0.1-0.2,0.1-0.2,0-0.1c0,0.2,0.1-0.3,0.5-1.6c1.1,1,1.9,2.1,2.5,3.3c0.6,1.3,0.9,2.6,0.9,4.1c0,2.8-1,5.1-2.9,7.1S26.8,34,24,34z
	 M22.9,15.8c-1.2-3.7-2-6.1-2.3-7.3S20.2,6.2,20.2,5c0-1.1,0.4-2,1.1-2.7C22,1.6,22.9,1.2,24,1.2s2,0.4,2.7,1.1
	C27.4,3,27.8,3.9,27.8,5s-0.1,2.3-0.4,3.5s-1,3.6-2.3,7.3H22.9z M24,26.8c-0.8,0-1.4-0.3-2-0.8c-0.5-0.5-0.8-1.2-0.8-2
	s0.3-1.4,0.8-2c0.5-0.5,1.2-0.8,2-0.8s1.4,0.3,2,0.8s0.8,1.2,0.8,2s-0.3,1.4-0.8,2C25.4,26.5,24.8,26.8,24,26.8z"/>
</svg>
