<?xml version="1.0" encoding="utf-8"?>
<!-- Generator: Adobe Illustrator 26.3.1, SVG Export Plug-In . SVG Version: 6.00 Build 0)  -->
<svg version="1.1" id="Слой_1" xmlns="http://www.w3.org/2000/svg" xmlns:xlink="http://www.w3.org/1999/xlink" x="0px" y="0px"
	 viewBox="0 0 48 48" style="enable-background:new 0 0 48 48;" xml:space="preserve">
<path d="M24.1,46c-2.9,0-5.6-0.5-8.1-1.5c-2.6-1-4.8-2.4-6.8-4.2S5.6,36.4,4.3,34s-2-5.1-2.3-7.9h1.6c0.3,2.6,1,5,2.1,7.2
	c1.2,2.2,2.7,4.2,4.6,5.8c1.9,1.7,4,3,6.3,3.9c2.4,0.9,4.9,1.4,7.5,1.5l-4.2-4.2l1.1-1.1l6.6,6.6C27,45.9,26.5,46,25.9,46
	C25.2,46,24.6,46,24.1,46z M30.2,35.8v-4.1h-11c-0.8,0-1.4-0.3-2-0.8c-0.5-0.5-0.8-1.2-0.8-2v-11h-4.1v-1.5h4.1v-4.1h1.5V29
	c0,0.3,0.1,0.6,0.4,0.8c0.3,0.3,0.5,0.4,0.8,0.4h18.7v1.5h-6.1v4.1H30.2z M30.2,28.6v-9.5c0-0.3-0.1-0.6-0.4-0.8s-0.5-0.4-0.8-0.4
	h-9.5v-1.5H29c0.8,0,1.4,0.3,2,0.8c0.5,0.5,0.8,1.2,0.8,2v9.5C31.7,28.6,30.2,28.6,30.2,28.6z M44.5,21.9c-0.2-2.6-0.9-5-2.1-7.2
	c-1.2-2.2-2.7-4.2-4.6-5.8c-1.9-1.7-4-3-6.3-3.9c-2.4-1-4.9-1.5-7.5-1.5l4.2,4.2l-1.1,1.1l-6.6-6.6C21.1,2.1,21.6,2,22.2,2
	s1.2,0,1.7,0c2.8,0,5.5,0.5,8.1,1.5s4.8,2.4,6.8,4.2s3.6,3.9,4.9,6.3c1.3,2.4,2,5.1,2.3,7.9H44.5z"/>
</svg>
