<?xml version="1.0" encoding="utf-8"?>
<!-- Generator: Adobe Illustrator 26.3.1, SVG Export Plug-In . SVG Version: 6.00 Build 0)  -->
<svg version="1.1" id="Слой_1" xmlns="http://www.w3.org/2000/svg" xmlns:xlink="http://www.w3.org/1999/xlink" x="0px" y="0px"
	 viewBox="0 0 48 48" style="enable-background:new 0 0 48 48;" xml:space="preserve">
<path d="M35.4,45v-8.1H13.9c-0.8,0-1.4-0.3-2-0.8c-0.5-0.5-0.8-1.2-0.8-2V12.6H3v-1.5h8.1V3h1.5v31.1c0,0.3,0.1,0.6,0.4,0.9
	c0.2,0.2,0.5,0.4,0.9,0.4H45v1.5h-8.1V45H35.4z M35.4,33.8V13.9c0-0.3-0.1-0.6-0.4-0.8c-0.3-0.3-0.5-0.4-0.8-0.4h-20v-1.5h19.9
	c0.7,0,1.4,0.3,1.9,0.8s0.8,1.2,0.8,1.9v19.9C36.9,33.8,35.4,33.8,35.4,33.8z"/>
</svg>
