<?xml version="1.0" encoding="utf-8"?>
<!-- Generator: Adobe Illustrator 26.3.1, SVG Export Plug-In . SVG Version: 6.00 Build 0)  -->
<svg version="1.1" id="Слой_1" xmlns="http://www.w3.org/2000/svg" xmlns:xlink="http://www.w3.org/1999/xlink" x="0px" y="0px"
	 viewBox="0 0 48 48" style="enable-background:new 0 0 48 48;" xml:space="preserve">
<path d="M18.7,40c-0.8,0-1.4-0.3-2-0.8c-0.5-0.5-0.8-1.2-0.8-2V10.8c0-0.8,0.3-1.4,0.8-2c0.5-0.5,1.2-0.8,2-0.8h10.7
	c0.7,0,1.4,0.3,1.9,0.8s0.8,1.2,0.8,2v26.5c0,0.8-0.3,1.4-0.8,2c-0.5,0.5-1.2,0.8-1.9,0.8L18.7,40L18.7,40z M17.4,10.8v26.5
	c0,0.3,0.1,0.6,0.4,0.8c0.2,0.3,0.5,0.4,0.9,0.4h10.7c0.3,0,0.6-0.1,0.8-0.4c0.3-0.3,0.4-0.5,0.4-0.8V10.8c0-0.3-0.1-0.6-0.4-0.8
	c-0.3-0.3-0.5-0.4-0.8-0.4H18.7c-0.3,0-0.6,0.1-0.9,0.4C17.6,10.2,17.4,10.5,17.4,10.8z M17.4,10.8V9.5v28.9
	C17.4,38.5,17.4,10.8,17.4,10.8z"/>
</svg>
