<?xml version="1.0" encoding="utf-8"?>
<!-- Generator: Adobe Illustrator 26.3.1, SVG Export Plug-In . SVG Version: 6.00 Build 0)  -->
<svg version="1.1" id="Слой_1" xmlns="http://www.w3.org/2000/svg" xmlns:xlink="http://www.w3.org/1999/xlink" x="0px" y="0px"
	 viewBox="0 0 48 48" style="enable-background:new 0 0 48 48;" xml:space="preserve">
<path d="M11.7,38v-1.5h24.5V38H11.7z M11.6,32.1l-3-15.6c-0.1,0-0.2,0.1-0.3,0.1s-0.2,0-0.3,0c-0.5,0-1-0.2-1.4-0.6
	C6.2,15.7,6,15.2,6,14.7s0.2-1,0.6-1.4C7,12.8,7.4,12.6,8,12.6s1,0.2,1.4,0.6c0.4,0.4,0.6,0.9,0.6,1.4c0,0.2,0,0.3,0,0.5
	c0,0.1-0.1,0.3-0.2,0.4l6.9,2.8L23,9.7c-0.3-0.1-0.6-0.4-0.8-0.7C22,8.7,22,8.4,22,8c0-0.5,0.2-1,0.6-1.4S23.4,6,24,6
	c0.5,0,1,0.2,1.4,0.6s0.7,0.9,0.7,1.4c0,0.4-0.1,0.7-0.3,1c-0.2,0.3-0.4,0.5-0.8,0.7l6.3,8.6l6.9-2.8c-0.1-0.1-0.1-0.2-0.2-0.4
	c0-0.2-0.1-0.3-0.1-0.5c0-0.5,0.2-1,0.6-1.4c0.4-0.4,0.8-0.6,1.4-0.6c0.5,0,1,0.2,1.4,0.6c0.4,0.4,0.6,0.9,0.6,1.4s-0.2,1-0.6,1.4
	c-0.4,0.4-0.9,0.6-1.4,0.6c-0.1,0-0.2,0-0.3,0s-0.2,0-0.3-0.1l-2.9,15.6H11.6z M12.9,30.6h22.2l2.6-13.1l-6.9,2.8L24,11l-6.7,9.3
	l-6.9-2.8C10.3,17.5,12.9,30.6,12.9,30.6z"/>
</svg>
