<?xml version="1.0" encoding="utf-8"?>
<!-- Generator: Adobe Illustrator 26.3.1, SVG Export Plug-In . SVG Version: 6.00 Build 0)  -->
<svg version="1.1" id="Слой_1" xmlns="http://www.w3.org/2000/svg" xmlns:xlink="http://www.w3.org/1999/xlink" x="0px" y="0px"
	 viewBox="0 0 48 48" style="enable-background:new 0 0 48 48;" xml:space="preserve">
<path d="M31.6,20.2c-0.7,0-1.3-0.2-1.8-0.7s-0.7-1.1-0.7-1.8c0-0.7,0.2-1.3,0.7-1.8c0.5-0.5,1.1-0.7,1.8-0.7s1.3,0.2,1.8,0.7
	c0.5,0.5,0.7,1.1,0.7,1.8s-0.2,1.3-0.7,1.8C33,20,32.4,20.2,31.6,20.2z M16.4,20.2c-0.7,0-1.3-0.2-1.8-0.7s-0.7-1.1-0.7-1.8
	c0-0.7,0.2-1.3,0.7-1.8c0.5-0.5,1.1-0.7,1.8-0.7c0.7,0,1.3,0.2,1.8,0.7c0.5,0.5,0.7,1.1,0.7,1.8s-0.2,1.3-0.7,1.8
	C17.7,20,17.1,20.2,16.4,20.2z M24,24.8c-0.7,0-1.3-0.2-1.8-0.7s-0.7-1.1-0.7-1.8c0-0.7,0.2-1.3,0.7-1.8s1.1-0.7,1.8-0.7
	s1.3,0.2,1.8,0.7s0.7,1.1,0.7,1.8c0,0.7-0.2,1.3-0.7,1.8C25.3,24.6,24.7,24.8,24,24.8z M24,15.5c-0.7,0-1.3-0.2-1.8-0.7
	s-0.7-1.1-0.7-1.8s0.2-1.3,0.7-1.8s1.1-0.7,1.8-0.7s1.3,0.2,1.8,0.7s0.7,1.1,0.7,1.8s-0.2,1.3-0.7,1.8S24.7,15.5,24,15.5z M24,37.5
	c-0.6,0-1.1,0-1.7-0.1s-1.1-0.2-1.6-0.3v-6c0-1,0.3-1.9,0.9-2.6s1.4-1.1,2.4-1.1s1.8,0.4,2.4,1.1s0.9,1.6,0.9,2.6v6
	c-0.5,0.1-1.1,0.3-1.6,0.3C25.1,37.5,24.6,37.5,24,37.5z M18.1,36.2c-0.6-0.2-1.1-0.5-1.6-0.8s-1-0.6-1.5-0.9
	c-0.8-0.5-1.4-1.3-1.9-2.2c-0.5-0.9-0.7-1.9-0.7-2.9c0-0.7-0.1-1.4-0.2-2c-0.2-0.6-0.4-1.2-0.8-1.8c-0.3-0.4-0.8-0.9-1.6-1.7
	c-0.8-0.7-1.5-1.4-2.2-2.1c-0.3-0.3-0.5-0.7-0.5-1.2s0.2-0.8,0.5-1.2C8,19,8.4,18.9,8.8,18.9s0.8,0.2,1.2,0.5l6.5,6.1
	c0.5,0.5,0.9,1.1,1.2,1.8c0.3,0.7,0.4,1.4,0.4,2.1C18.1,29.5,18.1,36.2,18.1,36.2z M29.9,36.2v-6.7c0-0.8,0.2-1.5,0.5-2.2
	s0.8-1.3,1.3-1.8l6.4-6.1c0.3-0.3,0.7-0.5,1.2-0.5s0.9,0.2,1.2,0.5s0.5,0.7,0.5,1.2s-0.2,0.9-0.5,1.2c-0.6,0.6-1.4,1.3-2.2,2.1
	c-0.8,0.7-1.3,1.3-1.6,1.7c-0.4,0.6-0.7,1.2-0.8,1.8c-0.2,0.6-0.2,1.3-0.2,2.1c0,1-0.2,2-0.7,2.9c-0.4,0.9-1.1,1.6-1.9,2.2
	c-0.5,0.3-1,0.6-1.5,0.9C31,35.7,30.4,36,29.9,36.2z"/>
</svg>
