<?xml version="1.0" encoding="utf-8"?>
<!-- Generator: Adobe Illustrator 26.3.1, SVG Export Plug-In . SVG Version: 6.00 Build 0)  -->
<svg version="1.1" id="Слой_1" xmlns="http://www.w3.org/2000/svg" xmlns:xlink="http://www.w3.org/1999/xlink" x="0px" y="0px"
	 viewBox="0 0 48 48" style="enable-background:new 0 0 48 48;" xml:space="preserve">
<path d="M19,42c-1.9,0-3.6-0.7-5-2s-2.1-3-2.1-4.8c0-0.9,0.2-1.8,0.6-2.6c0.4-0.8,1-1.6,1.8-2.3c0.7-0.7,1.3-1.3,1.8-1.9
	s1-1.2,1.5-1.8c-1.5-2.3-2.6-4.7-3.4-7.1C13.4,17,13,14.6,13,12.2c0-1.5,0.2-2.6,0.6-3.3c0.4-0.7,0.9-1.1,1.6-1.1
	c0.9,0,1.9,0.6,3.1,1.8c1.2,1.2,2.3,2.8,3.3,5c0.6,1.2,1,2.5,1.4,3.9c0.3,1.4,0.6,2.7,0.7,4.1c0.1-1.4,0.4-2.7,0.7-4.1
	c0.4-1.4,0.8-2.7,1.3-3.9c1-2.2,2.1-3.8,3.3-5c1.2-1.2,2.3-1.8,3.2-1.8c0.7,0,1.3,0.4,1.6,1.1c0.4,0.7,0.5,1.8,0.5,3.3
	c0,2.4-0.4,4.9-1.2,7.3c-0.8,2.5-1.9,4.8-3.4,7.1c0.5,0.6,1.1,1.1,1.5,1.8c0.5,0.6,1.1,1.3,1.8,1.9c0.8,0.7,1.4,1.5,1.8,2.3
	c0.4,0.8,0.6,1.7,0.6,2.6c0,1.9-0.7,3.5-2.1,4.8c-1.4,1.3-3,2-5,2c-1.2,0-2.4-0.2-3.4-0.6L24,40.8l-1.5,0.6C21.4,41.8,20.3,42,19,42
	z M19.2,40.5c0.6,0,1.3-0.1,2.1-0.3c0.8-0.2,1.5-0.5,2.3-0.8c-0.3-0.2-0.6-0.4-0.9-0.8c-0.3-0.3-0.4-0.6-0.4-0.9
	c0-0.3,0.2-0.5,0.5-0.6c0.3-0.2,0.7-0.2,1.2-0.2s0.9,0.1,1.2,0.3c0.3,0.2,0.5,0.4,0.5,0.6c0,0.2-0.1,0.5-0.4,0.9
	c-0.3,0.3-0.6,0.6-0.9,0.8c0.7,0.4,1.5,0.6,2.3,0.8s1.5,0.3,2.1,0.3c1.6,0,2.9-0.5,4-1.6c1.1-1,1.7-2.3,1.7-3.8
	c0-0.8-0.2-1.5-0.6-2.1c-0.4-0.7-1-1.3-1.8-2c-0.4-0.3-0.7-0.6-1-1c-0.3-0.3-0.5-0.6-0.7-0.9c-1.2-1.6-2.2-2.6-3-3s-1.9-0.6-3.3-0.6
	s-2.5,0.2-3.3,0.6s-1.8,1.4-3,3c-0.2,0.3-0.4,0.6-0.7,0.9c-0.3,0.3-0.6,0.6-1,1c-0.8,0.7-1.4,1.4-1.8,2c-0.4,0.7-0.6,1.4-0.6,2.1
	c0,1.5,0.6,2.7,1.7,3.8C16.3,39.9,17.6,40.5,19.2,40.5z M21,33.5c-0.3,0-0.5-0.2-0.7-0.5S20,32.4,20,32c0-0.4,0.1-0.8,0.3-1.1
	c0.2-0.3,0.4-0.4,0.7-0.4c0.3,0,0.5,0.1,0.7,0.4S22,31.6,22,32c0,0.4-0.1,0.8-0.3,1C21.5,33.3,21.3,33.5,21,33.5z M27,33.5
	c-0.3,0-0.5-0.2-0.7-0.5S26,32.4,26,32c0-0.4,0.1-0.8,0.3-1.1c0.2-0.3,0.4-0.4,0.7-0.4c0.3,0,0.5,0.1,0.7,0.4S28,31.6,28,32
	c0,0.4-0.1,0.8-0.3,1C27.5,33.3,27.3,33.5,27,33.5z M18.9,25.5c0.6-0.5,1.1-0.9,1.7-1.1s1.3-0.4,2-0.4c-0.1-1.5-0.3-3-0.7-4.5
	c-0.3-1.5-0.8-2.9-1.5-4.3c-0.7-1.6-1.5-2.9-2.5-4c-0.9-1.1-1.8-1.7-2.8-2c-0.2,0.4-0.3,0.8-0.4,1.3c-0.1,0.5-0.1,1-0.1,1.5
	c0,2.2,0.4,4.4,1.1,6.8C16.6,21.2,17.6,23.4,18.9,25.5z M29.1,25.5c1.3-2.1,2.3-4.3,3-6.7c0.7-2.3,1.1-4.6,1.1-6.8
	c0-0.5,0-1-0.1-1.5s-0.2-0.9-0.4-1.3c-0.9,0.3-1.8,1-2.8,2c-0.9,1.1-1.7,2.4-2.5,4c-0.6,1.3-1.1,2.8-1.5,4.3c-0.3,1.5-0.6,3-0.7,4.5
	c0.8,0,1.5,0.2,2,0.4C27.9,24.6,28.5,25,29.1,25.5z"/>
</svg>
