<?xml version="1.0" encoding="utf-8"?>
<!-- Generator: Adobe Illustrator 26.3.1, SVG Export Plug-In . SVG Version: 6.00 Build 0)  -->
<svg version="1.1" id="Слой_1" xmlns="http://www.w3.org/2000/svg" xmlns:xlink="http://www.w3.org/1999/xlink" x="0px" y="0px"
	 viewBox="0 0 48 48" style="enable-background:new 0 0 48 48;" xml:space="preserve">
<path d="M6,40v-1.5h4V8h28v30.5h4V40H6z M11.5,38.5h9.1c-0.3-2.6-1.1-5.3-2.6-7.9s-3.6-4.3-6.5-5C11.5,25.5,11.5,38.5,11.5,38.5z
	 M11.5,9.5v13c2.8-0.7,5-2.4,6.5-5s2.4-5.3,2.6-7.9C20.6,9.5,11.5,9.5,11.5,9.5z M12.2,24c3.1,0.9,5.4,2.8,7.1,5.6
	c1.7,2.9,2.6,5.8,2.9,8.8h3.6c0.3-3,1.2-5.9,2.9-8.8c1.7-2.9,4-4.8,7.1-5.6c-3.1-0.9-5.5-2.8-7.1-5.6c-1.7-2.9-2.6-5.8-2.9-8.8h-3.5
	c-0.3,3-1.2,5.9-2.9,8.8C17.6,21.2,15.3,23.1,12.2,24z M36.5,9.5h-9.1c0.3,2.6,1.1,5.3,2.6,7.9s3.7,4.3,6.5,5
	C36.5,22.5,36.5,9.5,36.5,9.5z M36.5,38.5v-13c-2.8,0.7-5,2.4-6.5,5s-2.4,5.3-2.6,7.9L36.5,38.5L36.5,38.5z M11.5,9.5v13V9.5z
	 M36.5,9.5v13V9.5z M36.5,38.5v-13V38.5z M11.5,38.5v-13V38.5z"/>
</svg>
