<?xml version="1.0" encoding="utf-8"?>
<!-- Generator: Adobe Illustrator 26.3.1, SVG Export Plug-In . SVG Version: 6.00 Build 0)  -->
<svg version="1.1" id="Слой_1" xmlns="http://www.w3.org/2000/svg" xmlns:xlink="http://www.w3.org/1999/xlink" x="0px" y="0px"
	 viewBox="0 0 48 48" style="enable-background:new 0 0 48 48;" xml:space="preserve">
<path d="M7,7h14.2v14.2H7V7z M8.5,8.5v10.6V8.5z M26.8,7H41v14.2H26.8V7z M28.8,8.5v10.6V8.5z M7,26.8h14.2V41H7V26.8z M8.5,28.8
	v10.7V28.8z M33.1,26.8h1.5v6.3H41v1.5h-6.3V41h-1.5v-6.4h-6.4v-1.5h6.4v-6.3H33.1z M28.3,8.5v11.2h11.2V8.5H28.3z M8.5,8.5v11.2
	h11.2V8.5H8.5z M8.5,28.3v11.2h11.2V28.3H8.5z"/>
</svg>
