<?xml version="1.0" encoding="utf-8"?>
<!-- Generator: Adobe Illustrator 26.3.1, SVG Export Plug-In . SVG Version: 6.00 Build 0)  -->
<svg version="1.1" id="Слой_1" xmlns="http://www.w3.org/2000/svg" xmlns:xlink="http://www.w3.org/1999/xlink" x="0px" y="0px"
	 viewBox="0 0 48 48" style="enable-background:new 0 0 48 48;" xml:space="preserve">
<path d="M21.8,18.5c0.8,0,1.4-0.3,2-0.8c0.5-0.5,0.8-1.2,0.8-2c0-0.8-0.3-1.4-0.8-2c-0.5-0.5-1.2-0.8-2-0.8s-1.4,0.3-2,0.8
	c-0.5,0.5-0.8,1.2-0.8,2c0,0.8,0.3,1.4,0.8,2C20.3,18.3,21,18.5,21.8,18.5z M21.8,26.5c1,0,2-0.2,3-0.5c1-0.4,1.9-0.9,2.7-1.6
	c-1-0.5-2-0.8-2.9-1.1c-0.9-0.2-1.9-0.3-2.8-0.3c-1.1,0-2.2,0.1-3.2,0.4c-1,0.2-1.8,0.6-2.5,1.1c0.8,0.7,1.7,1.2,2.7,1.6
	C19.8,26.4,20.8,26.5,21.8,26.5z M42.7,41.8l-11.1-11c-1.4,1.2-3,2.1-4.6,2.8s-3.4,1-5.3,1c-4.1,0-7.6-1.4-10.5-4.3
	C8.4,27.4,7,23.9,7,19.8s1.4-7.6,4.3-10.5S17.6,5,21.8,5c4.1,0,7.6,1.4,10.5,4.3s4.3,6.3,4.3,10.5c0,1.9-0.3,3.7-1,5.3
	c-0.7,1.6-1.6,3.1-2.8,4.6l11,11L42.7,41.8z M21.8,33c3.7,0,6.8-1.3,9.3-3.9s3.9-5.7,3.9-9.4s-1.3-6.8-3.9-9.3
	c-2.6-2.6-5.7-3.9-9.4-3.9c-3.6,0-6.8,1.3-9.3,3.9c-2.6,2.6-3.9,5.7-3.9,9.4c0,3.6,1.3,6.8,3.9,9.3C15,31.7,18.1,33,21.8,33z"/>
</svg>
