<?xml version="1.0" encoding="utf-8"?>
<!-- Generator: Adobe Illustrator 26.3.1, SVG Export Plug-In . SVG Version: 6.00 Build 0)  -->
<svg version="1.1" id="Слой_1" xmlns="http://www.w3.org/2000/svg" xmlns:xlink="http://www.w3.org/1999/xlink" x="0px" y="0px"
	 viewBox="0 0 48 48" style="enable-background:new 0 0 48 48;" xml:space="preserve">
<path d="M24.8,40c-1.6,0-3.4,0-5.3-0.2c-2-0.2-3.8-0.6-5.5-1c-1.7-0.5-3.1-1.2-4.3-2c-1.1-0.9-1.7-2-1.7-3.2c0,1.2,0.6,2.3,1.7,3.1
	s2.6,1.5,4.3,2s3.5,0.8,5.5,1C21.4,40,23.2,40,24.8,40z M23.1,29.6c-1.3,0-2.5-0.1-3.8-0.3c-1.2-0.1-2.4-0.3-3.6-0.6
	c-1.2-0.3-2.3-0.6-3.3-1c-1.1-0.4-2-0.9-2.9-1.4c0.9,0.6,1.9,1,2.9,1.4c1.1,0.4,2.2,0.7,3.3,1c1.2,0.3,2.4,0.5,3.6,0.6
	C20.6,29.4,21.9,29.5,23.1,29.6z M24,17.6c2.8,0,5.6-0.4,8.6-1.2c3-0.8,4.8-1.8,5.6-2.8c-0.8-1-2.6-1.9-5.5-2.8
	C29.8,10,26.9,9.6,24,9.6c-2.8,0-5.7,0.4-8.7,1.2s-4.8,1.7-5.6,2.8c0.8,1.1,2.6,2,5.4,2.8C18,17.2,20.9,17.6,24,17.6z M23.7,38.5
	c0.1,0.3,0.3,0.5,0.4,0.7c0.2,0.2,0.4,0.5,0.6,0.8c-1.6,0-3.4,0-5.3-0.2c-2-0.2-3.8-0.6-5.5-1c-1.7-0.5-3.1-1.2-4.3-2
	c-1-0.9-1.6-2-1.6-3.2V13.7c0-0.7,0.5-1.3,1.4-2s2.2-1.3,3.7-1.8s3.2-1,5.1-1.3C20.2,8.2,22.1,8,24,8c1.8,0,3.7,0.2,5.6,0.5
	c1.9,0.4,3.6,0.8,5.2,1.4c1.5,0.6,2.8,1.2,3.8,1.8c1,0.7,1.5,1.3,1.5,2c0,0.6-0.5,1.2-1.5,1.8s-2.3,1.2-3.9,1.7
	c-1.6,0.5-3.3,1-5.2,1.3c-1.9,0.3-3.7,0.5-5.4,0.5c-2.7,0-5.3-0.3-7.8-0.9s-4.7-1.5-6.6-2.6v9.2c1.6,0.9,3.7,1.7,6.2,2.3
	c2.5,0.6,5.2,0.9,8.1,0.9c-0.1,0.2-0.3,0.5-0.4,0.7s-0.2,0.5-0.4,0.9c-2.6,0-5-0.3-7.4-0.9c-2.3-0.5-4.4-1.3-6.2-2.4V34
	c0.6,1.3,2.3,2.3,5,3.1S20.3,38.5,23.7,38.5z M42.9,44l-5.3-5.3c-0.6,0.5-1.3,0.8-2,1S34.2,40,33.4,40c-1.8,0-3.4-0.6-4.7-1.9
	c-1.3-1.3-1.9-2.9-1.9-4.7s0.6-3.4,1.9-4.7c1.3-1.3,2.9-1.9,4.7-1.9c1.8,0,3.4,0.6,4.7,1.9s1.9,2.9,1.9,4.7c0,0.7-0.1,1.5-0.3,2.2
	s-0.6,1.4-1.1,2l5.4,5.3L42.9,44z M33.4,38.5c1.4,0,2.6-0.5,3.6-1.5s1.5-2.2,1.5-3.6c0-1.4-0.5-2.6-1.5-3.6s-2.2-1.5-3.6-1.5
	c-1.4,0-2.6,0.5-3.6,1.5s-1.5,2.2-1.5,3.6s0.5,2.6,1.5,3.6C30.8,38,32,38.5,33.4,38.5z"/>
</svg>
