<?xml version="1.0" encoding="utf-8"?>
<!-- Generator: Adobe Illustrator 26.3.1, SVG Export Plug-In . SVG Version: 6.00 Build 0)  -->
<svg version="1.1" id="Слой_1" xmlns="http://www.w3.org/2000/svg" xmlns:xlink="http://www.w3.org/1999/xlink" x="0px" y="0px"
	 viewBox="0 0 48 48" style="enable-background:new 0 0 48 48;" xml:space="preserve">
<path d="M39.3,41.5L6.7,9l1.1-1.1l32.5,32.5L39.3,41.5z M24,40c-4.7,0-8.5-0.6-11.5-1.8S8,35.5,8,33.6V14c0-0.6,0.2-1.2,0.7-1.7
	c0.5-0.6,1.1-1.1,1.9-1.5l8,8c-1.8-0.3-3.5-0.7-5.1-1.2s-2.9-1.1-4-1.8v9c1.6,1,3.7,1.8,6.2,2.4s5.3,0.9,8.2,0.9
	c0.6,0,1.3,0,1.9-0.1c0.6,0,1.2-0.1,1.9-0.1l1.4,1.4c-0.9,0.1-1.7,0.2-2.6,0.3c-0.9,0.1-1.7,0.1-2.6,0.1c-2.9,0-5.7-0.3-8.2-0.9
	s-4.6-1.4-6.2-2.4v7.9c0.7,1.3,2.4,2.3,5.1,3.2c2.7,0.8,5.8,1.2,9.4,1.2c2.5,0,4.8-0.2,6.9-0.6c2.1-0.4,3.8-1,5.2-1.7l1.2,1.2
	c-1.4,0.8-3.2,1.5-5.5,2C29.5,39.8,26.9,40,24,40z M39.6,34.7l-1.1-1.2v-7.3c-0.7,0.4-1.5,0.8-2.4,1.2c-0.9,0.4-1.8,0.7-2.8,1
	L32,27.1c1.2-0.3,2.4-0.7,3.5-1.1s2.1-0.9,2.9-1.4v-9c-1.7,1.1-3.9,1.9-6.5,2.5S26.8,19,24,19l-1.5-1.5c0.8,0,1.9,0,3.4-0.1
	s3.1-0.3,4.7-0.6c1.6-0.3,3.1-0.7,4.6-1.2c1.4-0.5,2.5-1.2,3.1-2c-0.8-1-2.6-2-5.5-2.8C29.7,10,26.9,9.5,24,9.5
	c-1.4,0-2.8,0.1-4.2,0.3c-1.4,0.2-2.8,0.5-4.1,0.9l-1.4-1.4c1.4-0.4,2.9-0.7,4.5-1C20.4,8.1,22.1,8,24,8c4.4,0,8.2,0.6,11.3,1.8
	S40,12.4,40,14v19.6c0,0.2,0,0.4-0.1,0.6C39.8,34.3,39.7,34.5,39.6,34.7z"/>
</svg>
