<?xml version="1.0" encoding="utf-8"?>
<!-- Generator: Adobe Illustrator 26.3.1, SVG Export Plug-In . SVG Version: 6.00 Build 0)  -->
<svg version="1.1" id="Слой_1" xmlns="http://www.w3.org/2000/svg" xmlns:xlink="http://www.w3.org/1999/xlink" x="0px" y="0px"
	 viewBox="0 0 48 48" style="enable-background:new 0 0 48 48;" xml:space="preserve">
<path d="M10.8,38c-0.8,0-1.4-0.3-2-0.8C8.3,36.7,8,36,8,35.2V8.8c0-0.8,0.3-1.4,0.8-2C9.3,6.3,10,6,10.8,6h26.5c0.8,0,1.4,0.3,2,0.8
	C39.7,7.3,40,8,40,8.8v13.7c-0.1,0-0.2,0-0.3,0s-0.2,0-0.3,0h-0.9V8.8c0-0.3-0.1-0.6-0.4-0.8c-0.3-0.3-0.5-0.4-0.8-0.4H10.8
	c-0.3,0-0.6,0.1-0.8,0.4C9.7,8.2,9.5,8.5,9.5,8.8v26.5c0,0.3,0.1,0.6,0.4,0.8s0.5,0.4,0.8,0.4h6c0.1,0.3,0.2,0.5,0.3,0.8
	c0.1,0.2,0.2,0.5,0.3,0.8C17.3,38,10.8,38,10.8,38z M9.5,34v2.5v-29V34z M15.2,30.8H17c0.4-1,0.9-2,1.5-3s1.3-1.8,2.1-2.6h-5.3v5.6
	H15.2z M15.2,18.8h5.5v-5.5h-5.5C15.2,13.3,15.2,18.8,15.2,18.8z M28,40c-1.7,0-3.1-0.6-4.2-1.8C22.6,37.1,22,35.7,22,34
	s0.6-3.1,1.8-4.2C25,28.6,26.4,28,28,28h3.4v1.5H28c-1.3,0-2.3,0.4-3.2,1.3c-0.9,0.9-1.3,1.9-1.3,3.2c0,1.2,0.4,2.3,1.3,3.2
	s1.9,1.3,3.2,1.3h3.6V40H28z M27.2,18.8h5.5v-5.5h-5.5V18.8z M28,34.8v-1.5h12v1.5H28z M36.4,40v-1.5H40c1.2,0,2.3-0.4,3.2-1.3
	c0.9-0.9,1.3-1.9,1.3-3.2c0-1.2-0.4-2.3-1.3-3.2c-0.9-0.9-1.9-1.3-3.2-1.3h-3.4V28H40c1.7,0,3.1,0.6,4.2,1.7
	c1.2,1.2,1.8,2.6,1.8,4.3s-0.6,3.1-1.8,4.2C43.1,39.4,41.7,40,40,40H36.4z"/>
</svg>
