<?xml version="1.0" encoding="utf-8"?>
<!-- Generator: Adobe Illustrator 26.3.1, SVG Export Plug-In . SVG Version: 6.00 Build 0)  -->
<svg version="1.1" id="Слой_1" xmlns="http://www.w3.org/2000/svg" xmlns:xlink="http://www.w3.org/1999/xlink" x="0px" y="0px"
	 viewBox="0 0 48 48" style="enable-background:new 0 0 48 48;" xml:space="preserve">
<path d="M8,39v-1.5h22V39H8z M32,24.8c-2.4,0-4.5-0.9-6.2-2.6s-2.6-3.8-2.6-6.2s0.9-4.5,2.6-6.2s3.8-2.6,6.2-2.6s4.5,0.9,6.2,2.6
	s2.6,3.8,2.6,6.2s-0.9,4.5-2.6,6.2C36.5,23.9,34.4,24.8,32,24.8z M8,22.5V21h11c0.1,0.3,0.2,0.6,0.4,0.8c0.1,0.2,0.2,0.5,0.4,0.7
	C19.7,22.5,8,22.5,8,22.5z M8,30.8v-1.5h19.5c0.4,0.1,0.8,0.2,1.2,0.3c0.4,0.1,0.8,0.2,1.2,0.2v1C30,30.8,8,30.8,8,30.8z M31.2,17.5
	h1.5v-7.2h-1.5V17.5z M32,21.8c0.3,0,0.5-0.1,0.7-0.3S33,21,33,20.8c0-0.3-0.1-0.5-0.3-0.7s-0.4-0.3-0.7-0.3s-0.5,0.1-0.7,0.3
	c-0.2,0.2-0.3,0.4-0.3,0.7c0,0.3,0.1,0.5,0.3,0.7C31.5,21.7,31.7,21.8,32,21.8z"/>
</svg>
