<?xml version="1.0" encoding="utf-8"?>
<!-- Generator: Adobe Illustrator 26.3.1, SVG Export Plug-In . SVG Version: 6.00 Build 0)  -->
<svg version="1.1" id="Слой_1" xmlns="http://www.w3.org/2000/svg" xmlns:xlink="http://www.w3.org/1999/xlink" x="0px" y="0px"
	 viewBox="0 0 48 48" style="enable-background:new 0 0 48 48;" xml:space="preserve">
<path d="M23.9,42c-2.5,0-4.8-0.5-7-1.4s-4.1-2.2-5.7-3.8s-2.9-3.5-3.8-5.7S6,26.6,6,24.1s0.5-4.8,1.4-7s2.2-4.1,3.8-5.8
	c1.6-1.6,3.5-2.9,5.7-3.9s4.5-1.4,7-1.4s4.8,0.5,7,1.4c2.2,1,4.1,2.3,5.7,3.9s2.9,3.5,3.8,5.7c0.9,2.2,1.4,4.5,1.4,7v14.6
	c0,0.9-0.3,1.7-1,2.3c-0.6,0.6-1.4,1-2.3,1H23.9V42z M23.9,40.3c4.5,0,8.4-1.6,11.6-4.7c3.2-3.2,4.8-7,4.8-11.5
	c0-4.6-1.6-8.5-4.8-11.7s-7-4.8-11.6-4.8s-8.5,1.6-11.7,4.8s-4.8,7.1-4.8,11.7c0,1,0.1,2.1,0.3,3.1c0.2,1,0.5,2,0.8,2.9l7.4-7.4
	l6.6,5.6l9.4-9.4H27v-1.5h7.5v7.5H33v-4.8L22.8,30.3l-6.6-5.6l-6.8,6.8c1.3,2.6,3.3,4.7,5.9,6.3C17.9,39.5,20.7,40.3,23.9,40.3z
	 M39,40.2c0.4,0,0.7-0.1,0.9-0.4c0.2-0.3,0.4-0.6,0.4-0.9c0-0.4-0.1-0.7-0.4-0.9c-0.3-0.3-0.6-0.4-0.9-0.4c-0.3,0-0.7,0.1-0.9,0.4
	c-0.3,0.3-0.4,0.6-0.4,0.9c0,0.3,0.1,0.7,0.4,0.9C38.3,40.1,38.6,40.2,39,40.2z"/>
</svg>
