<?xml version="1.0" encoding="utf-8"?>
<!-- Generator: Adobe Illustrator 26.3.1, SVG Export Plug-In . SVG Version: 6.00 Build 0)  -->
<svg version="1.1" id="Слой_1" xmlns="http://www.w3.org/2000/svg" xmlns:xlink="http://www.w3.org/1999/xlink" x="0px" y="0px"
	 viewBox="0 0 48 48" style="enable-background:new 0 0 48 48;" xml:space="preserve">
<path d="M24.7,40L24.7,40L24.7,40c-1.7,0-3.5-0.1-5.5-0.3s-3.8-0.6-5.4-1.1s-3-1.2-4.1-2S8,34.8,8,33.6c0,1.2,0.6,2.2,1.7,3
	s2.5,1.5,4.1,2c1.7,0.5,3.5,0.9,5.4,1.1C21.2,39.9,23,40,24.7,40z M24.7,29.5L24.7,29.5L24.7,29.5c-1.4,0-2.8,0-4.1-0.1
	c-1.4-0.1-2.7-0.3-4-0.6c-1.3-0.3-2.5-0.6-3.7-1s-2.3-1-3.3-1.6c1,0.6,2.1,1.2,3.3,1.6s2.4,0.8,3.7,1c1.3,0.3,2.6,0.4,4,0.6
	C22,29.5,23.3,29.6,24.7,29.5z M24,17.6c2.8,0,5.7-0.4,8.6-1.2c2.9-0.8,4.8-1.7,5.6-2.7c-0.8-1-2.6-2-5.5-2.8
	c-3-0.9-5.8-1.4-8.7-1.4s-5.8,0.4-8.7,1.2s-4.8,1.7-5.6,2.7c0.8,1.1,2.6,2.1,5.5,2.9C18.1,17.2,21,17.6,24,17.6z M35.2,40.9h1.3
	v-8.4l3.7,3.7l0.9-0.9L35.8,30l-5.3,5.3l0.9,0.9l3.7-3.7C35.2,32.5,35.2,40.9,35.2,40.9z M35.8,43.2c-2.1,0-4-0.8-5.5-2.3
	S28,37.6,28,35.4c0-2.1,0.8-4,2.3-5.5s3.4-2.3,5.5-2.3s4,0.8,5.5,2.3s2.3,3.4,2.3,5.5c0,2.2-0.8,4-2.3,5.5
	C39.8,42.5,38,43.2,35.8,43.2z M24.1,38.5c0,0.3,0.1,0.5,0.2,0.8s0.2,0.5,0.3,0.7c-1.7,0-3.5-0.1-5.5-0.3s-3.8-0.6-5.4-1.1
	s-3-1.2-4.1-2s-1.7-1.8-1.7-3V14c0-1.7,1.6-3.1,4.7-4.2C15.8,8.6,19.6,8,24,8s8.2,0.6,11.3,1.8S40,12.4,40,14v10.1
	c-0.2-0.1-0.5-0.2-0.7-0.3c-0.3-0.1-0.5-0.1-0.8-0.2v-8c-1.7,1.1-3.9,1.9-6.5,2.5S26.8,19,24,19c-2.9,0-5.6-0.3-8.2-0.9
	s-4.7-1.4-6.3-2.5v9.2c1.6,0.9,3.7,1.7,6.2,2.3C18.2,27.7,21,28,24,28c0.4,0,0.8,0,1.2,0c0.4,0,0.8,0,1.2,0
	c-0.2,0.3-0.4,0.5-0.6,0.8s-0.4,0.5-0.5,0.8h-0.6c-2.8,0.1-5.5-0.2-8.2-0.7s-5-1.4-7-2.7v7.9c0.3,0.6,0.9,1.2,1.8,1.8
	c0.9,0.5,2,1,3.3,1.4s2.8,0.7,4.4,0.9C20.7,38.4,22.4,38.5,24.1,38.5z"/>
</svg>
