<?xml version="1.0" encoding="utf-8"?>
<!-- Generator: Adobe Illustrator 26.3.1, SVG Export Plug-In . SVG Version: 6.00 Build 0)  -->
<svg version="1.1" id="Слой_1" xmlns="http://www.w3.org/2000/svg" xmlns:xlink="http://www.w3.org/1999/xlink" x="0px" y="0px"
	 viewBox="0 0 48 48" style="enable-background:new 0 0 48 48;" xml:space="preserve">
<path d="M10.8,40c-0.7,0-1.4-0.3-1.9-0.8S8,38,8,37.2V10.8c0-0.8,0.3-1.4,0.8-2C9.4,8.3,10,8,10.8,8h26.5c0.7,0,1.4,0.3,1.9,0.8
	c0.5,0.6,0.8,1.2,0.8,2v26.5c0,0.7-0.3,1.4-0.8,1.9c-0.6,0.5-1.2,0.8-2,0.8H10.8z M33.3,38.5h4c0.4,0,0.7-0.1,0.9-0.3
	s0.3-0.5,0.3-0.9v-4L33.3,38.5z M10.7,38.5H16l6-6h2.2l-6,6h5.4l6-6h2.2l-6,6h5.4l6-6h1.4V10.8c0-0.4-0.1-0.7-0.3-0.9
	s-0.5-0.3-0.9-0.3H10.8c-0.4,0-0.7,0.1-0.9,0.3s-0.3,0.5-0.3,0.9v26.6l5-5h2.2C16.7,32.5,10.7,38.5,10.7,38.5z M14.7,26.7l-1.1-1.1
	l7.6-7.6l4.2,4.2l7.8-7.8l1,1.1l-8.8,8.9l-4.2-4.2C21.3,20.3,14.7,26.7,14.7,26.7z M9.5,37.2V9.5v28.9C9.5,38.5,9.5,37.2,9.5,37.2z"
	/>
</svg>
