<?xml version="1.0" encoding="utf-8"?>
<!-- Generator: Adobe Illustrator 26.3.1, SVG Export Plug-In . SVG Version: 6.00 Build 0)  -->
<svg version="1.1" id="Слой_1" xmlns="http://www.w3.org/2000/svg" xmlns:xlink="http://www.w3.org/1999/xlink" x="0px" y="0px"
	 viewBox="0 0 48 48" style="enable-background:new 0 0 48 48;" xml:space="preserve">
<path d="M8,39v-1.5h22V39H8z M32,24.8c-2.4,0-4.5-0.9-6.2-2.6s-2.6-3.8-2.6-6.2s0.9-4.5,2.6-6.2s3.8-2.6,6.2-2.6s4.5,0.9,6.2,2.6
	s2.6,3.8,2.6,6.2s-0.9,4.5-2.6,6.2C36.5,23.9,34.4,24.8,32,24.8z M8,22.5V21h11c0.1,0.3,0.2,0.6,0.4,0.8c0.1,0.2,0.2,0.5,0.4,0.7
	C19.7,22.5,8,22.5,8,22.5z M8,30.8v-1.5h19.5c0.4,0.1,0.8,0.2,1.2,0.3c0.4,0.1,0.8,0.2,1.2,0.2v1C30,30.8,8,30.8,8,30.8z M31.2,21.8
	h1.5v-7.2h-1.5V21.8z M32,12.4c0.3,0,0.5-0.1,0.7-0.3s0.3-0.4,0.3-0.7s-0.1-0.5-0.3-0.7s-0.4-0.3-0.7-0.3s-0.5,0.1-0.7,0.3
	S31,11.1,31,11.4s0.1,0.5,0.3,0.7C31.5,12.3,31.7,12.4,32,12.4z"/>
</svg>
