<?xml version="1.0" encoding="utf-8"?>
<!-- Generator: Adobe Illustrator 26.3.1, SVG Export Plug-In . SVG Version: 6.00 Build 0)  -->
<svg version="1.1" id="Слой_1" xmlns="http://www.w3.org/2000/svg" xmlns:xlink="http://www.w3.org/1999/xlink" x="0px" y="0px"
	 viewBox="0 0 48 48" style="enable-background:new 0 0 48 48;" xml:space="preserve">
<path d="M24,40c-4.7,0-8.5-0.6-11.5-1.8S8,35.5,8,33.6V14c0-1.7,1.6-3.1,4.7-4.2C15.8,8.6,19.6,8,24,8s8.2,0.6,11.3,1.8
	S40,12.4,40,14v19.6c0,1.9-1.5,3.4-4.5,4.6C32.5,39.4,28.7,40,24,40z M24,17.6c2.8,0,5.7-0.4,8.6-1.2c2.9-0.8,4.8-1.7,5.6-2.7
	c-0.8-1-2.6-2-5.5-2.8c-3-0.9-5.8-1.4-8.7-1.4s-5.8,0.4-8.7,1.2s-4.8,1.7-5.6,2.7c0.8,1.1,2.6,2,5.5,2.9C18.1,17.1,21,17.6,24,17.6z
	 M24,28c1.4,0,2.7-0.1,4.1-0.2s2.7-0.4,3.9-0.7c1.2-0.3,2.4-0.6,3.5-1.1c1.1-0.4,2.1-0.9,2.9-1.4v-9c-0.9,0.5-1.8,1-2.9,1.4
	c-1.1,0.4-2.3,0.8-3.5,1.1c-1.3,0.3-2.6,0.5-3.9,0.7C26.7,18.9,25.4,19,24,19s-2.8-0.1-4.2-0.2c-1.4-0.2-2.7-0.4-3.9-0.7
	c-1.2-0.3-2.4-0.6-3.5-1s-2-0.9-2.8-1.4v9c0.8,0.5,1.7,1,2.8,1.4s2.2,0.8,3.5,1.1c1.2,0.3,2.6,0.5,3.9,0.7C21.1,27.9,22.5,28,24,28z
	 M24,38.5c1.8,0,3.4-0.1,5-0.3s3-0.5,4.3-0.9s2.4-0.9,3.3-1.4c0.9-0.5,1.5-1.1,1.9-1.8v-7.9c-0.8,0.5-1.8,1-2.9,1.4
	c-1.1,0.4-2.3,0.7-3.5,1s-2.6,0.5-3.9,0.7c-1.4,0.1-2.7,0.2-4.1,0.2c-1.5,0-2.9-0.1-4.2-0.2c-1.4-0.1-2.7-0.4-3.9-0.7
	c-1.2-0.3-2.4-0.6-3.5-1.1c-1.1-0.4-2-0.9-2.8-1.4V34c0.3,0.6,1,1.2,1.9,1.8c0.9,0.5,2,1,3.3,1.4s2.7,0.7,4.3,0.9
	C20.6,38.4,22.2,38.5,24,38.5z"/>
</svg>
