<?xml version="1.0" encoding="utf-8"?>
<!-- Generator: Adobe Illustrator 26.3.1, SVG Export Plug-In . SVG Version: 6.00 Build 0)  -->
<svg version="1.1" id="Слой_1" xmlns="http://www.w3.org/2000/svg" xmlns:xlink="http://www.w3.org/1999/xlink" x="0px" y="0px"
	 viewBox="0 0 48 48" style="enable-background:new 0 0 48 48;" xml:space="preserve">
<path d="M12,29.6c-0.5,0-0.8-0.2-1.2-0.5c-0.3-0.3-0.5-0.7-0.5-1.2s0.2-0.8,0.5-1.2c0.3-0.3,0.7-0.5,1.2-0.5s0.8,0.2,1.2,0.5
	c0.3,0.3,0.5,0.7,0.5,1.2s-0.2,0.9-0.5,1.2C12.9,29.4,12.5,29.6,12,29.6z M12,37.6c-0.5,0-0.8-0.2-1.2-0.5c-0.3-0.3-0.5-0.7-0.5-1.2
	s0.2-0.8,0.5-1.2c0.3-0.3,0.7-0.5,1.2-0.5s0.8,0.2,1.2,0.5c0.3,0.3,0.5,0.7,0.5,1.2s-0.2,0.8-0.5,1.2S12.5,37.6,12,37.6z M12,21.7
	c-0.5,0-0.8-0.2-1.2-0.5c-0.3-0.3-0.5-0.7-0.5-1.2s0.2-0.9,0.5-1.2c0.3-0.3,0.7-0.5,1.2-0.5s0.8,0.2,1.2,0.5
	c0.3,0.3,0.5,0.7,0.5,1.2s-0.2,0.8-0.5,1.2C12.9,21.5,12.5,21.7,12,21.7z M6,21.1c-0.3,0-0.5-0.1-0.7-0.3C5.1,20.6,5,20.3,5,20
	s0.1-0.5,0.3-0.7C5.5,19.1,5.7,19,6,19s0.6,0.1,0.8,0.3C7,19.5,7.1,19.7,7.1,20S7,20.5,6.8,20.7C6.6,21,6.3,21.1,6,21.1z M12,13.6
	c-0.5,0-0.8-0.2-1.2-0.5c-0.3-0.3-0.5-0.7-0.5-1.2s0.2-0.8,0.5-1.2c0.3-0.3,0.7-0.5,1.2-0.5s0.8,0.2,1.2,0.5
	c0.3,0.3,0.5,0.7,0.5,1.2s-0.2,0.8-0.5,1.2S12.5,13.6,12,13.6z M6,29c-0.3,0-0.5-0.1-0.7-0.3C5.1,28.5,5,28.3,5,28s0.1-0.5,0.3-0.7
	C5.5,27,5.7,26.9,6,26.9s0.6,0.1,0.8,0.3C7,27.4,7.1,27.7,7.1,28S7,28.5,6.8,28.7C6.6,28.9,6.3,29,6,29z M20.1,43
	c-0.3,0-0.5-0.1-0.8-0.3C19.1,42.5,19,42.3,19,42s0.1-0.5,0.3-0.7c0.2-0.2,0.5-0.3,0.8-0.3s0.5,0.1,0.7,0.3s0.3,0.4,0.3,0.7
	s-0.1,0.5-0.3,0.7S20.3,43,20.1,43z M20.1,7.1c-0.3,0-0.5-0.1-0.8-0.3C19.1,6.6,19,6.3,19,6s0.1-0.5,0.3-0.7C19.5,5.1,19.8,5,20.1,5
	c0.3,0,0.5,0.1,0.7,0.3C21,5.5,21.1,5.7,21.1,6S21,6.5,20.8,6.7C20.6,7,20.3,7.1,20.1,7.1z M20.1,13.6c-0.5,0-0.9-0.2-1.2-0.5
	c-0.3-0.3-0.5-0.7-0.5-1.2s0.2-0.8,0.5-1.2c0.3-0.3,0.7-0.5,1.2-0.5s0.8,0.2,1.2,0.5c0.3,0.3,0.5,0.7,0.5,1.2s-0.2,0.8-0.5,1.2
	C20.9,13.5,20.5,13.6,20.1,13.6z M20.1,30.2c-0.6,0-1.1-0.2-1.6-0.7c-0.4-0.4-0.7-1-0.7-1.6s0.2-1.1,0.7-1.6c0.4-0.4,1-0.7,1.6-0.7
	s1.1,0.2,1.6,0.7c0.4,0.4,0.7,1,0.7,1.6s-0.2,1.1-0.7,1.6S20.7,30.2,20.1,30.2z M20.1,22.3c-0.6,0-1.1-0.2-1.6-0.7
	c-0.4-0.4-0.7-1-0.7-1.6s0.2-1.1,0.7-1.6c0.4-0.4,1-0.7,1.6-0.7s1.1,0.2,1.6,0.7c0.4,0.4,0.7,1,0.7,1.6s-0.2,1.1-0.7,1.6
	C21.2,22.1,20.7,22.3,20.1,22.3z M20.1,37.6c-0.5,0-0.9-0.2-1.2-0.5c-0.3-0.3-0.5-0.7-0.5-1.2s0.2-0.8,0.5-1.2
	c0.3-0.3,0.7-0.5,1.2-0.5s0.8,0.2,1.2,0.5c0.3,0.3,0.5,0.7,0.5,1.2s-0.2,0.8-0.5,1.2C20.9,37.5,20.5,37.6,20.1,37.6z M25.2,40.7
	v-1.5c3.9-0.3,7.2-1.8,9.9-4.7c2.7-2.9,4.1-6.4,4.1-10.5s-1.4-7.6-4.1-10.5c-2.7-2.9-6-4.5-9.9-4.7V7.3c2.2,0.1,4.2,0.7,6.1,1.6
	c1.9,0.9,3.5,2.1,4.9,3.6s2.5,3.2,3.3,5.2s1.2,4.1,1.2,6.3s-0.4,4.3-1.2,6.3s-1.9,3.7-3.3,5.2c-1.4,1.5-3,2.7-4.9,3.6
	C29.5,40.1,27.4,40.6,25.2,40.7z"/>
</svg>
