<?xml version="1.0" encoding="utf-8"?>
<!-- Generator: Adobe Illustrator 26.3.1, SVG Export Plug-In . SVG Version: 6.00 Build 0)  -->
<svg version="1.1" id="Слой_1" xmlns="http://www.w3.org/2000/svg" xmlns:xlink="http://www.w3.org/1999/xlink" x="0px" y="0px"
	 viewBox="0 0 48 48" style="enable-background:new 0 0 48 48;" xml:space="preserve">
<path d="M23.2,40.2C22.6,38.4,21.8,37,21,36c-0.9-1.1-2.2-2-3.8-2.8c-0.3,0.4-0.5,0.7-0.7,1.1c-0.2,0.3-0.3,0.6-0.5,0.7
	c0.3,0.8,0.7,1.5,1.1,2.1c0.5,0.6,1,1.1,1.6,1.6c0.6,0.4,1.3,0.8,2,1S22.3,40.1,23.2,40.2z M24.8,40.2c2-0.2,3.6-0.7,4.8-1.7
	c1.2-0.9,2-2.3,2.5-4.1c-0.3-0.1-0.6-0.3-0.9-0.5s-0.5-0.4-0.8-0.6c-0.7,0.4-1.3,0.8-1.9,1.3s-1.1,1-1.5,1.6
	c-0.5,0.6-0.9,1.2-1.2,1.9C25.4,38.7,25,39.4,24.8,40.2z M24,23.6c2.2,0,4.2-0.8,5.7-2.4c1.6-1.6,2.4-3.5,2.4-5.7V11l-3.9,3.3
	L24,8.8l-4.2,5.5L15.9,11v4.6c0,2.2,0.8,4.2,2.4,5.7C19.8,22.8,21.8,23.6,24,23.6z M23.2,41.6c-2.8,0-5.1-1-7.1-2.9
	c-1.9-1.9-2.9-4.3-2.9-7.1v-1.8c2.1,0.3,4,1.1,5.8,2.3c1.7,1.2,3.1,2.7,4,4.4V25.1c-2.4-0.2-4.5-1.3-6.1-3.1c-1.7-1.8-2.5-4-2.5-6.5
	v-4.9c0-0.6,0.3-1.1,0.8-1.3s1-0.2,1.5,0.3l2.9,2.5l3.3-4.3c0.3-0.4,0.7-0.5,1.1-0.5s0.8,0.2,1.1,0.5l3.3,4.3l2.9-2.5
	c0.4-0.4,0.9-0.5,1.5-0.3c0.5,0.2,0.8,0.7,0.8,1.3v4.9c0,2.5-0.8,4.7-2.5,6.5s-3.7,2.9-6.1,3.1v11.3c0.9-1.7,2.2-3.1,4-4.3
	c1.7-1.2,3.6-2,5.7-2.3v1.8c0,2.8-1,5.1-2.9,7.1c-1.9,1.9-4.3,2.9-7.1,2.9C24.7,41.6,23.2,41.6,23.2,41.6z"/>
</svg>
