<?xml version="1.0" encoding="utf-8"?>
<!-- Generator: Adobe Illustrator 26.3.1, SVG Export Plug-In . SVG Version: 6.00 Build 0)  -->
<svg version="1.1" id="Слой_1" xmlns="http://www.w3.org/2000/svg" xmlns:xlink="http://www.w3.org/1999/xlink" x="0px" y="0px"
	 viewBox="0 0 48 48" style="enable-background:new 0 0 48 48;" xml:space="preserve">
<path d="M29.8,35.2v-1.5h5.7v1.5C35.4,35.2,29.8,35.2,29.8,35.2z M29.8,18.1v-1.5h12v1.5H29.8z M29.8,26.7v-1.5h9.9v1.5H29.8z
	 M8.4,15.2H6.2v-1.5h7.7v-1.4h4.5v1.4h7.7v1.5H24v18.1c0,0.8-0.3,1.4-0.8,2c-0.5,0.5-1.2,0.8-2,0.8H11.1c-0.8,0-1.4-0.3-2-0.8
	c-0.5-0.5-0.8-1.2-0.8-2C8.4,33.2,8.4,15.2,8.4,15.2z M9.9,15.2v18.1c0,0.3,0.1,0.6,0.4,0.8c0.2,0.3,0.5,0.4,0.9,0.4h10.1
	c0.3,0,0.6-0.1,0.8-0.4c0.3-0.3,0.4-0.5,0.4-0.8V15.2H9.9z M9.9,15.2v19.3V15.2z"/>
</svg>
