<?xml version="1.0" encoding="utf-8"?>
<!-- Generator: Adobe Illustrator 26.3.1, SVG Export Plug-In . SVG Version: 6.00 Build 0)  -->
<svg version="1.1" id="Слой_1" xmlns="http://www.w3.org/2000/svg" xmlns:xlink="http://www.w3.org/1999/xlink" x="0px" y="0px"
	 viewBox="0 0 48 48" style="enable-background:new 0 0 48 48;" xml:space="preserve">
<path d="M18.5,31.6L24,26l5.6,5.6l1.2-1.2l-5.5-5.6l5.5-5.6L29.6,18L24,23.6L18.5,18l-1.2,1.2l5.6,5.6l-5.6,5.6
	C17.2,30.4,18.5,31.6,18.5,31.6z M14.8,40c-0.8,0-1.4-0.3-2-0.8c-0.5-0.5-0.8-1.2-0.8-2V11.3h-2V9.8h7.7V8.5h12.6v1.3H38v1.5h-2
	v25.9c0,0.8-0.3,1.4-0.8,2c-0.5,0.5-1.2,0.8-2,0.8H14.8z M34.5,11.3H13.6v25.9c0,0.3,0.1,0.6,0.4,0.8c0.3,0.3,0.5,0.4,0.8,0.4h18.4
	c0.3,0,0.6-0.1,0.8-0.4s0.4-0.5,0.4-0.8L34.5,11.3L34.5,11.3z M13.6,11.3v27.2V11.3z"/>
</svg>
