<?xml version="1.0" encoding="utf-8"?>
<!-- Generator: Adobe Illustrator 26.3.1, SVG Export Plug-In . SVG Version: 6.00 Build 0)  -->
<svg version="1.1" id="Слой_1" xmlns="http://www.w3.org/2000/svg" xmlns:xlink="http://www.w3.org/1999/xlink" x="0px" y="0px"
	 viewBox="0 0 48 48" style="enable-background:new 0 0 48 48;" xml:space="preserve">
<path d="M32.5,40l-1.1-1.1l4.2-4.2l-4.2-4.2l1.1-1.1l4.2,4.2l4.2-4.2l1.1,1.1l-4.1,4.2l4.1,4.2L40.9,40l-4.2-4.2L32.5,40z M23.9,40
	c-4.2,0-7.9-1.4-10.9-4.3c-3-2.9-4.7-6.4-4.9-10.6h1.5c0.3,3.8,1.8,6.9,4.5,9.5s6,3.9,9.8,3.9c0.6,0,1.1,0,1.7-0.1s1.1-0.2,1.6-0.3
	v1.6c-0.5,0.1-1.1,0.2-1.6,0.3C25,40,24.4,40,23.9,40z M10.4,15.8V8.2H12v5.1c1.6-1.6,3.4-2.9,5.4-3.9c2-0.9,4.2-1.4,6.5-1.4
	c4.5,0,8.3,1.5,11.4,4.6S40,19.5,40,23.9v0.8h-1.5v-0.8c0-4-1.4-7.4-4.2-10.2S28,9.5,24,9.5c-2,0-4,0.4-5.8,1.3
	c-1.8,0.9-3.5,2-4.9,3.5H18v1.5H10.4z M28.5,29.4l-5.2-5.1V13.9h1.5v9.7l4.5,4.4L28.5,29.4z"/>
</svg>
