<?xml version="1.0" encoding="utf-8"?>
<!-- Generator: Adobe Illustrator 26.3.1, SVG Export Plug-In . SVG Version: 6.00 Build 0)  -->
<svg version="1.1" id="Слой_1" xmlns="http://www.w3.org/2000/svg" xmlns:xlink="http://www.w3.org/1999/xlink" x="0px" y="0px"
	 viewBox="0 0 48 48" style="enable-background:new 0 0 48 48;" xml:space="preserve">
<path d="M33.6,6.2c1.7,0,3.1,0.6,4.2,1.8c1.2,1.2,1.8,2.6,1.8,4.2c0,0.3,0,0.8-0.1,1.3c0,0.6-0.1,1.2-0.2,2l-2.8,20.1
	c-0.1,0.8-0.4,1.5-1.1,1.9c-0.6,0.4-1.3,0.7-2,0.7c-0.5,0-0.9-0.1-1.4-0.4c-0.4-0.3-0.8-0.6-1.1-1.1L25,28.6
	c-0.1-0.2-0.3-0.3-0.5-0.4S24.1,28,23.9,28s-0.6,0.2-1.1,0.7L17,36.5c-0.3,0.5-0.7,0.9-1.2,1.2c-0.4,0.3-0.9,0.5-1.5,0.5
	c-0.7,0-1.4-0.2-2-0.7s-1-1.1-1-1.9l-2.7-20c-0.1-0.8-0.2-1.4-0.2-2s-0.1-1-0.1-1.3c0-1.7,0.6-3.1,1.8-4.2c1.2-1.2,2.6-1.8,4.2-1.8
	c1,0,1.8,0.2,2.5,0.5s1.4,0.7,2,1c0.7,0.4,1.4,0.7,2.2,1c0.8,0.3,1.8,0.5,2.9,0.5c1.2,0,2.2-0.2,3-0.5s1.5-0.7,2.2-1
	c0.7-0.4,1.3-0.7,2-1S32.7,6.2,33.6,6.2z M33.6,7.8c-0.8,0-1.4,0.1-2,0.4c-0.6,0.3-1.2,0.6-1.8,1c-0.8,0.5-1.7,0.9-2.6,1.2
	s-2,0.4-3.2,0.4s-2.3-0.1-3.1-0.4C20,10,19.2,9.7,18.3,9.2c-0.6-0.4-1.2-0.7-1.9-1c-0.6-0.3-1.3-0.4-2.1-0.4c-1.2,0-2.3,0.4-3.2,1.3
	S9.8,11,9.8,12.3c0,0.3,0,0.7,0.1,1.2c0,0.5,0.1,1.1,0.2,1.8l2.7,20.2c0,0.4,0.2,0.7,0.5,0.9s0.6,0.3,1,0.3c0.3,0,0.6-0.1,0.8-0.3
	s0.4-0.5,0.7-0.7l5.7-7.7c0.3-0.4,0.7-0.7,1.1-1c0.4-0.2,0.9-0.4,1.4-0.4s0.9,0.1,1.3,0.4c0.4,0.2,0.8,0.6,1.1,1l5.7,7.9
	c0.2,0.3,0.4,0.5,0.6,0.7c0.2,0.2,0.5,0.3,0.8,0.3c0.4,0,0.7-0.1,1-0.3s0.5-0.5,0.6-0.9l2.8-20.3c0.1-0.7,0.2-1.3,0.2-1.8
	s0-0.9,0-1.2c0-1.2-0.4-2.3-1.3-3.2C35.9,8.2,34.9,7.8,33.6,7.8z"/>
</svg>
