<?xml version="1.0" encoding="utf-8"?>
<!-- Generator: Adobe Illustrator 26.3.1, SVG Export Plug-In . SVG Version: 6.00 Build 0)  -->
<svg version="1.1" id="Слой_1" xmlns="http://www.w3.org/2000/svg" xmlns:xlink="http://www.w3.org/1999/xlink" x="0px" y="0px"
	 viewBox="0 0 48 48" style="enable-background:new 0 0 48 48;" xml:space="preserve">
<path d="M36.8,18.2l1-1l-3.6-3.7V7.9h-1.4V14L36.8,18.2z M7.3,13h14.4H7.3z M11.6,26.2H7.5h24.9H11.6z M10.3,42
	c-0.2,0-0.4-0.1-0.6-0.2c-0.2-0.1-0.2-0.3-0.2-0.5v-3.9c-0.9-0.2-1.7-0.9-2.4-1.9c-0.7-1-1.1-2.1-1.1-3.3V13.6c0-2,1.3-3.4,3.8-4.2
	s6.7-1.3,12.6-1.3c-0.1,0.3-0.2,0.5-0.3,0.8c-0.1,0.3-0.2,0.5-0.3,0.8c-5,0.1-8.6,0.4-10.8,0.9S7.6,11.9,7.3,13H21
	c0,0.2,0,0.5,0,0.8s0,0.5,0.1,0.8H7.5v10.1H27c0.6,0.4,1.3,0.7,2,0.9c0.7,0.3,1.5,0.5,2.2,0.6H7.5v6c0,1.1,0.4,2.1,1.2,3
	c0.8,0.8,1.7,1.2,2.9,1.2h16.8c1.1,0,2.1-0.4,2.9-1.2s1.2-1.8,1.2-3v-6.1c0.2,0,0.5,0,0.8,0s0.5,0,0.8,0v6c0,1.1-0.4,2.3-1.1,3.3
	c-0.7,1.1-1.5,1.7-2.4,1.9v3.9c0,0.2-0.1,0.3-0.2,0.5c-0.2,0.1-0.4,0.2-0.6,0.2h0.1c-0.3,0-0.5-0.1-0.6-0.2
	c-0.2-0.1-0.3-0.3-0.3-0.5v-3.4H11.1v3.4c0,0.2-0.1,0.3-0.3,0.5C10.7,41.9,10.5,42,10.3,42C10.2,42,10.3,42,10.3,42z M33.4,21.6
	c-2.2,0-4-0.8-5.5-2.3s-2.3-3.4-2.3-5.6s0.8-4,2.3-5.5C29.4,6.8,31.3,6,33.5,6s4,0.7,5.5,2.2s2.2,3.3,2.2,5.5s-0.8,4-2.3,5.5
	C37.4,20.8,35.6,21.6,33.4,21.6z M12.7,33.4c0.6,0,1.1-0.2,1.5-0.6c0.4-0.4,0.6-0.9,0.6-1.5s-0.2-1.1-0.6-1.5
	c-0.4-0.4-0.9-0.6-1.5-0.6s-1.1,0.2-1.5,0.6s-0.6,0.9-0.6,1.5s0.2,1.1,0.6,1.5S12.1,33.4,12.7,33.4z M27.3,33.4
	c0.6,0,1.1-0.2,1.5-0.6c0.4-0.4,0.6-0.9,0.6-1.5s-0.2-1.1-0.6-1.5s-0.9-0.6-1.5-0.6s-1.1,0.2-1.5,0.6s-0.6,0.9-0.6,1.5
	s0.2,1.1,0.6,1.5C26.2,33.2,26.7,33.4,27.3,33.4z"/>
</svg>
