<?xml version="1.0" encoding="utf-8"?>
<!-- Generator: Adobe Illustrator 26.3.1, SVG Export Plug-In . SVG Version: 6.00 Build 0)  -->
<svg version="1.1" id="Слой_1" xmlns="http://www.w3.org/2000/svg" xmlns:xlink="http://www.w3.org/1999/xlink" x="0px" y="0px"
	 viewBox="0 0 48 48" style="enable-background:new 0 0 48 48;" xml:space="preserve">
<path d="M23.2,40.1V24.4L9.5,16.5v15c0,0.2,0.1,0.4,0.2,0.6c0.1,0.2,0.3,0.3,0.5,0.5C10.2,32.5,23.2,40.1,23.2,40.1z M24.8,40.1
	l13.1-7.6c0.2-0.1,0.4-0.3,0.5-0.5s0.2-0.4,0.2-0.6v-15l-13.7,7.9v15.8H24.8z M24,23.1l13.5-7.9L24.6,7.8c-0.2-0.1-0.4-0.2-0.6-0.2
	s-0.4,0.1-0.6,0.2l-12.9,7.5L24,23.1z M9.4,33.9c-0.4-0.3-0.8-0.6-1-1c-0.3-0.5-0.4-1-0.4-1.4v-15c0-0.5,0.1-0.9,0.4-1.4
	c0.2-0.4,0.6-0.8,1-1l13.2-7.7C23.1,6.2,23.5,6,24,6s0.9,0.1,1.4,0.4l13.2,7.7c0.4,0.3,0.8,0.6,1,1S40,16,40,16.5v14.9
	c0,0.5-0.1,0.9-0.4,1.4c-0.2,0.4-0.6,0.8-1,1l-13.2,7.6c-0.5,0.2-0.9,0.4-1.4,0.4s-0.9-0.1-1.4-0.4C22.6,41.5,9.4,33.9,9.4,33.9z"/>
</svg>
