<?xml version="1.0" encoding="utf-8"?>
<!-- Generator: Adobe Illustrator 26.3.1, SVG Export Plug-In . SVG Version: 6.00 Build 0)  -->
<svg version="1.1" id="Слой_1" xmlns="http://www.w3.org/2000/svg" xmlns:xlink="http://www.w3.org/1999/xlink" x="0px" y="0px"
	 viewBox="0 0 48 48" style="enable-background:new 0 0 48 48;" xml:space="preserve">
<path d="M33.1,40c-0.2,0-0.4,0-0.5-0.1c-0.2,0-0.4-0.1-0.5-0.2l-5-2.9c-0.3-0.2-0.6-0.5-0.8-0.8c-0.2-0.3-0.3-0.7-0.3-1v-5.8
	c0-0.4,0.1-0.7,0.3-1c0.2-0.3,0.4-0.6,0.8-0.8l5-3c0.2-0.1,0.3-0.2,0.5-0.2s0.4-0.1,0.5-0.1c0.2,0,0.3,0,0.5,0.1s0.3,0.1,0.5,0.2
	l5,3c0.3,0.2,0.6,0.5,0.8,0.8s0.3,0.7,0.3,1V35c0,0.4-0.1,0.7-0.3,1s-0.5,0.6-0.8,0.8l-5,2.9c-0.2,0.1-0.3,0.2-0.5,0.2
	C33.5,39.9,33.3,40,33.1,40z M20,22.6c-1.6,0-3-0.5-4.1-1.6s-1.6-2.5-1.6-4.1c0-1.7,0.5-3,1.6-4.1s2.5-1.6,4.1-1.6s3,0.5,4.1,1.6
	s1.6,2.5,1.6,4.1c0,1.7-0.5,3-1.6,4.1S21.6,22.6,20,22.6z M6,37.1v-2.9c0-0.9,0.2-1.7,0.7-2.4c0.5-0.7,1.1-1.2,2-1.6
	c2-0.9,3.8-1.6,5.5-2s3.6-0.7,5.8-0.7h0.4c0.1,0,0.3,0,0.4,0c-0.1,0.3-0.2,0.5-0.2,0.8c0,0.2-0.1,0.5-0.1,0.8H20
	c-2.1,0-3.9,0.2-5.5,0.5c-1.6,0.4-3.3,1-5,1.9c-0.7,0.4-1.2,0.8-1.5,1.2c-0.3,0.4-0.4,0.9-0.4,1.4v1.4h13c0.1,0.3,0.1,0.5,0.3,0.8
	c0.1,0.3,0.2,0.5,0.4,0.7C21.1,37.1,6,37.1,6,37.1z M20,21.1c1.2,0,2.2-0.4,3-1.2c0.8-0.8,1.2-1.8,1.2-3s-0.4-2.2-1.2-3
	c-0.8-0.8-1.8-1.2-3-1.2s-2.2,0.4-3,1.2s-1.2,1.8-1.2,3s0.4,2.2,1.2,3C17.8,20.7,18.8,21.1,20,21.1z M28.5,28.2l4.6,2.7l4.6-2.7
	l-4.6-2.6L28.5,28.2z M33.9,38l4.8-2.7v-5.8l-4.8,2.9V38z M27.5,35.3l4.8,2.8v-5.7l-4.8-2.9V35.3z"/>
</svg>
