<?xml version="1.0" encoding="utf-8"?>
<!-- Generator: Adobe Illustrator 26.3.1, SVG Export Plug-In . SVG Version: 6.00 Build 0)  -->
<svg version="1.1" id="Слой_1" xmlns="http://www.w3.org/2000/svg" xmlns:xlink="http://www.w3.org/1999/xlink" x="0px" y="0px"
	 viewBox="0 0 48 48" style="enable-background:new 0 0 48 48;" xml:space="preserve">
<path d="M23.4,7.8l-12.9,7.5L24,23.1l13.5-7.9L24.6,7.8c-0.2-0.1-0.4-0.2-0.6-0.2S23.6,7.7,23.4,7.8z M8,31.5v-15
	c0-0.5,0.1-0.9,0.4-1.4c0.2-0.4,0.6-0.8,1-1l13.2-7.7c0.2-0.1,0.5-0.2,0.7-0.3C23.5,6,23.7,6,24,6c0.2,0,0.5,0,0.7,0.1
	s0.5,0.1,0.7,0.3l13.2,7.7c0.5,0.3,0.8,0.6,1,1S40,16,40,16.5v8.1h-1.5v-8.1L24,24.9L9.5,16.5v15c0,0.2,0.1,0.4,0.2,0.6
	c0.1,0.2,0.3,0.3,0.5,0.5l14,8.1v1.7L9.4,33.9c-0.5-0.3-0.8-0.6-1-1C8.1,32.4,8,31.9,8,31.5z M36.2,43.1c0.3,0,0.5-0.1,0.7-0.3
	s0.3-0.4,0.3-0.7s-0.1-0.5-0.3-0.7s-0.4-0.3-0.7-0.3s-0.5,0.1-0.7,0.3s-0.3,0.4-0.3,0.7s0.1,0.5,0.3,0.7S36,43.1,36.2,43.1z
	 M35.5,39.3H37v-6.9h-1.5C35.5,32.3,35.5,39.3,35.5,39.3z M36.2,45.5c-2.1,0-4-0.8-5.5-2.3s-2.3-3.3-2.3-5.5c0-2.1,0.8-4,2.3-5.5
	s3.4-2.3,5.5-2.3s4,0.8,5.5,2.3s2.3,3.3,2.3,5.5s-0.8,4-2.3,5.5C40.2,44.8,38.4,45.5,36.2,45.5z"/>
</svg>
