<?xml version="1.0" encoding="utf-8"?>
<!-- Generator: Adobe Illustrator 26.3.1, SVG Export Plug-In . SVG Version: 6.00 Build 0)  -->
<svg version="1.1" id="Слой_1" xmlns="http://www.w3.org/2000/svg" xmlns:xlink="http://www.w3.org/1999/xlink" x="0px" y="0px"
	 viewBox="0 0 48 48" style="enable-background:new 0 0 48 48;" xml:space="preserve">
<path d="M6,40V24.8c0-0.8,0.3-1.4,0.8-2C7.4,22.3,8,22,8.8,22H19v2c0,1.4,0.5,2.6,1.5,3.5c1,1,2.2,1.5,3.5,1.5
	c1.4,0,2.6-0.5,3.5-1.5c1-1,1.5-2.2,1.5-3.5v-2h10.2c0.7,0,1.4,0.3,1.9,0.8c0.6,0.6,0.8,1.2,0.8,1.9V40H6z M7.5,38.5h32.9V24.8
	c0-0.4-0.1-0.7-0.3-0.9c-0.2-0.2-0.5-0.3-0.9-0.3h-8.7V24c0,1.8-0.6,3.3-1.9,4.6c-1.3,1.3-2.8,1.9-4.6,1.9c-1.8,0-3.3-0.6-4.6-1.9
	c-1.3-1.3-1.9-2.8-1.9-4.6v-0.5H8.8c-0.4,0-0.7,0.1-0.9,0.3c-0.2,0.2-0.3,0.5-0.3,0.9C7.5,24.8,7.5,38.5,7.5,38.5z M24,24.5
	c-0.2,0-0.4-0.1-0.5-0.2s-0.2-0.3-0.2-0.5c0-3.5,0.4-6.8,1.2-10.2s2.5-6.1,5-8.4C29.6,5.1,29.8,5,30,5s0.4,0.1,0.5,0.3
	c0.1,0.2,0.2,0.4,0.2,0.6s-0.1,0.4-0.3,0.5c-2.5,2.1-4,4.6-4.7,7.8c-0.7,3.1-1,6.3-1,9.6c0,0.2-0.1,0.4-0.2,0.5
	C24.4,24.5,24.2,24.5,24,24.5z M11.5,30.8c0.4,0,0.7-0.1,1-0.4s0.4-0.6,0.4-1s-0.1-0.7-0.4-1c-0.3-0.3-0.6-0.4-1-0.4s-0.7,0.1-1,0.4
	s-0.4,0.6-0.4,1s0.1,0.7,0.4,1C10.8,30.7,11.1,30.8,11.5,30.8z M13.5,35.8c0.4,0,0.7-0.1,1-0.4c0.3-0.3,0.4-0.6,0.4-1
	s-0.1-0.7-0.4-1c-0.3-0.3-0.6-0.4-1-0.4s-0.7,0.1-1,0.4c-0.3,0.3-0.4,0.6-0.4,1s0.1,0.7,0.4,1C12.8,35.7,13.1,35.8,13.5,35.8z
	 M36.5,30.8c0.4,0,0.7-0.1,1-0.4s0.4-0.6,0.4-1s-0.1-0.7-0.4-1c-0.3-0.3-0.6-0.4-1-0.4s-0.7,0.1-1,0.4s-0.4,0.6-0.4,1s0.1,0.7,0.4,1
	C35.8,30.7,36.1,30.8,36.5,30.8z M7.5,38.5h32.9H7.5z"/>
</svg>
