<?xml version="1.0" encoding="utf-8"?>
<!-- Generator: Adobe Illustrator 26.3.1, SVG Export Plug-In . SVG Version: 6.00 Build 0)  -->
<svg version="1.1" id="Слой_1" xmlns="http://www.w3.org/2000/svg" xmlns:xlink="http://www.w3.org/1999/xlink" x="0px" y="0px"
	 viewBox="0 0 48 48" style="enable-background:new 0 0 48 48;" xml:space="preserve">
<path d="M40.9,43.1L30.2,32.5H15.5V17.8L5.1,7.3l1.1-1.1L42,42L40.9,43.1z M17.1,30.9h11.6L17.1,19.3V30.9z M32.5,27.6L31,26v-9h-9
	l-1.5-1.5h12.1C32.5,15.5,32.5,27.6,32.5,27.6z M10,38v2c-0.5,0-1-0.2-1.4-0.6C8.2,39,8,38.5,8,38H10z M8,32.5v-2h2v2H8z M8,25v-2h2
	v2H8z M8,17.5v-2h2v2H8z M15.5,40v-2h2v2H15.5z M15.5,10V8h2v2H15.5z M23,40v-2h2v2H23z M23,10V8h2v2H23z M30.5,40v-2h2v2H30.5z
	 M30.5,10V8h2v2H30.5z M38,32.5v-2h2v2H38z M38,25v-2h2v2H38z M38,17.5v-2h2v2H38z M38,10V8c0.5,0,1,0.2,1.4,0.6
	C39.8,9,40,9.5,40,10H38z"/>
</svg>
