<?xml version="1.0" encoding="utf-8"?>
<!-- Generator: Adobe Illustrator 26.3.1, SVG Export Plug-In . SVG Version: 6.00 Build 0)  -->
<svg version="1.1" id="Слой_1" xmlns="http://www.w3.org/2000/svg" xmlns:xlink="http://www.w3.org/1999/xlink" x="0px" y="0px"
	 viewBox="0 0 48 48" style="enable-background:new 0 0 48 48;" xml:space="preserve">
<path d="M18.4,23.7l4.7-4.7l-4.6-4.6L16,17l-1.1-1.1l2.4-2.4l-4.6-4.6L8,13.6L18.4,23.7z M34.4,39.8l4.7-4.7l-4.6-4.6L32.1,33
	L31,31.9l2.4-2.4L28.9,25l-4.7,4.7C24.3,29.6,34.4,39.8,34.4,39.8z M34.7,9.5l3.8,3.8L34.7,9.5z M14,40H8v-6l9.2-9.2L6,13.5l6.7-6.8
	L24.1,18l9.6-9.6c0.2-0.2,0.4-0.3,0.5-0.4c0.2,0,0.4,0,0.6,0s0.4,0,0.6,0.1c0.2,0.1,0.4,0.2,0.5,0.4l3.7,3.8
	c0.2,0.2,0.3,0.4,0.3,0.5C40,13,40,13.2,40,13.4c0,0.2,0,0.4-0.1,0.6c-0.1,0.2-0.2,0.3-0.3,0.5L30.1,24l11.2,11.3L34.5,42L23.2,30.8
	L14,40z M9.5,38.5h3.8L33,18.8L29.2,15L9.5,34.7V38.5z M31.1,16.9L29.2,15l3.8,3.8L31.1,16.9z"/>
</svg>
