<?xml version="1.0" encoding="utf-8"?>
<!-- Generator: Adobe Illustrator 26.3.1, SVG Export Plug-In . SVG Version: 6.00 Build 0)  -->
<svg version="1.1" id="Слой_1" xmlns="http://www.w3.org/2000/svg" xmlns:xlink="http://www.w3.org/1999/xlink" x="0px" y="0px"
	 viewBox="0 0 48 48" style="enable-background:new 0 0 48 48;" xml:space="preserve">
<path d="M14.2,30.7h13c1.1,0,1.9-0.4,2.7-1.1c0.7-0.7,1.1-1.6,1.1-2.7c0-1-0.4-1.9-1.1-2.7c-0.8-0.7-1.7-1.1-2.7-1.1h-0.8v-0.4
	c-0.1-1.6-0.7-2.9-1.9-4c-1.2-1-2.6-1.6-4.3-1.6c-1.1,0-2.1,0.3-3.1,0.9c-0.9,0.6-1.6,1.4-2.1,2.5l-0.3,0.6H14
	c-1.3,0.1-2.3,0.6-3.2,1.5s-1.3,2-1.3,3.3s0.5,2.5,1.4,3.4C11.8,30.2,12.9,30.7,14.2,30.7z M14.2,29.1c-0.9,0-1.7-0.3-2.3-0.9
	S11,26.8,11,25.9s0.3-1.7,0.9-2.3c0.6-0.6,1.4-1,2.3-1h1.3v0.1c0.2-1.2,0.7-2.1,1.6-2.9s1.9-1.2,3.1-1.2c1.3,0,2.4,0.5,3.4,1.4
	c0.9,0.9,1.4,2,1.4,3.3v1.3h2.3c0.6,0,1.1,0.2,1.6,0.7c0.4,0.4,0.7,1,0.7,1.6s-0.2,1.2-0.7,1.6c-0.4,0.4-1,0.6-1.6,0.6
	C27.3,29.1,14.2,29.1,14.2,29.1z M15.6,44v-1.5h2.9v-6.2H6.8c-0.8,0-1.4-0.3-2-0.8C4.3,35,4,34.3,4,33.5V14.3c0-0.8,0.3-1.4,0.8-2
	c0.5-0.5,1.2-0.8,2-0.8h26.9c0.8,0,1.4,0.3,2,0.8c0.5,0.5,0.8,1.2,0.8,2v19.2c0,0.8-0.3,1.4-0.8,2c-0.5,0.5-1.2,0.8-2,0.8H21.9v6.2
	h2.9V44H15.6z M42.5,26.7V6.8c0-0.4-0.1-0.7-0.3-0.9c-0.2-0.2-0.5-0.3-0.9-0.3H11.7V4h29.5c0.8,0,1.4,0.3,2,0.8
	C43.7,5.3,44,6,44,6.8v19.9H42.5z M6.8,34.8h26.9c0.4,0,0.7-0.1,0.9-0.4c0.2-0.2,0.3-0.5,0.3-0.9V14.3c0-0.4-0.1-0.7-0.3-0.9
	s-0.5-0.3-0.9-0.3H6.8c-0.4,0-0.7,0.1-0.9,0.3c-0.2,0.2-0.3,0.5-0.3,0.9v19.3c0,0.3,0.1,0.6,0.3,0.9C6.1,34.7,6.4,34.8,6.8,34.8z"/>
</svg>
