<?xml version="1.0" encoding="utf-8"?>
<!-- Generator: Adobe Illustrator 26.3.1, SVG Export Plug-In . SVG Version: 6.00 Build 0)  -->
<svg version="1.1" id="Слой_1" xmlns="http://www.w3.org/2000/svg" xmlns:xlink="http://www.w3.org/1999/xlink" x="0px" y="0px"
	 viewBox="0 0 48 48" style="enable-background:new 0 0 48 48;" xml:space="preserve">
<path d="M18,27.8h13c1.1,0,1.9-0.4,2.7-1.1c0.7-0.7,1.1-1.6,1.1-2.7s-0.4-1.9-1.1-2.7C33,20.6,32,20.2,31,20.2h-0.8v-0.5
	c-0.1-1.5-0.7-2.9-1.9-3.9c-1.2-1.1-2.6-1.6-4.3-1.6c-1.1,0-2.2,0.3-3.1,0.9c-0.9,0.6-1.6,1.4-2.1,2.4l-0.3,0.7l-0.7,0.1
	c-1.3,0.1-2.3,0.5-3.2,1.5c-0.9,0.9-1.3,2-1.3,3.3s0.5,2.4,1.4,3.4C15.6,27.3,16.7,27.8,18,27.8z M18,26.2c-0.9,0-1.7-0.3-2.3-0.9
	c-0.6-0.6-0.9-1.4-0.9-2.3s0.3-1.7,0.9-2.3c0.6-0.6,1.4-0.9,2.3-0.9h1.3v0.1c0.2-1.2,0.7-2.2,1.6-2.9c0.9-0.8,1.9-1.2,3.1-1.2
	c1.3,0,2.4,0.5,3.4,1.4c0.9,0.9,1.4,2,1.4,3.3v1.3H31c0.6,0,1.1,0.2,1.6,0.7c0.4,0.4,0.7,1,0.7,1.6s-0.2,1.1-0.7,1.6
	c-0.4,0.4-1,0.7-1.6,0.7H18V26.2z M18.3,40v-1.5h4.1V34H8.8c-0.8,0-1.4-0.3-2-0.8C6.3,32.7,6,32,6,31.2V10.8c0-0.8,0.3-1.4,0.8-2
	C7.3,8.3,8,8,8.8,8h30.5c0.8,0,1.4,0.3,2,0.8c0.5,0.5,0.8,1.2,0.8,2v20.5c0,0.8-0.3,1.4-0.8,2c-0.5,0.5-1.2,0.8-2,0.8H25.5v4.5h4.1
	V40H18.3z M8.8,32.5h30.5c0.3,0,0.6-0.1,0.8-0.4c0.3-0.3,0.4-0.5,0.4-0.8V10.8c0-0.3-0.1-0.6-0.4-0.8c-0.3-0.3-0.5-0.4-0.8-0.4H8.8
	C8.5,9.6,8.2,9.7,8,10c-0.3,0.3-0.4,0.5-0.4,0.8v20.5c0,0.3,0.1,0.6,0.4,0.8C8.2,32.3,8.5,32.5,8.8,32.5z M7.5,32.5v-23V32.5z"/>
</svg>
