<?xml version="1.0" encoding="utf-8"?>
<!-- Generator: Adobe Illustrator 26.3.1, SVG Export Plug-In . SVG Version: 6.00 Build 0)  -->
<svg version="1.1" id="Слой_1" xmlns="http://www.w3.org/2000/svg" xmlns:xlink="http://www.w3.org/1999/xlink" x="0px" y="0px"
	 viewBox="0 0 48 48" style="enable-background:new 0 0 48 48;" xml:space="preserve">
<path d="M9.2,7.9l1.6,1.6h-2C8.5,9.5,8.2,9.6,8,9.9c-0.3,0.3-0.4,0.5-0.4,0.8v20.5c0,0.4,0.1,0.7,0.3,0.9s0.5,0.3,0.9,0.3h22.7
	L3.6,4.5l1.1-1.1L42,40.7l-1.2,1.1L33,34h-7.5v4.5h4.1V40H18.3v-1.5h4.1V34H8.8c-0.8,0-1.4-0.3-2-0.8C6.3,32.7,6,32,6,31.2V10.8
	c0-0.7,0.3-1.4,0.8-2S8.1,7.9,9.2,7.9z M40.1,33.8l-1.3-1.3h0.7c0.3-0.1,0.5-0.2,0.7-0.4s0.3-0.5,0.3-0.8V10.8
	c0-0.4-0.1-0.7-0.3-0.9s-0.5-0.3-0.9-0.3H15.8L14.2,8h25c0.8,0,1.4,0.3,2,0.8c0.5,0.5,0.8,1.2,0.8,2v20.5c0,0.6-0.2,1.2-0.6,1.7
	C41.1,33.4,40.6,33.7,40.1,33.8z"/>
</svg>
