<?xml version="1.0" encoding="utf-8"?>
<!-- Generator: Adobe Illustrator 26.3.1, SVG Export Plug-In . SVG Version: 6.00 Build 0)  -->
<svg version="1.1" id="Слой_1" xmlns="http://www.w3.org/2000/svg" xmlns:xlink="http://www.w3.org/1999/xlink" x="0px" y="0px"
	 viewBox="0 0 48 48" style="enable-background:new 0 0 48 48;" xml:space="preserve">
<path d="M10.8,40.5c-0.8,0-1.4-0.3-2-0.8S8,38.4,8,37.7v-7.3c0-0.8,0.3-1.4,0.8-2s1.2-0.8,2-0.8h26.5c0.8,0,1.4,0.3,2,0.8
	c0.5,0.5,0.8,1.2,0.8,2v7.3c0,0.8-0.3,1.4-0.8,2c-0.5,0.5-1.2,0.8-2,0.8C37.2,40.5,10.8,40.5,10.8,40.5z M10.8,38.9h26.5
	c0.4,0,0.7-0.1,0.9-0.3s0.3-0.5,0.3-0.9v-7.3c0-0.4-0.1-0.7-0.3-0.9c-0.2-0.2-0.5-0.3-0.9-0.3H10.8c-0.4,0-0.7,0.1-0.9,0.3
	c-0.2,0.2-0.3,0.5-0.3,0.9v7.3c0,0.4,0.1,0.7,0.3,0.9C10.1,38.8,10.4,38.9,10.8,38.9z M13.1,24.6l-7-4.1l10.3-1.8L13.6,8.6l8.6,6.2
	l5.2-9.2L29.2,16l10.1-2.8l-6.1,8.6l5,2.8H35l-4-2.4l4.4-6.3l-7.5,1.9l-1.3-7.6l-4,6.8l-6.4-4.6l2.1,7.6l-7.7,1.3l5.4,3.2
	C16.1,24.6,13.1,24.6,13.1,24.6z"/>
</svg>
