<?xml version="1.0" encoding="utf-8"?>
<!-- Generator: Adobe Illustrator 26.3.1, SVG Export Plug-In . SVG Version: 6.00 Build 0)  -->
<svg version="1.1" id="Слой_1" xmlns="http://www.w3.org/2000/svg" xmlns:xlink="http://www.w3.org/1999/xlink" x="0px" y="0px"
	 viewBox="0 0 48 48" style="enable-background:new 0 0 48 48;" xml:space="preserve">
<path d="M16.9,27.6c-0.5,0-0.9-0.2-1.3-0.5c-0.3-0.3-0.5-0.8-0.5-1.2c0-0.5,0.2-0.9,0.5-1.3c0.3-0.3,0.8-0.5,1.3-0.5
	s0.9,0.2,1.3,0.5c0.3,0.3,0.5,0.8,0.5,1.3s-0.2,0.9-0.5,1.3C17.8,27.4,17.4,27.6,16.9,27.6z M24.1,33.8c-0.5,0-0.9-0.2-1.3-0.5
	c-0.3-0.3-0.5-0.8-0.5-1.2c0-0.5,0.2-0.9,0.5-1.3c0.3-0.3,0.8-0.5,1.3-0.5s0.9,0.2,1.3,0.5c0.3,0.3,0.5,0.8,0.5,1.3
	s-0.2,0.9-0.5,1.3C25,33.6,24.6,33.8,24.1,33.8z M17,40c-0.5,0-0.9-0.2-1.3-0.5c-0.3-0.3-0.5-0.8-0.5-1.2c0-0.5,0.2-0.9,0.5-1.3
	c0.3-0.3,0.8-0.5,1.3-0.5s0.9,0.2,1.3,0.5c0.3,0.3,0.5,0.8,0.5,1.2c0,0.5-0.2,0.9-0.5,1.3C17.9,39.9,17.5,40,17,40z M31.1,27.6
	c-0.5,0-0.9-0.2-1.3-0.5c-0.3-0.3-0.5-0.8-0.5-1.2c0-0.5,0.2-0.9,0.5-1.3c0.3-0.3,0.8-0.5,1.3-0.5s0.9,0.2,1.3,0.5
	c0.3,0.3,0.5,0.8,0.5,1.3s-0.2,0.9-0.5,1.3C32.1,27.4,31.6,27.6,31.1,27.6z M31.1,40c-0.5,0-0.9-0.2-1.3-0.5
	c-0.3-0.3-0.5-0.8-0.5-1.2c0-0.5,0.2-0.9,0.5-1.3c0.3-0.3,0.7-0.5,1.3-0.5c0.5,0,0.9,0.2,1.3,0.5c0.3,0.3,0.5,0.8,0.5,1.2
	c0,0.5-0.2,0.9-0.5,1.3C32,39.9,31.6,40,31.1,40z M38.3,33.8c-0.5,0-0.9-0.2-1.3-0.5c-0.3-0.3-0.5-0.8-0.5-1.2s0.2-0.9,0.5-1.3
	c0.3-0.3,0.8-0.5,1.2-0.5c0.5,0,0.9,0.2,1.3,0.5c0.3,0.3,0.5,0.8,0.5,1.2c0,0.5-0.2,0.9-0.5,1.3C39.2,33.6,38.8,33.8,38.3,33.8z
	 M9.8,33.8c-0.5,0-0.9-0.2-1.3-0.5S8,32.5,8,32s0.2-0.9,0.5-1.3c0.3-0.3,0.8-0.5,1.3-0.5s0.9,0.2,1.3,0.5c0.3,0.3,0.5,0.8,0.5,1.3
	s-0.2,0.9-0.5,1.3C10.7,33.6,10.3,33.8,9.8,33.8z M16.8,20.2c-0.6,0-1.1-0.2-1.6-0.5s-0.8-0.8-1-1.3l-1.3-3.7h-2.1
	c-0.7,0-1.4-0.3-1.9-0.8C8.3,13.2,8,12.6,8,11.8V7.5h32v4.3c0,0.8-0.3,1.4-0.8,1.9c-0.6,0.5-1.2,0.8-1.9,0.8h-2.1l-1.4,3.7
	c-0.2,0.5-0.6,1-1,1.3c-0.5,0.3-1,0.5-1.6,0.5C31.1,20.2,16.8,20.2,16.8,20.2z M9.5,9.1v2.8c0,0.4,0.1,0.7,0.3,0.9s0.5,0.3,0.9,0.3
	h26.5c0.4,0,0.7-0.1,0.9-0.3s0.3-0.5,0.3-0.9V9.1H9.5z M14.5,14.6l1.1,3.2c0.1,0.3,0.3,0.5,0.5,0.6c0.2,0.1,0.4,0.2,0.7,0.2h14.4
	c0.3,0,0.5-0.1,0.7-0.2s0.4-0.3,0.5-0.6l1.1-3.2C33.5,14.6,14.5,14.6,14.5,14.6z M9.5,9.1v4V9.1z"/>
</svg>
