<?xml version="1.0" encoding="utf-8"?>
<!-- Generator: Adobe Illustrator 26.3.1, SVG Export Plug-In . SVG Version: 6.00 Build 0)  -->
<svg version="1.1" id="Слой_1" xmlns="http://www.w3.org/2000/svg" xmlns:xlink="http://www.w3.org/1999/xlink" x="0px" y="0px"
	 viewBox="0 0 48 48" style="enable-background:new 0 0 48 48;" xml:space="preserve">
<path d="M25.2,42.3l-1.5-0.4l0.5-1.4c0.3-0.9,0.4-1.9,0.2-2.9c-0.1-1-0.5-1.9-1-2.8c-0.7-1.1-1.2-2.3-1.4-3.4
	c-0.2-1.2-0.1-2.4,0.3-3.7l0.4-1.4l1.5,0.4l-0.5,1.4c-0.3,1-0.4,2-0.3,2.9c0.1,1,0.5,1.9,1,2.7c0.7,1.2,1.2,2.3,1.4,3.5
	c0.2,1.2,0.1,2.4-0.3,3.7C25.6,40.9,25.2,42.3,25.2,42.3z M17.4,42.3l-1.5-0.4l0.5-1.4c0.3-0.9,0.4-1.9,0.2-2.9s-0.5-2-1.1-2.8
	c-0.7-1-1.2-2.2-1.4-3.4c-0.2-1.2,0-2.5,0.4-3.7l0.4-1.4l1.5,0.4L16,28.1c-0.3,1-0.4,2-0.3,3c0.1,1,0.5,1.9,1.1,2.7
	c0.7,1.1,1.2,2.3,1.3,3.5c0.1,1.2,0,2.4-0.3,3.6C17.8,40.9,17.4,42.3,17.4,42.3z M32.8,42.3l-1.5-0.4l0.5-1.4
	c0.3-0.9,0.4-1.9,0.2-2.9c-0.1-1.1-0.5-2-1-2.8c-0.7-1-1.2-2.2-1.3-3.4c-0.1-1.2,0-2.5,0.4-3.7l0.4-1.4l1.5,0.4l-0.5,1.4
	c-0.3,1-0.4,2-0.3,3s0.5,1.9,1.1,2.7c0.7,1.2,1.2,2.3,1.3,3.5s0.1,2.4-0.3,3.7C33.2,40.9,32.8,42.3,32.8,42.3z M9.5,9.5v2.8
	c0,0.4,0.1,0.7,0.3,0.9s0.5,0.3,0.9,0.3h26.5c0.4,0,0.7-0.1,0.9-0.3s0.3-0.5,0.3-0.9V9.5C38.5,9.5,9.5,9.5,9.5,9.5z M14.5,15.1
	l1.1,3.2c0.1,0.3,0.3,0.5,0.5,0.6c0.2,0.1,0.4,0.2,0.7,0.2h14.4c0.3,0,0.5-0.1,0.7-0.2s0.4-0.3,0.5-0.6l1.1-3.2
	C33.5,15.1,14.5,15.1,14.5,15.1z M16.8,20.6c-0.6,0-1.1-0.2-1.6-0.5s-0.8-0.8-1-1.3l-1.3-3.7h-2.1c-0.8,0-1.4-0.3-2-0.8
	c-0.5-0.5-0.8-1.2-0.8-2V8h32v4.3c0,0.8-0.3,1.4-0.8,2c-0.5,0.5-1.2,0.8-2,0.8h-2.1l-1.4,3.7c-0.2,0.5-0.6,0.9-1,1.3
	c-0.5,0.3-1,0.5-1.6,0.5H16.8z M9.5,9.5v4V9.5z"/>
</svg>
