<?xml version="1.0" encoding="utf-8"?>
<!-- Generator: Adobe Illustrator 26.3.1, SVG Export Plug-In . SVG Version: 6.00 Build 0)  -->
<svg version="1.1" id="Слой_1" xmlns="http://www.w3.org/2000/svg" xmlns:xlink="http://www.w3.org/1999/xlink" x="0px" y="0px"
	 viewBox="0 0 48 48" style="enable-background:new 0 0 48 48;" xml:space="preserve">
<path d="M43.2,44.1L4.4,5.3l1.1-1.1L44.3,43L43.2,44.1z M14.3,8h21.4c0.8,0,1.4,0.3,2,0.8c0.5,0.5,0.8,1.2,0.8,2v3.8h2.6v1.5h-2.6
	v6.4h2.6V24h-2.6v6.4h2.6V32h-2.7l-1.5-1.5V10.8c0-0.3-0.1-0.6-0.4-0.8c-0.3-0.3-0.5-0.4-0.8-0.4H15.9L14.3,8z M22.5,16.7l-2.1-2.1
	h2.1V16.7z M25.6,19.2l-0.7-0.7v-4h6.9v4.6h-6.2V19.2z M31.8,26.1l-4.4-4.4h4.4V26.1z M13.1,33.4v-7h9.5v7H13.1z M9.2,8l1.6,1.6h-1
	c-0.5,0-0.9,0.1-1.2,0.4c-0.3,0.2-0.4,0.5-0.4,0.9v26.5c0,0.3,0.1,0.6,0.4,0.8c0.3,0.3,0.5,0.4,0.8,0.4h26.2c0.4,0,0.7-0.2,0.9-0.5
	s0.3-0.7,0.3-1.1v-1.2l1.5,1.5c-0.1,0.8-0.4,1.4-0.9,2c-0.4,0.4-1,0.7-1.7,0.7H9.5c-0.8,0-1.4-0.3-2-0.8c-0.5-0.5-0.8-1.2-0.8-2
	V10.8c0-0.7,0.2-1.3,0.7-1.8C7.8,8.4,8.5,8.1,9.2,8z M24.9,23.7l6.9,6.9v2.8h-6.9V23.7z M15.9,14.6l6.7,6.7v2.6h-9.5v-9.2L15.9,14.6
	L15.9,14.6z"/>
</svg>
