<?xml version="1.0" encoding="utf-8"?>
<!-- Generator: Adobe Illustrator 26.3.1, SVG Export Plug-In . SVG Version: 6.00 Build 0)  -->
<svg version="1.1" id="Слой_1" xmlns="http://www.w3.org/2000/svg" xmlns:xlink="http://www.w3.org/1999/xlink" x="0px" y="0px"
	 viewBox="0 0 48 48" style="enable-background:new 0 0 48 48;" xml:space="preserve">
<path d="M9.5,40c-0.8,0-1.4-0.3-2-0.8c-0.5-0.5-0.8-1.2-0.8-2V10.8c0-0.8,0.3-1.4,0.8-2C8,8.3,8.7,8,9.5,8H36c0.8,0,1.4,0.3,2,0.8
	c0.5,0.5,0.8,1.2,0.8,2v3.8h2.6v1.5h-2.6v7.1h2.6v1.5h-2.6v7.1h2.6v1.5h-2.6v3.8c0,0.8-0.3,1.4-0.8,2c-0.5,0.5-1.2,0.8-2,0.8L9.5,40
	L9.5,40z M9.5,38.5H36c0.3,0,0.6-0.1,0.8-0.4c0.3-0.3,0.4-0.5,0.4-0.8V10.8c0-0.3-0.1-0.6-0.4-0.8c-0.3-0.3-0.5-0.4-0.8-0.4H9.5
	c-0.3,0-0.6,0.1-0.8,0.4c-0.3,0.3-0.4,0.5-0.4,0.8v26.5c0,0.3,0.1,0.6,0.4,0.8C8.9,38.3,9.2,38.5,9.5,38.5z M13.3,33.4h9.3v-7h-9.3
	V33.4z M25.1,19.2H32v-4.6h-6.9V19.2z M13.3,23.8h9.3v-9.2h-9.3C13.3,14.6,13.3,23.8,13.3,23.8z M25.1,33.4H32V21.8h-6.9V33.4z
	 M8.2,9.5v28.9V9.5z"/>
</svg>
