<?xml version="1.0" encoding="utf-8"?>
<!-- Generator: Adobe Illustrator 26.3.1, SVG Export Plug-In . SVG Version: 6.00 Build 0)  -->
<svg version="1.1" id="Слой_1" xmlns="http://www.w3.org/2000/svg" xmlns:xlink="http://www.w3.org/1999/xlink" x="0px" y="0px"
	 viewBox="0 0 48 48" style="enable-background:new 0 0 48 48;" xml:space="preserve">
<path d="M17.2,31.7L9.5,24l7.7-7.7l1.1,1.1L11.7,24l6.6,6.6L17.2,31.7z M12,34.3h1.5v3.8h20.9v-3.8H36v6.9c0,0.8-0.3,1.4-0.8,2
	c-0.5,0.5-1.2,0.8-2,0.8H14.8c-0.8,0-1.4-0.3-2-0.8c-0.5-0.5-0.8-1.2-0.8-2V34.3z M13.5,13.4H12V6.8c0-0.8,0.3-1.4,0.8-2
	C13.3,4.3,14,4,14.8,4h18.5c0.8,0,1.4,0.3,2,0.8C35.7,5.3,36,6,36,6.8v6.6h-1.5V9.8h-21V13.4z M13.5,39.7v1.5c0,0.3,0.1,0.6,0.4,0.8
	c0.3,0.3,0.5,0.4,0.8,0.4h18.5c0.3,0,0.6-0.1,0.8-0.4c0.3-0.3,0.4-0.5,0.4-0.8v-1.5H13.5z M13.5,8.3h20.9V6.8c0-0.3-0.1-0.6-0.4-0.8
	c-0.3-0.3-0.5-0.4-0.8-0.4H14.8c-0.3,0-0.6,0.1-0.8,0.4c-0.3,0.3-0.4,0.5-0.4,0.8v1.5H13.5z M30.8,31.7l-1.1-1.1l6.6-6.6l-6.6-6.6
	l1.1-1.1l7.7,7.7L30.8,31.7z M13.5,8.3V5.5V8.3z M13.5,39.7v2.8V39.7z"/>
</svg>
