<?xml version="1.0" encoding="utf-8"?>
<!-- Generator: Adobe Illustrator 26.3.1, SVG Export Plug-In . SVG Version: 6.00 Build 0)  -->
<svg version="1.1" id="Слой_1" xmlns="http://www.w3.org/2000/svg" xmlns:xlink="http://www.w3.org/1999/xlink" x="0px" y="0px"
	 viewBox="0 0 48 48" style="enable-background:new 0 0 48 48;" xml:space="preserve">
<path d="M23.9,40c-4.2,0-7.9-1.4-10.9-4.3c-3-2.9-4.7-6.4-4.9-10.6h1.5c0.3,3.8,1.8,6.9,4.5,9.5s6,3.9,9.8,3.9
	c4.1,0,7.5-1.4,10.3-4.3c2.8-2.8,4.2-6.3,4.2-10.3s-1.4-7.4-4.2-10.2s-6.3-4.2-10.3-4.2c-2,0-4,0.4-5.8,1.3c-1.8,0.9-3.5,2-4.9,3.5
	H18v1.5h-7.6V8.2H12v5.1c1.6-1.6,3.4-2.9,5.4-3.9c2-0.9,4.2-1.4,6.5-1.4c2.2,0,4.3,0.4,6.2,1.2c1.9,0.8,3.6,2,5.1,3.4
	s2.6,3.1,3.5,5.1c0.8,1.9,1.3,4,1.3,6.2s-0.4,4.3-1.3,6.3c-0.8,2-2,3.7-3.5,5.1c-1.5,1.4-3.2,2.6-5.1,3.4C28.1,39.6,26.1,40,23.9,40
	z M30.6,31.6l-7.4-7.3V13.9h1.5v9.7l6.9,6.8C31.7,30.5,30.6,31.6,30.6,31.6z"/>
</svg>
