<?xml version="1.0" encoding="utf-8"?>
<!-- Generator: Adobe Illustrator 26.3.1, SVG Export Plug-In . SVG Version: 6.00 Build 0)  -->
<svg version="1.1" id="Слой_1" xmlns="http://www.w3.org/2000/svg" xmlns:xlink="http://www.w3.org/1999/xlink" x="0px" y="0px"
	 viewBox="0 0 48 48" style="enable-background:new 0 0 48 48;" xml:space="preserve">
<path d="M6,38v-2.3h4V12.8c0-0.7,0.3-1.4,0.8-1.9c0.6-0.6,1.2-0.8,1.9-0.8H40v1.5H12.8c-0.4,0-0.7,0.1-0.9,0.3s-0.3,0.5-0.3,0.9
	v22.9h11V38H6z M29,38c-0.4,0-0.7-0.1-1-0.4c-0.3-0.3-0.4-0.6-0.4-1V17.2c0-0.4,0.1-0.7,0.4-1c0.3-0.3,0.6-0.4,1-0.4h11.7
	c0.4,0,0.7,0.1,1,0.4s0.4,0.6,0.4,1v19.4c0,0.4-0.1,0.7-0.4,1c-0.3,0.3-0.6,0.4-1,0.4H29z M29.1,35.7h11.4V17.4H29.1V35.7z
	 M29.1,35.7h11.4H29.1z"/>
</svg>
