<?xml version="1.0" encoding="utf-8"?>
<!-- Generator: Adobe Illustrator 26.3.1, SVG Export Plug-In . SVG Version: 6.00 Build 0)  -->
<svg version="1.1" id="Слой_1" xmlns="http://www.w3.org/2000/svg" xmlns:xlink="http://www.w3.org/1999/xlink" x="0px" y="0px"
	 viewBox="0 0 48 48" style="enable-background:new 0 0 48 48;" xml:space="preserve">
<path d="M8,40v-7.5h6.6l8.6-8.6v-6.3c-1.1-0.3-2.1-0.8-2.9-1.7c-0.8-0.9-1.1-1.9-1.1-3c0-1.3,0.5-2.4,1.4-3.4
	c0.9-0.9,2.1-1.4,3.4-1.4s2.4,0.5,3.4,1.4c0.9,0.9,1.4,2.1,1.4,3.4c0,1.1-0.4,2.1-1.1,3c-0.8,0.9-1.7,1.5-2.9,1.7v6.3l8.6,8.6H40V40
	h-7.5v-6.2L24,25.4l-8.5,8.5V40H8z"/>
</svg>
