<?xml version="1.0" encoding="utf-8"?>
<!-- Generator: Adobe Illustrator 26.3.1, SVG Export Plug-In . SVG Version: 6.00 Build 0)  -->
<svg version="1.1" id="Слой_1" xmlns="http://www.w3.org/2000/svg" xmlns:xlink="http://www.w3.org/1999/xlink" x="0px" y="0px"
	 viewBox="0 0 48 48" style="enable-background:new 0 0 48 48;" xml:space="preserve">
<path d="M8.4,10.3h16.9V8.8c0-0.3-0.1-0.6-0.4-0.8c-0.3-0.3-0.5-0.4-0.8-0.4H9.6C9.3,7.5,9,7.7,8.8,7.9C8.5,8.2,8.4,8.5,8.4,8.8
	V10.3z M9.6,42c-0.8,0-1.4-0.3-2-0.8c-0.5-0.5-0.8-1.2-0.8-2V8.8c0-0.8,0.3-1.4,0.8-2C8.2,6.3,8.8,6,9.6,6h14.5c0.8,0,1.4,0.3,2,0.8
	c0.5,0.5,0.8,1.2,0.8,2v7.9c-0.3,0.2-0.5,0.3-0.8,0.5c-0.2,0.2-0.5,0.3-0.8,0.5v-5.8H8.4v24.3h13.5c0.2,0.3,0.4,0.6,0.6,0.8
	c0.2,0.3,0.4,0.5,0.7,0.7H8.4v1.6c0,0.3,0.1,0.6,0.4,0.8c0.3,0.3,0.5,0.4,0.8,0.4h16.2v-0.2c0.1,0,0.2,0.1,0.2,0.1
	c0.1,0.1,0.2,0.1,0.3,0.1c-0.2,0.4-0.6,0.8-1,1.1S24.4,42,23.8,42C23.9,42,9.6,42,9.6,42z M33.8,36.5c2.2,0,4-0.7,5.5-2.2
	s2.2-3.3,2.2-5.5s-0.7-4-2.2-5.5s-3.3-2.2-5.5-2.2s-4,0.7-5.5,2.2s-2.2,3.3-2.2,5.5s0.7,4,2.2,5.5C29.9,35.7,31.7,36.5,33.8,36.5z
	 M30.3,42v-4.7c-1.7-0.7-3.1-1.8-4.1-3.4c-1.1-1.5-1.6-3.2-1.6-5.2s0.5-3.7,1.6-5.2s2.4-2.6,4.1-3.4v-4.7h7.1v4.7
	c1.7,0.7,3.1,1.8,4.1,3.4c1.1,1.5,1.6,3.2,1.6,5.2s-0.5,3.7-1.6,5.2s-2.4,2.6-4.1,3.4V42H30.3z M8.4,37.7v2.8V37.7z M8.4,10.3V7.5
	V10.3z"/>
</svg>
