<?xml version="1.0" encoding="utf-8"?>
<!-- Generator: Adobe Illustrator 26.3.1, SVG Export Plug-In . SVG Version: 6.00 Build 0)  -->
<svg version="1.1" id="Слой_1" xmlns="http://www.w3.org/2000/svg" xmlns:xlink="http://www.w3.org/1999/xlink" x="0px" y="0px"
	 viewBox="0 0 48 48" style="enable-background:new 0 0 48 48;" xml:space="preserve">
<path d="M37.4,42c-1.3,0-2.3-0.4-3.2-1.3c-0.9-0.9-1.3-2-1.3-3.3c0-0.5,0.1-1,0.2-1.4c0.1-0.4,0.3-0.9,0.6-1.3L13.3,14.3
	c-0.4,0.3-0.8,0.5-1.3,0.6c-0.4,0.1-0.9,0.2-1.4,0.2c-1.3,0-2.3-0.4-3.2-1.3c-0.9-0.9-1.4-2-1.4-3.2c0-1.3,0.4-2.3,1.3-3.2
	S9.3,6,10.6,6s2.3,0.4,3.2,1.3s1.3,2,1.3,3.3c0,0.5-0.1,1-0.2,1.4c-0.1,0.5-0.3,0.9-0.6,1.2l20.4,20.4c0.4-0.3,0.8-0.5,1.2-0.6
	c0.5-0.1,0.9-0.2,1.4-0.2c1.3,0,2.4,0.4,3.3,1.3c0.9,0.9,1.3,2,1.3,3.2c0,1.3-0.4,2.4-1.3,3.3C39.8,41.5,38.7,42,37.4,42z"/>
</svg>
