<?xml version="1.0" encoding="utf-8"?>
<!-- Generator: Adobe Illustrator 26.3.1, SVG Export Plug-In . SVG Version: 6.00 Build 0)  -->
<svg version="1.1" id="Слой_1" xmlns="http://www.w3.org/2000/svg" xmlns:xlink="http://www.w3.org/1999/xlink" x="0px" y="0px"
	 viewBox="0 0 48 48" style="enable-background:new 0 0 48 48;" xml:space="preserve">
<path d="M1,45V5.8c0-0.8,0.3-1.4,0.8-2C2.4,3.3,3,3,3.8,3h14c0.7,0,1.4,0.3,1.9,0.8s0.8,1.2,0.8,1.9V45H19v-4.2H2.5V45H1z M30.9,45
	V33.7l4.4-4.2l-1.7-8.9c-1.4,2.3-2.8,3.8-4.2,4.6c-1.4,0.8-3,1.3-4.8,1.5v-1.5c1.9-0.2,3.3-0.6,4.3-1.3c1-0.7,1.9-1.7,2.7-3l2-3.3
	c0.5-0.7,1.1-1.2,1.9-1.3c0.7-0.1,1.5-0.1,2.4,0.3l9.1,3.8v7.3h-1.5v-6.3l-6.8-2.9L44.5,45H43l-4.1-15.3l-6.4,6.1V45
	C32.4,45,30.9,45,30.9,45z M2.5,39.2H19V5.8c0-0.4-0.1-0.7-0.3-0.9c-0.2-0.2-0.5-0.3-0.9-0.3h-14c-0.4,0-0.7,0.1-0.9,0.3
	C2.7,5.1,2.5,5.4,2.5,5.8V39.2z M8.1,25.4L14,22l-5.9-3.4V25.4z M34.1,13.3c-0.9,0-1.7-0.3-2.3-0.9c-0.6-0.6-0.9-1.4-0.9-2.3
	c0-0.9,0.3-1.7,0.9-2.3c0.6-0.6,1.4-0.9,2.3-0.9c0.9,0,1.7,0.3,2.3,0.9s0.9,1.4,0.9,2.3c0,0.9-0.3,1.7-0.9,2.3
	C35.7,13,35,13.3,34.1,13.3z M2.5,39.2H19H2.5z"/>
</svg>
