<?xml version="1.0" encoding="utf-8"?>
<!-- Generator: Adobe Illustrator 26.3.1, SVG Export Plug-In . SVG Version: 6.00 Build 0)  -->
<svg version="1.1" id="Слой_1" xmlns="http://www.w3.org/2000/svg" xmlns:xlink="http://www.w3.org/1999/xlink" x="0px" y="0px"
	 viewBox="0 0 48 48" style="enable-background:new 0 0 48 48;" xml:space="preserve">
<path d="M16.6,37.5h1.5V24.4c1-0.1,1.8-0.6,2.5-1.3c0.7-0.7,1-1.6,1-2.6v-7.3c0-0.2-0.1-0.4-0.2-0.6c-0.2-0.2-0.4-0.2-0.6-0.2
	s-0.4,0.1-0.6,0.2C20,12.8,20,13,20,13.2v6.9h-1.7v-6.9c0-0.2-0.1-0.4-0.2-0.6c-0.2-0.2-0.4-0.2-0.6-0.2s-0.4,0.1-0.6,0.2
	c-0.2,0.2-0.2,0.4-0.2,0.6v6.9h-1.9v-6.9c0-0.2-0.1-0.4-0.2-0.6c-0.2-0.2-0.4-0.2-0.6-0.2c-0.2,0-0.4,0.1-0.6,0.2
	c-0.2,0.2-0.2,0.4-0.2,0.6v7.3c0,1,0.3,1.9,1,2.6s1.5,1.1,2.5,1.3C16.6,24.4,16.6,37.5,16.6,37.5z M28.9,37.5h1.5V24.8
	c1.1-0.3,2-1,2.7-2.2c0.7-1.1,1-2.4,1-4c0-1.8-0.4-3.2-1.3-4.4c-0.8-1.2-1.9-1.7-3.1-1.7s-2.2,0.6-3.1,1.7c-0.8,1.2-1.2,2.6-1.2,4.4
	c0,1.6,0.3,2.9,0.9,4s1.5,1.8,2.5,2.1C28.9,24.8,28.9,37.5,28.9,37.5z M8.8,42c-0.8,0-1.4-0.3-2-0.8C6.3,40.7,6,40,6,39.2V8.8
	c0-0.8,0.3-1.4,0.8-2C7.3,6.3,8,6,8.8,6h30.5c0.8,0,1.4,0.3,2,0.8C41.7,7.3,42,8,42,8.8v30.5c0,0.8-0.3,1.4-0.8,2
	c-0.5,0.5-1.2,0.8-2,0.8L8.8,42L8.8,42z M8.8,40.5h30.5c0.3,0,0.6-0.1,0.8-0.4c0.3-0.3,0.4-0.5,0.4-0.8V8.8c0-0.3-0.1-0.6-0.4-0.8
	c-0.3-0.3-0.5-0.4-0.8-0.4H8.8C8.5,7.6,8.2,7.7,8,8C7.7,8.2,7.5,8.5,7.5,8.8v30.5c0,0.3,0.1,0.6,0.4,0.8C8.2,40.3,8.5,40.5,8.8,40.5
	z M7.5,40.5v-33V40.5z"/>
</svg>
