<?xml version="1.0" encoding="utf-8"?>
<!-- Generator: Adobe Illustrator 26.3.1, SVG Export Plug-In . SVG Version: 6.00 Build 0)  -->
<svg version="1.1" id="Слой_1" xmlns="http://www.w3.org/2000/svg" xmlns:xlink="http://www.w3.org/1999/xlink" x="0px" y="0px"
	 viewBox="0 0 48 48" style="enable-background:new 0 0 48 48;" xml:space="preserve">
<path d="M14.3,40c-0.2,0-0.4-0.1-0.6-0.2c-0.2-0.1-0.3-0.3-0.3-0.5v-3.9c-0.8-0.2-1.6-0.8-2.3-1.8S10,31.4,10,30.2V11.6
	c0-1.9,1.1-3.4,3.4-4.3C15.6,6.4,19.2,6,24,6c4.9,0,8.5,0.4,10.7,1.3S38,9.6,38,11.6v18.6c0,1.3-0.4,2.4-1.1,3.4
	c-0.7,1-1.5,1.6-2.3,1.8v3.9c0,0.2-0.1,0.4-0.3,0.5S33.9,40,33.7,40l0,0c-0.3,0-0.5-0.1-0.6-0.2c-0.2-0.1-0.3-0.3-0.3-0.5v-3.4H15.1
	v3.4c0,0.2-0.1,0.4-0.3,0.5C14.7,39.9,14.5,40,14.3,40C14.2,40,14.3,40,14.3,40z M24,11h12.6H11.3H24z M32.4,24.2H11.5h24.9H32.4z
	 M11.5,22.7h24.9V12.5H11.5V22.7z M16.7,31.4c0.6,0,1.1-0.2,1.5-0.6s0.6-0.9,0.6-1.5s-0.2-1.1-0.6-1.5s-0.9-0.6-1.5-0.6
	s-1.1,0.2-1.5,0.6s-0.6,0.9-0.6,1.5s0.2,1.1,0.6,1.5C15.6,31.2,16.1,31.4,16.7,31.4z M31.3,31.4c0.6,0,1.1-0.2,1.5-0.6
	s0.6-0.9,0.6-1.5s-0.2-1.1-0.6-1.5c-0.4-0.4-0.9-0.6-1.5-0.6s-1.1,0.2-1.5,0.6s-0.6,0.9-0.6,1.5s0.2,1.1,0.6,1.5
	C30.2,31.2,30.7,31.4,31.3,31.4z M11.3,11h25.3c-0.5-1.2-1.8-2-3.9-2.6s-5-0.8-8.8-0.8c-4.1,0-7.1,0.3-9.1,0.8S11.7,9.8,11.3,11z
	 M15.6,34.4h16.8c1.1,0,2.1-0.4,2.9-1.3c0.8-0.8,1.2-1.8,1.2-2.9v-6h-25v6c0,1.1,0.4,2.1,1.2,2.9C13.5,34,14.5,34.4,15.6,34.4z"/>
</svg>
