<?xml version="1.0" encoding="utf-8"?>
<!-- Generator: Adobe Illustrator 26.3.1, SVG Export Plug-In . SVG Version: 6.00 Build 0)  -->
<svg version="1.1" id="Слой_1" xmlns="http://www.w3.org/2000/svg" xmlns:xlink="http://www.w3.org/1999/xlink" x="0px" y="0px"
	 viewBox="0 0 48 48" style="enable-background:new 0 0 48 48;" xml:space="preserve">
<path d="M27.4,45V33.7l-6.4-6l-2.2,9.8L7.2,35.1l0.3-1.4l9.8,2l3.9-20.2l-6.5,2.9v6.4h-1.5v-7.5l8.1-3.3c0.8-0.3,1.4-0.6,1.7-0.7
	c0.4-0.1,0.7-0.2,1.1-0.2c0.5,0,0.9,0.1,1.4,0.4c0.4,0.2,0.8,0.6,1.1,1l2.1,3.3c0.8,1.3,2,2.5,3.5,3.6c1.5,1,3.2,1.6,5,1.8v1.5
	c-1.9-0.1-3.7-0.7-5.5-1.8c-1.8-1.1-3.4-2.9-4.9-5.4l-2.1,9.9l4.5,4.3V45C28.9,45,27.4,45,27.4,45z M27,10.1c-0.9,0-1.7-0.3-2.3-0.9
	c-0.6-0.6-0.9-1.4-0.9-2.3s0.3-1.7,0.9-2.3s1.4-0.9,2.3-0.9s1.7,0.3,2.3,0.9c0.6,0.6,0.9,1.4,0.9,2.3s-0.3,1.7-0.9,2.3
	C28.7,9.8,27.9,10.1,27,10.1z"/>
</svg>
