<?xml version="1.0" encoding="utf-8"?>
<!-- Generator: Adobe Illustrator 26.3.1, SVG Export Plug-In . SVG Version: 6.00 Build 0)  -->
<svg version="1.1" id="Слой_1" xmlns="http://www.w3.org/2000/svg" xmlns:xlink="http://www.w3.org/1999/xlink" x="0px" y="0px"
	 viewBox="0 0 48 48" style="enable-background:new 0 0 48 48;" xml:space="preserve">
<path d="M12.8,38.9V38l3-2c-1.6,0-3-0.6-4.1-1.7c-1.1-1.1-1.7-2.5-1.7-4.1V12c0-2.1,1.1-3.7,3.3-4.6S19,6,24,6s8.6,0.5,10.8,1.4
	C36.9,8.3,38,9.9,38,12v18.2c0,1.6-0.6,3-1.7,4.1c-1.1,1.1-2.5,1.7-4.1,1.7l3,2v0.9H12.8z M11.5,22.3h11.8v-9.7H11.5V22.3z
	 M32.2,23.9H11.5h24.9H32.2z M24.9,22.3h11.6v-9.7H24.9C24.9,12.6,24.9,22.3,24.9,22.3z M16.9,31.3c0.6,0,1.1-0.2,1.5-0.6
	s0.6-0.9,0.6-1.5s-0.2-1.1-0.6-1.5s-0.9-0.6-1.5-0.6s-1.1,0.2-1.5,0.6s-0.6,0.9-0.6,1.5s0.2,1.1,0.6,1.5
	C15.8,31.1,16.3,31.3,16.9,31.3z M31.1,31.3c0.6,0,1.1-0.2,1.5-0.6c0.4-0.4,0.6-0.9,0.6-1.5s-0.2-1.1-0.6-1.5
	c-0.4-0.4-0.9-0.6-1.5-0.6s-1.1,0.2-1.5,0.6S29,28.6,29,29.2s0.2,1.1,0.6,1.5C30,31.1,30.5,31.3,31.1,31.3z M15.8,34.6h16.5
	c1.2,0,2.2-0.4,3-1.3c0.8-0.8,1.2-1.9,1.2-3.1v-6.4h-25v6.4c0,1.2,0.4,2.2,1.2,3.1C13.6,34.1,14.6,34.6,15.8,34.6z M24,7.5
	c-4.2,0-7.2,0.3-9,0.9c-1.8,0.6-3,1.5-3.4,2.7h24.9C36.1,9.9,34.9,9,33,8.4C31.1,7.8,28.1,7.5,24,7.5z M24,11.1h12.4H11.6H24z"/>
</svg>
