<?xml version="1.0" encoding="utf-8"?>
<!-- Generator: Adobe Illustrator 26.3.1, SVG Export Plug-In . SVG Version: 6.00 Build 0)  -->
<svg version="1.1" id="Слой_1" xmlns="http://www.w3.org/2000/svg" xmlns:xlink="http://www.w3.org/1999/xlink" x="0px" y="0px"
	 viewBox="0 0 48 48" style="enable-background:new 0 0 48 48;" xml:space="preserve">
<path d="M9.4,35.9L6.6,25.6c-0.1-0.3-0.1-0.6,0.1-0.9c0.1-0.3,0.3-0.5,0.6-0.6l2.8-1v-9.6c0-0.8,0.3-1.4,0.8-2
	c0.5-0.5,1.2-0.8,2-0.8h7.5v-6h7.5v6h7.5c0.8,0,1.4,0.3,2,0.8c0.5,0.5,0.8,1.2,0.8,2v9.6L41,24c0.3,0.1,0.5,0.3,0.7,0.6
	c0.2,0.3,0.2,0.6,0.1,1l-3,10.3c-1.2-0.4-2.3-1.1-3.2-1.8c-1-0.8-2.1-1.8-3.4-3.3c-1.2,1.4-2.4,2.6-3.6,3.6s-2.7,1.5-4.4,1.5
	c-1.7,0-3.1-0.5-4.4-1.5c-1.2-1-2.5-2.2-3.6-3.6c-1.3,1.4-2.4,2.5-3.4,3.3C11.7,34.9,10.6,35.5,9.4,35.9z M5,44v-1.5h3
	c1.4,0,2.8-0.2,4.2-0.7s2.6-1.1,3.8-1.9c1.2,0.8,2.5,1.4,3.9,1.8c1.4,0.4,2.8,0.6,4.1,0.6s2.8-0.2,4.1-0.6c1.4-0.4,2.7-1,3.9-1.8
	c1.2,0.8,2.5,1.5,3.9,1.9s2.8,0.6,4.1,0.6h3V44h-3c-1.4,0-2.8-0.2-4.1-0.5S33.3,42.7,32,42c-1.3,0.7-2.6,1.2-4,1.5S25.3,44,24,44
	s-2.7-0.2-4-0.5c-1.4-0.3-2.7-0.8-4-1.5c-1.3,0.7-2.6,1.2-3.9,1.5S9.4,44,8,44H5z M11.5,22.6l12.5-4l12.5,4.1v-9.1
	c0-0.4-0.1-0.7-0.3-0.9s-0.5-0.3-0.9-0.3H12.8c-0.4,0-0.7,0.1-0.9,0.3s-0.3,0.5-0.3,0.9v9H11.5z M24,34.5c1.6,0,3-0.6,4.2-1.8
	s2.4-2.6,3.8-4.2c1.2,1.5,2.2,2.6,3,3.3c0.8,0.8,1.7,1.4,2.7,2l2.4-8.3l-16-5.2L8,25.4l2.4,8.3c1-0.5,1.9-1.2,2.7-1.9
	c0.8-0.8,1.8-1.9,3-3.4c1.4,1.6,2.6,3,3.8,4.2C21,33.9,22.4,34.5,24,34.5z"/>
</svg>
