<?xml version="1.0" encoding="utf-8"?>
<!-- Generator: Adobe Illustrator 26.3.1, SVG Export Plug-In . SVG Version: 6.00 Build 0)  -->
<svg version="1.1" id="Слой_1" xmlns="http://www.w3.org/2000/svg" xmlns:xlink="http://www.w3.org/1999/xlink" x="0px" y="0px"
	 viewBox="0 0 48 48" style="enable-background:new 0 0 48 48;" xml:space="preserve">
<path d="M10,42l3.1-3.1h21.8L38,42H10z M14.6,37.4l1.6-1.6h-0.7c-1.6,0-2.9-0.5-3.9-1.6c-1.1-1.1-1.6-2.4-1.6-4V16.3
	c0-3.8,1.4-6.7,4.1-9C16.8,5.1,20.1,4,24,4s7.2,1.1,9.9,3.3s4.1,5.2,4.1,9v13.9c0,1.5-0.5,2.9-1.6,4s-2.4,1.6-3.9,1.6h-0.7l1.6,1.6
	C33.4,37.4,14.6,37.4,14.6,37.4z M15.5,34.2h17c1.1,0,2.1-0.4,2.8-1.2c0.8-0.8,1.1-1.7,1.1-2.9v-8.4H11.5v8.4c0,1.1,0.4,2.1,1.1,2.9
	C13.4,33.8,14.4,34.2,15.5,34.2z M24,30.6c0.7,0,1.3-0.3,1.9-0.8c0.5-0.5,0.8-1.1,0.8-1.9c0-0.7-0.3-1.3-0.8-1.9
	c-0.5-0.5-1.1-0.8-1.9-0.8s-1.3,0.3-1.9,0.8c-0.5,0.5-0.8,1.1-0.8,1.9c0,0.7,0.3,1.3,0.8,1.9C22.7,30.4,23.3,30.6,24,30.6z
	 M11.5,20.2h24.9v-3.9c0-0.9-0.1-1.7-0.3-2.5s-0.5-1.6-0.8-2.2H12.7c-0.4,0.7-0.6,1.4-0.8,2.2s-0.3,1.6-0.3,2.5
	C11.5,16.3,11.5,20.2,11.5,20.2z M13.6,10h20.8c-1.1-1.4-2.6-2.5-4.4-3.3s-3.8-1.2-6-1.2s-4.2,0.4-6,1.2S14.7,8.6,13.6,10z"/>
</svg>
