<?xml version="1.0" encoding="utf-8"?>
<!-- Generator: Adobe Illustrator 26.3.1, SVG Export Plug-In . SVG Version: 6.00 Build 0)  -->
<svg version="1.1" id="Слой_1" xmlns="http://www.w3.org/2000/svg" xmlns:xlink="http://www.w3.org/1999/xlink" x="0px" y="0px"
	 viewBox="0 0 48 48" style="enable-background:new 0 0 48 48;" xml:space="preserve">
<path d="M11.7,35.6C10.2,34,9,32.2,8.2,30.2S7,26.2,7,24c0-4.8,1.8-8.9,5.3-12.1S20.1,7,25,7V4l7,5.3l-7,5.3v-3
	c-3.7,0-6.8,1.2-9.5,3.6s-4,5.3-4,8.9c0,1.7,0.3,3.3,1,4.8c0.6,1.5,1.5,2.9,2.7,4.1C15.2,32.9,11.7,35.6,11.7,35.6z M23,44l-7-5.3
	l7-5.3v3c3.7,0,6.8-1.2,9.5-3.6s4-5.3,4-8.9c0-1.7-0.3-3.3-1-4.8c-0.7-1.5-1.6-2.9-2.8-4.1l3.6-2.7c1.5,1.6,2.7,3.4,3.5,5.4
	S41,21.8,41,24c0,4.8-1.8,8.9-5.3,12.1C32.1,39.4,27.9,41,23,41V44z"/>
</svg>
