<?xml version="1.0" encoding="utf-8"?>
<!-- Generator: Adobe Illustrator 26.3.1, SVG Export Plug-In . SVG Version: 6.00 Build 0)  -->
<svg version="1.1" id="Слой_1" xmlns="http://www.w3.org/2000/svg" xmlns:xlink="http://www.w3.org/1999/xlink" x="0px" y="0px"
	 viewBox="0 0 48 48" style="enable-background:new 0 0 48 48;" xml:space="preserve">
<path d="M15.2,45l6-29.4l-6.6,2.8v6.4H13v-7.5l8.6-3.6c0.4-0.2,0.9-0.3,1.3-0.4c0.4-0.1,0.8-0.1,1.2,0c0.4,0.1,0.8,0.2,1.1,0.4
	c0.3,0.2,0.6,0.5,0.9,0.8l1.4,2.3c1.2,1.9,2.6,3.4,4.2,4.5c1.6,1.1,3.2,1.7,5,1.8v1.5c-2.2-0.2-4.2-0.9-5.9-2.1
	c-1.7-1.2-3.3-2.8-4.6-5l-2.1,9.8l4.5,4.6V45h-1.5V33.7L21,27.8L16.8,45H15.2z M27,10.1c-0.9,0-1.7-0.3-2.3-0.9
	c-0.6-0.6-0.9-1.4-0.9-2.3s0.3-1.7,0.9-2.3s1.4-0.9,2.3-0.9s1.7,0.3,2.3,0.9c0.6,0.6,0.9,1.4,0.9,2.3s-0.3,1.7-0.9,2.3
	C28.7,9.8,27.9,10.1,27,10.1z"/>
</svg>
