<?xml version="1.0" encoding="utf-8"?>
<!-- Generator: Adobe Illustrator 26.3.1, SVG Export Plug-In . SVG Version: 6.00 Build 0)  -->
<svg version="1.1" id="Слой_1" xmlns="http://www.w3.org/2000/svg" xmlns:xlink="http://www.w3.org/1999/xlink" x="0px" y="0px"
	 viewBox="0 0 48 48" style="enable-background:new 0 0 48 48;" xml:space="preserve">
<path d="M42.5,44.8L32.3,34.5L26,40.7c-0.3,0.3-0.6,0.5-0.9,0.6s-0.7,0.2-1,0.2c-0.4,0-0.7-0.1-1-0.2c-0.3-0.1-0.7-0.3-0.9-0.6
	L7.3,26c-0.3-0.3-0.5-0.6-0.6-1c-0.1-0.3-0.2-0.7-0.2-1s0.1-0.7,0.2-1c0.1-0.4,0.3-0.7,0.6-1l6.3-6.3L3.8,6l1.1-1.1l38.8,38.8
	C43.6,43.6,42.5,44.8,42.5,44.8z M31.2,33.4L14.6,16.8l-6.3,6.3C8.1,23.4,8,23.7,8,24s0.1,0.6,0.3,0.8l14.9,14.9
	c0.2,0.2,0.5,0.3,0.8,0.3s0.6-0.1,0.8-0.3C24.8,39.7,31.2,33.4,31.2,33.4z M35.8,30.9l-1.1-1.1l5-4.9c0.2-0.2,0.3-0.5,0.3-0.8
	s-0.1-0.6-0.3-0.8l-14.9-15C24.6,8.1,24.3,8,24,8s-0.6,0.1-0.8,0.3l-4.9,4.9l-1.1-1.1L22,7.3c0.3-0.3,0.6-0.5,1-0.6
	c0.3-0.1,0.7-0.2,1-0.2s0.7,0.1,1,0.2c0.4,0.1,0.7,0.3,1,0.6L40.7,22c0.3,0.3,0.5,0.6,0.6,0.9s0.2,0.7,0.2,1c0,0.4-0.1,0.7-0.2,1
	c-0.1,0.3-0.3,0.7-0.6,0.9C40.7,26,35.8,30.9,35.8,30.9z M17,29v-6.4c0-0.4,0.1-0.7,0.4-1s0.6-0.4,1-0.4h2.8l1.5,1.5h-4.2V29H17z
	 M29.8,24.8l2.8-2.8l-4-4.1v3.3h-2.4L29.8,24.8z"/>
</svg>
