<?xml version="1.0" encoding="utf-8"?>
<!-- Generator: Adobe Illustrator 26.3.1, SVG Export Plug-In . SVG Version: 6.00 Build 0)  -->
<svg version="1.1" id="Слой_1" xmlns="http://www.w3.org/2000/svg" xmlns:xlink="http://www.w3.org/1999/xlink" x="0px" y="0px"
	 viewBox="0 0 48 48" style="enable-background:new 0 0 48 48;" xml:space="preserve">
<path d="M9.5,35.9v3.3c0,0.2-0.1,0.4-0.2,0.5C9.2,39.9,9,40,8.8,40s-0.4-0.1-0.5-0.2C8.1,39.6,8,39.4,8,39.2V24.5l4-11.7
	c0.1-0.2,0.2-0.4,0.5-0.6c0.2-0.1,0.5-0.2,0.7-0.2H35c0.2,0,0.5,0.1,0.6,0.2c0.2,0.1,0.3,0.3,0.4,0.6l4,11.7v14.8
	c0,0.2-0.1,0.4-0.2,0.5c-0.1,0.1-0.3,0.2-0.5,0.2l0,0c-0.2,0-0.4-0.1-0.6-0.2c-0.1-0.1-0.2-0.3-0.2-0.5V36L9.5,35.9L9.5,35.9z
	 M10.2,22.9h27.7l-3.2-9.4H13.4L10.2,22.9z M9.5,24.5v9.9V24.5z M14.5,31.5c0.6,0,1.1-0.2,1.5-0.6s0.6-0.9,0.6-1.5s-0.2-1.1-0.6-1.5
	s-0.9-0.6-1.5-0.6s-1.1,0.2-1.5,0.6s-0.6,0.9-0.6,1.5s0.2,1.1,0.6,1.5C13.4,31.3,13.9,31.5,14.5,31.5z M33.5,31.5
	c0.6,0,1.1-0.2,1.5-0.6s0.6-0.9,0.6-1.5s-0.2-1.1-0.6-1.5c-0.4-0.4-0.9-0.6-1.5-0.6s-1.1,0.2-1.5,0.6c-0.4,0.4-0.6,0.9-0.6,1.5
	s0.2,1.1,0.6,1.5C32.5,31.3,33,31.5,33.5,31.5z M9.5,34.4h28.9v-9.9H9.5C9.5,24.5,9.5,34.4,9.5,34.4z"/>
</svg>
