<?xml version="1.0" encoding="utf-8"?>
<!-- Generator: Adobe Illustrator 26.3.1, SVG Export Plug-In . SVG Version: 6.00 Build 0)  -->
<svg version="1.1" id="Слой_1" xmlns="http://www.w3.org/2000/svg" xmlns:xlink="http://www.w3.org/1999/xlink" x="0px" y="0px"
	 viewBox="0 0 48 48" style="enable-background:new 0 0 48 48;" xml:space="preserve">
<path d="M21.7,41.7c-2.2-0.3-4.3-0.9-6.2-1.9s-3.6-2.3-5-3.9c-1.4-1.6-2.5-3.4-3.3-5.4S6,26.3,6,24c0-2.5,0.5-4.9,1.4-7.1
	s2.2-4.1,3.8-5.7s3.5-2.9,5.7-3.8S21.5,6,24,6s4.9,0.5,7.1,1.4s4.1,2.2,5.7,3.8s2.9,3.5,3.8,5.7c0.9,2.2,1.4,4.5,1.4,7.1
	c0,0.1,0,0.3,0,0.4c0,0.2,0,0.3-0.1,0.4c-0.2-0.1-0.4-0.3-0.7-0.4s-0.5-0.3-0.8-0.4c0-4.6-1.6-8.5-4.7-11.7
	C32.5,9.1,28.6,7.5,24,7.5c-2.3,0-4.4,0.4-6.3,1.2s-3.5,1.8-4.9,3.1L26.1,25c-0.2,0.1-0.4,0.3-0.7,0.4c-0.2,0.1-0.4,0.3-0.6,0.4
	l-13-13c-1.3,1.3-2.3,3-3.1,4.9c-0.8,2-1.2,4-1.2,6.2c0,3.9,1.2,7.3,3.5,10.2s5.2,4.8,8.8,5.8c0.3,0.3,0.6,0.6,0.9,0.9
	C21.1,41.2,21.4,41.5,21.7,41.7z M34,40.5c2,0,3.9-0.5,5.7-1.5s3.2-2.3,4.3-4c-1.1-1.7-2.5-3-4.3-4S36,29.5,34,29.5S30.1,30,28.3,31
	c-1.8,1-3.2,2.3-4.3,4c1.1,1.7,2.5,3,4.3,4C30.1,40,32,40.5,34,40.5z M34,42c-2.6,0-4.9-0.6-7-1.9c-2.1-1.3-3.7-3-4.7-5.1
	c1-2.1,2.6-3.8,4.7-5.1c2.1-1.3,4.5-1.9,7-1.9s4.9,0.6,7,1.9s3.7,3,4.7,5.1c-1,2.1-2.6,3.8-4.7,5.1C38.9,41.4,36.6,42,34,42z
	 M34,37.6c-0.7,0-1.3-0.3-1.8-0.8s-0.8-1.1-0.8-1.8s0.3-1.3,0.8-1.9c0.5-0.5,1.1-0.8,1.8-0.8s1.3,0.3,1.9,0.8
	c0.5,0.5,0.8,1.1,0.8,1.9c0,0.7-0.3,1.3-0.8,1.8C35.3,37.4,34.7,37.6,34,37.6z"/>
</svg>
