<?xml version="1.0" encoding="utf-8"?>
<!-- Generator: Adobe Illustrator 26.3.1, SVG Export Plug-In . SVG Version: 6.00 Build 0)  -->
<svg version="1.1" id="Слой_1" xmlns="http://www.w3.org/2000/svg" xmlns:xlink="http://www.w3.org/1999/xlink" x="0px" y="0px"
	 viewBox="0 0 48 48" style="enable-background:new 0 0 48 48;" xml:space="preserve">
<path d="M23.3,30.8c1.9,0,3.5-0.7,4.8-2s2-2.9,2-4.8s-0.7-3.5-2-4.8s-2.9-2-4.8-2s-3.5,0.7-4.8,2s-2,2.9-2,4.8s0.7,3.5,2,4.8
	C19.9,30.1,21.5,30.8,23.3,30.8z M23.3,26c-0.5,0-1-0.2-1.4-0.6s-0.6-0.9-0.6-1.4s0.2-1,0.6-1.4s0.9-0.6,1.4-0.6
	c0.6,0,1,0.2,1.4,0.6s0.6,0.9,0.6,1.4s-0.2,1-0.6,1.4C24.4,25.8,23.9,26,23.3,26z M23.3,42c-2.5,0-4.8-0.5-7-1.4s-4.1-2.2-5.7-3.8
	C9,35.1,7.7,33.2,6.7,31c-0.9-2.2-1.4-4.5-1.4-7s0.5-4.8,1.4-7s2.2-4.1,3.9-5.7c1.6-1.6,3.5-2.9,5.7-3.8s4.5-1.4,7-1.4
	c3.8,0,7.2,1.1,10.3,3.2s5.3,4.9,6.7,8.4h-1.7c-1.4-3-3.4-5.5-6.2-7.3c-2.7-1.8-5.8-2.8-9.1-2.8c-4.6,0-8.5,1.6-11.7,4.8
	c-3.1,3.1-4.7,7-4.7,11.6s1.6,8.5,4.8,11.7s7.1,4.8,11.7,4.8c2.8,0,5.4-0.7,7.8-2s4.5-3.1,6.1-5.3v2.4c-1.8,2-3.9,3.6-6.3,4.8
	C28.5,41.4,26,42,23.3,42z M40.8,36.3V21.1h1.5v15.2H40.8z M41.6,41.2c-0.3,0-0.6-0.1-0.8-0.3s-0.3-0.5-0.3-0.8s0.1-0.6,0.3-0.8
	s0.5-0.3,0.8-0.3s0.6,0.1,0.8,0.3s0.3,0.5,0.3,0.8s-0.1,0.6-0.3,0.8C42.2,41,41.9,41.2,41.6,41.2z"/>
</svg>
