<?xml version="1.0" encoding="utf-8"?>
<!-- Generator: Adobe Illustrator 26.3.1, SVG Export Plug-In . SVG Version: 6.00 Build 0)  -->
<svg version="1.1" id="Слой_1" xmlns="http://www.w3.org/2000/svg" xmlns:xlink="http://www.w3.org/1999/xlink" x="0px" y="0px"
	 viewBox="0 0 48 48" style="enable-background:new 0 0 48 48;" xml:space="preserve">
<path d="M16,13.3c0.4,0,0.7-0.1,0.9-0.4c0.3-0.3,0.4-0.6,0.4-0.9s-0.1-0.7-0.4-0.9c-0.3-0.3-0.6-0.4-0.9-0.4c-0.4,0-0.7,0.1-0.9,0.4
	c-0.3,0.3-0.4,0.6-0.4,0.9c0,0.4,0.1,0.7,0.4,0.9C15.4,13.2,15.7,13.3,16,13.3z M22,13.3c0.4,0,0.7-0.1,0.9-0.4
	c0.3-0.3,0.4-0.6,0.4-0.9s-0.1-0.7-0.4-0.9c-0.3-0.3-0.6-0.4-0.9-0.4c-0.4,0-0.7,0.1-0.9,0.4c-0.3,0.3-0.4,0.6-0.4,0.9
	c0,0.4,0.1,0.7,0.4,0.9C21.4,13.2,21.7,13.3,22,13.3z M24,34.8c1.8,0,3.3-0.6,4.5-1.8s1.9-2.6,1.9-4.4c0-0.8-0.1-1.6-0.4-2.4
	s-0.7-1.4-1.3-2L24,19.6l-4.5,4.5c-0.6,0.6-1.1,1.3-1.4,2.1c-0.4,0.8-0.5,1.6-0.5,2.4c0,1.7,0.7,3.2,1.9,4.4
	C20.8,34.2,22.3,34.8,24,34.8z M24,33.4c-1.3,0-2.5-0.5-3.4-1.4c-0.9-0.9-1.4-2.1-1.4-3.4c0-0.6,0.1-1.2,0.4-1.8
	c0.2-0.6,0.6-1.1,1-1.5l3.4-3.4l3.7,3.6c0.4,0.4,0.7,0.9,0.9,1.4c0.2,0.5,0.3,1.1,0.3,1.7c0,1.3-0.5,2.5-1.4,3.4
	C26.5,32.9,25.4,33.4,24,33.4z M12.8,42c-0.7,0-1.4-0.3-1.9-0.8c-0.6-0.6-0.9-1.2-0.9-2V8.8c0-0.7,0.3-1.4,0.8-1.9
	C11.4,6.3,12,6,12.8,6h22.5c0.7,0,1.4,0.3,1.9,0.8C37.7,7.4,38,8,38,8.8v30.5c0,0.7-0.3,1.4-0.8,1.9c-0.6,0.5-1.2,0.8-2,0.8H12.8z
	 M12.8,40.5h22.5c0.4,0,0.7-0.1,0.9-0.3s0.3-0.5,0.3-0.9V8.8c0-0.4-0.1-0.7-0.3-0.9c-0.2-0.2-0.5-0.3-0.9-0.3H12.8
	c-0.4,0-0.7,0.1-0.9,0.3s-0.3,0.5-0.3,0.9v30.5c0,0.4,0.1,0.7,0.3,0.9C12.1,40.3,12.4,40.5,12.8,40.5z M11.5,40.5v-33V40.5z"/>
</svg>
