<?xml version="1.0" encoding="utf-8"?>
<!-- Generator: Adobe Illustrator 26.3.1, SVG Export Plug-In . SVG Version: 6.00 Build 0)  -->
<svg version="1.1" id="Слой_1" xmlns="http://www.w3.org/2000/svg" xmlns:xlink="http://www.w3.org/1999/xlink" x="0px" y="0px"
	 viewBox="0 0 48 48" style="enable-background:new 0 0 48 48;" xml:space="preserve">
<path d="M16,28.2h1.3v-5.5H16v2.1h-3V26h3V28.2z M19.8,26H35v-1.3H19.8V26z M30.7,21.4H32v-2.1h3V18h-3v-2.1h-1.3V21.4z M13,19.3
	h15.2V18H13V19.3z M18.2,40v-4H8.8c-0.8,0-1.4-0.3-2-0.8C6.3,34.7,6,34,6,33.2V10.8c0-0.8,0.3-1.4,0.8-2C7.3,8.3,8,8,8.8,8h30.5
	c0.8,0,1.4,0.3,2,0.8c0.5,0.5,0.8,1.2,0.8,2v22.5c0,0.8-0.3,1.4-0.8,2c-0.5,0.5-1.2,0.8-2,0.8h-9.5v4L18.2,40L18.2,40z M8.8,34.5
	h30.5c0.3,0,0.6-0.1,0.8-0.4c0.3-0.3,0.4-0.5,0.4-0.8V10.8c0-0.3-0.1-0.6-0.4-0.8c-0.3-0.3-0.5-0.4-0.8-0.4H8.8
	C8.5,9.6,8.2,9.7,8,10c-0.3,0.3-0.4,0.5-0.4,0.8v22.5c0,0.3,0.1,0.6,0.4,0.8C8.2,34.3,8.5,34.5,8.8,34.5z M7.5,34.5v-25V34.5z"/>
</svg>
