<?xml version="1.0" encoding="utf-8"?>
<!-- Generator: Adobe Illustrator 26.3.1, SVG Export Plug-In . SVG Version: 6.00 Build 0)  -->
<svg version="1.1" id="Слой_1" xmlns="http://www.w3.org/2000/svg" xmlns:xlink="http://www.w3.org/1999/xlink" x="0px" y="0px"
	 viewBox="0 0 48 48" style="enable-background:new 0 0 48 48;" xml:space="preserve">
<path d="M24,43c-3.2,0-5.9-0.4-7.9-1.3c-2.1-0.9-3.1-2-3.1-3.4c0-0.6,0.3-1.3,0.9-1.9c0.6-0.6,1.4-1.2,2.5-1.6l0.4,1.5
	c-0.7,0.3-1.2,0.6-1.6,1c-0.4,0.4-0.6,0.7-0.8,1.1c0.3,1,1.4,1.8,3.2,2.3c1.8,0.6,3.9,0.9,6.4,0.9c2.4,0,4.5-0.3,6.3-0.9
	c1.8-0.6,2.9-1.4,3.2-2.3c-0.1-0.3-0.4-0.7-0.8-1c-0.4-0.4-0.9-0.7-1.6-1l0.5-1.5c1,0.4,1.9,1,2.5,1.6s0.9,1.3,0.9,1.9
	c0,1.4-1,2.5-3.1,3.4C29.9,42.6,27.2,43,24,43z M24,33.9c0.7-1.3,1.4-2.6,2.3-3.9s1.8-2.5,2.7-3.7c1.4-1.8,2.5-3.4,3.3-4.8
	c0.8-1.4,1.2-3.2,1.2-5.5c0-2.6-0.9-4.9-2.8-6.7c-1.9-1.9-4.1-2.8-6.8-2.8c-2.6,0-4.9,0.9-6.7,2.8c-1.9,1.9-2.8,4.1-2.8,6.7
	c0,2.2,0.4,4.1,1.2,5.5c0.8,1.4,1.9,3,3.3,4.8c0.9,1.2,1.8,2.4,2.7,3.7C22.6,31.4,23.3,32.7,24,33.9z M24,36.1
	c-0.3,0-0.6-0.1-0.8-0.3c-0.3-0.2-0.4-0.5-0.6-0.8c-0.9-2.2-1.9-3.9-3-5.4c-1.1-1.4-2.2-2.8-3.1-4.1c-1-1.3-1.8-2.6-2.5-4.1
	c-0.7-1.4-1-3.2-1-5.3c0-3.1,1.1-5.7,3.2-7.9S20.9,5,24,5s5.7,1.1,7.9,3.2s3.2,4.8,3.2,7.9c0,2.1-0.3,3.9-1,5.3
	c-0.7,1.4-1.5,2.8-2.5,4.1c-1,1.3-2.1,2.7-3.2,4.1s-2.1,3.2-3,5.4c-0.1,0.3-0.3,0.6-0.6,0.8C24.6,36,24.3,36.1,24,36.1z M24,18.6
	c0.7,0,1.3-0.2,1.7-0.7c0.5-0.5,0.7-1.1,0.7-1.8c0-0.7-0.3-1.2-0.8-1.7s-1.1-0.7-1.8-0.7c-0.7,0-1.2,0.2-1.7,0.7s-0.7,1.1-0.7,1.7
	c0,0.7,0.2,1.3,0.7,1.8C22.8,18.3,23.3,18.6,24,18.6z"/>
</svg>
