<?xml version="1.0" encoding="utf-8"?>
<!-- Generator: Adobe Illustrator 26.3.1, SVG Export Plug-In . SVG Version: 6.00 Build 0)  -->
<svg version="1.1" id="Слой_1" xmlns="http://www.w3.org/2000/svg" xmlns:xlink="http://www.w3.org/1999/xlink" x="0px" y="0px"
	 viewBox="0 0 48 48" style="enable-background:new 0 0 48 48;" xml:space="preserve">
<path d="M7.5,40.5v-15V40.5z M40.5,40.5v-15V40.5z M38,18.5c0.7,0,1.3-0.2,1.8-0.7s0.7-1.1,0.7-1.8s-0.2-1.3-0.7-1.8
	s-1.1-0.7-1.8-0.7s-1.3,0.2-1.8,0.7s-0.7,1.1-0.7,1.8s0.2,1.3,0.7,1.8C36.7,18.2,37.3,18.5,38,18.5z M38,20c-1.1,0-2.1-0.4-2.8-1.1
	C34.4,18.1,34,17.1,34,16s0.4-2.1,1.1-2.8c0.8-0.8,1.7-1.2,2.8-1.2s2.1,0.4,2.8,1.2c0.8,0.8,1.2,1.7,1.2,2.8s-0.4,2.1-1.2,2.8
	C40.1,19.6,39.1,20,38,20z M24,16.5c0.9,0,1.8-0.3,2.4-1c0.7-0.7,1-1.5,1-2.5c0-0.9-0.3-1.8-1-2.4c-0.7-0.7-1.5-1-2.5-1
	s-1.8,0.3-2.5,1s-1,1.5-1,2.5s0.3,1.8,1,2.5C22.2,16.1,23,16.5,24,16.5z M24,18c-1.4,0-2.6-0.5-3.6-1.4c-1-1-1.4-2.1-1.4-3.5
	s0.5-2.6,1.4-3.5c1-1,2.1-1.5,3.5-1.5s2.6,0.5,3.5,1.5c1,1,1.5,2.2,1.5,3.5c0,1.4-0.5,2.6-1.5,3.6C26.6,17.5,25.4,18,24,18z
	 M14.5,26.8c0,1.3,0.6,2.7,1.8,4.2c1.2,1.5,3.5,3.9,7,7.1l0.7,0.7l0.8-0.8c3.3-3,5.6-5.3,6.9-6.9c1.3-1.6,1.9-3,1.9-4.3
	c0-1.2-0.4-2.2-1.2-3.1c-0.8-0.8-1.8-1.2-2.9-1.2c-0.7,0-1.3,0.2-1.9,0.5s-1.1,0.7-1.6,1.2l-2,2.1h0.3l-2-2.1
	c-0.5-0.5-1-0.9-1.6-1.2c-0.6-0.3-1.2-0.5-1.9-0.5c-1.2,0-2.2,0.4-3,1.2C14.9,24.5,14.5,25.5,14.5,26.8z M12.9,26.8
	c0-1.5,0.6-2.9,1.8-4c1.2-1.2,2.5-1.8,3.9-1.8c0.9,0,1.8,0.2,2.7,0.7c0.9,0.5,1.6,1.1,2.2,1.8L24,24l0.5-0.6
	c0.6-0.7,1.4-1.3,2.2-1.8c0.8-0.5,1.7-0.7,2.7-0.7c1.4,0,2.7,0.6,3.9,1.8c1.2,1.2,1.8,2.5,1.8,4c0,1.6-0.6,3.2-1.8,4.8
	c-1.2,1.6-3.6,4.1-7.1,7.3l-2.1,2l-2-1.8c-3.6-3.4-6.1-5.8-7.3-7.4C13.5,29.9,12.9,28.3,12.9,26.8z M10,18.5c0.7,0,1.3-0.2,1.8-0.7
	s0.7-1.1,0.7-1.8s-0.2-1.3-0.7-1.8s-1.1-0.7-1.8-0.7s-1.3,0.2-1.8,0.7S7.5,15.3,7.5,16s0.2,1.3,0.7,1.8C8.7,18.2,9.3,18.5,10,18.5z
	 M24.1,42v-1.5h16.3V26.8c0-0.3-0.1-0.6-0.4-0.9c-0.2-0.2-0.5-0.4-0.9-0.4H34V24h5.1c0.7,0,1.4,0.3,1.9,0.8c0.6,0.6,0.8,1.2,0.8,1.9
	V42H24.1z M7.5,40.5h16.6V42H6V26.8c0-0.8,0.3-1.4,0.8-2S8,24,8.8,24h5.1v1.5H8.8c-0.4,0-0.7,0.1-0.9,0.4c-0.2,0.2-0.3,0.5-0.3,0.9
	C7.5,26.8,7.5,40.5,7.5,40.5z M10,20c-1.1,0-2.1-0.4-2.8-1.1C6.4,18.1,6,17.1,6,16s0.4-2.1,1.1-2.8C7.9,12.4,8.9,12,10,12
	s2.1,0.4,2.8,1.2C13.6,14,14,14.9,14,16s-0.4,2.1-1.2,2.8C12.1,19.6,11.1,20,10,20z"/>
</svg>
