<?xml version="1.0" encoding="utf-8"?>
<!-- Generator: Adobe Illustrator 26.3.1, SVG Export Plug-In . SVG Version: 6.00 Build 0)  -->
<svg version="1.1" id="Слой_1" xmlns="http://www.w3.org/2000/svg" xmlns:xlink="http://www.w3.org/1999/xlink" x="0px" y="0px"
	 viewBox="0 0 48 48" style="enable-background:new 0 0 48 48;" xml:space="preserve">
<path d="M4,38.8v-7c0-0.7,0.2-1.4,0.7-1.9s1.1-0.8,1.8-0.9h6c0.5,0,1,0.1,1.4,0.4c0.5,0.2,0.8,0.6,1.2,1c1,1.5,2.3,2.6,3.9,3.4
	s3.2,1.2,5,1.2s3.5-0.4,5-1.2c1.6-0.8,2.9-1.9,3.9-3.4c0.3-0.4,0.7-0.8,1.1-1c0.4-0.2,0.9-0.4,1.4-0.4h6c0.7,0.1,1.3,0.3,1.8,0.9
	c0.5,0.5,0.7,1.2,0.7,1.9v7H32.5v-5.5c-1.1,1-2.4,1.8-3.9,2.4c-1.4,0.6-3,0.9-4.6,0.9s-3.1-0.3-4.5-0.8c-1.4-0.6-2.7-1.4-3.9-2.4
	v5.5H4V38.8z M24,31c-1.1,0-2.1-0.3-3.1-0.8s-1.8-1.2-2.5-2.1c-0.5-0.6-1-1.1-1.6-1.6s-1.2-0.8-1.9-1.1c1.1-0.7,2.5-1.3,4.2-1.6
	c1.7-0.4,3.3-0.5,4.8-0.5s3.1,0.2,4.9,0.5c1.7,0.4,3.1,0.9,4.2,1.6c-0.7,0.3-1.3,0.6-1.9,1.1s-1.1,1-1.5,1.6
	c-0.6,0.9-1.5,1.6-2.5,2.1C26.2,30.7,25.1,31,24,31z M9.2,24.8c-1.3,0-2.4-0.5-3.4-1.4c-0.9-0.9-1.4-2.1-1.4-3.4s0.5-2.5,1.4-3.4
	s2.1-1.4,3.4-1.4s2.5,0.5,3.4,1.4c0.9,0.9,1.4,2.1,1.4,3.4s-0.5,2.4-1.4,3.4C11.6,24.3,10.5,24.8,9.2,24.8z M38.8,24.8
	c-1.3,0-2.4-0.5-3.4-1.4C34.5,22.5,34,21.3,34,20s0.5-2.5,1.4-3.4s2.1-1.4,3.4-1.4c1.3,0,2.5,0.5,3.4,1.4s1.4,2.1,1.4,3.4
	s-0.5,2.4-1.4,3.4C41.3,24.3,40.2,24.8,38.8,24.8z M24,18.8c-1.3,0-2.4-0.5-3.4-1.4c-0.9-0.9-1.4-2.1-1.4-3.4s0.5-2.5,1.4-3.4
	s2.1-1.4,3.4-1.4s2.5,0.5,3.4,1.4s1.4,2.1,1.4,3.4s-0.5,2.4-1.4,3.4C26.5,18.3,25.3,18.8,24,18.8z"/>
</svg>
