<?xml version="1.0" encoding="utf-8"?>
<!-- Generator: Adobe Illustrator 26.3.1, SVG Export Plug-In . SVG Version: 6.00 Build 0)  -->
<svg version="1.1" id="Слой_1" xmlns="http://www.w3.org/2000/svg" xmlns:xlink="http://www.w3.org/1999/xlink" x="0px" y="0px"
	 viewBox="0 0 48 48" style="enable-background:new 0 0 48 48;" xml:space="preserve">
<path d="M40,35l-1.5-1.5V10.8c0-0.2,0.1-0.4,0.2-0.5c0.1-0.1,0.3-0.2,0.6-0.2c0.2,0,0.4,0.1,0.5,0.2c0.1,0.1,0.2,0.3,0.2,0.5V35z
	 M17.5,12.6L16,11.1V9.9c0-0.2,0.1-0.4,0.2-0.5s0.3-0.2,0.6-0.2c0.2,0,0.4,0.1,0.5,0.2c0.1,0.1,0.2,0.3,0.2,0.5
	C17.5,9.9,17.5,12.6,17.5,12.6z M25,20.1l-1.5-1.5V5.9c0-0.2,0.1-0.4,0.2-0.5s0.3-0.2,0.6-0.2c0.2,0,0.4,0.1,0.5,0.2
	C25,5.5,25,5.7,25,5.9V20.1z M32.5,22.9H31v-15c0-0.2,0.1-0.4,0.2-0.5s0.3-0.2,0.6-0.2c0.2,0,0.4,0.1,0.5,0.2s0.2,0.3,0.2,0.5
	C32.5,7.9,32.5,22.9,32.5,22.9z M37.4,39.6L17.5,19.8v10.7l-9.4-6.7l11.1,16.3c0.3,0.4,0.7,0.8,1.1,1c0.5,0.2,1,0.4,1.5,0.4h11.4
	c0.8,0,1.6-0.2,2.3-0.5C36.3,40.6,36.9,40.2,37.4,39.6z M21.8,43c-0.8,0-1.5-0.2-2.2-0.5c-0.7-0.4-1.3-0.9-1.7-1.6L5.6,22.8l0.3-0.3
	c0.4-0.3,0.8-0.5,1.4-0.6c0.5-0.1,1.1,0.1,1.6,0.5l7.1,5.1v-9.3L3.8,6l1.1-1.1l38.8,38.8l-1.1,1.1l-4.2-4.2
	c-0.6,0.7-1.4,1.3-2.2,1.8c-0.9,0.4-1.9,0.6-2.9,0.6C33.3,43,21.8,43,21.8,43z"/>
</svg>
