<?xml version="1.0" encoding="utf-8"?>
<!-- Generator: Adobe Illustrator 26.3.1, SVG Export Plug-In . SVG Version: 6.00 Build 0)  -->
<svg version="1.1" id="Слой_1" xmlns="http://www.w3.org/2000/svg" xmlns:xlink="http://www.w3.org/1999/xlink" x="0px" y="0px"
	 viewBox="0 0 48 48" style="enable-background:new 0 0 48 48;" xml:space="preserve">
<path d="M35.3,30.5l-1.1-1.1l8.1-8l1.1,1.1L35.3,30.5z M32.2,27.5l-1.1-1.1l6.9-7l-9.2-9.2l-6.9,7l-1.1-1.1l8-8l11.4,11.4
	C40.3,19.5,32.2,27.5,32.2,27.5z M42.3,44.7L28.6,31l-6.4,6.3H5.3V33c0-0.5,0.1-1,0.4-1.4s0.7-0.7,1.1-0.9c0.9-0.4,1.8-0.8,2.7-1.3
	s1.9-1.1,2.8-1.9l1.6,1.6c0.1,0.1,0.3,0.2,0.6,0.2s0.5-0.1,0.6-0.2c0.2-0.2,0.3-0.4,0.3-0.6s-0.1-0.5-0.2-0.6l-1.5-1.6
	c0.2-0.1,0.4-0.3,0.6-0.6c0.2-0.2,0.4-0.4,0.6-0.7l1.5,1.5c0.2,0.2,0.4,0.3,0.6,0.2c0.2,0,0.4-0.1,0.6-0.3c0.1-0.2,0.2-0.4,0.2-0.6
	c0-0.3-0.1-0.5-0.2-0.6l-1.8-1.8c0.2-0.2,0.5-0.5,0.6-0.7c0.2-0.3,0.3-0.5,0.4-0.7l1.9,1.9c0.2,0.2,0.3,0.2,0.6,0.3
	c0.2,0,0.4-0.1,0.6-0.2c0.2-0.2,0.2-0.4,0.2-0.6s-0.1-0.5-0.3-0.7l-16-16l1.1-1.1L43,43.7C43.3,43.6,42.3,44.7,42.3,44.7z M6.8,35.8
	h14.8l5.9-5.9l-5.4-5.4l-5.7,5.7c-0.5,0.5-1.1,0.7-1.9,0.7c-0.8,0-1.4-0.2-1.8-0.7L12,29.5c-0.9,0.6-1.7,1.2-2.6,1.6
	c-0.8,0.4-1.7,0.9-2.6,1.3C6.8,32.4,6.8,35.8,6.8,35.8z"/>
</svg>
