<?xml version="1.0" encoding="utf-8"?>
<!-- Generator: Adobe Illustrator 26.3.1, SVG Export Plug-In . SVG Version: 6.00 Build 0)  -->
<svg version="1.1" id="Слой_1" xmlns="http://www.w3.org/2000/svg" xmlns:xlink="http://www.w3.org/1999/xlink" x="0px" y="0px"
	 viewBox="0 0 48 48" style="enable-background:new 0 0 48 48;" xml:space="preserve">
<path d="M29.6,24.7l-1.5-1.5H33v1.5H29.6z M22.5,23.2v1.5H15v-1.5H22.5z M42.5,44.8l-6.9-6.9c-1.6,1.3-3.4,2.4-5.3,3.1
	c-1.9,0.7-4,1.1-6.3,1.1c-2.5,0-4.9-0.5-7-1.4c-2.2-0.9-4.1-2.2-5.7-3.8s-2.9-3.5-3.8-5.7C6.5,28.9,6,26.5,6,24
	c0-2.2,0.4-4.3,1.1-6.3c0.7-1.9,1.8-3.7,3.1-5.3L3.8,6l1.1-1.1l38.8,38.8C43.6,43.6,42.5,44.8,42.5,44.8z M24,40.5
	c2,0,3.9-0.3,5.7-1c1.8-0.7,3.4-1.6,4.8-2.7L11.3,13.5c-1.2,1.5-2.1,3.1-2.7,4.8c-0.7,1.8-1,3.7-1,5.7c0,4.6,1.6,8.5,4.8,11.7
	C15.5,38.9,19.4,40.5,24,40.5z M39,34l-1.1-1.1c0.8-1.3,1.4-2.7,1.9-4.2s0.7-3.1,0.7-4.7c0-4.6-1.6-8.5-4.8-11.7
	C32.5,9.1,28.6,7.5,24,7.5c-1.6,0-3.2,0.2-4.7,0.7c-1.5,0.4-2.9,1.1-4.2,1.9L14,9c1.4-0.9,3-1.7,4.6-2.2C20.3,6.3,22.1,6,24,6
	c2.5,0,4.8,0.5,7,1.4s4.1,2.2,5.7,3.8c1.6,1.6,2.9,3.5,3.8,5.7c0.9,2.2,1.4,4.5,1.4,7c0,1.9-0.3,3.7-0.8,5.4
	C40.7,31.1,40,32.6,39,34z"/>
</svg>
