<?xml version="1.0" encoding="utf-8"?>
<!-- Generator: Adobe Illustrator 26.3.1, SVG Export Plug-In . SVG Version: 6.00 Build 0)  -->
<svg version="1.1" id="Слой_1" xmlns="http://www.w3.org/2000/svg" xmlns:xlink="http://www.w3.org/1999/xlink" x="0px" y="0px"
	 viewBox="0 0 48 48" style="enable-background:new 0 0 48 48;" xml:space="preserve">
<path d="M17,42.8v-1.5h14v1.5H17z M16.3,37.7c-0.8,0-1.4-0.3-2-0.8c-0.5-0.5-0.8-1.2-0.8-2V7.5c0-0.8,0.3-1.4,0.8-2
	c0.5-0.5,1.2-0.8,2-0.8h15.4c0.8,0,1.4,0.3,2,0.8c0.5,0.5,0.8,1.2,0.8,2v27.4c0,0.8-0.3,1.4-0.8,2c-0.5,0.5-1.2,0.8-2,0.8
	C31.7,37.7,16.3,37.7,16.3,37.7z M15.1,32.7v2.2c0,0.3,0.1,0.6,0.4,0.8c0.3,0.3,0.5,0.4,0.8,0.4h15.4c0.3,0,0.6-0.1,0.8-0.4
	c0.3-0.3,0.4-0.5,0.4-0.8v-2.2H15.1z M15.1,31.2h17.8V11.3H15.1V31.2z M15.1,9.8h17.8V7.5c0-0.3-0.1-0.6-0.4-0.8
	c-0.3-0.3-0.5-0.4-0.8-0.4H16.3c-0.3,0-0.6,0.1-0.8,0.4c-0.3,0.3-0.4,0.5-0.4,0.8C15.1,7.5,15.1,9.8,15.1,9.8z M15.1,9.8V6.3V9.8z
	 M15.1,32.7v3.5V32.7z"/>
</svg>
