<?xml version="1.0" encoding="utf-8"?>
<!-- Generator: Adobe Illustrator 26.3.1, SVG Export Plug-In . SVG Version: 6.00 Build 0)  -->
<svg version="1.1" id="Слой_1" xmlns="http://www.w3.org/2000/svg" xmlns:xlink="http://www.w3.org/1999/xlink" x="0px" y="0px"
	 viewBox="0 0 48 48" style="enable-background:new 0 0 48 48;" xml:space="preserve">
<path d="M9.5,7.5v13.9v-0.1v19.2V7.5v7.7V7.5z M10.8,42c-0.8,0-1.4-0.3-2-0.8C8.3,40.7,8,40,8,39.2V8.8c0-0.8,0.3-1.4,0.8-2
	C9.3,6.3,10,6,10.8,6h16.7l8.5,8.5v7.3c-0.2-0.1-0.5-0.2-0.8-0.2c-0.3-0.1-0.5-0.1-0.8-0.2v-6.2h-7.8V7.5H10.8
	c-0.3,0-0.6,0.1-0.8,0.4C9.8,8.2,9.5,8.5,9.5,8.8v30.5c0,0.3,0.1,0.6,0.4,0.8c0.3,0.3,0.5,0.4,0.8,0.4H24c0.3,0.3,0.7,0.6,1.1,0.9
	s0.8,0.5,1.2,0.7C26.3,42,10.8,42,10.8,42z M33,38.8c1.6,0,3-0.6,4.2-1.7c1.1-1.1,1.7-2.5,1.7-4.2c0-1.6-0.6-3-1.7-4.2
	C36.1,27.6,34.7,27,33,27c-1.6,0-3,0.6-4.2,1.7c-1.1,1.1-1.7,2.5-1.7,4.2c0,1.6,0.6,3,1.7,4.2C30,38.3,31.4,38.8,33,38.8z
	 M43.2,44.3l-5.5-5.5c-0.6,0.5-1.4,0.9-2.1,1.2c-0.8,0.3-1.6,0.4-2.5,0.4c-2.1,0-3.8-0.7-5.2-2.2c-1.4-1.4-2.2-3.2-2.2-5.2
	c0-2.1,0.7-3.8,2.2-5.2c1.4-1.4,3.2-2.1,5.2-2.1c2.1,0,3.8,0.7,5.2,2.2c1.4,1.4,2.1,3.2,2.1,5.2c0,0.9-0.1,1.7-0.4,2.5
	c-0.3,0.8-0.7,1.5-1.2,2.1l5.5,5.5L43.2,44.3z"/>
</svg>
