<?xml version="1.0" encoding="utf-8"?>
<!-- Generator: Adobe Illustrator 26.3.1, SVG Export Plug-In . SVG Version: 6.00 Build 0)  -->
<svg version="1.1" id="Слой_1" xmlns="http://www.w3.org/2000/svg" xmlns:xlink="http://www.w3.org/1999/xlink" x="0px" y="0px"
	 viewBox="0 0 48 48" style="enable-background:new 0 0 48 48;" xml:space="preserve">
<path d="M5,10.4V3h7.4v1.5H6.5v5.9H5z M41.5,10.4V4.5h-5.9V3H43v7.4H41.5z M5,45v-7.4h1.5v5.9h5.9V45H5z M35.6,45v-1.5h5.9v-5.9H43
	V45H35.6z M12.5,36.2c0,0.3,0.1,0.6,0.4,0.8c0.3,0.3,0.5,0.4,0.8,0.4h20.5c0.3,0,0.6-0.1,0.8-0.4c0.3-0.3,0.4-0.5,0.4-0.8V11.8
	c0-0.3-0.1-0.6-0.4-0.8c-0.3-0.3-0.5-0.4-0.8-0.4H13.8c-0.3,0-0.6,0.1-0.8,0.4c-0.3,0.3-0.4,0.5-0.4,0.8
	C12.5,11.8,12.5,36.2,12.5,36.2z M13.8,39c-0.8,0-1.4-0.3-2-0.8c-0.5-0.5-0.8-1.2-0.8-2V11.8c0-0.8,0.3-1.4,0.8-2
	C12.3,9.3,13,9,13.8,9h20.5c0.8,0,1.4,0.3,2,0.8c0.5,0.5,0.8,1.2,0.8,2v24.5c0,0.8-0.3,1.4-0.8,2c-0.5,0.5-1.2,0.8-2,0.8L13.8,39
	L13.8,39z M19.2,18.8h9.5v-1.5h-9.5V18.8z M19.2,24.8h9.5v-1.5h-9.5V24.8z M19.2,30.8h9.5v-1.5h-9.5V30.8z M12.5,36.2V10.5v26.9
	V36.2z"/>
</svg>
