<?xml version="1.0" encoding="utf-8"?>
<!-- Generator: Adobe Illustrator 26.3.1, SVG Export Plug-In . SVG Version: 6.00 Build 0)  -->
<svg version="1.1" id="Слой_1" xmlns="http://www.w3.org/2000/svg" xmlns:xlink="http://www.w3.org/1999/xlink" x="0px" y="0px"
	 viewBox="0 0 48 48" style="enable-background:new 0 0 48 48;" xml:space="preserve">
<path d="M42.5,37.3L41,35.8V15.9H21.2l0.5,0.5V7.8H13l-1.5-1.5h11.7v8.1h19.3C42.5,14.4,42.5,37.3,42.5,37.3z M43.9,45.3l-4.9-5H5.5
	V6.9L2.3,3.8l1.1-1.1L45,44.2L43.9,45.3z M7,38.8h6.6v-6.6H7V38.8z M7,30.6h6.6V24H7V30.6z M7,22.5h6.6v-6.6H7V22.5z M15.1,38.8h6.6
	v-6.6h-6.6V38.8z M15.1,30.6h6.6V24h-6.6V30.6z M23.2,38.8h14.1l-6.6-6.6h-7.5C23.2,32.2,23.2,38.8,23.2,38.8z M34.9,24.1h-1.5v-1.5
	h1.5V24.1z"/>
</svg>
