<?xml version="1.0" encoding="utf-8"?>
<!-- Generator: Adobe Illustrator 26.3.1, SVG Export Plug-In . SVG Version: 6.00 Build 0)  -->
<svg version="1.1" id="Слой_1" xmlns="http://www.w3.org/2000/svg" xmlns:xlink="http://www.w3.org/1999/xlink" x="0px" y="0px"
	 viewBox="0 0 48 48" style="enable-background:new 0 0 48 48;" xml:space="preserve">
<path d="M15.6,34c-1.4,0-2.8-0.3-4.1-0.8C10.1,32.7,8.9,32,7.9,31c-1.3-1.3-2.3-2.9-3-4.7C4.3,24.5,4,22.7,4,20.8
	c0-2,0.5-3.6,1.4-4.9S7.7,14,9.5,14c0.3,0,0.6,0,0.9,0.1c0.3,0.1,0.6,0.1,0.9,0.3L24,19.1l12.6-4.8c0.3-0.1,0.6-0.2,0.9-0.3
	c0.3-0.1,0.6-0.1,0.9-0.1c1.8,0,3.2,0.6,4.1,1.9s1.4,2.9,1.4,4.9c0,1.9-0.3,3.8-0.9,5.6c-0.6,1.8-1.6,3.4-3,4.7
	c-1,1-2.2,1.7-3.6,2.2c-1.3,0.5-2.7,0.8-4.1,0.8c-1.8,0-3.5-0.5-5-1.5L25.2,31h-2.5l-2.2,1.5C19.1,33.5,17.4,34,15.6,34z M15.6,32.5
	c1.3,0,2.5-0.3,3.6-0.9s2.1-1.3,3-2.1h3.7c0.9,0.8,1.9,1.6,3,2.1c1.1,0.6,2.3,0.9,3.6,0.9c1.2,0,2.5-0.2,3.7-0.7
	c1.2-0.4,2.2-1.1,3.1-2c1.2-1.2,2-2.6,2.5-4.2s0.8-3.2,0.8-4.9c0-1.5-0.3-2.7-1-3.7c-0.6-1-1.7-1.5-3.1-1.5c-0.2,0-0.6,0.1-1.3,0.3
	L24,20.7l-13.2-4.9c-0.2-0.1-0.4-0.2-0.6-0.2c-0.2,0-0.4-0.1-0.6-0.1c-1.4,0-2.4,0.5-3,1.5s-1,2.2-1,3.7c0,1.7,0.3,3.3,0.8,4.9
	s1.4,3,2.6,4.2c0.9,0.9,1.9,1.5,3.1,2C13.1,32.2,14.3,32.5,15.6,32.5z M18.1,28.4c1,0,1.8-0.2,2.4-0.7c0.6-0.4,0.9-1,0.9-1.8
	c-0.1-1.5-1.1-2.9-3.1-4.3c-2-1.4-4.1-2-6.3-2c-1,0-1.8,0.2-2.4,0.7c-0.6,0.4-0.9,1-0.9,1.8c0.1,1.5,1.1,2.9,3.1,4.3
	C13.7,27.7,15.8,28.4,18.1,28.4z M18,26.7c-1.7,0-3.4-0.5-5.1-1.5s-2.6-2.1-2.7-3.2c0.1-0.2,0.3-0.4,0.6-0.6s0.7-0.2,1.2-0.2
	c1.7,0,3.4,0.5,5,1.5c1.7,1,2.6,2.1,2.7,3.2c-0.1,0.2-0.3,0.4-0.6,0.6C18.8,26.6,18.5,26.7,18,26.7z M30,28.4c2.2,0,4.3-0.7,6.3-2.1
	s3-2.8,3.1-4.3c0-0.8-0.3-1.4-0.9-1.8c-0.6-0.5-1.4-0.7-2.4-0.7c-2.2,0.1-4.3,0.8-6.3,2.1c-2,1.4-3.1,2.8-3.1,4.2
	c0,0.8,0.3,1.4,0.9,1.8C28.1,28.2,28.9,28.4,30,28.4z M30,26.8c-0.5,0-0.9-0.1-1.1-0.2c-0.3-0.2-0.5-0.3-0.6-0.6
	c0.1-1.1,1-2.1,2.7-3.1s3.3-1.5,5-1.6c0.4,0,0.8,0.1,1.1,0.3c0.3,0.2,0.5,0.3,0.6,0.6c-0.1,1.1-1.1,2.2-2.7,3.2
	C33.4,26.2,31.7,26.8,30,26.8z"/>
</svg>
