<?xml version="1.0" encoding="utf-8"?>
<!-- Generator: Adobe Illustrator 26.3.1, SVG Export Plug-In . SVG Version: 6.00 Build 0)  -->
<svg version="1.1" id="Слой_1" xmlns="http://www.w3.org/2000/svg" xmlns:xlink="http://www.w3.org/1999/xlink" x="0px" y="0px"
	 viewBox="0 0 48 48" style="enable-background:new 0 0 48 48;" xml:space="preserve">
<path d="M25.8,6.1c4.3,0.4,7.9,2.1,11,5.1c3,3,4.8,6.6,5.2,10.9H29.1c-0.3-0.8-0.7-1.4-1.3-2c-0.6-0.5-1.2-0.9-2-1.2
	C25.8,18.9,25.8,6.1,25.8,6.1z M27.4,7.9v10c0.6,0.3,1.1,0.7,1.6,1.1s0.9,1,1.1,1.6h10.1c-0.7-3.2-2.2-6-4.5-8.3
	C33.3,10,30.6,8.5,27.4,7.9z M22.2,6.1V19c-1.1,0.4-1.9,1.1-2.6,2s-1,2-1,3.1s0.3,2.1,1,3s1.5,1.5,2.6,1.9v13
	c-4.6-0.4-8.5-2.4-11.5-5.8c-3.1-3.4-4.6-7.4-4.6-12.1s1.5-8.7,4.6-12.2S17.6,6.5,22.2,6.1z M20.7,7.9c-3.9,0.7-7,2.6-9.4,5.7
	c-2.4,3-3.6,6.5-3.6,10.5c0,3.9,1.2,7.4,3.7,10.4s5.6,4.9,9.4,5.6V30c-1.1-0.7-1.9-1.5-2.6-2.5s-1-2.2-1-3.4c0-1.2,0.3-2.4,1-3.5
	c0.6-1.1,1.5-1.9,2.6-2.6V7.9H20.7z M29.1,25.8h12.8c-0.4,4.3-2.1,8-5.2,11c-3,3-6.7,4.7-10.9,5.2V29c0.8-0.2,1.5-0.6,2-1.2
	C28.4,27.2,28.9,26.5,29.1,25.8z M30.1,27.3c-0.4,0.5-0.8,1.1-1.2,1.5c-0.4,0.5-0.9,0.9-1.5,1.1V40c3.2-0.7,6-2.2,8.3-4.5
	s3.8-5.1,4.5-8.3C40.1,27.3,30.1,27.3,30.1,27.3z"/>
</svg>
