<?xml version="1.0" encoding="utf-8"?>
<!-- Generator: Adobe Illustrator 26.3.1, SVG Export Plug-In . SVG Version: 6.00 Build 0)  -->
<svg version="1.1" id="Слой_1" xmlns="http://www.w3.org/2000/svg" xmlns:xlink="http://www.w3.org/1999/xlink" x="0px" y="0px"
	 viewBox="0 0 48 48" style="enable-background:new 0 0 48 48;" xml:space="preserve">
<path d="M22.3,41.9c-4.7-0.5-8.5-2.4-11.6-5.8C7.6,32.7,6,28.7,6,24s1.5-8.7,4.6-12.1s7-5.3,11.6-5.8v2.1c-4.1,0.5-7.5,2.2-10.2,5.2
	S7.9,19.9,8,24c0,4.1,1.4,7.6,4,10.6c2.7,3,6.1,4.7,10.1,5.2C22.3,39.8,22.3,41.9,22.3,41.9z M25.8,41.9v-2.1
	c3.7-0.4,6.9-1.9,9.5-4.5c2.6-2.7,4.1-5.8,4.6-9.6H42c-0.4,4.3-2.1,8-5.1,11C33.7,39.8,30.1,41.5,25.8,41.9z M39.9,22.2
	c-0.5-3.7-2-6.9-4.6-9.5s-5.7-4.1-9.4-4.6v-2c4.3,0.4,7.9,2.1,10.9,5.2c3,3,4.7,6.7,5.2,11L39.9,22.2L39.9,22.2z"/>
</svg>
