<?xml version="1.0" encoding="utf-8"?>
<!-- Generator: Adobe Illustrator 26.3.1, SVG Export Plug-In . SVG Version: 6.00 Build 0)  -->
<svg version="1.1" id="Слой_1" xmlns="http://www.w3.org/2000/svg" xmlns:xlink="http://www.w3.org/1999/xlink" x="0px" y="0px"
	 viewBox="0 0 48 48" style="enable-background:new 0 0 48 48;" xml:space="preserve">
<path d="M14.8,42c-0.7,0-1.4-0.3-1.9-0.8c-0.6-0.6-0.9-1.2-0.9-2V8.8c0-0.7,0.3-1.4,0.8-1.9C13.4,6.3,14,6,14.8,6h18.5
	c0.7,0,1.4,0.3,1.9,0.8C35.7,7.4,36,8,36,8.8v30.5c0,0.7-0.3,1.4-0.8,1.9c-0.6,0.5-1.2,0.8-2,0.8H14.8z M14.8,40.5h18.5
	c0.4,0,0.7-0.1,0.9-0.3s0.3-0.5,0.3-0.9V8.8c0-0.4-0.1-0.7-0.3-0.9c-0.2-0.2-0.5-0.3-0.9-0.3H14.8c-0.4,0-0.7,0.1-0.9,0.3
	s-0.3,0.5-0.3,0.9v30.5c0,0.4,0.1,0.7,0.3,0.9C14.1,40.3,14.4,40.5,14.8,40.5z M24,37c1,0,1.9-0.4,2.7-1.1c0.7-0.7,1.1-1.6,1.1-2.7
	c0-1-0.4-1.9-1.1-2.7c-0.7-0.7-1.6-1.1-2.7-1.1s-1.9,0.4-2.7,1.1c-0.7,0.7-1.1,1.6-1.1,2.7c0,1,0.4,1.9,1.1,2.7
	C22.1,36.6,23,37,24,37z M24,35.7c-0.7,0-1.2-0.2-1.7-0.7s-0.7-1.1-0.7-1.7c0-0.7,0.2-1.2,0.7-1.7s1.1-0.7,1.7-0.7
	c0.7,0,1.2,0.2,1.7,0.7s0.7,1.1,0.7,1.7c0,0.7-0.2,1.2-0.7,1.7C25.3,35.4,24.7,35.7,24,35.7z M24,26.2c0.4,0,0.8-0.1,1.1-0.4
	c0.3-0.3,0.4-0.6,0.4-1.1h-2.9c0,0.4,0.1,0.8,0.4,1.1C23.2,26,23.6,26.2,24,26.2z M17.2,23.5h13.5v-1.3h-1.9v-3.9
	c0-1.3-0.3-2.4-0.9-3.3c-0.6-0.9-1.5-1.5-2.7-1.9v-0.6c0-0.4-0.1-0.7-0.4-0.9s-0.6-0.4-0.9-0.4c-0.4,0-0.7,0.1-0.9,0.4
	c-0.3,0.2-0.4,0.5-0.4,0.9v0.6c-1.2,0.4-2.1,1.1-2.7,2c-0.6,0.9-0.9,2-0.9,3.2v3.9h-1.9C17.2,22.2,17.2,23.5,17.2,23.5z M13.5,40.5
	v-33V40.5z"/>
</svg>
