<?xml version="1.0" encoding="utf-8"?>
<!-- Generator: Adobe Illustrator 26.3.1, SVG Export Plug-In . SVG Version: 6.00 Build 0)  -->
<svg version="1.1" id="Слой_1" xmlns="http://www.w3.org/2000/svg" xmlns:xlink="http://www.w3.org/1999/xlink" x="0px" y="0px"
	 viewBox="0 0 48 48" style="enable-background:new 0 0 48 48;" xml:space="preserve">
<path d="M8,40v-1.5h4V10.8c0-0.8,0.3-1.4,0.8-2C13.3,8.3,14,8,14.8,8h18.5c0.8,0,1.4,0.3,2,0.8c0.5,0.5,0.8,1.2,0.8,2v27.7h4V40H8z
	 M13.5,38.5h20.9V10.8c0-0.3-0.1-0.6-0.4-0.8c-0.3-0.3-0.5-0.4-0.8-0.4H14.8c-0.3,0-0.6,0.1-0.8,0.4c-0.3,0.3-0.4,0.5-0.4,0.8
	C13.5,10.8,13.5,38.5,13.5,38.5z M19.4,25.3c0.4,0,0.7-0.1,1-0.4s0.4-0.6,0.4-1s-0.1-0.7-0.4-1s-0.6-0.4-1-0.4s-0.7,0.1-1,0.4
	s-0.4,0.6-0.4,1s0.1,0.7,0.4,1C18.6,25.2,19,25.3,19.4,25.3z M13.5,9.5v28.9V9.5z"/>
</svg>
