<?xml version="1.0" encoding="utf-8"?>
<!-- Generator: Adobe Illustrator 26.3.1, SVG Export Plug-In . SVG Version: 6.00 Build 0)  -->
<svg version="1.1" id="Слой_1" xmlns="http://www.w3.org/2000/svg" xmlns:xlink="http://www.w3.org/1999/xlink" x="0px" y="0px"
	 viewBox="0 0 48 48" style="enable-background:new 0 0 48 48;" xml:space="preserve">
<path d="M22,25.3c0.4,0,0.7-0.1,0.9-0.4c0.2-0.3,0.4-0.6,0.4-0.9c0-0.4-0.1-0.7-0.4-0.9c-0.2-0.2-0.6-0.4-0.9-0.4s-0.7,0.1-0.9,0.4
	c-0.3,0.2-0.4,0.6-0.4,0.9s0.1,0.7,0.4,0.9C21.3,25.2,21.7,25.3,22,25.3z M13.5,40v-1.5l14.9-1.6V12.7c0-0.7-0.2-1.4-0.7-1.9
	s-1.1-0.8-1.8-0.9L14.8,8.8V7.2l11.5,1.3c1,0.1,1.9,0.5,2.6,1.3s1.1,1.7,1.1,2.8v25.6L13.5,40z M8.9,40v-1.5H12V10
	c0-0.8,0.3-1.4,0.8-2c0.5-0.5,1.2-0.8,2-0.8h18.5c0.8,0,1.4,0.3,2,0.8c0.5,0.5,0.8,1.2,0.8,2v28.5h3.1V40C39.1,40,8.9,40,8.9,40z
	 M13.5,38.5h20.9V10c0-0.4-0.1-0.7-0.3-0.9s-0.5-0.3-0.9-0.3H14.8c-0.4,0-0.7,0.1-0.9,0.3s-0.3,0.5-0.3,0.9
	C13.5,10,13.5,38.5,13.5,38.5z"/>
</svg>
