<?xml version="1.0" encoding="utf-8"?>
<!-- Generator: Adobe Illustrator 26.3.1, SVG Export Plug-In . SVG Version: 6.00 Build 0)  -->
<svg version="1.1" id="Слой_1" xmlns="http://www.w3.org/2000/svg" xmlns:xlink="http://www.w3.org/1999/xlink" x="0px" y="0px"
	 viewBox="0 0 48 48" style="enable-background:new 0 0 48 48;" xml:space="preserve">
<path d="M43.5,32.5l-1.1-1.1c1-1,1.8-2.1,2.3-3.4s0.8-2.6,0.8-4s-0.3-2.7-0.8-4s-1.3-2.4-2.3-3.4l1.1-1.1c1.1,1.1,2,2.5,2.6,3.9
	c0.6,1.5,0.9,3,0.9,4.6s-0.3,3.2-0.9,4.6C45.5,30.1,44.6,31.4,43.5,32.5z M38.1,28.5L37,27.4c0.5-0.5,0.8-1,1.1-1.6s0.4-1.2,0.4-1.9
	s-0.1-1.3-0.4-1.9c-0.3-0.6-0.6-1.1-1.1-1.6l1.2-1.1c0.6,0.6,1.1,1.3,1.4,2.1c0.3,0.8,0.5,1.6,0.5,2.5s-0.2,1.7-0.5,2.5
	C39.2,27.2,38.7,27.9,38.1,28.5z M24,43c-2.5,0-4.6-0.9-6.4-2.6S15,36.5,15,34V14c0-2.5,0.9-4.6,2.6-6.4C19.4,5.9,21.5,5,24,5
	s4.6,0.9,6.4,2.6C32.1,9.4,33,11.5,33,14v20c0,2.5-0.9,4.6-2.6,6.4C28.6,42.1,26.5,43,24,43z M24,41.5c2.1,0,3.9-0.7,5.3-2.2
	c1.4-1.4,2.2-3.2,2.2-5.3V14c0-2.1-0.7-3.9-2.2-5.3c-1.4-1.4-3.2-2.2-5.3-2.2s-3.9,0.7-5.3,2.2c-1.4,1.4-2.2,3.2-2.2,5.3v20
	c0,2.1,0.7,3.9,2.2,5.3C20.1,40.7,21.9,41.5,24,41.5z M24,35.8c1,0,1.9-0.4,2.7-1.1c0.7-0.7,1.1-1.6,1.1-2.7s-0.4-1.9-1.1-2.7
	c-0.7-0.7-1.6-1.1-2.7-1.1c-1,0-1.9,0.4-2.7,1.1c-0.7,0.7-1.1,1.6-1.1,2.7c0,1,0.4,1.9,1.1,2.7S23,35.8,24,35.8z M24,34.3
	c-0.7,0-1.2-0.2-1.7-0.7c-0.4-0.4-0.7-1-0.7-1.7s0.2-1.2,0.7-1.7s1-0.7,1.6-0.7c0.7,0,1.2,0.2,1.7,0.7s0.7,1,0.7,1.7
	s-0.2,1.2-0.7,1.7C25.2,34.1,24.7,34.3,24,34.3z M24,19.8c1,0,1.9-0.4,2.7-1.1c0.7-0.7,1.1-1.6,1.1-2.7s-0.4-1.9-1.1-2.7
	c-0.7-0.7-1.6-1.1-2.7-1.1c-1,0-1.9,0.4-2.7,1.1c-0.7,0.7-1.1,1.6-1.1,2.7s0.4,1.9,1.1,2.7S23,19.8,24,19.8z"/>
</svg>
