<?xml version="1.0" encoding="utf-8"?>
<!-- Generator: Adobe Illustrator 26.3.1, SVG Export Plug-In . SVG Version: 6.00 Build 0)  -->
<svg version="1.1" id="Слой_1" xmlns="http://www.w3.org/2000/svg" xmlns:xlink="http://www.w3.org/1999/xlink" x="0px" y="0px"
	 viewBox="0 0 48 48" style="enable-background:new 0 0 48 48;" xml:space="preserve">
<path d="M21.9,41.9c-2.3-0.2-4.3-0.9-6.3-1.9c-1.9-1-3.6-2.4-5-4s-2.5-3.4-3.3-5.5S6.1,26.3,6.1,24c0-4.6,1.5-8.7,4.5-12.1
	S17.4,6.5,22,6.1v1.5c-4.1,0.6-7.5,2.4-10.3,5.5S7.6,19.8,7.6,24c0,4.1,1.4,7.8,4.1,10.9c2.7,3.1,6.1,4.9,10.2,5.5V41.9z M24,32.6
	L15.4,24l1.1-1.1l6.7,6.7V15.4h1.5v14.3l6.8-6.8l1.1,1.1L24,32.6z M26.1,41.9v-1.5c1.5-0.2,2.9-0.6,4.2-1.1c1.4-0.5,2.6-1.3,3.8-2.2
	l1.2,1.1c-1.4,1-2.8,1.8-4.4,2.4C29.4,41.3,27.8,41.7,26.1,41.9z M34.3,11c-1.2-0.9-2.5-1.6-3.9-2.2c-1.4-0.6-2.8-1-4.3-1.2V6.1
	c1.7,0.2,3.3,0.7,4.8,1.3s3,1.5,4.4,2.5C35.4,9.8,34.3,11,34.3,11z M38.2,35.2l-1.1-1.1c0.9-1.2,1.6-2.5,2.2-3.8
	c0.5-1.4,0.9-2.8,1.1-4.3h1.5c-0.2,1.7-0.6,3.3-1.3,4.8C40,32.4,39.2,33.8,38.2,35.2z M40.4,22c-0.2-1.5-0.6-2.9-1.1-4.3
	s-1.3-2.6-2.2-3.8l1.3-1.1c0.9,1.4,1.7,2.8,2.3,4.4s1,3.2,1.3,4.8C41.9,22,40.4,22,40.4,22z"/>
</svg>
