<?xml version="1.0" encoding="utf-8"?>
<!-- Generator: Adobe Illustrator 26.3.1, SVG Export Plug-In . SVG Version: 6.00 Build 0)  -->
<svg version="1.1" id="Слой_1" xmlns="http://www.w3.org/2000/svg" xmlns:xlink="http://www.w3.org/1999/xlink" x="0px" y="0px"
	 viewBox="0 0 48 48" style="enable-background:new 0 0 48 48;" xml:space="preserve">
<path d="M29.2,40.5h2.9v-4.3l5.3-1.2c0.7-0.2,1.4-0.3,2.2-0.4c0.8-0.1,1.2-0.5,1.2-1.1c0-0.3-0.2-0.6-0.5-0.9
	c-0.3-0.2-0.8-0.4-1.4-0.6c-1.2-0.4-2.2-0.9-2.9-1.7c-0.7-0.8-1.1-1.6-1-2.5c0.1-0.7,0.5-1.3,1.1-1.9s1.5-1.1,2.4-1.4
	s1.6-0.7,2.1-1.2s0.8-1,0.8-1.5c0-0.6-0.3-1.1-0.9-1.5c-0.6-0.4-1.2-0.5-1.8-0.2c-0.2,0.1-0.4,0.1-0.6,0.2c-0.2,0-0.4,0.1-0.6,0.1
	c-0.9,0-1.6-0.3-2.3-1c-0.6-0.7-1-1.5-1-2.4s0.2-1.7,0.7-2.5s0.7-1.5,0.7-2.3c0-0.7-0.3-1.2-0.8-1.6C34.3,10.2,33.7,10,33,10
	c-0.8,0-1.4,0.3-2,0.9c-0.5,0.6-0.8,1.4-0.8,2.5c0,0.4,0,0.8,0.1,1.4c0.1,0.6,0.1,1.1,0.1,1.5c0,1.3-0.3,2.5-1,3.3
	c-0.7,0.9-1.5,1.3-2.4,1.3c-0.4,0-0.8-0.1-1.2-0.2c-0.4-0.1-0.8-0.1-1.1-0.1c-0.3,0-0.5,0-0.6,0.1C24,20.5,24,20.6,24,20.8
	c0,0.4,0.2,0.8,0.7,1.1c0.4,0.3,0.9,0.7,1.4,1.1c0.7,0.6,1.3,1.3,1.7,2.1c0.4,0.8,0.6,1.5,0.6,2.2c0,0.9-0.4,1.7-1.1,2.3
	c-0.7,0.7-1.5,1-2.4,1c-0.4,0-0.7,0-1.1-0.1s-0.8-0.1-1.2-0.1c-0.9,0-1.6,0-2.1,0.3c-0.5,0.2-0.8,0.6-0.8,1.1c0,0.4,0.2,0.8,0.7,1.2
	s1.1,0.6,1.9,0.7l6.8,1.1C29.2,34.6,29.2,40.5,29.2,40.5z M7.4,40L6,39.3l9.3-20.2l1.4,0.6C16.7,19.7,7.4,40,7.4,40z M27.6,42v-6.1
	L22.1,35c-1.3-0.2-2.2-0.6-2.9-1.2c-0.7-0.6-1-1.3-1-2.2c0-0.9,0.3-1.6,1-2.1s1.5-0.7,2.7-0.8c0.6,0,1.1,0,1.6,0.1s0.9,0.1,1.3,0.1
	c0.6,0,1.1-0.2,1.5-0.5c0.4-0.4,0.6-0.8,0.6-1.4c0-0.5-0.2-1-0.5-1.5s-0.8-1.1-1.5-1.7c-0.5-0.5-1-0.9-1.5-1.4s-0.8-1.1-0.8-1.8
	c0-0.6,0.2-1.1,0.6-1.5s1-0.6,1.6-0.6c0.4,0,0.8,0.1,1.2,0.2c0.3,0.3,0.6,0.3,1,0.3c0.6,0,1.1-0.2,1.4-0.7s0.5-1.2,0.5-2.3
	c0-0.6,0-1.1-0.1-1.7c-0.1-0.5-0.1-1-0.1-1.5c0-1.6,0.4-2.7,1.1-3.6c0.7-0.8,1.8-1.2,3-1.2s2.2,0.3,3,1s1.2,1.6,1.2,2.6
	s-0.2,1.8-0.7,2.6s-0.7,1.5-0.7,2.3c0,0.5,0.2,1,0.5,1.3c0.3,0.4,0.8,0.6,1.3,0.6c0.3,0,0.6-0.1,0.9-0.2c0.3-0.1,0.7-0.2,1.1-0.2
	c0.9,0,1.8,0.3,2.4,1c0.7,0.7,1,1.5,1,2.5c0,0.9-0.3,1.7-1,2.4c-0.6,0.7-1.6,1.2-2.8,1.6c-0.9,0.3-1.5,0.6-1.9,1s-0.7,0.8-0.7,1.2
	c0,0.5,0.3,1,0.8,1.4c0.5,0.5,1.3,0.8,2.3,1.1c1,0.3,1.6,0.7,2.1,1.1c0.4,0.4,0.6,1,0.6,1.6c0,1.2-0.5,2-1.6,2.4s-2.1,0.7-3,0.9
	l-4.1,0.9V42C33.6,42,27.6,42,27.6,42z M7.8,20.4c-0.6-0.8-1-1.7-1.3-2.6S6,15.9,6,14.9c0-2.5,0.9-4.6,2.6-6.3S12.4,6,14.9,6
	c1,0,2,0.2,3,0.5s1.8,0.8,2.6,1.4l-1.1,1c-0.6-0.4-1.3-0.8-2.1-1S15.8,7.5,15,7.5c-2.1,0-3.8,0.7-5.3,2.2c-1.5,1.4-2.2,3.2-2.2,5.2
	c0,0.8,0.1,1.6,0.3,2.3c0.2,0.7,0.6,1.4,1,2.1C8.9,19.3,7.8,20.4,7.8,20.4z"/>
</svg>
