<?xml version="1.0" encoding="utf-8"?>
<!-- Generator: Adobe Illustrator 26.3.1, SVG Export Plug-In . SVG Version: 6.00 Build 0)  -->
<svg version="1.1" id="Слой_1" xmlns="http://www.w3.org/2000/svg" xmlns:xlink="http://www.w3.org/1999/xlink" x="0px" y="0px"
	 viewBox="0 0 48 48" style="enable-background:new 0 0 48 48;" xml:space="preserve">
<path d="M10,41V10.8c0-0.7,0.3-1.4,0.8-1.9C11.4,8.3,12,8,12.8,8h22.5c0.7,0,1.4,0.3,1.9,0.8c0.5,0.6,0.8,1.2,0.8,2V41h-1.5v-4.5
	h-25V41H10z M11.5,23.5h11.7v-14H12.8c-0.4,0-0.7,0.1-0.9,0.3s-0.3,0.5-0.3,0.9v12.8H11.5z M24.8,15.7h11.7v-5
	c0-0.4-0.1-0.7-0.3-0.9s-0.5-0.3-0.9-0.3H24.8V15.7z M24.8,23.5h11.7v-6.2H24.8V23.5z M21.2,30.8h5.5v-1.5h-5.5V30.8z M11.5,25v10
	h24.9V25H11.5z M11.5,25v10V25z"/>
</svg>
