<?xml version="1.0" encoding="utf-8"?>
<!-- Generator: Adobe Illustrator 26.3.1, SVG Export Plug-In . SVG Version: 6.00 Build 0)  -->
<svg version="1.1" id="Слой_1" xmlns="http://www.w3.org/2000/svg" xmlns:xlink="http://www.w3.org/1999/xlink" x="0px" y="0px"
	 viewBox="0 0 48 48" style="enable-background:new 0 0 48 48;" xml:space="preserve">
<path d="M24.3,32.3l6.3-6.3l-6.3-6.3l-1.1,1.1l4.4,4.4H17.4v1.5h10.2l-4.4,4.5L24.3,32.3z M8.8,38c-0.8,0-1.4-0.3-2-0.8S6,36,6,35.2
	v-21c0-0.8,0.3-1.4,0.8-1.9s1.2-0.8,2-0.8H22l2,2h15.2c0.8,0,1.4,0.3,2,0.8s0.8,1.2,0.8,2v18.9c0,0.8-0.3,1.4-0.8,2S40,38,39.2,38
	H8.8z M7.6,14.3v21c0,0.3,0.1,0.6,0.4,0.8c0.2,0.2,0.5,0.3,0.9,0.3h30.5c0.4,0,0.7-0.1,0.9-0.3s0.3-0.5,0.3-0.8v-19
	c0-0.4-0.1-0.7-0.3-0.9s-0.5-0.3-0.9-0.3h-16l-2-2H8.8c-0.3,0-0.6,0.1-0.9,0.3C7.7,13.6,7.6,13.9,7.6,14.3z M7.6,14.3v-1.2v23.4
	v-1.2V14.3z"/>
</svg>
