<?xml version="1.0" encoding="utf-8"?>
<!-- Generator: Adobe Illustrator 26.3.1, SVG Export Plug-In . SVG Version: 6.00 Build 0)  -->
<svg version="1.1" id="Слой_1" xmlns="http://www.w3.org/2000/svg" xmlns:xlink="http://www.w3.org/1999/xlink" x="0px" y="0px"
	 viewBox="0 0 48 48" style="enable-background:new 0 0 48 48;" xml:space="preserve">
<path d="M17.1,40l3.5-3.5H42V40H17.1z M7.6,38.5h1.8l22-22l-1.9-1.9l-22,22L7.6,38.5z M34.8,15.3l-4-4.1L32.9,9
	c0.3-0.3,0.7-0.4,1.1-0.4s0.8,0.2,1.2,0.4l1.9,1.8c0.3,0.3,0.4,0.7,0.4,1.1c0,0.4-0.1,0.8-0.5,1.1L34.8,15.3z M33.7,16.4L10,40H6v-4
	l23.6-23.6L33.7,16.4z M30.5,15.5l-1-0.9l1.9,1.9L30.5,15.5z"/>
</svg>
