<?xml version="1.0" encoding="utf-8"?>
<!-- Generator: Adobe Illustrator 26.3.1, SVG Export Plug-In . SVG Version: 6.00 Build 0)  -->
<svg version="1.1" id="Слой_1" xmlns="http://www.w3.org/2000/svg" xmlns:xlink="http://www.w3.org/1999/xlink" x="0px" y="0px"
	 viewBox="0 0 48 48" style="enable-background:new 0 0 48 48;" xml:space="preserve">
<path d="M31.7,16.4c0.1-1.1,0-2.1-0.3-2.9c-0.3-0.8-0.8-1.8-1.6-2.8c-0.8-1-1.4-2-1.6-2.9c-0.3-0.9-0.4-2.1-0.3-3.3h1.5
	c-0.1,1.1-0.1,2,0.2,2.7c0.2,0.8,0.8,1.8,1.8,3.2c0.7,1,1.2,2,1.5,2.9s0.4,2,0.3,3.2h-1.5V16.4z M38.5,16.4c0.1-1.1,0-2.1-0.3-2.9
	c-0.3-0.8-0.8-1.8-1.6-2.8s-1.4-2-1.6-2.9c-0.3-0.9-0.4-2.1-0.2-3.3h1.5c-0.1,1.1-0.1,2,0.2,2.7c0.2,0.8,0.8,1.8,1.8,3.2
	c0.7,1,1.2,2,1.5,2.9s0.4,2,0.3,3.2h-1.6V16.4z M12.8,42c-1.9,0-3.5-0.6-4.8-1.7c-1.3-1.2-2-2.7-2-4.6v-9.9c0-0.8,0.2-1.6,0.6-2.3
	c0.4-0.7,0.9-1.3,1.6-1.8l16.1-10.4l0.2,0.2c0.4,0.4,0.6,0.9,0.7,1.4c0.1,0.6-0.1,1.1-0.3,1.6l-3.7,6.2h16.1c0.2,0,0.4,0.1,0.6,0.2
	s0.2,0.3,0.2,0.6c0,0.2-0.1,0.4-0.2,0.5c-0.1,0.1-0.3,0.2-0.6,0.2H18.4l5.3-8.8L9.1,23.1c-0.5,0.3-0.9,0.7-1.1,1.1
	c-0.3,0.5-0.4,1-0.4,1.6v9.9c0,1.4,0.5,2.6,1.5,3.5s2.3,1.3,3.7,1.3h22.5c0.2,0,0.4,0.1,0.6,0.2S36,41,36,41.2s-0.1,0.4-0.2,0.5
	c-0.1,0.1-0.3,0.2-0.6,0.2C35.2,42,12.8,42,12.8,42z M26,28.9v-1.5h15.2c0.2,0,0.4,0.1,0.6,0.2c0.1,0.1,0.2,0.3,0.2,0.6
	c0,0.2-0.1,0.4-0.2,0.5c-0.1,0.1-0.3,0.2-0.6,0.2C41.2,28.9,26,28.9,26,28.9z M26,35.5V34h13.2c0.2,0,0.4,0.1,0.6,0.2
	c0.1,0.1,0.2,0.3,0.2,0.6c0,0.2-0.1,0.4-0.2,0.6c-0.1,0.1-0.3,0.2-0.6,0.2C39.2,35.5,26,35.5,26,35.5z"/>
</svg>
