<?xml version="1.0" encoding="utf-8"?>
<!-- Generator: Adobe Illustrator 26.3.1, SVG Export Plug-In . SVG Version: 6.00 Build 0)  -->
<svg version="1.1" id="Слой_1" xmlns="http://www.w3.org/2000/svg" xmlns:xlink="http://www.w3.org/1999/xlink" x="0px" y="0px"
	 viewBox="0 0 48 48" style="enable-background:new 0 0 48 48;" xml:space="preserve">
<path d="M13.8,34.7L24.3,40c0.4,0.2,0.8,0.1,1.2-0.1c0.4-0.2,0.5-0.6,0.5-1V13.3c0-0.3-0.1-0.5-0.2-0.7s-0.3-0.4-0.6-0.5L13.1,7.3
	v27.4H13.8z M13.3,37.2c-0.5-0.2-0.9-0.5-1.3-1c-0.3-0.5-0.5-1-0.5-1.6v-27c0-0.4,0.2-0.8,0.5-1.1C12.3,6.2,12.7,6,13.2,6l12.6,4.7
	c0.5,0.2,0.9,0.5,1.3,1s0.5,1,0.5,1.6v25.6c0,1-0.4,1.7-1.2,2.3c-0.8,0.6-1.7,0.6-2.6,0.3C23.7,41.4,13.3,37.2,13.3,37.2z M26,36
	v-1.5h7.7c0.4,0,0.7-0.1,0.9-0.3s0.3-0.5,0.3-0.9V8.8c0-0.4-0.1-0.7-0.3-0.9c-0.2-0.2-0.5-0.3-0.9-0.3H13.2V6h20.5
	c0.8,0,1.4,0.3,2,0.8c0.5,0.6,0.8,1.2,0.8,1.9v24.5c0,0.7-0.3,1.4-0.8,1.9c-0.6,0.6-1.2,0.8-1.9,0.8L26,36L26,36z M13.1,34.7V7.3
	V34.7z"/>
</svg>
