<?xml version="1.0" encoding="utf-8"?>
<!-- Generator: Adobe Illustrator 26.3.1, SVG Export Plug-In . SVG Version: 6.00 Build 0)  -->
<svg version="1.1" id="Слой_1" xmlns="http://www.w3.org/2000/svg" xmlns:xlink="http://www.w3.org/1999/xlink" x="0px" y="0px"
	 viewBox="0 0 48 48" style="enable-background:new 0 0 48 48;" xml:space="preserve">
<path d="M24,42c-2.5,0-4.8-0.5-7-1.4s-4.1-2.2-5.7-3.8s-2.9-3.5-3.8-5.7C6.5,28.8,6,26.5,6,24s0.5-4.8,1.4-7s2.2-4.1,3.8-5.7
	s3.5-2.9,5.7-3.8C19.2,6.5,21.5,6,24,6h15.2c0.8,0,1.4,0.3,2,0.8C41.7,7.3,42,8,42,8.8V24c0,2.5-0.5,4.8-1.4,7s-2.2,4.1-3.8,5.7
	c-1.6,1.6-3.5,2.9-5.7,3.8C28.8,41.5,26.5,42,24,42z M24,40.5c4.6,0,8.5-1.6,11.7-4.8s4.8-7.1,4.8-11.7V8.8c0-0.4-0.1-0.7-0.3-0.9
	c-0.2-0.2-0.5-0.3-0.9-0.3H24c-4.6,0-8.5,1.6-11.7,4.8c-3.2,3.1-4.8,7-4.8,11.6s1.6,8.5,4.8,11.7S19.4,40.5,24,40.5z M15.6,28.6
	h11.9v-4.2l6.1,4.2v-9.9l-6.1,4.2v-4.2H15.6V28.6z"/>
</svg>
