<?xml version="1.0" encoding="utf-8"?>
<!-- Generator: Adobe Illustrator 26.3.1, SVG Export Plug-In . SVG Version: 6.00 Build 0)  -->
<svg version="1.1" id="Слой_1" xmlns="http://www.w3.org/2000/svg" xmlns:xlink="http://www.w3.org/1999/xlink" x="0px" y="0px"
	 viewBox="0 0 48 48" style="enable-background:new 0 0 48 48;" xml:space="preserve">
<path d="M9.2,39.5c-0.8,0-1.4-0.3-2-0.8c-0.5-0.5-0.8-1.2-0.8-2V23.4H8v13.3c0,0.3,0.1,0.6,0.4,0.8S8.9,38,9.2,38h17.4v1.5H9.2z
	 M15.9,32.9c-0.8,0-1.4-0.3-2-0.8c-0.5-0.5-0.8-1.2-0.8-2V16.8h1.5v13.3c0,0.3,0.1,0.6,0.4,0.8c0.3,0.3,0.5,0.4,0.8,0.4h17.4v1.5
	H15.9V32.9z M22.5,26.3c-0.8,0-1.4-0.3-2-0.8c-0.5-0.5-0.8-1.2-0.8-2V11.2c0-0.8,0.3-1.4,0.8-2c0.5-0.5,1.2-0.8,2-0.8h16.3
	c0.8,0,1.4,0.3,2,0.8c0.5,0.5,0.8,1.2,0.8,2v12.3c0,0.8-0.3,1.4-0.8,2c-0.5,0.5-1.2,0.8-2,0.8H22.5z M22.5,24.8h16.3
	c0.3,0,0.6-0.1,0.8-0.4c0.3-0.3,0.4-0.5,0.4-0.8v-9.9H21.2v9.9c0,0.3,0.1,0.6,0.4,0.8C21.9,24.6,22.2,24.8,22.5,24.8z"/>
</svg>
