<?xml version="1.0" encoding="utf-8"?>
<!-- Generator: Adobe Illustrator 26.3.1, SVG Export Plug-In . SVG Version: 6.00 Build 0)  -->
<svg version="1.1" id="Слой_1" xmlns="http://www.w3.org/2000/svg" xmlns:xlink="http://www.w3.org/1999/xlink" x="0px" y="0px"
	 viewBox="0 0 48 48" style="enable-background:new 0 0 48 48;" xml:space="preserve">
<path d="M7.8,22.2c-0.7,0-1.4-0.3-1.9-0.8C5.3,20.9,5,20.2,5,19.5v-7.7c0-0.7,0.3-1.4,0.8-1.9C6.4,9.3,7,9,7.8,9h18.7v13.2H7.8z
	 M7.8,20.7H25V10.5H7.8c-0.4,0-0.7,0.1-0.9,0.3c-0.2,0.2-0.3,0.5-0.3,0.9v7.7c0,0.4,0.1,0.7,0.3,0.9C7.1,20.6,7.4,20.7,7.8,20.7z
	 M7.8,39c-0.7,0-1.4-0.3-1.9-0.8C5.3,37.6,5,37,5,36.2v-7.7c0-0.7,0.3-1.4,0.8-1.9c0.6-0.6,1.2-0.8,2-0.8h22.7V39H7.8z M7.8,37.5H29
	V27.3H7.8c-0.4,0-0.7,0.1-0.9,0.3c-0.2,0.2-0.3,0.5-0.3,0.9v7.7c0,0.4,0.1,0.7,0.3,0.9C7.1,37.3,7.4,37.5,7.8,37.5z M34,39V22.2h-4
	V9h12.5l-4,10.7h3.9L34,39z M10.1,33.9h3v-3h-3V33.9z M10.1,17.1h3v-3h-3V17.1z M6.5,20.7V10.5V20.7z M6.5,37.5V27.3V37.5z"/>
</svg>
