<?xml version="1.0" encoding="utf-8"?>
<!-- Generator: Adobe Illustrator 26.3.1, SVG Export Plug-In . SVG Version: 6.00 Build 0)  -->
<svg version="1.1" id="Слой_1" xmlns="http://www.w3.org/2000/svg" xmlns:xlink="http://www.w3.org/1999/xlink" x="0px" y="0px"
	 viewBox="0 0 48 48" style="enable-background:new 0 0 48 48;" xml:space="preserve">
<path d="M11.6,38v-1.5h2.9l3.9-13c0.1-0.6,0.5-1.1,0.9-1.5c0.5-0.4,1-0.5,1.7-0.5h6c0.6,0,1.2,0.2,1.7,0.5c0.5,0.4,0.8,0.8,0.9,1.5
	l3.9,13h2.9V38H11.6z M16.1,36.5h15.7l-3.7-12.6c-0.1-0.3-0.2-0.5-0.4-0.7C27.5,23.1,27.2,23,27,23h-6c-0.3,0-0.5,0.1-0.8,0.2
	c-0.2,0.2-0.4,0.4-0.4,0.7L16.1,36.5z M23.2,15.3V7.8h1.5v7.5H23.2z M34.1,19.8L33,18.7l5.4-5.3l1.1,1.1
	C39.4,14.5,34.1,19.8,34.1,19.8z M37.5,29.5V28H45v1.5H37.5z M13.9,19.8l-5.3-5.4l1.1-1.1l5.4,5.3C15.1,18.7,13.9,19.8,13.9,19.8z
	 M3,29.5V28h7.5v1.5H3z"/>
</svg>
