<?xml version="1.0" encoding="utf-8"?>
<!-- Generator: Adobe Illustrator 26.3.1, SVG Export Plug-In . SVG Version: 6.00 Build 0)  -->
<svg version="1.1" id="Слой_1" xmlns="http://www.w3.org/2000/svg" xmlns:xlink="http://www.w3.org/1999/xlink" x="0px" y="0px"
	 viewBox="0 0 48 48" style="enable-background:new 0 0 48 48;" xml:space="preserve">
<path d="M37.5,14.5v-1.4H39v1.4h2.5c0.4,0,0.7,0.1,1,0.4s0.4,0.6,0.4,1v17.7c0,0.4-0.1,0.7-0.4,1S42,35,41.6,35h-6.5
	c-0.4,0-0.7-0.1-1-0.4c-0.3-0.3-0.4-0.6-0.4-1V15.9c0-0.4,0.1-0.7,0.4-1c0.3-0.3,0.6-0.4,1-0.4H37.5z M35.3,33.5h6.2H35.3z M11,35
	c-1.7,0-3.1-0.6-4.3-1.7C5.6,32.1,5,30.7,5,29.1V16.3c0-0.9,0.3-1.6,0.9-2.2c0.6-0.6,1.4-0.9,2.2-0.9c0.9,0,1.6,0.3,2.2,0.9
	c0.6,0.6,0.9,1.4,0.9,2.2c0,0.9-0.3,1.6-0.9,2.2c-0.6,0.6-1.4,0.9-2.2,0.9c-0.3,0-0.6,0-1-0.1c-0.3-0.1-0.6-0.2-0.9-0.4v10.2
	c0,1.3,0.5,2.4,1.4,3.3c0.9,0.9,2,1.3,3.3,1.3s2.4-0.4,3.3-1.3c0.9-0.9,1.4-2,1.4-3.3v-10c0-1.6,0.6-3,1.8-4.2
	c1.2-1.2,2.6-1.7,4.3-1.7s3.1,0.6,4.3,1.7c1.2,1.1,1.8,2.5,1.8,4.2v12.8c0,0.9-0.3,1.6-0.9,2.2c-0.6,0.6-1.4,0.9-2.2,0.9
	c-0.9,0-1.6-0.3-2.2-0.9c-0.6-0.6-0.9-1.4-0.9-2.2c0-0.9,0.3-1.6,0.9-2.2s1.4-0.9,2.2-0.9c0.3,0,0.6,0,1,0.1
	c0.3,0.1,0.6,0.2,0.9,0.4V19.1c0-1.3-0.5-2.4-1.4-3.3c-0.9-0.9-2-1.3-3.3-1.3s-2.4,0.4-3.3,1.3s-1.4,2-1.4,3.3v10
	c0,1.6-0.6,3-1.8,4.2C14.1,34.4,12.7,35,11,35z M35.3,33.5h6.2V16.1h-6.2V33.5z"/>
</svg>
