<?xml version="1.0" encoding="utf-8"?>
<!-- Generator: Adobe Illustrator 26.3.1, SVG Export Plug-In . SVG Version: 6.00 Build 0)  -->
<svg version="1.1" id="Слой_1" xmlns="http://www.w3.org/2000/svg" xmlns:xlink="http://www.w3.org/1999/xlink" x="0px" y="0px"
	 viewBox="0 0 48 48" style="enable-background:new 0 0 48 48;" xml:space="preserve">
<path d="M6,18.9v-6.2c0-0.8,0.3-1.4,0.8-2C7.3,10.3,8,10,8.8,10h30.5c0.8,0,1.4,0.3,2,0.8c0.5,0.5,0.8,1.2,0.8,2V24h-1.5V12.8
	c0-0.3-0.1-0.6-0.4-0.8c-0.3-0.3-0.5-0.4-0.8-0.4H8.8c-0.3,0-0.6,0.1-0.8,0.4c-0.3,0.3-0.4,0.5-0.4,0.8V19H6V18.9z M8.8,38
	c-0.8,0-1.4-0.3-2-0.8C6.3,36.7,6,36,6,35.2V29h1.5v6.2c0,0.3,0.1,0.6,0.4,0.8c0.3,0.3,0.5,0.4,0.8,0.4H22V38H8.8z M36,43.3L33.3,41
	c-2.6-2.2-4.2-3.7-4.9-4.7c-0.7-0.9-1.1-1.8-1.1-2.8c0-1.2,0.4-2.2,1.2-3c0.8-0.8,1.8-1.3,3-1.3c0.6,0,1.2,0.1,1.7,0.4
	s1.1,0.7,1.6,1.2l1.2,1l1.1-1c0.5-0.5,1.1-0.9,1.6-1.2c0.6-0.3,1.2-0.4,1.8-0.4c1.1,0,2.1,0.4,3,1.3c0.8,0.8,1.2,1.9,1.2,3
	c0,0.9-0.4,1.9-1.1,2.8c-0.8,0.9-2.5,2.5-5.1,4.8L36,43.3z M36,41.2l1.6-1.4c2.3-2,3.8-3.3,4.5-4.1s1-1.5,1-2.1c0-0.8-0.3-1.4-0.8-2
	c-0.5-0.5-1.1-0.8-1.9-0.8c-0.4,0-0.8,0.1-1.2,0.2c-0.3,0.2-0.7,0.4-1.1,0.8L36,34.1L33.7,32c-0.4-0.4-0.8-0.7-1.1-0.8
	C32.3,31,31.9,31,31.5,31c-0.7,0-1.4,0.3-1.9,0.8c-0.5,0.5-0.8,1.2-0.8,2c0,0.6,0.4,1.4,1.3,2.4s2.3,2.3,4.3,3.9L36,41.2z M14,32.8
	c-0.2,0-0.3,0-0.4-0.1c-0.1-0.1-0.2-0.2-0.3-0.3l-3.7-7.6H6v-1.5h4c0.1,0,0.3,0,0.4,0.1c0.1,0.1,0.2,0.2,0.2,0.3l3.4,6.6l7.3-14.6
	c0.1-0.1,0.1-0.2,0.3-0.2c0.1-0.1,0.3-0.1,0.4-0.1s0.3,0,0.4,0.1s0.2,0.1,0.3,0.2l3.8,7.6h6.3v1.5H26c-0.2,0-0.3,0-0.4-0.1
	s-0.2-0.2-0.2-0.3L22,17.7l-7.3,14.6c-0.1,0.1-0.2,0.2-0.3,0.3C14.3,32.7,14.1,32.8,14,32.8z"/>
</svg>
