<?xml version="1.0" encoding="utf-8"?>
<!-- Generator: Adobe Illustrator 26.3.1, SVG Export Plug-In . SVG Version: 6.00 Build 0)  -->
<svg version="1.1" id="Слой_1" xmlns="http://www.w3.org/2000/svg" xmlns:xlink="http://www.w3.org/1999/xlink" x="0px" y="0px"
	 viewBox="0 0 48 48" style="enable-background:new 0 0 48 48;" xml:space="preserve">
<path d="M24,40c-0.3,0-0.6-0.1-1-0.2c-0.3-0.1-0.6-0.3-0.8-0.6L9.6,26.6c-1.2-1.2-2.1-2.5-2.7-3.9c-0.6-1.5-0.9-3-0.9-4.5
	c0-2.9,0.9-5.3,2.7-7.3s4-3,6.6-3c1.4,0,2.7,0.3,3.9,0.9c1.3,0.6,2.4,1.4,3.4,2.4l1.3,1.4l1.3-1.3c1-1.1,2.2-1.9,3.4-2.5
	c1.3-0.6,2.6-0.9,3.9-0.9c2.6,0,4.8,1,6.6,3s2.7,4.4,2.7,7.3c0,1.6-0.3,3.1-0.9,4.5c-0.6,1.5-1.5,2.8-2.7,3.9L25.7,39.3
	c-0.3,0.3-0.5,0.4-0.8,0.6S24.3,40,24,40z M26,17.2c0.1,0,0.2,0,0.4,0.1c0.1,0.1,0.2,0.1,0.3,0.3l3.7,5.6H39
	c0.5-0.8,0.8-1.7,1.1-2.5c0.2-0.9,0.4-1.7,0.4-2.6c0-2.4-0.8-4.5-2.3-6.2s-3.3-2.6-5.5-2.6c-1.2,0-2.3,0.2-3.4,0.7s-2,1.2-2.8,2.1
	L24.7,14c-0.1,0.1-0.2,0.2-0.3,0.2c-0.1,0.1-0.2,0.1-0.3,0.1c-0.1,0-0.3,0-0.4-0.1s-0.2-0.1-0.3-0.2l-1.8-1.9
	c-0.8-0.9-1.8-1.6-2.9-2c-1.1-0.5-2.2-0.7-3.3-0.7c-2.2,0-4,0.9-5.5,2.6s-2.3,3.8-2.3,6.2c0,0.9,0.1,1.8,0.4,2.6
	c0.2,0.9,0.6,1.7,1,2.5h9c0.1,0,0.2,0,0.4,0.1c0.1,0.1,0.2,0.1,0.3,0.2l3.1,4.8l3.5-10.5c0.1-0.2,0.1-0.3,0.3-0.4
	C25.7,17.3,25.8,17.2,26,17.2z M26.2,19.7l-3.5,10.5c0,0.2-0.1,0.3-0.3,0.4c-0.1,0.1-0.3,0.1-0.5,0.1c-0.1,0-0.2,0-0.3-0.1
	c-0.1-0.1-0.2-0.1-0.2-0.3l-3.8-5.6H10l13.4,13.4c0.1,0.1,0.2,0.2,0.3,0.2c0.1,0,0.2,0.1,0.4,0.1c0.1,0,0.3,0,0.4-0.1
	c0.1,0,0.2-0.1,0.3-0.2L38,24.8h-8c-0.1,0-0.3,0-0.4-0.1s-0.2-0.2-0.3-0.3L26.2,19.7z"/>
</svg>
