<?xml version="1.0" encoding="utf-8"?>
<!-- Generator: Adobe Illustrator 26.3.1, SVG Export Plug-In . SVG Version: 6.00 Build 0)  -->
<svg version="1.1" id="Слой_1" xmlns="http://www.w3.org/2000/svg" xmlns:xlink="http://www.w3.org/1999/xlink" x="0px" y="0px"
	 viewBox="0 0 48 48" style="enable-background:new 0 0 48 48;" xml:space="preserve">
<path d="M12.1,37.8c-1.3-1.3-2.3-2.9-3-4.6C8.4,31.5,8,29.8,8,28c0-2,0.4-3.9,1.1-5.7c0.7-1.8,1.9-3.5,3.4-5c1.3-1.3,2.9-2.3,4.9-3
	s4.1-1.2,6.4-1.6c2.3-0.3,4.6-0.5,7.1-0.6c2.4,0,4.8,0,7,0.1c0.1,2.2,0.2,4.6,0.2,7s-0.2,4.8-0.6,7.1s-0.9,4.4-1.6,6.4
	c-0.7,2-1.7,3.6-3,4.8c-1.5,1.5-3.1,2.7-4.9,3.4S24.4,42,22.5,42s-3.8-0.4-5.6-1.1S13.4,39.2,12.1,37.8z M15.3,38.3
	c1,0.7,2.1,1.2,3.4,1.6c1.3,0.4,2.5,0.5,3.7,0.5c1.7,0,3.3-0.3,4.9-1s3.1-1.7,4.4-3.1c0.7-0.7,1.4-1.7,2-3s1.1-2.8,1.6-4.7
	c0.4-1.9,0.7-4,0.9-6.5s0.2-5.3,0.1-8.6c-2.3-0.1-4.6-0.1-6.9,0S25,13.8,23,14.2s-3.8,0.9-5.4,1.5c-1.6,0.6-2.9,1.4-3.9,2.4
	c-1.4,1.4-2.5,3-3.1,4.6c-0.7,1.7-1,3.2-1,4.7c0,1.7,0.3,3.3,1,5s1.7,3.1,2.9,4.2c1-2.7,2.4-5.1,4.2-7.3c1.8-2.2,4.3-4.3,7.3-6.1
	c-2.5,2.2-4.6,4.5-6.1,6.9C17.2,32.6,16.1,35.3,15.3,38.3z"/>
</svg>
