<?xml version="1.0" encoding="utf-8"?>
<!-- Generator: Adobe Illustrator 26.3.1, SVG Export Plug-In . SVG Version: 6.00 Build 0)  -->
<svg version="1.1" id="Слой_1" xmlns="http://www.w3.org/2000/svg" xmlns:xlink="http://www.w3.org/1999/xlink" x="0px" y="0px"
	 viewBox="0 0 48 48" style="enable-background:new 0 0 48 48;" xml:space="preserve">
<path d="M15.5,23.3v-17c0-0.2,0.1-0.4,0.2-0.6c0.1-0.1,0.3-0.2,0.6-0.2s0.4,0.1,0.5,0.2C17,5.9,17,6.1,17,6.3v17H15.5z M23,23.3v-19
	c0-0.2,0.1-0.4,0.2-0.6c0.1-0.1,0.3-0.2,0.6-0.2s0.4,0.1,0.5,0.2c0.1,0.1,0.2,0.3,0.2,0.5v19C24.5,23.3,23,23.3,23,23.3z M30.5,32.6
	V8.3c0-0.2,0.1-0.4,0.2-0.5s0.3-0.2,0.6-0.2c0.2,0,0.4,0.1,0.5,0.2C31.9,7.9,32,8.1,32,8.3v23.4L30.5,32.6z M14.8,43h11.8
	c0.4,0,0.8-0.1,1.2-0.2c0.4-0.2,0.8-0.4,1.1-0.7l12.7-12.8L41.2,29c-0.2-0.2-0.4-0.2-0.7-0.2s-0.5,0-0.7,0.2L23,38.9l-6.2-8.3H9.5
	v7.3c0.1,1.4,0.6,2.6,1.6,3.6S13.3,43,14.8,43z M14.8,44.5c-1.9,0-3.5-0.7-4.8-2s-2-2.9-2-4.8V29h9.6l5.8,7.7l8.6-5l6.3-3.7
	c0.5-0.3,1-0.4,1.6-0.3c0.6,0,1.1,0.2,1.5,0.5l2,1.5L30,43.1c-0.5,0.5-1,0.8-1.6,1.1c-0.6,0.2-1.2,0.4-1.8,0.4L14.8,44.5L14.8,44.5z
	 M9.5,29H8V10.3c0-0.2,0.1-0.4,0.2-0.5c0.1-0.1,0.3-0.2,0.6-0.2c0.2,0,0.4,0.1,0.5,0.2c0.1,0.1,0.2,0.3,0.2,0.5V29z M9.5,23.3h20.9
	H9.5z M14.8,43H9.5h19.3H14.8z"/>
</svg>
