<?xml version="1.0" encoding="utf-8"?>
<!-- Generator: Adobe Illustrator 26.3.1, SVG Export Plug-In . SVG Version: 6.00 Build 0)  -->
<svg version="1.1" id="Слой_1" xmlns="http://www.w3.org/2000/svg" xmlns:xlink="http://www.w3.org/1999/xlink" x="0px" y="0px"
	 viewBox="0 0 48 48" style="enable-background:new 0 0 48 48;" xml:space="preserve">
<path d="M2.5,33V21H4v12H2.5z M8.1,27V15h1.5v12H8.1z M16.4,42c-0.8,0-1.4-0.3-2-0.8c-0.5-0.5-0.8-1.2-0.8-2V8.8
	c0-0.8,0.3-1.4,0.8-2C15,6.3,15.6,6,16.4,6h15.2c0.8,0,1.4,0.3,2,0.8c0.5,0.5,0.8,1.2,0.8,2v30.5c0,0.8-0.3,1.4-0.8,2
	c-0.5,0.5-1.2,0.8-2,0.8C31.6,42,16.4,42,16.4,42z M32.8,37.7H15.2v1.5c0,0.3,0.1,0.6,0.4,0.8s0.5,0.4,0.8,0.4h15.2
	c0.3,0,0.6-0.1,0.8-0.4c0.3-0.3,0.4-0.5,0.4-0.8V37.7z M15.2,36.2h17.7V11.8H15.2V36.2z M15.2,10.3h17.7V8.8c0-0.3-0.1-0.6-0.4-0.8
	c-0.3-0.3-0.5-0.4-0.8-0.4H16.4c-0.3,0-0.6,0.1-0.8,0.4c-0.3,0.3-0.4,0.5-0.4,0.8V10.3z M38.4,33V21h1.5v12H38.4z M43.9,27V15h1.5
	v12H43.9z M15.2,10.3V7.5V10.3z M15.2,37.7v2.8V37.7z"/>
</svg>
