<?xml version="1.0" encoding="utf-8"?>
<!-- Generator: Adobe Illustrator 26.3.1, SVG Export Plug-In . SVG Version: 6.00 Build 0)  -->
<svg version="1.1" id="Слой_1" xmlns="http://www.w3.org/2000/svg" xmlns:xlink="http://www.w3.org/1999/xlink" x="0px" y="0px"
	 viewBox="0 0 48 48" style="enable-background:new 0 0 48 48;" xml:space="preserve">
<path d="M32.5,23.5V10H34v11.9L32.5,23.5z M10,38V10h1.5v28H10z M21.2,16v-6h1.5v6C22.8,16,21.2,16,21.2,16z M21.2,26.9V21h1.5v5.9
	H21.2z M21.2,38v-6h1.5v6C22.8,38,21.2,38,21.2,38z M28.5,38v-4.4L39.1,23c0.2-0.2,0.4-0.3,0.6-0.4c0.2-0.1,0.4-0.1,0.6-0.1
	c0.2,0,0.5,0,0.7,0.1s0.4,0.2,0.6,0.4l1.9,1.9c0.2,0.2,0.3,0.4,0.4,0.6c0.1,0.2,0.1,0.4,0.1,0.6s0,0.4-0.1,0.6s-0.2,0.4-0.4,0.6
	L32.9,38H28.5z M42.2,26.1l-1.8-1.9L42.2,26.1z M30.2,36.2h1.9l6.9-6.9l-0.9-0.9l-0.9-1l-7,7C30.2,34.3,30.2,36.2,30.2,36.2z
	 M38.1,28.3l-0.9-1l1.9,1.9L38.1,28.3z"/>
</svg>
