<?xml version="1.0" encoding="utf-8"?>
<!-- Generator: Adobe Illustrator 26.3.1, SVG Export Plug-In . SVG Version: 6.00 Build 0)  -->
<svg version="1.1" id="Слой_1" xmlns="http://www.w3.org/2000/svg" xmlns:xlink="http://www.w3.org/1999/xlink" x="0px" y="0px"
	 viewBox="0 0 48 48" style="enable-background:new 0 0 48 48;" xml:space="preserve">
<path d="M28.5,23.6l-1.1-1.1l7.3-7.3l-1.9-1.9l-7.3,7.3l-1.1-1.1l11-11.1c0.1-0.1,0.3-0.2,0.5-0.3c0.3,0,0.5-0.1,0.7-0.1
	c0.2,0,0.4,0,0.6,0.1c0.2,0.1,0.4,0.2,0.5,0.3l1.9,1.9c0.1,0.1,0.3,0.3,0.3,0.5C40,11,40,11.3,40,11.5s0,0.4-0.1,0.6
	c-0.1,0.2-0.2,0.4-0.3,0.5L28.5,23.6z M9.6,38.5h1.9l12.4-12.3L23,25.3l-0.9-1L9.6,36.6V38.5z M40.1,42.4L24.9,27.2L12.1,40H8v-4.1
	l12.8-12.8L5.6,7.9l1.1-1.1l34.5,34.5L40.1,42.4z M38.5,11.4l-1.9-1.9L38.5,11.4z M32.8,13.3l1.9,1.9L32.8,13.3z M22.9,25.2l-0.9-1
	l1.9,1.9C23.8,26.1,22.9,25.2,22.9,25.2z"/>
</svg>
