<?xml version="1.0" encoding="utf-8"?>
<!-- Generator: Adobe Illustrator 26.3.1, SVG Export Plug-In . SVG Version: 6.00 Build 0)  -->
<svg version="1.1" id="Слой_1" xmlns="http://www.w3.org/2000/svg" xmlns:xlink="http://www.w3.org/1999/xlink" x="0px" y="0px"
	 viewBox="0 0 48 48" style="enable-background:new 0 0 48 48;" xml:space="preserve">
<path d="M10.8,42c-0.8,0-1.4-0.3-2-0.8C8.3,40.7,8,40,8,39.2V12.3c0-0.8,0.3-1.4,0.8-2c0.5-0.5,1.2-0.8,2-0.8h4.1v-4h1.8v4h14.8v-4
	h1.7v4h4.1c0.8,0,1.4,0.3,2,0.8c0.5,0.5,0.8,1.2,0.8,2v11.4h-1.5V21H9.5v18.2c0,0.3,0.1,0.6,0.4,0.8s0.5,0.4,0.8,0.4h13.4V42H10.8z
	 M9.5,19.5h28.9v-7.2c0-0.3-0.1-0.6-0.4-0.8s-0.5-0.4-0.8-0.4H10.8c-0.3,0-0.6,0.1-0.8,0.4S9.5,12,9.5,12.3V19.5z M9.5,19.5v-8.4
	V19.5z M28.5,42v-4.4L39.1,27c0.2-0.2,0.4-0.3,0.6-0.4c0.2-0.1,0.4-0.1,0.6-0.1c0.2,0,0.4,0,0.7,0.1c0.2,0.1,0.4,0.2,0.6,0.4
	l1.8,1.9c0.2,0.2,0.3,0.4,0.4,0.6c0.1,0.2,0.1,0.4,0.1,0.6s0,0.4-0.1,0.6s-0.2,0.4-0.4,0.6L32.9,42H28.5z M42.2,30.1l-1.8-1.9
	L42.2,30.1z M30.2,40.2h1.9l6.9-6.9l-0.9-1l-0.9-1l-7,7V40.2z M38.1,32.3l-0.9-1l1.9,1.9L38.1,32.3z"/>
</svg>
