<?xml version="1.0" encoding="utf-8"?>
<!-- Generator: Adobe Illustrator 26.3.1, SVG Export Plug-In . SVG Version: 6.00 Build 0)  -->
<svg version="1.1" id="Слой_1" xmlns="http://www.w3.org/2000/svg" xmlns:xlink="http://www.w3.org/1999/xlink" x="0px" y="0px"
	 viewBox="0 0 48 48" style="enable-background:new 0 0 48 48;" xml:space="preserve">
<path d="M27.3,42v-4.4L38,27c0.2-0.2,0.4-0.3,0.6-0.4s0.4-0.1,0.6-0.1c0.2,0,0.5,0,0.7,0.1s0.4,0.2,0.6,0.4l1.8,1.9
	c0.2,0.2,0.3,0.4,0.4,0.6c0.1,0.2,0.1,0.4,0.1,0.6s0,0.4-0.1,0.6s-0.2,0.4-0.4,0.6L31.7,42H27.3z M41.1,30.1l-1.9-1.9L41.1,30.1z
	 M29.1,40.2H31l6.9-6.9l-0.9-1l-0.9-0.9l-7,7C29.1,38.3,29.1,40.2,29.1,40.2z M12.8,42c-0.8,0-1.4-0.3-2-0.8c-0.5-0.5-0.8-1.2-0.8-2
	V8.8c0-0.8,0.3-1.4,0.8-2C11.3,6.3,12,6,12.8,6H29l9,9v5.1h-1.5V16H28V7.5H12.8c-0.3,0-0.6,0.1-0.8,0.4c-0.3,0.3-0.4,0.5-0.4,0.8
	v30.5c0,0.3,0.1,0.6,0.4,0.8s0.5,0.4,0.8,0.4H23V42H12.8z M37,32.3l-1-0.9l1.8,1.9L37,32.3z"/>
</svg>
