<?xml version="1.0" encoding="utf-8"?>
<!-- Generator: Adobe Illustrator 26.3.1, SVG Export Plug-In . SVG Version: 6.00 Build 0)  -->
<svg version="1.1" id="Слой_1" xmlns="http://www.w3.org/2000/svg" xmlns:xlink="http://www.w3.org/1999/xlink" x="0px" y="0px"
	 viewBox="0 0 48 48" style="enable-background:new 0 0 48 48;" xml:space="preserve">
<path d="M24,42c-4.7-4.2-8.2-8-10.6-11.6s-3.6-6.9-3.6-9.8c0-4.2,1.4-7.7,4.1-10.5C16.7,7.4,20,6,24,6c1,0,2,0.1,3,0.3
	c1,0.2,1.9,0.5,2.7,0.9l-1.1,1.1c-0.7-0.3-1.5-0.5-2.2-0.6c-0.8-0.1-1.6-0.2-2.4-0.2c-3.6,0-6.7,1.2-9.1,3.7s-3.6,5.6-3.6,9.4
	c0,2.6,1.1,5.6,3.4,9c2.3,3.5,5.4,6.9,9.2,10.3c3.9-3.4,7-6.9,9.3-10.3s3.4-6.5,3.4-9c0-0.9-0.1-1.8-0.2-2.7
	c-0.2-0.8-0.4-1.6-0.6-2.4l1.1-1.1c0.4,0.9,0.7,1.9,0.9,3c0.2,1,0.3,2.1,0.3,3.3c0,2.9-1.2,6.2-3.6,9.8C32.2,34,28.7,37.9,24,42z
	 M35.5,8.7l-0.6-0.6L24.3,18.7v1.1h1.1L36,9.2L35.5,8.7z M37.5,7.7l1.2-1.1c0.1-0.2,0.2-0.3,0.3-0.5c0-0.2,0-0.4-0.1-0.5l-0.2-0.2
	c-0.1-0.1-0.3-0.2-0.5-0.1c-0.2,0-0.4,0.1-0.5,0.3l-1.2,1.2C36.4,6.6,37.5,7.7,37.5,7.7z"/>
</svg>
