<?xml version="1.0" encoding="utf-8"?>
<!-- Generator: Adobe Illustrator 26.3.1, SVG Export Plug-In . SVG Version: 6.00 Build 0)  -->
<svg version="1.1" id="Слой_1" xmlns="http://www.w3.org/2000/svg" xmlns:xlink="http://www.w3.org/1999/xlink" x="0px" y="0px"
	 viewBox="0 0 48 48" style="enable-background:new 0 0 48 48;" xml:space="preserve">
<path d="M24,40c-3.4,0-6.2-1.2-8.5-3.6C13.2,34,12,31.1,12,27.7c0-2.3,0.4-4.5,1.1-6.9c0.7-2.3,1.7-4.5,2.9-6.4s2.5-3.5,3.9-4.7
	C21.2,8.6,22.6,8,24,8s2.8,0.6,4.2,1.8c1.4,1.2,2.7,2.8,3.9,4.7s2.1,4,2.8,6.4c0.7,2.3,1.1,4.6,1.1,6.9c0,3.4-1.2,6.3-3.5,8.7
	C30.2,38.8,27.3,40,24,40z M24,39c3,0,5.6-1.1,7.8-3.3c2.1-2.2,3.2-4.8,3.2-7.9c0-2.1-0.3-4.2-1-6.4s-1.6-4.2-2.6-6
	c-1.1-1.8-2.3-3.3-3.6-4.5C26.4,9.6,25.2,9,24,9s-2.4,0.6-3.7,1.8s-2.5,2.7-3.6,4.5s-1.9,3.8-2.6,6c-0.7,2.2-1,4.4-1,6.4
	c0,3.1,1.1,5.8,3.2,8C18.3,37.9,20.9,39,24,39z M25.7,34c0.2,0,0.3-0.1,0.4-0.2c0.1-0.1,0.2-0.2,0.2-0.4s-0.1-0.3-0.2-0.4
	c-0.1,0-0.3,0-0.4,0c-2.1,0-3.9-0.7-5.3-2.2s-2.2-3.2-2.2-5.3c0-0.2-0.1-0.3-0.2-0.4c0-0.1-0.2-0.1-0.3-0.1c-0.2,0-0.3,0-0.4,0.1
	s-0.1,0.2-0.1,0.4c0,2.4,0.8,4.4,2.5,6C21.3,33.2,23.3,34,25.7,34z"/>
</svg>
