<?xml version="1.0" encoding="utf-8"?>
<!-- Generator: Adobe Illustrator 26.3.1, SVG Export Plug-In . SVG Version: 6.00 Build 0)  -->
<svg version="1.1" id="Слой_1" xmlns="http://www.w3.org/2000/svg" xmlns:xlink="http://www.w3.org/1999/xlink" x="0px" y="0px"
	 viewBox="0 0 48 48" style="enable-background:new 0 0 48 48;" xml:space="preserve">
<path d="M15.1,45.3l-1.2-0.9l6.4-8.2L19.2,28c-0.2-1.8-0.2-3.8,0.1-6c0.3-2.2,0.8-4.1,1.6-5.9l-6.1,3.6v6h-1.5V19l8-4.8
	c0.5-0.3,0.9-0.5,1.4-0.7c0.4-0.2,0.8-0.2,1.2-0.2c0.7,0,1.4,0.3,2,0.8s1.2,1.4,1.7,2.5c0.9,1.7,1.9,3,3,3.9c1.1,1,2.5,1.9,4.2,2.8
	c0.2-0.3,0.4-0.5,0.8-0.7c0.3-0.2,0.7-0.2,1.1-0.2c0.7,0,1.4,0.3,1.9,0.8s0.8,1.2,0.8,1.9v20.3h-1.3V25.1c0-0.4-0.1-0.7-0.4-1
	c-0.3-0.3-0.6-0.4-1-0.4s-0.7,0.1-1,0.4s-0.4,0.6-0.4,1v0.8H34v-1.3c-1.6-0.9-3-1.8-4.3-2.9c-1.3-1-2.4-2.4-3.5-4.2
	c-0.7,1.6-1.2,3.3-1.6,5c-0.3,1.7-0.4,3.2-0.3,4.5l4.4,7.5v10.8h-1.5V35l-5.1-6.5L22,36.7L15.1,45.3z M26.9,10.1
	c-0.9,0-1.6-0.3-2.2-1c-0.6-0.6-0.9-1.4-0.9-2.3s0.3-1.7,0.9-2.3s1.4-0.9,2.2-0.9c0.9,0,1.7,0.3,2.3,0.9c0.6,0.6,0.9,1.4,0.9,2.3
	s-0.3,1.6-0.9,2.3C28.6,9.7,27.8,10.1,26.9,10.1z"/>
</svg>
