<?xml version="1.0" encoding="utf-8"?>
<!-- Generator: Adobe Illustrator 26.3.1, SVG Export Plug-In . SVG Version: 6.00 Build 0)  -->
<svg version="1.1" id="Слой_1" xmlns="http://www.w3.org/2000/svg" xmlns:xlink="http://www.w3.org/1999/xlink" x="0px" y="0px"
	 viewBox="0 0 48 48" style="enable-background:new 0 0 48 48;" xml:space="preserve">
<path d="M19,41.4v-4.3c-3.2-1.1-5.9-3-7.9-5.7C9,28.6,8,25.5,8,21.9c0-2.2,0.4-4.3,1.3-6.2s2-3.6,3.4-5.1s3.1-2.6,5.1-3.4
	c1.9-0.8,4-1.3,6.2-1.3s4.3,0.4,6.2,1.3c1.9,0.8,3.6,2,5.1,3.4s2.6,3.1,3.5,5.1c0.8,1.9,1.3,4,1.3,6.2c0,3.5-1,6.7-3.1,9.5
	s-4.7,4.7-7.9,5.7v4.3h-1.5v-3.9c-0.6,0.1-1.2,0.2-1.7,0.3c-0.6,0.1-1.2,0.1-1.8,0.1c-0.6,0-1.2,0-1.7-0.1c-0.6-0.1-1.1-0.2-1.7-0.3
	v3.9C20.5,41.4,19,41.4,19,41.4z M24,36.5c4,0,7.4-1.4,10.2-4.2s4.2-6.2,4.2-10.2s-1.4-7.4-4.2-10.2C31.4,8.9,28,7.5,24,7.5
	s-7.4,1.4-10.2,4.2C10.9,14.6,9.5,18,9.5,22s1.4,7.4,4.2,10.2C16.6,35.1,20,36.5,24,36.5z M17,16.8h14v-1.5H17V16.8z M22.3,32.4
	l4.2-4.2L24,25.7l2.9-2.8l-1.3-1.3l-4.2,4.2l2.5,2.5L21,31.2C21.1,31.2,22.3,32.4,22.3,32.4z"/>
</svg>
