<?xml version="1.0" encoding="utf-8"?>
<!-- Generator: Adobe Illustrator 26.3.1, SVG Export Plug-In . SVG Version: 6.00 Build 0)  -->
<svg version="1.1" id="Слой_1" xmlns="http://www.w3.org/2000/svg" xmlns:xlink="http://www.w3.org/1999/xlink" x="0px" y="0px"
	 viewBox="0 0 48 48" style="enable-background:new 0 0 48 48;" xml:space="preserve">
<path d="M12.1,33.2c-1.4,0-2.6-0.5-3.5-1.4c-1-0.9-1.5-2-1.7-3.3H6.7c-0.4,0-0.9-0.2-1.4-0.5s-0.7-1-0.7-2V10.8c0-0.8,0.3-1.4,0.8-2
	C6,8.3,6.6,8,7.4,8h22.9c0.6,0,1.2,0.1,1.8,0.3s1,0.5,1.4,1l6.5,8.8c0.2,0.4,0.4,0.7,0.5,1.2c0.1,0.4,0.1,0.9,0.1,1.3v2.7
	c0.8,0.4,1.5,1.1,2,1.9s0.8,1.7,0.8,2.8c0,1.4-0.5,2.7-1.5,3.7s-2.3,1.5-3.7,1.5s-2.6-0.4-3.5-1.3c-0.9-0.9-1.5-2-1.8-3.3H17.4
	c-0.2,1.2-0.8,2.3-1.7,3.2C14.7,32.8,13.5,33.2,12.1,33.2z M6.2,17.1h9.7V9.5H7.4C7,9.5,6.7,9.7,6.5,9.9s-0.3,0.5-0.3,0.9
	C6.2,10.8,6.2,17.1,6.2,17.1z M17.4,27.2h12.8V9.5H17.4V17h7.5v1.5h-7.5C17.4,18.6,17.4,27.2,17.4,27.2z M31.7,19.2h7.2l-7.2-9.6
	V19.2z M12.1,31.7c1,0,1.9-0.4,2.7-1.1c0.7-0.7,1.1-1.6,1.1-2.6s-0.4-1.9-1.1-2.7c-0.7-0.7-1.6-1.1-2.7-1.1s-1.9,0.4-2.6,1.1
	C8.8,26,8.4,26.9,8.4,28c0,1,0.4,1.9,1.1,2.6C10.2,31.3,11.1,31.7,12.1,31.7z M38.1,31.7c1,0,1.9-0.4,2.6-1.1
	c0.7-0.7,1.1-1.6,1.1-2.6s-0.4-1.9-1.1-2.7c-0.7-0.7-1.6-1.1-2.6-1.1s-1.9,0.4-2.7,1.1c-0.7,0.7-1.1,1.6-1.1,2.7
	c0,1,0.4,1.9,1.1,2.6C36.2,31.3,37.1,31.7,38.1,31.7z M26.2,45.3l-10.1-5.2h6.8v-3.4l10.1,5h-6.8V45.3z M6.2,18.6v7.5
	c0,0.3,0,0.6,0.1,0.7C6.4,27,6.6,27.1,7,27.1c0.1-1.2,0.7-2.2,1.7-3.1s2.1-1.3,3.4-1.3c0.7,0,1.4,0.2,2.1,0.5
	c0.7,0.3,1.2,0.7,1.6,1.2v-5.8C15.8,18.6,6.2,18.6,6.2,18.6z M31.7,27.2h1.2c0.2-1.3,0.9-2.4,2-3.4s2.5-1.3,4.2-1.1v-2h-7.4
	C31.7,20.7,31.7,27.2,31.7,27.2z M6.2,18.6h9.7H6.2z M31.7,20.8h7.4H31.7z"/>
</svg>
