<?xml version="1.0" encoding="utf-8"?>
<!-- Generator: Adobe Illustrator 26.3.1, SVG Export Plug-In . SVG Version: 6.00 Build 0)  -->
<svg version="1.1" id="Слой_1" xmlns="http://www.w3.org/2000/svg" xmlns:xlink="http://www.w3.org/1999/xlink" x="0px" y="0px"
	 viewBox="0 0 48 48" style="enable-background:new 0 0 48 48;" xml:space="preserve">
<path d="M14.3,33.2c-1.4,0-2.5-0.5-3.5-1.5s-1.4-2.1-1.4-3.5h-4v-5c0-1.9,0.7-3.6,2-4.9s3-2,4.9-2h6.9v10.4h8.9l7.7-9.6v-5.8
	c0-0.4-0.1-0.7-0.3-0.9s-0.5-0.3-0.9-0.3h-4.8V8.6h4.8c0.8,0,1.4,0.3,2,0.8c0.5,0.5,0.8,1.2,0.8,2v6.3L29,28.4h-9.8
	c0,1.3-0.5,2.5-1.4,3.5C16.8,32.7,15.6,33.2,14.3,33.2z M14.2,31.7c0.9,0,1.7-0.3,2.4-1s1-1.5,1-2.4h-6.8c0,0.9,0.3,1.7,1,2.4
	C12.5,31.3,13.3,31.7,14.2,31.7z M11.4,12.3v-1.5h7.8v1.5H11.4z M37.7,33.2c-1.4,0-2.5-0.5-3.5-1.4s-1.4-2.1-1.4-3.5
	s0.5-2.5,1.4-3.5s2.1-1.4,3.5-1.4s2.5,0.5,3.5,1.4s1.4,2.1,1.4,3.5s-0.5,2.5-1.4,3.5C40.3,32.7,39.1,33.2,37.7,33.2z M37.7,31.7
	c0.9,0,1.7-0.3,2.4-1s1-1.5,1-2.4s-0.3-1.7-1-2.4c-0.7-0.7-1.5-1-2.4-1s-1.7,0.3-2.4,1s-1,1.5-1,2.4s0.3,1.7,1,2.4
	C36,31.3,36.8,31.7,37.7,31.7z M26.1,45.3l-10-5.1h6.6v-3.4l10,5h-6.6C26.1,41.9,26.1,45.3,26.1,45.3z M6.9,26.8h10.7V18h-5.3
	c-1.5,0-2.8,0.5-3.8,1.6s-1.6,2.3-1.6,3.8C6.9,23.3,6.9,26.8,6.9,26.8z"/>
</svg>
