<?xml version="1.0" encoding="utf-8"?>
<!-- Generator: Adobe Illustrator 26.3.1, SVG Export Plug-In . SVG Version: 6.00 Build 0)  -->
<svg version="1.1" id="Слой_1" xmlns="http://www.w3.org/2000/svg" xmlns:xlink="http://www.w3.org/1999/xlink" x="0px" y="0px"
	 viewBox="0 0 48 48" style="enable-background:new 0 0 48 48;" xml:space="preserve">
<path d="M9.5,28c0,2.5,0.7,4.7,2,6.8s3.1,3.6,5.4,4.6c-0.3-0.5-0.5-1-0.7-1.6C16,37.2,16,36.7,16,36.1c0-0.8,0.2-1.5,0.5-2.2
	c0.3-0.7,0.7-1.3,1.3-1.9l4.2-4.2l4.3,4.2c0.6,0.6,1,1.2,1.3,1.9s0.4,1.4,0.4,2.2c0,0.6-0.1,1.1-0.2,1.7c-0.2,0.6-0.4,1.1-0.7,1.6
	c2.3-1,4.1-2.5,5.4-4.6s2-4.3,2-6.8c0-1.7-0.3-3.4-1-5s-1.7-3-3-4.3c-0.7,0.5-1.4,0.8-2.1,1.1c-0.8,0.2-1.5,0.4-2.3,0.4
	c-2.1,0-3.8-0.7-5.2-2.1s-2.2-3.1-2.3-5.2v-0.5c-1.4,1.1-2.7,2.2-3.8,3.5s-2.1,2.6-2.8,3.9c-0.8,1.3-1.3,2.7-1.8,4.1
	C9.7,25.3,9.5,26.7,9.5,28z M22,30l-3.2,3.1c-0.4,0.4-0.7,0.9-1,1.4c-0.2,0.5-0.3,1.1-0.3,1.6c0,1.2,0.4,2.2,1.3,3.1
	c0.9,0.8,1.9,1.3,3.2,1.3s2.3-0.4,3.2-1.3c0.9-0.8,1.3-1.9,1.3-3.1c0-0.6-0.1-1.1-0.3-1.7c-0.2-0.5-0.5-1-1-1.4L22,30z M20,9.6v3
	c0,1.7,0.6,3.1,1.8,4.3c1.2,1.2,2.6,1.7,4.3,1.7c0.6,0,1.2-0.1,1.8-0.3c0.6-0.2,1.2-0.5,1.7-0.9l0.9-0.7c1.7,1.3,3.1,2.9,4.1,4.9
	s1.5,4.1,1.5,6.4c0,3.9-1.4,7.2-4.1,9.9S25.9,42,22,42s-7.2-1.4-9.9-4.1C9.4,35.2,8,31.9,8,28c0-3.4,1.1-6.8,3.2-10.1
	S16.3,11.8,20,9.6z M42.2,20.8c-0.2,0-0.4-0.1-0.5-0.2s-0.2-0.3-0.2-0.5s0.1-0.4,0.2-0.6c0.1-0.1,0.3-0.2,0.5-0.2s0.4,0.1,0.6,0.2
	c0.1,0.1,0.2,0.3,0.2,0.6c0,0.2-0.1,0.4-0.2,0.5C42.6,20.7,42.5,20.8,42.2,20.8z M41.5,15.2V7H43v8.2H41.5z"/>
</svg>
