<?xml version="1.0" encoding="utf-8"?>
<!-- Generator: Adobe Illustrator 26.3.1, SVG Export Plug-In . SVG Version: 6.00 Build 0)  -->
<svg version="1.1" id="Слой_1" xmlns="http://www.w3.org/2000/svg" xmlns:xlink="http://www.w3.org/1999/xlink" x="0px" y="0px"
	 viewBox="0 0 48 48" style="enable-background:new 0 0 48 48;" xml:space="preserve">
<path d="M24,43.3c2.7-2.5,4.7-4.9,6.2-7.2s2.2-4.2,2.2-5.8c0-2.4-0.8-4.5-2.4-6.2s-3.6-2.6-6-2.6s-4.4,0.9-6,2.6s-2.4,3.8-2.4,6.2
	c0,1.6,0.7,3.5,2.2,5.8C19.3,38.4,21.3,40.8,24,43.3z M24,45.3c-3.3-3-5.8-5.7-7.5-8.2S14,32.3,14,30.3c0-2.8,1-5.3,2.9-7.3
	s4.3-3,7.1-3s5.2,1,7.1,3s2.9,4.4,2.9,7.3c0,2.2-0.9,4.5-2.6,6.9C29.7,39.7,27.2,42.4,24,45.3z M24,32c0.5,0,1-0.2,1.4-0.6
	S26,30.5,26,30s-0.2-1-0.6-1.4S24.5,28,24,28s-1,0.2-1.4,0.6S22,29.5,22,30s0.2,1,0.6,1.4S23.5,32,24,32z M16.8,14.1L15.7,13
	c1.2-1,2.5-1.7,3.9-2.3C21,10.3,22.5,10,24,10s3,0.3,4.4,0.8s2.7,1.3,3.8,2.3l-1.1,1.1c-1-0.8-2.1-1.5-3.4-1.9
	c-1.2-0.4-2.5-0.7-3.9-0.7c-1.3,0-2.6,0.2-3.9,0.7C18.9,12.6,17.8,13.3,16.8,14.1z M11.2,8.5l-1.1-1.1c1.9-1.7,4.1-3,6.5-4
	C19,2.5,21.4,2,24,2s5.1,0.5,7.5,1.4c2.4,1,4.6,2.3,6.5,4l-1.2,1.1c-1.8-1.6-3.8-2.8-6-3.7S26.4,3.5,24,3.5s-4.7,0.4-6.9,1.2
	C14.9,5.6,12.9,6.8,11.2,8.5z"/>
</svg>
