<?xml version="1.0" encoding="utf-8"?>
<!-- Generator: Adobe Illustrator 26.3.1, SVG Export Plug-In . SVG Version: 6.00 Build 0)  -->
<svg version="1.1" id="Слой_1" xmlns="http://www.w3.org/2000/svg" xmlns:xlink="http://www.w3.org/1999/xlink" x="0px" y="0px"
	 viewBox="0 0 48 48" style="enable-background:new 0 0 48 48;" xml:space="preserve">
<path d="M36.9,8.5c-1.8-1.6-3.7-2.8-5.9-3.7c-2.3-0.8-4.6-1.3-7-1.3c-2.2,0-4.3,0.4-6.3,1.1s-3.9,1.8-5.6,3.1L11,6.6
	c1.8-1.5,3.9-2.6,6.1-3.4S21.6,2,24,2c2.6,0,5.1,0.5,7.5,1.4c2.4,1,4.6,2.3,6.5,4L36.9,8.5z M31.2,14.1c-1-0.8-2.1-1.5-3.4-1.9
	c-1.2-0.4-2.5-0.7-3.9-0.7c-1.1,0-2.2,0.2-3.2,0.5s-2,0.8-3,1.4l-1.1-1.1c1.1-0.8,2.2-1.4,3.5-1.8c1.2-0.4,2.5-0.6,3.8-0.6
	c1.5,0,3,0.3,4.4,0.8S31,12,32.1,13L31.2,14.1z M33.7,29.4l-9.2-9.2c0.1,0,0.2-0.1,0.4-0.1c0.1,0,0.3,0,0.4,0
	c2.2,0.3,4.1,1.2,5.7,2.8c1.6,1.6,2.5,3.5,2.8,5.7c0,0.1,0,0.2,0,0.4C33.8,29.1,33.8,29.3,33.7,29.4z M31.4,33.9L20.1,22.5
	c-1.4,0.7-2.5,1.8-3.3,3.2c-0.8,1.4-1.3,2.9-1.3,4.6c0,1.6,0.7,3.5,2.2,5.8s3.6,4.7,6.2,7.2c1.8-1.7,3.3-3.3,4.6-4.9
	C29.8,36.7,30.8,35.2,31.4,33.9z M41.2,41.3L40,42.4l-7.3-7.3c-0.8,1.5-1.9,3.1-3.4,4.8S26,43.4,24,45.3c-3.3-3-5.8-5.7-7.5-8.2
	S14,32.3,14,30.3c0-1.9,0.5-3.6,1.4-5.2s2.1-2.8,3.6-3.7L5.7,8.1L6.8,7L41.2,41.3z M24,32c-0.5,0-1-0.2-1.4-0.6S22,30.5,22,30
	s0.2-1,0.6-1.4S23.5,28,24,28c0.3,0,0.6,0.1,0.8,0.2c0.2,0.1,0.4,0.3,0.6,0.4c0.2,0.2,0.3,0.4,0.4,0.6S26,29.7,26,30
	c0,0.5-0.2,1-0.6,1.4S24.5,32,24,32z"/>
</svg>
