<?xml version="1.0" encoding="utf-8"?>
<!-- Generator: Adobe Illustrator 26.3.1, SVG Export Plug-In . SVG Version: 6.00 Build 0)  -->
<svg version="1.1" id="Слой_1" xmlns="http://www.w3.org/2000/svg" xmlns:xlink="http://www.w3.org/1999/xlink" x="0px" y="0px"
	 viewBox="0 0 48 48" style="enable-background:new 0 0 48 48;" xml:space="preserve">
<path d="M20.2,32.8h1.5v-7.4l6.8,3.9l0.7-1.3l-6.7-4l6.8-3.9l-0.7-1.3l-6.8,3.9v-7.4h-1.5v7.4l-6.8-3.9l-0.8,1.3l6.8,3.9l-6.8,3.9
	l0.8,1.3l6.8-3.9C20.2,25.3,20.2,32.8,20.2,32.8z M9.7,38c-0.8,0-1.4-0.3-2-0.8C7.2,36.7,7,36,7,35.2V12.8c0-0.8,0.3-1.4,0.8-2
	C8.3,10.3,9,10,9.7,10h22.5c0.8,0,1.4,0.3,2,0.8c0.5,0.5,0.8,1.2,0.8,2v10.1l6.1-6.1v14.4L35,25.1v10.1c0,0.8-0.3,1.4-0.8,2
	c-0.5,0.5-1.2,0.8-2,0.8H9.7z M9.7,36.5h22.5c0.4,0,0.7-0.1,0.9-0.3s0.3-0.5,0.3-0.9V12.8c0-0.4-0.1-0.7-0.3-0.9s-0.5-0.3-0.9-0.3
	H9.7c-0.4,0-0.7,0.1-0.9,0.3s-0.3,0.5-0.3,0.9v22.5c0,0.4,0.1,0.7,0.3,0.9C9.1,36.3,9.4,36.5,9.7,36.5z M8.5,36.5v-25V36.5z"/>
</svg>
