<?xml version="1.0" encoding="utf-8"?>
<!-- Generator: Adobe Illustrator 26.3.1, SVG Export Plug-In . SVG Version: 6.00 Build 0)  -->
<svg version="1.1" id="Слой_1" xmlns="http://www.w3.org/2000/svg" xmlns:xlink="http://www.w3.org/1999/xlink" x="0px" y="0px"
	 viewBox="0 0 48 48" style="enable-background:new 0 0 48 48;" xml:space="preserve">
<path d="M36.1,16.7l-2.2,2c-0.3,0.3-0.6,0.4-1,0.4s-0.8-0.1-1.2-0.3c-0.3-0.2-0.5-0.5-0.6-0.9s-0.1-0.8,0.1-1.2l1-3.3L29.8,12
	c-0.3-0.2-0.6-0.5-0.7-0.8c-0.1-0.4-0.1-0.8,0-1.2s0.3-0.6,0.6-0.8C30,9,30.4,8.9,30.8,8.9h2.8l0.8-2.7c0.1-0.4,0.3-0.7,0.6-1
	s0.6-0.4,1.1-0.4c0.4,0,0.8,0.1,1.1,0.4s0.5,0.6,0.6,1l0.8,2.7h2.8c0.4,0,0.8,0.1,1.1,0.3s0.6,0.5,0.7,0.8c0.1,0.4,0.1,0.8,0,1.1
	c-0.1,0.4-0.3,0.7-0.7,0.8L40,13.4l1,3.2c0.1,0.4,0.2,0.8,0.1,1.2c-0.1,0.4-0.3,0.7-0.6,1c-0.4,0.2-0.8,0.3-1.2,0.3s-0.8-0.2-1-0.4
	L36.1,16.7z M36.1,14.3c0.5,0,1-0.2,1.3-0.5s0.5-0.8,0.5-1.3s-0.2-1-0.5-1.3s-0.8-0.5-1.3-0.5s-1,0.2-1.3,0.5s-0.5,0.8-0.5,1.3
	s0.2,1,0.5,1.3S35.6,14.3,36.1,14.3z M25.1,35.8c0.6,1.5,0.4,2.9-0.7,4.2c-1,1.3-2.4,2-4.1,2c-0.9,0-1.7-0.2-2.4-0.7
	c-0.7-0.5-1.3-1.2-1.8-2.1c-1.9,0-3.6-0.7-5.1-2.2c-1.5-1.4-2.2-3.1-2.2-4.9c-0.9-0.4-1.6-1.1-2.1-2c-0.4-1-0.7-1.9-0.7-2.9
	c0-1.8,0.7-3.2,2.1-4c1.4-0.9,3.1-0.9,4.9-0.1l2.6,1c0.4-1.3,1.1-2.3,2.1-3.1c1-0.8,2.1-1.2,3.4-1.3v-4.1h1.5v4.1
	c1.5,0.1,2.8,0.8,3.9,2s1.7,2.5,1.8,3.9h4.2v1.5h-4.1c-0.1,1.2-0.5,2.4-1.3,3.4s-1.8,1.7-3.2,2.1L25.1,35.8z M15.5,37.6
	c-0.2-0.9-0.2-1.8,0-2.8c0.1-1,0.4-2,0.8-2.9c-0.9,0.4-1.9,0.7-2.9,0.8c-1,0.1-2,0-3-0.1c0.1,1.3,0.7,2.5,1.7,3.6
	C13.2,37,14.3,37.6,15.5,37.6z M12.1,31c1.3,0,2.8-0.3,4.3-1s2.8-1.4,3.9-2.2l-7.8-3.3c-1.1-0.4-2.2-0.4-3.3,0.2s-1.7,1.4-1.7,2.4
	S8,29,9.1,29.8C10.2,30.6,11.2,31,12.1,31z M20.4,40.5c1.2,0,2.2-0.4,2.9-1.3c0.7-0.8,0.9-1.8,0.4-2.9L20.4,28
	c-1,1.3-1.8,2.6-2.5,3.8C17.3,33,17,34.4,17,35.9c0,1,0.3,2,0.9,3C18.6,40,19.4,40.5,20.4,40.5z M23.3,31.2c1.1-0.5,2-1.1,2.6-2
	s0.9-1.8,0.9-2.9c0-1.4-0.5-2.6-1.5-3.5c-1-1-2.2-1.5-3.5-1.5c-1.1,0-2.2,0.3-3.1,1c-0.9,0.6-1.5,1.5-1.8,2.6l4.6,1.9
	C21.6,26.8,23.3,31.2,23.3,31.2z"/>
</svg>
