<?xml version="1.0" encoding="utf-8"?>
<!-- Generator: Adobe Illustrator 26.3.1, SVG Export Plug-In . SVG Version: 6.00 Build 0)  -->
<svg version="1.1" id="Слой_1" xmlns="http://www.w3.org/2000/svg" xmlns:xlink="http://www.w3.org/1999/xlink" x="0px" y="0px"
	 viewBox="0 0 48 48" style="enable-background:new 0 0 48 48;" xml:space="preserve">
<path d="M10,40v-1.5h28V40H10z M16.1,32.9c-1.7,0-3.1-0.6-4.3-1.7c-1.2-1.1-1.7-2.5-1.7-4.2V8h29.1c0.8,0,1.5,0.3,2.1,0.8
	s0.9,1.2,0.9,2v5.4c0,0.8-0.3,1.4-0.9,2C40.7,18.7,40,19,39.2,19h-4.4v8.1c0,1.6-0.6,3-1.7,4.2c-1.2,1.1-2.6,1.7-4.3,1.7
	C28.6,32.9,16.1,32.9,16.1,32.9z M16.1,9.5h17.1H11.5H16.1z M34.7,17.5h4.4c0.4,0,0.7-0.1,1-0.4c0.3-0.2,0.4-0.5,0.4-0.9v-5.4
	c0-0.4-0.1-0.7-0.4-0.9c-0.3-0.2-0.6-0.4-1-0.4h-4.4V17.5z M28.7,31.4c1.2,0,2.3-0.4,3.2-1.3s1.3-1.9,1.3-3V9.5H19.7v2.7l3,2.5
	c0.1,0,0.2,0.3,0.4,0.9v5.6c0,0.3-0.1,0.5-0.3,0.7c-0.2,0.2-0.5,0.3-0.8,0.3h-6.3c-0.3,0-0.6-0.1-0.8-0.3c-0.2-0.2-0.3-0.5-0.3-0.7
	v-5.6c0-0.1,0.1-0.4,0.4-0.9l3.1-2.5V9.5h-6.6V27c0,1.2,0.4,2.2,1.3,3c0.9,0.9,2,1.3,3.2,1.3C16.1,31.4,28.7,31.4,28.7,31.4z
	 M18.2,9.5h1.5H18.2z"/>
</svg>
