<?xml version="1.0" encoding="utf-8"?>
<!-- Generator: Adobe Illustrator 26.3.1, SVG Export Plug-In . SVG Version: 6.00 Build 0)  -->
<svg version="1.1" id="Слой_1" xmlns="http://www.w3.org/2000/svg" xmlns:xlink="http://www.w3.org/1999/xlink" x="0px" y="0px"
	 viewBox="0 0 48 48" style="enable-background:new 0 0 48 48;" xml:space="preserve">
<path d="M7,7.3V5.8h13.8v1.5H7z M13.2,20.6v-9.7H7V9.4h13.8v1.5h-6.2v9.7C14.6,20.6,13.2,20.6,13.2,20.6z M27.4,41.8l-1.1-1.1
	l14.2-14.2l1.1,1.1L27.4,41.8z M29.1,31.1c-0.6,0-1.1-0.2-1.5-0.6S27,29.6,27,29s0.2-1.1,0.6-1.5s0.9-0.6,1.5-0.6s1.1,0.2,1.5,0.6
	s0.6,0.9,0.6,1.5s-0.2,1.1-0.6,1.5S29.7,31.1,29.1,31.1z M39.2,41.3c-0.6,0-1.1-0.2-1.5-0.6c-0.4-0.4-0.6-0.9-0.6-1.5
	s0.2-1.1,0.6-1.5c0.4-0.4,0.9-0.6,1.5-0.6s1.1,0.2,1.5,0.6c0.4,0.4,0.6,0.9,0.6,1.5s-0.2,1.1-0.6,1.5C40.2,41.1,39.7,41.3,39.2,41.3
	z M31.3,21c-1,0-1.9-0.4-2.6-1.1s-1-1.6-1-2.5c0-1,0.3-1.9,1-2.6c0.7-0.7,1.5-1,2.6-1c0.4,0,0.8,0.1,1.2,0.2c0.4,0.1,0.7,0.3,1,0.5
	V5.8c0-0.2,0.1-0.4,0.2-0.5C33.8,5.1,34,5,34.2,5H41v1.5h-6.1v10.9c0,1-0.3,1.9-1,2.6C33.3,20.7,32.4,21,31.3,21z M10.7,43
	c-1,0-1.9-0.4-2.7-1.1c-0.8-0.7-1.1-1.6-1.1-2.7c0-0.5,0.1-1,0.3-1.5c0.2-0.5,0.5-0.9,0.9-1.3l3-2.9l-1.5-1.6
	c-0.4-0.4-0.7-0.8-0.9-1.3s-0.3-1-0.3-1.5c0-1.1,0.4-2,1.1-2.7c0.7-0.7,1.6-1.1,2.7-1.1s2,0.4,2.7,1.1S16,28,16,29.1
	c0,0.5-0.1,1-0.3,1.5s-0.5,0.9-0.8,1.3l-1.5,1.6l3.3,3.3l2.9-2.9l1.1,1.1l-2.9,2.9l2.7,2.7l-1,1l-2.8-2.8l-3,3
	c-0.4,0.4-0.9,0.7-1.4,0.9C11.7,42.9,11.2,43,10.7,43z M12.3,32.4l1.7-1.7c0.2-0.2,0.4-0.5,0.5-0.7s0.1-0.5,0.1-0.9
	c0-0.7-0.2-1.2-0.7-1.7c-0.4-0.4-1-0.6-1.6-0.6s-1.1,0.2-1.5,0.6c-0.5,0.4-0.7,1-0.7,1.7c0,0.4,0.1,0.7,0.2,0.9
	c0.1,0.2,0.3,0.5,0.5,0.7C10.7,30.8,12.3,32.4,12.3,32.4z M10.7,41.5c0.3,0,0.6-0.1,0.9-0.2c0.3-0.1,0.6-0.3,0.8-0.6l3-3l-3.2-3.1
	l-3,3c-0.2,0.2-0.4,0.5-0.6,0.8c-0.2,0.3-0.2,0.6-0.2,0.8c0,0.6,0.2,1.2,0.7,1.6C9.5,41.3,10.1,41.5,10.7,41.5z"/>
</svg>
