<?xml version="1.0" encoding="utf-8"?>
<!-- Generator: Adobe Illustrator 26.3.1, SVG Export Plug-In . SVG Version: 6.00 Build 0)  -->
<svg version="1.1" id="Слой_1" xmlns="http://www.w3.org/2000/svg" xmlns:xlink="http://www.w3.org/1999/xlink" x="0px" y="0px"
	 viewBox="0 0 48 48" style="enable-background:new 0 0 48 48;" xml:space="preserve">
<path d="M13.8,33c-0.5,0-0.9-0.2-1.3-0.5c-0.3-0.3-0.5-0.8-0.5-1.3s0.2-0.9,0.5-1.2c0.3-0.4,0.8-0.5,1.3-0.5s0.9,0.2,1.2,0.5
	c0.4,0.4,0.5,0.8,0.5,1.2c0,0.5-0.2,0.9-0.5,1.3C14.6,32.8,14.2,33,13.8,33z M13.8,18.5c-0.5,0-0.9-0.2-1.3-0.5
	c-0.3-0.3-0.5-0.8-0.5-1.3s0.2-0.9,0.5-1.2c0.3-0.4,0.8-0.5,1.3-0.5s0.9,0.2,1.2,0.5c0.4,0.4,0.5,0.8,0.5,1.2c0,0.5-0.2,0.9-0.5,1.3
	C14.6,18.4,14.2,18.5,13.8,18.5z M21,24.8v-1.5h6v1.5H21z M32.8,34.8L31.6,34c0.9-1.5,1.6-3,2.1-4.7s0.7-3.4,0.7-5.3
	c0-2.2-0.3-4.3-1-6.3s-1.7-3.8-3-5.4l1.2-1c1.4,1.8,2.4,3.7,3.2,5.9S36,21.6,36,24c0,2-0.3,3.9-0.8,5.8
	C34.6,31.6,33.8,33.3,32.8,34.8z"/>
</svg>
