<?xml version="1.0" encoding="utf-8"?>
<!-- Generator: Adobe Illustrator 26.3.1, SVG Export Plug-In . SVG Version: 6.00 Build 0)  -->
<svg version="1.1" id="Слой_1" xmlns="http://www.w3.org/2000/svg" xmlns:xlink="http://www.w3.org/1999/xlink" x="0px" y="0px"
	 viewBox="0 0 48 48" style="enable-background:new 0 0 48 48;" xml:space="preserve">
<path d="M24,42c-2.5,0-4.8-0.5-7-1.4s-4.1-2.2-5.7-3.9c-1.6-1.6-2.9-3.5-3.9-5.7C6.5,28.8,6,26.5,6,24c0-4.1,1.3-7.8,3.8-11
	s5.8-5.4,9.9-6.4v1.6c-3.6,1-6.5,2.9-8.8,5.9c-2.3,2.9-3.4,6.3-3.4,10c0,4.6,1.6,8.5,4.8,11.7s7.1,4.8,11.7,4.8s8.5-1.6,11.7-4.8
	s4.8-7.1,4.8-11.7c0-3.7-1.1-7.1-3.4-10c-2.3-2.9-5.2-4.9-8.8-5.9V6.5c4,1,7.3,3.2,9.9,6.4s3.8,6.9,3.8,11c0,2.5-0.5,4.8-1.4,7
	s-2.2,4.1-3.9,5.7c-1.6,1.6-3.5,2.9-5.7,3.9C28.8,41.5,26.5,42,24,42z M24,30.3l-8.6-8.6l1.1-1.1l6.7,6.7V6h1.5v21.2l6.7-6.7
	l1.1,1.1C32.6,21.6,24,30.3,24,30.3z"/>
</svg>
