<?xml version="1.0" encoding="utf-8"?>
<!-- Generator: Adobe Illustrator 26.3.1, SVG Export Plug-In . SVG Version: 6.00 Build 0)  -->
<svg version="1.1" id="Слой_1" xmlns="http://www.w3.org/2000/svg" xmlns:xlink="http://www.w3.org/1999/xlink" x="0px" y="0px"
	 viewBox="0 0 48 48" style="enable-background:new 0 0 48 48;" xml:space="preserve">
<path d="M26,21.6c0.2-0.2,0.4-0.5,0.5-0.8s0.2-0.7,0.2-1c0-0.8-0.3-1.4-0.8-1.9C25.4,17.3,24.8,17,24,17c-0.4,0-0.7,0.1-1,0.2
	s-0.6,0.3-0.8,0.5C22.2,17.8,26,21.6,26,21.6z M35.8,31.5l-1.2-1.2c0.6-1.1,1-2.5,1.3-4c0.3-1.6,0.5-3,0.5-4.2v-9.6L24,7.8L15.3,11
	l-1.2-1.2L24,6.1l14,5.2V22c0,1.5-0.2,3-0.5,4.6C37.1,28.2,36.6,29.8,35.8,31.5z M40,42.4l-6.8-6.8c-1.3,1.5-2.7,2.8-4.2,3.9
	c-1.6,1.1-3.2,1.9-5,2.4c-4.3-1.3-7.7-3.8-10.2-7.6C11.3,30.6,10,26.5,10,22v-9.7L5.7,8.1L6.8,7l34.3,34.3
	C41.2,41.3,40,42.4,40,42.4z M24,40.3c1.6-0.5,3.1-1.3,4.6-2.4c1.5-1.1,2.7-2.2,3.5-3.4l-6.4-6.4l0.2,0.9h-3.7l0.7-3.7L11.5,13.9V22
	c0,4.2,1.2,7.9,3.5,11.4C17.4,36.8,20.4,39.1,24,40.3z"/>
</svg>
