<?xml version="1.0" encoding="utf-8"?>
<!-- Generator: Adobe Illustrator 26.3.1, SVG Export Plug-In . SVG Version: 6.00 Build 0)  -->
<svg version="1.1" id="Слой_1" xmlns="http://www.w3.org/2000/svg" xmlns:xlink="http://www.w3.org/1999/xlink" x="0px" y="0px"
	 viewBox="0 0 48 48" style="enable-background:new 0 0 48 48;" xml:space="preserve">
<path d="M10,22.1V11.4l14-5.2l14,5.2v10.9h-1.5v-9.8L24,7.8l-12.5,4.6v9.7c0,2.1,0.3,4.1,0.9,6c0.6,1.8,1.4,3.5,2.4,5
	s2.1,2.8,3.4,3.9c1.3,1.1,2.6,2,4,2.6v1.7c-3.6-1.5-6.5-3.9-8.8-7.4C11.2,30.4,10,26.5,10,22.1z M33.6,39H35v-4h4v-1.4h-4v-4h-1.4v4
	h-4V35h4V39z M34.3,42c-2.1,0-4-0.8-5.5-2.3s-2.2-3.3-2.2-5.4c0-2.2,0.7-4,2.2-5.5s3.3-2.3,5.5-2.3c2.1,0,3.9,0.8,5.4,2.3
	s2.3,3.3,2.3,5.5c0,2.1-0.8,3.9-2.3,5.4C38.3,41.2,36.4,42,34.3,42z M24,22.5c0.8,0,1.4-0.3,1.9-0.8s0.8-1.2,0.8-1.9
	c0-0.8-0.3-1.4-0.8-1.9C25.4,17.3,24.7,17,24,17c-0.8,0-1.4,0.3-1.9,0.8s-0.8,1.2-0.8,1.9c0,0.8,0.3,1.4,0.8,1.9
	C22.6,22.2,23.2,22.5,24,22.5z"/>
</svg>
