<?xml version="1.0" encoding="utf-8"?>
<!-- Generator: Adobe Illustrator 26.3.1, SVG Export Plug-In . SVG Version: 6.00 Build 0)  -->
<svg version="1.1" id="Слой_1" xmlns="http://www.w3.org/2000/svg" xmlns:xlink="http://www.w3.org/1999/xlink" x="0px" y="0px"
	 viewBox="0 0 48 48" style="enable-background:new 0 0 48 48;" xml:space="preserve">
<path d="M24,41.9c-4-1.2-7.4-3.7-10-7.4c-2.7-3.7-4-7.9-4-12.5V11.4l14-5.2l14,5.2V22c0,0.4,0,0.7,0,1.1s-0.1,0.7-0.1,1.1h-1.5
	c0.1-0.4,0.1-0.8,0.1-1.1c0-0.4,0-0.7,0-1.1v-9.6L24,7.8l-12.5,4.7V22c0,4.2,1.2,8,3.5,11.4s5.3,5.7,9,6.8C24,40.3,24,41.9,24,41.9z
	 M34.5,42v-6h-6v-1.5h6v-6H36v6h6V36h-6v6H34.5z M22.2,29h3.6l-1.1-6.6c0.6-0.2,1.1-0.5,1.5-1s0.6-1,0.6-1.6c0-0.8-0.3-1.4-0.8-1.9
	c-0.6-0.6-1.3-0.9-2-0.9c-0.8,0-1.4,0.3-1.9,0.8s-0.8,1.2-0.8,1.9c0,0.6,0.2,1.2,0.6,1.6c0.4,0.5,0.9,0.8,1.5,1L22.2,29z"/>
</svg>
