<?xml version="1.0" encoding="utf-8"?>
<!-- Generator: Adobe Illustrator 26.3.1, SVG Export Plug-In . SVG Version: 6.00 Build 0)  -->
<svg version="1.1" id="Слой_1" xmlns="http://www.w3.org/2000/svg" xmlns:xlink="http://www.w3.org/1999/xlink" x="0px" y="0px"
	 viewBox="0 0 48 48" style="enable-background:new 0 0 48 48;" xml:space="preserve">
<path d="M7,41.8c-0.7,0-1.4-0.3-1.9-0.8c-0.6-0.6-0.8-1.2-0.8-1.9V12.5c0-0.7,0.3-1.4,0.8-1.9C5.6,10,6.3,9.8,7,9.8h16.9v1.5H7
	c-0.4,0-0.7,0.1-0.9,0.3c-0.2,0.2-0.3,0.5-0.3,0.9V39c0,0.4,0.1,0.7,0.3,0.9c0.2,0.2,0.5,0.3,0.9,0.3h26.5c0.4,0,0.7-0.1,0.9-0.3
	s0.3-0.5,0.3-0.9V26.1h1.5V39c0,0.7-0.3,1.4-0.8,1.9c-0.6,0.6-1.2,0.8-1.9,0.8C33.5,41.8,7,41.8,7,41.8z M11.8,34.8h1.5V22.9h-1.5
	V34.8z M19.5,34.8H21V16.7h-1.5V34.8z M27.1,34.8h1.5v-5.7h-1.5V34.8z M36.2,22.5c-1.1,0-2.1-0.2-3-0.6c-1-0.4-1.9-0.9-2.7-1.5
	L29,21.8c-0.2,0.1-0.4,0.2-0.6,0.2s-0.4,0-0.5-0.2c-0.2-0.2-0.3-0.4-0.3-0.6s0.1-0.4,0.3-0.5l1.5-1.5c-0.6-0.8-1-1.7-1.4-2.6
	s-0.6-1.9-0.6-2.9c0-2.4,0.9-4.5,2.6-6.2C31.7,5.9,33.8,5,36.2,5H45v8.8c0,2.4-0.9,4.5-2.6,6.2C40.7,21.7,38.7,22.5,36.2,22.5z
	 M36.2,21c2,0,3.7-0.7,5.1-2.1c1.4-1.4,2.1-3.1,2.1-5.1V6.5h-7.2c-2,0-3.7,0.7-5.1,2.1S29,11.7,29,13.7c0,0.8,0.1,1.6,0.4,2.3
	c0.3,0.7,0.6,1.4,1,2.1l6.3-6.3c0.2-0.2,0.4-0.3,0.5-0.3c0.2,0,0.4,0.1,0.5,0.2c0.2,0.2,0.3,0.4,0.3,0.6s-0.1,0.4-0.3,0.6l-6.3,6.3
	c0.6,0.5,1.4,1,2.2,1.3C34.6,20.9,35.4,21,36.2,21z"/>
</svg>
