<?xml version="1.0" encoding="utf-8"?>
<!-- Generator: Adobe Illustrator 26.3.1, SVG Export Plug-In . SVG Version: 6.00 Build 0)  -->
<svg version="1.1" id="Слой_1" xmlns="http://www.w3.org/2000/svg" xmlns:xlink="http://www.w3.org/1999/xlink" x="0px" y="0px"
	 viewBox="0 0 48 48" style="enable-background:new 0 0 48 48;" xml:space="preserve">
<path d="M23,32.8c2.2,0,4-0.8,5.5-2.3s2.3-3.3,2.3-5.5v-7.8H23c-2.2,0-4,0.8-5.5,2.3s-2.3,3.3-2.3,5.5c0,0.9,0.1,1.8,0.4,2.7
	c0.3,0.9,0.7,1.6,1.3,2.3l-1.5,1.5c-0.2,0.2-0.3,0.4-0.3,0.6c0,0.2,0.1,0.4,0.3,0.5c0.2,0.2,0.4,0.3,0.6,0.3s0.4-0.1,0.6-0.3L18,31
	c0.7,0.6,1.5,1,2.3,1.3S22.1,32.8,23,32.8z M23,31.2c-0.7,0-1.4-0.1-2-0.3c-0.7-0.2-1.3-0.5-1.9-0.9l5.4-5.5
	c0.2-0.2,0.3-0.4,0.3-0.5s-0.1-0.4-0.3-0.6c-0.2-0.2-0.4-0.3-0.6-0.3s-0.4,0.1-0.5,0.3L18,28.9c-0.4-0.6-0.7-1.2-0.9-1.9
	c-0.2-0.7-0.3-1.3-0.3-2c0-1.7,0.6-3.2,1.8-4.4c1.2-1.2,2.7-1.8,4.4-1.8h6.2V25c0,1.7-0.6,3.2-1.8,4.4C26.2,30.6,24.7,31.2,23,31.2z
	 M24,43.2l-6-4.7l-7.5-0.9l-1-7.6l-4.7-6l4.7-6l0.9-7.5l7.6-1l6-4.7l6,4.7l7.5,0.9l0.9,7.5l4.7,6l-4.7,6l-0.9,7.5L30,38.5L24,43.2z
	 M24,41.2l5.4-4.1l6.8-0.9l0.8-6.8l4.2-5.4L37,18.6l-0.9-6.8L29.4,11L24,6.8L18.6,11l-6.8,0.9L11,18.6L6.8,24l4.1,5.4l0.9,6.8
	l6.8,0.8L24,41.2z"/>
</svg>
