<?xml version="1.0" encoding="utf-8"?>
<!-- Generator: Adobe Illustrator 26.3.1, SVG Export Plug-In . SVG Version: 6.00 Build 0)  -->
<svg version="1.1" id="Слой_1" xmlns="http://www.w3.org/2000/svg" xmlns:xlink="http://www.w3.org/1999/xlink" x="0px" y="0px"
	 viewBox="0 0 48 48" style="enable-background:new 0 0 48 48;" xml:space="preserve">
<path d="M24,37.4c3.7,0,6.9-1.3,9.5-3.9s3.9-5.8,3.9-9.5V10.6H24c-3.7,0-6.9,1.3-9.5,3.9s-3.9,5.7-3.9,9.5c0,3.7,1.3,6.9,3.9,9.5
	S20.3,37.4,24,37.4z M21.9,31.7l8.2-7.4c0.3-0.2,0.3-0.5,0.2-0.8c-0.1-0.3-0.3-0.5-0.7-0.6l-6.4-0.6l3.9-5.3
	c0.1-0.1,0.1-0.2,0.1-0.4c0-0.1-0.1-0.3-0.2-0.4S26.7,16,26.5,16s-0.3,0.1-0.5,0.2l-8,7.4c-0.3,0.2-0.3,0.5-0.2,0.9
	c0.1,0.3,0.3,0.5,0.7,0.6l6.4,0.6L21,30.9c-0.1,0.1-0.1,0.2-0.1,0.4c0,0.1,0.1,0.3,0.2,0.4s0.2,0.2,0.4,0.2S21.8,31.9,21.9,31.7z
	 M24,38.9c-1.9,0-3.7-0.3-5.5-1c-1.7-0.7-3.2-1.6-4.6-2.8l-3.6,3.6c-0.1,0.1-0.2,0.1-0.3,0.2c-0.1,0-0.2,0-0.3,0
	c-0.2,0-0.4-0.1-0.5-0.2C9.1,38.6,9,38.4,9,38.1c0-0.1,0-0.2,0-0.3s0.1-0.2,0.2-0.2l3.6-3.6c-1.2-1.3-2.1-2.9-2.8-4.6s-1-3.5-1-5.5
	c0-4.1,1.5-7.7,4.4-10.6S19.8,9,24,9h14.9v15c0,4.2-1.4,7.7-4.3,10.6C31.7,37.5,28.2,38.9,24,38.9z"/>
</svg>
