<?xml version="1.0" encoding="utf-8"?>
<!-- Generator: Adobe Illustrator 26.3.1, SVG Export Plug-In . SVG Version: 6.00 Build 0)  -->
<svg version="1.1" id="Слой_1" xmlns="http://www.w3.org/2000/svg" xmlns:xlink="http://www.w3.org/1999/xlink" x="0px" y="0px"
	 viewBox="0 0 48 48" style="enable-background:new 0 0 48 48;" xml:space="preserve">
<path d="M3.8,40.4v-2.8c0-0.9,0.2-1.6,0.7-2.2c0.4-0.6,1.1-1.1,1.9-1.5c1.7-0.8,3.5-1.5,5.4-2s3.9-0.7,5.9-0.7s3.9,0.2,5.9,0.7
	c1.9,0.5,3.8,1.1,5.4,2c0.8,0.4,1.4,0.9,1.9,1.5s0.7,1.3,0.7,2.2v2.8C31.7,40.4,3.8,40.4,3.8,40.4z M5.4,38.8h24.8v-1.3
	c0-0.6-0.2-1.1-0.5-1.5c-0.4-0.4-0.8-0.7-1.3-0.9c-1.4-0.6-3-1.2-4.8-1.7c-1.8-0.5-3.8-0.8-5.8-0.8s-3.9,0.3-5.8,0.8
	c-1.8,0.5-3.4,1.1-4.8,1.7c-0.5,0.2-0.9,0.5-1.3,0.9s-0.5,0.9-0.5,1.5C5.4,37.6,5.4,38.8,5.4,38.8z M17.7,26.2
	c-1.7,0-3.1-0.5-4.2-1.6s-1.6-2.5-1.6-4.4h-0.4c-0.2,0-0.4-0.1-0.5-0.2s-0.2-0.3-0.2-0.5s0.1-0.4,0.2-0.5c0.1-0.2,0.3-0.2,0.5-0.2
	H12c0-0.9,0.2-1.8,0.6-2.5c0.4-0.8,0.9-1.5,1.7-2.2V16c0,0.2,0.1,0.3,0.2,0.4c0.1,0.1,0.3,0.2,0.5,0.2s0.3-0.1,0.5-0.2
	c0.1-0.1,0.2-0.3,0.2-0.4v-2.6c0.3-0.1,0.6-0.2,1-0.3c0.4-0.1,0.8-0.1,1.2-0.1c0.4,0,0.8,0,1.2,0.1c0.4,0.1,0.8,0.2,1,0.3V16
	c0,0.2,0.1,0.3,0.2,0.4s0.3,0.2,0.5,0.2s0.3-0.1,0.5-0.2c0.1-0.1,0.2-0.3,0.2-0.4v-1.9c0.8,0.7,1.3,1.5,1.7,2.2
	c0.3,0.8,0.5,1.6,0.6,2.5h0.4c0.2,0,0.4,0.1,0.5,0.2c0.1,0.2,0.2,0.3,0.2,0.5s-0.1,0.4-0.2,0.5s-0.3,0.2-0.5,0.2h-0.4
	c0,1.9-0.5,3.3-1.6,4.4C20.8,25.7,19.4,26.2,17.7,26.2z M17.7,24.7c1.3,0,2.3-0.4,3.1-1.2s1.2-1.8,1.2-3.1h-8.5
	c0,1.3,0.4,2.3,1.2,3.1S16.5,24.7,17.7,24.7z M32.8,29.7v-1.4c-0.3-0.1-0.5-0.2-0.9-0.4c-0.3-0.2-0.6-0.4-0.8-0.6L29.8,28L29,26.7
	l1.3-0.8c-0.1-0.2-0.1-0.3-0.1-0.5s0-0.3,0-0.4c0-0.2,0-0.3,0-0.4s0.1-0.3,0.1-0.5L29,23.3l0.8-1.3l1.3,0.7c0.2-0.2,0.5-0.4,0.8-0.6
	c0.3-0.2,0.6-0.3,0.8-0.4v-1.4h1.5l0.1,1.4c0.3,0.1,0.5,0.3,0.8,0.4c0.3,0.2,0.6,0.4,0.8,0.6l1.3-0.7l0.8,1.3l-1.3,0.8
	c0.1,0.2,0.1,0.3,0.1,0.5v0.9c0,0.2,0,0.3-0.1,0.5l1.3,0.8l-0.8,1.3l-1.3-0.7c-0.2,0.2-0.5,0.4-0.8,0.6s-0.6,0.3-0.9,0.4l-0.1,1.4
	C34.4,29.7,32.8,29.7,32.8,29.7z M33.6,27c0.6,0,1-0.2,1.4-0.6s0.6-0.8,0.6-1.4s-0.2-1-0.6-1.4S34.2,23,33.6,23
	c-0.6,0-1,0.2-1.4,0.6c-0.4,0.4-0.6,0.9-0.6,1.4s0.2,1,0.6,1.4C32.6,26.8,33.1,27,33.6,27z M38.1,18.4L37.9,17
	c-0.4-0.1-0.8-0.3-1.3-0.5c-0.5-0.3-0.8-0.6-1.1-0.9L34,16.2L33.3,15l1.4-0.9c-0.1-0.2-0.1-0.4-0.2-0.6c0-0.2-0.1-0.5-0.1-0.7
	s0-0.4,0.1-0.7s0.1-0.5,0.2-0.7l-1.4-0.9L34,9.4l1.5,0.6c0.2-0.3,0.6-0.7,1.1-0.9c0.5-0.3,0.9-0.5,1.3-0.5l0.2-1.4h1.3l0.2,1.4
	c0.4,0,0.8,0.2,1.3,0.5S41.7,9.7,42,10l1.5-0.6l0.7,1.2l-1.4,0.9c0.1,0.2,0.1,0.4,0.2,0.7c0,0.3,0.1,0.5,0.1,0.7s0,0.5-0.1,0.7
	c0,0.2-0.1,0.5-0.2,0.6l1.4,0.9l-0.7,1.2L42,15.5c-0.3,0.3-0.6,0.7-1.1,0.9c-0.5,0.3-0.9,0.5-1.3,0.5l-0.2,1.4
	C39.4,18.4,38.1,18.4,38.1,18.4z M38.7,15.7c0.8,0,1.5-0.3,2.1-0.8c0.6-0.6,0.8-1.3,0.8-2.1s-0.3-1.5-0.8-2.1s-1.2-0.8-2.1-0.8
	c-0.9,0-1.6,0.3-2.1,0.8s-0.8,1.2-0.8,2.1c0,0.9,0.3,1.6,0.8,2.1C37.2,15.4,37.9,15.7,38.7,15.7z"/>
</svg>
