<?xml version="1.0" encoding="utf-8"?>
<!-- Generator: Adobe Illustrator 26.3.1, SVG Export Plug-In . SVG Version: 6.00 Build 0)  -->
<svg version="1.1" id="Слой_1" xmlns="http://www.w3.org/2000/svg" xmlns:xlink="http://www.w3.org/1999/xlink" x="0px" y="0px"
	 viewBox="0 0 48 48" style="enable-background:new 0 0 48 48;" xml:space="preserve">
<path d="M42.2,44.6L37.6,40H8.8c-0.8,0-1.4-0.3-2-0.8C6.3,38.7,6,38,6,37.2V16.8c0-0.8,0.3-1.4,0.8-2C7.3,14.3,8,14,8.8,14h5.1
	l1.5,1.5H8.8c-0.3,0-0.6,0.1-0.8,0.4c-0.3,0.3-0.4,0.5-0.4,0.8v20.5c0,0.3,0.1,0.6,0.4,0.8c0.3,0.3,0.5,0.4,0.8,0.4h27.3L5.8,8.2
	l1.1-1.1l36.4,36.4C43.3,43.5,42.2,44.6,42.2,44.6z M42,36.8l-1.5-1.5V16.8c0-0.3-0.1-0.6-0.4-0.8c-0.3-0.3-0.5-0.4-0.8-0.4H20.7
	L18,12.8v-2c0-0.8,0.3-1.4,0.8-2C19.3,8.3,20,8,20.8,8h6.5c0.8,0,1.4,0.3,2,0.8c0.5,0.5,0.8,1.2,0.8,2V14h9.2c0.8,0,1.4,0.3,2,0.8
	c0.5,0.5,0.8,1.2,0.8,2C42,16.8,42,36.8,42,36.8z M19.5,14h8.9v-3.2c0-0.3-0.1-0.6-0.4-0.8c-0.3-0.3-0.5-0.4-0.8-0.4h-6.5
	c-0.3,0-0.6,0.1-0.8,0.4c-0.3,0.3-0.4,0.5-0.4,0.8C19.5,10.8,19.5,14,19.5,14z"/>
</svg>
