<?xml version="1.0" encoding="utf-8"?>
<!-- Generator: Adobe Illustrator 26.3.1, SVG Export Plug-In . SVG Version: 6.00 Build 0)  -->
<svg version="1.1" id="Слой_1" xmlns="http://www.w3.org/2000/svg" xmlns:xlink="http://www.w3.org/1999/xlink" x="0px" y="0px"
	 viewBox="0 0 48 48" style="enable-background:new 0 0 48 48;" xml:space="preserve">
<path d="M17.5,36c-1.5,0-2.8-0.5-3.9-1.6S12,32.1,12,30.6c0-0.7,0.1-1.4,0.4-2.1c0.3-0.7,0.7-1.3,1.2-1.8l13-13.1
	c0.5-0.5,1.1-0.9,1.8-1.2c0.7-0.3,1.4-0.4,2.1-0.4c1.5,0,2.8,0.5,3.8,1.6c1.1,1.1,1.6,2.3,1.6,3.8c0,0.7-0.1,1.4-0.4,2.1
	c-0.3,0.7-0.7,1.3-1.2,1.8l-13,13.1c-0.6,0.5-1.2,0.9-1.8,1.2C18.9,35.9,18.2,36,17.5,36z"/>
</svg>
