<?xml version="1.0" encoding="utf-8"?>
<!-- Generator: Adobe Illustrator 26.3.1, SVG Export Plug-In . SVG Version: 6.00 Build 0)  -->
<svg version="1.1" id="Слой_1" xmlns="http://www.w3.org/2000/svg" xmlns:xlink="http://www.w3.org/1999/xlink" x="0px" y="0px"
	 viewBox="0 0 48 48" style="enable-background:new 0 0 48 48;" xml:space="preserve">
<path d="M14.7,36c-0.7,0-1.4-0.3-1.9-0.8S12,34,12,33.3c0-0.3,0.1-0.6,0.2-1c0.1-0.3,0.3-0.6,0.6-0.9l18.7-18.7
	c0.3-0.3,0.6-0.5,0.9-0.6c0.3-0.1,0.7-0.2,1-0.2c0.7,0,1.3,0.3,1.8,0.8s0.8,1.1,0.8,1.9c0,0.3-0.1,0.7-0.2,1
	c-0.1,0.3-0.3,0.6-0.5,0.9L16.5,35.2c-0.3,0.3-0.5,0.5-0.9,0.6C15.4,35.9,15,36,14.7,36z"/>
</svg>
