<?xml version="1.0" encoding="utf-8"?>
<!-- Generator: Adobe Illustrator 26.3.1, SVG Export Plug-In . SVG Version: 6.00 Build 0)  -->
<svg version="1.1" id="Слой_1" xmlns="http://www.w3.org/2000/svg" xmlns:xlink="http://www.w3.org/1999/xlink" x="0px" y="0px"
	 viewBox="0 0 48 48" style="enable-background:new 0 0 48 48;" xml:space="preserve">
<path d="M16.9,35.9c-1.3,0-2.4-0.5-3.4-1.4c-0.9-0.9-1.4-2-1.4-3.4c0-0.6,0.1-1.2,0.4-1.8c0.2-0.6,0.6-1.1,1-1.6l14.2-14.2
	c0.5-0.5,1-0.8,1.6-1s1.2-0.4,1.8-0.4c1.3,0,2.4,0.5,3.4,1.4c0.9,0.9,1.4,2,1.4,3.4c0,0.6-0.1,1.2-0.4,1.8c-0.2,0.6-0.6,1.1-1,1.6
	L20.2,34.5c-0.5,0.5-1,0.8-1.6,1C18.1,35.8,17.5,35.9,16.9,35.9z"/>
</svg>
