<?xml version="1.0" encoding="utf-8"?>
<!-- Generator: Adobe Illustrator 26.3.1, SVG Export Plug-In . SVG Version: 6.00 Build 0)  -->
<svg version="1.1" id="Слой_1" xmlns="http://www.w3.org/2000/svg" xmlns:xlink="http://www.w3.org/1999/xlink" x="0px" y="0px"
	 viewBox="0 0 48 48" style="enable-background:new 0 0 48 48;" xml:space="preserve">
<path d="M24.1,26.5c0.2,0,0.4-0.1,0.5-0.2c0.1-0.2,0.2-0.3,0.2-0.5V14.9c0-0.2-0.1-0.4-0.2-0.5c-0.1-0.2-0.3-0.2-0.6-0.2
	c-0.2,0-0.4,0.1-0.5,0.2c-0.1,0.2-0.2,0.3-0.2,0.6v10.8c0,0.2,0.1,0.4,0.2,0.5C23.7,26.4,23.9,26.5,24.1,26.5z M24,32.9
	c0.3,0,0.6-0.1,0.8-0.3c0.2-0.2,0.3-0.4,0.3-0.8c0-0.3-0.1-0.6-0.3-0.8c-0.2-0.2-0.4-0.3-0.8-0.3s-0.6,0.1-0.8,0.3
	C23,31.3,23,31.5,23,31.8s0.1,0.6,0.3,0.8C23.4,32.8,23.7,32.9,24,32.9z M24,42c-2.5,0-4.9-0.5-7.1-1.4s-4.1-2.2-5.7-3.8
	s-2.9-3.5-3.8-5.7S6,26.5,6,24s0.5-4.9,1.4-7.1s2.2-4.1,3.8-5.7s3.5-2.9,5.7-3.8S21.5,6,24,6s4.9,0.5,7.1,1.4s4.1,2.2,5.7,3.8
	s2.9,3.5,3.8,5.7S42,21.5,42,24s-0.5,4.9-1.4,7.1s-2.2,4.1-3.8,5.7s-3.5,2.9-5.7,3.8S26.5,42,24,42z M24,40.5
	c4.5,0,8.4-1.6,11.6-4.8s4.8-7.1,4.8-11.6s-1.6-8.4-4.8-11.6s-7.1-5-11.6-4.9c-4.5,0-8.4,1.6-11.6,4.8S7.5,19.5,7.6,24
	c0,4.5,1.6,8.4,4.8,11.6S19.5,40.5,24,40.5z"/>
</svg>
