<?xml version="1.0" encoding="utf-8"?>
<!-- Generator: Adobe Illustrator 26.3.1, SVG Export Plug-In . SVG Version: 6.00 Build 0)  -->
<svg version="1.1" id="Слой_1" xmlns="http://www.w3.org/2000/svg" xmlns:xlink="http://www.w3.org/1999/xlink" x="0px" y="0px"
	 viewBox="0 0 48 48" style="enable-background:new 0 0 48 48;" xml:space="preserve">
<path d="M30.1,40c-3.8,0-7.1-1.1-10-3.2c-2.8-2.2-4.7-5-5.8-8.4H7.5v-1.5h6.6c-0.2-0.9-0.2-1.8-0.2-2.8s0.1-2,0.2-2.9H7.5v-1.5h7
	c1-3.4,2.9-6.2,5.7-8.4S26.3,8,30.1,8c2,0,3.8,0.3,5.6,1c1.8,0.6,3.4,1.5,4.9,2.7l-1.1,1.1c-1.3-1-2.8-1.8-4.4-2.4
	c-1.6-0.6-3.3-0.8-5-0.8c-3.5,0-6.4,1-8.9,2.9s-4.2,4.3-5.1,7.2h13.8v1.5H15.7c-0.2,0.8-0.3,1.7-0.3,2.8c0,1,0.1,2,0.3,2.9h14.2v1.5
	H16c1,2.9,2.7,5.3,5.2,7.2c2.5,1.9,5.5,2.9,8.9,2.9c1.7,0,3.4-0.3,5-0.8s3.1-1.3,4.4-2.4l1.1,1.1c-1.4,1.1-3,2-4.8,2.7
	C34,39.7,32.1,40,30.1,40z"/>
</svg>
