<?xml version="1.0" encoding="utf-8"?>
<!-- Generator: Adobe Illustrator 26.3.1, SVG Export Plug-In . SVG Version: 6.00 Build 0)  -->
<svg version="1.1" id="Слой_1" xmlns="http://www.w3.org/2000/svg" xmlns:xlink="http://www.w3.org/1999/xlink" x="0px" y="0px"
	 viewBox="0 0 48 48" style="enable-background:new 0 0 48 48;" xml:space="preserve">
<path d="M17.2,35.9l3.3-6h-2v-4.7l-3.3,6h1.9v4.7H17.2z M11.5,21.2h12.7V10.8c0-0.3-0.1-0.6-0.4-0.8c-0.3-0.3-0.5-0.4-0.8-0.4H12.8
	c-0.3,0-0.6,0.1-0.8,0.4c-0.3,0.3-0.4,0.5-0.4,0.8v10.4H11.5z M11.5,38.5h12.7V22.7H11.5V38.5z M10,40V10.8c0-0.8,0.3-1.4,0.8-2
	C11.3,8.3,12,8,12.8,8H23c0.8,0,1.4,0.3,2,0.8c0.5,0.5,0.8,1.2,0.8,2V23H28c0.7,0,1.4,0.3,1.9,0.8s0.8,1.1,0.8,1.9v10
	c0,0.8,0.3,1.4,0.9,2c0.6,0.5,1.4,0.8,2.2,0.8c0.9,0,1.6-0.3,2.3-0.8s1-1.2,1-2V17.5h-0.8c-0.4,0-0.7-0.1-1-0.4s-0.4-0.6-0.4-1v-3.4
	h0.8v-2H37v2h1.7v-2H40v2h0.8v3.4c0,0.4-0.1,0.7-0.4,1c-0.3,0.3-0.6,0.4-1,0.4h-0.8v18.1c0,1.2-0.5,2.3-1.4,3.1
	c-1,0.8-2.1,1.3-3.4,1.3c-1.3,0-2.4-0.4-3.3-1.3c-0.9-0.8-1.4-1.9-1.4-3.1v-10c0-0.3-0.1-0.6-0.3-0.8c-0.2-0.2-0.5-0.3-0.8-0.3h-2.3
	V40H10z M24.2,38.5H11.5H24.2z"/>
</svg>
