<?xml version="1.0" encoding="utf-8"?>
<!-- Generator: Adobe Illustrator 26.3.1, SVG Export Plug-In . SVG Version: 6.00 Build 0)  -->
<svg version="1.1" id="Слой_1" xmlns="http://www.w3.org/2000/svg" xmlns:xlink="http://www.w3.org/1999/xlink" x="0px" y="0px"
	 viewBox="0 0 48 48" style="enable-background:new 0 0 48 48;" xml:space="preserve">
<path d="M24,42c-2.5,0-4.8-0.5-7-1.4s-4.1-2.2-5.7-3.9c-1.6-1.6-2.9-3.5-3.9-5.7C6.5,28.8,6,26.5,6,24s0.5-4.8,1.4-7
	s2.2-4.1,3.9-5.7c1.6-1.6,3.5-2.9,5.7-3.9C19.2,6.5,21.5,6,24,6s4.8,0.5,7,1.4s4.1,2.2,5.7,3.9c1.6,1.6,2.9,3.5,3.9,5.7
	c0.9,2.2,1.4,4.5,1.4,7c0,0.3,0,0.6,0,0.8c0,0.3,0,0.5-0.1,0.8c-0.6-0.4-1.1-0.8-1.8-1.1c-0.6-0.3-1.3-0.6-2-0.8l2.1-2.5
	c-0.2-1-0.5-2-0.8-2.9s-0.8-1.8-1.3-2.7l-18,18c0.7,1,1.5,1.8,2.3,2.6s1.7,1.4,2.7,2c0.3,0.7,0.6,1.3,1,1.9c0.4,0.6,0.9,1.1,1.3,1.6
	c-0.6,0.1-1.2,0.2-1.8,0.3C25.2,42,24.6,42,24,42z M19.3,32.3l18-18c-0.5-0.7-1.1-1.4-1.8-2c-0.6-0.6-1.3-1.2-2-1.7L17.3,26.7
	c0.2,1,0.5,2,0.8,2.9C18.4,30.5,18.8,31.4,19.3,32.3z M17.1,24.8L32.2,9.7c-0.5-0.3-1.1-0.6-1.6-0.8s-1.1-0.4-1.7-0.6
	c-3.6,1.1-6.6,3.2-8.8,6.2S16.9,21,17.1,24.8z M7.5,24c0,4.6,1.6,8.6,4.9,11.8s7.3,4.8,12,4.7c0.3,0,0.5,0,0.8,0l0.8-0.1
	c-3.1-1.4-5.7-3.6-7.6-6.5c-1.9-2.9-2.9-6.2-2.9-9.9s1-6.9,2.9-9.9c2-2.9,4.5-5.1,7.6-6.5l-0.8-0.1c-0.3,0-0.6,0-0.8,0
	c-4.7-0.1-8.6,1.5-11.9,4.7C9.2,15.4,7.5,19.4,7.5,24z M28.5,34.8v-1.5H42v1.5H28.5z"/>
</svg>
