<?xml version="1.0" encoding="utf-8"?>
<!-- Generator: Adobe Illustrator 26.3.1, SVG Export Plug-In . SVG Version: 6.00 Build 0)  -->
<svg version="1.1" id="Слой_1" xmlns="http://www.w3.org/2000/svg" xmlns:xlink="http://www.w3.org/1999/xlink" x="0px" y="0px"
	 viewBox="0 0 48 48" style="enable-background:new 0 0 48 48;" xml:space="preserve">
<path d="M21.8,35.2l-5.6-5.6l1.1-1.1l4.6,4.5l8.8-8.9l1.1,1.1C31.7,25.3,21.8,35.2,21.8,35.2z M10.8,42c-0.8,0-1.4-0.3-2-0.8
	C8.3,40.7,8,40,8,39.2V12.3c0-0.8,0.3-1.4,0.8-2c0.5-0.5,1.2-0.8,2-0.8h4.1v-4h1.8v4h14.8v-4h1.7v4h4.1c0.8,0,1.4,0.3,2,0.8
	c0.5,0.5,0.8,1.2,0.8,2v26.9c0,0.8-0.3,1.4-0.8,2c-0.5,0.5-1.2,0.8-2,0.8H10.8z M10.8,40.5h26.5c0.3,0,0.6-0.1,0.8-0.4
	c0.3-0.3,0.4-0.5,0.4-0.8V21h-29v18.2c0,0.3,0.1,0.6,0.4,0.8S10.5,40.5,10.8,40.5z M9.5,19.5h28.9v-7.2c0-0.3-0.1-0.6-0.4-0.8
	s-0.5-0.4-0.8-0.4H10.8c-0.3,0-0.6,0.1-0.8,0.4S9.5,12,9.5,12.3V19.5z M9.5,19.5v-8.4V19.5z"/>
</svg>
