<?xml version="1.0" encoding="utf-8"?>
<!-- Generator: Adobe Illustrator 26.3.1, SVG Export Plug-In . SVG Version: 6.00 Build 0)  -->
<svg version="1.1" id="Слой_1" xmlns="http://www.w3.org/2000/svg" xmlns:xlink="http://www.w3.org/1999/xlink" x="0px" y="0px"
	 viewBox="0 0 48 48" style="enable-background:new 0 0 48 48;" xml:space="preserve">
<path d="M29.3,42v-1.5h7.9c0.3,0,0.6-0.1,0.8-0.4c0.3-0.3,0.4-0.5,0.4-0.8V21H9.5v9.2H8V12.3c0-0.8,0.3-1.4,0.8-2
	c0.5-0.5,1.2-0.8,2-0.8h4.1v-4h1.8v4h14.8v-4h1.7v4h4.1c0.8,0,1.4,0.3,2,0.8c0.5,0.5,0.8,1.2,0.8,2v26.9c0,0.8-0.3,1.4-0.8,2
	c-0.5,0.5-1.2,0.8-2,0.8H29.3z M16,46.3l-1.1-1.1l6.3-6.4h-18v-1.5h18.1L15,30.9l1.1-1.1l8.3,8.3L16,46.3z M9.5,19.5h28.9v-7.2
	c0-0.3-0.1-0.6-0.4-0.8s-0.5-0.4-0.8-0.4H10.8c-0.3,0-0.6,0.1-0.8,0.4S9.5,12,9.5,12.3V19.5z M9.5,19.5v-8.4V19.5z"/>
</svg>
