<?xml version="1.0" encoding="utf-8"?>
<!-- Generator: Adobe Illustrator 26.3.1, SVG Export Plug-In . SVG Version: 6.00 Build 0)  -->
<svg version="1.1" id="Слой_1" xmlns="http://www.w3.org/2000/svg" xmlns:xlink="http://www.w3.org/1999/xlink" x="0px" y="0px"
	 viewBox="0 0 48 48" style="enable-background:new 0 0 48 48;" xml:space="preserve">
<path d="M9,40.6v-9.5h30v9.5h-1.5v-8h-27v8H9z M9.8,27.1c-0.5,0-0.9-0.2-1.3-0.5C8.2,26.2,8,25.8,8,25.3s0.2-0.9,0.5-1.3
	c0.3-0.3,0.8-0.5,1.3-0.5s0.9,0.2,1.3,0.5c0.3,0.3,0.5,0.8,0.5,1.3s-0.2,0.9-0.5,1.3C10.7,26.9,10.3,27.1,9.8,27.1z M15.5,27.1V10.4
	c0-0.7,0.3-1.4,0.8-1.9c0.6-0.6,1.2-0.8,1.9-0.8h11.4c0.7,0,1.4,0.3,1.9,0.8c0.6,0.6,0.8,1.2,0.8,1.9v16.7H15.5z M38.2,27.1
	c-0.5,0-0.9-0.2-1.3-0.5c-0.3-0.3-0.5-0.8-0.5-1.3s0.2-0.9,0.5-1.3c0.3-0.3,0.8-0.5,1.3-0.5s0.9,0.2,1.3,0.5
	c0.3,0.3,0.5,0.8,0.5,1.3s-0.2,0.9-0.5,1.3C39.1,26.9,38.7,27.1,38.2,27.1z M17.1,25.5h13.8V10.4c0-0.4-0.1-0.7-0.3-0.9
	c-0.2-0.2-0.5-0.3-0.9-0.3H18.3c-0.4,0-0.7,0.1-0.9,0.3c-0.2,0.2-0.3,0.5-0.3,0.9V25.5z M17.1,25.5h13.8
	C30.9,25.5,17.1,25.5,17.1,25.5z"/>
</svg>
