<?xml version="1.0" encoding="utf-8"?>
<!-- Generator: Adobe Illustrator 26.3.1, SVG Export Plug-In . SVG Version: 6.00 Build 0)  -->
<svg version="1.1" id="Слой_1" xmlns="http://www.w3.org/2000/svg" xmlns:xlink="http://www.w3.org/1999/xlink" x="0px" y="0px"
	 viewBox="0 0 48 48" style="enable-background:new 0 0 48 48;" xml:space="preserve">
<path d="M31.2,40c-0.5,0-1-0.2-1.4-0.6c-0.4-0.4-0.6-0.9-0.6-1.4v-8.8c0-0.5,0.2-1,0.6-1.4s0.9-0.6,1.4-0.6H40c0.5,0,1,0.2,1.4,0.6
	s0.6,0.9,0.6,1.4V38c0,0.5-0.2,1-0.6,1.4C41,39.8,40.5,40,40,40H31.2z M30.8,38.5h9.7v-9.7h-9.7V38.5z M6,34.4v-1.5h16.5v1.5H6z
	 M31.2,20.8c-0.5,0-1-0.2-1.4-0.6s-0.6-0.9-0.6-1.4V10c0-0.5,0.2-1,0.6-1.4C30.2,8.2,30.7,8,31.2,8H40c0.5,0,1,0.2,1.4,0.6
	C41.8,9,42,9.5,42,10v8.8c0,0.5-0.2,1-0.6,1.4c-0.4,0.4-0.9,0.6-1.4,0.6H31.2z M30.8,19.2h9.7V9.5h-9.7V19.2z M6,15.2v-1.5h16.5v1.5
	H6z"/>
</svg>
