<?xml version="1.0" encoding="utf-8"?>
<!-- Generator: Adobe Illustrator 26.3.1, SVG Export Plug-In . SVG Version: 6.00 Build 0)  -->
<svg version="1.1" id="Слой_1" xmlns="http://www.w3.org/2000/svg" xmlns:xlink="http://www.w3.org/1999/xlink" x="0px" y="0px"
	 viewBox="0 0 48 48" style="enable-background:new 0 0 48 48;" xml:space="preserve">
<path d="M38.8,18.8l-1.1-1.1l1.3-1.3c0.3-0.3,0.4-0.5,0.4-0.9c0-0.3-0.1-0.6-0.4-0.9l-5.7-5.7c-0.3-0.3-0.5-0.4-0.9-0.4
	c-0.3,0-0.6,0.1-0.9,0.4l-1.3,1.3l-1.1-1.1L30.3,8c0.6-0.6,1.3-0.9,2.2-0.9s1.6,0.3,2.2,0.9l5.3,5.3c0.6,0.6,0.9,1.3,0.9,2.1
	s-0.3,1.5-0.9,2.1L38.8,18.8z M17.7,39.9c-0.6,0.6-1.3,0.9-2.1,0.9c-0.8,0-1.5-0.3-2.1-0.9L8,34.4c-0.5-0.6-0.8-1.2-0.8-2
	s0.3-1.4,0.8-2l1.3-1.3l1.1,1.1L9,31.6c-0.3,0.3-0.4,0.5-0.4,0.9c0,0.3,0.1,0.6,0.4,0.9l5.7,5.7c0.3,0.3,0.5,0.4,0.9,0.4
	c0.3,0,0.6-0.1,0.9-0.4l1.3-1.3l1.1,1.1L17.7,39.9z M37.2,26.9l2.9-2.9c0.3-0.3,0.4-0.6,0.4-0.9s-0.1-0.6-0.4-0.9L25.7,7.9
	c-0.3-0.3-0.6-0.4-0.9-0.4S24.2,7.7,24,7.9l-2.9,2.9c-0.3,0.3-0.4,0.5-0.4,0.9c0,0.3,0.1,0.6,0.4,0.9L35.5,27
	c0.3,0.3,0.5,0.4,0.9,0.4C36.6,27.3,36.9,27.2,37.2,26.9z M24,40.1l3-2.9c0.3-0.3,0.4-0.5,0.4-0.9c0-0.3-0.1-0.6-0.4-0.9L12.6,21
	c-0.3-0.3-0.5-0.4-0.9-0.4c-0.3,0-0.6,0.1-0.9,0.4l-2.9,3c-0.3,0.3-0.4,0.6-0.4,0.9s0.1,0.6,0.4,0.9l14.3,14.3
	c0.3,0.3,0.6,0.4,0.9,0.4C23.5,40.4,23.8,40.3,24,40.1z M23,29.2l6.2-6.3l-4.1-4.1L18.8,25L23,29.2z M25.1,41.2
	c-0.5,0.5-1.2,0.8-1.9,0.8c-0.8,0-1.4-0.3-1.9-0.8L6.8,26.8C6.3,26.2,6,25.6,6,24.9c0-0.8,0.3-1.4,0.8-1.9l2.9-3
	c0.6-0.5,1.2-0.8,2-0.8s1.4,0.3,2,0.8l4,4l6.3-6.3l-4-4c-0.5-0.5-0.8-1.2-0.8-1.9c0-0.8,0.3-1.4,0.8-2l2.9-3c0.6-0.5,1.2-0.8,2-0.8
	s1.4,0.3,2,0.8l14.4,14.4c0.5,0.6,0.8,1.2,0.8,2s-0.3,1.4-0.8,2l-3,2.9c-0.5,0.5-1.2,0.8-2,0.8s-1.4-0.3-1.9-0.8l-4-4L24,30.3l4,4
	c0.5,0.6,0.8,1.2,0.8,2s-0.3,1.4-0.8,2C28.1,38.2,25.1,41.2,25.1,41.2z"/>
</svg>
