<?xml version="1.0" encoding="utf-8"?>
<!-- Generator: Adobe Illustrator 26.3.1, SVG Export Plug-In . SVG Version: 6.00 Build 0)  -->
<svg version="1.1" id="Слой_1" xmlns="http://www.w3.org/2000/svg" xmlns:xlink="http://www.w3.org/1999/xlink" x="0px" y="0px"
	 viewBox="0 0 48 48" style="enable-background:new 0 0 48 48;" xml:space="preserve">
<path d="M24,42c-2.5,0-4.8-0.5-7-1.4s-4.1-2.2-5.7-3.8s-2.9-3.5-3.8-5.7C6.5,28.8,6,26.5,6,24s0.5-4.8,1.4-7s2.2-4.1,3.8-5.7
	s3.5-2.9,5.7-3.8C19.2,6.5,21.5,6,24,6s4.8,0.5,7,1.4s4.1,2.2,5.7,3.8c1.6,1.6,2.9,3.5,3.8,5.7c0.9,2.2,1.4,4.5,1.4,7
	s-0.5,4.8-1.4,7s-2.2,4.1-3.8,5.7s-3.5,2.9-5.7,3.8C28.8,41.5,26.5,42,24,42z M24,31.8c1.1-1.1,2-2.2,2.8-3.3c0.7-1,1.4-2,2-3.2
	s0.9-2.3,0.9-3.4c0-1.6-0.6-2.9-1.7-4s-2.4-1.7-4-1.7s-2.9,0.6-4,1.7s-1.7,2.4-1.7,4c0,1.1,0.3,2.3,0.9,3.4c0.6,1.2,1.2,2.2,2,3.2
	C22,29.6,22.9,30.7,24,31.8z M24,24c-0.6,0-1.1-0.2-1.5-0.6s-0.6-0.9-0.6-1.5s0.2-1.1,0.6-1.5s0.9-0.6,1.5-0.6s1.1,0.2,1.5,0.6
	s0.6,0.9,0.6,1.5s-0.2,1.1-0.6,1.5S24.6,24,24,24z"/>
</svg>
