<?xml version="1.0" encoding="utf-8"?>
<!-- Generator: Adobe Illustrator 26.3.1, SVG Export Plug-In . SVG Version: 6.00 Build 0)  -->
<svg version="1.1" id="Слой_1" xmlns="http://www.w3.org/2000/svg" xmlns:xlink="http://www.w3.org/1999/xlink" x="0px" y="0px"
	 viewBox="0 0 48 48" style="enable-background:new 0 0 48 48;" xml:space="preserve">
<path d="M28.6,23.6l-4.1-4.1l9.2-5C33.6,14.4,28.6,23.6,28.6,23.6z M40.2,42.4l-4.6-4.6c-1.6,1.3-3.3,2.3-5.3,3.1
	c-2,0.7-4.1,1.1-6.3,1.1c-2.5,0-4.9-0.5-7-1.4c-2.2-0.9-4.1-2.2-5.7-3.8s-2.9-3.5-3.8-5.7C6.5,28.9,6,26.5,6,24
	c0-2.2,0.4-4.3,1.1-6.3s1.8-3.7,3.1-5.3L5.6,7.8l1.1-1.1l34.5,34.5C41.3,41.3,40.2,42.4,40.2,42.4z M39,34l-1.1-1.1
	c0.8-1.3,1.4-2.7,1.9-4.2s0.7-3.1,0.7-4.7c0-4.6-1.6-8.5-4.8-11.7C32.5,9.1,28.6,7.5,24,7.5c-1.7,0-3.2,0.2-4.7,0.7
	s-2.9,1.1-4.2,1.9L14,9c1.4-0.9,3-1.7,4.7-2.2C20.3,6.3,22.1,6,24,6c2.5,0,4.8,0.5,7,1.4s4.1,2.2,5.7,3.8c1.6,1.6,2.9,3.5,3.8,5.7
	c0.9,2.2,1.4,4.5,1.4,7c0,1.9-0.3,3.7-0.8,5.3C40.7,31,40,32.6,39,34z M24,40.5c2,0,3.9-0.3,5.7-1c1.8-0.7,3.4-1.6,4.8-2.8l-9.1-9.1
	l-11,6.1l6.2-10.9l-9.3-9.3c-1.2,1.4-2.1,3-2.8,4.8c-0.7,1.8-1,3.7-1,5.7c0,4.6,1.6,8.5,4.8,11.7S19.4,40.5,24,40.5z"/>
</svg>
