<?xml version="1.0" encoding="utf-8"?>
<!-- Generator: Adobe Illustrator 26.3.1, SVG Export Plug-In . SVG Version: 6.00 Build 0)  -->
<svg version="1.1" id="Слой_1" xmlns="http://www.w3.org/2000/svg" xmlns:xlink="http://www.w3.org/1999/xlink" x="0px" y="0px"
	 viewBox="0 0 48 48" style="enable-background:new 0 0 48 48;" xml:space="preserve">
<path d="M33.4,40.3l5.2-5.2v4.3h1.3v-6.5h-6.5v1.3h4.3l-5.2,5.2C32.5,39.3,33.4,40.3,33.4,40.3z M10.8,40c-0.7,0-1.4-0.3-1.9-0.8
	S8,38,8,37.2V10.8c0-0.8,0.3-1.4,0.8-2C9.4,8.3,10,8,10.8,8h26.5c0.7,0,1.4,0.3,1.9,0.8c0.5,0.6,0.8,1.2,0.8,2v13.3
	c-0.3-0.1-0.5-0.2-0.8-0.2c-0.3-0.1-0.5-0.1-0.8-0.2V10.8c0-0.3-0.1-0.6-0.4-0.8c-0.3-0.3-0.5-0.4-0.8-0.4H10.8
	c-0.3,0-0.6,0.1-0.8,0.4c-0.3,0.3-0.4,0.5-0.4,0.8v26.5c0,0.3,0.1,0.6,0.4,0.8s0.5,0.4,0.8,0.4h12.9c0.1,0.3,0.1,0.5,0.2,0.8
	s0.1,0.5,0.2,0.7H10.8z M9.5,36.3v2.2v-29v14.1v-0.2C9.5,23.5,9.5,36.3,9.5,36.3z M15,32.5h9c0.1-0.3,0.2-0.5,0.3-0.8
	c0.1-0.3,0.2-0.5,0.4-0.8H15C15,31,15,32.5,15,32.5z M15,24.8h15.5c0.4-0.1,0.7-0.2,0.9-0.3c0.2-0.1,0.5-0.2,0.8-0.3v-0.9H15V24.8z
	 M15,17h18v-1.5H15V17z M36.3,44.2c-2.1,0-4-0.8-5.5-2.3s-2.2-3.3-2.2-5.4c0-2.2,0.7-4,2.2-5.5s3.3-2.2,5.5-2.2
	c2.1,0,3.9,0.7,5.4,2.2s2.3,3.3,2.3,5.5c0,2.1-0.8,3.9-2.3,5.4C40.3,43.5,38.4,44.2,36.3,44.2z"/>
</svg>
