<?xml version="1.0" encoding="utf-8"?>
<!-- Generator: Adobe Illustrator 26.3.1, SVG Export Plug-In . SVG Version: 6.00 Build 0)  -->
<svg version="1.1" id="Слой_1" xmlns="http://www.w3.org/2000/svg" xmlns:xlink="http://www.w3.org/1999/xlink" x="0px" y="0px"
	 viewBox="0 0 48 48" style="enable-background:new 0 0 48 48;" xml:space="preserve">
<path d="M12.1,44H6.8c-0.8,0-1.4-0.3-2-0.8C4.3,42.7,4,42,4,41.2v-5.3h1.5v5.3c0,0.4,0.1,0.7,0.3,0.9c0.2,0.2,0.5,0.3,0.9,0.3H12V44
	H12.1z M35.9,44v-1.5h5.3c0.4,0,0.7-0.1,0.9-0.3s0.3-0.5,0.3-0.9V36H44v5.3c0,0.8-0.3,1.4-0.8,2c-0.5,0.5-1.2,0.8-2,0.8L35.9,44
	L35.9,44z M24,35.3c-3.6,0-6.8-1-9.6-3s-5-4.8-6.5-8.4c1.5-3.6,3.7-6.4,6.5-8.4s6-3,9.6-3s6.7,1,9.6,3c2.8,2,5,4.8,6.5,8.4
	c-1.5,3.6-3.7,6.4-6.5,8.4S27.6,35.3,24,35.3z M24,33.8c3.1,0,5.9-0.9,8.5-2.6c2.5-1.7,4.5-4.1,5.9-7.2c-1.4-3.1-3.4-5.5-5.9-7.2
	s-5.3-2.6-8.5-2.6c-3.1,0-5.9,0.9-8.4,2.6s-4.5,4.1-5.9,7.2c1.4,3.1,3.4,5.5,5.9,7.2C18,32.9,20.9,33.8,24,33.8z M24,29.6
	c1.5,0,2.9-0.5,3.9-1.6c1.1-1.1,1.6-2.4,1.6-4c0-1.5-0.5-2.9-1.6-3.9c-1.1-1.1-2.4-1.6-4-1.6S21.1,19,20.1,20
	c-1.1,1.1-1.6,2.4-1.6,4s0.5,2.9,1.6,3.9C21.1,29,22.5,29.6,24,29.6z M24,28c-1.1,0-2.1-0.4-2.9-1.2C20.4,26.1,20,25.1,20,24
	s0.4-2.1,1.2-2.9c0.8-0.8,1.7-1.2,2.9-1.2c1.1,0,2.1,0.4,2.9,1.2c0.8,0.8,1.2,1.7,1.2,2.9c0,1.1-0.4,2.1-1.2,2.9
	C26.1,27.6,25.1,28,24,28z M4,12.1V6.8c0-0.8,0.3-1.4,0.8-2C5.3,4.3,6,4,6.8,4h5.3v1.5H6.8c-0.4,0-0.7,0.1-0.9,0.3
	c-0.2,0.3-0.4,0.6-0.4,1v5.3H4z M42.5,12.1V6.8c0-0.4-0.1-0.7-0.3-0.9c-0.2-0.2-0.5-0.3-0.9-0.3H36V4h5.3c0.8,0,1.4,0.3,2,0.8
	C43.7,5.3,44,6,44,6.8v5.3H42.5z"/>
</svg>
