<?xml version="1.0" encoding="utf-8"?>
<!-- Generator: Adobe Illustrator 26.3.1, SVG Export Plug-In . SVG Version: 6.00 Build 0)  -->
<svg version="1.1" id="Слой_1" xmlns="http://www.w3.org/2000/svg" xmlns:xlink="http://www.w3.org/1999/xlink" x="0px" y="0px"
	 viewBox="0 0 48 48" style="enable-background:new 0 0 48 48;" xml:space="preserve">
<path d="M24,42c-2.5,0-4.8-0.5-7-1.4s-4.1-2.2-5.7-3.9c-1.6-1.6-2.9-3.5-3.9-5.7C6.5,28.8,6,26.5,6,24s0.5-4.8,1.4-7
	s2.2-4.1,3.9-5.7c1.6-1.6,3.5-2.9,5.7-3.9C19.2,6.5,21.5,6,24,6s4.8,0.5,7,1.4s4.1,2.2,5.7,3.9c1.6,1.6,2.9,3.5,3.9,5.7
	c0.9,2.2,1.4,4.5,1.4,7s-0.5,4.8-1.4,7s-2.2,4.1-3.9,5.7c-1.6,1.6-3.5,2.9-5.7,3.9C28.8,41.5,26.5,42,24,42z M24,7.5
	c-4,0-7.6,1.3-10.6,3.9S8.5,17.2,7.8,21c1.2,0,2.3-0.3,3.3-1s2.1-2.1,3.1-4.2c0.4-0.8,1-1.4,1.8-1.9s1.6-0.7,2.5-0.7h11
	c0.9,0,1.8,0.2,2.6,0.7s1.4,1.1,1.7,1.9c1,2.1,2.1,3.5,3.2,4.2c1.1,0.7,2.2,1,3.2,1c-0.7-3.9-2.6-7.1-5.6-9.6
	C31.6,8.8,28.1,7.5,24,7.5z M24,40.5c4.6,0,8.5-1.6,11.7-4.8s4.8-7.1,4.8-11.6v-0.7c0-0.2,0-0.4,0-0.7c-2-0.1-3.7-0.7-5-1.9
	c-1.3-1.2-2.3-2.6-3-4.2c-0.3-0.6-0.7-1-1.2-1.3s-1-0.5-1.6-0.5h-11c-0.6,0-1.2,0.2-1.7,0.5s-0.9,0.8-1.2,1.3
	c-0.8,1.6-1.8,3-3.1,4.2s-2.9,1.9-4.9,1.9c0,0.2,0,0.4,0,0.7V24c0,4.5,1.6,8.4,4.8,11.6C15.5,38.9,19.4,40.5,24,40.5z M17.8,28.7
	c-0.7,0-1.3-0.3-1.8-0.8c-0.5-0.5-0.8-1.1-0.8-1.8s0.3-1.3,0.8-1.8c0.5-0.5,1.1-0.7,1.8-0.7s1.3,0.3,1.8,0.8s0.7,1.1,0.7,1.8
	c0,0.7-0.3,1.3-0.8,1.8C19.2,28.4,18.6,28.7,17.8,28.7z M30.1,28.7c-0.7,0-1.3-0.3-1.8-0.8s-0.8-1.1-0.8-1.8s0.3-1.3,0.8-1.8
	s1.1-0.7,1.8-0.7s1.3,0.3,1.8,0.8c0.5,0.5,0.7,1.1,0.7,1.8c0,0.7-0.3,1.3-0.8,1.8C31.5,28.4,30.9,28.7,30.1,28.7z"/>
</svg>
