<?xml version="1.0" encoding="utf-8"?>
<!-- Generator: Adobe Illustrator 26.3.1, SVG Export Plug-In . SVG Version: 6.00 Build 0)  -->
<svg version="1.1" id="Слой_1" xmlns="http://www.w3.org/2000/svg" xmlns:xlink="http://www.w3.org/1999/xlink" x="0px" y="0px"
	 viewBox="0 0 48 48" style="enable-background:new 0 0 48 48;" xml:space="preserve">
<path d="M24,12.1c-0.3,0-0.5-0.1-0.7-0.3S23,11.4,23,11.1s0.1-0.5,0.3-0.7c0.2-0.2,0.4-0.3,0.7-0.3c0.3,0,0.5,0.1,0.7,0.3
	s0.3,0.4,0.3,0.7s-0.1,0.5-0.3,0.7C24.5,12,24.3,12.1,24,12.1z M28,12.1c-0.3,0-0.5-0.1-0.7-0.3S27,11.4,27,11.1s0.1-0.5,0.3-0.7
	c0.2-0.2,0.4-0.3,0.7-0.3c0.3,0,0.5,0.1,0.7,0.3s0.3,0.4,0.3,0.7s-0.1,0.5-0.3,0.7C28.5,12,28.3,12.1,28,12.1z M20,12.1
	c-0.3,0-0.5-0.1-0.7-0.3S19,11.4,19,11.1s0.1-0.5,0.3-0.7c0.2-0.2,0.4-0.3,0.7-0.3c0.3,0,0.5,0.1,0.7,0.3s0.3,0.4,0.3,0.7
	s-0.1,0.5-0.3,0.7C20.5,12,20.3,12.1,20,12.1z M34,14.1c-0.3,0-0.5-0.1-0.7-0.3S33,13.4,33,13.1s0.1-0.5,0.3-0.7s0.4-0.3,0.7-0.3
	s0.5,0.1,0.7,0.3s0.3,0.4,0.3,0.7s-0.1,0.5-0.3,0.7S34.3,14.1,34,14.1z M18,14.1c-0.3,0-0.5-0.1-0.7-0.3S17,13.4,17,13.1
	s0.1-0.5,0.3-0.7c0.2-0.2,0.4-0.3,0.7-0.3c0.3,0,0.5,0.1,0.7,0.3s0.3,0.4,0.3,0.7s-0.1,0.5-0.3,0.7C18.5,14,18.3,14.1,18,14.1z
	 M14,14.1c-0.3,0-0.5-0.1-0.7-0.3S13,13.4,13,13.1s0.1-0.5,0.3-0.7s0.4-0.3,0.7-0.3s0.5,0.1,0.7,0.3s0.3,0.4,0.3,0.7
	s-0.1,0.5-0.3,0.7S14.3,14.1,14,14.1z M22,14.1c-0.3,0-0.5-0.1-0.7-0.3S21,13.4,21,13.1s0.1-0.5,0.3-0.7c0.2-0.2,0.4-0.3,0.7-0.3
	c0.3,0,0.5,0.1,0.7,0.3s0.3,0.4,0.3,0.7s-0.1,0.5-0.3,0.7C22.5,14,22.3,14.1,22,14.1z M26,14.1c-0.3,0-0.5-0.1-0.7-0.3
	S25,13.4,25,13.1s0.1-0.5,0.3-0.7c0.2-0.2,0.4-0.3,0.7-0.3c0.3,0,0.5,0.1,0.7,0.3s0.3,0.4,0.3,0.7s-0.1,0.5-0.3,0.7
	C26.5,14,26.3,14.1,26,14.1z M30,14.1c-0.3,0-0.5-0.1-0.7-0.3S29,13.4,29,13.1s0.1-0.5,0.3-0.7c0.2-0.2,0.4-0.3,0.7-0.3
	c0.3,0,0.5,0.1,0.7,0.3s0.3,0.4,0.3,0.7s-0.1,0.5-0.3,0.7C30.5,14,30.3,14.1,30,14.1z M24,16.1c-0.3,0-0.5-0.1-0.7-0.3
	S23,15.4,23,15.1s0.1-0.5,0.3-0.7c0.2-0.2,0.4-0.3,0.7-0.3c0.3,0,0.5,0.1,0.7,0.3s0.3,0.4,0.3,0.7s-0.1,0.5-0.3,0.7
	C24.5,16,24.3,16.1,24,16.1z M28,16.1c-0.3,0-0.5-0.1-0.7-0.3S27,15.4,27,15.1s0.1-0.5,0.3-0.7c0.2-0.2,0.4-0.3,0.7-0.3
	c0.3,0,0.5,0.1,0.7,0.3s0.3,0.4,0.3,0.7s-0.1,0.5-0.3,0.7C28.5,16,28.3,16.1,28,16.1z M32,16.1c-0.3,0-0.5-0.1-0.7-0.3
	S31,15.4,31,15.1s0.1-0.5,0.3-0.7c0.2-0.2,0.4-0.3,0.7-0.3c0.3,0,0.5,0.1,0.7,0.3s0.3,0.4,0.3,0.7s-0.1,0.5-0.3,0.7
	S32.3,16.1,32,16.1z M20,16.1c-0.3,0-0.5-0.1-0.7-0.3S19,15.4,19,15.1s0.1-0.5,0.3-0.7c0.2-0.2,0.4-0.3,0.7-0.3
	c0.3,0,0.5,0.1,0.7,0.3s0.3,0.4,0.3,0.7s-0.1,0.5-0.3,0.7C20.5,16,20.3,16.1,20,16.1z M16,16.1c-0.3,0-0.5-0.1-0.7-0.3
	S15,15.4,15,15.1s0.1-0.5,0.3-0.7s0.4-0.3,0.7-0.3c0.3,0,0.5,0.1,0.7,0.3s0.3,0.4,0.3,0.7s-0.1,0.5-0.3,0.7
	C16.5,16,16.3,16.1,16,16.1z M18,18.1c-0.3,0-0.5-0.1-0.7-0.3c-0.2-0.2-0.3-0.4-0.3-0.7c0-0.3,0.1-0.5,0.3-0.7
	c0.2-0.2,0.4-0.3,0.7-0.3c0.3,0,0.5,0.1,0.7,0.3c0.2,0.2,0.3,0.4,0.3,0.7c0,0.3-0.1,0.5-0.3,0.7C18.5,18,18.3,18.1,18,18.1z
	 M14,18.1c-0.3,0-0.5-0.1-0.7-0.3c-0.2-0.2-0.3-0.4-0.3-0.7c0-0.3,0.1-0.5,0.3-0.7s0.4-0.3,0.7-0.3s0.5,0.1,0.7,0.3
	c0.2,0.2,0.3,0.4,0.3,0.7c0,0.3-0.1,0.5-0.3,0.7C14.5,18,14.3,18.1,14,18.1z M22,18.1c-0.3,0-0.5-0.1-0.7-0.3
	c-0.2-0.2-0.3-0.4-0.3-0.7c0-0.3,0.1-0.5,0.3-0.7c0.2-0.2,0.4-0.3,0.7-0.3c0.3,0,0.5,0.1,0.7,0.3c0.2,0.2,0.3,0.4,0.3,0.7
	c0,0.3-0.1,0.5-0.3,0.7C22.5,18,22.3,18.1,22,18.1z M26,18.1c-0.3,0-0.5-0.1-0.7-0.3c-0.2-0.2-0.3-0.4-0.3-0.7
	c0-0.3,0.1-0.5,0.3-0.7c0.2-0.2,0.4-0.3,0.7-0.3c0.3,0,0.5,0.1,0.7,0.3c0.2,0.2,0.3,0.4,0.3,0.7c0,0.3-0.1,0.5-0.3,0.7
	C26.5,18,26.3,18.1,26,18.1z M30,18.1c-0.3,0-0.5-0.1-0.7-0.3c-0.2-0.2-0.3-0.4-0.3-0.7c0-0.3,0.1-0.5,0.3-0.7
	c0.2-0.2,0.4-0.3,0.7-0.3c0.3,0,0.5,0.1,0.7,0.3c0.2,0.2,0.3,0.4,0.3,0.7c0,0.3-0.1,0.5-0.3,0.7C30.5,18,30.3,18.1,30,18.1z
	 M34,18.1c-0.3,0-0.5-0.1-0.7-0.3c-0.2-0.2-0.3-0.4-0.3-0.7c0-0.3,0.1-0.5,0.3-0.7s0.4-0.3,0.7-0.3s0.5,0.1,0.7,0.3s0.3,0.4,0.3,0.7
	c0,0.3-0.1,0.5-0.3,0.7C34.5,18,34.3,18.1,34,18.1z M10,18.1c-0.3,0-0.5-0.1-0.7-0.3C9.1,17.7,9,17.4,9,17.1s0.1-0.5,0.3-0.7
	s0.4-0.3,0.7-0.3s0.5,0.1,0.7,0.3c0.2,0.2,0.3,0.4,0.3,0.7c0,0.3-0.1,0.5-0.3,0.7C10.5,18,10.3,18.1,10,18.1z M12,16.1
	c-0.3,0-0.5-0.1-0.7-0.3S11,15.4,11,15.1s0.1-0.5,0.3-0.7s0.4-0.3,0.7-0.3s0.5,0.1,0.7,0.3s0.3,0.4,0.3,0.7s-0.1,0.5-0.3,0.7
	S12.3,16.1,12,16.1z M16,12.1c-0.3,0-0.5-0.1-0.7-0.3S15,11.4,15,11.1s0.1-0.5,0.3-0.7s0.4-0.3,0.7-0.3c0.3,0,0.5,0.1,0.7,0.3
	s0.3,0.4,0.3,0.7s-0.1,0.5-0.3,0.7C16.5,12,16.3,12.1,16,12.1z M18,10.1c-0.3,0-0.5-0.1-0.7-0.3C17.1,9.7,17,9.4,17,9.1
	c0-0.3,0.1-0.5,0.3-0.7c0.2-0.2,0.4-0.3,0.7-0.3c0.3,0,0.5,0.1,0.7,0.3C18.9,8.6,19,8.9,19,9.1c0,0.3-0.1,0.5-0.3,0.7
	C18.5,10,18.3,10.1,18,10.1z M22,10.1c-0.3,0-0.5-0.1-0.7-0.3C21.1,9.7,21,9.4,21,9.1c0-0.3,0.1-0.5,0.3-0.7
	c0.2-0.2,0.4-0.3,0.7-0.3c0.3,0,0.5,0.1,0.7,0.3C22.9,8.6,23,8.9,23,9.1c0,0.3-0.1,0.5-0.3,0.7C22.5,10,22.3,10.1,22,10.1z M26,10.1
	c-0.3,0-0.5-0.1-0.7-0.3C25.1,9.7,25,9.4,25,9.1c0-0.3,0.1-0.5,0.3-0.7c0.2-0.2,0.4-0.3,0.7-0.3c0.3,0,0.5,0.1,0.7,0.3
	C26.9,8.6,27,8.9,27,9.1c0,0.3-0.1,0.5-0.3,0.7C26.5,10,26.3,10.1,26,10.1z M30,10.1c-0.3,0-0.5-0.1-0.7-0.3C29.1,9.7,29,9.4,29,9.1
	c0-0.3,0.1-0.5,0.3-0.7c0.2-0.2,0.4-0.3,0.7-0.3c0.3,0,0.5,0.1,0.7,0.3C30.9,8.6,31,8.9,31,9.1c0,0.3-0.1,0.5-0.3,0.7
	C30.5,10,30.3,10.1,30,10.1z M32,12.1c-0.3,0-0.5-0.1-0.7-0.3S31,11.4,31,11.1s0.1-0.5,0.3-0.7c0.2-0.2,0.4-0.3,0.7-0.3
	c0.3,0,0.5,0.1,0.7,0.3s0.3,0.4,0.3,0.7s-0.1,0.5-0.3,0.7S32.3,12.1,32,12.1z M36,16.1c-0.3,0-0.5-0.1-0.7-0.3S35,15.4,35,15.1
	s0.1-0.5,0.3-0.7s0.4-0.3,0.7-0.3s0.5,0.1,0.7,0.3s0.3,0.4,0.3,0.7s-0.1,0.5-0.3,0.7S36.3,16.1,36,16.1z M38,18.1
	c-0.3,0-0.5-0.1-0.7-0.3c-0.2-0.2-0.3-0.4-0.3-0.7c0-0.3,0.1-0.5,0.3-0.7s0.4-0.3,0.7-0.3s0.5,0.1,0.7,0.3s0.3,0.4,0.3,0.7
	c0,0.3-0.1,0.5-0.3,0.7C38.5,18,38.3,18.1,38,18.1z M17.8,28.7c-0.7,0-1.3-0.3-1.8-0.8c-0.5-0.5-0.8-1.1-0.8-1.8s0.3-1.3,0.8-1.8
	c0.5-0.5,1.1-0.7,1.8-0.7s1.3,0.3,1.8,0.8s0.7,1.1,0.7,1.8c0,0.7-0.3,1.3-0.8,1.8C19.2,28.4,18.6,28.7,17.8,28.7z M30.1,28.7
	c-0.7,0-1.3-0.3-1.8-0.8s-0.8-1.1-0.8-1.8s0.3-1.3,0.8-1.8s1.1-0.7,1.8-0.7s1.3,0.3,1.8,0.8c0.5,0.5,0.7,1.1,0.7,1.8
	c0,0.7-0.3,1.3-0.8,1.8C31.5,28.4,30.9,28.7,30.1,28.7z M24,42c-2.5,0-4.8-0.5-7-1.4s-4.1-2.2-5.7-3.9c-1.6-1.6-2.9-3.5-3.9-5.7
	S6,26.5,6,24s0.5-4.8,1.4-7s2.2-4.1,3.9-5.7c1.6-1.6,3.5-2.9,5.7-3.9C19.2,6.5,21.5,6,24,6s4.8,0.5,7,1.4s4.1,2.2,5.7,3.9
	c1.6,1.6,2.9,3.5,3.9,5.7c0.9,2.2,1.4,4.5,1.4,7s-0.5,4.8-1.4,7s-2.2,4.1-3.9,5.7c-1.6,1.6-3.5,2.9-5.7,3.9C28.8,41.5,26.5,42,24,42
	z M24,40.5c4.6,0,8.5-1.6,11.7-4.8s4.8-7.1,4.8-11.6c0-4.6-1.6-8.5-4.8-11.7C32.5,9.1,28.6,7.5,24,7.5s-8.4,1.6-11.7,4.8
	C9.1,15.5,7.5,19.4,7.5,24s1.6,8.4,4.8,11.7C15.5,38.9,19.4,40.5,24,40.5z"/>
</svg>
