<?xml version="1.0" encoding="utf-8"?>
<!-- Generator: Adobe Illustrator 26.3.1, SVG Export Plug-In . SVG Version: 6.00 Build 0)  -->
<svg version="1.1" id="Слой_1" xmlns="http://www.w3.org/2000/svg" xmlns:xlink="http://www.w3.org/1999/xlink" x="0px" y="0px"
	 viewBox="0 0 48 48" style="enable-background:new 0 0 48 48;" xml:space="preserve">
<path d="M17.8,32.7c-0.7,0-1.3-0.3-1.8-0.8c-0.5-0.5-0.8-1.1-0.8-1.8s0.3-1.3,0.8-1.8c0.5-0.5,1.1-0.7,1.8-0.7s1.3,0.3,1.8,0.8
	s0.7,1.1,0.7,1.8c0,0.7-0.3,1.3-0.8,1.8C19.2,32.4,18.6,32.7,17.8,32.7z M30.1,32.7c-0.7,0-1.3-0.3-1.8-0.8s-0.8-1.1-0.8-1.8
	s0.3-1.3,0.8-1.8s1.1-0.7,1.8-0.7s1.3,0.3,1.8,0.8c0.5,0.5,0.7,1.1,0.7,1.8c0,0.7-0.3,1.3-0.8,1.8C31.5,32.4,30.9,32.7,30.1,32.7z
	 M24,44.5c4.6,0,8.5-1.6,11.7-4.8s4.8-7.1,4.8-11.7c0-0.8-0.1-1.6-0.2-2.4c-0.1-0.8-0.3-1.5-0.5-2.2c-0.7,0.2-1.4,0.3-2.1,0.4
	c-0.7,0.1-1.5,0.1-2.3,0.1c-3.1,0-6.1-0.7-8.9-2s-5.2-3.2-7.1-5.6c-1.1,2.6-2.6,4.9-4.7,6.9s-4.4,3.5-7.1,4.5V28
	c0,4.6,1.6,8.5,4.8,11.7C15.5,42.9,19.4,44.5,24,44.5z M18.6,12.3c2.3,3.8,5,6.4,8,7.8s5.9,2.1,8.7,2.1c0.8,0,1.5,0,2.1-0.1
	s1.2-0.2,1.9-0.4c-1.3-3.1-3.4-5.6-6.1-7.5c-2.8-1.9-5.8-2.8-9.2-2.8c-1.1,0-2.1,0.1-3,0.2C20.2,11.9,19.3,12.1,18.6,12.3z
	 M7.6,25.9c2-0.8,4.2-2.3,6.7-4.7s4-5.4,4.4-9c-3.2,1.2-5.8,3-7.6,5.4C9.3,20,8.1,22.8,7.6,25.9z M6.6,23.3c0.7-2.8,2.1-5.3,4-7.5
	c1.9-2.1,4.3-3.7,7-4.8c-0.8-1-1.7-1.8-2.8-2.4S12.4,7.7,11,7.7c-2.3,0-4.3,0.8-5.9,2.4s-2.4,3.6-2.4,6c0,1.5,0.4,2.9,1.1,4.1
	C4.5,21.6,5.4,22.6,6.6,23.3z M24,46c-2.5,0-4.8-0.5-7-1.4s-4.1-2.2-5.7-3.8S8.4,37.2,7.4,35C6.5,32.8,6,30.5,6,28
	c0-0.5,0-1,0.1-1.6c0-0.5,0.1-1,0.2-1.5c-1.6-0.8-2.8-2-3.7-3.6c-0.9-1.5-1.4-3.2-1.4-5.1c0-2.8,1-5.1,2.9-7.1
	c1.9-1.9,4.3-2.9,7-2.9c1.7,0,3.2,0.4,4.7,1.2s2.6,1.8,3.5,3.2c0.8-0.2,1.5-0.4,2.3-0.5s1.6-0.2,2.4-0.2c2.5,0,4.8,0.5,7,1.4
	s4.1,2.2,5.7,3.8s2.9,3.5,3.8,5.7c0.9,2.2,1.4,4.5,1.4,7s-0.5,4.8-1.4,7s-2.2,4.1-3.8,5.7c-1.6,1.6-3.5,2.9-5.7,3.8
	C28.8,45.5,26.5,46,24,46z"/>
</svg>
