<?xml version="1.0" encoding="utf-8"?>
<!-- Generator: Adobe Illustrator 26.3.1, SVG Export Plug-In . SVG Version: 6.00 Build 0)  -->
<svg version="1.1" id="Слой_1" xmlns="http://www.w3.org/2000/svg" xmlns:xlink="http://www.w3.org/1999/xlink" x="0px" y="0px"
	 viewBox="0 0 48 48" style="enable-background:new 0 0 48 48;" xml:space="preserve">
<path d="M24,44c-0.7,0-1.5-0.1-2.2-0.2c-0.8-0.1-1.7-0.3-2.8-0.5c-2.5,2.1-5.3,2.9-8.5,2.5s-5.5-2-7-4.6c-1.3-2.2-1.7-4.5-1.2-7
	C2.7,31.8,4,29.7,6,28c0-0.3,0-0.6,0-1v-1c-2-1.5-3.2-3.6-3.7-6.1s-0.2-4.8,1-6.9c1.2-2,2.9-3.4,5-4.2C10.6,8.1,12.8,8,15,8.7
	c0.6-2,1.7-3.6,3.4-4.8C20,2.6,21.9,2,24,2s4,0.6,5.6,1.9c1.6,1.2,2.8,2.8,3.4,4.8c2.2-0.7,4.5-0.6,6.7,0.2s3.9,2.2,5,4.2
	c1.2,2.1,1.5,4.3,1,6.9c-0.5,2.5-1.7,4.6-3.7,6.1v1c0,0.4,0,0.7,0,1c2.1,1.7,3.4,3.7,3.8,6.2c0.5,2.5,0.1,4.8-1.2,7
	c-1.5,2.6-3.9,4.1-7,4.6c-3.2,0.4-6-0.4-8.5-2.5c-1.1,0.2-2,0.4-2.8,0.5C25.5,43.9,24.7,44,24,44z M17.1,42.7
	c-1.4-0.6-2.6-1.3-3.8-2.1c-1.1-0.8-2.2-1.8-3.1-3c-0.9-1.1-1.7-2.3-2.4-3.6c-0.6-1.3-1.1-2.6-1.5-4.1C4.9,31.3,3.9,33,3.7,35
	s0.1,3.8,1.1,5.5c1.2,2,3,3.2,5.5,3.7C12.8,44.6,15.1,44.1,17.1,42.7z M30.9,42.7c2,1.5,4.3,2,6.8,1.5c2.5-0.4,4.4-1.7,5.5-3.7
	c1-1.7,1.4-3.5,1.1-5.5c-0.3-2-1.2-3.7-2.7-5.1c-0.3,1.4-0.8,2.8-1.4,4.1c-0.7,1.3-1.5,2.5-2.4,3.6s-2,2.1-3.1,3
	C33.5,41.4,32.3,42.1,30.9,42.7z M24,42.5c4.6,0,8.5-1.6,11.7-4.8s4.8-7.1,4.8-11.7c0-1.2-0.1-2.4-0.4-3.5c-0.3-1.1-0.6-2.2-1.1-3.3
	c-0.9,0.7-1.9,1.3-3,1.7c-1.1,0.4-2.4,0.6-3.7,0.6c-3.1,0-5.7-1.1-7.8-3.2s-3.2-4.7-3.2-7.8v-0.4c0-0.1,0-0.3,0-0.4
	c-3.9,0.7-7.2,2.5-9.8,5.6s-4,6.6-4,10.7c0,4.6,1.6,8.5,4.8,11.7S19.4,42.5,24,42.5z M17.8,30.7c-0.7,0-1.3-0.3-1.8-0.8
	c-0.5-0.5-0.8-1.1-0.8-1.8c0-0.7,0.3-1.3,0.8-1.8c0.5-0.5,1.1-0.7,1.8-0.7s1.3,0.2,1.8,0.7s0.7,1.1,0.7,1.8c0,0.7-0.2,1.3-0.7,1.8
	C19.2,30.4,18.6,30.7,17.8,30.7z M30.1,30.7c-0.7,0-1.3-0.3-1.8-0.8s-0.8-1.1-0.8-1.8c0-0.7,0.3-1.3,0.8-1.8s1.1-0.7,1.8-0.7
	c0.7,0,1.3,0.2,1.8,0.7c0.5,0.5,0.7,1.1,0.7,1.8c0,0.7-0.2,1.3-0.7,1.8C31.5,30.4,30.9,30.7,30.1,30.7z M6.1,23.9
	c0.2-1.4,0.5-2.8,1-4.1C7.6,18.4,8.3,17.2,9,16c0.8-1.2,1.7-2.2,2.7-3.2s2.2-1.8,3.4-2.5c-2-0.7-4-0.8-5.9-0.2
	c-2,0.6-3.5,1.8-4.6,3.7c-0.9,1.6-1.2,3.3-0.9,5.2C4.1,20.9,4.8,22.5,6.1,23.9z M41.9,23.9c1.3-1.3,2.1-2.9,2.4-4.8
	c0.3-1.9,0-3.7-0.9-5.2c-1.1-1.8-2.6-3.1-4.6-3.7s-3.9-0.6-5.9,0.2c1.2,0.7,2.4,1.5,3.4,2.5s1.9,2,2.7,3.2s1.4,2.4,1.9,3.7
	C41.4,21.1,41.7,22.4,41.9,23.9z M32.2,20c1.3,0,2.5-0.2,3.5-0.5c1-0.4,1.9-0.9,2.6-1.5c-0.7-1.3-1.6-2.4-2.6-3.4s-2.1-1.9-3.4-2.7
	c-1.2-0.7-2.6-1.3-4-1.7C27,9.7,25.6,9.5,24,9.5c-0.2,0-0.4,0-0.6-0.1c-0.2,0-0.4,0-0.6,0c0,0.2-0.1,0.4-0.1,0.5c0,0.2,0,0.3,0,0.5
	c0,2.6,0.9,4.8,2.8,6.7C27.4,19.1,29.6,20,32.2,20z M31.8,9.7c-0.6-1.8-1.5-3.2-2.9-4.4s-3-1.8-4.9-1.8s-3.5,0.6-4.8,1.8
	s-2.3,2.6-2.8,4.3c1.1-0.5,2.4-0.9,3.7-1.2C21.3,8.1,22.7,8,24,8c1.4,0,2.8,0.1,4.1,0.4C29.4,8.7,30.6,9.2,31.8,9.7z"/>
</svg>
