<?xml version="1.0" encoding="utf-8"?>
<!-- Generator: Adobe Illustrator 26.3.1, SVG Export Plug-In . SVG Version: 6.00 Build 0)  -->
<svg version="1.1" id="Слой_1" xmlns="http://www.w3.org/2000/svg" xmlns:xlink="http://www.w3.org/1999/xlink" x="0px" y="0px"
	 viewBox="0 0 48 48" style="enable-background:new 0 0 48 48;" xml:space="preserve">
<path d="M42.5,43.1l-6.2-6.2c-1.7,1.6-3.6,2.9-5.7,3.8c-2.1,0.9-4.4,1.4-7,1.4c-2.5,0-4.8-0.5-7-1.4s-4.1-2.2-5.7-3.9
	C9.3,35.1,8,33.2,7.1,31s-1.4-4.5-1.4-7c0-2.6,0.5-4.9,1.4-7.1c1-2.1,2.2-4,3.7-5.5L4.6,5.2l1.1-1.1L43.6,42L42.5,43.1z M39.4,32.8
	l-1.1-1.2c0.5-1.1,1-2.3,1.3-3.6c0.3-1.3,0.5-2.6,0.5-4c0-0.9-0.1-1.7-0.2-2.4c-0.1-0.7-0.3-1.5-0.5-2.3c-0.7,0.2-1.4,0.3-2.1,0.4
	c-0.7,0.1-1.5,0.1-2.3,0.1c-2.3,0-4.5-0.4-6.7-1.1s-4.2-1.7-6-3L15,8.3c1.3-0.8,2.7-1.3,4-1.7C20.4,6.2,21.9,6,23.6,6
	c2.5,0,4.8,0.5,7,1.4s4.1,2.2,5.7,3.9c1.6,1.6,2.9,3.5,3.9,5.7c0.9,2.2,1.4,4.5,1.4,7c0,1.5-0.2,3-0.6,4.5
	C40.7,30,40.1,31.4,39.4,32.8z M7.3,22c1.3-0.6,2.7-1.3,4-2.3c1.4-1,2.7-2.3,3.9-3.9l-3.3-3.3c-1.2,1.2-2.2,2.6-3,4.2
	C8.1,18.3,7.6,20.1,7.3,22z M17.8,8.5c2.1,3.5,4.8,6,8,7.5s6.4,2.3,9.6,2.3c0.6,0,1.2,0,1.8-0.1s1.2-0.2,1.8-0.4
	c-1.4-3.2-3.4-5.7-6.2-7.5c-2.8-1.9-5.7-2.8-9-2.8c-0.8,0-1.8,0.1-3,0.2C19.7,7.9,18.7,8.1,17.8,8.5z M17.5,28.7
	c-0.7,0-1.4-0.3-1.9-0.8s-0.8-1.1-0.8-1.8c0-0.7,0.3-1.4,0.8-1.8c0.5-0.5,1.1-0.7,1.9-0.7c0.7,0,1.3,0.2,1.8,0.7s0.8,1.1,0.8,1.8
	c0,0.7-0.3,1.3-0.8,1.8C18.9,28.4,18.3,28.7,17.5,28.7z M23.6,40.5c2.3,0,4.5-0.4,6.5-1.3c2-0.9,3.7-2,5-3.4L16.3,16.9
	c-1.1,1.5-2.5,2.8-4.2,4.1c-1.7,1.2-3.4,2.1-5,2.7V24c0,4.5,1.6,8.4,4.8,11.6C15.2,38.9,19.1,40.5,23.6,40.5z"/>
</svg>
