<?xml version="1.0" encoding="utf-8"?>
<!-- Generator: Adobe Illustrator 26.3.1, SVG Export Plug-In . SVG Version: 6.00 Build 0)  -->
<svg version="1.1" id="Слой_1" xmlns="http://www.w3.org/2000/svg" xmlns:xlink="http://www.w3.org/1999/xlink" x="0px" y="0px"
	 viewBox="0 0 48 48" style="enable-background:new 0 0 48 48;" xml:space="preserve">
<path d="M24,36.5c4.6,0,8.5-1.6,11.7-4.8s4.8-7.1,4.8-11.7c0-1.4-0.2-2.7-0.5-4s-0.8-2.5-1.4-3.6c-0.8,0.6-1.7,1-2.7,1.4
	C35,14,34,14.2,33,14.2c-1.9,0-3.7-0.5-5.2-1.5c-1.6-1-2.8-2.4-3.8-4.1c-0.9,1.7-2.1,3-3.7,4.1c-1.6,1-3.4,1.5-5.3,1.5
	c-1,0-2-0.2-2.9-0.5c-0.9-0.3-1.8-0.7-2.6-1.3c-0.6,1.2-1,2.4-1.4,3.6c-0.3,1.3-0.5,2.6-0.5,4c0,4.6,1.6,8.4,4.8,11.7
	C15.5,34.9,19.4,36.5,24,36.5z M17.9,24.7c0.7,0,1.3-0.3,1.8-0.8s0.7-1.1,0.7-1.8c0-0.7-0.3-1.3-0.8-1.8s-1.1-0.7-1.8-0.7
	c-0.7,0-1.3,0.3-1.8,0.8s-0.8,1.1-0.8,1.8c0,0.7,0.3,1.3,0.8,1.8C16.5,24.4,17.2,24.7,17.9,24.7z M30.2,24.7c0.7,0,1.3-0.3,1.8-0.8
	s0.7-1.1,0.7-1.8c0-0.7-0.3-1.3-0.8-1.8s-1.1-0.7-1.8-0.7c-0.7,0-1.3,0.3-1.8,0.8s-0.8,1.1-0.8,1.8c0,0.7,0.3,1.3,0.8,1.8
	C28.9,24.4,29.5,24.7,30.2,24.7z M15,12.6c2.3,0,4.3-0.8,5.8-2.4c1.6-1.6,2.4-3.5,2.4-5.8V3.5c-2.7,0.1-5.2,0.9-7.4,2.2
	c-2.3,1.4-4.1,3.1-5.5,5.3c0.7,0.5,1.4,0.9,2.2,1.2C13.3,12.5,14.1,12.6,15,12.6z M33,12.6c0.9,0,1.7-0.1,2.5-0.4
	c0.8-0.3,1.5-0.7,2.2-1.2c-1.4-2.1-3.2-3.8-5.5-5.1s-4.8-2-7.5-2.3v0.8c0,2.3,0.8,4.3,2.4,5.8C28.7,11.8,30.7,12.6,33,12.6z M6,42
	c-0.8,0-1.5-0.3-2-0.9S3.2,39.8,3.2,39L5,20.1c0.2-2.5,0.9-4.9,2-7.1s2.5-4.1,4.1-5.7c1.7-1.6,3.6-2.9,5.9-3.9C19.1,2.5,21.5,2,24,2
	s4.9,0.5,7.1,1.4s4.2,2.2,5.9,3.9c1.7,1.6,3.1,3.5,4.1,5.7c1.1,2.2,1.7,4.6,2,7.1L44.8,39c0.1,0.8-0.2,1.5-0.7,2.1S42.8,42,42,42H6z
	 M24,38c-4.4,0-8.3-1.4-11.6-4.2S7,27.4,6.2,23.2L4.8,39.1c0,0.4,0.1,0.7,0.3,0.9c0.2,0.3,0.5,0.4,0.9,0.4h36c0.4,0,0.7-0.1,0.9-0.4
	c0.2-0.3,0.4-0.6,0.3-0.9l-1.4-15.9c-0.8,4.2-2.9,7.8-6.2,10.6S28.5,38,24,38z M24,40.5h19.2H4.8H24z"/>
</svg>
