<?xml version="1.0" encoding="utf-8"?>
<!-- Generator: Adobe Illustrator 26.3.1, SVG Export Plug-In . SVG Version: 6.00 Build 0)  -->
<svg version="1.1" id="Слой_1" xmlns="http://www.w3.org/2000/svg" xmlns:xlink="http://www.w3.org/1999/xlink" x="0px" y="0px"
	 viewBox="0 0 48 48" style="enable-background:new 0 0 48 48;" xml:space="preserve">
<path d="M24,6c0.9,0,1.7,0,2.4,0.2c0.7,0.1,1.5,0.3,2.4,0.6l-2.5,1c-0.4-0.1-0.7-0.1-1-0.1s-0.8,0-1.2,0c-1,0-1.9,0.1-2.8,0.2
	s-1.8,0.3-2.6,0.6c2.1,3.5,4.7,6.1,7.8,7.7s6.4,2.4,10,2.2h0.4c0.1,0,0.2,0,0.4,0l0.6,1.5c-3.7,0.4-7.1,0-10.2-1.3
	c-3.2-1.3-5.9-3.3-8.2-6.1c-1.3,3.1-3.1,5.6-5.2,7.3c-2.1,1.8-4.3,3.1-6.6,4c0,4.7,1.6,8.7,4.8,11.9s7.1,4.8,11.6,4.8
	c4.6,0,8.5-1.6,11.7-4.9c3.2-3.2,4.8-7.1,4.8-11.6c0-0.5,0-1,0-1.4s-0.1-0.7-0.2-1l1.1-2.5c0.2,0.8,0.4,1.6,0.5,2.4s0,1.6,0,2.5
	c0,2.5-0.5,4.9-1.4,7c-1,2.2-2.2,4.1-3.9,5.7c-1.6,1.6-3.5,2.9-5.7,3.8c-2.2,0.9-4.5,1.4-7,1.4s-4.8-0.5-7-1.4s-4.1-2.2-5.7-3.8
	S8.4,33.2,7.5,31S6,26.5,6,24s0.5-4.8,1.4-7s2.2-4.1,3.8-5.7s3.5-2.9,5.7-3.9S21.5,6,24,6z M17.9,23.5c0.7,0,1.4,0.2,1.9,0.8
	s0.8,1.1,0.8,1.9c0,0.7-0.2,1.3-0.8,1.8s-1.1,0.8-1.9,0.8c-0.7,0-1.3-0.3-1.8-0.8s-0.8-1.1-0.8-1.8c0-0.7,0.3-1.3,0.8-1.8
	C16.5,23.7,17.1,23.5,17.9,23.5z M30.1,23.5c0.7,0,1.4,0.2,1.9,0.8s0.8,1.1,0.8,1.9c0,0.7-0.2,1.3-0.8,1.8s-1.1,0.8-1.9,0.8
	c-0.7,0-1.3-0.3-1.8-0.8s-0.8-1.1-0.8-1.8c0-0.7,0.3-1.3,0.8-1.8S29.4,23.5,30.1,23.5z M39.5,2.4l1.9,4.3l4.2,1.9l-4.2,1.8l-1.9,4.4
	l-1.9-4.4l-4.2-1.8l4.2-1.8L39.5,2.4z M7.7,21.9c2-0.7,4.2-2.3,6.7-4.6s3.9-5.4,4.4-9.1c-3.2,1.2-5.7,3-7.6,5.4S8.1,18.8,7.7,21.9z"
	/>
</svg>
