<?xml version="1.0" encoding="utf-8"?>
<!-- Generator: Adobe Illustrator 26.3.1, SVG Export Plug-In . SVG Version: 6.00 Build 0)  -->
<svg version="1.1" id="Слой_1" xmlns="http://www.w3.org/2000/svg" xmlns:xlink="http://www.w3.org/1999/xlink" x="0px" y="0px"
	 viewBox="0 0 48 48" style="enable-background:new 0 0 48 48;" xml:space="preserve">
<path d="M19.3,23.1c-0.5,0-0.8-0.2-1.2-0.5c-0.3-0.3-0.5-0.7-0.5-1.2s0.2-0.8,0.5-1.1c0.3-0.3,0.7-0.5,1.2-0.5
	c0.4,0,0.8,0.2,1.1,0.5c0.3,0.3,0.5,0.7,0.5,1.2s-0.2,0.8-0.5,1.1C20.2,23,19.8,23.1,19.3,23.1z M28.6,23.1c-0.5,0-0.8-0.2-1.1-0.5
	c-0.3-0.3-0.5-0.7-0.5-1.2s0.2-0.8,0.5-1.1c0.3-0.3,0.7-0.5,1.2-0.5s0.8,0.2,1.1,0.5c0.3,0.3,0.5,0.7,0.5,1.2s-0.2,0.8-0.5,1.1
	C29.5,23,29.1,23.1,28.6,23.1z M19.8,8.2c-2.1,0.8-3.9,2.1-5.3,3.8s-2.3,3.7-2.7,5.9c2.1-0.8,3.9-2.1,5.3-3.8S19.4,10.5,19.8,8.2z
	 M24,7.5c-0.6,0-1.2,0-1.8,0.1C21.6,7.7,21,7.8,20.4,8c1.3,2.2,3,3.9,5.2,5.3c2.2,1.3,4.5,2,7.1,2c0.5,0,0.9,0,1.4-0.1
	c0.5,0,0.9-0.1,1.4-0.2c-1-2.3-2.5-4.1-4.6-5.4C28.7,8.2,26.4,7.5,24,7.5z M18.7,31.1l-1.2,1.1c-2.2-1.2-4-2.9-5.4-5
	c-1.4-2.2-2-4.6-2-7.3c0-3.9,1.4-7.2,4.1-9.9c2.6-2.6,5.9-4,9.8-4s7.1,1.4,9.9,4.1c2.7,2.7,4.1,6,4.1,9.9c0,2.7-0.7,5.1-2,7.3
	c-1.4,2.2-3.1,3.8-5.3,5l-1.2-1.1c2.1-1,3.8-2.5,5.1-4.5s2-4.2,2-6.7c0-0.6,0-1.2-0.1-1.7c-0.1-0.6-0.2-1.1-0.4-1.7
	c-0.5,0.1-1.1,0.2-1.6,0.2c-0.5,0.1-1.1,0.1-1.6,0.1c-2.3,0-4.6-0.5-6.6-1.5c-2.1-1-3.9-2.4-5.4-4.2c-0.8,2-2,3.8-3.6,5.3
	s-3.4,2.6-5.5,3.3V20c0,2.5,0.6,4.7,1.9,6.7C14.8,28.6,16.5,30.1,18.7,31.1z M23.2,44.8v-10l-4.4,4.4L17.7,38l6.3-6.3l6.3,6.3
	l-1.1,1.1l-4.4-4.4v10h-1.6V44.8z"/>
</svg>
