<?xml version="1.0" encoding="utf-8"?>
<!-- Generator: Adobe Illustrator 26.3.1, SVG Export Plug-In . SVG Version: 6.00 Build 0)  -->
<svg version="1.1" id="Слой_1" xmlns="http://www.w3.org/2000/svg" xmlns:xlink="http://www.w3.org/1999/xlink" x="0px" y="0px"
	 viewBox="0 0 48 48" style="enable-background:new 0 0 48 48;" xml:space="preserve">
<path d="M6,42V21.3L16,17v4l10-4v5h16v20H6z M7.5,40.5h32.9v-17h-16v-4.3l-10,4v-3.9l-6.9,3C7.5,22.3,7.5,40.5,7.5,40.5z M22.7,35.1
	h2.6v-6.2h-2.6V35.1z M14.7,35.1h2.6v-6.2h-2.6C14.7,28.9,14.7,35.1,14.7,35.1z M30.7,35.1h2.6v-6.2h-2.6
	C30.7,28.9,30.7,35.1,30.7,35.1z M42,22h-5.8l2-14.5h2L42,22z M7.5,40.5h32.9C40.5,40.5,7.5,40.5,7.5,40.5z"/>
</svg>
