<?xml version="1.0" encoding="utf-8"?>
<!-- Generator: Adobe Illustrator 26.3.1, SVG Export Plug-In . SVG Version: 6.00 Build 0)  -->
<svg version="1.1" id="Слой_1" xmlns="http://www.w3.org/2000/svg" xmlns:xlink="http://www.w3.org/1999/xlink" x="0px" y="0px"
	 viewBox="0 0 48 48" style="enable-background:new 0 0 48 48;" xml:space="preserve">
<path d="M26,43.7l-1.6-0.3l1.5-8.2l-7.5-5.6l-2.9-12.9L9,22.4l1.5,7.1l-1.6,0.3l-1.6-7.9l8.4-7.4c0.6-0.5,1.3-0.7,2.1-0.6
	c0.8,0.2,1.6,0.4,2.3,0.7c1.2,0.5,2.4,0.8,3.7,1.1c1.3,0.2,2.5,0.2,3.8,0.1c1-0.2,2-0.5,2.9-1s1.8-1.1,2.6-1.8l1,1.2
	c-0.8,0.6-1.6,1.2-2.4,1.7c-0.8,0.5-1.7,0.9-2.7,1.2c-1.3,0.4-2.6,0.5-4,0.3c-1.3-0.2-2.7-0.4-4-0.7l2.1,9.3l8-1.5l9,6.4l-1,1.2
	l-7.8-5.5L21,28.5l6.9,5L26,43.7z M16,10.2c-0.9,0-1.6-0.3-2.2-0.9c-0.6-0.6-0.9-1.4-0.9-2.2c0-0.9,0.3-1.6,0.9-2.2
	C14.4,4.3,15.2,4,16,4c0.9,0,1.6,0.3,2.2,0.9s0.9,1.4,0.9,2.2c0,0.9-0.3,1.6-0.9,2.2S16.9,10.2,16,10.2z"/>
</svg>
