<?xml version="1.0" encoding="utf-8"?>
<!-- Generator: Adobe Illustrator 26.3.1, SVG Export Plug-In . SVG Version: 6.00 Build 0)  -->
<svg version="1.1" id="Слой_1" xmlns="http://www.w3.org/2000/svg" xmlns:xlink="http://www.w3.org/1999/xlink" x="0px" y="0px"
	 viewBox="0 0 48 48" style="enable-background:new 0 0 48 48;" xml:space="preserve">
<path d="M24,42.7c-1.8,0-3.3-0.6-4.5-1.8s-1.8-2.7-1.8-4.5c0-1.6,0.5-3,1.6-4.2s2.4-1.9,3.9-2.1v-5.3h-11v-7h-5V6.2h11.6v11.6h-5
	v5.4h20.5v-5.5c-1.6-0.2-2.9-0.9-3.9-2.1c-1.1-1.2-1.6-2.6-1.6-4.2c0-1.8,0.6-3.3,1.8-4.5c1.2-1.2,2.7-1.8,4.5-1.8s3.3,0.6,4.5,1.8
	s1.8,2.7,1.8,4.5c0,1.6-0.5,3-1.6,4.2s-2.4,1.9-3.9,2.1v7h-11V30c1.6,0.2,2.9,0.9,3.9,2.1c1.1,1.2,1.6,2.6,1.6,4.2
	c0,1.8-0.6,3.3-1.8,4.5C27.3,42,25.8,42.7,24,42.7z M35,16.3c1.3,0,2.4-0.5,3.4-1.4c0.9-0.9,1.4-2.1,1.4-3.4s-0.5-2.4-1.4-3.4
	c-0.9-0.9-2.1-1.4-3.4-1.4c-1.3,0-2.4,0.5-3.4,1.4c-0.9,0.9-1.4,2.1-1.4,3.4s0.5,2.4,1.4,3.4C32.6,15.8,33.7,16.3,35,16.3z
	 M8.7,16.3h8.5V7.7H8.7V16.3z M24,41.1c1.3,0,2.4-0.5,3.4-1.4c0.9-0.9,1.4-2.1,1.4-3.4c0-1.3-0.5-2.4-1.4-3.4s-2.1-1.4-3.4-1.4
	s-2.4,0.5-3.4,1.4c-0.9,0.9-1.4,2.1-1.4,3.4c0,1.3,0.5,2.4,1.4,3.4C21.6,40.6,22.7,41.1,24,41.1z"/>
</svg>
