<?xml version="1.0" encoding="utf-8"?>
<!-- Generator: Adobe Illustrator 26.3.1, SVG Export Plug-In . SVG Version: 6.00 Build 0)  -->
<svg version="1.1" id="Слой_1" xmlns="http://www.w3.org/2000/svg" xmlns:xlink="http://www.w3.org/1999/xlink" x="0px" y="0px"
	 viewBox="0 0 48 48" style="enable-background:new 0 0 48 48;" xml:space="preserve">
<path d="M24,38c-3.9,0-7.2-1.4-9.9-4.1c-2.7-2.7-4.1-6-4.1-9.9s1.4-7.2,4.1-9.9s6-4.1,9.9-4.1s7.2,1.4,9.9,4.1s4.1,6,4.1,9.9
	s-1.4,7.2-4.1,9.9C31.2,36.6,27.9,38,24,38z M24.1,36.5c3.4,0,6.4-1.2,8.8-3.6s3.6-5.4,3.6-8.8c0-0.6-0.1-1.3-0.2-1.9
	c-0.1-0.6-0.3-1.3-0.5-1.9c-0.8,0.1-1.5,0.2-2.1,0.3c-0.6,0.1-1.1,0.1-1.6,0.1c-2.2,0-4.4-0.5-6.4-1.6c-2.1-1.1-3.9-2.6-5.4-4.5
	c-0.8,2.1-2,3.9-3.5,5.5s-3.3,2.7-5.3,3.4c0,3.6,1.2,6.7,3.6,9.3C17.6,35.2,20.6,36.5,24.1,36.5z M11.9,21.5c1.5-0.7,3-1.8,4.5-3.3
	s2.4-3.4,2.6-5.6c-1.9,0.8-3.5,2-4.7,3.6C13.1,17.7,12.3,19.5,11.9,21.5z M19.6,27.3c-0.5,0-1-0.2-1.3-0.5c-0.4-0.4-0.5-0.8-0.5-1.3
	s0.2-1,0.5-1.4c0.4-0.4,0.8-0.6,1.3-0.6s1,0.2,1.4,0.6s0.6,0.8,0.6,1.4c0,0.5-0.2,1-0.6,1.3C20.6,27.1,20.2,27.3,19.6,27.3z
	 M32.4,19.1c0.5,0,1,0,1.5-0.1s1-0.1,1.4-0.3c-1-2.2-2.5-4-4.6-5.3s-4.3-1.9-6.7-1.9c-0.6,0-1.1,0-1.6,0.1s-1,0.2-1.6,0.3
	c1.2,2.5,2.9,4.3,5.1,5.4C28.2,18.5,30.4,19.1,32.4,19.1z M28.4,27.3c-0.5,0-1-0.2-1.4-0.5c-0.4-0.4-0.5-0.8-0.5-1.4s0.2-1,0.5-1.4
	c0.4-0.4,0.8-0.6,1.4-0.6c0.5,0,1,0.2,1.4,0.6s0.6,0.8,0.6,1.4s-0.2,1-0.6,1.4C29.4,27.1,28.9,27.3,28.4,27.3z M4,11.8v-5
	c0-0.8,0.3-1.4,0.8-2C5.3,4.3,6,4,6.8,4h5.1v1.5H6.8C6.5,5.5,6.2,5.6,6,5.9C5.7,6.2,5.5,6.5,5.5,6.8v5.1L4,11.8L4,11.8z M11.8,44h-5
	c-0.8,0-1.4-0.3-2-0.8C4.3,42.7,4,42,4,41.2v-5.1h1.5v5.1c0,0.3,0.1,0.6,0.4,0.8s0.5,0.4,0.8,0.4h5.1V44z M36.2,44v-1.5h5.1
	c0.3,0,0.6-0.1,0.8-0.4c0.3-0.3,0.4-0.5,0.4-0.8v-5.1H44v5.1c0,0.8-0.3,1.4-0.8,2c-0.5,0.5-1.2,0.8-2,0.8L36.2,44L36.2,44z
	 M42.5,11.8v-5c0-0.3-0.1-0.6-0.4-0.8c-0.3-0.3-0.5-0.4-0.8-0.4h-5.1V4h5.1c0.8,0,1.4,0.3,2,0.8C43.7,5.3,44,6,44,6.8v5.1L42.5,11.8
	L42.5,11.8z"/>
</svg>
