<?xml version="1.0" encoding="utf-8"?>
<!-- Generator: Adobe Illustrator 26.3.1, SVG Export Plug-In . SVG Version: 6.00 Build 0)  -->
<svg version="1.1" id="Слой_1" xmlns="http://www.w3.org/2000/svg" xmlns:xlink="http://www.w3.org/1999/xlink" x="0px" y="0px"
	 viewBox="0 0 48 48" style="enable-background:new 0 0 48 48;" xml:space="preserve">
<path d="M36,11.5c-0.9,0-1.7-0.3-2.3-0.9c-0.6-0.6-0.9-1.4-0.9-2.3s0.3-1.7,0.9-2.3c0.6-0.7,1.4-1,2.3-1s1.7,0.3,2.3,0.9
	s0.9,1.4,0.9,2.3s-0.3,1.7-0.9,2.3C37.7,11.1,36.9,11.5,36,11.5z M33,43V27.1c0-1-0.2-1.9-0.7-2.7c-0.4-0.8-1.2-1.4-2.2-1.9l2.2-5.9
	c0.3-0.7,0.7-1.3,1.4-1.8c0.7-0.4,1.4-0.7,2.2-0.7s1.5,0.2,2.2,0.7c0.7,0.4,1.1,1,1.4,1.8L45,30.5h-5.5V43H33z M24.9,22.8
	c-0.8,0-1.4-0.3-1.9-0.8s-0.7-1.1-0.7-1.9c0-0.7,0.2-1.3,0.7-1.9s1.1-0.8,1.9-0.8c0.7,0,1.3,0.3,1.9,0.8c0.5,0.5,0.8,1.1,0.8,1.9
	c0,0.7-0.3,1.3-0.8,1.9C26.2,22.6,25.6,22.8,24.9,22.8z M11,11.5c-0.9,0-1.7-0.3-2.3-0.9C8.1,9.9,7.8,9.1,7.8,8.2s0.3-1.7,0.9-2.3
	C9.3,5.3,10.1,5,11,5s1.7,0.3,2.3,0.9s0.9,1.4,0.9,2.3s-0.3,1.7-0.9,2.3C12.7,11.1,11.9,11.5,11,11.5z M7.7,43V29.6H4.2v-12
	c0-0.7,0.3-1.4,0.8-1.9c0.6-0.6,1.2-0.8,1.9-0.8h8.2c0.7,0,1.4,0.3,1.9,0.8c0.6,0.6,0.8,1.2,0.8,1.9v12h-3.5V43
	C14.3,43,7.7,43,7.7,43z M22.5,43v-7.2h-2.2v-8.7c0-0.6,0.2-1.1,0.6-1.5s0.9-0.6,1.5-0.6h5c0.6,0,1.1,0.2,1.5,0.6s0.6,0.9,0.6,1.5
	v8.7h-2.2V43C27.2,43,22.5,43,22.5,43z"/>
</svg>
