<?xml version="1.0" encoding="utf-8"?>
<!-- Generator: Adobe Illustrator 26.3.1, SVG Export Plug-In . SVG Version: 6.00 Build 0)  -->
<svg version="1.1" id="Слой_1" xmlns="http://www.w3.org/2000/svg" xmlns:xlink="http://www.w3.org/1999/xlink" x="0px" y="0px"
	 viewBox="0 0 48 48" style="enable-background:new 0 0 48 48;" xml:space="preserve">
<path d="M21.1,23h1.2v-7.3h-0.8l-2.1,1.5l0.6,0.9l1.2-0.8V23H21.1z M23.9,23h4.8v-1.1h-3.2l0,0l1.9-1.9c0.5-0.5,0.8-0.9,1-1.2
	c0.2-0.4,0.3-0.7,0.3-1.2c0-0.6-0.2-1.1-0.7-1.5s-1-0.6-1.6-0.6s-1.1,0.2-1.5,0.5c-0.4,0.3-0.7,0.7-0.8,1.2l1.1,0.4
	c0.1-0.3,0.2-0.5,0.4-0.7c0.2-0.2,0.5-0.3,0.8-0.3s0.6,0.1,0.8,0.3c0.2,0.2,0.3,0.4,0.3,0.7c0,0.3-0.1,0.6-0.2,0.9S27,19,26.7,19.3
	l-2.6,2.6V23H23.9z M20.9,32.5c0.7,0,1.3-0.2,1.8-0.6s0.7-0.9,0.7-1.6c0-0.4-0.1-0.7-0.3-1.1c-0.2-0.3-0.5-0.6-0.9-0.7v-0.1
	c0.3-0.1,0.5-0.4,0.7-0.7c0.2-0.3,0.3-0.6,0.3-0.9c0-0.6-0.2-1-0.7-1.4c-0.4-0.4-1-0.6-1.7-0.6c-0.5,0-0.9,0.1-1.4,0.4
	c-0.4,0.3-0.7,0.7-0.9,1.1l1.1,0.4c0.1-0.3,0.3-0.5,0.4-0.7c0.2-0.2,0.4-0.2,0.7-0.2c0.3,0,0.6,0.1,0.8,0.3c0.2,0.2,0.3,0.4,0.3,0.7
	s-0.1,0.5-0.4,0.7c-0.2,0.2-0.5,0.3-0.9,0.3H20V29h0.6c0.4,0,0.7,0.1,1,0.3c0.3,0.2,0.4,0.5,0.4,0.9c0,0.3-0.1,0.6-0.4,0.8
	c-0.2,0.2-0.6,0.3-0.9,0.3s-0.6-0.1-0.9-0.3c-0.3-0.2-0.4-0.5-0.5-0.8l-1.1,0.5c0.2,0.6,0.5,1,0.9,1.3
	C19.9,32.3,20.4,32.5,20.9,32.5z M27,32.5c0.7,0,1.3-0.2,1.8-0.7s0.7-1,0.7-1.7s-0.2-1.2-0.7-1.7c-0.4-0.5-1-0.7-1.6-0.7
	c-0.1,0-0.4,0.1-0.8,0.2l0,0l1.6-2.3L27.1,25l-1.8,2.7c-0.4,0.6-0.7,1-0.8,1.3c-0.1,0.3-0.2,0.7-0.2,1.1c0,0.7,0.2,1.3,0.7,1.8
	C25.6,32.2,26.2,32.5,27,32.5z M27,31.4c-0.4,0-0.7-0.1-1-0.4c-0.3-0.2-0.4-0.6-0.4-1c0-0.2,0.1-0.5,0.2-0.7s0.3-0.4,0.5-0.5
	c0.1-0.1,0.3-0.1,0.7-0.2c0.4,0,0.7,0.1,1,0.4s0.4,0.6,0.4,1s-0.1,0.7-0.4,0.9C27.7,31.2,27.4,31.4,27,31.4z M24,42
	c-2.5,0-4.8-0.5-7-1.4s-4.1-2.2-5.7-3.9c-1.6-1.6-2.9-3.5-3.9-5.7C6.5,28.8,6,26.5,6,24s0.5-4.8,1.4-7s2.2-4.1,3.9-5.7
	c1.6-1.6,3.5-2.9,5.7-3.9C19.2,6.5,21.5,6,24,6s4.8,0.5,7,1.4s4.1,2.2,5.7,3.9c1.6,1.6,2.9,3.5,3.9,5.7c0.9,2.2,1.4,4.5,1.4,7
	s-0.5,4.8-1.4,7s-2.2,4.1-3.9,5.7c-1.6,1.6-3.5,2.9-5.7,3.9C28.8,41.5,26.5,42,24,42z M24,40.5c4.5,0,8.4-1.6,11.6-4.8
	c3.2-3.2,4.8-7.1,4.8-11.6s-1.6-8.4-4.8-11.6c-3.2-3.4-7.1-5-11.6-5s-8.4,1.6-11.6,4.8S7.5,19.5,7.5,24s1.6,8.4,4.8,11.6
	C15.6,38.9,19.5,40.5,24,40.5z"/>
</svg>
