<?xml version="1.0" encoding="utf-8"?>
<!-- Generator: Adobe Illustrator 26.3.1, SVG Export Plug-In . SVG Version: 6.00 Build 0)  -->
<svg version="1.1" id="Слой_1" xmlns="http://www.w3.org/2000/svg" xmlns:xlink="http://www.w3.org/1999/xlink" x="0px" y="0px"
	 viewBox="0 0 48 48" style="enable-background:new 0 0 48 48;" xml:space="preserve">
<path d="M29.8,30.5c-0.8-1.9-2.3-3.3-4.5-4.1c-2.2-0.8-4.6-1.2-7-1.2s-4.8,0.4-7.1,1.2c-2.3,0.8-3.8,2.1-4.5,4.1H29.8z M4.9,32.1
	c0-2.9,1.4-5,4.2-6.3s5.8-2,9.1-2s6.4,0.7,9.1,2c2.8,1.3,4.2,3.4,4.2,6.3H4.9z M4.9,37.9v-1.5h26.6v1.5H4.9z M35.1,44v-1.5h3.5
	l2.9-27.7H23l-0.2-1.5h9.3V4.8h1.5v8.5h9.5l-3,28.9c-0.1,0.6-0.3,1-0.7,1.4s-0.9,0.5-1.5,0.5h-2.8V44z M35.1,42.5h3.5
	C38.5,42.5,35.1,42.5,35.1,42.5z M5.9,44c-0.3,0-0.5-0.1-0.7-0.3C5,43.5,4.9,43.3,4.9,43v-0.5h26.6V43c0,0.3-0.1,0.5-0.3,0.7
	C31,43.9,30.8,44,30.5,44H5.9z"/>
</svg>
