<?xml version="1.0" encoding="utf-8"?>
<!-- Generator: Adobe Illustrator 26.3.1, SVG Export Plug-In . SVG Version: 6.00 Build 0)  -->
<svg version="1.1" id="Слой_1" xmlns="http://www.w3.org/2000/svg" xmlns:xlink="http://www.w3.org/1999/xlink" x="0px" y="0px"
	 viewBox="0 0 48 48" style="enable-background:new 0 0 48 48;" xml:space="preserve">
<path d="M24,39.3l-1.1-1c-3.3-3.1-6.1-5.7-8.3-7.9s-3.9-4.1-5.2-5.8s-2.2-3.2-2.7-4.5S6,17.4,6,16.1c0-2.5,0.8-4.6,2.5-6.3
	s3.8-2.5,6.2-2.5c1.8,0,3.5,0.5,5.1,1.5c1.6,1,2.9,2.4,4.1,4.3c1.3-1.9,2.7-3.4,4.2-4.3c1.5-1,3.2-1.4,5-1.4c2.5,0,4.6,0.8,6.2,2.5
	s2.5,3.8,2.5,6.3c0,1.3-0.2,2.6-0.7,4c-0.5,1.3-1.4,2.8-2.7,4.5s-3,3.6-5.2,5.8s-4.9,4.8-8.3,7.9L24,39.3z M24,37.2
	c3.3-3,6-5.5,8.1-7.7c2.1-2.1,3.8-4,5-5.6s2.1-3,2.6-4.2c0.5-1.2,0.7-2.4,0.7-3.6c0-2.1-0.7-3.8-2.1-5.2c-1.4-1.4-3.1-2.1-5.2-2.1
	c-1.7,0-3.2,0.5-4.6,1.5s-2.7,2.5-3.9,4.6h-1.3c-1.3-2.1-2.6-3.6-4-4.6s-2.9-1.5-4.6-1.5c-2,0-3.8,0.7-5.1,2.1
	c-1.4,1.4-2.1,3.1-2.1,5.2c0,1.2,0.2,2.4,0.7,3.6s1.4,2.6,2.6,4.2c1.2,1.6,2.9,3.5,5,5.6S20.7,34.2,24,37.2z"/>
</svg>
