<?xml version="1.0" encoding="utf-8"?>
<!-- Generator: Adobe Illustrator 26.3.1, SVG Export Plug-In . SVG Version: 6.00 Build 0)  -->
<svg version="1.1" id="Слой_1" xmlns="http://www.w3.org/2000/svg" xmlns:xlink="http://www.w3.org/1999/xlink" x="0px" y="0px"
	 viewBox="0 0 48 48" style="enable-background:new 0 0 48 48;" xml:space="preserve">
<path d="M10,41c-1.4,0-2.6-0.5-3.5-1.5c-1-1-1.5-2.2-1.5-3.5V22c0-1.4,0.5-2.6,1.5-3.5c1-1,2.2-1.5,3.5-1.5c0.8,0,1.6,0.2,2.3,0.5
	c0.7,0.4,1.3,0.9,1.8,1.5h3V9.7h18V19h3.5c1.3,0,2.3,0.4,3.2,1.3s1.3,2,1.3,3.2V39H14c-0.5,0.6-1.1,1.1-1.8,1.5
	C11.6,40.8,10.8,41,10,41z M10,39.5c1,0,1.8-0.3,2.5-1s1-1.5,1-2.5V22c0-1-0.3-1.8-1-2.5s-1.5-1-2.5-1s-1.8,0.3-2.5,1s-1,1.5-1,2.5
	v14c0,1,0.3,1.8,1,2.5C8.2,39.1,9,39.5,10,39.5z M18.5,19h14.9v-7.8H18.5V19z M15,37.5h26.5v-14c0-0.8-0.3-1.5-0.9-2.1
	c-0.6-0.6-1.3-0.9-2.1-0.9H15V37.5z M30,28c0.6,0,1-0.2,1.4-0.6S32,26.6,32,26s-0.2-1-0.6-1.4S30.6,24,30,24s-1,0.2-1.4,0.6
	S28,25.4,28,26s0.2,1,0.6,1.4S29.4,28,30,28z M36,28c0.6,0,1-0.2,1.4-0.6C37.8,27,38,26.6,38,26s-0.2-1-0.6-1.4
	C37,24.2,36.6,24,36,24s-1,0.2-1.4,0.6C34.2,25,34,25.4,34,26s0.2,1,0.6,1.4S35.4,28,36,28z M30,34c0.6,0,1-0.2,1.4-0.6
	C31.8,33,32,32.6,32,32c0-0.6-0.2-1-0.6-1.4S30.6,30,30,30s-1,0.2-1.4,0.6S28,31.4,28,32c0,0.6,0.2,1,0.6,1.4C29,33.8,29.4,34,30,34
	z M36,34c0.6,0,1-0.2,1.4-0.6C37.8,33,38,32.6,38,32c0-0.6-0.2-1-0.6-1.4C37,30.2,36.6,30,36,30s-1,0.2-1.4,0.6
	C34.2,31,34,31.4,34,32c0,0.6,0.2,1,0.6,1.4C35,33.8,35.4,34,36,34z M18.5,34H26V24h-7.5V34z M15,37.5v-17V37.5z"/>
</svg>
