<?xml version="1.0" encoding="utf-8"?>
<!-- Generator: Adobe Illustrator 26.3.1, SVG Export Plug-In . SVG Version: 6.00 Build 0)  -->
<svg version="1.1" id="Слой_1" xmlns="http://www.w3.org/2000/svg" xmlns:xlink="http://www.w3.org/1999/xlink" x="0px" y="0px"
	 viewBox="0 0 48 48" style="enable-background:new 0 0 48 48;" xml:space="preserve">
<path d="M36.2,24.8l1.5,1.5v12.9c0,0.8-0.3,1.4-0.8,2c-0.5,0.5-1.2,0.8-2,0.8H8.7c-0.8,0-1.4-0.3-2-0.8c-0.5-0.5-0.8-1.2-0.8-2V13
	c0-0.8,0.3-1.4,0.8-2c0.5-0.5,1.2-0.8,2-0.8h11.8c-0.1,0.3-0.2,0.6-0.2,0.8s-0.1,0.5-0.1,0.7H8.7c-0.3,0-0.6,0.1-0.8,0.4
	c-0.3,0.3-0.4,0.5-0.4,0.8v26.2c0,0.3,0.1,0.6,0.4,0.8c0.3,0.3,0.5,0.4,0.8,0.4h26.2c0.3,0,0.6-0.1,0.8-0.4s0.4-0.5,0.4-0.8
	C36.2,39.2,36.2,24.8,36.2,24.8z M36.7,17.4l6.7,6.8l-1.1,1.1l-6.8-6.8c-0.6,0.6-1.3,1-2.1,1.3s-1.7,0.4-2.5,0.4
	c-2,0-3.8-0.7-5.2-2.1c-1.4-1.4-2.1-3.1-2.1-5.2s0.7-3.8,2.1-5.2C27.3,6.2,29,5.5,31,5.5s3.8,0.7,5.2,2.1s2.1,3.1,2.1,5.2
	c0,0.9-0.1,1.7-0.4,2.5C37.7,16.2,37.3,16.9,36.7,17.4z M31,18.6c1.6,0,3-0.6,4.1-1.7s1.7-2.5,1.7-4.1s-0.6-3-1.7-4.1
	C34,7.6,32.6,7.1,31,7.1c-1.6,0-3,0.6-4.1,1.7s-1.7,2.5-1.7,4.1s0.6,3,1.7,4.1C28.1,18.1,29.4,18.6,31,18.6z M7.5,24.8v15.7V11.8
	v11.9v-0.4C7.5,23.3,7.5,24.8,7.5,24.8z"/>
</svg>
