<?xml version="1.0" encoding="utf-8"?>
<!-- Generator: Adobe Illustrator 26.3.1, SVG Export Plug-In . SVG Version: 6.00 Build 0)  -->
<svg version="1.1" id="Слой_1" xmlns="http://www.w3.org/2000/svg" xmlns:xlink="http://www.w3.org/1999/xlink" x="0px" y="0px"
	 viewBox="0 0 48 48" style="enable-background:new 0 0 48 48;" xml:space="preserve">
<path d="M19.8,42.2c-1,0-1.9-0.3-2.6-0.9c-0.8-0.6-1.2-1.4-1.4-2.4c-0.2-1.1-0.7-2-1.4-2.7s-1.6-1-2.7-1c-0.2,0-0.4,0-0.5,0
	s-0.3,0-0.4,0c-1.2,0.2-2.4-0.1-3.3-0.9c-1-0.8-1.5-1.9-1.5-3.1c0-0.9,0.3-1.8,0.9-2.6c0.6-0.8,1.4-1.2,2.4-1.4L16,26l7.1-10.2
	c0.3-0.5,0.4-0.9,0.4-1.4c-0.1-0.4-0.3-0.9-0.7-1.2c-0.3-0.3-0.5-0.6-0.7-1c-0.1-0.4-0.2-0.8-0.2-1.2c0-0.8,0.3-1.5,0.8-2.1
	c0.5-0.6,1.2-0.8,2-0.8c0.5,0,1,0.1,1.4,0.3s0.7,0.4,0.9,0.5c0.2,0.2,0.6,0.4,1.2,0.7s1.3,0.4,2.1,0.4c-0.1-0.8,0-1.5,0.4-2.2
	s0.9-1.2,1.7-1.5C33.3,6,34.2,6,35.1,6.4s1.5,1.1,1.8,2l2.5,7c0.3,0.9,0.3,1.8-0.2,2.7C39,19,38.4,19.6,37.5,20
	c-0.8,0.4-1.6,0.3-2.4,0c-0.8-0.4-1.4-1-1.8-1.7h-0.4c-0.4-0.1-0.8,0-1.1,0.1s-0.7,0.4-0.9,0.7l-8.2,11.8l1.2,6.6
	c0.2,1.3-0.1,2.4-0.9,3.3C22.1,41.7,21,42.2,19.8,42.2z M19.8,40.2c0.6,0,1.2-0.2,1.6-0.7s0.6-1,0.4-1.7l-1.2-6.6
	c-0.1-0.3-0.1-0.5,0-0.8s0.2-0.5,0.4-0.7l8.2-11.8c0.4-0.5,0.8-1,1.4-1.2s1.2-0.5,1.9-0.5l-1.5-4c-1,0-1.9-0.1-2.8-0.4
	s-1.6-0.6-2.2-1.1c-0.2-0.2-0.4-0.3-0.6-0.4c-0.2-0.1-0.4-0.1-0.5-0.1c-0.3,0-0.5,0.1-0.6,0.3s-0.2,0.4-0.2,0.6c0,0.1,0,0.3,0.1,0.4
	c0,0.1,0.1,0.2,0.2,0.4c0.4,0.4,0.8,0.9,0.9,1.4c0.2,0.5,0.3,1,0.3,1.5c0,0.4-0.1,0.8-0.2,1.2s-0.3,0.7-0.5,1.1l-7.2,10.2
	c-0.2,0.2-0.4,0.4-0.6,0.5s-0.5,0.2-0.7,0.3l-6.7,1.1c-0.5,0.1-0.9,0.3-1.2,0.7S8,30.8,8,31.3c0,0.6,0.2,1.2,0.7,1.6
	s1.1,0.6,1.7,0.4c0.2-0.1,0.5-0.1,0.7-0.1h0.6c0.8,0,1.5,0.1,2.2,0.4c0.7,0.3,1.3,0.6,1.8,1c0.5,0.5,1,1,1.4,1.7
	c0.4,0.6,0.6,1.4,0.8,2.2c0.1,0.5,0.3,0.9,0.7,1.2C18.9,40,19.3,40.2,19.8,40.2z M36.8,18.1c0.4-0.2,0.6-0.4,0.8-0.8
	s0.2-0.7,0.1-1.1l-2.5-7c-0.2-0.4-0.4-0.7-0.8-0.9s-0.8-0.2-1.1,0c-0.4,0.2-0.6,0.4-0.8,0.8s-0.2,0.7,0,1.1l2.5,7
	c0.2,0.4,0.4,0.7,0.8,0.9C36.1,18.3,36.5,18.3,36.8,18.1z"/>
</svg>
