<?xml version="1.0" encoding="utf-8"?>
<!-- Generator: Adobe Illustrator 26.3.1, SVG Export Plug-In . SVG Version: 6.00 Build 0)  -->
<svg version="1.1" id="Слой_1" xmlns="http://www.w3.org/2000/svg" xmlns:xlink="http://www.w3.org/1999/xlink" x="0px" y="0px"
	 viewBox="0 0 48 48" style="enable-background:new 0 0 48 48;" xml:space="preserve">
<path d="M11.2,39v-8.2H9v-1.5h2.2v-6.5H9v-1.5h2.2v-7L16,9.4l4,4l4.1-4l4,4l4-4l4.8,4.8v7H39v1.5h-2.2v6.5H39v1.5h-2.2V39H11.2z
	 M12.8,21.2h6.5v-6.4L16,11.6l-3.2,3.2V21.2z M20.8,21.2h6.5v-6.4L24,11.6l-3.2,3.2V21.2z M28.8,21.2h6.4v-6.4L32,11.6l-3.2,3.2
	V21.2z M12.8,29.2h6.5v-6.5h-6.5C12.8,22.7,12.8,29.2,12.8,29.2z M20.8,29.2h6.5v-6.5h-6.5V29.2z M28.8,29.2h6.4v-6.5h-6.4
	C28.8,22.7,28.8,29.2,28.8,29.2z M12.8,37.5h6.5v-6.7h-6.5C12.8,30.8,12.8,37.5,12.8,37.5z M20.8,37.5h6.5v-6.7h-6.5V37.5z
	 M28.8,37.5h6.4v-6.7h-6.4C28.8,30.8,28.8,37.5,28.8,37.5z"/>
</svg>
