<?xml version="1.0" encoding="utf-8"?>
<!-- Generator: Adobe Illustrator 26.3.1, SVG Export Plug-In . SVG Version: 6.00 Build 0)  -->
<svg version="1.1" id="Слой_1" xmlns="http://www.w3.org/2000/svg" xmlns:xlink="http://www.w3.org/1999/xlink" x="0px" y="0px"
	 viewBox="0 0 48 48" style="enable-background:new 0 0 48 48;" xml:space="preserve">
<path d="M24,36c-3.3,0-6.2-1.2-8.5-3.5S12,27.3,12,24s1.2-6.2,3.5-8.5S20.7,12,24,12s6.2,1.2,8.5,3.5S36,20.7,36,24
	s-1.2,6.2-3.5,8.5S27.3,36,24,36z M24,34.5c2.9,0,5.4-1,7.4-3s3-4.5,3-7.4s-1-5.4-3-7.4s-4.5-3-7.4-3s-5.4,1-7.4,3s-3,4.5-3,7.4
	s1,5.4,3,7.4C18.6,33.4,21.1,34.5,24,34.5z"/>
</svg>
