<?xml version="1.0" encoding="utf-8"?>
<!-- Generator: Adobe Illustrator 26.3.1, SVG Export Plug-In . SVG Version: 6.00 Build 0)  -->
<svg version="1.1" id="Слой_1" xmlns="http://www.w3.org/2000/svg" xmlns:xlink="http://www.w3.org/1999/xlink" x="0px" y="0px"
	 viewBox="0 0 48 48" style="enable-background:new 0 0 48 48;" xml:space="preserve">
<path d="M40.1,36.6l-1-1.1l2.4-2.4l1.1,1.1L40.1,36.6z M37,33.5L35.5,32v-4.5H37V33.5z M29.5,47v-1.5h12.4L10.5,14.2v22.1
	c0,0.3,0.1,0.6,0.4,0.8s0.5,0.4,0.8,0.4h13.4V39H11.8c-0.7,0-1.4-0.3-1.9-0.8c-0.6-0.6-0.9-1.3-0.9-2V12.6L3.1,6.7l1.1-1.1L44,45.5
	V47H29.5z M35.5,23.2H37v-7.4L26.1,5H11.8c-0.5,0-0.9,0.1-1.3,0.3c-0.4,0.2-0.7,0.4-0.9,0.8L10.5,7c0.1-0.1,0.3-0.2,0.4-0.3
	c0.2-0.1,0.3-0.1,0.5-0.1h14.1v10h10C35.5,16.5,35.5,23.2,35.5,23.2z"/>
</svg>
