<?xml version="1.0" encoding="utf-8"?>
<!-- Generator: Adobe Illustrator 26.3.1, SVG Export Plug-In . SVG Version: 6.00 Build 0)  -->
<svg version="1.1" id="Слой_1" xmlns="http://www.w3.org/2000/svg" xmlns:xlink="http://www.w3.org/1999/xlink" x="0px" y="0px"
	 viewBox="0 0 48 48" style="enable-background:new 0 0 48 48;" xml:space="preserve">
<path d="M40,35.3l-1.5-1.5V13.5h-8.1v-8H15.8c-0.3,0-0.6,0.1-0.8,0.4c-0.3,0.3-0.4,0.5-0.4,0.8v2.8L13.1,8V6.8c0-0.8,0.3-1.4,0.8-2
	c0.5-0.5,1.2-0.8,2-0.8h15.3l8.8,8.8V35.3z M15.8,35.4h17.3L14.6,16.8v17.3c0,0.3,0.1,0.6,0.4,0.8C15.3,35.3,15.5,35.4,15.8,35.4z
	 M41.6,43.8l-6.9-6.9H15.8c-0.8,0-1.4-0.3-2-0.8c-0.5-0.5-0.8-1.2-0.8-2V15.3L4.2,6.4l1.1-1.1l37.5,37.5
	C42.7,42.7,41.6,43.8,41.6,43.8z M8.8,44c-0.8,0-1.4-0.3-2-0.8C6.3,42.7,6,42,6,41.2V17.1h1.5v24.1c0,0.3,0.1,0.6,0.4,0.8
	c0.3,0.3,0.5,0.4,0.8,0.4h22.1V44H8.8z"/>
</svg>
