<?xml version="1.0" encoding="utf-8"?>
<!-- Generator: Adobe Illustrator 26.3.1, SVG Export Plug-In . SVG Version: 6.00 Build 0)  -->
<svg version="1.1" id="Слой_1" xmlns="http://www.w3.org/2000/svg" xmlns:xlink="http://www.w3.org/1999/xlink" x="0px" y="0px"
	 viewBox="0 0 48 48" style="enable-background:new 0 0 48 48;" xml:space="preserve">
<path d="M36.2,40.5l6.3-6.3l-1.1-1.1L37,37.6V27.5h-1.5v10.1L31,33.2l-1,1L36.2,40.5z M29.5,47v-1.5H43V47H29.5z M11.8,39
	c-0.7,0-1.4-0.3-1.9-0.8c-0.6-0.6-0.9-1.3-0.9-2V7.8c0-0.7,0.3-1.4,0.8-1.9c0.6-0.6,1.3-0.9,2-0.9h14.4L37,15.9v7.4h-1.5v-6.7h-10
	v-10H11.8c-0.3,0-0.6,0.1-0.8,0.4c-0.3,0.3-0.4,0.5-0.4,0.8v28.5c0,0.3,0.1,0.6,0.4,0.8s0.5,0.4,0.8,0.4h13.4V39H11.8z M10.5,37.5
	v-31V37.5z"/>
</svg>
