<?xml version="1.0" encoding="utf-8"?>
<!-- Generator: Adobe Illustrator 26.3.1, SVG Export Plug-In . SVG Version: 6.00 Build 0)  -->
<svg version="1.1" id="Слой_1" xmlns="http://www.w3.org/2000/svg" xmlns:xlink="http://www.w3.org/1999/xlink" x="0px" y="0px"
	 viewBox="0 0 48 48" style="enable-background:new 0 0 48 48;" xml:space="preserve">
<path d="M40.2,42.4L35.8,38h-23c-0.8,0-1.4-0.3-2-0.8c-0.5-0.5-0.8-1.2-0.8-2v-5.4h1.5v5.4c0,0.3,0.1,0.6,0.4,0.8s0.5,0.4,0.8,0.4
	h21.5l-7.7-7.7L24,31.3l-6.9-6.9l1.5-1.4l3.5,3.5v-2.2L5.6,7.8l1.1-1.1l34.5,34.5C41.3,41.3,40.2,42.4,40.2,42.4z M29.6,25.3
	l-1.1-1.1l1.3-1.3l1.1,1.1L29.6,25.3z M24.8,19.8l-1.5-1.5V10h1.5V19.8z M38,33.8l-1.5-1.5v-2.4H38V33.8z"/>
</svg>
