<?xml version="1.0" encoding="utf-8"?>
<!-- Generator: Adobe Illustrator 26.3.1, SVG Export Plug-In . SVG Version: 6.00 Build 0)  -->
<svg version="1.1" id="Слой_1" xmlns="http://www.w3.org/2000/svg" xmlns:xlink="http://www.w3.org/1999/xlink" x="0px" y="0px"
	 viewBox="0 0 48 48" style="enable-background:new 0 0 48 48;" xml:space="preserve">
<path d="M10.8,40c-0.8,0-1.4-0.3-2-0.8C8.3,38.7,8,38,8,37.2V10.8c0-0.8,0.3-1.4,0.8-2C9.3,8.3,10,8,10.8,8h26.5
	c0.8,0,1.4,0.3,2,0.8c0.5,0.5,0.8,1.2,0.8,2v26.5c0,0.8-0.3,1.4-0.8,2c-0.5,0.5-1.2,0.8-2,0.8L10.8,40L10.8,40z M10.8,38.5h26.5
	c0.4,0,0.7-0.1,0.9-0.3s0.3-0.5,0.3-0.9V10.8c0-0.4-0.1-0.7-0.3-0.9s-0.5-0.3-0.9-0.3H10.8c-0.4,0-0.7,0.1-0.9,0.3s-0.3,0.5-0.3,0.9
	v26.5c0,0.4,0.1,0.7,0.3,0.9C10.1,38.3,10.4,38.5,10.8,38.5z M24,33.5c2.6-2.2,4.5-4.2,5.8-6.1s1.9-3.6,1.9-5.2
	c0-2.4-0.8-4.3-2.3-5.7c-1.5-1.4-3.3-2.1-5.3-2.1s-3.8,0.7-5.4,2.1c-1.5,1.4-2.3,3.3-2.3,5.7c0,1.6,0.6,3.3,1.9,5.2
	C19.5,29.3,21.5,31.3,24,33.5z M24,24.5c-0.6,0-1.2-0.2-1.6-0.7c-0.4-0.4-0.7-1-0.7-1.6s0.2-1.2,0.7-1.6c0.4-0.4,1-0.7,1.6-0.7
	s1.2,0.2,1.6,0.7c0.4,0.4,0.7,1,0.7,1.6s-0.2,1.2-0.7,1.6C25.2,24.3,24.6,24.5,24,24.5z M9.5,38.5v-29V38.5z"/>
</svg>
