<?xml version="1.0" encoding="utf-8"?>
<!-- Generator: Adobe Illustrator 26.3.1, SVG Export Plug-In . SVG Version: 6.00 Build 0)  -->
<svg version="1.1" id="Слой_1" xmlns="http://www.w3.org/2000/svg" xmlns:xlink="http://www.w3.org/1999/xlink" x="0px" y="0px"
	 viewBox="0 0 48 48" style="enable-background:new 0 0 48 48;" xml:space="preserve">
<path d="M9,29.4h3.8c0.4,0,0.7-0.1,0.9-0.4c0.2-0.2,0.4-0.6,0.4-0.9v-9.5h-1.5v9.2H9.2V25H7.7v3.1c0,0.4,0.1,0.7,0.4,0.9
	C8.3,29.3,8.6,29.4,9,29.4z M17.6,29.4h4c0.3,0,0.7-0.1,0.9-0.4c0.3-0.2,0.4-0.6,0.4-0.9v-3.7c0-0.3-0.1-0.5-0.3-0.7
	c-0.2-0.2-0.4-0.3-0.7-0.3h-4v-3.2h3.3v1.9h1.6v-2.2c0-0.4-0.1-0.7-0.4-0.9c-0.3-0.2-0.6-0.4-0.9-0.4h-4c-0.4,0-0.7,0.1-0.9,0.4
	s-0.4,0.6-0.4,0.9v3.7c0,0.3,0.1,0.5,0.3,0.7c0.2,0.2,0.4,0.3,0.7,0.3h3.9v3.2h-3.3v-1.9h-1.6v2.2c0,0.4,0.1,0.7,0.4,0.9
	C16.9,29.3,17.2,29.4,17.6,29.4z M26.6,27.9V20H30v7.9H26.6z M26.4,29.5h3.9c0.4,0,0.7-0.1,1-0.4s0.4-0.6,0.4-1V20
	c0-0.4-0.1-0.7-0.4-1s-0.6-0.4-1-0.4h-3.9c-0.4,0-0.7,0.1-1,0.4S25,19.6,25,20v8.1c0,0.4,0.1,0.7,0.4,1C25.6,29.3,26,29.5,26.4,29.5
	z M33.8,29.5h1.5v-7.4l3.5,7.4h1.7v-11H39v7.4l-3.5-7.4h-1.7V29.5z M6.8,38c-0.8,0-1.4-0.3-2-0.8C4.3,36.7,4,36,4,35.2V12.8
	c0-0.8,0.3-1.4,0.8-2C5.3,10.3,6,10,6.8,10h34.5c0.8,0,1.4,0.3,2,0.8c0.5,0.5,0.8,1.2,0.8,2v22.5c0,0.8-0.3,1.4-0.8,2
	c-0.5,0.5-1.2,0.8-2,0.8L6.8,38L6.8,38z M6.8,36.5h34.5c0.4,0,0.7-0.1,0.9-0.3s0.3-0.5,0.3-0.9V12.8c0-0.4-0.1-0.7-0.3-0.9
	s-0.5-0.3-0.9-0.3H6.8c-0.4,0-0.7,0.1-0.9,0.3c-0.2,0.2-0.3,0.5-0.3,0.9v22.5c0,0.4,0.1,0.7,0.3,0.9C6.1,36.3,6.4,36.5,6.8,36.5z
	 M5.5,36.5v-25V36.5z"/>
</svg>
