<?xml version="1.0" encoding="utf-8"?>
<!-- Generator: Adobe Illustrator 26.3.1, SVG Export Plug-In . SVG Version: 6.00 Build 0)  -->
<svg version="1.1" id="Слой_1" xmlns="http://www.w3.org/2000/svg" xmlns:xlink="http://www.w3.org/1999/xlink" x="0px" y="0px"
	 viewBox="0 0 48 48" style="enable-background:new 0 0 48 48;" xml:space="preserve">
<path d="M10.9,43l-1.1-1.1l7.1-7.1h-6.8v-1.5h9.4v9.4H18v-6.8L10.9,43z M23.9,42v-1.5h11.4c0.4,0,0.7-0.1,0.9-0.3s0.3-0.5,0.3-0.9
	V16H28V7.5H12.8c-0.4,0-0.7,0.1-0.9,0.3c-0.2,0.2-0.3,0.5-0.3,0.9v20.2H10V8.8c0-0.7,0.3-1.4,0.8-1.9C11.4,6.3,12,6,12.8,6H29l9,9
	v24.2c0,0.7-0.3,1.4-0.8,1.9c-0.6,0.6-1.2,0.9-2,0.9H23.9z"/>
</svg>
