<?xml version="1.0" encoding="utf-8"?>
<!-- Generator: Adobe Illustrator 26.3.1, SVG Export Plug-In . SVG Version: 6.00 Build 0)  -->
<svg version="1.1" id="Слой_1" xmlns="http://www.w3.org/2000/svg" xmlns:xlink="http://www.w3.org/1999/xlink" x="0px" y="0px"
	 viewBox="0 0 48 48" style="enable-background:new 0 0 48 48;" xml:space="preserve">
<path d="M12.8,42c-0.8,0-1.4-0.3-2-0.8c-0.5-0.5-0.8-1.2-0.8-2V8.8c0-0.8,0.3-1.4,0.8-2C11.3,6.3,12,6,12.8,6H29l9,9v14.7h-1.5V16
	H28V7.5H12.8c-0.3,0-0.6,0.1-0.8,0.4c-0.3,0.3-0.4,0.5-0.4,0.8v30.5c0,0.3,0.1,0.6,0.4,0.8s0.5,0.4,0.8,0.4h18.9V42H12.8z M43.9,43
	l-7.1-7.1v6.8h-1.5v-9.4h9.4v1.5h-6.8l7.1,7.1L43.9,43z M11.5,40.5v-33V40.5z"/>
</svg>
