<?xml version="1.0" encoding="utf-8"?>
<!-- Generator: Adobe Illustrator 26.3.1, SVG Export Plug-In . SVG Version: 6.00 Build 0)  -->
<svg version="1.1" id="Слой_1" xmlns="http://www.w3.org/2000/svg" xmlns:xlink="http://www.w3.org/1999/xlink" x="0px" y="0px"
	 viewBox="0 0 48 48" style="enable-background:new 0 0 48 48;" xml:space="preserve">
<path d="M12.8,38c-0.8,0-1.4-0.3-1.9-0.8s-0.8-1.2-0.8-2V30h1.6v5.3c0,0.3,0.1,0.6,0.4,0.8s0.5,0.4,0.8,0.4h22.5
	c0.3,0,0.6-0.1,0.8-0.4s0.4-0.5,0.4-0.8V30H38v5.3c0,0.8-0.3,1.4-0.8,2S36,38,35.2,38H12.8z M23.2,30.6V12.3l-5,5l-1.1-1l6.9-7
	l6.9,6.9l-1.1,1l-5-5v18.3L23.2,30.6z"/>
</svg>
