<?xml version="1.0" encoding="utf-8"?>
<!-- Generator: Adobe Illustrator 26.3.1, SVG Export Plug-In . SVG Version: 6.00 Build 0)  -->
<svg version="1.1" id="Слой_1" xmlns="http://www.w3.org/2000/svg" xmlns:xlink="http://www.w3.org/1999/xlink" x="0px" y="0px"
	 viewBox="0 0 48 48" style="enable-background:new 0 0 48 48;" xml:space="preserve">
<path d="M24,27.6c-1,0-1.9-0.3-2.6-1s-1-1.6-1-2.6s0.3-1.9,1-2.6s1.6-1,2.6-1s1.9,0.3,2.6,1s1,1.6,1,2.6s-0.3,1.9-1,2.6
	C25.9,27.3,25,27.6,24,27.6z M24,26.1c0.6,0,1.1-0.2,1.5-0.6s0.6-0.9,0.6-1.5s-0.2-1.1-0.6-1.5s-0.9-0.6-1.5-0.6s-1.1,0.2-1.5,0.6
	s-0.6,0.9-0.6,1.5s0.2,1.1,0.6,1.5S23.4,26.1,24,26.1z M10.8,40c-0.8,0-1.4-0.3-2-0.8C8.3,38.7,8,38,8,37.2v-7.1h1.5v7.1
	c0,0.3,0.1,0.6,0.4,0.8s0.5,0.4,0.8,0.4h7.1V40H10.8z M30.2,40v-1.5h7.1c0.3,0,0.6-0.1,0.8-0.4c0.3-0.3,0.4-0.5,0.4-0.8v-7.1H40v7.1
	c0,0.8-0.3,1.4-0.8,2c-0.5,0.5-1.2,0.8-2,0.8L30.2,40L30.2,40z M8,17.8v-7.1c0-0.8,0.3-1.4,0.8-2C9.3,8.3,10,8,10.8,8h7.1v1.5h-7.1
	c-0.3,0-0.6,0.1-0.8,0.4c-0.3,0.3-0.4,0.5-0.4,0.8v7.1H8z M38.5,17.8v-7.1c0-0.3-0.1-0.6-0.4-0.8c-0.3-0.3-0.5-0.4-0.8-0.4h-7.1V8
	h7.1c0.8,0,1.4,0.3,2,0.8c0.5,0.5,0.8,1.2,0.8,2v7.1h-1.6V17.8z"/>
</svg>
