<?xml version="1.0" encoding="utf-8"?>
<!-- Generator: Adobe Illustrator 26.3.1, SVG Export Plug-In . SVG Version: 6.00 Build 0)  -->
<svg version="1.1" id="Слой_1" xmlns="http://www.w3.org/2000/svg" xmlns:xlink="http://www.w3.org/1999/xlink" x="0px" y="0px"
	 viewBox="0 0 48 48" style="enable-background:new 0 0 48 48;" xml:space="preserve">
<path d="M19.6,24L9,12.2c-0.1-0.1-0.2-0.3-0.3-0.4c-0.1-0.2-0.1-0.3-0.1-0.4c0-0.4,0.1-0.7,0.4-1c0.3-0.3,0.6-0.5,1-0.5h24.6
	c0.4,0,0.8,0.2,1,0.5c0.3,0.3,0.4,0.6,0.4,1c0,0.1,0,0.3-0.1,0.4c-0.1,0.1-0.1,0.3-0.3,0.4L25.1,24v12.6c0,0.4-0.1,0.7-0.4,1
	s-0.6,0.4-1,0.4H21c-0.4,0-0.7-0.1-1-0.4c-0.3-0.3-0.4-0.6-0.4-1V24z M37.9,35.6l-1.1-1.1l4.2-4.1h-9.8v-1.5H41l-4.2-4.1l1.1-1.2
	l6.1,6L37.9,35.6z M22.4,24.8l11.9-13.3H10.4L22.4,24.8z"/>
</svg>
