<?xml version="1.0" encoding="utf-8"?>
<!-- Generator: Adobe Illustrator 26.3.1, SVG Export Plug-In . SVG Version: 6.00 Build 0)  -->
<svg version="1.1" id="Слой_1" xmlns="http://www.w3.org/2000/svg" xmlns:xlink="http://www.w3.org/1999/xlink" x="0px" y="0px"
	 viewBox="0 0 48 48" style="enable-background:new 0 0 48 48;" xml:space="preserve">
<path d="M12.8,38c-2.4,0-4.5-0.9-6.2-2.6C4.9,33.7,4,31.7,4,29.2c0-2.3,0.8-4.3,2.4-6c1.6-1.8,3.6-2.7,6-2.8c0.4-3.1,1.7-5.6,4-7.5
	C18.6,11,21.1,10,24,10c3.2,0,6,1.2,8.3,3.5s3.4,5.1,3.4,8.5v2.6h1.2c1.9-0.1,3.6,0.5,5,1.8s2.1,2.9,2.1,4.9c0,1.8-0.7,3.4-2,4.8
	c-1.3,1.3-2.9,2-4.8,2L12.8,38L12.8,38z M12.8,36.5h24.5c1.4,0,2.7-0.5,3.7-1.5s1.5-2.2,1.5-3.7c0-1.4-0.5-2.6-1.5-3.7
	c-1-1-2.2-1.5-3.7-1.5h-3.1V22c0-2.8-1-5.3-2.9-7.3s-4.4-3.1-7.2-3.1c-2.4,0-4.7,0.8-6.6,2.4c-2,1.6-3.2,3.8-3.6,6.5
	c2.1,0.3,3.9,1.2,5.4,2.7s2.3,3.4,2.3,5.9H20c0-2-0.7-3.7-2.1-5s-3.1-2-5.2-2c-2,0-3.7,0.7-5.1,2.1s-2.1,3.1-2.1,5.2
	c0,2,0.7,3.7,2.1,5.1C9.1,35.8,10.8,36.5,12.8,36.5z"/>
</svg>
