<?xml version="1.0" encoding="utf-8"?>
<!-- Generator: Adobe Illustrator 26.3.1, SVG Export Plug-In . SVG Version: 6.00 Build 0)  -->
<svg version="1.1" id="Слой_1" xmlns="http://www.w3.org/2000/svg" xmlns:xlink="http://www.w3.org/1999/xlink" x="0px" y="0px"
	 viewBox="0 0 48 48" style="enable-background:new 0 0 48 48;" xml:space="preserve">
<path d="M24,39.9c-1.6,0-3-0.6-4.1-1.8c-1.2-1.2-1.7-2.6-1.6-4.1c-1.5,0.9-2.9,1.1-4.5,0.7s-2.7-1.4-3.5-2.8c-0.8-1.4-1-2.9-0.5-4.4
	c0.4-1.6,1.5-2.7,3.2-3.5c-1.7-0.7-2.8-1.9-3.2-3.5s-0.2-3.1,0.6-4.5s2-2.3,3.6-2.7c1.6-0.5,3-0.2,4.4,0.6c-0.1-1.6,0.5-3,1.7-4.2
	C21.1,8.6,22.4,8,24,8s3,0.6,4.1,1.8c1.2,1.2,1.7,2.6,1.6,4.2c1.4-0.9,2.8-1.1,4.4-0.6c1.5,0.5,2.7,1.4,3.5,2.7
	c0.8,1.4,1,2.9,0.6,4.5s-1.5,2.8-3.2,3.5c1.6,0.7,2.7,1.9,3.1,3.5c0.4,1.6,0.3,3.1-0.5,4.4c-0.8,1.4-2,2.3-3.5,2.8
	c-1.5,0.4-3,0.2-4.4-0.6c0.1,1.6-0.5,2.9-1.7,4.1C26.9,39.3,25.6,39.9,24,39.9z M24,38.4c1.6,0,2.8-0.7,3.6-2.1
	c0.8-1.4,0.8-2.7,0-4.1l-1.5-2.5c-0.4,0.1-0.8,0.2-1.1,0.3c-0.3,0.1-0.7,0.1-1,0.1s-0.6,0-0.9-0.1c-0.4,0-0.8,0-1.1-0.2l-1.5,2.4
	c-0.8,1.3-0.9,2.7-0.1,4.1C21.2,37.7,22.4,38.4,24,38.4z M11.6,31.2c0.8,1.4,2,2.1,3.5,2.1s2.7-0.6,3.6-2l1.5-2.3
	c-0.3-0.2-0.5-0.4-0.8-0.7c-0.3-0.3-0.5-0.6-0.7-0.9s-0.3-0.6-0.5-1c-0.1-0.4-0.2-0.8-0.3-1.2H15c-1.5,0-2.7,0.7-3.5,2
	C10.8,28.4,10.8,29.8,11.6,31.2z M29.2,31.3c0.8,1.4,2,2,3.6,2c1.5-0.1,2.7-0.8,3.5-2.1c0.8-1.4,0.8-2.7,0-4.1s-1.9-2-3.5-2H30
	c-0.1,0.5-0.2,0.9-0.3,1.2c-0.1,0.4-0.3,0.7-0.5,1s-0.4,0.7-0.6,0.9s-0.5,0.5-0.9,0.8C27.8,29,29.2,31.3,29.2,31.3z M18,22.9
	c0.1-0.4,0.2-0.7,0.3-1.1c0.1-0.4,0.3-0.7,0.5-1s0.4-0.7,0.7-1c0.2-0.3,0.5-0.6,0.8-0.9l-1.4-2.3c-0.9-1.4-2.1-2.1-3.7-2
	c-1.5,0-2.7,0.8-3.5,2.2s-0.8,2.7,0,4.1c0.8,1.3,1.9,2,3.4,2C15,22.9,18,22.9,18,22.9z M32.9,22.9c1.5,0,2.7-0.7,3.5-2
	c0.8-1.4,0.8-2.7,0-4.1s-1.9-2.1-3.5-2.2c-1.5,0-2.7,0.6-3.6,2L27.8,19c0.3,0.3,0.6,0.5,0.8,0.9c0.3,0.3,0.5,0.6,0.7,1
	c0.2,0.3,0.4,0.7,0.5,1s0.2,0.7,0.3,1.1C30,22.9,32.9,22.9,32.9,22.9z M22,18.2c0.4-0.1,0.7-0.2,1.1-0.3c0.3,0,0.6-0.1,1-0.1
	c0.3,0,0.6,0,0.9,0.1s0.7,0.2,1.1,0.3l1.5-2.5c0.8-1.3,0.9-2.7,0.1-4c-0.8-1.4-2-2.1-3.6-2.1s-2.8,0.7-3.6,2.1s-0.8,2.7,0,4
	C20.5,15.6,22,18.2,22,18.2z M22,18.2c0.4-0.1,0.7-0.2,1.1-0.3c0.3,0,0.6-0.1,1-0.1c0.3,0,0.6,0,0.9,0.1s0.7,0.2,1.1,0.3
	c-0.4-0.1-0.7-0.2-1.1-0.3c-0.3-0.1-0.6-0.1-0.9-0.1s-0.7,0-1,0.1C22.7,17.9,22.4,18,22,18.2z M18.7,27.3c-0.2-0.3-0.3-0.6-0.5-1
	c-0.1-0.4-0.2-0.8-0.3-1.2c0,0.5,0.1,0.9,0.3,1.2C18.4,26.7,18.5,27,18.7,27.3s0.4,0.6,0.7,0.9c0.3,0.3,0.5,0.5,0.8,0.7
	c-0.3-0.2-0.5-0.4-0.8-0.7C19.1,27.9,18.9,27.6,18.7,27.3z M18,22.9c0.1-0.4,0.2-0.7,0.3-1.1c0.1-0.4,0.3-0.7,0.5-1s0.4-0.7,0.7-1
	c0.2-0.3,0.5-0.6,0.8-0.9c-0.3,0.3-0.5,0.6-0.8,0.9c-0.2,0.3-0.5,0.6-0.7,1c-0.2,0.3-0.4,0.7-0.5,1C18.1,22.2,18,22.6,18,22.9z
	 M24,30.2c-0.3,0-0.6,0-1-0.1s-0.7-0.1-1-0.3c0.4,0.1,0.8,0.2,1.1,0.3C23.4,30.2,23.7,30.2,24,30.2s0.7,0,1-0.1s0.7-0.2,1.1-0.3
	c-0.4,0.1-0.8,0.2-1.1,0.3C24.6,30.2,24.3,30.2,24,30.2z M27.8,29c0.3-0.2,0.6-0.5,0.9-0.8c0.2-0.3,0.5-0.6,0.6-0.9
	c0.2-0.3,0.3-0.6,0.5-1c0.1-0.4,0.2-0.8,0.3-1.2c-0.1,0.5-0.2,0.9-0.3,1.2c-0.1,0.4-0.3,0.7-0.5,1s-0.4,0.7-0.6,0.9
	C28.4,28.5,28.1,28.7,27.8,29z M30,22.9c-0.1-0.4-0.2-0.8-0.3-1.1c-0.1-0.3-0.3-0.7-0.5-1s-0.4-0.7-0.7-1c-0.3-0.3-0.5-0.6-0.8-0.8
	c0.3,0.3,0.6,0.5,0.8,0.8c0.3,0.3,0.5,0.6,0.7,1c0.2,0.3,0.4,0.7,0.5,1C29.8,22.2,29.9,22.5,30,22.9z M24,28.6
	c1.3,0,2.3-0.5,3.3-1.4c0.9-0.9,1.4-2,1.4-3.3s-0.5-2.3-1.4-3.3c-0.9-0.9-2-1.4-3.3-1.4s-2.3,0.5-3.3,1.4c-0.9,0.9-1.4,2-1.4,3.3
	s0.5,2.3,1.4,3.3C21.7,28.2,22.7,28.6,24,28.6z"/>
</svg>
