<?xml version="1.0" encoding="utf-8"?>
<!-- Generator: Adobe Illustrator 26.3.1, SVG Export Plug-In . SVG Version: 6.00 Build 0)  -->
<svg version="1.1" id="Слой_1" xmlns="http://www.w3.org/2000/svg" xmlns:xlink="http://www.w3.org/1999/xlink" x="0px" y="0px"
	 viewBox="0 0 48 48" style="enable-background:new 0 0 48 48;" xml:space="preserve">
<path d="M29.3,40.1l-4.6-4.6c0,1.5-0.4,2.7-1.4,3.7s-2.2,1.5-3.7,1.5s-2.8-0.5-3.7-1.5c-1-1-1.5-2.2-1.5-3.7s0.5-2.8,1.5-3.7
	c1-1,2.2-1.5,3.7-1.5c0.7,0,1.3,0.1,1.9,0.4c0.6,0.2,1.2,0.6,1.7,1l-9.2-14l10-10l10,10.1l-9.1,13.9v1.8l5.5,5.5L29.3,40.1z
	 M19.5,39.2c1,0,1.9-0.3,2.6-1s1-1.6,1-2.6c0-1.1-0.3-1.9-1-2.6c-0.7-0.7-1.6-1-2.6-1c-1.1,0-1.9,0.3-2.6,1s-1,1.6-1,2.6
	s0.3,1.9,1,2.6C17.6,38.9,18.5,39.2,19.5,39.2z M24,30.3l8-12.4l-8-8l-8,8L24,30.3z"/>
</svg>
