<?xml version="1.0" encoding="utf-8"?>
<!-- Generator: Adobe Illustrator 26.3.1, SVG Export Plug-In . SVG Version: 6.00 Build 0)  -->
<svg version="1.1" id="Слой_1" xmlns="http://www.w3.org/2000/svg" xmlns:xlink="http://www.w3.org/1999/xlink" x="0px" y="0px"
	 viewBox="0 0 48 48" style="enable-background:new 0 0 48 48;" xml:space="preserve">
<path d="M23.7,31.8h1.1v-1.6c0.9-0.1,1.7-0.5,2.4-1.1c0.6-0.6,1-1.4,1-2.4c0-0.8-0.3-1.5-1-2.1s-1.4-1-2.3-1.4v-4
	c0.4,0.1,0.7,0.2,1,0.5c0.3,0.2,0.5,0.5,0.6,0.8l1.4-0.6c-0.3-0.6-0.7-1.1-1.2-1.5s-1.1-0.6-1.8-0.8V16h-1.1v1.5
	c-0.9,0.1-1.7,0.4-2.4,1c-0.6,0.6-1,1.3-1,2.2c0,0.8,0.3,1.6,1,2.2s1.5,1.1,2.3,1.4v4.2c-0.6-0.1-1.2-0.4-1.6-0.8s-0.7-0.8-0.8-1.4
	l-1.4,0.6c0.3,0.8,0.7,1.5,1.4,2.1c0.7,0.5,1.5,0.9,2.4,1C23.7,30.3,23.7,31.8,23.7,31.8z M24.8,28.7v-3.8c0.5,0.2,0.9,0.5,1.2,0.8
	c0.4,0.3,0.5,0.7,0.5,1.2c0,0.6-0.2,1-0.5,1.3C25.8,28.4,25.3,28.6,24.8,28.7z M23.7,22.9c-0.4-0.2-0.9-0.5-1.2-0.8
	c-0.4-0.3-0.6-0.7-0.6-1.2s0.2-0.9,0.6-1.2c0.4-0.2,0.8-0.4,1.3-0.5C23.7,19.3,23.7,22.9,23.7,22.9z M16,36c-3.3,0-6.2-1.2-8.5-3.5
	S4,27.3,4,24s1.2-6.2,3.5-8.5S12.7,12,16,12h16c3.3,0,6.2,1.2,8.5,3.5S44,20.7,44,24s-1.2,6.2-3.5,8.5S35.3,36,32,36H16z M16,34.5
	h16c2.9,0,5.4-1,7.4-3.1c2-2,3.1-4.5,3.1-7.4s-1-5.4-3.1-7.4c-2-2-4.5-3.1-7.4-3.1H16c-2.9,0-5.4,1-7.4,3.1c-2,2-3.1,4.5-3.1,7.4
	s1,5.4,3.1,7.4C10.6,33.4,13.1,34.5,16,34.5z"/>
</svg>
