<?xml version="1.0" encoding="utf-8"?>
<!-- Generator: Adobe Illustrator 26.3.1, SVG Export Plug-In . SVG Version: 6.00 Build 0)  -->
<svg version="1.1" id="Слой_1" xmlns="http://www.w3.org/2000/svg" xmlns:xlink="http://www.w3.org/1999/xlink" x="0px" y="0px"
	 viewBox="0 0 48 48" style="enable-background:new 0 0 48 48;" xml:space="preserve">
<path d="M32.3,40.5l1.5,1.5h-21c-0.8,0-1.4-0.3-2-0.8c-0.5-0.5-0.8-1.2-0.8-2V8.8c0-0.8,0.3-1.4,0.8-2C11.3,6.3,12,6,12.8,6h16.1
	L38,16.7v22.2c0,0.2-0.1,0.5-0.2,0.7c-0.1,0.3-0.3,0.5-0.5,0.7l-9.7-9.8c-0.6,0.4-1.2,0.7-1.7,0.9c-0.6,0.2-1.1,0.2-1.8,0.2
	c-1.6,0-2.9-0.6-4-1.7s-1.7-2.4-1.7-4s0.6-2.9,1.7-4s2.4-1.7,4-1.7s2.9,0.6,4,1.7s1.7,2.4,1.7,4c0,0.7-0.1,1.3-0.3,1.9
	c-0.2,0.6-0.5,1.1-0.9,1.6l7.9,8V17.2l-8.2-9.6H12.8c-0.3,0-0.6,0.1-0.8,0.4c-0.3,0.3-0.4,0.5-0.4,0.8v30.5c0,0.3,0.1,0.6,0.4,0.8
	s0.5,0.4,0.8,0.4H32.3z M24,30.2c1.2,0,2.2-0.4,3-1.3s1.2-1.9,1.2-3.1c0-1.1-0.4-2-1.2-2.8c-0.8-0.8-1.8-1.1-2.9-1.1
	S22,22.3,21.2,23S20,24.7,20,25.8c0,1.2,0.4,2.2,1.2,3.1C21.8,29.7,22.8,30.2,24,30.2z"/>
</svg>
