<?xml version="1.0" encoding="utf-8"?>
<!-- Generator: Adobe Illustrator 26.3.1, SVG Export Plug-In . SVG Version: 6.00 Build 0)  -->
<svg version="1.1" id="Слой_1" xmlns="http://www.w3.org/2000/svg" xmlns:xlink="http://www.w3.org/1999/xlink" x="0px" y="0px"
	 viewBox="0 0 48 48" style="enable-background:new 0 0 48 48;" xml:space="preserve">
<path d="M21,36.2c0.4,0.3,0.9,0.6,1.4,0.8s1,0.2,1.5,0.2c1,0,1.9-0.3,2.7-1c0.8-0.6,1.3-1.5,1.4-2.7c0.2-1.6-0.3-2.8-1.5-3.5
	c-1.2-0.8-2.1-1.8-2.6-3c-0.2,0.5-0.3,0.9-0.3,1.3s0,0.8,0.2,1.3c0.1,0.6,0.2,1.2,0.4,1.7c0.1,0.5,0.2,1,0,1.7
	c-0.2,0.6-0.5,1.3-1.1,1.9C22.5,35.5,21.8,35.9,21,36.2z M6,42V6h36v36H6z M24,38.9c1.7,0,3.2-0.6,4.4-1.8c1.2-1.2,1.8-2.6,1.8-4.4
	c0-0.8-0.2-1.5-0.5-2.1s-0.8-1.1-1.4-1.4c-1.3-0.9-2.4-1.9-3.2-3c-0.8-1.1-1.5-2.2-1.9-3.2c-1.6,1.2-2.9,2.5-3.9,4.1
	c-0.9,1.6-1.4,3.4-1.4,5.5c0,1.7,0.6,3.2,1.8,4.4C20.9,38.3,22.4,38.9,24,38.9z M7.5,40.5h5.8V39h6.1c-1-0.7-1.8-1.6-2.3-2.8
	c-0.6-1.1-0.9-2.3-0.9-3.5c0-1.4,0.2-2.7,0.6-3.9c0.4-1.2,1-2.3,1.6-3.3c0.7-1,1.5-1.9,2.4-2.7c0.9-0.8,1.8-1.5,2.8-2.1
	c0.5,1.6,1.2,2.9,2.1,4s2,2.3,3.4,3.4c0.9,0.7,1.5,1.4,1.8,2.2c0.4,0.8,0.6,1.6,0.6,2.5c0,1.1-0.2,2.3-0.7,3.4
	c-0.5,1.1-1.3,2-2.4,2.8h6v1.5h5.8v-33H7.5V40.5z"/>
</svg>
