<?xml version="1.0" encoding="utf-8"?>
<!-- Generator: Adobe Illustrator 26.3.1, SVG Export Plug-In . SVG Version: 6.00 Build 0)  -->
<svg version="1.1" id="Слой_1" xmlns="http://www.w3.org/2000/svg" xmlns:xlink="http://www.w3.org/1999/xlink" x="0px" y="0px"
	 viewBox="0 0 48 48" style="enable-background:new 0 0 48 48;" xml:space="preserve">
<path d="M19.2,41c-0.8,0-1.6-0.3-2.1-0.9c-0.6-0.6-0.9-1.3-0.9-2.1v-1h15.7v1c0,0.8-0.3,1.6-0.9,2.1c-0.6,0.6-1.3,0.9-2.1,0.9H19.2z
	 M16.2,35.2V24.8h15.7v10.5C31.8,35.2,16.2,35.2,16.2,35.2z M16.2,23c0.3-1.3,1-2.4,2-3.5s2.4-1.8,4.2-2.2v-0.4
	c-0.5-0.2-1-0.4-1.4-0.8s-0.7-0.7-0.9-1.1l-6-1.7v-0.9l6-1.6C20.4,10,21,9.4,21.7,9s1.5-0.6,2.3-0.6c0.5,0,1.1,0.1,1.5,0.3
	c0.5,0,1,0.3,1.4,0.6l5-1.3v9.5l-4.7-1.6c-0.2,0.2-0.4,0.4-0.7,0.5c-0.2,0.1-0.5,0.3-0.8,0.4v0.4c1.6,0.4,3,1.1,4.1,2.2
	s1.8,2.3,2.1,3.6H16.2z M24,15.2c0.7,0,1.2-0.2,1.7-0.7s0.7-1.1,0.7-1.7c0-0.7-0.2-1.3-0.7-1.8s-1.1-0.7-1.7-0.7
	c-0.7,0-1.3,0.2-1.7,0.7c-0.5,0.5-0.7,1.1-0.7,1.8s0.2,1.3,0.7,1.8C22.7,15,23.3,15.2,24,15.2z"/>
</svg>
