<?xml version="1.0" encoding="utf-8"?>
<!-- Generator: Adobe Illustrator 26.3.1, SVG Export Plug-In . SVG Version: 6.00 Build 0)  -->
<svg version="1.1" id="Слой_1" xmlns="http://www.w3.org/2000/svg" xmlns:xlink="http://www.w3.org/1999/xlink" x="0px" y="0px"
	 viewBox="0 0 48 48" style="enable-background:new 0 0 48 48;" xml:space="preserve">
<path d="M12.8,42c-0.8,0-1.4-0.3-2-0.8c-0.5-0.5-0.8-1.2-0.8-2V8.8c0-0.8,0.3-1.4,0.8-2C11.3,6.3,12,6,12.8,6h22.5
	c0.8,0,1.4,0.3,2,0.8C37.7,7.3,38,8,38,8.8v30.5c0,0.8-0.3,1.4-0.8,2c-0.5,0.5-1.2,0.8-2,0.8L12.8,42L12.8,42z M36.5,39.2V8.8
	c0-0.3-0.1-0.6-0.4-0.8c-0.3-0.3-0.5-0.4-0.8-0.4H12.8c-0.3,0-0.6,0.1-0.8,0.4c-0.3,0.3-0.4,0.5-0.4,0.8v30.5c0,0.3,0.1,0.6,0.4,0.8
	s0.5,0.4,0.8,0.4h22.5c0.3,0,0.6-0.1,0.8-0.4C36.3,39.8,36.5,39.5,36.5,39.2z M36.5,7.5h-25H36.5z M19.5,17.1h9.1L24,12.5L19.5,17.1
	z M24,35.5l4.5-4.5h-9.1L24,35.5z"/>
</svg>
