<?xml version="1.0" encoding="utf-8"?>
<!-- Generator: Adobe Illustrator 26.3.1, SVG Export Plug-In . SVG Version: 6.00 Build 0)  -->
<svg version="1.1" id="Слой_1" xmlns="http://www.w3.org/2000/svg" xmlns:xlink="http://www.w3.org/1999/xlink" x="0px" y="0px"
	 viewBox="0 0 48 48" style="enable-background:new 0 0 48 48;" xml:space="preserve">
<path d="M19.8,42l-1.9-6.2c-0.6-0.2-1-0.6-1.4-1.1c-0.3-0.5-0.5-1.1-0.5-1.8V15.1c0-0.7,0.2-1.3,0.6-1.8s0.8-0.9,1.4-1.1L19.8,6h8.5
	l1.8,6.2c0.6,0.2,1,0.6,1.4,1.2c0.4,0.5,0.5,1.1,0.5,1.8V33c0,0.7-0.2,1.3-0.5,1.8c-0.4,0.5-0.8,0.9-1.4,1.1L28.2,42H19.8z
	 M20.8,40.5h6.3l1.3-4.6h-8.9C19.5,35.9,20.8,40.5,20.8,40.5z M18.9,34.3h10.2c0.4,0,0.7-0.1,1-0.4s0.4-0.6,0.4-1V15
	c0-0.4-0.1-0.7-0.4-1s-0.6-0.4-1-0.4H18.9c-0.4,0-0.7,0.1-1,0.4c-0.3,0.3-0.4,0.6-0.4,1v18c0,0.4,0.1,0.7,0.4,1
	C18.2,34.2,18.5,34.3,18.9,34.3z M19.6,12.1h8.8l-1.2-4.6h-6.3L19.6,12.1z"/>
</svg>
