<?xml version="1.0" encoding="utf-8"?>
<!-- Generator: Adobe Illustrator 26.3.1, SVG Export Plug-In . SVG Version: 6.00 Build 0)  -->
<svg version="1.1" id="Слой_1" xmlns="http://www.w3.org/2000/svg" xmlns:xlink="http://www.w3.org/1999/xlink" x="0px" y="0px"
	 viewBox="0 0 48 48" style="enable-background:new 0 0 48 48;" xml:space="preserve">
<path d="M27.5,42.8L26,41.3l7.1-7.1L13.8,14.9L6.7,22l-1.5-1.5l2.9-2.9l-1.8-1.8l4.2-4.2L8,9.1L9.1,8l2.5,2.5l4.2-4.2l1.8,1.8
	l2.9-2.9L22,6.7l-7.1,7.1l19.3,19.3l7.1-7.1l1.5,1.5l-2.9,2.9l1.8,1.8l-4.3,4.3l2.5,2.4L38.8,40l-2.4-2.5l-4.2,4.2l-1.8-1.8
	L27.5,42.8z"/>
</svg>
