<?xml version="1.0" encoding="utf-8"?>
<!-- Generator: Adobe Illustrator 26.3.1, SVG Export Plug-In . SVG Version: 6.00 Build 0)  -->
<svg version="1.1" id="Слой_1" xmlns="http://www.w3.org/2000/svg" xmlns:xlink="http://www.w3.org/1999/xlink" x="0px" y="0px"
	 viewBox="0 0 48 48" style="enable-background:new 0 0 48 48;" xml:space="preserve">
<path d="M12,41V10h10.7c0,0.2-0.1,0.5-0.1,0.8s0,0.5,0,0.8h-9.1v12.2h15.1l0.9,4.1h6.9v-4.6c0.2,0,0.5-0.1,0.8-0.1
	c0.3-0.1,0.5-0.1,0.8-0.2v6.5h-9.8l-0.9-4.1H13.5V41H12z M33.4,15.1l6.7-6.8l-0.9-0.9l-5.8,5.9l-3.1-3.1l-0.9,0.9
	C29.4,11.1,33.4,15.1,33.4,15.1z M34.8,3.3c2.2,0,4,0.8,5.6,2.3c1.5,1.5,2.3,3.4,2.3,5.6s-0.8,4-2.3,5.6c-1.5,1.5-3.4,2.3-5.6,2.3
	s-4-0.8-5.6-2.3c-1.5-1.5-2.3-3.4-2.3-5.6s0.8-4,2.3-5.6C30.7,4.1,32.6,3.3,34.8,3.3z"/>
</svg>
