<?xml version="1.0" encoding="utf-8"?>
<!-- Generator: Adobe Illustrator 26.3.1, SVG Export Plug-In . SVG Version: 6.00 Build 0)  -->
<svg version="1.1" id="Слой_1" xmlns="http://www.w3.org/2000/svg" xmlns:xlink="http://www.w3.org/1999/xlink" x="0px" y="0px"
	 viewBox="0 0 48 48" style="enable-background:new 0 0 48 48;" xml:space="preserve">
<path d="M24,42c-2.5,0-4.9-0.5-7-1.4c-2.2-0.9-4.1-2.2-5.7-3.8s-2.9-3.5-3.8-5.7C6.5,28.9,6,26.5,6,24s0.5-4.8,1.4-7
	s2.2-4.1,3.8-5.7s3.5-2.9,5.7-3.8C19.1,6.5,21.5,6,24,6s4.8,0.5,7,1.4s4.1,2.2,5.7,3.8c1.6,1.6,2.9,3.5,3.8,5.7
	c0.9,2.2,1.4,4.5,1.4,7s-0.5,4.9-1.4,7c-0.9,2.2-2.2,4.1-3.8,5.7s-3.5,2.9-5.7,3.8C28.8,41.5,26.5,42,24,42z M14.7,21.4l2.8-2.9
	l2.8,2.9l1.1-1.1l-2.8-2.8l2.8-2.8l-1.1-1.1l-2.8,2.9l-2.8-2.9l-1.1,1.1l2.9,2.8l-2.9,2.8L14.7,21.4z M24,40.5
	c4.6,0,8.5-1.6,11.7-4.8s4.8-7.1,4.8-11.7c0-2.3-0.4-4.4-1.3-6.4c-0.9-2-2-3.7-3.5-5.2L12.3,35.7c1.5,1.5,3.3,2.7,5.2,3.5
	C19.6,40,21.7,40.5,24,40.5z M28.1,34.2l-3.8-3.8l1.1-1.1l2.7,2.7l5-5l1.1,1.1L28.1,34.2z"/>
</svg>
