<?xml version="1.0" encoding="utf-8"?>
<!-- Generator: Adobe Illustrator 26.3.1, SVG Export Plug-In . SVG Version: 6.00 Build 0)  -->
<svg version="1.1" id="Слой_1" xmlns="http://www.w3.org/2000/svg" xmlns:xlink="http://www.w3.org/1999/xlink" x="0px" y="0px"
	 viewBox="0 0 48 48" style="enable-background:new 0 0 48 48;" xml:space="preserve">
<path d="M18.2,42V21.3L14,15V6h20v9l-4.2,6.3V42H18.2z M24,30.3c-0.5,0-0.9-0.2-1.3-0.5s-0.5-0.8-0.5-1.3s0.2-0.9,0.5-1.3
	s0.8-0.5,1.3-0.5s0.9,0.2,1.3,0.5s0.5,0.8,0.5,1.3s-0.2,0.9-0.5,1.3C24.9,30.1,24.5,30.3,24,30.3z M15.5,10.9h16.9V7.5H15.5V10.9z
	 M32.5,12.5h-17v2.2l4.2,6.3v19.5h8.5V20.9l4.2-6.3L32.5,12.5L32.5,12.5z"/>
</svg>
