<?xml version="1.0" encoding="utf-8"?>
<!-- Generator: Adobe Illustrator 26.3.1, SVG Export Plug-In . SVG Version: 6.00 Build 0)  -->
<svg version="1.1" id="Слой_1" xmlns="http://www.w3.org/2000/svg" xmlns:xlink="http://www.w3.org/1999/xlink" x="0px" y="0px"
	 viewBox="0 0 48 48" style="enable-background:new 0 0 48 48;" xml:space="preserve">
<path d="M4,42V26.8h9.5V42H4z M19.2,42V26.8h9.5V42H19.2z M34.5,42V26.8H44V42H34.5z M20.8,40.5h6.5V28.4h-6.5V40.5z M4,21.2V6h9.5
	v15.2H4z M19.2,21.2V6h9.5v15.2C28.8,21.2,19.2,21.2,19.2,21.2z M34.5,21.2V6H44v15.2H34.5z M5.5,19.6H12V7.5H5.5V19.6z M36.4,19.6
	h6.1V7.5h-6.1V19.6z"/>
</svg>
