<?xml version="1.0" encoding="utf-8"?>
<!-- Generator: Adobe Illustrator 26.3.1, SVG Export Plug-In . SVG Version: 6.00 Build 0)  -->
<svg version="1.1" id="Слой_1" xmlns="http://www.w3.org/2000/svg" xmlns:xlink="http://www.w3.org/1999/xlink" x="0px" y="0px"
	 viewBox="0 0 48 48" style="enable-background:new 0 0 48 48;" xml:space="preserve">
<path d="M14.9,33.4c0-0.8,0.3-1.5,0.8-2.1c0.6-0.6,1.2-0.8,2-0.8c0.8,0,1.5,0.3,2.1,0.8c0.6,0.6,0.8,1.2,0.8,2.1s-0.3,1.5-0.8,2
	c-0.6,0.5-1.2,0.8-2.1,0.8c-0.8,0-1.5-0.3-2-0.8C15.2,34.9,14.9,34.2,14.9,33.4z M24,30.6h11.2c0.8,0,1.4,0.3,2,0.8
	c0.5,0.5,0.8,1.2,0.8,1.9V45h-1.5v-5.2h-25V45H10V28.2h1.5v10.1H24V30.6z M31.6,26.1l-5.9-10.8l-5.4,5.4l0.5,3.5l-1.5,1.4l-2.6-4.4
	l-4.6-2.5l1.5-1.4l3.6,0.5l5.5-5.5l-11-5.8l2-1.9L27.2,8l5.4-5.4C33,2.2,33.5,2,34.1,2s1.1,0.2,1.6,0.6C36,3,36.2,3.5,36.2,4
	c0,0.6-0.2,1.1-0.6,1.5l-5.4,5.4l3.4,13.3C33.6,24.2,31.6,26.1,31.6,26.1z M36.5,38.2v-4.9c0-0.3-0.1-0.6-0.3-0.9
	C36,32.2,35.7,32,35.3,32h-9.7v6.1h10.9V38.2z M25.5,38.2v-6.1V38.2z"/>
</svg>
