<?xml version="1.0" encoding="utf-8"?>
<!-- Generator: Adobe Illustrator 26.3.1, SVG Export Plug-In . SVG Version: 6.00 Build 0)  -->
<svg version="1.1" id="Слой_1" xmlns="http://www.w3.org/2000/svg" xmlns:xlink="http://www.w3.org/1999/xlink" x="0px" y="0px"
	 viewBox="0 0 48 48" style="enable-background:new 0 0 48 48;" xml:space="preserve">
<path d="M27.9,24c-0.8,0-1.4-0.3-1.9-0.8s-0.8-1.2-0.8-2v-8.5c0-0.8,0.3-1.4,0.8-2c0.5-0.5,1.2-0.8,1.9-0.8h3.6
	c0.7,0,1.3,0.3,1.8,0.8s0.7,1.2,0.7,2v8.5c0,0.8-0.2,1.4-0.7,2c-0.5,0.5-1.1,0.8-1.8,0.8H27.9z M27.7,22.5h4c0.2,0,0.4-0.1,0.5-0.3
	c0.1-0.2,0.2-0.4,0.2-0.7v-8.9c0-0.3-0.1-0.5-0.2-0.7c-0.1-0.2-0.3-0.3-0.5-0.3h-4c-0.3,0-0.5,0.1-0.7,0.3s-0.3,0.4-0.3,0.7v8.9
	c0,0.3,0.1,0.5,0.3,0.7C27.2,22.4,27.4,22.5,27.7,22.5z M18.8,34c-0.5,0-0.9-0.1-1.3-0.4c-0.4-0.3-0.6-0.6-0.8-1.1L12,16v-6h1.5v5.7
	l4.9,16.8H34V34H18.8z M16.8,40v-1.5H34V40H16.8z M27.7,11.5h-0.9h5.7H27.7z"/>
</svg>
