<?xml version="1.0" encoding="utf-8"?>
<!-- Generator: Adobe Illustrator 26.3.1, SVG Export Plug-In . SVG Version: 6.00 Build 0)  -->
<svg version="1.1" id="Слой_1" xmlns="http://www.w3.org/2000/svg" xmlns:xlink="http://www.w3.org/1999/xlink" x="0px" y="0px"
	 viewBox="0 0 48 48" style="enable-background:new 0 0 48 48;" xml:space="preserve">
<path d="M14.8,33.2l-5-2.8l0.9-0.9l4.6,0.7l8.8-8.8l-14.9-8l1.2-1.2l18.3,4.7l5-5.1c0.3-0.3,0.7-0.5,1.2-0.5s0.9,0.2,1.2,0.5
	c0.3,0.4,0.5,0.8,0.5,1.3s-0.2,0.9-0.5,1.2l-4.9,5.1l4.6,18.3l-1.2,1.2L26.5,24l-8.7,8.7l0.7,4.6l-1,1
	C17.6,38.2,14.8,33.2,14.8,33.2z"/>
</svg>
