<?xml version="1.0" encoding="utf-8"?>
<!-- Generator: Adobe Illustrator 26.3.1, SVG Export Plug-In . SVG Version: 6.00 Build 0)  -->
<svg version="1.1" id="Слой_1" xmlns="http://www.w3.org/2000/svg" xmlns:xlink="http://www.w3.org/1999/xlink" x="0px" y="0px"
	 viewBox="0 0 48 48" style="enable-background:new 0 0 48 48;" xml:space="preserve">
<path d="M24,35.5c2.7,0,5-1.1,6.7-3.2s2.6-4.6,2.7-7.4l2.3,2.2l1.1-1.1l-4.2-4.1L28.5,26l1.1,1.1l2.2-2.2c-0.1,2.4-0.9,4.5-2.4,6.4
	C28.1,33.1,26.3,34,24,34c-0.4,0-0.8,0-1.2-0.1c-0.4-0.1-0.8-0.2-1.2-0.3l-1.2,1.2c0.6,0.2,1.2,0.4,1.8,0.6
	C22.8,35.5,23.4,35.5,24,35.5z M15.4,30.3l4.1-4.1l-1.1-1.1l-2.2,2.2c0.1-2.4,0.9-4.5,2.3-6.4c1.4-1.8,3.3-2.8,5.5-2.8
	c0.4,0,0.8,0,1.2,0.1c0.4,0.1,0.8,0.2,1.2,0.3l1.2-1.2c-0.6-0.2-1.1-0.4-1.7-0.6c-0.6-0.1-1.2-0.2-1.8-0.2c-2.7,0-5,1.1-6.7,3.2
	s-2.6,4.6-2.7,7.4l-2.3-2.2L11.3,26L15.4,30.3z M8.8,40c-0.8,0-1.4-0.3-2-0.8C6.3,38.7,6,38,6,37.2V14.9c0-0.8,0.3-1.4,0.8-2
	c0.5-0.5,1.2-0.8,2-0.8h6.4L18.8,8h10.3l3.7,4.2h6.4c0.8,0,1.4,0.3,2,0.8c0.5,0.5,0.8,1.2,0.8,2v22.3c0,0.8-0.3,1.4-0.8,2
	c-0.5,0.5-1.2,0.8-2,0.8C39.2,40,8.8,40,8.8,40z M8.8,38.5h30.5c0.4,0,0.7-0.1,0.9-0.3s0.3-0.5,0.3-0.9V14.9c0-0.3-0.1-0.6-0.3-0.9
	c-0.2-0.2-0.5-0.4-0.9-0.4h-7.1l-3.7-4.2h-8.9l-3.7,4.2H8.8c-0.4,0-0.7,0.1-0.9,0.4c-0.2,0.2-0.3,0.5-0.3,0.9v22.3
	c0,0.4,0.1,0.7,0.3,0.9S8.4,38.5,8.8,38.5z"/>
</svg>
