<?xml version="1.0" encoding="utf-8"?>
<!-- Generator: Adobe Illustrator 26.3.1, SVG Export Plug-In . SVG Version: 6.00 Build 0)  -->
<svg version="1.1" id="Слой_1" xmlns="http://www.w3.org/2000/svg" xmlns:xlink="http://www.w3.org/1999/xlink" x="0px" y="0px"
	 viewBox="0 0 48 48" style="enable-background:new 0 0 48 48;" xml:space="preserve">
<path d="M24,43c-4.3,0-8.1-1.3-11.4-3.8s-5.6-5.9-6.7-10h1.5c1.1,3.7,3.2,6.6,6.3,8.9c3.1,2.2,6.5,3.4,10.4,3.4c3.6,0,6.8-1,9.6-3
	c2.9-2,5.1-4.5,6.9-7.6h-7.1v-1.6H43V39h-1.5v-7c-1.8,3.3-4.2,5.9-7.3,7.9C31.1,42,27.7,43,24,43z M24,27.5c-1,0-1.8-0.3-2.5-1
	s-1-1.5-1-2.5s0.3-1.8,1-2.5s1.5-1,2.5-1s1.8,0.3,2.5,1s1,1.5,1,2.5s-0.3,1.8-1,2.5C25.9,27.2,25,27.5,24,27.5z M5,18.7V9h1.5v6.9
	c1.8-3.3,4.2-5.9,7.3-7.9S20.3,5,24,5c4.2,0,8.1,1.3,11.4,3.8c3.4,2.5,5.6,5.8,6.8,9.9h-1.6c-1.1-3.7-3.2-6.6-6.3-8.8
	c-3-2.3-6.4-3.4-10.3-3.4c-3.5,0-6.7,1-9.6,3S9.2,14,7.6,17.1h7.1v1.6C14.6,18.7,5,18.7,5,18.7z"/>
</svg>
