<?xml version="1.0" encoding="utf-8"?>
<!-- Generator: Adobe Illustrator 26.3.1, SVG Export Plug-In . SVG Version: 6.00 Build 0)  -->
<svg version="1.1" id="Слой_1" xmlns="http://www.w3.org/2000/svg" xmlns:xlink="http://www.w3.org/1999/xlink" x="0px" y="0px"
	 viewBox="0 0 48 48" style="enable-background:new 0 0 48 48;" xml:space="preserve">
<path d="M5,41v-1.6c1.1-0.3,1.9-0.6,2.4-1.1c0.6-0.5,1.6-0.8,3.1-0.8c1.6,0,2.8,0.3,3.5,1s1.8,1,3.2,1s2.5-0.3,3.2-1s1.9-1,3.5-1
	s2.8,0.3,3.6,1c0.8,0.7,1.8,1,3.2,1c1.4,0,2.5-0.4,3.2-1.1c0.7-0.7,1.9-1.1,3.5-1.1c1.5,0,2.5,0.3,3.1,0.9c0.6,0.6,1.4,1,2.4,1.2V41
	c-1-0.2-1.9-0.6-2.7-1.2c-0.7-0.6-1.7-1-2.8-1c-1.3,0-2.4,0.4-3.2,1.1c-0.8,0.7-2,1.1-3.6,1.1s-2.8-0.3-3.6-1c-0.8-0.7-1.8-1-3.1-1
	c-1.3,0-2.4,0.3-3.1,1c-0.8,0.7-2,1-3.6,1s-2.8-0.3-3.6-1s-1.8-1-3.1-1c-1.2,0-2.1,0.3-2.9,0.8C6.9,40.4,6,40.8,5,41z M17.3,33.8
	c-1.6,0-2.8-0.3-3.6-1s-1.8-1-3.1-1c-1.2,0-2.1,0.3-2.9,0.8C6.9,33.2,6,33.5,5,33.7v-1.6c1.1-0.3,1.9-0.6,2.5-1.1s1.6-0.8,3.1-0.8
	c0.6,0,1.3,0.1,1.9,0.2c0.6,0.2,1.4,0.5,2.3,1l-3.2-11.9l-3.2,3.9l-1.2-0.9l13-16.1l19.4,7.4L39,15.2l-4.7-1.8l4.4,16.7
	c0.8,0.1,1.5,0.4,2.2,1c0.7,0.5,1.4,0.9,2.1,1v1.5c-1-0.2-1.9-0.5-2.6-1.2c-0.7-0.6-1.7-0.9-2.9-0.9c-1.3,0-2.4,0.4-3.1,1.1
	c-0.8,0.7-2,1.1-3.6,1.1s-2.8-0.3-3.6-1c-0.8-0.7-1.8-1-3.1-1c-1.3,0-2.4,0.3-3.1,1C20.1,33.4,18.9,33.8,17.3,33.8z M17.3,32.2
	c1.2,0,2.1-0.3,2.8-0.8c0.7-0.5,1.6-0.9,2.7-1.1l-2.1-7.8l7.3-1.9l3,11.6c1.2,0,2.2-0.3,2.9-1.1c0.7-0.7,1.8-1.1,3.2-1.1l-4.6-17.2
	L20.7,8.2l-7.9,9.9l3.8,14.1c0.2,0,0.3,0.1,0.4,0.1C17.1,32.2,17.2,32.2,17.3,32.2z"/>
</svg>
