<?xml version="1.0" encoding="utf-8"?>
<!-- Generator: Adobe Illustrator 26.3.1, SVG Export Plug-In . SVG Version: 6.00 Build 0)  -->
<svg version="1.1" id="Слой_1" xmlns="http://www.w3.org/2000/svg" xmlns:xlink="http://www.w3.org/1999/xlink" x="0px" y="0px"
	 viewBox="0 0 48 48" style="enable-background:new 0 0 48 48;" xml:space="preserve">
<path d="M23.2,38V22h-9.3c-0.5,0-0.8-0.2-1.1-0.6s-0.4-0.8-0.2-1.2l3.2-10.3c0.2-0.6,0.5-1,1-1.4s1-0.5,1.6-0.5h11.2
	c0.6,0,1.2,0.2,1.6,0.5c0.5,0.4,0.8,0.8,1,1.4l3.2,10.3c0.1,0.4,0.1,0.9-0.2,1.2c-0.3,0.4-0.7,0.6-1.1,0.6h-9.3v16H23.2z M14.1,20.5
	h19.8l-3.1-10c-0.1-0.3-0.3-0.5-0.5-0.6c-0.2-0.2-0.5-0.2-0.7-0.2H18.4c-0.3,0-0.5,0.1-0.8,0.2c-0.2,0.2-0.4,0.4-0.4,0.6
	C17.2,10.4,14.1,20.5,14.1,20.5z M17.2,42v-1.5h13.5V42C30.8,42,17.2,42,17.2,42z"/>
</svg>
