<?xml version="1.0" encoding="utf-8"?>
<!-- Generator: Adobe Illustrator 26.3.1, SVG Export Plug-In . SVG Version: 6.00 Build 0)  -->
<svg version="1.1" id="Слой_1" xmlns="http://www.w3.org/2000/svg" xmlns:xlink="http://www.w3.org/1999/xlink" x="0px" y="0px"
	 viewBox="0 0 48 48" style="enable-background:new 0 0 48 48;" xml:space="preserve">
<path d="M30.9,38v-3.8h-7.6v-9.4h-6.1v3.8H6v-9.1h11.1v3.8h6.1v-9.5h7.6V10H42v9.1H30.9v-3.8h-6.1v17.4h6.1v-3.8H42V38H30.9z
	 M32.4,36.5h8.1v-6h-8.1C32.4,30.4,32.4,36.5,32.4,36.5z M7.5,27h8v-6h-8V27z M32.4,17.6h8.1v-6.1h-8.1V17.6z M32.4,36.5v-6V36.5z
	 M15.6,27v-6V27z M32.4,17.6v-6.1V17.6z"/>
</svg>
