<?xml version="1.0" encoding="utf-8"?>
<!-- Generator: Adobe Illustrator 26.3.1, SVG Export Plug-In . SVG Version: 6.00 Build 0)  -->
<svg version="1.1" id="Слой_1" xmlns="http://www.w3.org/2000/svg" xmlns:xlink="http://www.w3.org/1999/xlink" x="0px" y="0px"
	 viewBox="0 0 48 48" style="enable-background:new 0 0 48 48;" xml:space="preserve">
<path d="M7.4,25.3v11.2v-25V25.3z M28.9,40.9c0.8,0,1.5-0.3,2-0.8c0.5-0.6,0.8-1.2,0.8-2s-0.3-1.5-0.8-2s-1.2-0.8-2.1-0.8
	c-0.8,0-1.4,0.3-2,0.8S26,37.3,26,38.2c0,0.8,0.3,1.4,0.8,2C27.5,40.6,28.1,40.9,28.9,40.9z M40.2,24c0.8,0,1.5-0.3,2-0.8
	c0.5-0.6,0.8-1.2,0.8-2s-0.3-1.5-0.8-2s-1.2-0.8-2.1-0.8c-0.8,0-1.4,0.3-2,0.8s-0.8,1.2-0.8,2.1c0,0.8,0.3,1.4,0.8,2
	C38.8,23.7,39.4,24,40.2,24z M13,20.5h10.5V19H13V20.5z M13,29h10.5v-1.5H13V29z M8.6,38c-0.8,0-1.4-0.3-2-0.8
	c-0.5-0.5-0.8-1.2-0.8-2V12.8c0-0.8,0.3-1.4,0.8-2c0.5-0.5,1.2-0.8,2-0.8h30.8c0.8,0,1.4,0.3,2,0.8c0.5,0.5,0.8,1.2,0.8,2h-1.5
	c0-0.3-0.1-0.6-0.4-0.8c-0.3-0.3-0.5-0.4-0.8-0.4H8.6c-0.3,0-0.6,0.1-0.8,0.4c-0.3,0.3-0.4,0.5-0.4,0.8v22.5c0,0.3,0.1,0.6,0.4,0.8
	c0.3,0.3,0.5,0.4,0.8,0.4H21V38H8.6z M28.9,42.5c-1.2,0-2.3-0.4-3.1-1.3c-0.8-0.9-1.3-1.9-1.3-3.1c0-1.1,0.3-2,1-2.8
	s1.5-1.3,2.6-1.5v-4.9h11.3v-3.4c-1-0.2-1.9-0.7-2.6-1.5c-0.7-0.8-1-1.7-1-2.8c0-1.2,0.4-2.3,1.3-3.1c0.9-0.9,1.9-1.3,3.1-1.3
	c1.2,0,2.3,0.4,3.1,1.3s1.3,1.9,1.3,3.1c0,1.1-0.3,2-1,2.8s-1.5,1.3-2.6,1.5v4.9H29.7v3.4c1,0.2,1.9,0.7,2.6,1.5
	c0.7,0.8,1,1.7,1,2.8c0,1.2-0.4,2.3-1.3,3.1C31.2,42,30.1,42.5,28.9,42.5z"/>
</svg>
