<?xml version="1.0" encoding="utf-8"?>
<!-- Generator: Adobe Illustrator 26.3.1, SVG Export Plug-In . SVG Version: 6.00 Build 0)  -->
<svg version="1.1" id="Слой_1" xmlns="http://www.w3.org/2000/svg" xmlns:xlink="http://www.w3.org/1999/xlink" x="0px" y="0px"
	 viewBox="0 0 48 48" style="enable-background:new 0 0 48 48;" xml:space="preserve">
<path d="M8.6,38c-0.8,0-1.4-0.3-2-0.8c-0.5-0.5-0.8-1.2-0.8-2V12.8c0-0.8,0.3-1.4,0.8-2c0.5-0.5,1.2-0.8,2-0.8h30.8
	c0.8,0,1.4,0.3,2,0.8c0.5,0.5,0.8,1.2,0.8,2h-1.5c0-0.3-0.1-0.6-0.4-0.8c-0.3-0.3-0.5-0.4-0.8-0.4H8.6c-0.3,0-0.6,0.1-0.8,0.4
	c-0.3,0.3-0.4,0.5-0.4,0.8v22.5c0,0.3,0.1,0.6,0.4,0.8c0.3,0.3,0.5,0.4,0.8,0.4h15.9V38H8.6z M7.4,36.5v-25V36.5z M36.5,42.2
	c-0.7,0-1.4-0.3-1.9-0.8s-0.8-1.2-0.8-1.9v-2.3c-2-0.2-3.8-1.1-5.2-2.6c-1.4-1.5-2.1-3.3-2.1-5.4V20c0-0.7,0.3-1.4,0.8-1.9
	s1.2-0.8,2-0.8h10.5c0.7,0,1.4,0.3,1.9,0.8s0.8,1.2,0.8,1.9v9.2c0,2.1-0.7,3.9-2.1,5.4c-1.4,1.5-3.1,2.4-5.1,2.6v2.3
	c0,0.4,0.1,0.7,0.3,0.9s0.5,0.3,0.9,0.3h5v1.5C41.5,42.2,36.5,42.2,36.5,42.2z M38,28.3h3.1v-8.6c0-0.3-0.1-0.6-0.4-0.8
	c-0.3-0.3-0.5-0.4-0.8-0.4H29.1c-0.4,0-0.7,0.1-0.9,0.4c-0.2,0.3-0.3,0.5-0.3,0.8v4.6H30c0.9,0,1.8,0.2,2.6,0.6s1.5,1,2.1,1.7
	c0.4,0.5,0.9,1,1.5,1.2C36.7,28.2,37.3,28.3,38,28.3z M34.5,35.6c1.7,0,3.2-0.5,4.4-1.6s2-2.5,2.2-4.1H38c-0.9,0-1.8-0.2-2.6-0.6
	s-1.5-1-2.1-1.7c-0.4-0.5-0.9-0.9-1.5-1.3c-0.6-0.3-1.2-0.5-1.9-0.5h-2.1V29c0,1.9,0.6,3.4,1.9,4.7C31.1,35,32.6,35.6,34.5,35.6z
	 M13,20.5h9.2V19H13V20.5z M13,29h9.2v-1.5H13V29z"/>
</svg>
