<?xml version="1.0" encoding="utf-8"?>
<!-- Generator: Adobe Illustrator 26.3.1, SVG Export Plug-In . SVG Version: 6.00 Build 0)  -->
<svg version="1.1" id="Слой_1" xmlns="http://www.w3.org/2000/svg" xmlns:xlink="http://www.w3.org/1999/xlink" x="0px" y="0px"
	 viewBox="0 0 48 48" style="enable-background:new 0 0 48 48;" xml:space="preserve">
<path d="M36.5,41.1c-0.7,0-1.4-0.3-1.9-0.8c-0.6-0.6-0.8-1.2-0.8-1.9V36c-2-0.2-3.8-1.1-5.2-2.6c-1.4-1.5-2.1-3.3-2.1-5.4v-9.2
	c0-0.7,0.3-1.4,0.8-1.9c0.5-0.6,1.2-0.8,2-0.8h10.5c0.7,0,1.4,0.3,1.9,0.8c0.6,0.6,0.8,1.2,0.8,1.9V28c0,2.1-0.7,3.9-2.1,5.4
	c-1.4,1.5-3.1,2.4-5.1,2.6v2.3c0,0.4,0.1,0.7,0.3,0.9s0.5,0.3,0.9,0.3h5V41C41.5,41.1,36.5,41.1,36.5,41.1z M38,27.2h3.1v-8.6
	c0-0.3-0.1-0.6-0.4-0.8s-0.5-0.4-0.8-0.4H29.1c-0.4,0-0.7,0.1-0.9,0.4s-0.3,0.5-0.3,0.8v4.6H30c0.9,0,1.8,0.2,2.6,0.6s1.5,1,2.1,1.7
	c0.4,0.5,0.9,1,1.5,1.2C36.7,27.1,37.3,27.2,38,27.2z M34.5,34.6c1.7,0,3.2-0.5,4.4-1.6c1.2-1.1,2-2.5,2.2-4.1H38
	c-0.9,0-1.8-0.2-2.6-0.6s-1.5-1-2.1-1.7c-0.4-0.5-0.9-0.9-1.5-1.3c-0.6-0.3-1.2-0.5-1.9-0.5h-2.1V28c0,1.9,0.6,3.4,1.9,4.7
	C31.1,33.9,32.6,34.6,34.5,34.6z M15.9,41.8l-1.5-1.2v-7.9h-2.8c-0.7,0-1.4-0.3-1.9-0.8C9,31.4,8.8,30.7,8.8,30V14.5H8
	c-0.2,0-0.4-0.1-0.5-0.2c-0.1-0.1-0.2-0.3-0.2-0.6c0-0.2,0.1-0.4,0.2-0.5C7.6,13.1,7.8,13,8,13h6.4V9.1h-1.8c-0.2,0-0.4-0.1-0.5-0.2
	c-0.1-0.1-0.2-0.3-0.2-0.6s0.1-0.4,0.2-0.5c0.1-0.1,0.3-0.2,0.5-0.2h5.2c0.2,0,0.4,0.1,0.5,0.2s0.2,0.3,0.2,0.5s-0.1,0.4-0.2,0.5
	C18.2,9,18,9.1,17.8,9.1H16V13h6.4c0.2,0,0.4,0.1,0.5,0.2c0.1,0.1,0.2,0.3,0.2,0.5s-0.1,0.4-0.2,0.5s-0.3,0.2-0.5,0.2h-0.8V30
	c0,0.7-0.3,1.4-0.8,1.9c-0.6,0.6-1.2,0.8-1.9,0.8h-2.8C15.9,32.8,15.9,41.8,15.9,41.8z M11.5,31.2h7.2c0.4,0,0.7-0.1,0.9-0.3
	c0.2-0.2,0.3-0.5,0.3-0.9v-3.3h-4.3c-0.2,0-0.4-0.1-0.6-0.3c-0.2-0.2-0.3-0.4-0.3-0.6s0.1-0.4,0.3-0.6s0.4-0.3,0.6-0.3H20v-4.1h-4.3
	c-0.2,0-0.4-0.1-0.6-0.3c-0.2-0.2-0.3-0.4-0.3-0.6s0.1-0.4,0.3-0.6s0.4-0.3,0.6-0.3H20v-4.5h-9.7V30c0,0.4,0.1,0.7,0.3,0.9
	C10.9,31.1,11.2,31.2,11.5,31.2z"/>
</svg>
