<?xml version="1.0" encoding="utf-8"?>
<!-- Generator: Adobe Illustrator 26.3.1, SVG Export Plug-In . SVG Version: 6.00 Build 0)  -->
<svg version="1.1" id="Слой_1" xmlns="http://www.w3.org/2000/svg" xmlns:xlink="http://www.w3.org/1999/xlink" x="0px" y="0px"
	 viewBox="0 0 48 48" style="enable-background:new 0 0 48 48;" xml:space="preserve">
<path d="M6,21.2v-1.6c2.9-0.8,5.9-1.3,8.9-1.7c3-0.3,6-0.5,9.1-0.5s6.1,0.2,9.1,0.5s6,0.9,8.9,1.7v1.6c-0.7-0.2-1.3-0.3-2-0.5
	c-0.7-0.1-1.3-0.3-2-0.4v6.3h-1.5V20c-2.1-0.3-4.1-0.6-6.2-0.8C28.2,19,26.1,19,24,19s-4.2,0.1-6.3,0.2s-4.1,0.4-6.2,0.7v6.6H10
	v-6.4c-0.7,0.1-1.3,0.3-2,0.4C7.3,20.9,6.7,21,6,21.2z M14.5,40L17,24.4c0.4-0.1,0.7-0.1,0.8-0.1c0.1,0,0.3,0,0.8,0L16.1,40H14.5z
	 M19.6,8h1.5l-0.7,4.2c-0.4,0-0.7,0.1-0.8,0.1c-0.1,0-0.3,0.1-0.8,0.1L19.6,8z M23.2,40h1.5v-5.3h-1.5V40z M23.2,28.6h1.5v-4.3h-1.5
	V28.6z M26.8,8h1.5l0.7,4.4c-0.4,0-0.7-0.1-0.8-0.1c-0.1,0-0.3-0.1-0.8-0.1C27.5,12.2,26.8,8,26.8,8z M31.9,40l-2.5-15.7
	c0.4,0,0.7,0,0.8,0c0.1,0,0.4,0,0.8,0.1L33.5,40H31.9z"/>
</svg>
