<?xml version="1.0" encoding="utf-8"?>
<!-- Generator: Adobe Illustrator 26.3.1, SVG Export Plug-In . SVG Version: 6.00 Build 0)  -->
<svg version="1.1" id="Слой_1" xmlns="http://www.w3.org/2000/svg" xmlns:xlink="http://www.w3.org/1999/xlink" x="0px" y="0px"
	 viewBox="0 0 48 48" style="enable-background:new 0 0 48 48;" xml:space="preserve">
<path d="M36,37.1c-0.3,0-0.6-0.1-0.8-0.3s-0.3-0.5-0.3-0.8s0.1-0.6,0.3-0.8s0.5-0.3,0.8-0.3s0.6,0.1,0.8,0.3s0.3,0.5,0.3,0.8
	s-0.1,0.6-0.3,0.8S36.3,37.1,36,37.1z M14,43.2c-0.3,0-0.6-0.1-0.8-0.3s-0.3-0.5-0.3-0.8s0.1-0.6,0.3-0.8S13.7,41,14,41
	s0.6,0.1,0.8,0.3s0.3,0.5,0.3,0.8s-0.1,0.6-0.3,0.8C14.6,43.1,14.3,43.2,14,43.2z M12,36.9c-0.2,0-0.4-0.1-0.6-0.3
	c-0.2-0.2-0.3-0.4-0.3-0.6c0-0.2,0.1-0.4,0.3-0.6c0.2-0.2,0.4-0.3,0.6-0.3h18c0.2,0,0.4,0.1,0.6,0.3s0.3,0.4,0.3,0.6
	c0,0.2-0.1,0.4-0.3,0.6c-0.2,0.2-0.4,0.3-0.6,0.3H12z M20,43c-0.2,0-0.4-0.1-0.6-0.3s-0.3-0.4-0.3-0.6c0-0.2,0.1-0.5,0.3-0.6
	c0.2-0.2,0.4-0.3,0.6-0.3h14c0.2,0,0.4,0.1,0.6,0.3c0.2,0.2,0.3,0.4,0.3,0.6c0,0.2-0.1,0.5-0.3,0.6C34.4,42.9,34.2,43,34,43H20z
	 M14.8,30.5c-2.7,0-5-1-6.9-2.9C6,25.8,5,23.5,5,20.8c0-2.5,0.9-4.7,2.6-6.6c1.8-1.9,4-2.9,6.7-3.1c1-1.9,2.3-3.3,4-4.4S21.9,5,24,5
	c2.9,0,5.3,1,7.3,2.9s3.1,4.3,3.5,7.1c2.6,0.1,4.7,0.9,6.1,2.5c1.4,1.5,2.1,3.3,2.1,5.4s-0.8,4-2.3,5.5s-3.3,2.3-5.5,2.3
	C35.2,30.5,14.8,30.5,14.8,30.5z M14.8,29h20.5c1.7,0,3.2-0.6,4.4-1.8c1.2-1.2,1.8-2.7,1.8-4.4c0-1.7-0.6-3.2-1.8-4.4
	c-1.2-1.2-2.7-1.8-4.4-1.8h-2v-0.8c0-2.5-0.9-4.7-2.7-6.5s-4-2.7-6.5-2.7c-1.9,0-3.6,0.5-5.1,1.5s-2.7,2.4-3.4,4.1l-0.2,0.4h-0.7
	c-2.2,0.1-4.1,0.9-5.7,2.5s-2.4,3.5-2.4,5.7c0,2.3,0.8,4.2,2.4,5.8S12.5,29,14.8,29z"/>
</svg>
