<?xml version="1.0" encoding="utf-8"?>
<!-- Generator: Adobe Illustrator 26.3.1, SVG Export Plug-In . SVG Version: 6.00 Build 0)  -->
<svg version="1.1" id="Слой_1" xmlns="http://www.w3.org/2000/svg" xmlns:xlink="http://www.w3.org/1999/xlink" x="0px" y="0px"
	 viewBox="0 0 48 48" style="enable-background:new 0 0 48 48;" xml:space="preserve">
<path d="M41.7,36.4l-1.3-1.3V16.3c0-0.4-0.1-0.7-0.3-0.9s-0.5-0.3-0.9-0.3h-17l-3.5-3.5h-1.8L15.4,10h3.9l3.5,3.5h16.4
	c0.8,0,1.4,0.3,2,0.8c0.5,0.5,0.8,1.2,0.8,2v18.9c0,0.2,0,0.4-0.1,0.6C41.9,36,41.8,36.2,41.7,36.4z M42.6,44.4L36.2,38H8.8
	c-0.8,0-1.4-0.3-2-0.8C6.3,36.7,6,36,6,35.2V12.8c0-0.8,0.3-1.4,0.8-2C7.3,10.3,8,10,8.8,10h1.5l1.5,1.5h-3c-0.4,0-0.7,0.1-0.9,0.3
	c-0.2,0.2-0.3,0.5-0.3,0.9v22.5c0,0.4,0.1,0.7,0.3,0.9s0.5,0.3,0.9,0.3h25.8L5.7,7.6l1.1-1.1l36.8,36.8L42.6,44.4z"/>
</svg>
