<?xml version="1.0" encoding="utf-8"?>
<!-- Generator: Adobe Illustrator 26.3.1, SVG Export Plug-In . SVG Version: 6.00 Build 0)  -->
<svg version="1.1" id="Слой_1" xmlns="http://www.w3.org/2000/svg" xmlns:xlink="http://www.w3.org/1999/xlink" x="0px" y="0px"
	 viewBox="0 0 48 48" style="enable-background:new 0 0 48 48;" xml:space="preserve">
<path d="M7.5,36.5v-25v25.7V36.5z M8.8,38c-0.8,0-1.4-0.3-2-0.8C6.3,36.7,6,36,6,35.2V12.8c0-0.8,0.3-1.4,0.8-2
	C7.3,10.3,8,10,8.8,10h10.9l3.5,3.5h16c0.8,0,1.4,0.3,2,0.8c0.5,0.5,0.8,1.2,0.8,2v11.4h-1.5V16.3c0-0.4-0.1-0.7-0.3-0.9
	s-0.5-0.3-0.9-0.3H22.6l-3.5-3.5H8.8c-0.4,0-0.7,0.1-0.9,0.3c-0.2,0.2-0.3,0.5-0.3,0.9v22.5c0,0.4,0.1,0.7,0.3,0.9s0.5,0.3,0.9,0.3
	h13.1V38H8.8z M31.6,42.6l-5.4-5.4l5.4-5.4l1.1,1.1l-4.4,4.3l4.4,4.4L31.6,42.6z M38.5,42.6l-1.1-1.1l4.3-4.4l-4.3-4.3l1.1-1.1
	l5.5,5.4L38.5,42.6z"/>
</svg>
