<?xml version="1.0" encoding="utf-8"?>
<!-- Generator: Adobe Illustrator 26.3.1, SVG Export Plug-In . SVG Version: 6.00 Build 0)  -->
<svg version="1.1" id="Слой_1" xmlns="http://www.w3.org/2000/svg" xmlns:xlink="http://www.w3.org/1999/xlink" x="0px" y="0px"
	 viewBox="0 0 48 48" style="enable-background:new 0 0 48 48;" xml:space="preserve">
<path d="M30.5,44.8c-0.8,0-1.4-0.3-2-0.8c-0.5-0.5-0.8-1.2-0.8-2c0-0.6,0.2-1.2,0.6-1.7s0.9-0.8,1.4-1V26.4c-0.6-0.2-1.1-0.5-1.4-1
	c-0.4-0.5-0.6-1-0.6-1.6c0-0.8,0.3-1.5,0.8-2s1.2-0.8,2-0.8s1.4,0.3,2,0.8c0.5,0.5,0.8,1.2,0.8,2c0,0.6-0.2,1.2-0.6,1.7
	c-0.4,0.5-0.9,0.8-1.4,1v7.9l9.2-3.1v-4.8c-0.6-0.2-1.1-0.5-1.4-1c-0.4-0.5-0.6-1-0.6-1.6c0-0.8,0.3-1.5,0.8-2s1.2-0.8,2-0.8
	s1.4,0.3,2,0.8c0.5,0.5,0.8,1.2,0.8,2c0,0.6-0.2,1.2-0.6,1.7c-0.4,0.5-0.9,0.8-1.4,1v5.9l-10.8,3.6v3.4c0.6,0.2,1.1,0.5,1.4,1
	c0.4,0.5,0.6,1.1,0.6,1.7c0,0.8-0.3,1.5-0.8,2C31.9,44.5,31.2,44.8,30.5,44.8z M7.5,38V11.5V38z M8.8,38c-0.8,0-1.4-0.3-2-0.8
	C6.3,36.7,6,36,6,35.2V12.8c0-0.8,0.3-1.4,0.8-2C7.3,10.3,8,10,8.8,10h10.9l3.5,3.5h17.3c0.4,0,0.8,0.2,1.1,0.5s0.5,0.7,0.5,1.1
	H22.6l-3.5-3.5H8.8c-0.4,0-0.7,0.1-0.9,0.3c-0.2,0.2-0.3,0.5-0.3,0.9v22.5c0,0.4,0.1,0.7,0.3,0.9s0.5,0.3,0.9,0.3h14.6V38H8.8z"/>
</svg>
