<?xml version="1.0" encoding="utf-8"?>
<!-- Generator: Adobe Illustrator 26.3.1, SVG Export Plug-In . SVG Version: 6.00 Build 0)  -->
<svg version="1.1" id="Слой_1" xmlns="http://www.w3.org/2000/svg" xmlns:xlink="http://www.w3.org/1999/xlink" x="0px" y="0px"
	 viewBox="0 0 48 48" style="enable-background:new 0 0 48 48;" xml:space="preserve">
<path d="M23.4,32.4h13.2v-0.3c0-1.1-0.6-2-1.7-2.6c-1.2-0.6-2.8-1-4.9-1s-3.7,0.3-4.9,1c-1.1,0.6-1.7,1.5-1.7,2.6
	C23.4,32.1,23.4,32.4,23.4,32.4z M30,24.8c0.8,0,1.4-0.3,2-0.8c0.6-0.5,0.8-1.2,0.8-2s-0.3-1.5-0.8-2c-0.6-0.6-1.2-0.8-2-0.8
	s-1.5,0.3-2,0.8s-0.8,1.2-0.8,2s0.3,1.5,0.8,2C28.5,24.6,29.2,24.8,30,24.8z M8.8,38c-0.8,0-1.4-0.3-2-0.8C6.3,36.7,6,36,6,35.2
	V12.8c0-0.8,0.3-1.4,0.8-2C7.3,10.3,8,10,8.8,10h10.9l3.5,3.5h16c0.8,0,1.4,0.3,2,0.8c0.5,0.5,0.8,1.2,0.8,2v18.9
	c0,0.8-0.3,1.4-0.8,2c-0.5,0.5-1.2,0.8-2,0.8C39.2,38,8.8,38,8.8,38z M8.8,36.5h30.5c0.4,0,0.7-0.1,0.9-0.3s0.3-0.5,0.3-0.9v-19
	c0-0.4-0.1-0.7-0.3-0.9s-0.5-0.3-0.9-0.3H22.6l-3.5-3.5H8.8c-0.4,0-0.7,0.1-0.9,0.3c-0.2,0.2-0.3,0.5-0.3,0.9v22.5
	c0,0.4,0.1,0.7,0.3,0.9C8.1,36.3,8.4,36.5,8.8,36.5z M7.5,36.5v-25V36.5z"/>
</svg>
