<?xml version="1.0" encoding="utf-8"?>
<!-- Generator: Adobe Illustrator 26.3.1, SVG Export Plug-In . SVG Version: 6.00 Build 0)  -->
<svg version="1.1" id="Слой_1" xmlns="http://www.w3.org/2000/svg" xmlns:xlink="http://www.w3.org/1999/xlink" x="0px" y="0px"
	 viewBox="0 0 48 48" style="enable-background:new 0 0 48 48;" xml:space="preserve">
<path d="M7.5,36.5v-25v12.2V22V36.5z M22.6,38H8.8c-0.8,0-1.4-0.3-2-0.8C6.3,36.7,6,36,6,35.2V12.8c0-0.8,0.3-1.4,0.8-2
	C7.3,10.3,8,10,8.8,10h10.9l3.5,3.5h16c0.8,0,1.4,0.3,2,0.8c0.5,0.5,0.8,1.2,0.8,2v8.6c-0.2-0.2-0.5-0.4-0.7-0.6
	c-0.3-0.2-0.5-0.4-0.8-0.5v-7.4c0-0.4-0.1-0.7-0.3-0.9s-0.5-0.3-0.9-0.3H22.6l-3.5-3.5H8.8c-0.4,0-0.7,0.1-0.9,0.3
	c-0.2,0.2-0.3,0.5-0.3,0.9v22.5c0,0.4,0.1,0.7,0.3,0.9s0.5,0.3,0.9,0.3h13.4c0,0.3,0.1,0.5,0.2,0.8C22.4,37.5,22.5,37.8,22.6,38z
	 M34.1,26.3c2.2,0,4,0.8,5.6,2.3c1.5,1.5,2.3,3.4,2.3,5.6s-0.8,4-2.3,5.6c-1.5,1.5-3.4,2.3-5.6,2.3c-2.2,0-4-0.8-5.6-2.3
	c-1.5-1.5-2.3-3.4-2.3-5.6c0-2.2,0.8-4,2.3-5.6C30.1,27.1,32,26.3,34.1,26.3z M33.4,39.2h1.5V33h-1.5C33.4,33.1,33.4,39.2,33.4,39.2
	z M34.1,31.1c0.3,0,0.5-0.1,0.7-0.3c0.2-0.2,0.3-0.4,0.3-0.7c0-0.3-0.1-0.5-0.3-0.7s-0.4-0.3-0.7-0.3s-0.5,0.1-0.7,0.3
	c-0.2,0.2-0.3,0.4-0.3,0.7s0.1,0.5,0.3,0.7C33.6,31,33.8,31.1,34.1,31.1z"/>
</svg>
