<?xml version="1.0" encoding="utf-8"?>
<!-- Generator: Adobe Illustrator 26.3.1, SVG Export Plug-In . SVG Version: 6.00 Build 0)  -->
<svg version="1.1" id="Слой_1" xmlns="http://www.w3.org/2000/svg" xmlns:xlink="http://www.w3.org/1999/xlink" x="0px" y="0px"
	 viewBox="0 0 48 48" style="enable-background:new 0 0 48 48;" xml:space="preserve">
<path d="M34.7,40.7l-0.1-1.5c-0.9-0.2-1.7-0.5-2.3-0.8c-0.6-0.4-1.2-0.8-1.7-1.4l-1.3,0.7l-1-1.3l1.2-0.9c-0.3-0.8-0.4-1.6-0.4-2.4
	c0-0.8,0.1-1.6,0.4-2.4l-1.2-0.9l1-1.3l1.3,0.7c0.5-0.6,1-1,1.7-1.4c0.6-0.4,1.4-0.6,2.3-0.8l0.1-1.5h1.5l0.1,1.5
	c0.9,0.2,1.7,0.5,2.3,0.8c0.6,0.4,1.2,0.8,1.7,1.4l1.3-0.7l1,1.3l-1.2,0.9c0.3,0.8,0.4,1.6,0.4,2.4s-0.1,1.6-0.4,2.4l1.2,0.9l-1,1.3
	L40.3,37c-0.5,0.6-1,1.1-1.7,1.4c-0.6,0.4-1.4,0.6-2.3,0.8l-0.1,1.5H34.7z M35.5,37.9c1.4,0,2.5-0.5,3.4-1.4s1.4-2.1,1.4-3.4
	c0-1.4-0.5-2.5-1.4-3.4s-2.1-1.4-3.4-1.4c-1.4,0-2.5,0.5-3.4,1.4c-0.9,0.9-1.4,2.1-1.4,3.4c0,1.4,0.5,2.5,1.4,3.4
	C33,37.4,34.1,37.9,35.5,37.9z M7.5,36.5v-25v10v-1V36.5z M8.8,38c-0.8,0-1.4-0.3-2-0.8C6.3,36.7,6,36,6,35.2V12.8
	c0-0.8,0.3-1.4,0.8-2C7.3,10.3,8,10,8.8,10h10.9l3.5,3.5h16c0.8,0,1.4,0.3,2,0.8c0.5,0.5,0.8,1.2,0.8,2v6c-0.2-0.2-0.5-0.3-0.7-0.4
	c-0.3-0.1-0.5-0.3-0.8-0.4v-5.2c0-0.4-0.1-0.7-0.3-0.9s-0.5-0.3-0.9-0.3H22.6l-3.5-3.5H8.8c-0.4,0-0.7,0.1-0.9,0.3
	c-0.2,0.2-0.3,0.5-0.3,0.9v22.5c0,0.4,0.1,0.7,0.3,0.9s0.5,0.3,0.9,0.3h14.6c0.1,0.3,0.2,0.5,0.2,0.8c0.1,0.3,0.2,0.5,0.3,0.7H8.8z"
	/>
</svg>
