<?xml version="1.0" encoding="utf-8"?>
<!-- Generator: Adobe Illustrator 26.3.1, SVG Export Plug-In . SVG Version: 6.00 Build 0)  -->
<svg version="1.1" id="Слой_1" xmlns="http://www.w3.org/2000/svg" xmlns:xlink="http://www.w3.org/1999/xlink" x="0px" y="0px"
	 viewBox="0 0 48 48" style="enable-background:new 0 0 48 48;" xml:space="preserve">
<path d="M8.5,38c-0.7,0-1.3-0.3-1.8-0.8c-0.4-0.5-0.7-1-0.7-1.7V12.8c0-0.7,0.3-1.3,0.9-1.9C7.4,10.3,8.1,10,8.8,10h10.9l3.5,3.5h16
	c0.5,0,1,0.1,1.5,0.4c0.4,0.3,0.8,0.7,1,1.1H22.6L19,11.5H8.8c-0.4,0-0.7,0.1-0.9,0.3c-0.2,0.2-0.3,0.5-0.3,0.9v22.5
	c0,0.3,0.1,0.5,0.2,0.7s0.3,0.3,0.6,0.5l4.7-17h32.7l-4.6,16.7c-0.2,0.6-0.5,1.1-0.9,1.4c-0.4,0.3-1,0.5-1.6,0.5
	C38.5,38,8.5,38,8.5,38z M9.9,36.5h29.5L43.6,21H14.1C14.1,20.9,9.9,36.5,9.9,36.5z M9.9,36.5L14.1,21C14.1,20.9,9.9,36.5,9.9,36.5z
	 M7.5,15.1v-3.5V15.1z"/>
</svg>
