<?xml version="1.0" encoding="utf-8"?>
<!-- Generator: Adobe Illustrator 26.3.1, SVG Export Plug-In . SVG Version: 6.00 Build 0)  -->
<svg version="1.1" id="Слой_1" xmlns="http://www.w3.org/2000/svg" xmlns:xlink="http://www.w3.org/1999/xlink" x="0px" y="0px"
	 viewBox="0 0 48 48" style="enable-background:new 0 0 48 48;" xml:space="preserve">
<path d="M8.8,38c-0.8,0-1.4-0.3-2-0.8C6.3,36.7,6,36,6,35.2V12.8c0-0.8,0.3-1.4,0.8-2C7.3,10.3,8,10,8.8,10h10.9l3.5,3.5h16
	c0.8,0,1.4,0.3,2,0.8c0.5,0.5,0.8,1.2,0.8,2v13.4c-0.3-0.2-0.5-0.4-0.8-0.6s-0.5-0.4-0.8-0.6V16.3c0-0.4-0.1-0.7-0.3-0.9
	s-0.5-0.3-0.9-0.3H22.6l-3.5-3.5H8.8c-0.4,0-0.7,0.1-0.9,0.3c-0.2,0.2-0.3,0.5-0.3,0.9v22.5c0,0.4,0.1,0.7,0.3,0.9s0.5,0.3,0.9,0.3
	h7.7V38H8.8z M32.5,44c-2.4,0-4.6-0.6-6.6-1.8s-3.6-2.8-4.9-4.9c1.2-2,2.8-3.6,4.9-4.9c2-1.2,4.2-1.8,6.6-1.8s4.6,0.6,6.6,1.8
	c2,1.2,3.6,2.8,4.9,4.9c-1.2,2-2.8,3.7-4.9,4.9S34.9,44,32.5,44z M32.5,42.5c1.9,0,3.7-0.5,5.4-1.4s3.1-2.2,4.3-3.7
	c-1.2-1.5-2.6-2.8-4.2-3.7c-1.7-0.9-3.5-1.4-5.4-1.4c-1.9,0-3.7,0.5-5.4,1.4c-1.7,0.9-3.1,2.2-4.2,3.7c1.1,1.5,2.5,2.8,4.2,3.7
	C28.8,42,30.6,42.5,32.5,42.5z M32.5,39.1c-0.5,0-0.9-0.2-1.3-0.5c-0.3-0.3-0.5-0.8-0.5-1.3s0.2-0.9,0.5-1.2s0.8-0.5,1.3-0.5
	s0.9,0.2,1.3,0.5c0.3,0.3,0.5,0.8,0.5,1.3s-0.2,0.9-0.5,1.2C33.4,38.9,33,39.1,32.5,39.1z M7.5,36.5v-25v17v-2.2V36.5z"/>
</svg>
