<?xml version="1.0" encoding="utf-8"?>
<!-- Generator: Adobe Illustrator 26.3.1, SVG Export Plug-In . SVG Version: 6.00 Build 0)  -->
<svg version="1.1" id="Слой_1" xmlns="http://www.w3.org/2000/svg" xmlns:xlink="http://www.w3.org/1999/xlink" x="0px" y="0px"
	 viewBox="0 0 48 48" style="enable-background:new 0 0 48 48;" xml:space="preserve">
<path d="M32,23.6v-4.3h4.3v4.3C36.3,23.6,32,23.6,32,23.6z M32,27.9h-4.3v-4.3H32V27.9z M32,32.2v-4.3h4.3v4.3H32z M22.6,15.1
	l-3.5-3.5H8.8c-0.4,0-0.7,0.1-0.9,0.3c-0.2,0.2-0.3,0.5-0.3,0.9v22.5c0,0.4,0.1,0.7,0.3,0.9s0.5,0.3,0.9,0.3h18.9v-4.3H32v4.3h7.2
	c0.4,0,0.7-0.1,0.9-0.3s0.3-0.5,0.3-0.9v-19c0-0.4-0.1-0.7-0.3-0.9s-0.5-0.3-0.9-0.3H32v4.3h-4.3v-4.3
	C27.7,15.1,22.6,15.1,22.6,15.1z M8.8,38c-0.8,0-1.4-0.3-2-0.8C6.3,36.7,6,36,6,35.2V12.8c0-0.8,0.3-1.4,0.8-2C7.3,10.3,8,10,8.8,10
	h10.9l3.5,3.5h16c0.8,0,1.4,0.3,2,0.8c0.5,0.5,0.8,1.2,0.8,2v18.9c0,0.8-0.3,1.4-0.8,2c-0.5,0.5-1.2,0.8-2,0.8
	C39.2,38,8.8,38,8.8,38z M7.5,36.5v-25V36.5z"/>
</svg>
