<?xml version="1.0" encoding="utf-8"?>
<!-- Generator: Adobe Illustrator 26.3.1, SVG Export Plug-In . SVG Version: 6.00 Build 0)  -->
<svg version="1.1" id="Слой_1" xmlns="http://www.w3.org/2000/svg" xmlns:xlink="http://www.w3.org/1999/xlink" x="0px" y="0px"
	 viewBox="0 0 48 48" style="enable-background:new 0 0 48 48;" xml:space="preserve">
<path d="M6.8,39.5c-0.7,0-1.4-0.3-1.9-0.8S4,37.5,4,36.8V13.7h1.5v23.1c0,0.4,0.1,0.7,0.3,0.9c0.3,0.2,0.6,0.3,1,0.3H39v1.5
	C38.9,39.5,6.8,39.5,6.8,39.5z M11.8,34.5c-0.7,0-1.4-0.3-1.9-0.8s-0.8-1.2-0.8-1.9v-23c0-0.7,0.3-1.4,0.8-1.9
	C10.4,6.3,11.1,6,11.8,6h10.8l4,4h14.5c0.7,0,1.4,0.3,1.9,0.8s0.8,1.2,0.8,1.9v18.9c0,0.7-0.3,1.4-0.8,1.9s-1.2,0.8-1.9,0.8
	C41.2,34.5,11.8,34.5,11.8,34.5z M11.8,32.9h29.4c0.4,0,0.7-0.1,0.9-0.3s0.3-0.5,0.3-0.9V12.8c0-0.4-0.1-0.7-0.3-0.9
	s-0.5-0.3-0.9-0.3H26.1l-4-4H11.8c-0.4,0-0.7,0.1-0.9,0.3c-0.2,0.2-0.3,0.5-0.3,0.9v22.9c0,0.4,0.1,0.7,0.3,0.9
	C11.2,32.8,11.5,32.9,11.8,32.9z M10.6,32.9V7.5V32.9z"/>
</svg>
