<?xml version="1.0" encoding="utf-8"?>
<!-- Generator: Adobe Illustrator 26.3.1, SVG Export Plug-In . SVG Version: 6.00 Build 0)  -->
<svg version="1.1" id="Слой_1" xmlns="http://www.w3.org/2000/svg" xmlns:xlink="http://www.w3.org/1999/xlink" x="0px" y="0px"
	 viewBox="0 0 48 48" style="enable-background:new 0 0 48 48;" xml:space="preserve">
<path d="M30.9,31v-5.3l-2.3-4.2c-0.9,0-1.6,0.3-2.2,0.9s-0.9,1.3-0.9,2.2V35l4.2,7H28l-4-6.5V24.6c0-1.1,0.4-2.1,1.1-3
	s1.6-1.4,2.7-1.6l-3.5-6.7c-0.6-1.1-0.8-2.2-0.8-3.4c0.1-1.2,0.5-2.2,1.3-3l2.5-2.5l12.8,15.2L42,42h-1.6l-1.9-21.8L27.2,6.7L26,8
	c-0.5,0.5-0.9,1.2-1,1.9c-0.1,0.8,0,1.5,0.4,2.1l7,13.2V31H30.9z M15.6,31v-5.7l7-13.2c0.4-0.7,0.5-1.4,0.4-2.1
	c-0.1-0.8-0.4-1.4-1-1.9l-1.2-1.3L9.5,20.2L7.6,42H6l2-22.4L20.7,4.5L23.2,7c0.8,0.8,1.3,1.8,1.3,3c0.1,1.2-0.2,2.3-0.8,3.4L20.2,20
	c1.1,0.2,2,0.7,2.8,1.6c0.7,0.9,1.1,1.9,1.1,3v10.9L20,42h-1.8l4.2-7V24.6c0-0.8-0.3-1.6-0.9-2.2s-1.3-0.9-2.2-0.9L17,25.7V31
	C17.2,31,15.6,31,15.6,31z"/>
</svg>
