<?xml version="1.0" encoding="utf-8"?>
<!-- Generator: Adobe Illustrator 26.3.1, SVG Export Plug-In . SVG Version: 6.00 Build 0)  -->
<svg version="1.1" id="Слой_1" xmlns="http://www.w3.org/2000/svg" xmlns:xlink="http://www.w3.org/1999/xlink" x="0px" y="0px"
	 viewBox="0 0 48 48" style="enable-background:new 0 0 48 48;" xml:space="preserve">
<path d="M19.2,10.1c-0.9,0-1.6-0.3-2.2-1c-0.7-0.6-1-1.4-1-2.3s0.3-1.7,0.9-2.3s1.4-0.9,2.2-0.9c0.9,0,1.7,0.3,2.3,0.9
	c0.6,0.6,0.9,1.4,0.9,2.3S22,8.4,21.4,9.1C20.8,9.7,20.1,10.1,19.2,10.1z M7.5,45l5.7-29.5l-6.7,2.8v6.4H5v-7.5l8.8-3.7
	c0.9-0.4,1.8-0.5,2.7-0.4c0.8,0.2,1.5,0.6,1.9,1.3l2,3.2c0.9,1.5,2.1,2.7,3.6,3.7s3.1,1.5,5,1.7v1.5c-2.3-0.2-4.4-0.9-6.1-2.2
	c-1.7-1.3-3.2-3-4.3-4.9l-2.2,9.8l4.5,4.2V45h-1.5V33.7l-6.4-6L9,45H7.5z M34.3,45.4V17.2h-7.5V4.6h16.5v12.6h-7.5v28.1
	C35.9,45.4,34.3,45.4,34.3,45.4z M36.1,14.8l3.9-3.9L36.1,7L35,8.1l2,2.1h-7.2v1.5H37l-2,2C35,13.7,36.1,14.8,36.1,14.8z"/>
</svg>
