<?xml version="1.0" encoding="utf-8"?>
<!-- Generator: Adobe Illustrator 26.3.1, SVG Export Plug-In . SVG Version: 6.00 Build 0)  -->
<svg version="1.1" id="Слой_1" xmlns="http://www.w3.org/2000/svg" xmlns:xlink="http://www.w3.org/1999/xlink" x="0px" y="0px"
	 viewBox="0 0 48 48" style="enable-background:new 0 0 48 48;" xml:space="preserve">
<path d="M15,35.2h1.7l2.2-6.1H29l2.1,6.1H33l-8.3-22.8h-1.3L15,35.2z M19.5,27.5l4.4-12.3h0.2l4.4,12.3H19.5z M8.8,42
	c-0.8,0-1.4-0.3-2-0.8C6.3,40.7,6,40,6,39.2V8.8c0-0.8,0.3-1.4,0.8-2C7.3,6.3,8,6,8.8,6h30.5c0.8,0,1.4,0.3,2,0.8
	C41.7,7.3,42,8,42,8.8v30.5c0,0.8-0.3,1.4-0.8,2c-0.5,0.5-1.2,0.8-2,0.8L8.8,42L8.8,42z M8.8,40.5h30.5c0.3,0,0.6-0.1,0.8-0.4
	c0.3-0.3,0.4-0.5,0.4-0.8V8.8c0-0.3-0.1-0.6-0.4-0.8c-0.3-0.3-0.5-0.4-0.8-0.4H8.8C8.5,7.6,8.2,7.7,8,8C7.7,8.2,7.6,8.5,7.6,8.8
	v30.5c0,0.3,0.1,0.6,0.4,0.8C8.2,40.3,8.5,40.5,8.8,40.5z M7.6,7.5v32.9V7.5z"/>
</svg>
