<?xml version="1.0" encoding="utf-8"?>
<!-- Generator: Adobe Illustrator 26.3.1, SVG Export Plug-In . SVG Version: 6.00 Build 0)  -->
<svg version="1.1" id="Слой_1" xmlns="http://www.w3.org/2000/svg" xmlns:xlink="http://www.w3.org/1999/xlink" x="0px" y="0px"
	 viewBox="0 0 48 48" style="enable-background:new 0 0 48 48;" xml:space="preserve">
<path d="M42.5,44.8l-2.9-2.9C39.5,42,39.4,42,39.3,42s-0.2,0-0.3,0H8.9c-0.8,0-1.5-0.3-2-0.8S6,39.9,6,39.2V9c0-0.1,0-0.2,0-0.3
	s0-0.2,0.1-0.3L3.8,6l1.1-1.1l38.8,38.8C43.6,43.6,42.5,44.8,42.5,44.8z M8.8,40.5h29.5L7.6,9.8v29.5c0,0.3,0.1,0.6,0.4,0.8
	C8.2,40.3,8.5,40.5,8.8,40.5z M42,37l-1.5-1.5V8.8c0-0.3-0.1-0.6-0.4-0.8c-0.3-0.3-0.5-0.4-0.8-0.4H12.5L11,6h28.2
	c0.8,0,1.5,0.3,2,0.8C41.8,7.4,42,8,42,8.8C42,8.9,42,37,42,37z M28.9,23.9l-2.6-2.7l-2.2-6h-0.2l-1,2.8l-1.2-1.2l1.6-4.4h1.3
	C24.6,12.4,28.9,23.9,28.9,23.9z M31.2,35.2l-2.1-6l2.6,2.6l1.3,3.5h-1.8V35.2z M15,35.2l5.4-14.7l1.2,1.2l-2.1,5.9h8l1.5,1.5H19
	l-2.2,6.1H15z"/>
</svg>
