<?xml version="1.0" encoding="utf-8"?>
<!-- Generator: Adobe Illustrator 26.3.1, SVG Export Plug-In . SVG Version: 6.00 Build 0)  -->
<svg version="1.1" id="Слой_1" xmlns="http://www.w3.org/2000/svg" xmlns:xlink="http://www.w3.org/1999/xlink" x="0px" y="0px"
	 viewBox="0 0 48 48" style="enable-background:new 0 0 48 48;" xml:space="preserve">
<path d="M20.6,34.7h1.7v-6.8c0.7,0,1.3-0.2,1.8-0.7s0.7-1.1,0.7-1.8v-5.1h-1.7v5.1h-0.8v-5.1h-1.7v5.1h-0.8v-5.1h-1.7v5.1
	c0,0.7,0.2,1.3,0.7,1.8s1.1,0.7,1.8,0.7C20.6,27.9,20.6,34.7,20.6,34.7z M27.4,34.7h1.7V20.3c-0.9,0-1.7,0.3-2.4,1
	c-0.7,0.7-1,1.5-1,2.4v5.1h1.7C27.4,28.8,27.4,34.7,27.4,34.7z M10,40V19L24,8.5L38,19v21H10z M11.5,38.5h24.9V19.7L24,10.5
	l-12.5,9.2V38.5z"/>
</svg>
