<?xml version="1.0" encoding="utf-8"?>
<!-- Generator: Adobe Illustrator 26.3.1, SVG Export Plug-In . SVG Version: 6.00 Build 0)  -->
<svg version="1.1" id="Слой_1" xmlns="http://www.w3.org/2000/svg" xmlns:xlink="http://www.w3.org/1999/xlink" x="0px" y="0px"
	 viewBox="0 0 48 48" style="enable-background:new 0 0 48 48;" xml:space="preserve">
<path d="M15.8,34c-1.8,0-3.2-0.7-4.3-2.1c-1-1.4-1.5-3.2-1.5-5.4v-0.3l-1.2-1.9c-0.7-1.1-1.3-2.5-1.9-4.4C6.3,18,6,16,6,14
	c0-2.9,0.7-5.3,2-7.2S11,4,13,4s3.7,1,5,3s2,4.3,2,7c0,1.8-0.3,3.5-0.8,5.2s-1.1,3.1-1.6,4.3l0.9,1.5c0.4,0.6,0.7,1.4,1,2.2
	c0.3,0.8,0.4,1.5,0.4,2.2c0,1.3-0.4,2.4-1.2,3.3C18,33.6,17,34,15.8,34z M10.9,24.7l5.1-1.2c0.5-1.2,1-2.7,1.6-4.5s0.9-3.5,0.9-4.9
	c0-2.3-0.5-4.2-1.5-5.9s-2.3-2.5-3.9-2.5c-1.5,0-2.8,0.8-3.9,2.4C8.1,9.5,7.5,11.6,7.5,14c0,2.1,0.4,4.2,1.1,6.2
	C9.3,22.1,10.1,23.6,10.9,24.7z M15.8,32.5c0.8,0,1.4-0.3,1.9-0.9s0.8-1.3,0.8-2.2c0-0.6-0.2-1.3-0.5-2.1c-0.3-0.8-0.8-1.6-1.3-2.4
	l-5.1,1.2c0,1.8,0.4,3.3,1.1,4.5C13.3,31.8,14.4,32.5,15.8,32.5z M32.2,44c-1.2,0-2.3-0.4-3.1-1.3c-0.8-0.9-1.2-2-1.2-3.3
	c0-0.7,0.1-1.4,0.5-2.2c0.3-0.8,0.6-1.5,1-2.2l0.9-1.5c-0.5-1.1-1-2.5-1.6-4.3C28.3,27.5,28,25.8,28,24c0-2.7,0.7-5.1,2-7
	c1.3-2,3-3,5-3s3.7,0.9,5,2.8s2,4.3,2,7.2c0,2-0.3,3.9-0.9,5.8c-0.6,1.9-1.2,3.4-1.9,4.5L38,36.2v0.4c0,2.1-0.5,3.8-1.5,5.3
	C35.4,43.3,34,44,32.2,44z M37,34.9c1.1-1.7,2-3.4,2.6-5c0.6-1.7,0.9-3.6,0.9-5.9c0-2.4-0.5-4.5-1.6-6.1s-2.3-2.4-3.9-2.4
	c-1.6,0-2.9,0.8-3.9,2.5c-1,1.7-1.5,3.7-1.5,5.9c0,1.5,0.3,3.1,0.9,4.9s1.1,3.3,1.6,4.5C32.1,33.5,37,34.9,37,34.9z M32.2,42.5
	c1.3,0,2.3-0.6,3.1-1.8c0.7-1.2,1.1-2.7,1.1-4.3l-5-1.5c-0.4,0.6-0.8,1.4-1.2,2.2c-0.4,0.8-0.6,1.6-0.6,2.4c0,0.9,0.3,1.6,0.8,2.2
	C30.9,42.2,31.5,42.5,32.2,42.5z"/>
</svg>
