<?xml version="1.0" encoding="utf-8"?>
<!-- Generator: Adobe Illustrator 26.3.1, SVG Export Plug-In . SVG Version: 6.00 Build 0)  -->
<svg version="1.1" id="Слой_1" xmlns="http://www.w3.org/2000/svg" xmlns:xlink="http://www.w3.org/1999/xlink" x="0px" y="0px"
	 viewBox="0 0 48 48" style="enable-background:new 0 0 48 48;" xml:space="preserve">
<path d="M24,24.8c2.5,0,4.9-0.2,7.5-0.6c2.5-0.4,4.8-0.9,7-1.7v16.3c-1.9,0.8-4.2,1.5-6.9,2s-5.2,0.8-7.6,0.8s-4.9-0.3-7.6-0.8
	s-5-1.2-6.9-2V22.5c2.1,0.8,4.5,1.3,7,1.7C19.1,24.6,21.5,24.8,24,24.8z M36.9,37.8V24.6c-1.6,0.5-3.7,0.9-6.1,1.2s-4.7,0.5-6.8,0.5
	c-2,0-4.3-0.2-6.8-0.5S12.7,25,11,24.6v13.2c1.5,0.6,3.5,1.2,6.1,1.7c2.5,0.5,4.8,0.7,6.9,0.7s4.3-0.2,6.9-0.7
	C33.4,39,35.4,38.4,36.9,37.8z M24,6.3c1.7,0,3.2,0.6,4.5,1.8c1.2,1.2,1.9,2.7,1.9,4.5s-0.6,3.2-1.9,4.5c-1.2,1.2-2.7,1.8-4.5,1.8
	c-1.7,0-3.2-0.6-4.5-1.8c-1.2-1.2-1.8-2.7-1.9-4.5c0-1.8,0.6-3.3,1.9-4.5S22.3,6.3,24,6.3z M24,17.4c1.3,0,2.4-0.5,3.4-1.4
	c0.9-0.9,1.4-2.1,1.4-3.4s-0.5-2.4-1.4-3.4c-0.9-0.9-2.1-1.4-3.4-1.4s-2.4,0.5-3.4,1.4c-0.9,0.9-1.4,2.1-1.4,3.4s0.5,2.4,1.4,3.4
	C21.6,16.9,22.7,17.4,24,17.4z"/>
</svg>
