<?xml version="1.0" encoding="utf-8"?>
<!-- Generator: Adobe Illustrator 26.3.1, SVG Export Plug-In . SVG Version: 6.00 Build 0)  -->
<svg version="1.1" id="Слой_1" xmlns="http://www.w3.org/2000/svg" xmlns:xlink="http://www.w3.org/1999/xlink" x="0px" y="0px"
	 viewBox="0 0 48 48" style="enable-background:new 0 0 48 48;" xml:space="preserve">
<path d="M16.5,42v-7.8H3.8l8.8-12.8H8.2l9.8-14l6,8.5l6-8.5l9.8,14h-4.3l8.7,12.8H31.5V42h-2.9v-7.8h-9.1V42H16.5z M31.2,32.7h10.1
	l-8.7-12.8h4.2L30,10.3l-5,7.1l2.8,4.1h-4.3L31.2,32.7z M6.8,32.7h22.5l-8.7-12.8h4.2L18,10.3l-6.8,9.6h4.2
	C15.5,19.9,6.8,32.7,6.8,32.7z M6.8,32.7h8.7h-4.2h13.5h-4.2h8.7C29.2,32.7,6.8,32.7,6.8,32.7z M31.2,32.7h-7.6h4.3H25h11.7h-4.2
	h8.7H31.2z M28.5,34.2h2.9H28.5z"/>
</svg>
