<?xml version="1.0" encoding="utf-8"?>
<!-- Generator: Adobe Illustrator 26.3.1, SVG Export Plug-In . SVG Version: 6.00 Build 0)  -->
<svg version="1.1" id="Слой_1" xmlns="http://www.w3.org/2000/svg" xmlns:xlink="http://www.w3.org/1999/xlink" x="0px" y="0px"
	 viewBox="0 0 48 48" style="enable-background:new 0 0 48 48;" xml:space="preserve">
<path d="M19.3,40V11l-4.8,4.8l-1.1-1.1L20.1,8l6.6,6.7l-1.1,1.1L20.8,11v18c0.9-1.6,2.2-2.9,3.6-3.8c1.5-0.9,3.2-1.4,5.4-1.4
	c0.9,0,1.8,0.1,2.6,0.1c0.9,0.1,1.8,0.2,2.6,0.4l-4.8-4.8l1.1-1.1l6.7,6.7l-6.7,6.7l-1.1-1.1l4.8-4.8c-0.8-0.1-1.6-0.3-2.6-0.4
	c-0.9-0.1-1.8-0.2-2.7-0.2c-2,0-3.8,0.6-5.5,1.9c-1.7,1.2-2.8,3.1-3.5,5.5V40C20.8,40,19.3,40,19.3,40z"/>
</svg>
