<?xml version="1.0" encoding="utf-8"?>
<!-- Generator: Adobe Illustrator 26.3.1, SVG Export Plug-In . SVG Version: 6.00 Build 0)  -->
<svg version="1.1" id="Слой_1" xmlns="http://www.w3.org/2000/svg" xmlns:xlink="http://www.w3.org/1999/xlink" x="0px" y="0px"
	 viewBox="0 0 48 48" style="enable-background:new 0 0 48 48;" xml:space="preserve">
<path d="M39.3,41.5L21.7,23.9l-6.2,10.7h-1.8l4.9-8.4c-0.3,0.1-0.7,0.2-1.1,0.3c-0.4,0.1-0.8,0.1-1.2,0.1c-1.9,0-3.4-0.6-4.7-1.9
	S9.7,21.8,9.7,20c0-1.2,0.2-2.2,0.7-3.1s1.1-1.7,2-2.3L6.7,9l1.1-1.1l32.5,32.5L39.3,41.5z M35.4,30.5l-7.8-7.8
	c-0.2-0.4-0.3-0.8-0.3-1.3c-0.1-0.4-0.1-0.9-0.1-1.4c0-1.9,0.6-3.5,1.9-4.7c1.3-1.3,2.8-1.9,4.7-1.9c1.8,0,3.4,0.6,4.7,1.9
	s1.9,2.8,1.9,4.7c0,0.6-0.1,1.2-0.2,1.8c-0.2,0.6-0.4,1.1-0.7,1.6C39.5,23.4,35.4,30.5,35.4,30.5z M16.2,24.8c0.9,0,1.6-0.2,2.4-0.6
	c0.7-0.4,1.3-0.9,1.8-1.6l-6.8-6.8c-0.7,0.5-1.2,1.1-1.6,1.8c-0.4,0.7-0.6,1.5-0.6,2.4c0,1.3,0.5,2.5,1.4,3.4
	C13.7,24.4,14.9,24.8,16.2,24.8z M33.8,24.8c1.3,0,2.5-0.5,3.4-1.4s1.4-2.1,1.4-3.4s-0.5-2.5-1.4-3.4s-2.1-1.4-3.4-1.4
	s-2.5,0.5-3.4,1.4c-1,0.9-1.4,2.1-1.4,3.4s0.5,2.5,1.4,3.4C31.3,24.4,32.4,24.8,33.8,24.8z"/>
</svg>
