<?xml version="1.0" encoding="utf-8"?>
<!-- Generator: Adobe Illustrator 26.3.1, SVG Export Plug-In . SVG Version: 6.00 Build 0)  -->
<svg version="1.1" id="Слой_1" xmlns="http://www.w3.org/2000/svg" xmlns:xlink="http://www.w3.org/1999/xlink" x="0px" y="0px"
	 viewBox="0 0 48 48" style="enable-background:new 0 0 48 48;" xml:space="preserve">
<path d="M13.4,4.8l1.1-1.2L30.8,20c0.6,0.7,1,1.5,1,2.3c0,0.9-0.3,1.7-1,2.3l-7.6,7.6c-0.6,0.6-1.3,0.9-2.2,0.9
	c-0.9,0-1.6-0.3-2.2-0.9l-7.5-7.6c-0.6-0.6-1-1.4-1-2.3s0.3-1.7,1-2.3l8.6-8.6C20,11.5,13.4,4.8,13.4,4.8z M21.1,12.6l-8.9,8.9
	c-0.1,0.1-0.2,0.3-0.2,0.4s-0.1,0.3-0.1,0.4h18.5c0-0.2,0-0.3-0.1-0.4s-0.1-0.3-0.2-0.4L21.1,12.6z M37,35.4c-0.8,0-1.5-0.3-2-0.8
	c-0.5-0.6-0.8-1.2-0.8-2c0-0.6,0.1-1.1,0.4-1.6c0.2-0.5,0.5-1,0.9-1.5c0.2-0.4,0.5-0.7,0.8-1.1s0.6-0.7,0.8-1.1
	c0.3,0.4,0.5,0.7,0.8,1.1s0.5,0.7,0.7,1.1c0.3,0.5,0.6,1,0.9,1.5c0.2,0.5,0.4,1,0.4,1.6c0,0.8-0.3,1.5-0.8,2
	C38.4,35.1,37.7,35.4,37,35.4z M4,48v-3.1h40V48H4z"/>
</svg>
