<?xml version="1.0" encoding="utf-8"?>
<!-- Generator: Adobe Illustrator 26.3.1, SVG Export Plug-In . SVG Version: 6.00 Build 0)  -->
<svg version="1.1" id="Слой_1" xmlns="http://www.w3.org/2000/svg" xmlns:xlink="http://www.w3.org/1999/xlink" x="0px" y="0px"
	 viewBox="0 0 48 48" style="enable-background:new 0 0 48 48;" xml:space="preserve">
<path d="M4.8,43.2v-7.8H8V12.6H4.8V4.8h7.8V8h22.8V4.8h7.8v7.8H40v22.8h3.2v7.8h-7.8V40H12.6v3.2H4.8z M12.6,38.5h22.8v-3.1h3.1
	V12.6h-3.1V9.5H12.6v3.1H9.5v22.8h3.1V38.5z M16.2,32.3l7.3-18.7h0.9l7.5,18.7h-1.7l-2.3-5.6h-7.7l-2.3,5.6H16.2z M20.7,25.3h6.7
	l-3.3-8.4h-0.3L20.7,25.3z M6.3,11.1h4.8V6.3H6.3V11.1z M36.9,11.1h4.8V6.3h-4.8V11.1z M36.9,41.7h4.8v-4.8h-4.8V41.7z M6.3,41.7
	h4.8v-4.8H6.3V41.7z"/>
</svg>
