<?xml version="1.0" encoding="utf-8"?>
<!-- Generator: Adobe Illustrator 26.3.1, SVG Export Plug-In . SVG Version: 6.00 Build 0)  -->
<svg version="1.1" id="Слой_1" xmlns="http://www.w3.org/2000/svg" xmlns:xlink="http://www.w3.org/1999/xlink" x="0px" y="0px"
	 viewBox="0 0 48 48" style="enable-background:new 0 0 48 48;" xml:space="preserve">
<path d="M28,40.8c-0.2,0-0.4-0.1-0.6-0.2c-0.1-0.1-0.2-0.3-0.2-0.6c0-0.2,0.1-0.4,0.2-0.6c0.1-0.1,0.3-0.2,0.6-0.2h9.6l-7.8-5.5
	c-0.2-0.1-0.3-0.3-0.3-0.5s0-0.4,0.1-0.5c0.1-0.2,0.3-0.3,0.5-0.3s0.4,0,0.5,0.1l7.9,5.5l-3.3-9c-0.1-0.2-0.1-0.4,0-0.6
	s0.3-0.3,0.5-0.4s0.4-0.1,0.6,0s0.3,0.3,0.4,0.4l3.2,8.9l2.5-9.1c0-0.2,0.2-0.3,0.3-0.5c0.2-0.1,0.3-0.1,0.5-0.1s0.4,0.2,0.5,0.3
	c0.1,0.2,0.2,0.3,0.1,0.5L40.7,40c0,0.2-0.1,0.3-0.3,0.4c-0.1,0.1-0.3,0.2-0.5,0.2C40,40.8,28,40.8,28,40.8z M7,35v-1.5h1.5V35H7z
	 M12.1,35v-1.5h11.1c0,0.3,0,0.6,0.1,0.8c0,0.2,0,0.5,0.1,0.8C23.3,35,12.1,35,12.1,35z M7,26.9v-1.5h1.5v1.5H7z M12.1,26.9v-1.5
	h15.5c-0.3,0.2-0.6,0.5-0.8,0.7c-0.3,0.3-0.5,0.5-0.8,0.8C25.9,26.9,12.1,26.9,12.1,26.9z M7,18.7v-1.5h1.5v1.5H7z M12.1,18.7v-1.5
	H37v1.5H12.1z M7,10.5V9h1.5v1.5H7z M12.1,10.5V9H37v1.5H12.1z"/>
</svg>
