<?xml version="1.0" encoding="utf-8"?>
<!-- Generator: Adobe Illustrator 26.3.1, SVG Export Plug-In . SVG Version: 6.00 Build 0)  -->
<svg version="1.1" id="Слой_1" xmlns="http://www.w3.org/2000/svg" xmlns:xlink="http://www.w3.org/1999/xlink" x="0px" y="0px"
	 viewBox="0 0 48 48" style="enable-background:new 0 0 48 48;" xml:space="preserve">
<path d="M38,26.3c0,0.9-0.1,1.9-0.4,3c-0.2,1.1-0.6,2.1-1,3.1l-1.2-1.2c0.3-0.7,0.6-1.5,0.8-2.4s0.3-1.7,0.3-2.5
	c0-1.6-0.3-3.2-1-4.7c-0.7-1.5-1.6-2.9-2.7-4L24,9l-5.5,5.4l-1.1-1.1L24,6.8l9.9,9.7c1.2,1.2,2.2,2.7,3,4.5S38,24.5,38,26.3z
	 M40.1,42.6l-6.4-6.4c-1.1,1.2-2.6,2.1-4.3,2.8c-1.7,0.7-3.5,1-5.4,1c-3.9,0-7.2-1.3-9.9-4S10,30.1,10,26.3c0-2,0.4-3.8,1.1-5.4
	c0.7-1.7,1.7-3.1,2.9-4.3L5.7,8.2l1.1-1.1l34.4,34.4L40.1,42.6z M24,38.5c1.9,0,3.6-0.3,5.1-1s2.7-1.5,3.5-2.4L15.2,17.6
	c-1,0.9-1.8,2.1-2.5,3.6s-1.1,3.2-1.1,5.1c0,3.4,1.2,6.3,3.7,8.6S20.6,38.5,24,38.5z"/>
</svg>
