<?xml version="1.0" encoding="utf-8"?>
<!-- Generator: Adobe Illustrator 26.3.1, SVG Export Plug-In . SVG Version: 6.00 Build 0)  -->
<svg version="1.1" id="Слой_1" xmlns="http://www.w3.org/2000/svg" xmlns:xlink="http://www.w3.org/1999/xlink" x="0px" y="0px"
	 viewBox="0 0 48 48" style="enable-background:new 0 0 48 48;" xml:space="preserve">
<path d="M4,48v-3.1h40V48H4z M27.9,24.7l-5.4-5.5l-8.3,8.3c-0.2,0.2-0.3,0.5-0.3,0.8s0.1,0.6,0.3,0.8L18,33c0.2,0.2,0.5,0.3,0.8,0.3
	s0.6-0.1,0.8-0.3C19.7,33,27.9,24.7,27.9,24.7z M23.6,18.1l5.4,5.5l9.7-9.7c0.2-0.2,0.3-0.5,0.3-0.9s-0.1-0.7-0.3-0.9L35,8.4
	c-0.2-0.2-0.5-0.3-0.9-0.3s-0.7,0.1-0.9,0.3C33.3,8.5,23.6,18.1,23.6,18.1z M21.9,17.6l7.7,7.7L21,33.9c-0.6,0.6-1.3,0.9-2.2,0.9
	c-0.9,0-1.6-0.3-2.2-0.9L16,33.2L13.3,36H8.8l4.9-5l-0.4-0.4c-0.6-0.6-0.9-1.3-0.9-2.2c0-0.9,0.3-1.6,0.9-2.3
	C13.4,26.1,21.9,17.6,21.9,17.6z M21.9,17.6L32.3,7.3c0.5-0.5,1.2-0.8,1.9-0.8c0.8,0,1.4,0.3,1.9,0.8l3.7,3.7c0.5,0.5,0.8,1.2,0.8,2
	s-0.3,1.5-0.8,2L29.6,25.3L21.9,17.6z"/>
</svg>
