<?xml version="1.0" encoding="utf-8"?>
<!-- Generator: Adobe Illustrator 26.3.1, SVG Export Plug-In . SVG Version: 6.00 Build 0)  -->
<svg version="1.1" id="Слой_1" xmlns="http://www.w3.org/2000/svg" xmlns:xlink="http://www.w3.org/1999/xlink" x="0px" y="0px"
	 viewBox="0 0 48 48" style="enable-background:new 0 0 48 48;" xml:space="preserve">
<path d="M33.2,42v-1.8h5v-2.7h-3v-1.8h3V33h-5v-1.8h5.4c0.4,0,0.7,0.1,1,0.4s0.4,0.6,0.4,1v2.8c0,0.4-0.1,0.7-0.4,1
	c-0.3,0.3-0.6,0.4-1,0.4c0.4,0,0.7,0.1,1,0.4c0.3,0.3,0.4,0.6,0.4,1v2.5c0,0.4-0.1,0.7-0.4,1c-0.3,0.3-0.6,0.4-1,0.4
	C38.6,42,33.2,42,33.2,42z M33.2,29.4v-4.9c0-0.4,0.1-0.7,0.4-1c0.3-0.3,0.6-0.4,1-0.4h3.6v-2.7h-5v-1.8h5.4c0.4,0,0.7,0.1,1,0.4
	s0.4,0.6,0.4,1v3.5c0,0.4-0.1,0.7-0.4,1s-0.6,0.4-1,0.4H35v2.7h5v1.8H33.2z M36.2,16.8v-9h-3V6H38v10.8H36.2z M8,36.8v-1.5h20.6v1.5
	H8z M8,24.7v-1.5h20.6v1.5H8z M8,12.6v-1.5h20.6v1.5H8z"/>
</svg>
