<?xml version="1.0" encoding="utf-8"?>
<!-- Generator: Adobe Illustrator 26.3.1, SVG Export Plug-In . SVG Version: 6.00 Build 0)  -->
<svg version="1.1" id="Слой_1" xmlns="http://www.w3.org/2000/svg" xmlns:xlink="http://www.w3.org/1999/xlink" x="0px" y="0px"
	 viewBox="0 0 48 48" style="enable-background:new 0 0 48 48;" xml:space="preserve">
<path d="M13.7,34.6v-7.7c-2.1,0-4-0.7-5.4-2.2C6.7,23.4,6,21.6,6,19.5s0.7-3.9,2.2-5.3s3.3-2.1,5.4-2.1h12.7v1.5h-4v21h-1.5v-21
	h-5.6v21C15.2,34.6,13.7,34.6,13.7,34.6z M35.3,38l-6.6-6.4l1.1-1.1l4.8,4.6V12h1.5v23l4.8-4.6l1.1,1.1L35.3,38z M13.7,25.4V13.6
	c-1.7,0-3.1,0.6-4.3,1.7c-1.2,1.2-1.8,2.5-1.8,4.2c0,1.6,0.6,3,1.8,4.2C10.6,24.8,12,25.4,13.7,25.4z"/>
</svg>
