<?xml version="1.0" encoding="utf-8"?>
<!-- Generator: Adobe Illustrator 26.3.1, SVG Export Plug-In . SVG Version: 6.00 Build 0)  -->
<svg version="1.1" id="Слой_1" xmlns="http://www.w3.org/2000/svg" xmlns:xlink="http://www.w3.org/1999/xlink" x="0px" y="0px"
	 viewBox="0 0 48 48" style="enable-background:new 0 0 48 48;" xml:space="preserve">
<path d="M8,33V15h1.5v8.2H20V15h1.5v18H20v-8.2H9.5V33H8z M26.5,33v-7c0-0.7,0.3-1.4,0.8-1.9c0.6-0.6,1.2-0.8,1.9-0.8h8
	c0.4,0,0.7-0.1,0.9-0.3c0.2-0.2,0.3-0.5,0.3-0.9v-4.2c0-0.4-0.1-0.7-0.3-0.9c-0.2-0.2-0.5-0.3-0.9-0.3H26.5V15h10.8
	c0.8,0,1.4,0.3,1.9,0.8c0.5,0.6,0.8,1.2,0.8,1.9V22c0,0.7-0.3,1.4-0.8,1.9c-0.6,0.6-1.2,0.8-1.9,0.8h-8c-0.4,0-0.7,0.1-0.9,0.3
	c-0.3,0.3-0.4,0.6-0.4,1v5.5h12V33H26.5z"/>
</svg>
