<?xml version="1.0" encoding="utf-8"?>
<!-- Generator: Adobe Illustrator 26.3.1, SVG Export Plug-In . SVG Version: 6.00 Build 0)  -->
<svg version="1.1" id="Слой_1" xmlns="http://www.w3.org/2000/svg" xmlns:xlink="http://www.w3.org/1999/xlink" x="0px" y="0px"
	 viewBox="0 0 48 48" style="enable-background:new 0 0 48 48;" xml:space="preserve">
<path d="M3,41v-6.5l4-4V17.3l-4-4V7h1.5v4H11V7h1.5v4H19V7h1.5v6.3l-4,4v4.2h14.9v-4.2l-4-4V7H29v4h6.5V7H37v4h6.5V7H45v6.3l-4,4
	v13.2l4,4V41H29.2v-5c0-1.4-0.5-2.7-1.5-3.7s-2.3-1.5-3.7-1.5c-1.4,0-2.7,0.5-3.7,1.5s-1.5,2.3-1.5,3.7v5H3z M4.5,39.5h12.7V36
	c0-1.9,0.7-3.5,2-4.8s2.9-2,4.8-2s3.5,0.7,4.8,2s2,2.9,2,4.8v3.5h12.7v-4.3l-4-4V16.6l4.1-4.1H28.9l4.1,4.1V23H15v-6.4l4.1-4.1H4.5
	l4.1,4.1v14.5l-4,4C4.5,35.1,4.5,39.5,4.5,39.5z"/>
</svg>
