<?xml version="1.0" encoding="utf-8"?>
<!-- Generator: Adobe Illustrator 26.3.1, SVG Export Plug-In . SVG Version: 6.00 Build 0)  -->
<svg version="1.1" id="Слой_1" xmlns="http://www.w3.org/2000/svg" xmlns:xlink="http://www.w3.org/1999/xlink" x="0px" y="0px"
	 viewBox="0 0 48 48" style="enable-background:new 0 0 48 48;" xml:space="preserve">
<path d="M14.5,32.5c-0.4,0-0.7-0.2-1.1-0.5c-0.3-0.3-0.5-0.7-0.5-1.1v-2.4h23l1.3,1.3V12h2.5c0.4,0,0.7,0.2,1.1,0.5
	c0.3,0.3,0.5,0.7,0.5,1.1v25l-6.1-6.1H14.5z M6.8,31.1V7.6c0-0.4,0.2-0.8,0.5-1.1C7.6,6.2,7.9,6,8.3,6h23.8c0.4,0,0.8,0.2,1.1,0.5
	s0.5,0.7,0.5,1.1v15.7c0,0.4-0.2,0.8-0.5,1.1c-0.3,0.3-0.7,0.5-1.1,0.5H12.9L6.8,31.1z M32.2,23.4V7.5H8.3v18.6l2.8-2.8L32.2,23.4
	L32.2,23.4z M8.3,23.4V7.5V23.4z"/>
</svg>
