<?xml version="1.0" encoding="utf-8"?>
<!-- Generator: Adobe Illustrator 26.3.1, SVG Export Plug-In . SVG Version: 6.00 Build 0)  -->
<svg version="1.1" id="Слой_1" xmlns="http://www.w3.org/2000/svg" xmlns:xlink="http://www.w3.org/1999/xlink" x="0px" y="0px"
	 viewBox="0 0 48 48" style="enable-background:new 0 0 48 48;" xml:space="preserve">
<path d="M24,23.7l-16.5-11v22.5c0,0.4,0.1,0.7,0.3,0.9c0.2,0.2,0.5,0.3,0.9,0.3h18.5V38H8.8c-0.8,0-1.4-0.3-2-0.8
	C6.3,36.7,6,36,6,35.2V12.8c0-0.8,0.3-1.4,0.8-2C7.3,10.3,8,10,8.8,10h30.5c0.8,0,1.4,0.3,2,0.8c0.5,0.5,0.8,1.2,0.8,2v14.5h-1.5
	V12.7L24,23.7z M24,21.9l15.8-10.4H8.2L24,21.9z M37.5,43.5l-1.1-1.1l4.3-4.4H30v-1.5h10.9L36.4,32l1.1-1.1l6.3,6.3L37.5,43.5z
	 M7.5,12.7v25V27.2v0.4v-16C7.5,11.5,7.5,12.7,7.5,12.7z"/>
</svg>
