<?xml version="1.0" encoding="utf-8"?>
<!-- Generator: Adobe Illustrator 26.3.1, SVG Export Plug-In . SVG Version: 6.00 Build 0)  -->
<svg version="1.1" id="Слой_1" xmlns="http://www.w3.org/2000/svg" xmlns:xlink="http://www.w3.org/1999/xlink" x="0px" y="0px"
	 viewBox="0 0 48 48" style="enable-background:new 0 0 48 48;" xml:space="preserve">
<path d="M18.8,31.6v-9.8h-2.6v-1.5h4.2v11.2C20.4,31.6,18.8,31.6,18.8,31.6z M25.5,31.6c-0.6,0-1.1-0.2-1.5-0.6s-0.6-0.9-0.6-1.5
	v-7.1c0-0.6,0.2-1.1,0.6-1.5s0.9-0.6,1.5-0.6h3.6c0.6,0,1.1,0.2,1.5,0.6s0.6,0.9,0.6,1.5v7.1c0,0.6-0.2,1.1-0.6,1.5
	s-0.9,0.6-1.5,0.6H25.5z M25.5,30.1h3.8c0.2,0,0.3,0,0.3-0.1c0.1-0.1,0.1-0.2,0.1-0.3v-7.3c0-0.2,0-0.3-0.1-0.3
	C29.5,22,29.4,22,29.3,22h-3.8c-0.2,0-0.3,0-0.3,0.1c-0.2,0-0.2,0.1-0.2,0.2v7.3c0,0.2,0,0.3,0.1,0.3S25.3,30.1,25.5,30.1z M24,42
	c-2.2,0-4.3-0.4-6.2-1.2c-1.9-0.8-3.6-2-5.1-3.4c-1.5-1.5-2.6-3.2-3.4-5.1C8.4,30.3,8,28.2,8,26s0.4-4.3,1.2-6.2
	c0.8-1.9,2-3.6,3.4-5.1c1.5-1.5,3.2-2.6,5.1-3.4c1.9-0.8,4-1.2,6.2-1.2H25l-3.7-3.7l1-1.1l5.5,5.4l-5.4,5.4l-1.1-1l3.5-3.5h-1
	c-4,0-7.4,1.4-10.3,4.2c-2.6,2.8-4,6.2-4,10.2s1.4,7.4,4.2,10.3c2.8,2.8,6.2,4.2,10.2,4.2s7.4-1.4,10.3-4.2
	c2.8-2.8,4.2-6.2,4.2-10.3H40c0,2.2-0.4,4.3-1.2,6.2s-2,3.6-3.4,5.1c-1.5,1.5-3.2,2.6-5.1,3.4C28.3,41.6,26.2,42,24,42z"/>
</svg>
