<?xml version="1.0" encoding="utf-8"?>
<!-- Generator: Adobe Illustrator 26.3.1, SVG Export Plug-In . SVG Version: 6.00 Build 0)  -->
<svg version="1.1" id="Слой_1" xmlns="http://www.w3.org/2000/svg" xmlns:xlink="http://www.w3.org/1999/xlink" x="0px" y="0px"
	 viewBox="0 0 48 48" style="enable-background:new 0 0 48 48;" xml:space="preserve">
<path d="M22.1,27.8c1.6,0,2.9-0.6,4.1-1.7c1.1-1.1,1.7-2.5,1.7-4.1s-0.6-2.9-1.7-4.1c-1.1-1.1-2.5-1.7-4-1.7c-1.6,0-2.9,0.6-4.1,1.7
	C17,19,16.4,20.4,16.4,22s0.6,2.9,1.7,4.1S20.5,27.8,22.1,27.8z M32.2,33.3l-5.5-5.5c-0.7,0.5-1.4,0.9-2.2,1.2
	c-0.8,0.3-1.6,0.4-2.4,0.4c-2,0-3.8-0.7-5.2-2.1s-2.1-3.1-2.1-5.1s0.7-3.7,2.1-5.1S20,15,22,15s3.7,0.7,5.2,2.1
	c1.4,1.4,2.1,3.1,2.1,5.2c0,0.8-0.1,1.6-0.4,2.4s-0.7,1.5-1.2,2.2l5.6,5.5L32.2,33.3z M10.8,40c-0.8,0-1.4-0.3-2-0.8
	C8.3,38.7,8,38,8,37.2v-7.1h1.5v7.1c0,0.3,0.1,0.6,0.4,0.8s0.5,0.4,0.8,0.4h7.1V40H10.8z M30.2,40v-1.5h7.1c0.3,0,0.6-0.1,0.8-0.4
	c0.3-0.3,0.4-0.5,0.4-0.8v-7.1H40v7.1c0,0.8-0.3,1.4-0.8,2c-0.5,0.5-1.2,0.8-2,0.8L30.2,40L30.2,40z M8,17.8v-7.1
	c0-0.8,0.3-1.4,0.8-2C9.3,8.3,10,8,10.8,8h7.1v1.5h-7.1c-0.3,0-0.6,0.1-0.8,0.4c-0.3,0.3-0.4,0.5-0.4,0.8v7.1H8z M38.5,17.8v-7.1
	c0-0.3-0.1-0.6-0.4-0.8c-0.3-0.3-0.5-0.4-0.8-0.4h-7.1V8h7.1c0.8,0,1.4,0.3,2,0.8c0.5,0.5,0.8,1.2,0.8,2v7.1h-1.6V17.8z"/>
</svg>
