<?xml version="1.0" encoding="utf-8"?>
<!-- Generator: Adobe Illustrator 26.3.1, SVG Export Plug-In . SVG Version: 6.00 Build 0)  -->
<svg version="1.1" id="Слой_1" xmlns="http://www.w3.org/2000/svg" xmlns:xlink="http://www.w3.org/1999/xlink" x="0px" y="0px"
	 viewBox="0 0 48 48" style="enable-background:new 0 0 48 48;" xml:space="preserve">
<path d="M25,22.8v-17c0-0.2,0.1-0.4,0.2-0.6C25.3,5.1,25.5,5,25.7,5s0.4,0.1,0.5,0.2s0.2,0.3,0.2,0.5v17C26.5,22.8,25,22.8,25,22.8z
	 M17.5,22.8v-15c0-0.2,0.1-0.4,0.2-0.6C17.8,7.1,18,7,18.2,7s0.4,0.1,0.5,0.2C18.9,7.4,19,7.6,19,7.8v15H17.5z M24.9,44
	c-4.1,0-7.7-1.4-10.6-4.3c-2.9-2.9-4.3-6.4-4.3-10.5V10.8c0-0.2,0.1-0.4,0.2-0.5c0.1-0.1,0.3-0.2,0.6-0.2c0.2,0,0.4,0.1,0.5,0.2
	c0.1,0.1,0.2,0.3,0.2,0.5v18.4c0,3.7,1.3,6.8,3.9,9.4s5.7,3.9,9.5,3.9c3.7,0,6.9-1.3,9.5-3.9c2.6-2.6,4-5.8,4.1-9.5v-8.3h-1.2
	c-0.9,0-1.7,0.3-2.3,0.9c-0.7,0.6-1,1.4-1,2.3v5.6h-3.6c-1.5,0-2.7,0.5-3.7,1.5c-1,1-1.5,2.2-1.5,3.7v0.8h-1.5v-0.8
	c0-1.9,0.7-3.5,2-4.8s2.9-2,4.8-2h2.1V9.8c0-0.2,0.1-0.4,0.2-0.5C32.8,9.1,33,9,33.2,9s0.4,0.1,0.5,0.2C33.9,9.4,34,9.6,34,9.8v10.7
	c0.4-0.4,0.9-0.7,1.5-0.9c0.6-0.2,1.1-0.3,1.8-0.3H40v9.9c-0.1,4.2-1.6,7.7-4.5,10.6C32.6,42.6,29,44,24.9,44z"/>
</svg>
