<?xml version="1.0" encoding="utf-8"?>
<!-- Generator: Adobe Illustrator 26.3.1, SVG Export Plug-In . SVG Version: 6.00 Build 0)  -->
<svg version="1.1" id="Слой_1" xmlns="http://www.w3.org/2000/svg" xmlns:xlink="http://www.w3.org/1999/xlink" x="0px" y="0px"
	 viewBox="0 0 48 48" style="enable-background:new 0 0 48 48;" xml:space="preserve">
<path d="M8.7,38.5c-1.3,0-2.4-0.5-3.4-1.4c-0.9-0.9-1.3-2-1.3-3.4V22.3c0-0.8,0.3-1.4,0.8-2c0.5-0.5,1.2-0.8,1.9-0.8h11.1v-10h8.3
	c1.3,0,2.5,0.5,3.4,1.4s1.4,2.1,1.4,3.4v8.8H34v-3c0-0.3,0.1-0.7,0.2-1c0.1-0.3,0.3-0.6,0.5-0.8l2.7-2.7l7.3,13.7h-8.1
	c-0.7,0-1.3-0.2-1.8-0.7C34.3,28,34,27.4,34,26.7v-2.1h-3.1v5c0.7,0.5,1.3,1,1.7,1.7c0.4,0.7,0.6,1.5,0.6,2.3c0,1.3-0.5,2.4-1.4,3.4
	c-0.9,0.9-2.1,1.4-3.4,1.4c-1.2,0-2.2-0.4-3.1-1.1c-0.9-0.7-1.4-1.7-1.6-2.8H13.4c-0.2,1.1-0.8,2.1-1.6,2.8
	C10.9,38.1,9.9,38.5,8.7,38.5z M8.7,37c0.9,0,1.6-0.3,2.3-0.9c0.6-0.6,1-1.4,1-2.3c0-0.9-0.3-1.7-0.9-2.3c-0.6-0.6-1.4-0.9-2.3-0.9
	s-1.7,0.3-2.3,0.9c-0.6,0.6-0.9,1.4-0.9,2.3c0,0.9,0.3,1.7,1,2.3C7.1,36.6,7.9,37,8.7,37z M28.4,37c0.9,0,1.7-0.3,2.3-0.9
	c0.6-0.6,0.9-1.4,0.9-2.3c0-0.9-0.3-1.7-0.9-2.3c-0.6-0.6-1.4-0.9-2.3-0.9s-1.7,0.3-2.3,0.9c-0.6,0.6-1,1.4-1,2.3
	c0,0.9,0.3,1.7,0.9,2.3C26.7,36.6,27.5,37,28.4,37z M17.8,33V21H6.7c-0.4,0-0.7,0.1-0.9,0.3c-0.2,0.2-0.3,0.5-0.3,0.9v8
	c0.4-0.4,0.9-0.7,1.5-0.9C7.5,29.1,8.1,29,8.7,29c1.2,0,2.2,0.4,3.1,1.1s1.4,1.7,1.6,2.9H17.8z M19.4,33h4.3
	c0.2-1.2,0.7-2.1,1.6-2.9s1.9-1.1,3.1-1.1c0.1,0,0.3,0,0.5,0s0.3,0,0.5,0.1v-4.4h-10C19.4,24.7,19.4,33,19.4,33z M42.1,27.7L37,18.1
	l-0.9,1c-0.2,0.1-0.3,0.3-0.4,0.5c-0.1,0.2-0.1,0.4-0.1,0.6v6.5c0,0.3,0.1,0.5,0.3,0.7s0.4,0.3,0.7,0.3H42.1z M19.4,23.1h10v-8.8
	c0-0.9-0.3-1.7-0.9-2.3s-1.4-0.9-2.3-0.9h-6.7C19.4,11.1,19.4,23.1,19.4,23.1z M17.8,33v-4v1.3V21V33z M19.4,33v-8.3V29l0,0V33z"/>
</svg>
