<?xml version="1.0" encoding="utf-8"?>
<!-- Generator: Adobe Illustrator 26.3.1, SVG Export Plug-In . SVG Version: 6.00 Build 0)  -->
<svg version="1.1" id="Слой_1" xmlns="http://www.w3.org/2000/svg" xmlns:xlink="http://www.w3.org/1999/xlink" x="0px" y="0px"
	 viewBox="0 0 48 48" style="enable-background:new 0 0 48 48;" xml:space="preserve">
<path d="M19.8,29.5h1.5v-4.2H26v4.2h1.5v-11H26v5.2h-4.7v-5.2h-1.5V29.5z M30.3,29.5h5.4c0.6,0,1.2-0.2,1.7-0.7s0.7-1,0.7-1.7V21
	c0-0.6-0.2-1.2-0.7-1.7s-1-0.7-1.7-0.7h-5.4C30.3,18.5,30.3,29.5,30.3,29.5z M31.8,27.9v-7.8h4.1c0.2,0,0.3,0.1,0.4,0.2
	c0.1,0.1,0.2,0.3,0.2,0.4v6.6c0,0.2-0.1,0.3-0.2,0.4c-0.1,0.1-0.3,0.2-0.4,0.2C35.9,27.9,31.8,27.9,31.8,27.9z M10,29.5h1.5v-4.4H16
	v-1.5h-4.5v-3.5H17v-1.5h-7C10,18.5,10,29.5,10,29.5z M6.8,38c-0.8,0-1.4-0.3-2-0.8C4.3,36.7,4,36,4,35.2V12.8c0-0.8,0.3-1.4,0.8-2
	C5.3,10.3,6,10,6.8,10h34.5c0.8,0,1.4,0.3,2,0.8c0.5,0.5,0.8,1.2,0.8,2v22.5c0,0.8-0.3,1.4-0.8,2c-0.5,0.5-1.2,0.8-2,0.8L6.8,38
	L6.8,38z M6.8,36.5h34.5c0.4,0,0.7-0.1,0.9-0.3s0.3-0.5,0.3-0.9V12.8c0-0.4-0.1-0.7-0.3-0.9s-0.5-0.3-0.9-0.3H6.8
	c-0.4,0-0.7,0.1-0.9,0.3c-0.2,0.2-0.3,0.5-0.3,0.9v22.5c0,0.4,0.1,0.7,0.3,0.9C6.1,36.3,6.4,36.5,6.8,36.5z M5.5,36.5v-25V36.5z"/>
</svg>
