<?xml version="1.0" encoding="utf-8"?>
<!-- Generator: Adobe Illustrator 26.3.1, SVG Export Plug-In . SVG Version: 6.00 Build 0)  -->
<svg version="1.1" id="Слой_1" xmlns="http://www.w3.org/2000/svg" xmlns:xlink="http://www.w3.org/1999/xlink" x="0px" y="0px"
	 viewBox="0 0 48 48" style="enable-background:new 0 0 48 48;" xml:space="preserve">
<path d="M4,44v-1.7l10.6-3v-6.8H8v-21H6V10h5.8V7.5h24.3V10H42v1.5h-2v17.4h-6.5v5.3L44,31.3V33L4,44z M17,38.7L31,35v-6h-6.2v3.7
	H17V38.7z M9.5,31.1h13.7v-3.2H9.5C9.5,27.8,9.5,31.1,9.5,31.1z M24.8,27.4h13.7v-3.2H24.8V27.4z M9.5,26.3h13.7V11.5H9.5V26.3z
	 M24.8,22.6h13.7V11.5H24.8V22.6z M23.2,31.1v-3.2V31.1z M24.8,27.4v-3.2C24.8,24.2,24.8,27.4,24.8,27.4z"/>
</svg>
