<?xml version="1.0" encoding="utf-8"?>
<!-- Generator: Adobe Illustrator 26.3.1, SVG Export Plug-In . SVG Version: 6.00 Build 0)  -->
<svg version="1.1" id="Слой_1" xmlns="http://www.w3.org/2000/svg" xmlns:xlink="http://www.w3.org/1999/xlink" x="0px" y="0px"
	 viewBox="0 0 48 48" style="enable-background:new 0 0 48 48;" xml:space="preserve">
<path d="M24,40.9l-1.7-5.1H10.5c-1,0-1.8-0.3-2.4-1c-0.6-0.6-1-1.4-1-2.4v-22c0-1,0.3-1.8,1-2.4c0.6-0.6,1.4-1,2.4-1h10.2l1.5,5.1
	h15.4c1,0,1.8,0.3,2.4,0.9c0.6,0.6,1,1.4,1,2.4v22c0,1-0.3,1.8-0.9,2.4c-0.6,0.6-1.4,1-2.4,1L24,40.9L24,40.9z M15.8,28.4
	c2,0,3.6-0.6,4.8-1.9s1.9-2.9,1.9-4.9v-0.7c0-0.2,0-0.3-0.1-0.4h-6.7V23h3.8c-0.2,0.8-0.6,1.4-1.3,1.9c-0.6,0.4-1.4,0.7-2.3,0.7
	c-1.1,0-2.1-0.4-2.8-1.2c-0.8-0.8-1.2-1.8-1.2-2.9s0.4-2.1,1.2-2.9s1.7-1.2,2.8-1.2c0.5,0,1,0.1,1.5,0.3c0.4,0.2,0.8,0.5,1.2,0.8
	l2-2c-0.6-0.6-1.3-1.1-2.1-1.4c-0.8-0.3-1.7-0.5-2.7-0.5c-1.9,0-3.5,0.7-4.9,2c-1.3,1.4-2,3-2,4.9s0.7,3.5,2,4.9
	C12.3,27.7,13.9,28.4,15.8,28.4z M27.1,29.2l0.9-0.9c-0.4-0.5-0.7-1-1.1-1.4s-0.7-0.9-1-1.4C26,25.5,27.1,29.2,27.1,29.2z
	 M29.2,27.1c0.8-1,1.4-1.9,1.8-2.7c0.4-0.8,0.7-1.5,0.8-2h-6.7l0.5,1.8h1.7c0.2,0.4,0.5,0.9,0.8,1.3C28.4,26,28.8,26.5,29.2,27.1z
	 M25.7,39.2h11.8c0.5,0,0.9-0.2,1.2-0.5s0.5-0.7,0.5-1.2v-22c0-0.5-0.2-0.9-0.5-1.2s-0.7-0.5-1.2-0.5H22.6l2,6.9h3.3v-1.8h1.7v1.8
	h6.2v1.7h-2.2c-0.2,1.1-0.7,2.1-1.2,3.1c-0.6,1-1.2,2-2,2.9l4.6,4.5l-1.2,1.2l-4.6-4.6L27.7,31l1.4,4.7
	C29.1,35.8,25.7,39.2,25.7,39.2z"/>
</svg>
