<?xml version="1.0" encoding="utf-8"?>
<!-- Generator: Adobe Illustrator 26.3.1, SVG Export Plug-In . SVG Version: 6.00 Build 0)  -->
<svg version="1.1" id="Слой_1" xmlns="http://www.w3.org/2000/svg" xmlns:xlink="http://www.w3.org/1999/xlink" x="0px" y="0px"
	 viewBox="0 0 48 48" style="enable-background:new 0 0 48 48;" xml:space="preserve">
<path d="M24,17.9l-3.8-3.8V6h7.6v8.1L24,17.9z M33.9,27.8L30.1,24l3.8-3.8H42v7.6C42,27.8,33.9,27.8,33.9,27.8z M6,27.8v-7.6h8.1
	l3.8,3.8l-3.8,3.8C14.1,27.8,6,27.8,6,27.8z M20.2,42v-8.1l3.8-3.8l3.8,3.8V42H20.2z M24,15.8l2.3-2.3v-6h-4.5v5.9L24,15.8z
	 M7.5,26.2h6l2.3-2.2l-2.3-2.3h-6V26.2z M21.8,40.5h4.5v-6L24,32.2l-2.2,2.3V40.5z M34.5,26.2h5.9v-4.5h-5.9L32.2,24L34.5,26.2z"/>
</svg>
