<?xml version="1.0" encoding="utf-8"?>
<!-- Generator: Adobe Illustrator 26.3.1, SVG Export Plug-In . SVG Version: 6.00 Build 0)  -->
<svg version="1.1" id="Слой_1" xmlns="http://www.w3.org/2000/svg" xmlns:xlink="http://www.w3.org/1999/xlink" x="0px" y="0px"
	 viewBox="0 0 48 48" style="enable-background:new 0 0 48 48;" xml:space="preserve">
<path d="M14.5,37.8c-0.7,0-1.3-0.3-1.8-0.8S12,35.9,12,35.1V18.6l-3.5-8.2H4.9V8.8h4.6l3.1,7.2h27.1c0.5,0,0.9,0.2,1.2,0.7
	c0.3,0.4,0.3,0.9,0,1.4l-5.1,10c1.3,0.1,2.3,0.6,3.2,1.5s1.3,2.1,1.3,3.3c0,1.4-0.5,2.5-1.4,3.5s-2.1,1.4-3.4,1.4
	c-1.4,0-2.5-0.5-3.5-1.4c-0.9-1-1.4-2.1-1.4-3.5c0-0.6,0.1-1.3,0.3-1.8c0.2-0.6,0.5-1.1,1-1.5l-9.8-0.8L17,36.3
	c-0.3,0.4-0.6,0.8-1.1,1.1C15.5,37.7,15,37.8,14.5,37.8z M34,28.2l5.4-10.7H13.2l2.9,6.6c0.3,0.8,0.8,1.4,1.5,1.9s1.5,0.8,2.5,0.9
	L34,28.2z M14.5,36.2c0.3,0,0.7-0.3,1.2-0.8l4.6-6.9c-1.2-0.1-2.4-0.5-3.3-1c-1-0.5-1.7-1.4-2.2-2.6l-1.2-2.8v13
	c0,0.3,0.1,0.6,0.3,0.8C14,36.1,14.2,36.2,14.5,36.2z M35.5,36.2c0.9,0,1.7-0.3,2.4-1c0.7-0.6,1-1.4,1-2.4c0-0.9-0.3-1.7-1-2.4
	c-0.7-0.7-1.4-1-2.4-1c-0.9,0-1.7,0.3-2.4,1c-0.6,0.7-1,1.4-1,2.4c0,0.9,0.3,1.7,1,2.4C33.7,35.9,34.5,36.2,35.5,36.2z M34,28.2
	l-13.9-1.3C20.1,26.9,34,28.2,34,28.2z"/>
</svg>
