<?xml version="1.0" encoding="utf-8"?>
<!-- Generator: Adobe Illustrator 26.3.1, SVG Export Plug-In . SVG Version: 6.00 Build 0)  -->
<svg version="1.1" id="Слой_1" xmlns="http://www.w3.org/2000/svg" xmlns:xlink="http://www.w3.org/1999/xlink" x="0px" y="0px"
	 viewBox="0 0 48 48" style="enable-background:new 0 0 48 48;" xml:space="preserve">
<path d="M16,42c-1.6,0-3.1-0.6-4.2-1.8S10,37.7,10,36V16c0-1.7,0.6-3.1,1.8-4.2S14.4,10,16,10h3.2V6h1.5v4h6.5V6h1.5v4H32
	c1.7,0,3.1,0.6,4.2,1.8C37.4,13,38,14.4,38,16v20c0,1.7-0.6,3.1-1.8,4.2C35.1,41.4,33.7,42,32,42H16z M16,40.5h16
	c1.3,0,2.3-0.4,3.2-1.3c0.9-0.9,1.3-1.9,1.3-3.2V16c0-1.3-0.4-2.3-1.3-3.2c-0.9-0.9-1.9-1.3-3.2-1.3H16c-1.3,0-2.3,0.4-3.2,1.3
	c-0.9,0.9-1.3,1.9-1.3,3.2v20c0,1.3,0.4,2.3,1.3,3.2C13.7,40,14.7,40.5,16,40.5z M17,18.5h14V17H17V18.5z M24,34.1
	c1,0,1.8-0.3,2.5-1s1-1.5,1-2.4c0-0.8-0.2-1.4-0.7-1.9c-0.4-0.5-1.4-1.6-2.8-3.3c-1.4,1.7-2.4,2.8-2.8,3.3s-0.7,1.2-0.7,1.9
	c0,0.9,0.3,1.7,1,2.4C22.2,33.7,23,34.1,24,34.1z M11.5,11.5v28.9V11.5z"/>
</svg>
