<?xml version="1.0" encoding="utf-8"?>
<!-- Generator: Adobe Illustrator 26.3.1, SVG Export Plug-In . SVG Version: 6.00 Build 0)  -->
<svg version="1.1" id="Слой_1" xmlns="http://www.w3.org/2000/svg" xmlns:xlink="http://www.w3.org/1999/xlink" x="0px" y="0px"
	 viewBox="0 0 48 48" style="enable-background:new 0 0 48 48;" xml:space="preserve">
<path d="M8,43V32c0-1.3,0.5-2.5,1.4-3.4s2.1-1.4,3.4-1.4h4c2.3,0,4.1-0.7,5.4-2c1.2-1.3,1.9-2.9,1.9-4.8c0-1.1-0.3-1.9-1-2.6
	s-1.5-1-2.5-1c-0.7,0-1.3-0.2-1.8-0.7s-0.7-1.1-0.7-1.8V5h1.6v9.2c0,0.3,0.1,0.5,0.3,0.7c0.2,0.2,0.4,0.3,0.7,0.3
	c1.4,0,2.6,0.5,3.6,1.5s1.4,2.2,1.4,3.8c0,2.3-0.8,4.2-2.3,5.9c-1.5,1.6-3.7,2.4-6.5,2.4h-4c-0.9,0-1.7,0.3-2.3,0.9S9.7,31.1,9.7,32
	v11H8z M16,43h-1.5v-3c0-1.3,0.5-2.5,1.4-3.4s2.1-1.4,3.4-1.4h8c3.1,0,5.8-1.1,8-3.3s3.3-4.8,3.3-8v-2c0-3.1-1-5.7-3-7.9
	s-4.5-3.3-7.5-3.3c-0.9,0-1.7-0.3-2.4-1c-0.7-0.7-1-1.5-1-2.4V5H26v2.3c0,0.5,0.2,1,0.6,1.3C27,9,27.4,9.2,27.9,9.2
	c3.4,0,6.2,1.3,8.6,3.8s3.5,5.5,3.5,9v2c0,3.5-1.2,6.5-3.7,9s-5.5,3.7-9,3.7h-8c-0.9,0-1.7,0.3-2.3,0.9c-0.7,0.7-1,1.5-1,2.4V43z
	 M9.5,43V32c0-0.9,0.3-1.7,0.9-2.3c0.6-0.6,1.4-0.9,2.3-0.9h4c2.8,0,4.9-0.8,6.5-2.4c1.5-1.6,2.3-3.6,2.3-5.9c0-1.5-0.5-2.8-1.5-3.8
	s-2.5-1.5-4.4-1.5V5v10.2c1.9,0,3.4,0.5,4.4,1.5s1.5,2.2,1.5,3.8c0,2.3-0.8,4.2-2.3,5.9c-1.5,1.6-3.7,2.4-6.5,2.4h-4
	c-0.9,0-1.7,0.3-2.3,0.9S9.5,31.1,9.5,32C9.5,32,9.5,43,9.5,43z"/>
</svg>
