<?xml version="1.0" encoding="utf-8"?>
<!-- Generator: Adobe Illustrator 26.3.1, SVG Export Plug-In . SVG Version: 6.00 Build 0)  -->
<svg version="1.1" id="Слой_1" xmlns="http://www.w3.org/2000/svg" xmlns:xlink="http://www.w3.org/1999/xlink" x="0px" y="0px"
	 viewBox="0 0 48 48" style="enable-background:new 0 0 48 48;" xml:space="preserve">
<path d="M7.8,31.8V16.2h1.5v15.5L7.8,31.8L7.8,31.8z M12.8,35.2V18.7c0-1.6,0.6-3,1.7-4.2c1.1-1.1,2.5-1.7,4.1-1.7h10.6
	c1.6,0,3,0.6,4.2,1.7c1.1,1.1,1.7,2.5,1.7,4.2v16.5C35.2,35.2,12.8,35.2,12.8,35.2z M38.7,31.8V16.2h1.5v15.5L38.7,31.8L38.7,31.8z
	 M14.4,33.6h8.8v-8.8h-3.4v-1.5h3.4v-8.8h-4.5c-1.2,0-2.2,0.4-3,1.3c-0.8,0.8-1.3,1.9-1.3,3C14.4,18.7,14.4,33.6,14.4,33.6z
	 M24.8,33.6h8.8V18.7c0-1.2-0.4-2.2-1.3-3c-0.8-0.8-1.9-1.3-3-1.3h-4.5v8.8h3.4v1.5h-3.4V33.6z"/>
</svg>
