<?xml version="1.0" encoding="utf-8"?>
<!-- Generator: Adobe Illustrator 26.3.1, SVG Export Plug-In . SVG Version: 6.00 Build 0)  -->
<svg version="1.1" id="Слой_1" xmlns="http://www.w3.org/2000/svg" xmlns:xlink="http://www.w3.org/1999/xlink" x="0px" y="0px"
	 viewBox="0 0 48 48" style="enable-background:new 0 0 48 48;" xml:space="preserve">
<path d="M17.5,34.7V10.8c0-0.7,0.3-1.4,0.8-1.9c0.6-0.6,1.3-0.9,2-0.9h7.4c0.7,0,1.4,0.3,1.9,0.8c0.5,0.6,0.8,1.2,0.8,1.9v23.9H17.5
	V34.7z M19.1,33.2h9.8V10.8c0-0.4-0.1-0.7-0.3-0.9c-0.2-0.2-0.5-0.3-0.9-0.3h-7.4c-0.4,0-0.7,0.1-0.9,0.3c-0.2,0.2-0.3,0.5-0.3,0.9
	C19.1,10.8,19.1,33.2,19.1,33.2z M17.5,38.8v-1.5h12.9v1.5H17.5z M19.1,33.2h9.8C28.9,33.2,19.1,33.2,19.1,33.2z"/>
</svg>
