<?xml version="1.0" encoding="utf-8"?>
<!-- Generator: Adobe Illustrator 26.3.1, SVG Export Plug-In . SVG Version: 6.00 Build 0)  -->
<svg version="1.1" id="Слой_1" xmlns="http://www.w3.org/2000/svg" xmlns:xlink="http://www.w3.org/1999/xlink" x="0px" y="0px"
	 viewBox="0 0 48 48" style="enable-background:new 0 0 48 48;" xml:space="preserve">
<path d="M4.7,22.9v-2h2v2H4.7z M41.3,22.9v-2h2v2H41.3z M4.7,15.5v-2h2v2H4.7z M41.3,15.5v-2h2v2H41.3z M4.7,8V6h2v2H4.7z
	 M12.2,22.9v-2h2v2H12.2z M33.8,22.9v-2h2v2H33.8z M41.3,8V6h2v2H41.3z M12.2,8V6h2v2H12.2z M19.4,8V6h2v2H19.4z M26.6,8V6h2v2H26.6
	z M33.8,8V6h2v2H33.8z M22.4,43c-0.6,0-1.2-0.1-1.8-0.4c-0.6-0.2-1.1-0.6-1.5-1L10.5,33l1-1c0.3-0.3,0.6-0.5,1-0.5
	c0.4-0.1,0.8,0,1.1,0.1l4.4,1V15.8c0-0.2,0.1-0.4,0.2-0.5s0.3-0.2,0.6-0.2c0.2,0,0.4,0.1,0.5,0.2c0.1,0.1,0.2,0.3,0.2,0.5v18.8
	l-7-1.8l7.6,7.7c0.3,0.3,0.7,0.6,1,0.7c0.4,0.2,0.8,0.2,1.2,0.2h7.4c1.4,0,2.7-0.5,3.7-1.5s1.5-2.3,1.5-3.7v-6.6
	c0-0.2,0.1-0.4,0.2-0.5c0.1-0.1,0.3-0.2,0.6-0.2c0.2,0,0.4,0.1,0.5,0.2s0.2,0.3,0.2,0.5v6.6c0,1.9-0.7,3.5-2,4.8s-2.9,2-4.8,2
	C29.8,43,22.4,43,22.4,43z M23.7,29.9v-8c0-0.2,0.1-0.4,0.2-0.6c0.1-0.1,0.3-0.2,0.6-0.2s0.4,0.1,0.5,0.2s0.2,0.3,0.2,0.5v8h-1.5
	V29.9z M29.4,29.9v-5c0-0.2,0.1-0.4,0.2-0.5s0.3-0.2,0.6-0.2c0.2,0,0.4,0.1,0.5,0.2s0.2,0.3,0.2,0.5v5
	C30.9,29.9,29.4,29.9,29.4,29.9z M29.8,41.4h-9.7H29.8z"/>
</svg>
