<?xml version="1.0" encoding="utf-8"?>
<!-- Generator: Adobe Illustrator 26.3.1, SVG Export Plug-In . SVG Version: 6.00 Build 0)  -->
<svg version="1.1" id="Слой_1" xmlns="http://www.w3.org/2000/svg" xmlns:xlink="http://www.w3.org/1999/xlink" x="0px" y="0px"
	 viewBox="0 0 48 48" style="enable-background:new 0 0 48 48;" xml:space="preserve">
<path d="M8.8,33c-0.7,0-1.4-0.3-1.9-0.8C6.3,31.6,6,31,6,30.2V17.8c0-0.7,0.3-1.4,0.8-1.9C7.4,15.3,8,15,8.8,15h8
	c0.5,0,1,0.1,1.5,0.4c0.5,0.3,0.8,0.6,1,1.1H8.8c-0.4,0-0.7,0.1-0.9,0.3c-0.2,0.2-0.3,0.5-0.3,0.9v12.5c0,0.4,0.1,0.7,0.3,0.9
	c0.2,0.2,0.5,0.3,0.9,0.3h8c0.4,0,0.7-0.1,0.9-0.3c0.2-0.2,0.3-0.5,0.3-0.9v-5.5h-4.4v-1.5h5.9v7c0,0.7-0.3,1.4-0.8,1.9
	c-0.6,0.6-1.2,0.8-1.9,0.8h-8V33z M25.9,33V15h1.5v18H25.9z M33.8,33V15h12v1.5H35.3v6.9h8.5V25h-8.5v8H33.8z"/>
</svg>
