<?xml version="1.0" encoding="utf-8"?>
<!-- Generator: Adobe Illustrator 26.3.1, SVG Export Plug-In . SVG Version: 6.00 Build 0)  -->
<svg version="1.1" id="Слой_1" xmlns="http://www.w3.org/2000/svg" xmlns:xlink="http://www.w3.org/1999/xlink" x="0px" y="0px"
	 viewBox="0 0 48 48" style="enable-background:new 0 0 48 48;" xml:space="preserve">
<path d="M14.6,42c-0.7,0-1.3-0.2-1.9-0.7c-0.5-0.5-0.8-1-0.9-1.8L8,6h32l-3.8,33.5c-0.1,0.7-0.4,1.3-0.9,1.8S34.2,42,33.4,42H14.6z
	 M12.8,34.8l0.5,4.6c0,0.3,0.2,0.6,0.4,0.8s0.5,0.3,0.8,0.3h18.9c0.3,0,0.6-0.1,0.8-0.3s0.4-0.5,0.4-0.8l0.5-4.6
	C35.2,34.8,12.8,34.8,12.8,34.8z M12.6,33.2h22.8l2.8-25.7H9.7L12.6,33.2z M12.8,40.5h22.4H12.8z"/>
</svg>
