<?xml version="1.0" encoding="utf-8"?>
<!-- Generator: Adobe Illustrator 26.3.1, SVG Export Plug-In . SVG Version: 6.00 Build 0)  -->
<svg version="1.1" id="Слой_1" xmlns="http://www.w3.org/2000/svg" xmlns:xlink="http://www.w3.org/1999/xlink" x="0px" y="0px"
	 viewBox="0 0 48 48" style="enable-background:new 0 0 48 48;" xml:space="preserve">
<path d="M27.9,42c-1.1,0-2.2-0.2-3.2-0.7s-1.8-1.1-2.5-2l-9.5-12.5l0.6-0.6c0.2-0.3,0.5-0.4,0.9-0.5c0.3-0.1,0.7,0,1,0.1l6.6,3.1
	V8.8c0-0.2,0.1-0.4,0.2-0.5C22.2,8.1,22.4,8,22.6,8s0.4,0.1,0.5,0.2c0.1,0.1,0.2,0.3,0.2,0.5v22.6l-8.2-3.9l8.5,11.1
	c0.5,0.7,1.2,1.2,1.9,1.5c0.8,0.3,1.6,0.5,2.4,0.5h8.3c1.5,0,2.7-0.5,3.7-1.5s1.5-2.2,1.5-3.7V20.2c0-0.2,0.1-0.4,0.2-0.5
	c0.1-0.1,0.3-0.2,0.6-0.2c0.2,0,0.4,0.1,0.5,0.2s0.2,0.3,0.2,0.5v15.1c0,1.9-0.7,3.5-2,4.8s-2.9,2-4.8,2h-8.2V42z M28.4,26.4V14.8
	c0-0.2,0.1-0.4,0.2-0.5s0.3-0.2,0.6-0.2c0.2,0,0.4,0.1,0.5,0.2s0.2,0.3,0.2,0.5v11.5h-1.5V26.4z M34.9,26.4v-8.9
	c0-0.2,0.1-0.4,0.2-0.5c0.1-0.1,0.3-0.2,0.6-0.2s0.4,0.1,0.5,0.2s0.2,0.3,0.2,0.5v8.9H34.9z M9.8,19.1c-1.7,0-3.1-0.6-4.3-1.7
	s-1.7-2.5-1.7-4.2c0-1.3,0.4-2.4,1.2-3.4s1.6-2,2.4-3L9.8,4l2.4,2.8c0.8,1,1.6,1.9,2.4,2.9c0.8,1,1.2,2.1,1.2,3.4
	c0,1.7-0.6,3-1.7,4.2C12.9,18.5,11.4,19.1,9.8,19.1z M9.8,17.6c1.2,0,2.3-0.4,3.2-1.3c0.9-0.8,1.3-1.9,1.3-3.1c0-1.1-0.4-2-1.1-2.9
	c-0.7-0.8-1.4-1.7-2.2-2.5L9.7,6.5L8.5,7.9c-0.7,0.8-1.4,1.7-2.2,2.5c-0.7,0.8-1.1,1.8-1.1,2.9c0,1.2,0.4,2.3,1.3,3.1
	C7.5,17.2,8.5,17.6,9.8,17.6z"/>
</svg>
