<?xml version="1.0" encoding="utf-8"?>
<!-- Generator: Adobe Illustrator 26.3.1, SVG Export Plug-In . SVG Version: 6.00 Build 0)  -->
<svg version="1.1" id="Слой_1" xmlns="http://www.w3.org/2000/svg" xmlns:xlink="http://www.w3.org/1999/xlink" x="0px" y="0px"
	 viewBox="0 0 48 48" style="enable-background:new 0 0 48 48;" xml:space="preserve">
<path d="M12.4,5.4h1.4l6.6,15.5h-1.6l-1.6-3.7H9.1l-1.6,3.7H5.8L12.4,5.4z M11.4,25.2c1.1,0,2.1,0.4,2.8,1.2
	c0.8,0.8,1.2,1.7,1.2,2.8c0,0.6-0.1,1.2-0.4,1.7c-0.3,0.6-0.6,1-1.1,1.4l-1.5,1.4l3.2,3.2l3.2-3.1l1.1,1.1l-3.1,3.2l2.8,2.8L18.5,42
	l-2.8-2.8l-2.6,2.7c-0.4,0.4-0.9,0.8-1.4,1s-1.1,0.3-1.7,0.3c-1.1,0-2-0.4-2.8-1.1C6.4,41.2,6,40.3,6,39.2c0-0.6,0.1-1.1,0.3-1.6
	c0.2-0.5,0.6-1,1-1.4l2.8-2.6L8.6,32c-0.4-0.4-0.7-0.8-0.9-1.3c-0.2-0.5-0.3-1-0.3-1.5c0-1.1,0.4-2.1,1.2-2.9
	C9.4,25.6,10.3,25.2,11.4,25.2z M11.3,34.7l-2.8,2.6c-0.3,0.2-0.5,0.5-0.6,0.8c-0.2,0.3-0.2,0.7-0.2,1c0,0.7,0.2,1.2,0.7,1.7
	s1,0.7,1.7,0.7c0.4,0,0.7-0.1,1-0.3s0.6-0.4,0.9-0.7l2.7-2.7L11.3,34.7z M11.4,26.7c-0.7,0-1.2,0.2-1.7,0.7C9.2,28,9,28.5,9,29.2
	c0,0.3,0.1,0.6,0.2,0.9c0.1,0.3,0.3,0.6,0.5,0.8l1.7,1.7l1.5-1.4c0.3-0.3,0.6-0.6,0.8-0.9c0.2-0.4,0.3-0.7,0.3-1.1
	c0-0.7-0.2-1.3-0.7-1.8C12.7,27,12.1,26.7,11.4,26.7z M13.1,7.8l-3.3,7.8h6.8l-3.3-7.8H13.1z M34.7,4.8c0.1,0.3,0.3,0.6,0.4,0.9
	c0.1,0.3,0.2,0.6,0.3,0.9l-1.8,0.5h8.6v1.5h-2.6c-0.3,1.4-0.9,2.6-1.7,3.8s-1.7,2.2-2.7,3.2c1,0.8,2,1.4,3.1,1.9s2.2,0.9,3.4,1.2
	l-0.3,1.5c-1.3-0.3-2.6-0.8-3.8-1.4s-2.4-1.3-3.4-2.2c-1.1,0.9-2.3,1.6-3.5,2.2c-1.3,0.6-2.6,1-4,1.4l-0.4-1.4
	c1.2-0.3,2.4-0.7,3.6-1.2s2.2-1.1,3.3-1.9c-1-1-1.9-2-2.6-3.2s-1.3-2.4-1.6-3.8h-3.2V7.1h7.5c0-0.3-0.1-0.6-0.2-0.8
	C33,6,32.9,5.8,32.7,5.5L34.7,4.8z M40.3,26.5l1.1,1.1L27.3,41.7l-1.1-1.1L40.3,26.5z M29,27.3c0.5,0,0.9,0.2,1.3,0.5
	c0.3,0.3,0.5,0.8,0.5,1.3s-0.2,0.9-0.5,1.3c-0.3,0.3-0.8,0.5-1.3,0.5s-0.9-0.2-1.3-0.5c-0.3-0.3-0.5-0.8-0.5-1.3s0.2-0.9,0.5-1.3
	C28.1,27.5,28.5,27.3,29,27.3z M30.5,8.7c0.2,1.2,0.7,2.3,1.3,3.3s1.4,1.9,2.4,2.7c0.9-0.8,1.7-1.7,2.4-2.7s1.1-2.1,1.4-3.3H30.5z
	 M39,37.3c0.5,0,0.9,0.2,1.3,0.5c0.3,0.3,0.5,0.8,0.5,1.3s-0.2,0.9-0.5,1.3c-0.3,0.3-0.8,0.5-1.3,0.5s-0.9-0.2-1.3-0.5
	c-0.3-0.3-0.5-0.8-0.5-1.3s0.2-0.9,0.5-1.3C38.1,37.5,38.5,37.3,39,37.3z"/>
</svg>
