<?xml version="1.0" encoding="utf-8"?>
<!-- Generator: Adobe Illustrator 26.3.1, SVG Export Plug-In . SVG Version: 6.00 Build 0)  -->
<svg version="1.1" id="Слой_1" xmlns="http://www.w3.org/2000/svg" xmlns:xlink="http://www.w3.org/1999/xlink" x="0px" y="0px"
	 viewBox="0 0 48 48" style="enable-background:new 0 0 48 48;" xml:space="preserve">
<path d="M39.2,40.9c-0.5,0-0.9-0.2-1.2-0.5s-0.5-0.8-0.5-1.3s0.2-0.9,0.5-1.2s0.7-0.5,1.2-0.5s0.9,0.2,1.3,0.5
	c0.3,0.3,0.5,0.7,0.5,1.2s-0.2,0.9-0.5,1.3S39.8,40.9,39.2,40.9z M19.9,43c-3,0-5.6-0.3-7.7-0.8S9,41,9,40.2c0-0.6,0.8-1.2,2.4-1.7
	s3.2-0.8,4.9-1v3.1h2.9v-35l12.1,5.9L20.7,17v20.4c2.9,0.2,5.3,0.5,7.3,1.1c1.9,0.5,2.9,1.1,2.9,1.8c0,0.8-1.1,1.5-3.2,2
	C25.5,42.7,22.9,43,19.9,43z"/>
</svg>
