<?xml version="1.0" encoding="utf-8"?>
<!-- Generator: Adobe Illustrator 26.3.1, SVG Export Plug-In . SVG Version: 6.00 Build 0)  -->
<svg version="1.1" id="Слой_1" xmlns="http://www.w3.org/2000/svg" xmlns:xlink="http://www.w3.org/1999/xlink" x="0px" y="0px"
	 viewBox="0 0 48 48" style="enable-background:new 0 0 48 48;" xml:space="preserve">
<path d="M10.7,40c-0.8,0-1.4-0.3-1.9-0.8S8,38.1,8,37.4V25.2c0-1.8,0.6-3.2,1.9-4.5c1.3-1.2,2.8-1.8,4.6-1.8h8.8v-7.4L4,16.7v-1.5
	l9.9-2.7c-0.1-0.1-0.1-0.3-0.2-0.4c0-0.1-0.1-0.3-0.1-0.5c0-0.5,0.2-0.9,0.5-1.2s0.8-0.5,1.3-0.5s0.8,0.2,1.2,0.5
	c0.3,0.3,0.5,0.7,0.5,1.2l6.2-1.7V8h1.5v1.6l6.4-1.7C31.1,7.7,31,7.5,31,7.4c0-0.2-0.1-0.3-0.1-0.5c0-0.5,0.2-0.9,0.5-1.2
	s0.8-0.5,1.3-0.5s0.8,0.2,1.2,0.5c0.3,0.4,0.5,0.8,0.5,1.3L44,4.3v1.5L24.8,11v7.9h8.8c1.8,0,3.3,0.6,4.6,1.8
	c1.3,1.2,1.9,2.7,1.9,4.5v12.1c0,0.7-0.3,1.4-0.8,1.9S38.2,40,37.4,40H10.7z M9.5,38.5h28.9v-6.9H9.5C9.5,31.5,9.5,38.5,9.5,38.5z
	 M9.5,30h8.6v-9.5h-3.7c-1.3,0-2.5,0.5-3.5,1.4S9.4,24,9.4,25.3C9.5,25.2,9.5,30,9.5,30z M19.7,30h8.6v-9.5h-8.6V30z M29.8,30h8.6
	v-4.8c0-1.3-0.5-2.4-1.4-3.4c-0.9-0.9-2.1-1.4-3.5-1.4h-3.7V30z M9.5,38.5v-6.9V38.5z"/>
</svg>
