<?xml version="1.0" encoding="utf-8"?>
<!-- Generator: Adobe Illustrator 26.3.1, SVG Export Plug-In . SVG Version: 6.00 Build 0)  -->
<svg version="1.1" id="Слой_1" xmlns="http://www.w3.org/2000/svg" xmlns:xlink="http://www.w3.org/1999/xlink" x="0px" y="0px"
	 viewBox="0 0 48 48" style="enable-background:new 0 0 48 48;" xml:space="preserve">
<path d="M24,30.1c0.3,0,0.6-0.1,0.8-0.3c0.2-0.2,0.3-0.5,0.3-0.8s-0.1-0.6-0.3-0.8c-0.2-0.2-0.5-0.3-0.8-0.3s-0.6,0.1-0.8,0.3
	c-0.2,0.2-0.3,0.5-0.3,0.8s0.1,0.6,0.3,0.8S23.7,30.1,24,30.1z M23.2,25.1h1.5v-9.5h-1.5V25.1z M24,41.9c-4-1.2-7.4-3.7-10-7.4
	c-2.7-3.7-4-7.9-4-12.5V11.4l14-5.2l14,5.2V22c0,4.6-1.3,8.8-4,12.5C31.4,38.2,28,40.7,24,41.9z M24,40.3c3.6-1.2,6.6-3.4,9-6.8
	s3.5-7.2,3.5-11.4v-9.6L24,7.8l-12.5,4.7V22c0,4.2,1.2,8,3.5,11.4S20.4,39.1,24,40.3z"/>
</svg>
