<?xml version="1.0" encoding="utf-8"?>
<!-- Generator: Adobe Illustrator 26.3.1, SVG Export Plug-In . SVG Version: 6.00 Build 0)  -->
<svg version="1.1" id="Слой_1" xmlns="http://www.w3.org/2000/svg" xmlns:xlink="http://www.w3.org/1999/xlink" x="0px" y="0px"
	 viewBox="0 0 48 48" style="enable-background:new 0 0 48 48;" xml:space="preserve">
<path d="M19.6,29.3L24,25l4.4,4.4l1.2-1.1l-4.4-4.4l4.4-4.4l-1.2-1.1L24,22.6l-4.4-4.4l-1.2,1.1l4.4,4.4l-4.4,4.4
	C18.4,28.2,19.6,29.3,19.6,29.3z M24,41.9c-4-1.2-7.4-3.7-10-7.4c-2.7-3.7-4-7.9-4-12.5V11.4l14-5.2l14,5.2V22c0,4.6-1.3,8.8-4,12.5
	C31.4,38.2,28,40.7,24,41.9z M24,40.3c3.6-1.2,6.6-3.4,9-6.8s3.5-7.2,3.5-11.4v-9.6L24,7.8l-12.5,4.7V22c0,4.2,1.2,8,3.5,11.4
	S20.4,39.1,24,40.3z"/>
</svg>
