<?xml version="1.0" encoding="utf-8"?>
<!-- Generator: Adobe Illustrator 26.3.1, SVG Export Plug-In . SVG Version: 6.00 Build 0)  -->
<svg version="1.1" id="Слой_1" xmlns="http://www.w3.org/2000/svg" xmlns:xlink="http://www.w3.org/1999/xlink" x="0px" y="0px"
	 viewBox="0 0 48 48" style="enable-background:new 0 0 48 48;" xml:space="preserve">
<path d="M21.9,26.1V22H26v4.1C26.1,26.1,21.9,26.1,21.9,26.1z M17.8,30.2v-4.1h4.1v4.1H17.8z M26.1,30.2v-4.1h4.1v4.1H26.1z
	 M30.2,26.1V22h4.1v4.1H30.2z M13.7,26.1V22h4.1v4.1H13.7z M10.8,40c-0.7,0-1.4-0.3-1.9-0.8S8,38,8,37.2V10.8c0-0.8,0.3-1.4,0.8-2
	C9.4,8.3,10,8,10.8,8h26.5c0.7,0,1.4,0.3,1.9,0.8c0.5,0.6,0.8,1.2,0.8,2v26.5c0,0.7-0.3,1.4-0.8,1.9c-0.6,0.5-1.2,0.8-2,0.8H10.8z
	 M13.7,38.5h4.1v-4.1h-4.1C13.7,34.4,13.7,38.5,13.7,38.5z M21.9,38.5H26v-4.1h-4.1C21.9,34.3,21.9,38.5,21.9,38.5z M38.5,38.5v-4.1
	V38.5z M9.5,34.3h4.1v-4.1h4.1v4.1h4.1v-4.1H26v4.1h4.1v-4.1h4.1v4.1h4.1v-4.1h-4.1V26h4.1V10.8c0-0.3-0.1-0.6-0.4-0.8
	c-0.3-0.3-0.5-0.4-0.8-0.4H10.8c-0.3,0-0.6,0.1-0.8,0.4c-0.3,0.3-0.4,0.5-0.4,0.8v15.3h4.1v4.1H9.5V34.3z M10.8,38.5H9.5v-29h1.2
	c-0.3,0-0.6,0.1-0.8,0.4s-0.4,0.5-0.4,0.8v26.5c0,0.3,0.1,0.6,0.4,0.8C10.2,38.3,10.5,38.5,10.8,38.5z M38.5,26.1v4.1V26.1z
	 M30.2,34.3v4.1h4.1v-4.1H30.2z"/>
</svg>
