<?xml version="1.0" encoding="utf-8"?>
<!-- Generator: Adobe Illustrator 26.3.1, SVG Export Plug-In . SVG Version: 6.00 Build 0)  -->
<svg version="1.1" id="Слой_1" xmlns="http://www.w3.org/2000/svg" xmlns:xlink="http://www.w3.org/1999/xlink" x="0px" y="0px"
	 viewBox="0 0 48 48" style="enable-background:new 0 0 48 48;" xml:space="preserve">
<path d="M14.5,42c-1.3,0-2.4-0.4-3.3-1.3c-0.9-0.9-1.3-1.9-1.3-3.2c0-1.1,0.4-2.1,1.1-2.9c0.7-0.9,1.6-1.4,2.7-1.6V15.1
	c-1.1-0.2-2-0.7-2.7-1.6c-0.7-0.8-1.1-1.8-1.1-3c0-1.3,0.4-2.3,1.3-3.2s2-1.3,3.3-1.3s2.4,0.4,3.3,1.3s1.3,2,1.3,3.2
	c0,1.1-0.4,2.1-1.1,3c-0.7,0.8-1.6,1.4-2.7,1.6v1.2c0,1.9,0.7,3.6,2,4.9c1.3,1.3,2.9,2,4.8,2h3.8c2.3,0,4.3,0.8,5.9,2.5
	c1.6,1.6,2.4,3.6,2.4,5.9v1.3c1.1,0.2,2,0.7,2.7,1.6c0.7,0.8,1.1,1.8,1.1,2.9c0,1.3-0.5,2.4-1.4,3.3c-0.9,0.9-2,1.3-3.2,1.3
	s-2.3-0.4-3.2-1.3c-0.9-0.9-1.3-2-1.3-3.3c0-1.1,0.4-2.1,1.1-2.9c0.7-0.8,1.6-1.3,2.7-1.5v-1.3c0-1.9-0.7-3.5-2-4.8s-2.9-2-4.8-2
	h-3.8c-1.4,0-2.7-0.3-3.9-1c-1.2-0.6-2.1-1.5-2.9-2.6V33c1.1,0.2,2,0.7,2.7,1.5s1.1,1.8,1.1,2.9c0,1.3-0.4,2.4-1.3,3.3
	C16.9,41.5,15.8,42,14.5,42z M14.5,40.5c0.8,0,1.6-0.3,2.1-0.9c0.6-0.6,0.9-1.3,0.9-2.1s-0.3-1.6-0.9-2.2c-0.6-0.6-1.3-0.9-2.2-0.9
	c-0.8,0-1.5,0.3-2.1,0.9c-0.6,0.6-0.9,1.3-0.9,2.1s0.3,1.6,0.9,2.1C13,40.2,13.7,40.5,14.5,40.5z M33.5,40.5c0.8,0,1.6-0.3,2.1-0.9
	c0.6-0.6,0.9-1.3,0.9-2.1s-0.3-1.6-0.9-2.2c-0.6-0.6-1.3-0.9-2.1-0.9s-1.5,0.3-2.2,0.9c-0.6,0.6-0.9,1.3-0.9,2.1s0.3,1.6,0.9,2.1
	C31.9,40.2,32.6,40.5,33.5,40.5z M14.5,13.6c0.8,0,1.6-0.3,2.1-0.9c0.6-0.6,0.9-1.3,0.9-2.1c0-0.9-0.3-1.6-0.9-2.2s-1.3-0.9-2.2-0.9
	c-0.8,0-1.5,0.3-2.1,0.9c-0.6,0.6-0.9,1.3-0.9,2.1c0,0.8,0.3,1.6,0.9,2.1C13,13.3,13.7,13.6,14.5,13.6z"/>
</svg>
