<?xml version="1.0" encoding="utf-8"?>
<!-- Generator: Adobe Illustrator 26.3.1, SVG Export Plug-In . SVG Version: 6.00 Build 0)  -->
<svg version="1.1" id="Слой_1" xmlns="http://www.w3.org/2000/svg" xmlns:xlink="http://www.w3.org/1999/xlink" x="0px" y="0px"
	 viewBox="0 0 48 48" style="enable-background:new 0 0 48 48;" xml:space="preserve">
<path d="M24,42.9c-1.3,0-2.3-0.4-3.2-1.3c-0.9-0.9-1.3-2-1.3-3.3c0-1.1,0.4-2.1,1.1-3s1.6-1.4,2.7-1.5v-5.4
	c-0.6-0.1-1.1-0.2-1.6-0.5s-0.9-0.6-1.2-1.1L16,29.5c0.1,0.2,0.2,0.5,0.2,0.8s0.1,0.6,0.1,0.8c0,1.3-0.4,2.4-1.3,3.3
	c-0.9,0.9-2,1.3-3.2,1.3c-1.3,0-2.3-0.4-3.2-1.3c-0.9-0.9-1.3-2-1.3-3.2s0.4-2.4,1.3-3.3s2-1.3,3.2-1.3c0.7,0,1.4,0.1,2,0.4
	s1.1,0.7,1.6,1.2l4.5-2.7c-0.1-0.2-0.2-0.5-0.2-0.7c0-0.3-0.1-0.5-0.1-0.8s0-0.6,0.1-0.8c0-0.3,0.1-0.5,0.2-0.8l-4.6-2.6
	c-0.4,0.5-0.9,0.9-1.6,1.2c-0.6,0.3-1.3,0.4-2,0.4c-1.3,0-2.4-0.4-3.2-1.3c-0.9-0.9-1.3-2-1.3-3.2s0.4-2.4,1.3-3.2
	c0.9-0.9,1.9-1.3,3.2-1.3s2.4,0.4,3.3,1.3c0.9,0.9,1.4,2,1.4,3.2c0,0.3,0,0.6-0.1,0.9c0,0.3-0.1,0.5-0.2,0.8l4.6,2.6
	c0.3-0.4,0.7-0.8,1.2-1.1c0.5-0.3,1-0.5,1.6-0.5v-5.4c-1.1-0.2-2-0.7-2.7-1.5s-1.1-1.8-1.1-2.9c0-1.3,0.4-2.4,1.3-3.3
	c0.6-1,1.7-1.5,3-1.5s2.3,0.4,3.3,1.3c0.9,0.9,1.4,2,1.4,3.3c0,1.1-0.4,2.1-1.1,2.9c-0.7,0.8-1.6,1.3-2.7,1.6v5.4
	c0.5,0.1,1,0.3,1.5,0.6c0.5,0.3,0.9,0.6,1.2,1l4.6-2.6C32.1,18.2,32,18,32,17.7s-0.1-0.6-0.1-0.9c0-1.3,0.4-2.3,1.3-3.2
	s1.9-1.3,3.2-1.3s2.4,0.4,3.2,1.3c0.9,0.9,1.3,1.9,1.3,3.2s-0.4,2.4-1.3,3.3c-0.9,0.9-2,1.3-3.2,1.3c-0.7,0-1.4-0.1-2-0.4
	s-1.1-0.7-1.5-1.1l-4.6,2.6c0.1,0.2,0.2,0.5,0.2,0.7c0,0.3,0,0.5,0,0.8s0,0.5-0.1,0.8c0,0.3-0.1,0.5-0.2,0.7l4.5,2.7
	c0.4-0.5,0.9-0.9,1.5-1.2c0.6-0.3,1.2-0.4,2-0.4c1.3,0,2.3,0.4,3.2,1.3s1.3,2,1.3,3.2c0,1.3-0.4,2.4-1.3,3.3c-0.9,0.9-2,1.3-3.2,1.3
	c-1.3,0-2.4-0.4-3.2-1.3c-0.9-0.9-1.3-2-1.3-3.3c0-0.3,0-0.6,0.1-0.9c0-0.3,0.1-0.5,0.2-0.8l-4.5-2.7c-0.3,0.4-0.7,0.8-1.2,1
	c-0.5,0.3-1,0.5-1.6,0.6v5.3c1.1,0.2,2,0.7,2.7,1.5s1.1,1.8,1.1,3c0,1.3-0.5,2.4-1.4,3.3C26.3,42.5,25.2,42.9,24,42.9z M24,41.4
	c0.8,0,1.6-0.3,2.1-0.9c0.6-0.6,0.9-1.3,0.9-2.1c0-0.9-0.3-1.6-0.9-2.2c-0.6-0.6-1.3-0.9-2.2-0.9c-0.9,0-1.6,0.3-2.2,0.9
	c-0.6,0.6-0.9,1.3-0.9,2.1s0.3,1.5,0.9,2.1C22.5,41.1,23.2,41.4,24,41.4z M11.6,34.2c0.8,0,1.6-0.3,2.1-0.9c0.6-0.6,0.9-1.3,0.9-2.1
	c0-0.9-0.3-1.6-0.9-2.2c-0.6-0.6-1.3-0.9-2.2-0.9c-0.8,0-1.6,0.3-2.2,0.9c-0.6,0.6-0.9,1.3-0.9,2.1c0,0.8,0.3,1.6,0.9,2.1
	C10.1,33.9,10.8,34.2,11.6,34.2z M36.3,34.2c0.8,0,1.6-0.3,2.1-0.9c0.6-0.6,0.9-1.3,0.9-2.1c0-0.9-0.3-1.6-0.9-2.2
	c-0.6-0.6-1.3-0.9-2.2-0.9c-0.8,0-1.6,0.3-2.1,0.9c-0.6,0.6-0.9,1.3-0.9,2.1c0,0.8,0.3,1.6,0.9,2.1C34.8,33.9,35.5,34.2,36.3,34.2z
	 M24,27c0.8,0,1.6-0.3,2.1-0.9c0.6-0.6,0.9-1.3,0.9-2.1c0-0.8-0.3-1.6-0.9-2.2S24.9,21,24,21s-1.6,0.3-2.2,0.9
	C21.3,22.4,21,23.2,21,24s0.3,1.6,0.9,2.1C22.5,26.7,23.2,27,24,27z M11.6,19.9c0.8,0,1.6-0.3,2.2-0.9c0.6-0.6,0.9-1.3,0.9-2.1
	c0-0.9-0.3-1.6-0.9-2.1c-0.6-0.6-1.3-0.9-2.2-0.9c-0.8,0-1.5,0.3-2.1,0.9c-0.6,0.6-0.9,1.3-0.9,2.1c0,0.8,0.3,1.5,0.9,2.1
	C10,19.6,10.7,19.9,11.6,19.9z M36.3,19.9c0.8,0,1.6-0.3,2.1-0.9s0.9-1.3,0.9-2.1c0-0.9-0.3-1.6-0.9-2.1c-0.6-0.6-1.3-0.9-2.2-0.9
	c-0.8,0-1.6,0.3-2.1,0.9c-0.6,0.6-0.9,1.3-0.9,2.1c0,0.8,0.3,1.5,0.9,2.1C34.8,19.6,35.5,19.9,36.3,19.9z M24,12.6
	c0.8,0,1.6-0.3,2.2-0.9c0.6-0.6,0.9-1.3,0.9-2.1c0-0.9-0.3-1.6-0.9-2.2S24.9,6.5,24,6.5c-0.9,0-1.6,0.3-2.2,0.9
	C21.3,8,21,8.8,21,9.6s0.3,1.5,0.9,2.1C22.5,12.3,23.2,12.6,24,12.6z"/>
</svg>
