<?xml version="1.0" encoding="utf-8"?>
<!-- Generator: Adobe Illustrator 26.3.1, SVG Export Plug-In . SVG Version: 6.00 Build 0)  -->
<svg version="1.1" id="Слой_1" xmlns="http://www.w3.org/2000/svg" xmlns:xlink="http://www.w3.org/1999/xlink" x="0px" y="0px"
	 viewBox="0 0 48 48" style="enable-background:new 0 0 48 48;" xml:space="preserve">
<path d="M18.2,38.5v-8.6H9.5v7.4c0,0.4,0.1,0.7,0.3,0.9s0.5,0.3,0.9,0.3C10.8,38.5,18.2,38.5,18.2,38.5z M28.3,38.5v-7.9l-0.7-0.7
	h-7.9v8.6C19.7,38.5,28.3,38.5,28.3,38.5z M18.2,28.3v-7.9l-0.7-0.7h-8v8.6H18.2z M38.5,28.3v-8.6h-8.6v5.2l3.4,3.4
	C33.3,28.3,38.5,28.3,38.5,28.3z M28.3,18.2V9.5h-8.6v5.2l3.4,3.4h5.2V18.2z M38.5,18.2v-7.4c0-0.4-0.1-0.7-0.3-0.9
	s-0.5-0.3-0.9-0.3h-7.4v8.6H38.5z M40,35L13,8h24.3c0.8,0,1.4,0.3,2,0.8c0.5,0.5,0.8,1.2,0.8,2L40,35L40,35z M10.8,40
	c-0.8,0-1.4-0.3-2-0.8C8.3,38.7,8,38,8,37.2V8l32,32H10.8z M42.5,44.8L3.7,6l1.2-1.2l38.8,38.8C43.6,43.6,42.5,44.8,42.5,44.8z"/>
</svg>
