<?xml version="1.0" encoding="utf-8"?>
<!-- Generator: Adobe Illustrator 26.3.1, SVG Export Plug-In . SVG Version: 6.00 Build 0)  -->
<svg version="1.1" id="Слой_1" xmlns="http://www.w3.org/2000/svg" xmlns:xlink="http://www.w3.org/1999/xlink" x="0px" y="0px"
	 viewBox="0 0 48 48" style="enable-background:new 0 0 48 48;" xml:space="preserve">
<path d="M2,35.2v-1.5c0-1.2,0.6-2.1,1.9-2.9s2.9-1.2,4.9-1.2c0.3,0,0.6,0,0.9,0c0.3,0,0.7,0.1,1.1,0.1c-0.2,0.5-0.3,1-0.4,1.5
	c-0.1,0.5-0.2,1-0.2,1.5v2.4C10.2,35.2,2,35.2,2,35.2z M14,35.2V33c0-0.8,0.2-1.5,0.7-2.2s1.2-1.2,2.1-1.7s2-0.9,3.2-1.1
	s2.6-0.4,4-0.4c1.5,0,2.8,0.1,4.1,0.4c1.2,0.2,2.3,0.6,3.2,1.1c0.9,0.5,1.6,1.1,2.1,1.7c0.5,0.7,0.7,1.4,0.7,2.2v2.2H14z M37.8,35.2
	v-2.4c0-0.5,0-1.1-0.1-1.6s-0.2-1-0.5-1.4c0.4-0.1,0.8-0.1,1.1-0.1s0.6,0,0.9,0c2,0,3.7,0.4,4.9,1.1c1.2,0.8,1.9,1.7,1.9,2.9v1.5
	H37.8z M15.5,33.6h17V33c0.1-1.2-0.7-2.2-2.2-2.9C28.8,29.4,26.7,29,24,29c-2.6,0-4.7,0.4-6.3,1.1c-1.6,0.7-2.3,1.7-2.2,2.9
	C15.5,33.1,15.5,33.6,15.5,33.6z M8.8,28c-0.7,0-1.3-0.3-1.8-0.8s-0.8-1.1-0.8-1.8c0-0.7,0.3-1.3,0.8-1.8s1.1-0.8,1.8-0.8
	s1.3,0.3,1.8,0.8s0.8,1.1,0.8,1.9c0,0.7-0.3,1.3-0.8,1.8C10.2,27.7,9.5,28,8.8,28z M39.2,28c-0.7,0-1.3-0.3-1.8-0.8
	s-0.8-1.1-0.8-1.8c0-0.7,0.3-1.3,0.8-1.8s1.1-0.8,1.8-0.8s1.3,0.3,1.9,0.8c0.5,0.5,0.8,1.1,0.8,1.8c0,0.7-0.3,1.3-0.8,1.8
	C40.6,27.7,40,28,39.2,28z M24,26c-1.2,0-2.3-0.4-3.1-1.3c-0.9-0.9-1.3-1.9-1.3-3.1s0.4-2.3,1.3-3.1c0.9-0.8,1.9-1.3,3.1-1.3
	s2.3,0.4,3.1,1.3c0.8,0.8,1.3,1.9,1.3,3.1s-0.4,2.3-1.3,3.1C26.3,25.6,25.3,26,24,26z M24,24.5c0.8,0,1.5-0.3,2-0.8
	c0.5-0.6,0.8-1.2,0.8-2.1c0-0.8-0.3-1.5-0.8-2s-1.2-0.8-2-0.8s-1.5,0.3-2,0.8c-0.6,0.5-0.8,1.2-0.8,2s0.3,1.5,0.8,2
	S23.2,24.5,24,24.5z"/>
</svg>
