<?xml version="1.0" encoding="utf-8"?>
<!-- Generator: Adobe Illustrator 26.3.1, SVG Export Plug-In . SVG Version: 6.00 Build 0)  -->
<svg version="1.1" id="Слой_1" xmlns="http://www.w3.org/2000/svg" xmlns:xlink="http://www.w3.org/1999/xlink" x="0px" y="0px"
	 viewBox="0 0 48 48" style="enable-background:new 0 0 48 48;" xml:space="preserve">
<path d="M18.2,30.8c0.8,0,1.5-0.3,2-0.8s0.8-1.2,0.8-2s-0.3-1.5-0.8-2s-1.2-0.8-2-0.8s-1.5,0.3-2,0.8c-0.6,0.5-0.8,1.2-0.8,2
	s0.3,1.5,0.8,2C16.8,30.6,17.4,30.8,18.2,30.8z M29.8,30.8c0.8,0,1.5-0.3,2-0.8s0.8-1.2,0.8-2s-0.3-1.5-0.8-2s-1.2-0.8-2-0.8
	s-1.5,0.3-2,0.8S27,27.2,27,28s0.3,1.5,0.8,2C28.3,30.6,29,30.8,29.8,30.8z M24,20.5c0.8,0,1.5-0.3,2-0.8c0.6-0.5,0.8-1.2,0.8-2
	s-0.3-1.5-0.8-2c-0.5-0.6-1.2-0.8-2-0.8s-1.5,0.3-2,0.8c-0.6,0.5-0.8,1.2-0.8,2s0.3,1.5,0.8,2S23.2,20.5,24,20.5z M24,42
	c-2.5,0-4.8-0.5-7-1.4s-4.1-2.2-5.7-3.9c-1.6-1.6-2.9-3.5-3.9-5.7C6.5,28.8,6,26.5,6,24s0.5-4.8,1.4-7s2.2-4.1,3.9-5.7
	c1.6-1.6,3.5-2.9,5.7-3.8c2.2-1,4.5-1.5,7-1.5s4.8,0.5,7,1.4s4.1,2.2,5.7,3.8c1.6,1.6,2.9,3.5,3.8,5.7c0.9,2.2,1.4,4.5,1.4,7
	s-0.5,4.8-1.4,7s-2.2,4.1-3.8,5.7s-3.5,2.9-5.7,3.9S26.5,42,24,42z M24,40.5c4.6,0,8.5-1.6,11.7-4.8s4.8-7.1,4.8-11.7
	s-1.6-8.5-4.8-11.7S28.6,7.5,24,7.5s-8.5,1.6-11.7,4.8S7.5,19.4,7.5,24s1.6,8.5,4.8,11.7S19.4,40.5,24,40.5z"/>
</svg>
