<?xml version="1.0" encoding="utf-8"?>
<!-- Generator: Adobe Illustrator 26.3.1, SVG Export Plug-In . SVG Version: 6.00 Build 0)  -->
<svg version="1.1" id="Слой_1" xmlns="http://www.w3.org/2000/svg" xmlns:xlink="http://www.w3.org/1999/xlink" x="0px" y="0px"
	 viewBox="0 0 48 48" style="enable-background:new 0 0 48 48;" xml:space="preserve">
<path d="M6,42v-2.9c0-0.8,0.2-1.5,0.6-2.1s1-1.1,1.7-1.4c1.6-0.8,3.1-1.4,4.7-1.8c1.5-0.4,3.4-0.7,5.6-0.7s4,0.2,5.6,0.7
	c1.6,0.4,3.1,1,4.8,1.8c0.7,0.4,1.3,0.9,1.7,1.4c0.4,0.6,0.6,1.3,0.6,2.1V42H6z M34.8,42v-2.9c0-1-0.2-2-0.7-3s-1-1.7-1.8-2.4
	c0.9,0.2,1.8,0.4,2.6,0.8c0.9,0.3,1.7,0.7,2.5,1.2c0.7,0.4,1.3,0.9,1.8,1.5s0.7,1.3,0.7,2V42H34.8z M18.8,28.9
	c-1.5,0-2.7-0.5-3.8-1.5c-1-1-1.5-2.3-1.5-3.8s0.5-2.8,1.5-3.8s2.3-1.6,3.7-1.6c1.5,0,2.7,0.5,3.8,1.5c1,1,1.6,2.3,1.6,3.8
	s-0.5,2.7-1.6,3.8C21.6,28.4,20.3,28.9,18.8,28.9z M31.8,23.6c0,1.5-0.5,2.7-1.6,3.8c-1,1-2.3,1.5-3.8,1.5c-0.1,0-0.2,0-0.3,0
	c-0.1,0-0.2,0-0.3-0.1c0.6-0.7,1.1-1.6,1.4-2.4c0.3-0.9,0.5-1.8,0.5-2.8s-0.2-1.9-0.5-2.8s-0.8-1.7-1.4-2.5c0.1,0,0.2,0,0.3,0
	c0.1,0,0.2,0,0.3,0c1.5,0,2.7,0.5,3.8,1.5C31.3,20.8,31.8,22.1,31.8,23.6z M7.5,40.5h22.2v-1.4c0-0.5-0.1-0.9-0.3-1.2
	c-0.2-0.3-0.6-0.7-1.2-1c-1.4-0.8-2.9-1.3-4.4-1.7s-3.3-0.6-5.2-0.6s-3.7,0.2-5.2,0.6c-1.5,0.4-3,0.9-4.4,1.7c-0.6,0.3-1,0.6-1.2,1
	c-0.2,0.3-0.3,0.7-0.3,1.2C7.5,39.1,7.5,40.5,7.5,40.5z M18.8,27.3c1,0,1.9-0.4,2.7-1.1c0.7-0.7,1.1-1.6,1.1-2.7s-0.4-2-1.1-2.7
	s-1.6-1.1-2.7-1.1c-1,0-1.9,0.4-2.7,1.1c-0.7,0.7-1.1,1.6-1.1,2.7s0.4,2,1.1,2.7C16.9,27,17.8,27.3,18.8,27.3z M36.3,19.5
	c0-2.2-0.8-4-2.3-5.5s-3.4-2.3-5.5-2.3c2.2,0,4-0.7,5.5-2.2s2.3-3.3,2.3-5.5c0,2.2,0.7,4,2.2,5.5s3.3,2.2,5.5,2.2
	c-2.2,0-4,0.8-5.5,2.3S36.3,17.4,36.3,19.5z"/>
</svg>
