<?xml version="1.0" encoding="utf-8"?>
<!-- Generator: Adobe Illustrator 26.3.1, SVG Export Plug-In . SVG Version: 6.00 Build 0)  -->
<svg version="1.1" id="Слой_1" xmlns="http://www.w3.org/2000/svg" xmlns:xlink="http://www.w3.org/1999/xlink" x="0px" y="0px"
	 viewBox="0 0 48 48" style="enable-background:new 0 0 48 48;" xml:space="preserve">
<path d="M5.1,37.2v-2.9c0-0.9,0.2-1.7,0.7-2.4c0.5-0.7,1.2-1.2,2.1-1.6c1.9-0.8,3.7-1.5,5.3-2s3.6-0.7,5.9-0.7c1,0,1.9,0,2.7,0.1
	c0.8,0.1,1.7,0.3,2.5,0.5c-0.1,0.2-0.2,0.4-0.3,0.7c-0.1,0.2-0.2,0.5-0.3,0.7c-0.8-0.2-1.5-0.3-2.2-0.4s-1.5-0.1-2.3-0.1
	c-2.1,0-4,0.2-5.5,0.6c-1.6,0.4-3.2,1-5,1.9C8,32,7.5,32.3,7.2,32.8c-0.3,0.4-0.5,0.9-0.5,1.5v1.4h16.5c0,0.3,0.1,0.6,0.2,0.8
	c0.1,0.3,0.2,0.5,0.3,0.7C23.6,37.2,5.1,37.2,5.1,37.2z M19.1,22.8c-1.7,0-3-0.5-4.1-1.6s-1.6-2.5-1.6-4.1c0-1.7,0.5-3,1.6-4.1
	s2.5-1.6,4.1-1.6c1.7,0,3,0.5,4.1,1.6s1.6,2.5,1.6,4.1c0,1.7-0.5,3-1.6,4.1C22.2,22.2,20.8,22.8,19.1,22.8z M32.7,17
	c0,1.7-0.5,3-1.6,4.1s-2.5,1.6-4.1,1.6c-0.1,0-0.2,0-0.2,0c-0.1,0-0.1,0-0.2-0.1c0.6-0.7,1.1-1.6,1.4-2.5c0.3-1,0.5-2,0.5-3.2
	c0-1.1-0.2-2.2-0.5-3.1c-0.4-0.9-0.8-1.8-1.4-2.6c0.1,0,0.1,0,0.2,0s0.2,0,0.2,0c1.7,0,3.1,0.5,4.1,1.6C32.2,13.9,32.7,15.3,32.7,17
	z M19.1,21.2c1.2,0,2.2-0.4,3-1.2c0.8-0.8,1.2-1.8,1.2-3s-0.4-2.2-1.2-3c-0.8-0.8-1.8-1.2-3-1.2s-2.2,0.4-3,1.2
	c-0.8,0.8-1.2,1.8-1.2,3s0.4,2.2,1.2,3C16.9,20.8,17.9,21.2,19.1,21.2z M33.6,38.5c1.4,0,2.5-0.5,3.5-1.4c0.9-1,1.4-2.1,1.4-3.4
	c0-1.4-0.5-2.5-1.4-3.5c-0.9-0.9-2.1-1.4-3.5-1.4s-2.5,0.5-3.4,1.4s-1.4,2.1-1.4,3.4c0,1.4,0.5,2.5,1.4,3.5
	C31.1,38,32.2,38.5,33.6,38.5z M33.6,40c-1.8,0-3.3-0.6-4.5-1.9c-1.3-1.2-1.9-2.8-1.9-4.5c0-1.8,0.6-3.3,1.9-4.5
	c1.2-1.2,2.8-1.9,4.5-1.9c1.8,0,3.3,0.6,4.5,1.9c1.2,1.2,1.9,2.7,1.9,4.5c0,0.7-0.1,1.4-0.4,2.1c-0.2,0.7-0.6,1.3-1,1.8l4.9,4.9
	l-1,1l-4.9-4.9c-0.6,0.5-1.2,0.9-1.9,1.1C35.1,39.9,34.4,40,33.6,40z"/>
</svg>
