<?xml version="1.0" encoding="utf-8"?>
<!-- Generator: Adobe Illustrator 26.3.1, SVG Export Plug-In . SVG Version: 6.00 Build 0)  -->
<svg version="1.1" id="Слой_1" xmlns="http://www.w3.org/2000/svg" xmlns:xlink="http://www.w3.org/1999/xlink" x="0px" y="0px"
	 viewBox="0 0 48 48" style="enable-background:new 0 0 48 48;" xml:space="preserve">
<path d="M40,35l-1.5-1.5V10.8c0-0.2,0.1-0.4,0.2-0.5c0.1-0.1,0.3-0.2,0.6-0.2c0.2,0,0.4,0.1,0.5,0.2c0.1,0.1,0.2,0.3,0.2,0.5V35z
	 M17.5,12.6L16,11.1V9.9c0-0.2,0.1-0.4,0.2-0.5s0.3-0.2,0.6-0.2c0.2,0,0.4,0.1,0.5,0.2c0.1,0.1,0.2,0.3,0.2,0.5
	C17.5,9.9,17.5,12.6,17.5,12.6z M25,20.1l-1.5-1.5V5.9c0-0.2,0.1-0.4,0.2-0.5s0.3-0.2,0.6-0.2c0.2,0,0.4,0.1,0.5,0.2
	C25,5.5,25,5.7,25,5.9V20.1z M32.5,23H31V7.9c0-0.2,0.1-0.4,0.2-0.5s0.3-0.2,0.6-0.2c0.2,0,0.4,0.1,0.5,0.2c0.1,0.1,0.2,0.3,0.2,0.5
	C32.5,7.9,32.5,23,32.5,23z M37.4,39.6L17.5,19.8v12.6l-8.9-5l11,12.7c0.3,0.4,0.7,0.7,1.2,1s0.9,0.4,1.5,0.4h10.9
	c0.8,0,1.6-0.2,2.3-0.5C36.3,40.6,36.9,40.2,37.4,39.6z M22.3,43c-0.9,0-1.6-0.2-2.3-0.7c-0.7-0.5-1.3-1-1.8-1.6L7,27.7l0.3-0.5
	c0.4-0.5,1-0.8,1.7-0.9s1.3,0,1.8,0.4l5.2,3.1V18.2L3.8,6l1.1-1.1l38.8,38.8l-1.1,1.1l-4.2-4.2c-0.6,0.7-1.4,1.3-2.2,1.8
	c-0.9,0.4-1.9,0.6-2.9,0.6C33.3,43,22.3,43,22.3,43z M42.6,10.8c0-1.4-0.4-2.5-1.3-3.5c-0.9-1-2-1.5-3.3-1.5V4.2
	c1.8,0,3.2,0.7,4.4,2s1.7,2.8,1.7,4.6C44.1,10.8,42.6,10.8,42.6,10.8z M11.7,43.5c-2,0-3.7-0.7-5.1-2.1c-1.4-1.4-2.1-3.1-2.1-5.1H6
	c0,1.6,0.6,2.9,1.7,4s2.4,1.7,4,1.7C11.7,42,11.7,43.5,11.7,43.5z"/>
</svg>
