<?xml version="1.0" encoding="utf-8"?>
<!-- Generator: Adobe Illustrator 26.3.1, SVG Export Plug-In . SVG Version: 6.00 Build 0)  -->
<svg version="1.1" id="Слой_1" xmlns="http://www.w3.org/2000/svg" xmlns:xlink="http://www.w3.org/1999/xlink" x="0px" y="0px"
	 viewBox="0 0 48 48" style="enable-background:new 0 0 48 48;" xml:space="preserve">
<path d="M22.5,34.3c-2.1,0-3.8-0.7-5.3-2.2c-1.4-1.5-2.2-3.3-2.3-5.4c-3,0-5.6-1.1-7.7-3.1S4,19.1,4,16.1c0-0.6,0.2-1.2,0.7-1.7
	s1-0.7,1.7-0.7h9.2V9.5h-4.3V8h10v1.5h-4.2v4.2h7.2c0.4,0,0.8,0.1,1.1,0.2c0.3,0.1,0.6,0.3,0.9,0.6l16.1,15.9c1.1,1.1,1.7,2.4,1.7,4
	c0,1.5-0.5,2.9-1.7,4c-1.1,1.1-2.4,1.7-4,1.7c-1.5,0-2.9-0.6-4-1.7l-4.1-4.1C30.3,34.3,22.5,34.3,22.5,34.3z M22.5,26.7h-5.8
	c-0.1,1.7,0.5,3.1,1.6,4.3c1.1,1.2,2.5,1.8,4.2,1.8h6.2L22.5,26.7z M24.8,15.3H6.4c-0.2,0-0.4,0.1-0.6,0.2c-0.2,0.2-0.3,0.4-0.2,0.6
	c0,2.6,0.9,4.7,2.8,6.5c1.8,1.7,4,2.6,6.6,2.6h8.3l12.3,12.1c0.8,0.8,1.8,1.2,2.9,1.2c1.1,0,2.1-0.4,2.9-1.2
	c0.8-0.8,1.2-1.8,1.2-2.9c0-1.1-0.4-2.1-1.2-2.9C41.2,31.5,24.8,15.3,24.8,15.3z"/>
</svg>
