<?xml version="1.0" encoding="utf-8"?>
<!-- Generator: Adobe Illustrator 26.3.1, SVG Export Plug-In . SVG Version: 6.00 Build 0)  -->
<svg version="1.1" id="Слой_1" xmlns="http://www.w3.org/2000/svg" xmlns:xlink="http://www.w3.org/1999/xlink" x="0px" y="0px"
	 viewBox="0 0 48 48" style="enable-background:new 0 0 48 48;" xml:space="preserve">
<path d="M23.4,40.3c0.3,0,0.6-0.1,0.9-0.2c0.3-0.1,0.6-0.3,0.7-0.5l15.8-15.8c0.5-0.5,0.9-1,1.2-1.6s0.4-1.2,0.4-1.8
	c0-0.7-0.1-1.3-0.4-1.9c-0.3-0.6-0.7-1.2-1.2-1.7L33.1,9c-0.5-0.5-1-0.9-1.6-1.1c-0.6-0.3-1.2-0.4-1.8-0.4c-0.7,0-1.3,0.1-1.8,0.4
	c-0.6,0.3-1.1,0.6-1.6,1.1l-1.9,1.9l3.9,3.9c0.4,0.4,0.7,0.8,0.9,1.3c0.2,0.5,0.4,1,0.4,1.6c0,1-0.4,1.8-1.1,2.5s-1.5,1-2.5,1
	c-0.6,0-1.1-0.1-1.6-0.3c-0.5-0.2-0.9-0.4-1.3-0.8l-3.8-3.8l-8.8,8.8c-0.2,0.2-0.4,0.5-0.5,0.8s-0.2,0.6-0.2,0.9
	c0,0.5,0.2,1,0.5,1.3s0.8,0.5,1.3,0.5c0.3,0,0.6-0.1,0.9-0.2c0.3-0.1,0.5-0.3,0.7-0.5l6.4-6.4l1.1,1.1L14.4,29
	c-0.2,0.2-0.4,0.5-0.5,0.8s-0.2,0.6-0.2,0.9c0,0.5,0.2,0.9,0.5,1.3c0.4,0.4,0.8,0.5,1.3,0.5c0.3,0,0.6-0.1,0.9-0.2
	c0.3-0.1,0.5-0.3,0.7-0.5l6.9-6.9l1.1,1.1l-6.9,6.8c-0.2,0.2-0.3,0.5-0.5,0.8c-0.1,0.3-0.2,0.6-0.2,0.9c0,0.5,0.2,0.9,0.5,1.3
	c0.4,0.4,0.8,0.5,1.3,0.5c0.3,0,0.6-0.1,0.9-0.2s0.5-0.3,0.8-0.5l6.9-6.9l1.1,1.1l-6.9,6.9c-0.2,0.2-0.4,0.5-0.5,0.8
	s-0.2,0.6-0.2,0.9c0,0.5,0.2,1,0.5,1.3C22.4,40.2,22.9,40.3,23.4,40.3z M23.4,41.9c-1,0-1.8-0.4-2.5-1.1c-0.7-0.7-1-1.7-0.9-2.8
	c-1.1,0-2.1-0.3-2.8-1c-0.8-0.7-1.1-1.7-1.1-2.9c-1.2,0-2.2-0.3-2.9-1s-1-1.7-1-2.9c-1.1,0-2-0.2-2.8-0.8c-0.8-0.6-1.1-1.4-1.1-2.5
	c0-0.5,0.1-1,0.3-1.5s0.5-0.9,0.8-1.3l9.9-9.9l4.7,4.7c0.2,0.2,0.5,0.4,0.9,0.6c0.3,0.2,0.7,0.2,1.1,0.2c0.5,0,1-0.2,1.4-0.6
	s0.6-0.9,0.6-1.4c0-0.3-0.1-0.6-0.2-0.9c-0.2-0.3-0.4-0.6-0.6-0.9l-7-6.9c-0.5-0.5-1-0.9-1.6-1.1c-0.6-0.3-1.2-0.4-1.9-0.4
	c-0.7,0-1.3,0.1-1.8,0.4c-0.5,0.3-1.1,0.6-1.6,1.1L7,15.3c-0.5,0.5-0.9,1.1-1.2,1.7c-0.3,0.6-0.4,1.3-0.4,2.1c0,0.5,0.1,1.1,0.3,1.6
	c0.2,0.5,0.4,1,0.7,1.4l-1.2,1.2c-0.4-0.5-0.7-1.2-0.9-1.9C4.2,20.7,4,19.9,4,19.1c0-0.9,0.1-1.8,0.5-2.7c0.3-0.8,0.8-1.6,1.5-2.2
	l6.3-6.3c0.7-0.7,1.4-1.1,2.1-1.5C15.1,6.1,15.9,6,16.8,6s1.7,0.2,2.4,0.5c0.7,0.3,1.5,0.8,2.1,1.5l1.9,1.9L25.1,8
	c0.7-0.7,1.4-1.1,2.1-1.5C28,6.1,28.8,6,29.7,6c0.9,0,1.7,0.2,2.5,0.5s1.5,0.8,2.1,1.5l7.7,7.7c0.7,0.7,1.2,1.4,1.5,2.3
	c0.4,0.8,0.5,1.7,0.5,2.6s-0.2,1.7-0.5,2.4c-0.4,0.8-0.9,1.5-1.5,2.1L26.1,40.8c-0.4,0.4-0.8,0.7-1.3,0.9
	C24.4,41.8,23.9,41.9,23.4,41.9z"/>
</svg>
