<?xml version="1.0" encoding="utf-8"?>
<!-- Generator: Adobe Illustrator 26.3.1, SVG Export Plug-In . SVG Version: 6.00 Build 0)  -->
<svg version="1.1" id="Слой_1" xmlns="http://www.w3.org/2000/svg" xmlns:xlink="http://www.w3.org/1999/xlink" x="0px" y="0px"
	 viewBox="0 0 48 48" style="enable-background:new 0 0 48 48;" xml:space="preserve">
<path d="M12.3,30.2c-0.1,0.1-0.3,0.1-0.4,0c-0.1,0-0.2-0.1-0.3-0.2l-1.1-3c-0.1-0.2-0.1-0.4-0.1-0.6s0.1-0.3,0.2-0.4
	c0.4-0.1,0.7-0.1,1,0.2c0.3,0.3,0.5,0.6,0.7,1l0.8,2.1c0,0.1,0,0.2,0,0.4c0,0.1-0.1,0.2-0.3,0.3L12.3,30.2z M22.2,41.7
	c-0.4,0-0.8-0.1-1.2-0.3c-0.4-0.2-0.7-0.4-0.9-0.8l-6.3-7.5c-0.1-0.2-0.2-0.3-0.2-0.6c0-0.2,0.1-0.4,0.3-0.5
	c0.2-0.1,0.3-0.2,0.6-0.2c0.2,0,0.4,0.1,0.5,0.3l5.1,6.1v-3.7c0-0.2,0-0.3,0-0.5c0-0.1,0.1-0.3,0.2-0.5l-2.2-6.3
	c-0.1-0.2-0.1-0.4,0-0.6s0.2-0.3,0.4-0.4c0.2-0.1,0.4,0,0.6,0.1s0.3,0.2,0.4,0.4l2.1,6h3v-6.8c0-0.2,0.1-0.4,0.2-0.5
	s0.3-0.2,0.6-0.2c0.2,0,0.4,0.1,0.5,0.2s0.2,0.3,0.2,0.5V33h2.7l1.2-5c0-0.2,0.2-0.4,0.3-0.5c0.2-0.1,0.4-0.1,0.6-0.1
	s0.4,0.2,0.5,0.3c0.1,0.2,0.1,0.4,0.1,0.6l-1,4.7h1.8c0.1,0,0.2,0,0.4,0s0.2,0.1,0.4,0.1l0.9-2.2c0.1-0.2,0.2-0.3,0.4-0.5
	c0.2-0.1,0.4-0.1,0.6,0c0.2,0.1,0.3,0.2,0.4,0.4c0.1,0.2,0.1,0.4,0,0.6L34,34.9v5.2c0,0.4-0.2,0.8-0.5,1.1s-0.7,0.5-1.1,0.5H22.2z
	 M16.9,14.2c-0.1,0-0.3,0-0.4-0.1s-0.2-0.2-0.2-0.4L16,10.5c0-0.2,0-0.4,0.1-0.6c0.1-0.2,0.3-0.3,0.5-0.3s0.4,0,0.6,0.2
	c0.2,0.1,0.3,0.3,0.3,0.5l0.4,3.2c0,0.1,0,0.3-0.1,0.4c-0.1,0.1-0.2,0.2-0.3,0.2C17.5,14.1,16.9,14.2,16.9,14.2z M17.9,23.2
	c-0.1,0-0.2,0-0.4-0.1c-0.1-0.1-0.2-0.2-0.2-0.3l-0.5-4.4c0-0.2,0-0.4,0.1-0.6s0.3-0.3,0.5-0.3s0.4,0,0.6,0.2
	c0.2,0.1,0.3,0.3,0.3,0.5l0.5,4.2c0,0.1,0,0.3-0.1,0.4S18.5,23,18.4,23C18.4,23,17.9,23.2,17.9,23.2z M21.5,40.2h10.9v-5.7H21.5
	V40.2z M25.1,22c-0.1,0-0.3,0-0.4-0.1s-0.1-0.2-0.1-0.4v-4.2c0-0.2,0.1-0.4,0.2-0.5s0.3-0.2,0.6-0.2c0.2,0,0.4,0.1,0.5,0.2
	s0.2,0.3,0.2,0.5v4.2c0,0.1,0,0.3-0.1,0.4C25.9,22,25.8,22,25.7,22H25.1z M25.1,13.2c-0.1,0-0.3,0-0.4-0.1s-0.1-0.2-0.1-0.4V8.4
	c0-0.2,0.1-0.4,0.2-0.5s0.3-0.2,0.6-0.2c0.2,0,0.4,0.1,0.5,0.2s0.2,0.3,0.2,0.5v4.2c0,0.1,0,0.3-0.1,0.4c-0.1,0.1-0.2,0.1-0.3,0.1
	C25.7,13.2,25.1,13.2,25.1,13.2z M31.9,24.2L31.3,24c-0.1,0-0.3-0.1-0.4-0.2s-0.1-0.2-0.1-0.4l0.5-4.3c0-0.2,0.1-0.4,0.3-0.5
	c0.2-0.1,0.4-0.2,0.6-0.2c0.2,0,0.4,0.2,0.5,0.3c0.1,0.2,0.2,0.3,0.1,0.5l-0.5,4.5c0,0.1-0.1,0.2-0.2,0.3
	C32.2,24.2,32,24.2,31.9,24.2z M32.9,15.4l-0.6-0.1c-0.1,0-0.2-0.1-0.3-0.2c-0.1-0.1-0.1-0.2-0.1-0.4l0.4-3.3c0-0.2,0.2-0.4,0.3-0.5
	c0.2-0.1,0.3-0.2,0.6-0.2c0.2,0.1,0.4,0.2,0.5,0.3c0.1,0.2,0.2,0.3,0.1,0.5l-0.3,3.2c0,0.1-0.1,0.2-0.2,0.4
	C33.2,15.4,33.1,15.4,32.9,15.4z M36.1,27.4l-0.5-0.2c-0.1-0.1-0.2-0.1-0.3-0.3c-0.1-0.1-0.1-0.2-0.1-0.4l0.5-2
	c0-0.2,0.2-0.4,0.3-0.5c0.2-0.1,0.4-0.1,0.6-0.1c0.2,0.1,0.3,0.2,0.5,0.3c0.1,0.2,0.1,0.3,0.1,0.5L36.8,27c0,0.1-0.1,0.2-0.3,0.3
	C36.4,27.4,36.2,27.4,36.1,27.4z M38.2,21l-0.5-0.1c-0.1,0-0.2-0.1-0.3-0.3c-0.1-0.1-0.1-0.3-0.1-0.4l0.6-2.2
	c0.1-0.3,0.2-0.6,0.3-0.9s0.3-0.4,0.6-0.4c0.4,0.1,0.6,0.3,0.7,0.7c0.1,0.4,0,0.8-0.1,1.2l-0.5,2c0,0.1-0.1,0.2-0.3,0.3
	C38.5,21,38.3,21,38.2,21z M21.5,40.2h10.9C32.5,40.2,21.5,40.2,21.5,40.2z"/>
</svg>
