<?xml version="1.0" encoding="utf-8"?>
<!-- Generator: Adobe Illustrator 26.3.1, SVG Export Plug-In . SVG Version: 6.00 Build 0)  -->
<svg version="1.1" id="Слой_1" xmlns="http://www.w3.org/2000/svg" xmlns:xlink="http://www.w3.org/1999/xlink" x="0px" y="0px"
	 viewBox="0 0 48 48" style="enable-background:new 0 0 48 48;" xml:space="preserve">
<path d="M42.6,10.8c0-1.4-0.4-2.5-1.3-3.5c-0.9-1-2-1.5-3.3-1.5V4.2c1.8,0,3.2,0.7,4.4,2s1.7,2.8,1.7,4.6
	C44.1,10.8,42.6,10.8,42.6,10.8z M11.7,43.5c-2,0-3.7-0.7-5.1-2.1c-1.4-1.4-2.1-3.1-2.1-5.1H6c0,1.6,0.6,2.9,1.7,4s2.4,1.7,4,1.7
	C11.7,42,11.7,43.5,11.7,43.5z M21.8,43c-0.8,0-1.5-0.2-2.2-0.5c-0.7-0.4-1.3-0.9-1.7-1.6L5.6,22.8l0.3-0.3c0.4-0.3,0.8-0.5,1.4-0.6
	c0.5-0.1,1.1,0.1,1.6,0.5l7.1,5.1V9.9c0-0.2,0.1-0.4,0.2-0.5s0.3-0.2,0.6-0.2c0.2,0,0.4,0.1,0.5,0.2c0.1,0.1,0.2,0.3,0.2,0.5v20.6
	l-9.4-6.7l11.1,16.3c0.3,0.4,0.7,0.8,1.1,1c0.5,0.2,1,0.4,1.5,0.4h11.4c1.5,0,2.7-0.5,3.7-1.5s1.5-2.2,1.5-3.7V10.8
	c0-0.2,0.1-0.4,0.2-0.5c0.1-0.1,0.3-0.2,0.6-0.2c0.2,0,0.4,0.1,0.5,0.2c0.1,0.1,0.2,0.3,0.2,0.5v25.5c0,1.9-0.7,3.5-2,4.8
	s-2.9,2-4.8,2L21.8,43L21.8,43z M23.5,23V5.9c0-0.2,0.1-0.4,0.2-0.5s0.3-0.2,0.6-0.2c0.2,0,0.4,0.1,0.5,0.2C25,5.5,25,5.7,25,5.9V23
	H23.5z M31,23V7.9c0-0.2,0.1-0.4,0.2-0.5s0.3-0.2,0.6-0.2s0.4,0.1,0.5,0.2c0.1,0.1,0.2,0.3,0.2,0.5V23H31z"/>
</svg>
