<?xml version="1.0" encoding="utf-8"?>
<!-- Generator: Adobe Illustrator 26.3.1, SVG Export Plug-In . SVG Version: 6.00 Build 0)  -->
<svg version="1.1" id="Слой_1" xmlns="http://www.w3.org/2000/svg" xmlns:xlink="http://www.w3.org/1999/xlink" x="0px" y="0px"
	 viewBox="0 0 48 48" style="enable-background:new 0 0 48 48;" xml:space="preserve">
<path d="M21.2,17.2h6.4v6.4L21.2,17.2z M27.1,23.1l7.2-5.8v13C34.2,30.3,27.1,23.1,27.1,23.1z M41.3,37.3c0.2-0.2,0.5-0.5,0.6-0.9
	c0.2-0.4,0.3-0.8,0.3-1.3V12.9c0-0.8-0.3-1.4-0.8-2c-0.5-0.5-1.2-0.8-2-0.8H14.1l1.5,1.5h23.8c0.4,0,0.7,0.1,0.9,0.4
	c0.2,0.2,0.3,0.5,0.3,0.9v22.9c0,0.2,0,0.3,0,0.4c0,0.1-0.1,0.2-0.2,0.3C40.4,36.4,41.3,37.3,41.3,37.3z M9.1,10.1l1.5,1.5H9.1
	c-0.4,0-0.7,0.1-0.9,0.4c-0.2,0.2-0.3,0.5-0.3,0.9V35c0,0.4,0.1,0.7,0.3,0.9s0.5,0.3,0.9,0.3h24l-5.7-5.7H14.2V17.4l-10-10l1.1-1.1
	l37.1,37.1l-1.1,1.1l-6.6-6.7H9.1c-0.8,0-1.4-0.3-2-0.8c-0.5-0.5-0.8-1.2-0.8-2V12.9c0-0.7,0.2-1.4,0.7-1.9s1.1-0.8,1.9-0.9H9.1z"/>
</svg>
