<?xml version="1.0" encoding="utf-8"?>
<!-- Generator: Adobe Illustrator 26.3.1, SVG Export Plug-In . SVG Version: 6.00 Build 0)  -->
<svg version="1.1" id="Слой_1" xmlns="http://www.w3.org/2000/svg" xmlns:xlink="http://www.w3.org/1999/xlink" x="0px" y="0px"
	 viewBox="0 0 48 48" style="enable-background:new 0 0 48 48;" xml:space="preserve">
<path d="M19.8,27.5h6.8c0.5,0,0.9-0.2,1.2-0.5c0.3-0.3,0.5-0.7,0.5-1.2v-1.3l3.4,2.1v-8.5l-3.4,2.1v-1.3c0-0.5-0.2-0.9-0.5-1.2
	c-0.3-0.3-0.7-0.5-1.2-0.5h-6.8c-0.5,0-0.9,0.2-1.2,0.5c-0.3,0.3-0.5,0.7-0.5,1.2v6.8c0,0.5,0.2,0.9,0.5,1.2
	C18.9,27.4,19.3,27.5,19.8,27.5z M24,42.8v-5.9c-2.1,0-4-0.4-5.9-1.2c-1.8-0.8-3.5-1.8-4.9-3.1s-2.5-2.8-3.3-4.6
	c-0.8-1.7-1.2-3.6-1.2-5.5c0-2.1,0.4-4.1,1.2-6s1.9-3.5,3.2-4.8c1.4-1.4,3-2.5,4.8-3.3c1.9-0.8,3.8-1.2,6-1.2c2.1,0,4.1,0.4,5.9,1.2
	s3.5,1.9,4.8,3.3c1.4,1.4,2.5,3,3.3,4.8s1.2,3.8,1.2,5.9c0,3.9-1.4,7.6-4.1,11.2C32.4,37.3,28.7,40.4,24,42.8z M27.4,36.7
	c2.7-2,4.8-4.3,6.3-6.8s2.2-5,2.2-7.5c0-3.3-1.2-6.1-3.5-8.4s-5.1-3.5-8.4-3.5s-6.1,1.2-8.4,3.5s-3.5,5.1-3.5,8.4
	c0,3,1.2,5.5,3.6,7.7s5.1,3.3,8.3,3.3h3.4C27.4,33.4,27.4,36.7,27.4,36.7z"/>
</svg>
