<?xml version="1.0" encoding="utf-8"?>
<!-- Generator: Adobe Illustrator 26.3.1, SVG Export Plug-In . SVG Version: 6.00 Build 0)  -->
<svg version="1.1" id="Слой_1" xmlns="http://www.w3.org/2000/svg" xmlns:xlink="http://www.w3.org/1999/xlink" x="0px" y="0px"
	 viewBox="0 0 48 48" style="enable-background:new 0 0 48 48;" xml:space="preserve">
<path d="M21.9,40c-0.4,0-0.7-0.2-1-0.5s-0.4-0.7-0.4-1.1V14h-8.8c0.4-1.8,1.3-3.2,2.7-4.3S17.5,8,19.3,8h9.2v6.3L34.8,8h1.5v14.1
	h-1.5l-6.2-6.3v22.5c0,0.4-0.2,0.8-0.5,1.1s-0.7,0.5-1.1,0.5C26.9,40,21.9,40,21.9,40z M22.1,38.5H27V25.6h-4.9V38.5z M22.1,24H27
	V9.5h-7.7c-1.1,0-2.1,0.3-3.1,0.8s-1.7,1.2-2.3,2.1H22C22.1,12.5,22.1,24,22.1,24z"/>
</svg>
