<?xml version="1.0" encoding="utf-8"?>
<!-- Generator: Adobe Illustrator 26.3.1, SVG Export Plug-In . SVG Version: 6.00 Build 0)  -->
<svg version="1.1" id="Слой_1" xmlns="http://www.w3.org/2000/svg" xmlns:xlink="http://www.w3.org/1999/xlink" x="0px" y="0px"
	 viewBox="0 0 48 48" style="enable-background:new 0 0 48 48;" xml:space="preserve">
<path d="M13.2,29.5h1.5v-4.2h5.7v4.2H22v-11h-1.5v5.2h-5.7v-5.2h-1.5C13.2,18.5,13.2,29.5,13.2,29.5z M26,29.5h6.4
	c0.6,0,1.2-0.2,1.7-0.7s0.7-1,0.7-1.7V21c0-0.6-0.2-1.2-0.7-1.7s-1-0.7-1.7-0.7H26C26,18.5,26,29.5,26,29.5z M27.5,27.9v-7.8h5.1
	c0.2,0,0.3,0.1,0.4,0.2c0.1,0.1,0.2,0.3,0.2,0.4v6.6c0,0.2-0.1,0.3-0.2,0.4c-0.1,0.1-0.3,0.2-0.4,0.2H27.5z M8.8,38
	c-0.8,0-1.4-0.3-2-0.8C6.3,36.7,6,36,6,35.2V12.8c0-0.8,0.3-1.4,0.8-2C7.3,10.3,8,10,8.8,10h30.5c0.8,0,1.4,0.3,2,0.8
	c0.5,0.5,0.8,1.2,0.8,2v22.5c0,0.8-0.3,1.4-0.8,2c-0.5,0.5-1.2,0.8-2,0.8L8.8,38L8.8,38z M8.8,36.5h30.5c0.3,0,0.6-0.1,0.8-0.4
	c0.3-0.3,0.4-0.5,0.4-0.8V12.8c0-0.3-0.1-0.6-0.4-0.8c-0.3-0.3-0.5-0.4-0.8-0.4H8.8c-0.3,0-0.6,0.1-0.8,0.4
	c-0.3,0.3-0.4,0.5-0.4,0.8v22.5c0,0.3,0.1,0.6,0.4,0.8C8.2,36.3,8.5,36.5,8.8,36.5z M7.5,36.5v-25V36.5z"/>
</svg>
