<?xml version="1.0" encoding="utf-8"?>
<!-- Generator: Adobe Illustrator 26.3.1, SVG Export Plug-In . SVG Version: 6.00 Build 0)  -->
<svg version="1.1" id="Слой_1" xmlns="http://www.w3.org/2000/svg" xmlns:xlink="http://www.w3.org/1999/xlink" x="0px" y="0px"
	 viewBox="0 0 48 48" style="enable-background:new 0 0 48 48;" xml:space="preserve">
<path d="M30,34.7v-3.2h-3.2v-1.4H30v-3.2h1.4v3.2h3.2v1.4h-3.2v3.2C31.4,34.7,30,34.7,30,34.7z M14.5,23.2V12.4h1.4v4.2h5.8v-4.2
	h1.4v10.8h-1.4V18h-5.8v5.2C15.9,23.2,14.5,23.2,14.5,23.2z M26.9,23.2V12.4h5c0.8,0,1.4,0.3,1.9,0.8s0.8,1.1,0.8,1.9v5.5
	c0,0.8-0.3,1.4-0.8,1.9s-1.1,0.7-1.9,0.7C31.9,23.2,26.9,23.2,26.9,23.2z M20.4,32.2c0.4,0,0.8-0.1,1.1-0.4c0.3-0.3,0.4-0.6,0.4-1.1
	v-0.8c0-0.4-0.1-0.8-0.4-1.1c-0.3-0.3-0.6-0.4-1.1-0.4h-4.3v3.8C16.1,32.2,20.4,32.2,20.4,32.2z M21.3,37.7l-1.7-4.2h-3.5v4.2h-1.4
	V26.9h5.9c0.7,0,1.3,0.3,1.9,0.8c0.5,0.5,0.8,1.1,0.8,1.8v1.4c0,0.7-0.2,1.2-0.6,1.7s-0.9,0.8-1.6,0.9l1.7,4.2
	C22.8,37.7,21.3,37.7,21.3,37.7z M28.3,21.8h3.4c0.4,0,0.8-0.1,1.1-0.4s0.4-0.7,0.4-1.1v-4.9c0-0.4-0.1-0.8-0.4-1.1
	c-0.3-0.3-0.6-0.4-1.1-0.4h-3.4V21.8z M24,42c-2.5,0-4.9-0.5-7-1.4c-2.2-0.9-4.1-2.2-5.7-3.8s-2.9-3.5-3.8-5.7C6.5,28.9,6,26.5,6,24
	s0.5-4.8,1.4-7s2.2-4.1,3.8-5.7s3.5-2.9,5.7-3.8C19.1,6.5,21.5,6,24,6s4.8,0.5,7,1.4s4.1,2.2,5.7,3.8c1.6,1.6,2.9,3.5,3.8,5.7
	c0.9,2.2,1.4,4.5,1.4,7s-0.5,4.9-1.4,7c-0.9,2.2-2.2,4.1-3.8,5.7s-3.5,2.9-5.7,3.8C28.8,41.5,26.5,42,24,42z M24,40.5
	c4.6,0,8.5-1.6,11.7-4.8s4.8-7.1,4.8-11.7s-1.6-8.5-4.8-11.7S28.6,7.5,24,7.5s-8.5,1.6-11.7,4.8S7.5,19.4,7.5,24s1.6,8.5,4.8,11.7
	S19.4,40.5,24,40.5z"/>
</svg>
