<?xml version="1.0" encoding="utf-8"?>
<!-- Generator: Adobe Illustrator 26.3.1, SVG Export Plug-In . SVG Version: 6.00 Build 0)  -->
<svg version="1.1" id="Слой_1" xmlns="http://www.w3.org/2000/svg" xmlns:xlink="http://www.w3.org/1999/xlink" x="0px" y="0px"
	 viewBox="0 0 48 48" style="enable-background:new 0 0 48 48;" xml:space="preserve">
<path d="M32.5,29.4V18.6h6.1c0.8,0,1.5,0.3,2,0.8s0.8,1.2,0.8,2v1.2c0,0.5-0.2,1-0.6,1.5c-0.4,0.5-0.9,0.9-1.6,1l1.8,4.2h-1.6
	l-1.7-4H34v4C34,29.4,32.5,29.4,32.5,29.4z M34,23.9h4.7c0.3,0,0.6-0.1,0.8-0.4c0.3-0.3,0.4-0.5,0.4-0.8v-1.3c0-0.3-0.1-0.6-0.4-0.8
	c-0.3-0.3-0.5-0.4-0.8-0.4H34C34,20.1,34,23.9,34,23.9z M6.6,29.4V18.6h1.5v4.2H14v-4.2h1.5v10.8H14v-5.1H8.1v5.1
	C8.1,29.4,6.6,29.4,6.6,29.4z M19.6,29.4V18.6h6.1c0.8,0,1.5,0.3,2,0.8s0.8,1.2,0.8,2v5.3c0,0.8-0.3,1.5-0.8,2s-1.2,0.8-2,0.8
	C25.7,29.4,19.6,29.4,19.6,29.4z M21.1,27.9h4.6c0.3,0,0.6-0.1,0.8-0.4c0.3-0.3,0.4-0.5,0.4-0.8v-5.4c0-0.3-0.1-0.6-0.4-0.8
	c-0.3-0.3-0.5-0.4-0.8-0.4h-4.6C21.1,20.1,21.1,27.9,21.1,27.9z"/>
</svg>
