<?xml version="1.0" encoding="utf-8"?>
<!-- Generator: Adobe Illustrator 26.3.1, SVG Export Plug-In . SVG Version: 6.00 Build 0)  -->
<svg version="1.1" id="Слой_1" xmlns="http://www.w3.org/2000/svg" xmlns:xlink="http://www.w3.org/1999/xlink" x="0px" y="0px"
	 viewBox="0 0 48 48" style="enable-background:new 0 0 48 48;" xml:space="preserve">
<path d="M24,7.5c-1.8,0-3.4,0.2-4.9,0.7s-2.9,1.1-4.1,1.9L13.9,9c1.5-1,3.1-1.7,4.7-2.3C20.2,6.3,22,6,24,6c2.5,0,4.8,0.5,7,1.4
	s4.1,2.2,5.7,3.9c1.6,1.6,2.9,3.5,3.9,5.7c0.9,2.2,1.4,4.5,1.4,7c0,1.8-0.2,3.6-0.7,5.2S40,32.5,39,34.1L37.8,33
	c0.9-1.4,1.5-2.8,2-4.2c0.5-1.5,0.7-3,0.7-4.7c0-4.6-1.6-8.5-4.8-11.7S28.6,7.5,24,7.5z M23.2,18.3l-1.4-1.4v-4.5h1.4V18.3z
	 M34.6,15.1v5.5c0,0.8-0.3,1.4-0.8,1.9s-1.1,0.7-1.9,0.7H28l-1.1-1.1v-9.7h5c0.8,0,1.4,0.3,1.9,0.8C34.3,13.7,34.6,14.3,34.6,15.1z
	 M28.3,21.8h3.6c0.4,0,0.7-0.1,0.9-0.4c0.2-0.2,0.3-0.5,0.3-0.9V15c0-0.4-0.1-0.7-0.3-0.9s-0.5-0.3-0.9-0.3h-3.6V21.8z M20.6,32.2
	c0.3,0,0.6-0.1,0.9-0.4c0.2-0.2,0.4-0.5,0.4-0.9v-1.4c0-0.3-0.1-0.6-0.4-0.9c-0.2-0.2-0.5-0.4-0.9-0.4h-4.5V32h4.5V32.2z M16.1,37.7
	h-1.4V26.9h5.9c0.7,0,1.3,0.3,1.9,0.8c0.5,0.5,0.8,1.1,0.8,1.8v1.4c0,0.7-0.2,1.2-0.6,1.7s-0.9,0.8-1.6,0.9l1.7,4.2h-1.5l-1.7-4.2
	h-3.4C16.1,33.6,16.1,37.7,16.1,37.7z M14.7,16l1.4,1.4v5.8h-1.4C14.7,23.2,14.7,16,14.7,16z M10.7,11.9l1.1,1.2
	c-1.2,1.4-2.2,3-3,4.9c-0.8,1.9-1.2,3.9-1.2,6c0,4.6,1.6,8.5,4.8,11.7s7.1,4.8,11.7,4.8c2.3,0,4.4-0.4,6.3-1.3
	c1.9-0.9,3.4-1.8,4.7-2.8l1.1,1.1c-1.7,1.5-3.6,2.6-5.6,3.4C28.4,41.6,26.2,42,24,42c-2.5,0-4.8-0.5-7-1.4s-4.1-2.2-5.7-3.9
	c-1.6-1.6-2.9-3.5-3.9-5.7C6.5,28.8,6,26.5,6,24s0.4-4.8,1.3-6.8C8.1,15.2,9.3,13.4,10.7,11.9z M2.8,5.2l1.1-1.1l40,40l-1.1,1.1
	L2.8,5.2z"/>
</svg>
