<?xml version="1.0" encoding="utf-8"?>
<!-- Generator: Adobe Illustrator 26.3.1, SVG Export Plug-In . SVG Version: 6.00 Build 0)  -->
<svg version="1.1" id="Слой_1" xmlns="http://www.w3.org/2000/svg" xmlns:xlink="http://www.w3.org/1999/xlink" x="0px" y="0px"
	 viewBox="0 0 48 48" style="enable-background:new 0 0 48 48;" xml:space="preserve">
<path d="M10.9,29.8c-1.6,0-2.9-0.5-4-1.6s-1.6-2.4-1.6-4s0.5-2.9,1.6-4s2.4-1.6,4-1.6s2.9,0.5,4,1.6s1.6,2.4,1.6,4s-0.5,2.9-1.6,4
	C13.8,29.2,12.5,29.8,10.9,29.8z M10.9,28.2c1.2,0,2.2-0.4,2.9-1.1s1.1-1.8,1.1-3s-0.4-2.2-1.1-2.9S12.1,20,10.9,20s-2.2,0.4-3,1.1
	S6.8,22.8,6.8,24c0,1.2,0.4,2.2,1.1,3S9.7,28.2,10.9,28.2z M32.8,34c-2.8,0-5.1-1-7.1-2.9s-2.9-4.3-2.9-7.1s1-5.1,2.9-7.1
	S30,14,32.8,14s5.1,1,7.1,2.9s2.9,4.3,2.9,7.1s-1,5.1-2.9,7.1C37.9,33,35.5,34,32.8,34z"/>
</svg>
