<?xml version="1.0" encoding="utf-8"?>
<!-- Generator: Adobe Illustrator 26.3.1, SVG Export Plug-In . SVG Version: 6.00 Build 0)  -->
<svg version="1.1" id="Слой_1" xmlns="http://www.w3.org/2000/svg" xmlns:xlink="http://www.w3.org/1999/xlink" x="0px" y="0px"
	 viewBox="0 0 48 48" style="enable-background:new 0 0 48 48;" xml:space="preserve">
<path d="M15.4,40h-4.6c-0.8,0-1.4-0.3-2-0.8C8.3,38.7,8,38,8,37.2V24c0-2.2,0.4-4.3,1.3-6.2s2-3.6,3.4-5.1s3.1-2.6,5.1-3.4
	C19.7,8.4,21.8,8,24,8s4.3,0.4,6.2,1.3c1.9,0.8,3.6,2,5.1,3.4s2.6,3.1,3.4,5.1c0.8,1.9,1.3,4,1.3,6.2v13.2c0,0.8-0.3,1.4-0.8,2
	c-0.5,0.5-1.2,0.8-2,0.8h-4.6V28.2h5.9V24c0-4-1.4-7.4-4.2-10.3C31.4,10.9,28,9.5,24,9.5s-7.4,1.4-10.3,4.2C10.9,16.6,9.5,20,9.5,24
	v4.2h5.9V40z M13.9,29.8H9.5v7.5c0,0.3,0.1,0.6,0.4,0.8s0.5,0.4,0.8,0.4h3.1v-8.7H13.9z M34.1,29.8v8.7h3.1c0.3,0,0.6-0.1,0.8-0.4
	c0.3-0.3,0.4-0.5,0.4-0.8v-7.5C38.5,29.8,34.1,29.8,34.1,29.8z M13.9,29.8H9.5H13.9z M34.1,29.8h4.3H34.1z"/>
</svg>
