<?xml version="1.0" encoding="utf-8"?>
<!-- Generator: Adobe Illustrator 26.3.1, SVG Export Plug-In . SVG Version: 6.00 Build 0)  -->
<svg version="1.1" id="Слой_1" xmlns="http://www.w3.org/2000/svg" xmlns:xlink="http://www.w3.org/1999/xlink" x="0px" y="0px"
	 viewBox="0 0 48 48" style="enable-background:new 0 0 48 48;" xml:space="preserve">
<path d="M15.5,34c-1.8,0-3.3-0.6-4.5-1.8c-1.3-1.2-1.9-2.7-1.9-4.5v-7.5c0-1.3,0.4-2.5,1.3-3.5c0.8-1,1.9-1.6,3.2-1.8
	c1.7-0.3,3.5-0.6,5.2-0.7C20.5,14,22.2,14,24,14s3.5,0.1,5.3,0.2c1.7,0.1,3.5,0.4,5.2,0.7c1.3,0.2,2.4,0.9,3.2,1.8
	c0.8,1,1.3,2.1,1.3,3.5v7.5c0,1.8-0.6,3.3-1.9,4.5c-1.3,1.2-2.8,1.8-4.5,1.8h-1.9c-0.3,0-0.7,0-1-0.1s-0.7-0.2-1-0.3l-3-0.9
	c-0.5-0.2-1-0.2-1.6-0.2c-0.5,0-1,0.1-1.6,0.2l-3,0.9c-0.3,0.1-0.7,0.2-1,0.3s-0.7,0.1-1,0.1C17.4,34,15.5,34,15.5,34z M15.5,32.5
	h1.9c0.3,0,0.5,0,0.8-0.1c0.3,0,0.5-0.1,0.8-0.2c0.8-0.3,1.7-0.6,2.5-0.9s1.7-0.4,2.5-0.4c0.9,0,1.8,0.1,2.6,0.4
	c0.8,0.3,1.6,0.6,2.5,0.9c0.3,0.1,0.5,0.1,0.8,0.2c0.2,0,0.5,0.1,0.8,0.1h1.9c1.3,0,2.5-0.5,3.5-1.4s1.4-2.1,1.4-3.4v-7.5
	c0-1-0.3-1.8-0.9-2.5c-0.6-0.7-1.4-1.1-2.3-1.3c-1.7-0.3-3.4-0.6-5.1-0.7c-1.7-0.1-3.4-0.2-5.1-0.2s-3.4,0.1-5.1,0.2
	c-1.7,0.1-3.4,0.3-5.1,0.7c-0.9,0.2-1.7,0.6-2.3,1.3c-0.6,0.7-0.9,1.5-0.9,2.5v7.5c0,1.3,0.5,2.4,1.4,3.4C13,32,14.1,32.5,15.5,32.5
	z M4,27.7v-7.6h1.3v7.6H4z M42.7,27.7v-7.6H44v7.6H42.7z"/>
</svg>
