<?xml version="1.0" encoding="utf-8"?>
<!-- Generator: Adobe Illustrator 26.3.1, SVG Export Plug-In . SVG Version: 6.00 Build 0)  -->
<svg version="1.1" id="Слой_1" xmlns="http://www.w3.org/2000/svg" xmlns:xlink="http://www.w3.org/1999/xlink" x="0px" y="0px"
	 viewBox="0 0 48 48" style="enable-background:new 0 0 48 48;" xml:space="preserve">
<path d="M24.1,42.8v-1.5h13.2c0.4,0,0.7-0.1,0.9-0.3s0.3-0.5,0.3-0.9v-1.9h-5.9V26.4h5.9v-4.3c0-4-1.4-7.4-4.2-10.3S28,7.5,24.1,7.5
	c-4,0-7.4,1.4-10.3,4.3c-2.8,2.8-4.3,6.3-4.3,10.3v4.3h5.9v11.8h-4.6c-0.8,0-1.4-0.3-2-0.8c-0.5-0.5-0.8-1.2-0.8-2V22.1
	c0-2.2,0.4-4.3,1.3-6.2c0.8-2,2-3.7,3.4-5.1c1.5-1.5,3.2-2.6,5.1-3.4c2-0.8,4.1-1.2,6.3-1.2s4.3,0.4,6.2,1.3s3.6,2,5.1,3.4
	c1.4,1.5,2.6,3.2,3.4,5.1c0.8,2,1.2,4,1.2,6.3V40c0,0.8-0.3,1.4-0.8,2c-0.5,0.5-1.2,0.8-2,0.8H24.1z M10.8,36.6h3.1v-8.7H9.5v7.5
	c0,0.3,0.1,0.6,0.3,0.9C10.1,36.5,10.4,36.6,10.8,36.6z M34.1,36.6h4.3v-8.7h-4.3V36.6z M10.8,27.9H9.5h4.3H10.8z M34.1,27.9h4.3
	H34.1z"/>
</svg>
