<?xml version="1.0" encoding="utf-8"?>
<!-- Generator: Adobe Illustrator 26.3.1, SVG Export Plug-In . SVG Version: 6.00 Build 0)  -->
<svg version="1.1" id="Слой_1" xmlns="http://www.w3.org/2000/svg" xmlns:xlink="http://www.w3.org/1999/xlink" x="0px" y="0px"
	 viewBox="0 0 48 48" style="enable-background:new 0 0 48 48;" xml:space="preserve">
<path d="M40,35.2l-1.5-1.5v-5.9h-5.9L31,26.2h7.4v-4.3c0-4-1.4-7.4-4.2-10.3C31.4,8.8,28,7.4,24.1,7.4c-1.6,0-3.1,0.3-4.7,0.8
	c-1.5,0.5-2.9,1.3-4.2,2.3l-1.1-1.2c1.1-0.9,2.5-1.7,4.3-2.4c1.7-0.7,3.6-1,5.7-1c2.2,0,4.3,0.4,6.2,1.3s3.6,2,5.1,3.5
	c1.4,1.5,2.6,3.2,3.4,5.1c0.8,1.9,1.2,4,1.2,6.2C40,21.9,40,35.2,40,35.2z M24.1,42.6v-1.5h14.6L35.5,38h-3.7v-3.7l-20-20.1
	c-0.7,1-1.2,2.2-1.6,3.6c-0.4,1.4-0.6,2.8-0.6,4.1v4.3H16V38h-5.2c-0.8,0-1.4-0.3-2-0.8C8.3,36.7,8,36,8,35.2V21.9
	c0-1.7,0.2-3.3,0.7-4.8c0.5-1.5,1.1-2.9,1.9-4.1L2.9,5.4L4,4.3l37,37v1.4C41,42.6,24.1,42.6,24.1,42.6z M10.8,36.5h3.7v-8.7h-5v7.4
	c0,0.4,0.1,0.7,0.3,0.9C10.1,36.3,10.4,36.5,10.8,36.5z M10.8,27.8H9.5h4.9H10.8z M32.6,27.8h5.9H32.6z"/>
</svg>
