<?xml version="1.0" encoding="utf-8"?>
<!-- Generator: Adobe Illustrator 26.3.1, SVG Export Plug-In . SVG Version: 6.00 Build 0)  -->
<svg version="1.1" id="Слой_1" xmlns="http://www.w3.org/2000/svg" xmlns:xlink="http://www.w3.org/1999/xlink" x="0px" y="0px"
	 viewBox="0 0 48 48" style="enable-background:new 0 0 48 48;" xml:space="preserve">
<path d="M10.3,35H8.2c-0.8,0-1.5-0.3-2.1-0.9c-0.6-0.6-0.9-1.3-0.9-2.1v-8.1c0-3,1-5.5,3.1-7.6s4.6-3.1,7.6-3.1s5.5,1,7.6,3.1
	s3.1,4.6,3.1,7.6V32c0,0.8-0.3,1.5-0.9,2.1S24.4,35,23.6,35h-2.1v-8.3h3.8v-2.8c0-2.6-0.9-4.9-2.8-6.7c-1.8-1.8-4.1-2.8-6.7-2.8
	s-4.9,0.9-6.7,2.8c-1.8,1.8-2.8,4.1-2.8,6.7v2.8h3.8C10.3,26.7,10.3,35,10.3,35z M37.4,14.5v-1.4h1.5v1.4h2.5c0.4,0,0.7,0.1,1,0.4
	c0.3,0.3,0.4,0.6,0.4,1v17.7c0,0.4-0.1,0.7-0.4,1c-0.3,0.3-0.6,0.4-1,0.4H35c-0.4,0-0.7-0.1-1-0.4c-0.3-0.3-0.4-0.6-0.4-1V15.9
	c0-0.4,0.1-0.7,0.4-1c0.3-0.3,0.6-0.4,1-0.4H37.4z M35.1,33.5h6.2H35.1z M35.1,33.5h6.2V16.1h-6.2V33.5z"/>
</svg>
