<?xml version="1.0" encoding="utf-8"?>
<!-- Generator: Adobe Illustrator 26.3.1, SVG Export Plug-In . SVG Version: 6.00 Build 0)  -->
<svg version="1.1" id="Слой_1" xmlns="http://www.w3.org/2000/svg" xmlns:xlink="http://www.w3.org/1999/xlink" x="0px" y="0px"
	 viewBox="0 0 48 48" style="enable-background:new 0 0 48 48;" xml:space="preserve">
<path d="M11.2,42L4.4,23l9.7-5.7V6h3.2v11.3L27,23l-6.9,19H11.2z M33.1,42c-0.2,0-0.4-0.1-0.5-0.2s-0.2-0.3-0.2-0.5s0.1-0.4,0.2-0.5
	c0.2-0.1,0.3-0.2,0.5-0.2h7.6v-6.1h-7.6c-0.2,0-0.4-0.1-0.5-0.2c-0.2-0.2-0.2-0.3-0.2-0.5s0.1-0.4,0.2-0.5c0.2-0.1,0.3-0.2,0.5-0.2
	h7.6V27h-7.6c-0.2,0-0.4-0.1-0.5-0.2c-0.2-0.2-0.2-0.3-0.2-0.5s0.1-0.4,0.2-0.5c0.2-0.1,0.3-0.2,0.5-0.2h7.6v-6.1h-7.6
	c-0.2,0-0.4-0.1-0.5-0.2c-0.2-0.1-0.2-0.3-0.2-0.5s0.1-0.4,0.2-0.5c0.2-0.2,0.3-0.2,0.5-0.2h7.6V12h-7.6c-0.2,0-0.4-0.1-0.5-0.2
	s-0.2-0.3-0.2-0.5s0.1-0.4,0.2-0.5c0.2-0.2,0.3-0.2,0.5-0.2h7.5c0.9,0,1.6,0.3,2.2,0.9c0.6,0.6,0.9,1.3,0.9,2.2v25.9
	c0,0.9-0.3,1.6-0.9,2.2S41.4,42,40.5,42H33.1z M12.4,40.5H19l6-16.8l-7.9-4.6h-2.9l-7.9,4.6C6.3,23.7,12.4,40.5,12.4,40.5z"/>
</svg>
