<?xml version="1.0" encoding="utf-8"?>
<!-- Generator: Adobe Illustrator 26.3.1, SVG Export Plug-In . SVG Version: 6.00 Build 0)  -->
<svg version="1.1" id="Слой_1" xmlns="http://www.w3.org/2000/svg" xmlns:xlink="http://www.w3.org/1999/xlink" x="0px" y="0px"
	 viewBox="0 0 48 48" style="enable-background:new 0 0 48 48;" xml:space="preserve">
<path d="M16,41.7V32H6.3V16H16V6.3h16V16h9.7v16H32v9.7H16z M7.8,23.2H18c0.1,0,0.2,0,0.4,0.1c0.1,0.1,0.2,0.1,0.3,0.2l3.1,4.8
	l3.5-10.5c0.1-0.2,0.1-0.3,0.3-0.4c0.1-0.1,0.3-0.1,0.5-0.1c0.1,0,0.2,0,0.4,0.1c0.1,0.1,0.2,0.1,0.3,0.3l3.7,5.6h9.7v-5.7h-9.7V7.8
	h-13v9.7H7.8V23.2z M17.5,40.2h12.9v-9.7h9.7v-5.7H30c-0.1,0-0.2,0-0.3-0.1s-0.2-0.2-0.3-0.3l-3.1-4.7l-3.5,10.5
	c0,0.2-0.1,0.3-0.3,0.4c-0.1,0.1-0.3,0.1-0.5,0.1c-0.1,0-0.2,0-0.3-0.1c-0.1-0.1-0.2-0.1-0.2-0.3l-3.8-5.6H7.8v5.7h9.7
	C17.5,30.5,17.5,40.2,17.5,40.2z"/>
</svg>
