<?xml version="1.0" encoding="utf-8"?>
<!-- Generator: Adobe Illustrator 26.3.1, SVG Export Plug-In . SVG Version: 6.00 Build 0)  -->
<svg version="1.1" id="Слой_1" xmlns="http://www.w3.org/2000/svg" xmlns:xlink="http://www.w3.org/1999/xlink" x="0px" y="0px"
	 viewBox="0 0 48 48" style="enable-background:new 0 0 48 48;" xml:space="preserve">
<path d="M29,35.8c0.5,0,0.9-0.2,1.2-0.5c0.3-0.3,0.5-0.8,0.5-1.3s-0.2-0.9-0.5-1.2s-0.8-0.5-1.2-0.5c-0.5,0-0.9,0.2-1.2,0.5
	s-0.5,0.8-0.5,1.2s0.2,0.9,0.5,1.2S28.5,35.8,29,35.8z M18.9,35.2l11.3-11.3l-1.1-1.1L17.8,34.1L18.9,35.2z M19,25.8
	c0.5,0,0.9-0.2,1.2-0.5c0.3-0.3,0.5-0.8,0.5-1.3s-0.2-0.9-0.5-1.2c-0.3-0.3-0.8-0.5-1.2-0.5s-0.9,0.2-1.2,0.5s-0.5,0.8-0.5,1.2
	s0.2,0.9,0.5,1.2S18.5,25.8,19,25.8z M12.8,42c-0.8,0-1.4-0.3-2-0.8c-0.5-0.5-0.8-1.2-0.8-2V8.8c0-0.8,0.3-1.4,0.8-2
	C11.3,6.3,12,6,12.8,6h16.7l8.5,8.5v24.7c0,0.8-0.3,1.4-0.8,2c-0.5,0.5-1.2,0.8-2,0.8H12.8z M28.7,15.2V7.5H12.8
	c-0.3,0-0.6,0.1-0.8,0.4c-0.3,0.3-0.4,0.5-0.4,0.8v30.5c0,0.3,0.1,0.6,0.4,0.8s0.5,0.4,0.8,0.4h22.5c0.3,0,0.6-0.1,0.8-0.4
	c0.3-0.3,0.4-0.5,0.4-0.8v-24C36.5,15.2,28.7,15.2,28.7,15.2z M11.5,7.5v7.7V7.5v32.9V7.5z"/>
</svg>
