<?xml version="1.0" encoding="utf-8"?>
<!-- Generator: Adobe Illustrator 26.3.1, SVG Export Plug-In . SVG Version: 6.00 Build 0)  -->
<svg version="1.1" id="Слой_1" xmlns="http://www.w3.org/2000/svg" xmlns:xlink="http://www.w3.org/1999/xlink" x="0px" y="0px"
	 viewBox="0 0 48 48" style="enable-background:new 0 0 48 48;" xml:space="preserve">
<path d="M22,21.2c0.3,0,0.6-0.1,0.9-0.4s0.4-0.6,0.4-0.9s-0.1-0.6-0.4-0.9c-0.3-0.2-0.6-0.4-0.9-0.4s-0.6,0.1-0.9,0.4
	c-0.3,0.2-0.4,0.5-0.4,0.9c0,0.3,0.1,0.6,0.4,0.9S21.7,21.2,22,21.2z M22.4,29.7l9.4-9.4l-1.1-1.1l-9.4,9.4L22.4,29.7z M31,30.2
	c0.3,0,0.6-0.1,0.9-0.4c0.3-0.3,0.4-0.6,0.4-0.9s-0.1-0.6-0.4-0.9c-0.3-0.2-0.6-0.4-0.9-0.4s-0.6,0.1-0.9,0.4
	c-0.3,0.2-0.4,0.5-0.4,0.9c0,0.3,0.1,0.6,0.4,0.9S30.7,30.2,31,30.2z M37.2,36.9H15.8c-0.8,0-1.4-0.3-2-0.8c-0.5-0.5-0.8-1.2-0.8-2
	V6.8c0-0.8,0.3-1.4,0.8-2C14.3,4.3,15,4,15.8,4h15.3l8.8,8.8v21.3c0,0.8-0.3,1.4-0.8,2C38.7,36.7,38,36.9,37.2,36.9z M30.4,13.5v-8
	H15.8c-0.3,0-0.6,0.1-0.8,0.4c-0.3,0.3-0.4,0.5-0.4,0.8v27.4c0,0.3,0.1,0.6,0.4,0.8c0.3,0.3,0.5,0.4,0.8,0.4h21.4
	c0.3,0,0.6-0.1,0.8-0.4c0.3-0.3,0.4-0.5,0.4-0.8V13.5C38.5,13.5,30.4,13.5,30.4,13.5z M8.8,44c-0.8,0-1.4-0.3-2-0.8
	C6.3,42.7,6,42,6,41.2V15.1h1.5v26.1c0,0.3,0.1,0.6,0.4,0.8c0.3,0.3,0.5,0.4,0.8,0.4h20.1V44H8.8z M14.6,5.5v7.9V5.5v29.8V5.5z"/>
</svg>
