<?xml version="1.0" encoding="utf-8"?>
<!-- Generator: Adobe Illustrator 26.3.1, SVG Export Plug-In . SVG Version: 6.00 Build 0)  -->
<svg version="1.1" id="Слой_1" xmlns="http://www.w3.org/2000/svg" xmlns:xlink="http://www.w3.org/1999/xlink" x="0px" y="0px"
	 viewBox="0 0 48 48" style="enable-background:new 0 0 48 48;" xml:space="preserve">
<path d="M22,39.3l-1.7-1.5c-3.4-3.1-6.1-5.8-8.3-7.9c-2.1-2.1-3.8-4-5-5.6s-2-3-2.4-4.2C4.2,18.9,4,17.6,4,16.4
	c0-2.5,0.8-4.6,2.6-6.3c1.7-1.7,3.8-2.6,6.2-2.6c1.8,0,3.5,0.5,5.1,1.5s2.9,2.4,4.1,4.3c1.3-1.9,2.7-3.4,4.2-4.3
	c1.5-1,3.2-1.4,5-1.4c2.4,0,4.5,0.9,6.2,2.6s2.5,3.8,2.5,6.3c0,0.8-0.1,1.6-0.3,2.4s-0.4,1.5-0.8,2.2h-1.7c0.3-0.7,0.6-1.5,0.8-2.3
	s0.3-1.6,0.3-2.3c0-2.2-0.7-4-2.2-5.3c-1.5-1.4-3.1-2-4.9-2c-1.6,0-3.2,0.5-4.6,1.5s-2.7,2.5-3.8,4.5H21c-1.1-2-2.4-3.6-3.8-4.5
	c-1.4-1-2.9-1.5-4.6-1.5C10.7,9,9,9.7,7.6,11.1s-2.1,3.2-2.1,5.3c0,1.2,0.2,2.3,0.7,3.5c0.4,1.2,1.3,2.5,2.5,4s2.9,3.4,5,5.5
	s4.9,4.7,8.3,7.9c1.1-1,2.1-1.9,3-2.7s1.8-1.6,2.7-2.5l0.2,0.2c0.1,0.1,0.2,0.2,0.4,0.4c0.1,0.1,0.3,0.3,0.4,0.4l0.2,0.2
	c-0.9,0.8-1.8,1.6-2.6,2.4c-0.9,0.8-1.9,1.7-3,2.7C23.1,38.3,22,39.3,22,39.3z M29.5,26.8v-1.5h14v1.5H29.5z"/>
</svg>
