<?xml version="1.0" encoding="utf-8"?>
<!-- Generator: Adobe Illustrator 26.3.1, SVG Export Plug-In . SVG Version: 6.00 Build 0)  -->
<svg version="1.1" id="Слой_1" xmlns="http://www.w3.org/2000/svg" xmlns:xlink="http://www.w3.org/1999/xlink" x="0px" y="0px"
	 viewBox="0 0 48 48" style="enable-background:new 0 0 48 48;" xml:space="preserve">
<path d="M34.2,43c-1.7,0-3.2-0.5-4.4-1.5c-1.2-1-2.2-2.4-2.8-4.1c-0.6-1.5-1.2-2.7-1.9-3.6c-0.7-0.9-2-2.1-3.7-3.6
	c-2.1-1.7-3.6-3.5-4.6-5.4c-1-2-1.5-4.2-1.5-6.9c0-3.7,1.2-6.8,3.6-9.2s5.5-3.6,9.2-3.6c3.5,0,6.5,1.1,8.9,3.2
	c2.4,2.2,3.7,4.9,4,8.3h-1.5c-0.3-2.9-1.5-5.3-3.6-7.2s-4.7-2.8-7.7-2.8c-3.2,0-5.9,1.1-8,3.3c-2.2,2.2-3.3,4.9-3.3,8
	c0,2.4,0.5,4.6,1.6,6.5s2.6,3.6,4.5,5.1c1.4,1,2.5,2.1,3.2,3.1c0.8,1,1.5,2.4,2.2,4c0.6,1.5,1.4,2.6,2.3,3.5s2.1,1.3,3.5,1.3
	c1.2,0,2.3-0.4,3.2-1.2s1.6-1.7,1.9-2.9H41c-0.3,1.6-1.1,3-2.3,4C37.4,42.5,35.9,43,34.2,43z M12.3,31.7c-1.7-1.9-3-4-3.9-6.4
	C7.5,23,7,20.5,7,17.8c0-2.6,0.5-5.2,1.4-7.6s2.2-4.6,3.9-6.4l1.1,1c-1.6,1.8-2.8,3.8-3.6,6s-1.2,4.5-1.2,7c0,2.4,0.4,4.7,1.3,6.9
	c0.8,2.2,2,4.2,3.6,6C13.4,30.8,12.3,31.7,12.3,31.7z M28.1,22c-1.1,0-2.1-0.4-2.9-1.2C24.4,20,24,19.1,24,17.9
	c0-1.1,0.4-2.1,1.2-2.9c0.8-0.8,1.8-1.2,2.9-1.2s2.1,0.4,2.9,1.2s1.2,1.8,1.2,2.9S31.8,20,31,20.8S29.2,22,28.1,22z"/>
</svg>
