<?xml version="1.0" encoding="utf-8"?>
<!-- Generator: Adobe Illustrator 26.3.1, SVG Export Plug-In . SVG Version: 6.00 Build 0)  -->
<svg version="1.1" id="Слой_1" xmlns="http://www.w3.org/2000/svg" xmlns:xlink="http://www.w3.org/1999/xlink" x="0px" y="0px"
	 viewBox="0 0 48 48" style="enable-background:new 0 0 48 48;" xml:space="preserve">
<path d="M34.4,43c-1.7,0-3.2-0.5-4.5-1.6s-2.3-2.4-2.9-4c-0.5-1.2-1.2-2.4-2.1-3.6c-1-1.2-2.1-2.4-3.5-3.6c-1.9-1.6-3.4-3.4-4.5-5.6
	c-1.1-2.1-1.6-4.4-1.6-6.7c0-3.5,1.3-6.6,3.8-9.1S24.6,5,28.2,5c3.4,0,6.3,1.1,8.8,3.3s3.8,5,4.1,8.2h-1.5c-0.3-2.8-1.5-5.2-3.6-7.1
	c-2.2-1.9-4.7-2.9-7.7-2.9c-3.1,0-5.8,1.1-8,3.3s-3.3,4.9-3.3,8c0,2.2,0.5,4.3,1.6,6.3c1,2,2.6,3.8,4.5,5.2c1.2,0.9,2.2,2,3.1,3.2
	c0.9,1.3,1.7,2.6,2.3,3.9c0.6,1.3,1.4,2.4,2.4,3.4c1.1,1,2.3,1.4,3.6,1.4c1.6,0,2.9-0.6,3.9-1.7c1-1.1,1.5-2.4,1.5-4
	c0-1.4-0.3-2.5-0.9-3.5c-0.6-0.9-1.3-1.8-2.2-2.6l-2.9,2.3l-4.7-8.3c-1.8,0.4-3.4,0-4.9-1.1c-1.4-1.1-2.2-2.6-2.2-4.5
	c0-1.6,0.6-3,1.7-4.1s2.5-1.7,4.1-1.7c1.9,0,3.5,0.8,4.6,2.3s1.5,3.2,1,5l7.6,6.6L38,28.7c0.9,1,1.7,2,2.4,3.1s1,2.4,1,4
	c0,2-0.6,3.7-1.9,5.1C38.2,42.3,36.5,43,34.4,43z M12.3,31.7c-1.7-1.9-3-4.1-3.9-6.5S7,20.4,7,17.8s0.5-5.1,1.4-7.6
	c0.9-2.4,2.2-4.6,3.9-6.4l1.1,1c-1.6,1.8-2.8,3.8-3.6,6s-1.2,4.5-1.2,7c0,2.4,0.4,4.6,1.2,6.9s2,4.2,3.6,6.1L12.3,31.7z M34.4,29.6
	l4.4-3.5L32.9,21c-0.3,0.4-0.6,0.8-1,1.2c-0.4,0.3-0.8,0.6-1.2,0.9L34.4,29.6z M28,22.2c1.2,0,2.2-0.4,3-1.2c0.8-0.8,1.2-1.8,1.2-3
	s-0.4-2.2-1.2-3c-0.8-0.8-1.8-1.2-3-1.2s-2.2,0.4-3,1.2s-1.2,1.8-1.2,3s0.4,2.2,1.2,3C25.8,21.8,26.8,22.2,28,22.2z"/>
</svg>
