<?xml version="1.0" encoding="utf-8"?>
<!-- Generator: Adobe Illustrator 26.3.1, SVG Export Plug-In . SVG Version: 6.00 Build 0)  -->
<svg version="1.1" id="Слой_1" xmlns="http://www.w3.org/2000/svg" xmlns:xlink="http://www.w3.org/1999/xlink" x="0px" y="0px"
	 viewBox="0 0 48 48" style="enable-background:new 0 0 48 48;" xml:space="preserve">
<path d="M35.9,30.6L32,26.7l1.1-1.1l2.9,2.8l7-7l1.1,1.1L35.9,30.6z M22,39.3l-1.7-1.5c-3.3-3-5.9-5.6-8.1-7.7
	c-2.1-2.1-3.8-3.9-5-5.5s-2.1-3-2.6-4.3C4.2,19,4,17.7,4,16.4c0-2.5,0.8-4.6,2.5-6.3s3.8-2.6,6.2-2.6c1.8,0,3.5,0.5,5.1,1.5
	c1.6,1,2.9,2.4,4.1,4.3c1.3-1.9,2.7-3.4,4.2-4.3c1.5-0.9,3.2-1.4,5-1.4c2.3,0,4.2,0.8,5.9,2.4c1.6,1.6,2.5,3.5,2.8,5.8h-1.4
	c-0.2-1.9-0.9-3.4-2.2-4.7s-3-1.9-5-1.9c-1.6,0-3.2,0.5-4.6,1.5s-2.7,2.5-3.8,4.5h-1.7c-1.1-2-2.4-3.6-3.8-4.5
	c-1.4-1-2.9-1.5-4.6-1.5C10.7,9,9,9.7,7.6,11.1s-2.1,3.2-2.1,5.3c0,1.2,0.2,2.4,0.7,3.6s1.4,2.6,2.6,4.1c1.2,1.6,2.9,3.4,5.1,5.5
	c2.1,2.1,4.8,4.6,8.1,7.7c1.1-1,2.1-1.9,3-2.7s1.8-1.6,2.7-2.5l0.2,0.2c0.1,0.1,0.2,0.2,0.4,0.4c0.1,0.1,0.3,0.3,0.4,0.4l0.2,0.2
	c-0.9,0.8-1.8,1.6-2.6,2.4c-0.9,0.8-1.9,1.7-3,2.7C23.1,38.3,22,39.3,22,39.3z"/>
</svg>
