<?xml version="1.0" encoding="utf-8"?>
<!-- Generator: Adobe Illustrator 26.3.1, SVG Export Plug-In . SVG Version: 6.00 Build 0)  -->
<svg version="1.1" id="Слой_1" xmlns="http://www.w3.org/2000/svg" xmlns:xlink="http://www.w3.org/1999/xlink" x="0px" y="0px"
	 viewBox="0 0 48 48" style="enable-background:new 0 0 48 48;" xml:space="preserve">
<path d="M13.6,43c-2.1,0-3.7-0.7-5-2.1s-1.9-3.1-1.9-5.1c0-1.6,0.3-2.9,1-4c0.7-1.1,1.4-2.1,2.4-3.1l-3.2-2.5l7.6-6.6
	c-0.2-0.8-0.3-1.6-0.1-2.4c0.1-0.8,0.4-1.5,0.8-2.1L23,23c-0.6,0.3-1.3,0.6-2,0.7s-1.5,0.1-2.2,0L14.1,32l-2.9-2.3
	c-0.8,0.8-1.6,1.7-2.2,2.6c-0.6,0.9-0.9,2.1-0.9,3.5c0,1.6,0.5,2.9,1.5,4s2.3,1.7,3.9,1.7c1.4,0,2.6-0.4,3.6-1.2s1.8-2,2.5-3.6
	c0.3-0.8,0.6-1.5,0.9-2s0.6-1.1,1.1-1.6c0.4-0.6,1-1.2,1.7-1.9c0.7-0.7,1.7-1.6,2.9-2.6L9.9,12.1c-0.4,0.7-0.7,1.4-0.9,2.1
	c-0.2,0.8-0.4,1.5-0.4,2.4H7c0.1-1,0.3-2,0.6-3c0.3-0.9,0.7-1.8,1.2-2.6L3.4,5.6l1.1-1.1L44,44l-1.1,1.1L27.4,29.6
	c-1.2,1.1-2.2,2-3,2.7c-0.7,0.7-1.3,1.2-1.7,1.8c-0.4,0.5-0.7,1-1,1.5c-0.2,0.5-0.5,1.1-0.8,1.8c-0.7,1.8-1.6,3.2-2.9,4.2
	C16.9,42.5,15.4,43,13.6,43z M36.2,31.2l-1.1-1.1c1.4-1.8,2.5-3.7,3.2-5.8s1.1-4.2,1.1-6.5c0-2.4-0.4-4.8-1.2-7s-2-4.2-3.6-6l1.1-1
	c1.7,1.9,3,4,3.9,6.4s1.4,4.9,1.4,7.6c0,2.4-0.4,4.8-1.2,7.1C38.9,27.2,37.7,29.3,36.2,31.2z M30.8,25.8l-1.3-1.2c0.6-1,1-2,1.3-3.2
	c0.3-1.1,0.4-2.3,0.4-3.5c0-3.2-1.1-5.9-3.3-8c-2.2-2.2-4.9-3.3-8-3.3c-1.2,0-2.3,0.2-3.4,0.5s-2.1,0.8-3.1,1.4l-1.1-1.1
	c1.1-0.7,2.3-1.3,3.5-1.7c1.3-0.4,2.6-0.6,4-0.6c3.7,0,6.8,1.2,9.2,3.6s3.6,5.5,3.6,9.2c0,1.5-0.2,2.9-0.5,4.2
	C31.9,23.5,31.4,24.7,30.8,25.8z M25.3,20.3l-7.6-7.6c0.3-0.2,0.7-0.3,1.1-0.4c0.4-0.1,0.8-0.1,1.2-0.1c1.6,0,3,0.6,4.1,1.7
	s1.7,2.5,1.7,4.1c0,0.4,0,0.8-0.1,1.2C25.5,19.6,25.4,20,25.3,20.3z M13.6,29.6l3.7-6.5c-0.4-0.2-0.9-0.5-1.2-0.9
	c-0.4-0.3-0.7-0.7-1-1.2l-5.9,5.1L13.6,29.6z"/>
</svg>
