<?xml version="1.0" encoding="utf-8"?>
<!-- Generator: Adobe Illustrator 26.3.1, SVG Export Plug-In . SVG Version: 6.00 Build 0)  -->
<svg version="1.1" id="Слой_1" xmlns="http://www.w3.org/2000/svg" xmlns:xlink="http://www.w3.org/1999/xlink" x="0px" y="0px"
	 viewBox="0 0 48 48" style="enable-background:new 0 0 48 48;" xml:space="preserve">
<path d="M25.6,39.8c-0.1,0.1-0.2,0.1-0.2,0.1c-0.1,0-0.2,0-0.3,0c-0.1,0-0.2,0-0.3,0c-0.1,0-0.2-0.1-0.3-0.1
	c-1.1-1.2-1.9-2.4-2.6-3.8c-0.6-1.4-0.9-2.8-0.9-4.3c0-1.1,0.2-2.3,0.5-3.5s0.9-2.8,1.8-4.9c0.7-1.8,1.3-3.3,1.6-4.3
	c0.3-1.1,0.5-2.1,0.5-3c0-1.2-0.3-2.4-0.8-3.5s-1.4-2.2-2.4-3.2C22,9.2,22,9.1,21.9,9c0-0.1,0-0.2,0-0.3s0-0.2,0-0.3S22,8.2,22,8.2
	C22.1,8.1,22.2,8,22.3,8c0.1,0,0.2-0.1,0.3-0.1c0.1,0,0.2,0,0.3,0.1c0.1,0,0.2,0.1,0.2,0.2c1.1,1.1,2,2.3,2.7,3.6s1,2.7,1,4.2
	c0,1-0.2,2.1-0.5,3.3c-0.3,1.1-0.9,2.7-1.7,4.6c-0.8,1.9-1.3,3.4-1.6,4.5c-0.3,1.1-0.5,2.2-0.5,3.2c0,1.3,0.2,2.5,0.7,3.7
	s1.3,2.3,2.3,3.4c0.1,0.1,0.1,0.2,0.1,0.3s0.1,0.2,0.1,0.3s0,0.2-0.1,0.3C25.8,39.6,25.7,39.7,25.6,39.8z M34.8,39.8
	c-0.1,0.1-0.2,0.1-0.3,0.1S34.3,40,34.2,40s-0.2,0-0.3-0.1c-0.1,0-0.2-0.1-0.3-0.2c-1.1-1.2-1.9-2.4-2.5-3.8
	c-0.6-1.4-0.9-2.8-0.9-4.3c0-1.1,0.2-2.2,0.5-3.5c0.3-1.2,0.9-2.8,1.7-4.9c0.8-1.8,1.3-3.3,1.6-4.3c0.3-1.1,0.4-2,0.4-2.9
	c0-1.2-0.3-2.4-0.8-3.5s-1.3-2.2-2.5-3.2C31,9.2,31,9.1,30.9,9c0-0.1,0-0.2,0-0.3s0-0.2,0-0.2c0-0.1,0.1-0.2,0.2-0.2
	c0.1-0.1,0.2-0.2,0.3-0.2C31.6,8,31.7,8,31.8,8C31.9,8,32,8,32,8.1c0.1,0,0.2,0.1,0.2,0.1c1.1,1.1,2,2.3,2.7,3.6s1,2.7,1,4.2
	c0,1-0.2,2.1-0.5,3.3c-0.3,1.1-0.9,2.7-1.7,4.7c-0.8,1.9-1.3,3.4-1.6,4.5s-0.5,2.2-0.5,3.2c0,1.3,0.3,2.5,0.8,3.7s1.3,2.3,2.3,3.5
	c0,0.1,0.1,0.2,0.1,0.2c0,0.1,0,0.2,0,0.3S34.8,39.6,34.8,39.8C34.9,39.6,34.9,39.7,34.8,39.8z M16.5,39.8c-0.1,0.1-0.2,0.1-0.3,0.1
	c0,0.1-0.1,0.1-0.2,0.1s-0.2,0-0.3-0.1c-0.1,0-0.2-0.1-0.3-0.2c-1.1-1.2-1.9-2.4-2.5-3.8c-0.6-1.4-0.9-2.8-0.9-4.3
	c0-1.1,0.2-2.2,0.5-3.5c0.3-1.2,0.9-2.8,1.7-4.9c0.8-1.8,1.3-3.3,1.6-4.3c0.3-1.1,0.4-2,0.4-2.9c0-1.2-0.3-2.4-0.8-3.5
	s-1.3-2.2-2.5-3.2c-0.1-0.1-0.1-0.2-0.1-0.3s0-0.2,0-0.3s0-0.2,0-0.3s0-0.2,0.1-0.2C13,8.1,13.1,8.1,13.2,8c0.1,0,0.2-0.1,0.3-0.1
	s0.2,0,0.3,0.1c0.1,0,0.2,0.1,0.3,0.2c1.1,1.1,2,2.3,2.7,3.6s1,2.7,1,4.2c0,1-0.1,2.1-0.4,3.2s-0.8,2.7-1.6,4.7
	c-0.8,1.9-1.3,3.4-1.6,4.5s-0.5,2.2-0.5,3.2c0,1.3,0.3,2.5,0.8,3.7s1.3,2.3,2.3,3.4c0,0.1,0.1,0.2,0.1,0.2c0,0.1,0,0.2,0,0.3
	s0,0.2-0.1,0.3S16.6,39.7,16.5,39.8z"/>
</svg>
