<?xml version="1.0" encoding="utf-8"?>
<!-- Generator: Adobe Illustrator 26.3.1, SVG Export Plug-In . SVG Version: 6.00 Build 0)  -->
<svg version="1.1" id="Слой_1" xmlns="http://www.w3.org/2000/svg" xmlns:xlink="http://www.w3.org/1999/xlink" x="0px" y="0px"
	 viewBox="0 0 48 48" style="enable-background:new 0 0 48 48;" xml:space="preserve">
<path d="M13.8,34.8c-1.3,0-2.5-0.5-3.4-1.4C9.5,32.5,9,31.3,9,30V15.5h1.5V30c0,0.9,0.3,1.7,1,2.3c0.6,0.6,1.4,1,2.3,1
	c0.9,0,1.7-0.3,2.3-1c0.6-0.6,1-1.4,1-2.3v-9.6c0-1.3,0.5-2.5,1.4-3.4s2.1-1.4,3.4-1.4c1.4,0,2.5,0.5,3.4,1.4s1.4,2.1,1.4,3.4V30
	c0,0.9,0.3,1.7,1,2.3c0.6,0.6,1.4,1,2.3,1s1.7-0.3,2.3-1c0.6-0.6,1-1.4,1-2.3V18.3c0-1.3,0.5-2.4,1.4-3.4c0.9-0.9,2-1.4,3.4-1.4h5.5
	L40,9.9l1.1-1.1l5.5,5.5l-5.5,5.4L40,18.6l3.7-3.5h-5.6c-0.9,0-1.7,0.3-2.3,0.9c-0.6,0.6-0.9,1.4-0.9,2.3V30c0,1.3-0.5,2.5-1.4,3.4
	s-2.1,1.4-3.4,1.4s-2.5-0.5-3.4-1.4s-1.4-2.1-1.4-3.4v-9.6c0-0.9-0.3-1.7-1-2.3c-0.6-0.6-1.4-1-2.3-1s-1.7,0.3-2.3,1
	c-0.6,0.6-1,1.4-1,2.3V30c0,1.3-0.5,2.5-1.4,3.4C16.3,34.3,15.2,34.8,13.8,34.8z M6.8,41.2c-0.7,0-1.4-0.3-1.9-0.8S4,39.2,4,38.4
	v-14h40v14.1c0,0.7-0.3,1.4-0.8,1.9s-1.2,0.8-1.9,0.8H6.8z M6.8,39.7h34.5c0.4,0,0.7-0.1,0.9-0.3s0.3-0.5,0.3-0.9V25.9h-37v12.5
	c0,0.4,0.1,0.7,0.3,0.9C6.1,39.5,6.4,39.7,6.8,39.7z M41.2,25.9h1.2H5.5H41.2z"/>
</svg>
