<?xml version="1.0" encoding="utf-8"?>
<!-- Generator: Adobe Illustrator 26.3.1, SVG Export Plug-In . SVG Version: 6.00 Build 0)  -->
<svg version="1.1" id="Слой_1" xmlns="http://www.w3.org/2000/svg" xmlns:xlink="http://www.w3.org/1999/xlink" x="0px" y="0px"
	 viewBox="0 0 48 48" style="enable-background:new 0 0 48 48;" xml:space="preserve">
<path d="M24,34.5c-2.9,0-5.4-1-7.5-3.1c-2-2-3.1-4.5-3.1-7.5c0-2.9,1-5.4,3.1-7.5c2-2.1,4.5-3.1,7.5-3.1c2.9,0,5.4,1,7.5,3.1
	s3.1,4.6,3.1,7.5s-1,5.4-3.1,7.5S26.9,34.5,24,34.5z M23.3,33v-7.5L18,30.7c0.7,0.7,1.6,1.2,2.4,1.6C21.4,32.7,22.4,33,23.3,33z
	 M24.7,33c1-0.1,1.9-0.3,2.8-0.7c0.9-0.4,1.7-0.9,2.5-1.5l-5.3-5.2V33z M30.8,29.9c0.7-0.8,1.2-1.6,1.6-2.5c0.4-0.9,0.6-1.8,0.7-2.8
	h-7.4L30.8,29.9z M25.6,23.3H33c-0.1-1-0.3-1.9-0.7-2.8c-0.4-0.9-0.9-1.7-1.6-2.5C30.8,18.1,25.6,23.3,25.6,23.3z M24.7,22.4
	l5.3-5.2c-0.8-0.7-1.6-1.2-2.5-1.6s-1.8-0.6-2.8-0.7C24.7,15,24.7,22.4,24.7,22.4z M24,25.1c0.3,0,0.6-0.1,0.8-0.3
	c0.2-0.2,0.3-0.5,0.3-0.8s-0.1-0.6-0.3-0.8c-0.2-0.2-0.5-0.3-0.8-0.3s-0.6,0.1-0.8,0.3c-0.2,0.2-0.3,0.5-0.3,0.8s0.1,0.6,0.3,0.8
	S23.7,25.1,24,25.1z M23.3,22.4V15c-1,0.1-1.9,0.3-2.8,0.7c-0.9,0.4-1.7,0.9-2.5,1.6C18.1,17.2,23.3,22.4,23.3,22.4z M15,23.3h7.4
	L17.2,18c-0.7,0.8-1.2,1.6-1.6,2.5C15.3,21.5,15,22.4,15,23.3z M17.2,29.9l5.2-5.3h-7.5c0.1,1,0.3,1.9,0.7,2.8
	C16,28.3,16.6,29.1,17.2,29.9z M10.8,40c-0.8,0-1.4-0.3-2-0.8C8.3,38.7,8,38,8,37.2V10.8c0-0.8,0.3-1.4,0.8-2C9.3,8.3,10,8,10.8,8
	h26.5c0.8,0,1.4,0.3,2,0.8c0.5,0.5,0.8,1.2,0.8,2v26.5c0,0.8-0.3,1.4-0.8,2c-0.5,0.5-1.2,0.8-2,0.8L10.8,40L10.8,40z M10.8,38.5
	h26.5c0.3,0,0.6-0.1,0.8-0.4c0.3-0.3,0.4-0.5,0.4-0.8V10.8c0-0.3-0.1-0.6-0.4-0.8c-0.3-0.3-0.5-0.4-0.8-0.4H10.8
	c-0.3,0-0.6,0.1-0.8,0.4c-0.3,0.3-0.4,0.5-0.4,0.8v26.5c0,0.3,0.1,0.6,0.4,0.8S10.5,38.5,10.8,38.5z M9.5,9.5v28.9V9.5z"/>
</svg>
