<?xml version="1.0" encoding="utf-8"?>
<!-- Generator: Adobe Illustrator 26.3.1, SVG Export Plug-In . SVG Version: 6.00 Build 0)  -->
<svg version="1.1" id="Слой_1" xmlns="http://www.w3.org/2000/svg" xmlns:xlink="http://www.w3.org/1999/xlink" x="0px" y="0px"
	 viewBox="0 0 48 48" style="enable-background:new 0 0 48 48;" xml:space="preserve">
<path d="M20.4,27.2V13.8h-0.2c-4,0-7.1,1.3-9.5,3.9s-3.6,5.7-3.6,9.1V27C7.1,27.2,20.4,27.2,20.4,27.2z M27.4,34.2V13.8h-5.5v14.8
	H7.1v4.2c0,0.4,0.1,0.7,0.3,0.9C7.6,33.9,7.9,34,8.3,34C8.3,34.2,27.4,34.2,27.4,34.2z M28.9,27.9l12-1.3v-5h-12
	C28.9,21.6,28.9,27.9,28.9,27.9z M25.5,40.5H8V39h17.5V40.5z M28.9,35.7H8.3c-0.7,0-1.4-0.3-1.9-0.8c-0.6-0.6-0.8-1.2-0.8-1.9v-6
	c0-3.9,1.3-7.3,4-10.2s6.2-4.4,10.6-4.4H29V20h9.8l1.8-4h2v12l-13.5,1.5C28.9,29.4,28.9,35.7,28.9,35.7z M37.5,9.1H8V7.5h29.5V9.1z
	 M28.9,27.9v-6.4V27.9z"/>
</svg>
