<?xml version="1.0" encoding="utf-8"?>
<!-- Generator: Adobe Illustrator 26.3.1, SVG Export Plug-In . SVG Version: 6.00 Build 0)  -->
<svg version="1.1" id="Слой_1" xmlns="http://www.w3.org/2000/svg" xmlns:xlink="http://www.w3.org/1999/xlink" x="0px" y="0px"
	 viewBox="0 0 48 48" style="enable-background:new 0 0 48 48;" xml:space="preserve">
<path d="M24,34.1c0.4,0,0.7-0.1,0.9-0.4c0.3-0.2,0.4-0.6,0.4-0.9c0-0.4-0.1-0.7-0.4-0.9c-0.3-0.3-0.6-0.4-0.9-0.4
	c-0.4,0-0.7,0.1-0.9,0.4c-0.3,0.3-0.4,0.6-0.4,0.9c0,0.4,0.1,0.7,0.4,0.9C23.3,34,23.6,34.1,24,34.1z M23,27.6h1.5
	c0-0.8,0.2-1.5,0.5-2.1s0.9-1.2,1.7-2c0.9-0.9,1.6-1.8,2-2.5s0.6-1.5,0.6-2.4c0-1.6-0.5-2.8-1.5-3.7s-2.3-1.4-3.8-1.4
	c-1.4,0-2.6,0.4-3.6,1.1c-1,0.7-1.7,1.6-2.2,2.6l1.5,0.7c0.4-0.8,1-1.5,1.6-2s1.5-0.7,2.6-0.7c1.3,0,2.3,0.4,2.9,1.1
	c0.6,0.7,0.9,1.5,0.9,2.5c0,0.7-0.2,1.3-0.5,1.9c-0.4,0.6-0.9,1.1-1.6,1.8c-1.1,1.1-1.8,2-2.2,2.8C23.2,25.9,23,26.7,23,27.6z
	 M10.8,40c-0.8,0-1.4-0.3-2-0.8C8.3,38.7,8,38,8,37.2V10.8c0-0.8,0.3-1.4,0.8-2C9.3,8.3,10,8,10.8,8h26.5c0.8,0,1.4,0.3,2,0.8
	c0.5,0.5,0.8,1.2,0.8,2v26.5c0,0.8-0.3,1.4-0.8,2c-0.5,0.5-1.2,0.8-2,0.8L10.8,40L10.8,40z M10.8,38.5h26.5c0.3,0,0.6-0.1,0.8-0.4
	c0.3-0.3,0.4-0.5,0.4-0.8V10.8c0-0.3-0.1-0.6-0.4-0.8c-0.3-0.3-0.5-0.4-0.8-0.4H10.8c-0.3,0-0.6,0.1-0.8,0.4
	c-0.3,0.3-0.4,0.5-0.4,0.8v26.5c0,0.3,0.1,0.6,0.4,0.8S10.5,38.5,10.8,38.5z M9.5,9.5v28.9V9.5z"/>
</svg>
