<?xml version="1.0" encoding="utf-8"?>
<!-- Generator: Adobe Illustrator 26.3.1, SVG Export Plug-In . SVG Version: 6.00 Build 0)  -->
<svg version="1.1" id="Слой_1" xmlns="http://www.w3.org/2000/svg" xmlns:xlink="http://www.w3.org/1999/xlink" x="0px" y="0px"
	 viewBox="0 0 48 48" style="enable-background:new 0 0 48 48;" xml:space="preserve">
<path d="M26,44c-1.9,0-3.3-0.8-4.4-2.5C20.5,39.9,20,38.1,20,36s0.5-3.9,1.6-5.5c1.1-1.6,2.5-2.5,4.4-2.5s3.3,0.8,4.4,2.5
	C31.5,32.1,32,34,32,36s-0.5,3.9-1.6,5.5C29.3,43.2,27.9,44,26,44z M8.8,43.2l-1.4-0.5c0.9-3.1,1.5-6.2,1.9-9.3
	C9.8,30.3,10,27.2,10,24s-0.2-6.3-0.6-9.5C9,11.4,8.3,8.3,7.5,5.2l1.4-0.5c0.9,3.2,1.6,6.3,2,9.6c0.4,3.2,0.6,6.5,0.6,9.7
	c0,3.3-0.2,6.5-0.6,9.7C10.4,36.9,9.7,40.1,8.8,43.2z M39.1,43.2c-0.9-3.1-1.6-6.3-2-9.5s-0.6-6.5-0.6-9.7c0-3.3,0.2-6.5,0.6-9.7
	s1.1-6.4,2-9.6l1.4,0.5c-0.9,3.1-1.5,6.2-1.9,9.3C38.2,17.7,38,20.8,38,24s0.2,6.3,0.6,9.4c0.4,3.1,1.1,6.2,1.9,9.3
	C40.6,42.7,39.1,43.2,39.1,43.2z M26,42.5c1.4,0,2.6-0.7,3.3-2c0.8-1.3,1.1-2.8,1.1-4.5s-0.4-3.1-1.1-4.5c-0.8-1.3-1.9-2-3.3-2
	s-2.6,0.7-3.3,2c-0.8,1.3-1.1,2.8-1.1,4.5s0.4,3.1,1.1,4.5C23.4,41.8,24.6,42.5,26,42.5z M24.9,39.1c0.2,0.2,0.4,0.2,0.6,0.2
	s0.4-0.1,0.6-0.3c0.4-0.4,0.7-0.9,0.9-1.4c0.2-0.5,0.3-1.1,0.3-1.7s-0.1-1.1-0.3-1.7c-0.2-0.5-0.5-1-0.9-1.4
	c-0.2-0.2-0.4-0.3-0.6-0.3s-0.4,0.1-0.6,0.2s-0.3,0.4-0.3,0.6c0,0.2,0.1,0.5,0.2,0.7c0.2,0.2,0.4,0.5,0.5,0.8s0.2,0.7,0.2,1.1
	c0,0.4-0.1,0.7-0.2,1.1c-0.1,0.3-0.3,0.6-0.5,0.8s-0.3,0.4-0.3,0.7C24.6,38.8,24.7,39,24.9,39.1z M22,20c-1.9,0-3.3-0.8-4.4-2.5
	C16.5,15.9,16,14.1,16,12s0.5-3.9,1.6-5.5C18.7,4.8,20.1,4,22,4s3.3,0.8,4.4,2.5C27.5,8.1,28,9.9,28,12s-0.5,3.9-1.6,5.5
	C25.3,19.2,23.9,20,22,20z M22,18.5c1.4,0,2.6-0.7,3.3-2c0.8-1.3,1.1-2.8,1.1-4.5S26,8.9,25.3,7.5c-0.8-1.3-1.9-2-3.3-2
	s-2.6,0.7-3.3,2c-0.8,1.3-1.1,2.8-1.1,4.5c0,1.6,0.4,3.1,1.1,4.5C19.4,17.8,20.6,18.5,22,18.5z M23.1,15.1c0.2-0.2,0.3-0.4,0.3-0.6
	c0-0.2-0.1-0.5-0.2-0.7c-0.2-0.3-0.4-0.5-0.6-0.9c-0.1-0.3-0.2-0.7-0.2-1s0.1-0.7,0.2-1s0.3-0.6,0.6-0.9c0.2-0.2,0.3-0.4,0.3-0.6
	c0-0.2-0.1-0.4-0.3-0.6c-0.2-0.2-0.4-0.2-0.6-0.2S22.1,8.7,22,8.9c-0.4,0.4-0.7,0.9-0.9,1.4c-0.2,0.5-0.3,1.1-0.3,1.7
	c0,0.6,0.1,1.1,0.3,1.7c0.2,0.5,0.5,1,0.9,1.4c0.2,0.2,0.4,0.3,0.6,0.3C22.7,15.4,22.9,15.3,23.1,15.1z"/>
</svg>
