<?xml version="1.0" encoding="utf-8"?>
<!-- Generator: Adobe Illustrator 26.3.1, SVG Export Plug-In . SVG Version: 6.00 Build 0)  -->
<svg version="1.1" id="Слой_1" xmlns="http://www.w3.org/2000/svg" xmlns:xlink="http://www.w3.org/1999/xlink" x="0px" y="0px"
	 viewBox="0 0 48 48" style="enable-background:new 0 0 48 48;" xml:space="preserve">
<path d="M6.6,29.4V18.6h1.5v4.2h3.6v-4.2h1.5v10.8h-1.5v-5.1H8.1v5.1C8.1,29.4,6.6,29.4,6.6,29.4z M16.6,29.4V18.6h5.5v1.5h-4v2.7h4
	v1.5h-4V28h4v1.5h-5.5V29.4z M27.3,29.4l-2.5-10.8h1.6l2.1,9.2l2.1-9.2h1.6l-2.5,10.8C29.7,29.4,27.3,29.4,27.3,29.4z M36.2,29.4
	c-0.4,0-0.8-0.1-1-0.4c-0.3-0.3-0.4-0.6-0.4-1v-8c0-0.4,0.1-0.7,0.4-1c0.3-0.3,0.6-0.4,1-0.4H40c0.4,0,0.7,0.1,1,0.4s0.4,0.6,0.4,1
	v1.2h-1.5V20h-3.6v7.8h3.6v-1h1.5V28c0,0.4-0.1,0.7-0.4,1s-0.6,0.4-1,0.4H36.2z"/>
</svg>
