<?xml version="1.0" encoding="utf-8"?>
<!-- Generator: Adobe Illustrator 26.3.1, SVG Export Plug-In . SVG Version: 6.00 Build 0)  -->
<svg version="1.1" id="Слой_1" xmlns="http://www.w3.org/2000/svg" xmlns:xlink="http://www.w3.org/1999/xlink" x="0px" y="0px"
	 viewBox="0 0 48 48" style="enable-background:new 0 0 48 48;" xml:space="preserve">
<path d="M10,36.4h1.8v-4h2l1.8,4h1.9l-1.9-4.2c0.6,0,1.2-0.2,1.6-0.6s0.6-0.9,0.6-1.6v-2.3c0-0.6-0.2-1.1-0.6-1.5s-0.9-0.6-1.5-0.6
	H10V36.4z M20.6,36.4h6.8v-1.8h-5v-2.7h4v-1.8h-4v-2.7h5v-1.8h-6.8C20.6,25.6,20.6,36.4,20.6,36.4z M30.2,36.4h6.4
	c0.4,0,0.7-0.1,1-0.4c0.3-0.3,0.4-0.6,0.4-1v-3.2c0-0.4-0.2-0.8-0.5-1.1c-0.3-0.3-0.7-0.5-1.1-0.5H32v-2.8h6v-1.8h-6.4
	c-0.4,0-0.7,0.1-1,0.4s-0.4,0.6-0.4,1v3.2c0,0.4,0.1,0.8,0.4,1.1c0.3,0.3,0.7,0.4,1.1,0.4h4.5v2.8h-6C30.2,34.6,30.2,36.4,30.2,36.4
	z M11.8,30.6v-3.2h3.6c0.2,0,0.3,0.1,0.5,0.2c0.1,0.1,0.2,0.3,0.2,0.5V30c0,0.2-0.1,0.3-0.2,0.5c-0.1,0.1-0.3,0.2-0.5,0.2
	C15.3,30.6,11.8,30.6,11.8,30.6z M16.4,22.4h1.8v-4.5h4.2v4.5h1.8V11.6h-1.8v4.5h-4.2v-4.5h-1.8C16.4,11.6,16.4,22.4,16.4,22.4z
	 M28.1,22.4h1.8V11.6h-1.8V22.4z M7.2,40c-0.8,0-1.4-0.3-2-0.8c-0.5-0.5-0.8-1.2-0.8-2V10.8c0-0.8,0.3-1.4,0.8-2
	C5.8,8.3,6.5,8,7.2,8h33.5c0.8,0,1.4,0.3,2,0.8c0.5,0.5,0.8,1.2,0.8,2v26.5c0,0.8-0.3,1.4-0.8,2c-0.5,0.5-1.2,0.8-2,0.8L7.2,40
	L7.2,40z M7.2,38.5h33.5c0.3,0,0.6-0.1,0.8-0.4c0.3-0.3,0.4-0.5,0.4-0.8V10.8c0-0.3-0.1-0.6-0.4-0.8c-0.3-0.3-0.5-0.4-0.8-0.4H7.2
	c-0.3,0-0.6,0.1-0.8,0.4C6.1,10.2,6,10.5,6,10.8v26.5c0,0.3,0.1,0.6,0.4,0.8C6.6,38.3,6.9,38.5,7.2,38.5z M6,38.5v-29V38.5z"/>
</svg>
