<?xml version="1.0" encoding="utf-8"?>
<!-- Generator: Adobe Illustrator 26.3.1, SVG Export Plug-In . SVG Version: 6.00 Build 0)  -->
<svg version="1.1" id="Слой_1" xmlns="http://www.w3.org/2000/svg" xmlns:xlink="http://www.w3.org/1999/xlink" x="0px" y="0px"
	 viewBox="0 0 48 48" style="enable-background:new 0 0 48 48;" xml:space="preserve">
<path d="M14.5,45l5.8-30.2c0.1-0.6,0.4-1.1,0.9-1.4c0.5-0.3,1-0.5,1.5-0.5s1,0.1,1.5,0.4c0.5,0.2,0.9,0.6,1.2,1l2,3.2
	c0.7,1.1,1.7,2.2,3,3.1s3,1.7,4.8,2.3v-4h1.3V45h-1.3V24.3c-1.8-0.4-3.6-1.1-5.2-2.2c-1.7-1.1-3.3-2.5-4.7-4.2L23.5,27l4.3,4.1V45
	h-1.5V33.1l-6.3-5L16.2,45H14.5z M14.5,24.9l-3-0.6c-0.2,0-0.4-0.2-0.5-0.3c-0.1-0.2-0.2-0.4-0.1-0.6l1.5-7.8
	c0.1-0.7,0.5-1.3,1.2-1.8c0.6-0.5,1.3-0.6,2.1-0.4l1.1,0.3C16.7,13.6,14.5,24.9,14.5,24.9z M26,10.1c-0.9,0-1.7-0.3-2.3-1
	c-0.6-0.6-0.9-1.4-0.9-2.3s0.3-1.7,0.9-2.3s1.4-0.9,2.3-0.9s1.7,0.3,2.3,0.9c0.6,0.6,0.9,1.4,0.9,2.3s-0.3,1.6-0.9,2.3
	C27.7,9.7,26.9,10.1,26,10.1z"/>
</svg>
