<?xml version="1.0" encoding="utf-8"?>
<!-- Generator: Adobe Illustrator 26.3.1, SVG Export Plug-In . SVG Version: 6.00 Build 0)  -->
<svg version="1.1" id="Слой_1" xmlns="http://www.w3.org/2000/svg" xmlns:xlink="http://www.w3.org/1999/xlink" x="0px" y="0px"
	 viewBox="0 0 48 48" style="enable-background:new 0 0 48 48;" xml:space="preserve">
<path d="M37.4,32.6l-1.1-1.2c0.7-1.1,1.2-2.3,1.6-3.6c0.4-1.3,0.5-2.6,0.5-4c0-4-1.4-7.4-4.2-10.2s-6.3-4.2-10.3-4.2
	c-1.3,0-2.6,0.2-3.8,0.5c-1.2,0.4-2.4,0.9-3.5,1.5l-1.1-1.1c1.3-0.8,2.6-1.4,4-1.8C20.9,8.2,22.4,8,23.9,8c2.2,0,4.3,0.4,6.2,1.2
	c1.9,0.8,3.6,2,5.1,3.4s2.6,3.1,3.5,5.1c0.8,1.9,1.3,4,1.3,6.2c0,1.6-0.2,3.2-0.7,4.6C38.8,30,38.2,31.4,37.4,32.6z M24.8,19.9
	l-1.5-1.6v-4.4h1.5V19.9z M41.5,43.8L34,36.4c-1.4,1.2-3,2.1-4.7,2.7c-1.7,0.6-3.6,0.9-5.5,0.9c-4.2,0-7.9-1.4-10.9-4.3
	c-3-2.9-4.7-6.4-4.9-10.6h1.5c0.3,3.8,1.8,6.9,4.5,9.5s6,3.9,9.8,3.9c1.7,0,3.4-0.3,4.9-0.8c1.5-0.6,2.9-1.4,4.2-2.4L13.5,15.8h-3.1
	v-3.1L4.3,6.6l1.1-1.1l37.2,37.2C42.6,42.7,41.5,43.8,41.5,43.8z"/>
</svg>
