<?xml version="1.0" encoding="utf-8"?>
<!-- Generator: Adobe Illustrator 26.3.1, SVG Export Plug-In . SVG Version: 6.00 Build 0)  -->
<svg version="1.1" id="Слой_1" xmlns="http://www.w3.org/2000/svg" xmlns:xlink="http://www.w3.org/1999/xlink" x="0px" y="0px"
	 viewBox="0 0 48 48" style="enable-background:new 0 0 48 48;" xml:space="preserve">
<path d="M30.6,31.7l-7.4-7.4v-9.1h1.5v8.5l6.9,6.9L30.6,31.7z M8,32.3c-0.6-1.2-1.1-2.4-1.4-3.6c-0.3-1.3-0.5-2.6-0.6-3.9h1.5
	c0.1,1.2,0.3,2.3,0.6,3.5c0.3,1.1,0.7,2.2,1.3,3.3C9.3,31.5,8,32.3,8,32.3z M6,23.2c0-1.3,0.2-2.6,0.6-3.9C6.9,18,7.4,16.8,8,15.6
	l1.3,0.8c-0.6,1.1-1,2.2-1.3,3.3c-0.3,1.1-0.5,2.3-0.6,3.5C7.5,23.2,6,23.2,6,23.2z M14.4,39.2c-1.1-0.7-2.2-1.6-3.1-2.5
	c-1-0.9-1.8-2-2.5-3.1l1.3-0.8c0.6,1,1.4,2,2.2,2.8c0.9,0.9,1.8,1.6,2.8,2.2L14.4,39.2z M10.1,15.1l-1.3-0.8
	c0.7-1.1,1.5-2.2,2.5-3.1c1-1,2-1.8,3.1-2.5l0.8,1.3c-1,0.6-1.9,1.4-2.8,2.2C11.5,13.2,10.7,14.1,10.1,15.1z M23.2,42
	c-1.3,0-2.6-0.2-3.9-0.6c-1.3-0.3-2.5-0.8-3.7-1.4l0.8-1.3c1.1,0.6,2.2,1,3.3,1.3c1.1,0.3,2.3,0.5,3.5,0.6
	C23.2,40.5,23.2,42,23.2,42z M16.5,9.3L15.7,8c1.2-0.6,2.4-1.1,3.7-1.4S22,6.1,23.3,6v1.5c-1.2,0.1-2.3,0.3-3.5,0.6
	C18.6,8.4,17.5,8.8,16.5,9.3z M24.8,42v-1.5c1.2-0.1,2.3-0.3,3.5-0.6c1.1-0.3,2.2-0.7,3.3-1.3l0.8,1.3c-1.2,0.6-2.4,1.1-3.7,1.4
	C27.4,41.7,26.1,41.9,24.8,42z M31.5,9.3c-1.1-0.5-2.2-0.9-3.3-1.2c-1.1-0.3-2.3-0.5-3.5-0.6V6c1.3,0,2.6,0.2,3.9,0.6
	c1.3,0.3,2.5,0.8,3.7,1.4L31.5,9.3z M33.6,39.2l-0.8-1.3c1-0.6,1.9-1.4,2.8-2.2c0.9-0.9,1.6-1.8,2.2-2.8l1.3,0.8
	c-0.7,1.1-1.5,2.1-2.5,3.1C35.8,37.7,34.8,38.5,33.6,39.2z M37.9,15.1c-0.6-1-1.4-1.9-2.2-2.8c-0.9-0.8-1.8-1.6-2.8-2.2l0.8-1.3
	c1.1,0.7,2.1,1.6,3.1,2.5c0.9,0.9,1.8,1.9,2.5,3.1C39.2,14.3,37.9,15.1,37.9,15.1z M40.5,23.2c-0.1-1.2-0.3-2.4-0.6-3.5
	s-0.8-2.2-1.3-3.3l1.4-0.8c0.6,1.2,1.1,2.4,1.4,3.7c0.3,1.3,0.5,2.6,0.6,3.9H40.5z M40,32.3l-1.3-0.8c0.5-1.1,0.9-2.2,1.2-3.3
	c0.3-1.1,0.5-2.3,0.6-3.5H42c0,1.3-0.2,2.6-0.6,3.9C41.1,29.9,40.6,31.1,40,32.3z"/>
</svg>
