<?xml version="1.0" encoding="utf-8"?>
<!-- Generator: Adobe Illustrator 26.3.1, SVG Export Plug-In . SVG Version: 6.00 Build 0)  -->
<svg version="1.1" id="Слой_1" xmlns="http://www.w3.org/2000/svg" xmlns:xlink="http://www.w3.org/1999/xlink" x="0px" y="0px"
	 viewBox="0 0 48 48" style="enable-background:new 0 0 48 48;" xml:space="preserve">
<path d="M20.2,43l-3.4-6.1h-6.7L6.2,30l3.4-6l-3.4-6.1l3.9-6.9h6.7l3.4-6h7.7l3.4,6.1H38l3.8,6.9l-3.4,6l3.4,6.1L38,37h-6.7l-3.5,6
	H20.2z M31.3,23.2h5.8l3-5.3l-3-5.3h-5.8l-3,5.3C28.3,17.9,31.3,23.2,31.3,23.2z M21.2,29.3h5.7l3-5.3l-3-5.3h-5.7l-3,5.3L21.2,29.3
	z M21.2,17.2h5.7l3.1-5.4l-3-5.3h-5.8l-3,5.3C18.1,11.8,21.2,17.2,21.2,17.2z M11,23.2h5.8l3-5.3l-3-5.3H11l-3,5.3
	C7.9,17.9,11,23.2,11,23.2z M11,35.4h5.8l3-5.3l-3.1-5.3h-5.8l-3,5.3C7.9,30.1,11,35.4,11,35.4z M21.1,41.5h5.8l3-5.3l-3.1-5.3h-5.7
	L18,36.2C18.1,36.1,21.1,41.5,21.1,41.5z M31.3,35.4H37l3-5.3l-3-5.3h-5.7l-3,5.3L31.3,35.4z"/>
</svg>
