<?xml version="1.0" encoding="utf-8"?>
<!-- Generator: Adobe Illustrator 26.3.1, SVG Export Plug-In . SVG Version: 6.00 Build 0)  -->
<svg version="1.1" id="Слой_1" xmlns="http://www.w3.org/2000/svg" xmlns:xlink="http://www.w3.org/1999/xlink" x="0px" y="0px"
	 viewBox="0 0 48 48" style="enable-background:new 0 0 48 48;" xml:space="preserve">
<path d="M6.6,29.4V18.6h1.5v4.2h5.7v-4.2h1.5v10.8h-1.5v-5.1H8.1v5.1C8.1,29.4,6.6,29.4,6.6,29.4z M20.4,29.4V18.6h1.5v9.3h5.9v1.5
	C27.8,29.4,20.4,29.4,20.4,29.4z M33,29.4c-0.4,0-0.7-0.1-1-0.4s-0.4-0.6-0.4-1v-2h1.5v1.9h5.8v-3.3h-6.2c-0.3,0-0.6-0.1-0.8-0.3
	c-0.2-0.2-0.3-0.5-0.3-0.8V20c0-0.4,0.1-0.7,0.4-1c0.3-0.3,0.6-0.4,1-0.4h6c0.4,0,0.7,0.1,1,0.4s0.4,0.6,0.4,1v2h-1.5v-1.9h-5.8v3.3
	h6.2c0.3,0,0.6,0.1,0.8,0.3c0.2,0.2,0.3,0.5,0.3,0.8V28c0,0.4-0.1,0.7-0.4,1c-0.3,0.3-0.6,0.4-1,0.4H33z"/>
</svg>
