<?xml version="1.0" encoding="utf-8"?>
<!-- Generator: Adobe Illustrator 26.3.1, SVG Export Plug-In . SVG Version: 6.00 Build 0)  -->
<svg version="1.1" id="Слой_1" xmlns="http://www.w3.org/2000/svg" xmlns:xlink="http://www.w3.org/1999/xlink" x="0px" y="0px"
	 viewBox="0 0 48 48" style="enable-background:new 0 0 48 48;" xml:space="preserve">
<path d="M10.5,34.7h26.9c1.4,0,2.6-0.5,3.5-1.5c1-1,1.5-2.2,1.5-3.5V18.5c0-1.4-0.5-2.6-1.5-3.5c-1-1-2.2-1.5-3.5-1.5H10.5
	C9.2,13.5,8,14,7,15s-1.5,2.2-1.5,3.5v11.2c0,1.4,0.5,2.6,1.5,3.5C8,34.2,9.2,34.7,10.5,34.7z M16,37.5v-1.3h-5.5
	c-1.8,0-3.4-0.6-4.6-1.9C4.6,33.1,4,31.5,4,29.7V18.5c0-1.8,0.6-3.4,1.9-4.6S8.7,12,10.5,12h26.9c1.8,0,3.4,0.6,4.6,1.9
	c1.3,1.3,1.9,2.8,1.9,4.6v11.2c0,1.8-0.6,3.4-1.9,4.6c-1.3,1.3-2.8,1.9-4.6,1.9H32v1.3H16z"/>
</svg>
