<?xml version="1.0" encoding="utf-8"?>
<!-- Generator: Adobe Illustrator 26.3.1, SVG Export Plug-In . SVG Version: 6.00 Build 0)  -->
<svg version="1.1" id="Слой_1" xmlns="http://www.w3.org/2000/svg" xmlns:xlink="http://www.w3.org/1999/xlink" x="0px" y="0px"
	 viewBox="0 0 48 48" style="enable-background:new 0 0 48 48;" xml:space="preserve">
<path d="M10.7,40c-0.7,0-1.4-0.3-1.9-0.8S8,38.1,8,37.3v-3.5l7.1-6.3V40C15.2,40,10.7,40,10.7,40z M16.8,40v-7.1h14.3V40H16.8z
	 M32.8,40V25.5l-7.6-6.7l5.4-4.7l8.5,7.5c0.3,0.3,0.5,0.6,0.7,0.9s0.2,0.7,0.2,1.1v13.8c0,0.7-0.3,1.4-0.8,1.9
	C38.6,39.7,38,40,37.3,40H32.8z M8.1,31.6v-8.1c0-0.4,0.1-0.7,0.2-1.1C8.5,22,8.7,21.7,9,21.5L22.2,9.7c0.3-0.2,0.5-0.4,0.8-0.5
	C23.4,9.1,23.7,9,24,9s0.6,0.1,0.9,0.2c0.3,0.1,0.6,0.3,0.8,0.5l3.5,3.2C29.3,12.9,8.1,31.6,8.1,31.6z"/>
</svg>
