<?xml version="1.0" encoding="utf-8"?>
<!-- Generator: Adobe Illustrator 26.3.1, SVG Export Plug-In . SVG Version: 6.00 Build 0)  -->
<svg version="1.1" id="Слой_1" xmlns="http://www.w3.org/2000/svg" xmlns:xlink="http://www.w3.org/1999/xlink" x="0px" y="0px"
	 viewBox="0 0 48 48" style="enable-background:new 0 0 48 48;" xml:space="preserve">
<path d="M19.4,40c-2,0-3.7-0.8-4.9-2.4c-1.2-1.6-1.7-3.4-1.4-5.4l2.5-19.1c0-0.2,0.1-0.5,0.3-0.6c0.1-0.2,0.3-0.3,0.6-0.4l13.8-5.7
	c0.4-0.2,0.9-0.1,1.2,0.1c0.4,0.2,0.6,0.6,0.6,1l2.8,25c0.2,2-0.3,3.7-1.5,5.3c-1.2,1.5-2.8,2.3-4.8,2.3L19.4,40L19.4,40z
	 M19.4,38.5h9.3c1.5,0,2.7-0.6,3.6-1.7c0.9-1.2,1.3-2.5,1.1-4l-0.7-6.1H15.4l-0.8,6c-0.2,1.5,0.2,2.9,1.1,4
	C16.6,37.9,17.8,38.5,19.4,38.5z M17.1,13.4l-1.5,11.7h17l-2-17.3L17.1,13.4z M24,26.6v-1.5V26.6z"/>
</svg>
