<?xml version="1.0" encoding="utf-8"?>
<!-- Generator: Adobe Illustrator 26.3.1, SVG Export Plug-In . SVG Version: 6.00 Build 0)  -->
<svg version="1.1" id="Слой_1" xmlns="http://www.w3.org/2000/svg" xmlns:xlink="http://www.w3.org/1999/xlink" x="0px" y="0px"
	 viewBox="0 0 48 48" style="enable-background:new 0 0 48 48;" xml:space="preserve">
<path d="M34.9,17h2.6v-2.6h-2.6V17z M34.9,25.2h2.6v-2.6h-2.6V25.2z M34.9,33.5h2.6v-2.6h-2.6V33.5z M31.1,40v-1.5h11.4v-29h-20v5.7
	L21,14.1V8h23v32H31.1z M4,40V23.2l11.8-8.4l11.8,8.4V40h-8.9v-9H13v9H4z M5.5,38.5h5.9v-9h8.8v9H26V24l-10.2-7.2L5.5,24V38.5z
	 M20.2,38.5v-9h-8.8v9v-9h8.8V38.5z"/>
</svg>
