<?xml version="1.0" encoding="utf-8"?>
<!-- Generator: Adobe Illustrator 26.3.1, SVG Export Plug-In . SVG Version: 6.00 Build 0)  -->
<svg version="1.1" id="Слой_1" xmlns="http://www.w3.org/2000/svg" xmlns:xlink="http://www.w3.org/1999/xlink" x="0px" y="0px"
	 viewBox="0 0 48 48" style="enable-background:new 0 0 48 48;" xml:space="preserve">
<path d="M6,38V19.7c0-0.8,0.3-1.4,0.8-2c0.5-0.5,1.2-0.8,2-0.8H15v-4.2c0-0.8,0.3-1.4,0.8-2c0.5-0.5,1.2-0.8,2-0.8h12.5
	c0.8,0,1.4,0.3,2,0.8c0.5,0.5,0.8,1.2,0.8,2v4.2h6.2c0.8,0,1.4,0.3,2,0.8c0.5,0.5,0.8,1.2,0.8,2V38H6z M14.3,28.2v2.5h-1.5v-2.5H7.5
	v8.2h32.9v-8.2h-5.2v2.5h-1.5v-2.5H14.3z M7.5,19.7v7h5.2v-2.5h1.5v2.5h19.4v-2.5h1.5v2.5h5.2v-7c0-0.3-0.1-0.6-0.4-0.8
	c-0.3-0.3-0.5-0.4-0.8-0.4H8.8c-0.3,0-0.6,0.1-0.8,0.4C7.7,19.1,7.5,19.4,7.5,19.7z M16.5,16.9h14.9v-4.2c0-0.3-0.1-0.6-0.4-0.8
	c-0.3-0.3-0.5-0.4-0.8-0.4H17.8c-0.3,0-0.6,0.1-0.8,0.4c-0.3,0.3-0.4,0.5-0.4,0.8C16.5,12.8,16.5,16.9,16.5,16.9z"/>
</svg>
