<?xml version="1.0" encoding="utf-8"?>
<!-- Generator: Adobe Illustrator 26.3.1, SVG Export Plug-In . SVG Version: 6.00 Build 0)  -->
<svg version="1.1" id="Слой_1" xmlns="http://www.w3.org/2000/svg" xmlns:xlink="http://www.w3.org/1999/xlink" x="0px" y="0px"
	 viewBox="0 0 48 48" style="enable-background:new 0 0 48 48;" xml:space="preserve">
<path d="M12.8,36.5c1.5,0,2.8-0.5,3.8-1.6c1-1,1.6-2.3,1.6-3.8c0-1-0.3-1.9-0.8-2.8s-1.2-1.6-2.1-2l-0.6-0.4V13.4
	c0-0.5-0.2-0.9-0.5-1.3c-0.3-0.4-0.8-0.5-1.3-0.5s-0.9,0.2-1.3,0.5c-0.4,0.4-0.5,0.8-0.5,1.3v12.5l-0.6,0.4c-0.9,0.4-1.6,1.1-2.1,2
	s-0.8,1.8-0.8,2.8c0,1.5,0.5,2.8,1.6,3.8C10,35.9,11.3,36.5,12.8,36.5z M12.8,38c-1.9,0-3.6-0.7-4.9-2s-2-3-2-4.9
	c0-1.3,0.3-2.5,1-3.6c0.6-1.1,1.5-1.9,2.6-2.5V13.4c0-0.9,0.3-1.7,1-2.4s1.5-1,2.4-1c1,0,1.8,0.3,2.4,1c0.6,0.7,1,1.5,1,2.4V25
	c1,0.6,1.9,1.5,2.6,2.6s1,2.3,1,3.6c0,1.9-0.7,3.5-2,4.9S14.7,38,12.8,38z M26.3,29.6c-1.4-0.9-2.6-2.1-3.6-3.6s-1.6-3.3-1.6-5.5
	c0-2.9,1-5.4,3.1-7.5s4.5-3.1,7.5-3.1c2.9,0,5.4,1,7.5,3.1c2,2,3.1,4.5,3.1,7.5c0,2.1-0.5,3.9-1.6,5.5c-1,1.5-2.3,2.7-3.6,3.6
	C36.9,29.6,26.3,29.6,26.3,29.6z M26.8,28.1h9.8c1.2-0.8,2.1-1.9,2.9-3.2c0.8-1.3,1.2-2.8,1.2-4.3c0-2.5-0.9-4.6-2.6-6.4
	c-1.8-1.8-3.9-2.6-6.4-2.6s-4.6,0.9-6.4,2.6c-1.7,1.8-2.6,3.9-2.6,6.4c0,1.6,0.4,3,1.2,4.4C24.6,26.2,25.6,27.3,26.8,28.1z M31.6,38
	c-0.6,0-1.2-0.2-1.6-0.6c-0.4-0.4-0.7-0.9-0.8-1.5H34c-0.1,0.6-0.3,1.1-0.8,1.5C32.8,37.8,32.2,38,31.6,38z M27,33.6v-1.5h9.2v1.5
	H27z"/>
</svg>
