<?xml version="1.0" encoding="utf-8"?>
<!-- Generator: Adobe Illustrator 26.3.1, SVG Export Plug-In . SVG Version: 6.00 Build 0)  -->
<svg version="1.1" id="Слой_1" xmlns="http://www.w3.org/2000/svg" xmlns:xlink="http://www.w3.org/1999/xlink" x="0px" y="0px"
	 viewBox="0 0 48 48" style="enable-background:new 0 0 48 48;" xml:space="preserve">
<path d="M17.8,36c-3.2,0-6-1.2-8.3-3.5S6,27.3,6,24c0-1.1,0.3-2.3,0.8-3.7c0.6-1.4,1.5-2.7,2.9-3.9s3.2-2.3,5.5-3.1S20.5,12,24,12
	s6.4,0.4,8.7,1.3c2.3,0.8,4.2,1.9,5.5,3.1c1.4,1.2,2.3,2.5,2.9,3.9c0.6,1.4,0.8,2.6,0.8,3.7c0,3.3-1.2,6.2-3.5,8.5
	C36.2,34.8,33.3,36,30,36H17.8z M18,34.5h11.8c2.6,0,4.9-0.8,6.9-2.3s3.3-3.7,3.7-6.6H7.6c0.4,2.9,1.6,5.1,3.6,6.6
	S15.5,34.5,18,34.5z M7.5,24h32.9c0-1-0.3-2.2-0.8-3.4c-0.6-1.2-1.5-2.4-2.7-3.4c-1.3-1-3-1.9-5.1-2.6c-2.1-0.7-4.7-1-7.8-1
	s-5.7,0.3-7.8,1s-3.8,1.6-5.1,2.6s-2.2,2.2-2.7,3.4C7.8,21.8,7.5,23,7.5,24z"/>
</svg>
