<?xml version="1.0" encoding="utf-8"?>
<!-- Generator: Adobe Illustrator 26.3.1, SVG Export Plug-In . SVG Version: 6.00 Build 0)  -->
<svg version="1.1" id="Слой_1" xmlns="http://www.w3.org/2000/svg" xmlns:xlink="http://www.w3.org/1999/xlink" x="0px" y="0px"
	 viewBox="0 0 48 48" style="enable-background:new 0 0 48 48;" xml:space="preserve">
<path d="M4,36V10.3h1.5v17.9h17.8V14.5h15.1c1.5,0,2.9,0.6,4,1.7s1.7,2.4,1.7,4V36h-1.5v-6.2H5.5V36H4z M13.8,24
	c-1.1,0-2-0.4-2.8-1.1s-1.1-1.7-1.1-2.8c0-1.1,0.4-2,1.1-2.8c0.8-0.7,1.7-1.1,2.8-1.1s2,0.4,2.8,1.1c0.8,0.8,1.1,1.7,1.1,2.8
	c0,1.1-0.4,2-1.1,2.8C15.8,23.6,14.9,24,13.8,24z M24.8,28.2h17.6v-8.1c0-1.1-0.4-2.1-1.2-2.9S39.4,16,38.3,16H24.8V28.2z
	 M13.8,22.5c0.7,0,1.2-0.2,1.7-0.7s0.7-1,0.7-1.7c0-0.6-0.2-1.2-0.7-1.7c-0.5-0.5-1-0.7-1.7-0.7s-1.2,0.2-1.7,0.7s-0.7,1-0.7,1.6
	c0,0.7,0.2,1.2,0.7,1.7C12.5,22.2,13.1,22.5,13.8,22.5z M24.8,16v12.2V16z"/>
</svg>
