<?xml version="1.0" encoding="utf-8"?>
<!-- Generator: Adobe Illustrator 26.3.1, SVG Export Plug-In . SVG Version: 6.00 Build 0)  -->
<svg version="1.1" id="Слой_1" xmlns="http://www.w3.org/2000/svg" xmlns:xlink="http://www.w3.org/1999/xlink" x="0px" y="0px"
	 viewBox="0 0 48 48" style="enable-background:new 0 0 48 48;" xml:space="preserve">
<path d="M10,42v-1.5h3.8v-6.2c0-2.6,0.8-5,2.5-6.9c1.7-2,3.8-3.1,6.5-3.4c-2.6-0.3-4.8-1.5-6.5-3.4c-1.7-2-2.5-4.3-2.5-6.9V7.5H10V6
	h28v1.5h-3.8v6.1c0,2.7-0.9,5.1-2.7,7.1s-4,3.2-6.7,3.5c0.6,0.1,1.3,0.3,2.1,0.6c0.9,0.3,1.7,0.7,2.6,1.3c-0.1,0.1-0.1,0.2-0.3,0.3
	c-0.1,0.1-0.3,0.2-0.4,0.3c-0.7-0.4-1.4-0.7-2.3-1c-0.8-0.2-1.7-0.4-2.5-0.4c-2.4,0-4.5,0.9-6.2,2.6c-1.7,1.7-2.5,3.8-2.5,6.2v6.2
	h9.6c0.1,0.3,0.2,0.6,0.3,0.8c0.1,0.3,0.3,0.5,0.4,0.7C25.6,42,10,42,10,42z M24,22.5c2.4,0,4.5-0.9,6.2-2.6s2.5-3.8,2.5-6.2V7.5
	H15.3v6.1c0,2.4,0.8,4.5,2.5,6.2C19.5,21.6,21.6,22.5,24,22.5z M37.7,39.7h1.4V33h-1.4V39.7z M33.3,39.7h1.4V33h-1.4V39.7z
	 M36.2,44.1c-2.1,0-4-0.8-5.5-2.3s-2.3-3.3-2.3-5.5c0-2.1,0.8-4,2.3-5.5s3.4-2.3,5.5-2.3s4,0.8,5.5,2.3s2.3,3.3,2.3,5.5
	s-0.8,4-2.3,5.5C40.2,43.4,38.4,44.1,36.2,44.1z"/>
</svg>
