<?xml version="1.0" encoding="utf-8"?>
<!-- Generator: Adobe Illustrator 26.3.1, SVG Export Plug-In . SVG Version: 6.00 Build 0)  -->
<svg version="1.1" id="Слой_1" xmlns="http://www.w3.org/2000/svg" xmlns:xlink="http://www.w3.org/1999/xlink" x="0px" y="0px"
	 viewBox="0 0 48 48" style="enable-background:new 0 0 48 48;" xml:space="preserve">
<path d="M17.3,22.8c1.6,0,3-0.6,4.1-1.7s1.7-2.5,1.7-4.1v-5.5H11.5V17c0,1.6,0.6,2.9,1.7,4.1C14.3,22.2,15.7,22.8,17.3,22.8z
	 M11.5,36.5h11.6V31c0-1.6-0.6-2.9-1.7-4.1c-1.1-1.1-2.5-1.7-4.1-1.7s-3,0.6-4.1,1.7s-1.7,2.5-1.7,4.1
	C11.5,30.9,11.5,36.5,11.5,36.5z M7,38v-1.5h3V31c0-1.7,0.5-3.2,1.6-4.5c1-1.3,2.4-2.2,4-2.5c-1.7-0.3-3-1.2-4-2.5s-1.5-2.9-1.5-4.6
	v-5.4H7V10h20.6v1.5h-2.9v5.4c0,1.7-0.5,3.3-1.6,4.6c-1,1.3-2.4,2.1-4.1,2.5c1.7,0.3,3,1.2,4.1,2.5c1,1.3,1.6,2.8,1.6,4.5v5.5h2.9
	V38H7z M38.3,38V13L35,16.2l-1.1-1.1L39,10l5.1,5.1L43,16.2L39.8,13v25H38.3z"/>
</svg>
