<?xml version="1.0" encoding="utf-8"?>
<!-- Generator: Adobe Illustrator 26.3.1, SVG Export Plug-In . SVG Version: 6.00 Build 0)  -->
<svg version="1.1" id="Слой_1" xmlns="http://www.w3.org/2000/svg" xmlns:xlink="http://www.w3.org/1999/xlink" x="0px" y="0px"
	 viewBox="0 0 48 48" style="enable-background:new 0 0 48 48;" xml:space="preserve">
<path d="M11.4,38V19.3l-6.5,4.8L4,22.9L24,8l9.1,6.8V10h3.3v7.2l7.6,5.7l-1,1.2l-6.5-4.8V38h-9.9V27.5h-5.4V38H11.4z M12.9,36.5h6.8
	V26h8.5v10.5H35V18.2L24,9.9l-11.1,8.3V36.5z M20.3,19.8h7.5c0-1-0.4-1.8-1.1-2.4c-0.8-0.6-1.6-0.9-2.6-0.9s-1.8,0.3-2.6,0.9
	C20.7,18,20.3,18.8,20.3,19.8z M19.8,36.5V26h8.5v10.5V26h-8.5V36.5z"/>
</svg>
