<?xml version="1.0" encoding="utf-8"?>
<!-- Generator: Adobe Illustrator 26.3.1, SVG Export Plug-In . SVG Version: 6.00 Build 0)  -->
<svg version="1.1" id="Слой_1" xmlns="http://www.w3.org/2000/svg" xmlns:xlink="http://www.w3.org/1999/xlink" x="0px" y="0px"
	 viewBox="0 0 48 48" style="enable-background:new 0 0 48 48;" xml:space="preserve">
<path d="M5.9,37.2v-2.9c0-1,0.3-1.9,0.8-2.5c0.5-0.6,1.2-1.1,2-1.5c2-0.9,3.8-1.6,5.4-2s3.5-0.6,5.8-0.6c1,0,1.9,0,2.7,0.1
	c0.8,0.1,1.6,0.2,2.3,0.4l-1.3,1.3c-0.5-0.1-1.1-0.1-1.7-0.2s-1.3-0.1-2-0.1c-2.2,0-4,0.2-5.6,0.6c-1.5,0.4-3.2,1-5,1.9
	C8.6,32,8,32.4,7.8,32.9c-0.3,0.4-0.4,0.9-0.4,1.5v1.4h13.3l1.5,1.5L5.9,37.2L5.9,37.2z M30.7,39.4l-5.6-5.6l1.1-1.1l4.5,4.5
	L41,26.9l1.1,1.1L30.7,39.4z M19.9,22.7c-1.6,0-3-0.5-4.1-1.6s-1.6-2.5-1.6-4.1c0-1.7,0.5-3,1.6-4.1s2.5-1.6,4.1-1.6
	c1.7,0,3,0.5,4.1,1.6s1.6,2.5,1.6,4.1c0,1.7-0.5,3-1.6,4.1S21.5,22.7,19.9,22.7z M19.9,21.2c1.2,0,2.2-0.4,3-1.2
	c0.8-0.8,1.2-1.8,1.2-3s-0.4-2.2-1.2-3c-0.8-0.8-1.8-1.2-3-1.2s-2.2,0.4-3,1.2s-1.2,1.8-1.2,3s0.4,2.2,1.2,3
	C17.7,20.8,18.7,21.2,19.9,21.2z"/>
</svg>
