<?xml version="1.0" encoding="utf-8"?>
<!-- Generator: Adobe Illustrator 26.3.1, SVG Export Plug-In . SVG Version: 6.00 Build 0)  -->
<svg version="1.1" id="Слой_1" xmlns="http://www.w3.org/2000/svg" xmlns:xlink="http://www.w3.org/1999/xlink" x="0px" y="0px"
	 viewBox="0 0 48 48" style="enable-background:new 0 0 48 48;" xml:space="preserve">
<path d="M10.3,42.5c-0.8,0-1.4-0.3-2-0.8c-0.5-0.5-0.8-1.2-0.8-2v-6.8l7-7.8l1.1,1.1L9,33.6h30l-6.4-7.3l1.1-1.1l6.8,7.7v6.8
	c0,0.8-0.3,1.4-0.8,2c-0.5,0.5-1.2,0.8-2,0.8C37.7,42.5,10.3,42.5,10.3,42.5z M10.3,40.9h27.4c0.3,0,0.6-0.1,0.9-0.4
	c0.2-0.2,0.4-0.5,0.4-0.9v-4.5H9.1v4.5c0,0.3,0.1,0.6,0.4,0.9C9.7,40.8,10,40.9,10.3,40.9z M22.2,27.8l-6.4-6.4
	c-0.6-0.6-0.9-1.2-0.8-2c0-0.7,0.3-1.4,0.9-2L25,8.3c0.5-0.5,1.2-0.8,1.9-0.8c0.7,0,1.4,0.3,1.9,0.8l6.5,6.4
	c0.5,0.6,0.8,1.2,0.8,1.9c0,0.7-0.3,1.4-0.9,2L26,27.8c-0.5,0.5-1.2,0.8-1.9,0.8C23.4,28.7,22.8,28.4,22.2,27.8z M34,17.5
	c0.2-0.2,0.3-0.5,0.3-0.9s-0.1-0.7-0.3-0.9l-6.1-6.2c-0.2-0.2-0.5-0.3-0.9-0.3s-0.7,0.1-0.9,0.3l-9,9c-0.2,0.2-0.3,0.5-0.3,0.9
	s0.1,0.7,0.3,0.9l6.1,6.2c0.2,0.2,0.5,0.3,0.9,0.3s0.7-0.1,0.9-0.3L34,17.5z M9.1,40.9v-5.8C9.1,35.2,9.1,40.9,9.1,40.9z"/>
</svg>
