<?xml version="1.0" encoding="utf-8"?>
<!-- Generator: Adobe Illustrator 26.3.1, SVG Export Plug-In . SVG Version: 6.00 Build 0)  -->
<svg version="1.1" id="Слой_1" xmlns="http://www.w3.org/2000/svg" xmlns:xlink="http://www.w3.org/1999/xlink" x="0px" y="0px"
	 viewBox="0 0 48 48" style="enable-background:new 0 0 48 48;" xml:space="preserve">
<path d="M3.5,29.4V18.6H5v4.1h6v-4.1h1.5v10.8H11v-5.2H4.9v5.2C4.9,29.4,3.5,29.4,3.5,29.4z M18.3,29.4v-9.3h-3.8v-1.5h9.2v1.5h-3.8
	v9.3C19.8,29.4,18.3,29.4,18.3,29.4z M28.8,29.4v-9.3H25v-1.5h9.2v1.5h-3.8v9.3C30.2,29.4,28.8,29.4,28.8,29.4z M36.1,29.4V18.6h5.7
	c0.8,0,1.4,0.3,2,0.8c0.5,0.5,0.8,1.2,0.8,2v1.2c0,0.8-0.3,1.4-0.8,1.9s-1.2,0.8-2,0.8h-4.2v4.1C37.5,29.4,36.1,29.4,36.1,29.4z
	 M37.5,23.8h4.3c0.3,0,0.6-0.1,0.8-0.4c0.3-0.3,0.4-0.5,0.4-0.8v-1.2c0-0.3-0.1-0.6-0.4-0.8c-0.3-0.3-0.5-0.4-0.8-0.4h-4.3
	C37.5,20.1,37.5,23.8,37.5,23.8z"/>
</svg>
