<?xml version="1.0" encoding="utf-8"?>
<!-- Generator: Adobe Illustrator 26.3.1, SVG Export Plug-In . SVG Version: 6.00 Build 0)  -->
<svg version="1.1" id="Слой_1" xmlns="http://www.w3.org/2000/svg" xmlns:xlink="http://www.w3.org/1999/xlink" x="0px" y="0px"
	 viewBox="0 0 48 48" style="enable-background:new 0 0 48 48;" xml:space="preserve">
<path d="M11.9,45c-1.3,0-2.5-0.5-3.4-1.4c-1-1-1.4-2.1-1.4-3.4s0.5-2.5,1.4-3.4s2.1-1.4,3.5-1.4c0.4,0,0.8,0,1.2,0.1
	s0.8,0.2,1.1,0.4l5.8-7.1c-0.6-0.7-1-1.4-1.2-2.2c-0.2-0.8-0.3-1.6-0.2-2.5l-8.4-2.8c-0.4,0.8-1,1.4-1.8,1.9
	c-0.7,0.5-1.6,0.7-2.6,0.7c-1.3,0-2.5-0.5-3.4-1.4c-1-1-1.5-2.2-1.5-3.5s0.5-2.5,1.4-3.4c1-0.9,2.1-1.4,3.4-1.4s2.5,0.5,3.4,1.4
	c0.9,0.9,1.4,2.1,1.4,3.4c0,0.1,0,0.2,0,0.3c0,0.1,0,0.2,0,0.3l8.4,2.9c0.4-0.8,1-1.4,1.6-1.9c0.7-0.5,1.5-0.8,2.4-1v-8.9
	c-1.3-0.2-2.3-0.8-2.9-1.8c-0.7-0.9-1-1.9-1-3c0-1.3,0.5-2.5,1.4-3.4c1-1,2.2-1.5,3.5-1.5s2.5,0.5,3.4,1.4c0.9,1,1.4,2.1,1.4,3.4
	c0,1.1-0.3,2.1-1,3s-1.7,1.5-2.9,1.8v8.9c0.9,0.2,1.7,0.5,2.4,1c0.7,0.5,1.2,1.1,1.7,1.9l8.4-2.9c0-0.1,0-0.2,0-0.3V19
	c0-1.3,0.5-2.5,1.4-3.4s2.1-1.4,3.4-1.4c1.3,0,2.5,0.5,3.4,1.4c1,0.9,1.4,2.1,1.4,3.4s-0.5,2.5-1.4,3.4c-1,0.9-2.1,1.4-3.4,1.4
	c-1,0-1.8-0.2-2.6-0.7s-1.3-1.1-1.8-1.8l-8.4,2.8c0.2,0.9,0.1,1.7-0.1,2.5c-0.3,0.8-0.7,1.5-1.3,2.1l5.8,7.1
	c0.3-0.2,0.7-0.3,1.1-0.4c0.4-0.1,0.8-0.1,1.2-0.1c1.4,0,2.5,0.5,3.5,1.4c0.9,0.9,1.4,2.1,1.4,3.4s-0.5,2.5-1.4,3.4
	c-1,1-2.1,1.4-3.4,1.4c-1.3,0-2.5-0.5-3.4-1.4c-0.9-0.9-1.4-2.1-1.4-3.4c0-0.6,0.1-1.2,0.3-1.7c0.2-0.5,0.5-1,0.9-1.5l-5.8-7.2
	c-0.8,0.5-1.7,0.7-2.7,0.7s-1.9-0.2-2.7-0.7L15.5,37c0.4,0.5,0.7,1,0.9,1.4c0.2,0.5,0.3,1,0.3,1.7c0,1.4-0.5,2.5-1.4,3.4
	C14.4,44.5,13.2,45,11.9,45z M5.9,22.3c0.9,0,1.7-0.3,2.3-1c0.6-0.7,1-1.4,1-2.3s-0.3-1.7-1-2.3c-0.7-0.6-1.4-1-2.3-1
	s-1.7,0.3-2.3,1s-1,1.4-1,2.3s0.3,1.7,1,2.3C4.2,22,4.9,22.3,5.9,22.3z M11.9,43.5c0.9,0,1.7-0.3,2.3-1s1-1.4,1-2.3
	c0-0.9-0.3-1.7-1-2.3s-1.4-1-2.3-1c-0.9,0-1.7,0.3-2.3,1s-1,1.4-1,2.3c0,0.9,0.3,1.7,1,2.3C10.2,43.1,10.9,43.5,11.9,43.5z M24,9.2
	c0.9,0,1.7-0.3,2.3-1c0.6-0.7,1-1.4,1-2.3s-0.3-1.7-1-2.3s-1.4-1-2.3-1s-1.7,0.3-2.3,1c-0.6,0.7-1,1.4-1,2.3s0.3,1.7,1,2.3
	C22.3,8.8,23.1,9.2,24,9.2z M24,29c1.1,0,2.1-0.4,2.8-1.2C27.6,27,28,26.1,28,25s-0.4-2.1-1.2-2.8C26,21.4,25.1,21,24,21
	s-2,0.4-2.8,1.2C20.4,23,20,23.9,20,25s0.4,2,1.2,2.8C22,28.6,22.9,29,24,29z M36.2,43.5c0.9,0,1.7-0.3,2.3-1s1-1.4,1-2.3
	c0-0.9-0.3-1.7-1-2.3s-1.4-1-2.3-1c-0.9,0-1.7,0.3-2.3,1s-1,1.4-1,2.3c0,0.9,0.3,1.7,1,2.3C34.5,43.1,35.2,43.5,36.2,43.5z
	 M42.2,22.3c0.9,0,1.7-0.3,2.3-1s1-1.4,1-2.3s-0.3-1.7-1-2.3c-0.7-0.6-1.4-1-2.3-1c-0.9,0-1.7,0.3-2.3,1s-1,1.4-1,2.3s0.3,1.7,1,2.3
	C40.5,22,41.2,22.3,42.2,22.3z"/>
</svg>
