<?xml version="1.0" encoding="utf-8"?>
<!-- Generator: Adobe Illustrator 26.3.1, SVG Export Plug-In . SVG Version: 6.00 Build 0)  -->
<svg version="1.1" id="Слой_1" xmlns="http://www.w3.org/2000/svg" xmlns:xlink="http://www.w3.org/1999/xlink" x="0px" y="0px"
	 viewBox="0 0 48 48" style="enable-background:new 0 0 48 48;" xml:space="preserve">
<path d="M18.1,42c-1.1,0-2.1-0.4-2.9-1.2C14.4,40,14,39,14,37.9c0-0.6,0.1-1.1,0.3-1.5c0.2-0.5,0.5-0.9,0.9-1.3l4.8-4.8v-8.5
	c0-0.8-0.3-1.5-0.8-2.2c-0.5-0.6-1.1-1.2-1.8-1.7c-1.3-1-2.2-2-2.7-2.9c-0.5-1-0.8-2-0.8-3.1c0-1.8,0.6-3.2,1.8-4.3
	c1.4-1,2.8-1.6,4.5-1.6c0.9,0,1.7,0.1,2.4,0.3c0.7,0.2,1.3,0.5,1.9,0.9c0.2,0.1,0.5,0.3,0.7,0.4s0.5,0.2,0.7,0.2
	c0.6,0,1.2-0.3,1.9-0.9c0.5-0.3,0.9-0.5,1.3-0.7C29.5,6.1,30,6,30.4,6c1,0,1.9,0.4,2.6,1.1s1,1.6,1,2.6c0,0.6-0.1,1.1-0.3,1.6
	s-0.6,1-1,1.5l-4.6,4.8v12.7l4.8,4.8c0.4,0.4,0.7,0.8,0.9,1.3s0.3,1,0.3,1.5c0,1.1-0.4,2-1.2,2.8C32.1,41.6,31.1,42,30,42
	c-0.5,0-1-0.1-1.5-0.3s-0.9-0.5-1.3-0.9s-0.9-0.7-1.4-0.9s-1.1-0.3-1.7-0.3s-1.1,0.1-1.7,0.3s-1,0.5-1.5,0.9
	c-0.4,0.4-0.8,0.7-1.3,0.9C19.2,41.9,18.6,42,18.1,42z M18,40.5c0.3,0,0.6-0.1,1-0.2s0.6-0.3,0.8-0.5c0.6-0.6,1.2-1,1.9-1.3
	c0.7-0.3,1.5-0.5,2.3-0.5s1.5,0.2,2.3,0.5c0.7,0.3,1.4,0.7,1.9,1.3c0.2,0.2,0.5,0.4,0.8,0.5s0.6,0.2,1,0.2c0.7,0,1.3-0.2,1.8-0.7
	s0.7-1.1,0.7-1.8c0-0.3-0.1-0.6-0.2-1c-0.1-0.3-0.3-0.6-0.5-0.8l-4.6-4.6c-0.2-0.2-0.4-0.4-0.5-0.6c-0.1-0.3-0.1-0.5-0.1-0.8V17.8
	c0-0.3,0.1-0.6,0.2-0.9s0.3-0.5,0.5-0.7l4.5-4.5c0.2-0.3,0.4-0.6,0.6-0.9c0.1-0.3,0.2-0.7,0.2-1.1c0-0.6-0.2-1.2-0.7-1.6
	c-0.4-0.4-1-0.6-1.6-0.6c-0.3,0-0.5,0-0.7,0.1s-0.5,0.2-0.7,0.3l-1.4,0.9c-0.2,0.1-0.4,0.2-0.6,0.3s-0.5,0.1-0.7,0.1
	c-0.3,0-0.5,0-0.8-0.1s-0.5-0.2-0.8-0.4c-0.6-0.4-1.2-0.7-2-0.9c-0.8-0.2-1.5-0.3-2.2-0.3C19,7.5,17.9,8,17,8.8s-1.4,1.9-1.4,3.2
	c0,1,0.3,1.9,0.9,2.7c0.6,0.7,1.3,1.5,2.2,2.3l1.7,1.4c0.2-0.9,0.5-1.7,0.8-2.4c0.4-0.7,0.8-1.2,1.2-1.7c0.1-0.1,0.2-0.1,0.2-0.1
	c0.1,0,0.1,0,0.2,0c0.2,0,0.4,0.1,0.6,0.2c0.1,0.1,0.2,0.3,0.2,0.5c0,0.1,0,0.2-0.1,0.3c0,0.1-0.1,0.2-0.2,0.3l-0.8,1.3
	c-0.6,0.9-0.8,2.2-0.8,4.1v9.2c0,0.3,0,0.6-0.1,0.8c-0.1,0.3-0.2,0.5-0.4,0.6l-4.7,4.6c-0.2,0.2-0.4,0.5-0.6,0.8s-0.2,0.6-0.2,1
	c0,0.7,0.2,1.3,0.7,1.8C16.7,40.2,17.3,40.5,18,40.5z"/>
</svg>
