<?xml version="1.0" encoding="utf-8"?>
<!-- Generator: Adobe Illustrator 26.3.1, SVG Export Plug-In . SVG Version: 6.00 Build 0)  -->
<svg version="1.1" id="Слой_1" xmlns="http://www.w3.org/2000/svg" xmlns:xlink="http://www.w3.org/1999/xlink" x="0px" y="0px"
	 viewBox="0 0 48 48" style="enable-background:new 0 0 48 48;" xml:space="preserve">
<path d="M24,41c-3.9,0-7.2-1.3-9.9-4S10,31.1,10,27.3c0-1.8,0.4-3.6,1.1-5.3c0.7-1.7,1.7-3.2,3-4.5L24,7.8l9.9,9.7
	c1.2,1.3,2.2,2.8,3,4.5c0.7,1.7,1.1,3.4,1.1,5.3c0,3.8-1.4,7.1-4.1,9.7C31.2,39.7,27.9,41,24,41z M24,39.5c3.5,0,6.4-1.2,8.8-3.5
	c2.4-2.4,3.6-5.3,3.6-8.7c0-1.6-0.3-3.2-0.9-4.6c-0.6-1.5-1.5-2.8-2.6-3.9L24,10l-8.9,8.7c-1.1,1.1-2,2.4-2.6,3.9s-0.9,3-0.9,4.6
	c0,3.4,1.2,6.3,3.6,8.7C17.6,38.3,20.5,39.5,24,39.5z"/>
</svg>
