<?xml version="1.0" encoding="utf-8"?>
<!-- Generator: Adobe Illustrator 26.3.1, SVG Export Plug-In . SVG Version: 6.00 Build 0)  -->
<svg version="1.1" id="Слой_1" xmlns="http://www.w3.org/2000/svg" xmlns:xlink="http://www.w3.org/1999/xlink" x="0px" y="0px"
	 viewBox="0 0 48 48" style="enable-background:new 0 0 48 48;" xml:space="preserve">
<path d="M24,32c1.9,0,3.6-0.7,4.9-2c1.4-1.3,2-3,2-4.9c0-0.9-0.2-1.8-0.5-2.6c-0.3-0.8-0.9-1.6-1.5-2.2l-5-4.9l-5,4.9
	c-0.7,0.6-1.2,1.4-1.5,2.2c-0.3,0.8-0.5,1.7-0.5,2.6c0,1.9,0.7,3.5,2.1,4.9C20.4,31.3,22.1,32,24,32z M18.5,25c0-0.7,0.1-1.4,0.4-2
	s0.7-1.2,1.2-1.7l3.8-3.8l3.9,3.8c0.5,0.5,0.9,1,1.2,1.7c0.3,0.6,0.4,1.3,0.4,2C29.5,25,18.5,25,18.5,25z M10,38V17L24,6.5L38,17v21
	H10z M11.5,36.5h24.9V17.7L24,8.5l-12.5,9.2V36.5z"/>
</svg>
