<?xml version="1.0" encoding="utf-8"?>
<!-- Generator: Adobe Illustrator 26.3.1, SVG Export Plug-In . SVG Version: 6.00 Build 0)  -->
<svg version="1.1" id="Слой_1" xmlns="http://www.w3.org/2000/svg" xmlns:xlink="http://www.w3.org/1999/xlink" x="0px" y="0px"
	 viewBox="0 0 48 48" style="enable-background:new 0 0 48 48;" xml:space="preserve">
<path d="M5,43v-1.5h8v-6.7H7V7h16v8c0,1.2,0.3,2.2,0.9,3.2s1.5,1.6,2.7,1.9l5.5,1.5c1.4,0.4,2.6,1.1,3.5,2.3
	c0.9,1.2,1.4,2.6,1.4,4.1v6.8h-6v6.7h5.2c2,0,3.7-0.5,5-1.6s2.1-2.6,2.3-4.6H45c-0.2,2.4-1.1,4.3-2.8,5.7c-1.6,1.4-3.6,2.1-6,2.1H5
	V43z M8.5,33.2h26.9V28c0-1.2-0.4-2.2-1.1-3.1s-1.6-1.5-2.8-1.8L26,21.6c-1.1-0.3-2-0.8-2.6-1.5c-0.7-0.7-1.2-1.5-1.5-2.4h-5.1
	c-0.2,0-0.3-0.1-0.5-0.2c-0.1-0.1-0.2-0.3-0.2-0.4s0.1-0.3,0.2-0.5c0.1-0.1,0.3-0.2,0.5-0.2h4.6c-0.1-0.4-0.1-0.8-0.1-1.2v-1.5h-4.5
	c-0.2,0-0.3-0.1-0.5-0.2c-0.1-0.1-0.2-0.3-0.2-0.4s0.1-0.3,0.2-0.5c0.1-0.1,0.3-0.2,0.5-0.2h4.5V8.5H8.5V33.2z M14.5,41.5h14.9v-6.7
	H14.5V41.5z"/>
</svg>
