<?xml version="1.0" encoding="utf-8"?>
<!-- Generator: Adobe Illustrator 26.3.1, SVG Export Plug-In . SVG Version: 6.00 Build 0)  -->
<svg version="1.1" id="Слой_1" xmlns="http://www.w3.org/2000/svg" xmlns:xlink="http://www.w3.org/1999/xlink" x="0px" y="0px"
	 viewBox="0 0 48 48" style="enable-background:new 0 0 48 48;" xml:space="preserve">
<path d="M24,41.7l-8.1-16.2c-1.8,0.8-3.6,0.6-5.3-0.5C8.9,23.8,8,22.2,8,20.1c0-1.2,0.4-2.3,1.2-3.5s2.1-2,3.9-2.4
	c0.4-3.2,1.6-5.7,3.8-7.5C19,4.9,21.4,4,24,4s5,0.9,7.1,2.7c2.2,1.8,3.4,4.3,3.8,7.5c1.8,0.4,3.1,1.3,3.9,2.4
	c0.8,1.2,1.2,2.3,1.2,3.5c0,2.1-0.8,3.8-2.5,4.8c-1.7,1.1-3.4,1.3-5.2,0.5L24,41.7z M13.7,24.3c0.5,0,1.1-0.1,1.6-0.2
	c0.5-0.2,0.9-0.4,1.3-0.8l1.2-1.2L19,23c0.8,0.5,1.6,0.9,2.5,1.1s1.8,0.3,2.6,0.3c0.8,0,1.7-0.1,2.5-0.3c0.8-0.2,1.7-0.5,2.4-1.1
	l1.2-0.9l1.2,1.2c0.4,0.4,0.8,0.6,1.3,0.8c0.5,0.2,1,0.2,1.6,0.2c1.1,0,2.1-0.4,2.9-1.3c0.8-0.8,1.2-1.8,1.2-3c0-1-0.3-1.9-1-2.6
	c-0.6-0.8-1.5-1.2-2.5-1.4l-1.6-0.2L33.2,14C33,11.6,32,9.6,30.3,8S26.5,5.6,24,5.6S19.4,6.3,17.7,8c-1.7,1.6-2.7,3.6-2.9,6.1
	l-0.1,1.8L13,16.2c-1,0.2-1.8,0.7-2.5,1.4c-0.7,0.7-1,1.5-1,2.6s0.4,2.1,1.2,3C11.6,23.9,12.6,24.3,13.7,24.3z M24,38.2l6.9-13.4
	l-0.7-0.6c-1.1,0.6-2.2,1-3.3,1.3c-1.1,0.3-2,0.4-2.9,0.4s-1.8-0.1-2.9-0.4s-2.2-0.7-3.2-1.4l-0.6,0.6L24,38.2z"/>
</svg>
