<?xml version="1.0" encoding="utf-8"?>
<!-- Generator: Adobe Illustrator 26.3.1, SVG Export Plug-In . SVG Version: 6.00 Build 0)  -->
<svg version="1.1" id="Слой_1" xmlns="http://www.w3.org/2000/svg" xmlns:xlink="http://www.w3.org/1999/xlink" x="0px" y="0px"
	 viewBox="0 0 48 48" style="enable-background:new 0 0 48 48;" xml:space="preserve">
<path d="M24,24.8c-1.6,0-3-0.6-4.1-1.7s-1.7-2.5-1.7-4.1s0.6-3,1.7-4.1s2.5-1.7,4.1-1.7s3,0.6,4.1,1.7s1.7,2.5,1.7,4.1
	s-0.6,3-1.7,4.1C26.9,24.2,25.6,24.8,24,24.8z M24,23.2c1.2,0,2.2-0.4,3-1.2c0.8-0.8,1.2-1.8,1.2-3s-0.4-2.2-1.2-3
	c-0.8-0.8-1.8-1.2-3-1.2s-2.2,0.4-3,1.2c-0.8,0.8-1.2,1.8-1.2,3s0.4,2.2,1.2,3C21.8,22.8,22.8,23.2,24,23.2z M24,42.7L8,32.9V15.1
	l16-9.8l16,9.8v17.8L24,42.7z M24,40.9l8.8-5.3c-1.3-0.9-2.7-1.6-4.2-2.1s-3-0.7-4.6-0.7s-3.1,0.2-4.6,0.7s-2.9,1.2-4.2,2.1
	C15.2,35.6,24,40.9,24,40.9z M13.8,34.6c1.5-1,3.2-1.8,4.9-2.4c1.7-0.6,3.5-0.9,5.4-0.9s3.6,0.3,5.4,0.9c1.7,0.6,3.4,1.4,4.9,2.4
	l4.2-2.5V16L24,7.2L9.5,16v16.1L13.8,34.6z"/>
</svg>
