<?xml version="1.0" encoding="utf-8"?>
<!-- Generator: Adobe Illustrator 26.3.1, SVG Export Plug-In . SVG Version: 6.00 Build 0)  -->
<svg version="1.1" id="Слой_1" xmlns="http://www.w3.org/2000/svg" xmlns:xlink="http://www.w3.org/1999/xlink" x="0px" y="0px"
	 viewBox="0 0 48 48" style="enable-background:new 0 0 48 48;" xml:space="preserve">
<path d="M27.1,44h-4.6c-0.4,0-0.7-0.1-1-0.4c-0.3-0.3-0.4-0.6-0.4-1V32c0-0.4,0.1-0.7,0.4-1s0.6-0.4,1-0.4H24v-8.1
	c0-0.3-0.1-0.6-0.4-0.8c-0.3-0.2-0.6-0.3-1-0.3H8.9c-0.8,0-1.5-0.3-2.1-0.8C6.3,19.9,6,19.2,6,18.5v-6.8c0-0.7,0.3-1.4,0.8-1.9
	C7.4,9.3,8.1,9,8.9,9h2.5V7.4c0-0.4,0.1-0.7,0.4-1c0.3-0.3,0.6-0.4,1-0.4h23.6c0.4,0,0.7,0.1,1,0.4C37.9,6.7,38,7,38,7.4v4.8
	c0,0.4-0.1,0.7-0.4,1c-0.3,0.3-0.6,0.4-1,0.4H12.9c-0.4,0-0.7-0.1-1-0.4c-0.3-0.3-0.4-0.6-0.4-1v-1.7H8.9c-0.4,0-0.7,0.1-1,0.3
	s-0.4,0.5-0.4,0.8v6.8c0,0.3,0.1,0.6,0.4,0.9c0.3,0.2,0.6,0.4,1,0.4h13.6c0.8,0,1.5,0.3,2.1,0.8s0.9,1.2,0.9,1.9v8.1h1.6
	c0.4,0,0.7,0.1,1,0.4s0.4,0.6,0.4,1v10.7c0,0.4-0.1,0.7-0.4,1C27.8,43.9,27.5,44,27.1,44z M22.5,42.5H27V32.1h-4.5V42.5z M13,12
	h23.5V7.5H13V12z M22.5,42.5H27H22.5z M13,12V7.5V12z"/>
</svg>
