<?xml version="1.0" encoding="utf-8"?>
<!-- Generator: Adobe Illustrator 26.3.1, SVG Export Plug-In . SVG Version: 6.00 Build 0)  -->
<svg version="1.1" id="Слой_1" xmlns="http://www.w3.org/2000/svg" xmlns:xlink="http://www.w3.org/1999/xlink" x="0px" y="0px"
	 viewBox="0 0 48 48" style="enable-background:new 0 0 48 48;" xml:space="preserve">
<path d="M26.1,42c-1.8,0-4.1-0.2-6.9-0.7s-5-1.3-6.6-2.6c-0.9-0.7-1.9-1.8-2.9-3.4c-1-1.5-1.9-3.2-2.8-4.9c-0.8-1.8-1.5-3.5-2.1-5.3
	C4.3,23.3,4,21.8,4,20.6c0-2.4,0.9-4.4,2.7-5.9s3.6-2.9,5.5-4.2c1.8-1.2,3.9-2.2,6.1-3.2c2.3-0.8,4.6-1.3,7-1.3
	c2.3,0,4.4,0.5,6.4,1.4s3.9,2.1,5.8,3.4c0.4,0.3,1,0.8,1.8,1.4c0.7,0.6,1.4,1.4,2.1,2.3c0.7,0.9,1.3,2,1.8,3.1
	c0.5,1.2,0.7,2.5,0.8,3.9c0,2.2-0.5,4.5-1.5,6.9s-2.3,4.6-4,6.6s-3.6,3.7-5.7,5C30.6,41.3,28.4,42,26.1,42z M26,40.5
	c2.1,0,4.1-0.6,6.1-1.8s3.7-2.8,5.3-4.6c1.5-1.9,2.8-3.9,3.7-6.1s1.4-4.3,1.4-6.4s-0.6-3.9-1.8-5.5s-2.5-2.9-4-3.8
	c-1.7-1.2-3.6-2.2-5.4-3.2c-1.9-0.9-3.9-1.4-6-1.4c-2.2,0-4.4,0.4-6.6,1.3s-4.2,1.9-5.9,3.1c-1.4,0.9-3,2.2-4.7,3.7
	s-2.6,3.1-2.6,4.8c0,1.1,0.3,2.5,0.8,4.1c0.5,1.7,1.2,3.4,2,5.1c0.8,1.7,1.6,3.3,2.6,4.7c0.9,1.4,1.8,2.5,2.5,3.1
	c1.2,0.9,3.1,1.6,5.7,2.2S24,40.5,26,40.5z M20.7,34.8c1.4,0,2.6-0.5,3.6-1.5c0.9-1,1.4-2.2,1.4-3.5c0-0.6-0.1-1.2-0.3-1.7
	c-0.2-0.5-0.6-1.1-1.1-1.6c-0.8-0.8-1.5-1.6-2-2.5s-0.9-1.9-1.2-3c-0.2-1.2-0.8-2.1-1.7-2.8c-0.9-0.7-1.9-1-3-1
	c-1.3,0-2.4,0.5-3.5,1.5c-1,1-1.5,2.2-1.5,3.5c0,1.2,0.2,2.5,0.7,3.9s1.1,2.8,2,4.1c0.8,1.3,1.8,2.4,3,3.3S19.3,34.8,20.7,34.8z
	 M20.7,33.2c-1,0-2-0.4-2.9-1.2c-1-0.8-1.8-1.8-2.6-3c-0.7-1.2-1.3-2.4-1.8-3.6c-0.5-1.3-0.7-2.3-0.7-3.2c0-0.9,0.4-1.7,1.1-2.4
	c0.7-0.7,1.5-1.1,2.4-1.1c0.6,0,1.3,0.2,2,0.6s1.1,1.1,1.3,2c0.3,1.3,0.7,2.4,1.3,3.4c0.6,1,1.3,2,2.3,2.9c0.3,0.3,0.6,0.7,0.8,1
	c0.2,0.4,0.3,0.8,0.3,1.2c0,0.8-0.3,1.6-0.9,2.3C22.6,32.9,21.7,33.2,20.7,33.2z M32.5,24.8c0.2,0,0.4-0.1,0.6-0.2
	c0.1-0.1,0.2-0.3,0.2-0.5v-2.5l2.3,1.1c0.2,0.1,0.4,0.2,0.6,0.1c0.2,0,0.4-0.2,0.5-0.4c0.1-0.2,0.2-0.4,0.1-0.6
	c0-0.2-0.1-0.4-0.3-0.4L33.7,20l2.7-1.4c0.2-0.1,0.3-0.2,0.3-0.5c0-0.2,0-0.4-0.1-0.6s-0.2-0.3-0.5-0.3c-0.2,0-0.4,0-0.6,0.1
	l-2.3,1.1V16c0-0.2-0.1-0.4-0.2-0.6c-0.1-0.1-0.3-0.2-0.6-0.2c-0.2,0-0.4,0.1-0.5,0.2c-0.1,0.1-0.2,0.3-0.2,0.6v2.6l-2.3-1.2
	c-0.2-0.1-0.4-0.2-0.6-0.1c-0.2,0-0.4,0.2-0.5,0.4c-0.1,0.2-0.1,0.3-0.1,0.6c0,0.2,0.1,0.4,0.3,0.5l2.5,1.1l-2.3,1.6
	c-0.2,0.1-0.3,0.3-0.4,0.5s-0.1,0.4,0.1,0.6c0.1,0.2,0.3,0.3,0.4,0.4c0.2,0,0.4,0,0.6-0.1l2.3-1.2V24c0,0.2,0.1,0.4,0.2,0.5
	C32.1,24.7,32.3,24.8,32.5,24.8z"/>
</svg>
