<?xml version="1.0" encoding="utf-8"?>
<!-- Generator: Adobe Illustrator 26.3.1, SVG Export Plug-In . SVG Version: 6.00 Build 0)  -->
<svg version="1.1" id="Слой_1" xmlns="http://www.w3.org/2000/svg" xmlns:xlink="http://www.w3.org/1999/xlink" x="0px" y="0px"
	 viewBox="0 0 48 48" style="enable-background:new 0 0 48 48;" xml:space="preserve">
<path d="M32.9,40c-0.4,0-0.8-0.2-1.1-0.5c-0.3-0.3-0.5-0.7-0.5-1.1V23.6c0-0.4,0.2-0.8,0.5-1.1c0.3-0.3,0.7-0.5,1.1-0.5h7.5
	c0.4,0,0.8,0.2,1.1,0.5s0.5,0.7,0.5,1.1v14.9c0,0.4-0.2,0.8-0.5,1.1s-0.7,0.5-1.1,0.5C40.5,40,32.9,40,32.9,40z M32.9,36.9h7.5V25.1
	h-7.5V36.9z M16.3,40v-1.5h4.9V32H8.8c-0.7,0-1.4-0.3-1.9-0.8S6,30,6,29.2V10.8c0-0.8,0.3-1.4,0.8-2C7.4,8.3,8,8,8.8,8h26.5
	c0.8,0,1.4,0.3,2,0.8c0.4,0.6,0.7,1.2,0.7,2v7.7h-1.5v-7.7c0-0.4-0.1-0.7-0.3-0.9s-0.5-0.3-0.9-0.3H8.8c-0.4,0-0.7,0.1-0.9,0.3
	c-0.2,0.2-0.3,0.5-0.3,0.9v18.5c0,0.4,0.1,0.7,0.3,0.9c0.2,0.2,0.5,0.3,0.9,0.3h19.1V32h-5.1v6.5h4.9V40H16.3z M18.4,26l3.6-2.9
	l3.6,2.9l-1.3-4.6l3.6-3h-4.5L22,14.3l-1.4,4.2h-4.5l3.6,3L18.4,26z"/>
</svg>
