<?xml version="1.0" encoding="utf-8"?>
<!-- Generator: Adobe Illustrator 26.3.1, SVG Export Plug-In . SVG Version: 6.00 Build 0)  -->
<svg version="1.1" id="Слой_1" xmlns="http://www.w3.org/2000/svg" xmlns:xlink="http://www.w3.org/1999/xlink" x="0px" y="0px"
	 viewBox="0 0 48 48" style="enable-background:new 0 0 48 48;" xml:space="preserve">
<path d="M10.8,40c-0.8,0-1.4-0.3-2-0.8C8.3,38.7,8,38,8,37.2v-7.1h1.5v7.1c0,0.3,0.1,0.6,0.4,0.8s0.5,0.4,0.8,0.4h7.1V40H10.8z
	 M37.2,40h-7.1v-1.5h7.1c0.3,0,0.6-0.1,0.8-0.4c0.3-0.3,0.4-0.5,0.4-0.8v-7.1H40v7.1c0,0.8-0.3,1.4-0.8,2C38.7,39.7,38,40,37.2,40z
	 M8,10.8c0-0.8,0.3-1.4,0.8-2C9.3,8.3,10,8,10.8,8h7.1v1.5h-7.1c-0.3,0-0.6,0.1-0.8,0.4c-0.3,0.3-0.4,0.5-0.4,0.8v7.1H8V10.8z
	 M40,10.8v7.1h-1.5v-7.1c0-0.3-0.1-0.6-0.4-0.8c-0.3-0.3-0.5-0.4-0.8-0.4h-7.1V8h7.1c0.8,0,1.4,0.3,2,0.8C39.7,9.3,40,10,40,10.8z
	 M24,34.3c0.4,0,0.7-0.1,0.9-0.4c0.3-0.2,0.4-0.6,0.4-0.9c0-0.4-0.1-0.7-0.4-0.9s-0.6-0.4-0.9-0.4c-0.4,0-0.7,0.1-0.9,0.4
	c-0.3,0.2-0.4,0.6-0.4,0.9c0,0.4,0.1,0.7,0.4,0.9C23.3,34.2,23.6,34.3,24,34.3z M23,27.8h1.5c0.1-0.8,0.2-1.5,0.5-2
	c0.3-0.6,0.9-1.2,1.6-2c1-1,1.7-1.9,2.1-2.6s0.6-1.5,0.6-2.3c0-1.5-0.5-2.7-1.5-3.7s-2.3-1.4-3.8-1.4c-1.3,0-2.5,0.3-3.5,0.9
	c-1,0.6-1.8,1.5-2.4,2.7l1.5,0.7c0.5-0.8,1.1-1.5,1.8-2c0.7-0.5,1.6-0.7,2.5-0.7c1.1,0,2.1,0.3,2.8,1c0.7,0.7,1.1,1.5,1.1,2.5
	c0,0.6-0.2,1.2-0.5,1.8c-0.3,0.6-0.9,1.2-1.7,1.9c-1,1-1.7,1.9-2.1,2.6C23.2,25.9,23,26.8,23,27.8z"/>
</svg>
