<?xml version="1.0" encoding="utf-8"?>
<!-- Generator: Adobe Illustrator 26.3.1, SVG Export Plug-In . SVG Version: 6.00 Build 0)  -->
<svg version="1.1" id="Слой_1" xmlns="http://www.w3.org/2000/svg" xmlns:xlink="http://www.w3.org/1999/xlink" x="0px" y="0px"
	 viewBox="0 0 48 48" style="enable-background:new 0 0 48 48;" xml:space="preserve">
<path d="M27.4,27.2L22,21.8L11.7,32c-0.2,0.2-0.3,0.5-0.3,0.8s0.1,0.6,0.3,0.8l3.7,3.8c0.2,0.3,0.5,0.4,0.8,0.4s0.6-0.1,0.8-0.4
	C17.1,37.5,27.4,27.2,27.4,27.2z M23.1,20.7l5.4,5.4l10.2-10.2c0.2-0.2,0.3-0.5,0.3-0.9s-0.1-0.7-0.3-0.9L35,10.4
	c-0.2-0.2-0.5-0.3-0.9-0.3s-0.7,0.1-0.9,0.3L23.1,20.7z M21.4,20.1l7.7,7.7L18.5,38.4c-0.6,0.6-1.3,0.8-2.2,0.8
	c-0.9,0-1.6-0.3-2.2-0.8l-0.6-0.6l-2.7,2.7H6.3l4.9-4.9l-0.4-0.4c-0.6-0.6-0.9-1.4-0.9-2.2c0-0.9,0.3-1.6,1-2.3L21.4,20.1z
	 M21.4,20.1L32.3,9.3c0.5-0.5,1.2-0.8,2-0.8s1.4,0.3,2,0.8L40,13c0.5,0.5,0.8,1.2,0.8,2s-0.3,1.5-0.8,2L29.1,27.8L21.4,20.1z"/>
</svg>
