<?xml version="1.0" encoding="utf-8"?>
<!-- Generator: Adobe Illustrator 26.3.1, SVG Export Plug-In . SVG Version: 6.00 Build 0)  -->
<svg version="1.1" id="Слой_1" xmlns="http://www.w3.org/2000/svg" xmlns:xlink="http://www.w3.org/1999/xlink" x="0px" y="0px"
	 viewBox="0 0 48 48" style="enable-background:new 0 0 48 48;" xml:space="preserve">
<path d="M40.2,42.4L29.5,31.7l-6,6.3H8.9l-2.7-2.8c-0.6-0.5-0.9-1.2-0.9-1.9s0.3-1.4,0.8-1.9l11.2-11.9L5.6,7.8l1.1-1.1l34.5,34.5
	C41.3,41.3,40.2,42.4,40.2,42.4z M9.6,36.5H23l5.5-5.8L18.3,20.5l-11,11.8C7.1,32.5,7,32.8,7,33.2s0.1,0.7,0.3,0.9
	C7.3,34.1,9.6,36.5,9.6,36.5z M33,28l-1.1-1l6.1-6.4c0.2-0.2,0.3-0.5,0.3-0.9S38.2,19,38,18.8l-8.4-8.6c-0.2-0.2-0.5-0.3-0.9-0.3
	s-0.6,0.1-0.8,0.3l-6.1,6.6l-1.1-1.1l6.1-6.5c0.5-0.6,1.2-0.8,1.9-0.8c0.7,0,1.4,0.3,1.9,0.9l8.3,8.5c0.5,0.6,0.8,1.2,0.9,2
	c0,0.7-0.2,1.4-0.8,1.9L33,28z"/>
</svg>
