<?xml version="1.0" encoding="utf-8"?>
<!-- Generator: Adobe Illustrator 26.3.1, SVG Export Plug-In . SVG Version: 6.00 Build 0)  -->
<svg version="1.1" id="Слой_1" xmlns="http://www.w3.org/2000/svg" xmlns:xlink="http://www.w3.org/1999/xlink" x="0px" y="0px"
	 viewBox="0 0 48 48" style="enable-background:new 0 0 48 48;" xml:space="preserve">
<path d="M31.2,7.5H16V6h16.8L31.2,7.5z M24.5,14.3H10v-1.5h16L24.5,14.3z M17.7,21.1H4v-1.5h15.2L17.7,21.1z M30.7,27.2l-5.4-5.4
	L15,32c-0.2,0.2-0.3,0.5-0.3,0.8s0.1,0.6,0.3,0.8l3.8,3.8c0.2,0.3,0.5,0.4,0.8,0.4s0.6-0.1,0.8-0.4L30.7,27.2z M26.4,20.7l5.4,5.4
	L42,15.9c0.2-0.2,0.3-0.5,0.3-0.9s-0.1-0.7-0.3-0.9l-3.7-3.7c-0.2-0.2-0.5-0.3-0.9-0.3s-0.7,0.1-0.9,0.3
	C36.6,10.5,26.4,20.7,26.4,20.7z M24.7,20.1l7.7,7.7L21.8,38.4c-0.6,0.6-1.3,0.8-2.2,0.8c-0.9,0-1.6-0.3-2.2-0.8l-0.6-0.6l-2.7,2.7
	H9.6l4.9-4.9l-0.4-0.4c-0.6-0.6-0.9-1.4-0.9-2.2c0-0.9,0.3-1.6,1-2.3C14.2,30.6,24.7,20.1,24.7,20.1z M24.7,20.1L35.6,9.3
	c0.5-0.5,1.2-0.8,2-0.8s1.4,0.3,2,0.8l3.7,3.7c0.5,0.5,0.8,1.2,0.8,2s-0.3,1.5-0.8,2L32.4,27.8L24.7,20.1z"/>
</svg>
