<?xml version="1.0" encoding="utf-8"?>
<!-- Generator: Adobe Illustrator 26.3.1, SVG Export Plug-In . SVG Version: 6.00 Build 0)  -->
<svg version="1.1" id="Слой_1" xmlns="http://www.w3.org/2000/svg" xmlns:xlink="http://www.w3.org/1999/xlink" x="0px" y="0px"
	 viewBox="0 0 48 48" style="enable-background:new 0 0 48 48;" xml:space="preserve">
<path d="M33.1,36.5h9.7V38H31.6L33.1,36.5z M8.9,38l-2.7-2.8c-0.6-0.5-0.9-1.2-0.9-1.9s0.3-1.4,0.8-1.9L26.8,9.2
	c0.5-0.6,1.2-0.8,1.9-0.8c0.7,0,1.4,0.3,1.9,0.9l8.3,8.5c0.5,0.6,0.8,1.2,0.9,2c0,0.7-0.2,1.4-0.8,1.9L23.5,38H8.9z M22.9,36.5
	l15-15.9c0.2-0.2,0.3-0.5,0.3-0.9s-0.1-0.7-0.3-0.9l-8.4-8.6C29.3,10,29,9.9,28.6,9.9S28,10,27.8,10.2L7.3,32.3
	C7.1,32.5,7,32.8,7,33.2s0.1,0.7,0.3,0.9l2.3,2.4C9.6,36.5,22.9,36.5,22.9,36.5z"/>
</svg>
