<?xml version="1.0" encoding="utf-8"?>
<!-- Generator: Adobe Illustrator 26.3.1, SVG Export Plug-In . SVG Version: 6.00 Build 0)  -->
<svg version="1.1" id="Слой_1" xmlns="http://www.w3.org/2000/svg" xmlns:xlink="http://www.w3.org/1999/xlink" x="0px" y="0px"
	 viewBox="0 0 48 48" style="enable-background:new 0 0 48 48;" xml:space="preserve">
<path d="M9.2,42c-0.7,0-1.4-0.3-1.9-0.8c-0.6-0.6-0.8-1.2-0.8-1.9V8.8c0-0.7,0.3-1.4,0.8-1.9C7.8,6.3,8.5,6,9.2,6h16.5
	c0.7,0,1.4,0.3,1.9,0.8c0.6,0.6,0.8,1.2,0.8,1.9v30.5c0,0.7-0.3,1.4-0.8,1.9c-0.6,0.6-1.2,0.8-1.9,0.8L9.2,42L9.2,42z M8,23.9
	c0.6-0.6,1.2-1.1,2-1.4s1.6-0.5,2.5-0.5h10c0.9,0,1.7,0.2,2.5,0.5s1.4,0.8,2,1.4V8.8c0-0.4-0.1-0.7-0.3-0.9
	c-0.2-0.2-0.5-0.3-0.9-0.3H9.2c-0.4,0-0.7,0.1-0.9,0.3S8,8.4,8,8.8V23.9z M17.5,17.8c-0.8,0-1.4-0.3-2-0.8c-0.5-0.5-0.8-1.2-0.8-2
	s0.3-1.4,0.8-2c0.5-0.5,1.2-0.8,2-0.8s1.4,0.3,2,0.8c0.5,0.5,0.8,1.2,0.8,2s-0.3,1.4-0.8,2C18.9,17.5,18.2,17.8,17.5,17.8z
	 M37.6,29.6L32,24l5.6-5.6l1.1,1.1L35,23.2h8.6v1.5H35l3.7,3.7C38.7,28.5,37.6,29.6,37.6,29.6z M9.2,40.5h16.5
	c0.4,0,0.7-0.1,0.9-0.3c0.2-0.2,0.3-0.5,0.3-0.9V28c0-1.3-0.4-2.3-1.3-3.2c-0.9-0.9-1.9-1.3-3.2-1.3h-10c-1.3,0-2.3,0.4-3.2,1.3
	C8.4,25.7,8,26.7,8,28v11.2c0,0.4,0.1,0.7,0.3,0.9C8.6,40.3,8.9,40.5,9.2,40.5z M16.7,36.8h1.5v-4h4v-1.5h-4v-4h-1.5v4h-4v1.5h4
	V36.8z M9.2,40.5H8h18.9H9.2z"/>
</svg>
