<?xml version="1.0" encoding="utf-8"?>
<!-- Generator: Adobe Illustrator 26.3.1, SVG Export Plug-In . SVG Version: 6.00 Build 0)  -->
<svg version="1.1" id="Слой_1" xmlns="http://www.w3.org/2000/svg" xmlns:xlink="http://www.w3.org/1999/xlink" x="0px" y="0px"
	 viewBox="0 0 48 48" style="enable-background:new 0 0 48 48;" xml:space="preserve">
<path d="M14,16.8l3.2-3.1L14,10.6l-3.1,3.1L14,16.8z M8.8,27.5c-0.8,0-1.4-0.3-2-0.8c-0.5-0.5-0.8-1.2-0.8-2V8.3
	c0-0.8,0.3-1.4,0.8-2c0.5-0.5,1.2-0.8,2-0.8h30.5c0.8,0,1.4,0.3,2,0.8c0.5,0.5,0.8,1.2,0.8,2v16.5c0,0.8-0.3,1.4-0.8,2
	c-0.5,0.5-1.2,0.8-2,0.8h-6.6c0-0.2,0.1-0.5,0.1-0.8s0-0.5,0-0.8h6.5c0.3,0,0.6-0.1,0.8-0.4c0.3-0.3,0.4-0.5,0.4-0.8V8.3
	c0-0.3-0.1-0.6-0.4-0.8c-0.3-0.3-0.5-0.4-0.8-0.4H8.8C8.5,7.1,8.2,7.2,8,7.5C7.7,7.7,7.5,8,7.5,8.3v16.5c0,0.3,0.1,0.6,0.4,0.8
	C8.2,25.9,8.5,26,8.8,26h6.5c0,0.3,0,0.5,0.1,0.8c0,0.3,0.1,0.5,0.1,0.8L8.8,27.5L8.8,27.5z M33,14.4c0.5,0,1-0.2,1.4-0.5
	c0.4-0.4,0.6-0.8,0.6-1.3s-0.2-1-0.6-1.4s-0.8-0.6-1.4-0.6c-0.5,0-1,0.2-1.3,0.6c-0.4,0.4-0.5,0.8-0.5,1.4c0,0.5,0.2,1,0.5,1.3
	S32.5,14.4,33,14.4z M12,42.5v-2.8c0-0.8,0.2-1.5,0.6-2.2c0.4-0.7,1-1.2,1.7-1.5c1.5-0.7,3.1-1.2,4.7-1.6s3.2-0.5,4.9-0.5
	s3.3,0.2,4.9,0.5s3.2,0.9,4.7,1.6c0.7,0.3,1.3,0.8,1.7,1.5s0.6,1.4,0.6,2.2v2.8C36,42.5,12,42.5,12,42.5z M13.5,40.9h20.9v-1.3
	c0-0.5-0.1-0.9-0.4-1.3c-0.3-0.4-0.7-0.7-1.1-0.9c-1.4-0.7-2.9-1.2-4.3-1.5c-1.5-0.3-3-0.5-4.6-0.5s-3.1,0.2-4.6,0.5
	s-2.9,0.8-4.4,1.5c-0.5,0.2-0.8,0.5-1.1,0.9s-0.4,0.8-0.4,1.3C13.5,39.6,13.5,40.9,13.5,40.9z M24,31.1c-1.4,0-2.6-0.5-3.5-1.5
	c-1-1-1.5-2.2-1.5-3.5c0-1.4,0.5-2.6,1.5-3.5c1-1,2.2-1.5,3.5-1.5c1.4,0,2.6,0.5,3.5,1.5c1,1,1.5,2.2,1.5,3.5c0,1.4-0.5,2.6-1.5,3.5
	C26.6,30.6,25.4,31.1,24,31.1z M24,29.5c1,0,1.8-0.3,2.5-1s1-1.5,1-2.4c0-1-0.3-1.8-1-2.5s-1.5-1-2.4-1c-1,0-1.8,0.3-2.5,1
	s-1,1.5-1,2.4c0,1,0.3,1.8,1,2.5C22.2,29.2,23,29.5,24,29.5z"/>
</svg>
