<?xml version="1.0" encoding="utf-8"?>
<!-- Generator: Adobe Illustrator 26.3.1, SVG Export Plug-In . SVG Version: 6.00 Build 0)  -->
<svg version="1.1" id="Слой_1" xmlns="http://www.w3.org/2000/svg" xmlns:xlink="http://www.w3.org/1999/xlink" x="0px" y="0px"
	 viewBox="0 0 48 48" style="enable-background:new 0 0 48 48;" xml:space="preserve">
<path d="M5.5,20.8L14.1,6l8.5,14.9H5.5V20.8z M14.1,41c-1.9,0-3.6-0.7-5-2C7.7,37.6,7,36,7,34s0.7-3.7,2.1-5c1.4-1.4,3-2,5-2
	s3.6,0.7,5,2c1.4,1.4,2,3,2,5s-0.7,3.6-2,5C17.8,40.4,16.1,41,14.1,41z M14.1,39.5c1.5,0,2.8-0.5,3.9-1.6s1.6-2.4,1.6-3.9
	s-0.5-2.8-1.6-3.9s-2.4-1.6-3.9-1.6s-2.8,0.5-3.9,1.6S8.6,32.5,8.6,34s0.5,2.8,1.6,3.9C11.3,39,12.6,39.5,14.1,39.5z M8.2,19.3H20
	L14.1,9.1L8.2,19.3z M27,41V27h14.1v14H27z M28.6,39.5h11v-11h-11C28.6,28.5,28.6,39.5,28.6,39.5z M34.1,20.8
	c-1.2-1-2.4-1.9-3.4-2.7c-1-0.8-1.9-1.7-2.7-2.5c-0.7-0.8-1.3-1.6-1.7-2.4c-0.4-0.8-0.6-1.6-0.6-2.5c0-1.2,0.4-2.2,1.2-3
	c0.8-0.8,1.8-1.2,3-1.2c0.8,0,1.5,0.2,2.2,0.6s1.4,1,2,1.8c0.6-0.8,1.3-1.4,2-1.8s1.5-0.6,2.2-0.6c1.2,0,2.2,0.4,2.9,1.2
	c0.8,0.8,1.2,1.8,1.2,3c0,0.8-0.2,1.6-0.6,2.4c-0.4,0.8-1,1.5-1.7,2.3s-1.6,1.6-2.7,2.4C36.4,18.9,35.3,19.9,34.1,20.8z M34.1,18.9
	c2.5-1.9,4.3-3.5,5.3-4.7s1.5-2.3,1.5-3.2c0-0.8-0.2-1.4-0.7-1.9s-1.1-0.8-1.9-0.8c-0.5,0-0.9,0.1-1.4,0.4C36.4,9,35.8,9.5,35,10.3
	l-1,1l-1-1c-0.8-0.8-1.4-1.3-1.9-1.6s-0.9-0.4-1.4-0.4c-0.8,0-1.4,0.2-1.9,0.7s-0.7,1.1-0.7,1.9c0,1,0.5,2.1,1.5,3.3
	C29.8,15.3,31.6,16.9,34.1,18.9z"/>
</svg>
