<?xml version="1.0" encoding="utf-8"?>
<!-- Generator: Adobe Illustrator 26.3.1, SVG Export Plug-In . SVG Version: 6.00 Build 0)  -->
<svg version="1.1" id="Слой_1" xmlns="http://www.w3.org/2000/svg" xmlns:xlink="http://www.w3.org/1999/xlink" x="0px" y="0px"
	 viewBox="0 0 48 48" style="enable-background:new 0 0 48 48;" xml:space="preserve">
<path d="M24,40c-3.9,0-7.2-1.3-9.9-4S10,30.1,10,26.2c0-2,0.4-3.8,1.1-5.4c0.7-1.6,1.7-3.1,3-4.4L24,6.8l9.9,9.7
	c1.2,1.3,2.2,2.8,3,4.4c0.7,1.7,1.1,3.4,1.1,5.3c0,3.8-1.4,7.1-4.1,9.7C31.2,38.7,27.9,40,24,40z M24,38.5V9l-8.9,8.7
	c-1.2,1.1-2.1,2.4-2.7,3.9s-0.9,3-0.9,4.7c0,3.4,1.2,6.3,3.7,8.6C17.6,37.3,20.6,38.5,24,38.5z"/>
</svg>
