<?xml version="1.0" encoding="utf-8"?>
<!-- Generator: Adobe Illustrator 26.3.1, SVG Export Plug-In . SVG Version: 6.00 Build 0)  -->
<svg version="1.1" id="Слой_1" xmlns="http://www.w3.org/2000/svg" xmlns:xlink="http://www.w3.org/1999/xlink" x="0px" y="0px"
	 viewBox="0 0 48 48" style="enable-background:new 0 0 48 48;" xml:space="preserve">
<path d="M8.9,17.1v-2h2v2H8.9z M9.1,33V20.6h1.5V33H9.1z M22.2,33H18c-0.7,0-1.4-0.3-1.9-0.8s-0.8-1.2-0.8-1.9V17.8
	c0-0.7,0.3-1.4,0.8-1.9s1.2-0.8,1.9-0.8h4.1c0.7,0,1.4,0.3,1.9,0.8s0.8,1.2,0.8,1.9v12.5c0,0.7-0.3,1.4-0.8,1.9
	C23.6,32.7,22.9,33,22.2,33z M18,31.5h4.1c0.3,0,0.6-0.1,0.9-0.3c0.2-0.2,0.4-0.5,0.4-0.9V17.8c0-0.4-0.1-0.7-0.4-0.9
	c-0.2-0.2-0.5-0.3-0.9-0.3H18c-0.3,0-0.6,0.1-0.9,0.3c-0.2,0.2-0.4,0.5-0.4,0.9v12.5c0,0.4,0.1,0.7,0.4,0.9
	C17.4,31.3,17.7,31.5,18,31.5z M29.5,33v-1.5h6.9c0.4,0,0.7-0.1,0.9-0.3c0.2-0.2,0.3-0.5,0.3-0.9V26c0-0.4-0.1-0.7-0.3-0.9
	c-0.2-0.2-0.5-0.3-0.9-0.3h-4.1c-0.8,0-1.4-0.3-2-0.8c-0.5-0.5-0.8-1.2-0.8-1.9V18c0-0.7,0.3-1.4,0.8-1.9s1.2-0.8,2-0.8h6.9v1.5
	h-6.9c-0.4,0-0.7,0.1-0.9,0.3c-0.2,0.2-0.3,0.5-0.3,0.9v4.1c0,0.3,0.1,0.6,0.3,0.9c0.2,0.2,0.5,0.4,0.9,0.4h4.1
	c0.7,0,1.4,0.3,1.9,0.8s0.8,1.2,0.8,2v4.3c0,0.7-0.3,1.4-0.8,1.9c-0.5,0.5-1.2,0.8-1.9,0.8h-6.9V33z"/>
</svg>
