<?xml version="1.0" encoding="utf-8"?>
<!-- Generator: Adobe Illustrator 26.3.1, SVG Export Plug-In . SVG Version: 6.00 Build 0)  -->
<svg version="1.1" id="Слой_1" xmlns="http://www.w3.org/2000/svg" xmlns:xlink="http://www.w3.org/1999/xlink" x="0px" y="0px"
	 viewBox="0 0 48 48" style="enable-background:new 0 0 48 48;" xml:space="preserve">
<path d="M6,34v-4.2c0-1.8,0.7-3.4,2-4.7c1.3-1.3,2.9-1.9,4.8-1.9h18.4v-2.5c0-0.9-0.3-1.7-1-2.3c-0.6-0.6-1.4-0.9-2.4-0.9h-6.4
	c-0.9,0-1.7,0.3-2.4,0.9c-0.7,0.6-1,1.4-1,2.3h-1.5c0-1.3,0.5-2.5,1.4-3.4c1-0.9,2.1-1.4,3.5-1.4h6.4c1.4,0,2.5,0.5,3.5,1.4
	c0.9,0.9,1.4,2.1,1.4,3.4v8.4h0.1c1,0,1.8-0.3,2.5-0.9s1.1-1.4,1.1-2.3v-7.2c0-1.3,0.5-2.5,1.4-3.4s2.1-1.4,3.5-1.4H42v1.5h-0.7
	c-0.9,0-1.7,0.3-2.4,0.9c-0.6,0.6-1,1.4-1,2.3v7.2c0,1.4-0.5,2.5-1.5,3.4s-2.2,1.4-3.6,1.4h-0.1V34H6z M7.5,32.5h23.7v-7.7H12.8
	c-1.5,0-2.7,0.5-3.7,1.5s-1.5,2.2-1.5,3.6C7.5,29.8,7.5,32.5,7.5,32.5z M31.2,32.5v-7.7V32.5z"/>
</svg>
