<?xml version="1.0" encoding="utf-8"?>
<!-- Generator: Adobe Illustrator 26.3.1, SVG Export Plug-In . SVG Version: 6.00 Build 0)  -->
<svg version="1.1" id="Слой_1" xmlns="http://www.w3.org/2000/svg" xmlns:xlink="http://www.w3.org/1999/xlink" x="0px" y="0px"
	 viewBox="0 0 48 48" style="enable-background:new 0 0 48 48;" xml:space="preserve">
<path d="M31.4,36c-1.1,0-2.1-0.1-3.2-0.5c-1.1-0.3-2-0.7-2.8-1.1c1.3-0.8,2.4-2.2,3.3-4.1s1.3-4,1.3-6.3s-0.4-4.3-1.3-6.2
	s-1.9-3.3-3.3-4.1c0.8-0.5,1.7-0.9,2.8-1.1c1.1-0.3,2.2-0.5,3.2-0.5c3.3,0,6.2,1.2,8.5,3.5s3.5,5.2,3.5,8.5s-1.2,6.2-3.5,8.5
	S34.7,36,31.4,36z M24,33.5c-1.2,0-2.2-1-3.2-2.9s-1.4-4.1-1.4-6.5s0.5-4.6,1.4-6.5c1-1.9,2-2.9,3.2-2.9s2.2,1,3.2,2.9
	c1,2,1.4,4.1,1.4,6.5s-0.5,4.6-1.4,6.5C26.2,32.5,25.2,33.5,24,33.5z M16.6,36c-3.3,0-6.2-1.2-8.5-3.5S4.6,27.3,4.6,24
	s1.2-6.2,3.5-8.5s5.2-3.5,8.5-3.5c1.1,0,2.1,0.2,3.2,0.4c1.1,0.3,2,0.7,2.8,1.1c-1.3,0.8-2.4,2.2-3.3,4.2c-0.9,1.9-1.3,4-1.3,6.2
	s0.4,4.3,1.3,6.2s1.9,3.3,3.3,4.2c-0.8,0.5-1.7,0.9-2.8,1.2C18.7,35.9,17.7,36,16.6,36z"/>
</svg>
