<?xml version="1.0" encoding="utf-8"?>
<!-- Generator: Adobe Illustrator 26.3.1, SVG Export Plug-In . SVG Version: 6.00 Build 0)  -->
<svg version="1.1" id="Слой_1" xmlns="http://www.w3.org/2000/svg" xmlns:xlink="http://www.w3.org/1999/xlink" x="0px" y="0px"
	 viewBox="0 0 48 48" style="enable-background:new 0 0 48 48;" xml:space="preserve">
<path d="M16,36c-3.3,0-6.2-1.2-8.5-3.5S4,27.3,4,24s1.2-6.2,3.5-8.5S12.7,12,16,12c1.4,0,2.6,0.2,3.9,0.6c1.2,0.4,2.3,1,3.3,1.7
	c-1.4,1.2-2.4,2.7-3.2,4.4c-0.7,1.7-1.1,3.4-1.1,5.3c0,1.8,0.4,3.6,1.1,5.3c0.7,1.7,1.8,3.1,3.2,4.4c-1,0.7-2.1,1.3-3.3,1.7
	C18.6,35.8,17.4,36,16,36z M32,36c-1.4,0-2.6-0.2-3.9-0.6c-1.2-0.4-2.3-1-3.3-1.7c0.2-0.2,0.4-0.4,0.6-0.5c0.2-0.2,0.4-0.4,0.5-0.6
	c0.8,0.6,1.8,1.1,2.8,1.4c1,0.3,2.1,0.5,3.3,0.5c2.9,0,5.4-1,7.4-3.1c2-2,3-4.5,3-7.4s-1-5.4-3-7.4s-4.5-3-7.4-3
	c-1.2,0-2.2,0.2-3.3,0.5c-1,0.3-2,0.8-2.8,1.4c-0.2-0.2-0.4-0.4-0.5-0.6c-0.2-0.2-0.4-0.4-0.6-0.5c1-0.7,2.1-1.3,3.3-1.7
	c1.2-0.4,2.5-0.6,3.9-0.6c3.3,0,6.2,1.2,8.5,3.5s3.5,5.2,3.5,8.5s-1.2,6.2-3.5,8.5S35.3,36,32,36z M24,32.9c-1.3-1.1-2.2-2.5-2.9-4
	C20.4,27.3,20,25.7,20,24s0.4-3.3,1.1-4.9c0.7-1.5,1.7-2.9,2.9-4c1.3,1.1,2.2,2.5,2.9,4c0.7,1.5,1.1,3.2,1.1,4.9s-0.4,3.3-1.1,4.9
	C26.2,30.4,25.3,31.8,24,32.9z"/>
</svg>
