<?xml version="1.0" encoding="utf-8"?>
<!-- Generator: Adobe Illustrator 26.3.1, SVG Export Plug-In . SVG Version: 6.00 Build 0)  -->
<svg version="1.1" id="Слой_1" xmlns="http://www.w3.org/2000/svg" xmlns:xlink="http://www.w3.org/1999/xlink" x="0px" y="0px"
	 viewBox="0 0 48 48" style="enable-background:new 0 0 48 48;" xml:space="preserve">
<path d="M32,34.5c2.9,0,5.4-1,7.4-3.1c2-2,3-4.5,3-7.4s-1-5.4-3-7.4s-4.5-3-7.4-3c-1.3,0-2.6,0.2-3.8,0.7c-1.2,0.5-2.2,1.1-3.1,1.9
	c0.9,1.1,1.6,2.3,2.1,3.6c0.5,1.3,0.8,2.7,0.8,4.3s-0.3,2.9-0.8,4.3c-0.5,1.3-1.2,2.5-2.1,3.6c0.9,0.8,2,1.5,3.1,1.9
	C29.4,34.2,30.7,34.5,32,34.5z M24,30.7c0.8-0.9,1.4-1.9,1.8-3.1s0.6-2.4,0.6-3.6c0-1.3-0.2-2.5-0.6-3.6s-1-2.2-1.8-3.1
	c-0.8,0.9-1.4,1.9-1.8,3.1s-0.6,2.4-0.6,3.6c0,1.3,0.2,2.5,0.6,3.6C22.6,28.8,23.2,29.8,24,30.7z M16,34.5c1.3,0,2.6-0.2,3.8-0.7
	c1.2-0.5,2.2-1.1,3.1-1.9c-0.9-1.1-1.6-2.3-2.1-3.6C20.3,26.9,20,25.5,20,24s0.3-2.9,0.8-4.3c0.5-1.3,1.2-2.5,2.1-3.6
	c-0.9-0.8-2-1.5-3.1-1.9c-1.2-0.5-2.4-0.7-3.8-0.7c-2.9,0-5.4,1-7.4,3S5.5,21.1,5.5,24s1,5.4,3.1,7.4C10.6,33.4,13.1,34.5,16,34.5z
	 M16,36c-3.3,0-6.2-1.2-8.5-3.5S4,27.3,4,24s1.2-6.2,3.5-8.5S12.7,12,16,12c1.6,0,3,0.3,4.4,0.8s2.6,1.3,3.6,2.3
	c1.1-1,2.3-1.7,3.6-2.3C29,12.3,30.4,12,32,12c3.3,0,6.2,1.2,8.5,3.5S44,20.7,44,24s-1.2,6.2-3.5,8.5S35.3,36,32,36
	c-1.6,0-3-0.3-4.4-0.8S25,33.9,24,32.9c-1.1,1-2.3,1.7-3.6,2.3C19,35.7,17.6,36,16,36z"/>
</svg>
