<?xml version="1.0" encoding="utf-8"?>
<!-- Generator: Adobe Illustrator 26.3.1, SVG Export Plug-In . SVG Version: 6.00 Build 0)  -->
<svg version="1.1" id="Слой_1" xmlns="http://www.w3.org/2000/svg" xmlns:xlink="http://www.w3.org/1999/xlink" x="0px" y="0px"
	 viewBox="0 0 48 48" style="enable-background:new 0 0 48 48;" xml:space="preserve">
<path d="M10.4,27.3l13,7.5c0.2,0.1,0.4,0.2,0.6,0.2s0.4-0.1,0.6-0.2l13-7.5l-12.8-7.4v6.6h-1.5v-6.6L10.4,27.3z M23.2,18.1v-2.6
	c-1.1-0.2-2.1-0.8-2.8-1.6c-0.8-0.9-1.2-1.9-1.2-3.1c0-1.3,0.5-2.5,1.4-3.4C21.5,6.5,22.7,6,24,6s2.5,0.5,3.4,1.4s1.4,2,1.4,3.4
	c0,1.2-0.4,2.2-1.2,3.1c-0.8,0.9-1.7,1.4-2.8,1.6v2.6l13.8,8c0.5,0.3,0.8,0.6,1,1S40,28,40,28.5v3c0,0.5-0.1,1-0.4,1.4
	c-0.2,0.4-0.6,0.8-1,1l-13.2,7.6c-0.5,0.2-0.9,0.4-1.4,0.4s-0.9-0.1-1.4-0.4L9.4,33.9c-0.5-0.3-0.8-0.6-1-1C8.1,32.5,8,32,8,31.5v-3
	c0-0.5,0.1-1,0.4-1.4c0.2-0.4,0.6-0.8,1-1L23.2,18.1z M22.6,36.1L9.5,28.6v2.9c0,0.2,0.1,0.4,0.2,0.6c0.1,0.2,0.3,0.4,0.5,0.5
	l13.2,7.6c0.2,0.1,0.4,0.2,0.6,0.2s0.4-0.1,0.6-0.2l13.2-7.6c0.2-0.1,0.4-0.3,0.5-0.5s0.2-0.4,0.2-0.6v-2.9l-13.1,7.6
	c-0.4,0.3-0.9,0.4-1.4,0.4C23.5,36.5,23,36.4,22.6,36.1z M24,14c0.9,0,1.7-0.3,2.3-0.9c0.6-0.6,0.9-1.4,0.9-2.3
	c0-0.9-0.3-1.7-0.9-2.3S24.9,7.6,24,7.6s-1.7,0.3-2.3,0.9c-0.6,0.6-0.9,1.4-0.9,2.3c0,0.9,0.3,1.7,0.9,2.3C22.3,13.7,23.1,14,24,14z
	"/>
</svg>
