<?xml version="1.0" encoding="utf-8"?>
<!-- Generator: Adobe Illustrator 26.3.1, SVG Export Plug-In . SVG Version: 6.00 Build 0)  -->
<svg version="1.1" id="Слой_1" xmlns="http://www.w3.org/2000/svg" xmlns:xlink="http://www.w3.org/1999/xlink" x="0px" y="0px"
	 viewBox="0 0 48 48" style="enable-background:new 0 0 48 48;" xml:space="preserve">
<path d="M14.2,35.7V12.3L9.5,6h25.3v6.2h4.5c0.7,0,1.4,0.3,1.9,0.8c0.6,0.6,0.8,1.2,0.8,1.9v10.5c0,0.7-0.3,1.4-0.8,1.9
	c-0.6,0.6-1.2,0.8-1.9,0.8h-4.5v7.5C34.8,35.7,14.2,35.7,14.2,35.7z M15.8,34.2h17.5V7.5H12.5l3.3,4.3V34.2z M34.8,26.7h4.5
	c0.4,0,0.7-0.1,0.9-0.3c0.2-0.2,0.3-0.5,0.3-0.9V15c0-0.4-0.1-0.7-0.3-0.9s-0.5-0.3-0.9-0.3h-4.5V26.7z M26,30.2h3.2V11.5H26V30.2z
	 M8,42v-1.5h32V42H8z"/>
</svg>
