<?xml version="1.0" encoding="utf-8"?>
<!-- Generator: Adobe Illustrator 26.3.1, SVG Export Plug-In . SVG Version: 6.00 Build 0)  -->
<svg version="1.1" id="Слой_1" xmlns="http://www.w3.org/2000/svg" xmlns:xlink="http://www.w3.org/1999/xlink" x="0px" y="0px"
	 viewBox="0 0 48 48" style="enable-background:new 0 0 48 48;" xml:space="preserve">
<path d="M14,26.2c-0.6,0-1.1-0.2-1.5-0.6s-0.6-0.9-0.6-1.5s0.2-1.1,0.6-1.5c0.4-0.4,0.9-0.6,1.5-0.6s1.1,0.2,1.5,0.6
	s0.6,0.9,0.6,1.5s-0.2,1.1-0.6,1.5C15.1,26,14.6,26.2,14,26.2z M14,34c-2.8,0-5.1-1-7.1-2.9S4,26.8,4,24s1-5.1,2.9-7.1
	S11.2,14,14,14c2.1,0,4,0.6,5.7,1.7s2.8,2.7,3.6,4.7h18.5l3.8,3.8l-6.1,5.7l-3.6-2.7L32.1,30l-3.3-2.4h-5.5
	c-0.7,1.8-1.8,3.4-3.4,4.6C18.2,33.4,16.2,34,14,34z M14,32.5c2,0,3.7-0.6,5.2-1.9s2.4-2.8,2.9-4.5h7.2l2.8,2l3.9-2.7l3.5,2.6
	l3.9-3.8L41.2,22H22.1c-0.4-1.7-1.3-3.2-2.8-4.5s-3.2-1.9-5.3-1.9c-2.4,0-4.4,0.8-6,2.5c-1.6,1.6-2.5,3.6-2.5,6s0.8,4.3,2.5,6
	C9.6,31.6,11.6,32.5,14,32.5z"/>
</svg>
