<?xml version="1.0" encoding="utf-8"?>
<!-- Generator: Adobe Illustrator 26.3.1, SVG Export Plug-In . SVG Version: 6.00 Build 0)  -->
<svg version="1.1" id="Слой_1" xmlns="http://www.w3.org/2000/svg" xmlns:xlink="http://www.w3.org/1999/xlink" x="0px" y="0px"
	 viewBox="0 0 48 48" style="enable-background:new 0 0 48 48;" xml:space="preserve">
<path d="M22.8,14c0-0.6,0.2-1.1,0.6-1.5s0.9-0.6,1.5-0.6s1.1,0.2,1.5,0.6c0.4,0.4,0.6,0.9,0.6,1.5s-0.2,1.1-0.6,1.5
	s-0.9,0.6-1.5,0.6s-1.1-0.2-1.5-0.6C23,15.1,22.8,14.6,22.8,14z M24.8,45.6l-5.7-6.1l2.7-3.6L19,32.1l2.4-3.3v-5.4
	c-1.8-0.8-3.4-2-4.6-3.6C15.6,18.2,15,16.2,15,14c0-2.8,1-5.1,2.9-7.1C19.9,5,22.2,4,25,4s5.1,1,7.1,2.9C34,8.9,35,11.2,35,14
	c0,2.1-0.6,4-1.7,5.6c-1.1,1.6-2.7,2.9-4.7,3.8v18.3C28.6,41.7,24.8,45.6,24.8,45.6z M16.5,14c0,2,0.6,3.7,1.9,5.3
	c1.3,1.5,2.8,2.5,4.5,2.9v7.1l-2,2.8l2.7,3.9L21,39.4l3.8,3.9l2.2-2.2v-19c1.8-0.5,3.4-1.5,4.6-2.9c1.2-1.5,1.8-3.2,1.8-5.3
	c0-2.3-0.8-4.3-2.5-6c-1.6-1.6-3.6-2.5-6-2.5S20.7,6.4,19,8C17.4,9.7,16.5,11.7,16.5,14z"/>
</svg>
