<?xml version="1.0" encoding="utf-8"?>
<!-- Generator: Adobe Illustrator 26.3.1, SVG Export Plug-In . SVG Version: 6.00 Build 0)  -->
<svg version="1.1" id="Слой_1" xmlns="http://www.w3.org/2000/svg" xmlns:xlink="http://www.w3.org/1999/xlink" x="0px" y="0px"
	 viewBox="0 0 48 48" style="enable-background:new 0 0 48 48;" xml:space="preserve">
<path d="M40.2,42.4L25.4,27.6h-2.1c-0.8,2.1-2,3.7-3.6,4.8C17.9,33.5,16,34,14,34c-2.8,0-5.1-1-7.1-2.9S4,26.8,4,24
	c0-2.3,0.7-4.4,2.2-6.2s3.4-3,5.8-3.5L5.6,7.8l1.1-1.1l34.7,34.6L40.2,42.4z M41.7,20.4l3.8,3.8l-6,5.6l-3-1.8l-2,1.5l-1.8-1.8
	l3.2-2.3l3.5,2.6l3.9-3.8L41.1,22H26.9l-1.5-1.5C25.4,20.4,41.7,20.4,41.7,20.4z M14,32.5c1.7,0,3.3-0.6,4.9-1.7s2.6-2.7,3.2-4.7
	h1.8l-2.8-2.8c-0.8-0.8-1.6-1.6-2.5-2.5l-2.5-2.5l-2.8-2.8c-2.5,0.2-4.5,1.2-5.8,2.9c-1.4,1.7-2,3.6-2,5.5c0,2.3,0.8,4.3,2.5,6
	C9.7,31.6,11.7,32.5,14,32.5z M14,26.2c-0.6,0-1.1-0.2-1.5-0.6s-0.6-0.9-0.6-1.5s0.2-1.1,0.6-1.5c0.4-0.4,0.9-0.6,1.5-0.6
	s1.1,0.2,1.5,0.6s0.6,0.9,0.6,1.5s-0.2,1.1-0.6,1.5C15.1,26,14.6,26.2,14,26.2z"/>
</svg>
