<?xml version="1.0" encoding="utf-8"?>
<!-- Generator: Adobe Illustrator 26.3.1, SVG Export Plug-In . SVG Version: 6.00 Build 0)  -->
<svg version="1.1" id="Слой_1" xmlns="http://www.w3.org/2000/svg" xmlns:xlink="http://www.w3.org/1999/xlink" x="0px" y="0px"
	 viewBox="0 0 48 48" style="enable-background:new 0 0 48 48;" xml:space="preserve">
<path d="M7.5,34.5v-21V34.5z M8.8,36c-0.8,0-1.4-0.3-2-0.8C6.3,34.7,6,34,6,33.2V14.8c0-0.8,0.3-1.4,0.8-2C7.3,12.3,8,12,8.8,12
	h30.5c0.8,0,1.4,0.3,2,0.8c0.5,0.5,0.8,1.2,0.8,2v10.7c-0.3-0.2-0.5-0.3-0.8-0.4c-0.2-0.1-0.5-0.3-0.8-0.4v-9.9
	c0-0.3-0.1-0.6-0.4-0.8c-0.3-0.3-0.5-0.4-0.8-0.4H8.8c-0.3,0-0.6,0.1-0.8,0.4c-0.3,0.3-0.4,0.5-0.4,0.8v18.5c0,0.3,0.1,0.6,0.4,0.8
	c0.3,0.3,0.5,0.4,0.8,0.4h15.4c0,0.1,0,0.3,0,0.4v0.8c0,0.1,0,0.2,0,0.4C24.1,36,8.8,36,8.8,36z M16,28.8v2.6h8.8
	c0.2-0.5,0.3-0.9,0.6-1.3c0.2-0.4,0.4-0.9,0.7-1.3C26.1,28.8,16,28.8,16,28.8z M10.5,22.7v2.6h2.6v-2.6H10.5z M16.6,22.7v2.6h2.6
	v-2.6H16.6z M22.7,22.7v2.6h2.6v-2.6H22.7z M28.8,22.7v2.6h0.9c0.3-0.2,0.5-0.3,0.8-0.5c0.3-0.1,0.6-0.3,0.8-0.4v-1.8
	C31.4,22.7,28.8,22.7,28.8,22.7z M34.9,22.7v1c0.1,0,0.3,0,0.4,0c0.1,0,0.3,0,0.4,0c0.3,0,0.6,0,0.9,0c0.3,0,0.6,0.1,0.9,0.1v-1.1
	C37.5,22.7,34.9,22.7,34.9,22.7z M10.5,16.6v2.6h2.6v-2.6C13.2,16.6,10.5,16.6,10.5,16.6z M16.6,16.6v2.6h2.6v-2.6H16.6z M22.7,16.6
	v2.6h2.6v-2.6H22.7z M28.8,16.6v2.6h2.6v-2.6H28.8z M34.9,16.6v2.6h2.6v-2.6H34.9z M35.7,41.5l-1.1-1.1L39,36H29v-1.5h10L34.6,30
	l1.1-1.1l6.3,6.3C42,35.2,35.7,41.5,35.7,41.5z"/>
</svg>
