<?xml version="1.0" encoding="utf-8"?>
<!-- Generator: Adobe Illustrator 26.3.1, SVG Export Plug-In . SVG Version: 6.00 Build 0)  -->
<svg version="1.1" id="Слой_1" xmlns="http://www.w3.org/2000/svg" xmlns:xlink="http://www.w3.org/1999/xlink" x="0px" y="0px"
	 viewBox="0 0 48 48" style="enable-background:new 0 0 48 48;" xml:space="preserve">
<path d="M26.8,31.4H16v-2.6h11.7c-0.2,0.4-0.4,0.8-0.5,1.2C27,30.5,26.9,30.9,26.8,31.4z M10.5,25.3v-2.6h2.6v2.6H10.5z M16.6,25.3
	v-2.6h2.6v2.6H16.6z M10.5,19.2v-2.6h2.6v2.6H10.5z M28.8,19.2h2.6v-2.6h-2.6V19.2z M34.9,19.2h2.6v-2.6h-2.6V19.2z M34.9,24.3
	c0.5-0.1,0.9-0.1,1.3-0.1c0.4,0,0.9,0,1.3,0.1v-1.6h-2.6C34.9,22.7,34.9,24.3,34.9,24.3z M31.4,25.3v-2.6h-2.6v1.6l1,1H31.4z
	 M25.3,19.2v-2.6h-2.6v1.6l1,1H25.3z M41.2,44L4.2,6.9l1.1-1.1l37,37.1C42.3,42.9,41.2,44,41.2,44z M42,26.1
	c-0.2-0.2-0.5-0.4-0.7-0.6c-0.3-0.1-0.5-0.3-0.8-0.5V14.8c0-0.3-0.1-0.6-0.4-0.8c-0.3-0.3-0.5-0.4-0.8-0.4H18L16.5,12h22.7
	c0.8,0,1.4,0.3,2,0.8c0.5,0.5,0.8,1.2,0.8,2V26.1z M8.8,36c-0.8,0-1.4-0.3-2-0.8C6.3,34.7,6,34,6,33.2V14.8c0-0.8,0.3-1.4,0.8-2
	C7.3,12.3,8,12,8.8,12h2.8l1.5,1.5H8.8c-0.3,0-0.6,0.1-0.8,0.4c-0.3,0.3-0.4,0.5-0.4,0.8v18.5c0,0.3,0.1,0.6,0.4,0.8
	c0.3,0.3,0.5,0.4,0.8,0.4H27V36H8.8z M32.8,42c-0.5,0-0.9-0.2-1.3-0.6c-0.4-0.4-0.6-0.9-0.6-1.3v-5.4c0-0.4,0.2-0.8,0.5-1.2
	s0.7-0.6,1.1-0.7h-0.1l7.7,7.7V42H32.8z M42,37.5L38.5,34v-3.2c0-0.6-0.2-1.1-0.6-1.5c-0.4-0.4-0.9-0.6-1.5-0.6
	c-0.5,0-0.8,0.1-1.2,0.4c-0.3,0.3-0.5,0.6-0.6,1.1L33.4,29c0.3-0.6,0.7-1,1.3-1.3c0.5-0.3,1.1-0.5,1.8-0.5c1,0,1.9,0.4,2.5,1.1
	c0.7,0.7,1,1.6,1,2.6v2h0.1c0.5,0,0.9,0.2,1.3,0.6c0.4,0.4,0.6,0.8,0.6,1.3C42,34.8,42,37.5,42,37.5z"/>
</svg>
