<?xml version="1.0" encoding="utf-8"?>
<!-- Generator: Adobe Illustrator 26.3.1, SVG Export Plug-In . SVG Version: 6.00 Build 0)  -->
<svg version="1.1" id="Слой_1" xmlns="http://www.w3.org/2000/svg" xmlns:xlink="http://www.w3.org/1999/xlink" x="0px" y="0px"
	 viewBox="0 0 48 48" style="enable-background:new 0 0 48 48;" xml:space="preserve">
<path d="M42.7,43.9L7,8.2l1.1-1.1l35.7,35.7C43.8,42.8,42.7,43.9,42.7,43.9z M16,31.4v-2.6h13.8l2.6,2.6H16z M10.5,25.3v-2.6h2.6
	v2.6H10.5z M16.6,25.3v-2.6h2.6v2.6H16.6z M34.9,25.3v-2.6h2.6v2.6H34.9z M10.5,19.2v-2.6h2.6v2.6H10.5z M28.8,19.2v-2.6h2.6v2.6
	H28.8z M34.9,19.2v-2.6h2.6v2.6H34.9z M41.2,35.2l-0.7-0.7V14.8c0-0.3-0.1-0.6-0.4-0.8c-0.3-0.3-0.5-0.4-0.8-0.4H19.6L18.1,12h21.2
	c0.8,0,1.4,0.3,2,0.8c0.5,0.5,0.8,1.2,0.8,2v18.4c0,0.4-0.1,0.8-0.2,1.1C41.6,34.6,41.4,34.9,41.2,35.2z M8.8,36
	c-0.8,0-1.4-0.3-2-0.8C6.3,34.7,6,34,6,33.2V14.8c0-0.8,0.3-1.4,0.8-2C7.3,12.3,8,12,8.8,12H13l1.5,1.5H8.8c-0.3,0-0.6,0.1-0.8,0.4
	c-0.3,0.3-0.4,0.5-0.4,0.8v18.5c0,0.3,0.1,0.6,0.4,0.8c0.3,0.3,0.5,0.4,0.8,0.4h26.7L37,36H8.8z M22.6,16.6h2.7v2.7L22.6,16.6z
	 M28.8,22.7h2.6v2.6L28.8,22.7z"/>
</svg>
