<?xml version="1.0" encoding="utf-8"?>
<!-- Generator: Adobe Illustrator 26.3.1, SVG Export Plug-In . SVG Version: 6.00 Build 0)  -->
<svg version="1.1" id="Слой_1" xmlns="http://www.w3.org/2000/svg" xmlns:xlink="http://www.w3.org/1999/xlink" x="0px" y="0px"
	 viewBox="0 0 48 48" style="enable-background:new 0 0 48 48;" xml:space="preserve">
<path d="M24,43.7l-5.9-5.9h11.7L24,43.7z M8.8,32c-0.8,0-1.4-0.3-2-0.8C6.3,30.7,6,30,6,29.2V10.8c0-0.8,0.3-1.4,0.8-2
	C7.3,8.3,8,8,8.8,8h30.5c0.8,0,1.4,0.3,2,0.8c0.5,0.5,0.8,1.2,0.8,2v18.5c0,0.8-0.3,1.4-0.8,2c-0.5,0.5-1.2,0.8-2,0.8L8.8,32L8.8,32
	z M8.8,30.5h30.5c0.3,0,0.6-0.1,0.8-0.4c0.3-0.3,0.4-0.5,0.4-0.8V10.8c0-0.3-0.1-0.6-0.4-0.8c-0.3-0.3-0.5-0.4-0.8-0.4H8.8
	C8.5,9.6,8.2,9.7,8,10c-0.3,0.3-0.4,0.5-0.4,0.8v18.5c0,0.3,0.1,0.6,0.4,0.8C8.2,30.3,8.5,30.5,8.8,30.5z M16.5,27.4h14.9v-2.6H16.5
	V27.4z M10.4,21.3H13v-2.6h-2.6C10.4,18.7,10.4,21.3,10.4,21.3z M16.5,21.3h2.6v-2.6h-2.6V21.3z M22.7,21.3h2.6v-2.6h-2.6V21.3z
	 M28.9,21.3h2.6v-2.6h-2.6V21.3z M35,21.3h2.6v-2.6H35V21.3z M10.4,15.2H13v-2.6h-2.6V15.2z M16.5,15.2h2.6v-2.6h-2.6V15.2z
	 M22.7,15.2h2.6v-2.6h-2.6V15.2z M28.9,15.2h2.6v-2.6h-2.6V15.2z M35,15.2h2.6v-2.6H35V15.2z M7.5,30.5v-21V30.5z"/>
</svg>
