<?xml version="1.0" encoding="utf-8"?>
<!-- Generator: Adobe Illustrator 26.3.1, SVG Export Plug-In . SVG Version: 6.00 Build 0)  -->
<svg version="1.1" id="Слой_1" xmlns="http://www.w3.org/2000/svg" xmlns:xlink="http://www.w3.org/1999/xlink" x="0px" y="0px"
	 viewBox="0 0 48 48" style="enable-background:new 0 0 48 48;" xml:space="preserve">
<path d="M12.8,41c-1.6,0-2.9-0.6-4.1-1.7C7.6,38.2,7,36.8,7,35.2s0.6-2.9,1.7-4.1c1.1-1.1,2.5-1.7,4.1-1.7H17V18.5h-4.2
	c-1.6,0-2.9-0.6-4.1-1.7c-1.1-1.1-1.7-2.4-1.7-4s0.6-2.9,1.7-4.1S11.2,7,12.8,7s2.9,0.6,4.1,1.7c1.1,1.1,1.7,2.5,1.7,4.1V17h10.9
	v-4.2c0-1.6,0.6-2.9,1.7-4.1c1.1-1.1,2.4-1.7,4-1.7c1.6,0,2.9,0.6,4.1,1.7c1.1,1.1,1.7,2.5,1.7,4.1s-0.6,2.9-1.7,4.1
	c-1.1,1.1-2.5,1.7-4.1,1.7H31v10.9h4.2c1.6,0,2.9,0.6,4.1,1.7c1.1,1.1,1.7,2.5,1.7,4.1s-0.6,2.9-1.7,4.1S36.8,41,35.2,41
	s-2.9-0.6-4.1-1.7c-1.1-1.1-1.7-2.5-1.7-4.1V31H18.5v4.2c0,1.6-0.6,2.9-1.7,4.1C15.7,40.4,14.4,41,12.8,41z M12.8,39.5
	c1.2,0,2.2-0.4,3-1.2s1.2-1.8,1.2-3V31h-4.2c-1.2,0-2.2,0.4-3,1.2C9,33,8.6,34,8.6,35.2s0.4,2.2,1.2,3S11.6,39.5,12.8,39.5z
	 M35.2,39.5c1.2,0,2.2-0.4,3-1.2s1.2-1.8,1.2-3s-0.4-2.2-1.2-3s-1.8-1.2-3-1.2H31v4.2c0,1.2,0.4,2.2,1.2,3
	C33.1,39.1,34,39.5,35.2,39.5z M18.5,29.5h10.9v-11H18.5V29.5z M12.8,17H17v-4.2c0-1.2-0.4-2.2-1.2-3s-1.8-1.2-3-1.2s-2.2,0.4-3,1.2
	s-1.2,1.8-1.2,3s0.4,2.2,1.2,3S11.6,17,12.8,17z M31,17h4.2c1.2,0,2.2-0.4,3-1.2s1.2-1.8,1.2-3s-0.4-2.2-1.2-3s-1.8-1.2-3-1.2
	S33,9,32.2,9.8s-1.2,1.8-1.2,3V17z"/>
</svg>
