<?xml version="1.0" encoding="utf-8"?>
<!-- Generator: Adobe Illustrator 26.3.1, SVG Export Plug-In . SVG Version: 6.00 Build 0)  -->
<svg version="1.1" id="Слой_1" xmlns="http://www.w3.org/2000/svg" xmlns:xlink="http://www.w3.org/1999/xlink" x="0px" y="0px"
	 viewBox="0 0 48 48" style="enable-background:new 0 0 48 48;" xml:space="preserve">
<path d="M6.8,40c-0.8,0-1.4-0.3-2-0.8C4.3,38.7,4,38,4,37.2V12.8c0-0.8,0.3-1.4,0.8-2C5.3,10.3,6,10,6.8,10h34.5
	c0.8,0,1.4,0.3,2,0.8c0.5,0.5,0.8,1.2,0.8,2v24.5c0,0.8-0.3,1.4-0.8,2c-0.5,0.5-1.2,0.8-2,0.8L6.8,40L6.8,40z M6.8,38.5h34.5
	c0.3,0,0.6-0.1,0.8-0.4c0.3-0.3,0.4-0.5,0.4-0.8V12.8c0-0.3-0.1-0.6-0.4-0.8c-0.3-0.3-0.5-0.4-0.8-0.4H6.8c-0.3,0-0.6,0.1-0.8,0.4
	c-0.3,0.3-0.4,0.5-0.4,0.8v24.5c0,0.3,0.1,0.6,0.4,0.8S6.5,38.5,6.8,38.5z M15.8,34.2h16.5v-2.1H15.8V34.2z M10.1,27.4h3.2v-3.2
	h-3.2C10.1,24.2,10.1,27.4,10.1,27.4z M18.3,27.4h3.2v-3.2h-3.2V27.4z M26.5,27.4h3.2v-3.2h-3.2V27.4z M34.7,27.4h3.2v-3.2h-3.2
	V27.4z M10.1,19.2h3.2V16h-3.2V19.2z M18.3,19.2h3.2V16h-3.2V19.2z M26.5,19.2h3.2V16h-3.2V19.2z M34.7,19.2h3.2V16h-3.2V19.2z
	 M5.5,38.5v-27V38.5z"/>
</svg>
