<?xml version="1.0" encoding="utf-8"?>
<!-- Generator: Adobe Illustrator 26.3.1, SVG Export Plug-In . SVG Version: 6.00 Build 0)  -->
<svg version="1.1" id="Слой_1" xmlns="http://www.w3.org/2000/svg" xmlns:xlink="http://www.w3.org/1999/xlink" x="0px" y="0px"
	 viewBox="0 0 48 48" style="enable-background:new 0 0 48 48;" xml:space="preserve">
<path d="M7.5,34.5v-21V34.5z M10.5,25.3h2.6v-2.6h-2.6V25.3z M16.6,25.3h2.6v-2.6h-2.6V25.3z M22.7,25.3h2.6v-2.6h-2.6V25.3z
	 M28.8,25.3h2.6v-2.6h-2.6V25.3z M10.5,19.2h2.6v-2.6h-2.6V19.2z M16.6,19.2h2.6v-2.6h-2.6V19.2z M22.7,19.2h2.6v-2.6h-2.6V19.2z
	 M28.8,19.2h2.6v-2.6h-2.6V19.2z M34.9,19.2h2.6v-2.6h-2.6V19.2z M34.9,24.3c0.5-0.1,0.9-0.1,1.3-0.1c0.4,0,0.9,0,1.3,0.1v-1.6h-2.6
	C34.9,22.7,34.9,24.3,34.9,24.3z M16,31.4h11.2c0.1-0.5,0.3-0.9,0.5-1.3s0.4-0.9,0.6-1.3H16V31.4z M8.8,36c-0.8,0-1.4-0.3-2-0.8
	C6.3,34.7,6,34,6,33.2V14.8c0-0.8,0.3-1.4,0.8-2C7.3,12.3,8,12,8.8,12h30.5c0.8,0,1.4,0.3,2,0.8c0.5,0.5,0.8,1.2,0.8,2v11.3
	c-0.2-0.2-0.5-0.4-0.7-0.6c-0.3-0.1-0.5-0.3-0.8-0.5V14.8c0-0.3-0.1-0.6-0.4-0.8c-0.3-0.3-0.5-0.4-0.8-0.4H8.8
	c-0.3,0-0.6,0.1-0.8,0.4c-0.3,0.3-0.4,0.5-0.4,0.8v18.5c0,0.3,0.1,0.6,0.4,0.8c0.3,0.3,0.5,0.4,0.8,0.4H27V36H8.8z M32.8,42
	c-0.5,0-0.9-0.2-1.3-0.6c-0.4-0.4-0.6-0.9-0.6-1.3v-5.4c0-0.5,0.2-0.9,0.6-1.3c0.4-0.4,0.9-0.6,1.3-0.6h0.1v-2c0-1,0.3-1.9,1-2.6
	s1.5-1.1,2.5-1.1s1.9,0.4,2.5,1.1c0.7,0.7,1,1.6,1,2.6v2H40c0.4,0,0.9,0.2,1.3,0.6c0.4,0.4,0.6,0.8,0.6,1.3v5.4
	c0,0.4-0.2,0.9-0.6,1.3C41,41.8,40.5,42,40.1,42H32.8z M34.4,32.8h4.1v-2c0-0.6-0.2-1.1-0.6-1.5c-0.4-0.4-0.9-0.6-1.5-0.6
	s-1.1,0.2-1.4,0.6c-0.4,0.4-0.6,0.9-0.6,1.5V32.8z"/>
</svg>
