<?xml version="1.0" encoding="utf-8"?>
<!-- Generator: Adobe Illustrator 26.3.1, SVG Export Plug-In . SVG Version: 6.00 Build 0)  -->
<svg version="1.1" id="Слой_1" xmlns="http://www.w3.org/2000/svg" xmlns:xlink="http://www.w3.org/1999/xlink" x="0px" y="0px"
	 viewBox="0 0 48 48" style="enable-background:new 0 0 48 48;" xml:space="preserve">
<path d="M16.3,14.3l5.3-7.1c0.3-0.4,0.7-0.7,1.1-0.9C23.1,6.1,23.5,6,24,6s0.9,0.1,1.3,0.3c0.4,0.2,0.8,0.5,1.1,0.9l5.3,7.1l8.2,2.8
	c0.7,0.2,1.2,0.6,1.5,1.1c0.4,0.5,0.5,1.1,0.5,1.8c0,0.3,0,0.6-0.1,0.9s-0.2,0.6-0.4,0.8L36.1,29l0.2,7.9c0,0.9-0.3,1.6-0.9,2.2
	c-0.6,0.6-1.3,0.9-2.2,0.9c0,0-0.3,0-0.9-0.1L24,37.4l-8.4,2.5C15.4,40,15.3,40,15.1,40c-0.1,0-0.3,0-0.4,0c-0.9,0-1.6-0.3-2.2-0.9
	c-0.6-0.6-0.9-1.4-0.8-2.3l0.2-7.9l-5.4-7.3c-0.2-0.3-0.3-0.6-0.4-0.9C6,20.5,6,20.2,6,19.9c0-0.6,0.2-1.2,0.6-1.8
	C7,17.6,7.5,17.2,8.2,17C8.1,17,16.3,14.3,16.3,14.3z M17.3,15.6l-9,3c-0.4,0.1-0.6,0.4-0.8,0.8c-0.1,0.4-0.1,0.8,0.2,1.1l5.8,8
	l-0.2,8.7c0,0.4,0.1,0.8,0.5,1c0.3,0.2,0.7,0.3,1.1,0.2l9.2-2.7l9.2,2.7c0.4,0.1,0.8,0,1.1-0.2s0.5-0.6,0.5-1l-0.2-8.7l5.8-7.9
	c0.3-0.3,0.3-0.7,0.2-1.1s-0.4-0.7-0.8-0.8l-9-3.1L25,7.9c-0.2-0.3-0.6-0.5-1-0.5s-0.7,0.2-1,0.5L17.3,15.6z"/>
</svg>
