<?xml version="1.0" encoding="utf-8"?>
<!-- Generator: Adobe Illustrator 26.3.1, SVG Export Plug-In . SVG Version: 6.00 Build 0)  -->
<svg version="1.1" id="Слой_1" xmlns="http://www.w3.org/2000/svg" xmlns:xlink="http://www.w3.org/1999/xlink" x="0px" y="0px"
	 viewBox="0 0 48 48" style="enable-background:new 0 0 48 48;" xml:space="preserve">
<path d="M16.1,15.8v-5.2h1.5v5.2H16.1z M16.1,32v-8.6h1.5V32H16.1z M12.8,42c-0.7,0-1.4-0.3-1.9-0.8c-0.6-0.6-0.9-1.2-0.9-2V8.8
	c0-0.7,0.3-1.4,0.8-1.9C11.4,6.3,12,6,12.8,6h22.5c0.7,0,1.4,0.3,1.9,0.8C37.7,7.4,38,8,38,8.8v30.5c0,0.7-0.3,1.4-0.8,1.9
	c-0.6,0.5-1.2,0.8-2,0.8H12.8z M12.8,40.5h22.5c0.4,0,0.7-0.1,0.9-0.3s0.3-0.5,0.3-0.9V20.4h-25v18.9c0,0.4,0.1,0.7,0.3,0.9
	C12.1,40.3,12.4,40.5,12.8,40.5z M11.5,18.8h24.9v-10c0-0.4-0.1-0.7-0.3-0.9c-0.2-0.2-0.5-0.3-0.9-0.3H12.8c-0.4,0-0.7,0.1-0.9,0.3
	s-0.3,0.5-0.3,0.9v10H11.5z"/>
</svg>
