<?xml version="1.0" encoding="utf-8"?>
<!-- Generator: Adobe Illustrator 26.3.1, SVG Export Plug-In . SVG Version: 6.00 Build 0)  -->
<svg version="1.1" id="Слой_1" xmlns="http://www.w3.org/2000/svg" xmlns:xlink="http://www.w3.org/1999/xlink" x="0px" y="0px"
	 viewBox="0 0 48 48" style="enable-background:new 0 0 48 48;" xml:space="preserve">
<path d="M5,45v-1.5h1c1.1,0,2.1-0.2,3.1-0.5c1-0.4,2-0.9,2.9-1.6c0.9,0.7,1.9,1.2,3,1.5c1.1,0.4,2.2,0.6,3.2,0.6s1.9-0.2,2.9-0.5
	s1.9-0.9,2.9-1.6c0.9,0.7,1.9,1.2,2.9,1.6c1,0.4,2,0.5,3.1,0.5c1,0,2.1-0.2,3.1-0.5s2-0.9,2.9-1.6c1,0.7,1.9,1.3,2.9,1.6
	s2,0.5,3.1,0.5h1V45h-1c-1.1,0-2.1-0.2-3.1-0.5s-2-0.8-2.9-1.4c-0.9,0.6-1.9,1.1-2.9,1.4c-1,0.3-2,0.5-3.1,0.5s-2.1-0.2-3.1-0.5
	s-2-0.8-2.9-1.4c-0.9,0.6-1.9,1-2.9,1.4c-1,0.3-2,0.5-3,0.5c-1.1,0-2.1-0.2-3.2-0.5s-2-0.8-2.9-1.4c-0.9,0.6-1.9,1.1-2.9,1.4
	S7.1,45,6,45H5z M18,38.3c-0.8,0-1.6-0.1-2.4-0.3c-0.8-0.2-1.5-0.5-2.1-0.9c0.4-0.3,1.1-0.8,1.9-1.4c0.9-0.7,1.6-1.2,2.1-1.5l-3.5-7
	c-0.3-0.5-0.5-1-0.6-1.5s-0.2-1.1-0.2-1.6v-8c0-0.8,0.3-1.4,0.8-2c0.5-0.5,1.2-0.8,2-0.8h6c1.3,0,2.6-0.2,3.8-0.6
	c1.2-0.4,2.3-1,3.3-1.8l1.1,1.2c-1.1,0.9-2.4,1.6-3.8,2.1c-1.4,0.5-2.8,0.7-4.4,0.7h-4v9.5h6.3l3.6,4c2.4-1,4.4-1.7,6.1-2.2
	s3.2-0.8,4.3-0.8c0.8,0,1.4,0.1,1.8,0.4c0.4,0.2,0.7,0.6,0.7,1.1c0,1.3-1,2.9-3.1,5c-2,2.1-4.7,4.1-8.1,6.2c-0.2,0-0.4,0.1-0.6,0.1
	s-0.4,0.1-0.5,0.1c-0.8,0-1.6-0.2-2.4-0.6c-0.8-0.4-1.5-1-2.2-1.8c-0.8,0.9-1.7,1.5-2.8,1.9C20.2,38.1,19.2,38.3,18,38.3z M19.1,33
	c0.8-0.5,2-1.2,3.5-2s2.8-1.5,3.8-2l-2.9-3.2l-7.3,0.8C16.2,26.6,19.1,33,19.1,33z M16,9.2c-0.9,0-1.7-0.3-2.3-0.9S12.8,6.9,12.8,6
	s0.3-1.7,0.9-2.3c0.6-0.6,1.4-0.9,2.3-0.9c0.9,0,1.7,0.3,2.3,0.9c0.6,0.6,0.9,1.4,0.9,2.3s-0.3,1.7-0.9,2.3
	C17.7,8.9,16.9,9.2,16,9.2z M32.7,9l-1-1l5.4-5.4H39C39.1,2.6,32.7,9,32.7,9z"/>
</svg>
