<?xml version="1.0" encoding="utf-8"?>
<!-- Generator: Adobe Illustrator 26.3.1, SVG Export Plug-In . SVG Version: 6.00 Build 0)  -->
<svg version="1.1" id="Слой_1" xmlns="http://www.w3.org/2000/svg" xmlns:xlink="http://www.w3.org/1999/xlink" x="0px" y="0px"
	 viewBox="0 0 48 48" style="enable-background:new 0 0 48 48;" xml:space="preserve">
<path d="M6.8,40c-0.7,0-1.4-0.3-1.9-0.8S4,38,4,37.2v-8.5c0-0.7,0.3-1.4,0.8-1.9S6,26,6.8,26H8v-9.2H7.6c-0.5,0-0.8-0.2-1.2-0.5
	C6.2,16,6,15.6,6,15.2v-3.5c0-0.4,0.2-0.8,0.5-1.1s0.7-0.5,1.1-0.5h10.8c0.4,0,0.8,0.2,1.1,0.5c0.3,0.3,0.5,0.7,0.5,1.1v3.5
	c0,0.5-0.2,0.9-0.5,1.2s-0.7,0.5-1.2,0.5H18V26h12v-9.2h-0.4c-0.5,0-0.8-0.2-1.2-0.5C28.2,16,28,15.6,28,15.2v-3.5
	c0-0.4,0.2-0.8,0.5-1.1s0.7-0.5,1.1-0.5h10.8c0.4,0,0.8,0.2,1.1,0.5s0.5,0.7,0.5,1.1v3.5c0,0.5-0.2,0.9-0.5,1.2s-0.7,0.5-1.2,0.5H40
	V26h1.2c0.7,0,1.4,0.3,1.9,0.8s0.8,1.2,0.8,1.9v8.5c0,0.7-0.3,1.4-0.8,1.9C42.6,39.7,42,40,41.2,40H6.8z M29.5,15.2h10.9v-3.6H29.5
	V15.2z M7.5,15.2h10.9v-3.6H7.5V15.2z M31.5,26h6.9v-9.2h-6.9C31.5,16.8,31.5,26,31.5,26z M9.5,26h6.9v-9.2H9.5V26z M6.8,38.5h34.5
	c0.4,0,0.7-0.1,0.9-0.3s0.3-0.5,0.3-0.9v-8.5c0-0.4-0.1-0.7-0.3-0.9c-0.2-0.2-0.5-0.3-0.9-0.3H6.8c-0.4,0-0.7,0.1-0.9,0.3
	c-0.2,0.2-0.3,0.5-0.3,0.9v8.5c0,0.4,0.1,0.7,0.3,0.9C6.1,38.3,6.4,38.5,6.8,38.5z M7.5,15.2v-3.6V15.2z M29.5,15.2v-3.6V15.2z
	 M5.5,38.5v-11V38.5z"/>
</svg>
