<?xml version="1.0" encoding="utf-8"?>
<!-- Generator: Adobe Illustrator 26.3.1, SVG Export Plug-In . SVG Version: 6.00 Build 0)  -->
<svg version="1.1" id="Слой_1" xmlns="http://www.w3.org/2000/svg" xmlns:xlink="http://www.w3.org/1999/xlink" x="0px" y="0px"
	 viewBox="0 0 48 48" style="enable-background:new 0 0 48 48;" xml:space="preserve">
<path d="M17,22.8v-1.5h14v1.5H17z M17,14.8v-1.5h14v1.5H17z M11.5,29.2H27c0.8,0,1.5,0.2,2.1,0.5s1.2,0.8,1.7,1.4l5.6,7.3V8.8
	c0-0.4-0.1-0.7-0.3-0.9c-0.2-0.2-0.5-0.3-0.9-0.3H12.8c-0.4,0-0.7,0.1-0.9,0.3s-0.3,0.5-0.3,0.9v20.4H11.5z M12.8,40.5H36l-6.4-8.4
	c-0.3-0.4-0.7-0.7-1.1-1c-0.5-0.2-0.9-0.4-1.5-0.4H11.5v8.5c0,0.4,0.1,0.7,0.3,0.9C12.1,40.3,12.4,40.5,12.8,40.5z M35.2,42H12.8
	c-0.8,0-1.4-0.3-2-0.8c-0.5-0.5-0.8-1.2-0.8-2V8.8c0-0.8,0.3-1.4,0.8-2C11.3,6.3,12,6,12.8,6h22.5c0.8,0,1.4,0.3,2,0.8
	C37.7,7.3,38,8,38,8.8v30.5c0,0.8-0.3,1.4-0.8,2C36.7,41.7,36,42,35.2,42z M11.5,40.5v-33V40.5z M11.5,30.8v-1.5V30.8z"/>
</svg>
