<?xml version="1.0" encoding="utf-8"?>
<!-- Generator: Adobe Illustrator 26.3.1, SVG Export Plug-In . SVG Version: 6.00 Build 0)  -->
<svg version="1.1" id="Слой_1" xmlns="http://www.w3.org/2000/svg" xmlns:xlink="http://www.w3.org/1999/xlink" x="0px" y="0px"
	 viewBox="0 0 48 48" style="enable-background:new 0 0 48 48;" xml:space="preserve">
<path d="M17,31.5V30h3.9c-0.1,0.2-0.2,0.5-0.2,0.7c-0.1,0.3-0.1,0.5-0.1,0.8H17z M16.7,42c-2.4,0-4.5-0.8-6.2-2.5
	c-1.7-1.6-2.5-3.7-2.5-6V15.3c-0.9,0-1.7-0.3-2.3-0.9c-0.6-0.6-1-1.4-1-2.3V9.3c0-0.9,0.3-1.7,1-2.3C6.3,6.3,7.1,6,8,6h17.3
	c0.9,0,1.7,0.3,2.4,1c0.7,0.6,1,1.4,1,2.3V12c0,0.9-0.3,1.7-1,2.3s-1.4,0.9-2.4,0.9v8.2c-0.1,0.1-0.2,0.1-0.3,0.2
	c-0.1,0.1-0.2,0.1-0.3,0.1H17v-1.5h6.8v-7H9.5v18.2c0,2,0.7,3.6,2.1,5c1.4,1.3,3.1,2,5,2c1,0,1.9-0.2,2.7-0.5
	c0.8-0.4,1.6-0.9,2.2-1.5c0.1,0.3,0.2,0.5,0.4,0.7c0.1,0.2,0.3,0.5,0.4,0.7c-0.8,0.7-1.6,1.2-2.6,1.6C18.8,41.8,17.8,42,16.7,42z
	 M7.5,13.8h18.3c0.4,0,0.7-0.1,0.9-0.4c0.3-0.2,0.4-0.5,0.4-0.9V8.8c0-0.4-0.1-0.7-0.4-0.9s-0.6-0.4-0.9-0.4H7.5
	c-0.4,0-0.7,0.1-0.9,0.4C6.4,8.2,6.2,8.5,6.2,8.8v3.7c0,0.4,0.1,0.7,0.4,0.9C6.9,13.6,7.2,13.8,7.5,13.8z M32.6,39.1
	c1.6,0,3-0.6,4.2-1.7c1.1-1.1,1.7-2.5,1.7-4.2c0-1.6-0.6-3-1.7-4.2c-1.1-1.1-2.5-1.7-4.2-1.7c-1.6,0-3,0.6-4.2,1.7
	c-1.1,1.1-1.7,2.5-1.7,4.1s0.6,3,1.7,4.2C29.5,38.5,30.9,39.1,32.6,39.1z M42.8,44.5L37.2,39c-0.7,0.5-1.4,0.9-2.2,1.2
	s-1.6,0.4-2.5,0.4c-2.1,0-3.8-0.7-5.2-2.2c-1.4-1.4-2.2-3.2-2.2-5.2c0-2.1,0.7-3.8,2.2-5.2c1.4-1.4,3.2-2.1,5.2-2.1
	c2.1,0,3.8,0.7,5.2,2.2c1.4,1.4,2.1,3.2,2.1,5.2c0,0.9-0.1,1.7-0.4,2.5s-0.7,1.5-1.2,2.2l5.5,5.5C43.8,43.4,42.8,44.5,42.8,44.5z
	 M6.2,13.8V7.5V13.8z"/>
</svg>
