<?xml version="1.0" encoding="utf-8"?>
<!-- Generator: Adobe Illustrator 26.3.1, SVG Export Plug-In . SVG Version: 6.00 Build 0)  -->
<svg version="1.1" id="Слой_1" xmlns="http://www.w3.org/2000/svg" xmlns:xlink="http://www.w3.org/1999/xlink" x="0px" y="0px"
	 viewBox="0 0 48 48" style="enable-background:new 0 0 48 48;" xml:space="preserve">
<path d="M34,32.4l-1.1-1.1l5.2-7.3l-6.7-9.5c-0.2-0.4-0.5-0.6-0.8-0.8s-0.7-0.2-1.1-0.2H15.1L13.6,12h15.6c0.8,0,1.5,0.2,2.1,0.6
	c0.6,0.4,1.2,0.9,1.6,1.5l7,9.9L34,32.4z M37.3,42.9l-7.2-7.2c-0.1,0.1-0.3,0.2-0.6,0.2C29.3,36,29,36,28.7,36H10.8
	c-0.8,0-1.4-0.3-2-0.8C8.3,34.7,8,34,8,33.2v-18c0-0.2,0-0.5,0.1-0.7s0.1-0.4,0.2-0.7l-4-3.9l1.1-1.1l33,32.9
	C38.4,41.8,37.3,42.9,37.3,42.9z M28.9,34.5L9.5,15.1v18.1c0,0.3,0.1,0.6,0.4,0.8c0.3,0.3,0.5,0.4,0.8,0.4
	C10.8,34.5,28.9,34.5,28.9,34.5z"/>
</svg>
