<?xml version="1.0" encoding="utf-8"?>
<!-- Generator: Adobe Illustrator 26.3.1, SVG Export Plug-In . SVG Version: 6.00 Build 0)  -->
<svg version="1.1" id="Слой_1" xmlns="http://www.w3.org/2000/svg" xmlns:xlink="http://www.w3.org/1999/xlink" x="0px" y="0px"
	 viewBox="0 0 48 48" style="enable-background:new 0 0 48 48;" xml:space="preserve">
<path d="M6,42h34l-9.5-12.5l-9.9-4.2L15,18H6V42z M7.5,40.5v-5.1l4.5,1.4l17.7-5.9l7.3,9.5C36.9,40.5,7.5,40.5,7.5,40.5z M12,35.2
	l-4.5-1.5v-6l4.5,1.4l7.8-2.6l7.7,3.4L12,35.2z M35.8,26.5l6.7-3v-5.1L36,16.9l-3.5,2.8v4.1L35.8,26.5z M12,27.6l-4.5-1.5v-6.6h6.7
	l4.5,5.8C18.8,25.4,12,27.6,12,27.6z M36,24.9l-2.2-1.7v-2.8l2.5-2l4.8,1.1v3.2C41.2,22.6,36,24.9,36,24.9z M24.2,15.3l7.8-3.1v-7
	l-7.6-1.5l-4.4,3v5.8C20,12.5,24.2,15.3,24.2,15.3z M24.4,13.8l-3.1-2.1V7.3L24.7,5l6,1.2v5.1C30.7,11.3,24.4,13.8,24.4,13.8z"/>
</svg>
