<?xml version="1.0" encoding="utf-8"?>
<!-- Generator: Adobe Illustrator 26.3.1, SVG Export Plug-In . SVG Version: 6.00 Build 0)  -->
<svg version="1.1" id="Слой_1" xmlns="http://www.w3.org/2000/svg" xmlns:xlink="http://www.w3.org/1999/xlink" x="0px" y="0px"
	 viewBox="0 0 48 48" style="enable-background:new 0 0 48 48;" xml:space="preserve">
<path d="M4.3,38l5.9-11.3c0.2-0.4,0.6-0.8,1-1.1c0.4-0.3,0.9-0.4,1.4-0.4c0.6,0,1.1,0.2,1.5,0.5c0.5,0.3,0.8,0.7,1,1.2l1.3,3
	c0.3,0.6,0.9,0.9,1.7,0.9c0.8-0.1,1.3-0.4,1.5-1L24,16.1c0.4-1.3,1.2-2.3,2.3-3c1.1-0.8,2.3-1.1,3.7-1.1c1.3,0,2.5,0.4,3.6,1.1
	c1.1,0.7,1.9,1.7,2.3,3l8,22h-1.6l-7.8-21.5c-0.3-0.9-0.9-1.7-1.7-2.2s-1.7-0.8-2.7-0.8s-1.9,0.3-2.7,0.8c-0.8,0.5-1.4,1.3-1.7,2.2
	l-4.3,13.6c-0.2,0.7-0.6,1.2-1.2,1.6c-0.6,0.4-1.2,0.6-2,0.6c-0.6,0-1.2-0.2-1.8-0.5c-0.5-0.3-0.9-0.8-1.2-1.4l-1.4-3.3
	c-0.2-0.4-0.6-0.6-1.1-0.6s-0.9,0.2-1.1,0.6L5.9,38H4.3z M12.8,19.5c-1.3,0-2.4-0.5-3.4-1.4c-0.9-0.9-1.4-2-1.4-3.4
	c0-1.3,0.5-2.4,1.4-3.4c0.9-0.9,2.1-1.4,3.4-1.4s2.4,0.5,3.3,1.4s1.4,2.1,1.4,3.4s-0.5,2.5-1.4,3.4C15.2,19.1,14.1,19.5,12.8,19.5z
	 M12.8,18c0.9,0,1.7-0.3,2.3-0.9s0.9-1.4,0.9-2.3c0-0.9-0.3-1.7-0.9-2.3c-0.6-0.6-1.4-0.9-2.3-0.9c-0.9,0-1.7,0.3-2.3,0.9
	c-0.6,0.6-0.9,1.4-0.9,2.3c0,0.9,0.3,1.7,0.9,2.3C11.1,17.7,11.9,18,12.8,18z"/>
</svg>
