<?xml version="1.0" encoding="utf-8"?>
<!-- Generator: Adobe Illustrator 26.3.1, SVG Export Plug-In . SVG Version: 6.00 Build 0)  -->
<svg version="1.1" id="Слой_1" xmlns="http://www.w3.org/2000/svg" xmlns:xlink="http://www.w3.org/1999/xlink" x="0px" y="0px"
	 viewBox="0 0 48 48" style="enable-background:new 0 0 48 48;" xml:space="preserve">
<path d="M41.6,43.8L4.2,6.4l1.1-1.1l37.4,37.4L41.6,43.8z M12,19.5c-1.3,0-2.5-0.5-3.4-1.4S7.2,16,7.2,14.7c0-1,0.3-2,0.9-2.7
	c0.6-0.8,1.3-1.4,2.2-1.7l6.1,6.2c-0.3,0.9-0.9,1.6-1.7,2.2C13.9,19.2,13,19.5,12,19.5z M44.2,39.3l-2.6-2.6l-7.4-20.2
	c-0.3-0.9-0.9-1.7-1.7-2.2s-1.7-0.8-2.7-0.8s-1.9,0.3-2.7,0.8c-0.8,0.5-1.4,1.3-1.7,2.2l-0.9,3.1l-1.3-1.3l0.7-2.2
	c0.4-1.3,1.2-2.3,2.3-3c1.1-0.8,2.3-1.1,3.7-1.1c1.3,0,2.5,0.4,3.6,1.1c1.1,0.7,1.9,1.7,2.3,3C35.8,16,44.2,39.3,44.2,39.3z M4.3,38
	l5.9-11.3c0.2-0.4,0.6-0.8,1-1.1c0.4-0.3,0.9-0.4,1.4-0.4c0.6,0,1.1,0.2,1.5,0.5c0.5,0.3,0.8,0.7,1,1.2l1.3,3
	c0.3,0.6,0.9,0.9,1.7,0.9c0.8-0.1,1.3-0.4,1.5-1l2.4-7.6l1.2,1.2l-2.1,6.8c-0.2,0.7-0.6,1.2-1.2,1.6s-1.2,0.6-2,0.6
	c-0.6,0-1.2-0.2-1.8-0.5c-0.5-0.3-0.9-0.8-1.2-1.4l-1.4-3.3c-0.2-0.4-0.6-0.6-1.1-0.6s-0.9,0.2-1.1,0.6L5.9,38H4.3z"/>
</svg>
