<?xml version="1.0" encoding="utf-8"?>
<!-- Generator: Adobe Illustrator 26.3.1, SVG Export Plug-In . SVG Version: 6.00 Build 0)  -->
<svg version="1.1" id="Слой_1" xmlns="http://www.w3.org/2000/svg" xmlns:xlink="http://www.w3.org/1999/xlink" x="0px" y="0px"
	 viewBox="0 0 48 48" style="enable-background:new 0 0 48 48;" xml:space="preserve">
<path d="M4.7,34.8l-0.8-1.4c0.7-0.4,1.3-0.8,1.9-1.3s1.2-1,1.7-1.5v-6.4H4.1V23h4.8v7.5c0.8,0.9,1.7,1.6,2.8,2.1s2.2,0.7,3.4,0.7
	c1.8,0,3.6,0,5.3,0s3.5-0.1,5.3-0.2c-0.1,0.2-0.2,0.5-0.2,0.8s-0.1,0.5-0.2,0.8c-1.7,0.1-3.4,0.1-5.1,0c-1.7,0-3.4,0-5.1,0
	c-1.3,0-2.5-0.2-3.7-0.7s-2.2-1.2-3.1-2.1c-0.6,0.6-1.1,1.1-1.7,1.6C5.9,33.8,5.3,34.3,4.7,34.8z M17.1,32.1l-0.3-5.5
	c-0.8,1-1.7,1.9-2.5,2.6c-0.9,0.7-1.8,1.4-2.9,2.1c-0.1-0.2-0.3-0.3-0.4-0.5c-0.1-0.2-0.3-0.4-0.5-0.5c1.2-0.5,2.2-1.1,3.1-1.9
	c0.9-0.7,1.7-1.6,2.6-2.7h-4.6V20H17v-2.3h-6.4v-1.3H17V14h1.4v2.4H25v1.3h-6.8V20h5.6v5.7h-5c0.9,1,1.9,1.9,3,2.6s2.3,1.4,3.5,1.9
	c-0.2,0.1-0.4,0.3-0.6,0.5s-0.3,0.4-0.4,0.6c-1.1-0.5-2.2-1.1-3.2-1.9s-2-1.6-2.8-2.5l0.3,5.3C18.5,32.1,17.1,32.1,17.1,32.1z
	 M16.8,21.3h-4v3.1h4V21.3z M22.5,21.3h-4.3v3.1h4.3V21.3z M8.4,18.3c-0.5-0.7-1.1-1.3-1.7-1.9s-1.3-1.1-2.1-1.6l1-0.9
	c0.7,0.5,1.4,1.1,2,1.7s1.2,1.2,1.9,1.8C9.4,17.4,8.4,18.3,8.4,18.3z M40.7,29.9v-7c-1,0.2-1.9,0.4-2.7,0.6s-1.6,0.4-2.4,0.7
	c-1.8,0.6-3.2,1.4-4,2.3c-0.9,0.9-1.3,1.9-1.3,3.1c0,1.1,0.4,2.1,1.1,2.8c0.7,0.7,1.6,1,2.8,1c1.1,0,2.3-0.3,3.4-0.9
	C38.6,31.8,39.7,30.9,40.7,29.9z M40.9,34.2l-0.2-2.7c-1.1,1-2.2,1.8-3.4,2.3s-2.3,0.8-3.4,0.8c-1.6,0-2.9-0.5-3.9-1.4
	c-1-1-1.5-2.2-1.5-3.8c0-1.5,0.5-2.8,1.6-3.8c1.1-1.1,2.7-2,4.9-2.7c0.6-0.2,1.3-0.4,2.2-0.6s2-0.4,3.3-0.7v-0.5c0-2-0.3-3.5-1-4.6
	c-0.7-1-1.8-1.5-3.5-1.5c-0.9,0-1.8,0.2-2.7,0.5s-1.9,0.8-2.8,1.5l-0.7-1.2c1.1-0.7,2.1-1.2,3.2-1.6c1.1-0.4,2.1-0.5,3.2-0.5
	c2.1,0,3.6,0.7,4.6,2s1.4,3.1,1.4,5.5v13.2C42.2,34.2,40.9,34.2,40.9,34.2z"/>
</svg>
