<?xml version="1.0" encoding="utf-8"?>
<!-- Generator: Adobe Illustrator 26.3.1, SVG Export Plug-In . SVG Version: 6.00 Build 0)  -->
<svg version="1.1" id="Слой_1" xmlns="http://www.w3.org/2000/svg" xmlns:xlink="http://www.w3.org/1999/xlink" x="0px" y="0px"
	 viewBox="0 0 48 48" style="enable-background:new 0 0 48 48;" xml:space="preserve">
<path d="M5.6,35c-0.2-0.2-0.3-0.4-0.5-0.5s-0.4-0.3-0.6-0.4c1.2-1.2,2.2-2.6,2.7-4c0.6-1.5,0.9-3.1,0.9-4.8v-4.8h14.5v6.8H9.3
	c-0.2,1.5-0.5,2.9-1.1,4.2C7.7,32.8,6.8,34,5.6,35z M9.5,26h11.7v-4.2H9.5V26z M5,21.9c-0.1-0.2-0.2-0.4-0.3-0.6
	c-0.1-0.2-0.2-0.4-0.4-0.5c1.9-0.9,3.8-2,5.5-3.2s3.2-2.7,4.6-4.3h1.7c1.4,1.6,3.1,3,4.9,4.1s3.7,2.1,5.6,3.1
	c-0.2,0.2-0.3,0.5-0.5,0.7s-0.3,0.5-0.4,0.7c-1.9-1-3.8-2.1-5.6-3.2c-1.8-1.1-3.5-2.5-4.9-4.2c-1.3,1.7-2.9,3.1-4.6,4.4
	C8.8,20,7,21.1,5,21.9z M9.7,34.3v-5.6H23v5.6h-1.5V30H11.2v4.3H9.7z M11,19.2V18h9.2v1.3L11,19.2L11,19.2z M9.2,24.5v-1.3h12.6v1.3
	H9.2z M10.3,33.6v-1.3h11.6v1.3C21.8,33.6,10.3,33.6,10.3,33.6z M34,33.2c1.1,0,2.3-0.3,3.4-0.9c1.1-0.6,2.2-1.4,3.3-2.5v-7.1
	c-1,0.2-1.9,0.4-2.7,0.6s-1.6,0.4-2.4,0.7c-1.8,0.6-3.2,1.4-4,2.3c-0.9,0.9-1.3,1.9-1.3,3.1c0,1.1,0.4,2.1,1.1,2.8
	C31.9,32.9,32.9,33.2,34,33.2z M34,34.6c-1.6,0-2.9-0.5-3.9-1.4c-1-1-1.5-2.2-1.5-3.8c0-1.5,0.5-2.8,1.6-3.8c1.1-1.1,2.7-2,4.9-2.7
	c0.6-0.2,1.3-0.4,2.2-0.6s2-0.4,3.3-0.7v-0.5c0-2-0.3-3.5-1-4.6c-0.7-1-1.8-1.5-3.5-1.5c-0.9,0-1.8,0.2-2.7,0.5s-1.9,0.8-2.8,1.5
	l-0.7-1.2c1.1-0.7,2.1-1.2,3.2-1.6c1.1-0.4,2.1-0.5,3.2-0.5c2.1,0,3.6,0.7,4.6,2s1.4,3.1,1.4,5.5v13.2H41l-0.2-2.7
	c-1.1,1-2.2,1.8-3.4,2.3C36.2,34.4,35,34.6,34,34.6z"/>
</svg>
