<?xml version="1.0" encoding="utf-8"?>
<!-- Generator: Adobe Illustrator 26.3.1, SVG Export Plug-In . SVG Version: 6.00 Build 0)  -->
<svg version="1.1" id="Слой_1" xmlns="http://www.w3.org/2000/svg" xmlns:xlink="http://www.w3.org/1999/xlink" x="0px" y="0px"
	 viewBox="0 0 48 48" style="enable-background:new 0 0 48 48;" xml:space="preserve">
<path d="M34,33.2c1.1,0,2.3-0.3,3.4-0.9c1.1-0.6,2.2-1.4,3.3-2.5v-7c-1,0.2-1.9,0.4-2.7,0.6s-1.6,0.4-2.4,0.7
	c-1.8,0.6-3.2,1.4-4,2.3c-0.9,0.9-1.3,1.9-1.3,3.1c0,1.1,0.4,2.1,1.1,2.8C31.9,32.9,32.9,33.2,34,33.2z M34,34.6
	c-1.6,0-2.9-0.5-3.9-1.4c-1-1-1.5-2.2-1.5-3.8c0-1.5,0.5-2.8,1.6-3.8c1.1-1.1,2.7-2,4.9-2.7c0.6-0.2,1.3-0.4,2.2-0.6s2-0.4,3.3-0.7
	v-0.5c0-2-0.3-3.5-1-4.6c-0.7-1-1.8-1.5-3.5-1.5c-0.9,0-1.8,0.2-2.7,0.5s-1.9,0.8-2.8,1.5l-0.7-1.2c1.1-0.7,2.1-1.2,3.2-1.6
	c1.1-0.4,2.1-0.5,3.2-0.5c2.1,0,3.6,0.7,4.6,2s1.4,3.1,1.4,5.5v13.2H41l-0.2-2.7c-1.1,1-2.2,1.8-3.4,2.3C36.2,34.4,35,34.6,34,34.6z
	 M11.6,33h9.1v-8.9h-7.3c-0.3,1.5-0.6,3-0.9,4.5S12,31.5,11.6,33z M4,34.4V33h5.9c0.4-1.5,0.7-3,1-4.5s0.6-2.9,0.9-4.4H6.7v-1.4h5.4
	c0.2-1.1,0.4-2.1,0.6-3.1c0.2-1,0.4-2.1,0.6-3.3H5.7v-1.4h18.8v1.4h-9.7c-0.2,1.1-0.4,2.1-0.6,3.2c-0.2,1.1-0.4,2.1-0.6,3.2H22V33
	h4.4v1.4C26.5,34.4,4,34.4,4,34.4z"/>
</svg>
