<?xml version="1.0" encoding="utf-8"?>
<!-- Generator: Adobe Illustrator 26.3.1, SVG Export Plug-In . SVG Version: 6.00 Build 0)  -->
<svg version="1.1" id="Слой_1" xmlns="http://www.w3.org/2000/svg" xmlns:xlink="http://www.w3.org/1999/xlink" x="0px" y="0px"
	 viewBox="0 0 48 48" style="enable-background:new 0 0 48 48;" xml:space="preserve">
<path d="M9,34.3V23.7c-0.4,0.5-0.9,0.9-1.3,1.3c-0.5,0.4-0.9,0.9-1.4,1.3c-0.2-0.2-0.3-0.4-0.5-0.6s-0.3-0.4-0.5-0.6
	c1.2-1,2.3-2.1,3.3-3.2s2-2.4,3-3.7l1.3,0.5c-0.4,0.6-0.8,1.1-1.2,1.7s-0.9,1.1-1.3,1.7v12.2H9z M19.7,34.3c-0.4,0-0.7,0-1,0
	s-0.6,0-0.9,0c-0.1-0.2-0.1-0.4-0.2-0.7c-0.1-0.2-0.1-0.4-0.2-0.7h3.2c0.3,0,0.5-0.1,0.6-0.2c0.2-0.1,0.2-0.3,0.2-0.6v-9.7h-7.8
	v-1.2h12.8v1.3h-3.6v9.8c0,0.2,0,0.5,0,0.8s-0.2,0.6-0.4,0.8c-0.4,0.3-0.8,0.5-1.4,0.5S20.1,34.3,19.7,34.3z M6.3,19.6
	C6.2,19.4,6,19.2,5.9,19s-0.3-0.4-0.4-0.6c0.9-0.7,1.8-1.5,2.7-2.4c0.9-0.8,1.7-1.7,2.5-2.5L12,14c-0.7,1-1.5,1.9-2.5,2.8
	C8.5,17.8,7.5,18.7,6.3,19.6z M14.7,16.3V15h11.2l-0.1,1.3H14.7z M34,33.2c1.1,0,2.3-0.3,3.4-0.9c1.1-0.6,2.2-1.4,3.3-2.5v-7.1
	c-1,0.2-1.9,0.4-2.7,0.6s-1.6,0.4-2.4,0.7c-1.8,0.6-3.2,1.4-4,2.3c-0.9,0.9-1.3,1.9-1.3,3.1c0,1.1,0.4,2.1,1.1,2.8
	C31.9,32.9,32.9,33.2,34,33.2z M34,34.6c-1.6,0-2.9-0.5-3.9-1.4c-1-1-1.5-2.2-1.5-3.8c0-1.5,0.5-2.8,1.6-3.8c1.1-1.1,2.7-2,4.9-2.7
	c0.6-0.2,1.3-0.4,2.2-0.6s2-0.4,3.3-0.7v-0.5c0-2-0.3-3.5-1-4.6c-0.7-1-1.8-1.5-3.5-1.5c-0.9,0-1.8,0.2-2.7,0.5s-1.9,0.8-2.8,1.5
	l-0.7-1.2c1.1-0.7,2.1-1.2,3.2-1.6c1.1-0.4,2.1-0.5,3.2-0.5c2.1,0,3.6,0.7,4.6,2s1.4,3.1,1.4,5.5v13.2H41l-0.2-2.7
	c-1.1,1-2.2,1.8-3.4,2.3C36.2,34.4,35,34.6,34,34.6z"/>
</svg>
