<?xml version="1.0" encoding="utf-8"?>
<!-- Generator: Adobe Illustrator 26.3.1, SVG Export Plug-In . SVG Version: 6.00 Build 0)  -->
<svg version="1.1" id="Слой_1" xmlns="http://www.w3.org/2000/svg" xmlns:xlink="http://www.w3.org/1999/xlink" x="0px" y="0px"
	 viewBox="0 0 48 48" style="enable-background:new 0 0 48 48;" xml:space="preserve">
<path d="M16.1,25h4.1v-5h-4.1V25z M5.2,34.4L4.9,33h2.3c0.2,0,0.3-0.1,0.4-0.2c0.1-0.2,0.2-0.3,0.2-0.5v-6.2l-2.6,1L5,25.8l2.8-1
	v-4.6H5.6v-1.4h2.2v-4.5h1.4v4.5h1.6v1.4H9.2v4.2l2.4-0.9l-0.1,1.2l-2.3,0.9v7.1c0,0.5-0.2,0.9-0.5,1.2S8,34.4,7.5,34.4
	C7.5,34.4,5.2,34.4,5.2,34.4z M11.1,34.9l-0.7-1.2c1.2-0.8,2.2-1.9,2.9-3.2c0.7-1.3,1.2-2.7,1.3-4.2h-3.3V25h3.3v-5H12v-1.4h11.5V20
	h-2.2v5h3v1.4h-3v8h-1.4v-8H16c-0.2,1.7-0.7,3.4-1.5,4.9C13.7,32.7,12.6,34,11.1,34.9z M20.6,18.9l-1-0.5c0.3-0.5,0.7-1,1-1.5
	s0.7-1,1-1.6l1.1,0.4c-0.3,0.6-0.6,1.1-1,1.6C21.3,17.9,20.9,18.4,20.6,18.9z M15.5,18.4c-0.3-0.5-0.7-1-1-1.5s-0.7-1-1-1.5l1.2-0.5
	c0.3,0.5,0.7,1,1,1.4c0.3,0.5,0.6,1,1,1.5C16.6,17.9,15.5,18.4,15.5,18.4z M34,33.2c1.1,0,2.3-0.3,3.4-0.9c1.1-0.6,2.2-1.4,3.3-2.5
	v-7.1c-1,0.2-1.9,0.4-2.7,0.6s-1.6,0.4-2.4,0.7c-1.8,0.6-3.2,1.4-4,2.3c-0.9,0.9-1.3,1.9-1.3,3.1c0,1.1,0.4,2.1,1.1,2.8
	C31.9,32.9,32.9,33.2,34,33.2z M34,34.6c-1.6,0-2.9-0.5-3.9-1.4c-1-1-1.5-2.2-1.5-3.8c0-1.5,0.5-2.8,1.6-3.8c1.1-1.1,2.7-2,4.9-2.7
	c0.6-0.2,1.3-0.4,2.2-0.6s2-0.4,3.3-0.7v-0.5c0-2-0.3-3.5-1-4.6c-0.7-1-1.8-1.5-3.5-1.5c-0.9,0-1.8,0.2-2.7,0.5s-1.9,0.8-2.8,1.5
	l-0.7-1.2c1.1-0.7,2.1-1.2,3.2-1.6c1.1-0.4,2.1-0.5,3.2-0.5c2.1,0,3.6,0.7,4.6,2s1.4,3.1,1.4,5.5v13.2H41l-0.2-2.7
	c-1.1,1-2.2,1.8-3.4,2.3C36.2,34.4,35,34.6,34,34.6z"/>
</svg>
