<?xml version="1.0" encoding="utf-8"?>
<!-- Generator: Adobe Illustrator 26.3.1, SVG Export Plug-In . SVG Version: 6.00 Build 0)  -->
<svg version="1.1" id="Слой_1" xmlns="http://www.w3.org/2000/svg" xmlns:xlink="http://www.w3.org/1999/xlink" x="0px" y="0px"
	 viewBox="0 0 48 48" style="enable-background:new 0 0 48 48;" xml:space="preserve">
<path d="M34,33.2c1.1,0,2.3-0.3,3.4-0.9c1.1-0.6,2.2-1.4,3.3-2.5v-7c-1,0.2-1.9,0.4-2.7,0.6s-1.6,0.4-2.4,0.7
	c-1.8,0.6-3.2,1.4-4,2.3c-0.9,0.9-1.3,1.9-1.3,3.1c0,1.1,0.4,2.1,1.1,2.8C31.9,32.9,32.9,33.2,34,33.2z M34,34.6
	c-1.6,0-2.9-0.5-3.9-1.4c-1-1-1.5-2.2-1.5-3.8c0-1.5,0.5-2.8,1.6-3.8c1.1-1.1,2.7-2,4.9-2.7c0.6-0.2,1.3-0.4,2.2-0.6s2-0.4,3.3-0.7
	v-0.5c0-2-0.3-3.5-1-4.6c-0.7-1-1.8-1.5-3.5-1.5c-0.9,0-1.8,0.2-2.7,0.5s-1.9,0.8-2.8,1.5l-0.7-1.2c1.1-0.7,2.1-1.2,3.2-1.6
	c1.1-0.4,2.1-0.5,3.2-0.5c2.1,0,3.6,0.7,4.6,2s1.4,3.1,1.4,5.5v13.2H41l-0.2-2.7c-1.1,1-2.2,1.8-3.4,2.3C36.2,34.4,35,34.6,34,34.6z
	 M5.4,34.7c-0.2-0.2-0.3-0.4-0.5-0.6c-0.2-0.2-0.3-0.3-0.5-0.5c2.2-1,4-2.6,5.4-4.6c1.4-2.1,2.5-4.4,3.2-7H4.6v-1.4h8.8
	c0.2-1.1,0.4-2.2,0.5-3.3c0.1-1.1,0.2-2.3,0.2-3.4h1.4c0,1.2-0.1,2.3-0.2,3.5c-0.1,1.1-0.3,2.2-0.5,3.3h10.3V22h-9.6
	c0.9,2.7,2.2,5.1,3.8,7.1c1.6,2,3.6,3.5,5.9,4.5c-0.2,0.2-0.4,0.4-0.6,0.6c-0.2,0.2-0.3,0.3-0.4,0.5c-2.4-1.2-4.4-2.8-6-4.8
	c-1.7-2-3-4.4-3.9-7.2c-0.7,2.8-1.8,5.2-3.3,7.3C9.6,32.1,7.7,33.7,5.4,34.7z"/>
</svg>
