<?xml version="1.0" encoding="utf-8"?>
<!-- Generator: Adobe Illustrator 26.3.1, SVG Export Plug-In . SVG Version: 6.00 Build 0)  -->
<svg version="1.1" id="Слой_1" xmlns="http://www.w3.org/2000/svg" xmlns:xlink="http://www.w3.org/1999/xlink" x="0px" y="0px"
	 viewBox="0 0 48 48" style="enable-background:new 0 0 48 48;" xml:space="preserve">
<path d="M26.6,24.7h5.9v-7.1h-5.9C26.6,17.5,26.6,24.7,26.6,24.7z M10.5,38l-0.4-1.5h2.6c0.3,0,0.5-0.1,0.7-0.4
	c0.2-0.2,0.3-0.5,0.3-0.8v-9.1c-0.6,0.3-1.2,0.5-1.8,0.7s-1.2,0.4-1.8,0.6L10,26.2c0.6-0.2,1.3-0.4,1.9-0.7c0.6-0.3,1.2-0.5,1.9-0.8
	v-7.2h-3V16h3v-6h1.5v6h2.5v1.5h-2.5v6.4c0.5-0.2,0.9-0.5,1.4-0.8s0.9-0.6,1.4-0.8V24c-0.5,0.3-0.9,0.6-1.4,0.8s-0.9,0.5-1.4,0.7
	v10.2c0,0.6-0.2,1.1-0.6,1.6c-0.4,0.4-0.9,0.7-1.5,0.7C13.2,38,10.5,38,10.5,38z M20.3,38l-0.9-1.3c1.7-1.2,3-2.7,4.1-4.6
	c1-1.9,1.6-3.9,1.7-5.9h-4.1v-1.5h4v-7.1h-3V16h15v1.5h-3v7.1h4v1.5h-4V38h-1.5V26.2h-5.8c-0.1,2.3-0.7,4.6-1.8,6.7
	C23.7,35,22.2,36.7,20.3,38z M33.1,15.9l-1.2-0.5c0.4-0.6,0.9-1.3,1.3-2c0.4-0.7,0.8-1.4,1.2-2.1l1.3,0.4c-0.3,0.7-0.7,1.5-1.2,2.2
	C34,14.6,33.5,15.3,33.1,15.9z M25.5,15.3c-0.4-0.6-0.9-1.2-1.3-1.9c-0.5-0.6-0.9-1.2-1.4-1.8l1.3-0.6c0.5,0.6,0.9,1.2,1.4,1.8
	s0.9,1.2,1.3,1.9C26.7,14.7,25.5,15.3,25.5,15.3z"/>
</svg>
