<?xml version="1.0" encoding="utf-8"?>
<!-- Generator: Adobe Illustrator 26.3.1, SVG Export Plug-In . SVG Version: 6.00 Build 0)  -->
<svg version="1.1" id="Слой_1" xmlns="http://www.w3.org/2000/svg" xmlns:xlink="http://www.w3.org/1999/xlink" x="0px" y="0px"
	 viewBox="0 0 48 48" style="enable-background:new 0 0 48 48;" xml:space="preserve">
<path d="M9.5,35.7V11.5V35.7z M21.5,42c-0.2,0-0.4-0.1-0.5-0.2c-0.1-0.1-0.2-0.3-0.2-0.6V31l2.5-7.4c0.1-0.3,0.2-0.5,0.5-0.7
	c0.2-0.2,0.5-0.3,0.8-0.3h13.6c0.3,0,0.6,0.1,0.8,0.3c0.2,0.2,0.4,0.4,0.5,0.7L42,31v10.3c0,0.2-0.1,0.4-0.2,0.6
	c-0.1,0.1-0.3,0.2-0.5,0.2H41c-0.2,0-0.4-0.1-0.5-0.2c-0.1-0.1-0.2-0.3-0.2-0.6v-2.4H22.5v2.4c0,0.2-0.1,0.4-0.2,0.6
	c-0.1,0.1-0.3,0.2-0.5,0.2C21.7,42,21.5,42,21.5,42z M22.7,29.5h17.4L38.2,24H24.5L22.7,29.5z M26.4,36c0.5,0,0.9-0.2,1.3-0.5
	c0.3-0.3,0.5-0.8,0.5-1.3S28,33.3,27.7,33s-0.8-0.5-1.3-0.5s-0.9,0.2-1.3,0.5c-0.3,0.3-0.5,0.8-0.5,1.2c0,0.5,0.2,0.9,0.5,1.2
	C25.5,35.8,25.9,36,26.4,36z M36.4,36c0.5,0,0.9-0.2,1.2-0.5c0.4-0.3,0.5-0.8,0.5-1.3s-0.2-0.9-0.5-1.2c-0.4-0.3-0.8-0.5-1.2-0.5
	s-0.9,0.2-1.2,0.5s-0.5,0.8-0.5,1.2c0,0.5,0.2,0.9,0.5,1.2C35.5,35.8,35.9,36,36.4,36z M22.1,37.5h18.6v-6.7H22.1
	C22.1,30.9,22.1,37.5,22.1,37.5z M4,38v-2.3h4V12.8c0-0.7,0.3-1.4,0.8-1.9c0.6-0.6,1.2-0.9,2-0.9h24.5c0.7,0,1.4,0.3,1.9,0.8
	c0.6,0.6,0.8,1.2,0.8,1.9v5.6h-1.5v-5.6c0-0.4-0.1-0.7-0.3-0.9s-0.5-0.3-0.9-0.3H10.8c-0.4,0-0.7,0.1-0.9,0.3s-0.3,0.5-0.3,0.9v22.9
	h6.9V38H4z M22.1,37.5v-6.7C22.1,30.9,22.1,37.5,22.1,37.5z"/>
</svg>
