<?xml version="1.0" encoding="utf-8"?>
<!-- Generator: Adobe Illustrator 26.3.1, SVG Export Plug-In . SVG Version: 6.00 Build 0)  -->
<svg version="1.1" id="Слой_1" xmlns="http://www.w3.org/2000/svg" xmlns:xlink="http://www.w3.org/1999/xlink" x="0px" y="0px"
	 viewBox="0 0 48 48" style="enable-background:new 0 0 48 48;" xml:space="preserve">
<path d="M2,37.5V36h6.8v-1.6c-0.8,0-1.4-0.3-2-0.8c-0.5-0.5-0.8-1.2-0.8-2V12.8c0-0.8,0.3-1.4,0.8-2C7.4,10.3,8,10,8.8,10h30.4
	c0.8,0,1.4,0.3,2,0.8c0.5,0.5,0.8,1.2,0.8,2v18.9c0,0.8-0.3,1.4-0.8,2c-0.5,0.5-1.2,0.8-2,0.8V36H46v1.5H2z M8.8,32.9h30.4
	c0.3,0,0.6-0.1,0.9-0.3c0.2-0.2,0.4-0.5,0.4-0.9V12.8c0-0.4-0.1-0.7-0.4-0.9c-0.2-0.2-0.5-0.3-0.9-0.3H8.8c-0.3,0-0.6,0.1-0.9,0.3
	c-0.2,0.2-0.4,0.5-0.4,0.9v18.9c0,0.4,0.1,0.7,0.4,0.9C8.2,32.7,8.4,32.9,8.8,32.9z M7.6,32.9V11.5V32.9z"/>
</svg>
