<?xml version="1.0" encoding="utf-8"?>
<!-- Generator: Adobe Illustrator 26.3.1, SVG Export Plug-In . SVG Version: 6.00 Build 0)  -->
<svg version="1.1" id="Слой_1" xmlns="http://www.w3.org/2000/svg" xmlns:xlink="http://www.w3.org/1999/xlink" x="0px" y="0px"
	 viewBox="0 0 48 48" style="enable-background:new 0 0 48 48;" xml:space="preserve">
<path d="M9,21.3l-4-7l10.4-6h1.3c0.6,1.7,1.5,3,2.9,4.1S22.4,14,24,14s3.1-0.5,4.5-1.6s2.3-2.4,2.8-4.1h1.3l10.4,6l-4,6.9l-5-2.7
	v14.6l-1.3,1.1c0,0.1-0.1,0.1-0.1,0.1s-0.1,0-0.2,0V15.9l6,3.3l2.4-4.3L32.4,10c-0.8,1.7-2,3-3.5,4s-3.1,1.5-4.9,1.5
	S20.6,15,19.1,14s-2.7-2.3-3.5-4l-8.5,4.9l2.5,4.3l5.9-3.3v10.9c-0.2,0-0.5,0.1-0.8,0.1s-0.5,0.1-0.8,0.2v-8.5
	C14,18.6,9,21.3,9,21.3z M9.4,36.3l-1-1.2l3.4-2.9c0.7-0.6,1.5-1,2.3-1.3c0.9-0.3,1.7-0.4,2.6-0.4s1.7,0.1,2.6,0.4
	c0.8,0.3,1.6,0.7,2.3,1.3l5.8,5c0.5,0.5,1.2,0.8,1.8,1s1.4,0.3,2.1,0.3s1.4-0.1,2.1-0.3s1.3-0.6,1.8-1l3.4-3l1,1.2l-3.4,2.9
	c-0.7,0.6-1.5,1-2.3,1.3C33,39.9,32.2,40,31.3,40c-0.9,0-1.7-0.1-2.6-0.4c-0.9-0.3-1.6-0.7-2.3-1.3l-5.8-5c-0.5-0.5-1.1-0.8-1.8-1
	s-1.4-0.3-2-0.3c-0.7,0-1.4,0.1-2.1,0.3s-1.3,0.6-1.8,1C12.9,33.4,9.4,36.3,9.4,36.3z"/>
</svg>
