<?xml version="1.0" encoding="utf-8"?>
<!-- Generator: Adobe Illustrator 26.3.1, SVG Export Plug-In . SVG Version: 6.00 Build 0)  -->
<svg version="1.1" id="Слой_1" xmlns="http://www.w3.org/2000/svg" xmlns:xlink="http://www.w3.org/1999/xlink" x="0px" y="0px"
	 viewBox="0 0 48 48" style="enable-background:new 0 0 48 48;" xml:space="preserve">
<path d="M30.3,25.8l-1.1-1.1l7.1-5.5L24,9.8l-5.6,4.3L17.3,13L24,7.8l14.8,11.5C38.8,19.2,30.3,25.8,30.3,25.8z M33.9,29.5l-1.1-1.1
	l4.7-3.6l1.2,1C38.8,25.7,33.9,29.5,33.9,29.5z M41.2,44L29.9,32.7L24,37.2L9.2,25.7l1.2-1L24,35.2l4.7-3.7L26.2,29L24,30.7
	L9.2,19.2l4-3.2L3.9,6.7L5,5.6l37.3,37.3C42.3,42.9,41.2,44,41.2,44z"/>
</svg>
