<?xml version="1.0" encoding="utf-8"?>
<!-- Generator: Adobe Illustrator 26.3.1, SVG Export Plug-In . SVG Version: 6.00 Build 0)  -->
<svg version="1.1" id="Слой_1" xmlns="http://www.w3.org/2000/svg" xmlns:xlink="http://www.w3.org/1999/xlink" x="0px" y="0px"
	 viewBox="0 0 48 48" style="enable-background:new 0 0 48 48;" xml:space="preserve">
<path d="M23.2,40.6v-6.3l-11.6-4.9V22h11.6v-6h-4c-0.4,0-0.8-0.2-1.1-0.5c-0.3-0.3-0.5-0.7-0.5-1.1V8.8c0-0.4,0.2-0.8,0.5-1.1
	c0.3-0.3,0.7-0.5,1.1-0.5h9.5c0.4,0,0.8,0.2,1.1,0.5c0.3,0.3,0.5,0.7,0.5,1.1v5.5c0,0.4-0.2,0.8-0.5,1.1s-0.7,0.5-1.1,0.5h-4v6h11.6
	v7.4l-11.6,4.9v6.3C24.8,40.6,23.2,40.6,23.2,40.6z M19.2,14.5h9.7V8.8h-9.7V14.5z M23.2,32.6v-9.1h-10v4.8
	C13.2,28.4,23.2,32.6,23.2,32.6z M24.8,32.6l10.1-4.3v-4.8H24.8V32.6z M19.2,14.5V8.8V14.5z"/>
</svg>
