<?xml version="1.0" encoding="utf-8"?>
<!-- Generator: Adobe Illustrator 26.3.1, SVG Export Plug-In . SVG Version: 6.00 Build 0)  -->
<svg version="1.1" id="Слой_1" xmlns="http://www.w3.org/2000/svg" xmlns:xlink="http://www.w3.org/1999/xlink" x="0px" y="0px"
	 viewBox="0 0 48 48" style="enable-background:new 0 0 48 48;" xml:space="preserve">
<path d="M27.6,42c-1.6,0-3.2-0.3-4.8-0.9c-1.6-0.6-3.1-1.5-4.6-2.7L14.6,42c-0.2,0.2-0.4,0.3-0.6,0.3c-0.2,0-0.4-0.1-0.5-0.3
	c-0.2-0.2-0.3-0.4-0.3-0.5c0-0.2,0.1-0.4,0.3-0.5l3.6-3.6c-1.2-1.4-2.1-3-2.7-4.6c-0.6-1.6-0.9-3.2-0.9-4.9c0-4,1.4-7.4,4.2-10.2
	s6.1-4.1,9.9-4.1H42v14.3c0,1.8-0.4,3.5-1.2,5.3c-0.8,1.7-1.8,3.3-3.2,4.7c-1.4,1.3-3,2.4-4.7,3.1C31.2,41.6,29.4,42,27.6,42z
	 M11.7,19.5c0-2.2,0.8-4,2.3-5.5s3.4-2.3,5.5-2.3c-2.2,0-4-0.7-5.5-2.2S11.7,6.2,11.7,4c0,2.2-0.7,4-2.2,5.5S6.2,11.7,4,11.7
	c2.2,0,4,0.8,5.5,2.3S11.7,17.4,11.7,19.5z M27.7,40.5c1.7,0,3.3-0.3,4.8-1s2.9-1.6,4.1-2.8c1.2-1.2,2.1-2.5,2.9-4
	c0.7-1.5,1.1-3.1,1.1-4.8V15.1H27.7c-1.7,0-3.2,0.3-4.8,1c-1.5,0.7-2.9,1.6-4.1,2.8C17.6,20,16.6,21.4,16,23s-0.9,3.2-0.9,4.9
	c0,1.4,0.3,2.7,0.8,4.1c0.5,1.4,1.3,2.8,2.4,4.2l12-12c0.2-0.2,0.4-0.3,0.6-0.3s0.4,0.1,0.5,0.3c0.2,0.2,0.3,0.4,0.3,0.5
	s-0.1,0.4-0.3,0.5l-12,12c1.4,1,2.8,1.8,4.2,2.3C24.9,40.2,26.3,40.5,27.7,40.5z"/>
</svg>
