<?xml version="1.0" encoding="utf-8"?>
<!-- Generator: Adobe Illustrator 26.3.1, SVG Export Plug-In . SVG Version: 6.00 Build 0)  -->
<svg version="1.1" id="Слой_1" xmlns="http://www.w3.org/2000/svg" xmlns:xlink="http://www.w3.org/1999/xlink" x="0px" y="0px"
	 viewBox="0 0 48 48" style="enable-background:new 0 0 48 48;" xml:space="preserve">
<path d="M40.6,43.1l-9.2-9.2c-0.6,0.8-1.1,1.8-1.4,2.8s-0.5,2.1-0.5,3.3H28c0-1.2,0.2-2.5,0.6-3.7c0.4-1.3,1-2.4,1.8-3.5l-4-3.9
	c-1.1,1.4-2,3-2.8,4.9c-0.8,1.9-1.2,4-1.1,6.3H21c0-2.4,0.4-4.7,1.2-6.7c0.8-2.1,1.9-3.9,3.2-5.5l-5-5c-1.8,1.5-3.7,2.6-5.7,3.3
	c-2,0.7-4.2,1.1-6.6,1.1v-1.5c2.1,0,4.1-0.4,6-1.1s3.6-1.7,5.1-2.9l-3.9-4c-1,0.8-2.1,1.4-3.4,1.8S9.3,20.1,8,20.1v-1.5
	c1.2,0,2.4-0.2,3.4-0.5c1.1-0.4,2-0.8,2.7-1.4L5,7.5l1.1-1.1L41.7,42C41.7,41.9,40.6,43.1,40.6,43.1z M35.4,30.7l-1.2-1.2
	c0.7-0.5,1.6-0.9,2.6-1.2c1-0.3,2.1-0.4,3.1-0.4v1.5c-0.9,0-1.7,0.1-2.5,0.3C36.7,30,36,30.3,35.4,30.7z M30.2,25.4L29,24.3
	c1.6-1.1,3.3-1.9,5.1-2.5c1.7-0.6,3.7-0.9,5.9-0.9v1.5c-2,0-3.8,0.3-5.4,0.9C33.1,23.8,31.6,24.5,30.2,25.4z M23.7,19l-1.1-1.2
	c1-1.4,1.7-3,2.2-4.6c0.5-1.7,0.8-3.4,0.8-5.2h1.5c0,2.2-0.3,4.2-1,6C25.5,15.8,24.7,17.4,23.7,19z M18.5,13.8l-1.1-1.1
	c0.4-0.7,0.7-1.4,0.9-2.2c0.2-0.8,0.3-1.6,0.3-2.5h1.5c0,1.2-0.2,2.2-0.5,3.2S18.9,13.1,18.5,13.8z"/>
</svg>
