<?xml version="1.0" encoding="utf-8"?>
<!-- Generator: Adobe Illustrator 26.3.1, SVG Export Plug-In . SVG Version: 6.00 Build 0)  -->
<svg version="1.1" id="Слой_1" xmlns="http://www.w3.org/2000/svg" xmlns:xlink="http://www.w3.org/1999/xlink" x="0px" y="0px"
	 viewBox="0 0 48 48" style="enable-background:new 0 0 48 48;" xml:space="preserve">
<path d="M31.3,29.8V18.2L25.4,24L31.3,29.8z M10.8,40c-0.7,0-1.4-0.3-1.9-0.8S8,38,8,37.2V10.8c0-0.8,0.3-1.4,0.8-2
	C9.4,8.3,10,8,10.8,8h26.5c0.7,0,1.4,0.3,1.9,0.8c0.5,0.6,0.8,1.2,0.8,2v26.5c0,0.7-0.3,1.4-0.8,1.9c-0.6,0.5-1.2,0.8-2,0.8H10.8z
	 M16.2,38.5v-29h-5.4c-0.3,0-0.6,0.1-0.8,0.4s-0.4,0.5-0.4,0.8v26.5c0,0.3,0.1,0.6,0.4,0.8c0.3,0.3,0.5,0.4,0.8,0.4
	C10.8,38.5,16.2,38.5,16.2,38.5z M17.7,38.5h19.5c0.3,0,0.6-0.1,0.8-0.4c0.3-0.3,0.4-0.5,0.4-0.8V10.8c0-0.3-0.1-0.6-0.4-0.8
	c-0.3-0.3-0.5-0.4-0.8-0.4H17.7C17.7,9.5,17.7,38.5,17.7,38.5z M16.2,38.5H9.5H16.2z"/>
</svg>
