<?xml version="1.0" encoding="utf-8"?>
<!-- Generator: Adobe Illustrator 26.3.1, SVG Export Plug-In . SVG Version: 6.00 Build 0)  -->
<svg version="1.1" id="Слой_1" xmlns="http://www.w3.org/2000/svg" xmlns:xlink="http://www.w3.org/1999/xlink" x="0px" y="0px"
	 viewBox="0 0 48 48" style="enable-background:new 0 0 48 48;" xml:space="preserve">
<path d="M23.9,43.2c-0.2,0-0.4,0-0.6-0.1c-0.2,0-0.4-0.1-0.6-0.2l-10.5-4c-0.7-0.3-1.2-0.7-1.6-1.3C10.2,37,10,36.4,10,35.7
	c0-0.1,0.1-0.5,0.2-1.1l5.3-14.8H13l4.3-6.5c0.2-0.3,0.3-0.6,0.2-1c-0.1-0.4-0.2-0.7-0.5-0.9l-0.3-0.3l-7.6,6.6
	c-0.6,0.5-1,1.1-1.4,1.8c-0.3,0.7-0.5,1.4-0.5,2.2V32H5.5V21.9c0-1,0.2-2,0.6-3c0.4-0.9,1-1.8,1.8-2.5l8.9-7.7l1.9,1.9L19.6,8
	c0.2-0.7,0.7-1.2,1.2-1.6C21.4,6,22,5.8,22.7,5.8c0.2,0,0.4,0,0.6,0.1c0.2,0,0.4,0.1,0.6,0.2l10.5,4c0.7,0.3,1.2,0.7,1.6,1.3
	c0.4,0.6,0.6,1.2,0.6,1.9c0,0.2-0.1,0.6-0.2,1.1l-1.3,3.8c1,0.1,1.9,0.4,2.5,1.1s0.9,1.4,0.9,2.2c0,0.3,0,0.5-0.1,0.8
	s-0.2,0.5-0.3,0.8h1c0.9,0,1.7,0.3,2.3,1c0.6,0.6,1,1.4,1,2.3c0,0.8-0.2,1.4-0.7,2c-0.5,0.5-1,0.9-1.7,1.2c0.2,0.3,0.3,0.5,0.3,0.8
	c0.1,0.3,0.1,0.6,0.1,0.8c0,0.9-0.3,1.7-0.9,2.3c-0.6,0.6-1.4,1-2.3,1h-1c0.1,0.2,0.3,0.5,0.3,0.8c0.1,0.3,0.1,0.5,0.1,0.8
	c0,0.9-0.3,1.7-1,2.3c-0.6,0.6-1.4,1-2.3,1h-5.8L27,41c-0.2,0.7-0.6,1.2-1.2,1.6C25.2,43,24.6,43.2,23.9,43.2z M26.2,38.6l8.2-22.9
	l-13.8-5.2l-8.2,22.9L26.2,38.6z M28.2,37.5h5.2c0.4,0,0.8-0.2,1.1-0.5s0.5-0.7,0.5-1.1s-0.2-0.8-0.5-1.1s-0.7-0.5-1.1-0.5h-4
	C29.3,34.5,28.2,37.5,28.2,37.5z M29.9,32.7h7.3c0.4,0,0.8-0.2,1.1-0.5s0.4-0.7,0.4-1.1s-0.1-0.8-0.4-1.1c-0.3-0.3-0.6-0.5-1.1-0.5
	h-6.1L29.9,32.7z M31.7,27.8h7.5c0.4,0,0.8-0.2,1.1-0.5s0.5-0.7,0.5-1.1s-0.2-0.8-0.5-1.1s-0.7-0.5-1.1-0.5h-6.4L31.7,27.8z
	 M33.4,23h1.8c0.4,0,0.8-0.2,1.1-0.5s0.5-0.7,0.5-1.1s-0.2-0.8-0.5-1.1c-0.3-0.3-0.7-0.5-1.1-0.5h-0.7L33.4,23z"/>
</svg>
