<?xml version="1.0" encoding="utf-8"?>
<!-- Generator: Adobe Illustrator 26.3.1, SVG Export Plug-In . SVG Version: 6.00 Build 0)  -->
<svg version="1.1" id="Слой_1" xmlns="http://www.w3.org/2000/svg" xmlns:xlink="http://www.w3.org/1999/xlink" x="0px" y="0px"
	 viewBox="0 0 48 48" style="enable-background:new 0 0 48 48;" xml:space="preserve">
<path d="M24,38.2c-1.7,0-3.1-0.6-4.2-1.7c-1.1-1.1-1.7-2.5-1.7-4.2H9.5c-0.4,0-0.8-0.2-1.1-0.5C8.2,31.4,8,31.1,8,30.7
	c0-4.3,1.5-8.1,4.4-11.3s6.5-4.9,10.9-5V8.8h1.5v5.6c4.3,0.2,8,1.8,10.9,5c2.9,3.2,4.4,7,4.4,11.3c0,0.4-0.2,0.8-0.5,1.1
	s-0.7,0.5-1.1,0.5H30c0,1.7-0.6,3.1-1.7,4.2S25.7,38.2,24,38.2z M9.5,30.7h28.9c0-4.1-1.4-7.6-4.2-10.5S28,15.9,24,15.9
	s-7.4,1.4-10.2,4.3C10.9,23.1,9.5,26.6,9.5,30.7z M24,36.6c1.2,0,2.2-0.4,3.1-1.3c0.9-0.9,1.3-1.9,1.3-3.1h-8.8
	c0,1.2,0.4,2.2,1.3,3.1C21.8,36.2,22.8,36.6,24,36.6z"/>
</svg>
