<?xml version="1.0" encoding="utf-8"?>
<!-- Generator: Adobe Illustrator 26.3.1, SVG Export Plug-In . SVG Version: 6.00 Build 0)  -->
<svg version="1.1" id="Слой_1" xmlns="http://www.w3.org/2000/svg" xmlns:xlink="http://www.w3.org/1999/xlink" x="0px" y="0px"
	 viewBox="0 0 48 48" style="enable-background:new 0 0 48 48;" xml:space="preserve">
<path d="M24,43.5c-3.9,0-7.2-0.5-9.7-1.5s-3.8-2.7-3.8-5s1.3-4,3.8-5s5.8-1.5,9.7-1.5s7.2,0.5,9.7,1.5s3.8,2.7,3.8,5s-1.3,4-3.8,5
	S27.9,43.5,24,43.5z M24,39.4c-3.8,0-6.7-0.4-8.6-1.1c-2-0.8-3-1.9-3-3.4c-0.2,0.3-0.4,0.6-0.5,1s-0.1,0.8-0.1,1.2
	c0,1.6,1.1,2.9,3.3,3.8c2.2,0.9,5.2,1.4,9,1.4s6.8-0.5,9-1.4s3.3-2.2,3.3-3.8c0-0.4,0-0.7-0.1-1.2c-0.1-0.4-0.2-0.8-0.5-1
	c0,1.5-1,2.7-3,3.4C30.7,39,27.8,39.4,24,39.4z M24,38.1c3.2,0,5.7-0.3,7.5-0.8s2.7-1.3,2.7-2.3s-0.9-1.7-2.7-2.3
	c-1.8-0.5-4.3-0.8-7.5-0.8s-5.7,0.3-7.5,0.8S13.8,34,13.8,35s0.9,1.8,2.7,2.3S20.8,38.1,24,38.1z M22.4,27.8v-8.4h-3.3l6.6-11.7V16
	H29L22.4,27.8z"/>
</svg>
