<?xml version="1.0" encoding="utf-8"?>
<!-- Generator: Adobe Illustrator 26.3.1, SVG Export Plug-In . SVG Version: 6.00 Build 0)  -->
<svg version="1.1" id="Слой_1" xmlns="http://www.w3.org/2000/svg" xmlns:xlink="http://www.w3.org/1999/xlink" x="0px" y="0px"
	 viewBox="0 0 48 48" style="enable-background:new 0 0 48 48;" xml:space="preserve">
<path d="M24,42.3c-0.9,0-1.7-0.3-2.4-0.9c-0.7-0.6-1.1-1.4-1.2-2.3h7.3c-0.1,0.9-0.5,1.7-1.2,2.3C25.7,42,24.9,42.3,24,42.3z
	 M16.9,35v-1.5H31V35H16.9z M17,29.5c-1.8-1.3-3.3-2.8-4.4-4.7C11.5,23,11,20.9,11,18.6c0-3.6,1.3-6.6,3.8-9.2
	c2.5-2.5,5.6-3.8,9.2-3.8s6.6,1.3,9.2,3.8C35.7,12,37,15,37,18.6c0,2.3-0.5,4.3-1.6,6.2c-1.1,1.8-2.5,3.4-4.4,4.7
	C31,29.5,17,29.5,17,29.5z M17.5,27.9h13c1.5-1.1,2.8-2.4,3.6-4c0.9-1.6,1.3-3.4,1.3-5.3c0-3.2-1.1-5.9-3.4-8.1
	c-2.2-2.2-4.9-3.4-8.1-3.4s-5.9,1.1-8.1,3.4c-2.2,2.2-3.4,4.9-3.4,8.1c0,1.9,0.4,3.6,1.3,5.3C14.7,25.5,15.9,26.8,17.5,27.9z"/>
</svg>
