<?xml version="1.0" encoding="utf-8"?>
<!-- Generator: Adobe Illustrator 26.3.1, SVG Export Plug-In . SVG Version: 6.00 Build 0)  -->
<svg version="1.1" id="Слой_1" xmlns="http://www.w3.org/2000/svg" xmlns:xlink="http://www.w3.org/1999/xlink" x="0px" y="0px"
	 viewBox="0 0 48 48" style="enable-background:new 0 0 48 48;" xml:space="preserve">
<path d="M24,42.3c-0.9,0-1.7-0.3-2.4-0.9c-0.7-0.6-1.1-1.4-1.2-2.3h7.3c-0.1,0.9-0.6,1.7-1.2,2.3C25.7,42,24.9,42.3,24,42.3z
	 M24,7.1c-1.7,0-3.3,0.4-4.8,1.1s-2.8,1.7-3.8,2.8l-1.1-1c1.3-1.4,2.8-2.4,4.4-3.2C20.3,6,22.1,5.6,24,5.6c3.6,0,6.6,1.3,9.2,3.8
	C35.7,12,37,15,37,18.6c0,2-0.4,3.8-1.2,5.4s-1.9,3-3.2,4.3l-1.1-1.1c1.1-0.9,2.1-2.1,2.8-3.6c0.8-1.5,1.2-3.1,1.2-5
	c0-3.2-1.1-5.9-3.4-8.1C29.9,8.3,27.2,7.1,24,7.1z M40.5,41.2l-1.1,1.1L26.5,29.5H17c-1.9-1.3-3.3-2.9-4.4-4.7S11,20.9,11,18.6
	c0-0.7,0.1-1.5,0.2-2.2c0.1-0.8,0.3-1.4,0.5-1.8L5.3,8.3l1.1-1.1C6.5,7.2,40.5,41.2,40.5,41.2z M17.5,27.9H25L12.9,15.8
	c-0.1,0.4-0.2,0.8-0.3,1.3s-0.1,1-0.1,1.5c0,1.8,0.4,3.6,1.3,5.2C14.7,25.4,15.9,26.8,17.5,27.9z M31,33.5V35H17v-1.5
	C16.9,33.5,31,33.5,31,33.5z"/>
</svg>
