<?xml version="1.0" encoding="utf-8"?>
<!-- Generator: Adobe Illustrator 26.3.1, SVG Export Plug-In . SVG Version: 6.00 Build 0)  -->
<svg version="1.1" id="Слой_1" xmlns="http://www.w3.org/2000/svg" xmlns:xlink="http://www.w3.org/1999/xlink" x="0px" y="0px"
	 viewBox="0 0 48 48" style="enable-background:new 0 0 48 48;" xml:space="preserve">
<path d="M24,30.5c1.8,0,3.3-0.6,4.6-1.9c1.3-1.3,1.9-2.8,1.9-4.6s-0.6-3.3-1.9-4.6c-1.3-1.3-2.8-1.9-4.6-1.9s-3.3,0.6-4.6,1.9
	c-1.3,1.3-1.9,2.8-1.9,4.6s0.6,3.3,1.9,4.6C20.7,29.8,22.2,30.5,24,30.5z M24,32c-2.2,0-4.1-0.8-5.7-2.3C16.8,28.1,16,26.2,16,24
	s0.8-4.1,2.3-5.7c1.6-1.6,3.4-2.3,5.7-2.3s4.1,0.8,5.7,2.3c1.6,1.6,2.3,3.4,2.3,5.7s-0.8,4.1-2.3,5.7C28.1,31.2,26.2,32,24,32z
	 M10,24.8H3v-1.5h7V24.8z M45,24.8h-7v-1.5h7V24.8z M23.2,10V3h1.5v7H23.2z M23.2,45v-7h1.5v7H23.2z M13.6,14.6l-4.3-4.2l1.1-1.2
	l4.2,4.3C14.6,13.5,13.6,14.6,13.6,14.6z M37.6,38.7l-4.2-4.3l1-1.1l4.3,4.2C38.7,37.6,37.6,38.7,37.6,38.7z M33.4,13.6l4.2-4.3
	l1.2,1.1l-4.3,4.2C34.5,14.6,33.4,13.6,33.4,13.6z M9.3,37.6l4.3-4.2l1,1l-4.2,4.3C10.4,38.7,9.3,37.6,9.3,37.6z"/>
</svg>
