<?xml version="1.0" encoding="utf-8"?>
<!-- Generator: Adobe Illustrator 26.3.1, SVG Export Plug-In . SVG Version: 6.00 Build 0)  -->
<svg version="1.1" id="Слой_1" xmlns="http://www.w3.org/2000/svg" xmlns:xlink="http://www.w3.org/1999/xlink" x="0px" y="0px"
	 viewBox="0 0 48 48" style="enable-background:new 0 0 48 48;" xml:space="preserve">
<path d="M32,31.3c2,0,3.8-0.7,5.2-2.1s2.1-3.1,2.1-5.2c0-2-0.7-3.8-2.1-5.2c-1.4-1.4-3.1-2.1-5.2-2.1s-3.8,0.7-5.2,2.1
	c-1.4,1.4-2.1,3.1-2.1,5.2s0.7,3.8,2.1,5.2S30,31.3,32,31.3z M32,32.8c-2.3,0-4.3-0.8-6-2.3c-1.7-1.6-2.6-3.5-2.8-5.7h-17v-1.5h17.1
	c0.2-2.3,1.1-4.2,2.8-5.7c1.7-1.6,3.7-2.3,6-2.3c2.5,0,4.5,0.9,6.3,2.6c1.7,1.7,2.6,3.8,2.6,6.3s-0.9,4.5-2.6,6.3
	C36.5,32,34.5,32.8,32,32.8z"/>
</svg>
