<?xml version="1.0" encoding="utf-8"?>
<!-- Generator: Adobe Illustrator 26.3.1, SVG Export Plug-In . SVG Version: 6.00 Build 0)  -->
<svg version="1.1" id="Слой_1" xmlns="http://www.w3.org/2000/svg" xmlns:xlink="http://www.w3.org/1999/xlink" x="0px" y="0px"
	 viewBox="0 0 48 48" style="enable-background:new 0 0 48 48;" xml:space="preserve">
<path d="M11,36.5V35h1.5v1.5H11z M11,31.5V30h6.9v1.5H11z M11,26.4v-1.5h11.2v1.5H11z M11,21.3v-9.8h26v9.8H11z M17.1,36.5V35h1.5
	v1.5C18.7,36.5,17.1,36.5,17.1,36.5z M20.6,31.5V30h6.9v1.5C27.4,31.5,20.6,31.5,20.6,31.5z M23.2,36.5V35h1.5v1.5
	C24.8,36.5,23.2,36.5,23.2,36.5z M25.8,26.4v-1.5H37v1.5H25.8z M29.4,36.5V35h1.5v1.5H29.4z M30.1,31.5V30H37v1.5H30.1z M35.5,36.5
	V35H37v1.5H35.5z"/>
</svg>
