<?xml version="1.0" encoding="utf-8"?>
<!-- Generator: Adobe Illustrator 26.3.1, SVG Export Plug-In . SVG Version: 6.00 Build 0)  -->
<svg version="1.1" id="Слой_1" xmlns="http://www.w3.org/2000/svg" xmlns:xlink="http://www.w3.org/1999/xlink" x="0px" y="0px"
	 viewBox="0 0 48 48" style="enable-background:new 0 0 48 48;" xml:space="preserve">
<path d="M16,31.3c2,0,3.8-0.7,5.2-2.1c1.4-1.4,2.1-3.1,2.1-5.2c0-2-0.7-3.8-2.1-5.2S18,16.7,16,16.7s-3.8,0.7-5.2,2.1S8.7,22,8.7,24
	s0.7,3.8,2.1,5.2S14,31.3,16,31.3z M16,32.8c-2.5,0-4.5-0.9-6.3-2.6C8,28.5,7.2,26.5,7.2,24s0.9-4.5,2.6-6.3
	c1.7-1.7,3.8-2.6,6.3-2.6c2.3,0,4.3,0.8,6,2.3c1.7,1.6,2.6,3.5,2.8,5.7H42v1.5H24.8C24.6,27,23.7,29,22,30.5
	C20.3,32.1,18.3,32.8,16,32.8z"/>
</svg>
