<?xml version="1.0" encoding="utf-8"?>
<!-- Generator: Adobe Illustrator 26.3.1, SVG Export Plug-In . SVG Version: 6.00 Build 0)  -->
<svg version="1.1" id="Слой_1" xmlns="http://www.w3.org/2000/svg" xmlns:xlink="http://www.w3.org/1999/xlink" x="0px" y="0px"
	 viewBox="0 0 48 48" style="enable-background:new 0 0 48 48;" xml:space="preserve">
<path d="M34.3,32.6c-2.2,0-4.1-0.7-5.7-2.1s-2.5-3.3-2.9-5.7H13.5c-0.2,0.9-0.6,1.8-1.4,2.4c-0.7,0.7-1.7,1-2.8,1
	c-1.2,0-2.2-0.4-3-1.2c-0.8-0.8-1.2-1.8-1.2-3s0.4-2.2,1.2-3s1.8-1.2,3-1.2c1.1,0,2,0.3,2.8,1c0.7,0.7,1.2,1.5,1.4,2.4h12.2
	c0.4-2.4,1.3-4.3,2.9-5.7c1.6-1.4,3.5-2.1,5.7-2.1c2.4,0,4.4,0.9,6.1,2.6c1.7,1.7,2.5,3.8,2.5,6.1s-0.8,4.3-2.5,6
	C38.7,31.8,36.7,32.6,34.3,32.6z M34.3,31.1c2,0,3.6-0.7,5-2.1s2.1-3,2.1-5s-0.7-3.6-2.1-5c-1.4-1.4-3-2.1-5-2.1s-3.6,0.7-5,2.1
	s-2.1,3-2.1,5s0.7,3.6,2.1,5C30.7,30.4,32.3,31.1,34.3,31.1z"/>
</svg>
