<?xml version="1.0" encoding="utf-8"?>
<!-- Generator: Adobe Illustrator 26.3.1, SVG Export Plug-In . SVG Version: 6.00 Build 0)  -->
<svg version="1.1" id="Слой_1" xmlns="http://www.w3.org/2000/svg" xmlns:xlink="http://www.w3.org/1999/xlink" x="0px" y="0px"
	 viewBox="0 0 48 48" style="enable-background:new 0 0 48 48;" xml:space="preserve">
<path d="M40.5,14.9c0-2.6-0.9-4.9-2.7-6.7s-4-2.8-6.7-2.8V4c3,0,5.6,1.1,7.7,3.2c2.1,2.1,3.2,4.7,3.2,7.7H40.5z M35.6,14.9
	c0-1.3-0.4-2.3-1.3-3.2c-0.9-0.9-1.9-1.3-3.2-1.3V8.8c1.7,0,3.1,0.6,4.3,1.8s1.7,2.6,1.7,4.3C37.1,14.9,35.6,14.9,35.6,14.9z
	 M8.8,40c-0.8,0-1.4-0.3-2-0.8C6.3,38.7,6,38,6,37.2V14.9c0-0.8,0.3-1.4,0.8-2c0.5-0.5,1.2-0.8,2-0.8h6.4L18.8,8H29v1.5h-9.5
	l-3.7,4.2h-7c-0.4,0-0.7,0.1-0.9,0.4c-0.2,0.2-0.3,0.5-0.3,0.9v22.3c0,0.4,0.1,0.7,0.3,0.9s0.5,0.3,0.9,0.3h30.5
	c0.4,0,0.7-0.1,0.9-0.3s0.3-0.5,0.3-0.9V16.9H42v20.3c0,0.8-0.3,1.4-0.8,2c-0.5,0.5-1.2,0.8-2,0.8C39.2,40,8.8,40,8.8,40z M24,33.3
	c2,0,3.8-0.7,5.2-2.1c1.4-1.4,2.1-3.1,2.1-5.2c0-2-0.7-3.8-2.1-5.1c-1.4-1.4-3.1-2.1-5.2-2.1c-2,0-3.8,0.7-5.1,2.1
	c-1.4,1.4-2.1,3.1-2.1,5.1s0.7,3.8,2.1,5.2C20.2,32.6,21.9,33.3,24,33.3z M24,31.8c-1.6,0-3-0.5-4.1-1.6s-1.6-2.4-1.6-4.1
	c0-1.6,0.5-3,1.6-4.1s2.4-1.6,4.1-1.6c1.6,0,3,0.5,4.1,1.6s1.6,2.4,1.6,4.1c0,1.6-0.5,3-1.6,4.1C27,31.2,25.6,31.8,24,31.8z"/>
</svg>
