<?xml version="1.0" encoding="utf-8"?>
<!-- Generator: Adobe Illustrator 26.3.1, SVG Export Plug-In . SVG Version: 6.00 Build 0)  -->
<svg version="1.1" id="Слой_1" xmlns="http://www.w3.org/2000/svg" xmlns:xlink="http://www.w3.org/1999/xlink" x="0px" y="0px"
	 viewBox="0 0 48 48" style="enable-background:new 0 0 48 48;" xml:space="preserve">
<path d="M21.5,32.2h-7.3c-2.3,0-4.2-0.8-5.8-2.4S6,26.3,6,24s0.8-4.2,2.4-5.8c1.6-1.6,3.5-2.4,5.8-2.4h7.3v1.5h-7.3
	c-1.8,0-3.4,0.6-4.7,1.9S7.6,22,7.6,23.9c0,1.8,0.6,3.4,1.9,4.7c1.3,1.3,2.8,1.9,4.7,1.9h7.3C21.5,30.6,21.5,32.2,21.5,32.2z
	 M17.1,24.8v-1.5h13.8v1.5H17.1z M26.5,32.2v-1.5h7.3c1.8,0,3.4-0.6,4.7-1.9s1.9-2.8,1.9-4.7c0-1.8-0.6-3.4-1.9-4.7
	c-1.3-1.3-2.8-1.9-4.7-1.9h-7.3V16h7.3c2.3,0,4.2,0.8,5.8,2.4s2.4,3.5,2.4,5.8s-0.8,4.2-2.4,5.8c-1.6,1.6-3.5,2.4-5.8,2.4
	C33.8,32.2,26.5,32.2,26.5,32.2z"/>
</svg>
