<?xml version="1.0" encoding="utf-8"?>
<!-- Generator: Adobe Illustrator 26.3.1, SVG Export Plug-In . SVG Version: 6.00 Build 0)  -->
<svg version="1.1" id="Слой_1" xmlns="http://www.w3.org/2000/svg" xmlns:xlink="http://www.w3.org/1999/xlink" x="0px" y="0px"
	 viewBox="0 0 48 48" style="enable-background:new 0 0 48 48;" xml:space="preserve">
<path d="M37.4,17.1c-1.7,0-3.1-0.6-4.3-1.7s-1.9-2.5-2.1-4.1H16.9c-0.2,1.5-0.8,2.8-1.8,3.8c-1,1.1-2.3,1.7-3.8,1.8v14
	c1.6,0.2,3,0.9,4.1,2.1c1.1,1.2,1.7,2.7,1.7,4.3c0,1.8-0.6,3.4-1.9,4.6c-1.3,1.3-2.8,1.9-4.6,1.9S7.2,43.2,6,41.9
	c-1.4-1.1-2-2.6-2-4.5c0-1.7,0.6-3.1,1.7-4.3s2.5-1.9,4.1-2.1V17c-1.6-0.2-3-0.9-4.1-2.1S4,12.2,4,10.5c0-1.8,0.6-3.4,1.9-4.6
	C7.2,4.6,8.7,4,10.5,4c1.7,0,3.1,0.6,4.4,1.7c1.2,1.1,1.9,2.5,2.1,4.1h14c0.2-1.6,0.9-3,2.1-4.1C34.3,4.6,35.8,4,37.5,4
	c1.8,0,3.3,0.6,4.6,1.9S44,8.7,44,10.5s-0.6,3.4-1.9,4.6C40.8,16.4,39.3,17.1,37.4,17.1z M10.5,42.5c1.4,0,2.6-0.5,3.6-1.5
	s1.5-2.1,1.5-3.5s-0.5-2.6-1.5-3.6s-2.2-1.5-3.6-1.5C9.1,32.5,7.9,33,7,34c-1,1-1.5,2.2-1.5,3.6C5.5,38.9,6,40.1,7,41
	S9.1,42.5,10.5,42.5z M10.5,15.6c1.4,0,2.6-0.5,3.6-1.5s1.5-2.2,1.5-3.6C15.5,9.1,15,8,14.1,7c-1-1-2.2-1.5-3.6-1.5S7.9,6,7,7
	c-1,1-1.5,2.1-1.5,3.5S6,13.1,7,14.1C7.9,15.1,9.1,15.6,10.5,15.6z M37.5,44c-1.8,0-3.4-0.6-4.6-1.9c-1.3-1.3-1.9-2.8-1.9-4.6
	s0.6-3.3,1.9-4.6s2.8-1.9,4.6-1.9s3.4,0.6,4.6,1.9s1.9,2.8,1.9,4.6s-0.6,3.4-1.9,4.6C40.8,43.4,39.3,44,37.5,44z M37.5,42.5
	c1.4,0,2.6-0.5,3.5-1.5c1-1,1.5-2.1,1.5-3.5S42,34.9,41,33.9s-2.1-1.5-3.5-1.5s-2.6,0.5-3.6,1.5s-1.5,2.2-1.5,3.6
	c0,1.4,0.5,2.5,1.5,3.5S36.1,42.5,37.5,42.5z M37.5,15.6c1.4,0,2.6-0.5,3.5-1.5c1-1,1.5-2.2,1.5-3.6S42,8,41,7s-2.1-1.5-3.5-1.5
	S34.9,6,33.9,7s-1.5,2.1-1.5,3.5s0.5,2.6,1.5,3.6S36.1,15.6,37.5,15.6z"/>
</svg>
