<?xml version="1.0" encoding="utf-8"?>
<!-- Generator: Adobe Illustrator 26.3.1, SVG Export Plug-In . SVG Version: 6.00 Build 0)  -->
<svg version="1.1" id="Слой_1" xmlns="http://www.w3.org/2000/svg" xmlns:xlink="http://www.w3.org/1999/xlink" x="0px" y="0px"
	 viewBox="0 0 48 48" style="enable-background:new 0 0 48 48;" xml:space="preserve">
<path d="M35.3,45v-6h-6v-1.5h6v-6h1.5v6h6V39h-6v6H35.3z M9.5,38.5v-29V38.5z M10.8,40c-0.8,0-1.4-0.3-2-0.8C8.3,38.7,8,38,8,37.2
	V10.8c0-0.8,0.3-1.4,0.8-2C9.3,8.3,10,8,10.8,8h26.5c0.8,0,1.4,0.3,2,0.8c0.5,0.5,0.8,1.2,0.8,2v17.4c-0.3-0.1-0.5-0.2-0.8-0.2
	s-0.5-0.1-0.8-0.2v-17c0-0.3-0.1-0.6-0.4-0.8c-0.3-0.3-0.5-0.4-0.8-0.4H10.8c-0.3,0-0.6,0.1-0.8,0.4c-0.3,0.3-0.4,0.5-0.4,0.8v26.5
	c0,0.3,0.1,0.6,0.4,0.8s0.5,0.4,0.8,0.4h14.5c0,0.3,0,0.5,0.1,0.8c0,0.3,0.1,0.5,0.1,0.8C25.5,40,10.8,40,10.8,40z M15.8,32.9
	c0.4,0,0.7-0.1,0.9-0.4c0.2-0.3,0.4-0.6,0.4-0.9c0-0.4-0.1-0.7-0.4-0.9c-0.3-0.2-0.6-0.4-0.9-0.4c-0.4,0-0.7,0.1-0.9,0.4
	s-0.4,0.6-0.4,0.9c0,0.4,0.1,0.7,0.4,0.9C15.1,32.8,15.4,32.9,15.8,32.9z M15.8,25.3c0.4,0,0.7-0.1,0.9-0.4s0.4-0.6,0.4-0.9
	c0-0.4-0.1-0.7-0.4-0.9c-0.3-0.2-0.6-0.4-0.9-0.4c-0.4,0-0.7,0.1-0.9,0.4s-0.4,0.6-0.4,0.9c0,0.4,0.1,0.7,0.4,0.9
	C15.1,25.2,15.4,25.3,15.8,25.3z M15.8,17.7c0.4,0,0.7-0.1,0.9-0.4s0.4-0.6,0.4-0.9c0-0.4-0.1-0.7-0.4-0.9s-0.6-0.4-0.9-0.4
	c-0.4,0-0.7,0.1-0.9,0.4c-0.2,0.3-0.4,0.6-0.4,0.9c0,0.4,0.1,0.7,0.4,0.9C15.1,17.6,15.4,17.7,15.8,17.7z M22.2,24.8h10.9v-1.5H22.2
	V24.8z M22.2,17.1h10.9v-1.5H22.2V17.1z M22.2,32.4H27c0.2-0.3,0.4-0.5,0.6-0.8c0.2-0.2,0.4-0.5,0.6-0.8h-6
	C22.2,30.9,22.2,32.4,22.2,32.4z"/>
</svg>
