<?xml version="1.0" encoding="utf-8"?>
<!-- Generator: Adobe Illustrator 26.3.1, SVG Export Plug-In . SVG Version: 6.00 Build 0)  -->
<svg version="1.1" id="Слой_1" xmlns="http://www.w3.org/2000/svg" xmlns:xlink="http://www.w3.org/1999/xlink" x="0px" y="0px"
	 viewBox="0 0 48 48" style="enable-background:new 0 0 48 48;" xml:space="preserve">
<path d="M15.5,17.8v-1.5H40v1.5H15.5z M15.5,24.8v-1.5H40v1.5H15.5z M15.5,31.8v-1.5H40v1.5H15.5z M9,18c-0.3,0-0.5-0.1-0.7-0.3
	C8.1,17.5,8,17.3,8,17s0.1-0.5,0.3-0.7C8.5,16.1,8.8,16,9,16c0.3,0,0.5,0.1,0.7,0.3C9.9,16.5,10,16.7,10,17s-0.1,0.5-0.3,0.7
	C9.5,17.9,9.3,18,9,18z M9,25c-0.3,0-0.5-0.1-0.7-0.3C8.1,24.5,8,24.2,8,24c0-0.3,0.1-0.5,0.3-0.7C8.5,23.1,8.8,23,9,23
	c0.3,0,0.5,0.1,0.7,0.3C9.9,23.5,10,23.7,10,24c0,0.2-0.1,0.5-0.3,0.6C9.5,24.9,9.3,25,9,25z M9,32c-0.3,0-0.5-0.1-0.7-0.3
	C8.1,31.5,8,31.3,8,31s0.1-0.5,0.3-0.7C8.5,30.1,8.8,30,9,30c0.3,0,0.5,0.1,0.7,0.3C9.9,30.5,10,30.7,10,31s-0.1,0.5-0.3,0.7
	C9.5,31.9,9.3,32,9,32z"/>
</svg>
