<?xml version="1.0" encoding="utf-8"?>
<!-- Generator: Adobe Illustrator 26.3.1, SVG Export Plug-In . SVG Version: 6.00 Build 0)  -->
<svg version="1.1" id="Слой_1" xmlns="http://www.w3.org/2000/svg" xmlns:xlink="http://www.w3.org/1999/xlink" x="0px" y="0px"
	 viewBox="0 0 48 48" style="enable-background:new 0 0 48 48;" xml:space="preserve">
<path d="M18.7,22.5c0,1.7,0.6,3.2,1.7,4.5s2.3,2.6,3.6,3.7c1.3-1.1,2.5-2.4,3.6-3.7c1.1-1.3,1.7-2.8,1.7-4.6c0-1.5-0.5-2.7-1.5-3.7
	s-2.3-1.5-3.7-1.5c-1.5,0-2.7,0.5-3.7,1.5C19.2,19.8,18.7,21.1,18.7,22.5z M24,24c-0.6,0-1-0.2-1.4-0.6S22,22.6,22,22s0.2-1,0.6-1.4
	S23.4,20,24,20s1,0.2,1.4,0.6S26,21.4,26,22s-0.2,1-0.6,1.4S24.6,24,24,24z M16,36c-3.3,0-6.2-1.2-8.5-3.5S4,27.3,4,24
	s1.2-6.2,3.5-8.5S12.7,12,16,12h16c3.3,0,6.2,1.2,8.5,3.5S44,20.7,44,24s-1.2,6.2-3.5,8.5S35.3,36,32,36H16z M16,34.5h16
	c2.9,0,5.4-1,7.4-3s3-4.5,3-7.4s-1-5.4-3-7.4s-4.5-3-7.4-3H16c-2.9,0-5.4,1-7.4,3s-3,4.5-3,7.4s1,5.4,3,7.4
	C10.6,33.4,13.1,34.5,16,34.5z"/>
</svg>
