<?xml version="1.0" encoding="utf-8"?>
<!-- Generator: Adobe Illustrator 26.3.1, SVG Export Plug-In . SVG Version: 6.00 Build 0)  -->
<svg version="1.1" id="Слой_1" xmlns="http://www.w3.org/2000/svg" xmlns:xlink="http://www.w3.org/1999/xlink" x="0px" y="0px"
	 viewBox="0 0 48 48" style="enable-background:new 0 0 48 48;" xml:space="preserve">
<path d="M27,20.2c0-0.8-0.3-1.5-0.9-2.1s-1.3-0.9-2.1-0.9c-0.3,0-0.5,0-0.7,0.1s-0.4,0.2-0.6,0.3l3.9,3.9c0.1-0.2,0.2-0.4,0.3-0.6
	C27,20.7,27,20.5,27,20.2z M34.9,29.9l-1.2-1.1c1-1.5,1.7-3,2.2-4.4s0.7-2.7,0.7-3.8c0-3.8-1.2-6.9-3.6-9.4s-5.4-3.7-9.1-3.7
	c-1.7,0-3.2,0.3-4.6,0.8s-2.7,1.3-3.8,2.3l-1-1.1c1.2-1.1,2.7-2,4.3-2.6C20.5,6.3,22.2,6,24,6c4,0,7.3,1.4,10.1,4.1
	s4.1,6.2,4.1,10.5c0,1.4-0.3,2.9-0.8,4.5C36.8,26.6,36,28.2,34.9,29.9z M30.8,33L12.5,14.8c-0.4,0.9-0.7,1.8-0.9,2.8s-0.3,2-0.3,3.1
	c0,2.6,1.1,5.6,3.4,9c2.3,3.5,5.4,6.9,9.2,10.3c1.3-1.1,2.5-2.3,3.7-3.5C28.8,35.3,29.8,34.2,30.8,33z M42.5,44.8L31.8,34.1
	c-1,1.3-2.2,2.5-3.5,3.9c-1.3,1.3-2.7,2.6-4.3,4c-4.7-4.2-8.2-8-10.6-11.6s-3.6-6.9-3.6-9.8c0-1.3,0.1-2.5,0.4-3.7
	c0.3-1.2,0.7-2.3,1.2-3.3L3.8,6l1.1-1.2l38.8,38.8C43.6,43.6,42.5,44.8,42.5,44.8z"/>
</svg>
