<?xml version="1.0" encoding="utf-8"?>
<!-- Generator: Adobe Illustrator 26.3.1, SVG Export Plug-In . SVG Version: 6.00 Build 0)  -->
<svg version="1.1" id="Слой_1" xmlns="http://www.w3.org/2000/svg" xmlns:xlink="http://www.w3.org/1999/xlink" x="0px" y="0px"
	 viewBox="0 0 48 48" style="enable-background:new 0 0 48 48;" xml:space="preserve">
<path d="M24,18.4c0.7,0,1.3-0.3,1.9-0.8c0.5-0.5,0.8-1.1,0.8-1.9c0-0.7-0.3-1.3-0.8-1.9C25.4,13.3,24.8,13,24,13
	c-0.7,0-1.3,0.3-1.9,0.8c-0.5,0.5-0.8,1.1-0.8,1.9c0,0.7,0.3,1.3,0.8,1.9C22.7,18.2,23.3,18.4,24,18.4z M24,26.7
	c-1,0-1.9-0.3-2.7-0.9c-0.8-0.6-1.4-1.5-1.7-2.5c-0.2,0.1-0.4,0.1-0.6,0.1s-0.4,0-0.6,0c-1.2,0-2.3-0.4-3.1-1.3
	C14.4,21.2,14,20.2,14,19c0-0.6,0.1-1.2,0.4-1.7c0.3-0.6,0.6-1.1,1-1.6c-0.4-0.5-0.7-1-1-1.6C14.2,13.5,14,13,14,12.4
	c0-1.3,0.4-2.3,1.3-3.2c0.9-0.9,1.9-1.3,3.1-1.3c0.2,0,0.4,0,0.7,0c0.3,0,0.5,0.1,0.7,0.1c0.3-1,0.9-1.9,1.6-2.5
	C22.1,5.1,23,4.8,24,4.8s1.9,0.3,2.7,0.9c0.8,0.6,1.3,1.4,1.6,2.5c0.2-0.1,0.4-0.1,0.7-0.1c0.3,0,0.5,0,0.7,0c1.2,0,2.2,0.4,3.1,1.3
	c0.9,0.9,1.3,1.9,1.3,3.1c0,0.6-0.1,1.2-0.4,1.7c-0.2,0.6-0.6,1.1-1,1.5c0.4,0.5,0.7,1,1,1.6c0.2,0.5,0.4,1.1,0.4,1.7
	c0,1.3-0.4,2.3-1.3,3.2c-0.9,0.9-1.9,1.3-3.1,1.3c-0.2,0-0.4,0-0.7,0s-0.5-0.1-0.7-0.1c-0.3,1.1-0.8,1.9-1.6,2.5
	C25.9,26.4,25,26.7,24,26.7z M24,41.7c0-1.8,0.4-3.6,1.3-5.4c0.9-1.8,2-3.4,3.4-4.8c1.4-1.4,3-2.6,4.8-3.4c1.8-0.9,3.6-1.3,5.4-1.3
	c0,1.8-0.4,3.6-1.3,5.4c-0.9,1.8-2,3.4-3.4,4.8c-1.4,1.4-3,2.6-4.8,3.4C27.6,41.3,25.8,41.7,24,41.7z M25.8,39.9
	c2.9-0.8,5.4-2.2,7.4-4.1c2-1.9,3.3-4.4,4.1-7.4c-3,0.8-5.4,2.2-7.4,4.1C27.9,34.5,26.5,37,25.8,39.9z M24,41.7
	c0-1.8-0.4-3.6-1.3-5.4c-0.9-1.8-2-3.4-3.4-4.8c-1.4-1.4-3-2.6-4.8-3.4c-1.8-0.9-3.6-1.3-5.4-1.3c0,1.8,0.4,3.6,1.3,5.4
	c0.9,1.8,2,3.4,3.4,4.8c1.4,1.4,3,2.6,4.8,3.4C20.4,41.3,22.2,41.7,24,41.7z M22.2,39.9c-2.9-0.8-5.4-2.2-7.4-4.1
	c-2-1.9-3.3-4.4-4.1-7.4c2.9,0.8,5.4,2.2,7.3,4.1C20.1,34.5,21.5,37,22.2,39.9z M29.7,21.9c0.8,0,1.5-0.3,2-0.8
	c0.6-0.6,0.8-1.2,0.8-2c0-0.6-0.2-1.1-0.5-1.6s-0.8-0.8-1.4-0.9L28.2,16c-0.1,0.4-0.1,0.7-0.2,1s-0.2,0.6-0.4,0.9
	c-0.2,0.3-0.4,0.6-0.6,0.8c-0.2,0.3-0.5,0.5-0.8,0.7l1.7,1.7c0.2,0.3,0.5,0.5,0.8,0.6C29,21.8,29.3,21.9,29.7,21.9z M28.2,15.6
	l2.4-0.6c0.6-0.1,1-0.5,1.4-0.9c0.3-0.5,0.5-1,0.5-1.6c0-0.8-0.3-1.5-0.8-2c-0.6-0.6-1.2-0.8-2-0.9c-0.4,0-0.7,0.1-1,0.2
	c-0.3,0.1-0.6,0.4-0.8,0.6l-1.7,1.7c0.3,0.2,0.5,0.4,0.8,0.6c0.2,0.2,0.4,0.5,0.6,0.8s0.3,0.6,0.5,0.9
	C28.1,14.9,28.2,15.2,28.2,15.6z M22.1,12c0.3-0.1,0.7-0.2,1-0.3s0.6-0.1,1-0.1c0.3,0,0.6,0,1,0.1c0.3,0.1,0.7,0.2,1,0.3L27,9.1
	c0.2-0.7,0-1.4-0.6-1.9c-0.6-0.6-1.4-0.8-2.2-0.8c-0.9,0-1.6,0.3-2.2,0.8c-0.6,0.6-0.8,1.2-0.6,1.9C21.2,9.1,22,12,22.1,12z
	 M24,25.2c0.9,0,1.6-0.3,2.2-0.8c0.6-0.6,0.8-1.2,0.6-1.9l-0.8-3c-0.3,0.1-0.7,0.3-1,0.3c-0.3,0.1-0.6,0.1-1,0.1c-0.3,0-0.6,0-1-0.1
	s-0.7-0.2-1-0.3l-0.9,2.9c-0.2,0.7,0,1.4,0.6,1.9S23.1,25.2,24,25.2z M19.8,15.6c0-0.4,0.1-0.7,0.2-1s0.2-0.6,0.4-0.9
	c0.2-0.3,0.4-0.5,0.6-0.8c0.2-0.2,0.5-0.5,0.8-0.7l-1.7-1.7c-0.2-0.3-0.5-0.5-0.8-0.6s-0.6-0.2-1-0.2c-0.8,0-1.5,0.3-2,0.8
	c-0.6,0.6-0.8,1.2-0.8,2c0,0.6,0.2,1.1,0.5,1.6s0.8,0.8,1.4,0.9C17.3,15,19.8,15.6,19.8,15.6z M18.3,21.9c0.4,0,0.7-0.1,1-0.2
	s0.6-0.4,0.8-0.6l1.7-1.7c-0.3-0.2-0.5-0.4-0.8-0.7c-0.2-0.2-0.4-0.5-0.6-0.8s-0.3-0.6-0.4-1c-0.1-0.3-0.2-0.7-0.2-1l-2.4,0.6
	c-0.6,0.1-1,0.5-1.4,0.9c-0.3,0.5-0.5,1-0.5,1.6c0,0.8,0.3,1.5,0.8,2C16.8,21.6,17.5,21.9,18.3,21.9z"/>
</svg>
