<?xml version="1.0" encoding="utf-8"?>
<!-- Generator: Adobe Illustrator 26.3.1, SVG Export Plug-In . SVG Version: 6.00 Build 0)  -->
<svg version="1.1" id="Слой_1" xmlns="http://www.w3.org/2000/svg" xmlns:xlink="http://www.w3.org/1999/xlink" x="0px" y="0px"
	 viewBox="0 0 48 48" style="enable-background:new 0 0 48 48;" xml:space="preserve">
<path d="M10.1,40.3V14.4h9.1V7.5L24,3l4.8,4.5v14.9h9.1v17.8H10.1V40.3z M11.6,38.8h6.6v-6.6h-6.6V38.8z M11.6,30.6h6.6V24h-6.6
	V30.6z M11.6,22.5h6.6v-6.6h-6.6V22.5z M20.7,38.8h6.6v-6.6h-6.6V38.8z M20.7,30.6h6.6V24h-6.6V30.6z M20.7,22.5h6.6v-6.6h-6.6V22.5
	z M20.7,14.4h6.6V7.8h-6.6V14.4z M29.8,38.8h6.6v-6.6h-6.6C29.8,32.2,29.8,38.8,29.8,38.8z M29.8,30.6h6.6V24h-6.6
	C29.8,24,29.8,30.6,29.8,30.6z"/>
</svg>
