<?xml version="1.0" encoding="utf-8"?>
<!-- Generator: Adobe Illustrator 26.3.1, SVG Export Plug-In . SVG Version: 6.00 Build 0)  -->
<svg version="1.1" id="Слой_1" xmlns="http://www.w3.org/2000/svg" xmlns:xlink="http://www.w3.org/1999/xlink" x="0px" y="0px"
	 viewBox="0 0 48 48" style="enable-background:new 0 0 48 48;" xml:space="preserve">
<path d="M37.4,33.1L36.3,32c0.6-1.1,1.2-2.3,1.6-3.7c0.4-1.4,0.6-2.8,0.6-4.1c0-4-1.4-7.4-4.3-10.3C31.4,11,28,9.6,24,9.6
	c-1.4,0-2.7,0.2-4.1,0.6c-1.4,0.4-2.6,1-3.7,1.6l-1.1-1.1c1.2-0.8,2.4-1.5,3.8-1.9s2.8-0.7,4.3-0.9V5.2h1.5V8
	c4.4,0.4,7.9,2,10.6,4.7C38,15.4,39.6,19,40,23.3h2.8v1.5H40c-0.2,1.5-0.5,2.9-0.9,4.2C38.8,30.4,38.2,31.8,37.4,33.1z M23.2,43
	v-2.8c-4.4-0.4-7.9-1.9-10.6-4.7s-4.3-6.3-4.7-10.6H5.1v-1.5h2.8C8,21.5,8.4,19.8,9,18.2c0.6-1.6,1.4-3,2.4-4.3L5.8,8.3L7,7.1l34,34
	l-1.2,1.2l-5.6-5.7c-1.2,1-2.6,1.8-4.3,2.4c-1.6,0.6-3.3,1-5.2,1.1V43H23.2z M24,38.6c1.7,0,3.3-0.3,5-0.9c1.6-0.6,3-1.3,4.1-2.2
	L12.6,15c-0.8,1.1-1.6,2.4-2.2,4c-0.6,1.6-0.9,3.3-0.9,5.1c0,4,1.4,7.4,4.3,10.3S20,38.6,24,38.6z"/>
</svg>
