<?xml version="1.0" encoding="utf-8"?>
<!-- Generator: Adobe Illustrator 26.3.1, SVG Export Plug-In . SVG Version: 6.00 Build 0)  -->
<svg version="1.1" id="Слой_1" xmlns="http://www.w3.org/2000/svg" xmlns:xlink="http://www.w3.org/1999/xlink" x="0px" y="0px"
	 viewBox="0 0 48 48" style="enable-background:new 0 0 48 48;" xml:space="preserve">
<path d="M6,40V19L20,8.4l8.6,6.4c-0.3,0.1-0.6,0.2-0.9,0.3s-0.6,0.2-0.8,0.4L20,10.3L7.5,19.8v18.7h9.2l0,0V40H6z M21,40v-2.7
	c0-0.5,0.1-0.9,0.4-1.4c0.3-0.4,0.6-0.7,1-1c1.5-0.9,3-1.5,4.6-2c1.6-0.4,3.3-0.6,5-0.6s3.3,0.2,5,0.6c1.6,0.4,3.1,1.1,4.6,2
	c0.4,0.3,0.8,0.6,1,1c0.3,0.4,0.4,0.9,0.4,1.4V40H21z M22.5,38.5h19.1v-1.8c-1.5-0.9-3-1.5-4.6-2s-3.2-0.8-4.9-0.8s-3.3,0.3-4.9,0.8
	s-3.1,1.2-4.6,2.1C22.5,36.8,22.5,38.5,22.5,38.5z M32,28.2c-1.4,0-2.6-0.5-3.5-1.5S27,24.6,27,23.2s0.5-2.6,1.5-3.5
	c1-1,2.2-1.5,3.5-1.5s2.6,0.5,3.5,1.5c1,1,1.5,2.2,1.5,3.5c0,1.4-0.5,2.6-1.5,3.5C34.6,27.7,33.4,28.2,32,28.2z M32,26.7
	c1,0,1.8-0.3,2.5-1s1-1.5,1-2.5s-0.3-1.8-1-2.5s-1.5-1-2.5-1s-1.8,0.3-2.5,1s-1,1.5-1,2.5s0.3,1.8,1,2.5C30.2,26.3,31,26.7,32,26.7z
	"/>
</svg>
