<?xml version="1.0" encoding="utf-8"?>
<!-- Generator: Adobe Illustrator 26.3.1, SVG Export Plug-In . SVG Version: 6.00 Build 0)  -->
<svg version="1.1" id="Слой_1" xmlns="http://www.w3.org/2000/svg" xmlns:xlink="http://www.w3.org/1999/xlink" x="0px" y="0px"
	 viewBox="0 0 48 48" style="enable-background:new 0 0 48 48;" xml:space="preserve">
<path d="M11,38.2c-1.4,0-2.6-0.5-3.7-1.5c-1-1-1.5-2.2-1.5-3.7H3.4V12.8c0-0.8,0.3-1.4,0.8-2c0.5-0.5,1.2-0.8,2-0.8h26.9v7.4h4.2
	l7.3,9.8V33h-3c0,1.4-0.5,2.7-1.5,3.7s-2.2,1.5-3.7,1.5c-1.4,0-2.7-0.5-3.7-1.5s-1.5-2.2-1.5-3.7h-15c0,1.5-0.5,2.7-1.5,3.7
	C13.7,37.7,12.4,38.2,11,38.2z M11,36.7c1,0,1.9-0.4,2.6-1.1c0.7-0.7,1.1-1.6,1.1-2.6s-0.4-1.9-1.1-2.6c-0.7-0.7-1.6-1.1-2.6-1.1
	s-1.9,0.4-2.6,1.1s-1,1.6-1,2.6s0.4,1.9,1.1,2.6C9.1,36.3,10,36.7,11,36.7z M4.9,31.5H6c0.3-1,0.9-1.9,1.8-2.6s2-1.1,3.2-1.1
	c1.1,0,2.2,0.4,3.1,1.1c1,0.7,1.6,1.6,1.9,2.6h15.5v-20H6.2c-0.3,0-0.6,0.1-0.8,0.4C5.1,12.2,5,12.4,5,12.7L4.9,31.5L4.9,31.5z
	 M36.4,36.7c1,0,1.9-0.4,2.6-1.1c0.7-0.7,1.1-1.6,1.1-2.6s-0.4-1.9-1.1-2.6s-1.6-1.1-2.6-1.1s-1.9,0.4-2.6,1.1
	c-0.7,0.7-1.1,1.6-1.1,2.6s0.4,1.9,1.1,2.6S35.4,36.7,36.4,36.7z M33.1,27.3h9.8l-6.4-8.4h-3.4C33.1,18.9,33.1,27.3,33.1,27.3z"/>
</svg>
