<?xml version="1.0" encoding="utf-8"?>
<!-- Generator: Adobe Illustrator 26.3.1, SVG Export Plug-In . SVG Version: 6.00 Build 0)  -->
<svg version="1.1" id="Слой_1" xmlns="http://www.w3.org/2000/svg" xmlns:xlink="http://www.w3.org/1999/xlink" x="0px" y="0px"
	 viewBox="0 0 48 48" style="enable-background:new 0 0 48 48;" xml:space="preserve">
<path d="M23.2,43v-2.8c-4.4-0.4-7.9-1.9-10.6-4.7s-4.3-6.3-4.7-10.6H5.1v-1.5h2.8c0.4-4.4,1.9-7.9,4.7-10.6S18.9,8.4,23.2,8V5.2h1.5
	V8c4.4,0.4,7.9,2,10.6,4.7S39.6,19,40,23.3h2.8v1.5H40c-0.4,4.4-2,7.9-4.7,10.6s-6.3,4.3-10.6,4.7V43H23.2z M24,38.6
	c4,0,7.4-1.4,10.3-4.3c2.8-2.8,4.3-6.3,4.3-10.3s-1.4-7.4-4.3-10.3C31.4,11,28,9.6,24,9.6s-7.4,1.4-10.3,4.3
	c-2.8,2.8-4.3,6.3-4.3,10.3s1.4,7.4,4.3,10.3C16.6,37.2,20,38.6,24,38.6z"/>
</svg>
