<?xml version="1.0" encoding="utf-8"?>
<!-- Generator: Adobe Illustrator 26.3.1, SVG Export Plug-In . SVG Version: 6.00 Build 0)  -->
<svg version="1.1" id="Слой_1" xmlns="http://www.w3.org/2000/svg" xmlns:xlink="http://www.w3.org/1999/xlink" x="0px" y="0px"
	 viewBox="0 0 48 48" style="enable-background:new 0 0 48 48;" xml:space="preserve">
<path d="M16,35.9h5.5v-1.5h-4v-2.6h4v-5.5H16v1.5h4v2.5h-4V35.9z M30.5,35.9H32v-9.6h-1.5v4H28v-4h-1.5v5.5h4
	C30.5,31.8,30.5,35.9,30.5,35.9z M41,21.8v16.4c0,0.8-0.3,1.4-0.8,2c-0.5,0.5-1.2,0.8-2,0.8H9.7c-0.8,0-1.4-0.3-2-0.8
	C7.2,39.7,7,39,7,38.2V21.7c-1-0.7-1.6-1.5-1.9-2.6c-0.3-1-0.3-2.1,0-3.2l2-6.4C7.4,8.7,7.8,8,8.4,7.6S9.7,7,10.5,7h26.8
	c0.9,0,1.6,0.2,2.2,0.6c0.6,0.4,1.1,1,1.3,1.8l2.1,6.5c0.3,1.1,0.3,2.2,0,3.2C42.5,20.2,41.9,21.1,41,21.8z M28.4,21.2
	c1.3,0,2.3-0.4,3.1-1.1c0.7-0.7,1-1.5,0.9-2.3L31,8.5h-6.2v8.8c0,1,0.4,2,1.1,2.7C26.5,20.8,27.4,21.2,28.4,21.2z M19.3,21.2
	c1.1,0,2.1-0.4,2.8-1.1c0.8-0.8,1.1-1.7,1.1-2.8V8.5H17l-1.4,9.4c-0.1,0.7,0.2,1.4,0.9,2.1C17.1,20.8,18.1,21.2,19.3,21.2z
	 M10.3,21.2c1,0,1.8-0.3,2.5-1s1.1-1.5,1.2-2.4l1.3-9.3h-5.1c-0.4,0-0.8,0.1-1.1,0.3C8.9,9,8.7,9.3,8.6,9.7l-2,6.6
	c-0.4,1.2-0.2,2.3,0.5,3.4C7.8,20.7,8.9,21.2,10.3,21.2z M37.7,21.2c1.2,0,2.3-0.5,3.1-1.5s1-2.1,0.6-3.5l-2-6.7
	C39.2,9.2,39,9,38.7,8.8s-0.6-0.2-1.1-0.2h-5l1.3,9.3c0.2,1,0.6,1.8,1.3,2.4C35.9,20.9,36.7,21.2,37.7,21.2z M9.7,39.5h28.5
	c0.3,0,0.6-0.1,0.9-0.3c0.2-0.2,0.4-0.5,0.4-0.9V22.5c-0.2,0.1-0.5,0.1-0.8,0.2c-0.3,0-0.7,0.1-1,0.1c-0.9,0-1.6-0.2-2.4-0.6
	c-0.7-0.4-1.4-1-2.1-1.8c-0.5,0.7-1.1,1.3-1.9,1.7c-0.8,0.4-1.7,0.7-2.9,0.7c-0.8,0-1.6-0.2-2.3-0.5c-0.7-0.4-1.4-0.9-2.2-1.7
	c-0.7,0.7-1.4,1.3-2.2,1.6c-0.8,0.4-1.6,0.6-2.4,0.6c-0.9,0-1.7-0.2-2.5-0.5s-1.5-0.9-2.1-1.9c-1,1-1.9,1.6-2.7,1.9
	s-1.4,0.4-1.8,0.4c-0.3,0-0.7,0-1-0.1c-0.3,0-0.6-0.1-0.8-0.2v15.7c0,0.4,0.1,0.7,0.4,0.9C9.1,39.3,9.4,39.5,9.7,39.5z M38.2,39.5
	H9.7H38.2z"/>
</svg>
