<?xml version="1.0" encoding="utf-8"?>
<!-- Generator: Adobe Illustrator 26.3.1, SVG Export Plug-In . SVG Version: 6.00 Build 0)  -->
<svg version="1.1" id="Слой_1" xmlns="http://www.w3.org/2000/svg" xmlns:xlink="http://www.w3.org/1999/xlink" x="0px" y="0px"
	 viewBox="0 0 48 48" style="enable-background:new 0 0 48 48;" xml:space="preserve">
<path d="M24,8.5L38,19v21H10V19L24,8.5z M24,28.8c1.3,0,2.5-0.5,3.4-1.4s1.4-2.1,1.4-3.4s-0.5-2.5-1.4-3.4s-2.1-1.4-3.4-1.4
	s-2.5,0.5-3.4,1.4s-1.4,2.1-1.4,3.4s0.5,2.5,1.4,3.4C21.6,28.3,22.7,28.8,24,28.8z M24,27.2c-0.9,0-1.7-0.3-2.3-0.9
	c-0.6-0.6-0.9-1.4-0.9-2.3s0.3-1.7,0.9-2.3c0.6-0.6,1.4-0.9,2.3-0.9s1.7,0.3,2.3,0.9c0.6,0.6,0.9,1.4,0.9,2.3s-0.3,1.7-0.9,2.3
	C25.7,26.9,24.9,27.2,24,27.2z M23.9,34.8c-1.9,0-3.8,0.3-5.6,1c-1.8,0.6-3.5,1.5-5,2.7h21.2c-1.5-1.2-3.2-2.1-5-2.8
	C27.7,35.1,25.8,34.8,23.9,34.8z M11.5,19.7v18.4c1.7-1.5,3.6-2.7,5.7-3.6s4.3-1.3,6.6-1.3s4.6,0.4,6.7,1.3c2.2,0.8,4.1,2,5.9,3.6
	V19.7L24,10.5L11.5,19.7z"/>
</svg>
