<?xml version="1.0" encoding="utf-8"?>
<!-- Generator: Adobe Illustrator 26.3.1, SVG Export Plug-In . SVG Version: 6.00 Build 0)  -->
<svg version="1.1" id="Слой_1" xmlns="http://www.w3.org/2000/svg" xmlns:xlink="http://www.w3.org/1999/xlink" x="0px" y="0px"
	 viewBox="0 0 48 48" style="enable-background:new 0 0 48 48;" xml:space="preserve">
<path d="M24,35.3c1.8,0,3.4-0.6,4.7-1.7c1.3-1.1,2.2-2.6,2.4-4.3c-0.3-0.3-0.6-0.5-0.9-0.8s-0.6-0.5-0.9-0.8
	c0.1,0.2,0.1,0.3,0.1,0.5s0,0.3,0,0.5c-0.1,1.5-0.7,2.7-1.8,3.7c-1,1-2.3,1.5-3.8,1.5c-1.6,0-3-0.5-4.1-1.6
	c-1.1-1.1-1.6-2.4-1.6-4.1c0-1.6,0.5-2.9,1.6-4c1-1.1,2.4-1.6,4-1.7c0.2,0,0.4,0,0.6,0.1c0.2,0,0.4,0.1,0.6,0.2
	c-0.2-0.3-0.5-0.6-0.7-0.9s-0.4-0.6-0.6-0.9c-2,0.1-3.6,0.8-4.9,2.2c-1.3,1.4-2,3.1-2,5.1s0.7,3.8,2.1,5.1
	C20.2,34.6,22,35.3,24,35.3z M18.8,10H21c0,0.2-0.1,0.5-0.1,0.8s0,0.5,0,0.8h-1.3l-3.7,4.2H8.8c-0.4,0-0.7,0.1-0.9,0.4
	c-0.2,0.2-0.3,0.5-0.3,0.9v22.3c0,0.4,0.1,0.7,0.3,0.9s0.5,0.3,0.9,0.3h30.5c0.4,0,0.7-0.1,0.9-0.3s0.3-0.5,0.3-0.9v-9.6
	c0.3-0.2,0.5-0.5,0.8-0.7c0.3-0.3,0.5-0.5,0.7-0.8v11.1c0,0.8-0.3,1.4-0.8,2c-0.5,0.5-1.2,0.8-2,0.8H8.8c-0.8,0-1.4-0.3-2-0.8
	C6.3,40.7,6,40,6,39.2V16.9c0-0.8,0.3-1.4,0.8-2c0.5-0.5,1.2-0.8,2-0.8h6.4L18.8,10z M36,27.3c4.1-3.7,6.8-6.6,8.2-8.8
	s2.2-4.4,2.2-6.7c0-3.3-1-5.9-3.1-7.8c-2.1-2-4.6-2.9-7.3-2.9S30.8,2,28.8,4c-2.1,1.9-3.1,4.5-3.1,7.8c0,2.2,0.7,4.4,2.2,6.7
	S31.9,23.6,36,27.3z M36,25.2c-3.8-3.6-6.3-6.3-7.3-8.2c-1-1.9-1.5-3.6-1.5-5.2c0-3,0.9-5.3,2.8-6.8c1.9-1.6,3.9-2.3,6-2.3
	c2.2,0,4.2,0.8,6,2.3c1.9,1.6,2.8,3.8,2.8,6.8c0,1.6-0.5,3.3-1.5,5.2S39.8,21.7,36,25.2z M33.4,15.7l1-3.2l-2.7-2.2H35l1-3.2
	l1.1,3.2h3.2l-2.7,2.2l1,3.2l-2.7-2C36,13.7,33.4,15.7,33.4,15.7z"/>
</svg>
