<?xml version="1.0" encoding="utf-8"?>
<!-- Generator: Adobe Illustrator 26.3.1, SVG Export Plug-In . SVG Version: 6.00 Build 0)  -->
<svg version="1.1" id="Слой_1" xmlns="http://www.w3.org/2000/svg" xmlns:xlink="http://www.w3.org/1999/xlink" x="0px" y="0px"
	 viewBox="0 0 48 48" style="enable-background:new 0 0 48 48;" xml:space="preserve">
<path d="M24,40.4L6.7,14.3c2.5-2,5.2-3.5,8.2-4.6C17.8,8.6,20.8,8,24,8s6.2,0.6,9.1,1.7c2.9,1.1,5.7,2.7,8.2,4.6L24,40.4z M24,37.7
	l15.3-23C37,13.2,34.6,11.9,32,11c-2.6-1-5.3-1.4-8-1.4s-5.4,0.5-8,1.4c-2.6,1-5,2.2-7.3,3.7L24,37.7z M17.5,18.7
	c0.5,0,1-0.2,1.4-0.5c0.4-0.4,0.6-0.8,0.6-1.3s-0.2-1-0.6-1.4s-0.8-0.6-1.4-0.6c-0.5,0-1,0.2-1.3,0.6c-0.4,0.4-0.5,0.8-0.5,1.4
	s0.2,1,0.5,1.3C16.5,18.5,16.9,18.7,17.5,18.7z M24,29.2c0.5,0,1-0.2,1.4-0.5c0.4-0.4,0.6-0.8,0.6-1.3s-0.2-1-0.6-1.3
	c-0.4-0.4-0.8-0.6-1.4-0.6c-0.5,0-1,0.2-1.3,0.5c-0.4,0.4-0.5,0.8-0.5,1.3s0.2,1,0.5,1.3C23,29,23.5,29.2,24,29.2z"/>
</svg>
