<?xml version="1.0" encoding="utf-8"?>
<!-- Generator: Adobe Illustrator 26.3.1, SVG Export Plug-In . SVG Version: 6.00 Build 0)  -->
<svg version="1.1" id="Слой_1" xmlns="http://www.w3.org/2000/svg" xmlns:xlink="http://www.w3.org/1999/xlink" x="0px" y="0px"
	 viewBox="0 0 48 48" style="enable-background:new 0 0 48 48;" xml:space="preserve">
<path d="M14.6,42c-0.7,0-1.3-0.2-1.9-0.7c-0.5-0.5-0.8-1-0.9-1.8L8,6h32l-3.8,33.5c-0.1,0.7-0.4,1.3-0.9,1.8S34.1,42,33.4,42H14.6z
	 M10.9,18.3l2.4,21.1c0,0.3,0.2,0.6,0.4,0.8s0.5,0.3,0.8,0.3h18.9c0.3,0,0.6-0.1,0.8-0.3s0.4-0.5,0.4-0.8L37,18.3
	C37.1,18.3,10.9,18.3,10.9,18.3z M10.7,16.8h26.6l1-9.2H9.7C9.7,7.5,10.7,16.8,10.7,16.8z M24,34.8c-0.8,0-1.5-0.3-2.1-0.9
	c-0.6-0.6-0.9-1.3-0.9-2.1c0-0.8,0.2-1.7,0.6-2.6s1.2-2.1,2.4-3.6c1.2,1.5,1.9,2.7,2.4,3.6c0.4,0.9,0.6,1.8,0.6,2.6
	s-0.3,1.5-0.9,2.1C25.5,34.6,24.8,34.8,24,34.8z M24,36.4c1.3,0,2.4-0.4,3.2-1.3c0.9-0.9,1.3-1.9,1.3-3.2c0-1.2-0.3-2.4-1-3.7
	c-0.7-1.3-1.9-2.9-3.6-5c-1.7,2-2.9,3.7-3.6,5s-1,2.5-1,3.7c0,1.3,0.4,2.3,1.3,3.2C21.6,35.9,22.7,36.4,24,36.4z M12.5,40.5h23.1
	H12.5z"/>
</svg>
