<?xml version="1.0" encoding="utf-8"?>
<!-- Generator: Adobe Illustrator 26.3.1, SVG Export Plug-In . SVG Version: 6.00 Build 0)  -->
<svg version="1.1" id="Слой_1" xmlns="http://www.w3.org/2000/svg" xmlns:xlink="http://www.w3.org/1999/xlink" x="0px" y="0px"
	 viewBox="0 0 48 48" style="enable-background:new 0 0 48 48;" xml:space="preserve">
<path d="M24,42.2c-2.3-1.9-4.8-3.3-7.6-4.4s-5.5-1.7-8.4-1.9V17.5c3,0.2,5.8,1,8.5,2.3c2.7,1.4,5.2,3.1,7.5,5.1
	c2.2-2,4.7-3.7,7.5-5.1c2.7-1.4,5.6-2.2,8.5-2.3v18.4c-2.9,0.2-5.7,0.8-8.4,1.9S26.3,40.4,24,42.2z M24,40.3c2.2-1.6,4.5-2.9,7-3.9
	s4.9-1.6,7.5-1.9V19.2c-2.5,0.4-5,1.3-7.5,2.6c-2.5,1.3-4.8,3-7,5.2c-2.3-2.2-4.7-4-7.1-5.3s-4.9-2.1-7.4-2.5v15.4
	c2.6,0.3,5.1,0.9,7.5,1.9S21.8,38.7,24,40.3z M24.1,16.9c-1.7,0-3.2-0.6-4.5-1.8c-1.2-1.2-1.9-2.7-1.9-4.5s0.6-3.3,1.9-4.5
	c1.2-1.2,2.7-1.9,4.5-1.8c1.7,0,3.2,0.6,4.5,1.8c1.2,1.2,1.9,2.7,1.9,4.5s-0.6,3.2-1.9,4.5C27.3,16.3,25.8,16.9,24.1,16.9z
	 M24.1,15.3c1.3,0,2.4-0.5,3.4-1.4c0.9-0.9,1.4-2.1,1.4-3.4s-0.5-2.4-1.4-3.4c-0.9-0.9-2.1-1.4-3.4-1.4s-2.4,0.5-3.4,1.4
	c-0.9,0.9-1.4,2.1-1.4,3.4s0.5,2.4,1.4,3.4S22.8,15.3,24.1,15.3z"/>
</svg>
