<?xml version="1.0" encoding="utf-8"?>
<!-- Generator: Adobe Illustrator 26.3.1, SVG Export Plug-In . SVG Version: 6.00 Build 0)  -->
<svg version="1.1" id="Слой_1" xmlns="http://www.w3.org/2000/svg" xmlns:xlink="http://www.w3.org/1999/xlink" x="0px" y="0px"
	 viewBox="0 0 48 48" style="enable-background:new 0 0 48 48;" xml:space="preserve">
<path d="M26,40.1c-2,0-3.9-0.4-5.8-1.1c-1.9-0.7-3.6-1.8-5-3.1l1.1-1.1c1.4,1.2,2.9,2.1,4.5,2.8s3.4,1,5.3,1c4,0,7.5-1.4,10.3-4.3
	c2.8-2.8,4.2-6.3,4.2-10.3s-1.4-7.4-4.3-10.3C33.4,10.9,30,9.5,26,9.5s-7.4,1.4-10.3,4.3S11.5,20,11.5,24v3l4.2-4.2l1.1,1.1L10.7,30
	l-6.1-6.1l1.1-1.1l4.2,4.3V24c0-2.2,0.4-4.3,1.3-6.3c0.8-2,2-3.7,3.4-5.1c1.5-1.5,3.2-2.6,5.1-3.4c2-0.8,4-1.3,6.3-1.3
	c2.2,0,4.3,0.4,6.3,1.3c2,0.8,3.7,2,5.1,3.4c1.5,1.5,2.6,3.2,3.4,5.1c0.8,2,1.3,4,1.3,6.3c0,4.5-1.6,8.3-4.7,11.4
	C34.3,38.5,30.5,40.1,26,40.1z M22,31.4c-0.5,0-0.9-0.2-1.2-0.5c-0.3-0.3-0.5-0.7-0.5-1.2v-6c0-0.5,0.2-0.9,0.6-1.2
	c0.4-0.3,0.9-0.5,1.4-0.5v-2.3c0-1,0.4-1.9,1.1-2.6S25,16,26,16s1.9,0.4,2.6,1.1s1.1,1.6,1.1,2.6V22c0.5,0,1,0.2,1.4,0.5
	s0.6,0.7,0.6,1.2v6c0,0.5-0.2,0.9-0.5,1.2c-0.3,0.3-0.7,0.5-1.2,0.5H22z M23.7,22.1h4.7v-2.3c0-0.7-0.2-1.2-0.7-1.7s-1-0.7-1.7-0.7
	s-1.2,0.2-1.7,0.7c-0.4,0.5-0.7,1-0.7,1.7v2.3H23.7z"/>
</svg>
