<?xml version="1.0" encoding="utf-8"?>
<!-- Generator: Adobe Illustrator 26.3.1, SVG Export Plug-In . SVG Version: 6.00 Build 0)  -->
<svg version="1.1" id="Слой_1" xmlns="http://www.w3.org/2000/svg" xmlns:xlink="http://www.w3.org/1999/xlink" x="0px" y="0px"
	 viewBox="0 0 48 48" style="enable-background:new 0 0 48 48;" xml:space="preserve">
<path d="M17.8,18.1h12.5v-4.3c0-1.8-0.6-3.3-1.8-4.5c-1.2-1.2-2.7-1.8-4.4-1.8c-1.7,0-3.2,0.6-4.4,1.8c-1.2,1.2-1.8,2.7-1.8,4.5
	C17.8,13.8,17.8,18.1,17.8,18.1z M26.9,42H12.8c-0.8,0-1.4-0.3-2-0.8c-0.5-0.5-0.8-1.2-0.8-2V20.9c0-0.8,0.3-1.4,0.8-2
	c0.5-0.5,1.2-0.8,2-0.8h3.5v-4.3c0-2.2,0.8-4.1,2.2-5.6S21.8,6,24,6s4,0.8,5.5,2.3s2.2,3.4,2.2,5.6v4.3h3.5c0.8,0,1.4,0.3,2,0.8
	c0.5,0.5,0.8,1.2,0.8,2v3.2c-0.2,0-0.4-0.1-0.7-0.1s-0.6,0-0.9,0v-3c0-0.4-0.1-0.7-0.3-0.9c-0.2-0.2-0.5-0.3-0.9-0.3H12.8
	c-0.4,0-0.7,0.1-0.9,0.3c-0.2,0.2-0.3,0.5-0.3,0.9v18.3c0,0.4,0.1,0.7,0.3,0.9s0.5,0.3,0.9,0.3h13.1c0.1,0.3,0.2,0.5,0.4,0.8
	C26.4,41.5,26.6,41.8,26.9,42z M36,43.1c-2.2,0-4-0.8-5.5-2.3s-2.3-3.4-2.3-5.5c0-2.2,0.8-4,2.3-5.6c1.5-1.5,3.4-2.3,5.5-2.3
	c2.2,0,4,0.8,5.5,2.3s2.3,3.4,2.3,5.5c0,2.2-0.8,4-2.3,5.5C40,42.3,38.2,43.1,36,43.1z M39.5,39.8l1.1-1l-3.9-3.7v-5.7h-1.6v6.3
	C35.1,35.6,39.5,39.8,39.5,39.8z M11.5,31.2v9.2V19.7V31.2z"/>
</svg>
