<?xml version="1.0" encoding="utf-8"?>
<!-- Generator: Adobe Illustrator 26.3.1, SVG Export Plug-In . SVG Version: 6.00 Build 0)  -->
<svg version="1.1" id="Слой_1" xmlns="http://www.w3.org/2000/svg" xmlns:xlink="http://www.w3.org/1999/xlink" x="0px" y="0px"
	 viewBox="0 0 48 48" style="enable-background:new 0 0 48 48;" xml:space="preserve">
<path d="M4,34c0-2.8,0.5-5.3,1.6-7.8c1-2.4,2.5-4.6,4.3-6.4s3.9-3.2,6.4-4.3c2.4-1,5-1.6,7.8-1.6s5.3,0.5,7.8,1.6
	c2.4,1,4.6,2.5,6.4,4.3c1.8,1.8,3.2,3.9,4.3,6.4c1,2.4,1.6,5,1.6,7.8h-1.5c0-5.1-1.8-9.5-5.4-13.1c-3.6-3.6-7.9-5.4-13.1-5.4
	c-5.1,0-9.5,1.8-13.1,5.4s-5.4,8-5.4,13.1H4z M11.1,34c0-3.6,1.2-6.7,3.7-9.2s5.6-3.7,9.2-3.7s6.7,1.2,9.2,3.7s3.7,5.6,3.7,9.2h-1.5
	c0-3.2-1.1-5.9-3.3-8.1s-4.9-3.3-8.1-3.3s-5.9,1.1-8.1,3.3s-3.3,4.9-3.3,8.1C12.6,34,11.1,34,11.1,34z"/>
</svg>
