<?xml version="1.0" encoding="utf-8"?>
<!-- Generator: Adobe Illustrator 26.3.1, SVG Export Plug-In . SVG Version: 6.00 Build 0)  -->
<svg version="1.1" id="Слой_1" xmlns="http://www.w3.org/2000/svg" xmlns:xlink="http://www.w3.org/1999/xlink" x="0px" y="0px"
	 viewBox="0 0 48 48" style="enable-background:new 0 0 48 48;" xml:space="preserve">
<path d="M23.2,33.1h1.5v-8.2h8.2v-1.5h-8.2v-8.2h-1.5v8.2H15v1.5h8.2C23.2,24.9,23.2,33.1,23.2,33.1z M24,42c-2.5,0-4.8-0.5-7-1.4
	s-4.1-2.2-5.7-3.8s-2.9-3.5-3.9-5.7C6.5,28.8,6,26.5,6,24s0.5-4.8,1.4-7s2.2-4.1,3.8-5.7s3.5-2.9,5.7-3.8C19.2,6.5,21.5,6,24,6
	s4.8,0.5,7,1.4s4.1,2.2,5.7,3.8c1.6,1.6,2.9,3.5,3.8,5.7c0.9,2.2,1.4,4.5,1.4,7v14.7c0,0.9-0.3,1.7-1,2.3c-0.6,0.6-1.4,1-2.3,1H24
	V42z M24,40.5c4.6,0,8.5-1.6,11.7-4.8s4.8-7.1,4.8-11.7s-1.6-8.5-4.8-11.7S28.6,7.5,24,7.5s-8.5,1.6-11.7,4.8S7.5,19.4,7.5,24
	s1.6,8.5,4.8,11.7S19.4,40.5,24,40.5z"/>
</svg>
