<?xml version="1.0" encoding="utf-8"?>
<!-- Generator: Adobe Illustrator 26.3.1, SVG Export Plug-In . SVG Version: 6.00 Build 0)  -->
<svg version="1.1" id="Слой_1" xmlns="http://www.w3.org/2000/svg" xmlns:xlink="http://www.w3.org/1999/xlink" x="0px" y="0px"
	 viewBox="0 0 48 48" style="enable-background:new 0 0 48 48;" xml:space="preserve">
<path d="M7.5,23.6c0,2.9,1,5.3,3,7.2c2,2,4.4,2.9,7.3,2.8h2.3l-3.6-3.7l1.1-1.1l5.4,5.5L17.6,40l-1.1-1.1l3.5-3.7h-2.3
	c-3.2,0.1-6-1.1-8.3-3.3c-2.3-2.3-3.4-5-3.4-8.3c0-3.2,1.1-5.9,3.3-8.2s4.9-3.4,8-3.4h6.3v1.5h-6.3c-2.7,0-5,1-6.9,2.9
	C8.5,18.5,7.5,20.8,7.5,23.6z M28.4,35.2v-1.5H42v1.5H28.4z M28.4,24.4v-1.6H42v1.6H28.4z M27.9,13.5V12H42v1.5H27.9z"/>
</svg>
