<?xml version="1.0" encoding="utf-8"?>
<!-- Generator: Adobe Illustrator 26.3.1, SVG Export Plug-In . SVG Version: 6.00 Build 0)  -->
<svg version="1.1" id="Слой_1" xmlns="http://www.w3.org/2000/svg" xmlns:xlink="http://www.w3.org/1999/xlink" x="0px" y="0px"
	 viewBox="0 0 48 48" style="enable-background:new 0 0 48 48;" xml:space="preserve">
<path d="M8.7,32.5v-25V32.5z M7.2,39.2V8.8c0-0.8,0.2-1.4,0.8-2C8.5,6.3,9.2,6,9.9,6h20.5c0.7,0,1.4,0.3,1.9,0.8s0.8,1.2,0.8,1.9
	v1.5c-0.3,0.1-0.5,0.3-0.8,0.5c-0.2,0.2-0.5,0.4-0.7,0.6V8.8c0-0.4-0.1-0.7-0.3-0.9c-0.2-0.2-0.5-0.3-0.9-0.3H9.9
	C9.6,7.5,9.3,7.7,9,7.9C8.8,8.1,8.7,8.4,8.7,8.8v23.7h21.7c0.4,0,0.7-0.1,0.9-0.3c0.2-0.2,0.3-0.5,0.3-0.9v-6.5
	c0.3,0.2,0.5,0.4,0.7,0.6s0.5,0.3,0.8,0.5v5.5c0,0.7-0.3,1.4-0.8,1.9s-1.2,0.8-1.9,0.8H12.3C12.3,34,7.2,39.2,7.2,39.2z M14.2,26.8
	h6v-1.5h-6C14.2,25.3,14.2,26.8,14.2,26.8z M37.2,22.8c-1.3,0-2.4-0.5-3.4-1.4c-0.9-0.9-1.4-2.1-1.4-3.4s0.5-2.4,1.4-3.4
	c0.9-0.9,2.1-1.4,3.4-1.4c0.6,0,1.2,0.1,1.7,0.3s1,0.5,1.5,1V3h5.8v1.5H42V18c0,1.3-0.5,2.4-1.4,3.4C39.7,22.3,38.5,22.8,37.2,22.8z
	 M14.2,20.8h12v-1.5h-12C14.2,19.3,14.2,20.8,14.2,20.8z M14.2,14.8h12v-1.5h-12C14.2,13.3,14.2,14.8,14.2,14.8z"/>
</svg>
