<?xml version="1.0" encoding="utf-8"?>
<!-- Generator: Adobe Illustrator 26.3.1, SVG Export Plug-In . SVG Version: 6.00 Build 0)  -->
<svg version="1.1" id="Слой_1" xmlns="http://www.w3.org/2000/svg" xmlns:xlink="http://www.w3.org/1999/xlink" x="0px" y="0px"
	 viewBox="0 0 48 48" style="enable-background:new 0 0 48 48;" xml:space="preserve">
<path d="M12.2,30.5l-1.5-1.6c1.9-1.9,4-3.3,6.2-4.3c2.2-1,4.6-1.5,7.2-1.5s5,0.5,7.2,1.5s4.3,2.4,6.2,4.3L36,30.5
	c-1.7-1.7-3.6-3-5.6-3.9s-4.1-1.3-6.2-1.3S20,25.7,18,26.6C15.8,27.4,13.9,28.7,12.2,30.5z M3.7,22l-1.5-1.5
	c2.8-2.8,6.1-5.1,9.8-6.8s7.7-2.6,12-2.6s8.3,0.9,12,2.6s7,4,9.8,6.8L44.3,22c-2.8-2.7-5.8-4.8-9.3-6.3c-3.4-1.6-7.1-2.3-11-2.3
	s-7.6,0.8-11,2.3C9.5,17.2,6.4,19.3,3.7,22z M24,42l-1.6-3.6l-3.7-1.6l3.7-1.6l1.6-3.7l1.6,3.7l3.7,1.6l-3.7,1.6L24,42z"/>
</svg>
