<?xml version="1.0" encoding="utf-8"?>
<!-- Generator: Adobe Illustrator 26.3.1, SVG Export Plug-In . SVG Version: 6.00 Build 0)  -->
<svg version="1.1" id="Слой_1" xmlns="http://www.w3.org/2000/svg" xmlns:xlink="http://www.w3.org/1999/xlink" x="0px" y="0px"
	 viewBox="0 0 48 48" style="enable-background:new 0 0 48 48;" xml:space="preserve">
<path d="M29.2,27.2h1.5v-4.6h4.6v-1.5h-4.6v-4.6h-1.5v4.6h-4.6v1.5h4.6C29.2,22.6,29.2,27.2,29.2,27.2z M8.8,38
	c-0.8,0-1.4-0.3-2-0.8C6.3,36.7,6,36,6,35.2V12.8c0-0.8,0.3-1.4,0.8-2C7.3,10.3,8,10,8.8,10h30.5c0.8,0,1.4,0.3,2,0.8
	c0.5,0.5,0.8,1.2,0.8,2v22.5c0,0.8-0.3,1.4-0.8,2c-0.5,0.5-1.2,0.8-2,0.8L8.8,38L8.8,38z M7.5,32.2h32.9V12.8c0-0.3-0.1-0.6-0.4-0.8
	c-0.3-0.3-0.5-0.4-0.8-0.4H8.8c-0.3,0-0.6,0.1-0.8,0.4c-0.3,0.3-0.4,0.5-0.4,0.8L7.5,32.2L7.5,32.2z"/>
</svg>
