<?xml version="1.0" encoding="utf-8"?>
<!-- Generator: Adobe Illustrator 26.3.1, SVG Export Plug-In . SVG Version: 6.00 Build 0)  -->
<svg version="1.1" id="Слой_1" xmlns="http://www.w3.org/2000/svg" xmlns:xlink="http://www.w3.org/1999/xlink" x="0px" y="0px"
	 viewBox="0 0 48 48" style="enable-background:new 0 0 48 48;" xml:space="preserve">
<path d="M8.8,38c-0.8,0-1.4-0.3-2-0.8C6.3,36.7,6,36,6,35.2V12.8c0-0.8,0.3-1.4,0.8-2C7.3,10.3,8,10,8.8,10h30.5
	c0.8,0,1.4,0.3,2,0.8c0.5,0.5,0.8,1.2,0.8,2v6.4h-1.5v-6.3L24,23.7L7.5,12.8v22.4c0,0.4,0.1,0.7,0.3,0.9c0.2,0.2,0.5,0.3,0.9,0.3
	h23.2V38H8.8z M24,21.8l15.8-10.3H8.2L24,21.8z M7.5,36.5v-25V36.5z M37.1,38c-0.5,0-0.9-0.2-1.2-0.5s-0.5-0.7-0.5-1.2v-6
	c0-0.4,0.2-0.8,0.6-1.1c0.4-0.3,0.9-0.5,1.4-0.5v-2.4c0-1,0.4-1.9,1.1-2.6c0.7-0.7,1.6-1.1,2.6-1.1s1.9,0.4,2.6,1.1
	c0.7,0.7,1.1,1.6,1.1,2.6v2.4c0.6,0,1,0.2,1.4,0.5s0.6,0.7,0.6,1.1v6c0,0.5-0.2,0.9-0.5,1.2S45.6,38,45.1,38H37.1z M38.8,28.7h4.7
	v-2.4c0-0.6-0.2-1.2-0.7-1.6c-0.5-0.5-1-0.7-1.7-0.7s-1.2,0.2-1.7,0.7s-0.7,1-0.7,1.7v2.3H38.8z"/>
</svg>
