<?xml version="1.0" encoding="utf-8"?>
<!-- Generator: Adobe Illustrator 26.3.1, SVG Export Plug-In . SVG Version: 6.00 Build 0)  -->
<svg version="1.1" id="Слой_1" xmlns="http://www.w3.org/2000/svg" xmlns:xlink="http://www.w3.org/1999/xlink" x="0px" y="0px"
	 viewBox="0 0 48 48" style="enable-background:new 0 0 48 48;" xml:space="preserve">
<path d="M39,9v9.5h-1.5v-6.8L26.6,22.4c0.7,1,1.3,2,1.7,3.1c0.4,1.1,0.7,2.3,0.7,3.5c0,2.8-1,5.2-2.9,7.1C24.2,38,21.8,39,19,39
	s-5.2-1-7.1-2.9S9,31.8,9,29s1-5.2,2.9-7.1S16.2,19,19,19c1.2,0,2.3,0.2,3.4,0.7c1.1,0.4,2.1,1,3.1,1.7l10.8-10.8h-6.9V9H39z
	 M19,20.5c-2.4,0-4.4,0.8-6,2.5c-1.6,1.6-2.5,3.6-2.5,6s0.8,4.4,2.5,6c1.6,1.6,3.6,2.5,6,2.5s4.4-0.8,6-2.5c1.6-1.6,2.5-3.6,2.5-6
	s-0.8-4.4-2.5-6C23.4,21.4,21.4,20.5,19,20.5z"/>
</svg>
