<?xml version="1.0" encoding="utf-8"?>
<!-- Generator: Adobe Illustrator 26.3.1, SVG Export Plug-In . SVG Version: 6.00 Build 0)  -->
<svg version="1.1" id="Слой_1" xmlns="http://www.w3.org/2000/svg" xmlns:xlink="http://www.w3.org/1999/xlink" x="0px" y="0px"
	 viewBox="0 0 48 48" style="enable-background:new 0 0 48 48;" xml:space="preserve">
<path d="M20.9,43l-3.2-24.9c-0.1-0.8,0.1-1.5,0.7-2.2c0.6-0.6,1.3-0.9,2.1-0.9h6.9c0.8,0,1.5,0.3,2.1,0.9s0.8,1.3,0.7,2.2L27.1,43
	H20.9z M24,11.3c-0.9,0-1.7-0.3-2.3-0.9c-0.6-0.6-0.9-1.4-0.9-2.3s0.3-1.7,0.9-2.3s1.4-0.9,2.3-0.9s1.7,0.3,2.3,0.9
	c0.6,0.6,0.9,1.4,0.9,2.3s-0.3,1.6-0.9,2.3C25.7,11,24.9,11.3,24,11.3z"/>
</svg>
