<?xml version="1.0" encoding="utf-8"?>
<!-- Generator: Adobe Illustrator 26.3.1, SVG Export Plug-In . SVG Version: 6.00 Build 0)  -->
<svg version="1.1" id="Слой_1" xmlns="http://www.w3.org/2000/svg" xmlns:xlink="http://www.w3.org/1999/xlink" x="0px" y="0px"
	 viewBox="0 0 48 48" style="enable-background:new 0 0 48 48;" xml:space="preserve">
<path d="M6,35.9v-1.5h19.1v1.5H6z M6,26.1v-1.5h8.9v1.5H6z M6,16.3v-1.5h8.9v1.5H6z M40.9,36L33,28.2c-0.7,0.6-1.5,1-2.4,1.4
	c-0.9,0.3-1.8,0.5-2.7,0.5c-2.2,0-4.2-0.8-5.7-2.3c-1.6-1.6-2.4-3.4-2.4-5.7c0-2.2,0.8-4.1,2.4-5.7s3.5-2.3,5.7-2.3s4.2,0.8,5.7,2.3
	c1.6,1.6,2.4,3.4,2.4,5.7c0,0.9-0.2,1.8-0.5,2.7c-0.3,0.9-0.8,1.7-1.4,2.4L42,35L40.9,36z M27.8,28.5c1.8,0,3.4-0.6,4.7-1.9
	c1.3-1.3,1.9-2.8,1.9-4.6c0-1.8-0.6-3.3-1.9-4.6c-1.3-1.3-2.8-1.9-4.7-1.9s-3.4,0.6-4.7,1.9c-1.3,1.3-1.9,2.8-1.9,4.6
	c0,1.8,0.6,3.3,1.9,4.6C24.4,27.9,26,28.5,27.8,28.5z"/>
</svg>
