<?xml version="1.0" encoding="utf-8"?>
<!-- Generator: Adobe Illustrator 26.3.1, SVG Export Plug-In . SVG Version: 6.00 Build 0)  -->
<svg version="1.1" id="Слой_1" xmlns="http://www.w3.org/2000/svg" xmlns:xlink="http://www.w3.org/1999/xlink" x="0px" y="0px"
	 viewBox="0 0 48 48" style="enable-background:new 0 0 48 48;" xml:space="preserve">
<path d="M20,22.6c-1.6,0-3-0.5-4.1-1.6s-1.6-2.5-1.6-4.1c0-1.7,0.5-3,1.6-4.1s2.5-1.6,4.1-1.6s3,0.5,4.1,1.6s1.6,2.5,1.6,4.1
	c0,1.7-0.5,3.1-1.6,4.1C23,22.1,21.6,22.6,20,22.6z M6,37.1v-2.9c0-0.9,0.2-1.7,0.7-2.4c0.5-0.7,1.1-1.2,2-1.6c2-0.9,3.8-1.6,5.5-2
	s3.6-0.7,5.8-0.7h0.4c0.1,0,0.3,0,0.4,0c-0.1,0.3-0.2,0.5-0.2,0.8c0,0.2-0.1,0.5-0.1,0.8H20c-2.1,0-3.9,0.2-5.5,0.5
	c-1.6,0.4-3.3,1-5,1.9c-0.7,0.4-1.2,0.8-1.5,1.2c-0.3,0.4-0.4,0.9-0.4,1.4v1.4h13c0.1,0.3,0.1,0.5,0.3,0.8c0.1,0.3,0.2,0.5,0.4,0.7
	C21.1,37.1,6,37.1,6,37.1z M33,38.2l-0.2-2.5c-0.6-0.1-1.3-0.3-1.9-0.7c-0.6-0.3-1.1-0.7-1.5-1.2l-2.1,0.7l-0.5-0.8l1.9-1.5
	c-0.2-0.5-0.3-1.1-0.3-1.7c0-0.7,0.1-1.2,0.3-1.8l-1.8-1.5l0.5-0.8l2.1,0.8c0.4-0.5,0.9-0.9,1.5-1.2c0.6-0.3,1.2-0.5,1.9-0.6
	l0.2-2.5h1.1l0.2,2.5c0.6,0.1,1.2,0.3,1.8,0.6c0.6,0.3,1.1,0.7,1.5,1.2l2.1-0.7l0.5,0.8l-1.8,1.5c0.2,0.5,0.3,1.1,0.3,1.8
	c0,0.6-0.1,1.2-0.3,1.7l1.8,1.5l-0.5,0.8l-2.1-0.7c-0.4,0.5-0.9,0.9-1.5,1.2s-1.2,0.6-1.8,0.7l-0.2,2.5C34.1,38.2,33,38.2,33,38.2z
	 M33.5,34.1c1.1,0,1.9-0.3,2.6-1c0.7-0.7,1-1.5,1-2.6s-0.3-1.9-1-2.6s-1.5-1-2.6-1c-1,0-1.9,0.3-2.6,1s-1,1.5-1,2.6
	c0,1,0.3,1.9,1,2.6S32.5,34.1,33.5,34.1z M20,21.1c1.2,0,2.2-0.4,3-1.2c0.8-0.8,1.2-1.8,1.2-3s-0.4-2.2-1.2-3
	c-0.8-0.8-1.8-1.2-3-1.2s-2.2,0.4-3,1.2s-1.2,1.8-1.2,3s0.4,2.2,1.2,3C17.8,20.7,18.8,21.1,20,21.1z"/>
</svg>
