<?xml version="1.0" encoding="utf-8"?>
<!-- Generator: Adobe Illustrator 26.3.1, SVG Export Plug-In . SVG Version: 6.00 Build 0)  -->
<svg version="1.1" id="Слой_1" xmlns="http://www.w3.org/2000/svg" xmlns:xlink="http://www.w3.org/1999/xlink" x="0px" y="0px"
	 viewBox="0 0 48 48" style="enable-background:new 0 0 48 48;" xml:space="preserve">
<path d="M10.4,15.8V8.2H12v5.1c1.6-1.6,3.4-2.9,5.4-3.9c2-0.9,4.2-1.4,6.5-1.4c4.5,0,8.3,1.5,11.4,4.6S40,19.5,40,23.9v0.8h-1.5
	v-0.8c0-4-1.4-7.4-4.2-10.2S28,9.5,24,9.5c-2,0-4,0.4-5.8,1.3c-1.8,0.9-3.5,2-4.9,3.5H18v1.5H10.4z M8,25.1h1.5
	c0.3,3.7,1.7,6.7,4.3,9.3c2.6,2.5,5.7,3.9,9.3,4.1h0.3l0.9,1.5c-0.2,0-0.3,0-0.5,0s-0.4,0-0.6,0c-4.1-0.1-7.6-1.6-10.5-4.5
	C9.8,32.7,8.2,29.2,8,25.1z M28.5,29.4l-5.2-5.1V13.9h1.5v9.7l4.5,4.4L28.5,29.4z M38.2,46.8l-0.3-2.6c-0.7-0.1-1.4-0.4-2.1-0.7
	s-1.2-0.8-1.7-1.4l-2.2,0.6l-0.5-0.8l1.9-1.6c-0.3-0.6-0.4-1.3-0.4-2s0.1-1.4,0.4-2l-2-1.7l0.6-0.9l2.3,0.7c0.5-0.6,1.1-1,1.7-1.4
	c0.6-0.3,1.3-0.6,2-0.7l0.3-2.6h1.1l0.3,2.6c0.8,0.1,1.5,0.4,2.2,0.8c0.6,0.4,1.2,0.8,1.7,1.4l2.4-0.7l0.5,0.9l-2,1.7
	c0.2,0.7,0.3,1.3,0.3,2s-0.1,1.2-0.3,1.8l2.1,1.7L46,42.7L43.5,42c-0.4,0.6-1,1.1-1.7,1.5s-1.4,0.6-2.2,0.7l-0.3,2.6H38.2z
	 M38.8,42.6c1.2,0,2.3-0.4,3.1-1.2s1.2-1.8,1.2-3.1c0-1.2-0.4-2.2-1.2-3.1C41,34.4,40,34,38.8,34s-2.3,0.4-3.1,1.2s-1.2,1.8-1.2,3.1
	c0,1.2,0.4,2.2,1.2,3.1C36.5,42.2,37.6,42.6,38.8,42.6z"/>
</svg>
