<?xml version="1.0" encoding="utf-8"?>
<!-- Generator: Adobe Illustrator 26.3.1, SVG Export Plug-In . SVG Version: 6.00 Build 0)  -->
<svg version="1.1" id="Слой_1" xmlns="http://www.w3.org/2000/svg" xmlns:xlink="http://www.w3.org/1999/xlink" x="0px" y="0px"
	 viewBox="0 0 48 48" style="enable-background:new 0 0 48 48;" xml:space="preserve">
<path d="M12.6,21.4l-0.1-1.5c-0.7-0.1-1.4-0.4-2.1-0.7c-0.7-0.4-1.2-0.8-1.7-1.4l-1.4,0.7l-0.8-1.3l1.3-1.1
	c-0.3-0.7-0.4-1.5-0.4-2.3s0.1-1.5,0.4-2.3l-1.3-1.1l0.8-1.3l1.4,0.7c0.5-0.6,1.1-1,1.7-1.4c0.7-0.4,1.4-0.6,2.1-0.7l0.1-1.5h1.5
	l0.1,1.5c0.7,0.1,1.4,0.4,2.1,0.7C17,8.9,17.6,9.3,18,9.9l1.4-0.7l0.8,1.3l-1.2,1c0.3,0.7,0.4,1.5,0.4,2.3s-0.1,1.5-0.4,2.3l1.3,1.1
	l-0.8,1.3L18,17.7c-0.5,0.6-1.1,1-1.7,1.4c-0.7,0.4-1.4,0.6-2.1,0.7l-0.1,1.5C14.1,21.4,12.6,21.4,12.6,21.4z M13.4,18.4
	c1.3,0,2.3-0.4,3.2-1.3c0.9-0.9,1.3-2,1.3-3.2c0-1.3-0.4-2.4-1.3-3.3s-2-1.3-3.2-1.3c-1.3,0-2.4,0.4-3.3,1.3c-0.9,0.9-1.3,2-1.3,3.3
	s0.4,2.3,1.3,3.2C11,17.9,12.1,18.4,13.4,18.4z M32.4,42l-0.3-1.5c-1.1-0.1-2.1-0.4-3-1c-0.9-0.5-1.7-1.3-2.3-2.1L25.5,38l-0.8-1.3
	l1.1-0.9c-0.5-1-0.7-2-0.7-3.1c0-1.1,0.2-2.1,0.7-3.2l-1.1-0.9l0.8-1.3l1.4,0.5c0.6-0.9,1.4-1.6,2.3-2.1s1.9-0.9,3-1l0.3-1.5H34
	l0.2,1.5c1.1,0.1,2.1,0.4,3,0.9c0.9,0.6,1.7,1.3,2.3,2.2l1.4-0.5l0.8,1.3l-1.2,0.9c0.5,1,0.7,2.1,0.7,3.2c0,1.1-0.2,2.1-0.7,3.1
	l1.2,0.9L40.9,38l-1.4-0.6c-0.6,0.9-1.4,1.6-2.3,2.2s-1.9,0.8-3,0.9L34,42H32.4z M33.2,39c1.8,0,3.3-0.6,4.6-1.9s1.9-2.8,1.9-4.5
	c0-1.8-0.6-3.3-1.9-4.6c-1.3-1.3-2.8-1.9-4.6-1.9s-3.3,0.6-4.5,1.9s-1.9,2.8-1.9,4.6c0,1.8,0.6,3.3,1.9,4.5S31.4,39,33.2,39z"/>
</svg>
