<?xml version="1.0" encoding="utf-8"?>
<!-- Generator: Adobe Illustrator 26.3.1, SVG Export Plug-In . SVG Version: 6.00 Build 0)  -->
<svg version="1.1" id="Слой_1" xmlns="http://www.w3.org/2000/svg" xmlns:xlink="http://www.w3.org/1999/xlink" x="0px" y="0px"
	 viewBox="0 0 48 48" style="enable-background:new 0 0 48 48;" xml:space="preserve">
<path d="M30.9,21.6v-0.1V21.6v-7.9V21.6z M10,38.5c-0.5,0.2-0.9,0.2-1.3-0.1C8.2,38.1,8,37.7,8,37.2V12.8c0-0.4,0.1-0.7,0.3-1
	s0.4-0.5,0.7-0.6l8.8-3.1l12.5,4.4l7.7-3c0.5-0.2,0.9-0.2,1.3,0c0.4,0.2,0.7,0.6,0.7,1.1v14.6c-0.2-0.3-0.5-0.6-0.7-0.8
	c-0.2-0.3-0.5-0.5-0.8-0.8V10.9L31,13.7v7.9c-0.3,0-0.5,0.1-0.8,0.1c-0.2,0-0.5,0.1-0.8,0.2v-8.2L18.6,10v25.2
	C18.6,35.1,10,38.5,10,38.5z M9.5,37.1l7.5-2.9V10l-7.5,2.5V37.1z M32.1,37.1c1.4,0,2.5-0.5,3.5-1.4c0.9-0.9,1.4-2.1,1.4-3.4
	c0-1.4-0.5-2.5-1.4-3.5c-0.9-0.9-2.1-1.4-3.5-1.4c-1.4,0-2.5,0.5-3.4,1.4s-1.4,2.1-1.4,3.5c0,1.4,0.5,2.6,1.4,3.5
	C29.6,36.6,30.7,37.1,32.1,37.1z M32.1,38.6c-1.8,0-3.3-0.6-4.5-1.9c-1.2-1.2-1.9-2.8-1.9-4.5c0-1.8,0.6-3.3,1.9-4.5
	c1.2-1.2,2.8-1.9,4.5-1.9c1.8,0,3.3,0.6,4.5,1.9c1.2,1.2,1.9,2.8,1.9,4.5c0,0.8-0.1,1.5-0.3,2.1c-0.2,0.7-0.6,1.3-1,1.8L42,41l-1,1
	l-4.9-4.8c-0.6,0.5-1.2,0.8-1.9,1.1C33.6,38.5,32.9,38.6,32.1,38.6z M17.1,10v24.3V10z"/>
</svg>
