<?xml version="1.0" encoding="utf-8"?>
<!-- Generator: Adobe Illustrator 26.3.1, SVG Export Plug-In . SVG Version: 6.00 Build 0)  -->
<svg version="1.1" id="Слой_1" xmlns="http://www.w3.org/2000/svg" xmlns:xlink="http://www.w3.org/1999/xlink" x="0px" y="0px"
	 viewBox="0 0 48 48" style="enable-background:new 0 0 48 48;" xml:space="preserve">
<path d="M4.9,43.1l3-10.3c-0.6-1.4-1.1-2.8-1.5-4.2c-0.4-1.4-0.5-2.9-0.5-4.4c0-2.5,0.5-4.8,1.4-7s2.2-4.1,3.9-5.7
	c1.6-1.6,3.6-2.9,5.7-3.9c2.2-0.9,4.5-1.4,7-1.4s4.8,0.5,7,1.4s4.1,2.2,5.7,3.9c1.6,1.6,2.9,3.6,3.9,5.7c0.9,2.2,1.4,4.5,1.4,7
	s-0.5,4.8-1.4,7s-2.2,4.1-3.9,5.7c-1.6,1.6-3.6,2.9-5.7,3.9c-2.2,0.9-4.5,1.4-7,1.4c-1.5,0-3-0.2-4.4-0.5c-1.4-0.4-2.9-0.9-4.2-1.5
	L4.9,43.1z M7.3,40.7l6.6-1.9c0.5-0.1,1-0.2,1.4-0.2s0.9,0.1,1.4,0.4c1.1,0.5,2.3,0.9,3.5,1.2s2.4,0.4,3.7,0.4
	c4.6,0,8.5-1.6,11.7-4.8c3.2-3.2,4.8-7.1,4.8-11.7s-1.6-8.5-4.8-11.7s-7.1-4.8-11.7-4.8s-8.5,1.6-11.7,4.8s-4.8,7.1-4.8,11.7
	c0,1.2,0.1,2.5,0.4,3.7C8,29,8.4,30.1,9,31.2c0.2,0.4,0.4,0.9,0.4,1.4s0,1-0.2,1.5C9.2,34.1,7.3,40.7,7.3,40.7z M23.2,31.1h1.5v-6.2
	h6.2v-1.5h-6.2v-6.2h-1.5v6.2H17v1.5h6.2V31.1z"/>
</svg>
