<?xml version="1.0" encoding="utf-8"?>
<!-- Generator: Adobe Illustrator 26.3.1, SVG Export Plug-In . SVG Version: 6.00 Build 0)  -->
<svg version="1.1" id="Слой_1" xmlns="http://www.w3.org/2000/svg" xmlns:xlink="http://www.w3.org/1999/xlink" x="0px" y="0px"
	 viewBox="0 0 48 48" style="enable-background:new 0 0 48 48;" xml:space="preserve">
<path d="M10.8,40c-0.8,0-1.4-0.3-2-0.8C8.3,38.7,8,38,8,37.2V10.8c0-0.8,0.3-1.4,0.8-2C9.3,8.3,10,8,10.8,8h26.5
	c0.8,0,1.4,0.3,2,0.8c0.5,0.5,0.8,1.2,0.8,2v26.5c0,0.8-0.3,1.4-0.8,2c-0.5,0.5-1.2,0.8-2,0.8L10.8,40L10.8,40z M10.8,38.5h26.5
	c0.3,0,0.6-0.1,0.8-0.4c0.3-0.3,0.4-0.5,0.4-0.8V10.8c0-0.3-0.1-0.6-0.4-0.8c-0.3-0.3-0.5-0.4-0.8-0.4H10.8c-0.3,0-0.6,0.1-0.8,0.4
	c-0.3,0.3-0.4,0.5-0.4,0.8v26.5c0,0.3,0.1,0.6,0.4,0.8S10.5,38.5,10.8,38.5z M9.5,9.5v28.9V9.5z M16.1,17.6c0.4,0,0.8-0.1,1.1-0.4
	c0.3-0.3,0.5-0.7,0.5-1.1s-0.2-0.8-0.5-1.1s-0.7-0.5-1.1-0.5S15.3,14.7,15,15s-0.4,0.7-0.4,1.1c0,0.4,0.1,0.8,0.4,1.1
	C15.3,17.5,15.7,17.6,16.1,17.6z M24,17.6c0.4,0,0.8-0.1,1.1-0.4c0.3-0.3,0.5-0.7,0.5-1.1s-0.2-0.8-0.5-1.1s-0.7-0.5-1.1-0.5
	s-0.7,0.2-1,0.5s-0.4,0.7-0.4,1.1c0,0.4,0.1,0.8,0.4,1.1C23.3,17.5,23.6,17.6,24,17.6z M31.9,17.6c0.4,0,0.8-0.1,1.1-0.4
	s0.5-0.7,0.5-1.1S33.3,15.3,33,15s-0.7-0.5-1.1-0.5s-0.8,0.2-1.1,0.5c-0.3,0.3-0.5,0.7-0.5,1.1c0,0.4,0.2,0.8,0.5,1.1
	C31.2,17.5,31.5,17.6,31.9,17.6z M31.9,25.5c0.4,0,0.8-0.2,1.1-0.5s0.5-0.7,0.5-1.1s-0.2-0.8-0.5-1.1c-0.3-0.3-0.7-0.5-1.1-0.5
	s-0.8,0.2-1.1,0.5c-0.3,0.3-0.5,0.7-0.5,1.1s0.2,0.8,0.5,1.1C31.2,25.4,31.5,25.5,31.9,25.5z M24,25.5c0.4,0,0.8-0.2,1.1-0.5
	c0.3-0.3,0.5-0.7,0.5-1.1s-0.2-0.8-0.5-1.1c-0.3-0.3-0.7-0.5-1.1-0.5s-0.7,0.2-1,0.5s-0.4,0.7-0.4,1.1s0.1,0.8,0.4,1.1
	C23.3,25.4,23.6,25.5,24,25.5z M16.1,25.5c0.4,0,0.8-0.2,1.1-0.5c0.3-0.3,0.4-0.7,0.4-1.1s-0.1-0.8-0.4-1.1
	c-0.3-0.3-0.7-0.5-1.1-0.5s-0.7,0.2-1,0.5s-0.4,0.7-0.4,1.1s0.1,0.8,0.4,1.1C15.3,25.4,15.7,25.5,16.1,25.5z"/>
</svg>
