<?xml version="1.0" encoding="utf-8"?>
<!-- Generator: Adobe Illustrator 26.3.1, SVG Export Plug-In . SVG Version: 6.00 Build 0)  -->
<svg version="1.1" id="Слой_1" xmlns="http://www.w3.org/2000/svg" xmlns:xlink="http://www.w3.org/1999/xlink" x="0px" y="0px"
	 viewBox="0 0 48 48" style="enable-background:new 0 0 48 48;" xml:space="preserve">
<path d="M30.9,42.5L24,35.6l1.1-1.1l5.8,5.8l11.8-11.8l1.1,1.1L30.9,42.5z M23.9,21.8l15.7-10.3H8.2C8.2,11.5,23.9,21.8,23.9,21.8z
	 M23.9,23.6L7.5,12.8V35c0,0.4,0.1,0.7,0.3,0.9c0.2,0.2,0.5,0.3,0.9,0.3h10.7l1.5,1.5H8.8c-0.8,0-1.4-0.3-2-0.8
	c-0.5-0.5-0.8-1.2-0.8-2V12.8c0-0.8,0.3-1.4,0.8-2C7.3,10.3,8,10,8.8,10h30.4c0.8,0,1.4,0.3,2,0.8c0.5,0.5,0.8,1.2,0.8,2v11.5
	l-1.5,1.5v-13C40.4,12.8,23.9,23.6,23.9,23.6z"/>
</svg>
