<?xml version="1.0" encoding="utf-8"?>
<!-- Generator: Adobe Illustrator 26.3.1, SVG Export Plug-In . SVG Version: 6.00 Build 0)  -->
<svg version="1.1" id="Слой_1" xmlns="http://www.w3.org/2000/svg" xmlns:xlink="http://www.w3.org/1999/xlink" x="0px" y="0px"
	 viewBox="0 0 48 48" style="enable-background:new 0 0 48 48;" xml:space="preserve">
<path d="M26.2,40V28.2c0-0.8,0.3-1.4,0.8-1.9c0.6-0.5,1.2-0.8,1.9-0.8h10.3c0.8,0,1.4,0.3,2,0.8s0.8,1.2,0.8,1.9V40h-1.5V27.9
	c0-0.3-0.1-0.5-0.3-0.7C40,27.1,39.8,27,39.5,27h-4.7v9h-1.5v-9h-4.7c-0.3,0-0.5,0.1-0.7,0.3c-0.2,0.2-0.3,0.4-0.3,0.7v12
	C27.7,40,26.2,40,26.2,40z M10.8,40c-0.8,0-1.4-0.3-2-0.8C8.3,38.7,8,38,8,37.2V10.8c0-0.8,0.3-1.4,0.8-2C9.3,8.3,10,8,10.8,8h10.1
	c0.1-0.8,0.4-1.4,1-2c0.6-0.5,1.3-0.8,2.1-0.8c0.8,0,1.5,0.3,2.1,0.8s0.9,1.2,1,2h10.1c0.8,0,1.4,0.3,2,0.8c0.5,0.5,0.8,1.2,0.8,2
	v10.4h-1.5V10.8c0-0.3-0.1-0.6-0.4-0.8c-0.3-0.3-0.5-0.4-0.8-0.4H33v3.8H15.1V9.5h-4.3c-0.3,0-0.6,0.1-0.8,0.4
	c-0.3,0.3-0.4,0.5-0.4,0.8v26.5c0,0.3,0.1,0.6,0.4,0.8s0.5,0.4,0.8,0.4h11.1V40H10.8z M24,10c0.5,0,0.8-0.2,1.1-0.5
	c0.3-0.3,0.5-0.7,0.5-1.2s-0.2-0.8-0.5-1.1c-0.3-0.3-0.7-0.5-1.2-0.5s-0.8,0.2-1.1,0.5c-0.3,0.3-0.5,0.7-0.5,1.2s0.2,0.8,0.5,1.1
	C23.2,9.8,23.5,10,24,10z"/>
</svg>
