<?xml version="1.0" encoding="utf-8"?>
<!-- Generator: Adobe Illustrator 26.3.1, SVG Export Plug-In . SVG Version: 6.00 Build 0)  -->
<svg version="1.1" id="Слой_1" xmlns="http://www.w3.org/2000/svg" xmlns:xlink="http://www.w3.org/1999/xlink" x="0px" y="0px"
	 viewBox="0 0 48 48" style="enable-background:new 0 0 48 48;" xml:space="preserve">
<path d="M8.8,38c-0.8,0-1.4-0.3-2-0.8C6.3,36.7,6,36,6,35.2V12.8c0-0.8,0.3-1.4,0.8-2C7.3,10.3,8,10,8.8,10h20.6
	c0,0.2-0.1,0.5-0.1,0.8s0,0.5,0,0.8h-21L24,21.9l7.3-4.8c0.2,0.2,0.3,0.4,0.5,0.5c0.2,0.2,0.3,0.4,0.5,0.5L24,23.7l-16.5-11v22.5
	c0,0.4,0.1,0.7,0.3,0.9c0.2,0.2,0.5,0.3,0.9,0.3h30.5c0.4,0,0.7-0.1,0.9-0.3s0.3-0.5,0.3-0.9V19.9c0.3-0.1,0.5-0.2,0.8-0.3
	c0.2-0.1,0.5-0.2,0.8-0.4v16c0,0.8-0.3,1.4-0.8,2c-0.5,0.5-1.2,0.8-2,0.8H8.8z M7.5,11.5v24.9V11.5z M38,16.3
	c-1.3,0-2.4-0.5-3.4-1.4c-0.9-0.9-1.4-2.1-1.4-3.4s0.5-2.4,1.4-3.4c0.9-0.9,2.1-1.4,3.4-1.4c1.3,0,2.4,0.5,3.4,1.4
	c0.9,0.9,1.4,2.1,1.4,3.4s-0.5,2.4-1.4,3.4C40.4,15.8,39.3,16.3,38,16.3z"/>
</svg>
