<?xml version="1.0" encoding="utf-8"?>
<!-- Generator: Adobe Illustrator 26.3.1, SVG Export Plug-In . SVG Version: 6.00 Build 0)  -->
<svg version="1.1" id="Слой_1" xmlns="http://www.w3.org/2000/svg" xmlns:xlink="http://www.w3.org/1999/xlink" x="0px" y="0px"
	 viewBox="0 0 48 48" style="enable-background:new 0 0 48 48;" xml:space="preserve">
<path d="M24,34.2c-1.1,0-2.1-0.2-3.1-0.5s-2-0.8-2.9-1.4c-1.2-0.1-2.5-0.3-3.9-0.8c-1.3-0.5-2.6-1.2-3.7-2.2s-2-2.4-2.7-4.1
	s-1.1-3.8-1.1-6.4v-1.3c0-1.1,0.4-2,1.1-2.7s1.6-1.1,2.7-1.1c1,0,1.8,0.4,2.6,1.2c0.7,0.8,1.1,1.8,1.2,3c1-0.3,1.9-0.5,2.6-0.8
	c0.7-0.3,1.3-0.6,1.8-0.8c0.9-0.5,1.8-0.9,2.6-1.2c0.8-0.3,1.7-0.5,2.8-0.5c1.1,0,2,0.2,2.8,0.5s1.7,0.7,2.6,1.2
	c0.5,0.3,1.1,0.6,1.8,0.8c0.7,0.3,1.5,0.6,2.6,0.8c0.1-1.2,0.5-2.2,1.2-3s1.6-1.2,2.5-1.2c1.1,0,2,0.4,2.7,1.1
	c0.7,0.7,1.1,1.6,1.1,2.7v1.3c0,2.5-0.4,4.7-1.1,6.4s-1.6,3-2.7,4.1c-1.1,1-2.3,1.8-3.7,2.2c-1.3,0.5-2.6,0.7-3.9,0.8
	c-0.9,0.6-1.8,1-2.9,1.4C26.1,34,25.1,34.2,24,34.2z M16.1,30.8c-0.9-0.9-1.6-2.1-2.2-3.4C13.3,26,13,24.6,13,23.1v-5.5
	c0-0.7-0.2-1.3-0.7-1.7c-0.5-0.5-1.1-0.7-1.7-0.7c-0.7,0-1.2,0.2-1.7,0.7c-0.6,0.4-0.9,1-0.9,1.7v1.3c0,4.2,0.9,7.1,2.7,8.8
	C12.5,29.4,14.3,30.4,16.1,30.8z M24,32.9c2.7,0,4.9-1,6.9-2.9c1.9-1.9,2.9-4.2,2.9-6.9v-3.7c-1.2-0.3-2.2-0.6-3-0.9
	c-0.9-0.3-1.6-0.7-2.2-1c-0.9-0.5-1.7-0.9-2.4-1.1C25.5,16.1,24.7,16,24,16s-1.4,0.1-2.1,0.4c-0.7,0.2-1.5,0.6-2.3,1.1
	c-0.6,0.3-1.4,0.7-2.2,1c-0.9,0.3-1.9,0.6-3.1,0.9v3.7c0,2.6,1,4.9,2.9,6.9C19.1,31.9,21.4,32.9,24,32.9z M18.8,22.3
	c0.5-0.2,1-0.4,1.5-0.6s0.9-0.5,1.3-0.7s0.8-0.4,1.1-0.6c0.4-0.2,0.8-0.3,1.2-0.3c0.5,0,0.9,0.1,1.2,0.2c0.3,0.2,0.7,0.4,1.1,0.6
	s0.8,0.5,1.2,0.7c0.4,0.2,1,0.4,1.6,0.6v-1.4c-0.4-0.2-0.8-0.3-1.1-0.5c-0.3-0.2-0.6-0.3-0.9-0.5c-0.5-0.3-1-0.5-1.4-0.8
	c-0.5-0.2-1-0.3-1.7-0.3s-1.3,0.1-1.7,0.3c-0.5,0.2-1,0.5-1.4,0.8c-0.3,0.2-0.6,0.3-0.9,0.5s-0.7,0.3-1.1,0.5
	C18.8,20.9,18.8,22.3,18.8,22.3z M31.9,30.8c1.9-0.4,3.7-1.4,5.4-3.1c1.8-1.7,2.7-4.6,2.7-8.8v-1.3c0-0.7-0.2-1.3-0.7-1.7
	s-1.1-0.7-1.7-0.7c-0.7,0-1.2,0.2-1.7,0.7c-0.5,0.5-0.7,1.1-0.7,1.7v5.5c0,1.5-0.3,2.9-0.9,4.3C33.6,28.8,32.8,29.9,31.9,30.8z"/>
</svg>
