<?xml version="1.0" encoding="utf-8"?>
<!-- Generator: Adobe Illustrator 26.3.1, SVG Export Plug-In . SVG Version: 6.00 Build 0)  -->
<svg version="1.1" id="Слой_1" xmlns="http://www.w3.org/2000/svg" xmlns:xlink="http://www.w3.org/1999/xlink" x="0px" y="0px"
	 viewBox="0 0 48 48" style="enable-background:new 0 0 48 48;" xml:space="preserve">
<path d="M8.6,34.2l6.1-16.9L6.5,9l1.1-1.1l32.5,32.5L39,41.5L21.3,23.8l3.8,10.3h-1.7L21.3,28h-9.1l-2.1,6.1
	C10.1,34.2,8.6,34.2,8.6,34.2z M15.8,18.3l-3,8.4h8.1L19,21.5L15.8,18.3z M35.9,31.7c0.4-0.5,0.8-1.1,1.1-1.8
	c0.3-0.7,0.4-1.4,0.4-2.3c-0.5-0.3-1.2-0.5-1.9-0.6c-0.7-0.2-1.5-0.2-2.2-0.2c-0.4,0-0.7,0-1.1,0.1c-0.3,0.1-0.7,0.2-1,0.3l-1-1.1
	c0.4-0.2,0.9-0.3,1.4-0.4c0.5-0.1,1-0.1,1.6-0.1c0.8,0,1.5,0.1,2.3,0.2c0.7,0.2,1.4,0.4,2,0.6V25c0-1.4-0.3-2.5-1-3.3
	c-0.7-0.7-1.7-1.1-3-1.1c-0.7,0-1.3,0.1-2,0.3c-0.6,0.2-1.2,0.6-1.9,1.1l-1-0.9c0.7-0.6,1.5-1.1,2.2-1.3c0.7-0.3,1.6-0.4,2.6-0.4
	c1.8,0,3.1,0.5,4,1.4c0.9,1,1.3,2.4,1.3,4.3v8.5h-0.9C37.9,33.7,35.9,31.7,35.9,31.7z"/>
</svg>
