<?xml version="1.0" encoding="utf-8"?>
<!-- Generator: Adobe Illustrator 26.3.1, SVG Export Plug-In . SVG Version: 6.00 Build 0)  -->
<svg version="1.1" id="Слой_1" xmlns="http://www.w3.org/2000/svg" xmlns:xlink="http://www.w3.org/1999/xlink" x="0px" y="0px"
	 viewBox="0 0 48 48" style="enable-background:new 0 0 48 48;" xml:space="preserve">
<path d="M8.6,34.2L16,13.7h1.6l7.6,20.5h-1.7L21.3,28h-9.1l-2.1,6.1C10.1,34.2,8.6,34.2,8.6,34.2z M12.8,26.7h8.1l-4-11.3h-0.1
	C16.8,15.4,12.8,26.7,12.8,26.7z M32.3,34.6c-1.5,0-2.8-0.4-3.8-1.3S27,31.4,27,30.1c0-1.5,0.6-2.6,1.7-3.5s2.6-1.3,4.4-1.3
	c0.8,0,1.5,0.1,2.3,0.2c0.8,0.2,1.4,0.4,2,0.6V25c0-1.4-0.3-2.5-1-3.3c-0.7-0.7-1.7-1.1-3-1.1c-0.7,0-1.3,0.1-2,0.3
	c-0.6,0.2-1.2,0.6-1.9,1.1l-0.9-1c0.7-0.6,1.5-1,2.2-1.3s1.6-0.4,2.5-0.4c1.8,0,3.1,0.5,4,1.4c0.9,1,1.3,2.4,1.3,4.3v9h-1.4v-2H37
	c-0.5,0.9-1.2,1.6-2.1,2C34.2,34.4,33.3,34.6,32.3,34.6z M32.2,33.3c1.5,0,2.8-0.5,3.7-1.6c1-1.1,1.4-2.4,1.4-4.1
	c-0.5-0.3-1.2-0.5-1.9-0.7s-1.5-0.2-2.2-0.2c-1.5,0-2.6,0.3-3.5,0.9s-1.3,1.5-1.3,2.6c0,0.9,0.3,1.7,1,2.3S31.1,33.3,32.2,33.3z"/>
</svg>
