<?xml version="1.0" encoding="utf-8"?>
<!-- Generator: Adobe Illustrator 26.3.1, SVG Export Plug-In . SVG Version: 6.00 Build 0)  -->
<svg version="1.1" id="Слой_1" xmlns="http://www.w3.org/2000/svg" xmlns:xlink="http://www.w3.org/1999/xlink" x="0px" y="0px"
	 viewBox="0 0 48 48" style="enable-background:new 0 0 48 48;" xml:space="preserve">
<path d="M11.2,38V23c0-4.2,1.5-7.7,4.4-10.6S22,8,26.2,8s7.7,1.5,10.6,4.4s4.4,6.5,4.4,10.6s-1.5,7.7-4.4,10.6
	C34,36.5,30.4,38,26.2,38H11.2z M12.8,36.5h13.5c3.7,0,6.9-1.3,9.5-3.9s3.9-5.8,3.9-9.5s-1.3-6.9-3.9-9.5C33.2,11,30,9.7,26.3,9.7
	s-6.9,1.3-9.5,3.9s-3.9,5.8-3.9,9.5C12.8,23,12.8,36.5,12.8,36.5z M26.2,29c1.7,0,3.1-0.6,4.3-1.7c1.2-1.2,1.7-2.6,1.7-4.3
	s-0.6-3.1-1.7-4.3c-1.2-1.2-2.6-1.7-4.3-1.7c-1.7,0-3.1,0.6-4.3,1.7c-1.2,1.2-1.7,2.6-1.7,4.3s0.6,3.1,1.7,4.3
	C23.1,28.4,24.6,29,26.2,29z M26.2,27.5c-1.3,0-2.3-0.4-3.2-1.3c-0.9-0.9-1.3-1.9-1.3-3.2c0-1.3,0.4-2.3,1.3-3.2
	c0.9-0.9,1.9-1.3,3.2-1.3c1.3,0,2.3,0.4,3.2,1.3c0.9,0.9,1.3,1.9,1.3,3.2s-0.4,2.3-1.3,3.2C28.6,27,27.5,27.5,26.2,27.5z M6.8,38v-8
	h1.5v8H6.8z"/>
</svg>
