<?xml version="1.0" encoding="utf-8"?>
<!-- Generator: Adobe Illustrator 26.3.1, SVG Export Plug-In . SVG Version: 6.00 Build 0)  -->
<svg version="1.1" id="Слой_1" xmlns="http://www.w3.org/2000/svg" xmlns:xlink="http://www.w3.org/1999/xlink" x="0px" y="0px"
	 viewBox="0 0 48 48" style="enable-background:new 0 0 48 48;" xml:space="preserve">
<path d="M13.5,39.6c-1.6,0-3-0.6-4.1-1.7c-1.1-1.1-1.7-2.5-1.7-4.1s0.6-3,1.7-4.1s2.5-1.7,4.1-1.7c0.8,0,1.6,0.2,2.3,0.5
	s1.4,0.8,1.9,1.4V8.4h9.6v4.5h-8.1v21c0,1.6-0.6,3-1.7,4.1C16.5,39.1,15.2,39.6,13.5,39.6z M33.2,41.6v-10l-6.1,6.1l-1.1-1l6.8-6.8
	L25.9,23l1.1-1.1l6.1,6.1V18h0.6l6.5,6.6L35,29.8l5.3,5.2l-6.5,6.5C33.8,41.6,33.2,41.6,33.2,41.6z M34.6,38.7l3.6-3.6l-3.6-3.6
	V38.7z M34.5,28.2l3.7-3.6l-3.7-3.7V28.2z"/>
</svg>
