<?xml version="1.0" encoding="utf-8"?>
<!-- Generator: Adobe Illustrator 26.3.1, SVG Export Plug-In . SVG Version: 6.00 Build 0)  -->
<svg version="1.1" id="Слой_1" xmlns="http://www.w3.org/2000/svg" xmlns:xlink="http://www.w3.org/1999/xlink" x="0px" y="0px"
	 viewBox="0 0 48 48" style="enable-background:new 0 0 48 48;" xml:space="preserve">
<path d="M25.5,33.7V42h-2.1c-0.8,0-1.5-0.3-2.1-0.9c-0.6-0.6-0.9-1.3-0.9-2.1v-8.1c0-1.4,0.2-2.7,0.7-4c0.5-1.2,1.2-2.3,2.1-3.3
	l1,0.9c-0.8,0.8-1.4,1.8-1.8,2.9s-0.7,2.2-0.7,3.4v2.8C21.8,33.7,25.5,33.7,25.5,33.7z M16.2,38H8.8c-0.8,0-1.4-0.3-2-0.8
	C6.3,36.6,6,36,6,35.2V7.9h1.5v27.4c0,0.4,0.1,0.7,0.3,0.9c0.2,0.2,0.5,0.3,0.9,0.3h7.4C16.2,36.5,16.2,38,16.2,38z M27,22.5l-1-1
	c0.8-0.4,1.6-0.8,2.4-1c0.9-0.2,1.8-0.3,2.7-0.3c3,0,5.5,1,7.6,3.1c2.1,2.1,3.1,4.6,3.1,7.6v6.5l-1.3-1.3v-5.2
	c0-2.6-0.9-4.9-2.8-6.7c-1.8-1.8-4.1-2.8-6.7-2.8c-0.8,0-1.5,0.1-2.2,0.3C28.3,21.9,27.7,22.2,27,22.5z M16.2,33
	c-1.5-0.2-2.8-0.9-3.8-2.1s-1.5-2.5-1.5-4.1c0-1.8,0.6-3.3,1.9-4.5c1.2-1.2,2.7-1.9,4.5-1.9c0.5,0,1,0.1,1.4,0.2s0.8,0.3,1.2,0.5
	c-0.2,0.2-0.3,0.4-0.5,0.6s-0.3,0.4-0.5,0.7c-0.2-0.1-0.5-0.2-0.7-0.3c-0.4-0.1-0.7-0.1-1-0.1c-1.4,0-2.5,0.5-3.4,1.4
	s-1.4,2.1-1.4,3.4c0,1.2,0.4,2.2,1.1,3c0.7,0.9,1.6,1.4,2.7,1.6l0,0l0,0C16.2,31.5,16.2,33,16.2,33z M12.1,7.5L10.6,6h15.1
	c0.7,0,1.4,0.3,1.9,0.8c0.6,0.6,0.8,1.2,0.8,1.9V16c-0.3,0.1-0.5,0.1-0.8,0.2s-0.5,0.1-0.8,0.2V8.8c0-0.4-0.1-0.7-0.3-0.9
	c-0.2-0.2-0.5-0.3-0.9-0.3L12.1,7.5L12.1,7.5z M40.6,43.2L4.1,6.6l1.1-1.1L41.7,42L40.6,43.2z"/>
</svg>
