<?xml version="1.0" encoding="utf-8"?>
<!-- Generator: Adobe Illustrator 26.3.1, SVG Export Plug-In . SVG Version: 6.00 Build 0)  -->
<svg version="1.1" id="Слой_1" xmlns="http://www.w3.org/2000/svg" xmlns:xlink="http://www.w3.org/1999/xlink" x="0px" y="0px"
	 viewBox="0 0 48 48" style="enable-background:new 0 0 48 48;" xml:space="preserve">
<path d="M15.6,35h1.5v-4.2h4.2v-1.5h-4.2V25h-1.5v4.2h-4.2v1.5h4.2C15.6,30.8,15.6,35,15.6,35z M26,28.4h11v-1.3H26V28.4z M26,33.2
	h7v-1.3h-7V33.2z M8.8,42c-0.8,0-1.4-0.3-2-0.8C6.3,40.7,6,40,6,39.2V18.8c0-0.8,0.3-1.4,0.8-2C7.3,16.3,8,16,8.8,16h11.9V7.5
	c0-0.4,0.2-0.8,0.5-1.1C21.5,6.2,21.8,6,22.3,6h3.5c0.4,0,0.8,0.2,1.1,0.5s0.5,0.7,0.5,1.1V16h11.9c0.8,0,1.4,0.3,2,0.8
	c0.5,0.5,0.8,1.2,0.8,2v20.5c0,0.8-0.3,1.4-0.8,2c-0.5,0.5-1.2,0.8-2,0.8L8.8,42L8.8,42z M8.8,40.5h30.5c0.4,0,0.7-0.1,0.9-0.3
	s0.3-0.5,0.3-0.9V18.8c0-0.4-0.1-0.7-0.3-0.9c-0.2-0.2-0.5-0.3-0.9-0.3h-12v2.2c0,0.5-0.2,0.8-0.5,1.1c-0.3,0.3-0.7,0.4-1.1,0.4
	h-3.5c-0.4,0-0.8-0.1-1.1-0.4c-0.3-0.3-0.5-0.7-0.5-1.1v-2.2H8.8c-0.4,0-0.7,0.1-0.9,0.3c-0.2,0.2-0.3,0.5-0.3,0.9v20.5
	c0,0.4,0.1,0.7,0.3,0.9C8.1,40.3,8.4,40.5,8.8,40.5z M22.2,19.8h3.5V7.5h-3.5V19.8z"/>
</svg>
