<?xml version="1.0" encoding="utf-8"?>
<!-- Generator: Adobe Illustrator 26.3.1, SVG Export Plug-In . SVG Version: 6.00 Build 0)  -->
<svg version="1.1" id="Слой_1" xmlns="http://www.w3.org/2000/svg" xmlns:xlink="http://www.w3.org/1999/xlink" x="0px" y="0px"
	 viewBox="0 0 48 48" style="enable-background:new 0 0 48 48;" xml:space="preserve">
<path d="M8.8,38c-0.8,0-1.4-0.3-2-0.8C6.3,36.6,6,36,6,35.2V8.8c0-0.8,0.3-1.4,0.8-2C7.3,6.3,8,6,8.8,6h16.9c0.7,0,1.4,0.3,1.9,0.8
	c0.6,0.6,0.8,1.2,0.8,1.9V16c-0.3,0.1-0.5,0.1-0.8,0.2s-0.5,0.1-0.8,0.2V8.8c0-0.4-0.1-0.7-0.3-0.9c-0.2-0.2-0.5-0.3-0.9-0.3H8.8
	c-0.4,0-0.7,0.1-0.9,0.3C7.6,8.1,7.5,8.4,7.5,8.8v26.5c0,0.4,0.1,0.7,0.3,0.9c0.2,0.2,0.5,0.3,0.9,0.3h7.4V38H8.8z M16.2,33v-1.6
	l0,0l0,0c-1-0.2-1.9-0.8-2.7-1.6c-0.7-0.9-1.1-1.9-1.1-3c0-1.3,0.5-2.5,1.4-3.4s2.1-1.4,3.4-1.4c0.3,0,0.6,0,0.8,0.1
	c0.2,0.1,0.5,0.2,0.7,0.3c0.2-0.2,0.3-0.5,0.5-0.7s0.3-0.4,0.5-0.6c-0.4-0.2-0.8-0.4-1.2-0.5c-0.4-0.1-0.9-0.2-1.4-0.2
	c-1.8,0-3.3,0.6-4.5,1.9c-1.2,1.2-1.9,2.8-1.9,4.5c0,1.6,0.5,2.9,1.5,4.1C13.4,32.1,14.7,32.8,16.2,33z M17.2,17
	c0.7,0,1.3-0.3,1.9-0.8c0.5-0.5,0.8-1.1,0.8-1.9c0-0.7-0.3-1.3-0.8-1.9c-0.5-0.5-1.1-0.8-1.9-0.8c-0.7,0-1.3,0.3-1.9,0.8
	c-0.5,0.5-0.8,1.1-0.8,1.9c0,0.7,0.3,1.3,0.8,1.9C15.9,16.7,16.5,17,17.2,17z M25.5,42h-2.1c-0.8,0-1.5-0.3-2.1-0.9
	c-0.6-0.6-0.9-1.3-0.9-2.1v-8.1c0-3,1-5.5,3.1-7.6s4.6-3.1,7.6-3.1s5.5,1,7.6,3.1c2.1,2.1,3.1,4.6,3.1,7.6V39c0,0.8-0.3,1.5-0.9,2.1
	C40.5,41.7,39.8,42,39,42h-2.1v-8.3h3.8v-2.8c0-2.6-0.9-4.9-2.8-6.7c-1.8-1.8-4.1-2.8-6.7-2.8s-4.9,0.9-6.7,2.8
	c-1.8,1.8-2.8,4.1-2.8,6.7v2.8h3.8V42z"/>
</svg>
