<?xml version="1.0" encoding="utf-8"?>
<!-- Generator: Adobe Illustrator 26.3.1, SVG Export Plug-In . SVG Version: 6.00 Build 0)  -->
<svg version="1.1" id="Слой_1" xmlns="http://www.w3.org/2000/svg" xmlns:xlink="http://www.w3.org/1999/xlink" x="0px" y="0px"
	 viewBox="0 0 48 48" style="enable-background:new 0 0 48 48;" xml:space="preserve">
<path d="M10,45c-1.4,0-2.5-0.5-3.4-1.4s-1.4-2.1-1.4-3.4c0-1.3,0.5-2.5,1.4-3.4s2.1-1.4,3.4-1.4c1,0,1.8,0.2,2.6,0.7s1.3,1.2,1.7,2
	c2.5-1.4,4.5-3.2,6.1-5.6s2.6-5,3-7.8h-8.7c-0.2,1.2-0.8,2.2-1.7,2.9c-0.9,0.8-1.9,1.1-3,1.1c-1.4,0-2.5-0.5-3.4-1.4
	s-1.4-2.1-1.4-3.4c0-1.4,0.5-2.5,1.4-3.4s2.1-1.4,3.4-1.4c1.1,0,2.1,0.4,3,1.1c0.9,0.8,1.5,1.7,1.7,2.9h8.7c-0.4-2.8-1.4-5.4-3-7.8
	s-3.6-4.2-6.1-5.6c-0.4,0.9-1,1.6-1.7,2.1c-0.8,0.5-1.6,0.7-2.6,0.7c-1.4,0-2.5-0.5-3.4-1.4S5.2,9,5.2,7.7c0-1.4,0.5-2.5,1.4-3.4
	C7.5,3.5,8.7,3,10,3c1.4,0,2.6,0.5,3.6,1.6S15,7,14.8,8.4c2.9,1.4,5.2,3.4,7,6.1s2.8,5.6,3.2,8.7h14.8l-4.7-4.7l1.1-1.1l6.6,6.6
	l-6.6,6.6l-1.1-1.1l4.7-4.7H25c-0.4,3.2-1.5,6.1-3.3,8.7s-4.1,4.6-6.9,6.1c0.2,1.5-0.2,2.7-1.2,3.8C12.6,44.5,11.4,45,10,45z"/>
</svg>
