<?xml version="1.0" encoding="utf-8"?>
<!-- Generator: Adobe Illustrator 26.3.1, SVG Export Plug-In . SVG Version: 6.00 Build 0)  -->
<svg version="1.1" id="Слой_1" xmlns="http://www.w3.org/2000/svg" xmlns:xlink="http://www.w3.org/1999/xlink" x="0px" y="0px"
	 viewBox="0 0 48 48" style="enable-background:new 0 0 48 48;" xml:space="preserve">
<path d="M8,10V8.5h20V10H8z M16,34h4v-5h5v-4h-5v-5h-4v5h-5v4h5V34z M8.8,40c-0.8,0-1.4-0.3-2-0.8C6.3,38.7,6,38,6,37.2V16.8
	c0-0.8,0.3-1.4,0.8-2C7.3,14.3,8,14,8.8,14h18.5c0.8,0,1.4,0.3,2,0.8c0.5,0.5,0.8,1.2,0.8,2v20.5c0,0.8-0.3,1.4-0.8,2
	c-0.5,0.5-1.2,0.8-2,0.8L8.8,40L8.8,40z M8.8,38.5h18.5c0.3,0,0.6-0.1,0.8-0.4c0.3-0.3,0.4-0.5,0.4-0.8V16.8c0-0.3-0.1-0.6-0.4-0.8
	c-0.3-0.3-0.5-0.4-0.8-0.4H8.8c-0.3,0-0.6,0.1-0.8,0.4c-0.3,0.3-0.4,0.5-0.4,0.8v20.5c0,0.3,0.1,0.6,0.4,0.8
	C8.2,38.3,8.5,38.5,8.8,38.5z M38,27.5c-1.2-0.5-2.1-1.4-2.9-2.6S34,22.3,34,20.8c0-1.9,0.5-3.5,1.4-4.8s2.1-2,3.4-2
	c1.3,0,2.5,0.7,3.4,2s1.4,2.9,1.4,4.8c0,1.6-0.4,2.9-1.1,4.1s-1.7,2.1-2.9,2.6v11.8c0,0.2-0.1,0.4-0.2,0.5C39.2,39.9,39,40,38.8,40
	s-0.4-0.1-0.5-0.2c-0.1-0.1-0.2-0.3-0.2-0.5C38,39.2,38,27.5,38,27.5z M38.8,26c0.6,0,1.3-0.5,2.1-1.4s1.1-2.2,1.1-3.8
	c0-1.6-0.4-2.9-1.1-3.8c-0.8-0.9-1.5-1.4-2.1-1.4s-1.3,0.5-2.1,1.4s-1.1,2.2-1.1,3.8c0,1.6,0.4,2.9,1.1,3.8
	C37.4,25.5,38.1,26,38.8,26z"/>
</svg>
