<?xml version="1.0" encoding="utf-8"?>
<!-- Generator: Adobe Illustrator 26.3.1, SVG Export Plug-In . SVG Version: 6.00 Build 0)  -->
<svg version="1.1" id="Слой_1" xmlns="http://www.w3.org/2000/svg" xmlns:xlink="http://www.w3.org/1999/xlink" x="0px" y="0px"
	 viewBox="0 0 48 48" style="enable-background:new 0 0 48 48;" xml:space="preserve">
<path d="M15.8,37.1v-8.3l6.7,4.1L15.8,37.1z M26,18.6c-1.4,0-2.6-0.5-3.7-1.5c-1-1-1.5-2.2-1.5-3.6s0.5-2.6,1.5-3.6s2.2-1.5,3.7-1.5
	h1.7v1.3H26c-1.1,0-2,0.4-2.7,1.1c-0.7,0.7-1.1,1.7-1.1,2.7c0,1.1,0.4,2,1.1,2.7s1.7,1.1,2.7,1.1h1.7v1.3H26z M32.3,18.6v-1.3H34
	c1.1,0,2-0.4,2.7-1.1c0.7-0.7,1.1-1.6,1.1-2.7s-0.4-2-1.1-2.7C36,10,35.1,9.6,34,9.6h-1.7V8.3H34c1.4,0,2.6,0.5,3.7,1.5
	c1,1,1.5,2.2,1.5,3.7c0,1.4-0.5,2.6-1.5,3.6s-2.2,1.5-3.7,1.5H32.3z M26.8,14.1v-1.3h6.3v1.3H26.8z M31.3,26v-2h9.9
	c0.4,0,0.7-0.1,0.9-0.3c0.2-0.2,0.3-0.5,0.3-0.9V7c0-0.4-0.1-0.7-0.3-0.9c-0.2-0.2-0.5-0.3-0.9-0.3H18.8c-0.4,0-0.7,0.1-0.9,0.3
	c-0.2,0.2-0.3,0.5-0.3,0.9v15.8H16V7c0-0.7,0.3-1.4,0.8-1.9c0.6-0.6,1.2-0.8,1.9-0.8h22.5c0.7,0,1.4,0.3,1.9,0.8
	C43.7,5.6,44,6.2,44,7v16.2c0,0.7-0.3,1.4-0.8,1.9c-0.6,0.6-1.2,0.9-2,0.9H31.3z M6.8,43.8c-0.7,0-1.4-0.3-1.9-0.8
	C4.3,42.4,4,41.8,4,41V24.8c0-0.7,0.3-1.4,0.8-1.9C5.4,22.3,6,22,6.8,22h22.5c0.7,0,1.4,0.3,1.9,0.8c0.6,0.6,0.8,1.2,0.8,1.9V41
	c0,0.7-0.3,1.4-0.8,1.9c-0.6,0.6-1.2,0.8-1.9,0.8C29.2,43.8,6.8,43.8,6.8,43.8z M6.8,42.3h22.5c0.4,0,0.7-0.1,0.9-0.3
	c0.2-0.2,0.3-0.5,0.3-0.9V24.8c0-0.4-0.1-0.7-0.3-0.9c-0.2-0.2-0.5-0.3-0.9-0.3H6.8c-0.4,0-0.7,0.1-0.9,0.3
	c-0.2,0.2-0.3,0.5-0.3,0.9V41c0,0.4,0.1,0.7,0.3,0.9C6.1,42.2,6.4,42.3,6.8,42.3z"/>
</svg>
