<?xml version="1.0" encoding="utf-8"?>
<!-- Generator: Adobe Illustrator 26.3.1, SVG Export Plug-In . SVG Version: 6.00 Build 0)  -->
<svg version="1.1" id="Слой_1" xmlns="http://www.w3.org/2000/svg" xmlns:xlink="http://www.w3.org/1999/xlink" x="0px" y="0px"
	 viewBox="0 0 48 48" style="enable-background:new 0 0 48 48;" xml:space="preserve">
<path d="M13.2,28.8h1.5v-9.5h-1.5V28.8z M23.2,28.8h1.5v-9.5h-1.5V28.8z M33.2,28.8h1.5v-9.5h-1.5V28.8z M8.8,34.5h30.5
	c0.3,0,0.6-0.1,0.8-0.4c0.3-0.3,0.4-0.5,0.4-0.8V14.8c0-0.3-0.1-0.6-0.4-0.8c-0.3-0.3-0.5-0.4-0.8-0.4H8.8c-0.3,0-0.6,0.1-0.8,0.4
	c-0.3,0.3-0.4,0.5-0.4,0.8v18.5c0,0.3,0.1,0.6,0.4,0.8C8.2,34.3,8.5,34.5,8.8,34.5z M7.5,34.5v-21V34.5z M11.2,40v-4H8.8
	c-0.8,0-1.4-0.3-2-0.8C6.3,34.7,6,34,6,33.2V14.8c0-0.8,0.3-1.4,0.8-2C7.3,12.3,8,12,8.8,12h2.5V8h1.5v4h10.5V8h1.5v4h10.5V8h1.5v4
	h2.5c0.8,0,1.4,0.3,2,0.8c0.5,0.5,0.8,1.2,0.8,2v18.5c0,0.8-0.3,1.4-0.8,2c-0.5,0.5-1.2,0.8-2,0.8h-2.5v4h-1.5v-4H24.8v4h-1.5v-4
	H12.8v4C12.8,40,11.2,40,11.2,40z"/>
</svg>
