<?xml version="1.0" encoding="utf-8"?>
<!-- Generator: Adobe Illustrator 26.3.1, SVG Export Plug-In . SVG Version: 6.00 Build 0)  -->
<svg version="1.1" id="Слой_1" xmlns="http://www.w3.org/2000/svg" xmlns:xlink="http://www.w3.org/1999/xlink" x="0px" y="0px"
	 viewBox="0 0 48 48" style="enable-background:new 0 0 48 48;" xml:space="preserve">
<path d="M24,6.9c1.4,1.7,2.7,3.4,3.9,5.1c1.2,1.7,2.3,3.4,3.3,5.2L42,9v15c0,2.5-0.5,4.8-1.4,7s-2.2,4.1-3.9,5.7
	c-1.6,1.6-3.5,2.9-5.7,3.9c-2.2,0.9-4.5,1.4-7,1.4s-4.8-0.5-7-1.4s-4.1-2.2-5.7-3.9c-1.6-1.6-2.9-3.5-3.9-5.7C6.5,28.8,6,26.5,6,24
	V9l10.8,8.1c1-1.7,2.1-3.4,3.3-5.1C21.3,10.3,22.6,8.6,24,6.9z M7.5,12.1V24c0,2.8,0.6,5.4,1.9,7.7c1.3,2.4,3,4.3,5.1,5.8
	c-0.8-1-1.4-2.2-1.9-3.5s-0.7-2.6-0.7-4c0-1.5,0.4-3.2,1.1-5.2c0.7-2,1.7-4.1,2.9-6.4L7.5,12.1z M24,9.3c-3,3.6-5.5,7.3-7.5,11
	s-3,6.9-3,9.7c0,2.9,1,5.3,3.1,7.4c2,2,4.5,3.1,7.4,3.1s5.3-1,7.4-3.1c2-2,3.1-4.5,3.1-7.4c0-2.8-1-6-3-9.7
	C29.5,16.6,27,12.9,24,9.3z M40.5,12.1L32,18.4c1.2,2.3,2.2,4.4,2.9,6.4S36,28.5,36,30c0,1.4-0.2,2.8-0.7,4
	c-0.5,1.3-1.1,2.4-1.9,3.5c2.1-1.5,3.8-3.4,5.1-5.8s1.9-4.9,1.9-7.7C40.5,24,40.5,12.1,40.5,12.1z"/>
</svg>
