<?xml version="1.0" encoding="utf-8"?>
<!-- Generator: Adobe Illustrator 26.3.1, SVG Export Plug-In . SVG Version: 6.00 Build 0)  -->
<svg version="1.1" id="Слой_1" xmlns="http://www.w3.org/2000/svg" xmlns:xlink="http://www.w3.org/1999/xlink" x="0px" y="0px"
	 viewBox="0 0 48 48" style="enable-background:new 0 0 48 48;" xml:space="preserve">
<path d="M24,44c-3.3,0-6.2-1.2-8.5-3.5S12,35.3,12,32V16c0-3.3,1.2-6.2,3.5-8.5S20.7,4,24,4s6.2,1.2,8.5,3.5S36,12.7,36,16v16
	c0,3.3-1.2,6.2-3.5,8.5S27.3,44,24,44z M24,42.5c2.9,0,5.4-1,7.4-3s3-4.5,3-7.4V16c0-2.9-1-5.4-3-7.4s-4.5-3-7.4-3s-5.4,1-7.4,3
	s-3,4.5-3,7.4v16c0,2.9,1,5.4,3,7.4S21.1,42.5,24,42.5z M24,15c0.5,0,1-0.2,1.4-0.6C25.8,14,26,13.5,26,13s-0.2-1-0.6-1.4
	C25,11.2,24.5,11,24,11s-1,0.2-1.4,0.6C22.2,12,22,12.5,22,13s0.2,1,0.6,1.4C23,14.8,23.5,15,24,15z M18.4,23.8c0.4,0,0.7-0.1,1-0.4
	s0.4-0.6,0.4-1s-0.1-0.7-0.4-1s-0.6-0.4-1-0.4s-0.7,0.1-1,0.4S17,22,17,22.4s0.1,0.7,0.4,1C17.7,23.6,18,23.8,18.4,23.8z M24,23.8
	c0.4,0,0.7-0.1,1-0.4s0.4-0.6,0.4-1s-0.1-0.7-0.4-1S24.4,21,24,21s-0.7,0.1-1,0.4s-0.4,0.6-0.4,1s0.1,0.7,0.4,1
	C23.3,23.6,23.6,23.8,24,23.8z M29.6,23.8c0.4,0,0.7-0.1,1-0.4s0.4-0.6,0.4-1s-0.1-0.7-0.4-1S30,21,29.6,21s-0.7,0.1-1,0.4
	s-0.4,0.6-0.4,1s0.1,0.7,0.4,1C28.9,23.6,29.2,23.8,29.6,23.8z M18.4,29.4c0.4,0,0.7-0.1,1-0.4s0.4-0.6,0.4-1s-0.1-0.7-0.4-1
	s-0.6-0.4-1-0.4s-0.7,0.1-1,0.4S17,27.6,17,28s0.1,0.7,0.4,1C17.7,29.3,18,29.4,18.4,29.4z M29.6,29.4c0.4,0,0.7-0.1,1-0.4
	s0.4-0.6,0.4-1s-0.1-0.7-0.4-1s-0.6-0.4-1-0.4s-0.7,0.1-1,0.4s-0.4,0.6-0.4,1s0.1,0.7,0.4,1S29.2,29.4,29.6,29.4z M24,29.4
	c0.4,0,0.7-0.1,1-0.4s0.4-0.6,0.4-1s-0.1-0.7-0.4-1s-0.6-0.4-1-0.4s-0.7,0.1-1,0.4s-0.4,0.6-0.4,1s0.1,0.7,0.4,1S23.6,29.4,24,29.4z
	 M18.4,35c0.4,0,0.7-0.1,1-0.4c0.3-0.3,0.4-0.6,0.4-1s-0.1-0.7-0.4-1s-0.6-0.4-1-0.4s-0.7,0.1-1,0.4s-0.4,0.6-0.4,1s0.1,0.7,0.4,1
	C17.7,34.9,18,35,18.4,35z M29.6,35c0.4,0,0.7-0.1,1-0.4c0.3-0.3,0.4-0.6,0.4-1s-0.1-0.7-0.4-1s-0.6-0.4-1-0.4s-0.7,0.1-1,0.4
	s-0.4,0.6-0.4,1s0.1,0.7,0.4,1S29.2,35,29.6,35z M24,35c0.4,0,0.7-0.1,1-0.4c0.3-0.3,0.4-0.6,0.4-1s-0.1-0.7-0.4-1s-0.6-0.4-1-0.4
	s-0.7,0.1-1,0.4s-0.4,0.6-0.4,1s0.1,0.7,0.4,1C23.3,34.9,23.6,35,24,35z"/>
</svg>
