<?xml version="1.0" encoding="utf-8"?>
<!-- Generator: Adobe Illustrator 26.3.1, SVG Export Plug-In . SVG Version: 6.00 Build 0)  -->
<svg version="1.1" id="Слой_1" xmlns="http://www.w3.org/2000/svg" xmlns:xlink="http://www.w3.org/1999/xlink" x="0px" y="0px"
	 viewBox="0 0 48 48" style="enable-background:new 0 0 48 48;" xml:space="preserve">
<path d="M24,25.5c-1,0-1.9-0.4-2.6-1.1s-1-1.6-1-2.6V9.5c0-1,0.3-1.8,1-2.5C22.2,6.3,23,6,24,6s1.8,0.3,2.5,1s1,1.5,1,2.5v12.2
	c0,1-0.3,1.9-1,2.6C25.9,25.1,25,25.5,24,25.5z M23.2,41v-7.3c-3.1-0.2-5.8-1.5-8-3.8s-3.3-5-3.3-8.1h1.5c0,2.9,1,5.4,3.1,7.4
	c2,2,4.5,3,7.4,3s5.4-1,7.4-3s3.1-4.5,3.1-7.4H36c0,3.1-1.1,5.9-3.3,8.1c-2.2,2.3-4.8,3.5-8,3.8V41H23.2z M24,23.9
	c0.6,0,1.1-0.2,1.4-0.6c0.4-0.4,0.6-0.9,0.6-1.5V9.5c0-0.6-0.2-1-0.6-1.4C25,7.7,24.6,7.5,24,7.5s-1,0.2-1.4,0.6
	C22.2,8.5,22,9,22,9.5v12.2c0,0.6,0.2,1.1,0.6,1.5C22.9,23.7,23.4,23.9,24,23.9z"/>
</svg>
