<?xml version="1.0" encoding="utf-8"?>
<!-- Generator: Adobe Illustrator 26.3.1, SVG Export Plug-In . SVG Version: 6.00 Build 0)  -->
<svg version="1.1" id="Слой_1" xmlns="http://www.w3.org/2000/svg" xmlns:xlink="http://www.w3.org/1999/xlink" x="0px" y="0px"
	 viewBox="0 0 48 48" style="enable-background:new 0 0 48 48;" xml:space="preserve">
<path d="M12.7,35.9l-1.1-1.1c1.5-1.4,2.6-3.1,3.4-4.9c0.8-1.9,1.1-3.8,1.1-5.9s-0.4-4-1.1-5.9c-0.8-1.9-1.9-3.5-3.4-4.9l0.8-0.8
	L15,15c0.8,1.3,1.5,2.8,1.9,4.3s0.7,3.1,0.7,4.7c0,2.2-0.4,4.4-1.3,6.4C15.5,32.5,14.2,34.3,12.7,35.9z M7.9,31.1L6.8,30
	c0.8-0.8,1.4-1.7,1.9-2.7c0.4-1,0.6-2.1,0.6-3.2s-0.2-2.2-0.6-3.2c-0.4-1-1-1.9-1.9-2.7L7.9,17c1,1,1.7,2,2.2,3.3
	c0.5,1.2,0.8,2.5,0.8,3.8s-0.3,2.6-0.8,3.8C9.5,29,8.8,30.1,7.9,31.1z M29.8,24.8L29.8,24.8v-1.5h3.4v1.5H29.8z M36.7,24.8v-1.5H40
	v1.5H36.7z M24.8,19.8l-1.5-1.5V8h1.5V19.8z M40.2,42.4L24.8,27v13h-1.5V25.5L5.6,7.8l1.1-1.1l34.5,34.5
	C41.3,41.3,40.2,42.4,40.2,42.4z"/>
</svg>
