<?xml version="1.0" encoding="utf-8"?>
<!-- Generator: Adobe Illustrator 26.3.1, SVG Export Plug-In . SVG Version: 6.00 Build 0)  -->
<svg version="1.1" id="Слой_1" xmlns="http://www.w3.org/2000/svg" xmlns:xlink="http://www.w3.org/1999/xlink" x="0px" y="0px"
	 viewBox="0 0 48 48" style="enable-background:new 0 0 48 48;" xml:space="preserve">
<path d="M32.9,26.8l-1.2-1.2c0.3-0.4,0.6-1,0.7-1.7c0.2-0.7,0.2-1.4,0.2-2.1h1.5c0,1-0.1,2-0.3,2.8C33.6,25.4,33.3,26.2,32.9,26.8z
	 M25.7,19.7l-1.5-1.4V9.5c0-0.6-0.2-1-0.6-1.4c-0.4-0.4-0.9-0.6-1.5-0.6S21,7.7,20.7,8.1c-0.4,0.4-0.6,0.9-0.6,1.4V14l-1.5-1.5v-3
	c0-1,0.3-1.8,1-2.5s1.5-1,2.5-1s1.9,0.3,2.5,1c0.7,0.7,1,1.5,1,2.5v9.6c0,0,0,0.1,0,0.2C25.8,19.5,25.7,19.6,25.7,19.7z M21.4,41
	v-7.3c-3.1-0.2-5.8-1.5-8-3.8s-3.3-5-3.3-8.1h1.5c0,2.9,1,5.4,3.1,7.4c2,2,4.5,3,7.4,3c1.5,0,2.9-0.3,4.2-0.9
	c1.3-0.6,2.5-1.4,3.4-2.5l1.1,1.1c-1,1.1-2.2,2-3.6,2.6c-1.4,0.7-2.8,1-4.4,1.2V41C23,41,21.4,41,21.4,41z M40.8,41.7L3.5,4.4l1-1
	l37.3,37.3L40.8,41.7z"/>
</svg>
