<?xml version="1.0" encoding="utf-8"?>
<!-- Generator: Adobe Illustrator 26.3.1, SVG Export Plug-In . SVG Version: 6.00 Build 0)  -->
<svg version="1.1" id="Слой_1" xmlns="http://www.w3.org/2000/svg" xmlns:xlink="http://www.w3.org/1999/xlink" x="0px" y="0px"
	 viewBox="0 0 48 48" style="enable-background:new 0 0 48 48;" xml:space="preserve">
<path d="M18.4,13.8l-6.2-6.2c0.3-0.2,0.7-0.4,1-0.5s0.6-0.2,0.9-0.2c1.4,0,2.5,0.5,3.5,1.4s1.4,2.1,1.4,3.4c0,0.4,0,0.8-0.1,1.1
	C18.7,13.2,18.6,13.5,18.4,13.8z M37.7,33.1l-1.5-1.5V13.4c0-1.4-0.5-2.5-1.4-3.5c-1-1-2.1-1.4-3.5-1.4c-1.4,0-2.6,0.5-3.5,1.4
	c-1,1-1.4,2.1-1.4,3.5v8.2l-1.5-1.5v-6.7c0-1.8,0.6-3.3,1.9-4.6s2.8-1.9,4.6-1.9s3.3,0.6,4.6,1.9s1.9,2.8,1.9,4.6
	C37.7,13.4,37.7,33.1,37.7,33.1z M40.6,43.2L26.2,28.8v5.8c0,1.8-0.6,3.3-1.9,4.6s-2.8,1.9-4.6,1.9c-1.8,0-3.3-0.6-4.6-1.9
	c-1.3-1.3-1.9-2.8-1.9-4.6h-1.4L10,16.9h4.2L4.1,6.6l1.1-1.1L41.7,42L40.6,43.2z M13.2,33H15l1.4-14.1l-0.6-0.5h-4
	C11.8,18.4,13.2,33,13.2,33z M19.8,39.5c1.4,0,2.5-0.5,3.5-1.4c1-1,1.4-2.1,1.4-3.5v-7.3l-6.9-6.9l-1.5,14.2h-1.5
	c0,1.4,0.5,2.6,1.4,3.5C17.2,39.1,18.4,39.5,19.8,39.5z M13.2,18.4h-1.4h4.5H13.2z"/>
</svg>
