<?xml version="1.0" encoding="utf-8"?>
<!-- Generator: Adobe Illustrator 26.3.1, SVG Export Plug-In . SVG Version: 6.00 Build 0)  -->
<svg version="1.1" id="Слой_1" xmlns="http://www.w3.org/2000/svg" xmlns:xlink="http://www.w3.org/1999/xlink" x="0px" y="0px"
	 viewBox="0 0 48 48" style="enable-background:new 0 0 48 48;" xml:space="preserve">
<path d="M10.7,14.6c-0.3-0.4-0.6-0.8-0.7-1.3c-0.1-0.5-0.2-1-0.2-1.5c0-1.4,0.5-2.5,1.4-3.4S13.3,7,14.7,7s2.5,0.5,3.4,1.4
	s1.4,2.1,1.4,3.4c0,0.5-0.1,1-0.2,1.5s-0.3,0.9-0.7,1.3C18.6,14.6,10.7,14.6,10.7,14.6z M20.3,41.1c-1.8,0-3.3-0.6-4.6-1.9
	s-1.9-2.8-1.9-4.6h-1.4l-1.8-17.7h8l-1.8,17.7h-1.5c0,1.4,0.5,2.5,1.5,3.5s2.2,1.5,3.5,1.5c1.4,0,2.5-0.5,3.5-1.5s1.4-2.1,1.4-3.5
	V13.4c0-1.8,0.6-3.3,1.9-4.6s2.8-1.9,4.6-1.9s3.3,0.6,4.6,1.9s1.9,2.8,1.9,4.6v27.7h-1.5V13.4c0-1.4-0.5-2.5-1.5-3.5
	s-2.1-1.5-3.5-1.5c-1.4,0-2.5,0.5-3.5,1.5s-1.5,2.1-1.5,3.5v21.2c0,1.8-0.6,3.4-1.9,4.6C23.6,40.4,22.1,41.1,20.3,41.1z M13.8,33
	h1.7l1.4-14.6h-4.5L13.8,33z M15.5,18.4h-3.1h4.5H15.5z"/>
</svg>
