<?xml version="1.0" encoding="utf-8"?>
<!-- Generator: Adobe Illustrator 26.3.1, SVG Export Plug-In . SVG Version: 6.00 Build 0)  -->
<svg version="1.1" id="Слой_1" xmlns="http://www.w3.org/2000/svg" xmlns:xlink="http://www.w3.org/1999/xlink" x="0px" y="0px"
	 viewBox="0 0 48 48" style="enable-background:new 0 0 48 48;" xml:space="preserve">
<path d="M23.2,40V8h1.5v32H23.2z M12.7,35.9l-1.1-1.1c1.5-1.4,2.6-3.1,3.4-4.9c0.8-1.9,1.1-3.8,1.1-5.9s-0.4-4-1.1-5.9
	c-0.8-1.9-1.9-3.5-3.4-4.9l1.1-1.1c1.6,1.6,2.8,3.4,3.7,5.4c0.8,2,1.3,4.2,1.3,6.4s-0.4,4.4-1.3,6.4C15.5,32.4,14.2,34.3,12.7,35.9z
	 M7.9,31.1L6.8,30c0.8-0.8,1.4-1.7,1.9-2.7c0.4-1,0.6-2.1,0.6-3.2s-0.2-2.2-0.6-3.2c-0.4-1-1-1.9-1.9-2.7L7.9,17c1,1,1.7,2,2.2,3.2
	s0.8,2.5,0.8,3.8s-0.3,2.6-0.8,3.9C9.5,29,8.8,30.1,7.9,31.1z M30.2,24.8v-1.5H40v1.5H30.2z"/>
</svg>
