<?xml version="1.0" encoding="utf-8"?>
<!-- Generator: Adobe Illustrator 26.3.1, SVG Export Plug-In . SVG Version: 6.00 Build 0)  -->
<svg version="1.1" id="Слой_1" xmlns="http://www.w3.org/2000/svg" xmlns:xlink="http://www.w3.org/1999/xlink" x="0px" y="0px"
	 viewBox="0 0 48 48" style="enable-background:new 0 0 48 48;" xml:space="preserve">
<path d="M16.2,41v-7.3c-3.1-0.2-5.8-1.5-8-3.8s-3.3-5-3.3-8.1h1.5c0,2.9,1,5.4,3.1,7.4c2,2,4.5,3,7.4,3c0.2,0,0.5,0,0.8,0
	s0.5-0.1,0.7-0.1c0.2,0.2,0.4,0.4,0.6,0.6c0.2,0.2,0.5,0.4,0.7,0.6c-0.4,0.1-0.7,0.1-1,0.2c-0.3,0.1-0.7,0.1-1.1,0.2V41
	C17.7,41,16.2,41,16.2,41z M15.1,25c-0.5-0.3-0.9-0.8-1.2-1.3c-0.3-0.6-0.5-1.2-0.5-1.9V9.5c0-1,0.3-1.8,1-2.5s1.5-1,2.5-1
	s1.8,0.3,2.5,1s1,1.5,1,2.5v7.9h-5.7v4.3c0,0.6,0,1.1,0.1,1.7C14.9,24,15,24.5,15.1,25z M31.1,25.5c-1,0-1.9-0.4-2.6-1.1
	s-1-1.6-1-2.6V9.5c0-1,0.3-1.8,1-2.5S30,6,31,6s1.8,0.3,2.5,1s1,1.5,1,2.5v12.2c0,1-0.3,1.9-1,2.6C33,25.1,32.1,25.5,31.1,25.5z
	 M30.3,41v-7.3c-3.1-0.2-5.8-1.5-8-3.8s-3.3-5-3.3-8.1h1.5c0,2.9,1,5.4,3.1,7.4c2,2,4.5,3,7.4,3s5.4-1,7.4-3s3.1-4.5,3.1-7.4H43
	c0,3.1-1.1,5.9-3.3,8.1s-4.8,3.5-8,3.8V41H30.3z M31.1,23.9c0.6,0,1.1-0.2,1.4-0.6c0.4-0.4,0.6-0.9,0.6-1.5V9.5c0-0.6-0.2-1-0.6-1.4
	c-0.4-0.4-0.9-0.6-1.4-0.6c-0.6,0-1,0.2-1.4,0.6c-0.4,0.4-0.6,0.9-0.6,1.4v12.2c0,0.6,0.2,1.1,0.6,1.5C30,23.7,30.5,23.9,31.1,23.9z
	"/>
</svg>
