<?xml version="1.0" encoding="utf-8"?>
<!-- Generator: Adobe Illustrator 26.3.1, SVG Export Plug-In . SVG Version: 6.00 Build 0)  -->
<svg version="1.1" id="Слой_1" xmlns="http://www.w3.org/2000/svg" xmlns:xlink="http://www.w3.org/1999/xlink" x="0px" y="0px"
	 viewBox="0 0 48 48" style="enable-background:new 0 0 48 48;" xml:space="preserve">
<path d="M30,42c-0.2,0-0.4-0.1-0.5-0.2c-0.1-0.1-0.2-0.3-0.2-0.5V38c-0.9-0.1-1.8-0.3-2.6-0.6c-0.8-0.3-1.6-0.8-2.3-1.4l-2.5,2.6
	c-0.2,0.1-0.4,0.2-0.6,0.2s-0.4-0.1-0.6-0.2c-0.1-0.1-0.2-0.3-0.2-0.5s0.1-0.4,0.2-0.5l2.6-2.6c-0.2-0.3-0.4-0.5-0.5-0.8
	c-0.2-0.3-0.3-0.5-0.5-0.8L20.6,30c-0.1-0.2-0.2-0.3-0.3-0.5c-0.1-0.2-0.2-0.3-0.3-0.5l-3.4,3.4c-0.2,0.1-0.3,0.2-0.6,0.3
	c-0.2,0-0.4,0-0.6-0.2c-0.1-0.1-0.2-0.3-0.2-0.5s0.1-0.4,0.2-0.6l3.4-3.4c-0.2-0.1-0.3-0.2-0.5-0.3c-0.2-0.1-0.3-0.2-0.5-0.3
	l-3.4-1.7c-0.2-0.1-0.5-0.3-0.7-0.4s-0.4-0.3-0.6-0.4l-2.3,2.3c-0.2,0.1-0.4,0.2-0.6,0.2c-0.2,0-0.4-0.1-0.6-0.2
	c-0.1-0.1-0.2-0.3-0.2-0.6c0-0.2,0.1-0.4,0.2-0.5l2.3-2.3c-0.6-0.7-1.1-1.4-1.5-2.3s-0.6-1.8-0.6-2.7h-3c-0.2,0-0.4-0.1-0.5-0.2
	C6.1,18.4,6,18.2,6,18s0.1-0.4,0.2-0.5s0.3-0.2,0.5-0.2H10c0.1-0.8,0.3-1.6,0.7-2.3c0.3-0.7,0.7-1.4,1.2-1.9l-2.3-2.3
	c-0.1-0.1-0.2-0.3-0.2-0.6c0-0.2,0.1-0.4,0.2-0.6c0.1-0.1,0.3-0.2,0.5-0.2s0.4,0.1,0.6,0.2l2.3,2.3c0.6-0.5,1.2-0.9,2-1.2
	c0.7-0.3,1.5-0.5,2.3-0.7V6.8c0-0.2,0.1-0.4,0.2-0.5C17.6,6.1,17.8,6,18,6s0.4,0.1,0.5,0.2s0.2,0.3,0.2,0.5V10
	c1,0.1,1.9,0.3,2.8,0.6c0.9,0.4,1.6,0.9,2.3,1.5l2.3-2.3c0.1-0.1,0.3-0.2,0.5-0.2s0.4,0.1,0.5,0.2c0.1,0.1,0.2,0.3,0.2,0.6
	c0,0.2-0.1,0.4-0.2,0.6l-2.4,2.4c0.2,0.2,0.3,0.4,0.5,0.6c0.1,0.2,0.3,0.4,0.4,0.7l1.7,3.3c0.1,0.2,0.2,0.3,0.2,0.5
	c0.1,0.2,0.2,0.3,0.3,0.4l3.2-3.3c0.1-0.1,0.3-0.2,0.5-0.2s0.4,0.1,0.5,0.2c0.1,0.1,0.2,0.3,0.2,0.5s-0.1,0.4-0.2,0.5l-3,3.3
	c0.2,0.2,0.3,0.3,0.5,0.4s0.4,0.2,0.5,0.3l3.4,1.8c0.3,0.2,0.6,0.3,0.8,0.5c0.3,0.2,0.5,0.4,0.8,0.6l2.6-2.5
	c0.1-0.1,0.3-0.2,0.5-0.2s0.4,0.1,0.5,0.2s0.2,0.3,0.2,0.5s-0.1,0.4-0.2,0.5L36,24.6c0.6,0.6,1,1.4,1.3,2.2c0.3,0.8,0.5,1.7,0.6,2.5
	h3.2c0.2,0,0.4,0.1,0.5,0.2s0.2,0.3,0.2,0.5s-0.1,0.4-0.2,0.5c-0.1,0.1-0.3,0.2-0.5,0.2H38c-0.1,0.8-0.3,1.6-0.6,2.3s-0.7,1.4-1.2,2
	l2.2,2.2c0.1,0.1,0.2,0.3,0.2,0.5s-0.1,0.4-0.2,0.5c-0.2,0.1-0.4,0.2-0.6,0.2c-0.2,0-0.4-0.1-0.6-0.2L35,36.1
	c-0.6,0.5-1.2,0.9-2,1.2c-0.7,0.3-1.5,0.5-2.3,0.7v3.3c0,0.2-0.1,0.4-0.2,0.5C30.4,41.9,30.2,42,30,42z M29.7,36.5
	c2.1,0,3.8-0.8,5.2-2.4c1.3-1.6,1.8-3.4,1.5-5.5c-0.2-1.1-0.6-2.1-1.2-2.9c-0.6-0.9-1.4-1.5-2.4-2L29.4,22c-0.7-0.4-1.4-0.9-2-1.4
	c-0.6-0.6-1.1-1.2-1.4-2l-1.7-3.3c-0.6-1.2-1.4-2.1-2.5-2.7c-1.1-0.7-2.3-1-3.5-1c-2.1,0-3.8,0.8-5.2,2.4c-1.3,1.6-1.8,3.4-1.5,5.5
	c0.2,1.1,0.6,2.1,1.2,2.9c0.6,0.9,1.4,1.5,2.4,2l3.3,1.7c0.8,0.4,1.4,0.9,2,1.4c0.6,0.6,1.1,1.2,1.4,2l1.7,3.3
	c0.6,1.2,1.4,2.1,2.5,2.7C27.2,36.1,28.4,36.5,29.7,36.5z M19,20.4c0.7,0,1.2-0.2,1.7-0.7s0.7-1,0.7-1.7s-0.2-1.2-0.7-1.7
	s-1-0.7-1.7-0.7s-1.2,0.2-1.7,0.7s-0.7,1-0.7,1.7s0.3,1.2,0.7,1.7C17.8,20.1,18.3,20.4,19,20.4z M29,32.6c0.4,0,0.8-0.2,1.1-0.5
	c0.3-0.3,0.5-0.7,0.5-1.1s-0.2-0.8-0.5-1.1c-0.3-0.3-0.7-0.5-1.1-0.5s-0.8,0.2-1.1,0.5c-0.3,0.3-0.5,0.7-0.5,1.1s0.2,0.8,0.5,1.1
	C28.2,32.4,28.6,32.6,29,32.6z"/>
</svg>
