<?xml version="1.0" encoding="utf-8"?>
<!-- Generator: Adobe Illustrator 26.3.1, SVG Export Plug-In . SVG Version: 6.00 Build 0)  -->
<svg version="1.1" id="Слой_1" xmlns="http://www.w3.org/2000/svg" xmlns:xlink="http://www.w3.org/1999/xlink" x="0px" y="0px"
	 viewBox="0 0 48 48" style="enable-background:new 0 0 48 48;" xml:space="preserve">
<path d="M14.8,5.2h18.5v14.6c0,0.7-0.2,1.4-0.6,2c-0.4,0.6-0.9,1.1-1.6,1.6l-6.7,4l1.4,4.9h5.4l-4.4,3.2l1.8,5.4L24,37.5l-4.4,3.3
	l1.7-5.4l-4.4-3.2h5.4l1.4-4.9L17,23.4c-0.7-0.4-1.2-0.9-1.6-1.6c-0.4-0.7-0.6-1.3-0.6-2.1C14.8,19.8,14.8,5.2,14.8,5.2z M16.3,6.7
	v13.1c0,0.5,0.1,0.9,0.4,1.4c0.3,0.4,0.6,0.8,1.1,1l5.5,3.1V6.7H16.3z M31.7,6.7h-6.8v18.6l5.4-3.1c0.5-0.3,0.8-0.6,1.1-1
	c0.3-0.4,0.4-0.9,0.4-1.4C31.7,19.8,31.7,6.7,31.7,6.7z"/>
</svg>
