<?xml version="1.0" encoding="utf-8"?>
<!-- Generator: Adobe Illustrator 26.3.1, SVG Export Plug-In . SVG Version: 6.00 Build 0)  -->
<svg version="1.1" id="Слой_1" xmlns="http://www.w3.org/2000/svg" xmlns:xlink="http://www.w3.org/1999/xlink" x="0px" y="0px"
	 viewBox="0 0 48 48" style="enable-background:new 0 0 48 48;" xml:space="preserve">
<path d="M9.1,7.9l1.6,1.6H8.8C8.5,9.5,8.2,9.6,8,9.9c-0.3,0.3-0.4,0.5-0.4,0.8v21.8c0,0.4,0.1,0.7,0.3,0.9s0.5,0.3,0.9,0.3H33
	L3.6,4.5l1.1-1.1l37.1,37.3l-0.9,1.1l-6.4-6.5h-3l1.7,1.7v3H14.8v-2.9l1.7-1.7H8.8c-0.8,0-1.4-0.3-2-0.8C6.3,34,6,33.4,6,32.6V10.8
	c0-0.7,0.3-1.4,0.8-2S8.1,7.9,9.1,7.9z M39.2,8c0.8,0,1.4,0.3,2,0.8c0.5,0.5,0.8,1.2,0.8,2v21.8c0,0.4-0.1,0.8-0.4,1.1
	c-0.3,0.4-0.6,0.7-0.9,0.9l-0.3-0.3V10.8c0-0.4-0.1-0.7-0.3-0.9s-0.5-0.3-0.9-0.3H15.8L14.2,8H39.2z"/>
</svg>
