<?xml version="1.0" encoding="utf-8"?>
<!-- Generator: Adobe Illustrator 26.3.1, SVG Export Plug-In . SVG Version: 6.00 Build 0)  -->
<svg version="1.1" id="Слой_1" xmlns="http://www.w3.org/2000/svg" xmlns:xlink="http://www.w3.org/1999/xlink" x="0px" y="0px"
	 viewBox="0 0 48 48" style="enable-background:new 0 0 48 48;" xml:space="preserve">
<path d="M27.1,41v-1.5h11.1L27.1,28.4v-2.1l12.2,12.2V27.3h1.5V41H27.1z M13.4,32.9v-2.1H7.3v-1.5h10.9c0.3,0,0.6-0.1,0.8-0.4
	c0.3-0.3,0.4-0.5,0.4-0.8V22c0-0.3-0.1-0.6-0.4-0.8c-0.3-0.3-0.5-0.4-0.8-0.4H10c-0.8,0-1.5-0.3-2-0.8s-0.8-1.2-0.8-2v-6.1
	c0-0.8,0.3-1.5,0.8-2s1.2-0.8,2-0.8h3.4V7H15v2.1h6v1.5H10.1c-0.3,0-0.6,0.1-0.8,0.4c-0.3,0.3-0.4,0.5-0.4,0.8v6.1
	c0,0.3,0.1,0.6,0.4,0.8c0.3,0.3,0.5,0.4,0.8,0.4h8.2c0.8,0,1.5,0.3,2,0.8s0.8,1.2,0.8,2V28c0,0.8-0.3,1.5-0.8,2s-1.2,0.8-2,0.8H15
	v2.1C15,32.9,13.4,32.9,13.4,32.9z"/>
</svg>
