<?xml version="1.0" encoding="utf-8"?>
<!-- Generator: Adobe Illustrator 26.3.1, SVG Export Plug-In . SVG Version: 6.00 Build 0)  -->
<svg version="1.1" id="Слой_1" xmlns="http://www.w3.org/2000/svg" xmlns:xlink="http://www.w3.org/1999/xlink" x="0px" y="0px"
	 viewBox="0 0 48 48" style="enable-background:new 0 0 48 48;" xml:space="preserve">
<path d="M8,36.8c-0.2,0-0.4-0.1-0.5-0.2c-0.1-0.1-0.2-0.3-0.2-0.6c0-0.2,0.1-0.4,0.2-0.5s0.3-0.2,0.5-0.2h20c0.2,0,0.4,0.1,0.5,0.2
	c0.1,0.1,0.2,0.3,0.2,0.6s-0.1,0.4-0.2,0.5s-0.3,0.2-0.5,0.2H8z M36,36.8c-0.2,0-0.4-0.1-0.5-0.2c-0.1-0.1-0.2-0.3-0.2-0.6
	c0-0.2,0.1-0.4,0.2-0.5c0.1-0.1,0.3-0.2,0.5-0.2h4c0.2,0,0.4,0.1,0.5,0.2c0.1,0.1,0.2,0.3,0.2,0.6c0,0.2-0.1,0.4-0.2,0.5
	c-0.1,0.1-0.3,0.2-0.5,0.2H36z M8,28.8c-0.2,0-0.4-0.1-0.5-0.2S7.3,28.3,7.3,28c0-0.2,0.1-0.4,0.2-0.5s0.3-0.2,0.5-0.2h4
	c0.2,0,0.4,0.1,0.5,0.2s0.2,0.3,0.2,0.6c0,0.2-0.1,0.4-0.2,0.5c-0.1,0.1-0.3,0.2-0.5,0.2H8z M20,28.8c-0.2,0-0.4-0.1-0.5-0.2
	s-0.2-0.3-0.2-0.6c0-0.2,0.1-0.4,0.2-0.5s0.3-0.2,0.5-0.2h20c0.2,0,0.4,0.1,0.5,0.2s0.2,0.3,0.2,0.6c0,0.2-0.1,0.4-0.2,0.5
	c-0.1,0.1-0.3,0.2-0.5,0.2H20z M8,20.8c-0.2,0-0.4-0.1-0.5-0.2S7.3,20.3,7.3,20c0-0.2,0.1-0.4,0.2-0.5s0.3-0.2,0.5-0.2h22
	c0.2,0,0.4,0.1,0.5,0.2s0.2,0.3,0.2,0.6s-0.1,0.4-0.2,0.5s-0.3,0.2-0.5,0.2H8z M38,20.8c-0.2,0-0.4-0.1-0.5-0.2s-0.2-0.3-0.2-0.6
	c0-0.2,0.1-0.4,0.2-0.5c0.1-0.1,0.3-0.2,0.5-0.2h2c0.2,0,0.4,0.1,0.5,0.2s0.2,0.3,0.2,0.6c0,0.2-0.1,0.4-0.2,0.5
	c-0.1,0.1-0.3,0.2-0.5,0.2H38z M8,12.8c-0.2,0-0.4-0.1-0.5-0.2c-0.1-0.1-0.2-0.3-0.2-0.6c0-0.2,0.1-0.4,0.2-0.5s0.3-0.2,0.5-0.2h10
	c0.2,0,0.4,0.1,0.5,0.2c0.1,0.1,0.2,0.3,0.2,0.6c0,0.2-0.1,0.4-0.2,0.5s-0.3,0.2-0.5,0.2H8z M26,12.8c-0.2,0-0.4-0.1-0.5-0.2
	c-0.1-0.1-0.2-0.3-0.2-0.6c0-0.2,0.1-0.4,0.2-0.5s0.3-0.2,0.5-0.2h14c0.2,0,0.4,0.1,0.5,0.2c0.1,0.1,0.2,0.3,0.2,0.6
	c0,0.2-0.1,0.4-0.2,0.5c-0.1,0.1-0.3,0.2-0.5,0.2H26z"/>
</svg>
