<?xml version="1.0" encoding="utf-8"?>
<!-- Generator: Adobe Illustrator 26.3.1, SVG Export Plug-In . SVG Version: 6.00 Build 0)  -->
<svg version="1.1" id="Слой_1" xmlns="http://www.w3.org/2000/svg" xmlns:xlink="http://www.w3.org/1999/xlink" x="0px" y="0px"
	 viewBox="0 0 48 48" style="enable-background:new 0 0 48 48;" xml:space="preserve">
<path d="M28,28v-8h4.2v-8.2H28v-8h10v8h-4.2V20H38v8H28z M29.5,26.5h6.9v-4.9h-6.9C29.5,21.6,29.5,26.5,29.5,26.5z M29.5,10.2h6.9
	V5.3h-6.9C29.5,5.3,29.5,10.2,29.5,10.2z M10,44.2v-8h4.2V28H10v-8h4.2v-8.2H10v-8h10v8h-4.2V20H20v8h-4.2v8.2H20v8H10z M11.5,42.7
	h6.9v-4.9h-6.9V42.7z M11.5,26.5h6.9v-4.9h-6.9V26.5z M11.5,10.2h6.9V5.3h-6.9V10.2z"/>
</svg>
