<?xml version="1.0" encoding="utf-8"?>
<!-- Generator: Adobe Illustrator 26.3.1, SVG Export Plug-In . SVG Version: 6.00 Build 0)  -->
<svg version="1.1" id="Слой_1" xmlns="http://www.w3.org/2000/svg" xmlns:xlink="http://www.w3.org/1999/xlink" x="0px" y="0px"
	 viewBox="0 0 48 48" style="enable-background:new 0 0 48 48;" xml:space="preserve">
<path d="M42.4,45.5L2,4.8l1.1-1.1l40.4,40.7L42.4,45.5z M12,13.7l1.5,1.6v22.8h21l1.5,1.5v1.6c0,0.8-0.3,1.4-0.8,2
	c-0.5,0.5-1.2,0.8-2,0.8H14.8c-0.7,0-1.4-0.3-1.9-0.8c-0.6-0.6-0.9-1.2-0.9-2V13.7z M13.5,39.7v1.5c0,0.4,0.1,0.7,0.3,0.9
	s0.5,0.3,0.9,0.3h18.5c0.4,0,0.7-0.1,0.9-0.3s0.3-0.5,0.3-0.9v-1.5H13.5z M13.3,9.8l-1.5-1.5h22.7V6.8c0-0.4-0.1-0.7-0.3-0.9
	c-0.2-0.2-0.5-0.3-0.9-0.3H11.6L12,5.9c0.1-0.5,0.3-1,0.8-1.3c0.5-0.4,1-0.5,1.6-0.5h18.9c0.8,0,1.4,0.3,2,0.8C35.7,5.3,36,6,36,6.8
	v25.1l-1.5-1.5V9.8H13.3z"/>
</svg>
