<?xml version="1.0" encoding="utf-8"?>
<!-- Generator: Adobe Illustrator 26.3.1, SVG Export Plug-In . SVG Version: 6.00 Build 0)  -->
<svg version="1.1" id="Слой_1" xmlns="http://www.w3.org/2000/svg" xmlns:xlink="http://www.w3.org/1999/xlink" x="0px" y="0px"
	 viewBox="0 0 48 48" style="enable-background:new 0 0 48 48;" xml:space="preserve">
<path d="M12.8,44c-0.7,0-1.4-0.3-1.9-0.8c-0.6-0.6-0.9-1.2-0.9-2V6.8c0-0.7,0.3-1.4,0.8-1.9C11.4,4.3,12,4,12.8,4h18.5
	c0.7,0,1.4,0.3,1.9,0.8C33.7,5.4,34,6,34,6.8v6.3h-1.5V9.8h-21v28.3h20.9v-3.2H34v6.3c0,0.7-0.3,1.4-0.8,1.9c-0.6,0.6-1.2,0.9-2,0.9
	H12.8z M11.5,39.7v1.5c0,0.3,0.1,0.6,0.4,0.8s0.5,0.4,0.8,0.4h18.5c0.3,0,0.6-0.1,0.8-0.4c0.3-0.3,0.4-0.5,0.4-0.8v-1.5H11.5z
	 M29.9,30.6l-7.1-7.1l1.1-1.1l6,6l11.7-11.7l1.1,1.1L29.9,30.6z M11.5,8.3h20.9V6.8c0-0.3-0.1-0.6-0.4-0.8c-0.3-0.3-0.5-0.4-0.8-0.4
	H12.8c-0.3,0-0.6,0.1-0.8,0.4c-0.3,0.3-0.4,0.5-0.4,0.8v1.5H11.5z M11.5,8.3V5.5V8.3z M11.5,39.7v2.8V39.7z"/>
</svg>
