<?xml version="1.0" encoding="utf-8"?>
<!-- Generator: Adobe Illustrator 26.3.1, SVG Export Plug-In . SVG Version: 6.00 Build 0)  -->
<svg version="1.1" id="Слой_1" xmlns="http://www.w3.org/2000/svg" xmlns:xlink="http://www.w3.org/1999/xlink" x="0px" y="0px"
	 viewBox="0 0 48 48" style="enable-background:new 0 0 48 48;" xml:space="preserve">
<path d="M24,42.7c-4.9-4.3-8.7-8.3-11.2-12C10.3,27.1,9,23.6,9,20.4c0-4.7,1.5-8.4,4.5-11.2C16.6,6.4,20.1,5,24,5
	c4.4,0,8.2,1.6,11.2,4.8s4.3,7.7,3.9,13.6l5.4-5.4l1,1.1l-7.2,7.3L31,19l1.1-1.1l5.4,5.4c0.4-5.2-0.7-9.3-3.3-12.3s-6-4.5-10.3-4.5
	c-3.8,0-7,1.3-9.6,3.9s-3.9,5.9-3.9,10c0,2.7,1.1,5.7,3.4,9.1c2.2,3.4,5.6,7.1,10.1,11.2c0.7-0.6,1.5-1.4,2.5-2.4s1.8-1.8,2.4-2.3
	c-0.3-0.4-0.5-0.9-0.7-1.3c-0.1-0.5-0.2-0.9-0.2-1.3c0-1.1,0.4-2.1,1.2-2.8c0.8-0.8,1.7-1.2,2.8-1.2c1.1,0,2.1,0.4,2.8,1.2
	c0.8,0.8,1.2,1.7,1.2,2.8s-0.4,2.1-1.2,2.8s-1.7,1.2-2.8,1.2c-0.3,0-0.6,0-1-0.1S30.2,37.1,30,37c-1,1-1.9,1.9-2.9,2.9
	C26.2,40.7,25.1,41.7,24,42.7z"/>
</svg>
