<?xml version="1.0" encoding="utf-8"?>
<!-- Generator: Adobe Illustrator 26.3.1, SVG Export Plug-In . SVG Version: 6.00 Build 0)  -->
<svg version="1.1" id="Слой_1" xmlns="http://www.w3.org/2000/svg" xmlns:xlink="http://www.w3.org/1999/xlink" x="0px" y="0px"
	 viewBox="0 0 48 48" style="enable-background:new 0 0 48 48;" xml:space="preserve">
<path d="M40.2,44.4L5.6,9.8l1.1-1.1L24,26l17.3,17.3L40.2,44.4z M36.1,33.1L35,32c0.5-0.9,0.9-1.9,1.1-2.9c0.2-1,0.4-2,0.4-3.1
	c0-1.7-0.3-3.4-1-5s-1.7-3-3-4.3c-0.7,0.5-1.4,0.8-2.1,1.1c-0.8,0.2-1.5,0.4-2.3,0.4c-2,0-3.8-0.7-5.2-2.1s-2.2-3.1-2.3-5.2v-0.5
	c-0.7,0.5-1.3,1.1-1.9,1.6c-0.6,0.6-1.2,1.2-1.7,1.8l-1.1-1.2c0.9-1,1.9-1.9,2.9-2.7C19.9,9,21,8.2,22.2,7.5v3
	c0,1.7,0.6,3.1,1.8,4.3c1.2,1.2,2.6,1.7,4.3,1.7c0.6,0,1.2-0.1,1.8-0.3c0.6-0.2,1.2-0.5,1.7-0.9l0.9-0.7c1.7,1.3,3.1,2.9,4.1,4.9
	s1.5,4.1,1.5,6.4c0,1.3-0.2,2.5-0.5,3.7C37.2,30.9,36.7,32,36.1,33.1z M24,40c-3.9,0-7.2-1.4-9.9-4.1c-2.7-2.7-4.1-6-4.1-9.9
	c0-1.8,0.3-3.6,0.9-5.4c0.6-1.8,1.5-3.5,2.6-5.2l1.2,1.2c-1,1.5-1.8,3.1-2.3,4.7s-0.8,3.1-0.8,4.7c0,2.5,0.7,4.7,2,6.8
	s3.1,3.6,5.4,4.6c-0.3-0.5-0.5-1-0.7-1.6s-0.2-1.1-0.2-1.7c0-0.8,0.2-1.5,0.5-2.2s0.7-1.3,1.3-1.9l4.1-4.1l1.1,1L21,31
	c-0.4,0.4-0.7,0.9-1,1.4c-0.2,0.5-0.3,1.1-0.3,1.6c0,1.2,0.4,2.2,1.3,3.1c0.9,0.8,1.9,1.3,3.2,1.3s2.3-0.4,3.2-1.3
	c0.9-0.8,1.3-1.9,1.3-3.1c0-0.6-0.1-1.1-0.3-1.7c-0.2-0.5-0.5-1-1-1.4l0.9-0.9l5.8,5.8c-1.3,1.3-2.7,2.3-4.4,3
	C27.8,39.6,26,40,24,40z"/>
</svg>
