<?xml version="1.0" encoding="utf-8"?>
<!-- Generator: Adobe Illustrator 26.3.1, SVG Export Plug-In . SVG Version: 6.00 Build 0)  -->
<svg version="1.1" id="Слой_1" xmlns="http://www.w3.org/2000/svg" xmlns:xlink="http://www.w3.org/1999/xlink" x="0px" y="0px"
	 viewBox="0 0 48 48" style="enable-background:new 0 0 48 48;" xml:space="preserve">
<path d="M11.9,39.8c-0.2,0.1-0.4,0.2-0.6,0.2c-0.2,0-0.4-0.1-0.5-0.2c-1.1-1.1-1.9-2.3-2.6-3.7c-0.7-1.3-1-2.8-1-4.3
	s0.2-2.9,0.7-4.3s1-2.8,1.6-4.1c0.6-1.2,1.1-2.4,1.5-3.7c0.4-1.3,0.7-2.5,0.7-3.9c0-1.3-0.3-2.5-1-3.5c-0.7-1.1-1.5-2.1-2.5-3
	C8,9.2,7.9,9,7.9,8.8S8,8.4,8.1,8.3C8.3,8.1,8.5,8,8.7,8s0.4,0.1,0.6,0.2c1.1,1,2.1,2.2,2.8,3.4s1.1,2.7,1.1,4.2
	c0,1.4-0.2,2.8-0.7,4.1s-1,2.6-1.6,3.9s-1.1,2.5-1.5,3.9C9,29,8.7,30.4,8.7,31.8c0,1.3,0.3,2.6,0.9,3.7c0.6,1.2,1.4,2.2,2.3,3.2
	c0.1,0.1,0.2,0.3,0.2,0.5C12.1,39.5,12.1,39.6,11.9,39.8z M19.6,39.8C19.4,39.9,19.2,40,19,40s-0.4-0.1-0.5-0.2
	c-1.1-1.1-1.9-2.3-2.6-3.7c-0.7-1.3-1-2.8-1-4.3s0.2-2.9,0.7-4.3c0.5-1.4,1-2.8,1.6-4.1c0.6-1.2,1.1-2.4,1.5-3.7
	c0.4-1.3,0.7-2.5,0.7-3.9c0-1.3-0.3-2.5-1-3.6s-1.5-2.1-2.5-2.9c-0.1-0.1-0.2-0.3-0.2-0.5s0.1-0.4,0.2-0.5c0-0.2,0.2-0.3,0.4-0.3
	c0.2,0,0.4,0.1,0.6,0.2c1.1,1,2.1,2.2,2.8,3.4c0.7,1.3,1.1,2.7,1.1,4.2c0,1.4-0.2,2.8-0.7,4.1s-1,2.6-1.6,3.9s-1.1,2.6-1.5,3.9
	c-0.5,1.3-0.7,2.7-0.7,4.1c0,1.3,0.3,2.6,0.9,3.7c0.6,1.2,1.4,2.2,2.3,3.2c0.1,0.1,0.2,0.3,0.2,0.5C19.8,39.5,19.7,39.7,19.6,39.8z
	 M25,42.2V5.8c0-0.2,0.1-0.4,0.2-0.6C25.4,5.1,25.5,5,25.8,5c0.2,0,0.4,0.1,0.6,0.2c0.1,0.1,0.2,0.3,0.2,0.6v9.5L34,8
	c0.2-0.2,0.4-0.3,0.5-0.3c0.2,0,0.4,0.1,0.5,0.3c0.2,0.2,0.3,0.4,0.3,0.6c0,0.2-0.1,0.4-0.3,0.6l-8.5,8.5v5.6h5.6l8.4-8.4
	c0.2-0.2,0.4-0.3,0.6-0.3c0.2,0,0.4,0.1,0.5,0.3c0.1,0.1,0.2,0.3,0.2,0.5s-0.1,0.4-0.2,0.6l-7.2,7.3H44c0.2,0,0.4,0.1,0.6,0.2
	c0.1,0.1,0.2,0.3,0.2,0.6c0,0.2-0.1,0.4-0.2,0.6c-0.1,0.1-0.3,0.2-0.6,0.2h-9.5l7.3,7.4c0.1,0.2,0.2,0.4,0.2,0.5
	c0,0.2-0.1,0.4-0.2,0.5c-0.2,0.1-0.4,0.2-0.6,0.2c-0.2,0-0.4-0.1-0.6-0.2l-8.5-8.5h-5.6v5.6l8.5,8.5c0.2,0.2,0.2,0.4,0.2,0.5
	c0,0.2-0.1,0.4-0.2,0.5c-0.2,0.1-0.3,0.2-0.6,0.2S34.1,40.2,34,40l-7.4-7.4v9.6c0,0.2-0.1,0.4-0.2,0.6C26.2,42.9,26,43,25.8,43
	s-0.4-0.1-0.6-0.2S25,42.5,25,42.2z"/>
</svg>
