<?xml version="1.0" encoding="utf-8"?>
<!-- Generator: Adobe Illustrator 26.3.1, SVG Export Plug-In . SVG Version: 6.00 Build 0)  -->
<svg version="1.1" id="Слой_1" xmlns="http://www.w3.org/2000/svg" xmlns:xlink="http://www.w3.org/1999/xlink" x="0px" y="0px"
	 viewBox="0 0 48 48" style="enable-background:new 0 0 48 48;" xml:space="preserve">
<path d="M21.4,41.6c-1.3,0-2.3-0.4-3-1.2s-1-1.6-1-2.6c0-0.7,0.1-1.3,0.4-1.9c0.3-0.6,0.7-1.2,1.4-1.6c0.8-0.5,1.4-1.2,1.9-2.1
	c0.5-0.9,0.9-2,1.2-3.3c-0.3-0.1-0.5-0.2-0.7-0.3c-0.2-0.1-0.5-0.3-0.7-0.5L15.7,30c-0.5,0.2-1,0.3-1.4,0.4s-0.9,0.2-1.4,0.2
	c-1.7,0-3.2-0.8-4.6-2.3c-1.3-1.5-2-3.8-2-6.8c0-1.3,0.4-2.3,1.1-3c0.8-0.7,1.6-1,2.6-1c0.7,0,1.4,0.1,2,0.4s1.2,0.7,1.6,1.4
	c0.5,0.8,1.2,1.4,2.2,2c0.9,0.5,2,0.9,3.3,1.1c0.1-0.3,0.2-0.5,0.3-0.7c0.1-0.2,0.3-0.5,0.5-0.7L18,15.7c-0.2-0.5-0.3-0.9-0.4-1.4
	s-0.2-0.9-0.2-1.3c0-2,0.9-3.6,2.7-4.8C21.9,7,24,6.4,26.6,6.4c1.3,0,2.3,0.4,3,1.1c0.7,0.8,1,1.6,1,2.6c0,0.6-0.1,1.3-0.4,2
	s-0.7,1.2-1.4,1.6c-0.8,0.6-1.5,1.3-2,2.3s-0.9,2-1.1,3.2c0.3,0.1,0.5,0.2,0.8,0.3c0.2,0.1,0.4,0.3,0.6,0.5l5.2-2
	c0.5-0.2,0.9-0.3,1.4-0.4c0.4-0.1,0.9-0.1,1.3-0.1c2.2,0,3.9,0.9,5,2.8s1.6,4,1.6,6.3c0,1.3-0.4,2.3-1.2,3s-1.7,1-2.7,1
	c-0.6,0-1.3-0.1-1.9-0.4c-0.6-0.3-1.1-0.7-1.5-1.4c-0.5-0.8-1.2-1.4-2.1-1.9c-0.9-0.5-2-0.9-3.3-1.2c-0.1,0.3-0.2,0.5-0.3,0.8
	c-0.1,0.2-0.3,0.5-0.5,0.7l1.9,5.2c0.2,0.5,0.3,0.9,0.4,1.3c0.1,0.4,0.2,0.8,0.2,1.2c0,1.7-0.8,3.3-2.3,4.7
	C26.7,40.9,24.4,41.6,21.4,41.6z M24,27.6c1,0,1.9-0.4,2.6-1.1s1-1.6,1-2.6s-0.4-1.9-1.1-2.6s-1.6-1-2.6-1s-1.9,0.4-2.6,1.1
	s-1,1.6-1,2.6s0.4,1.9,1.1,2.6C22.1,27.3,23,27.6,24,27.6z M21.1,19.7c0.5-0.2,1-0.4,1.5-0.6c0.5-0.1,1-0.2,1.6-0.3
	c0.3-1.4,0.7-2.7,1.3-3.8c0.6-1.1,1.4-2,2.4-2.6c0.4-0.3,0.6-0.6,0.8-1c0.2-0.4,0.3-0.8,0.3-1.3c0-0.6-0.2-1.1-0.6-1.5
	S27.4,8,26.6,8c-1.4,0-3,0.3-4.8,1s-2.7,2-2.8,4c0,0.4,0,0.7,0.1,1.1c0.1,0.3,0.2,0.6,0.3,0.9L21.1,19.7z M12.9,29
	c0.4,0,1.1-0.1,2-0.4l4.8-1.7c-0.3-0.4-0.5-0.9-0.7-1.4s-0.2-1.1-0.2-1.6c-1.4-0.3-2.7-0.7-3.8-1.3c-1.1-0.6-2-1.4-2.6-2.4
	c-0.3-0.4-0.6-0.6-1-0.8c-0.4-0.2-0.8-0.3-1.2-0.3c-0.7,0-1.3,0.2-1.6,0.6c-0.4,0.4-0.6,1-0.6,1.8c0,2,0.4,3.8,1.3,5.3
	C10.1,28.2,11.3,29,12.9,29z M21.4,40.1c1.7,0,3.4-0.4,5-1.2c1.7-0.8,2.5-2.1,2.5-4c0-0.4,0-0.7-0.1-1s-0.2-0.6-0.3-0.8l-1.7-4.8
	c-0.5,0.3-1,0.5-1.6,0.7c-0.6,0.1-1,0.2-1.5,0.2c-0.3,1.4-0.7,2.7-1.3,3.8c-0.6,1.1-1.4,2-2.4,2.6c-0.3,0.2-0.6,0.6-0.8,1
	S19,37.5,19,37.9c0,0.6,0.2,1.1,0.6,1.5C20,39.9,20.6,40.1,21.4,40.1z M37.7,29c0.6,0,1.2-0.2,1.6-0.5c0.5-0.3,0.7-1,0.7-1.9
	c0-1.4-0.3-3-1-4.8C38.4,20,37,19,35,19c-0.4,0-0.7,0-1,0.1s-0.6,0.1-0.9,0.2l-4.8,1.8c0.2,0.4,0.4,0.9,0.6,1.4
	c0.2,0.6,0.2,1.1,0.2,1.6c1.4,0.3,2.7,0.7,3.8,1.3c1.1,0.6,2,1.4,2.6,2.4c0.2,0.3,0.5,0.6,0.9,0.8C36.9,28.9,37.3,29,37.7,29z"/>
</svg>
