<?xml version="1.0" encoding="utf-8"?>
<!-- Generator: Adobe Illustrator 26.3.1, SVG Export Plug-In . SVG Version: 6.00 Build 0)  -->
<svg version="1.1" id="Слой_1" xmlns="http://www.w3.org/2000/svg" xmlns:xlink="http://www.w3.org/1999/xlink" x="0px" y="0px"
	 viewBox="0 0 48 48" style="enable-background:new 0 0 48 48;" xml:space="preserve">
<path d="M42,40.2L35.8,34h-27c-0.8,0-1.4-0.3-2-0.8C6.3,32.7,6,32,6,31.2V8.8c0-0.8,0.3-1.4,0.8-2C7.3,6.3,8,6,8.8,6h30.5
	c0.8,0,1.4,0.3,2,0.8C41.7,7.3,42,8,42,8.8V40.2z M8.8,32.5h27.8l3.9,4.1V8.8c0-0.3-0.1-0.6-0.4-0.8c-0.3-0.3-0.5-0.4-0.8-0.4H8.8
	C8.5,7.6,8.2,7.7,8,8C7.7,8.2,7.5,8.5,7.5,8.8v22.5c0,0.3,0.1,0.6,0.4,0.8C8.2,32.3,8.5,32.5,8.8,32.5z M7.5,32.5v-25V32.5z"/>
</svg>
