<?xml version="1.0" encoding="utf-8"?>
<!-- Generator: Adobe Illustrator 26.3.1, SVG Export Plug-In . SVG Version: 6.00 Build 0)  -->
<svg version="1.1" id="Слой_1" xmlns="http://www.w3.org/2000/svg" xmlns:xlink="http://www.w3.org/1999/xlink" x="0px" y="0px"
	 viewBox="0 0 48 48" style="enable-background:new 0 0 48 48;" xml:space="preserve">
<path d="M14.8,33.4c-2.1-0.6-3.9-1.9-5.3-3.7s-2.1-3.9-2.1-6.3c0-1.8,0.4-3.5,1.1-4.9c0.7-1.5,1.5-2.8,2.5-4s2-2.2,3-3
	s1.8-1.5,2.5-1.9v2.3c0,1.3,0.4,2.3,1.3,3.2s2,1.3,3.2,1.3c0.5,0,1-0.1,1.4-0.3c0.5-0.2,0.9-0.4,1.2-0.7l0.6-0.5
	c0.9,0.7,1.7,1.5,2.3,2.4c0.6,0.9,1.1,1.9,1.4,3l-1.3,1.3c-0.2-0.9-0.5-1.7-0.9-2.5s-0.9-1.5-1.6-2.2c-0.5,0.3-1,0.6-1.5,0.7
	c-0.6,0.2-1.1,0.3-1.7,0.3c-1.5,0-2.8-0.5-3.9-1.5s-1.8-2.3-2.1-3.8c-1.7,1.4-3.1,3.1-4.2,4.9c-1.2,1.8-1.8,3.8-1.8,6
	c0,1.8,0.4,3.3,1.3,4.7c0.9,1.4,2,2.5,3.5,3.2c-0.1-0.3-0.2-0.5-0.2-0.8c-0.1-0.3-0.1-0.6-0.1-0.9c0-0.6,0.1-1.2,0.3-1.8
	c0.2-0.6,0.6-1.1,1-1.5l3.2-3.2l3.1,3.1c0.1,0.1,0.1,0.2,0.2,0.2c0.1,0.1,0.1,0.2,0.1,0.3l-1,1.2c0-0.1-0.1-0.2-0.1-0.3
	s-0.1-0.2-0.2-0.3l-2-2l-2.1,2.1c-0.3,0.3-0.5,0.6-0.7,0.9S15,29.1,15,29.5c0,0.5,0.1,1,0.4,1.4c0.3,0.4,0.6,0.7,1.1,0.9
	C16.5,31.8,14.8,33.4,14.8,33.4z M10.5,45l-1.1-1.1l32.5-32.5l1.1,1.1L32.5,23H43v1.5H30.9l-3.6,3.6l4.1,4.1H43v1.5H33l7.6,7.6
	l-1.1,1.1l-7.6-7.6V45h-1.5V33.3l-4.1-4.1l-3.7,3.7V45H21V34.4L10.5,45z"/>
</svg>
