<?xml version="1.0" encoding="utf-8"?>
<!-- Generator: Adobe Illustrator 26.3.1, SVG Export Plug-In . SVG Version: 6.00 Build 0)  -->
<svg version="1.1" id="Слой_1" xmlns="http://www.w3.org/2000/svg" xmlns:xlink="http://www.w3.org/1999/xlink" x="0px" y="0px"
	 viewBox="0 0 48 48" style="enable-background:new 0 0 48 48;" xml:space="preserve">
<path d="M24.8,32.6v9.6c0,0.2-0.1,0.4-0.2,0.6C24.4,42.9,24.2,43,24,43s-0.4-0.1-0.6-0.2c-0.1-0.1-0.2-0.3-0.2-0.6v-9.6L15.8,40
	c-0.1,0.1-0.3,0.2-0.5,0.2s-0.4-0.1-0.6-0.2c-0.1-0.2-0.2-0.4-0.2-0.6c0-0.2,0.1-0.4,0.2-0.5l8.1-8.2l-5.6-5.6l-8.1,8.1
	c-0.2,0.2-0.3,0.2-0.5,0.2s-0.4-0.1-0.5-0.2c-0.2-0.1-0.3-0.3-0.3-0.5s0.1-0.4,0.2-0.6l7.3-7.3H5.8c-0.2,0-0.4-0.1-0.6-0.2
	C5.1,24.4,5,24.2,5,24s0.1-0.4,0.2-0.6c0.1-0.1,0.3-0.2,0.6-0.2h9.6l-10.9-11c-0.1-0.1-0.2-0.3-0.2-0.5s0.1-0.4,0.2-0.6
	C4.6,11,4.8,10.9,5,10.9s0.4,0.1,0.6,0.3l33.2,33.3C39,44.6,39,44.8,39,45s-0.1,0.4-0.2,0.6c-0.1,0.2-0.3,0.3-0.5,0.3
	s-0.4-0.1-0.5-0.3L24.8,32.6z M30.4,24.8h-4.9l-2.2-2.2v-4.9l-8.4-8.4c-0.2-0.2-0.3-0.4-0.2-0.6c0-0.2,0.1-0.4,0.2-0.5
	C15,8.1,15.2,8,15.5,8c0.2,0,0.4,0.1,0.6,0.2l7.3,7.2V5.8c0-0.2,0.1-0.4,0.2-0.6C23.6,5.1,23.8,5,24,5s0.4,0.1,0.6,0.2
	c0.1,0.1,0.2,0.3,0.2,0.6v9.5L32.2,8c0.2-0.1,0.4-0.2,0.5-0.2c0.2,0,0.4,0.1,0.6,0.2c0.2,0.2,0.3,0.4,0.3,0.6c0,0.2-0.1,0.4-0.3,0.6
	l-8.5,8.5v5.6h5.6l8.4-8.4c0.2-0.2,0.4-0.2,0.6-0.2c0.2,0,0.4,0.1,0.5,0.2c0.1,0.1,0.2,0.3,0.2,0.5S40,15.8,39.9,16l-7.2,7.3h9.5
	c0.2,0,0.4,0.1,0.6,0.2c0.1,0.1,0.2,0.3,0.2,0.6s-0.1,0.4-0.2,0.6c-0.1,0.1-0.3,0.2-0.6,0.2h-9.5l7.3,7.4c0.1,0.1,0.1,0.2,0.1,0.3
	s0.1,0.2,0.1,0.3s0,0.2,0,0.3s-0.1,0.2-0.2,0.3c-0.2,0.1-0.4,0.2-0.6,0.2s-0.4-0.1-0.6-0.2C38.9,33.3,30.4,24.8,30.4,24.8z"/>
</svg>
