<?xml version="1.0" encoding="utf-8"?>
<!-- Generator: Adobe Illustrator 26.3.1, SVG Export Plug-In . SVG Version: 6.00 Build 0)  -->
<svg version="1.1" id="Слой_1" xmlns="http://www.w3.org/2000/svg" xmlns:xlink="http://www.w3.org/1999/xlink" x="0px" y="0px"
	 viewBox="0 0 48 48" style="enable-background:new 0 0 48 48;" xml:space="preserve">
<path d="M17.2,40c-2.5,0-4.7-0.9-6.5-2.7S8,33.3,8,30.8c0-1.1,0.2-2.1,0.6-3.1c0.4-1,0.9-1.9,1.6-2.8l7.3-8.7L13.3,8h21.5l-4.1,8.3
	l7.2,8.7c0.7,0.8,1.3,1.8,1.6,2.8c0.4,1,0.5,2,0.5,3.1c0,2.5-0.9,4.7-2.7,6.5c-1.8,1.8-3.9,2.7-6.5,2.7H17.2V40z M24,30.6
	c-0.8,0-1.4-0.3-1.9-0.8s-0.8-1.2-0.8-2s0.3-1.4,0.8-2S23.2,25,24,25s1.5,0.3,2,0.8s0.8,1.2,0.8,2s-0.3,1.4-0.8,2
	C25.5,30.3,24.8,30.6,24,30.6z M18.8,15.6h10.5l3-6.1H15.7L18.8,15.6z M17.2,38.5h13.6c2.1,0,3.9-0.7,5.4-2.2s2.2-3.3,2.2-5.4
	c0-0.9-0.1-1.8-0.4-2.6c-0.3-0.8-0.7-1.6-1.3-2.3l-7.3-8.8H18.7L11.4,26c-0.6,0.7-1,1.5-1.3,2.3S9.6,30,9.6,30.9
	c0,2.1,0.7,3.9,2.2,5.4C13.3,37.7,15.1,38.5,17.2,38.5z"/>
</svg>
