<?xml version="1.0" encoding="utf-8"?>
<!-- Generator: Adobe Illustrator 26.3.1, SVG Export Plug-In . SVG Version: 6.00 Build 0)  -->
<svg version="1.1" id="Слой_1" xmlns="http://www.w3.org/2000/svg" xmlns:xlink="http://www.w3.org/1999/xlink" x="0px" y="0px"
	 viewBox="0 0 48 48" style="enable-background:new 0 0 48 48;" xml:space="preserve">
<path d="M18.7,25.5c0.4,0,0.8-0.1,1.1-0.4c0.3-0.3,0.5-0.7,0.5-1.1c0-0.5-0.2-0.8-0.5-1.1c-0.3-0.3-0.7-0.4-1.1-0.4
	c-0.5,0-0.8,0.1-1.1,0.4c-0.3,0.3-0.5,0.7-0.5,1.1c0,0.5,0.2,0.8,0.5,1.1C17.8,25.4,18.2,25.5,18.7,25.5z M25.9,25.5
	c0.5,0,0.8-0.1,1.1-0.4c0.3-0.3,0.4-0.7,0.4-1.1c0-0.5-0.1-0.8-0.4-1.1s-0.7-0.4-1.1-0.4s-0.8,0.1-1.1,0.4c-0.3,0.3-0.5,0.7-0.5,1.1
	c0,0.5,0.2,0.8,0.5,1.1C25.1,25.4,25.5,25.5,25.9,25.5z M33.2,25.5c0.4,0,0.8-0.1,1.1-0.4s0.5-0.7,0.5-1.1c0-0.5-0.2-0.8-0.5-1.1
	c-0.3-0.3-0.7-0.4-1.1-0.4c-0.5,0-0.8,0.1-1.1,0.4s-0.5,0.7-0.5,1.1c0,0.5,0.2,0.8,0.5,1.1C32.4,25.4,32.8,25.5,33.2,25.5z M18.8,36
	c-0.8,0-1.5-0.2-2.1-0.5c-0.6-0.4-1.2-0.8-1.6-1.5L8,24l7.1-9.9c0.4-0.6,1-1.1,1.6-1.5S18,12,18.8,12h18.5c0.7,0,1.4,0.3,1.9,0.8
	S40,14,40,14.7v18.5c0,0.7-0.3,1.4-0.8,1.9c-0.6,0.6-1.2,0.9-2,0.9H18.8z M38.5,34.5v-21V34.5z M18.5,34.5h18.7
	c0.3,0,0.6-0.1,0.8-0.4c0.3-0.3,0.4-0.5,0.4-0.8V14.8c0-0.3-0.1-0.6-0.4-0.8c-0.3-0.3-0.5-0.4-0.8-0.4H18.5c-0.4,0-0.8,0.1-1.1,0.3
	c-0.3,0.2-0.6,0.4-0.8,0.7L9.9,24l6.7,9.5c0.2,0.3,0.5,0.5,0.8,0.7C17.8,34.4,18.1,34.5,18.5,34.5z"/>
</svg>
