<?xml version="1.0" encoding="utf-8"?>
<!-- Generator: Adobe Illustrator 26.3.1, SVG Export Plug-In . SVG Version: 6.00 Build 0)  -->
<svg version="1.1" id="Слой_1" xmlns="http://www.w3.org/2000/svg" xmlns:xlink="http://www.w3.org/1999/xlink" x="0px" y="0px"
	 viewBox="0 0 48 48" style="enable-background:new 0 0 48 48;" xml:space="preserve">
<path d="M3,41V16.5c-0.6-0.3-1.1-0.7-1.4-1.1c-0.4-0.5-0.6-1-0.6-1.6c0-0.5,0.2-1.1,0.7-1.9s1.2-1.5,2.1-2.4
	c0.9,0.9,1.6,1.6,2.1,2.4c0.5,0.7,0.7,1.3,0.7,1.9c0,0.6-0.2,1.2-0.6,1.6c-0.4,0.5-0.9,0.8-1.4,1.1V27h6.7v-5.5
	c0-0.7,0.3-1.4,0.8-1.9c0.6-0.5,1.2-0.8,2-0.7h1.4c-0.7-0.7-1.3-1.5-1.7-2.3c-0.4-0.8-0.6-1.7-0.6-2.6c0-1.1,0.3-2.2,0.8-3.1
	c0.5-1,1.3-1.7,2.2-2.3L24,3.2l7.8,5.3c0.9,0.6,1.7,1.4,2.2,2.3c0.5,1,0.8,2,0.8,3.1c0,0.9-0.2,1.8-0.6,2.6
	c-0.4,0.8-0.9,1.6-1.7,2.3h1.4c0.8-0.1,1.5,0.2,2,0.7c0.6,0.5,0.8,1.2,0.8,1.9V27h6.7V16.5c-0.6-0.3-1.1-0.7-1.5-1.1
	c-0.4-0.5-0.5-1-0.5-1.6c0-0.5,0.2-1.1,0.7-1.9c0.5-0.7,1.2-1.5,2.1-2.4c0.9,0.9,1.6,1.6,2.1,2.4c0.5,0.7,0.7,1.3,0.7,1.9
	c0,0.6-0.2,1.2-0.5,1.6c-0.4,0.5-0.8,0.8-1.5,1.2V41H27.2v-7c0-0.9-0.3-1.7-0.9-2.3c-0.6-0.6-1.4-0.9-2.3-0.9s-1.7,0.3-2.3,0.9
	c-0.6,0.6-0.9,1.4-0.9,2.3v7H3z M19.8,18.9h8.4c1.4,0,2.6-0.5,3.6-1.4c1-1,1.5-2.2,1.5-3.6c0-0.9-0.2-1.7-0.6-2.4
	c-0.4-0.7-0.9-1.3-1.6-1.8l-7-4.7l-7,4.7c-0.7,0.5-1.2,1.1-1.6,1.8c-0.4,0.7-0.6,1.5-0.6,2.4c0,1.4,0.5,2.6,1.5,3.6
	C17.2,18.5,18.4,18.9,19.8,18.9z M4.5,39.5h14.7V34c0-1.3,0.5-2.5,1.4-3.4s2.1-1.4,3.4-1.4s2.5,0.5,3.4,1.4s1.4,2.1,1.4,3.4v5.5
	h14.7v-11h-8.2v-7.1c0-0.3-0.1-0.5-0.3-0.7s-0.4-0.3-0.7-0.3H13.8c-0.3,0-0.5,0.1-0.7,0.3c-0.2,0.2-0.3,0.4-0.3,0.7v7.1H4.5V39.5z"
	/>
</svg>
