<?xml version="1.0" encoding="utf-8"?>
<!-- Generator: Adobe Illustrator 26.3.1, SVG Export Plug-In . SVG Version: 6.00 Build 0)  -->
<svg version="1.1" id="Слой_1" xmlns="http://www.w3.org/2000/svg" xmlns:xlink="http://www.w3.org/1999/xlink" x="0px" y="0px"
	 viewBox="0 0 48 48" style="enable-background:new 0 0 48 48;" xml:space="preserve">
<path d="M8.8,38c-0.8,0-1.4-0.3-2-0.8C6.3,36.7,6,36,6,35.2v-7.1h1.5v7.1c0,0.3,0.1,0.6,0.4,0.8c0.3,0.3,0.5,0.4,0.8,0.4h7.1V38H8.8
	z M6,11.8v-7c0-0.8,0.3-1.4,0.8-2C7.3,2.3,8,2,8.8,2h7.1v1.5H8.8C8.5,3.5,8.2,3.6,8,3.9C7.7,4.2,7.5,4.5,7.5,4.8v7.1L6,11.8L6,11.8z
	 M21.8,32.7c-2.7-0.4-5.1-1.6-7-3.6s-3.1-4.3-3.6-7h1.5c0.4,2.3,1.5,4.3,3.1,6c1.7,1.6,3.6,2.7,5.9,3.1
	C21.8,31.2,21.8,32.7,21.8,32.7z M11.3,17.8c0.4-2.7,1.6-5.1,3.6-7s4.3-3.1,7-3.6v1.5c-2.3,0.4-4.3,1.5-6,3.1
	c-1.6,1.6-2.7,3.6-3.1,6C12.8,17.8,11.3,17.8,11.3,17.8z M24,22.8c-0.8,0-1.4-0.3-2-0.8c-0.5-0.5-0.8-1.2-0.8-2
	c0-0.7,0.3-1.4,0.8-1.9s1.2-0.8,2-0.8c0.7,0,1.4,0.3,1.9,0.8s0.8,1.2,0.8,2s-0.3,1.4-0.8,2C25.4,22.5,24.8,22.8,24,22.8z M35.2,17.8
	c-0.4-2.3-1.5-4.3-3.1-6c-1.6-1.6-3.6-2.7-6-3.1V7.3c2.7,0.4,5.1,1.6,7,3.6c1.9,1.9,3.1,4.3,3.6,7C36.7,17.8,35.2,17.8,35.2,17.8z
	 M40.5,11.8v-7c0-0.3-0.1-0.6-0.4-0.8c-0.3-0.3-0.5-0.4-0.8-0.4h-7.1V2h7.1c0.8,0,1.4,0.3,2,0.8C41.7,3.3,42,4,42,4.8v7.1L40.5,11.8
	L40.5,11.8z M35.4,39.2c-2.2,0-4-0.8-5.5-2.3s-2.3-3.4-2.3-5.5c0-2.2,0.8-4,2.3-5.5s3.4-2.3,5.5-2.3c2.2,0,4,0.8,5.5,2.3
	s2.2,3.4,2.2,5.5s-0.8,4-2.3,5.5C39.4,38.4,37.6,39.2,35.4,39.2z M35.4,36.2c0.2,0,0.5-0.1,0.7-0.3s0.3-0.4,0.3-0.7
	s-0.1-0.5-0.3-0.7s-0.4-0.3-0.7-0.3s-0.5,0.1-0.7,0.3s-0.3,0.4-0.3,0.7s0.1,0.5,0.3,0.7C34.9,36.1,35.2,36.2,35.4,36.2z M34.7,32.4
	h1.4v-5.6h-1.4V32.4z"/>
</svg>
