<?xml version="1.0" encoding="utf-8"?>
<!-- Generator: Adobe Illustrator 26.3.1, SVG Export Plug-In . SVG Version: 6.00 Build 0)  -->
<svg version="1.1" id="Слой_1" xmlns="http://www.w3.org/2000/svg" xmlns:xlink="http://www.w3.org/1999/xlink" x="0px" y="0px"
	 viewBox="0 0 48 48" style="enable-background:new 0 0 48 48;" xml:space="preserve">
<path d="M24,42c-2.5,0-4.8-0.5-7-1.4s-4.1-2.2-5.7-3.8s-2.9-3.5-3.8-5.7s-1.4-4.5-1.4-7c0-1.2,0.1-2.4,0.3-3.5
	c0.2-1.1,0.5-2.2,0.9-3.3l1.2,1.2c-0.3,0.9-0.5,1.8-0.7,2.8C7.6,22.1,7.5,23,7.5,24c0,4.6,1.6,8.5,4.8,11.7s7.1,4.8,11.7,4.8
	s8.5-1.6,11.7-4.8s4.8-7.1,4.8-11.7s-1.6-8.5-4.8-11.7S28.6,7.5,24,7.5c-0.9,0-1.9,0.1-2.8,0.2s-1.8,0.4-2.7,0.7l-1.2-1.2
	c1-0.4,2.1-0.7,3.2-0.9c1-0.2,2.1-0.3,3.2-0.3c2.5,0,4.9,0.5,7.1,1.4s4.2,2.2,5.8,3.9c1.7,1.6,3,3.5,4,5.7s1.4,4.5,1.4,7
	s-0.5,4.8-1.4,7s-2.2,4.1-3.8,5.7c-1.6,1.6-3.5,2.9-5.7,3.8C28.8,41.5,26.5,42,24,42z M11.7,13.2c-0.4,0-0.8-0.2-1.1-0.5
	s-0.5-0.7-0.5-1.1c0-0.4,0.2-0.8,0.5-1.1s0.7-0.5,1.1-0.5c0.4,0,0.8,0.2,1.1,0.5s0.5,0.7,0.5,1.1c0,0.4-0.2,0.8-0.5,1.1
	S12.1,13.2,11.7,13.2z"/>
</svg>
