<?xml version="1.0" encoding="utf-8"?>
<!-- Generator: Adobe Illustrator 26.3.1, SVG Export Plug-In . SVG Version: 6.00 Build 0)  -->
<svg version="1.1" id="Слой_1" xmlns="http://www.w3.org/2000/svg" xmlns:xlink="http://www.w3.org/1999/xlink" x="0px" y="0px"
	 viewBox="0 0 48 48" style="enable-background:new 0 0 48 48;" xml:space="preserve">
<path d="M8.8,42c-0.8,0-1.4-0.3-2-0.8C6.3,40.7,6,40,6,39.2v-7.1h1.5v7.1c0,0.3,0.1,0.6,0.4,0.8c0.3,0.3,0.5,0.4,0.8,0.4h7.1V42H8.8
	z M6,15.8v-7c0-0.8,0.3-1.4,0.8-2C7.3,6.3,8,6,8.8,6h7.1v1.5H8.8C8.5,7.5,8.2,7.6,8,7.9C7.7,8.2,7.5,8.5,7.5,8.8v7.1L6,15.8L6,15.8z
	 M21.8,36.7c-2.7-0.4-5.1-1.6-7-3.6c-1.9-1.9-3.1-4.3-3.6-7h1.5c0.4,2.3,1.5,4.3,3.1,6c1.7,1.6,3.6,2.7,5.9,3.1
	C21.8,35.2,21.8,36.7,21.8,36.7z M11.3,21.8c0.4-2.7,1.6-5.1,3.6-7s4.3-3.1,7-3.6v1.5c-2.3,0.4-4.3,1.5-6,3.1
	c-1.6,1.6-2.7,3.6-3.1,6C12.8,21.8,11.3,21.8,11.3,21.8z M24,26.8c-0.8,0-1.4-0.3-2-0.8c-0.5-0.5-0.8-1.2-0.8-2
	c0-0.7,0.3-1.4,0.8-1.9s1.2-0.8,2-0.8c0.7,0,1.4,0.3,1.9,0.8s0.8,1.2,0.8,2s-0.3,1.4-0.8,2C25.4,26.5,24.8,26.8,24,26.8z M26.2,36.7
	v-1.5c2.3-0.4,4.3-1.5,6-3.1c1.6-1.7,2.7-3.6,3.1-5.9h1.5c-0.4,2.7-1.6,5.1-3.6,7S28.9,36.3,26.2,36.7z M35.2,21.8
	c-0.4-2.3-1.5-4.3-3.1-6c-1.6-1.6-3.6-2.7-6-3.1v-1.5c2.7,0.4,5.1,1.6,7,3.6c1.9,2,3.1,4.3,3.6,7H35.2z M32.2,42v-1.5h7.1
	c0.3,0,0.6-0.1,0.8-0.4c0.3-0.3,0.4-0.5,0.4-0.8v-7.1H42v7.1c0,0.8-0.3,1.4-0.8,2c-0.5,0.5-1.2,0.8-2,0.8L32.2,42L32.2,42z
	 M40.5,15.8v-7c0-0.3-0.1-0.6-0.4-0.8c-0.3-0.3-0.5-0.4-0.8-0.4h-7.1V6h7.1c0.8,0,1.4,0.3,2,0.8C41.7,7.3,42,8,42,8.8v7.1L40.5,15.8
	L40.5,15.8z"/>
</svg>
