<?xml version="1.0" encoding="utf-8"?>
<!-- Generator: Adobe Illustrator 26.3.1, SVG Export Plug-In . SVG Version: 6.00 Build 0)  -->
<svg version="1.1" id="Слой_1" xmlns="http://www.w3.org/2000/svg" xmlns:xlink="http://www.w3.org/1999/xlink" x="0px" y="0px"
	 viewBox="0 0 48 48" style="enable-background:new 0 0 48 48;" xml:space="preserve">
<path d="M21.8,8.7v1.5c-0.5,0.1-1.1,0.2-1.6,0.4s-1,0.4-1.5,0.6l-1.1-1.1c0.6-0.4,1.3-0.7,2-0.9C20.4,9,21.1,8.8,21.8,8.7z
	 M36.7,23.6c-0.1,0.8-0.3,1.5-0.5,2.2s-0.5,1.4-0.9,2l-1.1-1.1c0.2-0.5,0.4-1,0.6-1.5c0.2-0.5,0.3-1.1,0.4-1.6H36.7z M42.5,42.2
	L3.8,3.4l1.1-1.1l38.8,38.8C43.6,41.1,42.5,42.2,42.5,42.2z M8.8,39.4c-0.8,0-1.4-0.3-2-0.8c-0.5-0.5-0.8-1.2-0.8-2v-7.1h1.5v7.1
	c0,0.3,0.1,0.6,0.4,0.8c0.3,0.3,0.5,0.4,0.8,0.4h7.1v1.5L8.8,39.4L8.8,39.4z M40.5,13.2v-7c0-0.3-0.1-0.6-0.4-0.8
	C39.8,5.1,39.6,5,39.3,5h-7.1V3.4h7.1c0.8,0,1.4,0.3,2,0.8c0.5,0.5,0.8,1.2,0.8,2v7.1h-1.6V13.2z M6,13.2v-7c0-0.4,0.1-0.7,0.2-1.1
	c0.1-0.3,0.3-0.6,0.5-0.9l1.1,1.1C7.7,5.4,7.6,5.6,7.6,5.7C7.5,5.9,7.5,6,7.5,6.2v7.1L6,13.2L6,13.2z M32.2,39.4v-1.5h7
	c0.2,0,0.3,0,0.4-0.1c0.1-0.1,0.2-0.2,0.3-0.3l1.1,1.1c-0.2,0.2-0.5,0.4-0.8,0.6c-0.3,0.2-0.7,0.2-1,0.2H32.2z M12.4,4.9l-1.5-1.5h5
	v1.5H12.4z M42,34.5L40.5,33v-3.4H42V34.5z M11.3,23.6h1.5c0.4,2.3,1.5,4.3,3.1,6c1.6,1.6,3.6,2.7,6,3.1v1.5c-2.7-0.4-5.1-1.6-7-3.6
	S11.7,26.3,11.3,23.6z M14.8,12.3l1.1,1c-0.8,0.8-1.5,1.7-2,2.7s-0.9,2.1-1.1,3.2h-1.5c0.2-1.3,0.6-2.6,1.2-3.8
	C13.1,14.3,13.9,13.2,14.8,12.3z M32.1,29.5l1,1.1c-1,1-2,1.7-3.2,2.3c-1.2,0.6-2.5,1-3.8,1.2v-1.5c1.1-0.2,2.2-0.6,3.2-1.2
	C30.4,31,31.3,30.3,32.1,29.5z M26.2,8.7c2.7,0.4,5.1,1.6,7,3.6c1.9,2,3.1,4.3,3.6,7h-1.5c-0.4-2.3-1.5-4.3-3.1-6
	c-1.6-1.6-3.6-2.7-6-3.1C26.2,10.2,26.2,8.7,26.2,8.7z"/>
</svg>
