<?xml version="1.0" encoding="utf-8"?>
<!-- Generator: Adobe Illustrator 26.3.1, SVG Export Plug-In . SVG Version: 6.00 Build 0)  -->
<svg version="1.1" id="Слой_1" xmlns="http://www.w3.org/2000/svg" xmlns:xlink="http://www.w3.org/1999/xlink" x="0px" y="0px"
	 viewBox="0 0 48 48" style="enable-background:new 0 0 48 48;" xml:space="preserve">
<path d="M16.5,26.7l3.6,2.4l4-2l3.9,2l3.6-2.4l-2.2-4.5c-0.1-0.2-0.3-0.4-0.5-0.5s-0.4-0.2-0.7-0.2h-8.4c-0.2,0-0.4,0.1-0.6,0.2
	s-0.3,0.3-0.4,0.5C18.7,22.2,16.5,26.7,16.5,26.7z M9.7,40.5h28.6l-6.1-12.3L28.1,31L24,29l-4.1,2l-4.2-2.8L9.7,40.5z M7.2,42
	l10.1-20.5c0.2-0.4,0.6-0.8,1-1.1c0.4-0.3,0.9-0.4,1.4-0.4h3.5V6H34l-1.3,2.8l1.3,2.8h-9.2V20h3.3c0.5,0,1,0.1,1.4,0.4
	s0.8,0.6,1,1.1L40.8,42H7.2z"/>
</svg>
