<?xml version="1.0" encoding="utf-8"?>
<!-- Generator: Adobe Illustrator 26.3.1, SVG Export Plug-In . SVG Version: 6.00 Build 0)  -->
<svg version="1.1" id="Слой_1" xmlns="http://www.w3.org/2000/svg" xmlns:xlink="http://www.w3.org/1999/xlink" x="0px" y="0px"
	 viewBox="0 0 48 48" style="enable-background:new 0 0 48 48;" xml:space="preserve">
<path d="M24,42c-3.4,0-6.2-1.2-8.5-3.5S12,33.4,12,30V17.7c0-3.4,1.2-6.2,3.5-8.5s5.2-3.5,8.5-3.5c3.4,0,6.2,1.2,8.5,3.5
	s3.5,5.2,3.5,8.5v5.9c-0.2-0.1-0.5-0.1-0.8-0.1s-0.5,0-0.8,0v-4.2H13.5V30c0,2.9,1,5.4,3.1,7.4s4.5,3.1,7.4,3.1c0.2,0,0.4,0,0.5,0
	c0.2,0,0.3-0.1,0.5-0.1V42c-0.1,0.1-0.3,0.1-0.5,0.1C24.4,42,24.2,42,24,42z M13.5,17.7h9.7V7.2c-2.7,0.2-5,1.3-6.9,3.3
	C14.5,12.5,13.5,14.9,13.5,17.7z M24.8,17.7h9.7c0-2.8-0.9-5.2-2.8-7.2c-1.9-2-4.2-3.1-6.9-3.3C24.8,7.2,24.8,17.7,24.8,17.7z
	 M30.8,42c-0.5,0-0.9-0.2-1.3-0.6c-0.4-0.4-0.6-0.9-0.6-1.3v-5.4c0-0.5,0.2-0.9,0.6-1.3c0.4-0.4,0.9-0.6,1.3-0.6h0.1v-2
	c0-1,0.3-1.9,1-2.6c0.7-0.7,1.5-1.1,2.5-1.1s1.9,0.4,2.5,1.1c0.7,0.7,1,1.6,1,2.6v2H38c0.5,0,0.9,0.2,1.3,0.6
	c0.4,0.4,0.6,0.8,0.6,1.3v5.4c0,0.4-0.2,0.9-0.6,1.3C39,41.8,38.6,42,38.1,42H30.8z M32.4,32.8h4.1v-2c0-0.6-0.2-1.1-0.6-1.5
	c-0.4-0.4-0.9-0.6-1.5-0.6s-1.1,0.2-1.4,0.6c-0.4,0.4-0.6,0.9-0.6,1.5V32.8z"/>
</svg>
