<?xml version="1.0" encoding="utf-8"?>
<!-- Generator: Adobe Illustrator 26.3.1, SVG Export Plug-In . SVG Version: 6.00 Build 0)  -->
<svg version="1.1" id="Слой_1" xmlns="http://www.w3.org/2000/svg" xmlns:xlink="http://www.w3.org/1999/xlink" x="0px" y="0px"
	 viewBox="0 0 48 48" style="enable-background:new 0 0 48 48;" xml:space="preserve">
<path d="M24,42c-3.4,0-6.2-1.2-8.5-3.5S12,33.4,12,30V17.7c0-3.4,1.2-6.2,3.5-8.5s5.2-3.5,8.5-3.5c3.4,0,6.2,1.2,8.5,3.5
	s3.5,5.2,3.5,8.5V30c0,3.4-1.2,6.2-3.5,8.5S27.4,42,24,42z M24.8,17.7h9.7c0-2.8-0.9-5.2-2.8-7.2c-1.9-2-4.2-3.1-6.9-3.3
	C24.8,7.2,24.8,17.7,24.8,17.7z M13.5,17.7h9.7V7.2c-2.7,0.2-5,1.3-6.9,3.3C14.5,12.5,13.5,14.9,13.5,17.7z M24,40.5
	c2.9,0,5.4-1,7.4-3.1c2-2,3.1-4.5,3.1-7.4V19.2h-21V30c0,2.9,1,5.4,3.1,7.4C18.6,39.4,21.1,40.5,24,40.5z"/>
</svg>
