<?xml version="1.0" encoding="utf-8"?>
<!-- Generator: Adobe Illustrator 26.3.1, SVG Export Plug-In . SVG Version: 6.00 Build 0)  -->
<svg version="1.1" id="Слой_1" xmlns="http://www.w3.org/2000/svg" xmlns:xlink="http://www.w3.org/1999/xlink" x="0px" y="0px"
	 viewBox="0 0 48 48" style="enable-background:new 0 0 48 48;" xml:space="preserve">
<path d="M24,5.7c3.4,0,6.2,1.2,8.5,3.5s3.5,5.2,3.5,8.5v5.9c-0.2-0.1-0.5-0.1-0.8-0.1s-0.5,0-0.8,0v-4.2H23.8l-0.5-0.5V7.2
	c-1.5,0.1-2.9,0.5-4.2,1.2c-1.3,0.7-2.4,1.6-3.3,2.8l-1.1-1.1c1.1-1.4,2.4-2.4,4.1-3.2C20.3,6.1,22.1,5.7,24,5.7z M12.8,13.3l5.9,6
	h-5.2V30c0,2.9,1,5.4,3.1,7.4s4.5,3.1,7.4,3.1c0.2,0,0.4,0,0.5,0c0.2,0,0.3-0.1,0.5-0.1V42c-0.1,0.1-0.3,0.1-0.5,0.1s-0.3,0-0.5,0
	c-3.4,0-6.2-1.2-8.5-3.5S12,33.4,12,30V17.7c0-0.8,0.1-1.6,0.2-2.3C12.4,14.7,12.6,14,12.8,13.3z M24.8,17.7h9.7
	c0-2.8-0.9-5.2-2.8-7.2c-1.9-2-4.2-3.1-6.9-3.3C24.8,7.2,24.8,17.7,24.8,17.7z M41.2,44L4.2,6.9l1.1-1.1l37,37.1
	C42.3,42.9,41.2,44,41.2,44z M30.8,42c-0.5,0-0.9-0.2-1.3-0.6c-0.4-0.4-0.6-0.9-0.6-1.3v-5.9c0-0.4,0.1-0.7,0.4-1s0.6-0.4,1-0.4h2.1
	l7.7,7.7v-0.1c-0.1,0.4-0.3,0.8-0.7,1.1S38.6,42,38.2,42C38.1,42,30.8,42,30.8,42z M38,33.4l-1.5-1.5v-1.1c0-0.6-0.2-1.1-0.6-1.5
	c-0.4-0.4-0.9-0.6-1.5-0.6c-0.2,0-0.4,0-0.5,0.1c-0.2,0.1-0.3,0.2-0.4,0.3L32.3,28c0.3-0.2,0.6-0.4,0.9-0.5c0.3-0.1,0.7-0.2,1.1-0.2
	c1,0,1.9,0.4,2.5,1.1c0.7,0.7,1,1.6,1,2.6C38,30.8,38,33.4,38,33.4z"/>
</svg>
