<?xml version="1.0" encoding="utf-8"?>
<!-- Generator: Adobe Illustrator 26.3.1, SVG Export Plug-In . SVG Version: 6.00 Build 0)  -->
<svg version="1.1" id="Слой_1" xmlns="http://www.w3.org/2000/svg" xmlns:xlink="http://www.w3.org/1999/xlink" x="0px" y="0px"
	 viewBox="0 0 48 48" style="enable-background:new 0 0 48 48;" xml:space="preserve">
<path d="M16.9,38c-3.4,0-6.3-1.2-8.8-3.5c-2.4-2.3-3.7-5.2-3.7-8.5c0-3.6,1.4-6.5,4.2-8.7s6-3.3,9.6-3.2l-4.6-4.6l1.1-1.1l6.6,6.6
	l-6.6,6.6l-1.1-1.1l4.8-4.8c-3.3-0.1-6.2,0.9-8.7,2.8C7.3,20.4,6,22.9,6,26c0,3,1.1,5.5,3.2,7.5s4.7,3,7.7,3H21V38H16.9z M27,21.6
	V10h15v11.6H27z M27,38V26.4h15V38H27z M28.5,36.5h11.9V28H28.5V36.5z"/>
</svg>
