<?xml version="1.0" encoding="utf-8"?>
<!-- Generator: Adobe Illustrator 26.3.1, SVG Export Plug-In . SVG Version: 6.00 Build 0)  -->
<svg version="1.1" id="Слой_1" xmlns="http://www.w3.org/2000/svg" xmlns:xlink="http://www.w3.org/1999/xlink" x="0px" y="0px"
	 viewBox="0 0 48 48" style="enable-background:new 0 0 48 48;" xml:space="preserve">
<path d="M10.8,40c-0.8,0-1.4-0.3-2-0.8C8.3,38.7,8,38,8,37.2V10.8c0-0.8,0.3-1.4,0.8-2C9.3,8.3,10,8,10.8,8h26.5
	c0.8,0,1.4,0.3,2,0.8c0.5,0.5,0.8,1.2,0.8,2v26.5c0,0.8-0.3,1.4-0.8,2c-0.5,0.5-1.2,0.8-2,0.8L10.8,40L10.8,40z M10.8,38.5h26.5
	c0.4,0,0.7-0.1,0.9-0.3s0.3-0.5,0.3-0.9v-5.9h-7.8c-0.7,1.3-1.6,2.3-2.8,3c-1.2,0.7-2.5,1.1-3.9,1.1s-2.7-0.4-3.9-1.1
	c-1.2-0.7-2.2-1.7-2.8-3H9.5v5.9c0,0.4,0.1,0.7,0.3,0.9C10.1,38.3,10.4,38.5,10.8,38.5z M24,33.8c1.3,0,2.5-0.4,3.6-1.1
	c1.1-0.8,1.9-1.7,2.4-2.9h8.5v-19c0-0.4-0.1-0.7-0.3-0.9s-0.5-0.3-0.9-0.3H10.8c-0.4,0-0.7,0.1-0.9,0.3s-0.3,0.5-0.3,0.9v19H18
	c0.6,1.2,1.4,2.2,2.4,2.9C21.5,33.5,22.7,33.8,24,33.8z M24,26.1l-6.5-6.5l1.1-1.1l4.6,4.6v-9.9h1.5v9.9l4.6-4.6l1.1,1.1L24,26.1z
	 M10.8,38.5H9.5h28.9C38.5,38.5,10.8,38.5,10.8,38.5z"/>
</svg>
