<?xml version="1.0" encoding="utf-8"?>
<!-- Generator: Adobe Illustrator 26.3.1, SVG Export Plug-In . SVG Version: 6.00 Build 0)  -->
<svg version="1.1" id="Слой_1" xmlns="http://www.w3.org/2000/svg" xmlns:xlink="http://www.w3.org/1999/xlink" x="0px" y="0px"
	 viewBox="0 0 48 48" style="enable-background:new 0 0 48 48;" xml:space="preserve">
<path d="M14.7,39.6l-1.1-1.1l4.6-4.6c-3.7,0.1-6.9-1-9.6-3.2c-2.8-2.2-4.2-5.1-4.2-8.7c0-3.4,1.2-6.2,3.7-8.5
	c2.4-2.3,5.4-3.5,8.8-3.5H21v1.5h-4.1c-3,0-5.6,1-7.7,3C7.1,16.6,6,19,6,22c0,3.1,1.3,5.6,3.8,7.6c2.5,1.9,5.4,2.9,8.7,2.8l-4.8-4.8
	l1.1-1.1l6.6,6.6L14.7,39.6z M27,38V26.4h15V38H27z M27,21.6V10h15v11.6H27z M28.5,20.1h11.9v-8.5H28.5V20.1z"/>
</svg>
