<?xml version="1.0" encoding="utf-8"?>
<!-- Generator: Adobe Illustrator 26.3.1, SVG Export Plug-In . SVG Version: 6.00 Build 0)  -->
<svg version="1.1" id="Слой_1" xmlns="http://www.w3.org/2000/svg" xmlns:xlink="http://www.w3.org/1999/xlink" x="0px" y="0px"
	 viewBox="0 0 48 48" style="enable-background:new 0 0 48 48;" xml:space="preserve">
<path d="M6.3,34.6l-1.1-1.1l10.1-10.1c0.9-0.9,2.1-1.4,3.4-1.4s2.4,0.5,3.4,1.4l2.3,2.3c0.6,0.7,1.4,1,2.3,1s1.7-0.3,2.3-1
	l11.2-11.2h-6.9V13h9.5v9.5h-1.5v-6.9L30,26.9c-0.9,0.9-2.1,1.4-3.4,1.4s-2.4-0.4-3.4-1.4l-2.3-2.4c-0.6-0.6-1.4-1-2.3-0.9
	c-0.9,0-1.6,0.3-2.3,0.9C16.4,24.5,6.3,34.6,6.3,34.6z"/>
</svg>
