<?xml version="1.0" encoding="utf-8"?>
<!-- Generator: Adobe Illustrator 26.3.1, SVG Export Plug-In . SVG Version: 6.00 Build 0)  -->
<svg version="1.1" id="Слой_1" xmlns="http://www.w3.org/2000/svg" xmlns:xlink="http://www.w3.org/1999/xlink" x="0px" y="0px"
	 viewBox="0 0 48 48" style="enable-background:new 0 0 48 48;" xml:space="preserve">
<path d="M7.5,36.5V17.4V36.5z M8.8,38c-0.8,0-1.4-0.3-2-0.8C6.3,36.7,6,36,6,35.2V12.8c0-0.8,0.3-1.4,0.8-2C7.3,10.3,8,10,8.8,10
	l2.9,5.8h6.2L15,10h4.2l2.9,5.8h6.2L25.5,10h4.2l2.9,5.8h6.2L35.9,10h3.4c0.8,0,1.4,0.3,2,0.8c0.5,0.5,0.8,1.2,0.8,2v7.3h-1.5v-2.7
	H7.5v17.9c0,0.4,0.1,0.7,0.3,0.9c0.2,0.2,0.5,0.3,0.9,0.3h15.4V38H8.8z M28.5,40v-4.4L39.1,25c0.2-0.2,0.4-0.3,0.6-0.4
	c0.2-0.1,0.4-0.1,0.6-0.1c0.2,0,0.4,0,0.7,0.1c0.2,0.1,0.4,0.2,0.6,0.4l1.8,1.9c0.2,0.2,0.3,0.4,0.4,0.6c0.1,0.2,0.1,0.4,0.1,0.6
	s0,0.4-0.1,0.6s-0.2,0.4-0.4,0.6L32.9,40H28.5z M42.2,28.1l-1.8-1.9L42.2,28.1z M30.2,38.2h1.9l6.9-6.9l-0.9-1l-0.9-1l-7,7
	C30.2,36.3,30.2,38.2,30.2,38.2z M38.1,30.3l-0.9-1l1.9,1.9L38.1,30.3z"/>
</svg>
