<?xml version="1.0" encoding="utf-8"?>
<!-- Generator: Adobe Illustrator 26.3.1, SVG Export Plug-In . SVG Version: 6.00 Build 0)  -->
<svg version="1.1" id="Слой_1" xmlns="http://www.w3.org/2000/svg" xmlns:xlink="http://www.w3.org/1999/xlink" x="0px" y="0px"
	 viewBox="0 0 48 48" style="enable-background:new 0 0 48 48;" xml:space="preserve">
<path d="M8.8,38c-0.8,0-1.4-0.3-2-0.8C6.3,36.7,6,36,6,35.2V12.8c0-0.8,0.3-1.4,0.8-2C7.4,10.3,8,10,8.8,10h0.8l7.4,7.4H7.5v17.9
	c0,0.4,0.1,0.7,0.3,0.9c0.2,0.2,0.5,0.3,0.9,0.3H36l1.5,1.5H8.8z M40.7,36.9l-0.2-0.2V17.4H22L14.6,10h3.1l3,6.1l-0.3-0.3h6.4L24,10
	h5.7l2.9,5.8h6.2L35.9,10h3.3c0.8,0,1.4,0.3,2,0.8c0.5,0.5,0.8,1.2,0.8,2v21.7c0,0.5-0.1,1-0.4,1.4C41.4,36.3,41.1,36.6,40.7,36.9z
	 M40.3,42.9L5.1,7.7l1.1-1.1l35.2,35.2L40.3,42.9z"/>
</svg>
