<?xml version="1.0" encoding="utf-8"?>
<!-- Generator: Adobe Illustrator 26.3.1, SVG Export Plug-In . SVG Version: 6.00 Build 0)  -->
<svg version="1.1" id="Слой_1" xmlns="http://www.w3.org/2000/svg" xmlns:xlink="http://www.w3.org/1999/xlink" x="0px" y="0px"
	 viewBox="0 0 48 48" style="enable-background:new 0 0 48 48;" xml:space="preserve">
<path d="M14.4,43c-0.6,0-1.2-0.1-1.8-0.4c-0.6-0.2-1.1-0.6-1.5-1L2.5,33l1-1c0.3-0.3,0.6-0.5,1-0.5c0.4-0.1,0.8,0,1.1,0.1l4.4,1
	V15.8c0-0.2,0.1-0.4,0.2-0.5c0.1-0.1,0.3-0.2,0.6-0.2c0.2,0,0.4,0.1,0.5,0.2c0.1,0.1,0.2,0.3,0.2,0.5v18.8l-7-1.8l7.6,7.7
	c0.3,0.3,0.7,0.6,1,0.7c0.4,0.2,0.8,0.2,1.2,0.2h7.4c1.4,0,2.7-0.5,3.7-1.5s1.5-2.3,1.5-3.7v-6.6c0-0.2,0.1-0.4,0.2-0.5
	s0.3-0.2,0.6-0.2c0.2,0,0.4,0.1,0.5,0.2s0.2,0.3,0.2,0.5v6.6c0,1.9-0.7,3.5-2,4.8s-2.9,2-4.8,2C21.8,43,14.4,43,14.4,43z M15.7,29.9
	v-8c0-0.2,0.1-0.4,0.2-0.6c0.1-0.1,0.3-0.2,0.6-0.2c0.2,0,0.4,0.1,0.5,0.2s0.2,0.3,0.2,0.5v8C17.2,29.9,15.7,29.9,15.7,29.9z
	 M21.4,29.9v-5c0-0.2,0.1-0.4,0.2-0.5s0.3-0.2,0.6-0.2c0.2,0,0.4,0.1,0.5,0.2s0.2,0.3,0.2,0.5v5H21.4z M21.8,41.4h-9.7
	C12.1,41.4,21.8,41.4,21.8,41.4z M32.5,19.4c-2.4,0-4.6-0.6-6.6-1.8c-2-1.2-3.6-2.8-4.9-4.9c1.2-2,2.8-3.6,4.9-4.9S30.1,6,32.5,6
	s4.6,0.6,6.6,1.8s3.6,2.8,4.9,4.9c-1.2,2-2.8,3.7-4.9,4.9C37.1,18.8,34.9,19.4,32.5,19.4z M32.5,17.8c1.9,0,3.8-0.5,5.4-1.4
	c1.7-0.9,3.1-2.2,4.3-3.7C41,11.1,39.6,9.9,37.9,9c-1.7-0.9-3.5-1.4-5.4-1.4c-1.9,0-3.7,0.5-5.4,1.4c-1.7,0.9-3.1,2.2-4.2,3.7
	c1.1,1.5,2.5,2.8,4.2,3.7C28.8,17.4,30.6,17.8,32.5,17.8z M32.5,14.5c-0.5,0-0.9-0.2-1.3-0.5c-0.3-0.3-0.5-0.8-0.5-1.3
	s0.2-0.9,0.5-1.3c0.3-0.3,0.8-0.5,1.3-0.5s0.9,0.2,1.3,0.5c0.3,0.3,0.5,0.8,0.5,1.3s-0.2,0.9-0.5,1.3C33.5,14.3,33,14.5,32.5,14.5z"
	/>
</svg>
