<?xml version="1.0" encoding="utf-8"?>
<!-- Generator: Adobe Illustrator 26.3.1, SVG Export Plug-In . SVG Version: 6.00 Build 0)  -->
<svg version="1.1" id="Слой_1" xmlns="http://www.w3.org/2000/svg" xmlns:xlink="http://www.w3.org/1999/xlink" x="0px" y="0px"
	 viewBox="0 0 48 48" style="enable-background:new 0 0 48 48;" xml:space="preserve">
<path d="M18,28.9l3-0.9l3,0.9v-1l-2.2-1.4v-6.6l7.1,2.4v-0.9l-7.1-4.1v-4.9c0-0.3-0.1-0.5-0.2-0.6c-0.1-0.2-0.3-0.3-0.6-0.3
	c-0.2,0-0.4,0.1-0.5,0.3s-0.2,0.4-0.2,0.6v4.9l-7.1,4.1v0.9l7.1-2.4v6.6L18,27.9V28.9z M29.6,42c-0.2,0-0.4-0.1-0.6-0.2
	c-0.2-0.2-0.2-0.4-0.2-0.6c0-0.1,0-0.2,0-0.3s0.1-0.2,0.1-0.2c2.6-2.8,5.1-6,7.5-9.5s3.5-7,3.5-10.6c0-2.5-0.5-4.9-1.4-7.3
	S36.4,8.9,35,7.2c0-0.1,0-0.1-0.1-0.2c0-0.1,0-0.1,0-0.2c0-0.2,0.1-0.4,0.2-0.6C35.3,6.1,35.4,6,35.7,6c0.1,0,0.2,0,0.3,0.1
	s0.2,0.1,0.3,0.2c1.4,1.5,2.6,3.5,3.6,6s1.6,5.3,1.6,8.3c0,3.6-1.2,7.2-3.5,10.7s-4.9,7-7.7,10.3c-0.1,0.1-0.2,0.2-0.3,0.3
	C29.9,42,29.7,42,29.6,42z M20.7,40c3.9-3.4,7-6.9,9.3-10.3s3.4-6.5,3.4-9c0-3.8-1.2-6.9-3.6-9.4s-5.4-3.7-9.1-3.7s-6.7,1.2-9.1,3.7
	C9.2,13.7,8,16.8,8,20.6c0,2.6,1.1,5.6,3.4,9S16.8,36.6,20.7,40z M20.7,42c-4.7-4.2-8.2-8-10.6-11.6s-3.6-6.9-3.6-9.8
	c0-4.2,1.4-7.7,4.1-10.5C13.4,7.4,16.7,6,20.7,6s7.3,1.4,10.1,4.1s4.1,6.2,4.1,10.5c0,2.9-1.2,6.2-3.6,9.8
	C28.9,34,25.4,37.9,20.7,42z"/>
</svg>
