<?xml version="1.0" encoding="utf-8"?>
<!-- Generator: Adobe Illustrator 26.3.1, SVG Export Plug-In . SVG Version: 6.00 Build 0)  -->
<svg version="1.1" id="Слой_1" xmlns="http://www.w3.org/2000/svg" xmlns:xlink="http://www.w3.org/1999/xlink" x="0px" y="0px"
	 viewBox="0 0 48 48" style="enable-background:new 0 0 48 48;" xml:space="preserve">
<path d="M17,11V8.8c0-0.7,0.3-1.4,0.8-1.9C18.4,6.3,19,6,19.8,6h8.5c0.7,0,1.4,0.3,1.9,0.8C30.7,7.4,31,8,31,8.8V11h6.2
	c0.7,0,1.4,0.3,1.9,0.8s0.8,1.2,0.8,1.9v23.5c0,0.7-0.3,1.4-0.8,1.9C38.6,39.7,38,40,37.2,40H10.8c-0.7,0-1.4-0.3-1.9-0.8
	S8,38,8,37.2V13.8c0-0.7,0.3-1.4,0.8-1.9c0.6-0.6,1.2-0.9,2-0.9H17z M10.8,38.5h26.5c0.4,0,0.7-0.1,0.9-0.3s0.3-0.5,0.3-0.9V19.8H33
	v3.7c0,0.7-0.3,1.4-0.8,1.9s-1.2,0.8-1.9,0.8H17.8c-0.7,0-1.4-0.3-1.9-0.8s-0.8-1.2-0.8-1.9v-3.7H9.5v17.5c0,0.4,0.1,0.7,0.3,0.9
	C10.1,38.3,10.4,38.5,10.8,38.5z M15.8,34.5c-0.4,0-0.7-0.1-0.9-0.4c-0.3-0.3-0.4-0.6-0.4-0.9c0-0.4,0.1-0.7,0.4-0.9
	s0.6-0.4,0.9-0.4c0.4,0,0.7,0.1,0.9,0.4c0.3,0.3,0.4,0.6,0.4,0.9c0,0.4-0.1,0.7-0.4,0.9C16.4,34.4,16.1,34.5,15.8,34.5z M24,34.5
	c-0.4,0-0.7-0.1-0.9-0.4c-0.3-0.3-0.4-0.6-0.4-0.9c0-0.4,0.1-0.7,0.4-0.9c0.3-0.3,0.6-0.4,0.9-0.4c0.4,0,0.7,0.1,0.9,0.4
	c0.3,0.3,0.4,0.6,0.4,0.9c0,0.4-0.1,0.7-0.4,0.9C24.6,34.4,24.3,34.5,24,34.5z M32.2,34.5c-0.4,0-0.7-0.1-0.9-0.4
	c-0.3-0.3-0.4-0.6-0.4-0.9c0-0.4,0.1-0.7,0.4-0.9s0.6-0.4,0.9-0.4c0.4,0,0.7,0.1,0.9,0.4c0.3,0.3,0.4,0.6,0.4,0.9
	c0,0.4-0.1,0.7-0.4,0.9C32.9,34.4,32.6,34.5,32.2,34.5z M17.8,24.7h12.5c0.4,0,0.7-0.1,0.9-0.3c0.2-0.2,0.3-0.5,0.3-0.9v-3.7h-15
	v3.7c0,0.4,0.1,0.7,0.3,0.9C17.1,24.6,17.4,24.7,17.8,24.7z M9.5,18.2h28.9v-4.5c0-0.4-0.1-0.7-0.3-0.9s-0.5-0.3-0.9-0.3H10.8
	c-0.4,0-0.7,0.1-0.9,0.3s-0.3,0.5-0.3,0.9v4.5H9.5z M18.5,11h10.9V8.8c0-0.4-0.1-0.7-0.3-0.9c-0.2-0.2-0.5-0.3-0.9-0.3h-8.5
	c-0.4,0-0.7,0.1-0.9,0.3c-0.2,0.2-0.3,0.5-0.3,0.9C18.5,8.8,18.5,11,18.5,11z"/>
</svg>
