<?xml version="1.0" encoding="utf-8"?>
<!-- Generator: Adobe Illustrator 26.3.1, SVG Export Plug-In . SVG Version: 6.00 Build 0)  -->
<svg version="1.1" id="Слой_1" xmlns="http://www.w3.org/2000/svg" xmlns:xlink="http://www.w3.org/1999/xlink" x="0px" y="0px"
	 viewBox="0 0 48 48" style="enable-background:new 0 0 48 48;" xml:space="preserve">
<path d="M24.1,39.6c-1.6,0-3-0.6-4.1-1.7c-1.1-1.1-1.7-2.5-1.7-4.1s0.6-3,1.7-4.1s2.5-1.7,4.1-1.7c0.8,0,1.6,0.2,2.4,0.5
	c0.7,0.3,1.4,0.8,1.9,1.3V8.4H38v4.5h-8.1v21c0,1.6-0.6,3-1.7,4.1C27.1,39.1,25.7,39.6,24.1,39.6z M14.7,22.4v-6.2H8.5v-1.5h6.2V8.4
	h1.5v6.2h6.2v1.5h-6.2v6.2h-1.5V22.4z"/>
</svg>
