<?xml version="1.0" encoding="utf-8"?>
<!-- Generator: Adobe Illustrator 26.3.1, SVG Export Plug-In . SVG Version: 6.00 Build 0)  -->
<svg version="1.1" id="Слой_1" xmlns="http://www.w3.org/2000/svg" xmlns:xlink="http://www.w3.org/1999/xlink" x="0px" y="0px"
	 viewBox="0 0 48 48" style="enable-background:new 0 0 48 48;" xml:space="preserve">
<path d="M8.5,29C7.1,29,6,28.5,5,27.6c-1-1-1.4-2.1-1.4-3.5s0.5-2.5,1.4-3.5c1-1,2.1-1.4,3.5-1.4c1.2,0,2.3,0.4,3.2,1.1
	s1.5,1.7,1.8,3h8.7v1.5h-8.7c-0.2,1.3-0.8,2.3-1.8,3.1C10.8,28.6,9.7,29,8.5,29z M8.5,27.5c0.9,0,1.7-0.3,2.4-1c0.7-0.6,1-1.5,1-2.4
	s-0.3-1.7-1-2.4c-0.7-0.7-1.5-1-2.4-1c-1,0-1.8,0.3-2.4,1s-1,1.5-1,2.4c0,1,0.3,1.8,1,2.4C6.7,27.1,7.5,27.5,8.5,27.5z M10.8,42
	v-1.5c4.7,0,8.6-1.6,11.7-4.7s4.7-7,4.7-11.8s-1.6-8.7-4.7-11.8s-7.1-4.7-11.7-4.7V6c5,0,9.2,1.7,12.6,5c3.5,3.3,5.3,7.4,5.4,12.2
	h12.6l-4.6-4.5l1.1-1.1l6.4,6.4L38,30.4l-1.1-1.1l4.6-4.5H28.8c-0.1,4.8-1.9,8.9-5.4,12.2C20,40.3,15.8,42,10.8,42z"/>
</svg>
