<?xml version="1.0" encoding="utf-8"?>
<!-- Generator: Adobe Illustrator 26.3.1, SVG Export Plug-In . SVG Version: 6.00 Build 0)  -->
<svg version="1.1" id="Слой_1" xmlns="http://www.w3.org/2000/svg" xmlns:xlink="http://www.w3.org/1999/xlink" x="0px" y="0px"
	 viewBox="0 0 48 48" style="enable-background:new 0 0 48 48;" xml:space="preserve">
<path d="M34.9,30.8l-1.4-1.4l4.8-4.8c0.2-0.2,0.3-0.4,0.3-0.7c0-0.2-0.1-0.4-0.3-0.6L24.6,9.6c-0.2-0.2-0.4-0.3-0.6-0.3
	s-0.5,0.1-0.7,0.3l-4.8,4.8L17.1,13L22,8.1c0.2-0.3,0.5-0.5,0.9-0.6s0.7-0.2,1-0.2s0.7,0.1,1,0.2s0.6,0.3,0.9,0.6l13.9,14
	c0.5,0.5,0.8,1.2,0.8,1.9c0,0.8-0.3,1.4-0.8,1.9L34.9,30.8z M39.5,42.5l-8.2-8.2l-5.4,5.4c-0.3,0.3-0.6,0.5-0.9,0.6
	s-0.7,0.2-1.1,0.2s-0.7-0.1-1.1-0.2c-0.3-0.1-0.7-0.3-0.9-0.6L8.1,25.9c-0.2-0.3-0.4-0.6-0.6-0.9c-0.1-0.3-0.2-0.7-0.2-1.1
	s0.1-0.7,0.2-1.1c0.1-0.3,0.3-0.6,0.6-0.9l5.4-5.4L5.4,8.4l1.1-1.1l34.2,34.1C40.6,41.4,39.5,42.5,39.5,42.5z M9.6,24.6l13.7,13.7
	c0.2,0.2,0.4,0.3,0.7,0.3c0.2,0,0.5-0.1,0.6-0.3l5.3-5.3l-3.4-3.4L24,32.1l-8.1-8.2l2.5-2.5L14.8,18l-5.2,5.2
	c-0.2,0.2-0.3,0.4-0.3,0.7C9.3,24.2,9.4,24.4,9.6,24.6z M30,25.9l-8.1-8.1l1.9-1.9L32,24L30,25.9z"/>
</svg>
