<?xml version="1.0" encoding="utf-8"?>
<!-- Generator: Adobe Illustrator 26.3.1, SVG Export Plug-In . SVG Version: 6.00 Build 0)  -->
<svg version="1.1" id="Слой_1" xmlns="http://www.w3.org/2000/svg" xmlns:xlink="http://www.w3.org/1999/xlink" x="0px" y="0px"
	 viewBox="0 0 48 48" style="enable-background:new 0 0 48 48;" xml:space="preserve">
<path d="M24,31.6L16.4,24l7.6-7.6l7.6,7.6L24,31.6z M26,39.8c-0.3,0.3-0.6,0.5-0.9,0.7c-0.3,0.1-0.7,0.2-1.1,0.2s-0.7-0.1-1-0.2
	c-0.3-0.1-0.6-0.4-0.9-0.7l-14-13.9c-0.3-0.3-0.5-0.6-0.6-0.9s-0.2-0.7-0.2-1s0.1-0.7,0.2-1s0.3-0.6,0.6-0.9l14-14
	c0.3-0.3,0.6-0.5,0.9-0.6s0.7-0.2,1-0.2s0.7,0.1,1,0.2s0.6,0.3,0.9,0.6l14,14c0.3,0.3,0.5,0.6,0.6,0.9s0.2,0.7,0.2,1s-0.1,0.7-0.2,1
	c-0.1,0.3-0.3,0.6-0.6,0.9L26,39.8z M24.7,38.3l13.7-13.6c0.2-0.2,0.2-0.4,0.2-0.7s-0.1-0.5-0.2-0.7L24.7,9.6
	c-0.2-0.2-0.4-0.2-0.7-0.2c-0.3,0-0.5,0.1-0.7,0.2L9.7,23.4c-0.2,0.2-0.3,0.4-0.2,0.6c0,0.2,0.1,0.4,0.3,0.6l13.6,13.6
	c0.2,0.2,0.4,0.3,0.7,0.3S24.5,38.4,24.7,38.3z"/>
</svg>
