<?xml version="1.0" encoding="utf-8"?>
<!-- Generator: Adobe Illustrator 26.3.1, SVG Export Plug-In . SVG Version: 6.00 Build 0)  -->
<svg version="1.1" id="Слой_1" xmlns="http://www.w3.org/2000/svg" xmlns:xlink="http://www.w3.org/1999/xlink" x="0px" y="0px"
	 viewBox="0 0 48 48" style="enable-background:new 0 0 48 48;" xml:space="preserve">
<path d="M19.8,40.4v-9.3c-0.4,0.4-0.9,0.7-1.5,0.9c-0.5,0.2-1.1,0.3-1.7,0.3c-2.9,0-5.3-1.1-7.3-3.2s-2.9-4.6-2.9-7.6v-3.2
	c0-3,1-5.5,2.9-7.6c2-2.1,4.4-3.2,7.3-3.2c1.3,0,2.5,0.5,3.4,1.4s1.4,2.1,1.4,3.4s-0.5,2.5-1.4,3.4s-2.1,1.4-3.4,1.4h-2.8v-1.5h2.8
	c0.9,0,1.7-0.3,2.3-0.9c0.6-0.6,0.9-1.4,0.9-2.3c0-0.9-0.3-1.7-0.9-2.3s-1.4-0.9-2.3-0.9c-2.5,0-4.6,0.9-6.2,2.7s-2.5,4-2.5,6.5v3.2
	c0,2.5,0.8,4.7,2.5,6.5c1.6,1.8,3.7,2.7,6.2,2.7c0.9,0,1.7-0.3,2.3-0.9c0.6-0.6,0.9-1.4,0.9-2.3s-0.3-1.7-0.9-2.3
	c-0.6-0.6-1.4-0.9-2.3-0.9h-2.8v-1.5h2.8c1.3,0,2.5,0.5,3.4,1.4s1.4,2.1,1.4,3.4v12.8C21.4,40.4,19.8,40.4,19.8,40.4z M26.6,40.4
	V27.6c0-1.3,0.5-2.5,1.4-3.4s2.1-1.4,3.4-1.4h2.8v1.5h-2.8c-0.9,0-1.7,0.3-2.3,0.9c-0.6,0.6-0.9,1.4-0.9,2.3s0.3,1.7,0.9,2.3
	c0.6,0.6,1.4,0.9,2.3,0.9c2.5,0,4.6-0.9,6.2-2.7c1.6-1.8,2.5-4,2.5-6.5v-3.2c0-2.5-0.8-4.7-2.5-6.5C36,10,33.9,9.1,31.4,9.1
	c-0.9,0-1.7,0.3-2.3,0.9c-0.6,0.6-0.9,1.4-0.9,2.3s0.3,1.7,0.9,2.3s1.4,0.9,2.3,0.9h2.8V17h-2.8c-1.3,0-2.5-0.5-3.4-1.4
	s-1.4-2.1-1.4-3.4s0.5-2.5,1.4-3.4s2.1-1.4,3.4-1.4c2.9,0,5.3,1.1,7.3,3.2s2.9,4.6,2.9,7.6v3.2c0,3-1,5.5-2.9,7.6
	c-2,2.1-4.4,3.2-7.3,3.2c-0.6,0-1.2-0.1-1.7-0.3s-1-0.5-1.5-0.9v9.3C28.2,40.4,26.6,40.4,26.6,40.4z M7.9,21.6v-3.2V21.6z
	 M40.1,18.4v3.2V18.4z"/>
</svg>
