<?xml version="1.0" encoding="utf-8"?>
<!-- Generator: Adobe Illustrator 26.3.1, SVG Export Plug-In . SVG Version: 6.00 Build 0)  -->
<svg version="1.1" id="Слой_1" xmlns="http://www.w3.org/2000/svg" xmlns:xlink="http://www.w3.org/1999/xlink" x="0px" y="0px"
	 viewBox="0 0 48 48" style="enable-background:new 0 0 48 48;" xml:space="preserve">
<path d="M27.4,38c-0.3,0.4-0.7,0.6-1.2,0.6s-0.9-0.1-1.3-0.4l-6.5-5.4c-1.4-1.2-2.4-2.6-3-4.3c-0.6-1.7-0.8-3.5-0.5-5.2l-2.4-2
	c-0.4-0.3-0.6-0.7-0.6-1.1s0.1-0.9,0.4-1.2l0.7-0.9H8.5v6.2c0,0.4-0.2,0.8-0.5,1.1c-0.3,0.3-0.7,0.5-1.1,0.5v-17
	c0.4,0,0.8,0.2,1.1,0.5c0.3,0.3,0.5,0.7,0.5,1.1v6.2h6l3.4-4.1c0.3-0.4,0.7-0.6,1.2-0.6s0.9,0.1,1.2,0.4l2.3,2
	c1.7-0.6,3.5-0.8,5.3-0.5c1.8,0.3,3.4,1.1,4.8,2.2l6.5,5.4c0.4,0.3,0.6,0.7,0.6,1.2s-0.1,0.9-0.4,1.2C39.4,23.6,27.4,38,27.4,38z
	 M26.2,37l12.1-14.6l-6.7-5.5c-1.3-1-2.8-1.6-4.5-1.8c-1.7-0.1-3.3,0.1-4.9,0.7L19,13.2L13.4,20l3.1,2.6c-0.3,1.7-0.2,3.4,0.3,5
	c0.4,1.6,1.3,3,2.6,4C19.5,31.5,26.2,37,26.2,37z"/>
</svg>
