<?xml version="1.0" encoding="utf-8"?>
<!-- Generator: Adobe Illustrator 26.3.1, SVG Export Plug-In . SVG Version: 6.00 Build 0)  -->
<svg version="1.1" id="Слой_1" xmlns="http://www.w3.org/2000/svg" xmlns:xlink="http://www.w3.org/1999/xlink" x="0px" y="0px"
	 viewBox="0 0 48 48" style="enable-background:new 0 0 48 48;" xml:space="preserve">
<path d="M8.8,22.5h30.3l-0.6-9.8c0-0.3-0.2-0.6-0.4-0.8s-0.5-0.3-0.8-0.3H10.6c-0.3,0-0.6,0.1-0.8,0.3s-0.4,0.5-0.4,0.8
	C9.4,12.7,8.8,22.5,8.8,22.5z M9.4,35h29.2c0.4,0,0.7-0.1,1-0.4c0.3-0.3,0.4-0.6,0.3-0.9L39.3,24H8.7l-0.6,9.7
	c0,0.4,0.1,0.7,0.3,0.9C8.7,34.9,9,35,9.4,35z M11.3,38l-0.5-1.5H9.3c-0.8,0-1.4-0.3-2-0.9c-0.5-0.6-0.8-1.3-0.7-2.1l1.3-21
	c0.1-0.7,0.4-1.4,0.9-1.8C9.3,10.2,10,10,10.7,10h26.7c0.7,0,1.4,0.2,1.9,0.7s0.8,1.1,0.9,1.8l1.3,21c0.1,0.8-0.2,1.5-0.7,2.1
	s-1.2,0.9-2,0.9h-1.6L36.7,38H11.3z"/>
</svg>
