<?xml version="1.0" encoding="utf-8"?>
<!-- Generator: Adobe Illustrator 26.3.1, SVG Export Plug-In . SVG Version: 6.00 Build 0)  -->
<svg version="1.1" id="Слой_1" xmlns="http://www.w3.org/2000/svg" xmlns:xlink="http://www.w3.org/1999/xlink" x="0px" y="0px"
	 viewBox="0 0 48 48" style="enable-background:new 0 0 48 48;" xml:space="preserve">
<path d="M12.4,39.8c-1.3,0-2.4-0.5-3.3-1.4c-0.9-0.9-1.4-2-1.4-3.3V18.2h1.5v17.1c0,0.9,0.3,1.6,0.9,2.2c0.6,0.6,1.3,0.9,2.2,0.9
	s1.6-0.3,2.2-0.9c0.6-0.6,0.9-1.3,0.9-2.2V12.8c0-1.3,0.4-2.4,1.3-3.3s2-1.4,3.3-1.4s2.4,0.5,3.3,1.4s1.4,2,1.4,3.3v22.4
	c0,0.9,0.3,1.6,0.9,2.2c0.6,0.6,1.3,0.9,2.2,0.9c0.9,0,1.6-0.3,2.2-0.9c0.6-0.6,0.9-1.3,0.9-2.2V12.8c0-1.3,0.4-2.4,1.3-3.3
	s2-1.4,3.3-1.4s2.4,0.5,3.3,1.4c0.9,0.9,1.4,2,1.4,3.3v17h-1.5v-17c0-0.9-0.3-1.6-0.9-2.2c-0.6-0.6-1.3-0.9-2.2-0.9S34,10,33.4,10.6
	s-0.9,1.3-0.9,2.2v22.4c0,1.3-0.5,2.4-1.4,3.3c-0.9,0.9-2,1.4-3.3,1.4s-2.4-0.5-3.3-1.4s-1.4-2-1.4-3.3V12.8c0-0.9-0.3-1.6-0.9-2.2
	C21.8,10,21,9.7,20.1,9.7s-1.6,0.3-2.2,0.9c-0.6,0.6-0.9,1.3-0.9,2.2v22.4c0,1.3-0.5,2.4-1.4,3.3C14.8,39.4,13.7,39.8,12.4,39.8z"/>
</svg>
