<?xml version="1.0" encoding="utf-8"?>
<!-- Generator: Adobe Illustrator 26.3.1, SVG Export Plug-In . SVG Version: 6.00 Build 0)  -->
<svg version="1.1" id="Слой_1" xmlns="http://www.w3.org/2000/svg" xmlns:xlink="http://www.w3.org/1999/xlink" x="0px" y="0px"
	 viewBox="0 0 48 48" style="enable-background:new 0 0 48 48;" xml:space="preserve">
<path d="M20,14.3c-2,0.8-3.7,2-5,3.7s-2.1,3.7-2.3,6l-1.1,13.1c-0.1,0.4,0,0.7,0.3,0.9c0.2,0.3,0.6,0.4,0.9,0.4h22.3
	c0.4,0,0.7-0.1,0.9-0.4c0.2-0.3,0.4-0.6,0.3-0.9l-1.1-13.2C35,21.7,34.3,19.7,33,18c-1.3-1.7-3-3-5-3.7V20c0,1.1-0.4,2.1-1.2,2.8
	C26.1,23.6,25.1,24,24,24s-2.1-0.4-2.8-1.2C20.4,22.1,20,21.1,20,20V14.3z M24,22.5c0.7,0,1.3-0.2,1.8-0.7s0.7-1.1,0.7-1.8v-8
	c0-0.7-0.2-1.3-0.7-1.8S24.7,9.5,24,9.5s-1.3,0.2-1.8,0.7s-0.7,1.1-0.7,1.8v8c0,0.7,0.2,1.3,0.7,1.8C22.7,22.2,23.3,22.5,24,22.5z
	 M12.8,40c-0.8,0-1.5-0.3-2-0.9S10,37.8,10.1,37l1.1-13.3c0.2-2.7,1.1-5,2.8-7c1.6-2,3.6-3.4,6.1-4.1v-0.8c0-1.1,0.4-2,1.2-2.7
	C22,8.4,22.9,8,24,8s2,0.4,2.8,1.1s1.2,1.6,1.2,2.7v0.8c2.4,0.8,4.4,2.2,6.1,4.1c1.6,2,2.6,4.3,2.8,6.9L38,37
	c0.1,0.8-0.2,1.5-0.7,2.1c-0.6,0.6-1.2,0.9-2,0.9H12.8z"/>
</svg>
