<?xml version="1.0" encoding="utf-8"?>
<!-- Generator: Adobe Illustrator 26.3.1, SVG Export Plug-In . SVG Version: 6.00 Build 0)  -->
<svg version="1.1" id="Слой_1" xmlns="http://www.w3.org/2000/svg" xmlns:xlink="http://www.w3.org/1999/xlink" x="0px" y="0px"
	 viewBox="0 0 48 48" style="enable-background:new 0 0 48 48;" xml:space="preserve">
<path d="M24,37.2c2.4,0,4.5-0.9,6.2-2.6c1.7-1.7,2.6-3.8,2.6-6.2v-8.9c0-2.4-0.9-4.5-2.6-6.2s-3.8-2.6-6.2-2.6s-4.5,0.9-6.2,2.6
	s-2.6,3.8-2.6,6.2v8.9c0,2.4,0.9,4.5,2.6,6.2S21.6,37.2,24,37.2z M24,35.7c-2,0-3.7-0.7-5.1-2.1c-1.4-1.4-2.1-3.1-2.1-5.1v-8.9
	c0-2,0.7-3.7,2.1-5.1s3.1-2.1,5.1-2.1s3.7,0.7,5.1,2.1s2.1,3.1,2.1,5.1v8.9c0,2-0.7,3.7-2.1,5.1C27.7,35,26,35.7,24,35.7z M24,18.8
	c0.4,0,0.7-0.1,0.9-0.4c0.3-0.3,0.4-0.6,0.4-0.9c0-0.4-0.1-0.7-0.4-0.9c-0.3-0.3-0.6-0.4-0.9-0.4c-0.4,0-0.7,0.1-0.9,0.4
	c-0.3,0.3-0.4,0.6-0.4,0.9c0,0.4,0.1,0.7,0.4,0.9C23.4,18.7,23.7,18.8,24,18.8z M10.8,44c-0.7,0-1.4-0.3-1.9-0.8
	C8.3,42.6,8,42,8,41.2V6.8c0-0.8,0.3-1.4,0.8-2C9.4,4.3,10,4,10.8,4h26.5c0.7,0,1.4,0.3,1.9,0.8C39.7,5.4,40,6,40,6.8v34.5
	c0,0.7-0.3,1.4-0.8,1.9c-0.6,0.5-1.2,0.8-2,0.8H10.8z M10.8,42.5h26.5c0.4,0,0.7-0.1,0.9-0.3s0.3-0.5,0.3-0.9V6.8
	c0-0.4-0.1-0.7-0.3-0.9c-0.2-0.2-0.5-0.3-0.9-0.3H10.8c-0.4,0-0.7,0.1-0.9,0.3C9.7,6.1,9.5,6.4,9.5,6.8v34.5c0,0.4,0.1,0.7,0.3,0.9
	C10.1,42.3,10.4,42.5,10.8,42.5z M9.5,42.5v-37V42.5z"/>
</svg>
