<?xml version="1.0" encoding="utf-8"?>
<!-- Generator: Adobe Illustrator 26.3.1, SVG Export Plug-In . SVG Version: 6.00 Build 0)  -->
<svg version="1.1" id="Слой_1" xmlns="http://www.w3.org/2000/svg" xmlns:xlink="http://www.w3.org/1999/xlink" x="0px" y="0px"
	 viewBox="0 0 48 48" style="enable-background:new 0 0 48 48;" xml:space="preserve">
<path d="M27.8,36.7c-0.6,0.7-1.3,1.1-2.1,1.1c-0.9,0.1-1.6-0.2-2.3-0.7l-7.5-6.2c-0.8-0.7-1.5-1.4-2.1-2.3c-0.6-0.8-1.1-1.8-1.4-2.8
	c-0.3,0.5-0.7,0.8-1.2,1.1c-0.5,0.3-1,0.4-1.5,0.4H6.5V13.8h3.2c0.9,0,1.7,0.3,2.3,1s1,1.5,1,2.5c1-1.9,2.4-3.4,4.2-4.5
	c1.8-1.1,3.9-1.6,6-1.6c1.3,0,2.5,0.2,3.6,0.7C28,12.4,29,13,30,13.8l7.5,6.2c0.7,0.6,1.1,1.3,1.1,2.1c0.1,0.9-0.2,1.6-0.8,2.3
	L27.8,36.7z M13.3,22.3c0,1.4,0.3,2.8,0.9,4c0.6,1.3,1.5,2.4,2.5,3.3l7.9,6.5c0.3,0.2,0.6,0.3,0.9,0.3s0.6-0.2,0.8-0.5L37,23.1
	c0.2-0.3,0.3-0.6,0.3-0.9s-0.2-0.6-0.5-0.8L29,14.9c-0.8-0.7-1.8-1.3-2.8-1.6c-1.1-0.4-2.1-0.6-3.2-0.6c-2.7,0-4.9,0.9-6.8,2.8
	C14.3,17.3,13.3,19.6,13.3,22.3z"/>
</svg>
