<?xml version="1.0" encoding="utf-8"?>
<!-- Generator: Adobe Illustrator 26.3.1, SVG Export Plug-In . SVG Version: 6.00 Build 0)  -->
<svg version="1.1" id="Слой_1" xmlns="http://www.w3.org/2000/svg" xmlns:xlink="http://www.w3.org/1999/xlink" x="0px" y="0px"
	 viewBox="0 0 48 48" style="enable-background:new 0 0 48 48;" xml:space="preserve">
<path d="M24,32.8c0.5,0,0.9-0.2,1.3-0.5c0.3-0.3,0.5-0.8,0.5-1.3s-0.2-0.9-0.5-1.3c-0.3-0.3-0.8-0.5-1.3-0.5s-0.9,0.2-1.3,0.5
	c-0.3,0.3-0.5,0.8-0.5,1.3s0.2,0.9,0.5,1.3C23.1,32.6,23.5,32.8,24,32.8z M18,42c-2.1,0-3.8-0.6-5.1-1.9c-1.3-1.3-2.3-2.9-3-4.7
	s-1.2-3.8-1.5-5.9C8.1,27.4,8,25.6,8,24c0-3,0.2-5.6,0.7-7.8s1.3-4.1,2.5-5.6s2.9-2.7,4.9-3.5C18.2,6.4,20.8,6,24,6s5.8,0.4,7.9,1.2
	s3.7,1.9,4.9,3.5c1.2,1.5,2.1,3.4,2.5,5.6c0.5,2.2,0.7,4.8,0.7,7.8c0,1.6-0.1,3.4-0.4,5.4c-0.3,2.1-0.8,4-1.5,5.9
	c-0.7,1.9-1.7,3.5-3,4.7c-1.3,1.3-3,1.9-5.1,1.9H18z M18,40.5h12c1.8,0,3.3-0.6,4.3-1.8s1.9-2.7,2.6-4.4c0.6-1.7,1-3.5,1.2-5.4
	s0.3-3.4,0.3-4.8c0-2.7-0.2-5.1-0.6-7.2c-0.4-2.1-1.1-3.8-2.2-5.2c-1.1-1.4-2.6-2.4-4.5-3.1c-1.9-0.7-4.3-1-7.2-1s-5.3,0.3-7.2,1
	c-1.9,0.7-3.3,1.7-4.4,3.1s-1.8,3.1-2.2,5.2s-0.6,4.5-0.6,7.2c0,1.3,0.1,2.9,0.3,4.8s0.6,3.7,1.2,5.4c0.6,1.7,1.5,3.2,2.6,4.4
	C14.7,39.9,16.2,40.5,18,40.5z"/>
</svg>
