<?xml version="1.0" encoding="utf-8"?>
<!-- Generator: Adobe Illustrator 26.3.1, SVG Export Plug-In . SVG Version: 6.00 Build 0)  -->
<svg version="1.1" id="Слой_1" xmlns="http://www.w3.org/2000/svg" xmlns:xlink="http://www.w3.org/1999/xlink" x="0px" y="0px"
	 viewBox="0 0 48 48" style="enable-background:new 0 0 48 48;" xml:space="preserve">
<path d="M24,14c-0.6,0-1-0.2-1.4-0.6C22.2,13,22,12.6,22,12s0.2-1,0.6-1.4C23,10.2,23.4,10,24,10s1,0.2,1.4,0.6
	C25.8,11,26,11.4,26,12s-0.2,1-0.6,1.4C25,13.8,24.6,14,24,14z M24,43.2c-2.3,0-4.2-0.8-5.8-2.4c-1.6-1.6-2.4-3.5-2.4-5.8V12.2
	c0-2.3,0.8-4.2,2.4-5.8C19.8,4.8,21.7,4,24,4s4.2,0.8,5.8,2.4c1.6,1.6,2.4,3.5,2.4,5.8V35c0,2.3-0.8,4.2-2.4,5.8
	C28.2,42.4,26.3,43.2,24,43.2z M24,18.5c1.8,0,3.3-0.6,4.6-1.9c1.2-1.2,1.9-2.8,1.9-4.6s-0.6-3.3-1.9-4.6S25.8,5.5,24,5.5
	s-3.3,0.6-4.6,1.9c-1.2,1.2-1.9,2.8-1.9,4.6s0.6,3.3,1.9,4.6C20.7,17.8,22.2,18.5,24,18.5z M24,41.7c1.9,0,3.4-0.7,4.7-2
	s2-2.9,2-4.7V16.5c-0.8,1.1-1.7,2-2.9,2.6C26.6,19.7,25.3,20,24,20s-2.6-0.3-3.8-0.9c-1.2-0.6-2.1-1.5-2.9-2.6V35
	c0,1.9,0.6,3.4,1.9,4.7C20.6,41,22.1,41.7,24,41.7z M21.2,30.8c0.4,0,0.7-0.1,0.9-0.4c0.3-0.3,0.4-0.6,0.4-0.9s-0.1-0.7-0.4-0.9
	s-0.6-0.4-0.9-0.4c-0.4,0-0.7,0.1-0.9,0.4c-0.3,0.3-0.4,0.6-0.4,0.9c0,0.4,0.1,0.7,0.4,0.9C20.6,30.7,20.9,30.8,21.2,30.8z
	 M21.2,25.4c0.4,0,0.7-0.1,0.9-0.4c0.3-0.3,0.4-0.6,0.4-0.9c0-0.4-0.1-0.7-0.4-0.9c-0.3-0.3-0.6-0.4-0.9-0.4c-0.4,0-0.7,0.1-0.9,0.4
	c-0.3,0.3-0.4,0.6-0.4,0.9c0,0.4,0.1,0.7,0.4,0.9C20.6,25.3,20.9,25.4,21.2,25.4z M26.8,25.4c0.4,0,0.7-0.1,0.9-0.4
	c0.3-0.3,0.4-0.6,0.4-0.9c0-0.4-0.1-0.7-0.4-0.9c-0.3-0.3-0.6-0.4-0.9-0.4c-0.4,0-0.7,0.1-0.9,0.4c-0.3,0.3-0.4,0.6-0.4,0.9
	c0,0.4,0.1,0.7,0.4,0.9C26.1,25.3,26.4,25.4,26.8,25.4z M26.8,30.8c0.4,0,0.7-0.1,0.9-0.4c0.3-0.3,0.4-0.6,0.4-0.9s-0.1-0.7-0.4-0.9
	s-0.6-0.4-0.9-0.4c-0.4,0-0.7,0.1-0.9,0.4c-0.3,0.3-0.4,0.6-0.4,0.9c0,0.4,0.1,0.7,0.4,0.9C26.1,30.7,26.4,30.8,26.8,30.8z
	 M21.2,36.3c0.4,0,0.7-0.1,0.9-0.4s0.4-0.6,0.4-0.9c0-0.4-0.1-0.7-0.4-0.9s-0.6-0.4-0.9-0.4c-0.4,0-0.7,0.1-0.9,0.4
	c-0.3,0.3-0.4,0.6-0.4,0.9c0,0.4,0.1,0.7,0.4,0.9C20.6,36.2,20.9,36.3,21.2,36.3z M26.8,36.3c0.4,0,0.7-0.1,0.9-0.4s0.4-0.6,0.4-0.9
	c0-0.4-0.1-0.7-0.4-0.9s-0.6-0.4-0.9-0.4c-0.4,0-0.7,0.1-0.9,0.4c-0.3,0.3-0.4,0.6-0.4,0.9c0,0.4,0.1,0.7,0.4,0.9
	C26.1,36.2,26.4,36.3,26.8,36.3z"/>
</svg>
