<?xml version="1.0" encoding="utf-8"?>
<!-- Generator: Adobe Illustrator 26.3.1, SVG Export Plug-In . SVG Version: 6.00 Build 0)  -->
<svg version="1.1" id="Слой_1" xmlns="http://www.w3.org/2000/svg" xmlns:xlink="http://www.w3.org/1999/xlink" x="0px" y="0px"
	 viewBox="0 0 48 48" style="enable-background:new 0 0 48 48;" xml:space="preserve">
<path d="M24,43.2L18.8,38h-8.1c-0.8,0-1.4-0.3-2-0.8C8.3,36.7,8,36,8,35.2V8.8c0-0.8,0.3-1.4,0.8-2C9.3,6.3,10,6,10.8,6h26.5
	c0.8,0,1.4,0.3,2,0.8C39.7,7.3,40,8,40,8.8v26.5c0,0.8-0.3,1.4-0.8,2c-0.5,0.5-1.2,0.8-2,0.8h-8.1L24,43.2z M10.8,36.5h8.7L24,41
	l4.5-4.5h8.7c0.4,0,0.7-0.1,0.9-0.3s0.3-0.5,0.3-0.9V8.8c0-0.4-0.1-0.7-0.3-0.9c-0.2-0.2-0.5-0.3-0.9-0.3H10.8
	c-0.4,0-0.7,0.1-0.9,0.3C9.7,8.1,9.5,8.4,9.5,8.8v26.5c0,0.4,0.1,0.7,0.3,0.9C10.1,36.3,10.4,36.5,10.8,36.5z M24,30.8
	c2.5,0,4.6-0.9,6.2-2.6c1.7-1.8,2.5-3.8,2.5-6.1v-8.8H24c-2.4,0-4.4,0.8-6.2,2.5c-1.7,1.7-2.6,3.8-2.6,6.3c0,0.9,0.2,1.8,0.5,2.7
	c0.3,0.9,0.8,1.9,1.4,2.8L15.7,29c-0.2,0.2-0.3,0.4-0.3,0.6s0.1,0.4,0.3,0.5c0.2,0.2,0.4,0.3,0.6,0.2c0.2,0,0.4-0.1,0.5-0.3l1.5-1.4
	c0.8,0.7,1.8,1.2,2.8,1.6C22.1,30.6,23.1,30.8,24,30.8z M24,29.2c-0.8,0-1.6-0.2-2.4-0.5S20,28,19.4,27.5l6.3-6.3
	c0.2-0.2,0.3-0.4,0.3-0.6s-0.1-0.4-0.3-0.6c-0.2-0.2-0.4-0.3-0.5-0.3c-0.2,0-0.4,0.1-0.5,0.3l-6.3,6.3c-0.4-0.7-0.7-1.4-1-2.2
	c-0.3-0.8-0.4-1.6-0.4-2.2c0-2.1,0.7-3.8,2.2-5.2c1.4-1.4,3.1-2,5.1-2h7.2V22c0,2-0.7,3.7-2.1,5.1C27.7,28.5,26,29.2,24,29.2z"/>
</svg>
