<?xml version="1.0" encoding="utf-8"?>
<!-- Generator: Adobe Illustrator 26.3.1, SVG Export Plug-In . SVG Version: 6.00 Build 0)  -->
<svg version="1.1" id="Слой_1" xmlns="http://www.w3.org/2000/svg" xmlns:xlink="http://www.w3.org/1999/xlink" x="0px" y="0px"
	 viewBox="0 0 48 48" style="enable-background:new 0 0 48 48;" xml:space="preserve">
<path d="M18.7,39.2c-1.7,0-3.2-0.6-4.5-1.9c-1.2-1.2-1.9-2.7-1.9-4.5V16.9c0-2.3,0.8-4.2,2.4-5.7c1.6-1.6,3.5-2.3,5.7-2.3h7.1
	c2.3,0,4.2,0.8,5.7,2.3c1.6,1.6,2.3,3.5,2.3,5.7v15.9c0,1.7-0.6,3.2-1.9,4.5c-1.2,1.2-2.7,1.9-4.5,1.9
	C29.3,39.2,18.7,39.2,18.7,39.2z M18.7,37.6h10.6c1.3,0,2.5-0.5,3.4-1.4c0.9-0.9,1.4-2.1,1.4-3.4V16.9c0-1.8-0.6-3.3-1.9-4.6
	c-1.3-1.3-2.8-1.9-4.6-1.9h-7.1c-1.8,0-3.3,0.6-4.6,1.9S14,15.1,14,16.9v15.9c0,1.3,0.5,2.5,1.4,3.4C16.2,37.2,17.4,37.6,18.7,37.6z
	 M18.7,25.3c0.4,0,0.7-0.1,0.9-0.4c0.3-0.3,0.4-0.6,0.4-0.9c0-0.4-0.1-0.7-0.4-0.9c-0.3-0.3-0.6-0.4-0.9-0.4s-0.7,0.1-0.9,0.4
	c-0.3,0.3-0.4,0.6-0.4,0.9s0.1,0.7,0.4,0.9C18,25.2,18.3,25.3,18.7,25.3z M24,25.3c0.4,0,0.7-0.1,0.9-0.4c0.3-0.3,0.4-0.6,0.4-0.9
	c0-0.4-0.1-0.7-0.4-0.9c-0.3-0.3-0.6-0.4-0.9-0.4s-0.7,0.1-0.9,0.4c-0.3,0.3-0.4,0.6-0.4,0.9s0.1,0.7,0.4,0.9
	C23.3,25.2,23.6,25.3,24,25.3z M29.3,25.3c0.4,0,0.7-0.1,0.9-0.4c0.3-0.3,0.4-0.6,0.4-0.9c0-0.4-0.1-0.7-0.4-0.9
	c-0.3-0.3-0.6-0.4-0.9-0.4s-0.7,0.1-0.9,0.4C28.1,23.3,28,23.6,28,24c0,0.3,0.1,0.7,0.4,0.9C28.7,25.2,29,25.3,29.3,25.3z"/>
</svg>
