<?xml version="1.0" encoding="utf-8"?>
<!-- Generator: Adobe Illustrator 26.3.1, SVG Export Plug-In . SVG Version: 6.00 Build 0)  -->
<svg version="1.1" id="Слой_1" xmlns="http://www.w3.org/2000/svg" xmlns:xlink="http://www.w3.org/1999/xlink" x="0px" y="0px"
	 viewBox="0 0 48 48" style="enable-background:new 0 0 48 48;" xml:space="preserve">
<path d="M16.4,30.1L22.1,20v-1.6h-7.6v1.3h6.2l0.1,0.1l-5.5,9.6L16.4,30.1z M28.7,30.1c1.5,0,2.6-0.6,3.4-1.7
	c0.8-1.1,1.2-2.6,1.2-4.3s-0.4-3.2-1.2-4.3c-0.8-1.1-1.9-1.7-3.4-1.7s-2.6,0.6-3.4,1.7s-1.2,2.6-1.2,4.3s0.4,3.2,1.2,4.3
	C26.1,29.5,27.2,30.1,28.7,30.1z M28.7,28.8c-1,0-1.8-0.4-2.4-1.1c-0.6-0.8-0.9-2-0.9-3.6s0.3-2.7,0.9-3.5s1.4-1.2,2.4-1.2
	s1.8,0.4,2.4,1.2c0.6,0.8,1,2,1,3.5c0,1.6-0.3,2.8-0.9,3.6C30.5,28.4,29.7,28.8,28.7,28.8z M24,42c-2.5,0-4.8-0.5-7-1.4
	s-4.1-2.2-5.7-3.9c-1.6-1.6-2.9-3.5-3.9-5.7C6.5,28.8,6,26.5,6,24s0.5-4.8,1.4-7s2.2-4.1,3.9-5.7c1.6-1.6,3.5-2.9,5.7-3.8
	c2.2-1,4.5-1.5,7-1.5s4.8,0.5,7,1.4s4.1,2.2,5.7,3.8c1.6,1.6,2.9,3.5,3.8,5.7c0.9,2.2,1.4,4.5,1.4,7s-0.5,4.8-1.4,7
	s-2.2,4.1-3.8,5.7s-3.5,2.9-5.7,3.9S26.5,42,24,42z M24,40.5c4.6,0,8.5-1.6,11.7-4.8s4.8-7.1,4.8-11.7s-1.6-8.5-4.8-11.7
	S28.6,7.5,24,7.5s-8.5,1.6-11.7,4.8S7.5,19.4,7.5,24s1.6,8.5,4.8,11.7S19.4,40.5,24,40.5z"/>
</svg>
