<?xml version="1.0" encoding="utf-8"?>
<!-- Generator: Adobe Illustrator 26.3.1, SVG Export Plug-In . SVG Version: 6.00 Build 0)  -->
<svg version="1.1" id="Слой_1" xmlns="http://www.w3.org/2000/svg" xmlns:xlink="http://www.w3.org/1999/xlink" x="0px" y="0px"
	 viewBox="0 0 48 48" style="enable-background:new 0 0 48 48;" xml:space="preserve">
<path d="M24,40.5c1.1,0,2.1-0.1,3.1-0.3s2-0.5,3-0.9c-1.1-0.9-1.9-2-2.4-3.3s-0.8-2.6-0.8-4.1c0-0.4,0-0.7,0-1.1s0.1-0.7,0.2-1
	c-1-0.4-1.8-1.1-2.3-2.1S24,25.4,24,24c0-1.7,0.4-3.2,1.2-4.3c0.8-1.1,1.9-1.7,3.4-1.7c1.2,0,2.3,0.4,3,1.3c0.8,0.9,1.3,2,1.5,3.3
	c0.6-0.2,1.2-0.4,1.8-0.6c0.6-0.1,1.3-0.2,2-0.2c0.6,0,1.2,0.1,1.7,0.2c0.6,0.1,1.1,0.3,1.7,0.4c-0.2-2.1-0.7-4.1-1.7-5.9
	c-0.9-1.8-2.1-3.4-3.6-4.7s-3.2-2.4-5.1-3.1C28,8,26,7.6,23.8,7.6c-2.3,0-4.4,0.4-6.4,1.3s-3.7,2-5.2,3.5s-2.7,3.2-3.5,5.2
	S7.5,21.7,7.5,24s0.4,4.4,1.3,6.4s2,3.7,3.5,5.2s3.2,2.7,5.2,3.5C19.6,40,21.7,40.5,24,40.5z M27.5,28.5c0.4-1.1,1-2.2,1.8-3.1
	s1.7-1.7,2.7-2.2c-0.1-1.3-0.5-2.3-1.1-2.9c-0.6-0.7-1.4-1-2.2-1c-1,0-1.7,0.4-2.4,1.2c-0.6,0.8-0.9,2-0.9,3.5c0,1.2,0.2,2.2,0.6,3
	C26.3,27.7,26.8,28.2,27.5,28.5z M37,42c-1,0-1.9-0.1-2.8-0.4c-0.9-0.3-1.8-0.7-2.6-1.2c-1.2,0.6-2.4,1-3.7,1.2
	C26.6,41.9,25.3,42,24,42c-2.5,0-4.8-0.5-7-1.4s-4.1-2.2-5.7-3.8s-2.9-3.5-3.8-5.7C6.5,28.8,6,26.5,6,24s0.5-4.8,1.4-7
	s2.2-4.1,3.8-5.7s3.5-2.9,5.7-3.8C19.2,6.5,21.5,6,24,6c2.4,0,4.7,0.4,6.8,1.3s4,2.1,5.6,3.7c1.6,1.5,2.9,3.4,3.9,5.4
	s1.5,4.3,1.7,6.7c1.6,0.9,2.8,2.1,3.7,3.7c0.9,1.5,1.4,3.2,1.4,5c0,2.8-1,5.2-3,7.1S39.8,42,37,42z M37,40.4c2.4,0,4.4-0.8,6.1-2.5
	c1.7-1.7,2.5-3.7,2.5-6c0-2.4-0.8-4.4-2.5-6.1s-3.7-2.5-6-2.5s-4.4,0.8-6.1,2.5c-1.7,1.7-2.5,3.7-2.5,6s0.8,4.4,2.5,6.1
	C32.6,39.6,34.6,40.4,37,40.4z M16.4,30.1l-1.2-0.7l5.5-9.6l-0.1-0.1h-6.2v-1.3H22V20C22.1,20,16.4,30.1,16.4,30.1z"/>
</svg>
