<?xml version="1.0" encoding="utf-8"?>
<!-- Generator: Adobe Illustrator 26.3.1, SVG Export Plug-In . SVG Version: 6.00 Build 0)  -->
<svg version="1.1" id="Слой_1" xmlns="http://www.w3.org/2000/svg" xmlns:xlink="http://www.w3.org/1999/xlink" x="0px" y="0px"
	 viewBox="0 0 48 48" style="enable-background:new 0 0 48 48;" xml:space="preserve">
<path d="M39.9,22.8c-0.4,0-0.8-0.2-1.1-0.5s-0.5-0.7-0.5-1.1V10.4c0-0.4,0.2-0.8,0.5-1.1s0.7-0.5,1.1-0.5c0.4,0,0.8,0.2,1.1,0.5
	s0.5,0.7,0.5,1.1v10.8c0,0.4-0.2,0.8-0.5,1.1C40.7,22.6,40.3,22.8,39.9,22.8z M20,22.8c-1.6,0-3-0.6-4.1-1.7s-1.7-2.5-1.7-4.1
	s0.6-3,1.7-4.1s2.5-1.7,4.1-1.7s3,0.6,4.1,1.7s1.7,2.5,1.7,4.1s-0.6,3-1.7,4.1C23,22.2,21.6,22.8,20,22.8z M6,37.2v-2.9
	c0-0.9,0.3-1.6,0.8-2.3s1.2-1.3,2-1.6c1.8-0.8,3.6-1.4,5.5-1.9s3.8-0.7,5.7-0.7c2,0,3.9,0.2,5.7,0.7c1.9,0.5,3.7,1.1,5.5,1.9
	c0.8,0.4,1.5,0.9,2,1.6s0.8,1.5,0.8,2.3v2.9H6z M7.5,35.7h24.9v-1.4c0-0.6-0.2-1.1-0.5-1.5c-0.4-0.5-0.8-0.8-1.4-1.1
	c-1.6-0.8-3.4-1.4-5.1-1.8c-1.8-0.4-3.6-0.6-5.4-0.6s-3.6,0.2-5.4,0.6s-3.5,1-5.1,1.8c-0.6,0.3-1,0.6-1.4,1.1
	c-0.4,0.5-0.5,1-0.5,1.5C7.5,34.3,7.5,35.7,7.5,35.7z M20,21.2c1.2,0,2.2-0.4,3-1.2c0.8-0.8,1.2-1.8,1.2-3s-0.4-2.2-1.2-3
	c-0.8-0.8-1.8-1.2-3-1.2s-2.2,0.4-3,1.2s-1.2,1.8-1.2,3s0.4,2.2,1.2,3S18.8,21.2,20,21.2z"/>
</svg>
