<?xml version="1.0" encoding="utf-8"?>
<!-- Generator: Adobe Illustrator 26.3.1, SVG Export Plug-In . SVG Version: 6.00 Build 0)  -->
<svg version="1.1" id="Слой_1" xmlns="http://www.w3.org/2000/svg" xmlns:xlink="http://www.w3.org/1999/xlink" x="0px" y="0px"
	 viewBox="0 0 48 48" style="enable-background:new 0 0 48 48;" xml:space="preserve">
<path d="M36.2,34c-0.8,0-1.4-0.3-2-0.8c-0.5-0.5-0.8-1.2-0.8-2s0.3-1.4,0.8-2c0.5-0.5,1.2-0.8,2-0.8s1.4,0.3,2,0.8
	c0.5,0.5,0.8,1.2,0.8,2s-0.3,1.4-0.8,2C37.7,33.7,37,34,36.2,34z M29.5,43v-0.9c0-1.1,0.6-2,1.9-2.6c1.2-0.7,2.9-1,4.9-1
	s3.7,0.3,4.9,1s1.9,1.5,1.9,2.6V43H29.5z M33,24h-1.5V14c0-2.1-0.7-3.9-2.2-5.3C27.7,7.2,26,6.5,24,6.5s-3.7,0.7-5.2,2.1
	s-2.2,3.2-2.2,5.3v20c0,2,0.7,3.7,2.2,5.2s3.2,2.2,5.2,2.2V43c-2.5,0-4.7-0.9-6.4-2.6C15.9,38.7,15,36.5,15,34V14
	c0-2.5,0.9-4.7,2.6-6.4C19.3,5.9,21.5,5,24,5s4.7,0.9,6.4,2.6S33,11.5,33,14V24z M24,19.8c1,0,1.9-0.4,2.7-1.1
	c0.7-0.7,1.1-1.6,1.1-2.7s-0.4-1.9-1.1-2.7c-0.7-0.7-1.6-1.1-2.7-1.1c-1,0-1.9,0.4-2.7,1.1c-0.7,0.7-1.1,1.6-1.1,2.7
	s0.4,1.9,1.1,2.7S23,19.8,24,19.8z M20.2,32c0,1,0.4,1.9,1.1,2.7s1.6,1.1,2.7,1.1s1.9-0.4,2.7-1.1c0.7-0.7,1.1-1.6,1.1-2.7
	s-0.4-1.9-1.1-2.7c-0.7-0.7-1.6-1.1-2.7-1.1c-1,0-1.9,0.4-2.7,1.1C20.6,30.1,20.2,31,20.2,32z M24,34.3c-0.7,0-1.3-0.2-1.7-0.7
	c-0.4-0.5-0.6-1-0.6-1.6s0.2-1.1,0.6-1.6s1-0.7,1.7-0.7s1.3,0.2,1.7,0.7c0.4,0.4,0.7,1,0.7,1.7c0,0.6-0.2,1.1-0.7,1.6
	C25.3,34.1,24.7,34.3,24,34.3z"/>
</svg>
