<?xml version="1.0" encoding="utf-8"?>
<!-- Generator: Adobe Illustrator 26.3.1, SVG Export Plug-In . SVG Version: 6.00 Build 0)  -->
<svg version="1.1" id="Слой_1" xmlns="http://www.w3.org/2000/svg" xmlns:xlink="http://www.w3.org/1999/xlink" x="0px" y="0px"
	 viewBox="0 0 48 48" style="enable-background:new 0 0 48 48;" xml:space="preserve">
<path d="M45.5,31.8c-0.9,0-1.6-0.3-2.2-0.9c-0.6-0.6-0.9-1.4-0.9-2.2v-8c0-0.9,0.3-1.6,0.9-2.2c0.6-0.6,1.4-0.9,2.2-0.9h1.2v14.3
	L45.5,31.8L45.5,31.8z M16.4,34.2c-0.3,0-0.7-0.1-1.1-0.2s-0.7-0.3-0.9-0.6L7,26.1c-0.3-0.3-0.5-0.6-0.6-0.9s-0.2-0.7-0.2-1
	s0.1-0.7,0.2-1.1s0.3-0.7,0.6-1l5.2-5.2c0.8-0.8,1.7-1.3,2.6-1.7c1-0.4,2-0.6,3.1-0.6c2.2,0,4.1,0.8,5.7,2.3
	c1.5,1.5,2.3,3.4,2.3,5.7c0,1.1-0.2,2.1-0.6,3.1s-1,1.9-1.7,2.6l-5.2,5.2c-0.3,0.3-0.6,0.5-0.9,0.6C17.1,34.2,16.8,34.2,16.4,34.2z
	 M17.9,16.1c-0.8,0-1.7,0.2-2.4,0.5c-0.8,0.3-1.5,0.8-2.1,1.4l-5.2,5.2c-0.2,0.2-0.3,0.5-0.3,0.9c0,0.3,0.1,0.6,0.3,0.9l7.4,7.4
	c0.2,0.2,0.5,0.3,0.9,0.3c0.3,0,0.6-0.1,0.9-0.3l5.2-5.2c0.6-0.6,1.1-1.3,1.4-2.1c0.3-0.8,0.5-1.6,0.5-2.4c0-1.8-0.6-3.4-1.9-4.6
	C21.3,16.7,19.7,16.1,17.9,16.1z M34,29.4l-0.9-0.9l3.1-3.1h-7.4V24h7.7l-3.4-3.4l0.9-0.9l4.8,4.8L34,29.4z"/>
</svg>
