<?xml version="1.0" encoding="utf-8"?>
<!-- Generator: Adobe Illustrator 26.3.1, SVG Export Plug-In . SVG Version: 6.00 Build 0)  -->
<svg version="1.1" id="Слой_1" xmlns="http://www.w3.org/2000/svg" xmlns:xlink="http://www.w3.org/1999/xlink" x="0px" y="0px"
	 viewBox="0 0 48 48" style="enable-background:new 0 0 48 48;" xml:space="preserve">
<path d="M17.5,40c-2.6,0-4.9-0.9-6.7-2.8c-1.9-1.8-2.8-4-2.8-6.7v-13c0-2.6,0.9-4.9,2.8-6.7s4-2.8,6.7-2.8h13.1
	c2.6,0,4.9,0.9,6.7,2.8c1.8,1.8,2.8,4.1,2.8,6.7v13.1c0,2.6-0.9,4.9-2.8,6.7c-1.8,1.8-4.1,2.8-6.7,2.8L17.5,40L17.5,40z M9.5,31.2
	h28.9V17.5c0-2.2-0.8-4.1-2.3-5.6s-3.4-2.3-5.6-2.3h-13c-2.2,0-4.1,0.8-5.6,2.3s-2.3,3.4-2.3,5.6C9.5,17.5,9.5,31.2,9.5,31.2z
	 M9.8,32.8c0.5,1.7,1.5,3.1,2.9,4.1s3,1.6,4.7,1.6h13.1c1.7,0,3.3-0.5,4.7-1.6c1.4-1,2.4-2.4,2.9-4.1H9.8z"/>
</svg>
