<?xml version="1.0" encoding="utf-8"?>
<!-- Generator: Adobe Illustrator 26.3.1, SVG Export Plug-In . SVG Version: 6.00 Build 0)  -->
<svg version="1.1" id="Слой_1" xmlns="http://www.w3.org/2000/svg" xmlns:xlink="http://www.w3.org/1999/xlink" x="0px" y="0px"
	 viewBox="0 0 48 48" style="enable-background:new 0 0 48 48;" xml:space="preserve">
<path d="M5,14.1V9h1.5v5.1H5z M5,39v-5.1h1.5V39H5z M13.6,17.5l-1.1-1.1l3.6-3.6l1.1,1.1L13.6,17.5z M16.1,35.2l-3.6-3.6l1.1-1.1
	l3.6,3.6L16.1,35.2z M16,24.8v-1.5h14.7l-4.6-6.1l1.2-1l4.8,6.4c0.3,0.5,0.4,1,0.1,1.5c-0.3,0.5-0.7,0.7-1.2,0.7H16z M40.3,37
	c-0.5,0-0.9-0.2-1.3-0.5c-0.3-0.3-0.5-0.8-0.5-1.3V12.8c0-0.5,0.2-0.9,0.5-1.3c0.3-0.3,0.8-0.5,1.2-0.5c0.5,0,0.9,0.2,1.3,0.5
	c0.3,0.3,0.5,0.8,0.5,1.3v22.5c0,0.5-0.2,0.9-0.5,1.3C41.2,36.8,40.8,37,40.3,37z M5.1,30.8v-1.5c1.4,0,2.7-0.5,3.7-1.5
	s1.5-2.3,1.5-3.7c0-1.4-0.5-2.7-1.5-3.7s-2.3-1.5-3.7-1.5v-1.5c1.9,0,3.5,0.7,4.8,2s2,2.9,2,4.8s-0.7,3.5-2,4.8
	C8.6,30.1,7,30.8,5.1,30.8z"/>
</svg>
