<?xml version="1.0" encoding="utf-8"?>
<!-- Generator: Adobe Illustrator 26.3.1, SVG Export Plug-In . SVG Version: 6.00 Build 0)  -->
<svg version="1.1" id="Слой_1" xmlns="http://www.w3.org/2000/svg" xmlns:xlink="http://www.w3.org/1999/xlink" x="0px" y="0px"
	 viewBox="0 0 48 48" style="enable-background:new 0 0 48 48;" xml:space="preserve">
<path d="M16.4,40c-2.4,0-4.3-0.8-6-2.4C8.8,35.9,8,34,8,31.6V16.4c0-2.3,0.8-4.3,2.4-5.9C12.1,8.8,14,8,16.4,8h15.2
	c2.3,0,4.3,0.8,5.9,2.4s2.5,3.6,2.5,6v15.2c0,2.4-0.8,4.3-2.4,6c-1.7,1.6-3.6,2.4-6,2.4H16.4z M16.4,38.5h15.2c1.9,0,3.5-0.7,4.9-2
	c1.3-1.3,2-2.9,2-4.9V16.4c0-1.9-0.7-3.5-2-4.9c-1.3-1.3-2.9-2-4.9-2H16.4c-1.9,0-3.6,0.7-4.9,2s-2,2.9-2,4.9v15.2
	c0,1.9,0.7,3.6,2,4.9C12.8,37.8,14.5,38.5,16.4,38.5z M24,32.4c-2.3,0-4.3-0.8-5.9-2.4s-2.4-3.6-2.4-5.9s0.8-4.3,2.4-6
	c1.6-1.6,3.6-2.4,5.9-2.4s4.3,0.8,6,2.4c1.6,1.6,2.4,3.6,2.4,6c0,2.3-0.8,4.3-2.4,5.9C28.3,31.6,26.3,32.4,24,32.4z M24,30.8
	c1.9,0,3.6-0.7,4.9-2s2-2.9,2-4.9s-0.7-3.6-2-4.9s-3-2-4.9-2s-3.6,0.7-4.9,2s-2,3-2,4.9s0.7,3.6,2,4.9C20.4,30.2,22.1,30.8,24,30.8z
	"/>
</svg>
