<?xml version="1.0" encoding="utf-8"?>
<!-- Generator: Adobe Illustrator 26.3.1, SVG Export Plug-In . SVG Version: 6.00 Build 0)  -->
<svg version="1.1" id="Слой_1" xmlns="http://www.w3.org/2000/svg" xmlns:xlink="http://www.w3.org/1999/xlink" x="0px" y="0px"
	 viewBox="0 0 48 48" style="enable-background:new 0 0 48 48;" xml:space="preserve">
<path d="M24,37c-3.2,0-5.9-0.2-7.9-0.6C14,36,13,35.5,13,34.9V33H8.1c-0.8,0-1.5-0.3-2-0.9c-0.6-0.6-0.8-1.3-0.7-2.1l1.4-16.5
	c0.1-0.7,0.4-1.4,0.9-1.8s1-0.7,1.7-0.7h29.1c0.7,0,1.3,0.2,1.9,0.7s0.8,1.1,0.9,1.8L42.7,30c0.1,0.8-0.2,1.5-0.7,2.1
	c-0.6,0.6-1.2,0.9-2,0.9h-5v1.9c0,0.6-1,1.1-3.1,1.5C29.9,36.8,27.2,37,24,37z M8.1,31.5h31.8c0.4,0,0.7-0.1,0.9-0.4
	s0.4-0.6,0.3-0.9l-1.4-16.5c0-0.3-0.2-0.6-0.4-0.8s-0.5-0.3-0.8-0.3h-29c-0.3,0-0.6,0.1-0.8,0.3s-0.4,0.5-0.4,0.8L6.9,30.1
	c0,0.4,0.1,0.7,0.3,0.9C7.4,31.3,7.7,31.5,8.1,31.5z"/>
</svg>
