<?xml version="1.0" encoding="utf-8"?>
<!-- Generator: Adobe Illustrator 26.3.1, SVG Export Plug-In . SVG Version: 6.00 Build 0)  -->
<svg version="1.1" id="Слой_1" xmlns="http://www.w3.org/2000/svg" xmlns:xlink="http://www.w3.org/1999/xlink" x="0px" y="0px"
	 viewBox="0 0 48 48" style="enable-background:new 0 0 48 48;" xml:space="preserve">
<path d="M15.8,40c-2.1,0-4-0.8-5.5-2.3S8,34.4,8,32.2V15.8c0-2.1,0.8-4,2.3-5.5S13.6,8,15.8,8h16.5c2.1,0,4,0.8,5.5,2.3
	s2.3,3.3,2.3,5.5v16.5c0,2.1-0.8,4-2.3,5.5s-3.3,2.3-5.5,2.3L15.8,40L15.8,40z M15.8,38.5h16.5c1.7,0,3.2-0.6,4.4-1.8
	s1.8-2.7,1.8-4.4V15.8c0-1.7-0.6-3.2-1.8-4.4S34,9.6,32.3,9.6H15.8c-1.7,0-3.2,0.6-4.4,1.8s-1.8,2.7-1.8,4.4v16.5
	c0,1.7,0.6,3.2,1.8,4.4S14,38.5,15.8,38.5z M24,32.7c2.2,0,4.1-0.8,5.6-2.3s2.3-3.4,2.3-5.6s-0.8-4.1-2.3-5.6S26.2,17,24,17
	s-4.1,0.8-5.6,2.3s-2.3,3.4-2.3,5.6s0.8,4.1,2.3,5.6S21.8,32.7,24,32.7z M24,31.2c-1.8,0-3.3-0.6-4.5-1.9c-1.2-1.2-1.9-2.7-1.9-4.5
	s0.6-3.3,1.9-4.5s2.7-1.9,4.5-1.9s3.3,0.6,4.5,1.9c1.2,1.2,1.9,2.7,1.9,4.5s-0.6,3.3-1.9,4.5S25.8,31.2,24,31.2z M24,14.6
	c0.4,0,0.7-0.1,0.9-0.4c0.2-0.3,0.4-0.6,0.4-0.9c0-0.4-0.1-0.7-0.4-0.9C24.7,12.1,24.4,12,24,12s-0.7,0.1-0.9,0.4
	c-0.2,0.3-0.4,0.6-0.4,0.9c0,0.4,0.1,0.7,0.4,0.9C23.3,14.5,23.6,14.6,24,14.6z"/>
</svg>
