<?xml version="1.0" encoding="utf-8"?>
<!-- Generator: Adobe Illustrator 26.3.1, SVG Export Plug-In . SVG Version: 6.00 Build 0)  -->
<svg version="1.1" id="Слой_1" xmlns="http://www.w3.org/2000/svg" xmlns:xlink="http://www.w3.org/1999/xlink" x="0px" y="0px"
	 viewBox="0 0 48 48" style="enable-background:new 0 0 48 48;" xml:space="preserve">
<path d="M17.5,40c-2.6,0-4.9-0.9-6.7-2.8S8,33.2,8,30.5V17.4c0-2.6,0.9-4.9,2.8-6.7s4-2.7,6.7-2.7h13.1c2.6,0,4.9,0.9,6.7,2.8
	s2.8,4.1,2.8,6.7v13.1c0,2.6-0.9,4.9-2.8,6.7S33.2,40,30.5,40H17.5z M9.6,31.2h28.9V17.5c0-2.2-0.8-4.1-2.3-5.6s-3.4-2.3-5.6-2.3
	H17.5c-2.2,0-4.1,0.8-5.6,2.3s-2.3,3.4-2.3,5.6L9.6,31.2z M9.8,32.8c0.5,1.7,1.5,3.1,2.9,4.2c1.4,1,3,1.5,4.7,1.5h13.1
	c1.7,0,3.3-0.5,4.7-1.5c1.4-1,2.4-2.4,3-4.2H9.8z"/>
</svg>
