<?xml version="1.0" encoding="utf-8"?>
<!-- Generator: Adobe Illustrator 26.3.1, SVG Export Plug-In . SVG Version: 6.00 Build 0)  -->
<svg version="1.1" id="Слой_1" xmlns="http://www.w3.org/2000/svg" xmlns:xlink="http://www.w3.org/1999/xlink" x="0px" y="0px"
	 viewBox="0 0 48 48" style="enable-background:new 0 0 48 48;" xml:space="preserve">
<path d="M40.5,23.9c-0.4,0-0.8-0.2-1.1-0.5s-0.5-0.7-0.5-1.1V11.5c0-0.4,0.2-0.8,0.5-1.1s0.7-0.5,1.1-0.5c0.4,0,0.8,0.2,1.1,0.5
	s0.5,0.7,0.5,1.1v10.8c0,0.4-0.2,0.8-0.5,1.1S40.9,23.9,40.5,23.9z M15.7,40c-0.3,0-0.6-0.1-0.8-0.2c-0.3-0.1-0.5-0.3-0.7-0.5
	l-9.1-9l1.5-1.5c0.2-0.2,0.4-0.4,0.7-0.5c0.2-0.1,0.5-0.1,0.8,0l6.5,1.5V11c0-0.8,0.3-1.5,0.9-2.1C16,8.3,16.7,8,17.6,8
	c0.8,0,1.5,0.3,2.1,0.9c0.6,0.6,0.9,1.3,0.9,2.1v10.2h1.9c0.1,0,0.3,0,0.4,0.1c0.1,0,0.2,0.1,0.4,0.1l6.4,2.8c1,0.4,1.6,1.1,2,2.1
	s0.5,2,0.3,3.1l-1.5,8.9c-0.1,0.5-0.3,0.9-0.7,1.2c-0.4,0.3-0.8,0.4-1.3,0.4C28.4,40,15.7,40,15.7,40z M15.5,38.5h13.3l1.7-9.6
	c0.1-0.5,0.1-1.1-0.1-1.7s-0.5-1-1.2-1.3l-7-3.2H19V11c0-0.4-0.1-0.8-0.4-1.1S18,9.5,17.5,9.5c-0.4,0-0.8,0.1-1.1,0.4S16,10.5,16,11
	v20.6l-8.3-1.8l-0.5,0.5C7.3,30.3,15.5,38.5,15.5,38.5z M15.5,38.5h13.2H15.5z"/>
</svg>
