<?xml version="1.0" encoding="utf-8"?>
<!-- Generator: Adobe Illustrator 26.3.1, SVG Export Plug-In . SVG Version: 6.00 Build 0)  -->
<svg version="1.1" id="Слой_1" xmlns="http://www.w3.org/2000/svg" xmlns:xlink="http://www.w3.org/1999/xlink" x="0px" y="0px"
	 viewBox="0 0 48 48" style="enable-background:new 0 0 48 48;" xml:space="preserve">
<path d="M6,42L42,6v17.1h-1.5V9.7L9.7,40.5h18.6V42H6z M34.2,42c-0.5,0-0.9-0.2-1.3-0.6c-0.4-0.4-0.6-0.9-0.6-1.3v-5.4
	c0-0.5,0.2-0.9,0.6-1.3c0.4-0.4,0.9-0.6,1.3-0.6h0.1v-2c0-1,0.3-1.9,1-2.6s1.5-1.1,2.5-1.1s1.9,0.4,2.5,1.1c0.7,0.7,1,1.6,1,2.6v2
	h0.1c0.5,0,0.9,0.2,1.3,0.6c0.4,0.4,0.6,0.8,0.6,1.3v5.4c0,0.4-0.2,0.9-0.6,1.3c-0.4,0.4-0.8,0.6-1.3,0.6H34.2z M35.9,32.8H40v-2
	c0-0.6-0.2-1.1-0.6-1.5c-0.4-0.4-0.9-0.6-1.5-0.6s-1.1,0.2-1.4,0.6c-0.4,0.4-0.6,0.9-0.6,1.5V32.8z M9.7,40.5L40.5,9.7
	c-4.6,4.6-9.8,9.8-15.4,15.4S14.3,35.8,9.7,40.5z"/>
</svg>
