<?xml version="1.0" encoding="utf-8"?>
<!-- Generator: Adobe Illustrator 26.3.1, SVG Export Plug-In . SVG Version: 6.00 Build 0)  -->
<svg version="1.1" id="Слой_1" xmlns="http://www.w3.org/2000/svg" xmlns:xlink="http://www.w3.org/1999/xlink" x="0px" y="0px"
	 viewBox="0 0 48 48" style="enable-background:new 0 0 48 48;" xml:space="preserve">
<path d="M24,39.2L2.8,18c3-2.6,6.2-4.5,9.9-5.9C16.3,10.7,20.1,10,24,10s7.7,0.7,11.3,2.1s6.9,3.4,9.9,5.9L24,39.2z M7.7,20.7
	c2.3-1.8,4.9-3.1,7.7-4.1s5.7-1.5,8.6-1.5s5.9,0.5,8.6,1.5s5.3,2.4,7.7,4.1l2.5-2.5c-2.7-2.1-5.7-3.7-8.9-4.9
	c-3.2-1.2-6.5-1.8-10-1.8s-6.8,0.6-10,1.8S7.8,16.1,5,18.2C5.2,18.2,7.7,20.7,7.7,20.7z"/>
</svg>
