<?xml version="1.0" encoding="utf-8"?>
<!-- Generator: Adobe Illustrator 26.3.1, SVG Export Plug-In . SVG Version: 6.00 Build 0)  -->
<svg version="1.1" id="Слой_1" xmlns="http://www.w3.org/2000/svg" xmlns:xlink="http://www.w3.org/1999/xlink" x="0px" y="0px"
	 viewBox="0 0 48 48" style="enable-background:new 0 0 48 48;" xml:space="preserve">
<path d="M39.3,39.9l1.1-1.1l-3.9-3.6v-5.7H35v6.3C35,35.7,39.3,39.9,39.3,39.9z M24.7,29.6v-9.4h4.9l-1.3-1.3h-3.6v-7.6
	c0-0.4,0.1-0.7,0.4-1s0.6-0.4,1-0.4h5.1c0.2,0,0.5,0.1,0.7,0.2c0.2,0.1,0.4,0.3,0.5,0.5l3.7,6.6h-2.8l-1.9-3.5h-4V15h3.2l1.9,3.5
	h4.4l2.8,4.8c-0.6-0.2-1.1-0.3-1.7-0.4c-0.6-0.1-1.2-0.1-1.8-0.1c-2.4,0-4.6,0.6-6.6,1.9C27.3,26,25.7,27.6,24.7,29.6z M22,38h-5.1
	c-0.2,0-0.5-0.1-0.7-0.2c-0.2-0.1-0.4-0.3-0.5-0.5L12,30.7h2.8l1.9,3.5h4v-1.3h-3.2l-1.9-3.5h-4.3l-2.7-4.7
	c-0.1-0.1-0.1-0.2-0.2-0.3c0-0.1-0.1-0.2-0.1-0.3c0,0,0.1-0.3,0.2-0.7l2.7-4.7h4.3l1.9-3.5h3.2v-1.3h-4l-1.9,3.5H12l3.7-6.6
	c0.1-0.2,0.3-0.4,0.5-0.5s0.5-0.2,0.7-0.2H22c0.4,0,0.7,0.1,1,0.4c0.3,0.3,0.4,0.6,0.4,1v7.6h-3.6l-1.3,1.3h4.9v5.7h-4.2l-1.8-3.5
	h-3.9l-1.3,1.3h4.3l1.8,3.5h5v6.4c0,0.3-0.1,0.6-0.1,0.9c0,0.3,0,0.6,0,0.8s0,0.5,0,0.7s0,0.5,0.1,0.7c-0.1,0.3-0.2,0.6-0.5,0.8
	C22.6,37.9,22.3,38,22,38z M35.8,43.1c-2.1,0-4-0.8-5.5-2.3S28,37.5,28,35.3s0.8-4,2.3-5.5s3.4-2.3,5.5-2.3s4,0.8,5.5,2.3
	s2.3,3.3,2.3,5.5c0,2.1-0.8,4-2.3,5.5C39.8,42.4,38,43.1,35.8,43.1z"/>
</svg>
