<?xml version="1.0" encoding="utf-8"?>
<!-- Generator: Adobe Illustrator 26.3.1, SVG Export Plug-In . SVG Version: 6.00 Build 0)  -->
<svg version="1.1" id="Слой_1" xmlns="http://www.w3.org/2000/svg" xmlns:xlink="http://www.w3.org/1999/xlink" x="0px" y="0px"
	 viewBox="0 0 48 48" style="enable-background:new 0 0 48 48;" xml:space="preserve">
<path d="M24,39.2L2.8,18c2.9-2.5,6.1-4.4,9.7-5.9C16.1,10.7,19.9,10,24,10s7.9,0.7,11.5,2.1s6.8,3.4,9.7,5.9L24,39.2z M14.3,27.4
	c1.4-1,2.9-1.9,4.5-2.4c1.6-0.6,3.3-0.9,5.1-0.9c1.8,0,3.5,0.3,5.1,0.9s3.1,1.4,4.5,2.4l9.2-9.2c-2.7-2.1-5.7-3.7-8.8-4.9
	s-6.5-1.8-10-1.8s-6.8,0.6-10,1.8c-3.1,1.2-6.1,2.8-8.8,4.9C5.2,18.2,14.3,27.4,14.3,27.4z"/>
</svg>
