<?xml version="1.0" encoding="utf-8"?>
<!-- Generator: Adobe Illustrator 26.3.1, SVG Export Plug-In . SVG Version: 6.00 Build 0)  -->
<svg version="1.1" id="Слой_1" xmlns="http://www.w3.org/2000/svg" xmlns:xlink="http://www.w3.org/1999/xlink" x="0px" y="0px"
	 viewBox="0 0 48 48" style="enable-background:new 0 0 48 48;" xml:space="preserve">
<path d="M19.4,40.4c-1.5,0-2.8-0.5-3.8-1.6c-1.1-1.1-1.6-2.3-1.7-3.8c-1.6-0.2-3-1-4.1-2.3s-1.6-2.8-1.6-4.6c0-0.6,0.1-1.2,0.2-1.8
	c0.2-0.6,0.4-1.2,0.7-1.7c-0.4-0.6-0.8-1.2-1-1.9c-0.2-0.7-0.3-1.4-0.3-2.2c0-1.8,0.6-3.3,1.8-4.6s2.7-2,4.4-2.2c0-0.1,0-0.2,0-0.3
	s0-0.2,0-0.3c0-1.5,0.5-2.8,1.6-3.8s2.3-1.6,3.9-1.6c1,0,1.9,0.2,2.5,0.6c0.7,0.4,1.4,1,2,1.8c0.7-0.8,1.4-1.4,2-1.8
	c0.6-0.4,1.5-0.6,2.5-0.6c1.5,0,2.7,0.5,3.8,1.6c1.1,1.1,1.6,2.3,1.6,3.8v0.4c0,0.1,0,0.2,0,0.3c1.8,0.1,3.2,0.9,4.5,2.2
	c1.2,1.3,1.9,2.8,1.9,4.6c0,0.8-0.1,1.6-0.4,2.3c-0.3,0.7-0.6,1.3-1,1.9c0.3,0.6,0.6,1.2,0.7,1.8c0.2,0.6,0.3,1.2,0.3,1.9
	c0,1.8-0.5,3.3-1.6,4.6c-1.1,1.3-2.5,2-4.1,2.2c-0.1,1.4-0.6,2.7-1.7,3.8c-1,1.1-2.3,1.6-3.8,1.6c-1.1,0-2-0.2-2.6-0.6
	c-0.6-0.4-1.3-1-2-1.8c-0.7,0.8-1.4,1.4-2.1,1.8C21.3,40.2,20.5,40.4,19.4,40.4z M24.8,12.8v22.3c0,1,0.4,1.9,1.1,2.6
	c0.8,0.7,1.7,1.1,2.8,1.1c1,0,1.9-0.4,2.7-1.1c0.7-0.8,1.1-1.6,1.2-2.6c-1-0.1-2-0.4-2.8-0.9c-0.9-0.5-1.6-1.1-2.2-2
	c-0.2-0.2-0.2-0.3-0.2-0.5s0.2-0.4,0.3-0.5c0.2-0.1,0.4-0.2,0.6-0.1c0.2,0,0.4,0.2,0.5,0.3c0.5,0.7,1.1,1.2,1.8,1.6
	c0.8,0.4,1.6,0.5,2.4,0.5c1.5,0,2.8-0.5,3.8-1.5s1.5-2.3,1.5-3.8c0-0.4,0-0.8-0.1-1.2c-0.1-0.4-0.2-0.8-0.4-1.2
	c-0.6,0.5-1.2,0.9-2,1.1c-0.7,0.3-1.5,0.4-2.3,0.4c-0.2,0-0.4-0.1-0.6-0.2c-0.1-0.1-0.2-0.3-0.2-0.6c0-0.2,0.1-0.4,0.2-0.6
	c0.1-0.1,0.3-0.2,0.6-0.2c1.5,0,2.7-0.5,3.7-1.6c1-1,1.5-2.3,1.5-3.8c0-1.4-0.5-2.7-1.5-3.7S35,15,33.6,15c-0.3,0.7-0.7,1.4-1.3,1.9
	c-0.6,0.5-1.2,0.9-1.9,1.2c-0.2,0.1-0.4,0.1-0.6,0s-0.3-0.2-0.4-0.4c-0.1-0.2-0.1-0.4,0-0.6s0.2-0.3,0.4-0.4
	c0.8-0.3,1.4-0.8,1.8-1.5s0.7-1.5,0.7-2.3c0-1.1-0.4-2-1.1-2.8c-0.8-0.8-1.6-1.2-2.7-1.2c-1,0-1.9,0.4-2.7,1.1
	C25.1,10.9,24.8,11.8,24.8,12.8z M23.2,35.1V12.8c0-1-0.4-1.9-1.1-2.6s-1.6-1.1-2.7-1.1c-1,0-1.9,0.4-2.7,1.2
	c-0.8,0.8-1.1,1.7-1.1,2.8c0,0.9,0.2,1.6,0.7,2.3c0.5,0.7,1.1,1.1,1.8,1.4c0.2,0.1,0.4,0.2,0.5,0.4c0.1,0.2,0.1,0.4,0.1,0.6
	c-0.1,0.2-0.2,0.3-0.4,0.4c-0.2,0.1-0.4,0.1-0.6,0c-0.7-0.3-1.4-0.7-1.9-1.2s-1-1.2-1.3-1.9c-1.4,0.1-2.6,0.7-3.5,1.7
	c-1,1-1.5,2.2-1.5,3.7s0.5,2.8,1.5,3.8s2.2,1.6,3.7,1.6c0.2,0,0.4,0.1,0.6,0.2c0.1,0.1,0.2,0.3,0.2,0.6c0,0.2-0.1,0.4-0.2,0.6
	c-0.1,0.1-0.3,0.2-0.6,0.2c-0.8,0-1.6-0.1-2.3-0.4s-1.4-0.6-2-1.1c-0.2,0.4-0.3,0.8-0.4,1.2c-0.1,0.4-0.1,0.8-0.1,1.2
	c0,1.5,0.5,2.8,1.5,3.9c1,1,2.3,1.5,3.7,1.5c0.9,0,1.7-0.2,2.4-0.6c0.7-0.4,1.4-0.9,1.9-1.6c0.1-0.2,0.3-0.3,0.5-0.3
	c0.2-0.1,0.4,0,0.6,0.1c0.2,0.2,0.3,0.3,0.3,0.5s0,0.4-0.1,0.5c-0.6,0.8-1.3,1.5-2.2,2c-0.9,0.5-1.8,0.8-2.8,0.8
	c0,1,0.4,1.9,1.2,2.7s1.7,1.2,2.7,1.2c1.1,0,2-0.4,2.7-1.1C22.9,37,23.2,36.2,23.2,35.1z"/>
</svg>
