<?xml version="1.0" encoding="utf-8"?>
<!-- Generator: Adobe Illustrator 26.3.1, SVG Export Plug-In . SVG Version: 6.00 Build 0)  -->
<svg version="1.1" id="Слой_1" xmlns="http://www.w3.org/2000/svg" xmlns:xlink="http://www.w3.org/1999/xlink" x="0px" y="0px"
	 viewBox="0 0 48 48" style="enable-background:new 0 0 48 48;" xml:space="preserve">
<path d="M18.1,42.5l-3.3-5.7l-6.5-1.3L9,29l-4.3-5l4.2-4.9l-0.7-6.5l6.5-1.4L18,5.5l6,2.6l5.9-2.6l3.4,5.7l6.5,1.4l-0.7,6.5l4.2,4.9
	l-4.2,4.9l0.7,6.5l-6.5,1.3l-3.4,5.7L24,39.9L18.1,42.5z M18.8,40.4l5.2-2.1l5.3,2.1l3.1-4.9l5.7-1.3l-0.5-5.8l3.9-4.4l-3.9-4.4
	l0.5-5.9l-5.7-1.3l-3.1-4.9L24,9.7l-5.3-2.1l-3.1,4.9L10,13.7l0.5,5.9L6.6,24l3.9,4.4L10,34.2l5.7,1.3
	C15.6,35.5,18.8,40.4,18.8,40.4z M21.9,29.5l9.9-9.9l-1.2-1l-8.8,8.7l-4.5-4.6l-1.2,1.2C16.2,23.8,21.9,29.5,21.9,29.5z"/>
</svg>
