<?xml version="1.0" encoding="utf-8"?>
<!-- Generator: Adobe Illustrator 26.3.1, SVG Export Plug-In . SVG Version: 6.00 Build 0)  -->
<svg version="1.1" id="Слой_1" xmlns="http://www.w3.org/2000/svg" xmlns:xlink="http://www.w3.org/1999/xlink" x="0px" y="0px"
	 viewBox="0 0 48 48" style="enable-background:new 0 0 48 48;" xml:space="preserve">
<path d="M23.6,36v-1.5h5.9c0.4,0,0.8-0.1,1.1-0.3c0.4-0.2,0.6-0.4,0.8-0.7l6.7-9.5l-6.7-9.5c-0.2-0.3-0.4-0.6-0.8-0.7
	c-0.4-0.2-0.7-0.3-1.1-0.3H10.8c-0.4,0-0.7,0.1-0.9,0.3s-0.3,0.5-0.3,0.9v5.6H8v-5.6c0-0.7,0.3-1.4,0.8-1.9c0.6-0.5,1.2-0.8,2-0.8
	h18.5c0.8,0,1.5,0.2,2.1,0.6c0.6,0.4,1.2,0.9,1.6,1.5l7,9.9l-7,10c-0.5,0.6-1,1.1-1.7,1.5C30.7,35.8,30,36,29.2,36H23.6z M11,39v-6
	H5v-1.5h6v-6h1.5v6h6V33h-6v6H11z"/>
</svg>
