<?xml version="1.0" encoding="utf-8"?>
<!-- Generator: Adobe Illustrator 26.3.1, SVG Export Plug-In . SVG Version: 6.00 Build 0)  -->
<svg version="1.1" id="Слой_1" xmlns="http://www.w3.org/2000/svg" xmlns:xlink="http://www.w3.org/1999/xlink" x="0px" y="0px"
	 viewBox="0 0 48 48" style="enable-background:new 0 0 48 48;" xml:space="preserve">
<path d="M10.8,40c-0.8,0-1.4-0.3-2-0.8C8.3,38.7,8,38,8,37.2V10.8c0-0.8,0.3-1.4,0.8-2C9.3,8.3,10,8,10.8,8h20.4l8.8,8.8v20.4
	c0,0.8-0.3,1.4-0.8,2c-0.5,0.5-1.2,0.8-2,0.8C37.2,40,10.8,40,10.8,40z M10.8,38.5h26.5c0.4,0,0.7-0.1,0.9-0.3s0.3-0.5,0.3-0.9V17.8
	h-8.2V9.5H10.8c-0.4,0-0.7,0.1-0.9,0.3s-0.3,0.5-0.3,0.9v26.5c0,0.4,0.1,0.7,0.3,0.9C10.1,38.3,10.4,38.5,10.8,38.5z M15,31.8h18
	v-1.5H15C15,30.2,15,31.8,15,31.8z M15,17.8h9v-1.5h-9C15,16.2,15,17.8,15,17.8z M15,24.8h18v-1.5H15C15,23.2,15,24.8,15,24.8z
	 M9.5,9.5v8.3V9.5v28.9V9.5z"/>
</svg>
