<?xml version="1.0" encoding="utf-8"?>
<!-- Generator: Adobe Illustrator 26.3.1, SVG Export Plug-In . SVG Version: 6.00 Build 0)  -->
<svg version="1.1" id="Слой_1" xmlns="http://www.w3.org/2000/svg" xmlns:xlink="http://www.w3.org/1999/xlink" x="0px" y="0px"
	 viewBox="0 0 48 48" style="enable-background:new 0 0 48 48;" xml:space="preserve">
<path d="M13.1,26.9h1.5c0.3-2,1.3-3.7,2.9-5.1s3.5-2.1,5.7-2.1c1.5,0,3,0.5,4.8,1.5c1.7,1,3.2,2.4,4.3,4.2h-5.1v1.5h7.7v-7.7h-1.5
	v5.1c-1.3-2.1-2.9-3.7-4.8-4.7c-1.9-1-3.7-1.5-5.3-1.5c-2.6,0-4.9,0.9-6.8,2.6C14.5,22.3,13.4,24.4,13.1,26.9z M24,42
	c-2.5,0-4.8-0.5-7-1.4s-4.1-2.2-5.7-3.9c-1.6-1.6-2.9-3.5-3.9-5.7C6.5,28.8,6,26.5,6,24s0.5-4.8,1.4-7s2.2-4.1,3.9-5.7
	c1.6-1.6,3.5-2.9,5.7-3.8c2.2-1,4.5-1.5,7-1.5s4.8,0.5,7,1.4s4.1,2.2,5.7,3.8c1.6,1.6,2.9,3.5,3.8,5.7c0.9,2.2,1.4,4.5,1.4,7
	s-0.5,4.8-1.4,7s-2.2,4.1-3.8,5.7s-3.5,2.9-5.7,3.9S26.5,42,24,42z M24,40.5c4.6,0,8.5-1.6,11.7-4.8s4.8-7.1,4.8-11.7
	s-1.6-8.5-4.8-11.7S28.6,7.5,24,7.5s-8.5,1.6-11.7,4.8S7.5,19.4,7.5,24s1.6,8.5,4.8,11.7S19.4,40.5,24,40.5z"/>
</svg>
