<?xml version="1.0" encoding="utf-8"?>
<!-- Generator: Adobe Illustrator 26.3.1, SVG Export Plug-In . SVG Version: 6.00 Build 0)  -->
<svg version="1.1" id="Слой_1" xmlns="http://www.w3.org/2000/svg" xmlns:xlink="http://www.w3.org/1999/xlink" x="0px" y="0px"
	 viewBox="0 0 48 48" style="enable-background:new 0 0 48 48;" xml:space="preserve">
<path d="M22,39.2c2.3,0,4.5-0.6,6.4-1.8c2-1.2,3.6-2.8,5-4.7c-4.4,0-8.1-1.4-11.3-4.2s-4.8-6.3-4.8-10.6c0-0.8,0.1-1.6,0.2-2.4
	c0.1-0.8,0.3-1.5,0.5-2.3c-2.7,1-4.9,2.7-6.6,5S8.8,23,8.8,25.9c0,3.7,1.3,6.8,3.9,9.4S18.3,39.2,22,39.2z M22,40.8
	c-4.1,0-7.6-1.4-10.5-4.3C8.7,33.6,7.2,30.1,7.2,26c0-3.9,1.3-7.2,3.9-10.1c2.6-2.8,5.8-4.4,9.7-4.6h-0.2c-0.7,1-1.2,2.1-1.4,3.2
	c-0.3,1.1-0.4,2.3-0.4,3.5c0,3.7,1.3,6.8,3.9,9.4s5.7,3.9,9.4,3.9c0.7,0,1.3-0.1,2-0.2s1.3-0.3,2-0.5c-1,3.1-2.8,5.5-5.4,7.4
	C28.1,39.8,25.2,40.8,22,40.8z M29.2,21.4l5.6-16.9h2.5L43,21.4h-1.9l-1.4-4h-7.3l-1.3,4H29.2z M32.9,15.8h6.3l-3.1-9.6L32.9,15.8z"
	/>
</svg>
