<?xml version="1.0" encoding="utf-8"?>
<!-- Generator: Adobe Illustrator 26.3.1, SVG Export Plug-In . SVG Version: 6.00 Build 0)  -->
<svg version="1.1" id="Слой_1" xmlns="http://www.w3.org/2000/svg" xmlns:xlink="http://www.w3.org/1999/xlink" x="0px" y="0px"
	 viewBox="0 0 48 48" style="enable-background:new 0 0 48 48;" xml:space="preserve">
<path d="M15.5,34.9h1.7v-2.5h13.5v2.5h1.7v-6.8c0-0.9-0.3-1.7-1-2.4c-0.7-0.7-1.5-1-2.4-1h-5.9v5.9h-5.9V23h-1.7
	C15.5,23.1,15.5,34.9,15.5,34.9z M20.2,29.8c0.6,0,1.1-0.2,1.5-0.6s0.6-0.9,0.6-1.5s-0.2-1.1-0.6-1.5s-0.9-0.6-1.5-0.6
	s-1.1,0.2-1.5,0.6s-0.6,0.9-0.6,1.5s0.2,1.1,0.6,1.5C19.1,29.6,19.6,29.8,20.2,29.8z M10,40V19L24,8.5L38,19v21H10z M11.5,38.5h24.9
	V19.7L24,10.5l-12.5,9.2V38.5z"/>
</svg>
