<?xml version="1.0" encoding="utf-8"?>
<!-- Generator: Adobe Illustrator 26.3.1, SVG Export Plug-In . SVG Version: 6.00 Build 0)  -->
<svg version="1.1" id="Слой_1" xmlns="http://www.w3.org/2000/svg" xmlns:xlink="http://www.w3.org/1999/xlink" x="0px" y="0px"
	 viewBox="0 0 48 48" style="enable-background:new 0 0 48 48;" xml:space="preserve">
<path d="M29.8,42c-2.6,0-5-0.5-7.3-1.4c-2.3-1-4.3-2.3-6-3.9c-1.7-1.7-3.1-3.6-4.1-5.8s-1.5-4.5-1.5-7s0.5-4.9,1.5-7.1
	s2.3-4.1,4-5.8c1.7-1.6,3.7-2.9,6-3.9s4.7-1.4,7.3-1.4c1,0,1.9,0.1,2.7,0.2c0.9,0.1,1.7,0.3,2.5,0.6c-2.4,2.2-4.4,4.7-5.9,7.7
	s-2.2,6.2-2.2,9.7s0.7,6.7,2.2,9.7s3.4,5.6,5.9,7.7c-0.8,0.3-1.7,0.5-2.5,0.6C31.6,41.9,30.7,42,29.8,42z M29.8,40.5h1.1
	c0.4,0,0.7,0,1-0.1c-2-2.3-3.6-4.9-4.8-7.7s-1.7-5.8-1.7-8.9s0.6-6,1.7-8.9c1.2-2.8,2.8-5.4,4.8-7.7c-0.3-0.1-0.6-0.1-1-0.1h-1.1
	C25,7.1,21,8.8,17.6,12s-5.1,7.2-5.1,11.8s1.7,8.5,5.1,11.8C21,38.8,25,40.5,29.8,40.5z"/>
</svg>
