<?xml version="1.0" encoding="utf-8"?>
<!-- Generator: Adobe Illustrator 26.3.1, SVG Export Plug-In . SVG Version: 6.00 Build 0)  -->
<svg version="1.1" id="Слой_1" xmlns="http://www.w3.org/2000/svg" xmlns:xlink="http://www.w3.org/1999/xlink" x="0px" y="0px"
	 viewBox="0 0 48 48" style="enable-background:new 0 0 48 48;" xml:space="preserve">
<path d="M9.2,39v-1.5h4.1V25.8L4.2,12H24l-9.1,13.8v11.7H19V39H9.2z M9.7,17.7h8.7l2.7-4.1h-14L9.7,17.7z M30.7,39
	c-1.4,0-2.6-0.5-3.5-1.4s-1.4-2.1-1.4-3.5s0.5-2.5,1.4-3.5c0.9-0.9,2.1-1.4,3.5-1.4c0.6,0,1.1,0.1,1.7,0.3c0.5,0.2,1.1,0.5,1.7,0.9
	V12h7.8v3.1h-6.2v19c0,1.4-0.5,2.6-1.4,3.5C33.2,38.5,32.1,39,30.7,39z"/>
</svg>
