<?xml version="1.0" encoding="utf-8"?>
<!-- Generator: Adobe Illustrator 26.3.1, SVG Export Plug-In . SVG Version: 6.00 Build 0)  -->
<svg version="1.1" id="Слой_1" xmlns="http://www.w3.org/2000/svg" xmlns:xlink="http://www.w3.org/1999/xlink" x="0px" y="0px"
	 viewBox="0 0 48 48" style="enable-background:new 0 0 48 48;" xml:space="preserve">
<path d="M28.8,22.4l-8.3-8.3c0.4-0.4,0.9-0.7,1.5-0.9s1.3-0.3,2.1-0.3c1.7,0,3,0.6,4.2,1.7c1.1,1.1,1.7,2.5,1.7,4.2
	c0,0.7-0.1,1.4-0.3,2.1C29.4,21.6,29.1,22.1,28.8,22.4z M12.1,35.4c2-1.3,3.9-2.4,5.7-3.1c1.8-0.7,3.9-1.1,6.2-1.1
	c1.8,0,3.5,0.2,5,0.7c1.5,0.4,2.7,0.9,3.6,1.4L24,24.8c-1.7-0.1-3.1-0.6-4.2-1.7s-1.6-2.4-1.7-4.1l-6.3-6.3c-1.3,1.4-2.3,3.1-3.1,5
	s-1.2,4-1.2,6.3s0.4,4.3,1.2,6.2C9.5,32,10.6,33.8,12.1,35.4z M36.3,35c1.2-1.4,2.2-3,3-4.8s1.2-3.9,1.2-6.2c0-4.6-1.6-8.5-4.8-11.7
	S28.6,7.5,24,7.5c-2.3,0-4.3,0.4-6.2,1.1c-1.8,0.8-3.5,1.7-4.9,3C13,11.6,36.3,35,36.3,35z M24,42c-2.5,0-4.8-0.5-7-1.4
	s-4.1-2.2-5.7-3.8s-3-3.6-3.9-5.8S6,26.5,6,24s0.5-4.9,1.4-7c0.9-2.2,2.2-4.1,3.8-5.7s3.5-2.9,5.7-3.8S21.5,6,24,6s4.9,0.5,7,1.4
	c2.2,0.9,4.1,2.2,5.7,3.8c1.6,1.6,2.9,3.5,3.8,5.7c0.9,2.2,1.4,4.5,1.4,7s-0.5,4.8-1.4,7s-2.2,4.1-3.8,5.7s-3.5,2.9-5.7,3.8
	C28.9,41.5,26.5,42,24,42z M24,40.5c2,0,3.9-0.3,5.7-1c1.8-0.7,3.5-1.6,5.1-2.9c-1.5-1.1-3.2-2.1-5.2-2.7c-1.9-0.7-3.8-1-5.6-1
	s-3.6,0.3-5.5,0.9c-1.9,0.6-3.6,1.5-5.2,2.8c1.5,1.2,3.2,2.2,5,2.9C20.1,40.1,22,40.5,24,40.5z"/>
</svg>
