<?xml version="1.0" encoding="utf-8"?>
<!-- Generator: Adobe Illustrator 26.3.1, SVG Export Plug-In . SVG Version: 6.00 Build 0)  -->
<svg version="1.1" id="Слой_1" xmlns="http://www.w3.org/2000/svg" xmlns:xlink="http://www.w3.org/1999/xlink" x="0px" y="0px"
	 viewBox="0 0 48 48" style="enable-background:new 0 0 48 48;" xml:space="preserve">
<path d="M38,33l-1.5-1.5V16.6c0-1.4-0.5-2.6-1.5-3.6s-2.3-1.5-3.7-1.5H16.5l-1.3-1.3c0.1,0,0.2,0,0.4-0.1c0.1,0,0.3-0.1,0.4-0.1V6
	h3.5v4h8.9V6H32v4c1.6,0.2,3,0.8,4.2,2s1.8,2.7,1.8,4.5C38,16.6,38,33,38,33z M32.7,28l-2.4-2.4h2.4V28z M25.1,25.5V27h-9.8v-1.5
	H25.1z M11.7,12.3l1.1,1.1c-0.4,0.4-0.7,0.9-0.9,1.4c-0.2,0.6-0.3,1.2-0.3,1.8v22.8c0,0.3,0.1,0.6,0.3,0.8s0.5,0.3,0.9,0.3h22.5
	c0.4,0,0.7-0.1,0.9-0.3s0.3-0.5,0.3-0.8v-2.9L38,38v1.3c0,0.7-0.3,1.3-0.8,1.9c-0.6,0.5-1.2,0.8-2,0.8H12.8c-0.7,0-1.4-0.3-1.9-0.8
	c-0.6-0.5-0.8-1.1-0.8-1.9V16.6c0-0.8,0.1-1.6,0.4-2.3C10.7,13.5,11.1,12.8,11.7,12.3z M40.2,42.4L5.6,7.8l1.1-1.1l34.6,34.5
	C41.3,41.3,40.2,42.4,40.2,42.4z"/>
</svg>
