<?xml version="1.0" encoding="utf-8"?>
<!-- Generator: Adobe Illustrator 26.3.1, SVG Export Plug-In . SVG Version: 6.00 Build 0)  -->
<svg version="1.1" id="Слой_1" xmlns="http://www.w3.org/2000/svg" xmlns:xlink="http://www.w3.org/1999/xlink" x="0px" y="0px"
	 viewBox="0 0 48 48" style="enable-background:new 0 0 48 48;" xml:space="preserve">
<path d="M24,10.8l-4.1-4L21,5.7l3,3l7.3-7.3l1.1,1.1L24,10.8z M8.8,46c-0.2,0-0.4-0.1-0.5-0.2C8.1,45.6,8,45.4,8,45.2V30.5l4-11.7
	c0.1-0.2,0.2-0.4,0.5-0.6c0.2-0.1,0.5-0.2,0.7-0.2H35c0.2,0,0.5,0.1,0.6,0.2c0.2,0.1,0.3,0.3,0.4,0.6l4,11.7v14.8
	c0,0.2-0.1,0.4-0.2,0.5c-0.1,0.1-0.3,0.2-0.5,0.2l0,0c-0.2,0-0.4-0.1-0.6-0.2c-0.1-0.1-0.2-0.3-0.2-0.5V42h-29v3.3
	c0,0.2-0.1,0.4-0.2,0.5C9.2,45.9,9,46,8.8,46z M10.2,28.9h27.7l-3.2-9.4H13.4L10.2,28.9z M9.5,30.5v9.9V30.5z M14.5,37.5
	c0.6,0,1.1-0.2,1.5-0.6c0.4-0.4,0.6-0.9,0.6-1.5s-0.2-1.1-0.6-1.5s-0.9-0.6-1.5-0.6s-1.1,0.2-1.5,0.6c-0.4,0.4-0.6,0.9-0.6,1.5
	s0.2,1.1,0.6,1.5C13.4,37.3,13.9,37.5,14.5,37.5z M33.5,37.5c0.6,0,1.1-0.2,1.5-0.6c0.4-0.4,0.6-0.9,0.6-1.5s-0.2-1.1-0.6-1.5
	c-0.4-0.4-0.9-0.6-1.5-0.6s-1.1,0.2-1.5,0.6c-0.4,0.4-0.6,0.9-0.6,1.5s0.2,1.1,0.6,1.5C32.5,37.3,33,37.5,33.5,37.5z M9.5,40.4h28.9
	v-9.9H9.5C9.5,30.5,9.5,40.4,9.5,40.4z"/>
</svg>
