<?xml version="1.0" encoding="utf-8"?>
<!-- Generator: Adobe Illustrator 26.3.1, SVG Export Plug-In . SVG Version: 6.00 Build 0)  -->
<svg version="1.1" id="Слой_1" xmlns="http://www.w3.org/2000/svg" xmlns:xlink="http://www.w3.org/1999/xlink" x="0px" y="0px"
	 viewBox="0 0 48 48" style="enable-background:new 0 0 48 48;" xml:space="preserve">
<path d="M38,35.7l-1.5-1.5V20.9c0-0.4-0.1-0.7-0.3-0.9c-0.2-0.2-0.5-0.3-0.9-0.3H22l-1.5-1.5h9.8v-4.4c0-1.7-0.6-3.2-1.9-4.4
	s-2.8-1.8-4.6-1.8c-1.8,0-3.3,0.6-4.6,1.8c-1.3,1.2-1.9,2.7-1.9,4.4v0.9l-1.4-1.4c0.1-2.1,0.9-3.8,2.4-5.2C19.8,6.7,21.6,6,23.8,6
	s4.1,0.7,5.6,2.2c1.6,1.5,2.4,3.3,2.4,5.5v4.4h3.5c0.8,0,1.4,0.3,2,0.8c0.5,0.5,0.8,1.2,0.8,2C38,20.9,38,35.7,38,35.7z M42.1,47.7
	l-5.8-5.8c-0.3,0-0.6,0.1-0.8,0.1c-0.3,0-0.6,0-1,0H12.8c-0.8,0-1.4-0.3-2-0.8c-0.5-0.5-0.8-1.2-0.8-2V20.9c0-0.7,0.2-1.4,0.7-1.9
	s1.1-0.8,1.9-0.8L0.4,6l1.2-1.1l41.6,41.7C43.2,46.6,42.1,47.7,42.1,47.7z M34.8,40.5l-8.7-8.7c-0.3,0.3-0.6,0.5-1,0.6
	s-0.7,0.2-1.1,0.2c-0.8,0-1.5-0.3-2-0.8s-0.8-1.2-0.8-2c0-0.4,0.1-0.8,0.2-1.2c0.1-0.4,0.3-0.7,0.6-0.9l-8-8h-1.3
	c-0.4,0-0.7,0.1-0.9,0.3c-0.2,0.2-0.3,0.5-0.3,0.9v18.3c0,0.4,0.1,0.7,0.3,0.9s0.5,0.3,0.9,0.3C12.8,40.5,34.8,40.5,34.8,40.5z"/>
</svg>
