<?xml version="1.0" encoding="utf-8"?>
<!-- Generator: Adobe Illustrator 26.3.1, SVG Export Plug-In . SVG Version: 6.00 Build 0)  -->
<svg version="1.1" id="Слой_1" xmlns="http://www.w3.org/2000/svg" xmlns:xlink="http://www.w3.org/1999/xlink" x="0px" y="0px"
	 viewBox="0 0 48 48" style="enable-background:new 0 0 48 48;" xml:space="preserve">
<path d="M42.5,44.8l-7.1-7.2v1.2c0,0.6-0.2,1.1-0.6,1.6c-0.4,0.4-0.9,0.7-1.5,0.7H9c-0.6,0-1.1-0.2-1.5-0.6
	c-0.4-0.4-0.6-0.9-0.6-1.5V21.5c0-0.6,0.2-1.1,0.6-1.5s0.9-0.6,1.5-0.6h4.6l1.7-1.9L3.8,6l1.1-1.1l38.8,38.8
	C43.6,43.6,42.5,44.8,42.5,44.8z M9.4,39.5h23.5c0.3,0,0.5-0.1,0.7-0.3s0.3-0.4,0.3-0.7V36l-6.7-6.7c0,0.1,0,0.2,0,0.3V30
	c0,1.7-0.5,3.2-1.7,4.4s-2.6,1.8-4.3,1.8c-1.7,0-3.1-0.6-4.3-1.7c-1.2-1.2-1.7-2.6-1.7-4.3c0-1.7,0.6-3.1,1.8-4.3
	c1.2-1.2,2.7-1.8,4.4-1.7h0.3c0.1,0,0.2,0,0.3,0L18.7,21H9.4c-0.3,0-0.5,0.1-0.7,0.3c-0.2,0.2-0.3,0.4-0.3,0.7v16.7
	c0,0.3,0.1,0.5,0.3,0.7C8.9,39.4,9.1,39.5,9.4,39.5z M21.1,34.6c1.3,0,2.3-0.4,3.2-1.3c0.9-0.9,1.3-1.9,1.3-3.2
	c0-1.3-0.4-2.3-1.3-3.2c-0.9-0.9-1.9-1.3-3.2-1.3c-1.2,0-2.3,0.4-3.2,1.3c-0.9,0.9-1.3,1.9-1.3,3.2c0,1.2,0.4,2.3,1.3,3.2
	C18.9,34.2,19.9,34.6,21.1,34.6z M35.4,30.4l-1.5-1.5v-7c0-0.3-0.1-0.5-0.3-0.7C33.4,21,33.2,21,32.9,21h-7l-4.3-4.3h4.6l2.5,2.8
	h4.6c0.6,0,1.1,0.2,1.5,0.6s0.6,0.9,0.6,1.5C35.4,21.5,35.4,30.4,35.4,30.4z M37.4,18.7v-6.4h-1V6.2H41l-2.1,4.7h2.4L37.4,18.7z"/>
</svg>
