<?xml version="1.0" encoding="utf-8"?>
<!-- Generator: Adobe Illustrator 26.3.1, SVG Export Plug-In . SVG Version: 6.00 Build 0)  -->
<svg version="1.1" id="Слой_1" xmlns="http://www.w3.org/2000/svg" xmlns:xlink="http://www.w3.org/1999/xlink" x="0px" y="0px"
	 viewBox="0 0 48 48" style="enable-background:new 0 0 48 48;" xml:space="preserve">
<path d="M40.6,37.6l-1.4-1.4l2.2-21.5H23l-0.2-1.5h9.3V4.8h1.5v8.5h9.5C43.1,13.2,40.6,37.6,40.6,37.6z M40.5,44.8L1.7,6l1.1-1.1
	l38.8,38.8C41.6,43.6,40.5,44.8,40.5,44.8z M4.9,37.9v-1.5h26.6v1.5H4.9z M5.9,44c-0.3,0-0.5-0.1-0.7-0.3C5,43.5,4.9,43.3,4.9,43
	v-0.5h26.6V43c0,0.3-0.1,0.5-0.3,0.7C31,43.9,30.8,44,30.5,44H5.9z M22,24v1.5c-0.6-0.1-1.2-0.2-1.8-0.2c-0.6,0-1.3-0.1-2-0.1
	c-3.5,0-6.1,0.5-8,1.5s-3,2.3-3.5,3.7h21.8l1.5,1.5H4.9c0-2,1-3.8,3.1-5.6s5.5-2.7,10.2-2.7c0.7,0,1.3,0,1.9,0.1
	C20.8,23.9,21.4,23.9,22,24z"/>
</svg>
