<?xml version="1.0" encoding="utf-8"?>
<!-- Generator: Adobe Illustrator 26.3.1, SVG Export Plug-In . SVG Version: 6.00 Build 0)  -->
<svg version="1.1" id="Слой_1" xmlns="http://www.w3.org/2000/svg" xmlns:xlink="http://www.w3.org/1999/xlink" x="0px" y="0px"
	 viewBox="0 0 48 48" style="enable-background:new 0 0 48 48;" xml:space="preserve">
<path d="M36.3,30.2l-1.5-1.5V15.5c0-0.4-0.1-0.7-0.3-0.9s-0.5-0.3-0.9-0.3H20.4l-1.1-1.1V8.8c0-0.7,0.3-1.4,0.8-1.9s1.2-0.8,2-0.8
	h3.8c0.7,0,1.4,0.3,1.9,0.8s0.8,1.2,0.8,1.9v4h4.9c0.7,0,1.4,0.3,1.9,0.8s0.8,1.2,0.8,1.9C36.3,15.5,36.3,30.2,36.3,30.2z
	 M28.7,18.3v4.2L27.1,21v-2.7H28.7z M20.9,12.8h6.2v-4c0-0.4-0.1-0.7-0.4-0.9c-0.2-0.2-0.5-0.3-0.9-0.3H22c-0.4,0-0.7,0.1-0.9,0.3
	c-0.2,0.2-0.3,0.5-0.3,0.9L20.9,12.8L20.9,12.8z M16,42c-0.4,0-0.8-0.2-1.1-0.5s-0.5-0.7-0.5-1.1V40c-0.7,0-1.4-0.3-1.9-0.8
	s-0.8-1.2-0.8-1.9V15.5c0-0.5,0.1-1,0.4-1.4c0.3-0.4,0.6-0.7,1.1-0.9l1.2,1.2H14c-0.2,0.1-0.4,0.2-0.5,0.4s-0.2,0.4-0.2,0.7v21.7
	c0,0.4,0.1,0.7,0.3,0.9s0.5,0.3,0.9,0.3h19.1c0.4,0,0.7-0.1,0.9-0.3s0.3-0.5,0.3-0.9v-2.5l1.5,1.5v0.9c0,0.7-0.3,1.4-0.8,1.9
	s-1.2,0.8-1.9,0.8v0.5c0,0.4-0.2,0.8-0.5,1.1C32.8,41.8,32.4,42,32,42c-0.4,0-0.8-0.2-1.1-0.5c-0.3-0.3-0.5-0.7-0.5-1.1V40H17.5v0.5
	c0,0.4-0.2,0.8-0.5,1.1C16.8,41.8,16.4,42,16,42z M19.4,34.5v-14l1.5,1.5v12.4L19.4,34.5L19.4,34.5z M27.1,28.2l1.5,1.5v4.7h-1.5
	V28.2z M42.5,44.8L3.8,6l1.1-1.1l38.8,38.8L42.5,44.8z"/>
</svg>
