<?xml version="1.0" encoding="utf-8"?>
<!-- Generator: Adobe Illustrator 26.3.1, SVG Export Plug-In . SVG Version: 6.00 Build 0)  -->
<svg version="1.1" id="Слой_1" xmlns="http://www.w3.org/2000/svg" xmlns:xlink="http://www.w3.org/1999/xlink" x="0px" y="0px"
	 viewBox="0 0 48 48" style="enable-background:new 0 0 48 48;" xml:space="preserve">
<path d="M42,37l-1.5-1.5V14.9c0-0.3-0.1-0.6-0.3-0.9c-0.2-0.2-0.5-0.4-0.9-0.4h-7.1l-3.7-4.2h-8.9l-2.3,2.7L16.2,11l2.6-3h10.3
	l3.7,4.2h6.4c0.8,0,1.4,0.3,2,0.8c0.5,0.5,0.8,1.2,0.8,2C42,14.9,42,37,42,37z M8.8,40c-0.8,0-1.4-0.3-2-0.8C6.3,38.7,6,38,6,37.2
	V14.9c0-0.8,0.3-1.4,0.8-2c0.5-0.5,1.2-0.8,2-0.8h3.4l1.5,1.5H8.8c-0.4,0-0.7,0.1-0.9,0.4c-0.2,0.2-0.3,0.5-0.3,0.9v22.3
	c0,0.4,0.1,0.7,0.3,0.9s0.5,0.3,0.9,0.3h29.7L40,40H8.8z M30,30c-0.6,1-1.5,1.8-2.5,2.4c-1,0.6-2.2,0.9-3.5,0.9
	c-2.1,0-3.8-0.7-5.2-2.1c-1.4-1.4-2.1-3.1-2.1-5.1c0-1.3,0.3-2.5,0.9-3.5c0.6-1.1,1.4-1.9,2.3-2.6l1.1,1.1c-0.8,0.5-1.5,1.2-2,2
	c-0.5,0.9-0.8,1.8-0.8,2.9c0,1.6,0.5,3,1.6,4.1s2.4,1.6,4.1,1.6c1.1,0,2-0.3,2.9-0.8s1.6-1.2,2-2C29,29,30,30,30,30z M29.1,20.9
	c0.6,0.6,1.1,1.3,1.5,2.1c0.4,0.8,0.6,1.6,0.6,2.6c0,0.1,0,0.2,0,0.3c0,0.1,0,0.2-0.1,0.3L23.9,19c0.1,0,0.2,0,0.3-0.1
	c0.1,0,0.2,0,0.3,0c0.9,0.1,1.8,0.3,2.5,0.6C27.8,19.8,28.5,20.3,29.1,20.9z M42.5,44.8L3.8,6l1.1-1.1l38.8,38.8
	C43.6,43.6,42.5,44.8,42.5,44.8z"/>
</svg>
