<?xml version="1.0" encoding="utf-8"?>
<!-- Generator: Adobe Illustrator 26.3.1, SVG Export Plug-In . SVG Version: 6.00 Build 0)  -->
<svg version="1.1" id="Слой_1" xmlns="http://www.w3.org/2000/svg" xmlns:xlink="http://www.w3.org/1999/xlink" x="0px" y="0px"
	 viewBox="0 0 48 48" style="enable-background:new 0 0 48 48;" xml:space="preserve">
<path d="M13.9,40.7c-0.7,0-1.2-0.2-1.7-0.7s-0.7-1-0.7-1.7s0.2-1.2,0.7-1.7s1-0.7,1.7-0.7s1.2,0.2,1.7,0.7c0.5,0.5,0.7,1,0.7,1.7
	s-0.2,1.2-0.7,1.7S14.6,40.7,13.9,40.7z M31.4,26.4l-1.5-1.5v-9.6l-4.4,5.2l-1.1-1.1l7.1-8.3c0.5-0.6,1.2-1.1,1.9-1.5
	C34.1,9.2,34.8,9,35.6,9c1.2,0,2.2,0.4,3,1.2s1.2,1.8,1.2,3V14h-1.5v-0.8c0-0.7-0.3-1.3-0.8-1.9c-0.5-0.5-1.1-0.8-1.9-0.8
	c-0.6,0-1.1,0.1-1.6,0.4c-0.5,0.2-0.9,0.6-1.4,1.2l-1.2,1.4C31.4,13.5,31.4,26.4,31.4,26.4z M29.9,29.9L31,31
	c-0.2,0.8-0.5,1.4-1,1.8c-0.5,0.4-1.1,0.6-1.9,0.6H14.5c-0.4,0-0.7-0.2-0.9-0.6c-0.2-0.4-0.1-0.7,0.1-1.1l7.3-8.5L3.4,5.6l1.1-1.1
	L44,44l-1.1,1.1L22.2,24.4l-6.4,7.5H28c0.6,0,1-0.2,1.3-0.5C29.6,31.1,29.8,30.6,29.9,29.9z M29.2,40.7c-0.7,0-1.2-0.2-1.7-0.7
	s-0.7-1-0.7-1.7s0.2-1.2,0.7-1.7s1-0.7,1.7-0.7s1.2,0.2,1.7,0.7s0.7,1,0.7,1.7s-0.2,1.2-0.7,1.7C30.4,40.5,29.9,40.7,29.2,40.7z
	 M22.4,17.4l-1.1-1.1l4.4-5.1c-0.7-0.2-1.5-0.4-2.2-0.5s-1.5-0.2-2.4-0.2c-0.8,0-1.6,0.1-2.4,0.2c-0.8,0.1-1.6,0.3-2.4,0.6l-1.2-1.2
	C16,9.7,17,9.4,18,9.2s2-0.3,3-0.3c1.3,0,2.5,0.1,3.7,0.4c1.2,0.3,2.4,0.6,3.5,1.1L22.4,17.4z"/>
</svg>
