<?xml version="1.0" encoding="utf-8"?>
<!-- Generator: Adobe Illustrator 26.3.1, SVG Export Plug-In . SVG Version: 6.00 Build 0)  -->
<svg version="1.1" id="Слой_1" xmlns="http://www.w3.org/2000/svg" xmlns:xlink="http://www.w3.org/1999/xlink" x="0px" y="0px"
	 viewBox="0 0 48 48" style="enable-background:new 0 0 48 48;" xml:space="preserve">
<path d="M38,33.7l-1.5-1.5V8.8c0-0.3-0.1-0.6-0.4-0.8c-0.3-0.3-0.5-0.4-0.8-0.4H21.5l-4.9,4.9l-1.1-1.1L20.8,6h14.4
	c0.8,0,1.4,0.3,2,0.8C37.7,7.3,38,8,38,8.8V33.7z M41.5,44.4L13.2,16.1l-1.7,1.7v21.5c0,0.3,0.1,0.6,0.4,0.8s0.5,0.4,0.8,0.4h22.5
	c0.3,0,0.6-0.1,0.8-0.4c0.3-0.3,0.4-0.5,0.4-0.8v-2l1.5,1.5v0.5c0,0.8-0.3,1.4-0.8,2c-0.5,0.5-1.2,0.8-2,0.8H12.8
	c-0.8,0-1.4-0.3-2-0.8c-0.5-0.5-0.8-1.2-0.8-2V16.9l2-2L4.3,7.2l1.1-1.1l37.1,37.1C42.6,43.3,41.5,44.4,41.5,44.4z"/>
</svg>
