<?xml version="1.0" encoding="utf-8"?>
<!-- Generator: Adobe Illustrator 26.3.1, SVG Export Plug-In . SVG Version: 6.00 Build 0)  -->
<svg version="1.1" id="Слой_1" xmlns="http://www.w3.org/2000/svg" xmlns:xlink="http://www.w3.org/1999/xlink" x="0px" y="0px"
	 viewBox="0 0 48 48" style="enable-background:new 0 0 48 48;" xml:space="preserve">
<path d="M42.5,44.8L32.3,34.5h2.2v4.8c0,0.2-0.1,0.4-0.3,0.5S33.8,40,33.6,40h0.1c-0.3,0-0.5-0.1-0.6-0.2c-0.2-0.1-0.3-0.3-0.3-0.5
	v-3.4H15.1v3.4c0,0.2-0.1,0.4-0.3,0.5S14.4,40,14.2,40l0,0c-0.2,0-0.4-0.1-0.6-0.2c-0.2-0.1-0.3-0.3-0.3-0.5v-3.9
	c-0.8-0.2-1.6-0.8-2.3-1.8s-1.1-2.2-1.1-3.4v-18L3.8,6l1.1-1.1l38.8,38.8C43.6,43.6,42.5,44.8,42.5,44.8z M15.6,34.4h16.6L22,24.2
	H11.5v6c0,1.1,0.4,2.1,1.2,2.9C13.5,34,14.5,34.4,15.6,34.4z M37.5,32.5l-1-1.2v-7.1h-7.3l-1.5-1.5h8.8V12.5h-19L15.9,11h20.7
	c-0.5-1.2-1.8-2-3.9-2.6s-5-0.8-8.8-0.8c-2.5,0-4.6,0.1-6.3,0.3c-1.7,0.2-3,0.5-4,0.9l-1.1-1c1.1-0.6,2.7-1,4.5-1.3
	C19.1,6.1,21.3,6,24,6c4.9,0,8.5,0.4,10.7,1.3S38,9.6,38,11.6v18.6c0,0.4,0,0.8-0.1,1.2C37.8,31.8,37.6,32.1,37.5,32.5z M16.7,31.4
	c0.6,0,1.1-0.2,1.5-0.6s0.6-0.9,0.6-1.5s-0.2-1.1-0.6-1.5s-0.9-0.6-1.5-0.6s-1.1,0.2-1.5,0.6s-0.6,0.9-0.6,1.5s0.2,1.1,0.6,1.5
	C15.6,31.2,16.1,31.4,16.7,31.4z M11.5,22.7h8.9l-8.9-8.9C11.5,13.8,11.5,22.7,11.5,22.7z M15.9,11h20.7H15.9z"/>
</svg>
