<?xml version="1.0" encoding="utf-8"?>
<!-- Generator: Adobe Illustrator 26.3.1, SVG Export Plug-In . SVG Version: 6.00 Build 0)  -->
<svg version="1.1" id="Слой_1" xmlns="http://www.w3.org/2000/svg" xmlns:xlink="http://www.w3.org/1999/xlink" x="0px" y="0px"
	 viewBox="0 0 48 48" style="enable-background:new 0 0 48 48;" xml:space="preserve">
<path d="M26,34.8c1.3,0,2.5-0.5,3.4-1.4s1.4-2.1,1.4-3.4h-1.5c0,0.9-0.3,1.6-0.9,2.3c-0.6,0.6-1.4,1-2.3,1c-0.7,0-1.3-0.2-1.9-0.6
	c-0.6-0.4-1-0.9-1.2-1.6c-0.2-0.5-0.4-1-0.6-1.5s-0.5-0.9-0.9-1.3l-2.7-2.7c-0.6-0.6-1.1-1.3-1.4-2.1c-0.3-0.8-0.5-1.6-0.5-2.4
	c0-1.7,0.6-3.2,1.8-4.4c1.2-1.2,2.7-1.8,4.4-1.8c1.5,0,2.9,0.5,4,1.4c1.2,1,1.9,2.2,2.1,3.7h1.5c-0.2-1.9-1.1-3.5-2.6-4.8
	s-3.2-1.9-5.2-1.9c-2.2,0-4,0.7-5.5,2.2s-2.3,3.3-2.3,5.5c0,1.1,0.2,2.1,0.6,3c0.4,1,1,1.8,1.8,2.6l2.7,2.7c0.3,0.3,0.5,0.6,0.7,1
	s0.3,0.7,0.5,1.1c0.3,1,0.9,1.8,1.7,2.4C24.1,34.5,25,34.8,26,34.8z M27,26.8c0.5,0,0.9-0.2,1.3-0.5c0.3-0.4,0.5-0.8,0.5-1.2
	c0-0.5-0.2-0.9-0.5-1.3c-0.3-0.3-0.8-0.5-1.3-0.5s-0.9,0.2-1.2,0.5c-0.4,0.3-0.5,0.8-0.5,1.3s0.2,0.9,0.5,1.2
	C26.1,26.6,26.5,26.8,27,26.8z M24,42c-2.5,0-4.8-0.5-7-1.4s-4.1-2.2-5.7-3.9c-1.6-1.6-2.9-3.5-3.9-5.7C6.5,28.8,6,26.5,6,24
	s0.5-4.8,1.4-7s2.2-4.1,3.9-5.7c1.6-1.6,3.5-2.9,5.7-3.8c2.2-1,4.5-1.5,7-1.5s4.8,0.5,7,1.4s4.1,2.2,5.7,3.8
	c1.6,1.6,2.9,3.5,3.8,5.7c0.9,2.2,1.4,4.5,1.4,7s-0.5,4.8-1.4,7s-2.2,4.1-3.8,5.7s-3.5,2.9-5.7,3.9S26.5,42,24,42z M24,40.5
	c4.6,0,8.5-1.6,11.7-4.8s4.8-7.1,4.8-11.7s-1.6-8.5-4.8-11.7S28.6,7.5,24,7.5s-8.5,1.6-11.7,4.8S7.5,19.4,7.5,24s1.6,8.5,4.8,11.7
	S19.4,40.5,24,40.5z"/>
</svg>
