<?xml version="1.0" encoding="utf-8"?>
<!-- Generator: Adobe Illustrator 26.3.1, SVG Export Plug-In . SVG Version: 6.00 Build 0)  -->
<svg version="1.1" id="Слой_1" xmlns="http://www.w3.org/2000/svg" xmlns:xlink="http://www.w3.org/1999/xlink" x="0px" y="0px"
	 viewBox="0 0 48 48" style="enable-background:new 0 0 48 48;" xml:space="preserve">
<path d="M40.2,42.4l-9.6-9.6h-6.2c-0.8,0-1.5-0.3-2.1-0.8c-0.6-0.6-0.9-1.2-0.9-2v-6.3L5.6,7.8l1.1-1.1l34.5,34.5
	C41.3,41.3,40.2,42.4,40.2,42.4z M20.1,43.1c-2.5,0-4.6-0.9-6.4-2.6s-2.6-3.9-2.6-6.4c0-2.3,0.8-4.3,2.4-6s3.7-2.7,6.1-2.9v1.5
	c-2.2,0.2-3.9,1-5.1,2.4c-1.3,1.5-1.9,3.1-1.9,4.9c0,2.1,0.7,3.8,2.2,5.3c1.4,1.4,3.2,2.2,5.3,2.2c1.8,0,3.5-0.6,4.9-1.8
	s2.3-2.9,2.4-5.1H29c-0.2,2.5-1.2,4.5-2.9,6.1C24.4,42.3,22.4,43.1,20.1,43.1z M24.3,12.2c-0.9,0-1.7-0.3-2.3-0.9
	c-0.7-0.6-1-1.4-1-2.3s0.3-1.7,0.9-2.3s1.4-0.9,2.3-0.9s1.7,0.3,2.3,0.9c0.6,0.6,0.9,1.4,0.9,2.3c0,0.9-0.3,1.7-0.9,2.3
	C25.9,11.9,25.2,12.2,24.3,12.2z M36.9,24.5c-1.9-0.2-3.6-0.7-5.1-1.6c-1.5-0.8-2.9-2-4.3-3.3l-0.8-0.8v3l-5.1-5.1
	c0.2-0.5,0.5-0.9,1-1.2s1-0.4,1.6-0.4c0.5,0,1,0.1,1.5,0.4c0.4,0.3,0.9,0.7,1.5,1.3l1.5,1.6c1.1,1.2,2.4,2.2,3.8,3.1
	c1.5,0.9,3,1.4,4.5,1.5C36.9,22.9,36.9,24.5,36.9,24.5z"/>
</svg>
