<?xml version="1.0" encoding="utf-8"?>
<!-- Generator: Adobe Illustrator 26.3.1, SVG Export Plug-In . SVG Version: 6.00 Build 0)  -->
<svg version="1.1" id="Слой_1" xmlns="http://www.w3.org/2000/svg" xmlns:xlink="http://www.w3.org/1999/xlink" x="0px" y="0px"
	 viewBox="0 0 48 48" style="enable-background:new 0 0 48 48;" xml:space="preserve">
<path d="M16,39.2V18.8c0-0.8,0.3-1.4,0.8-2c0.5-0.5,1.2-0.8,2-0.8h20.5c0.7,0,1.4,0.3,1.9,0.8S42,18,42,18.7v14.4L33.2,42H18.8
	c-0.7,0-1.4-0.3-1.9-0.8S16,40,16,39.2z M6.1,12.8c-0.1-0.8,0-1.4,0.5-2.1c0.4-0.6,1-1,1.8-1.1l20.2-3.5c0.8-0.1,1.4,0,2.1,0.4
	c0.6,0.4,1,1,1.1,1.8l0.6,3.4h-1.5l-0.6-3.3c-0.1-0.3-0.2-0.5-0.5-0.7S29.3,7.5,29,7.5L8.6,11.1c-0.3,0.1-0.6,0.2-0.8,0.5
	s-0.3,0.6-0.2,0.9l4.1,23.2V35c-0.5-0.1-1-0.3-1.3-0.7C10,34,9.7,33.6,9.6,33L6.1,12.8z M17.5,18.8v20.5c0,0.4,0.1,0.7,0.3,0.9
	c0.2,0.2,0.5,0.3,0.9,0.3h13.4v-8.3h8.3V18.8c0-0.4-0.1-0.7-0.3-0.9c-0.2-0.2-0.5-0.3-0.9-0.3H18.8c-0.4,0-0.7,0.1-0.9,0.3
	C17.7,18.1,17.5,18.4,17.5,18.8z"/>
</svg>
