<?xml version="1.0" encoding="utf-8"?>
<!-- Generator: Adobe Illustrator 26.3.1, SVG Export Plug-In . SVG Version: 6.00 Build 0)  -->
<svg version="1.1" id="Слой_1" xmlns="http://www.w3.org/2000/svg" xmlns:xlink="http://www.w3.org/1999/xlink" x="0px" y="0px"
	 viewBox="0 0 48 48" style="enable-background:new 0 0 48 48;" xml:space="preserve">
<path d="M12.8,42c-0.8,0-1.4-0.3-1.9-0.8s-0.8-1.2-0.8-2V8.8c0-0.8,0.3-1.4,0.8-1.9C11.3,6.3,12,6,12.8,6h16.7l8.5,8.6v24.7
	c0,0.8-0.3,1.4-0.8,2S36,42,35.2,42H12.8z M28.7,15.2V7.6h-16c-0.3,0-0.6,0.1-0.8,0.4c-0.2,0.2-0.4,0.5-0.4,0.8v30.5
	c0,0.3,0.1,0.6,0.4,0.8s0.5,0.4,0.8,0.4h22.5c0.3,0,0.6-0.1,0.8-0.4s0.4-0.5,0.4-0.8v-24L28.7,15.2L28.7,15.2z M11.6,7.6v7.7V7.6
	v32.9V7.6z"/>
</svg>
