<?xml version="1.0" encoding="utf-8"?>
<!-- Generator: Adobe Illustrator 26.3.1, SVG Export Plug-In . SVG Version: 6.00 Build 0)  -->
<svg version="1.1" id="Слой_1" xmlns="http://www.w3.org/2000/svg" xmlns:xlink="http://www.w3.org/1999/xlink" x="0px" y="0px"
	 viewBox="0 0 48 48" style="enable-background:new 0 0 48 48;" xml:space="preserve">
<path d="M23.2,35.1h1.5v-6.2H31v-1.5h-6.2v-6.2h-1.5v6.2H17v1.5h6.2V35.1z M12.8,42c-0.8,0-1.4-0.3-2-0.8c-0.5-0.5-0.8-1.2-0.8-2
	V8.8c0-0.8,0.3-1.4,0.8-2C11.3,6.3,12,6,12.8,6h16.7l8.5,8.5v24.7c0,0.8-0.3,1.4-0.8,2c-0.5,0.5-1.2,0.8-2,0.8H12.8z M28.7,15.2V7.5
	H12.8c-0.3,0-0.6,0.1-0.8,0.4c-0.3,0.3-0.4,0.5-0.4,0.8v30.5c0,0.3,0.1,0.6,0.4,0.8s0.5,0.4,0.8,0.4h22.5c0.3,0,0.6-0.1,0.8-0.4
	c0.3-0.3,0.4-0.5,0.4-0.8v-24C36.5,15.2,28.7,15.2,28.7,15.2z M11.5,7.5v7.7V7.5v32.9V7.5z"/>
</svg>
