<?xml version="1.0" encoding="utf-8"?>
<!-- Generator: Adobe Illustrator 26.3.1, SVG Export Plug-In . SVG Version: 6.00 Build 0)  -->
<svg version="1.1" id="Слой_1" xmlns="http://www.w3.org/2000/svg" xmlns:xlink="http://www.w3.org/1999/xlink" x="0px" y="0px"
	 viewBox="0 0 48 48" style="enable-background:new 0 0 48 48;" xml:space="preserve">
<path d="M24,42.8c-0.9,0-1.7-0.3-2.3-0.9c-0.6-0.6-0.9-1.4-0.9-2.3h6.5c0,0.9-0.3,1.7-1,2.3C25.6,42.5,24.9,42.8,24,42.8z
	 M35.8,26.8v-6.2h-6.2V19h6.2v-6.2h1.5V19h6.2v1.5h-6.2v6.2C37.3,26.8,35.8,26.8,35.8,26.8z M10,37.5V36h3.2V19.6
	c0-2.6,0.8-4.9,2.5-7c1.6-2,3.7-3.3,6.3-3.7V8c0-0.6,0.2-1,0.6-1.4S23.4,6,24,6s1,0.2,1.4,0.6S26,7.4,26,8v0.9
	c0.7,0.1,1.4,0.3,2.1,0.6s1.3,0.6,1.9,1c-0.2,0.2-0.5,0.4-0.7,0.5c-0.2,0.2-0.4,0.3-0.7,0.5c-0.7-0.4-1.4-0.7-2.2-0.9
	c-0.8-0.2-1.6-0.3-2.5-0.3c-2.6,0-4.7,0.9-6.5,2.7s-2.7,4-2.7,6.5V36h18.5v-5.3c0.3,0.1,0.5,0.1,0.8,0.2c0.2,0.1,0.5,0.1,0.8,0.2V36
	H38v1.5H10z"/>
</svg>
