<?xml version="1.0" encoding="utf-8"?>
<!-- Generator: Adobe Illustrator 26.3.1, SVG Export Plug-In . SVG Version: 6.00 Build 0)  -->
<svg version="1.1" id="Слой_1" xmlns="http://www.w3.org/2000/svg" xmlns:xlink="http://www.w3.org/1999/xlink" x="0px" y="0px"
	 viewBox="0 0 48 48" style="enable-background:new 0 0 48 48;" xml:space="preserve">
<path d="M10,37.5V36h3.2V19.6c0-0.8,0.1-1.6,0.2-2.3c0.2-0.8,0.4-1.5,0.8-2.2l1.2,1.2c-0.2,0.6-0.4,1.1-0.5,1.7s-0.2,1.1-0.2,1.7V36
	H33L5.8,8.8l1.1-1.1l34.3,34.4l-1.1,1.1l-5.6-5.6C34.5,37.5,10,37.5,10,37.5z M34.8,30.5L33.3,29v-9.3c0-2.6-0.9-4.7-2.7-6.5
	s-4-2.7-6.5-2.7c-1.3,0-2.5,0.2-3.6,0.7c-1.2,0.5-2.2,1.1-3,2l-1.1-1.1c0.8-0.8,1.7-1.4,2.6-1.9c1-0.5,2-0.9,3.1-1.1V8
	c0-0.6,0.2-1,0.6-1.4C23,6.2,23.4,6,24,6s1,0.2,1.4,0.6S26,7.4,26,8v0.9c2.6,0.4,4.7,1.6,6.3,3.7c1.6,2,2.4,4.4,2.4,7
	C34.8,19.6,34.8,30.5,34.8,30.5z M24,42.8c-0.9,0-1.7-0.3-2.3-0.9c-0.6-0.6-0.9-1.4-0.9-2.3h6.5c0,0.9-0.3,1.7-1,2.3
	C25.6,42.5,24.9,42.8,24,42.8z"/>
</svg>
