<?xml version="1.0" encoding="utf-8"?>
<!-- Generator: Adobe Illustrator 26.3.1, SVG Export Plug-In . SVG Version: 6.00 Build 0)  -->
<svg version="1.1" id="Слой_1" xmlns="http://www.w3.org/2000/svg" xmlns:xlink="http://www.w3.org/1999/xlink" x="0px" y="0px"
	 viewBox="0 0 48 48" style="enable-background:new 0 0 48 48;" xml:space="preserve">
<path d="M23.2,25.9h1.5V16h-1.5V25.9z M24,31.2c0.3,0,0.6-0.1,0.8-0.3c0.2-0.2,0.3-0.5,0.3-0.8s-0.1-0.6-0.3-0.8
	C24.6,29.1,24.3,29,24,29s-0.6,0.1-0.8,0.3c-0.2,0.2-0.3,0.5-0.3,0.8s0.1,0.6,0.3,0.8S23.7,31.2,24,31.2z M10,37.5V36h3.2V19.6
	c0-2.6,0.8-4.9,2.5-7c1.6-2,3.7-3.3,6.3-3.7V8c0-0.6,0.2-1,0.6-1.4S23.4,6,24,6s1,0.2,1.4,0.6S26,7.4,26,8v0.9
	c2.6,0.4,4.7,1.7,6.3,3.7s2.5,4.3,2.5,7V36H38v1.5H10z M24,42.8c-0.9,0-1.7-0.3-2.3-0.9c-0.6-0.6-0.9-1.4-0.9-2.3h6.5
	c0,0.9-0.3,1.7-1,2.3C25.6,42.5,24.9,42.8,24,42.8z M14.8,36h18.5V19.6c0-2.6-0.9-4.7-2.7-6.5s-4-2.7-6.5-2.7s-4.7,0.9-6.5,2.7
	s-2.7,4-2.7,6.5C14.8,19.6,14.8,36,14.8,36z"/>
</svg>
