<?xml version="1.0" encoding="utf-8"?>
<!-- Generator: Adobe Illustrator 26.3.1, SVG Export Plug-In . SVG Version: 6.00 Build 0)  -->
<svg version="1.1" id="Слой_1" xmlns="http://www.w3.org/2000/svg" xmlns:xlink="http://www.w3.org/1999/xlink" x="0px" y="0px"
	 viewBox="0 0 48 48" style="enable-background:new 0 0 48 48;" xml:space="preserve">
<path d="M24,42.8c-0.9,0-1.7-0.3-2.3-0.9c-0.6-0.6-0.9-1.4-0.9-2.3h6.5c0,0.9-0.3,1.7-1,2.3C25.6,42.5,24.9,42.8,24,42.8z M10,37.5
	V36h3.2V19.6c0-2.6,0.8-4.9,2.5-7c1.6-2,3.7-3.3,6.3-3.7V8c0-0.6,0.2-1,0.6-1.4S23.4,6,24,6c0.5,0,1,0.2,1.4,0.5S26,7.3,26,7.8V7.6
	c-0.3,0.4-0.6,0.8-0.9,1.3c-0.2,0.5-0.5,0.9-0.6,1.5c-0.1,0-0.2,0-0.2,0c-0.1,0-0.2,0-0.3,0c-2.6,0-4.7,0.9-6.5,2.7s-2.7,4-2.7,6.5
	V36h18.5V23.2c0.3,0,0.5-0.1,0.8-0.1s0.5,0,0.8-0.1v13H38v1.5H10z M33.5,18.3c-1.3,0-2.5-0.5-3.4-1.4s-1.4-2.1-1.4-3.4
	s0.5-2.5,1.4-3.4s2.1-1.4,3.4-1.4s2.5,0.5,3.4,1.4s1.4,2.1,1.4,3.4s-0.5,2.5-1.4,3.4C35.9,17.9,34.8,18.3,33.5,18.3z"/>
</svg>
