<?xml version="1.0" encoding="utf-8"?>
<!-- Generator: Adobe Illustrator 26.3.1, SVG Export Plug-In . SVG Version: 6.00 Build 0)  -->
<svg version="1.1" id="Слой_1" xmlns="http://www.w3.org/2000/svg" xmlns:xlink="http://www.w3.org/1999/xlink" x="0px" y="0px"
	 viewBox="0 0 48 48" style="enable-background:new 0 0 48 48;" xml:space="preserve">
<path d="M14.3,38.2l2-8H9l0.4-1.5h7.2l2.4-9.3h-7.2l0.4-1.5h7.2l2-8h1.4l-2,8h9.5l2-8h1.4l-2,8H39l-0.4,1.5h-7.2l-2.3,9.3h7.2
	l-0.4,1.5h-7.2l-2,8h-1.5l2-8h-9.5l-2,8C15.7,38.2,14.3,38.2,14.3,38.2z M18.1,28.6h9.5l2.3-9.3h-9.5C20.4,19.4,18.1,28.6,18.1,28.6
	z"/>
</svg>
