<?xml version="1.0" encoding="utf-8"?>
<!-- Generator: Adobe Illustrator 26.3.1, SVG Export Plug-In . SVG Version: 6.00 Build 0)  -->
<svg version="1.1" id="Слой_1" xmlns="http://www.w3.org/2000/svg" xmlns:xlink="http://www.w3.org/1999/xlink" x="0px" y="0px"
	 viewBox="0 0 48 48" style="enable-background:new 0 0 48 48;" xml:space="preserve">
<path d="M24,40c-3.3,0-6.2-1.2-8.5-3.5S12,31.3,12,28c0-2.8,0.9-5.4,2.6-7.5s4-3.6,6.8-4.2c-0.8-0.1-1.5-0.3-2.2-0.6
	s-1.4-0.7-1.9-1.3c-0.8-0.8-1.4-1.8-1.6-2.9c-0.3-1.1-0.4-2.2-0.4-3.4c0.5,0,1,0,1.4,0c0.5,0,0.9,0.2,1.3,0.5
	c1.7,0.3,3.2,1.2,4.3,2.6c1.1,1.4,1.7,3,1.7,4.9c0.4-1.2,1-2.3,1.7-3.3s1.5-2,2.4-2.9c0.1-0.1,0.3-0.2,0.6-0.2
	c0.2,0,0.4,0.1,0.5,0.2c0.1,0.1,0.2,0.3,0.2,0.5s-0.1,0.4-0.2,0.5c-0.8,0.8-1.4,1.6-2,2.4c-0.6,0.9-1.1,1.7-1.5,2.7
	c3,0.4,5.5,1.7,7.5,4s3,4.9,3,8c0,3.3-1.2,6.2-3.5,8.5S27.3,40,24,40z M24,38.5c2.9,0,5.4-1,7.4-3s3-4.5,3-7.4s-1-5.4-3-7.4
	s-4.5-3-7.4-3s-5.4,1-7.4,3s-3,4.5-3,7.4s1,5.4,3,7.4C18.6,37.4,21.1,38.5,24,38.5z"/>
</svg>
