<?xml version="1.0" encoding="utf-8"?>
<!-- Generator: Adobe Illustrator 26.3.1, SVG Export Plug-In . SVG Version: 6.00 Build 0)  -->
<svg version="1.1" id="Слой_1" xmlns="http://www.w3.org/2000/svg" xmlns:xlink="http://www.w3.org/1999/xlink" x="0px" y="0px"
	 viewBox="0 0 48 48" style="enable-background:new 0 0 48 48;" xml:space="preserve">
<path d="M12.7,29.5h2c0.6,0,1.2-0.2,1.7-0.7s0.7-1,0.7-1.7V21c0-0.6-0.2-1.2-0.7-1.7s-1-0.7-1.7-0.7h-2c-0.6,0-1.2,0.2-1.7,0.7
	s-0.7,1-0.7,1.7v6.1c0,0.6,0.2,1.2,0.7,1.7C11.5,29.2,12,29.5,12.7,29.5z M12.5,27.9c-0.2,0-0.3-0.1-0.4-0.2
	c-0.1-0.1-0.2-0.3-0.2-0.4v-6.6c0-0.2,0.1-0.3,0.2-0.4c0.1-0.1,0.3-0.2,0.4-0.2H15c0.2,0,0.3,0.1,0.4,0.2c0.1,0.1,0.2,0.3,0.2,0.4
	v6.6c0,0.2-0.1,0.3-0.2,0.4c-0.1,0.1-0.3,0.2-0.4,0.2C14.9,27.9,12.5,27.9,12.5,27.9z M20.6,29.5H25c0.6,0,1.2-0.2,1.7-0.7
	s0.7-1,0.7-1.7V21c0-0.6-0.2-1.2-0.7-1.7s-1-0.7-1.7-0.7h-4.4C20.6,18.5,20.6,29.5,20.6,29.5z M22.2,27.9v-7.8h3.1
	c0.2,0,0.3,0.1,0.4,0.2s0.2,0.3,0.2,0.4v6.6c0,0.2-0.1,0.3-0.2,0.4s-0.3,0.2-0.4,0.2S22.2,27.9,22.2,27.9z M30.9,29.5h4.8
	c0.5,0,1-0.2,1.4-0.6s0.6-0.9,0.6-1.4v-2.2c0-0.5-0.2-1-0.6-1.4c-0.4-0.4-0.9-0.6-1.4-0.6h-2.6c-0.2,0-0.3-0.1-0.4-0.2
	c-0.1-0.1-0.2-0.3-0.2-0.4v-2c0-0.2,0.1-0.3,0.2-0.4c0.1-0.1,0.3-0.2,0.4-0.2h4.6v-1.5h-4.8c-0.6,0-1,0.2-1.4,0.6s-0.6,0.9-0.6,1.4
	v2.2c0,0.6,0.2,1,0.6,1.4s0.9,0.6,1.4,0.6h2.6c0.2,0,0.3,0.1,0.4,0.2c0.1,0.1,0.2,0.3,0.2,0.4v1.9c0,0.2-0.1,0.3-0.2,0.4
	c-0.1,0.1-0.3,0.2-0.4,0.2h-4.6V29.5z M8.8,38c-0.8,0-1.4-0.3-2-0.8C6.3,36.7,6,36,6,35.2V12.8c0-0.8,0.3-1.4,0.8-2
	C7.3,10.3,8,10,8.8,10h30.5c0.8,0,1.4,0.3,2,0.8c0.5,0.5,0.8,1.2,0.8,2v22.5c0,0.8-0.3,1.4-0.8,2c-0.5,0.5-1.2,0.8-2,0.8L8.8,38
	L8.8,38z M8.8,36.5h30.5c0.3,0,0.6-0.1,0.8-0.4c0.3-0.3,0.4-0.5,0.4-0.8V12.8c0-0.3-0.1-0.6-0.4-0.8c-0.3-0.3-0.5-0.4-0.8-0.4H8.8
	c-0.3,0-0.6,0.1-0.8,0.4c-0.3,0.3-0.4,0.5-0.4,0.8v22.5c0,0.3,0.1,0.6,0.4,0.8C8.2,36.3,8.5,36.5,8.8,36.5z M7.5,36.5v-25V36.5z"/>
</svg>
