<?xml version="1.0" encoding="utf-8"?>
<!-- Generator: Adobe Illustrator 26.3.1, SVG Export Plug-In . SVG Version: 6.00 Build 0)  -->
<svg version="1.1" id="Слой_1" xmlns="http://www.w3.org/2000/svg" xmlns:xlink="http://www.w3.org/1999/xlink" x="0px" y="0px"
	 viewBox="0 0 48 48" style="enable-background:new 0 0 48 48;" xml:space="preserve">
<path d="M13.8,42.8c-0.8,0-1.4-0.3-2-0.8c-0.5-0.5-0.8-1.2-0.8-2V11.2h1.5V40c0,0.3,0.1,0.6,0.4,0.8c0.3,0.3,0.5,0.4,0.8,0.4H33v1.5
	L13.8,42.8L13.8,42.8z M18.8,37.7c-0.8,0-1.4-0.3-2-0.8c-0.5-0.5-0.8-1.2-0.8-2V7.5c0-0.8,0.3-1.4,0.8-2c0.5-0.5,1.2-0.8,2-0.8h15.4
	c0.8,0,1.4,0.3,2,0.8C36.7,6,37,6.7,37,7.5v27.4c0,0.8-0.3,1.4-0.8,2c-0.5,0.5-1.2,0.8-2,0.8C34.2,37.7,18.8,37.7,18.8,37.7z
	 M17.6,32.7v2.2c0,0.3,0.1,0.6,0.4,0.8c0.3,0.3,0.5,0.4,0.8,0.4h15.4c0.3,0,0.6-0.1,0.8-0.4c0.3-0.3,0.4-0.5,0.4-0.8v-2.2
	C35.5,32.7,17.6,32.7,17.6,32.7z M17.6,31.2h17.8V11.3H17.6V31.2z M21.3,25v-3.9c0-0.4,0.1-0.7,0.4-0.9c0.2-0.2,0.6-0.3,0.9-0.3h6.8
	l-2.3-2.3l1.1-1.1l4.2,4.2l-4.2,4.2l-1.1-1.1l2.3-2.3h-6.6V25C22.8,25,21.3,25,21.3,25z M17.6,9.8h17.8V7.5c0-0.3-0.1-0.6-0.4-0.8
	c-0.3-0.3-0.5-0.4-0.8-0.4H18.8c-0.3,0-0.6,0.1-0.8,0.4c-0.3,0.3-0.4,0.5-0.4,0.8V9.8z M17.6,9.8V6.3V9.8z M17.6,32.7v3.5V32.7z"/>
</svg>
