<?xml version="1.0" encoding="utf-8"?>
<!-- Generator: Adobe Illustrator 26.3.1, SVG Export Plug-In . SVG Version: 6.00 Build 0)  -->
<svg version="1.1" id="Слой_1" xmlns="http://www.w3.org/2000/svg" xmlns:xlink="http://www.w3.org/1999/xlink" x="0px" y="0px"
	 viewBox="0 0 48 48" style="enable-background:new 0 0 48 48;" xml:space="preserve">
<path d="M17,33v-1.5h14.5L33,33H17z M40.2,42.4l-4.6-4.6c-1.6,1.4-3.4,2.4-5.4,3.1c-2,0.7-4,1.1-6.2,1.1c-2.5,0-4.8-0.5-7-1.4
	s-4.1-2.2-5.7-3.8S8.4,33.2,7.4,31S6,26.5,6,24c0-2.1,0.4-4.2,1.1-6.2s1.8-3.8,3.1-5.4L5.6,7.8l1.1-1.1l34.5,34.5
	C41.3,41.3,40.2,42.4,40.2,42.4z M39,34l-1.1-1.1c0.8-1.3,1.5-2.8,1.9-4.3s0.7-3.1,0.7-4.6c0-4.6-1.6-8.5-4.8-11.7
	C32.5,9.1,28.6,7.5,24,7.5c-1.6,0-3.1,0.2-4.6,0.7c-1.5,0.4-2.9,1.1-4.3,1.9L14,9c1.5-1,3.1-1.7,4.8-2.2C20.5,6.3,22.2,6,24,6
	c2.5,0,4.8,0.5,7,1.4s4.1,2.2,5.7,3.8c1.6,1.6,2.9,3.5,3.8,5.7s1.4,4.5,1.4,7c0,1.8-0.3,3.5-0.8,5.2C40.7,30.9,40,32.5,39,34z
	 M34.5,36.7L11.3,13.5c-1.2,1.5-2.2,3.1-2.8,4.9s-1,3.7-1,5.6c0,4.6,1.6,8.5,4.8,11.7s7.1,4.8,11.7,4.8c1.9,0,3.8-0.3,5.6-1
	C31.4,38.9,33,37.9,34.5,36.7z M25.5,20.5l5.1-5.1l1.1,1.2l-5.1,5.1C26.7,21.7,25.5,20.5,25.5,20.5z"/>
</svg>
