<?xml version="1.0" encoding="utf-8"?>
<!-- Generator: Adobe Illustrator 26.3.1, SVG Export Plug-In . SVG Version: 6.00 Build 0)  -->
<svg version="1.1" id="Слой_1" xmlns="http://www.w3.org/2000/svg" xmlns:xlink="http://www.w3.org/1999/xlink" x="0px" y="0px"
	 viewBox="0 0 48 48" style="enable-background:new 0 0 48 48;" xml:space="preserve">
<path d="M9,40c-0.2,0-0.4-0.1-0.5-0.2s-0.2-0.3-0.2-0.6c0-0.2,0.1-0.4,0.2-0.5s0.3-0.2,0.5-0.2h2.4V24.8H8.7c-0.2,0-0.4-0.1-0.5-0.2
	C8,24.4,8,24.2,8,24s0.1-0.4,0.2-0.5c0.1-0.1,0.3-0.2,0.5-0.2h2.7V9.5H9c-0.2,0-0.4-0.1-0.5-0.2C8.3,9.2,8.2,9,8.2,8.8
	s0.1-0.4,0.2-0.5C8.6,8.1,8.7,8,9,8h30c0.2,0,0.4,0.1,0.5,0.2c0.1,0.1,0.2,0.3,0.2,0.5s-0.1,0.4-0.2,0.5c-0.1,0.1-0.3,0.2-0.5,0.2
	h-2.4v13.7h2.6c0.2,0,0.4,0.1,0.5,0.2s0.2,0.3,0.2,0.5s-0.1,0.4-0.2,0.5c-0.1,0.1-0.3,0.2-0.5,0.2h-2.6v13.7H39
	c0.2,0,0.4,0.1,0.5,0.2c0.1,0.1,0.2,0.3,0.2,0.5s-0.1,0.4-0.2,0.5C39.4,39.9,39.2,40,39,40H9z M12.9,38.5h22.2V24.8h-1
	c-0.2,0-0.4-0.1-0.5-0.2s-0.2-0.3-0.2-0.6c0-0.2,0.1-0.4,0.2-0.5c0.1-0.1,0.3-0.2,0.5-0.2h1V9.5H12.9v13.7h1c0.2,0,0.4,0.1,0.5,0.2
	s0.2,0.3,0.2,0.5s-0.1,0.4-0.2,0.5c-0.1,0.1-0.3,0.2-0.5,0.2h-1C12.9,24.8,12.9,38.5,12.9,38.5z M24,30.4c1.3,0,2.5-0.5,3.4-1.4
	s1.4-2,1.4-3.3c0-1-0.3-1.9-0.9-2.6S26,20.9,24,18.5c-2,2.3-3.3,3.8-3.9,4.6c-0.6,0.7-0.9,1.6-0.9,2.6c0,1.3,0.5,2.4,1.4,3.3
	C21.6,30,22.7,30.4,24,30.4z M12.9,38.5v-29V38.5z"/>
</svg>
