<?xml version="1.0" encoding="utf-8"?>
<!-- Generator: Adobe Illustrator 26.3.1, SVG Export Plug-In . SVG Version: 6.00 Build 0)  -->
<svg version="1.1" id="Слой_1" xmlns="http://www.w3.org/2000/svg" xmlns:xlink="http://www.w3.org/1999/xlink" x="0px" y="0px"
	 viewBox="0 0 48 48" style="enable-background:new 0 0 48 48;" xml:space="preserve">
<path d="M22.8,32.6v-1.1h2.3v1.1H22.8z M22.8,30.5V29c-0.5-0.3-1-0.8-1.4-1.3s-0.6-1.1-0.6-1.7c0-0.9,0.3-1.6,0.9-2.2
	s1.4-0.9,2.2-0.9c0.9,0,1.6,0.3,2.2,0.9S27,25.2,27,26c0,0.6-0.2,1.2-0.6,1.7S25.5,28.6,25,29v1.6C25.2,30.5,22.8,30.5,22.8,30.5z
	 M31.9,30.6l-1-0.9c0.3-0.6,0.5-1.2,0.7-1.8c0.1-0.6,0.2-1.2,0.2-1.9s-0.1-1.3-0.2-1.9c-0.2-0.6-0.4-1.2-0.7-1.8l1-0.9
	c0.4,0.7,0.7,1.4,0.9,2.2c0.2,0.8,0.3,1.6,0.3,2.4s-0.1,1.6-0.3,2.4C32.6,29.1,32.3,29.9,31.9,30.6z M16.1,30.6
	c-0.4-0.7-0.7-1.4-0.9-2.2c-0.2-0.8-0.3-1.6-0.3-2.4c0-2.6,0.9-4.7,2.7-6.5s4-2.6,6.6-2.6v-1.4l2.4,2.1l-2.4,2.1v-1.4
	c-2.2,0-4.1,0.8-5.7,2.3s-2.4,3.4-2.4,5.6c0,0.6,0.1,1.3,0.2,1.9s0.4,1.2,0.7,1.8C17.1,29.7,16.1,30.6,16.1,30.6z M12.8,44
	c-0.7,0-1.4-0.3-1.9-0.8c-0.6-0.6-0.9-1.2-0.9-2V6.8c0-0.7,0.3-1.4,0.8-1.9C11.4,4.3,12,4,12.8,4h22.5c0.7,0,1.4,0.3,1.9,0.8
	C37.7,5.4,38,6,38,6.8v34.5c0,0.7-0.3,1.4-0.8,1.9c-0.6,0.5-1.2,0.8-2,0.8H12.8z M11.5,38.2h24.9V9.8H11.5V38.2z M11.5,39.7v1.5
	c0,0.4,0.1,0.7,0.3,0.9s0.5,0.3,0.9,0.3h22.5c0.4,0,0.7-0.1,0.9-0.3s0.3-0.5,0.3-0.9v-1.5H11.5z M11.5,8.3h24.9V6.8
	c0-0.4-0.1-0.7-0.3-0.9c-0.2-0.2-0.5-0.3-0.9-0.3H12.8c-0.4,0-0.7,0.1-0.9,0.3c-0.2,0.2-0.3,0.5-0.3,0.9v1.5H11.5z M11.5,5.5v2.8
	V5.5z M11.5,42.5v-2.8V42.5z"/>
</svg>
