<?xml version="1.0" encoding="utf-8"?>
<!-- Generator: Adobe Illustrator 26.3.1, SVG Export Plug-In . SVG Version: 6.00 Build 0)  -->
<svg version="1.1" id="Слой_1" xmlns="http://www.w3.org/2000/svg" xmlns:xlink="http://www.w3.org/1999/xlink" x="0px" y="0px"
	 viewBox="0 0 48 48" style="enable-background:new 0 0 48 48;" xml:space="preserve">
<path d="M17.9,39.5V38h12.3v1.5C30.1,39.5,17.9,39.5,17.9,39.5z M17.9,34.7l-1.8-24.3c-0.1-0.7,0.1-1.3,0.6-1.7
	c0.4-0.5,1-0.7,1.7-0.7h11.4c0.7,0,1.3,0.2,1.7,0.7c0.4,0.5,0.6,1,0.6,1.7l-1.8,24.3C30.1,34.7,17.9,34.7,17.9,34.7z M19.3,33.2h9.4
	l1.7-22.4c0-0.4-0.1-0.7-0.3-0.9c-0.2-0.2-0.5-0.3-0.9-0.3H18.8c-0.4,0-0.6,0.1-0.9,0.3c-0.2,0.2-0.3,0.5-0.3,0.9L19.3,33.2z
	 M19.3,9.5h-1.7h12.8H19.3z"/>
</svg>
