<?xml version="1.0" encoding="utf-8"?>
<!-- Generator: Adobe Illustrator 26.3.1, SVG Export Plug-In . SVG Version: 6.00 Build 0)  -->
<svg version="1.1" id="Слой_1" xmlns="http://www.w3.org/2000/svg" xmlns:xlink="http://www.w3.org/1999/xlink" x="0px" y="0px"
	 viewBox="0 0 48 48" style="enable-background:new 0 0 48 48;" xml:space="preserve">
<path d="M8,43V32c0-1.3,0.5-2.5,1.4-3.4s2.1-1.4,3.4-1.4h4c2.3,0,4.1-0.7,5.4-2c1.2-1.3,1.9-2.9,1.9-4.8c0-1.1-0.3-1.9-1-2.6
	s-1.5-1-2.5-1c-0.7,0-1.3-0.2-1.8-0.7s-0.7-1.1-0.7-1.8V5h1.6v9.2c0,0.3,0.1,0.5,0.3,0.7c0.2,0.2,0.4,0.3,0.7,0.3
	c1.4,0,2.6,0.5,3.5,1.5c1,1,1.5,2.2,1.5,3.8c0,2.3-0.8,4.2-2.3,5.9c-1.5,1.6-3.7,2.4-6.5,2.4h-4c-0.9,0-1.7,0.3-2.3,0.9
	S9.7,31.1,9.7,32v11H8z M19.5,14.2V5V14.2c0,0.3,0.1,0.5,0.3,0.7c0.2,0.2,0.4,0.3,0.7,0.3c1.4,0,2.6,0.5,3.5,1.5
	c1,1,1.5,2.2,1.5,3.8c0,2.3-0.8,4.2-2.3,5.9c-1.5,1.6-3.7,2.4-6.5,2.4h-4c-0.9,0-1.7,0.3-2.3,0.9S9.5,31.1,9.5,32v11V32
	c0-0.9,0.3-1.7,0.9-2.3c0.6-0.6,1.4-0.9,2.3-0.9h4c2.8,0,4.9-0.8,6.5-2.4c1.5-1.6,2.3-3.6,2.3-5.9c0-1.5-0.5-2.8-1.5-3.8
	s-2.2-1.5-3.5-1.5c-0.3,0-0.5-0.1-0.7-0.3C19.6,14.8,19.5,14.5,19.5,14.2z M40,24.8c-0.3-0.2-0.5-0.4-0.8-0.6
	c-0.2-0.2-0.5-0.3-0.8-0.5V22c0-3.1-1-5.7-3-7.9s-4.5-3.3-7.5-3.3c-0.9,0-1.7-0.3-2.4-1c-0.7-0.7-1-1.5-1-2.4V5H26v2.3l1.9,1.9
	c3.4,0,6.2,1.3,8.6,3.8s3.5,5.5,3.5,9V24.8z M14.5,43v-3c0-1.3,0.5-2.5,1.4-3.4s2.1-1.4,3.4-1.4h3.5c0.1,0.3,0.1,0.5,0.2,0.8
	s0.1,0.5,0.2,0.7h-3.9c-0.9,0-1.7,0.3-2.3,0.9c-0.7,0.7-1,1.5-1,2.4v3H14.5z M33.2,37.6c1.2,0,2.3-0.4,3.2-1.3
	c0.9-0.9,1.3-1.9,1.3-3.2c0-1.2-0.4-2.3-1.3-3.2c-0.9-0.9-1.9-1.3-3.2-1.3c-1.2,0-2.3,0.4-3.2,1.3c-0.9,0.9-1.3,1.9-1.3,3.2
	c0,1.2,0.4,2.3,1.3,3.2S32,37.6,33.2,37.6z M41.5,42.8L36.7,38c-0.5,0.3-1,0.6-1.6,0.8s-1.2,0.3-1.9,0.3c-1.7,0-3.1-0.6-4.2-1.8
	c-1.2-1.2-1.8-2.6-1.8-4.2c0-1.7,0.6-3.1,1.8-4.3c1.2-1.2,2.6-1.7,4.2-1.7c1.7,0,3.1,0.6,4.2,1.7c1.2,1.2,1.8,2.6,1.8,4.3
	c0,0.7-0.1,1.4-0.4,2.1c-0.3,0.7-0.6,1.3-1,1.8l4.8,4.8L41.5,42.8z"/>
</svg>
