<?xml version="1.0" encoding="utf-8"?>
<!-- Generator: Adobe Illustrator 26.3.1, SVG Export Plug-In . SVG Version: 6.00 Build 0)  -->
<svg version="1.1" id="Слой_1" xmlns="http://www.w3.org/2000/svg" xmlns:xlink="http://www.w3.org/1999/xlink" x="0px" y="0px"
	 viewBox="0 0 48 48" style="enable-background:new 0 0 48 48;" xml:space="preserve">
<path d="M16.2,26.2c0.1-0.4,0.1-0.7,0.1-1s0-0.5,0-0.8c0-1.2-0.2-2.1-0.8-3c-0.5-0.8-1.1-1.7-1.7-2.5c-0.9-1.3-1.6-2.4-1.9-3.4
	c-0.3-1-0.5-2-0.5-3.1c0-0.3,0-0.7,0-1.1c0-0.4,0.1-0.8,0.2-1.2h1.5c-0.1,0.4-0.1,0.8-0.2,1.2c0,0.3,0,0.7,0,1
	c0,1.2,0.2,2.2,0.7,3.1c0.4,0.9,1,1.9,1.8,2.9c1,1.3,1.6,2.5,2,3.4c0.3,0.9,0.5,1.8,0.5,2.8c0,0.3,0,0.6,0,0.9s-0.1,0.5-0.2,0.8
	C17.7,26.2,16.2,26.2,16.2,26.2z M23.1,26.2c0.1-0.4,0.1-0.7,0.1-1s0-0.5,0-0.8c0-1.2-0.2-2.1-0.8-3c-0.5-0.8-1.1-1.7-1.7-2.5
	c-0.9-1.3-1.6-2.4-1.9-3.4s-0.5-2-0.5-3.1c0-0.3,0-0.7,0-1.1c0-0.4,0.1-0.8,0.2-1.2H20c0,0.4-0.1,0.7-0.2,1.1
	c-0.1,0.3-0.1,0.7-0.1,1.1c0,1.2,0.2,2.2,0.7,3.1c0.4,0.9,1,1.9,1.8,2.9c1,1.3,1.6,2.5,2,3.4c0.3,0.9,0.5,1.8,0.5,2.8
	c0,0.3,0,0.6,0,0.9s-0.1,0.5-0.1,0.8C24.6,26.2,23.1,26.2,23.1,26.2z M29.9,26.2c0.1-0.4,0.1-0.7,0.1-1s0-0.5,0-0.8
	c0-1.2-0.2-2.1-0.8-3c-0.5-0.8-1.1-1.7-1.7-2.5c-0.9-1.3-1.6-2.4-1.9-3.4s-0.5-2-0.5-3.1c0-0.3,0-0.7,0-1.1c0-0.4,0.1-0.8,0.2-1.2
	h1.5c0,0.4-0.1,0.7-0.2,1.1c-0.1,0.3-0.1,0.7-0.1,1.1c0,1.2,0.2,2.2,0.7,3.1c0.4,0.9,1,1.9,1.8,2.9c1,1.3,1.6,2.5,2,3.4
	c0.3,0.9,0.5,1.8,0.5,2.8c0,0.3,0,0.6,0,0.9s-0.1,0.5-0.1,0.8C31.4,26.2,29.9,26.2,29.9,26.2z M24,37.8c-4.4,0-8.2-0.8-11.2-2.4
	c-3.1-1.6-4.6-3.6-4.6-5.9c0-0.9,0.3-1.7,0.9-2.6c0.6-0.8,1.5-1.6,2.6-2.4v1.8c-0.7,0.5-1.2,1-1.5,1.5s-0.5,1-0.5,1.6
	c0,1.8,1.4,3.4,4.3,4.7c2.9,1.4,6.2,2,10,2s7.1-0.7,10-2c2.9-1.4,4.3-2.9,4.3-4.7c0-0.5-0.2-1.1-0.5-1.6s-0.8-1-1.5-1.5v-1.8
	c1.1,0.7,2,1.5,2.6,2.4c0.6,0.8,0.9,1.7,0.9,2.6c0,2.3-1.5,4.2-4.6,5.9C32.2,37,28.4,37.8,24,37.8z"/>
</svg>
