<?xml version="1.0" encoding="utf-8"?>
<!-- Generator: Adobe Illustrator 26.3.1, SVG Export Plug-In . SVG Version: 6.00 Build 0)  -->
<svg version="1.1" id="Слой_1" xmlns="http://www.w3.org/2000/svg" xmlns:xlink="http://www.w3.org/1999/xlink" x="0px" y="0px"
	 viewBox="0 0 48 48" style="enable-background:new 0 0 48 48;" xml:space="preserve">
<path d="M40.2,42.4l-2.5-2.5c-0.1,0-0.2,0-0.3,0.1c-0.1,0-0.2,0-0.4,0H10.8c-0.8,0-1.4-0.3-2-0.8C8.3,38.7,8,38,8,37.2V11
	c0-0.1,0-0.3,0-0.4c0-0.1,0-0.2,0.1-0.3L5.6,7.8l1.1-1.1l34.5,34.5C41.3,41.3,40.2,42.4,40.2,42.4z M10.8,38.5h25.5L23.5,25.7
	l-4.1,4.1l-1.1-1.1l4.1-4.1L9.5,11.8v25.5c0,0.3,0.1,0.6,0.4,0.8C10.2,38.3,10.5,38.5,10.8,38.5z M14.5,9.5L13,8h9v1.5H14.5z
	 M27.1,22.1L25.9,21L37.4,9.5H27.1V8H40v12.9h-1.5V10.6L27.1,22.1z M40,35l-1.5-1.5V26H40V35z"/>
</svg>
