<?xml version="1.0" encoding="utf-8"?>
<!-- Generator: Adobe Illustrator 26.3.1, SVG Export Plug-In . SVG Version: 6.00 Build 0)  -->
<svg version="1.1" id="Слой_1" xmlns="http://www.w3.org/2000/svg" xmlns:xlink="http://www.w3.org/1999/xlink" x="0px" y="0px"
	 viewBox="0 0 48 48" style="enable-background:new 0 0 48 48;" xml:space="preserve">
<path d="M24,42.6l-7-7l1.1-1.1l5.1,5.1V29.3h1.5v10.3l5.1-5.1l1.1,1.1L24,42.6z M12.2,30.8L5.4,24l6.9-6.9l1.1,1.1l-5,5h10.3v1.5
	H8.4l4.9,5C13.3,29.7,12.2,30.8,12.2,30.8z M35.8,30.8l-1.1-1.1l4.9-4.9H29.3v-1.5h10.3l-4.9-5l1.1-1.1l6.8,6.8L35.8,30.8z
	 M23.2,18.7V8.4l-4.9,4.9l-1.1-1.1L24,5.4l6.8,6.8l-1.1,1.1l-4.9-4.9v10.3H23.2z"/>
</svg>
