<?xml version="1.0" encoding="utf-8"?>
<!-- Generator: Adobe Illustrator 26.3.1, SVG Export Plug-In . SVG Version: 6.00 Build 0)  -->
<svg version="1.1" id="Слой_1" xmlns="http://www.w3.org/2000/svg" xmlns:xlink="http://www.w3.org/1999/xlink" x="0px" y="0px"
	 viewBox="0 0 48 48" style="enable-background:new 0 0 48 48;" xml:space="preserve">
<path d="M12.8,41.2V26H16v-8.1l-6.3-6.3L16,5.3l1,1l-5.2,5.2l5.7,5.7V26h3.2v15.2H12.8z M27.2,41.2V26h3.2v-6.3
	c-1.5-0.2-2.7-0.9-3.7-2c-1-1.2-1.5-2.5-1.5-4c0-1.7,0.6-3.1,1.7-4.3c1.2-1.2,2.6-1.8,4.3-1.8c1.7,0,3.1,0.6,4.3,1.8
	s1.7,2.6,1.7,4.3c0,1.6-0.5,2.9-1.5,4.1s-2.2,1.8-3.7,2V26h3.2v15.2H27.2z M31.2,18.2c1.3,0,2.3-0.4,3.2-1.3s1.3-2,1.3-3.3
	s-0.4-2.4-1.3-3.2c-0.9-0.9-1.9-1.3-3.2-1.3s-2.3,0.4-3.2,1.3c-0.9,0.9-1.3,2-1.3,3.2c0,1.3,0.4,2.4,1.3,3.3
	C28.9,17.8,30,18.2,31.2,18.2z M14.3,39.7h4.9V27.5h-4.9C14.3,27.5,14.3,39.7,14.3,39.7z M28.8,39.7h4.9V27.5h-4.9
	C28.8,27.5,28.8,39.7,28.8,39.7z M14.3,39.7h4.9H14.3z M28.8,39.7h4.9H28.8z"/>
</svg>
