<?xml version="1.0" encoding="utf-8"?>
<!-- Generator: Adobe Illustrator 26.3.1, SVG Export Plug-In . SVG Version: 6.00 Build 0)  -->
<svg version="1.1" id="Слой_1" xmlns="http://www.w3.org/2000/svg" xmlns:xlink="http://www.w3.org/1999/xlink" x="0px" y="0px"
	 viewBox="0 0 48 48" style="enable-background:new 0 0 48 48;" xml:space="preserve">
<path d="M35,39.9l5.7-5.6L39.5,33L35,37.4l-1.9-2l-1.3,1.3C31.9,36.7,35,39.9,35,39.9z M13.5,17h20.9v-1.5H13.5V17z M36.3,44.2
	c-2.1,0-4-0.8-5.5-2.3s-2.2-3.3-2.2-5.4c0-2.2,0.7-4,2.2-5.5s3.3-2.2,5.5-2.2c2.1,0,3.9,0.7,5.4,2.2s2.3,3.3,2.3,5.5
	c0,2.1-0.8,3.9-2.3,5.4C40.3,43.5,38.4,44.2,36.3,44.2z M8,41.5V10.8c0-0.8,0.3-1.4,0.8-2C9.4,8.3,10,8,10.8,8h26.5
	c0.7,0,1.4,0.3,1.9,0.8c0.5,0.6,0.8,1.2,0.8,2V24c-0.2-0.1-0.5-0.2-0.7-0.2c-0.3-0.1-0.5-0.1-0.8-0.2V10.8c0-0.3-0.1-0.6-0.4-0.8
	c-0.3-0.3-0.5-0.4-0.8-0.4H10.8c-0.3,0-0.6,0.1-0.8,0.4c-0.3,0.3-0.4,0.5-0.4,0.8v27.7h14.2c0.1,0.3,0.1,0.7,0.2,1s0.2,0.7,0.3,1
	l-0.7,0.7l-2.3-1.7l-2.7,1.9l-2.7-1.9l-2.7,1.9l-2.7-1.9L8,41.5z M13.5,32.5h10.6c0.1-0.3,0.2-0.5,0.3-0.8c0.1-0.3,0.2-0.5,0.3-0.7
	H13.5V32.5z M13.5,24.8h16.9c0.4-0.1,0.8-0.2,1.1-0.3c0.4-0.1,0.7-0.3,1.1-0.4v-0.8H13.5V24.8z M9.5,38.5v-29V38.5z"/>
</svg>
