<?xml version="1.0" encoding="utf-8"?>
<!-- Generator: Adobe Illustrator 26.3.1, SVG Export Plug-In . SVG Version: 6.00 Build 0)  -->
<svg version="1.1" id="Слой_1" xmlns="http://www.w3.org/2000/svg" xmlns:xlink="http://www.w3.org/1999/xlink" x="0px" y="0px"
	 viewBox="0 0 48 48" style="enable-background:new 0 0 48 48;" xml:space="preserve">
<path d="M10.1,38V16.2L6.5,8.3L8,7.6l3.8,8.5h24.6l3.8-8.5l1.5,0.7l-3.6,7.9V38H10.1z M19.9,24.6h8.2c0.2,0,0.4-0.1,0.5-0.2
	s0.2-0.3,0.2-0.6s-0.1-0.4-0.2-0.5s-0.3-0.2-0.5-0.2h-8.2c-0.2,0-0.4,0.1-0.5,0.2s-0.2,0.3-0.2,0.6c0,0.2,0.1,0.4,0.2,0.5
	C19.5,24.5,19.7,24.6,19.9,24.6z M11.6,36.5h24.8V17.6H11.6V36.5z M11.6,36.5V17.6V36.5z"/>
</svg>
