<?xml version="1.0" encoding="utf-8"?>
<!-- Generator: Adobe Illustrator 26.3.1, SVG Export Plug-In . SVG Version: 6.00 Build 0)  -->
<svg version="1.1" id="Слой_1" xmlns="http://www.w3.org/2000/svg" xmlns:xlink="http://www.w3.org/1999/xlink" x="0px" y="0px"
	 viewBox="0 0 48 48" style="enable-background:new 0 0 48 48;" xml:space="preserve">
<path d="M10,40V21.1l-4.2,3.2l-0.9-1.2L24,8.5l19.1,14.6l-0.9,1.2L38,21.1V40H10z M11.5,38.5h24.9V20L24,10.4L11.5,20V38.5z
	 M11.5,38.5h24.9C36.5,38.5,11.5,38.5,11.5,38.5z M16,29.5c-0.4,0-0.8-0.2-1.1-0.5s-0.5-0.7-0.5-1.1s0.2-0.8,0.5-1.1
	c0.3-0.3,0.7-0.5,1.1-0.5c0.4,0,0.8,0.2,1.1,0.5c0.3,0.3,0.5,0.7,0.5,1.1s-0.2,0.8-0.5,1.1C16.8,29.4,16.4,29.5,16,29.5z M24,29.5
	c-0.4,0-0.8-0.2-1.1-0.5c-0.3-0.3-0.5-0.7-0.5-1.1s0.2-0.8,0.5-1.1c0.3-0.3,0.7-0.5,1.1-0.5s0.8,0.2,1.1,0.5
	c0.3,0.3,0.5,0.7,0.5,1.1s-0.2,0.8-0.5,1.1C24.8,29.4,24.4,29.5,24,29.5z M32,29.5c-0.4,0-0.8-0.2-1.1-0.5c-0.3-0.3-0.5-0.7-0.5-1.1
	s0.2-0.8,0.5-1.1c0.3-0.3,0.7-0.5,1.1-0.5c0.4,0,0.8,0.2,1.1,0.5s0.5,0.7,0.5,1.1s-0.2,0.8-0.5,1.1C32.8,29.4,32.4,29.5,32,29.5z"/>
</svg>
