<?xml version="1.0" encoding="utf-8"?>
<!-- Generator: Adobe Illustrator 26.3.1, SVG Export Plug-In . SVG Version: 6.00 Build 0)  -->
<svg version="1.1" id="Слой_1" xmlns="http://www.w3.org/2000/svg" xmlns:xlink="http://www.w3.org/1999/xlink" x="0px" y="0px"
	 viewBox="0 0 48 48" style="enable-background:new 0 0 48 48;" xml:space="preserve">
<path d="M36.3,38.5l-1.1-1.1l4.3-4.4h-10v-1.5h10.1L35.3,27l1.1-1.1l6.3,6.3C42.6,32.2,36.3,38.5,36.3,38.5z M7.8,33
	c-0.7,0-1.4-0.3-1.9-0.8C5.3,31.6,5,31,5,30.2V9.8c0-0.8,0.3-1.4,0.8-2C6.4,7.3,7,7,7.8,7h26.5c0.7,0,1.4,0.3,1.9,0.8
	C36.7,8.4,37,9,37,9.8v11.4c-0.1,0-0.2,0-0.4,0c-0.1,0-0.3,0-0.4,0c-0.1,0-0.3,0-0.4,0c-0.1,0-0.3,0-0.4,0V9.8L20.8,20.5L6.5,9.8
	v20.4c0,0.4,0.1,0.7,0.3,0.9c0.2,0.2,0.5,0.3,0.9,0.3h17.4c0,0.1,0,0.2,0,0.3v0.4c0,0.1,0,0.3,0,0.4c0,0.1,0,0.3,0,0.4
	C25.3,33,7.8,33,7.8,33z M7.3,8.5l13.5,10.1L34.7,8.5H7.3z M6.5,31.5v-23V31.5z"/>
</svg>
