<?xml version="1.0" encoding="utf-8"?>
<!-- Generator: Adobe Illustrator 26.3.1, SVG Export Plug-In . SVG Version: 6.00 Build 0)  -->
<svg version="1.1" id="Слой_1" xmlns="http://www.w3.org/2000/svg" xmlns:xlink="http://www.w3.org/1999/xlink" x="0px" y="0px"
	 viewBox="0 0 48 48" style="enable-background:new 0 0 48 48;" xml:space="preserve">
<path d="M18,23.5c0.2,0,0.4-0.1,0.5-0.2s0.2-0.3,0.2-0.5v-6c0-0.2-0.1-0.4-0.2-0.5C18.4,16.1,18.2,16,18,16s-0.4,0.1-0.5,0.2
	s-0.2,0.3-0.2,0.5v6c0,0.2,0.1,0.4,0.2,0.5C17.6,23.5,17.8,23.5,18,23.5z M21.2,34h5.5v-2.8c0-0.8-0.3-1.4-0.8-2
	c-0.5-0.5-1.2-0.8-2-0.8s-1.4,0.3-2,0.8c-0.5,0.5-0.8,1.2-0.8,2C21.2,31.2,21.2,34,21.2,34z M30,23.5c0.2,0,0.4-0.1,0.5-0.2
	s0.2-0.3,0.2-0.5v-6c0-0.2-0.1-0.4-0.2-0.5C30.4,16.1,30.2,16,30,16s-0.4,0.1-0.5,0.2s-0.2,0.3-0.2,0.5v6c0,0.2,0.1,0.4,0.2,0.5
	C29.6,23.5,29.8,23.5,30,23.5z M24,42c-2.5,0-4.8-0.5-7-1.4s-4.1-2.2-5.7-3.9c-1.6-1.6-2.9-3.5-3.9-5.7C6.5,28.8,6,26.5,6,24
	s0.5-4.8,1.4-7s2.2-4.1,3.9-5.7c1.6-1.6,3.5-2.9,5.7-3.8c2.2-1,4.5-1.5,7-1.5s4.8,0.5,7,1.4s4.1,2.2,5.7,3.8
	c1.6,1.6,2.9,3.5,3.8,5.7c0.9,2.2,1.4,4.5,1.4,7s-0.5,4.8-1.4,7s-2.2,4.1-3.8,5.7s-3.5,2.9-5.7,3.9S26.5,42,24,42z M24,40.5
	c4.6,0,8.5-1.6,11.7-4.8s4.8-7.1,4.8-11.7s-1.6-8.5-4.8-11.7S28.6,7.5,24,7.5s-8.5,1.6-11.7,4.8S7.5,19.4,7.5,24s1.6,8.5,4.8,11.7
	S19.4,40.5,24,40.5z"/>
</svg>
