<?xml version="1.0" encoding="utf-8"?>
<!-- Generator: Adobe Illustrator 26.3.1, SVG Export Plug-In . SVG Version: 6.00 Build 0)  -->
<svg version="1.1" id="Слой_1" xmlns="http://www.w3.org/2000/svg" xmlns:xlink="http://www.w3.org/1999/xlink" x="0px" y="0px"
	 viewBox="0 0 48 48" style="enable-background:new 0 0 48 48;" xml:space="preserve">
<path d="M38.7,29.6l-1.1-1.1l3.7-3.7h-8.6v-1.5h8.6l-3.8-3.7l1.1-1.1l5.6,5.6C44.3,24,38.7,29.6,38.7,29.6z M5.7,10V8.5h20V10H5.7z
	 M13.7,34h4v-5h5v-4h-5v-5h-4v5h-5v4h5C13.7,29,13.7,34,13.7,34z M6.5,40c-0.8,0-1.4-0.3-2-0.8c-0.5-0.5-0.8-1.2-0.8-2V16.8
	c0-0.8,0.3-1.4,0.8-2C5,14.3,5.7,14,6.5,14H25c0.8,0,1.4,0.3,2,0.8c0.5,0.5,0.8,1.2,0.8,2v20.5c0,0.8-0.3,1.4-0.8,2
	c-0.5,0.5-1.2,0.8-2,0.8L6.5,40L6.5,40z M6.5,38.5H25c0.3,0,0.6-0.1,0.8-0.4c0.3-0.3,0.4-0.5,0.4-0.8V16.8c0-0.3-0.1-0.6-0.4-0.8
	c-0.3-0.3-0.5-0.4-0.8-0.4H6.5c-0.3,0-0.6,0.1-0.8,0.4c-0.3,0.3-0.4,0.5-0.4,0.8v20.5c0,0.3,0.1,0.6,0.4,0.8
	C5.9,38.3,6.2,38.5,6.5,38.5z"/>
</svg>
