<?xml version="1.0" encoding="utf-8"?>
<!-- Generator: Adobe Illustrator 26.3.1, SVG Export Plug-In . SVG Version: 6.00 Build 0)  -->
<svg version="1.1" id="Слой_1" xmlns="http://www.w3.org/2000/svg" xmlns:xlink="http://www.w3.org/1999/xlink" x="0px" y="0px"
	 viewBox="0 0 48 48" style="enable-background:new 0 0 48 48;" xml:space="preserve">
<path d="M4,40V8h24.2v32h-8.5v-8.1h-7.1V40H4z M5.5,38.5H11v-8.1h10.2v8.1h5.4v-29H5.5V38.5z M11,25.2h2.5v-2.5H11V25.2z M11,17.5
	h2.5V15H11V17.5z M18.7,25.2h2.5v-2.5h-2.5V25.2z M18.7,17.5h2.5V15h-2.5V17.5z M38.8,29.3l-1.1-1.1l3.4-3.4h-8.6v-1.5h8.6l-3.4-3.4
	l1.1-1.1L44,24L38.8,29.3z M11,38.5v-8.1h10.2v8.1v-8.1H11V38.5z"/>
</svg>
