<?xml version="1.0" encoding="utf-8"?>
<!-- Generator: Adobe Illustrator 26.3.1, SVG Export Plug-In . SVG Version: 6.00 Build 0)  -->
<svg version="1.1" id="Слой_1" xmlns="http://www.w3.org/2000/svg" xmlns:xlink="http://www.w3.org/1999/xlink" x="0px" y="0px"
	 viewBox="0 0 48 48" style="enable-background:new 0 0 48 48;" xml:space="preserve">
<path d="M24,41.2l-8.3-8.3l1.1-1l6.4,6.3v-20h1.5v20l6.4-6.3l1.1,1L24,41.2z M8.3,32.8C7.6,31.5,7,30,6.6,28.6C6.2,27.1,6,25.6,6,24
	c0-2.5,0.5-4.8,1.4-7s2.2-4.1,3.8-5.7s3.5-2.9,5.7-3.8C19.2,6.5,21.5,6,24,6s4.8,0.5,7,1.4s4.1,2.2,5.7,3.8c1.6,1.6,2.9,3.5,3.8,5.7
	c0.9,2.2,1.4,4.5,1.4,7c0,1.6-0.2,3.1-0.6,4.6c-0.4,1.5-1,2.9-1.7,4.2l-1.1-1.1c0.7-1.2,1.1-2.5,1.5-3.8c0.3-1.3,0.5-2.6,0.5-4
	c0-4.6-1.6-8.5-4.8-11.7c-3.2-3-7.1-4.6-11.7-4.6s-8.5,1.6-11.7,4.8S7.5,19.4,7.5,24c0,1.4,0.2,2.7,0.5,4s0.8,2.6,1.5,3.7L8.3,32.8z
	"/>
</svg>
