<?xml version="1.0" encoding="utf-8"?>
<!-- Generator: Adobe Illustrator 26.3.1, SVG Export Plug-In . SVG Version: 6.00 Build 0)  -->
<svg version="1.1" id="Слой_1" xmlns="http://www.w3.org/2000/svg" xmlns:xlink="http://www.w3.org/1999/xlink" x="0px" y="0px"
	 viewBox="0 0 48 48" style="enable-background:new 0 0 48 48;" xml:space="preserve">
<path d="M24,42c-3.9,0-7.2-1.4-9.9-4.1c-2.7-2.8-4.1-6.1-4.1-10v-9.6c0-3.6,1.4-6.5,4.2-8.8S20.2,6,24,6c3.6,0,6.8,1.1,9.7,3.4
	c2.9,2.2,4.3,5.2,4.3,8.9V42H24z M24,40.5h7c-1.4-0.9-2.5-2.1-3.3-3.6s-1.2-3.1-1.2-4.9v-1.7c-0.4,0.1-0.8,0.1-1.2,0.1
	c-0.4,0-0.8,0-1.2,0c-2.5,0-4.9-0.6-7.1-1.7s-4-2.7-5.3-4.8l-0.1,3.8c0,3.5,1.2,6.5,3.6,8.9C17.6,39.2,20.5,40.5,24,40.5z M28,32
	c0,2.3,0.8,4.3,2.5,6s3.6,2.5,6,2.5L36.4,24c-1,1.5-2.2,2.8-3.6,3.8c-1.4,1-3,1.7-4.7,2.2v2H28z M23.2,20.2c0-2.4-0.9-4.5-2.6-6.1
	c-1.7-1.7-3.9-2.5-6.3-2.6c-0.9,0.9-1.5,1.9-2,3.1s-0.7,2.4-0.7,3.7c0,3.2,1.2,5.7,3.7,7.7s5.4,3,8.7,3s6.2-1,8.7-3s3.7-4.6,3.7-7.7
	c0-1.4-0.3-2.6-0.8-3.8c-0.5-1.1-1.2-2.2-2.1-3.1c-2.4,0.1-4.5,1-6.2,2.6c-1.7,1.7-2.6,3.7-2.6,6.1C24.8,20.2,23.2,20.2,23.2,20.2z
	 M17.4,19.5c-0.3,0-0.6-0.1-0.9-0.4c-0.2-0.2-0.3-0.5-0.3-0.9c0-0.3,0.1-0.6,0.4-0.9c0.2-0.2,0.5-0.4,0.9-0.4c0.3,0,0.6,0.1,0.9,0.4
	c0.2,0.2,0.4,0.5,0.4,0.9c0,0.3-0.1,0.6-0.4,0.9C18,19.4,17.7,19.5,17.4,19.5z M30.6,19.5c-0.3,0-0.6-0.1-0.9-0.4
	c-0.2-0.2-0.3-0.5-0.3-0.9c0-0.3,0.1-0.6,0.4-0.9c0.2-0.2,0.5-0.4,0.9-0.4c0.3,0,0.6,0.1,0.9,0.4c0.2,0.2,0.4,0.5,0.4,0.9
	c0,0.3-0.1,0.6-0.4,0.9C31.2,19.4,30.9,19.5,30.6,19.5z M15.9,10.1c1.8,0.3,3.5,1.1,4.9,2.2s2.5,2.5,3.2,4.1c0.7-1.6,1.8-3,3.2-4.1
	c1.4-1.1,3.1-1.8,4.9-2.2c-1.1-0.8-2.4-1.4-3.8-1.9c-1.4-0.4-2.8-0.7-4.3-0.7s-3,0.2-4.3,0.7C18.3,8.6,17,9.3,15.9,10.1z M38,40.5
	H26.5H38z M24,40.5c-3.5,0-6.4-1.2-8.8-3.7s-3.6-5.4-3.6-8.9h0.1c0,3.5,1.1,6.5,3.6,8.9C17.6,39.2,20.5,40.5,24,40.5h7H24z M28,32
	c0,2.3,0.8,4.3,2.5,6c1.6,1.7,3.6,2.5,5.9,2.5h0.1c-2.3,0-4.3-0.8-6-2.5S28,34.3,28,32z"/>
</svg>
