<?xml version="1.0" encoding="utf-8"?>
<!-- Generator: Adobe Illustrator 26.3.1, SVG Export Plug-In . SVG Version: 6.00 Build 0)  -->
<svg version="1.1" id="Слой_1" xmlns="http://www.w3.org/2000/svg" xmlns:xlink="http://www.w3.org/1999/xlink" x="0px" y="0px"
	 viewBox="0 0 48 48" style="enable-background:new 0 0 48 48;" xml:space="preserve">
<path d="M4,28.5h1.5v6.8c0,0.9,0.3,1.7,0.9,2.3s1.4,0.9,2.3,0.9h4.5c0.1-0.6,0.3-1,0.8-1.4c0.4-0.4,1-0.6,1.6-0.6h3.6v-3.2
	c0-0.2,0.1-0.4,0.2-0.6c0.1-0.1,0.3-0.2,0.6-0.2c0.2,0,0.4,0.1,0.6,0.2c0.1,0.1,0.2,0.3,0.2,0.6v3.2h6.5v-3.2c0-0.2,0.1-0.4,0.2-0.6
	c0.1-0.1,0.3-0.2,0.6-0.2c0.2,0,0.4,0.1,0.6,0.2c0.1,0.1,0.2,0.3,0.2,0.6v3.2h3.6c0.6,0,1.1,0.2,1.6,0.6c0.4,0.4,0.7,0.9,0.8,1.4
	h4.5c0.9,0,1.7-0.3,2.3-0.9c0.6-0.6,0.9-1.4,0.9-2.3v-6.8H44v6.8c0,1.3-0.5,2.5-1.4,3.4s-2.1,1.4-3.4,1.4h-4.5
	c-0.1,0.6-0.3,1-0.8,1.4c-0.4,0.4-1,0.6-1.6,0.6H15.6c-0.6,0-1.1-0.2-1.6-0.6c-0.4-0.4-0.7-0.9-0.8-1.4H8.8c-1.3,0-2.5-0.5-3.4-1.4
	c-0.9-1-1.4-2.1-1.4-3.5V28.5z M18,4h1.5v6.5c0,0.8-0.3,1.5-0.9,2.1s-1.3,0.9-2.1,0.9H15c-1.5,0-2.8,0.5-3.9,1.6s-1.6,2.3-1.6,3.8
	c0,1.3,0.4,2.4,1.3,3.4c0.9,1,1.9,1.6,3.2,1.9v1.5c-1.7-0.3-3.1-1.1-4.3-2.3C8.6,22.2,8,20.7,8,18.9c0-1.9,0.7-3.6,2-4.9
	c1.4-1.3,3-2,5-2h1.8c0.4,0,0.7-0.1,0.9-0.3c0.2-0.2,0.3-0.5,0.3-0.9C18,10.7,18,4,18,4z M28.5,4H30v6.8c0,0.4,0.1,0.7,0.3,0.9
	c0.2,0.2,0.5,0.3,0.9,0.3H33c1.9,0,3.6,0.7,5,2s2,3,2,4.9c0,1.8-0.6,3.3-1.7,4.5c-1.1,1.3-2.6,2-4.3,2.3v-1.5c1.2-0.3,2.3-1,3.2-1.9
	c0.9-1,1.3-2.1,1.3-3.4c0-1.5-0.5-2.8-1.6-3.8c-1.1-1.1-2.3-1.6-3.9-1.6h-1.5c-0.8,0-1.5-0.3-2.1-0.9c-0.6-0.6-0.9-1.3-0.9-2.1V4z
	 M23.5,28c-1.2,0-2.3-0.3-3.3-1c-0.9-0.7-1.6-1.6-2-2.8C18,23.5,17.6,23,17,22.6S15.8,22,15.1,22H14v-1.5h1.1c1,0,1.9,0.3,2.8,0.9
	c0.8,0.6,1.4,1.4,1.7,2.4c0.3,0.8,0.8,1.5,1.5,2s1.5,0.8,2.3,0.8h1.1c0.9,0,1.6-0.3,2.3-0.8c0.7-0.5,1.2-1.2,1.5-2
	c0.3-1,0.9-1.8,1.7-2.4c0.8-0.6,1.8-0.9,2.8-0.9H34V22h-1.1c-0.7,0-1.3,0.2-1.9,0.6s-1,0.9-1.2,1.6c-0.4,1.1-1.1,2.1-2,2.8
	c-0.9,0.7-2,1-3.3,1H23.5z"/>
</svg>
