<?xml version="1.0" encoding="utf-8"?>
<!-- Generator: Adobe Illustrator 26.3.1, SVG Export Plug-In . SVG Version: 6.00 Build 0)  -->
<svg version="1.1" id="Слой_1" xmlns="http://www.w3.org/2000/svg" xmlns:xlink="http://www.w3.org/1999/xlink" x="0px" y="0px"
	 viewBox="0 0 48 48" style="enable-background:new 0 0 48 48;" xml:space="preserve">
<path d="M8.8,38c-0.7,0-1.4-0.3-1.9-0.8C6.3,36.6,6,36,6,35.2V8.8c0-0.8,0.3-1.4,0.8-2C7.4,6.3,8,6,8.8,6h9.8c0.7,0,1.4,0.3,1.9,0.8
	c0.6,0.6,0.8,1.2,0.8,1.9v8.5h-1.5v-4.1H7.5v17.5h13.8v4.5c0,0.7-0.3,1.4-0.8,1.9c-0.5,0.7-1.1,1-1.9,1H8.8z M29.3,42
	c-0.7,0-1.4-0.3-1.9-0.8s-0.8-1.1-0.8-1.9v-8.6h1.5v4h12.3V17.3H26.6v-4.5c0-0.7,0.3-1.4,0.8-1.9c0.6-0.6,1.2-0.8,1.9-0.8h9.8
	c0.7,0,1.4,0.3,1.9,0.8c0.6,0.6,0.8,1.2,0.8,1.9v26.5c0,0.7-0.3,1.4-0.8,1.9c-0.4,0.5-1,0.8-1.8,0.8H29.3z M7.5,32.3v3
	c0,0.4,0.1,0.7,0.3,0.9c0.2,0.2,0.5,0.3,0.9,0.3h9.8c0.4,0,0.7-0.1,0.9-0.3c0.2-0.2,0.3-0.5,0.3-0.9v-3H7.5z M28.2,36.3v3
	c0,0.4,0.1,0.7,0.3,0.9c0.2,0.2,0.5,0.3,0.9,0.3h9.8c0.4,0,0.7-0.1,0.9-0.3s0.3-0.5,0.3-0.9v-3H28.2z M7.5,11.7h12.3v-3
	c0-0.4-0.1-0.7-0.3-0.9c-0.2-0.2-0.5-0.3-0.9-0.3H8.8c-0.4,0-0.7,0.1-0.9,0.3c-0.2,0.3-0.4,0.6-0.4,1V11.7z M28.2,15.8h12.3v-3
	c0-0.4-0.1-0.7-0.3-0.9s-0.5-0.3-0.9-0.3h-9.8c-0.4,0-0.7,0.1-0.9,0.3c-0.2,0.2-0.3,0.5-0.3,0.9v3H28.2z M16.3,25.2
	c-0.3,0-0.6-0.1-0.9-0.4c-0.2-0.2-0.4-0.5-0.4-0.9c0-0.3,0.1-0.6,0.4-0.9c0.2-0.2,0.5-0.4,0.9-0.4c0.3,0,0.6,0.1,0.9,0.4
	c0.2,0.2,0.4,0.5,0.4,0.9c0,0.3-0.1,0.6-0.4,0.9S16.6,25.2,16.3,25.2z M24,25.2c-0.3,0-0.6-0.1-0.9-0.4c-0.2-0.2-0.4-0.5-0.4-0.9
	c0-0.3,0.1-0.6,0.4-0.9c0.2-0.2,0.5-0.4,0.9-0.4c0.3,0,0.6,0.1,0.9,0.4c0.2,0.2,0.4,0.5,0.4,0.9c0,0.3-0.1,0.6-0.4,0.9
	S24.3,25.2,24,25.2z M31.6,25.2c-0.3,0-0.6-0.1-0.9-0.4c-0.2-0.2-0.4-0.5-0.4-0.9c0-0.3,0.1-0.6,0.4-0.9c0.2-0.2,0.5-0.4,0.9-0.4
	c0.3,0,0.6,0.1,0.9,0.4c0.2,0.2,0.4,0.5,0.4,0.9c0,0.3-0.1,0.6-0.4,0.9C32.3,25.1,32,25.2,31.6,25.2z M7.5,32.3v4.2V32.3z
	 M28.2,36.3v4.2V36.3z M7.5,11.7V7.5V11.7z M28.2,15.8v-4.2V15.8z"/>
</svg>
