<?xml version="1.0" encoding="utf-8"?>
<!-- Generator: Adobe Illustrator 26.3.1, SVG Export Plug-In . SVG Version: 6.00 Build 0)  -->
<svg version="1.1" id="Слой_1" xmlns="http://www.w3.org/2000/svg" xmlns:xlink="http://www.w3.org/1999/xlink" x="0px" y="0px"
	 viewBox="0 0 48 48" style="enable-background:new 0 0 48 48;" xml:space="preserve">
<path d="M13.1,41.6c-1.5,0-2.7-0.5-3.8-1.6c-1-1-1.6-2.3-1.6-3.8V20.4c-0.7-0.7-1.6-1.5-2.5-2.3c-1-0.9-1.5-1.9-1.5-3
	c0-0.6,0.2-1,0.6-1.5c0.5-0.4,1-0.6,1.5-0.6c0.6,0,1.1,0.2,1.6,0.5c0.4,0.4,0.8,0.8,1.1,1.3c0.3-0.5,0.7-0.9,1.2-1.3
	c0.5-0.4,1-0.5,1.5-0.5c0.6,0,1,0.2,1.5,0.6c0.4,0.4,0.6,0.9,0.6,1.5c0,1.2-0.5,2.2-1.5,3c-1,0.9-1.8,1.6-2.5,2.3v15.8
	c0,1.1,0.4,2,1.1,2.7c0.7,0.7,1.6,1.1,2.7,1.1s2-0.4,2.7-1.1c0.7-0.7,1.1-1.6,1.1-2.7V14.9c0-2.4,0.9-4.5,2.6-6.2s3.8-2.6,6.2-2.6
	s4.5,0.9,6.2,2.6s2.6,3.8,2.6,6.2V16c2,0.2,3.8,1.1,5.1,2.6c1.4,1.5,2.1,3.3,2.1,5.4v10c0,2.2-0.8,4.1-2.3,5.7
	C37.8,41.3,36,42,33.7,42c-2.2,0-4.1-0.8-5.7-2.3c-1.6-1.6-2.3-3.4-2.3-5.7V24c0-2.1,0.7-3.9,2.1-5.4s3.1-2.4,5.1-2.6v-1.2
	c0-2-0.7-3.7-2.1-5.1s-3.1-2.1-5.1-2.1S22,8.3,20.6,9.7s-2.1,3.1-2.1,5.1v21.4c0,1.5-0.5,2.7-1.6,3.8C15.8,41.1,14.6,41.6,13.1,41.6
	z M33.6,40.5c1.8,0,3.3-0.6,4.6-1.9c1.3-1.3,1.9-2.8,1.9-4.6V24c0-1.8-0.6-3.3-1.9-4.6c-1.3-1.3-2.8-1.9-4.6-1.9s-3.3,0.6-4.6,1.9
	c-1.3,1.3-1.9,2.8-1.9,4.6v10c0,1.8,0.6,3.3,1.9,4.6C30.3,39.8,31.8,40.5,33.6,40.5z M33.6,31c-0.8,0-1.6,0.3-2.1,0.9
	c-0.6,0.6-0.9,1.3-0.9,2.1s0.3,1.6,0.9,2.1c0.6,0.6,1.3,0.9,2.1,0.9s1.6-0.3,2.1-0.9c0.6-0.6,0.9-1.3,0.9-2.1s-0.3-1.6-0.9-2.1
	C35.2,31.3,34.5,31,33.6,31z"/>
</svg>
