<?xml version="1.0" encoding="utf-8"?>
<!-- Generator: Adobe Illustrator 26.3.1, SVG Export Plug-In . SVG Version: 6.00 Build 0)  -->
<svg version="1.1" id="Слой_1" xmlns="http://www.w3.org/2000/svg" xmlns:xlink="http://www.w3.org/1999/xlink" x="0px" y="0px"
	 viewBox="0 0 48 48" style="enable-background:new 0 0 48 48;" xml:space="preserve">
<path d="M19.5,42H6.8c-0.7,0-1.4-0.3-1.9-0.8S4,40,4,39.2V28.5h1.5v10.8c0,0.4,0.1,0.7,0.3,0.9c0.2,0.2,0.5,0.3,0.9,0.3h12.8V42z
	 M28.5,42v-1.5h12.8c0.4,0,0.7-0.1,0.9-0.3s0.3-0.5,0.3-0.9V28.5H44v10.8c0,0.7-0.3,1.4-0.8,1.9c-0.6,0.5-1.2,0.8-2,0.8H28.5z
	 M4,19.6V8.8c0-0.8,0.3-1.4,0.8-2C5.4,6.3,6,6,6.8,6h12.8v1.5H6.8c-0.4,0-0.7,0.1-0.9,0.3c-0.2,0.3-0.4,0.6-0.4,1v10.8H4z
	 M42.5,19.6V8.8c0-0.4-0.1-0.7-0.3-0.9c-0.2-0.2-0.5-0.3-0.9-0.3H28.5V6h12.8c0.7,0,1.4,0.3,1.9,0.8C43.7,7.4,44,8,44,8.8v10.8H42.5
	z"/>
</svg>
