<?xml version="1.0" encoding="utf-8"?>
<!-- Generator: Adobe Illustrator 26.3.1, SVG Export Plug-In . SVG Version: 6.00 Build 0)  -->
<svg version="1.1" id="Слой_1" xmlns="http://www.w3.org/2000/svg" xmlns:xlink="http://www.w3.org/1999/xlink" x="0px" y="0px"
	 viewBox="0 0 48 48" style="enable-background:new 0 0 48 48;" xml:space="preserve">
<path d="M35.1,38.3c-1.6,0-3-0.6-4.2-1.7c-1.1-1.1-1.7-2.5-1.7-4.2s0.6-3,1.7-4.2c1.1-1.1,2.5-1.7,4.2-1.7s3,0.6,4.2,1.7
	c1.1,1.1,1.7,2.5,1.7,4.2c0,1.6-0.6,3-1.7,4.2C38.2,37.8,36.8,38.3,35.1,38.3z M35.1,36.8c1.2,0,2.3-0.4,3.1-1.3s1.3-1.9,1.3-3.1
	c0-1.2-0.4-2.3-1.3-3.1c-0.8-0.8-1.9-1.3-3.1-1.3c-1.2,0-2.3,0.4-3.1,1.3c-0.8,0.8-1.3,1.9-1.3,3.1s0.4,2.3,1.3,3.1
	C32.9,36.4,33.9,36.8,35.1,36.8z M9.1,33.2v-1.5h15.4v1.5H9.1z M12.9,21.4c-1.6,0-3-0.6-4.2-1.7C7.6,18.6,7,17.2,7,15.5
	c0-1.6,0.6-3,1.7-4.2c1.1-1.1,2.5-1.7,4.2-1.7s3,0.6,4.2,1.7c1.1,1.1,1.7,2.5,1.7,4.2s-0.6,3-1.7,4.2C15.9,20.9,14.5,21.4,12.9,21.4
	z M12.9,19.9c1.2,0,2.3-0.4,3.1-1.3c0.8-0.8,1.3-1.9,1.3-3.1s-0.4-2.3-1.3-3.1c-0.8-0.8-1.9-1.3-3.1-1.3s-2.3,0.4-3.1,1.3
	c-0.8,0.8-1.3,1.9-1.3,3.1s0.4,2.3,1.3,3.1C10.6,19.5,11.7,19.9,12.9,19.9z M23.5,16.3v-1.5h15.4v1.5H23.5z"/>
</svg>
