<?xml version="1.0" encoding="utf-8"?>
<!-- Generator: Adobe Illustrator 26.3.1, SVG Export Plug-In . SVG Version: 6.00 Build 0)  -->
<svg version="1.1" id="Слой_1" xmlns="http://www.w3.org/2000/svg" xmlns:xlink="http://www.w3.org/1999/xlink" x="0px" y="0px"
	 viewBox="0 0 48 48" style="enable-background:new 0 0 48 48;" xml:space="preserve">
<path d="M32.5,38H8.8c-0.8,0-1.4-0.3-2-0.8C6.3,36.7,6,36,6,35.2V12.8c0-0.8,0.3-1.4,0.8-2C7.3,10.3,8,10,8.8,10h30.5
	c0.8,0,1.4,0.3,2,0.8c0.5,0.5,0.8,1.2,0.8,2v22.5c0,0.8-0.3,1.4-0.8,2c-0.5,0.5-1.2,0.8-2,0.8h-1.7L27.6,28c-0.6,0.6-1.3,1-2.1,1.3
	c-0.7,0.3-1.6,0.4-2.4,0.4c-1.8,0-3.4-0.7-4.8-2c-1.3-1.3-2-2.9-2-4.8c0-1.8,0.7-3.4,2-4.7c1.3-1.3,2.9-2,4.8-2s3.4,0.7,4.7,2
	c1.3,1.3,1.9,2.9,1.9,4.8c0,0.7-0.1,1.3-0.2,1.9c-0.2,0.6-0.5,1.2-0.9,1.9l9.6,9.7h1.1c0.3,0,0.6-0.1,0.8-0.4
	c0.3-0.3,0.4-0.5,0.4-0.8V12.8c0-0.3-0.1-0.6-0.4-0.8c-0.3-0.3-0.5-0.4-0.8-0.4H8.8c-0.3,0-0.6,0.1-0.8,0.4
	c-0.3,0.3-0.4,0.5-0.4,0.8v22.5c0,0.3,0.1,0.6,0.4,0.8c0.3,0.3,0.5,0.4,0.8,0.4H31L32.5,38z M23,28.2c1.5,0,2.7-0.5,3.7-1.5
	s1.5-2.2,1.5-3.8c0-1.5-0.5-2.7-1.5-3.7s-2.2-1.5-3.7-1.5c-1.4,0-2.7,0.5-3.7,1.5s-1.5,2.2-1.5,3.7s0.5,2.8,1.5,3.8
	S21.6,28.2,23,28.2z M7.5,36.5v-25V36.5z"/>
</svg>
