<?xml version="1.0" encoding="utf-8"?>
<!-- Generator: Adobe Illustrator 26.3.1, SVG Export Plug-In . SVG Version: 6.00 Build 0)  -->
<svg version="1.1" id="Слой_1" xmlns="http://www.w3.org/2000/svg" xmlns:xlink="http://www.w3.org/1999/xlink" x="0px" y="0px"
	 viewBox="0 0 48 48" style="enable-background:new 0 0 48 48;" xml:space="preserve">
<path d="M8,9.5V8h32v1.5H8z M37.2,14.8c0.8,0,1.4,0.3,2,0.8c0.5,0.5,0.8,1.2,0.8,2v19.7c0,0.8-0.3,1.4-0.8,2c-0.5,0.5-1.2,0.8-2,0.8
	H10.8c-0.8,0-1.4-0.3-2-0.8C8.3,38.7,8,38,8,37.2V17.5c0-0.8,0.3-1.4,0.8-2c0.5-0.5,1.2-0.8,2-0.8C10.8,14.8,37.2,14.8,37.2,14.8z
	 M37.2,16.3H10.8c-0.4,0-0.7,0.1-0.9,0.3c-0.2,0.2-0.3,0.5-0.3,0.9v19.7c0,0.4,0.1,0.7,0.3,0.9s0.5,0.3,0.9,0.3h26.5
	c0.4,0,0.7-0.1,0.9-0.3s0.3-0.5,0.3-0.9V17.5c0-0.4-0.1-0.7-0.3-0.9C37.9,16.4,37.6,16.3,37.2,16.3z M9.5,16.3v22.2V16.3z"/>
</svg>
