<?xml version="1.0" encoding="utf-8"?>
<!-- Generator: Adobe Illustrator 26.3.1, SVG Export Plug-In . SVG Version: 6.00 Build 0)  -->
<svg version="1.1" id="Слой_1" xmlns="http://www.w3.org/2000/svg" xmlns:xlink="http://www.w3.org/1999/xlink" x="0px" y="0px"
	 viewBox="0 0 48 48" style="enable-background:new 0 0 48 48;" xml:space="preserve">
<path d="M7.8,27.6c-1,0-1.8-0.4-2.6-1.1c-0.7-0.7-1-1.5-1-2.5s0.4-1.8,1.1-2.6c0.7-0.7,1.6-1.1,2.6-1.1s1.8,0.4,2.6,1.1
	c0.7,0.7,1.1,1.6,1.1,2.6s-0.4,1.8-1.1,2.6C9.6,27.3,8.8,27.6,7.8,27.6z M7.8,26.1c0.6,0,1.1-0.2,1.5-0.6s0.6-0.9,0.6-1.5
	s-0.2-1.1-0.6-1.5c-0.4-0.4-0.9-0.6-1.5-0.6s-1.1,0.2-1.5,0.6S5.7,23.4,5.7,24s0.2,1.1,0.6,1.5C6.7,25.9,7.2,26.1,7.8,26.1z
	 M18.5,27.6c-1,0-1.9-0.4-2.6-1.1c-0.7-0.7-1-1.6-1-2.6s0.3-1.8,1-2.6c0.7-0.7,1.6-1.1,2.6-1.1s1.8,0.4,2.6,1.1
	c0.7,0.7,1.1,1.6,1.1,2.6s-0.4,1.8-1.1,2.6C20.4,27.3,19.5,27.6,18.5,27.6z M18.5,26.1c0.6,0,1.1-0.2,1.5-0.6s0.6-0.9,0.6-1.5
	s-0.2-1.1-0.6-1.5s-0.9-0.6-1.5-0.6s-1.1,0.2-1.5,0.6s-0.6,0.9-0.6,1.5s0.2,1.1,0.6,1.5S17.9,26.1,18.5,26.1z M29.4,27.6
	c-1,0-1.8-0.4-2.6-1.1c-0.7-0.7-1.1-1.6-1.1-2.6s0.4-1.8,1.1-2.6c0.7-0.7,1.6-1.1,2.6-1.1s1.9,0.4,2.6,1.1s1,1.6,1,2.6
	s-0.3,1.8-1,2.6C31.3,27.3,30.4,27.6,29.4,27.6z M29.4,26.1c0.6,0,1.1-0.2,1.5-0.6s0.6-0.9,0.6-1.5s-0.2-1.1-0.6-1.5
	s-0.9-0.6-1.5-0.6s-1.1,0.2-1.5,0.6s-0.6,0.9-0.6,1.5s0.2,1.1,0.6,1.5S28.8,26.1,29.4,26.1z M40.2,27.6c-1,0-1.8-0.4-2.6-1.1
	c-0.6-0.7-1-1.5-1-2.5s0.4-1.8,1.1-2.6c0.7-0.7,1.6-1.1,2.6-1.1s1.8,0.4,2.6,1.1C43.6,22.1,44,23,44,24s-0.4,1.8-1.1,2.6
	C42.1,27.3,41.2,27.6,40.2,27.6z"/>
</svg>
