<?xml version="1.0" encoding="utf-8"?>
<!-- Generator: Adobe Illustrator 26.3.1, SVG Export Plug-In . SVG Version: 6.00 Build 0)  -->
<svg version="1.1" id="Слой_1" xmlns="http://www.w3.org/2000/svg" xmlns:xlink="http://www.w3.org/1999/xlink" x="0px" y="0px"
	 viewBox="0 0 48 48" style="enable-background:new 0 0 48 48;" xml:space="preserve">
<path d="M23.1,37.4h1.6V35c1.6-0.1,3-0.5,4.3-1.5c1.3-0.9,1.9-2.3,1.9-4.1c0-1.5-0.5-2.8-1.4-3.7c-0.9-0.9-2.6-1.9-4.9-2.8
	c-2.2-0.8-3.6-1.5-4.3-2.1s-1-1.5-1-2.6s0.4-2,1.3-2.7s2-1.1,3.4-1.1c1,0,1.9,0.2,2.6,0.7c0.7,0.4,1.4,1.1,1.9,1.8l1.4-0.6
	c-0.6-1-1.3-1.7-2.2-2.3c-0.9-0.6-1.9-0.9-2.9-1v-2.4h-1.6V13c-1.8,0.2-3.1,0.8-4,1.8s-1.4,2.1-1.4,3.4c0,1.5,0.5,2.7,1.4,3.5
	c0.9,0.9,2.5,1.7,4.7,2.5c2.2,0.9,3.7,1.7,4.4,2.4c0.7,0.7,1.1,1.6,1.1,2.8c0,1.4-0.5,2.4-1.6,3.1s-2.2,1-3.6,1
	c-1.2,0-2.3-0.3-3.3-1s-1.8-1.6-2.3-2.8l-1.4,0.6c0.7,1.3,1.5,2.4,2.5,3.1s2.1,1.2,3.4,1.6C23.1,34.9,23.1,37.4,23.1,37.4z M24,42
	c-2.5,0-4.8-0.5-7-1.4s-4.1-2.2-5.7-3.9c-1.6-1.6-2.9-3.5-3.9-5.7C6.5,28.8,6,26.5,6,24s0.5-4.8,1.4-7s2.2-4.1,3.9-5.7
	c1.6-1.6,3.5-2.9,5.7-3.9C19.2,6.5,21.5,6,24,6s4.8,0.5,7,1.4s4.1,2.2,5.7,3.9c1.6,1.6,2.9,3.5,3.9,5.7c0.9,2.2,1.4,4.5,1.4,7
	s-0.5,4.8-1.4,7s-2.2,4.1-3.9,5.7c-1.6,1.6-3.5,2.9-5.7,3.9C28.8,41.5,26.5,42,24,42z M24,40.5c4.6,0,8.5-1.6,11.7-4.8
	s4.8-7.1,4.8-11.7s-1.6-8.5-4.8-11.7S28.6,7.5,24,7.5s-8.5,1.6-11.7,4.8S7.5,19.4,7.5,24s1.6,8.5,4.8,11.7S19.4,40.5,24,40.5z"/>
</svg>
