<?xml version="1.0" encoding="utf-8"?>
<!-- Generator: Adobe Illustrator 26.3.1, SVG Export Plug-In . SVG Version: 6.00 Build 0)  -->
<svg version="1.1" id="Слой_1" xmlns="http://www.w3.org/2000/svg" xmlns:xlink="http://www.w3.org/1999/xlink" x="0px" y="0px"
	 viewBox="0 0 48 48" style="enable-background:new 0 0 48 48;" xml:space="preserve">
<path d="M23.9,42c-2.5,0-4.8-0.5-6.9-1.4c-2.2-0.9-4.1-2.2-5.7-3.9c-1.6-1.6-2.9-3.5-3.9-5.7C6.5,28.8,6,26.5,6,24s0.5-4.9,1.4-7.1
	c1-2.2,2.3-4.1,4-5.7s3.6-2.9,5.9-3.8C19.5,6.5,21.9,6,24.5,6c2.3,0,4.5,0.4,6.7,1.2c2.1,0.8,4,1.8,5.6,3.2s2.9,3,3.8,4.9
	s1.4,4,1.4,6.2c0,3-0.8,5.4-2.5,7.3s-4.1,2.8-7.3,2.8h-3.6c-1,0-1.8,0.4-2.5,1.1c-0.7,0.7-1.1,1.6-1.1,2.5c0,1.1,0.2,1.9,0.7,2.4
	s0.7,1.1,0.7,1.9c0,0.8-0.2,1.4-0.7,1.8C25.4,41.8,24.8,42,23.9,42z M12.7,24.7c0.5,0,0.9-0.2,1.2-0.5c0.4-0.4,0.5-0.8,0.5-1.2
	c0-0.5-0.2-0.9-0.5-1.2c-0.4-0.4-0.8-0.5-1.2-0.5c-0.5,0-0.9,0.2-1.2,0.5C11.1,22.2,11,22.6,11,23c0,0.5,0.2,0.9,0.5,1.2
	C11.8,24.5,12.2,24.7,12.7,24.7z M18.8,16.5c0.5,0,0.9-0.2,1.2-0.5c0.4-0.4,0.5-0.8,0.5-1.2c0-0.5-0.2-0.9-0.5-1.2
	c-0.4-0.4-0.8-0.5-1.2-0.5c-0.5,0-0.9,0.2-1.2,0.5c-0.4,0.4-0.5,0.8-0.5,1.2c0,0.5,0.2,0.9,0.5,1.2C18,16.3,18.4,16.5,18.8,16.5z
	 M29.2,16.5c0.5,0,0.9-0.2,1.2-0.5c0.4-0.4,0.5-0.8,0.5-1.2c0-0.5-0.2-0.9-0.5-1.2c-0.4-0.4-0.8-0.5-1.2-0.5c-0.5,0-0.9,0.2-1.2,0.5
	c-0.4,0.4-0.5,0.8-0.5,1.2c0,0.5,0.2,0.9,0.5,1.2C28.3,16.3,28.7,16.5,29.2,16.5z M35.4,24.7c0.5,0,0.9-0.2,1.2-0.5
	c0.4-0.4,0.5-0.8,0.5-1.2c0-0.5-0.2-0.9-0.5-1.2c-0.4-0.4-0.8-0.5-1.2-0.5s-0.9,0.2-1.2,0.5c-0.4,0.4-0.5,0.8-0.5,1.2
	c0,0.5,0.2,0.9,0.5,1.2C34.5,24.5,34.9,24.7,35.4,24.7z M23.9,40.5c0.4,0,0.6-0.1,0.8-0.2s0.3-0.4,0.3-0.7c0-0.5-0.2-0.9-0.7-1.3
	c-0.5-0.4-0.7-1.3-0.7-2.5c0-1.5,0.5-2.8,1.5-3.9s2.2-1.6,3.7-1.6h3.6c2.7,0,4.7-0.8,6.1-2.4c1.4-1.6,2.1-3.6,2.1-6.2
	c0-4.2-1.6-7.6-4.8-10.2s-6.9-3.9-11.1-3.9c-4.8,0-8.8,1.6-12,4.8c-3.5,3.1-5.2,7-5.2,11.6c0,4.5,1.6,8.4,4.8,11.6
	C15.5,38.9,19.4,40.5,23.9,40.5z"/>
</svg>
