<?xml version="1.0" encoding="utf-8"?>
<!-- Generator: Adobe Illustrator 26.3.1, SVG Export Plug-In . SVG Version: 6.00 Build 0)  -->
<svg version="1.1" id="Слой_1" xmlns="http://www.w3.org/2000/svg" xmlns:xlink="http://www.w3.org/1999/xlink" x="0px" y="0px"
	 viewBox="0 0 48 48" style="enable-background:new 0 0 48 48;" xml:space="preserve">
<path d="M7.8,39.2V37h32.5v2.2h-2.6v-1.1H25.3v1.1h-2.6v-1.1H10.4v1.1H7.8z M13.4,31.2c-0.4,0-0.7-0.1-1-0.4s-0.4-0.6-0.4-1V8.5
	c0-0.4,0.1-0.7,0.4-1c0.3-0.3,0.6-0.4,1-0.4h21.2c0.4,0,0.7,0.1,1,0.4s0.4,0.6,0.4,1v21.2c0,0.4-0.1,0.8-0.4,1
	c-0.3,0.3-0.6,0.4-1,0.4C34.6,31.2,13.4,31.2,13.4,31.2z M13.1,30.1h21.8V8.2H13.1V30.1z M18,15.8h12v-1.1H18V15.8z M13.1,30.1V8.2
	V30.1z"/>
</svg>
