<?xml version="1.0" encoding="utf-8"?>
<!-- Generator: Adobe Illustrator 26.3.1, SVG Export Plug-In . SVG Version: 6.00 Build 0)  -->
<svg version="1.1" id="Слой_1" xmlns="http://www.w3.org/2000/svg" xmlns:xlink="http://www.w3.org/1999/xlink" x="0px" y="0px"
	 viewBox="0 0 48 48" style="enable-background:new 0 0 48 48;" xml:space="preserve">
<path d="M24,38c-3,0-5.8-0.1-8.5-0.4s-5.3-0.7-7.8-1.3c-0.6-2-1-4-1.2-6C6.1,28.2,6,26.1,6,24s0.1-4.2,0.4-6.2s0.7-4,1.2-6
	c2.5-0.6,5-1,7.7-1.3C18,10.1,20.9,10,24,10s6,0.1,8.7,0.4c2.7,0.3,5.3,0.7,7.7,1.3c0.6,2,1,4,1.2,6c0.3,2,0.4,4.1,0.4,6.2
	s-0.1,4.2-0.4,6.2c-0.3,2-0.7,4-1.2,6c-2.5,0.6-5.1,1.1-7.8,1.3S27,38,24,38z M24,36.5c2.8,0,5.4-0.1,7.9-0.4
	c2.5-0.2,4.9-0.6,7.3-1.1c0.4-1.8,0.8-3.6,1-5.4s0.3-3.7,0.3-5.5s-0.1-3.7-0.3-5.5s-0.5-3.6-1-5.4c-2.3-0.5-4.7-0.9-7.2-1.1
	c-2.5-0.2-5.2-0.4-8-0.4s-5.5,0.1-8,0.4c-2.5,0.2-4.9,0.6-7.2,1.1c-0.4,1.8-0.8,3.6-1,5.4s-0.3,3.7-0.3,5.5s0.1,3.7,0.3,5.5
	c0.2,1.8,0.5,3.6,1,5.4c2.4,0.5,4.8,0.9,7.3,1.1C18.6,36.3,21.2,36.5,24,36.5z"/>
</svg>
