<?xml version="1.0" encoding="utf-8"?>
<!-- Generator: Adobe Illustrator 26.3.1, SVG Export Plug-In . SVG Version: 6.00 Build 0)  -->
<svg version="1.1" id="Слой_1" xmlns="http://www.w3.org/2000/svg" xmlns:xlink="http://www.w3.org/1999/xlink" x="0px" y="0px"
	 viewBox="0 0 48 48" style="enable-background:new 0 0 48 48;" xml:space="preserve">
<path d="M26.2,44h-5.5l0.3-0.2c0.2-0.2,0.3-0.3,0.5-0.5s0.4-0.4,0.5-0.5l0.2-0.2H26c3.1,0.1,6-0.8,8.7-2.5s4.8-3.9,6.3-6.6
	c-2.9-0.3-5.7-1-8.4-2.1c-2.7-1.2-5-2.8-7.1-4.9c-2.1-2-3.7-4.4-4.8-7c-1.2-2.6-1.9-5.4-2.1-8.3c-2.7,1.5-4.9,3.6-6.6,6.2
	S9.5,22.9,9.5,26c0,0.4,0,0.9,0.1,1.4c0,0.5,0.1,0.9,0.2,1.4l-0.2,0.1C9.5,29,9.3,29,9.1,29.1c-0.2,0-0.4,0.1-0.5,0.1L8.3,29
	c-0.1-0.5-0.2-1.1-0.2-1.6C8,26.9,8,26.3,8,25.8c0-3.9,1.1-7.4,3.4-10.5c2.2-3.1,5.2-5.3,8.9-6.5c-0.1,3.1,0.3,6.1,1.4,9
	s2.7,5.4,5,7.6c2.2,2.2,4.8,3.9,7.6,5c2.9,1.1,5.9,1.6,9,1.4c-1.2,3.7-3.4,6.6-6.5,8.9C33.6,42.9,30.1,44,26.2,44z M12,42.5h9
	c1,0,1.8-0.3,2.5-1s1-1.5,1-2.4s-0.3-1.8-1-2.5c-0.6-0.7-1.4-1-2.4-1h-2.3l-0.9-2.1c-0.5-1.2-1.3-2.1-2.4-2.8
	c-1.1-0.7-2.2-1.1-3.5-1.1c-1.8,0-3.3,0.6-4.6,1.9s-1.9,2.8-1.9,4.6s0.6,3.3,1.9,4.6S10.2,42.5,12,42.5z M12,44
	c-2.2-0.1-4.1-0.8-5.7-2.4C4.8,40.1,4,38.2,4,36s0.8-4.1,2.3-5.7C7.9,28.8,9.8,28,12,28c1.6,0,3.1,0.4,4.4,1.3s2.3,2.1,2.9,3.5
	l0.5,1.2H21c1.4,0,2.5,0.5,3.5,1.5s1.4,2.1,1.4,3.5s-0.5,2.6-1.5,3.5c-1,1-2.2,1.5-3.5,1.5H12z"/>
</svg>
