<?xml version="1.0" encoding="utf-8"?>
<!-- Generator: Adobe Illustrator 26.3.1, SVG Export Plug-In . SVG Version: 6.00 Build 0)  -->
<svg version="1.1" id="Слой_1" xmlns="http://www.w3.org/2000/svg" xmlns:xlink="http://www.w3.org/1999/xlink" x="0px" y="0px"
	 viewBox="0 0 48 48" style="enable-background:new 0 0 48 48;" xml:space="preserve">
<path d="M23.2,10.6V4.1h1.5v6.5H23.2z M34,15.1L32.9,14l4.6-4.6l1.1,1.1L34,15.1z M37.4,24.8v-1.5h6.5v1.5H37.4z M37.5,38.6L32.9,34
	l1.1-1.2l4.6,4.6L37.5,38.6z M14,15.1l-4.7-4.7l1.1-1.1l4.7,4.7L14,15.1z M13.2,38.7h8.2c1.2,0,2.3-0.4,3.2-1.3
	c0.9-0.9,1.3-1.9,1.3-3.2s-0.4-2.3-1.3-3.2c-0.8-0.9-1.9-1.3-3.1-1.3h-1.8L19,28.2c-0.6-1.2-1.4-2.2-2.5-3c-1.1-0.7-2.4-1.1-3.7-1.1
	c-2,0-3.6,0.7-5,2.1s-2.1,3-2.1,5c0,2.1,0.7,3.9,2.2,5.3C9.3,38,11.1,38.7,13.2,38.7z M13.2,40.2c-2.5,0-4.6-0.9-6.4-2.6
	c-1.8-1.8-2.6-3.9-2.6-6.4c0-2.4,0.8-4.4,2.5-6.1s3.7-2.5,6.1-2.5c1.8,0,3.4,0.5,4.8,1.5c1.5,1,2.5,2.4,3.1,4.1
	c1.7,0,3.3,0.5,4.6,1.5c1.3,1,2,2.5,2,4.5c-0.1,1.6-0.7,3-1.8,4.2c-1.1,1.2-2.5,1.8-4.2,1.8C21.4,40.2,13.2,40.2,13.2,40.2z
	 M27.2,33.5c0-0.3-0.1-0.5-0.2-0.8c0-0.2,0-0.4-0.1-0.7c1.7-0.7,3-1.7,4-3.2c1-1.4,1.5-3.1,1.5-4.8c0-2.4-0.8-4.3-2.5-6
	c-1.6-1.6-3.6-2.5-6-2.5c-2.2,0-4.1,0.7-5.7,2.2c-1.6,1.4-2.5,3.3-2.7,5.4C15.2,23,15,23,14.7,22.9c-0.3,0-0.5-0.1-0.8-0.2
	c0.3-2.5,1.4-4.6,3.3-6.3s4.1-2.5,6.6-2.5c2.8,0,5.1,1,7.1,2.9S34,21.2,34,24c0,2.2-0.6,4.1-1.9,5.8C30.9,31.5,29.3,32.8,27.2,33.5z
	"/>
</svg>
