<?xml version="1.0" encoding="utf-8"?>
<!-- Generator: Adobe Illustrator 26.3.1, SVG Export Plug-In . SVG Version: 6.00 Build 0)  -->
<svg version="1.1" id="Слой_1" xmlns="http://www.w3.org/2000/svg" xmlns:xlink="http://www.w3.org/1999/xlink" x="0px" y="0px"
	 viewBox="0 0 48 48" style="enable-background:new 0 0 48 48;" xml:space="preserve">
<path d="M24,16.5l-5.3-5.3L24,6l5.3,5.2L24,16.5z M4,38.8v-7c0-0.7,0.2-1.4,0.7-1.9s1.1-0.8,1.8-0.9h6c0.5,0,1,0.1,1.4,0.4
	c0.5,0.2,0.8,0.6,1.2,1c1,1.5,2.3,2.6,3.9,3.4s3.2,1.2,5,1.2s3.5-0.4,5-1.2c1.6-0.8,2.9-1.9,3.9-3.4c0.3-0.4,0.7-0.8,1.1-1
	c0.4-0.2,0.9-0.4,1.4-0.4h6c0.7,0.1,1.3,0.3,1.8,0.9c0.5,0.5,0.7,1.2,0.7,1.9v7H32.5v-5.5c-1.1,1-2.4,1.8-3.9,2.4
	c-1.4,0.6-3,0.9-4.6,0.9s-3.1-0.3-4.5-0.8c-1.4-0.6-2.7-1.4-3.9-2.4v5.5H4V38.8z M9.2,24.8c-1.3,0-2.4-0.5-3.4-1.4
	c-0.9-0.9-1.4-2.1-1.4-3.4s0.5-2.5,1.4-3.4s2.1-1.4,3.4-1.4s2.5,0.5,3.4,1.4c0.9,0.9,1.4,2.1,1.4,3.4s-0.5,2.4-1.4,3.4
	C11.6,24.3,10.5,24.8,9.2,24.8z M38.8,24.8c-1.3,0-2.4-0.5-3.4-1.4C34.5,22.5,34,21.3,34,20s0.5-2.5,1.4-3.4s2.1-1.4,3.4-1.4
	c1.3,0,2.5,0.5,3.4,1.4s1.4,2.1,1.4,3.4s-0.5,2.4-1.4,3.4C41.3,24.3,40.2,24.8,38.8,24.8z"/>
</svg>
