<?xml version="1.0" encoding="utf-8"?>
<!-- Generator: Adobe Illustrator 26.3.1, SVG Export Plug-In . SVG Version: 6.00 Build 0)  -->
<svg version="1.1" id="Слой_1" xmlns="http://www.w3.org/2000/svg" xmlns:xlink="http://www.w3.org/1999/xlink" x="0px" y="0px"
	 viewBox="0 0 48 48" style="enable-background:new 0 0 48 48;" xml:space="preserve">
<path d="M24,33.2c-0.3,0-0.6-0.1-0.8-0.3s-0.4-0.5-0.4-0.8s0.1-0.6,0.4-0.8c0.2-0.2,0.5-0.4,0.8-0.4s0.6,0.1,0.8,0.4
	c0.2,0.2,0.3,0.5,0.3,0.8s-0.1,0.6-0.3,0.8C24.6,33.1,24.3,33.2,24,33.2z M23.2,25.7V8h1.5v17.7C24.8,25.7,23.2,25.7,23.2,25.7z
	 M10.8,40c-0.8,0-1.4-0.3-2-0.8C8.3,38.7,8,38,8,37.2v-5.4h1.5v5.4c0,0.3,0.1,0.6,0.4,0.8s0.5,0.4,0.8,0.4h26.5
	c0.3,0,0.6-0.1,0.8-0.4c0.3-0.3,0.4-0.5,0.4-0.8v-5.4H40v5.4c0,0.8-0.3,1.4-0.8,2c-0.5,0.5-1.2,0.8-2,0.8H10.8z"/>
</svg>
