<?xml version="1.0" encoding="utf-8"?>
<!-- Generator: Adobe Illustrator 26.3.1, SVG Export Plug-In . SVG Version: 6.00 Build 0)  -->
<svg version="1.1" id="Слой_1" xmlns="http://www.w3.org/2000/svg" xmlns:xlink="http://www.w3.org/1999/xlink" x="0px" y="0px"
	 viewBox="0 0 48 48" style="enable-background:new 0 0 48 48;" xml:space="preserve">
<path d="M8.6,25c-1.3,0-2.4-0.5-3.3-1.4s-1.4-2-1.4-3.3C4,19,4.5,17.9,5.4,17s2-1.3,3.3-1.3s2.4,0.4,3.3,1.3s1.3,2,1.3,3.2
	c0,1.3-0.4,2.4-1.3,3.3C11,24.5,9.9,25,8.6,25z M6,36.5v-2h36v2H6z M24,24.9c-1.3,0-2.4-0.4-3.3-1.3s-1.3-2-1.3-3.2
	c0-1.3,0.5-2.4,1.4-3.3s2-1.4,3.3-1.4s2.4,0.5,3.3,1.4s1.3,2,1.3,3.3s-0.5,2.4-1.4,3.3C26.4,24.4,25.3,24.9,24,24.9z M39.4,24.9
	c-1.3,0-2.4-0.4-3.3-1.3c-0.9-0.9-1.3-2-1.3-3.2c0-1.3,0.4-2.4,1.3-3.3c0.9-0.9,2-1.4,3.3-1.4s2.4,0.5,3.3,1.4
	c0.9,0.9,1.4,2,1.4,3.3s-0.5,2.4-1.4,3.3C41.7,24.4,40.6,24.9,39.4,24.9z"/>
</svg>
