<?xml version="1.0" encoding="utf-8"?>
<!-- Generator: Adobe Illustrator 26.3.1, SVG Export Plug-In . SVG Version: 6.00 Build 0)  -->
<svg version="1.1" id="Слой_1" xmlns="http://www.w3.org/2000/svg" xmlns:xlink="http://www.w3.org/1999/xlink" x="0px" y="0px"
	 viewBox="0 0 48 48" style="enable-background:new 0 0 48 48;" xml:space="preserve">
<path d="M8.6,25c-1.3,0-2.4-0.5-3.3-1.4s-1.4-2-1.4-3.3C4,19,4.5,17.9,5.4,17s2-1.3,3.3-1.3s2.4,0.4,3.3,1.3s1.3,2,1.3,3.2
	c0,1.3-0.4,2.4-1.3,3.3C11,24.5,9.9,25,8.6,25z M39.4,24.9c-1.3,0-2.4-0.4-3.3-1.3c-0.9-0.9-1.3-2-1.3-3.2c0-1.3,0.4-2.4,1.3-3.3
	c0.9-0.9,2-1.4,3.3-1.4s2.4,0.5,3.3,1.4c0.9,0.9,1.4,2,1.4,3.3s-0.5,2.4-1.4,3.3C41.7,24.4,40.6,24.9,39.4,24.9z M27.7,22.9
	l-6.2-6.3c0.3-0.3,0.7-0.5,1.1-0.7s0.9-0.2,1.4-0.2c1.3,0,2.4,0.5,3.3,1.4s1.4,2,1.4,3.3c0,0.5-0.1,1-0.2,1.4
	C28.2,22.1,28,22.5,27.7,22.9z M41.5,43.8l-7.4-7.4H6v-2h26.2L4.3,6.6l1.1-1.1l37.2,37.2C42.6,42.7,41.5,43.8,41.5,43.8z"/>
</svg>
