<?xml version="1.0" encoding="utf-8"?>
<!-- Generator: Adobe Illustrator 26.3.1, SVG Export Plug-In . SVG Version: 6.00 Build 0)  -->
<svg version="1.1" id="Слой_1" xmlns="http://www.w3.org/2000/svg" xmlns:xlink="http://www.w3.org/1999/xlink" x="0px" y="0px"
	 viewBox="0 0 48 48" style="enable-background:new 0 0 48 48;" xml:space="preserve">
<path d="M8,38v-2.9c0-0.9,0.3-1.7,0.8-2.4s1.2-1.2,2-1.6c2-0.9,3.9-1.5,5.8-2c1.9-0.4,3.7-0.7,5.5-0.7c0.8,0,1.6,0,2.4,0.1
	s1.6,0.2,2.5,0.4c0,1.5,0.4,2.9,1.1,4.2s1.6,2.4,2.9,3.3V38H8z M37.4,43.4l-2.3-2.3v-7.2c-1.1-0.3-2.1-1-2.8-1.9
	c-0.7-0.9-1.1-2-1.1-3.2c0-1.5,0.5-2.8,1.6-3.8c1.1-1.1,2.3-1.6,3.8-1.6s2.8,0.5,3.8,1.6s1.6,2.3,1.6,3.8c0,1.2-0.3,2.2-1,3.1
	c-0.6,0.9-1.5,1.5-2.5,1.9l1.9,1.9L38.2,38l2.3,2.3L37.4,43.4z M22,23.1c-1.6,0-3-0.6-4.1-1.7s-1.7-2.5-1.7-4.1s0.6-3,1.7-4.1
	s2.5-1.7,4.1-1.7s3,0.6,4.1,1.7s1.7,2.5,1.7,4.1s-0.6,3-1.7,4.1S23.6,23.1,22,23.1z M36.6,29.5c0.4,0,0.8-0.2,1.1-0.5
	s0.5-0.7,0.5-1.1s-0.2-0.8-0.5-1.1c-0.3-0.3-0.7-0.5-1.1-0.5c-0.4,0-0.8,0.2-1.1,0.5S35,27.5,35,27.9s0.2,0.8,0.5,1.1
	C35.8,29.3,36.2,29.5,36.6,29.5z"/>
</svg>
