<?xml version="1.0" encoding="utf-8"?>
<!-- Generator: Adobe Illustrator 26.3.1, SVG Export Plug-In . SVG Version: 6.00 Build 0)  -->
<svg version="1.1" id="Слой_1" xmlns="http://www.w3.org/2000/svg" xmlns:xlink="http://www.w3.org/1999/xlink" x="0px" y="0px"
	 viewBox="0 0 48 48" style="enable-background:new 0 0 48 48;" xml:space="preserve">
<path d="M31.7,27.2c-1.3,0-2.3-0.4-3.2-1.3c-0.8-0.8-1.2-1.9-1.2-3.1c0-1.3,0.4-2.3,1.2-3.2c0.8-0.8,1.9-1.3,3.2-1.3
	c1.3,0,2.3,0.4,3.2,1.3c0.8,0.8,1.2,1.9,1.2,3.1c0,1.3-0.4,2.3-1.2,3.2S33,27.2,31.7,27.2z M21.3,37.7v-2c0-0.4,0.1-0.8,0.3-1.1
	c0.2-0.4,0.5-0.6,0.8-0.8c1.4-0.9,2.8-1.5,4.4-2s3.2-0.7,4.9-0.7c1.7,0,3.3,0.2,4.9,0.7c1.6,0.5,3.1,1.1,4.5,2
	c0.3,0.2,0.5,0.5,0.8,0.9c0.2,0.3,0.3,0.7,0.3,1.1v2C42.2,37.7,21.3,37.7,21.3,37.7z M22.6,35.3v0.9h18.2v-0.9
	c-1.4-0.8-2.9-1.5-4.5-2s-3.1-0.7-4.6-0.7c-1.5,0-3,0.2-4.6,0.7C25.5,33.8,24,34.5,22.6,35.3z M31.7,25.6c0.8,0,1.5-0.3,2.1-0.8
	c0.5-0.5,0.8-1.2,0.8-2.1c0-0.8-0.3-1.5-0.8-2.1s-1.2-0.8-2.1-0.8c-0.8,0-1.5,0.3-2.1,0.8c-0.5,0.6-0.8,1.2-0.8,2.1
	c0,0.8,0.3,1.5,0.8,2C30.2,25.3,30.9,25.6,31.7,25.6z M7.8,26.8v-1.5h13.7v1.5H7.8z M7.8,10.5V9h21.8v1.5H7.8z M24,18.6H7.8v-1.5H25
	c-0.2,0.3-0.4,0.5-0.6,0.8C24.2,18.1,24.1,18.4,24,18.6z"/>
</svg>
