<?xml version="1.0" encoding="utf-8"?>
<!-- Generator: Adobe Illustrator 26.3.1, SVG Export Plug-In . SVG Version: 6.00 Build 0)  -->
<svg version="1.1" id="Слой_1" xmlns="http://www.w3.org/2000/svg" xmlns:xlink="http://www.w3.org/1999/xlink" x="0px" y="0px"
	 viewBox="0 0 48 48" style="enable-background:new 0 0 48 48;" xml:space="preserve">
<path d="M11.7,38.5c-0.6,0-1.1-0.2-1.5-0.6S9.6,37,9.6,36.4s0.2-1.1,0.6-1.5c0.4-0.4,0.9-0.6,1.5-0.6c0.1,0,0.3,0,0.4,0.1
	c0.1,0,0.3,0.1,0.4,0.2l9.6-9.6c-0.2-0.4-0.3-0.8-0.2-1.2c0.1-0.4,0.3-0.8,0.6-1.1s0.7-0.5,1.1-0.6s0.8,0,1.2,0.1l9.5-9.5
	c0-0.1,0-0.3-0.1-0.4c-0.1-0.1-0.1-0.3-0.1-0.4c0-0.6,0.2-1.1,0.6-1.5c0.4-0.4,0.9-0.6,1.5-0.6s1.1,0.2,1.5,0.6s0.6,0.9,0.6,1.5
	s-0.2,1.1-0.6,1.5c-0.4,0.4-0.9,0.6-1.5,0.6c-0.5,0-0.8-0.1-0.9-0.2L26,23.2c0.2,0.4,0.2,0.8,0.1,1.3c-0.1,0.4-0.3,0.8-0.6,1.1
	c-0.3,0.3-0.7,0.5-1.1,0.6s-0.9,0-1.3-0.2l-9.5,9.6l0.1,0.1H22c0.2-0.4,0.4-0.7,0.8-1s0.8-0.4,1.2-0.4c0.5,0,0.9,0.1,1.3,0.4
	c0.4,0.3,0.6,0.6,0.8,1h8.3c0.2-0.4,0.4-0.7,0.8-1c0.4-0.3,0.8-0.4,1.2-0.4c0.6,0,1.1,0.2,1.5,0.6c0.4,0.4,0.6,0.9,0.6,1.5
	s-0.2,1.1-0.6,1.5c-0.4,0.4-0.9,0.6-1.5,0.6c-0.5,0-0.9-0.1-1.2-0.4c-0.4-0.2-0.6-0.6-0.8-1H26c-0.1,0.4-0.4,0.8-0.8,1
	s-0.8,0.4-1.2,0.4c-0.4,0-0.9-0.1-1.2-0.4c-0.4-0.2-0.6-0.6-0.8-1h-8.3c-0.1,0.4-0.4,0.8-0.8,1C12.5,38.3,12.1,38.5,11.7,38.5z
	 M11.7,26.1c-0.6,0-1.1-0.2-1.5-0.6S9.5,24.6,9.5,24s0.2-1.1,0.6-1.5c0.4-0.4,0.9-0.6,1.5-0.6s1.1,0.2,1.5,0.6s0.6,0.9,0.6,1.5
	s-0.2,1.1-0.6,1.5C12.8,25.9,12.3,26.1,11.7,26.1z M11.7,13.8c-0.6,0-1.1-0.2-1.5-0.6c-0.4-0.4-0.6-0.9-0.6-1.5s0.2-1.1,0.6-1.5
	c0.4-0.4,0.9-0.6,1.5-0.6s1.1,0.2,1.5,0.6c0.4,0.4,0.6,0.9,0.6,1.5s-0.2,1.1-0.6,1.5C12.8,13.6,12.3,13.8,11.7,13.8z M24,13.8
	c-0.6,0-1.1-0.2-1.5-0.6c-0.4-0.4-0.6-0.9-0.6-1.5s0.2-1.1,0.6-1.5s0.9-0.6,1.5-0.6s1.1,0.2,1.5,0.6c0.4,0.4,0.6,0.9,0.6,1.5
	s-0.2,1.1-0.6,1.5C25.1,13.6,24.6,13.8,24,13.8z M36.3,26.1c-0.6,0-1.1-0.2-1.5-0.6s-0.6-0.9-0.6-1.5s0.2-1.1,0.6-1.5
	c0.4-0.4,0.9-0.6,1.5-0.6s1.1,0.2,1.5,0.6s0.6,0.9,0.6,1.5s-0.2,1.1-0.6,1.5S36.9,26.1,36.3,26.1z"/>
</svg>
