<?xml version="1.0" encoding="utf-8"?>
<!-- Generator: Adobe Illustrator 26.3.1, SVG Export Plug-In . SVG Version: 6.00 Build 0)  -->
<svg version="1.1" id="Слой_1" xmlns="http://www.w3.org/2000/svg" xmlns:xlink="http://www.w3.org/1999/xlink" x="0px" y="0px"
	 viewBox="0 0 48 48" style="enable-background:new 0 0 48 48;" xml:space="preserve">
<path d="M26.5,25.3c-1.1,0-2.1-0.4-2.8-1.2c-0.8-0.8-1.2-1.7-1.2-2.8c0-1.1,0.4-2.1,1.2-2.8c0.8-0.8,1.7-1.2,2.8-1.2
	s2.1,0.4,2.8,1.2c0.8,0.8,1.2,1.7,1.2,2.8c0,1.1-0.4,2.1-1.2,2.8C28.6,24.9,27.7,25.3,26.5,25.3z M13.2,32.2c-0.7,0-1.4-0.3-1.9-0.8
	s-0.8-1.2-0.8-1.9V13.2c0-0.7,0.3-1.4,0.8-1.9c0.6-0.6,1.2-0.8,1.9-0.8h26.6c0.7,0,1.4,0.3,1.9,0.8c0.6,0.6,0.8,1.2,0.8,1.9v16.2
	c0,0.7-0.3,1.4-0.8,1.9c-0.6,0.6-1.2,0.8-1.9,0.8C39.8,32.2,13.2,32.2,13.2,32.2z M15.7,30.6h21.7c0-1,0.4-1.9,1.1-2.6
	c0.7-0.7,1.6-1.1,2.6-1.1V15.7c-1,0-1.9-0.4-2.6-1.1c-0.7-0.7-1.1-1.6-1.1-2.6H15.7c0,1-0.4,1.9-1.1,2.6c-0.7,0.7-1.6,1.1-2.6,1.1
	v11.2c1,0,1.9,0.4,2.6,1.1C15.3,28.7,15.7,29.6,15.7,30.6z M36.7,37.2H8.2c-0.7,0-1.4-0.3-1.9-0.8s-0.8-1.2-0.8-1.9V16.4H7v18.1
	c0,0.3,0.1,0.6,0.4,0.8c0.3,0.3,0.5,0.4,0.8,0.4h28.5V37.2z M13.2,30.6H12V12h1.2c-0.3,0-0.6,0.1-0.9,0.4c-0.2,0.2-0.4,0.5-0.4,0.9
	v16.2c0,0.3,0.1,0.6,0.4,0.9C12.6,30.5,12.9,30.6,13.2,30.6z"/>
</svg>
