<?xml version="1.0" encoding="utf-8"?>
<!-- Generator: Adobe Illustrator 26.3.1, SVG Export Plug-In . SVG Version: 6.00 Build 0)  -->
<svg version="1.1" id="Слой_1" xmlns="http://www.w3.org/2000/svg" xmlns:xlink="http://www.w3.org/1999/xlink" x="0px" y="0px"
	 viewBox="0 0 48 48" style="enable-background:new 0 0 48 48;" xml:space="preserve">
<path d="M14.4,23.8h2.8c0.2,0,0.3-0.1,0.4-0.2s0.2-0.3,0.2-0.4v-2.5c0-0.2-0.1-0.3-0.2-0.4s-0.3-0.2-0.4-0.2h-2.8
	C14.4,20.1,14.4,23.8,14.4,23.8z M12.8,29.4V18.6H17c0.5,0,1.1,0.3,1.6,0.8s0.8,1.1,0.8,1.6v2c0,0.7-0.2,1.2-0.7,1.7s-1,0.7-1.7,0.7
	h-2.6v4C14.4,29.4,12.8,29.4,12.8,29.4z M21.6,29.4v-7.7l1.5,1.5v4.6h3.5v-1.2L28,28c-0.2,0.4-0.5,0.7-0.9,1
	c-0.4,0.2-0.8,0.4-1.3,0.4C25.7,29.4,21.6,29.4,21.6,29.4z M28.1,23.2l-1.6-1.7v-0.8c0-0.2-0.1-0.3-0.2-0.4s-0.2-0.2-0.4-0.2h-0.8
	l-1.6-1.6h2.2c0.7,0,1.3,0.2,1.7,0.7c0.5,0.5,0.7,1,0.7,1.7C28.1,21,28.1,23.2,28.1,23.2z M32.1,27.2l-1.5-1.5v-7h5.6v1.5h-4.1v3.5
	h4.1v1.5h-4.1C32.1,25.1,32.1,27.2,32.1,27.2z M40,35.1l-1.5-1.5V10.8c0-0.4-0.1-0.7-0.3-0.9s-0.5-0.3-0.9-0.3H14.5L12.9,8h24.3
	c0.7,0,1.4,0.3,1.9,0.8c0.6,0.6,0.9,1.2,0.9,2V35.1z M10.8,40c-0.7,0-1.4-0.3-1.9-0.8C8.3,38.6,8,38,8,37.2V10.8
	c0-0.4,0.1-0.7,0.2-1.1c0.1-0.3,0.3-0.6,0.6-0.8l0.8,0.7v27.6c0,0.4,0.1,0.7,0.3,0.9s0.5,0.3,0.9,0.3h27.6l0.7,0.8
	c-0.2,0.3-0.5,0.5-0.8,0.6C38,39.9,37.6,40,37.2,40H10.8z M39.4,41.7L6.6,8.9l1.1-1.1l32.8,32.8L39.4,41.7z"/>
</svg>
