<?xml version="1.0" encoding="utf-8"?>
<!-- Generator: Adobe Illustrator 26.3.1, SVG Export Plug-In . SVG Version: 6.00 Build 0)  -->
<svg version="1.1" id="Слой_1" xmlns="http://www.w3.org/2000/svg" xmlns:xlink="http://www.w3.org/1999/xlink" x="0px" y="0px"
	 viewBox="0 0 48 48" style="enable-background:new 0 0 48 48;" xml:space="preserve">
<path d="M9.8,39c-2.5,0-4.6-0.9-6.3-2.6C1.9,34.7,1,32.6,1,30.1s0.9-4.6,2.6-6.3c1.7-1.8,3.8-2.6,6.3-2.6c2.2,0,4.1,0.8,5.9,2.3
	c1.7,1.5,2.7,3.5,2.9,5.8h4.1l-4.5-12.8H15V15h7.7v1.5h-2.8l1.7,4.6h12.5l-3.7-9.9c-0.1-0.2-0.2-0.4-0.4-0.5
	c-0.2-0.1-0.4-0.2-0.6-0.2h-4.2V9h4.1c0.6,0,1.1,0.2,1.6,0.5s0.8,0.8,1,1.3l3.8,10.4h2.4c2.4,0,4.5,0.9,6.3,2.6
	c1.7,1.7,2.6,3.8,2.6,6.2c0,2.5-0.9,4.6-2.6,6.3c-1.7,1.7-3.8,2.6-6.3,2.6c-2.3,0-4.3-0.8-6-2.3c-1.7-1.6-2.6-3.5-2.9-5.8H18.7
	c-0.2,2.3-1.2,4.3-2.9,5.8C14,38.2,12.1,39,9.8,39z M9.9,37.5c1.8,0,3.3-0.6,4.7-1.8s2.3-2.8,2.6-4.9h-6.1v-1.5h6.1
	c-0.4-2-1.3-3.6-2.6-4.8c-1.4-1.2-2.9-1.7-4.7-1.7c-2.1,0-3.8,0.7-5.2,2.1S2.6,28,2.6,30.1s0.7,3.8,2.1,5.2S7.8,37.5,9.9,37.5z
	 M24.5,29.3h4.8c0.1-0.9,0.5-2.1,1.1-3.4c0.6-1.4,1.5-2.4,2.7-3.2h-11C22.1,22.7,24.5,29.3,24.5,29.3z M38.2,37.5
	c2,0,3.8-0.7,5.2-2.1c1.4-1.4,2.1-3.2,2.1-5.2c0-2.1-0.7-3.8-2.1-5.2c-1.4-1.4-3.1-2.1-5.2-2.1c-0.3,0-0.6,0-1,0
	c-0.3,0-0.6,0.1-0.9,0.1l2.1,5.7L37,29.2l-2.1-5.7c-1.3,0.6-2.3,1.6-3,2.8c-0.7,1.3-1,2.5-1,3.8c0,2.1,0.7,3.8,2.1,5.2
	C34.4,36.7,36.1,37.5,38.2,37.5z"/>
</svg>
