<?xml version="1.0" encoding="utf-8"?>
<!-- Generator: Adobe Illustrator 26.3.1, SVG Export Plug-In . SVG Version: 6.00 Build 0)  -->
<svg version="1.1" id="Слой_1" xmlns="http://www.w3.org/2000/svg" xmlns:xlink="http://www.w3.org/1999/xlink" x="0px" y="0px"
	 viewBox="0 0 48 48" style="enable-background:new 0 0 48 48;" xml:space="preserve">
<path d="M16.8,14.7c-0.2,0-0.4-0.1-0.5-0.2c-0.1-0.1-0.2-0.3-0.2-0.6s0.1-0.4,0.2-0.5s0.3-0.2,0.5-0.2h6.5V8.3
	c0-0.2,0.1-0.4,0.2-0.5s0.3-0.2,0.6-0.2c0.2,0,0.4,0.1,0.5,0.2s0.2,0.3,0.2,0.5v4.8h6.5c0.2,0,0.4,0.1,0.5,0.2
	c0.1,0.1,0.2,0.3,0.2,0.6c0,0.2-0.1,0.4-0.2,0.5s-0.3,0.2-0.5,0.2L16.8,14.7L16.8,14.7z M18.8,41.2c-0.7,0-1.4-0.3-1.9-0.8
	c-0.6-0.6-0.8-1.2-0.8-1.9V21.8c0-1.3,0.5-2.5,1.4-3.4s2.1-1.4,3.4-1.4h6.3c1.3,0,2.5,0.5,3.4,1.4s1.4,2.1,1.4,3.4v16.6
	c0,0.7-0.3,1.4-0.8,1.9c-0.6,0.6-1.2,0.8-1.9,0.8C29.2,41.2,18.8,41.2,18.8,41.2z M17.5,39.6h11.7c0.4,0,0.7-0.1,0.9-0.3
	c0.2-0.2,0.3-0.5,0.3-0.9V21.8c0-0.9-0.3-1.7-1-2.4c-0.6-0.6-1.4-1-2.4-1h-6.3c-0.9,0-1.7,0.3-2.4,1c-0.6,0.6-1,1.4-1,2.4v2.7H22
	c0.2,0,0.4,0.1,0.5,0.2s0.2,0.3,0.2,0.6c0,0.2-0.1,0.4-0.2,0.5C22.4,26,22.2,26,22,26h-4.5v6H22c0.2,0,0.4,0.1,0.5,0.2
	c0.1,0.1,0.2,0.3,0.2,0.6s-0.1,0.4-0.2,0.5s-0.3,0.2-0.5,0.2h-4.5C17.5,33.6,17.5,39.6,17.5,39.6z M17.5,39.6V18.5V39.6z"/>
</svg>
