<?xml version="1.0" encoding="utf-8"?>
<!-- Generator: Adobe Illustrator 26.3.1, SVG Export Plug-In . SVG Version: 6.00 Build 0)  -->
<svg version="1.1" id="Слой_1" xmlns="http://www.w3.org/2000/svg" xmlns:xlink="http://www.w3.org/1999/xlink" x="0px" y="0px"
	 viewBox="0 0 48 48" style="enable-background:new 0 0 48 48;" xml:space="preserve">
<path d="M6,42L42,6v18.9c-0.2-0.1-0.5-0.2-0.7-0.3s-0.5-0.2-0.8-0.3V9.7L9.7,40.5h16c0.1,0.3,0.3,0.5,0.4,0.8s0.2,0.5,0.4,0.8
	C26.5,42,6,42,6,42z M9.7,40.5L40.5,9.7C35.3,14.9,30.2,20,25.1,25.1S14.9,35.3,9.7,40.5z M36.2,43.5V42c-0.8-0.1-1.5-0.4-2.2-0.8
	c-0.7-0.4-1.3-0.9-1.8-1.4l-1.3,0.7L30,39.2l1.2-0.9c-0.3-0.8-0.4-1.6-0.4-2.4c0-0.8,0.1-1.6,0.4-2.4L30,32.6l0.9-1.3l1.3,0.7
	c0.5-0.6,1.1-1.1,1.8-1.5s1.4-0.6,2.2-0.8l0.1-1.5h1.5l0.1,1.5c0.8,0.1,1.5,0.4,2.2,0.8s1.3,0.9,1.8,1.5l1.3-0.7l0.9,1.3l-1.2,0.9
	c0.3,0.8,0.4,1.6,0.4,2.4c0,0.8-0.1,1.6-0.4,2.4l1.2,0.9l-0.9,1.3l-1.3-0.7c-0.5,0.6-1.1,1.1-1.8,1.4c-0.7,0.4-1.4,0.6-2.2,0.8
	l-0.1,1.5H36.2z M37,40.6c1.3,0,2.5-0.5,3.4-1.4s1.4-2.1,1.4-3.4c0-1.3-0.5-2.5-1.4-3.4c-1-0.9-2.1-1.4-3.4-1.4s-2.5,0.5-3.4,1.4
	s-1.4,2.1-1.4,3.4c0,1.3,0.5,2.5,1.4,3.4C34.5,40.2,35.6,40.6,37,40.6z"/>
</svg>
