<?xml version="1.0" encoding="utf-8"?>
<!-- Generator: Adobe Illustrator 26.3.1, SVG Export Plug-In . SVG Version: 6.00 Build 0)  -->
<svg version="1.1" id="Слой_1" xmlns="http://www.w3.org/2000/svg" xmlns:xlink="http://www.w3.org/1999/xlink" x="0px" y="0px"
	 viewBox="0 0 48 48" style="enable-background:new 0 0 48 48;" xml:space="preserve">
<path d="M19.6,40H8.8c-0.8,0-1.4-0.3-2-0.8C6.3,38.7,6,38,6,37.2V14.9c0-0.8,0.3-1.4,0.8-2c0.5-0.5,1.2-0.8,2-0.8h6.4L18.8,8h10.3
	l3.7,4.2h6.4c0.8,0,1.4,0.3,2,0.8c0.5,0.5,0.8,1.2,0.8,2v22.3c0,0.8-0.3,1.4-0.8,2c-0.5,0.5-1.2,0.8-2,0.8H28.4v-1.5h10.8
	c0.3,0,0.6-0.1,0.8-0.4c0.3-0.3,0.4-0.5,0.4-0.8V14.9c0-0.3-0.1-0.6-0.4-0.8c-0.3-0.3-0.5-0.4-0.8-0.4h-7.1l-3.7-4.2h-8.9l-3.7,4.2
	h-7c-0.3,0-0.6,0.1-0.8,0.4c-0.3,0.3-0.4,0.5-0.4,0.8v22.3c0,0.3,0.1,0.6,0.4,0.8c0.3,0.3,0.5,0.4,0.8,0.4h10.8
	C19.6,38.5,19.6,40,19.6,40z M23.2,40h1.5v-7.2c2.6-0.3,4.7-1.3,6.5-3.1c1.7-1.8,2.6-4,2.6-6.6h-1.5c0,2.2-0.8,4.1-2.4,5.7
	s-3.6,2.5-5.9,2.5s-4.3-0.8-5.9-2.5c-1.6-1.6-2.4-3.5-2.4-5.7h-1.5c0,2.6,0.9,4.8,2.6,6.6c1.7,1.8,3.9,2.9,6.5,3.1V40H23.2z
	 M24,25.2c0.6,0,1.1-0.2,1.5-0.6s0.6-0.9,0.6-1.5v-8.3c0-0.6-0.2-1.1-0.6-1.5s-0.9-0.6-1.5-0.6s-1.1,0.2-1.5,0.6
	c-0.4,0.4-0.6,0.9-0.6,1.5v8.3c0,0.6,0.2,1.1,0.6,1.5S23.4,25.2,24,25.2z M8.8,38.5h31.7h-33H8.8z"/>
</svg>
