<?xml version="1.0" encoding="utf-8"?>
<!-- Generator: Adobe Illustrator 26.3.1, SVG Export Plug-In . SVG Version: 6.00 Build 0)  -->
<svg version="1.1" id="Слой_1" xmlns="http://www.w3.org/2000/svg" xmlns:xlink="http://www.w3.org/1999/xlink" x="0px" y="0px"
	 viewBox="0 0 48 48" style="enable-background:new 0 0 48 48;" xml:space="preserve">
<path d="M24,34.5c-2.4,0-4.8,0.5-7.1,1.4s-4.4,2.3-6.4,4.2v0.1c0.1,0.1,0.2,0.1,0.3,0.2c0.1,0,0.2,0.1,0.3,0.1h25.6
	c0.1,0,0.2,0,0.3-0.1c0.1,0,0.2-0.1,0.3-0.2l0,0c-1.9-1.9-4-3.3-6.3-4.2C28.8,35,26.4,34.5,24,34.5z M9.5,38.8
	c1.9-1.8,4-3.3,6.5-4.3s5.1-1.6,8-1.6s5.5,0.5,7.9,1.6c2.5,1,4.6,2.5,6.5,4.3V12.3c0-0.3-0.1-0.6-0.4-0.8c-0.3-0.3-0.5-0.4-0.8-0.4
	H10.8c-0.3,0-0.6,0.1-0.8,0.4S9.5,12,9.5,12.3V38.8z M24,27.1c-1.6,0-3-0.6-4.2-1.7c-1.1-1.1-1.7-2.5-1.7-4.2c0-1.6,0.6-3,1.7-4.2
	c1.1-1.1,2.5-1.7,4.2-1.7s3,0.6,4.2,1.7c1.1,1.2,1.7,2.5,1.7,4.2c0,1.6-0.6,3-1.7,4.2C27,26.6,25.6,27.1,24,27.1z M24,25.6
	c1.2,0,2.2-0.4,3.1-1.3c0.8-0.9,1.3-1.9,1.3-3.1S28,19,27.1,18.1c-0.9-0.8-1.9-1.3-3.1-1.3s-2.2,0.4-3.1,1.3s-1.3,1.9-1.3,3.1
	s0.4,2.2,1.3,3.1S22.8,25.6,24,25.6z M10.8,42c-0.8,0-1.4-0.3-2-0.8C8.3,40.7,8,40,8,39.2V12.3c0-0.8,0.3-1.4,0.8-2
	c0.5-0.5,1.2-0.8,2-0.8h4.1v-4h1.8v4h14.8v-4h1.7v4h4.1c0.8,0,1.4,0.3,2,0.8c0.5,0.5,0.8,1.2,0.8,2v26.9c0,0.8-0.3,1.4-0.8,2
	c-0.5,0.5-1.2,0.8-2,0.8H10.8z M24,40.5h13.4H10.5H24z"/>
</svg>
