<?xml version="1.0" encoding="utf-8"?>
<!-- Generator: Adobe Illustrator 26.3.1, SVG Export Plug-In . SVG Version: 6.00 Build 0)  -->
<svg version="1.1" id="Слой_1" xmlns="http://www.w3.org/2000/svg" xmlns:xlink="http://www.w3.org/1999/xlink" x="0px" y="0px"
	 viewBox="0 0 48 48" style="enable-background:new 0 0 48 48;" xml:space="preserve">
<path d="M24,39.2L2.8,18c3-2.6,6.2-4.5,9.8-5.9S20,10,24,10s7.7,0.7,11.3,2.1s6.9,3.4,9.8,5.9L24,39.2z M24,37.1l18.8-18.9
	c-2.7-2.1-5.7-3.7-8.9-4.9c-3.2-1.2-6.5-1.7-10-1.7s-6.8,0.6-10,1.7c-3.2,1.2-6.1,2.8-8.9,4.9L24,37.1z M23.2,30.3h1.5V19.9h-1.5
	V30.3z M24,17.2c0.3,0,0.5-0.1,0.7-0.3s0.3-0.4,0.3-0.7c0-0.3-0.1-0.5-0.3-0.7c-0.2-0.2-0.4-0.3-0.7-0.3s-0.5,0.1-0.7,0.3
	C23.1,15.8,23,16,23,16.2c0,0.3,0.1,0.5,0.3,0.7S23.7,17.3,24,17.2z"/>
</svg>
