<?xml version="1.0" encoding="utf-8"?>
<!-- Generator: Adobe Illustrator 26.3.1, SVG Export Plug-In . SVG Version: 6.00 Build 0)  -->
<svg version="1.1" id="Слой_1" xmlns="http://www.w3.org/2000/svg" xmlns:xlink="http://www.w3.org/1999/xlink" x="0px" y="0px"
	 viewBox="0 0 48 48" style="enable-background:new 0 0 48 48;" xml:space="preserve">
<path d="M24,22.8c-1.6,0-3-0.5-4.1-1.6s-1.6-2.5-1.6-4.1c0-1.7,0.5-3,1.6-4.1s2.5-1.6,4.1-1.6s3,0.5,4.1,1.6s1.6,2.5,1.6,4.1
	c0,1.7-0.5,3-1.6,4.1C27,22.2,25.6,22.8,24,22.8z M10,37.2v-2.9c0-0.9,0.3-1.7,0.8-2.4c0.5-0.7,1.2-1.2,2-1.6c2-0.9,3.9-1.5,5.8-2
	c1.9-0.4,3.7-0.7,5.5-0.7s3.6,0.2,5.5,0.7s3.8,1.1,5.7,2c0.8,0.4,1.5,0.9,2,1.6c0.5,0.7,0.8,1.5,0.8,2.4v2.9H10z M11.5,35.7h24.9
	v-1.4c0-0.5-0.2-1-0.5-1.5s-0.8-0.9-1.4-1.2c-1.8-0.9-3.6-1.5-5.3-1.9c-1.7-0.4-3.5-0.6-5.3-0.6s-3.6,0.2-5.3,0.6
	c-1.7,0.4-3.5,1-5.3,1.9c-0.6,0.3-1.1,0.7-1.4,1.2c-0.3,0.5-0.5,1-0.5,1.5C11.5,34.3,11.5,35.7,11.5,35.7z M24,21.2
	c1.2,0,2.2-0.4,3-1.2c0.8-0.8,1.2-1.8,1.2-3s-0.4-2.2-1.2-3c-0.8-0.8-1.8-1.2-3-1.2s-2.2,0.4-3,1.2s-1.2,1.8-1.2,3s0.4,2.2,1.2,3
	C21.8,20.8,22.8,21.2,24,21.2z"/>
</svg>
