<?xml version="1.0" encoding="utf-8"?>
<!-- Generator: Adobe Illustrator 26.3.1, SVG Export Plug-In . SVG Version: 6.00 Build 0)  -->
<svg version="1.1" id="Слой_1" xmlns="http://www.w3.org/2000/svg" xmlns:xlink="http://www.w3.org/1999/xlink" x="0px" y="0px"
	 viewBox="0 0 48 48" style="enable-background:new 0 0 48 48;" xml:space="preserve">
<path d="M10,37.2v-2.9c0-0.9,0.3-1.7,0.8-2.4c0.5-0.7,1.2-1.2,2-1.6c2-0.9,3.9-1.5,5.8-2c1.9-0.4,3.7-0.7,5.5-0.7
	c0.9,0,1.8,0.1,2.8,0.2c0.9,0.1,1.9,0.3,2.8,0.5l-1.2,1.2c-0.7-0.1-1.4-0.2-2.1-0.3c-0.7-0.1-1.4-0.1-2.2-0.1
	c-1.8,0-3.6,0.2-5.3,0.6c-1.7,0.4-3.5,1-5.3,1.9c-0.6,0.3-1.1,0.7-1.4,1.2c-0.3,0.5-0.5,1-0.5,1.5v1.4h12.6v1.5
	C24.2,37.2,10,37.2,10,37.2z M28.5,40v-4.4L39.1,25c0.2-0.2,0.4-0.3,0.6-0.4c0.2-0.1,0.4-0.1,0.6-0.1c0.2,0,0.5,0,0.7,0.1
	s0.4,0.2,0.6,0.4l1.9,1.9c0.2,0.2,0.3,0.4,0.4,0.6c0.1,0.2,0.1,0.4,0.1,0.6s0,0.4-0.1,0.6s-0.2,0.4-0.4,0.6L32.9,40H28.5z
	 M42.2,28.1l-1.8-1.9L42.2,28.1z M30.2,38.2h1.9l6.9-6.9l-0.9-1l-0.9-1l-7,7C30.2,36.3,30.2,38.2,30.2,38.2z M38.1,30.3l-0.9-1
	l1.9,1.9L38.1,30.3z M24,22.8c-1.6,0-3-0.6-4.1-1.7s-1.7-2.5-1.7-4.1s0.6-3,1.7-4.1s2.5-1.7,4.1-1.7s3,0.6,4.1,1.7s1.7,2.5,1.7,4.1
	s-0.6,3-1.7,4.1C27,22.2,25.6,22.8,24,22.8z M24,21.2c1.2,0,2.2-0.4,3-1.2c0.8-0.8,1.2-1.8,1.2-3s-0.4-2.2-1.2-3
	c-0.8-0.8-1.8-1.2-3-1.2s-2.2,0.4-3,1.2s-1.2,1.8-1.2,3s0.4,2.2,1.2,3C21.8,20.8,22.8,21.2,24,21.2z"/>
</svg>
