<?xml version="1.0" encoding="utf-8"?>
<!-- Generator: Adobe Illustrator 26.3.1, SVG Export Plug-In . SVG Version: 6.00 Build 0)  -->
<svg version="1.1" id="Слой_1" xmlns="http://www.w3.org/2000/svg" xmlns:xlink="http://www.w3.org/1999/xlink" x="0px" y="0px"
	 viewBox="0 0 48 48" style="enable-background:new 0 0 48 48;" xml:space="preserve">
<path d="M22,22.3c-1.6,0-2.9-0.6-4.1-1.7c-1.1-1.1-1.7-2.5-1.7-4c0-1.6,0.6-3,1.7-4.1s2.5-1.7,4-1.7c1.6,0,3,0.6,4.1,1.7
	s1.7,2.5,1.7,4.1s-0.6,2.9-1.7,4.1C24.9,21.7,23.6,22.3,22,22.3z M22,20.8c1.2,0,2.2-0.4,3-1.2c0.8-0.8,1.2-1.8,1.2-3
	s-0.4-2.2-1.2-3c-0.8-0.8-1.8-1.2-3-1.2s-2.2,0.4-3,1.2s-1.2,1.8-1.2,3s0.4,2.2,1.2,3C19.8,20.4,20.8,20.8,22,20.8z M42.7,43.8
	l-5.6-5.6c-0.7,0.5-1.4,0.9-2.1,1.1c-0.7,0.2-1.4,0.3-2,0.3c-1.9,0-3.4-0.6-4.7-1.9s-1.9-2.9-1.9-4.7s0.6-3.4,1.9-4.7
	c1.3-1.3,2.9-1.9,4.7-1.9c1.8,0,3.4,0.6,4.7,1.9s1.9,2.9,1.9,4.7c0,0.6-0.1,1.3-0.3,2s-0.6,1.4-1.1,2.1l5.6,5.6
	C43.8,42.7,42.7,43.8,42.7,43.8z M33,38.1c1.4,0,2.6-0.5,3.6-1.5s1.5-2.2,1.5-3.6c0-1.4-0.5-2.6-1.5-3.6s-2.2-1.5-3.6-1.5
	c-1.4,0-2.6,0.5-3.6,1.5s-1.5,2.2-1.5,3.6c0,1.4,0.5,2.6,1.5,3.6S31.6,38.1,33,38.1z M8,37.2v-2.9c0-0.9,0.2-1.7,0.7-2.3
	c0.5-0.6,1.2-1.2,2-1.7c1.4-0.7,3.3-1.3,5.8-2s5-0.9,7.8-0.6c-0.1,0.3-0.3,0.5-0.4,0.8s-0.2,0.5-0.3,0.7c-2.7-0.2-5.1,0-7.3,0.7
	c-2.2,0.6-3.8,1.2-4.8,1.8c-0.6,0.3-1,0.7-1.4,1.1c-0.3,0.5-0.5,1-0.5,1.5v1.4h13.6c0.2,0.2,0.3,0.5,0.4,0.8s0.2,0.5,0.4,0.8L8,37.2
	L8,37.2z"/>
</svg>
