<?xml version="1.0" encoding="utf-8"?>
<!-- Generator: Adobe Illustrator 26.3.1, SVG Export Plug-In . SVG Version: 6.00 Build 0)  -->
<svg version="1.1" id="Слой_1" xmlns="http://www.w3.org/2000/svg" xmlns:xlink="http://www.w3.org/1999/xlink" x="0px" y="0px"
	 viewBox="0 0 48 48" style="enable-background:new 0 0 48 48;" xml:space="preserve">
<path d="M24,22.8c-1.6,0-3-0.6-4.1-1.7s-1.7-2.5-1.7-4.1s0.6-3,1.7-4.1s2.5-1.7,4.1-1.7s3,0.6,4.1,1.7s1.7,2.5,1.7,4.1
	s-0.6,3-1.7,4.1C27,22.2,25.6,22.8,24,22.8z M10,37.2v-2.9c0-0.9,0.3-1.6,0.8-2.3s1.2-1.3,2-1.6c1.8-0.8,3.6-1.4,5.5-1.9
	s3.8-0.7,5.7-0.7c2,0,3.9,0.2,5.7,0.7c1.9,0.5,3.7,1.1,5.5,1.9c0.8,0.4,1.5,0.9,2,1.6s0.8,1.5,0.8,2.3v2.9H10z M24,21.2
	c1.2,0,2.2-0.4,3-1.2c0.8-0.8,1.2-1.8,1.2-3s-0.4-2.2-1.2-3c-0.8-0.8-1.8-1.2-3-1.2s-2.2,0.4-3,1.2s-1.2,1.8-1.2,3s0.4,2.2,1.2,3
	C21.8,20.8,22.8,21.2,24,21.2z M30.8,30.3v5.4h5.6v-1.4c0-0.6-0.2-1.1-0.6-1.5c-0.4-0.5-0.8-0.8-1.4-1.1c-0.6-0.3-1.2-0.6-1.8-0.8
	C32.1,30.7,31.5,30.5,30.8,30.3z M18.7,29.8v2.7h10.6v-2.6c-0.9-0.2-1.7-0.4-2.6-0.5s-1.8-0.1-2.7-0.1c-0.9,0-1.8,0-2.7,0.1
	C20.4,29.5,19.6,29.6,18.7,29.8z M11.5,35.7h5.6v-5.5c-0.6,0.2-1.3,0.5-1.9,0.7s-1.2,0.5-1.8,0.8c-0.5,0.3-1,0.6-1.3,1.1
	c-0.4,0.5-0.6,1-0.6,1.5V35.7z M30.8,35.7H17.2H30.8z"/>
</svg>
