<?xml version="1.0" encoding="utf-8"?>
<!-- Generator: Adobe Illustrator 26.3.1, SVG Export Plug-In . SVG Version: 6.00 Build 0)  -->
<svg version="1.1" id="Слой_1" xmlns="http://www.w3.org/2000/svg" xmlns:xlink="http://www.w3.org/1999/xlink" x="0px" y="0px"
	 viewBox="0 0 48 48" style="enable-background:new 0 0 48 48;" xml:space="preserve">
<path d="M19.1,22.8c-0.5,0-0.9-0.2-1.2-0.6c-0.3-0.4-0.5-0.8-0.4-1.3l0.7-5.3c0.2-1.4,0.8-2.6,1.9-3.5c1.1-0.9,2.4-1.4,3.8-1.4
	s2.7,0.5,3.8,1.4c1.1,0.9,1.8,2.1,1.9,3.5l0.7,5.3c0.1,0.5-0.1,0.9-0.4,1.3s-0.7,0.6-1.2,0.6C28.9,22.8,19.1,22.8,19.1,22.8z
	 M19,21.2h10l-0.7-5.3c-0.1-1-0.6-1.9-1.4-2.6s-1.8-1-2.8-1c-1.1,0-2,0.3-2.8,1s-1.3,1.5-1.4,2.6C19.7,15.9,19,21.2,19,21.2z
	 M10,37.2v-2.9c0-0.9,0.3-1.7,0.8-2.4c0.5-0.7,1.2-1.2,2-1.6c2-0.9,3.9-1.5,5.8-2c1.9-0.4,3.7-0.7,5.5-0.7s3.6,0.2,5.5,0.7
	s3.8,1.1,5.7,2c0.8,0.4,1.5,0.9,2,1.6c0.5,0.7,0.8,1.5,0.8,2.4v2.9H10z M11.5,35.7h24.9v-1.4c0-0.5-0.2-1-0.5-1.5s-0.8-0.9-1.4-1.2
	c-1.8-0.9-3.6-1.5-5.3-1.9c-1.7-0.4-3.5-0.6-5.3-0.6s-3.6,0.2-5.3,0.6c-1.7,0.4-3.5,1-5.3,1.9c-0.6,0.3-1.1,0.7-1.4,1.2
	c-0.3,0.5-0.5,1-0.5,1.5C11.5,34.3,11.5,35.7,11.5,35.7z"/>
</svg>
