<?xml version="1.0" encoding="utf-8"?>
<!-- Generator: Adobe Illustrator 26.3.1, SVG Export Plug-In . SVG Version: 6.00 Build 0)  -->
<svg version="1.1" id="Слой_1" xmlns="http://www.w3.org/2000/svg" xmlns:xlink="http://www.w3.org/1999/xlink" x="0px" y="0px"
	 viewBox="0 0 48 48" style="enable-background:new 0 0 48 48;" xml:space="preserve">
<path d="M24,24.8c-1.6,0-3.1-0.6-4.2-1.8c-1.2-1.2-1.8-2.6-1.8-4.2v-5.5c0-0.6,0.2-1.2,0.7-1.6c0.4-0.4,1-0.7,1.6-0.7
	c0.4,0,0.8,0.1,1.1,0.3c0.3,0.2,0.6,0.4,0.8,0.7c0.2-0.3,0.5-0.5,0.8-0.7s0.7-0.3,1.1-0.3s0.8,0.1,1.1,0.3c0.3,0.2,0.6,0.4,0.8,0.7
	c0.2-0.3,0.5-0.5,0.8-0.7s0.7-0.3,1.1-0.3c0.6,0,1.2,0.2,1.6,0.7c0.4,0.4,0.6,1,0.6,1.6v5.5c0,1.7-0.6,3.1-1.8,4.2
	C27.1,24.2,25.6,24.8,24,24.8z M24,23.2c1.2,0,2.3-0.4,3.2-1.3c0.9-0.9,1.3-1.9,1.3-3.2v-5.5h-8.9v5.5c0,1.3,0.4,2.3,1.3,3.2
	C21.7,22.8,22.7,23.2,24,23.2z M10,39.2v-2.9c0-0.9,0.3-1.7,0.8-2.4s1.2-1.2,2-1.6c2-0.9,3.9-1.5,5.8-2c1.9-0.4,3.7-0.7,5.5-0.7
	s3.6,0.2,5.5,0.7s3.8,1.1,5.7,2c0.8,0.4,1.5,0.9,2,1.6c0.5,0.7,0.8,1.5,0.8,2.4v2.9H10z M11.5,37.7h24.9v-1.4c0-0.5-0.2-1-0.5-1.5
	s-0.8-0.9-1.4-1.2c-1.8-0.9-3.6-1.5-5.3-1.9c-1.7-0.4-3.5-0.6-5.3-0.6s-3.6,0.2-5.3,0.6c-1.7,0.4-3.5,1-5.3,1.9
	c-0.6,0.3-1.1,0.7-1.4,1.2c-0.3,0.5-0.5,1-0.5,1.5C11.5,36.3,11.5,37.7,11.5,37.7z"/>
</svg>
