<?xml version="1.0" encoding="utf-8"?>
<!-- Generator: Adobe Illustrator 26.3.1, SVG Export Plug-In . SVG Version: 6.00 Build 0)  -->
<svg version="1.1" id="Слой_1" xmlns="http://www.w3.org/2000/svg" xmlns:xlink="http://www.w3.org/1999/xlink" x="0px" y="0px"
	 viewBox="0 0 48 48" style="enable-background:new 0 0 48 48;" xml:space="preserve">
<path d="M40,21.2c-0.3,0-0.6-0.1-0.9-0.4c-0.2-0.2-0.4-0.5-0.4-0.9c0-0.3,0.1-0.6,0.4-0.9c0.2-0.2,0.5-0.4,0.9-0.4
	c0.3,0,0.6,0.1,0.9,0.4c0.2,0.2,0.4,0.5,0.4,0.9c0,0.3-0.1,0.6-0.4,0.9S40.3,21.2,40,21.2z M39.2,14.8V7.2h1.5v7.5h-1.5V14.8z
	 M18,22.8c-1.6,0-3-0.5-4.1-1.6s-1.6-2.5-1.6-4.1c0-1.7,0.5-3,1.6-4.1s2.5-1.6,4.1-1.6s3,0.5,4.1,1.6s1.6,2.5,1.6,4.1
	c0,1.7-0.5,3-1.6,4.1C21,22.2,19.6,22.8,18,22.8z M4,37.2v-2.9c0-0.8,0.2-1.6,0.7-2.3s1.2-1.3,2-1.7c2.1-0.9,4-1.6,5.8-2
	s3.6-0.6,5.4-0.6s3.6,0.2,5.4,0.6s3.8,1.1,5.8,2c0.9,0.4,1.5,1,2,1.7s0.7,1.5,0.7,2.3v2.9H4z M5.5,35.7h24.9v-1.4
	c0-0.5-0.2-1-0.5-1.5s-0.8-0.9-1.4-1.2c-1.9-0.9-3.7-1.5-5.3-1.9c-1.7-0.4-3.4-0.6-5.2-0.6c-1.8,0-3.6,0.2-5.2,0.6
	c-1.7,0.4-3.4,1-5.3,1.9C6.8,32,6.3,32.4,6,32.9s-0.5,1-0.5,1.5C5.5,34.3,5.5,35.7,5.5,35.7z M18,21.2c1.2,0,2.2-0.4,3-1.2
	c0.8-0.8,1.2-1.8,1.2-3s-0.4-2.2-1.2-3c-0.8-0.8-1.8-1.2-3-1.2s-2.2,0.4-3,1.2s-1.2,1.8-1.2,3s0.4,2.2,1.2,3S16.8,21.2,18,21.2z"/>
</svg>
