<?xml version="1.0" encoding="utf-8"?>
<!-- Generator: Adobe Illustrator 26.3.1, SVG Export Plug-In . SVG Version: 6.00 Build 0)  -->
<svg version="1.1" id="Слой_1" xmlns="http://www.w3.org/2000/svg" xmlns:xlink="http://www.w3.org/1999/xlink" x="0px" y="0px"
	 viewBox="0 0 48 48" style="enable-background:new 0 0 48 48;" xml:space="preserve">
<path d="M19.9,40v-9.5c-2-0.2-4-0.4-6-0.6c-2-0.3-3.9-0.6-5.9-1.1l0.4-1.5c2.6,0.6,5.1,1,7.7,1.3S21.3,29,24,29
	c2.6,0,5.3-0.1,7.9-0.4s5.2-0.7,7.8-1.3l0.3,1.5c-2,0.4-3.9,0.8-5.9,1.1c-2,0.3-4,0.5-6,0.6V40H19.9z M24,25.3
	c-0.9,0-1.7-0.3-2.3-0.9s-0.9-1.4-0.9-2.3s0.3-1.6,0.9-2.3c0.6-0.6,1.4-0.9,2.3-0.9s1.6,0.3,2.3,0.9c0.6,0.6,0.9,1.4,0.9,2.3
	s-0.3,1.7-0.9,2.3C25.7,25,24.9,25.3,24,25.3z M9.8,19.8c-0.5,0-0.9-0.2-1.3-0.5C8.2,18.9,8,18.5,8,18s0.2-0.9,0.5-1.2
	c0.3-0.4,0.8-0.5,1.2-0.5c0.5,0,0.9,0.2,1.2,0.5c0.4,0.4,0.5,0.8,0.5,1.2c0,0.5-0.2,0.9-0.5,1.3C10.6,19.6,10.2,19.8,9.8,19.8z
	 M38.2,19.8c-0.5,0-0.9-0.2-1.3-0.5c-0.3-0.3-0.5-0.8-0.5-1.2c0-0.5,0.2-0.9,0.5-1.2c0.3-0.4,0.8-0.5,1.2-0.5c0.5,0,0.9,0.2,1.2,0.5
	c0.4,0.4,0.5,0.8,0.5,1.2c0,0.5-0.2,0.9-0.5,1.3C39.1,19.6,38.7,19.8,38.2,19.8z M14.9,12.5c-0.5,0-0.9-0.2-1.3-0.5
	c-0.3-0.3-0.5-0.8-0.5-1.2c0-0.5,0.2-0.9,0.5-1.2c0.3-0.4,0.8-0.5,1.2-0.5c0.5,0,0.9,0.2,1.2,0.5c0.4,0.4,0.5,0.8,0.5,1.2
	c0,0.5-0.2,0.9-0.5,1.3C15.8,12.3,15.3,12.5,14.9,12.5z M33.1,12.5c-0.5,0-0.9-0.2-1.3-0.5c-0.3-0.3-0.5-0.8-0.5-1.2
	c0-0.5,0.2-0.9,0.5-1.2c0.3-0.4,0.8-0.5,1.2-0.5c0.5,0,0.9,0.2,1.2,0.5c0.4,0.4,0.5,0.8,0.5,1.2c0,0.5-0.2,0.9-0.5,1.3
	C34,12.3,33.6,12.5,33.1,12.5z M24,9.5c-0.5,0-0.9-0.2-1.3-0.5c-0.3-0.3-0.5-0.8-0.5-1.2c0-0.5,0.2-0.9,0.5-1.2
	C23.1,6.2,23.5,6,24,6s0.9,0.2,1.2,0.5c0.4,0.4,0.5,0.8,0.5,1.2c0,0.5-0.2,0.9-0.5,1.3C24.9,9.4,24.5,9.5,24,9.5z"/>
</svg>
