<?xml version="1.0" encoding="utf-8"?>
<!-- Generator: Adobe Illustrator 26.3.1, SVG Export Plug-In . SVG Version: 6.00 Build 0)  -->
<svg version="1.1" id="Слой_1" xmlns="http://www.w3.org/2000/svg" xmlns:xlink="http://www.w3.org/1999/xlink" x="0px" y="0px"
	 viewBox="0 0 48 48" style="enable-background:new 0 0 48 48;" xml:space="preserve">
<path d="M24,43.2L18.8,38h-8.1c-0.8,0-1.4-0.3-2-0.8C8.3,36.6,8,36,8,35.2V8.8c0-0.8,0.3-1.4,0.8-2C9.3,6.3,10,6,10.8,6h26.5
	c0.8,0,1.4,0.3,2,0.8C39.7,7.3,40,8,40,8.8v26.5c0,0.8-0.3,1.4-0.8,2c-0.5,0.5-1.2,0.8-2,0.8h-8.1L24,43.2z M9.5,35.1
	c1.9-1.8,4.1-3.2,6.5-4.3c2.4-1.1,5.1-1.6,7.9-1.6c2.9,0,5.5,0.5,8,1.6s4.6,2.5,6.5,4.3V8.8c0-0.3-0.1-0.6-0.4-0.8
	c-0.3-0.3-0.5-0.4-0.8-0.4H10.8c-0.3,0-0.6,0.1-0.8,0.4C9.7,8.2,9.5,8.4,9.5,8.8V35.1z M24,24.6c1.7,0,3.1-0.6,4.2-1.7
	c1.2-1.1,1.7-2.5,1.7-4.2c0-1.7-0.6-3.1-1.7-4.2c-1.2-1.1-2.6-1.7-4.2-1.7c-1.7,0-3.1,0.6-4.2,1.7c-1.2,1.1-1.7,2.5-1.7,4.2
	s0.6,3.1,1.7,4.2C21,24,22.4,24.6,24,24.6z M10.8,36.5h26.5v-0.3c-2-1.8-4.1-3.2-6.3-4.1c-2.2-0.9-4.6-1.3-7-1.3s-4.7,0.4-6.9,1.3
	c-2.2,0.9-4.3,2.2-6.3,4C10.8,36,10.8,36.5,10.8,36.5z M24.1,23c-1.2,0-2.3-0.4-3.1-1.3c-0.9-0.8-1.3-1.9-1.3-3.1s0.4-2.3,1.3-3.1
	c0.9-0.8,1.9-1.3,3.1-1.3s2.3,0.4,3.1,1.3c0.9,0.8,1.3,1.9,1.3,3.1s-0.4,2.3-1.3,3.1C26.3,22.6,25.3,23,24.1,23z"/>
</svg>
