<?xml version="1.0" encoding="utf-8"?>
<!-- Generator: Adobe Illustrator 26.3.1, SVG Export Plug-In . SVG Version: 6.00 Build 0)  -->
<svg version="1.1" id="Слой_1" xmlns="http://www.w3.org/2000/svg" xmlns:xlink="http://www.w3.org/1999/xlink" x="0px" y="0px"
	 viewBox="0 0 48 48" style="enable-background:new 0 0 48 48;" xml:space="preserve">
<path d="M24,34.7c-2.3,0-4.4,0.4-6.6,1.2s-4.1,2-6,3.6c0.1,0.3,0.2,0.5,0.4,0.7s0.5,0.3,0.8,0.3h22.7c0.3,0,0.5-0.1,0.8-0.3
	s0.4-0.4,0.4-0.7c-1.9-1.6-3.8-2.8-6-3.6C28.4,35.1,26.3,34.7,24,34.7z M24,33.2c2.4,0,4.6,0.4,6.7,1.2s4,1.8,5.8,3.1V8.8
	c0-0.3-0.1-0.6-0.4-0.8c-0.3-0.3-0.5-0.4-0.8-0.4H12.8c-0.3,0-0.6,0.1-0.8,0.4c-0.3,0.3-0.4,0.5-0.4,0.8v28.7
	c1.8-1.3,3.7-2.4,5.8-3.1C19.4,33.6,21.6,33.2,24,33.2z M24.1,27.1c-1.2,0-2.3-0.4-3.1-1.3c-0.9-0.9-1.3-1.9-1.3-3.1
	s0.4-2.3,1.3-3.1c0.9-0.9,1.9-1.3,3.1-1.3s2.3,0.4,3.1,1.3c0.9,0.9,1.3,1.9,1.3,3.1s-0.4,2.3-1.3,3.1C26.3,26.6,25.3,27.1,24.1,27.1
	z M12.8,42c-0.8,0-1.4-0.3-2-0.8c-0.5-0.5-0.8-1.2-0.8-2V8.8c0-0.8,0.3-1.4,0.8-2C11.3,6.3,12,6,12.8,6h22.5c0.8,0,1.4,0.3,2,0.8
	C37.7,7.3,38,8,38,8.8v30.5c0,0.8-0.3,1.4-0.8,2c-0.5,0.5-1.2,0.8-2,0.8L12.8,42L12.8,42z M24,28.6c1.7,0,3.1-0.6,4.2-1.7
	c1.2-1.2,1.7-2.6,1.7-4.2c0-1.7-0.6-3.1-1.7-4.2c-1.2-1.2-2.6-1.7-4.2-1.7c-1.7,0-3.1,0.6-4.2,1.7c-1.2,1.2-1.7,2.6-1.7,4.2
	c0,1.7,0.6,3.1,1.7,4.2C21,28,22.4,28.6,24,28.6z"/>
</svg>
