<?xml version="1.0" encoding="utf-8"?>
<!-- Generator: Adobe Illustrator 26.3.1, SVG Export Plug-In . SVG Version: 6.00 Build 0)  -->
<svg version="1.1" id="Слой_1" xmlns="http://www.w3.org/2000/svg" xmlns:xlink="http://www.w3.org/1999/xlink" x="0px" y="0px"
	 viewBox="0 0 48 48" style="enable-background:new 0 0 48 48;" xml:space="preserve">
<path d="M24,18.8c-1.6,0-3-0.5-4.1-1.6s-1.6-2.5-1.6-4.1s0.5-3,1.6-4.1C21,7.9,22.4,7.3,24,7.3s3,0.5,4.1,1.6s1.6,2.5,1.6,4.1
	s-0.5,3-1.6,4.1C27,18.3,25.6,18.8,24,18.8z M24,17.3c1.2,0,2.2-0.4,3-1.2c0.8-0.8,1.2-1.8,1.2-3s-0.4-2.2-1.2-3
	c-0.8-0.8-1.8-1.2-3-1.2s-2.2,0.4-3,1.2s-1.2,1.8-1.2,3s0.4,2.2,1.2,3C21.8,16.9,22.8,17.3,24,17.3z M10,39.9v-10
	c0-0.9,0.2-1.7,0.7-2.4c0.5-0.7,1.2-1.2,2-1.6c1.7-0.8,3.5-1.4,5.4-1.9s3.9-0.8,5.8-0.8c1.9,0,3.9,0.3,5.8,0.8s3.8,1.1,5.4,1.9
	c0.8,0.4,1.5,0.9,2,1.6s0.7,1.5,0.7,2.4v7.3c0,0.8-0.3,1.4-0.8,2c-0.5,0.5-1.2,0.8-2,0.8H20.5c-1.1,0-2-0.4-2.8-1.1
	C17,38,16.6,37.1,16.6,36s0.4-2,1.1-2.8c0.8-0.7,1.7-1.1,2.8-1.1h6.3l3.2-6.6c-1-0.3-2-0.5-3.2-0.6c-1.1-0.1-2.1-0.2-2.9-0.2
	c-1.9,0-3.8,0.2-5.5,0.7c-1.8,0.4-3.4,1-5.1,1.8c-0.5,0.3-1,0.7-1.3,1.1c-0.4,0.5-0.5,1-0.5,1.5v10L10,39.9L10,39.9z M20.5,38.4h3.2
	l2.3-4.7h-5.6c-0.6,0-1.2,0.2-1.7,0.7s-0.7,1-0.7,1.7c0,0.6,0.2,1.2,0.7,1.7C19.3,38.2,19.9,38.4,20.5,38.4z M25.4,38.4h9.8
	c0.4,0,0.7-0.1,0.9-0.3s0.3-0.5,0.3-0.9v-7.3c0-0.6-0.2-1.1-0.6-1.5s-0.8-0.8-1.4-1.1c-0.4-0.2-0.9-0.4-1.4-0.6s-1-0.5-1.5-0.7
	L25.4,38.4z"/>
</svg>
