<?xml version="1.0" encoding="utf-8"?>
<!-- Generator: Adobe Illustrator 26.3.1, SVG Export Plug-In . SVG Version: 6.00 Build 0)  -->
<svg version="1.1" id="Слой_1" xmlns="http://www.w3.org/2000/svg" xmlns:xlink="http://www.w3.org/1999/xlink" x="0px" y="0px"
	 viewBox="0 0 48 48" style="enable-background:new 0 0 48 48;" xml:space="preserve">
<path d="M24,7.7c1.1,0,2,0.4,2.8,1.2s1.2,1.7,1.2,2.8v0.7c2.3,0.8,4.2,2.3,5.7,4.3s2.3,4.4,2.3,7.1v7.9l-1.5-1.5v-6.4
	c0-2.9-1-5.4-3.1-7.4c-2-2-4.5-3.1-7.4-3.1c-1.1,0-2.1,0.1-2.9,0.4c-0.8,0.3-1.5,0.6-2.1,0.9l1.1,1.1v-3.9c0-1.1,0.4-2.1,1.1-2.9
	C21.9,8.1,22.9,7.7,24,7.7z M24,9.2c-0.7,0-1.3,0.2-1.7,0.8c-0.4,0.5-0.7,1.1-0.7,1.8V12c0.3-0.1,0.7-0.1,1.2-0.2
	c0.5,0,0.9-0.1,1.3-0.1s0.8,0,1.2,0.1c0.5,0,0.9,0.1,1.2,0.2v-0.2c0-0.7-0.2-1.3-0.7-1.8S24.7,9.2,24,9.2z M41.6,44.5l-17.9-18h-7.4
	V25h5.8l-6.9-6.9c-0.6,0.8-1,1.7-1.3,2.7s-0.4,2-0.4,3v15.5c0,0.3,0.1,0.6,0.4,0.8c0.3,0.3,0.5,0.4,0.8,0.4h18.5
	c0.3,0,0.6-0.1,0.8-0.4c0.3-0.3,0.4-0.5,0.4-0.8v-4.1l1.5,1.5v2.6c0,0.8-0.3,1.4-0.8,2c-0.5,0.5-1.2,0.8-2,0.8H14.8
	c-0.8,0-1.4-0.3-2-0.8c-0.5-0.5-0.8-1.2-0.8-2V23.8c0-1.2,0.2-2.4,0.5-3.6s0.9-2.2,1.6-3.2L6.2,9l1.1-1.1l35.5,35.5L41.6,44.5z"/>
</svg>
