<?xml version="1.0" encoding="utf-8"?>
<!-- Generator: Adobe Illustrator 26.3.1, SVG Export Plug-In . SVG Version: 6.00 Build 0)  -->
<svg version="1.1" id="Слой_1" xmlns="http://www.w3.org/2000/svg" xmlns:xlink="http://www.w3.org/1999/xlink" x="0px" y="0px"
	 viewBox="0 0 48 48" style="enable-background:new 0 0 48 48;" xml:space="preserve">
<path d="M38.3,43l-6.8-6.8v1h-28v-2.9c0-0.8,0.2-1.6,0.7-2.3s1.2-1.3,2-1.7c2.1-0.9,4-1.6,5.8-2s3.6-0.6,5.4-0.6
	c1.1,0,2.2,0.1,3.2,0.2c1.1,0.1,2.1,0.4,3.2,0.7L18,22.7c-0.1,0-0.2,0-0.2,0h-0.3c-1.6,0-3-0.6-4.1-1.7s-1.6-2.5-1.6-4.1v-0.3
	c0-0.1,0-0.2,0-0.3L4.2,8.8l1.1-1.1l34.2,34.2C39.4,41.9,38.3,43,38.3,43z M36.7,27v-6.2h-6.2v-1.5h6.2V13h1.5v6.2h6.2v1.5h-6.2V27
	H36.7z M22.5,19.9l-1.1-1.1c0.1-0.3,0.2-0.6,0.3-0.9c0.1-0.3,0.1-0.6,0.1-0.9c0-1.2-0.4-2.2-1.2-3c-0.8-0.8-1.8-1.2-3-1.2
	c-0.3,0-0.7,0-1,0.1s-0.6,0.2-0.9,0.3L14.5,12c0.4-0.3,0.8-0.5,1.4-0.6c0.5-0.1,1-0.2,1.6-0.2c1.6,0,3,0.5,4.1,1.6s1.6,2.5,1.6,4.1
	c0,0.6-0.1,1.1-0.2,1.6C22.9,19.1,22.7,19.6,22.5,19.9z M5,35.7h25l-3.8-4.8c-1.3-0.6-2.7-1-4.2-1.3c-1.4-0.3-2.9-0.4-4.5-0.4
	c-1.8,0-3.5,0.2-5.2,0.6s-3.5,1-5.4,1.9c-0.6,0.3-1.1,0.7-1.4,1.2S5,33.9,5,34.4C5,34.3,5,35.7,5,35.7z"/>
</svg>
