<?xml version="1.0" encoding="utf-8"?>
<!-- Generator: Adobe Illustrator 26.3.1, SVG Export Plug-In . SVG Version: 6.00 Build 0)  -->
<svg version="1.1" id="Слой_1" xmlns="http://www.w3.org/2000/svg" xmlns:xlink="http://www.w3.org/1999/xlink" x="0px" y="0px"
	 viewBox="0 0 48 48" style="enable-background:new 0 0 48 48;" xml:space="preserve">
<path d="M24.3,40.3c-2.8,0-5.2-0.9-7.2-2.8c-2-1.9-3-4.2-3.2-7c-2.1-0.5-3.8-1.6-5.1-3.1c-1.4-1.6-2-3.4-2-5.5
	c0-2.4,0.8-4.4,2.5-6.1s3.7-2.5,6.1-2.5h5.5c0.6,0,1.2-0.2,1.6-0.7s0.7-1,0.7-1.7c0-0.6-0.2-1.2-0.7-1.6c-0.4-0.5-1-0.7-1.6-0.7
	h-3.1c-0.2,0-0.4-0.1-0.6-0.2C17.1,8.2,17,8,17,7.8s0.1-0.4,0.3-0.5C17.4,7.1,17.6,7,17.8,7h3.1c1.1,0,2,0.4,2.7,1.1
	c0.8,0.8,1.1,1.7,1.1,2.8s-0.4,2-1.1,2.8s-1.7,1.1-2.8,1.1h-5.6c-2,0-3.6,0.7-5,2.1c-1.3,1.4-2,3.1-2,5.1c0,1.7,0.5,3.1,1.6,4.4
	s2.4,2.1,4.1,2.6c0.3-2.6,1.4-4.8,3.2-6.6c1.9-1.8,4.1-2.6,6.6-2.6c0.6,0,1.2,0.1,1.9,0.2c0.7,0.1,1.3,0.3,1.9,0.5
	c0.3-0.1,0.5-0.2,0.8-0.3c0.3-0.1,0.5-0.1,0.8-0.2s0.5-0.1,0.8-0.1s0.5,0,0.8,0c2,0,3.8,0.7,5.2,2.1c1.5,1.4,2.2,3.1,2.2,5.1v0.8
	c0,0.3,0,0.7-0.1,1.1l2,1.9c0.6,0.5,1,1.2,1.3,1.9s0.5,1.4,0.5,2.2c0,1.6-0.5,2.9-1.6,4s-2.4,1.6-3.9,1.6
	C36.4,40.3,24.3,40.3,24.3,40.3z M24.3,38.8h12c1.1,0,2.1-0.4,2.9-1.2c0.8-0.8,1.2-1.8,1.2-2.9c0-0.6-0.1-1.2-0.3-1.7s-0.6-1-1-1.4
	l-2.6-2.5c0.1-0.3,0.1-0.7,0.2-1c0-0.3,0.1-0.7,0.1-1c0-1.6-0.6-3-1.7-4.2c-1.1-1.1-2.5-1.7-4.2-1.7c-1.6,0-3,0.6-4.1,1.7
	C25.6,24,25,25.4,25,27c0,0.6,0.1,1.2,0.2,1.8c0.2,0.6,0.4,1.1,0.7,1.6l-1.1,1.1c-0.5-0.7-0.9-1.4-1.1-2.1c-0.2-0.8-0.3-1.5-0.3-2.4
	c0-1.1,0.2-2.1,0.6-3.1s1-1.8,1.9-2.5c-0.4-0.1-0.8-0.1-1.1-0.2c-0.4,0-0.7,0-1.1,0c-2.3,0-4.2,0.9-5.8,2.6
	c-1.6,1.7-2.4,3.8-2.4,6.2c0,1.2,0.2,2.3,0.7,3.4c0.5,1,1.1,2,1.9,2.8s1.7,1.4,2.8,1.9C22,38.5,23.1,38.8,24.3,38.8z M34,35.3
	c-0.3,0-0.7-0.1-0.9-0.4c-0.3-0.3-0.4-0.6-0.4-0.9c0-0.4,0.1-0.7,0.4-0.9c0.3-0.3,0.6-0.4,0.9-0.4c0.4,0,0.7,0.1,0.9,0.4
	c0.3,0.3,0.4,0.6,0.4,0.9c0,0.3-0.1,0.7-0.4,0.9C34.7,35.2,34.3,35.3,34,35.3z"/>
</svg>
