<?xml version="1.0" encoding="utf-8"?>
<!-- Generator: Adobe Illustrator 26.3.1, SVG Export Plug-In . SVG Version: 6.00 Build 0)  -->
<svg version="1.1" id="Слой_1" xmlns="http://www.w3.org/2000/svg" xmlns:xlink="http://www.w3.org/1999/xlink" x="0px" y="0px"
	 viewBox="0 0 48 48" style="enable-background:new 0 0 48 48;" xml:space="preserve">
<path d="M24,40c-1.9,0-3.6-0.6-5.1-1.7c-1.5-1.1-2.7-2.6-3.5-4.3l-4.3,2.4L10.3,35l4.4-2.5c-0.2-0.5-0.3-1.1-0.4-1.7
	c-0.1-0.6-0.2-1.1-0.3-1.7H8.7v-1.5H14c0-0.7,0.1-1.4,0.2-2.1c0.1-0.7,0.3-1.4,0.5-2l-4.4-2.6l0.8-1.3l4.3,2.5
	c0.2-0.5,0.5-1,0.8-1.5s0.6-0.9,1-1.3c0-0.2-0.1-0.4-0.1-0.6S17,18.3,17,18.1c0-0.9,0.2-1.8,0.5-2.6c0.3-0.8,0.8-1.6,1.4-2.2
	l-2.4-2.4l1.1-1.1l2.6,2.5c0.6-0.4,1.2-0.7,1.8-0.9c0.6-0.2,1.3-0.3,2-0.3s1.4,0.1,2.1,0.3s1.2,0.5,1.8,0.9l2.6-2.5l1.1,1.1L29,13.4
	c0.6,0.6,1,1.4,1.4,2.2c0.3,0.8,0.5,1.7,0.5,2.6c0,0.2,0,0.4,0,0.6s0,0.3,0,0.5c0.3,0.4,0.7,0.8,1,1.3c0.3,0.5,0.6,0.9,0.8,1.5
	l4.2-2.4l0.8,1.3l-4.4,2.5c0.2,0.6,0.4,1.2,0.5,1.9c0.1,0.6,0.2,1.3,0.3,2h5.3v1.5H34c0,0.6-0.1,1.3-0.3,1.9
	c-0.1,0.6-0.3,1.3-0.5,1.9l4.4,2.6l-0.8,1.3L32.7,34c-0.8,1.8-2,3.2-3.5,4.4C27.6,39.5,25.9,40,24,40z M18.5,17.9
	c0.8-0.6,1.6-1.1,2.6-1.4C22,16.1,23,16,24,16s2,0.2,2.9,0.5s1.8,0.8,2.5,1.4c-0.1-1.4-0.6-2.6-1.7-3.6s-2.3-1.5-3.7-1.5
	s-2.7,0.5-3.7,1.5C19.2,15.2,18.6,16.4,18.5,17.9z M24,38.5c2.5,0,4.5-1.1,6.1-3.2c1.6-2.2,2.4-4.6,2.4-7.3c0-2.4-0.7-4.8-2.2-7.1
	s-3.6-3.4-6.3-3.4s-4.8,1.1-6.3,3.4s-2.2,4.6-2.2,7.1c0,2.7,0.8,5.1,2.4,7.3C19.5,37.4,21.5,38.5,24,38.5z M23.2,33v-9h1.5v9H23.2z"
	/>
</svg>
