<?xml version="1.0" encoding="utf-8"?>
<!-- Generator: Adobe Illustrator 26.3.1, SVG Export Plug-In . SVG Version: 6.00 Build 0)  -->
<svg version="1.1" id="Слой_1" xmlns="http://www.w3.org/2000/svg" xmlns:xlink="http://www.w3.org/1999/xlink" x="0px" y="0px"
	 viewBox="0 0 48 48" style="enable-background:new 0 0 48 48;" xml:space="preserve">
<path d="M30.2,20.6c-0.4,0-0.7-0.1-1-0.4s-0.4-0.6-0.4-1v-6.4c0-0.4,0.1-0.7,0.4-1s0.6-0.4,1-0.4H31v-2c0-1,0.3-1.8,1-2.5
	s1.5-1,2.5-1s1.8,0.3,2.5,1s1,1.5,1,2.5v2h0.7c0.4,0,0.7,0.1,1,0.4c0.3,0.3,0.4,0.6,0.4,1v6.4c0,0.4-0.1,0.7-0.4,1
	c-0.3,0.3-0.6,0.4-1,0.4C38.6,20.6,30.2,20.6,30.2,20.6z M32.4,11.5h4.1v-2c0-0.6-0.2-1.1-0.6-1.5c-0.4-0.4-0.9-0.6-1.4-0.6
	c-0.6,0-1.1,0.2-1.5,0.6c-0.4,0.4-0.6,0.9-0.6,1.5V11.5z M37.8,40c-3.2,0-6.6-0.9-10.1-2.6c-3.5-1.7-6.8-4.1-9.9-7.2
	s-5.5-6.4-7.2-9.9S8,13.4,8,10.2C8,9.6,8.2,9,8.6,8.6C9,8.2,9.6,8,10.2,8h4.4c0.6,0,1.1,0.2,1.4,0.5c0.4,0.3,0.7,0.8,0.8,1.4l1,4.4
	c0.1,0.5,0,1-0.1,1.4s-0.3,0.8-0.6,1L12.7,21c0.9,1.6,1.9,3.1,2.9,4.4s2.1,2.6,3.2,3.8c1.3,1.3,2.6,2.5,4.1,3.5c1.4,1.1,3,2.1,4.7,3
	l4.3-4.4c0.3-0.4,0.7-0.6,1.1-0.7c0.4-0.1,0.8-0.1,1.3-0.1l3.8,0.8c0.6,0.1,1,0.4,1.4,0.8c0.3,0.4,0.5,0.9,0.5,1.5v4.2
	c0,0.6-0.2,1.1-0.6,1.6C38.9,39.8,38.4,40,37.8,40z M11.9,19.6l4.2-3.9c0.1-0.1,0.2-0.2,0.2-0.4s0-0.3,0-0.5l-1-4.6
	c0-0.2-0.1-0.4-0.2-0.5c-0.1-0.1-0.3-0.2-0.5-0.2h-4.5c-0.2,0-0.3,0.1-0.4,0.2c-0.1,0.1-0.2,0.2-0.2,0.4c0,1.4,0.2,2.9,0.6,4.4
	C10.6,16.1,11.2,17.8,11.9,19.6z M29.1,36.4c1.4,0.7,2.9,1.2,4.5,1.6c1.7,0.3,3.1,0.5,4.3,0.5c0.2,0,0.3-0.1,0.4-0.2
	c0.1-0.1,0.2-0.2,0.2-0.4v-4.5c0-0.2-0.1-0.4-0.2-0.5c-0.1-0.1-0.3-0.2-0.5-0.2l-3.9-0.8c-0.2,0-0.3,0-0.4,0c-0.1,0-0.2,0.1-0.4,0.2
	L29.1,36.4z"/>
</svg>
