<?xml version="1.0" encoding="utf-8"?>
<!-- Generator: Adobe Illustrator 26.3.1, SVG Export Plug-In . SVG Version: 6.00 Build 0)  -->
<svg version="1.1" id="Слой_1" xmlns="http://www.w3.org/2000/svg" xmlns:xlink="http://www.w3.org/1999/xlink" x="0px" y="0px"
	 viewBox="0 0 48 48" style="enable-background:new 0 0 48 48;" xml:space="preserve">
<path d="M35.7,29.1L34.6,28c0.6-0.5,1.1-1.1,1.5-1.8c0.4-0.7,0.5-1.5,0.5-2.3s-0.2-1.6-0.5-2.3c-0.4-0.7-0.8-1.3-1.5-1.9l1-1.1
	c0.8,0.7,1.4,1.4,1.8,2.3c0.5,0.9,0.7,1.8,0.7,2.9c0,1-0.2,2-0.7,2.9C37.1,27.7,36.5,28.5,35.7,29.1z M39.7,33.1L38.6,32
	c1.1-1.1,1.9-2.3,2.5-3.7c0.6-1.4,0.9-2.8,0.9-4.3s-0.3-3-0.9-4.3c-0.6-1.4-1.5-2.6-2.6-3.6l1.2-1.2c1.3,1.2,2.2,2.6,2.9,4.2
	s1,3.2,1,5c0,1.7-0.3,3.4-1,4.9C41.8,30.5,40.9,31.9,39.7,33.1z M14.8,44c-0.7,0-1.4-0.3-1.9-0.8c-0.6-0.6-0.9-1.2-0.9-2V6.8
	c0-0.7,0.3-1.4,0.8-1.9C13.4,4.3,14,4,14.8,4h18.5c0.7,0,1.4,0.3,1.9,0.8C35.7,5.4,36,6,36,6.8v6.3h-1.5V9.8h-21v28.3h20.9v-3.2H36
	v6.3c0,0.7-0.3,1.4-0.8,1.9c-0.6,0.6-1.2,0.9-2,0.9H14.8z M13.5,39.7v1.5c0,0.3,0.1,0.6,0.4,0.8s0.5,0.4,0.8,0.4h18.5
	c0.3,0,0.6-0.1,0.8-0.4c0.3-0.3,0.4-0.5,0.4-0.8v-1.5C34.5,39.7,13.5,39.7,13.5,39.7z M13.5,8.3h20.9V6.8c0-0.3-0.1-0.6-0.4-0.8
	c-0.3-0.3-0.5-0.4-0.8-0.4H14.8c-0.3,0-0.6,0.1-0.8,0.4c-0.3,0.3-0.4,0.5-0.4,0.8C13.5,6.8,13.5,8.3,13.5,8.3z M13.5,8.3V5.5V8.3z
	 M13.5,39.7v2.8V39.7z"/>
</svg>
