<?xml version="1.0" encoding="utf-8"?>
<!-- Generator: Adobe Illustrator 26.3.1, SVG Export Plug-In . SVG Version: 6.00 Build 0)  -->
<svg version="1.1" id="Слой_1" xmlns="http://www.w3.org/2000/svg" xmlns:xlink="http://www.w3.org/1999/xlink" x="0px" y="0px"
	 viewBox="0 0 48 48" style="enable-background:new 0 0 48 48;" xml:space="preserve">
<path d="M39.9,42.3L29,31.4c-3.3,2.8-6.5,5-9.7,6.4S13.1,40,10.2,40c-0.6,0-1.2-0.2-1.6-0.6C8.2,39,8,38.5,8,37.8v-4.2
	C8,33,8.2,32.5,8.5,32c0.3-0.4,0.8-0.7,1.4-0.8l3.8-0.8c0.5-0.1,0.9-0.1,1.3,0c0.4,0.1,0.7,0.4,1.1,0.8l4.3,4.4
	c1.2-0.6,2.5-1.4,3.9-2.4s2.6-2,3.6-2.9l-22-22L7,7.2l34,34.1L39.9,42.3z M18.9,36.4l-4.1-4.2c-0.1-0.1-0.3-0.2-0.4-0.3
	c-0.1,0-0.2,0-0.4,0l-3.9,0.8c-0.2,0-0.4,0.1-0.5,0.2c-0.1,0.1-0.2,0.3-0.2,0.5V38c0,0.2,0.1,0.3,0.2,0.4c0.1,0.1,0.2,0.2,0.4,0.2
	c1.2,0,2.6-0.2,4.3-0.5C16,37.6,17.5,37.1,18.9,36.4z M32.5,27.7l-1.1-1.1c0.6-0.8,1.3-1.7,2-2.8c0.7-1.1,1.3-2,1.9-2.9l-4.5-4.2
	c-0.3-0.3-0.6-0.7-0.7-1.1s-0.1-0.9,0-1.4l1-4.5c0.1-0.6,0.4-1,0.8-1.4C32.3,8.2,32.8,8,33.4,8h4.4c0.6,0,1.1,0.2,1.6,0.6
	c0.4,0.4,0.6,1,0.6,1.6c0,2.8-0.7,5.8-2.1,9C36.5,22.4,34.7,25.2,32.5,27.7z M36,19.6c0.8-1.8,1.4-3.5,1.9-5.1
	c0.4-1.6,0.6-3.1,0.6-4.4c0-0.2-0.1-0.3-0.2-0.4c-0.1-0.1-0.2-0.2-0.4-0.2h-4.5c-0.2,0-0.4,0.1-0.5,0.2c-0.1,0.1-0.2,0.3-0.2,0.5
	l-1,4.6c0,0.2,0,0.3,0,0.5s0.1,0.3,0.2,0.4L36,19.6z"/>
</svg>
