<?xml version="1.0" encoding="utf-8"?>
<!-- Generator: Adobe Illustrator 26.3.1, SVG Export Plug-In . SVG Version: 6.00 Build 0)  -->
<svg version="1.1" id="Слой_1" xmlns="http://www.w3.org/2000/svg" xmlns:xlink="http://www.w3.org/1999/xlink" x="0px" y="0px"
	 viewBox="0 0 48 48" style="enable-background:new 0 0 48 48;" xml:space="preserve">
<path d="M40.5,42.5c-4.9-0.2-9.4-1.3-13.6-3.1S19.1,35,16,31.9S10.4,25.2,8.6,21S5.7,12.4,5.4,7.5c0-0.6,0.2-1,0.6-1.4
	s0.9-0.6,1.4-0.6h5.2c0.6,0,1.1,0.2,1.4,0.6s0.6,0.9,0.6,1.5c0,1.2,0.1,2.2,0.3,3.2s0.4,1.9,0.6,2.8c0.1,0.4,0.1,0.9,0,1.3
	c-0.1,0.4-0.3,0.8-0.6,1.1L10,20.9c1.7,3.7,4,7,6.8,9.9s6.1,5.2,9.9,6.9l4.9-5c0.3-0.3,0.7-0.5,1.2-0.6s0.9-0.1,1.3,0
	c1,0.3,2,0.6,3,0.7c1,0.1,2.1,0.2,3.1,0.3c0.6,0,1.1,0.2,1.5,0.7c0.4,0.4,0.6,0.9,0.6,1.5v5.2c0,0.6-0.2,1-0.6,1.5
	C41.6,42.4,41.1,42.5,40.5,42.5z M28.5,38.3c1.9,0.8,3.8,1.4,5.8,1.8c2,0.4,4,0.7,6.1,0.8c0.1,0,0.3,0,0.4-0.1
	c0.1-0.1,0.2-0.2,0.2-0.4v-5.2c0-0.1-0.1-0.3-0.2-0.4c-0.1-0.1-0.2-0.2-0.4-0.2c-1.2,0-2.3-0.1-3.5-0.3s-2.2-0.5-3.2-0.8
	c-0.2,0-0.3,0-0.5,0s-0.3,0.1-0.4,0.2L28.5,38.3z M41,24.2c0-4.8-1.7-8.9-5-12.2s-7.4-5-12.2-5V5.4c2.6,0,5,0.5,7.3,1.5s4.3,2.3,6,4
	s3,3.7,4,6s1.5,4.7,1.5,7.3H41z M33,24.2c0-2.6-0.9-4.8-2.7-6.6s-4-2.7-6.6-2.7v-1.6c3,0,5.6,1.1,7.6,3.2s3.1,4.6,3.1,7.6H33V24.2z
	 M9.6,19.5L14,15c0.1-0.1,0.2-0.2,0.2-0.4c0.1-0.2,0.1-0.3,0-0.5c-0.3-1-0.5-2-0.7-3.1s-0.3-2.2-0.4-3.4c0-0.1-0.1-0.3-0.2-0.4
	c0-0.1-0.1-0.2-0.3-0.2H7.5C7.3,7,7.2,7.1,7.1,7.2C7,7.3,7,7.4,7,7.6c0.1,2.1,0.4,4.1,0.8,6.1C8.3,15.6,8.9,17.6,9.6,19.5z"/>
</svg>
