<?xml version="1.0" encoding="utf-8"?>
<!-- Generator: Adobe Illustrator 26.3.1, SVG Export Plug-In . SVG Version: 6.00 Build 0)  -->
<svg version="1.1" id="Слой_1" xmlns="http://www.w3.org/2000/svg" xmlns:xlink="http://www.w3.org/1999/xlink" x="0px" y="0px"
	 viewBox="0 0 48 48" style="enable-background:new 0 0 48 48;" xml:space="preserve">
<path d="M32.2,19.9V8h1.5v11.9H32.2z M38.5,19.9V8H40v11.9H38.5z M37.8,39.8c-3.4,0-6.8-0.9-10.3-2.7s-6.7-4.2-9.6-7
	c-2.9-2.9-5.2-6-7-9.5C9,17,8.1,13.5,8.1,10.2c0-0.6,0.2-1.1,0.6-1.6C9.1,8.2,9.6,8,10.2,8h4.4c0.6,0,1.1,0.2,1.5,0.5
	s0.7,0.8,0.8,1.4l1,4.5c0.1,0.5,0.1,1,0,1.4s-0.3,0.8-0.7,1L12.8,21c2,3.3,4.1,6.1,6.5,8.4s5.1,4.4,8.3,6.1l4.3-4.5
	c0.3-0.4,0.7-0.6,1.1-0.8c0.4-0.1,0.8-0.2,1.3-0.1L38,31c0.6,0.1,1.1,0.4,1.4,0.8c0.3,0.4,0.5,0.9,0.5,1.5v4.2
	c0,0.6-0.2,1.1-0.6,1.6C38.9,39.6,38.4,39.8,37.8,39.8z M12,19.6l4.2-3.9c0.1-0.1,0.2-0.2,0.2-0.4s0-0.3,0-0.5l-1-4.6
	c0-0.2-0.1-0.4-0.2-0.5c-0.1-0.1-0.3-0.2-0.5-0.2h-4.5c-0.2,0-0.3,0.1-0.4,0.2c-0.1,0.1-0.2,0.2-0.2,0.4c-0.1,1.3,0.1,2.8,0.6,4.4
	C10.6,16.1,11.2,17.8,12,19.6z M29.1,36.1c1.4,0.7,2.9,1.2,4.5,1.6c1.7,0.3,3.1,0.5,4.3,0.5c0.2,0,0.3-0.1,0.4-0.2
	c0.1-0.1,0.2-0.2,0.2-0.4v-4.5c0-0.2-0.1-0.4-0.2-0.5c-0.1-0.1-0.3-0.2-0.5-0.2l-3.9-0.8c-0.2,0-0.3,0-0.4,0c-0.1,0-0.2,0.1-0.4,0.2
	C33.1,31.9,29.1,36.1,29.1,36.1z"/>
</svg>
