<?xml version="1.0" encoding="utf-8"?>
<!-- Generator: Adobe Illustrator 26.3.1, SVG Export Plug-In . SVG Version: 6.00 Build 0)  -->
<svg version="1.1" id="Слой_1" xmlns="http://www.w3.org/2000/svg" xmlns:xlink="http://www.w3.org/1999/xlink" x="0px" y="0px"
	 viewBox="0 0 48 48" style="enable-background:new 0 0 48 48;" xml:space="preserve">
<path d="M10.8,40c-0.7,0-1.4-0.3-1.9-0.8C8.3,38.6,8,38,8,37.2V15.5h24.5V40H10.8z M12.4,36.4h16L23,29.2l-4.2,5.7l-2.6-3.5
	C16.2,31.3,12.4,36.4,12.4,36.4z M10,10H8c0-0.5,0.2-1,0.6-1.4C9,8.2,9.5,8,10,8V10z M15.5,10V8h2v2H15.5z M23,10V8h2v2H23z
	 M30.5,10V8h2v2H30.5z M38,10V8c0.5,0,1,0.2,1.4,0.6C39.8,9,40,9.5,40,10H38z M38,38h2c0,0.5-0.2,1-0.6,1.4C39,39.8,38.5,40,38,40
	V38z M38,32.5v-2h2v2H38z M38,25v-2h2v2H38z M38,17.5v-2h2v2H38z"/>
</svg>
