<?xml version="1.0" encoding="utf-8"?>
<!-- Generator: Adobe Illustrator 26.3.1, SVG Export Plug-In . SVG Version: 6.00 Build 0)  -->
<svg version="1.1" id="Слой_1" xmlns="http://www.w3.org/2000/svg" xmlns:xlink="http://www.w3.org/1999/xlink" x="0px" y="0px"
	 viewBox="0 0 48 48" style="enable-background:new 0 0 48 48;" xml:space="preserve">
<path d="M10.8,40c-0.8,0-1.4-0.3-1.9-0.8C8.3,38.7,8,38,8,37.2V10.8c0-0.8,0.3-1.5,0.8-2S10,8,10.8,8h19.5v1.6H10.8
	c-0.3,0-0.6,0.1-0.8,0.4s-0.4,0.5-0.4,0.8v26.5c0,0.3,0.1,0.6,0.4,0.8s0.5,0.4,0.8,0.4h26.5c0.3,0,0.6-0.1,0.8-0.4s0.4-0.5,0.4-0.8
	V17.8H40v19.5c0,0.8-0.3,1.4-0.8,2S38,40,37.2,40H10.8z M24,30.4L22,26l-4.4-2l4.4-2l2-4.5l2,4.5l4.4,2L26,26L24,30.4z M34.5,18.2
	L33,15.1l-3.1-1.5L33,12l1.5-3l1.5,3l3,1.6l-3,1.5L34.5,18.2z"/>
</svg>
