<?xml version="1.0" encoding="utf-8"?>
<!-- Generator: Adobe Illustrator 26.3.1, SVG Export Plug-In . SVG Version: 6.00 Build 0)  -->
<svg version="1.1" id="Слой_1" xmlns="http://www.w3.org/2000/svg" xmlns:xlink="http://www.w3.org/1999/xlink" x="0px" y="0px"
	 viewBox="0 0 48 48" style="enable-background:new 0 0 48 48;" xml:space="preserve">
<path d="M25,40H10.8c-0.7,0-1.4-0.3-1.9-0.8C8.3,38.6,8,38,8,37.2V23h17V40z M10.1,35.8h14l-4.5-6.1l-3.4,4.4l-2.5-3.2
	C13.7,30.9,10.1,35.8,10.1,35.8z M10,10H8c0-0.5,0.2-1,0.6-1.4C9,8.2,9.5,8,10,8V10z M15.5,10V8h2v2H15.5z M23,10V8h2v2H23z
	 M30.5,10V8h2v2H30.5z M30.5,40v-2h2v2H30.5z M38,10V8c0.5,0,1,0.2,1.4,0.6C39.8,9,40,9.5,40,10H38z M8,17.5v-2h2v2H8z M38,38h2
	c0,0.5-0.2,1-0.6,1.4C39,39.8,38.5,40,38,40V38z M38,32.5v-2h2v2H38z M38,25v-2h2v2H38z M38,17.5v-2h2v2H38z"/>
</svg>
