<?xml version="1.0" encoding="utf-8"?>
<!-- Generator: Adobe Illustrator 26.3.1, SVG Export Plug-In . SVG Version: 6.00 Build 0)  -->
<svg version="1.1" id="Слой_1" xmlns="http://www.w3.org/2000/svg" xmlns:xlink="http://www.w3.org/1999/xlink" x="0px" y="0px"
	 viewBox="0 0 48 48" style="enable-background:new 0 0 48 48;" xml:space="preserve">
<path d="M24,33.3c2,0,3.8-0.7,5.2-2.1c1.4-1.4,2.1-3.1,2.1-5.2c0-2-0.7-3.8-2.1-5.1c-1.4-1.4-3.1-2.1-5.2-2.1c-2,0-3.8,0.7-5.1,2.1
	c-1.4,1.4-2.1,3.1-2.1,5.1s0.7,3.8,2.1,5.2C20.2,32.6,21.9,33.3,24,33.3z M24,31.8c-1.6,0-3-0.5-4.1-1.6s-1.6-2.4-1.6-4.1
	c0-1.6,0.5-3,1.6-4.1s2.4-1.6,4.1-1.6c1.6,0,3,0.5,4.1,1.6s1.6,2.4,1.6,4.1c0,1.6-0.5,3-1.6,4.1C27,31.2,25.6,31.8,24,31.8z M8.8,40
	c-0.8,0-1.4-0.3-2-0.8C6.3,38.7,6,38,6,37.2V14.9c0-0.8,0.3-1.4,0.8-2c0.5-0.5,1.2-0.8,2-0.8h6.4L18.8,8h10.3l3.7,4.2h6.4
	c0.8,0,1.4,0.3,2,0.8c0.5,0.5,0.8,1.2,0.8,2v22.3c0,0.8-0.3,1.4-0.8,2c-0.5,0.5-1.2,0.8-2,0.8L8.8,40L8.8,40z M8.8,38.5h30.5
	c0.4,0,0.7-0.1,0.9-0.3s0.3-0.5,0.3-0.9V14.9c0-0.3-0.1-0.6-0.3-0.9c-0.2-0.2-0.5-0.4-0.9-0.4h-7.1l-3.7-4.2h-8.9l-3.7,4.2H8.8
	c-0.4,0-0.7,0.1-0.9,0.4c-0.2,0.2-0.3,0.5-0.3,0.9v22.3c0,0.4,0.1,0.7,0.3,0.9S8.4,38.5,8.8,38.5z"/>
</svg>
