<?xml version="1.0" encoding="utf-8"?>
<!-- Generator: Adobe Illustrator 26.3.1, SVG Export Plug-In . SVG Version: 6.00 Build 0)  -->
<svg version="1.1" id="Слой_1" xmlns="http://www.w3.org/2000/svg" xmlns:xlink="http://www.w3.org/1999/xlink" x="0px" y="0px"
	 viewBox="0 0 48 48" style="enable-background:new 0 0 48 48;" xml:space="preserve">
<path d="M15.8,35c-0.8,0-1.4-0.3-2-0.8c-0.5-0.5-0.8-1.2-0.8-2V9.7c0-0.8,0.3-1.4,0.8-2c0.5-0.5,1.2-0.8,2-0.8h13.5
	c-0.1,0.3-0.1,0.5-0.2,0.8C29,7.9,29,8.2,29,8.5H15.8c-0.3,0-0.6,0.1-0.9,0.3c-0.2,0.2-0.4,0.5-0.4,0.9v22.7c0,0.3,0.1,0.6,0.3,0.9
	c0.2,0.2,0.5,0.4,0.8,0.4c1.4-1.7,3.1-3,5.1-4s4-1.4,6.3-1.4c2.2,0,4.3,0.5,6.2,1.5s3.6,2.3,5.1,4c0.3,0,0.6-0.1,0.8-0.4
	c0.2-0.3,0.3-0.5,0.3-0.9V18.6c0.3,0,0.5-0.1,0.8-0.1c0.2-0.1,0.5-0.1,0.8-0.2v13.9c0,0.8-0.3,1.4-0.8,2c-0.5,0.5-1.2,0.8-2,0.8
	C38.3,35,15.8,35,15.8,35z M11.2,43.2c-0.8,0.1-1.5-0.1-2.1-0.5c-0.6-0.5-0.9-1.1-1-1.9L5.4,20c-0.1-0.8,0.1-1.5,0.6-2.1
	s1.1-1,1.9-1l1.7-0.2v1.6L8,18.4c-0.3,0-0.6,0.2-0.8,0.4c-0.2,0.3-0.3,0.6-0.3,0.9l2.7,20.8c0,0.4,0.2,0.6,0.4,0.8
	c0.3,0.2,0.6,0.3,0.9,0.2l25.8-3.2h0.7c0,0.4-0.1,0.7-0.4,1.1c-0.3,0.3-0.6,0.5-1,0.5L11.2,43.2z M34.3,13.7l2.9-8.2h1.7l2.9,8.2
	h-1.5L39.7,12h-3.3l-0.6,1.7H34.3z M36.9,10.7h2.5l-1.2-3.9L36.9,10.7z M27,29.8c-1.7,0-3.3,0.3-4.8,0.9s-2.9,1.5-4,2.8H36
	c-1.2-1.2-2.5-2.1-4.1-2.8C30.4,30.1,28.7,29.8,27,29.8z M27,13.3c1.4,0,2.5,0.5,3.5,1.4c1,1,1.4,2.1,1.4,3.5c0,1.4-0.5,2.5-1.4,3.5
	c-1,1-2.1,1.4-3.5,1.4s-2.5-0.5-3.5-1.4s-1.4-2.1-1.4-3.5s0.5-2.6,1.4-3.5C24.5,13.8,25.7,13.3,27,13.3z M27.1,14.8
	c-0.9,0-1.7,0.3-2.4,1c-0.7,0.7-1,1.5-1,2.4c0,0.9,0.3,1.7,1,2.4c0.7,0.7,1.5,1,2.4,1s1.7-0.3,2.4-1c0.7-0.7,1-1.4,1-2.4
	c0-0.9-0.3-1.7-1-2.4C28.8,15.2,28,14.8,27.1,14.8z"/>
</svg>
