<?xml version="1.0" encoding="utf-8"?>
<!-- Generator: Adobe Illustrator 26.3.1, SVG Export Plug-In . SVG Version: 6.00 Build 0)  -->
<svg version="1.1" id="Слой_1" xmlns="http://www.w3.org/2000/svg" xmlns:xlink="http://www.w3.org/1999/xlink" x="0px" y="0px"
	 viewBox="0 0 48 48" style="enable-background:new 0 0 48 48;" xml:space="preserve">
<path d="M6.8,29.4V18.6h7.3c0.4,0,0.8,0.2,1,0.5c0.3,0.3,0.4,0.7,0.4,1.1v3.9c0,0.4-0.1,0.8-0.4,1c-0.3,0.3-0.6,0.4-1,0.4H8.3v3.8
	C8.3,29.4,6.8,29.4,6.8,29.4z M19.9,29.4V18.6h1.5v4.2h5.9v-4.2h1.5v10.8h-1.5v-5.1h-5.9v5.1C21.5,29.4,19.9,29.4,19.9,29.4z
	 M33.5,29.4V18.6h7.3c0.4,0,0.8,0.2,1,0.5c0.3,0.3,0.4,0.7,0.4,1.1v3.9c0,0.4-0.1,0.8-0.4,1c-0.3,0.3-0.6,0.4-1,0.4H35v3.8
	C34.9,29.4,33.5,29.4,33.5,29.4z M8.3,24.1h5.8v-3.9H8.3V24.1z M34.9,24.1h5.8v-3.9h-5.8V24.1z"/>
</svg>
