<?xml version="1.0" encoding="utf-8"?>
<!-- Generator: Adobe Illustrator 26.3.1, SVG Export Plug-In . SVG Version: 6.00 Build 0)  -->
<svg version="1.1" id="Слой_1" xmlns="http://www.w3.org/2000/svg" xmlns:xlink="http://www.w3.org/1999/xlink" x="0px" y="0px"
	 viewBox="0 0 48 48" style="enable-background:new 0 0 48 48;" xml:space="preserve">
<path d="M8,36.8v-6c0-2.2,0.8-4.1,2.3-5.7c1.6-1.6,3.4-2.3,5.7-2.3h21.5c0.7,0,1.3,0.2,1.8,0.7s0.7,1.1,0.7,1.8
	c0,0.6-0.2,1.1-0.5,1.6c-0.4,0.4-0.8,0.7-1.4,0.9l-5.7,1.5v8.2c0,0.5-0.1,0.9-0.3,1.3c-0.2,0.4-0.5,0.7-0.9,1s-0.8,0.4-1.2,0.5
	c-0.4,0-0.9,0-1.4-0.2l-8.4-3.3C20.2,36.8,8,36.8,8,36.8z M30.8,30.3H18.4c-0.5,0-1,0.2-1.4,0.5c-0.4,0.4-0.6,0.8-0.6,1.3
	c0,0.4,0.1,0.7,0.3,1.1c0.2,0.4,0.5,0.7,1,0.9l11.5,4.5c0.4,0.2,0.8,0.1,1.2-0.1c0.4-0.2,0.5-0.6,0.5-1
	C30.8,37.5,30.8,30.3,30.8,30.3z M9.5,35.2h7.1c-0.5-0.3-1-0.8-1.3-1.3s-0.5-1.1-0.5-1.7c0-1,0.3-1.8,1-2.5s1.5-1,2.5-1H28l9.7-2.5
	c0.3-0.1,0.5-0.2,0.6-0.4c0.1-0.2,0.1-0.4,0.1-0.7c0-0.2-0.2-0.4-0.3-0.6c-0.2-0.2-0.4-0.3-0.7-0.3H16c-1.8,0-3.3,0.6-4.6,1.9
	s-1.9,2.8-1.9,4.6C9.5,30.8,9.5,35.2,9.5,35.2z M20,20c-1.6,0-3.1-0.6-4.2-1.8C14.6,17.1,14,15.6,14,14s0.6-3.1,1.8-4.2S18.4,8,20,8
	s3.1,0.6,4.2,1.8C25.4,11,26,12.4,26,14s-0.6,3.1-1.8,4.2C23.1,19.4,21.6,20,20,20z M20,18.5c1.2,0,2.3-0.4,3.2-1.3
	c0.9-0.9,1.3-1.9,1.3-3.2s-0.4-2.3-1.3-3.2C22.3,10,21.3,9.5,20,9.5c-1.2,0-2.3,0.4-3.2,1.3c-0.9,0.9-1.3,1.9-1.3,3.2
	c0,1.2,0.4,2.3,1.3,3.2C17.7,18,18.7,18.5,20,18.5z"/>
</svg>
