<?xml version="1.0" encoding="utf-8"?>
<!-- Generator: Adobe Illustrator 26.3.1, SVG Export Plug-In . SVG Version: 6.00 Build 0)  -->
<svg version="1.1" id="Слой_1" xmlns="http://www.w3.org/2000/svg" xmlns:xlink="http://www.w3.org/1999/xlink" x="0px" y="0px"
	 viewBox="0 0 48 48" style="enable-background:new 0 0 48 48;" xml:space="preserve">
<path d="M40.2,42.4l-2.5-2.5c-0.1,0-0.2,0-0.3,0.1c-0.1,0-0.2,0-0.4,0H10.8c-0.7,0-1.4-0.3-1.9-0.8S8,38,8,37.2V11
	c0-0.1,0-0.3,0-0.4c0-0.1,0-0.2,0.1-0.3L5.6,7.8l1.1-1.1l34.5,34.5C41.3,41.3,40.2,42.4,40.2,42.4z M40,35l-1.5-1.5V10.8
	c0-0.4-0.1-0.7-0.3-0.9s-0.5-0.3-0.9-0.3H33v17.2c0,0.2,0,0.3-0.1,0.5s-0.2,0.3-0.3,0.4l-5.9-5.9V9.5h-5.5v6.7L13,8h24.2
	c0.7,0,1.4,0.3,1.9,0.8c0.6,0.6,0.9,1.2,0.9,2V35z M10.8,38.5h6.7V28.2h-1c-0.4,0-0.7-0.1-1-0.4s-0.4-0.6-0.4-1v-9.5l-5.4-5.4v25.5
	c0,0.4,0.1,0.7,0.3,0.9C10.1,38.3,10.4,38.5,10.8,38.5z M18.8,38.5h10.5v-7l-7.9-7.9v3c0,0.5-0.1,0.8-0.4,1.2s-0.7,0.5-1.1,0.5h-1
	C18.8,28.2,18.8,38.5,18.8,38.5z M30.5,38.5h5.7l-5.7-5.7C30.5,32.7,30.5,38.5,30.5,38.5z"/>
</svg>
