<?xml version="1.0" encoding="utf-8"?>
<!-- Generator: Adobe Illustrator 26.3.1, SVG Export Plug-In . SVG Version: 6.00 Build 0)  -->
<svg version="1.1" id="Слой_1" xmlns="http://www.w3.org/2000/svg" xmlns:xlink="http://www.w3.org/1999/xlink" x="0px" y="0px"
	 viewBox="0 0 48 48" style="enable-background:new 0 0 48 48;" xml:space="preserve">
<path d="M16.6,25.4h1.5v-4.1h2.7c0.4,0,0.8-0.1,1-0.4c0.3-0.3,0.4-0.6,0.4-1v-2.7c0-0.4-0.1-0.8-0.4-1c-0.3-0.3-0.6-0.4-1-0.4h-4.1
	v9.6H16.6z M18.1,19.9v-2.7h2.7v2.7H18.1z M24.4,25.4h3.9c0.4,0,0.8-0.1,1.1-0.4c0.3-0.3,0.4-0.6,0.4-1v-6.7c0-0.4-0.1-0.8-0.4-1
	c-0.3-0.3-0.6-0.4-1.1-0.4h-3.9C24.4,15.8,24.4,25.4,24.4,25.4z M25.9,24v-6.7h2.5V24C28.3,24,25.9,24,25.9,24z M32.5,25.4H34v-4.1
	h3v-1.5h-3v-2.7h3v-1.5h-4.5V25.4z M14.8,34.9c-0.8,0-1.4-0.3-2-0.8c-0.5-0.5-0.8-1.2-0.8-2V8.8c0-0.8,0.3-1.4,0.8-2
	C13.3,6.3,14,6,14.8,6h23.4c0.8,0,1.4,0.3,2,0.8C40.7,7.3,41,8,41,8.8v23.4c0,0.8-0.3,1.4-0.8,2c-0.5,0.5-1.2,0.8-2,0.8
	C38.2,34.9,14.8,34.9,14.8,34.9z M14.8,33.4h23.4c0.3,0,0.6-0.1,0.8-0.4c0.3-0.3,0.4-0.5,0.4-0.8V8.8c0-0.3-0.1-0.6-0.4-0.8
	c-0.3-0.3-0.5-0.4-0.8-0.4H14.8c-0.3,0-0.6,0.1-0.8,0.4c-0.3,0.3-0.4,0.5-0.4,0.8v23.4c0,0.3,0.1,0.6,0.4,0.8
	C14.3,33.3,14.5,33.4,14.8,33.4z M9.8,40c-0.8,0-1.4-0.3-2-0.8C7.3,38.7,7,38,7,37.2V12.3h1.5v24.9c0,0.3,0.1,0.6,0.4,0.8
	c0.3,0.3,0.5,0.4,0.8,0.4h24.9V40H9.8z M13.6,7.5v25.8V7.5z"/>
</svg>
