<?xml version="1.0" encoding="utf-8"?>
<!-- Generator: Adobe Illustrator 26.3.1, SVG Export Plug-In . SVG Version: 6.00 Build 0)  -->
<svg version="1.1" id="Слой_1" xmlns="http://www.w3.org/2000/svg" xmlns:xlink="http://www.w3.org/1999/xlink" x="0px" y="0px"
	 viewBox="0 0 48 48" style="enable-background:new 0 0 48 48;" xml:space="preserve">
<path d="M28.8,23.8l1.5,1.5H37c0.4,0,0.8-0.1,1.1-0.4s0.4-0.6,0.4-1.1V15c0-0.4-0.1-0.8-0.4-1.1c-0.3-0.3-0.6-0.4-1.1-0.4H24.2
	c-0.4,0-0.8,0.2-1.1,0.5c-0.3,0.3-0.4,0.7-0.4,1.1h-0.4h14.6v8.7H28.8z M41.6,36.6l-1.1-1.1V12.8c0-0.4-0.1-0.7-0.3-0.9
	s-0.5-0.3-0.9-0.3H16.5L15,10h24.2c0.8,0,1.4,0.3,2,0.8c0.5,0.5,0.8,1.2,0.8,2v22.5c0,0.2,0,0.5-0.1,0.7
	C41.8,36.2,41.7,36.4,41.6,36.6z M42.1,44.3L35.8,38h-27c-0.8,0-1.4-0.3-2-0.8C6.3,36.7,6,36,6,35.2V12.8c0-0.8,0.3-1.4,0.8-2
	C7.3,10.3,8,10,8.8,10H10l1.5,1.5H8.8c-0.3,0-0.6,0.1-0.8,0.4c-0.3,0.3-0.4,0.5-0.4,0.8v22.5c0,0.3,0.1,0.6,0.4,0.8
	c0.3,0.3,0.5,0.4,0.8,0.4h25.5L3.8,6l1.1-1.1l38.3,38.3L42.1,44.3z"/>
</svg>
