<?xml version="1.0" encoding="utf-8"?>
<!-- Generator: Adobe Illustrator 26.3.1, SVG Export Plug-In . SVG Version: 6.00 Build 0)  -->
<svg version="1.1" id="Слой_1" xmlns="http://www.w3.org/2000/svg" xmlns:xlink="http://www.w3.org/1999/xlink" x="0px" y="0px"
	 viewBox="0 0 48 48" style="enable-background:new 0 0 48 48;" xml:space="preserve">
<path d="M24.8,23.2h15.7c-0.2-4.2-1.8-7.9-4.8-10.9s-6.6-4.6-10.9-4.7C24.8,7.6,24.8,23.2,24.8,23.2z M23.2,40.5v-33
	c-4.4,0.2-8.1,1.8-11.1,5s-4.6,7-4.6,11.4s1.5,8.2,4.6,11.4C15.2,38.6,18.9,40.3,23.2,40.5z M24.8,40.5c4.3-0.1,7.9-1.7,10.9-4.7
	c3-3,4.6-6.7,4.8-10.9H24.8V40.5z M24,42c-2.5,0-4.8-0.5-7-1.4s-4.1-2.2-5.7-3.8s-2.9-3.5-3.8-5.7C6.5,28.8,6,26.5,6,24
	s0.5-4.8,1.4-7s2.2-4.1,3.8-5.7s3.5-2.9,5.7-3.8C19.2,6.5,21.5,6,24,6s4.8,0.5,7,1.4s4.1,2.2,5.7,3.9c1.6,1.6,2.9,3.5,3.9,5.7
	c0.9,2.2,1.4,4.5,1.4,7s-0.5,4.8-1.4,7s-2.2,4.1-3.8,5.7c-1.6,1.6-3.5,2.9-5.7,3.9C28.8,41.5,26.5,42,24,42z"/>
</svg>
