<?xml version="1.0" encoding="utf-8"?>
<!-- Generator: Adobe Illustrator 26.3.1, SVG Export Plug-In . SVG Version: 6.00 Build 0)  -->
<svg version="1.1" id="Слой_1" xmlns="http://www.w3.org/2000/svg" xmlns:xlink="http://www.w3.org/1999/xlink" x="0px" y="0px"
	 viewBox="0 0 48 48" style="enable-background:new 0 0 48 48;" xml:space="preserve">
<path d="M17.2,40c-2.6,0-4.8-0.9-6.6-2.7s-2.7-4-2.7-6.6c0-1.2,0.2-2.4,0.7-3.6c0.5-1.1,1.1-2.1,2-3l13.5-13.5c0.9-0.9,1.9-1.5,3-2
	C28.3,8.2,29.5,8,30.8,8c2.6,0,4.8,0.9,6.6,2.7s2.7,4,2.7,6.6c0,1.2-0.2,2.4-0.7,3.6c-0.5,1.1-1.1,2.1-2,3L23.8,37.3
	c-0.9,0.9-1.9,1.5-3,2C19.7,39.8,18.5,40,17.2,40z M30,28.9l6.2-6.1c0.7-0.7,1.3-1.5,1.7-2.5c0.4-0.9,0.6-1.9,0.6-3
	c0-2.1-0.7-4-2.2-5.5S33,9.6,30.8,9.6c-1,0-2,0.2-3,0.6c-1,0.4-1.8,0.9-2.5,1.7L19.1,18L30,28.9z M17.2,38.5c1,0,2-0.2,3-0.6
	c1-0.4,1.8-0.9,2.5-1.7l6.1-6.2L18,19.1l-6.2,6.1c-0.7,0.7-1.3,1.5-1.7,2.5c-0.4,0.9-0.6,1.9-0.6,3c0,2.1,0.7,4,2.2,5.5
	C13.3,37.7,15.1,38.5,17.2,38.5z"/>
</svg>
