<?xml version="1.0" encoding="utf-8"?>
<!-- Generator: Adobe Illustrator 26.3.1, SVG Export Plug-In . SVG Version: 6.00 Build 0)  -->
<svg version="1.1" id="Слой_1" xmlns="http://www.w3.org/2000/svg" xmlns:xlink="http://www.w3.org/1999/xlink" x="0px" y="0px"
	 viewBox="0 0 48 48" style="enable-background:new 0 0 48 48;" xml:space="preserve">
<path d="M33,28.1l-1.1-1l4.3-4.4c0.7-0.7,1.3-1.5,1.7-2.5s0.6-1.9,0.6-3c0-2.1-0.7-4-2.2-5.5S33,9.5,30.8,9.5c-1,0-2,0.2-3,0.6
	c-1,0.4-1.8,0.9-2.5,1.7l-4.4,4.3l-1-1.1l4.3-4.3c0.9-0.9,1.9-1.5,3-2C28.3,8.2,29.5,8,30.7,8c2.6,0,4.8,0.9,6.6,2.7s2.7,4,2.7,6.6
	c0,1.2-0.2,2.4-0.7,3.5s-1.1,2.1-2,3L33,28.1z M17.2,38.5c1,0,2-0.2,3-0.6c1-0.4,1.8-0.9,2.5-1.7l5.5-5.5l-10.9-11l-5.5,5.5
	c-0.7,0.7-1.3,1.6-1.7,2.5c-0.4,1-0.6,1.9-0.6,3c0,2.1,0.7,4,2.2,5.5C13.3,37.7,15.1,38.5,17.2,38.5z M39.9,42.3L29.3,31.7l-5.5,5.5
	c-0.9,0.9-1.9,1.5-3,2s-2.3,0.7-3.6,0.7c-2.6,0-4.8-0.9-6.6-2.7s-2.7-4-2.7-6.6c0-1.2,0.2-2.4,0.7-3.6c0.5-1.1,1.1-2.1,2-3l5.5-5.5
	L5.9,8.4L7,7.2l34,34.1L39.9,42.3z"/>
</svg>
