<?xml version="1.0" encoding="utf-8"?>
<!-- Generator: Adobe Illustrator 26.3.1, SVG Export Plug-In . SVG Version: 6.00 Build 0)  -->
<svg version="1.1" id="Слой_1" xmlns="http://www.w3.org/2000/svg" xmlns:xlink="http://www.w3.org/1999/xlink" x="0px" y="0px"
	 viewBox="0 0 48 48" style="enable-background:new 0 0 48 48;" xml:space="preserve">
<path d="M8.8,38c-0.8,0-1.4-0.3-2-0.8C6.3,36.7,6,36,6,35.2V12.8c0-0.8,0.3-1.4,0.8-2C7.3,10.3,8,10,8.8,10h30.5
	c0.8,0,1.4,0.3,2,0.8c0.5,0.5,0.8,1.2,0.8,2v22.5c0,0.8-0.3,1.4-0.8,2c-0.5,0.5-1.2,0.8-2,0.8L8.8,38L8.8,38z M13,29.9h1.5V18.1
	h-1.3l-3.3,2.3l0.8,1.2l2.3-1.5V29.9z M19.3,29.9h7.5v-1.5h-5.4v-0.2c0.5-0.4,1-0.9,1.5-1.4s1.1-1.1,1.6-1.7c0.6-0.6,1-1.2,1.3-1.8
	c0.3-0.6,0.4-1.2,0.4-2c0-1-0.3-1.8-1-2.4S23.7,18,22.7,18c-0.8,0-1.5,0.2-2.2,0.6c-0.6,0.4-1.1,1-1.4,1.6l1.5,0.7
	c0.2-0.4,0.5-0.7,0.9-1s0.8-0.4,1.2-0.4c0.6,0,1.1,0.2,1.5,0.5s0.5,0.8,0.5,1.3s-0.1,1-0.4,1.4s-0.6,0.8-1.2,1.4
	c-0.9,0.9-1.6,1.7-2.2,2.2s-1.2,1.1-1.9,1.8C19.3,28.2,19.3,29.9,19.3,29.9z M34.3,29.9c1.1,0,2-0.3,2.6-0.9c0.7-0.6,1-1.4,1-2.5
	c0-0.8-0.2-1.5-0.6-2c-0.4-0.5-1-0.8-1.7-0.8v-0.1c0.7-0.1,1.1-0.4,1.5-0.8c0.3-0.4,0.5-1,0.5-1.7c0-0.9-0.3-1.7-0.9-2.3
	c-0.6-0.6-1.4-0.8-2.4-0.8c-0.9,0-1.6,0.2-2.1,0.7s-1,0.9-1.3,1.4l1.3,0.7c0.2-0.4,0.5-0.7,0.9-0.9c0.4-0.2,0.8-0.3,1.2-0.3
	c0.5,0,1,0.2,1.3,0.5s0.5,0.7,0.5,1.2c0,0.6-0.2,1-0.6,1.3c-0.4,0.3-0.9,0.4-1.6,0.4h-0.6v1.5H34c0.7,0,1.3,0.2,1.8,0.5
	s0.7,0.8,0.7,1.4s-0.2,1.1-0.6,1.5c-0.4,0.4-0.9,0.6-1.5,0.6c-0.5,0-1-0.1-1.4-0.4s-0.8-0.7-1-1.3l-1.3,0.5c0.3,0.8,0.8,1.4,1.4,1.9
	C32.6,29.7,33.4,29.9,34.3,29.9z M8.8,36.5h30.5c0.4,0,0.7-0.1,0.9-0.3s0.3-0.5,0.3-0.9V12.8c0-0.4-0.1-0.7-0.3-0.9
	s-0.5-0.3-0.9-0.3H8.8c-0.4,0-0.7,0.1-0.9,0.3c-0.2,0.2-0.3,0.5-0.3,0.9v22.5c0,0.4,0.1,0.7,0.3,0.9C8.1,36.3,8.4,36.5,8.8,36.5z
	 M7.5,36.5v-25V36.5z"/>
</svg>
