<?xml version="1.0" encoding="utf-8"?>
<!-- Generator: Adobe Illustrator 26.3.1, SVG Export Plug-In . SVG Version: 6.00 Build 0)  -->
<svg version="1.1" id="Слой_1" xmlns="http://www.w3.org/2000/svg" xmlns:xlink="http://www.w3.org/1999/xlink" x="0px" y="0px"
	 viewBox="0 0 48 48" style="enable-background:new 0 0 48 48;" xml:space="preserve">
<path d="M13.5,42l-0.8-0.8v-8.8H6v-1.7l2.9-5.9v-6.4H6v-1.5h14.9v1.5H18v6.4l2.9,5.9v1.7h-6.7v8.8L13.5,42z M7.7,30.9h11.6l-2.8-5.5
	v-6.9h-6.1v6.9L7.7,30.9z M35.2,15.5c-1.3,0-2.5-0.5-3.4-1.4s-1.4-2.1-1.4-3.4s0.5-2.5,1.4-3.4c1-0.8,2.1-1.3,3.4-1.3
	s2.5,0.5,3.4,1.4S40,9.5,40,10.8s-0.5,2.5-1.4,3.4C37.7,15.1,36.6,15.5,35.2,15.5z M26.5,11.5H6c0-0.4,0.2-0.8,0.5-1.1
	c0.3-0.2,0.6-0.4,1-0.4h18.9c0,0.1,0,0.2,0,0.4c0,0.1,0,0.3,0,0.4c0,0.1,0,0.3,0,0.4C26.5,11.3,26.5,11.4,26.5,11.5z M39.2,38H25.1
	v-1.5h14.1c0.4,0,0.7-0.1,0.9-0.3s0.3-0.5,0.3-0.9V17.8c0.3-0.2,0.6-0.5,0.8-0.7c0.3-0.2,0.5-0.5,0.7-0.7v18.9c0,0.8-0.3,1.4-0.8,2
	C40.7,37.7,40,38,39.2,38z"/>
</svg>
