<?xml version="1.0" encoding="utf-8"?>
<!-- Generator: Adobe Illustrator 26.3.1, SVG Export Plug-In . SVG Version: 6.00 Build 0)  -->
<svg version="1.1" id="Слой_1" xmlns="http://www.w3.org/2000/svg" xmlns:xlink="http://www.w3.org/1999/xlink" x="0px" y="0px"
	 viewBox="0 0 48 48" style="enable-background:new 0 0 48 48;" xml:space="preserve">
<path d="M13.5,42l-0.8-0.8v-8.8H6v-1.7l2.9-5.9v-6.4H6v-1.5h14.9v1.5H18v6.4l2.9,5.9v1.7h-6.7v8.8L13.5,42z M25.1,38v-1.5h14.1
	c0.4,0,0.7-0.1,0.9-0.3s0.3-0.5,0.3-0.9V12.8c0-0.4-0.1-0.7-0.3-0.9s-0.5-0.3-0.9-0.3H6c0-0.4,0.2-0.8,0.5-1.1s0.6-0.5,1-0.5h31.7
	c0.8,0,1.4,0.3,2,0.8c0.5,0.5,0.8,1.2,0.8,2v22.5c0,0.8-0.3,1.4-0.8,2c-0.5,0.5-1.2,0.8-2,0.8L25.1,38L25.1,38z M7.7,30.9h11.6
	l-2.8-5.5v-6.9h-6.1v6.9L7.7,30.9z"/>
</svg>
