<?xml version="1.0" encoding="utf-8"?>
<!-- Generator: Adobe Illustrator 26.3.1, SVG Export Plug-In . SVG Version: 6.00 Build 0)  -->
<svg version="1.1" id="Слой_1" xmlns="http://www.w3.org/2000/svg" xmlns:xlink="http://www.w3.org/1999/xlink" x="0px" y="0px"
	 viewBox="0 0 48 48" style="enable-background:new 0 0 48 48;" xml:space="preserve">
<path d="M3.2,23.8v-8.1h1.3v5.8l6.8-6.8l0.9,0.9l-6.8,6.8h5.8v1.3C11.3,23.8,3.2,23.8,3.2,23.8z M15.6,12.3l-0.9-0.9l6.8-6.8h-5.8
	V3.2h8.1v8.1h-1.3V5.5L15.6,12.3z M28,43.5c-0.6,0-1.2-0.1-1.8-0.4c-0.6-0.2-1.1-0.6-1.6-1l-9.9-9.9l0.6-0.7
	c0.2-0.3,0.5-0.5,0.8-0.6s0.7-0.1,1,0l6.3,1.5V15.5c0-0.2,0.1-0.4,0.2-0.5s0.3-0.2,0.6-0.2s0.4,0.1,0.5,0.2c0.1,0.1,0.2,0.3,0.2,0.5
	v19L17,32.4l8.7,8.7c0.3,0.3,0.6,0.5,1,0.7s0.8,0.2,1.2,0.2h7.4c1.5,0,2.8-0.5,3.9-1.6s1.6-2.3,1.6-3.9V28c0-0.2,0.1-0.4,0.2-0.5
	c0.1-0.1,0.3-0.2,0.6-0.2s0.4,0.1,0.5,0.2s0.2,0.3,0.2,0.5v8.5c0,1.9-0.7,3.6-2,5c-1.4,1.4-3,2-5,2C35.5,43.5,28,43.5,28,43.5z
	 M29.3,30.3v-8.2c0-0.2,0.1-0.4,0.2-0.5s0.3-0.2,0.6-0.2s0.4,0.1,0.5,0.2s0.2,0.3,0.2,0.5v8.2C30.8,30.3,29.3,30.3,29.3,30.3z
	 M35.1,30.3v-6.2c0-0.2,0.1-0.4,0.2-0.5c0.1-0.1,0.3-0.2,0.6-0.2c0.2,0,0.4,0.1,0.5,0.2s0.2,0.3,0.2,0.5v6.2
	C36.7,30.3,35.1,30.3,35.1,30.3z"/>
</svg>
