<?xml version="1.0" encoding="utf-8"?>
<!-- Generator: Adobe Illustrator 26.3.1, SVG Export Plug-In . SVG Version: 6.00 Build 0)  -->
<svg version="1.1" id="Слой_1" xmlns="http://www.w3.org/2000/svg" xmlns:xlink="http://www.w3.org/1999/xlink" x="0px" y="0px"
	 viewBox="0 0 48 48" style="enable-background:new 0 0 48 48;" xml:space="preserve">
<path d="M20.3,15.2V8h16.9c0.8,0,1.4,0.3,2,0.8c0.5,0.5,0.8,1.2,0.8,2v4.5H20.3V15.2z M10.8,40c-0.8,0-1.4-0.3-2-0.8
	C8.3,38.7,8,38,8,37.2V20.3h7.2V40H10.8z M8,15.2v-4.5c0-0.8,0.3-1.4,0.8-2C9.3,8.3,10,8,10.8,8h4.5v7.2H8z M24.9,42l-6.5-6.5
	l6.5-6.5l1.1,1.1l-4.6,4.6h8c1.5,0,2.8-0.5,3.8-1.6c1-1,1.6-2.3,1.6-3.8v-8L30.2,26l-1.1-1.1l6.5-6.5l6.5,6.5L40.9,26l-4.6-4.6v8
	c0,1.9-0.7,3.6-2,4.9c-1.4,1.3-3,2-4.9,2h-8l4.6,4.6L24.9,42z"/>
</svg>
