<?xml version="1.0" encoding="utf-8"?>
<!-- Generator: Adobe Illustrator 26.3.1, SVG Export Plug-In . SVG Version: 6.00 Build 0)  -->
<svg version="1.1" id="Слой_1" xmlns="http://www.w3.org/2000/svg" xmlns:xlink="http://www.w3.org/1999/xlink" x="0px" y="0px"
	 viewBox="0 0 48 48" style="enable-background:new 0 0 48 48;" xml:space="preserve">
<path d="M18,11.2c0.3,0,0.6-0.1,0.9-0.4c0.2-0.3,0.4-0.5,0.4-0.9c0-0.3-0.1-0.6-0.4-0.9c-0.3-0.2-0.5-0.4-0.9-0.4
	c-0.3,0-0.6,0.1-0.9,0.4c-0.2,0.3-0.4,0.5-0.4,0.9c0,0.3,0.1,0.6,0.4,0.9C17.4,11.1,17.7,11.2,18,11.2z M14.8,44
	c-0.8,0-1.4-0.3-2-0.8c-0.5-0.5-0.8-1.2-0.8-2V6.8c0-0.8,0.3-1.4,0.8-2C13.3,4.3,14,4,14.8,4h18.5c0.8,0,1.4,0.3,2,0.8
	C35.7,5.3,36,6,36,6.8v34.5c0,0.8-0.3,1.4-0.8,2c-0.5,0.5-1.2,0.8-2,0.8L14.8,44L14.8,44z M14.8,42.5h18.5c0.3,0,0.6-0.1,0.8-0.4
	c0.3-0.3,0.4-0.5,0.4-0.8V6.8c0-0.3-0.1-0.6-0.4-0.8c-0.3-0.3-0.5-0.4-0.8-0.4H14.8c-0.3,0-0.6,0.1-0.8,0.4
	c-0.3,0.3-0.4,0.5-0.4,0.8v34.5c0,0.3,0.1,0.6,0.4,0.8C14.2,42.3,14.5,42.5,14.8,42.5z M13.5,42.5v-37V42.5z"/>
</svg>
