<?xml version="1.0" encoding="utf-8"?>
<!-- Generator: Adobe Illustrator 26.3.1, SVG Export Plug-In . SVG Version: 6.00 Build 0)  -->
<svg version="1.1" id="Слой_1" xmlns="http://www.w3.org/2000/svg" xmlns:xlink="http://www.w3.org/1999/xlink" x="0px" y="0px"
	 viewBox="0 0 48 48" style="enable-background:new 0 0 48 48;" xml:space="preserve">
<path d="M22.5,20.4c0.5,0,0.9-0.2,1.3-0.6s0.6-0.8,0.6-1.3s-0.2-0.9-0.6-1.3s-0.8-0.6-1.3-0.6s-0.9,0.2-1.3,0.6s-0.6,0.8-0.6,1.3
	s0.2,0.9,0.6,1.3C21.5,20.2,22,20.4,22.5,20.4z M41.4,42.5c-0.9,0-2.4-0.7-4.7-2s-4.7-3-7.4-4.8c-0.8,0.4-1.7,0.7-2.6,0.9
	s-1.8,0.3-2.8,0.3c-3.5,0-6.5-1.2-9-3.7s-3.7-5.5-3.7-9c0-1,0.1-1.9,0.3-2.8s0.5-1.8,0.9-2.6c-1.9-2.6-3.4-5-4.7-7.3s-2-3.8-2-4.6
	C5.7,6.5,5.8,6.3,6,6c0.2-0.2,0.4-0.3,0.7-0.3c0.7,0,2,0.5,3.9,1.6s3.8,2.2,5.7,3.3c-0.3,0.1-0.5,0.3-0.8,0.4
	c-0.2,0.1-0.5,0.3-0.7,0.5c-1.2-0.8-2.4-1.5-3.7-2.1C9.9,8.7,8.7,8.1,7.4,7.6c0.8,1.7,1.7,3.4,2.6,5s1.9,3.2,3,4.8
	c1.1-1.8,2.7-3.3,4.6-4.4s4-1.7,6.3-1.7c3.5,0,6.5,1.2,9,3.7s3.7,5.5,3.7,9c0,2.3-0.5,4.4-1.7,6.3c-1.1,1.9-2.6,3.4-4.4,4.5
	c1.6,1.2,3.2,2.2,4.9,3.1c1.6,0.9,3.4,1.8,5.1,2.7c-0.6-1.2-1.2-2.5-1.9-3.7s-1.4-2.5-2.1-3.7c0.2-0.2,0.3-0.4,0.5-0.7
	s0.3-0.5,0.4-0.8c1.1,1.8,2.2,3.7,3.3,5.6c1.1,1.9,1.6,3.2,1.6,4c0,0.3-0.1,0.5-0.3,0.7C41.9,42.4,41.7,42.5,41.4,42.5z M27.5,29.3
	c0.3,0,0.6-0.1,0.9-0.4c0.2-0.2,0.4-0.5,0.4-0.9c0-0.3-0.1-0.6-0.4-0.9c-0.2-0.2-0.5-0.4-0.9-0.4c-0.3,0-0.6,0.1-0.9,0.4
	c-0.2,0.2-0.4,0.5-0.4,0.9c0,0.3,0.1,0.6,0.4,0.9C26.8,29.2,27.1,29.3,27.5,29.3z M30,22.6c0.3,0,0.6-0.1,0.8-0.3
	c0.2-0.2,0.3-0.5,0.3-0.8s-0.1-0.6-0.3-0.8c-0.2-0.2-0.5-0.3-0.8-0.3s-0.6,0.1-0.8,0.3c-0.2,0.2-0.3,0.5-0.3,0.8s0.1,0.6,0.3,0.8
	S29.7,22.6,30,22.6z M27.8,34.6c-2.8-2.1-5.5-4.5-8.1-7.1s-4.6-5.1-6.3-7.4c-0.2,0.5-0.4,1.2-0.5,1.9c-0.1,0.7-0.2,1.4-0.2,1.9
	c0,1.6,0.3,3.1,0.9,4.6c0.6,1.4,1.5,2.7,2.6,3.7c1.1,1,2.4,1.8,3.8,2.4c1.4,0.5,3,0.8,4.6,0.7c0.5,0,1-0.1,1.6-0.2
	C26.8,35,27.3,34.8,27.8,34.6z M29.2,33.9c1.8-0.9,3.2-2.3,4.3-4.1c1.1-1.8,1.6-3.7,1.6-5.8c0-3.1-1.1-5.8-3.3-7.9s-4.8-3.3-8-3.3
	c-2.1,0-4.1,0.5-5.8,1.6c-1.7,1.1-3.1,2.5-4,4.3c2.1,2.9,4.5,5.6,7,8.1C23.6,29.4,26.3,31.7,29.2,33.9z"/>
</svg>
