<?xml version="1.0" encoding="utf-8"?>
<!-- Generator: Adobe Illustrator 26.3.1, SVG Export Plug-In . SVG Version: 6.00 Build 0)  -->
<svg version="1.1" id="Слой_1" xmlns="http://www.w3.org/2000/svg" xmlns:xlink="http://www.w3.org/1999/xlink" x="0px" y="0px"
	 viewBox="0 0 48 48" style="enable-background:new 0 0 48 48;" xml:space="preserve">
<path d="M29.8,27.6l1.6-5.8l-5-3.4l-1.6,5.8L29.8,27.6z M10.1,39.7L8.4,39c-1.1-0.5-1.8-1.3-2.2-2.4S6,34.5,6.5,33.4l3.6-8.1
	C10.1,25.3,10.1,39.7,10.1,39.7z M18.4,41.9c-1.1,0-2.1-0.4-2.8-1.2c-0.8-0.8-1.2-1.7-1.2-2.9v-11l5.1,13.9c0.1,0.3,0.2,0.5,0.3,0.7
	c0.1,0.2,0.3,0.4,0.4,0.6C20.2,41.9,18.4,41.9,18.4,41.9z M26.6,39.5c-0.7,0.3-1.4,0.3-2.1,0s-1.2-0.8-1.4-1.6l-8.4-23.1
	c-0.3-0.7-0.2-1.4,0.1-2.1c0.3-0.7,0.8-1.2,1.6-1.4l13.3-4.8c0.7-0.3,1.4-0.2,2.1,0.1c0.7,0.3,1.2,0.8,1.4,1.6l8.5,23
	c0.3,0.7,0.2,1.4-0.1,2.1c-0.3,0.7-0.8,1.2-1.5,1.5C39.9,34.8,26.6,39.5,26.6,39.5z M26.1,38l13.1-4.8c0.3-0.1,0.6-0.3,0.7-0.6
	c0.1-0.3,0.1-0.6,0-0.9L31.7,8.8c-0.1-0.3-0.3-0.6-0.6-0.7c-0.3-0.1-0.6-0.1-0.9,0L17,12.9c-0.3,0.1-0.6,0.3-0.7,0.6s-0.1,0.6,0,1
	l8.4,22.9c0.1,0.3,0.3,0.6,0.6,0.7C25.5,38.1,25.8,38.1,26.1,38z"/>
</svg>
