<?xml version="1.0" encoding="utf-8"?>
<!-- Generator: Adobe Illustrator 26.3.1, SVG Export Plug-In . SVG Version: 6.00 Build 0)  -->
<svg version="1.1" id="Слой_1" xmlns="http://www.w3.org/2000/svg" xmlns:xlink="http://www.w3.org/1999/xlink" x="0px" y="0px"
	 viewBox="0 0 48 48" style="enable-background:new 0 0 48 48;" xml:space="preserve">
<path d="M24.9,40.5c0.1,0.3,0.2,0.5,0.3,0.8c0.1,0.3,0.3,0.5,0.5,0.7H10.8c-0.8,0-1.4-0.3-2-0.8C8.3,40.7,8,40,8,39.2V8.8
	c0-0.8,0.3-1.4,0.8-2C9.3,6.3,10,6,10.8,6h22.5c0.8,0,1.4,0.3,2,0.8C35.7,7.3,36,8,36,8.8v15.5c-0.2,0-0.5,0-0.8,0s-0.5,0-0.8,0V8.8
	c0-0.3-0.1-0.6-0.4-0.8c-0.3-0.3-0.5-0.4-0.8-0.4H22.6v12.3l-3.9-2.3l-3.9,2.3V7.5h-4c-0.3,0-0.6,0.1-0.8,0.4
	C9.7,8.2,9.5,8.5,9.5,8.8v30.5c0,0.3,0.1,0.6,0.4,0.8c0.3,0.3,0.5,0.4,0.8,0.4C10.8,40.5,24.9,40.5,24.9,40.5z M35.2,43.4
	c-2.2,0-4-0.7-5.5-2.2s-2.3-3.4-2.3-5.6c0-2.2,0.8-4,2.3-5.5s3.4-2.3,5.6-2.3c2.2,0,4.1,0.8,5.6,2.3s2.3,3.4,2.3,5.6
	s-0.7,4.1-2.2,5.6C39.3,42.6,37.4,43.4,35.2,43.4z M33.5,39.2l5.1-3.7l-5.1-3.6C33.5,31.8,33.5,39.2,33.5,39.2z M14.8,7.5h7.8H14.8z
	 M24.9,7.5H9.5h24.9H23.9H24.9z"/>
</svg>
