<?xml version="1.0" encoding="utf-8"?>
<!-- Generator: Adobe Illustrator 26.3.1, SVG Export Plug-In . SVG Version: 6.00 Build 0)  -->
<svg version="1.1" id="Слой_1" xmlns="http://www.w3.org/2000/svg" xmlns:xlink="http://www.w3.org/1999/xlink" x="0px" y="0px"
	 viewBox="0 0 48 48" style="enable-background:new 0 0 48 48;" xml:space="preserve">
<path d="M28.1,20.5L27,19.4l6-6l-6-6l1.1-1.1l6,6l6-6l1,1.1l-6,6l6,6l-1,1.1l-6-6L28.1,20.5z M5.5,20.8L14.1,6l8.5,14.9
	C22.6,20.8,5.5,20.8,5.5,20.8z M14.1,41c-1.9,0-3.6-0.7-5-2C7.7,37.6,7,36,7,34s0.7-3.7,2.1-5c1.4-1.4,3-2,5-2s3.6,0.7,5,2
	c1.4,1.4,2,3,2,5s-0.7,3.6-2,5C17.8,40.4,16.1,41,14.1,41z M14.1,39.5c1.5,0,2.8-0.5,3.9-1.6s1.6-2.4,1.6-3.9s-0.5-2.8-1.6-3.9
	s-2.4-1.6-3.9-1.6s-2.8,0.5-3.9,1.6S8.6,32.5,8.6,34s0.5,2.8,1.6,3.9C11.3,39,12.6,39.5,14.1,39.5z M8.2,19.3H20L14.1,9.1L8.2,19.3z
	 M27,41V27h14.1v14H27z M28.6,39.5h11v-11h-11C28.6,28.5,28.6,39.5,28.6,39.5z"/>
</svg>
