<?xml version="1.0" encoding="utf-8"?>
<!-- Generator: Adobe Illustrator 26.3.1, SVG Export Plug-In . SVG Version: 6.00 Build 0)  -->
<svg version="1.1" id="Слой_1" xmlns="http://www.w3.org/2000/svg" xmlns:xlink="http://www.w3.org/1999/xlink" x="0px" y="0px"
	 viewBox="0 0 48 48" style="enable-background:new 0 0 48 48;" xml:space="preserve">
<path d="M23.2,42V25.8c-0.4-0.2-0.7-0.4-0.9-0.7C22.1,24.7,22,24.4,22,24c0-0.5,0.2-1,0.6-1.4S23.5,22,24,22s1,0.2,1.4,0.6
	S26,23.5,26,24c0,0.4-0.1,0.7-0.3,1.1c-0.2,0.3-0.5,0.6-0.9,0.8V42H23.2z M11.6,37.1c-1.7-1.7-3.1-3.6-4.1-5.8S6,26.6,6,24
	c0-2.5,0.5-4.8,1.4-7s2.2-4.1,3.8-5.7s3.5-2.9,5.7-3.8C19.2,6.5,21.5,6,24,6s4.8,0.5,7,1.4s4.1,2.2,5.7,3.8c1.6,1.6,2.9,3.5,3.8,5.7
	c0.9,2.2,1.4,4.5,1.4,7c0,2.6-0.5,5-1.5,7.2S38,35.3,36.3,37l-1-1c1.6-1.5,2.8-3.3,3.8-5.3c0.9-2,1.4-4.3,1.4-6.6
	c0-4.6-1.6-8.5-4.8-11.7C32.5,9.1,28.6,7.5,24,7.5s-8.5,1.6-11.7,4.8S7.5,19.4,7.5,24c0,2.4,0.5,4.6,1.4,6.7c0.9,2,2.2,3.8,3.8,5.3
	L11.6,37.1z M17.3,31.4c-1-0.9-1.8-2-2.4-3.3C14.3,26.9,14,25.5,14,24c0-2.8,1-5.1,2.9-7.1c2-1.9,4.3-2.9,7.1-2.9s5.1,1,7.1,2.9
	S34,21.2,34,24c0,1.5-0.3,2.8-0.9,4.1c-0.6,1.3-1.4,2.4-2.4,3.3l-1.1-1.1c0.9-0.8,1.6-1.7,2.1-2.8c0.5-1.1,0.8-2.2,0.8-3.5
	c0-2.4-0.8-4.4-2.5-6c-1.6-1.6-3.6-2.5-6-2.5s-4.3,0.8-6,2.5c-1.6,1.6-2.5,3.6-2.5,6c0,1.3,0.3,2.5,0.8,3.5c0.5,1.1,1.2,2,2.1,2.8
	L17.3,31.4z"/>
</svg>
