<?xml version="1.0" encoding="utf-8"?>
<!-- Generator: Adobe Illustrator 26.3.1, SVG Export Plug-In . SVG Version: 6.00 Build 0)  -->
<svg version="1.1" id="Слой_1" xmlns="http://www.w3.org/2000/svg" xmlns:xlink="http://www.w3.org/1999/xlink" x="0px" y="0px"
	 viewBox="0 0 48 48" style="enable-background:new 0 0 48 48;" xml:space="preserve">
<path d="M23.8,11.8c0,0.8-0.3,1.4-0.8,2c-0.5,0.5-1.2,0.8-2,0.8c-0.4,0-0.8-0.1-1.2-0.2c-0.4-0.2-0.7-0.4-0.9-0.7
	c-1,0.4-1.9,1-2.6,1.7c-0.7,0.8-1.2,1.7-1.4,2.7h25l-1.7,11h-7.5v-1.5H37c0.2-1.3,0.4-2.6,0.6-4c0.2-1.3,0.4-2.7,0.7-4H9.9
	c0.2,1.3,0.4,2.6,0.7,4c0.2,1.3,0.4,2.7,0.6,4h6.3V29H9.9L8.2,18h5.2c0.2-1.4,0.8-2.5,1.7-3.6c0.9-1,2-1.8,3.3-2.2
	c0-0.1,0-0.1,0-0.2v-0.2c0-0.8,0.2-1.5,0.8-2C19.5,9.3,20.2,9,21,9s1.4,0.3,2,0.8C23.5,10.3,23.8,11,23.8,11.8z M19.2,38.5h9.6
	L30,26.9c0-0.4-0.1-0.7-0.3-0.9c-0.2-0.3-0.5-0.4-0.9-0.4h-9.5c-0.4,0-0.7,0.1-0.9,0.4c-0.2,0.3-0.4,0.6-0.3,0.9L19.2,38.5z
	 M17.8,40l-1.3-13c-0.1-0.8,0.2-1.5,0.7-2.1s1.2-0.9,2-0.9h9.5c0.8,0,1.5,0.3,2,0.9s0.8,1.3,0.7,2.1l-1.3,13
	C30.2,40,17.8,40,17.8,40z"/>
</svg>
