<?xml version="1.0" encoding="utf-8"?>
<!-- Generator: Adobe Illustrator 26.3.1, SVG Export Plug-In . SVG Version: 6.00 Build 0)  -->
<svg version="1.1" id="Слой_1" xmlns="http://www.w3.org/2000/svg" xmlns:xlink="http://www.w3.org/1999/xlink" x="0px" y="0px"
	 viewBox="0 0 48 48" style="enable-background:new 0 0 48 48;" xml:space="preserve">
<path d="M34.2,29.4l8.1-8l1.1,1.1l-8,8.1L34.2,29.4z M5.3,37.3V33c0-0.5,0.1-1,0.4-1.4s0.7-0.7,1.2-1c1-0.4,1.9-0.9,2.8-1.4
	c0.9-0.5,1.8-1.1,2.6-1.8l1.6,1.6c0.1,0.2,0.3,0.3,0.5,0.3s0.5-0.1,0.7-0.3c0.2-0.2,0.2-0.4,0.2-0.6s-0.1-0.4-0.2-0.6l-1.5-1.5
	c0.2-0.2,0.4-0.4,0.6-0.6c0.2-0.2,0.4-0.4,0.7-0.7l1.4,1.5c0.1,0.2,0.3,0.3,0.5,0.3s0.5-0.1,0.7-0.3c0.1-0.1,0.2-0.3,0.2-0.6
	c0-0.2-0.1-0.5-0.2-0.7l-1.8-1.8c0.2-0.2,0.4-0.4,0.6-0.7c0.2-0.3,0.3-0.5,0.5-0.8l2,2c0.1,0.2,0.3,0.3,0.5,0.3s0.5-0.1,0.7-0.3
	c0.2-0.2,0.2-0.4,0.2-0.6s-0.1-0.5-0.2-0.7l-2.5-2.4l2.5-4l8.8-8.1l11.4,11.4l-18,17.8H5.3z M21.6,35.8l16.5-16.3L21.6,35.8z
	 M6.9,35.8h14.7l16.5-16.3l-9.2-9.2l-7.6,6.9l-1.5,2.5l1.6,1.7c0.5,0.6,0.8,1.2,0.8,1.9c0,0.7-0.2,1.3-0.7,1.8l-5.1,5.1
	c-0.5,0.5-1.1,0.8-1.8,0.9c-0.7,0-1.3-0.2-1.7-0.7l-0.7-0.7c-0.8,0.6-1.7,1.1-2.5,1.5c-0.9,0.4-1.8,0.8-2.6,1.2
	C6.9,32.4,6.9,35.8,6.9,35.8z"/>
</svg>
