<?xml version="1.0" encoding="utf-8"?>
<!-- Generator: Adobe Illustrator 26.3.1, SVG Export Plug-In . SVG Version: 6.00 Build 0)  -->
<svg version="1.1" id="Слой_1" xmlns="http://www.w3.org/2000/svg" xmlns:xlink="http://www.w3.org/1999/xlink" x="0px" y="0px"
	 viewBox="0 0 48 48" style="enable-background:new 0 0 48 48;" xml:space="preserve">
<path d="M24,26.8c-0.8,0-1.4-0.3-2-0.8c-0.5-0.5-0.8-1.2-0.8-2s0.3-1.4,0.8-2c0.5-0.5,1.2-0.8,2-0.8s1.4,0.3,2,0.8
	c0.5,0.5,0.8,1.2,0.8,2s-0.3,1.4-0.8,2C25.4,26.5,24.8,26.8,24,26.8z M23.2,16V8h1.5v8H23.2z M23.2,40v-8h1.5v8H23.2z M32,24.8v-1.5
	h8v1.5H32z M8,24.8v-1.5h8v1.5H8z"/>
</svg>
