<?xml version="1.0" encoding="utf-8"?>
<!-- Generator: Adobe Illustrator 26.3.1, SVG Export Plug-In . SVG Version: 6.00 Build 0)  -->
<svg version="1.1" id="Слой_1" xmlns="http://www.w3.org/2000/svg" xmlns:xlink="http://www.w3.org/1999/xlink" x="0px" y="0px"
	 viewBox="0 0 48 48" style="enable-background:new 0 0 48 48;" xml:space="preserve">
<path d="M15.3,16.8c-0.8,0-1.4-0.3-2-0.8c-0.5-0.6-0.8-1.2-0.8-1.9v-3.8c0-0.7,0.3-1.4,0.8-1.9c0.6-0.6,1.2-0.8,1.9-0.8h17.4
	c0.8,0,1.4,0.3,2,0.8c0.5,0.6,0.8,1.2,0.8,1.9v3.8c0,0.7-0.3,1.4-0.8,1.9c-0.6,0.6-1.2,0.8-1.9,0.8H15.3z M15.3,15.3h17.4
	c0.4,0,0.7-0.1,0.9-0.3s0.3-0.5,0.3-0.9v-3.8c0-0.4-0.1-0.7-0.3-0.9s-0.5-0.3-0.9-0.3H15.3c-0.4,0-0.7,0.1-0.9,0.3s-0.3,0.5-0.3,0.9
	v3.8c0,0.4,0.1,0.7,0.3,0.9S14.9,15.3,15.3,15.3z M10.3,40.5c-0.7,0-1.4-0.3-1.9-0.8c-0.6-0.6-0.8-1.2-0.8-1.9V35h32.9v2.7
	c0,0.7-0.3,1.4-0.8,1.9c-0.6,0.5-1.2,0.8-1.9,0.8C37.7,40.5,10.3,40.5,10.3,40.5z M7.5,33.7l5.6-13.4c0.2-0.5,0.6-0.9,1-1.2
	c0.5-0.3,1-0.5,1.5-0.5h16.7c0.5,0,1,0.2,1.5,0.5s0.8,0.7,1,1.2l5.6,13.4C40.5,33.7,7.5,33.7,7.5,33.7z M17.5,30.5h2
	c0.2,0,0.4-0.1,0.5-0.2c0.2-0.2,0.2-0.3,0.2-0.5s-0.1-0.4-0.2-0.5c-0.2-0.2-0.3-0.2-0.5-0.2h-2c-0.2,0-0.4,0.1-0.5,0.2
	c-0.2,0.2-0.2,0.3-0.2,0.5s0.1,0.4,0.2,0.5S17.3,30.5,17.5,30.5z M17.5,26.9h2c0.2,0,0.4-0.1,0.5-0.2c0.2-0.2,0.2-0.3,0.2-0.5
	s-0.1-0.4-0.2-0.5c-0.2-0.2-0.3-0.2-0.5-0.2h-2c-0.2,0-0.4,0.1-0.5,0.2c-0.2,0.2-0.2,0.3-0.2,0.5s0.1,0.4,0.2,0.5
	S17.3,26.9,17.5,26.9z M17.5,23.4h2c0.2,0,0.4-0.1,0.5-0.2c0.2-0.2,0.2-0.3,0.2-0.5s-0.1-0.4-0.2-0.5C19.8,22,19.7,22,19.5,22h-2
	c-0.2,0-0.4,0.1-0.5,0.2c-0.2,0.2-0.2,0.3-0.2,0.5s0.1,0.4,0.2,0.5S17.3,23.4,17.5,23.4z M23,30.5h2c0.2,0,0.4-0.1,0.5-0.2
	c0.2-0.2,0.2-0.3,0.2-0.5s-0.1-0.4-0.2-0.5c-0.2-0.2-0.3-0.2-0.5-0.2h-2c-0.2,0-0.4,0.1-0.5,0.2c-0.2,0.2-0.2,0.3-0.2,0.5
	s0.1,0.4,0.2,0.5S22.8,30.5,23,30.5z M23,26.9h2c0.2,0,0.4-0.1,0.5-0.2c0.2-0.2,0.2-0.3,0.2-0.5s-0.1-0.4-0.2-0.5
	c-0.2-0.2-0.3-0.2-0.5-0.2h-2c-0.2,0-0.4,0.1-0.5,0.2c-0.2,0.2-0.2,0.3-0.2,0.5s0.1,0.4,0.2,0.5S22.8,26.9,23,26.9z M23,23.4h2
	c0.2,0,0.4-0.1,0.5-0.2c0.2-0.2,0.2-0.3,0.2-0.5s-0.1-0.4-0.2-0.5C25.3,22,25.2,22,25,22h-2c-0.2,0-0.4,0.1-0.5,0.2
	c-0.2,0.2-0.2,0.3-0.2,0.5s0.1,0.4,0.2,0.5S22.8,23.4,23,23.4z M28.5,30.5h2c0.2,0,0.4-0.1,0.5-0.2c0.2-0.2,0.2-0.3,0.2-0.5
	s-0.1-0.4-0.2-0.5c-0.2-0.2-0.3-0.2-0.5-0.2h-2c-0.2,0-0.4,0.1-0.5,0.2c-0.2,0.2-0.2,0.3-0.2,0.5s0.1,0.4,0.2,0.5
	C28.2,30.4,28.3,30.5,28.5,30.5z M28.5,26.9h2c0.2,0,0.4-0.1,0.5-0.2c0.2-0.2,0.2-0.3,0.2-0.5s-0.1-0.4-0.2-0.5
	c-0.2-0.2-0.3-0.2-0.5-0.2h-2c-0.2,0-0.4,0.1-0.5,0.2c-0.2,0.2-0.2,0.3-0.2,0.5s0.1,0.4,0.2,0.5C28.2,26.8,28.3,26.9,28.5,26.9z
	 M28.5,23.4h2c0.2,0,0.4-0.1,0.5-0.2c0.2-0.2,0.2-0.3,0.2-0.5s-0.1-0.4-0.2-0.5C30.8,22,30.7,22,30.5,22h-2c-0.2,0-0.4,0.1-0.5,0.2
	c-0.2,0.2-0.2,0.3-0.2,0.5s0.1,0.4,0.2,0.5C28.2,23.3,28.3,23.4,28.5,23.4z"/>
</svg>
