<?xml version="1.0" encoding="utf-8"?>
<!-- Generator: Adobe Illustrator 26.3.1, SVG Export Plug-In . SVG Version: 6.00 Build 0)  -->
<svg version="1.1" id="Слой_1" xmlns="http://www.w3.org/2000/svg" xmlns:xlink="http://www.w3.org/1999/xlink" x="0px" y="0px"
	 viewBox="0 0 48 48" style="enable-background:new 0 0 48 48;" xml:space="preserve">
<path d="M24,41.9c-4-1.2-7.4-3.6-10-7.4c-2.7-3.7-4-7.9-4-12.5V11.4l14-5.2l14,5.2v10.7c0,2.1-0.3,4.3-0.9,6.4
	c-0.6,2.1-1.6,4.2-3,6.3l-6.5-6.3c-0.5,0.4-1.1,0.7-1.7,0.9c-0.6,0.2-1.2,0.3-1.9,0.3c-1.6,0-3-0.6-4.1-1.7s-1.7-2.5-1.7-4.1
	s0.6-3,1.7-4.1s2.5-1.7,4.1-1.7s3,0.6,4.1,1.7s1.7,2.5,1.7,4.1c0,0.6-0.1,1.2-0.3,1.8c-0.2,0.6-0.5,1.1-0.8,1.6l5.1,5
	c0.9-1.5,1.5-3,2-4.8c0.5-1.7,0.7-3.6,0.7-5.5v-9.7L24,7.8l-12.5,4.5V22c0,4.2,1.2,8,3.5,11.4s5.3,5.7,9,6.9c0.9-0.3,1.9-0.7,3-1.3
	s2-1.3,2.8-1.9l0.9,1.2c-1,0.8-2.1,1.5-3.2,2.2C26.4,41.1,25.2,41.6,24,41.9z M24,28.1c1.1,0,2.1-0.4,3-1.2c0.8-0.8,1.2-1.8,1.2-3
	c0-1.1-0.4-2.1-1.3-3c-0.8-0.8-1.8-1.2-3-1.2c-1.1,0-2.1,0.4-3,1.2c-0.8,0.8-1.2,1.8-1.2,3s0.4,2.2,1.3,3
	C21.9,27.7,22.9,28.1,24,28.1z"/>
</svg>
