<?xml version="1.0" encoding="utf-8"?>
<!-- Generator: Adobe Illustrator 26.3.1, SVG Export Plug-In . SVG Version: 6.00 Build 0)  -->
<svg version="1.1" id="Слой_1" xmlns="http://www.w3.org/2000/svg" xmlns:xlink="http://www.w3.org/1999/xlink" x="0px" y="0px"
	 viewBox="0 0 48 48" style="enable-background:new 0 0 48 48;" xml:space="preserve">
<path d="M9.8,40c-0.8,0-1.4-0.3-2-0.8C7.3,38.7,7,38,7,37.2V10.8c0-0.8,0.3-1.4,0.8-2C8.3,8.3,9,8,9.8,8h19.4v1.5H9.8
	C9.5,9.5,9.2,9.6,9,9.9c-0.3,0.3-0.4,0.5-0.4,0.8v26.5c0,0.3,0.1,0.6,0.4,0.8s0.5,0.4,0.8,0.4h26.5c0.3,0,0.6-0.1,0.8-0.4
	c0.3-0.3,0.4-0.5,0.4-0.8V17.8H39v19.4c0,0.8-0.3,1.4-0.8,2c-0.5,0.5-1.2,0.8-2,0.8C36.2,40,9.8,40,9.8,40z M16,33.1v-1.5h14v1.5H16
	z M16,26.9v-1.5h14v1.5H16z M16,20.8v-1.5h14v1.5H16z M35.3,15.9v-4.2h-4.2v-1.5h4.2V6h1.5v4.2H41v1.5h-4.2v4.2H35.3z"/>
</svg>
