<?xml version="1.0" encoding="utf-8"?>
<!-- Generator: Adobe Illustrator 26.3.1, SVG Export Plug-In . SVG Version: 6.00 Build 0)  -->
<svg version="1.1" id="Слой_1" xmlns="http://www.w3.org/2000/svg" xmlns:xlink="http://www.w3.org/1999/xlink" x="0px" y="0px"
	 viewBox="0 0 48 48" style="enable-background:new 0 0 48 48;" xml:space="preserve">
<path d="M17.4,40.5h13.2c0.3,0,0.6-0.1,0.8-0.3c0.2-0.2,0.4-0.4,0.5-0.7l2.5-9.9H13.5l2.5,9.9c0.1,0.3,0.2,0.5,0.5,0.7
	S17.1,40.5,17.4,40.5z M17.4,42c-0.7,0-1.3-0.2-1.8-0.6c-0.5-0.4-0.9-0.9-1.1-1.5l-2.6-10.3H36l-2.6,10.3c-0.2,0.6-0.6,1.1-1.1,1.5
	S31.2,42,30.6,42H17.4z M10.9,28h26.2c0.4,0,0.7-0.1,1-0.4s0.4-0.6,0.4-1v-3.9h-29v3.9c0,0.4,0.1,0.7,0.4,1
	C10.2,27.9,10.5,28,10.9,28z M24,16.2c0-2.5,1.1-4.8,3.2-6.8s4.5-3.1,7.1-3.4c-0.3,2.4-1.4,4.5-3.2,6.4s-3.9,3.1-6.3,3.7v5.1H40v5.4
	c0,0.8-0.3,1.4-0.9,2c-0.6,0.6-1.3,0.9-2.1,0.9H10.9c-0.8,0-1.5-0.3-2.1-0.9S8,27.5,8,26.7v-5.4h15.2v-5.1c-2.4-0.5-4.5-1.7-6.3-3.6
	S14,8.4,13.7,6c2.5,0.3,4.9,1.5,7.1,3.4C22.9,11.4,24,13.7,24,16.2z"/>
</svg>
