<?xml version="1.0" encoding="utf-8"?>
<!-- Generator: Adobe Illustrator 26.3.1, SVG Export Plug-In . SVG Version: 6.00 Build 0)  -->
<svg version="1.1" id="Слой_1" xmlns="http://www.w3.org/2000/svg" xmlns:xlink="http://www.w3.org/1999/xlink" x="0px" y="0px"
	 viewBox="0 0 48 48" style="enable-background:new 0 0 48 48;" xml:space="preserve">
<path d="M24,25.8c-0.2,0-0.4-0.1-0.5-0.2s-0.2-0.3-0.2-0.5v-17c0-0.2,0.1-0.4,0.2-0.6s0.3-0.2,0.5-0.2s0.4,0.1,0.5,0.2
	s0.2,0.3,0.2,0.6V25c0,0.2-0.1,0.4-0.2,0.5C24.4,25.7,24.2,25.8,24,25.8z M24,39.8c-2.2,0-4.3-0.4-6.2-1.3s-3.6-2-5.1-3.4
	S10.1,32,9.3,30S8,25.9,8,23.8c0-2.2,0.5-4.4,1.4-6.4s2.2-3.8,3.9-5.4c0.2-0.1,0.4-0.2,0.6-0.2c0.2,0,0.4,0.1,0.6,0.2
	c0.1,0.1,0.2,0.3,0.2,0.5s-0.1,0.4-0.3,0.5c-1.6,1.4-2.8,3-3.6,4.8c-0.8,1.9-1.2,3.8-1.2,5.8c0,4,1.4,7.5,4.2,10.3S20,38.2,24,38.2
	s7.4-1.4,10.2-4.2s4.2-6.2,4.2-10.2c0-2-0.4-4-1.2-5.8s-2-3.4-3.5-4.8c-0.2-0.1-0.3-0.3-0.3-0.6c0-0.2,0-0.4,0.2-0.6
	c0.2-0.2,0.4-0.2,0.6-0.2s0.4,0.1,0.6,0.2c1.6,1.5,2.9,3.3,3.8,5.3s1.3,4.1,1.3,6.3S39.6,28,38.8,30s-2,3.6-3.4,5.1
	c-1.5,1.4-3.1,2.6-5.1,3.4C28.3,39.3,26.2,39.8,24,39.8z"/>
</svg>
