<?xml version="1.0" encoding="utf-8"?>
<!-- Generator: Adobe Illustrator 26.3.1, SVG Export Plug-In . SVG Version: 6.00 Build 0)  -->
<svg version="1.1" id="Слой_1" xmlns="http://www.w3.org/2000/svg" xmlns:xlink="http://www.w3.org/1999/xlink" x="0px" y="0px"
	 viewBox="0 0 48 48" style="enable-background:new 0 0 48 48;" xml:space="preserve">
<path d="M22.1,38.5h3.7v-4.3l6.6-6.9V19c0-0.3-0.1-0.6-0.4-0.8c-0.3-0.3-0.5-0.4-0.8-0.4H16.8c-0.3,0-0.6,0.1-0.8,0.4
	c-0.3,0.3-0.4,0.5-0.4,0.8v8.2l6.6,6.9C22.1,34.1,22.1,38.5,22.1,38.5z M20.6,40v-5.2l-6.6-7V19c0-0.7,0.3-1.4,0.8-1.9
	s1.2-0.8,1.9-0.8H20L19.2,17V8h1.5v8.2h6.5V8h1.5v9L28,16.2h3.2c0.7,0,1.4,0.3,1.9,0.8s0.8,1.2,0.8,1.9v8.8l-6.6,6.9V40H20.6z"/>
</svg>
