<?xml version="1.0" encoding="utf-8"?>
<!-- Generator: Adobe Illustrator 26.3.1, SVG Export Plug-In . SVG Version: 6.00 Build 0)  -->
<svg version="1.1" id="Слой_1" xmlns="http://www.w3.org/2000/svg" xmlns:xlink="http://www.w3.org/1999/xlink" x="0px" y="0px"
	 viewBox="0 0 48 48" style="enable-background:new 0 0 48 48;" xml:space="preserve">
<path d="M20.6,40v-5.2l-6.6-7V19c0-0.6,0.2-1.1,0.5-1.6s0.8-0.7,1.3-0.8l1.3,1.4h-0.9c-0.2,0-0.4,0.1-0.5,0.3
	c-0.2,0.2-0.2,0.4-0.2,0.7v8.2l6.6,6.9v4.4h3.7v-4.3l2.6-2.7L3.9,6.9L5,5.8l37.1,37.1L41,44L29.5,32.5l-2.1,2.2V40H20.6z M33.3,29.2
	l-0.8-0.8V19c0-0.3-0.1-0.6-0.4-0.8c-0.3-0.3-0.5-0.4-0.8-0.4H22l-2.7-2.7V8h1.5v8.2h6.5V8h1.5v9L28,16.2h3.2c0.7,0,1.4,0.3,1.9,0.8
	c0.6,0.6,0.8,1.2,0.8,1.9v9.3C34,28.4,33.3,29.2,33.3,29.2z"/>
</svg>
