<?xml version="1.0" encoding="utf-8"?>
<!-- Generator: Adobe Illustrator 26.3.1, SVG Export Plug-In . SVG Version: 6.00 Build 0)  -->
<svg version="1.1" id="Слой_1" xmlns="http://www.w3.org/2000/svg" xmlns:xlink="http://www.w3.org/1999/xlink" x="0px" y="0px"
	 viewBox="0 0 48 48" style="enable-background:new 0 0 48 48;" xml:space="preserve">
<path d="M35.1,42.7l3.2-3.2L32.7,34l-3.2,3.2c-0.8,0.8-1.2,1.7-1.2,2.8s0.4,2,1.2,2.8c0.8,0.8,1.7,1.2,2.8,1.2
	C33.4,43.9,34.3,43.5,35.1,42.7z M39.3,38.4l3.2-3.2c0.8-0.8,1.1-1.7,1.1-2.8c0-1.1-0.4-2-1.2-2.8c-0.8-0.7-1.7-1.1-2.8-1.1
	s-2,0.4-2.8,1.1l-3.2,3.2C33.8,32.9,39.3,38.4,39.3,38.4z M36.1,43.8c-1.1,1.1-2.4,1.6-3.9,1.6s-2.8-0.5-3.9-1.6s-1.6-2.4-1.6-3.9
	s0.5-2.8,1.6-3.9l7.4-7.4c1.1-1.1,2.3-1.6,3.9-1.6c1.5,0,2.8,0.5,3.9,1.6c1.1,1.1,1.6,2.4,1.6,3.9s-0.5,2.8-1.6,3.9
	C43.6,36.4,36.1,43.8,36.1,43.8z M9.5,38.5v-29V38.5z M10.8,40c-0.7,0-1.4-0.3-1.9-0.8S8,38,8,37.2V10.8c0-0.8,0.3-1.4,0.8-2
	C9.4,8.3,10,8,10.8,8H21c-0.3-1-0.1-1.9,0.5-2.7C22.1,4.4,23,4,24,4c1.1,0,1.9,0.4,2.5,1.3C27.2,6.1,27.3,7,27,8h10.2
	c0.7,0,1.4,0.3,1.9,0.8c0.6,0.6,0.9,1.2,0.9,2V22c-0.2,0-0.5,0-0.8,0s-0.5,0-0.8,0V10.8c0-0.4-0.1-0.7-0.3-0.9s-0.5-0.3-0.9-0.3
	H10.8c-0.4,0-0.7,0.1-0.9,0.3s-0.3,0.5-0.3,0.9v26.5c0,0.4,0.1,0.7,0.3,0.9s0.5,0.3,0.9,0.3h11.1c0,0.2,0,0.5,0,0.8s0,0.5,0,0.8
	L10.8,40L10.8,40z M24,8.7c0.4,0,0.8-0.2,1.1-0.5c0.3-0.3,0.5-0.7,0.5-1.1c0-0.5-0.2-0.8-0.5-1.1c-0.3-0.3-0.7-0.5-1.1-0.5
	S23.2,5.7,22.9,6c-0.3,0.3-0.5,0.7-0.5,1.1c0,0.5,0.2,0.8,0.5,1.1C23.2,8.6,23.6,8.7,24,8.7z M15,17v-1.5h18V17H15z M15,24.8v-1.5
	h18v1.1c-0.1,0.1-0.2,0.2-0.3,0.3c-0.1,0.1-0.2,0.2-0.3,0.3l0.2-0.2C32.5,24.8,15,24.8,15,24.8z M15,32.5V31h11.3l-0.4,0.4
	c-0.2,0.2-0.4,0.4-0.6,0.6s-0.4,0.4-0.6,0.6C24.8,32.5,15,32.5,15,32.5z"/>
</svg>
