<?xml version="1.0" encoding="utf-8"?>
<!-- Generator: Adobe Illustrator 26.3.1, SVG Export Plug-In . SVG Version: 6.00 Build 0)  -->
<svg version="1.1" id="Слой_1" xmlns="http://www.w3.org/2000/svg" xmlns:xlink="http://www.w3.org/1999/xlink" x="0px" y="0px"
	 viewBox="0 0 48 48" style="enable-background:new 0 0 48 48;" xml:space="preserve">
<path d="M24.2,31.9c-2.2,0-4.1-0.5-5.9-1.6s-3.1-2.5-4-4.3c0.6-1.3,1.5-2.3,2.6-3.2c1.1-0.9,2.3-1.6,3.7-2.1l1.2,1.3
	c-1.2,0.3-2.3,0.8-3.3,1.5s-1.9,1.6-2.6,2.6c1,1.4,2.2,2.4,3.6,3.2c1.4,0.8,3,1.2,4.6,1.2c0.8,0,1.7-0.1,2.5-0.3
	c0.8-0.2,1.6-0.5,2.3-1l1.1,1.1c-0.9,0.6-1.8,1-2.8,1.3C26.3,31.7,25.3,31.9,24.2,31.9z M32.8,27.9l-1.1-1.1
	c0.1-0.1,0.2-0.3,0.3-0.4c0.1-0.1,0.2-0.3,0.3-0.4c-0.6-0.9-1.3-1.7-2.2-2.2c-0.9-0.6-1.8-1-2.8-1.3l-2.1-2.1
	c1.9,0.1,3.6,0.6,5.1,1.6c1.6,1,2.8,2.3,3.6,4c-0.2,0.3-0.4,0.7-0.6,1C33.3,27.3,33.1,27.6,32.8,27.9z M39.4,41.7L37.7,40
	c-0.1,0-0.2,0-0.3,0.1c-0.1,0-0.2,0-0.4,0H10.8c-0.8,0-1.4-0.3-2-0.8C8.3,38.6,8,38,8,37.2V11.1c0-0.1,0-0.2,0-0.3s0-0.2,0.1-0.3
	L6.6,8.9l1.1-1.1l32.8,32.8C40.5,40.5,39.4,41.7,39.4,41.7z M10.8,38.5h25.4L9.5,11.8v25.4c0,0.4,0.1,0.7,0.3,0.9
	C10.1,38.3,10.4,38.5,10.8,38.5z M40,35.1l-1.5-1.5V15.3H20.3L12.9,8h24.3c0.8,0,1.4,0.3,2,0.8c0.5,0.5,0.8,1.2,0.8,2
	C40,10.8,40,35.1,40,35.1z"/>
</svg>
