<?xml version="1.0" encoding="utf-8"?>
<!-- Generator: Adobe Illustrator 26.3.1, SVG Export Plug-In . SVG Version: 6.00 Build 0)  -->
<svg version="1.1" id="Слой_1" xmlns="http://www.w3.org/2000/svg" xmlns:xlink="http://www.w3.org/1999/xlink" x="0px" y="0px"
	 viewBox="0 0 48 48" style="enable-background:new 0 0 48 48;" xml:space="preserve">
<path d="M10.8,40c-0.7,0-1.4-0.3-1.9-0.8C8.3,38.6,8,38,8,37.2V10.8c0-0.8,0.3-1.4,0.8-2C9.4,8.3,10,8,10.8,8h26.5
	c0.7,0,1.4,0.3,1.9,0.8c0.5,0.6,0.8,1.2,0.8,2v26.5c0,0.7-0.3,1.4-0.8,1.9c-0.6,0.5-1.2,0.8-2,0.8H10.8z M10.8,38.5h26.5
	c0.4,0,0.7-0.1,0.9-0.3s0.3-0.5,0.3-0.9V13.5h-29v23.7c0,0.4,0.1,0.7,0.3,0.9C10.1,38.3,10.4,38.5,10.8,38.5z M24,31.9
	c-2.1,0-4.1-0.5-5.8-1.6c-1.7-1.1-3-2.5-3.9-4.2c0.9-1.8,2.2-3.2,3.9-4.3c1.7-1.1,3.6-1.6,5.8-1.6s4.1,0.5,5.8,1.6
	c1.7,1.1,3,2.5,3.9,4.3c-0.9,1.8-2.2,3.2-3.9,4.2C28.1,31.3,26.1,31.9,24,31.9z M24,30.3c1.6,0,3.1-0.4,4.5-1.1
	c1.4-0.8,2.6-1.8,3.5-3.2c-1-1.4-2.1-2.4-3.5-3.2c-1.4-0.8-2.9-1.2-4.5-1.2s-3.1,0.4-4.5,1.2c-1.4,0.8-2.6,1.8-3.5,3.2
	c1,1.4,2.2,2.4,3.6,3.2C20.9,29.9,22.4,30.3,24,30.3z M24,28c0.5,0,1-0.2,1.4-0.6S26,26.5,26,26s-0.2-1-0.6-1.4S24.5,24,24,24
	s-1,0.2-1.4,0.6S22,25.5,22,26s0.2,1,0.6,1.4S23.5,28,24,28z"/>
</svg>
