<?xml version="1.0" encoding="utf-8"?>
<!-- Generator: Adobe Illustrator 26.3.1, SVG Export Plug-In . SVG Version: 6.00 Build 0)  -->
<svg version="1.1" id="Слой_1" xmlns="http://www.w3.org/2000/svg" xmlns:xlink="http://www.w3.org/1999/xlink" x="0px" y="0px"
	 viewBox="0 0 48 48" style="enable-background:new 0 0 48 48;" xml:space="preserve">
<path d="M14.1,40v-8.4H7.2V20.7c0-1,0.4-1.9,1.1-2.6S9.9,17,10.9,17h26.3c0.6,0,1.2,0.1,1.7,0.4s1,0.6,1.3,1.1H10.8
	c-0.6,0-1.1,0.2-1.5,0.6S8.7,20,8.7,20.6V30h5.4v-3H33v1.5H15.6v9.8h17.3V40H14.1z M14.1,17.1V9.2H34V17h-1.5v-6.3H15.6V17h-1.5
	V17.1z M38,40c-0.3,0-0.6-0.1-0.9-0.4c-0.2-0.2-0.4-0.5-0.4-0.9c0-0.3,0.1-0.6,0.4-0.8c0.2-0.2,0.5-0.4,0.9-0.4
	c0.3,0,0.6,0.1,0.8,0.4c0.2,0.2,0.4,0.5,0.4,0.9c0,0.3-0.1,0.6-0.4,0.8C38.6,39.9,38.3,40,38,40z M37.2,32.2v-9.8h1.5v9.8H37.2z
	 M8.7,18.6h31.5H8.7z"/>
</svg>
