<?xml version="1.0" encoding="utf-8"?>
<!-- Generator: Adobe Illustrator 26.3.1, SVG Export Plug-In . SVG Version: 6.00 Build 0)  -->
<svg version="1.1" id="Слой_1" xmlns="http://www.w3.org/2000/svg" xmlns:xlink="http://www.w3.org/1999/xlink" x="0px" y="0px"
	 viewBox="0 0 48 48" style="enable-background:new 0 0 48 48;" xml:space="preserve">
<path d="M40.2,42.4L34,36.2V40H14.1v-8.4H7.2V20.7c0-1,0.4-1.9,1.1-2.6S9.9,17,10.9,17h4L5.6,7.8l1.1-1.1l34.5,34.5
	C41.3,41.3,40.2,42.4,40.2,42.4z M15.6,38.5h16.8v-3.8l-6-6H15.6V38.5z M36.6,31.6l-1.5-1.5h4.2v-9.4c0-0.6-0.2-1.1-0.6-1.5
	s-0.9-0.6-1.5-0.6H23.6L22,17.1h15.1c1,0,1.9,0.4,2.6,1.1c0.7,0.7,1.1,1.6,1.1,2.6v10.9C40.8,31.6,36.6,31.6,36.6,31.6z M8.7,30.1
	h5.4v-3h10.8l-8.5-8.5h-5.5c-0.6,0-1.1,0.2-1.5,0.6s-0.6,0.9-0.6,1.5C8.7,20.7,8.7,30.1,8.7,30.1z M32.4,17.1v-6.3H15.8l-1.5-1.5H34
	v7.8H32.4z M35.7,23.5c0.5,0,0.9-0.2,1.3-0.5c0.4-0.4,0.5-0.8,0.5-1.2c0-0.5-0.2-0.9-0.5-1.2s-0.8-0.5-1.2-0.5
	c-0.5,0-0.9,0.2-1.3,0.5C34.2,21,34,21.4,34,21.8c0,0.5,0.2,0.9,0.5,1.2C34.8,23.3,35.2,23.5,35.7,23.5z M10.8,18.6h5.5H8.7H10.8z
	 M37.2,18.6h2.1H23.6H37.2z"/>
</svg>
