<?xml version="1.0" encoding="utf-8"?>
<!-- Generator: Adobe Illustrator 26.3.1, SVG Export Plug-In . SVG Version: 6.00 Build 0)  -->
<svg version="1.1" id="Слой_1" xmlns="http://www.w3.org/2000/svg" xmlns:xlink="http://www.w3.org/1999/xlink" x="0px" y="0px"
	 viewBox="0 0 48 48" style="enable-background:new 0 0 48 48;" xml:space="preserve">
<path d="M8.7,18.6h30.6H8.7z M14,40v-8.4H7.2V20.7c0-1,0.4-1.9,1.1-2.6S9.9,17,10.9,17h26.3c1,0,1.9,0.4,2.6,1.1
	c0.7,0.7,1.1,1.6,1.1,2.6v2.9c-0.2-0.1-0.5-0.1-0.8-0.2s-0.5-0.1-0.8-0.2v-2.5c0-0.6-0.2-1.1-0.6-1.5c-0.4-0.4-0.9-0.6-1.5-0.6H10.8
	c-0.6,0-1.1,0.2-1.5,0.6s-0.6,0.9-0.6,1.5v9.4h5.4v-3h15.7c-0.2,0.2-0.4,0.5-0.6,0.7s-0.4,0.5-0.5,0.8h-13v9.8H28
	c0.1,0.3,0.2,0.6,0.4,0.8c0.2,0.3,0.3,0.5,0.5,0.7C28.9,40,14,40,14,40z M35.9,38.6l-4-3.9l1.1-1.1l2.9,2.8l7-7l1.1,1.1L35.9,38.6z
	 M32.4,17.1v-6.3H15.6v6.3h-1.5V9.2H34V17h-1.6V17.1z"/>
</svg>
