<?xml version="1.0" encoding="utf-8"?>
<!-- Generator: Adobe Illustrator 26.3.1, SVG Export Plug-In . SVG Version: 6.00 Build 0)  -->
<svg version="1.1" id="Слой_1" xmlns="http://www.w3.org/2000/svg" xmlns:xlink="http://www.w3.org/1999/xlink" x="0px" y="0px"
	 viewBox="0 0 48 48" style="enable-background:new 0 0 48 48;" xml:space="preserve">
<path d="M17.8,40c-2.7,0-5.1-0.9-6.9-2.8S8,33,8,30.2V17.8c0-2.7,0.9-5.1,2.8-6.9c1.9-2,4.2-2.9,7-2.9h12.4c2.7,0,5.1,0.9,6.9,2.8
	c1.9,1.9,2.8,4.2,2.8,6.9v12.4c0,2.7-0.9,5.1-2.8,6.9c-1.8,2.1-4.1,3-6.9,3H17.8z M22,30.5l10.6-10.6l-1.1-1.1L22,28.3l-4.6-4.6
	l-1.1,1.1L22,30.5z M17.8,38.5h12.4c2.3,0,4.2-0.8,5.8-2.4c1.6-1.6,2.4-3.6,2.4-5.8V17.8c0-2.3-0.8-4.2-2.4-5.8
	c-1.6-1.6-3.6-2.4-5.8-2.4H17.8c-2.3,0-4.2,0.8-5.8,2.4s-2.4,3.6-2.4,5.8v12.4c0,2.3,0.8,4.2,2.4,5.8S15.5,38.5,17.8,38.5z"/>
</svg>
