<?xml version="1.0" encoding="utf-8"?>
<!-- Generator: Adobe Illustrator 26.3.1, SVG Export Plug-In . SVG Version: 6.00 Build 0)  -->
<svg version="1.1" id="Слой_1" xmlns="http://www.w3.org/2000/svg" xmlns:xlink="http://www.w3.org/1999/xlink" x="0px" y="0px"
	 viewBox="0 0 48 48" style="enable-background:new 0 0 48 48;" xml:space="preserve">
<path d="M42.6,44.8L35.8,38h-27c-0.8,0-1.4-0.3-2-0.8C6.3,36.7,6,36,6,35.2V12.8c0-0.6,0.2-1.1,0.5-1.6s0.8-0.8,1.5-1L3.8,6l1.1-1.1
	l38.8,38.8L42.6,44.8z M7.5,35.4l12.8-12.9l-5.9-5.9l-6.9,6.9C7.5,23.6,7.5,35.4,7.5,35.4z M7.5,21.4l5.9-5.8L9,11.3H8.8
	c-0.4,0-0.7,0.1-0.9,0.3c-0.2,0.2-0.4,0.5-0.4,0.9C7.5,12.5,7.5,21.4,7.5,21.4z M8.6,36.5h25.6L21.4,23.6L8.6,36.5z M41.5,36.6
	l-1.1-1.2V12.8c0-0.3-0.1-0.6-0.4-0.9c-0.2-0.2-0.5-0.4-0.9-0.4h-5.7L25,20.1L24,19l7.4-7.5H19.5L18,13.1L15,10h24.2
	c0.8,0,1.4,0.3,2,0.8c0.5,0.5,0.8,1.2,0.8,2v22.5c0,0.3,0,0.5-0.1,0.8C41.8,36.2,41.7,36.5,41.5,36.6z"/>
</svg>
