<?xml version="1.0" encoding="utf-8"?>
<!-- Generator: Adobe Illustrator 26.3.1, SVG Export Plug-In . SVG Version: 6.00 Build 0)  -->
<svg version="1.1" id="Слой_1" xmlns="http://www.w3.org/2000/svg" xmlns:xlink="http://www.w3.org/1999/xlink" x="0px" y="0px"
	 viewBox="0 0 48 48" style="enable-background:new 0 0 48 48;" xml:space="preserve">
<path d="M19.7,15c0.2-0.1,0.4-0.1,0.7-0.1c0.2,0,0.4-0.1,0.7-0.1c0.8,0,1.5,0.3,2.1,0.9c0.6,0.6,0.9,1.3,0.9,2.1v1.5
	C24,19.3,19.7,15,19.7,15z M41.2,31.2l-6.1-6.1v5.3l-1.5-1.5V12.8c0-0.4-0.1-0.7-0.3-0.9s-0.5-0.3-0.9-0.3H16.2L14.7,10h17.6
	c0.8,0,1.4,0.3,2,0.8c0.5,0.5,0.8,1.2,0.8,2v10.1l6.1-6.1C41.2,16.8,41.2,31.2,41.2,31.2z M32.3,38H9.8c-0.8,0-1.4-0.3-2-0.8
	C7.3,36.7,7,36,7,35.2V12.8c0-0.7,0.2-1.2,0.6-1.7s1-0.8,1.6-0.9h0.4l1.5,1.5H9.8c-0.4,0-0.7,0.1-0.9,0.3s-0.3,0.5-0.3,0.9v22.5
	c0,0.4,0.1,0.7,0.3,0.9s0.5,0.3,0.9,0.3h10.4v-4c-2.1-0.2-3.8-1.1-5.3-2.5c-1.4-1.5-2.2-3.2-2.4-5.3h1.8c0.1,1.7,0.8,3.2,2.1,4.3
	c1.3,1.2,2.8,1.7,4.6,1.7c1.1,0,2.1-0.2,3-0.7c1-0.5,1.7-1.1,2.4-2l1.2,1.2C26.9,30.2,26,31,25,31.6s-2.1,0.9-3.3,1v4h10.4
	c0.4,0,0.7-0.1,0.9-0.3s0.3-0.5,0.3-0.9V34l1.5,1.5V36c-0.1,0.6-0.4,1.1-0.9,1.6C33.6,37.8,33,38,32.3,38z M40.5,40.8l-1.1,1.1
	l-16-16c-0.3,0.3-0.6,0.6-1.1,0.7c-0.4,0.2-0.8,0.2-1.3,0.2c-0.8,0-1.5-0.3-2.1-0.9S18,24.6,18,23.8v-3.3L5,7.5l1.1-1.1L40.5,40.8z
	 M20.3,36.5h1.6H20.3z"/>
</svg>
