<?xml version="1.0" encoding="utf-8"?>
<!-- Generator: Adobe Illustrator 26.3.1, SVG Export Plug-In . SVG Version: 6.00 Build 0)  -->
<svg version="1.1" id="Слой_1" xmlns="http://www.w3.org/2000/svg" xmlns:xlink="http://www.w3.org/1999/xlink" x="0px" y="0px"
	 viewBox="0 0 48 48" style="enable-background:new 0 0 48 48;" xml:space="preserve">
<path d="M23.2,32.4h1.5V20.7h-1.5V32.4z M24,17.8c0.3,0,0.6-0.1,0.8-0.3c0.2-0.2,0.3-0.5,0.3-0.8s-0.1-0.6-0.3-0.8
	c-0.2-0.2-0.5-0.3-0.8-0.3s-0.6,0.1-0.8,0.3c-0.2,0.2-0.3,0.5-0.3,0.8s0.1,0.6,0.3,0.8C23.4,17.7,23.7,17.8,24,17.8z M24,41.9
	c-4-1.2-7.4-3.7-10-7.4c-2.7-3.7-4-7.9-4-12.5V11.4l14-5.2l14,5.2V22c0,4.6-1.3,8.8-4,12.5C31.4,38.2,28,40.7,24,41.9z M24,40.3
	c3.6-1.2,6.6-3.4,9-6.8s3.5-7.2,3.5-11.4v-9.6L24,7.8l-12.5,4.7V22c0,4.2,1.2,8,3.5,11.4S20.4,39.1,24,40.3z"/>
</svg>
