<?xml version="1.0" encoding="utf-8"?>
<!-- Generator: Adobe Illustrator 26.3.1, SVG Export Plug-In . SVG Version: 6.00 Build 0)  -->
<svg version="1.1" id="Слой_1" xmlns="http://www.w3.org/2000/svg" xmlns:xlink="http://www.w3.org/1999/xlink" x="0px" y="0px"
	 viewBox="0 0 48 48" style="enable-background:new 0 0 48 48;" xml:space="preserve">
<path d="M7.1,30.4v-2.9c0-0.9,0.2-1.7,0.7-2.4c0.5-0.7,1.2-1.2,2-1.6c1.7-0.8,3.4-1.4,5.1-1.9s3.7-0.8,6.1-0.8c1.5,0,3,0.1,4.3,0.4
	c1.3,0.2,2.5,0.6,3.6,1c-0.2,0.2-0.3,0.4-0.5,0.6s-0.3,0.4-0.4,0.6c-1-0.3-2.1-0.6-3.3-0.8c-1.2-0.2-2.4-0.3-3.7-0.3
	c-2.2,0-4.1,0.2-5.8,0.7c-1.7,0.4-3.3,1-4.8,1.8c-0.7,0.4-1.2,0.8-1.5,1.2c-0.3,0.4-0.4,0.9-0.4,1.5v1.4H26c0,0.2,0,0.5,0,0.7
	c0,0.3,0,0.5,0,0.8C26,30.4,7.1,30.4,7.1,30.4z M21.1,15.9c-1.6,0-3-0.6-4.1-1.7s-1.7-2.5-1.7-4.1s0.6-3,1.7-4.1s2.5-1.7,4.1-1.7
	s3,0.6,4.1,1.7s1.7,2.5,1.7,4.1s-0.6,3-1.7,4.1C24.1,15.4,22.8,15.9,21.1,15.9z M21.1,14.4c1.2,0,2.2-0.4,3-1.2s1.2-1.8,1.2-3
	s-0.4-2.2-1.2-3c-0.8-0.8-1.8-1.2-3-1.2s-2.2,0.4-3,1.2s-1.2,1.8-1.2,3s0.4,2.2,1.2,3C19,14,20,14.4,21.1,14.4z M34.7,10.1
	c0,1.6-0.6,3-1.7,4.1c-1.1,1.1-2.5,1.7-4.1,1.7c-0.1,0-0.2,0-0.2,0c-0.1,0-0.1,0-0.2-0.1c0.7-0.8,1.2-1.7,1.5-2.7s0.4-2,0.4-3.1
	s-0.2-2.1-0.5-3c-0.3-1-0.8-1.8-1.4-2.7c0.1,0,0.2,0,0.2,0c0.1,0,0.2,0,0.2,0c1.6,0,3,0.6,4.1,1.7C34.2,7.2,34.7,8.5,34.7,10.1z
	 M37.4,36.7c-2.2,0-4-0.8-5.6-2.3c-1.5-1.5-2.3-3.4-2.3-5.6s0.8-4.1,2.3-5.6c1.5-1.5,3.4-2.3,5.6-2.3s4.1,0.8,5.6,2.3
	s2.3,3.4,2.3,5.6s-0.8,4-2.3,5.6C41.5,35.9,39.6,36.7,37.4,36.7z M36,33.5l5.4-5.4l-0.9-0.9L36,31.6l-2.3-2.3l-0.9,0.9
	C32.8,30.3,36,33.5,36,33.5z"/>
</svg>
