<?xml version="1.0" encoding="utf-8"?>
<!-- Generator: Adobe Illustrator 26.3.1, SVG Export Plug-In . SVG Version: 6.00 Build 0)  -->
<svg version="1.1" id="Слой_1" xmlns="http://www.w3.org/2000/svg" xmlns:xlink="http://www.w3.org/1999/xlink" x="0px" y="0px"
	 viewBox="0 0 48 48" style="enable-background:new 0 0 48 48;" xml:space="preserve">
<path d="M24,42c-2.5,0-4.8-0.5-7-1.4s-4.1-2.2-5.7-3.9s-3-3.5-3.9-5.7S6,26.5,6,24s0.5-4.9,1.4-7c0.9-2.2,2.2-4.1,3.8-5.7
	s3.5-2.9,5.7-3.8C19.2,6.5,21.5,6,24,6c0.2,0,0.4,0.1,0.5,0.2s0.2,0.3,0.2,0.6c0,0.2-0.1,0.4-0.2,0.5S24.2,7.5,24,7.5
	c-4.5,0-8.4,1.6-11.6,4.8C9.1,15.6,7.5,19.5,7.5,24s1.6,8.4,4.8,11.6c3.2,3.2,7.1,4.8,11.6,4.8s8.4-1.6,11.6-4.8
	c3.2-3.2,4.8-7.1,4.8-11.6c0-0.2,0.1-0.4,0.2-0.5c0.1-0.1,0.3-0.2,0.5-0.2s0.4,0.1,0.5,0.2s0.2,0.3,0.2,0.5c0,2.5-0.5,4.8-1.4,7
	s-2.2,4.1-3.8,5.7s-3.5,2.9-5.7,3.8C28.8,41.5,26.5,42,24,42z"/>
</svg>
