<?xml version="1.0" encoding="utf-8"?>
<!-- Generator: Adobe Illustrator 26.3.1, SVG Export Plug-In . SVG Version: 6.00 Build 0)  -->
<svg version="1.1" id="Слой_1" xmlns="http://www.w3.org/2000/svg" xmlns:xlink="http://www.w3.org/1999/xlink" x="0px" y="0px"
	 viewBox="0 0 48 48" style="enable-background:new 0 0 48 48;" xml:space="preserve">
<path d="M30,36l-1.1-1.1l8.1-8H15.6c-2.1,0-3.9-0.7-5.4-2.2C8.7,23.3,8,21.5,8,19.5c0-2.1,0.7-3.8,2.2-5.3s3.3-2.2,5.4-2.2h0.6v1.5
	h-0.6c-1.7,0-3.1,0.6-4.3,1.7s-1.8,2.6-1.8,4.2c0,1.7,0.6,3.1,1.8,4.2s2.6,1.7,4.3,1.7H37l-8.1-8l1.1-1l10,9.8L30,36z"/>
</svg>
