<?xml version="1.0" encoding="utf-8"?>
<!-- Generator: Adobe Illustrator 26.3.1, SVG Export Plug-In . SVG Version: 6.00 Build 0)  -->
<svg version="1.1" id="Слой_1" xmlns="http://www.w3.org/2000/svg" xmlns:xlink="http://www.w3.org/1999/xlink" x="0px" y="0px"
	 viewBox="0 0 48 48" style="enable-background:new 0 0 48 48;" xml:space="preserve">
<path d="M16,42c-1.6,0-3.1-0.6-4.2-1.8S10,37.7,10,36V18.5c0-1.6,0.5-3,1.6-4.1s2.4-1.7,3.9-1.9V8.8c0-0.7,0.3-1.4,0.8-1.9
	c0.6-0.6,1.3-0.9,2-0.9h11.4c0.7,0,1.4,0.3,1.9,0.8c0.6,0.6,0.8,1.2,0.8,1.9v3.8c1.6,0.1,2.9,0.7,3.9,1.9c1.1,1.1,1.6,2.5,1.6,4.1
	V36c0,1.7-0.6,3.1-1.8,4.2c-1,1.2-2.4,1.8-4.1,1.8H16z M11.5,26.7h24.9v-8.2c0-1.3-0.4-2.3-1.3-3.2C34.3,14.4,33.3,14,32,14H16
	c-1.3,0-2.3,0.4-3.2,1.3s-1.3,1.9-1.3,3.2V26.7z M16,40.5h16c1.3,0,2.3-0.4,3.2-1.3c0.9-0.9,1.3-1.9,1.3-3.2v-7.8h-25V36
	c0,1.2,0.4,2.3,1.3,3.2C13.7,40,14.7,40.5,16,40.5z M25.5,12.5h5.4V8.8c0-0.4-0.1-0.7-0.3-0.9c-0.2-0.2-0.5-0.3-0.9-0.3H18.3
	c-0.4,0-0.7,0.1-0.9,0.3c-0.2,0.2-0.3,0.5-0.3,0.9v3.7h5.4c0-0.4,0.2-0.8,0.5-1.1s0.7-0.5,1.1-0.5s0.8,0.2,1.1,0.5
	C25.4,11.7,25.5,12,25.5,12.5z"/>
</svg>
