<?xml version="1.0" encoding="utf-8"?>
<!-- Generator: Adobe Illustrator 26.3.1, SVG Export Plug-In . SVG Version: 6.00 Build 0)  -->
<svg version="1.1" id="Слой_1" xmlns="http://www.w3.org/2000/svg" xmlns:xlink="http://www.w3.org/1999/xlink" x="0px" y="0px"
	 viewBox="0 0 48 48" style="enable-background:new 0 0 48 48;" xml:space="preserve">
<path d="M14,32.5h20c2.4,0,4.4-0.8,6-2.5c1.6-1.6,2.5-3.6,2.5-6s-0.8-4.3-2.5-6c-1.6-1.6-3.6-2.5-6-2.5H14c-2.4,0-4.4,0.8-6,2.5
	c-1.6,1.6-2.5,3.6-2.5,6s0.8,4.3,2.5,6C9.6,31.6,11.6,32.5,14,32.5z M18.8,14h10.5v-1.4c0-0.4-0.1-0.7-0.3-0.9
	c-0.2-0.2-0.5-0.3-0.9-0.3h-8c-0.4,0-0.7,0.1-0.9,0.3c-0.2,0.2-0.3,0.5-0.3,0.9V14H18.8z M14,38v-4c-2.8,0-5.1-1-7.1-2.9
	S4,26.8,4,24s1-5.1,2.9-7.1C8.9,15,11.2,14,14,14h3v-1.6c0-0.8,0.3-1.4,0.8-2c0.5-0.5,1.2-0.8,2-0.8h8.5c0.8,0,1.4,0.3,2,0.8
	c0.5,0.5,0.8,1.2,0.8,2V14h3c2.8,0,5.1,1,7.1,2.9c1.8,2,2.8,4.3,2.8,7.1s-1,5.1-2.9,7.1C39.1,33,36.8,34,34,34v4h-1.5v-4h-17v4H14z"
	/>
</svg>
