<?xml version="1.0" encoding="utf-8"?>
<!-- Generator: Adobe Illustrator 26.3.1, SVG Export Plug-In . SVG Version: 6.00 Build 0)  -->
<svg version="1.1" id="Слой_1" xmlns="http://www.w3.org/2000/svg" xmlns:xlink="http://www.w3.org/1999/xlink" x="0px" y="0px"
	 viewBox="0 0 48 48" style="enable-background:new 0 0 48 48;" xml:space="preserve">
<path d="M14,42v-7.5c-1.9-1.7-3.4-3.7-4.4-5.8C8.5,26.5,8,24.2,8,22c0-4.4,1.6-8.2,4.7-11.3S19.6,6,24,6c3.6,0,6.9,1.1,9.8,3.3
	s4.8,5,5.7,8.5l2.1,8.5c0.1,0.4,0,0.8-0.2,1.2c-0.3,0.3-0.6,0.5-1.1,0.5H36v7.2c0,0.7-0.3,1.4-0.8,1.9c-0.6,0.6-1.2,0.9-2,0.9H28v4
	h-1.5v-5.5h6.8c0.4,0,0.7-0.1,0.9-0.3s0.3-0.5,0.3-0.9v-8.8H40l-2-8.4c-0.8-3.2-2.5-5.7-5.1-7.7c-2.6-1.9-5.6-2.9-8.9-2.9
	c-4,0-7.4,1.4-10.2,4.2s-4.2,6.2-4.2,10.2c0,2.1,0.4,4.1,1.3,5.9c0.9,1.8,2,3.5,3.6,4.9l1.1,1.1V42H14z M23.1,28.8h1.8l0.1-1.7
	c0.6-0.1,1.1-0.3,1.7-0.6c0.5-0.3,1-0.7,1.3-1.1l1.5,0.7l0.9-1.4l-1.2-1c0.2-0.6,0.4-1.3,0.4-1.9c0-0.7-0.1-1.3-0.4-1.9l1.2-1
	l-0.9-1.4L28,18.2c-0.4-0.4-0.8-0.8-1.4-1.1c-0.5-0.3-1.1-0.5-1.6-0.6l-0.1-1.7h-1.8L23,16.5c-0.6,0.1-1.2,0.3-1.7,0.6
	c-0.5,0.3-1,0.6-1.4,1.1l-1.5-0.7l-0.8,1.4l1.2,1c-0.3,0.6-0.4,1.3-0.4,1.9c0,0.7,0.1,1.3,0.4,1.9l-1.2,1l0.8,1.4l1.5-0.7
	c0.4,0.5,0.8,0.8,1.3,1.1c0.5,0.3,1.1,0.5,1.7,0.6C23,27.1,23.1,28.8,23.1,28.8z M24,25.8c-1.1,0-2.1-0.4-2.8-1.2
	c-0.8-0.8-1.1-1.7-1.1-2.8c0-1.1,0.4-2.1,1.1-2.8c0.8-0.8,1.7-1.1,2.8-1.1c1.1,0,2.1,0.4,2.8,1.1c0.8,0.8,1.2,1.7,1.2,2.8
	c0,1.1-0.4,2.1-1.2,2.8C26,25.4,25.1,25.8,24,25.8z"/>
</svg>
