<?xml version="1.0" encoding="utf-8"?>
<!-- Generator: Adobe Illustrator 26.3.1, SVG Export Plug-In . SVG Version: 6.00 Build 0)  -->
<svg version="1.1" id="Слой_1" xmlns="http://www.w3.org/2000/svg" xmlns:xlink="http://www.w3.org/1999/xlink" x="0px" y="0px"
	 viewBox="0 0 48 48" style="enable-background:new 0 0 48 48;" xml:space="preserve">
<path d="M10.8,41c-1.3,0-2.5-0.5-3.4-1.4S6,37.6,6,36.2v-8.6l4.9-12.9c0.4-1.1,1.1-2,2-2.7s2-1.1,3.1-1.1c1.3,0,2.4,0.4,3.3,1.2
	s1.4,1.8,1.4,3.1v2.9h-1.5v-2.9c0-0.8-0.3-1.5-1-2c-0.6-0.5-1.4-0.8-2.2-0.8c-0.9,0-1.6,0.3-2.3,0.8c-0.6,0.5-1.1,1.2-1.4,2
	L7.5,27.9v8.4c0,0.9,0.3,1.7,0.9,2.3c0.6,0.6,1.4,0.9,2.3,0.9h6.5c0.9,0,1.7-0.3,2.3-0.9c0.6-0.6,0.9-1.4,0.9-2.3v-3.8H22v3.8
	c0,1.3-0.5,2.5-1.4,3.4S18.5,41,17.2,41H10.8z M37.2,41h-6.5c-1.3,0-2.5-0.5-3.4-1.4s-1.4-2.1-1.4-3.4v-3.8h1.5v3.8
	c0,0.9,0.3,1.7,0.9,2.3s1.4,0.9,2.3,0.9h6.5c0.9,0,1.7-0.3,2.3-0.9c0.6-0.6,0.9-1.4,0.9-2.3v-8.4l-4.9-12.5c-0.3-0.8-0.8-1.5-1.4-2
	c-0.6-0.5-1.4-0.8-2.2-0.8s-1.6,0.3-2.2,0.8s-1,1.2-1,2v2.9h-1.5v-2.9c0-1.2,0.5-2.3,1.4-3.1s2-1.2,3.3-1.2c1.2,0,2.2,0.4,3.1,1.1
	c0.9,0.7,1.6,1.6,2,2.7l5,12.9v8.6c0,1.3-0.5,2.5-1.4,3.4C39.7,40.5,38.6,41,37.2,41z M24,21.1l-5.2,5.2l-1.1-1.1l5.5-5.5V5h1.5
	v14.7l5.5,5.5l-1.1,1.1L24,21.1z"/>
</svg>
