<?xml version="1.0" encoding="utf-8"?>
<!-- Generator: Adobe Illustrator 26.3.1, SVG Export Plug-In . SVG Version: 6.00 Build 0)  -->
<svg version="1.1" id="Слой_1" xmlns="http://www.w3.org/2000/svg" xmlns:xlink="http://www.w3.org/1999/xlink" x="0px" y="0px"
	 viewBox="0 0 48 48" style="enable-background:new 0 0 48 48;" xml:space="preserve">
<path d="M6.7,20.9c-0.2-0.7-0.4-1.3-0.6-2c-0.1-0.7-0.2-1.3-0.2-2c0-2.5,0.8-4.6,2.5-6.3C10.2,8.9,12.3,8,14.8,8
	c1.8,0,3.5,0.5,5.1,1.5s3,2.4,4.1,4.3c1.2-1.9,2.6-3.3,4.1-4.3c1.6-1,3.3-1.5,5.1-1.5c2.4,0,4.5,0.8,6.2,2.5s2.6,3.7,2.6,6.2
	c0,0.1,0,0.1,0,0.2s0,0.1,0,0.2c-0.3-0.2-0.5-0.3-0.8-0.5c-0.2-0.1-0.5-0.3-0.7-0.5c-0.2-1.9-1-3.5-2.3-4.8s-3-1.9-4.9-1.9
	c-1.7,0-3.2,0.5-4.6,1.5s-2.6,2.5-3.7,4.5h-1.7c-1.1-2-2.3-3.5-3.7-4.5s-3-1.5-4.6-1.5c-2,0-3.7,0.7-5.1,2.1s-2.1,3.2-2.1,5.3
	c0,0.7,0.1,1.4,0.2,2c0.1,0.7,0.4,1.3,0.7,2C8.5,20.9,6.7,20.9,6.7,20.9z M24,39.8l-1.7-1.5c-1.6-1.5-3-2.8-4.3-4s-2.4-2.3-3.3-3.2
	h2.2c1,0.9,2,1.9,3.2,3s2.5,2.3,3.9,3.7c0.9-0.7,1.6-1.5,2.4-2.2c0.7-0.7,1.4-1.4,2.1-2c0.2,0.2,0.4,0.4,0.6,0.5s0.4,0.3,0.6,0.5
	c-0.6,0.6-1.2,1.2-1.9,1.8c-0.7,0.6-1.3,1.2-2,1.9L24,39.8z M36,32.8c-0.3,0-0.6-0.1-0.9-0.4c-0.2-0.2-0.4-0.5-0.4-0.9
	c0-0.3,0.1-0.6,0.4-0.9c0.2-0.2,0.5-0.4,0.9-0.4c0.3,0,0.6,0.1,0.9,0.4c0.2,0.2,0.4,0.5,0.4,0.9c0,0.3-0.1,0.6-0.4,0.9
	C36.6,32.7,36.3,32.8,36,32.8z M35.2,27.1v-7.8h1.5v7.8C36.7,27.1,35.2,27.1,35.2,27.1z M4,26.8v-1.5h8.4l3.3-4.9
	c0.1-0.2,0.3-0.4,0.5-0.5s0.4-0.2,0.6-0.2s0.4,0.1,0.6,0.2s0.4,0.3,0.5,0.5l3.2,4.9h4.1c0,0.1,0,0.2,0,0.4s0,0.3,0,0.4s0,0.3,0,0.4
	s0,0.2,0,0.4h-4.1c-0.2,0-0.5-0.1-0.6-0.2c-0.2-0.1-0.4-0.3-0.5-0.5l-3.2-4.8l-3.2,4.8c-0.2,0.2-0.3,0.4-0.5,0.5s-0.4,0.2-0.7,0.2
	C12.4,26.8,4,26.8,4,26.8z"/>
</svg>
