<?xml version="1.0" encoding="utf-8"?>
<!-- Generator: Adobe Illustrator 26.3.1, SVG Export Plug-In . SVG Version: 6.00 Build 0)  -->
<svg version="1.1" id="Слой_1" xmlns="http://www.w3.org/2000/svg" xmlns:xlink="http://www.w3.org/1999/xlink" x="0px" y="0px"
	 viewBox="0 0 48 48" style="enable-background:new 0 0 48 48;" xml:space="preserve">
<path d="M10.6,42c-0.7,0-1.3-0.3-1.8-0.8S8,40,8,39.3V15.9c0-0.7,0.3-1.3,0.8-1.9c0.5-0.5,1.1-0.8,1.8-0.8h3.3V5.5h20.3v7.7h3.2
	c0.7,0,1.3,0.3,1.8,0.8s0.8,1.2,0.8,1.9v23.5c0,0.7-0.3,1.3-0.8,1.9c-0.5,0.5-1.1,0.8-1.8,0.8H10.6V42z M15.4,13.2h17.2V7.1H15.4
	V13.2z M10.6,40.5h26.8c0.3,0,0.5-0.1,0.8-0.3c0.2-0.2,0.3-0.5,0.3-0.8V15.9c0-0.3-0.1-0.5-0.3-0.8c-0.2-0.2-0.5-0.3-0.8-0.3H10.6
	c-0.3,0-0.5,0.1-0.8,0.3c-0.2,0.2-0.3,0.5-0.3,0.8v23.5c0,0.3,0.1,0.5,0.3,0.8C10.1,40.3,10.3,40.5,10.6,40.5z M24,36.3
	c2.4,0,4.5-0.9,6.2-2.6c1.7-1.7,2.6-3.8,2.6-6.1c0-2.4-0.9-4.5-2.6-6.2c-1.7-1.7-3.8-2.6-6.2-2.6s-4.4,0.9-6.1,2.6s-2.5,3.8-2.5,6.2
	s0.8,4.4,2.5,6.1C19.5,35.5,21.6,36.3,24,36.3z M24,34.9c-2,0-3.7-0.7-5.1-2.1c-1.4-1.4-2.1-3.1-2.1-5.1s0.7-3.7,2.1-5.1
	s3.1-2.1,5.1-2.1s3.7,0.7,5.2,2.1c1.4,1.4,2.1,3.1,2.1,5.1s-0.7,3.7-2.1,5.1C27.7,34.2,26,34.9,24,34.9z M26.1,30.9l1.1-1.1
	l-2.5-2.5v-4.2h-1.5V28C23.3,27.9,26.1,30.9,26.1,30.9z"/>
</svg>
