<?xml version="1.0" encoding="utf-8"?>
<!-- Generator: Adobe Illustrator 26.3.1, SVG Export Plug-In . SVG Version: 6.00 Build 0)  -->
<svg version="1.1" id="Слой_1" xmlns="http://www.w3.org/2000/svg" xmlns:xlink="http://www.w3.org/1999/xlink" x="0px" y="0px"
	 viewBox="0 0 48 48" style="enable-background:new 0 0 48 48;" xml:space="preserve">
<path d="M4.6,34.5l-1.3-1L11.8,20l6,7l7.9-12.8l4.1,6.2c-0.3,0.1-0.5,0.1-0.8,0.2s-0.5,0.1-0.8,0.2L25.7,17L18,29.5l-6.1-7L4.6,34.5
	z M43.5,44.6l-7-7c-0.6,0.5-1.3,0.8-2,1.1C33.7,38.9,33,39,32.2,39c-1.9,0-3.5-0.7-4.8-2s-2-2.9-2-4.8c0-1.9,0.7-3.5,2-4.8
	s2.9-2,4.8-2c1.9,0,3.5,0.7,4.8,2s2,2.9,2,4.8c0,0.8-0.1,1.5-0.4,2.3c-0.3,0.7-0.6,1.4-1.1,2l7.1,7L43.5,44.6z M32.2,37.5
	c1.5,0,2.7-0.5,3.7-1.5s1.5-2.2,1.5-3.7s-0.5-2.7-1.5-3.7s-2.2-1.5-3.7-1.5s-2.7,0.5-3.7,1.5S27,30.8,27,32.3s0.5,2.7,1.5,3.7
	S30.8,37.5,32.2,37.5z M35.6,20.6c-0.3-0.1-0.5-0.2-0.8-0.2s-0.5-0.1-0.8-0.1l9.4-14.9l1.3,1L35.6,20.6z"/>
</svg>
