<?xml version="1.0" encoding="utf-8"?>
<!-- Generator: Adobe Illustrator 26.3.1, SVG Export Plug-In . SVG Version: 6.00 Build 0)  -->
<svg version="1.1" id="Слой_1" xmlns="http://www.w3.org/2000/svg" xmlns:xlink="http://www.w3.org/1999/xlink" x="0px" y="0px"
	 viewBox="0 0 48 48" style="enable-background:new 0 0 48 48;" xml:space="preserve">
<path d="M22.8,30.8c0-1.7,0.3-3.1,0.9-4.3c0.6-1.2,1.7-2.5,3.4-4c1.2-1.1,2.2-2.2,2.8-3.3c0.6-1.1,0.9-2.3,0.9-3.6
	c0-1.9-0.6-3.4-1.9-4.6s-3-1.8-5.2-1.8c-1.8,0-3.2,0.4-4.2,1.2s-1.9,1.8-2.5,3l-1.7-0.8c0.9-1.6,2-2.9,3.3-3.8
	c1.4-0.9,3.1-1.4,5.1-1.4c2.9,0,5.1,0.8,6.7,2.5c1.6,1.6,2.4,3.6,2.4,5.8c0,1.4-0.3,2.8-0.9,4s-1.5,2.4-2.7,3.5
	c-1.8,1.6-3,2.9-3.5,4c-0.5,1-0.7,2.3-0.7,3.7C24.9,30.8,22.8,30.8,22.8,30.8z M23.8,42c-0.5,0-0.9-0.2-1.2-0.5
	c-0.4-0.3-0.5-0.8-0.5-1.2c0-0.5,0.2-0.9,0.5-1.2s0.8-0.5,1.2-0.5c0.5,0,0.9,0.2,1.2,0.5s0.5,0.8,0.5,1.2c0,0.5-0.2,0.9-0.5,1.2
	S24.2,42,23.8,42z"/>
</svg>
