<?xml version="1.0" encoding="utf-8"?>
<!-- Generator: Adobe Illustrator 26.3.1, SVG Export Plug-In . SVG Version: 6.00 Build 0)  -->
<svg version="1.1" id="Слой_1" xmlns="http://www.w3.org/2000/svg" xmlns:xlink="http://www.w3.org/1999/xlink" x="0px" y="0px"
	 viewBox="0 0 48 48" style="enable-background:new 0 0 48 48;" xml:space="preserve">
<path d="M31.6,38c-1.3,0-2.4-0.4-3.3-1.3c-0.9-0.9-1.4-2-1.4-3.3s0.4-2.4,1.3-3.3s2-1.4,3.3-1.4c0.6,0,1.1,0.1,1.7,0.3
	c0.5,0.2,1,0.5,1.5,0.8V14H42v2.7h-5.7v16.7c0,1.3-0.5,2.4-1.4,3.2C34,37.6,32.9,38,31.6,38z M8,29.5V28h13.8v1.5H8z M8,22.5V21
	h21.4v1.5H8z M8,15.5V14h21.4v1.5H8z"/>
</svg>
