<?xml version="1.0" encoding="utf-8"?>
<!-- Generator: Adobe Illustrator 26.3.1, SVG Export Plug-In . SVG Version: 6.00 Build 0)  -->
<svg version="1.1" id="Слой_1" xmlns="http://www.w3.org/2000/svg" xmlns:xlink="http://www.w3.org/1999/xlink" x="0px" y="0px"
	 viewBox="0 0 48 48" style="enable-background:new 0 0 48 48;" xml:space="preserve">
<path d="M6,20V6h9.2c0.8,0,1.4,0.3,2,0.8C17.7,7.3,18,8,18,8.8V12c0,0.5-0.2,1-0.7,1.6c-0.5,0.5-1.1,0.8-2.1,0.9l2.4,5.6h-2.1
	l-2.4-5.5H7.5V20H6z M7.5,12.9h7.7c0.4,0,0.7-0.1,0.9-0.3s0.3-0.5,0.3-0.9V8.8c0-0.4-0.1-0.7-0.3-0.9c-0.2-0.2-0.5-0.3-0.9-0.3H7.5
	C7.5,7.5,7.5,12.9,7.5,12.9z"/>
</svg>
