<?xml version="1.0" encoding="utf-8"?>
<!-- Generator: Adobe Illustrator 26.3.1, SVG Export Plug-In . SVG Version: 6.00 Build 0)  -->
<svg version="1.1" id="Слой_1" xmlns="http://www.w3.org/2000/svg" xmlns:xlink="http://www.w3.org/1999/xlink" x="0px" y="0px"
	 viewBox="0 0 48 48" style="enable-background:new 0 0 48 48;" xml:space="preserve">
<path d="M24,42c-2.5,0-4.8-0.5-7-1.4s-4.1-2.2-5.7-3.8s-2.9-3.5-3.8-5.7C6.5,28.8,6,26.5,6,24s0.5-4.8,1.4-7s2.2-4.1,3.8-5.7
	s3.5-2.9,5.7-3.8C19.2,6.5,21.5,6,24,6s4.8,0.5,7,1.4s4.1,2.2,5.7,3.8c1.6,1.6,2.9,3.5,3.8,5.7c0.9,2.2,1.4,4.5,1.4,7
	s-0.5,4.8-1.4,7s-2.2,4.1-3.8,5.7s-3.5,2.9-5.7,3.8C28.8,41.5,26.5,42,24,42z M24,40.5c2.1,0,4.2-0.4,6.1-1.1
	c1.9-0.8,3.6-1.8,5.1-3.2l-4.6-4.6c-0.9,0.7-1.9,1.3-3,1.7C26.4,33.8,25.2,34,24,34c-2.8,0-5.1-1-7.1-2.9C15,29.1,14,26.8,14,24
	s1-5.1,2.9-7.1S21.2,14,24,14s5.1,1,7.1,2.9c1.9,2,2.9,4.3,2.9,7.1c0,1.2-0.2,2.4-0.6,3.5c-0.4,1.1-1,2.1-1.7,3l4.6,4.6
	c1.3-1.5,2.4-3.1,3.1-5c0.8-1.9,1.1-3.9,1.1-6c0-4.6-1.6-8.5-4.8-11.7C32.5,9.1,28.6,7.5,24,7.5s-8.5,1.6-11.7,4.8S7.5,19.4,7.5,24
	s1.6,8.5,4.8,11.7S19.4,40.5,24,40.5z M24,32.5c1,0,2-0.2,2.9-0.5s1.7-0.8,2.5-1.4l-4.7-4.7c-0.1,0-0.2,0.1-0.4,0.1
	c-0.1,0-0.3,0-0.4,0c-0.5,0-1-0.2-1.4-0.6C22.2,25,22,24.5,22,24s0.2-1,0.6-1.4S23.5,22,24,22s1,0.2,1.4,0.6S26,23.5,26,24
	c0,0.1,0,0.2,0,0.4c0,0.1-0.1,0.3-0.1,0.4l4.7,4.7c0.6-0.8,1.1-1.6,1.4-2.5c0.3-0.9,0.5-1.9,0.5-2.9c0-2.3-0.8-4.3-2.5-6
	c-1.6-1.6-3.6-2.5-6-2.5c-2.3,0-4.3,0.8-6,2.5c-1.6,1.6-2.5,3.6-2.5,6s0.8,4.3,2.5,6C19.7,31.6,21.7,32.5,24,32.5z"/>
</svg>
