<?xml version="1.0" encoding="utf-8"?>
<!-- Generator: Adobe Illustrator 26.3.1, SVG Export Plug-In . SVG Version: 6.00 Build 0)  -->
<svg version="1.1" id="Слой_1" xmlns="http://www.w3.org/2000/svg" xmlns:xlink="http://www.w3.org/1999/xlink" x="0px" y="0px"
	 viewBox="0 0 48 48" style="enable-background:new 0 0 48 48;" xml:space="preserve">
<path d="M10.8,42c-0.8,0-1.4-0.3-2-0.8C8.3,40.7,8,40,8,39.2V12.3c0-0.8,0.3-1.4,0.8-2c0.5-0.5,1.2-0.8,2-0.8h4.1v-4h1.8v4h14.8v-4
	h1.7v4h4.1c0.8,0,1.4,0.3,2,0.8c0.5,0.5,0.8,1.2,0.8,2v26.9c0,0.8-0.3,1.4-0.8,2c-0.5,0.5-1.2,0.8-2,0.8H10.8z M9.5,39.2
	c0,0.3,0.1,0.6,0.4,0.8s0.5,0.4,0.8,0.4h26.5c0.3,0,0.6-0.1,0.8-0.4c0.3-0.3,0.4-0.5,0.4-0.8V12.3c0-0.3-0.1-0.6-0.4-0.8
	c-0.3-0.3-0.5-0.4-0.8-0.4H10.8c-0.3,0-0.6,0.1-0.8,0.4c-0.3,0.3-0.4,0.5-0.4,0.8v26.9H9.5z M19.2,40.5v-4.9L15.3,31
	c-0.3-0.3-0.5-0.7-0.8-1.2c-0.2-0.5-0.3-1-0.3-1.7c0-0.4,0-0.7,0.1-1.1s0.2-0.7,0.4-1c-0.2-0.3-0.3-0.6-0.4-1
	c-0.1-0.4-0.1-0.7-0.1-1.1c0-0.6,0.1-1.2,0.3-1.7s0.5-0.9,0.8-1.2l3.9-4.6v-5.3H21v5.5c0,0.2-0.1,0.5-0.4,1l-4,4.7
	c-0.2,0.3-0.4,0.5-0.5,0.8S16,23.7,16,24c0,0.7,0.2,1.2,0.6,1.7s1,0.7,1.7,0.7c0.3,0,0.6-0.1,0.8-0.1c0.3-0.1,0.5-0.3,0.7-0.5
	c0.6-0.6,1.2-1,1.9-1.3c0.7-0.3,1.5-0.4,2.2-0.4c0.8,0,1.5,0.1,2.2,0.4s1.4,0.7,1.9,1.3c0.2,0.2,0.5,0.4,0.8,0.5s0.5,0.1,0.8,0.1
	c0.7,0,1.2-0.2,1.6-0.7s0.6-1,0.6-1.7c0-0.3-0.1-0.6-0.2-0.9s-0.3-0.6-0.5-0.8l-4-4.8c-0.1-0.1-0.2-0.3-0.3-0.5
	c0.2-0.1,0.2-0.3,0.2-0.5V11h1.8v5.4l3.9,4.6c0.4,0.4,0.6,0.9,0.8,1.3c0.2,0.5,0.3,1,0.3,1.5c0,0.4,0,0.7-0.1,1.1s-0.2,0.7-0.4,1
	c0.2,0.3,0.3,0.7,0.4,1c0.1,0.4,0.1,0.7,0.1,1.1c0,0.6-0.1,1.2-0.3,1.7s-0.5,0.9-0.8,1.2l-3.9,4.6v4.9H27v-5c0-0.2,0.1-0.5,0.4-1
	l4-4.7c0.3-0.3,0.5-0.7,0.6-1.1c0.1-0.4,0.1-0.8,0-1.2c-0.3,0.2-0.6,0.4-1,0.5s-0.7,0.2-1.1,0.2c-0.5,0-1-0.1-1.5-0.3
	s-0.9-0.5-1.3-0.9s-0.8-0.7-1.3-0.9c-0.5-0.2-1-0.3-1.6-0.3c-0.5,0-1,0.1-1.6,0.3c-0.5,0.2-1,0.5-1.3,0.9c-0.4,0.4-0.8,0.7-1.3,0.9
	c-0.5,0.2-1,0.3-1.5,0.3c-0.4,0-0.8-0.1-1.1-0.2c-0.4-0.1-0.7-0.3-1-0.5c-0.1,0.4-0.1,0.8,0,1.2c0.1,0.4,0.3,0.8,0.6,1.1l4,4.7
	c0.1,0.2,0.2,0.3,0.2,0.5c0.1,0.1,0.1,0.3,0.1,0.5v5L19.2,40.5L19.2,40.5z M9.5,39.2v1.2V11.1V39.2z"/>
</svg>
