<?xml version="1.0" encoding="utf-8"?>
<!-- Generator: Adobe Illustrator 26.3.1, SVG Export Plug-In . SVG Version: 6.00 Build 0)  -->
<svg version="1.1" id="Слой_1" xmlns="http://www.w3.org/2000/svg" xmlns:xlink="http://www.w3.org/1999/xlink" x="0px" y="0px"
	 viewBox="0 0 48 48" style="enable-background:new 0 0 48 48;" xml:space="preserve">
<path d="M6,42l3.1-3.1h21.8L34,42H6z M10.6,37.4l1.6-1.6h-0.7c-1.6,0-2.9-0.5-3.9-1.6C6.5,33,6,31.7,6,30.2V16.3
	c0-3.8,1.4-6.7,4.1-9C12.8,5.1,16.1,4,20,4c0.9,0,1.8,0.1,2.6,0.2c0.9,0.1,1.7,0.3,2.4,0.6c-0.2,0.2-0.4,0.4-0.6,0.6
	C24.2,5.6,24,5.8,23.8,6c-0.6-0.2-1.3-0.3-1.9-0.3c-0.6-0.1-1.3-0.1-1.9-0.1c-2.2,0-4.2,0.4-6,1.2s-3.3,1.9-4.4,3.3h12
	c-0.1,0.3-0.1,0.5-0.2,0.8c-0.1,0.2-0.1,0.5-0.2,0.8H8.7C8.3,12.2,8,13,7.8,13.8s-0.3,1.6-0.3,2.5v3.9h15.3c0.2,0.3,0.3,0.5,0.5,0.8
	c0.2,0.2,0.4,0.5,0.6,0.8H7.5v8.4c0,1.1,0.4,2.1,1.1,2.9c0.8,0.8,1.7,1.2,2.8,1.2h17c1.1,0,2.1-0.4,2.8-1.2c0.8-0.8,1.1-1.7,1.1-2.9
	v-4c0.2,0,0.5,0,0.8,0s0.5,0,0.8,0v4c0,1.5-0.5,2.9-1.6,4c-1.1,1.1-2.4,1.6-3.9,1.6h-0.7l1.6,1.6C29.4,37.4,10.6,37.4,10.6,37.4z
	 M20,30.6c0.7,0,1.3-0.3,1.9-0.8c0.5-0.5,0.8-1.1,0.8-1.9c0-0.7-0.3-1.3-0.8-1.9c-0.5-0.5-1.1-0.8-1.9-0.8c-0.7,0-1.3,0.3-1.9,0.8
	c-0.5,0.5-0.8,1.1-0.8,1.9c0,0.7,0.3,1.3,0.8,1.9C18.7,30.4,19.3,30.6,20,30.6z M33.4,21.6c-2.2,0-4-0.8-5.5-2.3s-2.3-3.4-2.3-5.6
	s0.8-4,2.3-5.5C29.4,6.8,31.3,6,33.5,6s4,0.7,5.5,2.2s2.2,3.3,2.2,5.5s-0.8,4-2.3,5.5C37.5,20.8,35.6,21.6,33.4,21.6z M32.8,14.8
	h1.4V9.2h-1.4V14.8z M33.5,18.6c0.3,0,0.5-0.1,0.7-0.3c0.2-0.2,0.3-0.4,0.3-0.7c0-0.3-0.1-0.5-0.3-0.7s-0.4-0.3-0.7-0.3
	s-0.6,0.1-0.7,0.3c-0.2,0.2-0.3,0.4-0.3,0.7c0,0.3,0.1,0.5,0.3,0.7C33,18.5,33.2,18.6,33.5,18.6z"/>
</svg>
