<?xml version="1.0" encoding="utf-8"?>
<!-- Generator: Adobe Illustrator 26.3.1, SVG Export Plug-In . SVG Version: 6.00 Build 0)  -->
<svg version="1.1" id="Слой_1" xmlns="http://www.w3.org/2000/svg" xmlns:xlink="http://www.w3.org/1999/xlink" x="0px" y="0px"
	 viewBox="0 0 48 48" style="enable-background:new 0 0 48 48;" xml:space="preserve">
<path d="M16.3,36.7c-0.2,0.1-0.4,0.1-0.6,0.1c-0.2-0.1-0.3-0.2-0.4-0.4l-12-24c-0.1-0.2-0.1-0.4-0.1-0.6c0.1-0.2,0.2-0.3,0.4-0.4
	c0.2-0.1,0.4-0.1,0.6-0.1c0.2,0.1,0.3,0.2,0.4,0.4l12,24c0.1,0.2,0.1,0.4,0,0.6C16.7,36.4,16.5,36.6,16.3,36.7z M25.7,36.7
	c-0.2,0.1-0.4,0.2-0.6,0.1c-0.2-0.1-0.3-0.2-0.4-0.4l-12-24c-0.1-0.2-0.1-0.4-0.1-0.6c0.1-0.2,0.2-0.3,0.4-0.4
	c0.2-0.1,0.4-0.1,0.6-0.1c0.2,0.1,0.4,0.2,0.4,0.4l12.1,24c0.1,0.2,0.1,0.4,0,0.6C26,36.4,25.9,36.6,25.7,36.7z M35,36.6
	c-0.2,0.1-0.4,0.2-0.6,0.1c-0.2-0.1-0.3-0.2-0.4-0.4l-12-24c-0.1-0.2-0.1-0.4-0.1-0.6c0.1-0.2,0.2-0.3,0.4-0.4
	c0.2-0.1,0.4-0.1,0.6,0s0.4,0.2,0.4,0.4l12,24c0.1,0.2,0.1,0.4,0,0.6C35.4,36.4,35.2,36.5,35,36.6z M44.4,36.7
	c-0.2,0.1-0.4,0.1-0.6,0c-0.2-0.1-0.3-0.2-0.4-0.4l-12-24c-0.1-0.2-0.1-0.4-0.1-0.6c0.1-0.2,0.2-0.3,0.4-0.4c0.2-0.1,0.4-0.1,0.6,0
	c0.2,0.1,0.3,0.2,0.4,0.4l12,24c0.1,0.2,0.1,0.4,0,0.6C44.7,36.5,44.5,36.6,44.4,36.7z"/>
</svg>
