<?xml version="1.0" encoding="utf-8"?>
<!-- Generator: Adobe Illustrator 26.3.1, SVG Export Plug-In . SVG Version: 6.00 Build 0)  -->
<svg version="1.1" id="Слой_1" xmlns="http://www.w3.org/2000/svg" xmlns:xlink="http://www.w3.org/1999/xlink" x="0px" y="0px"
	 viewBox="0 0 48 48" style="enable-background:new 0 0 48 48;" xml:space="preserve">
<path d="M27.6,43.2c-0.2,0.1-0.4,0.1-0.6,0.1c-0.2-0.1-0.4-0.2-0.5-0.4L23,35.7c-0.1-0.2-0.1-0.4,0-0.6c0.1-0.2,0.2-0.4,0.4-0.5
	c0.2-0.1,0.4-0.1,0.6,0s0.4,0.2,0.5,0.4l3.6,7.1c0.1,0.2,0.1,0.4,0,0.6C28,43,27.8,43.1,27.6,43.2z M39.7,43.2
	c-0.2,0.1-0.4,0.1-0.6,0c-0.2-0.1-0.4-0.2-0.5-0.4L35,35.7c-0.1-0.2-0.1-0.4,0-0.6c0.1-0.2,0.2-0.4,0.4-0.5s0.4-0.1,0.6-0.1
	c0.2,0.1,0.4,0.2,0.5,0.4l3.6,7.2c0.1,0.2,0.1,0.4,0,0.6C40,43,39.9,43.1,39.7,43.2z M15.6,43.2c-0.2,0.1-0.4,0.1-0.6,0.1
	c-0.2-0.1-0.4-0.2-0.5-0.4l-3.6-7.2c-0.1-0.2-0.1-0.4,0-0.6c0.1-0.2,0.2-0.4,0.4-0.5s0.4-0.1,0.6,0c0.2,0.1,0.4,0.2,0.5,0.4l3.6,7.2
	c0.1,0.2,0.1,0.4,0,0.6C15.9,43,15.8,43.1,15.6,43.2z M14.8,30.5c-2.7,0-5-1-6.9-2.9S5,23.5,5,20.8c0-2.5,0.9-4.7,2.6-6.6
	c1.8-1.9,4-2.9,6.7-3.1c1-1.9,2.3-3.3,4-4.4C20,5.5,21.9,5,24,5c2.9,0,5.3,1,7.3,2.9s3.1,4.3,3.5,7.1c2.6,0.1,4.7,0.9,6.1,2.5
	c1.4,1.5,2.1,3.3,2.1,5.3c0,2.2-0.8,4-2.3,5.5s-3.3,2.3-5.5,2.3C35.2,30.5,14.8,30.5,14.8,30.5z M14.8,29h20.5
	c1.7,0,3.2-0.6,4.4-1.8c1.2-1.2,1.8-2.7,1.8-4.4c0-1.7-0.6-3.2-1.8-4.4c-1.2-1.2-2.7-1.8-4.4-1.8h-2v-0.8c0-2.5-0.9-4.7-2.7-6.5
	s-4-2.7-6.5-2.7c-1.9,0-3.5,0.5-5.1,1.5c-1.5,1-2.7,2.4-3.4,4.1l-0.2,0.4h-0.7c-2.2,0.1-4.2,0.9-5.8,2.5s-2.4,3.5-2.4,5.7
	c0,2.3,0.8,4.2,2.4,5.8S12.5,29,14.8,29z"/>
</svg>
