<?xml version="1.0" encoding="utf-8"?>
<!-- Generator: Adobe Illustrator 26.3.1, SVG Export Plug-In . SVG Version: 6.00 Build 0)  -->
<svg version="1.1" id="Слой_1" xmlns="http://www.w3.org/2000/svg" xmlns:xlink="http://www.w3.org/1999/xlink" x="0px" y="0px"
	 viewBox="0 0 48 48" style="enable-background:new 0 0 48 48;" xml:space="preserve">
<path d="M19.2,40.5h9.5v-2.6l0.8-0.2c2.7-0.9,4.9-2.2,6.7-4s3.1-3.7,3.7-5.6H8c0.7,1.9,1.9,3.8,3.7,5.6c1.8,1.8,4,3.2,6.7,4l0.8,0.2
	C19.2,37.9,19.2,40.5,19.2,40.5z M17.7,42v-3.1c-3.2-1-5.8-2.6-7.8-5c-2-2.3-3.3-4.8-3.9-7.5h4v-17L42,6v1.6L20.6,9.9v4.7H42v1.5
	H20.6v10.4H42c-0.5,2.7-1.8,5.2-3.9,7.5c-2.1,2.3-4.7,4-7.9,5v3H17.7z M16.1,14.6h3v-4.5l-3,0.3V14.6z M11.5,14.6h3v-4.1l-3,0.4
	V14.6z M16.1,26.5h3V16.1h-3V26.5z M11.5,26.5h3V16.1h-3V26.5z"/>
</svg>
