<?xml version="1.0" encoding="utf-8"?>
<!-- Generator: Adobe Illustrator 26.3.1, SVG Export Plug-In . SVG Version: 6.00 Build 0)  -->
<svg version="1.1" id="Слой_1" xmlns="http://www.w3.org/2000/svg" xmlns:xlink="http://www.w3.org/1999/xlink" x="0px" y="0px"
	 viewBox="0 0 48 48" style="enable-background:new 0 0 48 48;" xml:space="preserve">
<path d="M8.8,38c-0.7,0-1.4-0.3-1.9-0.8C6.3,36.6,6,36,6,35.2v-7.6c0-0.3,0.1-0.5,0.2-0.7s0.3-0.5,0.5-0.6l9.4-9.4V8h16v8.8l9.2,9.1
	c0.2,0.3,0.4,0.6,0.6,0.9c0.2,0.3,0.2,0.7,0.2,1.1v7.2c0,0.7-0.3,1.4-0.8,1.9c-0.7,0.7-1.3,1-2.1,1H8.8z M8.9,26.1h30.2l-8.6-8.6v-8
	h-13v7.9L8.9,26.1z M8.8,36.5h30.5c0.4,0,0.7-0.1,0.9-0.3s0.3-0.5,0.3-0.9v-7.6h-33v7.6c0,0.4,0.1,0.7,0.3,0.9
	C8.1,36.3,8.4,36.5,8.8,36.5z M20,32.7v-1.3h8v1.3H20z"/>
</svg>
