<?xml version="1.0" encoding="utf-8"?>
<!-- Generator: Adobe Illustrator 26.3.1, SVG Export Plug-In . SVG Version: 6.00 Build 0)  -->
<svg version="1.1" id="Слой_1" xmlns="http://www.w3.org/2000/svg" xmlns:xlink="http://www.w3.org/1999/xlink" x="0px" y="0px"
	 viewBox="0 0 48 48" style="enable-background:new 0 0 48 48;" xml:space="preserve">
<path d="M12.8,27.2h4.4l10.5-10.5c0.2-0.2,0.3-0.4,0.4-0.6c0.1-0.2,0.1-0.4,0.1-0.6c0-0.2,0-0.4-0.1-0.7c-0.1-0.2-0.2-0.4-0.4-0.6
	l-1.8-1.9c-0.2-0.2-0.4-0.3-0.6-0.4c-0.2-0.1-0.4-0.1-0.7-0.1c-0.2,0-0.4,0-0.6,0.1s-0.4,0.2-0.6,0.4L12.8,22.8V27.2z M26.5,15.4
	l-1.9-1.9L26.5,15.4z M14.5,25.5v-1.9l6.9-6.9l0.9,1l0.9,1l-6.9,6.9C16.4,25.5,14.5,25.5,14.5,25.5z M22.4,17.6l0.9,1l-1.9-1.9
	L22.4,17.6z M23.3,27.2h11.9v-1.5H24.9L23.3,27.2z M6,40.2V8.8c0-0.8,0.3-1.4,0.8-2C7.3,6.3,8,6,8.8,6h30.5c0.8,0,1.4,0.3,2,0.8
	C41.7,7.3,42,8,42,8.8v22.5c0,0.8-0.3,1.4-0.8,2c-0.5,0.5-1.2,0.8-2,0.8h-27L6,40.2z M11.5,32.5h27.8c0.3,0,0.6-0.1,0.8-0.4
	c0.3-0.3,0.4-0.5,0.4-0.8V8.8c0-0.3-0.1-0.6-0.4-0.8c-0.3-0.3-0.5-0.4-0.8-0.4H8.8C8.5,7.6,8.2,7.7,8,8C7.7,8.2,7.5,8.5,7.5,8.8
	v27.8C7.5,36.5,11.5,32.5,11.5,32.5z M7.5,32.5v-25V32.5z"/>
</svg>
