<?xml version="1.0" encoding="utf-8"?>
<!-- Generator: Adobe Illustrator 26.3.1, SVG Export Plug-In . SVG Version: 6.00 Build 0)  -->
<svg version="1.1" id="Слой_1" xmlns="http://www.w3.org/2000/svg" xmlns:xlink="http://www.w3.org/1999/xlink" x="0px" y="0px"
	 viewBox="0 0 48 48" style="enable-background:new 0 0 48 48;" xml:space="preserve">
<path d="M16.2,41.9l-1.4-0.6l3-7.1c-3.4-0.6-6.3-2.2-8.5-4.8C7.1,26.7,6,23.6,6,20.1v-7.6c0-1.8,0.6-3.3,1.9-4.6S10.7,6,12.5,6
	c0.5,0,0.9,0,1.3,0.1c0.4,0.1,0.8,0.2,1.2,0.4l9.7,4.1L19,12.7V17l21.9,14.7L42,38h-2.5l-1.4-3.6H26.6V42h-1.5v-7.6h-5.7
	C19.4,34.4,16.2,41.9,16.2,41.9z M20.1,32.8h19.8l-6.4-4.2H19.7c-2,0-3.8-0.7-5.3-2.1s-2.2-3.1-2.2-5.2h1.5c0,1.6,0.6,3,1.7,4.1
	c1.2,1.1,2.6,1.7,4.3,1.7h11.5l-13.8-9.2v-5.3c0-1.4-0.5-2.6-1.4-3.5c-1-1-2.1-1.4-3.6-1.4C11.1,7.5,10,8,9,9
	c-1,0.9-1.5,2.1-1.5,3.5v7.7c0,3.5,1.2,6.5,3.7,9C13.7,31.6,16.6,32.8,20.1,32.8z M12.5,13.7c-0.3,0-0.6-0.1-0.9-0.4
	c-0.3-0.2-0.4-0.5-0.4-0.9c0-0.3,0.1-0.6,0.4-0.9c0.2-0.2,0.5-0.3,0.9-0.3c0.3,0,0.6,0.1,0.9,0.3c0.2,0.2,0.3,0.5,0.3,0.9
	c0,0.3-0.1,0.6-0.3,0.9C13.2,13.6,12.9,13.7,12.5,13.7z"/>
</svg>
