<?xml version="1.0" encoding="utf-8"?>
<!-- Generator: Adobe Illustrator 26.3.1, SVG Export Plug-In . SVG Version: 6.00 Build 0)  -->
<svg version="1.1" id="Слой_1" xmlns="http://www.w3.org/2000/svg" xmlns:xlink="http://www.w3.org/1999/xlink" x="0px" y="0px"
	 viewBox="0 0 48 48" style="enable-background:new 0 0 48 48;" xml:space="preserve">
<path d="M41.7,43.8L6,8.2l1.1-1.1l35.7,35.7L41.7,43.8z M36.9,29.4L35,22.3l-1.6,6l-2.7-2.7l-1.8-6.9h1.5l2,7.6l1.9-7.6h1.2l2,7.6
	l2-7.6h1.6l-2.8,10.8C38.3,29.4,36.9,29.4,36.9,29.4z M17.7,29.4l2.8-8.3l1.1,1.1l-0.8,2.6h3.4l1.4,1.4h-5.3l-1,3.1
	C19.3,29.4,17.7,29.4,17.7,29.4z M6.6,29.4V18.6h5.9c0.8,0,1.4,0.3,2,0.8c0.5,0.5,0.8,1.2,0.8,1.9v1.3c0,0.6-0.2,1.1-0.6,1.6
	c-0.4,0.5-0.9,0.8-1.7,1l1.8,4.2h-1.6l-1.7-4H8.1v4C8.1,29.4,6.6,29.4,6.6,29.4z M8.1,23.9h4.4c0.3,0,0.6-0.1,0.8-0.4
	c0.3-0.3,0.4-0.5,0.4-0.8v-1.3c0-0.3-0.1-0.6-0.4-0.8c-0.3-0.3-0.5-0.4-0.8-0.4H8.1C8.1,20.1,8.1,23.9,8.1,23.9z"/>
</svg>
