<?xml version="1.0" encoding="utf-8"?>
<!-- Generator: Adobe Illustrator 26.3.1, SVG Export Plug-In . SVG Version: 6.00 Build 0)  -->
<svg version="1.1" id="Слой_1" xmlns="http://www.w3.org/2000/svg" xmlns:xlink="http://www.w3.org/1999/xlink" x="0px" y="0px"
	 viewBox="0 0 48 48" style="enable-background:new 0 0 48 48;" xml:space="preserve">
<path d="M14.8,40c-0.9,0-1.8-0.3-2.6-0.7c-0.8-0.4-1.6-1.1-2.3-1.9C8.6,36,7.7,34.3,7,32.3s-1-4.1-1-6.2c0-2.5,0.5-4.9,1.4-7.1
	s2.2-4.1,3.9-5.8s3.5-2.9,5.7-3.9C19.2,8.5,21.5,8,24,8s4.8,0.5,7,1.4s4.1,2.2,5.7,3.9c1.6,1.6,2.9,3.5,3.9,5.7
	c0.9,2.2,1.4,4.5,1.4,7c0,2.1-0.3,4.2-1,6.2s-1.6,3.7-2.8,5.1c-0.8,0.9-1.6,1.6-2.4,2C34.9,39.8,34,40,33.1,40
	c-0.5,0-0.9-0.1-1.4-0.2c-0.4-0.1-0.9-0.3-1.3-0.5L27.6,38c-0.6-0.3-1.2-0.5-1.8-0.6c-0.6-0.1-1.2-0.2-1.9-0.2
	c-0.6,0-1.3,0.1-1.9,0.2c-0.6,0.1-1.2,0.4-1.7,0.6l-2.8,1.4c-0.5,0.3-0.9,0.4-1.4,0.6C15.8,40,15.3,40.1,14.8,40z M14.9,38.5
	c0.3,0,0.7,0,1-0.1c0.3-0.1,0.7-0.2,1-0.4l2.8-1.4c0.7-0.3,1.3-0.6,2-0.7c0.7-0.2,1.4-0.2,2.2-0.2s1.5,0.1,2.2,0.2
	c0.7,0.2,1.4,0.4,2.1,0.7L31,38c0.3,0.2,0.7,0.3,1,0.4c0.3,0.1,0.7,0.1,1,0.1c0.7,0,1.4-0.2,2-0.5s1.3-0.9,1.9-1.6
	c1.1-1.3,1.9-2.8,2.5-4.6c0.6-1.8,0.9-3.7,0.9-5.7c0-4.6-1.6-8.6-4.8-11.8s-7.1-4.8-11.7-4.8s-8.5,1.6-11.7,4.9
	c-3.2,3.2-4.8,7.2-4.8,11.8c0,2,0.3,3.9,1,5.7c0.6,1.8,1.5,3.3,2.6,4.6c0.6,0.7,1.2,1.2,1.8,1.5C13.6,38.3,14.2,38.5,14.9,38.5z
	 M24,28.8c0.8,0,1.4-0.3,2-0.8c0.5-0.5,0.8-1.2,0.8-2c0-0.3,0-0.6-0.1-0.9s-0.2-0.5-0.4-0.8l4-5.1c0.5,0.5,1,1,1.4,1.6
	s0.7,1.2,0.9,1.9h1.6c-0.7-2.3-2-4.1-3.9-5.5s-4-2.1-6.3-2.1s-4.5,0.7-6.4,2.1s-3.2,3.2-3.9,5.5h1.6c0.7-1.8,1.8-3.3,3.4-4.4
	s3.3-1.7,5.2-1.7c0.9,0,1.8,0.1,2.7,0.4c0.9,0.3,1.7,0.6,2.4,1.1l-4,5.1c-0.2-0.1-0.3-0.1-0.5-0.1s-0.4,0-0.6,0
	c-0.8,0-1.4,0.3-2,0.8c-0.5,0.5-0.8,1.2-0.8,2s0.3,1.4,0.8,2C22.6,28.5,23.2,28.8,24,28.8z"/>
</svg>
