<?xml version="1.0" encoding="utf-8"?>
<!-- Generator: Adobe Illustrator 26.3.1, SVG Export Plug-In . SVG Version: 6.00 Build 0)  -->
<svg version="1.1" id="Слой_1" xmlns="http://www.w3.org/2000/svg" xmlns:xlink="http://www.w3.org/1999/xlink" x="0px" y="0px"
	 viewBox="0 0 48 48" style="enable-background:new 0 0 48 48;" xml:space="preserve">
<path d="M11.8,30.3L18,24l-6.3-6.3l-1.1,1.1l4.4,4.4H6v1.5h9.1l-4.4,4.4C10.7,29.2,11.8,30.3,11.8,30.3z M32.6,15.2
	c0.3,0,0.6-0.1,0.9-0.4c0.2-0.3,0.4-0.5,0.4-0.9c0-0.3-0.1-0.6-0.4-0.9c-0.3-0.2-0.5-0.4-0.9-0.4c-0.3,0-0.6,0.1-0.9,0.4
	c-0.2,0.3-0.3,0.5-0.3,0.9c0,0.3,0.1,0.6,0.4,0.9C32,15.1,32.3,15.2,32.6,15.2z M24.8,38.5h14.5c0.3,0,0.6-0.1,0.8-0.4
	c0.3-0.3,0.4-0.5,0.4-0.8V10.8c0-0.3-0.1-0.6-0.4-0.8c-0.3-0.3-0.5-0.4-0.8-0.4H24.8C24.8,9.5,24.8,38.5,24.8,38.5z M8.8,40
	c-0.8,0-1.4-0.3-2-0.8C6.3,38.7,6,38,6,37.2V29h1.5v8.2c0,0.3,0.1,0.6,0.4,0.8c0.3,0.3,0.5,0.4,0.8,0.4h14.5V9.5H8.8
	C8.5,9.5,8.2,9.6,8,9.9c-0.3,0.3-0.4,0.5-0.4,0.8v8.2H6v-8.2c0-0.8,0.3-1.4,0.8-2C7.3,8.3,8,8,8.8,8h30.5c0.8,0,1.4,0.3,2,0.8
	c0.5,0.5,0.8,1.2,0.8,2v26.5c0,0.8-0.3,1.4-0.8,2c-0.5,0.5-1.2,0.8-2,0.8L8.8,40L8.8,40z M23.2,10.8V9.5v28.9
	C23.2,38.5,23.2,10.8,23.2,10.8z"/>
</svg>
