<?xml version="1.0" encoding="utf-8"?>
<!-- Generator: Adobe Illustrator 26.3.1, SVG Export Plug-In . SVG Version: 6.00 Build 0)  -->
<svg version="1.1" id="Слой_1" xmlns="http://www.w3.org/2000/svg" xmlns:xlink="http://www.w3.org/1999/xlink" x="0px" y="0px"
	 viewBox="0 0 48 48" style="enable-background:new 0 0 48 48;" xml:space="preserve">
<path d="M21.5,43.2l-1.1-1.1l4.9-4.9h-9.8c-0.2,0.9-0.6,1.7-1.4,2.3c-0.7,0.6-1.6,0.9-2.6,0.9c-1.1,0-2.1-0.4-2.8-1.2
	c-0.8-0.8-1.2-1.7-1.2-2.8c0-1,0.3-1.9,0.9-2.6c0.6-0.7,1.4-1.2,2.3-1.4v-17C9.8,15.2,9,14.8,8.4,14c-0.6-0.7-0.9-1.6-0.9-2.6
	c0-1.1,0.4-2.1,1.2-2.8c0.8-0.8,1.7-1.2,2.8-1.2c1,0,1.9,0.3,2.6,0.9c0.7,0.6,1.2,1.4,1.4,2.3h9.8l-4.9-4.9l1.1-1.1l6.8,6.8
	l-6.8,6.7L20.4,17l4.9-4.9h-9.8c-0.2,0.8-0.5,1.5-1.1,2.1s-1.3,1-2.1,1.1v17c0.8,0.2,1.5,0.5,2.1,1.1s1,1.3,1.1,2.1h9.8l-4.8-4.9
	l1.1-1.1l6.8,6.8L21.5,43.2z M36.5,40.5c-1.1,0-2.1-0.4-2.8-1.2c-0.8-0.8-1.2-1.7-1.2-2.8c0-1,0.3-1.8,0.9-2.6
	c0.6-0.7,1.4-1.2,2.3-1.4v-17c-0.9-0.2-1.7-0.6-2.3-1.4c-0.6-0.7-0.9-1.6-0.9-2.6c0-1.1,0.4-2.1,1.2-2.8c0.8-0.8,1.7-1.2,2.8-1.2
	s2.1,0.4,2.8,1.2c0.8,0.8,1.2,1.7,1.2,2.8c0,1-0.3,1.8-0.9,2.6c-0.6,0.7-1.4,1.2-2.3,1.4v17c0.9,0.2,1.7,0.6,2.3,1.4
	c0.6,0.7,0.9,1.6,0.9,2.6c0,1.1-0.4,2.1-1.2,2.8C38.5,40.1,37.6,40.5,36.5,40.5z M11.5,38.9c0.7,0,1.3-0.2,1.8-0.7s0.7-1.1,0.7-1.8
	s-0.2-1.3-0.7-1.8s-1.1-0.7-1.8-0.7s-1.3,0.2-1.8,0.7S9,35.7,9,36.4s0.2,1.3,0.7,1.8C10.3,38.7,10.8,38.9,11.5,38.9z M36.5,38.9
	c0.7,0,1.3-0.2,1.8-0.7s0.7-1.1,0.7-1.8s-0.2-1.3-0.7-1.8s-1.1-0.7-1.8-0.7s-1.3,0.2-1.8,0.7S34,35.7,34,36.4s0.2,1.3,0.7,1.8
	S35.8,38.9,36.5,38.9z M11.5,14c0.7,0,1.3-0.2,1.8-0.7s0.7-1.1,0.7-1.8s-0.2-1.3-0.7-1.8S12.2,9,11.5,9s-1.3,0.2-1.8,0.7
	S9,10.8,9,11.5s0.2,1.3,0.7,1.8C10.3,13.8,10.8,14,11.5,14z M36.5,14c0.7,0,1.3-0.2,1.8-0.7s0.7-1.1,0.7-1.8s-0.2-1.3-0.7-1.8
	S37.2,9,36.5,9s-1.3,0.2-1.8,0.7S34,10.8,34,11.5s0.2,1.3,0.7,1.8S35.8,14,36.5,14z"/>
</svg>
