<?xml version="1.0" encoding="utf-8"?>
<!-- Generator: Adobe Illustrator 26.3.1, SVG Export Plug-In . SVG Version: 6.00 Build 0)  -->
<svg version="1.1" id="Слой_1" xmlns="http://www.w3.org/2000/svg" xmlns:xlink="http://www.w3.org/1999/xlink" x="0px" y="0px"
	 viewBox="0 0 48 48" style="enable-background:new 0 0 48 48;" xml:space="preserve">
<path d="M22.2,40.5v-5.3L36.4,21c0.2-0.1,0.3-0.3,0.5-0.3c0.2-0.1,0.4-0.1,0.6-0.1c0.2,0,0.4,0,0.6,0.1c0.2,0.1,0.4,0.2,0.5,0.3
	l3,2.9c0.2,0.1,0.3,0.3,0.4,0.6c0.1,0.2,0.1,0.4,0.1,0.7c0,0.2,0,0.4-0.1,0.6s-0.2,0.4-0.4,0.5L27.3,40.5H22.2z M40.5,25.1L37.6,22
	L40.5,25.1z M23.8,38.9h2.9l9.7-9.7l-1.5-1.5l-1.6-1.5l-9.6,9.6C23.8,35.8,23.8,38.9,23.8,38.9z M34.9,27.8l-1.6-1.5L34.9,27.8
	l1.5,1.5L34.9,27.8z M21.5,18.2l-1.1-1.1l4.9-4.9h-9.8c-0.2,0.8-0.5,1.5-1.1,2.1s-1.3,1-2.1,1.1v17c0.9,0.2,1.7,0.6,2.3,1.4
	c0.6,0.7,0.9,1.6,0.9,2.6c0,1.1-0.4,2.1-1.2,2.8c-0.8,0.8-1.7,1.2-2.8,1.2S9.4,40,8.7,39.2c-0.8-0.8-1.2-1.7-1.2-2.8
	c0-1,0.3-1.8,0.9-2.6s1.4-1.2,2.3-1.4v-17C9.8,15.2,9,14.8,8.4,14c-0.6-0.7-0.9-1.6-0.9-2.6c0-1.1,0.4-2.1,1.2-2.8
	c0.8-0.8,1.7-1.2,2.8-1.2c1,0,1.9,0.3,2.6,0.9c0.7,0.6,1.2,1.4,1.4,2.3h9.8l-4.9-4.9l1.1-1.1l6.8,6.8L21.5,18.2z M36.5,7.5
	c1.1,0,2.1,0.4,2.8,1.2s1.2,1.7,1.2,2.8s-0.4,2.1-1.2,2.8c-0.8,0.8-1.7,1.2-2.8,1.2s-2.1-0.4-2.8-1.2c-0.8-0.8-1.2-1.7-1.2-2.8
	s0.4-2.1,1.2-2.8C34.4,7.9,35.3,7.5,36.5,7.5z M11.5,38.9c0.7,0,1.3-0.2,1.8-0.7s0.7-1.1,0.7-1.8s-0.2-1.3-0.7-1.8s-1.1-0.7-1.8-0.7
	s-1.3,0.2-1.8,0.7S9,35.7,9,36.4s0.2,1.3,0.7,1.8C10.3,38.7,10.8,38.9,11.5,38.9z M11.5,14c0.7,0,1.3-0.2,1.8-0.7s0.7-1.1,0.7-1.8
	s-0.2-1.3-0.7-1.8S12.2,9,11.5,9s-1.3,0.2-1.8,0.7S9,10.8,9,11.5s0.2,1.3,0.7,1.8C10.3,13.8,10.8,14,11.5,14z M36.5,14
	c0.7,0,1.3-0.2,1.8-0.7s0.7-1.1,0.7-1.8s-0.2-1.3-0.7-1.8S37.2,9,36.5,9s-1.3,0.2-1.8,0.7S34,10.8,34,11.5s0.2,1.3,0.7,1.8
	S35.8,14,36.5,14z"/>
</svg>
