<?xml version="1.0" encoding="utf-8"?>
<!-- Generator: Adobe Illustrator 26.3.1, SVG Export Plug-In . SVG Version: 6.00 Build 0)  -->
<svg version="1.1" id="Слой_1" xmlns="http://www.w3.org/2000/svg" xmlns:xlink="http://www.w3.org/1999/xlink" x="0px" y="0px"
	 viewBox="0 0 48 48" style="enable-background:new 0 0 48 48;" xml:space="preserve">
<path d="M11.6,42c-1,0-1.9-0.4-2.6-1.1c-0.7-0.7-1.1-1.6-1.1-2.6v-4.1h6.2V6.8l2.5,1.8l2.6-1.8l2.6,1.8l2.6-1.8L27,8.6l2.6-1.8
	l2.6,1.8l2.6-1.8l2.6,1.8l2.5-1.8v31.6c0,1-0.4,1.9-1.1,2.6c-0.7,0.7-1.6,1.1-2.6,1.1L11.6,42L11.6,42z M36.4,40.5
	c0.6,0,1.1-0.2,1.5-0.6c0.4-0.4,0.6-0.9,0.6-1.5V9.5H15.6v24.7h18.7v4.1c0,0.6,0.2,1.1,0.6,1.5C35.3,40.3,35.8,40.5,36.4,40.5z
	 M18.7,16.5V15h10.7v1.5H18.7z M18.7,22.8v-1.5h10.7v1.5C29.4,22.8,18.7,22.8,18.7,22.8z M34,17c-0.3,0-0.7-0.1-0.9-0.4
	c-0.3-0.3-0.4-0.6-0.4-0.9c0-0.3,0.1-0.7,0.4-0.9c0.3-0.3,0.6-0.4,0.9-0.4s0.7,0.1,0.9,0.4c0.3,0.3,0.4,0.6,0.4,0.9
	s-0.1,0.7-0.4,0.9C34.7,16.9,34.3,17,34,17z M34,23.2c-0.3,0-0.7-0.1-0.9-0.4c-0.3-0.3-0.4-0.6-0.4-0.9s0.1-0.7,0.4-0.9
	c0.3-0.3,0.6-0.4,0.9-0.4s0.7,0.1,0.9,0.4c0.3,0.3,0.4,0.6,0.4,0.9s-0.1,0.7-0.4,0.9C34.7,23.1,34.3,23.2,34,23.2z M11.6,40.5h21.2
	v-4.7H9.5v2.6c0,0.6,0.2,1.1,0.6,1.5C10.5,40.3,11,40.5,11.6,40.5z M9.5,40.5v-4.7V40.5z"/>
</svg>
