<?xml version="1.0" encoding="utf-8"?>
<!-- Generator: Adobe Illustrator 26.3.1, SVG Export Plug-In . SVG Version: 6.00 Build 0)  -->
<svg version="1.1" id="Слой_1" xmlns="http://www.w3.org/2000/svg" xmlns:xlink="http://www.w3.org/1999/xlink" x="0px" y="0px"
	 viewBox="0 0 48 48" style="enable-background:new 0 0 48 48;" xml:space="preserve">
<path d="M42.5,44.8l-3.3-3.3c-0.3,0.2-0.6,0.4-0.9,0.4C38,42,37.7,42,37.5,42H11.6c-1,0-1.9-0.4-2.6-1.1c-0.7-0.7-1.1-1.6-1.1-2.6
	v-4.1h6.2V16.3L3.8,6l1.1-1.1l38.8,38.8C43.6,43.6,42.5,44.8,42.5,44.8z M11.6,40.5h26.7l-4.7-4.7H9.5v2.6c0,0.6,0.2,1.1,0.6,1.5
	C10.5,40.3,11,40.5,11.6,40.5z M40.1,35.1l-1.5-1.5v-24h-24l-0.4-0.4V6.8l2.5,1.8l2.6-1.8l2.6,1.8l2.6-1.8l2.6,1.8l2.6-1.8l2.6,1.8
	l2.6-1.8l2.6,1.8L40,6.8v28.3H40.1z M15.6,34.2H32L15.6,17.8V34.2z M21.5,16.5L20,15h9.5v1.5H21.5z M27.8,22.8l-1.5-1.5h3.1v1.5
	H27.8z M34,23.2c-0.4,0-0.7-0.1-0.9-0.4c-0.3-0.3-0.4-0.6-0.4-0.9s0.1-0.7,0.4-0.9c0.3-0.3,0.6-0.4,0.9-0.4c0.3,0,0.7,0.1,0.9,0.4
	c0.3,0.3,0.4,0.6,0.4,0.9s-0.1,0.7-0.4,0.9C34.6,23.1,34.3,23.2,34,23.2z M34,17c-0.3,0-0.7-0.1-0.9-0.4c-0.3-0.3-0.4-0.6-0.4-0.9
	c0-0.3,0.1-0.7,0.4-0.9c0.3-0.3,0.6-0.4,0.9-0.4s0.7,0.1,0.9,0.4c0.3,0.3,0.4,0.6,0.4,0.9s-0.1,0.7-0.4,0.9C34.7,16.9,34.3,17,34,17
	z M9.5,40.5v-4.7V40.5z"/>
</svg>
