<?xml version="1.0" encoding="utf-8"?>
<!-- Generator: Adobe Illustrator 26.3.1, SVG Export Plug-In . SVG Version: 6.00 Build 0)  -->
<svg version="1.1" id="Слой_1" xmlns="http://www.w3.org/2000/svg" xmlns:xlink="http://www.w3.org/1999/xlink" x="0px" y="0px"
	 viewBox="0 0 48 48" style="enable-background:new 0 0 48 48;" xml:space="preserve">
<path d="M10,37.2v-2.9c0-0.9,0.3-1.7,0.8-2.4c0.5-0.7,1.2-1.2,2-1.6c2-0.9,3.9-1.5,5.8-2c1.9-0.4,3.7-0.7,5.5-0.7c1,0,2,0.1,3,0.2
	s2,0.3,3.1,0.6V30c-1-0.3-2-0.4-3-0.6c-1-0.1-2-0.2-3.1-0.2c-1.8,0-3.6,0.2-5.3,0.6s-3.5,1-5.3,1.9c-0.6,0.3-1.1,0.7-1.4,1.2
	c-0.3,0.5-0.5,1-0.5,1.5v1.4h18.5v1.5C30.1,37.2,10,37.2,10,37.2z M11.5,35.7H30C30.1,35.7,11.5,35.7,11.5,35.7z M24,22.8
	c-1.6,0-3-0.5-4.1-1.6s-1.6-2.5-1.6-4.1c0-1.7,0.5-3,1.6-4.1s2.5-1.6,4.1-1.6s3,0.5,4.1,1.6s1.6,2.5,1.6,4.1c0,1.7-0.5,3-1.6,4.1
	C27,22.2,25.6,22.8,24,22.8z M24,21.2c1.2,0,2.2-0.4,3-1.2c0.8-0.8,1.2-1.8,1.2-3s-0.4-2.2-1.2-3c-0.8-0.8-1.8-1.2-3-1.2
	s-2.2,0.4-3,1.2s-1.2,1.8-1.2,3s0.4,2.2,1.2,3C21.8,20.8,22.8,21.2,24,21.2z M37.2,43.4v-7h-2.8v-9.2H42l-3.7,7.2h3.5
	C41.9,34.5,37.2,43.4,37.2,43.4z"/>
</svg>
