<?xml version="1.0" encoding="utf-8"?>
<!-- Generator: Adobe Illustrator 26.3.1, SVG Export Plug-In . SVG Version: 6.00 Build 0)  -->
<svg version="1.1" id="Слой_1" xmlns="http://www.w3.org/2000/svg" xmlns:xlink="http://www.w3.org/1999/xlink" x="0px" y="0px"
	 viewBox="0 0 48 48" style="enable-background:new 0 0 48 48;" xml:space="preserve">
<path d="M23.2,44v-9.7L20,37.6l-1.1-1.1l5.1-5.1l5.1,5.1L28,37.6l-3.3-3.2V44H23.2z M11.5,29.1L10.4,28l3.2-3.2H4v-1.5h9.7L10.4,20
	l1.1-1.1l5.1,5.1L11.5,29.1z M36.5,29.1L31.4,24l5.1-5.1l1.1,1.1l-3.2,3.3H44v1.5h-9.6l3.2,3.2C37.6,28,36.5,29.1,36.5,29.1z
	 M24,25.7c-0.5,0-0.9-0.2-1.2-0.5c-0.3-0.3-0.5-0.7-0.5-1.2s0.2-0.9,0.5-1.2c0.3-0.4,0.7-0.5,1.2-0.5s0.9,0.2,1.3,0.5
	c0.3,0.3,0.5,0.8,0.5,1.3s-0.2,0.9-0.5,1.2C24.9,25.6,24.5,25.7,24,25.7z M24,16.6l-5.1-5.1l1.1-1.1l3.2,3.2V4h1.5v9.6l3.3-3.2
	l1.1,1.1L24,16.6z"/>
</svg>
