<?xml version="1.0" encoding="utf-8"?>
<!-- Generator: Adobe Illustrator 26.3.1, SVG Export Plug-In . SVG Version: 6.00 Build 0)  -->
<svg version="1.1" id="Слой_1" xmlns="http://www.w3.org/2000/svg" xmlns:xlink="http://www.w3.org/1999/xlink" x="0px" y="0px"
	 viewBox="0 0 48 48" style="enable-background:new 0 0 48 48;" xml:space="preserve">
<path d="M8,41.5v-35l2.5,1.9l2.7-1.9l2.7,1.9l2.7-1.9l2.7,1.9L24,6.5l2.7,1.9l2.7-1.9l2.7,1.9l2.7-1.9l2.7,1.9L40,6.5v35.1l-2.5-1.9
	l-2.7,1.9l-2.7-1.9l-2.7,1.9l-2.7-1.9L24,41.5l-2.7-1.9l-2.7,1.9l-2.7-1.9l-2.7,1.9l-2.7-1.9L8,41.5z M12.9,31.4h22.2v-1.5H12.9
	V31.4z M12.9,24.8h22.2v-1.5H12.9V24.8z M12.9,18.1h22.2v-1.5H12.9V18.1z M9.5,38.5h28.9v-29H9.5V38.5z M9.5,9.5v29V9.5z"/>
</svg>
