<?xml version="1.0" encoding="utf-8"?>
<!-- Generator: Adobe Illustrator 26.3.1, SVG Export Plug-In . SVG Version: 6.00 Build 0)  -->
<svg version="1.1" id="Слой_1" xmlns="http://www.w3.org/2000/svg" xmlns:xlink="http://www.w3.org/1999/xlink" x="0px" y="0px"
	 viewBox="0 0 48 48" style="enable-background:new 0 0 48 48;" xml:space="preserve">
<path d="M39.5,30.4l-1.2-1.2c1.4-1.5,2.5-3.2,3.3-4.9c0.8-1.8,1.2-3.8,1.2-6c0-2.3-0.4-4.3-1.2-6.1s-1.9-3.4-3.3-4.9L39.5,6
	c1.6,1.6,2.8,3.4,3.7,5.5c0.9,2,1.3,4.3,1.3,6.7s-0.4,4.7-1.3,6.7C42.3,27,41.1,28.8,39.5,30.4z M32.7,23.4l-1.2-1.2
	c0.5-0.6,0.9-1.2,1.2-1.8c0.3-0.7,0.4-1.4,0.4-2.2c0-0.8-0.1-1.6-0.4-2.2c-0.3-0.6-0.7-1.3-1.2-1.8l1.2-1.2c0.6,0.7,1.1,1.5,1.5,2.4
	c0.4,0.9,0.6,1.9,0.6,2.9s-0.2,1.9-0.6,2.8C33.8,22,33.3,22.7,32.7,23.4z M17.4,24c-1.7,0-3-0.5-4.1-1.6s-1.6-2.5-1.6-4.1
	c0-1.7,0.5-3.1,1.6-4.1s2.5-1.6,4.1-1.6s3,0.5,4.1,1.6s1.6,2.5,1.6,4.1s-0.5,3-1.6,4.1C20.4,23.4,19.1,24,17.4,24z M3.4,38.5v-2.9
	c0-1,0.2-1.8,0.7-2.4c0.5-0.6,1.2-1.2,2-1.6c1.6-0.8,3.5-1.4,5.5-1.9c2.1-0.5,4-0.7,5.7-0.7c1.7,0,3.6,0.2,5.7,0.7s3.9,1.1,5.6,1.9
	c0.8,0.4,1.5,0.9,2,1.6c0.5,0.6,0.7,1.4,0.7,2.4v2.9C31.4,38.5,3.4,38.5,3.4,38.5z M5,36.9h24.9v-1.4c0-0.6-0.2-1.1-0.5-1.6
	c-0.4-0.4-0.8-0.8-1.4-1.1c-1.4-0.8-3.1-1.4-5.1-1.8s-3.8-0.7-5.5-0.7s-3.5,0.2-5.5,0.7c-2,0.4-3.7,1-5.1,1.8
	c-0.5,0.3-1,0.6-1.4,1.1C5.1,34.4,5,35,5,35.6V36.9z M17.4,22.4c1.2,0,2.2-0.4,3-1.2c0.8-0.8,1.2-1.8,1.2-3s-0.4-2.2-1.2-3
	c-0.8-0.8-1.8-1.2-3-1.2s-2.2,0.4-3,1.2s-1.2,1.8-1.2,3s0.4,2.2,1.2,3C15.2,22,16.2,22.4,17.4,22.4z"/>
</svg>
