<?xml version="1.0" encoding="utf-8"?>
<!-- Generator: Adobe Illustrator 26.3.1, SVG Export Plug-In . SVG Version: 6.00 Build 0)  -->
<svg version="1.1" id="Слой_1" xmlns="http://www.w3.org/2000/svg" xmlns:xlink="http://www.w3.org/1999/xlink" x="0px" y="0px"
	 viewBox="0 0 48 48" style="enable-background:new 0 0 48 48;" xml:space="preserve">
<path d="M19.2,19.4l3.8-6.2L20.5,9c-0.3-0.6-0.8-0.8-1.5-0.8c-0.6,0-1.1,0.3-1.5,0.8l-4,7L19.2,19.4z M35.6,30.9l-3.8-6.2l5.9-3.4
	l2.7,4.5c0.3,0.5,0.5,1,0.5,1.6s-0.1,1.1-0.4,1.6c-0.3,0.6-0.7,1-1.3,1.4c-0.6,0.3-1.2,0.5-1.8,0.5C37.5,30.9,35.6,30.9,35.6,30.9z
	 M30.8,42.8L24,36l6.8-6.8v3.4h8l-2.5,4.9c-0.3,0.6-0.7,1-1.3,1.4c-0.5,0.3-1.1,0.5-1.8,0.5h-2.5C30.8,39.4,30.8,42.8,30.8,42.8z
	 M14.4,39.4c-0.6,0-1.1-0.1-1.5-0.4c-0.5-0.3-0.8-0.7-1-1.2s-0.3-0.9-0.3-1.4s0.1-1,0.4-1.4l1.4-2.4h7.3v6.8
	C20.6,39.4,14.4,39.4,14.4,39.4z M10.2,34.6l-2.7-5.5c-0.3-0.5-0.4-1.1-0.4-1.7s0.2-1.1,0.5-1.6l0.7-1.1L5.4,23l9.3-2.3L17,30
	l-2.9-1.8L10.2,34.6z M33,20.1l-9.3-2.3l2.9-1.7l-5.3-8.8h6c0.6,0,1.1,0.1,1.7,0.4c0.6,0.3,1,0.7,1.3,1.2l2.2,3.7l2.9-1.8
	C35.4,10.8,33,20.1,33,20.1z"/>
</svg>
