<?xml version="1.0" encoding="utf-8"?>
<!-- Generator: Adobe Illustrator 26.3.1, SVG Export Plug-In . SVG Version: 6.00 Build 0)  -->
<svg version="1.1" id="Слой_1" xmlns="http://www.w3.org/2000/svg" xmlns:xlink="http://www.w3.org/1999/xlink" x="0px" y="0px"
	 viewBox="0 0 48 48" style="enable-background:new 0 0 48 48;" xml:space="preserve">
<path d="M7.5,33.2v4c0,0.3,0.1,0.6,0.4,0.8c0.3,0.3,0.5,0.4,0.8,0.4h30.5c0.3,0,0.6-0.1,0.8-0.4c0.3-0.3,0.4-0.5,0.4-0.8v-4H7.5z
	 M8.8,14.1h7.5c-0.2-0.3-0.3-0.6-0.5-1c-0.1-0.4-0.2-0.8-0.2-1.1c0-1.1,0.4-2,1.1-2.7c0.7-0.7,1.7-1.1,2.7-1.1
	c0.7,0,1.3,0.2,1.9,0.5C22,9,22.4,9.4,22.8,9.9l1.1,1.7L25,9.9c0.4-0.6,0.9-1,1.4-1.3c0.6-0.3,1.2-0.5,1.9-0.5c1.1,0,2,0.4,2.7,1.1
	c0.7,0.7,1.1,1.7,1.1,2.8c0,0.3-0.1,0.7-0.2,1c-0.1,0.4-0.3,0.7-0.5,1.1h7.7c0.8,0,1.4,0.3,2,0.8c0.5,0.5,0.8,1.2,0.8,2v20.4
	c0,0.8-0.3,1.4-0.8,2c-0.5,0.5-1.2,0.8-2,0.8H8.8c-0.8,0-1.4-0.3-2-0.8C6.3,38.7,6,38,6,37.2V16.8c0-0.8,0.3-1.4,0.8-2
	C7.3,14.3,8,14.1,8.8,14.1z M7.5,29.2h32.9V16.8c0-0.3-0.1-0.6-0.4-0.8c-0.3-0.3-0.5-0.4-0.8-0.4H26.6l4.3,6l-1.2,0.9L24,14.6
	l-5.7,7.9L17,21.6l4.3-6H8.8c-0.3,0-0.6,0.1-0.8,0.4c-0.3,0.3-0.4,0.5-0.4,0.8C7.5,16.8,7.5,29.2,7.5,29.2z M19.5,14.2
	c0.6,0,1.2-0.2,1.6-0.7c0.5-0.4,0.7-1,0.7-1.6s-0.2-1.2-0.7-1.6c-0.4-0.5-1-0.7-1.6-0.7s-1.2,0.2-1.6,0.7c-0.5,0.4-0.7,1-0.7,1.6
	s0.2,1.2,0.7,1.6C18.3,14,18.8,14.2,19.5,14.2z M28.4,14.2c0.6,0,1.2-0.2,1.6-0.7s0.7-1,0.7-1.6s-0.2-1.2-0.7-1.6
	c-0.5-0.5-1-0.7-1.6-0.7s-1.1,0.2-1.6,0.7c-0.5,0.4-0.7,1-0.7,1.6s0.2,1.2,0.7,1.6C27.2,14,27.8,14.2,28.4,14.2z"/>
</svg>
