<?xml version="1.0" encoding="utf-8"?>
<!-- Generator: Adobe Illustrator 26.3.1, SVG Export Plug-In . SVG Version: 6.00 Build 0)  -->
<svg version="1.1" id="Слой_1" xmlns="http://www.w3.org/2000/svg" xmlns:xlink="http://www.w3.org/1999/xlink" x="0px" y="0px"
	 viewBox="0 0 48 48" style="enable-background:new 0 0 48 48;" xml:space="preserve">
<path d="M18.6,36c-2.6,0-4.8-0.9-6.7-2.8c-1.8-1.8-2.8-4.1-2.8-6.6c0-2.6,0.9-4.8,2.8-6.6c1.8-1.8,4.1-2.7,6.7-2.7H35l-6.2-6.2
	L30,10l8,8l-8,8l-1.1-1l6.2-6.2H18.6c-2.2,0-4.1,0.8-5.6,2.3s-2.3,3.4-2.3,5.5c0,2.2,0.8,4.1,2.3,5.6c1.5,1.5,3.4,2.3,5.6,2.3h15.1
	V36H18.6z"/>
</svg>
