<?xml version="1.0" encoding="utf-8"?>
<!-- Generator: Adobe Illustrator 26.3.1, SVG Export Plug-In . SVG Version: 6.00 Build 0)  -->
<svg version="1.1" id="Слой_1" xmlns="http://www.w3.org/2000/svg" xmlns:xlink="http://www.w3.org/1999/xlink" x="0px" y="0px"
	 viewBox="0 0 48 48" style="enable-background:new 0 0 48 48;" xml:space="preserve">
<path d="M7.2,43L7.2,43c0-0.6,0.2-1.1,0.5-1.5s0.7-0.7,1.2-0.9c0.8-0.4,1.6-0.6,2.5-0.8s1.7-0.3,2.6-0.3c0.9,0,1.8,0.1,2.6,0.3
	c0.8,0.2,1.7,0.4,2.4,0.8c0.5,0.2,0.9,0.5,1.2,0.9c0.3,0.4,0.5,0.9,0.5,1.5l0,0C20.8,43,7.2,43,7.2,43z M27.2,43L27.2,43
	c0-0.6,0.2-1.1,0.5-1.5s0.7-0.7,1.2-0.9c0.8-0.4,1.6-0.6,2.5-0.8c0.9-0.2,1.7-0.3,2.6-0.3c0.9,0,1.8,0.1,2.6,0.3s1.7,0.4,2.4,0.8
	c0.5,0.2,0.9,0.5,1.2,0.9s0.5,0.9,0.5,1.5l0,0C40.8,43,27.2,43,27.2,43z M14,35.1c-0.8,0-1.5-0.3-2-0.8c-0.5-0.6-0.8-1.2-0.8-2
	s0.3-1.5,0.8-2.1c0.6-0.6,1.2-0.9,2-0.9s1.5,0.3,2.1,0.9s0.8,1.3,0.8,2.1c0,0.8-0.3,1.5-0.9,2C15.5,34.8,14.8,35.1,14,35.1z
	 M34,35.1c-0.8,0-1.5-0.3-2-0.8c-0.5-0.6-0.8-1.2-0.8-2s0.3-1.5,0.8-2.1c0.6-0.6,1.2-0.9,2-0.9s1.5,0.3,2.1,0.9s0.8,1.3,0.9,2.1
	c0,0.8-0.3,1.5-0.9,2C35.5,34.8,34.8,35.1,34,35.1z M24,31l-5-5l1.1-1.1l3.1,3.2v-5.4h1.5v5.4l3.1-3.2L29,26L24,31z M5,18.6L5,18.6
	c0-0.6,0.2-1.1,0.5-1.5s0.7-0.7,1.2-1c0.8-0.3,1.6-0.6,2.4-0.8s1.7-0.3,2.6-0.3c0.8,0,1.6,0.1,2.4,0.2c0.8,0.2,1.5,0.4,2.2,0.6
	c-0.3,0.4-0.5,0.8-0.7,1.2s-0.2,0.9-0.2,1.5l0,0C15.5,18.6,5,18.6,5,18.6z M17.2,18.6L17.2,18.6c0-0.6,0.2-1.1,0.5-1.5
	s0.7-0.7,1.2-1c0.8-0.3,1.6-0.6,2.5-0.8S23.1,15,24,15s1.8,0.1,2.6,0.3c0.8,0.2,1.7,0.4,2.4,0.8c0.5,0.2,0.9,0.6,1.2,1
	c0.3,0.4,0.5,0.9,0.5,1.5l0,0H17.2z M32.5,18.6L32.5,18.6c0-0.6-0.1-1.1-0.2-1.5c-0.2-0.4-0.4-0.8-0.6-1.2c0.6-0.3,1.4-0.5,2.2-0.6
	c0.8-0.2,1.6-0.2,2.4-0.2c0.9,0,1.8,0.1,2.6,0.3s1.7,0.4,2.4,0.8c0.5,0.2,0.9,0.6,1.2,1s0.5,0.9,0.5,1.5l0,0H32.5V18.6z M11.8,10.8
	c-0.8,0-1.5-0.3-2-0.9C9.3,9.3,9,8.7,9,7.9s0.3-1.5,0.8-2C10.3,5.3,11,5,11.8,5s1.5,0.3,2.1,0.9c0.6,0.6,0.8,1.2,0.8,2
	s-0.3,1.5-0.9,2C13.3,10.5,12.6,10.8,11.8,10.8z M24,10.8c-0.8,0-1.5-0.3-2-0.9c-0.5-0.6-0.8-1.2-0.8-2s0.3-1.5,0.8-2S23.2,5,24,5
	s1.5,0.3,2.1,0.9s0.9,1.2,0.9,2s-0.3,1.5-0.9,2C25.5,10.5,24.8,10.8,24,10.8z M36.2,10.8c-0.8,0-1.5-0.3-2-0.9
	c-0.5-0.6-0.8-1.2-0.8-2s0.3-1.5,0.8-2c0.6-0.6,1.2-0.8,2-0.8s1.5,0.3,2.1,0.9s0.9,1.2,0.9,2c0,0.8-0.3,1.5-0.9,2
	C37.7,10.5,37,10.8,36.2,10.8z"/>
</svg>
