<?xml version="1.0" encoding="utf-8"?>
<!-- Generator: Adobe Illustrator 26.3.1, SVG Export Plug-In . SVG Version: 6.00 Build 0)  -->
<svg version="1.1" id="Слой_1" xmlns="http://www.w3.org/2000/svg" xmlns:xlink="http://www.w3.org/1999/xlink" x="0px" y="0px"
	 viewBox="0 0 48 48" style="enable-background:new 0 0 48 48;" xml:space="preserve">
<path d="M24.2,38c-3.9,0-7.2-1.4-9.9-4.1c-2.7-2.7-4.1-6-4.1-9.9s1.4-7.2,4.1-9.9s6-4.1,9.9-4.1c2.6,0,5,0.6,7.1,1.8s3.8,2.9,5.1,5
	V10h1.5v9.9H28v-1.5h7.4c-1.1-2.1-2.7-3.7-4.6-4.9s-4.1-1.8-6.6-1.8c-3.5,0-6.4,1.2-8.8,3.6s-3.6,5.4-3.6,8.8c0,3.5,1.2,6.4,3.6,8.8
	s5.4,3.6,8.9,3.6c2.7,0,5.1-0.8,7.2-2.3c2.2-1.5,3.7-3.5,4.6-6h1.6c-0.9,3-2.6,5.3-5,7.1C30.1,37.1,27.3,38,24.2,38z"/>
</svg>
