<?xml version="1.0" encoding="utf-8"?>
<!-- Generator: Adobe Illustrator 26.3.1, SVG Export Plug-In . SVG Version: 6.00 Build 0)  -->
<svg version="1.1" id="Слой_1" xmlns="http://www.w3.org/2000/svg" xmlns:xlink="http://www.w3.org/1999/xlink" x="0px" y="0px"
	 viewBox="0 0 48 48" style="enable-background:new 0 0 48 48;" xml:space="preserve">
<path d="M24,40c-0.3,0-0.6-0.1-1-0.2c-0.3-0.1-0.6-0.3-0.8-0.6L10.4,27.4c-0.1-0.1-0.1-0.1-0.2-0.2c-0.1-0.1-0.1-0.1-0.2-0.2h2.2
	l11.1,11.1c0.1,0.1,0.2,0.2,0.3,0.2c0.1,0,0.2,0.1,0.4,0.1c0.1,0,0.3,0,0.4-0.1c0.1,0,0.2-0.1,0.3-0.2l12.6-12.6
	c1.1-1,1.9-2.2,2.4-3.5s0.8-2.6,0.8-4c0-2.4-0.8-4.5-2.3-6.2s-3.3-2.6-5.5-2.6c-1.2,0-2.3,0.2-3.4,0.7s-2,1.2-2.8,2.1l-1.8,1.9
	c-0.1,0.1-0.2,0.2-0.3,0.2c-0.1,0.1-0.2,0.1-0.3,0.1c-0.1,0-0.3,0-0.4-0.1s-0.2-0.1-0.3-0.2L21.6,12c-0.8-0.9-1.8-1.6-2.9-2
	c-1.1-0.5-2.2-0.7-3.3-0.7c-2,0-3.7,0.7-5.2,2.2c-1.4,1.5-2.3,3.2-2.6,5.3H6.1c0.3-2.6,1.3-4.7,3-6.5c1.7-1.7,3.8-2.6,6.2-2.6
	c1.4,0,2.7,0.3,3.9,0.8c1.3,0.6,2.4,1.4,3.4,2.4l1.3,1.4l1.3-1.3c1-1.1,2.2-1.9,3.4-2.5c1.3-0.6,2.6-0.9,3.9-0.9c2.6,0,4.8,1,6.6,3
	s2.7,4.4,2.7,7.3c0,1.6-0.3,3.1-0.9,4.5c-0.6,1.5-1.5,2.8-2.7,3.9l-12.5,13c-0.3,0.3-0.5,0.4-0.8,0.6C24.6,40,24.3,40,24,40z
	 M23.8,22.8H6.1v-1.5h25.6c0.9,0,1.7-0.3,2.3-0.9s0.9-1.4,0.9-2.3s-0.3-1.7-0.9-2.3c-0.6-0.6-1.4-0.9-2.3-0.9c-0.5,0-1,0.1-1.4,0.3
	c-0.5,0.2-0.8,0.5-1.2,0.9l-1.6-0.4c0.5-0.7,1-1.3,1.8-1.7c0.7-0.4,1.5-0.6,2.4-0.6c1.3,0,2.5,0.5,3.4,1.4s1.4,2.1,1.4,3.4
	c0,1.3-0.5,2.5-1.4,3.4S33,23,31.7,23h-4.4c0.4,0.4,0.7,0.9,0.9,1.4c0.2,0.5,0.3,1.1,0.3,1.8c0,1.3-0.5,2.5-1.4,3.4S25,31,23.7,31
	c-0.9,0-1.6-0.2-2.4-0.6c-0.7-0.4-1.3-1-1.8-1.7l1.6-0.4c0.3,0.4,0.7,0.7,1.2,0.9c0.5,0.2,0.9,0.3,1.4,0.3c0.9,0,1.7-0.3,2.3-0.9
	c0.6-0.6,0.9-1.4,0.9-2.3S26.6,24.6,26,24C25.5,23.1,24.7,22.8,23.8,22.8z"/>
</svg>
