<?xml version="1.0" encoding="utf-8"?>
<!-- Generator: Adobe Illustrator 26.3.1, SVG Export Plug-In . SVG Version: 6.00 Build 0)  -->
<svg version="1.1" id="Слой_1" xmlns="http://www.w3.org/2000/svg" xmlns:xlink="http://www.w3.org/1999/xlink" x="0px" y="0px"
	 viewBox="0 0 48 48" style="enable-background:new 0 0 48 48;" xml:space="preserve">
<path d="M14.8,44c-0.7,0-1.4-0.3-1.9-0.8c-0.6-0.6-0.9-1.2-0.9-2V6.8c0-0.7,0.3-1.4,0.8-1.9C13.4,4.3,14,4,14.8,4h18.5
	c0.7,0,1.4,0.3,1.9,0.8C35.7,5.4,36,6,36,6.8v34.5c0,0.7-0.3,1.4-0.8,1.9c-0.6,0.5-1.2,0.8-2,0.8H14.8z M13.5,39.7v1.5
	c0,0.4,0.1,0.7,0.3,0.9s0.5,0.3,0.9,0.3h18.5c0.4,0,0.7-0.1,0.9-0.3s0.3-0.5,0.3-0.9v-1.5C34.5,39.7,13.5,39.7,13.5,39.7z M13.5,8.3
	h20.9V6.8c0-0.4-0.1-0.7-0.3-0.9c-0.2-0.2-0.5-0.3-0.9-0.3H14.8c-0.4,0-0.7,0.1-0.9,0.3c-0.2,0.2-0.3,0.5-0.3,0.9
	C13.5,6.8,13.5,8.3,13.5,8.3z M24,30.5c-1.9,0-3.7,0.3-5.5,0.8c-1.8,0.6-3.4,1.3-5,2.3v4.6h20.9v-4.6c-1.5-0.9-3.2-1.7-5-2.3
	C27.7,30.7,25.9,30.5,24,30.5z M24,28.9c1.9,0,3.7,0.3,5.5,0.8s3.4,1.2,5,2.1v-22h-21v21.9c1.6-0.9,3.2-1.6,5-2.1
	C20.3,29.2,22.1,28.9,24,28.9z M24,25.4c1.4,0,2.5-0.5,3.5-1.4s1.4-2.1,1.4-3.5S28.4,18,27.5,17s-2.1-1.5-3.5-1.5s-2.5,0.5-3.5,1.4
	c-1,1-1.4,2.1-1.4,3.5s0.5,2.5,1.4,3.5C21.5,24.9,22.6,25.4,24,25.4z M24,23.9c-0.9,0-1.7-0.3-2.4-1c-0.7-0.7-1-1.4-1-2.4
	c0-0.9,0.3-1.7,1-2.4c0.7-0.7,1.4-1,2.4-1s1.7,0.3,2.4,1c0.7,0.7,1,1.5,1,2.4s-0.3,1.7-1,2.4C25.8,23.5,25,23.9,24,23.9z M24,38.2
	h10.5h-21H24z"/>
</svg>
