<?xml version="1.0" encoding="utf-8"?>
<!-- Generator: Adobe Illustrator 26.3.1, SVG Export Plug-In . SVG Version: 6.00 Build 0)  -->
<svg version="1.1" id="Слой_1" xmlns="http://www.w3.org/2000/svg" xmlns:xlink="http://www.w3.org/1999/xlink" x="0px" y="0px"
	 viewBox="0 0 48 48" style="enable-background:new 0 0 48 48;" xml:space="preserve">
<path d="M43.2,42.1L29.7,28.5L24.2,34l-9.9-9.9l1.1-1.1l8.8,8.8l4.4-4.5L7.7,6.7l1.1-1.1L44.3,41L43.2,42.1z M14.1,34l-9.9-9.9
	L5.3,23l8.7,8.7l1.4-1.4l1.2,1.1C16.7,31.5,14.1,34,14.1,34z M33.3,24.9l-1.1-1.1L42.9,13l1.1,1.1L33.3,24.9z M28.2,20l-1.1-1.1
	l5.8-5.8l1.1,1.1L28.2,20z"/>
</svg>
