<?xml version="1.0" encoding="utf-8"?>
<!-- Generator: Adobe Illustrator 26.3.1, SVG Export Plug-In . SVG Version: 6.00 Build 0)  -->
<svg version="1.1" id="Слой_1" xmlns="http://www.w3.org/2000/svg" xmlns:xlink="http://www.w3.org/1999/xlink" x="0px" y="0px"
	 viewBox="0 0 48 48" style="enable-background:new 0 0 48 48;" xml:space="preserve">
<path d="M35.5,25.9V9H37v16.9H35.5z M11,39.5V9h1.5v30.5H11z M23.2,15.2V9h1.5v6.2H23.2z M23.2,27.3v-6.2h1.5v6.2
	C24.8,27.3,23.2,27.3,23.2,27.3z M23.2,39.5v-6.2h1.5v6.2H23.2z M31,41.9l4.2-4.2L31,33.4l1.1-1.1l4.2,4.2l4.2-4.2l1.1,1.1l-4.2,4.2
	l4.2,4.2L40.5,43l-4.1-4.2L32.1,43L31,41.9z"/>
</svg>
