<?xml version="1.0" encoding="utf-8"?>
<!-- Generator: Adobe Illustrator 26.3.1, SVG Export Plug-In . SVG Version: 6.00 Build 0)  -->
<svg version="1.1" id="Слой_1" xmlns="http://www.w3.org/2000/svg" xmlns:xlink="http://www.w3.org/1999/xlink" x="0px" y="0px"
	 viewBox="0 0 48 48" style="enable-background:new 0 0 48 48;" xml:space="preserve">
<path d="M8,26.5V25h25.6c1.4,0,2.5-0.5,3.5-1.4s1.4-2.1,1.4-3.5s-0.5-2.5-1.4-3.5c-0.9-0.9-2.1-1.4-3.5-1.4H8.9l4.6,4.5l-1.1,1.1
	L6,14.5L12.4,8l1.1,1.1l-4.6,4.6h24.6c1.8,0,3.3,0.6,4.6,1.9s1.9,2.8,1.9,4.5c0,1.8-0.6,3.3-1.9,4.5c-1.3,1.3-2.8,1.9-4.6,1.9
	C33.6,26.5,8,26.5,8,26.5z M8,42v-9.9h32V42H8z M9.5,40.5h8.7v-6.8H9.5V40.5z M19.8,40.5h8.4v-6.8h-8.4V40.5z M29.8,40.5h8.7v-6.8
	h-8.7C29.8,33.6,29.8,40.5,29.8,40.5z"/>
</svg>
