<?xml version="1.0" encoding="utf-8"?>
<!-- Generator: Adobe Illustrator 26.3.1, SVG Export Plug-In . SVG Version: 6.00 Build 0)  -->
<svg version="1.1" id="Слой_1" xmlns="http://www.w3.org/2000/svg" xmlns:xlink="http://www.w3.org/1999/xlink" x="0px" y="0px"
	 viewBox="0 0 48 48" style="enable-background:new 0 0 48 48;" xml:space="preserve">
<path d="M18.6,37.5h10.8l-3.5-4.6L23.2,36l-1.7-2.3C21.5,33.6,18.6,37.5,18.6,37.5z M16.8,42c-0.7,0-1.4-0.3-1.9-0.8
	c-0.6-0.6-0.9-1.2-0.9-2V24.8c0-0.7,0.3-1.4,0.8-1.9s1.2-0.8,1.9-0.8h14.5c0.7,0,1.4,0.3,1.9,0.8s0.8,1.2,0.8,1.9v14.5
	c0,0.7-0.3,1.4-0.8,1.9C32.6,41.7,32,42,31.2,42H16.8z M16.8,40.5h14.5c0.4,0,0.7-0.1,0.9-0.3s0.3-0.5,0.3-0.9V24.8
	c0-0.4-0.1-0.7-0.3-0.9c-0.2-0.2-0.5-0.3-0.9-0.3H16.8c-0.4,0-0.7,0.1-0.9,0.3c-0.2,0.2-0.3,0.5-0.3,0.9v14.5c0,0.4,0.1,0.7,0.3,0.9
	C16.1,40.3,16.4,40.5,16.8,40.5z M8.4,18c0.9-3.6,2.8-6.5,5.7-8.7S20.3,6,24,6c3.1,0,5.9,0.8,8.5,2.5c2.6,1.6,4.6,3.8,5.9,6.6V8.7
	H40V18h-9.3v-1.5h6.8c-1.2-2.7-3-4.9-5.4-6.5C29.7,8.3,27,7.5,24,7.5c-3.3,0-6.2,1-8.8,2.9S10.9,14.8,10,18H8.4z M15.5,40.5v-17
	V40.5z"/>
</svg>
