<?xml version="1.0" encoding="utf-8"?>
<!-- Generator: Adobe Illustrator 26.3.1, SVG Export Plug-In . SVG Version: 6.00 Build 0)  -->
<svg version="1.1" id="Слой_1" xmlns="http://www.w3.org/2000/svg" xmlns:xlink="http://www.w3.org/1999/xlink" x="0px" y="0px"
	 viewBox="0 0 48 48" style="enable-background:new 0 0 48 48;" xml:space="preserve">
<path d="M24,42c-2.2,0-4.3-0.4-6.2-1.2c-1.9-0.8-3.6-2-5.1-3.4c-1.5-1.5-2.6-3.2-3.4-5.1C8.4,30.3,8,28.2,8,26h1.5
	c0,4,1.4,7.4,4.2,10.2s6.2,4.2,10.2,4.2s7.4-1.4,10.2-4.2S38.3,30,38.3,26s-1.4-7.4-4.2-10.2s-6.2-4.2-10.2-4.2h-1.2l3.5,3.5
	l-1.1,1.1L20,10.7l5.5-5.4l1.1,1.1L22.9,10H24c2.2,0,4.3,0.4,6.2,1.2s3.6,2,5.1,3.4c1.5,1.5,2.6,3.2,3.4,5.1c0.8,1.9,1.2,4,1.2,6.2
	s-0.4,4.3-1.2,6.2s-2,3.6-3.4,5.1c-1.5,1.5-3.2,2.6-5.1,3.4C28.3,41.6,26.2,42,24,42z"/>
</svg>
