<?xml version="1.0" encoding="utf-8"?>
<!-- Generator: Adobe Illustrator 26.3.1, SVG Export Plug-In . SVG Version: 6.00 Build 0)  -->
<svg version="1.1" id="Слой_1" xmlns="http://www.w3.org/2000/svg" xmlns:xlink="http://www.w3.org/1999/xlink" x="0px" y="0px"
	 viewBox="0 0 48 48" style="enable-background:new 0 0 48 48;" xml:space="preserve">
<path d="M24,42c-2.2,0-4.3-0.4-6.2-1.2c-1.9-0.8-3.6-2-5.1-3.4c-1.5-1.5-2.6-3.2-3.4-5.1C8.4,30.3,8,28.2,8,26h1.5
	c0,4,1.4,7.4,4.2,10.2s6.2,4.2,10.2,4.2s7.4-1.4,10.3-4.2C37,33.4,38.4,30,38.4,26s-1.4-7.4-4.2-10.3c-2.8-2.8-6.2-4.2-10.2-4.2h-1
	l3.5,3.5l-1.1,1.1L20,10.7l5.5-5.4l1.1,1.1L22.9,10H24c2.2,0,4.3,0.4,6.2,1.2s3.6,2,5.1,3.4c1.5,1.5,2.6,3.2,3.4,5.1
	c0.8,1.9,1.2,4,1.2,6.2s-0.4,4.3-1.2,6.2s-2,3.6-3.4,5.1c-1.5,1.5-3.2,2.6-5.1,3.4C28.3,41.6,26.2,42,24,42z M14.6,31.6v-1.5h6.3
	v-3.2h-4.7v-1.8h4.7v-3.2h-6.3v-1.5h6.3c0.5,0,0.8,0.1,1.1,0.4c0.3,0.3,0.4,0.6,0.4,1v8.3c0,0.4-0.1,0.8-0.4,1
	c-0.3,0.3-0.6,0.4-1.1,0.4C20.9,31.6,14.6,31.6,14.6,31.6z M27.7,31.6c-0.6,0-1.1-0.2-1.5-0.6s-0.6-0.9-0.6-1.5v-7.1
	c0-0.6,0.2-1.1,0.6-1.5s0.9-0.6,1.5-0.6h3.6c0.6,0,1.1,0.2,1.5,0.6s0.6,0.9,0.6,1.5v7.1c0,0.6-0.2,1.1-0.6,1.5
	c-0.4,0.4-0.9,0.6-1.5,0.6H27.7z M27.6,30.1h3.8c0.2,0,0.3,0,0.3-0.1c0.1-0.1,0.1-0.2,0.1-0.3v-7.2c0-0.2,0-0.3-0.1-0.3
	c-0.1-0.1-0.2-0.1-0.3-0.1h-3.8c-0.2,0-0.3,0-0.3,0.1c-0.1,0.1-0.1,0.2-0.1,0.3v7.2c0,0.2,0,0.3,0.1,0.3
	C27.3,30,27.5,30.1,27.6,30.1z"/>
</svg>
