<?xml version="1.0" encoding="utf-8"?>
<!-- Generator: Adobe Illustrator 26.3.1, SVG Export Plug-In . SVG Version: 6.00 Build 0)  -->
<svg version="1.1" id="Слой_1" xmlns="http://www.w3.org/2000/svg" xmlns:xlink="http://www.w3.org/1999/xlink" x="0px" y="0px"
	 viewBox="0 0 48 48" style="enable-background:new 0 0 48 48;" xml:space="preserve">
<path d="M15.5,40.5H30c0.4,0,0.7-0.1,0.9-0.3c0.2-0.2,0.3-0.5,0.3-0.9V24.8c0-0.4-0.1-0.7-0.3-0.9c-0.2-0.2-0.5-0.3-0.9-0.3H15.5
	c-0.4,0-0.7,0.1-0.9,0.3c-0.2,0.2-0.3,0.5-0.3,0.9v14.5c0,0.4,0.1,0.7,0.3,0.9C14.9,40.3,15.2,40.5,15.5,40.5z M8.4,18
	c0.9-3.6,2.8-6.5,5.7-8.7S20.3,6,24,6c3.1,0,5.9,0.8,8.5,2.5c2.6,1.6,4.6,3.8,5.9,6.6V8.7H40V18h-9.3v-1.5h6.8
	c-1.2-2.7-3-4.9-5.4-6.5C29.7,8.3,27,7.5,24,7.5c-3.3,0-6.2,1-8.8,2.9S10.9,14.8,10,18H8.4z M14.3,40.5v-17V40.5z M15.5,42
	c-0.7,0-1.4-0.3-1.9-0.8s-0.8-1.2-0.8-1.9V24.8c0-0.7,0.3-1.4,0.8-1.9s1.2-0.8,1.9-0.8H30c0.7,0,1.4,0.3,1.9,0.8
	c0.5,0.5,0.8,1.2,0.8,1.9V31l5.2-5.2v12.5L32.8,33v6.2c0,0.7-0.3,1.4-0.8,1.9S30.7,42,30,42H15.5z"/>
</svg>
