<?xml version="1.0" encoding="utf-8"?>
<!-- Generator: Adobe Illustrator 26.3.1, SVG Export Plug-In . SVG Version: 6.00 Build 0)  -->
<svg version="1.1" id="Слой_1" xmlns="http://www.w3.org/2000/svg" xmlns:xlink="http://www.w3.org/1999/xlink" x="0px" y="0px"
	 viewBox="0 0 48 48" style="enable-background:new 0 0 48 48;" xml:space="preserve">
<path d="M37.7,33.1l-1.2-1.2l1.9-1.9V18L30,9.5H18l-1.9,1.9L15,10.3L17.3,8h13.3l9.3,9.3v13.4C40,30.7,37.7,33.1,37.7,33.1z
	 M24.8,20.1v-5.5h-1.5v4C23.2,18.6,24.8,20.1,24.8,20.1z M41.2,43.7l-7-7.1L30.7,40H17.3L8,30.7V17.3l3.5-3.4L4.3,6.8l1.1-1.1
	l36.8,36.8L41.2,43.7z M18,38.5h12l3-3L12.5,15l-3,3v12L18,38.5z M24,32.8c-0.3,0-0.6-0.1-0.8-0.3c-0.2-0.2-0.3-0.5-0.3-0.8
	s0.1-0.6,0.3-0.8c0.2-0.2,0.5-0.3,0.8-0.3s0.6,0.1,0.8,0.3c0.2,0.2,0.3,0.5,0.3,0.8s-0.1,0.6-0.3,0.8S24.3,32.8,24,32.8z"/>
</svg>
