<?xml version="1.0" encoding="utf-8"?>
<!-- Generator: Adobe Illustrator 26.3.1, SVG Export Plug-In . SVG Version: 6.00 Build 0)  -->
<svg version="1.1" id="Слой_1" xmlns="http://www.w3.org/2000/svg" xmlns:xlink="http://www.w3.org/1999/xlink" x="0px" y="0px"
	 viewBox="0 0 48 48" style="enable-background:new 0 0 48 48;" xml:space="preserve">
<path d="M24,32.8c0.3,0,0.6-0.1,0.8-0.3c0.2-0.2,0.3-0.5,0.3-0.8s-0.1-0.6-0.3-0.8c-0.2-0.2-0.5-0.3-0.8-0.3s-0.6,0.1-0.8,0.3
	c-0.2,0.2-0.3,0.5-0.3,0.8s0.1,0.6,0.3,0.8S23.7,32.8,24,32.8z M23.2,27.2h1.5V14.6h-1.5V27.2z M17.3,40L8,30.7V17.3L17.3,8h13.3
	l9.3,9.3v13.3L30.7,40H17.3z M18,38.5h12l8.4-8.4V18L30,9.5H18L9.5,18v12L18,38.5z"/>
</svg>
