<?xml version="1.0" encoding="utf-8"?>
<!-- Generator: Adobe Illustrator 26.3.1, SVG Export Plug-In . SVG Version: 6.00 Build 0)  -->
<svg version="1.1" id="Слой_1" xmlns="http://www.w3.org/2000/svg" xmlns:xlink="http://www.w3.org/1999/xlink" x="0px" y="0px"
	 viewBox="0 0 48 48" style="enable-background:new 0 0 48 48;" xml:space="preserve">
<path d="M23.9,36.5h1.5v-2h3.5c0.2,0,0.4-0.1,0.5-0.2c0.1-0.1,0.2-0.3,0.2-0.5v-6.2c0-0.2-0.1-0.4-0.2-0.5s-0.3-0.2-0.5-0.2h-7.7V22
	h8.5v-1.5h-4.2v-2H24v2h-3.5c-0.2,0-0.4,0.1-0.5,0.2s-0.2,0.3-0.2,0.5v6.2c0,0.2,0.1,0.4,0.2,0.5s0.3,0.2,0.5,0.2h7.7V33h-8.5v1.5
	h4.2C23.9,34.5,23.9,36.5,23.9,36.5z M12.8,42c-0.8,0-1.4-0.3-2-0.8c-0.5-0.5-0.8-1.2-0.8-2V8.8c0-0.8,0.3-1.4,0.8-2
	C11.3,6.3,12,6,12.8,6h16.7l8.5,8.5v24.7c0,0.8-0.3,1.4-0.8,2c-0.5,0.5-1.2,0.8-2,0.8H12.8z M28.2,15.1V7.5H12.8
	c-0.3,0-0.6,0.1-0.8,0.4c-0.3,0.3-0.4,0.5-0.4,0.8v30.5c0,0.3,0.1,0.6,0.4,0.8s0.5,0.4,0.8,0.4h22.5c0.3,0,0.6-0.1,0.8-0.4
	c0.3-0.3,0.4-0.5,0.4-0.8V15.1H28.2z M11.5,7.5V15V7.5v32.9V7.5z"/>
</svg>
