<?xml version="1.0" encoding="utf-8"?>
<!-- Generator: Adobe Illustrator 26.3.1, SVG Export Plug-In . SVG Version: 6.00 Build 0)  -->
<svg version="1.1" id="Слой_1" xmlns="http://www.w3.org/2000/svg" xmlns:xlink="http://www.w3.org/1999/xlink" x="0px" y="0px"
	 viewBox="0 0 48 48" style="enable-background:new 0 0 48 48;" xml:space="preserve">
<path d="M18.2,40v-4H8.8c-0.7,0-1.4-0.3-1.9-0.8C6.3,34.6,6,34,6,33.2V10.8c0-0.8,0.3-1.4,0.8-2C7.4,8.3,8,8,8.8,8h30.5
	c0.7,0,1.4,0.3,1.9,0.8c0.5,0.6,0.8,1.2,0.8,2v6.8h-1.5v-6.8c0-0.4-0.1-0.7-0.3-0.9s-0.5-0.3-0.9-0.3H8.8c-0.4,0-0.7,0.1-0.9,0.3
	c-0.2,0.2-0.3,0.5-0.3,0.9v22.5c0,0.4,0.1,0.7,0.3,0.9s0.5,0.3,0.9,0.3h30.5c0.4,0,0.7-0.1,0.9-0.3s0.3-0.5,0.3-0.9V24
	c0-0.3-0.1-0.6-0.3-0.9c-0.2-0.2-0.5-0.4-0.9-0.4H22.7l5,5.1l-1.1,1.1L19.7,22l6.9-6.9l1.1,1.1l-5,5.1h16.6c0.8,0,1.4,0.3,2,0.8
	c0.5,0.5,0.8,1.2,0.8,2v9.3c0,0.7-0.3,1.4-0.8,1.9C40.6,35.7,40,36,39.2,36h-9.5v4H18.2z"/>
</svg>
