<?xml version="1.0" encoding="utf-8"?>
<!-- Generator: Adobe Illustrator 26.3.1, SVG Export Plug-In . SVG Version: 6.00 Build 0)  -->
<svg version="1.1" id="Слой_1" xmlns="http://www.w3.org/2000/svg" xmlns:xlink="http://www.w3.org/1999/xlink" x="0px" y="0px"
	 viewBox="0 0 48 48" style="enable-background:new 0 0 48 48;" xml:space="preserve">
<path d="M23.9,28.2v-2.1c0-0.6,0.2-1.1,0.6-1.5S25.4,24,26,24h2.1C28.1,24.1,23.9,28.2,23.9,28.2z M23.9,35.8v-2.5l9.3-9.3h2.5
	L23.9,35.8z M24.1,40.7l16.6-16.6c0.3,0.1,0.6,0.2,0.8,0.4c0.2,0.2,0.4,0.5,0.4,0.8L25.4,42c-0.3,0-0.6-0.2-0.9-0.4
	C24.3,41.3,24.2,41,24.1,40.7z M30.5,42L42,30.5V33l-9,9H30.5z M38.2,42l3.8-3.8v1.7c0,0.6-0.2,1.1-0.6,1.5C41,41.8,40.5,42,39.9,42
	H38.2z M39.3,19.7h-1.6c-0.9-2.9-2.7-5.4-5.2-7.3s-5.4-2.9-8.6-2.9c-4,0-7.4,1.4-10.2,4.2C10.9,16.6,9.5,20,9.5,24
	c0,3,0.8,5.6,2.3,8c1.6,2.3,3.6,4.1,6.1,5.2v-6.7h1.5V40H10v-1.5h7.2c-2.7-1.3-4.9-3.3-6.7-5.8C8.9,30.1,8,27.2,8,24
	c0-2.2,0.4-4.3,1.3-6.2s2-3.6,3.4-5.1s3.1-2.6,5.1-3.4C19.7,8.4,21.8,8,24,8c3.7,0,6.9,1.1,9.7,3.3S38.4,16.3,39.3,19.7z"/>
</svg>
