<?xml version="1.0" encoding="utf-8"?>
<!-- Generator: Adobe Illustrator 26.3.1, SVG Export Plug-In . SVG Version: 6.00 Build 0)  -->
<svg version="1.1" id="Слой_1" xmlns="http://www.w3.org/2000/svg" xmlns:xlink="http://www.w3.org/1999/xlink" x="0px" y="0px"
	 viewBox="0 0 48 48" style="enable-background:new 0 0 48 48;" xml:space="preserve">
<path d="M33,42c-2.5,0-4.6-0.9-6.4-2.6C24.9,37.6,24,35.5,24,33s0.9-4.6,2.6-6.4c1.8-1.8,3.9-2.6,6.4-2.6s4.6,0.9,6.4,2.6
	c1.8,1.8,2.6,3.9,2.6,6.4s-0.9,4.6-2.6,6.4C37.6,41.1,35.5,42,33,42z M33,40.4c-0.8-1-1.4-2.2-1.9-3.4s-0.7-2.6-0.7-4
	c0-1.4,0.2-2.7,0.7-4c0.4-1.3,1.1-2.4,1.9-3.5c-2.1,0-3.8,0.7-5.3,2.2c-1.4,1.5-2.2,3.2-2.2,5.3s0.7,3.8,2.2,5.3
	C29.1,39.7,30.9,40.4,33,40.4z M39.3,19.7h-1.6c-0.9-2.9-2.7-5.4-5.2-7.3s-5.4-2.9-8.6-2.9c-4,0-7.4,1.4-10.2,4.2
	C10.9,16.6,9.5,20,9.5,24c0,3,0.8,5.6,2.3,8c1.6,2.3,3.6,4.1,6.1,5.2v-6.7h1.5V40H10v-1.5h7.2c-2.7-1.3-4.9-3.3-6.7-5.8
	C8.9,30.1,8,27.2,8,24c0-2.2,0.4-4.3,1.3-6.2c0.8-1.9,2-3.6,3.4-5.1s3.1-2.6,5.1-3.4C19.7,8.4,21.8,8,24,8c3.7,0,6.9,1.1,9.7,3.3
	S38.4,16.3,39.3,19.7z"/>
</svg>
