<?xml version="1.0" encoding="utf-8"?>
<!-- Generator: Adobe Illustrator 26.3.1, SVG Export Plug-In . SVG Version: 6.00 Build 0)  -->
<svg version="1.1" id="Слой_1" xmlns="http://www.w3.org/2000/svg" xmlns:xlink="http://www.w3.org/1999/xlink" x="0px" y="0px"
	 viewBox="0 0 48 48" style="enable-background:new 0 0 48 48;" xml:space="preserve">
<path d="M30.6,35.4l2.8-2.8V30v2.6L30.6,35.4z M37.8,35.4L35,32.6V30v2.6L37.8,35.4z M6,18.9v-6.2c0-0.8,0.3-1.4,0.8-2
	C7.3,10.3,8,10,8.8,10h30.5c0.8,0,1.4,0.3,2,0.8c0.5,0.5,0.8,1.2,0.8,2v11.9h-1.5V12.8c0-0.3-0.1-0.6-0.4-0.8
	c-0.3-0.3-0.5-0.4-0.8-0.4H8.8c-0.3,0-0.6,0.1-0.8,0.4c-0.3,0.3-0.4,0.5-0.4,0.8V19H6V18.9z M8.8,38c-0.8,0-1.4-0.3-2-0.8
	C6.3,36.7,6,36,6,35.2V29h1.5v6.2c0,0.3,0.1,0.6,0.4,0.8c0.3,0.3,0.5,0.4,0.8,0.4h11.9V38H8.8z M14,32.8c-0.2,0-0.3,0-0.4-0.1
	c-0.1-0.1-0.2-0.2-0.3-0.3l-3.7-7.6H6v-1.5h4c0.1,0,0.3,0,0.4,0.1c0.1,0.1,0.2,0.2,0.3,0.3l3.4,6.6l7.3-14.6
	c0.1-0.1,0.1-0.2,0.3-0.2c0.1-0.1,0.3-0.1,0.4-0.1s0.3,0,0.4,0.1s0.2,0.1,0.3,0.2l4.6,9.3c-0.3,0-0.5,0.1-0.8,0.2
	c-0.2,0.1-0.5,0.2-0.7,0.4L22,17.7l-7.3,14.6c-0.1,0.1-0.2,0.2-0.3,0.3C14.3,32.7,14.1,32.8,14,32.8z M26.1,44
	c-0.4,0-0.8-0.2-1.1-0.5c-0.3-0.3-0.5-0.7-0.5-1.1v-6.2l2.5-6.5c0.1-0.4,0.3-0.7,0.7-0.9c0.3-0.2,0.7-0.3,1-0.3h4.8v-5H35v5h4.7
	c0.4,0,0.7,0.1,1,0.3c0.3,0.2,0.5,0.5,0.7,0.9l2.6,6.5v6.2c0,0.4-0.2,0.8-0.5,1.1S42.8,44,42.4,44h-4.5c-0.4,0-0.8-0.2-1.1-0.5
	s-0.5-0.7-0.5-1.1v-2.7h1.5v2.8h4.6v-6L40,30h-5v2.6l2.8,2.8l-1.1,1.1L34.2,34l-2.5,2.5l-1.1-1.1l2.8-2.8V30h-5L26,36.4v6h4.6v-2.8
	h1.5v2.5c0,0.5-0.2,0.9-0.5,1.3c-0.4,0.3-0.8,0.5-1.2,0.5L26.1,44L26.1,44z"/>
</svg>
