<?xml version="1.0" encoding="utf-8"?>
<!-- Generator: Adobe Illustrator 26.3.1, SVG Export Plug-In . SVG Version: 6.00 Build 0)  -->
<svg version="1.1" id="Слой_1" xmlns="http://www.w3.org/2000/svg" xmlns:xlink="http://www.w3.org/1999/xlink" x="0px" y="0px"
	 viewBox="0 0 48 48" style="enable-background:new 0 0 48 48;" xml:space="preserve">
<path d="M22.2,39.8c-3.5-0.4-6.4-1.9-8.7-4.6C11.2,32.7,10,29.6,10,26c0-2,0.4-4,1.3-5.8c0.9-1.8,2.1-3.4,3.6-4.7l1.1,1.1
	c-1.5,1.1-2.6,2.5-3.3,4.1c-0.8,1.6-1.2,3.4-1.2,5.2c0,3.1,1,5.8,3.1,8.1s4.6,3.7,7.7,4.1C22.2,38.3,22.2,39.8,22.2,39.8z
	 M25.8,39.9v-1.5c3.1-0.6,5.6-2,7.7-4.3c2-2.3,3-5,3-8.1c0-3.5-1.2-6.4-3.6-8.8s-5.4-3.6-8.8-3.6h-1.7l3.6,3.6l-1.1,1.1l-5.5-5.5
	l5.5-5.5L26,8.4L22.4,12H24c3.9,0,7.2,1.4,9.9,4.1s4.1,6,4.1,9.9c0,3.6-1.2,6.6-3.5,9.2C32.2,37.9,29.3,39.4,25.8,39.9z"/>
</svg>
