<?xml version="1.0" encoding="utf-8"?>
<!-- Generator: Adobe Illustrator 26.3.1, SVG Export Plug-In . SVG Version: 6.00 Build 0)  -->
<svg version="1.1" id="Слой_1" xmlns="http://www.w3.org/2000/svg" xmlns:xlink="http://www.w3.org/1999/xlink" x="0px" y="0px"
	 viewBox="0 0 48 48" style="enable-background:new 0 0 48 48;" xml:space="preserve">
<path d="M44.8,33l-7.9-2.7l0.4-1.4l7.9,2.6L44.8,33z M45,24.8h-7.7v-1.5H45V24.8z M45.2,16.4L37.3,19l-0.5-1.5l7.9-2.6
	C44.7,15,45.2,16.4,45.2,16.4z M14.3,26.6c-1.2,0-2.2-0.4-3-1.2c-0.8-0.8-1.2-1.8-1.2-3c0-0.6,0.1-1.1,0.3-1.6s0.5-1,0.9-1.3
	l4.7-4.8v-9h1.5v8.6c0,0.3-0.1,0.6-0.2,0.9c-0.1,0.3-0.3,0.6-0.5,0.8l-4.5,4.5c-0.2,0.2-0.4,0.5-0.6,0.9c-0.1,0.3-0.2,0.7-0.2,1.1
	c0,0.7,0.3,1.4,0.8,1.9s1.2,0.8,1.9,0.8c0.5,0,0.9-0.1,1.2-0.2c0.3-0.2,0.6-0.4,1-0.8c0.6-0.5,1.3-0.9,1.9-1.2
	c0.7-0.3,1.4-0.5,2.1-0.5s1.3,0.1,2,0.4s1.4,0.7,2.1,1.3c0.4,0.4,0.8,0.6,1.1,0.8c0.3,0.2,0.7,0.2,1.1,0.2c0.7,0,1.4-0.3,1.9-0.8
	s0.8-1.2,0.8-1.9c0-0.4-0.1-0.7-0.2-1.1c-0.1-0.3-0.3-0.6-0.5-0.9L24.2,16c-0.2-0.2-0.4-0.5-0.5-0.8s-0.2-0.6-0.2-0.9V5.5H25v9
	l4.8,4.8c0.4,0.4,0.7,0.8,0.9,1.4c0.2,0.5,0.3,1.1,0.3,1.7c0,1.2-0.4,2.2-1.2,3c-0.8,0.8-1.8,1.2-3,1.2c-0.8,0-1.4-0.1-1.8-0.4
	c-0.5-0.3-0.9-0.6-1.3-1c-0.6-0.5-1.2-0.8-1.7-1s-1-0.3-1.4-0.3c-0.5,0-0.9,0.1-1.4,0.3c-0.5,0.2-1.1,0.5-1.6,1
	c-0.4,0.4-0.9,0.7-1.3,1C15.6,26.4,15,26.6,14.3,26.6z M23.5,42.5V34c0-0.4,0.1-0.7,0.2-1s0.3-0.6,0.5-0.8l4.5-4.5
	c0.2-0.2,0.4-0.5,0.5-0.8s0.2-0.7,0.2-1s0-0.5-0.1-0.8s-0.2-0.5-0.3-0.7l1.1-1.1c0.3,0.4,0.5,0.8,0.6,1.2c0.1,0.4,0.2,0.9,0.2,1.4
	c0,0.6-0.1,1.1-0.3,1.6c-0.2,0.5-0.5,0.9-0.9,1.3L25,33.5v9H23.5z M16,42.5v-9l-4.7-4.8c-0.4-0.4-0.7-0.8-0.9-1.3s-0.3-1-0.3-1.6
	c0-0.5,0.1-0.9,0.2-1.4c0.2-0.4,0.4-0.8,0.6-1.2l1.1,1.1c-0.1,0.2-0.3,0.5-0.4,0.7c-0.1,0.2-0.1,0.5-0.1,0.8c0,0.4,0.1,0.7,0.2,1
	c0.1,0.3,0.3,0.6,0.6,0.9l4.5,4.5c0.2,0.2,0.4,0.5,0.5,0.8s0.2,0.6,0.2,1v8.5C17.5,42.5,16,42.5,16,42.5z"/>
</svg>
