<?xml version="1.0" encoding="utf-8"?>
<!-- Generator: Adobe Illustrator 26.3.1, SVG Export Plug-In . SVG Version: 6.00 Build 0)  -->
<svg version="1.1" id="Слой_1" xmlns="http://www.w3.org/2000/svg" xmlns:xlink="http://www.w3.org/1999/xlink" x="0px" y="0px"
	 viewBox="0 0 48 48" style="enable-background:new 0 0 48 48;" xml:space="preserve">
<path d="M10.8,40c-0.7,0-1.4-0.3-1.9-0.8S8,38,8,37.2V18c0-2.8,1-5.1,2.9-7.1C12.9,9,15.2,8,18,8h12c2.8,0,5.1,1,7.1,2.9
	c1.9,2,2.9,4.3,2.9,7.1v19.2c0,0.7-0.3,1.4-0.8,1.9c-0.6,0.6-1.2,0.9-2,0.9H10.8z M10.8,38.5h26.5c0.4,0,0.7-0.1,0.9-0.3
	s0.3-0.5,0.3-0.9V18c0-2.4-0.8-4.4-2.5-6c-1.6-1.6-3.6-2.5-6-2.5H18c-2.4,0-4.4,0.8-6,2.5c-1.6,1.6-2.5,3.6-2.5,6v19.2
	c0,0.4,0.1,0.7,0.3,0.9C10.1,38.3,10.4,38.5,10.8,38.5z M18,22.8c-0.8,0-1.4-0.3-2-0.8c-0.5-0.5-0.8-1.2-0.8-2s0.3-1.4,0.8-2
	c0.5-0.5,1.2-0.8,2-0.8s1.4,0.3,2,0.8c0.5,0.5,0.8,1.2,0.8,2s-0.3,1.4-0.8,2C19.4,22.5,18.8,22.8,18,22.8z M30,22.8
	c-0.8,0-1.4-0.3-2-0.8c-0.5-0.5-0.8-1.2-0.8-2s0.3-1.4,0.8-2c0.5-0.5,1.2-0.8,2-0.8s1.4,0.3,2,0.8c0.5,0.5,0.8,1.2,0.8,2
	s-0.3,1.4-0.8,2C31.4,22.5,30.8,22.8,30,22.8z M15.2,38.5V34c0-0.7,0.3-1.4,0.8-1.9s1.2-0.8,1.9-0.8h12c0.7,0,1.4,0.3,1.9,0.8
	s0.8,1.2,0.8,1.9v4.5h-1.5V34c0-0.4-0.1-0.7-0.3-0.9c-0.2-0.2-0.5-0.3-0.9-0.3h-5.2v5.7h-1.5v-5.7H18c-0.4,0-0.7,0.1-0.9,0.3
	c-0.2,0.2-0.3,0.5-0.3,0.9v4.5C16.8,38.5,15.2,38.5,15.2,38.5z M10.8,38.5h27.7h-29H10.8z"/>
</svg>
