<?xml version="1.0" encoding="utf-8"?>
<!-- Generator: Adobe Illustrator 26.3.1, SVG Export Plug-In . SVG Version: 6.00 Build 0)  -->
<svg version="1.1" id="Слой_1" xmlns="http://www.w3.org/2000/svg" xmlns:xlink="http://www.w3.org/1999/xlink" x="0px" y="0px"
	 viewBox="0 0 48 48" style="enable-background:new 0 0 48 48;" xml:space="preserve">
<path d="M9.5,22.6L15,25c0.7-1.4,1.4-2.7,2.2-4c0.8-1.3,1.7-2.6,2.7-3.8l-3.6-0.7c-0.2-0.1-0.4,0-0.6,0c-0.2,0.1-0.4,0.2-0.5,0.3
	L9.5,22.6z M16.2,25.9l6.1,6.1c1.8-0.9,3.5-1.8,5.1-3c1.6-1.1,3.1-2.3,4.4-3.6c2.3-2.3,4-4.7,5.2-7.1c1.1-2.4,1.8-5.5,2.1-9.2
	c-3.7,0.3-6.8,0.9-9.2,2.1c-2.4,1.1-4.8,2.8-7.1,5.1c-1.3,1.3-2.5,2.8-3.6,4.4C18.1,22.4,17.1,24.1,16.2,25.9z M27.8,20.4
	c-0.5-0.5-0.8-1.2-0.8-1.9c0-0.8,0.3-1.4,0.8-2c0.5-0.5,1.2-0.8,2-0.8s1.4,0.3,2,0.8c0.5,0.5,0.8,1.2,0.8,2s-0.3,1.4-0.8,1.9
	s-1.2,0.8-2,0.8C29,21.2,28.3,21,27.8,20.4z M25.6,38.8l5.8-5.7c0.2-0.2,0.3-0.3,0.3-0.5c0.1-0.2,0.1-0.4,0-0.6L31,28.3
	c-1.2,0.9-2.4,1.8-3.7,2.6c-1.3,0.8-2.6,1.6-4,2.3C23.2,33.2,25.6,38.8,25.6,38.8z M40.7,7.6c0.1,3.9-0.5,7.4-1.8,10.4
	c-1.3,3.1-3.2,5.9-5.8,8.5c-0.1,0.1-0.3,0.3-0.4,0.4c-0.1,0.1-0.3,0.3-0.4,0.4l0.9,4.4c0.1,0.5,0,0.9-0.1,1.4
	c-0.1,0.4-0.4,0.8-0.7,1.1L25,41.6l-3.3-7.9l-7.1-7.1l-7.8-3.4l7.3-7.3c0.3-0.3,0.7-0.5,1.2-0.7c0.4-0.1,0.9-0.2,1.4-0.1l4.4,0.9
	c0.1-0.1,0.3-0.2,0.4-0.4c0.1-0.1,0.2-0.3,0.4-0.4c2.6-2.6,5.4-4.5,8.5-5.8C33.3,8.1,36.8,7.5,40.7,7.6z M10.1,32.2
	c0.8-0.8,1.7-1.2,2.8-1.2s2.1,0.4,2.9,1.2C16.6,33,17,33.9,17,35s-0.4,2.1-1.2,2.9c-0.7,0.7-1.8,1.3-3.2,1.7c-1.4,0.5-3.2,0.8-5.3,1
	c0.2-2.1,0.5-3.8,1-5.3C8.8,34,9.4,32.9,10.1,32.2z M11.1,33.4c-0.4,0.5-0.8,1.2-1.2,2.1c-0.4,1-0.6,2.1-0.8,3.3
	c1.3-0.2,2.4-0.5,3.3-0.8c1-0.4,1.7-0.8,2.1-1.2c0.5-0.5,0.8-1,0.8-1.7s-0.2-1.3-0.7-1.8s-1.1-0.7-1.8-0.7
	C12.2,32.6,11.6,32.9,11.1,33.4z"/>
</svg>
