<?xml version="1.0" encoding="utf-8"?>
<!-- Generator: Adobe Illustrator 26.3.1, SVG Export Plug-In . SVG Version: 6.00 Build 0)  -->
<svg version="1.1" id="Слой_1" xmlns="http://www.w3.org/2000/svg" xmlns:xlink="http://www.w3.org/1999/xlink" x="0px" y="0px"
	 viewBox="0 0 48 48" style="enable-background:new 0 0 48 48;" xml:space="preserve">
<path d="M12.6,38.9l5.6-2.3c-0.5-1.4-0.9-2.9-1.2-4.4c-0.3-1.5-0.6-3-0.7-4.5l-3.1,2c-0.2,0.1-0.3,0.3-0.4,0.4
	c-0.1,0.2-0.1,0.4-0.1,0.6L12.6,38.9L12.6,38.9z M19.7,36.5h8.6c0.7-1.9,1.2-3.8,1.6-5.7c0.4-1.9,0.6-3.8,0.6-5.7
	c0-3.3-0.5-6.2-1.4-8.7s-2.6-5.2-5.1-8c-2.5,2.8-4.2,5.5-5.1,8c-0.9,2.5-1.4,5.4-1.4,8.7c0,1.9,0.2,3.7,0.6,5.7
	C18.5,32.7,19,34.6,19.7,36.5z M24,24.8c-0.8,0-1.4-0.3-2-0.8c-0.5-0.5-0.8-1.2-0.8-2s0.3-1.4,0.8-2c0.5-0.5,1.2-0.8,2-0.8
	s1.4,0.3,2,0.8s0.8,1.2,0.8,2s-0.3,1.4-0.8,2C25.4,24.5,24.8,24.8,24,24.8z M35.4,38.9v-8.1c0-0.2,0-0.4-0.1-0.6s-0.2-0.3-0.4-0.5
	l-3.1-2c-0.2,1.5-0.4,3.1-0.8,4.9c-0.4,1.8-0.8,3.1-1.1,4L35.4,38.9z M24,6.2c2.8,2.7,4.8,5.6,6.1,8.6c1.3,3,1.9,6.4,1.9,10.1
	c0,0.2,0,0.3,0,0.5s0,0.4,0,0.6l3.7,2.5c0.4,0.2,0.7,0.6,0.9,1s0.3,0.8,0.3,1.3v10.4L29,38H19l-8,3.2V30.8c0-0.4,0.1-0.9,0.3-1.3
	s0.5-0.7,0.9-1L16,26v-1.1c0-3.7,0.6-7,1.9-10.1C19.2,11.8,21.2,8.9,24,6.2z"/>
</svg>
