<?xml version="1.0" encoding="utf-8"?>
<!-- Generator: Adobe Illustrator 26.3.1, SVG Export Plug-In . SVG Version: 6.00 Build 0)  -->
<svg version="1.1" id="Слой_1" xmlns="http://www.w3.org/2000/svg" xmlns:xlink="http://www.w3.org/1999/xlink" x="0px" y="0px"
	 viewBox="0 0 48 48" style="enable-background:new 0 0 48 48;" xml:space="preserve">
<path d="M6,40v-1.5h4V8h28v30.5h4V40H26c0,0.6-0.2,1-0.6,1.4C25,41.8,24.5,42,24,42c-0.6,0-1-0.2-1.4-0.6C22.2,41,22,40.6,22,40H6z
	 M11.5,31.4h24.9V9.5H11.5V31.4z M11.5,38.5h11.7V33H11.5V38.5z M24.8,38.5h11.7V33H24.8V38.5z M11.5,9.5h24.9
	C36.5,9.5,11.5,9.5,11.5,9.5z"/>
</svg>
