<?xml version="1.0" encoding="utf-8"?>
<!-- Generator: Adobe Illustrator 26.3.1, SVG Export Plug-In . SVG Version: 6.00 Build 0)  -->
<svg version="1.1" id="Слой_1" xmlns="http://www.w3.org/2000/svg" xmlns:xlink="http://www.w3.org/1999/xlink" x="0px" y="0px"
	 viewBox="0 0 48 48" style="enable-background:new 0 0 48 48;" xml:space="preserve">
<path d="M9,30.8V3h16v8c0,1.2,0.3,2.2,0.9,3.2s1.5,1.6,2.7,1.9l5.5,1.5c1.4,0.4,2.6,1.1,3.5,2.3c0.9,1.2,1.4,2.6,1.4,4.1v6.8H9z
	 M10.5,29.2h26.9V24c0-1.2-0.4-2.2-1.1-3.1c-0.7-0.9-1.6-1.5-2.8-1.8L28,17.6c-1.1-0.3-2-0.8-2.6-1.5c-0.7-0.7-1.2-1.5-1.5-2.4h-5.1
	c-0.2,0-0.3-0.1-0.5-0.2c-0.1-0.1-0.2-0.3-0.2-0.4c0-0.2,0.1-0.3,0.2-0.5c0.1-0.1,0.3-0.2,0.5-0.2h4.6c-0.1-0.4-0.1-0.8-0.1-1.2V9.6
	h-4.5c-0.2,0-0.3-0.1-0.5-0.2c-0.1-0.1-0.2-0.3-0.2-0.4c0-0.2,0.1-0.3,0.2-0.5c0.1-0.1,0.3-0.2,0.5-0.2h4.5V4.5H10.5V29.2z M9.8,45
	c-1.3,0-2.5-0.5-3.4-1.4c-0.9-0.9-1.4-2-1.4-3.4c0-1.3,0.5-2.5,1.4-3.4s2.1-1.4,3.4-1.4s2.5,0.5,3.4,1.4c0.9,0.9,1.4,2.1,1.4,3.4
	c0,1.3-0.5,2.5-1.4,3.4C12.2,44.5,11.1,45,9.8,45z M9.8,43.5c0.9,0,1.6-0.3,2.3-1c0.6-0.6,0.9-1.4,0.9-2.3c0-0.9-0.3-1.6-0.9-2.3
	c-0.6-0.6-1.4-0.9-2.3-0.9c-0.9,0-1.6,0.3-2.3,0.9c-0.6,0.6-1,1.4-1,2.3c0,0.9,0.3,1.6,1,2.3S8.9,43.5,9.8,43.5z M38.2,45
	c-1.3,0-2.5-0.5-3.4-1.4s-1.4-2.1-1.4-3.4c0-1.3,0.5-2.5,1.4-3.4s2.1-1.4,3.4-1.4c1.3,0,2.5,0.5,3.4,1.4s1.4,2.1,1.4,3.4
	c0,1.3-0.5,2.5-1.4,3.4S39.6,45,38.2,45z M38.3,43.5c0.9,0,1.6-0.3,2.3-1s0.9-1.4,0.9-2.3c0-0.9-0.3-1.6-0.9-2.3
	C40,37.3,39.2,37,38.3,37c-0.9,0-1.6,0.3-2.3,0.9c-0.6,0.6-1,1.4-1,2.3c0,0.9,0.3,1.6,1,2.3C36.6,43.1,37.4,43.5,38.3,43.5z M24,45
	c-1.3,0-2.5-0.5-3.4-1.4s-1.4-2.1-1.4-3.4c0-1.3,0.5-2.5,1.4-3.4s2.1-1.4,3.4-1.4s2.5,0.5,3.4,1.4s1.4,2.1,1.4,3.4
	c0,1.3-0.5,2.5-1.4,3.4S25.3,45,24,45z M24,43.5c0.9,0,1.6-0.3,2.3-1c0.6-0.6,0.9-1.4,0.9-2.3c0-0.9-0.3-1.6-0.9-2.3S24.9,37,24,37
	s-1.6,0.3-2.3,0.9c-0.6,0.6-1,1.4-1,2.3c0,0.9,0.3,1.6,1,2.3C22.4,43.1,23.1,43.5,24,43.5z"/>
</svg>
