<?xml version="1.0" encoding="utf-8"?>
<!-- Generator: Adobe Illustrator 26.3.1, SVG Export Plug-In . SVG Version: 6.00 Build 0)  -->
<svg version="1.1" id="Слой_1" xmlns="http://www.w3.org/2000/svg" xmlns:xlink="http://www.w3.org/1999/xlink" x="0px" y="0px"
	 viewBox="0 0 48 48" style="enable-background:new 0 0 48 48;" xml:space="preserve">
<path d="M25.7,42c-1.6,0-3.2-0.2-4.8-0.7c-1.6-0.5-3-1.1-4.3-2.1l1.1-1.1c1.2,0.8,2.5,1.4,3.8,1.8c1.3,0.4,2.7,0.5,4.2,0.5
	c4,0,7.4-1.4,10.2-4.2S40.1,30,40.1,26s-1.4-7.4-4.2-10.2s-6.2-4.2-10.2-4.2h-3.4l4.5,4.5l-1.1,1.3L19,10.9l6.6-6.6l1.1,1.3
	l-4.5,4.5h3.4c4.4,0,8.1,1.6,11.2,4.7s4.7,6.9,4.7,11.2c0,2.2-0.4,4.2-1.3,6.2c-0.8,1.9-2,3.6-3.4,5.1s-3.1,2.6-5.1,3.4
	S27.8,42,25.7,42z M13.2,34.7l-8.8-8.8l8.8-8.7l8.7,8.7C21.9,25.9,13.2,34.7,13.2,34.7z M13.2,32.6l6.5-6.5l-6.5-6.5l-6.5,6.5
	C6.6,26.1,13.2,32.6,13.2,32.6z"/>
</svg>
