<?xml version="1.0" encoding="utf-8"?>
<!-- Generator: Adobe Illustrator 26.3.1, SVG Export Plug-In . SVG Version: 6.00 Build 0)  -->
<svg version="1.1" id="Слой_1" xmlns="http://www.w3.org/2000/svg" xmlns:xlink="http://www.w3.org/1999/xlink" x="0px" y="0px"
	 viewBox="0 0 48 48" style="enable-background:new 0 0 48 48;" xml:space="preserve">
<path d="M22.3,42c-2.2,0-4.2-0.4-6.2-1.3c-1.9-0.8-3.6-2-5.1-3.4s-2.6-3.1-3.4-5.1s-1.3-4-1.3-6.2c0-4.4,1.6-8.1,4.7-11.2
	s6.9-4.7,11.2-4.7h3.4l-4.5-4.5l1.1-1.3l6.6,6.6l-6.6,6.6l-1.1-1.3l4.5-4.5h-3.4c-4,0-7.4,1.4-10.2,4.2c-2.6,2.8-4,6.2-4,10.2
	s1.4,7.4,4.2,10.2s6.2,4.2,10.2,4.2c1.5,0,2.9-0.2,4.2-0.5c1.3-0.4,2.6-1,3.8-1.8l1.1,1.1c-1.3,0.9-2.7,1.6-4.3,2.1
	C25.5,41.8,23.9,42,22.3,42z M34.8,34.7l-8.7-8.8l8.7-8.7l8.8,8.7C43.6,25.9,34.8,34.7,34.8,34.7z M34.8,32.6l6.5-6.5l-6.5-6.5
	l-6.5,6.5C28.3,26.1,34.8,32.6,34.8,32.6z"/>
</svg>
