<?xml version="1.0" encoding="utf-8"?>
<!-- Generator: Adobe Illustrator 26.3.1, SVG Export Plug-In . SVG Version: 6.00 Build 0)  -->
<svg version="1.1" id="Слой_1" xmlns="http://www.w3.org/2000/svg" xmlns:xlink="http://www.w3.org/1999/xlink" x="0px" y="0px"
	 viewBox="0 0 48 48" style="enable-background:new 0 0 48 48;" xml:space="preserve">
<path d="M26.2,42v-1.6c1.1-0.2,2.3-0.5,3.4-0.9s2.2-1,3.2-1.8l1.1,1.1c-1.1,0.8-2.3,1.5-3.6,2.1C29,41.4,27.6,41.8,26.2,42z M22,42
	c-4-0.6-7.4-2.4-10-5.4S8.1,30,8.1,25.9c0-2.2,0.4-4.3,1.2-6.2c0.8-2,2-3.6,3.4-5.1c1.5-1.4,3.2-2.6,5.1-3.4c1.9-0.8,4-1.3,6.2-1.3
	h1.8l-4.6-4.6l1.2-1.1l6.4,6.4l-6.4,6.5L21.2,16l4.6-4.6H24c-4.1,0-7.5,1.4-10.3,4.2C11,18.5,9.6,21.9,9.6,26c0,3.7,1.2,6.8,3.5,9.5
	s5.3,4.4,8.9,5V42z M36.8,35.9l-1.1-1.1c0.7-1,1.3-2,1.8-3.1s0.8-2.3,1-3.5H40c-0.2,1.4-0.6,2.8-1.1,4.1
	C38.3,33.5,37.7,34.7,36.8,35.9z M40,23.9h-1.5c-0.2-1.2-0.5-2.3-1-3.4s-1-2.2-1.8-3.2l1.1-1.1c0.8,1.1,1.5,2.3,2,3.6
	S39.8,22.4,40,23.9z"/>
</svg>
