<?xml version="1.0" encoding="utf-8"?>
<!-- Generator: Adobe Illustrator 26.3.1, SVG Export Plug-In . SVG Version: 6.00 Build 0)  -->
<svg version="1.1" id="Слой_1" xmlns="http://www.w3.org/2000/svg" xmlns:xlink="http://www.w3.org/1999/xlink" x="0px" y="0px"
	 viewBox="0 0 48 48" style="enable-background:new 0 0 48 48;" xml:space="preserve">
<path d="M21.9,42c-1.4-0.2-2.8-0.6-4.1-1.1c-1.3-0.5-2.5-1.2-3.6-2.1l1.1-1.1c1,0.7,2.1,1.3,3.2,1.8s2.2,0.8,3.4,0.9V42z M26.1,42
	v-1.5c3.5-0.6,6.5-2.3,8.8-5c2.3-2.7,3.5-5.9,3.5-9.5c0-4-1.4-7.4-4.2-10.3c-2.8-2.8-6.2-4.2-10.3-4.2h-1.8l4.6,4.6l-1.1,1.1
	l-6.5-6.5l6.5-6.4l1.1,1.1L22.2,10H24c2.2,0,4.3,0.4,6.2,1.3c1.9,0.8,3.6,2,5.1,3.4s2.6,3.1,3.4,5.1c0.8,2,1.2,4,1.2,6.2
	c0,4.1-1.3,7.7-3.9,10.7C33.4,39.6,30.1,41.4,26.1,42z M11.3,35.9c-0.8-1.1-1.5-2.3-2.1-3.6c-0.5-1.3-0.9-2.7-1.1-4.1h1.6
	c0.2,1.2,0.5,2.4,1,3.5c0.4,1.1,1,2.2,1.8,3.1C12.4,34.7,11.3,35.9,11.3,35.9z M8.1,23.9c0.2-1.5,0.6-2.9,1.1-4.2s1.2-2.5,2-3.6
	l1.1,1.1c-0.7,1-1.3,2.1-1.8,3.2c-0.4,1.1-0.8,2.3-1,3.4C9.7,23.9,8.1,23.9,8.1,23.9z"/>
</svg>
