<?xml version="1.0" encoding="utf-8"?>
<!-- Generator: Adobe Illustrator 26.3.1, SVG Export Plug-In . SVG Version: 6.00 Build 0)  -->
<svg version="1.1" id="Слой_1" xmlns="http://www.w3.org/2000/svg" xmlns:xlink="http://www.w3.org/1999/xlink" x="0px" y="0px"
	 viewBox="0 0 48 48" style="enable-background:new 0 0 48 48;" xml:space="preserve">
<path d="M8,40v-2h2v2H8z M8,32.5v-2h2v2H8z M8,25v-2h2v2H8z M8,17.5v-2h2v2H8z M8,10V8h2v2H8z M15.5,40v-2h2v2H15.5z M15.5,10V8h2v2
	H15.5z M23,40v-2h2v2H23z M30.5,40v-2h2v2H30.5z M38,40v-2h2v2H38z M38,32.5v-2h2v2H38z M40,25h-1.5v-8.5c0-1.9-0.7-3.6-2-4.9
	c-1.4-1.4-3-2-4.9-2H23V8h8.5c2.4,0,4.4,0.8,6,2.5c1.6,1.6,2.5,3.7,2.5,6V25z"/>
</svg>
