<?xml version="1.0" encoding="utf-8"?>
<!-- Generator: Adobe Illustrator 26.3.1, SVG Export Plug-In . SVG Version: 6.00 Build 0)  -->
<svg version="1.1" id="Слой_1" xmlns="http://www.w3.org/2000/svg" xmlns:xlink="http://www.w3.org/1999/xlink" x="0px" y="0px"
	 viewBox="0 0 48 48" style="enable-background:new 0 0 48 48;" xml:space="preserve">
<path d="M16.3,40V30c0-0.2-0.1-0.4-0.2-0.6c-0.2-0.2-0.3-0.3-0.5-0.3c-2.7-0.4-5-1.5-6.8-3.5S6,21.3,6,18.6c0-2.9,1-5.5,3.1-7.5
	C11.2,9,13.7,8,16.7,8c2.7,0,5,0.9,7,2.7s3.1,4.1,3.5,6.8c0.1,0.2,0.2,0.4,0.3,0.5c0.2,0.2,0.3,0.2,0.5,0.2h11.1l-4.8-4.8l1.1-1.1
	L42,19l-6.7,6.7l-1.1-1.1l4.8-4.8H28.1c-0.6,0-1.2-0.2-1.7-0.6s-0.8-0.9-0.9-1.5c-0.3-2.3-1.3-4.2-3-5.8s-3.6-2.3-5.9-2.3
	c-2.5,0-4.7,0.9-6.5,2.6c-1.8,1.8-2.7,3.9-2.7,6.4c0,2.3,0.8,4.3,2.3,5.9c1.6,1.7,3.5,2.7,5.8,3c0.6,0.1,1.1,0.4,1.6,0.9
	c0.4,0.5,0.6,1,0.6,1.7V40C17.8,40,16.3,40,16.3,40z"/>
</svg>
