<?xml version="1.0" encoding="utf-8"?>
<!-- Generator: Adobe Illustrator 26.3.1, SVG Export Plug-In . SVG Version: 6.00 Build 0)  -->
<svg version="1.1" id="Слой_1" xmlns="http://www.w3.org/2000/svg" xmlns:xlink="http://www.w3.org/1999/xlink" x="0px" y="0px"
	 viewBox="0 0 48 48" style="enable-background:new 0 0 48 48;" xml:space="preserve">
<path d="M10.8,40c-0.8,0-1.4-0.3-2-0.8C8.3,38.7,8,38,8,37.2v-6.5c0-0.8,0.3-1.4,0.8-2c0.5-0.5,1.2-0.8,2-0.8h20.6v-8.4h1.5v8.4h4.3
	c0.8,0,1.4,0.3,2,0.8c0.5,0.5,0.8,1.2,0.8,2v6.5c0,0.8-0.3,1.4-0.8,2c-0.5,0.5-1.2,0.8-2,0.8H10.8z M10.8,38.5h26.5
	c0.4,0,0.7-0.1,0.9-0.3s0.3-0.5,0.3-0.9v-6.5c0-0.4-0.1-0.7-0.3-0.9c-0.2-0.2-0.5-0.3-0.9-0.3H10.8c-0.4,0-0.7,0.1-0.9,0.3
	c-0.2,0.2-0.3,0.5-0.3,0.9v6.5c0,0.4,0.1,0.7,0.3,0.9C10.1,38.3,10.4,38.5,10.8,38.5z M14.1,35.5c0.5,0,0.8-0.2,1.1-0.5
	s0.4-0.7,0.4-1.1c0-0.5-0.1-0.8-0.4-1.1c-0.3-0.3-0.7-0.4-1.1-0.4c-0.5,0-0.8,0.1-1.1,0.4c-0.3,0.3-0.5,0.7-0.5,1.1
	c0,0.5,0.2,0.8,0.5,1.1C13.2,35.4,13.6,35.5,14.1,35.5z M21.2,35.5c0.5,0,0.8-0.2,1.1-0.5c0.3-0.3,0.5-0.7,0.5-1.1
	c0-0.5-0.2-0.8-0.5-1.1s-0.7-0.4-1.1-0.4c-0.5,0-0.8,0.1-1.1,0.4c-0.3,0.3-0.5,0.7-0.5,1.1c0,0.5,0.2,0.8,0.5,1.1
	C20.4,35.4,20.8,35.5,21.2,35.5z M28.4,35.5c0.5,0,0.8-0.2,1.1-0.5c0.3-0.3,0.5-0.7,0.5-1.1c0-0.5-0.2-0.8-0.5-1.1s-0.7-0.4-1.1-0.4
	c-0.5,0-0.8,0.1-1.1,0.4c-0.3,0.3-0.4,0.7-0.4,1.1c0,0.5,0.1,0.8,0.4,1.1C27.6,35.4,28,35.5,28.4,35.5z M27.7,16l-1-1.1
	c0.8-0.8,1.7-1.4,2.6-1.8c0.9-0.4,1.9-0.6,2.9-0.6c1.1,0,2,0.2,2.9,0.6c0.9,0.4,1.7,1,2.6,1.8l-1,1.1c-0.6-0.6-1.3-1-2-1.4
	c-0.7-0.3-1.5-0.5-2.4-0.5s-1.7,0.2-2.5,0.5C28.9,14.9,28.3,15.4,27.7,16z M23.1,11.3L22,10.2c1.2-1.2,2.7-2.2,4.4-3
	C28.1,6.4,30,6,32.1,6s4,0.4,5.8,1.2c1.7,0.8,3.2,1.8,4.5,3l-1.2,1.1c-1-1-2.3-1.9-3.8-2.6s-3.3-1.1-5.3-1.1S28.3,8,26.8,8.7
	C25.3,9.4,24,10.3,23.1,11.3z M9.5,38.5v-9V38.5z"/>
</svg>
