<?xml version="1.0" encoding="utf-8"?>
<!-- Generator: Adobe Illustrator 26.3.1, SVG Export Plug-In . SVG Version: 6.00 Build 0)  -->
<svg version="1.1" id="Слой_1" xmlns="http://www.w3.org/2000/svg" xmlns:xlink="http://www.w3.org/1999/xlink" x="0px" y="0px"
	 viewBox="0 0 48 48" style="enable-background:new 0 0 48 48;" xml:space="preserve">
<path d="M36.5,46.5l-4.8-4.8v-3L16,22.9c-0.3,0.1-0.5,0.1-0.7,0.2c-0.2,0-0.4,0.1-0.7,0.1v-1.3c1.6-0.2,3.4-0.8,5.6-1.9
	c2.1-1.1,3.7-2.1,4.6-3.1l2.7-2.8c0.3-0.4,0.7-0.6,1.1-0.9c0.4-0.2,0.9-0.3,1.3-0.3c0.8,0,1.5,0.3,2.1,0.9c0.6,0.6,0.8,1.3,0.8,2.1
	V28c0,1-0.2,1.9-0.7,2.8s-1,1.5-1.7,1.8l-3.9-3.9V17.3c-1.4,1.3-2.8,2.4-4.3,3.3c-1.5,0.9-3,1.6-4.3,2l14.9,14.9h3.1l4.8,4.8
	C40.6,42.3,36.5,46.5,36.5,46.5z M10.6,39.6l-1.3-1.3l9.9-9.8l4.3,4.3h-6.1L10.6,39.6z M30.1,10.2c-0.8,0-1.5-0.3-2-0.8
	c-0.5-0.6-0.8-1.2-0.8-2s0.3-1.5,0.8-2s1.2-0.8,2-0.8s1.5,0.3,2,0.8c0.5,0.6,0.8,1.2,0.8,2s-0.3,1.5-0.8,2
	C31.6,9.9,30.9,10.2,30.1,10.2z"/>
</svg>
