<?xml version="1.0" encoding="utf-8"?>
<!-- Generator: Adobe Illustrator 26.3.1, SVG Export Plug-In . SVG Version: 6.00 Build 0)  -->
<svg version="1.1" id="Слой_1" xmlns="http://www.w3.org/2000/svg" xmlns:xlink="http://www.w3.org/1999/xlink" x="0px" y="0px"
	 viewBox="0 0 48 48" style="enable-background:new 0 0 48 48;" xml:space="preserve">
<path d="M10.4,40c-0.6,0-1.2-0.2-1.7-0.7S8,38.3,8,37.6C8,37,8.2,36.5,8.7,36s1-0.7,1.7-0.7c0.6,0,1.1,0.2,1.6,0.7s0.7,1,0.7,1.6
	s-0.2,1.2-0.7,1.7S11,40,10.4,40z M35.8,40c0-3.8-0.7-7.4-2.2-10.8c-1.4-3.4-3.4-6.3-6-8.8c-2.5-2.5-5.5-4.5-8.8-6s-7-2.2-10.8-2.2
	V10c4.2,0,8.1,0.8,11.7,2.4s6.8,3.7,9.5,6.4s4.9,5.9,6.4,9.5C37.2,31.9,38,35.8,38,40H35.8z M24.3,40c0-2.3-0.4-4.4-1.3-6.4
	c-0.8-2-2-3.7-3.5-5.2s-3.2-2.7-5.2-3.6c-1.9-0.9-4.1-1.3-6.3-1.3v-2.2c2.6,0,5,0.5,7.2,1.5s4.2,2.3,5.9,4s3,3.7,4,5.9
	s1.4,4.7,1.4,7.3C26.5,40,24.3,40,24.3,40z"/>
</svg>
