<?xml version="1.0" encoding="utf-8"?>
<!-- Generator: Adobe Illustrator 26.3.1, SVG Export Plug-In . SVG Version: 6.00 Build 0)  -->
<svg version="1.1" id="Слой_1" xmlns="http://www.w3.org/2000/svg" xmlns:xlink="http://www.w3.org/1999/xlink" x="0px" y="0px"
	 viewBox="0 0 48 48" style="enable-background:new 0 0 48 48;" xml:space="preserve">
<path d="M20.9,40.5l0.3-1.8h4.7l4.6-29.6h-8.7l-1.5,9.5h-1.8l1.8-11.3h22.9l-1.8,11.3h-1.8l1.5-9.5h-8.7l-4.6,29.6h4.7l-0.3,1.8
	C32.1,40.5,20.9,40.5,20.9,40.5z M8.4,12.5L8.6,11h7.8l-0.2,1.5H8.4z M7.2,20.6l0.2-1.5h7.8L15,20.6H7.2z M4.8,36.9L5,35.4h12.4
	l-0.2,1.5H4.8z M6.2,28.8l0.2-1.5h12.4l-0.2,1.5H6.2z"/>
</svg>
