<?xml version="1.0" encoding="utf-8"?>
<!-- Generator: Adobe Illustrator 26.3.1, SVG Export Plug-In . SVG Version: 6.00 Build 0)  -->
<svg version="1.1" id="Слой_1" xmlns="http://www.w3.org/2000/svg" xmlns:xlink="http://www.w3.org/1999/xlink" x="0px" y="0px"
	 viewBox="0 0 48 48" style="enable-background:new 0 0 48 48;" xml:space="preserve">
<path d="M8.5,38.7v-1.5H15l-2.1-2.1c-1.7-1.7-2.9-3.5-3.7-5.3S8,26.1,8,24.3c0-3.2,0.9-6.1,2.7-8.7s4.1-4.5,7.1-5.7v1.6
	c-2.5,1.1-4.5,2.8-6,5.1s-2.2,4.9-2.2,7.6c0,1.7,0.3,3.4,1,5c0.6,1.6,1.7,3.1,3.1,4.4l2.5,2.4v-6.5h1.5v9.2
	C17.7,38.7,8.5,38.7,8.5,38.7z M39.7,22h-1.5c-0.2-1.4-0.6-2.8-1.2-4c-0.6-1.3-1.5-2.5-2.5-3.5L31.9,12v6.5h-1.5V9.3h9.1v1.5H33
	l2.1,2.1c1.4,1.4,2.5,2.9,3.2,4.4C39,18.9,39.5,20.4,39.7,22z M34.4,41.6l-0.1-1.4c-0.9-0.2-1.6-0.5-2.3-0.9s-1.2-0.9-1.7-1.4
	L29,38.6l-1-1.4l1.2-0.9c-0.3-0.9-0.5-1.7-0.5-2.4s0.2-1.6,0.5-2.4L28,30.6l1-1.4l1.3,0.8c0.5-0.5,1-1,1.7-1.4s1.4-0.7,2.3-0.9
	l0.1-1.4h1.5l0.1,1.4c0.9,0.2,1.6,0.5,2.3,0.9s1.2,0.9,1.7,1.4l1.3-0.7l1,1.4L41,31.5c0.3,0.9,0.5,1.7,0.5,2.4s-0.2,1.6-0.5,2.5
	l1.2,0.9l-1,1.4L40,37.9c-0.5,0.5-1,1-1.7,1.4S36.9,40,36,40.2l-0.1,1.4C35.9,41.6,34.4,41.6,34.4,41.6z M35.1,38.7
	c1.3,0,2.5-0.5,3.4-1.4s1.4-2.1,1.4-3.4c0-1.3-0.5-2.5-1.4-3.4s-2.1-1.4-3.4-1.4c-1.4,0-2.5,0.5-3.4,1.4s-1.4,2.1-1.4,3.4
	s0.5,2.5,1.4,3.4S33.8,38.7,35.1,38.7z"/>
</svg>
