<?xml version="1.0" encoding="utf-8"?>
<!-- Generator: Adobe Illustrator 26.3.1, SVG Export Plug-In . SVG Version: 6.00 Build 0)  -->
<svg version="1.1" id="Слой_1" xmlns="http://www.w3.org/2000/svg" xmlns:xlink="http://www.w3.org/1999/xlink" x="0px" y="0px"
	 viewBox="0 0 48 48" style="enable-background:new 0 0 48 48;" xml:space="preserve">
<path d="M23.3,42c-2.5,0-4.8-0.5-7-1.4s-4.1-2.2-5.7-3.8C9,35.1,7.7,33.2,6.7,31c-0.9-2.2-1.4-4.5-1.4-7s0.5-4.8,1.4-7
	s2.2-4.1,3.9-5.7c1.6-1.6,3.5-2.9,5.7-3.8s4.5-1.4,7-1.4s4.9,0.5,7.2,1.5s4.3,2.4,6,4.2l-13.2,13V7.5c-4.6,0-8.5,1.6-11.7,4.8
	C8.5,15.5,6.9,19.4,6.9,24s1.6,8.5,4.8,11.7s7.1,4.8,11.7,4.8c2.8,0,5.4-0.7,7.8-2s4.5-3.1,6.1-5.3v2.4c-1.8,2-3.9,3.6-6.3,4.8
	C28.5,41.4,26,42,23.3,42z M40.8,36.3V21.1h1.5v15.2H40.8z M41.6,41.2c-0.3,0-0.6-0.1-0.8-0.3s-0.3-0.5-0.3-0.8s0.1-0.6,0.3-0.8
	s0.5-0.3,0.8-0.3s0.6,0.1,0.8,0.3s0.3,0.5,0.3,0.8s-0.1,0.6-0.3,0.8C42.2,41,41.9,41.2,41.6,41.2z"/>
</svg>
