<?xml version="1.0" encoding="utf-8"?>
<!-- Generator: Adobe Illustrator 26.3.1, SVG Export Plug-In . SVG Version: 6.00 Build 0)  -->
<svg version="1.1" id="Слой_1" xmlns="http://www.w3.org/2000/svg" xmlns:xlink="http://www.w3.org/1999/xlink" x="0px" y="0px"
	 viewBox="0 0 48 48" style="enable-background:new 0 0 48 48;" xml:space="preserve">
<path d="M24,31.9c2.2,0,4-0.8,5.6-2.3c1.5-1.5,2.3-3.4,2.3-5.5c0-2.2-0.8-4-2.3-5.5s-3.4-2.3-5.6-2.3s-4,0.8-5.5,2.3
	s-2.3,3.4-2.3,5.5s0.8,4,2.3,5.5S21.8,31.9,24,31.9z M27.5,28.6l-4.3-4.2v-6.3h1.6v5.7l3.9,3.7L27.5,28.6z M24,41.9
	c-4-1.2-7.4-3.7-10-7.4c-2.7-3.7-4-7.9-4-12.5V11.4l14-5.2l14,5.2V22c0,4.6-1.3,8.8-4,12.5C31.4,38.2,28,40.7,24,41.9z M24,40.3
	c3.6-1.2,6.6-3.4,9-6.8s3.5-7.2,3.5-11.4v-9.6L24,7.8l-12.5,4.7V22c0,4.2,1.2,8,3.5,11.4S20.4,39.1,24,40.3z"/>
</svg>
