<?xml version="1.0" encoding="utf-8"?>
<!-- Generator: Adobe Illustrator 26.3.1, SVG Export Plug-In . SVG Version: 6.00 Build 0)  -->
<svg version="1.1" id="Слой_1" xmlns="http://www.w3.org/2000/svg" xmlns:xlink="http://www.w3.org/1999/xlink" x="0px" y="0px"
	 viewBox="0 0 48 48" style="enable-background:new 0 0 48 48;" xml:space="preserve">
<path d="M8.1,26L20.8,7.7V26H8.1z M11,24.5h8.2V12.6L11,24.5z M26.7,26c0.5-1.5,0.8-3.2,1.1-5.2s0.4-4,0.4-6.1
	c0-2.2-0.1-4.3-0.4-6.2s-0.6-3.5-1.1-5c1.7,0.9,3.3,2.1,4.9,3.7c1.6,1.5,3,3.3,4.3,5.2c1.3,2,2.3,4.1,3.2,6.4s1.4,4.7,1.6,7.3
	C40.7,26,26.7,26,26.7,26z M28.7,24.5H39c-0.5-3.4-1.6-6.7-3.4-9.8c-1.8-3.1-4-5.7-6.6-7.8c0.2,1.3,0.4,2.7,0.5,4.1s0.2,2.6,0.2,3.8
	c0,1.5-0.1,3.1-0.3,4.9C29.2,21.4,29,23,28.7,24.5z M18,38.3c-1,0-2.1-0.2-3.1-0.6c-1-0.4-2-1.1-2.9-2c-0.3,0.3-0.7,0.6-1.1,1
	c-0.4,0.3-0.8,0.5-1.2,0.7c-1-0.7-1.8-1.5-2.6-2.6s-1.4-2.2-1.7-3.3h37.3c-0.4,1.2-1,2.3-1.7,3.3c-0.8,1.1-1.6,1.9-2.6,2.6
	c-0.3-0.1-0.7-0.4-1.2-0.7c-0.4-0.3-0.8-0.6-1.1-1c-0.9,0.9-1.9,1.6-2.9,2s-2.1,0.6-3.1,0.6S28,38.1,27,37.7c-1-0.4-2-1.1-2.9-2
	c-0.9,0.9-1.9,1.6-2.9,2C20.1,38.1,19,38.3,18,38.3z M5,45v-1.5h1c1.1,0,2.1-0.2,3.1-0.5s2-0.9,2.9-1.6c1,0.7,1.9,1.3,2.9,1.6
	s2,0.5,3.1,0.5s2.1-0.2,3.1-0.5s2-0.9,2.9-1.6c1,0.7,2,1.3,3,1.6s2,0.5,3,0.5c1.1,0,2.1-0.2,3.1-0.5s2-0.9,2.9-1.6
	c1,0.7,1.9,1.3,2.9,1.6s2,0.5,3.1,0.5h1V45h-1c-0.9,0-1.9-0.1-2.9-0.4c-1-0.3-2.1-0.8-3.1-1.4c-1.1,0.7-2.1,1.2-3.1,1.4
	c-1,0.3-2,0.4-2.9,0.4s-1.9-0.1-2.9-0.4c-1-0.3-2.1-0.8-3.1-1.4c-1.1,0.7-2.1,1.2-3.1,1.4c-1,0.3-2,0.4-2.9,0.4s-1.9-0.1-2.9-0.4
	c-1-0.3-2.1-0.8-3.1-1.4c-1.1,0.7-2.1,1.2-3.1,1.4c-1,0.3-2,0.4-2.9,0.4H5z"/>
</svg>
