<?xml version="1.0" encoding="utf-8"?>
<!-- Generator: Adobe Illustrator 26.3.1, SVG Export Plug-In . SVG Version: 6.00 Build 0)  -->
<svg version="1.1" id="Слой_1" xmlns="http://www.w3.org/2000/svg" xmlns:xlink="http://www.w3.org/1999/xlink" x="0px" y="0px"
	 viewBox="0 0 48 48" style="enable-background:new 0 0 48 48;" xml:space="preserve">
<path d="M33.1,16.5c-0.6,0-1-0.2-1.4-0.6C31.2,15.5,31,15,31,14.4c0-0.4,0.2-0.9,0.5-1.6c0.4-0.7,0.9-1.4,1.5-2.1
	c0.6,0.7,1.1,1.4,1.5,2.1c0.4,0.7,0.5,1.2,0.5,1.6c0,0.6-0.2,1-0.6,1.4C34.1,16.3,33.6,16.5,33.1,16.5z M37.7,28.3
	c-1,0-1.8-0.3-2.4-1c-0.7-0.7-1-1.5-1-2.4c0-0.8,0.3-1.8,1-3s1.5-2.3,2.4-3.5c0.9,1.1,1.7,2.3,2.4,3.5s1,2.2,1,3c0,1-0.3,1.8-1,2.4
	C39.5,28,38.7,28.3,37.7,28.3z M19.7,34.1h1.5v-4h4v-1.5h-4v-4h-1.5v4h-4v1.5h4V34.1z M13.6,40.9c-0.8,0-1.4-0.3-1.9-0.8
	s-0.8-1.2-0.8-2V23.8c0-2.5,0.8-4.6,2.5-6.5c1.7-1.8,3.8-2.9,6.3-3.2V8.6h-3.8V7.1h9.8c0.7,0,1.3,0.1,1.9,0.2
	c0.6,0.2,1.2,0.4,1.8,0.7l-1.2,1.2C27.8,9,27.4,8.9,27,8.8c-0.4-0.1-0.9-0.1-1.3-0.1h-4.5v5.5c2.5,0.3,4.6,1.3,6.3,3.2
	c1.7,1.8,2.5,4,2.5,6.5v14.4c0,0.8-0.3,1.4-0.8,2c-0.5,0.5-1.2,0.8-1.9,0.8C27.3,40.9,13.6,40.9,13.6,40.9z M13.6,39.4h13.7
	c0.3,0,0.6-0.1,0.8-0.4c0.3-0.3,0.4-0.5,0.4-0.8V23.8c0-2.2-0.8-4.1-2.4-5.7s-3.5-2.4-5.7-2.4s-4.1,0.8-5.7,2.4s-2.4,3.5-2.4,5.7
	v14.4c0,0.3,0.1,0.6,0.4,0.8C13,39.3,13.3,39.4,13.6,39.4z M13.6,39.4h-1.2h16.2C28.5,39.4,13.6,39.4,13.6,39.4z"/>
</svg>
