<?xml version="1.0" encoding="utf-8"?>
<!-- Generator: Adobe Illustrator 26.3.1, SVG Export Plug-In . SVG Version: 6.00 Build 0)  -->
<svg version="1.1" id="Слой_1" xmlns="http://www.w3.org/2000/svg" xmlns:xlink="http://www.w3.org/1999/xlink" x="0px" y="0px"
	 viewBox="0 0 48 48" style="enable-background:new 0 0 48 48;" xml:space="preserve">
<path d="M29,45.4v-1.5c4,0,7.4-1.4,10.2-4.2s4.2-6.2,4.2-10.2H45c0,2.2-0.4,4.3-1.3,6.2s-2,3.6-3.4,5.1c-1.4,1.4-3.1,2.6-5.1,3.4
	C33.3,44.9,31.2,45.4,29,45.4z M29,39.5V38c2.3,0,4.3-0.9,6-2.6c1.7-1.7,2.6-3.7,2.6-6h1.5c0,2.7-1,5.1-3,7.1S31.7,39.5,29,39.5z
	 M12.3,43.2c-0.3,0-0.7-0.1-1-0.2c-0.3-0.1-0.6-0.3-0.8-0.5l-7.7-7.7c-0.2-0.2-0.4-0.5-0.5-0.8C2,33.6,2,33.3,2,33s0.1-0.7,0.2-1
	c0.1-0.3,0.3-0.6,0.5-0.8L8.8,25c0.5-0.5,1.1-0.7,1.8-0.7s1.3,0.2,1.8,0.7l3.3,3.2l3-3L15.4,22c-0.5-0.5-0.7-1.1-0.7-1.8
	c0-0.7,0.2-1.3,0.7-1.8l2.5-2.5c0.5-0.5,1.1-0.7,1.8-0.7c0.7,0,1.3,0.2,1.8,0.7l3.2,3.2l3-3l-3.2-3.2c-0.5-0.5-0.7-1.1-0.7-1.8
	s0.2-1.3,0.7-1.8l6.1-6.1c0.3-0.2,0.5-0.4,0.8-0.6c0.3-0.1,0.6-0.2,1-0.2c0.4,0,0.7,0,1,0.1s0.6,0.3,0.9,0.6l7.7,7.7
	c0.2,0.2,0.4,0.5,0.5,0.9c0.1,0.3,0.2,0.7,0.2,1s-0.1,0.7-0.2,1c-0.1,0.3-0.3,0.6-0.5,0.8l-6.1,6.1c-0.6,0.6-1.2,0.9-1.8,0.9
	s-1.2-0.3-1.8-0.9l-3.2-3.2l-3,3l3.2,3.2c0.5,0.5,0.7,1.1,0.7,1.8c0,0.7-0.3,1.3-0.7,1.8l-2.4,2.4c-0.5,0.5-1.1,0.7-1.8,0.8
	c-0.7,0-1.3-0.2-1.8-0.7l-3.2-3.2l-3,3l3.2,3.3c0.5,0.5,0.7,1.1,0.7,1.8s-0.2,1.3-0.7,1.8L14,42.5c-0.3,0.2-0.5,0.4-0.8,0.5
	S12.6,43.2,12.3,43.2z M11.6,41.5c0.2,0.2,0.4,0.3,0.7,0.3s0.5-0.1,0.7-0.3l2.5-2.5l-9.2-9.2l-2.5,2.5c-0.2,0.2-0.3,0.4-0.3,0.7
	s0.1,0.5,0.3,0.7L11.6,41.5z M16.7,37.7l2.5-2.5c0.2-0.2,0.3-0.4,0.3-0.7s-0.1-0.5-0.3-0.7L11.3,26c-0.2-0.2-0.4-0.3-0.7-0.3
	s-0.5,0.1-0.7,0.3l-2.5,2.5L16.7,37.7z M24.3,28.7c0.2,0.2,0.4,0.3,0.7,0.3c0.3,0,0.5-0.1,0.7-0.3l2.6-2.6c0.2-0.2,0.2-0.4,0.2-0.7
	c0-0.3-0.1-0.5-0.2-0.7l-7.9-7.9c-0.2-0.2-0.4-0.2-0.7-0.2c-0.3,0-0.5,0.1-0.7,0.2l-2.6,2.6c-0.2,0.2-0.3,0.4-0.3,0.7
	c0,0.3,0.1,0.5,0.3,0.7C16.5,20.8,24.3,28.7,24.3,28.7z M33.4,19.5c0.2,0.2,0.4,0.3,0.7,0.3s0.5-0.1,0.7-0.3l2.5-2.5l-9.2-9.2
	l-2.5,2.5c-0.2,0.2-0.3,0.4-0.3,0.7s0.1,0.5,0.3,0.7C25.6,11.7,33.4,19.5,33.4,19.5z M38.6,15.8l2.5-2.5c0.2-0.2,0.3-0.4,0.3-0.6
	c0-0.3-0.1-0.5-0.3-0.7l-7.8-7.8c-0.2-0.2-0.4-0.3-0.7-0.3S32.1,4,32,4.2l-2.5,2.5C29.4,6.6,38.6,15.8,38.6,15.8z"/>
</svg>
