<?xml version="1.0" encoding="utf-8"?>
<!-- Generator: Adobe Illustrator 26.3.1, SVG Export Plug-In . SVG Version: 6.00 Build 0)  -->
<svg version="1.1" id="Слой_1" xmlns="http://www.w3.org/2000/svg" xmlns:xlink="http://www.w3.org/1999/xlink" x="0px" y="0px"
	 viewBox="0 0 48 48" style="enable-background:new 0 0 48 48;" xml:space="preserve">
<path d="M14.9,33h18.5l-5.6-7.5l-5.5,6.9L18.8,28L14.9,33z M12.8,21.8c2.4-0.3,4.4-1.3,6.1-2.9s2.6-3.7,2.9-6h-1.5
	c-0.3,1.9-1.1,3.6-2.5,5s-3,2.2-5,2.5C12.8,20.4,12.8,21.8,12.8,21.8z M12.8,16c0.9-0.2,1.6-0.5,2.2-1.1c0.6-0.6,1-1.3,1.2-2.1h-3.4
	C12.8,12.8,12.8,16,12.8,16z M10.8,40c-0.8,0-1.4-0.3-2-0.8C8.3,38.7,8,38,8,37.2V10.8c0-0.8,0.3-1.4,0.8-2C9.3,8.3,10,8,10.8,8
	h26.5c0.8,0,1.4,0.3,2,0.8c0.5,0.5,0.8,1.2,0.8,2v26.5c0,0.8-0.3,1.4-0.8,2c-0.5,0.5-1.2,0.8-2,0.8C37.2,40,10.8,40,10.8,40z
	 M10.8,38.5h26.5c0.3,0,0.6-0.1,0.8-0.4c0.3-0.3,0.4-0.5,0.4-0.8V10.8c0-0.3-0.1-0.6-0.4-0.8c-0.3-0.3-0.5-0.4-0.8-0.4H10.8
	c-0.3,0-0.6,0.1-0.8,0.4c-0.3,0.3-0.4,0.5-0.4,0.8v26.5c0,0.3,0.1,0.6,0.4,0.8S10.5,38.5,10.8,38.5z M9.5,38.5v-29V38.5z"/>
</svg>
