<?xml version="1.0" encoding="utf-8"?>
<!-- Generator: Adobe Illustrator 26.3.1, SVG Export Plug-In . SVG Version: 6.00 Build 0)  -->
<svg version="1.1" id="Слой_1" xmlns="http://www.w3.org/2000/svg" xmlns:xlink="http://www.w3.org/1999/xlink" x="0px" y="0px"
	 viewBox="0 0 48 48" style="enable-background:new 0 0 48 48;" xml:space="preserve">
<path d="M10.8,40c-0.7,0-1.4-0.3-1.9-0.8S8,38,8,37.2V10.8c0-0.8,0.3-1.4,0.8-2C9.4,8.3,10,8,10.8,8h22.5l6.8,6.8v9.7
	c-0.2-0.1-0.5-0.2-0.8-0.2c-0.3-0.1-0.5-0.1-0.8-0.1v-8.6l-5.9-5.9H10.8c-0.4,0-0.7,0.1-0.9,0.3s-0.3,0.5-0.3,0.9v26.5
	c0,0.4,0.1,0.7,0.3,0.9s0.5,0.3,0.9,0.3h11.4l0,0V40H10.8z M9.5,9.5v28.9V9.5z M26.5,44v-4.4L37.1,29c0.2-0.2,0.4-0.3,0.6-0.4
	c0.2-0.1,0.4-0.1,0.6-0.1c0.2,0,0.4,0,0.7,0.1c0.2,0.1,0.4,0.2,0.6,0.4l1.8,1.9c0.2,0.2,0.3,0.4,0.4,0.6c0.1,0.2,0.1,0.4,0.1,0.6
	c0,0.2,0,0.4-0.1,0.6s-0.2,0.4-0.4,0.6L30.9,44H26.5z M40.2,32.1l-1.8-1.9L40.2,32.1z M28.2,42.2h1.9l6.9-6.9l-0.9-1l-0.9-1l-7,7
	C28.2,40.3,28.2,42.2,28.2,42.2z M36.1,34.3l-0.9-1l1.9,1.9L36.1,34.3z M13.4,19h14.8v-5.6H13.4V19z M24,32.9c0.4,0,0.9,0,1.3-0.1
	s0.8-0.3,1.1-0.5l0.6-0.6c0.2-0.3,0.4-0.7,0.5-1.1s0.2-0.9,0.2-1.3c0-1-0.4-1.9-1.1-2.6S25,25.6,24,25.6s-1.8,0.4-2.6,1.1
	c-0.7,0.7-1.1,1.6-1.1,2.6s0.4,1.8,1.1,2.6C22.1,32.6,23,32.9,24,32.9z"/>
</svg>
