<?xml version="1.0" encoding="utf-8"?>
<!-- Generator: Adobe Illustrator 26.3.1, SVG Export Plug-In . SVG Version: 6.00 Build 0)  -->
<svg version="1.1" id="Слой_1" xmlns="http://www.w3.org/2000/svg" xmlns:xlink="http://www.w3.org/1999/xlink" x="0px" y="0px"
	 viewBox="0 0 48 48" style="enable-background:new 0 0 48 48;" xml:space="preserve">
<path d="M9.5,38.5V9.1v13.2v-0.1V38.5z M10.8,40c-0.8,0-1.4-0.3-2-0.8C8.3,38.7,8,38,8,37.2V10.3c0-0.8,0.3-1.4,0.8-2
	c0.5-0.5,1.2-0.8,2-0.8h22.5l6.8,6.8v8.3c-0.2-0.1-0.5-0.2-0.8-0.2s-0.5-0.1-0.8-0.1V15l-5.9-5.9H10.8c-0.4,0-0.7,0.1-0.9,0.3
	s-0.3,0.5-0.3,0.9v26.9c0,0.3,0.1,0.6,0.4,0.8c0.3,0.3,0.5,0.4,0.8,0.4h14.9c0.1,0.3,0.2,0.6,0.4,0.8c0.1,0.3,0.3,0.5,0.4,0.7
	C26.5,40,10.8,40,10.8,40z M25,33.1C25,33,25,33,25,33.1L25,33.1c0.1-1.1,0.3-2.1,0.7-3.1c0.4-1,0.8-1.9,1.4-2.7
	c-0.4-0.5-0.9-0.9-1.5-1.1c-0.6-0.3-1.2-0.4-1.8-0.4c-1,0-1.8,0.3-2.5,1s-1,1.5-1,2.5c0,1.2,0.5,2.1,1.4,2.8
	C22.7,32.8,23.8,33.1,25,33.1z M37,42c-2.2,0-4-0.7-5.5-2.2s-2.2-3.3-2.2-5.5s0.7-4,2.2-5.5s3.3-2.2,5.5-2.2s4,0.7,5.5,2.2
	s2.2,3.3,2.2,5.5s-0.7,4-2.2,5.5S39.2,42,37,42z M37.6,34.1v-5.4h-1.5v6l4.1,4.1l1.1-1.1L37.6,34.1z M13.4,19h14.8v-5.6H13.4V19z"/>
</svg>
