<?xml version="1.0" encoding="utf-8"?>
<!-- Generator: Adobe Illustrator 26.3.1, SVG Export Plug-In . SVG Version: 6.00 Build 0)  -->
<svg version="1.1" id="Слой_1" xmlns="http://www.w3.org/2000/svg" xmlns:xlink="http://www.w3.org/1999/xlink" x="0px" y="0px"
	 viewBox="0 0 48 48" style="enable-background:new 0 0 48 48;" xml:space="preserve">
<path d="M32,21.5c0.4,0,0.8-0.2,1.1-0.5s0.5-0.7,0.5-1.1s-0.2-0.8-0.5-1.1c-0.3-0.3-0.7-0.5-1.1-0.5s-0.8,0.2-1.1,0.5
	c-0.3,0.3-0.5,0.7-0.5,1.1s0.2,0.8,0.5,1.1C31.2,21.4,31.6,21.5,32,21.5z M16,16.5h10V15H16V16.5z M10.5,40c-1-3.5-2-7-3-10.4
	S6,22.6,6,19c0-2.5,0.9-4.6,2.6-6.4c1.7-1.7,3.9-2.6,6.4-2.6h11c0.9-1.1,1.9-2.1,3.1-2.9C30.2,6.4,31.6,6,33,6
	c0.3,0,0.5,0.1,0.7,0.3C33.9,6.5,34,6.7,34,7c0,0.1,0,0.1,0,0.2s0,0.1-0.1,0.2c-0.2,0.6-0.4,1.2-0.6,1.8c-0.1,0.6-0.3,1.3-0.4,1.9
	l5.9,5.9H42v10.5l-5.3,1.7L33.5,40H26v-4h-8v4H10.5z M11.7,38.5h4.8v-4h11.1v4h4.8l3.1-10.4l5-1.7v-7.8h-2.3l-6.7-6.7
	c0-0.8,0.1-1.5,0.2-2.2s0.3-1.4,0.5-2c-1.1,0.3-2.1,0.8-3,1.4c-0.9,0.7-1.6,1.5-2.2,2.5H15c-2.1,0-3.8,0.7-5.3,2.2
	c-1.4,1.4-2.2,3.2-2.2,5.3c0,3.4,0.5,6.6,1.4,9.8C9.9,32,10.8,35.2,11.7,38.5z"/>
</svg>
