<?xml version="1.0" encoding="utf-8"?>
<!-- Generator: Adobe Illustrator 26.3.1, SVG Export Plug-In . SVG Version: 6.00 Build 0)  -->
<svg version="1.1" id="Слой_1" xmlns="http://www.w3.org/2000/svg" xmlns:xlink="http://www.w3.org/1999/xlink" x="0px" y="0px"
	 viewBox="0 0 48 48" style="enable-background:new 0 0 48 48;" xml:space="preserve">
<path d="M7.5,40.5C7.6,38,8,35.8,8.8,33.9c0.8-1.9,1.7-3.6,3-4.9c1.2-1.4,2.7-2.5,4.3-3.3s3.3-1.4,5.2-1.7v-6.4
	c-4.4-0.5-7.7-1.6-9.9-3.5c-2.2-1.8-3.4-4-3.7-6.4h32.8c-0.3,2.4-1.6,4.6-3.7,6.4c-2.2,1.8-5.5,3-9.9,3.5V24
	c1.8,0.3,3.6,0.9,5.2,1.7c1.6,0.8,3,2,4.3,3.3c1.2,1.4,2.2,3,3,4.9s1.2,4.1,1.3,6.6H31V39h7.9c-0.7-4.7-2.4-8.1-5.1-10.4
	c-2.7-2.3-6-3.4-9.8-3.4s-7.1,1.1-9.8,3.4S9.8,34.3,9.1,39H17v1.5H7.5z M24,16c4.5,0,7.9-0.8,10.3-2.4s3.8-3.1,4.1-4.6H9.6
	c0.4,1.5,1.7,3,4.1,4.6S19.5,16,24,16z M24,40.5c-0.8,0-1.6-0.3-2.1-0.9C21.3,39,21,38.3,21,37.5c0-0.4,0.1-0.8,0.2-1.1
	c0.2-0.4,0.4-0.7,0.7-0.9c0.5-0.5,1.7-1.2,3.3-2c1.7-0.8,3.3-1.5,5-2.2c-0.7,1.6-1.4,3.2-2.2,4.9c-0.8,1.7-1.4,2.9-2,3.4
	c-0.3,0.3-0.6,0.5-0.9,0.7C24.8,40.4,24.4,40.5,24,40.5z"/>
</svg>
