<?xml version="1.0" encoding="utf-8"?>
<!-- Generator: Adobe Illustrator 26.3.1, SVG Export Plug-In . SVG Version: 6.00 Build 0)  -->
<svg version="1.1" id="Слой_1" xmlns="http://www.w3.org/2000/svg" xmlns:xlink="http://www.w3.org/1999/xlink" x="0px" y="0px"
	 viewBox="0 0 48 48" style="enable-background:new 0 0 48 48;" xml:space="preserve">
<path d="M37,26.5L9.8,16.1l0.5-1.5L37,24.8c1.1,0.4,1.9,1,2.4,1.8c0.4,0.8,0.6,1.7,0.6,2.7v5.9c0,0.8-0.3,1.4-0.8,2
	c-0.5,0.5-1.2,0.8-2,0.8H10.8c-0.8,0-1.4-0.3-2-0.8C8.3,36.7,8,36,8,35.2v-6c0-0.8,0.3-1.4,0.8-2c0.5-0.5,1.2-0.8,2-0.8
	C10.8,26.5,37,26.5,37,26.5z M37.2,36.5c0.3,0,0.6-0.1,0.8-0.4c0.3-0.3,0.4-0.5,0.4-0.8v-6c0-0.3-0.1-0.6-0.4-0.8
	c-0.3-0.3-0.5-0.4-0.8-0.4H10.8c-0.3,0-0.6,0.1-0.8,0.4c-0.3,0.3-0.4,0.5-0.4,0.8v6c0,0.3,0.1,0.6,0.4,0.8s0.5,0.4,0.8,0.4H37.2z
	 M19.8,33H35v-1.5H19.8V33z M13.8,33.5c0.4,0,0.7-0.1,0.9-0.4c0.2-0.3,0.4-0.6,0.4-0.9c0-0.4-0.1-0.7-0.4-0.9
	c-0.3-0.2-0.6-0.4-0.9-0.4c-0.4,0-0.7,0.1-0.9,0.4s-0.4,0.6-0.4,0.9c0,0.4,0.1,0.7,0.4,0.9C13.1,33.4,13.4,33.5,13.8,33.5z
	 M9.5,36.5V28V36.5z"/>
</svg>
