<?xml version="1.0" encoding="utf-8"?>
<!-- Generator: Adobe Illustrator 26.3.1, SVG Export Plug-In . SVG Version: 6.00 Build 0)  -->
<svg version="1.1" id="Слой_1" xmlns="http://www.w3.org/2000/svg" xmlns:xlink="http://www.w3.org/1999/xlink" x="0px" y="0px"
	 viewBox="0 0 48 48" style="enable-background:new 0 0 48 48;" xml:space="preserve">
<path d="M12.8,42c-0.7,0-1.4-0.3-1.9-0.8c-0.6-0.6-0.9-1.2-0.9-2v-6.9h1.5v6.9c0,0.4,0.1,0.7,0.3,0.9s0.5,0.3,0.9,0.3h22.5
	c0.4,0,0.7-0.1,0.9-0.3s0.3-0.5,0.3-0.9v-6.9H38v6.9c0,0.7-0.3,1.4-0.8,1.9c-0.6,0.6-1.2,0.9-2,0.9H12.8z M10,23.7V8.8
	c0-0.7,0.3-1.4,0.8-1.9C11.4,6.3,12,6,12.8,6h16.7l8.5,8.5v9.2h-1.5v-8.5h-7.8V7.5H12.8c-0.4,0-0.7,0.1-0.9,0.3
	c-0.2,0.2-0.3,0.5-0.3,0.9v14.9C11.5,23.7,10,23.7,10,23.7z M3.2,28.8v-1.5h41.7v1.5H3.2z"/>
</svg>
