<?xml version="1.0" encoding="utf-8"?>
<!-- Generator: Adobe Illustrator 26.3.1, SVG Export Plug-In . SVG Version: 6.00 Build 0)  -->
<svg version="1.1" id="Слой_1" xmlns="http://www.w3.org/2000/svg" xmlns:xlink="http://www.w3.org/1999/xlink" x="0px" y="0px"
	 viewBox="0 0 48 48" style="enable-background:new 0 0 48 48;" xml:space="preserve">
<path d="M11.5,7.5v7.7V7.5v32.9V7.5z M12.8,42c-0.8,0-1.4-0.3-2-0.8c-0.5-0.5-0.8-1.2-0.8-2V8.8c0-0.8,0.3-1.4,0.8-2
	C11.3,6.3,12,6,12.8,6h16.7l8.5,8.5v10.9c-0.2-0.1-0.5-0.1-0.8-0.2c-0.3,0-0.5-0.1-0.8-0.1v-9.9h-7.8V7.5H12.8
	c-0.3,0-0.6,0.1-0.8,0.4c-0.2,0.3-0.4,0.5-0.4,0.8v30.5c0,0.3,0.1,0.6,0.4,0.8c0.3,0.3,0.5,0.4,0.8,0.4h13.1
	c0.1,0.3,0.3,0.6,0.4,0.8c0.2,0.3,0.4,0.5,0.6,0.7C26.9,42,12.8,42,12.8,42z M31.8,41.4l-1.1-1.1l4.2-4.2L30.7,32l1.1-1.1l4.2,4.2
	l4.2-4.2l1.1,1.1l-4.2,4.2l4.2,4.2l-1.1,1.1L36,37.3L31.8,41.4z"/>
</svg>
