<?xml version="1.0" encoding="utf-8"?>
<!-- Generator: Adobe Illustrator 26.3.1, SVG Export Plug-In . SVG Version: 6.00 Build 0)  -->
<svg version="1.1" id="Слой_1" xmlns="http://www.w3.org/2000/svg" xmlns:xlink="http://www.w3.org/1999/xlink" x="0px" y="0px"
	 viewBox="0 0 48 48" style="enable-background:new 0 0 48 48;" xml:space="preserve">
<path d="M33.8,39.5c-1.6,0-3-0.6-4.1-1.7s-1.7-2.5-1.7-4c0-1.6,0.6-3,1.7-4.1s2.5-1.7,4.1-1.7c1.6,0,2.9,0.6,4,1.7s1.7,2.5,1.7,4.1
	s-0.6,2.9-1.7,4C36.8,39,35.4,39.5,33.8,39.5z M33.8,38c1.2,0,2.2-0.4,3-1.2s1.2-1.8,1.2-3s-0.4-2.2-1.2-3s-1.8-1.2-3-1.2
	s-2.2,0.4-3,1.2c-0.8,0.8-1.2,1.8-1.2,3s0.4,2.2,1.2,3S32.6,38,33.8,38z M14.2,33.3c-1.6,0-2.9-0.6-4-1.7c-1.1-1.1-1.7-2.5-1.7-4
	s0.6-3,1.7-4.1s2.5-1.7,4-1.7s3,0.6,4.1,1.7c1.1,1.1,1.7,2.5,1.7,4.1s-0.6,2.9-1.7,4C17.1,32.8,15.8,33.3,14.2,33.3z M14.2,31.8
	c1.2,0,2.2-0.4,3-1.2c0.8-0.8,1.2-1.8,1.2-3s-0.4-2.2-1.2-3c-0.8-0.8-1.8-1.2-3-1.2s-2.2,0.4-3,1.2c-0.8,0.8-1.2,1.8-1.2,3
	s0.4,2.2,1.2,3C12,31.4,13,31.8,14.2,31.8z M21.9,18.2c-1.6,0-2.9-0.6-4-1.7s-1.7-2.5-1.7-4.1s0.6-2.9,1.7-4s2.5-1.7,4-1.7
	c1.6,0,3,0.6,4.1,1.7s1.7,2.4,1.7,4s-0.6,3-1.7,4.1C24.9,17.7,23.5,18.2,21.9,18.2z M21.9,16.7c1.2,0,2.2-0.4,3-1.2s1.2-1.8,1.2-3
	s-0.4-2.2-1.2-3c-0.8-0.8-1.8-1.2-3-1.2s-2.2,0.4-3,1.2s-1.2,1.8-1.2,3s0.4,2.2,1.2,3C19.8,16.3,20.8,16.7,21.9,16.7z"/>
</svg>
