<?xml version="1.0" encoding="utf-8"?>
<!-- Generator: Adobe Illustrator 26.3.1, SVG Export Plug-In . SVG Version: 6.00 Build 0)  -->
<svg version="1.1" id="Слой_1" xmlns="http://www.w3.org/2000/svg" xmlns:xlink="http://www.w3.org/1999/xlink" x="0px" y="0px"
	 viewBox="0 0 48 48" style="enable-background:new 0 0 48 48;" xml:space="preserve">
<path d="M41.5,43V13.8c0-1.4-0.5-2.7-1.5-3.7s-2.3-1.5-3.7-1.5H33v2.8c0,0.3-0.1,0.6-0.3,0.8s-0.5,0.3-0.8,0.3h-8.7
	c-0.5,0-0.8-0.2-1-0.6c-0.2-0.4-0.2-0.8,0-1.2L25.3,4c0.2-0.4,0.4-0.7,0.7-0.9c0.2,0,0.6-0.1,1.1-0.1h4.4c0.4,0,0.8,0.1,1.1,0.4
	C32.9,3.7,33,4.1,33,4.5V7h3.2c1.9,0,3.5,0.7,4.8,2s2,2.9,2,4.8V43H41.5z M23.8,11h7.7V4.5h-4.8L23.8,11z M9.8,43
	c-1.4,0-2.5-0.5-3.4-1.4S5,39.6,5,38.2v-5c0-1,0.4-1.8,1.1-2.6c0.7-0.8,1.7-1.2,2.9-1.2v-5.2c0-0.7,0.3-1.4,0.8-1.9
	c0.6-0.6,1.2-0.8,1.9-0.8h16c0.7,0,1.4,0.3,1.9,0.8c0.6,0.6,0.8,1.2,0.8,1.9v5.2c1.3,0,2.2,0.4,2.9,1.1s1.1,1.6,1.1,2.6v5
	c0,1.4-0.5,2.5-1.4,3.4s-2,1.4-3.4,1.4L9.8,43L9.8,43z M10.5,24.2v5.6c0.6,0.4,1.1,0.9,1.4,1.5c0.4,0.7,0.6,1.3,0.6,1.9v2.2H27v-2.2
	c0-0.6,0.2-1.3,0.6-1.9c0.4-0.7,0.8-1.2,1.4-1.5v-5.6c0-0.4-0.1-0.7-0.3-0.9c-0.2-0.2-0.5-0.3-0.9-0.3h-16c-0.4,0-0.7,0.1-0.9,0.3
	C10.7,23.6,10.5,23.9,10.5,24.2z M9.8,41.5h20c1,0,1.8-0.3,2.3-1c0.6-0.7,0.9-1.4,0.9-2.2v-5c0-0.6-0.2-1.2-0.6-1.6
	c-0.4-0.4-1-0.6-1.6-0.6s-1.2,0.2-1.6,0.6s-0.6,1-0.6,1.6V37H11v-3.8c0-0.6-0.2-1.2-0.6-1.6C10,31.2,9.4,31,8.8,31
	c-0.7,0-1.2,0.2-1.6,0.6s-0.6,1-0.6,1.6v5c0,0.8,0.3,1.5,0.9,2.2S8.8,41.5,9.8,41.5z M27,35.5H12.5H27z M10.5,23H29H10.5z M11,41.5
	h17.5H11z"/>
</svg>
