<?xml version="1.0" encoding="utf-8"?>
<!-- Generator: Adobe Illustrator 26.3.1, SVG Export Plug-In . SVG Version: 6.00 Build 0)  -->
<svg version="1.1" id="Слой_1" xmlns="http://www.w3.org/2000/svg" xmlns:xlink="http://www.w3.org/1999/xlink" x="0px" y="0px"
	 viewBox="0 0 48 48" style="enable-background:new 0 0 48 48;" xml:space="preserve">
<path d="M9.8,44.2v-8H14V28H9.8v-8H14v-8.2H9.8v-8h10v8h-4.2V20h4.2v3.2h10.5V20h10v8h-10v-3.2H19.8V28h-4.2v8.2h4.2v8H9.8z
	 M11.3,42.7h6.9v-4.9h-6.9C11.3,37.8,11.3,42.7,11.3,42.7z M11.3,26.5h6.9v-4.9h-6.9C11.3,21.5,11.3,26.5,11.3,26.5z M31.8,26.5h6.9
	v-4.9h-6.9C31.8,21.6,31.8,26.5,31.8,26.5z M11.3,10.2h6.9V5.3h-6.9C11.3,5.3,11.3,10.2,11.3,10.2z"/>
</svg>
