<?xml version="1.0" encoding="utf-8"?>
<!-- Generator: Adobe Illustrator 26.3.1, SVG Export Plug-In . SVG Version: 6.00 Build 0)  -->
<svg version="1.1" id="Слой_1" xmlns="http://www.w3.org/2000/svg" xmlns:xlink="http://www.w3.org/1999/xlink" x="0px" y="0px"
	 viewBox="0 0 48 48" style="enable-background:new 0 0 48 48;" xml:space="preserve">
<path d="M9.4,40c-0.7,0-1.2-0.3-1.5-1s-0.2-1.3,0.3-1.8l12.2-14.3V9.5h-3.1c-0.2,0-0.4-0.1-0.5-0.2c-0.1-0.1-0.2-0.3-0.2-0.6
	c0-0.2,0.1-0.4,0.2-0.5C16.8,8.1,17,8,17.2,8h13.5c0.2,0,0.4,0.1,0.5,0.2c0.1,0.1,0.2,0.3,0.2,0.6c0,0.2-0.1,0.4-0.2,0.5
	s-0.3,0.2-0.5,0.2h-3.1v13.4l12.2,14.3c0.5,0.6,0.6,1.2,0.3,1.8c-0.3,0.7-0.8,1-1.5,1H9.4z M9.1,38.5h29.8l-12.8-15v-14h-4.3v13.9
	C21.8,23.5,9.1,38.5,9.1,38.5z"/>
</svg>
