<?xml version="1.0" encoding="utf-8"?>
<!-- Generator: Adobe Illustrator 26.3.1, SVG Export Plug-In . SVG Version: 6.00 Build 0)  -->
<svg version="1.1" id="Слой_1" xmlns="http://www.w3.org/2000/svg" xmlns:xlink="http://www.w3.org/1999/xlink" x="0px" y="0px"
	 viewBox="0 0 48 48" style="enable-background:new 0 0 48 48;" xml:space="preserve">
<path d="M10.8,40c-0.8,0-1.4-0.3-2-0.8C8.3,38.7,8,38,8,37.2V10.8c0-0.8,0.3-1.4,0.8-2C9.3,8.3,10,8,10.8,8h26.5
	c0.8,0,1.4,0.3,2,0.8c0.5,0.5,0.8,1.2,0.8,2v26.5c0,0.8-0.3,1.4-0.8,2c-0.5,0.5-1.2,0.8-2,0.8L10.8,40L10.8,40z M17.8,26.9l8.2,8.2
	l12.5-12.5V10.8c0-0.3-0.1-0.6-0.4-0.8c-0.3-0.3-0.5-0.4-0.8-0.4H10.8c-0.3,0-0.6,0.1-0.8,0.4c-0.3,0.3-0.4,0.5-0.4,0.8v24.5
	C9.5,35.2,17.8,26.9,17.8,26.9z M24.8,23.2V12.5h1.5v10.8L24.8,23.2L24.8,23.2z M30,23.2l-3.7-5.4l3.7-5.4h2l-3.7,5.2l3.7,5.5
	C32,23.2,30,23.2,30,23.2z M14.5,23.2V17h5.1v-3h-5.1v-1.5h6.6v6H16v3.2h5.1v1.5H14.5z M17.8,29.3l-8.4,8.4c0,0.1,0.1,0.3,0.3,0.5
	s0.5,0.3,0.9,0.3h26.6c0.3,0,0.6-0.1,0.8-0.4c0.3-0.3,0.4-0.5,0.4-0.8V25L26,37.5L17.8,29.3z M9.5,37.2v1.2V9.5V37.2z"/>
</svg>
