<?xml version="1.0" encoding="utf-8"?>
<!-- Generator: Adobe Illustrator 26.3.1, SVG Export Plug-In . SVG Version: 6.00 Build 0)  -->
<svg version="1.1" id="Слой_1" xmlns="http://www.w3.org/2000/svg" xmlns:xlink="http://www.w3.org/1999/xlink" x="0px" y="0px"
	 viewBox="0 0 48 48" style="enable-background:new 0 0 48 48;" xml:space="preserve">
<path d="M29.9,29.2c-0.3,0-0.6-0.1-0.9-0.4c-0.2-0.2-0.4-0.5-0.4-0.9v-8c0-0.3,0.1-0.6,0.4-0.9c0.2-0.3,0.5-0.4,0.9-0.4h5
	c0.3,0,0.6,0.1,0.9,0.4c0.3,0.3,0.4,0.6,0.4,0.9v8c0,0.3-0.1,0.6-0.4,0.9c-0.3,0.2-0.6,0.4-0.9,0.4H29.9z M30.1,27.7h4.5v-7.5h-4.5
	C30.1,20.2,30.1,27.7,30.1,27.7z M11.9,29.2v-4.7c0-0.3,0.2-0.7,0.5-1s0.6-0.4,1-0.4h4.5v-2.9h-6v-1.5h6.3c0.3,0,0.6,0.1,0.9,0.4
	c0.2,0.3,0.4,0.6,0.4,0.9v3.5c0,0.3-0.1,0.7-0.4,1s-0.6,0.4-1,0.4h-4.6v2.9h6v1.5L11.9,29.2L11.9,29.2z M23.2,21.7v-1.8h1.5v1.8
	H23.2z M23.2,28.3v-1.8h1.5v1.8H23.2z M8.7,37.6c-0.8,0-1.4-0.3-2-0.8c-0.5-0.5-0.8-1.2-0.8-2V13.4c0-0.8,0.3-1.4,0.8-2
	c0.5-0.5,1.2-0.8,2-0.8h6.5v-4h1.5v4h14.5v-4h1.5v4h6.5c0.8,0,1.4,0.3,2,0.8c0.5,0.5,0.8,1.2,0.8,2v21.4c0,0.8-0.3,1.4-0.8,2
	c-0.5,0.5-1.2,0.8-2,0.8C39.3,37.6,8.7,37.6,8.7,37.6z M8.9,35.8h14.3v-2.5h1.5v2.5H39c0.3,0,0.6-0.1,0.8-0.4s0.4-0.5,0.4-0.8V13.7
	c0-0.3-0.1-0.6-0.4-0.8c-0.3-0.3-0.5-0.4-0.8-0.4H24.8V15h-1.5v-2.5H8.9c-0.3,0-0.6,0.1-0.8,0.4c-0.3,0.3-0.4,0.5-0.4,0.8v20.9
	c0,0.3,0.1,0.6,0.4,0.8S8.6,35.8,8.9,35.8z M7.7,35.8V12.4V35.8z"/>
</svg>
