<?xml version="1.0" encoding="utf-8"?>
<!-- Generator: Adobe Illustrator 26.3.1, SVG Export Plug-In . SVG Version: 6.00 Build 0)  -->
<svg version="1.1" id="Слой_1" xmlns="http://www.w3.org/2000/svg" xmlns:xlink="http://www.w3.org/1999/xlink" x="0px" y="0px"
	 viewBox="0 0 48 48" style="enable-background:new 0 0 48 48;" xml:space="preserve">
<path d="M26.8,43.9l-1.1-1.1l4.9-4.9H16.8c-0.8,0-1.4-0.3-2-0.8c-0.5-0.5-0.8-1.2-0.8-2V17.4l1.5,1.5v16.3c0,0.4,0.1,0.7,0.3,0.9
	s0.5,0.3,0.9,0.3h13.8l-4.8-4.9l1.1-1.1l6.8,6.8L26.8,43.9z M34,30.6l-1.5-1.5V12.8c0-0.4-0.1-0.7-0.3-0.9s-0.5-0.3-0.9-0.3H17.4
	l4.8,4.9l-1.1,1.1l-6.8-6.7L21.2,4l1.1,1.1L17.4,10h13.9c0.8,0,1.4,0.3,2,0.8c0.5,0.5,0.8,1.2,0.8,2L34,30.6L34,30.6z"/>
</svg>
