<?xml version="1.0" encoding="utf-8"?>
<!-- Generator: Adobe Illustrator 26.3.1, SVG Export Plug-In . SVG Version: 6.00 Build 0)  -->
<svg version="1.1" id="Слой_1" xmlns="http://www.w3.org/2000/svg" xmlns:xlink="http://www.w3.org/1999/xlink" x="0px" y="0px"
	 viewBox="0 0 48 48" style="enable-background:new 0 0 48 48;" xml:space="preserve">
<path d="M24,29.2c-1.4,0-2.7-0.5-3.7-1.5s-1.5-2.3-1.5-3.7c0-1.4,0.5-2.7,1.5-3.7s2.3-1.5,3.7-1.5c1.4,0,2.7,0.5,3.7,1.5
	s1.5,2.3,1.5,3.7c0,1.4-0.5,2.7-1.5,3.7S25.4,29.2,24,29.2z M24,30.8c1.9,0,3.5-0.7,4.8-2s2-2.9,2-4.8s-0.7-3.5-2-4.8s-2.9-2-4.8-2
	s-3.5,0.7-4.8,2s-2,2.9-2,4.8s0.7,3.5,2,4.8C20.5,30.1,22.1,30.8,24,30.8z M8.8,38c-0.8,0-1.4-0.3-2-0.8C6.3,36.7,6,36,6,35.2V12.8
	c0-0.8,0.3-1.4,0.8-2C7.3,10.3,8,10,8.8,10h30.5c0.8,0,1.4,0.3,2,0.8c0.5,0.5,0.8,1.2,0.8,2v22.5c0,0.8-0.3,1.4-0.8,2
	c-0.5,0.5-1.2,0.8-2,0.8L8.8,38L8.8,38z M8.8,36.5h30.5c0.3,0,0.6-0.1,0.8-0.4c0.3-0.3,0.4-0.5,0.4-0.8V12.8c0-0.3-0.1-0.6-0.4-0.8
	c-0.3-0.3-0.5-0.4-0.8-0.4H8.8c-0.3,0-0.6,0.1-0.8,0.4c-0.3,0.3-0.4,0.5-0.4,0.8v22.5c0,0.3,0.1,0.6,0.4,0.8
	C8.2,36.3,8.5,36.5,8.8,36.5z M7.5,36.5v-25V36.5z"/>
</svg>
