<?xml version="1.0" encoding="utf-8"?>
<!-- Generator: Adobe Illustrator 26.3.1, SVG Export Plug-In . SVG Version: 6.00 Build 0)  -->
<svg version="1.1" id="Слой_1" xmlns="http://www.w3.org/2000/svg" xmlns:xlink="http://www.w3.org/1999/xlink" x="0px" y="0px"
	 viewBox="0 0 48 48" style="enable-background:new 0 0 48 48;" xml:space="preserve">
<path d="M25.2,40.8L10.8,26.5H13l13.3,13.3c0.2,0.3,0.5,0.4,0.9,0.4s0.7-0.1,0.9-0.4l11.7-11.6h-7.4v-1.5h10v10h-1.5v-7.4L29.1,40.8
	c-0.6,0.5-1.2,0.8-2,0.8C26.4,41.6,25.7,41.3,25.2,40.8z M5.6,21.4v-10h1.5v7.4L18.9,7.2c0.6-0.5,1.2-0.8,2-0.8s1.4,0.3,2,0.8
	l14.4,14.3H35L21.7,8.2c-0.2-0.3-0.5-0.4-0.9-0.4S20.1,8,19.9,8.2L8.2,19.9h7.4v1.5H5.6z"/>
</svg>
