<?xml version="1.0" encoding="utf-8"?>
<!-- Generator: Adobe Illustrator 26.3.1, SVG Export Plug-In . SVG Version: 6.00 Build 0)  -->
<svg version="1.1" id="Слой_1" xmlns="http://www.w3.org/2000/svg" xmlns:xlink="http://www.w3.org/1999/xlink" x="0px" y="0px"
	 viewBox="0 0 48 48" style="enable-background:new 0 0 48 48;" xml:space="preserve">
<path d="M6.8,38c-0.7,0-1.4-0.3-1.9-0.8C4.3,36.6,4,36,4,35.2V12.8c0-0.7,0.3-1.4,0.8-1.9C5.4,10.3,6,10,6.8,10h34.5
	c0.7,0,1.4,0.3,1.9,0.8S44,12,44,12.7v22.5c0,0.7-0.3,1.4-0.8,1.9c-0.6,0.6-1.2,0.9-2,0.9H6.8z M8.3,11.5H6.8
	c-0.4,0-0.7,0.1-0.9,0.3c-0.2,0.2-0.3,0.5-0.3,0.9v22.5c0,0.4,0.1,0.7,0.3,0.9c0.2,0.2,0.5,0.3,0.9,0.3h1.5V11.5z M9.8,36.5h28.3
	v-25H9.8V36.5z M39.7,11.5v24.9h1.5c0.4,0,0.7-0.1,0.9-0.3s0.3-0.5,0.3-0.9V12.8c0-0.4-0.1-0.7-0.3-0.9s-0.5-0.3-0.9-0.3h-1.5V11.5z
	 M39.7,11.5h2.8H39.7z M8.3,11.5H5.5H8.3z M28.5,33.2h6.4v-6.4h-1.3v5.1h-5.1C28.5,31.9,28.5,33.2,28.5,33.2z M13.1,21.2h1.3v-5.1
	h5.1v-1.3h-6.4V21.2z"/>
</svg>
