<?xml version="1.0" encoding="utf-8"?>
<!-- Generator: Adobe Illustrator 26.3.1, SVG Export Plug-In . SVG Version: 6.00 Build 0)  -->
<svg version="1.1" id="Слой_1" xmlns="http://www.w3.org/2000/svg" xmlns:xlink="http://www.w3.org/1999/xlink" x="0px" y="0px"
	 viewBox="0 0 48 48" style="enable-background:new 0 0 48 48;" xml:space="preserve">
<path d="M17,34c0.2,0,0.4-0.1,0.6-0.2c0.2-0.1,0.3-0.3,0.3-0.6c0.1-0.6,0.1-1.2,0.2-1.8c0.1-0.6,0.1-1.1,0.1-1.6
	c0-0.4,0.1-0.7,0.1-1.1s0.1-0.8,0.2-1.2c0.9-0.1,1.8-0.2,2.7-0.3c0.9-0.1,1.8-0.2,2.6-0.3c0.9-0.1,1.7-0.1,2.5-0.2
	c0.8,0,1.6-0.1,2.4-0.2c0.1,0.6,0.3,1.3,0.4,1.9s0.3,1.3,0.5,2c0.2,0.6,0.4,1.1,0.6,1.7s0.5,1,0.8,1.5c0.2,0.3,0.4,0.4,0.6,0.6
	c0.2,0.1,0.5,0.1,0.7,0.1c0.3-0.1,0.5-0.2,0.5-0.5s0-0.6-0.2-0.9c-0.3-0.6-0.5-1.3-0.8-1.9c-0.2-0.6-0.4-1.2-0.5-1.8
	c-0.1-0.4-0.2-0.9-0.3-1.3c-0.1-0.4-0.2-0.9-0.3-1.3c0.1,0,0.3,0,0.5,0s0.4,0,0.5,0c0.4,0,0.6-0.2,0.9-0.3c0.2-0.2,0.3-0.4,0.3-0.7
	c0-0.3-0.1-0.5-0.4-0.7c-0.3-0.2-0.6-0.2-1-0.2c-0.2,0.1-0.3,0.1-0.5,0.1s-0.4,0-0.5,0.1c-0.1-0.6-0.2-1.2-0.2-1.7
	c-0.1-0.6-0.1-1.2-0.2-1.7c-0.1-0.6-0.2-1.2-0.3-1.8c-0.1-0.5-0.2-1.1-0.4-1.6c-0.1-0.6-0.4-1.1-0.6-1.6c-0.3-0.5-0.6-0.9-1-1.3
	c-0.3-0.3-0.7-0.5-1.1-0.7s-0.8-0.3-1.2-0.3c-0.6,0-1.1,0.1-1.6,0.3S23,15,22.6,15.3c-0.5,0.4-0.9,0.9-1.4,1.4
	c-0.4,0.5-0.8,1.1-1.2,1.8c-0.1-0.2-0.3-0.5-0.4-0.6c-0.2-0.2-0.4-0.2-0.6-0.2s-0.4,0.1-0.5,0.2s-0.2,0.3-0.2,0.4
	c0,0.9-0.1,1.8-0.2,2.7c-0.1,0.9-0.3,1.8-0.5,2.6c-0.1,0.5-0.2,1-0.4,1.5c-0.1,0.5-0.3,1-0.4,1.6c-0.2,0-0.4,0-0.6,0s-0.3,0-0.5,0.1
	c-0.2,0-0.4,0.1-0.5,0.2C15,27.1,15,27.3,15,27.5s0,0.3,0.1,0.5c0.1,0.1,0.2,0.2,0.4,0.2c0.1,0,0.3,0.1,0.5,0.1c0.2,0,0.4,0,0.6,0
	c0,0.5-0.1,1.1-0.1,1.6c-0.1,0.5-0.1,1.1-0.1,1.7c0,0.3,0,0.6,0,1s0,0.7,0,0.9c0,0.3,0.1,0.5,0.3,0.7C16.6,33.9,16.8,34,17,34z
	 M19.3,25.5c0.3-1.1,0.5-2.1,0.8-3.1s0.6-1.9,1-2.8c0.4-0.8,0.9-1.6,1.6-2.5s1.5-1.4,2.6-1.4c0.7,0,1.3,0.3,1.6,1
	c0.3,0.7,0.6,1.5,0.7,2.4c0.2,0.9,0.3,1.8,0.4,2.8s0.2,1.9,0.3,2.8c-0.8,0-1.5,0.1-2.3,0.1c-0.8,0.1-1.5,0.1-2.3,0.2
	c-0.7,0.1-1.5,0.1-2.3,0.2C20.8,25.3,20.1,25.4,19.3,25.5z M8.8,42c-0.7,0-1.4-0.3-1.9-0.8C6.3,40.6,6,40,6,39.2V8.8
	c0-0.8,0.3-1.4,0.8-2C7.4,6.3,8,6,8.8,6h30.5c0.7,0,1.4,0.3,1.9,0.8S42,8,42,8.8v30.5c0,0.7-0.3,1.4-0.8,1.9S40,42,39.2,42H8.8z
	 M8.8,40.5h30.5c0.4,0,0.7-0.1,0.9-0.3s0.3-0.5,0.3-0.9V8.8c0-0.4-0.1-0.7-0.3-0.9c-0.2-0.2-0.5-0.3-0.9-0.3H8.8
	c-0.4,0-0.7,0.1-0.9,0.3S7.5,8.4,7.5,8.8v30.5c0,0.4,0.1,0.7,0.3,0.9C8.1,40.3,8.4,40.5,8.8,40.5z M7.5,40.5v-33V40.5z"/>
</svg>
