<?xml version="1.0" encoding="utf-8"?>
<!-- Generator: Adobe Illustrator 26.3.1, SVG Export Plug-In . SVG Version: 6.00 Build 0)  -->
<svg version="1.1" id="Слой_1" xmlns="http://www.w3.org/2000/svg" xmlns:xlink="http://www.w3.org/1999/xlink" x="0px" y="0px"
	 viewBox="0 0 48 48" style="enable-background:new 0 0 48 48;" xml:space="preserve">
<path d="M10.8,40c-0.7,0-1.4-0.3-1.9-0.8S8,38,8,37.2V13.6c0-0.1,0-0.3,0-0.4c0-0.2,0.1-0.3,0.2-0.4L11,9.4c0.1-0.1,0.2-0.2,0.4-0.3
	C11.5,9,11.7,9,11.9,9h24.3c0.2,0,0.3,0,0.5,0.1c0.1,0.1,0.3,0.2,0.4,0.3l2.8,3.4c0.1,0.1,0.1,0.2,0.2,0.4c0,0.1,0.1,0.3,0.1,0.4
	v23.6c0,0.7-0.3,1.4-0.8,1.9C38.6,39.7,38,40,37.2,40H10.8z M10.4,12.6h27.2l-1.8-2.1H12.1L10.4,12.6z M10.8,38.5h26.5
	c0.4,0,0.7-0.1,0.9-0.3s0.3-0.5,0.3-0.9V14.2h-29v23.1c0,0.4,0.1,0.7,0.3,0.9C10.1,38.3,10.4,38.5,10.8,38.5z M29.3,32.2l5.4-5.3
	l-5.4-5.4l-1,1l4.3,4.3l-4.3,4.3C28.3,31.2,29.3,32.2,29.3,32.2z M18.8,32.3l1-1L15.5,27l4.3-4.3l-1-1L13.5,27
	C13.4,26.9,18.8,32.3,18.8,32.3z M9.5,38.5V14.2V38.5z"/>
</svg>
