<?xml version="1.0" encoding="utf-8"?>
<!-- Generator: Adobe Illustrator 26.3.1, SVG Export Plug-In . SVG Version: 6.00 Build 0)  -->
<svg version="1.1" id="Слой_1" xmlns="http://www.w3.org/2000/svg" xmlns:xlink="http://www.w3.org/1999/xlink" x="0px" y="0px"
	 viewBox="0 0 48 48" style="enable-background:new 0 0 48 48;" xml:space="preserve">
<path d="M20,32.5c3.5,0,6.4-1.2,8.8-3.7c2.4-2.4,3.6-5.4,3.6-8.8c0-3.5-1.2-6.4-3.6-8.8S23.4,7.6,20,7.6c-3.5,0-6.4,1.2-8.8,3.6
	S7.6,16.6,7.6,20c0,3.5,1.2,6.4,3.6,8.8C13.6,31.3,16.5,32.5,20,32.5z M19.2,25V13.4h1.5V25H19.2z M12.5,25v-7.8H14V25H12.5z
	 M26.1,25v-5.8h1.5V25H26.1z M40.9,42L29.4,30.4c-1.2,1.1-2.7,2-4.3,2.6s-3.3,1-5.1,1c-3.9,0-7.2-1.4-9.9-4.1S6,23.9,6,20
	s1.4-7.3,4.1-10s6-4,9.9-4s7.2,1.3,9.9,4s4.1,6,4.1,9.9c0,1.8-0.3,3.5-0.9,5.1c-0.6,1.6-1.5,3-2.6,4.3L42,40.9L40.9,42z"/>
</svg>
