<?xml version="1.0" encoding="utf-8"?>
<!-- Generator: Adobe Illustrator 26.3.1, SVG Export Plug-In . SVG Version: 6.00 Build 0)  -->
<svg version="1.1" id="Слой_1" xmlns="http://www.w3.org/2000/svg" xmlns:xlink="http://www.w3.org/1999/xlink" x="0px" y="0px"
	 viewBox="0 0 48 48" style="enable-background:new 0 0 48 48;" xml:space="preserve">
<path d="M13.8,41.2c-2.2,0-4-0.8-5.5-2.3C6.8,37.5,6,35.6,6,33.5c0-2.2,0.8-4,2.3-5.5s3.3-2.3,5.5-2.3s4,0.8,5.5,2.3
	s2.3,3.3,2.3,5.5s-0.8,4-2.3,5.5S15.9,41.2,13.8,41.2z M41.2,40.3L28.5,27.6c-0.6,0.5-1.3,0.9-2,1.4c-0.8,0.5-1.5,0.8-2.2,1.1
	c0-0.3,0-0.6-0.1-0.9s-0.1-0.5-0.3-0.7c1.9-0.6,3.6-1.8,4.9-3.5s2-3.7,2-6c0-2.7-1-5-2.9-7c-1.9-1.9-4.2-2.9-7-2.9
	c-2.7,0-5.1,1-7,2.9S11,16.2,11,19c0,0.6,0.1,1.2,0.2,1.8c0.1,0.6,0.2,1.2,0.4,1.7c-0.2,0-0.4,0.1-0.7,0.2s-0.5,0.2-0.8,0.2
	c-0.2-0.5-0.3-1.1-0.4-1.8c-0.1-0.7-0.2-1.4-0.2-2c0-3.2,1.1-5.9,3.3-8.1s4.9-3.3,8.1-3.3c3.1,0,5.8,1.1,8,3.3s3.3,4.9,3.3,8.1
	c0,1.4-0.3,2.8-0.8,4.1c-0.5,1.3-1.2,2.5-2,3.4l12.8,12.8C42.3,39.2,41.2,40.3,41.2,40.3z M10.3,37.9l3.4-3.5l3.4,3.4l1-1l-3.5-3.5
	l3.5-3.5l-1-1l-3.5,3.5L10.3,29l-1,1l3.5,3.5L9.3,37L10.3,37.9z"/>
</svg>
