<?xml version="1.0" encoding="utf-8"?>
<!-- Generator: Adobe Illustrator 26.3.1, SVG Export Plug-In . SVG Version: 6.00 Build 0)  -->
<svg version="1.1" id="Слой_1" xmlns="http://www.w3.org/2000/svg" xmlns:xlink="http://www.w3.org/1999/xlink" x="0px" y="0px"
	 viewBox="0 0 48 48" style="enable-background:new 0 0 48 48;" xml:space="preserve">
<path d="M20.4,33.2c3.6,0,6.6-1.2,9.1-3.7s3.7-5.5,3.7-9.1s-1.2-6.6-3.7-9.1S24,7.6,20.4,7.6s-6.6,1.2-9.1,3.7s-3.8,5.5-3.8,9.1
	s1.2,6.6,3.7,9.1S16.8,33.2,20.4,33.2z M18.3,25.5l9.1-9.1l-1.1-1.1l-8,8l-4.1-4.1l-1.1,1.1L18.3,25.5z M20.4,34.7
	c-4,0-7.4-1.4-10.2-4.2S6,24.3,6,20.3s1.4-7.4,4.2-10.2S16.4,6,20.4,6s7.4,1.4,10.1,4.2c2.8,2.8,4.2,6.2,4.2,10.2
	c0,1.8-0.3,3.6-1,5.2c-0.6,1.6-1.5,3.1-2.7,4.4l11,10.8L40.9,42L30,31c-1.3,1.2-2.7,2.1-4.4,2.7C24,34.4,22.2,34.7,20.4,34.7z"/>
</svg>
