<?xml version="1.0" encoding="utf-8"?>
<!-- Generator: Adobe Illustrator 26.3.1, SVG Export Plug-In . SVG Version: 6.00 Build 0)  -->
<svg version="1.1" id="Слой_1" xmlns="http://www.w3.org/2000/svg" xmlns:xlink="http://www.w3.org/1999/xlink" x="0px" y="0px"
	 viewBox="0 0 48 48" style="enable-background:new 0 0 48 48;" xml:space="preserve">
<path d="M24,42c-2.5,0-4.8-0.5-7-1.4s-4.1-2.2-5.7-3.9c-1.6-1.6-2.9-3.5-3.9-5.7C6.5,28.8,6,26.5,6,24s0.5-4.8,1.4-7
	s2.2-4.1,3.9-5.7c1.6-1.6,3.5-2.9,5.7-3.9C19.2,6.5,21.5,6,24,6s4.8,0.5,7,1.4s4.1,2.2,5.7,3.9c1.6,1.6,2.9,3.5,3.9,5.7
	c0.9,2.2,1.4,4.5,1.4,7s-0.5,4.8-1.4,7s-2.2,4.1-3.9,5.7c-1.6,1.6-3.5,2.9-5.7,3.9C28.8,41.5,26.5,42,24,42z M23.2,40.4v-8.7
	c-1.7-0.3-3.2-1.1-4.5-2.4s-2.1-2.8-2.4-4.5H7.6c0.2,4.2,1.8,7.8,4.8,10.8C15.4,38.5,19,40.1,23.2,40.4z M24.8,40.4
	c4.2-0.3,7.9-1.9,10.8-4.8c3-3,4.6-6.6,4.8-10.8h-8.7c-0.4,1.7-1.2,3.2-2.4,4.5c-1.2,1.3-2.7,2.1-4.5,2.4
	C24.8,31.7,24.8,40.4,24.8,40.4z M7.6,23.2h8.7l4.7-4.9h6l4.7,4.9h8.7c-0.2-4.4-1.9-8.1-5.1-11.1c-3.2-3-6.9-4.5-11.3-4.5
	s-8.1,1.5-11.3,4.5C9.5,15.1,7.8,18.8,7.6,23.2z"/>
</svg>
