<?xml version="1.0" encoding="utf-8"?>
<!-- Generator: Adobe Illustrator 26.3.1, SVG Export Plug-In . SVG Version: 6.00 Build 0)  -->
<svg version="1.1" id="Слой_1" xmlns="http://www.w3.org/2000/svg" xmlns:xlink="http://www.w3.org/1999/xlink" x="0px" y="0px"
	 viewBox="0 0 48 48" style="enable-background:new 0 0 48 48;" xml:space="preserve">
<path d="M24,41.9c-4-1.2-7.4-3.6-10-7.4c-2.7-3.7-4-7.9-4-12.5V11.4l14-5.2l14,5.2v10.7c0,4.6-1.3,8.8-4,12.5
	C31.4,38.3,28,40.7,24,41.9z M24,40.3c3.4-1.1,6.2-3.1,8.4-6.2c2.3-3,3.6-6.4,3.9-10.1H24V7.8l-12.5,4.6V22c0,0.3,0,0.7,0,0.9
	c0,0.3,0,0.6,0.1,1H24V40.3z"/>
</svg>
