<?xml version="1.0" encoding="utf-8"?>
<!-- Generator: Adobe Illustrator 26.3.1, SVG Export Plug-In . SVG Version: 6.00 Build 0)  -->
<svg version="1.1" id="Слой_1" xmlns="http://www.w3.org/2000/svg" xmlns:xlink="http://www.w3.org/1999/xlink" x="0px" y="0px"
	 viewBox="0 0 48 48" style="enable-background:new 0 0 48 48;" xml:space="preserve">
<path d="M20.5,44c-0.8,0-1.4-0.3-2-0.8c-0.5-0.5-0.8-1.2-0.8-2v-6.5h-0.9c-0.8,0-1.4-0.3-2-0.8c-0.5-0.5-0.8-1.2-0.8-2V6.8
	c0-0.8,0.3-1.4,0.8-2C15.3,4.3,16,4,16.8,4h14.5c0.8,0,1.4,0.3,2,0.8C33.7,5.3,34,6,34,6.8V32c0,0.8-0.3,1.4-0.8,2
	c-0.5,0.5-1.2,0.8-2,0.8h-0.9v6.5c0,0.8-0.3,1.4-0.8,2c-0.5,0.5-1.2,0.8-2,0.8L20.5,44L20.5,44z M24,23.8c1.2,0,2.3-0.4,3.2-1.3
	c0.9-0.9,1.3-1.9,1.3-3.2c0-1.2-0.4-2.3-1.3-3.2c-0.9-0.9-1.9-1.3-3.2-1.3c-1.2,0-2.3,0.4-3.2,1.3c-0.9,0.9-1.3,1.9-1.3,3.2
	c0,1.2,0.4,2.3,1.3,3.2C21.7,23.4,22.8,23.8,24,23.8z M20.2,42.5h7.7c0.3,0,0.5-0.1,0.7-0.3s0.3-0.4,0.3-0.7v-6.8h-9.6v6.8
	c0,0.3,0.1,0.5,0.3,0.7C19.7,42.4,19.9,42.5,20.2,42.5z M16.5,33.2h15.1c0.3,0,0.5-0.1,0.7-0.3s0.3-0.4,0.3-0.7V6.5
	c0-0.3-0.1-0.5-0.3-0.7s-0.4-0.3-0.7-0.3H16.5c-0.3,0-0.5,0.1-0.7,0.3c-0.2,0.2-0.3,0.4-0.3,0.7v25.8c0,0.3,0.1,0.5,0.3,0.7
	C16,33.1,16.2,33.2,16.5,33.2z M24,22.3c-0.8,0-1.5-0.3-2-0.8c-0.6-0.6-0.9-1.2-0.9-2.1s0.3-1.5,0.8-2.1c0.6-0.6,1.2-0.9,2.1-0.9
	c0.8,0,1.5,0.3,2.1,0.9s0.9,1.3,0.9,2.1c0,0.8-0.3,1.5-0.9,2.1C25.5,22,24.8,22.3,24,22.3z M16.5,33.2h-0.9h16.9H16.5z"/>
</svg>
