<?xml version="1.0" encoding="utf-8"?>
<!-- Generator: Adobe Illustrator 26.3.1, SVG Export Plug-In . SVG Version: 6.00 Build 0)  -->
<svg version="1.1" id="Слой_1" xmlns="http://www.w3.org/2000/svg" xmlns:xlink="http://www.w3.org/1999/xlink" x="0px" y="0px"
	 viewBox="0 0 48 48" style="enable-background:new 0 0 48 48;" xml:space="preserve">
<path d="M31.6,40.5c0.3,0,0.6-0.1,0.9-0.3c0.2-0.2,0.4-0.5,0.4-0.9V22.2c0-0.3-0.1-0.6-0.4-0.9c-0.2-0.2-0.5-0.4-0.9-0.4H8.8
	c-0.4,0-0.7,0.1-0.9,0.4c-0.2,0.2-0.3,0.5-0.3,0.9v17.1c0,0.4,0.1,0.7,0.3,0.9s0.5,0.3,0.9,0.3C8.8,40.5,31.6,40.5,31.6,40.5z
	 M34.4,28.6v-1.5h4.9c0.4,0,0.7-0.1,0.9-0.4c0.2-0.2,0.3-0.5,0.3-0.9v-17c0-0.4-0.1-0.7-0.3-0.9c-0.2-0.2-0.5-0.3-0.9-0.3H16.4
	c-0.3,0-0.6,0.1-0.9,0.3c-0.2,0.2-0.4,0.5-0.4,0.9v10.6h-1.5V8.8c0-0.8,0.3-1.4,0.8-2C15,6.3,15.6,6,16.4,6h22.8
	c0.8,0,1.4,0.3,2,0.8C41.7,7.3,42,8,42,8.8v17.1c0,0.8-0.3,1.4-0.8,2c-0.5,0.5-1.2,0.8-2,0.8h-4.8V28.6z M8.8,42
	c-0.8,0-1.4-0.3-2-0.8C6.3,40.7,6,40,6,39.2v-17c0-0.8,0.3-1.4,0.8-2c0.5-0.5,1.2-0.8,2-0.8h22.9c0.8,0,1.4,0.3,2,0.8
	c0.5,0.5,0.8,1.2,0.8,1.9v17.1c0,0.8-0.3,1.4-0.8,2c-0.5,0.5-1.2,0.8-2,0.8H8.8z"/>
</svg>
