<?xml version="1.0" encoding="utf-8"?>
<!-- Generator: Adobe Illustrator 26.3.1, SVG Export Plug-In . SVG Version: 6.00 Build 0)  -->
<svg version="1.1" id="Слой_1" xmlns="http://www.w3.org/2000/svg" xmlns:xlink="http://www.w3.org/1999/xlink" x="0px" y="0px"
	 viewBox="0 0 48 48" style="enable-background:new 0 0 48 48;" xml:space="preserve">
<path d="M10.8,40c-0.7,0-1.4-0.3-1.9-0.8S8,38,8,37.2V10.8c0-0.8,0.3-1.4,0.8-2C9.4,8.3,10,8,10.8,8h26.5c0.4,0,0.9,0.1,1.2,0.3
	c0.4,0.2,0.7,0.4,1,0.7l-1,1c-0.1-0.1-0.2-0.2-0.3-0.2c-0.1-0.1-0.2-0.1-0.4-0.1h-27c-0.4,0-0.7,0.1-0.9,0.3s-0.3,0.5-0.3,0.9v26.5
	c0,0.4,0.1,0.7,0.3,0.9s0.5,0.3,0.9,0.3h26.5c0.4,0,0.7-0.1,0.9-0.3s0.3-0.5,0.3-0.9V22l1.5-1.5v16.8c0,0.7-0.3,1.4-0.8,1.9
	c-0.6,0.5-1.2,0.8-2,0.8H10.8z M23.1,32.4l-9-9l1.1-1.1l8,8l17.8-18l1,1.1L23.1,32.4z"/>
</svg>
