<?xml version="1.0" encoding="utf-8"?>
<!-- Generator: Adobe Illustrator 26.3.1, SVG Export Plug-In . SVG Version: 6.00 Build 0)  -->
<svg version="1.1" id="Слой_1" xmlns="http://www.w3.org/2000/svg" xmlns:xlink="http://www.w3.org/1999/xlink" x="0px" y="0px"
	 viewBox="0 0 48 48" style="enable-background:new 0 0 48 48;" xml:space="preserve">
<path d="M42.5,44.8L22.8,25H7.5v13.9c0,0.3,0.1,0.6,0.4,0.8c0.3,0.3,0.5,0.4,0.8,0.4h22.1c0.3,0,0.6-0.1,0.8-0.4
	c0.3-0.3,0.4-0.5,0.4-0.8v-6.7l1.5,1.5v5.2c0,0.7-0.3,1.4-0.8,1.9s-1.2,0.8-1.9,0.8h-22c-0.7,0-1.4-0.3-1.9-0.8S6,39.6,6,38.8V22.7
	c0-0.8,0.3-1.4,0.8-2s1.2-0.8,1.9-0.8h5.6v-3.4L3.8,6l1.1-1.1l38.8,38.8C43.6,43.6,42.5,44.8,42.5,44.8z M33.8,28.8l-1.6-1.6V25H30
	l-5-5h5.7c0.9,0,1.6,0.3,2.2,0.9c0.6,0.6,0.9,1.3,0.9,2.2v3.5h5.5c0.3,0,0.6-0.1,0.8-0.4c0.3-0.3,0.4-0.5,0.4-0.8V11.5H17.1v0.7
	l-2.7-2.7V8.8c0.1-0.7,0.4-1.3,0.9-1.7c0.5-0.4,1.1-0.7,1.8-0.7h22.1c0.7,0,1.4,0.3,1.9,0.8c0.6,0.6,0.9,1.2,0.9,2v16.2
	c0,0.8-0.3,1.4-0.8,2c-0.5,0.5-1.2,0.8-1.9,0.8h-5.5V28.8z"/>
</svg>
