<?xml version="1.0" encoding="utf-8"?>
<!-- Generator: Adobe Illustrator 26.3.1, SVG Export Plug-In . SVG Version: 6.00 Build 0)  -->
<svg version="1.1" id="Слой_1" xmlns="http://www.w3.org/2000/svg" xmlns:xlink="http://www.w3.org/1999/xlink" x="0px" y="0px"
	 viewBox="0 0 48 48" style="enable-background:new 0 0 48 48;" xml:space="preserve">
<path d="M41.2,28L28,41.2c-0.3,0.3-0.6,0.5-0.9,0.6s-0.7,0.2-1,0.2s-0.7-0.1-1-0.2c-0.3-0.1-0.6-0.3-0.9-0.6L6.9,24
	c-0.3-0.2-0.5-0.5-0.7-0.9C6.1,22.8,6,22.4,6,22V8.8c0-0.8,0.3-1.4,0.8-2C7.4,6.3,8,6,8.8,6H22c0.4,0,0.7,0.1,1.1,0.2
	c0.3,0.1,0.6,0.3,0.9,0.6L41.2,24c0.3,0.3,0.5,0.6,0.7,0.9C42,25.3,42,25.6,42,26s-0.1,0.7-0.2,1.1C41.7,27.4,41.5,27.7,41.2,28z
	 M27,40.1l13.2-13.2c0.3-0.3,0.4-0.6,0.4-0.9s-0.1-0.6-0.4-0.9L22.5,7.6H8.8c-0.4,0-0.7,0.1-0.9,0.3C7.7,8.2,7.5,8.4,7.5,8.8V22
	c0,0.2,0,0.3,0.1,0.5s0.1,0.3,0.3,0.4l17.3,17.3c0.3,0.2,0.6,0.3,0.9,0.3C26.4,40.5,26.7,40.4,27,40.1z M12.8,14.6
	c0.5,0,0.9-0.2,1.3-0.6c0.4-0.4,0.5-0.8,0.5-1.3s-0.2-0.9-0.5-1.3s-0.8-0.5-1.3-0.5s-0.9,0.2-1.3,0.5c-0.4,0.4-0.6,0.8-0.6,1.3
	s0.2,0.9,0.6,1.3C11.8,14.4,12.3,14.6,12.8,14.6z"/>
</svg>
