<?xml version="1.0" encoding="utf-8"?>
<!-- Generator: Adobe Illustrator 26.3.1, SVG Export Plug-In . SVG Version: 6.00 Build 0)  -->
<svg version="1.1" id="Слой_1" xmlns="http://www.w3.org/2000/svg" xmlns:xlink="http://www.w3.org/1999/xlink" x="0px" y="0px"
	 viewBox="0 0 48 48" style="enable-background:new 0 0 48 48;" xml:space="preserve">
<path d="M33.8,38.9l5.3-5.3l-0.9-0.9l-3.7,3.7V28h-1.3v8.4l-3.7-3.7l-0.9,0.9C28.5,33.6,33.8,38.9,33.8,38.9z M8.4,37.1V10.8
	l26.7,11.4h-1.2c-0.4,0.1-0.9,0.1-1.4,0.1s-0.8,0-1.1,0.1L9.9,13.3v8.4l9.8,2.3l-9.8,2.2v8.4l13.6-5.7c-0.2,0.3-0.3,0.7-0.4,1.1
	c-0.1,0.5-0.2,0.8-0.3,0.9C22.8,30.9,8.4,37.1,8.4,37.1z M33.8,41.2c-2.1,0-4-0.8-5.5-2.3S26,35.6,26,33.4c0-2.1,0.8-4,2.3-5.5
	s3.4-2.3,5.5-2.3s4,0.8,5.5,2.3s2.3,3.4,2.3,5.5c0,2.2-0.8,4-2.3,5.5C37.8,40.5,36,41.2,33.8,41.2z M9.9,28.9V13.3v21.3V28.9z"/>
</svg>
