<?xml version="1.0" encoding="utf-8"?>
<!-- Generator: Adobe Illustrator 26.3.1, SVG Export Plug-In . SVG Version: 6.00 Build 0)  -->
<svg version="1.1" id="Слой_1" xmlns="http://www.w3.org/2000/svg" xmlns:xlink="http://www.w3.org/1999/xlink" x="0px" y="0px"
	 viewBox="0 0 48 48" style="enable-background:new 0 0 48 48;" xml:space="preserve">
<path d="M9.1,34c-1-1.4-1.7-3-2.2-4.7C6.3,27.6,6,25.9,6,24s0.3-3.6,0.8-5.3C7.3,17,8.1,15.4,9.1,14l1.3,0.9c-0.9,1.3-1.6,2.7-2,4.3
	c-0.5,1.5-0.7,3.2-0.7,4.9c0,1.7,0.2,3.4,0.7,4.9s1.2,3,2.1,4.3C10.3,33.2,9.1,34,9.1,34z M34,29l-1.1-1.1c0.3-0.6,0.5-1.2,0.6-1.9
	c0.1-0.7,0.2-1.3,0.2-2c0-2.7-0.9-5-2.8-6.9c-1.9-1.9-4.2-2.8-6.9-2.8c-0.7,0-1.4,0.1-2,0.2c-0.7,0.1-1.3,0.3-1.9,0.6L19,14
	c0.8-0.4,1.6-0.7,2.4-0.9s1.7-0.3,2.6-0.3c3.1,0,5.8,1.1,8,3.3s3.3,4.8,3.3,7.9c0,0.9-0.1,1.8-0.3,2.6S34.4,28.3,34,29z M39.1,33.7
	l-1.2-0.8c0.8-1.3,1.4-2.7,1.9-4.2c0.4-1.5,0.7-3,0.7-4.6c0-1.7-0.2-3.3-0.7-4.9c-0.5-1.5-1.2-3-2.1-4.3L39,14c1,1.4,1.7,3,2.3,4.7
	s0.8,3.5,0.8,5.3s-0.3,3.5-0.8,5.1C40.7,30.7,40,32.3,39.1,33.7z M24,33.7c1,0,2-0.2,3-0.5c0.9-0.3,1.8-0.7,2.6-1.3L16.1,18.4
	c-0.5,0.8-1,1.7-1.3,2.6s-0.5,1.9-0.5,3c0,2.7,0.9,5,2.8,6.9C19,32.7,21.3,33.7,24,33.7z M39.4,41.7L30.7,33c-0.9,0.7-2,1.2-3.1,1.6
	c-1.1,0.4-2.3,0.6-3.6,0.6c-3.1,0-5.8-1.1-8-3.3s-3.3-4.8-3.3-8c0-1.3,0.2-2.5,0.6-3.6c0.4-1.1,0.9-2.2,1.6-3.1L6.6,8.9l1.1-1.1
	l32.8,32.8C40.5,40.5,39.4,41.7,39.4,41.7z"/>
</svg>
