<?xml version="1.0" encoding="utf-8"?>
<!-- Generator: Adobe Illustrator 26.3.1, SVG Export Plug-In . SVG Version: 6.00 Build 0)  -->
<svg version="1.1" id="Слой_1" xmlns="http://www.w3.org/2000/svg" xmlns:xlink="http://www.w3.org/1999/xlink" x="0px" y="0px"
	 viewBox="0 0 48 48" style="enable-background:new 0 0 48 48;" xml:space="preserve">
<path d="M11.3,36.7c-1.6-1.6-2.9-3.5-3.9-5.7S6,26.5,6,24s0.5-4.8,1.4-7s2.2-4.1,3.9-5.7l1.1,1.1c-1.5,1.5-2.7,3.2-3.6,5.2
	S7.5,21.7,7.5,24s0.4,4.4,1.3,6.4s2,3.7,3.6,5.2C12.4,35.6,11.3,36.7,11.3,36.7z M16.9,31.1c-0.9-0.9-1.6-1.9-2.1-3.2
	C14.3,26.7,14,25.4,14,24s0.3-2.7,0.8-3.9c0.5-1.2,1.2-2.3,2.1-3.2L18,18c-0.8,0.7-1.4,1.6-1.8,2.7c-0.4,1-0.7,2.1-0.7,3.3
	s0.2,2.3,0.7,3.3c0.4,1,1.1,1.9,1.8,2.7L16.9,31.1z M24,26c-0.5,0-1-0.2-1.4-0.6S22,24.5,22,24s0.2-1,0.6-1.4S23.5,22,24,22
	s1,0.2,1.4,0.6S26,23.5,26,24s-0.2,1-0.6,1.4S24.5,26,24,26z M31.1,31.1L30,30c0.8-0.7,1.4-1.6,1.8-2.7c0.4-1,0.7-2.1,0.7-3.3
	s-0.2-2.3-0.7-3.3c-0.4-1-1.1-1.9-1.8-2.7l1.1-1.1c0.9,0.9,1.6,2,2.1,3.2S34,22.6,34,24s-0.3,2.7-0.8,3.9
	C32.7,29.1,32,30.2,31.1,31.1z M36.7,36.7l-1.1-1.1c1.5-1.5,2.7-3.2,3.6-5.2c0.9-2,1.3-4.1,1.3-6.4s-0.4-4.4-1.3-6.4s-2-3.7-3.6-5.2
	l1.1-1.1c1.6,1.7,2.9,3.6,3.9,5.7c0.9,2.2,1.4,4.5,1.4,7s-0.5,4.8-1.4,7S38.4,35.1,36.7,36.7z"/>
</svg>
