<?xml version="1.0" encoding="utf-8"?>
<!-- Generator: Adobe Illustrator 26.3.1, SVG Export Plug-In . SVG Version: 6.00 Build 0)  -->
<svg version="1.1" id="Слой_1" xmlns="http://www.w3.org/2000/svg" xmlns:xlink="http://www.w3.org/1999/xlink" x="0px" y="0px"
	 viewBox="0 0 48 48" style="enable-background:new 0 0 48 48;" xml:space="preserve">
<path d="M24,21.8c-1.4,0-2.6-0.5-3.5-1.5c-1-1-1.5-2.2-1.5-3.5c0-1.4,0.5-2.6,1.5-3.5c1-1,2.2-1.5,3.5-1.5c1.4,0,2.6,0.5,3.5,1.5
	c1,1,1.5,2.2,1.5,3.5c0,1.4-0.5,2.6-1.5,3.5C26.6,21.3,25.4,21.8,24,21.8z M24,20.2c1,0,1.8-0.3,2.5-1s1-1.5,1-2.5s-0.3-1.8-1-2.5
	s-1.5-1-2.5-1s-1.8,0.3-2.5,1s-1,1.5-1,2.5s0.3,1.8,1,2.5C22.2,19.9,23,20.2,24,20.2z M13,32.2v-2.8c0-0.6,0.2-1.2,0.5-1.7
	s0.8-0.9,1.5-1.3c1.4-0.8,2.9-1.3,4.4-1.7c1.5-0.4,3.1-0.6,4.6-0.6s3.1,0.2,4.6,0.6s3,0.9,4.4,1.7c0.7,0.4,1.2,0.8,1.5,1.3
	s0.5,1,0.5,1.7v2.8H13z M24,25.8c-1.6,0-3.2,0.2-4.8,0.7c-1.6,0.5-3.2,1.2-4.7,2.1v2.1h19.1v-2.2c-1.5-0.9-3.1-1.6-4.7-2.1
	C27.2,26,25.6,25.8,24,25.8z M42.9,16.1c-1-2.5-2.5-4.7-4.4-6.6s-4.1-3.4-6.6-4.4l0.6-1.4c2.8,1.2,5.1,2.8,7,4.7s3.5,4.3,4.8,7.1
	L42.9,16.1z M5.2,16.1l-1.5-0.6c1.2-2.8,2.8-5.2,4.7-7.1s4.3-3.5,7.1-4.7l0.6,1.5c-2.5,1-4.7,2.5-6.6,4.4
	C7.7,11.4,6.2,13.6,5.2,16.1z M15.5,44.3c-2.7-1.2-5.1-2.8-7.1-4.8s-3.5-4.4-4.7-7.1l1.5-0.6c1,2.5,2.5,4.7,4.4,6.6s4.1,3.3,6.6,4.4
	C16.1,42.8,15.5,44.3,15.5,44.3z M32.4,44.3l-0.6-1.5c2.5-1,4.7-2.5,6.6-4.4s3.3-4.1,4.4-6.6l1.5,0.6c-1.2,2.8-2.8,5.1-4.8,7.1
	C37.6,41.5,35.2,43.1,32.4,44.3z M24,30.7h9.5h-19H24z"/>
</svg>
