<?xml version="1.0" encoding="utf-8"?>
<!-- Generator: Adobe Illustrator 26.3.1, SVG Export Plug-In . SVG Version: 6.00 Build 0)  -->
<svg version="1.1" id="Слой_1" xmlns="http://www.w3.org/2000/svg" xmlns:xlink="http://www.w3.org/1999/xlink" x="0px" y="0px"
	 viewBox="0 0 48 48" style="enable-background:new 0 0 48 48;" xml:space="preserve">
<path d="M17.2,23.4c1.1,0,2.1-0.4,2.9-1.2c0.8-0.8,1.4-1.8,1.8-2.9l-1.7-0.4c-0.2,0.7-0.6,1.4-1.1,1.9s-1.1,0.8-1.9,0.8
	s-1.4-0.3-1.9-0.8s-0.9-1.2-1.1-1.9l-1.7,0.4c0.4,1.1,1,2.1,1.8,2.9C15.1,23,16,23.4,17.2,23.4z M24,34.4c1.1,0,2.2-0.2,3.3-0.7
	c1-0.5,2-1.2,2.9-2.1l-1.3-1.2c-0.8,0.7-1.6,1.3-2.4,1.7c-0.8,0.4-1.7,0.6-2.6,0.6s-1.7-0.2-2.5-0.6c-0.8-0.4-1.6-0.9-2.4-1.7
	l-1.3,1.2c0.9,1,1.9,1.7,3,2.1C21.8,34.2,22.9,34.4,24,34.4z M30.8,23.4c1.1,0,2.1-0.4,2.9-1.2c0.8-0.8,1.4-1.8,1.8-2.9l-1.7-0.4
	c-0.2,0.7-0.6,1.4-1.1,1.9s-1.1,0.8-1.9,0.8s-1.4-0.3-1.9-0.8s-0.9-1.2-1.1-1.9l-1.7,0.4c0.4,1.1,1,2.1,1.8,2.9
	C28.7,23,29.7,23.4,30.8,23.4z M24,42c-2.5,0-4.8-0.5-7-1.4s-4.1-2.2-5.7-3.8s-2.9-3.5-3.8-5.7C6.5,28.8,6,26.5,6,24s0.5-4.8,1.4-7
	s2.2-4.1,3.8-5.7s3.5-2.9,5.7-3.8C19.2,6.5,21.5,6,24,6s4.8,0.5,7,1.4s4.1,2.2,5.7,3.8c1.6,1.6,2.9,3.5,3.8,5.7
	c0.9,2.2,1.4,4.5,1.4,7s-0.5,4.8-1.4,7s-2.2,4.1-3.8,5.7s-3.5,2.9-5.7,3.8C28.8,41.5,26.5,42,24,42z M24,40.5
	c4.6,0,8.5-1.6,11.7-4.8s4.8-7.1,4.8-11.7s-1.6-8.5-4.8-11.7S28.6,7.5,24,7.5s-8.5,1.6-11.7,4.8S7.5,19.4,7.5,24s1.6,8.5,4.8,11.7
	S19.4,40.5,24,40.5z"/>
</svg>
