<?xml version="1.0" encoding="utf-8"?>
<!-- Generator: Adobe Illustrator 26.3.1, SVG Export Plug-In . SVG Version: 6.00 Build 0)  -->
<svg version="1.1" id="Слой_1" xmlns="http://www.w3.org/2000/svg" xmlns:xlink="http://www.w3.org/1999/xlink" x="0px" y="0px"
	 viewBox="0 0 48 48" style="enable-background:new 0 0 48 48;" xml:space="preserve">
<path d="M24,42c-2.5,0-4.8-0.5-7-1.4s-4.1-2.2-5.7-3.9c-1.6-1.6-2.9-3.5-3.8-5.7c-1-2.2-1.5-4.5-1.5-7s0.5-4.8,1.4-7
	s2.2-4.1,3.8-5.7s3.5-2.9,5.7-3.8C19.2,6.5,21.5,6,24,6s4.8,0.5,7,1.4s4.1,2.2,5.7,3.8c1.6,1.6,2.9,3.5,3.9,5.7
	c0.9,2.2,1.4,4.5,1.4,7s-0.5,4.8-1.4,7s-2.2,4.1-3.9,5.7c-1.6,1.6-3.5,2.9-5.7,3.9S26.5,42,24,42z M24,40.5c4.5,0,8.4-1.6,11.6-4.8
	c3.2-3.2,4.8-7.1,4.8-11.6c0-4.6-1.6-8.5-4.8-11.7c-3.2-3.3-7-4.9-11.6-4.9s-8.5,1.6-11.7,4.8S7.5,19.4,7.5,24
	c0,4.5,1.6,8.4,4.8,11.6C15.5,38.9,19.4,40.5,24,40.5z M27.7,21.1l0.9-0.5c-0.1,0.6,0.1,1.2,0.5,1.6c0.4,0.5,0.9,0.7,1.5,0.7
	s1.1-0.2,1.5-0.6c0.4-0.4,0.6-0.9,0.6-1.5c0-0.4-0.1-0.8-0.3-1.1c-0.2-0.3-0.5-0.6-0.9-0.8l1.7-0.9l-0.8-1.4L27,19.7
	C26.9,19.8,27.7,21.1,27.7,21.1z M20.3,21.1l0.8-1.4l-5.4-3.1L14.9,18l1.7,0.9c-0.4,0.2-0.7,0.4-0.9,0.8c-0.2,0.3-0.3,0.7-0.3,1.1
	c0,0.6,0.2,1.1,0.6,1.5s0.9,0.6,1.5,0.6s1.1-0.2,1.5-0.7s0.6-1,0.5-1.6C19.4,20.6,20.3,21.1,20.3,21.1z M24,26.1
	c-2,0-3.8,0.6-5.3,1.9s-2.6,2.9-3.4,4.8h17.4c-0.7-1.9-1.9-3.5-3.4-4.8C27.8,26.7,26,26.1,24,26.1z"/>
</svg>
