<?xml version="1.0" encoding="utf-8"?>
<!-- Generator: Adobe Illustrator 26.3.1, SVG Export Plug-In . SVG Version: 6.00 Build 0)  -->
<svg version="1.1" id="Слой_1" xmlns="http://www.w3.org/2000/svg" xmlns:xlink="http://www.w3.org/1999/xlink" x="0px" y="0px"
	 viewBox="0 0 48 48" style="enable-background:new 0 0 48 48;" xml:space="preserve">
<path d="M19.6,35c0.5,0,1-0.1,1.5-0.3s0.9-0.4,1.4-0.7c0.2-0.2,0.5-0.3,0.8-0.4c0.3-0.1,0.5-0.2,0.8-0.2c0.4,0,0.9,0.2,1.6,0.6
	c0.4,0.3,0.9,0.5,1.4,0.7s1,0.3,1.5,0.3c1.5,0,2.6-0.5,3.6-1.5c0.9-1,1.4-2.4,1.4-4.2c0-2.1-0.8-3.8-2.3-4.9
	c-1.5-1.2-3.8-1.7-6.7-1.7h-0.8c-2.9,0-5.1,0.6-6.7,1.7c-1.5,1.2-2.3,2.8-2.3,5c0,1.7,0.5,3.1,1.4,4.1C16.9,34.5,18.1,35,19.6,35z
	 M19.5,33.2c-1,0-1.8-0.4-2.3-1.1c-0.6-0.7-0.8-1.7-0.8-2.9c0-1.7,0.6-2.9,1.8-3.7c1.2-0.8,3-1.2,5.5-1.2h0.8c2.5,0,4.3,0.4,5.5,1.2
	c1.2,0.8,1.7,2,1.7,3.7c0,1.2-0.3,2.2-0.8,2.9c-0.5,0.7-1.3,1.1-2.3,1.1c-0.5,0-1.1-0.2-2-0.7c-0.4-0.2-0.8-0.4-1.2-0.6
	c-0.4-0.2-0.8-0.2-1.3-0.2c-0.4,0-0.9,0.1-1.3,0.2c-0.4,0.2-0.8,0.4-1.2,0.6c-0.3,0.2-0.6,0.3-1,0.5C20.2,33.2,19.9,33.2,19.5,33.2z
	 M13.3,20.6c1.7-0.7,3.1-1.4,4.1-2.3c1-0.8,2-1.9,2.9-3.3l-1.5-1c-0.8,1.2-1.6,2.1-2.5,2.8c-0.9,0.7-2.1,1.4-3.7,2.1
	C12.6,18.9,13.3,20.6,13.3,20.6z M34.7,20.6l0.7-1.6c-1.5-0.7-2.7-1.3-3.6-2.1c-0.9-0.7-1.8-1.7-2.6-2.8L27.7,15
	c0.9,1.3,1.9,2.4,3,3.3C31.7,19.1,33.1,19.9,34.7,20.6z M24,42c-2.5,0-4.8-0.5-7-1.4s-4.1-2.2-5.7-3.8s-2.9-3.5-3.8-5.7
	C6.5,28.8,6,26.5,6,24s0.5-4.8,1.4-7s2.2-4.1,3.8-5.7s3.5-2.9,5.7-3.8C19.2,6.5,21.5,6,24,6s4.8,0.5,7,1.4s4.1,2.2,5.7,3.8
	c1.6,1.6,2.9,3.5,3.8,5.7c0.9,2.2,1.4,4.5,1.4,7s-0.5,4.8-1.4,7s-2.2,4.1-3.8,5.7s-3.5,2.9-5.7,3.8C28.8,41.5,26.5,42,24,42z
	 M24,40.5c4.6,0,8.5-1.6,11.7-4.8s4.8-7.1,4.8-11.7s-1.6-8.5-4.8-11.7S28.6,7.5,24,7.5s-8.5,1.6-11.7,4.8S7.5,19.4,7.5,24
	s1.6,8.5,4.8,11.7S19.4,40.5,24,40.5z"/>
</svg>
