<?xml version="1.0" encoding="utf-8"?>
<!-- Generator: Adobe Illustrator 26.3.1, SVG Export Plug-In . SVG Version: 6.00 Build 0)  -->
<svg version="1.1" id="Слой_1" xmlns="http://www.w3.org/2000/svg" xmlns:xlink="http://www.w3.org/1999/xlink" x="0px" y="0px"
	 viewBox="0 0 48 48" style="enable-background:new 0 0 48 48;" xml:space="preserve">
<path d="M13.1,32h1.8v-0.5c0-2.5,0.9-4.7,2.7-6.4c1.8-1.8,3.9-2.7,6.4-2.7s4.7,0.9,6.4,2.7c1.8,1.8,2.7,3.9,2.7,6.4V32h1.8v-0.5
	c0-3-1.1-5.6-3.2-7.7S27,20.6,24,20.6s-5.6,1.1-7.7,3.2s-3.2,4.7-3.2,7.7C13.1,31.5,13.1,32,13.1,32z M14.7,17.8
	c1.1-0.3,2.3-0.7,3.5-1.4c1.2-0.7,2.2-1.5,3-2.3L19.8,13c-0.7,0.7-1.5,1.3-2.5,1.9c-1,0.6-2,1-2.9,1.2C14.5,16,14.7,17.8,14.7,17.8z
	 M33.3,17.8l0.2-1.8c-0.9-0.2-1.9-0.6-2.9-1.2c-1-0.6-1.8-1.2-2.5-1.9L26.7,14c0.8,0.8,1.8,1.6,3,2.3C31,17,32.1,17.5,33.3,17.8z
	 M24,42c-2.5,0-4.8-0.5-7-1.4s-4.1-2.2-5.7-3.8s-2.9-3.5-3.8-5.7C6.5,28.8,6,26.5,6,24s0.5-4.8,1.4-7s2.2-4.1,3.8-5.7
	s3.5-2.9,5.7-3.8C19.2,6.5,21.5,6,24,6s4.8,0.5,7,1.4s4.1,2.2,5.7,3.8c1.6,1.6,2.9,3.5,3.8,5.7c0.9,2.2,1.4,4.5,1.4,7
	s-0.5,4.8-1.4,7s-2.2,4.1-3.8,5.7s-3.5,2.9-5.7,3.8C28.8,41.5,26.5,42,24,42z M24,40.5c4.6,0,8.5-1.6,11.7-4.8s4.8-7.1,4.8-11.7
	s-1.6-8.5-4.8-11.7S28.6,7.5,24,7.5s-8.5,1.6-11.7,4.8S7.5,19.4,7.5,24s1.6,8.5,4.8,11.7S19.4,40.5,24,40.5z"/>
</svg>
