<?xml version="1.0" encoding="utf-8"?>
<!-- Generator: Adobe Illustrator 26.3.1, SVG Export Plug-In . SVG Version: 6.00 Build 0)  -->
<svg version="1.1" id="Слой_1" xmlns="http://www.w3.org/2000/svg" xmlns:xlink="http://www.w3.org/1999/xlink" x="0px" y="0px"
	 viewBox="0 0 48 48" style="enable-background:new 0 0 48 48;" xml:space="preserve">
<path d="M16.9,13.8v-2.6c0-0.4,0.2-0.8,0.5-1.1s0.7-0.5,1.1-0.5h11.1c0.4,0,0.8,0.2,1.1,0.5c0.3,0.3,0.5,0.7,0.5,1.1v2.6h4.6
	c0.3,0,0.6,0.1,0.8,0.2c0.3,0.1,0.4,0.4,0.5,0.6l4.6,10.5c0.1,0.3,0.2,0.6,0.3,1s0.1,0.7,0.1,1v9.3c0,0.4-0.2,0.8-0.5,1.1
	S40.9,38,40.5,38h-33c-0.4,0-0.8-0.2-1.1-0.5c-0.2-0.3-0.4-0.6-0.4-1v-9.3c0-0.4,0-0.8,0.1-1.1c0.1-0.3,0.2-0.7,0.3-1l4.5-10.5
	c0.1-0.3,0.3-0.5,0.5-0.6c0.3-0.2,0.5-0.2,0.8-0.2H16.9z M18.5,13.8h11.1v-2.6H18.5V13.8z M15.1,25.6v-2.1h1.5v2.1h14.8v-2.1h1.5
	v2.1h7.2l-4.4-10.3H12.3L7.9,25.6H15.1z M15.1,27.2H7.5v9.3h32.9v-9.3h-7.5v2.1h-1.5v-2.1H16.6v2.1h-1.5
	C15.1,29.3,15.1,27.2,15.1,27.2z"/>
</svg>
