<?xml version="1.0" encoding="utf-8"?>
<!-- Generator: Adobe Illustrator 26.3.1, SVG Export Plug-In . SVG Version: 6.00 Build 0)  -->
<svg version="1.1" id="Слой_1" xmlns="http://www.w3.org/2000/svg" xmlns:xlink="http://www.w3.org/1999/xlink" x="0px" y="0px"
	 viewBox="0 0 48 48" style="enable-background:new 0 0 48 48;" xml:space="preserve">
<path d="M35.2,39.5V29.3l8.5,5.1C43.6,34.4,35.2,39.5,35.2,39.5z M26.7,39.5V29.3l8.5,5.1C35.2,34.4,26.7,39.5,26.7,39.5z M20.7,42
	l-0.8-5.7c-0.7-0.2-1.5-0.6-2.4-1.1s-1.6-1-2.2-1.6L9.9,36l-3.3-5.9l4.7-3.5c-0.1-0.4-0.1-0.8-0.2-1.3c0-0.4-0.1-0.9-0.1-1.3
	s0-0.8,0.1-1.2c0-0.4,0.1-0.9,0.2-1.4l-4.7-3.5l3.3-5.8l5.2,2.3c0.7-0.6,1.4-1.1,2.3-1.6c0.8-0.5,1.6-0.8,2.4-1.1L20.7,6h6.7
	l0.8,5.8c0.8,0.3,1.6,0.7,2.4,1.1c0.8,0.4,1.5,0.9,2.2,1.5l5.4-2.3l3.3,5.8l-4.9,3.6c0.1,0.5,0.2,0.9,0.2,1.3s0,0.8,0,1.2v0.5
	c0,0.2,0,0.3,0,0.5h-1.6c0-0.2,0-0.4,0-0.5s0-0.3,0-0.5c0-0.6,0-1.1-0.1-1.6s-0.2-0.9-0.3-1.5l4.6-3.5l-2-3.5l-5.3,2.2
	c-0.6-0.7-1.5-1.4-2.5-2s-2-1-2.9-1.1L26,7.4h-4.2l-0.6,5.5c-1.1,0.2-2.1,0.6-2.9,1.1c-0.9,0.5-1.7,1.2-2.6,2l-5.1-2l-2,3.5l4.5,3.3
	c-0.2,0.5-0.3,1-0.3,1.5c-0.1,0.5-0.1,1.1-0.1,1.7c0,0.5,0,1.1,0.1,1.6s0.2,1,0.3,1.5l-4.5,3.4l2,3.5l5.1-2.2
	c0.8,0.8,1.8,1.5,2.8,2.1c1.1,0.5,2.2,0.9,3.4,1.2V42H20.7z M21.9,28.3v-1.8c-0.4-0.3-0.7-0.6-0.9-1.1c-0.2-0.5-0.4-0.9-0.4-1.4
	c0-0.9,0.3-1.7,0.9-2.3c0.6-0.6,1.4-0.9,2.3-0.9s1.7,0.3,2.3,0.9c0.6,0.6,0.9,1.4,0.9,2.3c0,0.2,0,0.4,0,0.5c0,0.2-0.1,0.3-0.1,0.5
	h1.6c0-0.2,0.1-0.3,0.1-0.5s0-0.3,0-0.5c0-1.3-0.5-2.5-1.4-3.4s-2-1.4-3.4-1.4c-1.3,0-2.4,0.5-3.4,1.4C19.5,21.5,19,22.7,19,24
	c0,1,0.3,1.8,0.8,2.6C20.4,27.4,21.1,28,21.9,28.3z"/>
</svg>
