<?xml version="1.0" encoding="utf-8"?>
<!-- Generator: Adobe Illustrator 26.3.1, SVG Export Plug-In . SVG Version: 6.00 Build 0)  -->
<svg version="1.1" id="Слой_1" xmlns="http://www.w3.org/2000/svg" xmlns:xlink="http://www.w3.org/1999/xlink" x="0px" y="0px"
	 viewBox="0 0 48 48" style="enable-background:new 0 0 48 48;" xml:space="preserve">
<path d="M38.3,42h-9.9c-0.5,0-0.9-0.2-1.2-0.5c-0.3-0.3-0.5-0.7-0.5-1.2v-9.9c0-0.5,0.2-0.9,0.5-1.2c0.3-0.3,0.7-0.5,1.2-0.5h9.9
	c0.5,0,0.9,0.2,1.2,0.5s0.5,0.7,0.5,1.2v3.3l3.3-3.3v9.9L39.9,37v3.3c0,0.5-0.2,0.9-0.5,1.2C39.1,41.8,38.7,42,38.3,42z M23.9,19.2
	c-1.3,0-2.4,0.5-3.4,1.4c-0.9,0.9-1.4,2.1-1.4,3.4c0,1,0.3,1.9,0.8,2.6c0.5,0.8,1.2,1.3,2,1.7v-1.8c-0.4-0.3-0.7-0.6-0.9-1.1
	c-0.2-0.5-0.4-1-0.4-1.5c0-0.9,0.3-1.7,0.9-2.3c0.6-0.6,1.4-0.9,2.3-0.9s1.7,0.3,2.3,0.9c0.6,0.6,0.9,1.4,0.9,2.3h1.5
	c0-1.3-0.5-2.5-1.4-3.4S25.2,19.2,23.9,19.2z M20.7,42l-0.8-5.7c-0.7-0.2-1.5-0.6-2.4-1.1s-1.6-1-2.2-1.6L9.9,36l-3.3-5.9l4.7-3.5
	c-0.1-0.4-0.1-0.8-0.2-1.3c0-0.4-0.1-0.9-0.1-1.3s0-0.8,0.1-1.2c0-0.4,0.1-0.9,0.2-1.4l-4.7-3.5l3.3-5.8l5.2,2.3
	c0.7-0.6,1.4-1.1,2.3-1.6c0.8-0.5,1.6-0.8,2.4-1.1L20.7,6h6.7l0.8,5.8c0.8,0.3,1.6,0.7,2.4,1.1c0.8,0.4,1.5,0.9,2.2,1.5l5.4-2.3
	l3.3,5.8l-4.9,3.6c0.1,0.5,0.2,0.9,0.2,1.3s0,0.8,0,1.2h-1.6c0-0.6,0-1.1-0.1-1.6s-0.2-0.9-0.3-1.5l4.6-3.5l-2-3.5l-5.3,2.2
	c-0.6-0.7-1.5-1.4-2.5-2s-2-1-2.9-1.1L26,7.4h-4.1l-0.6,5.5c-1.1,0.2-2.1,0.6-2.9,1.1c-0.9,0.5-1.7,1.2-2.6,2l-5.2-2l-2,3.5l4.5,3.3
	c-0.2,0.5-0.3,1-0.3,1.5c-0.1,0.5-0.1,1.1-0.1,1.7s0,1.1,0.1,1.6s0.2,1,0.3,1.5l-4.5,3.4l2,3.5l5.1-2.2c0.8,0.8,1.8,1.5,2.8,2.1
	c1.1,0.5,2.2,0.9,3.4,1.2V42H20.7z"/>
</svg>
