<?xml version="1.0" encoding="utf-8"?>
<!-- Generator: Adobe Illustrator 26.3.1, SVG Export Plug-In . SVG Version: 6.00 Build 0)  -->
<svg version="1.1" id="Слой_1" xmlns="http://www.w3.org/2000/svg" xmlns:xlink="http://www.w3.org/1999/xlink" x="0px" y="0px"
	 viewBox="0 0 48 48" style="enable-background:new 0 0 48 48;" xml:space="preserve">
<path d="M33.5,42V25.1c0.5,0,0.9,0,1.3,0.1c0.4,0.1,0.8,0.2,1.2,0.3v16.1c-0.4,0.1-0.8,0.2-1.2,0.3C34.4,42,34,42,33.5,42z
	 M29.3,40.8V26.2c0.4-0.2,0.8-0.4,1.2-0.6c0.4-0.2,0.9-0.3,1.3-0.4v16.6c-0.5-0.1-0.9-0.2-1.3-0.4C30.1,41.3,29.7,41.1,29.3,40.8z
	 M37.8,40.8V26.2c1.3,0.7,2.3,1.7,3.1,3s1.2,2.7,1.2,4.3s-0.4,3-1.2,4.3S39,40.1,37.8,40.8z M27.6,39.6c-0.8-0.8-1.4-1.7-1.9-2.7
	S25,34.8,25,33.6s0.2-2.3,0.7-3.3s1.1-1.9,1.9-2.7C27.6,27.5,27.6,39.6,27.6,39.6z M20.7,42l-0.8-5.7c-0.7-0.2-1.5-0.6-2.4-1.1
	s-1.6-1-2.2-1.6L9.9,36l-3.3-5.9l4.7-3.5c-0.1-0.4-0.1-0.8-0.2-1.3c0-0.4-0.1-0.9-0.1-1.3s0-0.8,0.1-1.2c0-0.4,0.1-0.9,0.2-1.4
	l-4.7-3.5l3.3-5.8l5.2,2.3c0.7-0.6,1.4-1.1,2.3-1.6c0.8-0.5,1.6-0.8,2.4-1.1L20.7,6h6.7l0.8,5.8c0.8,0.3,1.6,0.7,2.4,1.1
	c0.8,0.4,1.5,0.9,2.2,1.5l5.4-2.3l3.3,5.8l-4,3c-0.3-0.1-0.7-0.2-1-0.3c-0.3-0.1-0.7-0.1-1-0.2l4-3l-2-3.5l-5.3,2.2
	c-0.6-0.7-1.5-1.4-2.5-2s-2-1-2.9-1.1l-0.7-5.6h-4.2l-0.6,5.5c-1.1,0.2-2.1,0.6-2.9,1.1c-0.9,0.5-1.7,1.2-2.6,2l-5.2-2l-2,3.5
	l4.5,3.3c-0.2,0.5-0.3,1-0.3,1.5c-0.1,0.5-0.1,1.1-0.1,1.7c0,0.5,0,1.1,0.1,1.6s0.2,1,0.3,1.5l-4.5,3.4l2,3.5l5.1-2.2
	c0.7,0.7,1.4,1.3,2.2,1.8c0.8,0.5,1.6,0.9,2.5,1.1c0.1,1.4,0.5,2.7,1,3.9s1.2,2.3,2,3.3C23.4,42,20.7,42,20.7,42z M21.5,28.1
	c0.1-0.2,0.2-0.5,0.3-0.7c0.1-0.2,0.3-0.4,0.4-0.7c-0.5-0.3-0.8-0.7-1.1-1.1c-0.3-0.5-0.4-1-0.4-1.6c0-0.9,0.3-1.7,0.9-2.3
	c0.6-0.6,1.4-0.9,2.3-0.9c0.6,0,1.1,0.1,1.6,0.4s0.9,0.6,1.2,1.1c0.2-0.1,0.5-0.2,0.7-0.3c0.2-0.1,0.5-0.2,0.7-0.3
	c-0.4-0.7-1-1.3-1.7-1.7c-0.7-0.4-1.5-0.6-2.4-0.6c-1.3,0-2.4,0.5-3.4,1.4c-0.9,0.9-1.4,2.1-1.4,3.4c0,0.9,0.2,1.7,0.6,2.4
	C20.2,27.1,20.8,27.7,21.5,28.1z"/>
</svg>
