<?xml version="1.0" encoding="utf-8"?>
<!-- Generator: Adobe Illustrator 26.3.1, SVG Export Plug-In . SVG Version: 6.00 Build 0)  -->
<svg version="1.1" id="Слой_1" xmlns="http://www.w3.org/2000/svg" xmlns:xlink="http://www.w3.org/1999/xlink" x="0px" y="0px"
	 viewBox="0 0 48 48" style="enable-background:new 0 0 48 48;" xml:space="preserve">
<path d="M32.1,41.8c-1.8-0.3-3.3-1.1-4.6-2.4c-1.3-1.3-2-2.8-2.3-4.6h1.7c0.3,1.3,0.9,2.4,1.8,3.4s2.1,1.6,3.4,1.8
	C32.1,40.1,32.1,41.8,32.1,41.8z M34.8,41.8v-1.7c1.5-0.3,2.8-1.1,3.8-2.3s1.5-2.6,1.5-4.3c0-1.6-0.5-3-1.5-4.3
	c-1-1.2-2.3-2-3.8-2.3v-1.7c2,0.3,3.7,1.3,5.1,2.8c1.4,1.6,2,3.4,2,5.5s-0.7,4-2,5.5C38.5,40.6,36.8,41.5,34.8,41.8z M25.3,32.2
	c0.3-1.8,1.1-3.3,2.3-4.6c1.3-1.3,2.8-2,4.6-2.4V27c-1.3,0.3-2.4,0.9-3.4,1.8c-1,1-1.6,2.1-1.8,3.4C26.9,32.2,25.3,32.2,25.3,32.2z
	 M31.8,36.9v-6.8l5.2,3.4C37,33.5,31.8,36.9,31.8,36.9z M20.7,42l-0.8-5.7c-0.7-0.2-1.5-0.6-2.4-1.1s-1.6-1-2.2-1.6L9.9,36l-3.3-5.9
	l4.7-3.5c-0.1-0.4-0.1-0.8-0.2-1.3c0-0.4-0.1-0.9-0.1-1.3s0-0.8,0.1-1.2c0-0.4,0.1-0.9,0.2-1.4l-4.7-3.5l3.3-5.8l5.2,2.3
	c0.7-0.6,1.4-1.1,2.3-1.6c0.8-0.5,1.6-0.8,2.4-1.1L20.7,6h6.7l0.8,5.8c0.8,0.3,1.6,0.7,2.4,1.1c0.8,0.4,1.5,0.9,2.2,1.5l5.4-2.3
	l3.3,5.8l-4,3c-0.3-0.1-0.7-0.2-1-0.3c-0.3-0.1-0.7-0.1-1-0.2l4-3l-2-3.5l-5.3,2.2c-0.6-0.7-1.5-1.4-2.5-2s-2-1-2.9-1.1l-0.7-5.6
	h-4.2l-0.6,5.5c-1.1,0.2-2.1,0.6-2.9,1.1c-0.9,0.5-1.7,1.2-2.6,2l-5.2-2l-2,3.5l4.5,3.3c-0.2,0.5-0.3,1-0.3,1.5
	c-0.1,0.5-0.1,1.1-0.1,1.7c0,0.5,0,1.1,0.1,1.6s0.2,1,0.3,1.5l-4.5,3.4l2,3.5l5.1-2.2c0.7,0.7,1.4,1.3,2.2,1.8
	c0.8,0.5,1.6,0.9,2.5,1.1c0.1,1.4,0.5,2.7,1,3.9s1.2,2.3,2,3.3C23.4,42,20.7,42,20.7,42z M21.5,28.1c0.1-0.2,0.2-0.5,0.3-0.7
	c0.1-0.2,0.3-0.4,0.4-0.7c-0.5-0.3-0.8-0.7-1.1-1.1c-0.3-0.5-0.4-1-0.4-1.6c0-0.9,0.3-1.7,0.9-2.3c0.6-0.6,1.4-0.9,2.3-0.9
	c0.6,0,1.1,0.1,1.6,0.4s0.9,0.6,1.2,1.1c0.2-0.1,0.5-0.2,0.7-0.3c0.2-0.1,0.5-0.2,0.7-0.3c-0.4-0.7-1-1.3-1.7-1.7
	c-0.7-0.4-1.5-0.6-2.4-0.6c-1.3,0-2.4,0.5-3.4,1.4c-0.9,0.9-1.4,2.1-1.4,3.4c0,0.9,0.2,1.7,0.6,2.4C20.2,27.1,20.8,27.7,21.5,28.1z"
	/>
</svg>
