<?xml version="1.0" encoding="utf-8"?>
<!-- Generator: Adobe Illustrator 26.3.1, SVG Export Plug-In . SVG Version: 6.00 Build 0)  -->
<svg version="1.1" id="Слой_1" xmlns="http://www.w3.org/2000/svg" xmlns:xlink="http://www.w3.org/1999/xlink" x="0px" y="0px"
	 viewBox="0 0 48 48" style="enable-background:new 0 0 48 48;" xml:space="preserve">
<path d="M15.8,47.5c-0.4,0-0.7-0.1-0.9-0.4c-0.3-0.3-0.4-0.6-0.4-0.9c0-0.3,0.1-0.7,0.4-0.9c0.3-0.3,0.6-0.4,0.9-0.4
	c0.3,0,0.7,0.1,0.9,0.4c0.3,0.3,0.4,0.6,0.4,0.9c0,0.4-0.1,0.7-0.4,0.9C16.4,47.4,16.1,47.5,15.8,47.5z M24,47.5
	c-0.4,0-0.7-0.1-0.9-0.4c-0.3-0.3-0.4-0.6-0.4-0.9c0-0.4,0.1-0.7,0.4-0.9c0.3-0.3,0.6-0.4,0.9-0.4c0.4,0,0.7,0.1,0.9,0.4
	c0.3,0.3,0.4,0.6,0.4,0.9c0,0.4-0.1,0.7-0.4,0.9C24.6,47.4,24.3,47.5,24,47.5z M32.2,47.5c-0.4,0-0.7-0.1-0.9-0.4
	c-0.3-0.3-0.4-0.6-0.4-0.9c0-0.3,0.1-0.7,0.4-0.9c0.3-0.3,0.6-0.4,0.9-0.4c0.4,0,0.7,0.1,0.9,0.4c0.3,0.3,0.4,0.6,0.4,0.9
	c0,0.4-0.1,0.7-0.4,0.9C32.9,47.4,32.6,47.5,32.2,47.5z M16.4,38c-0.8,0-1.4-0.3-2-0.8c-0.5-0.5-0.8-1.2-0.8-2V4.8
	c0-0.8,0.3-1.4,0.8-2C15,2.3,15.6,2,16.4,2h15.2c0.8,0,1.4,0.3,2,0.8c0.5,0.5,0.8,1.2,0.8,2v30.5c0,0.8-0.3,1.4-0.8,2
	c-0.5,0.5-1.2,0.8-2,0.8L16.4,38L16.4,38z M16.4,36.5h15.2c0.4,0,0.7-0.1,0.9-0.3s0.3-0.5,0.3-0.9V33H15.2v2.2
	c0,0.4,0.1,0.7,0.3,0.9C15.7,36.3,16,36.5,16.4,36.5z M15.2,31.5h17.7v-23H15.2V31.5z M15.2,7h17.7V4.8c0-0.4-0.1-0.7-0.3-0.9
	c-0.2-0.2-0.5-0.3-0.9-0.3H16.4c-0.4,0-0.7,0.1-0.9,0.3c-0.2,0.2-0.3,0.5-0.3,0.9V7z M15.2,7V3.5V7z M15.2,36.5V33V36.5z"/>
</svg>
