<?xml version="1.0" encoding="utf-8"?>
<!-- Generator: Adobe Illustrator 26.3.1, SVG Export Plug-In . SVG Version: 6.00 Build 0)  -->
<svg version="1.1" id="Слой_1" xmlns="http://www.w3.org/2000/svg" xmlns:xlink="http://www.w3.org/1999/xlink" x="0px" y="0px"
	 viewBox="0 0 48 48" style="enable-background:new 0 0 48 48;" xml:space="preserve">
<path d="M23.5,32.3h1.1l0.3-2.3c0.9-0.2,1.6-0.4,2.1-0.8c0.6-0.3,1.1-0.8,1.5-1.3l2.4,1l0.6-1.2l-1.9-1.3c0.3-0.9,0.4-1.6,0.4-2.4
	s-0.1-1.5-0.4-2.4l1.9-1.3L31,19.2l-2.4,0.9c-0.5-0.6-1-1-1.5-1.3c-0.6-0.3-1.3-0.6-2.1-0.8l-0.4-2.3h-1.1L23.1,18
	c-0.9,0.2-1.6,0.4-2.1,0.8c-0.6,0.3-1.1,0.8-1.5,1.3L17,19.2l-0.6,1.2l1.9,1.3C18.1,22.5,18,23.3,18,24s0.1,1.5,0.4,2.4l-1.9,1.3
	l0.6,1.2l2.4-1c0.5,0.6,1,1,1.5,1.3c0.6,0.3,1.3,0.6,2.1,0.8L23.5,32.3z M24,28.1c-1.2,0-2.1-0.4-2.9-1.2c-0.8-0.8-1.2-1.8-1.2-2.9
	c0-1.2,0.4-2.1,1.2-2.9c0.8-0.8,1.8-1.2,2.9-1.2c1.2,0,2.1,0.4,2.9,1.2c0.8,0.8,1.2,1.8,1.2,2.9c0,1.2-0.4,2.1-1.2,2.9
	C26.1,27.7,25.1,28.1,24,28.1z M10.8,40c-0.8,0-1.4-0.3-2-0.8C8.3,38.7,8,38,8,37.2V10.8c0-0.8,0.3-1.4,0.8-2C9.3,8.3,10,8,10.8,8
	h26.5c0.8,0,1.4,0.3,2,0.8c0.5,0.5,0.8,1.2,0.8,2v26.5c0,0.8-0.3,1.4-0.8,2c-0.5,0.5-1.2,0.8-2,0.8L10.8,40L10.8,40z M10.8,38.5
	h26.5c0.3,0,0.6-0.1,0.8-0.4c0.3-0.3,0.4-0.5,0.4-0.8V10.8c0-0.3-0.1-0.6-0.4-0.8c-0.3-0.3-0.5-0.4-0.8-0.4H10.8
	c-0.3,0-0.6,0.1-0.8,0.4c-0.3,0.3-0.4,0.5-0.4,0.8v26.5c0,0.3,0.1,0.6,0.4,0.8S10.5,38.5,10.8,38.5z M9.5,9.5v28.9V9.5z"/>
</svg>
