<?xml version="1.0" encoding="utf-8"?>
<!-- Generator: Adobe Illustrator 26.3.1, SVG Export Plug-In . SVG Version: 6.00 Build 0)  -->
<svg version="1.1" id="Слой_1" xmlns="http://www.w3.org/2000/svg" xmlns:xlink="http://www.w3.org/1999/xlink" x="0px" y="0px"
	 viewBox="0 0 48 48" style="enable-background:new 0 0 48 48;" xml:space="preserve">
<path d="M32.6,34.6l-1.1-1.1L41,24l-9.5-9.5l1.1-1.1L43.2,24L32.6,34.6z M15.4,34.6L4.8,24l10.6-10.6l1.1,1.1L7,24l9.5,9.5
	L15.4,34.6z M16,25.4c-0.4,0-0.7-0.1-1-0.4s-0.4-0.6-0.4-1s0.1-0.7,0.4-1c0.3-0.3,0.6-0.4,1-0.4s0.7,0.1,1,0.4s0.4,0.6,0.4,1
	s-0.1,0.7-0.4,1S16.4,25.4,16,25.4z M24,25.4c-0.4,0-0.7-0.1-1-0.4s-0.4-0.6-0.4-1s0.1-0.7,0.4-1s0.6-0.4,1-0.4s0.7,0.1,1,0.4
	s0.4,0.6,0.4,1s-0.1,0.7-0.4,1S24.4,25.4,24,25.4z M32,25.4c-0.4,0-0.7-0.1-1-0.4s-0.4-0.6-0.4-1s0.1-0.7,0.4-1s0.6-0.4,1-0.4
	c0.4,0,0.7,0.1,1,0.4s0.4,0.6,0.4,1s-0.1,0.7-0.4,1C32.7,25.3,32.4,25.4,32,25.4z"/>
</svg>
