<?xml version="1.0" encoding="utf-8"?>
<!-- Generator: Adobe Illustrator 26.3.1, SVG Export Plug-In . SVG Version: 6.00 Build 0)  -->
<svg version="1.1" id="Слой_1" xmlns="http://www.w3.org/2000/svg" xmlns:xlink="http://www.w3.org/1999/xlink" x="0px" y="0px"
	 viewBox="0 0 48 48" style="enable-background:new 0 0 48 48;" xml:space="preserve">
<path d="M18.5,45c-0.4,0-0.8-0.1-1-0.4c-0.3-0.3-0.4-0.6-0.4-1v-23c0-0.4,0.1-0.8,0.4-1c0.3-0.3,0.6-0.4,1-0.4h11
	c0.4,0,0.8,0.1,1,0.4c0.3,0.3,0.4,0.6,0.4,1v23c0,0.4-0.1,0.8-0.4,1c-0.3,0.3-0.6,0.4-1,0.4H18.5z M24,27.5c0.4,0,0.8-0.1,1.1-0.4
	c0.3-0.3,0.4-0.6,0.4-1.1c0-0.4-0.2-0.7-0.5-1s-0.6-0.5-1-0.5s-0.8,0.1-1.1,0.4c-0.3,0.3-0.4,0.7-0.4,1.1s0.2,0.7,0.5,1
	S23.6,27.5,24,27.5z M16.7,13.2l-1.1-1.1c1.2-1,2.5-1.8,3.9-2.3C20.9,9.3,22.4,9,24,9s3.1,0.3,4.5,0.8s2.8,1.3,3.9,2.3l-1.1,1.1
	c-1-0.9-2.2-1.5-3.4-2c-1.2-0.5-2.5-0.7-3.9-0.7s-2.7,0.2-3.9,0.7C18.8,11.7,17.7,12.3,16.7,13.2z M10.9,7.5l-1-1.1
	c1.9-1.8,4.1-3.1,6.6-4C18.8,1.5,21.4,1,24,1s5.1,0.5,7.5,1.4C34,3.3,36.1,4.7,38,6.5l-1,1.1c-1.8-1.6-3.8-2.9-6-3.8s-4.6-1.3-7-1.3
	s-4.8,0.4-7,1.3C14.7,4.7,12.7,5.9,10.9,7.5z M18.5,43.5h10.9v-23H18.5V43.5z M18.5,43.5h10.9C29.5,43.5,18.5,43.5,18.5,43.5z"/>
</svg>
