<?xml version="1.0" encoding="utf-8"?>
<!-- Generator: Adobe Illustrator 26.3.1, SVG Export Plug-In . SVG Version: 6.00 Build 0)  -->
<svg version="1.1" id="Слой_1" xmlns="http://www.w3.org/2000/svg" xmlns:xlink="http://www.w3.org/1999/xlink" x="0px" y="0px"
	 viewBox="0 0 48 48" style="enable-background:new 0 0 48 48;" xml:space="preserve">
<path d="M24,31.6l2.1-2h3.7v-3.8l1.9-1.9L29.8,22v-3.7H26l-2-2l-2,2h-3.7V22l-1.9,1.9l1.9,1.9v3.8H22L24,31.6z M24,28.9V19
	c1.4,0,2.5,0.5,3.5,1.5s1.4,2.1,1.4,3.5s-0.5,2.5-1.4,3.5C26.6,28.4,25.4,28.9,24,28.9z M8.8,38c-0.8,0-1.4-0.3-2-0.8
	C6.3,36.7,6,36,6,35.2V12.8c0-0.8,0.3-1.4,0.8-2C7.3,10.3,8,10,8.8,10h30.5c0.8,0,1.4,0.3,2,0.8c0.5,0.5,0.8,1.2,0.8,2v22.5
	c0,0.8-0.3,1.4-0.8,2c-0.5,0.5-1.2,0.8-2,0.8L8.8,38L8.8,38z M8.8,36.5h30.5c0.3,0,0.6-0.1,0.8-0.4c0.3-0.3,0.4-0.5,0.4-0.8V12.8
	c0-0.3-0.1-0.6-0.4-0.8c-0.3-0.3-0.5-0.4-0.8-0.4H8.8c-0.3,0-0.6,0.1-0.8,0.4c-0.3,0.3-0.4,0.5-0.4,0.8v22.5c0,0.3,0.1,0.6,0.4,0.8
	C8.2,36.3,8.5,36.5,8.8,36.5z M7.5,36.5v-25V36.5z"/>
</svg>
