<?xml version="1.0" encoding="utf-8"?>
<!-- Generator: Adobe Illustrator 26.3.1, SVG Export Plug-In . SVG Version: 6.00 Build 0)  -->
<svg version="1.1" id="Слой_1" xmlns="http://www.w3.org/2000/svg" xmlns:xlink="http://www.w3.org/1999/xlink" x="0px" y="0px"
	 viewBox="0 0 48 48" style="enable-background:new 0 0 48 48;" xml:space="preserve">
<path d="M36.4,16.6l-1.8-3.9l-3.9-1.8L34.6,9l1.8-3.8L38.2,9l3.8,1.9l-3.8,1.8L36.4,16.6z M40.5,31.4l-1.3-2.8l-2.8-1.3l2.8-1.4
	l1.3-2.8l1.3,2.8l2.8,1.4l-2.8,1.3L40.5,31.4z M16.1,42l-0.4-4c-0.6-0.2-1.2-0.5-1.9-0.8s-1.3-0.8-1.7-1.2l-3.6,1.5l-2.9-4.9
	l3.3-2.3c-0.2-0.8-0.2-1.5-0.2-2.1s0.1-1.3,0.2-2L5.6,24l2.8-5l3.6,1.5c0.4-0.4,1-0.8,1.7-1.2c0.7-0.4,1.3-0.6,1.9-0.8l0.5-4.1h5.6
	l0.5,4.1c0.6,0.2,1.2,0.4,1.9,0.8s1.3,0.8,1.7,1.2l3.6-1.5l3,5L29,26.2c0.2,0.8,0.3,1.4,0.3,2s-0.1,1.3-0.3,2.1l3.4,2.3l-3,4.9
	L26,36c-0.4,0.4-1,0.8-1.7,1.2s-1.4,0.6-1.9,0.8l-0.5,4H16.1z M19,33c1.4,0,2.5-0.5,3.5-1.4c0.9-0.9,1.4-2.1,1.4-3.4
	s-0.5-2.5-1.4-3.4s-2.1-1.4-3.5-1.4c-1.3,0-2.5,0.5-3.4,1.4s-1.4,2.1-1.4,3.4s0.4,2.5,1.4,3.4C16.5,32.6,17.6,33,19,33z M19,31.5
	c-0.9,0-1.7-0.3-2.3-1s-0.9-1.4-0.9-2.4c0-0.9,0.3-1.7,0.9-2.3c0.6-0.6,1.4-0.9,2.3-0.9s1.7,0.3,2.4,1c0.6,0.6,1,1.4,1,2.3
	s-0.3,1.7-1,2.4C20.7,31.2,19.9,31.6,19,31.5z M17.5,40.4h3.1l0.4-3.7c1-0.3,1.8-0.6,2.6-1c0.8-0.4,1.4-1,2.1-1.7l3.3,1.5l1.6-2.6
	l-3.1-2.1c0.3-0.8,0.5-1.6,0.5-2.5s-0.2-1.8-0.5-2.6l3-2.2L28.9,21l-3.3,1.5c-0.6-0.7-1.3-1.3-2.1-1.7c-0.8-0.4-1.6-0.8-2.6-1
	L20.6,16h-3.1L17,19.8c-1,0.2-1.8,0.6-2.6,1s-1.4,1-2.1,1.7L9.1,21l-1.5,2.5l2.9,2.2c-0.3,0.8-0.5,1.7-0.5,2.6s0.2,1.8,0.5,2.5
	l-3,2.1l1.6,2.6l3.3-1.5c0.6,0.7,1.3,1.3,2.1,1.7c0.8,0.4,1.6,0.8,2.6,1L17.5,40.4z"/>
</svg>
