<?xml version="1.0" encoding="utf-8"?>
<!-- Generator: Adobe Illustrator 26.3.1, SVG Export Plug-In . SVG Version: 6.00 Build 0)  -->
<svg version="1.1" id="Слой_1" xmlns="http://www.w3.org/2000/svg" xmlns:xlink="http://www.w3.org/1999/xlink" x="0px" y="0px"
	 viewBox="0 0 48 48" style="enable-background:new 0 0 48 48;" xml:space="preserve">
<path d="M7.9,44v-8.9c-1.1-0.3-2-0.8-2.8-1.7C4.4,32.6,4,31.6,4,30.5v-18h3.9V4.8c0-0.2,0.1-0.4,0.2-0.6C8.2,4.1,8.4,4,8.7,4
	c0.2,0,0.4,0.1,0.6,0.2c0.1,0.1,0.2,0.3,0.2,0.6v7.7h3.9v18c0,1.1-0.4,2.1-1.1,2.9c-0.7,0.8-1.7,1.4-2.8,1.7V44
	C9.4,44,7.9,44,7.9,44z M23.2,44v-8.9c-1.1-0.3-2-0.8-2.8-1.7c-0.8-0.8-1.1-1.8-1.1-2.9v-18h3.9V4.8c0-0.2,0.1-0.4,0.2-0.6
	C23.6,4.1,23.8,4,24,4s0.4,0.1,0.6,0.2c0.1,0.1,0.2,0.3,0.2,0.6v7.7h3.9v18c0,1.1-0.4,2.1-1.1,2.9c-0.7,0.8-1.7,1.4-2.8,1.7V44
	C24.8,44,23.2,44,23.2,44z M38.6,44v-8.9c-1.1-0.3-2-0.8-2.8-1.7c-0.8-0.8-1.1-1.8-1.1-2.9v-18h3.9V4.8c0-0.2,0.1-0.4,0.2-0.6
	C38.9,4.1,39.1,4,39.4,4c0.2,0,0.4,0.1,0.6,0.2c0.1,0.1,0.2,0.3,0.2,0.6v7.7H44v18c0,1.1-0.4,2.1-1.1,2.9c-0.8,0.8-1.7,1.4-2.8,1.7
	V44H38.6z M5.5,14v10h6.2V14H5.5z M20.9,14v10h6.2V14H20.9z M36.2,14v10h6.2V14H36.2z M8.6,33.5c0.8,0,1.6-0.3,2.2-0.9
	c0.6-0.6,0.9-1.3,0.9-2.1v-5H5.5v5c0,0.8,0.3,1.5,0.9,2.1C7.1,33.2,7.8,33.5,8.6,33.5z M24,33.5c0.8,0,1.6-0.3,2.2-0.9
	c0.6-0.6,0.9-1.3,0.9-2.1v-5h-6.2v5c0,0.8,0.3,1.5,0.9,2.1C22.4,33.2,23.2,33.5,24,33.5z M39.4,33.5c0.9,0,1.6-0.3,2.2-0.9
	c0.6-0.6,0.9-1.3,0.9-2.1v-5h-6.2v5c0,0.8,0.3,1.5,0.9,2.1C37.8,33.2,38.5,33.5,39.4,33.5z"/>
</svg>
