<?xml version="1.0" encoding="utf-8"?>
<!-- Generator: Adobe Illustrator 26.3.1, SVG Export Plug-In . SVG Version: 6.00 Build 0)  -->
<svg version="1.1" id="Слой_1" xmlns="http://www.w3.org/2000/svg" xmlns:xlink="http://www.w3.org/1999/xlink" x="0px" y="0px"
	 viewBox="0 0 48 48" style="enable-background:new 0 0 48 48;" xml:space="preserve">
<path d="M29.2,42c-0.7,0-1.3-0.2-1.8-0.7s-0.7-1.1-0.7-1.8V31c0-0.7,0.2-1.3,0.7-1.8s1.1-0.7,1.8-0.7h2.5l1.7-1.7h3.4l1.7,1.7H41
	c0.7,0,1.3,0.2,1.8,0.7s0.7,1.1,0.7,1.8v8.5c0,0.7-0.2,1.3-0.7,1.8S41.7,42,41,42H29.2z M35.1,38.6c0.9,0,1.7-0.3,2.4-1s1-1.5,1-2.4
	s-0.3-1.7-1-2.4s-1.5-1-2.4-1s-1.7,0.3-2.4,1s-1,1.5-1,2.4s0.3,1.7,1,2.4C33.4,38.3,34.2,38.6,35.1,38.6z M23.9,19.2
	c-1.3,0-2.4,0.5-3.4,1.4c-0.9,0.9-1.4,2.1-1.4,3.4c0,1,0.3,1.9,0.8,2.6c0.5,0.8,1.2,1.3,2,1.7v-1.8c-0.4-0.3-0.7-0.7-0.9-1.1
	c-0.2-0.5-0.4-1-0.4-1.4c0-0.9,0.3-1.7,0.9-2.3c0.6-0.6,1.4-0.9,2.3-0.9c0.5,0,1,0.1,1.5,0.3c0.4,0.2,0.8,0.5,1.1,0.9h1.8
	c-0.4-0.8-0.9-1.5-1.7-2C25.7,19.5,24.9,19.2,23.9,19.2z M20.7,42l-0.8-5.7c-0.7-0.2-1.5-0.6-2.4-1.1s-1.6-1-2.2-1.6L9.9,36
	l-3.3-5.9l4.7-3.5c-0.1-0.4-0.1-0.8-0.2-1.3c0-0.4-0.1-0.9-0.1-1.3s0-0.8,0.1-1.2c0-0.4,0.1-0.9,0.2-1.4l-4.7-3.5l3.3-5.8l5.2,2.3
	c0.7-0.6,1.4-1.1,2.3-1.6c0.8-0.5,1.6-0.8,2.4-1.1L20.7,6h6.7l0.8,5.8c0.8,0.3,1.6,0.7,2.4,1.1c0.8,0.4,1.5,0.9,2.2,1.5l5.4-2.3
	l3.3,5.8l-5.1,3.8c0,0.1,0,0.2,0,0.2s0,0.1,0.1,0.1H35c0-0.2-0.1-0.4-0.1-0.5c0-0.2-0.1-0.4-0.1-0.5l4.6-3.5l-2-3.5l-5.3,2.2
	c-0.6-0.7-1.5-1.4-2.5-2s-2-1-2.9-1.1L26,7.5h-4.2L21.2,13c-1.1,0.2-2.1,0.6-2.9,1.1c-0.9,0.5-1.7,1.2-2.6,2L10.6,14l-2,3.5l4.5,3.3
	c-0.2,0.5-0.3,1-0.3,1.5c-0.1,0.5-0.1,1.1-0.1,1.7c0,0.5,0,1.1,0.1,1.6s0.2,1,0.3,1.5l-4.5,3.4l2,3.5l5.1-2.2
	c0.8,0.8,1.8,1.5,2.8,2.1c1.1,0.5,2.2,0.9,3.4,1.2V42H20.7z"/>
</svg>
