<?xml version="1.0" encoding="utf-8"?>
<!-- Generator: Adobe Illustrator 26.3.1, SVG Export Plug-In . SVG Version: 6.00 Build 0)  -->
<svg version="1.1" id="Слой_1" xmlns="http://www.w3.org/2000/svg" xmlns:xlink="http://www.w3.org/1999/xlink" x="0px" y="0px"
	 viewBox="0 0 48 48" style="enable-background:new 0 0 48 48;" xml:space="preserve">
<path d="M22.6,28.5c-1-0.3-1.8-0.8-2.5-1.7c-0.7-0.8-1-1.8-1-2.9c0-1.3,0.5-2.5,1.4-3.4s2.1-1.4,3.4-1.4s2.4,0.4,3.3,1.3
	s1.4,1.9,1.5,3.2c0,0.1,0,0.1,0,0.2s0,0.2,0,0.3H28c-0.2,0-0.3,0-0.5,0.1c-0.2,0-0.3,0-0.5,0.1c0-0.1,0-0.1,0-0.2s0-0.1,0-0.2
	c0-0.9-0.3-1.6-0.9-2.2s-1.4-0.9-2.3-0.9s-1.7,0.3-2.3,0.9c-0.6,0.6-0.9,1.4-0.9,2.3c0,0.8,0.2,1.4,0.7,2s1.1,1,1.8,1.1
	c-0.1,0.2-0.3,0.4-0.3,0.7C22.7,28,22.6,28.3,22.6,28.5z M20.7,42l-0.8-5.7c-0.7-0.2-1.5-0.6-2.4-1.1s-1.6-1-2.2-1.6L9.9,36
	l-3.3-5.9l4.7-3.5c-0.1-0.4-0.1-0.8-0.2-1.3c0-0.4-0.1-0.9-0.1-1.3s0-0.8,0.1-1.3c0-0.4,0.1-0.9,0.2-1.4l-4.7-3.5L9.9,12l5.2,2.3
	c0.7-0.6,1.4-1.1,2.3-1.6c0.8-0.5,1.6-0.8,2.4-1.1L20.7,6h6.7l0.8,5.8c0.8,0.3,1.6,0.7,2.4,1.1c0.8,0.4,1.5,0.9,2.2,1.5l5.4-2.3
	l3.3,5.8l-4.9,3.6c0.1,0.5,0.2,0.9,0.2,1.3s0,0.8,0,1.2h-1.6c0-0.6,0-1.1-0.1-1.6s-0.2-0.9-0.3-1.5l4.6-3.5l-2-3.5l-5.3,2.2
	c-0.6-0.7-1.5-1.4-2.5-2s-2-1-2.9-1.1L26,7.4h-4.1l-0.6,5.5c-1.1,0.2-2.1,0.6-2.9,1.1c-0.9,0.5-1.7,1.2-2.6,2l-5.2-2l-2,3.5l4.5,3.3
	c-0.2,0.5-0.3,1-0.3,1.5c-0.1,0.5-0.1,1.1-0.1,1.7s0,1.1,0.1,1.6s0.2,1,0.3,1.5l-4.5,3.4l2,3.5l5.1-2.2c0.8,0.8,1.8,1.5,2.8,2.1
	c1.1,0.5,2.2,0.9,3.4,1.2V42H20.7z M28.3,42c-0.5,0-0.9-0.2-1.3-0.5c-0.4-0.4-0.5-0.8-0.5-1.3v-9.7c0-0.5,0.1-0.9,0.4-1.2
	c0.3-0.3,0.6-0.5,1-0.6L29,31h2.5l-1.3-2.5h2.5L34,31h2.5l-1.3-2.5h2.5L39,31h2.5l-1.3-2.5h1.1c0.5,0,0.9,0.2,1.3,0.5
	c0.4,0.4,0.5,0.8,0.5,1.3v9.8c0,0.5-0.2,0.9-0.5,1.3C42.5,41.8,42,42,41.5,42H28.3z M28.2,40.2h13.4v-7.5H28.2
	C28.2,32.8,28.2,40.2,28.2,40.2z"/>
</svg>
