<?xml version="1.0" encoding="utf-8"?>
<!-- Generator: Adobe Illustrator 26.3.1, SVG Export Plug-In . SVG Version: 6.00 Build 0)  -->
<svg version="1.1" id="Слой_1" xmlns="http://www.w3.org/2000/svg" xmlns:xlink="http://www.w3.org/1999/xlink" x="0px" y="0px"
	 viewBox="0 0 48 48" style="enable-background:new 0 0 48 48;" xml:space="preserve">
<path d="M24.1,30.9L30,25c0.5-0.5,0.8-1.1,0.9-1.8c0.1-0.7,0.1-1.4-0.2-2c-0.3-0.6-0.7-1.2-1.3-1.6c-0.6-0.4-1.2-0.6-1.9-0.6
	c-0.7,0-1.3,0.2-1.9,0.6S24.5,20.5,24,21c-0.5-0.5-1-0.9-1.6-1.4c-0.5-0.4-1.2-0.6-1.9-0.6c-0.7,0-1.3,0.2-1.9,0.6s-1,0.9-1.3,1.5
	c-0.3,0.7-0.4,1.3-0.2,2c0.1,0.7,0.4,1.3,0.9,1.8C18.1,25,24.1,30.9,24.1,30.9z M20.7,42l-0.8-5.7c-0.7-0.2-1.5-0.6-2.4-1.1
	s-1.6-1-2.2-1.6L9.9,36l-3.3-5.9l4.7-3.5c-0.1-0.4-0.1-0.8-0.2-1.3c0-0.4-0.1-0.9-0.1-1.3s0-0.8,0.1-1.2c0-0.4,0.1-0.9,0.2-1.4
	l-4.7-3.5l3.3-5.8l5.2,2.3c0.7-0.6,1.4-1.1,2.3-1.6c0.8-0.5,1.6-0.8,2.4-1.1L20.7,6h6.7l0.8,5.8c0.8,0.3,1.6,0.7,2.4,1.1
	c0.8,0.4,1.5,0.9,2.2,1.5l5.4-2.3l3.3,5.8l-4.9,3.6c0.1,0.5,0.2,0.9,0.2,1.3s0,0.8,0,1.2c0,0.4,0,0.7-0.1,1.2c0,0.4-0.1,0.9-0.2,1.4
	l4.8,3.5L38,36l-5.4-2.4c-0.7,0.6-1.4,1.2-2.2,1.6c-0.8,0.5-1.5,0.8-2.3,1L27.3,42H20.7z M21.9,40.5H26l0.7-5.6c1-0.3,2-0.6,2.8-1.1
	c0.9-0.5,1.7-1.1,2.6-2l5.1,2.2l2-3.5l-4.5-3.4c0.1-0.6,0.2-1.2,0.3-1.7s0.1-1,0.1-1.5s0-1-0.1-1.5s-0.2-1-0.3-1.6l4.6-3.5l-2-3.5
	L32,16c-0.6-0.7-1.5-1.4-2.5-2s-2-1-2.9-1.1l-0.7-5.6h-4.2l-0.6,5.5C20,13,19,13.4,18.2,13.9c-0.9,0.5-1.7,1.2-2.6,2l-5-1.9l-2,3.5
	l4.5,3.3c-0.2,0.5-0.3,1-0.3,1.5c-0.1,0.5-0.1,1.1-0.1,1.7c0,0.5,0,1.1,0.1,1.6s0.2,1,0.3,1.5l-4.5,3.4l2,3.5l5.1-2.2
	c0.8,0.8,1.6,1.5,2.5,2s1.9,0.9,3,1.1C21.3,34.9,21.9,40.5,21.9,40.5z"/>
</svg>
