<?xml version="1.0" encoding="utf-8"?>
<!-- Generator: Adobe Illustrator 26.3.1, SVG Export Plug-In . SVG Version: 6.00 Build 0)  -->
<svg version="1.1" id="Слой_1" xmlns="http://www.w3.org/2000/svg" xmlns:xlink="http://www.w3.org/1999/xlink" x="0px" y="0px"
	 viewBox="0 0 48 48" style="enable-background:new 0 0 48 48;" xml:space="preserve">
<path d="M20.7,42l-0.8-5.7c-0.7-0.2-1.5-0.6-2.4-1.1s-1.6-1-2.2-1.6L9.9,36l-3.3-5.9l4.7-3.5c-0.1-0.4-0.1-0.8-0.2-1.3
	c0-0.4-0.1-0.9-0.1-1.3s0-0.8,0.1-1.2c0-0.4,0.1-0.9,0.2-1.4l-4.7-3.5l3.3-5.8l5.2,2.3c0.7-0.6,1.4-1.1,2.3-1.6
	c0.8-0.5,1.6-0.8,2.4-1.1L20.7,6h6.7l0.8,5.8c0.8,0.3,1.6,0.7,2.4,1.1c0.8,0.4,1.5,0.9,2.2,1.5l5.4-2.3l3.3,5.8l-4,3
	c-0.3-0.1-0.7-0.2-1-0.3c-0.3-0.1-0.7-0.1-1-0.2l4-3l-2-3.5l-5.3,2.2c-0.6-0.7-1.5-1.4-2.5-2s-2-1-2.9-1.1l-0.7-5.6h-4.2l-0.6,5.5
	c-1.1,0.2-2.1,0.6-2.9,1.1c-0.9,0.5-1.7,1.2-2.6,2l-5.2-2l-2,3.5l4.5,3.3c-0.2,0.5-0.3,1-0.3,1.5c-0.1,0.5-0.1,1.1-0.1,1.7
	c0,0.5,0,1.1,0.1,1.6s0.2,1,0.3,1.5l-4.5,3.4l2,3.5l5.1-2.2c0.7,0.7,1.4,1.3,2.2,1.8c0.8,0.5,1.6,0.9,2.5,1.1c0.1,1.4,0.5,2.7,1,3.9
	s1.2,2.3,2,3.3C23.4,42,20.7,42,20.7,42z M21.5,28.1c0.1-0.2,0.2-0.5,0.3-0.7c0.1-0.2,0.3-0.4,0.4-0.7c-0.5-0.3-0.8-0.7-1.1-1.1
	c-0.3-0.5-0.4-1-0.4-1.6c0-0.9,0.3-1.7,0.9-2.3c0.6-0.6,1.4-0.9,2.3-0.9c0.6,0,1.1,0.1,1.6,0.4s0.9,0.6,1.2,1.1
	c0.2-0.1,0.5-0.2,0.7-0.3c0.2-0.1,0.5-0.2,0.7-0.3c-0.4-0.7-1-1.3-1.7-1.7c-0.7-0.4-1.5-0.6-2.4-0.6c-1.3,0-2.4,0.5-3.4,1.4
	c-0.9,0.9-1.4,2.1-1.4,3.4c0,0.9,0.2,1.7,0.6,2.4C20.2,27.1,20.8,27.7,21.5,28.1z M33.5,38.5l5-5l-5-5l-1.1,1.1l3.1,3.1h-7v1.5h7
	l-3.1,3.1L33.5,38.5z M33.5,42c-2.3,0-4.3-0.8-6-2.5s-2.5-3.6-2.5-6s0.8-4.3,2.5-6s3.6-2.5,6-2.5s4.3,0.8,6,2.5s2.5,3.6,2.5,6
	s-0.8,4.3-2.5,6C37.9,41.2,35.9,42,33.5,42z"/>
</svg>
