<?xml version="1.0" encoding="utf-8"?>
<!-- Generator: Adobe Illustrator 26.3.1, SVG Export Plug-In . SVG Version: 6.00 Build 0)  -->
<svg version="1.1" id="Слой_1" xmlns="http://www.w3.org/2000/svg" xmlns:xlink="http://www.w3.org/1999/xlink" x="0px" y="0px"
	 viewBox="0 0 48 48" style="enable-background:new 0 0 48 48;" xml:space="preserve">
<path d="M17.5,35.5c0.2,0,0.3,0,0.4,0h0.5c0.1,0,0.2,0,0.3,0c0.1,0,0.2,0,0.3,0v3.2c0,0.4,0.1,0.7,0.3,0.9c0.2,0.2,0.5,0.3,0.9,0.3
	h18.5c0.4,0,0.7-0.1,0.9-0.3s0.3-0.5,0.3-0.9V20.3c0-0.4-0.1-0.7-0.3-0.9c-0.2-0.2-0.5-0.3-0.9-0.3h-3.2c0-0.1,0-0.2,0-0.3
	c0-0.1,0-0.2,0-0.3V18c0-0.1,0-0.3,0-0.5h3.3c0.7,0,1.4,0.3,1.9,0.8c0.6,0.6,0.8,1.2,0.8,1.9v18.5c0,0.7-0.3,1.4-0.8,1.9
	c-0.6,0.6-1.2,0.8-1.9,0.8H20.3c-0.7,0-1.4-0.3-1.9-0.8c-0.6-0.6-0.8-1.2-0.8-1.9C17.5,38.8,17.5,35.5,17.5,35.5z M18.5,30.5
	c-3.3,0-6.2-1.2-8.5-3.5s-3.5-5.2-3.5-8.5S7.7,12.3,10,10s5.2-3.5,8.5-3.5S24.7,7.7,27,10s3.5,5.2,3.5,8.5S29.3,24.7,27,27
	C24.6,29.3,21.8,30.5,18.5,30.5z M18.4,28.9c2.9,0,5.4-1,7.4-3.1c2-2,3.1-4.5,3.1-7.4s-1-5.4-3.1-7.4c-2-2-4.5-3.1-7.4-3.1
	S13,8.9,11,11c-2,2-3.1,4.5-3.1,7.4s1,5.4,3.1,7.4S15.6,28.9,18.4,28.9z"/>
</svg>
