<?xml version="1.0" encoding="utf-8"?>
<!-- Generator: Adobe Illustrator 26.3.1, SVG Export Plug-In . SVG Version: 6.00 Build 0)  -->
<svg version="1.1" id="Слой_1" xmlns="http://www.w3.org/2000/svg" xmlns:xlink="http://www.w3.org/1999/xlink" x="0px" y="0px"
	 viewBox="0 0 48 48" style="enable-background:new 0 0 48 48;" xml:space="preserve">
<path d="M12,20c-2.2,0-4.1-0.8-5.7-2.3C4.8,16.1,4,14.2,4,12s0.8-4.1,2.3-5.7C7.9,4.8,9.8,4,12,4s4.1,0.8,5.7,2.3
	C19.2,7.9,20,9.8,20,12s-0.8,4.1-2.3,5.7C16.1,19.2,14.2,20,12,20z M12,18.5c1.8,0,3.4-0.6,4.6-1.9s1.9-2.8,1.9-4.6
	s-0.6-3.4-1.9-4.6c-1.2-1.2-2.8-1.9-4.6-1.9S8.7,6.1,7.4,7.4C6.2,8.6,5.5,10.2,5.5,12s0.6,3.3,1.9,4.6C8.7,17.8,10.2,18.5,12,18.5z
	 M32.8,44c-0.7,0-1.4-0.3-1.9-0.8c-0.6-0.6-0.9-1.2-0.9-2v-8.5c0-0.7,0.3-1.4,0.8-1.9c0.6-0.6,1.2-0.8,1.9-0.8h8.5
	c0.7,0,1.4,0.3,1.9,0.8c0.6,0.6,0.8,1.2,0.8,1.9v8.5c0,0.7-0.3,1.4-0.8,1.9C42.6,43.7,42,44,41.2,44H32.8z M32.8,42.5h8.5
	c0.4,0,0.7-0.1,0.9-0.3s0.3-0.5,0.3-0.9v-8.5c0-0.4-0.1-0.7-0.3-0.9c-0.2-0.2-0.5-0.3-0.9-0.3h-8.5c-0.4,0-0.7,0.1-0.9,0.3
	c-0.2,0.2-0.3,0.5-0.3,0.9v8.5c0,0.4,0.1,0.7,0.3,0.9C32.1,42.3,32.4,42.5,32.8,42.5z M34.6,14.5l-20.1,20c0.2,0.3,0.4,0.6,0.5,1
	s0.2,0.7,0.2,1.1c0,1-0.4,1.9-1.1,2.7c-0.7,0.7-1.6,1.1-2.7,1.1c-1,0-1.9-0.4-2.7-1.1c-0.7-0.7-1.1-1.6-1.1-2.7c0-1,0.4-1.9,1.1-2.7
	c0.7-0.7,1.6-1.1,2.7-1.1c0.3,0,0.7,0.1,1.1,0.2c0.4,0.1,0.7,0.3,1,0.5l20-20.1c-0.2-0.3-0.4-0.6-0.5-1c-0.1-0.3-0.2-0.7-0.2-1.1
	c0-1.1,0.4-2,1.1-2.7c0.7-0.7,1.6-1.1,2.7-1.1c1.1,0,2,0.4,2.7,1.1s1.1,1.6,1.1,2.7c0,1-0.4,1.9-1.1,2.7c-0.7,0.8-1.6,1.1-2.7,1.1
	c-0.4,0-0.7-0.1-1.1-0.2C35.2,14.9,34.9,14.7,34.6,14.5z"/>
</svg>
