<?xml version="1.0" encoding="utf-8"?>
<!-- Generator: Adobe Illustrator 26.3.1, SVG Export Plug-In . SVG Version: 6.00 Build 0)  -->
<svg version="1.1" id="Слой_1" xmlns="http://www.w3.org/2000/svg" xmlns:xlink="http://www.w3.org/1999/xlink" x="0px" y="0px"
	 viewBox="0 0 48 48" style="enable-background:new 0 0 48 48;" xml:space="preserve">
<path d="M36.2,13.2c0.9,0,1.7-0.3,2.3-1s1-1.4,1-2.3c0-0.9-0.3-1.7-1-2.3s-1.4-1-2.3-1c-0.9,0-1.7,0.3-2.3,1s-1,1.4-1,2.3
	c0,0.9,0.3,1.7,1,2.3C34.5,12.8,35.3,13.2,36.2,13.2z M36.2,41.5c0.9,0,1.7-0.3,2.3-1s1-1.4,1-2.3c0-0.9-0.3-1.7-1-2.3s-1.4-1-2.3-1
	c-0.9,0-1.7,0.3-2.3,1s-1,1.4-1,2.3c0,0.9,0.3,1.7,1,2.3C34.5,41.1,35.3,41.5,36.2,41.5z M11.8,43.2c-2.2,0-4-0.8-5.5-2.3
	C4.8,39.5,4,37.6,4,35.5c0-2.2,0.8-4,2.3-5.5s3.3-2.3,5.5-2.3s4,0.8,5.5,2.3s2.3,3.3,2.3,5.5s-0.8,4-2.3,5.5S13.9,43.2,11.8,43.2z
	 M7,23.9c0.1-1.3,0.5-2.4,1.5-3.3c0.9-0.9,2-1.4,3.4-1.4c0.7,0,1.4,0.2,2.1,0.5c0.7,0.3,1.2,0.8,1.7,1.4l16-9.4
	c-0.1-0.3-0.2-0.5-0.3-0.9c0-0.3-0.1-0.6-0.1-0.9c0-1.3,0.5-2.5,1.4-3.4c1-1,2.1-1.5,3.5-1.5c1.3,0,2.5,0.5,3.4,1.4
	c0.9,1,1.4,2.1,1.4,3.5s-0.5,2.5-1.4,3.5c-0.9,0.9-2.1,1.4-3.4,1.4c-0.7,0-1.4-0.1-2.1-0.4c-0.7-0.3-1.2-0.7-1.7-1.3l-16,9.2
	c0.1,0.3,0.2,0.5,0.2,0.8s0,0.6,0,0.9c-0.7-0.3-1.5-0.6-2.3-0.8c-0.8-0.2-1.7-0.3-2.6-0.3c-0.8,0-1.7,0.1-2.4,0.2
	C8.5,23.3,7.8,23.5,7,23.9z M36.1,43c-1.3,0-2.5-0.5-3.4-1.4c-0.9-0.9-1.4-2.1-1.4-3.4c0-0.3,0-0.5,0.1-0.9c0.1-0.3,0.1-0.6,0.3-0.9
	l-7.8-4.6c-0.2-0.4-0.3-0.8-0.5-1.2c-0.2-0.4-0.4-0.8-0.7-1.2l9.8,5.7c0.5-0.5,1-0.9,1.7-1.2c0.6-0.3,1.3-0.5,2.1-0.5
	c1.3,0,2.5,0.5,3.4,1.4s1.4,2.1,1.4,3.4s-0.5,2.5-1.4,3.5C38.6,42.5,37.5,43,36.1,43z M11.8,36.5l3.4,3.4l1-1l-3.5-3.5l3.5-3.5l-1-1
	l-3.5,3.5L8.3,31l-1,1l3.5,3.5L7.3,39l1,1C8.3,39.9,11.8,36.5,11.8,36.5z"/>
</svg>
