<?xml version="1.0" encoding="utf-8"?>
<!-- Generator: Adobe Illustrator 26.3.1, SVG Export Plug-In . SVG Version: 6.00 Build 0)  -->
<svg version="1.1" id="Слой_1" xmlns="http://www.w3.org/2000/svg" xmlns:xlink="http://www.w3.org/1999/xlink" x="0px" y="0px"
	 viewBox="0 0 48 48" style="enable-background:new 0 0 48 48;" xml:space="preserve">
<path d="M36.2,43c-1.3,0-2.5-0.5-3.4-1.4c-0.9-0.9-1.4-2.1-1.4-3.4c0-0.3,0-0.6,0.1-0.9c0-0.3,0.1-0.6,0.3-0.9l-16-9.4
	c-0.4,0.6-1,1.1-1.7,1.4s-1.4,0.5-2.1,0.5c-1.3,0-2.5-0.5-3.4-1.4C7.5,26.5,7,25.3,7,24s0.5-2.5,1.4-3.4s2.1-1.4,3.4-1.4
	c0.8,0,1.5,0.2,2.1,0.5c0.7,0.3,1.2,0.8,1.7,1.4l16-9.4c-0.1-0.3-0.2-0.5-0.3-0.9c0-0.3-0.1-0.6-0.1-0.9c0-1.3,0.5-2.5,1.4-3.4
	c1.1-1,2.2-1.5,3.6-1.5c1.3,0,2.5,0.5,3.4,1.4S41,8.5,41,9.8c0,1.4-0.5,2.5-1.4,3.5c-0.9,0.9-2.1,1.4-3.4,1.4
	c-0.7,0-1.4-0.1-2.1-0.4c-0.7-0.3-1.2-0.7-1.7-1.3l-16,9.2c0.1,0.3,0.2,0.6,0.2,0.9c0.1,0.3,0.1,0.6,0.1,0.9s0,0.6-0.1,0.9
	c0,0.3-0.1,0.6-0.2,0.8l16,9.3c0.5-0.5,1-0.9,1.7-1.2c0.6-0.3,1.3-0.5,2.1-0.5c1.3,0,2.5,0.5,3.4,1.4s1.4,2.1,1.4,3.4
	c0,1.4-0.5,2.5-1.4,3.5C38.6,42.5,37.5,43,36.2,43z M36.2,13.2c0.9,0,1.7-0.3,2.3-1s1-1.4,1-2.3c0-0.9-0.3-1.7-1-2.3s-1.4-1-2.3-1
	c-0.9,0-1.7,0.3-2.3,1s-1,1.4-1,2.3c0,0.9,0.3,1.7,1,2.3C34.5,12.8,35.3,13.2,36.2,13.2z M11.9,27.3c0.9,0,1.7-0.3,2.3-1
	s1-1.4,1-2.3s-0.3-1.7-1-2.3c-0.7-0.6-1.4-1-2.3-1c-0.9,0-1.7,0.3-2.3,1s-1,1.4-1,2.3s0.3,1.7,1,2.3C10.2,27,10.9,27.3,11.9,27.3z
	 M36.2,41.5c0.9,0,1.7-0.3,2.3-1s1-1.4,1-2.3c0-0.9-0.3-1.7-1-2.3s-1.4-1-2.3-1c-0.9,0-1.7,0.3-2.3,1s-1,1.4-1,2.3
	c0,0.9,0.3,1.7,1,2.3C34.5,41.1,35.3,41.5,36.2,41.5z"/>
</svg>
