<?xml version="1.0" encoding="utf-8"?>
<!-- Generator: Adobe Illustrator 26.3.1, SVG Export Plug-In . SVG Version: 6.00 Build 0)  -->
<svg version="1.1" id="Слой_1" xmlns="http://www.w3.org/2000/svg" xmlns:xlink="http://www.w3.org/1999/xlink" x="0px" y="0px"
	 viewBox="0 0 48 48" style="enable-background:new 0 0 48 48;" xml:space="preserve">
<path d="M12.1,25.2c-0.6,0-1.1-0.2-1.5-0.6S10,23.7,10,23.1V7.2c0-0.6,0.2-1.1,0.6-1.5c0.4-0.4,0.9-0.6,1.5-0.6h23.8
	c0.6,0,1.1,0.2,1.5,0.6C37.8,6.1,38,6.6,38,7.2V23c0,0.6-0.2,1.1-0.6,1.5c-0.4,0.4-0.9,0.6-1.5,0.6H12.1V25.2z M11.5,14.4h11.7V6.7
	H12.5c-0.3,0-0.5,0.1-0.7,0.3c-0.2,0.2-0.3,0.4-0.3,0.7C11.5,7.6,11.5,14.4,11.5,14.4z M24.8,14.4h11.7V7.6c0-0.3-0.1-0.5-0.3-0.7
	s-0.4-0.3-0.7-0.3H24.8C24.8,6.7,24.8,14.4,24.8,14.4z M23.2,23.6v-7.7H11.5v6.8c0,0.3,0.1,0.5,0.3,0.7s0.4,0.3,0.7,0.3h10.7V23.6z
	 M24.8,23.6h10.8c0.3,0,0.5-0.1,0.7-0.3c0.2-0.2,0.3-0.4,0.3-0.7v-6.8H24.8C24.8,15.9,24.8,23.6,24.8,23.6z M13.8,41.4l-6.3-6.3
	l6.3-6.3l1.1,1.1l-4.4,4.4H39v1.5H10.5l4.4,4.4C14.9,40.4,13.8,41.4,13.8,41.4z"/>
</svg>
