<?xml version="1.0" encoding="utf-8"?>
<!-- Generator: Adobe Illustrator 26.3.1, SVG Export Plug-In . SVG Version: 6.00 Build 0)  -->
<svg version="1.1" id="Слой_1" xmlns="http://www.w3.org/2000/svg" xmlns:xlink="http://www.w3.org/1999/xlink" x="0px" y="0px"
	 viewBox="0 0 48 48" style="enable-background:new 0 0 48 48;" xml:space="preserve">
<path d="M24,24.8c-1.7,0-3.1-0.6-4.2-1.7s-1.7-2.5-1.7-4.2s0.6-3.1,1.7-4.2S22.3,13,24,13s3.1,0.6,4.2,1.7s1.7,2.5,1.7,4.2
	s-0.6,3.1-1.7,4.2C27.1,24.2,25.7,24.8,24,24.8z M24,23.2c1.3,0,2.3-0.4,3.1-1.2c0.8-0.8,1.2-1.9,1.2-3.1c0-1.3-0.4-2.3-1.2-3.1
	s-1.9-1.2-3.1-1.2s-2.3,0.4-3.1,1.2c-0.8,0.8-1.2,1.9-1.2,3.1c0,1.3,0.4,2.3,1.2,3.1C21.7,22.8,22.7,23.2,24,23.2z M24,41.9
	c-4-1.2-7.4-3.7-10-7.4c-2.7-3.7-4-7.9-4-12.5V11.4l14-5.2l14,5.2V22c0,4.6-1.3,8.8-4,12.5C31.4,38.2,28,40.7,24,41.9z M24,7.8
	l-12.5,4.7V22c0,2.1,0.3,4.2,1,6.1c0.6,2,1.5,3.8,2.7,5.4c1.4-0.7,2.8-1.3,4.2-1.7c1.4-0.4,3-0.6,4.6-0.6s3.2,0.2,4.6,0.6
	c1.4,0.4,2.9,1,4.2,1.7c1.1-1.6,2-3.4,2.7-5.4c0.6-2,1-4,1-6.1v-9.6L24,7.8z M24,32.9c-1.4,0-2.8,0.2-4.1,0.5
	c-1.3,0.3-2.6,0.8-3.8,1.4c1.1,1.3,2.3,2.4,3.6,3.3c1.3,0.9,2.8,1.7,4.3,2.2c1.6-0.5,3-1.2,4.3-2.2c1.3-0.9,2.5-2,3.6-3.3
	c-1.2-0.6-2.4-1.1-3.8-1.4C26.8,33,25.4,32.9,24,32.9z"/>
</svg>
