<?xml version="1.0" encoding="utf-8"?>
<!-- Generator: Adobe Illustrator 26.3.1, SVG Export Plug-In . SVG Version: 6.00 Build 0)  -->
<svg version="1.1" id="Слой_1" xmlns="http://www.w3.org/2000/svg" xmlns:xlink="http://www.w3.org/1999/xlink" x="0px" y="0px"
	 viewBox="0 0 48 48" style="enable-background:new 0 0 48 48;" xml:space="preserve">
<path d="M24,41.9c-4-1.2-7.4-3.7-10-7.4c-2.7-3.7-4-7.9-4-12.5V11.4l14-5.2l14,5.2V22c0,4.6-1.3,8.8-4,12.5
	C31.4,38.2,28,40.7,24,41.9z M24,40.3c3.6-1.2,6.6-3.4,9-6.8s3.5-7.2,3.5-11.4v-9.6L24,7.8l-12.5,4.7V22c0,4.2,1.2,8,3.5,11.4
	S20.4,39.1,24,40.3z M19.8,31.3h8.3c0.4,0,0.7-0.1,1-0.4s0.4-0.6,0.4-1v-6.3c0-0.4-0.1-0.7-0.4-1s-0.6-0.4-1-0.4h-0.6v-2
	c0-1-0.3-1.8-1-2.5s-1.5-1-2.5-1s-1.8,0.3-2.5,1s-1,1.5-1,2.5v2h-0.7c-0.4,0-0.7,0.1-1,0.4s-0.4,0.6-0.4,1v6.3c0,0.4,0.1,0.7,0.4,1
	C19.1,31.2,19.4,31.3,19.8,31.3z M21.8,22.2v-2c0-0.6,0.2-1.1,0.7-1.5c0.4-0.4,1-0.6,1.6-0.6s1.1,0.2,1.6,0.6
	c0.4,0.4,0.7,0.9,0.7,1.5v2H21.8z"/>
</svg>
