<?xml version="1.0" encoding="utf-8"?>
<!-- Generator: Adobe Illustrator 26.3.1, SVG Export Plug-In . SVG Version: 6.00 Build 0)  -->
<svg version="1.1" id="Слой_1" xmlns="http://www.w3.org/2000/svg" xmlns:xlink="http://www.w3.org/1999/xlink" x="0px" y="0px"
	 viewBox="0 0 48 48" style="enable-background:new 0 0 48 48;" xml:space="preserve">
<path d="M24,41.9c-4-1.2-7.4-3.7-10-7.4c-2.7-3.7-4-7.9-4-12.5V11.4l14-5.2l14,5.2V22c0,4.6-1.3,8.8-4,12.5
	C31.4,38.2,28,40.7,24,41.9z M24,17.5l-11.9,9.3c0.7,2.7,1.8,5.1,3.4,7.2s3.5,3.9,5.8,5.1v-7.9h5.5v7.9c2.2-1.2,4.2-2.9,5.8-5.1
	c1.6-2.2,2.7-4.6,3.4-7.2L24,17.5z M24,7.8l-12.5,4.7V22c0,0.5,0,1,0.1,1.5c0,0.6,0.1,1.1,0.2,1.5L24,15.6l12.2,9.5
	c0.1-0.5,0.1-1,0.2-1.5c0-0.6,0.1-1.1,0.1-1.5v-9.6L24,7.8z"/>
</svg>
