<?xml version="1.0" encoding="utf-8"?>
<!-- Generator: Adobe Illustrator 26.3.1, SVG Export Plug-In . SVG Version: 6.00 Build 0)  -->
<svg version="1.1" id="Слой_1" xmlns="http://www.w3.org/2000/svg" xmlns:xlink="http://www.w3.org/1999/xlink" x="0px" y="0px"
	 viewBox="0 0 48 48" style="enable-background:new 0 0 48 48;" xml:space="preserve">
<path d="M22,42c-0.3,0-0.7-0.1-1-0.2c-0.3-0.1-0.7-0.3-0.9-0.6L6.9,28c-0.3-0.3-0.5-0.6-0.7-0.9C6.1,26.7,6,26.3,6,26
	c0-0.4,0.1-0.7,0.2-1.1s0.4-0.7,0.7-0.9L24,6.8c0.3-0.3,0.6-0.5,0.9-0.6C25.3,6.1,25.6,6,26,6h13.2c0.8,0,1.4,0.3,2,0.8
	C41.7,7.4,42,8,42,8.8V22c0,0.4-0.1,0.7-0.2,1.1c-0.2,0.3-0.4,0.6-0.6,0.9L24,41.2c-0.3,0.3-0.6,0.5-0.9,0.6
	C22.7,41.9,22.4,42,22,42z M21.1,40.1c0.3,0.2,0.6,0.3,0.9,0.3s0.6-0.1,0.9-0.3l17.3-17.3c0.1-0.1,0.2-0.2,0.2-0.4
	c0.1-0.2,0.1-0.3,0.1-0.5V8.8c0-0.4-0.1-0.7-0.4-0.9c-0.2-0.2-0.5-0.3-0.9-0.3H25.5L7.9,25.1c-0.3,0.3-0.4,0.6-0.4,0.9
	s0.1,0.6,0.4,0.9L21.1,40.1z M35.3,14.6c0.5,0,0.9-0.2,1.3-0.6c0.4-0.4,0.6-0.8,0.6-1.3s-0.2-0.9-0.6-1.3c-0.4-0.4-0.8-0.5-1.3-0.5
	s-0.9,0.2-1.3,0.5c-0.3,0.4-0.5,0.8-0.5,1.3s0.2,0.9,0.5,1.3S34.8,14.6,35.3,14.6z"/>
</svg>
