<?xml version="1.0" encoding="utf-8"?>
<!-- Generator: Adobe Illustrator 26.3.1, SVG Export Plug-In . SVG Version: 6.00 Build 0)  -->
<svg version="1.1" id="Слой_1" xmlns="http://www.w3.org/2000/svg" xmlns:xlink="http://www.w3.org/1999/xlink" x="0px" y="0px"
	 viewBox="0 0 48 48" style="enable-background:new 0 0 48 48;" xml:space="preserve">
<path d="M30.8,23.9h-1.6l-1.5-1.5h3.6l5.9-10.8c0.2-0.3,0.2-0.5,0-0.8c-0.2-0.2-0.4-0.3-0.6-0.3H15.8L14.2,9h22.3
	c0.9,0,1.6,0.4,2,1.1c0.4,0.7,0.4,1.6-0.1,2.4l-5.5,10.3c-0.2,0.4-0.4,0.7-0.7,0.9C31.9,23.9,31.5,23.9,30.8,23.9z M14.8,42.2
	c-0.8,0-1.5-0.3-2-0.8s-0.8-1.2-0.8-2s0.3-1.5,0.8-2s1.2-0.8,2-0.8s1.5,0.3,2,0.8s0.8,1.2,0.8,2s-0.3,1.5-0.8,2
	C16.2,41.9,15.6,42.2,14.8,42.2z M41.3,43.3L30.1,32H14.3c-1.1,0-1.8-0.4-2.3-1.2c-0.5-0.8-0.5-1.7,0-2.5l3.5-5.9L11,13L4.9,6.8
	L6,5.7l36.4,36.4C42.4,42.2,41.3,43.3,41.3,43.3z M28.5,30.5L22,23.9h-5.7l-2.9,5c-0.2,0.4-0.2,0.7,0,1.1c0.2,0.3,0.5,0.5,0.9,0.5
	H28.5z M31.3,22.4h-3.6H31.3z M33.6,42.2c-0.7,0-1.4-0.3-2-0.8c-0.6-0.5-0.8-1.2-0.8-2s0.3-1.5,0.8-2c0.6-0.5,1.2-0.8,2-0.8
	c0.7,0,1.4,0.3,2,0.8s0.9,1.2,0.9,2s-0.3,1.5-0.9,2C35,41.9,34.3,42.2,33.6,42.2z"/>
</svg>
