<?xml version="1.0" encoding="utf-8"?>
<!-- Generator: Adobe Illustrator 26.3.1, SVG Export Plug-In . SVG Version: 6.00 Build 0)  -->
<svg version="1.1" id="Слой_1" xmlns="http://www.w3.org/2000/svg" xmlns:xlink="http://www.w3.org/1999/xlink" x="0px" y="0px"
	 viewBox="0 0 48 48" style="enable-background:new 0 0 48 48;" xml:space="preserve">
<path d="M11.8,40c-0.6,0-1.2-0.2-1.7-0.5c-0.5-0.4-0.8-0.8-1-1.5L4.5,21.7c-0.1-0.4-0.1-0.8,0.2-1.2C4.9,20.2,5.3,20,5.8,20h9.7
	l7.4-11c0.2-0.2,0.3-0.4,0.5-0.5s0.4-0.1,0.6-0.1s0.5,0.1,0.6,0.2c0.3,0,0.4,0.2,0.6,0.4l7.3,11h9.7c0.5,0,0.9,0.2,1.2,0.5
	c0.3,0.4,0.4,0.8,0.2,1.2L38.9,38c-0.2,0.6-0.5,1.1-1,1.5S36.8,40,36.2,40H11.8z M11.6,38.5h24.8c0.3,0,0.5-0.1,0.7-0.2
	c0.2-0.2,0.3-0.4,0.4-0.7l4.5-16H6l4.5,16c0.1,0.3,0.2,0.5,0.4,0.7C11.1,38.4,11.3,38.5,11.6,38.5z M24,31.5c0.4,0,0.8-0.2,1.1-0.5
	c0.3-0.3,0.5-0.7,0.5-1.1s-0.2-0.8-0.5-1.1c-0.3-0.3-0.7-0.5-1.1-0.5s-0.8,0.2-1.1,0.5c-0.3,0.3-0.5,0.7-0.5,1.1s0.2,0.8,0.5,1.1
	C23.2,31.4,23.6,31.5,24,31.5z M17.4,20h13.2L24,10L17.4,20z"/>
</svg>
