<?xml version="1.0" encoding="utf-8"?>
<!-- Generator: Adobe Illustrator 26.3.1, SVG Export Plug-In . SVG Version: 6.00 Build 0)  -->
<svg version="1.1" id="Слой_1" xmlns="http://www.w3.org/2000/svg" xmlns:xlink="http://www.w3.org/1999/xlink" x="0px" y="0px"
	 viewBox="0 0 48 48" style="enable-background:new 0 0 48 48;" xml:space="preserve">
<path d="M12.8,42c-0.8,0-1.4-0.3-2-0.8c-0.5-0.5-0.8-1.2-0.8-2V16.8c0-0.8,0.3-1.4,0.8-2c0.5-0.5,1.2-0.8,2-0.8h4.5v-1.2
	c0-1.9,0.7-3.5,2-4.8s2.9-2,4.8-2s3.5,0.7,4.8,2s2,2.9,2,4.8V14h4.5c0.8,0,1.4,0.3,2,0.8c0.5,0.5,0.8,1.2,0.8,2v22.5
	c0,0.8-0.3,1.4-0.8,2c-0.5,0.5-1.2,0.8-2,0.8L12.8,42L12.8,42z M12.8,40.5h22.5c0.3,0,0.6-0.1,0.8-0.4c0.3-0.3,0.4-0.5,0.4-0.8V16.8
	c0-0.3-0.1-0.6-0.4-0.8c-0.3-0.3-0.5-0.4-0.8-0.4h-4.5v5.2c0,0.2-0.1,0.4-0.2,0.5s-0.3,0.2-0.6,0.2c-0.2,0-0.4-0.1-0.5-0.2
	s-0.2-0.3-0.2-0.5v-5.2H18.8v5.2c0,0.2-0.1,0.4-0.2,0.5s-0.3,0.2-0.6,0.2s-0.4-0.1-0.5-0.2s-0.2-0.3-0.2-0.5v-5.2h-4.5
	c-0.3,0-0.6,0.1-0.8,0.4c-0.3,0.3-0.4,0.5-0.4,0.8v22.5c0,0.3,0.1,0.6,0.4,0.8S12.5,40.5,12.8,40.5z M18.8,14h10.5v-1.2
	c0-1.5-0.5-2.7-1.5-3.7s-2.2-1.5-3.7-1.5s-2.7,0.5-3.7,1.5s-1.5,2.2-1.5,3.7L18.8,14L18.8,14z M11.5,40.5v-25V40.5z"/>
</svg>
