<?xml version="1.0" encoding="utf-8"?>
<!-- Generator: Adobe Illustrator 26.3.1, SVG Export Plug-In . SVG Version: 6.00 Build 0)  -->
<svg version="1.1" id="Слой_1" xmlns="http://www.w3.org/2000/svg" xmlns:xlink="http://www.w3.org/1999/xlink" x="0px" y="0px"
	 viewBox="0 0 48 48" style="enable-background:new 0 0 48 48;" xml:space="preserve">
<path d="M4.3,34.5L4.7,33h8.5l-0.4,1.5H4.3z M8.3,27l0.4-1.5h10.5L18.8,27H8.3z M37.4,40.5l0.2-1.2l0.9-8.1L39.8,21l0.7-5.5
	L37.4,40.5z M12.4,42c-0.5,0-0.9-0.1-1.2-0.4c-0.3-0.3-0.5-0.7-0.5-1.1h25.5c0.3,0,0.6-0.1,0.9-0.3c0.3-0.2,0.4-0.5,0.5-0.9L40.3,17
	c0.1-0.4-0.1-0.7-0.3-1c-0.3-0.3-0.6-0.4-0.9-0.4h-5.8l-0.6,5.2c0,0.2-0.1,0.4-0.3,0.6s-0.4,0.2-0.6,0.3c-0.2,0-0.4,0-0.5-0.2
	s-0.2-0.3-0.1-0.5l0.6-5.3H21.3l-0.6,5.2c0,0.2-0.1,0.4-0.3,0.6c-0.2,0.2-0.4,0.2-0.6,0.3c-0.2,0-0.4,0-0.5-0.2s-0.2-0.3-0.1-0.5
	l0.7-5.3h-6.4c0.1-0.6,0.4-1,0.9-1.2c0.6-0.2,1.1-0.4,1.8-0.4H20l0.1-1.2c0.3-2.2,1.1-3.8,2.3-5c1.3-1.2,3-1.8,5.2-1.8
	c1.9,0,3.4,0.7,4.6,2.2c1.2,1.5,1.6,3.2,1.3,5.2l0,0.4h6.1c0.7,0,1.3,0.3,1.8,0.8s0.7,1.1,0.6,1.9l-2.7,22.5
	c-0.1,0.8-0.5,1.5-1.1,2.1s-1.4,0.8-2.2,0.8C35.9,42,12.4,42,12.4,42z M21.5,14H32l0.1-0.6c0.2-1.5-0.2-2.9-1-4.1S29,7.5,27.6,7.5
	c-1.7,0-3,0.5-4,1.4s-1.6,2.2-1.8,3.9C21.6,12.8,21.5,14,21.5,14z"/>
</svg>
