<?xml version="1.0" encoding="utf-8"?>
<!-- Generator: Adobe Illustrator 26.3.1, SVG Export Plug-In . SVG Version: 6.00 Build 0)  -->
<svg version="1.1" id="Слой_1" xmlns="http://www.w3.org/2000/svg" xmlns:xlink="http://www.w3.org/1999/xlink" x="0px" y="0px"
	 viewBox="0 0 48 48" style="enable-background:new 0 0 48 48;" xml:space="preserve">
<path d="M24,18.3l-1.1-1.1l4.5-4.4H17.2v-1.5h10.2L23,6.8l1-1.1l6.3,6.3L24,18.3z M14.8,42.2c-0.8,0-1.5-0.3-2-0.8s-0.8-1.2-0.8-2
	s0.3-1.4,0.8-2c0.5-0.5,1.2-0.8,2-0.8s1.5,0.3,2,0.8c0.5,0.6,0.8,1.2,0.8,2s-0.3,1.4-0.8,2S15.6,42.2,14.8,42.2z M33.7,42.2
	c-0.8,0-1.5-0.3-2-0.8s-0.8-1.2-0.8-2s0.3-1.4,0.8-2c0.5-0.5,1.2-0.8,2-0.8s1.5,0.3,2,0.8c0.5,0.6,0.8,1.2,0.8,2s-0.3,1.4-0.8,2
	S34.5,42.2,33.7,42.2z M4.5,6.5V5H9l8.2,17.3h13.5c0.2,0,0.4-0.1,0.6-0.2s0.3-0.3,0.5-0.5L38.9,9h1.7l-7.3,13.3
	c-0.3,0.5-0.7,0.8-1.1,1.1c-0.5,0.3-0.9,0.4-1.4,0.4H16.4l-2.7,5c-0.2,0.3-0.2,0.6,0,1s0.5,0.5,0.9,0.5h22v1.5H14.7
	c-1,0-1.8-0.4-2.3-1.3c-0.5-0.8-0.6-1.7-0.1-2.5l3.2-5.8L8.1,6.5H4.5z"/>
</svg>
