<?xml version="1.0" encoding="utf-8"?>
<!-- Generator: Adobe Illustrator 26.3.1, SVG Export Plug-In . SVG Version: 6.00 Build 0)  -->
<svg version="1.1" id="Слой_1" xmlns="http://www.w3.org/2000/svg" xmlns:xlink="http://www.w3.org/1999/xlink" x="0px" y="0px"
	 viewBox="0 0 48 48" style="enable-background:new 0 0 48 48;" xml:space="preserve">
<path d="M14.5,40.5h8.2H10H14.5z M11.2,42c-0.8,0-1.4-0.3-2-0.8c-0.5-0.5-0.8-1.2-0.8-2V8.8c0-0.8,0.3-1.4,0.8-2
	c0.6-0.5,1.3-0.8,2-0.8h16.5c0.7,0,1.4,0.3,1.9,0.8c0.6,0.6,0.8,1.2,0.8,1.9v12.7c-0.3,0.1-0.6,0.2-0.8,0.2
	c-0.3,0.1-0.5,0.2-0.7,0.2v-13c0-0.4-0.1-0.7-0.4-0.9c-0.2-0.2-0.5-0.3-0.9-0.3H11.2c-0.4,0-0.7,0.1-0.9,0.3S10,8.4,10,8.8v15.1
	c0.6-0.6,1.3-1.1,2.1-1.4s1.6-0.5,2.4-0.5h12.8v0.8c-0.2,0.1-0.4,0.3-0.6,0.4s-0.4,0.2-0.5,0.3H14.5c-1.3,0-2.3,0.4-3.2,1.3
	C10.4,25.7,10,26.7,10,28v11.2c0,0.4,0.1,0.7,0.3,0.9s0.5,0.3,0.9,0.3h11.4c0.2,0.3,0.5,0.6,0.7,0.9s0.4,0.5,0.7,0.7
	C24,42,11.2,42,11.2,42z M19.5,17.8c-0.8,0-1.4-0.3-2-0.8c-0.5-0.5-0.8-1.2-0.8-2s0.3-1.4,0.8-2c0.5-0.5,1.2-0.8,2-0.8
	s1.4,0.3,2,0.8c0.5,0.5,0.8,1.2,0.8,2s-0.3,1.4-0.8,2C20.9,17.5,20.2,17.8,19.5,17.8z M18.7,36.8h1.7v-4.9c0-0.1,0.1-0.1,0.1-0.2
	s0-0.1,0-0.2c0,0,0,0-0.1,0c0,0-0.1,0-0.2,0v-4.3h-1.5v4h-4v1.5h4C18.7,32.8,18.7,36.8,18.7,36.8z M34,42.8c-2.4,0-4.5-0.9-6.2-2.6
	c-1.7-1.7-2.6-3.8-2.6-6.2s0.9-4.5,2.6-6.2s3.8-2.6,6.2-2.6s4.5,0.9,6.2,2.6s2.6,3.8,2.6,6.2s-0.9,4.5-2.6,6.2
	C38.5,41.9,36.4,42.8,34,42.8z M37.4,38.4l1.1-1.1l-3.7-3.7v-5.5h-1.5v6.1L37.4,38.4z"/>
</svg>
