<?xml version="1.0" encoding="utf-8"?>
<!-- Generator: Adobe Illustrator 26.3.1, SVG Export Plug-In . SVG Version: 6.00 Build 0)  -->
<svg version="1.1" id="Слой_1" xmlns="http://www.w3.org/2000/svg" xmlns:xlink="http://www.w3.org/1999/xlink" x="0px" y="0px"
	 viewBox="0 0 48 48" style="enable-background:new 0 0 48 48;" xml:space="preserve">
<path d="M43.4,38H31.2v-1.5h12.1L43.4,38L43.4,38z M17.8,5.5V4h12.4v1.5H17.8z M24,42c-2.2,0-4.3-0.4-6.2-1.3s-3.6-2-5.1-3.4
	s-2.6-3.1-3.4-5.1C8.4,30.3,8,28.2,8,26s0.4-4.3,1.3-6.2s2-3.6,3.4-5.1s3.1-2.6,5.1-3.4c1.9-0.8,4-1.3,6.2-1.3c2.1,0,4,0.4,5.9,1.1
	c1.8,0.7,3.5,1.8,4.9,3.1l2.7-2.7l1.1,1.1l-2.7,2.7c1.4,1.5,2.4,3.3,3.1,5.2c0.7,1.9,1,4,0.9,6.1c-0.3-0.1-0.6-0.2-0.9-0.2
	c-0.3,0-0.5-0.1-0.6-0.1c0-0.5,0-0.9,0-1.3s-0.1-0.7-0.1-1h-9.2L20,39.9c0.6,0.2,1.3,0.3,1.9,0.4c0.6,0.1,1.3,0.1,2,0.1
	c0.4,0,0.9,0,1.3-0.1c0.5-0.1,0.9-0.1,1.3-0.2c0.1,0.2,0.1,0.5,0.2,0.7s0.2,0.5,0.3,0.7c-0.5,0.1-1,0.2-1.6,0.3
	C25.1,42,24.5,42,24,42z M23.6,22.5h14.5c-0.6-2.3-1.7-4.3-3.2-6.1c-1.5-1.7-3.3-3-5.5-3.9L23.6,22.5z M20.7,24.7l7.4-12.6
	c-0.7-0.2-1.3-0.3-2-0.4c-0.7-0.1-1.3-0.1-2-0.1c-1.7,0-3.4,0.3-4.9,0.8c-1.6,0.6-3,1.3-4.2,2.3C15,14.7,20.7,24.7,20.7,24.7z
	 M9.7,28.1H21l-7.1-12.5c-1.5,1.6-2.7,3.5-3.5,5.7C9.6,23.5,9.4,25.7,9.7,28.1z M18.7,39.5l5.6-9.9H10c0.6,2.3,1.7,4.3,3.2,6
	S16.5,38.6,18.7,39.5z"/>
</svg>
