<?xml version="1.0" encoding="utf-8"?>
<!-- Generator: Adobe Illustrator 26.3.1, SVG Export Plug-In . SVG Version: 6.00 Build 0)  -->
<svg version="1.1" id="Слой_1" xmlns="http://www.w3.org/2000/svg" xmlns:xlink="http://www.w3.org/1999/xlink" x="0px" y="0px"
	 viewBox="0 0 48 48" style="enable-background:new 0 0 48 48;" xml:space="preserve">
<path d="M17.8,5.5V4h12.4v1.5H17.8z M24.1,42c-2.2,0-4.3-0.4-6.3-1.3c-2-0.8-3.7-2-5.1-3.4s-2.6-3.1-3.4-5.1c-0.8-2-1.3-4-1.3-6.3
	c0-2.2,0.4-4.3,1.3-6.2c0.8-1.9,2-3.6,3.4-5.1c1.4-1.4,3.1-2.6,5.1-3.4c1.9-0.8,4-1.2,6.2-1.2c2.1,0,4.1,0.4,5.9,1.1s3.4,1.8,5,3.1
	l2.7-2.6l1.1,1.1L36,15.4c1.3,1.5,2.3,3.2,3,4.9s1,3.7,1,5.8c0,2.2-0.4,4.3-1.3,6.2c-0.8,1.9-2,3.6-3.4,5.1s-3.1,2.6-5.1,3.4
	S26.2,42,24.1,42z M23.6,22.5h14.5c-0.6-2.3-1.7-4.3-3.2-6.1c-1.5-1.7-3.3-3-5.5-3.9C29.4,12.6,23.6,22.5,23.6,22.5z M20.7,24.7
	l7.4-12.6c-2.5-0.7-4.8-0.8-7.1-0.2c-2.3,0.5-4.3,1.5-6,2.8C15,14.7,20.7,24.7,20.7,24.7z M9.7,28.1H21l-7.1-12.5
	c-1.5,1.6-2.7,3.5-3.5,5.7C9.6,23.5,9.4,25.7,9.7,28.1z M18.7,39.5l5.6-9.9H10c0.6,2.3,1.7,4.3,3.2,6S16.5,38.6,18.7,39.5z
	 M20.1,39.8c2.9,0.8,5.4,0.9,7.7,0.2c2.2-0.7,4-1.6,5.2-2.6l-5.8-10C27.2,27.4,20.1,39.8,20.1,39.8z M34.1,36.4
	c0.8-0.9,1.9-2.5,3.1-4.6c1.2-2.1,1.6-4.7,1.1-7.8H26.9L34.1,36.4z"/>
</svg>
