<?xml version="1.0" encoding="utf-8"?>
<!-- Generator: Adobe Illustrator 26.3.1, SVG Export Plug-In . SVG Version: 6.00 Build 0)  -->
<svg version="1.1" id="Слой_1" xmlns="http://www.w3.org/2000/svg" xmlns:xlink="http://www.w3.org/1999/xlink" x="0px" y="0px"
	 viewBox="0 0 48 48" style="enable-background:new 0 0 48 48;" xml:space="preserve">
<path d="M6.8,18.9c1.1-3.7,3.2-6.8,6.4-9.3C16.3,7.2,19.9,6,24,6c2.3,0,4.5,0.4,6.5,1.2s3.9,1.9,5.5,3.4c-0.1,0.3-0.2,0.6-0.3,0.8
	s-0.2,0.5-0.3,0.7c-1.5-1.4-3.2-2.5-5.1-3.3s-4-1.2-6.2-1.2c-3.5,0-6.7,1-9.4,3s-4.8,4.6-5.9,7.7c-0.3,0.1-0.7,0.2-1,0.3
	S7.1,18.8,6.8,18.9z M24,42c-4.1,0-7.7-1.2-10.8-3.7C10,35.9,7.9,32.8,6.8,29c0.3,0.2,0.6,0.3,0.8,0.4c0.3,0.1,0.6,0.2,1,0.3
	c1.2,3.1,3.2,5.7,6,7.7s5.9,3,9.4,3c4.6,0,8.5-1.6,11.7-4.8s4.8-7.1,4.8-11.6c0-0.6,0-1.1-0.1-1.7s-0.1-1.1-0.3-1.7
	c0.2,0.1,0.4,0.1,0.6,0.2c0.2,0,0.4,0.1,0.6,0.1c0.1,0,0.1,0,0.2,0c0.1,0,0.1,0,0.2,0c0.1,0.5,0.2,1.1,0.2,1.6s0.1,1.1,0.1,1.6
	c0,2.5-0.5,4.8-1.4,7s-2.2,4.1-3.9,5.7c-1.6,1.6-3.5,2.9-5.7,3.9C28.8,41.5,26.5,42,24,42z M16.8,22.2L20,19l-3.2-3.2l-1.1,1.1
	l2.2,2.1l-2.2,2.2L16.8,22.2z M42,17.2c-0.9,0-1.7-0.3-2.3-0.9s-0.9-1.4-0.9-2.3c0-0.8,0.2-1.6,0.6-2.4c0.4-0.8,1.3-2.3,2.7-4.3
	c1.4,2,2.3,3.4,2.7,4.3c0.4,0.8,0.6,1.6,0.6,2.4c0,0.9-0.3,1.7-1,2.3C43.7,16.9,42.9,17.2,42,17.2z M31.2,22.2l1.1-1.1l-2.1-2.2
	l2.1-2.1l-1.1-1.1L28,19L31.2,22.2z M24,27.1c-0.9,0-1.8,0.1-2.7,0.4c-0.9,0.3-1.8,0.7-2.6,1.2l-7.3-4.3c0-0.5-0.1-0.9-0.3-1.4
	c-0.2-0.4-0.5-0.8-0.9-1c-0.5-0.3-1.1-0.4-1.7-0.2C7.8,22,7.3,22.3,7,22.9c-0.3,0.5-0.4,1.1-0.2,1.7c0.2,0.6,0.5,1.1,1,1.4
	c0.4,0.2,0.9,0.3,1.3,0.2c0.5-0.1,0.9-0.2,1.3-0.5l6.9,4c-0.4,0.4-0.9,0.9-1.2,1.4c-0.4,0.5-0.7,1-1,1.7h1.7c0.7-1.3,1.7-2.3,3-3.1
	c1.3-0.7,2.7-1.1,4.2-1.1c1.5,0,2.9,0.4,4.2,1.1c1.3,0.7,2.2,1.8,3,3.1h1.6c-0.9-1.9-2.2-3.4-3.8-4.3C27.4,27.5,25.7,27.1,24,27.1z"
	/>
</svg>
