<?xml version="1.0" encoding="utf-8"?>
<!-- Generator: Adobe Illustrator 26.3.1, SVG Export Plug-In . SVG Version: 6.00 Build 0)  -->
<svg version="1.1" id="Слой_1" xmlns="http://www.w3.org/2000/svg" xmlns:xlink="http://www.w3.org/1999/xlink" x="0px" y="0px"
	 viewBox="0 0 48 48" style="enable-background:new 0 0 48 48;" xml:space="preserve">
<path d="M25.9,14.6L15.5,6.8c-0.2-0.1-0.3-0.3-0.3-0.5s0-0.4,0.1-0.6s0.3-0.3,0.5-0.3s0.4,0,0.6,0.2l10.4,7.7
	C26.8,13.3,25.9,14.6,25.9,14.6z M19,14.4l-0.8,0.7c-0.1,0.1-0.1,0.1-0.2,0.2c-0.1,0.1-0.1,0.1-0.1,0.2l-4.1-3
	c-0.2-0.1-0.3-0.3-0.3-0.5s0-0.4,0.2-0.6c0.1-0.2,0.3-0.3,0.5-0.3s0.4,0,0.5,0.2L19,14.4z M35.7,14.9L22,4.7
	c-0.2-0.1-0.3-0.3-0.3-0.5c0-0.2,0.1-0.4,0.2-0.6c0.1-0.2,0.3-0.3,0.5-0.3s0.4,0,0.5,0.2l11.5,8.6L35.3,6c0-0.3,0.2-0.6,0.4-0.8
	c0.2-0.2,0.5-0.4,0.8-0.4l1.4-0.1L42,19c0.2,0.7,0.3,1.5,0.2,2.2s-0.4,1.4-0.9,2l-3.2,4.3c-0.1-0.3-0.1-0.6-0.2-0.9
	c-0.1-0.3-0.2-0.6-0.3-0.9l2.5-3.4c0.3-0.4,0.5-0.9,0.6-1.4s0.1-1-0.1-1.5l-3.9-13C36.8,6.4,35.7,14.9,35.7,14.9z M16.4,21.3l-2.7-2
	c-0.2-0.1-0.3-0.3-0.3-0.5s0-0.4,0.2-0.6c0.1-0.2,0.3-0.3,0.5-0.3s0.4,0,0.5,0.2l2.1,1.6c0.1,0.3,0.1,0.6,0.2,0.9s0.2,0.5,0.4,0.8
	C17.4,21.3,16.4,21.3,16.4,21.3z M4.8,31.7c-0.2,0-0.4-0.1-0.6-0.2C4.1,31.4,4,31.2,4,31s0.1-0.4,0.2-0.5s0.3-0.2,0.5-0.2h13v1.5
	C17.8,31.7,4.8,31.7,4.8,31.7z M6.8,37.3c-0.2,0-0.4-0.1-0.6-0.2C6.1,36.9,6,36.7,6,36.5s0.1-0.4,0.2-0.5s0.3-0.2,0.5-0.2h11v1.5
	C17.8,37.3,6.8,37.3,6.8,37.3z M10.8,42.8c-0.2,0-0.4-0.1-0.5-0.2C10.1,42.4,10,42.2,10,42s0.1-0.4,0.2-0.5c0.1-0.1,0.3-0.2,0.5-0.2
	h19.7c0.9,0,1.7-0.3,2.3-0.9c0.6-0.6,0.9-1.4,0.9-2.3v-8.6c0-0.5-0.1-1-0.3-1.5c-0.2-0.4-0.5-0.8-1-1.1l-10.8-8.1l4.2,7.5h-17
	c-0.2,0-0.4-0.1-0.5-0.2C8.1,25.8,8,25.6,8,25.4s0.1-0.4,0.2-0.5c0.1-0.1,0.3-0.2,0.5-0.2h14.4l-3-5.3c-0.2-0.3-0.2-0.5-0.2-0.9
	c0-0.3,0.2-0.6,0.4-0.8l1.1-1l11.9,8.9c0.6,0.5,1.1,1,1.4,1.7c0.3,0.7,0.5,1.4,0.5,2.1V38c0,1.3-0.5,2.5-1.4,3.4s-2.1,1.4-3.4,1.4
	C30.5,42.8,10.8,42.8,10.8,42.8z"/>
</svg>
