<?xml version="1.0" encoding="utf-8"?>
<!-- Generator: Adobe Illustrator 26.3.1, SVG Export Plug-In . SVG Version: 6.00 Build 0)  -->
<svg version="1.1" id="Слой_1" xmlns="http://www.w3.org/2000/svg" xmlns:xlink="http://www.w3.org/1999/xlink" x="0px" y="0px"
	 viewBox="0 0 48 48" style="enable-background:new 0 0 48 48;" xml:space="preserve">
<path d="M24,39.2L2.8,18c3-2.6,6.2-4.6,9.8-6s7.4-2,11.3-2s7.7,0.7,11.3,2c3.6,1.4,6.9,3.3,9.9,6l-0.9,0.9c-0.8-0.6-1.7-1-2.6-1.3
	c-0.9-0.3-1.8-0.4-2.8-0.4c-2.5,0-4.7,0.9-6.4,2.6s-2.6,3.9-2.6,6.3c0,1.1,0.2,2.1,0.5,3s0.8,1.7,1.2,2.3C31.6,31.6,24,39.2,24,39.2
	z M38.8,38.4c-0.3,0-0.6-0.1-0.8-0.3s-0.3-0.5-0.3-0.8s0.1-0.6,0.3-0.8s0.5-0.3,0.8-0.3s0.6,0.1,0.8,0.3s0.3,0.5,0.3,0.8
	s-0.1,0.6-0.3,0.8C39.3,38.3,39.1,38.4,38.8,38.4z M38,34.1c0-1.2,0.1-2.2,0.4-3c0.3-0.7,0.9-1.5,1.9-2.4c0.7-0.6,1.2-1.2,1.5-1.7
	s0.5-1,0.5-1.6c0-0.8-0.3-1.5-0.8-2.2s-1.4-1-2.5-1c-1,0-1.8,0.2-2.4,0.7c-0.6,0.5-1.1,1-1.5,1.7l-1.3-0.8c0.5-0.9,1.2-1.7,2.1-2.3
	c0.9-0.6,1.9-1,3.1-1c1.4,0,2.6,0.4,3.5,1.3s1.4,2,1.4,3.4c0,0.9-0.2,1.7-0.5,2.3c-0.4,0.6-1,1.4-2,2.3c-0.8,0.7-1.3,1.3-1.6,1.9
	c-0.2,0.5-0.3,1.3-0.3,2.4C39.4,34.1,38,34.1,38,34.1z"/>
</svg>
