<?xml version="1.0" encoding="utf-8"?>
<!-- Generator: Adobe Illustrator 26.3.1, SVG Export Plug-In . SVG Version: 6.00 Build 0)  -->
<svg version="1.1" id="Слой_1" xmlns="http://www.w3.org/2000/svg" xmlns:xlink="http://www.w3.org/1999/xlink" x="0px" y="0px"
	 viewBox="0 0 48 48" style="enable-background:new 0 0 48 48;" xml:space="preserve">
<path d="M34.1,29l-1-1l9.8-9.8c-2.7-2.1-5.7-3.7-8.9-4.9c-3.2-1.2-6.5-1.7-10-1.7c-1.2,0-2.3,0.1-3.4,0.2c-1.1,0.1-2.2,0.3-3.3,0.6
	L16,11c1.3-0.4,2.6-0.6,3.9-0.8s2.7-0.2,4-0.2c4,0,7.7,0.7,11.3,2.1c3.6,1.4,6.9,3.4,9.8,5.9L34.1,29z M24,37.1l5.4-5.4L11.9,14.2
	c-1.2,0.5-2.4,1.1-3.5,1.8c-1.1,0.7-2.2,1.4-3.3,2.2L24,37.1z M41,43.2L30.5,32.7L24,39.2L2.8,18c1.2-1,2.4-2,3.8-2.8
	c1.3-0.8,2.7-1.6,4.1-2.2L4.8,7l1.1-1.1l36.2,36.2C42.1,42.1,41,43.2,41,43.2z"/>
</svg>
