<?xml version="1.0" encoding="utf-8"?>
<!-- Generator: Adobe Illustrator 26.3.1, SVG Export Plug-In . SVG Version: 6.00 Build 0)  -->
<svg version="1.1" id="Слой_1" xmlns="http://www.w3.org/2000/svg" xmlns:xlink="http://www.w3.org/1999/xlink" x="0px" y="0px"
	 viewBox="0 0 48 48" style="enable-background:new 0 0 48 48;" xml:space="preserve">
<path d="M6,42L42,6v18.9c-0.2-0.1-0.5-0.2-0.7-0.3c-0.2-0.1-0.5-0.2-0.8-0.2V9.7L9.7,40.5h18.7c0.1,0.3,0.3,0.6,0.5,0.8
	c0.2,0.3,0.4,0.5,0.6,0.7C29.5,42,6,42,6,42z M37.5,42v-6h-6v-1.5h6v-6H39v6h6V36h-6v6H37.5z M9.7,40.5L40.5,9.7
	c-3.6,3.6-6.7,6.7-9.3,9.3s-5,5-7.2,7.2s-4.5,4.4-6.7,6.6L9.7,40.5z"/>
</svg>
