<?xml version="1.0" encoding="utf-8"?>
<!-- Generator: Adobe Illustrator 26.3.1, SVG Export Plug-In . SVG Version: 6.00 Build 0)  -->
<svg version="1.1" id="Слой_1" xmlns="http://www.w3.org/2000/svg" xmlns:xlink="http://www.w3.org/1999/xlink" x="0px" y="0px"
	 viewBox="0 0 48 48" style="enable-background:new 0 0 48 48;" xml:space="preserve">
<path d="M33.8,41.3l-1.1-1.1l4.2-4.2l-4.2-4.2l1.1-1.1l4.2,4.2l4.2-4.2l1.1,1.1L39.1,36l4.2,4.2l-1.1,1.1L38,37.1L33.8,41.3z M6,42
	L42,6v19.8c-0.2-0.1-0.5-0.2-0.7-0.3c-0.3-0.1-0.5-0.2-0.8-0.3V9.7L9.7,40.5h18.2c0.1,0.3,0.3,0.6,0.5,0.8c0.2,0.3,0.4,0.5,0.6,0.7
	H6z M9.7,40.5L40.5,9.7l-9.8,9.8l-7.4,7.4l-6.5,6.5L9.7,40.5z"/>
</svg>
