<?xml version="1.0" encoding="utf-8"?>
<!-- Generator: Adobe Illustrator 26.3.1, SVG Export Plug-In . SVG Version: 6.00 Build 0)  -->
<svg version="1.1" id="Слой_1" xmlns="http://www.w3.org/2000/svg" xmlns:xlink="http://www.w3.org/1999/xlink" x="0px" y="0px"
	 viewBox="0 0 48 48" style="enable-background:new 0 0 48 48;" xml:space="preserve">
<path d="M17.2,32.8v-1c0-1.2,0.6-2.2,1.9-3c1.2-0.8,2.9-1.1,4.9-1.1s3.6,0.4,4.9,1.1c1.2,0.8,1.9,1.8,1.9,3v1H17.2z M24,26
	c-0.9,0-1.7-0.3-2.4-1c-0.7-0.7-1-1.5-1-2.4s0.3-1.7,1-2.4c0.7-0.7,1.5-1,2.4-1s1.7,0.3,2.4,1c0.7,0.7,1,1.5,1,2.4s-0.3,1.7-1,2.4
	C25.7,25.7,24.9,26,24,26z M5.6,17.1v17.2c0.2,0.7,0.9,1.4,2,2s2.5,1,4.1,1.3v-18C10.2,19.3,9,19,8,18.6S6.2,17.7,5.6,17.1z
	 M42.4,17.1c-0.6,0.6-1.4,1.1-2.5,1.5c-1,0.4-2.2,0.7-3.7,1v17.9c1.6-0.3,3-0.7,4.1-1.3s1.8-1.2,2-2V17.1H42.4z M13.2,39.5
	c-2.9-0.4-5.2-1-6.7-1.9c-1.6-0.9-2.4-1.9-2.5-3.2V14.7c0-1.6,1.7-2.7,5-3.5S17.3,10,24,10s11.7,0.4,15,1.2s5,1.9,5,3.5v19.7
	c-0.1,1.3-0.9,2.4-2.5,3.2c-1.6,0.9-3.8,1.5-6.7,1.9V18.3c2.1-0.4,3.8-0.8,5.1-1.4s2.3-1.3,3-2.1c-1.1-1.2-3.2-2-6.1-2.5
	c-2.9-0.5-7.2-0.8-12.8-0.8c-5.7,0-10.1,0.3-13.1,0.8s-5,1.3-5.8,2.5c0.5,0.8,1.4,1.5,2.7,2.1s3.1,1.1,5.4,1.5
	C13.2,18.3,13.2,39.5,13.2,39.5z M5.6,17.1v19.6V17.1z M42.4,17.1v19.6V17.1z"/>
</svg>
