<?xml version="1.0" encoding="utf-8"?>
<!-- Generator: Adobe Illustrator 26.3.1, SVG Export Plug-In . SVG Version: 6.00 Build 0)  -->
<svg version="1.1" id="Слой_1" xmlns="http://www.w3.org/2000/svg" xmlns:xlink="http://www.w3.org/1999/xlink" x="0px" y="0px"
	 viewBox="0 0 48 48" style="enable-background:new 0 0 48 48;" xml:space="preserve">
<path d="M13,36h-0.8l-0.6-4H10v-7.1c0-0.8,0.3-1.5,0.8-2c0.5-0.6,1.2-0.8,2-0.8h1.4v-5.3c0-0.7,0.3-1.4,0.8-1.9s1.2-0.8,2-0.8h14.2
	c0.7,0,1.4,0.3,1.9,0.8s0.8,1.2,0.8,1.9v5.3h1.4c0.7,0,1.4,0.3,1.9,0.8s0.8,1.2,0.8,1.9V32h-1.5l-0.6,4H35l-0.6-4H13.6L13,36z
	 M24.8,22.1h7.5v-5.3c0-0.4-0.1-0.7-0.4-0.9c-0.2-0.2-0.5-0.3-0.9-0.3h-6.3L24.8,22.1L24.8,22.1z M15.7,22.1h7.5v-6.5h-6.3
	c-0.4,0-0.7,0.1-0.9,0.3c-0.2,0.2-0.3,0.5-0.3,0.9C15.7,16.8,15.7,22.1,15.7,22.1z M11.5,30.5h24.9v-5.6c0-0.3-0.1-0.6-0.3-0.9
	c-0.2-0.2-0.5-0.4-0.9-0.4H12.8c-0.4,0-0.7,0.1-0.9,0.4c-0.2,0.2-0.3,0.5-0.3,0.9v5.6H11.5z M36.5,30.5h-25H36.5z"/>
</svg>
