<?xml version="1.0" encoding="utf-8"?>
<!-- Generator: Adobe Illustrator 26.3.1, SVG Export Plug-In . SVG Version: 6.00 Build 0)  -->
<svg version="1.1" id="Слой_1" xmlns="http://www.w3.org/2000/svg" xmlns:xlink="http://www.w3.org/1999/xlink" x="0px" y="0px"
	 viewBox="0 0 48 48" style="enable-background:new 0 0 48 48;" xml:space="preserve">
<path d="M17.5,25.9H19v-5.7c0-1.3,0.5-2.5,1.4-3.5c1-1,2.1-1.5,3.5-1.5v-1.5c-1.8,0-3.3,0.6-4.6,1.9c-1.3,1.3-1.9,2.8-1.9,4.6v5.7
	H17.5z M8.8,40c-0.7,0-1.4-0.3-1.9-0.8C6.3,38.6,6,38,6,37.2v-3.6c0-0.7,0.3-1.4,0.8-1.9c0.6-0.6,1.2-0.8,1.9-0.8h3V20.2
	c0-3.4,1.2-6.3,3.6-8.6C17.7,9.2,20.6,8,24,8s6.3,1.2,8.7,3.6s3.6,5.3,3.6,8.6v2.6c-0.1,0-0.2,0-0.4,0c-0.1,0-0.2,0-0.4,0
	c-0.1,0-0.3,0-0.4,0c-0.1,0-0.3,0-0.4,0v-2.6c0-3-1-5.5-3.1-7.6c-2.1-2-4.6-3.1-7.6-3.1s-5.5,1-7.6,3.1s-3.1,4.6-3.1,7.6v10.6h10
	c-0.1,0.3-0.2,0.5-0.3,0.8c-0.1,0.3-0.2,0.5-0.2,0.8h-14c-0.4,0-0.7,0.1-0.9,0.4c-0.2,0.2-0.3,0.5-0.3,0.9v3.6
	c0,0.4,0.1,0.7,0.3,0.9s0.5,0.3,0.9,0.3h13.9c0.1,0.3,0.1,0.5,0.2,0.8s0.1,0.5,0.3,0.7C23.2,40,8.8,40,8.8,40z M35,43.8
	c-2.3,0-4.3-0.8-5.9-2.4c-1.6-1.6-2.4-3.6-2.4-5.9c0-2.3,0.8-4.3,2.4-5.9s3.6-2.4,5.9-2.4s4.3,0.8,5.9,2.4c1.6,1.6,2.4,3.6,2.4,5.9
	s-0.8,4.3-2.4,5.9S37.3,43.8,35,43.8z M33.6,39.1l6.4-6.4l-0.9-0.9l-5.4,5.5L31,34.6l-0.9,0.9L33.6,39.1z"/>
</svg>
