<?xml version="1.0" encoding="utf-8"?>
<!-- Generator: Adobe Illustrator 26.3.1, SVG Export Plug-In . SVG Version: 6.00 Build 0)  -->
<svg version="1.1" id="Слой_1" xmlns="http://www.w3.org/2000/svg" xmlns:xlink="http://www.w3.org/1999/xlink" x="0px" y="0px"
	 viewBox="0 0 48 48" style="enable-background:new 0 0 48 48;" xml:space="preserve">
<path d="M14.5,47.8c-0.3,0-0.6-0.1-0.8-0.3s-0.3-0.5-0.3-0.8s0.1-0.6,0.3-0.8s0.5-0.3,0.8-0.3s0.6,0.1,0.8,0.3s0.4,0.5,0.4,0.8
	s-0.1,0.6-0.4,0.8C15.1,47.7,14.8,47.8,14.5,47.8z M31.5,47.8c-0.3,0-0.6-0.1-0.8-0.3c-0.2-0.2-0.3-0.5-0.3-0.8s0.1-0.6,0.3-0.8
	c0.2-0.2,0.5-0.3,0.8-0.3s0.6,0.1,0.8,0.3s0.4,0.5,0.4,0.8s-0.1,0.6-0.4,0.8C32.1,47.7,31.8,47.8,31.5,47.8z M13.5,43.2
	c-1.3,0-2.6-0.3-3.8-0.9c-1.2-0.6-2.2-1.4-2.9-2.5c0-0.1-0.1-0.2-0.1-0.2c0-0.1,0-0.1,0-0.2c0-0.2,0.1-0.3,0.2-0.4
	c0.1-0.1,0.3-0.2,0.5-0.2c0.1,0,0.2,0,0.3,0.1C7.8,39,7.8,39,7.9,39.1c0.5,0.8,1.2,1.5,2.1,1.9c0.9,0.5,1.8,0.8,2.9,0.9l6.9-8.3
	l-3.3-8.7c-0.1-0.3-0.2-0.7-0.1-1.1s0.2-0.8,0.4-1.1l6-9.7h-7.3l-3.6,6l-1.3-0.8l4.2-6.7h10.7c0.7,0,1.2,0.2,1.7,0.6
	c0.4,0.4,0.7,0.7,0.8,1.1l1.1,2.4c0.7,1.6,1.8,3,3.2,4.1c1.4,1.1,3.1,1.7,5,1.9v1.5c-2-0.1-3.9-0.8-5.5-2c-1.7-1.2-3.1-2.9-4.3-5
	l-5.4,8.5l8.8,5.5v12.1h1.9c1.1,0,2.1-0.3,3.1-0.8s1.8-1.2,2.4-2.1c0.1-0.1,0.2-0.1,0.2-0.2c0.1-0.1,0.1-0.1,0.3-0.1
	s0.3,0.1,0.5,0.2c0.1,0.1,0.2,0.3,0.2,0.4c0,0.1,0,0.2,0,0.2c0,0.1-0.1,0.1-0.1,0.2c-0.7,1-1.7,1.9-2.8,2.5s-2.4,0.9-3.7,0.9
	C32.7,43.2,13.5,43.2,13.5,43.2z M14.8,41.8h14.4V30.7l-10-5.4l2.2,8.3C21.5,33.6,14.8,41.8,14.8,41.8z M30.2,9.1
	c-0.9,0-1.6-0.3-2.3-0.9c-0.6-0.6-1-1.4-1-2.3s0.3-1.7,0.9-2.3s1.4-0.9,2.3-0.9s1.7,0.3,2.3,0.9C33,4.2,33.3,5,33.3,5.9
	S33,7.5,32.4,8.2C31.8,8.8,31.1,9.1,30.2,9.1z"/>
</svg>
