<?xml version="1.0" encoding="utf-8"?>
<!-- Generator: Adobe Illustrator 26.3.1, SVG Export Plug-In . SVG Version: 6.00 Build 0)  -->
<svg version="1.1" id="Слой_1" xmlns="http://www.w3.org/2000/svg" xmlns:xlink="http://www.w3.org/1999/xlink" x="0px" y="0px"
	 viewBox="0 0 48 48" style="enable-background:new 0 0 48 48;" xml:space="preserve">
<path d="M24,42c-1.3,0-2.4-0.1-3.4-0.4c-1-0.3-2-0.8-3.2-1.5L12,36.6c-0.7-0.4-1.1-1-1.5-1.7c-0.3-0.7-0.5-1.4-0.5-2.1
	c0-1.6,0.6-2.9,1.8-3.8s2.5-1.3,3.8-1.3c0.7,0,1.5,0.1,2.2,0.3c0.7,0.2,1.3,0.6,1.8,1.1c0.5,0.4,1,0.8,1.6,1.1
	c0.6,0.3,1.3,0.4,2,0.5V25c-1.7,0-3.3-0.2-4.8-0.5s-2.8-0.7-4-1.2c-1.1-0.5-2-1.1-2.7-1.8c-0.7-0.7-1-1.5-1-2.5
	c0-0.7,0.2-1.3,0.7-1.9s1.1-1.1,1.9-1.6c-0.2-0.3-0.4-0.6-0.5-1s-0.2-0.7-0.2-1.1c0-0.7,0.3-1.4,0.8-2c0.6-0.6,1.3-1.2,2.3-1.7
	c0-0.1-0.1-0.3-0.1-0.4c0-0.1,0-0.3,0-0.5c0-0.9,0.5-1.6,1.4-2.3s2.1-1.2,3.6-1.5v1.8c-1.2,0.3-2,0.7-2.5,1.1s-0.7,0.7-0.7,0.9
	c0,0.9,0.7,1.6,2,1.9c1.3,0.3,2.5,0.5,3.6,0.6V4h1.5v7.3c1.2,0,2.5-0.2,3.7-0.6c1.2-0.3,1.9-1,1.9-1.9c0-0.2-0.3-0.6-0.8-0.9
	c-0.5-0.4-1.3-0.8-2.4-1.1V5c1.5,0.4,2.7,0.9,3.6,1.5s1.4,1.4,1.4,2.2c0,0.1,0,0.4-0.1,0.9c1,0.5,1.7,1.1,2.3,1.7
	c0.6,0.6,0.8,1.3,0.8,2c0,0.4-0.1,0.8-0.2,1.1c-0.1,0.4-0.3,0.7-0.5,1c0.8,0.5,1.5,1,1.9,1.6c0.5,0.6,0.7,1.2,0.7,1.9
	c0,0.9-0.3,1.7-1,2.5c-0.7,0.7-1.6,1.3-2.7,1.8c-1.1,0.5-2.5,0.9-4,1.2c-1.5,0.3-3.1,0.5-4.8,0.5v5.5c0.8-0.1,1.5-0.2,2-0.5
	c0.6-0.3,1.1-0.6,1.6-1.1s1.1-0.8,1.8-1.1c0.7-0.2,1.4-0.3,2.2-0.3c1.4,0,2.7,0.5,3.8,1.4c1.2,0.9,1.8,2.2,1.8,3.8
	c0,0.7-0.2,1.4-0.5,2.1c-0.3,0.7-0.8,1.3-1.5,1.7L30,39.8c-1.2,0.8-2.3,1.3-3.2,1.5C26.4,41.9,25.3,42,24,42z M24,40.5
	c1.1,0,2.1-0.1,2.9-0.4c0.8-0.2,1.8-0.7,2.8-1.4l5.5-3.5c0.4-0.2,0.7-0.6,0.9-1.1s0.3-0.9,0.3-1.4c0-1.1-0.4-2-1.3-2.7
	c-0.9-0.7-1.8-1-2.8-1c-0.5,0-1.1,0.1-1.6,0.3c-0.5,0.2-1,0.4-1.4,0.7c-0.8,0.7-1.6,1.2-2.5,1.6C26,32.1,25,32.3,24,32.3
	s-2-0.2-2.9-0.5c-0.9-0.4-1.7-0.9-2.5-1.6c-0.4-0.3-0.9-0.6-1.4-0.7c-0.5-0.2-1.1-0.3-1.6-0.3c-1,0-1.9,0.3-2.8,1s-1.3,1.5-1.3,2.6
	c0,0.5,0.1,0.9,0.3,1.4s0.5,0.9,0.9,1.1l5.5,3.5c1,0.7,2,1.1,2.8,1.3C21.9,40.4,22.9,40.5,24,40.5z M23.2,23.3V19
	c-1.8-0.1-3.4-0.3-4.9-0.6c-1.5-0.3-2.7-0.9-3.6-1.6c-0.8,0.4-1.4,0.9-1.7,1.3s-0.5,0.7-0.5,1c0,1.1,1,2,3,2.8
	C17.4,22.7,20,23.2,23.2,23.3z M16.5,34.8c0.4,0,0.8-0.2,1.1-0.5c0.3-0.3,0.4-0.6,0.4-1s-0.1-0.8-0.4-1c-0.3-0.3-0.7-0.5-1.1-0.5
	s-0.8,0.1-1.1,0.5c-0.3,0.3-0.4,0.6-0.4,1s0.2,0.8,0.4,1C15.8,34.7,16.1,34.8,16.5,34.8z M23.2,17.3v-4.2c-1.3-0.1-2.6-0.2-3.7-0.5
	s-2-0.7-2.6-1.4c-0.9,0.4-1.5,0.8-1.8,1.2c-0.4,0.4-0.5,0.7-0.5,1c0,1.2,0.9,2.1,2.6,2.7C18.9,16.8,20.9,17.2,23.2,17.3z M24.8,23.3
	c3.2-0.1,5.8-0.5,7.7-1.4c2-0.8,2.9-1.8,3-2.8c0-0.2-0.2-0.5-0.5-0.9s-0.9-0.8-1.7-1.3c-0.9,0.7-2.1,1.2-3.6,1.5S26.5,19,24.8,19
	V23.3z M24.8,17.3c2.3-0.1,4.4-0.5,6.1-1.1c1.7-0.6,2.6-1.5,2.6-2.7c0-0.3-0.2-0.6-0.5-1s-1-0.8-1.8-1.2c-0.6,0.6-1.5,1.1-2.6,1.4
	c-1.1,0.3-2.4,0.5-3.7,0.5C24.8,13.1,24.8,17.3,24.8,17.3z M31.5,34.8c0.4,0,0.8-0.2,1-0.5c0.3-0.3,0.5-0.6,0.5-1s-0.1-0.8-0.5-1
	c-0.3-0.3-0.6-0.5-1-0.5s-0.8,0.1-1,0.5c-0.3,0.3-0.5,0.6-0.5,1s0.1,0.8,0.5,1C30.8,34.7,31.1,34.8,31.5,34.8z"/>
</svg>
