<?xml version="1.0" encoding="utf-8"?>
<!-- Generator: Adobe Illustrator 26.3.1, SVG Export Plug-In . SVG Version: 6.00 Build 0)  -->
<svg version="1.1" id="Слой_1" xmlns="http://www.w3.org/2000/svg" xmlns:xlink="http://www.w3.org/1999/xlink" x="0px" y="0px"
	 viewBox="0 0 48 48" style="enable-background:new 0 0 48 48;" xml:space="preserve">
<path d="M11,21.2c0-1.1-0.1-2.2-0.4-3c-0.3-0.9-0.8-2.1-1.8-3.5c-0.8-1.3-1.3-2.4-1.6-3.4C7,10.3,6.9,9.2,7,8h1.5
	c0,1.1,0.1,2.1,0.4,3.1c0.3,0.9,0.9,2.1,1.8,3.5c0.7,1.2,1.2,2.4,1.5,3.4s0.4,2.1,0.3,3.3L11,21.2L11,21.2z M19.1,21.2
	c0-1.1-0.1-2.2-0.4-3s-0.9-2.1-1.8-3.5c-0.8-1.3-1.3-2.4-1.6-3.4C15,10.3,14.9,9.2,15,8h1.5c0,1.1,0.1,2.1,0.4,3.1
	c0.3,0.9,0.9,2.1,1.8,3.5c0.7,1.2,1.2,2.4,1.5,3.4s0.4,2.1,0.3,3.3C20.6,21.2,19.1,21.2,19.1,21.2z M27.3,21.2c0-1.1-0.1-2.2-0.4-3
	c-0.3-0.9-0.9-2.1-1.8-3.5c-0.8-1.3-1.3-2.4-1.6-3.4c-0.3-1-0.4-2.1-0.3-3.3h1.5c0,1.1,0.1,2.1,0.4,3.1c0.3,0.9,0.9,2.1,1.8,3.5
	c0.7,1.2,1.2,2.4,1.5,3.4s0.4,2.1,0.3,3.3L27.3,21.2L27.3,21.2z M10,38c-1.1,0-2.1-0.4-2.9-1.1C6.4,36.1,6,35.1,6,34v-8h26.5
	c-0.1-1,0.2-1.9,0.7-2.7c0.5-0.8,1.2-1.4,2.1-1.7l8.5-2.9l0.5,1.4L35.8,23c-0.6,0.2-1,0.5-1.3,1S34,25.1,34,25.7V34
	c0,1.1-0.4,2-1.1,2.8C32.1,37.6,31.1,38,30,38H10z M10,36.5h20c0.7,0,1.3-0.2,1.7-0.7c0.5-0.5,0.7-1.1,0.7-1.7v-6.5H7.5V34
	c0,0.7,0.2,1.3,0.7,1.7C8.7,36.2,9.3,36.5,10,36.5z"/>
</svg>
