<?xml version="1.0" encoding="utf-8"?>
<!-- Generator: Adobe Illustrator 26.3.1, SVG Export Plug-In . SVG Version: 6.00 Build 0)  -->
<svg version="1.1" id="Слой_1" xmlns="http://www.w3.org/2000/svg" xmlns:xlink="http://www.w3.org/1999/xlink" x="0px" y="0px"
	 viewBox="0 0 48 48" style="enable-background:new 0 0 48 48;" xml:space="preserve">
<path d="M9.4,34v-3.1c-1.6-1-2.9-2.3-3.9-3.8S4,23.9,4,22.1c0-2.9,1.1-5.3,3.2-7.2c2.2-2,4.8-2.9,7.7-2.9c3,0,5.5,1,7.7,2.9
	s3.2,4.3,3.2,7.2c0,1.8-0.5,3.5-1.5,5s-2.3,2.8-3.9,3.8V34H9.4z M10.9,32.5h8V30l1.2-0.8c1.3-0.7,2.3-1.7,3-3
	c0.7-1.2,1.1-2.6,1.1-4.1c0-2.5-0.9-4.5-2.8-6.1s-4.1-2.4-6.6-2.4c-2.6,0-4.8,0.8-6.6,2.4c-1.9,1.6-2.8,3.7-2.8,6.1
	c0,1.5,0.4,2.9,1.1,4.1s1.8,2.2,3,3l1.2,0.8C10.9,29.9,10.9,32.5,10.9,32.5z M11.1,23.3c0.3,0,0.6-0.1,0.9-0.4
	c0.2-0.2,0.4-0.5,0.4-0.9c0-0.3-0.1-0.6-0.4-0.9c-0.2-0.2-0.5-0.3-0.9-0.3c-0.3,0-0.6,0.1-0.9,0.4c-0.2,0.2-0.3,0.5-0.3,0.9
	c0,0.3,0.1,0.6,0.4,0.9C10.4,23.2,10.7,23.3,11.1,23.3z M13.7,26.5h2.5L15,24L13.7,26.5z M18.8,23.3c0.3,0,0.6-0.1,0.9-0.4
	c0.2-0.2,0.3-0.5,0.3-0.9c0-0.3-0.1-0.6-0.4-0.9c-0.2-0.2-0.5-0.3-0.9-0.3c-0.3,0-0.6,0.1-0.9,0.4c-0.2,0.2-0.4,0.5-0.4,0.9
	c0,0.3,0.1,0.6,0.4,0.9C18.1,23.2,18.4,23.3,18.8,23.3z M29.9,24.7v-1.5H42v1.5H29.9z M29.9,31.4v-1.5H42v1.5H29.9z M29.9,17.9v-1.5
	H42v1.5H29.9z"/>
</svg>
