<?xml version="1.0" encoding="utf-8"?>
<!-- Generator: Adobe Illustrator 26.3.1, SVG Export Plug-In . SVG Version: 6.00 Build 0)  -->
<svg version="1.1" id="Слой_1" xmlns="http://www.w3.org/2000/svg" xmlns:xlink="http://www.w3.org/1999/xlink" x="0px" y="0px"
	 viewBox="0 0 48 48" style="enable-background:new 0 0 48 48;" xml:space="preserve">
<path d="M14,42v-7.8c-1.2-0.5-2.3-1.1-3.3-2c-1-0.8-1.8-1.8-2.5-2.8c-0.7-1.1-1.3-2.2-1.6-3.5C6.2,24.7,6,23.4,6,22
	c0-4.7,1.7-8.5,5-11.5S18.7,6,24,6s9.6,1.5,13,4.5s5,6.8,5,11.5c0,1.4-0.2,2.7-0.6,3.9c-0.4,1.3-0.9,2.4-1.6,3.5
	c-0.7,1.1-1.6,2-2.5,2.8c-1,0.8-2.1,1.5-3.3,2V42H14z M15.5,40.5H19V37h2.6v3.5h4.6V37h2.6v3.5h3.5v-7.2c1.2-0.4,2.3-1,3.3-1.7
	s1.8-1.6,2.5-2.6s1.2-2.1,1.6-3.3s0.6-2.4,0.6-3.7c0-4.3-1.5-7.8-4.5-10.5s-7-4-11.9-4S15,8.8,12,11.5S7.4,17.7,7.4,22
	c0,1.3,0.2,2.5,0.6,3.7C8.5,26.9,9,28,9.7,29s1.5,1.8,2.5,2.6c1,0.7,2.1,1.3,3.3,1.7C15.5,33.2,15.5,40.5,15.5,40.5z M21.4,30h5.2
	L24,24.8L21.4,30z M17,24.8c0.8,0,1.5-0.3,2.1-0.9s0.9-1.3,0.9-2.1s-0.3-1.5-0.9-2.1s-1.3-0.9-2.1-0.9c-0.8,0-1.5,0.3-2.1,0.9
	C14.3,20.2,14,21,14,21.8s0.3,1.5,0.9,2.1C15.5,24.5,16.2,24.8,17,24.8z M31,24.8c0.8,0,1.5-0.3,2.1-0.9s0.9-1.3,0.9-2.1
	s-0.3-1.5-0.9-2.1c-0.6-0.6-1.3-0.9-2.1-0.9c-0.8,0-1.5,0.3-2.1,0.9C28.3,20.2,28,21,28,21.8s0.3,1.5,0.9,2.1S30.2,24.8,31,24.8z"/>
</svg>
