<?xml version="1.0" encoding="utf-8"?>
<!-- Generator: Adobe Illustrator 26.3.1, SVG Export Plug-In . SVG Version: 6.00 Build 0)  -->
<svg version="1.1" id="Слой_1" xmlns="http://www.w3.org/2000/svg" xmlns:xlink="http://www.w3.org/1999/xlink" x="0px" y="0px"
	 viewBox="0 0 48 48" style="enable-background:new 0 0 48 48;" xml:space="preserve">
<path d="M24.1,42c-2.5,0-4.9-0.5-7.1-1.4c-2.2-1-4.1-2.3-5.8-3.9c-1.6-1.6-3-3.6-3.9-5.8c-1-2.2-1.4-4.6-1.4-7.1
	c0-3.9,1.1-7.4,3.4-10.5s5.2-5.3,8.9-6.5c-0.1,3.1,0.3,6.1,1.4,9s2.7,5.4,5,7.6c2.2,2.2,4.8,3.9,7.6,5c2.9,1.1,5.9,1.6,9,1.4
	c-1.2,3.7-3.4,6.6-6.5,8.9C31.6,40.9,28,42,24.1,42z M24.1,40.5c3.1,0,6-0.8,8.6-2.5s4.7-3.9,6.2-6.6c-2.9-0.3-5.7-1-8.4-2.1
	c-2.7-1.2-5-2.8-7.1-4.9s-3.7-4.4-4.9-7c-1.2-2.6-1.8-5.4-2.1-8.3c-2.7,1.5-4.9,3.6-6.6,6.2s-2.5,5.5-2.5,8.6
	c0,4.6,1.6,8.6,4.8,11.8S19.5,40.5,24.1,40.5z M35.6,15.7l-1.5-3.5l-3.5-1.5l3.5-1.6l1.5-3.5l1.6,3.5l3.5,1.6l-3.5,1.5
	C37.2,12.2,35.6,15.7,35.6,15.7z"/>
</svg>
