<?xml version="1.0" encoding="utf-8"?>
<!-- Generator: Adobe Illustrator 26.3.1, SVG Export Plug-In . SVG Version: 6.00 Build 0)  -->
<svg version="1.1" id="Слой_1" xmlns="http://www.w3.org/2000/svg" xmlns:xlink="http://www.w3.org/1999/xlink" x="0px" y="0px"
	 viewBox="0 0 48 48" style="enable-background:new 0 0 48 48;" xml:space="preserve">
<path d="M9.7,27.6c-1,0-1.9-0.4-2.6-1.1S6,25,6,23.9c0-1,0.4-1.9,1.1-2.6s1.6-1.1,2.6-1.1v-5.8c0-0.7,0.3-1.4,0.8-1.9
	c0.6-0.6,1.2-0.8,1.9-0.8h7.8c0-1,0.4-1.9,1.1-2.6C22.1,8.4,23,8,24,8s1.9,0.4,2.6,1.1c0.7,0.7,1.1,1.6,1.1,2.6h7.8
	c0.7,0,1.4,0.3,1.9,0.8c0.6,0.6,0.8,1.2,0.8,1.9v5.8c1,0,1.9,0.4,2.6,1.1c0.7,0.7,1.1,1.6,1.1,2.6s-0.4,1.9-1.1,2.6
	c-0.7,0.7-1.6,1.1-2.6,1.1v9.6c0,0.7-0.3,1.4-0.8,1.9c-0.6,0.6-1.2,0.8-1.9,0.8h-23c-0.7,0-1.4-0.3-1.9-0.8C10,38.6,9.7,38,9.7,37.2
	V27.6z M17.6,24.2c0.4,0,0.8-0.2,1.1-0.5c0.3-0.3,0.4-0.7,0.4-1.1s-0.2-0.8-0.5-1.1c-0.3-0.3-0.7-0.4-1.1-0.4s-0.8,0.2-1.1,0.5
	c-0.3,0.3-0.4,0.7-0.4,1.1s0.2,0.8,0.5,1.1C16.8,24,17.2,24.2,17.6,24.2z M30.4,24.2c0.4,0,0.8-0.2,1.1-0.5c0.3-0.3,0.4-0.7,0.4-1.1
	s-0.2-0.8-0.5-1.1c-0.3-0.3-0.7-0.4-1.1-0.4s-0.8,0.2-1.1,0.5c-0.3,0.3-0.4,0.7-0.4,1.1s0.2,0.8,0.5,1.1C29.6,24,30,24.2,30.4,24.2z
	 M16.8,32.9h14.3v-1.5H16.8V32.9z M12.5,38.5h23.1c0.3,0,0.6-0.1,0.9-0.3c0.2-0.2,0.4-0.5,0.4-0.9V14.5c0-0.3-0.1-0.6-0.4-0.9
	s-0.5-0.4-0.9-0.4H12.5c-0.3,0-0.6,0.1-0.9,0.4s-0.4,0.5-0.4,0.9v22.8c0,0.4,0.1,0.7,0.4,0.9C11.8,38.3,12.1,38.5,12.5,38.5z"/>
</svg>
