<?xml version="1.0" encoding="utf-8"?>
<!-- Generator: Adobe Illustrator 26.3.1, SVG Export Plug-In . SVG Version: 6.00 Build 0)  -->
<svg version="1.1" id="Слой_1" xmlns="http://www.w3.org/2000/svg" xmlns:xlink="http://www.w3.org/1999/xlink" x="0px" y="0px"
	 viewBox="0 0 48 48" style="enable-background:new 0 0 48 48;" xml:space="preserve">
<path d="M7.8,33c-0.7,0-1.4-0.3-1.9-0.8C5.3,31.6,5,31,5,30.2V17.8c0-0.7,0.3-1.4,0.8-1.9C6.4,15.3,7,15,7.8,15h32.5
	c0.7,0,1.4,0.3,1.9,0.8c0.6,0.6,0.8,1.2,0.8,1.9v12.5c0,0.7-0.3,1.4-0.8,1.9c-0.6,0.6-1.2,0.9-2,0.9h-2.1v-1.5h2.1
	c0.3,0,0.6-0.1,0.8-0.4s0.3-0.5,0.3-0.9V17.8c0-0.3-0.1-0.6-0.3-0.9s-0.5-0.4-0.8-0.4H7.8c-0.3,0-0.6,0.1-0.8,0.4
	c-0.2,0.2-0.3,0.5-0.3,0.9v12.5c0,0.3,0.1,0.6,0.3,0.9c0.2,0.2,0.5,0.4,0.8,0.4h12.1V33H7.8z M29,36.7l-1.6-3.5l-3.5-1.6l3.5-1.6
	l1.6-3.6l1.6,3.6l3.6,1.5l-3.5,1.6L29,36.7z M34,27.7l-1.2-2.5L30.3,24l2.5-1.2l1.2-2.5l1.2,2.5l2.5,1.2l-2.5,1.2L34,27.7z"/>
</svg>
