<?xml version="1.0" encoding="utf-8"?>
<!-- Generator: Adobe Illustrator 26.3.1, SVG Export Plug-In . SVG Version: 6.00 Build 0)  -->
<svg version="1.1" id="Слой_1" xmlns="http://www.w3.org/2000/svg" xmlns:xlink="http://www.w3.org/1999/xlink" x="0px" y="0px"
	 viewBox="0 0 48 48" style="enable-background:new 0 0 48 48;" xml:space="preserve">
<path d="M17.7,44c-1.2,0-2.1-0.3-2.7-1c-0.6-0.7-0.9-1.4-0.9-2.3c0-0.6,0.1-1.2,0.4-1.7c0.3-0.6,0.7-1,1.2-1.4
	c0.7-0.5,1.3-1.1,1.7-2c0.4-0.8,0.8-1.7,1-2.7c-0.3-0.1-0.7-0.2-1-0.4s-0.6-0.4-0.9-0.7l-4.2,1.6c-0.4,0.2-0.9,0.3-1.3,0.4
	c-0.4,0.1-0.8,0.1-1.3,0.1c-1.5,0-2.8-0.7-4-2C4.6,30.5,4,28.5,4,25.7c0-1.2,0.3-2,1-2.7c0.7-0.6,1.4-0.9,2.2-0.9
	c0.6,0,1.2,0.1,1.8,0.4s1.1,0.7,1.4,1.2c0.5,0.7,1.1,1.3,1.9,1.8c0.8,0.5,1.7,0.8,2.7,1c0.1-0.3,0.2-0.7,0.4-1s0.4-0.6,0.6-0.9
	l-1.6-4.2c-0.2-0.4-0.3-0.8-0.4-1.2c-0.1-0.4-0.1-0.8-0.1-1.2c0-1.8,0.8-3.2,2.4-4.3s3.5-1.6,5.8-1.6c1.2,0,2,0.3,2.7,1
	c0.6,0.7,0.9,1.4,0.9,2.2c0,0.5-0.1,1.1-0.4,1.7s-0.7,1.1-1.2,1.5c-0.7,0.5-1.3,1.1-1.7,1.9c-0.5,0.8-0.8,1.7-1,2.7
	c0.3,0.2,0.7,0.3,1,0.5s0.6,0.4,0.9,0.6l4.2-1.6c0.4-0.1,0.8-0.3,1.2-0.3c0.4-0.1,0.8-0.1,1.2-0.1c2,0,3.5,0.9,4.5,2.6
	s1.5,3.6,1.5,5.7c0,1.2-0.4,2.1-1.1,2.6c-0.7,0.6-1.5,0.9-2.4,0.9c-0.6,0-1.1-0.1-1.7-0.4c-0.5-0.3-1-0.7-1.4-1.2
	c-0.5-0.7-1.1-1.3-1.9-1.7c-0.8-0.5-1.7-0.8-2.7-1c-0.1,0.3-0.2,0.6-0.4,0.9c-0.2,0.3-0.4,0.6-0.6,0.9l1.6,4.2
	c0.2,0.4,0.3,0.8,0.4,1.2s0.1,0.8,0.1,1.1c0,1.4-0.7,2.8-2,4.1C22.6,43.4,20.5,44,17.7,44z M20,31.6c1,0,1.9-0.3,2.6-1s1-1.5,1-2.5
	s-0.3-1.9-1-2.6s-1.5-1-2.6-1c-1,0-1.9,0.3-2.6,1s-1,1.5-1,2.5s0.3,1.9,1,2.6C18.1,31.3,19,31.6,20,31.6z M17.5,23.6
	c0.4-0.2,0.8-0.4,1.2-0.5c0.4-0.1,0.8-0.2,1.3-0.2c0.3-1.2,0.7-2.3,1.2-3.3c0.6-1,1.3-1.8,2.2-2.4c0.3-0.2,0.5-0.5,0.7-0.8
	s0.3-0.7,0.3-1.2s-0.2-0.9-0.5-1.2s-0.8-0.5-1.5-0.5c-1.2,0-2.6,0.3-4.2,0.9c-1.6,0.6-2.4,1.7-2.5,3.5c0,0.3,0,0.6,0.1,0.9
	s0.2,0.5,0.3,0.7L17.5,23.6z M9.8,32.4c0.5,0,1.1-0.1,1.8-0.4l4-1.4c-0.2-0.4-0.4-0.8-0.5-1.2c-0.1-0.4-0.2-0.9-0.2-1.3
	c-1.2-0.2-2.4-0.6-3.3-1.2s-1.8-1.3-2.4-2.2C9,24.4,8.7,24.2,8.3,24c-0.4-0.2-0.7-0.3-1.1-0.3c-0.6,0-1,0.2-1.3,0.5
	c-0.3,0.3-0.4,0.8-0.4,1.5c0,1.8,0.4,3.3,1.1,4.7C7.4,31.7,8.5,32.4,9.8,32.4z M17.7,42.5c1.5,0,3-0.3,4.4-1
	c1.5-0.7,2.2-1.9,2.2-3.5c0-0.4-0.1-0.9-0.4-1.5l-1.4-4c-0.4,0.3-0.9,0.4-1.3,0.5s-0.9,0.2-1.2,0.2c-0.3,1.2-0.7,2.3-1.2,3.3
	c-0.6,1-1.3,1.8-2.2,2.3c-0.3,0.2-0.5,0.5-0.7,0.8c-0.2,0.4-0.3,0.7-0.2,1c0,0.5,0.2,0.9,0.5,1.2C16.5,42.3,17,42.5,17.7,42.5z
	 M32.6,32.4c0.5,0,1-0.1,1.3-0.4c0.4-0.3,0.6-0.8,0.6-1.6c0-1.2-0.3-2.6-0.8-4.2c-0.6-1.6-1.7-2.5-3.6-2.5c-0.3,0-0.9,0.1-1.7,0.3
	l-4,1.5c0.2,0.4,0.4,0.8,0.5,1.2s0.2,0.9,0.2,1.3c1.2,0.2,2.3,0.6,3.3,1.2s1.8,1.3,2.4,2.2c0.2,0.2,0.4,0.4,0.7,0.6
	C31.9,32.3,32.2,32.4,32.6,32.4z M36.3,19.5c0-2.2-0.8-4-2.3-5.5s-3.4-2.3-5.5-2.3c2.2,0,4-0.7,5.5-2.2s2.3-3.3,2.3-5.5
	c0,2.2,0.7,4,2.2,5.5s3.3,2.2,5.5,2.2c-2.2,0-4,0.8-5.5,2.3S36.3,17.4,36.3,19.5z"/>
</svg>
