<?xml version="1.0" encoding="utf-8"?>
<!-- Generator: Adobe Illustrator 26.3.1, SVG Export Plug-In . SVG Version: 6.00 Build 0)  -->
<svg version="1.1" id="Слой_1" xmlns="http://www.w3.org/2000/svg" xmlns:xlink="http://www.w3.org/1999/xlink" x="0px" y="0px"
	 viewBox="0 0 48 48" style="enable-background:new 0 0 48 48;" xml:space="preserve">
<path d="M33.5,3.5c0.8,0,1.4,0.3,2,0.8c0.5,0.5,0.8,1.2,0.8,2V28h-0.9l-0.7-0.7v-21c0-0.4-0.1-0.7-0.3-0.9c-0.2-0.2-0.5-0.3-0.9-0.3
	H12.7l-0.3-0.3c0.2-0.3,0.5-0.6,0.9-0.9c0.4-0.2,0.8-0.3,1.3-0.3L33.5,3.5L33.5,3.5z M27.8,20.3L25,17.5c0.1-0.7,0.3-1.3,0.9-1.7
	c0.5-0.5,1.1-0.7,1.8-0.7c0.7,0,1.4,0.3,1.9,0.8c0.5,0.5,0.8,1.2,0.8,1.9s-0.2,1.3-0.7,1.8C29.1,20,28.5,20.3,27.8,20.3z M16.5,24.2
	V14l4.6,4.6c-0.1,1.8-0.5,3.2-1.1,4.1c-0.6,1-1.4,1.4-2.4,1.4C17.6,24.2,16.5,24.2,16.5,24.2z M7.5,38h30.7L35,34.8H8.8
	c-0.4,0-0.7,0.1-0.9,0.3c-0.2,0.2-0.3,0.5-0.3,0.9L7.5,38L7.5,38z M42.5,42.3l-2.8-2.8H6V36c0-0.8,0.3-1.4,0.8-2
	c0.6-0.5,1.2-0.8,1.9-0.8h24.7L13.3,13v16h-1.5V11.5l-8-8L5,2.4l38.8,38.8C43.6,41.2,42.5,42.3,42.5,42.3z"/>
</svg>
