<?xml version="1.0" encoding="utf-8"?>
<!-- Generator: Adobe Illustrator 26.3.1, SVG Export Plug-In . SVG Version: 6.00 Build 0)  -->
<svg version="1.1" id="Слой_1" xmlns="http://www.w3.org/2000/svg" xmlns:xlink="http://www.w3.org/1999/xlink" x="0px" y="0px"
	 viewBox="0 0 48 48" style="enable-background:new 0 0 48 48;" xml:space="preserve">
<path d="M41.5,43.8L28.1,30.4h-22v-3.1H25L5.3,7.5l1.1-1.2l36.3,36.3C42.6,42.7,41.5,43.8,41.5,43.8z M36,30.4l0.3,0.3v-3.4h1.5v3.1
	H36z M40,30.4v-3.1h1.5v3.1H40z M34.2,29.2l-1.9-1.9h1.9V29.2z M36.3,24.4v-2.7c0-1.2-0.4-2.3-1.2-3.1c-0.8-0.8-1.7-1.2-2.9-1.2H29
	c-1.5,0-2.8-0.6-3.8-1.7s-1.5-2.5-1.5-4S24.2,9,25.2,8s2.3-1.5,3.8-1.5V8c-1.1,0-2,0.3-2.7,1s-1.1,1.5-1.1,2.6s0.4,2,1.1,2.9
	s1.6,1.3,2.7,1.3h3.3c1.5,0,2.9,0.6,3.9,1.7c1.1,1.1,1.6,2.5,1.6,4v2.8C37.8,24.4,36.3,24.4,36.3,24.4z M40,24.4v-4.7
	c0-2.3-0.8-4.2-2.4-5.6C36,12.7,34,12,31.6,12v-1.5c1.1,0,2-0.4,2.7-1.1c0.7-0.7,1-1.6,1-2.7h1.5c0,1-0.2,1.9-0.6,2.6
	c-0.4,0.7-0.9,1.3-1.6,1.6c1.8,0.5,3.4,1.5,4.8,3c1.4,1.5,2.1,3.5,2.1,5.8v4.7C41.5,24.4,40,24.4,40,24.4z"/>
</svg>
