<?xml version="1.0" encoding="utf-8"?>
<!-- Generator: Adobe Illustrator 26.3.1, SVG Export Plug-In . SVG Version: 6.00 Build 0)  -->
<svg version="1.1" id="Слой_1" xmlns="http://www.w3.org/2000/svg" xmlns:xlink="http://www.w3.org/1999/xlink" x="0px" y="0px"
	 viewBox="0 0 48 48" style="enable-background:new 0 0 48 48;" xml:space="preserve">
<path d="M37.6,44.4c-0.3,0-0.5,0-0.8,0s-0.6-0.1-0.9-0.1l-25.2-5.4c-1.3-0.3-2.5-0.8-3.6-1.7c-1-0.8-1.8-1.9-2.4-3.1
	c0,0,0-0.1-0.1-0.2c0-0.2,0-0.3,0.2-0.5c0.1-0.1,0.3-0.2,0.4-0.3c0.1,0,0.3,0,0.4,0.1s0.2,0.2,0.3,0.3c0.5,1,1.2,1.9,2.1,2.6
	c0.9,0.7,1.8,1.2,2.9,1.4l1.8,0.3l7.6-5l-1.8-8.1c-0.1-0.3-0.1-0.8,0-1.2c0.1-0.5,0.2-0.8,0.3-1.1l6-9.7h-7.3l-3.7,6l-1.3-0.8
	l4.2-6.7h10.7c0.7,0,1.2,0.2,1.7,0.6s0.7,0.7,0.8,1.1l1,2.4c0.7,1.6,1.8,3,3.2,4.1s3.1,1.7,5,1.9v1.5c-2-0.1-3.9-0.8-5.5-1.9
	c-1.7-1.2-3.1-2.9-4.3-5l-5.4,8.5l7.1,5.5l2,12.5l3.1,0.7c0.2,0.1,0.5,0.1,0.7,0.1s0.5,0,0.7,0c0.8,0,1.6-0.2,2.5-0.5
	c0.8-0.3,1.6-0.8,2.2-1.4c0,0,0.1,0,0.4-0.2c0.2,0,0.3,0,0.5,0.1c0.1,0.1,0.2,0.3,0.2,0.5c0,0.1,0,0.2-0.1,0.3
	c0,0.1-0.1,0.2-0.2,0.3c-0.7,0.7-1.6,1.3-2.6,1.6C39.6,44.2,38.6,44.4,37.6,44.4z M31.4,42l-1.7-11.2l-8.5-6l1,8.8l-7.3,4.9L31.4,42
	z M32.2,9.1c-0.9,0-1.6-0.3-2.3-1s-1-1.4-1-2.3s0.3-1.7,1-2.3c0.6-0.6,1.4-0.9,2.3-0.9c0.9,0,1.7,0.3,2.3,0.9s0.9,1.4,0.9,2.3
	s-0.3,1.6-0.9,2.3C33.8,8.7,33.1,9.1,32.2,9.1z"/>
</svg>
