<?xml version="1.0" encoding="utf-8"?>
<!-- Generator: Adobe Illustrator 26.3.1, SVG Export Plug-In . SVG Version: 6.00 Build 0)  -->
<svg version="1.1" id="Слой_1" xmlns="http://www.w3.org/2000/svg" xmlns:xlink="http://www.w3.org/1999/xlink" x="0px" y="0px"
	 viewBox="0 0 48 48" style="enable-background:new 0 0 48 48;" xml:space="preserve">
<path d="M14,38.8H3.9c-0.9,0-1.5-0.3-2-0.9c-0.5-0.6-0.7-1.2-0.7-1.9c0-0.5,0.1-0.9,0.4-1.3s0.6-0.8,1.1-1l9.7-5.3l-10.7-3l3-5.9
	l17.6,2l7.7-5.7L27,13h-4.5v-1.5h5.1l14.3,13.3c0.3,0.3,0.5,0.6,0.7,0.9s0.2,0.7,0.2,1c0,1.1-0.4,2.1-1.3,2.9
	c-0.9,0.8-2.2,1.3-3.9,1.4h-3.3l6.9,6.5H42c0.7,0,1.3-0.2,2-0.6c0.6-0.4,1.1-1,1.4-1.8H47c-0.4,0.9-1.1,1.9-2,2.6s-2,1.1-3.1,1.1
	H31.2v-1.5h7.7L32,30.8h-9.6c0,2.4-0.8,4.3-2.3,5.8C18.5,38,16.5,38.8,14,38.8z M3.9,37.2H14c2,0,3.7-0.6,5-1.7
	c1.3-1.2,1.9-2.7,1.9-4.7l-6.4-1.9L3.7,34.7C3.4,34.9,3.2,35,3,35.2S2.7,35.7,2.7,36s0.1,0.6,0.4,0.9C3.3,37.1,3.6,37.2,3.9,37.2z
	 M21.1,29.2H37c1.3,0,2.3-0.2,3-0.7s1.1-1.3,1.1-2.5L31,16.6l-8.4,6.3L5.6,21l-1.7,3.3C3.9,24.3,21.1,29.2,21.1,29.2z"/>
</svg>
