<?xml version="1.0" encoding="utf-8"?>
<!-- Generator: Adobe Illustrator 26.3.1, SVG Export Plug-In . SVG Version: 6.00 Build 0)  -->
<svg version="1.1" id="Слой_1" xmlns="http://www.w3.org/2000/svg" xmlns:xlink="http://www.w3.org/1999/xlink" x="0px" y="0px"
	 viewBox="0 0 48 48" style="enable-background:new 0 0 48 48;" xml:space="preserve">
<path d="M17.6,45.4c-0.5,0-1-0.2-1.6-0.6c-0.6-0.4-1.3-1-2-2l-4.8-6l1-0.8l2.8,3.5l6.3-4.7l3.8-19.3l-6.6,2.8v6.4h-1.6v-7.4l7.9-3.3
	c0.8-0.3,1.3-0.5,1.8-0.7c0.4-0.1,0.8-0.2,1.3-0.2s1,0.1,1.4,0.3c0.5,0.2,0.8,0.6,1.1,1l2,3.2c1,1.5,2.2,2.8,3.7,3.7
	c1.5,0.9,3.1,1.5,5,1.7v1.5c-2.1-0.2-4.1-0.8-5.8-1.9s-3.3-2.9-4.7-5.2l-2.2,9.8l4.5,4.2v12.5c1.2,0,2.1-0.1,2.7-0.2
	c0.6-0.1,1.2-0.4,1.9-0.7c0.2-0.1,0.3-0.2,0.5-0.2c0.1-0.1,0.2-0.1,0.3-0.1c0.2,0,0.3,0.1,0.4,0.2c0.1,0.1,0.2,0.3,0.2,0.4
	c0,0.2-0.1,0.4-0.2,0.5c-0.1,0.1-0.3,0.2-0.5,0.3c-0.7,0.3-1.4,0.6-2,0.8c-0.7,0.2-1.5,0.3-2.5,0.3H25v-1.3h4.2V33.7l-6.4-6L21,35.6
	l-7.2,5.2l1.1,1.5c0.4,0.5,0.8,0.9,1.2,1.2s0.9,0.5,1.3,0.7c0.2,0,0.3,0.1,0.4,0.3c0.1,0.1,0.1,0.3,0.1,0.4c0,0.2-0.1,0.3-0.2,0.4
	C17.8,45.4,17.7,45.4,17.6,45.4z M29.1,10.1c-0.9,0-1.7-0.3-2.3-1c-0.6-0.6-0.9-1.4-0.9-2.3s0.3-1.7,0.9-2.3s1.4-0.9,2.3-0.9
	s1.6,0.3,2.3,0.9c0.6,0.6,1,1.4,1,2.3s-0.3,1.6-1,2.3C30.7,9.7,30,10.1,29.1,10.1z"/>
</svg>
