<?xml version="1.0" encoding="utf-8"?>
<!-- Generator: Adobe Illustrator 26.3.1, SVG Export Plug-In . SVG Version: 6.00 Build 0)  -->
<svg version="1.1" id="Слой_1" xmlns="http://www.w3.org/2000/svg" xmlns:xlink="http://www.w3.org/1999/xlink" x="0px" y="0px"
	 viewBox="0 0 48 48" style="enable-background:new 0 0 48 48;" xml:space="preserve">
<path d="M31.9,15.2c-0.6,0-1.2-0.2-1.6-0.7c-0.4-0.4-0.7-1-0.7-1.6s0.2-1.2,0.7-1.6c0.4-0.4,1-0.7,1.6-0.7s1.2,0.2,1.6,0.7
	c0.4,0.4,0.7,1,0.7,1.6s-0.2,1.2-0.7,1.6C33,15,32.5,15.2,31.9,15.2z M40,15.5c-0.8,0-1.4-0.3-2-0.8c-0.5-0.5-0.8-1.2-0.8-2
	s0.3-1.4,0.8-2c0.5-0.5,1.2-0.8,2-0.8s1.4,0.3,2,0.8c0.5,0.5,0.8,1.2,0.8,2s-0.3,1.4-0.8,2S40.8,15.5,40,15.5z M35,8
	c-0.5,0-0.9-0.2-1.3-0.5c-0.3-0.3-0.5-0.8-0.5-1.3s0.2-0.9,0.5-1.3C34,4.6,34.5,4.4,35,4.4s0.9,0.2,1.3,0.5c0.3,0.3,0.5,0.8,0.5,1.3
	s-0.2,0.9-0.5,1.3C35.9,7.8,35.5,8,35,8z M12.8,42c-1.9,0-3.5-0.6-4.8-1.7c-1.3-1.2-2-2.7-2-4.6v-9.9c0-0.8,0.2-1.6,0.6-2.3
	c0.4-0.7,0.9-1.3,1.6-1.8l16.1-10.4l0.2,0.2c0.4,0.4,0.6,0.9,0.7,1.4c0.1,0.6-0.1,1.1-0.3,1.6l-3.7,6.2h16.1c0.2,0,0.4,0.1,0.5,0.2
	s0.2,0.3,0.2,0.5s-0.1,0.4-0.2,0.5c-0.1,0.1-0.3,0.2-0.5,0.2H18.4l5.3-8.8L9.1,23.1c-0.5,0.3-0.9,0.7-1.1,1.1
	c-0.3,0.5-0.4,1-0.4,1.6v9.9c0,1.4,0.5,2.6,1.5,3.5s2.3,1.3,3.7,1.3h22.5c0.2,0,0.4,0.1,0.5,0.2c0.1,0.1,0.2,0.3,0.2,0.5
	s-0.1,0.4-0.2,0.5c-0.1,0.1-0.3,0.2-0.5,0.2C35.2,42,12.8,42,12.8,42z M26,28.9v-1.5h15.2c0.2,0,0.4,0.1,0.5,0.2s0.2,0.3,0.2,0.5
	s-0.1,0.4-0.2,0.5c-0.1,0.1-0.3,0.2-0.5,0.2C41.2,28.9,26,28.9,26,28.9z M26,35.5V34h13.2c0.2,0,0.4,0.1,0.5,0.2
	c0.1,0.1,0.2,0.3,0.2,0.5s-0.1,0.4-0.2,0.5c-0.1,0.1-0.3,0.2-0.5,0.2L26,35.5L26,35.5z"/>
</svg>
