<?xml version="1.0" encoding="utf-8"?>
<!-- Generator: Adobe Illustrator 26.3.1, SVG Export Plug-In . SVG Version: 6.00 Build 0)  -->
<svg version="1.1" id="Слой_1" xmlns="http://www.w3.org/2000/svg" xmlns:xlink="http://www.w3.org/1999/xlink" x="0px" y="0px"
	 viewBox="0 0 48 48" style="enable-background:new 0 0 48 48;" xml:space="preserve">
<path d="M24,40.5c2.6,0,4.9-0.9,6.7-2.8c1.8-1.8,2.8-4.1,2.8-6.7s-0.9-4.9-2.8-6.7c-1.8-1.8-4.1-2.8-6.7-2.8s-4.9,0.9-6.7,2.8
	c-1.8,1.8-2.8,4.1-2.8,6.7s0.9,4.9,2.8,6.7C19.1,39.5,21.4,40.5,24,40.5z M17.8,21.9c0.8-0.5,1.6-0.9,2.4-1.2
	c0.9-0.3,1.8-0.5,2.8-0.6l-4.8-9.4h-6.1C12.2,10.6,17.8,21.9,17.8,21.9z M30.2,21.9l5.7-11.3h-6.1l-4.3,8.6l0.5,1
	c0.8,0.1,1.5,0.4,2.2,0.6C28.9,21.1,29.5,21.5,30.2,21.9z M14.8,38.4c-0.1-0.3-0.1-0.6-0.1-1s0.1-0.8,0.2-1.2
	c-0.6-1.1-1-2.3-1.2-3.6s-0.2-2.5,0.1-3.8c0-1,0.2-1.9,0.5-2.8s0.8-1.7,1.4-2.4c-0.7,0.1-1.3,0.3-1.8,0.6c-0.5,0.4-0.9,0.8-1,1.4
	c-1.5,0.6-2.6,1.6-3.2,3c-0.7,1.5-0.7,3-0.2,4.5c0,1.5,0.5,2.8,1.6,3.8C12.1,37.9,13.4,38.4,14.8,38.4z M33.2,38.4
	c2,0,3.8-0.8,5.2-2.2s2.1-3.2,2.1-5.2c0-2.1-0.7-3.8-2.1-5.2c-1.4-1.4-3.1-2.2-5.2-2.2c-0.2,0-0.3,0-0.5,0s-0.3,0-0.5,0
	c0.9,1,1.5,2.2,2,3.4c0.5,1.2,0.7,2.6,0.7,4s-0.2,2.8-0.7,4s-1.2,2.4-2,3.4c0.2,0,0.3,0,0.5,0.1C32.9,38.4,33,38.4,33.2,38.4z
	 M24,42c-1.3,0-2.5-0.2-3.6-0.6c-1.1-0.4-2.2-1-3.1-1.7c-0.4,0.1-0.7,0.2-1.1,0.2S15.4,40,15,40c-2.5,0-4.6-0.9-6.3-2.6
	C6.9,35.6,6,33.5,6,31c0-2.4,0.9-4.5,2.6-6.3c1.7-1.7,3.8-2.6,6.2-2.7c0.3,0,0.6,0,0.8,0.1c0.3,0,0.5,0.1,0.8,0.1L9.7,9.1h9.5
	l4.8,9.5l4.8-9.5h9.5l-6.5,13.1c0.2-0.1,0.5-0.1,0.7-0.1s0.5,0,0.8,0c2.4,0.1,4.5,1,6.2,2.7s2.5,3.8,2.5,6.3s-0.9,4.6-2.6,6.4
	C37.6,39.1,35.5,40,33,40c-0.4,0-0.8,0-1.2-0.1c-0.4,0-0.7-0.1-1.1-0.2c-0.9,0.7-2,1.3-3.1,1.7C26.5,41.8,25.3,42,24,42z M17.8,21.9
	l-5.6-11.3L17.8,21.9z M30.2,21.9l5.7-11.3L30.2,21.9z M20.9,35.6l1.2-3.9L19,29.5h3.9l1.2-4.1l1.2,4.1h3.9L26,31.7l1.2,3.9L24,33.2
	L20.9,35.6z"/>
</svg>
