<?xml version="1.0" encoding="utf-8"?>
<!-- Generator: Adobe Illustrator 26.3.1, SVG Export Plug-In . SVG Version: 6.00 Build 0)  -->
<svg version="1.1" id="Слой_1" xmlns="http://www.w3.org/2000/svg" xmlns:xlink="http://www.w3.org/1999/xlink" x="0px" y="0px"
	 viewBox="0 0 48 48" style="enable-background:new 0 0 48 48;" xml:space="preserve">
<path d="M6.4,41.9l3.2-16h28.7l3.2,16C41.5,41.9,6.4,41.9,6.4,41.9z M7.4,7.5V6h5.4v1.5H7.4z M8.4,40.4h14.9v-5.6H9.5L8.4,40.4z
	 M11.8,18.2l-1.1-1.1l3.8-3.8l1.1,1.1L11.8,18.2z M9.8,33.2h13.4v-5.7H10.9L9.8,33.2z M24,13.6c-2.1,0-3.9-0.7-5.3-2.2
	c-1.5-1.5-2.2-3.3-2.3-5.4h1.5c0,1.7,0.7,3.1,1.8,4.3c1.2,1.2,2.6,1.8,4.2,1.8c1.7,0,3.1-0.6,4.2-1.8c1.3-1.2,1.9-2.7,2-4.3h1.5
	c-0.1,2.1-0.8,3.9-2.3,5.4C27.9,12.8,26.1,13.6,24,13.6z M23.2,22.4V17h1.5v5.4H23.2z M24.8,40.4h14.8l-1.1-5.6H24.8V40.4z
	 M24.8,33.2h13.4L37,27.5H24.8V33.2z M36.3,18.2l-3.9-3.9l1.1-1.1l3.9,3.8C37.4,17.1,36.3,18.2,36.3,18.2z M35.2,7.5V6h5.4v1.5
	C40.6,7.5,35.2,7.5,35.2,7.5z"/>
</svg>
