<?xml version="1.0" encoding="utf-8"?>
<!-- Generator: Adobe Illustrator 26.3.1, SVG Export Plug-In . SVG Version: 6.00 Build 0)  -->
<svg version="1.1" id="Слой_1" xmlns="http://www.w3.org/2000/svg" xmlns:xlink="http://www.w3.org/1999/xlink" x="0px" y="0px"
	 viewBox="0 0 48 48" style="enable-background:new 0 0 48 48;" xml:space="preserve">
<path d="M21.2,32.2c-0.7,0-1.4-0.3-1.9-0.8s-0.8-1.2-0.8-1.9v-11c0-0.7,0.3-1.4,0.8-1.9s1.2-0.8,1.9-0.8h5.7c0.7,0,1.4,0.3,1.9,0.8
	s0.8,1.2,0.8,1.9v10.9c0,0.7-0.3,1.4-0.8,1.9s-1.2,0.8-1.9,0.8h-5.7V32.2z M4.5,32.2v-1.5H11c0.4,0,0.7-0.1,0.9-0.3
	c0.2-0.2,0.3-0.5,0.3-0.9V26c0-0.4-0.1-0.7-0.3-0.9c-0.2-0.2-0.5-0.3-0.9-0.3H7.3c-0.7,0-1.4-0.3-1.9-0.8s-0.8-1.2-0.8-1.9v-3.5
	c0-0.7,0.3-1.4,0.8-1.9s1.2-0.8,1.9-0.8h6.5v1.5H7.3c-0.4,0-0.7,0.1-0.9,0.3c-0.2,0.2-0.3,0.5-0.3,0.9V22c0,0.4,0.1,0.7,0.3,0.9
	c0.2,0.2,0.5,0.3,0.9,0.3H11c0.7,0,1.4,0.3,1.9,0.8s0.8,1.2,0.8,1.9v3.5c0,0.7-0.3,1.4-0.8,1.9s-1.2,0.8-1.9,0.8
	C11,32.2,4.5,32.2,4.5,32.2z M34.2,32.2v-1.5h6.5c0.4,0,0.7-0.1,0.9-0.3c0.2-0.2,0.3-0.5,0.3-0.9V26c0-0.4-0.1-0.7-0.3-0.9
	c-0.2-0.2-0.5-0.3-0.9-0.3H37c-0.7,0-1.4-0.3-1.9-0.8s-0.8-1.2-0.8-1.9v-3.5c0-0.7,0.3-1.4,0.8-1.9s1.2-0.8,1.9-0.8h6.5v1.5H37
	c-0.4,0-0.7,0.1-0.9,0.3c-0.2,0.2-0.3,0.5-0.3,0.9V22c0,0.4,0.1,0.7,0.3,0.9c0.2,0.2,0.5,0.3,0.9,0.3h3.7c0.7,0,1.4,0.3,1.9,0.8
	s0.8,1.2,0.8,1.9v3.5c0,0.7-0.3,1.4-0.8,1.9s-1.2,0.8-1.9,0.8C40.7,32.2,34.2,32.2,34.2,32.2z M21.2,30.7h5.7c0.4,0,0.7-0.1,0.9-0.3
	c0.2-0.2,0.3-0.5,0.3-0.9v-11c0-0.4-0.1-0.7-0.3-0.9c-0.2-0.2-0.5-0.3-0.9-0.3h-5.7c-0.4,0-0.7,0.1-0.9,0.3
	c-0.2,0.2-0.3,0.5-0.3,0.9v10.9c0,0.4,0.1,0.7,0.3,0.9C20.5,30.6,20.8,30.7,21.2,30.7z"/>
</svg>
