<?xml version="1.0" encoding="utf-8"?>
<!-- Generator: Adobe Illustrator 26.3.1, SVG Export Plug-In . SVG Version: 6.00 Build 0)  -->
<svg version="1.1" id="Слой_1" xmlns="http://www.w3.org/2000/svg" xmlns:xlink="http://www.w3.org/1999/xlink" x="0px" y="0px"
	 viewBox="0 0 48 48" style="enable-background:new 0 0 48 48;" xml:space="preserve">
<path d="M11.7,42V23.1h1.5v17.4h15.9v-9.9l4.9-4.9c1.1-1.1,1.9-2.3,2.5-3.7c0.6-1.4,0.8-2.8,0.8-4.3s-0.3-2.9-0.8-4.3
	c-0.6-1.4-1.4-2.6-2.4-3.6L32,7.6l-6.9,6.9h-7.5l-3.4,3.4l-1.1-1.1l3.9-3.9h7.5L32,5.4l3.2,3.2c1.2,1.2,2.1,2.6,2.7,4.2
	c0.6,1.6,0.9,3.2,1,4.9c0,1.7-0.4,3.3-1,4.9s-1.5,2.9-2.7,4.2l-4.5,4.4V42H11.7z M20.3,32.6l-9.5-9.5c-0.3-0.3-0.4-0.6-0.6-0.9
	c-0.1-0.4-0.2-0.7-0.2-1.1s0.1-0.7,0.2-1.1c0.1-0.3,0.3-0.6,0.6-0.9l3.4-3.4l5.3,5.3c0.8,0.8,1.5,1.8,1.9,2.9s0.6,2.2,0.6,3.3
	c0,0.9-0.1,1.9-0.4,2.8C21.3,30.9,20.9,31.8,20.3,32.6z"/>
</svg>
