<?xml version="1.0" encoding="utf-8"?>
<!-- Generator: Adobe Illustrator 26.3.1, SVG Export Plug-In . SVG Version: 6.00 Build 0)  -->
<svg version="1.1" id="Слой_1" xmlns="http://www.w3.org/2000/svg" xmlns:xlink="http://www.w3.org/1999/xlink" x="0px" y="0px"
	 viewBox="0 0 48 48" style="enable-background:new 0 0 48 48;" xml:space="preserve">
<path d="M5.5,40.3v-33l8.9-5.8l8.9,5.8v7.1h19.3v25.9C42.5,40.3,5.5,40.3,5.5,40.3z M7,38.8h6.6v-6.6H7V38.8z M7,30.6h6.6V24H7V30.6
	z M7,22.5h6.6v-6.6H7V22.5z M7,14.4h6.6V7.8H7V14.4z M15.1,14.4h6.6V7.8h-6.6V14.4z M15.1,38.8H41V15.9H15.1V38.8z M28,24.1v-1.5
	h6.9v1.5H28z M28,32.2v-1.5h6.9v1.5H28z M21.7,24.1v-1.5h1.5v1.5H21.7z M21.7,32.2v-1.5h1.5v1.5H21.7z"/>
</svg>
