<?xml version="1.0" encoding="utf-8"?>
<!-- Generator: Adobe Illustrator 26.3.1, SVG Export Plug-In . SVG Version: 6.00 Build 0)  -->
<svg version="1.1" id="Слой_1" xmlns="http://www.w3.org/2000/svg" xmlns:xlink="http://www.w3.org/1999/xlink" x="0px" y="0px"
	 viewBox="0 0 48 48" style="enable-background:new 0 0 48 48;" xml:space="preserve">
<path d="M24,42c-2.5,0-4.8-0.5-7-1.4s-4.1-2.2-5.7-3.8s-2.9-3.5-3.8-5.7C6.5,28.8,6,26.5,6,24s0.5-4.8,1.4-7s2.2-4.1,3.8-5.7
	s3.5-2.9,5.7-3.8C19.2,6.5,21.5,6,24,6s4.8,0.5,7,1.4s4.1,2.2,5.7,3.8c1.6,1.6,2.9,3.5,3.8,5.7c0.9,2.2,1.4,4.5,1.4,7
	s-0.5,4.8-1.4,7s-2.2,4.1-3.8,5.7s-3.5,2.9-5.7,3.8C28.8,41.5,26.5,42,24,42z M24,40.5L22.5,39c-0.2-0.2-0.4-0.4-0.5-0.7
	c-0.1-0.2-0.1-0.5-0.1-0.8V26.1c-1.1,0-2.1-0.4-2.9-1.2c-0.8-0.8-1.2-1.8-1.2-2.9v-2.1l-6.4-6.4c-1.2,1.5-2.2,3.1-2.9,4.8
	c-0.7,1.8-1,3.7-1,5.7c0,4.6,1.6,8.5,4.8,11.7S19.4,40.5,24,40.5z M26.1,40.4c4.1-0.5,7.5-2.3,10.3-5.4c2.8-3.1,4.1-6.7,4.1-10.9
	c0-4.6-1.6-8.4-4.8-11.6s-7.1-5-11.7-5c-1.5,0-3,0.2-4.3,0.6C18.3,8.5,17,9,15.8,9.8v4h7.3c0.6,0,1.2,0.1,1.8,0.4
	c0.6,0.3,1,0.7,1.4,1.2l2.9,3.6h3.1c0.6,0,1,0.2,1.4,0.6s0.6,0.9,0.6,1.4v2.2c0,0.3,0,0.6-0.1,0.9s-0.2,0.6-0.4,0.8l-7.7,11.6
	C26.1,36.3,26.1,40.4,26.1,40.4z"/>
</svg>
