<?xml version="1.0" encoding="utf-8"?>
<!-- Generator: Adobe Illustrator 26.3.1, SVG Export Plug-In . SVG Version: 6.00 Build 0)  -->
<svg version="1.1" id="Слой_1" xmlns="http://www.w3.org/2000/svg" xmlns:xlink="http://www.w3.org/1999/xlink" x="0px" y="0px"
	 viewBox="0 0 48 48" style="enable-background:new 0 0 48 48;" xml:space="preserve">
<path d="M24.7,41.9c-2.1-0.2-4.1-0.8-6.2-1.7c-2-0.9-3.9-2.1-5.6-3.8c-1.7-1.6-3.1-3.7-4.2-6.2S7,24.8,6.8,21.4l-0.1-1.6L8.2,20
	c1.4,0.1,3.2,0.5,5.2,1.2s3.7,1.6,5,2.7c0.1-2.6,0.7-5.3,1.7-8.1c1-2.9,2.3-5.3,3.9-7.2c1.6,2,2.9,4.4,3.9,7.3s1.6,5.6,1.7,8.2
	c1.2-0.9,2.8-1.8,4.8-2.7c2-0.8,3.7-1.3,5.3-1.3l1.6-0.1l-0.1,1.7c-0.1,2.7-0.5,5.1-1.3,7.3s-1.9,4-3.3,5.7s-3.1,3.1-5.1,4.3
	C29.6,40.3,27.3,41.2,24.7,41.9z M24.9,40.4c-0.4-5.8-2.1-10.3-5.1-13.3S13,22.2,8.4,21.5c0.4,6,2.2,10.5,5.3,13.5
	C16.9,38,20.6,39.8,24.9,40.4z M24,30.5c0.4-0.9,1-1.9,1.8-2.9s1.5-1.8,2.3-2.5c0.1-2.2-0.2-4.5-1-6.9s-1.8-4.7-3.1-7
	c-1.3,2.3-2.3,4.6-3.1,7c-0.8,2.4-1.1,4.6-1,6.9c0.8,0.7,1.5,1.5,2.2,2.5C22.9,28.7,23.5,29.6,24,30.5z M26.4,39.8
	c1.7-0.6,3.3-1.4,4.9-2.3c1.5-0.9,2.9-2.1,4.1-3.6c1.2-1.4,2.1-3.2,2.9-5.2s1.2-4.4,1.3-7.1c-3.4,0.5-6.5,1.7-9.2,3.7
	s-4.6,4.4-5.6,7.1c0.4,1.2,0.7,2.3,1,3.4C26.1,36.9,26.3,38.2,26.4,39.8z"/>
</svg>
