<?xml version="1.0" encoding="utf-8"?>
<!-- Generator: Adobe Illustrator 26.3.1, SVG Export Plug-In . SVG Version: 6.00 Build 0)  -->
<svg version="1.1" id="Слой_1" xmlns="http://www.w3.org/2000/svg" xmlns:xlink="http://www.w3.org/1999/xlink" x="0px" y="0px"
	 viewBox="0 0 48 48" style="enable-background:new 0 0 48 48;" xml:space="preserve">
<path d="M24,24c-1.6,0-3-0.5-4.1-1.6s-1.6-2.5-1.6-4.1c0-1.7,0.5-3,1.6-4.1s2.5-1.6,4.1-1.6s3,0.5,4.1,1.6s1.6,2.5,1.6,4.1
	c0,1.7-0.5,3-1.6,4.1C27,23.4,25.6,24,24,24z M10,38.5v-2.9c0-1,0.2-1.8,0.7-2.4s1.2-1.2,2-1.6c1.6-0.8,3.5-1.4,5.5-1.9
	c2.1-0.5,4-0.7,5.7-0.7s3.6,0.2,5.7,0.7s3.9,1.1,5.6,1.9c0.8,0.4,1.5,0.9,2,1.6c0.5,0.6,0.7,1.4,0.7,2.4v2.9
	C38,38.5,10,38.5,10,38.5z M11.5,36.9h24.9v-1.4c0-0.6-0.2-1.1-0.5-1.6c-0.4-0.4-0.8-0.8-1.4-1.1c-1.4-0.8-3.1-1.4-5.1-1.8
	s-3.8-0.7-5.5-0.7s-3.5,0.2-5.5,0.7c-2,0.4-3.7,1-5.1,1.8c-0.5,0.3-1,0.6-1.4,1.1c-0.4,0.4-0.5,1-0.5,1.6
	C11.5,35.6,11.5,36.9,11.5,36.9z M24,22.4c1.2,0,2.2-0.4,3-1.2c0.8-0.8,1.2-1.8,1.2-3s-0.4-2.2-1.2-3c-0.8-0.8-1.8-1.2-3-1.2
	s-2.2,0.4-3,1.2s-1.2,1.8-1.2,3s0.4,2.2,1.2,3C21.8,22,22.8,22.4,24,22.4z M2,10.8V9.3c1,0,2-0.2,2.8-0.6c0.9-0.4,1.6-0.9,2.3-1.6
	s1.2-1.5,1.6-2.3C9,3.9,9.2,3,9.2,2h1.5c0,1.2-0.2,2.4-0.7,3.5c-0.4,1-1,1.9-1.8,2.7C7.3,9,6.4,9.7,5.3,10.1
	C4.3,10.6,3.2,10.8,2,10.8z M2,17.1v-1.5c1.9,0,3.6-0.4,5.3-1.1c1.6-0.7,3-1.7,4.3-2.9c1.2-1.2,2.2-2.7,2.9-4.3s1.1-3.4,1.1-5.3h1.6
	c0,2.1-0.4,4-1.2,5.9c-0.8,1.8-1.9,3.4-3.2,4.8c-1.4,1.4-3,2.4-4.8,3.2C6,16.7,4.1,17.1,2,17.1z M46,17.1c-2.1,0-4-0.4-5.9-1.2
	c-1.8-0.8-3.4-1.9-4.8-3.2c-1.4-1.4-2.4-3-3.2-4.8C31.3,6,30.9,4.1,30.9,2h1.5c0,1.9,0.4,3.7,1.1,5.3c0.7,1.6,1.7,3.1,2.9,4.3
	s2.7,2.2,4.3,2.9s3.4,1.1,5.2,1.1C46,15.5,46,17.1,46,17.1z M46,10.8c-1.2,0-2.4-0.2-3.4-0.7c-1.1-0.5-2-1.1-2.8-1.9
	c-0.8-0.8-1.4-1.8-1.9-2.8c-0.5-1.1-0.7-2.2-0.7-3.4h1.5c0,1,0.2,1.9,0.6,2.8c0.4,0.9,0.9,1.7,1.6,2.3c0.7,0.7,1.4,1.2,2.3,1.6
	C44.1,9.1,45,9.3,46,9.3V10.8z"/>
</svg>
