<?xml version="1.0" encoding="utf-8"?>
<!-- Generator: Adobe Illustrator 26.3.1, SVG Export Plug-In . SVG Version: 6.00 Build 0)  -->
<svg version="1.1" id="Слой_1" xmlns="http://www.w3.org/2000/svg" xmlns:xlink="http://www.w3.org/1999/xlink" x="0px" y="0px"
	 viewBox="0 0 48 48" style="enable-background:new 0 0 48 48;" xml:space="preserve">
<path d="M17.3,42c-3.7,0-6.8-1.2-9.4-3.7S4,32.7,4,29h1.5c0,3.2,1.2,5.9,3.5,8.1c2.3,2.2,5.1,3.3,8.3,3.3V42z M17.3,35.5
	c-1.9,0-3.5-0.6-4.8-1.9s-2-2.8-2-4.6H12c0,1.4,0.5,2.6,1.5,3.5s2.3,1.4,3.7,1.4v1.6H17.3z M19.9,29.4c-0.8,0-1.4-0.3-2-0.8
	c-0.5-0.5-0.8-1.2-0.8-2V10.8c0-0.8,0.3-1.4,0.8-2c0.5-0.5,1.2-0.8,2-0.8h8.3c0.8,0,1.4,0.3,2,0.8c0.5,0.5,0.8,1.2,0.8,2v15.9
	c0,0.8-0.3,1.4-0.8,2c-0.5,0.5-1.2,0.8-2,0.8C28.2,29.4,19.9,29.4,19.9,29.4z M19.9,27.9h8.3c0.4,0,0.7-0.1,0.9-0.3
	c0.2-0.2,0.3-0.5,0.3-0.9V10.8c0-0.4-0.1-0.7-0.3-0.9c-0.2-0.2-0.5-0.3-0.9-0.3h-8.3c-0.3,0-0.6,0.1-0.9,0.3
	c-0.2,0.2-0.4,0.5-0.4,0.9v15.9c0,0.4,0.1,0.7,0.4,0.9C19.2,27.7,19.5,27.9,19.9,27.9z M30.7,35.5V34c1.4,0,2.7-0.5,3.7-1.4
	c1-0.9,1.6-2.1,1.6-3.5h1.5c0,1.8-0.7,3.4-2,4.6C34.2,34.8,32.6,35.5,30.7,35.5z M30.7,42v-1.5c3.2,0,6-1.1,8.3-3.3s3.5-4.9,3.5-8.1
	H44c0,3.7-1.3,6.7-3.9,9.2C37.5,40.7,34.3,42,30.7,42z M19.9,27.9h-1.2h10.8H19.9z"/>
</svg>
