<?xml version="1.0" encoding="utf-8"?>
<!-- Generator: Adobe Illustrator 26.3.1, SVG Export Plug-In . SVG Version: 6.00 Build 0)  -->
<svg version="1.1" id="Слой_1" xmlns="http://www.w3.org/2000/svg" xmlns:xlink="http://www.w3.org/1999/xlink" x="0px" y="0px"
	 viewBox="0 0 48 48" style="enable-background:new 0 0 48 48;" xml:space="preserve">
<path d="M33.2,42H14.8c-0.7,0-1.4-0.3-1.9-0.8c-0.6-0.6-0.9-1.2-0.9-2V8.8c0-0.7,0.3-1.4,0.8-1.9C13.4,6.3,14,6,14.8,6h18.5
	c0.7,0,1.4,0.3,1.9,0.8C35.7,7.4,36,8,36,8.8v30.5c0,0.7-0.3,1.4-0.8,1.9C34.6,41.7,34,42,33.2,42z M33.2,40.5
	c0.4,0,0.7-0.1,0.9-0.3s0.3-0.5,0.3-0.9V8.8c0-0.4-0.1-0.7-0.3-0.9c-0.2-0.2-0.5-0.3-0.9-0.3H14.8c-0.4,0-0.7,0.1-0.9,0.3
	s-0.3,0.5-0.3,0.9v30.5c0,0.4,0.1,0.7,0.3,0.9s0.5,0.3,0.9,0.3H33.2z M24,17.1c0.9,0,1.6-0.3,2.2-0.9s0.9-1.4,0.9-2.2
	c0-0.9-0.3-1.6-0.9-2.2c-0.6-0.6-1.4-0.9-2.2-0.9c-0.9,0-1.6,0.3-2.2,0.9c-0.6,0.6-0.9,1.4-0.9,2.2c0,0.9,0.3,1.6,0.9,2.2
	C22.4,16.8,23.2,17.1,24,17.1z M24,37c2,0,3.6-0.7,5-2c1.4-1.4,2-3,2-5s-0.7-3.6-2-5c-1.4-1.4-3-2-5-2s-3.6,0.7-5,2
	c-1.4,1.4-2,3-2,5s0.7,3.6,2,5C20.4,36.3,22,37,24,37z M24,35.5c-1.5,0-2.8-0.5-3.9-1.6s-1.6-2.4-1.6-3.9s0.5-2.8,1.6-3.9
	s2.4-1.6,3.9-1.6s2.8,0.5,3.9,1.6s1.6,2.4,1.6,3.9s-0.5,2.8-1.6,3.9C26.8,34.9,25.5,35.5,24,35.5z M13.5,7.5v32.9V7.5z"/>
</svg>
