<?xml version="1.0" encoding="utf-8"?>
<!-- Generator: Adobe Illustrator 26.3.1, SVG Export Plug-In . SVG Version: 6.00 Build 0)  -->
<svg version="1.1" id="Слой_1" xmlns="http://www.w3.org/2000/svg" xmlns:xlink="http://www.w3.org/1999/xlink" x="0px" y="0px"
	 viewBox="0 0 48 48" style="enable-background:new 0 0 48 48;" xml:space="preserve">
<path d="M14.3,27.1c0.4,0,0.8-0.1,1.1-0.4s0.4-0.7,0.4-1.1s-0.1-0.8-0.4-1.1c-0.3-0.3-0.7-0.5-1.1-0.5s-0.8,0.2-1.1,0.5
	s-0.5,0.7-0.5,1.1s0.2,0.8,0.5,1.1C13.5,26.9,13.9,27.1,14.3,27.1z M14.3,21.5c0.4,0,0.8-0.1,1.1-0.4s0.4-0.7,0.4-1.1
	s-0.1-0.8-0.4-1.1c-0.3-0.3-0.7-0.5-1.1-0.5s-0.8,0.2-1.1,0.5s-0.5,0.7-0.5,1.1s0.2,0.8,0.5,1.1C13.5,21.4,13.9,21.6,14.3,21.5z
	 M14.3,16c0.4,0,0.8-0.1,1.1-0.4c0.3-0.3,0.4-0.7,0.4-1.1c0-0.4-0.1-0.8-0.4-1.1c-0.3-0.3-0.7-0.5-1.1-0.5s-0.8,0.2-1.1,0.5
	s-0.5,0.7-0.5,1.1c0,0.4,0.2,0.8,0.5,1.1C13.5,15.9,13.9,16,14.3,16z M20.5,26.3H29v-1.5h-8.5V26.3z M20.5,20.8H35v-1.5H20.5
	C20.5,19.2,20.5,20.8,20.5,20.8z M20.5,15.2H35v-1.5H20.5V15.2z M6,40.2V8.8c0-0.8,0.3-1.4,0.8-2C7.3,6.3,8,6,8.8,6h30.5
	c0.8,0,1.4,0.3,2,0.8C41.7,7.3,42,8,42,8.8v22.5c0,0.8-0.3,1.4-0.8,2c-0.5,0.5-1.2,0.8-2,0.8h-27L6,40.2z M11.5,32.5h27.8
	c0.3,0,0.6-0.1,0.8-0.4c0.3-0.3,0.4-0.5,0.4-0.8V8.8c0-0.3-0.1-0.6-0.4-0.8c-0.3-0.3-0.5-0.4-0.8-0.4H8.8C8.5,7.6,8.2,7.7,8,8
	C7.7,8.2,7.5,8.5,7.5,8.8v27.8C7.5,36.5,11.5,32.5,11.5,32.5z M7.5,32.5v-25V32.5z"/>
</svg>
