<?xml version="1.0" encoding="utf-8"?>
<!-- Generator: Adobe Illustrator 26.3.1, SVG Export Plug-In . SVG Version: 6.00 Build 0)  -->
<svg version="1.1" id="Слой_1" xmlns="http://www.w3.org/2000/svg" xmlns:xlink="http://www.w3.org/1999/xlink" x="0px" y="0px"
	 viewBox="0 0 48 48" style="enable-background:new 0 0 48 48;" xml:space="preserve">
<path d="M14.2,27.5c-0.4,0-0.8-0.1-1.1-0.4s-0.5-0.7-0.5-1.1s0.2-0.8,0.5-1.1c0.3-0.3,0.7-0.4,1.1-0.4s0.8,0.1,1.1,0.4
	s0.5,0.7,0.5,1.1s-0.2,0.8-0.5,1.1C14.9,27.3,14.6,27.5,14.2,27.5z M39.2,34.1l-1.3-1.6h1.4c0.4,0,0.7-0.1,0.9-0.3s0.3-0.5,0.3-0.9
	V8.8c0-0.4-0.1-0.7-0.3-0.9c-0.2-0.2-0.5-0.3-0.9-0.3H12.9L11.3,6h27.9c0.8,0,1.4,0.3,2,0.8C41.7,7.3,42,8,42,8.8v22.5
	c0,0.8-0.3,1.5-0.8,2C40.7,33.7,40,34,39.2,34.1z M26,20.7l-1.5-1.5h10.7v1.5H26z M41.5,43.4L32.1,34h-20L6,40.2V7.9L2.6,4.6
	l1.1-1.1l38.8,38.8C42.6,42.3,41.5,43.4,41.5,43.4z M14.2,21.5c-0.4,0-0.8-0.1-1.1-0.4s-0.5-0.7-0.5-1.1s0.2-0.8,0.5-1.1
	c0.3-0.3,0.7-0.4,1.1-0.4s0.8,0.1,1.1,0.4s0.5,0.7,0.5,1.1s-0.2,0.8-0.5,1.1C14.9,21.3,14.6,21.5,14.2,21.5z M20,14.7l-0.6-0.6v-1
	h15.7v1.5H20V14.7z M7.5,9.4v27.1l3.9-4.1h19.1L7.5,9.4z"/>
</svg>
