<?xml version="1.0" encoding="utf-8"?>
<!-- Generator: Adobe Illustrator 26.3.1, SVG Export Plug-In . SVG Version: 6.00 Build 0)  -->
<svg version="1.1" id="Слой_1" xmlns="http://www.w3.org/2000/svg" xmlns:xlink="http://www.w3.org/1999/xlink" x="0px" y="0px"
	 viewBox="0 0 48 48" style="enable-background:new 0 0 48 48;" xml:space="preserve">
<path d="M14.7,42c-0.7,0-1.4-0.2-1.9-0.7s-0.8-1-0.9-1.8L8.2,6h31.5L36,39.5c-0.1,0.7-0.4,1.3-0.9,1.8C34.7,41.8,34,42,33.3,42H14.7
	z M11,17.2h8.2c0.6-0.6,1.3-1.1,2.2-1.5c0.8-0.4,1.7-0.5,2.6-0.5s1.8,0.2,2.6,0.5c0.8,0.3,1.6,0.8,2.2,1.5H37l1-9.7H9.9L11,17.2z
	 M24,27.2c1.4,0,2.7-0.5,3.7-1.5s1.5-2.3,1.5-3.7c0-1.4-0.5-2.7-1.5-3.7s-2.3-1.5-3.7-1.5c-1.4,0-2.7,0.5-3.7,1.5s-1.5,2.3-1.5,3.7
	c0,1.4,0.5,2.7,1.5,3.7S22.6,27.2,24,27.2z M11.2,18.8l2.3,20.6c0,0.3,0.2,0.6,0.4,0.8s0.5,0.3,0.8,0.3h18.6c0.3,0,0.6-0.1,0.8-0.3
	s0.4-0.5,0.4-0.8l2.3-20.6H30c0.3,0.5,0.5,1,0.6,1.5s0.2,1.1,0.2,1.7c0,1.9-0.7,3.5-2,4.8c-1.3,1.3-2.9,2-4.8,2s-3.5-0.7-4.8-2
	s-2-2.9-2-4.8c0-0.6,0.1-1.2,0.2-1.7s0.3-1.1,0.6-1.5C18,18.8,11.2,18.8,11.2,18.8z M14.7,40.5H18h-0.8h13.5H30h3.3H14.7z"/>
</svg>
