<?xml version="1.0" encoding="utf-8"?>
<!-- Generator: Adobe Illustrator 26.3.1, SVG Export Plug-In . SVG Version: 6.00 Build 0)  -->
<svg version="1.1" id="Слой_1" xmlns="http://www.w3.org/2000/svg" xmlns:xlink="http://www.w3.org/1999/xlink" x="0px" y="0px"
	 viewBox="0 0 48 48" style="enable-background:new 0 0 48 48;" xml:space="preserve">
<path d="M21.3,30.7c0.6,0.6,1.4,0.9,2.5,0.8s1.8-0.5,2.3-1.2l10.3-14.7L21.7,26c-0.7,0.5-1.1,1.3-1.2,2.3S20.7,30.1,21.3,30.7z
	 M23.9,10c1.8,0,3.5,0.2,5.2,0.7c1.6,0.5,3.3,1.3,4.9,2.4l-1.3,1c-1.3-0.9-2.8-1.5-4.3-1.9s-3-0.6-4.5-0.6c-4.6,0-8.4,1.6-11.6,4.8
	s-4.8,7.1-4.8,11.7c0,1.4,0.2,2.9,0.6,4.3c0.4,1.4,1,2.8,1.7,4H38c0.8-1.2,1.3-2.6,1.7-4.1s0.6-3,0.6-4.4c0-1.3-0.2-2.7-0.6-4.3
	c-0.4-1.6-1-3-1.9-4.2l1-1.3c1.1,1.8,1.9,3.5,2.3,5c0.4,1.5,0.6,3.1,0.7,4.7c0,1.7-0.2,3.4-0.6,4.9c-0.4,1.5-1,3-1.8,4.5
	c-0.2,0.3-0.4,0.5-0.6,0.7c-0.1,0-0.5,0.1-0.8,0.1H9.9c-0.3,0-0.6-0.1-0.9-0.3c-0.3-0.2-0.5-0.4-0.7-0.7c-0.7-1.2-1.2-2.5-1.7-4
	C6.2,31.6,6,30,6,28.1c0-2.5,0.5-4.8,1.4-7s2.2-4.1,3.8-5.7s3.5-2.9,5.7-3.9S21.4,10,23.9,10z"/>
</svg>
