<?xml version="1.0" encoding="utf-8"?>
<!-- Generator: Adobe Illustrator 26.3.1, SVG Export Plug-In . SVG Version: 6.00 Build 0)  -->
<svg version="1.1" id="Слой_1" xmlns="http://www.w3.org/2000/svg" xmlns:xlink="http://www.w3.org/1999/xlink" x="0px" y="0px"
	 viewBox="0 0 48 48" style="enable-background:new 0 0 48 48;" xml:space="preserve">
<path d="M8,33.1v-1.5h1.5v1.5H8z M27,33l5.5-9.5l-5-8.5h1.9l4,7l4-7h1.8l-4.8,8.4L40,33h-1.9l-4.7-8l-4.7,8C28.8,33,27,33,27,33z
	 M13,33.1v-1.5h7c0.4,0,0.7-0.1,0.9-0.4c0.2-0.2,0.3-0.5,0.3-0.9v-4.4c0-0.3-0.1-0.6-0.3-0.9c-0.2-0.2-0.5-0.4-0.9-0.4h-7v-9.8h9.8
	v1.5h-8.2V23H20c0.8,0,1.4,0.3,2,0.8c0.5,0.5,0.8,1.2,0.8,2v4.4c0,0.8-0.3,1.4-0.8,2c-0.5,0.5-1.2,0.8-2,0.8
	C20,33.1,13,33.1,13,33.1z"/>
</svg>
