<?xml version="1.0" encoding="utf-8"?>
<!-- Generator: Adobe Illustrator 26.3.1, SVG Export Plug-In . SVG Version: 6.00 Build 0)  -->
<svg version="1.1" id="Слой_1" xmlns="http://www.w3.org/2000/svg" xmlns:xlink="http://www.w3.org/1999/xlink" x="0px" y="0px"
	 viewBox="0 0 48 48" style="enable-background:new 0 0 48 48;" xml:space="preserve">
<path d="M13.4,33.1v-1.5h1.5v1.5H13.4z M8.5,33.1V16.5H4.8V15H10v18.1C10.1,33.1,8.5,33.1,8.5,33.1z M31.1,33l5.5-9.5L31.7,15h1.9
	l4,7l4-7h1.8l-4.8,8.4l5.5,9.6h-1.9l-4.7-8l-4.7,8H31.1z M18.2,33.1v-1.5h7c0.4,0,0.7-0.1,0.9-0.4c0.2-0.2,0.3-0.5,0.3-0.9v-4.4
	c0-0.3-0.1-0.6-0.3-0.9c-0.2-0.2-0.5-0.4-0.9-0.4h-7v-9.8h9.7v1.5h-8.2V23h5.4c0.8,0,1.4,0.3,2,0.8c0.5,0.5,0.8,1.2,0.8,2v4.4
	c0,0.8-0.3,1.4-0.8,2c-0.5,0.5-1.2,0.8-2,0.8C25.1,33.1,18.2,33.1,18.2,33.1z"/>
</svg>
