<?xml version="1.0" encoding="utf-8"?>
<!-- Generator: Adobe Illustrator 26.3.1, SVG Export Plug-In . SVG Version: 6.00 Build 0)  -->
<svg version="1.1" id="Слой_1" xmlns="http://www.w3.org/2000/svg" xmlns:xlink="http://www.w3.org/1999/xlink" x="0px" y="0px"
	 viewBox="0 0 48 48" style="enable-background:new 0 0 48 48;" xml:space="preserve">
<path d="M27,33l5.5-9.5l-5-8.5h1.9l4,7l4-7h1.8l-4.8,8.4L40,33h-1.9l-4.7-8l-4.7,8C28.8,33,27,33,27,33z M10,33.1v-1.5h1.5v1.5H10z
	 M16.1,33.1l4.3-16.6h-8.2V15h8.1c0.4,0,0.8,0.1,1.1,0.4c0.3,0.3,0.5,0.6,0.5,1s0,0.6-0.1,0.8l-4.2,15.9
	C17.8,33.1,16.1,33.1,16.1,33.1z"/>
</svg>
