<?xml version="1.0" encoding="utf-8"?>
<!-- Generator: Adobe Illustrator 26.3.1, SVG Export Plug-In . SVG Version: 6.00 Build 0)  -->
<svg version="1.1" id="Слой_1" xmlns="http://www.w3.org/2000/svg" xmlns:xlink="http://www.w3.org/1999/xlink" x="0px" y="0px"
	 viewBox="0 0 48 48" style="enable-background:new 0 0 48 48;" xml:space="preserve">
<path d="M10,33.1v-1.5h1.5v1.5H10z M28.2,33.1v-1.5h7c0.4,0,0.7-0.1,0.9-0.4c0.2-0.2,0.3-0.5,0.3-0.9v-4.4c0-0.3-0.1-0.6-0.3-0.9
	c-0.2-0.2-0.5-0.4-0.9-0.4h-7v-9.8H38v1.5h-8.2V23h5.5c0.8,0,1.4,0.3,2,0.8c0.5,0.5,0.8,1.2,0.8,2v4.4c0,0.8-0.3,1.4-0.8,2
	c-0.5,0.5-1.2,0.8-2,0.8h-7.1V33.1z M15,33.1V26c0-0.8,0.3-1.4,0.8-2c0.5-0.5,1.2-0.8,2-0.8H22c0.4,0,0.7-0.1,0.9-0.3
	c0.2-0.2,0.3-0.5,0.3-0.9v-4.2c0-0.3-0.1-0.6-0.3-0.9c-0.2-0.2-0.5-0.4-0.9-0.4h-7V15h7c0.8,0,1.4,0.3,2,0.8c0.5,0.5,0.8,1.2,0.8,2
	V22c0,0.8-0.3,1.4-0.8,2c-0.5,0.5-1.2,0.8-2,0.8h-4.2c-0.4,0-0.7,0.1-0.9,0.4c-0.2,0.2-0.3,0.5-0.3,0.9v5.6h8.2v1.5L15,33.1L15,33.1
	z"/>
</svg>
