<?xml version="1.0" encoding="utf-8"?>
<!-- Generator: Adobe Illustrator 26.3.1, SVG Export Plug-In . SVG Version: 6.00 Build 0)  -->
<svg version="1.1" id="Слой_1" xmlns="http://www.w3.org/2000/svg" xmlns:xlink="http://www.w3.org/1999/xlink" x="0px" y="0px"
	 viewBox="0 0 48 48" style="enable-background:new 0 0 48 48;" xml:space="preserve">
<path d="M13.4,33.1v-1.5h1.5v1.5H13.4z M8.5,33.1V16.5H4.8V15H10v18.1C10.1,33.1,8.5,33.1,8.5,33.1z M30.1,33l5.5-9.5L30.7,15h1.9
	l4,7l4-7h1.8l-4.8,8.4l5.5,9.6h-1.9l-4.7-8l-4.7,8H30.1z M20.6,33.1l4.3-16.6h-8.2V15h8.1c0.4,0,0.8,0.1,1.2,0.4
	c0.3,0.3,0.5,0.6,0.5,1s0,0.6-0.1,0.8l-4.1,15.9C22.2,33.1,20.6,33.1,20.6,33.1z"/>
</svg>
