<?xml version="1.0" encoding="utf-8"?>
<!-- Generator: Adobe Illustrator 26.3.1, SVG Export Plug-In . SVG Version: 6.00 Build 0)  -->
<svg version="1.1" id="Слой_1" xmlns="http://www.w3.org/2000/svg" xmlns:xlink="http://www.w3.org/1999/xlink" x="0px" y="0px"
	 viewBox="0 0 48 48" style="enable-background:new 0 0 48 48;" xml:space="preserve">
<path d="M10.8,21c-0.8,0-1.4-0.3-2-0.8C8.3,19.6,8,19,8,18.2v-7.4c0-0.8,0.3-1.4,0.8-2C9.3,8.3,10,8,10.8,8h26.5
	c0.8,0,1.4,0.3,2,0.8c0.5,0.5,0.8,1.2,0.8,2v7.4c0,0.8-0.3,1.4-0.8,2c-0.5,0.5-1.2,0.8-2,0.8H10.8z M10.8,19.4h26.5
	c0.4,0,0.7-0.1,0.9-0.3c0.2-0.2,0.3-0.5,0.3-0.9v-7.4c0-0.4-0.1-0.7-0.3-0.9s-0.5-0.3-0.9-0.3H10.8c-0.4,0-0.7,0.1-0.9,0.3
	s-0.3,0.5-0.3,0.9v7.4c0,0.4,0.1,0.7,0.3,0.9S10.4,19.4,10.8,19.4z M10.8,40c-0.8,0-1.4-0.3-2-0.8C8.3,38.7,8,38,8,37.2v-7.4
	c0-0.8,0.3-1.4,0.8-2c0.5-0.5,1.2-0.8,2-0.8h26.5c0.8,0,1.4,0.3,2,0.8c0.5,0.5,0.8,1.2,0.8,2v7.4c0,0.8-0.3,1.4-0.8,2
	c-0.5,0.5-1.2,0.8-2,0.8C37.2,40,10.8,40,10.8,40z M10.8,38.5h26.5c0.4,0,0.7-0.1,0.9-0.3s0.3-0.5,0.3-0.9v-7.4
	c0-0.4-0.1-0.7-0.3-0.9c-0.2-0.2-0.5-0.3-0.9-0.3H10.8c-0.4,0-0.7,0.1-0.9,0.3c-0.2,0.2-0.3,0.5-0.3,0.9v7.4c0,0.4,0.1,0.7,0.3,0.9
	C10.1,38.3,10.4,38.5,10.8,38.5z M9.5,19.4V9.5V19.4z M9.5,38.5v-9.9V38.5z"/>
</svg>
