<?xml version="1.0" encoding="utf-8"?>
<!-- Generator: Adobe Illustrator 26.3.1, SVG Export Plug-In . SVG Version: 6.00 Build 0)  -->
<svg version="1.1" id="Слой_1" xmlns="http://www.w3.org/2000/svg" xmlns:xlink="http://www.w3.org/1999/xlink" x="0px" y="0px"
	 viewBox="0 0 48 48" style="enable-background:new 0 0 48 48;" xml:space="preserve">
<path d="M38.5,9.5h-9.2l0,0h-0.7H38.5z M27.1,10.8c0-0.8,0.3-1.4,0.8-2c0.5-0.5,1.2-0.8,2-0.8h7.4c0.8,0,1.4,0.3,2,0.8
	c0.5,0.5,0.8,1.2,0.8,2v18.5h-1.5V10.8c0-0.4-0.1-0.7-0.3-0.9s-0.5-0.3-0.9-0.3H30c-0.4,0-0.7,0.1-0.9,0.3c-0.2,0.2-0.3,0.5-0.3,0.9
	v28.9c-0.5-0.2-0.8-0.5-1.1-1c-0.3-0.4-0.4-0.9-0.4-1.5C27.1,37.2,27.1,10.8,27.1,10.8z M10.8,40c-0.8,0-1.4-0.3-2-0.8
	C8.3,38.7,8,38,8,37.2V10.8c0-0.8,0.3-1.4,0.8-2C9.3,8.3,10,8,10.8,8h7.4c0.8,0,1.4,0.3,2,0.8c0.5,0.5,0.8,1.2,0.8,2v26.5
	c0,0.8-0.3,1.4-0.8,2c-0.5,0.5-1.2,0.8-2,0.8L10.8,40L10.8,40z M19.4,10.8c0-0.4-0.1-0.7-0.3-0.9c-0.2-0.2-0.5-0.3-0.9-0.3h-7.4
	c-0.4,0-0.7,0.1-0.9,0.3s-0.3,0.5-0.3,0.9v26.5c0,0.4,0.1,0.7,0.3,0.9s0.5,0.3,0.9,0.3h7.4c0.4,0,0.7-0.1,0.9-0.3
	c0.2-0.2,0.3-0.5,0.3-0.9V10.8z M19.4,9.5H9.5H19.4z M38.5,44.5V40H34v-1.5h4.5V34H40v4.5h4.5V40H40v4.5H38.5z"/>
</svg>
