<?xml version="1.0" encoding="utf-8"?>
<!-- Generator: Adobe Illustrator 26.3.1, SVG Export Plug-In . SVG Version: 6.00 Build 0)  -->
<svg version="1.1" id="Слой_1" xmlns="http://www.w3.org/2000/svg" xmlns:xlink="http://www.w3.org/1999/xlink" x="0px" y="0px"
	 viewBox="0 0 48 48" style="enable-background:new 0 0 48 48;" xml:space="preserve">
<path d="M25.3,37.9c-0.4,0-0.7-0.1-1-0.4s-0.4-0.6-0.4-1v-7.7c0-0.4,0.1-0.7,0.4-1s0.6-0.4,1-0.4H30c0.4,0,0.7,0.1,1,0.4
	s0.4,0.6,0.4,1v7.7c0,0.4-0.1,0.7-0.4,1s-0.6,0.4-1,0.4H25.3z M25.4,36.4h4.5v-7.5h-4.5C25.4,28.9,25.4,36.4,25.4,36.4z M34.4,43.4
	v-4.7c0-0.4,0.1-0.8,0.4-1c0.3-0.3,0.6-0.4,1-0.4h5v-3.2h-6.4v-1.5h6.5c0.4,0,0.7,0.1,1,0.4c0.3,0.3,0.4,0.6,0.4,1v3.3
	c0,0.4-0.1,0.8-0.4,1c-0.3,0.3-0.6,0.4-1,0.4h-5v3.2h6.4v1.5C42.2,43.4,34.4,43.4,34.4,43.4z M19.3,42c-3.9-0.2-7-1.6-9.5-4.3
	S6,31.6,6,27.6c0-2.9,1.2-6,3.5-9.5S15.3,10.8,20,6.6c3.4,3,6.1,5.8,8.3,8.6s3.7,5.3,4.6,7.6h-1.6c-0.9-2-2.3-4.2-4.2-6.6
	s-4.3-4.9-7.2-7.4c-4.1,3.7-7.2,7.1-9.3,10.3s-3.2,6.1-3.2,8.6c0,3.6,1.1,6.5,3.3,8.9c2.2,2.4,5,3.7,8.5,3.9
	C19.3,40.4,19.3,41.9,19.3,42z"/>
</svg>
