<?xml version="1.0" encoding="utf-8"?>
<!-- Generator: Adobe Illustrator 26.3.1, SVG Export Plug-In . SVG Version: 6.00 Build 0)  -->
<svg version="1.1" id="Слой_1" xmlns="http://www.w3.org/2000/svg" xmlns:xlink="http://www.w3.org/1999/xlink" x="0px" y="0px"
	 viewBox="0 0 48 48" style="enable-background:new 0 0 48 48;" xml:space="preserve">
<path d="M24,19.5c-1.6,0-2.9-0.6-4.1-1.7c-1.1-1.1-1.7-2.5-1.7-4c0-1.6,0.6-3,1.7-4.1C21.1,8.6,22.4,8,24,8s3,0.6,4.1,1.7
	s1.7,2.5,1.7,4.1s-0.6,2.9-1.7,4.1C26.9,19,25.6,19.5,24,19.5z M24,18c1.2,0,2.2-0.4,3-1.2c0.8-0.8,1.2-1.8,1.2-3s-0.4-2.2-1.2-3
	c-0.8-0.8-1.8-1.2-3-1.2s-2.2,0.4-3,1.2s-1.2,1.8-1.2,3s0.4,2.2,1.2,3C21.8,17.6,22.8,18,24,18z M13.8,40c-1.6,0-2.9-0.6-4.1-1.7
	c-1.1-1.1-1.7-2.5-1.7-4c0-1.6,0.6-3,1.7-4.1s2.5-1.7,4-1.7c1.6,0,3,0.6,4.1,1.7s1.7,2.5,1.7,4.1c0,1.6-0.6,2.9-1.7,4.1
	C16.7,39.4,15.3,40,13.8,40z M13.8,38.5c1.2,0,2.2-0.4,3-1.2s1.2-1.8,1.2-3s-0.4-2.2-1.2-3C16,30.4,15,30,13.8,30s-2.2,0.4-3,1.2
	C10,32,9.6,33,9.6,34.2s0.4,2.2,1.2,3S12.6,38.5,13.8,38.5z M34.2,40c-1.6,0-2.9-0.6-4.1-1.7c-1.1-1.1-1.7-2.5-1.7-4
	c0-1.6,0.6-3,1.7-4.1s2.5-1.7,4-1.7c1.6,0,3,0.6,4.1,1.7s1.7,2.5,1.7,4.1c0,1.6-0.6,2.9-1.7,4.1C37.2,39.4,35.8,40,34.2,40z
	 M34.2,38.5c1.2,0,2.2-0.4,3-1.2s1.2-1.8,1.2-3s-0.4-2.2-1.2-3s-1.8-1.2-3-1.2s-2.2,0.4-3,1.2C30.4,32,30,33,30,34.2s0.4,2.2,1.2,3
	C32.1,38,33.1,38.5,34.2,38.5z"/>
</svg>
