<?xml version="1.0" encoding="utf-8"?>
<!-- Generator: Adobe Illustrator 26.3.1, SVG Export Plug-In . SVG Version: 6.00 Build 0)  -->
<svg version="1.1" id="Слой_1" xmlns="http://www.w3.org/2000/svg" xmlns:xlink="http://www.w3.org/1999/xlink" x="0px" y="0px"
	 viewBox="0 0 48 48" style="enable-background:new 0 0 48 48;" xml:space="preserve">
<path d="M21.6,45.5L21,26l-9.1-5.3l-1.3,4.6L14,31l-1.4,0.8l-3.7-6.3l2.1-7.6l11.9-6.8l-5.1-5.4l1.1-1l6.5,6.7L18,15.8l5.9,4.1
	L39.7,5.8l0.9,1L24.3,24l-1,21.5H21.6z M9.8,13.5c-0.9,0-1.7-0.3-2.3-0.9c-0.6-0.6-0.9-1.4-0.9-2.3c0-0.9,0.3-1.7,0.9-2.3
	c0.7-0.7,1.4-1,2.3-1c0.9,0,1.6,0.3,2.3,0.9c0.6,0.6,1,1.4,1,2.3s-0.3,1.7-1,2.3C11.5,13.1,10.7,13.5,9.8,13.5z"/>
</svg>
