<?xml version="1.0" encoding="utf-8"?>
<!-- Generator: Adobe Illustrator 26.3.1, SVG Export Plug-In . SVG Version: 6.00 Build 0)  -->
<svg version="1.1" id="Слой_1" xmlns="http://www.w3.org/2000/svg" xmlns:xlink="http://www.w3.org/1999/xlink" x="0px" y="0px"
	 viewBox="0 0 48 48" style="enable-background:new 0 0 48 48;" xml:space="preserve">
<path d="M5.5,38.2v-2.1c0-0.4,0.1-0.8,0.4-1.1s0.7-0.4,1.1-0.4h1.2v3.7C8.3,38.2,5.5,38.2,5.5,38.2z M10.4,38.2v-3.7h8.7l2.2-4.9
	l1,1.9L19.8,37c-0.2,0.4-0.4,0.7-0.7,0.8C18.8,38,18.5,38,18,38C18,38.2,10.4,38.2,10.4,38.2z M39.7,38.2v-3.7h1.2
	c0.5,0,0.8,0.1,1.1,0.4c0.3,0.3,0.4,0.7,0.4,1.1v2.1C42.5,38.2,39.7,38.2,39.7,38.2z M37.6,38.2H30c-0.5,0-0.8-0.1-1.1-0.2
	c-0.3-0.2-0.5-0.4-0.7-0.8L15.9,9.8h1.7l6.4,14l6.4-14.1h1.7L25,25.8l3.9,8.7h8.8C37.6,34.6,37.6,38.2,37.6,38.2z"/>
</svg>
