<?xml version="1.0" encoding="utf-8"?>
<!-- Generator: Adobe Illustrator 26.3.1, SVG Export Plug-In . SVG Version: 6.00 Build 0)  -->
<svg version="1.1" id="Слой_1" xmlns="http://www.w3.org/2000/svg" xmlns:xlink="http://www.w3.org/1999/xlink" x="0px" y="0px"
	 viewBox="0 0 48 48" style="enable-background:new 0 0 48 48;" xml:space="preserve">
<path d="M24,30c-3.3,0-6.2-1.2-8.5-3.5S12,21.3,12,18s1.2-6.2,3.5-8.5S20.7,6,24,6s6.2,1.2,8.5,3.5S36,14.7,36,18s-1.2,6.2-3.5,8.5
	S27.3,30,24,30z M24,28.5c2.9,0,5.4-1,7.4-3s3-4.5,3-7.4s-1-5.4-3-7.4s-4.5-3-7.4-3s-5.4,1-7.4,3s-3,4.5-3,7.4s1,5.4,3,7.4
	C18.6,27.4,21.1,28.5,24,28.5z M19.9,17.7c0.5,0,0.9-0.2,1.2-0.5c0.4-0.4,0.5-0.8,0.5-1.2c0-0.5-0.2-0.9-0.5-1.2
	c-0.4-0.4-0.8-0.5-1.2-0.5c-0.5,0-0.9,0.2-1.2,0.5c-0.4,0.4-0.5,0.8-0.5,1.2c0,0.5,0.2,0.9,0.5,1.2C19,17.5,19.4,17.7,19.9,17.7z
	 M28.1,17.7c0.5,0,0.9-0.2,1.2-0.5c0.4-0.4,0.5-0.8,0.5-1.2c0-0.5-0.2-0.9-0.5-1.2c-0.4-0.4-0.8-0.5-1.2-0.5c-0.5,0-0.9,0.2-1.2,0.5
	c-0.4,0.4-0.5,0.8-0.5,1.2c0,0.5,0.2,0.9,0.5,1.2C27.2,17.5,27.6,17.7,28.1,17.7z M24,13.5c0.5,0,0.9-0.2,1.2-0.5
	c0.4-0.4,0.5-0.8,0.5-1.2c0-0.5-0.2-0.9-0.5-1.2c-0.4-0.4-0.8-0.5-1.2-0.5c-0.5,0-0.9,0.2-1.2,0.5c-0.4,0.4-0.5,0.8-0.5,1.2
	c0,0.5,0.2,0.9,0.5,1.2C23.1,13.3,23.5,13.5,24,13.5z M23.2,41.8v-2.2c0-1.5-0.5-2.7-1.4-3.6s-2.2-1.4-3.6-1.4h-2.6V33h16.9v1.5
	h-2.6c-1.4,0-2.7,0.5-3.6,1.4c-1,1-1.4,2.2-1.4,3.6v2.2C24.8,41.8,23.2,41.8,23.2,41.8z"/>
</svg>
