<?xml version="1.0" encoding="utf-8"?>
<!-- Generator: Adobe Illustrator 26.3.1, SVG Export Plug-In . SVG Version: 6.00 Build 0)  -->
<svg version="1.1" id="Слой_1" xmlns="http://www.w3.org/2000/svg" xmlns:xlink="http://www.w3.org/1999/xlink" x="0px" y="0px"
	 viewBox="0 0 48 48" style="enable-background:new 0 0 48 48;" xml:space="preserve">
<path d="M28.2,36.5c3.4,0,6.3-1.2,8.7-3.7c2.4-2.4,3.6-5.4,3.6-8.9s-1.3-6.4-3.8-8.8s-5.6-3.6-9.1-3.6c-2.1,0-4,0.3-5.8,0.8
	c-1.8,0.5-3.5,1.3-5.2,2.4L23,17c1.3,0.5,2.3,1.3,2.9,2.3s0.9,2.2,0.9,3.4c0,1.7-0.6,3.2-1.8,4.4c-1.2,1.2-2.6,1.8-4.3,1.8H8
	c-0.2,0.7-0.3,1.5-0.4,2.5s-0.1,2.3-0.1,3.8c0,0.3,0.1,0.6,0.4,0.8c0.3,0.3,0.5,0.4,0.8,0.4C8.8,36.5,28.2,36.5,28.2,36.5z
	 M8.2,27.4h12.5c1.3,0,2.4-0.4,3.3-1.3s1.3-2,1.3-3.3c0-1-0.3-1.9-0.8-2.6c-0.5-0.8-1.2-1.3-2.1-1.7l-7.2-2.9
	c-1.7,1.4-3.2,3.1-4.4,5.1C9.7,22.7,8.8,24.9,8.2,27.4z M28.2,38H8.8c-0.8,0-1.4-0.3-2-0.8C6.3,36.7,6,36,6,35.2V34
	c0-3.6,0.5-6.8,1.6-9.8c1-3,2.5-5.5,4.4-7.6s4.2-3.7,6.8-4.9s5.6-1.8,8.8-1.8c2,0,3.8,0.4,5.6,1.1c1.7,0.7,3.3,1.7,4.6,3
	s2.4,2.7,3.1,4.4c0.8,1.7,1.1,3.5,1.1,5.5c0,1.9-0.4,3.8-1.1,5.5c-0.7,1.7-1.7,3.2-3,4.5c-1.2,1.3-2.7,2.3-4.4,3
	C31.9,37.6,30.1,38,28.2,38z"/>
</svg>
