<?xml version="1.0" encoding="utf-8"?>
<!-- Generator: Adobe Illustrator 26.3.1, SVG Export Plug-In . SVG Version: 6.00 Build 0)  -->
<svg version="1.1" id="Слой_1" xmlns="http://www.w3.org/2000/svg" xmlns:xlink="http://www.w3.org/1999/xlink" x="0px" y="0px"
	 viewBox="0 0 48 48" style="enable-background:new 0 0 48 48;" xml:space="preserve">
<path d="M2.4,42.6l-1.1-1.1l7.1-7.2l-2.5-6.6c-0.2-0.5-0.2-1-0.1-1.6s0.4-1,0.8-1.5l6.7-6.7c0.3-0.3,0.6-0.5,0.9-0.6
	c0.3-0.1,0.7-0.2,1.1-0.2c0.4,0,0.7,0.1,1.1,0.2c0.3,0.1,0.6,0.4,0.9,0.6l4.2,3.9c1.2,1.1,2.3,1.9,3.4,2.4s2.4,0.8,3.8,0.9v1.5
	c-1.5-0.1-3-0.5-4.4-1.1s-2.6-1.4-3.6-2.4L18.2,21l-6.5,6.5l4.8,4.8V43H15V33l-5.1-4.8v6.9L2.4,42.6z M31.1,43V30.6l4.5-4.2l-2-10.5
	c-1.4,1.8-2.8,3.3-4.1,4.5c-1.4,1.2-2.9,1.9-4.5,2.3c-0.2-0.2-0.5-0.3-0.8-0.6c-0.3-0.2-0.5-0.4-0.7-0.6c1.6-0.2,3.1-0.9,4.6-2
	s2.7-2.3,3.6-3.8l2-3.3c0.4-0.7,1-1.2,1.7-1.4s1.4-0.1,2.1,0.2l9.5,4v7.3h-1.5v-6.3L39,13.4L44.4,43h-1.7l-3.9-16.1l-6.2,5V43H31.1z
	 M21.5,17.5c-0.9,0-1.7-0.3-2.3-0.9c-0.6-0.6-0.9-1.4-0.9-2.3c0-0.9,0.3-1.7,0.9-2.3s1.4-0.9,2.3-0.9s1.7,0.3,2.3,0.9
	c0.6,0.6,0.9,1.4,0.9,2.3s-0.3,1.7-0.9,2.3C23.2,17.1,22.4,17.5,21.5,17.5z M33.4,9.1c-0.9,0-1.7-0.3-2.3-0.9
	c-0.6-0.6-0.9-1.4-0.9-2.3s0.3-1.7,0.9-2.3s1.4-0.9,2.3-0.9c0.9,0,1.7,0.3,2.3,0.9s0.9,1.4,0.9,2.3s-0.3,1.7-0.9,2.3
	C35.1,8.8,34.3,9.1,33.4,9.1z"/>
</svg>
