<?xml version="1.0" encoding="utf-8"?>
<!-- Generator: Adobe Illustrator 26.3.1, SVG Export Plug-In . SVG Version: 6.00 Build 0)  -->
<svg version="1.1" id="Слой_1" xmlns="http://www.w3.org/2000/svg" xmlns:xlink="http://www.w3.org/1999/xlink" x="0px" y="0px"
	 viewBox="0 0 48 48" style="enable-background:new 0 0 48 48;" xml:space="preserve">
<path d="M8.2,36c-0.8,0-1.5-0.3-1.9-0.9c-0.5-0.6-0.6-1.3-0.5-2.1l2.3-16c0.2-1.4,0.8-2.6,1.9-3.5c1.1-1,2.3-1.5,3.7-1.5h20.7
	c1.4,0,2.6,0.5,3.7,1.5c1.1,1,1.7,2.1,1.9,3.5l2.2,16c0.1,0.8,0,1.5-0.5,2.1S40.6,36,39.8,36c-0.5,0-0.9-0.1-1.2-0.2
	c-0.3-0.1-0.6-0.3-0.9-0.6l-5.4-5.4H15.7l-5.4,5.4c-0.3,0.3-0.6,0.5-0.9,0.6C9.1,35.9,8.7,36,8.2,36z M9.1,34.2l6-6H33l6,6
	c0.1,0.1,0.4,0.2,0.8,0.3c0.3,0,0.6-0.1,0.8-0.4c0.2-0.2,0.2-0.5,0.2-0.9l-2.3-16.1c-0.2-1-0.6-1.9-1.4-2.6c-0.8-0.7-1.7-1-2.6-1
	H13.7c-0.9,0-1.8,0.3-2.6,1c-0.8,0.7-1.3,1.6-1.4,2.6L7.3,33.3c0,0.3,0,0.6,0.2,0.9c0.2,0.2,0.4,0.4,0.8,0.4
	C8.5,34.6,8.7,34.4,9.1,34.2z M34.5,25.6c0.4,0,0.8-0.2,1.1-0.5s0.5-0.7,0.5-1.1s-0.2-0.8-0.5-1.1c-0.3-0.3-0.7-0.5-1.1-0.5
	s-0.8,0.2-1.1,0.5s-0.5,0.7-0.5,1.1s0.2,0.8,0.5,1.1C33.7,25.5,34,25.6,34.5,25.6z M30.4,19.4c0.4,0,0.8-0.2,1.1-0.5
	s0.5-0.7,0.5-1.1s-0.2-0.8-0.5-1.1c-0.3-0.3-0.7-0.5-1.1-0.5s-0.8,0.2-1.1,0.5c-0.3,0.3-0.5,0.7-0.5,1.1s0.2,0.8,0.5,1.1
	C29.6,19.2,29.9,19.4,30.4,19.4z M15.9,25.2h1.5v-3.6H21v-1.5h-3.6v-3.6h-1.5v3.6h-3.6v1.5h3.6V25.2z"/>
</svg>
