<?xml version="1.0" encoding="utf-8"?>
<!-- Generator: Adobe Illustrator 26.3.1, SVG Export Plug-In . SVG Version: 6.00 Build 0)  -->
<svg version="1.1" id="Слой_1" xmlns="http://www.w3.org/2000/svg" xmlns:xlink="http://www.w3.org/1999/xlink" x="0px" y="0px"
	 viewBox="0 0 48 48" style="enable-background:new 0 0 48 48;" xml:space="preserve">
<path d="M40.1,20.5c-0.8-3.6-2.6-6.7-5.4-9.1c-2.8-2.4-6.1-3.7-9.9-3.9v3.9C24.8,11.5,40.1,20.5,40.1,20.5z M14.5,28.6l8.8-5.1v-16
	c-1.6,0.2-3.1,0.5-4.6,0.9c-1.5,0.5-2.9,1.1-4.2,2.1C14.5,10.6,14.5,28.6,14.5,28.6z M9.4,31.6l3.6-2.1V11.7c-1.8,1.5-3.1,3.4-4,5.5
	c-1,2.2-1.5,4.5-1.5,6.8c0,1.3,0.1,2.6,0.4,3.9C8.2,29.2,8.7,30.4,9.4,31.6z M17.1,39l15.8-9.1L24,24.8l-13.9,8.1
	c0.9,1.4,1.9,2.6,3,3.7C14.3,37.6,15.6,38.4,17.1,39z M24,40.5c2.8,0,5.5-0.7,7.9-2s4.4-3.2,6-5.6l-3.6-2.1L19,39.7
	c0.8,0.3,1.6,0.5,2.4,0.6C22.3,40.4,23.2,40.5,24,40.5z M38.7,31.5c0.7-1.4,1.2-2.8,1.5-4.4c0.3-1.5,0.3-3.1,0.2-4.6l-15.6-9.2v10.2
	C24.8,23.5,38.7,31.5,38.7,31.5z M24,42c-2.5,0-4.8-0.5-7-1.4s-4.1-2.2-5.7-3.8s-2.9-3.5-3.8-5.7C6.5,28.8,6,26.5,6,24
	s0.5-4.8,1.4-7s2.2-4.1,3.8-5.7s3.5-2.9,5.7-3.8C19.2,6.5,21.5,6,24,6s4.8,0.5,7,1.4s4.1,2.2,5.7,3.8c1.6,1.6,2.9,3.5,3.8,5.7
	c0.9,2.2,1.4,4.5,1.4,7s-0.5,4.8-1.4,7s-2.2,4.1-3.8,5.7s-3.5,2.9-5.7,3.8C28.8,41.5,26.5,42,24,42z"/>
</svg>
