<?xml version="1.0" encoding="utf-8"?>
<!-- Generator: Adobe Illustrator 26.3.1, SVG Export Plug-In . SVG Version: 6.00 Build 0)  -->
<svg version="1.1" id="Слой_1" xmlns="http://www.w3.org/2000/svg" xmlns:xlink="http://www.w3.org/1999/xlink" x="0px" y="0px"
	 viewBox="0 0 48 48" style="enable-background:new 0 0 48 48;" xml:space="preserve">
<path d="M19.7,38.1l-9.8-9.8c-0.3,1.4-0.4,3-0.4,5s0.2,3.5,0.5,4.6c1,0.3,2.5,0.5,4.6,0.6S18.4,38.4,19.7,38.1z M21.6,37.9
	c2-0.3,4-1,6-1.9c2-1,3.6-2.1,4.9-3.4c1.3-1.3,2.4-2.9,3.3-4.8c0.9-1.9,1.6-4,2-6.1L26.4,10.1c-2,0.3-4,1-5.9,2
	c-2,1-3.6,2.1-4.8,3.3s-2.3,2.8-3.3,4.8c-0.9,2-1.7,4-2.2,6.2C10.1,26.4,21.6,37.9,21.6,37.9z M19.2,29.9l-1.1-1.1L28.9,18l1.1,1.1
	L19.2,29.9z M38.1,19.8c0.3-1.5,0.4-3.2,0.4-5.2s-0.2-3.5-0.5-4.5c-1-0.3-2.6-0.5-4.7-0.6s-3.8,0-5.1,0.3
	C28.3,9.9,38.1,19.8,38.1,19.8z M15.5,40c-1.6,0-3-0.1-4.4-0.3c-1.3-0.2-2.1-0.4-2.4-0.6c-0.2-0.3-0.4-1-0.5-2.2S8,34.3,8,32.9
	c0-3.8,0.6-7.4,1.7-10.6s2.7-5.9,4.7-7.9s4.7-3.6,7.9-4.7C25.5,8.6,29.1,8,32.9,8c1.5,0,2.8,0.1,4,0.2c1.2,0.2,1.9,0.4,2.1,0.6
	c0.3,0.3,0.6,1,0.7,2.2c0.2,1.2,0.2,2.5,0.2,4c0,3.9-0.5,7.5-1.6,10.8s-2.6,5.9-4.6,7.9s-4.6,3.6-7.9,4.7C22.6,39.5,19.2,40,15.5,40
	z"/>
</svg>
