<?xml version="1.0" encoding="utf-8"?>
<!-- Generator: Adobe Illustrator 26.3.1, SVG Export Plug-In . SVG Version: 6.00 Build 0)  -->
<svg version="1.1" id="Слой_1" xmlns="http://www.w3.org/2000/svg" xmlns:xlink="http://www.w3.org/1999/xlink" x="0px" y="0px"
	 viewBox="0 0 48 48" style="enable-background:new 0 0 48 48;" xml:space="preserve">
<path d="M6.8,38.6l-1.1-1.1l9.3-9.3c1-1,1.7-2.2,2-3.6c0.4-1.4,0.5-3.4,0.5-6.1c0-1.8,0.4-3.5,1.2-5.2c0.8-1.7,1.9-3.3,3.4-4.8
	c2.6-2.6,5.4-4.1,8.4-4.5S36,4.4,38,6.3c2,2,2.7,4.5,2.3,7.5s-1.9,5.8-4.5,8.4c-1.5,1.5-3.1,2.6-4.7,3.3s-3.4,1.1-5.2,1.1
	c-2.6,0-4.6,0.2-6.1,0.5c-1.5,0.4-2.7,1-3.7,2.1C16.1,29.4,6.8,38.6,6.8,38.6z M20.9,23.4c1.6,1.6,3.8,2.2,6.5,1.8s5.2-1.7,7.4-3.9
	s3.5-4.6,3.9-7.3s-0.2-4.8-1.8-6.4s-3.7-2.1-6.4-1.7c-2.7,0.4-5.1,1.7-7.3,3.9c-2.2,2.1-3.5,4.6-3.9,7.3
	C18.8,19.6,19.3,21.8,20.9,23.4z M36.7,44c-1.6,0-2.9-0.5-4-1.6c-1.1-1.1-1.6-2.4-1.6-4s0.5-2.9,1.6-4c1.1-1.1,2.4-1.6,4-1.6
	s2.9,0.5,4,1.6s1.6,2.4,1.6,4s-0.5,2.9-1.6,4S38.2,44,36.7,44z M36.7,42.5c1.1,0,2.1-0.4,2.9-1.2c0.8-0.8,1.2-1.8,1.2-2.9
	c0-1.1-0.4-2.1-1.2-2.9c-0.8-0.8-1.8-1.2-2.9-1.2c-1.1,0-2.1,0.4-2.9,1.2c-0.8,0.8-1.2,1.8-1.2,2.9s0.4,2.1,1.2,2.9
	C34.6,42.1,35.5,42.5,36.7,42.5z"/>
</svg>
