<?xml version="1.0" encoding="utf-8"?>
<!-- Generator: Adobe Illustrator 26.3.1, SVG Export Plug-In . SVG Version: 6.00 Build 0)  -->
<svg version="1.1" id="Слой_1" xmlns="http://www.w3.org/2000/svg" xmlns:xlink="http://www.w3.org/1999/xlink" x="0px" y="0px"
	 viewBox="0 0 48 48" style="enable-background:new 0 0 48 48;" xml:space="preserve">
<path d="M24,42c-2.5,0-4.8-0.5-7-1.4s-4.1-2.2-5.7-3.9c-1.6-1.6-2.9-3.5-3.9-5.7C6.5,28.8,6,26.5,6,24s0.5-4.8,1.4-7
	s2.2-4.1,3.9-5.7c1.6-1.6,3.5-2.9,5.7-3.9C19.2,6.5,21.5,6,24,6s4.8,0.5,7,1.4s4.1,2.2,5.7,3.9c1.6,1.6,2.9,3.5,3.9,5.7
	c0.9,2.2,1.4,4.5,1.4,7s-0.5,4.8-1.4,7s-2.2,4.1-3.9,5.7c-1.6,1.6-3.5,2.9-5.7,3.9C28.8,41.5,26.5,42,24,42z M33.4,20.3l3.8-1.3
	l1-3.6c-1.1-1.8-2.5-3.3-4.2-4.6S30.4,8.6,28.2,8l-3.5,2.4v3.8C24.8,14.2,33.4,20.3,33.4,20.3z M14.6,20.3l8.6-6.1v-3.8L19.8,8
	c-2.1,0.6-4,1.6-5.7,2.8c-1.7,1.3-3.1,2.8-4.2,4.6L11,19L14.6,20.3z M11.7,35.2l3.5-0.4l2.2-3.5l-3.1-9.4l-3.9-1.3l-2.8,2.1
	c0,2.5,0.3,4.7,0.8,6.6C8.9,31.3,10,33.2,11.7,35.2z M24,40.5c0.9,0,1.8-0.1,2.7-0.2c0.9-0.2,1.9-0.4,3-0.7l1.8-3.9l-1.9-3.2H18.4
	l-1.8,3.2l1.8,3.9c0.9,0.3,1.9,0.5,2.8,0.7C22.2,40.4,23.1,40.5,24,40.5z M18.7,30.9h10.5l3-9.4l-8.2-6l-8.4,5.9L18.7,30.9z
	 M36.3,35.2c1.7-1.9,2.8-3.9,3.3-5.8c0.5-2,0.8-4.2,0.8-6.6l-2.7-1.9l-4,1.1l-3.1,9.5l2.2,3.5C32.9,34.8,36.3,35.2,36.3,35.2z"/>
</svg>
