<?xml version="1.0" encoding="utf-8"?>
<!-- Generator: Adobe Illustrator 26.3.1, SVG Export Plug-In . SVG Version: 6.00 Build 0)  -->
<svg version="1.1" id="Слой_1" xmlns="http://www.w3.org/2000/svg" xmlns:xlink="http://www.w3.org/1999/xlink" x="0px" y="0px"
	 viewBox="0 0 48 48" style="enable-background:new 0 0 48 48;" xml:space="preserve">
<path d="M7.6,23.2H15c-0.2-1.7-0.6-3.4-1.4-5c-0.8-1.6-1.7-3-2.9-4.2c-0.9,1.3-1.7,2.7-2.3,4.3C7.9,19.8,7.6,21.5,7.6,23.2z
	 M33,23.2h7.5c0-1.7-0.3-3.3-0.9-4.9c-0.6-1.5-1.3-2.9-2.3-4.2c-1.3,1.3-2.3,2.7-3,4.2C33.6,19.9,33.1,21.5,33,23.2z M10.7,33.9
	c1.2-1.3,2.2-2.7,2.9-4.2c0.7-1.5,1.2-3.2,1.3-4.9H7.6c0.1,1.7,0.4,3.4,0.9,4.9S9.8,32.6,10.7,33.9z M37.3,33.9
	c0.9-1.3,1.7-2.7,2.3-4.2s0.9-3.2,0.9-4.9H33c0.2,1.7,0.6,3.4,1.3,4.9C34.9,31.2,35.9,32.6,37.3,33.9z M16.5,23.2h6.7V7.5
	c-2.2,0.1-4.3,0.6-6.3,1.6c-2,0.9-3.7,2.2-5.2,3.8c1.4,1.4,2.5,2.9,3.3,4.7C15.9,19.4,16.4,21.3,16.5,23.2z M24.8,23.2h6.7
	c0.1-2,0.6-3.8,1.4-5.6c0.8-1.8,1.9-3.4,3.3-4.7c-1.5-1.6-3.2-2.8-5.1-3.8c-2-0.9-4.1-1.5-6.3-1.6C24.8,7.5,24.8,23.2,24.8,23.2z
	 M23.2,40.5V24.8h-6.7c-0.1,2-0.6,3.9-1.4,5.6c-0.8,1.7-1.9,3.3-3.3,4.6c1.5,1.6,3.2,2.9,5.1,3.8S20.9,40.3,23.2,40.5z M24.8,40.5
	c2.3-0.1,4.5-0.6,6.4-1.6s3.6-2.2,5.1-3.8c-1.4-1.3-2.5-2.9-3.3-4.6c-0.8-1.8-1.3-3.6-1.4-5.6h-6.7v15.6H24.8z M24,42
	c-2.5,0-4.8-0.5-7-1.4s-4.1-2.2-5.7-3.9c-1.6-1.6-2.9-3.5-3.9-5.7C6.5,28.8,6,26.5,6,24s0.5-4.8,1.4-7s2.2-4.1,3.9-5.7
	c1.6-1.6,3.5-2.9,5.7-3.9C19.2,6.5,21.5,6,24,6s4.8,0.5,7,1.4s4.1,2.2,5.7,3.9c1.6,1.6,2.9,3.5,3.9,5.7c0.9,2.2,1.4,4.5,1.4,7
	s-0.5,4.8-1.4,7s-2.2,4.1-3.9,5.7c-1.6,1.6-3.5,2.9-5.7,3.9C28.8,41.5,26.5,42,24,42z"/>
</svg>
