<?xml version="1.0" encoding="utf-8"?>
<!-- Generator: Adobe Illustrator 26.3.1, SVG Export Plug-In . SVG Version: 6.00 Build 0)  -->
<svg version="1.1" id="Слой_1" xmlns="http://www.w3.org/2000/svg" xmlns:xlink="http://www.w3.org/1999/xlink" x="0px" y="0px"
	 viewBox="0 0 48 48" style="enable-background:new 0 0 48 48;" xml:space="preserve">
<path d="M11.6,35c1.8-1.2,3.1-2.8,4-4.8s1.4-4,1.4-6.2s-0.5-4.2-1.4-6.2s-2.3-3.6-4-4.9c-1.3,1.5-2.4,3.2-3,5.1
	c-0.7,1.9-1,3.9-1,5.9s0.3,4,1,5.9C9.2,31.8,10.3,33.5,11.6,35z M24,40.5c2.1,0,4.1-0.4,6-1.1c1.9-0.7,3.7-1.8,5.2-3.2
	c-1.8-1.5-3.3-3.3-4.3-5.4s-1.5-4.3-1.5-6.7s0.5-4.6,1.5-6.7s2.4-3.9,4.3-5.4c-1.5-1.4-3.3-2.5-5.2-3.2c-1.9-0.7-3.9-1.1-6-1.1
	s-4.1,0.4-6,1.1s-3.7,1.8-5.2,3.2c1.8,1.5,3.3,3.3,4.3,5.4s1.5,4.4,1.5,6.7s-0.5,4.6-1.5,6.7s-2.5,3.9-4.3,5.4
	c1.5,1.4,3.3,2.5,5.2,3.2C19.9,40.1,21.9,40.5,24,40.5z M36.4,35c1.4-1.5,2.4-3.2,3-5.1c0.7-1.9,1-3.9,1-5.9s-0.3-4-1-5.9
	s-1.7-3.6-3-5.1c-1.8,1.3-3.1,2.9-4,4.9c-0.9,2-1.4,4-1.4,6.2s0.5,4.2,1.4,6.2C33.3,32.2,34.7,33.8,36.4,35z M24,42
	c-2.5,0-4.8-0.5-7-1.4s-4.1-2.2-5.7-3.9c-1.6-1.6-2.9-3.5-3.9-5.7C6.5,28.8,6,26.5,6,24s0.5-4.8,1.4-7s2.2-4.1,3.9-5.7
	c1.6-1.6,3.5-2.9,5.7-3.9C19.2,6.5,21.5,6,24,6s4.8,0.5,7,1.4s4.1,2.2,5.7,3.9c1.6,1.6,2.9,3.5,3.9,5.7c0.9,2.2,1.4,4.5,1.4,7
	s-0.5,4.8-1.4,7s-2.2,4.1-3.9,5.7c-1.6,1.6-3.5,2.9-5.7,3.9C28.8,41.5,26.5,42,24,42z"/>
</svg>
