<?xml version="1.0" encoding="utf-8"?>
<!-- Generator: Adobe Illustrator 26.3.1, SVG Export Plug-In . SVG Version: 6.00 Build 0)  -->
<svg version="1.1" id="Слой_1" xmlns="http://www.w3.org/2000/svg" xmlns:xlink="http://www.w3.org/1999/xlink" x="0px" y="0px"
	 viewBox="0 0 48 48" style="enable-background:new 0 0 48 48;" xml:space="preserve">
<path d="M10.8,38.6l-1.1-1.1l20.7-20.7H21v4h-1.5v-5.5h12.1c0.1,0,0.2,0,0.3,0.1c0.1,0,0.2,0.1,0.2,0.1l6.2,6.2c1,1,2.1,1.7,3.3,2.3
	c1.2,0.6,2.5,0.9,3.8,0.9v1.5c-1.5,0-3-0.3-4.4-1c-1.4-0.6-2.7-1.5-3.8-2.6L34.6,20l-6.8,6.8L32,31l-10.7,6.2l-0.8-1.4l8.9-5.1
	l-5.3-5.3C24.1,25.4,10.8,38.6,10.8,38.6z M8,25v-1.5h8V25H8z M4,18.8v-1.5h8v1.5H4z M39.2,14.8c-0.8,0-1.4-0.3-2-0.8
	c-0.5-0.5-0.8-1.2-0.8-2s0.3-1.5,0.8-2s1.2-0.8,2-0.8s1.5,0.3,2,0.8s0.8,1.2,0.8,2s-0.3,1.5-0.8,2C40.6,14.5,40,14.8,39.2,14.8z
	 M8,12.5V11h8v1.5H8z"/>
</svg>
