<?xml version="1.0" encoding="utf-8"?>
<!-- Generator: Adobe Illustrator 26.3.1, SVG Export Plug-In . SVG Version: 6.00 Build 0)  -->
<svg version="1.1" id="Слой_1" xmlns="http://www.w3.org/2000/svg" xmlns:xlink="http://www.w3.org/1999/xlink" x="0px" y="0px"
	 viewBox="0 0 48 48" style="enable-background:new 0 0 48 48;" xml:space="preserve">
<path d="M42,37l-1.5-1.5V20.8c0-0.3-0.1-0.6-0.4-0.9c-0.2-0.2-0.5-0.4-0.9-0.4H24.5L23,18h16.2c0.7,0,1.4,0.3,1.9,0.8
	c0.6,0.6,0.8,1.2,0.8,1.9L42,37L42,37z M28.5,13.7V8.8c0-0.3-0.1-0.6-0.4-0.9c-0.2-0.2-0.5-0.4-0.9-0.4H12.5L11,6h16.2
	c0.7,0,1.4,0.3,1.9,0.8C29.7,7.4,30,8,30,8.8v4.9C30,13.7,28.5,13.7,28.5,13.7z M20.8,40.5h17.5L19.5,21.8v17.5
	c0,0.4,0.1,0.7,0.3,0.9C20.1,40.3,20.4,40.5,20.8,40.5z M40.9,43.1L39.8,42h-19c-0.8,0-1.4-0.3-2-0.8c-0.5-0.5-0.8-1.2-0.8-2v-19
	L8.8,9.8v18.7h4.9V30H8.8c-0.8,0-1.4-0.3-2-0.8C6.3,28.6,6,28,6,27.2v-19L4.9,7.1L6,6l36,36L40.9,43.1z"/>
</svg>
