<?xml version="1.0" encoding="utf-8"?>
<!-- Generator: Adobe Illustrator 26.3.1, SVG Export Plug-In . SVG Version: 6.00 Build 0)  -->
<svg version="1.1" id="Слой_1" xmlns="http://www.w3.org/2000/svg" xmlns:xlink="http://www.w3.org/1999/xlink" x="0px" y="0px"
	 viewBox="0 0 48 48" style="enable-background:new 0 0 48 48;" xml:space="preserve">
<path d="M11.8,34.5c-0.8,0-1.4-0.3-2-0.8c-0.5-0.5-0.8-1.2-0.8-2V10.3c0-0.8,0.3-1.4,0.8-2c0.5-0.5,1.2-0.8,2-0.8h29.4
	c0.8,0,1.4,0.3,2,0.8c0.5,0.5,0.8,1.2,0.8,2v21.4c0,0.8-0.3,1.4-0.8,2c-0.5,0.5-1.2,0.8-2,0.8H11.8z M26.5,23.7L10.6,10.9v20.8
	c0,0.4,0.1,0.7,0.3,0.9s0.5,0.3,0.9,0.3h29.4c0.4,0,0.7-0.1,0.9-0.3s0.3-0.5,0.3-0.9V10.9C42.5,10.9,26.5,23.7,26.5,23.7z
	 M26.5,21.7L42,9.3c-0.1-0.1-0.2-0.1-0.3-0.2c-0.1,0-0.2-0.1-0.3-0.1H11.8c-0.1,0-0.3,0-0.4,0.1c-0.1,0.1-0.2,0.1-0.3,0.2
	C11.1,9.4,26.5,21.7,26.5,21.7z M6.8,39.5c-0.8,0-1.4-0.3-2-0.8c-0.5-0.5-0.8-1.2-0.8-2V16.4h1.5v20.4c0,0.4,0.1,0.7,0.3,0.9
	c0.3,0.2,0.6,0.3,1,0.3h30.9v1.5H6.8z M42.5,10.9c0-0.2,0-0.5-0.1-0.9s-0.2-0.6-0.2-0.8C42.1,9.1,42,9.1,41.9,9
	c-0.1,0-0.3-0.1-0.4-0.1H11.8c-0.1,0-0.3,0-0.5,0.1S11,9.1,10.9,9.2c-0.1,0.1-0.1,0.4-0.2,0.7c-0.1,0.3-0.1,0.6-0.1,0.8V9.1h31.8
	C42.5,9.1,42.5,10.9,42.5,10.9z"/>
</svg>
