<?xml version="1.0" encoding="utf-8"?>
<!-- Generator: Adobe Illustrator 26.3.1, SVG Export Plug-In . SVG Version: 6.00 Build 0)  -->
<svg version="1.1" id="Слой_1" xmlns="http://www.w3.org/2000/svg" xmlns:xlink="http://www.w3.org/1999/xlink" x="0px" y="0px"
	 viewBox="0 0 48 48" style="enable-background:new 0 0 48 48;" xml:space="preserve">
<path d="M28.3,27.7l6.9-4v-8l-6.9-4l-7,4v8C21.3,23.7,28.3,27.7,28.3,27.7z M37.8,37h0.6c0.1,0.4,0,0.8-0.3,1.1s-0.6,0.5-1,0.5
	l-25,3.1c-0.8,0.1-1.5-0.1-2.1-0.5c-0.6-0.5-0.9-1.1-1-1.8L6.2,18.5c-0.1-0.8,0.1-1.5,0.6-2.1s1.1-1,1.9-1l2.4-0.2v1.6L9,16.9
	c-0.3,0-0.6,0.2-0.8,0.4c-0.2,0.3-0.3,0.6-0.3,0.9L10.5,39c0.1,0.4,0.2,0.6,0.5,0.8s0.6,0.3,0.9,0.2C11.8,40.2,37.8,37,37.8,37z
	 M17.3,33.4c-0.8,0-1.4-0.3-2-0.8c-0.5-0.5-0.8-1.2-0.8-2V8.8c0-0.8,0.3-1.4,0.8-2c0.5-0.5,1.2-0.8,2-0.8h21.9c0.8,0,1.4,0.3,2,0.8
	C41.7,7.3,42,8,42,8.8v21.9c0,0.8-0.3,1.4-0.8,2c-0.5,0.5-1.2,0.8-2,0.8L17.3,33.4L17.3,33.4z M17.3,31.9h21.9
	c0.4,0,0.7-0.1,0.9-0.4c0.2-0.2,0.3-0.5,0.3-0.9V8.8c0-0.4-0.1-0.7-0.3-0.9c-0.2-0.2-0.5-0.3-0.9-0.3H17.3c-0.3,0-0.6,0.1-0.9,0.3
	C16.2,8.1,16,8.4,16,8.8v21.9c0,0.3,0.1,0.6,0.4,0.9C16.7,31.8,17,31.9,17.3,31.9z"/>
</svg>
