<?xml version="1.0" encoding="utf-8"?>
<!-- Generator: Adobe Illustrator 26.3.1, SVG Export Plug-In . SVG Version: 6.00 Build 0)  -->
<svg version="1.1" id="Слой_1" xmlns="http://www.w3.org/2000/svg" xmlns:xlink="http://www.w3.org/1999/xlink" x="0px" y="0px"
	 viewBox="0 0 48 48" style="enable-background:new 0 0 48 48;" xml:space="preserve">
<path d="M9.4,39c-1.8,0-3.3-0.6-4.5-1.8S3.1,34.5,3,32.7c0-0.3,0-0.5,0-0.8c0-0.2,0.1-0.5,0.1-0.8l4.2-16.8c0.4-1.6,1.2-2.8,2.5-3.8
	S12.5,9,14.1,9h19.5c1.6,0,3,0.5,4.3,1.5s2.1,2.2,2.5,3.8l4.2,16.8c0.1,0.3,0.1,0.5,0.2,0.8c0,0.3,0.1,0.5,0.1,0.8
	c0,1.8-0.6,3.3-1.9,4.5c-1.2,1.2-2.8,1.8-4.5,1.8c-1.2,0-2.3-0.3-3.4-1c-1-0.6-1.8-1.5-2.4-2.6l-1.4-2.9c-0.2-0.5-0.6-0.9-1.1-1.1
	s-1-0.4-1.6-0.4h-9.5c-0.5,0-1.1,0.1-1.5,0.4c-0.5,0.2-0.9,0.6-1.1,1.1l-1.4,2.9c-0.5,1.1-1.3,2-2.3,2.6C11.8,38.7,10.7,39,9.4,39z
	 M9.6,37.5c0.9,0,1.7-0.2,2.5-0.7s1.3-1.1,1.7-1.9l1.4-2.9c0.4-0.8,1-1.4,1.7-1.8c0.7-0.4,1.5-0.7,2.4-0.7h9.5
	c0.9,0,1.7,0.2,2.4,0.7c0.7,0.5,1.3,1.1,1.7,1.8l1.4,2.9c0.4,0.8,1,1.5,1.7,1.9c0.8,0.5,1.6,0.7,2.5,0.7c1.3,0,2.5-0.5,3.4-1.4
	c1-0.9,1.4-2,1.4-3.4c0-0.2,0-0.6-0.2-1.3L39,14.7c-0.3-1.2-1-2.2-1.9-3c-1-0.8-2.1-1.2-3.3-1.2H14.2c-1.3,0-2.4,0.4-3.4,1.2
	s-1.6,1.8-1.9,3L4.8,31.4c0,0.1-0.1,0.6-0.1,1.3c0,1.4,0.5,2.5,1.4,3.4C7.1,37,8.2,37.5,9.6,37.5z M27,21.3c0.4,0,0.7-0.1,0.9-0.4
	s0.4-0.6,0.4-0.9c0-0.4-0.1-0.7-0.4-0.9c-0.3-0.3-0.6-0.4-0.9-0.4s-0.7,0.1-0.9,0.4c-0.3,0.3-0.4,0.6-0.4,0.9s0.1,0.7,0.4,0.9
	S26.7,21.3,27,21.3z M31,17.3c0.4,0,0.7-0.1,0.9-0.4s0.4-0.6,0.4-0.9c0-0.4-0.1-0.7-0.4-0.9c-0.3-0.3-0.6-0.4-0.9-0.4
	s-0.7,0.1-0.9,0.4c-0.3,0.3-0.4,0.6-0.4,0.9c0,0.4,0.1,0.7,0.4,0.9S30.7,17.3,31,17.3z M31,25.3c0.4,0,0.7-0.1,0.9-0.4
	c0.3-0.3,0.4-0.6,0.4-0.9c0-0.4-0.1-0.7-0.4-0.9c-0.3-0.3-0.6-0.4-0.9-0.4s-0.7,0.1-0.9,0.4c-0.3,0.3-0.4,0.6-0.4,0.9
	c0,0.4,0.1,0.7,0.4,0.9C30.4,25.2,30.7,25.3,31,25.3z M35,21.3c0.3,0,0.7-0.1,0.9-0.4c0.3-0.3,0.4-0.6,0.4-0.9
	c0-0.4-0.1-0.7-0.4-0.9c-0.3-0.3-0.6-0.4-0.9-0.4c-0.4,0-0.7,0.1-0.9,0.4c-0.3,0.3-0.4,0.6-0.4,0.9s0.1,0.7,0.4,0.9
	C34.4,21.2,34.7,21.3,35,21.3z M17,24.2c0.2,0,0.4-0.1,0.6-0.2s0.2-0.3,0.2-0.5v-2.8h2.7c0.2,0,0.4-0.1,0.6-0.2s0.2-0.3,0.2-0.5
	s-0.1-0.4-0.2-0.6c-0.2-0.2-0.3-0.2-0.6-0.2h-2.7v-2.7c0-0.2-0.1-0.4-0.2-0.6c-0.2-0.2-0.3-0.2-0.6-0.2c-0.2,0-0.4,0.1-0.5,0.2
	c-0.1,0.2-0.2,0.3-0.2,0.6v2.7h-2.8c-0.2,0-0.4,0.1-0.5,0.2c-0.1,0.2-0.2,0.3-0.2,0.6c0,0.2,0.1,0.4,0.2,0.5
	c0.1,0.1,0.3,0.2,0.5,0.2h2.8v2.8c0,0.2,0.1,0.4,0.2,0.5C16.6,24.2,16.8,24.2,17,24.2z"/>
</svg>
