<?xml version="1.0" encoding="utf-8"?>
<!-- Generator: Adobe Illustrator 26.3.1, SVG Export Plug-In . SVG Version: 6.00 Build 0)  -->
<svg version="1.1" id="Слой_1" xmlns="http://www.w3.org/2000/svg" xmlns:xlink="http://www.w3.org/1999/xlink" x="0px" y="0px"
	 viewBox="0 0 48 48" style="enable-background:new 0 0 48 48;" xml:space="preserve">
<path d="M9.8,13.5V7.2l6.4,3.2L9.8,13.5z M33.8,13.5V7.2l6.4,3.2L33.8,13.5z M22.6,11.9V5.5L29,8.8L22.6,11.9z M20.8,42.6
	c-2.3-0.1-4.4-0.3-6.2-0.6c-1.9-0.3-3.4-0.7-4.7-1.1c-1.3-0.4-2.3-0.9-3-1.5s-1.1-1.1-1.1-1.8V21.2c0-0.7,0.5-1.4,1.4-2
	s2.2-1.1,3.8-1.6c1.6-0.4,3.5-0.8,5.8-1.1c2.2-0.3,4.7-0.4,7.3-0.4s5.1,0.1,7.3,0.4s4.2,0.6,5.8,1.1c1.6,0.4,2.9,1,3.8,1.6
	c0.9,0.6,1.4,1.3,1.4,2v16.5c0,0.6-0.4,1.2-1.1,1.8c-0.7,0.6-1.7,1.1-3,1.5s-2.9,0.8-4.7,1.1c-1.9,0.3-3.9,0.5-6.2,0.6v-8.2h-6.5
	C20.8,34.4,20.8,42.6,20.8,42.6z M24,24.6c3.3,0,6.4-0.3,9.4-0.9s5.4-1.4,7.3-2.5c-0.8-1-2.6-1.9-5.5-2.6s-6.6-1-11.2-1
	s-8.3,0.3-11.2,1s-4.7,1.5-5.5,2.6c1.9,1.1,4.2,1.9,6.8,2.5C16.8,24.3,20.1,24.6,24,24.6z M19.2,40.9v-8.1h9.5v8.1
	c3.2-0.2,5.7-0.6,7.8-1.2c2-0.6,3.4-1.3,4.2-2V23c-2.2,1.1-4.8,1.9-7.6,2.4s-5.9,0.8-9.1,0.8s-6.3-0.3-9.1-0.8
	C12.1,24.8,9.5,24,7.3,23v14.7c0.7,0.7,2,1.4,3.9,2S15.8,40.7,19.2,40.9z"/>
</svg>
