<?xml version="1.0" encoding="utf-8"?>
<!-- Generator: Adobe Illustrator 26.3.1, SVG Export Plug-In . SVG Version: 6.00 Build 0)  -->
<svg version="1.1" id="Слой_1" xmlns="http://www.w3.org/2000/svg" xmlns:xlink="http://www.w3.org/1999/xlink" x="0px" y="0px"
	 viewBox="0 0 48 48" style="enable-background:new 0 0 48 48;" xml:space="preserve">
<path d="M6.8,36c-0.8,0-1.4-0.3-2-0.8C4.3,34.7,4,34,4,33.2V14.8c0-0.8,0.3-1.4,0.8-2C5.3,12.3,6,12,6.8,12h34.5
	c0.8,0,1.4,0.3,2,0.8c0.5,0.5,0.8,1.2,0.8,2v18.5c0,0.8-0.3,1.4-0.8,2c-0.5,0.5-1.2,0.8-2,0.8L6.8,36L6.8,36z M8.3,34.5v-21H6.8
	c-0.3,0-0.6,0.1-0.8,0.4c-0.3,0.3-0.4,0.5-0.4,0.8v18.5c0,0.3,0.1,0.6,0.4,0.8s0.5,0.4,0.8,0.4L8.3,34.5L8.3,34.5z M9.8,34.5h28.3
	v-21H9.8V34.5z M39.7,34.5h1.5c0.3,0,0.6-0.1,0.8-0.4c0.3-0.3,0.4-0.5,0.4-0.8V14.8c0-0.3-0.1-0.6-0.4-0.8c-0.3-0.3-0.5-0.4-0.8-0.4
	h-1.5V34.5z M8.3,13.5H5.5H8.3z M39.7,13.5h2.8H39.7z"/>
</svg>
