<?xml version="1.0" encoding="utf-8"?>
<!-- Generator: Adobe Illustrator 26.3.1, SVG Export Plug-In . SVG Version: 6.00 Build 0)  -->
<svg version="1.1" id="Слой_1" xmlns="http://www.w3.org/2000/svg" xmlns:xlink="http://www.w3.org/1999/xlink" x="0px" y="0px"
	 viewBox="0 0 48 48" style="enable-background:new 0 0 48 48;" xml:space="preserve">
<path d="M37.7,29.6c-1.4,0-2.5-0.5-3.4-1.4c-0.9-1-1.4-2.1-1.4-3.5s0.5-2.5,1.4-3.5c0.9-0.9,2.1-1.4,3.5-1.4c1.3,0,2.4,0.5,3.4,1.4
	s1.4,2.1,1.4,3.5s-0.5,2.5-1.4,3.5C40.1,29.2,39,29.6,37.7,29.6z M18.7,33.2l-1.1-1.1l6.4-6.6H5.5V24h18.6l-6.5-6.5l1.1-1.2l8.4,8.5
	C27.1,24.7,18.7,33.2,18.7,33.2z"/>
</svg>
