<?xml version="1.0" encoding="utf-8"?>
<!-- Generator: Adobe Illustrator 26.3.1, SVG Export Plug-In . SVG Version: 6.00 Build 0)  -->
<svg version="1.1" id="Слой_1" xmlns="http://www.w3.org/2000/svg" xmlns:xlink="http://www.w3.org/1999/xlink" x="0px" y="0px"
	 viewBox="0 0 48 48" style="enable-background:new 0 0 48 48;" xml:space="preserve">
<path d="M24,37c-1.3,0-2.5-0.5-3.4-1.4s-1.4-2.1-1.4-3.4c0-1.3,0.5-2.5,1.4-3.4s2.1-1.4,3.4-1.4s2.5,0.5,3.4,1.4s1.4,2.1,1.4,3.4
	s-0.5,2.5-1.4,3.4C26.4,36.5,25.3,37,24,37z M10.4,22.8c0.7-3.1,2.3-5.7,4.8-7.7s5.4-3,8.7-3c2.6,0,5,0.6,7.1,1.9s3.8,3,5.1,5.1
	v-7.3h1.5v11h-11v-1.5h8.9c-1-2.3-2.5-4.1-4.5-5.6c-2.1-1.4-4.4-2.1-7-2.1c-2.9,0-5.4,0.9-7.6,2.6s-3.6,3.9-4.4,6.6H10.4z"/>
</svg>
