<?xml version="1.0" encoding="utf-8"?>
<!-- Generator: Adobe Illustrator 26.3.1, SVG Export Plug-In . SVG Version: 6.00 Build 0)  -->
<svg version="1.1" id="Слой_1" xmlns="http://www.w3.org/2000/svg" xmlns:xlink="http://www.w3.org/1999/xlink" x="0px" y="0px"
	 viewBox="0 0 48 48" style="enable-background:new 0 0 48 48;" xml:space="preserve">
<path d="M10.8,20.2c1.1,0,2.2,0.2,3.2,0.6s2,1,2.8,1.8l18.6,17.8H38c0.7,0,1.3-0.2,1.8-0.7s0.7-1.1,0.7-1.8c0-0.3,0-0.6-0.1-1
	s-0.3-0.7-0.6-1.1l-9.1-9.1l-3.6-11l-6.5,1.6c-0.5,0.1-1,0-1.4-0.3s-0.6-0.7-0.6-1.3v-7l-2-1L8.3,18.9c-0.2,0.2-0.3,0.4-0.4,0.6
	S7.7,20,7.6,20.2H10.8z M10.8,21.8H7.4c0.1,0.5,0.2,0.9,0.4,1.3c0.2,0.4,0.5,0.8,0.8,1.1l16.6,15.1c0.4,0.4,0.9,0.7,1.4,0.9
	s1.1,0.3,1.6,0.3h4.9L15.8,23.8c-0.7-0.6-1.4-1.1-2.3-1.5C12.6,21.9,11.7,21.8,10.8,21.8z M28.3,42c-0.7,0-1.5-0.1-2.1-0.4
	c-0.7-0.3-1.3-0.7-1.9-1.2L8,25.7c-1.1-1.1-1.8-2.4-1.9-3.9s0.2-2.9,1.2-4.2L15,7.3c0.3-0.4,0.7-0.6,1.1-0.8
	c0.5-0.1,0.9-0.1,1.3,0.2l1.4,0.7c0.4,0.2,0.6,0.4,0.8,0.8c0.2,0.3,0.3,0.7,0.3,1V16l6.2-1.6c0.5-0.1,1-0.1,1.4,0.2s0.8,0.6,0.9,1.1
	L32,26l8.8,8.8c0.5,0.5,0.8,1,0.9,1.5c0.2,0.5,0.2,1.1,0.2,1.7c0,1.1-0.4,2-1.2,2.8C40.1,41.6,39.1,42,38,42H28.3z"/>
</svg>
