<?xml version="1.0" encoding="utf-8"?>
<!-- Generator: Adobe Illustrator 26.3.1, SVG Export Plug-In . SVG Version: 6.00 Build 0)  -->
<svg version="1.1" id="Слой_1" xmlns="http://www.w3.org/2000/svg" xmlns:xlink="http://www.w3.org/1999/xlink" x="0px" y="0px"
	 viewBox="0 0 48 48" style="enable-background:new 0 0 48 48;" xml:space="preserve">
<path d="M24,43c-1.3,0-2.5-0.5-3.4-1.4s-1.4-2.1-1.4-3.4c0-1.3,0.5-2.5,1.4-3.4s2.1-1.4,3.4-1.4s2.5,0.5,3.4,1.4s1.4,2.1,1.4,3.4
	c0,1.3-0.5,2.5-1.4,3.4C26.4,42.5,25.3,43,24,43z M23.2,27.8V9.4l-6.4,6.3l-1.1-1.1L24,6.4l8.3,8.3l-1.1,1.1l-6.4-6.4v18.4
	C24.8,27.8,23.2,27.8,23.2,27.8z"/>
</svg>
