<?xml version="1.0" encoding="utf-8"?>
<!-- Generator: Adobe Illustrator 26.3.1, SVG Export Plug-In . SVG Version: 6.00 Build 0)  -->
<svg version="1.1" id="Слой_1" xmlns="http://www.w3.org/2000/svg" xmlns:xlink="http://www.w3.org/1999/xlink" x="0px" y="0px"
	 viewBox="0 0 48 48" style="enable-background:new 0 0 48 48;" xml:space="preserve">
<path d="M26.9,42c-3.1,0-5.7-1.1-7.9-3.3c-2.1-2.2-3.2-4.8-3.2-7.9v-1.3c-2.5-0.2-4.7-1.2-6.4-3.1s-2.6-4.1-2.6-6.7V9h6V7h1.5v5.5
	h-1.5v-2H8.4v9.2c0,2.3,0.8,4.3,2.4,5.9s3.5,2.4,5.8,2.4s4.2-0.8,5.8-2.4c1.6-1.6,2.4-3.5,2.4-5.9v-9.2h-4.5v2h-1.5V7h1.5v2h6v10.8
	c0,2.6-0.9,4.8-2.6,6.7c-1.7,1.9-3.9,2.9-6.4,3.1v1.3c0,2.6,0.9,4.9,2.7,6.8c1.8,1.9,4.1,2.8,6.8,2.8c2.6,0,4.8-0.9,6.7-2.8
	c1.9-1.9,2.8-4.1,2.8-6.8v-3.3c-0.9-0.2-1.7-0.7-2.3-1.4c-0.6-0.7-0.9-1.6-0.9-2.6c0-1.1,0.4-2.1,1.2-2.8c0.8-0.8,1.7-1.2,2.8-1.2
	s2.1,0.4,2.8,1.2c0.8,0.8,1.2,1.7,1.2,2.8c0,1-0.3,1.8-0.9,2.6c-0.6,0.7-1.4,1.2-2.3,1.4V31c0,3.1-1.1,5.8-3.2,7.9
	C32.6,40.9,30,42,26.9,42z M37.1,26c0.7,0,1.3-0.2,1.7-0.7c0.5-0.5,0.7-1.1,0.7-1.7c0-0.7-0.2-1.3-0.7-1.7c-0.5-0.5-1.1-0.7-1.7-0.7
	s-1.3,0.2-1.7,0.7c-0.5,0.5-0.7,1.1-0.7,1.7c0,0.7,0.2,1.3,0.7,1.7C35.9,25.8,36.5,26,37.1,26z"/>
</svg>
