<?xml version="1.0" encoding="utf-8"?>
<!-- Generator: Adobe Illustrator 26.3.1, SVG Export Plug-In . SVG Version: 6.00 Build 0)  -->
<svg version="1.1" id="Слой_1" xmlns="http://www.w3.org/2000/svg" xmlns:xlink="http://www.w3.org/1999/xlink" x="0px" y="0px"
	 viewBox="0 0 48 48" style="enable-background:new 0 0 48 48;" xml:space="preserve">
<path d="M10.8,38.5h17.7v-10h10V10.8c0-0.4-0.1-0.7-0.3-0.9s-0.5-0.3-0.9-0.3H10.8c-0.4,0-0.7,0.1-0.9,0.3s-0.3,0.5-0.3,0.9v26.5
	c0,0.4,0.1,0.7,0.3,0.9C10.1,38.3,10.4,38.5,10.8,38.5z M10.8,40c-0.7,0-1.4-0.3-1.9-0.8S8,38,8,37.2V10.8c0-0.8,0.3-1.4,0.8-2
	C9.4,8.3,10,8,10.8,8h26.5c0.7,0,1.4,0.3,1.9,0.8c0.5,0.6,0.8,1.2,0.8,2v17.8L28.6,40H10.8z M16.2,26.5V25h7.5v1.5H16.2z M16.2,18.5
	V17h15.5v1.5H16.2z M9.5,38.5v-29V38.5z"/>
</svg>
