<?xml version="1.0" encoding="utf-8"?>
<!-- Generator: Adobe Illustrator 26.3.1, SVG Export Plug-In . SVG Version: 6.00 Build 0)  -->
<svg version="1.1" id="Слой_1" xmlns="http://www.w3.org/2000/svg" xmlns:xlink="http://www.w3.org/1999/xlink" x="0px" y="0px"
	 viewBox="0 0 48 48" style="enable-background:new 0 0 48 48;" xml:space="preserve">
<path d="M8,15.5h32v18.3c0,1.1-0.4,2.1-1.2,2.9C38,37.6,37,38,35.8,38H12.2c-1.1,0-2.1-0.4-2.9-1.2C8.4,36,8,35,8,33.8V15.5z
	 M9.5,17v16.8c0,0.7,0.3,1.4,0.8,1.9s1.1,0.8,1.9,0.8h23.7c0.7,0,1.4-0.3,1.9-0.8s0.8-1.1,0.8-1.9V17H9.5z M8,12.7v-1.6h11.2V9.4
	c0-0.4,0.1-0.7,0.4-1s0.6-0.4,1-0.4h6.7c0.4,0,0.7,0.1,1,0.4s0.4,0.6,0.4,1v1.8H40v1.6H8V12.7z"/>
</svg>
