<?xml version="1.0" encoding="utf-8"?>
<!-- Generator: Adobe Illustrator 26.3.1, SVG Export Plug-In . SVG Version: 6.00 Build 0)  -->
<svg version="1.1" id="Слой_1" xmlns="http://www.w3.org/2000/svg" xmlns:xlink="http://www.w3.org/1999/xlink" x="0px" y="0px"
	 viewBox="0 0 48 48" style="enable-background:new 0 0 48 48;" xml:space="preserve">
<path d="M8.8,28c-0.8,0-1.4-0.3-2-0.8C6.3,26.7,6,26,6,25.2V8.8c0-0.8,0.3-1.4,0.8-2C7.3,6.3,8,6,8.8,6h16.5c0.8,0,1.4,0.3,2,0.8
	C27.7,7.3,28,8,28,8.8v16.5c0,0.8-0.3,1.4-0.8,2c-0.5,0.5-1.2,0.8-2,0.8L8.8,28L8.8,28z M8.8,26.5h16.5c0.4,0,0.7-0.1,0.9-0.3
	c0.2-0.2,0.3-0.5,0.3-0.9V8.8c0-0.4-0.1-0.7-0.3-0.9c-0.2-0.2-0.5-0.3-0.9-0.3H8.8c-0.4,0-0.7,0.1-0.9,0.3S7.5,8.4,7.5,8.8v16.5
	c0,0.4,0.1,0.7,0.3,0.9C8.1,26.3,8.4,26.5,8.8,26.5z M16,23.7l-2.6-3.4L10.8,24h12.5l-3.8-4.9L16,23.7z M33.2,42
	c-1.3,0-2.4-0.5-3.4-1.4s-1.4-2.1-1.4-3.4c0-1.3,0.5-2.4,1.4-3.4c0.9-0.9,2.1-1.4,3.4-1.4c0.7,0,1.2,0.1,1.8,0.3s1,0.5,1.4,0.9V22.5
	H42V24h-4v13.2c0,1.3-0.5,2.4-1.4,3.4C35.7,41.5,34.5,42,33.2,42z M7.5,26.5v-19V26.5z"/>
</svg>
