<?xml version="1.0" encoding="utf-8"?>
<!-- Generator: Adobe Illustrator 26.3.1, SVG Export Plug-In . SVG Version: 6.00 Build 0)  -->
<svg version="1.1" id="Слой_1" xmlns="http://www.w3.org/2000/svg" xmlns:xlink="http://www.w3.org/1999/xlink" x="0px" y="0px"
	 viewBox="0 0 48 48" style="enable-background:new 0 0 48 48;" xml:space="preserve">
<path d="M27.5,22.6l-3.2-3.2h2.5V17l3.2,3.2C29.9,20.2,27.5,22.6,27.5,22.6z M39.7,34.9l-1.4-1.3h1.1c0.3-0.1,0.5-0.2,0.7-0.5
	c0.2-0.2,0.2-0.5,0.2-0.7V11.8c0-0.4-0.1-0.7-0.3-0.9s-0.5-0.3-0.9-0.3H15.4l-1.5-1.5h25.2c0.8,0,1.4,0.3,2,0.8
	c0.5,0.5,0.8,1.2,0.8,2v20.5c0,0.6-0.2,1.1-0.5,1.6C41,34.5,40.4,34.8,39.7,34.9z M42.8,45.2l-6.4-6.4H3.5v-1.5h31.3l-2.1-2.1H8.9
	c-0.8,0-1.4-0.3-2-0.8c-0.5-0.5-0.8-1.2-0.8-2V11.9c0-0.4,0.1-0.8,0.4-1.2C6.7,10.3,7,10,7.4,9.8L2.9,5.3L4,4.2l39.9,39.9
	C43.9,44.1,42.8,45.2,42.8,45.2z M20,22.4c-0.2,0.2-0.4,0.5-0.5,0.7c-0.1,0.3-0.2,0.6-0.2,0.9v4.5h-1.5v-4.2c0-0.6,0.1-1.2,0.3-1.7
	c0.2-0.5,0.5-0.9,0.8-1.3L8.7,11.1c-0.3,0.1-0.5,0.3-0.7,0.5S7.8,12,7.8,12.3v20.1c0,0.3,0.1,0.6,0.4,0.9c0.2,0.2,0.5,0.4,0.9,0.4
	h22.2L20,22.4z"/>
</svg>
