<?xml version="1.0" encoding="utf-8"?>
<!-- Generator: Adobe Illustrator 26.3.1, SVG Export Plug-In . SVG Version: 6.00 Build 0)  -->
<svg version="1.1" id="Слой_1" xmlns="http://www.w3.org/2000/svg" xmlns:xlink="http://www.w3.org/1999/xlink" x="0px" y="0px"
	 viewBox="0 0 48 48" style="enable-background:new 0 0 48 48;" xml:space="preserve">
<path d="M36.3,42.2c0.8-2.4,1.4-4.8,1.6-7.3c0.2-2.5,0.1-5-0.2-7.5c-0.7,3.2-2.4,5.7-4.9,7.7C30.2,37,27.3,38,24.1,38
	c-2.5,0-4.7-0.6-6.7-1.9c-1.9-1.2-3.6-2.9-4.9-4.9s-2.3-4.4-3-7s-1-5.3-1-8.1c0-1.8,0.1-3.5,0.4-5.3C9.2,9,9.6,7.3,10.1,5.7h1.6
	c-0.8,2.4-1.3,4.8-1.5,7.3s-0.2,5,0.1,7.4c0.7-3.2,2.4-5.7,5-7.7c2.6-1.9,5.5-2.9,8.8-2.9c2.5,0,4.7,0.6,6.6,1.9
	c1.9,1.2,3.5,2.9,4.9,4.9c1.3,2,2.3,4.4,3,7s1,5.3,1,8.1c0,1.8-0.1,3.5-0.4,5.3c-0.3,1.8-0.7,3.5-1.2,5.2
	C38,42.2,36.3,42.2,36.3,42.2z M24.1,36.5c3.5,0,6.4-1.2,8.8-3.6s3.6-5.4,3.6-8.8c0-3.5-1.2-6.4-3.6-8.8s-5.4-3.6-8.8-3.6
	c-3.5,0-6.4,1.2-8.8,3.6s-3.6,5.4-3.6,8.8c0,3.5,1.2,6.4,3.6,8.8C17.6,35.3,20.6,36.5,24.1,36.5z M24.1,29.8c1.6,0,3-0.6,4.1-1.7
	s1.7-2.5,1.7-4.1s-0.6-3-1.7-4.1s-2.5-1.7-4.1-1.7s-3,0.6-4.1,1.7s-1.7,2.5-1.7,4.1s0.6,3,1.7,4.1S22.5,29.8,24.1,29.8z M24.1,28.2
	c-1.2,0-2.2-0.4-3-1.2c-0.8-0.8-1.2-1.8-1.2-3s0.4-2.2,1.2-3c0.8-0.8,1.8-1.2,3-1.2s2.2,0.4,3,1.2c0.8,0.8,1.2,1.8,1.2,3
	s-0.4,2.2-1.2,3C26.2,27.8,25.2,28.2,24.1,28.2z"/>
</svg>
