<?xml version="1.0" encoding="utf-8"?>
<!-- Generator: Adobe Illustrator 26.3.1, SVG Export Plug-In . SVG Version: 6.00 Build 0)  -->
<svg version="1.1" id="Слой_1" xmlns="http://www.w3.org/2000/svg" xmlns:xlink="http://www.w3.org/1999/xlink" x="0px" y="0px"
	 viewBox="0 0 48 48" style="enable-background:new 0 0 48 48;" xml:space="preserve">
<path d="M8.8,34c-0.8,0-1.4-0.3-2-0.8C6.3,32.7,6,32,6,31.2V16.8c0-0.8,0.3-1.4,0.8-2C7.3,14.3,8,14,8.8,14h30.5
	c0.8,0,1.4,0.3,2,0.8c0.5,0.5,0.8,1.2,0.8,2v14.5c0,0.8-0.3,1.4-0.8,2c-0.5,0.5-1.2,0.8-2,0.8L8.8,34L8.8,34z M8.8,32.5h30.5
	c0.3,0,0.6-0.1,0.8-0.4c0.3-0.3,0.4-0.5,0.4-0.8V16.8c0-0.3-0.1-0.6-0.4-0.8c-0.3-0.3-0.5-0.4-0.8-0.4h-6v6.9h-1.5v-6.9h-6.9v6.9
	h-1.5v-6.9h-6.9v6.9H15v-6.9H9c-0.3,0-0.6,0.1-0.8,0.4c-0.3,0.3-0.4,0.5-0.4,0.8v14.5c0,0.3,0.1,0.6,0.4,0.8
	C8.2,32.3,8.5,32.5,8.8,32.5z M14.8,22.5h1.5H14.8z M23.2,22.5h1.5H23.2z M31.7,22.5h1.5H31.7z"/>
</svg>
