<?xml version="1.0" encoding="utf-8"?>
<!-- Generator: Adobe Illustrator 26.3.1, SVG Export Plug-In . SVG Version: 6.00 Build 0)  -->
<svg version="1.1" id="Слой_1" xmlns="http://www.w3.org/2000/svg" xmlns:xlink="http://www.w3.org/1999/xlink" x="0px" y="0px"
	 viewBox="0 0 48 48" style="enable-background:new 0 0 48 48;" xml:space="preserve">
<path d="M12,21.7l-6-3.4v-6.8L12,8l6,3.4v6.8L12,21.7z M12,19.9l4.5-2.6v-5L12,9.8l-4.5,2.6v5L12,19.9z M32.3,21.2v-1.8l5.7,3.3
	v12.8L27,42l-11-6.4V22.7l5.7-3.3v1.8l-4.2,2.5v11.1l9.5,5.5l9.5-5.5V23.6L32.3,21.2z M26.2,27.5V6H42l-3.2,4.8l3.2,4.8H27.8v12
	C27.8,27.5,26.2,27.5,26.2,27.5z"/>
</svg>
