<?xml version="1.0" encoding="utf-8"?>
<!-- Generator: Adobe Illustrator 26.3.1, SVG Export Plug-In . SVG Version: 6.00 Build 0)  -->
<svg version="1.1" id="Слой_1" xmlns="http://www.w3.org/2000/svg" xmlns:xlink="http://www.w3.org/1999/xlink" x="0px" y="0px"
	 viewBox="0 0 48 48" style="enable-background:new 0 0 48 48;" xml:space="preserve">
<path d="M7.3,26.3c-0.6,0-1.2-0.2-1.6-0.7C5.2,25.2,5,24.6,5,24s0.2-1.2,0.7-1.6s1-0.7,1.6-0.7s1.2,0.2,1.6,0.7s0.7,1,0.7,1.6
	s-0.2,1.2-0.7,1.6C8.5,26.1,7.9,26.3,7.3,26.3z M10.8,38.3l-1.1-1.1l7.3-7.3l1.1,1.1C18.1,31,10.8,38.3,10.8,38.3z M17,18l-7.3-7.3
	l1.1-1.1l7.3,7.3L17,18z M24,43c-0.6,0-1.2-0.2-1.6-0.7s-0.7-1-0.7-1.6s0.2-1.2,0.7-1.6c0.5-0.4,1-0.7,1.6-0.7s1.2,0.2,1.6,0.7
	s0.7,1,0.7,1.6s-0.2,1.2-0.7,1.6C25.2,42.8,24.6,43,24,43z M24,9.6c-0.6,0-1.2-0.2-1.6-0.7s-0.7-1-0.7-1.6s0.2-1.2,0.7-1.6
	C22.8,5.2,23.4,5,24,5s1.2,0.2,1.6,0.7s0.7,1,0.7,1.6s-0.2,1.2-0.7,1.6C25.2,9.4,24.6,9.6,24,9.6z M31,18l-1.1-1.1l7.3-7.3l1.1,1.1
	L31,18z M37.2,38.2L29.9,31l1.1-1.1l7.3,7.3C38.3,37.1,37.2,38.2,37.2,38.2z M40.7,26.3c-0.6,0-1.2-0.2-1.6-0.7
	c-0.4-0.5-0.7-1-0.7-1.6s0.2-1.2,0.7-1.6s1-0.7,1.6-0.7s1.2,0.2,1.6,0.7c0.4,0.5,0.7,1,0.7,1.6s-0.2,1.2-0.7,1.6
	C41.9,26.1,41.3,26.3,40.7,26.3z"/>
</svg>
