<?xml version="1.0" encoding="utf-8"?>
<!-- Generator: Adobe Illustrator 26.3.1, SVG Export Plug-In . SVG Version: 6.00 Build 0)  -->
<svg version="1.1" id="Слой_1" xmlns="http://www.w3.org/2000/svg" xmlns:xlink="http://www.w3.org/1999/xlink" x="0px" y="0px"
	 viewBox="0 0 48 48" style="enable-background:new 0 0 48 48;" xml:space="preserve">
<path d="M24,31.2c2,0,4.1-0.3,6.5-1c2.3-0.7,5.5-1.9,9.6-3.7c0.1-0.6,0.2-1.1,0.3-1.7c0.1-0.5,0.1-1.1,0.1-1.7c0-0.5-0.2-1-0.6-1.3
	c-0.4-0.3-0.9-0.4-1.4-0.3c-0.5,0.2-1,0.4-1.6,0.6s-1.3,0.5-2.2,0.8c-2.3,0.9-4.2,1.6-5.8,2c-1.6,0.4-3.2,0.6-4.9,0.6
	c-1.7,0-3.4-0.2-5.1-0.6c-1.6-0.4-3.6-1.1-6-2c-0.9-0.4-1.6-0.6-2-0.8c-0.5-0.2-0.9-0.4-1.4-0.5c-0.5-0.2-0.9-0.1-1.4,0.2
	c-0.4,0.3-0.6,0.8-0.6,1.3c0,0.6,0,1.2,0.1,1.7c0.1,0.6,0.2,1.1,0.3,1.7c3.4,1.5,6.4,2.7,9.1,3.5C19.7,30.8,22,31.2,24,31.2z
	 M24,38.5c3.7,0,6.9-0.9,9.7-2.8c2.8-1.8,4.7-4.3,5.9-7.2c-3.4,1.5-6.3,2.6-8.7,3.3c-2.4,0.7-4.7,1-6.9,1c-2.1,0-4.5-0.4-7.1-1.1
	c-2.6-0.7-5.4-1.8-8.5-3.2c1.1,3,3,5.4,5.8,7.2C17,37.5,20.2,38.5,24,38.5z M24,20c-1.9,0-3.6-0.7-5-2c-1.4-1.4-2-3-2-5s0.7-3.6,2-5
	c1.4-1.4,3-2,5-2s3.6,0.7,5,2c1.4,1.4,2,3,2,5s-0.7,3.6-2,5C27.6,19.3,25.9,20,24,20z M24,18.5c1.5,0,2.8-0.5,3.9-1.6
	s1.6-2.4,1.6-3.9s-0.5-2.8-1.6-3.9S25.5,7.5,24,7.5S21.2,8,20.1,9.1s-1.6,2.4-1.6,3.9s0.5,2.8,1.6,3.9C21.2,17.9,22.5,18.5,24,18.5z
	 M24,40c-5.3,0-9.6-1.6-12.9-4.7C7.7,32.2,6,28.2,6,23.1c0-1.1,0.4-1.9,1.2-2.6C8.1,20,9,19.8,10,20.1c0.5,0.2,1,0.3,1.6,0.6
	c0.6,0.2,1.2,0.5,2,0.8c2.3,0.9,4.2,1.6,5.7,2S22.4,24,24,24s3.1-0.2,4.6-0.5s3.3-1,5.6-1.9c0.9-0.4,1.7-0.7,2.2-0.9
	c0.6-0.2,1.1-0.4,1.6-0.6c1-0.3,1.9-0.1,2.7,0.5s1.2,1.5,1.2,2.5c0,2.4-0.5,4.6-1.4,6.6s-2.2,3.8-3.8,5.3s-3.5,2.7-5.7,3.6
	S26.5,40,24,40z"/>
</svg>
