<?xml version="1.0" encoding="utf-8"?>
<!-- Generator: Adobe Illustrator 26.3.1, SVG Export Plug-In . SVG Version: 6.00 Build 0)  -->
<svg version="1.1" id="Слой_1" xmlns="http://www.w3.org/2000/svg" xmlns:xlink="http://www.w3.org/1999/xlink" x="0px" y="0px"
	 viewBox="0 0 48 48" style="enable-background:new 0 0 48 48;" xml:space="preserve">
<path d="M18,42c-1.3,0-2.5-0.5-3.4-1.4s-1.4-2-1.4-3.4c0-1.3,0.5-2.5,1.4-3.4s2-1.4,3.4-1.4s2.5,0.5,3.4,1.4s1.4,2,1.4,3.4
	c0,1.3-0.5,2.5-1.4,3.4C20.5,41.6,19.3,42,18,42z M26.3,35.2c-0.3-1-0.7-2-1.3-2.8c-0.6-0.9-1.3-1.6-2.2-2.2l7.1-7H12.6
	c-0.8,0-1.4-0.3-1.9-0.9C10.2,21.7,10,21,10,20.2c0-0.5,0.1-0.9,0.4-1.3c0.2-0.4,0.6-0.7,0.9-0.9L33.5,4c0.3-0.2,0.6-0.2,1-0.1
	c0.3,0.1,0.6,0.3,0.8,0.6c0.2,0.3,0.2,0.6,0.2,1c-0.1,0.3-0.3,0.6-0.5,0.8L15,19.2h20.4c0.7,0,1.3,0.2,1.8,0.7s0.7,1.1,0.7,1.8
	c0,0.4,0,0.9-0.1,1.3s-0.3,0.8-0.6,1.1C37.3,24.2,26.3,35.2,26.3,35.2z"/>
</svg>
