<?xml version="1.0" encoding="utf-8"?>
<!-- Generator: Adobe Illustrator 26.3.1, SVG Export Plug-In . SVG Version: 6.00 Build 0)  -->
<svg version="1.1" id="Слой_1" xmlns="http://www.w3.org/2000/svg" xmlns:xlink="http://www.w3.org/1999/xlink" x="0px" y="0px"
	 viewBox="0 0 48 48" style="enable-background:new 0 0 48 48;" xml:space="preserve">
<path d="M10,39.8c-0.6,0.1-1.1,0-1.5-0.4C8.2,39,8,38.5,8.2,38l1.3-6.5l7.1,7.1C16.6,38.5,10,39.8,10,39.8z M16.6,38.5l-7.1-7.1
	L31.8,9.1c0.5-0.5,1.2-0.8,1.9-0.8c0.8,0,1.4,0.3,1.9,0.8l3.2,3.2c0.5,0.5,0.8,1.2,0.8,1.9s-0.3,1.4-0.8,1.9L16.6,38.5z M32.9,10.3
	L12.1,31l4.9,4.9l20.8-20.8c0.2-0.2,0.3-0.5,0.3-0.9c0-0.3-0.1-0.6-0.3-0.9l-3.1-3.1c-0.2-0.2-0.5-0.3-0.9-0.3
	C33.4,9.9,33.1,10,32.9,10.3z"/>
</svg>
