<?xml version="1.0" encoding="utf-8"?>
<!-- Generator: Adobe Illustrator 26.3.1, SVG Export Plug-In . SVG Version: 6.00 Build 0)  -->
<svg version="1.1" id="Слой_1" xmlns="http://www.w3.org/2000/svg" xmlns:xlink="http://www.w3.org/1999/xlink" x="0px" y="0px"
	 viewBox="0 0 48 48" style="enable-background:new 0 0 48 48;" xml:space="preserve">
<path d="M15.5,42V30.4h-4.1c-0.9,0-1.8-0.3-2.4-1C8.3,28.8,8,28,8,27c0-0.7,0.2-1.4,0.5-2c0.4-0.6,0.9-1.1,1.5-1.3l13.3-5.8V15
	c-1.1-0.2-2.1-0.7-2.8-1.5c-0.7-0.9-1.1-1.8-1.1-3c0-1.3,0.4-2.3,1.3-3.2c1-0.9,2-1.3,3.3-1.3s2.3,0.4,3.2,1.3
	c0.9,0.9,1.3,2,1.3,3.2H27c0-0.8-0.3-1.6-0.8-2.1c-0.6-0.6-1.3-0.9-2.1-0.9c-0.8,0-1.6,0.3-2.1,0.9c-0.7,0.6-1,1.3-1,2.1
	c0,0.9,0.3,1.6,0.9,2.2c0.6,0.6,1.3,0.9,2.2,0.9c0.2,0,0.4,0.1,0.5,0.2c0.1,0.1,0.2,0.3,0.2,0.5v3.6l13.1,5.8
	c0.6,0.3,1.1,0.7,1.5,1.3c0.4,0.6,0.6,1.3,0.6,2c0,1-0.3,1.8-1,2.4c-0.7,0.7-1.5,1-2.5,1h-4V42H15.5z M11.4,28.9h4.1v-2.1h17v2.1h4
	c0.5,0,1-0.2,1.4-0.5c0.4-0.4,0.6-0.8,0.6-1.3c0-0.4-0.1-0.8-0.3-1.1c-0.2-0.3-0.5-0.6-0.8-0.8l-13.3-6l-13.4,6
	c-0.3,0.2-0.6,0.4-0.8,0.8c-0.2,0.3-0.3,0.7-0.3,1.1c0,0.5,0.2,1,0.5,1.3C10.4,28.7,10.9,28.9,11.4,28.9z M17,40.5h14V28.3H17V40.5z
	 M17,28.3h14H17z"/>
</svg>
