<?xml version="1.0" encoding="utf-8"?>
<!-- Generator: Adobe Illustrator 26.3.1, SVG Export Plug-In . SVG Version: 6.00 Build 0)  -->
<svg version="1.1" id="Слой_1" xmlns="http://www.w3.org/2000/svg" xmlns:xlink="http://www.w3.org/1999/xlink" x="0px" y="0px"
	 viewBox="0 0 48 48" style="enable-background:new 0 0 48 48;" xml:space="preserve">
<path d="M39,41.6L35.5,38H8.8c-0.8,0-1.4-0.3-2-0.8C6.3,36.7,6,36,6,35.2V12.8c0-0.8,0.3-1.4,0.8-2C7.3,10.3,8,10,8.8,10h0.9
	l1.5,1.5H8.8c-0.3,0-0.6,0.1-0.8,0.4c-0.3,0.3-0.4,0.5-0.4,0.8v22.5c0,0.4,0.1,0.7,0.3,0.9s0.5,0.3,0.9,0.3H34l-6.4-6.3H13.2v-1.5
	h13l-21-21l1.1-1.1l33.9,33.9C40.1,40.5,39,41.6,39,41.6z M41.6,36.9l-1.1-1.2v-23c0-0.4-0.1-0.7-0.3-0.9s-0.5-0.3-0.9-0.3h-23
	L14.7,10h24.5c0.8,0,1.4,0.3,2,0.8c0.5,0.5,0.8,1.2,0.8,2v22.5c0,0.3,0,0.6-0.1,0.9C41.8,36.4,41.7,36.7,41.6,36.9z M28.6,23.9
	l-1.5-1.5h7.8v1.5H28.6z M13.2,23.9v-1.5h1.5v1.5H13.2z"/>
</svg>
