<?xml version="1.0" encoding="utf-8"?>
<!-- Generator: Adobe Illustrator 26.3.1, SVG Export Plug-In . SVG Version: 6.00 Build 0)  -->
<svg version="1.1" id="Слой_1" xmlns="http://www.w3.org/2000/svg" xmlns:xlink="http://www.w3.org/1999/xlink" x="0px" y="0px"
	 viewBox="0 0 48 48" style="enable-background:new 0 0 48 48;" xml:space="preserve">
<path d="M6,42V17.5c0-2.3,0.6-4.4,1.9-6.1c1.2-1.8,3-3.1,5.1-4c1.6-0.6,3.4-1,5.4-1.2S22.2,6,24,6s3.6,0.1,5.6,0.2
	c2,0.2,3.8,0.5,5.4,1.2c2.2,0.9,3.9,2.2,5.2,4s1.8,3.8,1.8,6.1V42H6z M17.1,40.5h13.8l-3.5-3.8h-6.8C20.6,36.7,17.1,40.5,17.1,40.5z
	 M14.7,26.8h18.7V18H14.7C14.7,17.9,14.7,26.8,14.7,26.8z M30.2,32.7c0.5,0,0.8-0.2,1.1-0.5c0.3-0.3,0.5-0.7,0.5-1.1
	c0-0.5-0.2-0.8-0.5-1.1c-0.3-0.3-0.7-0.5-1.1-0.5c-0.5,0-0.8,0.2-1.1,0.5c-0.3,0.3-0.5,0.7-0.5,1.1s0.2,0.8,0.5,1.1
	C29.3,32.5,29.7,32.7,30.2,32.7z M17.9,32.7c0.5,0,0.8-0.2,1.1-0.5c0.3-0.3,0.5-0.7,0.5-1.1c0-0.5-0.2-0.8-0.5-1.1
	c-0.3-0.3-0.7-0.5-1.1-0.5s-0.8,0.2-1.1,0.5c-0.3,0.3-0.5,0.7-0.5,1.1s0.2,0.8,0.5,1.1C17,32.5,17.4,32.7,17.9,32.7z M7.5,40.5h8.2
	v-1l2.6-2.9c-1.4-0.1-2.6-0.6-3.6-1.5c-1-1-1.5-2.3-1.5-4.1V17.9c0-1.8,1-3.1,2.9-3.7c2-0.7,4.6-1,7.8-1s5.8,0.3,7.8,1s3,1.9,3,3.7
	V31c0,1.7-0.5,3-1.4,4s-2.2,1.5-3.7,1.6l2.6,2.9v1h8.2v-23c0-2.1-0.5-3.9-1.5-5.3s-2.5-2.5-4.6-3.3c-1.5-0.6-3.2-1-5-1.1
	s-3.6-0.2-5.4-0.2c-1.7,0-3.5,0.1-5.4,0.2c-1.8,0.1-3.5,0.5-5,1.1c-2,0.8-3.5,1.9-4.6,3.3c-1,1.4-1.5,3.2-1.5,5.3
	C7.5,17.5,7.5,40.5,7.5,40.5z M7.5,40.5h32.9C40.5,40.5,7.5,40.5,7.5,40.5z"/>
</svg>
