<?xml version="1.0" encoding="utf-8"?>
<!-- Generator: Adobe Illustrator 26.3.1, SVG Export Plug-In . SVG Version: 6.00 Build 0)  -->
<svg version="1.1" id="Слой_1" xmlns="http://www.w3.org/2000/svg" xmlns:xlink="http://www.w3.org/1999/xlink" x="0px" y="0px"
	 viewBox="0 0 48 48" style="enable-background:new 0 0 48 48;" xml:space="preserve">
<path d="M15.7,17.1c0.4,0,0.7-0.1,1-0.4c0.3-0.3,0.4-0.6,0.4-1s-0.1-0.7-0.4-1s-0.6-0.4-1-0.4s-0.7,0.1-1,0.4
	c-0.3,0.3-0.4,0.6-0.4,1s0.1,0.7,0.4,1C15.1,17,15.4,17.1,15.7,17.1z M15.7,25.4c0.4,0,0.7-0.1,1-0.4c0.3-0.3,0.4-0.6,0.4-1
	s-0.1-0.7-0.4-1s-0.6-0.4-1-0.4s-0.7,0.1-1,0.4s-0.4,0.6-0.4,1s0.1,0.7,0.4,1S15.4,25.4,15.7,25.4z M15.7,33.6c0.4,0,0.7-0.1,1-0.4
	c0.3-0.3,0.4-0.6,0.4-1c0-0.4-0.1-0.7-0.4-1s-0.6-0.4-1-0.4s-0.7,0.1-1,0.4s-0.4,0.6-0.4,1c0,0.4,0.1,0.7,0.4,1
	C15.1,33.5,15.4,33.6,15.7,33.6z M10.8,40c-0.8,0-1.4-0.3-2-0.8C8.3,38.7,8,38,8,37.2V10.8c0-0.8,0.3-1.4,0.8-2C9.3,8.3,10,8,10.8,8
	h20.4l8.8,8.8v20.4c0,0.8-0.3,1.4-0.8,2c-0.5,0.5-1.2,0.8-2,0.8C37.2,40,10.8,40,10.8,40z M10.8,38.5h26.5c0.4,0,0.7-0.1,0.9-0.3
	s0.3-0.5,0.3-0.9V17.8h-8.2V9.5H10.8c-0.4,0-0.7,0.1-0.9,0.3s-0.3,0.5-0.3,0.9v26.5c0,0.4,0.1,0.7,0.3,0.9
	C10.1,38.3,10.4,38.5,10.8,38.5z M9.5,9.5v8.3V9.5v28.9V9.5z"/>
</svg>
