<?xml version="1.0" encoding="utf-8"?>
<!-- Generator: Adobe Illustrator 26.3.1, SVG Export Plug-In . SVG Version: 6.00 Build 0)  -->
<svg version="1.1" id="Слой_1" xmlns="http://www.w3.org/2000/svg" xmlns:xlink="http://www.w3.org/1999/xlink" x="0px" y="0px"
	 viewBox="0 0 48 48" style="enable-background:new 0 0 48 48;" xml:space="preserve">
<path d="M4.5,26.3v-1.5h6v1.5H4.5z M13.9,16.5l-4.3-4.3l1.1-1.1l4.2,4.3L13.9,16.5z M12,36.2c-0.4,0-0.7-0.1-1-0.4
	c-0.3-0.3-0.4-0.6-0.4-1s0.1-0.7,0.4-1s0.6-0.4,1-0.4s0.7,0.1,1,0.4c0.3,0.3,0.4,0.6,0.4,1s-0.1,0.7-0.4,1
	C12.7,36.1,12.4,36.2,12,36.2z M16.2,26.3v-0.8c0-2.2,0.8-4,2.3-5.5s3.3-2.3,5.5-2.3s4,0.8,5.5,2.3s2.3,3.3,2.3,5.5v0.8h-1.5v-0.8
	c0-1.7-0.6-3.2-1.8-4.4c-1.2-1.2-2.7-1.8-4.4-1.8c-1.7,0-3.2,0.6-4.4,1.8c-1.2,1.2-1.8,2.7-1.8,4.4v0.8
	C17.8,26.3,16.2,26.3,16.2,26.3z M18,44.4c-0.4,0-0.7-0.1-1-0.4c-0.3-0.3-0.4-0.6-0.4-1s0.1-0.7,0.4-1s0.6-0.4,1-0.4s0.7,0.1,1,0.4
	s0.4,0.6,0.4,1s-0.1,0.7-0.4,1S18.4,44.4,18,44.4z M24,36.2c-0.4,0-0.7-0.1-1-0.4c-0.3-0.3-0.4-0.6-0.4-1s0.1-0.7,0.4-1
	s0.6-0.4,1-0.4s0.7,0.1,1,0.4c0.3,0.3,0.4,0.6,0.4,1s-0.1,0.7-0.4,1S24.4,36.2,24,36.2z M23.2,12V6h1.5v6H23.2z M30,44.4
	c-0.4,0-0.7-0.1-1-0.4c-0.3-0.3-0.4-0.6-0.4-1s0.1-0.7,0.4-1s0.6-0.4,1-0.4s0.7,0.1,1,0.4c0.3,0.3,0.4,0.6,0.4,1s-0.1,0.7-0.4,1
	S30.4,44.4,30,44.4z M34.1,16.5L33,15.4l4.3-4.3l1.1,1.1L34.1,16.5z M36,36.2c-0.4,0-0.7-0.1-1-0.4c-0.3-0.3-0.4-0.6-0.4-1
	s0.1-0.7,0.4-1c0.3-0.3,0.6-0.4,1-0.4s0.7,0.1,1,0.4c0.3,0.3,0.4,0.6,0.4,1s-0.1,0.7-0.4,1S36.4,36.2,36,36.2z M37.5,26.3v-1.5h6
	v1.5H37.5z"/>
</svg>
