<?xml version="1.0" encoding="utf-8"?>
<!-- Generator: Adobe Illustrator 26.3.1, SVG Export Plug-In . SVG Version: 6.00 Build 0)  -->
<svg version="1.1" id="Слой_1" xmlns="http://www.w3.org/2000/svg" xmlns:xlink="http://www.w3.org/1999/xlink" x="0px" y="0px"
	 viewBox="0 0 48 48" style="enable-background:new 0 0 48 48;" xml:space="preserve">
<path d="M37,17.3v-2.9c0-0.4,0.1-0.7,0.4-1c0.3-0.3,0.6-0.4,1-0.4h3.9v-1.7H37V10h5.2c0.4,0,0.7,0.1,1,0.4c0.3,0.3,0.4,0.6,0.4,1
	v1.5c0,0.4-0.1,0.7-0.4,1c-0.3,0.3-0.6,0.4-1,0.4h-3.9V16h5.2v1.3H37z M14,38l8.4-12.9l-7.7-11.8h2.1L23.7,24l0,0l7.1-10.7h2.1
	l-7.8,11.8L33.5,38h-2.1l-7.7-11.8l0,0L16.1,38H14z"/>
</svg>
