<?xml version="1.0" encoding="utf-8"?>
<!-- Generator: Adobe Illustrator 26.3.1, SVG Export Plug-In . SVG Version: 6.00 Build 0)  -->
<svg version="1.1" id="Слой_1" xmlns="http://www.w3.org/2000/svg" xmlns:xlink="http://www.w3.org/1999/xlink" x="0px" y="0px"
	 viewBox="0 0 48 48" style="enable-background:new 0 0 48 48;" xml:space="preserve">
<path d="M33.9,26.8c-1.1,0-2-0.4-2.7-1.1C30.4,24.9,30,24,30,22.9s0.4-2,1.1-2.7c0.8-0.8,1.7-1.1,2.7-1.1c1.1,0,2,0.4,2.7,1.1
	c0.7,0.8,1.1,1.7,1.1,2.7c0,1.1-0.4,2-1.1,2.8C35.9,26.4,34.9,26.8,33.9,26.8z M24.9,37.2v-1.7c0-0.6,0.1-1.2,0.4-1.7
	s0.7-0.8,1.2-1.1c1.1-0.5,2.3-0.9,3.5-1.2c1.2-0.3,2.5-0.4,3.8-0.4s2.5,0.1,3.7,0.4s2.4,0.7,3.6,1.2c0.5,0.2,0.9,0.6,1.2,1.1
	s0.4,1,0.4,1.7v1.7C42.8,37.2,24.9,37.2,24.9,37.2z M19.2,22.8c-1.7,0-3-0.5-4.1-1.6C14,20,13.5,18.6,13.5,17c0-1.7,0.5-3,1.6-4.1
	s2.5-1.6,4.1-1.6s3,0.5,4.1,1.6s1.6,2.5,1.6,4.1c0,1.7-0.5,3-1.6,4.1C22.3,22.2,20.9,22.8,19.2,22.8z M5.2,37.2v-2.9
	c0-0.9,0.2-1.7,0.7-2.4c0.5-0.7,1.1-1.3,2-1.6c1.9-0.9,3.8-1.5,5.6-2c1.8-0.4,3.7-0.7,5.6-0.7c0.8,0,1.5,0,2.1,0.1
	c0.7,0,1.3,0.1,2,0.2c-0.2,0.2-0.4,0.4-0.7,0.7c-0.2,0.2-0.4,0.5-0.7,0.7c-0.4,0-0.9-0.1-1.4-0.1s-1,0-1.5,0c-1.8,0-3.5,0.2-5.3,0.5
	c-1.7,0.4-3.5,1-5.3,1.9c-0.5,0.3-0.9,0.6-1.3,1.1s-0.6,1-0.6,1.6v1.4h13.1v1.5C19.9,37.2,5.2,37.2,5.2,37.2z M19.2,21.2
	c1.2,0,2.2-0.4,3-1.2c0.8-0.8,1.2-1.8,1.2-3s-0.4-2.2-1.2-3c-0.8-0.8-1.8-1.2-3-1.2s-2.2,0.4-3,1.2c-0.8,0.8-1.2,1.8-1.2,3
	s0.4,2.2,1.2,3C17,20.8,18,21.2,19.2,21.2z"/>
</svg>
