<?xml version="1.0" encoding="utf-8"?>
<!-- Generator: Adobe Illustrator 26.3.1, SVG Export Plug-In . SVG Version: 6.00 Build 0)  -->
<svg version="1.1" id="Слой_1" xmlns="http://www.w3.org/2000/svg" xmlns:xlink="http://www.w3.org/1999/xlink" x="0px" y="0px"
	 viewBox="0 0 48 48" style="enable-background:new 0 0 48 48;" xml:space="preserve">
<path d="M21.8,40.4c1.5-2.6,3.4-4.3,5.6-5.3s4.2-1.5,5.9-1.5c0.7,0,1.3,0,1.9,0.1c0.6,0.1,1.2,0.2,1.8,0.4c0.9-1.1,1.7-2.6,2.4-4.3
	c0.7-1.8,1-3.7,1-5.7c0-4.6-1.6-8.5-4.8-11.7c-3.1-3.3-7-4.9-11.6-4.9s-8.5,1.6-11.7,4.8S7.5,19.4,7.5,24c0,1.8,0.3,3.6,0.8,5.2
	c0.6,1.6,1.3,3.1,2.2,4.4c1.3-0.8,2.5-1.3,3.8-1.7c1.3-0.3,2.6-0.5,4.1-0.5c0.8,0,1.6,0.1,2.3,0.2c0.8,0.1,1.3,0.2,1.8,0.4
	c-0.2,0.2-0.5,0.4-0.7,0.6c-0.2,0.2-0.5,0.4-0.7,0.6c-0.3-0.1-0.7-0.1-1.2-0.2c-0.5,0-1-0.1-1.5-0.1c-1.2,0-2.5,0.1-3.7,0.4
	c-1.2,0.3-2.3,0.7-3.3,1.4c1.3,1.5,2.9,2.8,4.7,3.7C18,39.5,19.9,40.1,21.8,40.4z M24,42c-2.5,0-4.8-0.5-7-1.4s-4.1-2.2-5.7-3.9
	c-1.6-1.6-2.9-3.5-3.9-5.7C6.5,28.8,6,26.5,6,24s0.5-4.8,1.4-7s2.2-4.1,3.9-5.7c1.6-1.6,3.5-2.9,5.7-3.9C19.2,6.5,21.5,6,24,6
	s4.8,0.5,7,1.4s4.1,2.2,5.7,3.9c1.6,1.6,2.9,3.5,3.9,5.7c0.9,2.2,1.4,4.5,1.4,7s-0.5,4.8-1.4,7s-2.2,4.1-3.9,5.7
	c-1.6,1.6-3.5,2.9-5.7,3.9C28.8,41.5,26.5,42,24,42z M18.8,26c-1.6,0-3.1-0.6-4.2-1.7c-1.2-1.2-1.7-2.6-1.7-4.2
	c0-1.7,0.6-3.1,1.7-4.2s2.6-1.7,4.2-1.7s3.1,0.6,4.2,1.7c1.2,1.2,1.7,2.6,1.7,4.2s-0.6,3.1-1.7,4.2S20.5,26,18.8,26z M18.8,24.5
	c1.2,0,2.3-0.4,3.1-1.3c0.8-0.9,1.3-1.9,1.3-3.1s-0.4-2.3-1.3-3.1c-0.8-0.9-1.9-1.3-3.1-1.3s-2.3,0.4-3.1,1.3
	c-0.8,0.9-1.3,1.9-1.3,3.1s0.4,2.2,1.3,3.1C16.6,24,17.6,24.5,18.8,24.5z M33.3,28.9c-1.4,0-2.5-0.5-3.5-1.4s-1.4-2.1-1.4-3.5
	s0.5-2.5,1.4-3.5c1-1,2.1-1.4,3.5-1.4c1.4,0,2.5,0.5,3.5,1.4c1,1,1.4,2.1,1.4,3.5s-0.5,2.5-1.4,3.5C35.9,28.4,34.7,28.9,33.3,28.9z"
	/>
</svg>
