<?xml version="1.0" encoding="utf-8"?>
<!-- Generator: Adobe Illustrator 26.3.1, SVG Export Plug-In . SVG Version: 6.00 Build 0)  -->
<svg version="1.1" id="Слой_1" xmlns="http://www.w3.org/2000/svg" xmlns:xlink="http://www.w3.org/1999/xlink" x="0px" y="0px"
	 viewBox="0 0 48 48" style="enable-background:new 0 0 48 48;" xml:space="preserve">
<path d="M24,42c-2.5,0-4.8-0.5-7-1.4s-4.1-2.2-5.7-3.8s-2.9-3.5-3.8-5.7C6.5,28.8,6,26.5,6,24s0.5-4.8,1.4-7s2.2-4.1,3.8-5.7
	s3.5-2.9,5.7-3.8C19.2,6.5,21.5,6,24,6s4.8,0.5,7,1.4s4.1,2.2,5.7,3.8c1.6,1.6,2.9,3.5,3.8,5.7c0.9,2.2,1.4,4.5,1.4,7
	s-0.5,4.8-1.4,7s-2.2,4.1-3.8,5.7s-3.5,2.9-5.7,3.8C28.8,41.5,26.5,42,24,42z M18.1,39.4l3.8-8.8c-1-0.4-1.9-0.9-2.7-1.7
	c-0.8-0.8-1.3-1.7-1.7-2.8l-9,3.6c0.9,2.3,2.2,4.2,3.9,5.9C14,37.3,15.9,38.6,18.1,39.4z M17.5,21.8c0.3-1.1,0.8-2,1.6-2.7
	c0.8-0.7,1.7-1.3,2.7-1.6l-3.6-9c-2.3,0.9-4.3,2.2-6,3.9S9.3,16,8.5,18.2L17.5,21.8z M24,29.4c1.5,0,2.8-0.5,3.8-1.6
	c1.1-1,1.6-2.3,1.6-3.8s-0.5-2.8-1.6-3.8c-1-1.1-2.3-1.6-3.8-1.6s-2.8,0.5-3.8,1.6c-1.1,1-1.6,2.3-1.6,3.8s0.5,2.8,1.6,3.8
	C21.2,28.9,22.5,29.4,24,29.4z M29.9,39.4c2.2-0.9,4.1-2.1,5.7-3.8c1.6-1.6,2.9-3.6,3.8-5.7l-8.8-3.8c-0.3,1.1-0.9,2-1.7,2.8
	c-0.8,0.8-1.7,1.3-2.7,1.7C26.2,30.5,29.9,39.4,29.9,39.4z M30.5,21.7l8.9-3.7c-0.9-2.2-2.1-4.1-3.8-5.7c-1.6-1.6-3.5-2.9-5.7-3.8
	l-3.7,8.9c1,0.4,1.8,0.9,2.5,1.7C29.6,19.8,30.1,20.7,30.5,21.7z"/>
</svg>
