<?xml version="1.0" encoding="utf-8"?>
<!-- Generator: Adobe Illustrator 26.3.1, SVG Export Plug-In . SVG Version: 6.00 Build 0)  -->
<svg version="1.1" id="Слой_1" xmlns="http://www.w3.org/2000/svg" xmlns:xlink="http://www.w3.org/1999/xlink" x="0px" y="0px"
	 viewBox="0 0 48 48" style="enable-background:new 0 0 48 48;" xml:space="preserve">
<path d="M24.1,28.4c1.2,0,2.3-0.4,3.1-1.3c0.9-0.9,1.3-1.9,1.3-3.1s-0.4-2.3-1.3-3.1c-0.9-0.9-1.9-1.3-3.1-1.3S21.8,20,21,20.9
	c-0.9,0.9-1.3,1.9-1.3,3.1s0.4,2.3,1.3,3.1C21.8,28,22.8,28.4,24.1,28.4z M33.8,32.3c1-1.1,1.7-2.4,2.3-3.8c0.5-1.4,0.8-2.9,0.8-4.4
	s-0.3-3-0.8-4.4s-1.3-2.7-2.3-3.9l-1.1,1.1c0.8,1,1.4,2.2,1.9,3.4c0.5,1.2,0.7,2.5,0.7,3.8s-0.2,2.6-0.7,3.8
	c-0.5,1.2-1.1,2.3-1.9,3.4L33.8,32.3z M14.4,32.3l1.1-1.1c-0.8-1-1.5-2.1-1.9-3.4c-0.4-1.2-0.7-2.5-0.7-3.8s0.2-2.6,0.7-3.8
	c0.4-1.2,1.1-2.3,1.9-3.4l-1.1-1.1c-1,1.2-1.8,2.5-2.3,3.9s-0.8,2.9-0.8,4.4s0.3,3,0.8,4.5S13.4,31.2,14.4,32.3z M8.8,38
	c-0.7,0-1.4-0.3-1.9-0.8C6.3,36.6,6,36,6,35.2V12.8c0-0.7,0.3-1.4,0.8-1.9C7.4,10.3,8,10,8.8,10h30.5c0.7,0,1.4,0.3,1.9,0.8
	S42,12,42,12.7v22.5c0,0.7-0.3,1.4-0.8,1.9c-0.6,0.6-1.2,0.9-2,0.9H8.8z M8.8,36.5h30.5c0.4,0,0.7-0.1,0.9-0.3s0.3-0.5,0.3-0.9V12.8
	c0-0.4-0.1-0.7-0.3-0.9s-0.5-0.3-0.9-0.3H8.8c-0.4,0-0.7,0.1-0.9,0.3c-0.2,0.2-0.3,0.5-0.3,0.9v22.5c0,0.4,0.1,0.7,0.3,0.9
	C8.1,36.3,8.4,36.5,8.8,36.5z M7.5,36.5v-25V36.5z"/>
</svg>
