<?xml version="1.0" encoding="utf-8"?>
<!-- Generator: Adobe Illustrator 26.3.1, SVG Export Plug-In . SVG Version: 6.00 Build 0)  -->
<svg version="1.1" id="Слой_1" xmlns="http://www.w3.org/2000/svg" xmlns:xlink="http://www.w3.org/1999/xlink" x="0px" y="0px"
	 viewBox="0 0 48 48" style="enable-background:new 0 0 48 48;" xml:space="preserve">
<path d="M32.4,14.4l-1.1-1.2l3.6-3.5H15V8.1h19.9l-3.6-3.6l1.1-1.1l5.5,5.5C37.9,8.9,32.4,14.4,32.4,14.4z M9.5,38.2h28.9v-10H9.5
	V38.2z M14.5,35.3c0.6,0,1.1-0.2,1.5-0.6c0.4-0.4,0.6-0.9,0.6-1.5s-0.2-1.1-0.6-1.5c-0.4-0.4-0.9-0.6-1.5-0.6s-1.1,0.2-1.5,0.6
	c-0.4,0.4-0.6,0.9-0.6,1.5s0.2,1.1,0.6,1.5C13.4,35.1,13.9,35.3,14.5,35.3z M33.5,35.3c0.6,0,1.1-0.2,1.5-0.6
	c0.4-0.4,0.6-0.9,0.6-1.5s-0.2-1.1-0.6-1.5c-0.4-0.4-0.9-0.6-1.5-0.6s-1.1,0.2-1.5,0.6c-0.4,0.4-0.6,0.9-0.6,1.5s0.2,1.1,0.6,1.5
	C32.4,35.1,32.9,35.3,33.5,35.3z M8,26.7h29.8l-3.2-9.3H11l3.6,3.6l-1.1,1L8,16.6l5.4-5.5l1.2,1.1L11,15.8h24c0.2,0,0.4,0.1,0.6,0.3
	c0.2,0.2,0.3,0.4,0.4,0.6l4,11.5v15c0,0.2-0.1,0.4-0.2,0.5c-0.1,0.1-0.3,0.2-0.5,0.2s-0.4-0.1-0.5-0.2c-0.1-0.1-0.2-0.3-0.2-0.5
	v-3.5H9.5v3.5c0,0.2-0.1,0.4-0.2,0.5C9.2,43.9,9,44,8.8,44s-0.4-0.1-0.5-0.2C8.1,43.6,8,43.5,8,43.2V26.7z M9.5,28.2v10V28.2z"/>
</svg>
