<?xml version="1.0" encoding="utf-8"?>
<!-- Generator: Adobe Illustrator 26.3.1, SVG Export Plug-In . SVG Version: 6.00 Build 0)  -->
<svg version="1.1" id="Слой_1" xmlns="http://www.w3.org/2000/svg" xmlns:xlink="http://www.w3.org/1999/xlink" x="0px" y="0px"
	 viewBox="0 0 48 48" style="enable-background:new 0 0 48 48;" xml:space="preserve">
<path d="M24,42l-6.6-6.6l1.1-1.1l4.8,4.8V28c-2.3-0.3-4.2-1.2-5.8-2.9C15.8,23.5,15,21.5,15,19s0.9-4.6,2.6-6.4
	c1.8-1.8,3.9-2.6,6.4-2.6s4.6,0.9,6.4,2.6c1.8,1.8,2.6,3.9,2.6,6.4s-0.8,4.5-2.4,6.2c-1.6,1.6-3.5,2.6-5.8,2.9v11l4.8-4.8l1.1,1.1
	L24,42z M24,26.5c2.1,0,3.8-0.7,5.3-2.2c1.4-1.4,2.2-3.2,2.2-5.3s-0.7-3.8-2.2-5.3c-1.4-1.4-3.2-2.2-5.3-2.2s-3.8,0.7-5.3,2.2
	c-1.4,1.4-2.2,3.2-2.2,5.3s0.7,3.8,2.2,5.3C20.2,25.7,21.9,26.5,24,26.5z"/>
</svg>
