<?xml version="1.0" encoding="utf-8"?>
<!-- Generator: Adobe Illustrator 26.3.1, SVG Export Plug-In . SVG Version: 6.00 Build 0)  -->
<svg version="1.1" id="Слой_1" xmlns="http://www.w3.org/2000/svg" xmlns:xlink="http://www.w3.org/1999/xlink" x="0px" y="0px"
	 viewBox="0 0 48 48" style="enable-background:new 0 0 48 48;" xml:space="preserve">
<path d="M29,33c-2.5,0-4.5-0.8-6.2-2.4c-1.6-1.6-2.6-3.5-2.9-5.8h-11l4.8,4.8l-1.1,1.1L6,24l6.6-6.6l1.1,1.1l-4.8,4.8h11
	c0.3-2.3,1.2-4.2,2.9-5.8c1.6-1.6,3.7-2.4,6.2-2.4s4.6,0.9,6.4,2.6c1.8,1.8,2.6,3.9,2.6,6.4s-0.9,4.6-2.6,6.4S31.5,33,29,33z
	 M29,31.5c2.1,0,3.9-0.7,5.3-2.2c1.4-1.4,2.2-3.2,2.2-5.3s-0.7-3.9-2.2-5.3c-1.4-1.4-3.2-2.2-5.3-2.2s-3.9,0.7-5.3,2.2
	c-1.4,1.4-2.2,3.2-2.2,5.3s0.7,3.9,2.2,5.3C25.1,30.7,26.9,31.5,29,31.5z"/>
</svg>
