<?xml version="1.0" encoding="utf-8"?>
<!-- Generator: Adobe Illustrator 26.3.1, SVG Export Plug-In . SVG Version: 6.00 Build 0)  -->
<svg version="1.1" id="Слой_1" xmlns="http://www.w3.org/2000/svg" xmlns:xlink="http://www.w3.org/1999/xlink" x="0px" y="0px"
	 viewBox="0 0 48 48" style="enable-background:new 0 0 48 48;" xml:space="preserve">
<path d="M4,38V10h17.3v5.3h-1.5v-3.8H5.5v24.9h14.2v-3.8h1.5V38H4z M26.7,38v-5.3h1.5v3.8h4.4V38C32.7,38,26.7,38,26.7,38z M38,38
	v-1.5h4.5v-3.8H44V38H38z M26.7,15.3V10h6v1.5h-4.4v3.8C28.2,15.3,26.7,15.3,26.7,15.3z M42.5,15.3v-3.8H38V10h6v5.3H42.5z
	 M5.5,36.5v-25V36.5z M34,30l-1.1-1.1l4.2-4.1H11v-1.5h26.1l-4.2-4.1L34,18l6,6L34,30z"/>
</svg>
