<?xml version="1.0" encoding="utf-8"?>
<!-- Generator: Adobe Illustrator 26.3.1, SVG Export Plug-In . SVG Version: 6.00 Build 0)  -->
<svg version="1.1" id="Слой_1" xmlns="http://www.w3.org/2000/svg" xmlns:xlink="http://www.w3.org/1999/xlink" x="0px" y="0px"
	 viewBox="0 0 48 48" style="enable-background:new 0 0 48 48;" xml:space="preserve">
<path d="M14.5,31.8c-2.2,0-4-0.7-5.5-2.2s-2.3-3.3-2.3-5.5s0.7-4,2.2-5.5s3.3-2.2,5.5-2.2c1.5,0,2.9,0.4,4,1.1
	c1.2,0.7,2.1,1.7,2.8,3h16.2c1,0,1.9,0.3,2.6,1c0.7,0.7,1.1,1.6,1.1,2.6S40.7,26,40,26.7c-0.7,0.7-1.6,1.1-2.6,1.1h-16
	c-0.7,1.3-1.6,2.3-2.8,3C17.4,31.4,16,31.8,14.5,31.8z M22,26.1h15.6c0.6,0,1.1-0.2,1.5-0.6s0.6-0.9,0.6-1.5s-0.2-1.1-0.6-1.5
	c-0.4-0.4-0.9-0.6-1.5-0.6H22c0.1,0.3,0.2,0.7,0.3,1.1c0,0.4,0.1,0.7,0.1,1.1c0,0.3,0,0.7-0.1,1.1C22.2,25.5,22.1,25.8,22,26.1z
	 M14.5,30.2c1.7,0,3.2-0.6,4.4-1.8c1.2-1.2,1.8-2.7,1.8-4.4c0-1.7-0.6-3.2-1.8-4.4c-1.2-1.2-2.7-1.8-4.4-1.8s-3.2,0.6-4.4,1.8
	c-1.2,1.2-1.8,2.7-1.8,4.4c0,1.8,0.6,3.2,1.8,4.4S12.8,30.2,14.5,30.2z"/>
</svg>
