<?xml version="1.0" encoding="utf-8"?>
<!-- Generator: Adobe Illustrator 26.3.1, SVG Export Plug-In . SVG Version: 6.00 Build 0)  -->
<svg version="1.1" id="Слой_1" xmlns="http://www.w3.org/2000/svg" xmlns:xlink="http://www.w3.org/1999/xlink" x="0px" y="0px"
	 viewBox="0 0 48 48" style="enable-background:new 0 0 48 48;" xml:space="preserve">
<path d="M29,42c-3.6-1.6-6.4-4-8.6-7.3c-2.1-3.2-3.2-6.8-3.2-10.8c0-3.3,0.8-6.4,2.3-9.4c1.6-2.9,3.7-5.3,6.5-7.1h-9V6h12v12.1h-1.5
	V8.3c-2.7,1.7-4.8,3.9-6.4,6.7c-1.5,2.7-2.3,5.7-2.3,8.9c0,3.5,0.9,6.8,2.8,9.7c1.8,2.9,4.3,5.2,7.5,6.7C29,40.3,29,42,29,42z"/>
</svg>
