<?xml version="1.0" encoding="utf-8"?>
<!-- Generator: Adobe Illustrator 26.3.1, SVG Export Plug-In . SVG Version: 6.00 Build 0)  -->
<svg version="1.1" id="Слой_1" xmlns="http://www.w3.org/2000/svg" xmlns:xlink="http://www.w3.org/1999/xlink" x="0px" y="0px"
	 viewBox="0 0 48 48" style="enable-background:new 0 0 48 48;" xml:space="preserve">
<path d="M37.8,41.6l-6.3-6.3l-4.4,4.4l-0.9-0.9c-0.5-0.5-0.8-1.2-0.8-1.9c0-0.8,0.3-1.4,0.8-1.9l8.9-8.9c0.5-0.5,1.2-0.8,1.9-0.8
	c0.8,0,1.4,0.3,1.9,0.8l0.9,0.9l-4.4,4.4l6.3,6.3c0.3,0.3,0.4,0.6,0.4,1s-0.1,0.7-0.4,1l-2,2c-0.3,0.3-0.6,0.5-1,0.5
	S38.1,41.9,37.8,41.6z M42,11L19.9,33.1l1.8,1.8c0.5,0.5,0.8,1.2,0.8,1.9c0,0.8-0.3,1.4-0.8,1.9l-0.9,0.9l-4.4-4.4l-6.3,6.3
	c-0.3,0.3-0.6,0.5-1,0.5s-0.7-0.2-1-0.5l-2-2c-0.3-0.3-0.5-0.6-0.4-1c0-0.4,0.1-0.7,0.4-1l6.3-6.3L8,26.8L9,26
	c0.5-0.5,1.2-0.8,1.9-0.8c0.8,0,1.4,0.3,1.9,0.8l1.8,1.9L36.8,5.8H42V11z M16.4,19.2l1.5-1.5l1.5-1.5l-1.5,1.5L16.4,19.2z
	 M15.3,20.3L6,11V5.8h5.2l9.2,9.3l-1,1.1l-8.9-8.8h-3v3l8.8,8.9C16.4,19.2,15.3,20.3,15.3,20.3z M18.8,32l21.7-21.6v-3h-3L15.8,28.9
	L18.8,32z M18.8,32l-1.5-1.6l-1.5-1.5l1.5,1.5L18.8,32z"/>
</svg>
