<?xml version="1.0" encoding="utf-8"?>
<!-- Generator: Adobe Illustrator 26.3.1, SVG Export Plug-In . SVG Version: 6.00 Build 0)  -->
<svg version="1.1" id="Слой_1" xmlns="http://www.w3.org/2000/svg" xmlns:xlink="http://www.w3.org/1999/xlink" x="0px" y="0px"
	 viewBox="0 0 48 48" style="enable-background:new 0 0 48 48;" xml:space="preserve">
<path d="M41.4,28.9c0.3-1.3,0.2-2.6-0.2-3.8s-0.9-2.4-1.5-3.6c-1,0.9-1.9,1.8-2.8,2.7c-0.8,1-1.4,2.1-1.6,3.4
	c-0.3,1.3-0.2,2.5,0.2,3.7c0.4,1.2,0.9,2.4,1.5,3.5c1.1-0.8,2-1.6,2.8-2.6C40.5,31.4,41.1,30.2,41.4,28.9z M10,17
	c0.9,0.9,1.9,1.4,3.1,1.5s2.3-0.2,3.3-0.9l-2-2c-0.9-0.9-2-1.4-3.2-1.6c-1.1,0-2.2,0.3-3.3,1L10,17z M14,7.1l-6.2,6.2
	c1.3-0.6,2.6-0.8,4.1-0.6c1.4,0.2,2.7,0.9,3.7,1.9l2,2c0.7-1,1.1-2.1,1-3.3C18.4,12,17.9,10.9,17,10L14,7.1z M40.9,42L17.5,18.7
	c-1.3,1-2.7,1.4-4.4,1.4c-1.6-0.1-3-0.7-4.2-1.9L4.8,14L14,4.9L18.1,9c1.2,1.2,1.8,2.6,1.9,4.2s-0.4,3.1-1.4,4.4l15.9,15.9
	c-0.4-1-0.7-2-0.8-3s-0.1-2.1,0.1-3.1c0.2-0.8,0.5-1.7,0.9-2.4c0.4-0.8,0.9-1.5,1.4-2.1c0.6-0.6,1.2-1.2,1.9-1.8
	c0.7-0.6,1.4-1,2.2-1.5c1,1.4,1.8,3,2.4,4.6c0.6,1.6,0.7,3.3,0.3,5c-0.3,1.5-0.9,2.9-1.9,4.2c-1,1.2-2.1,2.3-3.5,3.1L42,41L40.9,42z
	 M30.1,23L29,21.9l11.4-11.4v-3h-3L26,18.9l-1-1.1L36.8,6H42v5.2L30.1,23z M8.3,41.6l-2-2c-0.3-0.3-0.4-0.6-0.4-1s0.2-0.7,0.4-1
	l6.3-6.3L8.2,27l0.9-0.9c0.5-0.5,1.1-0.8,1.9-0.8c0.8,0,1.4,0.3,2,0.8l1.8,1.9l3-3l1,1.1L15.9,29l3,3l2.9-3l1.2,1.1l-3,3l1.8,1.8
	c0.5,0.5,0.8,1.2,0.8,2s-0.3,1.4-0.8,1.9l-0.9,0.9l-4.4-4.4l-6.3,6.3c-0.3,0.3-0.6,0.5-1,0.5C8.9,42.1,8.6,41.9,8.3,41.6z"/>
</svg>
