<?xml version="1.0" encoding="utf-8"?>
<!-- Generator: Adobe Illustrator 26.3.1, SVG Export Plug-In . SVG Version: 6.00 Build 0)  -->
<svg version="1.1" id="Слой_1" xmlns="http://www.w3.org/2000/svg" xmlns:xlink="http://www.w3.org/1999/xlink" x="0px" y="0px"
	 viewBox="0 0 48 48" style="enable-background:new 0 0 48 48;" xml:space="preserve">
<path d="M24,36c-4.3,0-8.2-1.2-11.8-3.6c-3.5-2.3-6.2-5.5-8-9.4c1.8-3.9,4.5-7.1,8.1-9.4C15.8,11.2,19.7,10,24,10s8.2,1.2,11.8,3.6
	c3.5,2.4,6.2,5.5,8.1,9.4c-0.2,0.5-0.5,1-0.8,1.5s-0.6,1-0.9,1.5l-1.1-1c0.2-0.3,0.4-0.6,0.6-0.9c0.2-0.3,0.4-0.7,0.5-1
	c-1.7-3.5-4.2-6.3-7.4-8.4c-3.3-2.1-6.9-3.1-10.8-3.1s-7.5,1-10.7,3.1c-3.3,2-5.8,4.8-7.5,8.3c1.7,3.5,4.2,6.3,7.5,8.4
	s6.8,3.1,10.7,3.1c0.4,0,0.8,0,1.1,0c0.3,0,0.7,0,1.1-0.1c0,0.3,0,0.5,0.1,0.8c0,0.2,0.1,0.5,0.2,0.8c-0.4,0-0.8,0.1-1.2,0.1
	C24.8,36,24.4,36,24,36z M24,30.1c-1.9,0-3.6-0.7-5-2.1s-2.1-3.1-2.1-5s0.7-3.6,2.1-5s3.1-2.1,5-2.1s3.6,0.7,5,2.1s2.1,3.1,2.1,5
	c0,0.5,0,1-0.1,1.5s-0.3,1-0.5,1.4l-1,0.9c-0.4,0.3-0.7,0.7-1,1c-0.3,0.4-0.6,0.7-0.8,1.1c-0.6,0.3-1.1,0.6-1.8,0.7
	C25.3,30,24.7,30.1,24,30.1z M24,28.5c1.5,0,2.8-0.5,3.9-1.6s1.6-2.4,1.6-3.9s-0.5-2.8-1.6-3.9s-2.4-1.6-3.9-1.6s-2.8,0.5-3.9,1.6
	s-1.6,2.4-1.6,3.9s0.5,2.8,1.6,3.9S22.5,28.5,24,28.5z M36.4,39.9c-1.6,0-3-0.6-4.1-1.7c-1.1-1.1-1.7-2.5-1.7-4.1
	c0-0.8,0.2-1.5,0.5-2.2s0.8-1.4,1.4-1.9l3.9-3.6l3.9,3.6c0.6,0.5,1,1.2,1.4,1.9c0.3,0.7,0.5,1.5,0.5,2.3c0,1.6-0.6,3-1.7,4.1
	C39.3,39.4,37.9,39.9,36.4,39.9z M36.3,38.4c1.2,0,2.1-0.4,3-1.2c0.8-0.8,1.2-1.8,1.2-3c0-0.6-0.1-1.1-0.4-1.7c-0.3-0.5-0.6-1-1-1.5
	l-2.8-2.6L33.5,31c-0.4,0.4-0.8,0.9-1,1.5c-0.3,0.5-0.4,1.1-0.4,1.7c0,1.2,0.4,2.2,1.2,3C34.2,38,35.2,38.4,36.3,38.4z"/>
</svg>
