<?xml version="1.0" encoding="utf-8"?>
<!-- Generator: Adobe Illustrator 26.3.1, SVG Export Plug-In . SVG Version: 6.00 Build 0)  -->
<svg version="1.1" id="Слой_1" xmlns="http://www.w3.org/2000/svg" xmlns:xlink="http://www.w3.org/1999/xlink" x="0px" y="0px"
	 viewBox="0 0 48 48" style="enable-background:new 0 0 48 48;" xml:space="preserve">
<path d="M3,41V14c0-1.3,0.5-2.5,1.4-3.4s2.1-1.4,3.4-1.4s2.5,0.5,3.4,1.4c0.9,0.9,1.4,2.1,1.4,3.4v3.2L24,7.3l11.5,9.9V14
	c0-1.3,0.5-2.5,1.4-3.4s2.1-1.4,3.4-1.4c1.3,0,2.5,0.5,3.4,1.4s1.4,2.1,1.4,3.4v27H27.2v-9c0-0.9-0.3-1.7-0.9-2.3
	c-0.6-0.6-1.4-0.9-2.3-0.9s-1.7,0.3-2.3,0.9c-0.6,0.6-0.9,1.4-0.9,2.3v9H3z M37,17.2h6.5V14c0-0.9-0.3-1.7-0.9-2.3
	c-0.6-0.6-1.4-0.9-2.3-0.9c-0.9,0-1.7,0.3-2.3,0.9s-1,1.4-1,2.3V17.2z M4.5,17.2H11V14c0-0.9-0.3-1.7-0.9-2.3
	c-0.6-0.6-1.4-0.9-2.3-0.9s-1.7,0.3-2.3,0.9s-1,1.4-1,2.3V17.2z M4.5,39.5H11V18.8H4.5V39.5z M12.5,39.5h6.7V32
	c0-1.3,0.5-2.5,1.4-3.4s2.1-1.4,3.4-1.4s2.5,0.5,3.4,1.4s1.4,2.1,1.4,3.4v7.5h6.7V19.3L24,9.3l-11.5,9.9
	C12.5,19.3,12.5,39.5,12.5,39.5z M37,39.5h6.5V18.8H37V39.5z M24,22.1c-0.6,0-1.1-0.2-1.5-0.6s-0.6-0.9-0.6-1.5s0.2-1.1,0.6-1.5
	s0.9-0.6,1.5-0.6s1.1,0.2,1.5,0.6s0.6,0.9,0.6,1.5s-0.2,1.1-0.6,1.5S24.6,22.1,24,22.1z"/>
</svg>
