<?xml version="1.0" encoding="utf-8"?>
<!-- Generator: Adobe Illustrator 26.3.1, SVG Export Plug-In . SVG Version: 6.00 Build 0)  -->
<svg version="1.1" id="Слой_1" xmlns="http://www.w3.org/2000/svg" xmlns:xlink="http://www.w3.org/1999/xlink" x="0px" y="0px"
	 viewBox="0 0 48 48" style="enable-background:new 0 0 48 48;" xml:space="preserve">
<path d="M9.5,38.7v-1.5h6.7C13.6,35,11.7,33,10.6,31S9,26.7,9,24.2c0-3.1,0.9-5.9,2.6-8.6c1.7-2.6,4.1-4.5,7.1-5.6v1.6
	c-2.4,1-4.3,2.7-5.9,5c-1.5,2.3-2.3,4.8-2.3,7.6c0,2.2,0.5,4.2,1.4,6c1,1.8,2.7,3.8,5.3,5.8v-6.7h1.5v9.3
	C18.8,38.7,9.5,38.7,9.5,38.7z M37.5,24.5c0.1-2.1-0.4-4.2-1.3-6.2c-0.9-2-2.7-4.1-5.3-6.4v6.6h-1.5V9.3h9.3v1.5H32
	c2.9,2.5,4.8,4.9,5.8,7.2s1.4,4.5,1.3,6.5C39,24.6,37.5,24.6,37.5,24.5z M32.2,43.5c-0.5,0-0.9-0.2-1.3-0.6
	c-0.4-0.4-0.6-0.8-0.6-1.3v-5.3c0-0.5,0.2-0.9,0.6-1.3c0.4-0.4,0.8-0.6,1.3-0.6h0.2v-2c0-1,0.3-1.9,1-2.6s1.5-1,2.5-1s1.9,0.3,2.6,1
	c0.7,0.7,1,1.5,1,2.6v2h0.2c0.5,0,0.9,0.2,1.3,0.6c0.3,0.4,0.5,0.8,0.5,1.3v5.3c0,0.5-0.2,0.9-0.6,1.3c-0.4,0.4-0.8,0.6-1.3,0.6
	H32.2z M33.9,34.4H38v-2c0-0.6-0.2-1.1-0.6-1.5c-0.4-0.4-0.9-0.6-1.5-0.6s-1.1,0.2-1.4,0.6c-0.4,0.4-0.6,0.9-0.6,1.5
	C33.9,32.5,33.9,34.4,33.9,34.4z"/>
</svg>
