<?xml version="1.0" encoding="utf-8"?>
<!-- Generator: Adobe Illustrator 26.3.1, SVG Export Plug-In . SVG Version: 6.00 Build 0)  -->
<svg version="1.1" id="Слой_1" xmlns="http://www.w3.org/2000/svg" xmlns:xlink="http://www.w3.org/1999/xlink" x="0px" y="0px"
	 viewBox="0 0 48 48" style="enable-background:new 0 0 48 48;" xml:space="preserve">
<path d="M7.7,36.6v-1.5h3.9c-2.1-1.1-3.8-2.7-5-4.8c-1.2-2-1.8-4.3-1.8-6.7c0-3.1,1-5.8,2.9-8.1s4.4-3.8,7.3-4.3v1.6
	c-2.5,0.5-4.6,1.8-6.2,3.8s-2.4,4.4-2.4,7c0,2.3,0.6,4.5,1.9,6.4s3,3.3,5.2,4.1v-4.8H15v7.2C15,36.6,7.7,36.6,7.7,36.6z M19.6,36.2
	v-1.6c2.6-0.6,4.8-1.9,6.5-3.9c1.7-2,2.6-4.4,2.6-7.1c0-2.3-0.6-4.3-1.9-6.2c-1.2-1.9-2.9-3.3-5-4.2V18h-1.5v-7.2h7.2v1.5h-4.2
	c2.1,1.2,3.7,2.8,5,4.8c1.2,2,1.9,4.2,1.9,6.6c0,3.1-1,5.8-3,8.2C25.1,34.2,22.6,35.7,19.6,36.2z M38.3,38V13L35,16.2l-1.1-1.1
	L39,10l5.1,5.1L43,16.2L39.8,13v25H38.3z"/>
</svg>
