<?xml version="1.0" encoding="utf-8"?>
<!-- Generator: Adobe Illustrator 26.3.1, SVG Export Plug-In . SVG Version: 6.00 Build 0)  -->
<svg version="1.1" id="Слой_1" xmlns="http://www.w3.org/2000/svg" xmlns:xlink="http://www.w3.org/1999/xlink" x="0px" y="0px"
	 viewBox="0 0 48 48" style="enable-background:new 0 0 48 48;" xml:space="preserve">
<path d="M39.2,43l-6.8-6.8c-0.5,0.4-1,0.7-1.5,0.9c-0.5,0.3-1,0.5-1.6,0.8v-1.6c0.4-0.2,0.7-0.3,1.1-0.5s0.7-0.4,1-0.6L12.8,16.6
	c-0.8,1.1-1.4,2.3-1.7,3.6c-0.4,1.3-0.6,2.6-0.6,3.9c0,1.8,0.3,3.6,1,5.2c0.7,1.6,1.7,3.1,3.2,4.4l2.5,2.3v-6.7h1.5v9.3H9.5v-1.5
	h6.7l-2.1-2c-1.8-1.6-3.1-3.3-3.9-5.2C9.4,28.1,9,26.2,9,24.2c0-1.7,0.3-3.2,0.7-4.7c0.5-1.4,1.1-2.8,2-4L5,8.8l1.1-1.1L40.3,42
	L39.2,43z M36,32.8l-1-1.1c0.8-1.2,1.4-2.4,1.8-3.7c0.4-1.3,0.7-2.7,0.7-4.2c0-1.7-0.3-3.3-1-4.9s-1.7-3.1-3.1-4.5L30.8,12v6.7h-1.5
	V9.3h9.3v1.5h-6.7l2.1,2.1c1.7,1.7,3,3.5,3.8,5.4S39,22,39,23.8c0,1.7-0.3,3.3-0.8,4.7C37.7,30,37,31.5,36,32.8z M16.2,13l-1-1
	c0.6-0.4,1.1-0.8,1.7-1.1s1.2-0.6,1.8-0.8v1.6c-0.4,0.2-0.9,0.4-1.3,0.6C17,12.5,16.6,12.7,16.2,13z"/>
</svg>
