<?xml version="1.0" encoding="utf-8"?>
<!-- Generator: Adobe Illustrator 26.3.1, SVG Export Plug-In . SVG Version: 6.00 Build 0)  -->
<svg version="1.1" id="Слой_1" xmlns="http://www.w3.org/2000/svg" xmlns:xlink="http://www.w3.org/1999/xlink" x="0px" y="0px"
	 viewBox="0 0 48 48" style="enable-background:new 0 0 48 48;" xml:space="preserve">
<path d="M10.3,21.2c-0.1-0.1-0.2-0.3-0.2-0.5s0.1-0.4,0.2-0.6l5.3-5.3l-3.1-3.1l-1.6,1.6c-0.2,0.2-0.4,0.3-0.6,0.3s-0.4-0.1-0.5-0.3
	c-0.2-0.1-0.2-0.3-0.2-0.5s0.1-0.4,0.2-0.6L14,8c0.2-0.2,0.3-0.3,0.5-0.3S15,7.9,15.1,8c0.1,0.1,0.2,0.3,0.2,0.5S15.2,8.9,15.1,9
	l-1.6,1.7l3.1,3l5.3-5.3c0.2-0.1,0.4-0.2,0.6-0.2s0.4,0.1,0.5,0.2c0.1,0.2,0.2,0.3,0.2,0.5S23.1,9.3,23,9.5l-1.3,1.3l14.6,14.6
	c0.5,0.6,0.8,1.2,0.8,2s-0.3,1.4-0.8,2l-2,2l7.7,7.7h-2.2l-6.6-6.6l-2,2c-0.5,0.5-1.2,0.8-1.9,0.8s-1.4-0.3-2-0.8L12.6,20l-1.3,1.3
	c-0.2,0.2-0.4,0.3-0.6,0.3C10.6,21.5,10.4,21.4,10.3,21.2z M13.7,18.9l14.6,14.6c0.2,0.2,0.5,0.3,0.9,0.3c0.3,0,0.6-0.1,0.9-0.3
	l5.1-5.1c0.3-0.2,0.4-0.5,0.4-0.9c0-0.3-0.1-0.6-0.4-0.9l-3.4-3.4l-3.4,3.4c-0.2,0.2-0.3,0.3-0.5,0.3s-0.4-0.1-0.5-0.2
	c-0.2-0.1-0.3-0.3-0.3-0.5s0.1-0.4,0.3-0.6l3.4-3.4L26,17.4l-3.4,3.4C22.4,20.9,22.2,21,22,21s-0.4-0.1-0.5-0.3
	c-0.1-0.1-0.2-0.3-0.2-0.5s0.1-0.4,0.2-0.5l3.4-3.4L20.6,12L13.7,18.9z M13.5,18.7l0.2-0.2l0.6-0.6l5.2-5.2l0.6-0.6l0.2-0.2
	L13.5,18.7z"/>
</svg>
