<?xml version="1.0" encoding="utf-8"?>
<!-- Generator: Adobe Illustrator 26.3.1, SVG Export Plug-In . SVG Version: 6.00 Build 0)  -->
<svg version="1.1" id="Слой_1" xmlns="http://www.w3.org/2000/svg" xmlns:xlink="http://www.w3.org/1999/xlink" x="0px" y="0px"
	 viewBox="0 0 48 48" style="enable-background:new 0 0 48 48;" xml:space="preserve">
<path d="M16.5,34.5c-0.8,0-1.5-0.3-2.1-0.8c-0.6-0.6-0.9-1.3-0.9-2.1V8.9c0-0.8,0.3-1.5,0.9-2.1C15,6.3,15.7,6,16.5,6h22.6
	c0.8,0,1.5,0.3,2.1,0.9c0.5,0.5,0.8,1.2,0.8,2v22.6c0,0.8-0.3,1.5-0.9,2.1c-0.6,0.6-1.3,0.9-2.1,0.9C39.1,34.5,16.5,34.5,16.5,34.5z
	 M16.5,32.9h22.6c0.4,0,0.7-0.1,1-0.4c0.3-0.3,0.4-0.6,0.4-1V14.4H26.8V7.5H16.5c-0.4,0-0.7,0.1-1,0.4c-0.3,0.3-0.4,0.6-0.4,1v22.6
	c0,0.4,0.1,0.7,0.4,1C15.8,32.8,16.1,32.9,16.5,32.9z M15.1,7.5v25.4V7.5z M13.6,42v-2h2v2H13.6z M8,12H6c0-0.5,0.2-1,0.6-1.4
	C7,10.2,7.5,10,8,10V12z M21,42v-2h2v2H21z M28.6,42v-2h2v2H28.6z M8,40v2c-0.5,0-1-0.2-1.4-0.6C6.2,41,6,40.5,6,40H8z M6,34.5v-2h2
	v2H6z M6,27v-2h2v2H6z M6,19.5v-2h2v2H6z M36,40h2c0,0.5-0.2,1-0.6,1.4C37,41.8,36.6,42,36,42V40z"/>
</svg>
