<?xml version="1.0" encoding="utf-8"?>
<!-- Generator: Adobe Illustrator 26.3.1, SVG Export Plug-In . SVG Version: 6.00 Build 0)  -->
<svg version="1.1" id="Слой_1" xmlns="http://www.w3.org/2000/svg" xmlns:xlink="http://www.w3.org/1999/xlink" x="0px" y="0px"
	 viewBox="0 0 48 48" style="enable-background:new 0 0 48 48;" xml:space="preserve">
<path d="M36.2,43.8c-2.2,0-4-0.8-5.5-2.3s-2.3-3.4-2.3-5.5s0.8-4,2.3-5.6c1.5-1.5,3.4-2.3,5.5-2.3c2.2,0,4,0.8,5.5,2.3
	C43.2,32,44,33.8,44,36s-0.8,4-2.3,5.5C40.2,43.1,38.3,43.8,36.2,43.8z M39.7,40.5l1-1.1l-3.9-3.6v-5.7h-1.6v6.3L39.7,40.5z
	 M27.5,18.1h12.9v7.3c0.3,0.1,0.6,0.2,0.8,0.3c0.3,0.1,0.5,0.3,0.7,0.4V12.8c0-0.8-0.3-1.4-0.8-2c-0.5-0.5-1.2-0.8-2-0.8H8.8
	c-0.8,0-1.4,0.3-2,0.8C6.3,11.3,6,12,6,12.8v22.5c0,0.8,0.3,1.4,0.8,2C7.3,37.7,8,38,8.8,38H25c-0.1-0.2-0.1-0.5-0.1-0.8
	s0-0.5-0.1-0.8h-16c-0.3,0-0.6-0.1-0.8-0.4c-0.3-0.3-0.4-0.5-0.4-0.8V12.8c0-0.3,0.1-0.6,0.4-0.8c0.3-0.3,0.5-0.4,0.8-0.4h18.8
	C27.5,11.5,27.5,18.1,27.5,18.1z M7.5,35.2v1.2V11.5V35.2z"/>
</svg>
