<?xml version="1.0" encoding="utf-8"?>
<!-- Generator: Adobe Illustrator 26.3.1, SVG Export Plug-In . SVG Version: 6.00 Build 0)  -->
<svg version="1.1" id="Слой_1" xmlns="http://www.w3.org/2000/svg" xmlns:xlink="http://www.w3.org/1999/xlink" x="0px" y="0px"
	 viewBox="0 0 48 48" style="enable-background:new 0 0 48 48;" xml:space="preserve">
<path d="M8.8,38c-0.8,0-1.4-0.3-2-0.8C6.3,36.7,6,36,6,35.2v-0.1h1.5v0.1c0,0.3,0.1,0.6,0.4,0.8c0.3,0.3,0.5,0.4,0.8,0.4h0.4V38H8.8
	z M6,31.6v-3.3h1.5v3.3H6z M6,24.8v-3.3h1.5v3.3H6z M6,18v-5.2c0-0.8,0.3-1.4,0.8-2C7.3,10.3,8,10,8.8,10H14v1.5H8.8
	c-0.4,0-0.7,0.1-0.9,0.3s-0.3,0.5-0.3,0.9V18H6z M12.7,38v-1.5h3.6V38H12.7z M17.8,11.5V10h3.6v1.5H17.8z M19.8,38v-1.5h3.6V38H19.8
	z M24.9,19.5V10h14.3c0.8,0,1.4,0.3,2,0.8c0.5,0.5,0.8,1.2,0.8,2v6.8C42,19.5,24.9,19.5,24.9,19.5z M26.9,38v-1.5h3.6V38H26.9z
	 M34,38v-1.5h5.2c0.4,0,0.7-0.1,0.9-0.3s0.3-0.5,0.3-0.9V30H42v5.2c0,0.8-0.3,1.4-0.8,2c-0.5,0.5-1.2,0.8-2,0.8H34z M40.5,26.3V23
	H42v3.3H40.5z"/>
</svg>
