<?xml version="1.0" encoding="utf-8"?>
<!-- Generator: Adobe Illustrator 26.3.1, SVG Export Plug-In . SVG Version: 6.00 Build 0)  -->
<svg version="1.1" id="Слой_1" xmlns="http://www.w3.org/2000/svg" xmlns:xlink="http://www.w3.org/1999/xlink" x="0px" y="0px"
	 viewBox="0 0 48 48" style="enable-background:new 0 0 48 48;" xml:space="preserve">
<path d="M9.5,38.5v-29V38.5z M10.8,40c-0.8,0-1.4-0.3-2-0.8C8.3,38.7,8,38,8,37.2V10.8c0-0.8,0.3-1.4,0.8-2C9.3,8.3,10,8,10.8,8
	h26.5c0.8,0,1.4,0.3,2,0.8c0.5,0.5,0.8,1.2,0.8,2v17.1c-0.2,0-0.5-0.1-0.8-0.1s-0.5-0.1-0.8-0.1V10.8c0-0.3-0.1-0.6-0.4-0.8
	c-0.3-0.3-0.5-0.4-0.8-0.4H10.8c-0.3,0-0.6,0.1-0.8,0.4c-0.3,0.3-0.4,0.5-0.4,0.8v26.5c0,0.3,0.1,0.6,0.4,0.8s0.5,0.4,0.8,0.4h16.9
	c0,0.3,0,0.5,0.1,0.8c0,0.3,0.1,0.5,0.1,0.8L10.8,40L10.8,40z M38.3,44.6l-1.1-1.1l4.3-4.4h-10v-1.5h10.1l-4.3-4.4l1.1-1.1l6.3,6.3
	L38.3,44.6z M23.2,33h1.5v-8.2H33v-1.5h-8.2V15h-1.5v8.2H15v1.5h8.2V33z"/>
</svg>
