<?xml version="1.0" encoding="utf-8"?>
<!-- Generator: Adobe Illustrator 26.3.1, SVG Export Plug-In . SVG Version: 6.00 Build 0)  -->
<svg version="1.1" id="Слой_1" xmlns="http://www.w3.org/2000/svg" xmlns:xlink="http://www.w3.org/1999/xlink" x="0px" y="0px"
	 viewBox="0 0 48 48" style="enable-background:new 0 0 48 48;" xml:space="preserve">
<path d="M27.3,40v-1.5h7.4V40H27.3z M17.3,40v-1.5h7.5V40H17.3z M8.5,19.7H7v-7.4h1.5V19.7z M8.5,29.7H7v-7.5h1.5V29.7z M14.8,40h-5
	c-0.8,0-1.4-0.3-2-0.8C7.3,38.7,7,38,7,37.2v-5.1h1.5v5.1c0,0.3,0.1,0.6,0.4,0.8s0.5,0.4,0.8,0.4h5.1C14.8,38.4,14.8,40,14.8,40z
	 M22.3,25.7l4.2-4.2l4.2,4.2l1.1-1.1l-4.2-4.2l4.2-4.2l-1.1-1.1l-4.2,4.2l-4.2-4.2l-1.1,1.1l4.2,4.2l-4.2,4.2L22.3,25.7z M14.8,34.9
	c-0.8,0-1.4-0.3-2-0.8c-0.5-0.5-0.8-1.2-0.8-2V8.8c0-0.8,0.3-1.4,0.8-2C13.3,6.3,14,6,14.8,6h23.4c0.8,0,1.4,0.3,2,0.8
	C40.7,7.3,41,8,41,8.8v23.4c0,0.8-0.3,1.4-0.8,2c-0.5,0.5-1.2,0.8-2,0.8C38.2,34.9,14.8,34.9,14.8,34.9z M14.8,33.4h23.4
	c0.3,0,0.6-0.1,0.8-0.4c0.3-0.3,0.4-0.5,0.4-0.8V8.8c0-0.3-0.1-0.6-0.4-0.8c-0.3-0.3-0.5-0.4-0.8-0.4H14.8c-0.3,0-0.6,0.1-0.8,0.4
	c-0.3,0.3-0.4,0.5-0.4,0.8v23.4c0,0.3,0.1,0.6,0.4,0.8C14.3,33.3,14.5,33.4,14.8,33.4z M13.6,7.5v25.8V7.5z"/>
</svg>
