<?xml version="1.0" encoding="utf-8"?>
<!-- Generator: Adobe Illustrator 26.3.1, SVG Export Plug-In . SVG Version: 6.00 Build 0)  -->
<svg version="1.1" id="Слой_1" xmlns="http://www.w3.org/2000/svg" xmlns:xlink="http://www.w3.org/1999/xlink" x="0px" y="0px"
	 viewBox="0 0 48 48" style="enable-background:new 0 0 48 48;" xml:space="preserve">
<path d="M26,41v-1.5h14V41H26z M11.2,18.9h8.7v-8.2c0-0.4-0.1-0.7-0.3-0.9c-0.2-0.2-0.5-0.3-0.9-0.3h-2.6c-0.3,0-0.5,0.1-0.7,0.2
	c-0.2,0.1-0.3,0.3-0.4,0.5C14.9,10.3,11.2,18.9,11.2,18.9z M32.2,35.9V16.2c0-0.9-0.3-1.7-0.9-2.3S29.9,13,29,13h-7.6v6.2
	c0,0.4-0.1,0.7-0.4,1s-0.6,0.4-1,0.4h-9.1c-0.5,0-0.9-0.2-1.2-0.6s-0.3-0.9-0.1-1.3l3.9-8.9c0.2-0.5,0.6-0.9,1-1.2
	C15,8.1,15.5,8,16.1,8h2.6c0.8,0,1.4,0.3,1.9,0.8s0.8,1.2,0.8,1.9v0.7H29c1.3,0,2.5,0.5,3.4,1.4s1.4,2.1,1.4,3.4V36
	C33.8,35.9,32.2,35.9,32.2,35.9z M11.2,18.9h8.7C19.8,18.9,11.2,18.9,11.2,18.9z"/>
</svg>
