<?xml version="1.0" encoding="utf-8"?>
<!-- Generator: Adobe Illustrator 26.3.1, SVG Export Plug-In . SVG Version: 6.00 Build 0)  -->
<svg version="1.1" id="Слой_1" xmlns="http://www.w3.org/2000/svg" xmlns:xlink="http://www.w3.org/1999/xlink" x="0px" y="0px"
	 viewBox="0 0 48 48" style="enable-background:new 0 0 48 48;" xml:space="preserve">
<path d="M38.5,30.8v-6.1h-29v6.1H38.5z M38.5,23.2v-6.1h-29v6.1H38.5z M38.5,15.6v-4.8c0-0.4-0.1-0.7-0.3-0.9s-0.5-0.3-0.9-0.3H10.8
	c-0.4,0-0.7,0.1-0.9,0.3s-0.3,0.5-0.3,0.9v4.8C9.5,15.6,38.5,15.6,38.5,15.6z M10.8,40c-0.8,0-1.4-0.3-2-0.8C8.3,38.7,8,38,8,37.2
	V10.8c0-0.8,0.3-1.4,0.8-2C9.3,8.3,10,8,10.8,8h26.5c0.8,0,1.4,0.3,2,0.8c0.5,0.5,0.8,1.2,0.8,2v26.5c0,0.8-0.3,1.4-0.8,2
	c-0.5,0.5-1.2,0.8-2,0.8L10.8,40L10.8,40z M38.5,37.2v-4.9h-29v4.9c0,0.4,0.1,0.7,0.3,0.9s0.5,0.3,0.9,0.3h26.5
	c0.4,0,0.7-0.1,0.9-0.3C38.3,37.9,38.5,37.6,38.5,37.2z"/>
</svg>
