<?xml version="1.0" encoding="utf-8"?>
<!-- Generator: Adobe Illustrator 26.3.1, SVG Export Plug-In . SVG Version: 6.00 Build 0)  -->
<svg version="1.1" id="Слой_1" xmlns="http://www.w3.org/2000/svg" xmlns:xlink="http://www.w3.org/1999/xlink" x="0px" y="0px"
	 viewBox="0 0 48 48" style="enable-background:new 0 0 48 48;" xml:space="preserve">
<path d="M13.5,38l2.7-6.7c0.2-0.4,0.4-0.7,0.8-0.9c0.3-0.2,0.7-0.4,1.2-0.4h5.1v-9.6c-4.7-0.1-8.5-0.7-11.7-1.7
	c-3.1-1.1-4.7-2.3-4.7-3.7c0-1.5,1.7-2.8,5-3.9c3.3-1,7.4-1.6,12.1-1.6c4.8,0,8.8,0.5,12.1,1.6c3.3,1,5,2.3,5,3.9
	c0,1.4-1.6,2.7-4.7,3.7c-3.1,1-7,1.6-11.6,1.7V30h5.1c0.4,0,0.8,0.1,1.1,0.4c0.4,0.2,0.6,0.6,0.8,0.9l2.7,6.7h-1.6l-2.6-6.5H17.6
	L15.1,38H13.5z M24,18.9c3.8,0,7.1-0.4,10.1-1.1s4.9-1.7,5.7-2.8c-0.8-1.1-2.7-2-5.7-2.8c-3-0.7-6.4-1.1-10.1-1.1s-7.1,0.4-10.1,1.1
	C10.9,13,9,13.9,8.2,15c0.8,1.1,2.7,2,5.7,2.8C16.9,18.5,20.2,18.9,24,18.9z"/>
</svg>
