<?xml version="1.0" encoding="utf-8"?>
<!-- Generator: Adobe Illustrator 26.3.1, SVG Export Plug-In . SVG Version: 6.00 Build 0)  -->
<svg version="1.1" id="Слой_1" xmlns="http://www.w3.org/2000/svg" xmlns:xlink="http://www.w3.org/1999/xlink" x="0px" y="0px"
	 viewBox="0 0 48 48" style="enable-background:new 0 0 48 48;" xml:space="preserve">
<path d="M22.6,40V17.1H8v-6.3c0-0.8,0.3-1.4,0.8-2C9.3,8.3,10,8,10.8,8h26.5c0.8,0,1.4,0.3,2,0.8c0.5,0.5,0.8,1.2,0.8,2v26.5
	c0,0.8-0.3,1.4-0.8,2c-0.5,0.5-1.2,0.8-2,0.8L22.6,40L22.6,40z M24.2,38.5h13.1c0.4,0,0.7-0.1,0.9-0.3s0.3-0.5,0.3-0.9v-8.7H24.2
	C24.2,28.6,24.2,38.5,24.2,38.5z M24.2,27h14.3V17H24.2C24.2,17.1,24.2,27,24.2,27z M9.5,15.5h28.9v-4.8c0-0.4-0.1-0.7-0.3-0.9
	s-0.5-0.3-0.9-0.3H10.8c-0.4,0-0.7,0.1-0.9,0.3s-0.3,0.5-0.3,0.9C9.5,10.8,9.5,15.5,9.5,15.5z M8,42v-1.5h5.2
	c-1.6-0.6-2.9-1.6-3.8-3c-1-1.4-1.5-3-1.5-4.7c0-2.3,0.8-4.2,2.4-5.8c1.6-1.6,3.6-2.4,5.9-2.4v1.5c-1.9,0-3.5,0.7-4.8,2
	s-2,2.9-2,4.8c0,1.7,0.5,3.1,1.6,4.4c1.1,1.2,2.4,2,4,2.3v-6.1h1.5V42H8z"/>
</svg>
