<?xml version="1.0" encoding="utf-8"?>
<!-- Generator: Adobe Illustrator 26.3.1, SVG Export Plug-In . SVG Version: 6.00 Build 0)  -->
<svg version="1.1" id="Слой_1" xmlns="http://www.w3.org/2000/svg" xmlns:xlink="http://www.w3.org/1999/xlink" x="0px" y="0px"
	 viewBox="0 0 48 48" style="enable-background:new 0 0 48 48;" xml:space="preserve">
<path d="M24,40.6c0.4,0,0.7-0.1,0.9-0.4c0.3-0.3,0.4-0.6,0.4-0.9c0-0.4-0.1-0.7-0.4-0.9C24.6,38.1,24.3,38,24,38
	c-0.4,0-0.7,0.1-0.9,0.4c-0.3,0.3-0.4,0.6-0.4,0.9c0,0.4,0.1,0.7,0.4,0.9C23.4,40.5,23.7,40.6,24,40.6z M10.8,44
	c-0.7,0-1.4-0.3-1.9-0.8S8,42,8,41.2V6.8c0-0.8,0.3-1.4,0.8-2C9.4,4.3,10,4,10.8,4h26.5c0.7,0,1.4,0.3,1.9,0.8C39.7,5.4,40,6,40,6.8
	v34.5c0,0.7-0.3,1.4-0.8,1.9c-0.6,0.5-1.2,0.8-2,0.8H10.8z M9.5,36.2v5c0,0.4,0.1,0.7,0.3,0.9s0.5,0.3,0.9,0.3h26.5
	c0.4,0,0.7-0.1,0.9-0.3s0.3-0.5,0.3-0.9v-5H9.5z M9.5,34.7h28.9V9.8H9.5V34.7z M9.5,8.3h28.9V6.8c0-0.4-0.1-0.7-0.3-0.9
	c-0.2-0.2-0.5-0.3-0.9-0.3H10.8c-0.4,0-0.7,0.1-0.9,0.3C9.7,6.1,9.5,6.4,9.5,6.8V8.3z M9.5,8.3V5.5V8.3z M9.5,36.2v6.2V36.2z"/>
</svg>
