<?xml version="1.0" encoding="utf-8"?>
<!-- Generator: Adobe Illustrator 26.3.1, SVG Export Plug-In . SVG Version: 6.00 Build 0)  -->
<svg version="1.1" id="Слой_1" xmlns="http://www.w3.org/2000/svg" xmlns:xlink="http://www.w3.org/1999/xlink" x="0px" y="0px"
	 viewBox="0 0 48 48" style="enable-background:new 0 0 48 48;" xml:space="preserve">
<path d="M38.2,38V11.5H9.8V38h-3c-0.7,0-1.4-0.3-1.9-0.8C4.3,36.6,4,36,4,35.2V12.8c0-0.7,0.3-1.4,0.8-1.9C5.4,10.3,6,10,6.8,10
	h34.5c0.7,0,1.4,0.3,1.9,0.8c0.6,0.6,0.8,1.2,0.8,1.9v22.5c0,0.7-0.3,1.4-0.8,1.9c-0.6,0.6-1.2,0.9-2,0.9H38.2z M8.3,11.5H6.8
	c-0.4,0-0.7,0.1-0.9,0.3c-0.2,0.2-0.3,0.5-0.3,0.9v22.5c0,0.4,0.1,0.7,0.3,0.9c0.2,0.2,0.5,0.3,0.9,0.3h1.5V11.5z M39.7,11.5v24.9
	h1.5c0.4,0,0.7-0.1,0.9-0.3s0.3-0.5,0.3-0.9V12.8c0-0.4-0.1-0.7-0.3-0.9s-0.5-0.3-0.9-0.3h-1.5V11.5z M39.7,11.5h2.8H39.7z
	 M8.3,11.5H5.5H8.3z M18.9,42c-0.7,0-1.3-0.3-1.8-0.8s-0.8-1.1-0.8-1.8v-6.8c0-0.7,0.3-1.3,0.8-1.8s1.1-0.8,1.8-0.8h1.7l1.7-1.7h3.4
	l1.7,1.7h1.7c0.7,0,1.3,0.3,1.8,0.8s0.8,1.1,0.8,1.8v6.8c0,0.7-0.3,1.3-0.8,1.8S29.8,42,29.1,42H18.9z M24,39c0.8,0,1.5-0.3,2.1-0.9
	c0.6-0.6,0.9-1.3,0.9-2.1s-0.3-1.5-0.9-2.1C25.5,33.3,24.8,33,24,33s-1.5,0.3-2.1,0.9C21.3,34.5,21,35.2,21,36s0.3,1.5,0.9,2.1
	S23.2,39,24,39z"/>
</svg>
