<?xml version="1.0" encoding="utf-8"?>
<!-- Generator: Adobe Illustrator 26.3.1, SVG Export Plug-In . SVG Version: 6.00 Build 0)  -->
<svg version="1.1" id="Слой_1" xmlns="http://www.w3.org/2000/svg" xmlns:xlink="http://www.w3.org/1999/xlink" x="0px" y="0px"
	 viewBox="0 0 48 48" style="enable-background:new 0 0 48 48;" xml:space="preserve">
<path d="M9.5,27h13.7V17H9.5C9.5,17.1,9.5,27,9.5,27z M9.5,15.5h28.9v-4.8c0-0.4-0.1-0.7-0.3-0.9s-0.5-0.3-0.9-0.3H10.8
	c-0.4,0-0.7,0.1-0.9,0.3s-0.3,0.5-0.3,0.9v4.8H9.5z M10.8,40c-0.8,0-1.4-0.3-2-0.8C8.3,38.7,8,38,8,37.2V10.8c0-0.8,0.3-1.4,0.8-2
	C9.3,8.3,10,8,10.8,8h26.5c0.8,0,1.4,0.3,2,0.8c0.5,0.5,0.8,1.2,0.8,2v12.8c-0.2-0.1-0.5-0.2-0.8-0.2c-0.3-0.1-0.5-0.1-0.8-0.1
	c-0.7,0-1.3,0.1-1.9,0.3c-0.6,0.2-1.2,0.6-1.7,1.2L32.5,27l-9.2,9.2V40H10.8z M10.8,38.5h12.5v-9.9H9.5v8.7c0,0.4,0.1,0.7,0.3,0.9
	C10.1,38.3,10.4,38.5,10.8,38.5z M24.8,27h7.7l2.3-2.3c0.5-0.5,1.1-0.9,1.7-1.2c0.6-0.2,1.3-0.3,1.9-0.3V17H24.8
	C24.8,17.1,24.8,27,24.8,27z M26.5,42v-4.4L37.1,27c0.2-0.2,0.4-0.3,0.6-0.4c0.2-0.1,0.4-0.1,0.6-0.1c0.2,0,0.4,0,0.7,0.1
	c0.2,0.1,0.4,0.2,0.6,0.4l1.8,1.9c0.2,0.2,0.3,0.4,0.4,0.6c0.1,0.2,0.1,0.4,0.1,0.6s0,0.4-0.1,0.6s-0.2,0.4-0.4,0.6L30.9,42H26.5z
	 M40.2,30.1l-1.8-1.9L40.2,30.1z M28.2,40.2h1.9l6.9-6.9l-1.9-1.9l-7,7C28.2,38.3,28.2,40.2,28.2,40.2z M36.1,32.3l-0.9-1l1.9,1.9
	L36.1,32.3z"/>
</svg>
