<?xml version="1.0" encoding="utf-8"?>
<!-- Generator: Adobe Illustrator 26.3.1, SVG Export Plug-In . SVG Version: 6.00 Build 0)  -->
<svg version="1.1" id="Слой_1" xmlns="http://www.w3.org/2000/svg" xmlns:xlink="http://www.w3.org/1999/xlink" x="0px" y="0px"
	 viewBox="0 0 48 48" style="enable-background:new 0 0 48 48;" xml:space="preserve">
<path d="M7.5,18.8h32.9l-2.2-7.7H9.8C9.8,11.2,7.5,18.8,7.5,18.8z M34.5,20.4h-21l-0.8,5.9h22.5L34.5,20.4z M9.7,38L12,20.4H7.3
	c-0.4,0-0.8-0.2-1.1-0.5C6,19.5,5.9,19.1,6,18.7l2.3-8.1c0.1-0.3,0.2-0.5,0.5-0.7C9,9.7,9.3,9.6,9.6,9.7h28.7c0.3,0,0.6,0.1,0.8,0.3
	s0.4,0.4,0.5,0.7l2.3,8.1c0.1,0.4,0,0.8-0.2,1.2c-0.3,0.4-0.6,0.5-1.1,0.5H36L38.3,38h-1.5l-1.4-10.2H12.5L11.2,38H9.7z"/>
</svg>
