<?xml version="1.0" encoding="utf-8"?>
<!-- Generator: Adobe Illustrator 26.3.1, SVG Export Plug-In . SVG Version: 6.00 Build 0)  -->
<svg version="1.1" id="Слой_1" xmlns="http://www.w3.org/2000/svg" xmlns:xlink="http://www.w3.org/1999/xlink" x="0px" y="0px"
	 viewBox="0 0 48 48" style="enable-background:new 0 0 48 48;" xml:space="preserve">
<path d="M14.6,42.5l-1.1-1.1l12.3-12.3l7,7l10.6-10.5l1.1,1.1L32.8,38.3l-7-7L14.6,42.5z M8.8,40c-0.8,0-1.4-0.3-2-0.8
	C6.3,38.7,6,38,6,37.2V10.3c0-0.8,0.3-1.4,0.8-2c0.5-0.5,1.2-0.8,2-0.8h26.5c0.8,0,1.4,0.3,2,0.8c0.5,0.5,0.8,1.2,0.8,2v9.1H7.5
	v17.8c0,0.3,0.1,0.6,0.4,0.8c0.3,0.3,0.5,0.4,0.8,0.4V40H8.8z M7.5,17.9h28.9v-7.6c0-0.3-0.1-0.6-0.4-0.8s-0.5-0.4-0.8-0.4H8.8
	C8.5,9.1,8.2,9.2,8,9.5C7.7,9.7,7.5,10,7.5,10.3V17.9z M7.5,17.9V9.1V17.9z"/>
</svg>
