<?xml version="1.0" encoding="utf-8"?>
<!-- Generator: Adobe Illustrator 26.3.1, SVG Export Plug-In . SVG Version: 6.00 Build 0)  -->
<svg version="1.1" id="Слой_1" xmlns="http://www.w3.org/2000/svg" xmlns:xlink="http://www.w3.org/1999/xlink" x="0px" y="0px"
	 viewBox="0 0 48 48" style="enable-background:new 0 0 48 48;" xml:space="preserve">
<path d="M41.2,31.2l-6.1-6.1v5.2l-1.5-1.5v-16c0-0.4-0.1-0.7-0.3-0.9s-0.5-0.3-0.9-0.3h-16L14.7,10h17.6c0.7,0,1.4,0.3,1.9,0.8
	c0.6,0.6,0.8,1.2,0.8,1.9v10.1l6.1-6.1C41.2,16.8,41.2,31.2,41.2,31.2z M7.1,21.3v-8.5c0-0.7,0.2-1.2,0.6-1.7c0.4-0.5,1-0.8,1.6-0.9
	h0.4l1.5,1.5H9.8c-0.4,0-0.7,0.1-0.9,0.3s-0.3,0.5-0.3,0.9v8.5C8.6,21.3,7.1,21.3,7.1,21.3z M21.8,38v-1.5h10.5
	c0.4,0,0.7-0.1,0.9-0.3s0.3-0.5,0.3-0.9v-1.4l1.5,1.5v0.5c-0.1,0.6-0.4,1.1-0.9,1.6C33.6,37.8,33,38,32.3,38H21.8z M39.4,41.9
	L5.1,7.7l1.1-1.1l34.3,34.3L39.4,41.9z M10,40.2c-0.4,0-0.7-0.1-1.1-0.2c-0.3-0.2-0.6-0.4-0.9-0.6l-3.8-3.8v-0.1
	c0.1-0.1,0.2-0.2,0.3-0.3c0.1-0.1,0.3-0.1,0.4-0.1c0.2,0,0.3,0,0.5,0.1s0.3,0.2,0.5,0.3l1.8,1.8v-9.4c0-0.2,0.1-0.3,0.2-0.5
	c0.1-0.1,0.3-0.2,0.5-0.2s0.3,0.1,0.5,0.2C9,27.6,9,27.7,9,27.9v4.5h1.3v-7c0-0.2,0.1-0.3,0.2-0.5c0.1-0.1,0.3-0.2,0.5-0.2
	s0.3,0.1,0.5,0.2c0.1,0.1,0.2,0.3,0.2,0.5v7H13v-5.7c0-0.2,0.1-0.3,0.2-0.5c0.1-0.1,0.3-0.2,0.5-0.2s0.3,0.1,0.5,0.2
	c0.1,0.1,0.2,0.3,0.2,0.5v5.7h1.3v-4.1c0-0.2,0.1-0.3,0.2-0.5c0.1-0.1,0.3-0.2,0.5-0.2s0.3,0.1,0.5,0.2c0.1,0.1,0.2,0.3,0.2,0.5v9.1
	c0,0.8-0.3,1.4-0.8,1.9s-1.2,0.8-2,0.8C14.1,40.2,10,40.2,10,40.2z"/>
</svg>
