<?xml version="1.0" encoding="utf-8"?>
<!-- Generator: Adobe Illustrator 26.3.1, SVG Export Plug-In . SVG Version: 6.00 Build 0)  -->
<svg version="1.1" id="Слой_1" xmlns="http://www.w3.org/2000/svg" xmlns:xlink="http://www.w3.org/1999/xlink" x="0px" y="0px"
	 viewBox="0 0 48 48" style="enable-background:new 0 0 48 48;" xml:space="preserve">
<path d="M12,23.5V6.8c0-0.8,0.3-1.4,0.8-2C13.3,4.3,14,4,14.8,4h18.5c0.8,0,1.4,0.3,2,0.8C35.7,5.3,36,6,36,6.8v35.7
	c0,0.4-0.2,0.8-0.5,1.1s-0.6,0.4-1,0.4V9.8h-21v13.6L12,23.5L12,23.5z M12,44v-4.5c1.3,0,2.3,0.4,3.2,1.3c0.9,0.9,1.3,1.9,1.3,3.2
	H12z M20.8,44c0-2.5-0.9-4.5-2.6-6.3c-1.7-1.7-3.8-2.6-6.3-2.6v-1.5c2.8,0,5.3,1,7.3,3s3,4.5,3,7.3C22.4,44,20.8,44,20.8,44z
	 M26.7,44c0-4.1-1.4-7.5-4.3-10.4s-6.3-4.3-10.4-4.3v-1.5c2.2,0,4.3,0.4,6.3,1.3s3.7,2,5.1,3.5c1.5,1.5,2.6,3.2,3.5,5.1
	c0.9,2,1.3,4.1,1.3,6.3C28.2,44,26.7,44,26.7,44z M13.5,8.3h20.9V6.8c0-0.3-0.1-0.6-0.4-0.8c-0.3-0.3-0.5-0.4-0.8-0.4H14.8
	c-0.3,0-0.6,0.1-0.8,0.4c-0.3,0.3-0.4,0.5-0.4,0.8v1.5H13.5z M13.5,8.3V5.5V8.3z"/>
</svg>
