<?xml version="1.0" encoding="utf-8"?>
<!-- Generator: Adobe Illustrator 26.3.1, SVG Export Plug-In . SVG Version: 6.00 Build 0)  -->
<svg version="1.1" id="Слой_1" xmlns="http://www.w3.org/2000/svg" xmlns:xlink="http://www.w3.org/1999/xlink" x="0px" y="0px"
	 viewBox="0 0 48 48" style="enable-background:new 0 0 48 48;" xml:space="preserve">
<path d="M10.5,28.2c-0.5,0.3-1.1,0.4-1.7,0.2c-0.6-0.1-1-0.5-1.3-1c-0.4-0.6-0.4-1.3-0.2-2C7.5,24.7,8,24.3,8.7,24l17-5.9l0.7,1.5
	C26.5,19.7,10.5,28.2,10.5,28.2z M11.9,40.5V30.1l17.9-9.4L28.9,19l9.4-4.7l0.8,1.6L25.4,26.2v14.4C25.4,40.5,11.9,40.5,11.9,40.5z
	 M15.4,21.5c-1.6,0-3-0.6-4.1-1.7s-1.7-2.5-1.7-4.1s0.6-3,1.7-4.1s2.5-1.7,4.1-1.7s3,0.6,4.1,1.7s1.7,2.5,1.7,4.1s-0.6,3-1.7,4.1
	C18.3,21,17,21.5,15.4,21.5z"/>
</svg>
