<?xml version="1.0" encoding="utf-8"?>
<!-- Generator: Adobe Illustrator 26.3.1, SVG Export Plug-In . SVG Version: 6.00 Build 0)  -->
<svg version="1.1" id="Слой_1" xmlns="http://www.w3.org/2000/svg" xmlns:xlink="http://www.w3.org/1999/xlink" x="0px" y="0px"
	 viewBox="0 0 48 48" style="enable-background:new 0 0 48 48;" xml:space="preserve">
<path d="M7.5,36.4V26V36.4z M31.5,33.5c0.6,0,1.1-0.2,1.5-0.6c0.4-0.4,0.6-0.9,0.6-1.5c0-0.6-0.2-1.1-0.6-1.5
	c-0.4-0.4-0.9-0.6-1.5-0.6c-0.6,0-1.1,0.2-1.5,0.6s-0.6,0.9-0.6,1.5c0,0.6,0.2,1.1,0.6,1.5C30.4,33.3,30.9,33.5,31.5,33.5z
	 M12.5,33.5c0.6,0,1.1-0.2,1.5-0.6c0.4-0.4,0.6-0.9,0.6-1.5c0-0.6-0.2-1.1-0.6-1.5c-0.4-0.4-0.9-0.6-1.5-0.6s-1.1,0.2-1.5,0.6
	s-0.6,0.9-0.6,1.5c0,0.6,0.2,1.1,0.6,1.5C11.4,33.3,11.9,33.5,12.5,33.5z M33.4,21.6c-2.2,0-4-0.8-5.5-2.3s-2.3-3.4-2.3-5.6
	s0.8-4,2.3-5.5C29.4,6.8,31.3,6,33.5,6s4,0.7,5.5,2.2s2.2,3.3,2.2,5.5s-0.8,4-2.3,5.5C37.5,20.8,35.6,21.6,33.4,21.6z M32.8,14.8
	h1.4V9.2h-1.4V14.8z M33.5,18.6c0.3,0,0.5-0.1,0.7-0.3c0.2-0.2,0.3-0.4,0.3-0.7c0-0.3-0.1-0.5-0.3-0.7s-0.4-0.3-0.7-0.3
	s-0.6,0.1-0.7,0.3c-0.2,0.2-0.3,0.4-0.3,0.7c0,0.3,0.1,0.5,0.3,0.7C33,18.5,33.2,18.6,33.5,18.6z M21.4,15.5h-10l-3.2,9.4h19.7
	c1,0.6,2.2,1,3.4,1.3s2.5,0.3,3.8,0.2H7.5v9.9h28.9V25.9c0.2,0,0.5-0.1,0.8-0.2s0.5-0.2,0.8-0.4v15.9c0,0.2-0.1,0.4-0.2,0.5
	c-0.1,0.1-0.3,0.2-0.5,0.2l0,0c-0.2,0-0.4-0.1-0.6-0.2c-0.1-0.1-0.2-0.3-0.2-0.5v-3.3h-29v3.3c0,0.2-0.1,0.4-0.2,0.5
	C7.2,41.9,7,42,6.8,42s-0.4-0.1-0.5-0.2C6.1,41.6,6,41.4,6,41.2V26.5l4-11.7c0.1-0.2,0.2-0.4,0.5-0.6c0.2-0.1,0.5-0.2,0.7-0.2h7
	v-2.6h3.3c-0.1,0.4-0.2,0.8-0.2,1.2s0,0.8,0,1.2c0,0.3,0,0.6,0,0.9C21.3,15,21.3,15.2,21.4,15.5z"/>
</svg>
