<?xml version="1.0" encoding="utf-8"?>
<!-- Generator: Adobe Illustrator 26.3.1, SVG Export Plug-In . SVG Version: 6.00 Build 0)  -->
<svg version="1.1" id="Слой_1" xmlns="http://www.w3.org/2000/svg" xmlns:xlink="http://www.w3.org/1999/xlink" x="0px" y="0px"
	 viewBox="0 0 48 48" style="enable-background:new 0 0 48 48;" xml:space="preserve">
<path d="M10.8,40c-0.7,0-1.4-0.3-1.9-0.8S8,38,8,37.2V10.8c0-0.8,0.3-1.4,0.8-2C9.4,8.3,10,8,10.8,8h26.5c0.7,0,1.4,0.3,1.9,0.8
	c0.5,0.6,0.8,1.2,0.8,2v26.5c0,0.7-0.3,1.4-0.8,1.9c-0.6,0.5-1.2,0.8-2,0.8H10.8z M21.2,38.5V24.8H9.5v12.5c0,0.4,0.1,0.7,0.3,0.9
	s0.5,0.3,0.9,0.3C10.8,38.5,21.2,38.5,21.2,38.5z M22.8,38.5h14.5c0.4,0,0.7-0.1,0.9-0.3s0.3-0.5,0.3-0.9V24.8H22.8V38.5z M9.5,23.2
	h28.9V10.8c0-0.4-0.1-0.7-0.3-0.9s-0.5-0.3-0.9-0.3H10.8c-0.4,0-0.7,0.1-0.9,0.3s-0.3,0.5-0.3,0.9v12.4H9.5z"/>
</svg>
