<?xml version="1.0" encoding="utf-8"?>
<!-- Generator: Adobe Illustrator 26.3.1, SVG Export Plug-In . SVG Version: 6.00 Build 0)  -->
<svg version="1.1" id="Слой_1" xmlns="http://www.w3.org/2000/svg" xmlns:xlink="http://www.w3.org/1999/xlink" x="0px" y="0px"
	 viewBox="0 0 48 48" style="enable-background:new 0 0 48 48;" xml:space="preserve">
<path d="M9,43V24.8c-1.5-0.3-2.8-0.9-3.9-1.9s-1.7-2.2-2-3.6h1.6c0.3,1.1,0.9,2,1.8,2.8s2,1.1,3.2,1.1H13v-6.5
	c-1.5-0.3-2.8-1-3.9-1.9c-1-0.9-1.7-2.1-2-3.6h1.5c0.3,1.1,0.9,2,1.8,2.8c0.9,0.8,2,1.1,3.2,1.1h1.6L24,3.7l8.7,11.6h1.6
	c1.2,0,2.3-0.4,3.2-1.1c0.9-0.8,1.5-1.7,1.8-2.8h1.6c-0.3,1.4-0.9,2.6-2,3.5c-1,0.9-2.4,1.6-3.9,1.9v6.5h3.3c1.2,0,2.3-0.4,3.2-1.1
	c0.9-0.8,1.5-1.7,1.8-2.8h1.6C44.7,20.8,44,22,43,23c-1.1,1-2.4,1.6-4,1.9V43H27.2v-7c0-0.9-0.3-1.7-0.9-2.3s-1.4-0.9-2.3-0.9
	s-1.7,0.3-2.3,0.9c-0.6,0.6-0.9,1.4-0.9,2.3v7C20.8,43,9,43,9,43z M17.2,15.2h13.5l-6.8-9C24,6.2,17.2,15.2,17.2,15.2z M14.5,23.2
	h18.9v-6.5H14.5V23.2z M10.5,41.5h8.7V36c0-1.3,0.5-2.4,1.4-3.4c0.9-0.9,2.1-1.4,3.4-1.4s2.4,0.5,3.4,1.4c0.9,0.9,1.4,2.1,1.4,3.4
	v5.5h8.7V24.8h-27V41.5z"/>
</svg>
