<?xml version="1.0" encoding="utf-8"?>
<!-- Generator: Adobe Illustrator 26.3.1, SVG Export Plug-In . SVG Version: 6.00 Build 0)  -->
<svg version="1.1" id="Слой_1" xmlns="http://www.w3.org/2000/svg" xmlns:xlink="http://www.w3.org/1999/xlink" x="0px" y="0px"
	 viewBox="0 0 48 48" style="enable-background:new 0 0 48 48;" xml:space="preserve">
<path d="M5,43V23h1.5v4h6.4l6.3-20.8V3h1.5v4h6.5V3h1.5v2.9L35.1,27h6.3v-4H43v20H27.2V32.8h-6.5V43H5z M15.8,23h16.5l-2-6.5H17.7
	L15.8,23z M18.1,15h11.7l-2-6.5H20L18.1,15z M6.5,41.5h12.7V31.2h9.5v10.2h12.7V28.5h-7.6l-1.2-4H15.3l-1.2,4H6.5V41.5z"/>
</svg>
