<?xml version="1.0" encoding="utf-8"?>
<!-- Generator: Adobe Illustrator 26.3.1, SVG Export Plug-In . SVG Version: 6.00 Build 0)  -->
<svg version="1.1" id="Слой_1" xmlns="http://www.w3.org/2000/svg" xmlns:xlink="http://www.w3.org/1999/xlink" x="0px" y="0px"
	 viewBox="0 0 48 48" style="enable-background:new 0 0 48 48;" xml:space="preserve">
<path d="M25.3,14.6v-2.5c0-0.7,0.3-1.3,0.8-1.8s1.1-0.7,1.8-0.7h2.5v2.5c0,0.7-0.2,1.3-0.7,1.8s-1.1,0.8-1.8,0.8h-2.6V14.6z
	 M14.1,24.6c-1.2,0-2.3-0.4-3.2-1.3s-1.3-2-1.3-3.2v-4.6h4.6c1.2,0,2.3,0.4,3.2,1.3c0.9,0.9,1.3,2,1.3,3.2v4.6H14.1z M32,41.5
	c-1.2,0-2.4-0.2-3.5-0.6s-2.1-1-3-1.8L22.6,42c-0.1,0.1-0.3,0.2-0.5,0.2s-0.4-0.1-0.6-0.2c-0.1-0.2-0.2-0.4-0.2-0.6
	c0-0.2,0.1-0.4,0.2-0.5l2.9-2.9c-0.7-0.9-1.3-1.9-1.8-3c-0.4-1.1-0.6-2.3-0.6-3.5c0-2.8,1-5.1,2.9-7.1s4.3-2.9,7.1-2.9h10v10
	c0,2.8-1,5.1-2.9,7.1C37.1,40.5,34.8,41.5,32,41.5z M32,40c2.4,0,4.4-0.8,6-2.5s2.4-3.7,2.4-6V23H32c-2.3,0-4.3,0.8-6,2.4
	s-2.5,3.6-2.5,6c0,1,0.2,2,0.5,2.9c0.4,0.9,0.8,1.8,1.4,2.5l6-6c0.2-0.2,0.4-0.3,0.5-0.3c0.2,0,0.4,0.1,0.5,0.3
	c0.2,0.2,0.3,0.4,0.3,0.5c0,0.2-0.1,0.4-0.3,0.5l-6,6c0.8,0.6,1.6,1.1,2.5,1.4C30,39.8,31,40,32,40z"/>
</svg>
