<?xml version="1.0" encoding="utf-8"?>
<!-- Generator: Adobe Illustrator 26.3.1, SVG Export Plug-In . SVG Version: 6.00 Build 0)  -->
<svg version="1.1" id="Слой_1" xmlns="http://www.w3.org/2000/svg" xmlns:xlink="http://www.w3.org/1999/xlink" x="0px" y="0px"
	 viewBox="0 0 48 48" style="enable-background:new 0 0 48 48;" xml:space="preserve">
<path d="M7.7,41c-1.4,0-2.6-0.5-3.6-1.5s-1.5-2.2-1.5-3.6c0-1.4,0.5-2.6,1.5-3.6s2.2-1.5,3.6-1.5c0.4,0,0.8,0,1.1,0.1
	c0.4,0.1,0.7,0.2,1.1,0.4l9-12.3c-0.6-0.6-1.1-1.4-1.4-2.2C17.2,16,17,15.1,17,14.1c0-2,0.7-3.6,2.1-5C20.4,7.7,22,7,24,7
	s3.6,0.7,5,2.1s2.1,3,2.1,5c0,1-0.2,1.9-0.5,2.7c-0.4,0.8-0.9,1.6-1.5,2.2l9,12.3c0.3-0.2,0.7-0.3,1.1-0.4c0.4-0.1,0.8-0.1,1.2-0.1
	c1.4,0,2.6,0.5,3.6,1.5s1.5,2.2,1.5,3.6c0,1.4-0.5,2.6-1.5,3.6S41.8,41,40.4,41c-1.4,0-2.6-0.5-3.6-1.5s-1.5-2.2-1.5-3.6
	c0-0.7,0.1-1.4,0.4-2c0.3-0.6,0.7-1.2,1.2-1.7l-9-12.2c-0.5,0.3-1,0.6-1.5,0.8c-0.5,0.2-1.1,0.3-1.6,0.4v9.7
	c1.2,0.2,2.2,0.8,3.1,1.7c0.8,0.9,1.2,2,1.2,3.3c0,1.4-0.5,2.6-1.5,3.6S25.4,41,24,41s-2.6-0.5-3.6-1.5s-1.5-2.2-1.5-3.6
	c0-1.3,0.4-2.4,1.2-3.3c0.8-1,1.8-1.5,3.1-1.7v-9.7c-0.6-0.1-1.1-0.2-1.7-0.4c-0.5-0.2-1-0.4-1.5-0.8l-8.9,12.2
	c0.5,0.5,0.9,1,1.2,1.7c0.3,0.6,0.5,1.3,0.5,2c0,1.4-0.5,2.6-1.5,3.6C10.3,40.5,9.1,41,7.7,41z M7.7,39.5c1,0,1.8-0.3,2.5-1
	s1-1.5,1-2.5s-0.3-1.8-1-2.5s-1.5-1-2.5-1s-1.8,0.3-2.5,1s-1,1.5-1,2.5s0.3,1.8,1,2.5C5.9,39.1,6.8,39.5,7.7,39.5z M24,39.4
	c1,0,1.8-0.3,2.5-1s1-1.5,1-2.5s-0.3-1.8-1-2.5s-1.5-1-2.5-1s-1.8,0.3-2.5,1s-1,1.5-1,2.5s0.3,1.8,1,2.5C22.2,39.1,23,39.4,24,39.4z
	 M40.3,39.5c1,0,1.8-0.3,2.5-1s1-1.5,1-2.5s-0.3-1.8-1-2.5s-1.5-1-2.5-1s-1.8,0.3-2.5,1s-1,1.5-1,2.5s0.3,1.8,1,2.5
	C38.5,39.1,39.3,39.5,40.3,39.5z M24,19.7c1.5,0,2.8-0.5,3.9-1.6s1.6-2.4,1.6-3.9s-0.5-2.8-1.6-3.9S25.5,8.7,24,8.7
	s-2.8,0.5-3.9,1.6s-1.6,2.4-1.6,3.9s0.5,2.8,1.6,3.9C21.2,19.1,22.5,19.7,24,19.7z"/>
</svg>
