<?xml version="1.0" encoding="utf-8"?>
<!-- Generator: Adobe Illustrator 26.3.1, SVG Export Plug-In . SVG Version: 6.00 Build 0)  -->
<svg version="1.1" id="Слой_1" xmlns="http://www.w3.org/2000/svg" xmlns:xlink="http://www.w3.org/1999/xlink" x="0px" y="0px"
	 viewBox="0 0 48 48" style="enable-background:new 0 0 48 48;" xml:space="preserve">
<path d="M8.8,42c-0.7,0-1.4-0.3-1.9-0.8S6,40,6,39.2V8.8c0-0.8,0.3-1.4,0.8-2C7.4,6.3,8,6,8.8,6h13.9l-1.5,1.5H8.8
	c-0.4,0-0.7,0.1-0.9,0.3c-0.2,0.3-0.4,0.6-0.4,1v30.5c0,0.4,0.1,0.7,0.3,0.9c0.2,0.2,0.5,0.3,0.9,0.3h20.5c0.4,0,0.7-0.1,0.9-0.3
	c0.2-0.2,0.3-0.5,0.3-0.9v-4.5H32v4.5c0,0.7-0.3,1.4-0.8,1.9c-0.6,0.5-1.2,0.8-2,0.8H8.8z M13,34.8v-1.5h12v1.5H13z M13,29.2v-1.5h8
	v1.5H13z M29.5,28l-6.6-6.6H17v-8h5.9l6.6-6.6C29.5,6.8,29.5,28,29.5,28z M33,23.9V10.6c1.3,0.7,2.3,1.7,3,3c0.6,1.3,1,2.6,1,3.8
	c0,1.2-0.4,2.4-1.1,3.7C35.2,22.4,34.2,23.3,33,23.9z M33,31.1v-1.6c2.1-1,3.8-2.6,5.3-4.8s2.2-4.6,2.2-7.4s-0.7-5.2-2.2-7.4
	S35.1,6.1,33,5.1V3.7c2.6,1,4.7,2.8,6.4,5.3s2.6,5.3,2.6,8.4s-0.9,5.9-2.6,8.4C37.7,28.3,35.6,30.1,33,31.1z"/>
</svg>
