<?xml version="1.0" encoding="utf-8"?>
<!-- Generator: Adobe Illustrator 26.3.1, SVG Export Plug-In . SVG Version: 6.00 Build 0)  -->
<svg version="1.1" id="Слой_1" xmlns="http://www.w3.org/2000/svg" xmlns:xlink="http://www.w3.org/1999/xlink" x="0px" y="0px"
	 viewBox="0 0 48 48" style="enable-background:new 0 0 48 48;" xml:space="preserve">
<path d="M14.3,30.3L8,24l6.3-6.3l1.1,1.1L11,23.2h14.8v1.5H11l4.4,4.4L14.3,30.3z M32.1,38.5h6.4v-29h-6.4V38.5z M30.5,40V8H40v32
	H30.5z M23,10V8h2v2H23z M23,40v-2h2v2H23z M15.5,10V8h2v2H15.5z M15.5,40v-2h2v2H15.5z M8,10V8h2v2H8z M8,40v-2h2v2H8z M32.1,38.5
	h6.4H32.1z"/>
</svg>
