<?xml version="1.0" encoding="utf-8"?>
<!-- Generator: Adobe Illustrator 26.3.1, SVG Export Plug-In . SVG Version: 6.00 Build 0)  -->
<svg version="1.1" id="Слой_1" xmlns="http://www.w3.org/2000/svg" xmlns:xlink="http://www.w3.org/1999/xlink" x="0px" y="0px"
	 viewBox="0 0 48 48" style="enable-background:new 0 0 48 48;" xml:space="preserve">
<path d="M37.3,14.2c0.4,0,0.7-0.1,1-0.4c0.3-0.3,0.4-0.6,0.4-1s-0.1-0.7-0.4-1c-0.3-0.3-0.6-0.4-1-0.4s-0.7,0.1-1,0.4
	c-0.3,0.3-0.4,0.6-0.4,1c0,0.3,0.1,0.7,0.4,1C36.6,14.1,36.9,14.2,37.3,14.2z M29,14.2c0.4,0,0.7-0.1,1-0.4c0.3-0.3,0.4-0.6,0.4-1
	s-0.1-0.7-0.4-1s-0.6-0.4-1-0.4s-0.7,0.1-1,0.4c-0.3,0.3-0.4,0.6-0.4,1c0,0.3,0.1,0.7,0.4,1S28.6,14.2,29,14.2z M28.5,21.3h9.4
	c-0.1-0.8-0.7-1.5-1.6-2.1c-0.9-0.5-2-0.8-3.1-0.8c-1.2,0-2.3,0.3-3.2,0.8C29,19.7,28.5,20.4,28.5,21.3z M14.9,42
	c-2.8,0-5.1-1-7-2.9c-1.9-2-2.9-4.3-2.9-7V20.4h19.7v11.7c0,2.7-0.9,5-2.8,7C20,41,17.6,42,14.9,42z M14.9,40.5
	c2.3,0,4.2-0.8,5.9-2.5c1.6-1.6,2.4-3.6,2.4-5.9V21.9H6.5v10.2c0,2.3,0.8,4.2,2.4,5.9C10.6,39.6,12.6,40.5,14.9,40.5z M33.1,27.5
	c-1,0-2.1-0.1-3.1-0.4s-1.9-0.7-2.6-1.2l0.1-1.8c0.8,0.5,1.6,1,2.6,1.3c0.9,0.4,2,0.5,3.1,0.5c2.3,0,4.2-0.8,5.9-2.4
	c1.6-1.6,2.4-3.5,2.4-5.7V7.5H24.8v10.1h-1.5V6H43v11.9c0,2.7-1,4.9-2.9,6.8C38.2,26.6,35.9,27.5,33.1,27.5z M10.8,28.5
	c0.4,0,0.7-0.1,1-0.4s0.4-0.6,0.4-1s-0.1-0.7-0.4-1c-0.3-0.3-0.6-0.4-1-0.4s-0.7,0.1-1,0.4s-0.4,0.6-0.4,1s0.1,0.7,0.4,1
	C10,28.3,10.4,28.5,10.8,28.5z M19,28.5c0.4,0,0.7-0.1,1-0.4s0.4-0.6,0.4-1s-0.1-0.7-0.4-1s-0.6-0.4-1-0.4s-0.7,0.1-1,0.4
	s-0.4,0.6-0.4,1s0.1,0.7,0.4,1C18.3,28.3,18.7,28.5,19,28.5z M14.9,35.7c1.2,0,2.3-0.3,3.2-0.8c0.9-0.5,1.4-1.2,1.5-2.1h-9.4
	c0.1,0.8,0.6,1.5,1.5,2.1C12.6,35.4,13.7,35.7,14.9,35.7z"/>
</svg>
