<?xml version="1.0" encoding="utf-8"?>
<!-- Generator: Adobe Illustrator 26.3.1, SVG Export Plug-In . SVG Version: 6.00 Build 0)  -->
<svg version="1.1" id="Слой_1" xmlns="http://www.w3.org/2000/svg" xmlns:xlink="http://www.w3.org/1999/xlink" x="0px" y="0px"
	 viewBox="0 0 48 48" style="enable-background:new 0 0 48 48;" xml:space="preserve">
<path d="M9,41V7h1.5v3.5h6.9V7h13.1v3.5h6.9V7H39v34h-1.5v-3.5h-6.9V41H17.5v-3.5h-6.9V41H9z M10.5,35.9h6.9V29h-6.9V35.9z
	 M10.5,27.5h6.9v-6.9h-6.9V27.5z M10.5,19h6.9v-6.9h-6.9V19z M30.5,35.9h6.9V29h-6.9C30.5,29,30.5,35.9,30.5,35.9z M30.5,27.5h6.9
	v-6.9h-6.9C30.5,20.6,30.5,27.5,30.5,27.5z M30.5,19h6.9v-6.9h-6.9C30.5,12.1,30.5,19,30.5,19z M19,39.5h10v-31H19V39.5z M19,8.5h10
	H19z"/>
</svg>
