<?xml version="1.0" encoding="utf-8"?>
<!-- Generator: Adobe Illustrator 26.3.1, SVG Export Plug-In . SVG Version: 6.00 Build 0)  -->
<svg version="1.1" id="Слой_1" xmlns="http://www.w3.org/2000/svg" xmlns:xlink="http://www.w3.org/1999/xlink" x="0px" y="0px"
	 viewBox="0 0 48 48" style="enable-background:new 0 0 48 48;" xml:space="preserve">
<path d="M24,41.7c-0.3,0-0.7-0.1-1-0.2c-0.3-0.1-0.6-0.3-0.9-0.6l-15-15c-0.3-0.3-0.5-0.6-0.6-0.9s-0.2-0.7-0.2-1s0.1-0.7,0.2-1
	s0.3-0.6,0.6-0.9l15-15c0.3-0.3,0.6-0.5,0.9-0.6s0.7-0.2,1-0.2s0.7,0.1,1,0.2s0.6,0.3,0.9,0.6l15,15c0.3,0.3,0.5,0.6,0.6,0.9
	s0.2,0.7,0.2,1s-0.1,0.7-0.2,1c-0.1,0.3-0.3,0.6-0.6,0.9l-15,15c-0.3,0.3-0.6,0.5-0.9,0.6C24.7,41.7,24.3,41.7,24,41.7z M24.9,39.8
	l14.9-14.9c0.2-0.2,0.3-0.5,0.3-0.9s-0.1-0.7-0.3-0.9L24.9,8.2C24.7,8,24.4,7.9,24,7.9S23.3,8,23.1,8.2L8.2,23.1
	C8,23.3,7.9,23.6,7.9,24s0.1,0.7,0.3,0.9l14.9,14.9c0.2,0.2,0.5,0.3,0.9,0.3S24.7,40,24.9,39.8z"/>
</svg>
