<?xml version="1.0" encoding="utf-8"?>
<!-- Generator: Adobe Illustrator 26.3.1, SVG Export Plug-In . SVG Version: 6.00 Build 0)  -->
<svg version="1.1" id="Слой_1" xmlns="http://www.w3.org/2000/svg" xmlns:xlink="http://www.w3.org/1999/xlink" x="0px" y="0px"
	 viewBox="0 0 48 48" style="enable-background:new 0 0 48 48;" xml:space="preserve">
<path d="M24,40c-2.1,0-3.9-0.7-5.4-2.2s-2.2-3.3-2.2-5.4c0-1.5,0.4-2.8,1.2-4c0.8-1.2,1.8-2.2,3.1-2.9V11.4c0-1,0.3-1.8,1-2.4
	C22.3,8.3,23,8,24,8c0.9,0,1.7,0.3,2.4,1c0.7,0.6,1,1.4,1,2.4v14.1c1.3,0.7,2.3,1.7,3,2.9c0.8,1.2,1.2,2.5,1.2,4
	c0,2.1-0.8,3.9-2.3,5.4C27.9,39.3,26.1,40,24,40z M24,38.5c1.7,0,3.1-0.6,4.3-1.8c1.2-1.2,1.8-2.6,1.8-4.3c0-1.1-0.2-2.1-0.7-3.1
	s-1.2-1.7-2.2-2.2l-1.3-0.9V11.4c0-0.5-0.2-0.9-0.5-1.3c-0.4-0.4-0.8-0.5-1.3-0.5s-0.9,0.2-1.3,0.5c-0.4,0.4-0.5,0.8-0.5,1.3v14.9
	L21,27.2c-1,0.5-1.7,1.3-2.2,2.2c-0.5,1-0.7,2-0.7,3.1c0,1.7,0.6,3.1,1.8,4.3C20.9,37.9,22.3,38.5,24,38.5z"/>
</svg>
