<?xml version="1.0" encoding="utf-8"?>
<!-- Generator: Adobe Illustrator 26.3.1, SVG Export Plug-In . SVG Version: 6.00 Build 0)  -->
<svg version="1.1" id="Слой_1" xmlns="http://www.w3.org/2000/svg" xmlns:xlink="http://www.w3.org/1999/xlink" x="0px" y="0px"
	 viewBox="0 0 48 48" style="enable-background:new 0 0 48 48;" xml:space="preserve">
<path d="M27.7,40c-1.5,0-2.7-0.5-3.6-1.5s-1.4-2.3-1.4-3.9c0-2.3,1-4.3,3.1-6c2-1.7,4.5-2.7,7.4-2.9c-0.1-2-0.5-3.5-1.2-4.4
	s-1.7-1.4-3-1.4s-2.6,0.4-3.8,1.3c-1.2,0.9-2.7,2.5-4.6,4.9c-1.7,2.2-3.1,3.8-4.3,4.7c-1.2,0.9-2.5,1.4-3.8,1.4
	c-1.4,0-2.5-0.5-3.3-1.4c-0.8-0.7-1.2-2-1.2-3.7c0-1.2,0.3-2.5,1-4.1s1.7-3.4,3.1-5.6c1-1.4,1.7-2.5,2.1-3.4
	c0.4-0.8,0.6-1.6,0.6-2.2c0-0.4-0.1-0.8-0.4-1c-0.3-0.3-0.7-0.4-1.2-0.4c-0.6,0-1.1,0.2-1.7,0.5c-0.6,0.3-1.2,0.8-1.8,1.5L8,10.7
	c0.9-0.9,1.7-1.6,2.5-2C11.4,8.2,12.2,8,13.1,8c1.2,0,2.1,0.4,2.9,1.1c0.7,0.7,1.1,1.6,1.1,2.8c0,0.9-0.2,1.8-0.7,2.8
	s-1.4,2.5-2.7,4.5s-2.2,3.5-2.7,4.7s-0.7,2.3-0.7,3.4c0,0.8,0.2,1.4,0.7,2c0.4,0.5,1,0.8,1.6,0.8c0.5,0,1-0.1,1.5-0.4
	c0.5-0.2,1-0.6,1.5-1.1c0.4-0.4,0.9-0.9,1.4-1.5s1.1-1.3,1.7-2.1c2.2-2.7,4-4.6,5.6-5.7c1.5-1.1,3.1-1.6,4.8-1.6
	c1.9,0,3.4,0.7,4.5,2.1s1.8,3.4,1.9,5.9H40V28h-4.5c-0.2,3.6-1,6.5-2.5,8.7C31.7,38.9,29.9,40,27.7,40z M27.7,37.7
	c1.5,0,2.8-0.9,3.9-2.7c1-1.8,1.6-4.1,1.7-6.9c-2.3,0.2-4.2,0.9-5.8,2.2c-1.6,1.3-2.4,2.8-2.4,4.5c0,0.9,0.2,1.6,0.7,2.1
	C26.2,37.4,26.8,37.7,27.7,37.7z M38.2,14.6c-1.3,0-2.5-0.5-3.4-1.4s-1.4-2.1-1.4-3.4s0.5-2.5,1.4-3.4c1-0.9,2.1-1.4,3.4-1.4
	s2.5,0.5,3.4,1.4c0.9,1,1.4,2.1,1.4,3.4s-0.5,2.5-1.4,3.4C40.7,14.1,39.5,14.6,38.2,14.6z"/>
</svg>
