<?xml version="1.0" encoding="utf-8"?>
<!-- Generator: Adobe Illustrator 26.3.1, SVG Export Plug-In . SVG Version: 6.00 Build 0)  -->
<svg version="1.1" id="Слой_1" xmlns="http://www.w3.org/2000/svg" xmlns:xlink="http://www.w3.org/1999/xlink" x="0px" y="0px"
	 viewBox="0 0 48 48" style="enable-background:new 0 0 48 48;" xml:space="preserve">
<path d="M6.9,29.9c-0.7,0-1.4-0.3-1.9-0.9s-0.8-1.2-0.8-2v-2.5c0-0.2,0-0.4,0-0.6s0-0.4,0.1-0.6l5.6-13.1c0.3-0.6,0.7-1.2,1.4-1.6
	C11.9,8.2,12.5,8,13.1,8h20.1v21.9L20.9,42.4L20.2,42c-0.2-0.2-0.3-0.4-0.4-0.6c-0.1-0.2-0.1-0.5-0.1-0.8v-0.2l2-10.5L6.9,29.9z
	 M31.8,9.6H12.9c-0.3,0-0.6,0.1-0.9,0.2s-0.5,0.4-0.7,0.8L5.7,24v3c0,0.3,0.1,0.6,0.3,0.9c0.2,0.2,0.5,0.4,0.9,0.4h16.6l-2.2,11.5
	l10.5-10.7V9.6z M31.8,29.2V9.6V29.2z M33.3,29.9v-1.6h7.2V9.6h-7.2V8H42v21.9H33.3z"/>
</svg>
