<?xml version="1.0" encoding="utf-8"?>
<!-- Generator: Adobe Illustrator 26.3.1, SVG Export Plug-In . SVG Version: 6.00 Build 0)  -->
<svg version="1.1" id="Слой_1" xmlns="http://www.w3.org/2000/svg" xmlns:xlink="http://www.w3.org/1999/xlink" x="0px" y="0px"
	 viewBox="0 0 48 48" style="enable-background:new 0 0 48 48;" xml:space="preserve">
<path d="M3.8,26.5c-0.8,0-1.4-0.3-2-0.8c-0.5-0.5-0.8-1.2-0.8-2V11.3c0-0.2,0-0.4,0.1-0.6s0.2-0.4,0.4-0.6L10.6,1l0.7,0.7
	c0.1,0.1,0.2,0.3,0.3,0.4c0.1,0.1,0.1,0.2,0.1,0.3v0.3L10,10.5h10c0.9,0,1.6,0.3,2.1,0.9c0.6,0.6,0.9,1.3,0.9,2.1V14
	c0,0.2,0,0.4,0,0.5s-0.1,0.3-0.1,0.4l-4.5,10.4c-0.2,0.4-0.4,0.6-0.7,0.9s-0.7,0.3-1.1,0.3C16.5,26.5,3.8,26.5,3.8,26.5z M16.8,25
	l4.7-10.8v-0.9c0-0.4-0.1-0.7-0.3-0.9c-0.2-0.2-0.5-0.3-0.9-0.3H8.1L9.8,4l-7.3,7.3v12.4c0,0.4,0.1,0.7,0.3,0.9
	c0.3,0.3,0.6,0.4,1,0.4H16.8z M37.4,47l-0.7-0.7c-0.1-0.1-0.2-0.3-0.3-0.4c-0.1-0.1-0.1-0.2-0.1-0.3v-0.3l1.7-7.8H28
	c-0.9,0-1.6-0.3-2.1-0.9C25.3,36,25,35.3,25,34.5V34c0-0.2,0-0.4,0.1-0.5c0-0.1,0.1-0.3,0.1-0.4l4.5-10.4c0.1-0.4,0.4-0.6,0.7-0.8
	c0.3-0.2,0.7-0.3,1.1-0.3h12.7c0.8,0,1.4,0.3,2,0.8c0.5,0.5,0.8,1.2,0.8,2v12.5c0,0.2,0,0.4-0.1,0.6c-0.1,0.2-0.2,0.4-0.4,0.6
	L37.4,47z M31.2,23l-4.7,10.8v0.9c0,0.4,0.1,0.7,0.3,0.9c0.2,0.2,0.5,0.3,0.9,0.3H40l-1.8,8l7.3-7.3V24.2c0-0.4-0.1-0.7-0.3-0.9
	C45,23.1,44.7,23,44.3,23C44.2,23,31.2,23,31.2,23z M2.5,23.5V11.3v13.4V23.5z M45.5,24.5v12.1V23.3V24.5z"/>
</svg>
