<?xml version="1.0" encoding="utf-8"?>
<!-- Generator: Adobe Illustrator 26.3.1, SVG Export Plug-In . SVG Version: 6.00 Build 0)  -->
<svg version="1.1" id="Слой_1" xmlns="http://www.w3.org/2000/svg" xmlns:xlink="http://www.w3.org/1999/xlink" x="0px" y="0px"
	 viewBox="0 0 48 48" style="enable-background:new 0 0 48 48;" xml:space="preserve">
<path d="M34.8,40H14.7V18.1L27.1,5.6L27.8,6c0.2,0.2,0.3,0.4,0.4,0.6s0.1,0.5,0.1,0.8v0.2l-2.1,10.6h14.9c0.7,0,1.3,0.3,1.9,0.9
	s0.8,1.2,0.8,2v3.1c0,0.2,0,0.4-0.1,0.6l-5.6,13.1c-0.3,0.6-0.7,1.2-1.4,1.6C36.1,39.8,35.5,40,34.8,40z M16.2,38.5h19
	c0.3,0,0.5-0.1,0.8-0.2c0.3-0.2,0.5-0.4,0.7-0.8L42.3,24v-3c0-0.3-0.1-0.6-0.3-0.9s-0.5-0.4-0.8-0.4H24.5l2.2-11.6L16.2,18.8V38.5z
	 M16.2,18.9v19.6V18.9z M14.7,18.1v1.5H7.6v18.7h7.2V40H6V18.1H14.7z"/>
</svg>
