<?xml version="1.0" encoding="utf-8"?>
<!-- Generator: Adobe Illustrator 26.3.1, SVG Export Plug-In . SVG Version: 6.00 Build 0)  -->
<svg version="1.1" id="Слой_1" xmlns="http://www.w3.org/2000/svg" xmlns:xlink="http://www.w3.org/1999/xlink" x="0px" y="0px"
	 viewBox="0 0 48 48" style="enable-background:new 0 0 48 48;" xml:space="preserve">
<path d="M13.1,9.6h20.2v21.8L20.8,44l-0.6-0.4c-0.2-0.2-0.3-0.4-0.4-0.6s-0.1-0.5-0.1-0.8V42l2.1-10.5h-15c-0.7,0-1.4-0.3-1.9-0.9
	c-0.6-0.6-0.8-1.2-0.8-1.9v-2.5c0-0.2,0-0.4,0-0.6s0-0.4,0.1-0.6l5.6-13.1c0.2-0.6,0.7-1.2,1.4-1.6C11.8,9.8,12.5,9.6,13.1,9.6z
	 M31.8,11.2h-19c-0.3,0-0.6,0.1-0.9,0.2c-0.3,0.2-0.5,0.4-0.7,0.8L5.6,25.6v3.1c0,0.3,0.1,0.6,0.3,0.9C6.1,29.8,6.4,30,6.8,30h16.7
	l-2.3,11.6l10.5-10.7C31.8,30.8,31.8,11.2,31.8,11.2z M31.8,30.8V11.2V30.8z M33.3,31.4v-1.5h7.2V11.2h-7.2V9.6H42v21.8H33.3z"/>
</svg>
