<?xml version="1.0" encoding="utf-8"?>
<!-- Generator: Adobe Illustrator 26.3.1, SVG Export Plug-In . SVG Version: 6.00 Build 0)  -->
<svg version="1.1" id="Слой_1" xmlns="http://www.w3.org/2000/svg" xmlns:xlink="http://www.w3.org/1999/xlink" x="0px" y="0px"
	 viewBox="0 0 48 48" style="enable-background:new 0 0 48 48;" xml:space="preserve">
<path d="M20,17.6l-4.8-4.8c-0.4-0.4-0.6-0.8-0.9-1.3C14.1,11,14,10.5,14,10c0-1.1,0.4-2,1.1-2.8C15.9,6.4,16.8,6,17.9,6h12.2
	c1.1,0,2,0.4,2.7,1.2s1.1,1.7,1.1,2.8c0,0.5-0.1,1.1-0.3,1.6s-0.5,0.9-0.9,1.3L28,17.5v12.7l4.8,4.8c0.4,0.4,0.7,0.8,0.9,1.3
	s0.3,1,0.3,1.5c0,1.1-0.4,2.1-1.2,2.9C32,41.6,31,42,29.9,42c-0.5,0-1-0.1-1.5-0.3s-0.9-0.5-1.3-0.9s-0.9-0.7-1.4-0.9
	s-1.1-0.3-1.7-0.3s-1.2,0.1-1.7,0.3s-1,0.5-1.4,0.9s-0.8,0.7-1.3,0.9s-1,0.3-1.5,0.3c-1.1,0-2.1-0.4-2.9-1.2
	C14.4,40,14,39,13.9,37.9c0-0.5,0.1-1.1,0.3-1.5c0.2-0.5,0.5-0.9,0.9-1.3l4.9-4.8C20,30.3,20,17.6,20,17.6z M21.5,17.5v12.8
	c0,0.2,0,0.4-0.1,0.6s-0.2,0.4-0.3,0.5l-4.8,4.8c-0.2,0.2-0.4,0.5-0.6,0.8c-0.1,0.3-0.2,0.6-0.2,1c0,0.7,0.2,1.3,0.7,1.8
	s1.1,0.7,1.8,0.7c0.3,0,0.7-0.1,1-0.2c0.3-0.1,0.6-0.3,0.8-0.6c0.6-0.5,1.2-1,1.9-1.3c0.7-0.3,1.5-0.4,2.3-0.4s1.5,0.1,2.2,0.4
	c0.7,0.3,1.4,0.7,1.9,1.3c0.2,0.2,0.5,0.4,0.8,0.6c0.3,0.1,0.6,0.2,1,0.2c0.7,0,1.3-0.2,1.8-0.7c0.5-0.5,0.7-1.1,0.7-1.8
	c0-0.3-0.1-0.6-0.2-1c-0.1-0.3-0.3-0.6-0.6-0.8l-4.8-4.8c-0.1-0.2-0.2-0.3-0.3-0.5c-0.1-0.2-0.1-0.4-0.1-0.6V17.5
	c0-0.2,0-0.4,0.1-0.6s0.2-0.4,0.3-0.5l4.8-4.8c0.2-0.2,0.4-0.5,0.6-0.8c0.1-0.3,0.2-0.6,0.2-0.9c0-0.6-0.2-1.2-0.7-1.7
	s-1-0.7-1.6-0.7H17.9c-0.7,0-1.2,0.2-1.7,0.7s-0.7,1-0.7,1.7c0,0.3,0.1,0.7,0.2,1c0.1,0.3,0.3,0.6,0.5,0.8l4.9,4.8
	c0.2,0.1,0.3,0.3,0.3,0.5C21.5,17.1,21.5,17.3,21.5,17.5z"/>
</svg>
