<?xml version="1.0" encoding="utf-8"?>
<!-- Generator: Adobe Illustrator 26.3.1, SVG Export Plug-In . SVG Version: 6.00 Build 0)  -->
<svg version="1.1" id="Слой_1" xmlns="http://www.w3.org/2000/svg" xmlns:xlink="http://www.w3.org/1999/xlink" x="0px" y="0px"
	 viewBox="0 0 48 48" style="enable-background:new 0 0 48 48;" xml:space="preserve">
<path d="M38.1,33.3L37,32.2c0.4-0.9,0.8-1.9,1.1-2.9c0.3-1.1,0.4-2.2,0.4-3.3c0-4-1.4-7.4-4.2-10.2s-6.2-4.2-10.2-4.2
	c-1.1,0-2.2,0.1-3.3,0.4c-1.1,0.2-2.1,0.6-2.9,1.1L16.8,12c1.1-0.6,2.3-1.1,3.6-1.4c1.3-0.3,2.5-0.4,3.8-0.4c2,0,3.9,0.4,5.8,1.1
	c1.8,0.7,3.5,1.7,5,3.1l2-2.1l1.1,1.1L36,15.5c1.4,1.5,2.5,3.2,3.2,5s1,3.8,1,5.7c0,1.3-0.2,2.5-0.5,3.8
	C39.2,31.1,38.8,32.3,38.1,33.3z M24.8,20v-3.3h-1.5v1.7L24.8,20z M40.3,42.7L35,37.5c-1.4,1.4-3,2.5-5,3.3c-1.8,0.8-3.9,1.2-6,1.2
	c-2.2,0-4.3-0.4-6.2-1.3c-1.9-0.8-3.6-2-5.1-3.4s-2.6-3.1-3.4-5.1c-0.8-2-1.3-4-1.3-6.2c0-2.1,0.4-4,1.1-5.9
	c0.7-1.9,1.8-3.6,3.4-5.2L5.3,7.7l1.1-1.1l35,35L40.3,42.7z M24,40.5c1.9,0,3.7-0.4,5.4-1c1.7-0.7,3.3-1.7,4.7-3L13.6,15.9
	c-1.3,1.3-2.3,2.9-3,4.6S9.5,24,9.5,25.9c0,4,1.4,7.4,4.2,10.2C16.6,39,20,40.5,24,40.5z M18.8,4.5V3h10.5v1.5H18.8z"/>
</svg>
