<?xml version="1.0" encoding="utf-8"?>
<!-- Generator: Adobe Illustrator 26.3.1, SVG Export Plug-In . SVG Version: 6.00 Build 0)  -->
<svg version="1.1" id="Слой_1" xmlns="http://www.w3.org/2000/svg" xmlns:xlink="http://www.w3.org/1999/xlink" x="0px" y="0px"
	 viewBox="0 0 48 48" style="enable-background:new 0 0 48 48;" xml:space="preserve">
<path d="M17.4,38c-3.5,0-6.5-1.2-9-3.7s-3.7-5.5-3.7-9s1.2-6.5,3.7-9s5.4-3.7,8.9-3.7c1.6,0,3.1,0.3,4.6,0.8
	c1.4,0.6,2.7,1.3,3.8,2.3l2-2l1,1l-2,2c1,1.1,1.8,2.4,2.4,3.8s0.9,3,0.9,4.6c0,3.5-1.2,6.5-3.7,9S20.9,38,17.4,38z M39.1,38L34,32.9
	l1.1-1.1l3.3,3.3V10h1.5v25l3.3-3.3l1.1,1.1L39.1,38z M13.8,9.1V7.5h7.4V9C21.2,9.1,13.8,9.1,13.8,9.1z M17.4,36.5
	c3.1,0,5.7-1.1,7.9-3.2c2.2-2.2,3.3-4.8,3.3-7.9s-1.1-5.7-3.2-7.9c-2.2-2.2-4.8-3.2-7.9-3.2s-5.7,1.1-7.9,3.2
	c-2.2,2.2-3.2,4.8-3.2,7.9s1.1,5.7,3.2,7.9S14.3,36.5,17.4,36.5z M16.6,25.6h1.5v-7.2h-1.5V25.6z"/>
</svg>
