<?xml version="1.0" encoding="utf-8"?>
<!-- Generator: Adobe Illustrator 26.3.1, SVG Export Plug-In . SVG Version: 6.00 Build 0)  -->
<svg version="1.1" id="Слой_1" xmlns="http://www.w3.org/2000/svg" xmlns:xlink="http://www.w3.org/1999/xlink" x="0px" y="0px"
	 viewBox="0 0 48 48" style="enable-background:new 0 0 48 48;" xml:space="preserve">
<path d="M5.8,35c-0.8,0-1.4-0.3-2-0.8C3.3,33.6,3,33,3,32.2s0.3-1.4,0.8-2c0.5-0.5,1.2-0.8,1.9-0.8c0.2,0,0.5,0,0.7,0.1
	s0.5,0.1,0.7,0.3l10.4-10.4c-0.1-0.2-0.2-0.5-0.3-0.7c-0.1-0.2-0.1-0.5-0.1-0.7c0-0.8,0.3-1.4,0.8-2c0.5-0.5,1.2-0.8,2-0.8
	s1.4,0.3,2,0.8c0.5,0.5,0.8,1.2,0.8,2c0,0.2-0.1,0.6-0.3,1.3l6.2,6.2c0.2-0.1,0.5-0.2,0.7-0.2s0.4-0.1,0.6-0.1s0.4,0,0.7,0.1
	c0.2,0.1,0.4,0.1,0.6,0.3l8.5-8.5c-0.1-0.2-0.2-0.4-0.3-0.6s-0.1-0.4-0.1-0.7c0-0.8,0.3-1.4,0.8-2c0.5-0.5,1.2-0.8,2-0.8
	s1.4,0.3,2,0.8c0.5,0.5,0.8,1.2,0.8,2s-0.3,1.4-0.8,2c-0.5,0.5-1.2,0.8-2,0.8c-0.2,0-0.4,0-0.7-0.1c-0.2-0.1-0.4-0.1-0.7-0.3
	l-8.5,8.5c0.1,0.2,0.2,0.4,0.3,0.6s0.1,0.4,0.1,0.7c0,0.8-0.3,1.4-0.8,1.9s-1.2,0.8-2,0.8s-1.4-0.3-2-0.8C27.3,29.4,27,28.7,27,28
	c0-0.2,0-0.5,0.1-0.7s0.1-0.5,0.3-0.7l-6.2-6.2c-0.2,0.1-0.5,0.2-0.7,0.3s-0.5,0.1-0.7,0.1s-0.6-0.1-1.3-0.3L8.3,30.9
	c0.1,0.2,0.2,0.5,0.2,0.7s0.1,0.4,0.1,0.6c0,0.8-0.3,1.4-0.8,1.9C7.2,34.7,6.5,35,5.8,35z"/>
</svg>
