<?xml version="1.0" encoding="utf-8"?>
<!-- Generator: Adobe Illustrator 26.3.1, SVG Export Plug-In . SVG Version: 6.00 Build 0)  -->
<svg version="1.1" id="Слой_1" xmlns="http://www.w3.org/2000/svg" xmlns:xlink="http://www.w3.org/1999/xlink" x="0px" y="0px"
	 viewBox="0 0 48 48" style="enable-background:new 0 0 48 48;" xml:space="preserve">
<path d="M18.8,4.5V3h10.5v1.5H18.8z M24,42c-2.2,0-4.3-0.4-6.2-1.3c-1.9-0.8-3.6-2-5.1-3.4s-2.6-3.1-3.4-5.1c-0.8-2-1.3-4-1.3-6.2
	s0.4-4.3,1.3-6.2s2-3.6,3.4-5.1c1.5-1.5,3.2-2.6,5.1-3.4c1.9-0.8,4-1.3,6.2-1.3c2,0,4,0.4,5.8,1.1c1.8,0.7,3.5,1.7,4.9,3l2-2.1
	l1.1,1.1l-2.1,2.1c1.3,1.3,2.3,2.9,3,4.7c0.8,1.8,1.2,3.8,1.2,6s-0.4,4.2-1.3,6.2c-0.8,2-2,3.7-3.4,5.1c-1.5,1.4-3.2,2.6-5.1,3.4
	C28.3,41.6,26.2,42,24,42z M24,40.5c4,0,7.4-1.4,10.2-4.2s4.2-6.2,4.2-10.2s-1.4-7.4-4.2-10.2S28,11.7,24,11.7s-7.4,1.4-10.2,4.2
	C10.9,18.6,9.5,22,9.5,26s1.4,7.4,4.2,10.2C16.6,39,20,40.5,24,40.5z M19.8,33h1.5V19h-1.5V33z M26.6,33h1.5V19h-1.5V33z"/>
</svg>
