<?xml version="1.0" encoding="utf-8"?>
<!-- Generator: Adobe Illustrator 26.3.1, SVG Export Plug-In . SVG Version: 6.00 Build 0)  -->
<svg version="1.1" id="Слой_1" xmlns="http://www.w3.org/2000/svg" xmlns:xlink="http://www.w3.org/1999/xlink" x="0px" y="0px"
	 viewBox="0 0 48 48" style="enable-background:new 0 0 48 48;" xml:space="preserve">
<path d="M36.8,16.6c-0.5,0-0.9-0.2-1.3-0.5c-0.3-0.3-0.5-0.8-0.5-1.3c0-0.2,0-0.5,0.1-0.7s0.2-0.4,0.4-0.6c0.4-0.4,1.2-0.8,2.5-1.2
	l1.9-0.7c-0.2,0.7-0.4,1.3-0.7,1.9c-0.2,0.5-0.4,1-0.6,1.5c-0.2,0.5-0.4,0.8-0.6,1c-0.2,0.2-0.4,0.3-0.6,0.4
	C37.3,16.5,37.1,16.6,36.8,16.6z M10.1,39c-0.7,0-1.4-0.3-1.9-0.8c-0.5-0.6-0.8-1.2-0.8-1.9V11.5c0-0.7,0.3-1.4,0.8-1.9
	C8.7,9,9.3,8.7,10.1,8.7h10.4c0.7,0,1.4,0.3,1.9,0.8c0.5,0.6,0.8,1.2,0.8,1.9v16.1c0.4-0.3,0.8-0.5,1.3-0.7s1-0.3,1.5-0.3
	c1.2,0,2.2,0.4,3.1,1.3c0.8,0.8,1.3,1.9,1.3,3.1v3.6c0,0.8,0.3,1.4,0.9,2s1.3,0.9,2.1,0.9c0.7,0,1.4-0.3,2-0.9
	c0.6-0.6,0.9-1.3,0.9-2V24.4h-1.8v-2.2c-1.6-0.7-2.8-1.7-3.8-3s-1.5-2.8-1.5-4.4c0-2.2,0.8-4.1,2.3-5.6C32.8,7.7,34.7,7,36.9,7
	s4,0.8,5.6,2.3c1.5,1.5,2.3,3.4,2.3,5.6c0,1.6-0.5,3.1-1.5,4.4s-2.3,2.3-3.8,3v2.2h-1.8v10.2c0,1.2-0.4,2.2-1.3,3.1
	c-0.9,0.9-1.9,1.3-3.1,1.3c-1.2,0-2.3-0.4-3.1-1.3c-0.9-0.9-1.3-1.9-1.3-3.1V31c0-0.8-0.3-1.4-0.8-2s-1.2-0.8-2-0.8s-1.4,0.3-2,0.8
	c-0.5,0.5-0.8,1.2-0.8,2v5.3c0,0.7-0.3,1.4-0.8,1.9s-1.3,0.8-2,0.8H10.1z M36.8,21.1c1.8,0,3.2-0.6,4.5-1.8c1.2-1.2,1.8-2.7,1.8-4.5
	s-0.6-3.2-1.8-4.5c-1.2-1.2-2.7-1.8-4.5-1.8s-3.2,0.6-4.5,1.8c-1.2,1.2-1.8,2.7-1.8,4.5s0.6,3.2,1.8,4.5
	C33.6,20.5,35.1,21.1,36.8,21.1z M10.1,37.5h10.4c0.4,0,0.7-0.1,0.9-0.3c0.2-0.2,0.3-0.5,0.3-0.9v-5.9l-3.5,3.5v-2.2l3.5-3.5v-6.6
	L18.2,25v-2.2l3.5-3.5v-6.9L18.2,16v-2.2l3.1-3.1c-0.1-0.1-0.2-0.2-0.4-0.3c-0.1-0.1-0.3-0.1-0.5-0.1H10.1c-0.2,0-0.4,0-0.5,0.1
	s-0.3,0.1-0.4,0.3l3.1,3.1V16l-3.5-3.5v6.9l3.5,3.5V25l-3.5-3.5v6.6l3.5,3.5v2.2l-3.5-3.5v5.9c0,0.4,0.1,0.7,0.3,0.9
	C9.4,37.4,9.7,37.5,10.1,37.5z"/>
</svg>
