<?xml version="1.0" encoding="utf-8"?>
<!-- Generator: Adobe Illustrator 26.3.1, SVG Export Plug-In . SVG Version: 6.00 Build 0)  -->
<svg version="1.1" id="Слой_1" xmlns="http://www.w3.org/2000/svg" xmlns:xlink="http://www.w3.org/1999/xlink" x="0px" y="0px"
	 viewBox="0 0 48 48" style="enable-background:new 0 0 48 48;" xml:space="preserve">
<path d="M8,31.8v-1.5h24.5v1.5H8z M8,24.8v-1.5h24.5v1.5H8z M8,17.8v-1.5h24.5v1.5H8z M39,32c-0.3,0-0.5-0.1-0.7-0.3
	C38.1,31.5,38,31.3,38,31s0.1-0.5,0.3-0.7S38.7,30,39,30s0.5,0.1,0.7,0.3c0.2,0.2,0.3,0.4,0.3,0.7c0,0.3-0.1,0.5-0.3,0.7
	C39.5,31.9,39.2,32,39,32z M39,25c-0.3,0-0.5-0.1-0.7-0.3C38.1,24.5,38,24.3,38,24c0-0.2,0.1-0.5,0.3-0.6c0.2-0.2,0.4-0.3,0.7-0.3
	s0.5,0.1,0.7,0.3c0.2,0.2,0.3,0.4,0.3,0.7c0,0.3-0.1,0.5-0.3,0.7C39.5,24.9,39.2,25,39,25z M39,18c-0.3,0-0.5-0.1-0.7-0.3
	C38.1,17.5,38,17.3,38,17s0.1-0.5,0.3-0.7S38.7,16,39,16s0.5,0.1,0.7,0.3S40,16.7,40,17c0,0.3-0.1,0.5-0.3,0.7
	C39.5,17.9,39.2,18,39,18z"/>
</svg>
