<?xml version="1.0" encoding="utf-8"?>
<!-- Generator: Adobe Illustrator 26.3.1, SVG Export Plug-In . SVG Version: 6.00 Build 0)  -->
<svg version="1.1" id="Слой_1" xmlns="http://www.w3.org/2000/svg" xmlns:xlink="http://www.w3.org/1999/xlink" x="0px" y="0px"
	 viewBox="0 0 48 48" style="enable-background:new 0 0 48 48;" xml:space="preserve">
<path d="M24,42.8L7,33.3V14.4l17-9.3l17,9.3v18.8L24,42.8z M18.5,20c0.7-0.9,1.5-1.6,2.5-2c1-0.5,2-0.7,3.1-0.7s2.1,0.2,3.1,0.7
	s1.8,1.2,2.5,2l9-5.1L24,6.9l-14.5,8L18.5,20z M23.2,40.6v-9.8c-1.7-0.3-3.1-1.1-4.3-2.4c-1.1-1.3-1.7-2.7-1.7-4.5
	c0-0.4,0-0.9,0.1-1.3s0.2-0.9,0.4-1.3l-9.2-5.2v16.2C8.5,32.4,23.2,40.6,23.2,40.6z M24,29.2c1.5,0,2.7-0.5,3.7-1.5s1.5-2.2,1.5-3.7
	s-0.5-2.7-1.5-3.7s-2.2-1.5-3.7-1.5s-2.7,0.5-3.7,1.5s-1.5,2.2-1.5,3.7s0.5,2.7,1.5,3.7S22.5,29.2,24,29.2z M24.8,40.6l14.7-8.2
	V16.2l-9.2,5.2c0.2,0.4,0.3,0.9,0.4,1.3s0.1,0.9,0.1,1.3c0,1.7-0.6,3.2-1.7,4.5s-2.6,2-4.3,2.4C24.8,30.8,24.8,40.6,24.8,40.6z"/>
</svg>
