<?xml version="1.0" encoding="utf-8"?>
<!-- Generator: Adobe Illustrator 26.3.1, SVG Export Plug-In . SVG Version: 6.00 Build 0)  -->
<svg version="1.1" id="Слой_1" xmlns="http://www.w3.org/2000/svg" xmlns:xlink="http://www.w3.org/1999/xlink" x="0px" y="0px"
	 viewBox="0 0 48 48" style="enable-background:new 0 0 48 48;" xml:space="preserve">
<path d="M30,38c-3.9,0-7.2-1.4-9.9-4.1S16,27.9,16,24s1.4-7.2,4.1-9.9s6-4.1,9.9-4.1s7.2,1.4,9.9,4.1s4.1,6,4.1,9.9
	s-1.4,7.2-4.1,9.9C37.2,36.6,33.9,38,30,38z M14.3,37.4c-3.1-0.6-5.6-2.1-7.5-4.7S4,27.2,4,24s0.9-6.1,2.8-8.7s4.4-4.1,7.5-4.7v1.5
	c-2.7,0.7-4.8,2.1-6.4,4.3S5.5,21.2,5.5,24s0.8,5.3,2.4,7.5s3.7,3.7,6.4,4.3V37.4z M30,36.5c3.4,0,6.4-1.2,8.8-3.7
	c2.4-2.4,3.7-5.4,3.7-8.8s-1.2-6.4-3.7-8.8c-2.4-2.4-5.4-3.7-8.8-3.7s-6.4,1.2-8.8,3.7c-2.4,2.4-3.7,5.4-3.7,8.8s1.2,6.4,3.7,8.8
	S26.6,36.5,30,36.5z"/>
</svg>
