<?xml version="1.0" encoding="utf-8"?>
<!-- Generator: Adobe Illustrator 26.3.1, SVG Export Plug-In . SVG Version: 6.00 Build 0)  -->
<svg version="1.1" id="Слой_1" xmlns="http://www.w3.org/2000/svg" xmlns:xlink="http://www.w3.org/1999/xlink" x="0px" y="0px"
	 viewBox="0 0 48 48" style="enable-background:new 0 0 48 48;" xml:space="preserve">
<path d="M12.6,41c-0.2,0-0.4-0.1-0.5-0.3S12,40.3,12,40.1l9-32.6c0-0.2,0.1-0.3,0.2-0.4C21.4,7,21.6,7,21.7,7c0.2,0,0.4,0.1,0.5,0.3
	c0.1,0.2,0.2,0.4,0.1,0.6l-1.5,5.4H33l1.6-5.7c0-0.2,0.1-0.3,0.3-0.4C35,7,35.2,7,35.4,7s0.4,0.1,0.5,0.3C36,7.5,36,7.7,36,7.9
	l-9,32.6c0,0.2-0.1,0.3-0.2,0.4C26.6,41,26.4,41,26.3,41c-0.2,0-0.4-0.1-0.5-0.3s-0.2-0.4-0.1-0.6l1.5-5.4H15l-1.6,5.7
	c0,0.2-0.1,0.3-0.3,0.4C12.9,41,12.8,41,12.6,41z M18.1,23.2h12.2l2.4-8.5H20.5L18.1,23.2z M15.3,33.2h12.2l2.3-8.5H17.7L15.3,33.2z
	"/>
</svg>
