<?xml version="1.0" encoding="utf-8"?>
<!-- Generator: Adobe Illustrator 26.3.1, SVG Export Plug-In . SVG Version: 6.00 Build 0)  -->
<svg version="1.1" id="Слой_1" xmlns="http://www.w3.org/2000/svg" xmlns:xlink="http://www.w3.org/1999/xlink" x="0px" y="0px"
	 viewBox="0 0 48 48" style="enable-background:new 0 0 48 48;" xml:space="preserve">
<path d="M38.8,39.7l1.2-1.2c0.2-0.2,0.3-0.5,0.3-0.8s-0.1-0.6-0.3-0.8L25.8,22.5c0.5-0.8,0.9-1.6,1.1-2.4s0.4-1.7,0.4-2.7
	c0-2.6-0.9-4.8-2.7-6.6C22.8,9,20.6,8,17.9,8c-0.5,0-1,0-1.5,0.1s-1,0.2-1.4,0.3l6.2,6.2l-6.4,6.3l-6.1-6.2
	c-0.1,0.4-0.2,0.8-0.3,1.3s-0.1,1-0.1,1.4c0,2.6,0.9,4.8,2.8,6.7c1.8,1.9,4,2.8,6.7,2.8c0.9,0,1.8-0.1,2.7-0.4s1.7-0.6,2.4-1.1
	l14.2,14.3c0.2,0.3,0.5,0.4,0.8,0.4S38.6,39.9,38.8,39.7z M36,40.8L22.5,27.3c-0.8,0.4-1.5,0.6-2.3,0.8c-0.8,0.2-1.6,0.3-2.4,0.3
	c-3.1,0-5.7-1.1-7.8-3.2s-3.2-4.7-3.2-7.8c0-0.8,0.1-1.8,0.4-2.8s0.6-1.9,1-2.5l6.7,6.6l4.2-4.1l-6.7-6.7c0.6-0.4,1.4-0.7,2.4-1
	s2-0.4,3-0.4c3.1,0,5.7,1.1,7.8,3.2s3.2,4.7,3.2,7.8c0,0.9-0.1,1.7-0.3,2.5c-0.2,0.8-0.4,1.6-0.8,2.3l13.5,13.5
	c0.5,0.6,0.8,1.2,0.8,2c0,0.7-0.2,1.4-0.8,2l-1.2,1c-0.5,0.5-1.2,0.8-2,0.8S36.6,41.3,36,40.8z"/>
</svg>
