<?xml version="1.0" encoding="utf-8"?>
<!-- Generator: Adobe Illustrator 26.3.1, SVG Export Plug-In . SVG Version: 6.00 Build 0)  -->
<svg version="1.1" id="Слой_1" xmlns="http://www.w3.org/2000/svg" xmlns:xlink="http://www.w3.org/1999/xlink" x="0px" y="0px"
	 viewBox="0 0 48 48" style="enable-background:new 0 0 48 48;" xml:space="preserve">
<path d="M8.8,32c-0.7,0-1.4-0.3-1.9-0.8S6,30,6,29.2V18.8c0-0.7,0.3-1.4,0.8-1.9C7.4,16.3,8,16,8.8,16h30.5c0.7,0,1.4,0.3,1.9,0.8
	S42,18,42,18.7v10.5c0,0.7-0.3,1.4-0.8,1.9c-0.6,0.6-1.2,0.9-2,0.9H8.8z M8.8,30.5h30.5c0.4,0,0.7-0.1,0.9-0.3
	c0.2-0.2,0.3-0.5,0.3-0.9V18.8c0-0.4-0.1-0.7-0.3-0.9c-0.2-0.2-0.5-0.3-0.9-0.3h-6.6c0.4,0.5,0.8,1,1,1.6s0.4,1.2,0.4,1.9
	c0,1.3-0.5,2.5-1.5,3.5s-2.2,1.5-3.5,1.5H19c-1.3,0-2.5-0.5-3.5-1.5S14,22.4,14,21.1c0-0.6,0.1-1.3,0.4-1.9c0.2-0.6,0.6-1.1,1-1.6
	H8.8c-0.4,0-0.7,0.1-0.9,0.3c-0.2,0.2-0.3,0.5-0.3,0.9v10.5c0,0.4,0.1,0.7,0.3,0.9C8.1,30.3,8.4,30.5,8.8,30.5z M19,24.5h4.2v-6.9
	H19c-0.9,0-1.7,0.3-2.4,1c-0.7,0.7-1,1.5-1,2.4s0.3,1.7,1,2.4C17.3,24.1,18.1,24.5,19,24.5z M24.8,24.5H29c0.9,0,1.7-0.3,2.4-1
	s1-1.5,1-2.4s-0.3-1.7-1-2.4c-0.7-0.7-1.5-1-2.4-1h-4.2C24.8,17.5,24.8,24.5,24.8,24.5z M39.2,30.5H7.5h1.2H7.5h32.9H39.2h1.2
	C40.5,30.5,39.2,30.5,39.2,30.5z"/>
</svg>
