<?xml version="1.0" encoding="utf-8"?>
<!-- Generator: Adobe Illustrator 26.3.1, SVG Export Plug-In . SVG Version: 6.00 Build 0)  -->
<svg version="1.1" id="Слой_1" xmlns="http://www.w3.org/2000/svg" xmlns:xlink="http://www.w3.org/1999/xlink" x="0px" y="0px"
	 viewBox="0 0 48 48" style="enable-background:new 0 0 48 48;" xml:space="preserve">
<path d="M14.1,34.1h9.1c0.3,0,0.5-0.1,0.7-0.3s0.3-0.4,0.3-0.7v-2c0-0.3-0.1-0.5-0.3-0.7c-0.2-0.2-0.4-0.3-0.7-0.3h-9.1
	c-0.3,0-0.5,0.1-0.7,0.3c-0.2,0.2-0.3,0.4-0.3,0.7v2c0,0.3,0.1,0.5,0.3,0.7S13.8,34.1,14.1,34.1z M13.7,18.8h9.5
	c0.2,0,0.3-0.1,0.4-0.2s0.2-0.3,0.2-0.4c0-0.2-0.1-0.3-0.2-0.4s-0.3-0.2-0.4-0.2h-9.5c-0.2,0-0.3,0.1-0.4,0.2
	c-0.2,0-0.3,0.2-0.3,0.3c0,0.2,0.1,0.3,0.2,0.4C13.3,18.7,13.5,18.8,13.7,18.8z M13.7,14.5h9.5c0.2,0,0.3-0.1,0.4-0.2
	c0.1-0.1,0.2-0.3,0.2-0.4c0-0.2-0.1-0.3-0.2-0.4c-0.1-0.1-0.3-0.2-0.4-0.2h-9.5c-0.2,0-0.3,0.1-0.4,0.2c-0.1,0.1-0.2,0.3-0.2,0.4
	c0,0.2,0.1,0.3,0.2,0.4C13.3,14.5,13.5,14.5,13.7,14.5z M30,20.4v-1.5h3.2c0.4,0,0.7-0.1,0.9-0.3c0.2-0.2,0.3-0.5,0.3-0.9v-3.2
	c0-0.4-0.1-0.7-0.3-0.9s-0.5-0.3-0.9-0.3H30v-1.5h3.2c0.7,0,1.4,0.3,1.9,0.8c0.6,0.6,0.8,1.2,0.8,1.9v0.8h3.6c0.2,0,0.4,0.1,0.5,0.2
	c0.1,0.1,0.2,0.3,0.2,0.5c0,0.2-0.1,0.4-0.2,0.5c-0.1,0.1-0.3,0.2-0.5,0.2H36v0.8c0,0.7-0.3,1.4-0.8,1.9c-0.6,0.6-1.2,0.8-1.9,0.8
	C33.2,20.4,30,20.4,30,20.4z M22.4,28.7h-1.5v-6.6h6.4c0.4,0,0.7-0.1,0.9-0.3c0.2-0.2,0.3-0.5,0.3-0.9v-9.7c0-0.4-0.1-0.7-0.3-0.9
	C28,10.1,27.7,10,27.3,10H12.8c-1.3,0-2.3,0.4-3.2,1.3c-0.9,0.9-1.3,1.9-1.3,3.2v3.2c0,1.3,0.4,2.3,1.3,3.2c0.9,0.9,1.9,1.3,3.2,1.3
	h3.6v6.6h-1.5v-5.1h-2.1c-1.6,0-3.1-0.6-4.2-1.8c-1.2-1.2-1.8-2.6-1.8-4.2v-3.2c0-1.7,0.6-3.1,1.8-4.2c1.2-1.2,2.6-1.8,4.2-1.8h14.5
	c0.7,0,1.4,0.3,1.9,0.8c0.6,0.6,0.8,1.2,0.8,1.9v9.7c0,0.7-0.3,1.4-0.8,1.9c-0.6,0.6-1.2,0.8-1.9,0.8h-4.8
	C22.4,23.6,22.4,28.7,22.4,28.7z M13.7,35.6c-0.6,0-1.1-0.2-1.5-0.6c-0.4-0.4-0.6-0.9-0.6-1.5v-2.8c0-0.6,0.2-1.1,0.6-1.5
	c0.4-0.4,0.9-0.6,1.5-0.6h9.8c0.6,0,1.1,0.2,1.5,0.6s0.6,0.9,0.6,1.5v2.8c0,0.6-0.2,1.1-0.6,1.5s-0.9,0.6-1.5,0.6
	C23.6,35.6,13.7,35.6,13.7,35.6z M23.2,34.1h-10h10.9H23.2z"/>
</svg>
