<?xml version="1.0" encoding="utf-8"?>
<!-- Generator: Adobe Illustrator 26.3.1, SVG Export Plug-In . SVG Version: 6.00 Build 0)  -->
<svg version="1.1" id="Слой_1" xmlns="http://www.w3.org/2000/svg" xmlns:xlink="http://www.w3.org/1999/xlink" x="0px" y="0px"
	 viewBox="0 0 48 48" style="enable-background:new 0 0 48 48;" xml:space="preserve">
<path d="M16.2,41.7c-0.4-0.8-0.8-2.2-1-3.9c-0.3-1.8-0.4-3.7-0.4-5.7c0-2.5,0.3-4.8,0.8-6.8c0.6-2,1.4-3.8,2.4-5.4v-7.5L23,4h2
	l5,8.5V20c1.1,1.6,1.9,3.3,2.5,5.3c0.5,2,0.8,4.2,0.8,6.7c0,1.9-0.1,3.8-0.4,5.6c-0.3,1.8-0.6,3.2-1,4.1c-0.9-0.3-1.6-1-2.1-1.9
	c-0.5-1-0.7-2-0.7-3c0-0.9,0.1-1.8,0.3-2.7s0.3-2,0.3-3c0-1.9-0.5-3.7-1.4-5.4c-0.9-1.6-2.4-3.1-4.3-4.5c-2,1.4-3.4,2.9-4.4,4.5
	c-0.9,1.6-1.4,3.3-1.4,5.2c0,1.1,0.1,2.2,0.3,3.2c0.2,1,0.3,1.9,0.3,2.8c0,1-0.2,2-0.7,3C17.8,40.8,17.1,41.4,16.2,41.7z M24,15.8
	c-0.5,0-0.9-0.2-1.3-0.5c-0.3-0.3-0.5-0.7-0.5-1.2c0-0.3,0.1-0.7,0.3-0.9c0.2-0.3,0.4-0.5,0.7-0.7V6.7L19.5,13v5.5h8.9V13l-3.7-6.3
	v5.7c0.3,0.2,0.6,0.4,0.8,0.7c0.2,0.3,0.3,0.6,0.3,0.9c0,0.5-0.2,0.9-0.5,1.2C24.9,15.6,24.5,15.8,24,15.8z M24.8,6.7h-1.5H24.8z
	 M23.2,6.7h1.5H23.2z"/>
</svg>
