<?xml version="1.0" encoding="utf-8"?>
<!-- Generator: Adobe Illustrator 26.3.1, SVG Export Plug-In . SVG Version: 6.00 Build 0)  -->
<svg version="1.1" id="Слой_1" xmlns="http://www.w3.org/2000/svg" xmlns:xlink="http://www.w3.org/1999/xlink" x="0px" y="0px"
	 viewBox="0 0 48 48" style="enable-background:new 0 0 48 48;" xml:space="preserve">
<path d="M10.6,24.1c0.7-2.5,2.2-5.2,4.4-8.1s5.2-6,9-9.3c3.8,3.3,6.8,6.4,9,9.3s3.7,5.6,4.5,8.1h-1.6c-0.7-2.2-2.1-4.6-4-7.2
	c-2-2.6-4.6-5.3-7.8-8.2c-3.2,2.9-5.8,5.6-7.8,8.2s-3.3,5-4.1,7.2C12.2,24.1,10.6,24.1,10.6,24.1z M38.1,26.9
	c0.1,0.3,0.1,0.6,0.2,0.9c0.1,0.3,0.2,0.7,0.3,1.1L24.7,42.7c-0.4-0.1-0.7-0.3-1-0.4c-0.3-0.1-0.6-0.2-0.9-0.3
	C22.8,42,38.1,26.9,38.1,26.9z M28.1,27.6h2.2l-13,12.9c-0.2-0.1-0.5-0.3-0.7-0.4c-0.2-0.2-0.4-0.3-0.7-0.5L28.1,27.6z M19,27.6h2.3
	l-8.7,8.6c-0.2-0.2-0.3-0.4-0.4-0.7c-0.1-0.2-0.3-0.5-0.4-0.7L19,27.6z M10,27.6h2.1l-2,2C10,29.3,10,29,10,28.6
	C10,28.3,10,28,10,27.6z"/>
</svg>
