<?xml version="1.0" encoding="utf-8"?>
<!-- Generator: Adobe Illustrator 26.3.1, SVG Export Plug-In . SVG Version: 6.00 Build 0)  -->
<svg version="1.1" id="Слой_1" xmlns="http://www.w3.org/2000/svg" xmlns:xlink="http://www.w3.org/1999/xlink" x="0px" y="0px"
	 viewBox="0 0 48 48" style="enable-background:new 0 0 48 48;" xml:space="preserve">
<path d="M33,40.5c2.1,0,3.8-0.7,5.3-2.2c1.5-1.4,2.2-3.2,2.2-5.3v-4.2h-15V33c0,2.1,0.7,3.8,2.2,5.3C29.1,39.7,30.9,40.5,33,40.5z
	 M25.5,27.2h6.7v-7.7c-2,0.2-3.6,1.1-4.8,2.5C26.2,23.5,25.5,25.2,25.5,27.2z M33.8,27.2h6.7c0-2-0.6-3.7-1.8-5.1s-2.8-2.3-4.8-2.5
	C33.8,19.6,33.8,27.2,33.8,27.2z M33,42c-2.5,0-4.6-0.9-6.4-2.6C24.9,37.6,24,35.5,24,33v-6c0-2.5,0.9-4.6,2.6-6.4
	c1.7-1.7,3.9-2.6,6.4-2.6s4.6,0.9,6.4,2.6c1.7,1.7,2.6,3.9,2.6,6.4v6c0,2.5-0.9,4.6-2.6,6.4C37.6,41.1,35.5,42,33,42z M7.5,36.5v-25
	V36.5z M8.8,38c-0.8,0-1.4-0.3-2-0.8C6.3,36.7,6,36,6,35.2V12.8c0-0.8,0.3-1.4,0.8-2C7.3,10.3,8,10,8.8,10h30.5c0.8,0,1.4,0.3,2,0.8
	c0.5,0.5,0.8,1.2,0.8,2h-1.5c0-0.4-0.1-0.7-0.3-0.9s-0.5-0.3-0.9-0.3H8.8c-0.4,0-0.7,0.1-0.9,0.3c-0.2,0.2-0.3,0.5-0.3,0.9v22.5
	c0,0.4,0.1,0.7,0.3,0.9s0.5,0.3,0.9,0.3h10.9V38H8.8z"/>
</svg>
