<?xml version="1.0" encoding="utf-8"?>
<!-- Generator: Adobe Illustrator 26.3.1, SVG Export Plug-In . SVG Version: 6.00 Build 0)  -->
<svg version="1.1" id="Слой_1" xmlns="http://www.w3.org/2000/svg" xmlns:xlink="http://www.w3.org/1999/xlink" x="0px" y="0px"
	 viewBox="0 0 48 48" style="enable-background:new 0 0 48 48;" xml:space="preserve">
<path d="M14.3,12.8v6.5c-1.2-0.6-2.2-1.5-2.9-2.7c-0.7-1.2-1.1-2.4-1.1-3.9c0-2,0.7-3.7,2.1-5.2c1.4-1.4,3.1-2.1,5.2-2.1
	s3.7,0.7,5.2,2.1s2.1,3.2,2.1,5.2c0,1.4-0.4,2.7-1.1,3.9s-1.7,2-2.9,2.7v-6.5c0-0.9-0.3-1.7-0.9-2.4c-0.6-0.6-1.4-0.9-2.3-0.9
	c-1,0-1.8,0.3-2.4,0.9C14.6,11.1,14.3,11.9,14.3,12.8z M22.9,42c-1.1,0-2.2-0.2-3.2-0.7s-1.8-1.1-2.5-2L7.8,26.8l0.6-0.6
	c0.2-0.3,0.5-0.4,0.9-0.5c0.3-0.1,0.7,0,1,0.1l6.6,3.1V12.8c0-0.2,0.1-0.4,0.2-0.5s0.3-0.2,0.6-0.2s0.4,0.1,0.5,0.2
	c0.1,0.1,0.2,0.3,0.2,0.5v18.5l-8.2-3.9l8.5,11.1c0.5,0.7,1.2,1.2,1.9,1.5c0.8,0.3,1.6,0.5,2.4,0.5h8.2c1.5,0,2.7-0.5,3.7-1.5
	s1.5-2.2,1.5-3.7V28c0-0.9-0.3-1.7-1-2.4c-0.6-0.6-1.4-1-2.4-1h-9.2v-1.5H33c1.3,0,2.5,0.5,3.4,1.4s1.4,2.1,1.4,3.4v7.3
	c0,1.9-0.7,3.5-2,4.8s-2.9,2-4.8,2C31.2,42,22.9,42,22.9,42z"/>
</svg>
