<?xml version="1.0" encoding="utf-8"?>
<!-- Generator: Adobe Illustrator 26.3.1, SVG Export Plug-In . SVG Version: 6.00 Build 0)  -->
<svg version="1.1" id="Слой_1" xmlns="http://www.w3.org/2000/svg" xmlns:xlink="http://www.w3.org/1999/xlink" x="0px" y="0px"
	 viewBox="0 0 48 48" style="enable-background:new 0 0 48 48;" xml:space="preserve">
<path d="M42.5,44.8L3.8,6l1.1-1.1l38.8,38.8C43.6,43.6,42.5,44.8,42.5,44.8z M33,42c-2.5,0-4.6-0.9-6.4-2.6C24.9,37.6,24,35.5,24,33
	v-6c0-0.5,0-0.9,0.1-1.3s0.2-0.8,0.3-1.3l4.4,4.4h-3.2V33c0,2.1,0.7,3.8,2.2,5.3c1.4,1.4,3.2,2.2,5.3,2.2c1,0,2-0.2,2.9-0.6
	c0.9-0.4,1.7-0.9,2.3-1.6l1.1,1.1c-0.8,0.8-1.8,1.4-2.9,1.9C35.4,41.8,34.3,42,33,42z M41.3,36.3l-1.2-1.2c0.1-0.3,0.2-0.7,0.3-1
	c0-0.4,0.1-0.7,0.1-1.1v-4.2h-6.7l-1.5-1.5v-7.7c-1,0.1-2,0.4-2.8,0.9c-0.9,0.5-1.6,1.1-2.2,1.8l-1.1-1.1c0.8-1,1.8-1.7,3-2.3
	c1.2-0.6,2.5-0.9,3.9-0.9c2.5,0,4.6,0.9,6.4,2.6c1.7,1.7,2.6,3.9,2.6,6.4v6c0,0.6-0.1,1.2-0.2,1.8C41.7,35.3,41.5,35.9,41.3,36.3z
	 M33.8,27.2h6.7c0-2-0.6-3.7-1.8-5.1s-2.8-2.3-4.8-2.5C33.8,19.6,33.8,27.2,33.8,27.2z M8.8,38c-0.8,0-1.4-0.3-2-0.8
	C6.3,36.7,6,36,6,35.2V12.8c0-0.8,0.3-1.4,0.8-2C7.3,10.3,8,10,8.8,10H10l1.5,1.5H8.8c-0.4,0-0.7,0.1-0.9,0.3
	c-0.2,0.2-0.3,0.5-0.3,0.9v22.5c0,0.4,0.1,0.7,0.3,0.9s0.5,0.3,0.9,0.3h11.4c0.1,0.3,0.2,0.5,0.3,0.8c0.1,0.3,0.2,0.5,0.3,0.7
	L8.8,38L8.8,38z M16.5,11.5L15,10h25.5c0.4,0,0.8,0.2,1.1,0.5s0.5,0.7,0.5,1.1H16.5V11.5z"/>
</svg>
