<?xml version="1.0" encoding="utf-8"?>
<!-- Generator: Adobe Illustrator 26.3.1, SVG Export Plug-In . SVG Version: 6.00 Build 0)  -->
<svg version="1.1" id="Слой_1" xmlns="http://www.w3.org/2000/svg" xmlns:xlink="http://www.w3.org/1999/xlink" x="0px" y="0px"
	 viewBox="0 0 48 48" style="enable-background:new 0 0 48 48;" xml:space="preserve">
<path d="M22.9,42c-1.1,0-2.2-0.2-3.2-0.7s-1.8-1.1-2.5-2L7.8,26.8l0.6-0.6c0.2-0.3,0.5-0.4,0.9-0.5c0.3-0.1,0.7,0,1,0.1l6.6,3.1
	V12.8c0-0.2,0.1-0.4,0.2-0.5s0.3-0.2,0.6-0.2s0.4,0.1,0.5,0.2c0.1,0.1,0.2,0.3,0.2,0.5v18.5l-8.2-3.9l8.5,11.1
	c0.5,0.7,1.2,1.2,1.9,1.5c0.8,0.3,1.6,0.5,2.4,0.5h8.2c1.5,0,2.7-0.5,3.7-1.5s1.5-2.2,1.5-3.7V28c0-0.9-0.3-1.7-1-2.4
	c-0.6-0.6-1.4-1-2.4-1h-9.2v-1.5H33c1.3,0,2.5,0.5,3.4,1.4s1.4,2.1,1.4,3.4v7.3c0,1.9-0.7,3.5-2,4.8s-2.9,2-4.8,2
	C31.2,42,22.9,42,22.9,42z M11.3,16.5c-0.3-0.5-0.6-1.1-0.7-1.7c-0.2-0.6-0.3-1.3-0.3-1.9c0-2,0.7-3.7,2.1-5.2
	c1.4-1.4,3.1-2.1,5.2-2.1s3.7,0.7,5.2,2.1c1.4,1.4,2.1,3.2,2.1,5.2c0,0.7-0.1,1.3-0.3,1.9c-0.2,0.6-0.4,1.2-0.7,1.7l-1.3-0.8
	c0.3-0.4,0.5-0.9,0.6-1.4s0.2-1,0.2-1.5c0-1.6-0.6-2.9-1.7-4.1C20.6,7.6,19.2,7,17.6,7s-3,0.6-4.1,1.7s-1.7,2.5-1.7,4.1
	c0,0.5,0.1,1,0.2,1.5c0.1,0.5,0.3,0.9,0.6,1.4C12.6,15.7,11.3,16.5,11.3,16.5z"/>
</svg>
