<?xml version="1.0" encoding="utf-8"?>
<!-- Generator: Adobe Illustrator 26.3.1, SVG Export Plug-In . SVG Version: 6.00 Build 0)  -->
<svg version="1.1" id="Слой_1" xmlns="http://www.w3.org/2000/svg" xmlns:xlink="http://www.w3.org/1999/xlink" x="0px" y="0px"
	 viewBox="0 0 48 48" style="enable-background:new 0 0 48 48;" xml:space="preserve">
<path d="M24,24c0-2.5,0.9-4.7,2.7-6.6c1.8-1.8,4-2.7,6.6-2.7c2.5,0,4.7,0.9,6.6,2.7c1.8,1.8,2.7,4,2.7,6.6H24z M14.7,33.3
	c-2.5,0-4.7-0.9-6.6-2.7c-1.8-1.8-2.7-4-2.7-6.6H24c0,2.5-0.9,4.7-2.7,6.6C19.4,32.4,17.2,33.3,14.7,33.3z M24,24
	c-2.5,0-4.7-0.9-6.6-2.7c-1.8-1.8-2.7-4-2.7-6.6c0-2.5,0.9-4.7,2.7-6.6c1.8-1.8,4-2.7,6.6-2.7V24z M24,42.6V24
	c2.5,0,4.7,0.9,6.6,2.7c1.8,1.8,2.7,4,2.7,6.6c0,2.5-0.9,4.7-2.7,6.6C28.7,41.7,26.5,42.6,24,42.6z"/>
</svg>
