<?xml version="1.0" encoding="utf-8"?>
<!-- Generator: Adobe Illustrator 26.3.1, SVG Export Plug-In . SVG Version: 6.00 Build 0)  -->
<svg version="1.1" id="Слой_1" xmlns="http://www.w3.org/2000/svg" xmlns:xlink="http://www.w3.org/1999/xlink" x="0px" y="0px"
	 viewBox="0 0 48 48" style="enable-background:new 0 0 48 48;" xml:space="preserve">
<path d="M8,36.9c0-0.4,0.1-0.7,0.3-0.8c0.2-0.2,0.4-0.2,0.6-0.2c0.1,0,0.2,0,0.3,0.1c0.1,0,0.2,0.1,0.3,0.1c0.3,0.2,0.6,0.3,1,0.3
	s0.8,0.1,1.1,0.1c1.7,0,3.2-0.6,4.4-1.8s1.8-2.7,1.8-4.4c0-1.7-0.6-3.1-1.8-4.3s-2.6-1.8-4.4-1.8c-0.3,0-0.6,0-0.9,0.1
	c-0.3,0.1-0.6,0.1-0.9,0.2c-0.2,0-0.4,0.1-0.5,0.1s-0.3,0-0.4,0c-0.2,0-0.4-0.1-0.6-0.3C8.1,24.1,8,23.9,8,23.6v-3.9
	c0-0.4,0.1-0.7,0.4-1c0.3-0.3,0.6-0.4,1-0.4H19c0.3,0,0.4-0.1,0.4-0.3c0-0.2-0.1-0.4-0.2-0.6c-0.6-0.6-1-1.3-1.3-2s-0.4-1.7-0.4-2.7
	c0-1.9,0.6-3.4,1.9-4.7c1.1-1.4,2.7-2,4.6-2s3.5,0.6,4.7,1.9c1.3,1.3,1.9,2.9,1.9,4.7c0,1.1-0.2,2-0.5,2.7s-0.7,1.4-1.3,2
	c-0.2,0.2-0.3,0.4-0.2,0.6c0,0.2,0.1,0.3,0.4,0.3h9.5c0.4,0,0.7,0.1,1,0.4s0.4,0.6,0.4,1v3c0,0.4-0.1,0.8-0.2,1.2
	c-0.1,0.4-0.3,0.6-0.6,0.6s-0.5,0-0.6,0c-0.2,0-0.3-0.1-0.5-0.1c-0.2-0.1-0.5-0.2-0.7-0.2c-0.2-0.1-0.6-0.1-1-0.1
	c-1.7,0-3.2,0.6-4.4,1.8c-1.2,1.2-1.8,2.6-1.8,4.3s0.6,3.2,1.8,4.4s2.6,1.8,4.4,1.8c0.4,0,0.8,0,1.1-0.1s0.6-0.2,0.9-0.3
	c0.1,0,0.3-0.1,0.4-0.1c0.1,0,0.3-0.1,0.4-0.1c0.2,0,0.4,0.1,0.5,0.3c0.2,0.2,0.2,0.4,0.2,0.8v3.7c0,0.4-0.1,0.8-0.4,1
	c-0.3,0.3-0.6,0.4-1,0.4h-29c-0.4,0-0.8-0.1-1-0.4C8.1,41.3,8,41,8,40.6V36.9z M9.5,40.5h28.9v-2.8c-0.3,0.1-0.7,0.2-1,0.2
	c-0.4,0-0.7,0.1-1.1,0.1c-2.1,0-3.9-0.8-5.4-2.3c-1.5-1.5-2.2-3.3-2.2-5.5c0-2.1,0.7-4,2.2-5.4c1.5-1.5,3.3-2.2,5.4-2.2
	c0.4,0,0.7,0,1.1,0.1c0.3,0,0.7,0.1,1,0.2v-3.1h-9.8c-0.5,0-0.9-0.2-1.2-0.5C27.1,19,27,18.6,27,18.2s0.1-0.8,0.3-1.1
	c0.2-0.4,0.4-0.7,0.7-0.9c0.4-0.5,0.8-1,0.9-1.6c0.2-0.6,0.3-1.2,0.3-1.9c0-1.4-0.5-2.6-1.5-3.6s-2.2-1.5-3.6-1.5s-2.7,0.5-3.6,1.5
	c-1,1-1.5,2.2-1.5,3.6c0,0.7,0.1,1.3,0.2,1.9c0.2,0.6,0.5,1.1,0.9,1.6c0.2,0.2,0.4,0.5,0.6,0.9s0.3,0.7,0.3,1.1
	c0,0.5-0.2,0.9-0.5,1.2c-0.3,0.3-0.7,0.5-1.2,0.5H9.5V23c0.3-0.1,0.7-0.2,1-0.2c0.3-0.1,0.7-0.1,1.1-0.1c2.1,0,3.9,0.7,5.4,2.2
	s2.2,3.3,2.2,5.4s-0.7,3.9-2.2,5.5c-1.5,1.5-3.3,2.3-5.4,2.3c-0.4,0-0.7,0-1.1-0.1c-0.4,0-0.7-0.1-1-0.2V40.5z"/>
</svg>
