<?xml version="1.0" encoding="utf-8"?>
<!-- Generator: Adobe Illustrator 26.3.1, SVG Export Plug-In . SVG Version: 6.00 Build 0)  -->
<svg version="1.1" id="Слой_1" xmlns="http://www.w3.org/2000/svg" xmlns:xlink="http://www.w3.org/1999/xlink" x="0px" y="0px"
	 viewBox="0 0 48 48" style="enable-background:new 0 0 48 48;" xml:space="preserve">
<path d="M24,42c-2.5,0-4.8-0.5-7-1.4s-4.1-2.2-5.7-3.8s-2.9-3.5-3.8-5.7C6.5,28.8,6,26.5,6,24s0.5-4.8,1.4-7s2.2-4.1,3.8-5.7
	s3.5-2.9,5.7-3.8C19.2,6.5,21.5,6,24,6h0.8v16.1c0.4,0.2,0.7,0.5,0.9,0.8S26,23.6,26,24c0,0.5-0.2,1-0.6,1.4S24.5,26,24,26
	s-1-0.2-1.4-0.6S22,24.5,22,24c0-0.4,0.1-0.7,0.3-1.1c0.2-0.3,0.5-0.6,0.9-0.8v-6.6c-2.2,0.2-4,1.1-5.5,2.7s-2.2,3.5-2.2,5.7
	c0,2.3,0.8,4.3,2.5,6c1.6,1.6,3.6,2.5,6,2.5s4.3-0.8,6-2.5c1.6-1.6,2.5-3.6,2.5-6c0-1.3-0.3-2.5-0.8-3.5c-0.5-1.1-1.2-2-2.1-2.8
	l1.1-1.1c1,0.9,1.8,2,2.4,3.3c0.6,1.3,0.9,2.7,0.9,4.1c0,2.8-1,5.1-2.9,7.1c-2,2-4.3,3-7.1,3s-5.1-1-7.1-2.9C15,29.1,14,26.8,14,24
	c0-2.7,0.9-4.9,2.7-6.8c1.8-1.9,4-2.9,6.6-3.2V7.5c-4.4,0.2-8.1,1.9-11.1,5c-3,3.2-4.6,7-4.6,11.4c0,4.6,1.6,8.5,4.8,11.7
	c3.2,3.2,7.1,4.8,11.7,4.8s8.5-1.6,11.7-4.8s4.8-7.1,4.8-11.7c0-2.4-0.5-4.6-1.4-6.7c-0.9-2-2.2-3.8-3.8-5.3l1.1-1.1
	c1.7,1.7,3.1,3.6,4.1,5.8s1.5,4.6,1.5,7.2c0,2.5-0.5,4.8-1.4,7s-2.2,4.1-3.8,5.7c-1.6,1.6-3.5,2.9-5.7,3.8C28.8,41.5,26.5,42,24,42z
	"/>
</svg>
