<?xml version="1.0" encoding="utf-8"?>
<!-- Generator: Adobe Illustrator 26.3.1, SVG Export Plug-In . SVG Version: 6.00 Build 0)  -->
<svg version="1.1" id="Слой_1" xmlns="http://www.w3.org/2000/svg" xmlns:xlink="http://www.w3.org/1999/xlink" x="0px" y="0px"
	 viewBox="0 0 48 48" style="enable-background:new 0 0 48 48;" xml:space="preserve">
<path d="M35.4,28.9V17.6c0-0.2,0.1-0.4,0.2-0.5c0.1-0.1,0.3-0.2,0.6-0.2c0.2,0,0.4,0.1,0.5,0.2s0.2,0.3,0.2,0.5v11.3
	C36.9,28.9,35.4,28.9,35.4,28.9z M35.8,40.5h-9.7H35.8z M8.8,36c-0.8,0-1.4-0.3-2-0.8C6.3,34.7,6,34,6,33.2V10.8
	c0-0.8,0.3-1.4,0.8-2C7.3,8.3,8,8,8.8,8h28.5c0.5,0,1,0.1,1.5,0.4c0.4,0.3,0.8,0.7,1,1.1h-31C8.5,9.5,8.2,9.6,8,9.9
	c-0.3,0.3-0.4,0.5-0.4,0.8v22.5c0,0.3,0.1,0.6,0.4,0.8c0.3,0.3,0.5,0.4,0.8,0.4h4.3l1.5,1.5L8.8,36L8.8,36z M28.4,42
	c-0.6,0-1.2-0.1-1.8-0.4c-0.6-0.2-1.1-0.6-1.6-1l-8.5-8.5l1-1c0.3-0.3,0.6-0.5,1-0.5c0.4-0.1,0.8,0,1.1,0.1l4.4,1V16.8
	c0-0.2,0.1-0.4,0.2-0.5s0.3-0.2,0.6-0.2c0.2,0,0.4,0.1,0.6,0.2c0.1,0.1,0.2,0.3,0.2,0.5v16.8l-7-1.8l7.6,7.7c0.3,0.3,0.7,0.6,1,0.7
	c0.4,0.2,0.8,0.2,1.2,0.2h7.4c1.4,0,2.7-0.5,3.7-1.5s1.5-2.3,1.5-3.7v-6.6c0-0.2,0.1-0.4,0.2-0.5c0.1-0.1,0.3-0.2,0.6-0.2
	c0.2,0,0.4,0.1,0.5,0.2s0.2,0.3,0.2,0.5v6.6c0,1.9-0.7,3.5-2,4.8s-2.9,2-4.8,2H28.4z M29.7,28.9V14.5c0-0.2,0.1-0.4,0.2-0.5
	s0.3-0.2,0.6-0.2c0.2,0,0.4,0.1,0.6,0.2s0.2,0.3,0.2,0.5v14.4H29.7z"/>
</svg>
