<?xml version="1.0" encoding="utf-8"?>
<!-- Generator: Adobe Illustrator 26.3.1, SVG Export Plug-In . SVG Version: 6.00 Build 0)  -->
<svg version="1.1" id="Слой_1" xmlns="http://www.w3.org/2000/svg" xmlns:xlink="http://www.w3.org/1999/xlink" x="0px" y="0px"
	 viewBox="0 0 48 48" style="enable-background:new 0 0 48 48;" xml:space="preserve">
<path d="M4.8,42c-0.2,0-0.4-0.1-0.5-0.2C4.1,41.6,4,41.4,4,41.2V25.9l3.9-9.3c0.2-0.4,0.4-0.7,0.7-0.9s0.7-0.4,1.1-0.4h17
	c0.4,0,0.8,0.1,1.1,0.4s0.6,0.5,0.8,0.9l3.9,9.3v15.3c0,0.2-0.1,0.4-0.2,0.5S32,42,31.8,42h-0.5c-0.2,0-0.4-0.1-0.5-0.2
	c-0.1-0.2-0.2-0.3-0.2-0.5v-3H6v3c0,0.2-0.1,0.4-0.2,0.5C5.6,41.9,5.4,42,5.2,42H4.8z M6.4,24.4h23.9l-3.2-7.6H9.6
	C9.6,16.9,6.4,24.4,6.4,24.4z M5.5,36.7H31V26H5.5V36.7z M10.9,33.3c0.6,0,1-0.2,1.4-0.6c0.4-0.4,0.6-0.9,0.6-1.4s-0.2-1-0.6-1.4
	c-0.4-0.4-0.9-0.6-1.4-0.6s-1,0.2-1.4,0.6s-0.6,0.9-0.6,1.5c0,0.5,0.2,1,0.6,1.4C9.9,33.1,10.4,33.3,10.9,33.3z M25.7,33.3
	c0.5,0,1-0.2,1.4-0.6c0.4-0.4,0.6-0.9,0.6-1.4s-0.2-1-0.6-1.4s-0.9-0.6-1.4-0.6s-1,0.2-1.4,0.6s-0.6,0.9-0.6,1.5
	c0,0.5,0.2,1,0.6,1.4C24.7,33.1,25.2,33.3,25.7,33.3z M36.5,36.2V20.6l-3.9-9.3h-19l0.1-0.3c0.2-0.4,0.5-0.7,0.8-0.9
	s0.7-0.4,1.1-0.4h16.6c0.4,0,0.8,0.1,1.1,0.4c0.3,0.2,0.6,0.5,0.8,0.9l3.9,9.2v14.6c0,0.3-0.1,0.7-0.4,0.9c-0.3,0.3-0.6,0.4-0.9,0.4
	C36.7,36.2,36.5,36.2,36.5,36.2z M42,30.5V14.9l-3.8-9.1H19.3l0.1-0.3c0.2-0.4,0.5-0.7,0.8-0.9c0.3-0.2,0.7-0.4,1.1-0.4h16.4
	c0.4,0,0.8,0.1,1.1,0.4c0.3,0.2,0.6,0.5,0.8,0.9l3.8,9v14.6c0,0.3-0.1,0.7-0.4,0.9c-0.3,0.3-0.6,0.4-0.9,0.4
	C42.2,30.5,42,30.5,42,30.5z"/>
</svg>
