<?xml version="1.0" encoding="utf-8"?>
<!-- Generator: Adobe Illustrator 26.3.1, SVG Export Plug-In . SVG Version: 6.00 Build 0)  -->
<svg version="1.1" id="Слой_1" xmlns="http://www.w3.org/2000/svg" xmlns:xlink="http://www.w3.org/1999/xlink" x="0px" y="0px"
	 viewBox="0 0 48 48" style="enable-background:new 0 0 48 48;" xml:space="preserve">
<path d="M30,33c-2.3,0-4.3-0.8-6-2.3s-2.7-3.5-3-5.9H9v-1.5h12c0.1-1.2,0.5-2.4,1.2-3.7c0.7-1.2,1.6-2.2,2.8-3H13V15h17
	c2.5,0,4.6,0.9,6.4,2.6c1.8,1.8,2.6,3.9,2.6,6.4s-0.9,4.6-2.6,6.4C34.7,32.2,32.5,33,30,33z M30,31.5c2.1,0,3.8-0.7,5.3-2.2
	c1.5-1.4,2.2-3.2,2.2-5.3s-0.7-3.8-2.2-5.3c-1.4-1.5-3.2-2.2-5.3-2.2s-3.8,0.7-5.3,2.2c-1.5,1.4-2.2,3.2-2.2,5.3s0.7,3.8,2.2,5.3
	C26.2,30.7,27.9,31.5,30,31.5z M15,33v-1.5h4V33H15z"/>
</svg>
