<?xml version="1.0" encoding="utf-8"?>
<!-- Generator: Adobe Illustrator 26.3.1, SVG Export Plug-In . SVG Version: 6.00 Build 0)  -->
<svg version="1.1" id="Слой_1" xmlns="http://www.w3.org/2000/svg" xmlns:xlink="http://www.w3.org/1999/xlink" x="0px" y="0px"
	 viewBox="0 0 48 48" style="enable-background:new 0 0 48 48;" xml:space="preserve">
<path d="M10,34.2V15.7c0-2.4,1.1-3.9,3.4-4.6c2.2-0.7,5.5-1.1,9.8-1.1l1.5-3.1H14.2V5.2h19.7v1.5h-7.5l-1.5,3.1c3.9,0,7,0.4,9.5,1.2
	c2.4,0.7,3.7,2.3,3.7,4.6v18.5c0,1.6-0.6,3-1.7,4.1c-1.1,1.1-2.5,1.7-4.1,1.7l3,3v1h-1.5l-4-4H18.2l-4,4h-1.5v-1l3-3
	c-1.6,0-3-0.6-4.1-1.7C10.6,37.2,10,35.8,10,34.2z M32.4,27.7H11.5h24.9H32.4z M24.1,35.1c0.6,0,1.1-0.2,1.5-0.6
	c0.4-0.4,0.6-0.9,0.6-1.5s-0.2-1.1-0.6-1.5s-0.9-0.6-1.5-0.6s-1.1,0.2-1.5,0.6S22,32.4,22,33s0.2,1.1,0.6,1.5S23.5,35.1,24.1,35.1z
	 M24.1,14.9h12.4h-25H24.1z M11.5,26.1h24.9v-9.7H11.5C11.5,16.4,11.5,26.1,11.5,26.1z M15.6,38.4h16.7c1.1,0,2.1-0.4,2.9-1.2
	c0.8-0.8,1.2-1.8,1.2-2.9v-6.5H11.5v6.5c0,1.1,0.4,2.1,1.2,2.9C13.5,38,14.5,38.4,15.6,38.4z M24.1,11.5c-3.9,0-7,0.3-9.1,0.8
	s-3.3,1.4-3.6,2.6h25c-0.3-1.1-1.5-1.9-3.5-2.5C30.9,11.8,27.9,11.5,24.1,11.5z"/>
</svg>
