<?xml version="1.0" encoding="utf-8"?>
<!-- Generator: Adobe Illustrator 26.3.1, SVG Export Plug-In . SVG Version: 6.00 Build 0)  -->
<svg version="1.1" id="Слой_1" xmlns="http://www.w3.org/2000/svg" xmlns:xlink="http://www.w3.org/1999/xlink" x="0px" y="0px"
	 viewBox="0 0 48 48" style="enable-background:new 0 0 48 48;" xml:space="preserve">
<path d="M6.8,38c-0.8,0-1.4-0.3-2-0.8C4.3,36.7,4,36,4,35.2V12.8c0-0.8,0.3-1.4,0.8-2C5.3,10.3,6,10,6.8,10h4.5c0.8,0,1.4,0.3,2,0.8
	c0.5,0.5,0.8,1.2,0.8,2v22.5c0,0.8-0.3,1.4-0.8,2c-0.5,0.5-1.2,0.8-2,0.8L6.8,38L6.8,38z M6.8,36.5h4.5c0.4,0,0.7-0.1,0.9-0.3
	s0.3-0.5,0.3-0.9V12.7c0-0.3-0.1-0.6-0.3-0.9c-0.2-0.2-0.5-0.4-0.9-0.4H6.8c-0.4,0-0.7,0.1-0.9,0.4c-0.2,0.2-0.3,0.5-0.3,0.9v22.5
	c0,0.4,0.1,0.7,0.3,0.9C6.1,36.4,6.4,36.5,6.8,36.5z M21.6,38c-0.8,0-1.4-0.3-2-0.8c-0.5-0.5-0.8-1.2-0.8-2V12.8
	c0-0.8,0.3-1.4,0.8-2c0.5-0.5,1.2-0.8,2-0.8h19.6c0.8,0,1.4,0.3,2,0.8c0.5,0.5,0.8,1.2,0.8,2v22.5c0,0.8-0.3,1.4-0.8,2
	c-0.5,0.5-1.2,0.8-2,0.8L21.6,38L21.6,38z M21.6,36.5h19.6c0.4,0,0.7-0.1,0.9-0.3s0.3-0.5,0.3-0.9V12.7c0-0.3-0.1-0.6-0.3-0.9
	c-0.2-0.2-0.5-0.4-0.9-0.4H21.6c-0.4,0-0.7,0.1-0.9,0.4c-0.2,0.2-0.3,0.5-0.3,0.9v22.5c0,0.4,0.1,0.7,0.3,0.9
	C21,36.4,21.3,36.5,21.6,36.5z M12.5,36.5v-25V36.5z M20.4,36.5v-25V36.5z"/>
</svg>
