<?xml version="1.0" encoding="utf-8"?>
<!-- Generator: Adobe Illustrator 26.3.1, SVG Export Plug-In . SVG Version: 6.00 Build 0)  -->
<svg version="1.1" id="Слой_1" xmlns="http://www.w3.org/2000/svg" xmlns:xlink="http://www.w3.org/1999/xlink" x="0px" y="0px"
	 viewBox="0 0 48 48" style="enable-background:new 0 0 48 48;" xml:space="preserve">
<path d="M24,31.5c2.4,0,4.4-0.8,6-2.5c1.6-1.6,2.5-3.6,2.5-6s-0.8-4.4-2.5-6c-1.6-1.6-3.6-2.5-6-2.5s-4.4,0.8-6,2.5
	c-1.6,1.6-2.5,3.6-2.5,6s0.8,4.4,2.5,6C19.6,30.6,21.6,31.5,24,31.5z M23.2,45v-4h-4v-1.5h4V33c-2.6-0.3-4.8-1.4-6.6-3.3
	C14.9,27.9,14,25.6,14,23c0-1.2,0.2-2.4,0.6-3.5c0.4-1.1,1-2.1,1.7-3.1L13,13.1l-2.8,2.8l-1.1-1l2.8-2.8L5.5,5.6v6.9H4V3h9.5v1.5
	H6.7l6.4,6.4l2.8-2.8L17,9.2L14.1,12l3.4,3.4c0.9-0.8,1.9-1.3,3-1.8c1.1-0.4,2.3-0.6,3.5-0.6s2.4,0.2,3.5,0.6s2.1,1,3.1,1.7
	L41.4,4.5h-6.9V3H44v9.5h-1.5V5.6L31.6,16.5c0.7,0.9,1.3,1.9,1.7,3c0.4,1.1,0.6,2.3,0.6,3.5c0,2.6-0.9,4.9-2.7,6.7
	c-1.8,1.9-4,3-6.6,3.3v6.4h4V41h-4v4H23.2z"/>
</svg>
