<?xml version="1.0" encoding="utf-8"?>
<!-- Generator: Adobe Illustrator 26.3.1, SVG Export Plug-In . SVG Version: 6.00 Build 0)  -->
<svg version="1.1" id="Слой_1" xmlns="http://www.w3.org/2000/svg" xmlns:xlink="http://www.w3.org/1999/xlink" x="0px" y="0px"
	 viewBox="0 0 48 48" style="enable-background:new 0 0 48 48;" xml:space="preserve">
<path d="M36.2,30.4c-1.6-1.6-2.8-3.4-3.7-5.4c-0.9-2-1.3-4.3-1.3-6.7s0.4-4.7,1.3-6.7c0.9-2,2.1-3.8,3.7-5.5l1.2,1.2
	c-1.4,1.5-2.6,3.2-3.4,4.9c-0.8,1.8-1.2,3.8-1.2,6.1c0,2.2,0.4,4.2,1.2,6s1.9,3.4,3.4,4.9C37.4,29.2,36.2,30.4,36.2,30.4z
	 M43.1,23.4C42.5,22.7,42,22,41.6,21c-0.4-0.9-0.6-1.8-0.6-2.8s0.2-2,0.6-2.9c0.4-0.9,0.9-1.7,1.5-2.4l1.2,1.2
	c-0.5,0.6-0.9,1.2-1.2,1.8s-0.4,1.4-0.4,2.2c0,0.8,0.1,1.5,0.4,2.2c0.3,0.7,0.7,1.3,1.2,1.8C44.3,22.2,43.1,23.4,43.1,23.4z
	 M17.4,24c-1.7,0-3-0.5-4.1-1.6s-1.6-2.5-1.6-4.1c0-1.7,0.5-3.1,1.6-4.1s2.5-1.6,4.1-1.6s3,0.5,4.1,1.6s1.6,2.5,1.6,4.1
	s-0.5,3-1.6,4.1C20.4,23.4,19.1,24,17.4,24z M3.4,38.5v-2.9c0-1,0.2-1.8,0.7-2.4s1.2-1.2,2-1.6c1.6-0.8,3.5-1.4,5.5-1.9
	c2.1-0.5,4-0.7,5.7-0.7c1.7,0,3.6,0.2,5.7,0.7s3.9,1.1,5.6,1.9c0.8,0.4,1.5,0.9,2,1.6c0.5,0.6,0.7,1.4,0.7,2.4v2.9
	C31.4,38.5,3.4,38.5,3.4,38.5z M5,36.9h24.9v-1.4c0-0.6-0.2-1.1-0.5-1.6c-0.4-0.4-0.8-0.8-1.4-1.1c-1.4-0.8-3.1-1.4-5.1-1.8
	s-3.8-0.7-5.5-0.7s-3.5,0.2-5.5,0.7c-2,0.4-3.7,1-5.1,1.8c-0.5,0.3-1,0.6-1.4,1.1C5.1,34.4,5,35,5,35.6V36.9z M17.4,22.4
	c1.2,0,2.2-0.4,3-1.2c0.8-0.8,1.2-1.8,1.2-3s-0.4-2.2-1.2-3c-0.8-0.8-1.8-1.2-3-1.2s-2.2,0.4-3,1.2s-1.2,1.8-1.2,3s0.4,2.2,1.2,3
	C15.2,22,16.2,22.4,17.4,22.4z"/>
</svg>
