<?xml version="1.0" encoding="utf-8"?>
<!-- Generator: Adobe Illustrator 26.3.1, SVG Export Plug-In . SVG Version: 6.00 Build 0)  -->
<svg version="1.1" id="Слой_1" xmlns="http://www.w3.org/2000/svg" xmlns:xlink="http://www.w3.org/1999/xlink" x="0px" y="0px"
	 viewBox="0 0 48 48" style="enable-background:new 0 0 48 48;" xml:space="preserve">
<path d="M23.8,42l8.8-22h1.9l8.8,22h-1.7l-2.4-6H27.9l-2.4,6H23.8z M8.1,36.2L7,35.1l9.8-9.8c-1.4-1.4-2.7-3.1-3.9-4.9
	c-1.2-1.9-2.1-3.5-2.5-4.8h1.7c0.4,1.2,1.2,2.6,2.3,4.3s2.3,3.1,3.5,4.4c1.9-2,3.6-4.1,5-6.4s2.3-4.4,2.7-6.3H4.8V10h12.5V7.5h1.5
	V10h12.5v1.5h-3.9c-0.5,2.2-1.6,4.5-3,7C22.8,21,21,23.2,19,25.3l5.2,5.4l-0.6,1.6l-5.7-5.9L8.1,36.2z M28.5,34.6h10.1l-5-12.6
	C33.5,21.9,28.5,34.6,28.5,34.6z"/>
</svg>
