<?xml version="1.0" encoding="utf-8"?>
<!-- Generator: Adobe Illustrator 26.3.1, SVG Export Plug-In . SVG Version: 6.00 Build 0)  -->
<svg version="1.1" id="Слой_1" xmlns="http://www.w3.org/2000/svg" xmlns:xlink="http://www.w3.org/1999/xlink" x="0px" y="0px"
	 viewBox="0 0 48 48" style="enable-background:new 0 0 48 48;" xml:space="preserve">
<path d="M14.8,42v-2.1c-0.8,0-1.4-0.3-1.9-0.8s-0.8-1.2-0.8-2V16.8c0-0.7,0.3-1.4,0.8-1.9c0.6-0.6,1.2-0.8,1.9-0.8H20V9
	c0-0.4,0.1-0.7,0.4-1s0.6-0.4,1-0.4h5.3c0.4,0,0.7,0.1,1,0.4s0.4,0.6,0.4,1v5h5.1c0.7,0,1.4,0.3,1.9,0.8c0.6,0.6,0.8,1.2,0.8,1.9V37
	c0,0.8-0.3,1.4-0.8,2c-0.6,0.5-1.2,0.8-1.9,0.8V42h-1.5v-2.1H16.3V42H14.8z M21.5,14h5.1V9.2h-5.1V14z M24,24.6
	c1.8,0,3.6-0.2,5.4-0.7c1.8-0.4,3.5-1.1,5-2.1v-5.1c0-0.4-0.1-0.7-0.3-0.9s-0.5-0.3-0.9-0.3H14.8c-0.4,0-0.7,0.1-0.9,0.3
	s-0.3,0.5-0.3,0.9v5.1c1.6,1,3.3,1.7,5,2.1C20.4,24.4,22.2,24.6,24,24.6z M23.2,28.3v-2c-1.7-0.1-3.4-0.3-5-0.8
	c-1.6-0.4-3.2-1.1-4.7-2V37c0,0.4,0.1,0.7,0.3,0.9s0.5,0.3,0.9,0.3h18.5c0.4,0,0.7-0.1,0.9-0.3s0.3-0.5,0.3-0.9V23.6
	c-1.5,0.9-3,1.5-4.7,2c-1.6,0.4-3.3,0.7-5,0.8v2C24.8,28.3,23.2,28.3,23.2,28.3z"/>
</svg>
