<?xml version="1.0" encoding="utf-8"?>
<!-- Generator: Adobe Illustrator 26.3.1, SVG Export Plug-In . SVG Version: 6.00 Build 0)  -->
<svg version="1.1" id="Слой_1" xmlns="http://www.w3.org/2000/svg" xmlns:xlink="http://www.w3.org/1999/xlink" x="0px" y="0px"
	 viewBox="0 0 48 48" style="enable-background:new 0 0 48 48;" xml:space="preserve">
<path d="M8.8,40c-0.7,0-1.4-0.3-1.9-0.8S6,38,6,37.2V16.8c0-0.7,0.3-1.4,0.8-1.9C7.4,14.3,8,14,8.8,14H18v-3.2
	c0-0.7,0.3-1.4,0.8-1.9C19.4,8.3,20,8,20.8,8h6.5c0.7,0,1.4,0.3,1.9,0.8c0.5,0.6,0.8,1.2,0.8,2V14h9.2c0.7,0,1.4,0.3,1.9,0.8
	s0.8,1.2,0.8,1.9v20.5c0,0.7-0.3,1.4-0.8,1.9C40.6,39.7,40,40,39.2,40H8.8z M19.5,14h8.9v-3.2c0-0.3-0.1-0.6-0.4-0.8
	c-0.3-0.3-0.5-0.4-0.8-0.4h-6.5c-0.3,0-0.6,0.1-0.8,0.4c-0.3,0.3-0.4,0.5-0.4,0.8C19.5,10.8,19.5,14,19.5,14z M14.2,15.5H8.8
	c-0.3,0-0.6,0.1-0.8,0.4c-0.3,0.3-0.4,0.5-0.4,0.8v20.5c0,0.3,0.1,0.6,0.4,0.8c0.3,0.3,0.5,0.4,0.8,0.4h5.4
	C14.2,38.5,14.2,15.5,14.2,15.5z M32.3,38.5v-23H15.7v22.9L32.3,38.5L32.3,38.5z M33.9,15.5v22.9h5.4c0.3,0,0.6-0.1,0.8-0.4
	s0.4-0.5,0.4-0.8V16.8c0-0.3-0.1-0.6-0.4-0.8c-0.3-0.3-0.5-0.4-0.8-0.4C39.2,15.5,33.9,15.5,33.9,15.5z"/>
</svg>
