<?xml version="1.0" encoding="utf-8"?>
<!-- Generator: Adobe Illustrator 26.3.1, SVG Export Plug-In . SVG Version: 6.00 Build 0)  -->
<svg version="1.1" id="Слой_1" xmlns="http://www.w3.org/2000/svg" xmlns:xlink="http://www.w3.org/1999/xlink" x="0px" y="0px"
	 viewBox="0 0 48 48" style="enable-background:new 0 0 48 48;" xml:space="preserve">
<path d="M42.5,41.8l-11.1-11c-1.4,1.2-3,2.1-4.6,2.8s-3.4,1-5.3,1c-2.6,0-4.9-0.6-7.1-1.8c-2.1-1.2-3.9-2.8-5.2-4.7h2
	c1.2,1.5,2.7,2.7,4.5,3.6s3.7,1.4,5.8,1.4c3.7,0,6.8-1.3,9.4-3.9s3.9-5.7,3.9-9.3c0-3.7-1.3-6.8-3.9-9.4s-5.7-3.9-9.4-3.9
	c-3.5,0-6.6,1.2-9.1,3.6S8.5,15.6,8.3,19H6.8c0.2-3.9,1.7-7.3,4.5-10s6.2-4,10.2-4c4.1,0,7.6,1.4,10.5,4.3s4.3,6.4,4.3,10.5
	c0,1.9-0.3,3.7-1,5.3c-0.7,1.6-1.6,3.1-2.8,4.6l11,11C43.6,40.7,42.5,41.8,42.5,41.8z M20.1,27.4l-3.5-11.7l-3.1,8.7H4.4v-1.8h7.8
	l3.3-9.5h2.1l3.5,11.7l2.7-8.2h2.1l3,6h1.7v1.8h-2.7L25,18.7l-2.8,8.7C22.2,27.4,20.1,27.4,20.1,27.4z"/>
</svg>
