<?xml version="1.0" encoding="utf-8"?>
<!-- Generator: Adobe Illustrator 26.3.1, SVG Export Plug-In . SVG Version: 6.00 Build 0)  -->
<svg version="1.1" id="Слой_1" xmlns="http://www.w3.org/2000/svg" xmlns:xlink="http://www.w3.org/1999/xlink" x="0px" y="0px"
	 viewBox="0 0 48 48" style="enable-background:new 0 0 48 48;" xml:space="preserve">
<path d="M5,40.9v-1.5c0.9-0.1,1.8-0.3,2.7-0.7s1.9-0.9,2.9-1.6c1.1,0.8,2.2,1.4,3.3,1.8c1.1,0.4,2.3,0.6,3.4,0.6s2.3-0.2,3.5-0.6
	c1.2-0.4,2.3-1,3.2-1.7c1,0.8,2.1,1.4,3.2,1.7c1.1,0.4,2.3,0.6,3.5,0.6s2.2-0.2,3.3-0.6s2.2-1,3.4-1.8c1,0.7,1.9,1.2,2.9,1.6
	c0.9,0.4,1.8,0.6,2.7,0.8V41c-0.8-0.1-1.7-0.3-2.7-0.6s-1.9-0.8-2.9-1.3c-1.1,0.7-2.3,1.2-3.4,1.6c-1.1,0.3-2.2,0.5-3.3,0.5
	c-1,0-2.1-0.2-3.3-0.5c-1.2-0.4-2.3-0.9-3.4-1.6c-1,0.7-2.1,1.2-3.3,1.6c-1.1,0.4-2.3,0.5-3.4,0.5S15.1,41,14,40.7s-2.3-0.9-3.4-1.6
	c-0.9,0.5-1.8,0.9-2.8,1.3C6.8,40.6,5.9,40.8,5,40.9z M5,33.7V29c0-3,0.6-5.7,1.8-8.3s2.8-4.8,4.9-6.7s4.5-3.4,7.3-4.4S24.7,8,28,8
	c0.7,0,1.5,0,2.2,0.1s1.4,0.1,2,0.2c-0.5,1-0.8,1.9-1.1,2.9c-0.3,1-0.4,2-0.4,2.9c0,2.2,0.8,4.1,2.3,5.7c1.5,1.6,3.4,2.4,5.6,2.4H43
	v1.5h-4.3c-2.6,0-4.9-1-6.7-2.9s-2.7-4.2-2.7-6.8c0-0.7,0.1-1.4,0.3-2.3c0.2-0.9,0.4-1.7,0.7-2.4c-3.3,0.6-6,2-8.2,4.4
	c-2.1,2.4-3.2,5.1-3.2,8.2c0,1.7,0.2,3.2,0.7,4.6s1.2,2.9,2.2,4.5c0.4-0.2,0.8-0.4,1.2-0.7c0.4-0.3,0.8-0.5,1.1-0.7
	c1,0.8,2.2,1.4,3.4,1.8c1.2,0.4,2.3,0.6,3.4,0.6c1,0,2.1-0.2,3.3-0.7s2.3-1,3.4-1.8c1,0.7,1.9,1.2,2.9,1.6c0.9,0.4,1.8,0.7,2.7,0.8
	v1.5c-0.7-0.1-1.6-0.3-2.5-0.7c-0.9-0.3-1.9-0.8-3-1.4c-1.2,0.7-2.4,1.3-3.5,1.6c-1.1,0.4-2.2,0.5-3.2,0.5s-2.1-0.2-3.3-0.6
	c-1.2-0.4-2.3-0.9-3.4-1.6c-1.3,0.8-2.4,1.4-3.5,1.7c-1,0.3-2.1,0.5-3.2,0.5s-2.2-0.2-3.3-0.5s-2.2-0.9-3.4-1.6
	c-0.9,0.5-1.8,0.9-2.8,1.3C6.8,33.3,5.9,33.6,5,33.7z M17.2,32.2c0.5,0,1,0,1.6-0.1s1-0.2,1.5-0.3c-1.1-1.7-1.8-3.3-2.3-4.8
	s-0.7-3.2-0.7-4.9c0-3,0.9-5.7,2.6-8.1S24,9.9,27,8.9v0.7c-3.1,0.2-5.9,0.8-8.4,1.9S14,14,12.2,15.7s-3.1,3.7-4.1,6
	s-1.5,4.8-1.5,7.4v2.5c0.7-0.2,1.5-0.5,2.2-0.8c0.8-0.3,1.4-0.7,1.9-1c1.2,0.8,2.3,1.4,3.3,1.8C15,32,16.1,32.2,17.2,32.2z"/>
</svg>
