<?xml version="1.0" encoding="utf-8"?>
<!-- Generator: Adobe Illustrator 26.3.1, SVG Export Plug-In . SVG Version: 6.00 Build 0)  -->
<svg version="1.1" id="Слой_1" xmlns="http://www.w3.org/2000/svg" xmlns:xlink="http://www.w3.org/1999/xlink" x="0px" y="0px"
	 viewBox="0 0 48 48" style="enable-background:new 0 0 48 48;" xml:space="preserve">
<path d="M33.2,40V29.2c0-0.4-0.1-0.7-0.3-0.9C32.7,28.1,32.4,28,32,28H16c-0.7,0-1.4-0.3-1.9-0.8s-0.8-1.2-0.8-1.9V11l-4.8,4.8
	l-1.1-1.1L14,8l6.7,6.7l-1.1,1.1L14.8,11v14.3c0,0.4,0.1,0.7,0.3,0.9c0.2,0.2,0.5,0.3,0.9,0.3h16c0.7,0,1.4,0.3,1.9,0.8
	s0.8,1.2,0.8,1.9V40C34.8,40,33.2,40,33.2,40z"/>
</svg>
