<?xml version="1.0" encoding="utf-8"?>
<!-- Generator: Adobe Illustrator 26.3.1, SVG Export Plug-In . SVG Version: 6.00 Build 0)  -->
<svg version="1.1" id="Слой_1" xmlns="http://www.w3.org/2000/svg" xmlns:xlink="http://www.w3.org/1999/xlink" x="0px" y="0px"
	 viewBox="0 0 48 48" style="enable-background:new 0 0 48 48;" xml:space="preserve">
<path d="M9.5,38.9V36H8.8c-0.7,0-1.4-0.3-1.9-0.8C6.3,34.6,6,34,6,33.2V12.8c0-0.7,0.3-1.4,0.8-1.9C7.4,10.3,8,10,8.8,10h30.5
	c0.7,0,1.4,0.3,1.9,0.8S42,12,42,12.7v20.5c0,0.7-0.3,1.4-0.8,1.9c-0.6,0.6-1.2,0.9-2,0.9h-0.7v2.9h-0.6l-1-2.9H11.2l-1.1,2.9
	C10.1,38.9,9.5,38.9,9.5,38.9z M8.8,34.5h30.5c0.4,0,0.7-0.1,0.9-0.3s0.3-0.5,0.3-0.9V12.8c0-0.4-0.1-0.7-0.3-0.9s-0.5-0.3-0.9-0.3
	H8.8c-0.4,0-0.7,0.1-0.9,0.3c-0.2,0.2-0.3,0.5-0.3,0.9v20.5c0,0.4,0.1,0.7,0.3,0.9C8.1,34.3,8.4,34.5,8.8,34.5z"/>
</svg>
