<?xml version="1.0" encoding="utf-8"?>
<!-- Generator: Adobe Illustrator 26.3.1, SVG Export Plug-In . SVG Version: 6.00 Build 0)  -->
<svg version="1.1" id="Слой_1" xmlns="http://www.w3.org/2000/svg" xmlns:xlink="http://www.w3.org/1999/xlink" x="0px" y="0px"
	 viewBox="0 0 48 48" style="enable-background:new 0 0 48 48;" xml:space="preserve">
<path d="M39.2,43.5L38,42.4l6.1-6.1l-6-6.1l1.1-1.1l7.2,7.2L39.2,43.5z M18.2,40v-4H8.8c-0.8,0-1.4-0.3-2-0.8C6.3,34.7,6,34,6,33.2
	V10.8c0-0.8,0.3-1.4,0.8-2C7.3,8.3,8,8,8.8,8h30.5c0.8,0,1.4,0.3,2,0.8c0.5,0.5,0.8,1.2,0.8,2V24h-1.5V10.8c0-0.3-0.1-0.6-0.4-0.8
	c-0.3-0.3-0.5-0.4-0.8-0.4H8.8C8.5,9.6,8.2,9.7,8,10c-0.3,0.3-0.4,0.5-0.4,0.8v22.5c0,0.3,0.1,0.6,0.4,0.8c0.3,0.3,0.5,0.4,0.8,0.4
	h25.4V36h-3.9v4C30.2,40,18.2,40,18.2,40z M7.5,34.5v-25V34.5z"/>
</svg>
