<?xml version="1.0" encoding="utf-8"?>
<!-- Generator: Adobe Illustrator 26.3.1, SVG Export Plug-In . SVG Version: 6.00 Build 0)  -->
<svg version="1.1" id="Слой_1" xmlns="http://www.w3.org/2000/svg" xmlns:xlink="http://www.w3.org/1999/xlink" x="0px" y="0px"
	 viewBox="0 0 48 48" style="enable-background:new 0 0 48 48;" xml:space="preserve">
<path d="M8.8,38c-0.7,0-1.4-0.3-1.9-0.8C6.3,36.6,6,36,6,35.2V12.8c0-0.7,0.3-1.4,0.8-1.9C7.4,10.3,8,10,8.8,10h30.5
	c0.7,0,1.4,0.3,1.9,0.8S42,12,42,12.7v22.5c0,0.7-0.3,1.4-0.8,1.9c-0.6,0.6-1.2,0.9-2,0.9H8.8z M8.8,36.5h30.5
	c0.4,0,0.7-0.1,0.9-0.3s0.3-0.5,0.3-0.9V12.8c0-0.4-0.1-0.7-0.3-0.9s-0.5-0.3-0.9-0.3H8.8c-0.4,0-0.7,0.1-0.9,0.3
	c-0.2,0.2-0.3,0.5-0.3,0.9v22.5c0,0.4,0.1,0.7,0.3,0.9C8.1,36.3,8.4,36.5,8.8,36.5z M23.2,31.5h1.5l0.1-1.4c0.8-0.1,1.5-0.4,2.2-0.8
	s1.3-0.9,1.8-1.4l1.3,0.7l0.9-1.2l-1.3-1.1c0.2-0.8,0.3-1.6,0.3-2.4s-0.1-1.6-0.3-2.4l1.3-1.1l-0.9-1.2l-1.3,0.7
	c-0.5-0.6-1.1-1-1.8-1.4c-0.7-0.4-1.4-0.6-2.2-0.8l-0.1-1.4h-1.5l-0.1,1.4c-0.8,0.1-1.5,0.4-2.1,0.8c-0.7,0.4-1.3,0.9-1.8,1.4
	l-1.3-0.7L17,20.6l1.3,1.1C18.1,22.4,18,23.2,18,24s0.1,1.6,0.3,2.4l-1.3,1l0.9,1.2l1.3-0.7c0.5,0.6,1.1,1,1.8,1.4
	c0.7,0.4,1.4,0.6,2.1,0.8C23.2,30.1,23.2,31.5,23.2,31.5z M24,28.5c-1.3,0-2.3-0.4-3.2-1.3c-0.9-0.9-1.3-1.9-1.3-3.2
	c0-1.3,0.4-2.3,1.3-3.2c0.9-0.9,1.9-1.3,3.2-1.3s2.3,0.4,3.2,1.3c0.9,0.9,1.3,1.9,1.3,3.2s-0.4,2.3-1.3,3.2
	C26.3,28,25.3,28.5,24,28.5z M7.5,36.5v-25V36.5z"/>
</svg>
