<?xml version="1.0" encoding="utf-8"?>
<!-- Generator: Adobe Illustrator 26.3.1, SVG Export Plug-In . SVG Version: 6.00 Build 0)  -->
<svg version="1.1" id="Слой_1" xmlns="http://www.w3.org/2000/svg" xmlns:xlink="http://www.w3.org/1999/xlink" x="0px" y="0px"
	 viewBox="0 0 48 48" style="enable-background:new 0 0 48 48;" xml:space="preserve">
<path d="M41.8,34.3L40.5,33V10.8c0-0.4-0.1-0.7-0.3-0.9s-0.5-0.3-0.9-0.3H17L15.4,8h23.8c0.8,0,1.4,0.3,2,0.8c0.5,0.5,0.8,1.2,0.8,2
	v22.4c0,0.2,0,0.4-0.1,0.6C41.9,34,41.8,34.2,41.8,34.3z M10.3,7.9l1.6,1.6H8.8C8.5,9.5,8.2,9.6,8,9.9c-0.3,0.3-0.4,0.5-0.4,0.8
	v22.5c0,0.4,0.1,0.7,0.3,0.9s0.5,0.3,0.9,0.3h25.9L4.3,4.2L5.4,3l37.7,37.7L42,41.8L36.2,36h-6.4v4H18.2v-4H8.8
	c-0.8,0-1.4-0.3-2-0.8C6.3,34.7,6,34,6,33.2V10.8c0-0.7,0.3-1.4,0.8-2s1.3-0.9,2.3-0.9H10.3z"/>
</svg>
