<?xml version="1.0" encoding="utf-8"?>
<!-- Generator: Adobe Illustrator 26.3.1, SVG Export Plug-In . SVG Version: 6.00 Build 0)  -->
<svg version="1.1" id="Слой_1" xmlns="http://www.w3.org/2000/svg" xmlns:xlink="http://www.w3.org/1999/xlink" x="0px" y="0px"
	 viewBox="0 0 48 48" style="enable-background:new 0 0 48 48;" xml:space="preserve">
<path d="M7.9,37C6,37,4.4,36.3,3,35s-2-3-2-4.9c0-2,0.7-3.7,2.1-5.1s3.1-2,5.1-1.9h1.5l-3.6-3H1v-1.5h7.1l5.8,3.5l8.2-3.1h8.5
	l-5.1-6.5h-4.3V11h5.1l3.8,4.9l5.8-2.1v3.1h-5.1l5.6,7.2c0.5-0.3,1.1-0.5,1.7-0.7c0.6-0.1,1.2-0.2,1.8-0.2c1.9,0,3.6,0.7,4.9,2
	c1.4,1.3,2,3,2,4.9s-0.7,3.6-2,4.9c-1.4,1.3-3,2-4.9,2s-3.6-0.7-4.9-2c-1.3-1.3-2-3-2-4.9c0-1,0.2-1.9,0.6-2.8
	c0.4-0.9,0.9-1.6,1.6-2.3l-2.7-3.5l-7.4,11.4h-4.9l-5.4-4.7V30c0.1,1.9-0.6,3.6-1.9,5S9.9,37,7.9,37z M7.9,35.5
	c1.5,0,2.8-0.5,3.8-1.6s1.6-2.3,1.6-3.8s-0.5-2.8-1.6-3.8c-1-1-2.3-1.6-3.8-1.6s-2.8,0.5-3.8,1.6c-1.1,1-1.6,2.3-1.6,3.8
	s0.5,2.8,1.6,3.8S6.4,35.5,7.9,35.5z M22.5,20.5l-9.7,3.6L22.5,20.5h9H22.5z M40.1,35.5c1.5,0,2.8-0.5,3.8-1.6
	c1.1-1,1.6-2.3,1.6-3.8s-0.5-2.8-1.6-3.8s-2.3-1.6-3.8-1.6s-2.8,0.5-3.8,1.6c-1,1-1.6,2.3-1.6,3.8s0.5,2.8,1.6,3.8
	C37.3,34.9,38.5,35.5,40.1,35.5z M24.3,31.4l7.1-10.8h-9l-9.6,3.6l8,7.3h3.5V31.4z"/>
</svg>
