<?xml version="1.0" encoding="utf-8"?>
<!-- Generator: Adobe Illustrator 26.3.1, SVG Export Plug-In . SVG Version: 6.00 Build 0)  -->
<svg version="1.1" id="Слой_1" xmlns="http://www.w3.org/2000/svg" xmlns:xlink="http://www.w3.org/1999/xlink" x="0px" y="0px"
	 viewBox="0 0 48 48" style="enable-background:new 0 0 48 48;" xml:space="preserve">
<path d="M13.9,40V18.6c0-3,1-5.5,3.1-7.5C19,9,21.5,8,24.5,8S30,9,32,11.1c2.1,2.1,3.1,4.6,3.1,7.5v11l4.8-4.8L41,26l-6.6,6.6
	L27.7,26l1.1-1.1l4.8,4.8v-11c0-2.5-0.9-4.6-2.7-6.4S27,9.6,24.5,9.6s-4.7,0.9-6.4,2.7c-1.8,1.8-2.6,3.9-2.6,6.4V40
	C15.4,40,13.9,40,13.9,40z"/>
</svg>
