<?xml version="1.0" encoding="utf-8"?>
<!-- Generator: Adobe Illustrator 26.3.1, SVG Export Plug-In . SVG Version: 6.00 Build 0)  -->
<svg version="1.1" id="Слой_1" xmlns="http://www.w3.org/2000/svg" xmlns:xlink="http://www.w3.org/1999/xlink" x="0px" y="0px"
	 viewBox="0 0 48 48" style="enable-background:new 0 0 48 48;" xml:space="preserve">
<path d="M34.7,41.9c-0.6,0-1.1-0.1-1.6-0.3s-1-0.5-1.4-0.9c-0.3-0.3-0.6-0.6-0.8-0.7c-0.2-0.1-0.5-0.2-0.8-0.2h-4.4
	c-0.9,0-1.6-0.3-2.2-0.9c-0.6-0.6-0.8-1.3-0.8-2.1c0-0.5,0.1-0.9,0.3-1.3c0.2-0.4,0.5-0.8,0.9-1.1l2-1.6c0.2-0.2,0.4-0.4,0.6-0.7
	c0.1-0.3,0.2-0.5,0.2-0.8V20.2c0-0.2,0-0.4-0.1-0.6s-0.1-0.4-0.3-0.6l-3.1-4.4c-0.2-0.3-0.3-0.5-0.4-0.8s-0.1-0.6-0.1-0.9
	c0-0.8,0.3-1.5,0.8-2.1c0.6-0.6,1.3-0.9,2.2-0.9h10c0.9,0,1.6,0.3,2.1,0.9c0.6,0.6,0.9,1.3,0.9,2.1c0,0.3,0,0.6-0.1,0.9
	c-0.1,0.3-0.2,0.6-0.4,0.9L35,19c-0.1,0.2-0.2,0.3-0.3,0.5s-0.1,0.4-0.1,0.6v11.2c0,0.3,0.1,0.5,0.2,0.8c0.1,0.2,0.3,0.4,0.5,0.7
	l1.9,2c0.5,0.4,0.8,0.9,1.1,1.4s0.4,1.1,0.4,1.7c0,1.1-0.4,2.1-1.2,2.8C36.7,41.5,35.8,41.9,34.7,41.9z M34.7,40.4
	c0.7,0,1.3-0.2,1.7-0.7c0.5-0.5,0.7-1.1,0.7-1.7c0-0.6-0.1-1-0.4-1.4c-0.3-0.4-0.5-0.6-0.6-0.7l-1.9-2c-0.3-0.3-0.6-0.7-0.8-1.2
	c-0.2-0.4-0.3-0.9-0.3-1.4V20.2c0-0.4,0.1-0.7,0.2-1.1c0.1-0.4,0.3-0.7,0.5-1l3.1-4.4c0,0,0.1-0.3,0.3-0.8c0-0.4-0.1-0.7-0.4-1
	c-0.3-0.3-0.6-0.4-1-0.4h-10c-0.4,0-0.8,0.2-1,0.5c-0.3,0.3-0.4,0.6-0.4,1c0,0.2,0,0.3,0.1,0.4c0.1,0.1,0.1,0.2,0.2,0.4l3.1,4.4
	c0.2,0.3,0.3,0.7,0.5,1c0.1,0.4,0.2,0.7,0.2,1.1v11c0,0.5-0.1,1-0.4,1.5c-0.2,0.5-0.6,0.9-1,1.2l-2,1.6c-0.2,0.2-0.4,0.4-0.5,0.6
	c-0.1,0.2-0.2,0.4-0.2,0.7c0,0.4,0.1,0.7,0.4,1s0.6,0.4,1,0.4h4.4c0.6,0,1.1,0.1,1.5,0.4c0.4,0.2,0.8,0.6,1.3,0.9
	c0.3,0.3,0.6,0.4,0.9,0.5C34.1,40.3,34.4,40.4,34.7,40.4z M18.1,39.5c-0.3,0.1-0.5,0.2-0.7,0.3s-0.5,0.1-0.7,0.1
	c-0.9,0-1.7-0.3-2.3-1c-0.7-0.6-1-1.4-1-2.3V18.7c0-0.3,0-0.6-0.1-0.8c-0.1-0.3-0.1-0.5-0.3-0.7l-3.3-7C9.6,9.9,9.5,9.7,9.4,9.5
	c0-0.2-0.1-0.4-0.1-0.6c0-0.8,0.3-1.5,0.9-2.1c0.6-0.6,1.3-0.9,2.1-0.9h7v3.5c0,0.1,0,0.2,0.1,0.3s0.2,0.1,0.3,0.1h1.5
	c0.8,0,1.6,0.3,2.1,0.9c0.6,0.6,0.9,1.3,0.9,2.1c0,0.3,0,0.6-0.1,0.9c-0.1,0.3-0.2,0.6-0.4,0.9L22,16.9c-0.2,0.3-0.4,0.6-0.5,1
	s-0.2,0.7-0.2,1.1v9c0,0.4,0,0.7,0.1,1.1c0.1,0.3,0.2,0.7,0.4,0.9l1.9,2.9c0.2,0.3,0.3,0.5,0.4,0.8s0.1,0.6,0.1,0.9
	c0,0.5-0.1,1-0.4,1.5s-0.7,0.9-1.2,1.1C22.7,37.2,18.1,39.5,18.1,39.5z M17.5,38.1l4.6-2.2c0.3-0.1,0.5-0.3,0.6-0.5s0.2-0.5,0.2-0.7
	c0-0.1-0.1-0.4-0.3-0.8L20.7,31c-0.3-0.5-0.5-1-0.7-1.5s-0.2-1.1-0.2-1.6v-8.7c0-0.6,0.1-1.2,0.3-1.8c0.2-0.6,0.5-1.1,0.8-1.6
	l1.6-2.1c0.1-0.1,0.2-0.4,0.3-0.9c0-0.4-0.1-0.7-0.4-1s-0.6-0.4-1-0.4h-1.1c-0.6,0-1.2-0.2-1.7-0.7s-0.8-1-0.8-1.8V7.4h-5.5
	c-0.4,0-0.8,0.1-1,0.4c-0.3,0.3-0.4,0.6-0.4,1c0,0.2,0.1,0.4,0.2,0.6l3.3,6.9c0.1,0.3,0.3,0.6,0.4,1c0.1,0.4,0.2,0.8,0.2,1.3v17.8
	c0,0.5,0.2,0.9,0.6,1.2c0.4,0.3,0.8,0.5,1.3,0.5C16.8,38.3,17.1,38.2,17.5,38.1z"/>
</svg>
