<?xml version="1.0" encoding="utf-8"?>
<!-- Generator: Adobe Illustrator 26.3.1, SVG Export Plug-In . SVG Version: 6.00 Build 0)  -->
<svg version="1.1" id="Слой_1" xmlns="http://www.w3.org/2000/svg" xmlns:xlink="http://www.w3.org/1999/xlink" x="0px" y="0px"
	 viewBox="0 0 48 48" style="enable-background:new 0 0 48 48;" xml:space="preserve">
<path d="M5.4,24.1l0.9-1.3l14.8,14c0.5,0.5,1.1,0.8,1.7,1.1c0.6,0.2,1.3,0.4,2,0.4c0.5,0,1-0.1,1.5-0.2c0.5-0.1,0.9-0.3,1.3-0.6
	L43,27.8v1.7l-14.6,9.2c-0.5,0.3-1.1,0.6-1.7,0.8s-1.2,0.3-1.9,0.3c-0.8,0-1.7-0.2-2.5-0.5s-1.5-0.8-2.2-1.4L5.4,24.1z M26.1,33.9
	c0.4,0,0.7-0.1,0.9-0.4c0.3-0.3,0.4-0.6,0.4-0.9c0-0.2-0.2-0.5-0.6-1.1l7.3-4.6c0,0.3,0.2,0.6,0.5,0.8c0.3,0.2,0.6,0.3,0.9,0.3
	c0.4,0,0.7-0.1,0.9-0.4c0.3-0.3,0.4-0.6,0.4-0.9c0-0.4-0.1-0.7-0.4-1c-0.3-0.3-0.6-0.4-1-0.3h-0.2h-0.1c0.1-0.1,0.2-0.3,0.2-0.4
	s0.1-0.3,0.1-0.5c0-0.4-0.1-0.7-0.4-0.9c-0.3-0.3-0.6-0.4-0.9-0.4c-0.3,0-0.7,0.1-0.9,0.4c-0.3,0.3-0.4,0.6-0.4,0.9
	c0,0.1,0.2,0.5,0.7,1.2L26,30.3c-0.1-0.3-0.2-0.6-0.5-0.8c-0.2-0.2-0.5-0.3-0.9-0.3c-0.3,0-0.7,0.1-0.9,0.4
	c-0.3,0.3-0.4,0.6-0.4,0.9c0,0.4,0.1,0.7,0.4,1s0.6,0.4,1,0.4H25h0.1c-0.1,0.1-0.2,0.2-0.2,0.4c0,0.1-0.1,0.3-0.1,0.4
	c0,0.3,0.1,0.7,0.4,0.9C25.4,33.8,25.7,33.9,26.1,33.9z M14.5,11.7l0.9-1.2c2.6,1.4,4.8,3.3,6.9,5.6c2,2.3,3.4,4.6,4.1,7
	c1.4-1.8,2.8-3.1,4.2-3.9s3.6-1.6,6.6-2.4c1.2-0.3,2.3-0.6,3.2-1s1.8-0.7,2.6-1v1.5c-0.8,0.3-1.6,0.6-2.5,0.9s-1.8,0.6-2.9,0.9
	c-3,0.8-5.2,1.7-6.7,2.6s-2.9,2.4-4.2,4.5c-0.1,0.1-0.1,0.1-0.2,0.2s-0.2,0.1-0.4,0.1c-0.2,0-0.3-0.1-0.4-0.2s-0.2-0.3-0.2-0.4
	c-0.6-2.5-2-4.9-4-7.3C19.4,15.2,17.1,13.2,14.5,11.7z M6.3,22.9c2.2,2.1,4.7,4.4,7.4,7s5.2,4.9,7.4,7c0.5,0.5,1.1,0.8,1.7,1.1
	c0.6,0.2,1.3,0.4,2,0.4c0.5,0,1-0.1,1.5-0.2c0.5-0.1,0.9-0.3,1.3-0.6c2.4-1.5,5-3.2,7.7-4.9c2.8-1.7,5.3-3.3,7.6-4.8l-15.4,9.7
	c-0.4,0.3-0.9,0.5-1.3,0.6c-0.5,0.1-1,0.2-1.5,0.2c-0.7,0-1.3-0.1-1.9-0.4c-0.6-0.2-1.2-0.6-1.7-1.1C21.1,36.8,6.3,22.9,6.3,22.9z"
	/>
</svg>
