<?xml version="1.0" encoding="utf-8"?>
<!-- Generator: Adobe Illustrator 26.3.1, SVG Export Plug-In . SVG Version: 6.00 Build 0)  -->
<svg version="1.1" id="Слой_1" xmlns="http://www.w3.org/2000/svg" xmlns:xlink="http://www.w3.org/1999/xlink" x="0px" y="0px"
	 viewBox="0 0 48 48" style="enable-background:new 0 0 48 48;" xml:space="preserve">
<path d="M24,20.7l-6.5,6.5l1,1.1l4.7-4.7v10.2h1.5V23.5l4.7,4.7l1-1.1L24,20.7z M9.5,14.8v22.4c0,0.4,0.1,0.7,0.3,0.9
	s0.5,0.3,0.9,0.3h26.5c0.4,0,0.7-0.1,0.9-0.3s0.3-0.5,0.3-0.9V14.8H9.5z M11.1,40c-0.7,0-1.4-0.3-2.1-1c-0.7-0.7-1-1.4-1-2.1V14.7
	c0-0.3,0.1-0.6,0.2-0.9c0.1-0.3,0.2-0.6,0.4-0.8l3.2-4c0.2-0.3,0.6-0.6,0.9-0.8C13.1,8.1,13.5,8,13.9,8h20c0.4,0,0.9,0.1,1.3,0.3
	c0.4,0.2,0.7,0.4,1,0.8l3.2,4.1c0.2,0.3,0.3,0.5,0.4,0.8c0.1,0.3,0.2,0.6,0.2,0.9V37c0,0.7-0.3,1.4-1,2.1c-0.7,0.7-1.4,1-2.1,1
	L11.1,40L11.1,40z M10.3,13.3h27.3L34.9,10c-0.1-0.1-0.3-0.2-0.4-0.3c-0.2-0.1-0.3-0.1-0.5-0.1H14c-0.2,0-0.4,0-0.5,0.1
	c-0.2,0-0.4,0.1-0.5,0.3L10.3,13.3z"/>
</svg>
