<?xml version="1.0" encoding="utf-8"?>
<!-- Generator: Adobe Illustrator 26.3.1, SVG Export Plug-In . SVG Version: 6.00 Build 0)  -->
<svg version="1.1" id="Слой_1" xmlns="http://www.w3.org/2000/svg" xmlns:xlink="http://www.w3.org/1999/xlink" x="0px" y="0px"
	 viewBox="0 0 48 48" style="enable-background:new 0 0 48 48;" xml:space="preserve">
<path d="M24,45.2l-7.4-7.4l1.1-1.1l6.4,6.3l6.3-6.3l1.1,1.1L24,45.2z M24,35.2l-7.4-7.4l1.1-1.1l6.4,6.3l6.3-6.3l1.1,1.1
	C31.5,27.7,24,35.2,24,35.2z M17.7,21.4l-1.1-1.1l7.4-7.4l7.5,7.5l-1.1,1.1L24,15.1L17.7,21.4z M17.7,11.4l-1.1-1.1L24,2.8l7.5,7.4
	l-1.1,1.1L24,5.1L17.7,11.4z"/>
</svg>
