<?xml version="1.0" encoding="utf-8"?>
<!-- Generator: Adobe Illustrator 26.3.1, SVG Export Plug-In . SVG Version: 6.00 Build 0)  -->
<svg version="1.1" id="Слой_1" xmlns="http://www.w3.org/2000/svg" xmlns:xlink="http://www.w3.org/1999/xlink" x="0px" y="0px"
	 viewBox="0 0 48 48" style="enable-background:new 0 0 48 48;" xml:space="preserve">
<path d="M30.8,31.6h6.8v-6.8h-1.5V30h-5.2C30.8,30.1,30.8,31.6,30.8,31.6z M24,28.6c1.3,0,2.4-0.5,3.3-1.4s1.4-2,1.4-3.3
	s-0.5-2.4-1.4-3.3s-2-1.4-3.3-1.4s-2.4,0.5-3.3,1.4s-1.3,2-1.3,3.3s0.5,2.4,1.4,3.3C21.6,28.2,22.7,28.6,24,28.6z M10.4,23.2h1.5V18
	h5.2v-1.5h-6.8v6.7H10.4z M6,36V12h36v24H6z M7.5,34.5h32.9v-21H7.5V34.5z M7.5,34.5v-21V34.5z"/>
</svg>
