<?xml version="1.0" encoding="utf-8"?>
<!-- Generator: Adobe Illustrator 26.3.1, SVG Export Plug-In . SVG Version: 6.00 Build 0)  -->
<svg version="1.1" id="Слой_1" xmlns="http://www.w3.org/2000/svg" xmlns:xlink="http://www.w3.org/1999/xlink" x="0px" y="0px"
	 viewBox="0 0 48 48" style="enable-background:new 0 0 48 48;" xml:space="preserve">
<path d="M7.8,24.8c-0.5,0-0.9-0.2-1.3-0.5S6,23.5,6,23s0.2-0.9,0.5-1.3c0.3-0.3,0.8-0.5,1.3-0.5h12.5c0.5,0,0.9,0.2,1.3,0.5
	c0.3,0.3,0.5,0.8,0.5,1.3s-0.2,0.9-0.5,1.3c-0.3,0.3-0.8,0.5-1.3,0.5H7.8z M27.7,24.8c-0.5,0-0.9-0.2-1.3-0.5
	C26.1,23.9,26,23.5,26,23s0.2-0.9,0.5-1.3c0.3-0.3,0.8-0.5,1.3-0.5h12.5c0.5,0,0.9,0.2,1.3,0.5c0.3,0.3,0.5,0.8,0.5,1.3
	s-0.2,0.9-0.5,1.3c-0.3,0.3-0.8,0.5-1.3,0.5H27.7z"/>
</svg>
