<?xml version="1.0" encoding="utf-8"?>
<!-- Generator: Adobe Illustrator 26.3.1, SVG Export Plug-In . SVG Version: 6.00 Build 0)  -->
<svg version="1.1" id="Слой_1" xmlns="http://www.w3.org/2000/svg" xmlns:xlink="http://www.w3.org/1999/xlink" x="0px" y="0px"
	 viewBox="0 0 48 48" style="enable-background:new 0 0 48 48;" xml:space="preserve">
<path d="M9.5,7.5v14v-0.2v19.1V7.5v7.7V7.5z M15,26.5h7c0.2-0.3,0.4-0.6,0.7-0.8c0.2-0.3,0.5-0.5,0.7-0.7H15V26.5z M15,34.8h5
	c0-0.2-0.1-0.5-0.1-0.8s0-0.5,0-0.8H15V34.8z M10.8,42c-0.8,0-1.4-0.3-2-0.8C8.3,40.7,8,40,8,39.2V8.8c0-0.8,0.3-1.4,0.8-2
	C9.3,6.3,10,6,10.8,6h16.7l8.5,8.5V22c-0.2-0.1-0.5-0.2-0.7-0.3c-0.3-0.1-0.5-0.2-0.8-0.2v-6.3h-7.8V7.5H10.8
	c-0.3,0-0.6,0.1-0.8,0.4C9.7,8.2,9.5,8.5,9.5,8.8v30.5c0,0.3,0.1,0.6,0.4,0.8s0.5,0.4,0.8,0.4H22c0.2,0.3,0.4,0.6,0.6,0.8
	c0.2,0.3,0.5,0.5,0.7,0.7C23.4,42,10.8,42,10.8,42z M32.1,25.6c2.2,0,4,0.8,5.6,2.3c1.5,1.5,2.3,3.4,2.3,5.6s-0.8,4-2.3,5.6
	c-1.5,1.5-3.4,2.3-5.6,2.3s-4-0.8-5.6-2.3c-1.5-1.5-2.3-3.4-2.3-5.6c0-2.2,0.8-4,2.3-5.6C28,26.4,29.9,25.6,32.1,25.6z M32.1,39.3
	c0.3,0,0.6-0.1,0.8-0.3s0.3-0.5,0.3-0.8s-0.1-0.6-0.3-0.8s-0.5-0.3-0.8-0.3s-0.6,0.1-0.8,0.3c-0.2,0.2-0.3,0.5-0.3,0.8
	s0.1,0.6,0.3,0.8C31.5,39.2,31.8,39.3,32.1,39.3z M31.3,35.6h1.6v-0.4c0-0.4,0.1-0.8,0.3-1c0.2-0.3,0.5-0.5,0.7-0.8
	c0.5-0.4,0.9-0.8,1.2-1.3c0.3-0.4,0.4-1,0.4-1.6c0-1-0.3-1.7-0.9-2.4c-0.6-0.6-1.5-0.9-2.5-0.9c-0.8,0-1.5,0.2-2.1,0.7
	c-0.7,0.5-1.1,1.1-1.4,1.9l1.5,0.5c0.1-0.4,0.4-0.8,0.7-1.1c0.4-0.3,0.8-0.5,1.3-0.5c0.6,0,1,0.2,1.3,0.5s0.5,0.7,0.5,1.3
	c0,0.4-0.1,0.7-0.4,1c-0.3,0.3-0.5,0.6-0.8,0.8c-0.2,0.2-0.4,0.4-0.6,0.7c-0.2,0.2-0.4,0.5-0.6,0.7c-0.1,0.2-0.2,0.3-0.2,0.6
	c0,0.2-0.1,0.4-0.1,0.7C31.3,35,31.3,35.6,31.3,35.6z"/>
</svg>
