<?xml version="1.0" encoding="utf-8"?>
<!-- Generator: Adobe Illustrator 26.3.1, SVG Export Plug-In . SVG Version: 6.00 Build 0)  -->
<svg version="1.1" id="Слой_1" xmlns="http://www.w3.org/2000/svg" xmlns:xlink="http://www.w3.org/1999/xlink" x="0px" y="0px"
	 viewBox="0 0 48 48" style="enable-background:new 0 0 48 48;" xml:space="preserve">
<path d="M34.6,29.2l-1.1-1.1c1-1.2,1.7-2.4,2.2-3.8s0.8-2.8,0.8-4.3c0-3.5-1.2-6.4-3.6-8.8s-5.4-3.6-8.8-3.6c-1.5,0-2.9,0.3-4.3,0.8
	s-2.7,1.3-3.8,2.2l-1.1-1.1c1.3-1.1,2.7-2,4.3-2.6C20.6,6.3,22.3,6,24,6c3.9,0,7.2,1.3,9.9,4S38,16,38,20c0,1.8-0.3,3.5-0.9,5.1
	C36.4,26.7,35.6,28.1,34.6,29.2z M27.2,21.9l-5.1-5.1c0.3-0.2,0.6-0.3,0.9-0.4s0.7-0.2,1-0.2c1.1,0,2,0.4,2.7,1.1
	c0.7,0.8,1.1,1.6,1.1,2.6c0,0.4-0.1,0.7-0.2,1.1S27.4,21.7,27.2,21.9z M14.1,42.9V29.8c-1.4-1.4-2.5-2.9-3.1-4.6s-1-3.4-1-5.2
	c0-1.3,0.1-2.5,0.4-3.6c0.3-1.1,0.7-2.1,1.1-2.9L4.2,6.2L5.3,5l38.1,38.1l-1.1,1.1l-8.4-8.4v7.1l-9.9-3C24,39.9,14.1,42.9,14.1,42.9
	z M24,32.5c1.1,0,2.1-0.1,3-0.4c1-0.2,1.8-0.5,2.4-0.8L12.7,14.6c-0.3,0.6-0.6,1.5-0.9,2.5s-0.3,2-0.3,2.9c0,3.5,1.2,6.4,3.6,8.8
	C17.6,31.2,20.5,32.5,24,32.5z M15.6,40.8l8.4-2.4l8.4,2.4v-6.5l-1.9-1.8c-0.9,0.5-2,0.9-3.2,1.2C26.2,33.9,25.1,34,24,34
	c-1.4,0-2.9-0.2-4.4-0.7s-2.8-1.2-4-2.2V40.8z"/>
</svg>
