<?xml version="1.0" encoding="utf-8"?>
<!-- Generator: Adobe Illustrator 26.3.1, SVG Export Plug-In . SVG Version: 6.00 Build 0)  -->
<svg version="1.1" id="Слой_1" xmlns="http://www.w3.org/2000/svg" xmlns:xlink="http://www.w3.org/1999/xlink" x="0px" y="0px"
	 viewBox="0 0 48 48" style="enable-background:new 0 0 48 48;" xml:space="preserve">
<path d="M24,23.7L7.5,12.9v22.3c0,0.4,0.1,0.7,0.3,0.9c0.2,0.2,0.5,0.3,0.9,0.3H27c0,0.3,0,0.5,0,0.8s0.1,0.5,0.1,0.8H8.8
	c-0.8,0-1.4-0.3-2-0.8C6.3,36.7,6,36,6,35.2V12.8c0-0.8,0.3-1.4,0.8-2C7.3,10.3,8,10,8.8,10h30.5c0.8,0,1.4,0.3,2,0.8
	c0.5,0.5,0.8,1.2,0.8,2v12.9c-0.1-0.1-0.4-0.1-0.7-0.2s-0.6-0.2-0.9-0.2V12.9L24,23.7z M24,21.8l15.8-10.3H8.2
	C8.2,11.5,24,21.8,24,21.8z M38.3,44c-2.1,0-3.9-0.7-5.4-2.2s-2.3-3.3-2.3-5.5c0-2.1,0.8-4,2.3-5.5s3.3-2.2,5.4-2.2
	c2.1,0,3.9,0.7,5.4,2.2s2.3,3.3,2.3,5.5c0,2.1-0.8,4-2.3,5.5S40.4,44,38.3,44z M33.8,37h9.1v-1.5h-9.1C33.8,35.5,33.8,37,33.8,37z
	 M7.5,36.5v-8.8v0.1V11.5V36.5z"/>
</svg>
