<?xml version="1.0" encoding="utf-8"?>
<!-- Generator: Adobe Illustrator 26.3.1, SVG Export Plug-In . SVG Version: 6.00 Build 0)  -->
<svg version="1.1" id="Слой_1" xmlns="http://www.w3.org/2000/svg" xmlns:xlink="http://www.w3.org/1999/xlink" x="0px" y="0px"
	 viewBox="0 0 48 48" style="enable-background:new 0 0 48 48;" xml:space="preserve">
<path d="M8.8,40c-0.8,0-1.4-0.3-2-0.8C6.3,38.7,6,38,6,37.2v-7.9c0-0.7,0.3-1.4,0.8-1.9s1.2-0.8,2-0.8h7.5c0.4,1.8,1.4,3.3,2.8,4.5
	s3.1,1.7,5,1.7s3.6-0.6,5-1.7c1.4-1.2,2.3-2.6,2.7-4.5h7.5c0.8,0,1.4,0.3,2,0.8c0.5,0.5,0.8,1.2,0.8,1.9v7.9c0,0.8-0.3,1.4-0.8,2
	c-0.5,0.5-1.2,0.8-2,0.8H8.8z M8.8,38.5h30.5c0.3,0,0.6-0.1,0.8-0.4c0.3-0.3,0.4-0.5,0.4-0.8v-7.9c0-0.3-0.1-0.6-0.4-0.8
	c-0.3-0.3-0.5-0.4-0.8-0.4H33c-0.8,1.9-1.9,3.4-3.5,4.5c-1.6,1.1-3.4,1.7-5.5,1.7s-3.9-0.6-5.5-1.7c-1.6-1.1-2.8-2.6-3.5-4.5H8.8
	c-0.3,0-0.6,0.1-0.8,0.4c-0.3,0.3-0.4,0.5-0.4,0.8v7.9c0,0.3,0.1,0.6,0.4,0.8C8.2,38.3,8.5,38.5,8.8,38.5z M35,21.2l-1.1-1.1
	l5.6-5.6l1.1,1.1C40.6,15.7,35,21.2,35,21.2z M13,21.2l-5.6-5.6l1.2-1.1l5.5,5.6L13,21.2z M23.2,15.8V8.1h1.5v7.7H23.2z M8.8,38.5
	H7.5h32.9C40.5,38.5,8.8,38.5,8.8,38.5z"/>
</svg>
