<?xml version="1.0" encoding="utf-8"?>
<!-- Generator: Adobe Illustrator 26.3.1, SVG Export Plug-In . SVG Version: 6.00 Build 0)  -->
<svg version="1.1" id="Слой_1" xmlns="http://www.w3.org/2000/svg" xmlns:xlink="http://www.w3.org/1999/xlink" x="0px" y="0px"
	 viewBox="0 0 48 48" style="enable-background:new 0 0 48 48;" xml:space="preserve">
<path d="M40.2,42.4l-6-5.9c-1.4,1.1-2.9,2-4.7,2.6C27.8,39.7,26,40,24.1,40c-2.2,0-4.3-0.4-6.2-1.3c-1.9-0.8-3.6-2-5.1-3.4
	s-2.6-3.1-3.5-5.1c-0.8-2-1.3-4-1.3-6.3c0-1.9,0.3-3.7,1-5.4c0.6-1.7,1.5-3.2,2.6-4.6l-6-6.1l1.1-1.1l34.5,34.5
	C41.3,41.3,40.2,42.4,40.2,42.4z M24.1,38.5c1.7,0,3.3-0.3,4.8-0.8c1.5-0.6,2.9-1.3,4.2-2.3L12.7,14.9c-1,1.3-1.8,2.7-2.3,4.2
	s-0.8,3.1-0.8,4.8c0,4.1,1.4,7.5,4.2,10.3C16.6,37,20.1,38.5,24.1,38.5z M30,15.8v-1.5h4.8c-1.4-1.5-3-2.6-4.9-3.5
	c-1.8-0.9-3.8-1.3-5.8-1.3c-1.4,0-2.7,0.2-4,0.5c-1.3,0.4-2.5,0.9-3.6,1.5l-1.1-1.1c1.2-0.8,2.6-1.4,4-1.9C21,8.2,22.5,8,24.1,8
	c2.3,0,4.4,0.5,6.5,1.4c2,0.9,3.9,2.2,5.4,3.9V8.2h1.5v7.6C37.5,15.8,30,15.8,30,15.8z M24.8,19.9l-1.5-1.5V14h1.5V19.9z M37.5,32.6
	l-1.2-1.1c0.6-1,1.1-2,1.4-3c0.3-1.1,0.6-2.2,0.6-3.3H40c-0.1,1.4-0.3,2.7-0.7,4C38.8,30.3,38.3,31.5,37.5,32.6z"/>
</svg>
