<?xml version="1.0" encoding="utf-8"?>
<!-- Generator: Adobe Illustrator 26.3.1, SVG Export Plug-In . SVG Version: 6.00 Build 0)  -->
<svg version="1.1" id="Слой_1" xmlns="http://www.w3.org/2000/svg" xmlns:xlink="http://www.w3.org/1999/xlink" x="0px" y="0px"
	 viewBox="0 0 48 48" style="enable-background:new 0 0 48 48;" xml:space="preserve">
<path d="M24.1,40c-2.2,0-4.3-0.4-6.2-1.3c-1.9-0.8-3.6-2-5.1-3.4s-2.6-3.1-3.5-5.1c-0.8-2-1.3-4-1.3-6.3c0-2.2,0.4-4.3,1.3-6.2
	c0.8-1.9,2-3.6,3.5-5.1S16,10,17.9,9.2c1.9-0.8,4-1.2,6.2-1.2c2.3,0,4.4,0.5,6.5,1.4c2,0.9,3.9,2.2,5.4,3.9V8.2h1.5v7.6H30v-1.5h4.8
	c-1.4-1.5-3-2.6-4.9-3.5c-1.8-0.9-3.8-1.3-5.8-1.3c-4,0-7.5,1.4-10.3,4.2s-4.2,6.2-4.2,10.2c0,4.1,1.4,7.5,4.2,10.3
	s6.3,4.3,10.3,4.3c3.8,0,7.1-1.3,9.8-3.9s4.2-5.8,4.5-9.5H40c-0.3,4.2-1.9,7.8-4.9,10.6C32,38.6,28.3,40,24.1,40z M30.6,31.6
	l-7.4-7.3V13.9h1.5v9.7l6.9,6.8C31.7,30.5,30.6,31.6,30.6,31.6z"/>
</svg>
