<?xml version="1.0" encoding="utf-8"?>
<!-- Generator: Adobe Illustrator 26.3.1, SVG Export Plug-In . SVG Version: 6.00 Build 0)  -->
<svg version="1.1" id="Слой_1" xmlns="http://www.w3.org/2000/svg" xmlns:xlink="http://www.w3.org/1999/xlink" x="0px" y="0px"
	 viewBox="0 0 48 48" style="enable-background:new 0 0 48 48;" xml:space="preserve">
<path d="M23.2,31.3V13l-5,5l-1.1-1.1L24,10l6.9,6.9L29.8,18l-5-5v18.3H23.2z M12.8,38c-0.8,0-1.4-0.3-2-0.8c-0.5-0.5-0.8-1.2-0.8-2
	v-5.4h1.5v5.4c0,0.3,0.1,0.6,0.4,0.8s0.5,0.4,0.8,0.4h22.5c0.3,0,0.6-0.1,0.8-0.4c0.3-0.3,0.4-0.5,0.4-0.8v-5.4H38v5.4
	c0,0.8-0.3,1.4-0.8,2c-0.5,0.5-1.2,0.8-2,0.8H12.8z"/>
</svg>
