<?xml version="1.0" encoding="utf-8"?>
<!-- Generator: Adobe Illustrator 26.3.1, SVG Export Plug-In . SVG Version: 6.00 Build 0)  -->
<svg version="1.1" id="Слой_1" xmlns="http://www.w3.org/2000/svg" xmlns:xlink="http://www.w3.org/1999/xlink" x="0px" y="0px"
	 viewBox="0 0 48 48" style="enable-background:new 0 0 48 48;" xml:space="preserve">
<path d="M19.8,43v-4.2h-0.4c-0.7,0.1-1.3-0.1-1.9-0.6c-0.6-0.4-0.9-1-1-1.7L16.2,34c-0.1-0.9,0.1-1.6,0.6-2.3c0.5-0.6,1.3-1,2.1-1
	h0.9v-4c-0.4,0.4-0.9,0.7-1.5,0.9c-0.5,0.2-1.1,0.3-1.7,0.3c-2.9,0-5.3-1.1-7.3-3.2s-2.9-4.6-2.9-7.6v-2c0-3,1-5.5,2.9-7.6
	c2-2.1,4.4-3.2,7.3-3.2c1.3,0,2.4,0.5,3.4,1.4c0.9,0.9,1.4,2.1,1.4,3.4s-0.5,2.4-1.4,3.4c-0.9,0.9-2.1,1.4-3.4,1.4h-2.8v-1.5h2.8
	c0.9,0,1.7-0.3,2.3-0.9c0.6-0.6,0.9-1.4,0.9-2.3c0-0.9-0.3-1.7-0.9-2.3C18.3,6.3,17.5,6,16.6,6c-2.5,0-4.6,0.9-6.2,2.7
	s-2.5,4-2.5,6.5v2c0,2.5,0.8,4.7,2.5,6.5c1.6,1.8,3.7,2.7,6.2,2.7c0.9,0,1.7-0.3,2.3-0.9c0.6-0.6,0.9-1.4,0.9-2.3s-0.3-1.7-0.9-2.3
	c-0.6-0.6-1.4-0.9-2.3-0.9h-2.8v-1.5h2.8c1.3,0,2.4,0.5,3.4,1.4c0.9,0.9,1.4,2.1,1.4,3.4v7.5h5.2v-7.5c0-1.3,0.5-2.4,1.4-3.4
	c0.9-0.9,2.1-1.4,3.4-1.4h2.8V20h-2.8c-0.9,0-1.7,0.3-2.3,0.9c-0.6,0.6-0.9,1.4-0.9,2.3s0.3,1.7,0.9,2.3c0.6,0.6,1.4,0.9,2.3,0.9
	c2.5,0,4.6-0.9,6.2-2.7c1.6-1.8,2.5-4,2.5-6.5v-2c0-2.5-0.8-4.7-2.5-6.5C36,6.9,33.9,6,31.4,6c-0.9,0-1.7,0.3-2.3,0.9
	c-0.6,0.6-0.9,1.4-0.9,2.3s0.3,1.7,0.9,2.3s1.4,0.9,2.3,0.9h2.8V14h-2.8c-1.3,0-2.4-0.5-3.4-1.4c-0.9-0.9-1.4-2.1-1.4-3.4
	s0.5-2.4,1.4-3.4c0.9-0.9,2.1-1.4,3.4-1.4c2.9,0,5.3,1.1,7.3,3.2s2.9,4.6,2.9,7.6v2c0,3-1,5.5-2.9,7.6c-2,2.1-4.4,3.2-7.3,3.2
	c-0.6,0-1.2-0.1-1.7-0.3c-0.5-0.2-1-0.5-1.5-0.9v4h0.9c0.9,0,1.6,0.3,2.1,1c0.5,0.6,0.7,1.4,0.6,2.3l-0.4,2.5
	c-0.1,0.7-0.4,1.3-1,1.7c-0.5,0.4-1.2,0.6-1.9,0.6h-0.4V43h-1.5v-4.2h-5.2V43C21.4,43,19.8,43,19.8,43z M17.7,33.7l0.4,2.5
	c0.1,0.3,0.2,0.5,0.4,0.7c0.2,0.2,0.5,0.3,0.8,0.3h9.4c0.3,0,0.6-0.1,0.8-0.3c0.2-0.2,0.4-0.4,0.4-0.7l0.4-2.5c0.1-0.4,0-0.7-0.3-1
	s-0.6-0.4-0.9-0.4H18.9c-0.4,0-0.7,0.1-0.9,0.4C17.7,33,17.6,33.4,17.7,33.7z M17.7,33.7c-0.1-0.4-0.1-0.7-0.2-1l-0.1-0.4l0.1,0.4
	C17.6,33,17.6,33.4,17.7,33.7l0.4,2.5c0.1,0.3,0.1,0.5,0.1,0.7v0.3v-0.3c0-0.2-0.1-0.4-0.1-0.7L17.7,33.7z"/>
</svg>
