<?xml version="1.0" encoding="utf-8"?>
<!-- Generator: Adobe Illustrator 26.3.1, SVG Export Plug-In . SVG Version: 6.00 Build 0)  -->
<svg version="1.1" id="Слой_1" xmlns="http://www.w3.org/2000/svg" xmlns:xlink="http://www.w3.org/1999/xlink" x="0px" y="0px"
	 viewBox="0 0 48 48" style="enable-background:new 0 0 48 48;" xml:space="preserve">
<path d="M40,43.1L27.5,30.7h-2.8v5.9c0.6,0.2,1.1,0.6,1.5,1.1s0.6,1.1,0.6,1.7c0,0.8-0.3,1.5-0.8,2c-0.6,0.6-1.2,0.8-2,0.8
	s-1.5-0.3-2-0.8c-0.5-0.6-0.8-1.2-0.8-2c0-0.6,0.2-1.2,0.5-1.7c0.4-0.5,0.9-0.9,1.5-1.1v-5.9h-6.6c-0.8,0-1.4-0.3-2-0.8
	c-0.5-0.5-0.8-1.2-0.8-2v-4.6c-0.6-0.2-1.1-0.5-1.5-1s-0.6-1.1-0.6-1.7c0-0.8,0.3-1.4,0.8-2s1.2-0.9,1.9-0.9l-9-9.1l1.1-1.1L41,42
	L40,43.1z M33.6,29.6l-1-1v-5.2h-2v-5.6h5.6v5.6h-2.1v4.5c0,0.3-0.1,0.6-0.2,0.9C33.9,29.1,33.8,29.4,33.6,29.6z M16.6,29.2h6.6
	v-2.7l-5.7-5.8c-0.1,0.6-0.3,1.2-0.7,1.7c-0.4,0.5-0.9,0.8-1.5,1V28c0,0.4,0.1,0.7,0.3,0.9C15.9,29.1,16.2,29.2,16.6,29.2z
	 M24.8,20.8l-1.5-1.5v-7h-3l3.8-5l3.8,5h-3C24.8,12.2,24.8,20.8,24.8,20.8z"/>
</svg>
