<?xml version="1.0" encoding="utf-8"?>
<!-- Generator: Adobe Illustrator 26.3.1, SVG Export Plug-In . SVG Version: 6.00 Build 0)  -->
<svg version="1.1" id="Слой_1" xmlns="http://www.w3.org/2000/svg" xmlns:xlink="http://www.w3.org/1999/xlink" x="0px" y="0px"
	 viewBox="0 0 48 48" style="enable-background:new 0 0 48 48;" xml:space="preserve">
<path d="M15.4,37.2c-1.3-0.3-2.4-0.5-3.4-0.6c-0.9-0.1-1.9-0.1-2.9-0.1h-2V34h2.1c1,0,2,0,2.9-0.1c0.9-0.1,2-0.3,3.4-0.6v3.9H15.4z
	 M41.4,43.8l-6.6-6.6H17.1v-4h13.6L4.2,6.7l1.1-1.1l37.2,37.1L41.4,43.8z M40.7,36L38,33.2h3.7V36H40.7z M21,36.2
	c0.3,0,0.5-0.1,0.7-0.3s0.3-0.4,0.3-0.7s-0.1-0.5-0.3-0.7c-0.2-0.2-0.4-0.3-0.7-0.3c-0.3,0-0.5,0.1-0.7,0.3C20.1,34.7,20,35,20,35.2
	s0.1,0.5,0.3,0.7C20.5,36.1,20.7,36.2,21,36.2z M40.2,30.3v-4.7c0-2.3-0.8-4.1-2.4-5.5c-1.6-1.4-3.6-2.1-5.9-2.1v-1.5
	c1,0,1.9-0.4,2.6-1.1c0.7-0.7,1.1-1.6,1.1-2.7s-0.3-2-1-2.8S33,8.7,32,8.7V7.1c1.5,0,2.8,0.5,3.7,1.6c1,1.1,1.5,2.4,1.5,3.8
	c0,1-0.2,1.8-0.6,2.6c-0.4,0.7-0.9,1.3-1.6,1.7c1.9,0.5,3.5,1.5,4.8,3.1s2,3.5,2,5.7v4.7C41.7,30.3,40.2,30.3,40.2,30.3z M36.5,30.3
	v-2.7c0-1.3-0.4-2.3-1.2-3.1s-1.8-1.2-2.8-1.2h-3.3c-0.1,0-0.4,0-0.6,0c-0.3,0-0.5-0.1-0.6-0.2l-3.7-3.7c-0.1-0.3-0.2-0.6-0.2-0.9
	c0-0.4-0.1-0.6-0.1-0.8c0-1.5,0.5-2.8,1.6-3.7c1.1-1,2.3-1.4,3.7-1.4v1.5c-1.1,0-2,0.3-2.7,1s-1.1,1.6-1.1,2.6c0,1.1,0.4,2,1.1,2.9
	c0.7,0.8,1.6,1.2,2.7,1.2h3.3c1.6,0,2.9,0.6,4,1.7c1.1,1.2,1.6,2.5,1.6,4v2.8C38.1,30.3,36.5,30.3,36.5,30.3z"/>
</svg>
