<?xml version="1.0" encoding="utf-8"?>
<!-- Generator: Adobe Illustrator 26.3.1, SVG Export Plug-In . SVG Version: 6.00 Build 0)  -->
<svg version="1.1" id="Слой_1" xmlns="http://www.w3.org/2000/svg" xmlns:xlink="http://www.w3.org/1999/xlink" x="0px" y="0px"
	 viewBox="0 0 48 48" style="enable-background:new 0 0 48 48;" xml:space="preserve">
<path d="M26.4,15.7h7.2c0.4,0,0.7-0.1,0.9-0.3s0.3-0.5,0.3-0.9v-3.2c0-0.4-0.1-0.7-0.3-0.9C34.3,10.1,34,10,33.6,10h-7.2
	c-0.4,0-0.7,0.1-0.9,0.3c-0.2,0.2-0.3,0.5-0.3,0.9v3.2c0,0.4,0.1,0.7,0.3,0.9C25.7,15.6,26,15.7,26.4,15.7z M8.5,34.2
	c0.7,0,1.3-0.2,1.8-0.7s0.7-1.1,0.7-1.8s-0.2-1.3-0.7-1.8s-1.1-0.7-1.8-0.7s-1.3,0.2-1.8,0.7C6.2,30.4,6,31,6,31.7s0.2,1.3,0.7,1.8
	C7.2,33.9,7.8,34.2,8.5,34.2z M24,40.5c-2.6,0-5.1-0.5-7.4-1.4c-2.3-1-4.3-2.3-6.1-4c-0.3,0.2-0.6,0.3-1,0.4
	c-0.3,0.1-0.7,0.1-1.1,0.1c-1.1,0-2.1-0.4-2.8-1.2c-0.8-0.8-1.2-1.7-1.2-2.8c0-0.6,0.1-1.2,0.4-1.7s0.6-1,1-1.3
	c-0.4-0.9-0.7-1.8-0.9-2.8C4.7,25,4.5,24,4.3,23l1.5-0.2c0.1,0.9,0.3,1.8,0.5,2.6c0.2,0.9,0.5,1.7,0.9,2.5c0.2-0.1,0.4-0.1,0.6-0.2
	s0.4,0,0.6,0c1.1,0,2.1,0.4,2.8,1.2c0.8,0.8,1.2,1.7,1.2,2.8c0,0.5-0.1,0.9-0.2,1.3c-0.1,0.4-0.3,0.8-0.6,1.1
	c1.5,1.5,3.3,2.6,5.2,3.5c2,0.9,4.1,1.3,6.3,1.4V28.8c0-0.9-0.3-1.7-0.9-2.3c-0.6-0.6-1.4-0.9-2.3-0.9c-1.9,0-3.5-0.7-4.8-2
	s-2-2.9-2-4.8c0-1.9,0.7-3.5,2-4.8s2.9-2,4.8-2h3.6v-0.8c0-0.7,0.3-1.4,0.8-1.9s1.2-0.8,1.9-0.8h7.2c0.7,0,1.4,0.3,1.9,0.8
	s0.8,1.2,0.8,1.9V12h1.7c0.2,0,0.4,0.1,0.5,0.2c0.1,0.1,0.2,0.3,0.2,0.6c0,0.2-0.1,0.4-0.2,0.5c-0.1,0.1-0.3,0.2-0.5,0.2h-1.7v0.8
	c0,0.7-0.3,1.4-0.8,1.9S34.1,17,33.4,17h-7.2c-0.7,0-1.4-0.3-1.9-0.8s-0.8-1.2-0.8-1.9v-0.8H20c-1.5,0-2.7,0.5-3.7,1.5
	s-1.5,2.2-1.5,3.7s0.5,2.7,1.5,3.7s2.2,1.5,3.7,1.5c1.3,0,2.4,0.5,3.4,1.4c0.9,0.9,1.4,2.1,1.4,3.4V39c3.6-0.1,6.7-1.2,9.6-3.2
	c2.8-2,4.9-4.6,6.3-7.7l-2.3-1.2l0.7-1.4l2.3,1.1c0.2-0.6,0.4-1.3,0.5-1.9s0.3-1.3,0.4-2l1.6,0.2c-0.1,0.8-0.2,1.5-0.4,2.3
	c-0.2,0.7-0.4,1.5-0.7,2.2l2.2,1.1l-0.7,1.4l-2-1c-1.6,3.5-4,6.3-7.2,8.5C31.6,39.5,28,40.5,24,40.5z M25.2,15.7V10V15.7z"/>
</svg>
