<?xml version="1.0" encoding="utf-8"?>
<!-- Generator: Adobe Illustrator 26.3.1, SVG Export Plug-In . SVG Version: 6.00 Build 0)  -->
<svg version="1.1" id="Слой_1" xmlns="http://www.w3.org/2000/svg" xmlns:xlink="http://www.w3.org/1999/xlink" x="0px" y="0px"
	 viewBox="0 0 48 48" style="enable-background:new 0 0 48 48;" xml:space="preserve">
<path d="M24.8,38.5h-16c-0.8,0-1.4-0.3-2-0.8c-0.5-0.5-0.8-1.2-0.8-2V12.8c0-0.8,0.3-1.4,0.8-2C7.3,10.3,8,10,8.8,10h30.8
	c0.8,0,1.4,0.3,2,0.8c0.5,0.5,0.8,1.2,0.8,2v9.8h-1.5v-9.8c0-0.4-0.1-0.7-0.3-0.9s-0.5-0.3-0.9-0.3H8.8c-0.4,0-0.7,0.1-0.9,0.3
	c-0.2,0.2-0.3,0.5-0.3,0.9v22.9c0,0.4,0.1,0.7,0.3,0.9s0.5,0.3,0.9,0.3h16V38.5z M20.4,31.2v-14l10.7,7
	C31.1,24.2,20.4,31.2,20.4,31.2z M36.1,41.6L36,40.2c-0.9-0.2-1.6-0.5-2.3-0.9s-1.2-0.9-1.7-1.4l-1.3,0.7l-1-1.4l1.2-0.9
	c-0.3-0.9-0.5-1.7-0.5-2.4s0.2-1.6,0.5-2.4l-1.2-0.9l1-1.4L32,30c0.5-0.5,1-1,1.7-1.4s1.4-0.7,2.3-0.9l0.1-1.4h1.5l0.1,1.4
	c0.9,0.2,1.6,0.5,2.3,0.9s1.2,0.9,1.7,1.4l1.3-0.7l1,1.4l-1.2,0.9c0.3,0.9,0.5,1.7,0.5,2.4s-0.2,1.6-0.5,2.5l1.2,0.9l-1,1.4
	l-1.3-0.7c-0.5,0.5-1,1-1.7,1.4s-1.4,0.7-2.3,0.9l-0.1,1.4C37.6,41.6,36.1,41.6,36.1,41.6z M36.8,38.7c1.3,0,2.5-0.5,3.4-1.4
	s1.4-2.1,1.4-3.4c0-1.3-0.5-2.5-1.4-3.4s-2.1-1.4-3.4-1.4c-1.4,0-2.5,0.5-3.4,1.4S32,32.6,32,33.9s0.5,2.5,1.4,3.4
	C34.3,38.2,35.5,38.7,36.8,38.7z"/>
</svg>
