<?xml version="1.0" encoding="utf-8"?>
<!-- Generator: Adobe Illustrator 26.3.1, SVG Export Plug-In . SVG Version: 6.00 Build 0)  -->
<svg version="1.1" id="Слой_1" xmlns="http://www.w3.org/2000/svg" xmlns:xlink="http://www.w3.org/1999/xlink" x="0px" y="0px"
	 viewBox="0 0 48 48" style="enable-background:new 0 0 48 48;" xml:space="preserve">
<path d="M41.2,31.2l-6.1-6.1v5.3l-1.5-1.5V12.8c0-0.4-0.1-0.7-0.3-0.9s-0.5-0.3-0.9-0.3H16.2L14.7,10h17.6c0.8,0,1.4,0.3,2,0.8
	c0.5,0.5,0.8,1.2,0.8,2v10.1l6.1-6.1C41.2,16.8,41.2,31.2,41.2,31.2z M39.4,41.9L5.1,7.7l1.1-1.1l34.3,34.3L39.4,41.9z M9.8,10.1
	l1.5,1.5H9.8c-0.4,0-0.7,0.1-0.9,0.3s-0.3,0.5-0.3,0.9v22.5c0,0.4,0.1,0.7,0.3,0.9s0.5,0.3,0.9,0.3h22.5c0.4,0,0.7-0.1,0.9-0.3
	s0.3-0.5,0.3-0.9v-1.4l1.5,1.5v0.5c-0.1,0.6-0.4,1.1-0.9,1.6C33.6,37.8,33,38,32.3,38H9.8c-0.8,0-1.4-0.3-2-0.8
	C7.3,36.7,7,36,7,35.2V12.8c0-0.7,0.2-1.2,0.6-1.7s1-0.8,1.6-0.9C9.3,10.1,9.8,10.1,9.8,10.1z"/>
</svg>
