<?xml version="1.0" encoding="utf-8"?>
<!-- Generator: Adobe Illustrator 26.3.1, SVG Export Plug-In . SVG Version: 6.00 Build 0)  -->
<svg version="1.1" id="Слой_1" xmlns="http://www.w3.org/2000/svg" xmlns:xlink="http://www.w3.org/1999/xlink" x="0px" y="0px"
	 viewBox="0 0 48 48" style="enable-background:new 0 0 48 48;" xml:space="preserve">
<path d="M32.2,38h-8.8c0.2-0.2,0.3-0.5,0.4-0.7c0.1-0.3,0.2-0.5,0.3-0.8h8c0.4,0,0.7-0.1,0.9-0.3s0.3-0.5,0.3-0.9V12.8
	c0-0.4-0.1-0.7-0.3-0.9s-0.5-0.3-0.9-0.3H9.7c-0.4,0-0.7,0.1-0.9,0.3s-0.3,0.5-0.3,0.9v7.5c-0.3,0.1-0.6,0.2-0.8,0.3
	C7.4,20.8,7.2,20.9,7,21v-8.2c0-0.8,0.3-1.4,0.8-2C8.3,10.3,9,10,9.7,10h22.5c0.8,0,1.4,0.3,2,0.8c0.5,0.5,0.8,1.2,0.8,2v10.1
	l6.1-6.1v14.4L35,25.1v10.1c0,0.8-0.3,1.4-0.8,2C33.6,37.7,33,38,32.2,38z M12.1,40c-2.2,0-4-0.8-5.5-2.3s-2.3-3.3-2.3-5.5
	s0.8-4,2.3-5.5s3.3-2.3,5.5-2.3c2.1,0,4,0.8,5.5,2.3s2.3,3.3,2.3,5.5s-0.8,4-2.3,5.5C16,39.2,14.2,40,12.1,40z M12,36.9
	c0.3,0,0.5-0.1,0.7-0.3s0.3-0.4,0.3-0.7s-0.1-0.5-0.3-0.7S12.3,35,12.1,35c-0.3,0-0.5,0.1-0.7,0.3s-0.3,0.4-0.3,0.7s0.1,0.5,0.3,0.7
	C11.5,36.8,11.8,36.9,12,36.9z M11.3,33.1h1.4v-5.6h-1.4V33.1z"/>
</svg>
