<?xml version="1.0" encoding="utf-8"?>
<!-- Generator: Adobe Illustrator 26.3.1, SVG Export Plug-In . SVG Version: 6.00 Build 0)  -->
<svg version="1.1" id="Слой_1" xmlns="http://www.w3.org/2000/svg" xmlns:xlink="http://www.w3.org/1999/xlink" x="0px" y="0px"
	 viewBox="0 0 48 48" style="enable-background:new 0 0 48 48;" xml:space="preserve">
<path d="M9.7,38c-0.8,0-1.4-0.3-2-0.8C7.2,36.7,7,36,7,35.2v-11h1.5v11.1c0,0.4,0.1,0.7,0.3,0.9s0.5,0.3,0.9,0.3h22.5
	c0.4,0,0.7-0.1,0.9-0.3s0.3-0.5,0.3-0.9V12.8c0-0.4-0.1-0.7-0.3-0.9s-0.5-0.3-0.9-0.3h-11V10h11c0.8,0,1.4,0.3,2,0.8
	c0.5,0.5,0.8,1.2,0.8,2v10.1l6.1-6.1v14.4L35,25.1v10.1c0,0.8-0.3,1.4-0.8,2c-0.5,0.5-1.2,0.8-2,0.8H9.7z M12.4,31.2h17.4L24.4,24
	l-5.1,6.4l-3.3-4L12.4,31.2z M11.1,19.9v-4.2H7v-1.5h4.2V10h1.5v4.2h4.2v1.5h-4.2v4.2H11.1z"/>
</svg>
