<?xml version="1.0" encoding="utf-8"?>
<!-- Generator: Adobe Illustrator 26.3.1, SVG Export Plug-In . SVG Version: 6.00 Build 0)  -->
<svg version="1.1" id="Слой_1" xmlns="http://www.w3.org/2000/svg" xmlns:xlink="http://www.w3.org/1999/xlink" x="0px" y="0px"
	 viewBox="0 0 48 48" style="enable-background:new 0 0 48 48;" xml:space="preserve">
<path d="M29.9,23.2h8.6v-8.5c0-0.4-0.1-0.7-0.3-0.9s-0.5-0.3-0.9-0.3H30C29.9,13.5,29.9,23.2,29.9,23.2z M19.7,23.2h8.6v-9.7h-8.6
	C19.7,13.5,19.7,23.2,19.7,23.2z M9.6,23.2h8.6v-9.7h-7.3c-0.3,0-0.6,0.1-0.9,0.3c-0.2,0.2-0.4,0.5-0.4,0.9
	C9.6,14.8,9.6,23.2,9.6,23.2z M10.9,34.5h7.3v-9.7H9.6v8.5c0,0.4,0.1,0.7,0.4,0.9C10.2,34.3,10.5,34.5,10.9,34.5z M19.7,34.5h8.6
	v-9.7h-8.6V34.5z M29.9,34.5h7.3c0.4,0,0.7-0.1,0.9-0.3s0.3-0.5,0.3-0.9v-8.5h-8.6C29.9,24.8,29.9,34.5,29.9,34.5z M8.1,33.2V14.8
	c0-0.7,0.3-1.4,0.8-1.9c0.6-0.6,1.2-0.8,1.9-0.8h26.3c0.7,0,1.4,0.3,1.9,0.8c0.6,0.6,0.8,1.2,0.8,1.9v18.5c0,0.7-0.3,1.4-0.8,1.9
	c-0.6,0.6-1.2,0.8-1.9,0.8H10.9c-0.7,0-1.4-0.3-1.9-0.8C8.4,34.6,8.1,34,8.1,33.2z"/>
</svg>
