<?xml version="1.0" encoding="utf-8"?>
<!-- Generator: Adobe Illustrator 26.3.1, SVG Export Plug-In . SVG Version: 6.00 Build 0)  -->
<svg version="1.1" id="Слой_1" xmlns="http://www.w3.org/2000/svg" xmlns:xlink="http://www.w3.org/1999/xlink" x="0px" y="0px"
	 viewBox="0 0 48 48" style="enable-background:new 0 0 48 48;" xml:space="preserve">
<path d="M8,33.2V14.8c0-0.7,0.3-1.4,0.9-1.9c0.6-0.6,1.3-0.8,2.1-0.8h26.2c0.8,0,1.5,0.3,2.1,0.8c0.6,0.6,0.9,1.2,0.9,1.9v18.5
	c0,0.7-0.3,1.4-0.9,1.9C38.7,35.8,38,36,37.2,36H10.9c-0.8,0-1.5-0.3-2.1-0.8C8.3,34.6,8,34,8,33.2z M19.3,23.2h19.1v-8.5
	c0-0.3-0.1-0.6-0.4-0.8c-0.3-0.3-0.6-0.4-1-0.4H19.3C19.3,13.5,19.3,23.2,19.3,23.2z M29.8,34.5h7.3c0.4,0,0.7-0.1,1-0.4
	c0.3-0.3,0.4-0.5,0.4-0.8v-8.5h-8.7V34.5z M19.3,34.5H28v-9.7h-8.7V34.5z M10.9,34.5h6.9v-21h-6.9c-0.4,0-0.7,0.1-1,0.4
	c-0.3,0.3-0.4,0.5-0.4,0.8v18.5c0,0.3,0.1,0.6,0.4,0.8C10.2,34.3,10.6,34.5,10.9,34.5z"/>
</svg>
