<?xml version="1.0" encoding="utf-8"?>
<!-- Generator: Adobe Illustrator 26.3.1, SVG Export Plug-In . SVG Version: 6.00 Build 0)  -->
<svg version="1.1" id="Слой_1" xmlns="http://www.w3.org/2000/svg" xmlns:xlink="http://www.w3.org/1999/xlink" x="0px" y="0px"
	 viewBox="0 0 48 48" style="enable-background:new 0 0 48 48;" xml:space="preserve">
<path d="M22.5,38.5l-10.2-6c-0.4-0.3-0.7-0.6-0.9-1s-0.3-0.9-0.4-1.4v-12c0-0.5,0.1-0.9,0.4-1.3c0.2-0.4,0.5-0.8,0.9-1.1l10.3-6
	c0.5-0.3,0.9-0.4,1.4-0.4s0.9,0.1,1.4,0.4l10.3,6c0.4,0.3,0.7,0.7,1,1.1c0.2,0.4,0.4,0.9,0.4,1.3v12c0,0.5-0.1,1-0.3,1.4
	s-0.6,0.7-1,1l-10.4,6c-0.4,0.3-0.9,0.4-1.4,0.4S23,38.8,22.5,38.5z M23.2,37.1V24.5l-10.7-6.1v11.7c0,0.2,0,0.4,0.1,0.6
	s0.2,0.3,0.4,0.5L23.2,37.1z M24.8,37.1l10.1-6c0.2-0.1,0.3-0.3,0.5-0.5c0.1-0.2,0.2-0.4,0.2-0.6V18.5l-10.7,6.1v12.5H24.8z M4,11.8
	V8.6c0-1.3,0.5-2.4,1.3-3.2S7.3,4,8.6,4h3.1v1.6H8.6C7.7,5.6,7,5.8,6.4,6.4S5.6,7.7,5.6,8.6v3.1L4,11.8L4,11.8z M8.6,44
	c-1.3,0-2.4-0.5-3.2-1.3S4,40.7,4,39.4v-3.2h1.6v3.2c0,0.9,0.3,1.6,0.9,2.2c0.6,0.6,1.3,0.9,2.2,0.9h3.1V44H8.6z M36.2,43.5V42h3.2
	c0.9,0,1.6-0.3,2.2-0.9c0.6-0.6,0.9-1.3,0.9-2.2v-3.2H44v3.2c0,1.3-0.5,2.4-1.3,3.3c-0.9,0.9-2,1.3-3.2,1.3
	C39.5,43.5,36.2,43.5,36.2,43.5z M42.5,11.8V8.6c0-0.9-0.3-1.6-0.9-2.2c-0.6-0.6-1.3-0.9-2.2-0.9h-3.2V4h3.2c1.3,0,2.4,0.5,3.2,1.3
	s1.3,2,1.3,3.3v3.1L42.5,11.8L42.5,11.8z M24,23.2l10.7-6.1l-10.1-5.9c-0.2-0.1-0.4-0.2-0.6-0.1c-0.2,0-0.4,0.1-0.6,0.1l-10.1,5.9
	L24,23.2z"/>
</svg>
