<?xml version="1.0" encoding="utf-8"?>
<!-- Generator: Adobe Illustrator 26.3.1, SVG Export Plug-In . SVG Version: 6.00 Build 0)  -->
<svg version="1.1" id="Слой_1" xmlns="http://www.w3.org/2000/svg" xmlns:xlink="http://www.w3.org/1999/xlink" x="0px" y="0px"
	 viewBox="0 0 48 48" style="enable-background:new 0 0 48 48;" xml:space="preserve">
<path d="M8,33.2V14.8c0-0.7,0.3-1.4,0.8-1.9c0.5-0.6,1.2-0.8,2-0.8h26.5c0.7,0,1.4,0.3,1.9,0.8c0.6,0.6,0.8,1.2,0.8,1.9v18.5
	c0,0.7-0.3,1.4-0.8,1.9c-0.6,0.5-1.2,0.8-2,0.8H10.8c-0.8,0-1.4-0.3-2-0.8C8.3,34.6,8,34,8,33.2z M10.8,34.5h7.4v-21h-7.4
	c-0.3,0-0.6,0.1-0.8,0.4c-0.3,0.3-0.4,0.5-0.4,0.8v18.5c0,0.3,0.1,0.6,0.4,0.8S10.5,34.5,10.8,34.5z M19.7,34.5h8.6v-21h-8.6V34.5z
	 M29.8,34.5h7.4c0.3,0,0.6-0.1,0.8-0.4c0.3-0.3,0.4-0.5,0.4-0.8V14.8c0-0.3-0.1-0.6-0.4-0.8c-0.3-0.3-0.5-0.4-0.8-0.4h-7.4
	C29.8,13.5,29.8,34.5,29.8,34.5z"/>
</svg>
