<?xml version="1.0" encoding="utf-8"?>
<!-- Generator: Adobe Illustrator 26.3.1, SVG Export Plug-In . SVG Version: 6.00 Build 0)  -->
<svg version="1.1" id="Слой_1" xmlns="http://www.w3.org/2000/svg" xmlns:xlink="http://www.w3.org/1999/xlink" x="0px" y="0px"
	 viewBox="0 0 48 48" style="enable-background:new 0 0 48 48;" xml:space="preserve">
<path d="M18.2,21h-7.5c-0.8,0-1.4-0.3-2-0.8C8.3,19.7,8,19,8,18.2v-7.5c0-0.8,0.3-1.4,0.8-2C9.3,8.3,10,8,10.8,8h7.5
	c0.8,0,1.4,0.3,2,0.8c0.5,0.5,0.8,1.2,0.8,2v7.5c0,0.8-0.3,1.4-0.8,2C19.7,20.7,19,21,18.2,21z M10.8,19.5h7.5
	c0.4,0,0.7-0.1,0.9-0.3c0.2-0.2,0.3-0.5,0.3-0.9v-7.5c0-0.4-0.1-0.7-0.3-0.9c-0.2-0.2-0.5-0.3-0.9-0.3h-7.5c-0.4,0-0.7,0.1-0.9,0.3
	s-0.3,0.5-0.3,0.9v7.5c0,0.4,0.1,0.7,0.3,0.9C10.1,19.3,10.4,19.5,10.8,19.5z M18.2,40h-7.5c-0.8,0-1.4-0.3-2-0.8
	C8.3,38.7,8,38,8,37.2v-7.5c0-0.8,0.3-1.4,0.8-2c0.5-0.5,1.2-0.8,2-0.8h7.5c0.8,0,1.4,0.3,2,0.8c0.5,0.5,0.8,1.2,0.8,2v7.5
	c0,0.8-0.3,1.4-0.8,2C19.7,39.7,19,40,18.2,40z M10.8,38.5h7.5c0.4,0,0.7-0.1,0.9-0.3c0.2-0.2,0.3-0.5,0.3-0.9v-7.5
	c0-0.4-0.1-0.7-0.3-0.9c-0.2-0.2-0.5-0.3-0.9-0.3h-7.5c-0.4,0-0.7,0.1-0.9,0.3c-0.2,0.2-0.3,0.5-0.3,0.9v7.5c0,0.4,0.1,0.7,0.3,0.9
	C10.1,38.3,10.4,38.5,10.8,38.5z M37.2,21h-7.5c-0.8,0-1.4-0.3-2-0.8c-0.5-0.5-0.8-1.2-0.8-2v-7.5c0-0.8,0.3-1.4,0.8-2
	C28.3,8.3,29,8,29.8,8h7.5c0.8,0,1.4,0.3,2,0.8c0.5,0.5,0.8,1.2,0.8,2v7.5c0,0.8-0.3,1.4-0.8,2C38.7,20.7,38,21,37.2,21z M29.8,19.5
	h7.5c0.4,0,0.7-0.1,0.9-0.3c0.2-0.2,0.3-0.5,0.3-0.9v-7.5c0-0.4-0.1-0.7-0.3-0.9s-0.5-0.3-0.9-0.3h-7.5c-0.4,0-0.7,0.1-0.9,0.3
	c-0.2,0.2-0.3,0.5-0.3,0.9v7.5c0,0.4,0.1,0.7,0.3,0.9C29.1,19.3,29.4,19.5,29.8,19.5z M37.2,40h-7.5c-0.8,0-1.4-0.3-2-0.8
	c-0.5-0.5-0.8-1.2-0.8-2v-7.5c0-0.8,0.3-1.4,0.8-2c0.5-0.5,1.2-0.8,2-0.8h7.5c0.8,0,1.4,0.3,2,0.8c0.5,0.5,0.8,1.2,0.8,2v7.5
	c0,0.8-0.3,1.4-0.8,2C38.7,39.7,38,40,37.2,40z M29.8,38.5h7.5c0.4,0,0.7-0.1,0.9-0.3s0.3-0.5,0.3-0.9v-7.5c0-0.4-0.1-0.7-0.3-0.9
	c-0.2-0.2-0.5-0.3-0.9-0.3h-7.5c-0.4,0-0.7,0.1-0.9,0.3c-0.2,0.2-0.3,0.5-0.3,0.9v7.5c0,0.4,0.1,0.7,0.3,0.9
	C29.1,38.3,29.4,38.5,29.8,38.5z"/>
</svg>
