<?xml version="1.0" encoding="utf-8"?>
<!-- Generator: Adobe Illustrator 26.3.1, SVG Export Plug-In . SVG Version: 6.00 Build 0)  -->
<svg version="1.1" id="Слой_1" xmlns="http://www.w3.org/2000/svg" xmlns:xlink="http://www.w3.org/1999/xlink" x="0px" y="0px"
	 viewBox="0 0 48 48" style="enable-background:new 0 0 48 48;" xml:space="preserve">
<path d="M5.9,37.8V10.2h36.2v27.6C42.1,37.8,5.9,37.8,5.9,37.8z M7.5,18.9h7.1v-7.2H7.5V18.9z M16.1,18.9h7.1v-7.2h-7.1V18.9z
	 M24.8,18.9h7.1v-7.2h-7.1V18.9z M33.4,18.9h7.1v-7.2h-7.1V18.9z M33.4,27.6h7.1v-7.2h-7.1C33.4,20.4,33.4,27.6,33.4,27.6z
	 M24.8,27.6h7.1v-7.2h-7.1C24.8,20.4,24.8,27.6,24.8,27.6z M16.1,27.6h7.1v-7.2h-7.1C16.1,20.4,16.1,27.6,16.1,27.6z M14.6,20.4H7.5
	v7.2h7.1V20.4z M33.4,36.3h7.1v-7.1h-7.1C33.4,29.1,33.4,36.3,33.4,36.3z M24.8,36.3h7.1v-7.1h-7.1C24.8,29.1,24.8,36.3,24.8,36.3z
	 M16.1,36.3h7.1v-7.1h-7.1C16.1,29.1,16.1,36.3,16.1,36.3z M7.5,36.3h7.1v-7.1H7.5C7.5,29.1,7.5,36.3,7.5,36.3z"/>
</svg>
