<?xml version="1.0" encoding="utf-8"?>
<!-- Generator: Adobe Illustrator 26.3.1, SVG Export Plug-In . SVG Version: 6.00 Build 0)  -->
<svg version="1.1" id="Слой_1" xmlns="http://www.w3.org/2000/svg" xmlns:xlink="http://www.w3.org/1999/xlink" x="0px" y="0px"
	 viewBox="0 0 48 48" style="enable-background:new 0 0 48 48;" xml:space="preserve">
<path d="M15.6,38c-1.6,0-2.9-0.6-4-1.7s-1.6-2.5-1.6-4c0-1.6,0.5-2.9,1.6-4s2.4-1.7,4-1.7h20.8c1.6,0,2.9,0.6,4,1.7s1.6,2.4,1.6,4
	c0,1.6-0.5,2.9-1.6,4S38,38,36.4,38H15.6z M15.6,36.5h20.8c1.1,0,2.1-0.4,2.9-1.2c0.8-0.8,1.2-1.8,1.2-3c0-1.1-0.4-2.1-1.2-2.9
	s-1.7-1.2-2.9-1.2H15.6c-1.1,0-2.1,0.4-2.9,1.2c-0.8,0.8-1.2,1.8-1.2,2.9c0,1.2,0.4,2.1,1.2,2.9C13.5,36.1,14.5,36.5,15.6,36.5z
	 M11.6,21.4c-1.6,0-2.9-0.6-4-1.7S6,17.2,6,15.7c0-1.6,0.5-2.9,1.6-4s2.4-1.7,4-1.7h20.8c1.6,0,2.9,0.6,4,1.7s1.6,2.4,1.6,4
	s-0.5,2.9-1.6,4s-2.4,1.7-4,1.7H11.6z M11.5,19.8h20.9c1.1,0,2.1-0.4,2.9-1.2c0.8-0.8,1.2-1.8,1.2-3c0-1.1-0.4-2.1-1.2-2.9
	c-0.8-0.8-1.7-1.2-2.9-1.2H11.6c-1.1,0-2,0.4-2.8,1.2s-1.2,1.8-1.2,2.9c0,1.2,0.4,2.1,1.2,2.9C9.5,19.4,10.5,19.8,11.5,19.8z"/>
</svg>
