<?xml version="1.0" encoding="utf-8"?>
<!-- Generator: Adobe Illustrator 26.3.1, SVG Export Plug-In . SVG Version: 6.00 Build 0)  -->
<svg version="1.1" id="Слой_1" xmlns="http://www.w3.org/2000/svg" xmlns:xlink="http://www.w3.org/1999/xlink" x="0px" y="0px"
	 viewBox="0 0 48 48" style="enable-background:new 0 0 48 48;" xml:space="preserve">
<path d="M36.6,31.6l-19-18.9l5-2.9C23,9.6,23.5,9.4,24,9.4s0.9,0.1,1.4,0.4l10.3,6c0.4,0.3,0.7,0.6,1,1.1c0.2,0.4,0.4,0.9,0.4,1.4
	v12c0,0.2,0,0.5-0.1,0.7C36.8,31.2,36.7,31.4,36.6,31.6z M22.6,38.6l-10.2-6c-0.4-0.3-0.7-0.6-1-1.1c-0.2-0.4-0.4-0.9-0.4-1.4v-12
	c0-0.5,0.1-0.9,0.4-1.4c0.2-0.4,0.6-0.8,1-1.1l2.2-1.3l9.6,9.6l9.6,9.6l-8.4,4.9c-0.5,0.3-0.9,0.4-1.4,0.4
	C23.5,39,23,38.8,22.6,38.6z M18.8,13.9l7.8,7.8l8.1-4.6l-10.1-5.8c-0.2-0.1-0.4-0.2-0.6-0.2s-0.4,0.1-0.6,0.2L18.8,13.9z
	 M23.2,37.2V24.6l-10.7-6.1v11.6c0,0.2,0.1,0.4,0.2,0.6c0.1,0.2,0.3,0.3,0.5,0.4L23.2,37.2z M35.5,30.5v-12l-7.7,4.3L35.5,30.5z
	 M24.8,37.2l7.8-4.6l-7.8-7.8C24.8,24.8,24.8,37.2,24.8,37.2z M42.6,44.8L39.8,42h-5.5v-1.5h4.4v0.3L7.2,9.4h0.4v4.4H6V8.2L3.8,6
	l1.1-1.1l38.8,38.8C43.6,43.6,42.6,44.8,42.6,44.8z M42,34.2V37l-1.5-1.5v-1.2L42,34.2L42,34.2z M13.8,6v1.5h-1.2L11,6H13.8z
	 M13.8,42h-5c-0.7,0-1.4-0.3-1.9-0.8C6.3,40.6,6,40,6,39.2v-5h1.5v5c0,0.4,0.1,0.7,0.3,0.9c0.2,0.2,0.5,0.3,0.9,0.3h5V42H13.8z
	 M40.5,13.8v-5c0-0.4-0.1-0.7-0.3-0.9c-0.2-0.2-0.5-0.3-0.9-0.3h-5V6h5c0.7,0,1.4,0.3,1.9,0.8C41.7,7.4,42,8,42,8.8v5H40.5z"/>
</svg>
