<?xml version="1.0" encoding="utf-8"?>
<!-- Generator: Adobe Illustrator 26.3.1, SVG Export Plug-In . SVG Version: 6.00 Build 0)  -->
<svg version="1.1" id="Слой_1" xmlns="http://www.w3.org/2000/svg" xmlns:xlink="http://www.w3.org/1999/xlink" x="0px" y="0px"
	 viewBox="0 0 48 48" style="enable-background:new 0 0 48 48;" xml:space="preserve">
<path d="M8.8,38c-0.8,0-1.4-0.3-2-0.8C6.3,36.7,6,36,6,35.2V12.8c0-0.8,0.3-1.4,0.8-2C7.3,10.3,8,10,8.8,10h30.5
	c0.8,0,1.4,0.3,2,0.8c0.5,0.5,0.8,1.2,0.8,2v22.5c0,0.8-0.3,1.4-0.8,2c-0.5,0.5-1.2,0.8-2,0.8L8.8,38L8.8,38z M8.8,36.5h30.5
	c0.3,0,0.6-0.1,0.8-0.4c0.3-0.3,0.4-0.5,0.4-0.8V12.8c0-0.3-0.1-0.6-0.4-0.8c-0.3-0.3-0.5-0.4-0.8-0.4H8.8c-0.3,0-0.6,0.1-0.8,0.4
	c-0.3,0.3-0.4,0.5-0.4,0.8v22.5c0,0.3,0.1,0.6,0.4,0.8C8.2,36.3,8.5,36.5,8.8,36.5z M7.5,36.5v-25V36.5z M24,31c3,0,5.6-0.7,7.8-2.1
	s3.3-3,3.3-4.9s-1.1-3.6-3.3-4.9C29.6,17.7,27,17,24,17s-5.6,0.7-7.8,2.1s-3.3,3-3.3,4.9s1.1,3.6,3.3,4.9C18.4,30.3,21,31,24,31z
	 M24,29.5c-2.6,0-4.8-0.5-6.7-1.6c-1.9-1.1-2.8-2.4-2.8-3.9s0.9-2.8,2.8-3.9s4.1-1.6,6.7-1.6s4.8,0.5,6.7,1.6s2.9,2.4,2.9,3.9
	s-1,2.8-2.9,3.9C28.8,28.9,26.6,29.5,24,29.5z"/>
</svg>
