<?xml version="1.0" encoding="utf-8"?>
<!-- Generator: Adobe Illustrator 26.3.1, SVG Export Plug-In . SVG Version: 6.00 Build 0)  -->
<svg version="1.1" id="Слой_1" xmlns="http://www.w3.org/2000/svg" xmlns:xlink="http://www.w3.org/1999/xlink" x="0px" y="0px"
	 viewBox="0 0 48 48" style="enable-background:new 0 0 48 48;" xml:space="preserve">
<path d="M24,28.5c-1.5,0-2.8-0.5-3.9-1.6s-1.6-2.4-1.6-3.9s0.5-2.8,1.6-3.9s2.4-1.6,3.9-1.6s2.8,0.5,3.9,1.6s1.6,2.4,1.6,3.9
	s-0.5,2.8-1.6,3.9S25.5,28.5,24,28.5z M24,36c-4.3,0-8.2-1.2-11.8-3.6c-3.5-2.3-6.2-5.5-8-9.4c1.8-3.9,4.5-7.1,8.1-9.4
	C15.8,11.2,19.7,10,24,10c4.2,0,8,1.1,11.4,3.3s6.1,5.2,8,8.9h-1.7c-1.7-3.3-4.2-5.9-7.4-7.8s-6.6-2.9-10.4-2.9
	c-3.9,0-7.5,1-10.7,3.1S7.5,19.5,5.8,23c1.7,3.5,4.2,6.3,7.5,8.4s6.8,3.1,10.7,3.1c0.6,0,1.2,0,1.9-0.1c0.6-0.1,1.3-0.2,1.9-0.3v1.5
	c-0.6,0.1-1.3,0.2-1.9,0.3S24.6,36,24,36z M24,30.1c0.8,0,1.5-0.1,2.2-0.4c0.7-0.2,1.4-0.6,1.9-1c0.3-0.9,0.7-1.6,1.1-2.4
	c0.5-0.7,1-1.4,1.7-2c0-0.2,0.1-0.5,0.1-0.7s0-0.5,0-0.7c0-1.9-0.7-3.6-2.1-5s-3.1-2.1-5-2.1s-3.6,0.7-5,2.1s-2.1,3.1-2.1,5
	s0.7,3.6,2.1,5C20.4,29.4,22.1,30.1,24,30.1z M33.3,40c-0.4,0-0.8-0.1-1.1-0.4c-0.3-0.3-0.4-0.7-0.4-1.1v-5.4c0-0.4,0.2-0.8,0.5-1
	c0.4-0.3,0.8-0.4,1.3-0.4v-2.1c0-0.9,0.3-1.7,1-2.3c0.6-0.6,1.4-1,2.3-1s1.7,0.3,2.3,1c0.6,0.6,0.9,1.4,0.9,2.3v2.1
	c0.5,0,0.9,0.1,1.3,0.4c0.4,0.3,0.5,0.6,0.5,1v5.4c0,0.4-0.1,0.8-0.4,1.1c-0.3,0.3-0.6,0.4-1,0.4H33.3z M34.9,31.7h4v-2.1
	c0-0.6-0.2-1.1-0.5-1.4c-0.4-0.4-0.8-0.5-1.4-0.5s-1.1,0.2-1.5,0.6s-0.6,0.9-0.6,1.4C34.9,29.5,34.9,31.7,34.9,31.7z"/>
</svg>
