<?xml version="1.0" encoding="utf-8"?>
<!-- Generator: Adobe Illustrator 26.3.1, SVG Export Plug-In . SVG Version: 6.00 Build 0)  -->
<svg version="1.1" id="Слой_1" xmlns="http://www.w3.org/2000/svg" xmlns:xlink="http://www.w3.org/1999/xlink" x="0px" y="0px"
	 viewBox="0 0 48 48" style="enable-background:new 0 0 48 48;" xml:space="preserve">
<path d="M30.6,25.5l-1.3-1.3c0.6-2.1,0.1-3.9-1.5-5.2c-1.6-1.4-3.2-1.8-5-1.3l-1.3-1.3c0.3-0.2,0.7-0.3,1.1-0.4s0.9-0.1,1.4-0.1
	c2,0,3.7,0.7,5,2.1c1.4,1.4,2.1,3,2.1,5c0,0.5,0,1-0.1,1.4C30.8,24.9,30.7,25.2,30.6,25.5z M36.9,31.7l-1.1-1
	c1.4-1.1,2.7-2.3,3.8-3.6c1.1-1.3,2-2.7,2.6-4.2c-1.7-3.5-4.1-6.3-7.3-8.4s-6.8-3.1-10.6-3.1c-1.2,0-2.3,0.1-3.5,0.3
	s-2.2,0.4-3.1,0.7l-1.2-1.2c1.1-0.4,2.3-0.8,3.7-1c1.4-0.2,2.7-0.4,4-0.4c4.2,0,8.1,1.2,11.7,3.5c3.6,2.4,6.3,5.5,8,9.5
	c-0.8,1.7-1.7,3.3-2.9,4.7C39.8,29.2,38.5,30.5,36.9,31.7z M40,42.1l-7.8-7.8c-0.9,0.4-2,0.8-3.5,1.2c-1.4,0.3-3,0.5-4.7,0.5
	c-4.3,0-8.2-1.2-11.8-3.5S5.9,27,4.2,23C5,21.2,6,19.6,7.3,18s2.8-3,4.4-4.2l-6-5.9l1.1-1.1L41,40.9L40,42.1z M12.7,14.9
	c-1.3,0.8-2.6,2-3.9,3.6c-1.4,1.5-2.4,3-3,4.6c1.7,3.5,4.1,6.3,7.4,8.4s6.9,3.1,11,3.1c1.4,0,2.8-0.1,4.1-0.4
	c1.4-0.2,2.3-0.5,2.8-0.8l-3.9-3.9c-0.3,0.2-0.8,0.4-1.5,0.5c-0.6,0.1-1.2,0.2-1.8,0.2c-2,0-3.6-0.7-5-2c-1.4-1.4-2.1-3-2.1-5
	c0-0.5,0.1-1.1,0.2-1.7s0.3-1.1,0.5-1.5C17.6,19.8,12.7,14.9,12.7,14.9z"/>
</svg>
