<?xml version="1.0" encoding="utf-8"?>
<!-- Generator: Adobe Illustrator 26.3.1, SVG Export Plug-In . SVG Version: 6.00 Build 0)  -->
<svg version="1.1" id="Слой_1" xmlns="http://www.w3.org/2000/svg" xmlns:xlink="http://www.w3.org/1999/xlink" x="0px" y="0px"
	 viewBox="0 0 48 48" style="enable-background:new 0 0 48 48;" xml:space="preserve">
<path d="M9.6,38c-1.6,0-2.9-0.6-4-1.7c-1.1-1.1-1.6-2.5-1.6-4v-8.5c0-1.3,0.3-2.5,0.8-3.7s1.4-2.1,2.4-2.9l8.3-6.5
	c0.6-0.5,1.1-1,1.4-1.7c0.3-0.7,0.5-1.4,0.5-2.2V4h1.5v2.7c0,0.8,0.2,1.5,0.5,2.2s0.8,1.3,1.4,1.7l8.2,6.5c1,0.8,1.8,1.8,2.4,2.9
	c0.6,1.2,0.8,2.4,0.8,3.7v0.7h-1.5v-0.7c0-1.1-0.2-2.1-0.7-3s-1.1-1.7-1.9-2.4L22.6,14v22.4c-0.5-0.5-0.9-1.1-1.1-1.8
	s-0.4-1.5-0.4-2.4V13l-3-2.5l-3,2.5v19.3c0,1.6-0.5,2.9-1.6,4C12.4,37.4,11.1,38,9.6,38z M9.5,36.5c1.1,0,2.1-0.4,2.9-1.2
	c0.8-0.8,1.2-1.8,1.2-2.9V14.2l-5.4,4.3c-0.9,0.7-1.5,1.5-2,2.4s-0.7,1.9-0.7,3v8.5c0,1.2,0.4,2.2,1.2,3C7.5,36.1,8.4,36.5,9.5,36.5
	z M27.5,38c-0.4,0-0.7-0.1-1-0.4c-0.3-0.3-0.4-0.6-0.4-1v-7.7c0-0.4,0.1-0.7,0.4-1s0.6-0.4,1-0.4h4.7c0.4,0,0.7,0.1,1,0.4
	s0.4,0.6,0.4,1v7.7c0,0.4-0.1,0.7-0.4,1c-0.3,0.3-0.6,0.4-1,0.4H27.5z M27.6,36.5h4.5V29h-4.5C27.6,29,27.6,36.5,27.6,36.5z
	 M36.4,42v-4.7c0-0.4,0.1-0.7,0.4-1c0.3-0.3,0.6-0.4,1-0.4h5v-3.2h-6.4v-1.5h6.5c0.4,0,0.7,0.1,1,0.4s0.4,0.6,0.4,1V36
	c0,0.4-0.1,0.7-0.4,1c-0.3,0.3-0.6,0.4-1,0.4h-5v3.2h6.4V42H36.4z"/>
</svg>
