<?xml version="1.0" encoding="utf-8"?>
<!-- Generator: Adobe Illustrator 26.3.1, SVG Export Plug-In . SVG Version: 6.00 Build 0)  -->
<svg version="1.1" id="Слой_1" xmlns="http://www.w3.org/2000/svg" xmlns:xlink="http://www.w3.org/1999/xlink" x="0px" y="0px"
	 viewBox="0 0 48 48" style="enable-background:new 0 0 48 48;" xml:space="preserve">
<path d="M13.6,30.5c-2.1,0-3.8-0.7-5.3-2.2c-1.5-1.4-2.2-3.2-2.2-5.3s0.7-3.8,2.2-5.3c1.4-1.5,3.2-2.2,5.3-2.2s3.9,0.7,5.3,2.2
	c1.4,1.5,2.2,3.2,2.2,5.3c0,1.2-0.3,2.3-0.8,3.3c-0.5,1.1-1.2,1.9-2.2,2.6H30c-1-0.7-1.7-1.5-2.2-2.6c-0.5-1-0.8-2.2-0.8-3.3
	c0-2.1,0.7-3.8,2.2-5.3c1.4-1.5,3.2-2.2,5.3-2.2s3.8,0.7,5.3,2.2c1.5,1.4,2.2,3.2,2.2,5.3s-0.7,3.8-2.2,5.3s-3.2,2.2-5.3,2.2H13.6z
	 M13.5,28.9c1.7,0,3.1-0.6,4.2-1.7s1.7-2.5,1.7-4.2c0-1.7-0.6-3.1-1.7-4.2s-2.5-1.7-4.2-1.7s-3.1,0.6-4.2,1.7S7.6,21.3,7.6,23
	s0.6,3.1,1.7,4.2C10.5,28.3,11.9,28.9,13.5,28.9z M34.5,28.9c1.7,0,3.1-0.6,4.2-1.7c1.1-1.1,1.7-2.5,1.7-4.2c0-1.7-0.6-3.1-1.7-4.2
	c-1.1-1.1-2.5-1.7-4.2-1.7s-3.1,0.6-4.2,1.7s-1.7,2.5-1.7,4.2s0.6,3.1,1.7,4.2C31.4,28.3,32.8,28.9,34.5,28.9z"/>
</svg>
