<?xml version="1.0" encoding="utf-8"?>
<!-- Generator: Adobe Illustrator 26.3.1, SVG Export Plug-In . SVG Version: 6.00 Build 0)  -->
<svg version="1.1" id="Слой_1" xmlns="http://www.w3.org/2000/svg" xmlns:xlink="http://www.w3.org/1999/xlink" x="0px" y="0px"
	 viewBox="0 0 48 48" style="enable-background:new 0 0 48 48;" xml:space="preserve">
<path d="M23.1,19.4l-6.9-6.9c0.1,0,0.3,0,0.5-0.1c0.2,0,0.5,0,0.7,0c1.7,0,3,0.5,4.1,1.6s1.6,2.5,1.6,4.2c0,0.2,0,0.4,0,0.6
	C23.1,19.1,23.1,19.3,23.1,19.4z M3.4,38.5v-2.9c0-1,0.3-1.8,0.8-2.4c0.5-0.6,1.2-1.2,2-1.6c1.9-0.9,3.8-1.6,5.8-2
	c1.9-0.4,3.8-0.6,5.5-0.6c1.5,0,3.1,0.2,4.6,0.5c1.6,0.3,2.9,0.7,4,1.1l-6.7-6.8c-0.3,0.1-0.6,0.2-0.9,0.2s-0.6,0.1-1,0.1
	c-1.7,0-3-0.5-4.1-1.6s-1.6-2.5-1.6-4.1c0-0.3,0-0.7,0.1-1s0.1-0.6,0.2-0.9L3.2,7.6l1.1-1.1l36.5,36.4L39.7,44l-8.2-8.2v2.7
	C31.4,38.5,3.4,38.5,3.4,38.5z M5,36.9h24.9v-1.3c0-0.6-0.2-1.1-0.5-1.6s-0.8-0.9-1.4-1.1c-1.6-0.8-3.4-1.4-5.2-1.8
	c-1.9-0.4-3.6-0.7-5.3-0.7S14,30.6,12.2,31c-1.9,0.4-3.6,1-5.2,1.8c-0.6,0.3-1,0.6-1.4,1.1C5.1,34.5,5,35,5,35.6V36.9z M39.5,30.4
	l-1.2-1.2c1.4-1.5,2.5-3.2,3.3-4.9c0.8-1.8,1.2-3.8,1.2-6c0-2.3-0.4-4.3-1.2-6.1s-1.9-3.4-3.3-4.9L39.5,6c1.6,1.6,2.8,3.4,3.7,5.5
	c0.9,2,1.3,4.3,1.3,6.7c0,2.5-0.4,4.7-1.3,6.7C42.3,27,41.1,28.8,39.5,30.4z M32.7,23.4l-1.2-1.2c0.5-0.6,0.9-1.2,1.2-1.8
	c0.3-0.7,0.4-1.4,0.4-2.2c0-0.8-0.1-1.6-0.4-2.2c-0.3-0.6-0.7-1.3-1.2-1.8l1.2-1.2c0.6,0.7,1.1,1.5,1.5,2.4c0.4,0.9,0.6,1.9,0.6,2.9
	s-0.2,1.9-0.6,2.8C33.8,22,33.3,22.7,32.7,23.4z"/>
</svg>
