<?xml version="1.0" encoding="utf-8"?>
<!-- Generator: Adobe Illustrator 26.3.1, SVG Export Plug-In . SVG Version: 6.00 Build 0)  -->
<svg version="1.1" id="Слой_1" xmlns="http://www.w3.org/2000/svg" xmlns:xlink="http://www.w3.org/1999/xlink" x="0px" y="0px"
	 viewBox="0 0 48 48" style="enable-background:new 0 0 48 48;" xml:space="preserve">
<path d="M38.8,43.4l-6.3-6.3c-0.6,0.4-1.2,0.8-1.9,1.1c-0.7,0.3-1.4,0.6-2.1,0.8v-1.6c0.5-0.2,1-0.3,1.5-0.5s1-0.5,1.4-0.8L23,27.5
	v7.6L15.8,28H9v-8h6.4L5,9.6l1.1-1.2l33.7,33.8C39.9,42.2,38.8,43.4,38.8,43.4z M36.6,33.3l-1.1-1.1c0.9-1.2,1.6-2.5,2-3.9
	c0.5-1.4,0.7-2.9,0.7-4.4c0-3.1-0.9-5.8-2.7-8.3s-4.1-4.2-7-5.1V8.9c3.3,1.1,6,3,8.1,5.7c2.1,2.8,3.1,5.9,3.1,9.3
	c0,1.7-0.3,3.4-0.8,5C38.4,30.5,37.6,32,36.6,33.3z M31,27.8l-2.5-2.5v-8c1.1,0.7,2,1.7,2.6,2.9c0.6,1.2,0.9,2.5,0.9,3.8
	c0,0.7-0.1,1.3-0.2,2C31.6,26.6,31.4,27.2,31,27.8z M23,19.7l-3.4-3.5l3.4-3.4C23,12.8,23,19.7,23,19.7z M21.5,31.4V26L17,21.5h-6.4
	v4.9h6C16.5,26.5,21.5,31.4,21.5,31.4z"/>
</svg>
