<?xml version="1.0" encoding="utf-8"?>
<!-- Generator: Adobe Illustrator 26.3.1, SVG Export Plug-In . SVG Version: 6.00 Build 0)  -->
<svg version="1.1" id="Слой_1" xmlns="http://www.w3.org/2000/svg" xmlns:xlink="http://www.w3.org/1999/xlink" x="0px" y="0px"
	 viewBox="0 0 48 48" style="enable-background:new 0 0 48 48;" xml:space="preserve">
<path d="M31.5,24.4L24,17.2c-0.8-0.8-1.5-1.7-2.1-2.7s-0.8-2.1-0.8-3.3c0-1.4,0.5-2.7,1.5-3.7S24.8,6,26.2,6c1.1,0,2.1,0.3,3,1
	c0.9,0.6,1.7,1.4,2.4,2.3C32.2,8.4,33,7.6,33.9,7s1.9-1,3-1c1.4,0,2.6,0.5,3.6,1.5S42,9.8,42,11.2c0,1.2-0.3,2.3-0.9,3.3
	c-0.6,1-1.3,1.9-2.1,2.7L31.5,24.4z M31.5,22.3l6.2-6c0.7-0.7,1.3-1.4,1.9-2.3c0.5-0.8,0.8-1.8,0.8-2.8s-0.3-1.9-1-2.6
	c-0.7-0.7-1.5-1.1-2.5-1.1c-0.9,0-1.7,0.3-2.4,0.8c-0.7,0.6-1.3,1.2-1.9,1.9l-1.1,1.4l-1.1-1.4c-0.5-0.7-1.2-1.4-1.9-1.9
	c-0.7-0.6-1.5-0.8-2.4-0.8c-1,0-1.8,0.4-2.5,1.1s-1,1.6-1,2.6s0.3,1.9,0.8,2.8c0.5,0.8,1.2,1.6,1.9,2.3L31.5,22.3z M12.2,37.8
	L28,42.5l12.2-3.8c0.1-0.8-0.1-1.4-0.6-1.8c-0.4-0.4-0.9-0.6-1.5-0.6h-9.6c-0.7,0-1.3,0-2-0.1s-1.4-0.2-2-0.5L20,34.3l0.6-1.6
	l4.4,1.6c0.5,0.2,1.1,0.3,1.8,0.4c0.7,0,1.4,0,2.3,0h1.3c0-0.8-0.2-1.4-0.5-1.9c-0.4-0.5-0.8-0.8-1.4-1l-11.1-4.1
	c-0.1,0-0.2,0-0.2-0.1c-0.1,0-0.1,0-0.2,0h-4.7C12.2,27.8,12.2,37.8,12.2,37.8z M4.8,42V26.2h12c0.2,0,0.4,0,0.5,0.1
	c0.2,0,0.3,0.1,0.5,0.1L29,30.5c0.8,0.3,1.5,0.8,2.1,1.5s0.9,1.7,0.9,2.8h6.2c1.2,0,2.2,0.4,2.8,1.2c0.7,0.8,1,1.8,1,2.9v0.9
	L28.2,44l-15.9-4.7V42H4.8z M6.3,40.5h4.3V27.8H6.3V40.5z"/>
</svg>
