<?xml version="1.0" encoding="utf-8"?>
<!-- Generator: Adobe Illustrator 26.3.1, SVG Export Plug-In . SVG Version: 6.00 Build 0)  -->
<svg version="1.1" id="Слой_1" xmlns="http://www.w3.org/2000/svg" xmlns:xlink="http://www.w3.org/1999/xlink" x="0px" y="0px"
	 viewBox="0 0 48 48" style="enable-background:new 0 0 48 48;" xml:space="preserve">
<path d="M32.6,34v-6.4h-9.4c-0.7,1.9-1.8,3.5-3.5,4.6C18,33.4,16.1,34,14,34c-2.8,0-5.1-1-7.1-2.9C5,29.1,4,26.8,4,24s1-5.1,2.9-7.1
	C8.9,15,11.2,14,14,14c2.1,0,4,0.6,5.7,1.8s2.9,2.7,3.5,4.6h14.6v1.5H22.1c-0.3-1.4-1.1-2.8-2.5-4.2c-1.4-1.5-3.3-2.2-5.6-2.2
	c-2.4,0-4.4,0.8-6,2.5c-1.6,1.6-2.5,3.6-2.5,6c0,2.3,0.8,4.3,2.5,6c1.6,1.6,3.6,2.5,6,2.5c2.3,0,4.1-0.7,5.6-2.2
	c1.4-1.5,2.3-2.9,2.5-4.2h12.2v6.4h3.6V34H32.6z M14,26.2c0.6,0,1.1-0.2,1.5-0.6s0.6-0.9,0.6-1.5s-0.2-1.1-0.6-1.5
	C15.1,22.2,14.6,22,14,22s-1.1,0.2-1.5,0.6s-0.6,0.9-0.6,1.5s0.2,1.1,0.6,1.5C12.9,26,13.4,26.2,14,26.2z M41.9,34.5
	c-0.3,0-0.6-0.1-0.9-0.4c-0.2-0.2-0.4-0.5-0.4-0.9c0-0.3,0.1-0.6,0.4-0.9c0.3-0.2,0.5-0.4,0.9-0.4c0.3,0,0.6,0.1,0.9,0.4
	c0.2,0.2,0.4,0.5,0.4,0.9c0,0.3-0.1,0.6-0.4,0.9C42.5,34.3,42.2,34.5,41.9,34.5z M41.2,29.5v-9.1h1.5v9.1H41.2z"/>
</svg>
