<?xml version="1.0" encoding="utf-8"?>
<!-- Generator: Adobe Illustrator 26.3.1, SVG Export Plug-In . SVG Version: 6.00 Build 0)  -->
<svg version="1.1" id="Слой_1" xmlns="http://www.w3.org/2000/svg" xmlns:xlink="http://www.w3.org/1999/xlink" x="0px" y="0px"
	 viewBox="0 0 48 48" style="enable-background:new 0 0 48 48;" xml:space="preserve">
<path d="M40.2,42.4L25.4,27.6h-2.1c-0.7,1.9-1.8,3.4-3.4,4.6C18.2,33.4,16.3,34,14,34c-2.8,0-5.1-1-7.1-2.9C5,29.1,4,26.8,4,24
	c0-2.3,0.7-4.4,2.2-6.2s3.4-3,5.9-3.5L5.6,7.8l1.1-1.1l34.5,34.5C41.3,41.3,40.2,42.4,40.2,42.4z M34.3,29.3l-3.2-3.2h3.2V29.3z
	 M38.9,33.9l-1.5-1.5h0.4v-6.3h4.6V22H26.9l-1.5-1.5H44v7.2h-4.6V34C39.4,33.9,38.9,33.9,38.9,33.9z M14,32.5c2,0,3.7-0.6,5.2-1.9
	s2.4-2.8,2.8-4.5h1.8L13.4,15.6c-2.3,0.2-4.2,1.1-5.6,2.7c-1.5,1.6-2.2,3.5-2.2,5.7c0,2.4,0.8,4.4,2.5,6C9.6,31.6,11.6,32.5,14,32.5
	z M14,26.2c-0.6,0-1.1-0.2-1.5-0.6s-0.6-0.9-0.6-1.5s0.2-1.1,0.6-1.5c0.4-0.4,0.9-0.6,1.5-0.6s1.1,0.2,1.5,0.6s0.6,0.9,0.6,1.5
	s-0.2,1.1-0.6,1.5C15.1,26,14.6,26.2,14,26.2z"/>
</svg>
