<?xml version="1.0" encoding="utf-8"?>
<!-- Generator: Adobe Illustrator 26.3.1, SVG Export Plug-In . SVG Version: 6.00 Build 0)  -->
<svg version="1.1" id="Слой_1" xmlns="http://www.w3.org/2000/svg" xmlns:xlink="http://www.w3.org/1999/xlink" x="0px" y="0px"
	 viewBox="0 0 48 48" style="enable-background:new 0 0 48 48;" xml:space="preserve">
<path d="M16.9,33.6c-3.2-0.8-5.8-2.5-7.8-5C7,26,6,23.1,6,19.8c0-3.8,1.3-7.1,4-9.8s6-4,9.8-4c3.3,0,6.2,1,8.7,3.1s4.2,4.7,5,7.8
	h-1.6c-0.8-2.8-2.2-5-4.5-6.8s-4.8-2.6-7.6-2.6c-3.4,0-6.3,1.2-8.7,3.6s-3.6,5.3-3.6,8.7c0,2.8,0.9,5.4,2.6,7.6
	c1.8,2.2,4,3.7,6.7,4.6C16.9,32,16.9,33.6,16.9,33.6z M24,42c-0.8,0-1.4-0.3-2-0.8c-0.5-0.5-0.8-1.2-0.8-2V24c0-0.8,0.3-1.4,0.8-2
	c0.5-0.5,1.2-0.8,2-0.8h15.2c0.8,0,1.4,0.3,2,0.8c0.5,0.5,0.8,1.2,0.8,2v15.2c0,0.8-0.3,1.4-0.8,2c-0.5,0.5-1.2,0.8-2,0.8H24z
	 M24,40.5h15.2c0.3,0,0.6-0.1,0.8-0.4c0.3-0.3,0.4-0.5,0.4-0.8V24c0-0.3-0.1-0.6-0.4-0.8c-0.3-0.3-0.5-0.4-0.8-0.4H24
	c-0.3,0-0.6,0.1-0.8,0.4c-0.3,0.3-0.4,0.5-0.4,0.8v15.2c0,0.3,0.1,0.6,0.4,0.8C23.4,40.3,23.7,40.5,24,40.5z M25.4,38h12.5l-3.8-4.9
	l-3.5,4.7L28,34.3L25.4,38z"/>
</svg>
