<?xml version="1.0" encoding="utf-8"?>
<!-- Generator: Adobe Illustrator 26.3.1, SVG Export Plug-In . SVG Version: 6.00 Build 0)  -->
<svg version="1.1" id="Слой_1" xmlns="http://www.w3.org/2000/svg" xmlns:xlink="http://www.w3.org/1999/xlink" x="0px" y="0px"
	 viewBox="0 0 48 48" style="enable-background:new 0 0 48 48;" xml:space="preserve">
<path d="M42,35.5L40.5,34V24c0-0.3-0.1-0.6-0.4-0.8c-0.3-0.3-0.5-0.4-0.8-0.4h-10l-1.5-1.5h11.5c0.8,0,1.4,0.3,2,0.8
	c0.5,0.5,0.8,1.2,0.8,2L42,35.5L42,35.5z M31.9,16.9c-0.8-2.8-2.2-5-4.5-6.8c-2.2-1.8-4.8-2.6-7.6-2.6c-0.9,0-1.7,0.1-2.5,0.3
	C16.6,8,15.8,8.2,15,8.5l-1.2-1.2c0.9-0.5,1.9-0.8,2.9-1S18.8,6,19.8,6c3.3,0,6.2,1,8.7,3.1s4.2,4.7,4.9,7.8
	C33.5,16.9,31.9,16.9,31.9,16.9z M42.4,43.9L40.5,42H24c-0.8,0-1.4-0.3-2-0.8c-0.5-0.5-0.8-1.2-0.8-2V22.7L10.4,11.9
	c-0.9,1.1-1.6,2.3-2.1,3.6s-0.8,2.8-0.8,4.3c0,2.8,0.9,5.4,2.6,7.6c1.8,2.2,4,3.7,6.7,4.6v1.6c-3.2-0.8-5.8-2.5-7.8-5s-3-5.5-3-8.8
	c0-1.7,0.3-3.4,0.9-4.9s1.4-2.9,2.5-4.1L4.9,6.4L6,5.2l37.5,37.5C43.5,42.8,42.4,43.9,42.4,43.9z M26,38l2.7-3.7l2.6,3.4l3.2-4.1
	l4.3,4.3L26,38L26,38z M24,40.5h15L22.8,24.2v15c0,0.3,0.1,0.6,0.4,0.8C23.4,40.3,23.7,40.5,24,40.5z"/>
</svg>
