<?xml version="1.0" encoding="utf-8"?>
<!-- Generator: Adobe Illustrator 26.3.1, SVG Export Plug-In . SVG Version: 6.00 Build 0)  -->
<svg version="1.1" id="Слой_1" xmlns="http://www.w3.org/2000/svg" xmlns:xlink="http://www.w3.org/1999/xlink" x="0px" y="0px"
	 viewBox="0 0 48 48" style="enable-background:new 0 0 48 48;" xml:space="preserve">
<path d="M33.1,16.2c-0.3,0-0.6-0.1-0.9-0.4c-0.2-0.2-0.4-0.5-0.4-0.9c0-0.3,0.1-0.6,0.4-0.9c0.2-0.2,0.5-0.4,0.9-0.4
	c0.3,0,0.6,0.1,0.9,0.4c0.2,0.2,0.4,0.5,0.4,0.9c0,0.3-0.1,0.6-0.4,0.9C33.7,16.1,33.4,16.2,33.1,16.2z M18,27.9l3.4-4.5l3.3,3.9
	l5.1-6.5l5.3,7.1H18z M9.8,40c-0.8,0-1.4-0.3-2-0.8C7.3,38.7,7,38,7,37.2V12.3h1.5v24.9c0,0.3,0.1,0.6,0.4,0.8
	c0.3,0.3,0.5,0.4,0.8,0.4h24.9V40H9.8z M12.1,19.1V8.8c0-0.8,0.3-1.4,0.8-2c0.5-0.5,1.2-0.8,2-0.8h9.5v1.5h-9.5
	c-0.3,0-0.6,0.1-0.8,0.4c-0.3,0.3-0.4,0.5-0.4,0.8V19C13.6,19.1,12.1,19.1,12.1,19.1z M14.8,34.9c-0.8,0-1.4-0.3-2-0.8
	c-0.5-0.5-0.8-1.2-0.8-1.9v-8.8h1.5v8.8c0,0.3,0.1,0.6,0.4,0.8c0.3,0.3,0.5,0.4,0.8,0.4h9.5v1.5H14.8z M28.7,34.9v-1.5h9.5
	c0.3,0,0.6-0.1,0.8-0.4c0.3-0.3,0.4-0.5,0.4-0.8v-8.8H41v8.8c0,0.8-0.3,1.4-0.8,1.9s-1.2,0.8-2,0.8H28.7z M39.5,19.1V8.8
	c0-0.3-0.1-0.6-0.4-0.8c-0.3-0.3-0.5-0.4-0.8-0.4h-9.5V6h9.5c0.8,0,1.4,0.3,2,0.8C40.7,7.3,41,8,41,8.8v10.3H39.5z"/>
</svg>
