<?xml version="1.0" encoding="utf-8"?>
<!-- Generator: Adobe Illustrator 26.3.1, SVG Export Plug-In . SVG Version: 6.00 Build 0)  -->
<svg version="1.1" id="Слой_1" xmlns="http://www.w3.org/2000/svg" xmlns:xlink="http://www.w3.org/1999/xlink" x="0px" y="0px"
	 viewBox="0 0 48 48" style="enable-background:new 0 0 48 48;" xml:space="preserve">
<path d="M8.8,42c-0.8,0-1.4-0.3-2-0.8C6.3,40.7,6,40,6,39.2V16.8c0-0.8,0.3-1.4,0.8-2C7.4,14.3,8,14,8.8,14h9L24,7.8l6.2,6.2h9
	c0.8,0,1.4,0.3,2,0.8c0.5,0.5,0.8,1.2,0.8,2v22.5c0,0.8-0.3,1.4-0.8,2c-0.5,0.5-1.2,0.8-2,0.8L8.8,42L8.8,42z M8.8,40.5h30.5
	c0.3,0,0.6-0.1,0.8-0.4c0.3-0.3,0.4-0.5,0.4-0.8V16.8c0-0.3-0.1-0.6-0.4-0.8c-0.3-0.3-0.5-0.4-0.8-0.4H8.8c-0.3,0-0.6,0.1-0.8,0.4
	c-0.3,0.3-0.4,0.5-0.4,0.8v22.5c0,0.3,0.1,0.6,0.4,0.8C8.2,40.3,8.5,40.5,8.8,40.5z M15.3,35h17.8l-5.4-7.2l-5.4,6.8l-3.6-4.1
	L15.3,35z M33.9,25.8c0.5,0,1-0.2,1.4-0.6s0.6-0.9,0.6-1.4s-0.2-1-0.6-1.4c-0.4-0.4-0.9-0.6-1.4-0.6s-1,0.2-1.4,0.6
	s-0.6,0.9-0.6,1.4s0.2,1,0.6,1.4C32.8,25.6,33.3,25.8,33.9,25.8z M19.9,14h8.3L24,9.9L19.9,14z M7.6,40.5v-25V40.5z"/>
</svg>
