<?xml version="1.0" encoding="utf-8"?>
<!-- Generator: Adobe Illustrator 26.3.1, SVG Export Plug-In . SVG Version: 6.00 Build 0)  -->
<svg version="1.1" id="Слой_1" xmlns="http://www.w3.org/2000/svg" xmlns:xlink="http://www.w3.org/1999/xlink" x="0px" y="0px"
	 viewBox="0 0 48 48" style="enable-background:new 0 0 48 48;" xml:space="preserve">
<path d="M24.1,35.3c-0.3,0-0.5-0.1-0.7-0.3s-0.3-0.4-0.3-0.7s0.1-0.5,0.3-0.7c0.2-0.2,0.4-0.3,0.7-0.3c0.3,0,0.5,0.1,0.7,0.3
	s0.3,0.4,0.3,0.7S25,34.8,24.8,35C24.6,35.2,24.4,35.3,24.1,35.3z M23.3,31.1v-7.7l1.5,1.5v6.2C24.9,31.1,23.3,31.1,23.3,31.1z
	 M39.2,34.2L35,30L24,11.1l-2.9,5L20,14.9l4-7L39.2,34.2z M8.1,38.5h28.1L18.5,20.7L8.1,38.5z M41,43.2L37.8,40H5.5l11.9-20.4L4.8,7
	l1.1-1.1l36.2,36.2C42.1,42.1,41,43.2,41,43.2z"/>
</svg>
