<?xml version="1.0" encoding="utf-8"?>
<!-- Generator: Adobe Illustrator 26.3.1, SVG Export Plug-In . SVG Version: 6.00 Build 0)  -->
<svg version="1.1" id="Слой_1" xmlns="http://www.w3.org/2000/svg" xmlns:xlink="http://www.w3.org/1999/xlink" x="0px" y="0px"
	 viewBox="0 0 48 48" style="enable-background:new 0 0 48 48;" xml:space="preserve">
<path d="M37.8,24V8.1h1.5V24C39.4,24,37.8,24,37.8,24z M16.2,40.4l-1.6-6c-1.8-0.9-3.2-2.3-4.3-4.2c-1.1-1.8-1.7-3.9-1.7-6.2
	s0.6-4.4,1.7-6.2c1.1-1.9,2.5-3.2,4.3-4.2l1.6-6H25l1.6,6c1.8,0.9,3.2,2.3,4.3,4.2c1.1,1.8,1.7,3.9,1.7,6.2s-0.6,4.4-1.7,6.2
	c-1.1,1.8-2.5,3.2-4.3,4.2l-1.6,6H16.2z M20.6,34.5c2.9,0,5.4-1,7.4-3s3-4.5,3-7.4s-1-5.4-3-7.4s-4.5-3-7.4-3s-5.4,1-7.4,3
	s-3,4.5-3,7.4s1,5.4,3,7.4C15.2,33.4,17.7,34.5,20.6,34.5z M16.5,12.8c0.7-0.2,1.4-0.4,2.1-0.5s1.3-0.2,2-0.2s1.4,0.1,2,0.2
	c0.7,0.1,1.4,0.3,2.1,0.5l-0.9-3.6h-6.4L16.5,12.8z M17.4,38.8h6.4l0.9-3.6c-0.7,0.2-1.4,0.4-2.1,0.5s-1.3,0.2-2,0.2s-1.4-0.1-2-0.2
	c-0.7-0.1-1.4-0.3-2.1-0.5C16.5,35.2,17.4,38.8,17.4,38.8z M16.5,9.2h8.2H16.5z M17.4,38.8h-0.9h8.2H17.4z"/>
</svg>
