<?xml version="1.0" encoding="utf-8"?>
<!-- Generator: Adobe Illustrator 26.3.1, SVG Export Plug-In . SVG Version: 6.00 Build 0)  -->
<svg version="1.1" id="Слой_1" xmlns="http://www.w3.org/2000/svg" xmlns:xlink="http://www.w3.org/1999/xlink" x="0px" y="0px"
	 viewBox="0 0 48 48" style="enable-background:new 0 0 48 48;" xml:space="preserve">
<path d="M21.2,7.5h5.5C26.8,7.5,21.2,7.5,21.2,7.5z M21.2,40.5h5.5C26.8,40.5,21.2,40.5,21.2,40.5z M20.1,42L18,34.4
	c-1.8-0.9-3.2-2.3-4.3-4.2C12.6,28.4,12,26.3,12,24s0.6-4.4,1.7-6.2c1.1-1.9,2.5-3.2,4.3-4.2L20.1,6H28l2.1,7.6
	c1.8,0.9,3.2,2.3,4.3,4.2c1.1,1.8,1.7,3.9,1.7,6.2s-0.6,4.4-1.7,6.2c-1.1,1.8-2.5,3.2-4.3,4.2L27.9,42H20.1z M24,34.5
	c2.9,0,5.4-1,7.4-3s3-4.5,3-7.4s-1-5.4-3-7.4s-4.5-3-7.4-3s-5.4,1-7.4,3s-3,4.5-3,7.4s1,5.4,3,7.4C18.6,33.4,21.1,34.5,24,34.5z
	 M19.9,12.8c0.7-0.2,1.4-0.4,2.1-0.5s1.3-0.2,2-0.2s1.3,0.1,2,0.2c0.7,0.1,1.4,0.3,2.1,0.5l-1.4-5.3h-5.5L19.9,12.8z M21.3,40.5h5.5
	l1.4-5.3c-0.7,0.2-1.4,0.4-2.1,0.5s-1.3,0.2-2,0.2s-1.3-0.1-2-0.2c-0.7-0.1-1.4-0.3-2.1-0.5C19.9,35.2,21.3,40.5,21.3,40.5z
	 M21.9,28.6L18,24.7l1.1-1.1l2.8,2.8l7.1-7l1.1,1.1C30.1,20.4,21.9,28.6,21.9,28.6z"/>
</svg>
