<?xml version="1.0" encoding="utf-8"?>
<!-- Generator: Adobe Illustrator 26.3.1, SVG Export Plug-In . SVG Version: 6.00 Build 0)  -->
<svg version="1.1" id="Слой_1" xmlns="http://www.w3.org/2000/svg" xmlns:xlink="http://www.w3.org/1999/xlink" x="0px" y="0px"
	 viewBox="0 0 48 48" style="enable-background:new 0 0 48 48;" xml:space="preserve">
<path d="M6.5,34.5H18c-1.1-0.7-2.2-1.5-3.1-2.5c-0.9-1-1.6-2.1-2.1-3.4H6.5V34.5z M24,34.5c2.9,0,5.4-1,7.4-3.1c2-2,3.1-4.5,3.1-7.4
	s-1-5.4-3.1-7.4c-2-2-4.5-3.1-7.4-3.1s-5.4,1-7.4,3.1c-2,2-3.1,4.5-3.1,7.4s1,5.4,3.1,7.4C18.6,33.4,21.1,34.5,24,34.5z M35.1,19.5
	h6.3v-5.9H30c1.1,0.7,2.2,1.5,3.1,2.5C33.9,17.1,34.6,18.2,35.1,19.5z M5,37.5v-12h1.5V27h5.9c-0.1-0.5-0.2-1-0.3-1.5
	C12,25,12,24.5,12,24c0-3.3,1.2-6.2,3.5-8.5S20.7,12,24,12h17.5v-1.5H43v12.1h-1.5V21h-5.9c0.1,0.5,0.2,1,0.3,1.5s0.1,1,0.1,1.5
	c0,3.3-1.2,6.2-3.5,8.5C30.2,34.8,27.3,36,24,36H6.5v1.5H5z M6.5,34.5v-5.9V34.5z M41.5,19.5v-5.9V19.5z M24,28
	c-0.8,0-1.4-0.3-2-0.8c-0.5-0.5-0.8-1.2-0.8-2c0-0.5,0.1-1,0.3-1.5c0.2-0.5,0.6-1.1,1.2-1.9L24,20l1.3,1.9c0.6,0.9,1,1.6,1.2,2
	s0.3,0.9,0.3,1.4c0,0.8-0.3,1.4-0.8,2S24.8,28,24,28z"/>
</svg>
