<?xml version="1.0" encoding="utf-8"?>
<!-- Generator: Adobe Illustrator 26.3.1, SVG Export Plug-In . SVG Version: 6.00 Build 0)  -->
<svg version="1.1" id="Слой_1" xmlns="http://www.w3.org/2000/svg" xmlns:xlink="http://www.w3.org/1999/xlink" x="0px" y="0px"
	 viewBox="0 0 48 48" style="enable-background:new 0 0 48 48;" xml:space="preserve">
<path d="M22.1,16.8c-2,0-3.9,0.3-5.8,0.8c-1.9,0.6-3.6,1.4-5.2,2.4l2.2,19.3c0,0.3,0.2,0.6,0.4,0.8s0.5,0.3,0.8,0.3h18.9
	c0.3,0,0.6-0.1,0.8-0.3s0.4-0.5,0.4-0.8L37,18.8h-2c-1.2,0-2.3-0.1-3.4-0.3c-1-0.2-2.4-0.5-4.2-1c-0.9-0.2-1.8-0.4-2.7-0.5
	C23.9,16.8,23,16.8,22.1,16.8z M11,18.4c1.7-1,3.5-1.8,5.4-2.3s3.8-0.8,5.8-0.8c1,0,1.9,0.1,2.9,0.2c1,0.1,1.9,0.3,2.8,0.6
	c1.8,0.5,3.1,0.8,4.1,1c0.9,0.2,1.9,0.2,3,0.2h2.2l1-9.7H9.7L11,18.4z M14.6,42c-0.7,0-1.4-0.2-1.9-0.7s-0.8-1-0.9-1.8L8,6h32
	l-3.8,33.5c-0.1,0.7-0.4,1.3-0.9,1.8S34.2,42,33.4,42H14.6z M22.1,40.5h12.6H13.3H22.1z"/>
</svg>
