<?xml version="1.0" encoding="utf-8"?>
<!-- Generator: Adobe Illustrator 26.3.1, SVG Export Plug-In . SVG Version: 6.00 Build 0)  -->
<svg version="1.1" id="Слой_1" xmlns="http://www.w3.org/2000/svg" xmlns:xlink="http://www.w3.org/1999/xlink" x="0px" y="0px"
	 viewBox="0 0 48 48" style="enable-background:new 0 0 48 48;" xml:space="preserve">
<path d="M30.5,20.8h-11c-0.1,0.6-0.3,1.2-0.6,1.8c-0.3,0.5-0.7,1-1.2,1.4l1.4,15.4c0,0.3,0.2,0.6,0.4,0.8c0.2,0.2,0.5,0.3,0.8,0.3
	h9.3c0.3,0,0.6-0.1,0.8-0.3c0.2-0.2,0.4-0.5,0.4-0.8L32.3,24c-0.5-0.4-0.9-0.9-1.2-1.4C30.8,22,30.5,21.4,30.5,20.8z M18.7,13.5
	L18,16.3c0.4,0.4,0.7,0.9,1,1.4s0.4,1,0.5,1.6h10.9c0.1-0.6,0.3-1.1,0.6-1.6c0.2-0.5,0.6-0.9,1-1.3l-0.7-2.8
	C31.3,13.5,18.7,13.5,18.7,13.5z M20.4,42c-0.7,0-1.4-0.2-1.9-0.7s-0.8-1.1-0.9-1.8l-1.5-15.6c0-0.2,0-0.4,0.1-0.6s0.3-0.4,0.5-0.6
	l0,0c0.4-0.3,0.7-0.8,0.9-1.2c0.2-0.5,0.3-1,0.3-1.5s-0.1-0.9-0.2-1.3c-0.2-0.4-0.4-0.8-0.7-1.1h-0.1c-0.2-0.2-0.3-0.4-0.4-0.6
	s-0.1-0.5,0-0.7l0.8-3.2c0.1-0.3,0.2-0.6,0.5-0.8s0.6-0.3,0.9-0.3h5.5V8.6h-3V7.1h7.5v1.5h-3V12h5.5c0.3,0,0.6,0.1,0.9,0.3
	c0.3,0.2,0.4,0.5,0.5,0.8l0.7,3.1c0,0.2,0,0.5,0,0.7c-0.1,0.2-0.2,0.4-0.4,0.6l0,0c-0.3,0.3-0.6,0.7-0.7,1.2
	C32.1,19,32,19.5,32,19.9c0,0.5,0.1,1,0.3,1.5s0.5,0.9,0.9,1.2c0.2,0.2,0.3,0.3,0.4,0.5c0.1,0.2,0.2,0.4,0.2,0.7l-1.4,15.6
	c-0.1,0.8-0.4,1.4-0.9,1.8C31,41.8,30.4,42,29.6,42H20.4z"/>
</svg>
