<?xml version="1.0" encoding="utf-8"?>
<!-- Generator: Adobe Illustrator 26.3.1, SVG Export Plug-In . SVG Version: 6.00 Build 0)  -->
<svg version="1.1" id="Слой_1" xmlns="http://www.w3.org/2000/svg" xmlns:xlink="http://www.w3.org/1999/xlink" x="0px" y="0px"
	 viewBox="0 0 48 48" style="enable-background:new 0 0 48 48;" xml:space="preserve">
<path d="M20,6.6c4.6,4.1,8,7.8,10.3,11.2s3.5,6.5,3.7,9.4v0.3c0,0.1,0,0.2,0,0.3h-1.5c0-0.1,0-0.2,0-0.3v-0.3
	c-0.1-2.5-1.2-5.3-3.3-8.4C27,15.6,24,12.2,20,8.7c-4.1,3.7-7.2,7.1-9.3,10.3s-3.2,6.1-3.2,8.6c0,1.6,0.2,3.1,0.7,4.5
	c0.5,1.4,1.1,2.6,2,3.7v2.1c-1.3-1.3-2.4-2.8-3.1-4.6S6,29.7,6,27.6c0-2.9,1.2-6,3.5-9.5S15.3,10.8,20,6.6z M15.2,41.9
	c-0.4,0-0.7-0.1-1-0.4c-0.3-0.3-0.4-0.6-0.4-1v-7.7c0-0.4,0.1-0.7,0.4-1c0.3-0.3,0.6-0.4,1-0.4h4.7c0.4,0,0.7,0.1,1,0.4
	s0.4,0.6,0.4,1v7.7c0,0.4-0.1,0.7-0.4,1s-0.6,0.4-1,0.4C19.8,41.9,15.2,41.9,15.2,41.9z M15.2,40.4h4.5v-7.5h-4.5
	C15.2,32.9,15.2,40.4,15.2,40.4z M24.6,42V31.2h6.5c0.6,0,1.1,0.2,1.5,0.6c0.4,0.4,0.6,0.9,0.6,1.5v2.4c0,0.6-0.2,1.1-0.6,1.5
	c-0.4,0.4-0.9,0.6-1.5,0.7l1.7,4.1h-1.7l-1.7-4.1H26V42C26.1,42,24.6,42,24.6,42z M36.8,42V31.2h6.5c0.6,0,1.1,0.2,1.5,0.6
	s0.6,0.9,0.6,1.5v2.3c0,0.6-0.2,1.1-0.6,1.5c-0.4,0.4-0.9,0.6-1.5,0.6h-5V42C38.2,42,36.8,42,36.8,42z M26.1,36.4h5
	c0.2,0,0.3-0.1,0.5-0.2c0.1-0.1,0.2-0.3,0.2-0.4v-2.4c0-0.2-0.1-0.3-0.2-0.5c-0.1-0.1-0.3-0.2-0.5-0.2h-5V36.4z M38.2,36.4h5
	c0.2,0,0.3-0.1,0.5-0.2c0.1-0.1,0.2-0.3,0.2-0.5v-2.3c0-0.2-0.1-0.3-0.2-0.5c-0.1-0.1-0.3-0.2-0.5-0.2h-5V36.4z"/>
</svg>
