<?xml version="1.0" encoding="utf-8"?>
<!-- Generator: Adobe Illustrator 26.3.1, SVG Export Plug-In . SVG Version: 6.00 Build 0)  -->
<svg version="1.1" id="Слой_1" xmlns="http://www.w3.org/2000/svg" xmlns:xlink="http://www.w3.org/1999/xlink" x="0px" y="0px"
	 viewBox="0 0 48 48" style="enable-background:new 0 0 48 48;" xml:space="preserve">
<path d="M14.5,40.7h18.9c0.4,0,0.7-0.1,0.9-0.3s0.3-0.5,0.3-0.9V35c0-0.4-0.1-0.7-0.3-0.9s-0.5-0.3-0.9-0.3h-2.8v-12h-3.2v-1.5h6
	c0.4,0,0.7-0.1,0.9-0.3c0.2-0.2,0.3-0.5,0.3-0.9v-4.5c0-0.4-0.1-0.7-0.3-0.9s-0.5-0.3-0.9-0.3H14.5c-0.4,0-0.7,0.1-0.9,0.3
	s-0.3,0.5-0.3,0.9V19c0,0.4,0.1,0.7,0.3,0.9c0.2,0.2,0.5,0.3,0.9,0.3h2.8v12h3.2v1.5h-6c-0.4,0-0.7,0.1-0.9,0.3s-0.3,0.5-0.3,0.9
	v4.5c0,0.4,0.1,0.7,0.3,0.9C13.9,40.6,14.2,40.7,14.5,40.7z M14.5,42.2c-0.7,0-1.4-0.3-1.9-0.8s-0.8-1.2-0.8-1.9V35
	c0-0.7,0.3-1.4,0.8-1.9s1.2-0.8,1.9-0.8h1.2V21.8h-1.2c-0.7,0-1.4-0.3-1.9-0.8s-0.8-1.2-0.8-1.9v-4.5c0-0.7,0.3-1.4,0.8-1.9
	s1.2-0.8,1.9-0.8h7.1V8.5h-2.2V7h9.2v1.5h-2.2v3.2h7.1c0.7,0,1.4,0.3,1.9,0.8s0.8,1.2,0.8,1.9V19c0,0.7-0.3,1.4-0.8,1.9
	s-1.2,0.8-1.9,0.8h-1.2v10.5h1.2c0.7,0,1.4,0.3,1.9,0.8s0.8,1.2,0.8,1.9v4.5c0,0.7-0.3,1.4-0.8,1.9s-1.2,0.8-1.9,0.8
	C33.5,42.2,14.5,42.2,14.5,42.2z"/>
</svg>
