<?xml version="1.0" encoding="utf-8"?>
<!-- Generator: Adobe Illustrator 26.3.1, SVG Export Plug-In . SVG Version: 6.00 Build 0)  -->
<svg version="1.1" id="Слой_1" xmlns="http://www.w3.org/2000/svg" xmlns:xlink="http://www.w3.org/1999/xlink" x="0px" y="0px"
	 viewBox="0 0 48 48" style="enable-background:new 0 0 48 48;" xml:space="preserve">
<path d="M17.9,22.1c0,1,0.2,2,0.7,2.9s1.2,1.6,2,2.2c-0.1-0.2-0.1-0.3-0.1-0.5s0-0.3,0-0.5c0-0.5,0.1-1,0.2-1.4s0.5-0.8,0.8-1.2
	l2.4-2.4l2.5,2.4c0.3,0.4,0.6,0.8,0.8,1.2c0.2,0.4,0.3,0.9,0.2,1.4c0,0.2,0,0.3,0,0.5s0,0.3-0.1,0.5c0.9-0.5,1.6-1.3,2-2.2
	c0.5-0.9,0.7-1.9,0.7-2.9c0-0.9-0.2-1.7-0.5-2.5s-0.8-1.5-1.4-2.1c-0.3,0.2-0.6,0.4-1,0.5c-0.3,0.1-0.7,0.2-1.1,0.2
	c-1,0-1.9-0.3-2.7-1c-0.8-0.7-1.2-1.6-1.2-2.6c-0.7,0.6-1.3,1.2-1.9,1.8c-0.5,0.6-1,1.3-1.4,1.9s-0.6,1.3-0.8,1.9
	C18,20.8,17.9,21.4,17.9,22.1z M24,23.1l-1.5,1.5c-0.2,0.2-0.4,0.4-0.5,0.7c-0.1,0.2-0.2,0.5-0.2,0.8c0,0.6,0.2,1.1,0.7,1.5
	c0.4,0.4,0.9,0.6,1.5,0.6s1.1-0.2,1.5-0.6s0.6-0.9,0.6-1.5c0-0.3-0.1-0.6-0.2-0.8c-0.1-0.3-0.3-0.5-0.5-0.6
	C25.5,24.6,24,23.1,24,23.1z M23.5,12.1v2.4c0,0.7,0.2,1.3,0.7,1.7c0.5,0.5,1.1,0.7,1.8,0.7c0.3,0,0.6,0,0.8-0.1
	c0.2-0.1,0.5-0.3,0.7-0.5l0.5-0.5c1,0.7,1.9,1.6,2.5,2.7s0.9,2.3,0.9,3.6c0,2.1-0.7,3.8-2.1,5.3c-1.4,1.4-3.2,2.2-5.3,2.2
	s-3.8-0.7-5.3-2.2c-1.4-1.4-2.1-3.2-2.1-5.2c0-1.8,0.6-3.7,1.8-5.4C19.6,14.9,21.3,13.3,23.5,12.1z M11.8,43c-0.8,0-1.4-0.3-2-0.8
	C9.3,41.6,9,41,9,40.2V12c0-1.9,0.7-3.6,2-5c1.4-1.4,3-2,5-2h16c1.9,0,3.6,0.7,5,2c1.4,1.4,2,3,2,5v28.2c0,0.8-0.3,1.4-0.8,2
	c-0.5,0.5-1.2,0.8-2,0.8H11.8z M10.5,34.8v5.5c0,0.4,0.1,0.7,0.3,0.9s0.5,0.3,0.9,0.3h24.5c0.4,0,0.7-0.1,0.9-0.3s0.3-0.5,0.3-0.9
	v-5.5c-1.8,0-3,0.3-3.8,1c-0.7,0.7-1.9,1-3.5,1s-2.7-0.3-3.3-1c-0.6-0.7-1.6-1-2.9-1s-2.3,0.3-2.9,1s-1.7,1-3.3,1
	c-1.6,0-2.7-0.3-3.4-1C13.7,35.1,12.4,34.8,10.5,34.8z M17.8,35.2c1.3,0,2.3-0.3,2.9-1s1.7-1,3.3-1c1.6,0,2.8,0.3,3.4,1
	c0.7,0.7,1.6,1,2.8,1c1.2,0,2.1-0.3,2.9-1s2.2-1,4.3-1V12c0-1.5-0.5-2.8-1.6-3.9s-2.4-1.6-3.9-1.6H16c-1.5,0-2.8,0.5-3.9,1.6
	s-1.6,2.4-1.6,3.9v21.2c2.1,0,3.6,0.3,4.3,1S16.5,35.2,17.8,35.2z"/>
</svg>
