<?xml version="1.0" encoding="utf-8"?>
<!-- Generator: Adobe Illustrator 26.3.1, SVG Export Plug-In . SVG Version: 6.00 Build 0)  -->
<svg version="1.1" id="Слой_1" xmlns="http://www.w3.org/2000/svg" xmlns:xlink="http://www.w3.org/1999/xlink" x="0px" y="0px"
	 viewBox="0 0 48 48" style="enable-background:new 0 0 48 48;" xml:space="preserve">
<path d="M7.4,9.5V8h5.4v1.5H7.4z M11.8,20.2l-1.1-1.1l3.8-3.8l1.1,1.1L11.8,20.2z M24,15.6c-2.1,0-3.9-0.7-5.3-2.2
	c-1.5-1.5-2.2-3.3-2.3-5.4h1.5c0,1.7,0.7,3.1,1.8,4.3c1.2,1.2,2.6,1.8,4.2,1.8s3.1-0.6,4.2-1.8c1.2-1.2,1.8-2.6,1.8-4.3h1.5
	c-0.1,2.1-0.8,3.9-2.3,5.4C27.9,14.8,26.1,15.6,24,15.6z M23.2,24.4V19h1.5v5.4H23.2z M36.3,20.2l-3.9-3.9l1.1-1.1l3.9,3.8
	L36.3,20.2z M35.2,9.5V8h5.4v1.5H35.2z M5,40.2v-1.6c1-0.1,1.9-0.5,2.5-1.1c0.7-0.6,1.7-0.9,3.1-0.9c1.5,0,2.6,0.4,3.4,1.2
	c0.8,0.8,1.9,1.2,3.3,1.2s2.5-0.4,3.3-1.2s1.9-1.2,3.4-1.2s2.6,0.4,3.4,1.2s1.9,1.2,3.3,1.2c1.4,0,2.5-0.4,3.3-1.2s1.9-1.2,3.4-1.2
	c1.4,0,2.4,0.3,3.1,0.9c0.7,0.6,1.5,1,2.5,1.1v1.6c-1.1-0.2-2-0.5-2.7-1.2c-0.8-0.6-1.7-0.9-2.9-0.9c-1.3,0-2.4,0.4-3.2,1.2
	s-2,1.2-3.5,1.2s-2.6-0.4-3.4-1.2s-1.9-1.2-3.3-1.2s-2.5,0.4-3.3,1.2s-2,1.2-3.5,1.2s-2.6-0.4-3.4-1.2c-0.8-0.8-1.9-1.2-3.2-1.2
	c-1.2,0-2.2,0.3-2.9,0.9C7,39.7,6.1,40.1,5,40.2z M5,32.7v-1.6C6,31,6.9,30.6,7.5,30c0.7-0.6,1.7-0.9,3.1-0.9c1.5,0,2.6,0.4,3.4,1.2
	c0.8,0.8,1.9,1.2,3.3,1.2s2.5-0.4,3.3-1.2c0.8-0.8,1.9-1.2,3.4-1.2s2.6,0.4,3.4,1.2c0.8,0.8,1.9,1.2,3.3,1.2c1.4,0,2.5-0.4,3.3-1.2
	c0.8-0.8,1.9-1.2,3.4-1.2c1.4,0,2.5,0.3,3.1,0.9s1.5,1,2.5,1.1v1.6c-1.1-0.2-2-0.5-2.7-1.1c-0.8-0.6-1.7-0.9-2.9-0.9
	c-1.3,0-2.4,0.4-3.2,1.2c-0.8,0.8-2,1.2-3.5,1.2s-2.6-0.4-3.4-1.2s-1.9-1.2-3.3-1.2s-2.5,0.4-3.3,1.2c-0.8,0.8-2,1.2-3.4,1.2
	c-1.5,0-2.6-0.4-3.4-1.2C13,31,12,30.6,10.6,30.6c-1.2,0-2.2,0.3-2.9,0.9C7,32.1,6.1,32.5,5,32.7z"/>
</svg>
