<?xml version="1.0" encoding="utf-8"?>
<!-- Generator: Adobe Illustrator 26.3.1, SVG Export Plug-In . SVG Version: 6.00 Build 0)  -->
<svg version="1.1" id="Слой_1" xmlns="http://www.w3.org/2000/svg" xmlns:xlink="http://www.w3.org/1999/xlink" x="0px" y="0px"
	 viewBox="0 0 48 48" style="enable-background:new 0 0 48 48;" xml:space="preserve">
<path d="M22.5,23.5L35,11c0.2-0.2,0.4-0.3,0.5-0.3c0.2,0,0.4,0.1,0.6,0.3c0.2,0.2,0.3,0.4,0.3,0.6c0,0.2-0.1,0.4-0.3,0.6L23.6,24.6
	L22.5,23.5z M27.2,28.2l11.1-11.1c0.1-0.1,0.3-0.2,0.5-0.2s0.4,0.1,0.5,0.2c0.2,0.2,0.3,0.3,0.3,0.6c0,0.2-0.1,0.4-0.3,0.6l-11,11
	L27.2,28.2z M11,36.8c-2.7-2.7-4-5.9-4-9.6s1.4-6.9,4.1-9.6l5.8-5.8l1.6,1.6c0.5,0.5,0.8,1,1,1.5c0.2,0.6,0.3,1.1,0.3,1.7L27.4,9
	c0.1-0.1,0.3-0.2,0.5-0.2s0.4,0.1,0.6,0.2c0.1,0.2,0.2,0.4,0.2,0.6s-0.1,0.4-0.2,0.5l-9.4,9.4l-2.7,2.7l1.1,1.2
	c1.2,1.2,1.8,2.7,1.8,4.4c0,1.7-0.6,3.2-1.8,4.4L17,32.8l-1-1.1l0.5-0.6c0.9-0.9,1.4-2,1.4-3.3s-0.5-2.4-1.4-3.3l-1.3-1.3
	c-0.3-0.3-0.4-0.6-0.4-1s0.1-0.7,0.4-1l2.2-2.1c0.6-0.6,0.9-1.4,0.9-2.3s-0.3-1.6-0.9-2.3L16.9,14l-4.7,4.7
	c-2.4,2.4-3.6,5.2-3.6,8.5s1.1,6.1,3.5,8.5s5.3,3.6,8.6,3.7c3.3,0,6.2-1.2,8.6-3.5L40,25.1c0.1-0.1,0.3-0.2,0.5-0.2s0.4,0.1,0.6,0.2
	c0.1,0.2,0.2,0.4,0.2,0.5c0,0.2-0.1,0.4-0.2,0.6L30.3,36.9c-2.7,2.7-5.9,4-9.6,4S13.7,39.5,11,36.8z M32.8,43.5V42
	c2.6,0,4.8-0.9,6.6-2.7s2.7-4,2.7-6.6h1.5c0,3-1.1,5.5-3.2,7.6C38.3,42.5,35.7,43.5,32.8,43.5z M4.5,15.2c0-3,1.1-5.5,3.2-7.6
	s4.6-3.2,7.6-3.2v1.5c-2.6,0-4.8,0.9-6.6,2.7S6,12.6,6,15.2C6,15.3,4.5,15.2,4.5,15.2z"/>
</svg>
