<?xml version="1.0" encoding="utf-8"?>
<!-- Generator: Adobe Illustrator 26.3.1, SVG Export Plug-In . SVG Version: 6.00 Build 0)  -->
<svg version="1.1" id="Слой_1" xmlns="http://www.w3.org/2000/svg" xmlns:xlink="http://www.w3.org/1999/xlink" x="0px" y="0px"
	 viewBox="0 0 48 48" style="enable-background:new 0 0 48 48;" xml:space="preserve">
<path d="M10.5,30.2h1.6l1.5-4.2h6l1.5,4.2h1.7l-5.7-14.6H16L10.5,30.2z M14.1,24.8l2.4-6.6h0.2l2.4,6.6H14.1z M16.7,36
	c-3.3,0-6.2-1.2-8.5-3.5S4.7,27.3,4.7,24s1.2-6.2,3.5-8.5s5.2-3.5,8.5-3.5c2.8,0,5.3,0.8,7.5,2.5s3.6,3.9,4.2,6.7L27,15.6h1.6
	l2.7,11.6h0.1l3-11.6h1.3l3,11.6l2.7-11.6h1.7l-3.5,14.6H38l-3-11.4h-0.2l-3,11.4h-1.5l-2.1-8.5c0.7,3.7-0.2,7-2.5,9.9
	C23.5,34.6,20.5,36,16.7,36z M16.7,34.5c2.9,0,5.4-1,7.4-3s3-4.5,3-7.4s-1-5.4-3-7.4s-4.5-3-7.4-3s-5.4,1-7.4,3s-3,4.5-3,7.4
	s1,5.4,3,7.4C11.3,33.4,13.8,34.5,16.7,34.5z"/>
</svg>
