<?xml version="1.0" encoding="utf-8"?>
<!-- Generator: Adobe Illustrator 26.3.1, SVG Export Plug-In . SVG Version: 6.00 Build 0)  -->
<svg version="1.1" id="Слой_1" xmlns="http://www.w3.org/2000/svg" xmlns:xlink="http://www.w3.org/1999/xlink" x="0px" y="0px"
	 viewBox="0 0 48 48" style="enable-background:new 0 0 48 48;" xml:space="preserve">
<path d="M23.2,7.5V3h1.5v4.5H23.2z M23.2,45v-4.5h1.5V45H23.2z M40.5,24.8v-1.5H45v1.5H40.5z M3,24.8v-1.5h4.5v1.5H3z M36.5,12.6
	l-1.1-1.2l2.8-2.8l1.1,1.1C39.2,9.8,36.5,12.6,36.5,12.6z M9.8,39.3l-1.1-1.1l2.8-2.8l1.1,1.1L9.8,39.3z M38.2,39.3l-2.8-2.8
	l1.1-1.1l2.8,2.8C39.2,38.2,38.2,39.3,38.2,39.3z M11.5,12.6L8.8,9.8l1.1-1.1l2.8,2.8C12.6,11.5,11.5,12.6,11.5,12.6z M24,33.6
	c-2.7,0-5-0.9-6.8-2.8c-1.9-1.9-2.8-4.1-2.8-6.8s0.9-5,2.8-6.9s4.1-2.8,6.8-2.8s5,0.9,6.9,2.8s2.8,4.2,2.8,6.9s-0.9,5-2.8,6.8
	C29,32.7,26.7,33.6,24,33.6z M24,32.1c2.3,0,4.2-0.8,5.8-2.3c1.6-1.6,2.4-3.5,2.4-5.7c0-2.3-0.8-4.2-2.4-5.8
	c-1.6-1.6-3.5-2.4-5.8-2.4s-4.2,0.8-5.8,2.4c-1.6,1.6-2.3,3.5-2.3,5.8s0.8,4.2,2.3,5.8C19.8,31.3,21.7,32.1,24,32.1z"/>
</svg>
