<?xml version="1.0" encoding="utf-8"?>
<!-- Generator: Adobe Illustrator 26.3.1, SVG Export Plug-In . SVG Version: 6.00 Build 0)  -->
<svg version="1.1" id="Слой_1" xmlns="http://www.w3.org/2000/svg" xmlns:xlink="http://www.w3.org/1999/xlink" x="0px" y="0px"
	 viewBox="0 0 48 48" style="enable-background:new 0 0 48 48;" xml:space="preserve">
<path d="M35.8,19.4l-1.1-1.1l3.5-3.4l1.1,1.1L35.8,19.4z M5,38.8v-1.5h38v1.5H5z M23.2,14.5V9.7h1.5v4.8H23.2z M12.2,19.4l-3.4-3.5
	l1.1-1.1l3.5,3.5L12.2,19.4z M14.2,28.5h19.7c-0.7-2.1-2-3.8-3.7-5c-1.8-1.3-3.8-1.9-6.1-1.9s-4.3,0.6-6.1,1.9
	C16.1,24.7,14.9,26.4,14.2,28.5z M12.2,30c0.5-2.9,1.8-5.3,4-7.2S21,20,24,20s5.5,0.9,7.8,2.8s3.6,4.3,4,7.2H12.2z"/>
</svg>
