<?xml version="1.0" encoding="utf-8"?>
<!-- Generator: Adobe Illustrator 26.3.1, SVG Export Plug-In . SVG Version: 6.00 Build 0)  -->
<svg version="1.1" id="Слой_1" xmlns="http://www.w3.org/2000/svg" xmlns:xlink="http://www.w3.org/1999/xlink" x="0px" y="0px"
	 viewBox="0 0 48 48" style="enable-background:new 0 0 48 48;" xml:space="preserve">
<path d="M13,36.9c-0.4,0-0.7-0.1-1-0.4c-0.3-0.3-0.4-0.6-0.4-1s0.1-0.7,0.4-1c0.3-0.3,0.6-0.4,1-0.4s0.7,0.1,1,0.4
	c0.3,0.3,0.4,0.6,0.4,1s-0.1,0.7-0.4,1C13.7,36.8,13.4,36.9,13,36.9z M19,43.2c-0.4,0-0.7-0.1-1-0.4c-0.3-0.3-0.4-0.6-0.4-1
	s0.1-0.7,0.4-1s0.6-0.4,1-0.4s0.7,0.1,1,0.4c0.3,0.3,0.4,0.6,0.4,1s-0.1,0.7-0.4,1C19.7,43,19.4,43.2,19,43.2z M25,36.9
	c-0.4,0-0.7-0.1-1-0.4c-0.3-0.3-0.4-0.6-0.4-1s0.1-0.7,0.4-1s0.6-0.4,1-0.4s0.7,0.1,1,0.4c0.3,0.3,0.4,0.6,0.4,1s-0.1,0.7-0.4,1
	S25.4,36.9,25,36.9z M37,36.9c-0.4,0-0.7-0.1-1-0.4c-0.3-0.3-0.4-0.6-0.4-1s0.1-0.7,0.4-1c0.3-0.3,0.6-0.4,1-0.4s0.7,0.1,1,0.4
	c0.3,0.3,0.4,0.6,0.4,1s-0.1,0.7-0.4,1C37.7,36.8,37.4,36.9,37,36.9z M31,43.2c-0.4,0-0.7-0.1-1-0.4c-0.3-0.3-0.4-0.6-0.4-1
	s0.1-0.7,0.4-1s0.6-0.4,1-0.4s0.7,0.1,1,0.4c0.3,0.3,0.4,0.6,0.4,1s-0.1,0.7-0.4,1C31.7,43,31.4,43.2,31,43.2z M14.8,28.5
	c-2.7,0-5-1-6.9-2.9C6,23.8,5,21.5,5,18.8c0-2.5,0.9-4.7,2.6-6.6c1.8-1.9,4-2.9,6.7-3.1c1-1.9,2.3-3.3,4-4.4S21.9,3,24,3
	c2.9,0,5.3,1,7.3,2.9s3.1,4.3,3.5,7.1c2.6,0.1,4.7,0.9,6.1,2.5c1.4,1.5,2.1,3.3,2.1,5.4s-0.8,4-2.3,5.5s-3.3,2.3-5.5,2.3
	C35.2,28.5,14.8,28.5,14.8,28.5z M14.8,27h20.5c1.7,0,3.2-0.6,4.4-1.8c1.2-1.2,1.8-2.7,1.8-4.4c0-1.7-0.6-3.2-1.8-4.4
	s-2.7-1.8-4.4-1.8h-2v-0.8c0-2.5-0.9-4.7-2.7-6.5s-4-2.7-6.5-2.7c-1.9,0-3.6,0.5-5.1,1.5s-2.7,2.4-3.4,4.1l-0.2,0.4h-0.7
	c-2.2,0.1-4.1,0.9-5.7,2.5s-2.4,3.5-2.4,5.7c0,2.3,0.8,4.2,2.4,5.8C10.6,26.2,12.5,27,14.8,27z"/>
</svg>
