<?xml version="1.0" encoding="utf-8"?>
<!-- Generator: Adobe Illustrator 26.3.1, SVG Export Plug-In . SVG Version: 6.00 Build 0)  -->
<svg version="1.1" id="Слой_1" xmlns="http://www.w3.org/2000/svg" xmlns:xlink="http://www.w3.org/1999/xlink" x="0px" y="0px"
	 viewBox="0 0 48 48" style="enable-background:new 0 0 48 48;" xml:space="preserve">
<path d="M26.1,43.8c-0.5,0-0.9-0.2-1.3-0.5c-0.3-0.3-0.5-0.7-0.5-1.2c0-0.2,0-0.4,0.1-0.6c0.1-0.2,0.2-0.4,0.4-0.5l1.3-1.2l1.3,1.2
	c0.2,0.2,0.3,0.3,0.4,0.6c0.1,0.2,0.1,0.4,0.1,0.6c0,0.5-0.2,0.9-0.5,1.2C27,43.7,26.6,43.8,26.1,43.8z M19.1,40.9L18,39.8l4.9-4.9
	L24,36C24.1,36,19.1,40.9,19.1,40.9z M32.1,38l-2-2l2-2l2,2C34.2,35.9,32.1,38,32.1,38z M14.1,38l-2-2l2-2l2,2
	C16.1,35.9,14.1,38,14.1,38z M14.8,30.5c-2.7,0-5-1-6.9-2.9C6,25.8,5,23.5,5,20.8c0-2.5,0.9-4.7,2.6-6.6c1.8-1.9,4-2.9,6.7-3.1
	c1-1.9,2.3-3.3,4-4.4S21.9,5,24,5c2.9,0,5.3,1,7.3,2.9s3.1,4.3,3.5,7.1c2.6,0.1,4.7,0.9,6.1,2.5c1.4,1.5,2.1,3.3,2.1,5.3
	c0,2.2-0.8,4-2.3,5.5s-3.3,2.3-5.5,2.3C35.2,30.5,14.8,30.5,14.8,30.5z M14.8,29h20.5c1.7,0,3.2-0.6,4.4-1.8
	c1.2-1.2,1.8-2.7,1.8-4.4c0-1.7-0.6-3.2-1.8-4.4c-1.2-1.2-2.7-1.8-4.4-1.8h-2v-0.8c0-2.5-0.9-4.7-2.7-6.5s-4-2.7-6.5-2.7
	c-1.9,0-3.6,0.5-5.1,1.5s-2.7,2.4-3.4,4.1l-0.2,0.4h-0.7c-2.2,0.1-4.2,0.9-5.7,2.5c-1.6,1.6-2.4,3.5-2.4,5.7C6.5,23,7.3,25,9,26.6
	C10.6,28.2,12.5,29,14.8,29z"/>
</svg>
