<?xml version="1.0" encoding="utf-8"?>
<!-- Generator: Adobe Illustrator 26.3.1, SVG Export Plug-In . SVG Version: 6.00 Build 0)  -->
<svg version="1.1" id="Слой_1" xmlns="http://www.w3.org/2000/svg" xmlns:xlink="http://www.w3.org/1999/xlink" x="0px" y="0px"
	 viewBox="0 0 48 48" style="enable-background:new 0 0 48 48;" xml:space="preserve">
<path d="M34.7,39.7V8.3c0.7,0.1,1.3,0.4,1.7,0.9s0.6,1.1,0.6,1.9v25.8c0,0.8-0.2,1.4-0.6,1.9C36,39.2,35.4,39.5,34.7,39.7z M11,42.5
	c-0.7,0-1.4-0.3-1.9-0.8s-0.8-1.2-0.8-1.9V8.3c0-0.7,0.3-1.4,0.8-1.9s1.2-0.8,1.9-0.8h18.5c0.7,0,1.4,0.3,1.9,0.8s0.8,1.2,0.8,1.9
	v31.4c0,0.7-0.3,1.4-0.8,1.9s-1.2,0.8-1.9,0.8C29.5,42.5,11,42.5,11,42.5z M39.5,36.9V11.1c0.4,0.1,0.8,0.3,1,0.6s0.3,0.7,0.3,1.2
	v22.2c0,0.5-0.1,0.9-0.3,1.2C40.2,36.5,39.9,36.7,39.5,36.9z M11,40.9h18.5c0.3,0,0.6-0.1,0.8-0.4c0.3-0.3,0.4-0.5,0.4-0.8V8.3
	c0-0.3-0.1-0.6-0.4-0.8c-0.3-0.3-0.5-0.4-0.8-0.4H11c-0.3,0-0.6,0.1-0.8,0.4C9.9,7.7,9.8,8,9.8,8.3v31.4c0,0.3,0.1,0.6,0.4,0.8
	C10.4,40.8,10.7,40.9,11,40.9z M9.8,7.1v33.8C9.8,40.9,9.8,7.1,9.8,7.1z"/>
</svg>
