<?xml version="1.0" encoding="utf-8"?>
<!-- Generator: Adobe Illustrator 26.3.1, SVG Export Plug-In . SVG Version: 6.00 Build 0)  -->
<svg version="1.1" id="Слой_1" xmlns="http://www.w3.org/2000/svg" xmlns:xlink="http://www.w3.org/1999/xlink" x="0px" y="0px"
	 viewBox="0 0 48 48" style="enable-background:new 0 0 48 48;" xml:space="preserve">
<path d="M13.8,41c-2.4,0-4.5-0.9-6.2-2.6C5.9,36.7,5,34.7,5,32.2c0-1.9,0.5-3.5,1.5-5s2.4-2.5,4-3.1v1.7c-1.2,0.6-2.2,1.5-2.9,2.6
	s-1.1,2.4-1.1,3.8c0,2,0.7,3.7,2.1,5.1c1.4,1.4,3.1,2.1,5.1,2.1s3.7-0.7,5.1-2.1c1.4-1.4,2.1-3.1,2.1-5.1v-0.8H32
	c0.2-0.4,0.5-0.8,0.9-1.1c0.4-0.3,0.8-0.4,1.3-0.4c0.6,0,1.2,0.2,1.6,0.6c0.4,0.4,0.6,1,0.6,1.6c0,0.6-0.2,1.1-0.6,1.6
	c-0.4,0.4-1,0.7-1.6,0.7c-0.5,0-0.9-0.1-1.3-0.4c-0.4-0.3-0.7-0.6-0.9-1.1h-9.5c-0.3,2.5-1.4,4.4-3.1,5.8C17.8,40.3,15.9,41,13.8,41
	z M34.2,41c-1.3,0-2.5-0.3-3.6-0.8s-2.1-1.3-3.1-2.2h2.3c0.6,0.4,1.2,0.8,2,1.1c0.7,0.3,1.5,0.4,2.4,0.4c2,0,3.7-0.7,5.1-2.1
	c1.4-1.4,2.1-3.1,2.1-5.1s-0.7-3.7-2.1-5.1c-1.4-1.4-3.1-2.1-5.1-2.1c-0.6,0-1.1,0.1-1.6,0.2s-1,0.3-1.4,0.5L25.4,16
	c-0.7,0.1-1.3,0-1.9-0.5c-0.5-0.4-0.8-1-0.8-1.7c0-0.6,0.2-1.2,0.7-1.6c0.4-0.4,1-0.6,1.6-0.6s1.2,0.2,1.6,0.6
	c0.4,0.4,0.6,1,0.6,1.6c0,0.2,0,0.5-0.1,0.7s-0.2,0.4-0.3,0.6l5.1,8.6c0.4-0.1,0.8-0.1,1.2-0.2c0.4-0.1,0.8-0.1,1.2-0.1
	c2.4,0,4.5,0.9,6.2,2.6s2.6,3.8,2.6,6.2s-0.9,4.5-2.6,6.2C38.7,40.1,36.7,41,34.2,41z M13.8,34.5c-0.6,0-1.1-0.2-1.6-0.7
	c-0.4-0.4-0.7-1-0.7-1.6c0-0.6,0.2-1.1,0.7-1.6s1.1-0.7,1.9-0.6l5.5-9.3c-1.1-0.9-2-1.9-2.6-3.2c-0.6-1.2-0.9-2.5-0.9-3.8
	c0-2.4,0.9-4.5,2.6-6.2C20.5,5.9,22.6,5,25,5s4.4,0.8,6.1,2.5c1.7,1.7,2.6,3.7,2.6,6h-1.5c0-2-0.8-3.6-2.2-5c-1.4-1.4-3.1-2-5.1-2
	s-3.7,0.7-5.1,2.1s-2.1,3.1-2.1,5.1c0,1.4,0.4,2.7,1.1,3.8c0.7,1.1,1.7,2,3,2.7l-6.3,10.6c0.1,0.2,0.3,0.4,0.3,0.7
	C16,31.8,16,32,16,32.2c0,0.6-0.2,1.1-0.6,1.6C14.9,34.2,14.4,34.5,13.8,34.5z"/>
</svg>
