<?xml version="1.0" encoding="utf-8"?>
<!-- Generator: Adobe Illustrator 26.3.1, SVG Export Plug-In . SVG Version: 6.00 Build 0)  -->
<svg version="1.1" id="Слой_1" xmlns="http://www.w3.org/2000/svg" xmlns:xlink="http://www.w3.org/1999/xlink" x="0px" y="0px"
	 viewBox="0 0 48 48" style="enable-background:new 0 0 48 48;" xml:space="preserve">
<path d="M7.8,15.4c0-1,0.4-1.9,1.1-2.6c0.7-0.7,1.6-1.1,2.6-1.1h24.9c1,0,1.9,0.4,2.6,1.1c0.7,0.7,1.1,1.6,1.1,2.6v3.3
	c1.1-0.1,2,0.2,2.7,0.9s1.1,1.5,1.1,2.6v11.1c0,1-0.4,1.9-1.1,2.6c-0.7,0.7-1.6,1.1-2.6,1.1H7.7c-1,0-1.9-0.4-2.6-1.1
	C4.4,35.1,4,34.3,4,33.2v-11c0-1.1,0.4-2,1.1-2.6s1.6-0.9,2.7-0.9V15.4z M9.4,15.4v3.8c0.5,0.3,0.9,0.7,1.3,1.2
	c0.3,0.5,0.5,1.1,0.5,1.8v6h25.7v-6c0-0.7,0.2-1.3,0.5-1.8s0.8-0.9,1.3-1.2v-3.8c0-0.6-0.2-1.2-0.6-1.6c-0.4-0.4-0.9-0.6-1.6-0.6
	h-25c-0.6,0-1.2,0.2-1.6,0.6C9.6,14.2,9.4,14.8,9.4,15.4z M38.4,29.7H9.6v-7.5c0-0.3,0-0.6-0.1-0.8c-0.1-0.2-0.2-0.4-0.4-0.6
	s-0.4-0.3-0.6-0.4c-0.2-0.1-0.5-0.1-0.8-0.1c-0.6,0-1.1,0.2-1.5,0.6s-0.6,0.9-0.6,1.5v11c0,0.6,0.2,1.1,0.6,1.6
	c0.4,0.4,0.9,0.6,1.6,0.6h32.6c0.6,0,1.2-0.2,1.6-0.6c0.4-0.4,0.6-0.9,0.6-1.6V22.2c0-0.6-0.2-1.1-0.6-1.5s-0.9-0.6-1.5-0.6
	c-0.3,0-0.6,0-0.8,0.1s-0.5,0.2-0.7,0.4s-0.3,0.4-0.4,0.6c-0.1,0.2-0.1,0.5-0.1,0.8C38.4,22.2,38.4,29.7,38.4,29.7z"/>
</svg>
