<?xml version="1.0" encoding="utf-8"?>
<!-- Generator: Adobe Illustrator 26.3.1, SVG Export Plug-In . SVG Version: 6.00 Build 0)  -->
<svg version="1.1" id="Слой_1" xmlns="http://www.w3.org/2000/svg" xmlns:xlink="http://www.w3.org/1999/xlink" x="0px" y="0px"
	 viewBox="0 0 48 48" style="enable-background:new 0 0 48 48;" xml:space="preserve">
<path d="M24,42c-1.8,0-3.6-0.3-5.4-0.9c-1.8-0.6-3.5-1.4-5.1-2.5l1.1-1.1c1.4,1,2.9,1.7,4.5,2.2s3.2,0.8,4.9,0.8
	c4.6,0,8.5-1.6,11.7-4.8s4.8-7.1,4.8-11.7s-1.6-8.5-4.8-11.7S28.6,7.5,24,7.5s-8.5,1.6-11.7,4.8S7.5,19.4,7.5,24H6
	c0-2.5,0.5-4.8,1.4-7s2.2-4.1,3.9-5.7c1.6-1.6,3.5-2.9,5.7-3.9C19.2,6.5,21.5,6,24,6s4.8,0.5,7,1.4s4.1,2.2,5.7,3.9
	c1.6,1.6,2.9,3.5,3.9,5.7c0.9,2.2,1.4,4.5,1.4,7s-0.5,4.8-1.4,7s-2.2,4.1-3.9,5.7c-1.6,1.6-3.5,2.9-5.7,3.9C28.8,41.5,26.5,42,24,42
	z M8.5,33.2l7.2-7.2l6.2,5.2L33.1,20v7.3h1.5v-9.8h-9.8V19H32L21.9,29.2L15.8,24l-7.9,7.9c0.1,0.2,0.2,0.5,0.3,0.7
	C8.3,32.7,8.4,33,8.5,33.2z"/>
</svg>
