<?xml version="1.0" encoding="utf-8"?>
<!-- Generator: Adobe Illustrator 26.3.1, SVG Export Plug-In . SVG Version: 6.00 Build 0)  -->
<svg version="1.1" id="Слой_1" xmlns="http://www.w3.org/2000/svg" xmlns:xlink="http://www.w3.org/1999/xlink" x="0px" y="0px"
	 viewBox="0 0 48 48" style="enable-background:new 0 0 48 48;" xml:space="preserve">
<path d="M13,11.3c-0.9,0-1.7-0.3-2.3-1C10.1,9.7,9.8,8.9,9.8,8s0.3-1.7,0.9-2.3c0.6-0.6,1.4-0.9,2.3-0.9c0.9,0,1.7,0.3,2.3,0.9
	s0.9,1.4,0.9,2.3s-0.3,1.6-0.9,2.3C14.7,11,13.9,11.3,13,11.3z M9.7,43V29.8H6.2v-12c0-0.8,0.3-1.4,0.8-2C7.5,15.3,8.2,15,9,15h8.2
	c0.8,0,1.4,0.3,2,0.8c0.5,0.5,0.8,1.2,0.8,2v6.1c-1.5,1-2.7,2.4-3.8,4.2c-1,1.8-1.5,3.8-1.5,6c0,1.3,0.2,2.5,0.5,3.5
	c0.3,1.1,0.7,1.9,1,2.6V43C16.1,43,9.7,43,9.7,43z M27.1,43.1c-2.5,0-4.6-0.9-6.3-2.6c-1.8-1.8-2.6-3.9-2.6-6.4
	c0-1.7,0.5-3.3,1.4-4.8c0.9-1.6,2.3-2.7,4.2-3.4v1.7c-1.3,0.7-2.3,1.6-3,2.8c-0.7,1.2-1.1,2.4-1.1,3.8c0,2.1,0.7,3.9,2.1,5.3
	s3.2,2.1,5.3,2.1c1.9,0,3.6-0.7,5.1-2.1c1.5-1.4,2.2-3.2,2.2-5.3h1.5c0,2.5-0.9,4.6-2.6,6.4C31.6,42.2,29.5,43.1,27.1,43.1z
	 M42.5,38.2l-4.9-7.4H27V17.2h1.5v12h9.9l5.4,8.1C43.8,37.3,42.5,38.2,42.5,38.2z"/>
</svg>
