<?xml version="1.0" encoding="utf-8"?>
<!-- Generator: Adobe Illustrator 26.3.1, SVG Export Plug-In . SVG Version: 6.00 Build 0)  -->
<svg version="1.1" id="Слой_1" xmlns="http://www.w3.org/2000/svg" xmlns:xlink="http://www.w3.org/1999/xlink" x="0px" y="0px"
	 viewBox="0 0 48 48" style="enable-background:new 0 0 48 48;" xml:space="preserve">
<path d="M8.8,38c-0.7,0-1.4-0.3-1.9-0.8C6.3,36.6,6,36,6,35.2V12.8c0-0.7,0.3-1.4,0.8-1.9C7.4,10.3,8,10,8.8,10h30.5
	c0.7,0,1.4,0.3,1.9,0.8S42,12,42,12.7v22.5c0,0.7-0.3,1.4-0.8,1.9c-0.6,0.6-1.2,0.9-2,0.9H8.8z M8.8,36.5h8.7v-25H8.8
	c-0.4,0-0.7,0.1-0.9,0.3c-0.2,0.2-0.3,0.5-0.3,0.9v22.5c0,0.4,0.1,0.7,0.3,0.9C8.1,36.3,8.4,36.5,8.8,36.5z M19,36.5h10v-25H19V36.5
	z M30.5,36.5h8.7c0.4,0,0.7-0.1,0.9-0.3s0.3-0.5,0.3-0.9V12.8c0-0.4-0.1-0.7-0.3-0.9s-0.5-0.3-0.9-0.3h-8.7
	C30.5,11.5,30.5,36.5,30.5,36.5z M19,36.5v-25V36.5z"/>
</svg>
