<?xml version="1.0" encoding="utf-8"?>
<!-- Generator: Adobe Illustrator 26.3.1, SVG Export Plug-In . SVG Version: 6.00 Build 0)  -->
<svg version="1.1" id="Слой_1" xmlns="http://www.w3.org/2000/svg" xmlns:xlink="http://www.w3.org/1999/xlink" x="0px" y="0px"
	 viewBox="0 0 48 48" style="enable-background:new 0 0 48 48;" xml:space="preserve">
<path d="M7.1,41c0.4-2.7,0.9-5.7,1.6-8.9s1.5-6.1,2.4-8.6c0.8-2.1,1.6-3.7,2.4-4.8c0.8-1.1,1.7-1.7,2.5-1.7c0.7,0,1.3,0.4,2,1.3
	c0.7,0.8,1.4,2,2,3.5c0.7,1.5,1.3,3.3,1.9,5.4s1.1,4.5,1.6,7.1c0.5-4.3,1-8.1,1.5-11.4c0.6-3.4,1.3-6.2,2-8.6
	c0.8-2.4,1.6-4.2,2.4-5.4C30.2,7.6,31.1,7,32,7c1.1,0,2.1,0.8,3,2.3s1.8,3.8,2.6,6.7c1,3.7,1.7,7.8,2.3,12.4
	C40.4,33,40.7,37.2,41,41h-1.8c-0.8-3.2-1.9-6-3.4-8.4s-2.7-3.7-3.8-3.8c-1,0.1-2.2,1.4-3.6,3.8C27,34.9,25.9,37.8,25,41h-1.9
	c-0.4-3.1-1-5.9-1.5-8.6c-0.6-2.7-1.2-5-1.9-7c-0.6-2-1.3-3.6-1.9-4.9c-0.7-1.2-1.2-1.9-1.8-2.1c-0.7,0.3-1.3,1-2,2.3
	c-0.7,1.2-1.3,2.9-2,4.9c-0.6,2-1.3,4.3-1.8,6.9c-0.6,2.6-1.1,5.4-1.5,8.5C8.7,41,7.1,41,7.1,41z M25,36.2c1-2.8,2.2-5,3.4-6.6
	c1.2-1.6,2.4-2.4,3.6-2.4s2.4,0.8,3.7,2.4s2.4,3.8,3.4,6.6c-0.3-3.8-0.7-7.3-1.2-10.6s-1-6.2-1.7-8.7c-0.6-2.5-1.3-4.5-2.1-6
	c-0.7-1.5-1.5-2.3-2.3-2.4c-0.7,0.1-1.4,0.9-2.2,2.4c-0.7,1.5-1.4,3.4-2,5.9s-1.2,5.4-1.6,8.7C25.7,28.8,25.3,32.4,25,36.2z"/>
</svg>
