<?xml version="1.0" encoding="utf-8"?>
<!-- Generator: Adobe Illustrator 26.3.1, SVG Export Plug-In . SVG Version: 6.00 Build 0)  -->
<svg version="1.1" id="Слой_1" xmlns="http://www.w3.org/2000/svg" xmlns:xlink="http://www.w3.org/1999/xlink" x="0px" y="0px"
	 viewBox="0 0 48 48" style="enable-background:new 0 0 48 48;" xml:space="preserve">
<path d="M32.8,39.2c-0.5,0-1-0.2-1.3-0.5c-0.4-0.4-0.5-0.8-0.5-1.3V32c0-0.5,0.2-0.9,0.5-1.3c0.4-0.4,0.8-0.5,1.3-0.5H33v-2
	c0-1,0.4-1.8,1.1-2.5c0.7-0.7,1.6-1.1,2.6-1.1s1.8,0.4,2.5,1.1s1,1.6,1,2.5v2h0.2c0.5,0,1,0.2,1.3,0.5s0.5,0.8,0.5,1.3v5.4
	c0,0.5-0.2,0.9-0.5,1.3c-0.4,0.4-0.8,0.5-1.3,0.5C40.3,39.2,32.8,39.2,32.8,39.2z M34.6,30.1h4.1v-2c0-0.6-0.2-1.1-0.6-1.5
	c-0.4-0.4-0.9-0.6-1.4-0.6c-0.6,0-1.1,0.2-1.5,0.6s-0.6,0.9-0.6,1.5V30.1z M24,39.2L2.8,18c3-2.6,6.2-4.5,9.8-5.9S20,10,24,10
	s7.7,0.7,11.3,2.1s6.9,3.4,9.8,5.9L41,22.2c-0.2-0.2-0.4-0.4-0.5-0.5c-0.2-0.2-0.3-0.3-0.5-0.5l2.9-2.9c-2.7-2.1-5.7-3.7-8.9-4.9
	s-6.5-1.7-10-1.7s-6.8,0.6-10,1.7c-3.2,1.2-6.1,2.8-8.9,4.9L24,37.1l3.4-3.4c0.2,0.2,0.4,0.4,0.5,0.5l0.5,0.5L24,39.2z"/>
</svg>
