<?xml version="1.0" encoding="utf-8"?>
<!-- Generator: Adobe Illustrator 26.3.1, SVG Export Plug-In . SVG Version: 6.00 Build 0)  -->
<svg version="1.1" id="Слой_1" xmlns="http://www.w3.org/2000/svg" xmlns:xlink="http://www.w3.org/1999/xlink" x="0px" y="0px"
	 viewBox="0 0 48 48" style="enable-background:new 0 0 48 48;" xml:space="preserve">
<path d="M10,38V18.6l-4.2,3.2l-0.9-1.2L24,6l19.1,14.6l-0.9,1.2L38,18.6L24,8l-12.5,9.5v19h10.9c0,0.2,0.1,0.5,0.1,0.8
	s0,0.5,0.1,0.8C22.6,38,10,38,10,38z M33.9,45.5h-6.8v-1.8h3.7c-1.1-1-2-2.1-2.7-3.4c-0.7-1.3-1-2.7-1-4.2c0-2.1,0.6-4,1.9-5.7
	c1.3-1.6,2.9-2.7,4.9-3.3v1.8c-1.5,0.5-2.7,1.5-3.6,2.7c-0.9,1.3-1.4,2.8-1.4,4.4c0,1.2,0.3,2.4,0.9,3.5s1.4,2.1,2.3,2.9v-3.8h1.8
	C33.9,38.7,33.9,45.5,33.9,45.5z M38.2,45.1v-1.9c1.5-0.5,2.7-1.5,3.6-2.8c0.9-1.3,1.4-2.8,1.4-4.3c0-1.2-0.3-2.4-0.9-3.5
	c-0.6-1.1-1.4-2.1-2.3-2.9v3.8h-1.8v-6.8H45v1.8h-3.7c1.1,1,2,2.1,2.7,3.4c0.7,1.3,1,2.7,1,4.2c0,2.1-0.6,4-1.9,5.7
	C41.8,43.4,40.2,44.5,38.2,45.1z"/>
</svg>
