<?xml version="1.0" encoding="utf-8"?>
<!-- Generator: Adobe Illustrator 26.3.1, SVG Export Plug-In . SVG Version: 6.00 Build 0)  -->
<svg version="1.1" id="Слой_1" xmlns="http://www.w3.org/2000/svg" xmlns:xlink="http://www.w3.org/1999/xlink" x="0px" y="0px"
	 viewBox="0 0 48 48" style="enable-background:new 0 0 48 48;" xml:space="preserve">
<path d="M24,39.2L2.8,18c3-2.6,6.3-4.6,9.9-6s7.4-2,11.2-2s7.6,0.7,11.3,2c3.7,1.4,7,3.3,9.9,6L44,19.1c-2.8-2.3-5.9-4.1-9.4-5.5
	c-3.4-1.4-7-2-10.7-2s-7.1,0.6-10.3,1.9c-3.2,1.2-6.1,2.8-8.5,4.8l20,19.9C25.1,38.1,24,39.2,24,39.2z M42.9,37.9l-5.3-5.4
	c-0.5,0.4-1,0.7-1.7,1c-0.6,0.2-1.3,0.4-2,0.4c-1.6,0-2.9-0.6-4.1-1.7c-1.1-1.1-1.7-2.5-1.7-4.1s0.6-2.9,1.7-4.1
	c1.1-1.1,2.5-1.7,4.1-1.7s2.9,0.6,4.1,1.7c1.1,1.1,1.7,2.5,1.7,4.1c0,0.6-0.1,1.2-0.3,1.8c-0.2,0.6-0.5,1.1-0.8,1.5l5.4,5.4
	C44,36.8,42.9,37.9,42.9,37.9z M34,32.2c1.2,0,2.2-0.4,3-1.2c0.8-0.8,1.2-1.8,1.2-3s-0.4-2.2-1.2-3s-1.8-1.2-3-1.2s-2.2,0.4-3,1.2
	c-0.8,0.8-1.2,1.8-1.2,3s0.4,2.2,1.2,3C31.8,31.8,32.8,32.2,34,32.2z"/>
</svg>
