<?xml version="1.0" encoding="utf-8"?>
<!-- Generator: Adobe Illustrator 26.3.1, SVG Export Plug-In . SVG Version: 6.00 Build 0)  -->
<svg version="1.1" id="Слой_1" xmlns="http://www.w3.org/2000/svg" xmlns:xlink="http://www.w3.org/1999/xlink" x="0px" y="0px"
	 viewBox="0 0 48 48" style="enable-background:new 0 0 48 48;" xml:space="preserve">
<path d="M12.4,39.1c-1.7-1.7-3.1-3.6-4.1-5.8s-1.5-4.6-1.5-7.2c0-2.5,0.5-4.8,1.4-7s2.2-4.1,3.9-5.7c1.6-1.6,3.5-2.9,5.7-3.8
	C20,8.5,22.3,8,24.8,8c3.2,0,6.2,0.8,8.8,2.3s4.8,3.5,6.4,6h-1.8c-1.5-2-3.4-3.7-5.7-4.9s-4.8-1.9-7.6-1.9c-4.6,0-8.5,1.6-11.7,4.8
	S8.4,21.4,8.4,26c0,2.4,0.5,4.6,1.4,6.7c0.9,2,2.2,3.8,3.8,5.3C13.6,38,12.4,39.1,12.4,39.1z M18.1,33.4c-1-0.9-1.8-2-2.4-3.3
	s-0.9-2.7-0.9-4.1c0-2.8,1-5.1,2.9-7.1c2-1.9,4.3-2.9,7.1-2.9s5.2,1,7.1,2.9s2.9,4.3,2.9,7.1c0,1.5-0.3,2.8-0.9,4.1
	c-0.6,1.3-1.4,2.4-2.4,3.3l-1.1-1.1c0.8-0.8,1.5-1.7,2-2.8s0.8-2.3,0.8-3.5c0-2.4-0.8-4.4-2.5-6c-1.6-1.6-3.6-2.5-6-2.5
	s-4.4,0.8-6,2.5c-1.6,1.6-2.5,3.6-2.5,6c0,1.3,0.3,2.5,0.8,3.5c0.5,1.1,1.2,2,2.1,2.8C19.2,32.3,18.1,33.4,18.1,33.4z M24.8,28
	c-0.5,0-1-0.2-1.4-0.6s-0.6-0.9-0.6-1.4s0.2-1,0.6-1.4s0.9-0.6,1.4-0.6c0.6,0,1,0.2,1.4,0.6s0.6,0.9,0.6,1.4s-0.2,1-0.6,1.4
	C25.9,27.8,25.4,28,24.8,28z M40.1,37.8c-0.3,0-0.5-0.1-0.8-0.3C39.1,37.2,39,37,39,36.7s0.1-0.6,0.3-0.8s0.5-0.3,0.8-0.3
	s0.6,0.1,0.8,0.3s0.3,0.5,0.3,0.8s-0.1,0.5-0.3,0.8C40.7,37.7,40.4,37.8,40.1,37.8z M39.3,32.3V20.8h1.5v11.5H39.3z"/>
</svg>
