<?xml version="1.0" encoding="utf-8"?>
<!-- Generator: Adobe Illustrator 26.3.1, SVG Export Plug-In . SVG Version: 6.00 Build 0)  -->
<svg version="1.1" id="Слой_1" xmlns="http://www.w3.org/2000/svg" xmlns:xlink="http://www.w3.org/1999/xlink" x="0px" y="0px"
	 viewBox="0 0 48 48" style="enable-background:new 0 0 48 48;" xml:space="preserve">
<path d="M24,42.8c-0.9,0-1.7-0.3-2.3-0.9c-0.6-0.6-0.9-1.4-0.9-2.3h6.5c0,0.9-0.3,1.7-1,2.3C25.6,42.5,24.9,42.8,24,42.8z M10,37.5
	V36h3.2V19.6c0-2.6,0.8-4.9,2.5-7c1.6-2,3.7-3.3,6.3-3.7V8c0-0.6,0.2-1,0.6-1.4S23.4,6,24,6s1,0.2,1.4,0.6S26,7.4,26,8v0.9
	c1,0.2,1.9,0.5,2.8,0.9s1.7,1,2.4,1.6c-0.3,0.1-0.6,0.2-0.9,0.2c-0.3,0.1-0.6,0.2-0.9,0.2c-0.8-0.5-1.6-0.9-2.5-1.2
	s-1.8-0.4-2.8-0.4c-2.6,0-4.7,0.9-6.5,2.7s-2.7,4-2.7,6.5V36H38v1.5H10z M25.5,20l-1.3-1.3c1.4-1.3,3-2.3,4.7-3
	c1.8-0.7,3.7-1.1,5.7-1.1s3.9,0.4,5.7,1.1s3.3,1.7,4.7,3L43.9,20c-1.2-1.1-2.6-2-4.2-2.6c-1.6-0.6-3.3-1-5-1s-3.4,0.3-5,1
	C28.1,18,26.7,18.9,25.5,20z M29.8,24.2l-1.2-1.3c0.8-0.7,1.7-1.3,2.8-1.7c1-0.4,2.1-0.6,3.3-0.6s2.3,0.2,3.4,0.6
	c1.1,0.4,2,1,2.8,1.7l-1.3,1.3c-0.7-0.6-1.4-1-2.2-1.4c-0.8-0.3-1.7-0.5-2.7-0.5s-1.8,0.2-2.7,0.5C31.2,23.2,30.4,23.6,29.8,24.2z
	 M34.7,29.1l-1.9-1.9c0.3-0.2,0.5-0.3,0.9-0.5c0.3-0.1,0.7-0.2,1-0.2s0.7,0.1,1,0.2s0.6,0.3,0.9,0.5C36.6,27.2,34.7,29.1,34.7,29.1z
	"/>
</svg>
