<?xml version="1.0" encoding="utf-8"?>
<!-- Generator: Adobe Illustrator 26.3.1, SVG Export Plug-In . SVG Version: 6.00 Build 0)  -->
<svg version="1.1" id="Слой_1" xmlns="http://www.w3.org/2000/svg" xmlns:xlink="http://www.w3.org/1999/xlink" x="0px" y="0px"
	 viewBox="0 0 48 48" style="enable-background:new 0 0 48 48;" xml:space="preserve">
<path d="M3.7,22l-1.5-1.5c2.8-2.9,6.1-5.1,9.8-6.8s7.8-2.5,12.1-2.5s8.3,0.8,12.1,2.5c3.7,1.7,7,4,9.8,6.8L44.3,22
	c-2.8-2.7-5.8-4.8-9.3-6.3c-3.4-1.6-7.1-2.3-11-2.3s-7.6,0.8-11,2.3C9.5,17.2,6.4,19.3,3.7,22z M12.2,30.5l-1.5-1.6
	c1.9-1.9,3.9-3.3,6.2-4.3c2.2-1,4.6-1.5,7.2-1.5s5,0.5,7.2,1.5s4.3,2.4,6.2,4.3L36,30.5c-1.7-1.7-3.6-3-5.6-3.9s-4.1-1.3-6.2-1.3
	c-2.2,0-4.2,0.4-6.2,1.3C15.8,27.4,13.9,28.7,12.2,30.5z M24,40.7c-0.8,0-1.5-0.3-2-0.8c-0.6-0.6-0.8-1.2-0.8-2s0.3-1.5,0.8-2
	c0.6-0.6,1.2-0.8,2-0.8s1.5,0.3,2,0.8c0.6,0.6,0.8,1.2,0.8,2s-0.3,1.4-0.8,2C25.5,40.4,24.8,40.7,24,40.7z M38.2,47.5
	c-0.5,0-0.9-0.2-1.3-0.6c-0.4-0.4-0.6-0.8-0.6-1.3v-5.3c0-0.5,0.2-0.9,0.6-1.3c0.4-0.4,0.8-0.6,1.3-0.6h0.2v-2c0-1,0.3-1.9,1-2.6
	c0.7-0.7,1.5-1,2.5-1s1.9,0.3,2.6,1c0.7,0.7,1,1.5,1,2.6v2h0.2c0.5,0,0.9,0.2,1.3,0.6c0.3,0.4,0.5,0.8,0.5,1.3v5.3
	c0,0.5-0.2,0.9-0.6,1.3c-0.4,0.4-0.8,0.6-1.3,0.6C45.7,47.5,38.2,47.5,38.2,47.5z M39.9,38.4H44v-2c0-0.6-0.2-1.1-0.6-1.5
	c-0.4-0.4-0.9-0.6-1.5-0.6s-1.1,0.2-1.4,0.6c-0.4,0.4-0.6,0.9-0.6,1.5C39.9,36.5,39.9,38.4,39.9,38.4z"/>
</svg>
