<?xml version="1.0" encoding="utf-8"?>
<!-- Generator: Adobe Illustrator 26.3.1, SVG Export Plug-In . SVG Version: 6.00 Build 0)  -->
<svg version="1.1" id="Слой_1" xmlns="http://www.w3.org/2000/svg" xmlns:xlink="http://www.w3.org/1999/xlink" x="0px" y="0px"
	 viewBox="0 0 48 48" style="enable-background:new 0 0 48 48;" xml:space="preserve">
<path d="M30.8,36.6c0.5-1,1-2.1,1.2-3.2c0.3-1.1,0.4-2.3,0.4-3.5c0-2.5-0.5-4.7-1.6-6.8s-2.6-3.8-4.4-5.2l-4.3,4.3v-15H37l-4.3,4.3
	c1.6,1.5,2.9,3.2,3.9,5.2s1.4,4.2,1.4,6.6c0,2.8-0.7,5.4-2,7.7C34.8,33.3,33,35.1,30.8,36.6z M11,40.8l4.3-4.3
	c-1.6-1.5-2.9-3.2-3.9-5.2S10,27.1,10,24.7c0-2.8,0.7-5.4,2-7.7s3.1-4.2,5.3-5.6c-0.5,1-1,2.1-1.2,3.2c-0.3,1.1-0.4,2.3-0.4,3.5
	c0,2.5,0.5,4.7,1.6,6.8s2.5,3.8,4.4,5.2l4.3-4.3v14.9C25.8,40.8,11,40.8,11,40.8z"/>
</svg>
