<?xml version="1.0" encoding="utf-8"?>
<!-- Generator: Adobe Illustrator 26.3.1, SVG Export Plug-In . SVG Version: 6.00 Build 0)  -->
<svg version="1.1" id="Слой_1" xmlns="http://www.w3.org/2000/svg" xmlns:xlink="http://www.w3.org/1999/xlink" x="0px" y="0px"
	 viewBox="0 0 48 48" style="enable-background:new 0 0 48 48;" xml:space="preserve">
<path d="M37,39.2v-6h-6v-1.5h6v-6h1.5v6h6v1.5h-6v6H37z M24,39.2L2.8,18c3-2.6,6.2-4.5,9.8-5.9S20,10,24,10s7.7,0.7,11.3,2.1
	s6.9,3.4,9.8,5.9l-4.5,4.5c-0.2-0.2-0.4-0.4-0.5-0.5c-0.2-0.2-0.4-0.3-0.6-0.5l3.2-3.2c-2.7-2.1-5.7-3.7-8.9-4.9
	c-3.2-1.2-6.5-1.7-10-1.7s-6.8,0.6-10,1.7c-3.2,1.2-6.1,2.8-8.9,4.9L24,37.1l3.4-3.4c0.2,0.2,0.4,0.4,0.5,0.5l0.5,0.5L24,39.2z"/>
</svg>
