<?xml version="1.0" encoding="utf-8"?>
<!-- Generator: Adobe Illustrator 26.3.1, SVG Export Plug-In . SVG Version: 6.00 Build 0)  -->
<svg version="1.1" id="Слой_1" xmlns="http://www.w3.org/2000/svg" xmlns:xlink="http://www.w3.org/1999/xlink" x="0px" y="0px"
	 viewBox="0 0 48 48" style="enable-background:new 0 0 48 48;" xml:space="preserve">
<path d="M22.6,44c0-0.5,0.2-0.8,0.7-1.1s1.1-0.4,1.9-0.4V30.3c-0.7-0.1-1.2-0.4-1.7-0.7c-0.5-0.4-0.9-0.8-1.2-1.4l-5.2,3.2
	c-0.2,0.1-0.4,0.2-0.7,0.3c-0.3,0-0.6,0-0.9-0.1l-9-2.5c-0.6-0.2-1-0.5-1.3-0.9c-0.3-0.5-0.5-1-0.5-1.5c0-0.7,0.2-1.3,0.7-1.8
	C5.9,24.2,6.5,24,7.2,24h15c0.3-0.5,0.7-1,1.1-1.4c0.5-0.4,1-0.7,1.6-0.8v-7c0-0.3,0.1-0.5,0.2-0.8s0.3-0.5,0.5-0.7L32.5,7
	c0.4-0.4,0.9-0.7,1.5-0.7c0.6-0.1,1.1,0.1,1.6,0.4c0.6,0.4,1,0.9,1.2,1.6s0.1,1.3-0.3,1.9l-7.7,12.7c0.6,0.4,1,0.9,1.3,1.8
	c0.3,0.8,0.3,1.6,0.1,2.3l6.2,1.5c0.3,0.1,0.5,0.2,0.7,0.3c0.2,0.1,0.4,0.3,0.5,0.6l4.5,8.2c0.3,0.5,0.4,1.1,0.3,1.6
	c-0.1,0.6-0.3,1-0.8,1.5s-1.1,0.7-1.8,0.7s-1.3-0.3-1.8-0.8L27.6,30.1c-0.1,0.1-0.3,0.1-0.4,0.2s-0.3,0.1-0.4,0.1v12
	c0.8,0,1.5,0.1,1.9,0.4c0.5,0.3,0.7,0.7,0.7,1.1C29.4,44,22.6,44,22.6,44z M10,9.8V8.2h10v1.5H10V9.8z M26.5,14.6v7.1
	c0.2,0,0.3,0.1,0.5,0.1c0.2,0.1,0.3,0.1,0.4,0.2l7.7-12.7c0.2-0.2,0.2-0.5,0.1-0.8C35.1,8.2,35,8,34.7,7.9c-0.2-0.1-0.4-0.2-0.7-0.1
	c-0.2,0-0.4,0.1-0.6,0.3L26.5,14.6z M4,17.8v-1.5h8v1.5H4z M26,28.8c0.8,0,1.5-0.3,2-0.8s0.8-1.2,0.8-2s-0.3-1.5-0.8-2
	s-1.2-0.8-2-0.8s-1.5,0.3-2,0.8s-0.8,1.2-0.8,2s0.3,1.5,0.8,2C24.5,28.6,25.2,28.8,26,28.8z M16.1,30.2l5.7-3.6
	c-0.1-0.2-0.1-0.4-0.1-0.6s0-0.4,0.1-0.6H7.2c-0.3,0-0.5,0.1-0.7,0.3c-0.2,0.2-0.3,0.4-0.3,0.7c0,0.2,0.1,0.4,0.2,0.6
	s0.3,0.3,0.5,0.4L16.1,30.2z M36.2,30l-6.6-1.6c-0.1,0.2-0.2,0.3-0.3,0.5c-0.1,0.1-0.2,0.3-0.4,0.4l10.2,10.3
	c0.2,0.2,0.5,0.3,0.7,0.3c0.3,0,0.5-0.1,0.7-0.3s0.3-0.4,0.3-0.6c0-0.2,0-0.4-0.1-0.6L36.2,30z M8,39.8v-1.5h8v1.5H8z"/>
</svg>
