<?xml version="1.0" encoding="utf-8"?>
<!-- Generator: Adobe Illustrator 26.3.1, SVG Export Plug-In . SVG Version: 6.00 Build 0)  -->
<svg version="1.1" id="Слой_1" xmlns="http://www.w3.org/2000/svg" xmlns:xlink="http://www.w3.org/1999/xlink" x="0px" y="0px"
	 viewBox="0 0 48 48" style="enable-background:new 0 0 48 48;" xml:space="preserve">
<path d="M43.2,17.5c-0.2,0-0.4-0.1-0.5-0.2s-0.2-0.3-0.2-0.5v-8c0-0.2,0.1-0.4,0.2-0.5C42.8,8.1,43,8,43.2,8s0.4,0.1,0.5,0.2
	C43.9,8.4,44,8.6,44,8.8v8c0,0.2-0.1,0.4-0.2,0.5C43.6,17.5,43.4,17.5,43.2,17.5z M8,40V8h28v32H8z M9.5,23.2h10.9v-1.5h3.1v1.5
	h10.9V9.5H9.5V23.2z M9.5,38.5h24.9V24.8H9.5V38.5z M9.5,38.5h24.9C34.5,38.5,9.5,38.5,9.5,38.5z"/>
</svg>
