<?xml version="1.0" encoding="utf-8"?>
<!-- Generator: Adobe Illustrator 26.3.1, SVG Export Plug-In . SVG Version: 6.00 Build 0)  -->
<svg version="1.1" id="Слой_1" xmlns="http://www.w3.org/2000/svg" xmlns:xlink="http://www.w3.org/1999/xlink" x="0px" y="0px"
	 viewBox="0 0 48 48" style="enable-background:new 0 0 48 48;" xml:space="preserve">
<path d="M19.8,26.6l1.6-5.2l-4.2-3h5.1L24,13l1.6,5.4h5.2l-4.1,3l1.6,5.2L24,23.4L19.8,26.6z M14.1,42.9V29.8
	c-1.4-1.3-2.4-2.8-3.1-4.5c-0.7-1.7-1-3.5-1-5.3c0-3.9,1.4-7.2,4.1-9.9S20.1,6,24,6s7.2,1.4,9.9,4.1s4.1,6,4.1,9.9
	c0,1.8-0.3,3.6-1,5.3c-0.7,1.7-1.7,3.2-3.1,4.5v13.1l-9.9-3L14.1,42.9z M24,32.5c3.5,0,6.4-1.2,8.8-3.6s3.6-5.4,3.6-8.8
	c0-3.5-1.2-6.4-3.6-8.8S27.4,7.7,24,7.7c-3.5,0-6.4,1.2-8.8,3.6s-3.6,5.4-3.6,8.8c0,3.5,1.2,6.4,3.6,8.8S20.5,32.5,24,32.5z
	 M15.6,40.9l8.4-2.6l8.4,2.6v-9.7c-1.2,1-2.5,1.7-4,2.2C27,33.8,25.5,34,24,34s-3-0.2-4.4-0.7s-2.8-1.2-4-2.2
	C15.6,31.1,15.6,40.9,15.6,40.9z"/>
</svg>
