<?xml version="1.0" encoding="utf-8"?>
<!-- Generator: Adobe Illustrator 26.3.1, SVG Export Plug-In . SVG Version: 6.00 Build 0)  -->
<svg version="1.1" id="Слой_1" xmlns="http://www.w3.org/2000/svg" xmlns:xlink="http://www.w3.org/1999/xlink" x="0px" y="0px"
	 viewBox="0 0 48 48" style="enable-background:new 0 0 48 48;" xml:space="preserve">
<path d="M7.5,38.5v-23V38.5z M8.8,40c-0.8,0-1.4-0.3-2-0.8C6.3,38.7,6,38,6,37.2V16.8c0-0.8,0.3-1.4,0.8-2C7.3,14.3,8,14,8.8,14H18
	v-3.2c0-0.8,0.3-1.4,0.8-2C19.3,8.3,20,8,20.8,8h6.5c0.8,0,1.4,0.3,2,0.8c0.5,0.5,0.8,1.2,0.8,2V14h9.2c0.8,0,1.4,0.3,2,0.8
	c0.5,0.5,0.8,1.2,0.8,2v9.6c-0.2-0.2-0.5-0.3-0.7-0.5c-0.3-0.1-0.5-0.3-0.8-0.4v-8.7c0-0.4-0.1-0.7-0.3-0.9
	c-0.2-0.2-0.5-0.3-0.9-0.3H8.8c-0.4,0-0.7,0.1-0.9,0.3c-0.2,0.2-0.3,0.5-0.3,0.9v20.5c0,0.4,0.1,0.7,0.3,0.9s0.5,0.3,0.9,0.3h16.1
	c0.1,0.3,0.2,0.5,0.2,0.8c0.1,0.3,0.2,0.5,0.3,0.7H8.8z M19.5,14h8.9v-3.2c0-0.4-0.1-0.7-0.3-0.9c-0.2-0.2-0.5-0.3-0.9-0.3h-6.5
	c-0.4,0-0.7,0.1-0.9,0.3c-0.2,0.2-0.3,0.5-0.3,0.9C19.5,10.8,19.5,14,19.5,14z M36,43.8c-2.2,0-4-0.8-5.5-2.3s-2.3-3.4-2.3-5.5
	s0.8-4,2.3-5.6c1.5-1.5,3.4-2.3,5.5-2.3c2.2,0,4,0.8,5.5,2.3s2.3,3.4,2.3,5.6s-0.8,4-2.3,5.5C40,43.1,38.2,43.8,36,43.8z M36.7,35.8
	v-5.7h-1.6v6.3l4.3,4.2l1.1-1.1L36.7,35.8z"/>
</svg>
