<?xml version="1.0" encoding="utf-8"?>
<!-- Generator: Adobe Illustrator 26.3.1, SVG Export Plug-In . SVG Version: 6.00 Build 0)  -->
<svg version="1.1" id="Слой_1" xmlns="http://www.w3.org/2000/svg" xmlns:xlink="http://www.w3.org/1999/xlink" x="0px" y="0px"
	 viewBox="0 0 48 48" style="enable-background:new 0 0 48 48;" xml:space="preserve">
<path d="M22.4,41.3L13.1,32H3.4v-1.5h10.3l8.9,9l0,0c0.3-0.3,0.4-0.6,0.5-1s0-0.7-0.2-1.1L20,31.5h19.8c0.2,0,0.4,0.1,0.5,0.2
	s0.2,0.3,0.2,0.6s-0.1,0.4-0.2,0.5C40.2,32.9,40,33,39.8,33H22.6l1.4,2.8c0.4,0.8,0.5,1.6,0.4,2.5s-0.5,1.6-1.1,2.2
	C23.2,40.5,22.4,41.3,22.4,41.3z M3.4,17.5V16h8.7l2.8-2.8c0.4-0.4,0.8-0.6,1.3-0.9c0.5-0.2,1.1-0.3,1.6-0.3h20
	c0.2,0,0.4,0.1,0.5,0.2c0.1,0.1,0.2,0.3,0.2,0.6c0,0.2-0.1,0.4-0.2,0.5c-0.1,0.1-0.3,0.2-0.5,0.2h-20c-0.3,0-0.6,0.1-1,0.2
	S16.2,14,16,14.3l-3.3,3.2H3.4z M28.8,26.5V25h15c0.2,0,0.4,0.1,0.6,0.2c0.1,0.2,0.2,0.3,0.2,0.6c0,0.2-0.1,0.4-0.2,0.5
	c-0.1,0.1-0.3,0.2-0.5,0.2C43.8,26.5,28.8,26.5,28.8,26.5z M28.8,20v-1.5h13c0.2,0,0.4,0.1,0.6,0.2c0.1,0.2,0.2,0.3,0.2,0.6
	c0,0.2-0.1,0.4-0.2,0.5c-0.1,0.1-0.3,0.2-0.5,0.2C41.8,20,28.8,20,28.8,20z"/>
</svg>
