<?xml version="1.0" encoding="utf-8"?>
<!-- Generator: Adobe Illustrator 26.3.1, SVG Export Plug-In . SVG Version: 6.00 Build 0)  -->
<svg version="1.1" id="Слой_1" xmlns="http://www.w3.org/2000/svg" xmlns:xlink="http://www.w3.org/1999/xlink" x="0px" y="0px"
	 viewBox="0 0 48 48" style="enable-background:new 0 0 48 48;" xml:space="preserve">
<path d="M24,42.1c-4.7-4.2-8.3-8-10.7-11.6s-3.6-6.9-3.6-9.8c0-4.2,1.4-7.7,4.2-10.5C16.7,7.4,20,6,24,6c0.3,0,0.6,0,0.9,0
	s0.6,0.1,0.9,0.1v1.5c-0.3-0.1-0.6-0.1-0.9-0.1s-0.6,0-0.9,0c-3.6,0-6.7,1.2-9.1,3.7s-3.6,5.6-3.6,9.4c0,2.6,1.1,5.6,3.4,9
	c2.3,3.5,5.4,7,9.3,10.4c3.8-3.4,6.9-6.7,9.1-10.1s3.4-6.4,3.5-9c0-0.1,0-0.2,0-0.3c0-0.1,0-0.2,0-0.3h1.6c0,0.1,0,0.2,0,0.3
	c0,0.1,0,0.2,0,0.3c-0.1,2.9-1.3,6.2-3.7,9.7C32.1,34.1,28.6,38,24,42.1z M32,15.3l4.2-4.2l4.2,4.2l1.1-1.1L37.3,10l4.2-4.2
	l-1.1-1.1l-4.2,4.2L32,4.7l-1.1,1.1l4.2,4.2l-4.2,4.2L32,15.3z M24,23.2c0.8,0,1.5-0.3,2.1-0.9S27,21,27,20.2c0-0.8-0.3-1.5-0.9-2.1
	s-1.3-0.9-2.1-0.9c-0.8,0-1.5,0.3-2.1,0.9S21,19.4,21,20.2s0.3,1.5,0.9,2.1C22.5,22.9,23.2,23.2,24,23.2z"/>
</svg>
