<?xml version="1.0" encoding="utf-8"?>
<!-- Generator: Adobe Illustrator 26.3.1, SVG Export Plug-In . SVG Version: 6.00 Build 0)  -->
<svg version="1.1" id="Слой_1" xmlns="http://www.w3.org/2000/svg" xmlns:xlink="http://www.w3.org/1999/xlink" x="0px" y="0px"
	 viewBox="0 0 48 48" style="enable-background:new 0 0 48 48;" xml:space="preserve">
<path d="M24,38.5c0-2.7-1-5.2-3.1-7.2c-2.1-2.1-4.5-3.1-7.2-3.1c0,2.7,1,5.2,3.1,7.2C18.8,37.4,21.3,38.5,24,38.5z M24,27.7
	c0.8,0,1.4-0.2,1.9-0.7s0.7-1.1,0.7-1.9v-0.2c0.2,0.2,0.5,0.3,0.7,0.4c0.3,0.1,0.6,0.1,0.9,0.1c0.8,0,1.5-0.3,2-0.8s0.8-1.2,0.8-2
	c0-0.6-0.1-1.1-0.4-1.5s-0.6-0.7-1.1-1c0.4-0.2,0.8-0.5,1.1-1c0.3-0.4,0.4-1,0.4-1.6c0-0.8-0.3-1.4-0.8-1.9s-1.2-0.8-2-0.8
	c-0.3,0-0.6,0-0.9,0.1s-0.5,0.2-0.7,0.4v-0.4c0-0.8-0.2-1.4-0.7-1.9s-1.1-0.7-1.9-0.7s-1.4,0.2-1.9,0.7s-0.7,1.1-0.7,1.9v0.4
	c-0.2-0.2-0.5-0.3-0.7-0.4s-0.6-0.1-0.9-0.1c-0.8,0-1.5,0.3-2,0.8s-0.8,1.2-0.8,2c0,0.6,0.1,1.1,0.4,1.5s0.6,0.8,1.1,1.1
	c-0.5,0.2-0.8,0.5-1.1,0.9C17.1,21.5,17,22,17,22.6c0,0.8,0.3,1.5,0.8,2s1.2,0.8,2,0.8c0.3,0,0.6,0,0.9-0.1s0.5-0.2,0.7-0.4V25
	c0,0.8,0.2,1.4,0.7,1.9S23.2,27.7,24,27.7z M24,24.2c-1.2,0-2.2-0.4-3.1-1.3c-0.8-0.8-1.3-1.9-1.3-3c0-1.2,0.4-2.2,1.3-3.1
	c0.8-0.8,1.9-1.3,3.1-1.3s2.2,0.4,3.1,1.3c0.8,0.8,1.3,1.9,1.3,3.1s-0.4,2.2-1.3,3C26.2,23.8,25.2,24.2,24,24.2z M24,38.5
	c2.7,0,5.2-1,7.2-3.1c2.1-2.1,3.1-4.5,3.1-7.2c-2.7,0-5.2,1-7.2,3.1C25,33.3,24,35.7,24,38.5z M8.8,42c-0.8,0-1.4-0.3-2-0.8
	C6.3,40.7,6,40,6,39.2V8.8c0-0.8,0.3-1.4,0.8-2C7.3,6.3,8,6,8.8,6h30.5c0.8,0,1.4,0.3,2,0.8C41.7,7.3,42,8,42,8.8v30.5
	c0,0.8-0.3,1.4-0.8,2c-0.5,0.5-1.2,0.8-2,0.8L8.8,42L8.8,42z M8.8,40.5h30.5c0.3,0,0.6-0.1,0.8-0.4c0.3-0.3,0.4-0.5,0.4-0.8V8.8
	c0-0.3-0.1-0.6-0.4-0.8c-0.3-0.3-0.5-0.4-0.8-0.4H8.8C8.5,7.6,8.2,7.7,8,8C7.7,8.2,7.5,8.5,7.5,8.8v30.5c0,0.3,0.1,0.6,0.4,0.8
	C8.2,40.3,8.5,40.5,8.8,40.5z M7.5,40.5v-33V40.5z"/>
</svg>
