<?xml version="1.0" encoding="utf-8"?>
<!-- Generator: Adobe Illustrator 26.3.1, SVG Export Plug-In . SVG Version: 6.00 Build 0)  -->
<svg version="1.1" id="Слой_1" xmlns="http://www.w3.org/2000/svg" xmlns:xlink="http://www.w3.org/1999/xlink" x="0px" y="0px"
	 viewBox="0 0 48 48" style="enable-background:new 0 0 48 48;" xml:space="preserve">
<path d="M16.8,35.9h14.5v-1.5H16.8V35.9z M14.8,42c-0.8,0-1.4-0.3-2-0.8c-0.5-0.5-0.8-1.2-0.8-2V23.8c0-2.6,0.8-5,2.3-7
	s3.4-3.5,5.8-4.4v-0.6c0-1.1,0.4-2.1,1.1-2.9C22,8.1,22.9,7.7,24,7.7s2,0.4,2.8,1.2s1.2,1.8,1.2,2.9v0.6c2.3,0.9,4.3,2.3,5.8,4.4
	c1.5,2,2.3,4.4,2.3,7v15.5c0,0.8-0.3,1.4-0.8,2c-0.5,0.5-1.2,0.8-2,0.8C33.2,42,14.8,42,14.8,42z M14.8,40.5h18.5
	c0.3,0,0.6-0.1,0.8-0.4c0.3-0.3,0.4-0.5,0.4-0.8V23.8c0-2.9-1-5.4-3.1-7.4c-2-2-4.5-3.1-7.4-3.1s-5.4,1-7.4,3.1
	c-2,2-3.1,4.5-3.1,7.4v15.5c0,0.3,0.1,0.6,0.4,0.8C14.2,40.3,14.5,40.5,14.8,40.5z M21.6,12c0.3-0.1,0.7-0.1,1.1-0.2
	c0.5,0,0.9-0.1,1.3-0.1s0.8,0,1.3,0.1c0.5,0,0.9,0.1,1.2,0.2v-0.2c0-0.7-0.2-1.3-0.7-1.8S24.7,9.2,24,9.2s-1.3,0.2-1.7,0.8
	c-0.4,0.5-0.7,1.1-0.7,1.8C21.6,11.8,21.6,12,21.6,12z M14.8,40.5h-1.2h20.9H14.8z M20.9,27.8l3.1-2.4l3.1,2.4L26,24l3.1-2.2h-3.9
	L24,17.7l-1.2,4.1h-3.9L22,24L20.9,27.8z"/>
</svg>
