<?xml version="1.0" encoding="utf-8"?>
<!-- Generator: Adobe Illustrator 26.3.1, SVG Export Plug-In . SVG Version: 6.00 Build 0)  -->
<svg version="1.1" id="Слой_1" xmlns="http://www.w3.org/2000/svg" xmlns:xlink="http://www.w3.org/1999/xlink" x="0px" y="0px"
	 viewBox="0 0 48 48" style="enable-background:new 0 0 48 48;" xml:space="preserve">
<path d="M29.9,33.9c-0.8,0-1.5,0.1-2.2,0.1s-1.3,0-1.8,0h-1.7c-2,0-3.9,0-5.6-0.1c-1.5,0-3-0.1-4.4-0.2c-1.4-0.1-2.5-0.2-3.2-0.4
	s-1.4-0.6-1.9-1.1S8.2,31,8,30.3s-0.3-1.4-0.4-2.4c-0.1-0.9-0.2-1.8-0.2-2.7c-0.1-1-0.1-2-0.1-3.1s0-2.1,0.1-3.1
	c0-0.9,0.1-1.8,0.2-2.7c0.1-0.9,0.2-1.7,0.4-2.4c0.2-0.7,0.6-1.4,1.1-1.9s1.2-0.9,1.9-1.1c0.7-0.2,1.7-0.3,3.2-0.4
	c1.4-0.1,2.9-0.2,4.4-0.2c1.7-0.1,3.6-0.1,5.6-0.1s3.9,0,5.6,0.1c1.5,0,3,0.1,4.4,0.2c1.4,0.1,2.5,0.2,3.2,0.4s1.4,0.6,1.9,1.1
	s0.9,1.2,1.1,1.9c0.2,0.7,0.3,1.4,0.4,2.4c0.1,0.9,0.2,1.8,0.2,2.7c0.1,1,0.1,2,0.1,3.1v0.7c-0.5-0.2-1.1-0.4-1.6-0.5
	c-0.6-0.1-1.1-0.2-1.7-0.2c-2.3,0-4.3,0.8-6,2.5s-2.5,3.6-2.5,6c0,0.6,0.1,1.2,0.2,1.7C29.5,32.9,29.7,33.4,29.9,33.9z M20.8,27.2
	l8.8-5.1L20.8,17C20.8,17.1,20.8,27.2,20.8,27.2z M36,35.7v-3.4h-3.4v-3.4H36v-3.4h3.4v3.4h3.4v3.4h-3.4v3.4H36z"/>
</svg>
