<?xml version="1.0" encoding="utf-8"?>
<!-- Generator: Adobe Illustrator 26.3.1, SVG Export Plug-In . SVG Version: 6.00 Build 0)  -->
<svg version="1.1" id="Слой_1" xmlns="http://www.w3.org/2000/svg" xmlns:xlink="http://www.w3.org/1999/xlink" x="0px" y="0px"
	 viewBox="0 0 48 48" style="enable-background:new 0 0 48 48;" xml:space="preserve">
<path d="M42.5,42.3L26,25.7l-1.4,6.6H19l2.2-11.4l-6.5,2.9v6.4h-1.5v-7.5l7-2.9L3.8,3.5l1.1-1.1l38.8,38.8
	C43.6,41.1,42.5,42.3,42.5,42.3z M8.8,39.4c-0.8,0-1.4-0.3-2-0.8c-0.5-0.5-0.8-1.2-0.8-2v-5.1h1.5v5.1c0,0.3,0.1,0.6,0.4,0.8
	c0.3,0.3,0.5,0.4,0.8,0.4h5.1v1.5L8.8,39.4L8.8,39.4z M40.5,11.2v-5c0-0.3-0.1-0.6-0.4-0.8C39.8,5.1,39.6,5,39.3,5h-5.1V3.4h5.1
	c0.8,0,1.4,0.3,2,0.8c0.5,0.5,0.8,1.2,0.8,2v5.1h-1.6V11.2z M6,11.2v-5c0-0.4,0.1-0.7,0.2-1.1c0.1-0.3,0.3-0.6,0.5-0.9l1.1,1.1
	C7.7,5.4,7.6,5.6,7.6,5.7C7.5,5.9,7.5,6,7.5,6.2v5.1L6,11.2L6,11.2z M34.2,39.4v-1.5h5c0.2,0,0.3,0,0.4-0.1c0.1-0.1,0.2-0.2,0.3-0.3
	l1.1,1.1c-0.2,0.2-0.5,0.4-0.8,0.6s-0.7,0.2-1.1,0.2H34.2z M12.4,4.9l-1.5-1.5h3v1.5C13.8,4.9,12.4,4.9,12.4,4.9z M42,34.5L40.5,33
	v-1.4H42V34.5z M27,15.5c-0.9,0-1.7-0.3-2.3-0.9c-0.6-0.6-0.9-1.4-0.9-2.3c0-0.9,0.3-1.7,0.9-2.3c0.6-0.7,1.4-1,2.3-1
	s1.7,0.3,2.3,0.9c0.6,0.6,0.9,1.4,0.9,2.3c0,0.9-0.3,1.7-0.9,2.3C28.7,15.2,27.9,15.5,27,15.5z"/>
</svg>
