<?xml version="1.0" encoding="utf-8"?>
<!-- Generator: Adobe Illustrator 26.3.1, SVG Export Plug-In . SVG Version: 6.00 Build 0)  -->
<svg version="1.1" id="Слой_1" xmlns="http://www.w3.org/2000/svg" xmlns:xlink="http://www.w3.org/1999/xlink" x="0px" y="0px"
	 viewBox="0 0 48 48" style="enable-background:new 0 0 48 48;" xml:space="preserve">
<path d="M6,11.8v-5c0-0.8,0.3-1.4,0.8-2C7.3,4.3,8,4,8.8,4h5.1v1.5H8.8C8.5,5.5,8.2,5.6,8,5.9C7.7,6.2,7.5,6.5,7.5,6.8v5.1L6,11.8
	L6,11.8z M13.8,40h-5c-0.8,0-1.4-0.3-2-0.8C6.3,38.7,6,38,6,37.2v-5.1h1.5v5.1c0,0.3,0.1,0.6,0.4,0.8c0.3,0.3,0.5,0.4,0.8,0.4h5.1
	C13.8,38.4,13.8,40,13.8,40z M40.5,11.8v-5c0-0.3-0.1-0.6-0.4-0.8c-0.3-0.3-0.5-0.4-0.8-0.4h-5.1V4h5.1c0.8,0,1.4,0.3,2,0.8
	C41.7,5.3,42,6,42,6.8v5.1L40.5,11.8L40.5,11.8z M27,16.1c-0.9,0-1.7-0.3-2.3-0.9c-0.6-0.6-0.9-1.4-0.9-2.3c0-0.9,0.3-1.7,0.9-2.3
	s1.4-0.9,2.3-0.9s1.7,0.3,2.3,0.9c0.6,0.6,0.9,1.4,0.9,2.3c0,0.9-0.3,1.7-0.9,2.3C28.7,15.8,27.9,16.1,27,16.1z M19,32.9l2.2-11.4
	l-6.5,2.9v6.4h-1.5v-7.5l8.1-3.3c0.8-0.3,1.4-0.6,1.7-0.7c0.4-0.1,0.7-0.2,1-0.2c0.5,0,1,0.1,1.4,0.4c0.4,0.2,0.8,0.6,1,1l2.1,3.3
	c0.4,0.6,0.9,1.2,1.4,1.8c0.5,0.6,1.2,1.1,1.8,1.5l-0.8,1.2c-0.8-0.6-1.5-1.2-2.3-2c-0.7-0.8-1.4-1.7-2.1-2.8l-2,9.4
	C24.5,32.9,19,32.9,19,32.9z M29.5,42c-0.3,0-0.5-0.1-0.6-0.4c-0.1-0.3-0.1-0.6,0-0.8l8-14c0.1-0.3,0.3-0.4,0.6-0.4s0.6,0.1,0.8,0.4
	l8,14c0.1,0.3,0.1,0.5,0,0.8C46,41.9,45.7,42,45.5,42H29.5z M37.5,40.8c0.2,0,0.3-0.1,0.5-0.2c0.1-0.1,0.2-0.3,0.2-0.5
	s-0.1-0.3-0.2-0.5c-0.1-0.1-0.3-0.2-0.5-0.2s-0.3,0.1-0.4,0.2c-0.1,0.1-0.2,0.3-0.2,0.5s0.1,0.3,0.2,0.5S37.3,40.8,37.5,40.8z
	 M36.8,37.1h1.3v-7.6h-1.3V37.1z"/>
</svg>
