<?xml version="1.0" encoding="utf-8"?>
<!-- Generator: Adobe Illustrator 26.3.1, SVG Export Plug-In . SVG Version: 6.00 Build 0)  -->
<svg version="1.1" id="Слой_1" xmlns="http://www.w3.org/2000/svg" xmlns:xlink="http://www.w3.org/1999/xlink" x="0px" y="0px"
	 viewBox="0 0 48 48" style="enable-background:new 0 0 48 48;" xml:space="preserve">
<path d="M39.3,40.3L26.5,27.5c-1,0.9-2.1,1.6-3.5,2c-1.3,0.5-2.6,0.7-4,0.7c-3.2,0-5.9-1.1-8.1-3.3s-3.3-4.9-3.3-8s1.1-5.9,3.3-8.1
	s4.9-3.3,8-3.3s5.9,1.1,8.1,3.3s3.3,4.9,3.3,8c0,1.4-0.2,2.7-0.7,4s-1.2,2.5-2.1,3.5l12.8,12.8L39.3,40.3z M19,28.7
	c2.8,0,5.1-0.9,7-2.8s2.8-4.2,2.8-7s-0.9-5.1-2.8-7s-4.2-2.8-7-2.8s-5.1,0.9-7,2.8s-2.9,4.2-2.9,7s1,5.1,2.9,7S16.2,28.7,19,28.7z
	 M14.4,19.6v-1.5h9.1v1.5H14.4z"/>
</svg>
